<?xml version="1.0" encoding="utf-8" standalone="no"?>
<!DOCTYPE svg PUBLIC "-//W3C//DTD SVG 1.1//EN"
  "http://www.w3.org/Graphics/SVG/1.1/DTD/svg11.dtd">
<svg xmlns:xlink="http://www.w3.org/1999/xlink" width="460.8pt" height="345.6pt" viewBox="0 0 460.8 345.6" xmlns="http://www.w3.org/2000/svg" version="1.1">
 <metadata>
  <rdf:RDF xmlns:dc="http://purl.org/dc/elements/1.1/" xmlns:cc="http://creativecommons.org/ns#" xmlns:rdf="http://www.w3.org/1999/02/22-rdf-syntax-ns#">
   <cc:Work>
    <dc:type rdf:resource="http://purl.org/dc/dcmitype/StillImage"/>
    <dc:date>1970-01-01T00:00:00+00:00</dc:date>
    <dc:format>image/svg+xml</dc:format>
    <dc:creator>
     <cc:Agent>
      <dc:title>Matplotlib v3.10.7, https://matplotlib.org/</dc:title>
     </cc:Agent>
    </dc:creator>
   </cc:Work>
  </rdf:RDF>
 </metadata>
 <defs>
  <style type="text/css">*{stroke-linejoin: round; stroke-linecap: butt}</style>
 </defs>
 <g id="figure_1">
  <g id="patch_1">
   <path d="M 0 345.6 
L 460.8 345.6 
L 460.8 0 
L 0 0 
z
" style="fill: #ffffff"/>
  </g>
  <g id="axes_1">
   <g id="patch_2">
    <path d="M 39.58149 312.24351 
L 373.50576 312.24351 
L 373.50576 18.118365 
L 39.58149 18.118365 
z
" style="fill: #ffffff"/>
   </g>
   <g id="QuadContourSet_1">
    <path d="M 161.008497 293.779197 
L 170.034278 287.733081 
L 161.008497 282.883004 
L 150.038704 287.733081 
z
M 191.365249 312.24351 
L 203.444397 312.24351 
L 191.365249 305.663088 
L 184.581203 312.24351 
z
M 130.651745 269.776244 
L 134.868724 263.222652 
L 130.651745 260.987634 
L 123.345167 263.222652 
z
M 39.58149 214.838554 
L 45.035421 214.201795 
L 39.58149 212.161384 
L 38.957361 214.201795 
z
" clip-path="url(#p3174c6168d)" style="fill: #470e61"/>
    <path d="M 130.651745 289.03424 
L 161.008497 305.87316 
L 170.378913 312.24351 
L 184.581203 312.24351 
L 191.365249 305.663088 
L 203.444397 312.24351 
L 219.350752 312.24351 
L 191.365249 294.34638 
L 184.461451 287.733081 
L 161.008497 273.181461 
L 149.374045 263.222652 
L 130.651745 251.779907 
L 114.188245 238.712224 
L 100.294994 230.533316 
L 77.993187 214.201795 
L 69.938242 209.695418 
L 40.890559 189.691366 
L 39.58149 188.992002 
L 9.224738 173.330671 
L 0.411672 189.691366 
L 9.224738 196.988013 
L 30.930604 214.201795 
L 39.58149 222.390095 
L 62.597818 238.712224 
L 69.938242 244.496315 
L 97.331193 263.222652 
L 100.294994 265.55509 
L 128.841683 287.733081 
z
M 150.038704 287.733081 
L 161.008497 282.883004 
L 170.034278 287.733081 
L 161.008497 293.779197 
z
M 123.345167 263.222652 
L 130.651745 260.987634 
L 134.868724 263.222652 
L 130.651745 269.776244 
z
M 38.957361 214.201795 
L 39.58149 212.161384 
L 45.035421 214.201795 
L 39.58149 214.838554 
z
M -21.132014 171.369761 
L -2.180849 165.180938 
L -21.132014 156.048353 
L -38.846537 165.180938 
z
M -51.488765 150.848855 
L -44.438047 140.670509 
L -51.488765 137.384294 
L -73.689281 140.670509 
z
" clip-path="url(#p3174c6168d)" style="fill: #482677"/>
    <path d="M 130.651745 292.91932 
L 158.964157 312.24351 
L 161.008497 312.24351 
L 170.378913 312.24351 
L 161.008497 305.87316 
L 130.651745 289.03424 
L 128.841683 287.733081 
L 100.294994 265.55509 
L 97.331193 263.222652 
L 69.938242 244.496315 
L 62.597818 238.712224 
L 39.58149 222.390095 
L 30.930604 214.201795 
L 9.224738 196.988013 
L 0.411672 189.691366 
L 9.224738 173.330671 
L 39.58149 188.992002 
L 40.890559 189.691366 
L 69.938242 209.695418 
L 77.993187 214.201795 
L 100.294994 230.533316 
L 114.188245 238.712224 
L 130.651745 251.779907 
L 149.374045 263.222652 
L 161.008497 273.181461 
L 184.461451 287.733081 
L 191.365249 294.34638 
L 219.350752 312.24351 
L 221.722001 312.24351 
L 229.849413 312.24351 
L 221.722001 306.96478 
L 196.137175 287.733081 
L 191.365249 284.802333 
L 161.008497 263.479917 
L 160.738098 263.222652 
L 130.651745 242.57218 
L 126.299906 238.712224 
L 100.294994 221.415844 
L 91.579641 214.201795 
L 69.938242 200.346484 
L 56.456347 189.691366 
L 39.58149 179.197967 
L 19.743381 165.180938 
L 9.224738 159.035351 
L -19.149157 140.670509 
L -21.132014 139.605801 
L -51.488765 121.38908 
L -58.501661 116.16008 
L -81.845517 102.464361 
L -92.731226 91.649651 
L -112.202269 79.903725 
L -112.202269 91.649651 
L -112.202269 116.16008 
L -112.202269 127.504959 
L -93.415946 140.670509 
L -81.845517 150.640105 
L -59.998846 165.180938 
L -51.488765 170.089438 
L -21.132014 182.792329 
L -11.958222 189.691366 
L 9.224738 205.375408 
L 21.458877 214.201795 
L 39.58149 229.941637 
L 53.174904 238.712224 
L 69.938242 250.833551 
L 89.554591 263.222652 
L 100.294994 271.086823 
L 123.034993 287.733081 
z
M -38.846537 165.180938 
L -21.132014 156.048353 
L -2.180849 165.180938 
L -21.132014 171.369761 
z
M -73.689281 140.670509 
L -51.488765 137.384294 
L -44.438047 140.670509 
L -51.488765 150.848855 
z
" clip-path="url(#p3174c6168d)" style="fill: #433d84"/>
    <path d="M 130.651745 296.804399 
L 154.36479 312.24351 
L 158.964157 312.24351 
L 130.651745 292.91932 
L 123.034993 287.733081 
L 100.294994 271.086823 
L 89.554591 263.222652 
L 69.938242 250.833551 
L 53.174904 238.712224 
L 39.58149 229.941637 
L 21.458877 214.201795 
L 9.224738 205.375408 
L -11.958222 189.691366 
L -21.132014 182.792329 
L -51.488765 170.089438 
L -59.998846 165.180938 
L -81.845517 150.640105 
L -93.415946 140.670509 
L -112.202269 127.504959 
L -112.202269 138.924875 
L -109.291775 140.670509 
L -81.845517 161.203829 
L -74.91789 165.180938 
L -51.488765 176.995942 
L -25.390384 189.691366 
L -21.132014 193.909824 
L 9.224738 213.762803 
L 9.905182 214.201795 
L 39.58149 237.493178 
L 41.693851 238.712224 
L 69.938242 257.170787 
L 80.429488 263.222652 
L 100.294994 276.618557 
L 116.508895 287.733081 
z
M 221.722001 306.96478 
L 229.849413 312.24351 
L 238.285111 312.24351 
L 221.722001 300.553668 
L 206.109363 287.733081 
L 191.365249 277.750764 
L 172.764919 263.222652 
L 161.008497 255.673404 
L 138.628689 238.712224 
L 130.651745 233.781652 
L 103.596157 214.201795 
L 100.294994 212.273757 
L 69.938242 190.997549 
L 68.459339 189.691366 
L 39.58149 169.403931 
L 34.349071 165.180938 
L 9.224738 148.189897 
L -0.625189 140.670509 
L -21.132014 127.46299 
L -36.584538 116.16008 
L -51.488765 107.046748 
L -72.961054 91.649651 
L -81.845517 86.495045 
L -110.720811 67.139223 
L -112.202269 66.329485 
L -112.202269 67.139223 
L -112.202269 79.903725 
L -92.731226 91.649651 
L -81.845517 102.464361 
L -58.501661 116.16008 
L -51.488765 121.38908 
L -21.132014 139.605801 
L -19.149157 140.670509 
L 9.224738 159.035351 
L 19.743381 165.180938 
L 39.58149 179.197967 
L 56.456347 189.691366 
L 69.938242 200.346484 
L 91.579641 214.201795 
L 100.294994 221.415844 
L 126.299906 238.712224 
L 130.651745 242.57218 
L 160.738098 263.222652 
L 161.008497 263.479917 
L 191.365249 284.802333 
L 196.137175 287.733081 
z
" clip-path="url(#p3174c6168d)" style="fill: #3b528b"/>
    <path d="M 130.651745 300.689478 
L 149.32562 312.24351 
L 154.36479 312.24351 
L 130.651745 296.804399 
L 116.508895 287.733081 
L 100.294994 276.618557 
L 80.429488 263.222652 
L 69.938242 257.170787 
L 41.693851 238.712224 
L 39.58149 237.493178 
L 9.905182 214.201795 
L 9.224738 213.762803 
L -21.132014 193.909824 
L -25.390384 189.691366 
L -51.488765 176.995942 
L -74.91789 165.180938 
L -81.845517 161.203829 
L -109.291775 140.670509 
L -112.202269 138.924875 
L -112.202269 140.670509 
L -112.202269 148.101094 
L -87.763344 165.180938 
L -81.845517 169.429086 
L -51.488765 183.902446 
L -37.979321 189.691366 
L -21.132014 204.562038 
L -4.140453 214.201795 
L 9.224738 221.719206 
L 32.65252 238.712224 
L 39.58149 243.674945 
L 69.626905 263.222652 
L 69.938242 263.463037 
L 100.294994 282.150291 
L 109.059582 287.733081 
z
M 221.722001 300.553668 
L 238.285111 312.24351 
L 245.555649 312.24351 
L 221.722001 294.142556 
L 214.492354 287.733081 
L 191.365249 270.699194 
L 182.61099 263.222652 
L 161.008497 247.918512 
L 150.045025 238.712224 
L 130.651745 225.292252 
L 117.051683 214.201795 
L 100.294994 203.038378 
L 83.383668 189.691366 
L 69.938242 181.000561 
L 49.519388 165.180938 
L 39.58149 158.99754 
L 15.190933 140.670509 
L 9.224738 137.10412 
L -19.635485 116.16008 
L -21.132014 115.299216 
L -51.488765 93.507198 
L -53.660825 91.649651 
L -81.845517 71.802721 
L -87.494796 67.139223 
L -112.202269 50.153978 
L -112.202269 66.329485 
L -110.720811 67.139223 
L -81.845517 86.495045 
L -72.961054 91.649651 
L -51.488765 107.046748 
L -36.584538 116.16008 
L -21.132014 127.46299 
L -0.625189 140.670509 
L 9.224738 148.189897 
L 34.349071 165.180938 
L 39.58149 169.403931 
L 68.459339 189.691366 
L 69.938242 190.997549 
L 100.294994 212.273757 
L 103.596157 214.201795 
L 130.651745 233.781652 
L 138.628689 238.712224 
L 161.008497 255.673404 
L 172.764919 263.222652 
L 191.365249 277.750764 
L 206.109363 287.733081 
z
" clip-path="url(#p3174c6168d)" style="fill: #32658e"/>
    <path d="M 130.651745 304.574557 
L 143.753556 312.24351 
L 149.32562 312.24351 
L 130.651745 300.689478 
L 109.059582 287.733081 
L 100.294994 282.150291 
L 69.938242 263.463037 
L 69.626905 263.222652 
L 39.58149 243.674945 
L 32.65252 238.712224 
L 9.224738 221.719206 
L -4.140453 214.201795 
L -21.132014 204.562038 
L -37.979321 189.691366 
L -51.488765 183.902446 
L -81.845517 169.429086 
L -87.763344 165.180938 
L -112.202269 148.101094 
L -112.202269 156.87246 
L -98.905955 165.180938 
L -81.845517 176.242337 
L -53.267065 189.691366 
L -51.488765 191.004196 
L -21.879821 214.201795 
L -21.132014 214.866581 
L 9.224738 229.651806 
L 22.988467 238.712224 
L 39.58149 249.593021 
L 62.192318 263.222652 
L 69.938242 268.801259 
L 100.294994 287.682025 
L 100.382123 287.733081 
z
M 221.722001 294.142556 
L 245.555649 312.24351 
L 251.944179 312.24351 
L 221.724789 287.733081 
L 221.722001 287.731289 
L 191.365249 263.647625 
L 190.904754 263.222652 
L 161.008497 240.16362 
L 159.424356 238.712224 
L 130.651745 216.802852 
L 127.76249 214.201795 
L 100.294994 193.802999 
L 95.638439 189.691366 
L 69.938242 170.898326 
L 63.434409 165.180938 
L 39.58149 148.126969 
L 30.970169 140.670509 
L 9.224738 125.475033 
L -1.721987 116.16008 
L -21.132014 102.853327 
L -34.469749 91.649651 
L -51.488765 80.229518 
L -67.292125 67.139223 
L -81.845517 57.583526 
L -100.029769 42.628794 
L -112.202269 34.820879 
L -112.202269 42.628794 
L -112.202269 50.153978 
L -87.494796 67.139223 
L -81.845517 71.802721 
L -53.660825 91.649651 
L -51.488765 93.507198 
L -21.132014 115.299216 
L -19.635485 116.16008 
L 9.224738 137.10412 
L 15.190933 140.670509 
L 39.58149 158.99754 
L 49.519388 165.180938 
L 69.938242 181.000561 
L 83.383668 189.691366 
L 100.294994 203.038378 
L 117.051683 214.201795 
L 130.651745 225.292252 
L 150.045025 238.712224 
L 161.008497 247.918512 
L 182.61099 263.222652 
L 191.365249 270.699194 
L 214.492354 287.733081 
z
" clip-path="url(#p3174c6168d)" style="fill: #2a768e"/>
    <path d="M 100.294994 293.40948 
L 130.651745 308.459637 
L 137.522415 312.24351 
L 143.753556 312.24351 
L 130.651745 304.574557 
L 100.382123 287.733081 
L 100.294994 287.682025 
L 69.938242 268.801259 
L 62.192318 263.222652 
L 39.58149 249.593021 
L 22.988467 238.712224 
L 9.224738 229.651806 
L -21.132014 214.866581 
L -21.879821 214.201795 
L -51.488765 191.004196 
L -53.267065 189.691366 
L -81.845517 176.242337 
L -98.905955 165.180938 
L -112.202269 156.87246 
L -112.202269 165.180938 
L -112.202269 165.716979 
L -81.845517 183.055589 
L -65.828005 189.691366 
L -51.488765 199.117289 
L -30.466236 214.201795 
L -21.132014 221.860892 
L 9.224738 237.584406 
L 11.146921 238.712224 
L 39.58149 255.511097 
L 53.534845 263.222652 
L 69.938242 274.139481 
L 93.398433 287.733081 
z
M 252.078753 312.24351 
L 261.068017 312.24351 
L 252.078753 305.830115 
L 231.648153 287.733081 
L 221.722001 280.71343 
L 201.552612 263.222652 
L 191.365249 256.129174 
L 170.743871 238.712224 
L 161.008497 231.989039 
L 139.816497 214.201795 
L 130.651745 207.959534 
L 108.44176 189.691366 
L 100.294994 184.263408 
L 76.925236 165.180938 
L 69.938242 160.55847 
L 45.182059 140.670509 
L 39.58149 137.059191 
L 13.126874 116.16008 
L 9.224738 113.68032 
L -18.983122 91.649651 
L -21.132014 90.299344 
L -51.22711 67.139223 
L -51.488765 66.979602 
L -81.845517 43.58434 
L -82.837534 42.628794 
L -112.202269 20.220616 
L -112.202269 34.820879 
L -100.029769 42.628794 
L -81.845517 57.583526 
L -67.292125 67.139223 
L -51.488765 80.229518 
L -34.469749 91.649651 
L -21.132014 102.853327 
L -1.721987 116.16008 
L 9.224738 125.475033 
L 30.970169 140.670509 
L 39.58149 148.126969 
L 63.434409 165.180938 
L 69.938242 170.898326 
L 95.638439 189.691366 
L 100.294994 193.802999 
L 127.76249 214.201795 
L 130.651745 216.802852 
L 159.424356 238.712224 
L 161.008497 240.16362 
L 190.904754 263.222652 
L 191.365249 263.647625 
L 221.722001 287.731289 
L 221.724789 287.733081 
L 251.944179 312.24351 
z
" clip-path="url(#p3174c6168d)" style="fill: #24878e"/>
    <path d="M 100.294994 299.138758 
L 130.39121 312.24351 
L 130.651745 312.24351 
L 137.522415 312.24351 
L 130.651745 308.459637 
L 100.294994 293.40948 
L 93.398433 287.733081 
L 69.938242 274.139481 
L 53.534845 263.222652 
L 39.58149 255.511097 
L 11.146921 238.712224 
L 9.224738 237.584406 
L -21.132014 221.860892 
L -30.466236 214.201795 
L -51.488765 199.117289 
L -65.828005 189.691366 
L -81.845517 183.055589 
L -112.202269 165.716979 
L -112.202269 175.874559 
L -82.28098 189.691366 
L -81.845517 190.015268 
L -51.488765 207.230383 
L -40.727887 214.201795 
L -21.132014 228.855203 
L -0.322548 238.712224 
L 9.224738 246.319399 
L 39.58149 261.429173 
L 43.171442 263.222652 
L 69.938242 279.477702 
L 85.382458 287.733081 
z
M 252.078753 305.830115 
L 261.068017 312.24351 
L 268.909235 312.24351 
L 252.078753 299.269802 
L 239.996645 287.733081 
L 221.722001 273.695571 
L 210.589925 263.222652 
L 191.365249 248.580783 
L 180.682142 238.712224 
L 161.008497 223.717823 
L 150.733084 214.201795 
L 130.651745 198.95988 
L 120.546152 189.691366 
L 100.294994 174.479697 
L 90.185589 165.180938 
L 69.938242 149.90878 
L 59.855399 140.670509 
L 39.58149 125.560712 
L 29.280761 116.16008 
L 9.224738 101.218926 
L -1.236937 91.649651 
L -21.132014 76.770452 
L -31.65132 67.139223 
L -51.488765 52.483406 
L -62.252011 42.628794 
L -81.845517 28.110912 
L -92.792241 18.118365 
L -112.202269 18.118365 
L -112.202269 20.220616 
L -82.837534 42.628794 
L -81.845517 43.58434 
L -51.488765 66.979602 
L -51.22711 67.139223 
L -21.132014 90.299344 
L -18.983122 91.649651 
L 9.224738 113.68032 
L 13.126874 116.16008 
L 39.58149 137.059191 
L 45.182059 140.670509 
L 69.938242 160.55847 
L 76.925236 165.180938 
L 100.294994 184.263408 
L 108.44176 189.691366 
L 130.651745 207.959534 
L 139.816497 214.201795 
L 161.008497 231.989039 
L 170.743871 238.712224 
L 191.365249 256.129174 
L 201.552612 263.222652 
L 221.722001 280.71343 
L 231.648153 287.733081 
z
" clip-path="url(#p3174c6168d)" style="fill: #1f998a"/>
    <path d="M 100.294994 304.868036 
L 119.270827 312.24351 
L 130.39121 312.24351 
L 100.294994 299.138758 
L 85.382458 287.733081 
L 69.938242 279.477702 
L 43.171442 263.222652 
L 39.58149 261.429173 
L 9.224738 246.319399 
L -0.322548 238.712224 
L -21.132014 228.855203 
L -40.727887 214.201795 
L -51.488765 207.230383 
L -81.845517 190.015268 
L -82.28098 189.691366 
L -112.202269 175.874559 
L -112.202269 186.032138 
L -102.48893 189.691366 
L -81.845517 202.449931 
L -54.568107 214.201795 
L -51.488765 216.617064 
L -21.132014 235.849514 
L -14.198836 238.712224 
L 9.224738 255.18738 
L 28.450961 263.222652 
L 39.58149 272.063193 
L 69.938242 284.815924 
L 75.925752 287.733081 
z
M 252.078753 299.269802 
L 268.909235 312.24351 
L 275.73404 312.24351 
L 252.078753 292.709488 
L 247.202345 287.733081 
L 221.722001 266.677712 
L 218.302718 263.222652 
L 191.365249 241.032391 
L 189.041173 238.712224 
L 161.008497 215.446607 
L 159.772831 214.201795 
L 130.651745 189.960225 
L 130.384303 189.691366 
L 101.29542 165.180938 
L 100.294994 164.512609 
L 72.724948 140.670509 
L 69.938242 138.786358 
L 43.642107 116.16008 
L 39.58149 113.463613 
L 14.525948 91.649651 
L 9.224738 88.061601 
L -14.379655 67.139223 
L -21.132014 62.469871 
L -43.600113 42.628794 
L -51.488765 37.115173 
L -72.629643 18.118365 
L -81.845517 18.118365 
L -92.792241 18.118365 
L -81.845517 28.110912 
L -62.252011 42.628794 
L -51.488765 52.483406 
L -31.65132 67.139223 
L -21.132014 76.770452 
L -1.236937 91.649651 
L 9.224738 101.218926 
L 29.280761 116.16008 
L 39.58149 125.560712 
L 59.855399 140.670509 
L 69.938242 149.90878 
L 90.185589 165.180938 
L 100.294994 174.479697 
L 120.546152 189.691366 
L 130.651745 198.95988 
L 150.733084 214.201795 
L 161.008497 223.717823 
L 180.682142 238.712224 
L 191.365249 248.580783 
L 210.589925 263.222652 
L 221.722001 273.695571 
L 239.996645 287.733081 
z
" clip-path="url(#p3174c6168d)" style="fill: #24aa83"/>
    <path d="M 69.938242 298.379703 
L 100.294994 310.597314 
L 105.161067 312.24351 
L 119.270827 312.24351 
L 100.294994 304.868036 
L 75.925752 287.733081 
L 69.938242 284.815924 
L 39.58149 272.063193 
L 28.450961 263.222652 
L 9.224738 255.18738 
L -14.198836 238.712224 
L -21.132014 235.849514 
L -51.488765 216.617064 
L -54.568107 214.201795 
L -81.845517 202.449931 
L -102.48893 189.691366 
L -112.202269 186.032138 
L -112.202269 189.691366 
L -112.202269 207.177269 
L -86.073668 214.201795 
L -81.845517 216.18061 
L -51.488765 233.780614 
L -39.523994 238.712224 
L -21.132014 250.370202 
L 6.232953 263.222652 
L 9.224738 266.672443 
L 39.58149 284.747825 
L 52.014995 287.733081 
z
M 252.078753 292.709488 
L 275.73404 312.24351 
L 281.775954 312.24351 
L 255.862137 287.733081 
L 252.078753 285.122185 
L 229.366747 263.222652 
L 221.722001 257.66357 
L 201.957228 238.712224 
L 191.365249 230.769839 
L 174.362005 214.201795 
L 161.008497 203.972805 
L 146.48444 189.691366 
L 130.651745 177.401826 
L 118.24693 165.180938 
L 100.294994 151.02934 
L 90.029025 140.670509 
L 69.938242 124.569716 
L 61.619234 116.16008 
L 39.58149 98.684042 
L 32.722857 91.649651 
L 9.224738 72.60162 
L 4.006819 67.139223 
L -21.132014 46.262422 
L -24.593642 42.628794 
L -51.488765 19.895505 
L -53.143825 18.118365 
L -72.629643 18.118365 
L -51.488765 37.115173 
L -43.600113 42.628794 
L -21.132014 62.469871 
L -14.379655 67.139223 
L 9.224738 88.061601 
L 14.525948 91.649651 
L 39.58149 113.463613 
L 43.642107 116.16008 
L 69.938242 138.786358 
L 72.724948 140.670509 
L 100.294994 164.512609 
L 101.29542 165.180938 
L 130.384303 189.691366 
L 130.651745 189.960225 
L 159.772831 214.201795 
L 161.008497 215.446607 
L 189.041173 238.712224 
L 191.365249 241.032391 
L 218.302718 263.222652 
L 221.722001 266.677712 
L 247.202345 287.733081 
z
" clip-path="url(#p3174c6168d)" style="fill: #3aba76"/>
    <path d="M 9.224738 296.030104 
L 39.58149 299.394125 
L 61.792949 312.24351 
L 69.938242 312.24351 
L 100.294994 312.24351 
L 105.161067 312.24351 
L 100.294994 310.597314 
L 69.938242 298.379703 
L 52.014995 287.733081 
L 39.58149 284.747825 
L 9.224738 266.672443 
L 6.232953 263.222652 
L -21.132014 250.370202 
L -39.523994 238.712224 
L -51.488765 233.780614 
L -81.845517 216.18061 
L -86.073668 214.201795 
L -112.202269 207.177269 
L -112.202269 214.201795 
L -112.202269 238.712224 
L -112.202269 246.956132 
L -81.845517 246.20448 
L -59.820459 263.222652 
L -51.488765 271.519675 
L -21.132014 270.346286 
L 0.893044 287.733081 
z
M 282.435504 312.24351 
L 295.731362 312.24351 
L 282.435504 302.255203 
L 269.157325 287.733081 
L 252.078753 274.308229 
L 241.797225 263.222652 
L 221.722001 246.713513 
L 214.258635 238.712224 
L 191.365249 219.302805 
L 186.689028 214.201795 
L 161.008497 191.931626 
L 158.978418 189.691366 
L 131.647513 165.180938 
L 130.651745 164.479762 
L 106.557976 140.670509 
L 100.294994 136.100882 
L 80.594069 116.16008 
L 69.938242 107.964931 
L 53.619634 91.649651 
L 39.58149 80.487592 
L 26.789279 67.139223 
L 9.224738 52.693047 
L -0.019082 42.628794 
L -21.132014 24.813701 
L -27.122423 18.118365 
L -51.488765 18.118365 
L -53.143825 18.118365 
L -51.488765 19.895505 
L -24.593642 42.628794 
L -21.132014 46.262422 
L 4.006819 67.139223 
L 9.224738 72.60162 
L 32.722857 91.649651 
L 39.58149 98.684042 
L 61.619234 116.16008 
L 69.938242 124.569716 
L 90.029025 140.670509 
L 100.294994 151.02934 
L 118.24693 165.180938 
L 130.651745 177.401826 
L 146.48444 189.691366 
L 161.008497 203.972805 
L 174.362005 214.201795 
L 191.365249 230.769839 
L 201.957228 238.712224 
L 221.722001 257.66357 
L 229.366747 263.222652 
L 252.078753 285.122185 
L 255.862137 287.733081 
L 281.775954 312.24351 
z
" clip-path="url(#p3174c6168d)" style="fill: #5ec962"/>
    <path d="M -81.845517 297.426136 
L -51.488765 297.129788 
L -31.154134 312.24351 
L -21.132014 312.24351 
L 9.224738 312.24351 
L 39.58149 312.24351 
L 61.792949 312.24351 
L 39.58149 299.394125 
L 9.224738 296.030104 
L 0.893044 287.733081 
L -21.132014 270.346286 
L -51.488765 271.519675 
L -59.820459 263.222652 
L -81.845517 246.20448 
L -112.202269 246.956132 
L -112.202269 263.222652 
L -112.202269 272.310916 
L -91.867637 287.733081 
z
M 282.435504 302.255203 
L 295.731362 312.24351 
L 307.590337 312.24351 
L 282.435504 290.952878 
L 279.766485 287.733081 
L 252.078753 263.494273 
L 251.849372 263.222652 
L 230.783985 238.712224 
L 221.722001 232.084826 
L 206.684108 214.201795 
L 191.365249 202.228791 
L 180.748822 189.691366 
L 161.008497 173.334232 
L 154.073695 165.180938 
L 130.651745 144.612868 
L 127.34799 140.670509 
L 100.294994 116.381014 
L 100.112538 116.16008 
L 78.272664 91.649651 
L 69.938242 85.264677 
L 54.283489 67.139223 
L 39.58149 54.893762 
L 29.294631 42.628794 
L 9.224738 25.691991 
L 2.918765 18.118365 
L -21.132014 18.118365 
L -27.122423 18.118365 
L -21.132014 24.813701 
L -0.019082 42.628794 
L 9.224738 52.693047 
L 26.789279 67.139223 
L 39.58149 80.487592 
L 53.619634 91.649651 
L 69.938242 107.964931 
L 80.594069 116.16008 
L 100.294994 136.100882 
L 106.557976 140.670509 
L 130.651745 164.479762 
L 131.647513 165.180938 
L 158.978418 189.691366 
L 161.008497 191.931626 
L 186.689028 214.201795 
L 191.365249 219.302805 
L 214.258635 238.712224 
L 221.722001 246.713513 
L 241.797225 263.222652 
L 252.078753 274.308229 
L 269.157325 287.733081 
z
" clip-path="url(#p3174c6168d)" style="fill: #89d548"/>
    <path d="M -81.845517 312.24351 
L -51.488765 312.24351 
L -31.154134 312.24351 
L -51.488765 297.129788 
L -81.845517 297.426136 
L -91.867637 287.733081 
L -112.202269 272.310916 
L -112.202269 287.733081 
L -112.202269 312.24351 
z
M 282.435504 290.952878 
L 307.590337 312.24351 
L 312.792256 312.24351 
L 339.204638 312.24351 
L 312.792256 289.273644 
L 311.777995 287.733081 
L 295.884888 263.222652 
L 282.435504 252.887041 
L 274.662331 238.712224 
L 282.435504 223.922458 
L 300.193133 238.712224 
L 312.792256 249.382896 
L 328.558353 263.222652 
L 343.149008 277.414275 
L 354.132858 287.733081 
L 373.50576 309.672447 
L 376.006499 312.24351 
L 403.862512 312.24351 
L 434.219263 312.24351 
L 464.576015 312.24351 
L 494.932767 312.24351 
L 525.289519 312.24351 
L 555.646271 312.24351 
L 586.003023 312.24351 
L 616.359774 312.24351 
L 646.716526 312.24351 
L 677.073278 312.24351 
L 707.43003 312.24351 
L 737.786782 312.24351 
L 768.143533 312.24351 
L 798.500285 312.24351 
L 828.857037 312.24351 
L 859.213789 312.24351 
L 889.570541 312.24351 
L 919.927292 312.24351 
L 950.284044 312.24351 
L 980.640796 312.24351 
L 1010.997548 312.24351 
L 1041.3543 312.24351 
L 1071.711051 312.24351 
L 1102.067803 312.24351 
L 1132.424555 312.24351 
L 1162.781307 312.24351 
L 1193.138059 312.24351 
L 1223.49481 312.24351 
L 1223.49481 287.733081 
L 1223.49481 263.222652 
L 1223.49481 238.712224 
L 1223.49481 214.201795 
L 1223.49481 189.691366 
L 1223.49481 165.180938 
L 1223.49481 140.670509 
L 1223.49481 116.16008 
L 1223.49481 91.649651 
L 1223.49481 67.139223 
L 1223.49481 42.628794 
L 1223.49481 18.118365 
L 1193.138059 18.118365 
L 1162.781307 18.118365 
L 1132.424555 18.118365 
L 1102.067803 18.118365 
L 1071.711051 18.118365 
L 1041.3543 18.118365 
L 1010.997548 18.118365 
L 980.640796 18.118365 
L 950.284044 18.118365 
L 919.927292 18.118365 
L 889.570541 18.118365 
L 859.213789 18.118365 
L 828.857037 18.118365 
L 798.500285 18.118365 
L 768.143533 18.118365 
L 737.786782 18.118365 
L 707.43003 18.118365 
L 677.073278 18.118365 
L 646.716526 18.118365 
L 616.359774 18.118365 
L 586.003023 18.118365 
L 555.646271 18.118365 
L 525.289519 18.118365 
L 494.932767 18.118365 
L 464.576015 18.118365 
L 434.219263 18.118365 
L 403.862512 18.118365 
L 373.50576 18.118365 
L 343.149008 18.118365 
L 312.792256 18.118365 
L 282.435504 18.118365 
L 252.078753 18.118365 
L 221.722001 18.118365 
L 191.365249 18.118365 
L 161.008497 18.118365 
L 130.651745 18.118365 
L 100.294994 18.118365 
L 69.938242 18.118365 
L 39.58149 18.118365 
L 9.224738 18.118365 
L 2.918765 18.118365 
L 9.224738 25.691991 
L 29.294631 42.628794 
L 39.58149 54.893762 
L 54.283489 67.139223 
L 69.938242 85.264677 
L 78.272664 91.649651 
L 100.112538 116.16008 
L 100.294994 116.381014 
L 127.34799 140.670509 
L 130.651745 144.612868 
L 154.073695 165.180938 
L 161.008497 173.334232 
L 180.748822 189.691366 
L 191.365249 202.228791 
L 206.684108 214.201795 
L 221.722001 232.084826 
L 230.783985 238.712224 
L 251.849372 263.222652 
L 252.078753 263.494273 
L 279.766485 287.733081 
z
M 249.19842 214.201795 
L 252.078753 202.118145 
L 268.046475 214.201795 
L 252.078753 219.096684 
z
" clip-path="url(#p3174c6168d)" style="fill: #b8de29"/>
    <path d="M 312.792256 289.273644 
L 339.204638 312.24351 
L 343.149008 312.24351 
L 373.50576 312.24351 
L 376.006499 312.24351 
L 373.50576 309.672447 
L 354.132858 287.733081 
L 343.149008 277.414275 
L 328.558353 263.222652 
L 312.792256 249.382896 
L 300.193133 238.712224 
L 282.435504 223.922458 
L 274.662331 238.712224 
L 282.435504 252.887041 
L 295.884888 263.222652 
L 311.777995 287.733081 
z
M 252.078753 219.096684 
L 268.046475 214.201795 
L 252.078753 202.118145 
L 249.19842 214.201795 
z
" clip-path="url(#p3174c6168d)" style="fill: #e7e419"/>
   </g>
   <g id="PathCollection_1">
    <defs>
     <path id="mdc0741d33a" d="M -3 3 
L 3 -3 
M -3 -3 
L 3 3 
" style="stroke: #ff0000; stroke-width: 1.5"/>
    </defs>
    <g clip-path="url(#p3174c6168d)">
     <use xlink:href="#mdc0741d33a" x="343.149008" y="312.24351" style="fill: #ff0000; stroke: #ff0000; stroke-width: 1.5"/>
     <use xlink:href="#mdc0741d33a" x="343.149008" y="287.733081" style="fill: #ff0000; stroke: #ff0000; stroke-width: 1.5"/>
     <use xlink:href="#mdc0741d33a" x="312.792256" y="263.222652" style="fill: #ff0000; stroke: #ff0000; stroke-width: 1.5"/>
     <use xlink:href="#mdc0741d33a" x="282.435504" y="238.712224" style="fill: #ff0000; stroke: #ff0000; stroke-width: 1.5"/>
     <use xlink:href="#mdc0741d33a" x="252.078753" y="214.201795" style="fill: #ff0000; stroke: #ff0000; stroke-width: 1.5"/>
     <use xlink:href="#mdc0741d33a" x="221.722001" y="189.691366" style="fill: #ff0000; stroke: #ff0000; stroke-width: 1.5"/>
     <use xlink:href="#mdc0741d33a" x="221.722001" y="165.180938" style="fill: #ff0000; stroke: #ff0000; stroke-width: 1.5"/>
     <use xlink:href="#mdc0741d33a" x="191.365249" y="140.670509" style="fill: #ff0000; stroke: #ff0000; stroke-width: 1.5"/>
     <use xlink:href="#mdc0741d33a" x="161.008497" y="116.16008" style="fill: #ff0000; stroke: #ff0000; stroke-width: 1.5"/>
     <use xlink:href="#mdc0741d33a" x="130.651745" y="91.649651" style="fill: #ff0000; stroke: #ff0000; stroke-width: 1.5"/>
     <use xlink:href="#mdc0741d33a" x="100.294994" y="67.139223" style="fill: #ff0000; stroke: #ff0000; stroke-width: 1.5"/>
     <use xlink:href="#mdc0741d33a" x="100.294994" y="42.628794" style="fill: #ff0000; stroke: #ff0000; stroke-width: 1.5"/>
     <use xlink:href="#mdc0741d33a" x="69.938242" y="18.118365" style="fill: #ff0000; stroke: #ff0000; stroke-width: 1.5"/>
    </g>
   </g>
   <g id="matplotlib.axis_1">
    <g id="xtick_1">
     <g id="line2d_1">
      <defs>
       <path id="m38f3b05bbe" d="M 0 0 
L 0 3.5 
" style="stroke: #000000; stroke-width: 0.8"/>
      </defs>
      <g>
       <use xlink:href="#m38f3b05bbe" x="130.651745" y="312.24351" style="stroke: #000000; stroke-width: 0.8"/>
      </g>
     </g>
     <g id="text_1">
      <!-- $\mathdefault{10^{-3}}$ -->
      <g transform="translate(118.901745 326.841947) scale(0.1 -0.1)">
       <defs>
        <path id="DejaVuSans-31" d="M 794 531 
L 1825 531 
L 1825 4091 
L 703 3866 
L 703 4441 
L 1819 4666 
L 2450 4666 
L 2450 531 
L 3481 531 
L 3481 0 
L 794 0 
L 794 531 
z
" transform="scale(0.015625)"/>
        <path id="DejaVuSans-30" d="M 2034 4250 
Q 1547 4250 1301 3770 
Q 1056 3291 1056 2328 
Q 1056 1369 1301 889 
Q 1547 409 2034 409 
Q 2525 409 2770 889 
Q 3016 1369 3016 2328 
Q 3016 3291 2770 3770 
Q 2525 4250 2034 4250 
z
M 2034 4750 
Q 2819 4750 3233 4129 
Q 3647 3509 3647 2328 
Q 3647 1150 3233 529 
Q 2819 -91 2034 -91 
Q 1250 -91 836 529 
Q 422 1150 422 2328 
Q 422 3509 836 4129 
Q 1250 4750 2034 4750 
z
" transform="scale(0.015625)"/>
        <path id="DejaVuSans-2212" d="M 678 2272 
L 4684 2272 
L 4684 1741 
L 678 1741 
L 678 2272 
z
" transform="scale(0.015625)"/>
        <path id="DejaVuSans-33" d="M 2597 2516 
Q 3050 2419 3304 2112 
Q 3559 1806 3559 1356 
Q 3559 666 3084 287 
Q 2609 -91 1734 -91 
Q 1441 -91 1130 -33 
Q 819 25 488 141 
L 488 750 
Q 750 597 1062 519 
Q 1375 441 1716 441 
Q 2309 441 2620 675 
Q 2931 909 2931 1356 
Q 2931 1769 2642 2001 
Q 2353 2234 1838 2234 
L 1294 2234 
L 1294 2753 
L 1863 2753 
Q 2328 2753 2575 2939 
Q 2822 3125 2822 3475 
Q 2822 3834 2567 4026 
Q 2313 4219 1838 4219 
Q 1578 4219 1281 4162 
Q 984 4106 628 3988 
L 628 4550 
Q 988 4650 1302 4700 
Q 1616 4750 1894 4750 
Q 2613 4750 3031 4423 
Q 3450 4097 3450 3541 
Q 3450 3153 3228 2886 
Q 3006 2619 2597 2516 
z
" transform="scale(0.015625)"/>
       </defs>
       <use xlink:href="#DejaVuSans-31" transform="translate(0 0.765625)"/>
       <use xlink:href="#DejaVuSans-30" transform="translate(63.623047 0.765625)"/>
       <use xlink:href="#DejaVuSans-2212" transform="translate(128.203125 39.046875) scale(0.7)"/>
       <use xlink:href="#DejaVuSans-33" transform="translate(186.855469 39.046875) scale(0.7)"/>
      </g>
     </g>
    </g>
    <g id="xtick_2">
     <g id="line2d_2">
      <g>
       <use xlink:href="#m38f3b05bbe" x="252.078753" y="312.24351" style="stroke: #000000; stroke-width: 0.8"/>
      </g>
     </g>
     <g id="text_2">
      <!-- $\mathdefault{10^{-2}}$ -->
      <g transform="translate(240.328753 326.841947) scale(0.1 -0.1)">
       <defs>
        <path id="DejaVuSans-32" d="M 1228 531 
L 3431 531 
L 3431 0 
L 469 0 
L 469 531 
Q 828 903 1448 1529 
Q 2069 2156 2228 2338 
Q 2531 2678 2651 2914 
Q 2772 3150 2772 3378 
Q 2772 3750 2511 3984 
Q 2250 4219 1831 4219 
Q 1534 4219 1204 4116 
Q 875 4013 500 3803 
L 500 4441 
Q 881 4594 1212 4672 
Q 1544 4750 1819 4750 
Q 2544 4750 2975 4387 
Q 3406 4025 3406 3419 
Q 3406 3131 3298 2873 
Q 3191 2616 2906 2266 
Q 2828 2175 2409 1742 
Q 1991 1309 1228 531 
z
" transform="scale(0.015625)"/>
       </defs>
       <use xlink:href="#DejaVuSans-31" transform="translate(0 0.765625)"/>
       <use xlink:href="#DejaVuSans-30" transform="translate(63.623047 0.765625)"/>
       <use xlink:href="#DejaVuSans-2212" transform="translate(128.203125 39.046875) scale(0.7)"/>
       <use xlink:href="#DejaVuSans-32" transform="translate(186.855469 39.046875) scale(0.7)"/>
      </g>
     </g>
    </g>
    <g id="xtick_3">
     <g id="line2d_3">
      <g>
       <use xlink:href="#m38f3b05bbe" x="373.50576" y="312.24351" style="stroke: #000000; stroke-width: 0.8"/>
      </g>
     </g>
     <g id="text_3">
      <!-- $\mathdefault{10^{-1}}$ -->
      <g transform="translate(361.75576 326.841947) scale(0.1 -0.1)">
       <use xlink:href="#DejaVuSans-31" transform="translate(0 0.684375)"/>
       <use xlink:href="#DejaVuSans-30" transform="translate(63.623047 0.684375)"/>
       <use xlink:href="#DejaVuSans-2212" transform="translate(128.203125 38.965625) scale(0.7)"/>
       <use xlink:href="#DejaVuSans-31" transform="translate(186.855469 38.965625) scale(0.7)"/>
      </g>
     </g>
    </g>
    <g id="xtick_4">
     <g id="line2d_4">
      <defs>
       <path id="m360e1f0208" d="M 0 0 
L 0 2 
" style="stroke: #000000; stroke-width: 0.6"/>
      </defs>
      <g>
       <use xlink:href="#m360e1f0208" x="45.77791" y="312.24351" style="stroke: #000000; stroke-width: 0.6"/>
      </g>
     </g>
    </g>
    <g id="xtick_5">
     <g id="line2d_5">
      <g>
       <use xlink:href="#m360e1f0208" x="67.160144" y="312.24351" style="stroke: #000000; stroke-width: 0.6"/>
      </g>
     </g>
    </g>
    <g id="xtick_6">
     <g id="line2d_6">
      <g>
       <use xlink:href="#m360e1f0208" x="82.331081" y="312.24351" style="stroke: #000000; stroke-width: 0.6"/>
      </g>
     </g>
    </g>
    <g id="xtick_7">
     <g id="line2d_7">
      <g>
       <use xlink:href="#m360e1f0208" x="94.098574" y="312.24351" style="stroke: #000000; stroke-width: 0.6"/>
      </g>
     </g>
    </g>
    <g id="xtick_8">
     <g id="line2d_8">
      <g>
       <use xlink:href="#m360e1f0208" x="103.713316" y="312.24351" style="stroke: #000000; stroke-width: 0.6"/>
      </g>
     </g>
    </g>
    <g id="xtick_9">
     <g id="line2d_9">
      <g>
       <use xlink:href="#m360e1f0208" x="111.842464" y="312.24351" style="stroke: #000000; stroke-width: 0.6"/>
      </g>
     </g>
    </g>
    <g id="xtick_10">
     <g id="line2d_10">
      <g>
       <use xlink:href="#m360e1f0208" x="118.884253" y="312.24351" style="stroke: #000000; stroke-width: 0.6"/>
      </g>
     </g>
    </g>
    <g id="xtick_11">
     <g id="line2d_11">
      <g>
       <use xlink:href="#m360e1f0208" x="125.09555" y="312.24351" style="stroke: #000000; stroke-width: 0.6"/>
      </g>
     </g>
    </g>
    <g id="xtick_12">
     <g id="line2d_12">
      <g>
       <use xlink:href="#m360e1f0208" x="167.204917" y="312.24351" style="stroke: #000000; stroke-width: 0.6"/>
      </g>
     </g>
    </g>
    <g id="xtick_13">
     <g id="line2d_13">
      <g>
       <use xlink:href="#m360e1f0208" x="188.587151" y="312.24351" style="stroke: #000000; stroke-width: 0.6"/>
      </g>
     </g>
    </g>
    <g id="xtick_14">
     <g id="line2d_14">
      <g>
       <use xlink:href="#m360e1f0208" x="203.758088" y="312.24351" style="stroke: #000000; stroke-width: 0.6"/>
      </g>
     </g>
    </g>
    <g id="xtick_15">
     <g id="line2d_15">
      <g>
       <use xlink:href="#m360e1f0208" x="215.525581" y="312.24351" style="stroke: #000000; stroke-width: 0.6"/>
      </g>
     </g>
    </g>
    <g id="xtick_16">
     <g id="line2d_16">
      <g>
       <use xlink:href="#m360e1f0208" x="225.140323" y="312.24351" style="stroke: #000000; stroke-width: 0.6"/>
      </g>
     </g>
    </g>
    <g id="xtick_17">
     <g id="line2d_17">
      <g>
       <use xlink:href="#m360e1f0208" x="233.269471" y="312.24351" style="stroke: #000000; stroke-width: 0.6"/>
      </g>
     </g>
    </g>
    <g id="xtick_18">
     <g id="line2d_18">
      <g>
       <use xlink:href="#m360e1f0208" x="240.31126" y="312.24351" style="stroke: #000000; stroke-width: 0.6"/>
      </g>
     </g>
    </g>
    <g id="xtick_19">
     <g id="line2d_19">
      <g>
       <use xlink:href="#m360e1f0208" x="246.522558" y="312.24351" style="stroke: #000000; stroke-width: 0.6"/>
      </g>
     </g>
    </g>
    <g id="xtick_20">
     <g id="line2d_20">
      <g>
       <use xlink:href="#m360e1f0208" x="288.631924" y="312.24351" style="stroke: #000000; stroke-width: 0.6"/>
      </g>
     </g>
    </g>
    <g id="xtick_21">
     <g id="line2d_21">
      <g>
       <use xlink:href="#m360e1f0208" x="310.014159" y="312.24351" style="stroke: #000000; stroke-width: 0.6"/>
      </g>
     </g>
    </g>
    <g id="xtick_22">
     <g id="line2d_22">
      <g>
       <use xlink:href="#m360e1f0208" x="325.185096" y="312.24351" style="stroke: #000000; stroke-width: 0.6"/>
      </g>
     </g>
    </g>
    <g id="xtick_23">
     <g id="line2d_23">
      <g>
       <use xlink:href="#m360e1f0208" x="336.952588" y="312.24351" style="stroke: #000000; stroke-width: 0.6"/>
      </g>
     </g>
    </g>
    <g id="xtick_24">
     <g id="line2d_24">
      <g>
       <use xlink:href="#m360e1f0208" x="346.56733" y="312.24351" style="stroke: #000000; stroke-width: 0.6"/>
      </g>
     </g>
    </g>
    <g id="xtick_25">
     <g id="line2d_25">
      <g>
       <use xlink:href="#m360e1f0208" x="354.696478" y="312.24351" style="stroke: #000000; stroke-width: 0.6"/>
      </g>
     </g>
    </g>
    <g id="xtick_26">
     <g id="line2d_26">
      <g>
       <use xlink:href="#m360e1f0208" x="361.738267" y="312.24351" style="stroke: #000000; stroke-width: 0.6"/>
      </g>
     </g>
    </g>
    <g id="xtick_27">
     <g id="line2d_27">
      <g>
       <use xlink:href="#m360e1f0208" x="367.949565" y="312.24351" style="stroke: #000000; stroke-width: 0.6"/>
      </g>
     </g>
    </g>
    <g id="text_4">
     <!-- bandwidth -->
     <g transform="translate(180.181125 340.520072) scale(0.1 -0.1)">
      <defs>
       <path id="DejaVuSans-62" d="M 3116 1747 
Q 3116 2381 2855 2742 
Q 2594 3103 2138 3103 
Q 1681 3103 1420 2742 
Q 1159 2381 1159 1747 
Q 1159 1113 1420 752 
Q 1681 391 2138 391 
Q 2594 391 2855 752 
Q 3116 1113 3116 1747 
z
M 1159 2969 
Q 1341 3281 1617 3432 
Q 1894 3584 2278 3584 
Q 2916 3584 3314 3078 
Q 3713 2572 3713 1747 
Q 3713 922 3314 415 
Q 2916 -91 2278 -91 
Q 1894 -91 1617 61 
Q 1341 213 1159 525 
L 1159 0 
L 581 0 
L 581 4863 
L 1159 4863 
L 1159 2969 
z
" transform="scale(0.015625)"/>
       <path id="DejaVuSans-61" d="M 2194 1759 
Q 1497 1759 1228 1600 
Q 959 1441 959 1056 
Q 959 750 1161 570 
Q 1363 391 1709 391 
Q 2188 391 2477 730 
Q 2766 1069 2766 1631 
L 2766 1759 
L 2194 1759 
z
M 3341 1997 
L 3341 0 
L 2766 0 
L 2766 531 
Q 2569 213 2275 61 
Q 1981 -91 1556 -91 
Q 1019 -91 701 211 
Q 384 513 384 1019 
Q 384 1609 779 1909 
Q 1175 2209 1959 2209 
L 2766 2209 
L 2766 2266 
Q 2766 2663 2505 2880 
Q 2244 3097 1772 3097 
Q 1472 3097 1187 3025 
Q 903 2953 641 2809 
L 641 3341 
Q 956 3463 1253 3523 
Q 1550 3584 1831 3584 
Q 2591 3584 2966 3190 
Q 3341 2797 3341 1997 
z
" transform="scale(0.015625)"/>
       <path id="DejaVuSans-6e" d="M 3513 2113 
L 3513 0 
L 2938 0 
L 2938 2094 
Q 2938 2591 2744 2837 
Q 2550 3084 2163 3084 
Q 1697 3084 1428 2787 
Q 1159 2491 1159 1978 
L 1159 0 
L 581 0 
L 581 3500 
L 1159 3500 
L 1159 2956 
Q 1366 3272 1645 3428 
Q 1925 3584 2291 3584 
Q 2894 3584 3203 3211 
Q 3513 2838 3513 2113 
z
" transform="scale(0.015625)"/>
       <path id="DejaVuSans-64" d="M 2906 2969 
L 2906 4863 
L 3481 4863 
L 3481 0 
L 2906 0 
L 2906 525 
Q 2725 213 2448 61 
Q 2172 -91 1784 -91 
Q 1150 -91 751 415 
Q 353 922 353 1747 
Q 353 2572 751 3078 
Q 1150 3584 1784 3584 
Q 2172 3584 2448 3432 
Q 2725 3281 2906 2969 
z
M 947 1747 
Q 947 1113 1208 752 
Q 1469 391 1925 391 
Q 2381 391 2643 752 
Q 2906 1113 2906 1747 
Q 2906 2381 2643 2742 
Q 2381 3103 1925 3103 
Q 1469 3103 1208 2742 
Q 947 2381 947 1747 
z
" transform="scale(0.015625)"/>
       <path id="DejaVuSans-77" d="M 269 3500 
L 844 3500 
L 1563 769 
L 2278 3500 
L 2956 3500 
L 3675 769 
L 4391 3500 
L 4966 3500 
L 4050 0 
L 3372 0 
L 2619 2869 
L 1863 0 
L 1184 0 
L 269 3500 
z
" transform="scale(0.015625)"/>
       <path id="DejaVuSans-69" d="M 603 3500 
L 1178 3500 
L 1178 0 
L 603 0 
L 603 3500 
z
M 603 4863 
L 1178 4863 
L 1178 4134 
L 603 4134 
L 603 4863 
z
" transform="scale(0.015625)"/>
       <path id="DejaVuSans-74" d="M 1172 4494 
L 1172 3500 
L 2356 3500 
L 2356 3053 
L 1172 3053 
L 1172 1153 
Q 1172 725 1289 603 
Q 1406 481 1766 481 
L 2356 481 
L 2356 0 
L 1766 0 
Q 1100 0 847 248 
Q 594 497 594 1153 
L 594 3053 
L 172 3053 
L 172 3500 
L 594 3500 
L 594 4494 
L 1172 4494 
z
" transform="scale(0.015625)"/>
       <path id="DejaVuSans-68" d="M 3513 2113 
L 3513 0 
L 2938 0 
L 2938 2094 
Q 2938 2591 2744 2837 
Q 2550 3084 2163 3084 
Q 1697 3084 1428 2787 
Q 1159 2491 1159 1978 
L 1159 0 
L 581 0 
L 581 4863 
L 1159 4863 
L 1159 2956 
Q 1366 3272 1645 3428 
Q 1925 3584 2291 3584 
Q 2894 3584 3203 3211 
Q 3513 2838 3513 2113 
z
" transform="scale(0.015625)"/>
      </defs>
      <use xlink:href="#DejaVuSans-62"/>
      <use xlink:href="#DejaVuSans-61" transform="translate(63.476562 0)"/>
      <use xlink:href="#DejaVuSans-6e" transform="translate(124.755859 0)"/>
      <use xlink:href="#DejaVuSans-64" transform="translate(188.134766 0)"/>
      <use xlink:href="#DejaVuSans-77" transform="translate(251.611328 0)"/>
      <use xlink:href="#DejaVuSans-69" transform="translate(333.398438 0)"/>
      <use xlink:href="#DejaVuSans-64" transform="translate(361.181641 0)"/>
      <use xlink:href="#DejaVuSans-74" transform="translate(424.658203 0)"/>
      <use xlink:href="#DejaVuSans-68" transform="translate(463.867188 0)"/>
     </g>
    </g>
   </g>
   <g id="matplotlib.axis_2">
    <g id="ytick_1">
     <g id="line2d_28">
      <defs>
       <path id="mbd2f377c6c" d="M 0 0 
L -3.5 0 
" style="stroke: #000000; stroke-width: 0.8"/>
      </defs>
      <g>
       <use xlink:href="#mbd2f377c6c" x="39.58149" y="312.24351" style="stroke: #000000; stroke-width: 0.8"/>
      </g>
     </g>
     <g id="text_5">
      <!-- 1.0 -->
      <g transform="translate(16.678365 316.042729) scale(0.1 -0.1)">
       <defs>
        <path id="DejaVuSans-2e" d="M 684 794 
L 1344 794 
L 1344 0 
L 684 0 
L 684 794 
z
" transform="scale(0.015625)"/>
       </defs>
       <use xlink:href="#DejaVuSans-31"/>
       <use xlink:href="#DejaVuSans-2e" transform="translate(63.623047 0)"/>
       <use xlink:href="#DejaVuSans-30" transform="translate(95.410156 0)"/>
      </g>
     </g>
    </g>
    <g id="ytick_2">
     <g id="line2d_29">
      <g>
       <use xlink:href="#mbd2f377c6c" x="39.58149" y="263.222652" style="stroke: #000000; stroke-width: 0.8"/>
      </g>
     </g>
     <g id="text_6">
      <!-- 1.5 -->
      <g transform="translate(16.678365 267.021871) scale(0.1 -0.1)">
       <defs>
        <path id="DejaVuSans-35" d="M 691 4666 
L 3169 4666 
L 3169 4134 
L 1269 4134 
L 1269 2991 
Q 1406 3038 1543 3061 
Q 1681 3084 1819 3084 
Q 2600 3084 3056 2656 
Q 3513 2228 3513 1497 
Q 3513 744 3044 326 
Q 2575 -91 1722 -91 
Q 1428 -91 1123 -41 
Q 819 9 494 109 
L 494 744 
Q 775 591 1075 516 
Q 1375 441 1709 441 
Q 2250 441 2565 725 
Q 2881 1009 2881 1497 
Q 2881 1984 2565 2268 
Q 2250 2553 1709 2553 
Q 1456 2553 1204 2497 
Q 953 2441 691 2322 
L 691 4666 
z
" transform="scale(0.015625)"/>
       </defs>
       <use xlink:href="#DejaVuSans-31"/>
       <use xlink:href="#DejaVuSans-2e" transform="translate(63.623047 0)"/>
       <use xlink:href="#DejaVuSans-35" transform="translate(95.410156 0)"/>
      </g>
     </g>
    </g>
    <g id="ytick_3">
     <g id="line2d_30">
      <g>
       <use xlink:href="#mbd2f377c6c" x="39.58149" y="214.201795" style="stroke: #000000; stroke-width: 0.8"/>
      </g>
     </g>
     <g id="text_7">
      <!-- 2.0 -->
      <g transform="translate(16.678365 218.001014) scale(0.1 -0.1)">
       <use xlink:href="#DejaVuSans-32"/>
       <use xlink:href="#DejaVuSans-2e" transform="translate(63.623047 0)"/>
       <use xlink:href="#DejaVuSans-30" transform="translate(95.410156 0)"/>
      </g>
     </g>
    </g>
    <g id="ytick_4">
     <g id="line2d_31">
      <g>
       <use xlink:href="#mbd2f377c6c" x="39.58149" y="165.180938" style="stroke: #000000; stroke-width: 0.8"/>
      </g>
     </g>
     <g id="text_8">
      <!-- 2.5 -->
      <g transform="translate(16.678365 168.980156) scale(0.1 -0.1)">
       <use xlink:href="#DejaVuSans-32"/>
       <use xlink:href="#DejaVuSans-2e" transform="translate(63.623047 0)"/>
       <use xlink:href="#DejaVuSans-35" transform="translate(95.410156 0)"/>
      </g>
     </g>
    </g>
    <g id="ytick_5">
     <g id="line2d_32">
      <g>
       <use xlink:href="#mbd2f377c6c" x="39.58149" y="116.16008" style="stroke: #000000; stroke-width: 0.8"/>
      </g>
     </g>
     <g id="text_9">
      <!-- 3.0 -->
      <g transform="translate(16.678365 119.959299) scale(0.1 -0.1)">
       <use xlink:href="#DejaVuSans-33"/>
       <use xlink:href="#DejaVuSans-2e" transform="translate(63.623047 0)"/>
       <use xlink:href="#DejaVuSans-30" transform="translate(95.410156 0)"/>
      </g>
     </g>
    </g>
    <g id="ytick_6">
     <g id="line2d_33">
      <g>
       <use xlink:href="#mbd2f377c6c" x="39.58149" y="67.139223" style="stroke: #000000; stroke-width: 0.8"/>
      </g>
     </g>
     <g id="text_10">
      <!-- 3.5 -->
      <g transform="translate(16.678365 70.938441) scale(0.1 -0.1)">
       <use xlink:href="#DejaVuSans-33"/>
       <use xlink:href="#DejaVuSans-2e" transform="translate(63.623047 0)"/>
       <use xlink:href="#DejaVuSans-35" transform="translate(95.410156 0)"/>
      </g>
     </g>
    </g>
    <g id="ytick_7">
     <g id="line2d_34">
      <g>
       <use xlink:href="#mbd2f377c6c" x="39.58149" y="18.118365" style="stroke: #000000; stroke-width: 0.8"/>
      </g>
     </g>
     <g id="text_11">
      <!-- 4.0 -->
      <g transform="translate(16.678365 21.917584) scale(0.1 -0.1)">
       <defs>
        <path id="DejaVuSans-34" d="M 2419 4116 
L 825 1625 
L 2419 1625 
L 2419 4116 
z
M 2253 4666 
L 3047 4666 
L 3047 1625 
L 3713 1625 
L 3713 1100 
L 3047 1100 
L 3047 0 
L 2419 0 
L 2419 1100 
L 313 1100 
L 313 1709 
L 2253 4666 
z
" transform="scale(0.015625)"/>
       </defs>
       <use xlink:href="#DejaVuSans-34"/>
       <use xlink:href="#DejaVuSans-2e" transform="translate(63.623047 0)"/>
       <use xlink:href="#DejaVuSans-30" transform="translate(95.410156 0)"/>
      </g>
     </g>
    </g>
    <g id="text_12">
     <!-- alpha -->
     <g transform="translate(10.598677 179.041094) rotate(-90) scale(0.1 -0.1)">
      <defs>
       <path id="DejaVuSans-6c" d="M 603 4863 
L 1178 4863 
L 1178 0 
L 603 0 
L 603 4863 
z
" transform="scale(0.015625)"/>
       <path id="DejaVuSans-70" d="M 1159 525 
L 1159 -1331 
L 581 -1331 
L 581 3500 
L 1159 3500 
L 1159 2969 
Q 1341 3281 1617 3432 
Q 1894 3584 2278 3584 
Q 2916 3584 3314 3078 
Q 3713 2572 3713 1747 
Q 3713 922 3314 415 
Q 2916 -91 2278 -91 
Q 1894 -91 1617 61 
Q 1341 213 1159 525 
z
M 3116 1747 
Q 3116 2381 2855 2742 
Q 2594 3103 2138 3103 
Q 1681 3103 1420 2742 
Q 1159 2381 1159 1747 
Q 1159 1113 1420 752 
Q 1681 391 2138 391 
Q 2594 391 2855 752 
Q 3116 1113 3116 1747 
z
" transform="scale(0.015625)"/>
      </defs>
      <use xlink:href="#DejaVuSans-61"/>
      <use xlink:href="#DejaVuSans-6c" transform="translate(61.279297 0)"/>
      <use xlink:href="#DejaVuSans-70" transform="translate(89.0625 0)"/>
      <use xlink:href="#DejaVuSans-68" transform="translate(152.539062 0)"/>
      <use xlink:href="#DejaVuSans-61" transform="translate(215.917969 0)"/>
     </g>
    </g>
   </g>
   <g id="patch_3">
    <path d="M 39.58149 312.24351 
L 39.58149 18.118365 
" style="fill: none; stroke: #000000; stroke-width: 0.8; stroke-linejoin: miter; stroke-linecap: square"/>
   </g>
   <g id="patch_4">
    <path d="M 373.50576 312.24351 
L 373.50576 18.118365 
" style="fill: none; stroke: #000000; stroke-width: 0.8; stroke-linejoin: miter; stroke-linecap: square"/>
   </g>
   <g id="patch_5">
    <path d="M 39.58149 312.24351 
L 373.50576 312.24351 
" style="fill: none; stroke: #000000; stroke-width: 0.8; stroke-linejoin: miter; stroke-linecap: square"/>
   </g>
   <g id="patch_6">
    <path d="M 39.58149 18.118365 
L 373.50576 18.118365 
" style="fill: none; stroke: #000000; stroke-width: 0.8; stroke-linejoin: miter; stroke-linecap: square"/>
   </g>
   <g id="text_13">
    <!-- circulos_lo 7354 fkdc -->
    <g transform="translate(143.56425 12.118365) scale(0.12 -0.12)">
     <defs>
      <path id="DejaVuSans-63" d="M 3122 3366 
L 3122 2828 
Q 2878 2963 2633 3030 
Q 2388 3097 2138 3097 
Q 1578 3097 1268 2742 
Q 959 2388 959 1747 
Q 959 1106 1268 751 
Q 1578 397 2138 397 
Q 2388 397 2633 464 
Q 2878 531 3122 666 
L 3122 134 
Q 2881 22 2623 -34 
Q 2366 -91 2075 -91 
Q 1284 -91 818 406 
Q 353 903 353 1747 
Q 353 2603 823 3093 
Q 1294 3584 2113 3584 
Q 2378 3584 2631 3529 
Q 2884 3475 3122 3366 
z
" transform="scale(0.015625)"/>
      <path id="DejaVuSans-72" d="M 2631 2963 
Q 2534 3019 2420 3045 
Q 2306 3072 2169 3072 
Q 1681 3072 1420 2755 
Q 1159 2438 1159 1844 
L 1159 0 
L 581 0 
L 581 3500 
L 1159 3500 
L 1159 2956 
Q 1341 3275 1631 3429 
Q 1922 3584 2338 3584 
Q 2397 3584 2469 3576 
Q 2541 3569 2628 3553 
L 2631 2963 
z
" transform="scale(0.015625)"/>
      <path id="DejaVuSans-75" d="M 544 1381 
L 544 3500 
L 1119 3500 
L 1119 1403 
Q 1119 906 1312 657 
Q 1506 409 1894 409 
Q 2359 409 2629 706 
Q 2900 1003 2900 1516 
L 2900 3500 
L 3475 3500 
L 3475 0 
L 2900 0 
L 2900 538 
Q 2691 219 2414 64 
Q 2138 -91 1772 -91 
Q 1169 -91 856 284 
Q 544 659 544 1381 
z
M 1991 3584 
L 1991 3584 
z
" transform="scale(0.015625)"/>
      <path id="DejaVuSans-6f" d="M 1959 3097 
Q 1497 3097 1228 2736 
Q 959 2375 959 1747 
Q 959 1119 1226 758 
Q 1494 397 1959 397 
Q 2419 397 2687 759 
Q 2956 1122 2956 1747 
Q 2956 2369 2687 2733 
Q 2419 3097 1959 3097 
z
M 1959 3584 
Q 2709 3584 3137 3096 
Q 3566 2609 3566 1747 
Q 3566 888 3137 398 
Q 2709 -91 1959 -91 
Q 1206 -91 779 398 
Q 353 888 353 1747 
Q 353 2609 779 3096 
Q 1206 3584 1959 3584 
z
" transform="scale(0.015625)"/>
      <path id="DejaVuSans-73" d="M 2834 3397 
L 2834 2853 
Q 2591 2978 2328 3040 
Q 2066 3103 1784 3103 
Q 1356 3103 1142 2972 
Q 928 2841 928 2578 
Q 928 2378 1081 2264 
Q 1234 2150 1697 2047 
L 1894 2003 
Q 2506 1872 2764 1633 
Q 3022 1394 3022 966 
Q 3022 478 2636 193 
Q 2250 -91 1575 -91 
Q 1294 -91 989 -36 
Q 684 19 347 128 
L 347 722 
Q 666 556 975 473 
Q 1284 391 1588 391 
Q 1994 391 2212 530 
Q 2431 669 2431 922 
Q 2431 1156 2273 1281 
Q 2116 1406 1581 1522 
L 1381 1569 
Q 847 1681 609 1914 
Q 372 2147 372 2553 
Q 372 3047 722 3315 
Q 1072 3584 1716 3584 
Q 2034 3584 2315 3537 
Q 2597 3491 2834 3397 
z
" transform="scale(0.015625)"/>
      <path id="DejaVuSans-5f" d="M 3263 -1063 
L 3263 -1509 
L -63 -1509 
L -63 -1063 
L 3263 -1063 
z
" transform="scale(0.015625)"/>
      <path id="DejaVuSans-20" transform="scale(0.015625)"/>
      <path id="DejaVuSans-37" d="M 525 4666 
L 3525 4666 
L 3525 4397 
L 1831 0 
L 1172 0 
L 2766 4134 
L 525 4134 
L 525 4666 
z
" transform="scale(0.015625)"/>
      <path id="DejaVuSans-66" d="M 2375 4863 
L 2375 4384 
L 1825 4384 
Q 1516 4384 1395 4259 
Q 1275 4134 1275 3809 
L 1275 3500 
L 2222 3500 
L 2222 3053 
L 1275 3053 
L 1275 0 
L 697 0 
L 697 3053 
L 147 3053 
L 147 3500 
L 697 3500 
L 697 3744 
Q 697 4328 969 4595 
Q 1241 4863 1831 4863 
L 2375 4863 
z
" transform="scale(0.015625)"/>
      <path id="DejaVuSans-6b" d="M 581 4863 
L 1159 4863 
L 1159 1991 
L 2875 3500 
L 3609 3500 
L 1753 1863 
L 3688 0 
L 2938 0 
L 1159 1709 
L 1159 0 
L 581 0 
L 581 4863 
z
" transform="scale(0.015625)"/>
     </defs>
     <use xlink:href="#DejaVuSans-63"/>
     <use xlink:href="#DejaVuSans-69" transform="translate(54.980469 0)"/>
     <use xlink:href="#DejaVuSans-72" transform="translate(82.763672 0)"/>
     <use xlink:href="#DejaVuSans-63" transform="translate(121.626953 0)"/>
     <use xlink:href="#DejaVuSans-75" transform="translate(176.607422 0)"/>
     <use xlink:href="#DejaVuSans-6c" transform="translate(239.986328 0)"/>
     <use xlink:href="#DejaVuSans-6f" transform="translate(267.769531 0)"/>
     <use xlink:href="#DejaVuSans-73" transform="translate(328.951172 0)"/>
     <use xlink:href="#DejaVuSans-5f" transform="translate(381.050781 0)"/>
     <use xlink:href="#DejaVuSans-6c" transform="translate(431.050781 0)"/>
     <use xlink:href="#DejaVuSans-6f" transform="translate(458.833984 0)"/>
     <use xlink:href="#DejaVuSans-20" transform="translate(520.015625 0)"/>
     <use xlink:href="#DejaVuSans-37" transform="translate(551.802734 0)"/>
     <use xlink:href="#DejaVuSans-33" transform="translate(615.425781 0)"/>
     <use xlink:href="#DejaVuSans-35" transform="translate(679.048828 0)"/>
     <use xlink:href="#DejaVuSans-34" transform="translate(742.671875 0)"/>
     <use xlink:href="#DejaVuSans-20" transform="translate(806.294922 0)"/>
     <use xlink:href="#DejaVuSans-66" transform="translate(838.082031 0)"/>
     <use xlink:href="#DejaVuSans-6b" transform="translate(873.287109 0)"/>
     <use xlink:href="#DejaVuSans-64" transform="translate(931.197266 0)"/>
     <use xlink:href="#DejaVuSans-63" transform="translate(994.673828 0)"/>
    </g>
   </g>
  </g>
  <g id="axes_2">
   <g id="patch_7">
    <path d="M 401.951973 312.24351 
L 416.658231 312.24351 
L 416.658231 18.118365 
L 401.951973 18.118365 
z
" style="fill: #ffffff"/>
   </g>
   <g id="QuadMesh_1">
    <path d="M 401.951973 312.24351 
L 416.658231 312.24351 
L 416.658231 291.234571 
L 401.951973 291.234571 
L 401.951973 312.24351 
" clip-path="url(#p362e1b9ab8)" style="fill: #470e61"/>
    <path d="M 401.951973 291.234571 
L 416.658231 291.234571 
L 416.658231 270.225632 
L 401.951973 270.225632 
L 401.951973 291.234571 
" clip-path="url(#p362e1b9ab8)" style="fill: #482677"/>
    <path d="M 401.951973 270.225632 
L 416.658231 270.225632 
L 416.658231 249.216693 
L 401.951973 249.216693 
L 401.951973 270.225632 
" clip-path="url(#p362e1b9ab8)" style="fill: #433d84"/>
    <path d="M 401.951973 249.216693 
L 416.658231 249.216693 
L 416.658231 228.207754 
L 401.951973 228.207754 
L 401.951973 249.216693 
" clip-path="url(#p362e1b9ab8)" style="fill: #3b528b"/>
    <path d="M 401.951973 228.207754 
L 416.658231 228.207754 
L 416.658231 207.198815 
L 401.951973 207.198815 
L 401.951973 228.207754 
" clip-path="url(#p362e1b9ab8)" style="fill: #32658e"/>
    <path d="M 401.951973 207.198815 
L 416.658231 207.198815 
L 416.658231 186.189876 
L 401.951973 186.189876 
L 401.951973 207.198815 
" clip-path="url(#p362e1b9ab8)" style="fill: #2a768e"/>
    <path d="M 401.951973 186.189876 
L 416.658231 186.189876 
L 416.658231 165.180937 
L 401.951973 165.180937 
L 401.951973 186.189876 
" clip-path="url(#p362e1b9ab8)" style="fill: #24878e"/>
    <path d="M 401.951973 165.180937 
L 416.658231 165.180937 
L 416.658231 144.171999 
L 401.951973 144.171999 
L 401.951973 165.180937 
" clip-path="url(#p362e1b9ab8)" style="fill: #1f998a"/>
    <path d="M 401.951973 144.171999 
L 416.658231 144.171999 
L 416.658231 123.16306 
L 401.951973 123.16306 
L 401.951973 144.171999 
" clip-path="url(#p362e1b9ab8)" style="fill: #24aa83"/>
    <path d="M 401.951973 123.16306 
L 416.658231 123.16306 
L 416.658231 102.154121 
L 401.951973 102.154121 
L 401.951973 123.16306 
" clip-path="url(#p362e1b9ab8)" style="fill: #3aba76"/>
    <path d="M 401.951973 102.154121 
L 416.658231 102.154121 
L 416.658231 81.145182 
L 401.951973 81.145182 
L 401.951973 102.154121 
" clip-path="url(#p362e1b9ab8)" style="fill: #5ec962"/>
    <path d="M 401.951973 81.145182 
L 416.658231 81.145182 
L 416.658231 60.136243 
L 401.951973 60.136243 
L 401.951973 81.145182 
" clip-path="url(#p362e1b9ab8)" style="fill: #89d548"/>
    <path d="M 401.951973 60.136243 
L 416.658231 60.136243 
L 416.658231 39.127304 
L 401.951973 39.127304 
L 401.951973 60.136243 
" clip-path="url(#p362e1b9ab8)" style="fill: #b8de29"/>
    <path d="M 401.951973 39.127304 
L 416.658231 39.127304 
L 416.658231 18.118365 
L 401.951973 18.118365 
L 401.951973 39.127304 
" clip-path="url(#p362e1b9ab8)" style="fill: #e7e419"/>
   </g>
   <g id="matplotlib.axis_3"/>
   <g id="matplotlib.axis_4">
    <g id="ytick_8">
     <g id="line2d_35">
      <defs>
       <path id="m0a27ea52cb" d="M 0 0 
L 3.5 0 
" style="stroke: #000000; stroke-width: 0.8"/>
      </defs>
      <g>
       <use xlink:href="#m0a27ea52cb" x="416.658231" y="312.24351" style="stroke: #000000; stroke-width: 0.8"/>
      </g>
     </g>
     <g id="text_14">
      <!-- -5.6 -->
      <g transform="translate(423.658231 316.042729) scale(0.1 -0.1)">
       <defs>
        <path id="DejaVuSans-2d" d="M 313 2009 
L 1997 2009 
L 1997 1497 
L 313 1497 
L 313 2009 
z
" transform="scale(0.015625)"/>
        <path id="DejaVuSans-36" d="M 2113 2584 
Q 1688 2584 1439 2293 
Q 1191 2003 1191 1497 
Q 1191 994 1439 701 
Q 1688 409 2113 409 
Q 2538 409 2786 701 
Q 3034 994 3034 1497 
Q 3034 2003 2786 2293 
Q 2538 2584 2113 2584 
z
M 3366 4563 
L 3366 3988 
Q 3128 4100 2886 4159 
Q 2644 4219 2406 4219 
Q 1781 4219 1451 3797 
Q 1122 3375 1075 2522 
Q 1259 2794 1537 2939 
Q 1816 3084 2150 3084 
Q 2853 3084 3261 2657 
Q 3669 2231 3669 1497 
Q 3669 778 3244 343 
Q 2819 -91 2113 -91 
Q 1303 -91 875 529 
Q 447 1150 447 2328 
Q 447 3434 972 4092 
Q 1497 4750 2381 4750 
Q 2619 4750 2861 4703 
Q 3103 4656 3366 4563 
z
" transform="scale(0.015625)"/>
       </defs>
       <use xlink:href="#DejaVuSans-2d"/>
       <use xlink:href="#DejaVuSans-35" transform="translate(36.083984 0)"/>
       <use xlink:href="#DejaVuSans-2e" transform="translate(99.707031 0)"/>
       <use xlink:href="#DejaVuSans-36" transform="translate(131.494141 0)"/>
      </g>
     </g>
    </g>
    <g id="ytick_9">
     <g id="line2d_36">
      <g>
       <use xlink:href="#m0a27ea52cb" x="416.658231" y="270.225632" style="stroke: #000000; stroke-width: 0.8"/>
      </g>
     </g>
     <g id="text_15">
      <!-- -4.8 -->
      <g transform="translate(423.658231 274.024851) scale(0.1 -0.1)">
       <defs>
        <path id="DejaVuSans-38" d="M 2034 2216 
Q 1584 2216 1326 1975 
Q 1069 1734 1069 1313 
Q 1069 891 1326 650 
Q 1584 409 2034 409 
Q 2484 409 2743 651 
Q 3003 894 3003 1313 
Q 3003 1734 2745 1975 
Q 2488 2216 2034 2216 
z
M 1403 2484 
Q 997 2584 770 2862 
Q 544 3141 544 3541 
Q 544 4100 942 4425 
Q 1341 4750 2034 4750 
Q 2731 4750 3128 4425 
Q 3525 4100 3525 3541 
Q 3525 3141 3298 2862 
Q 3072 2584 2669 2484 
Q 3125 2378 3379 2068 
Q 3634 1759 3634 1313 
Q 3634 634 3220 271 
Q 2806 -91 2034 -91 
Q 1263 -91 848 271 
Q 434 634 434 1313 
Q 434 1759 690 2068 
Q 947 2378 1403 2484 
z
M 1172 3481 
Q 1172 3119 1398 2916 
Q 1625 2713 2034 2713 
Q 2441 2713 2670 2916 
Q 2900 3119 2900 3481 
Q 2900 3844 2670 4047 
Q 2441 4250 2034 4250 
Q 1625 4250 1398 4047 
Q 1172 3844 1172 3481 
z
" transform="scale(0.015625)"/>
       </defs>
       <use xlink:href="#DejaVuSans-2d"/>
       <use xlink:href="#DejaVuSans-34" transform="translate(36.083984 0)"/>
       <use xlink:href="#DejaVuSans-2e" transform="translate(99.707031 0)"/>
       <use xlink:href="#DejaVuSans-38" transform="translate(131.494141 0)"/>
      </g>
     </g>
    </g>
    <g id="ytick_10">
     <g id="line2d_37">
      <g>
       <use xlink:href="#m0a27ea52cb" x="416.658231" y="228.207754" style="stroke: #000000; stroke-width: 0.8"/>
      </g>
     </g>
     <g id="text_16">
      <!-- -4.0 -->
      <g transform="translate(423.658231 232.006973) scale(0.1 -0.1)">
       <use xlink:href="#DejaVuSans-2d"/>
       <use xlink:href="#DejaVuSans-34" transform="translate(36.083984 0)"/>
       <use xlink:href="#DejaVuSans-2e" transform="translate(99.707031 0)"/>
       <use xlink:href="#DejaVuSans-30" transform="translate(131.494141 0)"/>
      </g>
     </g>
    </g>
    <g id="ytick_11">
     <g id="line2d_38">
      <g>
       <use xlink:href="#m0a27ea52cb" x="416.658231" y="186.189876" style="stroke: #000000; stroke-width: 0.8"/>
      </g>
     </g>
     <g id="text_17">
      <!-- -3.2 -->
      <g transform="translate(423.658231 189.989095) scale(0.1 -0.1)">
       <use xlink:href="#DejaVuSans-2d"/>
       <use xlink:href="#DejaVuSans-33" transform="translate(36.083984 0)"/>
       <use xlink:href="#DejaVuSans-2e" transform="translate(99.707031 0)"/>
       <use xlink:href="#DejaVuSans-32" transform="translate(131.494141 0)"/>
      </g>
     </g>
    </g>
    <g id="ytick_12">
     <g id="line2d_39">
      <g>
       <use xlink:href="#m0a27ea52cb" x="416.658231" y="144.171999" style="stroke: #000000; stroke-width: 0.8"/>
      </g>
     </g>
     <g id="text_18">
      <!-- -2.4 -->
      <g transform="translate(423.658231 147.971217) scale(0.1 -0.1)">
       <use xlink:href="#DejaVuSans-2d"/>
       <use xlink:href="#DejaVuSans-32" transform="translate(36.083984 0)"/>
       <use xlink:href="#DejaVuSans-2e" transform="translate(99.707031 0)"/>
       <use xlink:href="#DejaVuSans-34" transform="translate(131.494141 0)"/>
      </g>
     </g>
    </g>
    <g id="ytick_13">
     <g id="line2d_40">
      <g>
       <use xlink:href="#m0a27ea52cb" x="416.658231" y="102.154121" style="stroke: #000000; stroke-width: 0.8"/>
      </g>
     </g>
     <g id="text_19">
      <!-- -1.6 -->
      <g transform="translate(423.658231 105.953339) scale(0.1 -0.1)">
       <use xlink:href="#DejaVuSans-2d"/>
       <use xlink:href="#DejaVuSans-31" transform="translate(36.083984 0)"/>
       <use xlink:href="#DejaVuSans-2e" transform="translate(99.707031 0)"/>
       <use xlink:href="#DejaVuSans-36" transform="translate(131.494141 0)"/>
      </g>
     </g>
    </g>
    <g id="ytick_14">
     <g id="line2d_41">
      <g>
       <use xlink:href="#m0a27ea52cb" x="416.658231" y="60.136243" style="stroke: #000000; stroke-width: 0.8"/>
      </g>
     </g>
     <g id="text_20">
      <!-- -0.8 -->
      <g transform="translate(423.658231 63.935462) scale(0.1 -0.1)">
       <use xlink:href="#DejaVuSans-2d"/>
       <use xlink:href="#DejaVuSans-30" transform="translate(36.083984 0)"/>
       <use xlink:href="#DejaVuSans-2e" transform="translate(99.707031 0)"/>
       <use xlink:href="#DejaVuSans-38" transform="translate(131.494141 0)"/>
      </g>
     </g>
    </g>
    <g id="ytick_15">
     <g id="line2d_42">
      <g>
       <use xlink:href="#m0a27ea52cb" x="416.658231" y="18.118365" style="stroke: #000000; stroke-width: 0.8"/>
      </g>
     </g>
     <g id="text_21">
      <!-- 0.0 -->
      <g transform="translate(423.658231 21.917584) scale(0.1 -0.1)">
       <use xlink:href="#DejaVuSans-30"/>
       <use xlink:href="#DejaVuSans-2e" transform="translate(63.623047 0)"/>
       <use xlink:href="#DejaVuSans-30" transform="translate(95.410156 0)"/>
      </g>
     </g>
    </g>
    <g id="text_22">
     <!-- Score -->
     <g transform="translate(454.767606 179.183281) rotate(-90) scale(0.1 -0.1)">
      <defs>
       <path id="DejaVuSans-53" d="M 3425 4513 
L 3425 3897 
Q 3066 4069 2747 4153 
Q 2428 4238 2131 4238 
Q 1616 4238 1336 4038 
Q 1056 3838 1056 3469 
Q 1056 3159 1242 3001 
Q 1428 2844 1947 2747 
L 2328 2669 
Q 3034 2534 3370 2195 
Q 3706 1856 3706 1288 
Q 3706 609 3251 259 
Q 2797 -91 1919 -91 
Q 1588 -91 1214 -16 
Q 841 59 441 206 
L 441 856 
Q 825 641 1194 531 
Q 1563 422 1919 422 
Q 2459 422 2753 634 
Q 3047 847 3047 1241 
Q 3047 1584 2836 1778 
Q 2625 1972 2144 2069 
L 1759 2144 
Q 1053 2284 737 2584 
Q 422 2884 422 3419 
Q 422 4038 858 4394 
Q 1294 4750 2059 4750 
Q 2388 4750 2728 4690 
Q 3069 4631 3425 4513 
z
" transform="scale(0.015625)"/>
       <path id="DejaVuSans-65" d="M 3597 1894 
L 3597 1613 
L 953 1613 
Q 991 1019 1311 708 
Q 1631 397 2203 397 
Q 2534 397 2845 478 
Q 3156 559 3463 722 
L 3463 178 
Q 3153 47 2828 -22 
Q 2503 -91 2169 -91 
Q 1331 -91 842 396 
Q 353 884 353 1716 
Q 353 2575 817 3079 
Q 1281 3584 2069 3584 
Q 2775 3584 3186 3129 
Q 3597 2675 3597 1894 
z
M 3022 2063 
Q 3016 2534 2758 2815 
Q 2500 3097 2075 3097 
Q 1594 3097 1305 2825 
Q 1016 2553 972 2059 
L 3022 2063 
z
" transform="scale(0.015625)"/>
      </defs>
      <use xlink:href="#DejaVuSans-53"/>
      <use xlink:href="#DejaVuSans-63" transform="translate(63.476562 0)"/>
      <use xlink:href="#DejaVuSans-6f" transform="translate(118.457031 0)"/>
      <use xlink:href="#DejaVuSans-72" transform="translate(179.638672 0)"/>
      <use xlink:href="#DejaVuSans-65" transform="translate(218.501953 0)"/>
     </g>
    </g>
   </g>
   <g id="LineCollection_1"/>
   <g id="patch_8">
    <path d="M 401.951973 312.24351 
L 409.305102 312.24351 
L 416.658231 312.24351 
L 416.658231 18.118365 
L 409.305102 18.118365 
L 401.951973 18.118365 
L 401.951973 312.24351 
z
" style="fill: none; stroke: #000000; stroke-width: 0.8; stroke-linejoin: miter; stroke-linecap: square"/>
   </g>
  </g>
 </g>
 <defs>
  <clipPath id="p3174c6168d">
   <rect x="39.58149" y="18.118365" width="333.92427" height="294.125145"/>
  </clipPath>
  <clipPath id="p362e1b9ab8">
   <rect x="401.951973" y="18.118365" width="14.706257" height="294.125145"/>
  </clipPath>
 </defs>
</svg>
