<?xml version="1.0" encoding="utf-8" standalone="no"?>
<!DOCTYPE svg PUBLIC "-//W3C//DTD SVG 1.1//EN"
  "http://www.w3.org/Graphics/SVG/1.1/DTD/svg11.dtd">
<svg xmlns:xlink="http://www.w3.org/1999/xlink" width="468.247053pt" height="353.99952pt" viewBox="0 0 468.247053 353.99952" xmlns="http://www.w3.org/2000/svg" version="1.1">
 <metadata>
  <rdf:RDF xmlns:dc="http://purl.org/dc/elements/1.1/" xmlns:cc="http://creativecommons.org/ns#" xmlns:rdf="http://www.w3.org/1999/02/22-rdf-syntax-ns#">
   <cc:Work>
    <dc:type rdf:resource="http://purl.org/dc/dcmitype/StillImage"/>
    <dc:date>1970-01-01T00:00:00+00:00</dc:date>
    <dc:format>image/svg+xml</dc:format>
    <dc:creator>
     <cc:Agent>
      <dc:title>Matplotlib v3.10.7, https://matplotlib.org/</dc:title>
     </cc:Agent>
    </dc:creator>
   </cc:Work>
  </rdf:RDF>
 </metadata>
 <defs>
  <style type="text/css">*{stroke-linejoin: round; stroke-linecap: butt}</style>
 </defs>
 <g id="figure_1">
  <g id="patch_1">
   <path d="M 0 353.99952 
L 468.247053 353.99952 
L 468.247053 0 
L 0 0 
z
" style="fill: #ffffff"/>
  </g>
  <g id="axes_1">
   <g id="patch_2">
    <path d="M 43.78125 316.44327 
L 377.70552 316.44327 
L 377.70552 22.318125 
L 43.78125 22.318125 
z
" style="fill: #ffffff"/>
   </g>
   <g id="QuadContourSet_1">
    <path d="M 165.208257 299.301777 
L 173.138258 291.932841 
L 165.208257 287.719041 
L 143.414852 291.932841 
z
M 195.565009 316.44327 
L 205.989997 316.44327 
L 195.565009 310.553119 
L 187.055912 316.44327 
z
M 104.494754 269.089882 
L 134.851505 282.887876 
L 138.58179 267.422412 
L 134.851505 265.478531 
L 104.494754 243.425767 
L 102.135348 267.422412 
z
M 74.138002 245.012377 
L 103.920479 242.911984 
L 74.138002 230.561445 
L 71.526064 242.911984 
z
M 43.78125 220.40591 
L 58.744491 218.401555 
L 43.78125 211.92361 
L 41.269963 218.401555 
z
M 13.424498 195.861149 
L 21.369184 193.891126 
L 13.424498 190.736088 
L 10.448041 193.891126 
z
" clip-path="url(#p0a7174c9c2)" style="fill: #460b5e"/>
    <path d="M 134.851505 294.183546 
L 165.208257 314.441307 
L 168.278496 316.44327 
L 187.055912 316.44327 
L 195.565009 310.553119 
L 205.989997 316.44327 
L 220.104232 316.44327 
L 195.565009 300.47587 
L 186.437423 291.932841 
L 165.208257 279.061759 
L 151.606798 267.422412 
L 134.851505 257.503874 
L 117.235141 242.911984 
L 104.494754 235.491253 
L 82.235676 218.401555 
L 74.138002 213.881759 
L 46.816082 193.891126 
L 43.78125 192.256262 
L 13.424498 175.316194 
L 6.227324 169.380697 
L -16.932254 157.404792 
L -30.686461 144.870269 
L -47.289005 135.788822 
L -67.233761 120.35984 
L -77.645757 114.834546 
L -104.376569 95.849411 
L -108.002509 93.983294 
L -108.002509 95.849411 
L -108.002509 120.35984 
L -108.002509 124.470293 
L -78.517142 144.870269 
L -77.645757 145.678542 
L -47.289005 165.58461 
L -41.536124 169.380697 
L -16.932254 186.208354 
L -7.153656 193.891126 
L 13.424498 205.489413 
L 31.110333 218.401555 
L 43.78125 227.607222 
L 64.127359 242.911984 
L 74.138002 250.4272 
L 96.606566 267.422412 
L 104.494754 272.717039 
L 131.53421 291.932841 
z
M 143.414852 291.932841 
L 165.208257 287.719041 
L 173.138258 291.932841 
L 165.208257 299.301777 
z
M 102.135348 267.422412 
L 104.494754 243.425767 
L 134.851505 265.478531 
L 138.58179 267.422412 
L 134.851505 282.887876 
L 104.494754 269.089882 
z
M 71.526064 242.911984 
L 74.138002 230.561445 
L 103.920479 242.911984 
L 74.138002 245.012377 
z
M 41.269963 218.401555 
L 43.78125 211.92361 
L 58.744491 218.401555 
L 43.78125 220.40591 
z
M 10.448041 193.891126 
L 13.424498 190.736088 
L 21.369184 193.891126 
L 13.424498 195.861149 
z
" clip-path="url(#p0a7174c9c2)" style="fill: #482071"/>
    <path d="M 134.851505 296.808462 
L 162.752812 316.44327 
L 165.208257 316.44327 
L 168.278496 316.44327 
L 165.208257 314.441307 
L 134.851505 294.183546 
L 131.53421 291.932841 
L 104.494754 272.717039 
L 96.606566 267.422412 
L 74.138002 250.4272 
L 64.127359 242.911984 
L 43.78125 227.607222 
L 31.110333 218.401555 
L 13.424498 205.489413 
L -7.153656 193.891126 
L -16.932254 186.208354 
L -41.536124 169.380697 
L -47.289005 165.58461 
L -77.645757 145.678542 
L -78.517142 144.870269 
L -108.002509 124.470293 
L -108.002509 132.670272 
L -88.480366 144.870269 
L -77.645757 154.030244 
L -55.057876 169.380697 
L -47.289005 174.664278 
L -20.717225 193.891126 
L -16.932254 196.766045 
L 13.424498 215.117676 
L 18.514803 218.401555 
L 43.78125 234.808533 
L 55.518533 242.911984 
L 74.138002 255.842024 
L 90.429514 267.422412 
L 104.494754 276.344195 
L 127.381816 291.932841 
z
M 195.565009 300.47587 
L 220.104232 316.44327 
L 225.921761 316.44327 
L 229.838104 316.44327 
L 225.921761 314.005778 
L 196.875234 291.932841 
L 195.565009 291.167403 
L 165.208257 270.404477 
L 162.043528 267.422412 
L 134.851505 249.529218 
L 127.581197 242.911984 
L 104.494754 227.996755 
L 93.165381 218.401555 
L 74.138002 206.569249 
L 58.512404 193.891126 
L 43.78125 184.997132 
L 21.841111 169.380697 
L 13.424498 164.644952 
L -16.604258 144.870269 
L -16.932254 144.698082 
L -47.289005 125.556767 
L -53.202142 120.35984 
L -77.645757 105.43394 
L -89.462227 95.849411 
L -108.002509 84.803636 
L -108.002509 93.983294 
L -104.376569 95.849411 
L -77.645757 114.834546 
L -67.233761 120.35984 
L -47.289005 135.788822 
L -30.686461 144.870269 
L -16.932254 157.404792 
L 6.227324 169.380697 
L 13.424498 175.316194 
L 43.78125 192.256262 
L 46.816082 193.891126 
L 74.138002 213.881759 
L 82.235676 218.401555 
L 104.494754 235.491253 
L 117.235141 242.911984 
L 134.851505 257.503874 
L 151.606798 267.422412 
L 165.208257 279.061759 
L 186.437423 291.932841 
z
" clip-path="url(#p0a7174c9c2)" style="fill: #46337f"/>
    <path d="M 134.851505 299.433377 
L 159.773698 316.44327 
L 162.752812 316.44327 
L 134.851505 296.808462 
L 127.381816 291.932841 
L 104.494754 276.344195 
L 90.429514 267.422412 
L 74.138002 255.842024 
L 55.518533 242.911984 
L 43.78125 234.808533 
L 18.514803 218.401555 
L 13.424498 215.117676 
L -16.932254 196.766045 
L -20.717225 193.891126 
L -47.289005 174.664278 
L -55.057876 169.380697 
L -77.645757 154.030244 
L -88.480366 144.870269 
L -108.002509 132.670272 
L -108.002509 140.87025 
L -100.774939 144.870269 
L -77.645757 162.381947 
L -66.141279 169.380697 
L -47.289005 180.97417 
L -28.055082 193.891126 
L -16.932254 201.784717 
L 9.447396 218.401555 
L 13.424498 220.971213 
L 43.78125 242.009845 
L 45.224826 242.911984 
L 74.138002 261.256848 
L 83.431724 267.422412 
L 104.494754 279.971352 
L 122.874299 291.932841 
z
M 225.921761 314.005778 
L 229.838104 316.44327 
L 236.849758 316.44327 
L 225.921761 309.162925 
L 204.755885 291.932841 
L 195.565009 286.139754 
L 171.020774 267.422412 
L 165.208257 263.922624 
L 136.526203 242.911984 
L 134.851505 241.947301 
L 104.494754 220.502257 
L 102.21411 218.401555 
L 74.138002 199.25674 
L 68.079646 193.891126 
L 43.78125 177.738001 
L 33.178023 169.380697 
L 13.424498 156.945498 
L -2.819711 144.870269 
L -16.932254 136.402069 
L -39.558576 120.35984 
L -47.289005 116.010634 
L -77.645757 96.033334 
L -77.849293 95.849411 
L -108.002509 75.623978 
L -108.002509 84.803636 
L -89.462227 95.849411 
L -77.645757 105.43394 
L -53.202142 120.35984 
L -47.289005 125.556767 
L -16.932254 144.698082 
L -16.604258 144.870269 
L 13.424498 164.644952 
L 21.841111 169.380697 
L 43.78125 184.997132 
L 58.512404 193.891126 
L 74.138002 206.569249 
L 93.165381 218.401555 
L 104.494754 227.996755 
L 127.581197 242.911984 
L 134.851505 249.529218 
L 162.043528 267.422412 
L 165.208257 270.404477 
L 195.565009 291.167403 
L 196.875234 291.932841 
z
" clip-path="url(#p0a7174c9c2)" style="fill: #404588"/>
    <path d="M 134.851505 302.058293 
L 156.616157 316.44327 
L 159.773698 316.44327 
L 134.851505 299.433377 
L 122.874299 291.932841 
L 104.494754 279.971352 
L 83.431724 267.422412 
L 74.138002 261.256848 
L 45.224826 242.911984 
L 43.78125 242.009845 
L 13.424498 220.971213 
L 9.447396 218.401555 
L -16.932254 201.784717 
L -28.055082 193.891126 
L -47.289005 180.97417 
L -66.141279 169.380697 
L -77.645757 162.381947 
L -100.774939 144.870269 
L -108.002509 140.87025 
L -108.002509 144.870269 
L -108.002509 147.931864 
L -78.65226 169.380697 
L -77.645757 170.081656 
L -47.289005 187.284063 
L -36.581592 193.891126 
L -16.932254 206.803389 
L 2.773229 218.401555 
L 13.424498 224.870935 
L 39.977275 242.911984 
L 43.78125 246.125951 
L 74.138002 266.671672 
L 75.361183 267.422412 
L 104.494754 283.598509 
L 117.945186 291.932841 
z
M 225.921761 309.162925 
L 236.849758 316.44327 
L 243.037606 316.44327 
L 225.921761 304.320073 
L 211.610529 291.932841 
L 195.565009 281.112105 
L 178.811437 267.422412 
L 165.208257 258.583857 
L 145.416836 242.911984 
L 134.851505 236.279932 
L 111.615736 218.401555 
L 104.494754 214.103135 
L 77.049557 193.891126 
L 74.138002 192.208637 
L 43.78125 170.47887 
L 42.503744 169.380697 
L 13.424498 149.246043 
L 8.098109 144.870269 
L -16.932254 128.106056 
L -26.660608 120.35984 
L -47.289005 107.172463 
L -62.314354 95.849411 
L -77.645757 86.572322 
L -98.668198 71.338982 
L -108.002509 65.950044 
L -108.002509 71.338982 
L -108.002509 75.623978 
L -77.849293 95.849411 
L -77.645757 96.033334 
L -47.289005 116.010634 
L -39.558576 120.35984 
L -16.932254 136.402069 
L -2.819711 144.870269 
L 13.424498 156.945498 
L 33.178023 169.380697 
L 43.78125 177.738001 
L 68.079646 193.891126 
L 74.138002 199.25674 
L 102.21411 218.401555 
L 104.494754 220.502257 
L 134.851505 241.947301 
L 136.526203 242.911984 
L 165.208257 263.922624 
L 171.020774 267.422412 
L 195.565009 286.139754 
L 204.755885 291.932841 
z
" clip-path="url(#p0a7174c9c2)" style="fill: #39558c"/>
    <path d="M 134.851505 304.683209 
L 153.257448 316.44327 
L 156.616157 316.44327 
L 134.851505 302.058293 
L 117.945186 291.932841 
L 104.494754 283.598509 
L 75.361183 267.422412 
L 74.138002 266.671672 
L 43.78125 246.125951 
L 39.977275 242.911984 
L 13.424498 224.870935 
L 2.773229 218.401555 
L -16.932254 206.803389 
L -36.581592 193.891126 
L -47.289005 187.284063 
L -77.645757 170.081656 
L -78.65226 169.380697 
L -108.002509 147.931864 
L -108.002509 153.909306 
L -85.330593 169.380697 
L -77.645757 174.408638 
L -47.289005 193.593955 
L -46.757718 193.891126 
L -16.932254 211.822062 
L -4.86971 218.401555 
L 13.424498 228.770658 
L 35.263272 242.911984 
L 43.78125 249.800208 
L 70.501516 267.422412 
L 74.138002 270.230154 
L 104.494754 287.225665 
L 112.507399 291.932841 
z
M 225.921761 304.320073 
L 243.037606 316.44327 
L 248.575034 316.44327 
L 225.921761 299.47722 
L 217.67581 291.932841 
L 195.565009 276.084456 
L 185.597928 267.422412 
L 165.208257 253.245091 
L 153.022607 242.911984 
L 134.851505 230.612564 
L 120.143006 218.401555 
L 104.494754 208.130626 
L 86.741187 193.891126 
L 74.138002 185.889236 
L 52.992264 169.380697 
L 43.78125 163.73559 
L 18.584975 144.870269 
L 13.424498 141.820167 
L -16.063037 120.35984 
L -16.932254 119.864855 
L -47.289005 98.334292 
L -50.239239 95.849411 
L -77.645757 77.110105 
L -84.660653 71.338982 
L -108.002509 55.8434 
L -108.002509 65.950044 
L -98.668198 71.338982 
L -77.645757 86.572322 
L -62.314354 95.849411 
L -47.289005 107.172463 
L -26.660608 120.35984 
L -16.932254 128.106056 
L 8.098109 144.870269 
L 13.424498 149.246043 
L 42.503744 169.380697 
L 43.78125 170.47887 
L 74.138002 192.208637 
L 77.049557 193.891126 
L 104.494754 214.103135 
L 111.615736 218.401555 
L 134.851505 236.279932 
L 145.416836 242.911984 
L 165.208257 258.583857 
L 178.811437 267.422412 
L 195.565009 281.112105 
L 211.610529 291.932841 
z
" clip-path="url(#p0a7174c9c2)" style="fill: #32658e"/>
    <path d="M 134.851505 307.308125 
L 149.670183 316.44327 
L 153.257448 316.44327 
L 134.851505 304.683209 
L 112.507399 291.932841 
L 104.494754 287.225665 
L 74.138002 270.230154 
L 70.501516 267.422412 
L 43.78125 249.800208 
L 35.263272 242.911984 
L 13.424498 228.770658 
L -4.86971 218.401555 
L -16.932254 211.822062 
L -46.757718 193.891126 
L -47.289005 193.593955 
L -77.645757 174.408638 
L -85.330593 169.380697 
L -108.002509 153.909306 
L -108.002509 159.886748 
L -92.978998 169.380697 
L -77.645757 178.73562 
L -52.471724 193.891126 
L -47.289005 198.34394 
L -16.932254 216.840734 
L -13.811202 218.401555 
L 13.424498 232.67038 
L 30.086147 242.911984 
L 43.78125 253.474465 
L 65.938922 267.422412 
L 74.138002 273.489836 
L 104.494754 290.852822 
L 106.443738 291.932841 
z
M 225.921761 299.47722 
L 248.575034 316.44327 
L 253.585864 316.44327 
L 225.921761 294.634367 
L 223.114899 291.932841 
L 195.565009 271.056807 
L 191.609804 267.422412 
L 165.208257 247.906324 
L 159.668426 242.911984 
L 134.851505 224.945195 
L 127.481425 218.401555 
L 104.494754 202.158116 
L 94.925186 193.891126 
L 74.138002 179.569835 
L 62.113772 169.380697 
L 43.78125 157.084257 
L 28.896074 144.870269 
L 13.424498 134.754469 
L -4.436091 120.35984 
L -16.932254 112.395909 
L -38.085941 95.849411 
L -47.289005 90.173017 
L -72.170984 71.338982 
L -77.645757 68.070885 
L -106.351441 46.828554 
L -108.002509 45.873547 
L -108.002509 46.828554 
L -108.002509 55.8434 
L -84.660653 71.338982 
L -77.645757 77.110105 
L -50.239239 95.849411 
L -47.289005 98.334292 
L -16.932254 119.864855 
L -16.063037 120.35984 
L 13.424498 141.820167 
L 18.584975 144.870269 
L 43.78125 163.73559 
L 52.992264 169.380697 
L 74.138002 185.889236 
L 86.741187 193.891126 
L 104.494754 208.130626 
L 120.143006 218.401555 
L 134.851505 230.612564 
L 153.022607 242.911984 
L 165.208257 253.245091 
L 185.597928 267.422412 
L 195.565009 276.084456 
L 217.67581 291.932841 
z
" clip-path="url(#p0a7174c9c2)" style="fill: #2c738e"/>
    <path d="M 104.494754 294.359054 
L 134.851505 309.933041 
L 145.82097 316.44327 
L 149.670183 316.44327 
L 134.851505 307.308125 
L 106.443738 291.932841 
L 104.494754 290.852822 
L 74.138002 273.489836 
L 65.938922 267.422412 
L 43.78125 253.474465 
L 30.086147 242.911984 
L 13.424498 232.67038 
L -13.811202 218.401555 
L -16.932254 216.840734 
L -47.289005 198.34394 
L -52.471724 193.891126 
L -77.645757 178.73562 
L -92.978998 169.380697 
L -108.002509 159.886748 
L -108.002509 165.864191 
L -101.927977 169.380697 
L -77.645757 183.062602 
L -58.520879 193.891126 
L -47.289005 203.016829 
L -21.085757 218.401555 
L -16.932254 221.556854 
L 13.424498 236.570103 
L 24.344886 242.911984 
L 43.78125 257.148722 
L 60.943865 267.422412 
L 74.138002 276.749518 
L 101.380868 291.932841 
z
M 225.921761 294.634367 
L 253.585864 316.44327 
L 256.278513 316.44327 
L 259.460854 316.44327 
L 256.278513 314.344813 
L 229.466121 291.932841 
L 225.921761 289.669818 
L 197.969101 267.422412 
L 195.565009 265.925271 
L 165.817053 242.911984 
L 165.208257 242.540905 
L 134.851505 219.277826 
L 133.922288 218.401555 
L 104.494754 196.185606 
L 102.008076 193.891126 
L 74.138002 173.250434 
L 69.887765 169.380697 
L 43.78125 150.432925 
L 37.517051 144.870269 
L 13.424498 127.688771 
L 5.084744 120.35984 
L -16.932254 104.926962 
L -27.480028 95.849411 
L -47.289005 82.276486 
L -60.286017 71.338982 
L -77.645757 59.693029 
L -93.114077 46.828554 
L -108.002509 37.033165 
L -108.002509 45.873547 
L -106.351441 46.828554 
L -77.645757 68.070885 
L -72.170984 71.338982 
L -47.289005 90.173017 
L -38.085941 95.849411 
L -16.932254 112.395909 
L -4.436091 120.35984 
L 13.424498 134.754469 
L 28.896074 144.870269 
L 43.78125 157.084257 
L 62.113772 169.380697 
L 74.138002 179.569835 
L 94.925186 193.891126 
L 104.494754 202.158116 
L 127.481425 218.401555 
L 134.851505 224.945195 
L 159.668426 242.911984 
L 165.208257 247.906324 
L 191.609804 267.422412 
L 195.565009 271.056807 
L 223.114899 291.932841 
z
" clip-path="url(#p0a7174c9c2)" style="fill: #26828e"/>
    <path d="M 104.494754 297.814014 
L 134.851505 312.557957 
L 141.668518 316.44327 
L 145.82097 316.44327 
L 134.851505 309.933041 
L 104.494754 294.359054 
L 101.380868 291.932841 
L 74.138002 276.749518 
L 60.943865 267.422412 
L 43.78125 257.148722 
L 24.344886 242.911984 
L 13.424498 236.570103 
L -16.932254 221.556854 
L -21.085757 218.401555 
L -47.289005 203.016829 
L -58.520879 193.891126 
L -77.645757 183.062602 
L -101.927977 169.380697 
L -108.002509 165.864191 
L -108.002509 169.380697 
L -108.002509 171.860369 
L -77.645757 187.389584 
L -65.354928 193.891126 
L -47.289005 207.689717 
L -27.763325 218.401555 
L -16.932254 226.136406 
L 13.424498 240.469826 
L 17.901339 242.911984 
L 43.78125 260.822979 
L 55.425695 267.422412 
L 74.138002 280.009199 
L 96.603082 291.932841 
z
M 256.278513 314.344813 
L 259.460854 316.44327 
L 266.312647 316.44327 
L 256.278513 309.373002 
L 236.699139 291.932841 
L 225.921761 284.551734 
L 205.833046 267.422412 
L 195.565009 260.522736 
L 174.452209 242.911984 
L 165.208257 236.789012 
L 142.804264 218.401555 
L 134.851505 213.218931 
L 110.808146 193.891126 
L 104.494754 189.902951 
L 78.431754 169.380697 
L 74.138002 166.714119 
L 45.755656 144.870269 
L 43.78125 143.670668 
L 13.424498 120.623073 
L 13.146714 120.35984 
L -16.932254 97.458016 
L -18.654136 95.849411 
L -47.289005 74.379956 
L -50.593104 71.338982 
L -77.645757 51.315174 
L -82.5417 46.828554 
L -108.002509 28.192782 
L -108.002509 37.033165 
L -93.114077 46.828554 
L -77.645757 59.693029 
L -60.286017 71.338982 
L -47.289005 82.276486 
L -27.480028 95.849411 
L -16.932254 104.926962 
L 5.084744 120.35984 
L 13.424498 127.688771 
L 37.517051 144.870269 
L 43.78125 150.432925 
L 69.887765 169.380697 
L 74.138002 173.250434 
L 102.008076 193.891126 
L 104.494754 196.185606 
L 133.922288 218.401555 
L 134.851505 219.277826 
L 165.208257 242.540905 
L 165.817053 242.911984 
L 195.565009 265.925271 
L 197.969101 267.422412 
L 225.921761 289.669818 
L 229.466121 291.932841 
z
" clip-path="url(#p0a7174c9c2)" style="fill: #21918c"/>
    <path d="M 104.494754 301.268973 
L 134.851505 315.182873 
L 137.160931 316.44327 
L 141.668518 316.44327 
L 134.851505 312.557957 
L 104.494754 297.814014 
L 96.603082 291.932841 
L 74.138002 280.009199 
L 55.425695 267.422412 
L 43.78125 260.822979 
L 17.901339 242.911984 
L 13.424498 240.469826 
L -16.932254 226.136406 
L -27.763325 218.401555 
L -47.289005 207.689717 
L -65.354928 193.891126 
L -77.645757 187.389584 
L -108.002509 171.860369 
L -108.002509 177.88332 
L -77.645757 191.716567 
L -73.208357 193.891126 
L -47.289005 212.362606 
L -35.410727 218.401555 
L -16.932254 230.715959 
L 10.504617 242.911984 
L 13.424498 244.892507 
L 43.78125 264.497236 
L 49.261891 267.422412 
L 74.138002 283.268881 
L 91.348911 291.932841 
z
M 256.278513 309.373002 
L 266.312647 316.44327 
L 272.375695 316.44327 
L 256.278513 304.40119 
L 243.058693 291.932841 
L 225.921761 279.433651 
L 212.675053 267.422412 
L 195.565009 255.120201 
L 181.870342 242.911984 
L 165.208257 231.037119 
L 150.884636 218.401555 
L 134.851505 207.088428 
L 119.680171 193.891126 
L 104.494754 183.426815 
L 88.121976 169.380697 
L 74.138002 159.835145 
L 56.436805 144.870269 
L 43.78125 136.34163 
L 24.699081 120.35984 
L 13.424498 112.834117 
L -7.033383 95.849411 
L -16.932254 89.377021 
L -38.97255 71.338982 
L -47.289005 65.977434 
L -70.927522 46.828554 
L -77.645757 42.570265 
L -102.851205 22.318125 
L -108.002509 22.318125 
L -108.002509 28.192782 
L -82.5417 46.828554 
L -77.645757 51.315174 
L -50.593104 71.338982 
L -47.289005 74.379956 
L -18.654136 95.849411 
L -16.932254 97.458016 
L 13.146714 120.35984 
L 13.424498 120.623073 
L 43.78125 143.670668 
L 45.755656 144.870269 
L 74.138002 166.714119 
L 78.431754 169.380697 
L 104.494754 189.902951 
L 110.808146 193.891126 
L 134.851505 213.218931 
L 142.804264 218.401555 
L 165.208257 236.789012 
L 174.452209 242.911984 
L 195.565009 260.522736 
L 205.833046 267.422412 
L 225.921761 284.551734 
L 236.699139 291.932841 
z
" clip-path="url(#p0a7174c9c2)" style="fill: #1f9f88"/>
    <path d="M 104.494754 304.723932 
L 131.691693 316.44327 
L 134.851505 316.44327 
L 137.160931 316.44327 
L 134.851505 315.182873 
L 104.494754 301.268973 
L 91.348911 291.932841 
L 74.138002 283.268881 
L 49.261891 267.422412 
L 43.78125 264.497236 
L 13.424498 244.892507 
L 10.504617 242.911984 
L -16.932254 230.715959 
L -35.410727 218.401555 
L -47.289005 212.362606 
L -73.208357 193.891126 
L -77.645757 191.716567 
L -108.002509 177.88332 
L -108.002509 183.906271 
L -83.261403 193.891126 
L -77.645757 197.666047 
L -47.289005 217.035495 
L -44.358332 218.401555 
L -16.932254 235.295511 
L 1.790184 242.911984 
L 13.424498 250.19141 
L 42.401727 267.422412 
L 43.78125 268.549893 
L 74.138002 286.528563 
L 85.512727 291.932841 
z
M 256.278513 304.40119 
L 272.375695 316.44327 
L 277.81299 316.44327 
L 256.278513 299.429379 
L 248.733193 291.932841 
L 225.921761 274.315567 
L 218.73044 267.422412 
L 195.565009 249.717666 
L 188.372507 242.911984 
L 165.208257 225.285226 
L 157.889812 218.401555 
L 134.851505 200.957924 
L 127.272329 193.891126 
L 104.494754 176.950679 
L 96.304972 169.380697 
L 74.138002 152.956171 
L 65.314682 144.870269 
L 43.78125 129.012593 
L 34.311011 120.35984 
L 13.424498 105.017174 
L 3.371789 95.849411 
L -16.932254 81.128026 
L -27.744903 71.338982 
L -47.289005 57.258015 
L -58.843229 46.828554 
L -77.645757 33.402142 
L -89.939918 22.318125 
L -102.851205 22.318125 
L -77.645757 42.570265 
L -70.927522 46.828554 
L -47.289005 65.977434 
L -38.97255 71.338982 
L -16.932254 89.377021 
L -7.033383 95.849411 
L 13.424498 112.834117 
L 24.699081 120.35984 
L 43.78125 136.34163 
L 56.436805 144.870269 
L 74.138002 159.835145 
L 88.121976 169.380697 
L 104.494754 183.426815 
L 119.680171 193.891126 
L 134.851505 207.088428 
L 150.884636 218.401555 
L 165.208257 231.037119 
L 181.870342 242.911984 
L 195.565009 255.120201 
L 212.675053 267.422412 
L 225.921761 279.433651 
L 243.058693 291.932841 
z
" clip-path="url(#p0a7174c9c2)" style="fill: #26ad81"/>
    <path d="M 104.494754 308.178891 
L 125.02295 316.44327 
L 131.691693 316.44327 
L 104.494754 304.723932 
L 85.512727 291.932841 
L 74.138002 286.528563 
L 43.78125 268.549893 
L 42.401727 267.422412 
L 13.424498 250.19141 
L 1.790184 242.911984 
L -16.932254 235.295511 
L -44.358332 218.401555 
L -47.289005 217.035495 
L -77.645757 197.666047 
L -83.261403 193.891126 
L -108.002509 183.906271 
L -108.002509 189.929223 
L -96.763384 193.891126 
L -77.645757 205.254713 
L -54.447081 218.401555 
L -47.289005 223.997301 
L -16.932254 239.875063 
L -8.655026 242.911984 
L 13.424498 255.490312 
L 35.057372 267.422412 
L 43.78125 274.080205 
L 74.138002 289.788244 
L 78.94934 291.932841 
z
M 256.278513 299.429379 
L 277.81299 316.44327 
L 282.741698 316.44327 
L 256.278513 294.457568 
L 253.855982 291.932841 
L 225.921761 269.197483 
L 224.161574 267.422412 
L 195.565009 244.315131 
L 194.160246 242.911984 
L 165.208257 219.533334 
L 164.072616 218.401555 
L 134.851505 194.827421 
L 133.907755 193.891126 
L 104.494754 170.474543 
L 103.38711 169.380697 
L 74.138002 146.077197 
L 72.911123 144.870269 
L 43.78125 121.683556 
L 42.438151 120.35984 
L 13.424498 97.200231 
L 12.058363 95.849411 
L -16.932254 72.879031 
L -18.493153 71.338982 
L -47.289005 48.538597 
L -49.01834 46.828554 
L -77.645757 24.234018 
L -79.576201 22.318125 
L -89.939918 22.318125 
L -77.645757 33.402142 
L -58.843229 46.828554 
L -47.289005 57.258015 
L -27.744903 71.338982 
L -16.932254 81.128026 
L 3.371789 95.849411 
L 13.424498 105.017174 
L 34.311011 120.35984 
L 43.78125 129.012593 
L 65.314682 144.870269 
L 74.138002 152.956171 
L 96.304972 169.380697 
L 104.494754 176.950679 
L 127.272329 193.891126 
L 134.851505 200.957924 
L 157.889812 218.401555 
L 165.208257 225.285226 
L 188.372507 242.911984 
L 195.565009 249.717666 
L 218.73044 267.422412 
L 225.921761 274.315567 
L 248.733193 291.932841 
z
" clip-path="url(#p0a7174c9c2)" style="fill: #3aba76"/>
    <path d="M 74.138002 295.038037 
L 104.494754 311.63385 
L 117.387128 316.44327 
L 125.02295 316.44327 
L 104.494754 308.178891 
L 78.94934 291.932841 
L 74.138002 289.788244 
L 43.78125 274.080205 
L 35.057372 267.422412 
L 13.424498 255.490312 
L -8.655026 242.911984 
L -16.932254 239.875063 
L -47.289005 223.997301 
L -54.447081 218.401555 
L -77.645757 205.254713 
L -96.763384 193.891126 
L -108.002509 189.929223 
L -108.002509 193.891126 
L -108.002509 197.863341 
L -77.645757 212.843379 
L -66.574198 218.401555 
L -47.289005 231.904665 
L -21.632477 242.911984 
L -16.932254 246.197444 
L 13.424498 260.789214 
L 26.522083 267.422412 
L 43.78125 279.610517 
L 70.973077 291.932841 
z
M 256.278513 294.457568 
L 282.741698 316.44327 
L 286.635264 316.44327 
L 288.806307 316.44327 
L 286.635264 315.003179 
L 263.14511 291.932841 
L 256.278513 287.147323 
L 235.075289 267.422412 
L 225.921761 260.939611 
L 206.282201 242.911984 
L 195.565009 235.138207 
L 177.429341 218.401555 
L 165.208257 209.441705 
L 148.451662 193.891126 
L 134.851505 183.552011 
L 119.320904 169.380697 
L 104.494754 157.917731 
L 90.448199 144.870269 
L 74.138002 132.536403 
L 61.162872 120.35984 
L 43.78125 106.881999 
L 32.278644 95.849411 
L 13.424498 80.917906 
L 3.419619 71.338982 
L -16.932254 55.351782 
L -25.710945 46.828554 
L -47.289005 30.519455 
L -55.736631 22.318125 
L -77.645757 22.318125 
L -79.576201 22.318125 
L -77.645757 24.234018 
L -49.01834 46.828554 
L -47.289005 48.538597 
L -18.493153 71.338982 
L -16.932254 72.879031 
L 12.058363 95.849411 
L 13.424498 97.200231 
L 42.438151 120.35984 
L 43.78125 121.683556 
L 72.911123 144.870269 
L 74.138002 146.077197 
L 103.38711 169.380697 
L 104.494754 170.474543 
L 133.907755 193.891126 
L 134.851505 194.827421 
L 164.072616 218.401555 
L 165.208257 219.533334 
L 194.160246 242.911984 
L 195.565009 244.315131 
L 224.161574 267.422412 
L 225.921761 269.197483 
L 253.855982 291.932841 
z
" clip-path="url(#p0a7174c9c2)" style="fill: #56c667"/>
    <path d="M 74.138002 304.11533 
L 104.494754 315.088809 
L 108.455379 316.44327 
L 117.387128 316.44327 
L 104.494754 311.63385 
L 74.138002 295.038037 
L 70.973077 291.932841 
L 43.78125 279.610517 
L 26.522083 267.422412 
L 13.424498 260.789214 
L -16.932254 246.197444 
L -21.632477 242.911984 
L -47.289005 231.904665 
L -66.574198 218.401555 
L -77.645757 212.843379 
L -108.002509 197.863341 
L -108.002509 209.47125 
L -83.96547 218.401555 
L -77.645757 222.971563 
L -47.289005 239.81203 
L -38.718187 242.911984 
L -16.932254 255.950864 
L 13.424498 266.088117 
L 16.333438 267.422412 
L 43.78125 285.14083 
L 60.455468 291.932841 
z
M 286.635264 315.003179 
L 288.806307 316.44327 
L 302.054955 316.44327 
L 286.635264 304.805589 
L 274.830285 291.932841 
L 256.278513 277.42445 
L 246.587186 267.422412 
L 225.921761 251.014575 
L 217.983377 242.911984 
L 195.565009 224.637073 
L 189.513283 218.401555 
L 165.208257 198.286981 
L 160.985648 193.891126 
L 134.851505 171.349193 
L 132.948933 169.380697 
L 106.067179 144.870269 
L 104.494754 143.799976 
L 79.437382 120.35984 
L 74.138002 116.621362 
L 52.869402 95.849411 
L 43.78125 89.209963 
L 26.006331 71.338982 
L 13.424498 61.624598 
L -1.338971 46.828554 
L -16.932254 33.983476 
L -28.883972 22.318125 
L -47.289005 22.318125 
L -55.736631 22.318125 
L -47.289005 30.519455 
L -25.710945 46.828554 
L -16.932254 55.351782 
L 3.419619 71.338982 
L 13.424498 80.917906 
L 32.278644 95.849411 
L 43.78125 106.881999 
L 61.162872 120.35984 
L 74.138002 132.536403 
L 90.448199 144.870269 
L 104.494754 157.917731 
L 119.320904 169.380697 
L 134.851505 183.552011 
L 148.451662 193.891126 
L 165.208257 209.441705 
L 177.429341 218.401555 
L 195.565009 235.138207 
L 206.282201 242.911984 
L 225.921761 260.939611 
L 235.075289 267.422412 
L 256.278513 287.147323 
L 263.14511 291.932841 
z
" clip-path="url(#p0a7174c9c2)" style="fill: #77d153"/>
    <path d="M 74.138002 313.192622 
L 87.505032 316.44327 
L 104.494754 316.44327 
L 108.455379 316.44327 
L 104.494754 315.088809 
L 74.138002 304.11533 
L 60.455468 291.932841 
L 43.78125 285.14083 
L 16.333438 267.422412 
L 13.424498 266.088117 
L -16.932254 255.950864 
L -38.718187 242.911984 
L -47.289005 239.81203 
L -77.645757 222.971563 
L -83.96547 218.401555 
L -108.002509 209.47125 
L -108.002509 218.401555 
L -108.002509 228.004213 
L -77.645757 240.051311 
L -69.4519 242.911984 
L -47.289005 258.336802 
L -16.932254 265.704284 
L -9.639027 267.422412 
L 13.424498 283.998864 
L 43.78125 290.671142 
L 47.304014 291.932841 
z
M 286.635264 304.805589 
L 302.054955 316.44327 
L 312.634516 316.44327 
L 286.635264 294.607999 
L 284.390077 291.932841 
L 256.278513 267.701576 
L 256.03084 267.422412 
L 232.572754 242.911984 
L 225.921761 238.153744 
L 208.193074 218.401555 
L 195.565009 208.677591 
L 182.399244 193.891126 
L 165.208257 180.005051 
L 156.276691 169.380697 
L 134.851505 151.868574 
L 128.966662 144.870269 
L 104.494754 123.988507 
L 101.31307 120.35984 
L 74.138002 96.518545 
L 73.571152 95.849411 
L 49.997131 71.338983 
L 43.78125 66.856516 
L 26.43313 46.828554 
L 13.424498 36.709882 
L 1.711396 22.318125 
L -16.932254 22.318125 
L -28.883972 22.318125 
L -16.932254 33.983476 
L -1.338971 46.828554 
L 13.424498 61.624598 
L 26.006331 71.338982 
L 43.78125 89.209963 
L 52.869402 95.849411 
L 74.138002 116.621362 
L 79.437382 120.35984 
L 104.494754 143.799976 
L 106.067179 144.870269 
L 132.948933 169.380697 
L 134.851505 171.349193 
L 160.985648 193.891126 
L 165.208257 198.286981 
L 189.513283 218.401555 
L 195.565009 224.637073 
L 217.983377 242.911984 
L 225.921761 251.014575 
L 246.587186 267.422412 
L 256.278513 277.42445 
L 274.830285 291.932841 
z
" clip-path="url(#p0a7174c9c2)" style="fill: #9dd93b"/>
    <path d="M -77.645757 316.44327 
L -47.289005 316.44327 
L -16.932254 316.44327 
L 13.424498 316.44327 
L 43.78125 316.44327 
L 74.138002 316.44327 
L 87.505032 316.44327 
L 74.138002 313.192622 
L 47.304014 291.932841 
L 43.78125 290.671142 
L 13.424498 283.998864 
L -9.639027 267.422412 
L -16.932254 265.704284 
L -47.289005 258.336802 
L -69.4519 242.911984 
L -77.645757 240.051311 
L -108.002509 228.004213 
L -108.002509 242.911984 
L -108.002509 267.422412 
L -108.002509 291.932841 
L -108.002509 316.44327 
z
M 286.635264 294.607999 
L 312.634516 316.44327 
L 316.992016 316.44327 
L 343.390459 316.44327 
L 316.992016 294.124534 
L 315.459294 291.932841 
L 295.656591 267.422412 
L 286.635264 260.943901 
L 277.54531 242.911984 
L 286.635264 228.371973 
L 303.585522 242.911984 
L 316.992016 254.684164 
L 331.222621 267.422412 
L 347.348768 283.289042 
L 356.70965 291.932841 
L 377.70552 315.525071 
L 378.645896 316.44327 
L 408.062272 316.44327 
L 438.419023 316.44327 
L 468.775775 316.44327 
L 499.132527 316.44327 
L 529.489279 316.44327 
L 559.846031 316.44327 
L 590.202783 316.44327 
L 620.559534 316.44327 
L 650.916286 316.44327 
L 681.273038 316.44327 
L 711.62979 316.44327 
L 741.986542 316.44327 
L 772.343293 316.44327 
L 802.700045 316.44327 
L 833.056797 316.44327 
L 863.413549 316.44327 
L 893.770301 316.44327 
L 924.127052 316.44327 
L 954.483804 316.44327 
L 984.840556 316.44327 
L 1015.197308 316.44327 
L 1045.55406 316.44327 
L 1075.910811 316.44327 
L 1106.267563 316.44327 
L 1136.624315 316.44327 
L 1166.981067 316.44327 
L 1197.337819 316.44327 
L 1227.69457 316.44327 
L 1227.69457 291.932841 
L 1227.69457 267.422412 
L 1227.69457 242.911984 
L 1227.69457 218.401555 
L 1227.69457 193.891126 
L 1227.69457 169.380697 
L 1227.69457 144.870269 
L 1227.69457 120.35984 
L 1227.69457 95.849411 
L 1227.69457 71.338982 
L 1227.69457 46.828554 
L 1227.69457 22.318125 
L 1197.337819 22.318125 
L 1166.981067 22.318125 
L 1136.624315 22.318125 
L 1106.267563 22.318125 
L 1075.910811 22.318125 
L 1045.55406 22.318125 
L 1015.197308 22.318125 
L 984.840556 22.318125 
L 954.483804 22.318125 
L 924.127052 22.318125 
L 893.770301 22.318125 
L 863.413549 22.318125 
L 833.056797 22.318125 
L 802.700045 22.318125 
L 772.343293 22.318125 
L 741.986542 22.318125 
L 711.62979 22.318125 
L 681.273038 22.318125 
L 650.916286 22.318125 
L 620.559534 22.318125 
L 590.202783 22.318125 
L 559.846031 22.318125 
L 529.489279 22.318125 
L 499.132527 22.318125 
L 468.775775 22.318125 
L 438.419023 22.318125 
L 408.062272 22.318125 
L 377.70552 22.318125 
L 347.348768 22.318125 
L 316.992016 22.318125 
L 286.635264 22.318125 
L 256.278513 22.318125 
L 225.921761 22.318125 
L 195.565009 22.318125 
L 165.208257 22.318125 
L 134.851505 22.318125 
L 104.494754 22.318125 
L 74.138002 22.318125 
L 43.78125 22.318125 
L 13.424498 22.318125 
L 1.711396 22.318125 
L 13.424498 36.709882 
L 26.43313 46.828554 
L 43.78125 66.856516 
L 49.997131 71.338982 
L 73.571152 95.849411 
L 74.138002 96.518545 
L 101.31307 120.35984 
L 104.494754 123.988507 
L 128.966662 144.870269 
L 134.851505 151.868574 
L 156.276691 169.380697 
L 165.208257 180.005051 
L 182.399244 193.891126 
L 195.565009 208.677591 
L 208.193074 218.401555 
L 225.921761 238.153744 
L 232.572754 242.911984 
L 256.03084 267.422412 
L 256.278513 267.701576 
L 284.390077 291.932841 
z
M 252.591903 218.401555 
L 256.278513 204.951736 
L 273.043255 218.401555 
L 256.278513 224.890086 
z
M 225.626374 193.891126 
L 225.921761 190.77594 
L 230.694218 193.891126 
L 225.921761 194.390259 
z
" clip-path="url(#p0a7174c9c2)" style="fill: #c5e021"/>
    <path d="M 316.992016 294.124534 
L 343.390459 316.44327 
L 347.348768 316.44327 
L 377.70552 316.44327 
L 378.645896 316.44327 
L 377.70552 315.525071 
L 356.70965 291.932841 
L 347.348768 283.289042 
L 331.222621 267.422412 
L 316.992016 254.684164 
L 303.585522 242.911984 
L 286.635264 228.371973 
L 277.54531 242.911984 
L 286.635264 260.943901 
L 295.656591 267.422412 
L 315.459294 291.932841 
z
M 256.278513 224.890086 
L 273.043255 218.401555 
L 256.278513 204.951736 
L 252.591903 218.401555 
z
M 225.921761 194.390259 
L 230.694218 193.891126 
L 225.921761 190.77594 
L 225.626374 193.891126 
z
" clip-path="url(#p0a7174c9c2)" style="fill: #ece51b"/>
   </g>
   <g id="PathCollection_1">
    <defs>
     <path id="mdc0741d33a" d="M -3 3 
L 3 -3 
M -3 -3 
L 3 3 
" style="stroke: #ff0000; stroke-width: 1.5"/>
    </defs>
    <g clip-path="url(#p0a7174c9c2)">
     <use xlink:href="#mdc0741d33a" x="347.348768" y="316.44327" style="fill: #ff0000; stroke: #ff0000; stroke-width: 1.5"/>
     <use xlink:href="#mdc0741d33a" x="347.348768" y="291.932841" style="fill: #ff0000; stroke: #ff0000; stroke-width: 1.5"/>
     <use xlink:href="#mdc0741d33a" x="316.992016" y="267.422412" style="fill: #ff0000; stroke: #ff0000; stroke-width: 1.5"/>
     <use xlink:href="#mdc0741d33a" x="286.635264" y="242.911984" style="fill: #ff0000; stroke: #ff0000; stroke-width: 1.5"/>
     <use xlink:href="#mdc0741d33a" x="256.278513" y="218.401555" style="fill: #ff0000; stroke: #ff0000; stroke-width: 1.5"/>
     <use xlink:href="#mdc0741d33a" x="225.921761" y="193.891126" style="fill: #ff0000; stroke: #ff0000; stroke-width: 1.5"/>
     <use xlink:href="#mdc0741d33a" x="225.921761" y="169.380697" style="fill: #ff0000; stroke: #ff0000; stroke-width: 1.5"/>
     <use xlink:href="#mdc0741d33a" x="195.565009" y="144.870269" style="fill: #ff0000; stroke: #ff0000; stroke-width: 1.5"/>
     <use xlink:href="#mdc0741d33a" x="165.208257" y="120.35984" style="fill: #ff0000; stroke: #ff0000; stroke-width: 1.5"/>
     <use xlink:href="#mdc0741d33a" x="134.851505" y="95.849411" style="fill: #ff0000; stroke: #ff0000; stroke-width: 1.5"/>
     <use xlink:href="#mdc0741d33a" x="104.494754" y="71.338982" style="fill: #ff0000; stroke: #ff0000; stroke-width: 1.5"/>
     <use xlink:href="#mdc0741d33a" x="104.494754" y="46.828554" style="fill: #ff0000; stroke: #ff0000; stroke-width: 1.5"/>
     <use xlink:href="#mdc0741d33a" x="74.138002" y="22.318125" style="fill: #ff0000; stroke: #ff0000; stroke-width: 1.5"/>
    </g>
   </g>
   <g id="matplotlib.axis_1">
    <g id="xtick_1">
     <g id="line2d_1">
      <defs>
       <path id="m38f3b05bbe" d="M 0 0 
L 0 3.5 
" style="stroke: #000000; stroke-width: 0.8"/>
      </defs>
      <g>
       <use xlink:href="#m38f3b05bbe" x="134.851505" y="316.44327" style="stroke: #000000; stroke-width: 0.8"/>
      </g>
     </g>
     <g id="text_1">
      <!-- $\mathdefault{10^{-3}}$ -->
      <g transform="translate(123.101505 331.041707) scale(0.1 -0.1)">
       <defs>
        <path id="DejaVuSans-31" d="M 794 531 
L 1825 531 
L 1825 4091 
L 703 3866 
L 703 4441 
L 1819 4666 
L 2450 4666 
L 2450 531 
L 3481 531 
L 3481 0 
L 794 0 
L 794 531 
z
" transform="scale(0.015625)"/>
        <path id="DejaVuSans-30" d="M 2034 4250 
Q 1547 4250 1301 3770 
Q 1056 3291 1056 2328 
Q 1056 1369 1301 889 
Q 1547 409 2034 409 
Q 2525 409 2770 889 
Q 3016 1369 3016 2328 
Q 3016 3291 2770 3770 
Q 2525 4250 2034 4250 
z
M 2034 4750 
Q 2819 4750 3233 4129 
Q 3647 3509 3647 2328 
Q 3647 1150 3233 529 
Q 2819 -91 2034 -91 
Q 1250 -91 836 529 
Q 422 1150 422 2328 
Q 422 3509 836 4129 
Q 1250 4750 2034 4750 
z
" transform="scale(0.015625)"/>
        <path id="DejaVuSans-2212" d="M 678 2272 
L 4684 2272 
L 4684 1741 
L 678 1741 
L 678 2272 
z
" transform="scale(0.015625)"/>
        <path id="DejaVuSans-33" d="M 2597 2516 
Q 3050 2419 3304 2112 
Q 3559 1806 3559 1356 
Q 3559 666 3084 287 
Q 2609 -91 1734 -91 
Q 1441 -91 1130 -33 
Q 819 25 488 141 
L 488 750 
Q 750 597 1062 519 
Q 1375 441 1716 441 
Q 2309 441 2620 675 
Q 2931 909 2931 1356 
Q 2931 1769 2642 2001 
Q 2353 2234 1838 2234 
L 1294 2234 
L 1294 2753 
L 1863 2753 
Q 2328 2753 2575 2939 
Q 2822 3125 2822 3475 
Q 2822 3834 2567 4026 
Q 2313 4219 1838 4219 
Q 1578 4219 1281 4162 
Q 984 4106 628 3988 
L 628 4550 
Q 988 4650 1302 4700 
Q 1616 4750 1894 4750 
Q 2613 4750 3031 4423 
Q 3450 4097 3450 3541 
Q 3450 3153 3228 2886 
Q 3006 2619 2597 2516 
z
" transform="scale(0.015625)"/>
       </defs>
       <use xlink:href="#DejaVuSans-31" transform="translate(0 0.765625)"/>
       <use xlink:href="#DejaVuSans-30" transform="translate(63.623047 0.765625)"/>
       <use xlink:href="#DejaVuSans-2212" transform="translate(128.203125 39.046875) scale(0.7)"/>
       <use xlink:href="#DejaVuSans-33" transform="translate(186.855469 39.046875) scale(0.7)"/>
      </g>
     </g>
    </g>
    <g id="xtick_2">
     <g id="line2d_2">
      <g>
       <use xlink:href="#m38f3b05bbe" x="256.278513" y="316.44327" style="stroke: #000000; stroke-width: 0.8"/>
      </g>
     </g>
     <g id="text_2">
      <!-- $\mathdefault{10^{-2}}$ -->
      <g transform="translate(244.528513 331.041707) scale(0.1 -0.1)">
       <defs>
        <path id="DejaVuSans-32" d="M 1228 531 
L 3431 531 
L 3431 0 
L 469 0 
L 469 531 
Q 828 903 1448 1529 
Q 2069 2156 2228 2338 
Q 2531 2678 2651 2914 
Q 2772 3150 2772 3378 
Q 2772 3750 2511 3984 
Q 2250 4219 1831 4219 
Q 1534 4219 1204 4116 
Q 875 4013 500 3803 
L 500 4441 
Q 881 4594 1212 4672 
Q 1544 4750 1819 4750 
Q 2544 4750 2975 4387 
Q 3406 4025 3406 3419 
Q 3406 3131 3298 2873 
Q 3191 2616 2906 2266 
Q 2828 2175 2409 1742 
Q 1991 1309 1228 531 
z
" transform="scale(0.015625)"/>
       </defs>
       <use xlink:href="#DejaVuSans-31" transform="translate(0 0.765625)"/>
       <use xlink:href="#DejaVuSans-30" transform="translate(63.623047 0.765625)"/>
       <use xlink:href="#DejaVuSans-2212" transform="translate(128.203125 39.046875) scale(0.7)"/>
       <use xlink:href="#DejaVuSans-32" transform="translate(186.855469 39.046875) scale(0.7)"/>
      </g>
     </g>
    </g>
    <g id="xtick_3">
     <g id="line2d_3">
      <g>
       <use xlink:href="#m38f3b05bbe" x="377.70552" y="316.44327" style="stroke: #000000; stroke-width: 0.8"/>
      </g>
     </g>
     <g id="text_3">
      <!-- $\mathdefault{10^{-1}}$ -->
      <g transform="translate(365.95552 331.041707) scale(0.1 -0.1)">
       <use xlink:href="#DejaVuSans-31" transform="translate(0 0.684375)"/>
       <use xlink:href="#DejaVuSans-30" transform="translate(63.623047 0.684375)"/>
       <use xlink:href="#DejaVuSans-2212" transform="translate(128.203125 38.965625) scale(0.7)"/>
       <use xlink:href="#DejaVuSans-31" transform="translate(186.855469 38.965625) scale(0.7)"/>
      </g>
     </g>
    </g>
    <g id="xtick_4">
     <g id="line2d_4">
      <defs>
       <path id="m360e1f0208" d="M 0 0 
L 0 2 
" style="stroke: #000000; stroke-width: 0.6"/>
      </defs>
      <g>
       <use xlink:href="#m360e1f0208" x="49.97767" y="316.44327" style="stroke: #000000; stroke-width: 0.6"/>
      </g>
     </g>
    </g>
    <g id="xtick_5">
     <g id="line2d_5">
      <g>
       <use xlink:href="#m360e1f0208" x="71.359904" y="316.44327" style="stroke: #000000; stroke-width: 0.6"/>
      </g>
     </g>
    </g>
    <g id="xtick_6">
     <g id="line2d_6">
      <g>
       <use xlink:href="#m360e1f0208" x="86.530841" y="316.44327" style="stroke: #000000; stroke-width: 0.6"/>
      </g>
     </g>
    </g>
    <g id="xtick_7">
     <g id="line2d_7">
      <g>
       <use xlink:href="#m360e1f0208" x="98.298334" y="316.44327" style="stroke: #000000; stroke-width: 0.6"/>
      </g>
     </g>
    </g>
    <g id="xtick_8">
     <g id="line2d_8">
      <g>
       <use xlink:href="#m360e1f0208" x="107.913076" y="316.44327" style="stroke: #000000; stroke-width: 0.6"/>
      </g>
     </g>
    </g>
    <g id="xtick_9">
     <g id="line2d_9">
      <g>
       <use xlink:href="#m360e1f0208" x="116.042224" y="316.44327" style="stroke: #000000; stroke-width: 0.6"/>
      </g>
     </g>
    </g>
    <g id="xtick_10">
     <g id="line2d_10">
      <g>
       <use xlink:href="#m360e1f0208" x="123.084013" y="316.44327" style="stroke: #000000; stroke-width: 0.6"/>
      </g>
     </g>
    </g>
    <g id="xtick_11">
     <g id="line2d_11">
      <g>
       <use xlink:href="#m360e1f0208" x="129.29531" y="316.44327" style="stroke: #000000; stroke-width: 0.6"/>
      </g>
     </g>
    </g>
    <g id="xtick_12">
     <g id="line2d_12">
      <g>
       <use xlink:href="#m360e1f0208" x="171.404677" y="316.44327" style="stroke: #000000; stroke-width: 0.6"/>
      </g>
     </g>
    </g>
    <g id="xtick_13">
     <g id="line2d_13">
      <g>
       <use xlink:href="#m360e1f0208" x="192.786911" y="316.44327" style="stroke: #000000; stroke-width: 0.6"/>
      </g>
     </g>
    </g>
    <g id="xtick_14">
     <g id="line2d_14">
      <g>
       <use xlink:href="#m360e1f0208" x="207.957848" y="316.44327" style="stroke: #000000; stroke-width: 0.6"/>
      </g>
     </g>
    </g>
    <g id="xtick_15">
     <g id="line2d_15">
      <g>
       <use xlink:href="#m360e1f0208" x="219.725341" y="316.44327" style="stroke: #000000; stroke-width: 0.6"/>
      </g>
     </g>
    </g>
    <g id="xtick_16">
     <g id="line2d_16">
      <g>
       <use xlink:href="#m360e1f0208" x="229.340083" y="316.44327" style="stroke: #000000; stroke-width: 0.6"/>
      </g>
     </g>
    </g>
    <g id="xtick_17">
     <g id="line2d_17">
      <g>
       <use xlink:href="#m360e1f0208" x="237.469231" y="316.44327" style="stroke: #000000; stroke-width: 0.6"/>
      </g>
     </g>
    </g>
    <g id="xtick_18">
     <g id="line2d_18">
      <g>
       <use xlink:href="#m360e1f0208" x="244.51102" y="316.44327" style="stroke: #000000; stroke-width: 0.6"/>
      </g>
     </g>
    </g>
    <g id="xtick_19">
     <g id="line2d_19">
      <g>
       <use xlink:href="#m360e1f0208" x="250.722318" y="316.44327" style="stroke: #000000; stroke-width: 0.6"/>
      </g>
     </g>
    </g>
    <g id="xtick_20">
     <g id="line2d_20">
      <g>
       <use xlink:href="#m360e1f0208" x="292.831684" y="316.44327" style="stroke: #000000; stroke-width: 0.6"/>
      </g>
     </g>
    </g>
    <g id="xtick_21">
     <g id="line2d_21">
      <g>
       <use xlink:href="#m360e1f0208" x="314.213919" y="316.44327" style="stroke: #000000; stroke-width: 0.6"/>
      </g>
     </g>
    </g>
    <g id="xtick_22">
     <g id="line2d_22">
      <g>
       <use xlink:href="#m360e1f0208" x="329.384856" y="316.44327" style="stroke: #000000; stroke-width: 0.6"/>
      </g>
     </g>
    </g>
    <g id="xtick_23">
     <g id="line2d_23">
      <g>
       <use xlink:href="#m360e1f0208" x="341.152348" y="316.44327" style="stroke: #000000; stroke-width: 0.6"/>
      </g>
     </g>
    </g>
    <g id="xtick_24">
     <g id="line2d_24">
      <g>
       <use xlink:href="#m360e1f0208" x="350.76709" y="316.44327" style="stroke: #000000; stroke-width: 0.6"/>
      </g>
     </g>
    </g>
    <g id="xtick_25">
     <g id="line2d_25">
      <g>
       <use xlink:href="#m360e1f0208" x="358.896238" y="316.44327" style="stroke: #000000; stroke-width: 0.6"/>
      </g>
     </g>
    </g>
    <g id="xtick_26">
     <g id="line2d_26">
      <g>
       <use xlink:href="#m360e1f0208" x="365.938027" y="316.44327" style="stroke: #000000; stroke-width: 0.6"/>
      </g>
     </g>
    </g>
    <g id="xtick_27">
     <g id="line2d_27">
      <g>
       <use xlink:href="#m360e1f0208" x="372.149325" y="316.44327" style="stroke: #000000; stroke-width: 0.6"/>
      </g>
     </g>
    </g>
    <g id="text_4">
     <!-- bandwidth -->
     <g transform="translate(184.380885 344.719832) scale(0.1 -0.1)">
      <defs>
       <path id="DejaVuSans-62" d="M 3116 1747 
Q 3116 2381 2855 2742 
Q 2594 3103 2138 3103 
Q 1681 3103 1420 2742 
Q 1159 2381 1159 1747 
Q 1159 1113 1420 752 
Q 1681 391 2138 391 
Q 2594 391 2855 752 
Q 3116 1113 3116 1747 
z
M 1159 2969 
Q 1341 3281 1617 3432 
Q 1894 3584 2278 3584 
Q 2916 3584 3314 3078 
Q 3713 2572 3713 1747 
Q 3713 922 3314 415 
Q 2916 -91 2278 -91 
Q 1894 -91 1617 61 
Q 1341 213 1159 525 
L 1159 0 
L 581 0 
L 581 4863 
L 1159 4863 
L 1159 2969 
z
" transform="scale(0.015625)"/>
       <path id="DejaVuSans-61" d="M 2194 1759 
Q 1497 1759 1228 1600 
Q 959 1441 959 1056 
Q 959 750 1161 570 
Q 1363 391 1709 391 
Q 2188 391 2477 730 
Q 2766 1069 2766 1631 
L 2766 1759 
L 2194 1759 
z
M 3341 1997 
L 3341 0 
L 2766 0 
L 2766 531 
Q 2569 213 2275 61 
Q 1981 -91 1556 -91 
Q 1019 -91 701 211 
Q 384 513 384 1019 
Q 384 1609 779 1909 
Q 1175 2209 1959 2209 
L 2766 2209 
L 2766 2266 
Q 2766 2663 2505 2880 
Q 2244 3097 1772 3097 
Q 1472 3097 1187 3025 
Q 903 2953 641 2809 
L 641 3341 
Q 956 3463 1253 3523 
Q 1550 3584 1831 3584 
Q 2591 3584 2966 3190 
Q 3341 2797 3341 1997 
z
" transform="scale(0.015625)"/>
       <path id="DejaVuSans-6e" d="M 3513 2113 
L 3513 0 
L 2938 0 
L 2938 2094 
Q 2938 2591 2744 2837 
Q 2550 3084 2163 3084 
Q 1697 3084 1428 2787 
Q 1159 2491 1159 1978 
L 1159 0 
L 581 0 
L 581 3500 
L 1159 3500 
L 1159 2956 
Q 1366 3272 1645 3428 
Q 1925 3584 2291 3584 
Q 2894 3584 3203 3211 
Q 3513 2838 3513 2113 
z
" transform="scale(0.015625)"/>
       <path id="DejaVuSans-64" d="M 2906 2969 
L 2906 4863 
L 3481 4863 
L 3481 0 
L 2906 0 
L 2906 525 
Q 2725 213 2448 61 
Q 2172 -91 1784 -91 
Q 1150 -91 751 415 
Q 353 922 353 1747 
Q 353 2572 751 3078 
Q 1150 3584 1784 3584 
Q 2172 3584 2448 3432 
Q 2725 3281 2906 2969 
z
M 947 1747 
Q 947 1113 1208 752 
Q 1469 391 1925 391 
Q 2381 391 2643 752 
Q 2906 1113 2906 1747 
Q 2906 2381 2643 2742 
Q 2381 3103 1925 3103 
Q 1469 3103 1208 2742 
Q 947 2381 947 1747 
z
" transform="scale(0.015625)"/>
       <path id="DejaVuSans-77" d="M 269 3500 
L 844 3500 
L 1563 769 
L 2278 3500 
L 2956 3500 
L 3675 769 
L 4391 3500 
L 4966 3500 
L 4050 0 
L 3372 0 
L 2619 2869 
L 1863 0 
L 1184 0 
L 269 3500 
z
" transform="scale(0.015625)"/>
       <path id="DejaVuSans-69" d="M 603 3500 
L 1178 3500 
L 1178 0 
L 603 0 
L 603 3500 
z
M 603 4863 
L 1178 4863 
L 1178 4134 
L 603 4134 
L 603 4863 
z
" transform="scale(0.015625)"/>
       <path id="DejaVuSans-74" d="M 1172 4494 
L 1172 3500 
L 2356 3500 
L 2356 3053 
L 1172 3053 
L 1172 1153 
Q 1172 725 1289 603 
Q 1406 481 1766 481 
L 2356 481 
L 2356 0 
L 1766 0 
Q 1100 0 847 248 
Q 594 497 594 1153 
L 594 3053 
L 172 3053 
L 172 3500 
L 594 3500 
L 594 4494 
L 1172 4494 
z
" transform="scale(0.015625)"/>
       <path id="DejaVuSans-68" d="M 3513 2113 
L 3513 0 
L 2938 0 
L 2938 2094 
Q 2938 2591 2744 2837 
Q 2550 3084 2163 3084 
Q 1697 3084 1428 2787 
Q 1159 2491 1159 1978 
L 1159 0 
L 581 0 
L 581 4863 
L 1159 4863 
L 1159 2956 
Q 1366 3272 1645 3428 
Q 1925 3584 2291 3584 
Q 2894 3584 3203 3211 
Q 3513 2838 3513 2113 
z
" transform="scale(0.015625)"/>
      </defs>
      <use xlink:href="#DejaVuSans-62"/>
      <use xlink:href="#DejaVuSans-61" transform="translate(63.476562 0)"/>
      <use xlink:href="#DejaVuSans-6e" transform="translate(124.755859 0)"/>
      <use xlink:href="#DejaVuSans-64" transform="translate(188.134766 0)"/>
      <use xlink:href="#DejaVuSans-77" transform="translate(251.611328 0)"/>
      <use xlink:href="#DejaVuSans-69" transform="translate(333.398438 0)"/>
      <use xlink:href="#DejaVuSans-64" transform="translate(361.181641 0)"/>
      <use xlink:href="#DejaVuSans-74" transform="translate(424.658203 0)"/>
      <use xlink:href="#DejaVuSans-68" transform="translate(463.867188 0)"/>
     </g>
    </g>
   </g>
   <g id="matplotlib.axis_2">
    <g id="ytick_1">
     <g id="line2d_28">
      <defs>
       <path id="mbd2f377c6c" d="M 0 0 
L -3.5 0 
" style="stroke: #000000; stroke-width: 0.8"/>
      </defs>
      <g>
       <use xlink:href="#mbd2f377c6c" x="43.78125" y="316.44327" style="stroke: #000000; stroke-width: 0.8"/>
      </g>
     </g>
     <g id="text_5">
      <!-- 1.0 -->
      <g transform="translate(20.878125 320.242489) scale(0.1 -0.1)">
       <defs>
        <path id="DejaVuSans-2e" d="M 684 794 
L 1344 794 
L 1344 0 
L 684 0 
L 684 794 
z
" transform="scale(0.015625)"/>
       </defs>
       <use xlink:href="#DejaVuSans-31"/>
       <use xlink:href="#DejaVuSans-2e" transform="translate(63.623047 0)"/>
       <use xlink:href="#DejaVuSans-30" transform="translate(95.410156 0)"/>
      </g>
     </g>
    </g>
    <g id="ytick_2">
     <g id="line2d_29">
      <g>
       <use xlink:href="#mbd2f377c6c" x="43.78125" y="267.422412" style="stroke: #000000; stroke-width: 0.8"/>
      </g>
     </g>
     <g id="text_6">
      <!-- 1.5 -->
      <g transform="translate(20.878125 271.221631) scale(0.1 -0.1)">
       <defs>
        <path id="DejaVuSans-35" d="M 691 4666 
L 3169 4666 
L 3169 4134 
L 1269 4134 
L 1269 2991 
Q 1406 3038 1543 3061 
Q 1681 3084 1819 3084 
Q 2600 3084 3056 2656 
Q 3513 2228 3513 1497 
Q 3513 744 3044 326 
Q 2575 -91 1722 -91 
Q 1428 -91 1123 -41 
Q 819 9 494 109 
L 494 744 
Q 775 591 1075 516 
Q 1375 441 1709 441 
Q 2250 441 2565 725 
Q 2881 1009 2881 1497 
Q 2881 1984 2565 2268 
Q 2250 2553 1709 2553 
Q 1456 2553 1204 2497 
Q 953 2441 691 2322 
L 691 4666 
z
" transform="scale(0.015625)"/>
       </defs>
       <use xlink:href="#DejaVuSans-31"/>
       <use xlink:href="#DejaVuSans-2e" transform="translate(63.623047 0)"/>
       <use xlink:href="#DejaVuSans-35" transform="translate(95.410156 0)"/>
      </g>
     </g>
    </g>
    <g id="ytick_3">
     <g id="line2d_30">
      <g>
       <use xlink:href="#mbd2f377c6c" x="43.78125" y="218.401555" style="stroke: #000000; stroke-width: 0.8"/>
      </g>
     </g>
     <g id="text_7">
      <!-- 2.0 -->
      <g transform="translate(20.878125 222.200774) scale(0.1 -0.1)">
       <use xlink:href="#DejaVuSans-32"/>
       <use xlink:href="#DejaVuSans-2e" transform="translate(63.623047 0)"/>
       <use xlink:href="#DejaVuSans-30" transform="translate(95.410156 0)"/>
      </g>
     </g>
    </g>
    <g id="ytick_4">
     <g id="line2d_31">
      <g>
       <use xlink:href="#mbd2f377c6c" x="43.78125" y="169.380697" style="stroke: #000000; stroke-width: 0.8"/>
      </g>
     </g>
     <g id="text_8">
      <!-- 2.5 -->
      <g transform="translate(20.878125 173.179916) scale(0.1 -0.1)">
       <use xlink:href="#DejaVuSans-32"/>
       <use xlink:href="#DejaVuSans-2e" transform="translate(63.623047 0)"/>
       <use xlink:href="#DejaVuSans-35" transform="translate(95.410156 0)"/>
      </g>
     </g>
    </g>
    <g id="ytick_5">
     <g id="line2d_32">
      <g>
       <use xlink:href="#mbd2f377c6c" x="43.78125" y="120.35984" style="stroke: #000000; stroke-width: 0.8"/>
      </g>
     </g>
     <g id="text_9">
      <!-- 3.0 -->
      <g transform="translate(20.878125 124.159059) scale(0.1 -0.1)">
       <use xlink:href="#DejaVuSans-33"/>
       <use xlink:href="#DejaVuSans-2e" transform="translate(63.623047 0)"/>
       <use xlink:href="#DejaVuSans-30" transform="translate(95.410156 0)"/>
      </g>
     </g>
    </g>
    <g id="ytick_6">
     <g id="line2d_33">
      <g>
       <use xlink:href="#mbd2f377c6c" x="43.78125" y="71.338982" style="stroke: #000000; stroke-width: 0.8"/>
      </g>
     </g>
     <g id="text_10">
      <!-- 3.5 -->
      <g transform="translate(20.878125 75.138201) scale(0.1 -0.1)">
       <use xlink:href="#DejaVuSans-33"/>
       <use xlink:href="#DejaVuSans-2e" transform="translate(63.623047 0)"/>
       <use xlink:href="#DejaVuSans-35" transform="translate(95.410156 0)"/>
      </g>
     </g>
    </g>
    <g id="ytick_7">
     <g id="line2d_34">
      <g>
       <use xlink:href="#mbd2f377c6c" x="43.78125" y="22.318125" style="stroke: #000000; stroke-width: 0.8"/>
      </g>
     </g>
     <g id="text_11">
      <!-- 4.0 -->
      <g transform="translate(20.878125 26.117344) scale(0.1 -0.1)">
       <defs>
        <path id="DejaVuSans-34" d="M 2419 4116 
L 825 1625 
L 2419 1625 
L 2419 4116 
z
M 2253 4666 
L 3047 4666 
L 3047 1625 
L 3713 1625 
L 3713 1100 
L 3047 1100 
L 3047 0 
L 2419 0 
L 2419 1100 
L 313 1100 
L 313 1709 
L 2253 4666 
z
" transform="scale(0.015625)"/>
       </defs>
       <use xlink:href="#DejaVuSans-34"/>
       <use xlink:href="#DejaVuSans-2e" transform="translate(63.623047 0)"/>
       <use xlink:href="#DejaVuSans-30" transform="translate(95.410156 0)"/>
      </g>
     </g>
    </g>
    <g id="text_12">
     <!-- alpha -->
     <g transform="translate(14.798438 183.240854) rotate(-90) scale(0.1 -0.1)">
      <defs>
       <path id="DejaVuSans-6c" d="M 603 4863 
L 1178 4863 
L 1178 0 
L 603 0 
L 603 4863 
z
" transform="scale(0.015625)"/>
       <path id="DejaVuSans-70" d="M 1159 525 
L 1159 -1331 
L 581 -1331 
L 581 3500 
L 1159 3500 
L 1159 2969 
Q 1341 3281 1617 3432 
Q 1894 3584 2278 3584 
Q 2916 3584 3314 3078 
Q 3713 2572 3713 1747 
Q 3713 922 3314 415 
Q 2916 -91 2278 -91 
Q 1894 -91 1617 61 
Q 1341 213 1159 525 
z
M 3116 1747 
Q 3116 2381 2855 2742 
Q 2594 3103 2138 3103 
Q 1681 3103 1420 2742 
Q 1159 2381 1159 1747 
Q 1159 1113 1420 752 
Q 1681 391 2138 391 
Q 2594 391 2855 752 
Q 3116 1113 3116 1747 
z
" transform="scale(0.015625)"/>
      </defs>
      <use xlink:href="#DejaVuSans-61"/>
      <use xlink:href="#DejaVuSans-6c" transform="translate(61.279297 0)"/>
      <use xlink:href="#DejaVuSans-70" transform="translate(89.0625 0)"/>
      <use xlink:href="#DejaVuSans-68" transform="translate(152.539062 0)"/>
      <use xlink:href="#DejaVuSans-61" transform="translate(215.917969 0)"/>
     </g>
    </g>
   </g>
   <g id="patch_3">
    <path d="M 43.78125 316.44327 
L 43.78125 22.318125 
" style="fill: none; stroke: #000000; stroke-width: 0.8; stroke-linejoin: miter; stroke-linecap: square"/>
   </g>
   <g id="patch_4">
    <path d="M 377.70552 316.44327 
L 377.70552 22.318125 
" style="fill: none; stroke: #000000; stroke-width: 0.8; stroke-linejoin: miter; stroke-linecap: square"/>
   </g>
   <g id="patch_5">
    <path d="M 43.78125 316.44327 
L 377.70552 316.44327 
" style="fill: none; stroke: #000000; stroke-width: 0.8; stroke-linejoin: miter; stroke-linecap: square"/>
   </g>
   <g id="patch_6">
    <path d="M 43.78125 22.318125 
L 377.70552 22.318125 
" style="fill: none; stroke: #000000; stroke-width: 0.8; stroke-linejoin: miter; stroke-linecap: square"/>
   </g>
   <g id="text_13">
    <!-- circulos_lo 1188 fkdc -->
    <g transform="translate(147.76401 16.318125) scale(0.12 -0.12)">
     <defs>
      <path id="DejaVuSans-63" d="M 3122 3366 
L 3122 2828 
Q 2878 2963 2633 3030 
Q 2388 3097 2138 3097 
Q 1578 3097 1268 2742 
Q 959 2388 959 1747 
Q 959 1106 1268 751 
Q 1578 397 2138 397 
Q 2388 397 2633 464 
Q 2878 531 3122 666 
L 3122 134 
Q 2881 22 2623 -34 
Q 2366 -91 2075 -91 
Q 1284 -91 818 406 
Q 353 903 353 1747 
Q 353 2603 823 3093 
Q 1294 3584 2113 3584 
Q 2378 3584 2631 3529 
Q 2884 3475 3122 3366 
z
" transform="scale(0.015625)"/>
      <path id="DejaVuSans-72" d="M 2631 2963 
Q 2534 3019 2420 3045 
Q 2306 3072 2169 3072 
Q 1681 3072 1420 2755 
Q 1159 2438 1159 1844 
L 1159 0 
L 581 0 
L 581 3500 
L 1159 3500 
L 1159 2956 
Q 1341 3275 1631 3429 
Q 1922 3584 2338 3584 
Q 2397 3584 2469 3576 
Q 2541 3569 2628 3553 
L 2631 2963 
z
" transform="scale(0.015625)"/>
      <path id="DejaVuSans-75" d="M 544 1381 
L 544 3500 
L 1119 3500 
L 1119 1403 
Q 1119 906 1312 657 
Q 1506 409 1894 409 
Q 2359 409 2629 706 
Q 2900 1003 2900 1516 
L 2900 3500 
L 3475 3500 
L 3475 0 
L 2900 0 
L 2900 538 
Q 2691 219 2414 64 
Q 2138 -91 1772 -91 
Q 1169 -91 856 284 
Q 544 659 544 1381 
z
M 1991 3584 
L 1991 3584 
z
" transform="scale(0.015625)"/>
      <path id="DejaVuSans-6f" d="M 1959 3097 
Q 1497 3097 1228 2736 
Q 959 2375 959 1747 
Q 959 1119 1226 758 
Q 1494 397 1959 397 
Q 2419 397 2687 759 
Q 2956 1122 2956 1747 
Q 2956 2369 2687 2733 
Q 2419 3097 1959 3097 
z
M 1959 3584 
Q 2709 3584 3137 3096 
Q 3566 2609 3566 1747 
Q 3566 888 3137 398 
Q 2709 -91 1959 -91 
Q 1206 -91 779 398 
Q 353 888 353 1747 
Q 353 2609 779 3096 
Q 1206 3584 1959 3584 
z
" transform="scale(0.015625)"/>
      <path id="DejaVuSans-73" d="M 2834 3397 
L 2834 2853 
Q 2591 2978 2328 3040 
Q 2066 3103 1784 3103 
Q 1356 3103 1142 2972 
Q 928 2841 928 2578 
Q 928 2378 1081 2264 
Q 1234 2150 1697 2047 
L 1894 2003 
Q 2506 1872 2764 1633 
Q 3022 1394 3022 966 
Q 3022 478 2636 193 
Q 2250 -91 1575 -91 
Q 1294 -91 989 -36 
Q 684 19 347 128 
L 347 722 
Q 666 556 975 473 
Q 1284 391 1588 391 
Q 1994 391 2212 530 
Q 2431 669 2431 922 
Q 2431 1156 2273 1281 
Q 2116 1406 1581 1522 
L 1381 1569 
Q 847 1681 609 1914 
Q 372 2147 372 2553 
Q 372 3047 722 3315 
Q 1072 3584 1716 3584 
Q 2034 3584 2315 3537 
Q 2597 3491 2834 3397 
z
" transform="scale(0.015625)"/>
      <path id="DejaVuSans-5f" d="M 3263 -1063 
L 3263 -1509 
L -63 -1509 
L -63 -1063 
L 3263 -1063 
z
" transform="scale(0.015625)"/>
      <path id="DejaVuSans-20" transform="scale(0.015625)"/>
      <path id="DejaVuSans-38" d="M 2034 2216 
Q 1584 2216 1326 1975 
Q 1069 1734 1069 1313 
Q 1069 891 1326 650 
Q 1584 409 2034 409 
Q 2484 409 2743 651 
Q 3003 894 3003 1313 
Q 3003 1734 2745 1975 
Q 2488 2216 2034 2216 
z
M 1403 2484 
Q 997 2584 770 2862 
Q 544 3141 544 3541 
Q 544 4100 942 4425 
Q 1341 4750 2034 4750 
Q 2731 4750 3128 4425 
Q 3525 4100 3525 3541 
Q 3525 3141 3298 2862 
Q 3072 2584 2669 2484 
Q 3125 2378 3379 2068 
Q 3634 1759 3634 1313 
Q 3634 634 3220 271 
Q 2806 -91 2034 -91 
Q 1263 -91 848 271 
Q 434 634 434 1313 
Q 434 1759 690 2068 
Q 947 2378 1403 2484 
z
M 1172 3481 
Q 1172 3119 1398 2916 
Q 1625 2713 2034 2713 
Q 2441 2713 2670 2916 
Q 2900 3119 2900 3481 
Q 2900 3844 2670 4047 
Q 2441 4250 2034 4250 
Q 1625 4250 1398 4047 
Q 1172 3844 1172 3481 
z
" transform="scale(0.015625)"/>
      <path id="DejaVuSans-66" d="M 2375 4863 
L 2375 4384 
L 1825 4384 
Q 1516 4384 1395 4259 
Q 1275 4134 1275 3809 
L 1275 3500 
L 2222 3500 
L 2222 3053 
L 1275 3053 
L 1275 0 
L 697 0 
L 697 3053 
L 147 3053 
L 147 3500 
L 697 3500 
L 697 3744 
Q 697 4328 969 4595 
Q 1241 4863 1831 4863 
L 2375 4863 
z
" transform="scale(0.015625)"/>
      <path id="DejaVuSans-6b" d="M 581 4863 
L 1159 4863 
L 1159 1991 
L 2875 3500 
L 3609 3500 
L 1753 1863 
L 3688 0 
L 2938 0 
L 1159 1709 
L 1159 0 
L 581 0 
L 581 4863 
z
" transform="scale(0.015625)"/>
     </defs>
     <use xlink:href="#DejaVuSans-63"/>
     <use xlink:href="#DejaVuSans-69" transform="translate(54.980469 0)"/>
     <use xlink:href="#DejaVuSans-72" transform="translate(82.763672 0)"/>
     <use xlink:href="#DejaVuSans-63" transform="translate(121.626953 0)"/>
     <use xlink:href="#DejaVuSans-75" transform="translate(176.607422 0)"/>
     <use xlink:href="#DejaVuSans-6c" transform="translate(239.986328 0)"/>
     <use xlink:href="#DejaVuSans-6f" transform="translate(267.769531 0)"/>
     <use xlink:href="#DejaVuSans-73" transform="translate(328.951172 0)"/>
     <use xlink:href="#DejaVuSans-5f" transform="translate(381.050781 0)"/>
     <use xlink:href="#DejaVuSans-6c" transform="translate(431.050781 0)"/>
     <use xlink:href="#DejaVuSans-6f" transform="translate(458.833984 0)"/>
     <use xlink:href="#DejaVuSans-20" transform="translate(520.015625 0)"/>
     <use xlink:href="#DejaVuSans-31" transform="translate(551.802734 0)"/>
     <use xlink:href="#DejaVuSans-31" transform="translate(615.425781 0)"/>
     <use xlink:href="#DejaVuSans-38" transform="translate(679.048828 0)"/>
     <use xlink:href="#DejaVuSans-38" transform="translate(742.671875 0)"/>
     <use xlink:href="#DejaVuSans-20" transform="translate(806.294922 0)"/>
     <use xlink:href="#DejaVuSans-66" transform="translate(838.082031 0)"/>
     <use xlink:href="#DejaVuSans-6b" transform="translate(873.287109 0)"/>
     <use xlink:href="#DejaVuSans-64" transform="translate(931.197266 0)"/>
     <use xlink:href="#DejaVuSans-63" transform="translate(994.673828 0)"/>
    </g>
   </g>
  </g>
  <g id="axes_2">
   <g id="patch_7">
    <path d="M 406.151733 316.44327 
L 420.857991 316.44327 
L 420.857991 22.318125 
L 406.151733 22.318125 
z
" style="fill: #ffffff"/>
   </g>
   <g id="QuadMesh_1">
    <path d="M 406.151733 316.44327 
L 420.857991 316.44327 
L 420.857991 299.141791 
L 406.151733 299.141791 
L 406.151733 316.44327 
" clip-path="url(#p0a2dfbf1b2)" style="fill: #460b5e"/>
    <path d="M 406.151733 299.141791 
L 420.857991 299.141791 
L 420.857991 281.840312 
L 406.151733 281.840312 
L 406.151733 299.141791 
" clip-path="url(#p0a2dfbf1b2)" style="fill: #482071"/>
    <path d="M 406.151733 281.840312 
L 420.857991 281.840312 
L 420.857991 264.538833 
L 406.151733 264.538833 
L 406.151733 281.840312 
" clip-path="url(#p0a2dfbf1b2)" style="fill: #46337f"/>
    <path d="M 406.151733 264.538833 
L 420.857991 264.538833 
L 420.857991 247.237354 
L 406.151733 247.237354 
L 406.151733 264.538833 
" clip-path="url(#p0a2dfbf1b2)" style="fill: #404588"/>
    <path d="M 406.151733 247.237354 
L 420.857991 247.237354 
L 420.857991 229.935874 
L 406.151733 229.935874 
L 406.151733 247.237354 
" clip-path="url(#p0a2dfbf1b2)" style="fill: #39558c"/>
    <path d="M 406.151733 229.935874 
L 420.857991 229.935874 
L 420.857991 212.634395 
L 406.151733 212.634395 
L 406.151733 229.935874 
" clip-path="url(#p0a2dfbf1b2)" style="fill: #32658e"/>
    <path d="M 406.151733 212.634395 
L 420.857991 212.634395 
L 420.857991 195.332916 
L 406.151733 195.332916 
L 406.151733 212.634395 
" clip-path="url(#p0a2dfbf1b2)" style="fill: #2c738e"/>
    <path d="M 406.151733 195.332916 
L 420.857991 195.332916 
L 420.857991 178.031437 
L 406.151733 178.031437 
L 406.151733 195.332916 
" clip-path="url(#p0a2dfbf1b2)" style="fill: #26828e"/>
    <path d="M 406.151733 178.031437 
L 420.857991 178.031437 
L 420.857991 160.729958 
L 406.151733 160.729958 
L 406.151733 178.031437 
" clip-path="url(#p0a2dfbf1b2)" style="fill: #21918c"/>
    <path d="M 406.151733 160.729958 
L 420.857991 160.729958 
L 420.857991 143.428479 
L 406.151733 143.428479 
L 406.151733 160.729958 
" clip-path="url(#p0a2dfbf1b2)" style="fill: #1f9f88"/>
    <path d="M 406.151733 143.428479 
L 420.857991 143.428479 
L 420.857991 126.127 
L 406.151733 126.127 
L 406.151733 143.428479 
" clip-path="url(#p0a2dfbf1b2)" style="fill: #26ad81"/>
    <path d="M 406.151733 126.127 
L 420.857991 126.127 
L 420.857991 108.825521 
L 406.151733 108.825521 
L 406.151733 126.127 
" clip-path="url(#p0a2dfbf1b2)" style="fill: #3aba76"/>
    <path d="M 406.151733 108.825521 
L 420.857991 108.825521 
L 420.857991 91.524041 
L 406.151733 91.524041 
L 406.151733 108.825521 
" clip-path="url(#p0a2dfbf1b2)" style="fill: #56c667"/>
    <path d="M 406.151733 91.524041 
L 420.857991 91.524041 
L 420.857991 74.222562 
L 406.151733 74.222562 
L 406.151733 91.524041 
" clip-path="url(#p0a2dfbf1b2)" style="fill: #77d153"/>
    <path d="M 406.151733 74.222562 
L 420.857991 74.222562 
L 420.857991 56.921083 
L 406.151733 56.921083 
L 406.151733 74.222562 
" clip-path="url(#p0a2dfbf1b2)" style="fill: #9dd93b"/>
    <path d="M 406.151733 56.921083 
L 420.857991 56.921083 
L 420.857991 39.619604 
L 406.151733 39.619604 
L 406.151733 56.921083 
" clip-path="url(#p0a2dfbf1b2)" style="fill: #c5e021"/>
    <path d="M 406.151733 39.619604 
L 420.857991 39.619604 
L 420.857991 22.318125 
L 406.151733 22.318125 
L 406.151733 39.619604 
" clip-path="url(#p0a2dfbf1b2)" style="fill: #ece51b"/>
   </g>
   <g id="matplotlib.axis_3"/>
   <g id="matplotlib.axis_4">
    <g id="ytick_8">
     <g id="line2d_35">
      <defs>
       <path id="m0a27ea52cb" d="M 0 0 
L 3.5 0 
" style="stroke: #000000; stroke-width: 0.8"/>
      </defs>
      <g>
       <use xlink:href="#m0a27ea52cb" x="420.857991" y="299.141791" style="stroke: #000000; stroke-width: 0.8"/>
      </g>
     </g>
     <g id="text_14">
      <!-- -6.4 -->
      <g transform="translate(427.857991 302.94101) scale(0.1 -0.1)">
       <defs>
        <path id="DejaVuSans-2d" d="M 313 2009 
L 1997 2009 
L 1997 1497 
L 313 1497 
L 313 2009 
z
" transform="scale(0.015625)"/>
        <path id="DejaVuSans-36" d="M 2113 2584 
Q 1688 2584 1439 2293 
Q 1191 2003 1191 1497 
Q 1191 994 1439 701 
Q 1688 409 2113 409 
Q 2538 409 2786 701 
Q 3034 994 3034 1497 
Q 3034 2003 2786 2293 
Q 2538 2584 2113 2584 
z
M 3366 4563 
L 3366 3988 
Q 3128 4100 2886 4159 
Q 2644 4219 2406 4219 
Q 1781 4219 1451 3797 
Q 1122 3375 1075 2522 
Q 1259 2794 1537 2939 
Q 1816 3084 2150 3084 
Q 2853 3084 3261 2657 
Q 3669 2231 3669 1497 
Q 3669 778 3244 343 
Q 2819 -91 2113 -91 
Q 1303 -91 875 529 
Q 447 1150 447 2328 
Q 447 3434 972 4092 
Q 1497 4750 2381 4750 
Q 2619 4750 2861 4703 
Q 3103 4656 3366 4563 
z
" transform="scale(0.015625)"/>
       </defs>
       <use xlink:href="#DejaVuSans-2d"/>
       <use xlink:href="#DejaVuSans-36" transform="translate(36.083984 0)"/>
       <use xlink:href="#DejaVuSans-2e" transform="translate(99.707031 0)"/>
       <use xlink:href="#DejaVuSans-34" transform="translate(131.494141 0)"/>
      </g>
     </g>
    </g>
    <g id="ytick_9">
     <g id="line2d_36">
      <g>
       <use xlink:href="#m0a27ea52cb" x="420.857991" y="264.538833" style="stroke: #000000; stroke-width: 0.8"/>
      </g>
     </g>
     <g id="text_15">
      <!-- -5.6 -->
      <g transform="translate(427.857991 268.338051) scale(0.1 -0.1)">
       <use xlink:href="#DejaVuSans-2d"/>
       <use xlink:href="#DejaVuSans-35" transform="translate(36.083984 0)"/>
       <use xlink:href="#DejaVuSans-2e" transform="translate(99.707031 0)"/>
       <use xlink:href="#DejaVuSans-36" transform="translate(131.494141 0)"/>
      </g>
     </g>
    </g>
    <g id="ytick_10">
     <g id="line2d_37">
      <g>
       <use xlink:href="#m0a27ea52cb" x="420.857991" y="229.935874" style="stroke: #000000; stroke-width: 0.8"/>
      </g>
     </g>
     <g id="text_16">
      <!-- -4.8 -->
      <g transform="translate(427.857991 233.735093) scale(0.1 -0.1)">
       <use xlink:href="#DejaVuSans-2d"/>
       <use xlink:href="#DejaVuSans-34" transform="translate(36.083984 0)"/>
       <use xlink:href="#DejaVuSans-2e" transform="translate(99.707031 0)"/>
       <use xlink:href="#DejaVuSans-38" transform="translate(131.494141 0)"/>
      </g>
     </g>
    </g>
    <g id="ytick_11">
     <g id="line2d_38">
      <g>
       <use xlink:href="#m0a27ea52cb" x="420.857991" y="195.332916" style="stroke: #000000; stroke-width: 0.8"/>
      </g>
     </g>
     <g id="text_17">
      <!-- -4.0 -->
      <g transform="translate(427.857991 199.132135) scale(0.1 -0.1)">
       <use xlink:href="#DejaVuSans-2d"/>
       <use xlink:href="#DejaVuSans-34" transform="translate(36.083984 0)"/>
       <use xlink:href="#DejaVuSans-2e" transform="translate(99.707031 0)"/>
       <use xlink:href="#DejaVuSans-30" transform="translate(131.494141 0)"/>
      </g>
     </g>
    </g>
    <g id="ytick_12">
     <g id="line2d_39">
      <g>
       <use xlink:href="#m0a27ea52cb" x="420.857991" y="160.729958" style="stroke: #000000; stroke-width: 0.8"/>
      </g>
     </g>
     <g id="text_18">
      <!-- -3.2 -->
      <g transform="translate(427.857991 164.529177) scale(0.1 -0.1)">
       <use xlink:href="#DejaVuSans-2d"/>
       <use xlink:href="#DejaVuSans-33" transform="translate(36.083984 0)"/>
       <use xlink:href="#DejaVuSans-2e" transform="translate(99.707031 0)"/>
       <use xlink:href="#DejaVuSans-32" transform="translate(131.494141 0)"/>
      </g>
     </g>
    </g>
    <g id="ytick_13">
     <g id="line2d_40">
      <g>
       <use xlink:href="#m0a27ea52cb" x="420.857991" y="126.127" style="stroke: #000000; stroke-width: 0.8"/>
      </g>
     </g>
     <g id="text_19">
      <!-- -2.4 -->
      <g transform="translate(427.857991 129.926218) scale(0.1 -0.1)">
       <use xlink:href="#DejaVuSans-2d"/>
       <use xlink:href="#DejaVuSans-32" transform="translate(36.083984 0)"/>
       <use xlink:href="#DejaVuSans-2e" transform="translate(99.707031 0)"/>
       <use xlink:href="#DejaVuSans-34" transform="translate(131.494141 0)"/>
      </g>
     </g>
    </g>
    <g id="ytick_14">
     <g id="line2d_41">
      <g>
       <use xlink:href="#m0a27ea52cb" x="420.857991" y="91.524041" style="stroke: #000000; stroke-width: 0.8"/>
      </g>
     </g>
     <g id="text_20">
      <!-- -1.6 -->
      <g transform="translate(427.857991 95.32326) scale(0.1 -0.1)">
       <use xlink:href="#DejaVuSans-2d"/>
       <use xlink:href="#DejaVuSans-31" transform="translate(36.083984 0)"/>
       <use xlink:href="#DejaVuSans-2e" transform="translate(99.707031 0)"/>
       <use xlink:href="#DejaVuSans-36" transform="translate(131.494141 0)"/>
      </g>
     </g>
    </g>
    <g id="ytick_15">
     <g id="line2d_42">
      <g>
       <use xlink:href="#m0a27ea52cb" x="420.857991" y="56.921083" style="stroke: #000000; stroke-width: 0.8"/>
      </g>
     </g>
     <g id="text_21">
      <!-- -0.8 -->
      <g transform="translate(427.857991 60.720302) scale(0.1 -0.1)">
       <use xlink:href="#DejaVuSans-2d"/>
       <use xlink:href="#DejaVuSans-30" transform="translate(36.083984 0)"/>
       <use xlink:href="#DejaVuSans-2e" transform="translate(99.707031 0)"/>
       <use xlink:href="#DejaVuSans-38" transform="translate(131.494141 0)"/>
      </g>
     </g>
    </g>
    <g id="ytick_16">
     <g id="line2d_43">
      <g>
       <use xlink:href="#m0a27ea52cb" x="420.857991" y="22.318125" style="stroke: #000000; stroke-width: 0.8"/>
      </g>
     </g>
     <g id="text_22">
      <!-- 0.0 -->
      <g transform="translate(427.857991 26.117344) scale(0.1 -0.1)">
       <use xlink:href="#DejaVuSans-30"/>
       <use xlink:href="#DejaVuSans-2e" transform="translate(63.623047 0)"/>
       <use xlink:href="#DejaVuSans-30" transform="translate(95.410156 0)"/>
      </g>
     </g>
    </g>
    <g id="text_23">
     <!-- Score -->
     <g transform="translate(458.967366 183.383041) rotate(-90) scale(0.1 -0.1)">
      <defs>
       <path id="DejaVuSans-53" d="M 3425 4513 
L 3425 3897 
Q 3066 4069 2747 4153 
Q 2428 4238 2131 4238 
Q 1616 4238 1336 4038 
Q 1056 3838 1056 3469 
Q 1056 3159 1242 3001 
Q 1428 2844 1947 2747 
L 2328 2669 
Q 3034 2534 3370 2195 
Q 3706 1856 3706 1288 
Q 3706 609 3251 259 
Q 2797 -91 1919 -91 
Q 1588 -91 1214 -16 
Q 841 59 441 206 
L 441 856 
Q 825 641 1194 531 
Q 1563 422 1919 422 
Q 2459 422 2753 634 
Q 3047 847 3047 1241 
Q 3047 1584 2836 1778 
Q 2625 1972 2144 2069 
L 1759 2144 
Q 1053 2284 737 2584 
Q 422 2884 422 3419 
Q 422 4038 858 4394 
Q 1294 4750 2059 4750 
Q 2388 4750 2728 4690 
Q 3069 4631 3425 4513 
z
" transform="scale(0.015625)"/>
       <path id="DejaVuSans-65" d="M 3597 1894 
L 3597 1613 
L 953 1613 
Q 991 1019 1311 708 
Q 1631 397 2203 397 
Q 2534 397 2845 478 
Q 3156 559 3463 722 
L 3463 178 
Q 3153 47 2828 -22 
Q 2503 -91 2169 -91 
Q 1331 -91 842 396 
Q 353 884 353 1716 
Q 353 2575 817 3079 
Q 1281 3584 2069 3584 
Q 2775 3584 3186 3129 
Q 3597 2675 3597 1894 
z
M 3022 2063 
Q 3016 2534 2758 2815 
Q 2500 3097 2075 3097 
Q 1594 3097 1305 2825 
Q 1016 2553 972 2059 
L 3022 2063 
z
" transform="scale(0.015625)"/>
      </defs>
      <use xlink:href="#DejaVuSans-53"/>
      <use xlink:href="#DejaVuSans-63" transform="translate(63.476562 0)"/>
      <use xlink:href="#DejaVuSans-6f" transform="translate(118.457031 0)"/>
      <use xlink:href="#DejaVuSans-72" transform="translate(179.638672 0)"/>
      <use xlink:href="#DejaVuSans-65" transform="translate(218.501953 0)"/>
     </g>
    </g>
   </g>
   <g id="LineCollection_1"/>
   <g id="patch_8">
    <path d="M 406.151733 316.44327 
L 413.504862 316.44327 
L 420.857991 316.44327 
L 420.857991 22.318125 
L 413.504862 22.318125 
L 406.151733 22.318125 
L 406.151733 316.44327 
z
" style="fill: none; stroke: #000000; stroke-width: 0.8; stroke-linejoin: miter; stroke-linecap: square"/>
   </g>
  </g>
 </g>
 <defs>
  <clipPath id="p0a7174c9c2">
   <rect x="43.78125" y="22.318125" width="333.92427" height="294.125145"/>
  </clipPath>
  <clipPath id="p0a2dfbf1b2">
   <rect x="406.151733" y="22.318125" width="14.706257" height="294.125145"/>
  </clipPath>
 </defs>
</svg>
