<?xml version="1.0" encoding="utf-8" standalone="no"?>
<!DOCTYPE svg PUBLIC "-//W3C//DTD SVG 1.1//EN"
  "http://www.w3.org/Graphics/SVG/1.1/DTD/svg11.dtd">
<svg xmlns:xlink="http://www.w3.org/1999/xlink" width="468.218756pt" height="353.99952pt" viewBox="0 0 468.218756 353.99952" xmlns="http://www.w3.org/2000/svg" version="1.1">
 <metadata>
  <rdf:RDF xmlns:dc="http://purl.org/dc/elements/1.1/" xmlns:cc="http://creativecommons.org/ns#" xmlns:rdf="http://www.w3.org/1999/02/22-rdf-syntax-ns#">
   <cc:Work>
    <dc:type rdf:resource="http://purl.org/dc/dcmitype/StillImage"/>
    <dc:date>1970-01-01T00:00:00+00:00</dc:date>
    <dc:format>image/svg+xml</dc:format>
    <dc:creator>
     <cc:Agent>
      <dc:title>Matplotlib v3.10.7, https://matplotlib.org/</dc:title>
     </cc:Agent>
    </dc:creator>
   </cc:Work>
  </rdf:RDF>
 </metadata>
 <defs>
  <style type="text/css">*{stroke-linejoin: round; stroke-linecap: butt}</style>
 </defs>
 <g id="figure_1">
  <g id="patch_1">
   <path d="M 0 353.99952 
L 468.218756 353.99952 
L 468.218756 0 
L 0 0 
z
" style="fill: #ffffff"/>
  </g>
  <g id="axes_1">
   <g id="patch_2">
    <path d="M 43.78125 316.44327 
L 377.139575 316.44327 
L 377.139575 10.999219 
L 43.78125 10.999219 
z
" style="fill: #ffffff"/>
   </g>
   <g id="QuadContourSet_1">
    <path d="M 165.002459 297.268389 
L 174.012943 290.989599 
L 165.002459 285.952875 
L 154.051258 290.989599 
z
M 195.307761 316.44327 
L 207.366437 316.44327 
L 195.307761 309.609612 
L 188.535213 316.44327 
z
M 134.697157 272.341724 
L 138.906988 265.535928 
L 134.697157 263.214899 
L 127.402961 265.535928 
z
M 43.78125 215.28985 
L 49.225937 214.628586 
L 43.78125 212.509654 
L 43.158179 214.628586 
z
" clip-path="url(#pca30bcc2e4)" style="fill: #470e61"/>
    <path d="M 134.697157 292.340831 
L 165.002459 309.827768 
L 174.356993 316.44327 
L 188.535213 316.44327 
L 195.307761 309.609612 
L 207.366437 316.44327 
L 223.245833 316.44327 
L 195.307761 297.857399 
L 188.415663 290.989599 
L 165.002459 275.877984 
L 153.387726 265.535928 
L 134.697157 253.652828 
L 118.261559 240.082257 
L 104.391854 231.588598 
L 82.127846 214.628586 
L 74.086552 209.948789 
L 45.0881 189.174915 
L 43.78125 188.448638 
L 13.475948 172.184607 
L 4.677819 189.174915 
L 13.475948 196.752361 
L 35.145026 214.628586 
L 43.78125 223.131999 
L 66.758569 240.082257 
L 74.086552 246.088939 
L 101.433077 265.535928 
L 104.391854 267.958125 
L 132.890162 290.989599 
z
M 154.051258 290.989599 
L 165.002459 285.952875 
L 174.012943 290.989599 
L 165.002459 297.268389 
z
M 127.402961 265.535928 
L 134.697157 263.214899 
L 138.906988 265.535928 
L 134.697157 272.341724 
z
M 43.158179 214.628586 
L 43.78125 212.509654 
L 49.225937 214.628586 
L 43.78125 215.28985 
z
M -16.829354 170.148234 
L 2.089691 163.721244 
L -16.829354 154.237208 
L -34.513855 163.721244 
z
M -47.134657 148.837616 
L -40.095888 138.267573 
L -47.134657 134.854894 
L -69.297546 138.267573 
z
" clip-path="url(#pca30bcc2e4)" style="fill: #482677"/>
    <path d="M 134.697157 296.375421 
L 162.961583 316.44327 
L 165.002459 316.44327 
L 174.356993 316.44327 
L 165.002459 309.827768 
L 134.697157 292.340831 
L 132.890162 290.989599 
L 104.391854 267.958125 
L 101.433077 265.535928 
L 74.086552 246.088939 
L 66.758569 240.082257 
L 43.78125 223.131999 
L 35.145026 214.628586 
L 13.475948 196.752361 
L 4.677819 189.174915 
L 13.475948 172.184607 
L 43.78125 188.448638 
L 45.0881 189.174915 
L 74.086552 209.948789 
L 82.127846 214.628586 
L 104.391854 231.588598 
L 118.261559 240.082257 
L 134.697157 253.652828 
L 153.387726 265.535928 
L 165.002459 275.877984 
L 188.415663 290.989599 
L 195.307761 297.857399 
L 223.245833 316.44327 
L 225.613063 316.44327 
L 233.726701 316.44327 
L 225.613063 310.961397 
L 200.0716 290.989599 
L 195.307761 287.946066 
L 165.002459 265.803093 
L 164.732518 265.535928 
L 134.697157 244.090758 
L 130.352693 240.082257 
L 104.391854 222.120256 
L 95.691273 214.628586 
L 74.086552 200.240077 
L 60.627507 189.174915 
L 43.78125 178.277695 
L 23.976763 163.721244 
L 13.475948 157.339155 
L -14.849859 138.267573 
L -16.829354 137.161892 
L -47.134657 118.244132 
L -54.135667 112.813902 
L -77.439959 98.591127 
L -88.307218 87.360232 
L -107.745261 75.162283 
L -107.745261 87.360232 
L -107.745261 112.813902 
L -107.745261 124.59537 
L -88.990778 138.267573 
L -77.439959 148.620832 
L -55.630314 163.721244 
L -47.134657 168.81864 
L -16.829354 182.01038 
L -7.671111 189.174915 
L 13.475948 205.46253 
L 25.689352 214.628586 
L 43.78125 230.974149 
L 57.351626 240.082257 
L 74.086552 252.670053 
L 93.669655 265.535928 
L 104.391854 273.702738 
L 127.093314 290.989599 
z
M -34.513855 163.721244 
L -16.829354 154.237208 
L 2.089691 163.721244 
L -16.829354 170.148234 
z
M -69.297546 138.267573 
L -47.134657 134.854894 
L -40.095888 138.267573 
L -47.134657 148.837616 
z
" clip-path="url(#pca30bcc2e4)" style="fill: #433d84"/>
    <path d="M 134.697157 300.410011 
L 158.370012 316.44327 
L 162.961583 316.44327 
L 134.697157 296.375421 
L 127.093314 290.989599 
L 104.391854 273.702738 
L 93.669655 265.535928 
L 74.086552 252.670053 
L 57.351626 240.082257 
L 43.78125 230.974149 
L 25.689352 214.628586 
L 13.475948 205.46253 
L -7.671111 189.174915 
L -16.829354 182.01038 
L -47.134657 168.81864 
L -55.630314 163.721244 
L -77.439959 148.620832 
L -88.990778 138.267573 
L -107.745261 124.59537 
L -107.745261 136.454762 
L -104.8397 138.267573 
L -77.439959 159.591084 
L -70.524073 163.721244 
L -47.134657 175.990929 
L -21.080507 189.174915 
L -16.829354 193.555713 
L 13.475948 214.1727 
L 14.155239 214.628586 
L 43.78125 238.816299 
L 45.89003 240.082257 
L 74.086552 259.251167 
L 84.560018 265.535928 
L 104.391854 279.447351 
L 120.578276 290.989599 
z
M 225.613063 310.961397 
L 233.726701 316.44327 
L 242.148102 316.44327 
L 225.613063 304.303565 
L 210.026886 290.989599 
L 195.307761 280.623129 
L 176.738956 265.535928 
L 165.002459 257.69616 
L 142.660581 240.082257 
L 134.697157 234.961941 
L 107.687423 214.628586 
L 104.391854 212.626351 
L 74.086552 190.531364 
L 72.610156 189.174915 
L 43.78125 168.106753 
L 38.557699 163.721244 
L 13.475948 146.076333 
L 3.642715 138.267573 
L -16.829354 124.551786 
L -32.255689 112.813902 
L -47.134657 103.34986 
L -68.570553 87.360232 
L -77.439959 82.007259 
L -106.266314 61.906561 
L -107.745261 61.065662 
L -107.745261 61.906561 
L -107.745261 75.162283 
L -88.307218 87.360232 
L -77.439959 98.591127 
L -54.135667 112.813902 
L -47.134657 118.244132 
L -16.829354 137.161892 
L -14.849859 138.267573 
L 13.475948 157.339155 
L 23.976763 163.721244 
L 43.78125 178.277695 
L 60.627507 189.174915 
L 74.086552 200.240077 
L 95.691273 214.628586 
L 104.391854 222.120256 
L 130.352693 240.082257 
L 134.697157 244.090758 
L 164.732518 265.535928 
L 165.002459 265.803093 
L 195.307761 287.946066 
L 200.0716 290.989599 
z
" clip-path="url(#pca30bcc2e4)" style="fill: #3b528b"/>
    <path d="M 134.697157 304.444601 
L 153.339382 316.44327 
L 158.370012 316.44327 
L 134.697157 300.410011 
L 120.578276 290.989599 
L 104.391854 279.447351 
L 84.560018 265.535928 
L 74.086552 259.251167 
L 45.89003 240.082257 
L 43.78125 238.816299 
L 14.155239 214.628586 
L 13.475948 214.1727 
L -16.829354 193.555713 
L -21.080507 189.174915 
L -47.134657 175.990929 
L -70.524073 163.721244 
L -77.439959 159.591084 
L -104.8397 138.267573 
L -107.745261 136.454762 
L -107.745261 138.267573 
L -107.745261 145.984113 
L -83.347756 163.721244 
L -77.439959 168.132876 
L -47.134657 183.163218 
L -33.648108 189.174915 
L -16.829354 204.61786 
L 0.133408 214.628586 
L 13.475948 222.435292 
L 36.864024 240.082257 
L 43.78125 245.23596 
L 73.775743 265.535928 
L 74.086552 265.785563 
L 104.391854 285.191964 
L 113.141589 290.989599 
z
M 225.613063 304.303565 
L 242.148102 316.44327 
L 249.406317 316.44327 
L 225.613063 297.645732 
L 218.39567 290.989599 
L 195.307761 273.300192 
L 186.568339 265.535928 
L 165.002459 249.642834 
L 154.057568 240.082257 
L 134.697157 226.145841 
L 121.120144 214.628586 
L 104.391854 203.035564 
L 87.50919 189.174915 
L 74.086552 180.149659 
L 53.702305 163.721244 
L 43.78125 157.29989 
L 19.432031 138.267573 
L 13.475948 134.563939 
L -15.335362 112.813902 
L -16.829354 111.91991 
L -47.134657 89.289262 
L -49.303035 87.360232 
L -77.439959 66.749526 
L -83.079664 61.906561 
L -107.745261 44.267668 
L -107.745261 61.065662 
L -106.266314 61.906561 
L -77.439959 82.007259 
L -68.570553 87.360232 
L -47.134657 103.34986 
L -32.255689 112.813902 
L -16.829354 124.551786 
L 3.642715 138.267573 
L 13.475948 146.076333 
L 38.557699 163.721244 
L 43.78125 168.106753 
L 72.610156 189.174915 
L 74.086552 190.531364 
L 104.391854 212.626351 
L 107.687423 214.628586 
L 134.697157 234.961941 
L 142.660581 240.082257 
L 165.002459 257.69616 
L 176.738956 265.535928 
L 195.307761 280.623129 
L 210.026886 290.989599 
z
" clip-path="url(#pca30bcc2e4)" style="fill: #32658e"/>
    <path d="M 134.697157 308.479191 
L 147.776762 316.44327 
L 153.339382 316.44327 
L 134.697157 304.444601 
L 113.141589 290.989599 
L 104.391854 285.191964 
L 74.086552 265.785563 
L 73.775743 265.535928 
L 43.78125 245.23596 
L 36.864024 240.082257 
L 13.475948 222.435292 
L 0.133408 214.628586 
L -16.829354 204.61786 
L -33.648108 189.174915 
L -47.134657 183.163218 
L -77.439959 168.132876 
L -83.347756 163.721244 
L -107.745261 145.984113 
L -107.745261 155.093029 
L -94.471483 163.721244 
L -77.439959 175.208323 
L -48.909942 189.174915 
L -47.134657 190.538267 
L -17.575894 214.628586 
L -16.829354 215.318956 
L 13.475948 230.673165 
L 27.21635 240.082257 
L 43.78125 251.381783 
L 66.353756 265.535928 
L 74.086552 271.329218 
L 104.391854 290.936578 
L 104.478836 290.989599 
z
M 225.613063 297.645732 
L 249.406317 316.44327 
L 255.78402 316.44327 
L 225.615847 290.989599 
L 225.613063 290.987738 
L 195.307761 265.977255 
L 194.848047 265.535928 
L 165.002459 241.589508 
L 163.421002 240.082257 
L 134.697157 217.32974 
L 131.812798 214.628586 
L 104.391854 193.444777 
L 99.743192 189.174915 
L 74.086552 169.658657 
L 67.593742 163.721244 
L 43.78125 146.010983 
L 35.184523 138.267573 
L 13.475948 122.487325 
L 2.547775 112.813902 
L -16.829354 98.995061 
L -30.144484 87.360232 
L -47.134657 75.500614 
L -62.911233 61.906561 
L -77.439959 51.983129 
L -95.593391 36.45289 
L -107.745261 28.3445 
L -107.745261 36.45289 
L -107.745261 44.267668 
L -83.079664 61.906561 
L -77.439959 66.749526 
L -49.303035 87.360232 
L -47.134657 89.289262 
L -16.829354 111.91991 
L -15.335362 112.813902 
L 13.475948 134.563939 
L 19.432031 138.267573 
L 43.78125 157.29989 
L 53.702305 163.721244 
L 74.086552 180.149659 
L 87.50919 189.174915 
L 104.391854 203.035564 
L 121.120144 214.628586 
L 134.697157 226.145841 
L 154.057568 240.082257 
L 165.002459 249.642834 
L 186.568339 265.535928 
L 195.307761 273.300192 
L 218.39567 290.989599 
z
" clip-path="url(#pca30bcc2e4)" style="fill: #2a768e"/>
    <path d="M 104.391854 296.884444 
L 134.697157 312.513781 
L 141.556182 316.44327 
L 147.776762 316.44327 
L 134.697157 308.479191 
L 104.478836 290.989599 
L 104.391854 290.936578 
L 74.086552 271.329218 
L 66.353756 265.535928 
L 43.78125 251.381783 
L 27.21635 240.082257 
L 13.475948 230.673165 
L -16.829354 215.318956 
L -17.575894 214.628586 
L -47.134657 190.538267 
L -48.909942 189.174915 
L -77.439959 175.208323 
L -94.471483 163.721244 
L -107.745261 155.093029 
L -107.745261 163.721244 
L -107.745261 164.277915 
L -77.439959 182.283771 
L -61.449593 189.174915 
L -47.134657 198.963579 
L -26.147757 214.628586 
L -16.829354 222.582431 
L 13.475948 238.911037 
L 15.394873 240.082257 
L 43.78125 257.527607 
L 57.710957 265.535928 
L 74.086552 276.872872 
L 97.506983 290.989599 
z
M 255.918366 316.44327 
L 264.892394 316.44327 
L 255.918366 309.783067 
L 235.522392 290.989599 
L 225.613063 283.699809 
L 205.477858 265.535928 
L 195.307761 258.16947 
L 174.721333 240.082257 
L 165.002459 233.100342 
L 143.846376 214.628586 
L 134.697157 208.146102 
L 112.524814 189.174915 
L 104.391854 183.538071 
L 81.061705 163.721244 
L 74.086552 158.920889 
L 49.372327 138.267573 
L 43.78125 134.517281 
L 17.37147 112.813902 
L 13.475948 110.238713 
L -14.684105 87.360232 
L -16.829354 85.95796 
L -46.873445 61.906561 
L -47.134657 61.740797 
L -77.439959 37.445208 
L -78.430295 36.45289 
L -107.745261 13.182372 
L -107.745261 28.3445 
L -95.593391 36.45289 
L -77.439959 51.983129 
L -62.911233 61.906561 
L -47.134657 75.500614 
L -30.144484 87.360232 
L -16.829354 98.995061 
L 2.547775 112.813902 
L 13.475948 122.487325 
L 35.184523 138.267573 
L 43.78125 146.010983 
L 67.593742 163.721244 
L 74.086552 169.658657 
L 99.743192 189.174915 
L 104.391854 193.444777 
L 131.812798 214.628586 
L 134.697157 217.32974 
L 163.421002 240.082257 
L 165.002459 241.589508 
L 194.848047 265.535928 
L 195.307761 265.977255 
L 225.613063 290.987738 
L 225.615847 290.989599 
L 255.78402 316.44327 
z
" clip-path="url(#pca30bcc2e4)" style="fill: #24878e"/>
    <path d="M 104.391854 302.834204 
L 134.437063 316.44327 
L 134.697157 316.44327 
L 141.556182 316.44327 
L 134.697157 312.513781 
L 104.391854 296.884444 
L 97.506983 290.989599 
L 74.086552 276.872872 
L 57.710957 265.535928 
L 43.78125 257.527607 
L 15.394873 240.082257 
L 13.475948 238.911037 
L -16.829354 222.582431 
L -26.147757 214.628586 
L -47.134657 198.963579 
L -61.449593 189.174915 
L -77.439959 182.283771 
L -107.745261 164.277915 
L -107.745261 174.826391 
L -77.874684 189.174915 
L -77.439959 189.511282 
L -47.134657 207.388891 
L -36.392016 214.628586 
L -16.829354 229.845906 
L 3.944843 240.082257 
L 13.475948 247.982181 
L 43.78125 263.67343 
L 47.365118 265.535928 
L 74.086552 282.416526 
L 89.504593 290.989599 
z
M 255.918366 309.783067 
L 264.892394 316.44327 
L 272.720324 316.44327 
L 255.918366 302.970291 
L 243.856735 290.989599 
L 225.613063 276.411879 
L 214.499854 265.535928 
L 195.307761 250.330591 
L 184.64276 240.082257 
L 165.002459 224.510822 
L 154.744461 214.628586 
L 134.697157 198.800112 
L 124.608691 189.174915 
L 104.391854 173.377851 
L 94.299584 163.721244 
L 74.086552 147.861364 
L 64.020798 138.267573 
L 43.78125 122.576302 
L 33.497979 112.813902 
L 13.475948 97.297764 
L 3.032003 87.360232 
L -16.829354 71.908432 
L -27.330833 61.906561 
L -47.134657 46.68674 
L -57.879661 36.45289 
L -77.439959 21.376312 
L -88.368129 10.999219 
L -107.745261 10.999219 
L -107.745261 13.182372 
L -78.430295 36.45289 
L -77.439959 37.445208 
L -47.134657 61.740797 
L -46.873445 61.906561 
L -16.829354 85.95796 
L -14.684105 87.360232 
L 13.475948 110.238713 
L 17.37147 112.813902 
L 43.78125 134.517281 
L 49.372327 138.267573 
L 74.086552 158.920889 
L 81.061705 163.721244 
L 104.391854 183.538071 
L 112.524814 189.174915 
L 134.697157 208.146102 
L 143.846376 214.628586 
L 165.002459 233.100342 
L 174.721333 240.082257 
L 195.307761 258.16947 
L 205.477858 265.535928 
L 225.613063 283.699809 
L 235.522392 290.989599 
z
" clip-path="url(#pca30bcc2e4)" style="fill: #1f998a"/>
    <path d="M 104.391854 308.783963 
L 123.335527 316.44327 
L 134.437063 316.44327 
L 104.391854 302.834204 
L 89.504593 290.989599 
L 74.086552 282.416526 
L 47.365118 265.535928 
L 43.78125 263.67343 
L 13.475948 247.982181 
L 3.944843 240.082257 
L -16.829354 229.845906 
L -36.392016 214.628586 
L -47.134657 207.388891 
L -77.439959 189.511282 
L -77.874684 189.174915 
L -107.745261 174.826391 
L -107.745261 185.374868 
L -98.048384 189.174915 
L -77.439959 202.424472 
L -50.20878 214.628586 
L -47.134657 217.136803 
L -16.829354 237.10938 
L -9.907927 240.082257 
L 13.475948 257.191432 
L 32.669585 265.535928 
L 43.78125 274.716682 
L 74.086552 287.96018 
L 80.063914 290.989599 
z
M 255.918366 302.970291 
L 272.720324 316.44327 
L 279.533562 316.44327 
L 255.918366 296.157514 
L 251.050223 290.989599 
L 225.613063 269.12395 
L 222.199576 265.535928 
L 195.307761 242.491712 
L 192.987624 240.082257 
L 165.002459 215.921302 
L 163.768887 214.628586 
L 134.697157 189.454121 
L 134.430168 189.174915 
L 105.390586 163.721244 
L 104.391854 163.027197 
L 76.868535 138.267573 
L 74.086552 136.310914 
L 47.834985 112.813902 
L 43.78125 110.013666 
L 18.768173 87.360232 
L 13.475948 83.634102 
L -10.08844 61.906561 
L -16.829354 57.057517 
L -39.259374 36.45289 
L -47.134657 30.727087 
L -68.239704 10.999219 
L -77.439959 10.999219 
L -88.368129 10.999219 
L -77.439959 21.376312 
L -57.879661 36.45289 
L -47.134657 46.68674 
L -27.330833 61.906561 
L -16.829354 71.908432 
L 3.032003 87.360232 
L 13.475948 97.297764 
L 33.497979 112.813902 
L 43.78125 122.576302 
L 64.020798 138.267573 
L 74.086552 147.861364 
L 94.299584 163.721244 
L 104.391854 173.377851 
L 124.608691 189.174915 
L 134.697157 198.800112 
L 154.744461 214.628586 
L 165.002459 224.510822 
L 184.64276 240.082257 
L 195.307761 250.330591 
L 214.499854 265.535928 
L 225.613063 276.411879 
L 243.856735 290.989599 
z
" clip-path="url(#pca30bcc2e4)" style="fill: #24aa83"/>
    <path d="M 74.086552 302.045938 
L 104.391854 314.733723 
L 109.24968 316.44327 
L 123.335527 316.44327 
L 104.391854 308.783963 
L 80.063914 290.989599 
L 74.086552 287.96018 
L 43.78125 274.716682 
L 32.669585 265.535928 
L 13.475948 257.191432 
L -9.907927 240.082257 
L -16.829354 237.10938 
L -47.134657 217.136803 
L -50.20878 214.628586 
L -77.439959 202.424472 
L -98.048384 189.174915 
L -107.745261 185.374868 
L -107.745261 189.174915 
L -107.745261 207.333733 
L -81.660944 214.628586 
L -77.439959 216.683553 
L -47.134657 234.960863 
L -35.190163 240.082257 
L -16.829354 252.188873 
L 10.489233 265.535928 
L 13.475948 269.118478 
L 43.78125 287.88946 
L 56.193682 290.989599 
z
M 255.918366 296.157514 
L 279.533562 316.44327 
L 285.565235 316.44327 
L 259.695338 290.989599 
L 255.918366 288.278226 
L 233.244853 265.535928 
L 225.613063 259.762914 
L 205.881789 240.082257 
L 195.307761 231.834223 
L 178.333334 214.628586 
L 165.002459 204.005951 
L 150.503017 189.174915 
L 134.697157 176.412433 
L 122.313365 163.721244 
L 104.391854 149.025047 
L 94.143285 138.267573 
L 74.086552 121.547169 
L 65.781644 112.813902 
L 43.78125 94.665329 
L 36.934241 87.360232 
L 13.475948 67.579169 
L 8.266872 61.906561 
L -16.829354 40.226352 
L -20.285116 36.45289 
L -47.134657 12.844749 
L -48.786911 10.999219 
L -68.239704 10.999219 
L -47.134657 30.727087 
L -39.259374 36.45289 
L -16.829354 57.057517 
L -10.08844 61.906561 
L 13.475948 83.634102 
L 18.768173 87.360232 
L 43.78125 110.013666 
L 47.834985 112.813902 
L 74.086552 136.310914 
L 76.868535 138.267573 
L 104.391854 163.027197 
L 105.390586 163.721244 
L 134.430168 189.174915 
L 134.697157 189.454121 
L 163.768887 214.628586 
L 165.002459 215.921302 
L 192.987624 240.082257 
L 195.307761 242.491712 
L 222.199576 265.535928 
L 225.613063 269.12395 
L 251.050223 290.989599 
z
" clip-path="url(#pca30bcc2e4)" style="fill: #3aba76"/>
    <path d="M 13.475948 299.605919 
L 43.78125 303.099398 
L 65.955065 316.44327 
L 74.086552 316.44327 
L 104.391854 316.44327 
L 109.24968 316.44327 
L 104.391854 314.733723 
L 74.086552 302.045938 
L 56.193682 290.989599 
L 43.78125 287.88946 
L 13.475948 269.118478 
L 10.489233 265.535928 
L -16.829354 252.188873 
L -35.190163 240.082257 
L -47.134657 234.960863 
L -77.439959 216.683553 
L -81.660944 214.628586 
L -107.745261 207.333733 
L -107.745261 214.628586 
L -107.745261 240.082257 
L -107.745261 248.643419 
L -77.439959 247.86284 
L -55.45223 265.535928 
L -47.134657 274.152248 
L -16.829354 272.933703 
L 5.158375 290.989599 
z
M 286.223668 316.44327 
L 299.496991 316.44327 
L 286.223668 306.07058 
L 272.967993 290.989599 
L 255.918366 277.048114 
L 245.654264 265.535928 
L 225.613063 248.391462 
L 218.162346 240.082257 
L 195.307761 219.9259 
L 190.639465 214.628586 
L 165.002459 191.501388 
L 162.975821 189.174915 
L 135.691236 163.721244 
L 134.697157 162.993085 
L 110.644222 138.267573 
L 104.391854 133.522093 
L 84.72432 112.813902 
L 74.086552 104.303377 
L 57.795602 87.360232 
L 43.78125 75.768619 
L 31.01072 61.906561 
L 13.475948 46.904449 
L 4.247795 36.45289 
L -16.829354 17.952213 
L -22.809611 10.999219 
L -47.134657 10.999219 
L -48.786911 10.999219 
L -47.134657 12.844749 
L -20.285116 36.45289 
L -16.829354 40.226352 
L 8.266872 61.906561 
L 13.475948 67.579169 
L 36.934241 87.360232 
L 43.78125 94.665329 
L 65.781644 112.813902 
L 74.086552 121.547169 
L 94.143285 138.267573 
L 104.391854 149.025047 
L 122.313365 163.721244 
L 134.697157 176.412433 
L 150.503017 189.174915 
L 165.002459 204.005951 
L 178.333334 214.628586 
L 195.307761 231.834223 
L 205.881789 240.082257 
L 225.613063 259.762914 
L 233.244853 265.535928 
L 255.918366 288.278226 
L 259.695338 290.989599 
L 285.565235 316.44327 
z
" clip-path="url(#pca30bcc2e4)" style="fill: #5ec962"/>
    <path d="M -77.439959 301.055674 
L -47.134657 300.747922 
L -26.834489 316.44327 
L -16.829354 316.44327 
L 13.475948 316.44327 
L 43.78125 316.44327 
L 65.955065 316.44327 
L 43.78125 303.099398 
L 13.475948 299.605919 
L 5.158375 290.989599 
L -16.829354 272.933703 
L -47.134657 274.152248 
L -55.45223 265.535928 
L -77.439959 247.86284 
L -107.745261 248.643419 
L -107.745261 265.535928 
L -107.745261 274.973938 
L -87.445093 290.989599 
z
M 286.223668 306.07058 
L 299.496991 316.44327 
L 311.335867 316.44327 
L 286.223668 294.333304 
L 283.559171 290.989599 
L 255.918366 265.818001 
L 255.689374 265.535928 
L 234.659689 240.082257 
L 225.613063 233.199815 
L 210.600657 214.628586 
L 195.307761 202.194821 
L 184.709327 189.174915 
L 165.002459 172.188305 
L 158.07941 163.721244 
L 134.697157 142.361648 
L 131.399001 138.267573 
L 104.391854 113.043339 
L 104.209708 112.813902 
L 82.406849 87.360232 
L 74.086552 80.729543 
L 58.458332 61.906561 
L 43.78125 49.189854 
L 33.511825 36.45289 
L 13.475948 18.864303 
L 7.180662 10.999219 
L -16.829354 10.999219 
L -22.809611 10.999219 
L -16.829354 17.952213 
L 4.247795 36.45289 
L 13.475948 46.904449 
L 31.01072 61.906561 
L 43.78125 75.768619 
L 57.795602 87.360232 
L 74.086552 104.303377 
L 84.72432 112.813902 
L 104.391854 133.522093 
L 110.644222 138.267573 
L 134.697157 162.993085 
L 135.691236 163.721244 
L 162.975821 189.174915 
L 165.002459 191.501388 
L 190.639465 214.628586 
L 195.307761 219.9259 
L 218.162346 240.082257 
L 225.613063 248.391462 
L 245.654264 265.535928 
L 255.918366 277.048114 
L 272.967993 290.989599 
z
" clip-path="url(#pca30bcc2e4)" style="fill: #89d548"/>
    <path d="M -77.439959 316.44327 
L -47.134657 316.44327 
L -26.834489 316.44327 
L -47.134657 300.747922 
L -77.439959 301.055674 
L -87.445093 290.989599 
L -107.745261 274.973938 
L -107.745261 290.989599 
L -107.745261 316.44327 
z
M 286.223668 294.333304 
L 311.335867 316.44327 
L 316.52897 316.44327 
L 342.896588 316.44327 
L 316.52897 292.589447 
L 315.516427 290.989599 
L 299.650257 265.535928 
L 286.223668 254.802568 
L 278.463669 240.082257 
L 286.223668 224.723332 
L 303.951201 240.082257 
L 316.52897 251.163573 
L 332.268346 265.535928 
L 346.834272 280.273691 
L 357.799507 290.989599 
L 377.139575 313.773264 
L 379.636075 316.44327 
L 407.444877 316.44327 
L 437.750179 316.44327 
L 468.055481 316.44327 
L 498.360783 316.44327 
L 528.666086 316.44327 
L 558.971388 316.44327 
L 589.27669 316.44327 
L 619.581992 316.44327 
L 649.887295 316.44327 
L 680.192597 316.44327 
L 710.497899 316.44327 
L 740.803201 316.44327 
L 771.108504 316.44327 
L 801.413806 316.44327 
L 831.719108 316.44327 
L 862.02441 316.44327 
L 892.329713 316.44327 
L 922.635015 316.44327 
L 952.940317 316.44327 
L 983.245619 316.44327 
L 1013.550921 316.44327 
L 1043.856224 316.44327 
L 1074.161526 316.44327 
L 1104.466828 316.44327 
L 1134.77213 316.44327 
L 1165.077433 316.44327 
L 1195.382735 316.44327 
L 1225.688037 316.44327 
L 1225.688037 290.989599 
L 1225.688037 265.535928 
L 1225.688037 240.082257 
L 1225.688037 214.628586 
L 1225.688037 189.174915 
L 1225.688037 163.721244 
L 1225.688037 138.267573 
L 1225.688037 112.813902 
L 1225.688037 87.360232 
L 1225.688037 61.906561 
L 1225.688037 36.45289 
L 1225.688037 10.999219 
L 1195.382735 10.999219 
L 1165.077433 10.999219 
L 1134.77213 10.999219 
L 1104.466828 10.999219 
L 1074.161526 10.999219 
L 1043.856224 10.999219 
L 1013.550921 10.999219 
L 983.245619 10.999219 
L 952.940317 10.999219 
L 922.635015 10.999219 
L 892.329713 10.999219 
L 862.02441 10.999219 
L 831.719108 10.999219 
L 801.413806 10.999219 
L 771.108504 10.999219 
L 740.803201 10.999219 
L 710.497899 10.999219 
L 680.192597 10.999219 
L 649.887295 10.999219 
L 619.581992 10.999219 
L 589.27669 10.999219 
L 558.971388 10.999219 
L 528.666086 10.999219 
L 498.360783 10.999219 
L 468.055481 10.999219 
L 437.750179 10.999219 
L 407.444877 10.999219 
L 377.139575 10.999219 
L 346.834272 10.999219 
L 316.52897 10.999219 
L 286.223668 10.999219 
L 255.918366 10.999219 
L 225.613063 10.999219 
L 195.307761 10.999219 
L 165.002459 10.999219 
L 134.697157 10.999219 
L 104.391854 10.999219 
L 74.086552 10.999219 
L 43.78125 10.999219 
L 13.475948 10.999219 
L 7.180662 10.999219 
L 13.475948 18.864303 
L 33.511825 36.45289 
L 43.78125 49.189854 
L 58.458332 61.906561 
L 74.086552 80.729543 
L 82.406849 87.360232 
L 104.209708 112.813902 
L 104.391854 113.043339 
L 131.399001 138.267573 
L 134.697157 142.361648 
L 158.07941 163.721244 
L 165.002459 172.188305 
L 184.709327 189.174915 
L 195.307761 202.194821 
L 210.600657 214.628586 
L 225.613063 233.199815 
L 234.659689 240.082257 
L 255.689374 265.535928 
L 255.918366 265.818001 
L 283.559171 290.989599 
z
M 253.042914 214.628586 
L 255.918366 202.079918 
L 271.859025 214.628586 
L 255.918366 219.711846 
z
" clip-path="url(#pca30bcc2e4)" style="fill: #b8de29"/>
    <path d="M 316.52897 292.589447 
L 342.896588 316.44327 
L 346.834272 316.44327 
L 377.139575 316.44327 
L 379.636075 316.44327 
L 377.139575 313.773264 
L 357.799507 290.989599 
L 346.834272 280.273691 
L 332.268346 265.535928 
L 316.52897 251.163573 
L 303.951201 240.082257 
L 286.223668 224.723332 
L 278.463669 240.082257 
L 286.223668 254.802568 
L 299.650257 265.535928 
L 315.516427 290.989599 
z
M 255.918366 219.711846 
L 271.859025 214.628586 
L 255.918366 202.079918 
L 253.042914 214.628586 
z
" clip-path="url(#pca30bcc2e4)" style="fill: #e7e419"/>
   </g>
   <g id="PathCollection_1">
    <defs>
     <path id="mdc0741d33a" d="M -3 3 
L 3 -3 
M -3 -3 
L 3 3 
" style="stroke: #ff0000; stroke-width: 1.5"/>
    </defs>
    <g clip-path="url(#pca30bcc2e4)">
     <use xlink:href="#mdc0741d33a" x="346.834272" y="316.44327" style="fill: #ff0000; stroke: #ff0000; stroke-width: 1.5"/>
     <use xlink:href="#mdc0741d33a" x="346.834272" y="290.989599" style="fill: #ff0000; stroke: #ff0000; stroke-width: 1.5"/>
     <use xlink:href="#mdc0741d33a" x="316.52897" y="265.535928" style="fill: #ff0000; stroke: #ff0000; stroke-width: 1.5"/>
     <use xlink:href="#mdc0741d33a" x="286.223668" y="240.082257" style="fill: #ff0000; stroke: #ff0000; stroke-width: 1.5"/>
     <use xlink:href="#mdc0741d33a" x="255.918366" y="214.628586" style="fill: #ff0000; stroke: #ff0000; stroke-width: 1.5"/>
     <use xlink:href="#mdc0741d33a" x="225.613063" y="189.174915" style="fill: #ff0000; stroke: #ff0000; stroke-width: 1.5"/>
     <use xlink:href="#mdc0741d33a" x="225.613063" y="163.721244" style="fill: #ff0000; stroke: #ff0000; stroke-width: 1.5"/>
     <use xlink:href="#mdc0741d33a" x="195.307761" y="138.267573" style="fill: #ff0000; stroke: #ff0000; stroke-width: 1.5"/>
     <use xlink:href="#mdc0741d33a" x="165.002459" y="112.813902" style="fill: #ff0000; stroke: #ff0000; stroke-width: 1.5"/>
     <use xlink:href="#mdc0741d33a" x="134.697157" y="87.360232" style="fill: #ff0000; stroke: #ff0000; stroke-width: 1.5"/>
     <use xlink:href="#mdc0741d33a" x="104.391854" y="61.906561" style="fill: #ff0000; stroke: #ff0000; stroke-width: 1.5"/>
     <use xlink:href="#mdc0741d33a" x="104.391854" y="36.45289" style="fill: #ff0000; stroke: #ff0000; stroke-width: 1.5"/>
     <use xlink:href="#mdc0741d33a" x="74.086552" y="10.999219" style="fill: #ff0000; stroke: #ff0000; stroke-width: 1.5"/>
    </g>
   </g>
   <g id="matplotlib.axis_1">
    <g id="xtick_1">
     <g id="line2d_1">
      <defs>
       <path id="m38f3b05bbe" d="M 0 0 
L 0 3.5 
" style="stroke: #000000; stroke-width: 0.8"/>
      </defs>
      <g>
       <use xlink:href="#m38f3b05bbe" x="134.697157" y="316.44327" style="stroke: #000000; stroke-width: 0.8"/>
      </g>
     </g>
     <g id="text_1">
      <!-- $\mathdefault{10^{-3}}$ -->
      <g transform="translate(122.947157 331.041707) scale(0.1 -0.1)">
       <defs>
        <path id="DejaVuSans-31" d="M 794 531 
L 1825 531 
L 1825 4091 
L 703 3866 
L 703 4441 
L 1819 4666 
L 2450 4666 
L 2450 531 
L 3481 531 
L 3481 0 
L 794 0 
L 794 531 
z
" transform="scale(0.015625)"/>
        <path id="DejaVuSans-30" d="M 2034 4250 
Q 1547 4250 1301 3770 
Q 1056 3291 1056 2328 
Q 1056 1369 1301 889 
Q 1547 409 2034 409 
Q 2525 409 2770 889 
Q 3016 1369 3016 2328 
Q 3016 3291 2770 3770 
Q 2525 4250 2034 4250 
z
M 2034 4750 
Q 2819 4750 3233 4129 
Q 3647 3509 3647 2328 
Q 3647 1150 3233 529 
Q 2819 -91 2034 -91 
Q 1250 -91 836 529 
Q 422 1150 422 2328 
Q 422 3509 836 4129 
Q 1250 4750 2034 4750 
z
" transform="scale(0.015625)"/>
        <path id="DejaVuSans-2212" d="M 678 2272 
L 4684 2272 
L 4684 1741 
L 678 1741 
L 678 2272 
z
" transform="scale(0.015625)"/>
        <path id="DejaVuSans-33" d="M 2597 2516 
Q 3050 2419 3304 2112 
Q 3559 1806 3559 1356 
Q 3559 666 3084 287 
Q 2609 -91 1734 -91 
Q 1441 -91 1130 -33 
Q 819 25 488 141 
L 488 750 
Q 750 597 1062 519 
Q 1375 441 1716 441 
Q 2309 441 2620 675 
Q 2931 909 2931 1356 
Q 2931 1769 2642 2001 
Q 2353 2234 1838 2234 
L 1294 2234 
L 1294 2753 
L 1863 2753 
Q 2328 2753 2575 2939 
Q 2822 3125 2822 3475 
Q 2822 3834 2567 4026 
Q 2313 4219 1838 4219 
Q 1578 4219 1281 4162 
Q 984 4106 628 3988 
L 628 4550 
Q 988 4650 1302 4700 
Q 1616 4750 1894 4750 
Q 2613 4750 3031 4423 
Q 3450 4097 3450 3541 
Q 3450 3153 3228 2886 
Q 3006 2619 2597 2516 
z
" transform="scale(0.015625)"/>
       </defs>
       <use xlink:href="#DejaVuSans-31" transform="translate(0 0.765625)"/>
       <use xlink:href="#DejaVuSans-30" transform="translate(63.623047 0.765625)"/>
       <use xlink:href="#DejaVuSans-2212" transform="translate(128.203125 39.046875) scale(0.7)"/>
       <use xlink:href="#DejaVuSans-33" transform="translate(186.855469 39.046875) scale(0.7)"/>
      </g>
     </g>
    </g>
    <g id="xtick_2">
     <g id="line2d_2">
      <g>
       <use xlink:href="#m38f3b05bbe" x="255.918366" y="316.44327" style="stroke: #000000; stroke-width: 0.8"/>
      </g>
     </g>
     <g id="text_2">
      <!-- $\mathdefault{10^{-2}}$ -->
      <g transform="translate(244.168366 331.041707) scale(0.1 -0.1)">
       <defs>
        <path id="DejaVuSans-32" d="M 1228 531 
L 3431 531 
L 3431 0 
L 469 0 
L 469 531 
Q 828 903 1448 1529 
Q 2069 2156 2228 2338 
Q 2531 2678 2651 2914 
Q 2772 3150 2772 3378 
Q 2772 3750 2511 3984 
Q 2250 4219 1831 4219 
Q 1534 4219 1204 4116 
Q 875 4013 500 3803 
L 500 4441 
Q 881 4594 1212 4672 
Q 1544 4750 1819 4750 
Q 2544 4750 2975 4387 
Q 3406 4025 3406 3419 
Q 3406 3131 3298 2873 
Q 3191 2616 2906 2266 
Q 2828 2175 2409 1742 
Q 1991 1309 1228 531 
z
" transform="scale(0.015625)"/>
       </defs>
       <use xlink:href="#DejaVuSans-31" transform="translate(0 0.765625)"/>
       <use xlink:href="#DejaVuSans-30" transform="translate(63.623047 0.765625)"/>
       <use xlink:href="#DejaVuSans-2212" transform="translate(128.203125 39.046875) scale(0.7)"/>
       <use xlink:href="#DejaVuSans-32" transform="translate(186.855469 39.046875) scale(0.7)"/>
      </g>
     </g>
    </g>
    <g id="xtick_3">
     <g id="line2d_3">
      <g>
       <use xlink:href="#m38f3b05bbe" x="377.139575" y="316.44327" style="stroke: #000000; stroke-width: 0.8"/>
      </g>
     </g>
     <g id="text_3">
      <!-- $\mathdefault{10^{-1}}$ -->
      <g transform="translate(365.389575 331.041707) scale(0.1 -0.1)">
       <use xlink:href="#DejaVuSans-31" transform="translate(0 0.684375)"/>
       <use xlink:href="#DejaVuSans-30" transform="translate(63.623047 0.684375)"/>
       <use xlink:href="#DejaVuSans-2212" transform="translate(128.203125 38.965625) scale(0.7)"/>
       <use xlink:href="#DejaVuSans-31" transform="translate(186.855469 38.965625) scale(0.7)"/>
      </g>
     </g>
    </g>
    <g id="xtick_4">
     <g id="line2d_4">
      <defs>
       <path id="m360e1f0208" d="M 0 0 
L 0 2 
" style="stroke: #000000; stroke-width: 0.6"/>
      </defs>
      <g>
       <use xlink:href="#m360e1f0208" x="49.967168" y="316.44327" style="stroke: #000000; stroke-width: 0.6"/>
      </g>
     </g>
    </g>
    <g id="xtick_5">
     <g id="line2d_5">
      <g>
       <use xlink:href="#m360e1f0208" x="71.313163" y="316.44327" style="stroke: #000000; stroke-width: 0.6"/>
      </g>
     </g>
    </g>
    <g id="xtick_6">
     <g id="line2d_6">
      <g>
       <use xlink:href="#m360e1f0208" x="86.458388" y="316.44327" style="stroke: #000000; stroke-width: 0.6"/>
      </g>
     </g>
    </g>
    <g id="xtick_7">
     <g id="line2d_7">
      <g>
       <use xlink:href="#m360e1f0208" x="98.205937" y="316.44327" style="stroke: #000000; stroke-width: 0.6"/>
      </g>
     </g>
    </g>
    <g id="xtick_8">
     <g id="line2d_8">
      <g>
       <use xlink:href="#m360e1f0208" x="107.804383" y="316.44327" style="stroke: #000000; stroke-width: 0.6"/>
      </g>
     </g>
    </g>
    <g id="xtick_9">
     <g id="line2d_9">
      <g>
       <use xlink:href="#m360e1f0208" x="115.919754" y="316.44327" style="stroke: #000000; stroke-width: 0.6"/>
      </g>
     </g>
    </g>
    <g id="xtick_10">
     <g id="line2d_10">
      <g>
       <use xlink:href="#m360e1f0208" x="122.949608" y="316.44327" style="stroke: #000000; stroke-width: 0.6"/>
      </g>
     </g>
    </g>
    <g id="xtick_11">
     <g id="line2d_11">
      <g>
       <use xlink:href="#m360e1f0208" x="129.150378" y="316.44327" style="stroke: #000000; stroke-width: 0.6"/>
      </g>
     </g>
    </g>
    <g id="xtick_12">
     <g id="line2d_12">
      <g>
       <use xlink:href="#m360e1f0208" x="171.188377" y="316.44327" style="stroke: #000000; stroke-width: 0.6"/>
      </g>
     </g>
    </g>
    <g id="xtick_13">
     <g id="line2d_13">
      <g>
       <use xlink:href="#m360e1f0208" x="192.534372" y="316.44327" style="stroke: #000000; stroke-width: 0.6"/>
      </g>
     </g>
    </g>
    <g id="xtick_14">
     <g id="line2d_14">
      <g>
       <use xlink:href="#m360e1f0208" x="207.679597" y="316.44327" style="stroke: #000000; stroke-width: 0.6"/>
      </g>
     </g>
    </g>
    <g id="xtick_15">
     <g id="line2d_15">
      <g>
       <use xlink:href="#m360e1f0208" x="219.427146" y="316.44327" style="stroke: #000000; stroke-width: 0.6"/>
      </g>
     </g>
    </g>
    <g id="xtick_16">
     <g id="line2d_16">
      <g>
       <use xlink:href="#m360e1f0208" x="229.025592" y="316.44327" style="stroke: #000000; stroke-width: 0.6"/>
      </g>
     </g>
    </g>
    <g id="xtick_17">
     <g id="line2d_17">
      <g>
       <use xlink:href="#m360e1f0208" x="237.140963" y="316.44327" style="stroke: #000000; stroke-width: 0.6"/>
      </g>
     </g>
    </g>
    <g id="xtick_18">
     <g id="line2d_18">
      <g>
       <use xlink:href="#m360e1f0208" x="244.170817" y="316.44327" style="stroke: #000000; stroke-width: 0.6"/>
      </g>
     </g>
    </g>
    <g id="xtick_19">
     <g id="line2d_19">
      <g>
       <use xlink:href="#m360e1f0208" x="250.371587" y="316.44327" style="stroke: #000000; stroke-width: 0.6"/>
      </g>
     </g>
    </g>
    <g id="xtick_20">
     <g id="line2d_20">
      <g>
       <use xlink:href="#m360e1f0208" x="292.409586" y="316.44327" style="stroke: #000000; stroke-width: 0.6"/>
      </g>
     </g>
    </g>
    <g id="xtick_21">
     <g id="line2d_21">
      <g>
       <use xlink:href="#m360e1f0208" x="313.755581" y="316.44327" style="stroke: #000000; stroke-width: 0.6"/>
      </g>
     </g>
    </g>
    <g id="xtick_22">
     <g id="line2d_22">
      <g>
       <use xlink:href="#m360e1f0208" x="328.900806" y="316.44327" style="stroke: #000000; stroke-width: 0.6"/>
      </g>
     </g>
    </g>
    <g id="xtick_23">
     <g id="line2d_23">
      <g>
       <use xlink:href="#m360e1f0208" x="340.648355" y="316.44327" style="stroke: #000000; stroke-width: 0.6"/>
      </g>
     </g>
    </g>
    <g id="xtick_24">
     <g id="line2d_24">
      <g>
       <use xlink:href="#m360e1f0208" x="350.246801" y="316.44327" style="stroke: #000000; stroke-width: 0.6"/>
      </g>
     </g>
    </g>
    <g id="xtick_25">
     <g id="line2d_25">
      <g>
       <use xlink:href="#m360e1f0208" x="358.362172" y="316.44327" style="stroke: #000000; stroke-width: 0.6"/>
      </g>
     </g>
    </g>
    <g id="xtick_26">
     <g id="line2d_26">
      <g>
       <use xlink:href="#m360e1f0208" x="365.392026" y="316.44327" style="stroke: #000000; stroke-width: 0.6"/>
      </g>
     </g>
    </g>
    <g id="xtick_27">
     <g id="line2d_27">
      <g>
       <use xlink:href="#m360e1f0208" x="371.592796" y="316.44327" style="stroke: #000000; stroke-width: 0.6"/>
      </g>
     </g>
    </g>
    <g id="text_4">
     <!-- bandwidth -->
     <g transform="translate(184.097912 344.719832) scale(0.1 -0.1)">
      <defs>
       <path id="DejaVuSans-62" d="M 3116 1747 
Q 3116 2381 2855 2742 
Q 2594 3103 2138 3103 
Q 1681 3103 1420 2742 
Q 1159 2381 1159 1747 
Q 1159 1113 1420 752 
Q 1681 391 2138 391 
Q 2594 391 2855 752 
Q 3116 1113 3116 1747 
z
M 1159 2969 
Q 1341 3281 1617 3432 
Q 1894 3584 2278 3584 
Q 2916 3584 3314 3078 
Q 3713 2572 3713 1747 
Q 3713 922 3314 415 
Q 2916 -91 2278 -91 
Q 1894 -91 1617 61 
Q 1341 213 1159 525 
L 1159 0 
L 581 0 
L 581 4863 
L 1159 4863 
L 1159 2969 
z
" transform="scale(0.015625)"/>
       <path id="DejaVuSans-61" d="M 2194 1759 
Q 1497 1759 1228 1600 
Q 959 1441 959 1056 
Q 959 750 1161 570 
Q 1363 391 1709 391 
Q 2188 391 2477 730 
Q 2766 1069 2766 1631 
L 2766 1759 
L 2194 1759 
z
M 3341 1997 
L 3341 0 
L 2766 0 
L 2766 531 
Q 2569 213 2275 61 
Q 1981 -91 1556 -91 
Q 1019 -91 701 211 
Q 384 513 384 1019 
Q 384 1609 779 1909 
Q 1175 2209 1959 2209 
L 2766 2209 
L 2766 2266 
Q 2766 2663 2505 2880 
Q 2244 3097 1772 3097 
Q 1472 3097 1187 3025 
Q 903 2953 641 2809 
L 641 3341 
Q 956 3463 1253 3523 
Q 1550 3584 1831 3584 
Q 2591 3584 2966 3190 
Q 3341 2797 3341 1997 
z
" transform="scale(0.015625)"/>
       <path id="DejaVuSans-6e" d="M 3513 2113 
L 3513 0 
L 2938 0 
L 2938 2094 
Q 2938 2591 2744 2837 
Q 2550 3084 2163 3084 
Q 1697 3084 1428 2787 
Q 1159 2491 1159 1978 
L 1159 0 
L 581 0 
L 581 3500 
L 1159 3500 
L 1159 2956 
Q 1366 3272 1645 3428 
Q 1925 3584 2291 3584 
Q 2894 3584 3203 3211 
Q 3513 2838 3513 2113 
z
" transform="scale(0.015625)"/>
       <path id="DejaVuSans-64" d="M 2906 2969 
L 2906 4863 
L 3481 4863 
L 3481 0 
L 2906 0 
L 2906 525 
Q 2725 213 2448 61 
Q 2172 -91 1784 -91 
Q 1150 -91 751 415 
Q 353 922 353 1747 
Q 353 2572 751 3078 
Q 1150 3584 1784 3584 
Q 2172 3584 2448 3432 
Q 2725 3281 2906 2969 
z
M 947 1747 
Q 947 1113 1208 752 
Q 1469 391 1925 391 
Q 2381 391 2643 752 
Q 2906 1113 2906 1747 
Q 2906 2381 2643 2742 
Q 2381 3103 1925 3103 
Q 1469 3103 1208 2742 
Q 947 2381 947 1747 
z
" transform="scale(0.015625)"/>
       <path id="DejaVuSans-77" d="M 269 3500 
L 844 3500 
L 1563 769 
L 2278 3500 
L 2956 3500 
L 3675 769 
L 4391 3500 
L 4966 3500 
L 4050 0 
L 3372 0 
L 2619 2869 
L 1863 0 
L 1184 0 
L 269 3500 
z
" transform="scale(0.015625)"/>
       <path id="DejaVuSans-69" d="M 603 3500 
L 1178 3500 
L 1178 0 
L 603 0 
L 603 3500 
z
M 603 4863 
L 1178 4863 
L 1178 4134 
L 603 4134 
L 603 4863 
z
" transform="scale(0.015625)"/>
       <path id="DejaVuSans-74" d="M 1172 4494 
L 1172 3500 
L 2356 3500 
L 2356 3053 
L 1172 3053 
L 1172 1153 
Q 1172 725 1289 603 
Q 1406 481 1766 481 
L 2356 481 
L 2356 0 
L 1766 0 
Q 1100 0 847 248 
Q 594 497 594 1153 
L 594 3053 
L 172 3053 
L 172 3500 
L 594 3500 
L 594 4494 
L 1172 4494 
z
" transform="scale(0.015625)"/>
       <path id="DejaVuSans-68" d="M 3513 2113 
L 3513 0 
L 2938 0 
L 2938 2094 
Q 2938 2591 2744 2837 
Q 2550 3084 2163 3084 
Q 1697 3084 1428 2787 
Q 1159 2491 1159 1978 
L 1159 0 
L 581 0 
L 581 4863 
L 1159 4863 
L 1159 2956 
Q 1366 3272 1645 3428 
Q 1925 3584 2291 3584 
Q 2894 3584 3203 3211 
Q 3513 2838 3513 2113 
z
" transform="scale(0.015625)"/>
      </defs>
      <use xlink:href="#DejaVuSans-62"/>
      <use xlink:href="#DejaVuSans-61" transform="translate(63.476562 0)"/>
      <use xlink:href="#DejaVuSans-6e" transform="translate(124.755859 0)"/>
      <use xlink:href="#DejaVuSans-64" transform="translate(188.134766 0)"/>
      <use xlink:href="#DejaVuSans-77" transform="translate(251.611328 0)"/>
      <use xlink:href="#DejaVuSans-69" transform="translate(333.398438 0)"/>
      <use xlink:href="#DejaVuSans-64" transform="translate(361.181641 0)"/>
      <use xlink:href="#DejaVuSans-74" transform="translate(424.658203 0)"/>
      <use xlink:href="#DejaVuSans-68" transform="translate(463.867188 0)"/>
     </g>
    </g>
   </g>
   <g id="matplotlib.axis_2">
    <g id="ytick_1">
     <g id="line2d_28">
      <defs>
       <path id="mbd2f377c6c" d="M 0 0 
L -3.5 0 
" style="stroke: #000000; stroke-width: 0.8"/>
      </defs>
      <g>
       <use xlink:href="#mbd2f377c6c" x="43.78125" y="316.44327" style="stroke: #000000; stroke-width: 0.8"/>
      </g>
     </g>
     <g id="text_5">
      <!-- 1.0 -->
      <g transform="translate(20.878125 320.242489) scale(0.1 -0.1)">
       <defs>
        <path id="DejaVuSans-2e" d="M 684 794 
L 1344 794 
L 1344 0 
L 684 0 
L 684 794 
z
" transform="scale(0.015625)"/>
       </defs>
       <use xlink:href="#DejaVuSans-31"/>
       <use xlink:href="#DejaVuSans-2e" transform="translate(63.623047 0)"/>
       <use xlink:href="#DejaVuSans-30" transform="translate(95.410156 0)"/>
      </g>
     </g>
    </g>
    <g id="ytick_2">
     <g id="line2d_29">
      <g>
       <use xlink:href="#mbd2f377c6c" x="43.78125" y="265.535928" style="stroke: #000000; stroke-width: 0.8"/>
      </g>
     </g>
     <g id="text_6">
      <!-- 1.5 -->
      <g transform="translate(20.878125 269.335147) scale(0.1 -0.1)">
       <defs>
        <path id="DejaVuSans-35" d="M 691 4666 
L 3169 4666 
L 3169 4134 
L 1269 4134 
L 1269 2991 
Q 1406 3038 1543 3061 
Q 1681 3084 1819 3084 
Q 2600 3084 3056 2656 
Q 3513 2228 3513 1497 
Q 3513 744 3044 326 
Q 2575 -91 1722 -91 
Q 1428 -91 1123 -41 
Q 819 9 494 109 
L 494 744 
Q 775 591 1075 516 
Q 1375 441 1709 441 
Q 2250 441 2565 725 
Q 2881 1009 2881 1497 
Q 2881 1984 2565 2268 
Q 2250 2553 1709 2553 
Q 1456 2553 1204 2497 
Q 953 2441 691 2322 
L 691 4666 
z
" transform="scale(0.015625)"/>
       </defs>
       <use xlink:href="#DejaVuSans-31"/>
       <use xlink:href="#DejaVuSans-2e" transform="translate(63.623047 0)"/>
       <use xlink:href="#DejaVuSans-35" transform="translate(95.410156 0)"/>
      </g>
     </g>
    </g>
    <g id="ytick_3">
     <g id="line2d_30">
      <g>
       <use xlink:href="#mbd2f377c6c" x="43.78125" y="214.628586" style="stroke: #000000; stroke-width: 0.8"/>
      </g>
     </g>
     <g id="text_7">
      <!-- 2.0 -->
      <g transform="translate(20.878125 218.427805) scale(0.1 -0.1)">
       <use xlink:href="#DejaVuSans-32"/>
       <use xlink:href="#DejaVuSans-2e" transform="translate(63.623047 0)"/>
       <use xlink:href="#DejaVuSans-30" transform="translate(95.410156 0)"/>
      </g>
     </g>
    </g>
    <g id="ytick_4">
     <g id="line2d_31">
      <g>
       <use xlink:href="#mbd2f377c6c" x="43.78125" y="163.721244" style="stroke: #000000; stroke-width: 0.8"/>
      </g>
     </g>
     <g id="text_8">
      <!-- 2.5 -->
      <g transform="translate(20.878125 167.520463) scale(0.1 -0.1)">
       <use xlink:href="#DejaVuSans-32"/>
       <use xlink:href="#DejaVuSans-2e" transform="translate(63.623047 0)"/>
       <use xlink:href="#DejaVuSans-35" transform="translate(95.410156 0)"/>
      </g>
     </g>
    </g>
    <g id="ytick_5">
     <g id="line2d_32">
      <g>
       <use xlink:href="#mbd2f377c6c" x="43.78125" y="112.813902" style="stroke: #000000; stroke-width: 0.8"/>
      </g>
     </g>
     <g id="text_9">
      <!-- 3.0 -->
      <g transform="translate(20.878125 116.613121) scale(0.1 -0.1)">
       <use xlink:href="#DejaVuSans-33"/>
       <use xlink:href="#DejaVuSans-2e" transform="translate(63.623047 0)"/>
       <use xlink:href="#DejaVuSans-30" transform="translate(95.410156 0)"/>
      </g>
     </g>
    </g>
    <g id="ytick_6">
     <g id="line2d_33">
      <g>
       <use xlink:href="#mbd2f377c6c" x="43.78125" y="61.906561" style="stroke: #000000; stroke-width: 0.8"/>
      </g>
     </g>
     <g id="text_10">
      <!-- 3.5 -->
      <g transform="translate(20.878125 65.705779) scale(0.1 -0.1)">
       <use xlink:href="#DejaVuSans-33"/>
       <use xlink:href="#DejaVuSans-2e" transform="translate(63.623047 0)"/>
       <use xlink:href="#DejaVuSans-35" transform="translate(95.410156 0)"/>
      </g>
     </g>
    </g>
    <g id="ytick_7">
     <g id="line2d_34">
      <g>
       <use xlink:href="#mbd2f377c6c" x="43.78125" y="10.999219" style="stroke: #000000; stroke-width: 0.8"/>
      </g>
     </g>
     <g id="text_11">
      <!-- 4.0 -->
      <g transform="translate(20.878125 14.798438) scale(0.1 -0.1)">
       <defs>
        <path id="DejaVuSans-34" d="M 2419 4116 
L 825 1625 
L 2419 1625 
L 2419 4116 
z
M 2253 4666 
L 3047 4666 
L 3047 1625 
L 3713 1625 
L 3713 1100 
L 3047 1100 
L 3047 0 
L 2419 0 
L 2419 1100 
L 313 1100 
L 313 1709 
L 2253 4666 
z
" transform="scale(0.015625)"/>
       </defs>
       <use xlink:href="#DejaVuSans-34"/>
       <use xlink:href="#DejaVuSans-2e" transform="translate(63.623047 0)"/>
       <use xlink:href="#DejaVuSans-30" transform="translate(95.410156 0)"/>
      </g>
     </g>
    </g>
    <g id="text_12">
     <!-- alpha -->
     <g transform="translate(14.798438 177.581401) rotate(-90) scale(0.1 -0.1)">
      <defs>
       <path id="DejaVuSans-6c" d="M 603 4863 
L 1178 4863 
L 1178 0 
L 603 0 
L 603 4863 
z
" transform="scale(0.015625)"/>
       <path id="DejaVuSans-70" d="M 1159 525 
L 1159 -1331 
L 581 -1331 
L 581 3500 
L 1159 3500 
L 1159 2969 
Q 1341 3281 1617 3432 
Q 1894 3584 2278 3584 
Q 2916 3584 3314 3078 
Q 3713 2572 3713 1747 
Q 3713 922 3314 415 
Q 2916 -91 2278 -91 
Q 1894 -91 1617 61 
Q 1341 213 1159 525 
z
M 3116 1747 
Q 3116 2381 2855 2742 
Q 2594 3103 2138 3103 
Q 1681 3103 1420 2742 
Q 1159 2381 1159 1747 
Q 1159 1113 1420 752 
Q 1681 391 2138 391 
Q 2594 391 2855 752 
Q 3116 1113 3116 1747 
z
" transform="scale(0.015625)"/>
      </defs>
      <use xlink:href="#DejaVuSans-61"/>
      <use xlink:href="#DejaVuSans-6c" transform="translate(61.279297 0)"/>
      <use xlink:href="#DejaVuSans-70" transform="translate(89.0625 0)"/>
      <use xlink:href="#DejaVuSans-68" transform="translate(152.539062 0)"/>
      <use xlink:href="#DejaVuSans-61" transform="translate(215.917969 0)"/>
     </g>
    </g>
   </g>
   <g id="patch_3">
    <path d="M 43.78125 316.44327 
L 43.78125 10.999219 
" style="fill: none; stroke: #000000; stroke-width: 0.8; stroke-linejoin: miter; stroke-linecap: square"/>
   </g>
   <g id="patch_4">
    <path d="M 377.139575 316.44327 
L 377.139575 10.999219 
" style="fill: none; stroke: #000000; stroke-width: 0.8; stroke-linejoin: miter; stroke-linecap: square"/>
   </g>
   <g id="patch_5">
    <path d="M 43.78125 316.44327 
L 377.139575 316.44327 
" style="fill: none; stroke: #000000; stroke-width: 0.8; stroke-linejoin: miter; stroke-linecap: square"/>
   </g>
   <g id="patch_6">
    <path d="M 43.78125 10.999219 
L 377.139575 10.999219 
" style="fill: none; stroke: #000000; stroke-width: 0.8; stroke-linejoin: miter; stroke-linecap: square"/>
   </g>
  </g>
  <g id="axes_2">
   <g id="patch_7">
    <path d="M 405.557491 316.44327 
L 420.829693 316.44327 
L 420.829693 10.999219 
L 405.557491 10.999219 
z
" style="fill: #ffffff"/>
   </g>
   <g id="QuadMesh_1">
    <path d="M 405.557491 316.44327 
L 420.829693 316.44327 
L 420.829693 294.625838 
L 405.557491 294.625838 
L 405.557491 316.44327 
" clip-path="url(#p5194d1f9fc)" style="fill: #470e61"/>
    <path d="M 405.557491 294.625838 
L 420.829693 294.625838 
L 420.829693 272.808406 
L 405.557491 272.808406 
L 405.557491 294.625838 
" clip-path="url(#p5194d1f9fc)" style="fill: #482677"/>
    <path d="M 405.557491 272.808406 
L 420.829693 272.808406 
L 420.829693 250.990973 
L 405.557491 250.990973 
L 405.557491 272.808406 
" clip-path="url(#p5194d1f9fc)" style="fill: #433d84"/>
    <path d="M 405.557491 250.990973 
L 420.829693 250.990973 
L 420.829693 229.173541 
L 405.557491 229.173541 
L 405.557491 250.990973 
" clip-path="url(#p5194d1f9fc)" style="fill: #3b528b"/>
    <path d="M 405.557491 229.173541 
L 420.829693 229.173541 
L 420.829693 207.356109 
L 405.557491 207.356109 
L 405.557491 229.173541 
" clip-path="url(#p5194d1f9fc)" style="fill: #32658e"/>
    <path d="M 405.557491 207.356109 
L 420.829693 207.356109 
L 420.829693 185.538677 
L 405.557491 185.538677 
L 405.557491 207.356109 
" clip-path="url(#p5194d1f9fc)" style="fill: #2a768e"/>
    <path d="M 405.557491 185.538677 
L 420.829693 185.538677 
L 420.829693 163.721244 
L 405.557491 163.721244 
L 405.557491 185.538677 
" clip-path="url(#p5194d1f9fc)" style="fill: #24878e"/>
    <path d="M 405.557491 163.721244 
L 420.829693 163.721244 
L 420.829693 141.903812 
L 405.557491 141.903812 
L 405.557491 163.721244 
" clip-path="url(#p5194d1f9fc)" style="fill: #1f998a"/>
    <path d="M 405.557491 141.903812 
L 420.829693 141.903812 
L 420.829693 120.08638 
L 405.557491 120.08638 
L 405.557491 141.903812 
" clip-path="url(#p5194d1f9fc)" style="fill: #24aa83"/>
    <path d="M 405.557491 120.08638 
L 420.829693 120.08638 
L 420.829693 98.268948 
L 405.557491 98.268948 
L 405.557491 120.08638 
" clip-path="url(#p5194d1f9fc)" style="fill: #3aba76"/>
    <path d="M 405.557491 98.268948 
L 420.829693 98.268948 
L 420.829693 76.451515 
L 405.557491 76.451515 
L 405.557491 98.268948 
" clip-path="url(#p5194d1f9fc)" style="fill: #5ec962"/>
    <path d="M 405.557491 76.451515 
L 420.829693 76.451515 
L 420.829693 54.634083 
L 405.557491 54.634083 
L 405.557491 76.451515 
" clip-path="url(#p5194d1f9fc)" style="fill: #89d548"/>
    <path d="M 405.557491 54.634083 
L 420.829693 54.634083 
L 420.829693 32.816651 
L 405.557491 32.816651 
L 405.557491 54.634083 
" clip-path="url(#p5194d1f9fc)" style="fill: #b8de29"/>
    <path d="M 405.557491 32.816651 
L 420.829693 32.816651 
L 420.829693 10.999219 
L 405.557491 10.999219 
L 405.557491 32.816651 
" clip-path="url(#p5194d1f9fc)" style="fill: #e7e419"/>
   </g>
   <g id="matplotlib.axis_3"/>
   <g id="matplotlib.axis_4">
    <g id="ytick_8">
     <g id="line2d_35">
      <defs>
       <path id="m0a27ea52cb" d="M 0 0 
L 3.5 0 
" style="stroke: #000000; stroke-width: 0.8"/>
      </defs>
      <g>
       <use xlink:href="#m0a27ea52cb" x="420.829693" y="316.44327" style="stroke: #000000; stroke-width: 0.8"/>
      </g>
     </g>
     <g id="text_13">
      <!-- -5.6 -->
      <g transform="translate(427.829693 320.242489) scale(0.1 -0.1)">
       <defs>
        <path id="DejaVuSans-2d" d="M 313 2009 
L 1997 2009 
L 1997 1497 
L 313 1497 
L 313 2009 
z
" transform="scale(0.015625)"/>
        <path id="DejaVuSans-36" d="M 2113 2584 
Q 1688 2584 1439 2293 
Q 1191 2003 1191 1497 
Q 1191 994 1439 701 
Q 1688 409 2113 409 
Q 2538 409 2786 701 
Q 3034 994 3034 1497 
Q 3034 2003 2786 2293 
Q 2538 2584 2113 2584 
z
M 3366 4563 
L 3366 3988 
Q 3128 4100 2886 4159 
Q 2644 4219 2406 4219 
Q 1781 4219 1451 3797 
Q 1122 3375 1075 2522 
Q 1259 2794 1537 2939 
Q 1816 3084 2150 3084 
Q 2853 3084 3261 2657 
Q 3669 2231 3669 1497 
Q 3669 778 3244 343 
Q 2819 -91 2113 -91 
Q 1303 -91 875 529 
Q 447 1150 447 2328 
Q 447 3434 972 4092 
Q 1497 4750 2381 4750 
Q 2619 4750 2861 4703 
Q 3103 4656 3366 4563 
z
" transform="scale(0.015625)"/>
       </defs>
       <use xlink:href="#DejaVuSans-2d"/>
       <use xlink:href="#DejaVuSans-35" transform="translate(36.083984 0)"/>
       <use xlink:href="#DejaVuSans-2e" transform="translate(99.707031 0)"/>
       <use xlink:href="#DejaVuSans-36" transform="translate(131.494141 0)"/>
      </g>
     </g>
    </g>
    <g id="ytick_9">
     <g id="line2d_36">
      <g>
       <use xlink:href="#m0a27ea52cb" x="420.829693" y="272.808406" style="stroke: #000000; stroke-width: 0.8"/>
      </g>
     </g>
     <g id="text_14">
      <!-- -4.8 -->
      <g transform="translate(427.829693 276.607624) scale(0.1 -0.1)">
       <defs>
        <path id="DejaVuSans-38" d="M 2034 2216 
Q 1584 2216 1326 1975 
Q 1069 1734 1069 1313 
Q 1069 891 1326 650 
Q 1584 409 2034 409 
Q 2484 409 2743 651 
Q 3003 894 3003 1313 
Q 3003 1734 2745 1975 
Q 2488 2216 2034 2216 
z
M 1403 2484 
Q 997 2584 770 2862 
Q 544 3141 544 3541 
Q 544 4100 942 4425 
Q 1341 4750 2034 4750 
Q 2731 4750 3128 4425 
Q 3525 4100 3525 3541 
Q 3525 3141 3298 2862 
Q 3072 2584 2669 2484 
Q 3125 2378 3379 2068 
Q 3634 1759 3634 1313 
Q 3634 634 3220 271 
Q 2806 -91 2034 -91 
Q 1263 -91 848 271 
Q 434 634 434 1313 
Q 434 1759 690 2068 
Q 947 2378 1403 2484 
z
M 1172 3481 
Q 1172 3119 1398 2916 
Q 1625 2713 2034 2713 
Q 2441 2713 2670 2916 
Q 2900 3119 2900 3481 
Q 2900 3844 2670 4047 
Q 2441 4250 2034 4250 
Q 1625 4250 1398 4047 
Q 1172 3844 1172 3481 
z
" transform="scale(0.015625)"/>
       </defs>
       <use xlink:href="#DejaVuSans-2d"/>
       <use xlink:href="#DejaVuSans-34" transform="translate(36.083984 0)"/>
       <use xlink:href="#DejaVuSans-2e" transform="translate(99.707031 0)"/>
       <use xlink:href="#DejaVuSans-38" transform="translate(131.494141 0)"/>
      </g>
     </g>
    </g>
    <g id="ytick_10">
     <g id="line2d_37">
      <g>
       <use xlink:href="#m0a27ea52cb" x="420.829693" y="229.173541" style="stroke: #000000; stroke-width: 0.8"/>
      </g>
     </g>
     <g id="text_15">
      <!-- -4.0 -->
      <g transform="translate(427.829693 232.97276) scale(0.1 -0.1)">
       <use xlink:href="#DejaVuSans-2d"/>
       <use xlink:href="#DejaVuSans-34" transform="translate(36.083984 0)"/>
       <use xlink:href="#DejaVuSans-2e" transform="translate(99.707031 0)"/>
       <use xlink:href="#DejaVuSans-30" transform="translate(131.494141 0)"/>
      </g>
     </g>
    </g>
    <g id="ytick_11">
     <g id="line2d_38">
      <g>
       <use xlink:href="#m0a27ea52cb" x="420.829693" y="185.538677" style="stroke: #000000; stroke-width: 0.8"/>
      </g>
     </g>
     <g id="text_16">
      <!-- -3.2 -->
      <g transform="translate(427.829693 189.337895) scale(0.1 -0.1)">
       <use xlink:href="#DejaVuSans-2d"/>
       <use xlink:href="#DejaVuSans-33" transform="translate(36.083984 0)"/>
       <use xlink:href="#DejaVuSans-2e" transform="translate(99.707031 0)"/>
       <use xlink:href="#DejaVuSans-32" transform="translate(131.494141 0)"/>
      </g>
     </g>
    </g>
    <g id="ytick_12">
     <g id="line2d_39">
      <g>
       <use xlink:href="#m0a27ea52cb" x="420.829693" y="141.903812" style="stroke: #000000; stroke-width: 0.8"/>
      </g>
     </g>
     <g id="text_17">
      <!-- -2.4 -->
      <g transform="translate(427.829693 145.703031) scale(0.1 -0.1)">
       <use xlink:href="#DejaVuSans-2d"/>
       <use xlink:href="#DejaVuSans-32" transform="translate(36.083984 0)"/>
       <use xlink:href="#DejaVuSans-2e" transform="translate(99.707031 0)"/>
       <use xlink:href="#DejaVuSans-34" transform="translate(131.494141 0)"/>
      </g>
     </g>
    </g>
    <g id="ytick_13">
     <g id="line2d_40">
      <g>
       <use xlink:href="#m0a27ea52cb" x="420.829693" y="98.268948" style="stroke: #000000; stroke-width: 0.8"/>
      </g>
     </g>
     <g id="text_18">
      <!-- -1.6 -->
      <g transform="translate(427.829693 102.068166) scale(0.1 -0.1)">
       <use xlink:href="#DejaVuSans-2d"/>
       <use xlink:href="#DejaVuSans-31" transform="translate(36.083984 0)"/>
       <use xlink:href="#DejaVuSans-2e" transform="translate(99.707031 0)"/>
       <use xlink:href="#DejaVuSans-36" transform="translate(131.494141 0)"/>
      </g>
     </g>
    </g>
    <g id="ytick_14">
     <g id="line2d_41">
      <g>
       <use xlink:href="#m0a27ea52cb" x="420.829693" y="54.634083" style="stroke: #000000; stroke-width: 0.8"/>
      </g>
     </g>
     <g id="text_19">
      <!-- -0.8 -->
      <g transform="translate(427.829693 58.433302) scale(0.1 -0.1)">
       <use xlink:href="#DejaVuSans-2d"/>
       <use xlink:href="#DejaVuSans-30" transform="translate(36.083984 0)"/>
       <use xlink:href="#DejaVuSans-2e" transform="translate(99.707031 0)"/>
       <use xlink:href="#DejaVuSans-38" transform="translate(131.494141 0)"/>
      </g>
     </g>
    </g>
    <g id="ytick_15">
     <g id="line2d_42">
      <g>
       <use xlink:href="#m0a27ea52cb" x="420.829693" y="10.999219" style="stroke: #000000; stroke-width: 0.8"/>
      </g>
     </g>
     <g id="text_20">
      <!-- 0.0 -->
      <g transform="translate(427.829693 14.798438) scale(0.1 -0.1)">
       <use xlink:href="#DejaVuSans-30"/>
       <use xlink:href="#DejaVuSans-2e" transform="translate(63.623047 0)"/>
       <use xlink:href="#DejaVuSans-30" transform="translate(95.410156 0)"/>
      </g>
     </g>
    </g>
    <g id="text_21">
     <!-- Score -->
     <g transform="translate(458.939068 177.723588) rotate(-90) scale(0.1 -0.1)">
      <defs>
       <path id="DejaVuSans-53" d="M 3425 4513 
L 3425 3897 
Q 3066 4069 2747 4153 
Q 2428 4238 2131 4238 
Q 1616 4238 1336 4038 
Q 1056 3838 1056 3469 
Q 1056 3159 1242 3001 
Q 1428 2844 1947 2747 
L 2328 2669 
Q 3034 2534 3370 2195 
Q 3706 1856 3706 1288 
Q 3706 609 3251 259 
Q 2797 -91 1919 -91 
Q 1588 -91 1214 -16 
Q 841 59 441 206 
L 441 856 
Q 825 641 1194 531 
Q 1563 422 1919 422 
Q 2459 422 2753 634 
Q 3047 847 3047 1241 
Q 3047 1584 2836 1778 
Q 2625 1972 2144 2069 
L 1759 2144 
Q 1053 2284 737 2584 
Q 422 2884 422 3419 
Q 422 4038 858 4394 
Q 1294 4750 2059 4750 
Q 2388 4750 2728 4690 
Q 3069 4631 3425 4513 
z
" transform="scale(0.015625)"/>
       <path id="DejaVuSans-63" d="M 3122 3366 
L 3122 2828 
Q 2878 2963 2633 3030 
Q 2388 3097 2138 3097 
Q 1578 3097 1268 2742 
Q 959 2388 959 1747 
Q 959 1106 1268 751 
Q 1578 397 2138 397 
Q 2388 397 2633 464 
Q 2878 531 3122 666 
L 3122 134 
Q 2881 22 2623 -34 
Q 2366 -91 2075 -91 
Q 1284 -91 818 406 
Q 353 903 353 1747 
Q 353 2603 823 3093 
Q 1294 3584 2113 3584 
Q 2378 3584 2631 3529 
Q 2884 3475 3122 3366 
z
" transform="scale(0.015625)"/>
       <path id="DejaVuSans-6f" d="M 1959 3097 
Q 1497 3097 1228 2736 
Q 959 2375 959 1747 
Q 959 1119 1226 758 
Q 1494 397 1959 397 
Q 2419 397 2687 759 
Q 2956 1122 2956 1747 
Q 2956 2369 2687 2733 
Q 2419 3097 1959 3097 
z
M 1959 3584 
Q 2709 3584 3137 3096 
Q 3566 2609 3566 1747 
Q 3566 888 3137 398 
Q 2709 -91 1959 -91 
Q 1206 -91 779 398 
Q 353 888 353 1747 
Q 353 2609 779 3096 
Q 1206 3584 1959 3584 
z
" transform="scale(0.015625)"/>
       <path id="DejaVuSans-72" d="M 2631 2963 
Q 2534 3019 2420 3045 
Q 2306 3072 2169 3072 
Q 1681 3072 1420 2755 
Q 1159 2438 1159 1844 
L 1159 0 
L 581 0 
L 581 3500 
L 1159 3500 
L 1159 2956 
Q 1341 3275 1631 3429 
Q 1922 3584 2338 3584 
Q 2397 3584 2469 3576 
Q 2541 3569 2628 3553 
L 2631 2963 
z
" transform="scale(0.015625)"/>
       <path id="DejaVuSans-65" d="M 3597 1894 
L 3597 1613 
L 953 1613 
Q 991 1019 1311 708 
Q 1631 397 2203 397 
Q 2534 397 2845 478 
Q 3156 559 3463 722 
L 3463 178 
Q 3153 47 2828 -22 
Q 2503 -91 2169 -91 
Q 1331 -91 842 396 
Q 353 884 353 1716 
Q 353 2575 817 3079 
Q 1281 3584 2069 3584 
Q 2775 3584 3186 3129 
Q 3597 2675 3597 1894 
z
M 3022 2063 
Q 3016 2534 2758 2815 
Q 2500 3097 2075 3097 
Q 1594 3097 1305 2825 
Q 1016 2553 972 2059 
L 3022 2063 
z
" transform="scale(0.015625)"/>
      </defs>
      <use xlink:href="#DejaVuSans-53"/>
      <use xlink:href="#DejaVuSans-63" transform="translate(63.476562 0)"/>
      <use xlink:href="#DejaVuSans-6f" transform="translate(118.457031 0)"/>
      <use xlink:href="#DejaVuSans-72" transform="translate(179.638672 0)"/>
      <use xlink:href="#DejaVuSans-65" transform="translate(218.501953 0)"/>
     </g>
    </g>
   </g>
   <g id="LineCollection_1"/>
   <g id="patch_8">
    <path d="M 405.557491 316.44327 
L 413.193592 316.44327 
L 420.829693 316.44327 
L 420.829693 10.999219 
L 413.193592 10.999219 
L 405.557491 10.999219 
L 405.557491 316.44327 
z
" style="fill: none; stroke: #000000; stroke-width: 0.8; stroke-linejoin: miter; stroke-linecap: square"/>
   </g>
  </g>
 </g>
 <defs>
  <clipPath id="pca30bcc2e4">
   <rect x="43.78125" y="10.999219" width="333.358325" height="305.444051"/>
  </clipPath>
  <clipPath id="p5194d1f9fc">
   <rect x="405.557491" y="10.999219" width="15.272203" height="305.444051"/>
  </clipPath>
 </defs>
</svg>
