<?xml version="1.0" encoding="utf-8" standalone="no"?>
<!DOCTYPE svg PUBLIC "-//W3C//DTD SVG 1.1//EN"
  "http://www.w3.org/Graphics/SVG/1.1/DTD/svg11.dtd">
<svg xmlns:xlink="http://www.w3.org/1999/xlink" width="460.8pt" height="345.6pt" viewBox="0 0 460.8 345.6" xmlns="http://www.w3.org/2000/svg" version="1.1">
 <metadata>
  <rdf:RDF xmlns:dc="http://purl.org/dc/elements/1.1/" xmlns:cc="http://creativecommons.org/ns#" xmlns:rdf="http://www.w3.org/1999/02/22-rdf-syntax-ns#">
   <cc:Work>
    <dc:type rdf:resource="http://purl.org/dc/dcmitype/StillImage"/>
    <dc:date>1970-01-01T00:00:00+00:00</dc:date>
    <dc:format>image/svg+xml</dc:format>
    <dc:creator>
     <cc:Agent>
      <dc:title>Matplotlib v3.10.7, https://matplotlib.org/</dc:title>
     </cc:Agent>
    </dc:creator>
   </cc:Work>
  </rdf:RDF>
 </metadata>
 <defs>
  <style type="text/css">*{stroke-linejoin: round; stroke-linecap: butt}</style>
 </defs>
 <g id="figure_1">
  <g id="patch_1">
   <path d="M 0 345.6 
L 460.8 345.6 
L 460.8 0 
L 0 0 
z
" style="fill: #ffffff"/>
  </g>
  <g id="axes_1">
   <g id="patch_2">
    <path d="M 39.58149 312.24351 
L 373.50576 312.24351 
L 373.50576 18.118365 
L 39.58149 18.118365 
z
" style="fill: #ffffff"/>
   </g>
   <g id="QuadContourSet_1">
    <path d="M 206.543625 312.24351 
L 209.060488 312.24351 
L 206.543625 310.991484 
L 203.781642 312.24351 
z
" clip-path="url(#p085cb4278f)" style="fill: #470d60"/>
    <path d="M 150.88958 291.498535 
L 176.198673 312.24351 
L 178.716602 312.24351 
L 203.781642 312.24351 
L 206.543625 310.991484 
L 209.060488 312.24351 
L 232.845371 312.24351 
L 206.543625 295.304989 
L 198.936285 287.733081 
L 178.716602 275.918914 
L 163.809547 263.222652 
L 150.88958 256.057335 
L 129.529809 238.712224 
L 123.062557 235.517628 
L 95.861457 214.201795 
L 95.235535 213.864287 
L 67.408512 198.06649 
L 56.328766 189.691366 
L 39.58149 181.922336 
L 22.491052 189.691366 
L 39.58149 209.211462 
L 44.276835 214.201795 
L 67.408512 224.971759 
L 83.128451 238.712224 
L 95.235535 246.951366 
L 115.08471 263.222652 
L 123.062557 269.553823 
L 146.264997 287.733081 
z
M -16.072555 166.433489 
L 11.754468 181.29645 
L 21.744378 165.180938 
L 11.754468 160.107115 
L -7.16691 140.670509 
L -16.072555 135.774295 
L -40.922992 140.670509 
L -17.547161 165.180938 
z
M -43.899577 134.115665 
L -41.791275 116.16008 
L -43.899577 115.02481 
L -57.872864 116.16008 
z
" clip-path="url(#p085cb4278f)" style="fill: #482475"/>
    <path d="M 150.88958 297.535175 
L 170.095648 312.24351 
L 176.198673 312.24351 
L 150.88958 291.498535 
L 146.264997 287.733081 
L 123.062557 269.553823 
L 115.08471 263.222652 
L 95.235535 246.951366 
L 83.128451 238.712224 
L 67.408512 224.971759 
L 44.276835 214.201795 
L 39.58149 209.211462 
L 22.491052 189.691366 
L 39.58149 181.922336 
L 56.328766 189.691366 
L 67.408512 198.06649 
L 95.235535 213.864287 
L 95.861457 214.201795 
L 123.062557 235.517628 
L 129.529809 238.712224 
L 150.88958 256.057335 
L 163.809547 263.222652 
L 178.716602 275.918914 
L 198.936285 287.733081 
L 206.543625 295.304989 
L 232.845371 312.24351 
L 234.370647 312.24351 
L 240.927876 312.24351 
L 234.370647 307.796189 
L 210.552296 287.733081 
L 206.543625 285.123085 
L 178.716602 263.715848 
L 178.215716 263.222652 
L 150.88958 245.450481 
L 143.668913 238.712224 
L 123.062557 226.849892 
L 108.810233 214.201795 
L 95.235535 205.805598 
L 76.199037 189.691366 
L 67.408512 184.331849 
L 42.789881 165.180938 
L 39.58149 163.310272 
L 11.754468 144.190334 
L 8.832424 140.670509 
L -16.072555 124.357677 
L -25.222058 116.16008 
L -43.899577 104.149101 
L -58.379598 91.649651 
L -71.7266 83.40559 
L -71.7266 91.649651 
L -71.7266 116.16008 
L -71.7266 140.670509 
L -71.7266 141.310727 
L -43.899577 156.744188 
L -33.377019 165.180938 
L -16.072555 177.72589 
L 1.403661 189.691366 
L 11.754468 198.284677 
L 31.026169 214.201795 
L 39.58149 221.329849 
L 65.335003 238.712224 
L 67.408512 240.211105 
L 95.235535 257.461903 
L 103.226841 263.222652 
L 123.062557 277.229164 
L 137.782227 287.733081 
z
M -17.547161 165.180938 
L -40.922992 140.670509 
L -16.072555 135.774295 
L -7.16691 140.670509 
L 11.754468 160.107115 
L 21.744378 165.180938 
L 11.754468 181.29645 
L -16.072555 166.433489 
z
M -57.872864 116.16008 
L -43.899577 115.02481 
L -41.791275 116.16008 
L -43.899577 134.115665 
z
" clip-path="url(#p085cb4278f)" style="fill: #443983"/>
    <path d="M 150.88958 303.571814 
L 163.109242 312.24351 
L 170.095648 312.24351 
L 150.88958 297.535175 
L 137.782227 287.733081 
L 123.062557 277.229164 
L 103.226841 263.222652 
L 95.235535 257.461903 
L 67.408512 240.211105 
L 65.335003 238.712224 
L 39.58149 221.329849 
L 31.026169 214.201795 
L 11.754468 198.284677 
L 1.403661 189.691366 
L -16.072555 177.72589 
L -33.377019 165.180938 
L -43.899577 156.744188 
L -71.7266 141.310727 
L -71.7266 152.103791 
L -50.463142 165.180938 
L -43.899577 171.173058 
L -16.072555 189.01829 
L -14.902567 189.691366 
L 11.754468 208.589089 
L 19.456613 214.201795 
L 39.58149 229.166294 
L 55.375052 238.712224 
L 67.408512 246.579032 
L 92.011602 263.222652 
L 95.235535 265.219429 
L 123.062557 284.904505 
L 127.487268 287.733081 
z
M 234.370647 307.796189 
L 240.927876 312.24351 
L 247.187714 312.24351 
L 234.370647 302.949039 
L 217.469556 287.733081 
L 206.543625 280.077641 
L 186.457689 263.222652 
L 178.716602 258.06185 
L 154.234069 238.712224 
L 150.88958 236.600299 
L 123.062557 218.182157 
L 119.013106 214.201795 
L 95.235535 197.746909 
L 86.650199 189.691366 
L 67.408512 176.552251 
L 54.33527 165.180938 
L 39.58149 155.451697 
L 21.679208 140.670509 
L 11.754468 134.318052 
L -12.018222 116.16008 
L -16.072555 113.71417 
L -43.899577 93.273392 
L -45.55298 91.649651 
L -71.7266 73.022248 
L -71.7266 83.40559 
L -58.379598 91.649651 
L -43.899577 104.149101 
L -25.222058 116.16008 
L -16.072555 124.357677 
L 8.832424 140.670509 
L 11.754468 144.190334 
L 39.58149 163.310272 
L 42.789881 165.180938 
L 67.408512 184.331849 
L 76.199037 189.691366 
L 95.235535 205.805598 
L 108.810233 214.201795 
L 123.062557 226.849892 
L 143.668913 238.712224 
L 150.88958 245.450481 
L 178.215716 263.222652 
L 178.716602 263.715848 
L 206.543625 285.123085 
L 210.552296 287.733081 
z
" clip-path="url(#p085cb4278f)" style="fill: #3d4d8a"/>
    <path d="M 123.062557 289.773492 
L 150.88958 309.608453 
L 154.939734 312.24351 
L 163.109242 312.24351 
L 150.88958 303.571814 
L 127.487268 287.733081 
L 123.062557 284.904505 
L 95.235535 265.219429 
L 92.011602 263.222652 
L 67.408512 246.579032 
L 55.375052 238.712224 
L 39.58149 229.166294 
L 19.456613 214.201795 
L 11.754468 208.589089 
L -14.902567 189.691366 
L -16.072555 189.01829 
L -43.899577 171.173058 
L -50.463142 165.180938 
L -71.7266 152.103791 
L -71.7266 162.896856 
L -67.273256 165.180938 
L -43.899577 183.275376 
L -31.944421 189.691366 
L -16.072555 196.271929 
L 8.451942 214.201795 
L 11.754468 216.644903 
L 39.58149 237.002739 
L 42.815879 238.712224 
L 67.408512 252.94696 
L 84.00659 263.222652 
L 95.235535 269.637984 
L 120.150113 287.733081 
z
M 234.370647 302.949039 
L 247.187714 312.24351 
L 252.729085 312.24351 
L 234.370647 298.101888 
L 223.519771 287.733081 
L 206.543625 275.032197 
L 193.390284 263.222652 
L 178.716602 252.683686 
L 162.369298 238.712224 
L 150.88958 230.80986 
L 128.69015 214.201795 
L 123.062557 210.572775 
L 95.240254 189.691366 
L 95.235535 189.688492 
L 67.408512 168.772653 
L 63.647931 165.180938 
L 39.58149 147.593122 
L 32.011574 140.670509 
L 11.754468 126.161963 
L 0.115736 116.16008 
L -16.072555 105.039474 
L -32.097457 91.649651 
L -43.899577 83.801221 
L -64.944074 67.139223 
L -71.7266 62.825324 
L -71.7266 67.139223 
L -71.7266 73.022248 
L -45.55298 91.649651 
L -43.899577 93.273392 
L -16.072555 113.71417 
L -12.018222 116.16008 
L 11.754468 134.318052 
L 21.679208 140.670509 
L 39.58149 155.451697 
L 54.33527 165.180938 
L 67.408512 176.552251 
L 86.650199 189.691366 
L 95.235535 197.746909 
L 119.013106 214.201795 
L 123.062557 218.182157 
L 150.88958 236.600299 
L 154.234069 238.712224 
L 178.716602 258.06185 
L 186.457689 263.222652 
L 206.543625 280.077641 
L 217.469556 287.733081 
z
" clip-path="url(#p085cb4278f)" style="fill: #355f8d"/>
    <path d="M 123.062557 293.004689 
L 149.024938 312.24351 
L 150.88958 312.24351 
L 154.939734 312.24351 
L 150.88958 309.608453 
L 123.062557 289.773492 
L 120.150113 287.733081 
L 95.235535 269.637984 
L 84.00659 263.222652 
L 67.408512 252.94696 
L 42.815879 238.712224 
L 39.58149 237.002739 
L 11.754468 216.644903 
L 8.451942 214.201795 
L -16.072555 196.271929 
L -31.944421 189.691366 
L -43.899577 183.275376 
L -67.273256 165.180938 
L -71.7266 162.896856 
L -71.7266 165.180938 
L -71.7266 170.125658 
L -46.751516 189.691366 
L -43.899577 192.600021 
L -16.072555 203.269582 
L 0.293837 214.201795 
L 11.754468 222.010711 
L 35.135736 238.712224 
L 39.58149 243.263406 
L 67.408512 259.314887 
L 74.407671 263.222652 
L 95.235535 274.056539 
L 115.145884 287.733081 
z
M 234.370647 298.101888 
L 252.729085 312.24351 
L 257.700063 312.24351 
L 234.370647 293.254738 
L 228.896288 287.733081 
L 206.543625 269.986753 
L 199.452223 263.222652 
L 178.716602 247.305522 
L 169.330636 238.712224 
L 150.88958 225.01942 
L 137.632959 214.201795 
L 123.062557 203.862113 
L 106.029443 189.691366 
L 95.235535 182.324817 
L 74.002912 165.180938 
L 67.408512 160.865284 
L 41.250842 140.670509 
L 39.58149 139.630368 
L 11.754468 118.005875 
L 9.806897 116.16008 
L -16.072555 96.364779 
L -21.131293 91.649651 
L -43.899577 74.575375 
L -52.185488 67.139223 
L -71.7266 52.872094 
L -71.7266 62.825324 
L -64.944074 67.139223 
L -43.899577 83.801221 
L -32.097457 91.649651 
L -16.072555 105.039474 
L 0.115736 116.16008 
L 11.754468 126.161963 
L 32.011574 140.670509 
L 39.58149 147.593122 
L 63.647931 165.180938 
L 67.408512 168.772653 
L 95.235535 189.688492 
L 95.240254 189.691366 
L 123.062557 210.572775 
L 128.69015 214.201795 
L 150.88958 230.80986 
L 162.369298 238.712224 
L 178.716602 252.683686 
L 193.390284 263.222652 
L 206.543625 275.032197 
L 223.519771 287.733081 
z
" clip-path="url(#p085cb4278f)" style="fill: #2d708e"/>
    <path d="M 123.062557 296.235885 
L 145.52768 312.24351 
L 149.024938 312.24351 
L 123.062557 293.004689 
L 115.145884 287.733081 
L 95.235535 274.056539 
L 74.407671 263.222652 
L 67.408512 259.314887 
L 39.58149 243.263406 
L 35.135736 238.712224 
L 11.754468 222.010711 
L 0.293837 214.201795 
L -16.072555 203.269582 
L -43.899577 192.600021 
L -46.751516 189.691366 
L -71.7266 170.125658 
L -71.7266 176.397699 
L -53.446967 189.691366 
L -43.899577 198.790564 
L -16.072555 210.267234 
L -9.526285 214.201795 
L 11.754468 227.376519 
L 28.779771 238.712224 
L 39.58149 249.084415 
L 64.414255 263.222652 
L 67.408512 264.918614 
L 95.235535 278.475094 
L 109.563152 287.733081 
z
M 234.370647 293.254738 
L 257.700063 312.24351 
L 262.19767 312.24351 
L 262.215696 312.24351 
L 262.19767 312.231504 
L 234.370647 288.407588 
L 233.734223 287.733081 
L 206.543625 264.941309 
L 204.837995 263.222652 
L 178.716602 241.927358 
L 175.414529 238.712224 
L 150.88958 219.22898 
L 145.176822 214.201795 
L 123.062557 197.15145 
L 114.844504 189.691366 
L 95.235535 174.961142 
L 84.279992 165.180938 
L 67.408512 152.848333 
L 53.372645 140.670509 
L 39.58149 130.897083 
L 22.334455 116.16008 
L 11.754468 108.897709 
L -9.112471 91.649651 
L -16.072555 87.413458 
L -40.924647 67.139223 
L -43.899577 65.231443 
L -71.7266 42.918863 
L -71.7266 52.872094 
L -52.185488 67.139223 
L -43.899577 74.575375 
L -21.131293 91.649651 
L -16.072555 96.364779 
L 9.806897 116.16008 
L 11.754468 118.005875 
L 39.58149 139.630368 
L 41.250842 140.670509 
L 67.408512 160.865284 
L 74.002912 165.180938 
L 95.235535 182.324817 
L 106.029443 189.691366 
L 123.062557 203.862113 
L 137.632959 214.201795 
L 150.88958 225.01942 
L 169.330636 238.712224 
L 178.716602 247.305522 
L 199.452223 263.222652 
L 206.543625 269.986753 
L 228.896288 287.733081 
z
" clip-path="url(#p085cb4278f)" style="fill: #27808e"/>
    <path d="M 123.062557 299.467082 
L 141.757537 312.24351 
L 145.52768 312.24351 
L 123.062557 296.235885 
L 109.563152 287.733081 
L 95.235535 278.475094 
L 67.408512 264.918614 
L 64.414255 263.222652 
L 39.58149 249.084415 
L 28.779771 238.712224 
L 11.754468 227.376519 
L -9.526285 214.201795 
L -16.072555 210.267234 
L -43.899577 198.790564 
L -53.446967 189.691366 
L -71.7266 176.397699 
L -71.7266 182.669739 
L -61.221198 189.691366 
L -43.899577 204.981108 
L -21.133857 214.201795 
L -16.072555 216.673782 
L 11.754468 232.742328 
L 21.459748 238.712224 
L 39.58149 254.905424 
L 55.674237 263.222652 
L 67.408512 269.308472 
L 95.235535 282.893648 
L 103.250466 287.733081 
z
M 234.370647 288.407588 
L 262.19767 312.231504 
L 262.215696 312.24351 
L 269.744735 312.24351 
L 262.19767 306.804332 
L 241.258708 287.733081 
L 234.370647 282.82255 
L 212.250453 263.222652 
L 206.543625 259.221016 
L 182.560994 238.712224 
L 178.716602 236.086483 
L 152.292458 214.201795 
L 150.88958 213.266053 
L 123.062557 190.440788 
L 122.297329 189.691366 
L 95.235535 167.597467 
L 92.750635 165.180938 
L 67.408512 144.831382 
L 63.056065 140.670509 
L 39.58149 122.163797 
L 33.278325 116.16008 
L 11.754468 99.511056 
L 3.338443 91.649651 
L -16.072555 78.132727 
L -27.957113 67.139223 
L -43.899577 55.396866 
L -57.83241 42.628794 
L -71.7266 32.564896 
L -71.7266 42.628794 
L -71.7266 42.918863 
L -43.899577 65.231443 
L -40.924647 67.139223 
L -16.072555 87.413458 
L -9.112471 91.649651 
L 11.754468 108.897709 
L 22.334455 116.16008 
L 39.58149 130.897083 
L 53.372645 140.670509 
L 67.408512 152.848333 
L 84.279992 165.180938 
L 95.235535 174.961142 
L 114.844504 189.691366 
L 123.062557 197.15145 
L 145.176822 214.201795 
L 150.88958 219.22898 
L 175.414529 238.712224 
L 178.716602 241.927358 
L 204.837995 263.222652 
L 206.543625 264.941309 
L 233.734223 287.733081 
z
" clip-path="url(#p085cb4278f)" style="fill: #21918c"/>
    <path d="M 123.062557 302.698278 
L 137.668293 312.24351 
L 141.757537 312.24351 
L 123.062557 299.467082 
L 103.250466 287.733081 
L 95.235535 282.893648 
L 67.408512 269.308472 
L 55.674237 263.222652 
L 39.58149 254.905424 
L 21.459748 238.712224 
L 11.754468 232.742328 
L -16.072555 216.673782 
L -21.133857 214.201795 
L -43.899577 204.981108 
L -61.221198 189.691366 
L -71.7266 182.669739 
L -71.7266 188.94178 
L -70.489872 189.691366 
L -43.899577 211.171652 
L -35.180017 214.201795 
L -16.072555 222.32105 
L 11.754468 238.108136 
L 12.830008 238.712224 
L 39.58149 260.726432 
L 44.997402 263.222652 
L 67.408512 273.698329 
L 95.235535 287.312203 
L 95.987814 287.733081 
z
M 262.19767 306.804332 
L 269.744735 312.24351 
L 276.257616 312.24351 
L 262.19767 301.377159 
L 248.194109 287.733081 
L 234.370647 277.118232 
L 219.793742 263.222652 
L 206.543625 253.152089 
L 190.973176 238.712224 
L 178.716602 229.557834 
L 161.786087 214.201795 
L 150.88958 206.167034 
L 132.493866 189.691366 
L 123.062557 182.83679 
L 103.099101 165.180938 
L 95.235535 159.640759 
L 73.512431 140.670509 
L 67.408512 136.450434 
L 43.865194 116.16008 
L 39.58149 113.26823 
L 14.140883 91.649651 
L 11.754468 90.06916 
L -16.072555 68.851996 
L -17.742624 67.139223 
L -43.899577 45.562289 
L -46.763873 42.628794 
L -71.7266 22.198899 
L -71.7266 32.564896 
L -57.83241 42.628794 
L -43.899577 55.396866 
L -27.957113 67.139223 
L -16.072555 78.132727 
L 3.338443 91.649651 
L 11.754468 99.511056 
L 33.278325 116.16008 
L 39.58149 122.163797 
L 63.056065 140.670509 
L 67.408512 144.831382 
L 92.750635 165.180938 
L 95.235535 167.597467 
L 122.297329 189.691366 
L 123.062557 190.440788 
L 150.88958 213.266053 
L 152.292458 214.201795 
L 178.716602 236.086483 
L 182.560994 238.712224 
L 206.543625 259.221016 
L 212.250453 263.222652 
L 234.370647 282.82255 
L 241.258708 287.733081 
z
" clip-path="url(#p085cb4278f)" style="fill: #1fa188"/>
    <path d="M 95.235535 295.087758 
L 123.062557 305.929475 
L 133.200894 312.24351 
L 137.668293 312.24351 
L 123.062557 302.698278 
L 95.987814 287.733081 
L 95.235535 287.312203 
L 67.408512 273.698329 
L 44.997402 263.222652 
L 39.58149 260.726432 
L 12.830008 238.712224 
L 11.754468 238.108136 
L -16.072555 222.32105 
L -35.180017 214.201795 
L -43.899577 211.171652 
L -70.489872 189.691366 
L -71.7266 188.94178 
L -71.7266 189.691366 
L -71.7266 196.64502 
L -48.021593 214.201795 
L -43.899577 218.898394 
L -16.072555 227.968318 
L 4.50795 238.712224 
L 11.754468 245.833946 
L 34.953269 263.222652 
L 39.58149 268.460177 
L 67.408512 278.088187 
L 88.633552 287.733081 
z
M 262.19767 301.377159 
L 276.257616 312.24351 
L 281.996298 312.24351 
L 262.19767 295.949987 
L 254.258191 287.733081 
L 234.370647 271.413915 
L 226.317278 263.222652 
L 206.543625 247.083162 
L 198.136177 238.712224 
L 178.716602 223.029185 
L 169.71781 214.201795 
L 150.88958 199.068016 
L 141.288521 189.691366 
L 123.062557 175.120486 
L 112.848631 165.180938 
L 95.235535 151.394373 
L 84.168459 140.670509 
L 67.408512 127.67672 
L 55.469842 116.16008 
L 39.58149 104.015722 
L 26.69095 91.649651 
L 11.754468 80.342538 
L -3.685329 67.139223 
L -16.072555 58.015948 
L -32.614951 42.628794 
L -43.899577 34.40922 
L -61.472628 18.118365 
L -71.7266 18.118365 
L -71.7266 22.198899 
L -46.763873 42.628794 
L -43.899577 45.562289 
L -17.742624 67.139223 
L -16.072555 68.851996 
L 11.754468 90.06916 
L 14.140883 91.649651 
L 39.58149 113.26823 
L 43.865194 116.16008 
L 67.408512 136.450434 
L 73.512431 140.670509 
L 95.235535 159.640759 
L 103.099101 165.180938 
L 123.062557 182.83679 
L 132.493866 189.691366 
L 150.88958 206.167034 
L 161.786087 214.201795 
L 178.716602 229.557834 
L 190.973176 238.712224 
L 206.543625 253.152089 
L 219.793742 263.222652 
L 234.370647 277.118232 
L 248.194109 287.733081 
z
" clip-path="url(#p085cb4278f)" style="fill: #2ab07f"/>
    <path d="M 95.235535 303.216741 
L 123.062557 309.160672 
L 128.278207 312.24351 
L 133.200894 312.24351 
L 123.062557 305.929475 
L 95.235535 295.087758 
L 88.633552 287.733081 
L 67.408512 278.088187 
L 39.58149 268.460177 
L 34.953269 263.222652 
L 11.754468 245.833946 
L 4.50795 238.712224 
L -16.072555 227.968318 
L -43.899577 218.898394 
L -48.021593 214.201795 
L -71.7266 196.64502 
L -71.7266 204.542524 
L -57.283135 214.201795 
L -43.899577 228.098022 
L -16.072555 233.615586 
L -5.2176 238.712224 
L 11.754468 253.859154 
L 25.600503 263.222652 
L 39.58149 277.629985 
L 67.408512 282.478044 
L 80.104723 287.733081 
z
M 262.19767 295.949987 
L 281.996298 312.24351 
L 287.12544 312.24351 
L 262.19767 290.522814 
L 259.645655 287.733081 
L 234.370647 265.709597 
L 232.064228 263.222652 
L 206.543625 241.014235 
L 204.373474 238.712224 
L 178.716602 216.500536 
L 176.529684 214.201795 
L 150.88958 191.968997 
L 148.726766 189.691366 
L 123.062557 167.404182 
L 120.958009 165.180938 
L 95.235535 143.147986 
L 92.894548 140.670509 
L 67.408512 118.903005 
L 64.820955 116.16008 
L 39.58149 94.763213 
L 36.645184 91.649651 
L 11.754468 70.615915 
L 8.142557 67.139223 
L -16.072555 46.827903 
L -20.05521 42.628794 
L -43.899577 22.695689 
L -48.227308 18.118365 
L -61.472628 18.118365 
L -43.899577 34.40922 
L -32.614951 42.628794 
L -16.072555 58.015948 
L -3.685329 67.139223 
L 11.754468 80.342538 
L 26.69095 91.649651 
L 39.58149 104.015722 
L 55.469842 116.16008 
L 67.408512 127.67672 
L 84.168459 140.670509 
L 95.235535 151.394373 
L 112.848631 165.180938 
L 123.062557 175.120486 
L 141.288521 189.691366 
L 150.88958 199.068016 
L 169.71781 214.201795 
L 178.716602 223.029185 
L 198.136177 238.712224 
L 206.543625 247.083162 
L 226.317278 263.222652 
L 234.370647 271.413915 
L 254.258191 287.733081 
z
" clip-path="url(#p085cb4278f)" style="fill: #44bf70"/>
    <path d="M 95.235535 311.345723 
L 116.412801 312.24351 
L 123.062557 312.24351 
L 128.278207 312.24351 
L 123.062557 309.160672 
L 95.235535 303.216741 
L 80.104723 287.733081 
L 67.408512 282.478044 
L 39.58149 277.629985 
L 25.600503 263.222652 
L 11.754468 253.859154 
L -5.2176 238.712224 
L -16.072555 233.615586 
L -43.899577 228.098022 
L -57.283135 214.201795 
L -71.7266 204.542524 
L -71.7266 212.440027 
L -68.74993 214.201795 
L -43.899577 237.297649 
L -25.07004 238.712224 
L -16.072555 251.846697 
L 11.754468 261.884362 
L 13.993305 263.222652 
L 39.58149 286.799793 
L 67.408512 286.867901 
L 69.74176 287.733081 
z
M 262.19767 290.522814 
L 287.12544 312.24351 
L 290.024692 312.24351 
L 296.450633 312.24351 
L 290.024692 307.477866 
L 270.255212 287.733081 
L 262.19767 281.610646 
L 243.861289 263.222652 
L 234.370647 255.805011 
L 217.390285 238.712224 
L 206.543625 230.27006 
L 190.485506 214.201795 
L 178.716602 204.833005 
L 163.802184 189.691366 
L 150.88958 179.595475 
L 136.829317 165.180938 
L 123.062557 154.335719 
L 109.420211 140.670509 
L 95.235535 129.317001 
L 82.169502 116.16008 
L 67.408512 104.079772 
L 55.035778 91.649651 
L 39.58149 78.74218 
L 28.144767 67.139223 
L 11.754468 53.752609 
L 0.865231 42.628794 
L -16.072555 29.172422 
L -26.865388 18.118365 
L -43.899577 18.118365 
L -48.227308 18.118365 
L -43.899577 22.695689 
L -20.05521 42.628794 
L -16.072555 46.827903 
L 8.142557 67.139223 
L 11.754468 70.615915 
L 36.645184 91.649651 
L 39.58149 94.763213 
L 64.820955 116.16008 
L 67.408512 118.903005 
L 92.894548 140.670509 
L 95.235535 143.147986 
L 120.958009 165.180938 
L 123.062557 167.404182 
L 148.726766 189.691366 
L 150.88958 191.968997 
L 176.529684 214.201795 
L 178.716602 216.500536 
L 204.373474 238.712224 
L 206.543625 241.014235 
L 232.064228 263.222652 
L 234.370647 265.709597 
L 259.645655 287.733081 
z
" clip-path="url(#p085cb4278f)" style="fill: #67cc5c"/>
    <path d="M 11.754468 304.28892 
L 39.58149 306.625026 
L 50.468109 312.24351 
L 67.408512 312.24351 
L 95.235535 312.24351 
L 116.412801 312.24351 
L 95.235535 311.345723 
L 69.74176 287.733081 
L 67.408512 286.867901 
L 39.58149 286.799793 
L 13.993305 263.222652 
L 11.754468 261.884362 
L -16.072555 251.846697 
L -25.07004 238.712224 
L -43.899577 237.297649 
L -68.74993 214.201795 
L -71.7266 212.440027 
L -71.7266 214.201795 
L -71.7266 238.712224 
L -71.7266 257.454144 
L -60.318595 263.222652 
L -43.899577 279.693868 
L -16.072555 281.922924 
L -4.769425 287.733081 
z
M 290.024692 307.477866 
L 296.450633 312.24351 
L 309.961865 312.24351 
L 290.024692 295.131725 
L 283.526779 287.733081 
L 262.19767 269.012248 
L 257.137164 263.222652 
L 234.370647 242.653728 
L 230.950678 238.712224 
L 206.543625 216.668783 
L 204.398996 214.201795 
L 178.716602 190.372753 
L 178.135625 189.691366 
L 152.222407 165.180938 
L 150.88958 164.162813 
L 127.665664 140.670509 
L 123.062557 137.16329 
L 103.348839 116.16008 
L 95.235535 109.594898 
L 79.387026 91.649651 
L 67.408512 81.245704 
L 55.582915 67.139223 
L 39.58149 53.10937 
L 30.463142 42.628794 
L 11.754468 26.398136 
L 4.2607 18.118365 
L -16.072555 18.118365 
L -26.865388 18.118365 
L -16.072555 29.172422 
L 0.865231 42.628794 
L 11.754468 53.752609 
L 28.144767 67.139223 
L 39.58149 78.74218 
L 55.035778 91.649651 
L 67.408512 104.079772 
L 82.169502 116.16008 
L 95.235535 129.317001 
L 109.420211 140.670509 
L 123.062557 154.335719 
L 136.829317 165.180938 
L 150.88958 179.595475 
L 163.802184 189.691366 
L 178.716602 204.833005 
L 190.485506 214.201795 
L 206.543625 230.27006 
L 217.390285 238.712224 
L 234.370647 255.805011 
L 243.861289 263.222652 
L 262.19767 281.610646 
L 270.255212 287.733081 
z
" clip-path="url(#p085cb4278f)" style="fill: #90d743"/>
    <path d="M -43.899577 312.24351 
L -16.072555 312.24351 
L 11.754468 312.24351 
L 39.58149 312.24351 
L 50.468109 312.24351 
L 39.58149 306.625026 
L 11.754468 304.28892 
L -4.769425 287.733081 
L -16.072555 281.922924 
L -43.899577 279.693868 
L -60.318595 263.222652 
L -71.7266 257.454144 
L -71.7266 263.222652 
L -71.7266 287.733081 
L -71.7266 312.24351 
z
M 290.024692 295.131725 
L 309.961865 312.24351 
L 317.851715 312.24351 
L 336.113992 312.24351 
L 317.851715 296.797966 
L 311.39773 287.733081 
L 290.024692 268.803548 
L 286.072117 263.222652 
L 262.19767 241.310329 
L 260.390681 238.712224 
L 234.984325 214.201795 
L 234.370647 213.741327 
L 219.134679 189.691366 
L 206.543625 178.870161 
L 198.142069 165.180938 
L 178.716602 147.132554 
L 174.711881 140.670509 
L 150.88958 117.327172 
L 150.084532 116.16008 
L 139.47005 91.649651 
L 150.88958 80.852079 
L 164.399137 91.649651 
L 178.716602 104.718911 
L 192.679655 116.16008 
L 206.543625 129.661413 
L 219.767797 140.670509 
L 234.370647 155.375009 
L 246.056825 165.180938 
L 262.19767 181.802588 
L 271.479473 189.691366 
L 290.024692 209.1497 
L 295.885639 214.201795 
L 317.851715 237.874415 
L 318.824575 238.712224 
L 340.816442 263.222652 
L 345.678737 269.279583 
L 361.910619 287.733081 
L 373.50576 303.744942 
L 380.556562 312.24351 
L 401.332782 312.24351 
L 429.159805 312.24351 
L 456.986827 312.24351 
L 484.81385 312.24351 
L 512.640872 312.24351 
L 540.467895 312.24351 
L 568.294917 312.24351 
L 596.12194 312.24351 
L 623.948962 312.24351 
L 651.775985 312.24351 
L 679.603007 312.24351 
L 707.43003 312.24351 
L 735.257052 312.24351 
L 763.084075 312.24351 
L 790.911097 312.24351 
L 818.73812 312.24351 
L 846.565142 312.24351 
L 874.392165 312.24351 
L 902.219187 312.24351 
L 930.04621 312.24351 
L 957.873232 312.24351 
L 985.700255 312.24351 
L 1013.527277 312.24351 
L 1041.3543 312.24351 
L 1069.181322 312.24351 
L 1097.008345 312.24351 
L 1124.835367 312.24351 
L 1152.66239 312.24351 
L 1152.66239 287.733081 
L 1152.66239 263.222652 
L 1152.66239 238.712224 
L 1152.66239 214.201795 
L 1152.66239 189.691366 
L 1152.66239 165.180938 
L 1152.66239 140.670509 
L 1152.66239 116.16008 
L 1152.66239 91.649651 
L 1152.66239 67.139223 
L 1152.66239 42.628794 
L 1152.66239 18.118365 
L 1124.835367 18.118365 
L 1097.008345 18.118365 
L 1069.181322 18.118365 
L 1041.3543 18.118365 
L 1013.527277 18.118365 
L 985.700255 18.118365 
L 957.873232 18.118365 
L 930.04621 18.118365 
L 902.219187 18.118365 
L 874.392165 18.118365 
L 846.565142 18.118365 
L 818.73812 18.118365 
L 790.911097 18.118365 
L 763.084075 18.118365 
L 735.257052 18.118365 
L 707.43003 18.118365 
L 679.603007 18.118365 
L 651.775985 18.118365 
L 623.948962 18.118365 
L 596.12194 18.118365 
L 568.294917 18.118365 
L 540.467895 18.118365 
L 512.640872 18.118365 
L 484.81385 18.118365 
L 456.986827 18.118365 
L 429.159805 18.118365 
L 401.332782 18.118365 
L 373.50576 18.118365 
L 345.678737 18.118365 
L 317.851715 18.118365 
L 290.024692 18.118365 
L 262.19767 18.118365 
L 234.370647 18.118365 
L 206.543625 18.118365 
L 178.716602 18.118365 
L 150.88958 18.118365 
L 123.062557 18.118365 
L 95.235535 18.118365 
L 67.408512 18.118365 
L 39.58149 18.118365 
L 11.754468 18.118365 
L 4.2607 18.118365 
L 11.754468 26.398136 
L 30.463142 42.628794 
L 39.58149 53.10937 
L 55.582915 67.139223 
L 67.408512 81.245704 
L 79.387026 91.649651 
L 95.235535 109.594898 
L 103.348839 116.16008 
L 123.062557 137.16329 
L 127.665664 140.670509 
L 150.88958 164.162813 
L 152.222407 165.180938 
L 178.135625 189.691366 
L 178.716602 190.372753 
L 204.398996 214.201795 
L 206.543625 216.668783 
L 230.950678 238.712224 
L 234.370647 242.653728 
L 257.137164 263.222652 
L 262.19767 269.012248 
L 283.526779 287.733081 
z
M 119.225791 67.139223 
L 123.062557 58.904438 
L 133.888722 67.139223 
L 123.062557 75.935521 
z
M 95.123432 42.628794 
L 95.235535 42.110026 
L 96.024653 42.628794 
L 95.235535 42.847803 
z
" clip-path="url(#p085cb4278f)" style="fill: #bddf26"/>
    <path d="M 317.851715 296.797966 
L 336.113992 312.24351 
L 345.678737 312.24351 
L 373.50576 312.24351 
L 380.556562 312.24351 
L 373.50576 303.744942 
L 361.910619 287.733081 
L 345.678737 269.279583 
L 340.816442 263.222652 
L 318.824575 238.712224 
L 317.851715 237.874415 
L 295.885639 214.201795 
L 290.024692 209.1497 
L 271.479473 189.691366 
L 262.19767 181.802588 
L 246.056825 165.180938 
L 234.370647 155.375009 
L 219.767797 140.670509 
L 206.543625 129.661413 
L 192.679655 116.16008 
L 178.716602 104.718911 
L 164.399137 91.649651 
L 150.88958 80.852079 
L 139.47005 91.649651 
L 150.084532 116.16008 
L 150.88958 117.327172 
L 174.711881 140.670509 
L 178.716602 147.132554 
L 198.142069 165.180938 
L 206.543625 178.870161 
L 219.134679 189.691366 
L 234.370647 213.741327 
L 234.984325 214.201795 
L 260.390681 238.712224 
L 262.19767 241.310329 
L 286.072117 263.222652 
L 290.024692 268.803548 
L 311.39773 287.733081 
z
M 123.062557 75.935521 
L 133.888722 67.139223 
L 123.062557 58.904438 
L 119.225791 67.139223 
z
M 95.235535 42.847803 
L 96.024653 42.628794 
L 95.235535 42.110026 
L 95.123432 42.628794 
z
" clip-path="url(#p085cb4278f)" style="fill: #eae51a"/>
   </g>
   <g id="PathCollection_1">
    <defs>
     <path id="mdc0741d33a" d="M -3 3 
L 3 -3 
M -3 -3 
L 3 3 
" style="stroke: #ff0000; stroke-width: 1.5"/>
    </defs>
    <g clip-path="url(#p085cb4278f)">
     <use xlink:href="#mdc0741d33a" x="345.678737" y="312.24351" style="fill: #ff0000; stroke: #ff0000; stroke-width: 1.5"/>
     <use xlink:href="#mdc0741d33a" x="317.851715" y="287.733081" style="fill: #ff0000; stroke: #ff0000; stroke-width: 1.5"/>
     <use xlink:href="#mdc0741d33a" x="317.851715" y="263.222652" style="fill: #ff0000; stroke: #ff0000; stroke-width: 1.5"/>
     <use xlink:href="#mdc0741d33a" x="290.024692" y="238.712224" style="fill: #ff0000; stroke: #ff0000; stroke-width: 1.5"/>
     <use xlink:href="#mdc0741d33a" x="262.19767" y="214.201795" style="fill: #ff0000; stroke: #ff0000; stroke-width: 1.5"/>
     <use xlink:href="#mdc0741d33a" x="234.370647" y="189.691366" style="fill: #ff0000; stroke: #ff0000; stroke-width: 1.5"/>
     <use xlink:href="#mdc0741d33a" x="206.543625" y="165.180938" style="fill: #ff0000; stroke: #ff0000; stroke-width: 1.5"/>
     <use xlink:href="#mdc0741d33a" x="178.716602" y="140.670509" style="fill: #ff0000; stroke: #ff0000; stroke-width: 1.5"/>
     <use xlink:href="#mdc0741d33a" x="178.716602" y="116.16008" style="fill: #ff0000; stroke: #ff0000; stroke-width: 1.5"/>
     <use xlink:href="#mdc0741d33a" x="150.88958" y="91.649651" style="fill: #ff0000; stroke: #ff0000; stroke-width: 1.5"/>
     <use xlink:href="#mdc0741d33a" x="123.062557" y="67.139223" style="fill: #ff0000; stroke: #ff0000; stroke-width: 1.5"/>
     <use xlink:href="#mdc0741d33a" x="95.235535" y="42.628794" style="fill: #ff0000; stroke: #ff0000; stroke-width: 1.5"/>
     <use xlink:href="#mdc0741d33a" x="67.408512" y="18.118365" style="fill: #ff0000; stroke: #ff0000; stroke-width: 1.5"/>
    </g>
   </g>
   <g id="matplotlib.axis_1">
    <g id="xtick_1">
     <g id="line2d_1">
      <defs>
       <path id="m38f3b05bbe" d="M 0 0 
L 0 3.5 
" style="stroke: #000000; stroke-width: 0.8"/>
      </defs>
      <g>
       <use xlink:href="#m38f3b05bbe" x="39.58149" y="312.24351" style="stroke: #000000; stroke-width: 0.8"/>
      </g>
     </g>
     <g id="text_1">
      <!-- $\mathdefault{10^{-4}}$ -->
      <g transform="translate(27.83149 326.841947) scale(0.1 -0.1)">
       <defs>
        <path id="DejaVuSans-31" d="M 794 531 
L 1825 531 
L 1825 4091 
L 703 3866 
L 703 4441 
L 1819 4666 
L 2450 4666 
L 2450 531 
L 3481 531 
L 3481 0 
L 794 0 
L 794 531 
z
" transform="scale(0.015625)"/>
        <path id="DejaVuSans-30" d="M 2034 4250 
Q 1547 4250 1301 3770 
Q 1056 3291 1056 2328 
Q 1056 1369 1301 889 
Q 1547 409 2034 409 
Q 2525 409 2770 889 
Q 3016 1369 3016 2328 
Q 3016 3291 2770 3770 
Q 2525 4250 2034 4250 
z
M 2034 4750 
Q 2819 4750 3233 4129 
Q 3647 3509 3647 2328 
Q 3647 1150 3233 529 
Q 2819 -91 2034 -91 
Q 1250 -91 836 529 
Q 422 1150 422 2328 
Q 422 3509 836 4129 
Q 1250 4750 2034 4750 
z
" transform="scale(0.015625)"/>
        <path id="DejaVuSans-2212" d="M 678 2272 
L 4684 2272 
L 4684 1741 
L 678 1741 
L 678 2272 
z
" transform="scale(0.015625)"/>
        <path id="DejaVuSans-34" d="M 2419 4116 
L 825 1625 
L 2419 1625 
L 2419 4116 
z
M 2253 4666 
L 3047 4666 
L 3047 1625 
L 3713 1625 
L 3713 1100 
L 3047 1100 
L 3047 0 
L 2419 0 
L 2419 1100 
L 313 1100 
L 313 1709 
L 2253 4666 
z
" transform="scale(0.015625)"/>
       </defs>
       <use xlink:href="#DejaVuSans-31" transform="translate(0 0.684375)"/>
       <use xlink:href="#DejaVuSans-30" transform="translate(63.623047 0.684375)"/>
       <use xlink:href="#DejaVuSans-2212" transform="translate(128.203125 38.965625) scale(0.7)"/>
       <use xlink:href="#DejaVuSans-34" transform="translate(186.855469 38.965625) scale(0.7)"/>
      </g>
     </g>
    </g>
    <g id="xtick_2">
     <g id="line2d_2">
      <g>
       <use xlink:href="#m38f3b05bbe" x="150.88958" y="312.24351" style="stroke: #000000; stroke-width: 0.8"/>
      </g>
     </g>
     <g id="text_2">
      <!-- $\mathdefault{10^{-3}}$ -->
      <g transform="translate(139.13958 326.841947) scale(0.1 -0.1)">
       <defs>
        <path id="DejaVuSans-33" d="M 2597 2516 
Q 3050 2419 3304 2112 
Q 3559 1806 3559 1356 
Q 3559 666 3084 287 
Q 2609 -91 1734 -91 
Q 1441 -91 1130 -33 
Q 819 25 488 141 
L 488 750 
Q 750 597 1062 519 
Q 1375 441 1716 441 
Q 2309 441 2620 675 
Q 2931 909 2931 1356 
Q 2931 1769 2642 2001 
Q 2353 2234 1838 2234 
L 1294 2234 
L 1294 2753 
L 1863 2753 
Q 2328 2753 2575 2939 
Q 2822 3125 2822 3475 
Q 2822 3834 2567 4026 
Q 2313 4219 1838 4219 
Q 1578 4219 1281 4162 
Q 984 4106 628 3988 
L 628 4550 
Q 988 4650 1302 4700 
Q 1616 4750 1894 4750 
Q 2613 4750 3031 4423 
Q 3450 4097 3450 3541 
Q 3450 3153 3228 2886 
Q 3006 2619 2597 2516 
z
" transform="scale(0.015625)"/>
       </defs>
       <use xlink:href="#DejaVuSans-31" transform="translate(0 0.765625)"/>
       <use xlink:href="#DejaVuSans-30" transform="translate(63.623047 0.765625)"/>
       <use xlink:href="#DejaVuSans-2212" transform="translate(128.203125 39.046875) scale(0.7)"/>
       <use xlink:href="#DejaVuSans-33" transform="translate(186.855469 39.046875) scale(0.7)"/>
      </g>
     </g>
    </g>
    <g id="xtick_3">
     <g id="line2d_3">
      <g>
       <use xlink:href="#m38f3b05bbe" x="262.19767" y="312.24351" style="stroke: #000000; stroke-width: 0.8"/>
      </g>
     </g>
     <g id="text_3">
      <!-- $\mathdefault{10^{-2}}$ -->
      <g transform="translate(250.44767 326.841947) scale(0.1 -0.1)">
       <defs>
        <path id="DejaVuSans-32" d="M 1228 531 
L 3431 531 
L 3431 0 
L 469 0 
L 469 531 
Q 828 903 1448 1529 
Q 2069 2156 2228 2338 
Q 2531 2678 2651 2914 
Q 2772 3150 2772 3378 
Q 2772 3750 2511 3984 
Q 2250 4219 1831 4219 
Q 1534 4219 1204 4116 
Q 875 4013 500 3803 
L 500 4441 
Q 881 4594 1212 4672 
Q 1544 4750 1819 4750 
Q 2544 4750 2975 4387 
Q 3406 4025 3406 3419 
Q 3406 3131 3298 2873 
Q 3191 2616 2906 2266 
Q 2828 2175 2409 1742 
Q 1991 1309 1228 531 
z
" transform="scale(0.015625)"/>
       </defs>
       <use xlink:href="#DejaVuSans-31" transform="translate(0 0.765625)"/>
       <use xlink:href="#DejaVuSans-30" transform="translate(63.623047 0.765625)"/>
       <use xlink:href="#DejaVuSans-2212" transform="translate(128.203125 39.046875) scale(0.7)"/>
       <use xlink:href="#DejaVuSans-32" transform="translate(186.855469 39.046875) scale(0.7)"/>
      </g>
     </g>
    </g>
    <g id="xtick_4">
     <g id="line2d_4">
      <g>
       <use xlink:href="#m38f3b05bbe" x="373.50576" y="312.24351" style="stroke: #000000; stroke-width: 0.8"/>
      </g>
     </g>
     <g id="text_4">
      <!-- $\mathdefault{10^{-1}}$ -->
      <g transform="translate(361.75576 326.841947) scale(0.1 -0.1)">
       <use xlink:href="#DejaVuSans-31" transform="translate(0 0.684375)"/>
       <use xlink:href="#DejaVuSans-30" transform="translate(63.623047 0.684375)"/>
       <use xlink:href="#DejaVuSans-2212" transform="translate(128.203125 38.965625) scale(0.7)"/>
       <use xlink:href="#DejaVuSans-31" transform="translate(186.855469 38.965625) scale(0.7)"/>
      </g>
     </g>
    </g>
    <g id="xtick_5">
     <g id="line2d_5">
      <defs>
       <path id="m360e1f0208" d="M 0 0 
L 0 2 
" style="stroke: #000000; stroke-width: 0.6"/>
      </defs>
      <g>
       <use xlink:href="#m360e1f0208" x="73.088564" y="312.24351" style="stroke: #000000; stroke-width: 0.6"/>
      </g>
     </g>
    </g>
    <g id="xtick_6">
     <g id="line2d_6">
      <g>
       <use xlink:href="#m360e1f0208" x="92.688946" y="312.24351" style="stroke: #000000; stroke-width: 0.6"/>
      </g>
     </g>
    </g>
    <g id="xtick_7">
     <g id="line2d_7">
      <g>
       <use xlink:href="#m360e1f0208" x="106.595638" y="312.24351" style="stroke: #000000; stroke-width: 0.6"/>
      </g>
     </g>
    </g>
    <g id="xtick_8">
     <g id="line2d_8">
      <g>
       <use xlink:href="#m360e1f0208" x="117.382506" y="312.24351" style="stroke: #000000; stroke-width: 0.6"/>
      </g>
     </g>
    </g>
    <g id="xtick_9">
     <g id="line2d_9">
      <g>
       <use xlink:href="#m360e1f0208" x="126.196019" y="312.24351" style="stroke: #000000; stroke-width: 0.6"/>
      </g>
     </g>
    </g>
    <g id="xtick_10">
     <g id="line2d_10">
      <g>
       <use xlink:href="#m360e1f0208" x="133.647739" y="312.24351" style="stroke: #000000; stroke-width: 0.6"/>
      </g>
     </g>
    </g>
    <g id="xtick_11">
     <g id="line2d_11">
      <g>
       <use xlink:href="#m360e1f0208" x="140.102712" y="312.24351" style="stroke: #000000; stroke-width: 0.6"/>
      </g>
     </g>
    </g>
    <g id="xtick_12">
     <g id="line2d_12">
      <g>
       <use xlink:href="#m360e1f0208" x="145.796401" y="312.24351" style="stroke: #000000; stroke-width: 0.6"/>
      </g>
     </g>
    </g>
    <g id="xtick_13">
     <g id="line2d_13">
      <g>
       <use xlink:href="#m360e1f0208" x="184.396654" y="312.24351" style="stroke: #000000; stroke-width: 0.6"/>
      </g>
     </g>
    </g>
    <g id="xtick_14">
     <g id="line2d_14">
      <g>
       <use xlink:href="#m360e1f0208" x="203.997035" y="312.24351" style="stroke: #000000; stroke-width: 0.6"/>
      </g>
     </g>
    </g>
    <g id="xtick_15">
     <g id="line2d_15">
      <g>
       <use xlink:href="#m360e1f0208" x="217.903728" y="312.24351" style="stroke: #000000; stroke-width: 0.6"/>
      </g>
     </g>
    </g>
    <g id="xtick_16">
     <g id="line2d_16">
      <g>
       <use xlink:href="#m360e1f0208" x="228.690596" y="312.24351" style="stroke: #000000; stroke-width: 0.6"/>
      </g>
     </g>
    </g>
    <g id="xtick_17">
     <g id="line2d_17">
      <g>
       <use xlink:href="#m360e1f0208" x="237.504109" y="312.24351" style="stroke: #000000; stroke-width: 0.6"/>
      </g>
     </g>
    </g>
    <g id="xtick_18">
     <g id="line2d_18">
      <g>
       <use xlink:href="#m360e1f0208" x="244.955829" y="312.24351" style="stroke: #000000; stroke-width: 0.6"/>
      </g>
     </g>
    </g>
    <g id="xtick_19">
     <g id="line2d_19">
      <g>
       <use xlink:href="#m360e1f0208" x="251.410801" y="312.24351" style="stroke: #000000; stroke-width: 0.6"/>
      </g>
     </g>
    </g>
    <g id="xtick_20">
     <g id="line2d_20">
      <g>
       <use xlink:href="#m360e1f0208" x="257.104491" y="312.24351" style="stroke: #000000; stroke-width: 0.6"/>
      </g>
     </g>
    </g>
    <g id="xtick_21">
     <g id="line2d_21">
      <g>
       <use xlink:href="#m360e1f0208" x="295.704744" y="312.24351" style="stroke: #000000; stroke-width: 0.6"/>
      </g>
     </g>
    </g>
    <g id="xtick_22">
     <g id="line2d_22">
      <g>
       <use xlink:href="#m360e1f0208" x="315.305125" y="312.24351" style="stroke: #000000; stroke-width: 0.6"/>
      </g>
     </g>
    </g>
    <g id="xtick_23">
     <g id="line2d_23">
      <g>
       <use xlink:href="#m360e1f0208" x="329.211818" y="312.24351" style="stroke: #000000; stroke-width: 0.6"/>
      </g>
     </g>
    </g>
    <g id="xtick_24">
     <g id="line2d_24">
      <g>
       <use xlink:href="#m360e1f0208" x="339.998686" y="312.24351" style="stroke: #000000; stroke-width: 0.6"/>
      </g>
     </g>
    </g>
    <g id="xtick_25">
     <g id="line2d_25">
      <g>
       <use xlink:href="#m360e1f0208" x="348.812199" y="312.24351" style="stroke: #000000; stroke-width: 0.6"/>
      </g>
     </g>
    </g>
    <g id="xtick_26">
     <g id="line2d_26">
      <g>
       <use xlink:href="#m360e1f0208" x="356.263919" y="312.24351" style="stroke: #000000; stroke-width: 0.6"/>
      </g>
     </g>
    </g>
    <g id="xtick_27">
     <g id="line2d_27">
      <g>
       <use xlink:href="#m360e1f0208" x="362.718891" y="312.24351" style="stroke: #000000; stroke-width: 0.6"/>
      </g>
     </g>
    </g>
    <g id="xtick_28">
     <g id="line2d_28">
      <g>
       <use xlink:href="#m360e1f0208" x="368.412581" y="312.24351" style="stroke: #000000; stroke-width: 0.6"/>
      </g>
     </g>
    </g>
    <g id="text_5">
     <!-- bandwidth -->
     <g transform="translate(180.181125 340.520072) scale(0.1 -0.1)">
      <defs>
       <path id="DejaVuSans-62" d="M 3116 1747 
Q 3116 2381 2855 2742 
Q 2594 3103 2138 3103 
Q 1681 3103 1420 2742 
Q 1159 2381 1159 1747 
Q 1159 1113 1420 752 
Q 1681 391 2138 391 
Q 2594 391 2855 752 
Q 3116 1113 3116 1747 
z
M 1159 2969 
Q 1341 3281 1617 3432 
Q 1894 3584 2278 3584 
Q 2916 3584 3314 3078 
Q 3713 2572 3713 1747 
Q 3713 922 3314 415 
Q 2916 -91 2278 -91 
Q 1894 -91 1617 61 
Q 1341 213 1159 525 
L 1159 0 
L 581 0 
L 581 4863 
L 1159 4863 
L 1159 2969 
z
" transform="scale(0.015625)"/>
       <path id="DejaVuSans-61" d="M 2194 1759 
Q 1497 1759 1228 1600 
Q 959 1441 959 1056 
Q 959 750 1161 570 
Q 1363 391 1709 391 
Q 2188 391 2477 730 
Q 2766 1069 2766 1631 
L 2766 1759 
L 2194 1759 
z
M 3341 1997 
L 3341 0 
L 2766 0 
L 2766 531 
Q 2569 213 2275 61 
Q 1981 -91 1556 -91 
Q 1019 -91 701 211 
Q 384 513 384 1019 
Q 384 1609 779 1909 
Q 1175 2209 1959 2209 
L 2766 2209 
L 2766 2266 
Q 2766 2663 2505 2880 
Q 2244 3097 1772 3097 
Q 1472 3097 1187 3025 
Q 903 2953 641 2809 
L 641 3341 
Q 956 3463 1253 3523 
Q 1550 3584 1831 3584 
Q 2591 3584 2966 3190 
Q 3341 2797 3341 1997 
z
" transform="scale(0.015625)"/>
       <path id="DejaVuSans-6e" d="M 3513 2113 
L 3513 0 
L 2938 0 
L 2938 2094 
Q 2938 2591 2744 2837 
Q 2550 3084 2163 3084 
Q 1697 3084 1428 2787 
Q 1159 2491 1159 1978 
L 1159 0 
L 581 0 
L 581 3500 
L 1159 3500 
L 1159 2956 
Q 1366 3272 1645 3428 
Q 1925 3584 2291 3584 
Q 2894 3584 3203 3211 
Q 3513 2838 3513 2113 
z
" transform="scale(0.015625)"/>
       <path id="DejaVuSans-64" d="M 2906 2969 
L 2906 4863 
L 3481 4863 
L 3481 0 
L 2906 0 
L 2906 525 
Q 2725 213 2448 61 
Q 2172 -91 1784 -91 
Q 1150 -91 751 415 
Q 353 922 353 1747 
Q 353 2572 751 3078 
Q 1150 3584 1784 3584 
Q 2172 3584 2448 3432 
Q 2725 3281 2906 2969 
z
M 947 1747 
Q 947 1113 1208 752 
Q 1469 391 1925 391 
Q 2381 391 2643 752 
Q 2906 1113 2906 1747 
Q 2906 2381 2643 2742 
Q 2381 3103 1925 3103 
Q 1469 3103 1208 2742 
Q 947 2381 947 1747 
z
" transform="scale(0.015625)"/>
       <path id="DejaVuSans-77" d="M 269 3500 
L 844 3500 
L 1563 769 
L 2278 3500 
L 2956 3500 
L 3675 769 
L 4391 3500 
L 4966 3500 
L 4050 0 
L 3372 0 
L 2619 2869 
L 1863 0 
L 1184 0 
L 269 3500 
z
" transform="scale(0.015625)"/>
       <path id="DejaVuSans-69" d="M 603 3500 
L 1178 3500 
L 1178 0 
L 603 0 
L 603 3500 
z
M 603 4863 
L 1178 4863 
L 1178 4134 
L 603 4134 
L 603 4863 
z
" transform="scale(0.015625)"/>
       <path id="DejaVuSans-74" d="M 1172 4494 
L 1172 3500 
L 2356 3500 
L 2356 3053 
L 1172 3053 
L 1172 1153 
Q 1172 725 1289 603 
Q 1406 481 1766 481 
L 2356 481 
L 2356 0 
L 1766 0 
Q 1100 0 847 248 
Q 594 497 594 1153 
L 594 3053 
L 172 3053 
L 172 3500 
L 594 3500 
L 594 4494 
L 1172 4494 
z
" transform="scale(0.015625)"/>
       <path id="DejaVuSans-68" d="M 3513 2113 
L 3513 0 
L 2938 0 
L 2938 2094 
Q 2938 2591 2744 2837 
Q 2550 3084 2163 3084 
Q 1697 3084 1428 2787 
Q 1159 2491 1159 1978 
L 1159 0 
L 581 0 
L 581 4863 
L 1159 4863 
L 1159 2956 
Q 1366 3272 1645 3428 
Q 1925 3584 2291 3584 
Q 2894 3584 3203 3211 
Q 3513 2838 3513 2113 
z
" transform="scale(0.015625)"/>
      </defs>
      <use xlink:href="#DejaVuSans-62"/>
      <use xlink:href="#DejaVuSans-61" transform="translate(63.476562 0)"/>
      <use xlink:href="#DejaVuSans-6e" transform="translate(124.755859 0)"/>
      <use xlink:href="#DejaVuSans-64" transform="translate(188.134766 0)"/>
      <use xlink:href="#DejaVuSans-77" transform="translate(251.611328 0)"/>
      <use xlink:href="#DejaVuSans-69" transform="translate(333.398438 0)"/>
      <use xlink:href="#DejaVuSans-64" transform="translate(361.181641 0)"/>
      <use xlink:href="#DejaVuSans-74" transform="translate(424.658203 0)"/>
      <use xlink:href="#DejaVuSans-68" transform="translate(463.867188 0)"/>
     </g>
    </g>
   </g>
   <g id="matplotlib.axis_2">
    <g id="ytick_1">
     <g id="line2d_29">
      <defs>
       <path id="mbd2f377c6c" d="M 0 0 
L -3.5 0 
" style="stroke: #000000; stroke-width: 0.8"/>
      </defs>
      <g>
       <use xlink:href="#mbd2f377c6c" x="39.58149" y="312.24351" style="stroke: #000000; stroke-width: 0.8"/>
      </g>
     </g>
     <g id="text_6">
      <!-- 1.0 -->
      <g transform="translate(16.678365 316.042729) scale(0.1 -0.1)">
       <defs>
        <path id="DejaVuSans-2e" d="M 684 794 
L 1344 794 
L 1344 0 
L 684 0 
L 684 794 
z
" transform="scale(0.015625)"/>
       </defs>
       <use xlink:href="#DejaVuSans-31"/>
       <use xlink:href="#DejaVuSans-2e" transform="translate(63.623047 0)"/>
       <use xlink:href="#DejaVuSans-30" transform="translate(95.410156 0)"/>
      </g>
     </g>
    </g>
    <g id="ytick_2">
     <g id="line2d_30">
      <g>
       <use xlink:href="#mbd2f377c6c" x="39.58149" y="263.222652" style="stroke: #000000; stroke-width: 0.8"/>
      </g>
     </g>
     <g id="text_7">
      <!-- 1.5 -->
      <g transform="translate(16.678365 267.021871) scale(0.1 -0.1)">
       <defs>
        <path id="DejaVuSans-35" d="M 691 4666 
L 3169 4666 
L 3169 4134 
L 1269 4134 
L 1269 2991 
Q 1406 3038 1543 3061 
Q 1681 3084 1819 3084 
Q 2600 3084 3056 2656 
Q 3513 2228 3513 1497 
Q 3513 744 3044 326 
Q 2575 -91 1722 -91 
Q 1428 -91 1123 -41 
Q 819 9 494 109 
L 494 744 
Q 775 591 1075 516 
Q 1375 441 1709 441 
Q 2250 441 2565 725 
Q 2881 1009 2881 1497 
Q 2881 1984 2565 2268 
Q 2250 2553 1709 2553 
Q 1456 2553 1204 2497 
Q 953 2441 691 2322 
L 691 4666 
z
" transform="scale(0.015625)"/>
       </defs>
       <use xlink:href="#DejaVuSans-31"/>
       <use xlink:href="#DejaVuSans-2e" transform="translate(63.623047 0)"/>
       <use xlink:href="#DejaVuSans-35" transform="translate(95.410156 0)"/>
      </g>
     </g>
    </g>
    <g id="ytick_3">
     <g id="line2d_31">
      <g>
       <use xlink:href="#mbd2f377c6c" x="39.58149" y="214.201795" style="stroke: #000000; stroke-width: 0.8"/>
      </g>
     </g>
     <g id="text_8">
      <!-- 2.0 -->
      <g transform="translate(16.678365 218.001014) scale(0.1 -0.1)">
       <use xlink:href="#DejaVuSans-32"/>
       <use xlink:href="#DejaVuSans-2e" transform="translate(63.623047 0)"/>
       <use xlink:href="#DejaVuSans-30" transform="translate(95.410156 0)"/>
      </g>
     </g>
    </g>
    <g id="ytick_4">
     <g id="line2d_32">
      <g>
       <use xlink:href="#mbd2f377c6c" x="39.58149" y="165.180938" style="stroke: #000000; stroke-width: 0.8"/>
      </g>
     </g>
     <g id="text_9">
      <!-- 2.5 -->
      <g transform="translate(16.678365 168.980156) scale(0.1 -0.1)">
       <use xlink:href="#DejaVuSans-32"/>
       <use xlink:href="#DejaVuSans-2e" transform="translate(63.623047 0)"/>
       <use xlink:href="#DejaVuSans-35" transform="translate(95.410156 0)"/>
      </g>
     </g>
    </g>
    <g id="ytick_5">
     <g id="line2d_33">
      <g>
       <use xlink:href="#mbd2f377c6c" x="39.58149" y="116.16008" style="stroke: #000000; stroke-width: 0.8"/>
      </g>
     </g>
     <g id="text_10">
      <!-- 3.0 -->
      <g transform="translate(16.678365 119.959299) scale(0.1 -0.1)">
       <use xlink:href="#DejaVuSans-33"/>
       <use xlink:href="#DejaVuSans-2e" transform="translate(63.623047 0)"/>
       <use xlink:href="#DejaVuSans-30" transform="translate(95.410156 0)"/>
      </g>
     </g>
    </g>
    <g id="ytick_6">
     <g id="line2d_34">
      <g>
       <use xlink:href="#mbd2f377c6c" x="39.58149" y="67.139223" style="stroke: #000000; stroke-width: 0.8"/>
      </g>
     </g>
     <g id="text_11">
      <!-- 3.5 -->
      <g transform="translate(16.678365 70.938441) scale(0.1 -0.1)">
       <use xlink:href="#DejaVuSans-33"/>
       <use xlink:href="#DejaVuSans-2e" transform="translate(63.623047 0)"/>
       <use xlink:href="#DejaVuSans-35" transform="translate(95.410156 0)"/>
      </g>
     </g>
    </g>
    <g id="ytick_7">
     <g id="line2d_35">
      <g>
       <use xlink:href="#mbd2f377c6c" x="39.58149" y="18.118365" style="stroke: #000000; stroke-width: 0.8"/>
      </g>
     </g>
     <g id="text_12">
      <!-- 4.0 -->
      <g transform="translate(16.678365 21.917584) scale(0.1 -0.1)">
       <use xlink:href="#DejaVuSans-34"/>
       <use xlink:href="#DejaVuSans-2e" transform="translate(63.623047 0)"/>
       <use xlink:href="#DejaVuSans-30" transform="translate(95.410156 0)"/>
      </g>
     </g>
    </g>
    <g id="text_13">
     <!-- alpha -->
     <g transform="translate(10.598677 179.041094) rotate(-90) scale(0.1 -0.1)">
      <defs>
       <path id="DejaVuSans-6c" d="M 603 4863 
L 1178 4863 
L 1178 0 
L 603 0 
L 603 4863 
z
" transform="scale(0.015625)"/>
       <path id="DejaVuSans-70" d="M 1159 525 
L 1159 -1331 
L 581 -1331 
L 581 3500 
L 1159 3500 
L 1159 2969 
Q 1341 3281 1617 3432 
Q 1894 3584 2278 3584 
Q 2916 3584 3314 3078 
Q 3713 2572 3713 1747 
Q 3713 922 3314 415 
Q 2916 -91 2278 -91 
Q 1894 -91 1617 61 
Q 1341 213 1159 525 
z
M 3116 1747 
Q 3116 2381 2855 2742 
Q 2594 3103 2138 3103 
Q 1681 3103 1420 2742 
Q 1159 2381 1159 1747 
Q 1159 1113 1420 752 
Q 1681 391 2138 391 
Q 2594 391 2855 752 
Q 3116 1113 3116 1747 
z
" transform="scale(0.015625)"/>
      </defs>
      <use xlink:href="#DejaVuSans-61"/>
      <use xlink:href="#DejaVuSans-6c" transform="translate(61.279297 0)"/>
      <use xlink:href="#DejaVuSans-70" transform="translate(89.0625 0)"/>
      <use xlink:href="#DejaVuSans-68" transform="translate(152.539062 0)"/>
      <use xlink:href="#DejaVuSans-61" transform="translate(215.917969 0)"/>
     </g>
    </g>
   </g>
   <g id="patch_3">
    <path d="M 39.58149 312.24351 
L 39.58149 18.118365 
" style="fill: none; stroke: #000000; stroke-width: 0.8; stroke-linejoin: miter; stroke-linecap: square"/>
   </g>
   <g id="patch_4">
    <path d="M 373.50576 312.24351 
L 373.50576 18.118365 
" style="fill: none; stroke: #000000; stroke-width: 0.8; stroke-linejoin: miter; stroke-linecap: square"/>
   </g>
   <g id="patch_5">
    <path d="M 39.58149 312.24351 
L 373.50576 312.24351 
" style="fill: none; stroke: #000000; stroke-width: 0.8; stroke-linejoin: miter; stroke-linecap: square"/>
   </g>
   <g id="patch_6">
    <path d="M 39.58149 18.118365 
L 373.50576 18.118365 
" style="fill: none; stroke: #000000; stroke-width: 0.8; stroke-linejoin: miter; stroke-linecap: square"/>
   </g>
   <g id="text_14">
    <!-- circulos_lo 8527 fkdc -->
    <g transform="translate(143.56425 12.118365) scale(0.12 -0.12)">
     <defs>
      <path id="DejaVuSans-63" d="M 3122 3366 
L 3122 2828 
Q 2878 2963 2633 3030 
Q 2388 3097 2138 3097 
Q 1578 3097 1268 2742 
Q 959 2388 959 1747 
Q 959 1106 1268 751 
Q 1578 397 2138 397 
Q 2388 397 2633 464 
Q 2878 531 3122 666 
L 3122 134 
Q 2881 22 2623 -34 
Q 2366 -91 2075 -91 
Q 1284 -91 818 406 
Q 353 903 353 1747 
Q 353 2603 823 3093 
Q 1294 3584 2113 3584 
Q 2378 3584 2631 3529 
Q 2884 3475 3122 3366 
z
" transform="scale(0.015625)"/>
      <path id="DejaVuSans-72" d="M 2631 2963 
Q 2534 3019 2420 3045 
Q 2306 3072 2169 3072 
Q 1681 3072 1420 2755 
Q 1159 2438 1159 1844 
L 1159 0 
L 581 0 
L 581 3500 
L 1159 3500 
L 1159 2956 
Q 1341 3275 1631 3429 
Q 1922 3584 2338 3584 
Q 2397 3584 2469 3576 
Q 2541 3569 2628 3553 
L 2631 2963 
z
" transform="scale(0.015625)"/>
      <path id="DejaVuSans-75" d="M 544 1381 
L 544 3500 
L 1119 3500 
L 1119 1403 
Q 1119 906 1312 657 
Q 1506 409 1894 409 
Q 2359 409 2629 706 
Q 2900 1003 2900 1516 
L 2900 3500 
L 3475 3500 
L 3475 0 
L 2900 0 
L 2900 538 
Q 2691 219 2414 64 
Q 2138 -91 1772 -91 
Q 1169 -91 856 284 
Q 544 659 544 1381 
z
M 1991 3584 
L 1991 3584 
z
" transform="scale(0.015625)"/>
      <path id="DejaVuSans-6f" d="M 1959 3097 
Q 1497 3097 1228 2736 
Q 959 2375 959 1747 
Q 959 1119 1226 758 
Q 1494 397 1959 397 
Q 2419 397 2687 759 
Q 2956 1122 2956 1747 
Q 2956 2369 2687 2733 
Q 2419 3097 1959 3097 
z
M 1959 3584 
Q 2709 3584 3137 3096 
Q 3566 2609 3566 1747 
Q 3566 888 3137 398 
Q 2709 -91 1959 -91 
Q 1206 -91 779 398 
Q 353 888 353 1747 
Q 353 2609 779 3096 
Q 1206 3584 1959 3584 
z
" transform="scale(0.015625)"/>
      <path id="DejaVuSans-73" d="M 2834 3397 
L 2834 2853 
Q 2591 2978 2328 3040 
Q 2066 3103 1784 3103 
Q 1356 3103 1142 2972 
Q 928 2841 928 2578 
Q 928 2378 1081 2264 
Q 1234 2150 1697 2047 
L 1894 2003 
Q 2506 1872 2764 1633 
Q 3022 1394 3022 966 
Q 3022 478 2636 193 
Q 2250 -91 1575 -91 
Q 1294 -91 989 -36 
Q 684 19 347 128 
L 347 722 
Q 666 556 975 473 
Q 1284 391 1588 391 
Q 1994 391 2212 530 
Q 2431 669 2431 922 
Q 2431 1156 2273 1281 
Q 2116 1406 1581 1522 
L 1381 1569 
Q 847 1681 609 1914 
Q 372 2147 372 2553 
Q 372 3047 722 3315 
Q 1072 3584 1716 3584 
Q 2034 3584 2315 3537 
Q 2597 3491 2834 3397 
z
" transform="scale(0.015625)"/>
      <path id="DejaVuSans-5f" d="M 3263 -1063 
L 3263 -1509 
L -63 -1509 
L -63 -1063 
L 3263 -1063 
z
" transform="scale(0.015625)"/>
      <path id="DejaVuSans-20" transform="scale(0.015625)"/>
      <path id="DejaVuSans-38" d="M 2034 2216 
Q 1584 2216 1326 1975 
Q 1069 1734 1069 1313 
Q 1069 891 1326 650 
Q 1584 409 2034 409 
Q 2484 409 2743 651 
Q 3003 894 3003 1313 
Q 3003 1734 2745 1975 
Q 2488 2216 2034 2216 
z
M 1403 2484 
Q 997 2584 770 2862 
Q 544 3141 544 3541 
Q 544 4100 942 4425 
Q 1341 4750 2034 4750 
Q 2731 4750 3128 4425 
Q 3525 4100 3525 3541 
Q 3525 3141 3298 2862 
Q 3072 2584 2669 2484 
Q 3125 2378 3379 2068 
Q 3634 1759 3634 1313 
Q 3634 634 3220 271 
Q 2806 -91 2034 -91 
Q 1263 -91 848 271 
Q 434 634 434 1313 
Q 434 1759 690 2068 
Q 947 2378 1403 2484 
z
M 1172 3481 
Q 1172 3119 1398 2916 
Q 1625 2713 2034 2713 
Q 2441 2713 2670 2916 
Q 2900 3119 2900 3481 
Q 2900 3844 2670 4047 
Q 2441 4250 2034 4250 
Q 1625 4250 1398 4047 
Q 1172 3844 1172 3481 
z
" transform="scale(0.015625)"/>
      <path id="DejaVuSans-37" d="M 525 4666 
L 3525 4666 
L 3525 4397 
L 1831 0 
L 1172 0 
L 2766 4134 
L 525 4134 
L 525 4666 
z
" transform="scale(0.015625)"/>
      <path id="DejaVuSans-66" d="M 2375 4863 
L 2375 4384 
L 1825 4384 
Q 1516 4384 1395 4259 
Q 1275 4134 1275 3809 
L 1275 3500 
L 2222 3500 
L 2222 3053 
L 1275 3053 
L 1275 0 
L 697 0 
L 697 3053 
L 147 3053 
L 147 3500 
L 697 3500 
L 697 3744 
Q 697 4328 969 4595 
Q 1241 4863 1831 4863 
L 2375 4863 
z
" transform="scale(0.015625)"/>
      <path id="DejaVuSans-6b" d="M 581 4863 
L 1159 4863 
L 1159 1991 
L 2875 3500 
L 3609 3500 
L 1753 1863 
L 3688 0 
L 2938 0 
L 1159 1709 
L 1159 0 
L 581 0 
L 581 4863 
z
" transform="scale(0.015625)"/>
     </defs>
     <use xlink:href="#DejaVuSans-63"/>
     <use xlink:href="#DejaVuSans-69" transform="translate(54.980469 0)"/>
     <use xlink:href="#DejaVuSans-72" transform="translate(82.763672 0)"/>
     <use xlink:href="#DejaVuSans-63" transform="translate(121.626953 0)"/>
     <use xlink:href="#DejaVuSans-75" transform="translate(176.607422 0)"/>
     <use xlink:href="#DejaVuSans-6c" transform="translate(239.986328 0)"/>
     <use xlink:href="#DejaVuSans-6f" transform="translate(267.769531 0)"/>
     <use xlink:href="#DejaVuSans-73" transform="translate(328.951172 0)"/>
     <use xlink:href="#DejaVuSans-5f" transform="translate(381.050781 0)"/>
     <use xlink:href="#DejaVuSans-6c" transform="translate(431.050781 0)"/>
     <use xlink:href="#DejaVuSans-6f" transform="translate(458.833984 0)"/>
     <use xlink:href="#DejaVuSans-20" transform="translate(520.015625 0)"/>
     <use xlink:href="#DejaVuSans-38" transform="translate(551.802734 0)"/>
     <use xlink:href="#DejaVuSans-35" transform="translate(615.425781 0)"/>
     <use xlink:href="#DejaVuSans-32" transform="translate(679.048828 0)"/>
     <use xlink:href="#DejaVuSans-37" transform="translate(742.671875 0)"/>
     <use xlink:href="#DejaVuSans-20" transform="translate(806.294922 0)"/>
     <use xlink:href="#DejaVuSans-66" transform="translate(838.082031 0)"/>
     <use xlink:href="#DejaVuSans-6b" transform="translate(873.287109 0)"/>
     <use xlink:href="#DejaVuSans-64" transform="translate(931.197266 0)"/>
     <use xlink:href="#DejaVuSans-63" transform="translate(994.673828 0)"/>
    </g>
   </g>
  </g>
  <g id="axes_2">
   <g id="patch_7">
    <path d="M 401.951973 312.24351 
L 416.658231 312.24351 
L 416.658231 18.118365 
L 401.951973 18.118365 
z
" style="fill: #ffffff"/>
   </g>
   <g id="QuadMesh_1">
    <path d="M 401.951973 312.24351 
L 416.658231 312.24351 
L 416.658231 292.635167 
L 401.951973 292.635167 
L 401.951973 312.24351 
" clip-path="url(#p362e1b9ab8)" style="fill: #470d60"/>
    <path d="M 401.951973 292.635167 
L 416.658231 292.635167 
L 416.658231 273.026824 
L 401.951973 273.026824 
L 401.951973 292.635167 
" clip-path="url(#p362e1b9ab8)" style="fill: #482475"/>
    <path d="M 401.951973 273.026824 
L 416.658231 273.026824 
L 416.658231 253.418481 
L 401.951973 253.418481 
L 401.951973 273.026824 
" clip-path="url(#p362e1b9ab8)" style="fill: #443983"/>
    <path d="M 401.951973 253.418481 
L 416.658231 253.418481 
L 416.658231 233.810138 
L 401.951973 233.810138 
L 401.951973 253.418481 
" clip-path="url(#p362e1b9ab8)" style="fill: #3d4d8a"/>
    <path d="M 401.951973 233.810138 
L 416.658231 233.810138 
L 416.658231 214.201795 
L 401.951973 214.201795 
L 401.951973 233.810138 
" clip-path="url(#p362e1b9ab8)" style="fill: #355f8d"/>
    <path d="M 401.951973 214.201795 
L 416.658231 214.201795 
L 416.658231 194.593452 
L 401.951973 194.593452 
L 401.951973 214.201795 
" clip-path="url(#p362e1b9ab8)" style="fill: #2d708e"/>
    <path d="M 401.951973 194.593452 
L 416.658231 194.593452 
L 416.658231 174.985109 
L 401.951973 174.985109 
L 401.951973 194.593452 
" clip-path="url(#p362e1b9ab8)" style="fill: #27808e"/>
    <path d="M 401.951973 174.985109 
L 416.658231 174.985109 
L 416.658231 155.376766 
L 401.951973 155.376766 
L 401.951973 174.985109 
" clip-path="url(#p362e1b9ab8)" style="fill: #21918c"/>
    <path d="M 401.951973 155.376766 
L 416.658231 155.376766 
L 416.658231 135.768423 
L 401.951973 135.768423 
L 401.951973 155.376766 
" clip-path="url(#p362e1b9ab8)" style="fill: #1fa188"/>
    <path d="M 401.951973 135.768423 
L 416.658231 135.768423 
L 416.658231 116.16008 
L 401.951973 116.16008 
L 401.951973 135.768423 
" clip-path="url(#p362e1b9ab8)" style="fill: #2ab07f"/>
    <path d="M 401.951973 116.16008 
L 416.658231 116.16008 
L 416.658231 96.551737 
L 401.951973 96.551737 
L 401.951973 116.16008 
" clip-path="url(#p362e1b9ab8)" style="fill: #44bf70"/>
    <path d="M 401.951973 96.551737 
L 416.658231 96.551737 
L 416.658231 76.943394 
L 401.951973 76.943394 
L 401.951973 96.551737 
" clip-path="url(#p362e1b9ab8)" style="fill: #67cc5c"/>
    <path d="M 401.951973 76.943394 
L 416.658231 76.943394 
L 416.658231 57.335051 
L 401.951973 57.335051 
L 401.951973 76.943394 
" clip-path="url(#p362e1b9ab8)" style="fill: #90d743"/>
    <path d="M 401.951973 57.335051 
L 416.658231 57.335051 
L 416.658231 37.726708 
L 401.951973 37.726708 
L 401.951973 57.335051 
" clip-path="url(#p362e1b9ab8)" style="fill: #bddf26"/>
    <path d="M 401.951973 37.726708 
L 416.658231 37.726708 
L 416.658231 18.118365 
L 401.951973 18.118365 
L 401.951973 37.726708 
" clip-path="url(#p362e1b9ab8)" style="fill: #eae51a"/>
   </g>
   <g id="matplotlib.axis_3"/>
   <g id="matplotlib.axis_4">
    <g id="ytick_8">
     <g id="line2d_36">
      <defs>
       <path id="m0a27ea52cb" d="M 0 0 
L 3.5 0 
" style="stroke: #000000; stroke-width: 0.8"/>
      </defs>
      <g>
       <use xlink:href="#m0a27ea52cb" x="416.658231" y="292.635167" style="stroke: #000000; stroke-width: 0.8"/>
      </g>
     </g>
     <g id="text_15">
      <!-- -5.6 -->
      <g transform="translate(423.658231 296.434386) scale(0.1 -0.1)">
       <defs>
        <path id="DejaVuSans-2d" d="M 313 2009 
L 1997 2009 
L 1997 1497 
L 313 1497 
L 313 2009 
z
" transform="scale(0.015625)"/>
        <path id="DejaVuSans-36" d="M 2113 2584 
Q 1688 2584 1439 2293 
Q 1191 2003 1191 1497 
Q 1191 994 1439 701 
Q 1688 409 2113 409 
Q 2538 409 2786 701 
Q 3034 994 3034 1497 
Q 3034 2003 2786 2293 
Q 2538 2584 2113 2584 
z
M 3366 4563 
L 3366 3988 
Q 3128 4100 2886 4159 
Q 2644 4219 2406 4219 
Q 1781 4219 1451 3797 
Q 1122 3375 1075 2522 
Q 1259 2794 1537 2939 
Q 1816 3084 2150 3084 
Q 2853 3084 3261 2657 
Q 3669 2231 3669 1497 
Q 3669 778 3244 343 
Q 2819 -91 2113 -91 
Q 1303 -91 875 529 
Q 447 1150 447 2328 
Q 447 3434 972 4092 
Q 1497 4750 2381 4750 
Q 2619 4750 2861 4703 
Q 3103 4656 3366 4563 
z
" transform="scale(0.015625)"/>
       </defs>
       <use xlink:href="#DejaVuSans-2d"/>
       <use xlink:href="#DejaVuSans-35" transform="translate(36.083984 0)"/>
       <use xlink:href="#DejaVuSans-2e" transform="translate(99.707031 0)"/>
       <use xlink:href="#DejaVuSans-36" transform="translate(131.494141 0)"/>
      </g>
     </g>
    </g>
    <g id="ytick_9">
     <g id="line2d_37">
      <g>
       <use xlink:href="#m0a27ea52cb" x="416.658231" y="253.418481" style="stroke: #000000; stroke-width: 0.8"/>
      </g>
     </g>
     <g id="text_16">
      <!-- -4.8 -->
      <g transform="translate(423.658231 257.2177) scale(0.1 -0.1)">
       <use xlink:href="#DejaVuSans-2d"/>
       <use xlink:href="#DejaVuSans-34" transform="translate(36.083984 0)"/>
       <use xlink:href="#DejaVuSans-2e" transform="translate(99.707031 0)"/>
       <use xlink:href="#DejaVuSans-38" transform="translate(131.494141 0)"/>
      </g>
     </g>
    </g>
    <g id="ytick_10">
     <g id="line2d_38">
      <g>
       <use xlink:href="#m0a27ea52cb" x="416.658231" y="214.201795" style="stroke: #000000; stroke-width: 0.8"/>
      </g>
     </g>
     <g id="text_17">
      <!-- -4.0 -->
      <g transform="translate(423.658231 218.001014) scale(0.1 -0.1)">
       <use xlink:href="#DejaVuSans-2d"/>
       <use xlink:href="#DejaVuSans-34" transform="translate(36.083984 0)"/>
       <use xlink:href="#DejaVuSans-2e" transform="translate(99.707031 0)"/>
       <use xlink:href="#DejaVuSans-30" transform="translate(131.494141 0)"/>
      </g>
     </g>
    </g>
    <g id="ytick_11">
     <g id="line2d_39">
      <g>
       <use xlink:href="#m0a27ea52cb" x="416.658231" y="174.985109" style="stroke: #000000; stroke-width: 0.8"/>
      </g>
     </g>
     <g id="text_18">
      <!-- -3.2 -->
      <g transform="translate(423.658231 178.784328) scale(0.1 -0.1)">
       <use xlink:href="#DejaVuSans-2d"/>
       <use xlink:href="#DejaVuSans-33" transform="translate(36.083984 0)"/>
       <use xlink:href="#DejaVuSans-2e" transform="translate(99.707031 0)"/>
       <use xlink:href="#DejaVuSans-32" transform="translate(131.494141 0)"/>
      </g>
     </g>
    </g>
    <g id="ytick_12">
     <g id="line2d_40">
      <g>
       <use xlink:href="#m0a27ea52cb" x="416.658231" y="135.768423" style="stroke: #000000; stroke-width: 0.8"/>
      </g>
     </g>
     <g id="text_19">
      <!-- -2.4 -->
      <g transform="translate(423.658231 139.567642) scale(0.1 -0.1)">
       <use xlink:href="#DejaVuSans-2d"/>
       <use xlink:href="#DejaVuSans-32" transform="translate(36.083984 0)"/>
       <use xlink:href="#DejaVuSans-2e" transform="translate(99.707031 0)"/>
       <use xlink:href="#DejaVuSans-34" transform="translate(131.494141 0)"/>
      </g>
     </g>
    </g>
    <g id="ytick_13">
     <g id="line2d_41">
      <g>
       <use xlink:href="#m0a27ea52cb" x="416.658231" y="96.551737" style="stroke: #000000; stroke-width: 0.8"/>
      </g>
     </g>
     <g id="text_20">
      <!-- -1.6 -->
      <g transform="translate(423.658231 100.350956) scale(0.1 -0.1)">
       <use xlink:href="#DejaVuSans-2d"/>
       <use xlink:href="#DejaVuSans-31" transform="translate(36.083984 0)"/>
       <use xlink:href="#DejaVuSans-2e" transform="translate(99.707031 0)"/>
       <use xlink:href="#DejaVuSans-36" transform="translate(131.494141 0)"/>
      </g>
     </g>
    </g>
    <g id="ytick_14">
     <g id="line2d_42">
      <g>
       <use xlink:href="#m0a27ea52cb" x="416.658231" y="57.335051" style="stroke: #000000; stroke-width: 0.8"/>
      </g>
     </g>
     <g id="text_21">
      <!-- -0.8 -->
      <g transform="translate(423.658231 61.13427) scale(0.1 -0.1)">
       <use xlink:href="#DejaVuSans-2d"/>
       <use xlink:href="#DejaVuSans-30" transform="translate(36.083984 0)"/>
       <use xlink:href="#DejaVuSans-2e" transform="translate(99.707031 0)"/>
       <use xlink:href="#DejaVuSans-38" transform="translate(131.494141 0)"/>
      </g>
     </g>
    </g>
    <g id="ytick_15">
     <g id="line2d_43">
      <g>
       <use xlink:href="#m0a27ea52cb" x="416.658231" y="18.118365" style="stroke: #000000; stroke-width: 0.8"/>
      </g>
     </g>
     <g id="text_22">
      <!-- 0.0 -->
      <g transform="translate(423.658231 21.917584) scale(0.1 -0.1)">
       <use xlink:href="#DejaVuSans-30"/>
       <use xlink:href="#DejaVuSans-2e" transform="translate(63.623047 0)"/>
       <use xlink:href="#DejaVuSans-30" transform="translate(95.410156 0)"/>
      </g>
     </g>
    </g>
    <g id="text_23">
     <!-- Score -->
     <g transform="translate(454.767606 179.183281) rotate(-90) scale(0.1 -0.1)">
      <defs>
       <path id="DejaVuSans-53" d="M 3425 4513 
L 3425 3897 
Q 3066 4069 2747 4153 
Q 2428 4238 2131 4238 
Q 1616 4238 1336 4038 
Q 1056 3838 1056 3469 
Q 1056 3159 1242 3001 
Q 1428 2844 1947 2747 
L 2328 2669 
Q 3034 2534 3370 2195 
Q 3706 1856 3706 1288 
Q 3706 609 3251 259 
Q 2797 -91 1919 -91 
Q 1588 -91 1214 -16 
Q 841 59 441 206 
L 441 856 
Q 825 641 1194 531 
Q 1563 422 1919 422 
Q 2459 422 2753 634 
Q 3047 847 3047 1241 
Q 3047 1584 2836 1778 
Q 2625 1972 2144 2069 
L 1759 2144 
Q 1053 2284 737 2584 
Q 422 2884 422 3419 
Q 422 4038 858 4394 
Q 1294 4750 2059 4750 
Q 2388 4750 2728 4690 
Q 3069 4631 3425 4513 
z
" transform="scale(0.015625)"/>
       <path id="DejaVuSans-65" d="M 3597 1894 
L 3597 1613 
L 953 1613 
Q 991 1019 1311 708 
Q 1631 397 2203 397 
Q 2534 397 2845 478 
Q 3156 559 3463 722 
L 3463 178 
Q 3153 47 2828 -22 
Q 2503 -91 2169 -91 
Q 1331 -91 842 396 
Q 353 884 353 1716 
Q 353 2575 817 3079 
Q 1281 3584 2069 3584 
Q 2775 3584 3186 3129 
Q 3597 2675 3597 1894 
z
M 3022 2063 
Q 3016 2534 2758 2815 
Q 2500 3097 2075 3097 
Q 1594 3097 1305 2825 
Q 1016 2553 972 2059 
L 3022 2063 
z
" transform="scale(0.015625)"/>
      </defs>
      <use xlink:href="#DejaVuSans-53"/>
      <use xlink:href="#DejaVuSans-63" transform="translate(63.476562 0)"/>
      <use xlink:href="#DejaVuSans-6f" transform="translate(118.457031 0)"/>
      <use xlink:href="#DejaVuSans-72" transform="translate(179.638672 0)"/>
      <use xlink:href="#DejaVuSans-65" transform="translate(218.501953 0)"/>
     </g>
    </g>
   </g>
   <g id="LineCollection_1"/>
   <g id="patch_8">
    <path d="M 401.951973 312.24351 
L 409.305102 312.24351 
L 416.658231 312.24351 
L 416.658231 18.118365 
L 409.305102 18.118365 
L 401.951973 18.118365 
L 401.951973 312.24351 
z
" style="fill: none; stroke: #000000; stroke-width: 0.8; stroke-linejoin: miter; stroke-linecap: square"/>
   </g>
  </g>
 </g>
 <defs>
  <clipPath id="p085cb4278f">
   <rect x="39.58149" y="18.118365" width="333.92427" height="294.125145"/>
  </clipPath>
  <clipPath id="p362e1b9ab8">
   <rect x="401.951973" y="18.118365" width="14.706257" height="294.125145"/>
  </clipPath>
 </defs>
</svg>
