<?xml version="1.0" encoding="utf-8" standalone="no"?>
<!DOCTYPE svg PUBLIC "-//W3C//DTD SVG 1.1//EN"
  "http://www.w3.org/Graphics/SVG/1.1/DTD/svg11.dtd">
<svg xmlns:xlink="http://www.w3.org/1999/xlink" width="468.247053pt" height="353.99952pt" viewBox="0 0 468.247053 353.99952" xmlns="http://www.w3.org/2000/svg" version="1.1">
 <metadata>
  <rdf:RDF xmlns:dc="http://purl.org/dc/elements/1.1/" xmlns:cc="http://creativecommons.org/ns#" xmlns:rdf="http://www.w3.org/1999/02/22-rdf-syntax-ns#">
   <cc:Work>
    <dc:type rdf:resource="http://purl.org/dc/dcmitype/StillImage"/>
    <dc:date>1970-01-01T00:00:00+00:00</dc:date>
    <dc:format>image/svg+xml</dc:format>
    <dc:creator>
     <cc:Agent>
      <dc:title>Matplotlib v3.10.7, https://matplotlib.org/</dc:title>
     </cc:Agent>
    </dc:creator>
   </cc:Work>
  </rdf:RDF>
 </metadata>
 <defs>
  <style type="text/css">*{stroke-linejoin: round; stroke-linecap: butt}</style>
 </defs>
 <g id="figure_1">
  <g id="patch_1">
   <path d="M 0 353.99952 
L 468.247053 353.99952 
L 468.247053 0 
L 0 0 
z
" style="fill: #ffffff"/>
  </g>
  <g id="axes_1">
   <g id="patch_2">
    <path d="M 43.78125 316.44327 
L 377.70552 316.44327 
L 377.70552 22.318125 
L 43.78125 22.318125 
z
" style="fill: #ffffff"/>
   </g>
   <g id="QuadContourSet_1">
    <path d="M 210.743385 316.44327 
L 213.260248 316.44327 
L 210.743385 315.191244 
L 207.981402 316.44327 
z
" clip-path="url(#p1fcf92e254)" style="fill: #470d60"/>
    <path d="M 155.08934 295.698295 
L 180.398433 316.44327 
L 182.916362 316.44327 
L 207.981402 316.44327 
L 210.743385 315.191244 
L 213.260248 316.44327 
L 237.045131 316.44327 
L 210.743385 299.504749 
L 203.136045 291.932841 
L 182.916362 280.118674 
L 168.009307 267.422412 
L 155.08934 260.257095 
L 133.729569 242.911984 
L 127.262317 239.717388 
L 100.061217 218.401555 
L 99.435295 218.064047 
L 71.608272 202.26625 
L 60.528526 193.891126 
L 43.78125 186.122096 
L 26.690812 193.891126 
L 43.78125 213.411222 
L 48.476595 218.401555 
L 71.608272 229.171519 
L 87.328211 242.911984 
L 99.435295 251.151126 
L 119.28447 267.422412 
L 127.262317 273.753583 
L 150.464757 291.932841 
z
M -11.872795 170.633249 
L 15.954228 185.49621 
L 25.944138 169.380697 
L 15.954228 164.306875 
L -2.96715 144.870269 
L -11.872795 139.974055 
L -36.723232 144.870269 
L -13.347401 169.380697 
z
M -39.699817 138.315425 
L -37.591515 120.35984 
L -39.699817 119.22457 
L -53.673104 120.35984 
z
" clip-path="url(#p1fcf92e254)" style="fill: #482475"/>
    <path d="M 155.08934 301.734935 
L 174.295408 316.44327 
L 180.398433 316.44327 
L 155.08934 295.698295 
L 150.464757 291.932841 
L 127.262317 273.753583 
L 119.28447 267.422412 
L 99.435295 251.151126 
L 87.328211 242.911984 
L 71.608272 229.171519 
L 48.476595 218.401555 
L 43.78125 213.411222 
L 26.690812 193.891126 
L 43.78125 186.122096 
L 60.528526 193.891126 
L 71.608272 202.26625 
L 99.435295 218.064047 
L 100.061217 218.401555 
L 127.262317 239.717388 
L 133.729569 242.911984 
L 155.08934 260.257095 
L 168.009307 267.422412 
L 182.916362 280.118674 
L 203.136045 291.932841 
L 210.743385 299.504749 
L 237.045131 316.44327 
L 238.570407 316.44327 
L 245.127636 316.44327 
L 238.570407 311.995949 
L 214.752056 291.932841 
L 210.743385 289.322845 
L 182.916362 267.915608 
L 182.415476 267.422412 
L 155.08934 249.650241 
L 147.868673 242.911984 
L 127.262317 231.049652 
L 113.009993 218.401555 
L 99.435295 210.005358 
L 80.398797 193.891126 
L 71.608272 188.531609 
L 46.989641 169.380697 
L 43.78125 167.510032 
L 15.954228 148.390094 
L 13.032184 144.870269 
L -11.872795 128.557437 
L -21.022298 120.35984 
L -39.699817 108.348861 
L -54.179838 95.849411 
L -67.52684 87.60535 
L -67.52684 95.849411 
L -67.52684 120.35984 
L -67.52684 144.870269 
L -67.52684 145.510487 
L -39.699817 160.943948 
L -29.177259 169.380697 
L -11.872795 181.92565 
L 5.603421 193.891126 
L 15.954228 202.484437 
L 35.225929 218.401555 
L 43.78125 225.529609 
L 69.534763 242.911984 
L 71.608272 244.410865 
L 99.435295 261.661663 
L 107.426601 267.422412 
L 127.262317 281.428924 
L 141.981987 291.932841 
z
M -13.347401 169.380697 
L -36.723232 144.870269 
L -11.872795 139.974055 
L -2.96715 144.870269 
L 15.954228 164.306875 
L 25.944138 169.380697 
L 15.954228 185.49621 
L -11.872795 170.633249 
z
M -53.673104 120.35984 
L -39.699817 119.22457 
L -37.591515 120.35984 
L -39.699817 138.315425 
z
" clip-path="url(#p1fcf92e254)" style="fill: #443983"/>
    <path d="M 155.08934 307.771574 
L 167.309002 316.44327 
L 174.295408 316.44327 
L 155.08934 301.734935 
L 141.981987 291.932841 
L 127.262317 281.428924 
L 107.426601 267.422412 
L 99.435295 261.661663 
L 71.608272 244.410865 
L 69.534763 242.911984 
L 43.78125 225.529609 
L 35.225929 218.401555 
L 15.954228 202.484437 
L 5.603421 193.891126 
L -11.872795 181.92565 
L -29.177259 169.380697 
L -39.699817 160.943948 
L -67.52684 145.510487 
L -67.52684 156.303551 
L -46.263382 169.380697 
L -39.699817 175.372818 
L -11.872795 193.21805 
L -10.702807 193.891126 
L 15.954228 212.788849 
L 23.656373 218.401555 
L 43.78125 233.366054 
L 59.574812 242.911984 
L 71.608272 250.778792 
L 96.211362 267.422412 
L 99.435295 269.419189 
L 127.262317 289.104265 
L 131.687028 291.932841 
z
M 238.570407 311.995949 
L 245.127636 316.44327 
L 251.387474 316.44327 
L 238.570407 307.148799 
L 221.669316 291.932841 
L 210.743385 284.277401 
L 190.657449 267.422412 
L 182.916362 262.26161 
L 158.433829 242.911984 
L 155.08934 240.800059 
L 127.262317 222.381917 
L 123.212866 218.401555 
L 99.435295 201.946669 
L 90.849959 193.891126 
L 71.608272 180.752011 
L 58.53503 169.380697 
L 43.78125 159.651457 
L 25.878968 144.870269 
L 15.954228 138.517812 
L -7.818462 120.35984 
L -11.872795 117.91393 
L -39.699817 97.473152 
L -41.35322 95.849411 
L -67.52684 77.222008 
L -67.52684 87.60535 
L -54.179838 95.849411 
L -39.699817 108.348861 
L -21.022298 120.35984 
L -11.872795 128.557437 
L 13.032184 144.870269 
L 15.954228 148.390094 
L 43.78125 167.510032 
L 46.989641 169.380697 
L 71.608272 188.531609 
L 80.398797 193.891126 
L 99.435295 210.005358 
L 113.009993 218.401555 
L 127.262317 231.049652 
L 147.868673 242.911984 
L 155.08934 249.650241 
L 182.415476 267.422412 
L 182.916362 267.915608 
L 210.743385 289.322845 
L 214.752056 291.932841 
z
" clip-path="url(#p1fcf92e254)" style="fill: #3d4d8a"/>
    <path d="M 127.262317 293.973252 
L 155.08934 313.808213 
L 159.139494 316.44327 
L 167.309002 316.44327 
L 155.08934 307.771574 
L 131.687028 291.932841 
L 127.262317 289.104265 
L 99.435295 269.419189 
L 96.211362 267.422412 
L 71.608272 250.778792 
L 59.574812 242.911984 
L 43.78125 233.366054 
L 23.656373 218.401555 
L 15.954228 212.788849 
L -10.702807 193.891126 
L -11.872795 193.21805 
L -39.699817 175.372818 
L -46.263382 169.380697 
L -67.52684 156.303551 
L -67.52684 167.096616 
L -63.073496 169.380697 
L -39.699817 187.475136 
L -27.744661 193.891126 
L -11.872795 200.471689 
L 12.651702 218.401555 
L 15.954228 220.844663 
L 43.78125 241.202499 
L 47.015639 242.911984 
L 71.608272 257.14672 
L 88.20635 267.422412 
L 99.435295 273.837744 
L 124.349873 291.932841 
z
M 238.570407 307.148799 
L 251.387474 316.44327 
L 256.928845 316.44327 
L 238.570407 302.301648 
L 227.719531 291.932841 
L 210.743385 279.231957 
L 197.590044 267.422412 
L 182.916362 256.883446 
L 166.569058 242.911984 
L 155.08934 235.00962 
L 132.88991 218.401555 
L 127.262317 214.772535 
L 99.440014 193.891126 
L 99.435295 193.888252 
L 71.608272 172.972413 
L 67.847691 169.380697 
L 43.78125 151.792882 
L 36.211334 144.870269 
L 15.954228 130.361723 
L 4.315496 120.35984 
L -11.872795 109.239234 
L -27.897697 95.849411 
L -39.699817 88.000981 
L -60.744314 71.338982 
L -67.52684 67.025084 
L -67.52684 71.338982 
L -67.52684 77.222008 
L -41.35322 95.849411 
L -39.699817 97.473152 
L -11.872795 117.91393 
L -7.818462 120.35984 
L 15.954228 138.517812 
L 25.878968 144.870269 
L 43.78125 159.651457 
L 58.53503 169.380697 
L 71.608272 180.752011 
L 90.849959 193.891126 
L 99.435295 201.946669 
L 123.212866 218.401555 
L 127.262317 222.381917 
L 155.08934 240.800059 
L 158.433829 242.911984 
L 182.916362 262.26161 
L 190.657449 267.422412 
L 210.743385 284.277401 
L 221.669316 291.932841 
z
" clip-path="url(#p1fcf92e254)" style="fill: #355f8d"/>
    <path d="M 127.262317 297.204449 
L 153.224698 316.44327 
L 155.08934 316.44327 
L 159.139494 316.44327 
L 155.08934 313.808213 
L 127.262317 293.973252 
L 124.349873 291.932841 
L 99.435295 273.837744 
L 88.20635 267.422412 
L 71.608272 257.14672 
L 47.015639 242.911984 
L 43.78125 241.202499 
L 15.954228 220.844663 
L 12.651702 218.401555 
L -11.872795 200.471689 
L -27.744661 193.891126 
L -39.699817 187.475136 
L -63.073496 169.380697 
L -67.52684 167.096616 
L -67.52684 169.380697 
L -67.52684 174.325418 
L -42.551756 193.891126 
L -39.699817 196.799781 
L -11.872795 207.469342 
L 4.493597 218.401555 
L 15.954228 226.210471 
L 39.335496 242.911984 
L 43.78125 247.463166 
L 71.608272 263.514647 
L 78.607431 267.422412 
L 99.435295 278.256299 
L 119.345644 291.932841 
z
M 238.570407 302.301648 
L 256.928845 316.44327 
L 261.899823 316.44327 
L 238.570407 297.454498 
L 233.096048 291.932841 
L 210.743385 274.186513 
L 203.651983 267.422412 
L 182.916362 251.505282 
L 173.530396 242.911984 
L 155.08934 229.21918 
L 141.832719 218.401555 
L 127.262317 208.061873 
L 110.229203 193.891126 
L 99.435295 186.524577 
L 78.202672 169.380697 
L 71.608272 165.065044 
L 45.450602 144.870269 
L 43.78125 143.830128 
L 15.954228 122.205635 
L 14.006657 120.35984 
L -11.872795 100.564539 
L -16.931533 95.849411 
L -39.699817 78.775135 
L -47.985728 71.338982 
L -67.52684 57.071854 
L -67.52684 67.025084 
L -60.744314 71.338982 
L -39.699817 88.000981 
L -27.897697 95.849411 
L -11.872795 109.239234 
L 4.315496 120.35984 
L 15.954228 130.361723 
L 36.211334 144.870269 
L 43.78125 151.792882 
L 67.847691 169.380697 
L 71.608272 172.972413 
L 99.435295 193.888252 
L 99.440014 193.891126 
L 127.262317 214.772535 
L 132.88991 218.401555 
L 155.08934 235.00962 
L 166.569058 242.911984 
L 182.916362 256.883446 
L 197.590044 267.422412 
L 210.743385 279.231957 
L 227.719531 291.932841 
z
" clip-path="url(#p1fcf92e254)" style="fill: #2d708e"/>
    <path d="M 127.262317 300.435645 
L 149.72744 316.44327 
L 153.224698 316.44327 
L 127.262317 297.204449 
L 119.345644 291.932841 
L 99.435295 278.256299 
L 78.607431 267.422412 
L 71.608272 263.514647 
L 43.78125 247.463166 
L 39.335496 242.911984 
L 15.954228 226.210471 
L 4.493597 218.401555 
L -11.872795 207.469342 
L -39.699817 196.799781 
L -42.551756 193.891126 
L -67.52684 174.325418 
L -67.52684 180.597459 
L -49.247207 193.891126 
L -39.699817 202.990324 
L -11.872795 214.466994 
L -5.326525 218.401555 
L 15.954228 231.576279 
L 32.979531 242.911984 
L 43.78125 253.284175 
L 68.614015 267.422412 
L 71.608272 269.118374 
L 99.435295 282.674854 
L 113.762912 291.932841 
z
M 238.570407 297.454498 
L 261.899823 316.44327 
L 266.39743 316.44327 
L 266.415456 316.44327 
L 266.39743 316.431264 
L 238.570407 292.607348 
L 237.933983 291.932841 
L 210.743385 269.141069 
L 209.037755 267.422412 
L 182.916362 246.127118 
L 179.614289 242.911984 
L 155.08934 223.42874 
L 149.376582 218.401555 
L 127.262317 201.35121 
L 119.044264 193.891126 
L 99.435295 179.160902 
L 88.479752 169.380697 
L 71.608272 157.048093 
L 57.572405 144.870269 
L 43.78125 135.096843 
L 26.534215 120.35984 
L 15.954228 113.097469 
L -4.912711 95.849411 
L -11.872795 91.613218 
L -36.724887 71.338982 
L -39.699817 69.431203 
L -67.52684 47.118623 
L -67.52684 57.071854 
L -47.985728 71.338983 
L -39.699817 78.775135 
L -16.931533 95.849411 
L -11.872795 100.564539 
L 14.006657 120.35984 
L 15.954228 122.205635 
L 43.78125 143.830128 
L 45.450602 144.870269 
L 71.608272 165.065044 
L 78.202672 169.380697 
L 99.435295 186.524577 
L 110.229203 193.891126 
L 127.262317 208.061873 
L 141.832719 218.401555 
L 155.08934 229.21918 
L 173.530396 242.911984 
L 182.916362 251.505282 
L 203.651983 267.422412 
L 210.743385 274.186513 
L 233.096048 291.932841 
z
" clip-path="url(#p1fcf92e254)" style="fill: #27808e"/>
    <path d="M 127.262317 303.666842 
L 145.957297 316.44327 
L 149.72744 316.44327 
L 127.262317 300.435645 
L 113.762912 291.932841 
L 99.435295 282.674854 
L 71.608272 269.118374 
L 68.614015 267.422412 
L 43.78125 253.284175 
L 32.979531 242.911984 
L 15.954228 231.576279 
L -5.326525 218.401555 
L -11.872795 214.466994 
L -39.699817 202.990324 
L -49.247207 193.891126 
L -67.52684 180.597459 
L -67.52684 186.869499 
L -57.021438 193.891126 
L -39.699817 209.180868 
L -16.934097 218.401555 
L -11.872795 220.873542 
L 15.954228 236.942088 
L 25.659508 242.911984 
L 43.78125 259.105184 
L 59.873997 267.422412 
L 71.608272 273.508232 
L 99.435295 287.093408 
L 107.450226 291.932841 
z
M 238.570407 292.607348 
L 266.39743 316.431264 
L 266.415456 316.44327 
L 273.944495 316.44327 
L 266.39743 311.004092 
L 245.458468 291.932841 
L 238.570407 287.02231 
L 216.450213 267.422412 
L 210.743385 263.420776 
L 186.760754 242.911984 
L 182.916362 240.286243 
L 156.492218 218.401555 
L 155.08934 217.465813 
L 127.262317 194.640548 
L 126.497089 193.891126 
L 99.435295 171.797227 
L 96.950395 169.380697 
L 71.608272 149.031142 
L 67.255825 144.870269 
L 43.78125 126.363557 
L 37.478085 120.35984 
L 15.954228 103.710816 
L 7.538203 95.849411 
L -11.872795 82.332487 
L -23.757353 71.338982 
L -39.699817 59.596626 
L -53.63265 46.828554 
L -67.52684 36.764656 
L -67.52684 46.828554 
L -67.52684 47.118623 
L -39.699817 69.431203 
L -36.724887 71.338982 
L -11.872795 91.613218 
L -4.912711 95.849411 
L 15.954228 113.097469 
L 26.534215 120.35984 
L 43.78125 135.096843 
L 57.572405 144.870269 
L 71.608272 157.048093 
L 88.479752 169.380697 
L 99.435295 179.160902 
L 119.044264 193.891126 
L 127.262317 201.35121 
L 149.376582 218.401555 
L 155.08934 223.42874 
L 179.614289 242.911984 
L 182.916362 246.127118 
L 209.037755 267.422412 
L 210.743385 269.141069 
L 237.933983 291.932841 
z
" clip-path="url(#p1fcf92e254)" style="fill: #21918c"/>
    <path d="M 127.262317 306.898038 
L 141.868053 316.44327 
L 145.957297 316.44327 
L 127.262317 303.666842 
L 107.450226 291.932841 
L 99.435295 287.093408 
L 71.608272 273.508232 
L 59.873997 267.422412 
L 43.78125 259.105184 
L 25.659508 242.911984 
L 15.954228 236.942088 
L -11.872795 220.873542 
L -16.934097 218.401555 
L -39.699817 209.180868 
L -57.021438 193.891126 
L -67.52684 186.869499 
L -67.52684 193.14154 
L -66.290112 193.891126 
L -39.699817 215.371412 
L -30.980257 218.401555 
L -11.872795 226.52081 
L 15.954228 242.307896 
L 17.029768 242.911984 
L 43.78125 264.926192 
L 49.197162 267.422412 
L 71.608272 277.898089 
L 99.435295 291.511963 
L 100.187574 291.932841 
z
M 266.39743 311.004092 
L 273.944495 316.44327 
L 280.457376 316.44327 
L 266.39743 305.576919 
L 252.393869 291.932841 
L 238.570407 281.317992 
L 223.993502 267.422412 
L 210.743385 257.351849 
L 195.172936 242.911984 
L 182.916362 233.757594 
L 165.985847 218.401555 
L 155.08934 210.366794 
L 136.693626 193.891126 
L 127.262317 187.03655 
L 107.298861 169.380697 
L 99.435295 163.840519 
L 77.712191 144.870269 
L 71.608272 140.650194 
L 48.064954 120.35984 
L 43.78125 117.46799 
L 18.340643 95.849411 
L 15.954228 94.26892 
L -11.872795 73.051756 
L -13.542864 71.338982 
L -39.699817 49.762049 
L -42.564113 46.828554 
L -67.52684 26.398659 
L -67.52684 36.764656 
L -53.63265 46.828554 
L -39.699817 59.596626 
L -23.757353 71.338982 
L -11.872795 82.332487 
L 7.538203 95.849411 
L 15.954228 103.710816 
L 37.478085 120.35984 
L 43.78125 126.363557 
L 67.255825 144.870269 
L 71.608272 149.031142 
L 96.950395 169.380697 
L 99.435295 171.797227 
L 126.497089 193.891126 
L 127.262317 194.640548 
L 155.08934 217.465813 
L 156.492218 218.401555 
L 182.916362 240.286243 
L 186.760754 242.911984 
L 210.743385 263.420776 
L 216.450213 267.422412 
L 238.570407 287.02231 
L 245.458468 291.932841 
z
" clip-path="url(#p1fcf92e254)" style="fill: #1fa188"/>
    <path d="M 99.435295 299.287518 
L 127.262317 310.129235 
L 137.400654 316.44327 
L 141.868053 316.44327 
L 127.262317 306.898038 
L 100.187574 291.932841 
L 99.435295 291.511963 
L 71.608272 277.898089 
L 49.197162 267.422412 
L 43.78125 264.926192 
L 17.029768 242.911984 
L 15.954228 242.307896 
L -11.872795 226.52081 
L -30.980257 218.401555 
L -39.699817 215.371412 
L -66.290112 193.891126 
L -67.52684 193.14154 
L -67.52684 193.891126 
L -67.52684 200.84478 
L -43.821833 218.401555 
L -39.699817 223.098154 
L -11.872795 232.168078 
L 8.70771 242.911984 
L 15.954228 250.033706 
L 39.153029 267.422412 
L 43.78125 272.659937 
L 71.608272 282.287947 
L 92.833312 291.932841 
z
M 266.39743 305.576919 
L 280.457376 316.44327 
L 286.196058 316.44327 
L 266.39743 300.149747 
L 258.457951 291.932841 
L 238.570407 275.613675 
L 230.517038 267.422412 
L 210.743385 251.282922 
L 202.335937 242.911984 
L 182.916362 227.228945 
L 173.91757 218.401555 
L 155.08934 203.267776 
L 145.488281 193.891126 
L 127.262317 179.320246 
L 117.048391 169.380697 
L 99.435295 155.594133 
L 88.368219 144.870269 
L 71.608272 131.87648 
L 59.669602 120.35984 
L 43.78125 108.215482 
L 30.89071 95.849411 
L 15.954228 84.542298 
L 0.514431 71.338982 
L -11.872795 62.215708 
L -28.415191 46.828554 
L -39.699817 38.60898 
L -57.272868 22.318125 
L -67.52684 22.318125 
L -67.52684 26.398659 
L -42.564113 46.828554 
L -39.699817 49.762049 
L -13.542864 71.338982 
L -11.872795 73.051756 
L 15.954228 94.26892 
L 18.340643 95.849411 
L 43.78125 117.46799 
L 48.064954 120.35984 
L 71.608272 140.650194 
L 77.712191 144.870269 
L 99.435295 163.840519 
L 107.298861 169.380697 
L 127.262317 187.03655 
L 136.693626 193.891126 
L 155.08934 210.366794 
L 165.985847 218.401555 
L 182.916362 233.757594 
L 195.172936 242.911984 
L 210.743385 257.351849 
L 223.993502 267.422412 
L 238.570407 281.317992 
L 252.393869 291.932841 
z
" clip-path="url(#p1fcf92e254)" style="fill: #2ab07f"/>
    <path d="M 99.435295 307.416501 
L 127.262317 313.360432 
L 132.477967 316.44327 
L 137.400654 316.44327 
L 127.262317 310.129235 
L 99.435295 299.287518 
L 92.833312 291.932841 
L 71.608272 282.287947 
L 43.78125 272.659937 
L 39.153029 267.422412 
L 15.954228 250.033706 
L 8.70771 242.911984 
L -11.872795 232.168078 
L -39.699817 223.098154 
L -43.821833 218.401555 
L -67.52684 200.84478 
L -67.52684 208.742284 
L -53.083375 218.401555 
L -39.699817 232.297782 
L -11.872795 237.815346 
L -1.01784 242.911984 
L 15.954228 258.058914 
L 29.800263 267.422412 
L 43.78125 281.829745 
L 71.608272 286.677804 
L 84.304483 291.932841 
z
M 266.39743 300.149747 
L 286.196058 316.44327 
L 291.3252 316.44327 
L 266.39743 294.722574 
L 263.845415 291.932841 
L 238.570407 269.909357 
L 236.263988 267.422412 
L 210.743385 245.213995 
L 208.573234 242.911984 
L 182.916362 220.700296 
L 180.729444 218.401555 
L 155.08934 196.168757 
L 152.926526 193.891126 
L 127.262317 171.603942 
L 125.157769 169.380697 
L 99.435295 147.347746 
L 97.094308 144.870269 
L 71.608272 123.102765 
L 69.020715 120.35984 
L 43.78125 98.962973 
L 40.844944 95.849411 
L 15.954228 74.815675 
L 12.342317 71.338982 
L -11.872795 51.027663 
L -15.85545 46.828554 
L -39.699817 26.895449 
L -44.027548 22.318125 
L -57.272868 22.318125 
L -39.699817 38.60898 
L -28.415191 46.828554 
L -11.872795 62.215708 
L 0.514431 71.338982 
L 15.954228 84.542298 
L 30.89071 95.849411 
L 43.78125 108.215482 
L 59.669602 120.35984 
L 71.608272 131.87648 
L 88.368219 144.870269 
L 99.435295 155.594133 
L 117.048391 169.380697 
L 127.262317 179.320246 
L 145.488281 193.891126 
L 155.08934 203.267776 
L 173.91757 218.401555 
L 182.916362 227.228945 
L 202.335937 242.911984 
L 210.743385 251.282922 
L 230.517038 267.422412 
L 238.570407 275.613675 
L 258.457951 291.932841 
z
" clip-path="url(#p1fcf92e254)" style="fill: #44bf70"/>
    <path d="M 99.435295 315.545483 
L 120.612561 316.44327 
L 127.262317 316.44327 
L 132.477967 316.44327 
L 127.262317 313.360432 
L 99.435295 307.416501 
L 84.304483 291.932841 
L 71.608272 286.677804 
L 43.78125 281.829745 
L 29.800263 267.422412 
L 15.954228 258.058914 
L -1.01784 242.911984 
L -11.872795 237.815346 
L -39.699817 232.297782 
L -53.083375 218.401555 
L -67.52684 208.742284 
L -67.52684 216.639787 
L -64.55017 218.401555 
L -39.699817 241.497409 
L -20.87028 242.911984 
L -11.872795 256.046457 
L 15.954228 266.084122 
L 18.193065 267.422412 
L 43.78125 290.999553 
L 71.608272 291.067661 
L 73.94152 291.932841 
z
M 266.39743 294.722574 
L 291.3252 316.44327 
L 294.224452 316.44327 
L 300.650393 316.44327 
L 294.224452 311.677626 
L 274.454972 291.932841 
L 266.39743 285.810406 
L 248.061049 267.422412 
L 238.570407 260.004771 
L 221.590045 242.911984 
L 210.743385 234.46982 
L 194.685266 218.401555 
L 182.916362 209.032765 
L 168.001944 193.891126 
L 155.08934 183.795235 
L 141.029077 169.380697 
L 127.262317 158.535479 
L 113.619971 144.870269 
L 99.435295 133.516761 
L 86.369262 120.35984 
L 71.608272 108.279532 
L 59.235538 95.849411 
L 43.78125 82.94194 
L 32.344527 71.338982 
L 15.954228 57.952369 
L 5.064991 46.828554 
L -11.872795 33.372182 
L -22.665628 22.318125 
L -39.699817 22.318125 
L -44.027548 22.318125 
L -39.699817 26.895449 
L -15.85545 46.828554 
L -11.872795 51.027663 
L 12.342317 71.338983 
L 15.954228 74.815675 
L 40.844944 95.849411 
L 43.78125 98.962973 
L 69.020715 120.35984 
L 71.608272 123.102765 
L 97.094308 144.870269 
L 99.435295 147.347746 
L 125.157769 169.380697 
L 127.262317 171.603942 
L 152.926526 193.891126 
L 155.08934 196.168757 
L 180.729444 218.401555 
L 182.916362 220.700296 
L 208.573234 242.911984 
L 210.743385 245.213995 
L 236.263988 267.422412 
L 238.570407 269.909357 
L 263.845415 291.932841 
z
" clip-path="url(#p1fcf92e254)" style="fill: #67cc5c"/>
    <path d="M 15.954228 308.48868 
L 43.78125 310.824786 
L 54.667869 316.44327 
L 71.608272 316.44327 
L 99.435295 316.44327 
L 120.612561 316.44327 
L 99.435295 315.545483 
L 73.94152 291.932841 
L 71.608272 291.067661 
L 43.78125 290.999553 
L 18.193065 267.422412 
L 15.954228 266.084122 
L -11.872795 256.046457 
L -20.87028 242.911984 
L -39.699817 241.497409 
L -64.55017 218.401555 
L -67.52684 216.639787 
L -67.52684 218.401555 
L -67.52684 242.911984 
L -67.52684 261.653904 
L -56.118835 267.422412 
L -39.699817 283.893628 
L -11.872795 286.122684 
L -0.569665 291.932841 
z
M 294.224452 311.677626 
L 300.650393 316.44327 
L 314.161625 316.44327 
L 294.224452 299.331485 
L 287.726539 291.932841 
L 266.39743 273.212008 
L 261.336924 267.422412 
L 238.570407 246.853488 
L 235.150438 242.911984 
L 210.743385 220.868543 
L 208.598756 218.401555 
L 182.916362 194.572513 
L 182.335385 193.891126 
L 156.422167 169.380697 
L 155.08934 168.362573 
L 131.865424 144.870269 
L 127.262317 141.36305 
L 107.548599 120.35984 
L 99.435295 113.794658 
L 83.586786 95.849411 
L 71.608272 85.445464 
L 59.782675 71.338982 
L 43.78125 57.30913 
L 34.662902 46.828554 
L 15.954228 30.597896 
L 8.46046 22.318125 
L -11.872795 22.318125 
L -22.665628 22.318125 
L -11.872795 33.372182 
L 5.064991 46.828554 
L 15.954228 57.952369 
L 32.344527 71.338982 
L 43.78125 82.94194 
L 59.235538 95.849411 
L 71.608272 108.279532 
L 86.369262 120.35984 
L 99.435295 133.516761 
L 113.619971 144.870269 
L 127.262317 158.535479 
L 141.029077 169.380697 
L 155.08934 183.795235 
L 168.001944 193.891126 
L 182.916362 209.032765 
L 194.685266 218.401555 
L 210.743385 234.46982 
L 221.590045 242.911984 
L 238.570407 260.004771 
L 248.061049 267.422412 
L 266.39743 285.810406 
L 274.454972 291.932841 
z
" clip-path="url(#p1fcf92e254)" style="fill: #90d743"/>
    <path d="M -39.699817 316.44327 
L -11.872795 316.44327 
L 15.954228 316.44327 
L 43.78125 316.44327 
L 54.667869 316.44327 
L 43.78125 310.824786 
L 15.954228 308.48868 
L -0.569665 291.932841 
L -11.872795 286.122684 
L -39.699817 283.893628 
L -56.118835 267.422412 
L -67.52684 261.653904 
L -67.52684 267.422412 
L -67.52684 291.932841 
L -67.52684 316.44327 
z
M 294.224452 299.331485 
L 314.161625 316.44327 
L 322.051475 316.44327 
L 340.313752 316.44327 
L 322.051475 300.997726 
L 315.59749 291.932841 
L 294.224452 273.003308 
L 290.271877 267.422412 
L 266.39743 245.510089 
L 264.590441 242.911984 
L 239.184085 218.401555 
L 238.570407 217.941087 
L 223.334439 193.891126 
L 210.743385 183.069921 
L 202.341829 169.380697 
L 182.916362 151.332314 
L 178.911641 144.870269 
L 155.08934 121.526932 
L 154.284292 120.35984 
L 143.66981 95.849411 
L 155.08934 85.051839 
L 168.598897 95.849411 
L 182.916362 108.918671 
L 196.879415 120.35984 
L 210.743385 133.861173 
L 223.967557 144.870269 
L 238.570407 159.574769 
L 250.256585 169.380697 
L 266.39743 186.002348 
L 275.679233 193.891126 
L 294.224452 213.34946 
L 300.085399 218.401555 
L 322.051475 242.074175 
L 323.024335 242.911984 
L 345.016202 267.422412 
L 349.878497 273.479343 
L 366.110379 291.932841 
L 377.70552 307.944702 
L 384.756322 316.44327 
L 405.532542 316.44327 
L 433.359565 316.44327 
L 461.186587 316.44327 
L 489.01361 316.44327 
L 516.840632 316.44327 
L 544.667655 316.44327 
L 572.494677 316.44327 
L 600.3217 316.44327 
L 628.148722 316.44327 
L 655.975745 316.44327 
L 683.802767 316.44327 
L 711.62979 316.44327 
L 739.456812 316.44327 
L 767.283835 316.44327 
L 795.110857 316.44327 
L 822.93788 316.44327 
L 850.764902 316.44327 
L 878.591925 316.44327 
L 906.418947 316.44327 
L 934.24597 316.44327 
L 962.072992 316.44327 
L 989.900015 316.44327 
L 1017.727037 316.44327 
L 1045.55406 316.44327 
L 1073.381082 316.44327 
L 1101.208105 316.44327 
L 1129.035127 316.44327 
L 1156.86215 316.44327 
L 1156.86215 291.932841 
L 1156.86215 267.422412 
L 1156.86215 242.911984 
L 1156.86215 218.401555 
L 1156.86215 193.891126 
L 1156.86215 169.380697 
L 1156.86215 144.870269 
L 1156.86215 120.35984 
L 1156.86215 95.849411 
L 1156.86215 71.338982 
L 1156.86215 46.828554 
L 1156.86215 22.318125 
L 1129.035127 22.318125 
L 1101.208105 22.318125 
L 1073.381082 22.318125 
L 1045.55406 22.318125 
L 1017.727037 22.318125 
L 989.900015 22.318125 
L 962.072992 22.318125 
L 934.24597 22.318125 
L 906.418947 22.318125 
L 878.591925 22.318125 
L 850.764902 22.318125 
L 822.93788 22.318125 
L 795.110857 22.318125 
L 767.283835 22.318125 
L 739.456812 22.318125 
L 711.62979 22.318125 
L 683.802767 22.318125 
L 655.975745 22.318125 
L 628.148722 22.318125 
L 600.3217 22.318125 
L 572.494677 22.318125 
L 544.667655 22.318125 
L 516.840632 22.318125 
L 489.01361 22.318125 
L 461.186587 22.318125 
L 433.359565 22.318125 
L 405.532542 22.318125 
L 377.70552 22.318125 
L 349.878497 22.318125 
L 322.051475 22.318125 
L 294.224452 22.318125 
L 266.39743 22.318125 
L 238.570407 22.318125 
L 210.743385 22.318125 
L 182.916362 22.318125 
L 155.08934 22.318125 
L 127.262317 22.318125 
L 99.435295 22.318125 
L 71.608272 22.318125 
L 43.78125 22.318125 
L 15.954228 22.318125 
L 8.46046 22.318125 
L 15.954228 30.597896 
L 34.662902 46.828554 
L 43.78125 57.30913 
L 59.782675 71.338982 
L 71.608272 85.445464 
L 83.586786 95.849411 
L 99.435295 113.794658 
L 107.548599 120.35984 
L 127.262317 141.36305 
L 131.865424 144.870269 
L 155.08934 168.362573 
L 156.422167 169.380697 
L 182.335385 193.891126 
L 182.916362 194.572513 
L 208.598756 218.401555 
L 210.743385 220.868543 
L 235.150438 242.911984 
L 238.570407 246.853488 
L 261.336924 267.422412 
L 266.39743 273.212008 
L 287.726539 291.932841 
z
M 123.425551 71.338982 
L 127.262317 63.104198 
L 138.088482 71.338982 
L 127.262317 80.135281 
z
M 99.323192 46.828554 
L 99.435295 46.309786 
L 100.224413 46.828554 
L 99.435295 47.047563 
z
" clip-path="url(#p1fcf92e254)" style="fill: #bddf26"/>
    <path d="M 322.051475 300.997726 
L 340.313752 316.44327 
L 349.878497 316.44327 
L 377.70552 316.44327 
L 384.756322 316.44327 
L 377.70552 307.944702 
L 366.110379 291.932841 
L 349.878497 273.479343 
L 345.016202 267.422412 
L 323.024335 242.911984 
L 322.051475 242.074175 
L 300.085399 218.401555 
L 294.224452 213.34946 
L 275.679233 193.891126 
L 266.39743 186.002348 
L 250.256585 169.380697 
L 238.570407 159.574769 
L 223.967557 144.870269 
L 210.743385 133.861173 
L 196.879415 120.35984 
L 182.916362 108.918671 
L 168.598897 95.849411 
L 155.08934 85.051839 
L 143.66981 95.849411 
L 154.284292 120.35984 
L 155.08934 121.526932 
L 178.911641 144.870269 
L 182.916362 151.332314 
L 202.341829 169.380697 
L 210.743385 183.069921 
L 223.334439 193.891126 
L 238.570407 217.941087 
L 239.184085 218.401555 
L 264.590441 242.911984 
L 266.39743 245.510089 
L 290.271877 267.422412 
L 294.224452 273.003308 
L 315.59749 291.932841 
z
M 127.262317 80.135281 
L 138.088482 71.338983 
L 127.262317 63.104198 
L 123.425551 71.338982 
z
M 99.435295 47.047563 
L 100.224413 46.828554 
L 99.435295 46.309786 
L 99.323192 46.828554 
z
" clip-path="url(#p1fcf92e254)" style="fill: #eae51a"/>
   </g>
   <g id="PathCollection_1">
    <defs>
     <path id="mdc0741d33a" d="M -3 3 
L 3 -3 
M -3 -3 
L 3 3 
" style="stroke: #ff0000; stroke-width: 1.5"/>
    </defs>
    <g clip-path="url(#p1fcf92e254)">
     <use xlink:href="#mdc0741d33a" x="349.878497" y="316.44327" style="fill: #ff0000; stroke: #ff0000; stroke-width: 1.5"/>
     <use xlink:href="#mdc0741d33a" x="322.051475" y="291.932841" style="fill: #ff0000; stroke: #ff0000; stroke-width: 1.5"/>
     <use xlink:href="#mdc0741d33a" x="322.051475" y="267.422412" style="fill: #ff0000; stroke: #ff0000; stroke-width: 1.5"/>
     <use xlink:href="#mdc0741d33a" x="294.224452" y="242.911984" style="fill: #ff0000; stroke: #ff0000; stroke-width: 1.5"/>
     <use xlink:href="#mdc0741d33a" x="266.39743" y="218.401555" style="fill: #ff0000; stroke: #ff0000; stroke-width: 1.5"/>
     <use xlink:href="#mdc0741d33a" x="238.570407" y="193.891126" style="fill: #ff0000; stroke: #ff0000; stroke-width: 1.5"/>
     <use xlink:href="#mdc0741d33a" x="210.743385" y="169.380697" style="fill: #ff0000; stroke: #ff0000; stroke-width: 1.5"/>
     <use xlink:href="#mdc0741d33a" x="182.916362" y="144.870269" style="fill: #ff0000; stroke: #ff0000; stroke-width: 1.5"/>
     <use xlink:href="#mdc0741d33a" x="182.916362" y="120.35984" style="fill: #ff0000; stroke: #ff0000; stroke-width: 1.5"/>
     <use xlink:href="#mdc0741d33a" x="155.08934" y="95.849411" style="fill: #ff0000; stroke: #ff0000; stroke-width: 1.5"/>
     <use xlink:href="#mdc0741d33a" x="127.262317" y="71.338982" style="fill: #ff0000; stroke: #ff0000; stroke-width: 1.5"/>
     <use xlink:href="#mdc0741d33a" x="99.435295" y="46.828554" style="fill: #ff0000; stroke: #ff0000; stroke-width: 1.5"/>
     <use xlink:href="#mdc0741d33a" x="71.608272" y="22.318125" style="fill: #ff0000; stroke: #ff0000; stroke-width: 1.5"/>
    </g>
   </g>
   <g id="matplotlib.axis_1">
    <g id="xtick_1">
     <g id="line2d_1">
      <defs>
       <path id="m38f3b05bbe" d="M 0 0 
L 0 3.5 
" style="stroke: #000000; stroke-width: 0.8"/>
      </defs>
      <g>
       <use xlink:href="#m38f3b05bbe" x="43.78125" y="316.44327" style="stroke: #000000; stroke-width: 0.8"/>
      </g>
     </g>
     <g id="text_1">
      <!-- $\mathdefault{10^{-4}}$ -->
      <g transform="translate(32.03125 331.041707) scale(0.1 -0.1)">
       <defs>
        <path id="DejaVuSans-31" d="M 794 531 
L 1825 531 
L 1825 4091 
L 703 3866 
L 703 4441 
L 1819 4666 
L 2450 4666 
L 2450 531 
L 3481 531 
L 3481 0 
L 794 0 
L 794 531 
z
" transform="scale(0.015625)"/>
        <path id="DejaVuSans-30" d="M 2034 4250 
Q 1547 4250 1301 3770 
Q 1056 3291 1056 2328 
Q 1056 1369 1301 889 
Q 1547 409 2034 409 
Q 2525 409 2770 889 
Q 3016 1369 3016 2328 
Q 3016 3291 2770 3770 
Q 2525 4250 2034 4250 
z
M 2034 4750 
Q 2819 4750 3233 4129 
Q 3647 3509 3647 2328 
Q 3647 1150 3233 529 
Q 2819 -91 2034 -91 
Q 1250 -91 836 529 
Q 422 1150 422 2328 
Q 422 3509 836 4129 
Q 1250 4750 2034 4750 
z
" transform="scale(0.015625)"/>
        <path id="DejaVuSans-2212" d="M 678 2272 
L 4684 2272 
L 4684 1741 
L 678 1741 
L 678 2272 
z
" transform="scale(0.015625)"/>
        <path id="DejaVuSans-34" d="M 2419 4116 
L 825 1625 
L 2419 1625 
L 2419 4116 
z
M 2253 4666 
L 3047 4666 
L 3047 1625 
L 3713 1625 
L 3713 1100 
L 3047 1100 
L 3047 0 
L 2419 0 
L 2419 1100 
L 313 1100 
L 313 1709 
L 2253 4666 
z
" transform="scale(0.015625)"/>
       </defs>
       <use xlink:href="#DejaVuSans-31" transform="translate(0 0.684375)"/>
       <use xlink:href="#DejaVuSans-30" transform="translate(63.623047 0.684375)"/>
       <use xlink:href="#DejaVuSans-2212" transform="translate(128.203125 38.965625) scale(0.7)"/>
       <use xlink:href="#DejaVuSans-34" transform="translate(186.855469 38.965625) scale(0.7)"/>
      </g>
     </g>
    </g>
    <g id="xtick_2">
     <g id="line2d_2">
      <g>
       <use xlink:href="#m38f3b05bbe" x="155.08934" y="316.44327" style="stroke: #000000; stroke-width: 0.8"/>
      </g>
     </g>
     <g id="text_2">
      <!-- $\mathdefault{10^{-3}}$ -->
      <g transform="translate(143.33934 331.041707) scale(0.1 -0.1)">
       <defs>
        <path id="DejaVuSans-33" d="M 2597 2516 
Q 3050 2419 3304 2112 
Q 3559 1806 3559 1356 
Q 3559 666 3084 287 
Q 2609 -91 1734 -91 
Q 1441 -91 1130 -33 
Q 819 25 488 141 
L 488 750 
Q 750 597 1062 519 
Q 1375 441 1716 441 
Q 2309 441 2620 675 
Q 2931 909 2931 1356 
Q 2931 1769 2642 2001 
Q 2353 2234 1838 2234 
L 1294 2234 
L 1294 2753 
L 1863 2753 
Q 2328 2753 2575 2939 
Q 2822 3125 2822 3475 
Q 2822 3834 2567 4026 
Q 2313 4219 1838 4219 
Q 1578 4219 1281 4162 
Q 984 4106 628 3988 
L 628 4550 
Q 988 4650 1302 4700 
Q 1616 4750 1894 4750 
Q 2613 4750 3031 4423 
Q 3450 4097 3450 3541 
Q 3450 3153 3228 2886 
Q 3006 2619 2597 2516 
z
" transform="scale(0.015625)"/>
       </defs>
       <use xlink:href="#DejaVuSans-31" transform="translate(0 0.765625)"/>
       <use xlink:href="#DejaVuSans-30" transform="translate(63.623047 0.765625)"/>
       <use xlink:href="#DejaVuSans-2212" transform="translate(128.203125 39.046875) scale(0.7)"/>
       <use xlink:href="#DejaVuSans-33" transform="translate(186.855469 39.046875) scale(0.7)"/>
      </g>
     </g>
    </g>
    <g id="xtick_3">
     <g id="line2d_3">
      <g>
       <use xlink:href="#m38f3b05bbe" x="266.39743" y="316.44327" style="stroke: #000000; stroke-width: 0.8"/>
      </g>
     </g>
     <g id="text_3">
      <!-- $\mathdefault{10^{-2}}$ -->
      <g transform="translate(254.64743 331.041707) scale(0.1 -0.1)">
       <defs>
        <path id="DejaVuSans-32" d="M 1228 531 
L 3431 531 
L 3431 0 
L 469 0 
L 469 531 
Q 828 903 1448 1529 
Q 2069 2156 2228 2338 
Q 2531 2678 2651 2914 
Q 2772 3150 2772 3378 
Q 2772 3750 2511 3984 
Q 2250 4219 1831 4219 
Q 1534 4219 1204 4116 
Q 875 4013 500 3803 
L 500 4441 
Q 881 4594 1212 4672 
Q 1544 4750 1819 4750 
Q 2544 4750 2975 4387 
Q 3406 4025 3406 3419 
Q 3406 3131 3298 2873 
Q 3191 2616 2906 2266 
Q 2828 2175 2409 1742 
Q 1991 1309 1228 531 
z
" transform="scale(0.015625)"/>
       </defs>
       <use xlink:href="#DejaVuSans-31" transform="translate(0 0.765625)"/>
       <use xlink:href="#DejaVuSans-30" transform="translate(63.623047 0.765625)"/>
       <use xlink:href="#DejaVuSans-2212" transform="translate(128.203125 39.046875) scale(0.7)"/>
       <use xlink:href="#DejaVuSans-32" transform="translate(186.855469 39.046875) scale(0.7)"/>
      </g>
     </g>
    </g>
    <g id="xtick_4">
     <g id="line2d_4">
      <g>
       <use xlink:href="#m38f3b05bbe" x="377.70552" y="316.44327" style="stroke: #000000; stroke-width: 0.8"/>
      </g>
     </g>
     <g id="text_4">
      <!-- $\mathdefault{10^{-1}}$ -->
      <g transform="translate(365.95552 331.041707) scale(0.1 -0.1)">
       <use xlink:href="#DejaVuSans-31" transform="translate(0 0.684375)"/>
       <use xlink:href="#DejaVuSans-30" transform="translate(63.623047 0.684375)"/>
       <use xlink:href="#DejaVuSans-2212" transform="translate(128.203125 38.965625) scale(0.7)"/>
       <use xlink:href="#DejaVuSans-31" transform="translate(186.855469 38.965625) scale(0.7)"/>
      </g>
     </g>
    </g>
    <g id="xtick_5">
     <g id="line2d_5">
      <defs>
       <path id="m360e1f0208" d="M 0 0 
L 0 2 
" style="stroke: #000000; stroke-width: 0.6"/>
      </defs>
      <g>
       <use xlink:href="#m360e1f0208" x="77.288324" y="316.44327" style="stroke: #000000; stroke-width: 0.6"/>
      </g>
     </g>
    </g>
    <g id="xtick_6">
     <g id="line2d_6">
      <g>
       <use xlink:href="#m360e1f0208" x="96.888706" y="316.44327" style="stroke: #000000; stroke-width: 0.6"/>
      </g>
     </g>
    </g>
    <g id="xtick_7">
     <g id="line2d_7">
      <g>
       <use xlink:href="#m360e1f0208" x="110.795398" y="316.44327" style="stroke: #000000; stroke-width: 0.6"/>
      </g>
     </g>
    </g>
    <g id="xtick_8">
     <g id="line2d_8">
      <g>
       <use xlink:href="#m360e1f0208" x="121.582266" y="316.44327" style="stroke: #000000; stroke-width: 0.6"/>
      </g>
     </g>
    </g>
    <g id="xtick_9">
     <g id="line2d_9">
      <g>
       <use xlink:href="#m360e1f0208" x="130.395779" y="316.44327" style="stroke: #000000; stroke-width: 0.6"/>
      </g>
     </g>
    </g>
    <g id="xtick_10">
     <g id="line2d_10">
      <g>
       <use xlink:href="#m360e1f0208" x="137.847499" y="316.44327" style="stroke: #000000; stroke-width: 0.6"/>
      </g>
     </g>
    </g>
    <g id="xtick_11">
     <g id="line2d_11">
      <g>
       <use xlink:href="#m360e1f0208" x="144.302472" y="316.44327" style="stroke: #000000; stroke-width: 0.6"/>
      </g>
     </g>
    </g>
    <g id="xtick_12">
     <g id="line2d_12">
      <g>
       <use xlink:href="#m360e1f0208" x="149.996161" y="316.44327" style="stroke: #000000; stroke-width: 0.6"/>
      </g>
     </g>
    </g>
    <g id="xtick_13">
     <g id="line2d_13">
      <g>
       <use xlink:href="#m360e1f0208" x="188.596414" y="316.44327" style="stroke: #000000; stroke-width: 0.6"/>
      </g>
     </g>
    </g>
    <g id="xtick_14">
     <g id="line2d_14">
      <g>
       <use xlink:href="#m360e1f0208" x="208.196795" y="316.44327" style="stroke: #000000; stroke-width: 0.6"/>
      </g>
     </g>
    </g>
    <g id="xtick_15">
     <g id="line2d_15">
      <g>
       <use xlink:href="#m360e1f0208" x="222.103488" y="316.44327" style="stroke: #000000; stroke-width: 0.6"/>
      </g>
     </g>
    </g>
    <g id="xtick_16">
     <g id="line2d_16">
      <g>
       <use xlink:href="#m360e1f0208" x="232.890356" y="316.44327" style="stroke: #000000; stroke-width: 0.6"/>
      </g>
     </g>
    </g>
    <g id="xtick_17">
     <g id="line2d_17">
      <g>
       <use xlink:href="#m360e1f0208" x="241.703869" y="316.44327" style="stroke: #000000; stroke-width: 0.6"/>
      </g>
     </g>
    </g>
    <g id="xtick_18">
     <g id="line2d_18">
      <g>
       <use xlink:href="#m360e1f0208" x="249.155589" y="316.44327" style="stroke: #000000; stroke-width: 0.6"/>
      </g>
     </g>
    </g>
    <g id="xtick_19">
     <g id="line2d_19">
      <g>
       <use xlink:href="#m360e1f0208" x="255.610561" y="316.44327" style="stroke: #000000; stroke-width: 0.6"/>
      </g>
     </g>
    </g>
    <g id="xtick_20">
     <g id="line2d_20">
      <g>
       <use xlink:href="#m360e1f0208" x="261.304251" y="316.44327" style="stroke: #000000; stroke-width: 0.6"/>
      </g>
     </g>
    </g>
    <g id="xtick_21">
     <g id="line2d_21">
      <g>
       <use xlink:href="#m360e1f0208" x="299.904504" y="316.44327" style="stroke: #000000; stroke-width: 0.6"/>
      </g>
     </g>
    </g>
    <g id="xtick_22">
     <g id="line2d_22">
      <g>
       <use xlink:href="#m360e1f0208" x="319.504885" y="316.44327" style="stroke: #000000; stroke-width: 0.6"/>
      </g>
     </g>
    </g>
    <g id="xtick_23">
     <g id="line2d_23">
      <g>
       <use xlink:href="#m360e1f0208" x="333.411578" y="316.44327" style="stroke: #000000; stroke-width: 0.6"/>
      </g>
     </g>
    </g>
    <g id="xtick_24">
     <g id="line2d_24">
      <g>
       <use xlink:href="#m360e1f0208" x="344.198446" y="316.44327" style="stroke: #000000; stroke-width: 0.6"/>
      </g>
     </g>
    </g>
    <g id="xtick_25">
     <g id="line2d_25">
      <g>
       <use xlink:href="#m360e1f0208" x="353.011959" y="316.44327" style="stroke: #000000; stroke-width: 0.6"/>
      </g>
     </g>
    </g>
    <g id="xtick_26">
     <g id="line2d_26">
      <g>
       <use xlink:href="#m360e1f0208" x="360.463679" y="316.44327" style="stroke: #000000; stroke-width: 0.6"/>
      </g>
     </g>
    </g>
    <g id="xtick_27">
     <g id="line2d_27">
      <g>
       <use xlink:href="#m360e1f0208" x="366.918651" y="316.44327" style="stroke: #000000; stroke-width: 0.6"/>
      </g>
     </g>
    </g>
    <g id="xtick_28">
     <g id="line2d_28">
      <g>
       <use xlink:href="#m360e1f0208" x="372.612341" y="316.44327" style="stroke: #000000; stroke-width: 0.6"/>
      </g>
     </g>
    </g>
    <g id="text_5">
     <!-- bandwidth -->
     <g transform="translate(184.380885 344.719832) scale(0.1 -0.1)">
      <defs>
       <path id="DejaVuSans-62" d="M 3116 1747 
Q 3116 2381 2855 2742 
Q 2594 3103 2138 3103 
Q 1681 3103 1420 2742 
Q 1159 2381 1159 1747 
Q 1159 1113 1420 752 
Q 1681 391 2138 391 
Q 2594 391 2855 752 
Q 3116 1113 3116 1747 
z
M 1159 2969 
Q 1341 3281 1617 3432 
Q 1894 3584 2278 3584 
Q 2916 3584 3314 3078 
Q 3713 2572 3713 1747 
Q 3713 922 3314 415 
Q 2916 -91 2278 -91 
Q 1894 -91 1617 61 
Q 1341 213 1159 525 
L 1159 0 
L 581 0 
L 581 4863 
L 1159 4863 
L 1159 2969 
z
" transform="scale(0.015625)"/>
       <path id="DejaVuSans-61" d="M 2194 1759 
Q 1497 1759 1228 1600 
Q 959 1441 959 1056 
Q 959 750 1161 570 
Q 1363 391 1709 391 
Q 2188 391 2477 730 
Q 2766 1069 2766 1631 
L 2766 1759 
L 2194 1759 
z
M 3341 1997 
L 3341 0 
L 2766 0 
L 2766 531 
Q 2569 213 2275 61 
Q 1981 -91 1556 -91 
Q 1019 -91 701 211 
Q 384 513 384 1019 
Q 384 1609 779 1909 
Q 1175 2209 1959 2209 
L 2766 2209 
L 2766 2266 
Q 2766 2663 2505 2880 
Q 2244 3097 1772 3097 
Q 1472 3097 1187 3025 
Q 903 2953 641 2809 
L 641 3341 
Q 956 3463 1253 3523 
Q 1550 3584 1831 3584 
Q 2591 3584 2966 3190 
Q 3341 2797 3341 1997 
z
" transform="scale(0.015625)"/>
       <path id="DejaVuSans-6e" d="M 3513 2113 
L 3513 0 
L 2938 0 
L 2938 2094 
Q 2938 2591 2744 2837 
Q 2550 3084 2163 3084 
Q 1697 3084 1428 2787 
Q 1159 2491 1159 1978 
L 1159 0 
L 581 0 
L 581 3500 
L 1159 3500 
L 1159 2956 
Q 1366 3272 1645 3428 
Q 1925 3584 2291 3584 
Q 2894 3584 3203 3211 
Q 3513 2838 3513 2113 
z
" transform="scale(0.015625)"/>
       <path id="DejaVuSans-64" d="M 2906 2969 
L 2906 4863 
L 3481 4863 
L 3481 0 
L 2906 0 
L 2906 525 
Q 2725 213 2448 61 
Q 2172 -91 1784 -91 
Q 1150 -91 751 415 
Q 353 922 353 1747 
Q 353 2572 751 3078 
Q 1150 3584 1784 3584 
Q 2172 3584 2448 3432 
Q 2725 3281 2906 2969 
z
M 947 1747 
Q 947 1113 1208 752 
Q 1469 391 1925 391 
Q 2381 391 2643 752 
Q 2906 1113 2906 1747 
Q 2906 2381 2643 2742 
Q 2381 3103 1925 3103 
Q 1469 3103 1208 2742 
Q 947 2381 947 1747 
z
" transform="scale(0.015625)"/>
       <path id="DejaVuSans-77" d="M 269 3500 
L 844 3500 
L 1563 769 
L 2278 3500 
L 2956 3500 
L 3675 769 
L 4391 3500 
L 4966 3500 
L 4050 0 
L 3372 0 
L 2619 2869 
L 1863 0 
L 1184 0 
L 269 3500 
z
" transform="scale(0.015625)"/>
       <path id="DejaVuSans-69" d="M 603 3500 
L 1178 3500 
L 1178 0 
L 603 0 
L 603 3500 
z
M 603 4863 
L 1178 4863 
L 1178 4134 
L 603 4134 
L 603 4863 
z
" transform="scale(0.015625)"/>
       <path id="DejaVuSans-74" d="M 1172 4494 
L 1172 3500 
L 2356 3500 
L 2356 3053 
L 1172 3053 
L 1172 1153 
Q 1172 725 1289 603 
Q 1406 481 1766 481 
L 2356 481 
L 2356 0 
L 1766 0 
Q 1100 0 847 248 
Q 594 497 594 1153 
L 594 3053 
L 172 3053 
L 172 3500 
L 594 3500 
L 594 4494 
L 1172 4494 
z
" transform="scale(0.015625)"/>
       <path id="DejaVuSans-68" d="M 3513 2113 
L 3513 0 
L 2938 0 
L 2938 2094 
Q 2938 2591 2744 2837 
Q 2550 3084 2163 3084 
Q 1697 3084 1428 2787 
Q 1159 2491 1159 1978 
L 1159 0 
L 581 0 
L 581 4863 
L 1159 4863 
L 1159 2956 
Q 1366 3272 1645 3428 
Q 1925 3584 2291 3584 
Q 2894 3584 3203 3211 
Q 3513 2838 3513 2113 
z
" transform="scale(0.015625)"/>
      </defs>
      <use xlink:href="#DejaVuSans-62"/>
      <use xlink:href="#DejaVuSans-61" transform="translate(63.476562 0)"/>
      <use xlink:href="#DejaVuSans-6e" transform="translate(124.755859 0)"/>
      <use xlink:href="#DejaVuSans-64" transform="translate(188.134766 0)"/>
      <use xlink:href="#DejaVuSans-77" transform="translate(251.611328 0)"/>
      <use xlink:href="#DejaVuSans-69" transform="translate(333.398438 0)"/>
      <use xlink:href="#DejaVuSans-64" transform="translate(361.181641 0)"/>
      <use xlink:href="#DejaVuSans-74" transform="translate(424.658203 0)"/>
      <use xlink:href="#DejaVuSans-68" transform="translate(463.867188 0)"/>
     </g>
    </g>
   </g>
   <g id="matplotlib.axis_2">
    <g id="ytick_1">
     <g id="line2d_29">
      <defs>
       <path id="mbd2f377c6c" d="M 0 0 
L -3.5 0 
" style="stroke: #000000; stroke-width: 0.8"/>
      </defs>
      <g>
       <use xlink:href="#mbd2f377c6c" x="43.78125" y="316.44327" style="stroke: #000000; stroke-width: 0.8"/>
      </g>
     </g>
     <g id="text_6">
      <!-- 1.0 -->
      <g transform="translate(20.878125 320.242489) scale(0.1 -0.1)">
       <defs>
        <path id="DejaVuSans-2e" d="M 684 794 
L 1344 794 
L 1344 0 
L 684 0 
L 684 794 
z
" transform="scale(0.015625)"/>
       </defs>
       <use xlink:href="#DejaVuSans-31"/>
       <use xlink:href="#DejaVuSans-2e" transform="translate(63.623047 0)"/>
       <use xlink:href="#DejaVuSans-30" transform="translate(95.410156 0)"/>
      </g>
     </g>
    </g>
    <g id="ytick_2">
     <g id="line2d_30">
      <g>
       <use xlink:href="#mbd2f377c6c" x="43.78125" y="267.422412" style="stroke: #000000; stroke-width: 0.8"/>
      </g>
     </g>
     <g id="text_7">
      <!-- 1.5 -->
      <g transform="translate(20.878125 271.221631) scale(0.1 -0.1)">
       <defs>
        <path id="DejaVuSans-35" d="M 691 4666 
L 3169 4666 
L 3169 4134 
L 1269 4134 
L 1269 2991 
Q 1406 3038 1543 3061 
Q 1681 3084 1819 3084 
Q 2600 3084 3056 2656 
Q 3513 2228 3513 1497 
Q 3513 744 3044 326 
Q 2575 -91 1722 -91 
Q 1428 -91 1123 -41 
Q 819 9 494 109 
L 494 744 
Q 775 591 1075 516 
Q 1375 441 1709 441 
Q 2250 441 2565 725 
Q 2881 1009 2881 1497 
Q 2881 1984 2565 2268 
Q 2250 2553 1709 2553 
Q 1456 2553 1204 2497 
Q 953 2441 691 2322 
L 691 4666 
z
" transform="scale(0.015625)"/>
       </defs>
       <use xlink:href="#DejaVuSans-31"/>
       <use xlink:href="#DejaVuSans-2e" transform="translate(63.623047 0)"/>
       <use xlink:href="#DejaVuSans-35" transform="translate(95.410156 0)"/>
      </g>
     </g>
    </g>
    <g id="ytick_3">
     <g id="line2d_31">
      <g>
       <use xlink:href="#mbd2f377c6c" x="43.78125" y="218.401555" style="stroke: #000000; stroke-width: 0.8"/>
      </g>
     </g>
     <g id="text_8">
      <!-- 2.0 -->
      <g transform="translate(20.878125 222.200774) scale(0.1 -0.1)">
       <use xlink:href="#DejaVuSans-32"/>
       <use xlink:href="#DejaVuSans-2e" transform="translate(63.623047 0)"/>
       <use xlink:href="#DejaVuSans-30" transform="translate(95.410156 0)"/>
      </g>
     </g>
    </g>
    <g id="ytick_4">
     <g id="line2d_32">
      <g>
       <use xlink:href="#mbd2f377c6c" x="43.78125" y="169.380697" style="stroke: #000000; stroke-width: 0.8"/>
      </g>
     </g>
     <g id="text_9">
      <!-- 2.5 -->
      <g transform="translate(20.878125 173.179916) scale(0.1 -0.1)">
       <use xlink:href="#DejaVuSans-32"/>
       <use xlink:href="#DejaVuSans-2e" transform="translate(63.623047 0)"/>
       <use xlink:href="#DejaVuSans-35" transform="translate(95.410156 0)"/>
      </g>
     </g>
    </g>
    <g id="ytick_5">
     <g id="line2d_33">
      <g>
       <use xlink:href="#mbd2f377c6c" x="43.78125" y="120.35984" style="stroke: #000000; stroke-width: 0.8"/>
      </g>
     </g>
     <g id="text_10">
      <!-- 3.0 -->
      <g transform="translate(20.878125 124.159059) scale(0.1 -0.1)">
       <use xlink:href="#DejaVuSans-33"/>
       <use xlink:href="#DejaVuSans-2e" transform="translate(63.623047 0)"/>
       <use xlink:href="#DejaVuSans-30" transform="translate(95.410156 0)"/>
      </g>
     </g>
    </g>
    <g id="ytick_6">
     <g id="line2d_34">
      <g>
       <use xlink:href="#mbd2f377c6c" x="43.78125" y="71.338982" style="stroke: #000000; stroke-width: 0.8"/>
      </g>
     </g>
     <g id="text_11">
      <!-- 3.5 -->
      <g transform="translate(20.878125 75.138201) scale(0.1 -0.1)">
       <use xlink:href="#DejaVuSans-33"/>
       <use xlink:href="#DejaVuSans-2e" transform="translate(63.623047 0)"/>
       <use xlink:href="#DejaVuSans-35" transform="translate(95.410156 0)"/>
      </g>
     </g>
    </g>
    <g id="ytick_7">
     <g id="line2d_35">
      <g>
       <use xlink:href="#mbd2f377c6c" x="43.78125" y="22.318125" style="stroke: #000000; stroke-width: 0.8"/>
      </g>
     </g>
     <g id="text_12">
      <!-- 4.0 -->
      <g transform="translate(20.878125 26.117344) scale(0.1 -0.1)">
       <use xlink:href="#DejaVuSans-34"/>
       <use xlink:href="#DejaVuSans-2e" transform="translate(63.623047 0)"/>
       <use xlink:href="#DejaVuSans-30" transform="translate(95.410156 0)"/>
      </g>
     </g>
    </g>
    <g id="text_13">
     <!-- alpha -->
     <g transform="translate(14.798438 183.240854) rotate(-90) scale(0.1 -0.1)">
      <defs>
       <path id="DejaVuSans-6c" d="M 603 4863 
L 1178 4863 
L 1178 0 
L 603 0 
L 603 4863 
z
" transform="scale(0.015625)"/>
       <path id="DejaVuSans-70" d="M 1159 525 
L 1159 -1331 
L 581 -1331 
L 581 3500 
L 1159 3500 
L 1159 2969 
Q 1341 3281 1617 3432 
Q 1894 3584 2278 3584 
Q 2916 3584 3314 3078 
Q 3713 2572 3713 1747 
Q 3713 922 3314 415 
Q 2916 -91 2278 -91 
Q 1894 -91 1617 61 
Q 1341 213 1159 525 
z
M 3116 1747 
Q 3116 2381 2855 2742 
Q 2594 3103 2138 3103 
Q 1681 3103 1420 2742 
Q 1159 2381 1159 1747 
Q 1159 1113 1420 752 
Q 1681 391 2138 391 
Q 2594 391 2855 752 
Q 3116 1113 3116 1747 
z
" transform="scale(0.015625)"/>
      </defs>
      <use xlink:href="#DejaVuSans-61"/>
      <use xlink:href="#DejaVuSans-6c" transform="translate(61.279297 0)"/>
      <use xlink:href="#DejaVuSans-70" transform="translate(89.0625 0)"/>
      <use xlink:href="#DejaVuSans-68" transform="translate(152.539062 0)"/>
      <use xlink:href="#DejaVuSans-61" transform="translate(215.917969 0)"/>
     </g>
    </g>
   </g>
   <g id="patch_3">
    <path d="M 43.78125 316.44327 
L 43.78125 22.318125 
" style="fill: none; stroke: #000000; stroke-width: 0.8; stroke-linejoin: miter; stroke-linecap: square"/>
   </g>
   <g id="patch_4">
    <path d="M 377.70552 316.44327 
L 377.70552 22.318125 
" style="fill: none; stroke: #000000; stroke-width: 0.8; stroke-linejoin: miter; stroke-linecap: square"/>
   </g>
   <g id="patch_5">
    <path d="M 43.78125 316.44327 
L 377.70552 316.44327 
" style="fill: none; stroke: #000000; stroke-width: 0.8; stroke-linejoin: miter; stroke-linecap: square"/>
   </g>
   <g id="patch_6">
    <path d="M 43.78125 22.318125 
L 377.70552 22.318125 
" style="fill: none; stroke: #000000; stroke-width: 0.8; stroke-linejoin: miter; stroke-linecap: square"/>
   </g>
   <g id="text_14">
    <!-- circulos_lo 8527 fkdc -->
    <g transform="translate(147.76401 16.318125) scale(0.12 -0.12)">
     <defs>
      <path id="DejaVuSans-63" d="M 3122 3366 
L 3122 2828 
Q 2878 2963 2633 3030 
Q 2388 3097 2138 3097 
Q 1578 3097 1268 2742 
Q 959 2388 959 1747 
Q 959 1106 1268 751 
Q 1578 397 2138 397 
Q 2388 397 2633 464 
Q 2878 531 3122 666 
L 3122 134 
Q 2881 22 2623 -34 
Q 2366 -91 2075 -91 
Q 1284 -91 818 406 
Q 353 903 353 1747 
Q 353 2603 823 3093 
Q 1294 3584 2113 3584 
Q 2378 3584 2631 3529 
Q 2884 3475 3122 3366 
z
" transform="scale(0.015625)"/>
      <path id="DejaVuSans-72" d="M 2631 2963 
Q 2534 3019 2420 3045 
Q 2306 3072 2169 3072 
Q 1681 3072 1420 2755 
Q 1159 2438 1159 1844 
L 1159 0 
L 581 0 
L 581 3500 
L 1159 3500 
L 1159 2956 
Q 1341 3275 1631 3429 
Q 1922 3584 2338 3584 
Q 2397 3584 2469 3576 
Q 2541 3569 2628 3553 
L 2631 2963 
z
" transform="scale(0.015625)"/>
      <path id="DejaVuSans-75" d="M 544 1381 
L 544 3500 
L 1119 3500 
L 1119 1403 
Q 1119 906 1312 657 
Q 1506 409 1894 409 
Q 2359 409 2629 706 
Q 2900 1003 2900 1516 
L 2900 3500 
L 3475 3500 
L 3475 0 
L 2900 0 
L 2900 538 
Q 2691 219 2414 64 
Q 2138 -91 1772 -91 
Q 1169 -91 856 284 
Q 544 659 544 1381 
z
M 1991 3584 
L 1991 3584 
z
" transform="scale(0.015625)"/>
      <path id="DejaVuSans-6f" d="M 1959 3097 
Q 1497 3097 1228 2736 
Q 959 2375 959 1747 
Q 959 1119 1226 758 
Q 1494 397 1959 397 
Q 2419 397 2687 759 
Q 2956 1122 2956 1747 
Q 2956 2369 2687 2733 
Q 2419 3097 1959 3097 
z
M 1959 3584 
Q 2709 3584 3137 3096 
Q 3566 2609 3566 1747 
Q 3566 888 3137 398 
Q 2709 -91 1959 -91 
Q 1206 -91 779 398 
Q 353 888 353 1747 
Q 353 2609 779 3096 
Q 1206 3584 1959 3584 
z
" transform="scale(0.015625)"/>
      <path id="DejaVuSans-73" d="M 2834 3397 
L 2834 2853 
Q 2591 2978 2328 3040 
Q 2066 3103 1784 3103 
Q 1356 3103 1142 2972 
Q 928 2841 928 2578 
Q 928 2378 1081 2264 
Q 1234 2150 1697 2047 
L 1894 2003 
Q 2506 1872 2764 1633 
Q 3022 1394 3022 966 
Q 3022 478 2636 193 
Q 2250 -91 1575 -91 
Q 1294 -91 989 -36 
Q 684 19 347 128 
L 347 722 
Q 666 556 975 473 
Q 1284 391 1588 391 
Q 1994 391 2212 530 
Q 2431 669 2431 922 
Q 2431 1156 2273 1281 
Q 2116 1406 1581 1522 
L 1381 1569 
Q 847 1681 609 1914 
Q 372 2147 372 2553 
Q 372 3047 722 3315 
Q 1072 3584 1716 3584 
Q 2034 3584 2315 3537 
Q 2597 3491 2834 3397 
z
" transform="scale(0.015625)"/>
      <path id="DejaVuSans-5f" d="M 3263 -1063 
L 3263 -1509 
L -63 -1509 
L -63 -1063 
L 3263 -1063 
z
" transform="scale(0.015625)"/>
      <path id="DejaVuSans-20" transform="scale(0.015625)"/>
      <path id="DejaVuSans-38" d="M 2034 2216 
Q 1584 2216 1326 1975 
Q 1069 1734 1069 1313 
Q 1069 891 1326 650 
Q 1584 409 2034 409 
Q 2484 409 2743 651 
Q 3003 894 3003 1313 
Q 3003 1734 2745 1975 
Q 2488 2216 2034 2216 
z
M 1403 2484 
Q 997 2584 770 2862 
Q 544 3141 544 3541 
Q 544 4100 942 4425 
Q 1341 4750 2034 4750 
Q 2731 4750 3128 4425 
Q 3525 4100 3525 3541 
Q 3525 3141 3298 2862 
Q 3072 2584 2669 2484 
Q 3125 2378 3379 2068 
Q 3634 1759 3634 1313 
Q 3634 634 3220 271 
Q 2806 -91 2034 -91 
Q 1263 -91 848 271 
Q 434 634 434 1313 
Q 434 1759 690 2068 
Q 947 2378 1403 2484 
z
M 1172 3481 
Q 1172 3119 1398 2916 
Q 1625 2713 2034 2713 
Q 2441 2713 2670 2916 
Q 2900 3119 2900 3481 
Q 2900 3844 2670 4047 
Q 2441 4250 2034 4250 
Q 1625 4250 1398 4047 
Q 1172 3844 1172 3481 
z
" transform="scale(0.015625)"/>
      <path id="DejaVuSans-37" d="M 525 4666 
L 3525 4666 
L 3525 4397 
L 1831 0 
L 1172 0 
L 2766 4134 
L 525 4134 
L 525 4666 
z
" transform="scale(0.015625)"/>
      <path id="DejaVuSans-66" d="M 2375 4863 
L 2375 4384 
L 1825 4384 
Q 1516 4384 1395 4259 
Q 1275 4134 1275 3809 
L 1275 3500 
L 2222 3500 
L 2222 3053 
L 1275 3053 
L 1275 0 
L 697 0 
L 697 3053 
L 147 3053 
L 147 3500 
L 697 3500 
L 697 3744 
Q 697 4328 969 4595 
Q 1241 4863 1831 4863 
L 2375 4863 
z
" transform="scale(0.015625)"/>
      <path id="DejaVuSans-6b" d="M 581 4863 
L 1159 4863 
L 1159 1991 
L 2875 3500 
L 3609 3500 
L 1753 1863 
L 3688 0 
L 2938 0 
L 1159 1709 
L 1159 0 
L 581 0 
L 581 4863 
z
" transform="scale(0.015625)"/>
     </defs>
     <use xlink:href="#DejaVuSans-63"/>
     <use xlink:href="#DejaVuSans-69" transform="translate(54.980469 0)"/>
     <use xlink:href="#DejaVuSans-72" transform="translate(82.763672 0)"/>
     <use xlink:href="#DejaVuSans-63" transform="translate(121.626953 0)"/>
     <use xlink:href="#DejaVuSans-75" transform="translate(176.607422 0)"/>
     <use xlink:href="#DejaVuSans-6c" transform="translate(239.986328 0)"/>
     <use xlink:href="#DejaVuSans-6f" transform="translate(267.769531 0)"/>
     <use xlink:href="#DejaVuSans-73" transform="translate(328.951172 0)"/>
     <use xlink:href="#DejaVuSans-5f" transform="translate(381.050781 0)"/>
     <use xlink:href="#DejaVuSans-6c" transform="translate(431.050781 0)"/>
     <use xlink:href="#DejaVuSans-6f" transform="translate(458.833984 0)"/>
     <use xlink:href="#DejaVuSans-20" transform="translate(520.015625 0)"/>
     <use xlink:href="#DejaVuSans-38" transform="translate(551.802734 0)"/>
     <use xlink:href="#DejaVuSans-35" transform="translate(615.425781 0)"/>
     <use xlink:href="#DejaVuSans-32" transform="translate(679.048828 0)"/>
     <use xlink:href="#DejaVuSans-37" transform="translate(742.671875 0)"/>
     <use xlink:href="#DejaVuSans-20" transform="translate(806.294922 0)"/>
     <use xlink:href="#DejaVuSans-66" transform="translate(838.082031 0)"/>
     <use xlink:href="#DejaVuSans-6b" transform="translate(873.287109 0)"/>
     <use xlink:href="#DejaVuSans-64" transform="translate(931.197266 0)"/>
     <use xlink:href="#DejaVuSans-63" transform="translate(994.673828 0)"/>
    </g>
   </g>
  </g>
  <g id="axes_2">
   <g id="patch_7">
    <path d="M 406.151733 316.44327 
L 420.857991 316.44327 
L 420.857991 22.318125 
L 406.151733 22.318125 
z
" style="fill: #ffffff"/>
   </g>
   <g id="QuadMesh_1">
    <path d="M 406.151733 316.44327 
L 420.857991 316.44327 
L 420.857991 296.834927 
L 406.151733 296.834927 
L 406.151733 316.44327 
" clip-path="url(#p0a2dfbf1b2)" style="fill: #470d60"/>
    <path d="M 406.151733 296.834927 
L 420.857991 296.834927 
L 420.857991 277.226584 
L 406.151733 277.226584 
L 406.151733 296.834927 
" clip-path="url(#p0a2dfbf1b2)" style="fill: #482475"/>
    <path d="M 406.151733 277.226584 
L 420.857991 277.226584 
L 420.857991 257.618241 
L 406.151733 257.618241 
L 406.151733 277.226584 
" clip-path="url(#p0a2dfbf1b2)" style="fill: #443983"/>
    <path d="M 406.151733 257.618241 
L 420.857991 257.618241 
L 420.857991 238.009898 
L 406.151733 238.009898 
L 406.151733 257.618241 
" clip-path="url(#p0a2dfbf1b2)" style="fill: #3d4d8a"/>
    <path d="M 406.151733 238.009898 
L 420.857991 238.009898 
L 420.857991 218.401555 
L 406.151733 218.401555 
L 406.151733 238.009898 
" clip-path="url(#p0a2dfbf1b2)" style="fill: #355f8d"/>
    <path d="M 406.151733 218.401555 
L 420.857991 218.401555 
L 420.857991 198.793212 
L 406.151733 198.793212 
L 406.151733 218.401555 
" clip-path="url(#p0a2dfbf1b2)" style="fill: #2d708e"/>
    <path d="M 406.151733 198.793212 
L 420.857991 198.793212 
L 420.857991 179.184869 
L 406.151733 179.184869 
L 406.151733 198.793212 
" clip-path="url(#p0a2dfbf1b2)" style="fill: #27808e"/>
    <path d="M 406.151733 179.184869 
L 420.857991 179.184869 
L 420.857991 159.576526 
L 406.151733 159.576526 
L 406.151733 179.184869 
" clip-path="url(#p0a2dfbf1b2)" style="fill: #21918c"/>
    <path d="M 406.151733 159.576526 
L 420.857991 159.576526 
L 420.857991 139.968183 
L 406.151733 139.968183 
L 406.151733 159.576526 
" clip-path="url(#p0a2dfbf1b2)" style="fill: #1fa188"/>
    <path d="M 406.151733 139.968183 
L 420.857991 139.968183 
L 420.857991 120.35984 
L 406.151733 120.35984 
L 406.151733 139.968183 
" clip-path="url(#p0a2dfbf1b2)" style="fill: #2ab07f"/>
    <path d="M 406.151733 120.35984 
L 420.857991 120.35984 
L 420.857991 100.751497 
L 406.151733 100.751497 
L 406.151733 120.35984 
" clip-path="url(#p0a2dfbf1b2)" style="fill: #44bf70"/>
    <path d="M 406.151733 100.751497 
L 420.857991 100.751497 
L 420.857991 81.143154 
L 406.151733 81.143154 
L 406.151733 100.751497 
" clip-path="url(#p0a2dfbf1b2)" style="fill: #67cc5c"/>
    <path d="M 406.151733 81.143154 
L 420.857991 81.143154 
L 420.857991 61.534811 
L 406.151733 61.534811 
L 406.151733 81.143154 
" clip-path="url(#p0a2dfbf1b2)" style="fill: #90d743"/>
    <path d="M 406.151733 61.534811 
L 420.857991 61.534811 
L 420.857991 41.926468 
L 406.151733 41.926468 
L 406.151733 61.534811 
" clip-path="url(#p0a2dfbf1b2)" style="fill: #bddf26"/>
    <path d="M 406.151733 41.926468 
L 420.857991 41.926468 
L 420.857991 22.318125 
L 406.151733 22.318125 
L 406.151733 41.926468 
" clip-path="url(#p0a2dfbf1b2)" style="fill: #eae51a"/>
   </g>
   <g id="matplotlib.axis_3"/>
   <g id="matplotlib.axis_4">
    <g id="ytick_8">
     <g id="line2d_36">
      <defs>
       <path id="m0a27ea52cb" d="M 0 0 
L 3.5 0 
" style="stroke: #000000; stroke-width: 0.8"/>
      </defs>
      <g>
       <use xlink:href="#m0a27ea52cb" x="420.857991" y="296.834927" style="stroke: #000000; stroke-width: 0.8"/>
      </g>
     </g>
     <g id="text_15">
      <!-- -5.6 -->
      <g transform="translate(427.857991 300.634146) scale(0.1 -0.1)">
       <defs>
        <path id="DejaVuSans-2d" d="M 313 2009 
L 1997 2009 
L 1997 1497 
L 313 1497 
L 313 2009 
z
" transform="scale(0.015625)"/>
        <path id="DejaVuSans-36" d="M 2113 2584 
Q 1688 2584 1439 2293 
Q 1191 2003 1191 1497 
Q 1191 994 1439 701 
Q 1688 409 2113 409 
Q 2538 409 2786 701 
Q 3034 994 3034 1497 
Q 3034 2003 2786 2293 
Q 2538 2584 2113 2584 
z
M 3366 4563 
L 3366 3988 
Q 3128 4100 2886 4159 
Q 2644 4219 2406 4219 
Q 1781 4219 1451 3797 
Q 1122 3375 1075 2522 
Q 1259 2794 1537 2939 
Q 1816 3084 2150 3084 
Q 2853 3084 3261 2657 
Q 3669 2231 3669 1497 
Q 3669 778 3244 343 
Q 2819 -91 2113 -91 
Q 1303 -91 875 529 
Q 447 1150 447 2328 
Q 447 3434 972 4092 
Q 1497 4750 2381 4750 
Q 2619 4750 2861 4703 
Q 3103 4656 3366 4563 
z
" transform="scale(0.015625)"/>
       </defs>
       <use xlink:href="#DejaVuSans-2d"/>
       <use xlink:href="#DejaVuSans-35" transform="translate(36.083984 0)"/>
       <use xlink:href="#DejaVuSans-2e" transform="translate(99.707031 0)"/>
       <use xlink:href="#DejaVuSans-36" transform="translate(131.494141 0)"/>
      </g>
     </g>
    </g>
    <g id="ytick_9">
     <g id="line2d_37">
      <g>
       <use xlink:href="#m0a27ea52cb" x="420.857991" y="257.618241" style="stroke: #000000; stroke-width: 0.8"/>
      </g>
     </g>
     <g id="text_16">
      <!-- -4.8 -->
      <g transform="translate(427.857991 261.41746) scale(0.1 -0.1)">
       <use xlink:href="#DejaVuSans-2d"/>
       <use xlink:href="#DejaVuSans-34" transform="translate(36.083984 0)"/>
       <use xlink:href="#DejaVuSans-2e" transform="translate(99.707031 0)"/>
       <use xlink:href="#DejaVuSans-38" transform="translate(131.494141 0)"/>
      </g>
     </g>
    </g>
    <g id="ytick_10">
     <g id="line2d_38">
      <g>
       <use xlink:href="#m0a27ea52cb" x="420.857991" y="218.401555" style="stroke: #000000; stroke-width: 0.8"/>
      </g>
     </g>
     <g id="text_17">
      <!-- -4.0 -->
      <g transform="translate(427.857991 222.200774) scale(0.1 -0.1)">
       <use xlink:href="#DejaVuSans-2d"/>
       <use xlink:href="#DejaVuSans-34" transform="translate(36.083984 0)"/>
       <use xlink:href="#DejaVuSans-2e" transform="translate(99.707031 0)"/>
       <use xlink:href="#DejaVuSans-30" transform="translate(131.494141 0)"/>
      </g>
     </g>
    </g>
    <g id="ytick_11">
     <g id="line2d_39">
      <g>
       <use xlink:href="#m0a27ea52cb" x="420.857991" y="179.184869" style="stroke: #000000; stroke-width: 0.8"/>
      </g>
     </g>
     <g id="text_18">
      <!-- -3.2 -->
      <g transform="translate(427.857991 182.984088) scale(0.1 -0.1)">
       <use xlink:href="#DejaVuSans-2d"/>
       <use xlink:href="#DejaVuSans-33" transform="translate(36.083984 0)"/>
       <use xlink:href="#DejaVuSans-2e" transform="translate(99.707031 0)"/>
       <use xlink:href="#DejaVuSans-32" transform="translate(131.494141 0)"/>
      </g>
     </g>
    </g>
    <g id="ytick_12">
     <g id="line2d_40">
      <g>
       <use xlink:href="#m0a27ea52cb" x="420.857991" y="139.968183" style="stroke: #000000; stroke-width: 0.8"/>
      </g>
     </g>
     <g id="text_19">
      <!-- -2.4 -->
      <g transform="translate(427.857991 143.767402) scale(0.1 -0.1)">
       <use xlink:href="#DejaVuSans-2d"/>
       <use xlink:href="#DejaVuSans-32" transform="translate(36.083984 0)"/>
       <use xlink:href="#DejaVuSans-2e" transform="translate(99.707031 0)"/>
       <use xlink:href="#DejaVuSans-34" transform="translate(131.494141 0)"/>
      </g>
     </g>
    </g>
    <g id="ytick_13">
     <g id="line2d_41">
      <g>
       <use xlink:href="#m0a27ea52cb" x="420.857991" y="100.751497" style="stroke: #000000; stroke-width: 0.8"/>
      </g>
     </g>
     <g id="text_20">
      <!-- -1.6 -->
      <g transform="translate(427.857991 104.550716) scale(0.1 -0.1)">
       <use xlink:href="#DejaVuSans-2d"/>
       <use xlink:href="#DejaVuSans-31" transform="translate(36.083984 0)"/>
       <use xlink:href="#DejaVuSans-2e" transform="translate(99.707031 0)"/>
       <use xlink:href="#DejaVuSans-36" transform="translate(131.494141 0)"/>
      </g>
     </g>
    </g>
    <g id="ytick_14">
     <g id="line2d_42">
      <g>
       <use xlink:href="#m0a27ea52cb" x="420.857991" y="61.534811" style="stroke: #000000; stroke-width: 0.8"/>
      </g>
     </g>
     <g id="text_21">
      <!-- -0.8 -->
      <g transform="translate(427.857991 65.33403) scale(0.1 -0.1)">
       <use xlink:href="#DejaVuSans-2d"/>
       <use xlink:href="#DejaVuSans-30" transform="translate(36.083984 0)"/>
       <use xlink:href="#DejaVuSans-2e" transform="translate(99.707031 0)"/>
       <use xlink:href="#DejaVuSans-38" transform="translate(131.494141 0)"/>
      </g>
     </g>
    </g>
    <g id="ytick_15">
     <g id="line2d_43">
      <g>
       <use xlink:href="#m0a27ea52cb" x="420.857991" y="22.318125" style="stroke: #000000; stroke-width: 0.8"/>
      </g>
     </g>
     <g id="text_22">
      <!-- 0.0 -->
      <g transform="translate(427.857991 26.117344) scale(0.1 -0.1)">
       <use xlink:href="#DejaVuSans-30"/>
       <use xlink:href="#DejaVuSans-2e" transform="translate(63.623047 0)"/>
       <use xlink:href="#DejaVuSans-30" transform="translate(95.410156 0)"/>
      </g>
     </g>
    </g>
    <g id="text_23">
     <!-- Score -->
     <g transform="translate(458.967366 183.383041) rotate(-90) scale(0.1 -0.1)">
      <defs>
       <path id="DejaVuSans-53" d="M 3425 4513 
L 3425 3897 
Q 3066 4069 2747 4153 
Q 2428 4238 2131 4238 
Q 1616 4238 1336 4038 
Q 1056 3838 1056 3469 
Q 1056 3159 1242 3001 
Q 1428 2844 1947 2747 
L 2328 2669 
Q 3034 2534 3370 2195 
Q 3706 1856 3706 1288 
Q 3706 609 3251 259 
Q 2797 -91 1919 -91 
Q 1588 -91 1214 -16 
Q 841 59 441 206 
L 441 856 
Q 825 641 1194 531 
Q 1563 422 1919 422 
Q 2459 422 2753 634 
Q 3047 847 3047 1241 
Q 3047 1584 2836 1778 
Q 2625 1972 2144 2069 
L 1759 2144 
Q 1053 2284 737 2584 
Q 422 2884 422 3419 
Q 422 4038 858 4394 
Q 1294 4750 2059 4750 
Q 2388 4750 2728 4690 
Q 3069 4631 3425 4513 
z
" transform="scale(0.015625)"/>
       <path id="DejaVuSans-65" d="M 3597 1894 
L 3597 1613 
L 953 1613 
Q 991 1019 1311 708 
Q 1631 397 2203 397 
Q 2534 397 2845 478 
Q 3156 559 3463 722 
L 3463 178 
Q 3153 47 2828 -22 
Q 2503 -91 2169 -91 
Q 1331 -91 842 396 
Q 353 884 353 1716 
Q 353 2575 817 3079 
Q 1281 3584 2069 3584 
Q 2775 3584 3186 3129 
Q 3597 2675 3597 1894 
z
M 3022 2063 
Q 3016 2534 2758 2815 
Q 2500 3097 2075 3097 
Q 1594 3097 1305 2825 
Q 1016 2553 972 2059 
L 3022 2063 
z
" transform="scale(0.015625)"/>
      </defs>
      <use xlink:href="#DejaVuSans-53"/>
      <use xlink:href="#DejaVuSans-63" transform="translate(63.476562 0)"/>
      <use xlink:href="#DejaVuSans-6f" transform="translate(118.457031 0)"/>
      <use xlink:href="#DejaVuSans-72" transform="translate(179.638672 0)"/>
      <use xlink:href="#DejaVuSans-65" transform="translate(218.501953 0)"/>
     </g>
    </g>
   </g>
   <g id="LineCollection_1"/>
   <g id="patch_8">
    <path d="M 406.151733 316.44327 
L 413.504862 316.44327 
L 420.857991 316.44327 
L 420.857991 22.318125 
L 413.504862 22.318125 
L 406.151733 22.318125 
L 406.151733 316.44327 
z
" style="fill: none; stroke: #000000; stroke-width: 0.8; stroke-linejoin: miter; stroke-linecap: square"/>
   </g>
  </g>
 </g>
 <defs>
  <clipPath id="p1fcf92e254">
   <rect x="43.78125" y="22.318125" width="333.92427" height="294.125145"/>
  </clipPath>
  <clipPath id="p0a2dfbf1b2">
   <rect x="406.151733" y="22.318125" width="14.706257" height="294.125145"/>
  </clipPath>
 </defs>
</svg>
