<?xml version="1.0" encoding="utf-8" standalone="no"?>
<!DOCTYPE svg PUBLIC "-//W3C//DTD SVG 1.1//EN"
  "http://www.w3.org/Graphics/SVG/1.1/DTD/svg11.dtd">
<svg xmlns:xlink="http://www.w3.org/1999/xlink" width="460.8pt" height="345.6pt" viewBox="0 0 460.8 345.6" xmlns="http://www.w3.org/2000/svg" version="1.1">
 <metadata>
  <rdf:RDF xmlns:dc="http://purl.org/dc/elements/1.1/" xmlns:cc="http://creativecommons.org/ns#" xmlns:rdf="http://www.w3.org/1999/02/22-rdf-syntax-ns#">
   <cc:Work>
    <dc:type rdf:resource="http://purl.org/dc/dcmitype/StillImage"/>
    <dc:date>2025-11-23T18:47:06.716182</dc:date>
    <dc:format>image/svg+xml</dc:format>
    <dc:creator>
     <cc:Agent>
      <dc:title>Matplotlib v3.10.7, https://matplotlib.org/</dc:title>
     </cc:Agent>
    </dc:creator>
   </cc:Work>
  </rdf:RDF>
 </metadata>
 <defs>
  <style type="text/css">*{stroke-linejoin: round; stroke-linecap: butt}</style>
 </defs>
 <g id="figure_1">
  <g id="patch_1">
   <path d="M 0 345.6 
L 460.8 345.6 
L 460.8 0 
L 0 0 
z
" style="fill: #ffffff"/>
  </g>
  <g id="axes_1">
   <g id="patch_2">
    <path d="M 39.58149 312.24351 
L 368.972479 312.24351 
L 368.972479 18.118365 
L 39.58149 18.118365 
z
" style="fill: #ffffff"/>
   </g>
   <g id="QuadContourSet_1">
    <path d="M 159.360031 293.779197 
L 168.263281 287.733081 
L 159.360031 282.883004 
L 148.539162 287.733081 
z
M 189.304667 312.24351 
L 201.219831 312.24351 
L 189.304667 305.663088 
L 182.612719 312.24351 
z
M 129.415396 269.776244 
L 133.575126 263.222652 
L 129.415396 260.987634 
L 122.20801 263.222652 
z
M 39.58149 214.838554 
L 44.961379 214.201795 
L 39.58149 212.161384 
L 38.965834 214.201795 
z
" clip-path="url(#pfc549a08f7)" style="fill: #470e61"/>
    <path d="M 129.415396 289.03424 
L 159.360031 305.87316 
L 168.603236 312.24351 
L 182.612719 312.24351 
L 189.304667 305.663088 
L 201.219831 312.24351 
L 216.910245 312.24351 
L 189.304667 294.34638 
L 182.494593 287.733081 
L 159.360031 273.181461 
L 147.883526 263.222652 
L 129.415396 251.779907 
L 113.1754 238.712224 
L 99.470761 230.533316 
L 77.471719 214.201795 
L 69.526125 209.695418 
L 40.872787 189.691366 
L 39.58149 188.992002 
L 9.636855 173.330671 
L 0.943433 189.691366 
L 9.636855 196.988013 
L 31.048047 214.201795 
L 39.58149 222.390095 
L 62.285354 238.712224 
L 69.526125 244.496315 
L 96.547196 263.222652 
L 99.470761 265.55509 
L 127.629906 287.733081 
z
M 148.539162 287.733081 
L 159.360031 282.883004 
L 168.263281 287.733081 
L 159.360031 293.779197 
z
M 122.20801 263.222652 
L 129.415396 260.987634 
L 133.575126 263.222652 
L 129.415396 269.776244 
z
M 38.965834 214.201795 
L 39.58149 212.161384 
L 44.961379 214.201795 
L 39.58149 214.838554 
z
M -20.307781 171.369761 
L -1.613893 165.180938 
L -20.307781 156.048353 
L -37.781816 165.180938 
z
M -50.252416 150.848855 
L -43.297417 140.670509 
L -50.252416 137.384294 
L -72.151542 140.670509 
z
" clip-path="url(#pfc549a08f7)" style="fill: #482677"/>
    <path d="M 129.415396 292.91932 
L 157.343444 312.24351 
L 159.360031 312.24351 
L 168.603236 312.24351 
L 159.360031 305.87316 
L 129.415396 289.03424 
L 127.629906 287.733081 
L 99.470761 265.55509 
L 96.547196 263.222652 
L 69.526125 244.496315 
L 62.285354 238.712224 
L 39.58149 222.390095 
L 31.048047 214.201795 
L 9.636855 196.988013 
L 0.943433 189.691366 
L 9.636855 173.330671 
L 39.58149 188.992002 
L 40.872787 189.691366 
L 69.526125 209.695418 
L 77.471719 214.201795 
L 99.470761 230.533316 
L 113.1754 238.712224 
L 129.415396 251.779907 
L 147.883526 263.222652 
L 159.360031 273.181461 
L 182.494593 287.733081 
L 189.304667 294.34638 
L 216.910245 312.24351 
L 219.249302 312.24351 
L 227.266378 312.24351 
L 219.249302 306.96478 
L 194.01181 287.733081 
L 189.304667 284.802333 
L 159.360031 263.479917 
L 159.093303 263.222652 
L 129.415396 242.57218 
L 125.122636 238.712224 
L 99.470761 221.415844 
L 90.873726 214.201795 
L 69.526125 200.346484 
L 56.227257 189.691366 
L 39.58149 179.197967 
L 20.012698 165.180938 
L 9.636855 159.035351 
L -18.351843 140.670509 
L -20.307781 139.605801 
L -50.252416 121.38908 
L -57.170107 116.16008 
L -80.197051 102.464361 
L -90.934978 91.649651 
L -110.141687 79.903725 
L -110.141687 91.649651 
L -110.141687 116.16008 
L -110.141687 127.504959 
L -91.610403 140.670509 
L -80.197051 150.640105 
L -58.646965 165.180938 
L -50.252416 170.089438 
L -20.307781 182.792329 
L -11.25853 189.691366 
L 9.636855 205.375408 
L 21.704906 214.201795 
L 39.58149 229.941637 
L 52.990363 238.712224 
L 69.526125 250.833551 
L 88.876167 263.222652 
L 99.470761 271.086823 
L 121.902047 287.733081 
z
M -37.781816 165.180938 
L -20.307781 156.048353 
L -1.613893 165.180938 
L -20.307781 171.369761 
z
M -72.151542 140.670509 
L -50.252416 137.384294 
L -43.297417 140.670509 
L -50.252416 150.848855 
z
" clip-path="url(#pfc549a08f7)" style="fill: #433d84"/>
    <path d="M 129.415396 296.804399 
L 152.806518 312.24351 
L 157.343444 312.24351 
L 129.415396 292.91932 
L 121.902047 287.733081 
L 99.470761 271.086823 
L 88.876167 263.222652 
L 69.526125 250.833551 
L 52.990363 238.712224 
L 39.58149 229.941637 
L 21.704906 214.201795 
L 9.636855 205.375408 
L -11.25853 189.691366 
L -20.307781 182.792329 
L -50.252416 170.089438 
L -58.646965 165.180938 
L -80.197051 150.640105 
L -91.610403 140.670509 
L -110.141687 127.504959 
L -110.141687 138.924875 
L -107.270705 140.670509 
L -80.197051 161.203829 
L -73.363472 165.180938 
L -50.252416 176.995942 
L -24.50834 189.691366 
L -20.307781 193.909824 
L 9.636855 213.762803 
L 10.308061 214.201795 
L 39.58149 237.493178 
L 41.665174 238.712224 
L 69.526125 257.170787 
L 79.874945 263.222652 
L 99.470761 276.618557 
L 115.464546 287.733081 
z
M 219.249302 306.96478 
L 227.266378 312.24351 
L 235.587555 312.24351 
L 219.249302 300.553668 
L 203.848617 287.733081 
L 189.304667 277.750764 
L 170.956851 263.222652 
L 159.360031 255.673404 
L 137.284046 238.712224 
L 129.415396 233.781652 
L 102.727108 214.201795 
L 99.470761 212.273757 
L 69.526125 190.997549 
L 68.0673 189.691366 
L 39.58149 169.403931 
L 34.420105 165.180938 
L 9.636855 148.189897 
L -0.079352 140.670509 
L -20.307781 127.46299 
L -35.550525 116.16008 
L -50.252416 107.046748 
L -71.433201 91.649651 
L -80.197051 86.495045 
L -108.680341 67.139223 
L -110.141687 66.329485 
L -110.141687 67.139223 
L -110.141687 79.903725 
L -90.934978 91.649651 
L -80.197051 102.464361 
L -57.170107 116.16008 
L -50.252416 121.38908 
L -20.307781 139.605801 
L -18.351843 140.670509 
L 9.636855 159.035351 
L 20.012698 165.180938 
L 39.58149 179.197967 
L 56.227257 189.691366 
L 69.526125 200.346484 
L 90.873726 214.201795 
L 99.470761 221.415844 
L 125.122636 238.712224 
L 129.415396 242.57218 
L 159.093303 263.222652 
L 159.360031 263.479917 
L 189.304667 284.802333 
L 194.01181 287.733081 
z
" clip-path="url(#pfc549a08f7)" style="fill: #3b528b"/>
    <path d="M 129.415396 300.689478 
L 147.835758 312.24351 
L 152.806518 312.24351 
L 129.415396 296.804399 
L 115.464546 287.733081 
L 99.470761 276.618557 
L 79.874945 263.222652 
L 69.526125 257.170787 
L 41.665174 238.712224 
L 39.58149 237.493178 
L 10.308061 214.201795 
L 9.636855 213.762803 
L -20.307781 193.909824 
L -24.50834 189.691366 
L -50.252416 176.995942 
L -73.363472 165.180938 
L -80.197051 161.203829 
L -107.270705 140.670509 
L -110.141687 138.924875 
L -110.141687 140.670509 
L -110.141687 148.101094 
L -86.034539 165.180938 
L -80.197051 169.429086 
L -50.252416 183.902446 
L -36.926372 189.691366 
L -20.307781 204.562038 
L -3.546894 214.201795 
L 9.636855 221.719206 
L 32.746586 238.712224 
L 39.58149 243.674945 
L 69.219015 263.222652 
L 69.526125 263.463037 
L 99.470761 282.150291 
L 108.116363 287.733081 
z
M 219.249302 300.553668 
L 235.587555 312.24351 
L 242.75939 312.24351 
L 219.249302 294.142556 
L 212.117803 287.733081 
L 189.304667 270.699194 
L 180.669253 263.222652 
L 159.360031 247.918512 
L 148.545396 238.712224 
L 129.415396 225.292252 
L 115.999965 214.201795 
L 99.470761 203.038378 
L 82.789019 189.691366 
L 69.526125 181.000561 
L 49.384473 165.180938 
L 39.58149 158.99754 
L 15.522054 140.670509 
L 9.636855 137.10412 
L -18.831568 116.16008 
L -20.307781 115.299216 
L -50.252416 93.507198 
L -52.394989 91.649651 
L -80.197051 71.802721 
L -85.769637 67.139223 
L -110.141687 50.153978 
L -110.141687 66.329485 
L -108.680341 67.139223 
L -80.197051 86.495045 
L -71.433201 91.649651 
L -50.252416 107.046748 
L -35.550525 116.16008 
L -20.307781 127.46299 
L -0.079352 140.670509 
L 9.636855 148.189897 
L 34.420105 165.180938 
L 39.58149 169.403931 
L 68.0673 189.691366 
L 69.526125 190.997549 
L 99.470761 212.273757 
L 102.727108 214.201795 
L 129.415396 233.781652 
L 137.284046 238.712224 
L 159.360031 255.673404 
L 170.956851 263.222652 
L 189.304667 277.750764 
L 203.848617 287.733081 
z
" clip-path="url(#pfc549a08f7)" style="fill: #32658e"/>
    <path d="M 129.415396 304.574557 
L 142.339339 312.24351 
L 147.835758 312.24351 
L 129.415396 300.689478 
L 108.116363 287.733081 
L 99.470761 282.150291 
L 69.526125 263.463037 
L 69.219015 263.222652 
L 39.58149 243.674945 
L 32.746586 238.712224 
L 9.636855 221.719206 
L -3.546894 214.201795 
L -20.307781 204.562038 
L -36.926372 189.691366 
L -50.252416 183.902446 
L -80.197051 169.429086 
L -86.034539 165.180938 
L -110.141687 148.101094 
L -110.141687 156.87246 
L -97.025881 165.180938 
L -80.197051 176.242337 
L -52.006573 189.691366 
L -50.252416 191.004196 
L -21.045436 214.201795 
L -20.307781 214.866581 
L 9.636855 229.651806 
L 23.213731 238.712224 
L 39.58149 249.593021 
L 61.885358 263.222652 
L 69.526125 268.801259 
L 99.470761 287.682025 
L 99.556707 287.733081 
z
M 219.249302 294.142556 
L 242.75939 312.24351 
L 249.061191 312.24351 
L 219.252052 287.733081 
L 219.249302 287.731289 
L 189.304667 263.647625 
L 188.850423 263.222652 
L 159.360031 240.16362 
L 157.797396 238.712224 
L 129.415396 216.802852 
L 126.565364 214.201795 
L 99.470761 193.802999 
L 94.877423 189.691366 
L 69.526125 170.898326 
L 63.110587 165.180938 
L 39.58149 148.126969 
L 31.087074 140.670509 
L 9.636855 125.475033 
L -1.16126 116.16008 
L -20.307781 102.853327 
L -33.464446 91.649651 
L -50.252416 80.229518 
L -65.841233 67.139223 
L -80.197051 57.583526 
L -98.134438 42.628794 
L -110.141687 34.820879 
L -110.141687 42.628794 
L -110.141687 50.153978 
L -85.769637 67.139223 
L -80.197051 71.802721 
L -52.394989 91.649651 
L -50.252416 93.507198 
L -20.307781 115.299216 
L -18.831568 116.16008 
L 9.636855 137.10412 
L 15.522054 140.670509 
L 39.58149 158.99754 
L 49.384473 165.180938 
L 69.526125 181.000561 
L 82.789019 189.691366 
L 99.470761 203.038378 
L 115.999965 214.201795 
L 129.415396 225.292252 
L 148.545396 238.712224 
L 159.360031 247.918512 
L 180.669253 263.222652 
L 189.304667 270.699194 
L 212.117803 287.733081 
z
" clip-path="url(#pfc549a08f7)" style="fill: #2a768e"/>
    <path d="M 99.470761 293.40948 
L 129.415396 308.459637 
L 136.192791 312.24351 
L 142.339339 312.24351 
L 129.415396 304.574557 
L 99.556707 287.733081 
L 99.470761 287.682025 
L 69.526125 268.801259 
L 61.885358 263.222652 
L 39.58149 249.593021 
L 23.213731 238.712224 
L 9.636855 229.651806 
L -20.307781 214.866581 
L -21.045436 214.201795 
L -50.252416 191.004196 
L -52.006573 189.691366 
L -80.197051 176.242337 
L -97.025881 165.180938 
L -110.141687 156.87246 
L -110.141687 165.180938 
L -110.141687 165.716979 
L -80.197051 183.055589 
L -64.396989 189.691366 
L -50.252416 199.117289 
L -29.515284 214.201795 
L -20.307781 221.860892 
L 9.636855 237.584406 
L 11.532943 238.712224 
L 39.58149 255.511097 
L 53.345417 263.222652 
L 69.526125 274.139481 
L 92.667826 287.733081 
z
M 249.193937 312.24351 
L 258.061165 312.24351 
L 249.193937 305.830115 
L 229.040699 287.733081 
L 219.249302 280.71343 
L 199.353728 263.222652 
L 189.304667 256.129174 
L 168.96324 238.712224 
L 159.360031 231.989039 
L 138.455729 214.201795 
L 129.415396 207.959534 
L 107.506929 189.691366 
L 99.470761 184.263408 
L 76.418266 165.180938 
L 69.526125 160.55847 
L 45.106027 140.670509 
L 39.58149 137.059191 
L 13.486016 116.16008 
L 9.636855 113.68032 
L -18.188062 91.649651 
L -20.307781 90.299344 
L -49.994313 67.139223 
L -50.252416 66.979602 
L -80.197051 43.58434 
L -81.175601 42.628794 
L -110.141687 20.220616 
L -110.141687 34.820879 
L -98.134438 42.628794 
L -80.197051 57.583526 
L -65.841233 67.139223 
L -50.252416 80.229518 
L -33.464446 91.649651 
L -20.307781 102.853327 
L -1.16126 116.16008 
L 9.636855 125.475033 
L 31.087074 140.670509 
L 39.58149 148.126969 
L 63.110587 165.180938 
L 69.526125 170.898326 
L 94.877423 189.691366 
L 99.470761 193.802999 
L 126.565364 214.201795 
L 129.415396 216.802852 
L 157.797396 238.712224 
L 159.360031 240.16362 
L 188.850423 263.222652 
L 189.304667 263.647625 
L 219.249302 287.731289 
L 219.252052 287.733081 
L 249.061191 312.24351 
z
" clip-path="url(#pfc549a08f7)" style="fill: #24878e"/>
    <path d="M 99.470761 299.138758 
L 129.158398 312.24351 
L 129.415396 312.24351 
L 136.192791 312.24351 
L 129.415396 308.459637 
L 99.470761 293.40948 
L 92.667826 287.733081 
L 69.526125 274.139481 
L 53.345417 263.222652 
L 39.58149 255.511097 
L 11.532943 238.712224 
L 9.636855 237.584406 
L -20.307781 221.860892 
L -29.515284 214.201795 
L -50.252416 199.117289 
L -64.396989 189.691366 
L -80.197051 183.055589 
L -110.141687 165.716979 
L -110.141687 175.874559 
L -80.626602 189.691366 
L -80.197051 190.015268 
L -50.252416 207.230383 
L -39.637625 214.201795 
L -20.307781 228.855203 
L 0.21918 238.712224 
L 9.636855 246.319399 
L 39.58149 261.429173 
L 43.122706 263.222652 
L 69.526125 279.477702 
L 84.760674 287.733081 
z
M 249.193937 305.830115 
L 258.061165 312.24351 
L 265.795933 312.24351 
L 249.193937 299.269802 
L 237.275854 287.733081 
L 219.249302 273.695571 
L 208.268352 263.222652 
L 189.304667 248.580783 
L 178.766591 238.712224 
L 159.360031 223.717823 
L 149.224115 214.201795 
L 129.415396 198.95988 
L 119.446994 189.691366 
L 99.470761 174.479697 
L 89.498599 165.180938 
L 69.526125 149.90878 
L 59.580165 140.670509 
L 39.58149 125.560712 
L 29.420601 116.16008 
L 9.636855 101.218926 
L -0.682795 91.649651 
L -20.307781 76.770452 
L -30.68428 67.139223 
L -50.252416 52.483406 
L -60.869542 42.628794 
L -80.197051 28.110912 
L -90.995164 18.118365 
L -110.141687 18.118365 
L -110.141687 20.220616 
L -81.175601 42.628794 
L -80.197051 43.58434 
L -50.252416 66.979602 
L -49.994313 67.139223 
L -20.307781 90.299344 
L -18.188062 91.649651 
L 9.636855 113.68032 
L 13.486016 116.16008 
L 39.58149 137.059191 
L 45.106027 140.670509 
L 69.526125 160.55847 
L 76.418266 165.180938 
L 99.470761 184.263408 
L 107.506929 189.691366 
L 129.415396 207.959534 
L 138.455729 214.201795 
L 159.360031 231.989039 
L 168.96324 238.712224 
L 189.304667 256.129174 
L 199.353728 263.222652 
L 219.249302 280.71343 
L 229.040699 287.733081 
z
" clip-path="url(#pfc549a08f7)" style="fill: #1f998a"/>
    <path d="M 99.470761 304.868036 
L 118.188982 312.24351 
L 129.158398 312.24351 
L 99.470761 299.138758 
L 84.760674 287.733081 
L 69.526125 279.477702 
L 43.122706 263.222652 
L 39.58149 261.429173 
L 9.636855 246.319399 
L 0.21918 238.712224 
L -20.307781 228.855203 
L -39.637625 214.201795 
L -50.252416 207.230383 
L -80.197051 190.015268 
L -80.626602 189.691366 
L -110.141687 175.874559 
L -110.141687 186.032138 
L -100.560213 189.691366 
L -80.197051 202.449931 
L -53.289953 214.201795 
L -50.252416 216.617064 
L -20.307781 235.849514 
L -13.468726 238.712224 
L 9.636855 255.18738 
L 28.602066 263.222652 
L 39.58149 272.063193 
L 69.526125 284.815924 
L 75.43235 287.733081 
z
M 249.193937 299.269802 
L 265.795933 312.24351 
L 272.528086 312.24351 
L 249.193937 292.709488 
L 244.383731 287.733081 
L 219.249302 266.677712 
L 215.876439 263.222652 
L 189.304667 241.032391 
L 187.012142 238.712224 
L 159.360031 215.446607 
L 158.14114 214.201795 
L 129.415396 189.960225 
L 129.151585 189.691366 
L 100.457606 165.180938 
L 99.470761 164.512609 
L 72.274999 140.670509 
L 69.526125 138.786358 
L 43.586981 116.16008 
L 39.58149 113.463613 
L 14.866096 91.649651 
L 9.636855 88.061601 
L -13.647091 67.139223 
L -20.307781 62.469871 
L -42.470858 42.628794 
L -50.252416 37.115173 
L -71.10629 18.118365 
L -80.197051 18.118365 
L -90.995164 18.118365 
L -80.197051 28.110912 
L -60.869542 42.628794 
L -50.252416 52.483406 
L -30.68428 67.139223 
L -20.307781 76.770452 
L -0.682795 91.649651 
L 9.636855 101.218926 
L 29.420601 116.16008 
L 39.58149 125.560712 
L 59.580165 140.670509 
L 69.526125 149.90878 
L 89.498599 165.180938 
L 99.470761 174.479697 
L 119.446994 189.691366 
L 129.415396 198.95988 
L 149.224115 214.201795 
L 159.360031 223.717823 
L 178.766591 238.712224 
L 189.304667 248.580783 
L 208.268352 263.222652 
L 219.249302 273.695571 
L 237.275854 287.733081 
z
" clip-path="url(#pfc549a08f7)" style="fill: #24aa83"/>
    <path d="M 69.526125 298.379703 
L 99.470761 310.597314 
L 104.270773 312.24351 
L 118.188982 312.24351 
L 99.470761 304.868036 
L 75.43235 287.733081 
L 69.526125 284.815924 
L 39.58149 272.063193 
L 28.602066 263.222652 
L 9.636855 255.18738 
L -13.468726 238.712224 
L -20.307781 235.849514 
L -50.252416 216.617064 
L -53.289953 214.201795 
L -80.197051 202.449931 
L -100.560213 189.691366 
L -110.141687 186.032138 
L -110.141687 189.691366 
L -110.141687 207.177269 
L -84.367802 214.201795 
L -80.197051 216.18061 
L -50.252416 233.780614 
L -38.450075 238.712224 
L -20.307781 250.370202 
L 6.685685 263.222652 
L 9.636855 266.672443 
L 39.58149 284.747825 
L 51.8462 287.733081 
z
M 249.193937 292.709488 
L 272.528086 312.24351 
L 278.487976 312.24351 
L 252.925959 287.733081 
L 249.193937 285.122185 
L 226.790265 263.222652 
L 219.249302 257.66357 
L 199.752852 238.712224 
L 189.304667 230.769839 
L 172.532254 214.201795 
L 159.360031 203.972805 
L 145.033149 189.691366 
L 129.415396 177.401826 
L 117.178985 165.180938 
L 99.470761 151.02934 
L 89.344161 140.670509 
L 69.526125 124.569716 
L 61.320055 116.16008 
L 39.58149 98.684042 
L 32.815968 91.649651 
L 9.636855 72.60162 
L 4.489773 67.139223 
L -20.307781 46.262422 
L -23.722415 42.628794 
L -50.252416 19.895505 
L -51.885007 18.118365 
L -71.10629 18.118365 
L -50.252416 37.115173 
L -42.470858 42.628794 
L -20.307781 62.469871 
L -13.647091 67.139223 
L 9.636855 88.061601 
L 14.866096 91.649651 
L 39.58149 113.463613 
L 43.586981 116.16008 
L 69.526125 138.786358 
L 72.274999 140.670509 
L 99.470761 164.512609 
L 100.457606 165.180938 
L 129.151585 189.691366 
L 129.415396 189.960225 
L 158.14114 214.201795 
L 159.360031 215.446607 
L 187.012142 238.712224 
L 189.304667 241.032391 
L 215.876439 263.222652 
L 219.249302 266.677712 
L 244.383731 287.733081 
z
" clip-path="url(#pfc549a08f7)" style="fill: #3aba76"/>
    <path d="M 9.636855 296.030104 
L 39.58149 299.394125 
L 61.491412 312.24351 
L 69.526125 312.24351 
L 99.470761 312.24351 
L 104.270773 312.24351 
L 99.470761 310.597314 
L 69.526125 298.379703 
L 51.8462 287.733081 
L 39.58149 284.747825 
L 9.636855 266.672443 
L 6.685685 263.222652 
L -20.307781 250.370202 
L -38.450075 238.712224 
L -50.252416 233.780614 
L -80.197051 216.18061 
L -84.367802 214.201795 
L -110.141687 207.177269 
L -110.141687 214.201795 
L -110.141687 238.712224 
L -110.141687 246.956132 
L -80.197051 246.20448 
L -58.471001 263.222652 
L -50.252416 271.519675 
L -20.307781 270.346286 
L 1.41827 287.733081 
z
M 279.138573 312.24351 
L 292.253928 312.24351 
L 279.138573 302.255203 
L 266.040655 287.733081 
L 249.193937 274.308229 
L 239.05199 263.222652 
L 219.249302 246.713513 
L 211.887257 238.712224 
L 189.304667 219.302805 
L 184.691929 214.201795 
L 159.360031 191.931626 
L 157.357512 189.691366 
L 130.397645 165.180938 
L 129.415396 164.479762 
L 105.648718 140.670509 
L 99.470761 136.100882 
L 80.037292 116.16008 
L 69.526125 107.964931 
L 53.429055 91.649651 
L 39.58149 80.487592 
L 26.962943 67.139223 
L 9.636855 52.693047 
L 0.518527 42.628794 
L -20.307781 24.813701 
L -26.216866 18.118365 
L -50.252416 18.118365 
L -51.885007 18.118365 
L -50.252416 19.895505 
L -23.722415 42.628794 
L -20.307781 46.262422 
L 4.489773 67.139223 
L 9.636855 72.60162 
L 32.815968 91.649651 
L 39.58149 98.684042 
L 61.320055 116.16008 
L 69.526125 124.569716 
L 89.344161 140.670509 
L 99.470761 151.02934 
L 117.178985 165.180938 
L 129.415396 177.401826 
L 145.033149 189.691366 
L 159.360031 203.972805 
L 172.532254 214.201795 
L 189.304667 230.769839 
L 199.752852 238.712224 
L 219.249302 257.66357 
L 226.790265 263.222652 
L 249.193937 285.122185 
L 252.925959 287.733081 
L 278.487976 312.24351 
z
" clip-path="url(#pfc549a08f7)" style="fill: #5ec962"/>
    <path d="M -80.197051 297.426136 
L -50.252416 297.129788 
L -30.193843 312.24351 
L -20.307781 312.24351 
L 9.636855 312.24351 
L 39.58149 312.24351 
L 61.491412 312.24351 
L 39.58149 299.394125 
L 9.636855 296.030104 
L 1.41827 287.733081 
L -20.307781 270.346286 
L -50.252416 271.519675 
L -58.471001 263.222652 
L -80.197051 246.20448 
L -110.141687 246.956132 
L -110.141687 263.222652 
L -110.141687 272.310916 
L -90.083113 287.733081 
z
M 279.138573 302.255203 
L 292.253928 312.24351 
L 303.951909 312.24351 
L 279.138573 290.952878 
L 276.505787 287.733081 
L 249.193937 263.494273 
L 248.967671 263.222652 
L 228.188263 238.712224 
L 219.249302 232.084826 
L 204.41556 214.201795 
L 189.304667 202.228791 
L 178.832366 189.691366 
L 159.360031 173.334232 
L 152.519375 165.180938 
L 129.415396 144.612868 
L 126.156492 140.670509 
L 99.470761 116.381014 
L 99.290782 116.16008 
L 77.747401 91.649651 
L 69.526125 85.264677 
L 54.083898 67.139223 
L 39.58149 54.893762 
L 29.434283 42.628794 
L 9.636855 25.691991 
L 3.41649 18.118365 
L -20.307781 18.118365 
L -26.216866 18.118365 
L -20.307781 24.813701 
L 0.518527 42.628794 
L 9.636855 52.693047 
L 26.962943 67.139223 
L 39.58149 80.487592 
L 53.429055 91.649651 
L 69.526125 107.964931 
L 80.037292 116.16008 
L 99.470761 136.100882 
L 105.648718 140.670509 
L 129.415396 164.479762 
L 130.397645 165.180938 
L 157.357512 189.691366 
L 159.360031 191.931626 
L 184.691929 214.201795 
L 189.304667 219.302805 
L 211.887257 238.712224 
L 219.249302 246.713513 
L 239.05199 263.222652 
L 249.193937 274.308229 
L 266.040655 287.733081 
z
" clip-path="url(#pfc549a08f7)" style="fill: #89d548"/>
    <path d="M -80.197051 312.24351 
L -50.252416 312.24351 
L -30.193843 312.24351 
L -50.252416 297.129788 
L -80.197051 297.426136 
L -90.083113 287.733081 
L -110.141687 272.310916 
L -110.141687 287.733081 
L -110.141687 312.24351 
z
M 279.138573 290.952878 
L 303.951909 312.24351 
L 309.083208 312.24351 
L 335.137021 312.24351 
L 309.083208 289.273644 
L 308.082716 287.733081 
L 292.40537 263.222652 
L 279.138573 252.887041 
L 271.470926 238.712224 
L 279.138573 223.922458 
L 296.655128 238.712224 
L 309.083208 249.382896 
L 324.635268 263.222652 
L 339.027843 277.414275 
L 349.862579 287.733081 
L 368.972479 309.672447 
L 371.439268 312.24351 
L 398.917114 312.24351 
L 428.861749 312.24351 
L 458.806385 312.24351 
L 488.75102 312.24351 
L 518.695655 312.24351 
L 548.640291 312.24351 
L 578.584926 312.24351 
L 608.529561 312.24351 
L 638.474197 312.24351 
L 668.418832 312.24351 
L 698.363467 312.24351 
L 728.308103 312.24351 
L 758.252738 312.24351 
L 788.197373 312.24351 
L 818.142009 312.24351 
L 848.086644 312.24351 
L 878.031279 312.24351 
L 907.975915 312.24351 
L 937.92055 312.24351 
L 967.865185 312.24351 
L 997.809821 312.24351 
L 1027.754456 312.24351 
L 1057.699091 312.24351 
L 1087.643727 312.24351 
L 1117.588362 312.24351 
L 1147.532997 312.24351 
L 1177.477633 312.24351 
L 1207.422268 312.24351 
L 1207.422268 287.733081 
L 1207.422268 263.222652 
L 1207.422268 238.712224 
L 1207.422268 214.201795 
L 1207.422268 189.691366 
L 1207.422268 165.180938 
L 1207.422268 140.670509 
L 1207.422268 116.16008 
L 1207.422268 91.649651 
L 1207.422268 67.139223 
L 1207.422268 42.628794 
L 1207.422268 18.118365 
L 1177.477633 18.118365 
L 1147.532997 18.118365 
L 1117.588362 18.118365 
L 1087.643727 18.118365 
L 1057.699091 18.118365 
L 1027.754456 18.118365 
L 997.809821 18.118365 
L 967.865185 18.118365 
L 937.92055 18.118365 
L 907.975915 18.118365 
L 878.031279 18.118365 
L 848.086644 18.118365 
L 818.142009 18.118365 
L 788.197373 18.118365 
L 758.252738 18.118365 
L 728.308103 18.118365 
L 698.363467 18.118365 
L 668.418832 18.118365 
L 638.474197 18.118365 
L 608.529561 18.118365 
L 578.584926 18.118365 
L 548.640291 18.118365 
L 518.695655 18.118365 
L 488.75102 18.118365 
L 458.806385 18.118365 
L 428.861749 18.118365 
L 398.917114 18.118365 
L 368.972479 18.118365 
L 339.027843 18.118365 
L 309.083208 18.118365 
L 279.138573 18.118365 
L 249.193937 18.118365 
L 219.249302 18.118365 
L 189.304667 18.118365 
L 159.360031 18.118365 
L 129.415396 18.118365 
L 99.470761 18.118365 
L 69.526125 18.118365 
L 39.58149 18.118365 
L 9.636855 18.118365 
L 3.41649 18.118365 
L 9.636855 25.691991 
L 29.434283 42.628794 
L 39.58149 54.893762 
L 54.083898 67.139223 
L 69.526125 85.264677 
L 77.747401 91.649651 
L 99.290782 116.16008 
L 99.470761 116.381014 
L 126.156492 140.670509 
L 129.415396 144.612868 
L 152.519375 165.180938 
L 159.360031 173.334232 
L 178.832366 189.691366 
L 189.304667 202.228791 
L 204.41556 214.201795 
L 219.249302 232.084826 
L 228.188263 238.712224 
L 248.967671 263.222652 
L 249.193937 263.494273 
L 276.505787 287.733081 
z
M 246.352707 214.201795 
L 249.193937 202.118145 
L 264.944885 214.201795 
L 249.193937 219.096684 
z
" clip-path="url(#pfc549a08f7)" style="fill: #b8de29"/>
    <path d="M 309.083208 289.273644 
L 335.137021 312.24351 
L 339.027843 312.24351 
L 368.972479 312.24351 
L 371.439268 312.24351 
L 368.972479 309.672447 
L 349.862579 287.733081 
L 339.027843 277.414275 
L 324.635268 263.222652 
L 309.083208 249.382896 
L 296.655128 238.712224 
L 279.138573 223.922458 
L 271.470926 238.712224 
L 279.138573 252.887041 
L 292.40537 263.222652 
L 308.082716 287.733081 
z
M 249.193937 219.096684 
L 264.944885 214.201795 
L 249.193937 202.118145 
L 246.352707 214.201795 
z
" clip-path="url(#pfc549a08f7)" style="fill: #e7e419"/>
   </g>
   <g id="PathCollection_1">
    <defs>
     <path id="m0f727fc419" d="M -3 3 
L 3 -3 
M -3 -3 
L 3 3 
" style="stroke: #ff0000; stroke-width: 1.5"/>
    </defs>
    <g clip-path="url(#pfc549a08f7)">
     <use xlink:href="#m0f727fc419" x="339.027843" y="312.24351" style="fill: #ff0000; stroke: #ff0000; stroke-width: 1.5"/>
     <use xlink:href="#m0f727fc419" x="339.027843" y="287.733081" style="fill: #ff0000; stroke: #ff0000; stroke-width: 1.5"/>
     <use xlink:href="#m0f727fc419" x="309.083208" y="263.222652" style="fill: #ff0000; stroke: #ff0000; stroke-width: 1.5"/>
     <use xlink:href="#m0f727fc419" x="279.138573" y="238.712224" style="fill: #ff0000; stroke: #ff0000; stroke-width: 1.5"/>
     <use xlink:href="#m0f727fc419" x="249.193937" y="214.201795" style="fill: #ff0000; stroke: #ff0000; stroke-width: 1.5"/>
     <use xlink:href="#m0f727fc419" x="219.249302" y="189.691366" style="fill: #ff0000; stroke: #ff0000; stroke-width: 1.5"/>
     <use xlink:href="#m0f727fc419" x="219.249302" y="165.180938" style="fill: #ff0000; stroke: #ff0000; stroke-width: 1.5"/>
     <use xlink:href="#m0f727fc419" x="189.304667" y="140.670509" style="fill: #ff0000; stroke: #ff0000; stroke-width: 1.5"/>
     <use xlink:href="#m0f727fc419" x="159.360031" y="116.16008" style="fill: #ff0000; stroke: #ff0000; stroke-width: 1.5"/>
     <use xlink:href="#m0f727fc419" x="129.415396" y="91.649651" style="fill: #ff0000; stroke: #ff0000; stroke-width: 1.5"/>
     <use xlink:href="#m0f727fc419" x="99.470761" y="67.139223" style="fill: #ff0000; stroke: #ff0000; stroke-width: 1.5"/>
     <use xlink:href="#m0f727fc419" x="99.470761" y="42.628794" style="fill: #ff0000; stroke: #ff0000; stroke-width: 1.5"/>
     <use xlink:href="#m0f727fc419" x="69.526125" y="18.118365" style="fill: #ff0000; stroke: #ff0000; stroke-width: 1.5"/>
    </g>
   </g>
   <g id="matplotlib.axis_1">
    <g id="xtick_1">
     <g id="line2d_1">
      <defs>
       <path id="m672a4c1c5e" d="M 0 0 
L 0 3.5 
" style="stroke: #000000; stroke-width: 0.8"/>
      </defs>
      <g>
       <use xlink:href="#m672a4c1c5e" x="129.415396" y="312.24351" style="stroke: #000000; stroke-width: 0.8"/>
      </g>
     </g>
     <g id="text_1">
      <!-- $\mathdefault{10^{-3}}$ -->
      <g transform="translate(117.665396 326.841947) scale(0.1 -0.1)">
       <defs>
        <path id="DejaVuSans-31" d="M 794 531 
L 1825 531 
L 1825 4091 
L 703 3866 
L 703 4441 
L 1819 4666 
L 2450 4666 
L 2450 531 
L 3481 531 
L 3481 0 
L 794 0 
L 794 531 
z
" transform="scale(0.015625)"/>
        <path id="DejaVuSans-30" d="M 2034 4250 
Q 1547 4250 1301 3770 
Q 1056 3291 1056 2328 
Q 1056 1369 1301 889 
Q 1547 409 2034 409 
Q 2525 409 2770 889 
Q 3016 1369 3016 2328 
Q 3016 3291 2770 3770 
Q 2525 4250 2034 4250 
z
M 2034 4750 
Q 2819 4750 3233 4129 
Q 3647 3509 3647 2328 
Q 3647 1150 3233 529 
Q 2819 -91 2034 -91 
Q 1250 -91 836 529 
Q 422 1150 422 2328 
Q 422 3509 836 4129 
Q 1250 4750 2034 4750 
z
" transform="scale(0.015625)"/>
        <path id="DejaVuSans-2212" d="M 678 2272 
L 4684 2272 
L 4684 1741 
L 678 1741 
L 678 2272 
z
" transform="scale(0.015625)"/>
        <path id="DejaVuSans-33" d="M 2597 2516 
Q 3050 2419 3304 2112 
Q 3559 1806 3559 1356 
Q 3559 666 3084 287 
Q 2609 -91 1734 -91 
Q 1441 -91 1130 -33 
Q 819 25 488 141 
L 488 750 
Q 750 597 1062 519 
Q 1375 441 1716 441 
Q 2309 441 2620 675 
Q 2931 909 2931 1356 
Q 2931 1769 2642 2001 
Q 2353 2234 1838 2234 
L 1294 2234 
L 1294 2753 
L 1863 2753 
Q 2328 2753 2575 2939 
Q 2822 3125 2822 3475 
Q 2822 3834 2567 4026 
Q 2313 4219 1838 4219 
Q 1578 4219 1281 4162 
Q 984 4106 628 3988 
L 628 4550 
Q 988 4650 1302 4700 
Q 1616 4750 1894 4750 
Q 2613 4750 3031 4423 
Q 3450 4097 3450 3541 
Q 3450 3153 3228 2886 
Q 3006 2619 2597 2516 
z
" transform="scale(0.015625)"/>
       </defs>
       <use xlink:href="#DejaVuSans-31" transform="translate(0 0.765625)"/>
       <use xlink:href="#DejaVuSans-30" transform="translate(63.623047 0.765625)"/>
       <use xlink:href="#DejaVuSans-2212" transform="translate(128.203125 39.046875) scale(0.7)"/>
       <use xlink:href="#DejaVuSans-33" transform="translate(186.855469 39.046875) scale(0.7)"/>
      </g>
     </g>
    </g>
    <g id="xtick_2">
     <g id="line2d_2">
      <g>
       <use xlink:href="#m672a4c1c5e" x="249.193937" y="312.24351" style="stroke: #000000; stroke-width: 0.8"/>
      </g>
     </g>
     <g id="text_2">
      <!-- $\mathdefault{10^{-2}}$ -->
      <g transform="translate(237.443937 326.841947) scale(0.1 -0.1)">
       <defs>
        <path id="DejaVuSans-32" d="M 1228 531 
L 3431 531 
L 3431 0 
L 469 0 
L 469 531 
Q 828 903 1448 1529 
Q 2069 2156 2228 2338 
Q 2531 2678 2651 2914 
Q 2772 3150 2772 3378 
Q 2772 3750 2511 3984 
Q 2250 4219 1831 4219 
Q 1534 4219 1204 4116 
Q 875 4013 500 3803 
L 500 4441 
Q 881 4594 1212 4672 
Q 1544 4750 1819 4750 
Q 2544 4750 2975 4387 
Q 3406 4025 3406 3419 
Q 3406 3131 3298 2873 
Q 3191 2616 2906 2266 
Q 2828 2175 2409 1742 
Q 1991 1309 1228 531 
z
" transform="scale(0.015625)"/>
       </defs>
       <use xlink:href="#DejaVuSans-31" transform="translate(0 0.765625)"/>
       <use xlink:href="#DejaVuSans-30" transform="translate(63.623047 0.765625)"/>
       <use xlink:href="#DejaVuSans-2212" transform="translate(128.203125 39.046875) scale(0.7)"/>
       <use xlink:href="#DejaVuSans-32" transform="translate(186.855469 39.046875) scale(0.7)"/>
      </g>
     </g>
    </g>
    <g id="xtick_3">
     <g id="line2d_3">
      <g>
       <use xlink:href="#m672a4c1c5e" x="368.972479" y="312.24351" style="stroke: #000000; stroke-width: 0.8"/>
      </g>
     </g>
     <g id="text_3">
      <!-- $\mathdefault{10^{-1}}$ -->
      <g transform="translate(357.222479 326.841947) scale(0.1 -0.1)">
       <use xlink:href="#DejaVuSans-31" transform="translate(0 0.684375)"/>
       <use xlink:href="#DejaVuSans-30" transform="translate(63.623047 0.684375)"/>
       <use xlink:href="#DejaVuSans-2212" transform="translate(128.203125 38.965625) scale(0.7)"/>
       <use xlink:href="#DejaVuSans-31" transform="translate(186.855469 38.965625) scale(0.7)"/>
      </g>
     </g>
    </g>
    <g id="xtick_4">
     <g id="line2d_4">
      <defs>
       <path id="mcf16f894ed" d="M 0 0 
L 0 2 
" style="stroke: #000000; stroke-width: 0.6"/>
      </defs>
      <g>
       <use xlink:href="#mcf16f894ed" x="45.693788" y="312.24351" style="stroke: #000000; stroke-width: 0.6"/>
      </g>
     </g>
    </g>
    <g id="xtick_5">
     <g id="line2d_5">
      <g>
       <use xlink:href="#mcf16f894ed" x="66.785743" y="312.24351" style="stroke: #000000; stroke-width: 0.6"/>
      </g>
     </g>
    </g>
    <g id="xtick_6">
     <g id="line2d_6">
      <g>
       <use xlink:href="#mcf16f894ed" x="81.750722" y="312.24351" style="stroke: #000000; stroke-width: 0.6"/>
      </g>
     </g>
    </g>
    <g id="xtick_7">
     <g id="line2d_7">
      <g>
       <use xlink:href="#mcf16f894ed" x="93.358462" y="312.24351" style="stroke: #000000; stroke-width: 0.6"/>
      </g>
     </g>
    </g>
    <g id="xtick_8">
     <g id="line2d_8">
      <g>
       <use xlink:href="#mcf16f894ed" x="102.842676" y="312.24351" style="stroke: #000000; stroke-width: 0.6"/>
      </g>
     </g>
    </g>
    <g id="xtick_9">
     <g id="line2d_9">
      <g>
       <use xlink:href="#mcf16f894ed" x="110.861465" y="312.24351" style="stroke: #000000; stroke-width: 0.6"/>
      </g>
     </g>
    </g>
    <g id="xtick_10">
     <g id="line2d_10">
      <g>
       <use xlink:href="#mcf16f894ed" x="117.807656" y="312.24351" style="stroke: #000000; stroke-width: 0.6"/>
      </g>
     </g>
    </g>
    <g id="xtick_11">
     <g id="line2d_11">
      <g>
       <use xlink:href="#mcf16f894ed" x="123.934631" y="312.24351" style="stroke: #000000; stroke-width: 0.6"/>
      </g>
     </g>
    </g>
    <g id="xtick_12">
     <g id="line2d_12">
      <g>
       <use xlink:href="#mcf16f894ed" x="165.47233" y="312.24351" style="stroke: #000000; stroke-width: 0.6"/>
      </g>
     </g>
    </g>
    <g id="xtick_13">
     <g id="line2d_13">
      <g>
       <use xlink:href="#mcf16f894ed" x="186.564284" y="312.24351" style="stroke: #000000; stroke-width: 0.6"/>
      </g>
     </g>
    </g>
    <g id="xtick_14">
     <g id="line2d_14">
      <g>
       <use xlink:href="#mcf16f894ed" x="201.529264" y="312.24351" style="stroke: #000000; stroke-width: 0.6"/>
      </g>
     </g>
    </g>
    <g id="xtick_15">
     <g id="line2d_15">
      <g>
       <use xlink:href="#mcf16f894ed" x="213.137004" y="312.24351" style="stroke: #000000; stroke-width: 0.6"/>
      </g>
     </g>
    </g>
    <g id="xtick_16">
     <g id="line2d_16">
      <g>
       <use xlink:href="#mcf16f894ed" x="222.621218" y="312.24351" style="stroke: #000000; stroke-width: 0.6"/>
      </g>
     </g>
    </g>
    <g id="xtick_17">
     <g id="line2d_17">
      <g>
       <use xlink:href="#mcf16f894ed" x="230.640006" y="312.24351" style="stroke: #000000; stroke-width: 0.6"/>
      </g>
     </g>
    </g>
    <g id="xtick_18">
     <g id="line2d_18">
      <g>
       <use xlink:href="#mcf16f894ed" x="237.586197" y="312.24351" style="stroke: #000000; stroke-width: 0.6"/>
      </g>
     </g>
    </g>
    <g id="xtick_19">
     <g id="line2d_19">
      <g>
       <use xlink:href="#mcf16f894ed" x="243.713172" y="312.24351" style="stroke: #000000; stroke-width: 0.6"/>
      </g>
     </g>
    </g>
    <g id="xtick_20">
     <g id="line2d_20">
      <g>
       <use xlink:href="#mcf16f894ed" x="285.250871" y="312.24351" style="stroke: #000000; stroke-width: 0.6"/>
      </g>
     </g>
    </g>
    <g id="xtick_21">
     <g id="line2d_21">
      <g>
       <use xlink:href="#mcf16f894ed" x="306.342825" y="312.24351" style="stroke: #000000; stroke-width: 0.6"/>
      </g>
     </g>
    </g>
    <g id="xtick_22">
     <g id="line2d_22">
      <g>
       <use xlink:href="#mcf16f894ed" x="321.307805" y="312.24351" style="stroke: #000000; stroke-width: 0.6"/>
      </g>
     </g>
    </g>
    <g id="xtick_23">
     <g id="line2d_23">
      <g>
       <use xlink:href="#mcf16f894ed" x="332.915545" y="312.24351" style="stroke: #000000; stroke-width: 0.6"/>
      </g>
     </g>
    </g>
    <g id="xtick_24">
     <g id="line2d_24">
      <g>
       <use xlink:href="#mcf16f894ed" x="342.399759" y="312.24351" style="stroke: #000000; stroke-width: 0.6"/>
      </g>
     </g>
    </g>
    <g id="xtick_25">
     <g id="line2d_25">
      <g>
       <use xlink:href="#mcf16f894ed" x="350.418548" y="312.24351" style="stroke: #000000; stroke-width: 0.6"/>
      </g>
     </g>
    </g>
    <g id="xtick_26">
     <g id="line2d_26">
      <g>
       <use xlink:href="#mcf16f894ed" x="357.364739" y="312.24351" style="stroke: #000000; stroke-width: 0.6"/>
      </g>
     </g>
    </g>
    <g id="xtick_27">
     <g id="line2d_27">
      <g>
       <use xlink:href="#mcf16f894ed" x="363.491713" y="312.24351" style="stroke: #000000; stroke-width: 0.6"/>
      </g>
     </g>
    </g>
    <g id="text_4">
     <!-- bandwidth -->
     <g transform="translate(177.914484 340.520072) scale(0.1 -0.1)">
      <defs>
       <path id="DejaVuSans-62" d="M 3116 1747 
Q 3116 2381 2855 2742 
Q 2594 3103 2138 3103 
Q 1681 3103 1420 2742 
Q 1159 2381 1159 1747 
Q 1159 1113 1420 752 
Q 1681 391 2138 391 
Q 2594 391 2855 752 
Q 3116 1113 3116 1747 
z
M 1159 2969 
Q 1341 3281 1617 3432 
Q 1894 3584 2278 3584 
Q 2916 3584 3314 3078 
Q 3713 2572 3713 1747 
Q 3713 922 3314 415 
Q 2916 -91 2278 -91 
Q 1894 -91 1617 61 
Q 1341 213 1159 525 
L 1159 0 
L 581 0 
L 581 4863 
L 1159 4863 
L 1159 2969 
z
" transform="scale(0.015625)"/>
       <path id="DejaVuSans-61" d="M 2194 1759 
Q 1497 1759 1228 1600 
Q 959 1441 959 1056 
Q 959 750 1161 570 
Q 1363 391 1709 391 
Q 2188 391 2477 730 
Q 2766 1069 2766 1631 
L 2766 1759 
L 2194 1759 
z
M 3341 1997 
L 3341 0 
L 2766 0 
L 2766 531 
Q 2569 213 2275 61 
Q 1981 -91 1556 -91 
Q 1019 -91 701 211 
Q 384 513 384 1019 
Q 384 1609 779 1909 
Q 1175 2209 1959 2209 
L 2766 2209 
L 2766 2266 
Q 2766 2663 2505 2880 
Q 2244 3097 1772 3097 
Q 1472 3097 1187 3025 
Q 903 2953 641 2809 
L 641 3341 
Q 956 3463 1253 3523 
Q 1550 3584 1831 3584 
Q 2591 3584 2966 3190 
Q 3341 2797 3341 1997 
z
" transform="scale(0.015625)"/>
       <path id="DejaVuSans-6e" d="M 3513 2113 
L 3513 0 
L 2938 0 
L 2938 2094 
Q 2938 2591 2744 2837 
Q 2550 3084 2163 3084 
Q 1697 3084 1428 2787 
Q 1159 2491 1159 1978 
L 1159 0 
L 581 0 
L 581 3500 
L 1159 3500 
L 1159 2956 
Q 1366 3272 1645 3428 
Q 1925 3584 2291 3584 
Q 2894 3584 3203 3211 
Q 3513 2838 3513 2113 
z
" transform="scale(0.015625)"/>
       <path id="DejaVuSans-64" d="M 2906 2969 
L 2906 4863 
L 3481 4863 
L 3481 0 
L 2906 0 
L 2906 525 
Q 2725 213 2448 61 
Q 2172 -91 1784 -91 
Q 1150 -91 751 415 
Q 353 922 353 1747 
Q 353 2572 751 3078 
Q 1150 3584 1784 3584 
Q 2172 3584 2448 3432 
Q 2725 3281 2906 2969 
z
M 947 1747 
Q 947 1113 1208 752 
Q 1469 391 1925 391 
Q 2381 391 2643 752 
Q 2906 1113 2906 1747 
Q 2906 2381 2643 2742 
Q 2381 3103 1925 3103 
Q 1469 3103 1208 2742 
Q 947 2381 947 1747 
z
" transform="scale(0.015625)"/>
       <path id="DejaVuSans-77" d="M 269 3500 
L 844 3500 
L 1563 769 
L 2278 3500 
L 2956 3500 
L 3675 769 
L 4391 3500 
L 4966 3500 
L 4050 0 
L 3372 0 
L 2619 2869 
L 1863 0 
L 1184 0 
L 269 3500 
z
" transform="scale(0.015625)"/>
       <path id="DejaVuSans-69" d="M 603 3500 
L 1178 3500 
L 1178 0 
L 603 0 
L 603 3500 
z
M 603 4863 
L 1178 4863 
L 1178 4134 
L 603 4134 
L 603 4863 
z
" transform="scale(0.015625)"/>
       <path id="DejaVuSans-74" d="M 1172 4494 
L 1172 3500 
L 2356 3500 
L 2356 3053 
L 1172 3053 
L 1172 1153 
Q 1172 725 1289 603 
Q 1406 481 1766 481 
L 2356 481 
L 2356 0 
L 1766 0 
Q 1100 0 847 248 
Q 594 497 594 1153 
L 594 3053 
L 172 3053 
L 172 3500 
L 594 3500 
L 594 4494 
L 1172 4494 
z
" transform="scale(0.015625)"/>
       <path id="DejaVuSans-68" d="M 3513 2113 
L 3513 0 
L 2938 0 
L 2938 2094 
Q 2938 2591 2744 2837 
Q 2550 3084 2163 3084 
Q 1697 3084 1428 2787 
Q 1159 2491 1159 1978 
L 1159 0 
L 581 0 
L 581 4863 
L 1159 4863 
L 1159 2956 
Q 1366 3272 1645 3428 
Q 1925 3584 2291 3584 
Q 2894 3584 3203 3211 
Q 3513 2838 3513 2113 
z
" transform="scale(0.015625)"/>
      </defs>
      <use xlink:href="#DejaVuSans-62"/>
      <use xlink:href="#DejaVuSans-61" transform="translate(63.476562 0)"/>
      <use xlink:href="#DejaVuSans-6e" transform="translate(124.755859 0)"/>
      <use xlink:href="#DejaVuSans-64" transform="translate(188.134766 0)"/>
      <use xlink:href="#DejaVuSans-77" transform="translate(251.611328 0)"/>
      <use xlink:href="#DejaVuSans-69" transform="translate(333.398438 0)"/>
      <use xlink:href="#DejaVuSans-64" transform="translate(361.181641 0)"/>
      <use xlink:href="#DejaVuSans-74" transform="translate(424.658203 0)"/>
      <use xlink:href="#DejaVuSans-68" transform="translate(463.867188 0)"/>
     </g>
    </g>
   </g>
   <g id="matplotlib.axis_2">
    <g id="ytick_1">
     <g id="line2d_28">
      <defs>
       <path id="m94629fa9dd" d="M 0 0 
L -3.5 0 
" style="stroke: #000000; stroke-width: 0.8"/>
      </defs>
      <g>
       <use xlink:href="#m94629fa9dd" x="39.58149" y="312.24351" style="stroke: #000000; stroke-width: 0.8"/>
      </g>
     </g>
     <g id="text_5">
      <!-- 1.0 -->
      <g transform="translate(16.678365 316.042729) scale(0.1 -0.1)">
       <defs>
        <path id="DejaVuSans-2e" d="M 684 794 
L 1344 794 
L 1344 0 
L 684 0 
L 684 794 
z
" transform="scale(0.015625)"/>
       </defs>
       <use xlink:href="#DejaVuSans-31"/>
       <use xlink:href="#DejaVuSans-2e" transform="translate(63.623047 0)"/>
       <use xlink:href="#DejaVuSans-30" transform="translate(95.410156 0)"/>
      </g>
     </g>
    </g>
    <g id="ytick_2">
     <g id="line2d_29">
      <g>
       <use xlink:href="#m94629fa9dd" x="39.58149" y="263.222652" style="stroke: #000000; stroke-width: 0.8"/>
      </g>
     </g>
     <g id="text_6">
      <!-- 1.5 -->
      <g transform="translate(16.678365 267.021871) scale(0.1 -0.1)">
       <defs>
        <path id="DejaVuSans-35" d="M 691 4666 
L 3169 4666 
L 3169 4134 
L 1269 4134 
L 1269 2991 
Q 1406 3038 1543 3061 
Q 1681 3084 1819 3084 
Q 2600 3084 3056 2656 
Q 3513 2228 3513 1497 
Q 3513 744 3044 326 
Q 2575 -91 1722 -91 
Q 1428 -91 1123 -41 
Q 819 9 494 109 
L 494 744 
Q 775 591 1075 516 
Q 1375 441 1709 441 
Q 2250 441 2565 725 
Q 2881 1009 2881 1497 
Q 2881 1984 2565 2268 
Q 2250 2553 1709 2553 
Q 1456 2553 1204 2497 
Q 953 2441 691 2322 
L 691 4666 
z
" transform="scale(0.015625)"/>
       </defs>
       <use xlink:href="#DejaVuSans-31"/>
       <use xlink:href="#DejaVuSans-2e" transform="translate(63.623047 0)"/>
       <use xlink:href="#DejaVuSans-35" transform="translate(95.410156 0)"/>
      </g>
     </g>
    </g>
    <g id="ytick_3">
     <g id="line2d_30">
      <g>
       <use xlink:href="#m94629fa9dd" x="39.58149" y="214.201795" style="stroke: #000000; stroke-width: 0.8"/>
      </g>
     </g>
     <g id="text_7">
      <!-- 2.0 -->
      <g transform="translate(16.678365 218.001014) scale(0.1 -0.1)">
       <use xlink:href="#DejaVuSans-32"/>
       <use xlink:href="#DejaVuSans-2e" transform="translate(63.623047 0)"/>
       <use xlink:href="#DejaVuSans-30" transform="translate(95.410156 0)"/>
      </g>
     </g>
    </g>
    <g id="ytick_4">
     <g id="line2d_31">
      <g>
       <use xlink:href="#m94629fa9dd" x="39.58149" y="165.180938" style="stroke: #000000; stroke-width: 0.8"/>
      </g>
     </g>
     <g id="text_8">
      <!-- 2.5 -->
      <g transform="translate(16.678365 168.980156) scale(0.1 -0.1)">
       <use xlink:href="#DejaVuSans-32"/>
       <use xlink:href="#DejaVuSans-2e" transform="translate(63.623047 0)"/>
       <use xlink:href="#DejaVuSans-35" transform="translate(95.410156 0)"/>
      </g>
     </g>
    </g>
    <g id="ytick_5">
     <g id="line2d_32">
      <g>
       <use xlink:href="#m94629fa9dd" x="39.58149" y="116.16008" style="stroke: #000000; stroke-width: 0.8"/>
      </g>
     </g>
     <g id="text_9">
      <!-- 3.0 -->
      <g transform="translate(16.678365 119.959299) scale(0.1 -0.1)">
       <use xlink:href="#DejaVuSans-33"/>
       <use xlink:href="#DejaVuSans-2e" transform="translate(63.623047 0)"/>
       <use xlink:href="#DejaVuSans-30" transform="translate(95.410156 0)"/>
      </g>
     </g>
    </g>
    <g id="ytick_6">
     <g id="line2d_33">
      <g>
       <use xlink:href="#m94629fa9dd" x="39.58149" y="67.139223" style="stroke: #000000; stroke-width: 0.8"/>
      </g>
     </g>
     <g id="text_10">
      <!-- 3.5 -->
      <g transform="translate(16.678365 70.938441) scale(0.1 -0.1)">
       <use xlink:href="#DejaVuSans-33"/>
       <use xlink:href="#DejaVuSans-2e" transform="translate(63.623047 0)"/>
       <use xlink:href="#DejaVuSans-35" transform="translate(95.410156 0)"/>
      </g>
     </g>
    </g>
    <g id="ytick_7">
     <g id="line2d_34">
      <g>
       <use xlink:href="#m94629fa9dd" x="39.58149" y="18.118365" style="stroke: #000000; stroke-width: 0.8"/>
      </g>
     </g>
     <g id="text_11">
      <!-- 4.0 -->
      <g transform="translate(16.678365 21.917584) scale(0.1 -0.1)">
       <defs>
        <path id="DejaVuSans-34" d="M 2419 4116 
L 825 1625 
L 2419 1625 
L 2419 4116 
z
M 2253 4666 
L 3047 4666 
L 3047 1625 
L 3713 1625 
L 3713 1100 
L 3047 1100 
L 3047 0 
L 2419 0 
L 2419 1100 
L 313 1100 
L 313 1709 
L 2253 4666 
z
" transform="scale(0.015625)"/>
       </defs>
       <use xlink:href="#DejaVuSans-34"/>
       <use xlink:href="#DejaVuSans-2e" transform="translate(63.623047 0)"/>
       <use xlink:href="#DejaVuSans-30" transform="translate(95.410156 0)"/>
      </g>
     </g>
    </g>
    <g id="text_12">
     <!-- alpha -->
     <g transform="translate(10.598677 179.041094) rotate(-90) scale(0.1 -0.1)">
      <defs>
       <path id="DejaVuSans-6c" d="M 603 4863 
L 1178 4863 
L 1178 0 
L 603 0 
L 603 4863 
z
" transform="scale(0.015625)"/>
       <path id="DejaVuSans-70" d="M 1159 525 
L 1159 -1331 
L 581 -1331 
L 581 3500 
L 1159 3500 
L 1159 2969 
Q 1341 3281 1617 3432 
Q 1894 3584 2278 3584 
Q 2916 3584 3314 3078 
Q 3713 2572 3713 1747 
Q 3713 922 3314 415 
Q 2916 -91 2278 -91 
Q 1894 -91 1617 61 
Q 1341 213 1159 525 
z
M 3116 1747 
Q 3116 2381 2855 2742 
Q 2594 3103 2138 3103 
Q 1681 3103 1420 2742 
Q 1159 2381 1159 1747 
Q 1159 1113 1420 752 
Q 1681 391 2138 391 
Q 2594 391 2855 752 
Q 3116 1113 3116 1747 
z
" transform="scale(0.015625)"/>
      </defs>
      <use xlink:href="#DejaVuSans-61"/>
      <use xlink:href="#DejaVuSans-6c" transform="translate(61.279297 0)"/>
      <use xlink:href="#DejaVuSans-70" transform="translate(89.0625 0)"/>
      <use xlink:href="#DejaVuSans-68" transform="translate(152.539062 0)"/>
      <use xlink:href="#DejaVuSans-61" transform="translate(215.917969 0)"/>
     </g>
    </g>
   </g>
   <g id="patch_3">
    <path d="M 39.58149 312.24351 
L 39.58149 18.118365 
" style="fill: none; stroke: #000000; stroke-width: 0.8; stroke-linejoin: miter; stroke-linecap: square"/>
   </g>
   <g id="patch_4">
    <path d="M 368.972479 312.24351 
L 368.972479 18.118365 
" style="fill: none; stroke: #000000; stroke-width: 0.8; stroke-linejoin: miter; stroke-linecap: square"/>
   </g>
   <g id="patch_5">
    <path d="M 39.58149 312.24351 
L 368.972479 312.24351 
" style="fill: none; stroke: #000000; stroke-width: 0.8; stroke-linejoin: miter; stroke-linecap: square"/>
   </g>
   <g id="patch_6">
    <path d="M 39.58149 18.118365 
L 368.972479 18.118365 
" style="fill: none; stroke: #000000; stroke-width: 0.8; stroke-linejoin: miter; stroke-linecap: square"/>
   </g>
   <g id="text_13">
    <!-- circulos_lo 7354 fkdc -->
    <g transform="translate(141.297609 12.118365) scale(0.12 -0.12)">
     <defs>
      <path id="DejaVuSans-63" d="M 3122 3366 
L 3122 2828 
Q 2878 2963 2633 3030 
Q 2388 3097 2138 3097 
Q 1578 3097 1268 2742 
Q 959 2388 959 1747 
Q 959 1106 1268 751 
Q 1578 397 2138 397 
Q 2388 397 2633 464 
Q 2878 531 3122 666 
L 3122 134 
Q 2881 22 2623 -34 
Q 2366 -91 2075 -91 
Q 1284 -91 818 406 
Q 353 903 353 1747 
Q 353 2603 823 3093 
Q 1294 3584 2113 3584 
Q 2378 3584 2631 3529 
Q 2884 3475 3122 3366 
z
" transform="scale(0.015625)"/>
      <path id="DejaVuSans-72" d="M 2631 2963 
Q 2534 3019 2420 3045 
Q 2306 3072 2169 3072 
Q 1681 3072 1420 2755 
Q 1159 2438 1159 1844 
L 1159 0 
L 581 0 
L 581 3500 
L 1159 3500 
L 1159 2956 
Q 1341 3275 1631 3429 
Q 1922 3584 2338 3584 
Q 2397 3584 2469 3576 
Q 2541 3569 2628 3553 
L 2631 2963 
z
" transform="scale(0.015625)"/>
      <path id="DejaVuSans-75" d="M 544 1381 
L 544 3500 
L 1119 3500 
L 1119 1403 
Q 1119 906 1312 657 
Q 1506 409 1894 409 
Q 2359 409 2629 706 
Q 2900 1003 2900 1516 
L 2900 3500 
L 3475 3500 
L 3475 0 
L 2900 0 
L 2900 538 
Q 2691 219 2414 64 
Q 2138 -91 1772 -91 
Q 1169 -91 856 284 
Q 544 659 544 1381 
z
M 1991 3584 
L 1991 3584 
z
" transform="scale(0.015625)"/>
      <path id="DejaVuSans-6f" d="M 1959 3097 
Q 1497 3097 1228 2736 
Q 959 2375 959 1747 
Q 959 1119 1226 758 
Q 1494 397 1959 397 
Q 2419 397 2687 759 
Q 2956 1122 2956 1747 
Q 2956 2369 2687 2733 
Q 2419 3097 1959 3097 
z
M 1959 3584 
Q 2709 3584 3137 3096 
Q 3566 2609 3566 1747 
Q 3566 888 3137 398 
Q 2709 -91 1959 -91 
Q 1206 -91 779 398 
Q 353 888 353 1747 
Q 353 2609 779 3096 
Q 1206 3584 1959 3584 
z
" transform="scale(0.015625)"/>
      <path id="DejaVuSans-73" d="M 2834 3397 
L 2834 2853 
Q 2591 2978 2328 3040 
Q 2066 3103 1784 3103 
Q 1356 3103 1142 2972 
Q 928 2841 928 2578 
Q 928 2378 1081 2264 
Q 1234 2150 1697 2047 
L 1894 2003 
Q 2506 1872 2764 1633 
Q 3022 1394 3022 966 
Q 3022 478 2636 193 
Q 2250 -91 1575 -91 
Q 1294 -91 989 -36 
Q 684 19 347 128 
L 347 722 
Q 666 556 975 473 
Q 1284 391 1588 391 
Q 1994 391 2212 530 
Q 2431 669 2431 922 
Q 2431 1156 2273 1281 
Q 2116 1406 1581 1522 
L 1381 1569 
Q 847 1681 609 1914 
Q 372 2147 372 2553 
Q 372 3047 722 3315 
Q 1072 3584 1716 3584 
Q 2034 3584 2315 3537 
Q 2597 3491 2834 3397 
z
" transform="scale(0.015625)"/>
      <path id="DejaVuSans-5f" d="M 3263 -1063 
L 3263 -1509 
L -63 -1509 
L -63 -1063 
L 3263 -1063 
z
" transform="scale(0.015625)"/>
      <path id="DejaVuSans-20" transform="scale(0.015625)"/>
      <path id="DejaVuSans-37" d="M 525 4666 
L 3525 4666 
L 3525 4397 
L 1831 0 
L 1172 0 
L 2766 4134 
L 525 4134 
L 525 4666 
z
" transform="scale(0.015625)"/>
      <path id="DejaVuSans-66" d="M 2375 4863 
L 2375 4384 
L 1825 4384 
Q 1516 4384 1395 4259 
Q 1275 4134 1275 3809 
L 1275 3500 
L 2222 3500 
L 2222 3053 
L 1275 3053 
L 1275 0 
L 697 0 
L 697 3053 
L 147 3053 
L 147 3500 
L 697 3500 
L 697 3744 
Q 697 4328 969 4595 
Q 1241 4863 1831 4863 
L 2375 4863 
z
" transform="scale(0.015625)"/>
      <path id="DejaVuSans-6b" d="M 581 4863 
L 1159 4863 
L 1159 1991 
L 2875 3500 
L 3609 3500 
L 1753 1863 
L 3688 0 
L 2938 0 
L 1159 1709 
L 1159 0 
L 581 0 
L 581 4863 
z
" transform="scale(0.015625)"/>
     </defs>
     <use xlink:href="#DejaVuSans-63"/>
     <use xlink:href="#DejaVuSans-69" transform="translate(54.980469 0)"/>
     <use xlink:href="#DejaVuSans-72" transform="translate(82.763672 0)"/>
     <use xlink:href="#DejaVuSans-63" transform="translate(121.626953 0)"/>
     <use xlink:href="#DejaVuSans-75" transform="translate(176.607422 0)"/>
     <use xlink:href="#DejaVuSans-6c" transform="translate(239.986328 0)"/>
     <use xlink:href="#DejaVuSans-6f" transform="translate(267.769531 0)"/>
     <use xlink:href="#DejaVuSans-73" transform="translate(328.951172 0)"/>
     <use xlink:href="#DejaVuSans-5f" transform="translate(381.050781 0)"/>
     <use xlink:href="#DejaVuSans-6c" transform="translate(431.050781 0)"/>
     <use xlink:href="#DejaVuSans-6f" transform="translate(458.833984 0)"/>
     <use xlink:href="#DejaVuSans-20" transform="translate(520.015625 0)"/>
     <use xlink:href="#DejaVuSans-37" transform="translate(551.802734 0)"/>
     <use xlink:href="#DejaVuSans-33" transform="translate(615.425781 0)"/>
     <use xlink:href="#DejaVuSans-35" transform="translate(679.048828 0)"/>
     <use xlink:href="#DejaVuSans-34" transform="translate(742.671875 0)"/>
     <use xlink:href="#DejaVuSans-20" transform="translate(806.294922 0)"/>
     <use xlink:href="#DejaVuSans-66" transform="translate(838.082031 0)"/>
     <use xlink:href="#DejaVuSans-6b" transform="translate(873.287109 0)"/>
     <use xlink:href="#DejaVuSans-64" transform="translate(931.197266 0)"/>
     <use xlink:href="#DejaVuSans-63" transform="translate(994.673828 0)"/>
    </g>
   </g>
  </g>
  <g id="axes_2">
   <g id="patch_7">
    <path d="M 397.192028 312.24351 
L 411.898285 312.24351 
L 411.898285 18.118365 
L 397.192028 18.118365 
z
" style="fill: #ffffff"/>
   </g>
   <g id="QuadMesh_1">
    <path d="M 397.192028 312.24351 
L 411.898285 312.24351 
L 411.898285 291.234571 
L 397.192028 291.234571 
L 397.192028 312.24351 
" clip-path="url(#pf01bac6e56)" style="fill: #470e61"/>
    <path d="M 397.192028 291.234571 
L 411.898285 291.234571 
L 411.898285 270.225632 
L 397.192028 270.225632 
L 397.192028 291.234571 
" clip-path="url(#pf01bac6e56)" style="fill: #482677"/>
    <path d="M 397.192028 270.225632 
L 411.898285 270.225632 
L 411.898285 249.216693 
L 397.192028 249.216693 
L 397.192028 270.225632 
" clip-path="url(#pf01bac6e56)" style="fill: #433d84"/>
    <path d="M 397.192028 249.216693 
L 411.898285 249.216693 
L 411.898285 228.207754 
L 397.192028 228.207754 
L 397.192028 249.216693 
" clip-path="url(#pf01bac6e56)" style="fill: #3b528b"/>
    <path d="M 397.192028 228.207754 
L 411.898285 228.207754 
L 411.898285 207.198815 
L 397.192028 207.198815 
L 397.192028 228.207754 
" clip-path="url(#pf01bac6e56)" style="fill: #32658e"/>
    <path d="M 397.192028 207.198815 
L 411.898285 207.198815 
L 411.898285 186.189876 
L 397.192028 186.189876 
L 397.192028 207.198815 
" clip-path="url(#pf01bac6e56)" style="fill: #2a768e"/>
    <path d="M 397.192028 186.189876 
L 411.898285 186.189876 
L 411.898285 165.180937 
L 397.192028 165.180937 
L 397.192028 186.189876 
" clip-path="url(#pf01bac6e56)" style="fill: #24878e"/>
    <path d="M 397.192028 165.180937 
L 411.898285 165.180937 
L 411.898285 144.171999 
L 397.192028 144.171999 
L 397.192028 165.180937 
" clip-path="url(#pf01bac6e56)" style="fill: #1f998a"/>
    <path d="M 397.192028 144.171999 
L 411.898285 144.171999 
L 411.898285 123.16306 
L 397.192028 123.16306 
L 397.192028 144.171999 
" clip-path="url(#pf01bac6e56)" style="fill: #24aa83"/>
    <path d="M 397.192028 123.16306 
L 411.898285 123.16306 
L 411.898285 102.154121 
L 397.192028 102.154121 
L 397.192028 123.16306 
" clip-path="url(#pf01bac6e56)" style="fill: #3aba76"/>
    <path d="M 397.192028 102.154121 
L 411.898285 102.154121 
L 411.898285 81.145182 
L 397.192028 81.145182 
L 397.192028 102.154121 
" clip-path="url(#pf01bac6e56)" style="fill: #5ec962"/>
    <path d="M 397.192028 81.145182 
L 411.898285 81.145182 
L 411.898285 60.136243 
L 397.192028 60.136243 
L 397.192028 81.145182 
" clip-path="url(#pf01bac6e56)" style="fill: #89d548"/>
    <path d="M 397.192028 60.136243 
L 411.898285 60.136243 
L 411.898285 39.127304 
L 397.192028 39.127304 
L 397.192028 60.136243 
" clip-path="url(#pf01bac6e56)" style="fill: #b8de29"/>
    <path d="M 397.192028 39.127304 
L 411.898285 39.127304 
L 411.898285 18.118365 
L 397.192028 18.118365 
L 397.192028 39.127304 
" clip-path="url(#pf01bac6e56)" style="fill: #e7e419"/>
   </g>
   <g id="matplotlib.axis_3"/>
   <g id="matplotlib.axis_4">
    <g id="ytick_8">
     <g id="line2d_35">
      <defs>
       <path id="m465f5812e4" d="M 0 0 
L 3.5 0 
" style="stroke: #000000; stroke-width: 0.8"/>
      </defs>
      <g>
       <use xlink:href="#m465f5812e4" x="411.898285" y="312.24351" style="stroke: #000000; stroke-width: 0.8"/>
      </g>
     </g>
     <g id="text_14">
      <!-- 5.6 -->
      <g transform="translate(418.898285 316.042729) scale(0.1 -0.1)">
       <defs>
        <path id="DejaVuSans-36" d="M 2113 2584 
Q 1688 2584 1439 2293 
Q 1191 2003 1191 1497 
Q 1191 994 1439 701 
Q 1688 409 2113 409 
Q 2538 409 2786 701 
Q 3034 994 3034 1497 
Q 3034 2003 2786 2293 
Q 2538 2584 2113 2584 
z
M 3366 4563 
L 3366 3988 
Q 3128 4100 2886 4159 
Q 2644 4219 2406 4219 
Q 1781 4219 1451 3797 
Q 1122 3375 1075 2522 
Q 1259 2794 1537 2939 
Q 1816 3084 2150 3084 
Q 2853 3084 3261 2657 
Q 3669 2231 3669 1497 
Q 3669 778 3244 343 
Q 2819 -91 2113 -91 
Q 1303 -91 875 529 
Q 447 1150 447 2328 
Q 447 3434 972 4092 
Q 1497 4750 2381 4750 
Q 2619 4750 2861 4703 
Q 3103 4656 3366 4563 
z
" transform="scale(0.015625)"/>
       </defs>
       <use xlink:href="#DejaVuSans-2212"/>
       <use xlink:href="#DejaVuSans-35" transform="translate(83.789062 0)"/>
       <use xlink:href="#DejaVuSans-2e" transform="translate(147.412109 0)"/>
       <use xlink:href="#DejaVuSans-36" transform="translate(179.199219 0)"/>
      </g>
     </g>
    </g>
    <g id="ytick_9">
     <g id="line2d_36">
      <g>
       <use xlink:href="#m465f5812e4" x="411.898285" y="270.225632" style="stroke: #000000; stroke-width: 0.8"/>
      </g>
     </g>
     <g id="text_15">
      <!-- 4.8 -->
      <g transform="translate(418.898285 274.024851) scale(0.1 -0.1)">
       <defs>
        <path id="DejaVuSans-38" d="M 2034 2216 
Q 1584 2216 1326 1975 
Q 1069 1734 1069 1313 
Q 1069 891 1326 650 
Q 1584 409 2034 409 
Q 2484 409 2743 651 
Q 3003 894 3003 1313 
Q 3003 1734 2745 1975 
Q 2488 2216 2034 2216 
z
M 1403 2484 
Q 997 2584 770 2862 
Q 544 3141 544 3541 
Q 544 4100 942 4425 
Q 1341 4750 2034 4750 
Q 2731 4750 3128 4425 
Q 3525 4100 3525 3541 
Q 3525 3141 3298 2862 
Q 3072 2584 2669 2484 
Q 3125 2378 3379 2068 
Q 3634 1759 3634 1313 
Q 3634 634 3220 271 
Q 2806 -91 2034 -91 
Q 1263 -91 848 271 
Q 434 634 434 1313 
Q 434 1759 690 2068 
Q 947 2378 1403 2484 
z
M 1172 3481 
Q 1172 3119 1398 2916 
Q 1625 2713 2034 2713 
Q 2441 2713 2670 2916 
Q 2900 3119 2900 3481 
Q 2900 3844 2670 4047 
Q 2441 4250 2034 4250 
Q 1625 4250 1398 4047 
Q 1172 3844 1172 3481 
z
" transform="scale(0.015625)"/>
       </defs>
       <use xlink:href="#DejaVuSans-2212"/>
       <use xlink:href="#DejaVuSans-34" transform="translate(83.789062 0)"/>
       <use xlink:href="#DejaVuSans-2e" transform="translate(147.412109 0)"/>
       <use xlink:href="#DejaVuSans-38" transform="translate(179.199219 0)"/>
      </g>
     </g>
    </g>
    <g id="ytick_10">
     <g id="line2d_37">
      <g>
       <use xlink:href="#m465f5812e4" x="411.898285" y="228.207754" style="stroke: #000000; stroke-width: 0.8"/>
      </g>
     </g>
     <g id="text_16">
      <!-- 4.0 -->
      <g transform="translate(418.898285 232.006973) scale(0.1 -0.1)">
       <use xlink:href="#DejaVuSans-2212"/>
       <use xlink:href="#DejaVuSans-34" transform="translate(83.789062 0)"/>
       <use xlink:href="#DejaVuSans-2e" transform="translate(147.412109 0)"/>
       <use xlink:href="#DejaVuSans-30" transform="translate(179.199219 0)"/>
      </g>
     </g>
    </g>
    <g id="ytick_11">
     <g id="line2d_38">
      <g>
       <use xlink:href="#m465f5812e4" x="411.898285" y="186.189876" style="stroke: #000000; stroke-width: 0.8"/>
      </g>
     </g>
     <g id="text_17">
      <!-- 3.2 -->
      <g transform="translate(418.898285 189.989095) scale(0.1 -0.1)">
       <use xlink:href="#DejaVuSans-2212"/>
       <use xlink:href="#DejaVuSans-33" transform="translate(83.789062 0)"/>
       <use xlink:href="#DejaVuSans-2e" transform="translate(147.412109 0)"/>
       <use xlink:href="#DejaVuSans-32" transform="translate(179.199219 0)"/>
      </g>
     </g>
    </g>
    <g id="ytick_12">
     <g id="line2d_39">
      <g>
       <use xlink:href="#m465f5812e4" x="411.898285" y="144.171999" style="stroke: #000000; stroke-width: 0.8"/>
      </g>
     </g>
     <g id="text_18">
      <!-- 2.4 -->
      <g transform="translate(418.898285 147.971217) scale(0.1 -0.1)">
       <use xlink:href="#DejaVuSans-2212"/>
       <use xlink:href="#DejaVuSans-32" transform="translate(83.789062 0)"/>
       <use xlink:href="#DejaVuSans-2e" transform="translate(147.412109 0)"/>
       <use xlink:href="#DejaVuSans-34" transform="translate(179.199219 0)"/>
      </g>
     </g>
    </g>
    <g id="ytick_13">
     <g id="line2d_40">
      <g>
       <use xlink:href="#m465f5812e4" x="411.898285" y="102.154121" style="stroke: #000000; stroke-width: 0.8"/>
      </g>
     </g>
     <g id="text_19">
      <!-- 1.6 -->
      <g transform="translate(418.898285 105.953339) scale(0.1 -0.1)">
       <use xlink:href="#DejaVuSans-2212"/>
       <use xlink:href="#DejaVuSans-31" transform="translate(83.789062 0)"/>
       <use xlink:href="#DejaVuSans-2e" transform="translate(147.412109 0)"/>
       <use xlink:href="#DejaVuSans-36" transform="translate(179.199219 0)"/>
      </g>
     </g>
    </g>
    <g id="ytick_14">
     <g id="line2d_41">
      <g>
       <use xlink:href="#m465f5812e4" x="411.898285" y="60.136243" style="stroke: #000000; stroke-width: 0.8"/>
      </g>
     </g>
     <g id="text_20">
      <!-- 0.8 -->
      <g transform="translate(418.898285 63.935462) scale(0.1 -0.1)">
       <use xlink:href="#DejaVuSans-2212"/>
       <use xlink:href="#DejaVuSans-30" transform="translate(83.789062 0)"/>
       <use xlink:href="#DejaVuSans-2e" transform="translate(147.412109 0)"/>
       <use xlink:href="#DejaVuSans-38" transform="translate(179.199219 0)"/>
      </g>
     </g>
    </g>
    <g id="ytick_15">
     <g id="line2d_42">
      <g>
       <use xlink:href="#m465f5812e4" x="411.898285" y="18.118365" style="stroke: #000000; stroke-width: 0.8"/>
      </g>
     </g>
     <g id="text_21">
      <!-- 0.0 -->
      <g transform="translate(418.898285 21.917584) scale(0.1 -0.1)">
       <use xlink:href="#DejaVuSans-30"/>
       <use xlink:href="#DejaVuSans-2e" transform="translate(63.623047 0)"/>
       <use xlink:href="#DejaVuSans-30" transform="translate(95.410156 0)"/>
      </g>
     </g>
    </g>
    <g id="text_22">
     <!-- Score -->
     <g transform="translate(454.779535 179.183281) rotate(-90) scale(0.1 -0.1)">
      <defs>
       <path id="DejaVuSans-53" d="M 3425 4513 
L 3425 3897 
Q 3066 4069 2747 4153 
Q 2428 4238 2131 4238 
Q 1616 4238 1336 4038 
Q 1056 3838 1056 3469 
Q 1056 3159 1242 3001 
Q 1428 2844 1947 2747 
L 2328 2669 
Q 3034 2534 3370 2195 
Q 3706 1856 3706 1288 
Q 3706 609 3251 259 
Q 2797 -91 1919 -91 
Q 1588 -91 1214 -16 
Q 841 59 441 206 
L 441 856 
Q 825 641 1194 531 
Q 1563 422 1919 422 
Q 2459 422 2753 634 
Q 3047 847 3047 1241 
Q 3047 1584 2836 1778 
Q 2625 1972 2144 2069 
L 1759 2144 
Q 1053 2284 737 2584 
Q 422 2884 422 3419 
Q 422 4038 858 4394 
Q 1294 4750 2059 4750 
Q 2388 4750 2728 4690 
Q 3069 4631 3425 4513 
z
" transform="scale(0.015625)"/>
       <path id="DejaVuSans-65" d="M 3597 1894 
L 3597 1613 
L 953 1613 
Q 991 1019 1311 708 
Q 1631 397 2203 397 
Q 2534 397 2845 478 
Q 3156 559 3463 722 
L 3463 178 
Q 3153 47 2828 -22 
Q 2503 -91 2169 -91 
Q 1331 -91 842 396 
Q 353 884 353 1716 
Q 353 2575 817 3079 
Q 1281 3584 2069 3584 
Q 2775 3584 3186 3129 
Q 3597 2675 3597 1894 
z
M 3022 2063 
Q 3016 2534 2758 2815 
Q 2500 3097 2075 3097 
Q 1594 3097 1305 2825 
Q 1016 2553 972 2059 
L 3022 2063 
z
" transform="scale(0.015625)"/>
      </defs>
      <use xlink:href="#DejaVuSans-53"/>
      <use xlink:href="#DejaVuSans-63" transform="translate(63.476562 0)"/>
      <use xlink:href="#DejaVuSans-6f" transform="translate(118.457031 0)"/>
      <use xlink:href="#DejaVuSans-72" transform="translate(179.638672 0)"/>
      <use xlink:href="#DejaVuSans-65" transform="translate(218.501953 0)"/>
     </g>
    </g>
   </g>
   <g id="LineCollection_1"/>
   <g id="patch_8">
    <path d="M 397.192028 312.24351 
L 404.545157 312.24351 
L 411.898285 312.24351 
L 411.898285 18.118365 
L 404.545157 18.118365 
L 397.192028 18.118365 
L 397.192028 312.24351 
z
" style="fill: none; stroke: #000000; stroke-width: 0.8; stroke-linejoin: miter; stroke-linecap: square"/>
   </g>
  </g>
 </g>
 <defs>
  <clipPath id="pfc549a08f7">
   <rect x="39.58149" y="18.118365" width="329.390989" height="294.125145"/>
  </clipPath>
  <clipPath id="pf01bac6e56">
   <rect x="397.192028" y="18.118365" width="14.706257" height="294.125145"/>
  </clipPath>
 </defs>
</svg>
