<?xml version="1.0" encoding="utf-8" standalone="no"?>
<!DOCTYPE svg PUBLIC "-//W3C//DTD SVG 1.1//EN"
  "http://www.w3.org/Graphics/SVG/1.1/DTD/svg11.dtd">
<svg xmlns:xlink="http://www.w3.org/1999/xlink" width="460.8pt" height="345.6pt" viewBox="0 0 460.8 345.6" xmlns="http://www.w3.org/2000/svg" version="1.1">
 <metadata>
  <rdf:RDF xmlns:dc="http://purl.org/dc/elements/1.1/" xmlns:cc="http://creativecommons.org/ns#" xmlns:rdf="http://www.w3.org/1999/02/22-rdf-syntax-ns#">
   <cc:Work>
    <dc:type rdf:resource="http://purl.org/dc/dcmitype/StillImage"/>
    <dc:date>1970-01-01T00:00:00+00:00</dc:date>
    <dc:format>image/svg+xml</dc:format>
    <dc:creator>
     <cc:Agent>
      <dc:title>Matplotlib v3.10.7, https://matplotlib.org/</dc:title>
     </cc:Agent>
    </dc:creator>
   </cc:Work>
  </rdf:RDF>
 </metadata>
 <defs>
  <style type="text/css">*{stroke-linejoin: round; stroke-linecap: butt}</style>
 </defs>
 <g id="figure_1">
  <g id="patch_1">
   <path d="M 0 345.6 
L 460.8 345.6 
L 460.8 0 
L 0 0 
z
" style="fill: #ffffff"/>
  </g>
  <g id="axes_1">
   <g id="patch_2">
    <path d="M 39.58149 312.24351 
L 373.50576 312.24351 
L 373.50576 18.118365 
L 39.58149 18.118365 
z
" style="fill: #ffffff"/>
   </g>
   <g id="QuadContourSet_1">
    <path d="M 161.008497 295.102017 
L 168.938498 287.733081 
L 161.008497 283.519281 
L 139.215092 287.733081 
z
M 191.365249 312.24351 
L 201.790237 312.24351 
L 191.365249 306.353359 
L 182.856152 312.24351 
z
M 100.294994 264.890122 
L 130.651745 278.688116 
L 134.38203 263.222652 
L 130.651745 261.278771 
L 100.294994 239.226007 
L 97.935588 263.222652 
z
M 69.938242 240.812617 
L 99.720719 238.712224 
L 69.938242 226.361685 
L 67.326304 238.712224 
z
M 39.58149 216.20615 
L 54.544731 214.201795 
L 39.58149 207.72385 
L 37.070203 214.201795 
z
M 9.224738 191.661389 
L 17.169424 189.691366 
L 9.224738 186.536328 
L 6.248281 189.691366 
z
" clip-path="url(#p3174c6168d)" style="fill: #460b5e"/>
    <path d="M 130.651745 289.983786 
L 161.008497 310.241547 
L 164.078736 312.24351 
L 182.856152 312.24351 
L 191.365249 306.353359 
L 201.790237 312.24351 
L 215.904472 312.24351 
L 191.365249 296.27611 
L 182.237663 287.733081 
L 161.008497 274.861999 
L 147.407038 263.222652 
L 130.651745 253.304114 
L 113.035381 238.712224 
L 100.294994 231.291493 
L 78.035916 214.201795 
L 69.938242 209.681999 
L 42.616322 189.691366 
L 39.58149 188.056502 
L 9.224738 171.116434 
L 2.027564 165.180938 
L -21.132014 153.205032 
L -34.886221 140.670509 
L -51.488765 131.589062 
L -71.433521 116.16008 
L -81.845517 110.634786 
L -108.576329 91.649651 
L -112.202269 89.783534 
L -112.202269 91.649651 
L -112.202269 116.16008 
L -112.202269 120.270533 
L -82.716902 140.670509 
L -81.845517 141.478782 
L -51.488765 161.38485 
L -45.735884 165.180938 
L -21.132014 182.008594 
L -11.353416 189.691366 
L 9.224738 201.289653 
L 26.910573 214.201795 
L 39.58149 223.407462 
L 59.927599 238.712224 
L 69.938242 246.22744 
L 92.406806 263.222652 
L 100.294994 268.517279 
L 127.33445 287.733081 
z
M 139.215092 287.733081 
L 161.008497 283.519281 
L 168.938498 287.733081 
L 161.008497 295.102017 
z
M 97.935588 263.222652 
L 100.294994 239.226007 
L 130.651745 261.278771 
L 134.38203 263.222652 
L 130.651745 278.688116 
L 100.294994 264.890122 
z
M 67.326304 238.712224 
L 69.938242 226.361685 
L 99.720719 238.712224 
L 69.938242 240.812617 
z
M 37.070203 214.201795 
L 39.58149 207.72385 
L 54.544731 214.201795 
L 39.58149 216.20615 
z
M 6.248281 189.691366 
L 9.224738 186.536328 
L 17.169424 189.691366 
L 9.224738 191.661389 
z
" clip-path="url(#p3174c6168d)" style="fill: #482071"/>
    <path d="M 130.651745 292.608702 
L 158.553052 312.24351 
L 161.008497 312.24351 
L 164.078736 312.24351 
L 161.008497 310.241547 
L 130.651745 289.983786 
L 127.33445 287.733081 
L 100.294994 268.517279 
L 92.406806 263.222652 
L 69.938242 246.22744 
L 59.927599 238.712224 
L 39.58149 223.407462 
L 26.910573 214.201795 
L 9.224738 201.289653 
L -11.353416 189.691366 
L -21.132014 182.008594 
L -45.735884 165.180938 
L -51.488765 161.38485 
L -81.845517 141.478782 
L -82.716902 140.670509 
L -112.202269 120.270533 
L -112.202269 128.470512 
L -92.680126 140.670509 
L -81.845517 149.830484 
L -59.257636 165.180938 
L -51.488765 170.464518 
L -24.916985 189.691366 
L -21.132014 192.566285 
L 9.224738 210.917916 
L 14.315043 214.201795 
L 39.58149 230.608773 
L 51.318773 238.712224 
L 69.938242 251.642264 
L 86.229754 263.222652 
L 100.294994 272.144435 
L 123.182056 287.733081 
z
M 191.365249 296.27611 
L 215.904472 312.24351 
L 221.722001 312.24351 
L 225.638344 312.24351 
L 221.722001 309.806018 
L 192.675474 287.733081 
L 191.365249 286.967643 
L 161.008497 266.204717 
L 157.843768 263.222652 
L 130.651745 245.329458 
L 123.381437 238.712224 
L 100.294994 223.796995 
L 88.965621 214.201795 
L 69.938242 202.369489 
L 54.312644 189.691366 
L 39.58149 180.797372 
L 17.641351 165.180938 
L 9.224738 160.445192 
L -20.804018 140.670509 
L -21.132014 140.498322 
L -51.488765 121.357007 
L -57.401902 116.16008 
L -81.845517 101.23418 
L -93.661987 91.649651 
L -112.202269 80.603876 
L -112.202269 89.783534 
L -108.576329 91.649651 
L -81.845517 110.634786 
L -71.433521 116.16008 
L -51.488765 131.589062 
L -34.886221 140.670509 
L -21.132014 153.205032 
L 2.027564 165.180938 
L 9.224738 171.116434 
L 39.58149 188.056502 
L 42.616322 189.691366 
L 69.938242 209.681999 
L 78.035916 214.201795 
L 100.294994 231.291493 
L 113.035381 238.712224 
L 130.651745 253.304114 
L 147.407038 263.222652 
L 161.008497 274.861999 
L 182.237663 287.733081 
z
" clip-path="url(#p3174c6168d)" style="fill: #46337f"/>
    <path d="M 130.651745 295.233617 
L 155.573938 312.24351 
L 158.553052 312.24351 
L 130.651745 292.608702 
L 123.182056 287.733081 
L 100.294994 272.144435 
L 86.229754 263.222652 
L 69.938242 251.642264 
L 51.318773 238.712224 
L 39.58149 230.608773 
L 14.315043 214.201795 
L 9.224738 210.917916 
L -21.132014 192.566285 
L -24.916985 189.691366 
L -51.488765 170.464518 
L -59.257636 165.180938 
L -81.845517 149.830484 
L -92.680126 140.670509 
L -112.202269 128.470512 
L -112.202269 136.67049 
L -104.974699 140.670509 
L -81.845517 158.182187 
L -70.341039 165.180938 
L -51.488765 176.77441 
L -32.254842 189.691366 
L -21.132014 197.584957 
L 5.247636 214.201795 
L 9.224738 216.771453 
L 39.58149 237.810085 
L 41.025066 238.712224 
L 69.938242 257.057088 
L 79.231964 263.222652 
L 100.294994 275.771592 
L 118.674539 287.733081 
z
M 221.722001 309.806018 
L 225.638344 312.24351 
L 232.649998 312.24351 
L 221.722001 304.963165 
L 200.556125 287.733081 
L 191.365249 281.939994 
L 166.821014 263.222652 
L 161.008497 259.722864 
L 132.326443 238.712224 
L 130.651745 237.747541 
L 100.294994 216.302497 
L 98.01435 214.201795 
L 69.938242 195.05698 
L 63.879886 189.691366 
L 39.58149 173.538241 
L 28.978263 165.180938 
L 9.224738 152.745738 
L -7.019471 140.670509 
L -21.132014 132.202309 
L -43.758336 116.16008 
L -51.488765 111.810874 
L -81.845517 91.833574 
L -82.049053 91.649651 
L -112.202269 71.424218 
L -112.202269 80.603876 
L -93.661987 91.649651 
L -81.845517 101.23418 
L -57.401902 116.16008 
L -51.488765 121.357007 
L -21.132014 140.498322 
L -20.804018 140.670509 
L 9.224738 160.445192 
L 17.641351 165.180938 
L 39.58149 180.797372 
L 54.312644 189.691366 
L 69.938242 202.369489 
L 88.965621 214.201795 
L 100.294994 223.796995 
L 123.381437 238.712224 
L 130.651745 245.329458 
L 157.843768 263.222652 
L 161.008497 266.204717 
L 191.365249 286.967643 
L 192.675474 287.733081 
z
" clip-path="url(#p3174c6168d)" style="fill: #404588"/>
    <path d="M 130.651745 297.858533 
L 152.416397 312.24351 
L 155.573938 312.24351 
L 130.651745 295.233617 
L 118.674539 287.733081 
L 100.294994 275.771592 
L 79.231964 263.222652 
L 69.938242 257.057088 
L 41.025066 238.712224 
L 39.58149 237.810085 
L 9.224738 216.771453 
L 5.247636 214.201795 
L -21.132014 197.584957 
L -32.254842 189.691366 
L -51.488765 176.77441 
L -70.341039 165.180938 
L -81.845517 158.182187 
L -104.974699 140.670509 
L -112.202269 136.67049 
L -112.202269 140.670509 
L -112.202269 143.732104 
L -82.85202 165.180938 
L -81.845517 165.881896 
L -51.488765 183.084303 
L -40.781352 189.691366 
L -21.132014 202.603629 
L -1.426531 214.201795 
L 9.224738 220.671175 
L 35.777515 238.712224 
L 39.58149 241.926191 
L 69.938242 262.471912 
L 71.161423 263.222652 
L 100.294994 279.398749 
L 113.745426 287.733081 
z
M 221.722001 304.963165 
L 232.649998 312.24351 
L 238.837846 312.24351 
L 221.722001 300.120313 
L 207.410769 287.733081 
L 191.365249 276.912345 
L 174.611677 263.222652 
L 161.008497 254.384097 
L 141.217076 238.712224 
L 130.651745 232.080172 
L 107.415976 214.201795 
L 100.294994 209.903375 
L 72.849797 189.691366 
L 69.938242 188.008877 
L 39.58149 166.27911 
L 38.303984 165.180938 
L 9.224738 145.046283 
L 3.898349 140.670509 
L -21.132014 123.906296 
L -30.860368 116.16008 
L -51.488765 102.972703 
L -66.514114 91.649651 
L -81.845517 82.372562 
L -102.867958 67.139222 
L -112.202269 61.750284 
L -112.202269 67.139223 
L -112.202269 71.424218 
L -82.049053 91.649651 
L -81.845517 91.833574 
L -51.488765 111.810874 
L -43.758336 116.16008 
L -21.132014 132.202309 
L -7.019471 140.670509 
L 9.224738 152.745738 
L 28.978263 165.180938 
L 39.58149 173.538241 
L 63.879886 189.691366 
L 69.938242 195.05698 
L 98.01435 214.201795 
L 100.294994 216.302497 
L 130.651745 237.747541 
L 132.326443 238.712224 
L 161.008497 259.722864 
L 166.821014 263.222652 
L 191.365249 281.939994 
L 200.556125 287.733081 
z
" clip-path="url(#p3174c6168d)" style="fill: #39558c"/>
    <path d="M 130.651745 300.483449 
L 149.057688 312.24351 
L 152.416397 312.24351 
L 130.651745 297.858533 
L 113.745426 287.733081 
L 100.294994 279.398749 
L 71.161423 263.222652 
L 69.938242 262.471912 
L 39.58149 241.926191 
L 35.777515 238.712224 
L 9.224738 220.671175 
L -1.426531 214.201795 
L -21.132014 202.603629 
L -40.781352 189.691366 
L -51.488765 183.084303 
L -81.845517 165.881896 
L -82.85202 165.180938 
L -112.202269 143.732104 
L -112.202269 149.709546 
L -89.530353 165.180938 
L -81.845517 170.208878 
L -51.488765 189.394195 
L -50.957478 189.691366 
L -21.132014 207.622302 
L -9.06947 214.201795 
L 9.224738 224.570898 
L 31.063512 238.712224 
L 39.58149 245.600448 
L 66.301756 263.222652 
L 69.938242 266.030394 
L 100.294994 283.025905 
L 108.307639 287.733081 
z
M 221.722001 300.120313 
L 238.837846 312.24351 
L 244.375274 312.24351 
L 221.722001 295.27746 
L 213.47605 287.733081 
L 191.365249 271.884696 
L 181.398168 263.222652 
L 161.008497 249.045331 
L 148.822847 238.712224 
L 130.651745 226.412804 
L 115.943246 214.201795 
L 100.294994 203.930866 
L 82.541427 189.691366 
L 69.938242 181.689476 
L 48.792504 165.180938 
L 39.58149 159.53583 
L 14.385215 140.670509 
L 9.224738 137.620407 
L -20.262797 116.16008 
L -21.132014 115.665095 
L -51.488765 94.134532 
L -54.438999 91.649651 
L -81.845517 72.910345 
L -88.860413 67.139223 
L -112.202269 51.64364 
L -112.202269 61.750284 
L -102.867958 67.139223 
L -81.845517 82.372562 
L -66.514114 91.649651 
L -51.488765 102.972703 
L -30.860368 116.16008 
L -21.132014 123.906296 
L 3.898349 140.670509 
L 9.224738 145.046283 
L 38.303984 165.180938 
L 39.58149 166.27911 
L 69.938242 188.008877 
L 72.849797 189.691366 
L 100.294994 209.903375 
L 107.415976 214.201795 
L 130.651745 232.080172 
L 141.217076 238.712224 
L 161.008497 254.384097 
L 174.611677 263.222652 
L 191.365249 276.912345 
L 207.410769 287.733081 
z
" clip-path="url(#p3174c6168d)" style="fill: #32658e"/>
    <path d="M 130.651745 303.108365 
L 145.470423 312.24351 
L 149.057688 312.24351 
L 130.651745 300.483449 
L 108.307639 287.733081 
L 100.294994 283.025905 
L 69.938242 266.030394 
L 66.301756 263.222652 
L 39.58149 245.600448 
L 31.063512 238.712224 
L 9.224738 224.570898 
L -9.06947 214.201795 
L -21.132014 207.622302 
L -50.957478 189.691366 
L -51.488765 189.394195 
L -81.845517 170.208878 
L -89.530353 165.180938 
L -112.202269 149.709546 
L -112.202269 155.686988 
L -97.178758 165.180938 
L -81.845517 174.53586 
L -56.671484 189.691366 
L -51.488765 194.14418 
L -21.132014 212.640974 
L -18.010962 214.201795 
L 9.224738 228.47062 
L 25.886387 238.712224 
L 39.58149 249.274705 
L 61.739162 263.222652 
L 69.938242 269.290076 
L 100.294994 286.653062 
L 102.243978 287.733081 
z
M 221.722001 295.27746 
L 244.375274 312.24351 
L 249.386104 312.24351 
L 221.722001 290.434607 
L 218.915139 287.733081 
L 191.365249 266.857047 
L 187.410044 263.222652 
L 161.008497 243.706564 
L 155.468666 238.712224 
L 130.651745 220.745435 
L 123.281665 214.201795 
L 100.294994 197.958356 
L 90.725426 189.691366 
L 69.938242 175.370075 
L 57.914012 165.180938 
L 39.58149 152.884497 
L 24.696314 140.670509 
L 9.224738 130.554709 
L -8.635851 116.16008 
L -21.132014 108.196149 
L -42.285701 91.649651 
L -51.488765 85.973257 
L -76.370744 67.139223 
L -81.845517 63.871125 
L -110.551201 42.628794 
L -112.202269 41.673787 
L -112.202269 42.628794 
L -112.202269 51.64364 
L -88.860413 67.139223 
L -81.845517 72.910345 
L -54.438999 91.649651 
L -51.488765 94.134532 
L -21.132014 115.665095 
L -20.262797 116.16008 
L 9.224738 137.620407 
L 14.385215 140.670509 
L 39.58149 159.53583 
L 48.792504 165.180938 
L 69.938242 181.689476 
L 82.541427 189.691366 
L 100.294994 203.930866 
L 115.943246 214.201795 
L 130.651745 226.412804 
L 148.822847 238.712224 
L 161.008497 249.045331 
L 181.398168 263.222652 
L 191.365249 271.884696 
L 213.47605 287.733081 
z
" clip-path="url(#p3174c6168d)" style="fill: #2c738e"/>
    <path d="M 100.294994 290.159294 
L 130.651745 305.733281 
L 141.62121 312.24351 
L 145.470423 312.24351 
L 130.651745 303.108365 
L 102.243978 287.733081 
L 100.294994 286.653062 
L 69.938242 269.290076 
L 61.739162 263.222652 
L 39.58149 249.274705 
L 25.886387 238.712224 
L 9.224738 228.47062 
L -18.010962 214.201795 
L -21.132014 212.640974 
L -51.488765 194.14418 
L -56.671484 189.691366 
L -81.845517 174.53586 
L -97.178758 165.180938 
L -112.202269 155.686988 
L -112.202269 161.664431 
L -106.127737 165.180938 
L -81.845517 178.862842 
L -62.720639 189.691366 
L -51.488765 198.817069 
L -25.285517 214.201795 
L -21.132014 217.357094 
L 9.224738 232.370343 
L 20.145126 238.712224 
L 39.58149 252.948962 
L 56.744105 263.222652 
L 69.938242 272.549758 
L 97.181108 287.733081 
z
M 221.722001 290.434607 
L 249.386104 312.24351 
L 252.078753 312.24351 
L 255.261094 312.24351 
L 252.078753 310.145053 
L 225.266361 287.733081 
L 221.722001 285.470058 
L 193.769341 263.222652 
L 191.365249 261.725511 
L 161.617293 238.712224 
L 161.008497 238.341145 
L 130.651745 215.078066 
L 129.722528 214.201795 
L 100.294994 191.985846 
L 97.808316 189.691366 
L 69.938242 169.050674 
L 65.688005 165.180938 
L 39.58149 146.233165 
L 33.317291 140.670509 
L 9.224738 123.489011 
L 0.884984 116.16008 
L -21.132014 100.727202 
L -31.679788 91.649651 
L -51.488765 78.076726 
L -64.485777 67.139223 
L -81.845517 55.493269 
L -97.313837 42.628794 
L -112.202269 32.833405 
L -112.202269 41.673787 
L -110.551201 42.628794 
L -81.845517 63.871125 
L -76.370744 67.139223 
L -51.488765 85.973257 
L -42.285701 91.649651 
L -21.132014 108.196149 
L -8.635851 116.16008 
L 9.224738 130.554709 
L 24.696314 140.670509 
L 39.58149 152.884497 
L 57.914012 165.180938 
L 69.938242 175.370075 
L 90.725426 189.691366 
L 100.294994 197.958356 
L 123.281665 214.201795 
L 130.651745 220.745435 
L 155.468666 238.712224 
L 161.008497 243.706564 
L 187.410044 263.222652 
L 191.365249 266.857047 
L 218.915139 287.733081 
z
" clip-path="url(#p3174c6168d)" style="fill: #26828e"/>
    <path d="M 100.294994 293.614254 
L 130.651745 308.358197 
L 137.468758 312.24351 
L 141.62121 312.24351 
L 130.651745 305.733281 
L 100.294994 290.159294 
L 97.181108 287.733081 
L 69.938242 272.549758 
L 56.744105 263.222652 
L 39.58149 252.948962 
L 20.145126 238.712224 
L 9.224738 232.370343 
L -21.132014 217.357094 
L -25.285517 214.201795 
L -51.488765 198.817069 
L -62.720639 189.691366 
L -81.845517 178.862842 
L -106.127737 165.180938 
L -112.202269 161.664431 
L -112.202269 165.180938 
L -112.202269 167.660609 
L -81.845517 183.189824 
L -69.554688 189.691366 
L -51.488765 203.489957 
L -31.963085 214.201795 
L -21.132014 221.936646 
L 9.224738 236.270066 
L 13.701579 238.712224 
L 39.58149 256.623219 
L 51.225935 263.222652 
L 69.938242 275.809439 
L 92.403322 287.733081 
z
M 252.078753 310.145053 
L 255.261094 312.24351 
L 262.112887 312.24351 
L 252.078753 305.173242 
L 232.499379 287.733081 
L 221.722001 280.351974 
L 201.633286 263.222652 
L 191.365249 256.322976 
L 170.252449 238.712224 
L 161.008497 232.589252 
L 138.604504 214.201795 
L 130.651745 209.019171 
L 106.608386 189.691366 
L 100.294994 185.703191 
L 74.231994 165.180938 
L 69.938242 162.514359 
L 41.555896 140.670509 
L 39.58149 139.470908 
L 9.224738 116.423313 
L 8.946954 116.16008 
L -21.132014 93.258256 
L -22.853896 91.649651 
L -51.488765 70.180196 
L -54.792864 67.139223 
L -81.845517 47.115414 
L -86.74146 42.628794 
L -112.202269 23.993022 
L -112.202269 32.833405 
L -97.313837 42.628794 
L -81.845517 55.493269 
L -64.485777 67.139223 
L -51.488765 78.076726 
L -31.679788 91.649651 
L -21.132014 100.727202 
L 0.884984 116.16008 
L 9.224738 123.489011 
L 33.317291 140.670509 
L 39.58149 146.233165 
L 65.688005 165.180938 
L 69.938242 169.050674 
L 97.808316 189.691366 
L 100.294994 191.985846 
L 129.722528 214.201795 
L 130.651745 215.078066 
L 161.008497 238.341145 
L 161.617293 238.712224 
L 191.365249 261.725511 
L 193.769341 263.222652 
L 221.722001 285.470058 
L 225.266361 287.733081 
z
" clip-path="url(#p3174c6168d)" style="fill: #21918c"/>
    <path d="M 100.294994 297.069213 
L 130.651745 310.983113 
L 132.961171 312.24351 
L 137.468758 312.24351 
L 130.651745 308.358197 
L 100.294994 293.614254 
L 92.403322 287.733081 
L 69.938242 275.809439 
L 51.225935 263.222652 
L 39.58149 256.623219 
L 13.701579 238.712224 
L 9.224738 236.270066 
L -21.132014 221.936646 
L -31.963085 214.201795 
L -51.488765 203.489957 
L -69.554688 189.691366 
L -81.845517 183.189824 
L -112.202269 167.660609 
L -112.202269 173.68356 
L -81.845517 187.516807 
L -77.408117 189.691366 
L -51.488765 208.162846 
L -39.610487 214.201795 
L -21.132014 226.516199 
L 6.304857 238.712224 
L 9.224738 240.692747 
L 39.58149 260.297476 
L 45.062131 263.222652 
L 69.938242 279.069121 
L 87.149151 287.733081 
z
M 252.078753 305.173242 
L 262.112887 312.24351 
L 268.175935 312.24351 
L 252.078753 300.20143 
L 238.858933 287.733081 
L 221.722001 275.233891 
L 208.475293 263.222652 
L 191.365249 250.920441 
L 177.670582 238.712224 
L 161.008497 226.837359 
L 146.684876 214.201795 
L 130.651745 202.888668 
L 115.480411 189.691366 
L 100.294994 179.227055 
L 83.922216 165.180938 
L 69.938242 155.635385 
L 52.237045 140.670509 
L 39.58149 132.14187 
L 20.499321 116.16008 
L 9.224738 108.634357 
L -11.233143 91.649651 
L -21.132014 85.177261 
L -43.17231 67.139223 
L -51.488765 61.777674 
L -75.127282 42.628794 
L -81.845517 38.370505 
L -107.050965 18.118365 
L -112.202269 18.118365 
L -112.202269 23.993022 
L -86.74146 42.628794 
L -81.845517 47.115414 
L -54.792864 67.139223 
L -51.488765 70.180196 
L -22.853896 91.649651 
L -21.132014 93.258256 
L 8.946954 116.16008 
L 9.224738 116.423313 
L 39.58149 139.470908 
L 41.555896 140.670509 
L 69.938242 162.514359 
L 74.231994 165.180938 
L 100.294994 185.703191 
L 106.608386 189.691366 
L 130.651745 209.019171 
L 138.604504 214.201795 
L 161.008497 232.589252 
L 170.252449 238.712224 
L 191.365249 256.322976 
L 201.633286 263.222652 
L 221.722001 280.351974 
L 232.499379 287.733081 
z
" clip-path="url(#p3174c6168d)" style="fill: #1f9f88"/>
    <path d="M 100.294994 300.524172 
L 127.491933 312.24351 
L 130.651745 312.24351 
L 132.961171 312.24351 
L 130.651745 310.983113 
L 100.294994 297.069213 
L 87.149151 287.733081 
L 69.938242 279.069121 
L 45.062131 263.222652 
L 39.58149 260.297476 
L 9.224738 240.692747 
L 6.304857 238.712224 
L -21.132014 226.516199 
L -39.610487 214.201795 
L -51.488765 208.162846 
L -77.408117 189.691366 
L -81.845517 187.516807 
L -112.202269 173.68356 
L -112.202269 179.706511 
L -87.461163 189.691366 
L -81.845517 193.466287 
L -51.488765 212.835735 
L -48.558092 214.201795 
L -21.132014 231.095751 
L -2.409576 238.712224 
L 9.224738 245.99165 
L 38.201967 263.222652 
L 39.58149 264.350133 
L 69.938242 282.328803 
L 81.312967 287.733081 
z
M 252.078753 300.20143 
L 268.175935 312.24351 
L 273.61323 312.24351 
L 252.078753 295.229619 
L 244.533433 287.733081 
L 221.722001 270.115807 
L 214.53068 263.222652 
L 191.365249 245.517906 
L 184.172747 238.712224 
L 161.008497 221.085466 
L 153.690052 214.201795 
L 130.651745 196.758164 
L 123.072569 189.691366 
L 100.294994 172.750919 
L 92.105212 165.180938 
L 69.938242 148.756411 
L 61.114922 140.670509 
L 39.58149 124.812833 
L 30.111251 116.16008 
L 9.224738 100.817414 
L -0.827971 91.649651 
L -21.132014 76.928266 
L -31.944663 67.139223 
L -51.488765 53.058255 
L -63.042989 42.628794 
L -81.845517 29.202382 
L -94.139678 18.118365 
L -107.050965 18.118365 
L -81.845517 38.370505 
L -75.127282 42.628794 
L -51.488765 61.777674 
L -43.17231 67.139223 
L -21.132014 85.177261 
L -11.233143 91.649651 
L 9.224738 108.634357 
L 20.499321 116.16008 
L 39.58149 132.14187 
L 52.237045 140.670509 
L 69.938242 155.635385 
L 83.922216 165.180938 
L 100.294994 179.227055 
L 115.480411 189.691366 
L 130.651745 202.888668 
L 146.684876 214.201795 
L 161.008497 226.837359 
L 177.670582 238.712224 
L 191.365249 250.920441 
L 208.475293 263.222652 
L 221.722001 275.233891 
L 238.858933 287.733081 
z
" clip-path="url(#p3174c6168d)" style="fill: #26ad81"/>
    <path d="M 100.294994 303.979131 
L 120.82319 312.24351 
L 127.491933 312.24351 
L 100.294994 300.524172 
L 81.312967 287.733081 
L 69.938242 282.328803 
L 39.58149 264.350133 
L 38.201967 263.222652 
L 9.224738 245.99165 
L -2.409576 238.712224 
L -21.132014 231.095751 
L -48.558092 214.201795 
L -51.488765 212.835735 
L -81.845517 193.466287 
L -87.461163 189.691366 
L -112.202269 179.706511 
L -112.202269 185.729463 
L -100.963144 189.691366 
L -81.845517 201.054953 
L -58.646841 214.201795 
L -51.488765 219.797541 
L -21.132014 235.675303 
L -12.854786 238.712224 
L 9.224738 251.290552 
L 30.857612 263.222652 
L 39.58149 269.880445 
L 69.938242 285.588484 
L 74.74958 287.733081 
z
M 252.078753 295.229619 
L 273.61323 312.24351 
L 278.541938 312.24351 
L 252.078753 290.257808 
L 249.656222 287.733081 
L 221.722001 264.997723 
L 219.961814 263.222652 
L 191.365249 240.115371 
L 189.960486 238.712224 
L 161.008497 215.333574 
L 159.872856 214.201795 
L 130.651745 190.627661 
L 129.707995 189.691366 
L 100.294994 166.274783 
L 99.18735 165.180938 
L 69.938242 141.877437 
L 68.711363 140.670509 
L 39.58149 117.483796 
L 38.238391 116.16008 
L 9.224738 93.000471 
L 7.858603 91.649651 
L -21.132014 68.679271 
L -22.692913 67.139223 
L -51.488765 44.338837 
L -53.2181 42.628794 
L -81.845517 20.034258 
L -83.775961 18.118365 
L -94.139678 18.118365 
L -81.845517 29.202382 
L -63.042989 42.628794 
L -51.488765 53.058255 
L -31.944663 67.139223 
L -21.132014 76.928266 
L -0.827971 91.649651 
L 9.224738 100.817414 
L 30.111251 116.16008 
L 39.58149 124.812833 
L 61.114922 140.670509 
L 69.938242 148.756411 
L 92.105212 165.180938 
L 100.294994 172.750919 
L 123.072569 189.691366 
L 130.651745 196.758164 
L 153.690052 214.201795 
L 161.008497 221.085466 
L 184.172747 238.712224 
L 191.365249 245.517906 
L 214.53068 263.222652 
L 221.722001 270.115807 
L 244.533433 287.733081 
z
" clip-path="url(#p3174c6168d)" style="fill: #3aba76"/>
    <path d="M 69.938242 290.838277 
L 100.294994 307.43409 
L 113.187368 312.24351 
L 120.82319 312.24351 
L 100.294994 303.979131 
L 74.74958 287.733081 
L 69.938242 285.588484 
L 39.58149 269.880445 
L 30.857612 263.222652 
L 9.224738 251.290552 
L -12.854786 238.712224 
L -21.132014 235.675303 
L -51.488765 219.797541 
L -58.646841 214.201795 
L -81.845517 201.054953 
L -100.963144 189.691366 
L -112.202269 185.729463 
L -112.202269 189.691366 
L -112.202269 193.663581 
L -81.845517 208.643619 
L -70.773958 214.201795 
L -51.488765 227.704905 
L -25.832237 238.712224 
L -21.132014 241.997684 
L 9.224738 256.589454 
L 22.322323 263.222652 
L 39.58149 275.410757 
L 66.773317 287.733081 
z
M 252.078753 290.257808 
L 278.541938 312.24351 
L 282.435504 312.24351 
L 284.606547 312.24351 
L 282.435504 310.803419 
L 258.94535 287.733081 
L 252.078753 282.947563 
L 230.875529 263.222652 
L 221.722001 256.739851 
L 202.082441 238.712224 
L 191.365249 230.938447 
L 173.229581 214.201795 
L 161.008497 205.241945 
L 144.251902 189.691366 
L 130.651745 179.352251 
L 115.121144 165.180938 
L 100.294994 153.717971 
L 86.248439 140.670509 
L 69.938242 128.336643 
L 56.963112 116.16008 
L 39.58149 102.682239 
L 28.078884 91.649651 
L 9.224738 76.718146 
L -0.780141 67.139223 
L -21.132014 51.152022 
L -29.910705 42.628794 
L -51.488765 26.319695 
L -59.936391 18.118365 
L -81.845517 18.118365 
L -83.775961 18.118365 
L -81.845517 20.034258 
L -53.2181 42.628794 
L -51.488765 44.338837 
L -22.692913 67.139223 
L -21.132014 68.679271 
L 7.858603 91.649651 
L 9.224738 93.000471 
L 38.238391 116.16008 
L 39.58149 117.483796 
L 68.711363 140.670509 
L 69.938242 141.877437 
L 99.18735 165.180938 
L 100.294994 166.274783 
L 129.707995 189.691366 
L 130.651745 190.627661 
L 159.872856 214.201795 
L 161.008497 215.333574 
L 189.960486 238.712224 
L 191.365249 240.115371 
L 219.961814 263.222652 
L 221.722001 264.997723 
L 249.656222 287.733081 
z
" clip-path="url(#p3174c6168d)" style="fill: #56c667"/>
    <path d="M 69.938242 299.91557 
L 100.294994 310.889049 
L 104.255619 312.24351 
L 113.187368 312.24351 
L 100.294994 307.43409 
L 69.938242 290.838277 
L 66.773317 287.733081 
L 39.58149 275.410757 
L 22.322323 263.222652 
L 9.224738 256.589454 
L -21.132014 241.997684 
L -25.832237 238.712224 
L -51.488765 227.704905 
L -70.773958 214.201795 
L -81.845517 208.643619 
L -112.202269 193.663581 
L -112.202269 205.27149 
L -88.16523 214.201795 
L -81.845517 218.771803 
L -51.488765 235.61227 
L -42.917947 238.712224 
L -21.132014 251.751104 
L 9.224738 261.888357 
L 12.133678 263.222652 
L 39.58149 280.94107 
L 56.255708 287.733081 
z
M 282.435504 310.803419 
L 284.606547 312.24351 
L 297.855195 312.24351 
L 282.435504 300.605829 
L 270.630525 287.733081 
L 252.078753 273.22469 
L 242.387426 263.222652 
L 221.722001 246.814815 
L 213.783617 238.712224 
L 191.365249 220.437313 
L 185.313523 214.201795 
L 161.008497 194.087221 
L 156.785888 189.691366 
L 130.651745 167.149433 
L 128.749173 165.180938 
L 101.867419 140.670509 
L 100.294994 139.600216 
L 75.237622 116.16008 
L 69.938242 112.421602 
L 48.669642 91.649651 
L 39.58149 85.010203 
L 21.806571 67.139223 
L 9.224738 57.424838 
L -5.538731 42.628794 
L -21.132014 29.783716 
L -33.083732 18.118365 
L -51.488765 18.118365 
L -59.936391 18.118365 
L -51.488765 26.319695 
L -29.910705 42.628794 
L -21.132014 51.152022 
L -0.780141 67.139223 
L 9.224738 76.718146 
L 28.078884 91.649651 
L 39.58149 102.682239 
L 56.963112 116.16008 
L 69.938242 128.336643 
L 86.248439 140.670509 
L 100.294994 153.717971 
L 115.121144 165.180938 
L 130.651745 179.352251 
L 144.251902 189.691366 
L 161.008497 205.241945 
L 173.229581 214.201795 
L 191.365249 230.938447 
L 202.082441 238.712224 
L 221.722001 256.739851 
L 230.875529 263.222652 
L 252.078753 282.947563 
L 258.94535 287.733081 
z
" clip-path="url(#p3174c6168d)" style="fill: #77d153"/>
    <path d="M 69.938242 308.992862 
L 83.305272 312.24351 
L 100.294994 312.24351 
L 104.255619 312.24351 
L 100.294994 310.889049 
L 69.938242 299.91557 
L 56.255708 287.733081 
L 39.58149 280.94107 
L 12.133678 263.222652 
L 9.224738 261.888357 
L -21.132014 251.751104 
L -42.917947 238.712224 
L -51.488765 235.61227 
L -81.845517 218.771803 
L -88.16523 214.201795 
L -112.202269 205.27149 
L -112.202269 214.201795 
L -112.202269 223.804453 
L -81.845517 235.851551 
L -73.65166 238.712224 
L -51.488765 254.137042 
L -21.132014 261.504524 
L -13.838787 263.222652 
L 9.224738 279.799104 
L 39.58149 286.471382 
L 43.104254 287.733081 
z
M 282.435504 300.605829 
L 297.855195 312.24351 
L 308.434756 312.24351 
L 282.435504 290.408239 
L 280.190317 287.733081 
L 252.078753 263.501816 
L 251.83108 263.222652 
L 228.372994 238.712224 
L 221.722001 233.953984 
L 203.993314 214.201795 
L 191.365249 204.477831 
L 178.199484 189.691366 
L 161.008497 175.805291 
L 152.076931 165.180938 
L 130.651745 147.668814 
L 124.766902 140.670509 
L 100.294994 119.788747 
L 97.11331 116.16008 
L 69.938242 92.318785 
L 69.371392 91.649651 
L 45.797371 67.139223 
L 39.58149 62.656756 
L 22.23337 42.628794 
L 9.224738 32.510122 
L -2.488364 18.118365 
L -21.132014 18.118365 
L -33.083732 18.118365 
L -21.132014 29.783716 
L -5.538731 42.628794 
L 9.224738 57.424838 
L 21.806571 67.139223 
L 39.58149 85.010203 
L 48.669642 91.649651 
L 69.938242 112.421602 
L 75.237622 116.16008 
L 100.294994 139.600216 
L 101.867419 140.670509 
L 128.749173 165.180938 
L 130.651745 167.149433 
L 156.785888 189.691366 
L 161.008497 194.087221 
L 185.313523 214.201795 
L 191.365249 220.437313 
L 213.783617 238.712224 
L 221.722001 246.814815 
L 242.387426 263.222652 
L 252.078753 273.22469 
L 270.630525 287.733081 
z
" clip-path="url(#p3174c6168d)" style="fill: #9dd93b"/>
    <path d="M -81.845517 312.24351 
L -51.488765 312.24351 
L -21.132014 312.24351 
L 9.224738 312.24351 
L 39.58149 312.24351 
L 69.938242 312.24351 
L 83.305272 312.24351 
L 69.938242 308.992862 
L 43.104254 287.733081 
L 39.58149 286.471382 
L 9.224738 279.799104 
L -13.838787 263.222652 
L -21.132014 261.504524 
L -51.488765 254.137042 
L -73.65166 238.712224 
L -81.845517 235.851551 
L -112.202269 223.804453 
L -112.202269 238.712224 
L -112.202269 263.222652 
L -112.202269 287.733081 
L -112.202269 312.24351 
z
M 282.435504 290.408239 
L 308.434756 312.24351 
L 312.792256 312.24351 
L 339.190699 312.24351 
L 312.792256 289.924774 
L 311.259534 287.733081 
L 291.456831 263.222652 
L 282.435504 256.744141 
L 273.34555 238.712224 
L 282.435504 224.172213 
L 299.385762 238.712224 
L 312.792256 250.484404 
L 327.022861 263.222652 
L 343.149008 279.089282 
L 352.50989 287.733081 
L 373.50576 311.325311 
L 374.446136 312.24351 
L 403.862512 312.24351 
L 434.219263 312.24351 
L 464.576015 312.24351 
L 494.932767 312.24351 
L 525.289519 312.24351 
L 555.646271 312.24351 
L 586.003023 312.24351 
L 616.359774 312.24351 
L 646.716526 312.24351 
L 677.073278 312.24351 
L 707.43003 312.24351 
L 737.786782 312.24351 
L 768.143533 312.24351 
L 798.500285 312.24351 
L 828.857037 312.24351 
L 859.213789 312.24351 
L 889.570541 312.24351 
L 919.927292 312.24351 
L 950.284044 312.24351 
L 980.640796 312.24351 
L 1010.997548 312.24351 
L 1041.3543 312.24351 
L 1071.711051 312.24351 
L 1102.067803 312.24351 
L 1132.424555 312.24351 
L 1162.781307 312.24351 
L 1193.138059 312.24351 
L 1223.49481 312.24351 
L 1223.49481 287.733081 
L 1223.49481 263.222652 
L 1223.49481 238.712224 
L 1223.49481 214.201795 
L 1223.49481 189.691366 
L 1223.49481 165.180938 
L 1223.49481 140.670509 
L 1223.49481 116.16008 
L 1223.49481 91.649651 
L 1223.49481 67.139223 
L 1223.49481 42.628794 
L 1223.49481 18.118365 
L 1193.138059 18.118365 
L 1162.781307 18.118365 
L 1132.424555 18.118365 
L 1102.067803 18.118365 
L 1071.711051 18.118365 
L 1041.3543 18.118365 
L 1010.997548 18.118365 
L 980.640796 18.118365 
L 950.284044 18.118365 
L 919.927292 18.118365 
L 889.570541 18.118365 
L 859.213789 18.118365 
L 828.857037 18.118365 
L 798.500285 18.118365 
L 768.143533 18.118365 
L 737.786782 18.118365 
L 707.43003 18.118365 
L 677.073278 18.118365 
L 646.716526 18.118365 
L 616.359774 18.118365 
L 586.003023 18.118365 
L 555.646271 18.118365 
L 525.289519 18.118365 
L 494.932767 18.118365 
L 464.576015 18.118365 
L 434.219263 18.118365 
L 403.862512 18.118365 
L 373.50576 18.118365 
L 343.149008 18.118365 
L 312.792256 18.118365 
L 282.435504 18.118365 
L 252.078753 18.118365 
L 221.722001 18.118365 
L 191.365249 18.118365 
L 161.008497 18.118365 
L 130.651745 18.118365 
L 100.294994 18.118365 
L 69.938242 18.118365 
L 39.58149 18.118365 
L 9.224738 18.118365 
L -2.488364 18.118365 
L 9.224738 32.510122 
L 22.23337 42.628794 
L 39.58149 62.656756 
L 45.797371 67.139223 
L 69.371392 91.649651 
L 69.938242 92.318785 
L 97.11331 116.16008 
L 100.294994 119.788747 
L 124.766902 140.670509 
L 130.651745 147.668814 
L 152.076931 165.180938 
L 161.008497 175.805291 
L 178.199484 189.691366 
L 191.365249 204.477831 
L 203.993314 214.201795 
L 221.722001 233.953984 
L 228.372994 238.712224 
L 251.83108 263.222652 
L 252.078753 263.501816 
L 280.190317 287.733081 
z
M 248.392143 214.201795 
L 252.078753 200.751976 
L 268.843495 214.201795 
L 252.078753 220.690326 
z
M 221.426614 189.691366 
L 221.722001 186.57618 
L 226.494458 189.691366 
L 221.722001 190.190499 
z
" clip-path="url(#p3174c6168d)" style="fill: #c5e021"/>
    <path d="M 312.792256 289.924774 
L 339.190699 312.24351 
L 343.149008 312.24351 
L 373.50576 312.24351 
L 374.446136 312.24351 
L 373.50576 311.325311 
L 352.50989 287.733081 
L 343.149008 279.089282 
L 327.022861 263.222652 
L 312.792256 250.484404 
L 299.385762 238.712224 
L 282.435504 224.172213 
L 273.34555 238.712224 
L 282.435504 256.744141 
L 291.456831 263.222652 
L 311.259534 287.733081 
z
M 252.078753 220.690326 
L 268.843495 214.201795 
L 252.078753 200.751976 
L 248.392143 214.201795 
z
M 221.722001 190.190499 
L 226.494458 189.691366 
L 221.722001 186.57618 
L 221.426614 189.691366 
z
" clip-path="url(#p3174c6168d)" style="fill: #ece51b"/>
   </g>
   <g id="PathCollection_1">
    <defs>
     <path id="mdc0741d33a" d="M -3 3 
L 3 -3 
M -3 -3 
L 3 3 
" style="stroke: #ff0000; stroke-width: 1.5"/>
    </defs>
    <g clip-path="url(#p3174c6168d)">
     <use xlink:href="#mdc0741d33a" x="343.149008" y="312.24351" style="fill: #ff0000; stroke: #ff0000; stroke-width: 1.5"/>
     <use xlink:href="#mdc0741d33a" x="343.149008" y="287.733081" style="fill: #ff0000; stroke: #ff0000; stroke-width: 1.5"/>
     <use xlink:href="#mdc0741d33a" x="312.792256" y="263.222652" style="fill: #ff0000; stroke: #ff0000; stroke-width: 1.5"/>
     <use xlink:href="#mdc0741d33a" x="282.435504" y="238.712224" style="fill: #ff0000; stroke: #ff0000; stroke-width: 1.5"/>
     <use xlink:href="#mdc0741d33a" x="252.078753" y="214.201795" style="fill: #ff0000; stroke: #ff0000; stroke-width: 1.5"/>
     <use xlink:href="#mdc0741d33a" x="221.722001" y="189.691366" style="fill: #ff0000; stroke: #ff0000; stroke-width: 1.5"/>
     <use xlink:href="#mdc0741d33a" x="221.722001" y="165.180938" style="fill: #ff0000; stroke: #ff0000; stroke-width: 1.5"/>
     <use xlink:href="#mdc0741d33a" x="191.365249" y="140.670509" style="fill: #ff0000; stroke: #ff0000; stroke-width: 1.5"/>
     <use xlink:href="#mdc0741d33a" x="161.008497" y="116.16008" style="fill: #ff0000; stroke: #ff0000; stroke-width: 1.5"/>
     <use xlink:href="#mdc0741d33a" x="130.651745" y="91.649651" style="fill: #ff0000; stroke: #ff0000; stroke-width: 1.5"/>
     <use xlink:href="#mdc0741d33a" x="100.294994" y="67.139223" style="fill: #ff0000; stroke: #ff0000; stroke-width: 1.5"/>
     <use xlink:href="#mdc0741d33a" x="100.294994" y="42.628794" style="fill: #ff0000; stroke: #ff0000; stroke-width: 1.5"/>
     <use xlink:href="#mdc0741d33a" x="69.938242" y="18.118365" style="fill: #ff0000; stroke: #ff0000; stroke-width: 1.5"/>
    </g>
   </g>
   <g id="matplotlib.axis_1">
    <g id="xtick_1">
     <g id="line2d_1">
      <defs>
       <path id="m38f3b05bbe" d="M 0 0 
L 0 3.5 
" style="stroke: #000000; stroke-width: 0.8"/>
      </defs>
      <g>
       <use xlink:href="#m38f3b05bbe" x="130.651745" y="312.24351" style="stroke: #000000; stroke-width: 0.8"/>
      </g>
     </g>
     <g id="text_1">
      <!-- $\mathdefault{10^{-3}}$ -->
      <g transform="translate(118.901745 326.841947) scale(0.1 -0.1)">
       <defs>
        <path id="DejaVuSans-31" d="M 794 531 
L 1825 531 
L 1825 4091 
L 703 3866 
L 703 4441 
L 1819 4666 
L 2450 4666 
L 2450 531 
L 3481 531 
L 3481 0 
L 794 0 
L 794 531 
z
" transform="scale(0.015625)"/>
        <path id="DejaVuSans-30" d="M 2034 4250 
Q 1547 4250 1301 3770 
Q 1056 3291 1056 2328 
Q 1056 1369 1301 889 
Q 1547 409 2034 409 
Q 2525 409 2770 889 
Q 3016 1369 3016 2328 
Q 3016 3291 2770 3770 
Q 2525 4250 2034 4250 
z
M 2034 4750 
Q 2819 4750 3233 4129 
Q 3647 3509 3647 2328 
Q 3647 1150 3233 529 
Q 2819 -91 2034 -91 
Q 1250 -91 836 529 
Q 422 1150 422 2328 
Q 422 3509 836 4129 
Q 1250 4750 2034 4750 
z
" transform="scale(0.015625)"/>
        <path id="DejaVuSans-2212" d="M 678 2272 
L 4684 2272 
L 4684 1741 
L 678 1741 
L 678 2272 
z
" transform="scale(0.015625)"/>
        <path id="DejaVuSans-33" d="M 2597 2516 
Q 3050 2419 3304 2112 
Q 3559 1806 3559 1356 
Q 3559 666 3084 287 
Q 2609 -91 1734 -91 
Q 1441 -91 1130 -33 
Q 819 25 488 141 
L 488 750 
Q 750 597 1062 519 
Q 1375 441 1716 441 
Q 2309 441 2620 675 
Q 2931 909 2931 1356 
Q 2931 1769 2642 2001 
Q 2353 2234 1838 2234 
L 1294 2234 
L 1294 2753 
L 1863 2753 
Q 2328 2753 2575 2939 
Q 2822 3125 2822 3475 
Q 2822 3834 2567 4026 
Q 2313 4219 1838 4219 
Q 1578 4219 1281 4162 
Q 984 4106 628 3988 
L 628 4550 
Q 988 4650 1302 4700 
Q 1616 4750 1894 4750 
Q 2613 4750 3031 4423 
Q 3450 4097 3450 3541 
Q 3450 3153 3228 2886 
Q 3006 2619 2597 2516 
z
" transform="scale(0.015625)"/>
       </defs>
       <use xlink:href="#DejaVuSans-31" transform="translate(0 0.765625)"/>
       <use xlink:href="#DejaVuSans-30" transform="translate(63.623047 0.765625)"/>
       <use xlink:href="#DejaVuSans-2212" transform="translate(128.203125 39.046875) scale(0.7)"/>
       <use xlink:href="#DejaVuSans-33" transform="translate(186.855469 39.046875) scale(0.7)"/>
      </g>
     </g>
    </g>
    <g id="xtick_2">
     <g id="line2d_2">
      <g>
       <use xlink:href="#m38f3b05bbe" x="252.078753" y="312.24351" style="stroke: #000000; stroke-width: 0.8"/>
      </g>
     </g>
     <g id="text_2">
      <!-- $\mathdefault{10^{-2}}$ -->
      <g transform="translate(240.328753 326.841947) scale(0.1 -0.1)">
       <defs>
        <path id="DejaVuSans-32" d="M 1228 531 
L 3431 531 
L 3431 0 
L 469 0 
L 469 531 
Q 828 903 1448 1529 
Q 2069 2156 2228 2338 
Q 2531 2678 2651 2914 
Q 2772 3150 2772 3378 
Q 2772 3750 2511 3984 
Q 2250 4219 1831 4219 
Q 1534 4219 1204 4116 
Q 875 4013 500 3803 
L 500 4441 
Q 881 4594 1212 4672 
Q 1544 4750 1819 4750 
Q 2544 4750 2975 4387 
Q 3406 4025 3406 3419 
Q 3406 3131 3298 2873 
Q 3191 2616 2906 2266 
Q 2828 2175 2409 1742 
Q 1991 1309 1228 531 
z
" transform="scale(0.015625)"/>
       </defs>
       <use xlink:href="#DejaVuSans-31" transform="translate(0 0.765625)"/>
       <use xlink:href="#DejaVuSans-30" transform="translate(63.623047 0.765625)"/>
       <use xlink:href="#DejaVuSans-2212" transform="translate(128.203125 39.046875) scale(0.7)"/>
       <use xlink:href="#DejaVuSans-32" transform="translate(186.855469 39.046875) scale(0.7)"/>
      </g>
     </g>
    </g>
    <g id="xtick_3">
     <g id="line2d_3">
      <g>
       <use xlink:href="#m38f3b05bbe" x="373.50576" y="312.24351" style="stroke: #000000; stroke-width: 0.8"/>
      </g>
     </g>
     <g id="text_3">
      <!-- $\mathdefault{10^{-1}}$ -->
      <g transform="translate(361.75576 326.841947) scale(0.1 -0.1)">
       <use xlink:href="#DejaVuSans-31" transform="translate(0 0.684375)"/>
       <use xlink:href="#DejaVuSans-30" transform="translate(63.623047 0.684375)"/>
       <use xlink:href="#DejaVuSans-2212" transform="translate(128.203125 38.965625) scale(0.7)"/>
       <use xlink:href="#DejaVuSans-31" transform="translate(186.855469 38.965625) scale(0.7)"/>
      </g>
     </g>
    </g>
    <g id="xtick_4">
     <g id="line2d_4">
      <defs>
       <path id="m360e1f0208" d="M 0 0 
L 0 2 
" style="stroke: #000000; stroke-width: 0.6"/>
      </defs>
      <g>
       <use xlink:href="#m360e1f0208" x="45.77791" y="312.24351" style="stroke: #000000; stroke-width: 0.6"/>
      </g>
     </g>
    </g>
    <g id="xtick_5">
     <g id="line2d_5">
      <g>
       <use xlink:href="#m360e1f0208" x="67.160144" y="312.24351" style="stroke: #000000; stroke-width: 0.6"/>
      </g>
     </g>
    </g>
    <g id="xtick_6">
     <g id="line2d_6">
      <g>
       <use xlink:href="#m360e1f0208" x="82.331081" y="312.24351" style="stroke: #000000; stroke-width: 0.6"/>
      </g>
     </g>
    </g>
    <g id="xtick_7">
     <g id="line2d_7">
      <g>
       <use xlink:href="#m360e1f0208" x="94.098574" y="312.24351" style="stroke: #000000; stroke-width: 0.6"/>
      </g>
     </g>
    </g>
    <g id="xtick_8">
     <g id="line2d_8">
      <g>
       <use xlink:href="#m360e1f0208" x="103.713316" y="312.24351" style="stroke: #000000; stroke-width: 0.6"/>
      </g>
     </g>
    </g>
    <g id="xtick_9">
     <g id="line2d_9">
      <g>
       <use xlink:href="#m360e1f0208" x="111.842464" y="312.24351" style="stroke: #000000; stroke-width: 0.6"/>
      </g>
     </g>
    </g>
    <g id="xtick_10">
     <g id="line2d_10">
      <g>
       <use xlink:href="#m360e1f0208" x="118.884253" y="312.24351" style="stroke: #000000; stroke-width: 0.6"/>
      </g>
     </g>
    </g>
    <g id="xtick_11">
     <g id="line2d_11">
      <g>
       <use xlink:href="#m360e1f0208" x="125.09555" y="312.24351" style="stroke: #000000; stroke-width: 0.6"/>
      </g>
     </g>
    </g>
    <g id="xtick_12">
     <g id="line2d_12">
      <g>
       <use xlink:href="#m360e1f0208" x="167.204917" y="312.24351" style="stroke: #000000; stroke-width: 0.6"/>
      </g>
     </g>
    </g>
    <g id="xtick_13">
     <g id="line2d_13">
      <g>
       <use xlink:href="#m360e1f0208" x="188.587151" y="312.24351" style="stroke: #000000; stroke-width: 0.6"/>
      </g>
     </g>
    </g>
    <g id="xtick_14">
     <g id="line2d_14">
      <g>
       <use xlink:href="#m360e1f0208" x="203.758088" y="312.24351" style="stroke: #000000; stroke-width: 0.6"/>
      </g>
     </g>
    </g>
    <g id="xtick_15">
     <g id="line2d_15">
      <g>
       <use xlink:href="#m360e1f0208" x="215.525581" y="312.24351" style="stroke: #000000; stroke-width: 0.6"/>
      </g>
     </g>
    </g>
    <g id="xtick_16">
     <g id="line2d_16">
      <g>
       <use xlink:href="#m360e1f0208" x="225.140323" y="312.24351" style="stroke: #000000; stroke-width: 0.6"/>
      </g>
     </g>
    </g>
    <g id="xtick_17">
     <g id="line2d_17">
      <g>
       <use xlink:href="#m360e1f0208" x="233.269471" y="312.24351" style="stroke: #000000; stroke-width: 0.6"/>
      </g>
     </g>
    </g>
    <g id="xtick_18">
     <g id="line2d_18">
      <g>
       <use xlink:href="#m360e1f0208" x="240.31126" y="312.24351" style="stroke: #000000; stroke-width: 0.6"/>
      </g>
     </g>
    </g>
    <g id="xtick_19">
     <g id="line2d_19">
      <g>
       <use xlink:href="#m360e1f0208" x="246.522558" y="312.24351" style="stroke: #000000; stroke-width: 0.6"/>
      </g>
     </g>
    </g>
    <g id="xtick_20">
     <g id="line2d_20">
      <g>
       <use xlink:href="#m360e1f0208" x="288.631924" y="312.24351" style="stroke: #000000; stroke-width: 0.6"/>
      </g>
     </g>
    </g>
    <g id="xtick_21">
     <g id="line2d_21">
      <g>
       <use xlink:href="#m360e1f0208" x="310.014159" y="312.24351" style="stroke: #000000; stroke-width: 0.6"/>
      </g>
     </g>
    </g>
    <g id="xtick_22">
     <g id="line2d_22">
      <g>
       <use xlink:href="#m360e1f0208" x="325.185096" y="312.24351" style="stroke: #000000; stroke-width: 0.6"/>
      </g>
     </g>
    </g>
    <g id="xtick_23">
     <g id="line2d_23">
      <g>
       <use xlink:href="#m360e1f0208" x="336.952588" y="312.24351" style="stroke: #000000; stroke-width: 0.6"/>
      </g>
     </g>
    </g>
    <g id="xtick_24">
     <g id="line2d_24">
      <g>
       <use xlink:href="#m360e1f0208" x="346.56733" y="312.24351" style="stroke: #000000; stroke-width: 0.6"/>
      </g>
     </g>
    </g>
    <g id="xtick_25">
     <g id="line2d_25">
      <g>
       <use xlink:href="#m360e1f0208" x="354.696478" y="312.24351" style="stroke: #000000; stroke-width: 0.6"/>
      </g>
     </g>
    </g>
    <g id="xtick_26">
     <g id="line2d_26">
      <g>
       <use xlink:href="#m360e1f0208" x="361.738267" y="312.24351" style="stroke: #000000; stroke-width: 0.6"/>
      </g>
     </g>
    </g>
    <g id="xtick_27">
     <g id="line2d_27">
      <g>
       <use xlink:href="#m360e1f0208" x="367.949565" y="312.24351" style="stroke: #000000; stroke-width: 0.6"/>
      </g>
     </g>
    </g>
    <g id="text_4">
     <!-- bandwidth -->
     <g transform="translate(180.181125 340.520072) scale(0.1 -0.1)">
      <defs>
       <path id="DejaVuSans-62" d="M 3116 1747 
Q 3116 2381 2855 2742 
Q 2594 3103 2138 3103 
Q 1681 3103 1420 2742 
Q 1159 2381 1159 1747 
Q 1159 1113 1420 752 
Q 1681 391 2138 391 
Q 2594 391 2855 752 
Q 3116 1113 3116 1747 
z
M 1159 2969 
Q 1341 3281 1617 3432 
Q 1894 3584 2278 3584 
Q 2916 3584 3314 3078 
Q 3713 2572 3713 1747 
Q 3713 922 3314 415 
Q 2916 -91 2278 -91 
Q 1894 -91 1617 61 
Q 1341 213 1159 525 
L 1159 0 
L 581 0 
L 581 4863 
L 1159 4863 
L 1159 2969 
z
" transform="scale(0.015625)"/>
       <path id="DejaVuSans-61" d="M 2194 1759 
Q 1497 1759 1228 1600 
Q 959 1441 959 1056 
Q 959 750 1161 570 
Q 1363 391 1709 391 
Q 2188 391 2477 730 
Q 2766 1069 2766 1631 
L 2766 1759 
L 2194 1759 
z
M 3341 1997 
L 3341 0 
L 2766 0 
L 2766 531 
Q 2569 213 2275 61 
Q 1981 -91 1556 -91 
Q 1019 -91 701 211 
Q 384 513 384 1019 
Q 384 1609 779 1909 
Q 1175 2209 1959 2209 
L 2766 2209 
L 2766 2266 
Q 2766 2663 2505 2880 
Q 2244 3097 1772 3097 
Q 1472 3097 1187 3025 
Q 903 2953 641 2809 
L 641 3341 
Q 956 3463 1253 3523 
Q 1550 3584 1831 3584 
Q 2591 3584 2966 3190 
Q 3341 2797 3341 1997 
z
" transform="scale(0.015625)"/>
       <path id="DejaVuSans-6e" d="M 3513 2113 
L 3513 0 
L 2938 0 
L 2938 2094 
Q 2938 2591 2744 2837 
Q 2550 3084 2163 3084 
Q 1697 3084 1428 2787 
Q 1159 2491 1159 1978 
L 1159 0 
L 581 0 
L 581 3500 
L 1159 3500 
L 1159 2956 
Q 1366 3272 1645 3428 
Q 1925 3584 2291 3584 
Q 2894 3584 3203 3211 
Q 3513 2838 3513 2113 
z
" transform="scale(0.015625)"/>
       <path id="DejaVuSans-64" d="M 2906 2969 
L 2906 4863 
L 3481 4863 
L 3481 0 
L 2906 0 
L 2906 525 
Q 2725 213 2448 61 
Q 2172 -91 1784 -91 
Q 1150 -91 751 415 
Q 353 922 353 1747 
Q 353 2572 751 3078 
Q 1150 3584 1784 3584 
Q 2172 3584 2448 3432 
Q 2725 3281 2906 2969 
z
M 947 1747 
Q 947 1113 1208 752 
Q 1469 391 1925 391 
Q 2381 391 2643 752 
Q 2906 1113 2906 1747 
Q 2906 2381 2643 2742 
Q 2381 3103 1925 3103 
Q 1469 3103 1208 2742 
Q 947 2381 947 1747 
z
" transform="scale(0.015625)"/>
       <path id="DejaVuSans-77" d="M 269 3500 
L 844 3500 
L 1563 769 
L 2278 3500 
L 2956 3500 
L 3675 769 
L 4391 3500 
L 4966 3500 
L 4050 0 
L 3372 0 
L 2619 2869 
L 1863 0 
L 1184 0 
L 269 3500 
z
" transform="scale(0.015625)"/>
       <path id="DejaVuSans-69" d="M 603 3500 
L 1178 3500 
L 1178 0 
L 603 0 
L 603 3500 
z
M 603 4863 
L 1178 4863 
L 1178 4134 
L 603 4134 
L 603 4863 
z
" transform="scale(0.015625)"/>
       <path id="DejaVuSans-74" d="M 1172 4494 
L 1172 3500 
L 2356 3500 
L 2356 3053 
L 1172 3053 
L 1172 1153 
Q 1172 725 1289 603 
Q 1406 481 1766 481 
L 2356 481 
L 2356 0 
L 1766 0 
Q 1100 0 847 248 
Q 594 497 594 1153 
L 594 3053 
L 172 3053 
L 172 3500 
L 594 3500 
L 594 4494 
L 1172 4494 
z
" transform="scale(0.015625)"/>
       <path id="DejaVuSans-68" d="M 3513 2113 
L 3513 0 
L 2938 0 
L 2938 2094 
Q 2938 2591 2744 2837 
Q 2550 3084 2163 3084 
Q 1697 3084 1428 2787 
Q 1159 2491 1159 1978 
L 1159 0 
L 581 0 
L 581 4863 
L 1159 4863 
L 1159 2956 
Q 1366 3272 1645 3428 
Q 1925 3584 2291 3584 
Q 2894 3584 3203 3211 
Q 3513 2838 3513 2113 
z
" transform="scale(0.015625)"/>
      </defs>
      <use xlink:href="#DejaVuSans-62"/>
      <use xlink:href="#DejaVuSans-61" transform="translate(63.476562 0)"/>
      <use xlink:href="#DejaVuSans-6e" transform="translate(124.755859 0)"/>
      <use xlink:href="#DejaVuSans-64" transform="translate(188.134766 0)"/>
      <use xlink:href="#DejaVuSans-77" transform="translate(251.611328 0)"/>
      <use xlink:href="#DejaVuSans-69" transform="translate(333.398438 0)"/>
      <use xlink:href="#DejaVuSans-64" transform="translate(361.181641 0)"/>
      <use xlink:href="#DejaVuSans-74" transform="translate(424.658203 0)"/>
      <use xlink:href="#DejaVuSans-68" transform="translate(463.867188 0)"/>
     </g>
    </g>
   </g>
   <g id="matplotlib.axis_2">
    <g id="ytick_1">
     <g id="line2d_28">
      <defs>
       <path id="mbd2f377c6c" d="M 0 0 
L -3.5 0 
" style="stroke: #000000; stroke-width: 0.8"/>
      </defs>
      <g>
       <use xlink:href="#mbd2f377c6c" x="39.58149" y="312.24351" style="stroke: #000000; stroke-width: 0.8"/>
      </g>
     </g>
     <g id="text_5">
      <!-- 1.0 -->
      <g transform="translate(16.678365 316.042729) scale(0.1 -0.1)">
       <defs>
        <path id="DejaVuSans-2e" d="M 684 794 
L 1344 794 
L 1344 0 
L 684 0 
L 684 794 
z
" transform="scale(0.015625)"/>
       </defs>
       <use xlink:href="#DejaVuSans-31"/>
       <use xlink:href="#DejaVuSans-2e" transform="translate(63.623047 0)"/>
       <use xlink:href="#DejaVuSans-30" transform="translate(95.410156 0)"/>
      </g>
     </g>
    </g>
    <g id="ytick_2">
     <g id="line2d_29">
      <g>
       <use xlink:href="#mbd2f377c6c" x="39.58149" y="263.222652" style="stroke: #000000; stroke-width: 0.8"/>
      </g>
     </g>
     <g id="text_6">
      <!-- 1.5 -->
      <g transform="translate(16.678365 267.021871) scale(0.1 -0.1)">
       <defs>
        <path id="DejaVuSans-35" d="M 691 4666 
L 3169 4666 
L 3169 4134 
L 1269 4134 
L 1269 2991 
Q 1406 3038 1543 3061 
Q 1681 3084 1819 3084 
Q 2600 3084 3056 2656 
Q 3513 2228 3513 1497 
Q 3513 744 3044 326 
Q 2575 -91 1722 -91 
Q 1428 -91 1123 -41 
Q 819 9 494 109 
L 494 744 
Q 775 591 1075 516 
Q 1375 441 1709 441 
Q 2250 441 2565 725 
Q 2881 1009 2881 1497 
Q 2881 1984 2565 2268 
Q 2250 2553 1709 2553 
Q 1456 2553 1204 2497 
Q 953 2441 691 2322 
L 691 4666 
z
" transform="scale(0.015625)"/>
       </defs>
       <use xlink:href="#DejaVuSans-31"/>
       <use xlink:href="#DejaVuSans-2e" transform="translate(63.623047 0)"/>
       <use xlink:href="#DejaVuSans-35" transform="translate(95.410156 0)"/>
      </g>
     </g>
    </g>
    <g id="ytick_3">
     <g id="line2d_30">
      <g>
       <use xlink:href="#mbd2f377c6c" x="39.58149" y="214.201795" style="stroke: #000000; stroke-width: 0.8"/>
      </g>
     </g>
     <g id="text_7">
      <!-- 2.0 -->
      <g transform="translate(16.678365 218.001014) scale(0.1 -0.1)">
       <use xlink:href="#DejaVuSans-32"/>
       <use xlink:href="#DejaVuSans-2e" transform="translate(63.623047 0)"/>
       <use xlink:href="#DejaVuSans-30" transform="translate(95.410156 0)"/>
      </g>
     </g>
    </g>
    <g id="ytick_4">
     <g id="line2d_31">
      <g>
       <use xlink:href="#mbd2f377c6c" x="39.58149" y="165.180938" style="stroke: #000000; stroke-width: 0.8"/>
      </g>
     </g>
     <g id="text_8">
      <!-- 2.5 -->
      <g transform="translate(16.678365 168.980156) scale(0.1 -0.1)">
       <use xlink:href="#DejaVuSans-32"/>
       <use xlink:href="#DejaVuSans-2e" transform="translate(63.623047 0)"/>
       <use xlink:href="#DejaVuSans-35" transform="translate(95.410156 0)"/>
      </g>
     </g>
    </g>
    <g id="ytick_5">
     <g id="line2d_32">
      <g>
       <use xlink:href="#mbd2f377c6c" x="39.58149" y="116.16008" style="stroke: #000000; stroke-width: 0.8"/>
      </g>
     </g>
     <g id="text_9">
      <!-- 3.0 -->
      <g transform="translate(16.678365 119.959299) scale(0.1 -0.1)">
       <use xlink:href="#DejaVuSans-33"/>
       <use xlink:href="#DejaVuSans-2e" transform="translate(63.623047 0)"/>
       <use xlink:href="#DejaVuSans-30" transform="translate(95.410156 0)"/>
      </g>
     </g>
    </g>
    <g id="ytick_6">
     <g id="line2d_33">
      <g>
       <use xlink:href="#mbd2f377c6c" x="39.58149" y="67.139223" style="stroke: #000000; stroke-width: 0.8"/>
      </g>
     </g>
     <g id="text_10">
      <!-- 3.5 -->
      <g transform="translate(16.678365 70.938441) scale(0.1 -0.1)">
       <use xlink:href="#DejaVuSans-33"/>
       <use xlink:href="#DejaVuSans-2e" transform="translate(63.623047 0)"/>
       <use xlink:href="#DejaVuSans-35" transform="translate(95.410156 0)"/>
      </g>
     </g>
    </g>
    <g id="ytick_7">
     <g id="line2d_34">
      <g>
       <use xlink:href="#mbd2f377c6c" x="39.58149" y="18.118365" style="stroke: #000000; stroke-width: 0.8"/>
      </g>
     </g>
     <g id="text_11">
      <!-- 4.0 -->
      <g transform="translate(16.678365 21.917584) scale(0.1 -0.1)">
       <defs>
        <path id="DejaVuSans-34" d="M 2419 4116 
L 825 1625 
L 2419 1625 
L 2419 4116 
z
M 2253 4666 
L 3047 4666 
L 3047 1625 
L 3713 1625 
L 3713 1100 
L 3047 1100 
L 3047 0 
L 2419 0 
L 2419 1100 
L 313 1100 
L 313 1709 
L 2253 4666 
z
" transform="scale(0.015625)"/>
       </defs>
       <use xlink:href="#DejaVuSans-34"/>
       <use xlink:href="#DejaVuSans-2e" transform="translate(63.623047 0)"/>
       <use xlink:href="#DejaVuSans-30" transform="translate(95.410156 0)"/>
      </g>
     </g>
    </g>
    <g id="text_12">
     <!-- alpha -->
     <g transform="translate(10.598677 179.041094) rotate(-90) scale(0.1 -0.1)">
      <defs>
       <path id="DejaVuSans-6c" d="M 603 4863 
L 1178 4863 
L 1178 0 
L 603 0 
L 603 4863 
z
" transform="scale(0.015625)"/>
       <path id="DejaVuSans-70" d="M 1159 525 
L 1159 -1331 
L 581 -1331 
L 581 3500 
L 1159 3500 
L 1159 2969 
Q 1341 3281 1617 3432 
Q 1894 3584 2278 3584 
Q 2916 3584 3314 3078 
Q 3713 2572 3713 1747 
Q 3713 922 3314 415 
Q 2916 -91 2278 -91 
Q 1894 -91 1617 61 
Q 1341 213 1159 525 
z
M 3116 1747 
Q 3116 2381 2855 2742 
Q 2594 3103 2138 3103 
Q 1681 3103 1420 2742 
Q 1159 2381 1159 1747 
Q 1159 1113 1420 752 
Q 1681 391 2138 391 
Q 2594 391 2855 752 
Q 3116 1113 3116 1747 
z
" transform="scale(0.015625)"/>
      </defs>
      <use xlink:href="#DejaVuSans-61"/>
      <use xlink:href="#DejaVuSans-6c" transform="translate(61.279297 0)"/>
      <use xlink:href="#DejaVuSans-70" transform="translate(89.0625 0)"/>
      <use xlink:href="#DejaVuSans-68" transform="translate(152.539062 0)"/>
      <use xlink:href="#DejaVuSans-61" transform="translate(215.917969 0)"/>
     </g>
    </g>
   </g>
   <g id="patch_3">
    <path d="M 39.58149 312.24351 
L 39.58149 18.118365 
" style="fill: none; stroke: #000000; stroke-width: 0.8; stroke-linejoin: miter; stroke-linecap: square"/>
   </g>
   <g id="patch_4">
    <path d="M 373.50576 312.24351 
L 373.50576 18.118365 
" style="fill: none; stroke: #000000; stroke-width: 0.8; stroke-linejoin: miter; stroke-linecap: square"/>
   </g>
   <g id="patch_5">
    <path d="M 39.58149 312.24351 
L 373.50576 312.24351 
" style="fill: none; stroke: #000000; stroke-width: 0.8; stroke-linejoin: miter; stroke-linecap: square"/>
   </g>
   <g id="patch_6">
    <path d="M 39.58149 18.118365 
L 373.50576 18.118365 
" style="fill: none; stroke: #000000; stroke-width: 0.8; stroke-linejoin: miter; stroke-linecap: square"/>
   </g>
   <g id="text_13">
    <!-- circulos_lo 1188 fkdc -->
    <g transform="translate(143.56425 12.118365) scale(0.12 -0.12)">
     <defs>
      <path id="DejaVuSans-63" d="M 3122 3366 
L 3122 2828 
Q 2878 2963 2633 3030 
Q 2388 3097 2138 3097 
Q 1578 3097 1268 2742 
Q 959 2388 959 1747 
Q 959 1106 1268 751 
Q 1578 397 2138 397 
Q 2388 397 2633 464 
Q 2878 531 3122 666 
L 3122 134 
Q 2881 22 2623 -34 
Q 2366 -91 2075 -91 
Q 1284 -91 818 406 
Q 353 903 353 1747 
Q 353 2603 823 3093 
Q 1294 3584 2113 3584 
Q 2378 3584 2631 3529 
Q 2884 3475 3122 3366 
z
" transform="scale(0.015625)"/>
      <path id="DejaVuSans-72" d="M 2631 2963 
Q 2534 3019 2420 3045 
Q 2306 3072 2169 3072 
Q 1681 3072 1420 2755 
Q 1159 2438 1159 1844 
L 1159 0 
L 581 0 
L 581 3500 
L 1159 3500 
L 1159 2956 
Q 1341 3275 1631 3429 
Q 1922 3584 2338 3584 
Q 2397 3584 2469 3576 
Q 2541 3569 2628 3553 
L 2631 2963 
z
" transform="scale(0.015625)"/>
      <path id="DejaVuSans-75" d="M 544 1381 
L 544 3500 
L 1119 3500 
L 1119 1403 
Q 1119 906 1312 657 
Q 1506 409 1894 409 
Q 2359 409 2629 706 
Q 2900 1003 2900 1516 
L 2900 3500 
L 3475 3500 
L 3475 0 
L 2900 0 
L 2900 538 
Q 2691 219 2414 64 
Q 2138 -91 1772 -91 
Q 1169 -91 856 284 
Q 544 659 544 1381 
z
M 1991 3584 
L 1991 3584 
z
" transform="scale(0.015625)"/>
      <path id="DejaVuSans-6f" d="M 1959 3097 
Q 1497 3097 1228 2736 
Q 959 2375 959 1747 
Q 959 1119 1226 758 
Q 1494 397 1959 397 
Q 2419 397 2687 759 
Q 2956 1122 2956 1747 
Q 2956 2369 2687 2733 
Q 2419 3097 1959 3097 
z
M 1959 3584 
Q 2709 3584 3137 3096 
Q 3566 2609 3566 1747 
Q 3566 888 3137 398 
Q 2709 -91 1959 -91 
Q 1206 -91 779 398 
Q 353 888 353 1747 
Q 353 2609 779 3096 
Q 1206 3584 1959 3584 
z
" transform="scale(0.015625)"/>
      <path id="DejaVuSans-73" d="M 2834 3397 
L 2834 2853 
Q 2591 2978 2328 3040 
Q 2066 3103 1784 3103 
Q 1356 3103 1142 2972 
Q 928 2841 928 2578 
Q 928 2378 1081 2264 
Q 1234 2150 1697 2047 
L 1894 2003 
Q 2506 1872 2764 1633 
Q 3022 1394 3022 966 
Q 3022 478 2636 193 
Q 2250 -91 1575 -91 
Q 1294 -91 989 -36 
Q 684 19 347 128 
L 347 722 
Q 666 556 975 473 
Q 1284 391 1588 391 
Q 1994 391 2212 530 
Q 2431 669 2431 922 
Q 2431 1156 2273 1281 
Q 2116 1406 1581 1522 
L 1381 1569 
Q 847 1681 609 1914 
Q 372 2147 372 2553 
Q 372 3047 722 3315 
Q 1072 3584 1716 3584 
Q 2034 3584 2315 3537 
Q 2597 3491 2834 3397 
z
" transform="scale(0.015625)"/>
      <path id="DejaVuSans-5f" d="M 3263 -1063 
L 3263 -1509 
L -63 -1509 
L -63 -1063 
L 3263 -1063 
z
" transform="scale(0.015625)"/>
      <path id="DejaVuSans-20" transform="scale(0.015625)"/>
      <path id="DejaVuSans-38" d="M 2034 2216 
Q 1584 2216 1326 1975 
Q 1069 1734 1069 1313 
Q 1069 891 1326 650 
Q 1584 409 2034 409 
Q 2484 409 2743 651 
Q 3003 894 3003 1313 
Q 3003 1734 2745 1975 
Q 2488 2216 2034 2216 
z
M 1403 2484 
Q 997 2584 770 2862 
Q 544 3141 544 3541 
Q 544 4100 942 4425 
Q 1341 4750 2034 4750 
Q 2731 4750 3128 4425 
Q 3525 4100 3525 3541 
Q 3525 3141 3298 2862 
Q 3072 2584 2669 2484 
Q 3125 2378 3379 2068 
Q 3634 1759 3634 1313 
Q 3634 634 3220 271 
Q 2806 -91 2034 -91 
Q 1263 -91 848 271 
Q 434 634 434 1313 
Q 434 1759 690 2068 
Q 947 2378 1403 2484 
z
M 1172 3481 
Q 1172 3119 1398 2916 
Q 1625 2713 2034 2713 
Q 2441 2713 2670 2916 
Q 2900 3119 2900 3481 
Q 2900 3844 2670 4047 
Q 2441 4250 2034 4250 
Q 1625 4250 1398 4047 
Q 1172 3844 1172 3481 
z
" transform="scale(0.015625)"/>
      <path id="DejaVuSans-66" d="M 2375 4863 
L 2375 4384 
L 1825 4384 
Q 1516 4384 1395 4259 
Q 1275 4134 1275 3809 
L 1275 3500 
L 2222 3500 
L 2222 3053 
L 1275 3053 
L 1275 0 
L 697 0 
L 697 3053 
L 147 3053 
L 147 3500 
L 697 3500 
L 697 3744 
Q 697 4328 969 4595 
Q 1241 4863 1831 4863 
L 2375 4863 
z
" transform="scale(0.015625)"/>
      <path id="DejaVuSans-6b" d="M 581 4863 
L 1159 4863 
L 1159 1991 
L 2875 3500 
L 3609 3500 
L 1753 1863 
L 3688 0 
L 2938 0 
L 1159 1709 
L 1159 0 
L 581 0 
L 581 4863 
z
" transform="scale(0.015625)"/>
     </defs>
     <use xlink:href="#DejaVuSans-63"/>
     <use xlink:href="#DejaVuSans-69" transform="translate(54.980469 0)"/>
     <use xlink:href="#DejaVuSans-72" transform="translate(82.763672 0)"/>
     <use xlink:href="#DejaVuSans-63" transform="translate(121.626953 0)"/>
     <use xlink:href="#DejaVuSans-75" transform="translate(176.607422 0)"/>
     <use xlink:href="#DejaVuSans-6c" transform="translate(239.986328 0)"/>
     <use xlink:href="#DejaVuSans-6f" transform="translate(267.769531 0)"/>
     <use xlink:href="#DejaVuSans-73" transform="translate(328.951172 0)"/>
     <use xlink:href="#DejaVuSans-5f" transform="translate(381.050781 0)"/>
     <use xlink:href="#DejaVuSans-6c" transform="translate(431.050781 0)"/>
     <use xlink:href="#DejaVuSans-6f" transform="translate(458.833984 0)"/>
     <use xlink:href="#DejaVuSans-20" transform="translate(520.015625 0)"/>
     <use xlink:href="#DejaVuSans-31" transform="translate(551.802734 0)"/>
     <use xlink:href="#DejaVuSans-31" transform="translate(615.425781 0)"/>
     <use xlink:href="#DejaVuSans-38" transform="translate(679.048828 0)"/>
     <use xlink:href="#DejaVuSans-38" transform="translate(742.671875 0)"/>
     <use xlink:href="#DejaVuSans-20" transform="translate(806.294922 0)"/>
     <use xlink:href="#DejaVuSans-66" transform="translate(838.082031 0)"/>
     <use xlink:href="#DejaVuSans-6b" transform="translate(873.287109 0)"/>
     <use xlink:href="#DejaVuSans-64" transform="translate(931.197266 0)"/>
     <use xlink:href="#DejaVuSans-63" transform="translate(994.673828 0)"/>
    </g>
   </g>
  </g>
  <g id="axes_2">
   <g id="patch_7">
    <path d="M 401.951973 312.24351 
L 416.658231 312.24351 
L 416.658231 18.118365 
L 401.951973 18.118365 
z
" style="fill: #ffffff"/>
   </g>
   <g id="QuadMesh_1">
    <path d="M 401.951973 312.24351 
L 416.658231 312.24351 
L 416.658231 294.942031 
L 401.951973 294.942031 
L 401.951973 312.24351 
" clip-path="url(#p362e1b9ab8)" style="fill: #460b5e"/>
    <path d="M 401.951973 294.942031 
L 416.658231 294.942031 
L 416.658231 277.640552 
L 401.951973 277.640552 
L 401.951973 294.942031 
" clip-path="url(#p362e1b9ab8)" style="fill: #482071"/>
    <path d="M 401.951973 277.640552 
L 416.658231 277.640552 
L 416.658231 260.339073 
L 401.951973 260.339073 
L 401.951973 277.640552 
" clip-path="url(#p362e1b9ab8)" style="fill: #46337f"/>
    <path d="M 401.951973 260.339073 
L 416.658231 260.339073 
L 416.658231 243.037594 
L 401.951973 243.037594 
L 401.951973 260.339073 
" clip-path="url(#p362e1b9ab8)" style="fill: #404588"/>
    <path d="M 401.951973 243.037594 
L 416.658231 243.037594 
L 416.658231 225.736114 
L 401.951973 225.736114 
L 401.951973 243.037594 
" clip-path="url(#p362e1b9ab8)" style="fill: #39558c"/>
    <path d="M 401.951973 225.736114 
L 416.658231 225.736114 
L 416.658231 208.434635 
L 401.951973 208.434635 
L 401.951973 225.736114 
" clip-path="url(#p362e1b9ab8)" style="fill: #32658e"/>
    <path d="M 401.951973 208.434635 
L 416.658231 208.434635 
L 416.658231 191.133156 
L 401.951973 191.133156 
L 401.951973 208.434635 
" clip-path="url(#p362e1b9ab8)" style="fill: #2c738e"/>
    <path d="M 401.951973 191.133156 
L 416.658231 191.133156 
L 416.658231 173.831677 
L 401.951973 173.831677 
L 401.951973 191.133156 
" clip-path="url(#p362e1b9ab8)" style="fill: #26828e"/>
    <path d="M 401.951973 173.831677 
L 416.658231 173.831677 
L 416.658231 156.530198 
L 401.951973 156.530198 
L 401.951973 173.831677 
" clip-path="url(#p362e1b9ab8)" style="fill: #21918c"/>
    <path d="M 401.951973 156.530198 
L 416.658231 156.530198 
L 416.658231 139.228719 
L 401.951973 139.228719 
L 401.951973 156.530198 
" clip-path="url(#p362e1b9ab8)" style="fill: #1f9f88"/>
    <path d="M 401.951973 139.228719 
L 416.658231 139.228719 
L 416.658231 121.92724 
L 401.951973 121.92724 
L 401.951973 139.228719 
" clip-path="url(#p362e1b9ab8)" style="fill: #26ad81"/>
    <path d="M 401.951973 121.92724 
L 416.658231 121.92724 
L 416.658231 104.625761 
L 401.951973 104.625761 
L 401.951973 121.92724 
" clip-path="url(#p362e1b9ab8)" style="fill: #3aba76"/>
    <path d="M 401.951973 104.625761 
L 416.658231 104.625761 
L 416.658231 87.324281 
L 401.951973 87.324281 
L 401.951973 104.625761 
" clip-path="url(#p362e1b9ab8)" style="fill: #56c667"/>
    <path d="M 401.951973 87.324281 
L 416.658231 87.324281 
L 416.658231 70.022802 
L 401.951973 70.022802 
L 401.951973 87.324281 
" clip-path="url(#p362e1b9ab8)" style="fill: #77d153"/>
    <path d="M 401.951973 70.022802 
L 416.658231 70.022802 
L 416.658231 52.721323 
L 401.951973 52.721323 
L 401.951973 70.022802 
" clip-path="url(#p362e1b9ab8)" style="fill: #9dd93b"/>
    <path d="M 401.951973 52.721323 
L 416.658231 52.721323 
L 416.658231 35.419844 
L 401.951973 35.419844 
L 401.951973 52.721323 
" clip-path="url(#p362e1b9ab8)" style="fill: #c5e021"/>
    <path d="M 401.951973 35.419844 
L 416.658231 35.419844 
L 416.658231 18.118365 
L 401.951973 18.118365 
L 401.951973 35.419844 
" clip-path="url(#p362e1b9ab8)" style="fill: #ece51b"/>
   </g>
   <g id="matplotlib.axis_3"/>
   <g id="matplotlib.axis_4">
    <g id="ytick_8">
     <g id="line2d_35">
      <defs>
       <path id="m0a27ea52cb" d="M 0 0 
L 3.5 0 
" style="stroke: #000000; stroke-width: 0.8"/>
      </defs>
      <g>
       <use xlink:href="#m0a27ea52cb" x="416.658231" y="294.942031" style="stroke: #000000; stroke-width: 0.8"/>
      </g>
     </g>
     <g id="text_14">
      <!-- -6.4 -->
      <g transform="translate(423.658231 298.74125) scale(0.1 -0.1)">
       <defs>
        <path id="DejaVuSans-2d" d="M 313 2009 
L 1997 2009 
L 1997 1497 
L 313 1497 
L 313 2009 
z
" transform="scale(0.015625)"/>
        <path id="DejaVuSans-36" d="M 2113 2584 
Q 1688 2584 1439 2293 
Q 1191 2003 1191 1497 
Q 1191 994 1439 701 
Q 1688 409 2113 409 
Q 2538 409 2786 701 
Q 3034 994 3034 1497 
Q 3034 2003 2786 2293 
Q 2538 2584 2113 2584 
z
M 3366 4563 
L 3366 3988 
Q 3128 4100 2886 4159 
Q 2644 4219 2406 4219 
Q 1781 4219 1451 3797 
Q 1122 3375 1075 2522 
Q 1259 2794 1537 2939 
Q 1816 3084 2150 3084 
Q 2853 3084 3261 2657 
Q 3669 2231 3669 1497 
Q 3669 778 3244 343 
Q 2819 -91 2113 -91 
Q 1303 -91 875 529 
Q 447 1150 447 2328 
Q 447 3434 972 4092 
Q 1497 4750 2381 4750 
Q 2619 4750 2861 4703 
Q 3103 4656 3366 4563 
z
" transform="scale(0.015625)"/>
       </defs>
       <use xlink:href="#DejaVuSans-2d"/>
       <use xlink:href="#DejaVuSans-36" transform="translate(36.083984 0)"/>
       <use xlink:href="#DejaVuSans-2e" transform="translate(99.707031 0)"/>
       <use xlink:href="#DejaVuSans-34" transform="translate(131.494141 0)"/>
      </g>
     </g>
    </g>
    <g id="ytick_9">
     <g id="line2d_36">
      <g>
       <use xlink:href="#m0a27ea52cb" x="416.658231" y="260.339073" style="stroke: #000000; stroke-width: 0.8"/>
      </g>
     </g>
     <g id="text_15">
      <!-- -5.6 -->
      <g transform="translate(423.658231 264.138291) scale(0.1 -0.1)">
       <use xlink:href="#DejaVuSans-2d"/>
       <use xlink:href="#DejaVuSans-35" transform="translate(36.083984 0)"/>
       <use xlink:href="#DejaVuSans-2e" transform="translate(99.707031 0)"/>
       <use xlink:href="#DejaVuSans-36" transform="translate(131.494141 0)"/>
      </g>
     </g>
    </g>
    <g id="ytick_10">
     <g id="line2d_37">
      <g>
       <use xlink:href="#m0a27ea52cb" x="416.658231" y="225.736114" style="stroke: #000000; stroke-width: 0.8"/>
      </g>
     </g>
     <g id="text_16">
      <!-- -4.8 -->
      <g transform="translate(423.658231 229.535333) scale(0.1 -0.1)">
       <use xlink:href="#DejaVuSans-2d"/>
       <use xlink:href="#DejaVuSans-34" transform="translate(36.083984 0)"/>
       <use xlink:href="#DejaVuSans-2e" transform="translate(99.707031 0)"/>
       <use xlink:href="#DejaVuSans-38" transform="translate(131.494141 0)"/>
      </g>
     </g>
    </g>
    <g id="ytick_11">
     <g id="line2d_38">
      <g>
       <use xlink:href="#m0a27ea52cb" x="416.658231" y="191.133156" style="stroke: #000000; stroke-width: 0.8"/>
      </g>
     </g>
     <g id="text_17">
      <!-- -4.0 -->
      <g transform="translate(423.658231 194.932375) scale(0.1 -0.1)">
       <use xlink:href="#DejaVuSans-2d"/>
       <use xlink:href="#DejaVuSans-34" transform="translate(36.083984 0)"/>
       <use xlink:href="#DejaVuSans-2e" transform="translate(99.707031 0)"/>
       <use xlink:href="#DejaVuSans-30" transform="translate(131.494141 0)"/>
      </g>
     </g>
    </g>
    <g id="ytick_12">
     <g id="line2d_39">
      <g>
       <use xlink:href="#m0a27ea52cb" x="416.658231" y="156.530198" style="stroke: #000000; stroke-width: 0.8"/>
      </g>
     </g>
     <g id="text_18">
      <!-- -3.2 -->
      <g transform="translate(423.658231 160.329417) scale(0.1 -0.1)">
       <use xlink:href="#DejaVuSans-2d"/>
       <use xlink:href="#DejaVuSans-33" transform="translate(36.083984 0)"/>
       <use xlink:href="#DejaVuSans-2e" transform="translate(99.707031 0)"/>
       <use xlink:href="#DejaVuSans-32" transform="translate(131.494141 0)"/>
      </g>
     </g>
    </g>
    <g id="ytick_13">
     <g id="line2d_40">
      <g>
       <use xlink:href="#m0a27ea52cb" x="416.658231" y="121.92724" style="stroke: #000000; stroke-width: 0.8"/>
      </g>
     </g>
     <g id="text_19">
      <!-- -2.4 -->
      <g transform="translate(423.658231 125.726458) scale(0.1 -0.1)">
       <use xlink:href="#DejaVuSans-2d"/>
       <use xlink:href="#DejaVuSans-32" transform="translate(36.083984 0)"/>
       <use xlink:href="#DejaVuSans-2e" transform="translate(99.707031 0)"/>
       <use xlink:href="#DejaVuSans-34" transform="translate(131.494141 0)"/>
      </g>
     </g>
    </g>
    <g id="ytick_14">
     <g id="line2d_41">
      <g>
       <use xlink:href="#m0a27ea52cb" x="416.658231" y="87.324281" style="stroke: #000000; stroke-width: 0.8"/>
      </g>
     </g>
     <g id="text_20">
      <!-- -1.6 -->
      <g transform="translate(423.658231 91.1235) scale(0.1 -0.1)">
       <use xlink:href="#DejaVuSans-2d"/>
       <use xlink:href="#DejaVuSans-31" transform="translate(36.083984 0)"/>
       <use xlink:href="#DejaVuSans-2e" transform="translate(99.707031 0)"/>
       <use xlink:href="#DejaVuSans-36" transform="translate(131.494141 0)"/>
      </g>
     </g>
    </g>
    <g id="ytick_15">
     <g id="line2d_42">
      <g>
       <use xlink:href="#m0a27ea52cb" x="416.658231" y="52.721323" style="stroke: #000000; stroke-width: 0.8"/>
      </g>
     </g>
     <g id="text_21">
      <!-- -0.8 -->
      <g transform="translate(423.658231 56.520542) scale(0.1 -0.1)">
       <use xlink:href="#DejaVuSans-2d"/>
       <use xlink:href="#DejaVuSans-30" transform="translate(36.083984 0)"/>
       <use xlink:href="#DejaVuSans-2e" transform="translate(99.707031 0)"/>
       <use xlink:href="#DejaVuSans-38" transform="translate(131.494141 0)"/>
      </g>
     </g>
    </g>
    <g id="ytick_16">
     <g id="line2d_43">
      <g>
       <use xlink:href="#m0a27ea52cb" x="416.658231" y="18.118365" style="stroke: #000000; stroke-width: 0.8"/>
      </g>
     </g>
     <g id="text_22">
      <!-- 0.0 -->
      <g transform="translate(423.658231 21.917584) scale(0.1 -0.1)">
       <use xlink:href="#DejaVuSans-30"/>
       <use xlink:href="#DejaVuSans-2e" transform="translate(63.623047 0)"/>
       <use xlink:href="#DejaVuSans-30" transform="translate(95.410156 0)"/>
      </g>
     </g>
    </g>
    <g id="text_23">
     <!-- Score -->
     <g transform="translate(454.767606 179.183281) rotate(-90) scale(0.1 -0.1)">
      <defs>
       <path id="DejaVuSans-53" d="M 3425 4513 
L 3425 3897 
Q 3066 4069 2747 4153 
Q 2428 4238 2131 4238 
Q 1616 4238 1336 4038 
Q 1056 3838 1056 3469 
Q 1056 3159 1242 3001 
Q 1428 2844 1947 2747 
L 2328 2669 
Q 3034 2534 3370 2195 
Q 3706 1856 3706 1288 
Q 3706 609 3251 259 
Q 2797 -91 1919 -91 
Q 1588 -91 1214 -16 
Q 841 59 441 206 
L 441 856 
Q 825 641 1194 531 
Q 1563 422 1919 422 
Q 2459 422 2753 634 
Q 3047 847 3047 1241 
Q 3047 1584 2836 1778 
Q 2625 1972 2144 2069 
L 1759 2144 
Q 1053 2284 737 2584 
Q 422 2884 422 3419 
Q 422 4038 858 4394 
Q 1294 4750 2059 4750 
Q 2388 4750 2728 4690 
Q 3069 4631 3425 4513 
z
" transform="scale(0.015625)"/>
       <path id="DejaVuSans-65" d="M 3597 1894 
L 3597 1613 
L 953 1613 
Q 991 1019 1311 708 
Q 1631 397 2203 397 
Q 2534 397 2845 478 
Q 3156 559 3463 722 
L 3463 178 
Q 3153 47 2828 -22 
Q 2503 -91 2169 -91 
Q 1331 -91 842 396 
Q 353 884 353 1716 
Q 353 2575 817 3079 
Q 1281 3584 2069 3584 
Q 2775 3584 3186 3129 
Q 3597 2675 3597 1894 
z
M 3022 2063 
Q 3016 2534 2758 2815 
Q 2500 3097 2075 3097 
Q 1594 3097 1305 2825 
Q 1016 2553 972 2059 
L 3022 2063 
z
" transform="scale(0.015625)"/>
      </defs>
      <use xlink:href="#DejaVuSans-53"/>
      <use xlink:href="#DejaVuSans-63" transform="translate(63.476562 0)"/>
      <use xlink:href="#DejaVuSans-6f" transform="translate(118.457031 0)"/>
      <use xlink:href="#DejaVuSans-72" transform="translate(179.638672 0)"/>
      <use xlink:href="#DejaVuSans-65" transform="translate(218.501953 0)"/>
     </g>
    </g>
   </g>
   <g id="LineCollection_1"/>
   <g id="patch_8">
    <path d="M 401.951973 312.24351 
L 409.305102 312.24351 
L 416.658231 312.24351 
L 416.658231 18.118365 
L 409.305102 18.118365 
L 401.951973 18.118365 
L 401.951973 312.24351 
z
" style="fill: none; stroke: #000000; stroke-width: 0.8; stroke-linejoin: miter; stroke-linecap: square"/>
   </g>
  </g>
 </g>
 <defs>
  <clipPath id="p3174c6168d">
   <rect x="39.58149" y="18.118365" width="333.92427" height="294.125145"/>
  </clipPath>
  <clipPath id="p362e1b9ab8">
   <rect x="401.951973" y="18.118365" width="14.706257" height="294.125145"/>
  </clipPath>
 </defs>
</svg>
