<?xml version="1.0" encoding="utf-8" standalone="no"?>
<!DOCTYPE svg PUBLIC "-//W3C//DTD SVG 1.1//EN"
  "http://www.w3.org/Graphics/SVG/1.1/DTD/svg11.dtd">
<svg xmlns:xlink="http://www.w3.org/1999/xlink" width="460.8pt" height="345.6pt" viewBox="0 0 460.8 345.6" xmlns="http://www.w3.org/2000/svg" version="1.1">
 <metadata>
  <rdf:RDF xmlns:dc="http://purl.org/dc/elements/1.1/" xmlns:cc="http://creativecommons.org/ns#" xmlns:rdf="http://www.w3.org/1999/02/22-rdf-syntax-ns#">
   <cc:Work>
    <dc:type rdf:resource="http://purl.org/dc/dcmitype/StillImage"/>
    <dc:date>2025-11-23T18:47:04.917778</dc:date>
    <dc:format>image/svg+xml</dc:format>
    <dc:creator>
     <cc:Agent>
      <dc:title>Matplotlib v3.10.7, https://matplotlib.org/</dc:title>
     </cc:Agent>
    </dc:creator>
   </cc:Work>
  </rdf:RDF>
 </metadata>
 <defs>
  <style type="text/css">*{stroke-linejoin: round; stroke-linecap: butt}</style>
 </defs>
 <g id="figure_1">
  <g id="patch_1">
   <path d="M 0 345.6 
L 460.8 345.6 
L 460.8 0 
L 0 0 
z
" style="fill: #ffffff"/>
  </g>
  <g id="axes_1">
   <g id="patch_2">
    <path d="M 39.58149 312.24351 
L 368.972479 312.24351 
L 368.972479 18.118365 
L 39.58149 18.118365 
z
" style="fill: #ffffff"/>
   </g>
   <g id="QuadContourSet_1">
    <path d="M 159.360031 295.102017 
L 167.182377 287.733081 
L 159.360031 283.519281 
L 137.862488 287.733081 
z
M 189.304667 312.24351 
L 199.588127 312.24351 
L 189.304667 306.353359 
L 180.911087 312.24351 
z
M 99.470761 264.890122 
L 129.415396 278.688116 
L 133.095039 263.222652 
L 129.415396 261.278771 
L 99.470761 239.226007 
L 97.143386 263.222652 
z
M 69.526125 240.812617 
L 98.904282 238.712224 
L 69.526125 226.361685 
L 66.949647 238.712224 
z
M 39.58149 216.20615 
L 54.341594 214.201795 
L 39.58149 207.72385 
L 37.104296 214.201795 
z
M 9.636855 191.661389 
L 17.473685 189.691366 
L 9.636855 186.536328 
L 6.700806 189.691366 
z
" clip-path="url(#p7aa03e9f04)" style="fill: #460b5e"/>
    <path d="M 129.415396 289.983786 
L 159.360031 310.241547 
L 162.388589 312.24351 
L 180.911087 312.24351 
L 189.304667 306.353359 
L 199.588127 312.24351 
L 213.510751 312.24351 
L 189.304667 296.27611 
L 180.300995 287.733081 
L 159.360031 274.861999 
L 145.943223 263.222652 
L 129.415396 253.304114 
L 112.038187 238.712224 
L 99.470761 231.291493 
L 77.513868 214.201795 
L 69.526125 209.681999 
L 42.575122 189.691366 
L 39.58149 188.056502 
L 9.636855 171.116434 
L 2.537388 165.180938 
L -20.307781 153.205032 
L -33.875264 140.670509 
L -50.252416 131.589062 
L -69.926406 116.16008 
L -80.197051 110.634786 
L -106.564971 91.649651 
L -110.141687 89.783534 
L -110.141687 91.649651 
L -110.141687 116.16008 
L -110.141687 120.270533 
L -81.056607 140.670509 
L -80.197051 141.478782 
L -50.252416 161.38485 
L -44.577634 165.180938 
L -20.307781 182.008594 
L -10.661935 189.691366 
L 9.636855 201.289653 
L 27.082591 214.201795 
L 39.58149 223.407462 
L 59.651385 238.712224 
L 69.526125 246.22744 
L 91.689661 263.222652 
L 99.470761 268.517279 
L 126.143135 287.733081 
z
M 137.862488 287.733081 
L 159.360031 283.519281 
L 167.182377 287.733081 
L 159.360031 295.102017 
z
M 97.143386 263.222652 
L 99.470761 239.226007 
L 129.415396 261.278771 
L 133.095039 263.222652 
L 129.415396 278.688116 
L 99.470761 264.890122 
z
M 66.949647 238.712224 
L 69.526125 226.361685 
L 98.904282 238.712224 
L 69.526125 240.812617 
z
M 37.104296 214.201795 
L 39.58149 207.72385 
L 54.341594 214.201795 
L 39.58149 216.20615 
z
M 6.700806 189.691366 
L 9.636855 186.536328 
L 17.473685 189.691366 
L 9.636855 191.661389 
z
" clip-path="url(#p7aa03e9f04)" style="fill: #482071"/>
    <path d="M 129.415396 292.608702 
L 156.93792 312.24351 
L 159.360031 312.24351 
L 162.388589 312.24351 
L 159.360031 310.241547 
L 129.415396 289.983786 
L 126.143135 287.733081 
L 99.470761 268.517279 
L 91.689661 263.222652 
L 69.526125 246.22744 
L 59.651385 238.712224 
L 39.58149 223.407462 
L 27.082591 214.201795 
L 9.636855 201.289653 
L -10.661935 189.691366 
L -20.307781 182.008594 
L -44.577634 165.180938 
L -50.252416 161.38485 
L -80.197051 141.478782 
L -81.056607 140.670509 
L -110.141687 120.270533 
L -110.141687 128.470512 
L -90.884572 140.670509 
L -80.197051 149.830484 
L -57.915818 165.180938 
L -50.252416 170.464518 
L -24.041368 189.691366 
L -20.307781 192.566285 
L 9.636855 210.917916 
L 14.658055 214.201795 
L 39.58149 230.608773 
L 51.15943 238.712224 
L 69.526125 251.642264 
L 85.596468 263.222652 
L 99.470761 272.144435 
L 122.047113 287.733081 
z
M 189.304667 296.27611 
L 213.510751 312.24351 
L 219.249302 312.24351 
L 223.112478 312.24351 
L 219.249302 309.806018 
L 190.597104 287.733081 
L 189.304667 286.967643 
L 159.360031 266.204717 
L 156.238266 263.222652 
L 129.415396 245.329458 
L 122.243787 238.712224 
L 99.470761 223.796995 
L 88.295193 214.201795 
L 69.526125 202.369489 
L 54.112658 189.691366 
L 39.58149 180.797372 
L 17.939206 165.180938 
L 9.636855 160.445192 
L -19.984238 140.670509 
L -20.307781 140.498322 
L -50.252416 121.357007 
L -56.085277 116.16008 
L -80.197051 101.23418 
L -91.853104 91.649651 
L -110.141687 80.603876 
L -110.141687 89.783534 
L -106.564971 91.649651 
L -80.197051 110.634786 
L -69.926406 116.16008 
L -50.252416 131.589062 
L -33.875264 140.670509 
L -20.307781 153.205032 
L 2.537388 165.180938 
L 9.636855 171.116434 
L 39.58149 188.056502 
L 42.575122 189.691366 
L 69.526125 209.681999 
L 77.513868 214.201795 
L 99.470761 231.291493 
L 112.038187 238.712224 
L 129.415396 253.304114 
L 145.943223 263.222652 
L 159.360031 274.861999 
L 180.300995 287.733081 
z
" clip-path="url(#p7aa03e9f04)" style="fill: #46337f"/>
    <path d="M 129.415396 295.233617 
L 153.99925 312.24351 
L 156.93792 312.24351 
L 129.415396 292.608702 
L 122.047113 287.733081 
L 99.470761 272.144435 
L 85.596468 263.222652 
L 69.526125 251.642264 
L 51.15943 238.712224 
L 39.58149 230.608773 
L 14.658055 214.201795 
L 9.636855 210.917916 
L -20.307781 192.566285 
L -24.041368 189.691366 
L -50.252416 170.464518 
L -57.915818 165.180938 
L -80.197051 149.830484 
L -90.884572 140.670509 
L -110.141687 128.470512 
L -110.141687 136.67049 
L -103.012236 140.670509 
L -80.197051 158.182187 
L -68.848755 165.180938 
L -50.252416 176.77441 
L -31.279608 189.691366 
L -20.307781 197.584957 
L 5.713745 214.201795 
L 9.636855 216.771453 
L 39.58149 237.810085 
L 41.005469 238.712224 
L 69.526125 257.057088 
L 78.693678 263.222652 
L 99.470761 275.771592 
L 117.600789 287.733081 
z
M 219.249302 309.806018 
L 223.112478 312.24351 
L 230.028943 312.24351 
L 219.249302 304.963165 
L 198.370769 287.733081 
L 189.304667 281.939994 
L 165.093639 263.222652 
L 159.360031 259.722864 
L 131.067359 238.712224 
L 129.415396 237.747541 
L 99.470761 216.302497 
L 97.221079 214.201795 
L 69.526125 195.05698 
L 63.550016 189.691366 
L 39.58149 173.538241 
L 29.12221 165.180938 
L 9.636855 152.745738 
L -6.386827 140.670509 
L -20.307781 132.202309 
L -42.626933 116.16008 
L -50.252416 111.810874 
L -80.197051 91.833574 
L -80.397824 91.649651 
L -110.141687 71.424218 
L -110.141687 80.603876 
L -91.853104 91.649651 
L -80.197051 101.23418 
L -56.085277 116.16008 
L -50.252416 121.357007 
L -20.307781 140.498322 
L -19.984238 140.670509 
L 9.636855 160.445192 
L 17.939206 165.180938 
L 39.58149 180.797372 
L 54.112658 189.691366 
L 69.526125 202.369489 
L 88.295193 214.201795 
L 99.470761 223.796995 
L 122.243787 238.712224 
L 129.415396 245.329458 
L 156.238266 263.222652 
L 159.360031 266.204717 
L 189.304667 286.967643 
L 190.597104 287.733081 
z
" clip-path="url(#p7aa03e9f04)" style="fill: #404588"/>
    <path d="M 129.415396 297.858533 
L 150.884576 312.24351 
L 153.99925 312.24351 
L 129.415396 295.233617 
L 117.600789 287.733081 
L 99.470761 275.771592 
L 78.693678 263.222652 
L 69.526125 257.057088 
L 41.005469 238.712224 
L 39.58149 237.810085 
L 9.636855 216.771453 
L 5.713745 214.201795 
L -20.307781 197.584957 
L -31.279608 189.691366 
L -50.252416 176.77441 
L -68.848755 165.180938 
L -80.197051 158.182187 
L -103.012236 140.670509 
L -110.141687 136.67049 
L -110.141687 140.670509 
L -110.141687 143.732104 
L -81.18989 165.180938 
L -80.197051 165.881896 
L -50.252416 183.084303 
L -39.690364 189.691366 
L -20.307781 202.603629 
L -0.869815 214.201795 
L 9.636855 220.671175 
L 35.829157 238.712224 
L 39.58149 241.926191 
L 69.526125 262.471912 
L 70.732701 263.222652 
L 99.470761 279.398749 
L 112.738593 287.733081 
z
M 219.249302 304.963165 
L 230.028943 312.24351 
L 236.132786 312.24351 
L 219.249302 300.120313 
L 205.132356 287.733081 
L 189.304667 276.912345 
L 172.778537 263.222652 
L 159.360031 254.384097 
L 139.837294 238.712224 
L 129.415396 232.080172 
L 106.49507 214.201795 
L 99.470761 209.903375 
L 72.398154 189.691366 
L 69.526125 188.008877 
L 39.58149 166.27911 
L 38.321328 165.180938 
L 9.636855 145.046283 
L 4.382775 140.670509 
L -20.307781 123.906296 
L -29.904065 116.16008 
L -50.252416 102.972703 
L -65.073784 91.649651 
L -80.197051 82.372562 
L -100.934096 67.139222 
L -110.141687 61.750284 
L -110.141687 67.139223 
L -110.141687 71.424218 
L -80.397824 91.649651 
L -80.197051 91.833574 
L -50.252416 111.810874 
L -42.626933 116.16008 
L -20.307781 132.202309 
L -6.386827 140.670509 
L 9.636855 152.745738 
L 29.12221 165.180938 
L 39.58149 173.538241 
L 63.550016 189.691366 
L 69.526125 195.05698 
L 97.221079 214.201795 
L 99.470761 216.302497 
L 129.415396 237.747541 
L 131.067359 238.712224 
L 159.360031 259.722864 
L 165.093639 263.222652 
L 189.304667 281.939994 
L 198.370769 287.733081 
z
" clip-path="url(#p7aa03e9f04)" style="fill: #39558c"/>
    <path d="M 129.415396 300.483449 
L 147.571464 312.24351 
L 150.884576 312.24351 
L 129.415396 297.858533 
L 112.738593 287.733081 
L 99.470761 279.398749 
L 70.732701 263.222652 
L 69.526125 262.471912 
L 39.58149 241.926191 
L 35.829157 238.712224 
L 9.636855 220.671175 
L -0.869815 214.201795 
L -20.307781 202.603629 
L -39.690364 189.691366 
L -50.252416 183.084303 
L -80.197051 165.881896 
L -81.18989 165.180938 
L -110.141687 143.732104 
L -110.141687 149.709546 
L -87.777559 165.180938 
L -80.197051 170.208878 
L -50.252416 189.394195 
L -49.728342 189.691366 
L -20.307781 207.622302 
L -8.408995 214.201795 
L 9.636855 224.570898 
L 31.17915 238.712224 
L 39.58149 245.600448 
L 65.939008 263.222652 
L 69.526125 266.030394 
L 99.470761 283.025905 
L 107.374628 287.733081 
z
M 219.249302 300.120313 
L 236.132786 312.24351 
L 241.595039 312.24351 
L 219.249302 295.27746 
L 211.115296 287.733081 
L 189.304667 271.884696 
L 179.472897 263.222652 
L 159.360031 249.045331 
L 147.339811 238.712224 
L 129.415396 226.412804 
L 114.906575 214.201795 
L 99.470761 203.930866 
L 81.958212 189.691366 
L 69.526125 181.689476 
L 48.667457 165.180938 
L 39.58149 159.53583 
L 14.727274 140.670509 
L 9.636855 137.620407 
L -19.450364 116.16008 
L -20.307781 115.665095 
L -50.252416 94.134532 
L -53.162598 91.649651 
L -80.197051 72.910345 
L -87.116714 67.139223 
L -110.141687 51.64364 
L -110.141687 61.750284 
L -100.934096 67.139223 
L -80.197051 82.372562 
L -65.073784 91.649651 
L -50.252416 102.972703 
L -29.904065 116.16008 
L -20.307781 123.906296 
L 4.382775 140.670509 
L 9.636855 145.046283 
L 38.321328 165.180938 
L 39.58149 166.27911 
L 69.526125 188.008877 
L 72.398154 189.691366 
L 99.470761 209.903375 
L 106.49507 214.201795 
L 129.415396 232.080172 
L 139.837294 238.712224 
L 159.360031 254.384097 
L 172.778537 263.222652 
L 189.304667 276.912345 
L 205.132356 287.733081 
z
" clip-path="url(#p7aa03e9f04)" style="fill: #32658e"/>
    <path d="M 129.415396 303.108365 
L 144.032899 312.24351 
L 147.571464 312.24351 
L 129.415396 300.483449 
L 107.374628 287.733081 
L 99.470761 283.025905 
L 69.526125 266.030394 
L 65.939008 263.222652 
L 39.58149 245.600448 
L 31.17915 238.712224 
L 9.636855 224.570898 
L -8.408995 214.201795 
L -20.307781 207.622302 
L -49.728342 189.691366 
L -50.252416 189.394195 
L -80.197051 170.208878 
L -87.777559 165.180938 
L -110.141687 149.709546 
L -110.141687 155.686988 
L -95.322131 165.180938 
L -80.197051 174.53586 
L -55.364775 189.691366 
L -50.252416 194.14418 
L -20.307781 212.640974 
L -17.2291 214.201795 
L 9.636855 228.47062 
L 26.072308 238.712224 
L 39.58149 249.274705 
L 61.438354 263.222652 
L 69.526125 269.290076 
L 99.470761 286.653062 
L 101.393286 287.733081 
z
M 219.249302 295.27746 
L 241.595039 312.24351 
L 246.537843 312.24351 
L 219.249302 290.434607 
L 216.480546 287.733081 
L 189.304667 266.857047 
L 185.403156 263.222652 
L 159.360031 243.706564 
L 153.895408 238.712224 
L 129.415396 220.745435 
L 122.14537 214.201795 
L 99.470761 197.958356 
L 90.031108 189.691366 
L 69.526125 175.370075 
L 57.665134 165.180938 
L 39.58149 152.884497 
L 24.898392 140.670509 
L 9.636855 130.554709 
L -7.981263 116.16008 
L -20.307781 108.196149 
L -41.17429 91.649651 
L -50.252416 85.973257 
L -74.796603 67.139223 
L -80.197051 63.871125 
L -108.513034 42.628794 
L -110.141687 41.673787 
L -110.141687 42.628794 
L -110.141687 51.64364 
L -87.116714 67.139223 
L -80.197051 72.910345 
L -53.162598 91.649651 
L -50.252416 94.134532 
L -20.307781 115.665095 
L -19.450364 116.16008 
L 9.636855 137.620407 
L 14.727274 140.670509 
L 39.58149 159.53583 
L 48.667457 165.180938 
L 69.526125 181.689476 
L 81.958212 189.691366 
L 99.470761 203.930866 
L 114.906575 214.201795 
L 129.415396 226.412804 
L 147.339811 238.712224 
L 159.360031 249.045331 
L 179.472897 263.222652 
L 189.304667 271.884696 
L 211.115296 287.733081 
z
" clip-path="url(#p7aa03e9f04)" style="fill: #2c738e"/>
    <path d="M 99.470761 290.159294 
L 129.415396 305.733281 
L 140.235942 312.24351 
L 144.032899 312.24351 
L 129.415396 303.108365 
L 101.393286 287.733081 
L 99.470761 286.653062 
L 69.526125 269.290076 
L 61.438354 263.222652 
L 39.58149 249.274705 
L 26.072308 238.712224 
L 9.636855 228.47062 
L -17.2291 214.201795 
L -20.307781 212.640974 
L -50.252416 194.14418 
L -55.364775 189.691366 
L -80.197051 174.53586 
L -95.322131 165.180938 
L -110.141687 155.686988 
L -110.141687 161.664431 
L -104.149621 165.180938 
L -80.197051 178.862842 
L -61.331808 189.691366 
L -50.252416 198.817069 
L -24.404897 214.201795 
L -20.307781 217.357094 
L 9.636855 232.370343 
L 20.40899 238.712224 
L 39.58149 252.948962 
L 56.511109 263.222652 
L 69.526125 272.549758 
L 96.399149 287.733081 
z
M 219.249302 290.434607 
L 246.537843 312.24351 
L 249.193937 312.24351 
L 252.333076 312.24351 
L 249.193937 310.145053 
L 222.745544 287.733081 
L 219.249302 285.470058 
L 191.676122 263.222652 
L 189.304667 261.725511 
L 159.960562 238.712224 
L 159.360031 238.341145 
L 129.415396 215.078066 
L 128.498793 214.201795 
L 99.470761 191.985846 
L 97.017842 189.691366 
L 69.526125 169.050674 
L 65.333589 165.180938 
L 39.58149 146.233165 
L 33.402332 140.670509 
L 9.636855 123.489011 
L 1.410319 116.16008 
L -20.307781 100.727202 
L -30.712361 91.649651 
L -50.252416 78.076726 
L -63.072983 67.139223 
L -80.197051 55.493269 
L -95.455377 42.628794 
L -110.141687 32.833405 
L -110.141687 41.673787 
L -108.513034 42.628794 
L -80.197051 63.871125 
L -74.796603 67.139223 
L -50.252416 85.973257 
L -41.17429 91.649651 
L -20.307781 108.196149 
L -7.981263 116.16008 
L 9.636855 130.554709 
L 24.898392 140.670509 
L 39.58149 152.884497 
L 57.665134 165.180938 
L 69.526125 175.370075 
L 90.031108 189.691366 
L 99.470761 197.958356 
L 122.14537 214.201795 
L 129.415396 220.745435 
L 153.895408 238.712224 
L 159.360031 243.706564 
L 185.403156 263.222652 
L 189.304667 266.857047 
L 216.480546 287.733081 
z
" clip-path="url(#p7aa03e9f04)" style="fill: #26828e"/>
    <path d="M 99.470761 293.614254 
L 129.415396 308.358197 
L 136.139862 312.24351 
L 140.235942 312.24351 
L 129.415396 305.733281 
L 99.470761 290.159294 
L 96.399149 287.733081 
L 69.526125 272.549758 
L 56.511109 263.222652 
L 39.58149 252.948962 
L 20.40899 238.712224 
L 9.636855 232.370343 
L -20.307781 217.357094 
L -24.404897 214.201795 
L -50.252416 198.817069 
L -61.331808 189.691366 
L -80.197051 178.862842 
L -104.149621 165.180938 
L -110.141687 161.664431 
L -110.141687 165.180938 
L -110.141687 167.660609 
L -80.197051 183.189824 
L -68.073079 189.691366 
L -50.252416 203.489957 
L -30.991812 214.201795 
L -20.307781 221.936646 
L 9.636855 236.270066 
L 14.052919 238.712224 
L 39.58149 256.623219 
L 51.067853 263.222652 
L 69.526125 275.809439 
L 91.686225 287.733081 
z
M 249.193937 310.145053 
L 252.333076 312.24351 
L 259.09185 312.24351 
L 249.193937 305.173242 
L 229.880369 287.733081 
L 219.249302 280.351974 
L 199.433307 263.222652 
L 189.304667 256.322976 
L 168.478489 238.712224 
L 159.360031 232.589252 
L 137.26019 214.201795 
L 129.415396 209.019171 
L 105.698444 189.691366 
L 99.470761 185.703191 
L 73.761587 165.180938 
L 69.526125 162.514359 
L 41.529092 140.670509 
L 39.58149 139.470908 
L 9.636855 116.423313 
L 9.362842 116.16008 
L -20.307781 93.258256 
L -22.006287 91.649651 
L -50.252416 70.180196 
L -53.511658 67.139223 
L -80.197051 47.115414 
L -85.026528 42.628794 
L -110.141687 23.993022 
L -110.141687 32.833405 
L -95.455377 42.628794 
L -80.197051 55.493269 
L -63.072983 67.139223 
L -50.252416 78.076726 
L -30.712361 91.649651 
L -20.307781 100.727202 
L 1.410319 116.16008 
L 9.636855 123.489011 
L 33.402332 140.670509 
L 39.58149 146.233165 
L 65.333589 165.180938 
L 69.526125 169.050674 
L 97.017842 189.691366 
L 99.470761 191.985846 
L 128.498793 214.201795 
L 129.415396 215.078066 
L 159.360031 238.341145 
L 159.960562 238.712224 
L 189.304667 261.725511 
L 191.676122 263.222652 
L 219.249302 285.470058 
L 222.745544 287.733081 
z
" clip-path="url(#p7aa03e9f04)" style="fill: #21918c"/>
    <path d="M 99.470761 297.069213 
L 129.415396 310.983113 
L 131.69347 312.24351 
L 136.139862 312.24351 
L 129.415396 308.358197 
L 99.470761 293.614254 
L 91.686225 287.733081 
L 69.526125 275.809439 
L 51.067853 263.222652 
L 39.58149 256.623219 
L 14.052919 238.712224 
L 9.636855 236.270066 
L -20.307781 221.936646 
L -30.991812 214.201795 
L -50.252416 203.489957 
L -68.073079 189.691366 
L -80.197051 183.189824 
L -110.141687 167.660609 
L -110.141687 173.68356 
L -80.197051 187.516807 
L -75.819892 189.691366 
L -50.252416 208.162846 
L -38.535394 214.201795 
L -20.307781 226.516199 
L 6.756613 238.712224 
L 9.636855 240.692747 
L 39.58149 260.297476 
L 44.987727 263.222652 
L 69.526125 279.069121 
L 86.503383 287.733081 
z
M 249.193937 305.173242 
L 259.09185 312.24351 
L 265.072588 312.24351 
L 249.193937 300.20143 
L 236.153587 287.733081 
L 219.249302 275.233891 
L 206.182428 263.222652 
L 189.304667 250.920441 
L 175.795915 238.712224 
L 159.360031 226.837359 
L 145.230864 214.201795 
L 129.415396 202.888668 
L 114.450024 189.691366 
L 99.470761 179.227055 
L 83.320256 165.180938 
L 69.526125 155.635385 
L 52.065236 140.670509 
L 39.58149 132.14187 
L 20.758376 116.16008 
L 9.636855 108.634357 
L -10.543295 91.649651 
L -20.307781 85.177261 
L -42.048863 67.139223 
L -50.252416 61.777674 
L -73.570022 42.628794 
L -80.197051 38.370505 
L -105.060315 18.118365 
L -110.141687 18.118365 
L -110.141687 23.993022 
L -85.026528 42.628794 
L -80.197051 47.115414 
L -53.511658 67.139223 
L -50.252416 70.180196 
L -22.006287 91.649651 
L -20.307781 93.258256 
L 9.362842 116.16008 
L 9.636855 116.423313 
L 39.58149 139.470908 
L 41.529092 140.670509 
L 69.526125 162.514359 
L 73.761587 165.180938 
L 99.470761 185.703191 
L 105.698444 189.691366 
L 129.415396 209.019171 
L 137.26019 214.201795 
L 159.360031 232.589252 
L 168.478489 238.712224 
L 189.304667 256.322976 
L 199.433307 263.222652 
L 219.249302 280.351974 
L 229.880369 287.733081 
z
" clip-path="url(#p7aa03e9f04)" style="fill: #1f9f88"/>
    <path d="M 99.470761 300.524172 
L 126.29848 312.24351 
L 129.415396 312.24351 
L 131.69347 312.24351 
L 129.415396 310.983113 
L 99.470761 297.069213 
L 86.503383 287.733081 
L 69.526125 279.069121 
L 44.987727 263.222652 
L 39.58149 260.297476 
L 9.636855 240.692747 
L 6.756613 238.712224 
L -20.307781 226.516199 
L -38.535394 214.201795 
L -50.252416 208.162846 
L -75.819892 189.691366 
L -80.197051 187.516807 
L -110.141687 173.68356 
L -110.141687 179.706511 
L -85.73646 189.691366 
L -80.197051 193.466287 
L -50.252416 212.835735 
L -47.361529 214.201795 
L -20.307781 231.095751 
L -1.839515 238.712224 
L 9.636855 245.99165 
L 38.220695 263.222652 
L 39.58149 264.350133 
L 69.526125 282.328803 
L 80.74643 287.733081 
z
M 249.193937 300.20143 
L 265.072588 312.24351 
L 270.436067 312.24351 
L 249.193937 295.229619 
L 241.751052 287.733081 
L 219.249302 270.115807 
L 212.155609 263.222652 
L 189.304667 245.517906 
L 182.209808 238.712224 
L 159.360031 221.085466 
L 152.140939 214.201795 
L 129.415396 196.758164 
L 121.939112 189.691366 
L 99.470761 172.750919 
L 91.392162 165.180938 
L 69.526125 148.756411 
L 60.822589 140.670509 
L 39.58149 124.812833 
L 30.239817 116.16008 
L 9.636855 100.817414 
L -0.279382 91.649651 
L -20.307781 76.928266 
L -30.973639 67.139223 
L -50.252416 53.058255 
L -61.649782 42.628794 
L -80.197051 29.202382 
L -92.324309 18.118365 
L -105.060315 18.118365 
L -80.197051 38.370505 
L -73.570022 42.628794 
L -50.252416 61.777674 
L -42.048863 67.139223 
L -20.307781 85.177261 
L -10.543295 91.649651 
L 9.636855 108.634357 
L 20.758376 116.16008 
L 39.58149 132.14187 
L 52.065236 140.670509 
L 69.526125 155.635385 
L 83.320256 165.180938 
L 99.470761 179.227055 
L 114.450024 189.691366 
L 129.415396 202.888668 
L 145.230864 214.201795 
L 159.360031 226.837359 
L 175.795915 238.712224 
L 189.304667 250.920441 
L 206.182428 263.222652 
L 219.249302 275.233891 
L 236.153587 287.733081 
z
" clip-path="url(#p7aa03e9f04)" style="fill: #26ad81"/>
    <path d="M 99.470761 303.979131 
L 119.720271 312.24351 
L 126.29848 312.24351 
L 99.470761 300.524172 
L 80.74643 287.733081 
L 69.526125 282.328803 
L 39.58149 264.350133 
L 38.220695 263.222652 
L 9.636855 245.99165 
L -1.839515 238.712224 
L -20.307781 231.095751 
L -47.361529 214.201795 
L -50.252416 212.835735 
L -80.197051 193.466287 
L -85.73646 189.691366 
L -110.141687 179.706511 
L -110.141687 185.729463 
L -99.055142 189.691366 
L -80.197051 201.054953 
L -57.313315 214.201795 
L -50.252416 219.797541 
L -20.307781 235.675303 
L -12.142923 238.712224 
L 9.636855 251.290552 
L 30.976046 263.222652 
L 39.58149 269.880445 
L 69.526125 285.588484 
L 74.272146 287.733081 
z
M 249.193937 295.229619 
L 270.436067 312.24351 
L 275.297864 312.24351 
L 249.193937 290.257808 
L 246.804294 287.733081 
L 219.249302 264.997723 
L 217.513011 263.222652 
L 189.304667 240.115371 
L 187.918974 238.712224 
L 159.360031 215.333574 
L 158.239807 214.201795 
L 129.415396 190.627661 
L 128.484458 189.691366 
L 99.470761 166.274783 
L 98.378155 165.180938 
L 69.526125 141.877437 
L 68.315902 140.670509 
L 39.58149 117.483796 
L 38.256625 116.16008 
L 9.636855 93.000471 
L 8.289266 91.649651 
L -20.307781 68.679271 
L -21.847489 67.139223 
L -50.252416 44.338837 
L -51.958273 42.628794 
L -80.197051 20.034258 
L -82.101288 18.118365 
L -92.324309 18.118365 
L -80.197051 29.202382 
L -61.649782 42.628794 
L -50.252416 53.058255 
L -30.973639 67.139223 
L -20.307781 76.928266 
L -0.279382 91.649651 
L 9.636855 100.817414 
L 30.239817 116.16008 
L 39.58149 124.812833 
L 60.822589 140.670509 
L 69.526125 148.756411 
L 91.392162 165.180938 
L 99.470761 172.750919 
L 121.939112 189.691366 
L 129.415396 196.758164 
L 152.140939 214.201795 
L 159.360031 221.085466 
L 182.209808 238.712224 
L 189.304667 245.517906 
L 212.155609 263.222652 
L 219.249302 270.115807 
L 241.751052 287.733081 
z
" clip-path="url(#p7aa03e9f04)" style="fill: #3aba76"/>
    <path d="M 69.526125 290.838277 
L 99.470761 307.43409 
L 112.188111 312.24351 
L 119.720271 312.24351 
L 99.470761 303.979131 
L 74.272146 287.733081 
L 69.526125 285.588484 
L 39.58149 269.880445 
L 30.976046 263.222652 
L 9.636855 251.290552 
L -12.142923 238.712224 
L -20.307781 235.675303 
L -50.252416 219.797541 
L -57.313315 214.201795 
L -80.197051 201.054953 
L -99.055142 189.691366 
L -110.141687 185.729463 
L -110.141687 189.691366 
L -110.141687 193.663581 
L -80.197051 208.643619 
L -69.275797 214.201795 
L -50.252416 227.704905 
L -24.944195 238.712224 
L -20.307781 241.997684 
L 9.636855 256.589454 
L 22.55663 263.222652 
L 39.58149 275.410757 
L 66.404166 287.733081 
z
M 249.193937 290.257808 
L 275.297864 312.24351 
L 279.138573 312.24351 
L 281.280142 312.24351 
L 279.138573 310.803419 
L 255.967315 287.733081 
L 249.193937 282.947563 
L 228.278564 263.222652 
L 219.249302 256.739851 
L 199.876364 238.712224 
L 189.304667 230.938447 
L 171.415204 214.201795 
L 159.360031 205.241945 
L 142.83092 189.691366 
L 129.415396 179.352251 
L 114.095635 165.180938 
L 99.470761 153.717971 
L 85.614899 140.670509 
L 69.526125 128.336643 
L 56.727143 116.16008 
L 39.58149 102.682239 
L 28.235041 91.649651 
L 9.636855 76.718146 
L -0.2322 67.139223 
L -20.307781 51.152022 
L -28.967295 42.628794 
L -50.252416 26.319695 
L -58.585359 18.118365 
L -80.197051 18.118365 
L -82.101288 18.118365 
L -80.197051 20.034258 
L -51.958273 42.628794 
L -50.252416 44.338837 
L -21.847489 67.139223 
L -20.307781 68.679271 
L 8.289266 91.649651 
L 9.636855 93.000471 
L 38.256625 116.16008 
L 39.58149 117.483796 
L 68.315902 140.670509 
L 69.526125 141.877437 
L 98.378155 165.180938 
L 99.470761 166.274783 
L 128.484458 189.691366 
L 129.415396 190.627661 
L 158.239807 214.201795 
L 159.360031 215.333574 
L 187.918974 238.712224 
L 189.304667 240.115371 
L 217.513011 263.222652 
L 219.249302 264.997723 
L 246.804294 287.733081 
z
" clip-path="url(#p7aa03e9f04)" style="fill: #56c667"/>
    <path d="M 69.526125 299.91557 
L 99.470761 310.889049 
L 103.377617 312.24351 
L 112.188111 312.24351 
L 99.470761 307.43409 
L 69.526125 290.838277 
L 66.404166 287.733081 
L 39.58149 275.410757 
L 22.55663 263.222652 
L 9.636855 256.589454 
L -20.307781 241.997684 
L -24.944195 238.712224 
L -50.252416 227.704905 
L -69.275797 214.201795 
L -80.197051 208.643619 
L -110.141687 193.663581 
L -110.141687 205.27149 
L -86.430969 214.201795 
L -80.197051 218.771803 
L -50.252416 235.61227 
L -41.797953 238.712224 
L -20.307781 251.751104 
L 9.636855 261.888357 
L 12.506303 263.222652 
L 39.58149 280.94107 
L 56.029343 287.733081 
z
M 279.138573 310.803419 
L 281.280142 312.24351 
L 294.348929 312.24351 
L 279.138573 300.605829 
L 267.493855 287.733081 
L 249.193937 273.22469 
L 239.634178 263.222652 
L 219.249302 246.814815 
L 211.418688 238.712224 
L 189.304667 220.437313 
L 183.335098 214.201795 
L 159.360031 194.087221 
L 155.194747 189.691366 
L 129.415396 167.149433 
L 127.538653 165.180938 
L 101.02184 140.670509 
L 99.470761 139.600216 
L 74.753562 116.16008 
L 69.526125 112.421602 
L 48.546264 91.649651 
L 39.58149 85.010203 
L 22.04788 67.139223 
L 9.636855 57.424838 
L -4.926189 42.628794 
L -20.307781 29.783716 
L -32.097245 18.118365 
L -50.252416 18.118365 
L -58.585359 18.118365 
L -50.252416 26.319695 
L -28.967295 42.628794 
L -20.307781 51.152022 
L -0.2322 67.139223 
L 9.636855 76.718146 
L 28.235041 91.649651 
L 39.58149 102.682239 
L 56.727143 116.16008 
L 69.526125 128.336643 
L 85.614899 140.670509 
L 99.470761 153.717971 
L 114.095635 165.180938 
L 129.415396 179.352251 
L 142.83092 189.691366 
L 159.360031 205.241945 
L 171.415204 214.201795 
L 189.304667 230.938447 
L 199.876364 238.712224 
L 219.249302 256.739851 
L 228.278564 263.222652 
L 249.193937 282.947563 
L 255.967315 287.733081 
z
" clip-path="url(#p7aa03e9f04)" style="fill: #77d153"/>
    <path d="M 69.526125 308.992862 
L 82.711688 312.24351 
L 99.470761 312.24351 
L 103.377617 312.24351 
L 99.470761 310.889049 
L 69.526125 299.91557 
L 56.029343 287.733081 
L 39.58149 280.94107 
L 12.506303 263.222652 
L 9.636855 261.888357 
L -20.307781 251.751104 
L -41.797953 238.712224 
L -50.252416 235.61227 
L -80.197051 218.771803 
L -86.430969 214.201795 
L -110.141687 205.27149 
L -110.141687 214.201795 
L -110.141687 223.804453 
L -80.197051 235.851551 
L -72.114432 238.712224 
L -50.252416 254.137042 
L -20.307781 261.504524 
L -13.113565 263.222652 
L 9.636855 279.799104 
L 39.58149 286.471382 
L 43.05643 287.733081 
z
M 279.138573 300.605829 
L 294.348929 312.24351 
L 304.784864 312.24351 
L 279.138573 290.408239 
L 276.923865 287.733081 
L 249.193937 263.501816 
L 248.949627 263.222652 
L 225.810003 238.712224 
L 219.249302 233.953984 
L 201.761296 214.201795 
L 189.304667 204.477831 
L 176.317637 189.691366 
L 159.360031 175.805291 
L 150.549718 165.180938 
L 129.415396 147.668814 
L 123.610444 140.670509 
L 99.470761 119.788747 
L 96.332271 116.16008 
L 69.526125 92.318785 
L 68.966971 91.649651 
L 45.712985 67.139223 
L 39.58149 62.656756 
L 22.468884 42.628794 
L 9.636855 32.510122 
L -1.917233 18.118365 
L -20.307781 18.118365 
L -32.097245 18.118365 
L -20.307781 29.783716 
L -4.926189 42.628794 
L 9.636855 57.424838 
L 22.04788 67.139223 
L 39.58149 85.010203 
L 48.546264 91.649651 
L 69.526125 112.421602 
L 74.753562 116.16008 
L 99.470761 139.600216 
L 101.02184 140.670509 
L 127.538653 165.180938 
L 129.415396 167.149433 
L 155.194747 189.691366 
L 159.360031 194.087221 
L 183.335098 214.201795 
L 189.304667 220.437313 
L 211.418688 238.712224 
L 219.249302 246.814815 
L 239.634178 263.222652 
L 249.193937 273.22469 
L 267.493855 287.733081 
z
" clip-path="url(#p7aa03e9f04)" style="fill: #9dd93b"/>
    <path d="M -80.197051 312.24351 
L -50.252416 312.24351 
L -20.307781 312.24351 
L 9.636855 312.24351 
L 39.58149 312.24351 
L 69.526125 312.24351 
L 82.711688 312.24351 
L 69.526125 308.992862 
L 43.05643 287.733081 
L 39.58149 286.471382 
L 9.636855 279.799104 
L -13.113565 263.222652 
L -20.307781 261.504524 
L -50.252416 254.137042 
L -72.114432 238.712224 
L -80.197051 235.851551 
L -110.141687 223.804453 
L -110.141687 238.712224 
L -110.141687 263.222652 
L -110.141687 287.733081 
L -110.141687 312.24351 
z
M 279.138573 290.408239 
L 304.784864 312.24351 
L 309.083208 312.24351 
L 335.123271 312.24351 
L 309.083208 289.924774 
L 307.571294 287.733081 
L 288.037428 263.222652 
L 279.138573 256.744141 
L 270.172021 238.712224 
L 279.138573 224.172213 
L 295.858717 238.712224 
L 309.083208 250.484404 
L 323.120621 263.222652 
L 339.027843 279.089282 
L 348.261644 287.733081 
L 368.972479 311.325311 
L 369.900088 312.24351 
L 398.917114 312.24351 
L 428.861749 312.24351 
L 458.806385 312.24351 
L 488.75102 312.24351 
L 518.695655 312.24351 
L 548.640291 312.24351 
L 578.584926 312.24351 
L 608.529561 312.24351 
L 638.474197 312.24351 
L 668.418832 312.24351 
L 698.363467 312.24351 
L 728.308103 312.24351 
L 758.252738 312.24351 
L 788.197373 312.24351 
L 818.142009 312.24351 
L 848.086644 312.24351 
L 878.031279 312.24351 
L 907.975915 312.24351 
L 937.92055 312.24351 
L 967.865185 312.24351 
L 997.809821 312.24351 
L 1027.754456 312.24351 
L 1057.699091 312.24351 
L 1087.643727 312.24351 
L 1117.588362 312.24351 
L 1147.532997 312.24351 
L 1177.477633 312.24351 
L 1207.422268 312.24351 
L 1207.422268 287.733081 
L 1207.422268 263.222652 
L 1207.422268 238.712224 
L 1207.422268 214.201795 
L 1207.422268 189.691366 
L 1207.422268 165.180938 
L 1207.422268 140.670509 
L 1207.422268 116.16008 
L 1207.422268 91.649651 
L 1207.422268 67.139223 
L 1207.422268 42.628794 
L 1207.422268 18.118365 
L 1177.477633 18.118365 
L 1147.532997 18.118365 
L 1117.588362 18.118365 
L 1087.643727 18.118365 
L 1057.699091 18.118365 
L 1027.754456 18.118365 
L 997.809821 18.118365 
L 967.865185 18.118365 
L 937.92055 18.118365 
L 907.975915 18.118365 
L 878.031279 18.118365 
L 848.086644 18.118365 
L 818.142009 18.118365 
L 788.197373 18.118365 
L 758.252738 18.118365 
L 728.308103 18.118365 
L 698.363467 18.118365 
L 668.418832 18.118365 
L 638.474197 18.118365 
L 608.529561 18.118365 
L 578.584926 18.118365 
L 548.640291 18.118365 
L 518.695655 18.118365 
L 488.75102 18.118365 
L 458.806385 18.118365 
L 428.861749 18.118365 
L 398.917114 18.118365 
L 368.972479 18.118365 
L 339.027843 18.118365 
L 309.083208 18.118365 
L 279.138573 18.118365 
L 249.193937 18.118365 
L 219.249302 18.118365 
L 189.304667 18.118365 
L 159.360031 18.118365 
L 129.415396 18.118365 
L 99.470761 18.118365 
L 69.526125 18.118365 
L 39.58149 18.118365 
L 9.636855 18.118365 
L -1.917233 18.118365 
L 9.636855 32.510122 
L 22.468884 42.628794 
L 39.58149 62.656756 
L 45.712985 67.139223 
L 68.966971 91.649651 
L 69.526125 92.318785 
L 96.332271 116.16008 
L 99.470761 119.788747 
L 123.610444 140.670509 
L 129.415396 147.668814 
L 150.549718 165.180938 
L 159.360031 175.805291 
L 176.317637 189.691366 
L 189.304667 204.477831 
L 201.761296 214.201795 
L 219.249302 233.953984 
L 225.810003 238.712224 
L 248.949627 263.222652 
L 249.193937 263.501816 
L 276.923865 287.733081 
z
M 245.557376 214.201795 
L 249.193937 200.751976 
L 265.731085 214.201795 
L 249.193937 220.690326 
z
M 218.957926 189.691366 
L 219.249302 186.57618 
L 223.956969 189.691366 
L 219.249302 190.190499 
z
" clip-path="url(#p7aa03e9f04)" style="fill: #c5e021"/>
    <path d="M 309.083208 289.924774 
L 335.123271 312.24351 
L 339.027843 312.24351 
L 368.972479 312.24351 
L 369.900088 312.24351 
L 368.972479 311.325311 
L 348.261644 287.733081 
L 339.027843 279.089282 
L 323.120621 263.222652 
L 309.083208 250.484404 
L 295.858717 238.712224 
L 279.138573 224.172213 
L 270.172021 238.712224 
L 279.138573 256.744141 
L 288.037428 263.222652 
L 307.571294 287.733081 
z
M 249.193937 220.690326 
L 265.731085 214.201795 
L 249.193937 200.751976 
L 245.557376 214.201795 
z
M 219.249302 190.190499 
L 223.956969 189.691366 
L 219.249302 186.57618 
L 218.957926 189.691366 
z
" clip-path="url(#p7aa03e9f04)" style="fill: #ece51b"/>
   </g>
   <g id="PathCollection_1">
    <defs>
     <path id="m8d5f0d18ab" d="M -3 3 
L 3 -3 
M -3 -3 
L 3 3 
" style="stroke: #ff0000; stroke-width: 1.5"/>
    </defs>
    <g clip-path="url(#p7aa03e9f04)">
     <use xlink:href="#m8d5f0d18ab" x="339.027843" y="312.24351" style="fill: #ff0000; stroke: #ff0000; stroke-width: 1.5"/>
     <use xlink:href="#m8d5f0d18ab" x="339.027843" y="287.733081" style="fill: #ff0000; stroke: #ff0000; stroke-width: 1.5"/>
     <use xlink:href="#m8d5f0d18ab" x="309.083208" y="263.222652" style="fill: #ff0000; stroke: #ff0000; stroke-width: 1.5"/>
     <use xlink:href="#m8d5f0d18ab" x="279.138573" y="238.712224" style="fill: #ff0000; stroke: #ff0000; stroke-width: 1.5"/>
     <use xlink:href="#m8d5f0d18ab" x="249.193937" y="214.201795" style="fill: #ff0000; stroke: #ff0000; stroke-width: 1.5"/>
     <use xlink:href="#m8d5f0d18ab" x="219.249302" y="189.691366" style="fill: #ff0000; stroke: #ff0000; stroke-width: 1.5"/>
     <use xlink:href="#m8d5f0d18ab" x="219.249302" y="165.180938" style="fill: #ff0000; stroke: #ff0000; stroke-width: 1.5"/>
     <use xlink:href="#m8d5f0d18ab" x="189.304667" y="140.670509" style="fill: #ff0000; stroke: #ff0000; stroke-width: 1.5"/>
     <use xlink:href="#m8d5f0d18ab" x="159.360031" y="116.16008" style="fill: #ff0000; stroke: #ff0000; stroke-width: 1.5"/>
     <use xlink:href="#m8d5f0d18ab" x="129.415396" y="91.649651" style="fill: #ff0000; stroke: #ff0000; stroke-width: 1.5"/>
     <use xlink:href="#m8d5f0d18ab" x="99.470761" y="67.139223" style="fill: #ff0000; stroke: #ff0000; stroke-width: 1.5"/>
     <use xlink:href="#m8d5f0d18ab" x="99.470761" y="42.628794" style="fill: #ff0000; stroke: #ff0000; stroke-width: 1.5"/>
     <use xlink:href="#m8d5f0d18ab" x="69.526125" y="18.118365" style="fill: #ff0000; stroke: #ff0000; stroke-width: 1.5"/>
    </g>
   </g>
   <g id="matplotlib.axis_1">
    <g id="xtick_1">
     <g id="line2d_1">
      <defs>
       <path id="m2a323e3e31" d="M 0 0 
L 0 3.5 
" style="stroke: #000000; stroke-width: 0.8"/>
      </defs>
      <g>
       <use xlink:href="#m2a323e3e31" x="129.415396" y="312.24351" style="stroke: #000000; stroke-width: 0.8"/>
      </g>
     </g>
     <g id="text_1">
      <!-- $\mathdefault{10^{-3}}$ -->
      <g transform="translate(117.665396 326.841947) scale(0.1 -0.1)">
       <defs>
        <path id="DejaVuSans-31" d="M 794 531 
L 1825 531 
L 1825 4091 
L 703 3866 
L 703 4441 
L 1819 4666 
L 2450 4666 
L 2450 531 
L 3481 531 
L 3481 0 
L 794 0 
L 794 531 
z
" transform="scale(0.015625)"/>
        <path id="DejaVuSans-30" d="M 2034 4250 
Q 1547 4250 1301 3770 
Q 1056 3291 1056 2328 
Q 1056 1369 1301 889 
Q 1547 409 2034 409 
Q 2525 409 2770 889 
Q 3016 1369 3016 2328 
Q 3016 3291 2770 3770 
Q 2525 4250 2034 4250 
z
M 2034 4750 
Q 2819 4750 3233 4129 
Q 3647 3509 3647 2328 
Q 3647 1150 3233 529 
Q 2819 -91 2034 -91 
Q 1250 -91 836 529 
Q 422 1150 422 2328 
Q 422 3509 836 4129 
Q 1250 4750 2034 4750 
z
" transform="scale(0.015625)"/>
        <path id="DejaVuSans-2212" d="M 678 2272 
L 4684 2272 
L 4684 1741 
L 678 1741 
L 678 2272 
z
" transform="scale(0.015625)"/>
        <path id="DejaVuSans-33" d="M 2597 2516 
Q 3050 2419 3304 2112 
Q 3559 1806 3559 1356 
Q 3559 666 3084 287 
Q 2609 -91 1734 -91 
Q 1441 -91 1130 -33 
Q 819 25 488 141 
L 488 750 
Q 750 597 1062 519 
Q 1375 441 1716 441 
Q 2309 441 2620 675 
Q 2931 909 2931 1356 
Q 2931 1769 2642 2001 
Q 2353 2234 1838 2234 
L 1294 2234 
L 1294 2753 
L 1863 2753 
Q 2328 2753 2575 2939 
Q 2822 3125 2822 3475 
Q 2822 3834 2567 4026 
Q 2313 4219 1838 4219 
Q 1578 4219 1281 4162 
Q 984 4106 628 3988 
L 628 4550 
Q 988 4650 1302 4700 
Q 1616 4750 1894 4750 
Q 2613 4750 3031 4423 
Q 3450 4097 3450 3541 
Q 3450 3153 3228 2886 
Q 3006 2619 2597 2516 
z
" transform="scale(0.015625)"/>
       </defs>
       <use xlink:href="#DejaVuSans-31" transform="translate(0 0.765625)"/>
       <use xlink:href="#DejaVuSans-30" transform="translate(63.623047 0.765625)"/>
       <use xlink:href="#DejaVuSans-2212" transform="translate(128.203125 39.046875) scale(0.7)"/>
       <use xlink:href="#DejaVuSans-33" transform="translate(186.855469 39.046875) scale(0.7)"/>
      </g>
     </g>
    </g>
    <g id="xtick_2">
     <g id="line2d_2">
      <g>
       <use xlink:href="#m2a323e3e31" x="249.193937" y="312.24351" style="stroke: #000000; stroke-width: 0.8"/>
      </g>
     </g>
     <g id="text_2">
      <!-- $\mathdefault{10^{-2}}$ -->
      <g transform="translate(237.443937 326.841947) scale(0.1 -0.1)">
       <defs>
        <path id="DejaVuSans-32" d="M 1228 531 
L 3431 531 
L 3431 0 
L 469 0 
L 469 531 
Q 828 903 1448 1529 
Q 2069 2156 2228 2338 
Q 2531 2678 2651 2914 
Q 2772 3150 2772 3378 
Q 2772 3750 2511 3984 
Q 2250 4219 1831 4219 
Q 1534 4219 1204 4116 
Q 875 4013 500 3803 
L 500 4441 
Q 881 4594 1212 4672 
Q 1544 4750 1819 4750 
Q 2544 4750 2975 4387 
Q 3406 4025 3406 3419 
Q 3406 3131 3298 2873 
Q 3191 2616 2906 2266 
Q 2828 2175 2409 1742 
Q 1991 1309 1228 531 
z
" transform="scale(0.015625)"/>
       </defs>
       <use xlink:href="#DejaVuSans-31" transform="translate(0 0.765625)"/>
       <use xlink:href="#DejaVuSans-30" transform="translate(63.623047 0.765625)"/>
       <use xlink:href="#DejaVuSans-2212" transform="translate(128.203125 39.046875) scale(0.7)"/>
       <use xlink:href="#DejaVuSans-32" transform="translate(186.855469 39.046875) scale(0.7)"/>
      </g>
     </g>
    </g>
    <g id="xtick_3">
     <g id="line2d_3">
      <g>
       <use xlink:href="#m2a323e3e31" x="368.972479" y="312.24351" style="stroke: #000000; stroke-width: 0.8"/>
      </g>
     </g>
     <g id="text_3">
      <!-- $\mathdefault{10^{-1}}$ -->
      <g transform="translate(357.222479 326.841947) scale(0.1 -0.1)">
       <use xlink:href="#DejaVuSans-31" transform="translate(0 0.684375)"/>
       <use xlink:href="#DejaVuSans-30" transform="translate(63.623047 0.684375)"/>
       <use xlink:href="#DejaVuSans-2212" transform="translate(128.203125 38.965625) scale(0.7)"/>
       <use xlink:href="#DejaVuSans-31" transform="translate(186.855469 38.965625) scale(0.7)"/>
      </g>
     </g>
    </g>
    <g id="xtick_4">
     <g id="line2d_4">
      <defs>
       <path id="m14ed2666f3" d="M 0 0 
L 0 2 
" style="stroke: #000000; stroke-width: 0.6"/>
      </defs>
      <g>
       <use xlink:href="#m14ed2666f3" x="45.693788" y="312.24351" style="stroke: #000000; stroke-width: 0.6"/>
      </g>
     </g>
    </g>
    <g id="xtick_5">
     <g id="line2d_5">
      <g>
       <use xlink:href="#m14ed2666f3" x="66.785743" y="312.24351" style="stroke: #000000; stroke-width: 0.6"/>
      </g>
     </g>
    </g>
    <g id="xtick_6">
     <g id="line2d_6">
      <g>
       <use xlink:href="#m14ed2666f3" x="81.750722" y="312.24351" style="stroke: #000000; stroke-width: 0.6"/>
      </g>
     </g>
    </g>
    <g id="xtick_7">
     <g id="line2d_7">
      <g>
       <use xlink:href="#m14ed2666f3" x="93.358462" y="312.24351" style="stroke: #000000; stroke-width: 0.6"/>
      </g>
     </g>
    </g>
    <g id="xtick_8">
     <g id="line2d_8">
      <g>
       <use xlink:href="#m14ed2666f3" x="102.842676" y="312.24351" style="stroke: #000000; stroke-width: 0.6"/>
      </g>
     </g>
    </g>
    <g id="xtick_9">
     <g id="line2d_9">
      <g>
       <use xlink:href="#m14ed2666f3" x="110.861465" y="312.24351" style="stroke: #000000; stroke-width: 0.6"/>
      </g>
     </g>
    </g>
    <g id="xtick_10">
     <g id="line2d_10">
      <g>
       <use xlink:href="#m14ed2666f3" x="117.807656" y="312.24351" style="stroke: #000000; stroke-width: 0.6"/>
      </g>
     </g>
    </g>
    <g id="xtick_11">
     <g id="line2d_11">
      <g>
       <use xlink:href="#m14ed2666f3" x="123.934631" y="312.24351" style="stroke: #000000; stroke-width: 0.6"/>
      </g>
     </g>
    </g>
    <g id="xtick_12">
     <g id="line2d_12">
      <g>
       <use xlink:href="#m14ed2666f3" x="165.47233" y="312.24351" style="stroke: #000000; stroke-width: 0.6"/>
      </g>
     </g>
    </g>
    <g id="xtick_13">
     <g id="line2d_13">
      <g>
       <use xlink:href="#m14ed2666f3" x="186.564284" y="312.24351" style="stroke: #000000; stroke-width: 0.6"/>
      </g>
     </g>
    </g>
    <g id="xtick_14">
     <g id="line2d_14">
      <g>
       <use xlink:href="#m14ed2666f3" x="201.529264" y="312.24351" style="stroke: #000000; stroke-width: 0.6"/>
      </g>
     </g>
    </g>
    <g id="xtick_15">
     <g id="line2d_15">
      <g>
       <use xlink:href="#m14ed2666f3" x="213.137004" y="312.24351" style="stroke: #000000; stroke-width: 0.6"/>
      </g>
     </g>
    </g>
    <g id="xtick_16">
     <g id="line2d_16">
      <g>
       <use xlink:href="#m14ed2666f3" x="222.621218" y="312.24351" style="stroke: #000000; stroke-width: 0.6"/>
      </g>
     </g>
    </g>
    <g id="xtick_17">
     <g id="line2d_17">
      <g>
       <use xlink:href="#m14ed2666f3" x="230.640006" y="312.24351" style="stroke: #000000; stroke-width: 0.6"/>
      </g>
     </g>
    </g>
    <g id="xtick_18">
     <g id="line2d_18">
      <g>
       <use xlink:href="#m14ed2666f3" x="237.586197" y="312.24351" style="stroke: #000000; stroke-width: 0.6"/>
      </g>
     </g>
    </g>
    <g id="xtick_19">
     <g id="line2d_19">
      <g>
       <use xlink:href="#m14ed2666f3" x="243.713172" y="312.24351" style="stroke: #000000; stroke-width: 0.6"/>
      </g>
     </g>
    </g>
    <g id="xtick_20">
     <g id="line2d_20">
      <g>
       <use xlink:href="#m14ed2666f3" x="285.250871" y="312.24351" style="stroke: #000000; stroke-width: 0.6"/>
      </g>
     </g>
    </g>
    <g id="xtick_21">
     <g id="line2d_21">
      <g>
       <use xlink:href="#m14ed2666f3" x="306.342825" y="312.24351" style="stroke: #000000; stroke-width: 0.6"/>
      </g>
     </g>
    </g>
    <g id="xtick_22">
     <g id="line2d_22">
      <g>
       <use xlink:href="#m14ed2666f3" x="321.307805" y="312.24351" style="stroke: #000000; stroke-width: 0.6"/>
      </g>
     </g>
    </g>
    <g id="xtick_23">
     <g id="line2d_23">
      <g>
       <use xlink:href="#m14ed2666f3" x="332.915545" y="312.24351" style="stroke: #000000; stroke-width: 0.6"/>
      </g>
     </g>
    </g>
    <g id="xtick_24">
     <g id="line2d_24">
      <g>
       <use xlink:href="#m14ed2666f3" x="342.399759" y="312.24351" style="stroke: #000000; stroke-width: 0.6"/>
      </g>
     </g>
    </g>
    <g id="xtick_25">
     <g id="line2d_25">
      <g>
       <use xlink:href="#m14ed2666f3" x="350.418548" y="312.24351" style="stroke: #000000; stroke-width: 0.6"/>
      </g>
     </g>
    </g>
    <g id="xtick_26">
     <g id="line2d_26">
      <g>
       <use xlink:href="#m14ed2666f3" x="357.364739" y="312.24351" style="stroke: #000000; stroke-width: 0.6"/>
      </g>
     </g>
    </g>
    <g id="xtick_27">
     <g id="line2d_27">
      <g>
       <use xlink:href="#m14ed2666f3" x="363.491713" y="312.24351" style="stroke: #000000; stroke-width: 0.6"/>
      </g>
     </g>
    </g>
    <g id="text_4">
     <!-- bandwidth -->
     <g transform="translate(177.914484 340.520072) scale(0.1 -0.1)">
      <defs>
       <path id="DejaVuSans-62" d="M 3116 1747 
Q 3116 2381 2855 2742 
Q 2594 3103 2138 3103 
Q 1681 3103 1420 2742 
Q 1159 2381 1159 1747 
Q 1159 1113 1420 752 
Q 1681 391 2138 391 
Q 2594 391 2855 752 
Q 3116 1113 3116 1747 
z
M 1159 2969 
Q 1341 3281 1617 3432 
Q 1894 3584 2278 3584 
Q 2916 3584 3314 3078 
Q 3713 2572 3713 1747 
Q 3713 922 3314 415 
Q 2916 -91 2278 -91 
Q 1894 -91 1617 61 
Q 1341 213 1159 525 
L 1159 0 
L 581 0 
L 581 4863 
L 1159 4863 
L 1159 2969 
z
" transform="scale(0.015625)"/>
       <path id="DejaVuSans-61" d="M 2194 1759 
Q 1497 1759 1228 1600 
Q 959 1441 959 1056 
Q 959 750 1161 570 
Q 1363 391 1709 391 
Q 2188 391 2477 730 
Q 2766 1069 2766 1631 
L 2766 1759 
L 2194 1759 
z
M 3341 1997 
L 3341 0 
L 2766 0 
L 2766 531 
Q 2569 213 2275 61 
Q 1981 -91 1556 -91 
Q 1019 -91 701 211 
Q 384 513 384 1019 
Q 384 1609 779 1909 
Q 1175 2209 1959 2209 
L 2766 2209 
L 2766 2266 
Q 2766 2663 2505 2880 
Q 2244 3097 1772 3097 
Q 1472 3097 1187 3025 
Q 903 2953 641 2809 
L 641 3341 
Q 956 3463 1253 3523 
Q 1550 3584 1831 3584 
Q 2591 3584 2966 3190 
Q 3341 2797 3341 1997 
z
" transform="scale(0.015625)"/>
       <path id="DejaVuSans-6e" d="M 3513 2113 
L 3513 0 
L 2938 0 
L 2938 2094 
Q 2938 2591 2744 2837 
Q 2550 3084 2163 3084 
Q 1697 3084 1428 2787 
Q 1159 2491 1159 1978 
L 1159 0 
L 581 0 
L 581 3500 
L 1159 3500 
L 1159 2956 
Q 1366 3272 1645 3428 
Q 1925 3584 2291 3584 
Q 2894 3584 3203 3211 
Q 3513 2838 3513 2113 
z
" transform="scale(0.015625)"/>
       <path id="DejaVuSans-64" d="M 2906 2969 
L 2906 4863 
L 3481 4863 
L 3481 0 
L 2906 0 
L 2906 525 
Q 2725 213 2448 61 
Q 2172 -91 1784 -91 
Q 1150 -91 751 415 
Q 353 922 353 1747 
Q 353 2572 751 3078 
Q 1150 3584 1784 3584 
Q 2172 3584 2448 3432 
Q 2725 3281 2906 2969 
z
M 947 1747 
Q 947 1113 1208 752 
Q 1469 391 1925 391 
Q 2381 391 2643 752 
Q 2906 1113 2906 1747 
Q 2906 2381 2643 2742 
Q 2381 3103 1925 3103 
Q 1469 3103 1208 2742 
Q 947 2381 947 1747 
z
" transform="scale(0.015625)"/>
       <path id="DejaVuSans-77" d="M 269 3500 
L 844 3500 
L 1563 769 
L 2278 3500 
L 2956 3500 
L 3675 769 
L 4391 3500 
L 4966 3500 
L 4050 0 
L 3372 0 
L 2619 2869 
L 1863 0 
L 1184 0 
L 269 3500 
z
" transform="scale(0.015625)"/>
       <path id="DejaVuSans-69" d="M 603 3500 
L 1178 3500 
L 1178 0 
L 603 0 
L 603 3500 
z
M 603 4863 
L 1178 4863 
L 1178 4134 
L 603 4134 
L 603 4863 
z
" transform="scale(0.015625)"/>
       <path id="DejaVuSans-74" d="M 1172 4494 
L 1172 3500 
L 2356 3500 
L 2356 3053 
L 1172 3053 
L 1172 1153 
Q 1172 725 1289 603 
Q 1406 481 1766 481 
L 2356 481 
L 2356 0 
L 1766 0 
Q 1100 0 847 248 
Q 594 497 594 1153 
L 594 3053 
L 172 3053 
L 172 3500 
L 594 3500 
L 594 4494 
L 1172 4494 
z
" transform="scale(0.015625)"/>
       <path id="DejaVuSans-68" d="M 3513 2113 
L 3513 0 
L 2938 0 
L 2938 2094 
Q 2938 2591 2744 2837 
Q 2550 3084 2163 3084 
Q 1697 3084 1428 2787 
Q 1159 2491 1159 1978 
L 1159 0 
L 581 0 
L 581 4863 
L 1159 4863 
L 1159 2956 
Q 1366 3272 1645 3428 
Q 1925 3584 2291 3584 
Q 2894 3584 3203 3211 
Q 3513 2838 3513 2113 
z
" transform="scale(0.015625)"/>
      </defs>
      <use xlink:href="#DejaVuSans-62"/>
      <use xlink:href="#DejaVuSans-61" transform="translate(63.476562 0)"/>
      <use xlink:href="#DejaVuSans-6e" transform="translate(124.755859 0)"/>
      <use xlink:href="#DejaVuSans-64" transform="translate(188.134766 0)"/>
      <use xlink:href="#DejaVuSans-77" transform="translate(251.611328 0)"/>
      <use xlink:href="#DejaVuSans-69" transform="translate(333.398438 0)"/>
      <use xlink:href="#DejaVuSans-64" transform="translate(361.181641 0)"/>
      <use xlink:href="#DejaVuSans-74" transform="translate(424.658203 0)"/>
      <use xlink:href="#DejaVuSans-68" transform="translate(463.867188 0)"/>
     </g>
    </g>
   </g>
   <g id="matplotlib.axis_2">
    <g id="ytick_1">
     <g id="line2d_28">
      <defs>
       <path id="m6ab811c5d4" d="M 0 0 
L -3.5 0 
" style="stroke: #000000; stroke-width: 0.8"/>
      </defs>
      <g>
       <use xlink:href="#m6ab811c5d4" x="39.58149" y="312.24351" style="stroke: #000000; stroke-width: 0.8"/>
      </g>
     </g>
     <g id="text_5">
      <!-- 1.0 -->
      <g transform="translate(16.678365 316.042729) scale(0.1 -0.1)">
       <defs>
        <path id="DejaVuSans-2e" d="M 684 794 
L 1344 794 
L 1344 0 
L 684 0 
L 684 794 
z
" transform="scale(0.015625)"/>
       </defs>
       <use xlink:href="#DejaVuSans-31"/>
       <use xlink:href="#DejaVuSans-2e" transform="translate(63.623047 0)"/>
       <use xlink:href="#DejaVuSans-30" transform="translate(95.410156 0)"/>
      </g>
     </g>
    </g>
    <g id="ytick_2">
     <g id="line2d_29">
      <g>
       <use xlink:href="#m6ab811c5d4" x="39.58149" y="263.222652" style="stroke: #000000; stroke-width: 0.8"/>
      </g>
     </g>
     <g id="text_6">
      <!-- 1.5 -->
      <g transform="translate(16.678365 267.021871) scale(0.1 -0.1)">
       <defs>
        <path id="DejaVuSans-35" d="M 691 4666 
L 3169 4666 
L 3169 4134 
L 1269 4134 
L 1269 2991 
Q 1406 3038 1543 3061 
Q 1681 3084 1819 3084 
Q 2600 3084 3056 2656 
Q 3513 2228 3513 1497 
Q 3513 744 3044 326 
Q 2575 -91 1722 -91 
Q 1428 -91 1123 -41 
Q 819 9 494 109 
L 494 744 
Q 775 591 1075 516 
Q 1375 441 1709 441 
Q 2250 441 2565 725 
Q 2881 1009 2881 1497 
Q 2881 1984 2565 2268 
Q 2250 2553 1709 2553 
Q 1456 2553 1204 2497 
Q 953 2441 691 2322 
L 691 4666 
z
" transform="scale(0.015625)"/>
       </defs>
       <use xlink:href="#DejaVuSans-31"/>
       <use xlink:href="#DejaVuSans-2e" transform="translate(63.623047 0)"/>
       <use xlink:href="#DejaVuSans-35" transform="translate(95.410156 0)"/>
      </g>
     </g>
    </g>
    <g id="ytick_3">
     <g id="line2d_30">
      <g>
       <use xlink:href="#m6ab811c5d4" x="39.58149" y="214.201795" style="stroke: #000000; stroke-width: 0.8"/>
      </g>
     </g>
     <g id="text_7">
      <!-- 2.0 -->
      <g transform="translate(16.678365 218.001014) scale(0.1 -0.1)">
       <use xlink:href="#DejaVuSans-32"/>
       <use xlink:href="#DejaVuSans-2e" transform="translate(63.623047 0)"/>
       <use xlink:href="#DejaVuSans-30" transform="translate(95.410156 0)"/>
      </g>
     </g>
    </g>
    <g id="ytick_4">
     <g id="line2d_31">
      <g>
       <use xlink:href="#m6ab811c5d4" x="39.58149" y="165.180938" style="stroke: #000000; stroke-width: 0.8"/>
      </g>
     </g>
     <g id="text_8">
      <!-- 2.5 -->
      <g transform="translate(16.678365 168.980156) scale(0.1 -0.1)">
       <use xlink:href="#DejaVuSans-32"/>
       <use xlink:href="#DejaVuSans-2e" transform="translate(63.623047 0)"/>
       <use xlink:href="#DejaVuSans-35" transform="translate(95.410156 0)"/>
      </g>
     </g>
    </g>
    <g id="ytick_5">
     <g id="line2d_32">
      <g>
       <use xlink:href="#m6ab811c5d4" x="39.58149" y="116.16008" style="stroke: #000000; stroke-width: 0.8"/>
      </g>
     </g>
     <g id="text_9">
      <!-- 3.0 -->
      <g transform="translate(16.678365 119.959299) scale(0.1 -0.1)">
       <use xlink:href="#DejaVuSans-33"/>
       <use xlink:href="#DejaVuSans-2e" transform="translate(63.623047 0)"/>
       <use xlink:href="#DejaVuSans-30" transform="translate(95.410156 0)"/>
      </g>
     </g>
    </g>
    <g id="ytick_6">
     <g id="line2d_33">
      <g>
       <use xlink:href="#m6ab811c5d4" x="39.58149" y="67.139223" style="stroke: #000000; stroke-width: 0.8"/>
      </g>
     </g>
     <g id="text_10">
      <!-- 3.5 -->
      <g transform="translate(16.678365 70.938441) scale(0.1 -0.1)">
       <use xlink:href="#DejaVuSans-33"/>
       <use xlink:href="#DejaVuSans-2e" transform="translate(63.623047 0)"/>
       <use xlink:href="#DejaVuSans-35" transform="translate(95.410156 0)"/>
      </g>
     </g>
    </g>
    <g id="ytick_7">
     <g id="line2d_34">
      <g>
       <use xlink:href="#m6ab811c5d4" x="39.58149" y="18.118365" style="stroke: #000000; stroke-width: 0.8"/>
      </g>
     </g>
     <g id="text_11">
      <!-- 4.0 -->
      <g transform="translate(16.678365 21.917584) scale(0.1 -0.1)">
       <defs>
        <path id="DejaVuSans-34" d="M 2419 4116 
L 825 1625 
L 2419 1625 
L 2419 4116 
z
M 2253 4666 
L 3047 4666 
L 3047 1625 
L 3713 1625 
L 3713 1100 
L 3047 1100 
L 3047 0 
L 2419 0 
L 2419 1100 
L 313 1100 
L 313 1709 
L 2253 4666 
z
" transform="scale(0.015625)"/>
       </defs>
       <use xlink:href="#DejaVuSans-34"/>
       <use xlink:href="#DejaVuSans-2e" transform="translate(63.623047 0)"/>
       <use xlink:href="#DejaVuSans-30" transform="translate(95.410156 0)"/>
      </g>
     </g>
    </g>
    <g id="text_12">
     <!-- alpha -->
     <g transform="translate(10.598677 179.041094) rotate(-90) scale(0.1 -0.1)">
      <defs>
       <path id="DejaVuSans-6c" d="M 603 4863 
L 1178 4863 
L 1178 0 
L 603 0 
L 603 4863 
z
" transform="scale(0.015625)"/>
       <path id="DejaVuSans-70" d="M 1159 525 
L 1159 -1331 
L 581 -1331 
L 581 3500 
L 1159 3500 
L 1159 2969 
Q 1341 3281 1617 3432 
Q 1894 3584 2278 3584 
Q 2916 3584 3314 3078 
Q 3713 2572 3713 1747 
Q 3713 922 3314 415 
Q 2916 -91 2278 -91 
Q 1894 -91 1617 61 
Q 1341 213 1159 525 
z
M 3116 1747 
Q 3116 2381 2855 2742 
Q 2594 3103 2138 3103 
Q 1681 3103 1420 2742 
Q 1159 2381 1159 1747 
Q 1159 1113 1420 752 
Q 1681 391 2138 391 
Q 2594 391 2855 752 
Q 3116 1113 3116 1747 
z
" transform="scale(0.015625)"/>
      </defs>
      <use xlink:href="#DejaVuSans-61"/>
      <use xlink:href="#DejaVuSans-6c" transform="translate(61.279297 0)"/>
      <use xlink:href="#DejaVuSans-70" transform="translate(89.0625 0)"/>
      <use xlink:href="#DejaVuSans-68" transform="translate(152.539062 0)"/>
      <use xlink:href="#DejaVuSans-61" transform="translate(215.917969 0)"/>
     </g>
    </g>
   </g>
   <g id="patch_3">
    <path d="M 39.58149 312.24351 
L 39.58149 18.118365 
" style="fill: none; stroke: #000000; stroke-width: 0.8; stroke-linejoin: miter; stroke-linecap: square"/>
   </g>
   <g id="patch_4">
    <path d="M 368.972479 312.24351 
L 368.972479 18.118365 
" style="fill: none; stroke: #000000; stroke-width: 0.8; stroke-linejoin: miter; stroke-linecap: square"/>
   </g>
   <g id="patch_5">
    <path d="M 39.58149 312.24351 
L 368.972479 312.24351 
" style="fill: none; stroke: #000000; stroke-width: 0.8; stroke-linejoin: miter; stroke-linecap: square"/>
   </g>
   <g id="patch_6">
    <path d="M 39.58149 18.118365 
L 368.972479 18.118365 
" style="fill: none; stroke: #000000; stroke-width: 0.8; stroke-linejoin: miter; stroke-linecap: square"/>
   </g>
   <g id="text_13">
    <!-- circulos_lo 1188 fkdc -->
    <g transform="translate(141.297609 12.118365) scale(0.12 -0.12)">
     <defs>
      <path id="DejaVuSans-63" d="M 3122 3366 
L 3122 2828 
Q 2878 2963 2633 3030 
Q 2388 3097 2138 3097 
Q 1578 3097 1268 2742 
Q 959 2388 959 1747 
Q 959 1106 1268 751 
Q 1578 397 2138 397 
Q 2388 397 2633 464 
Q 2878 531 3122 666 
L 3122 134 
Q 2881 22 2623 -34 
Q 2366 -91 2075 -91 
Q 1284 -91 818 406 
Q 353 903 353 1747 
Q 353 2603 823 3093 
Q 1294 3584 2113 3584 
Q 2378 3584 2631 3529 
Q 2884 3475 3122 3366 
z
" transform="scale(0.015625)"/>
      <path id="DejaVuSans-72" d="M 2631 2963 
Q 2534 3019 2420 3045 
Q 2306 3072 2169 3072 
Q 1681 3072 1420 2755 
Q 1159 2438 1159 1844 
L 1159 0 
L 581 0 
L 581 3500 
L 1159 3500 
L 1159 2956 
Q 1341 3275 1631 3429 
Q 1922 3584 2338 3584 
Q 2397 3584 2469 3576 
Q 2541 3569 2628 3553 
L 2631 2963 
z
" transform="scale(0.015625)"/>
      <path id="DejaVuSans-75" d="M 544 1381 
L 544 3500 
L 1119 3500 
L 1119 1403 
Q 1119 906 1312 657 
Q 1506 409 1894 409 
Q 2359 409 2629 706 
Q 2900 1003 2900 1516 
L 2900 3500 
L 3475 3500 
L 3475 0 
L 2900 0 
L 2900 538 
Q 2691 219 2414 64 
Q 2138 -91 1772 -91 
Q 1169 -91 856 284 
Q 544 659 544 1381 
z
M 1991 3584 
L 1991 3584 
z
" transform="scale(0.015625)"/>
      <path id="DejaVuSans-6f" d="M 1959 3097 
Q 1497 3097 1228 2736 
Q 959 2375 959 1747 
Q 959 1119 1226 758 
Q 1494 397 1959 397 
Q 2419 397 2687 759 
Q 2956 1122 2956 1747 
Q 2956 2369 2687 2733 
Q 2419 3097 1959 3097 
z
M 1959 3584 
Q 2709 3584 3137 3096 
Q 3566 2609 3566 1747 
Q 3566 888 3137 398 
Q 2709 -91 1959 -91 
Q 1206 -91 779 398 
Q 353 888 353 1747 
Q 353 2609 779 3096 
Q 1206 3584 1959 3584 
z
" transform="scale(0.015625)"/>
      <path id="DejaVuSans-73" d="M 2834 3397 
L 2834 2853 
Q 2591 2978 2328 3040 
Q 2066 3103 1784 3103 
Q 1356 3103 1142 2972 
Q 928 2841 928 2578 
Q 928 2378 1081 2264 
Q 1234 2150 1697 2047 
L 1894 2003 
Q 2506 1872 2764 1633 
Q 3022 1394 3022 966 
Q 3022 478 2636 193 
Q 2250 -91 1575 -91 
Q 1294 -91 989 -36 
Q 684 19 347 128 
L 347 722 
Q 666 556 975 473 
Q 1284 391 1588 391 
Q 1994 391 2212 530 
Q 2431 669 2431 922 
Q 2431 1156 2273 1281 
Q 2116 1406 1581 1522 
L 1381 1569 
Q 847 1681 609 1914 
Q 372 2147 372 2553 
Q 372 3047 722 3315 
Q 1072 3584 1716 3584 
Q 2034 3584 2315 3537 
Q 2597 3491 2834 3397 
z
" transform="scale(0.015625)"/>
      <path id="DejaVuSans-5f" d="M 3263 -1063 
L 3263 -1509 
L -63 -1509 
L -63 -1063 
L 3263 -1063 
z
" transform="scale(0.015625)"/>
      <path id="DejaVuSans-20" transform="scale(0.015625)"/>
      <path id="DejaVuSans-38" d="M 2034 2216 
Q 1584 2216 1326 1975 
Q 1069 1734 1069 1313 
Q 1069 891 1326 650 
Q 1584 409 2034 409 
Q 2484 409 2743 651 
Q 3003 894 3003 1313 
Q 3003 1734 2745 1975 
Q 2488 2216 2034 2216 
z
M 1403 2484 
Q 997 2584 770 2862 
Q 544 3141 544 3541 
Q 544 4100 942 4425 
Q 1341 4750 2034 4750 
Q 2731 4750 3128 4425 
Q 3525 4100 3525 3541 
Q 3525 3141 3298 2862 
Q 3072 2584 2669 2484 
Q 3125 2378 3379 2068 
Q 3634 1759 3634 1313 
Q 3634 634 3220 271 
Q 2806 -91 2034 -91 
Q 1263 -91 848 271 
Q 434 634 434 1313 
Q 434 1759 690 2068 
Q 947 2378 1403 2484 
z
M 1172 3481 
Q 1172 3119 1398 2916 
Q 1625 2713 2034 2713 
Q 2441 2713 2670 2916 
Q 2900 3119 2900 3481 
Q 2900 3844 2670 4047 
Q 2441 4250 2034 4250 
Q 1625 4250 1398 4047 
Q 1172 3844 1172 3481 
z
" transform="scale(0.015625)"/>
      <path id="DejaVuSans-66" d="M 2375 4863 
L 2375 4384 
L 1825 4384 
Q 1516 4384 1395 4259 
Q 1275 4134 1275 3809 
L 1275 3500 
L 2222 3500 
L 2222 3053 
L 1275 3053 
L 1275 0 
L 697 0 
L 697 3053 
L 147 3053 
L 147 3500 
L 697 3500 
L 697 3744 
Q 697 4328 969 4595 
Q 1241 4863 1831 4863 
L 2375 4863 
z
" transform="scale(0.015625)"/>
      <path id="DejaVuSans-6b" d="M 581 4863 
L 1159 4863 
L 1159 1991 
L 2875 3500 
L 3609 3500 
L 1753 1863 
L 3688 0 
L 2938 0 
L 1159 1709 
L 1159 0 
L 581 0 
L 581 4863 
z
" transform="scale(0.015625)"/>
     </defs>
     <use xlink:href="#DejaVuSans-63"/>
     <use xlink:href="#DejaVuSans-69" transform="translate(54.980469 0)"/>
     <use xlink:href="#DejaVuSans-72" transform="translate(82.763672 0)"/>
     <use xlink:href="#DejaVuSans-63" transform="translate(121.626953 0)"/>
     <use xlink:href="#DejaVuSans-75" transform="translate(176.607422 0)"/>
     <use xlink:href="#DejaVuSans-6c" transform="translate(239.986328 0)"/>
     <use xlink:href="#DejaVuSans-6f" transform="translate(267.769531 0)"/>
     <use xlink:href="#DejaVuSans-73" transform="translate(328.951172 0)"/>
     <use xlink:href="#DejaVuSans-5f" transform="translate(381.050781 0)"/>
     <use xlink:href="#DejaVuSans-6c" transform="translate(431.050781 0)"/>
     <use xlink:href="#DejaVuSans-6f" transform="translate(458.833984 0)"/>
     <use xlink:href="#DejaVuSans-20" transform="translate(520.015625 0)"/>
     <use xlink:href="#DejaVuSans-31" transform="translate(551.802734 0)"/>
     <use xlink:href="#DejaVuSans-31" transform="translate(615.425781 0)"/>
     <use xlink:href="#DejaVuSans-38" transform="translate(679.048828 0)"/>
     <use xlink:href="#DejaVuSans-38" transform="translate(742.671875 0)"/>
     <use xlink:href="#DejaVuSans-20" transform="translate(806.294922 0)"/>
     <use xlink:href="#DejaVuSans-66" transform="translate(838.082031 0)"/>
     <use xlink:href="#DejaVuSans-6b" transform="translate(873.287109 0)"/>
     <use xlink:href="#DejaVuSans-64" transform="translate(931.197266 0)"/>
     <use xlink:href="#DejaVuSans-63" transform="translate(994.673828 0)"/>
    </g>
   </g>
  </g>
  <g id="axes_2">
   <g id="patch_7">
    <path d="M 397.192028 312.24351 
L 411.898285 312.24351 
L 411.898285 18.118365 
L 397.192028 18.118365 
z
" style="fill: #ffffff"/>
   </g>
   <g id="QuadMesh_1">
    <path d="M 397.192028 312.24351 
L 411.898285 312.24351 
L 411.898285 294.942031 
L 397.192028 294.942031 
L 397.192028 312.24351 
" clip-path="url(#pfa5597513d)" style="fill: #460b5e"/>
    <path d="M 397.192028 294.942031 
L 411.898285 294.942031 
L 411.898285 277.640552 
L 397.192028 277.640552 
L 397.192028 294.942031 
" clip-path="url(#pfa5597513d)" style="fill: #482071"/>
    <path d="M 397.192028 277.640552 
L 411.898285 277.640552 
L 411.898285 260.339073 
L 397.192028 260.339073 
L 397.192028 277.640552 
" clip-path="url(#pfa5597513d)" style="fill: #46337f"/>
    <path d="M 397.192028 260.339073 
L 411.898285 260.339073 
L 411.898285 243.037594 
L 397.192028 243.037594 
L 397.192028 260.339073 
" clip-path="url(#pfa5597513d)" style="fill: #404588"/>
    <path d="M 397.192028 243.037594 
L 411.898285 243.037594 
L 411.898285 225.736114 
L 397.192028 225.736114 
L 397.192028 243.037594 
" clip-path="url(#pfa5597513d)" style="fill: #39558c"/>
    <path d="M 397.192028 225.736114 
L 411.898285 225.736114 
L 411.898285 208.434635 
L 397.192028 208.434635 
L 397.192028 225.736114 
" clip-path="url(#pfa5597513d)" style="fill: #32658e"/>
    <path d="M 397.192028 208.434635 
L 411.898285 208.434635 
L 411.898285 191.133156 
L 397.192028 191.133156 
L 397.192028 208.434635 
" clip-path="url(#pfa5597513d)" style="fill: #2c738e"/>
    <path d="M 397.192028 191.133156 
L 411.898285 191.133156 
L 411.898285 173.831677 
L 397.192028 173.831677 
L 397.192028 191.133156 
" clip-path="url(#pfa5597513d)" style="fill: #26828e"/>
    <path d="M 397.192028 173.831677 
L 411.898285 173.831677 
L 411.898285 156.530198 
L 397.192028 156.530198 
L 397.192028 173.831677 
" clip-path="url(#pfa5597513d)" style="fill: #21918c"/>
    <path d="M 397.192028 156.530198 
L 411.898285 156.530198 
L 411.898285 139.228719 
L 397.192028 139.228719 
L 397.192028 156.530198 
" clip-path="url(#pfa5597513d)" style="fill: #1f9f88"/>
    <path d="M 397.192028 139.228719 
L 411.898285 139.228719 
L 411.898285 121.92724 
L 397.192028 121.92724 
L 397.192028 139.228719 
" clip-path="url(#pfa5597513d)" style="fill: #26ad81"/>
    <path d="M 397.192028 121.92724 
L 411.898285 121.92724 
L 411.898285 104.625761 
L 397.192028 104.625761 
L 397.192028 121.92724 
" clip-path="url(#pfa5597513d)" style="fill: #3aba76"/>
    <path d="M 397.192028 104.625761 
L 411.898285 104.625761 
L 411.898285 87.324281 
L 397.192028 87.324281 
L 397.192028 104.625761 
" clip-path="url(#pfa5597513d)" style="fill: #56c667"/>
    <path d="M 397.192028 87.324281 
L 411.898285 87.324281 
L 411.898285 70.022802 
L 397.192028 70.022802 
L 397.192028 87.324281 
" clip-path="url(#pfa5597513d)" style="fill: #77d153"/>
    <path d="M 397.192028 70.022802 
L 411.898285 70.022802 
L 411.898285 52.721323 
L 397.192028 52.721323 
L 397.192028 70.022802 
" clip-path="url(#pfa5597513d)" style="fill: #9dd93b"/>
    <path d="M 397.192028 52.721323 
L 411.898285 52.721323 
L 411.898285 35.419844 
L 397.192028 35.419844 
L 397.192028 52.721323 
" clip-path="url(#pfa5597513d)" style="fill: #c5e021"/>
    <path d="M 397.192028 35.419844 
L 411.898285 35.419844 
L 411.898285 18.118365 
L 397.192028 18.118365 
L 397.192028 35.419844 
" clip-path="url(#pfa5597513d)" style="fill: #ece51b"/>
   </g>
   <g id="matplotlib.axis_3"/>
   <g id="matplotlib.axis_4">
    <g id="ytick_8">
     <g id="line2d_35">
      <defs>
       <path id="m4f36196f58" d="M 0 0 
L 3.5 0 
" style="stroke: #000000; stroke-width: 0.8"/>
      </defs>
      <g>
       <use xlink:href="#m4f36196f58" x="411.898285" y="294.942031" style="stroke: #000000; stroke-width: 0.8"/>
      </g>
     </g>
     <g id="text_14">
      <!-- 6.4 -->
      <g transform="translate(418.898285 298.74125) scale(0.1 -0.1)">
       <defs>
        <path id="DejaVuSans-36" d="M 2113 2584 
Q 1688 2584 1439 2293 
Q 1191 2003 1191 1497 
Q 1191 994 1439 701 
Q 1688 409 2113 409 
Q 2538 409 2786 701 
Q 3034 994 3034 1497 
Q 3034 2003 2786 2293 
Q 2538 2584 2113 2584 
z
M 3366 4563 
L 3366 3988 
Q 3128 4100 2886 4159 
Q 2644 4219 2406 4219 
Q 1781 4219 1451 3797 
Q 1122 3375 1075 2522 
Q 1259 2794 1537 2939 
Q 1816 3084 2150 3084 
Q 2853 3084 3261 2657 
Q 3669 2231 3669 1497 
Q 3669 778 3244 343 
Q 2819 -91 2113 -91 
Q 1303 -91 875 529 
Q 447 1150 447 2328 
Q 447 3434 972 4092 
Q 1497 4750 2381 4750 
Q 2619 4750 2861 4703 
Q 3103 4656 3366 4563 
z
" transform="scale(0.015625)"/>
       </defs>
       <use xlink:href="#DejaVuSans-2212"/>
       <use xlink:href="#DejaVuSans-36" transform="translate(83.789062 0)"/>
       <use xlink:href="#DejaVuSans-2e" transform="translate(147.412109 0)"/>
       <use xlink:href="#DejaVuSans-34" transform="translate(179.199219 0)"/>
      </g>
     </g>
    </g>
    <g id="ytick_9">
     <g id="line2d_36">
      <g>
       <use xlink:href="#m4f36196f58" x="411.898285" y="260.339073" style="stroke: #000000; stroke-width: 0.8"/>
      </g>
     </g>
     <g id="text_15">
      <!-- 5.6 -->
      <g transform="translate(418.898285 264.138291) scale(0.1 -0.1)">
       <use xlink:href="#DejaVuSans-2212"/>
       <use xlink:href="#DejaVuSans-35" transform="translate(83.789062 0)"/>
       <use xlink:href="#DejaVuSans-2e" transform="translate(147.412109 0)"/>
       <use xlink:href="#DejaVuSans-36" transform="translate(179.199219 0)"/>
      </g>
     </g>
    </g>
    <g id="ytick_10">
     <g id="line2d_37">
      <g>
       <use xlink:href="#m4f36196f58" x="411.898285" y="225.736114" style="stroke: #000000; stroke-width: 0.8"/>
      </g>
     </g>
     <g id="text_16">
      <!-- 4.8 -->
      <g transform="translate(418.898285 229.535333) scale(0.1 -0.1)">
       <use xlink:href="#DejaVuSans-2212"/>
       <use xlink:href="#DejaVuSans-34" transform="translate(83.789062 0)"/>
       <use xlink:href="#DejaVuSans-2e" transform="translate(147.412109 0)"/>
       <use xlink:href="#DejaVuSans-38" transform="translate(179.199219 0)"/>
      </g>
     </g>
    </g>
    <g id="ytick_11">
     <g id="line2d_38">
      <g>
       <use xlink:href="#m4f36196f58" x="411.898285" y="191.133156" style="stroke: #000000; stroke-width: 0.8"/>
      </g>
     </g>
     <g id="text_17">
      <!-- 4.0 -->
      <g transform="translate(418.898285 194.932375) scale(0.1 -0.1)">
       <use xlink:href="#DejaVuSans-2212"/>
       <use xlink:href="#DejaVuSans-34" transform="translate(83.789062 0)"/>
       <use xlink:href="#DejaVuSans-2e" transform="translate(147.412109 0)"/>
       <use xlink:href="#DejaVuSans-30" transform="translate(179.199219 0)"/>
      </g>
     </g>
    </g>
    <g id="ytick_12">
     <g id="line2d_39">
      <g>
       <use xlink:href="#m4f36196f58" x="411.898285" y="156.530198" style="stroke: #000000; stroke-width: 0.8"/>
      </g>
     </g>
     <g id="text_18">
      <!-- 3.2 -->
      <g transform="translate(418.898285 160.329417) scale(0.1 -0.1)">
       <use xlink:href="#DejaVuSans-2212"/>
       <use xlink:href="#DejaVuSans-33" transform="translate(83.789062 0)"/>
       <use xlink:href="#DejaVuSans-2e" transform="translate(147.412109 0)"/>
       <use xlink:href="#DejaVuSans-32" transform="translate(179.199219 0)"/>
      </g>
     </g>
    </g>
    <g id="ytick_13">
     <g id="line2d_40">
      <g>
       <use xlink:href="#m4f36196f58" x="411.898285" y="121.92724" style="stroke: #000000; stroke-width: 0.8"/>
      </g>
     </g>
     <g id="text_19">
      <!-- 2.4 -->
      <g transform="translate(418.898285 125.726458) scale(0.1 -0.1)">
       <use xlink:href="#DejaVuSans-2212"/>
       <use xlink:href="#DejaVuSans-32" transform="translate(83.789062 0)"/>
       <use xlink:href="#DejaVuSans-2e" transform="translate(147.412109 0)"/>
       <use xlink:href="#DejaVuSans-34" transform="translate(179.199219 0)"/>
      </g>
     </g>
    </g>
    <g id="ytick_14">
     <g id="line2d_41">
      <g>
       <use xlink:href="#m4f36196f58" x="411.898285" y="87.324281" style="stroke: #000000; stroke-width: 0.8"/>
      </g>
     </g>
     <g id="text_20">
      <!-- 1.6 -->
      <g transform="translate(418.898285 91.1235) scale(0.1 -0.1)">
       <use xlink:href="#DejaVuSans-2212"/>
       <use xlink:href="#DejaVuSans-31" transform="translate(83.789062 0)"/>
       <use xlink:href="#DejaVuSans-2e" transform="translate(147.412109 0)"/>
       <use xlink:href="#DejaVuSans-36" transform="translate(179.199219 0)"/>
      </g>
     </g>
    </g>
    <g id="ytick_15">
     <g id="line2d_42">
      <g>
       <use xlink:href="#m4f36196f58" x="411.898285" y="52.721323" style="stroke: #000000; stroke-width: 0.8"/>
      </g>
     </g>
     <g id="text_21">
      <!-- 0.8 -->
      <g transform="translate(418.898285 56.520542) scale(0.1 -0.1)">
       <use xlink:href="#DejaVuSans-2212"/>
       <use xlink:href="#DejaVuSans-30" transform="translate(83.789062 0)"/>
       <use xlink:href="#DejaVuSans-2e" transform="translate(147.412109 0)"/>
       <use xlink:href="#DejaVuSans-38" transform="translate(179.199219 0)"/>
      </g>
     </g>
    </g>
    <g id="ytick_16">
     <g id="line2d_43">
      <g>
       <use xlink:href="#m4f36196f58" x="411.898285" y="18.118365" style="stroke: #000000; stroke-width: 0.8"/>
      </g>
     </g>
     <g id="text_22">
      <!-- 0.0 -->
      <g transform="translate(418.898285 21.917584) scale(0.1 -0.1)">
       <use xlink:href="#DejaVuSans-30"/>
       <use xlink:href="#DejaVuSans-2e" transform="translate(63.623047 0)"/>
       <use xlink:href="#DejaVuSans-30" transform="translate(95.410156 0)"/>
      </g>
     </g>
    </g>
    <g id="text_23">
     <!-- Score -->
     <g transform="translate(454.779535 179.183281) rotate(-90) scale(0.1 -0.1)">
      <defs>
       <path id="DejaVuSans-53" d="M 3425 4513 
L 3425 3897 
Q 3066 4069 2747 4153 
Q 2428 4238 2131 4238 
Q 1616 4238 1336 4038 
Q 1056 3838 1056 3469 
Q 1056 3159 1242 3001 
Q 1428 2844 1947 2747 
L 2328 2669 
Q 3034 2534 3370 2195 
Q 3706 1856 3706 1288 
Q 3706 609 3251 259 
Q 2797 -91 1919 -91 
Q 1588 -91 1214 -16 
Q 841 59 441 206 
L 441 856 
Q 825 641 1194 531 
Q 1563 422 1919 422 
Q 2459 422 2753 634 
Q 3047 847 3047 1241 
Q 3047 1584 2836 1778 
Q 2625 1972 2144 2069 
L 1759 2144 
Q 1053 2284 737 2584 
Q 422 2884 422 3419 
Q 422 4038 858 4394 
Q 1294 4750 2059 4750 
Q 2388 4750 2728 4690 
Q 3069 4631 3425 4513 
z
" transform="scale(0.015625)"/>
       <path id="DejaVuSans-65" d="M 3597 1894 
L 3597 1613 
L 953 1613 
Q 991 1019 1311 708 
Q 1631 397 2203 397 
Q 2534 397 2845 478 
Q 3156 559 3463 722 
L 3463 178 
Q 3153 47 2828 -22 
Q 2503 -91 2169 -91 
Q 1331 -91 842 396 
Q 353 884 353 1716 
Q 353 2575 817 3079 
Q 1281 3584 2069 3584 
Q 2775 3584 3186 3129 
Q 3597 2675 3597 1894 
z
M 3022 2063 
Q 3016 2534 2758 2815 
Q 2500 3097 2075 3097 
Q 1594 3097 1305 2825 
Q 1016 2553 972 2059 
L 3022 2063 
z
" transform="scale(0.015625)"/>
      </defs>
      <use xlink:href="#DejaVuSans-53"/>
      <use xlink:href="#DejaVuSans-63" transform="translate(63.476562 0)"/>
      <use xlink:href="#DejaVuSans-6f" transform="translate(118.457031 0)"/>
      <use xlink:href="#DejaVuSans-72" transform="translate(179.638672 0)"/>
      <use xlink:href="#DejaVuSans-65" transform="translate(218.501953 0)"/>
     </g>
    </g>
   </g>
   <g id="LineCollection_1"/>
   <g id="patch_8">
    <path d="M 397.192028 312.24351 
L 404.545157 312.24351 
L 411.898285 312.24351 
L 411.898285 18.118365 
L 404.545157 18.118365 
L 397.192028 18.118365 
L 397.192028 312.24351 
z
" style="fill: none; stroke: #000000; stroke-width: 0.8; stroke-linejoin: miter; stroke-linecap: square"/>
   </g>
  </g>
 </g>
 <defs>
  <clipPath id="p7aa03e9f04">
   <rect x="39.58149" y="18.118365" width="329.390989" height="294.125145"/>
  </clipPath>
  <clipPath id="pfa5597513d">
   <rect x="397.192028" y="18.118365" width="14.706257" height="294.125145"/>
  </clipPath>
 </defs>
</svg>
