<?xml version="1.0" encoding="utf-8" standalone="no"?>
<!DOCTYPE svg PUBLIC "-//W3C//DTD SVG 1.1//EN"
  "http://www.w3.org/Graphics/SVG/1.1/DTD/svg11.dtd">
<svg xmlns:xlink="http://www.w3.org/1999/xlink" width="460.8pt" height="345.6pt" viewBox="0 0 460.8 345.6" xmlns="http://www.w3.org/2000/svg" version="1.1">
 <metadata>
  <rdf:RDF xmlns:dc="http://purl.org/dc/elements/1.1/" xmlns:cc="http://creativecommons.org/ns#" xmlns:rdf="http://www.w3.org/1999/02/22-rdf-syntax-ns#">
   <cc:Work>
    <dc:type rdf:resource="http://purl.org/dc/dcmitype/StillImage"/>
    <dc:date>2025-11-23T17:46:59.472947</dc:date>
    <dc:format>image/svg+xml</dc:format>
    <dc:creator>
     <cc:Agent>
      <dc:title>Matplotlib v3.10.7, https://matplotlib.org/</dc:title>
     </cc:Agent>
    </dc:creator>
   </cc:Work>
  </rdf:RDF>
 </metadata>
 <defs>
  <style type="text/css">*{stroke-linejoin: round; stroke-linecap: butt}</style>
 </defs>
 <g id="figure_1">
  <g id="patch_1">
   <path d="M 0 345.6 
L 460.8 345.6 
L 460.8 0 
L 0 0 
z
" style="fill: #ffffff"/>
  </g>
  <g id="axes_1">
   <g id="patch_2">
    <path d="M 53.74375 331.3 
L 450 331.3 
L 450 25.918125 
L 53.74375 25.918125 
z
" style="fill: #ffffff"/>
   </g>
   <g id="patch_3">
    <path d="M 251.871875 314.690282 
L 251.871875 314.690282 
L 251.871875 314.690282 
L 251.871875 314.690282 
z
" clip-path="url(#p8cf49ae71a)" style="fill: #96cac1; stroke: #626262; stroke-linejoin: miter"/>
   </g>
   <g id="patch_4">
    <path d="M 251.871875 314.690282 
L 251.871875 314.690282 
L 251.871875 314.690282 
L 251.871875 314.690282 
z
" clip-path="url(#p8cf49ae71a)" style="fill: #8aafc9; stroke: #626262; stroke-linejoin: miter"/>
   </g>
   <g id="patch_5">
    <path d="M 251.871875 314.690282 
L 251.871875 314.690282 
L 251.871875 314.690282 
L 251.871875 314.690282 
z
" clip-path="url(#p8cf49ae71a)" style="fill: #d9d9d9; stroke: #626262; stroke-linejoin: miter"/>
   </g>
   <g id="patch_6">
    <path d="M 251.871875 314.690282 
L 251.871875 314.690282 
L 251.871875 314.690282 
L 251.871875 314.690282 
z
" clip-path="url(#p8cf49ae71a)" style="fill: #c1bed6; stroke: #626262; stroke-linejoin: miter"/>
   </g>
   <g id="patch_7">
    <path d="M 251.871875 314.690282 
L 251.871875 314.690282 
L 251.871875 314.690282 
L 251.871875 314.690282 
z
" clip-path="url(#p8cf49ae71a)" style="fill: #f6f6bc; stroke: #626262; stroke-linejoin: miter"/>
   </g>
   <g id="patch_8">
    <path d="M 251.871875 314.690282 
L 251.871875 314.690282 
L 251.871875 314.690282 
L 251.871875 314.690282 
z
" clip-path="url(#p8cf49ae71a)" style="fill: #ea8e83; stroke: #626262; stroke-linejoin: miter"/>
   </g>
   <g id="patch_9">
    <path d="M 251.871875 314.690282 
L 251.871875 314.690282 
L 251.871875 314.690282 
L 251.871875 314.690282 
z
" clip-path="url(#p8cf49ae71a)" style="fill: #eab375; stroke: #626262; stroke-linejoin: miter"/>
   </g>
   <g id="patch_10">
    <path d="M 251.871875 314.690282 
L 251.871875 314.690282 
L 251.871875 314.690282 
L 251.871875 314.690282 
z
" clip-path="url(#p8cf49ae71a)" style="fill: #afcf78; stroke: #626262; stroke-linejoin: miter"/>
   </g>
   <g id="matplotlib.axis_1">
    <g id="xtick_1">
     <g id="line2d_1">
      <defs>
       <path id="mbd3d6d9a77" d="M 0 0 
L 0 3.5 
" style="stroke: #000000; stroke-width: 0.8"/>
      </defs>
      <g>
       <use xlink:href="#mbd3d6d9a77" x="251.871875" y="331.3" style="stroke: #000000; stroke-width: 0.8"/>
      </g>
     </g>
    </g>
   </g>
   <g id="matplotlib.axis_2">
    <g id="ytick_1">
     <g id="line2d_2">
      <defs>
       <path id="me5d7ab2996" d="M 0 0 
L -3.5 0 
" style="stroke: #000000; stroke-width: 0.8"/>
      </defs>
      <g>
       <use xlink:href="#me5d7ab2996" x="53.74375" y="314.690282" style="stroke: #000000; stroke-width: 0.8"/>
      </g>
     </g>
     <g id="text_1">
      <!-- 0.00 -->
      <g transform="translate(24.478125 318.489501) scale(0.1 -0.1)">
       <defs>
        <path id="DejaVuSans-30" d="M 2034 4250 
Q 1547 4250 1301 3770 
Q 1056 3291 1056 2328 
Q 1056 1369 1301 889 
Q 1547 409 2034 409 
Q 2525 409 2770 889 
Q 3016 1369 3016 2328 
Q 3016 3291 2770 3770 
Q 2525 4250 2034 4250 
z
M 2034 4750 
Q 2819 4750 3233 4129 
Q 3647 3509 3647 2328 
Q 3647 1150 3233 529 
Q 2819 -91 2034 -91 
Q 1250 -91 836 529 
Q 422 1150 422 2328 
Q 422 3509 836 4129 
Q 1250 4750 2034 4750 
z
" transform="scale(0.015625)"/>
        <path id="DejaVuSans-2e" d="M 684 794 
L 1344 794 
L 1344 0 
L 684 0 
L 684 794 
z
" transform="scale(0.015625)"/>
       </defs>
       <use xlink:href="#DejaVuSans-30"/>
       <use xlink:href="#DejaVuSans-2e" transform="translate(63.623047 0)"/>
       <use xlink:href="#DejaVuSans-30" transform="translate(95.410156 0)"/>
       <use xlink:href="#DejaVuSans-30" transform="translate(159.033203 0)"/>
      </g>
     </g>
    </g>
    <g id="ytick_2">
     <g id="line2d_3">
      <g>
       <use xlink:href="#me5d7ab2996" x="53.74375" y="279.43496" style="stroke: #000000; stroke-width: 0.8"/>
      </g>
     </g>
     <g id="text_2">
      <!-- 0.02 -->
      <g transform="translate(24.478125 283.234179) scale(0.1 -0.1)">
       <defs>
        <path id="DejaVuSans-32" d="M 1228 531 
L 3431 531 
L 3431 0 
L 469 0 
L 469 531 
Q 828 903 1448 1529 
Q 2069 2156 2228 2338 
Q 2531 2678 2651 2914 
Q 2772 3150 2772 3378 
Q 2772 3750 2511 3984 
Q 2250 4219 1831 4219 
Q 1534 4219 1204 4116 
Q 875 4013 500 3803 
L 500 4441 
Q 881 4594 1212 4672 
Q 1544 4750 1819 4750 
Q 2544 4750 2975 4387 
Q 3406 4025 3406 3419 
Q 3406 3131 3298 2873 
Q 3191 2616 2906 2266 
Q 2828 2175 2409 1742 
Q 1991 1309 1228 531 
z
" transform="scale(0.015625)"/>
       </defs>
       <use xlink:href="#DejaVuSans-30"/>
       <use xlink:href="#DejaVuSans-2e" transform="translate(63.623047 0)"/>
       <use xlink:href="#DejaVuSans-30" transform="translate(95.410156 0)"/>
       <use xlink:href="#DejaVuSans-32" transform="translate(159.033203 0)"/>
      </g>
     </g>
    </g>
    <g id="ytick_3">
     <g id="line2d_4">
      <g>
       <use xlink:href="#me5d7ab2996" x="53.74375" y="244.179638" style="stroke: #000000; stroke-width: 0.8"/>
      </g>
     </g>
     <g id="text_3">
      <!-- 0.04 -->
      <g transform="translate(24.478125 247.978857) scale(0.1 -0.1)">
       <defs>
        <path id="DejaVuSans-34" d="M 2419 4116 
L 825 1625 
L 2419 1625 
L 2419 4116 
z
M 2253 4666 
L 3047 4666 
L 3047 1625 
L 3713 1625 
L 3713 1100 
L 3047 1100 
L 3047 0 
L 2419 0 
L 2419 1100 
L 313 1100 
L 313 1709 
L 2253 4666 
z
" transform="scale(0.015625)"/>
       </defs>
       <use xlink:href="#DejaVuSans-30"/>
       <use xlink:href="#DejaVuSans-2e" transform="translate(63.623047 0)"/>
       <use xlink:href="#DejaVuSans-30" transform="translate(95.410156 0)"/>
       <use xlink:href="#DejaVuSans-34" transform="translate(159.033203 0)"/>
      </g>
     </g>
    </g>
    <g id="ytick_4">
     <g id="line2d_5">
      <g>
       <use xlink:href="#me5d7ab2996" x="53.74375" y="208.924315" style="stroke: #000000; stroke-width: 0.8"/>
      </g>
     </g>
     <g id="text_4">
      <!-- 0.06 -->
      <g transform="translate(24.478125 212.723534) scale(0.1 -0.1)">
       <defs>
        <path id="DejaVuSans-36" d="M 2113 2584 
Q 1688 2584 1439 2293 
Q 1191 2003 1191 1497 
Q 1191 994 1439 701 
Q 1688 409 2113 409 
Q 2538 409 2786 701 
Q 3034 994 3034 1497 
Q 3034 2003 2786 2293 
Q 2538 2584 2113 2584 
z
M 3366 4563 
L 3366 3988 
Q 3128 4100 2886 4159 
Q 2644 4219 2406 4219 
Q 1781 4219 1451 3797 
Q 1122 3375 1075 2522 
Q 1259 2794 1537 2939 
Q 1816 3084 2150 3084 
Q 2853 3084 3261 2657 
Q 3669 2231 3669 1497 
Q 3669 778 3244 343 
Q 2819 -91 2113 -91 
Q 1303 -91 875 529 
Q 447 1150 447 2328 
Q 447 3434 972 4092 
Q 1497 4750 2381 4750 
Q 2619 4750 2861 4703 
Q 3103 4656 3366 4563 
z
" transform="scale(0.015625)"/>
       </defs>
       <use xlink:href="#DejaVuSans-30"/>
       <use xlink:href="#DejaVuSans-2e" transform="translate(63.623047 0)"/>
       <use xlink:href="#DejaVuSans-30" transform="translate(95.410156 0)"/>
       <use xlink:href="#DejaVuSans-36" transform="translate(159.033203 0)"/>
      </g>
     </g>
    </g>
    <g id="ytick_5">
     <g id="line2d_6">
      <g>
       <use xlink:href="#me5d7ab2996" x="53.74375" y="173.668993" style="stroke: #000000; stroke-width: 0.8"/>
      </g>
     </g>
     <g id="text_5">
      <!-- 0.08 -->
      <g transform="translate(24.478125 177.468212) scale(0.1 -0.1)">
       <defs>
        <path id="DejaVuSans-38" d="M 2034 2216 
Q 1584 2216 1326 1975 
Q 1069 1734 1069 1313 
Q 1069 891 1326 650 
Q 1584 409 2034 409 
Q 2484 409 2743 651 
Q 3003 894 3003 1313 
Q 3003 1734 2745 1975 
Q 2488 2216 2034 2216 
z
M 1403 2484 
Q 997 2584 770 2862 
Q 544 3141 544 3541 
Q 544 4100 942 4425 
Q 1341 4750 2034 4750 
Q 2731 4750 3128 4425 
Q 3525 4100 3525 3541 
Q 3525 3141 3298 2862 
Q 3072 2584 2669 2484 
Q 3125 2378 3379 2068 
Q 3634 1759 3634 1313 
Q 3634 634 3220 271 
Q 2806 -91 2034 -91 
Q 1263 -91 848 271 
Q 434 634 434 1313 
Q 434 1759 690 2068 
Q 947 2378 1403 2484 
z
M 1172 3481 
Q 1172 3119 1398 2916 
Q 1625 2713 2034 2713 
Q 2441 2713 2670 2916 
Q 2900 3119 2900 3481 
Q 2900 3844 2670 4047 
Q 2441 4250 2034 4250 
Q 1625 4250 1398 4047 
Q 1172 3844 1172 3481 
z
" transform="scale(0.015625)"/>
       </defs>
       <use xlink:href="#DejaVuSans-30"/>
       <use xlink:href="#DejaVuSans-2e" transform="translate(63.623047 0)"/>
       <use xlink:href="#DejaVuSans-30" transform="translate(95.410156 0)"/>
       <use xlink:href="#DejaVuSans-38" transform="translate(159.033203 0)"/>
      </g>
     </g>
    </g>
    <g id="ytick_6">
     <g id="line2d_7">
      <g>
       <use xlink:href="#me5d7ab2996" x="53.74375" y="138.413671" style="stroke: #000000; stroke-width: 0.8"/>
      </g>
     </g>
     <g id="text_6">
      <!-- 0.10 -->
      <g transform="translate(24.478125 142.21289) scale(0.1 -0.1)">
       <defs>
        <path id="DejaVuSans-31" d="M 794 531 
L 1825 531 
L 1825 4091 
L 703 3866 
L 703 4441 
L 1819 4666 
L 2450 4666 
L 2450 531 
L 3481 531 
L 3481 0 
L 794 0 
L 794 531 
z
" transform="scale(0.015625)"/>
       </defs>
       <use xlink:href="#DejaVuSans-30"/>
       <use xlink:href="#DejaVuSans-2e" transform="translate(63.623047 0)"/>
       <use xlink:href="#DejaVuSans-31" transform="translate(95.410156 0)"/>
       <use xlink:href="#DejaVuSans-30" transform="translate(159.033203 0)"/>
      </g>
     </g>
    </g>
    <g id="ytick_7">
     <g id="line2d_8">
      <g>
       <use xlink:href="#me5d7ab2996" x="53.74375" y="103.158349" style="stroke: #000000; stroke-width: 0.8"/>
      </g>
     </g>
     <g id="text_7">
      <!-- 0.12 -->
      <g transform="translate(24.478125 106.957567) scale(0.1 -0.1)">
       <use xlink:href="#DejaVuSans-30"/>
       <use xlink:href="#DejaVuSans-2e" transform="translate(63.623047 0)"/>
       <use xlink:href="#DejaVuSans-31" transform="translate(95.410156 0)"/>
       <use xlink:href="#DejaVuSans-32" transform="translate(159.033203 0)"/>
      </g>
     </g>
    </g>
    <g id="ytick_8">
     <g id="line2d_9">
      <g>
       <use xlink:href="#me5d7ab2996" x="53.74375" y="67.903026" style="stroke: #000000; stroke-width: 0.8"/>
      </g>
     </g>
     <g id="text_8">
      <!-- 0.14 -->
      <g transform="translate(24.478125 71.702245) scale(0.1 -0.1)">
       <use xlink:href="#DejaVuSans-30"/>
       <use xlink:href="#DejaVuSans-2e" transform="translate(63.623047 0)"/>
       <use xlink:href="#DejaVuSans-31" transform="translate(95.410156 0)"/>
       <use xlink:href="#DejaVuSans-34" transform="translate(159.033203 0)"/>
      </g>
     </g>
    </g>
    <g id="ytick_9">
     <g id="line2d_10">
      <g>
       <use xlink:href="#me5d7ab2996" x="53.74375" y="32.647704" style="stroke: #000000; stroke-width: 0.8"/>
      </g>
     </g>
     <g id="text_9">
      <!-- 0.16 -->
      <g transform="translate(24.478125 36.446923) scale(0.1 -0.1)">
       <use xlink:href="#DejaVuSans-30"/>
       <use xlink:href="#DejaVuSans-2e" transform="translate(63.623047 0)"/>
       <use xlink:href="#DejaVuSans-31" transform="translate(95.410156 0)"/>
       <use xlink:href="#DejaVuSans-36" transform="translate(159.033203 0)"/>
      </g>
     </g>
    </g>
    <g id="text_10">
     <!-- r2 -->
     <g transform="translate(18.398438 183.845781) rotate(-90) scale(0.1 -0.1)">
      <defs>
       <path id="DejaVuSans-72" d="M 2631 2963 
Q 2534 3019 2420 3045 
Q 2306 3072 2169 3072 
Q 1681 3072 1420 2755 
Q 1159 2438 1159 1844 
L 1159 0 
L 581 0 
L 581 3500 
L 1159 3500 
L 1159 2956 
Q 1341 3275 1631 3429 
Q 1922 3584 2338 3584 
Q 2397 3584 2469 3576 
Q 2541 3569 2628 3553 
L 2631 2963 
z
" transform="scale(0.015625)"/>
      </defs>
      <use xlink:href="#DejaVuSans-72"/>
      <use xlink:href="#DejaVuSans-32" transform="translate(41.113281 0)"/>
     </g>
    </g>
   </g>
   <g id="patch_11">
    <path d="M 97.331938 219.377858 
L 129.032437 219.377858 
L 129.032437 157.648983 
L 97.331938 157.648983 
L 97.331938 219.377858 
z
" clip-path="url(#p8cf49ae71a)" style="fill: #96cac1; stroke: #626262; stroke-linejoin: miter"/>
   </g>
   <g id="line2d_11">
    <path d="M 113.182187 219.377858 
L 113.182187 300.370243 
" clip-path="url(#p8cf49ae71a)" style="fill: none; stroke: #626262"/>
   </g>
   <g id="line2d_12">
    <path d="M 113.182187 157.648983 
L 113.182187 89.662778 
" clip-path="url(#p8cf49ae71a)" style="fill: none; stroke: #626262"/>
   </g>
   <g id="line2d_13">
    <path d="M 105.257062 300.370243 
L 121.107313 300.370243 
" clip-path="url(#p8cf49ae71a)" style="fill: none; stroke: #626262; stroke-linecap: square"/>
   </g>
   <g id="line2d_14">
    <path d="M 105.257062 89.662778 
L 121.107313 89.662778 
" clip-path="url(#p8cf49ae71a)" style="fill: none; stroke: #626262; stroke-linecap: square"/>
   </g>
   <g id="line2d_15">
    <defs>
     <path id="ma2df202bf1" d="M 0 3 
C 0.795609 3 1.55874 2.683901 2.12132 2.12132 
C 2.683901 1.55874 3 0.795609 3 0 
C 3 -0.795609 2.683901 -1.55874 2.12132 -2.12132 
C 1.55874 -2.683901 0.795609 -3 0 -3 
C -0.795609 -3 -1.55874 -2.683901 -2.12132 -2.12132 
C -2.683901 -1.55874 -3 -0.795609 -3 0 
C -3 0.795609 -2.683901 1.55874 -2.12132 2.12132 
C -1.55874 2.683901 -0.795609 3 0 3 
z
" style="stroke: #626262"/>
    </defs>
    <g clip-path="url(#p8cf49ae71a)">
     <use xlink:href="#ma2df202bf1" x="113.182187" y="314.690282" style="fill-opacity: 0; stroke: #626262"/>
     <use xlink:href="#ma2df202bf1" x="113.182187" y="39.799119" style="fill-opacity: 0; stroke: #626262"/>
    </g>
   </g>
   <g id="patch_12">
    <path d="M 136.957562 256.065174 
L 168.658063 256.065174 
L 168.658063 185.141438 
L 136.957562 185.141438 
L 136.957562 256.065174 
z
" clip-path="url(#p8cf49ae71a)" style="fill: #8aafc9; stroke: #626262; stroke-linejoin: miter"/>
   </g>
   <g id="line2d_16">
    <path d="M 152.807813 256.065174 
L 152.807813 317.419006 
" clip-path="url(#p8cf49ae71a)" style="fill: none; stroke: #626262"/>
   </g>
   <g id="line2d_17">
    <path d="M 152.807813 185.141438 
L 152.807813 158.506297 
" clip-path="url(#p8cf49ae71a)" style="fill: none; stroke: #626262"/>
   </g>
   <g id="line2d_18">
    <path d="M 144.882687 317.419006 
L 160.732937 317.419006 
" clip-path="url(#p8cf49ae71a)" style="fill: none; stroke: #626262; stroke-linecap: square"/>
   </g>
   <g id="line2d_19">
    <path d="M 144.882687 158.506297 
L 160.732937 158.506297 
" clip-path="url(#p8cf49ae71a)" style="fill: none; stroke: #626262; stroke-linecap: square"/>
   </g>
   <g id="line2d_20"/>
   <g id="patch_13">
    <path d="M 176.583187 169.227212 
L 208.283687 169.227212 
L 208.283687 114.301945 
L 176.583187 114.301945 
L 176.583187 169.227212 
z
" clip-path="url(#p8cf49ae71a)" style="fill: #d9d9d9; stroke: #626262; stroke-linejoin: miter"/>
   </g>
   <g id="line2d_21">
    <path d="M 192.433437 169.227212 
L 192.433437 231.100741 
" clip-path="url(#p8cf49ae71a)" style="fill: none; stroke: #626262"/>
   </g>
   <g id="line2d_22">
    <path d="M 192.433437 114.301945 
L 192.433437 81.271891 
" clip-path="url(#p8cf49ae71a)" style="fill: none; stroke: #626262"/>
   </g>
   <g id="line2d_23">
    <path d="M 184.508312 231.100741 
L 200.358563 231.100741 
" clip-path="url(#p8cf49ae71a)" style="fill: none; stroke: #626262; stroke-linecap: square"/>
   </g>
   <g id="line2d_24">
    <path d="M 184.508312 81.271891 
L 200.358563 81.271891 
" clip-path="url(#p8cf49ae71a)" style="fill: none; stroke: #626262; stroke-linecap: square"/>
   </g>
   <g id="line2d_25"/>
   <g id="patch_14">
    <path d="M 216.208812 259.583972 
L 247.909312 259.583972 
L 247.909312 245.977258 
L 216.208812 245.977258 
L 216.208812 259.583972 
z
" clip-path="url(#p8cf49ae71a)" style="fill: #c1bed6; stroke: #626262; stroke-linejoin: miter"/>
   </g>
   <g id="line2d_26">
    <path d="M 232.059062 259.583972 
L 232.059062 269.008931 
" clip-path="url(#p8cf49ae71a)" style="fill: none; stroke: #626262"/>
   </g>
   <g id="line2d_27">
    <path d="M 232.059062 245.977258 
L 232.059062 233.779066 
" clip-path="url(#p8cf49ae71a)" style="fill: none; stroke: #626262"/>
   </g>
   <g id="line2d_28">
    <path d="M 224.133938 269.008931 
L 239.984187 269.008931 
" clip-path="url(#p8cf49ae71a)" style="fill: none; stroke: #626262; stroke-linecap: square"/>
   </g>
   <g id="line2d_29">
    <path d="M 224.133938 233.779066 
L 239.984187 233.779066 
" clip-path="url(#p8cf49ae71a)" style="fill: none; stroke: #626262; stroke-linecap: square"/>
   </g>
   <g id="line2d_30">
    <g clip-path="url(#p8cf49ae71a)">
     <use xlink:href="#ma2df202bf1" x="232.059062" y="286.121394" style="fill-opacity: 0; stroke: #626262"/>
     <use xlink:href="#ma2df202bf1" x="232.059062" y="315.107646" style="fill-opacity: 0; stroke: #626262"/>
     <use xlink:href="#ma2df202bf1" x="232.059062" y="311.696109" style="fill-opacity: 0; stroke: #626262"/>
     <use xlink:href="#ma2df202bf1" x="232.059062" y="280.753494" style="fill-opacity: 0; stroke: #626262"/>
     <use xlink:href="#ma2df202bf1" x="232.059062" y="213.568325" style="fill-opacity: 0; stroke: #626262"/>
     <use xlink:href="#ma2df202bf1" x="232.059062" y="224.741645" style="fill-opacity: 0; stroke: #626262"/>
    </g>
   </g>
   <g id="patch_15">
    <path d="M 255.834437 252.184536 
L 287.534937 252.184536 
L 287.534937 166.879207 
L 255.834437 166.879207 
L 255.834437 252.184536 
z
" clip-path="url(#p8cf49ae71a)" style="fill: #f6f6bc; stroke: #626262; stroke-linejoin: miter"/>
   </g>
   <g id="line2d_31">
    <path d="M 271.684687 252.184536 
L 271.684687 314.690282 
" clip-path="url(#p8cf49ae71a)" style="fill: none; stroke: #626262"/>
   </g>
   <g id="line2d_32">
    <path d="M 271.684687 166.879207 
L 271.684687 93.536402 
" clip-path="url(#p8cf49ae71a)" style="fill: none; stroke: #626262"/>
   </g>
   <g id="line2d_33">
    <path d="M 263.759562 314.690282 
L 279.609812 314.690282 
" clip-path="url(#p8cf49ae71a)" style="fill: none; stroke: #626262; stroke-linecap: square"/>
   </g>
   <g id="line2d_34">
    <path d="M 263.759562 93.536402 
L 279.609812 93.536402 
" clip-path="url(#p8cf49ae71a)" style="fill: none; stroke: #626262; stroke-linecap: square"/>
   </g>
   <g id="line2d_35"/>
   <g id="patch_16">
    <path d="M 295.460062 255.795781 
L 327.160562 255.795781 
L 327.160562 200.519827 
L 295.460062 200.519827 
L 295.460062 255.795781 
z
" clip-path="url(#p8cf49ae71a)" style="fill: #ea8e83; stroke: #626262; stroke-linejoin: miter"/>
   </g>
   <g id="line2d_36">
    <path d="M 311.310313 255.795781 
L 311.310313 289.733156 
" clip-path="url(#p8cf49ae71a)" style="fill: none; stroke: #626262"/>
   </g>
   <g id="line2d_37">
    <path d="M 311.310313 200.519827 
L 311.310313 158.506297 
" clip-path="url(#p8cf49ae71a)" style="fill: none; stroke: #626262"/>
   </g>
   <g id="line2d_38">
    <path d="M 303.385187 289.733156 
L 319.235437 289.733156 
" clip-path="url(#p8cf49ae71a)" style="fill: none; stroke: #626262; stroke-linecap: square"/>
   </g>
   <g id="line2d_39">
    <path d="M 303.385187 158.506297 
L 319.235437 158.506297 
" clip-path="url(#p8cf49ae71a)" style="fill: none; stroke: #626262; stroke-linecap: square"/>
   </g>
   <g id="line2d_40"/>
   <g id="patch_17">
    <path d="M 335.085688 314.695684 
L 366.786188 314.695684 
L 366.786188 314.691658 
L 335.085688 314.691658 
L 335.085688 314.695684 
z
" clip-path="url(#p8cf49ae71a)" style="fill: #eab375; stroke: #626262; stroke-linejoin: miter"/>
   </g>
   <g id="line2d_41">
    <path d="M 350.935938 314.695684 
L 350.935938 314.699503 
" clip-path="url(#p8cf49ae71a)" style="fill: none; stroke: #626262"/>
   </g>
   <g id="line2d_42">
    <path d="M 350.935938 314.691658 
L 350.935938 314.689922 
" clip-path="url(#p8cf49ae71a)" style="fill: none; stroke: #626262"/>
   </g>
   <g id="line2d_43">
    <path d="M 343.010813 314.699503 
L 358.861063 314.699503 
" clip-path="url(#p8cf49ae71a)" style="fill: none; stroke: #626262; stroke-linecap: square"/>
   </g>
   <g id="line2d_44">
    <path d="M 343.010813 314.689922 
L 358.861063 314.689922 
" clip-path="url(#p8cf49ae71a)" style="fill: none; stroke: #626262; stroke-linecap: square"/>
   </g>
   <g id="line2d_45">
    <g clip-path="url(#p8cf49ae71a)">
     <use xlink:href="#ma2df202bf1" x="350.935938" y="314.703168" style="fill-opacity: 0; stroke: #626262"/>
     <use xlink:href="#ma2df202bf1" x="350.935938" y="314.702731" style="fill-opacity: 0; stroke: #626262"/>
     <use xlink:href="#ma2df202bf1" x="350.935938" y="314.653763" style="fill-opacity: 0; stroke: #626262"/>
    </g>
   </g>
   <g id="patch_18">
    <path d="M 374.711313 314.697863 
L 406.411812 314.697863 
L 406.411812 314.692603 
L 374.711313 314.692603 
L 374.711313 314.697863 
z
" clip-path="url(#p8cf49ae71a)" style="fill: #afcf78; stroke: #626262; stroke-linejoin: miter"/>
   </g>
   <g id="line2d_46">
    <path d="M 390.561563 314.697863 
L 390.561563 314.704997 
" clip-path="url(#p8cf49ae71a)" style="fill: none; stroke: #626262"/>
   </g>
   <g id="line2d_47">
    <path d="M 390.561563 314.692603 
L 390.561563 314.689485 
" clip-path="url(#p8cf49ae71a)" style="fill: none; stroke: #626262"/>
   </g>
   <g id="line2d_48">
    <path d="M 382.636437 314.704997 
L 398.486688 314.704997 
" clip-path="url(#p8cf49ae71a)" style="fill: none; stroke: #626262; stroke-linecap: square"/>
   </g>
   <g id="line2d_49">
    <path d="M 382.636437 314.689485 
L 398.486688 314.689485 
" clip-path="url(#p8cf49ae71a)" style="fill: none; stroke: #626262; stroke-linecap: square"/>
   </g>
   <g id="line2d_50">
    <g clip-path="url(#p8cf49ae71a)">
     <use xlink:href="#ma2df202bf1" x="390.561563" y="314.71016" style="fill-opacity: 0; stroke: #626262"/>
     <use xlink:href="#ma2df202bf1" x="390.561563" y="314.709741" style="fill-opacity: 0; stroke: #626262"/>
     <use xlink:href="#ma2df202bf1" x="390.561563" y="314.659179" style="fill-opacity: 0; stroke: #626262"/>
    </g>
   </g>
   <g id="line2d_51">
    <path d="M 53.74375 157.049859 
L 450 157.049859 
" clip-path="url(#p8cf49ae71a)" style="fill: none; stroke-dasharray: 1.5,2.475; stroke-dashoffset: 0; stroke: #808080; stroke-width: 1.5"/>
   </g>
   <g id="line2d_52">
    <path d="M 97.331938 189.435343 
L 129.032437 189.435343 
" clip-path="url(#p8cf49ae71a)" style="fill: none; stroke: #626262"/>
   </g>
   <g id="line2d_53">
    <path d="M 136.957562 223.86753 
L 168.658063 223.86753 
" clip-path="url(#p8cf49ae71a)" style="fill: none; stroke: #626262"/>
   </g>
   <g id="line2d_54">
    <path d="M 176.583187 157.049859 
L 208.283687 157.049859 
" clip-path="url(#p8cf49ae71a)" style="fill: none; stroke: #626262"/>
   </g>
   <g id="line2d_55">
    <path d="M 216.208812 253.987804 
L 247.909312 253.987804 
" clip-path="url(#p8cf49ae71a)" style="fill: none; stroke: #626262"/>
   </g>
   <g id="line2d_56">
    <path d="M 255.834437 222.792182 
L 287.534937 222.792182 
" clip-path="url(#p8cf49ae71a)" style="fill: none; stroke: #626262"/>
   </g>
   <g id="line2d_57">
    <path d="M 295.460062 223.86753 
L 327.160562 223.86753 
" clip-path="url(#p8cf49ae71a)" style="fill: none; stroke: #626262"/>
   </g>
   <g id="line2d_58">
    <path d="M 335.085688 314.692557 
L 366.786188 314.692557 
" clip-path="url(#p8cf49ae71a)" style="fill: none; stroke: #626262"/>
   </g>
   <g id="line2d_59">
    <path d="M 374.711313 314.695056 
L 406.411812 314.695056 
" clip-path="url(#p8cf49ae71a)" style="fill: none; stroke: #626262"/>
   </g>
   <g id="patch_19">
    <path d="M 53.74375 331.3 
L 53.74375 25.918125 
" style="fill: none; stroke: #000000; stroke-width: 0.8; stroke-linejoin: miter; stroke-linecap: square"/>
   </g>
   <g id="patch_20">
    <path d="M 450 331.3 
L 450 25.918125 
" style="fill: none; stroke: #000000; stroke-width: 0.8; stroke-linejoin: miter; stroke-linecap: square"/>
   </g>
   <g id="patch_21">
    <path d="M 53.74375 331.3 
L 450 331.3 
" style="fill: none; stroke: #000000; stroke-width: 0.8; stroke-linejoin: miter; stroke-linecap: square"/>
   </g>
   <g id="patch_22">
    <path d="M 53.74375 25.918125 
L 450 25.918125 
" style="fill: none; stroke: #000000; stroke-width: 0.8; stroke-linejoin: miter; stroke-linecap: square"/>
   </g>
   <g id="text_11">
    <!-- circulos_hi -  r2 por clf (boxplot) -->
    <g transform="translate(156.599375 19.918125) scale(0.12 -0.12)">
     <defs>
      <path id="DejaVuSans-63" d="M 3122 3366 
L 3122 2828 
Q 2878 2963 2633 3030 
Q 2388 3097 2138 3097 
Q 1578 3097 1268 2742 
Q 959 2388 959 1747 
Q 959 1106 1268 751 
Q 1578 397 2138 397 
Q 2388 397 2633 464 
Q 2878 531 3122 666 
L 3122 134 
Q 2881 22 2623 -34 
Q 2366 -91 2075 -91 
Q 1284 -91 818 406 
Q 353 903 353 1747 
Q 353 2603 823 3093 
Q 1294 3584 2113 3584 
Q 2378 3584 2631 3529 
Q 2884 3475 3122 3366 
z
" transform="scale(0.015625)"/>
      <path id="DejaVuSans-69" d="M 603 3500 
L 1178 3500 
L 1178 0 
L 603 0 
L 603 3500 
z
M 603 4863 
L 1178 4863 
L 1178 4134 
L 603 4134 
L 603 4863 
z
" transform="scale(0.015625)"/>
      <path id="DejaVuSans-75" d="M 544 1381 
L 544 3500 
L 1119 3500 
L 1119 1403 
Q 1119 906 1312 657 
Q 1506 409 1894 409 
Q 2359 409 2629 706 
Q 2900 1003 2900 1516 
L 2900 3500 
L 3475 3500 
L 3475 0 
L 2900 0 
L 2900 538 
Q 2691 219 2414 64 
Q 2138 -91 1772 -91 
Q 1169 -91 856 284 
Q 544 659 544 1381 
z
M 1991 3584 
L 1991 3584 
z
" transform="scale(0.015625)"/>
      <path id="DejaVuSans-6c" d="M 603 4863 
L 1178 4863 
L 1178 0 
L 603 0 
L 603 4863 
z
" transform="scale(0.015625)"/>
      <path id="DejaVuSans-6f" d="M 1959 3097 
Q 1497 3097 1228 2736 
Q 959 2375 959 1747 
Q 959 1119 1226 758 
Q 1494 397 1959 397 
Q 2419 397 2687 759 
Q 2956 1122 2956 1747 
Q 2956 2369 2687 2733 
Q 2419 3097 1959 3097 
z
M 1959 3584 
Q 2709 3584 3137 3096 
Q 3566 2609 3566 1747 
Q 3566 888 3137 398 
Q 2709 -91 1959 -91 
Q 1206 -91 779 398 
Q 353 888 353 1747 
Q 353 2609 779 3096 
Q 1206 3584 1959 3584 
z
" transform="scale(0.015625)"/>
      <path id="DejaVuSans-73" d="M 2834 3397 
L 2834 2853 
Q 2591 2978 2328 3040 
Q 2066 3103 1784 3103 
Q 1356 3103 1142 2972 
Q 928 2841 928 2578 
Q 928 2378 1081 2264 
Q 1234 2150 1697 2047 
L 1894 2003 
Q 2506 1872 2764 1633 
Q 3022 1394 3022 966 
Q 3022 478 2636 193 
Q 2250 -91 1575 -91 
Q 1294 -91 989 -36 
Q 684 19 347 128 
L 347 722 
Q 666 556 975 473 
Q 1284 391 1588 391 
Q 1994 391 2212 530 
Q 2431 669 2431 922 
Q 2431 1156 2273 1281 
Q 2116 1406 1581 1522 
L 1381 1569 
Q 847 1681 609 1914 
Q 372 2147 372 2553 
Q 372 3047 722 3315 
Q 1072 3584 1716 3584 
Q 2034 3584 2315 3537 
Q 2597 3491 2834 3397 
z
" transform="scale(0.015625)"/>
      <path id="DejaVuSans-5f" d="M 3263 -1063 
L 3263 -1509 
L -63 -1509 
L -63 -1063 
L 3263 -1063 
z
" transform="scale(0.015625)"/>
      <path id="DejaVuSans-68" d="M 3513 2113 
L 3513 0 
L 2938 0 
L 2938 2094 
Q 2938 2591 2744 2837 
Q 2550 3084 2163 3084 
Q 1697 3084 1428 2787 
Q 1159 2491 1159 1978 
L 1159 0 
L 581 0 
L 581 4863 
L 1159 4863 
L 1159 2956 
Q 1366 3272 1645 3428 
Q 1925 3584 2291 3584 
Q 2894 3584 3203 3211 
Q 3513 2838 3513 2113 
z
" transform="scale(0.015625)"/>
      <path id="DejaVuSans-20" transform="scale(0.015625)"/>
      <path id="DejaVuSans-2d" d="M 313 2009 
L 1997 2009 
L 1997 1497 
L 313 1497 
L 313 2009 
z
" transform="scale(0.015625)"/>
      <path id="DejaVuSans-70" d="M 1159 525 
L 1159 -1331 
L 581 -1331 
L 581 3500 
L 1159 3500 
L 1159 2969 
Q 1341 3281 1617 3432 
Q 1894 3584 2278 3584 
Q 2916 3584 3314 3078 
Q 3713 2572 3713 1747 
Q 3713 922 3314 415 
Q 2916 -91 2278 -91 
Q 1894 -91 1617 61 
Q 1341 213 1159 525 
z
M 3116 1747 
Q 3116 2381 2855 2742 
Q 2594 3103 2138 3103 
Q 1681 3103 1420 2742 
Q 1159 2381 1159 1747 
Q 1159 1113 1420 752 
Q 1681 391 2138 391 
Q 2594 391 2855 752 
Q 3116 1113 3116 1747 
z
" transform="scale(0.015625)"/>
      <path id="DejaVuSans-66" d="M 2375 4863 
L 2375 4384 
L 1825 4384 
Q 1516 4384 1395 4259 
Q 1275 4134 1275 3809 
L 1275 3500 
L 2222 3500 
L 2222 3053 
L 1275 3053 
L 1275 0 
L 697 0 
L 697 3053 
L 147 3053 
L 147 3500 
L 697 3500 
L 697 3744 
Q 697 4328 969 4595 
Q 1241 4863 1831 4863 
L 2375 4863 
z
" transform="scale(0.015625)"/>
      <path id="DejaVuSans-28" d="M 1984 4856 
Q 1566 4138 1362 3434 
Q 1159 2731 1159 2009 
Q 1159 1288 1364 580 
Q 1569 -128 1984 -844 
L 1484 -844 
Q 1016 -109 783 600 
Q 550 1309 550 2009 
Q 550 2706 781 3412 
Q 1013 4119 1484 4856 
L 1984 4856 
z
" transform="scale(0.015625)"/>
      <path id="DejaVuSans-62" d="M 3116 1747 
Q 3116 2381 2855 2742 
Q 2594 3103 2138 3103 
Q 1681 3103 1420 2742 
Q 1159 2381 1159 1747 
Q 1159 1113 1420 752 
Q 1681 391 2138 391 
Q 2594 391 2855 752 
Q 3116 1113 3116 1747 
z
M 1159 2969 
Q 1341 3281 1617 3432 
Q 1894 3584 2278 3584 
Q 2916 3584 3314 3078 
Q 3713 2572 3713 1747 
Q 3713 922 3314 415 
Q 2916 -91 2278 -91 
Q 1894 -91 1617 61 
Q 1341 213 1159 525 
L 1159 0 
L 581 0 
L 581 4863 
L 1159 4863 
L 1159 2969 
z
" transform="scale(0.015625)"/>
      <path id="DejaVuSans-78" d="M 3513 3500 
L 2247 1797 
L 3578 0 
L 2900 0 
L 1881 1375 
L 863 0 
L 184 0 
L 1544 1831 
L 300 3500 
L 978 3500 
L 1906 2253 
L 2834 3500 
L 3513 3500 
z
" transform="scale(0.015625)"/>
      <path id="DejaVuSans-74" d="M 1172 4494 
L 1172 3500 
L 2356 3500 
L 2356 3053 
L 1172 3053 
L 1172 1153 
Q 1172 725 1289 603 
Q 1406 481 1766 481 
L 2356 481 
L 2356 0 
L 1766 0 
Q 1100 0 847 248 
Q 594 497 594 1153 
L 594 3053 
L 172 3053 
L 172 3500 
L 594 3500 
L 594 4494 
L 1172 4494 
z
" transform="scale(0.015625)"/>
      <path id="DejaVuSans-29" d="M 513 4856 
L 1013 4856 
Q 1481 4119 1714 3412 
Q 1947 2706 1947 2009 
Q 1947 1309 1714 600 
Q 1481 -109 1013 -844 
L 513 -844 
Q 928 -128 1133 580 
Q 1338 1288 1338 2009 
Q 1338 2731 1133 3434 
Q 928 4138 513 4856 
z
" transform="scale(0.015625)"/>
     </defs>
     <use xlink:href="#DejaVuSans-63"/>
     <use xlink:href="#DejaVuSans-69" transform="translate(54.980469 0)"/>
     <use xlink:href="#DejaVuSans-72" transform="translate(82.763672 0)"/>
     <use xlink:href="#DejaVuSans-63" transform="translate(121.626953 0)"/>
     <use xlink:href="#DejaVuSans-75" transform="translate(176.607422 0)"/>
     <use xlink:href="#DejaVuSans-6c" transform="translate(239.986328 0)"/>
     <use xlink:href="#DejaVuSans-6f" transform="translate(267.769531 0)"/>
     <use xlink:href="#DejaVuSans-73" transform="translate(328.951172 0)"/>
     <use xlink:href="#DejaVuSans-5f" transform="translate(381.050781 0)"/>
     <use xlink:href="#DejaVuSans-68" transform="translate(431.050781 0)"/>
     <use xlink:href="#DejaVuSans-69" transform="translate(494.429688 0)"/>
     <use xlink:href="#DejaVuSans-20" transform="translate(522.212891 0)"/>
     <use xlink:href="#DejaVuSans-2d" transform="translate(554 0)"/>
     <use xlink:href="#DejaVuSans-20" transform="translate(590.083984 0)"/>
     <use xlink:href="#DejaVuSans-20" transform="translate(621.871094 0)"/>
     <use xlink:href="#DejaVuSans-72" transform="translate(653.658203 0)"/>
     <use xlink:href="#DejaVuSans-32" transform="translate(694.771484 0)"/>
     <use xlink:href="#DejaVuSans-20" transform="translate(758.394531 0)"/>
     <use xlink:href="#DejaVuSans-70" transform="translate(790.181641 0)"/>
     <use xlink:href="#DejaVuSans-6f" transform="translate(853.658203 0)"/>
     <use xlink:href="#DejaVuSans-72" transform="translate(914.839844 0)"/>
     <use xlink:href="#DejaVuSans-20" transform="translate(955.953125 0)"/>
     <use xlink:href="#DejaVuSans-63" transform="translate(987.740234 0)"/>
     <use xlink:href="#DejaVuSans-6c" transform="translate(1042.720703 0)"/>
     <use xlink:href="#DejaVuSans-66" transform="translate(1070.503906 0)"/>
     <use xlink:href="#DejaVuSans-20" transform="translate(1105.708984 0)"/>
     <use xlink:href="#DejaVuSans-28" transform="translate(1137.496094 0)"/>
     <use xlink:href="#DejaVuSans-62" transform="translate(1176.509766 0)"/>
     <use xlink:href="#DejaVuSans-6f" transform="translate(1239.986328 0)"/>
     <use xlink:href="#DejaVuSans-78" transform="translate(1298.042969 0)"/>
     <use xlink:href="#DejaVuSans-70" transform="translate(1357.222656 0)"/>
     <use xlink:href="#DejaVuSans-6c" transform="translate(1420.699219 0)"/>
     <use xlink:href="#DejaVuSans-6f" transform="translate(1448.482422 0)"/>
     <use xlink:href="#DejaVuSans-74" transform="translate(1509.664062 0)"/>
     <use xlink:href="#DejaVuSans-29" transform="translate(1548.873047 0)"/>
    </g>
   </g>
   <g id="legend_1">
    <g id="patch_23">
     <path d="M 389.842187 166.02125 
L 443 166.02125 
Q 445 166.02125 445 164.02125 
L 445 32.918125 
Q 445 30.918125 443 30.918125 
L 389.842187 30.918125 
Q 387.842187 30.918125 387.842187 32.918125 
L 387.842187 164.02125 
Q 387.842187 166.02125 389.842187 166.02125 
z
" style="fill: #ffffff; opacity: 0.8; stroke: #cccccc; stroke-linejoin: miter"/>
    </g>
    <g id="text_12">
     <!-- clf -->
     <g transform="translate(410.522656 42.516562) scale(0.1 -0.1)">
      <use xlink:href="#DejaVuSans-63"/>
      <use xlink:href="#DejaVuSans-6c" transform="translate(54.980469 0)"/>
      <use xlink:href="#DejaVuSans-66" transform="translate(82.763672 0)"/>
     </g>
    </g>
    <g id="patch_24">
     <path d="M 391.842187 57.194687 
L 411.842187 57.194687 
L 411.842187 50.194687 
L 391.842187 50.194687 
z
" style="fill: #96cac1; stroke: #626262; stroke-linejoin: miter"/>
    </g>
    <g id="text_13">
     <!-- fkdc -->
     <g transform="translate(419.842187 57.194687) scale(0.1 -0.1)">
      <defs>
       <path id="DejaVuSans-6b" d="M 581 4863 
L 1159 4863 
L 1159 1991 
L 2875 3500 
L 3609 3500 
L 1753 1863 
L 3688 0 
L 2938 0 
L 1159 1709 
L 1159 0 
L 581 0 
L 581 4863 
z
" transform="scale(0.015625)"/>
       <path id="DejaVuSans-64" d="M 2906 2969 
L 2906 4863 
L 3481 4863 
L 3481 0 
L 2906 0 
L 2906 525 
Q 2725 213 2448 61 
Q 2172 -91 1784 -91 
Q 1150 -91 751 415 
Q 353 922 353 1747 
Q 353 2572 751 3078 
Q 1150 3584 1784 3584 
Q 2172 3584 2448 3432 
Q 2725 3281 2906 2969 
z
M 947 1747 
Q 947 1113 1208 752 
Q 1469 391 1925 391 
Q 2381 391 2643 752 
Q 2906 1113 2906 1747 
Q 2906 2381 2643 2742 
Q 2381 3103 1925 3103 
Q 1469 3103 1208 2742 
Q 947 2381 947 1747 
z
" transform="scale(0.015625)"/>
      </defs>
      <use xlink:href="#DejaVuSans-66"/>
      <use xlink:href="#DejaVuSans-6b" transform="translate(35.205078 0)"/>
      <use xlink:href="#DejaVuSans-64" transform="translate(93.115234 0)"/>
      <use xlink:href="#DejaVuSans-63" transform="translate(156.591797 0)"/>
     </g>
    </g>
    <g id="patch_25">
     <path d="M 391.842187 71.872813 
L 411.842187 71.872813 
L 411.842187 64.872813 
L 391.842187 64.872813 
z
" style="fill: #8aafc9; stroke: #626262; stroke-linejoin: miter"/>
    </g>
    <g id="text_14">
     <!-- fkn -->
     <g transform="translate(419.842187 71.872813) scale(0.1 -0.1)">
      <defs>
       <path id="DejaVuSans-6e" d="M 3513 2113 
L 3513 0 
L 2938 0 
L 2938 2094 
Q 2938 2591 2744 2837 
Q 2550 3084 2163 3084 
Q 1697 3084 1428 2787 
Q 1159 2491 1159 1978 
L 1159 0 
L 581 0 
L 581 3500 
L 1159 3500 
L 1159 2956 
Q 1366 3272 1645 3428 
Q 1925 3584 2291 3584 
Q 2894 3584 3203 3211 
Q 3513 2838 3513 2113 
z
" transform="scale(0.015625)"/>
      </defs>
      <use xlink:href="#DejaVuSans-66"/>
      <use xlink:href="#DejaVuSans-6b" transform="translate(35.205078 0)"/>
      <use xlink:href="#DejaVuSans-6e" transform="translate(93.115234 0)"/>
     </g>
    </g>
    <g id="patch_26">
     <path d="M 391.842187 86.550937 
L 411.842187 86.550937 
L 411.842187 79.550937 
L 391.842187 79.550937 
z
" style="fill: #d9d9d9; stroke: #626262; stroke-linejoin: miter"/>
    </g>
    <g id="text_15">
     <!-- gbt -->
     <g transform="translate(419.842187 86.550937) scale(0.1 -0.1)">
      <defs>
       <path id="DejaVuSans-67" d="M 2906 1791 
Q 2906 2416 2648 2759 
Q 2391 3103 1925 3103 
Q 1463 3103 1205 2759 
Q 947 2416 947 1791 
Q 947 1169 1205 825 
Q 1463 481 1925 481 
Q 2391 481 2648 825 
Q 2906 1169 2906 1791 
z
M 3481 434 
Q 3481 -459 3084 -895 
Q 2688 -1331 1869 -1331 
Q 1566 -1331 1297 -1286 
Q 1028 -1241 775 -1147 
L 775 -588 
Q 1028 -725 1275 -790 
Q 1522 -856 1778 -856 
Q 2344 -856 2625 -561 
Q 2906 -266 2906 331 
L 2906 616 
Q 2728 306 2450 153 
Q 2172 0 1784 0 
Q 1141 0 747 490 
Q 353 981 353 1791 
Q 353 2603 747 3093 
Q 1141 3584 1784 3584 
Q 2172 3584 2450 3431 
Q 2728 3278 2906 2969 
L 2906 3500 
L 3481 3500 
L 3481 434 
z
" transform="scale(0.015625)"/>
      </defs>
      <use xlink:href="#DejaVuSans-67"/>
      <use xlink:href="#DejaVuSans-62" transform="translate(63.476562 0)"/>
      <use xlink:href="#DejaVuSans-74" transform="translate(126.953125 0)"/>
     </g>
    </g>
    <g id="patch_27">
     <path d="M 391.842187 101.229062 
L 411.842187 101.229062 
L 411.842187 94.229062 
L 391.842187 94.229062 
z
" style="fill: #c1bed6; stroke: #626262; stroke-linejoin: miter"/>
    </g>
    <g id="text_16">
     <!-- gnb -->
     <g transform="translate(419.842187 101.229062) scale(0.1 -0.1)">
      <use xlink:href="#DejaVuSans-67"/>
      <use xlink:href="#DejaVuSans-6e" transform="translate(63.476562 0)"/>
      <use xlink:href="#DejaVuSans-62" transform="translate(126.855469 0)"/>
     </g>
    </g>
    <g id="patch_28">
     <path d="M 391.842187 115.907187 
L 411.842187 115.907187 
L 411.842187 108.907187 
L 391.842187 108.907187 
z
" style="fill: #f6f6bc; stroke: #626262; stroke-linejoin: miter"/>
    </g>
    <g id="text_17">
     <!-- kdc -->
     <g transform="translate(419.842187 115.907187) scale(0.1 -0.1)">
      <use xlink:href="#DejaVuSans-6b"/>
      <use xlink:href="#DejaVuSans-64" transform="translate(57.910156 0)"/>
      <use xlink:href="#DejaVuSans-63" transform="translate(121.386719 0)"/>
     </g>
    </g>
    <g id="patch_29">
     <path d="M 391.842187 130.585312 
L 411.842187 130.585312 
L 411.842187 123.585312 
L 391.842187 123.585312 
z
" style="fill: #ea8e83; stroke: #626262; stroke-linejoin: miter"/>
    </g>
    <g id="text_18">
     <!-- kn -->
     <g transform="translate(419.842187 130.585312) scale(0.1 -0.1)">
      <use xlink:href="#DejaVuSans-6b"/>
      <use xlink:href="#DejaVuSans-6e" transform="translate(57.910156 0)"/>
     </g>
    </g>
    <g id="patch_30">
     <path d="M 391.842187 145.263437 
L 411.842187 145.263437 
L 411.842187 138.263437 
L 391.842187 138.263437 
z
" style="fill: #eab375; stroke: #626262; stroke-linejoin: miter"/>
    </g>
    <g id="text_19">
     <!-- lr -->
     <g transform="translate(419.842187 145.263437) scale(0.1 -0.1)">
      <use xlink:href="#DejaVuSans-6c"/>
      <use xlink:href="#DejaVuSans-72" transform="translate(27.783203 0)"/>
     </g>
    </g>
    <g id="patch_31">
     <path d="M 391.842187 159.941562 
L 411.842187 159.941562 
L 411.842187 152.941562 
L 391.842187 152.941562 
z
" style="fill: #afcf78; stroke: #626262; stroke-linejoin: miter"/>
    </g>
    <g id="text_20">
     <!-- slr -->
     <g transform="translate(419.842187 159.941562) scale(0.1 -0.1)">
      <use xlink:href="#DejaVuSans-73"/>
      <use xlink:href="#DejaVuSans-6c" transform="translate(52.099609 0)"/>
      <use xlink:href="#DejaVuSans-72" transform="translate(79.882812 0)"/>
     </g>
    </g>
   </g>
  </g>
 </g>
 <defs>
  <clipPath id="p8cf49ae71a">
   <rect x="53.74375" y="25.918125" width="396.25625" height="305.381875"/>
  </clipPath>
 </defs>
</svg>
