<?xml version="1.0" encoding="utf-8" standalone="no"?>
<!DOCTYPE svg PUBLIC "-//W3C//DTD SVG 1.1//EN"
  "http://www.w3.org/Graphics/SVG/1.1/DTD/svg11.dtd">
<svg xmlns:xlink="http://www.w3.org/1999/xlink" width="468.218756pt" height="353.99952pt" viewBox="0 0 468.218756 353.99952" xmlns="http://www.w3.org/2000/svg" version="1.1">
 <metadata>
  <rdf:RDF xmlns:dc="http://purl.org/dc/elements/1.1/" xmlns:cc="http://creativecommons.org/ns#" xmlns:rdf="http://www.w3.org/1999/02/22-rdf-syntax-ns#">
   <cc:Work>
    <dc:type rdf:resource="http://purl.org/dc/dcmitype/StillImage"/>
    <dc:date>1970-01-01T00:00:00+00:00</dc:date>
    <dc:format>image/svg+xml</dc:format>
    <dc:creator>
     <cc:Agent>
      <dc:title>Matplotlib v3.10.7, https://matplotlib.org/</dc:title>
     </cc:Agent>
    </dc:creator>
   </cc:Work>
  </rdf:RDF>
 </metadata>
 <defs>
  <style type="text/css">*{stroke-linejoin: round; stroke-linecap: butt}</style>
 </defs>
 <g id="figure_1">
  <g id="patch_1">
   <path d="M 0 353.99952 
L 468.218756 353.99952 
L 468.218756 0 
L 0 0 
z
" style="fill: #ffffff"/>
  </g>
  <g id="axes_1">
   <g id="patch_2">
    <path d="M 43.78125 316.44327 
L 377.139575 316.44327 
L 377.139575 10.999219 
L 43.78125 10.999219 
z
" style="fill: #ffffff"/>
   </g>
   <g id="QuadContourSet_1">
    <path d="M 210.460412 316.44327 
L 212.97301 316.44327 
L 210.460412 315.143062 
L 207.703111 316.44327 
z
" clip-path="url(#pf26db38ceb)" style="fill: #470d60"/>
    <path d="M 154.900692 294.89996 
L 180.16689 316.44327 
L 182.680552 316.44327 
L 207.703111 316.44327 
L 210.460412 315.143062 
L 212.97301 316.44327 
L 236.717581 316.44327 
L 210.460412 298.852899 
L 202.865966 290.989599 
L 182.680552 278.720784 
L 167.798761 265.535928 
L 154.900692 258.094866 
L 133.577122 240.082257 
L 127.120831 236.764723 
L 99.965832 214.628586 
L 99.340971 214.27809 
L 71.56111 197.872341 
L 60.500142 189.174915 
L 43.78125 181.106907 
L 26.719778 189.174915 
L 43.78125 209.446209 
L 48.468637 214.628586 
L 71.56111 225.813014 
L 87.254406 240.082257 
L 99.340971 248.638469 
L 119.156505 265.535928 
L 127.120831 272.110743 
L 150.283946 290.989599 
z
M -11.778471 165.021998 
L 16.00139 180.456934 
L 25.974369 163.721244 
L 16.00139 158.452164 
L -2.88792 138.267573 
L -11.778471 133.182937 
L -36.586791 138.267573 
L -13.250577 163.721244 
z
M -39.558331 131.460478 
L -37.453602 112.813902 
L -39.558331 111.634944 
L -53.507935 112.813902 
z
" clip-path="url(#pf26db38ceb)" style="fill: #482475"/>
    <path d="M 154.900692 301.168909 
L 174.074209 316.44327 
L 180.16689 316.44327 
L 154.900692 294.89996 
L 150.283946 290.989599 
L 127.120831 272.110743 
L 119.156505 265.535928 
L 99.340971 248.638469 
L 87.254406 240.082257 
L 71.56111 225.813014 
L 48.468637 214.628586 
L 43.78125 209.446209 
L 26.719778 189.174915 
L 43.78125 181.106907 
L 60.500142 189.174915 
L 71.56111 197.872341 
L 99.340971 214.27809 
L 99.965832 214.628586 
L 127.120831 236.764723 
L 133.577122 240.082257 
L 154.900692 258.094866 
L 167.798761 265.535928 
L 182.680552 278.720784 
L 202.865966 290.989599 
L 210.460412 298.852899 
L 236.717581 316.44327 
L 238.240273 316.44327 
L 244.786388 316.44327 
L 238.240273 311.824801 
L 214.462289 290.989599 
L 210.460412 288.279161 
L 182.680552 266.048103 
L 182.180514 265.535928 
L 154.900692 247.079825 
L 147.692262 240.082257 
L 127.120831 227.763424 
L 112.892662 214.628586 
L 99.340971 205.909276 
L 80.336736 189.174915 
L 71.56111 183.609146 
L 46.984203 163.721244 
L 43.78125 161.77859 
L 16.00139 141.922854 
L 13.084299 138.267573 
L -11.778471 121.32697 
L -20.912467 112.813902 
L -39.558331 100.340701 
L -54.013811 87.360232 
L -67.338192 78.798912 
L -67.338192 87.360232 
L -67.338192 112.813902 
L -67.338192 138.267573 
L -67.338192 138.932429 
L -39.558331 154.959821 
L -29.053607 163.721244 
L -11.778471 176.748968 
L 5.668126 189.174915 
L 16.00139 198.098925 
L 35.240429 214.628586 
L 43.78125 222.030951 
L 69.491115 240.082257 
L 71.56111 241.63882 
L 99.340971 259.553486 
L 107.318733 265.535928 
L 127.120831 280.081457 
L 141.815553 290.989599 
z
M -13.250577 163.721244 
L -36.586791 138.267573 
L -11.778471 133.182937 
L -2.88792 138.267573 
L 16.00139 158.452164 
L 25.974369 163.721244 
L 16.00139 180.456934 
L -11.778471 165.021998 
z
M -53.507935 112.813902 
L -39.558331 111.634944 
L -37.453602 112.813902 
L -39.558331 131.460478 
z
" clip-path="url(#pf26db38ceb)" style="fill: #443983"/>
    <path d="M 154.900692 307.437858 
L 167.099644 316.44327 
L 174.074209 316.44327 
L 154.900692 301.168909 
L 141.815553 290.989599 
L 127.120831 280.081457 
L 107.318733 265.535928 
L 99.340971 259.553486 
L 71.56111 241.63882 
L 69.491115 240.082257 
L 43.78125 222.030951 
L 35.240429 214.628586 
L 16.00139 198.098925 
L 5.668126 189.174915 
L -11.778471 176.748968 
L -29.053607 163.721244 
L -39.558331 154.959821 
L -67.338192 138.932429 
L -67.338192 150.140847 
L -46.110771 163.721244 
L -39.558331 169.943962 
L -11.778471 188.475937 
L -10.610465 189.174915 
L 16.00139 208.799885 
L 23.690481 214.628586 
L 43.78125 230.168968 
L 59.548045 240.082257 
L 71.56111 248.251806 
L 96.122501 265.535928 
L 99.340971 267.609548 
L 127.120831 288.05217 
L 131.538043 290.989599 
z
M 238.240273 311.824801 
L 244.786388 316.44327 
L 251.035616 316.44327 
L 238.240273 306.791117 
L 221.367826 290.989599 
L 210.460412 283.039552 
L 190.408518 265.535928 
L 182.680552 260.176521 
L 158.239512 240.082257 
L 154.900692 237.889059 
L 127.120831 218.762125 
L 123.078243 214.628586 
L 99.340971 197.540462 
L 90.770186 189.174915 
L 71.56111 175.530164 
L 58.510025 163.721244 
L 43.78125 153.617591 
L 25.909309 138.267573 
L 16.00139 131.670653 
L -7.731009 112.813902 
L -11.778471 110.273866 
L -39.558331 89.046459 
L -41.208931 87.360232 
L -67.338192 68.015985 
L -67.338192 78.798912 
L -54.013811 87.360232 
L -39.558331 100.340701 
L -20.912467 112.813902 
L -11.778471 121.32697 
L 13.084299 138.267573 
L 16.00139 141.922854 
L 43.78125 161.77859 
L 46.984203 163.721244 
L 71.56111 183.609146 
L 80.336736 189.174915 
L 99.340971 205.909276 
L 112.892662 214.628586 
L 127.120831 227.763424 
L 147.692262 240.082257 
L 154.900692 247.079825 
L 182.180514 265.535928 
L 182.680552 266.048103 
L 210.460412 288.279161 
L 214.462289 290.989599 
z
" clip-path="url(#pf26db38ceb)" style="fill: #3d4d8a"/>
    <path d="M 127.120831 293.108532 
L 154.900692 313.706807 
L 158.943981 316.44327 
L 167.099644 316.44327 
L 154.900692 307.437858 
L 131.538043 290.989599 
L 127.120831 288.05217 
L 99.340971 267.609548 
L 96.122501 265.535928 
L 71.56111 248.251806 
L 59.548045 240.082257 
L 43.78125 230.168968 
L 23.690481 214.628586 
L 16.00139 208.799885 
L -10.610465 189.174915 
L -11.778471 188.475937 
L -39.558331 169.943962 
L -46.110771 163.721244 
L -67.338192 150.140847 
L -67.338192 161.349264 
L -62.892396 163.721244 
L -39.558331 182.512017 
L -27.623436 189.174915 
L -11.778471 196.00872 
L 12.704462 214.628586 
L 16.00139 217.165713 
L 43.78125 238.306986 
L 47.010157 240.082257 
L 71.56111 254.864793 
L 88.131057 265.535928 
L 99.340971 272.198143 
L 124.213322 290.989599 
z
M 238.240273 306.791117 
L 251.035616 316.44327 
L 256.567596 316.44327 
L 238.240273 301.757432 
L 227.407786 290.989599 
L 210.460412 277.799943 
L 197.329364 265.535928 
L 182.680552 254.591388 
L 166.360954 240.082257 
L 154.900692 231.875784 
L 132.738886 214.628586 
L 127.120831 210.85991 
L 99.345682 189.174915 
L 99.340971 189.17193 
L 71.56111 167.451181 
L 67.806902 163.721244 
L 43.78125 145.456591 
L 36.224164 138.267573 
L 16.00139 123.200691 
L 4.382384 112.813902 
L -11.778471 101.265339 
L -27.776214 87.360232 
L -39.558331 79.209768 
L -60.567161 61.906561 
L -67.338192 57.426649 
L -67.338192 61.906561 
L -67.338192 68.015985 
L -41.208931 87.360232 
L -39.558331 89.046459 
L -11.778471 110.273866 
L -7.731009 112.813902 
L 16.00139 131.670653 
L 25.909309 138.267573 
L 43.78125 153.617591 
L 58.510025 163.721244 
L 71.56111 175.530164 
L 90.770186 189.174915 
L 99.340971 197.540462 
L 123.078243 214.628586 
L 127.120831 218.762125 
L 154.900692 237.889059 
L 158.239512 240.082257 
L 182.680552 260.176521 
L 190.408518 265.535928 
L 210.460412 283.039552 
L 221.367826 290.989599 
z
" clip-path="url(#pf26db38ceb)" style="fill: #355f8d"/>
    <path d="M 127.120831 296.464076 
L 153.03921 316.44327 
L 154.900692 316.44327 
L 158.943981 316.44327 
L 154.900692 313.706807 
L 127.120831 293.108532 
L 124.213322 290.989599 
L 99.340971 272.198143 
L 88.131057 265.535928 
L 71.56111 254.864793 
L 47.010157 240.082257 
L 43.78125 238.306986 
L 16.00139 217.165713 
L 12.704462 214.628586 
L -11.778471 196.00872 
L -27.623436 189.174915 
L -39.558331 182.512017 
L -62.892396 163.721244 
L -67.338192 161.349264 
L -67.338192 163.721244 
L -67.338192 168.856254 
L -42.405436 189.174915 
L -39.558331 192.195504 
L -11.778471 203.275665 
L 4.560183 214.628586 
L 16.00139 222.738016 
L 39.34303 240.082257 
L 43.78125 244.808584 
L 71.56111 261.477779 
L 78.548406 265.535928 
L 99.340971 276.786738 
L 119.217575 290.989599 
z
M 238.240273 301.757432 
L 256.567596 316.44327 
L 261.530149 316.44327 
L 238.240273 296.723748 
L 232.775192 290.989599 
L 210.460412 272.560334 
L 203.381029 265.535928 
L 182.680552 249.006254 
L 173.310493 240.082257 
L 154.900692 225.862509 
L 141.666539 214.628586 
L 127.120831 203.890999 
L 110.116585 189.174915 
L 99.340971 181.524877 
L 78.144333 163.721244 
L 71.56111 159.239511 
L 45.447773 138.267573 
L 43.78125 137.187404 
L 16.00139 114.730729 
L 14.05712 112.813902 
L -11.778471 92.256813 
L -16.828635 87.360232 
L -39.558331 69.628881 
L -47.830199 61.906561 
L -67.338192 47.090386 
L -67.338192 57.426649 
L -60.567161 61.906561 
L -39.558331 79.209768 
L -27.776214 87.360232 
L -11.778471 101.265339 
L 4.382384 112.813902 
L 16.00139 123.200691 
L 36.224164 138.267573 
L 43.78125 145.456591 
L 67.806902 163.721244 
L 71.56111 167.451181 
L 99.340971 189.17193 
L 99.345682 189.174915 
L 127.120831 210.85991 
L 132.738886 214.628586 
L 154.900692 231.875784 
L 166.360954 240.082257 
L 182.680552 254.591388 
L 197.329364 265.535928 
L 210.460412 277.799943 
L 227.407786 290.989599 
z
" clip-path="url(#pf26db38ceb)" style="fill: #2d708e"/>
    <path d="M 127.120831 299.819619 
L 149.547879 316.44327 
L 153.03921 316.44327 
L 127.120831 296.464076 
L 119.217575 290.989599 
L 99.340971 276.786738 
L 78.548406 265.535928 
L 71.56111 261.477779 
L 43.78125 244.808584 
L 39.34303 240.082257 
L 16.00139 222.738016 
L 4.560183 214.628586 
L -11.778471 203.275665 
L -39.558331 192.195504 
L -42.405436 189.174915 
L -67.338192 168.856254 
L -67.338192 175.369663 
L -49.08954 189.174915 
L -39.558331 198.624281 
L -11.778471 210.542611 
L -5.243296 214.628586 
L 16.00139 228.310318 
L 32.997838 240.082257 
L 43.78125 250.853604 
L 68.571928 265.535928 
L 71.56111 267.297156 
L 99.340971 281.375333 
L 113.644305 290.989599 
z
M 238.240273 296.723748 
L 261.530149 316.44327 
L 266.020133 316.44327 
L 266.038129 316.44327 
L 266.020133 316.430802 
L 238.240273 291.690063 
L 237.604927 290.989599 
L 210.460412 267.320724 
L 208.757673 265.535928 
L 182.680552 243.42112 
L 179.384075 240.082257 
L 154.900692 219.849234 
L 149.197616 214.628586 
L 127.120831 196.922088 
L 118.916706 189.174915 
L 99.340971 173.877823 
L 88.403996 163.721244 
L 71.56111 150.914041 
L 57.549032 138.267573 
L 43.78125 128.118034 
L 26.563446 112.813902 
L 16.00139 105.272051 
L -4.830183 87.360232 
L -11.778471 82.961016 
L -36.588442 61.906561 
L -39.558331 59.925363 
L -67.338192 36.754122 
L -67.338192 47.090386 
L -47.830199 61.906561 
L -39.558331 69.628881 
L -16.828635 87.360232 
L -11.778471 92.256813 
L 14.05712 112.813902 
L 16.00139 114.730729 
L 43.78125 137.187404 
L 45.447773 138.267573 
L 71.56111 159.239511 
L 78.144333 163.721244 
L 99.340971 181.524877 
L 110.116585 189.174915 
L 127.120831 203.890999 
L 141.666539 214.628586 
L 154.900692 225.862509 
L 173.310493 240.082257 
L 182.680552 249.006254 
L 203.381029 265.535928 
L 210.460412 272.560334 
L 232.775192 290.989599 
z
" clip-path="url(#pf26db38ceb)" style="fill: #27808e"/>
    <path d="M 127.120831 303.175163 
L 145.784126 316.44327 
L 149.547879 316.44327 
L 127.120831 299.819619 
L 113.644305 290.989599 
L 99.340971 281.375333 
L 71.56111 267.297156 
L 68.571928 265.535928 
L 43.78125 250.853604 
L 32.997838 240.082257 
L 16.00139 228.310318 
L -5.243296 214.628586 
L -11.778471 210.542611 
L -39.558331 198.624281 
L -49.08954 189.174915 
L -67.338192 175.369663 
L -67.338192 181.883073 
L -56.850594 189.174915 
L -39.558331 205.053057 
L -16.831195 214.628586 
L -11.778471 217.195703 
L 16.00139 233.88262 
L 25.690221 240.082257 
L 43.78125 256.898625 
L 59.846722 265.535928 
L 71.56111 271.85595 
L 99.340971 285.963929 
L 107.342318 290.989599 
z
M 238.240273 291.690063 
L 266.020133 316.430802 
L 266.038129 316.44327 
L 273.554407 316.44327 
L 266.020133 310.794774 
L 245.116659 290.989599 
L 238.240273 285.890094 
L 216.157568 265.535928 
L 210.460412 261.380296 
L 186.518428 240.082257 
L 182.680552 237.355469 
L 156.301192 214.628586 
L 154.900692 213.656834 
L 127.120831 189.953177 
L 126.356899 189.174915 
L 99.340971 166.23077 
L 96.860283 163.721244 
L 71.56111 142.58857 
L 67.21604 138.267573 
L 43.78125 119.048663 
L 37.488768 112.813902 
L 16.00139 95.524169 
L 7.599629 87.360232 
L -11.778471 73.323131 
L -23.642886 61.906561 
L -39.558331 49.712319 
L -53.46755 36.45289 
L -67.338192 26.0017 
L -67.338192 36.45289 
L -67.338192 36.754122 
L -39.558331 59.925363 
L -36.588442 61.906561 
L -11.778471 82.961016 
L -4.830183 87.360232 
L 16.00139 105.272051 
L 26.563446 112.813902 
L 43.78125 128.118034 
L 57.549032 138.267573 
L 71.56111 150.914041 
L 88.403996 163.721244 
L 99.340971 173.877823 
L 118.916706 189.174915 
L 127.120831 196.922088 
L 149.197616 214.628586 
L 154.900692 219.849234 
L 179.384075 240.082257 
L 182.680552 243.42112 
L 208.757673 265.535928 
L 210.460412 267.320724 
L 237.604927 290.989599 
z
" clip-path="url(#pf26db38ceb)" style="fill: #21918c"/>
    <path d="M 127.120831 306.530706 
L 141.701812 316.44327 
L 145.784126 316.44327 
L 127.120831 303.175163 
L 107.342318 290.989599 
L 99.340971 285.963929 
L 71.56111 271.85595 
L 59.846722 265.535928 
L 43.78125 256.898625 
L 25.690221 240.082257 
L 16.00139 233.88262 
L -11.778471 217.195703 
L -16.831195 214.628586 
L -39.558331 205.053057 
L -56.850594 189.174915 
L -67.338192 181.883073 
L -67.338192 188.396482 
L -66.103559 189.174915 
L -39.558331 211.481833 
L -30.853549 214.628586 
L -11.778471 223.060297 
L 16.00139 239.454922 
L 17.075108 240.082257 
L 43.78125 262.943645 
L 49.187983 265.535928 
L 71.56111 276.414743 
L 99.340971 290.552524 
L 100.091975 290.989599 
z
M 266.020133 310.794774 
L 273.554407 316.44327 
L 280.05625 316.44327 
L 266.020133 305.158746 
L 252.040306 290.989599 
L 238.240273 279.966256 
L 223.688072 265.535928 
L 210.460412 255.077816 
L 194.916353 240.082257 
L 182.680552 230.575576 
L 165.77873 214.628586 
L 154.900692 206.284622 
L 136.536156 189.174915 
L 127.120831 182.056552 
L 107.191209 163.721244 
L 99.340971 157.967862 
L 77.654684 138.267573 
L 71.56111 133.885097 
L 48.057694 112.813902 
L 43.78125 109.810765 
L 18.383761 87.360232 
L 16.00139 85.718918 
L -11.778471 63.685247 
L -13.445709 61.906561 
L -39.558331 39.499275 
L -42.417772 36.45289 
L -67.338192 15.236785 
L -67.338192 26.0017 
L -53.46755 36.45289 
L -39.558331 49.712319 
L -23.642886 61.906561 
L -11.778471 73.323131 
L 7.599629 87.360232 
L 16.00139 95.524169 
L 37.488768 112.813902 
L 43.78125 119.048663 
L 67.21604 138.267573 
L 71.56111 142.58857 
L 96.860283 163.721244 
L 99.340971 166.23077 
L 126.356899 189.174915 
L 127.120831 189.953177 
L 154.900692 213.656834 
L 156.301192 214.628586 
L 182.680552 237.355469 
L 186.518428 240.082257 
L 210.460412 261.380296 
L 216.157568 265.535928 
L 238.240273 285.890094 
L 245.116659 290.989599 
z
" clip-path="url(#pf26db38ceb)" style="fill: #1fa188"/>
    <path d="M 99.340971 298.627308 
L 127.120831 309.88625 
L 137.241985 316.44327 
L 141.701812 316.44327 
L 127.120831 306.530706 
L 100.091975 290.989599 
L 99.340971 290.552524 
L 71.56111 276.414743 
L 49.187983 265.535928 
L 43.78125 262.943645 
L 17.075108 240.082257 
L 16.00139 239.454922 
L -11.778471 223.060297 
L -30.853549 214.628586 
L -39.558331 211.481833 
L -66.103559 189.174915 
L -67.338192 188.396482 
L -67.338192 189.174915 
L -67.338192 196.396169 
L -43.673361 214.628586 
L -39.558331 219.505926 
L -11.778471 228.92489 
L 8.767153 240.082257 
L 16.00139 247.478046 
L 39.160873 265.535928 
L 43.78125 270.97501 
L 71.56111 280.973537 
L 92.750177 290.989599 
z
M 266.020133 305.158746 
L 280.05625 316.44327 
L 285.785205 316.44327 
L 266.020133 299.522718 
L 258.094111 290.989599 
L 238.240273 274.042417 
L 230.200553 265.535928 
L 210.460412 248.775337 
L 202.067214 240.082257 
L 182.680552 223.795683 
L 173.697011 214.628586 
L 154.900692 198.912409 
L 145.315905 189.174915 
L 127.120831 174.0433 
L 116.924216 163.721244 
L 99.340971 149.404127 
L 88.292652 138.267573 
L 71.56111 124.773741 
L 59.642674 112.813902 
L 43.78125 100.202189 
L 30.912557 87.360232 
L 16.00139 75.617983 
L 0.587761 61.906561 
L -11.778471 52.432193 
L -28.29283 36.45289 
L -39.558331 27.916999 
L -57.101598 10.999219 
L -67.338192 10.999219 
L -67.338192 15.236785 
L -42.417772 36.45289 
L -39.558331 39.499275 
L -13.445709 61.906561 
L -11.778471 63.685247 
L 16.00139 85.718918 
L 18.383761 87.360232 
L 43.78125 109.810765 
L 48.057694 112.813902 
L 71.56111 133.885097 
L 77.654684 138.267573 
L 99.340971 157.967862 
L 107.191209 163.721244 
L 127.120831 182.056552 
L 136.536156 189.174915 
L 154.900692 206.284622 
L 165.77873 214.628586 
L 182.680552 230.575576 
L 194.916353 240.082257 
L 210.460412 255.077816 
L 223.688072 265.535928 
L 238.240273 279.966256 
L 252.040306 290.989599 
z
" clip-path="url(#pf26db38ceb)" style="fill: #2ab07f"/>
    <path d="M 99.340971 307.069121 
L 127.120831 313.241794 
L 132.327641 316.44327 
L 137.241985 316.44327 
L 127.120831 309.88625 
L 99.340971 298.627308 
L 92.750177 290.989599 
L 71.56111 280.973537 
L 43.78125 270.97501 
L 39.160873 265.535928 
L 16.00139 247.478046 
L 8.767153 240.082257 
L -11.778471 228.92489 
L -39.558331 219.505926 
L -43.673361 214.628586 
L -67.338192 196.396169 
L -67.338192 204.597594 
L -52.919206 214.628586 
L -39.558331 229.059585 
L -11.778471 234.789484 
L -0.941913 240.082257 
L 16.00139 255.812091 
L 29.823958 265.535928 
L 43.78125 280.497702 
L 71.56111 285.532331 
L 84.235803 290.989599 
z
M 266.020133 299.522718 
L 285.785205 316.44327 
L 290.905655 316.44327 
L 266.020133 293.88669 
L 263.472443 290.989599 
L 238.240273 268.118578 
L 235.937762 265.535928 
L 210.460412 242.472857 
L 208.293939 240.082257 
L 182.680552 217.01579 
L 180.49734 214.628586 
L 154.900692 191.540197 
L 152.741543 189.174915 
L 127.120831 166.030047 
L 125.01985 163.721244 
L 99.340971 140.840392 
L 97.003951 138.267573 
L 71.56111 115.662385 
L 68.977939 112.813902 
L 43.78125 90.593613 
L 40.84992 87.360232 
L 16.00139 65.517048 
L 12.3956 61.906561 
L -11.778471 40.813595 
L -15.754376 36.45289 
L -39.558331 15.752694 
L -43.878727 10.999219 
L -57.101598 10.999219 
L -39.558331 27.916999 
L -28.29283 36.45289 
L -11.778471 52.432193 
L 0.587761 61.906561 
L 16.00139 75.617983 
L 30.912557 87.360232 
L 43.78125 100.202189 
L 59.642674 112.813902 
L 71.56111 124.773741 
L 88.292652 138.267573 
L 99.340971 149.404127 
L 116.924216 163.721244 
L 127.120831 174.0433 
L 145.315905 189.174915 
L 154.900692 198.912409 
L 173.697011 214.628586 
L 182.680552 223.795683 
L 202.067214 240.082257 
L 210.460412 248.775337 
L 230.200553 265.535928 
L 238.240273 274.042417 
L 258.094111 290.989599 
z
" clip-path="url(#pf26db38ceb)" style="fill: #44bf70"/>
    <path d="M 99.340971 315.510933 
L 120.482345 316.44327 
L 127.120831 316.44327 
L 132.327641 316.44327 
L 127.120831 313.241794 
L 99.340971 307.069121 
L 84.235803 290.989599 
L 71.56111 285.532331 
L 43.78125 280.497702 
L 29.823958 265.535928 
L 16.00139 255.812091 
L -0.941913 240.082257 
L -11.778471 234.789484 
L -39.558331 229.059585 
L -52.919206 214.628586 
L -67.338192 204.597594 
L -67.338192 212.79902 
L -64.366567 214.628586 
L -39.558331 238.613245 
L -20.760706 240.082257 
L -11.778471 253.722188 
L 16.00139 264.146135 
L 18.236432 265.535928 
L 43.78125 290.020395 
L 71.56111 290.091124 
L 73.890404 290.989599 
z
M 266.020133 293.88669 
L 290.905655 316.44327 
L 293.799993 316.44327 
L 300.215044 316.44327 
L 293.799993 311.494229 
L 274.064019 290.989599 
L 266.020133 284.631552 
L 247.71483 265.535928 
L 238.240273 257.832831 
L 221.288689 240.082257 
L 210.460412 231.315212 
L 194.429509 214.628586 
L 182.680552 204.899254 
L 167.791411 189.174915 
L 154.900692 178.690501 
L 140.864258 163.721244 
L 127.120831 152.458666 
L 113.501606 138.267573 
L 99.340971 126.477145 
L 86.297082 112.813902 
L 71.56111 100.268704 
L 59.209345 87.360232 
L 43.78125 73.956038 
L 32.36391 61.906561 
L 16.00139 48.004786 
L 5.130608 36.45289 
L -11.778471 22.478673 
L -22.553012 10.999219 
L -39.558331 10.999219 
L -43.878727 10.999219 
L -39.558331 15.752694 
L -15.754376 36.45289 
L -11.778471 40.813595 
L 12.3956 61.906561 
L 16.00139 65.517048 
L 40.84992 87.360232 
L 43.78125 90.593613 
L 68.977939 112.813902 
L 71.56111 115.662385 
L 97.003951 138.267573 
L 99.340971 140.840392 
L 125.01985 163.721244 
L 127.120831 166.030047 
L 152.741543 189.174915 
L 154.900692 191.540197 
L 180.49734 214.628586 
L 182.680552 217.01579 
L 208.293939 240.082257 
L 210.460412 242.472857 
L 235.937762 265.535928 
L 238.240273 268.118578 
L 263.472443 290.989599 
z
" clip-path="url(#pf26db38ceb)" style="fill: #67cc5c"/>
    <path d="M 16.00139 308.182561 
L 43.78125 310.608568 
L 54.649418 316.44327 
L 71.56111 316.44327 
L 99.340971 316.44327 
L 120.482345 316.44327 
L 99.340971 315.510933 
L 73.890404 290.989599 
L 71.56111 290.091124 
L 43.78125 290.020395 
L 18.236432 265.535928 
L 16.00139 264.146135 
L -11.778471 253.722188 
L -20.760706 240.082257 
L -39.558331 238.613245 
L -64.366567 214.628586 
L -67.338192 212.79902 
L -67.338192 214.628586 
L -67.338192 240.082257 
L -67.338192 259.545428 
L -55.949521 265.535928 
L -39.558331 282.64101 
L -11.778471 284.955847 
L -0.494498 290.989599 
z
M 293.799993 311.494229 
L 300.215044 316.44327 
L 313.703375 316.44327 
L 293.799993 298.672967 
L 287.313092 290.989599 
L 266.020133 271.548326 
L 260.968203 265.535928 
L 238.240273 244.175444 
L 234.8261 240.082257 
L 210.460412 217.190512 
L 208.319418 214.628586 
L 182.680552 189.882524 
L 182.100559 189.174915 
L 156.23126 163.721244 
L 154.900692 162.663939 
L 131.716136 138.267573 
L 127.120831 134.625385 
L 107.440524 112.813902 
L 99.340971 105.996071 
L 83.519322 87.360232 
L 71.56111 76.555906 
L 59.755556 61.906561 
L 43.78125 47.336794 
L 34.678356 36.45289 
L 16.00139 19.597623 
L 8.520322 10.999219 
L -11.778471 10.999219 
L -22.553012 10.999219 
L -11.778471 22.478673 
L 5.130608 36.45289 
L 16.00139 48.004786 
L 32.36391 61.906561 
L 43.78125 73.956038 
L 59.209345 87.360232 
L 71.56111 100.268704 
L 86.297082 112.813902 
L 99.340971 126.477145 
L 113.501606 138.267573 
L 127.120831 152.458666 
L 140.864258 163.721244 
L 154.900692 178.690501 
L 167.791411 189.174915 
L 182.680552 204.899254 
L 194.429509 214.628586 
L 210.460412 231.315212 
L 221.288689 240.082257 
L 238.240273 257.832831 
L 247.71483 265.535928 
L 266.020133 284.631552 
L 274.064019 290.989599 
z
" clip-path="url(#pf26db38ceb)" style="fill: #90d743"/>
    <path d="M -39.558331 316.44327 
L -11.778471 316.44327 
L 16.00139 316.44327 
L 43.78125 316.44327 
L 54.649418 316.44327 
L 43.78125 310.608568 
L 16.00139 308.182561 
L -0.494498 290.989599 
L -11.778471 284.955847 
L -39.558331 282.64101 
L -55.949521 265.535928 
L -67.338192 259.545428 
L -67.338192 265.535928 
L -67.338192 290.989599 
L -67.338192 316.44327 
z
M 293.799993 298.672967 
L 313.703375 316.44327 
L 321.579854 316.44327 
L 339.81118 316.44327 
L 321.579854 300.403331 
L 315.136807 290.989599 
L 293.799993 271.331595 
L 289.854117 265.535928 
L 266.020133 242.780346 
L 264.216206 240.082257 
L 238.85291 214.628586 
L 238.240273 214.150398 
L 223.030127 189.174915 
L 210.460412 177.937275 
L 202.073095 163.721244 
L 182.680552 144.978299 
L 178.682617 138.267573 
L 154.900692 114.025908 
L 154.097008 112.813902 
L 143.500516 87.360232 
L 154.900692 76.147133 
L 168.387352 87.360232 
L 182.680552 100.93244 
L 196.619939 112.813902 
L 210.460412 126.834811 
L 223.662172 138.267573 
L 238.240273 153.537951 
L 249.906644 163.721244 
L 266.020133 180.982551 
L 275.286205 189.174915 
L 293.799993 209.38207 
L 299.651007 214.628586 
L 321.579854 239.212207 
L 322.551065 240.082257 
L 344.50566 265.535928 
L 349.359714 271.825949 
L 365.564086 290.989599 
L 377.139575 307.617649 
L 384.178427 316.44327 
L 404.919435 316.44327 
L 432.699295 316.44327 
L 460.479156 316.44327 
L 488.259016 316.44327 
L 516.038876 316.44327 
L 543.818737 316.44327 
L 571.598597 316.44327 
L 599.378458 316.44327 
L 627.158318 316.44327 
L 654.938178 316.44327 
L 682.718039 316.44327 
L 710.497899 316.44327 
L 738.27776 316.44327 
L 766.05762 316.44327 
L 793.83748 316.44327 
L 821.617341 316.44327 
L 849.397201 316.44327 
L 877.177061 316.44327 
L 904.956922 316.44327 
L 932.736782 316.44327 
L 960.516643 316.44327 
L 988.296503 316.44327 
L 1016.076363 316.44327 
L 1043.856224 316.44327 
L 1071.636084 316.44327 
L 1099.415944 316.44327 
L 1127.195805 316.44327 
L 1154.975665 316.44327 
L 1154.975665 290.989599 
L 1154.975665 265.535928 
L 1154.975665 240.082257 
L 1154.975665 214.628586 
L 1154.975665 189.174915 
L 1154.975665 163.721244 
L 1154.975665 138.267573 
L 1154.975665 112.813902 
L 1154.975665 87.360232 
L 1154.975665 61.906561 
L 1154.975665 36.45289 
L 1154.975665 10.999219 
L 1127.195805 10.999219 
L 1099.415944 10.999219 
L 1071.636084 10.999219 
L 1043.856224 10.999219 
L 1016.076363 10.999219 
L 988.296503 10.999219 
L 960.516643 10.999219 
L 932.736782 10.999219 
L 904.956922 10.999219 
L 877.177061 10.999219 
L 849.397201 10.999219 
L 821.617341 10.999219 
L 793.83748 10.999219 
L 766.05762 10.999219 
L 738.27776 10.999219 
L 710.497899 10.999219 
L 682.718039 10.999219 
L 654.938178 10.999219 
L 627.158318 10.999219 
L 599.378458 10.999219 
L 571.598597 10.999219 
L 543.818737 10.999219 
L 516.038876 10.999219 
L 488.259016 10.999219 
L 460.479156 10.999219 
L 432.699295 10.999219 
L 404.919435 10.999219 
L 377.139575 10.999219 
L 349.359714 10.999219 
L 321.579854 10.999219 
L 293.799993 10.999219 
L 266.020133 10.999219 
L 238.240273 10.999219 
L 210.460412 10.999219 
L 182.680552 10.999219 
L 154.900692 10.999219 
L 127.120831 10.999219 
L 99.340971 10.999219 
L 71.56111 10.999219 
L 43.78125 10.999219 
L 16.00139 10.999219 
L 8.520322 10.999219 
L 16.00139 19.597623 
L 34.678356 36.45289 
L 43.78125 47.336794 
L 59.755556 61.906561 
L 71.56111 76.555906 
L 83.519322 87.360232 
L 99.340971 105.996071 
L 107.440524 112.813902 
L 127.120831 134.625385 
L 131.716136 138.267573 
L 154.900692 162.663939 
L 156.23126 163.721244 
L 182.100559 189.174915 
L 182.680552 189.882524 
L 208.319418 214.628586 
L 210.460412 217.190512 
L 234.8261 240.082257 
L 238.240273 244.175444 
L 260.968203 265.535928 
L 266.020133 271.548326 
L 287.313092 290.989599 
z
M 123.290567 61.906561 
L 127.120831 53.354875 
L 137.928647 61.906561 
L 127.120831 71.04137 
z
M 99.229058 36.45289 
L 99.340971 35.914158 
L 100.128751 36.45289 
L 99.340971 36.680327 
z
" clip-path="url(#pf26db38ceb)" style="fill: #bddf26"/>
    <path d="M 321.579854 300.403331 
L 339.81118 316.44327 
L 349.359714 316.44327 
L 377.139575 316.44327 
L 384.178427 316.44327 
L 377.139575 307.617649 
L 365.564086 290.989599 
L 349.359714 271.825949 
L 344.50566 265.535928 
L 322.551065 240.082257 
L 321.579854 239.212207 
L 299.651007 214.628586 
L 293.799993 209.38207 
L 275.286205 189.174915 
L 266.020133 180.982551 
L 249.906644 163.721244 
L 238.240273 153.537951 
L 223.662172 138.267573 
L 210.460412 126.834811 
L 196.619939 112.813902 
L 182.680552 100.93244 
L 168.387352 87.360232 
L 154.900692 76.147133 
L 143.500516 87.360232 
L 154.097008 112.813902 
L 154.900692 114.025908 
L 178.682617 138.267573 
L 182.680552 144.978299 
L 202.073095 163.721244 
L 210.460412 177.937275 
L 223.030127 189.174915 
L 238.240273 214.150398 
L 238.85291 214.628586 
L 264.216206 240.082257 
L 266.020133 242.780346 
L 289.854117 265.535928 
L 293.799993 271.331595 
L 315.136807 290.989599 
z
M 127.120831 71.04137 
L 137.928647 61.906561 
L 127.120831 53.354875 
L 123.290567 61.906561 
z
M 99.340971 36.680327 
L 100.128751 36.45289 
L 99.340971 35.914158 
L 99.229058 36.45289 
z
" clip-path="url(#pf26db38ceb)" style="fill: #eae51a"/>
   </g>
   <g id="PathCollection_1">
    <defs>
     <path id="mdc0741d33a" d="M -3 3 
L 3 -3 
M -3 -3 
L 3 3 
" style="stroke: #ff0000; stroke-width: 1.5"/>
    </defs>
    <g clip-path="url(#pf26db38ceb)">
     <use xlink:href="#mdc0741d33a" x="349.359714" y="316.44327" style="fill: #ff0000; stroke: #ff0000; stroke-width: 1.5"/>
     <use xlink:href="#mdc0741d33a" x="321.579854" y="290.989599" style="fill: #ff0000; stroke: #ff0000; stroke-width: 1.5"/>
     <use xlink:href="#mdc0741d33a" x="321.579854" y="265.535928" style="fill: #ff0000; stroke: #ff0000; stroke-width: 1.5"/>
     <use xlink:href="#mdc0741d33a" x="293.799993" y="240.082257" style="fill: #ff0000; stroke: #ff0000; stroke-width: 1.5"/>
     <use xlink:href="#mdc0741d33a" x="266.020133" y="214.628586" style="fill: #ff0000; stroke: #ff0000; stroke-width: 1.5"/>
     <use xlink:href="#mdc0741d33a" x="238.240273" y="189.174915" style="fill: #ff0000; stroke: #ff0000; stroke-width: 1.5"/>
     <use xlink:href="#mdc0741d33a" x="210.460412" y="163.721244" style="fill: #ff0000; stroke: #ff0000; stroke-width: 1.5"/>
     <use xlink:href="#mdc0741d33a" x="182.680552" y="138.267573" style="fill: #ff0000; stroke: #ff0000; stroke-width: 1.5"/>
     <use xlink:href="#mdc0741d33a" x="182.680552" y="112.813902" style="fill: #ff0000; stroke: #ff0000; stroke-width: 1.5"/>
     <use xlink:href="#mdc0741d33a" x="154.900692" y="87.360232" style="fill: #ff0000; stroke: #ff0000; stroke-width: 1.5"/>
     <use xlink:href="#mdc0741d33a" x="127.120831" y="61.906561" style="fill: #ff0000; stroke: #ff0000; stroke-width: 1.5"/>
     <use xlink:href="#mdc0741d33a" x="99.340971" y="36.45289" style="fill: #ff0000; stroke: #ff0000; stroke-width: 1.5"/>
     <use xlink:href="#mdc0741d33a" x="71.56111" y="10.999219" style="fill: #ff0000; stroke: #ff0000; stroke-width: 1.5"/>
    </g>
   </g>
   <g id="matplotlib.axis_1">
    <g id="xtick_1">
     <g id="line2d_1">
      <defs>
       <path id="m38f3b05bbe" d="M 0 0 
L 0 3.5 
" style="stroke: #000000; stroke-width: 0.8"/>
      </defs>
      <g>
       <use xlink:href="#m38f3b05bbe" x="43.78125" y="316.44327" style="stroke: #000000; stroke-width: 0.8"/>
      </g>
     </g>
     <g id="text_1">
      <!-- $\mathdefault{10^{-4}}$ -->
      <g transform="translate(32.03125 331.041707) scale(0.1 -0.1)">
       <defs>
        <path id="DejaVuSans-31" d="M 794 531 
L 1825 531 
L 1825 4091 
L 703 3866 
L 703 4441 
L 1819 4666 
L 2450 4666 
L 2450 531 
L 3481 531 
L 3481 0 
L 794 0 
L 794 531 
z
" transform="scale(0.015625)"/>
        <path id="DejaVuSans-30" d="M 2034 4250 
Q 1547 4250 1301 3770 
Q 1056 3291 1056 2328 
Q 1056 1369 1301 889 
Q 1547 409 2034 409 
Q 2525 409 2770 889 
Q 3016 1369 3016 2328 
Q 3016 3291 2770 3770 
Q 2525 4250 2034 4250 
z
M 2034 4750 
Q 2819 4750 3233 4129 
Q 3647 3509 3647 2328 
Q 3647 1150 3233 529 
Q 2819 -91 2034 -91 
Q 1250 -91 836 529 
Q 422 1150 422 2328 
Q 422 3509 836 4129 
Q 1250 4750 2034 4750 
z
" transform="scale(0.015625)"/>
        <path id="DejaVuSans-2212" d="M 678 2272 
L 4684 2272 
L 4684 1741 
L 678 1741 
L 678 2272 
z
" transform="scale(0.015625)"/>
        <path id="DejaVuSans-34" d="M 2419 4116 
L 825 1625 
L 2419 1625 
L 2419 4116 
z
M 2253 4666 
L 3047 4666 
L 3047 1625 
L 3713 1625 
L 3713 1100 
L 3047 1100 
L 3047 0 
L 2419 0 
L 2419 1100 
L 313 1100 
L 313 1709 
L 2253 4666 
z
" transform="scale(0.015625)"/>
       </defs>
       <use xlink:href="#DejaVuSans-31" transform="translate(0 0.684375)"/>
       <use xlink:href="#DejaVuSans-30" transform="translate(63.623047 0.684375)"/>
       <use xlink:href="#DejaVuSans-2212" transform="translate(128.203125 38.965625) scale(0.7)"/>
       <use xlink:href="#DejaVuSans-34" transform="translate(186.855469 38.965625) scale(0.7)"/>
      </g>
     </g>
    </g>
    <g id="xtick_2">
     <g id="line2d_2">
      <g>
       <use xlink:href="#m38f3b05bbe" x="154.900692" y="316.44327" style="stroke: #000000; stroke-width: 0.8"/>
      </g>
     </g>
     <g id="text_2">
      <!-- $\mathdefault{10^{-3}}$ -->
      <g transform="translate(143.150692 331.041707) scale(0.1 -0.1)">
       <defs>
        <path id="DejaVuSans-33" d="M 2597 2516 
Q 3050 2419 3304 2112 
Q 3559 1806 3559 1356 
Q 3559 666 3084 287 
Q 2609 -91 1734 -91 
Q 1441 -91 1130 -33 
Q 819 25 488 141 
L 488 750 
Q 750 597 1062 519 
Q 1375 441 1716 441 
Q 2309 441 2620 675 
Q 2931 909 2931 1356 
Q 2931 1769 2642 2001 
Q 2353 2234 1838 2234 
L 1294 2234 
L 1294 2753 
L 1863 2753 
Q 2328 2753 2575 2939 
Q 2822 3125 2822 3475 
Q 2822 3834 2567 4026 
Q 2313 4219 1838 4219 
Q 1578 4219 1281 4162 
Q 984 4106 628 3988 
L 628 4550 
Q 988 4650 1302 4700 
Q 1616 4750 1894 4750 
Q 2613 4750 3031 4423 
Q 3450 4097 3450 3541 
Q 3450 3153 3228 2886 
Q 3006 2619 2597 2516 
z
" transform="scale(0.015625)"/>
       </defs>
       <use xlink:href="#DejaVuSans-31" transform="translate(0 0.765625)"/>
       <use xlink:href="#DejaVuSans-30" transform="translate(63.623047 0.765625)"/>
       <use xlink:href="#DejaVuSans-2212" transform="translate(128.203125 39.046875) scale(0.7)"/>
       <use xlink:href="#DejaVuSans-33" transform="translate(186.855469 39.046875) scale(0.7)"/>
      </g>
     </g>
    </g>
    <g id="xtick_3">
     <g id="line2d_3">
      <g>
       <use xlink:href="#m38f3b05bbe" x="266.020133" y="316.44327" style="stroke: #000000; stroke-width: 0.8"/>
      </g>
     </g>
     <g id="text_3">
      <!-- $\mathdefault{10^{-2}}$ -->
      <g transform="translate(254.270133 331.041707) scale(0.1 -0.1)">
       <defs>
        <path id="DejaVuSans-32" d="M 1228 531 
L 3431 531 
L 3431 0 
L 469 0 
L 469 531 
Q 828 903 1448 1529 
Q 2069 2156 2228 2338 
Q 2531 2678 2651 2914 
Q 2772 3150 2772 3378 
Q 2772 3750 2511 3984 
Q 2250 4219 1831 4219 
Q 1534 4219 1204 4116 
Q 875 4013 500 3803 
L 500 4441 
Q 881 4594 1212 4672 
Q 1544 4750 1819 4750 
Q 2544 4750 2975 4387 
Q 3406 4025 3406 3419 
Q 3406 3131 3298 2873 
Q 3191 2616 2906 2266 
Q 2828 2175 2409 1742 
Q 1991 1309 1228 531 
z
" transform="scale(0.015625)"/>
       </defs>
       <use xlink:href="#DejaVuSans-31" transform="translate(0 0.765625)"/>
       <use xlink:href="#DejaVuSans-30" transform="translate(63.623047 0.765625)"/>
       <use xlink:href="#DejaVuSans-2212" transform="translate(128.203125 39.046875) scale(0.7)"/>
       <use xlink:href="#DejaVuSans-32" transform="translate(186.855469 39.046875) scale(0.7)"/>
      </g>
     </g>
    </g>
    <g id="xtick_4">
     <g id="line2d_4">
      <g>
       <use xlink:href="#m38f3b05bbe" x="377.139575" y="316.44327" style="stroke: #000000; stroke-width: 0.8"/>
      </g>
     </g>
     <g id="text_4">
      <!-- $\mathdefault{10^{-1}}$ -->
      <g transform="translate(365.389575 331.041707) scale(0.1 -0.1)">
       <use xlink:href="#DejaVuSans-31" transform="translate(0 0.684375)"/>
       <use xlink:href="#DejaVuSans-30" transform="translate(63.623047 0.684375)"/>
       <use xlink:href="#DejaVuSans-2212" transform="translate(128.203125 38.965625) scale(0.7)"/>
       <use xlink:href="#DejaVuSans-31" transform="translate(186.855469 38.965625) scale(0.7)"/>
      </g>
     </g>
    </g>
    <g id="xtick_5">
     <g id="line2d_5">
      <defs>
       <path id="m360e1f0208" d="M 0 0 
L 0 2 
" style="stroke: #000000; stroke-width: 0.6"/>
      </defs>
      <g>
       <use xlink:href="#m360e1f0208" x="77.231535" y="316.44327" style="stroke: #000000; stroke-width: 0.6"/>
      </g>
     </g>
    </g>
    <g id="xtick_6">
     <g id="line2d_6">
      <g>
       <use xlink:href="#m360e1f0208" x="96.798697" y="316.44327" style="stroke: #000000; stroke-width: 0.6"/>
      </g>
     </g>
    </g>
    <g id="xtick_7">
     <g id="line2d_7">
      <g>
       <use xlink:href="#m360e1f0208" x="110.68182" y="316.44327" style="stroke: #000000; stroke-width: 0.6"/>
      </g>
     </g>
    </g>
    <g id="xtick_8">
     <g id="line2d_8">
      <g>
       <use xlink:href="#m360e1f0208" x="121.450407" y="316.44327" style="stroke: #000000; stroke-width: 0.6"/>
      </g>
     </g>
    </g>
    <g id="xtick_9">
     <g id="line2d_9">
      <g>
       <use xlink:href="#m360e1f0208" x="130.248982" y="316.44327" style="stroke: #000000; stroke-width: 0.6"/>
      </g>
     </g>
    </g>
    <g id="xtick_10">
     <g id="line2d_10">
      <g>
       <use xlink:href="#m360e1f0208" x="137.688072" y="316.44327" style="stroke: #000000; stroke-width: 0.6"/>
      </g>
     </g>
    </g>
    <g id="xtick_11">
     <g id="line2d_11">
      <g>
       <use xlink:href="#m360e1f0208" x="144.132105" y="316.44327" style="stroke: #000000; stroke-width: 0.6"/>
      </g>
     </g>
    </g>
    <g id="xtick_12">
     <g id="line2d_12">
      <g>
       <use xlink:href="#m360e1f0208" x="149.816145" y="316.44327" style="stroke: #000000; stroke-width: 0.6"/>
      </g>
     </g>
    </g>
    <g id="xtick_13">
     <g id="line2d_13">
      <g>
       <use xlink:href="#m360e1f0208" x="188.350977" y="316.44327" style="stroke: #000000; stroke-width: 0.6"/>
      </g>
     </g>
    </g>
    <g id="xtick_14">
     <g id="line2d_14">
      <g>
       <use xlink:href="#m360e1f0208" x="207.918139" y="316.44327" style="stroke: #000000; stroke-width: 0.6"/>
      </g>
     </g>
    </g>
    <g id="xtick_15">
     <g id="line2d_15">
      <g>
       <use xlink:href="#m360e1f0208" x="221.801262" y="316.44327" style="stroke: #000000; stroke-width: 0.6"/>
      </g>
     </g>
    </g>
    <g id="xtick_16">
     <g id="line2d_16">
      <g>
       <use xlink:href="#m360e1f0208" x="232.569848" y="316.44327" style="stroke: #000000; stroke-width: 0.6"/>
      </g>
     </g>
    </g>
    <g id="xtick_17">
     <g id="line2d_17">
      <g>
       <use xlink:href="#m360e1f0208" x="241.368424" y="316.44327" style="stroke: #000000; stroke-width: 0.6"/>
      </g>
     </g>
    </g>
    <g id="xtick_18">
     <g id="line2d_18">
      <g>
       <use xlink:href="#m360e1f0208" x="248.807514" y="316.44327" style="stroke: #000000; stroke-width: 0.6"/>
      </g>
     </g>
    </g>
    <g id="xtick_19">
     <g id="line2d_19">
      <g>
       <use xlink:href="#m360e1f0208" x="255.251547" y="316.44327" style="stroke: #000000; stroke-width: 0.6"/>
      </g>
     </g>
    </g>
    <g id="xtick_20">
     <g id="line2d_20">
      <g>
       <use xlink:href="#m360e1f0208" x="260.935586" y="316.44327" style="stroke: #000000; stroke-width: 0.6"/>
      </g>
     </g>
    </g>
    <g id="xtick_21">
     <g id="line2d_21">
      <g>
       <use xlink:href="#m360e1f0208" x="299.470418" y="316.44327" style="stroke: #000000; stroke-width: 0.6"/>
      </g>
     </g>
    </g>
    <g id="xtick_22">
     <g id="line2d_22">
      <g>
       <use xlink:href="#m360e1f0208" x="319.03758" y="316.44327" style="stroke: #000000; stroke-width: 0.6"/>
      </g>
     </g>
    </g>
    <g id="xtick_23">
     <g id="line2d_23">
      <g>
       <use xlink:href="#m360e1f0208" x="332.920703" y="316.44327" style="stroke: #000000; stroke-width: 0.6"/>
      </g>
     </g>
    </g>
    <g id="xtick_24">
     <g id="line2d_24">
      <g>
       <use xlink:href="#m360e1f0208" x="343.68929" y="316.44327" style="stroke: #000000; stroke-width: 0.6"/>
      </g>
     </g>
    </g>
    <g id="xtick_25">
     <g id="line2d_25">
      <g>
       <use xlink:href="#m360e1f0208" x="352.487865" y="316.44327" style="stroke: #000000; stroke-width: 0.6"/>
      </g>
     </g>
    </g>
    <g id="xtick_26">
     <g id="line2d_26">
      <g>
       <use xlink:href="#m360e1f0208" x="359.926955" y="316.44327" style="stroke: #000000; stroke-width: 0.6"/>
      </g>
     </g>
    </g>
    <g id="xtick_27">
     <g id="line2d_27">
      <g>
       <use xlink:href="#m360e1f0208" x="366.370988" y="316.44327" style="stroke: #000000; stroke-width: 0.6"/>
      </g>
     </g>
    </g>
    <g id="xtick_28">
     <g id="line2d_28">
      <g>
       <use xlink:href="#m360e1f0208" x="372.055028" y="316.44327" style="stroke: #000000; stroke-width: 0.6"/>
      </g>
     </g>
    </g>
    <g id="text_5">
     <!-- bandwidth -->
     <g transform="translate(184.097912 344.719832) scale(0.1 -0.1)">
      <defs>
       <path id="DejaVuSans-62" d="M 3116 1747 
Q 3116 2381 2855 2742 
Q 2594 3103 2138 3103 
Q 1681 3103 1420 2742 
Q 1159 2381 1159 1747 
Q 1159 1113 1420 752 
Q 1681 391 2138 391 
Q 2594 391 2855 752 
Q 3116 1113 3116 1747 
z
M 1159 2969 
Q 1341 3281 1617 3432 
Q 1894 3584 2278 3584 
Q 2916 3584 3314 3078 
Q 3713 2572 3713 1747 
Q 3713 922 3314 415 
Q 2916 -91 2278 -91 
Q 1894 -91 1617 61 
Q 1341 213 1159 525 
L 1159 0 
L 581 0 
L 581 4863 
L 1159 4863 
L 1159 2969 
z
" transform="scale(0.015625)"/>
       <path id="DejaVuSans-61" d="M 2194 1759 
Q 1497 1759 1228 1600 
Q 959 1441 959 1056 
Q 959 750 1161 570 
Q 1363 391 1709 391 
Q 2188 391 2477 730 
Q 2766 1069 2766 1631 
L 2766 1759 
L 2194 1759 
z
M 3341 1997 
L 3341 0 
L 2766 0 
L 2766 531 
Q 2569 213 2275 61 
Q 1981 -91 1556 -91 
Q 1019 -91 701 211 
Q 384 513 384 1019 
Q 384 1609 779 1909 
Q 1175 2209 1959 2209 
L 2766 2209 
L 2766 2266 
Q 2766 2663 2505 2880 
Q 2244 3097 1772 3097 
Q 1472 3097 1187 3025 
Q 903 2953 641 2809 
L 641 3341 
Q 956 3463 1253 3523 
Q 1550 3584 1831 3584 
Q 2591 3584 2966 3190 
Q 3341 2797 3341 1997 
z
" transform="scale(0.015625)"/>
       <path id="DejaVuSans-6e" d="M 3513 2113 
L 3513 0 
L 2938 0 
L 2938 2094 
Q 2938 2591 2744 2837 
Q 2550 3084 2163 3084 
Q 1697 3084 1428 2787 
Q 1159 2491 1159 1978 
L 1159 0 
L 581 0 
L 581 3500 
L 1159 3500 
L 1159 2956 
Q 1366 3272 1645 3428 
Q 1925 3584 2291 3584 
Q 2894 3584 3203 3211 
Q 3513 2838 3513 2113 
z
" transform="scale(0.015625)"/>
       <path id="DejaVuSans-64" d="M 2906 2969 
L 2906 4863 
L 3481 4863 
L 3481 0 
L 2906 0 
L 2906 525 
Q 2725 213 2448 61 
Q 2172 -91 1784 -91 
Q 1150 -91 751 415 
Q 353 922 353 1747 
Q 353 2572 751 3078 
Q 1150 3584 1784 3584 
Q 2172 3584 2448 3432 
Q 2725 3281 2906 2969 
z
M 947 1747 
Q 947 1113 1208 752 
Q 1469 391 1925 391 
Q 2381 391 2643 752 
Q 2906 1113 2906 1747 
Q 2906 2381 2643 2742 
Q 2381 3103 1925 3103 
Q 1469 3103 1208 2742 
Q 947 2381 947 1747 
z
" transform="scale(0.015625)"/>
       <path id="DejaVuSans-77" d="M 269 3500 
L 844 3500 
L 1563 769 
L 2278 3500 
L 2956 3500 
L 3675 769 
L 4391 3500 
L 4966 3500 
L 4050 0 
L 3372 0 
L 2619 2869 
L 1863 0 
L 1184 0 
L 269 3500 
z
" transform="scale(0.015625)"/>
       <path id="DejaVuSans-69" d="M 603 3500 
L 1178 3500 
L 1178 0 
L 603 0 
L 603 3500 
z
M 603 4863 
L 1178 4863 
L 1178 4134 
L 603 4134 
L 603 4863 
z
" transform="scale(0.015625)"/>
       <path id="DejaVuSans-74" d="M 1172 4494 
L 1172 3500 
L 2356 3500 
L 2356 3053 
L 1172 3053 
L 1172 1153 
Q 1172 725 1289 603 
Q 1406 481 1766 481 
L 2356 481 
L 2356 0 
L 1766 0 
Q 1100 0 847 248 
Q 594 497 594 1153 
L 594 3053 
L 172 3053 
L 172 3500 
L 594 3500 
L 594 4494 
L 1172 4494 
z
" transform="scale(0.015625)"/>
       <path id="DejaVuSans-68" d="M 3513 2113 
L 3513 0 
L 2938 0 
L 2938 2094 
Q 2938 2591 2744 2837 
Q 2550 3084 2163 3084 
Q 1697 3084 1428 2787 
Q 1159 2491 1159 1978 
L 1159 0 
L 581 0 
L 581 4863 
L 1159 4863 
L 1159 2956 
Q 1366 3272 1645 3428 
Q 1925 3584 2291 3584 
Q 2894 3584 3203 3211 
Q 3513 2838 3513 2113 
z
" transform="scale(0.015625)"/>
      </defs>
      <use xlink:href="#DejaVuSans-62"/>
      <use xlink:href="#DejaVuSans-61" transform="translate(63.476562 0)"/>
      <use xlink:href="#DejaVuSans-6e" transform="translate(124.755859 0)"/>
      <use xlink:href="#DejaVuSans-64" transform="translate(188.134766 0)"/>
      <use xlink:href="#DejaVuSans-77" transform="translate(251.611328 0)"/>
      <use xlink:href="#DejaVuSans-69" transform="translate(333.398438 0)"/>
      <use xlink:href="#DejaVuSans-64" transform="translate(361.181641 0)"/>
      <use xlink:href="#DejaVuSans-74" transform="translate(424.658203 0)"/>
      <use xlink:href="#DejaVuSans-68" transform="translate(463.867188 0)"/>
     </g>
    </g>
   </g>
   <g id="matplotlib.axis_2">
    <g id="ytick_1">
     <g id="line2d_29">
      <defs>
       <path id="mbd2f377c6c" d="M 0 0 
L -3.5 0 
" style="stroke: #000000; stroke-width: 0.8"/>
      </defs>
      <g>
       <use xlink:href="#mbd2f377c6c" x="43.78125" y="316.44327" style="stroke: #000000; stroke-width: 0.8"/>
      </g>
     </g>
     <g id="text_6">
      <!-- 1.0 -->
      <g transform="translate(20.878125 320.242489) scale(0.1 -0.1)">
       <defs>
        <path id="DejaVuSans-2e" d="M 684 794 
L 1344 794 
L 1344 0 
L 684 0 
L 684 794 
z
" transform="scale(0.015625)"/>
       </defs>
       <use xlink:href="#DejaVuSans-31"/>
       <use xlink:href="#DejaVuSans-2e" transform="translate(63.623047 0)"/>
       <use xlink:href="#DejaVuSans-30" transform="translate(95.410156 0)"/>
      </g>
     </g>
    </g>
    <g id="ytick_2">
     <g id="line2d_30">
      <g>
       <use xlink:href="#mbd2f377c6c" x="43.78125" y="265.535928" style="stroke: #000000; stroke-width: 0.8"/>
      </g>
     </g>
     <g id="text_7">
      <!-- 1.5 -->
      <g transform="translate(20.878125 269.335147) scale(0.1 -0.1)">
       <defs>
        <path id="DejaVuSans-35" d="M 691 4666 
L 3169 4666 
L 3169 4134 
L 1269 4134 
L 1269 2991 
Q 1406 3038 1543 3061 
Q 1681 3084 1819 3084 
Q 2600 3084 3056 2656 
Q 3513 2228 3513 1497 
Q 3513 744 3044 326 
Q 2575 -91 1722 -91 
Q 1428 -91 1123 -41 
Q 819 9 494 109 
L 494 744 
Q 775 591 1075 516 
Q 1375 441 1709 441 
Q 2250 441 2565 725 
Q 2881 1009 2881 1497 
Q 2881 1984 2565 2268 
Q 2250 2553 1709 2553 
Q 1456 2553 1204 2497 
Q 953 2441 691 2322 
L 691 4666 
z
" transform="scale(0.015625)"/>
       </defs>
       <use xlink:href="#DejaVuSans-31"/>
       <use xlink:href="#DejaVuSans-2e" transform="translate(63.623047 0)"/>
       <use xlink:href="#DejaVuSans-35" transform="translate(95.410156 0)"/>
      </g>
     </g>
    </g>
    <g id="ytick_3">
     <g id="line2d_31">
      <g>
       <use xlink:href="#mbd2f377c6c" x="43.78125" y="214.628586" style="stroke: #000000; stroke-width: 0.8"/>
      </g>
     </g>
     <g id="text_8">
      <!-- 2.0 -->
      <g transform="translate(20.878125 218.427805) scale(0.1 -0.1)">
       <use xlink:href="#DejaVuSans-32"/>
       <use xlink:href="#DejaVuSans-2e" transform="translate(63.623047 0)"/>
       <use xlink:href="#DejaVuSans-30" transform="translate(95.410156 0)"/>
      </g>
     </g>
    </g>
    <g id="ytick_4">
     <g id="line2d_32">
      <g>
       <use xlink:href="#mbd2f377c6c" x="43.78125" y="163.721244" style="stroke: #000000; stroke-width: 0.8"/>
      </g>
     </g>
     <g id="text_9">
      <!-- 2.5 -->
      <g transform="translate(20.878125 167.520463) scale(0.1 -0.1)">
       <use xlink:href="#DejaVuSans-32"/>
       <use xlink:href="#DejaVuSans-2e" transform="translate(63.623047 0)"/>
       <use xlink:href="#DejaVuSans-35" transform="translate(95.410156 0)"/>
      </g>
     </g>
    </g>
    <g id="ytick_5">
     <g id="line2d_33">
      <g>
       <use xlink:href="#mbd2f377c6c" x="43.78125" y="112.813902" style="stroke: #000000; stroke-width: 0.8"/>
      </g>
     </g>
     <g id="text_10">
      <!-- 3.0 -->
      <g transform="translate(20.878125 116.613121) scale(0.1 -0.1)">
       <use xlink:href="#DejaVuSans-33"/>
       <use xlink:href="#DejaVuSans-2e" transform="translate(63.623047 0)"/>
       <use xlink:href="#DejaVuSans-30" transform="translate(95.410156 0)"/>
      </g>
     </g>
    </g>
    <g id="ytick_6">
     <g id="line2d_34">
      <g>
       <use xlink:href="#mbd2f377c6c" x="43.78125" y="61.906561" style="stroke: #000000; stroke-width: 0.8"/>
      </g>
     </g>
     <g id="text_11">
      <!-- 3.5 -->
      <g transform="translate(20.878125 65.705779) scale(0.1 -0.1)">
       <use xlink:href="#DejaVuSans-33"/>
       <use xlink:href="#DejaVuSans-2e" transform="translate(63.623047 0)"/>
       <use xlink:href="#DejaVuSans-35" transform="translate(95.410156 0)"/>
      </g>
     </g>
    </g>
    <g id="ytick_7">
     <g id="line2d_35">
      <g>
       <use xlink:href="#mbd2f377c6c" x="43.78125" y="10.999219" style="stroke: #000000; stroke-width: 0.8"/>
      </g>
     </g>
     <g id="text_12">
      <!-- 4.0 -->
      <g transform="translate(20.878125 14.798438) scale(0.1 -0.1)">
       <use xlink:href="#DejaVuSans-34"/>
       <use xlink:href="#DejaVuSans-2e" transform="translate(63.623047 0)"/>
       <use xlink:href="#DejaVuSans-30" transform="translate(95.410156 0)"/>
      </g>
     </g>
    </g>
    <g id="text_13">
     <!-- alpha -->
     <g transform="translate(14.798438 177.581401) rotate(-90) scale(0.1 -0.1)">
      <defs>
       <path id="DejaVuSans-6c" d="M 603 4863 
L 1178 4863 
L 1178 0 
L 603 0 
L 603 4863 
z
" transform="scale(0.015625)"/>
       <path id="DejaVuSans-70" d="M 1159 525 
L 1159 -1331 
L 581 -1331 
L 581 3500 
L 1159 3500 
L 1159 2969 
Q 1341 3281 1617 3432 
Q 1894 3584 2278 3584 
Q 2916 3584 3314 3078 
Q 3713 2572 3713 1747 
Q 3713 922 3314 415 
Q 2916 -91 2278 -91 
Q 1894 -91 1617 61 
Q 1341 213 1159 525 
z
M 3116 1747 
Q 3116 2381 2855 2742 
Q 2594 3103 2138 3103 
Q 1681 3103 1420 2742 
Q 1159 2381 1159 1747 
Q 1159 1113 1420 752 
Q 1681 391 2138 391 
Q 2594 391 2855 752 
Q 3116 1113 3116 1747 
z
" transform="scale(0.015625)"/>
      </defs>
      <use xlink:href="#DejaVuSans-61"/>
      <use xlink:href="#DejaVuSans-6c" transform="translate(61.279297 0)"/>
      <use xlink:href="#DejaVuSans-70" transform="translate(89.0625 0)"/>
      <use xlink:href="#DejaVuSans-68" transform="translate(152.539062 0)"/>
      <use xlink:href="#DejaVuSans-61" transform="translate(215.917969 0)"/>
     </g>
    </g>
   </g>
   <g id="patch_3">
    <path d="M 43.78125 316.44327 
L 43.78125 10.999219 
" style="fill: none; stroke: #000000; stroke-width: 0.8; stroke-linejoin: miter; stroke-linecap: square"/>
   </g>
   <g id="patch_4">
    <path d="M 377.139575 316.44327 
L 377.139575 10.999219 
" style="fill: none; stroke: #000000; stroke-width: 0.8; stroke-linejoin: miter; stroke-linecap: square"/>
   </g>
   <g id="patch_5">
    <path d="M 43.78125 316.44327 
L 377.139575 316.44327 
" style="fill: none; stroke: #000000; stroke-width: 0.8; stroke-linejoin: miter; stroke-linecap: square"/>
   </g>
   <g id="patch_6">
    <path d="M 43.78125 10.999219 
L 377.139575 10.999219 
" style="fill: none; stroke: #000000; stroke-width: 0.8; stroke-linejoin: miter; stroke-linecap: square"/>
   </g>
  </g>
  <g id="axes_2">
   <g id="patch_7">
    <path d="M 405.557491 316.44327 
L 420.829693 316.44327 
L 420.829693 10.999219 
L 405.557491 10.999219 
z
" style="fill: #ffffff"/>
   </g>
   <g id="QuadMesh_1">
    <path d="M 405.557491 316.44327 
L 420.829693 316.44327 
L 420.829693 296.080333 
L 405.557491 296.080333 
L 405.557491 316.44327 
" clip-path="url(#p5194d1f9fc)" style="fill: #470d60"/>
    <path d="M 405.557491 296.080333 
L 420.829693 296.080333 
L 420.829693 275.717396 
L 405.557491 275.717396 
L 405.557491 296.080333 
" clip-path="url(#p5194d1f9fc)" style="fill: #482475"/>
    <path d="M 405.557491 275.717396 
L 420.829693 275.717396 
L 420.829693 255.35446 
L 405.557491 255.35446 
L 405.557491 275.717396 
" clip-path="url(#p5194d1f9fc)" style="fill: #443983"/>
    <path d="M 405.557491 255.35446 
L 420.829693 255.35446 
L 420.829693 234.991523 
L 405.557491 234.991523 
L 405.557491 255.35446 
" clip-path="url(#p5194d1f9fc)" style="fill: #3d4d8a"/>
    <path d="M 405.557491 234.991523 
L 420.829693 234.991523 
L 420.829693 214.628586 
L 405.557491 214.628586 
L 405.557491 234.991523 
" clip-path="url(#p5194d1f9fc)" style="fill: #355f8d"/>
    <path d="M 405.557491 214.628586 
L 420.829693 214.628586 
L 420.829693 194.265649 
L 405.557491 194.265649 
L 405.557491 214.628586 
" clip-path="url(#p5194d1f9fc)" style="fill: #2d708e"/>
    <path d="M 405.557491 194.265649 
L 420.829693 194.265649 
L 420.829693 173.902713 
L 405.557491 173.902713 
L 405.557491 194.265649 
" clip-path="url(#p5194d1f9fc)" style="fill: #27808e"/>
    <path d="M 405.557491 173.902713 
L 420.829693 173.902713 
L 420.829693 153.539776 
L 405.557491 153.539776 
L 405.557491 173.902713 
" clip-path="url(#p5194d1f9fc)" style="fill: #21918c"/>
    <path d="M 405.557491 153.539776 
L 420.829693 153.539776 
L 420.829693 133.176839 
L 405.557491 133.176839 
L 405.557491 153.539776 
" clip-path="url(#p5194d1f9fc)" style="fill: #1fa188"/>
    <path d="M 405.557491 133.176839 
L 420.829693 133.176839 
L 420.829693 112.813902 
L 405.557491 112.813902 
L 405.557491 133.176839 
" clip-path="url(#p5194d1f9fc)" style="fill: #2ab07f"/>
    <path d="M 405.557491 112.813902 
L 420.829693 112.813902 
L 420.829693 92.450966 
L 405.557491 92.450966 
L 405.557491 112.813902 
" clip-path="url(#p5194d1f9fc)" style="fill: #44bf70"/>
    <path d="M 405.557491 92.450966 
L 420.829693 92.450966 
L 420.829693 72.088029 
L 405.557491 72.088029 
L 405.557491 92.450966 
" clip-path="url(#p5194d1f9fc)" style="fill: #67cc5c"/>
    <path d="M 405.557491 72.088029 
L 420.829693 72.088029 
L 420.829693 51.725092 
L 405.557491 51.725092 
L 405.557491 72.088029 
" clip-path="url(#p5194d1f9fc)" style="fill: #90d743"/>
    <path d="M 405.557491 51.725092 
L 420.829693 51.725092 
L 420.829693 31.362156 
L 405.557491 31.362156 
L 405.557491 51.725092 
" clip-path="url(#p5194d1f9fc)" style="fill: #bddf26"/>
    <path d="M 405.557491 31.362156 
L 420.829693 31.362156 
L 420.829693 10.999219 
L 405.557491 10.999219 
L 405.557491 31.362156 
" clip-path="url(#p5194d1f9fc)" style="fill: #eae51a"/>
   </g>
   <g id="matplotlib.axis_3"/>
   <g id="matplotlib.axis_4">
    <g id="ytick_8">
     <g id="line2d_36">
      <defs>
       <path id="m0a27ea52cb" d="M 0 0 
L 3.5 0 
" style="stroke: #000000; stroke-width: 0.8"/>
      </defs>
      <g>
       <use xlink:href="#m0a27ea52cb" x="420.829693" y="296.080333" style="stroke: #000000; stroke-width: 0.8"/>
      </g>
     </g>
     <g id="text_14">
      <!-- -5.6 -->
      <g transform="translate(427.829693 299.879552) scale(0.1 -0.1)">
       <defs>
        <path id="DejaVuSans-2d" d="M 313 2009 
L 1997 2009 
L 1997 1497 
L 313 1497 
L 313 2009 
z
" transform="scale(0.015625)"/>
        <path id="DejaVuSans-36" d="M 2113 2584 
Q 1688 2584 1439 2293 
Q 1191 2003 1191 1497 
Q 1191 994 1439 701 
Q 1688 409 2113 409 
Q 2538 409 2786 701 
Q 3034 994 3034 1497 
Q 3034 2003 2786 2293 
Q 2538 2584 2113 2584 
z
M 3366 4563 
L 3366 3988 
Q 3128 4100 2886 4159 
Q 2644 4219 2406 4219 
Q 1781 4219 1451 3797 
Q 1122 3375 1075 2522 
Q 1259 2794 1537 2939 
Q 1816 3084 2150 3084 
Q 2853 3084 3261 2657 
Q 3669 2231 3669 1497 
Q 3669 778 3244 343 
Q 2819 -91 2113 -91 
Q 1303 -91 875 529 
Q 447 1150 447 2328 
Q 447 3434 972 4092 
Q 1497 4750 2381 4750 
Q 2619 4750 2861 4703 
Q 3103 4656 3366 4563 
z
" transform="scale(0.015625)"/>
       </defs>
       <use xlink:href="#DejaVuSans-2d"/>
       <use xlink:href="#DejaVuSans-35" transform="translate(36.083984 0)"/>
       <use xlink:href="#DejaVuSans-2e" transform="translate(99.707031 0)"/>
       <use xlink:href="#DejaVuSans-36" transform="translate(131.494141 0)"/>
      </g>
     </g>
    </g>
    <g id="ytick_9">
     <g id="line2d_37">
      <g>
       <use xlink:href="#m0a27ea52cb" x="420.829693" y="255.35446" style="stroke: #000000; stroke-width: 0.8"/>
      </g>
     </g>
     <g id="text_15">
      <!-- -4.8 -->
      <g transform="translate(427.829693 259.153678) scale(0.1 -0.1)">
       <defs>
        <path id="DejaVuSans-38" d="M 2034 2216 
Q 1584 2216 1326 1975 
Q 1069 1734 1069 1313 
Q 1069 891 1326 650 
Q 1584 409 2034 409 
Q 2484 409 2743 651 
Q 3003 894 3003 1313 
Q 3003 1734 2745 1975 
Q 2488 2216 2034 2216 
z
M 1403 2484 
Q 997 2584 770 2862 
Q 544 3141 544 3541 
Q 544 4100 942 4425 
Q 1341 4750 2034 4750 
Q 2731 4750 3128 4425 
Q 3525 4100 3525 3541 
Q 3525 3141 3298 2862 
Q 3072 2584 2669 2484 
Q 3125 2378 3379 2068 
Q 3634 1759 3634 1313 
Q 3634 634 3220 271 
Q 2806 -91 2034 -91 
Q 1263 -91 848 271 
Q 434 634 434 1313 
Q 434 1759 690 2068 
Q 947 2378 1403 2484 
z
M 1172 3481 
Q 1172 3119 1398 2916 
Q 1625 2713 2034 2713 
Q 2441 2713 2670 2916 
Q 2900 3119 2900 3481 
Q 2900 3844 2670 4047 
Q 2441 4250 2034 4250 
Q 1625 4250 1398 4047 
Q 1172 3844 1172 3481 
z
" transform="scale(0.015625)"/>
       </defs>
       <use xlink:href="#DejaVuSans-2d"/>
       <use xlink:href="#DejaVuSans-34" transform="translate(36.083984 0)"/>
       <use xlink:href="#DejaVuSans-2e" transform="translate(99.707031 0)"/>
       <use xlink:href="#DejaVuSans-38" transform="translate(131.494141 0)"/>
      </g>
     </g>
    </g>
    <g id="ytick_10">
     <g id="line2d_38">
      <g>
       <use xlink:href="#m0a27ea52cb" x="420.829693" y="214.628586" style="stroke: #000000; stroke-width: 0.8"/>
      </g>
     </g>
     <g id="text_16">
      <!-- -4.0 -->
      <g transform="translate(427.829693 218.427805) scale(0.1 -0.1)">
       <use xlink:href="#DejaVuSans-2d"/>
       <use xlink:href="#DejaVuSans-34" transform="translate(36.083984 0)"/>
       <use xlink:href="#DejaVuSans-2e" transform="translate(99.707031 0)"/>
       <use xlink:href="#DejaVuSans-30" transform="translate(131.494141 0)"/>
      </g>
     </g>
    </g>
    <g id="ytick_11">
     <g id="line2d_39">
      <g>
       <use xlink:href="#m0a27ea52cb" x="420.829693" y="173.902713" style="stroke: #000000; stroke-width: 0.8"/>
      </g>
     </g>
     <g id="text_17">
      <!-- -3.2 -->
      <g transform="translate(427.829693 177.701931) scale(0.1 -0.1)">
       <use xlink:href="#DejaVuSans-2d"/>
       <use xlink:href="#DejaVuSans-33" transform="translate(36.083984 0)"/>
       <use xlink:href="#DejaVuSans-2e" transform="translate(99.707031 0)"/>
       <use xlink:href="#DejaVuSans-32" transform="translate(131.494141 0)"/>
      </g>
     </g>
    </g>
    <g id="ytick_12">
     <g id="line2d_40">
      <g>
       <use xlink:href="#m0a27ea52cb" x="420.829693" y="133.176839" style="stroke: #000000; stroke-width: 0.8"/>
      </g>
     </g>
     <g id="text_18">
      <!-- -2.4 -->
      <g transform="translate(427.829693 136.976058) scale(0.1 -0.1)">
       <use xlink:href="#DejaVuSans-2d"/>
       <use xlink:href="#DejaVuSans-32" transform="translate(36.083984 0)"/>
       <use xlink:href="#DejaVuSans-2e" transform="translate(99.707031 0)"/>
       <use xlink:href="#DejaVuSans-34" transform="translate(131.494141 0)"/>
      </g>
     </g>
    </g>
    <g id="ytick_13">
     <g id="line2d_41">
      <g>
       <use xlink:href="#m0a27ea52cb" x="420.829693" y="92.450966" style="stroke: #000000; stroke-width: 0.8"/>
      </g>
     </g>
     <g id="text_19">
      <!-- -1.6 -->
      <g transform="translate(427.829693 96.250184) scale(0.1 -0.1)">
       <use xlink:href="#DejaVuSans-2d"/>
       <use xlink:href="#DejaVuSans-31" transform="translate(36.083984 0)"/>
       <use xlink:href="#DejaVuSans-2e" transform="translate(99.707031 0)"/>
       <use xlink:href="#DejaVuSans-36" transform="translate(131.494141 0)"/>
      </g>
     </g>
    </g>
    <g id="ytick_14">
     <g id="line2d_42">
      <g>
       <use xlink:href="#m0a27ea52cb" x="420.829693" y="51.725092" style="stroke: #000000; stroke-width: 0.8"/>
      </g>
     </g>
     <g id="text_20">
      <!-- -0.8 -->
      <g transform="translate(427.829693 55.524311) scale(0.1 -0.1)">
       <use xlink:href="#DejaVuSans-2d"/>
       <use xlink:href="#DejaVuSans-30" transform="translate(36.083984 0)"/>
       <use xlink:href="#DejaVuSans-2e" transform="translate(99.707031 0)"/>
       <use xlink:href="#DejaVuSans-38" transform="translate(131.494141 0)"/>
      </g>
     </g>
    </g>
    <g id="ytick_15">
     <g id="line2d_43">
      <g>
       <use xlink:href="#m0a27ea52cb" x="420.829693" y="10.999219" style="stroke: #000000; stroke-width: 0.8"/>
      </g>
     </g>
     <g id="text_21">
      <!-- 0.0 -->
      <g transform="translate(427.829693 14.798438) scale(0.1 -0.1)">
       <use xlink:href="#DejaVuSans-30"/>
       <use xlink:href="#DejaVuSans-2e" transform="translate(63.623047 0)"/>
       <use xlink:href="#DejaVuSans-30" transform="translate(95.410156 0)"/>
      </g>
     </g>
    </g>
    <g id="text_22">
     <!-- Score -->
     <g transform="translate(458.939068 177.723588) rotate(-90) scale(0.1 -0.1)">
      <defs>
       <path id="DejaVuSans-53" d="M 3425 4513 
L 3425 3897 
Q 3066 4069 2747 4153 
Q 2428 4238 2131 4238 
Q 1616 4238 1336 4038 
Q 1056 3838 1056 3469 
Q 1056 3159 1242 3001 
Q 1428 2844 1947 2747 
L 2328 2669 
Q 3034 2534 3370 2195 
Q 3706 1856 3706 1288 
Q 3706 609 3251 259 
Q 2797 -91 1919 -91 
Q 1588 -91 1214 -16 
Q 841 59 441 206 
L 441 856 
Q 825 641 1194 531 
Q 1563 422 1919 422 
Q 2459 422 2753 634 
Q 3047 847 3047 1241 
Q 3047 1584 2836 1778 
Q 2625 1972 2144 2069 
L 1759 2144 
Q 1053 2284 737 2584 
Q 422 2884 422 3419 
Q 422 4038 858 4394 
Q 1294 4750 2059 4750 
Q 2388 4750 2728 4690 
Q 3069 4631 3425 4513 
z
" transform="scale(0.015625)"/>
       <path id="DejaVuSans-63" d="M 3122 3366 
L 3122 2828 
Q 2878 2963 2633 3030 
Q 2388 3097 2138 3097 
Q 1578 3097 1268 2742 
Q 959 2388 959 1747 
Q 959 1106 1268 751 
Q 1578 397 2138 397 
Q 2388 397 2633 464 
Q 2878 531 3122 666 
L 3122 134 
Q 2881 22 2623 -34 
Q 2366 -91 2075 -91 
Q 1284 -91 818 406 
Q 353 903 353 1747 
Q 353 2603 823 3093 
Q 1294 3584 2113 3584 
Q 2378 3584 2631 3529 
Q 2884 3475 3122 3366 
z
" transform="scale(0.015625)"/>
       <path id="DejaVuSans-6f" d="M 1959 3097 
Q 1497 3097 1228 2736 
Q 959 2375 959 1747 
Q 959 1119 1226 758 
Q 1494 397 1959 397 
Q 2419 397 2687 759 
Q 2956 1122 2956 1747 
Q 2956 2369 2687 2733 
Q 2419 3097 1959 3097 
z
M 1959 3584 
Q 2709 3584 3137 3096 
Q 3566 2609 3566 1747 
Q 3566 888 3137 398 
Q 2709 -91 1959 -91 
Q 1206 -91 779 398 
Q 353 888 353 1747 
Q 353 2609 779 3096 
Q 1206 3584 1959 3584 
z
" transform="scale(0.015625)"/>
       <path id="DejaVuSans-72" d="M 2631 2963 
Q 2534 3019 2420 3045 
Q 2306 3072 2169 3072 
Q 1681 3072 1420 2755 
Q 1159 2438 1159 1844 
L 1159 0 
L 581 0 
L 581 3500 
L 1159 3500 
L 1159 2956 
Q 1341 3275 1631 3429 
Q 1922 3584 2338 3584 
Q 2397 3584 2469 3576 
Q 2541 3569 2628 3553 
L 2631 2963 
z
" transform="scale(0.015625)"/>
       <path id="DejaVuSans-65" d="M 3597 1894 
L 3597 1613 
L 953 1613 
Q 991 1019 1311 708 
Q 1631 397 2203 397 
Q 2534 397 2845 478 
Q 3156 559 3463 722 
L 3463 178 
Q 3153 47 2828 -22 
Q 2503 -91 2169 -91 
Q 1331 -91 842 396 
Q 353 884 353 1716 
Q 353 2575 817 3079 
Q 1281 3584 2069 3584 
Q 2775 3584 3186 3129 
Q 3597 2675 3597 1894 
z
M 3022 2063 
Q 3016 2534 2758 2815 
Q 2500 3097 2075 3097 
Q 1594 3097 1305 2825 
Q 1016 2553 972 2059 
L 3022 2063 
z
" transform="scale(0.015625)"/>
      </defs>
      <use xlink:href="#DejaVuSans-53"/>
      <use xlink:href="#DejaVuSans-63" transform="translate(63.476562 0)"/>
      <use xlink:href="#DejaVuSans-6f" transform="translate(118.457031 0)"/>
      <use xlink:href="#DejaVuSans-72" transform="translate(179.638672 0)"/>
      <use xlink:href="#DejaVuSans-65" transform="translate(218.501953 0)"/>
     </g>
    </g>
   </g>
   <g id="LineCollection_1"/>
   <g id="patch_8">
    <path d="M 405.557491 316.44327 
L 413.193592 316.44327 
L 420.829693 316.44327 
L 420.829693 10.999219 
L 413.193592 10.999219 
L 405.557491 10.999219 
L 405.557491 316.44327 
z
" style="fill: none; stroke: #000000; stroke-width: 0.8; stroke-linejoin: miter; stroke-linecap: square"/>
   </g>
  </g>
 </g>
 <defs>
  <clipPath id="pf26db38ceb">
   <rect x="43.78125" y="10.999219" width="333.358325" height="305.444051"/>
  </clipPath>
  <clipPath id="p5194d1f9fc">
   <rect x="405.557491" y="10.999219" width="15.272203" height="305.444051"/>
  </clipPath>
 </defs>
</svg>
