<?xml version="1.0" encoding="utf-8" standalone="no"?>
<!DOCTYPE svg PUBLIC "-//W3C//DTD SVG 1.1//EN"
  "http://www.w3.org/Graphics/SVG/1.1/DTD/svg11.dtd">
<svg xmlns:xlink="http://www.w3.org/1999/xlink" width="468.218756pt" height="353.99952pt" viewBox="0 0 468.218756 353.99952" xmlns="http://www.w3.org/2000/svg" version="1.1">
 <metadata>
  <rdf:RDF xmlns:dc="http://purl.org/dc/elements/1.1/" xmlns:cc="http://creativecommons.org/ns#" xmlns:rdf="http://www.w3.org/1999/02/22-rdf-syntax-ns#">
   <cc:Work>
    <dc:type rdf:resource="http://purl.org/dc/dcmitype/StillImage"/>
    <dc:date>1970-01-01T00:00:00+00:00</dc:date>
    <dc:format>image/svg+xml</dc:format>
    <dc:creator>
     <cc:Agent>
      <dc:title>Matplotlib v3.10.7, https://matplotlib.org/</dc:title>
     </cc:Agent>
    </dc:creator>
   </cc:Work>
  </rdf:RDF>
 </metadata>
 <defs>
  <style type="text/css">*{stroke-linejoin: round; stroke-linecap: butt}</style>
 </defs>
 <g id="figure_1">
  <g id="patch_1">
   <path d="M 0 353.99952 
L 468.218756 353.99952 
L 468.218756 0 
L 0 0 
z
" style="fill: #ffffff"/>
  </g>
  <g id="axes_1">
   <g id="patch_2">
    <path d="M 43.78125 316.44327 
L 377.139575 316.44327 
L 377.139575 10.999219 
L 43.78125 10.999219 
z
" style="fill: #ffffff"/>
   </g>
   <g id="QuadContourSet_1">
    <path d="M 165.002459 298.642116 
L 172.91902 290.989599 
L 165.002459 286.613638 
L 143.24599 290.989599 
z
M 195.307761 316.44327 
L 205.71508 316.44327 
L 195.307761 310.326446 
L 186.813086 316.44327 
z
M 104.391854 267.267568 
L 134.697157 281.596554 
L 138.421119 265.535928 
L 134.697157 263.517239 
L 104.391854 240.615812 
L 102.036448 265.535928 
z
M 74.086552 242.26348 
L 103.818553 240.082257 
L 74.086552 227.256428 
L 71.479041 240.082257 
z
M 43.78125 216.710075 
L 58.719131 214.628586 
L 43.78125 207.901348 
L 41.27422 214.628586 
z
M 13.475948 191.220751 
L 21.407169 189.174915 
L 13.475948 185.898461 
L 10.504536 189.174915 
z
" clip-path="url(#pca30bcc2e4)" style="fill: #460b5e"/>
    <path d="M 134.697157 293.326918 
L 165.002459 314.364265 
L 168.067494 316.44327 
L 186.813086 316.44327 
L 195.307761 310.326446 
L 205.71508 316.44327 
L 219.805395 316.44327 
L 195.307761 299.861392 
L 186.195645 290.989599 
L 165.002459 277.623195 
L 151.424052 265.535928 
L 134.697157 255.235692 
L 117.110649 240.082257 
L 104.391854 232.375952 
L 82.170503 214.628586 
L 74.086552 209.934853 
L 46.810939 189.174915 
L 43.78125 187.477137 
L 13.475948 169.885158 
L 6.290972 163.721244 
L -16.829354 151.284467 
L -30.56025 138.267573 
L -47.134657 128.836643 
L -67.045609 112.813902 
L -77.439959 107.075976 
L -104.125466 87.360232 
L -107.745261 85.4223 
L -107.745261 87.360232 
L -107.745261 112.813902 
L -107.745261 117.08254 
L -78.309867 138.267573 
L -77.439959 139.106952 
L -47.134657 159.779071 
L -41.391525 163.721244 
L -16.829354 181.196484 
L -7.06733 189.174915 
L 13.475948 201.219542 
L 31.131808 214.628586 
L 43.78125 224.188517 
L 64.092876 240.082257 
L 74.086552 247.886684 
L 96.517036 265.535928 
L 104.391854 271.034309 
L 131.385483 290.989599 
z
M 143.24599 290.989599 
L 165.002459 286.613638 
L 172.91902 290.989599 
L 165.002459 298.642116 
z
M 102.036448 265.535928 
L 104.391854 240.615812 
L 134.697157 263.517239 
L 138.421119 265.535928 
L 134.697157 281.596554 
L 104.391854 267.267568 
z
M 71.479041 240.082257 
L 74.086552 227.256428 
L 103.818553 240.082257 
L 74.086552 242.26348 
z
M 41.27422 214.628586 
L 43.78125 207.901348 
L 58.719131 214.628586 
L 43.78125 216.710075 
z
M 10.504536 189.174915 
L 13.475948 185.898461 
L 21.407169 189.174915 
L 13.475948 191.220751 
z
" clip-path="url(#pca30bcc2e4)" style="fill: #482071"/>
    <path d="M 134.697157 296.052849 
L 162.551175 316.44327 
L 165.002459 316.44327 
L 168.067494 316.44327 
L 165.002459 314.364265 
L 134.697157 293.326918 
L 131.385483 290.989599 
L 104.391854 271.034309 
L 96.517036 265.535928 
L 74.086552 247.886684 
L 64.092876 240.082257 
L 43.78125 224.188517 
L 31.131808 214.628586 
L 13.475948 201.219542 
L -7.06733 189.174915 
L -16.829354 181.196484 
L -41.391525 163.721244 
L -47.134657 159.779071 
L -77.439959 139.106952 
L -78.309867 138.267573 
L -107.745261 117.08254 
L -107.745261 125.59808 
L -88.256205 138.267573 
L -77.439959 147.780055 
L -54.89036 163.721244 
L -47.134657 169.208155 
L -20.607911 189.174915 
L -16.829354 192.16047 
L 13.475948 211.218333 
L 18.557625 214.628586 
L 43.78125 231.666959 
L 55.49864 240.082257 
L 74.086552 253.509888 
L 90.350454 265.535928 
L 104.391854 274.801051 
L 127.240127 290.989599 
z
M 195.307761 299.861392 
L 219.805395 316.44327 
L 225.613063 316.44327 
L 229.522769 316.44327 
L 225.613063 313.911975 
L 196.615765 290.989599 
L 195.307761 290.194704 
L 165.002459 268.632752 
L 161.843093 265.535928 
L 134.697157 246.954144 
L 127.43917 240.082257 
L 104.391854 224.593041 
L 93.081683 214.628586 
L 74.086552 202.340934 
L 58.487438 189.174915 
L 43.78125 179.938651 
L 21.878296 163.721244 
L 13.475948 158.803252 
L -16.501915 138.267573 
L -16.829354 138.088761 
L -47.134657 118.210825 
L -53.037771 112.813902 
L -77.439959 97.313604 
L -89.236402 87.360232 
L -107.745261 75.889378 
L -107.745261 85.4223 
L -104.125466 87.360232 
L -77.439959 107.075976 
L -67.045609 112.813902 
L -47.134657 128.836643 
L -30.56025 138.267573 
L -16.829354 151.284467 
L 6.290972 163.721244 
L 13.475948 169.885158 
L 43.78125 187.477137 
L 46.810939 189.174915 
L 74.086552 209.934853 
L 82.170503 214.628586 
L 104.391854 232.375952 
L 117.110649 240.082257 
L 134.697157 255.235692 
L 151.424052 265.535928 
L 165.002459 277.623195 
L 186.195645 290.989599 
z
" clip-path="url(#pca30bcc2e4)" style="fill: #46337f"/>
    <path d="M 134.697157 298.778781 
L 159.57711 316.44327 
L 162.551175 316.44327 
L 134.697157 296.052849 
L 127.240127 290.989599 
L 104.391854 274.801051 
L 90.350454 265.535928 
L 74.086552 253.509888 
L 55.49864 240.082257 
L 43.78125 231.666959 
L 18.557625 214.628586 
L 13.475948 211.218333 
L -16.829354 192.16047 
L -20.607911 189.174915 
L -47.134657 169.208155 
L -54.89036 163.721244 
L -77.439959 147.780055 
L -88.256205 138.267573 
L -107.745261 125.59808 
L -107.745261 134.113621 
L -100.52994 138.267573 
L -77.439959 156.453158 
L -65.954979 163.721244 
L -47.134657 175.760872 
L -27.933331 189.174915 
L -16.829354 197.372278 
L 9.505586 214.628586 
L 13.475948 217.297133 
L 43.78125 239.145401 
L 45.22238 240.082257 
L 74.086552 259.133093 
L 83.364523 265.535928 
L 104.391854 278.567792 
L 122.740249 290.989599 
z
M 225.613063 313.911975 
L 229.522769 316.44327 
L 236.52254 316.44327 
L 225.613063 308.882754 
L 204.48306 290.989599 
L 195.307761 284.973574 
L 170.805124 265.535928 
L 165.002459 261.901456 
L 136.369016 240.082257 
L 134.697157 239.08045 
L 104.391854 216.81013 
L 102.115076 214.628586 
L 74.086552 194.747015 
L 68.038464 189.174915 
L 43.78125 172.400165 
L 33.195993 163.721244 
L 13.475948 150.807497 
L -2.74073 138.267573 
L -16.829354 129.47349 
L -39.417329 112.813902 
L -47.134657 108.297324 
L -77.439959 87.551232 
L -77.64315 87.360232 
L -107.745261 66.356457 
L -107.745261 75.889378 
L -89.236402 87.360232 
L -77.439959 97.313604 
L -53.037771 112.813902 
L -47.134657 118.210825 
L -16.829354 138.088761 
L -16.501915 138.267573 
L 13.475948 158.803252 
L 21.878296 163.721244 
L 43.78125 179.938651 
L 58.487438 189.174915 
L 74.086552 202.340934 
L 93.081683 214.628586 
L 104.391854 224.593041 
L 127.43917 240.082257 
L 134.697157 246.954144 
L 161.843093 265.535928 
L 165.002459 268.632752 
L 195.307761 290.194704 
L 196.615765 290.989599 
z
" clip-path="url(#pca30bcc2e4)" style="fill: #404588"/>
    <path d="M 134.697157 301.504712 
L 156.424921 316.44327 
L 159.57711 316.44327 
L 134.697157 298.778781 
L 122.740249 290.989599 
L 104.391854 278.567792 
L 83.364523 265.535928 
L 74.086552 259.133093 
L 45.22238 240.082257 
L 43.78125 239.145401 
L 13.475948 217.297133 
L 9.505586 214.628586 
L -16.829354 197.372278 
L -27.933331 189.174915 
L -47.134657 175.760872 
L -65.954979 163.721244 
L -77.439959 156.453158 
L -100.52994 138.267573 
L -107.745261 134.113621 
L -107.745261 138.267573 
L -107.745261 141.446989 
L -78.444756 163.721244 
L -77.439959 164.449178 
L -47.134657 182.31359 
L -36.44539 189.174915 
L -16.829354 202.584085 
L 2.842731 214.628586 
L 13.475948 221.34693 
L 39.983722 240.082257 
L 43.78125 243.419909 
L 74.086552 264.756297 
L 75.30766 265.535928 
L 104.391854 282.334534 
L 117.819491 290.989599 
z
M 225.613063 308.882754 
L 236.52254 316.44327 
L 242.6999 316.44327 
L 225.613063 303.853532 
L 211.326087 290.989599 
L 195.307761 279.752445 
L 178.582584 265.535928 
L 165.002459 256.357236 
L 145.244581 240.082257 
L 134.697157 233.194983 
L 111.500768 214.628586 
L 104.391854 210.164749 
L 76.993173 189.174915 
L 74.086552 187.427679 
L 43.78125 164.861679 
L 42.50591 163.721244 
L 13.475948 142.811742 
L 8.158586 138.267573 
L -16.829354 120.858219 
L -26.541221 112.813902 
L -47.134657 99.119032 
L -62.13454 87.360232 
L -77.439959 77.72613 
L -98.42677 61.906561 
L -107.745261 56.310238 
L -107.745261 61.906561 
L -107.745261 66.356457 
L -77.64315 87.360232 
L -77.439959 87.551232 
L -47.134657 108.297324 
L -39.417329 112.813902 
L -16.829354 129.47349 
L -2.74073 138.267573 
L 13.475948 150.807497 
L 33.195993 163.721244 
L 43.78125 172.400165 
L 68.038464 189.174915 
L 74.086552 194.747015 
L 102.115076 214.628586 
L 104.391854 216.81013 
L 134.697157 239.08045 
L 136.369016 240.082257 
L 165.002459 261.901456 
L 170.805124 265.535928 
L 195.307761 284.973574 
L 204.48306 290.989599 
z
" clip-path="url(#pca30bcc2e4)" style="fill: #39558c"/>
    <path d="M 134.697157 304.230643 
L 153.071905 316.44327 
L 156.424921 316.44327 
L 134.697157 301.504712 
L 117.819491 290.989599 
L 104.391854 282.334534 
L 75.30766 265.535928 
L 74.086552 264.756297 
L 43.78125 243.419909 
L 39.983722 240.082257 
L 13.475948 221.34693 
L 2.842731 214.628586 
L -16.829354 202.584085 
L -36.44539 189.174915 
L -47.134657 182.31359 
L -77.439959 164.449178 
L -78.444756 163.721244 
L -107.745261 141.446989 
L -107.745261 147.654463 
L -85.11177 163.721244 
L -77.439959 168.942677 
L -47.134657 188.866308 
L -46.60427 189.174915 
L -16.829354 207.795892 
L -4.787255 214.628586 
L 13.475948 225.396726 
L 35.277709 240.082257 
L 43.78125 247.235563 
L 70.45623 265.535928 
L 74.086552 268.451721 
L 104.391854 286.101275 
L 112.390919 290.989599 
z
M 225.613063 303.853532 
L 242.6999 316.44327 
L 248.227943 316.44327 
L 225.613063 298.82431 
L 217.381088 290.989599 
L 195.307761 274.531316 
L 185.357573 265.535928 
L 165.002459 250.813016 
L 152.837462 240.082257 
L 134.697157 227.309515 
L 120.013585 214.628586 
L 104.391854 203.962398 
L 86.668377 189.174915 
L 74.086552 180.865086 
L 52.976653 163.721244 
L 43.78125 157.858894 
L 18.627678 138.267573 
L 13.475948 135.100094 
L -15.961611 112.813902 
L -16.829354 112.299869 
L -47.134657 89.940739 
L -50.07989 87.360232 
L -77.439959 67.899775 
L -84.442965 61.906561 
L -107.745261 45.814657 
L -107.745261 56.310238 
L -98.42677 61.906561 
L -77.439959 77.72613 
L -62.13454 87.360232 
L -47.134657 99.119032 
L -26.541221 112.813902 
L -16.829354 120.858219 
L 8.158586 138.267573 
L 13.475948 142.811742 
L 42.50591 163.721244 
L 43.78125 164.861679 
L 74.086552 187.427679 
L 76.993173 189.174915 
L 104.391854 210.164749 
L 111.500768 214.628586 
L 134.697157 233.194983 
L 145.244581 240.082257 
L 165.002459 256.357236 
L 178.582584 265.535928 
L 195.307761 279.752445 
L 211.326087 290.989599 
z
" clip-path="url(#pca30bcc2e4)" style="fill: #32658e"/>
    <path d="M 134.697157 306.956575 
L 149.490719 316.44327 
L 153.071905 316.44327 
L 134.697157 304.230643 
L 112.390919 290.989599 
L 104.391854 286.101275 
L 74.086552 268.451721 
L 70.45623 265.535928 
L 43.78125 247.235563 
L 35.277709 240.082257 
L 13.475948 225.396726 
L -4.787255 214.628586 
L -16.829354 207.795892 
L -46.60427 189.174915 
L -47.134657 188.866308 
L -77.439959 168.942677 
L -85.11177 163.721244 
L -107.745261 147.654463 
L -107.745261 153.861937 
L -92.747212 163.721244 
L -77.439959 173.436175 
L -52.308591 189.174915 
L -47.134657 193.799088 
L -16.829354 213.0077 
L -13.713593 214.628586 
L 13.475948 229.446523 
L 30.109357 240.082257 
L 43.78125 251.051218 
L 65.901369 265.535928 
L 74.086552 271.836846 
L 104.391854 289.868017 
L 106.337535 290.989599 
z
M 225.613063 298.82431 
L 248.227943 316.44327 
L 253.23028 316.44327 
L 225.613063 293.795089 
L 222.810959 290.989599 
L 195.307761 269.310187 
L 191.359259 265.535928 
L 165.002459 245.268796 
L 159.472017 240.082257 
L 134.697157 221.424047 
L 127.339567 214.628586 
L 104.391854 197.760046 
L 94.838506 189.174915 
L 74.086552 174.302494 
L 62.082702 163.721244 
L 43.78125 150.951597 
L 28.921302 138.267573 
L 13.475948 127.762484 
L -4.354371 112.813902 
L -16.829354 104.543493 
L -37.94719 87.360232 
L -47.134657 81.465391 
L -71.974465 61.906561 
L -77.439959 58.512696 
L -106.096992 36.45289 
L -107.745261 35.461131 
L -107.745261 36.45289 
L -107.745261 45.814657 
L -84.442965 61.906561 
L -77.439959 67.899775 
L -50.07989 87.360232 
L -47.134657 89.940739 
L -16.829354 112.299869 
L -15.961611 112.813902 
L 13.475948 135.100094 
L 18.627678 138.267573 
L 43.78125 157.858894 
L 52.976653 163.721244 
L 74.086552 180.865086 
L 86.668377 189.174915 
L 104.391854 203.962398 
L 120.013585 214.628586 
L 134.697157 227.309515 
L 152.837462 240.082257 
L 165.002459 250.813016 
L 185.357573 265.535928 
L 195.307761 274.531316 
L 217.381088 290.989599 
z
" clip-path="url(#pca30bcc2e4)" style="fill: #2c738e"/>
    <path d="M 104.391854 293.509181 
L 134.697157 309.682506 
L 145.64803 316.44327 
L 149.490719 316.44327 
L 134.697157 306.956575 
L 106.337535 290.989599 
L 104.391854 289.868017 
L 74.086552 271.836846 
L 65.901369 265.535928 
L 43.78125 251.051218 
L 30.109357 240.082257 
L 13.475948 229.446523 
L -13.713593 214.628586 
L -16.829354 213.0077 
L -47.134657 193.799088 
L -52.308591 189.174915 
L -77.439959 173.436175 
L -92.747212 163.721244 
L -107.745261 153.861937 
L -107.745261 160.069411 
L -101.681025 163.721244 
L -77.439959 177.929674 
L -58.347494 189.174915 
L -47.134657 198.651805 
L -20.975818 214.628586 
L -16.829354 217.905312 
L 13.475948 233.49632 
L 24.377827 240.082257 
L 43.78125 254.866872 
L 60.914777 265.535928 
L 74.086552 275.221971 
L 101.283246 290.989599 
z
M 225.613063 293.795089 
L 253.23028 316.44327 
L 255.918366 316.44327 
L 259.095314 316.44327 
L 255.918366 314.264057 
L 229.151416 290.989599 
L 225.613063 288.639487 
L 197.707779 265.535928 
L 195.307761 263.981171 
L 165.610223 240.082257 
L 165.002459 239.696898 
L 134.697157 215.538579 
L 133.769514 214.628586 
L 104.391854 191.557695 
L 101.909391 189.174915 
L 74.086552 167.739901 
L 69.843519 163.721244 
L 43.78125 144.044299 
L 37.527668 138.267573 
L 13.475948 120.424875 
L 5.150328 112.813902 
L -16.829354 96.787117 
L -27.359253 87.360232 
L -47.134657 73.264976 
L -60.10964 61.906561 
L -77.439959 49.812433 
L -92.882063 36.45289 
L -107.745261 26.280542 
L -107.745261 35.461131 
L -106.096992 36.45289 
L -77.439959 58.512696 
L -71.974465 61.906561 
L -47.134657 81.465391 
L -37.94719 87.360232 
L -16.829354 104.543493 
L -4.354371 112.813902 
L 13.475948 127.762484 
L 28.921302 138.267573 
L 43.78125 150.951597 
L 62.082702 163.721244 
L 74.086552 174.302494 
L 94.838506 189.174915 
L 104.391854 197.760046 
L 127.339567 214.628586 
L 134.697157 221.424047 
L 159.472017 240.082257 
L 165.002459 245.268796 
L 191.359259 265.535928 
L 195.307761 269.310187 
L 222.810959 290.989599 
z
" clip-path="url(#pca30bcc2e4)" style="fill: #26828e"/>
    <path d="M 104.391854 297.097098 
L 134.697157 312.408437 
L 141.502615 316.44327 
L 145.64803 316.44327 
L 134.697157 309.682506 
L 104.391854 293.509181 
L 101.283246 290.989599 
L 74.086552 275.221971 
L 60.914777 265.535928 
L 43.78125 254.866872 
L 24.377827 240.082257 
L 13.475948 233.49632 
L -16.829354 217.905312 
L -20.975818 214.628586 
L -47.134657 198.651805 
L -58.347494 189.174915 
L -77.439959 177.929674 
L -101.681025 163.721244 
L -107.745261 160.069411 
L -107.745261 163.721244 
L -107.745261 166.296342 
L -77.439959 182.423173 
L -65.16996 189.174915 
L -47.134657 203.504522 
L -27.642069 214.628586 
L -16.829354 222.6611 
L 13.475948 237.546117 
L 17.945201 240.082257 
L 43.78125 258.682527 
L 55.40596 265.535928 
L 74.086552 278.607096 
L 96.513558 290.989599 
z
M 255.918366 314.264057 
L 259.095314 316.44327 
L 265.935494 316.44327 
L 255.918366 309.100914 
L 236.372175 290.989599 
L 225.613063 283.324443 
L 205.558396 265.535928 
L 195.307761 258.370729 
L 174.230744 240.082257 
L 165.002459 233.723654 
L 142.636437 214.628586 
L 134.697157 209.246518 
L 110.694547 189.174915 
L 104.391854 185.033261 
L 78.373028 163.721244 
L 74.086552 160.952047 
L 45.752309 138.267573 
L 43.78125 137.021808 
L 13.475948 113.087265 
L 13.198634 112.813902 
L -16.829354 89.03074 
L -18.548318 87.360232 
L -47.134657 65.064561 
L -50.433155 61.906561 
L -77.439959 41.11217 
L -82.327604 36.45289 
L -107.745261 17.099952 
L -107.745261 26.280542 
L -92.882063 36.45289 
L -77.439959 49.812433 
L -60.10964 61.906561 
L -47.134657 73.264976 
L -27.359253 87.360232 
L -16.829354 96.787117 
L 5.150328 112.813902 
L 13.475948 120.424875 
L 37.527668 138.267573 
L 43.78125 144.044299 
L 69.843519 163.721244 
L 74.086552 167.739901 
L 101.909391 189.174915 
L 104.391854 191.557695 
L 133.769514 214.628586 
L 134.697157 215.538579 
L 165.002459 239.696898 
L 165.610223 240.082257 
L 195.307761 263.981171 
L 197.707779 265.535928 
L 225.613063 288.639487 
L 229.151416 290.989599 
z
" clip-path="url(#pca30bcc2e4)" style="fill: #21918c"/>
    <path d="M 104.391854 300.685016 
L 134.697157 315.134369 
L 137.002668 316.44327 
L 141.502615 316.44327 
L 134.697157 312.408437 
L 104.391854 297.097098 
L 96.513558 290.989599 
L 74.086552 278.607096 
L 55.40596 265.535928 
L 43.78125 258.682527 
L 17.945201 240.082257 
L 13.475948 237.546117 
L -16.829354 222.6611 
L -27.642069 214.628586 
L -47.134657 203.504522 
L -65.16996 189.174915 
L -77.439959 182.423173 
L -107.745261 166.296342 
L -107.745261 172.551076 
L -77.439959 186.916671 
L -73.010079 189.174915 
L -47.134657 208.357239 
L -35.27651 214.628586 
L -16.829354 227.416889 
L 10.561016 240.082257 
L 13.475948 242.138998 
L 43.78125 262.498182 
L 49.252603 265.535928 
L 74.086552 281.992221 
L 91.268292 290.989599 
z
M 255.918366 309.100914 
L 265.935494 316.44327 
L 271.988266 316.44327 
L 255.918366 303.937771 
L 242.720951 290.989599 
L 225.613063 278.009398 
L 212.388806 265.535928 
L 195.307761 252.760287 
L 181.636304 240.082257 
L 165.002459 227.750409 
L 150.703113 214.628586 
L 134.697157 202.880092 
L 119.551535 189.174915 
L 104.391854 178.307903 
L 88.046826 163.721244 
L 74.086552 153.808348 
L 56.415356 138.267573 
L 43.78125 129.410725 
L 24.731422 112.813902 
L 13.475948 104.998565 
L -6.947261 87.360232 
L -16.829354 80.638763 
L -38.832296 61.906561 
L -47.134657 56.338682 
L -70.73311 36.45289 
L -77.439959 32.030728 
L -102.602687 10.999219 
L -107.745261 10.999219 
L -107.745261 17.099952 
L -82.327604 36.45289 
L -77.439959 41.11217 
L -50.433155 61.906561 
L -47.134657 65.064561 
L -18.548318 87.360232 
L -16.829354 89.03074 
L 13.198634 112.813902 
L 13.475948 113.087265 
L 43.78125 137.021808 
L 45.752309 138.267573 
L 74.086552 160.952047 
L 78.373028 163.721244 
L 104.391854 185.033261 
L 110.694547 189.174915 
L 134.697157 209.246518 
L 142.636437 214.628586 
L 165.002459 233.723654 
L 174.230744 240.082257 
L 195.307761 258.370729 
L 205.558396 265.535928 
L 225.613063 283.324443 
L 236.372175 290.989599 
z
" clip-path="url(#pca30bcc2e4)" style="fill: #1f9f88"/>
    <path d="M 104.391854 304.272933 
L 131.542699 316.44327 
L 134.697157 316.44327 
L 137.002668 316.44327 
L 134.697157 315.134369 
L 104.391854 300.685016 
L 91.268292 290.989599 
L 74.086552 281.992221 
L 49.252603 265.535928 
L 43.78125 262.498182 
L 13.475948 242.138998 
L 10.561016 240.082257 
L -16.829354 227.416889 
L -35.27651 214.628586 
L -47.134657 208.357239 
L -73.010079 189.174915 
L -77.439959 186.916671 
L -107.745261 172.551076 
L -107.745261 178.80581 
L -83.046087 189.174915 
L -77.439959 193.095108 
L -47.134657 213.209955 
L -44.20895 214.628586 
L -16.829354 232.172677 
L 1.861352 240.082257 
L 13.475948 247.641819 
L 42.404065 265.535928 
L 43.78125 266.706797 
L 74.086552 285.377346 
L 85.441999 290.989599 
z
M 255.918366 303.937771 
L 271.988266 316.44327 
L 277.416346 316.44327 
L 255.918366 298.774628 
L 248.385834 290.989599 
L 225.613063 272.694354 
L 218.43393 265.535928 
L 195.307761 247.149844 
L 188.127449 240.082257 
L 165.002459 221.777164 
L 157.696417 214.628586 
L 134.697157 196.513667 
L 127.130825 189.174915 
L 104.391854 171.582544 
L 96.215953 163.721244 
L 74.086552 146.664648 
L 65.278187 138.267573 
L 43.78125 121.799642 
L 34.327061 112.813902 
L 13.475948 96.8808 
L 3.440276 87.360232 
L -16.829354 72.072319 
L -27.623678 61.906561 
L -47.134657 47.283711 
L -58.669298 36.45289 
L -77.439959 22.509785 
L -89.713283 10.999219 
L -102.602687 10.999219 
L -77.439959 32.030728 
L -70.73311 36.45289 
L -47.134657 56.338682 
L -38.832296 61.906561 
L -16.829354 80.638763 
L -6.947261 87.360232 
L 13.475948 104.998565 
L 24.731422 112.813902 
L 43.78125 129.410725 
L 56.415356 138.267573 
L 74.086552 153.808348 
L 88.046826 163.721244 
L 104.391854 178.307903 
L 119.551535 189.174915 
L 134.697157 202.880092 
L 150.703113 214.628586 
L 165.002459 227.750409 
L 181.636304 240.082257 
L 195.307761 252.760287 
L 212.388806 265.535928 
L 225.613063 278.009398 
L 242.720951 290.989599 
z
" clip-path="url(#pca30bcc2e4)" style="fill: #26ad81"/>
    <path d="M 104.391854 307.860851 
L 124.885259 316.44327 
L 131.542699 316.44327 
L 104.391854 304.272933 
L 85.441999 290.989599 
L 74.086552 285.377346 
L 43.78125 266.706797 
L 42.404065 265.535928 
L 13.475948 247.641819 
L 1.861352 240.082257 
L -16.829354 232.172677 
L -44.20895 214.628586 
L -47.134657 213.209955 
L -77.439959 193.095108 
L -83.046087 189.174915 
L -107.745261 178.80581 
L -107.745261 185.060545 
L -96.525185 189.174915 
L -77.439959 200.975811 
L -54.280601 214.628586 
L -47.134657 220.439675 
L -16.829354 236.928466 
L -8.566155 240.082257 
L 13.475948 253.144641 
L 35.072158 265.535928 
L 43.78125 272.449934 
L 74.086552 288.762471 
L 78.889736 290.989599 
z
M 255.918366 298.774628 
L 277.416346 316.44327 
L 282.3367 316.44327 
L 255.918366 293.611486 
L 253.49994 290.989599 
L 225.613063 267.37931 
L 223.855859 265.535928 
L 195.307761 241.539402 
L 193.905379 240.082257 
L 165.002459 215.803919 
L 163.868742 214.628586 
L 134.697157 190.147242 
L 133.755006 189.174915 
L 104.391854 164.857185 
L 103.286089 163.721244 
L 74.086552 139.520948 
L 72.861753 138.267573 
L 43.78125 114.188559 
L 42.440427 112.813902 
L 13.475948 88.763036 
L 12.112128 87.360232 
L -16.829354 63.505875 
L -18.387608 61.906561 
L -47.134657 38.228741 
L -48.86106 36.45289 
L -77.439959 12.988842 
L -79.367131 10.999219 
L -89.713283 10.999219 
L -77.439959 22.509785 
L -58.669298 36.45289 
L -47.134657 47.283711 
L -27.623678 61.906561 
L -16.829354 72.072319 
L 3.440276 87.360232 
L 13.475948 96.8808 
L 34.327061 112.813902 
L 43.78125 121.799642 
L 65.278187 138.267573 
L 74.086552 146.664648 
L 96.215953 163.721244 
L 104.391854 171.582544 
L 127.130825 189.174915 
L 134.697157 196.513667 
L 157.696417 214.628586 
L 165.002459 221.777164 
L 188.127449 240.082257 
L 195.307761 247.149844 
L 218.43393 265.535928 
L 225.613063 272.694354 
L 248.385834 290.989599 
z
" clip-path="url(#pca30bcc2e4)" style="fill: #3aba76"/>
    <path d="M 74.086552 294.214293 
L 104.391854 311.448768 
L 117.262378 316.44327 
L 124.885259 316.44327 
L 104.391854 307.860851 
L 78.889736 290.989599 
L 74.086552 288.762471 
L 43.78125 272.449934 
L 35.072158 265.535928 
L 13.475948 253.144641 
L -8.566155 240.082257 
L -16.829354 236.928466 
L -47.134657 220.439675 
L -54.280601 214.628586 
L -77.439959 200.975811 
L -96.525185 189.174915 
L -107.745261 185.060545 
L -107.745261 189.174915 
L -107.745261 193.299994 
L -77.439959 208.856514 
L -66.387164 214.628586 
L -47.134657 228.651341 
L -21.521611 240.082257 
L -16.829354 243.494153 
L 13.475948 258.647463 
L 26.551335 265.535928 
L 43.78125 278.193071 
L 70.926991 290.989599 
z
M 255.918366 293.611486 
L 282.3367 316.44327 
L 286.223668 316.44327 
L 288.391031 316.44327 
L 286.223668 314.94776 
L 262.773325 290.989599 
L 255.918366 286.019918 
L 234.751077 265.535928 
L 225.613063 258.803647 
L 206.006789 240.082257 
L 195.307761 232.009319 
L 177.20283 214.628586 
L 165.002459 205.323932 
L 148.274263 189.174915 
L 134.697157 178.437916 
L 119.192877 163.721244 
L 104.391854 151.817145 
L 90.369106 138.267573 
L 74.086552 125.459059 
L 61.133413 112.813902 
L 43.78125 98.81739 
L 32.298139 87.360232 
L 13.475948 71.854112 
L 3.488025 61.906561 
L -16.829354 45.30412 
L -25.593168 36.45289 
L -47.134657 19.516163 
L -55.567965 10.999219 
L -77.439959 10.999219 
L -79.367131 10.999219 
L -77.439959 12.988842 
L -48.86106 36.45289 
L -47.134657 38.228741 
L -18.387608 61.906561 
L -16.829354 63.505875 
L 12.112128 87.360232 
L 13.475948 88.763036 
L 42.440427 112.813902 
L 43.78125 114.188559 
L 72.861753 138.267573 
L 74.086552 139.520948 
L 103.286089 163.721244 
L 104.391854 164.857185 
L 133.755006 189.174915 
L 134.697157 190.147242 
L 163.868742 214.628586 
L 165.002459 215.803919 
L 193.905379 240.082257 
L 195.307761 241.539402 
L 223.855859 265.535928 
L 225.613063 267.37931 
L 253.49994 290.989599 
z
" clip-path="url(#pca30bcc2e4)" style="fill: #56c667"/>
    <path d="M 74.086552 303.64091 
L 104.391854 315.036685 
L 108.345767 316.44327 
L 117.262378 316.44327 
L 104.391854 311.448768 
L 74.086552 294.214293 
L 70.926991 290.989599 
L 43.78125 278.193071 
L 26.551335 265.535928 
L 13.475948 258.647463 
L -16.829354 243.494153 
L -21.521611 240.082257 
L -47.134657 228.651341 
L -66.387164 214.628586 
L -77.439959 208.856514 
L -107.745261 193.299994 
L -107.745261 205.354613 
L -83.748961 214.628586 
L -77.439959 219.374463 
L -47.134657 236.863007 
L -38.578364 240.082257 
L -16.829354 253.622917 
L 13.475948 264.150284 
L 16.379957 265.535928 
L 43.78125 283.936208 
L 60.427208 290.989599 
z
M 286.223668 314.94776 
L 288.391031 316.44327 
L 301.617225 316.44327 
L 286.223668 304.357733 
L 274.438696 290.989599 
L 255.918366 275.922877 
L 246.243464 265.535928 
L 225.613063 248.496663 
L 217.688134 240.082257 
L 195.307761 221.104068 
L 189.266292 214.628586 
L 165.002459 193.739937 
L 160.787007 189.174915 
L 134.697157 165.765494 
L 132.797809 163.721244 
L 105.961615 138.267573 
L 104.391854 137.156092 
L 79.376951 112.813902 
L 74.086552 108.931556 
L 52.853999 87.360232 
L 43.78125 80.465276 
L 26.036457 61.906561 
L 13.475948 51.818335 
L -1.2625 36.45289 
L -16.829354 23.113491 
L -28.760817 10.999219 
L -47.134657 10.999219 
L -55.567965 10.999219 
L -47.134657 19.516163 
L -25.593168 36.45289 
L -16.829354 45.30412 
L 3.488025 61.906561 
L 13.475948 71.854112 
L 32.298139 87.360232 
L 43.78125 98.81739 
L 61.133413 112.813902 
L 74.086552 125.459059 
L 90.369106 138.267573 
L 104.391854 151.817145 
L 119.192877 163.721244 
L 134.697157 178.437916 
L 148.274263 189.174915 
L 165.002459 205.323932 
L 177.20283 214.628586 
L 195.307761 232.009319 
L 206.006789 240.082257 
L 225.613063 258.803647 
L 234.751077 265.535928 
L 255.918366 286.019918 
L 262.773325 290.989599 
z
" clip-path="url(#pca30bcc2e4)" style="fill: #77d153"/>
    <path d="M 74.086552 313.067527 
L 87.430927 316.44327 
L 104.391854 316.44327 
L 108.345767 316.44327 
L 104.391854 315.036685 
L 74.086552 303.64091 
L 60.427208 290.989599 
L 43.78125 283.936208 
L 16.379957 265.535928 
L 13.475948 264.150284 
L -16.829354 253.622917 
L -38.578364 240.082257 
L -47.134657 236.863007 
L -77.439959 219.374463 
L -83.748961 214.628586 
L -107.745261 205.354613 
L -107.745261 214.628586 
L -107.745261 224.600786 
L -77.439959 237.111496 
L -69.259989 240.082257 
L -47.134657 256.100673 
L -16.829354 263.751681 
L -9.548488 265.535928 
L 13.475948 282.750297 
L 43.78125 289.679345 
L 47.298044 290.989599 
z
M 286.223668 304.357733 
L 301.617225 316.44327 
L 312.178855 316.44327 
L 286.223668 293.767706 
L 283.982285 290.989599 
L 255.918366 265.825835 
L 255.671113 265.535928 
L 232.252784 240.082257 
L 225.613063 235.140905 
L 207.914424 214.628586 
L 195.307761 204.530412 
L 182.16431 189.174915 
L 165.002459 174.754458 
L 156.08603 163.721244 
L 134.697157 145.535196 
L 128.822287 138.267573 
L 104.391854 116.582213 
L 101.215563 112.813902 
L 74.086552 88.055116 
L 73.520663 87.360232 
L 49.986596 61.906561 
L 43.78125 57.251594 
L 26.462532 36.45289 
L 13.475948 25.944818 
L 1.782698 10.999219 
L -16.829354 10.999219 
L -28.760817 10.999219 
L -16.829354 23.113491 
L -1.2625 36.45289 
L 13.475948 51.818335 
L 26.036457 61.906561 
L 43.78125 80.465276 
L 52.853999 87.360232 
L 74.086552 108.931556 
L 79.376951 112.813902 
L 104.391854 137.156092 
L 105.961615 138.267573 
L 132.797809 163.721244 
L 134.697157 165.765494 
L 160.787007 189.174915 
L 165.002459 193.739937 
L 189.266292 214.628586 
L 195.307761 221.104068 
L 217.688134 240.082257 
L 225.613063 248.496663 
L 246.243464 265.535928 
L 255.918366 275.922877 
L 274.438696 290.989599 
z
" clip-path="url(#pca30bcc2e4)" style="fill: #9dd93b"/>
    <path d="M -77.439959 316.44327 
L -47.134657 316.44327 
L -16.829354 316.44327 
L 13.475948 316.44327 
L 43.78125 316.44327 
L 74.086552 316.44327 
L 87.430927 316.44327 
L 74.086552 313.067527 
L 47.298044 290.989599 
L 43.78125 289.679345 
L 13.475948 282.750297 
L -9.548488 265.535928 
L -16.829354 263.751681 
L -47.134657 256.100673 
L -69.259989 240.082257 
L -77.439959 237.111496 
L -107.745261 224.600786 
L -107.745261 240.082257 
L -107.745261 265.535928 
L -107.745261 290.989599 
L -107.745261 316.44327 
z
M 286.223668 293.767706 
L 312.178855 316.44327 
L 316.52897 316.44327 
L 342.882672 316.44327 
L 316.52897 293.265636 
L 314.998846 290.989599 
L 295.229705 265.535928 
L 286.223668 258.808102 
L 277.149119 240.082257 
L 286.223668 224.982699 
L 303.145197 240.082257 
L 316.52897 252.30747 
L 330.735456 265.535928 
L 346.834272 282.013158 
L 356.179289 290.989599 
L 377.139575 315.489735 
L 378.078357 316.44327 
L 407.444877 316.44327 
L 437.750179 316.44327 
L 468.055481 316.44327 
L 498.360783 316.44327 
L 528.666086 316.44327 
L 558.971388 316.44327 
L 589.27669 316.44327 
L 619.581992 316.44327 
L 649.887295 316.44327 
L 680.192597 316.44327 
L 710.497899 316.44327 
L 740.803201 316.44327 
L 771.108504 316.44327 
L 801.413806 316.44327 
L 831.719108 316.44327 
L 862.02441 316.44327 
L 892.329713 316.44327 
L 922.635015 316.44327 
L 952.940317 316.44327 
L 983.245619 316.44327 
L 1013.550921 316.44327 
L 1043.856224 316.44327 
L 1074.161526 316.44327 
L 1104.466828 316.44327 
L 1134.77213 316.44327 
L 1165.077433 316.44327 
L 1195.382735 316.44327 
L 1225.688037 316.44327 
L 1225.688037 290.989599 
L 1225.688037 265.535928 
L 1225.688037 240.082257 
L 1225.688037 214.628586 
L 1225.688037 189.174915 
L 1225.688037 163.721244 
L 1225.688037 138.267573 
L 1225.688037 112.813902 
L 1225.688037 87.360232 
L 1225.688037 61.906561 
L 1225.688037 36.45289 
L 1225.688037 10.999219 
L 1195.382735 10.999219 
L 1165.077433 10.999219 
L 1134.77213 10.999219 
L 1104.466828 10.999219 
L 1074.161526 10.999219 
L 1043.856224 10.999219 
L 1013.550921 10.999219 
L 983.245619 10.999219 
L 952.940317 10.999219 
L 922.635015 10.999219 
L 892.329713 10.999219 
L 862.02441 10.999219 
L 831.719108 10.999219 
L 801.413806 10.999219 
L 771.108504 10.999219 
L 740.803201 10.999219 
L 710.497899 10.999219 
L 680.192597 10.999219 
L 649.887295 10.999219 
L 619.581992 10.999219 
L 589.27669 10.999219 
L 558.971388 10.999219 
L 528.666086 10.999219 
L 498.360783 10.999219 
L 468.055481 10.999219 
L 437.750179 10.999219 
L 407.444877 10.999219 
L 377.139575 10.999219 
L 346.834272 10.999219 
L 316.52897 10.999219 
L 286.223668 10.999219 
L 255.918366 10.999219 
L 225.613063 10.999219 
L 195.307761 10.999219 
L 165.002459 10.999219 
L 134.697157 10.999219 
L 104.391854 10.999219 
L 74.086552 10.999219 
L 43.78125 10.999219 
L 13.475948 10.999219 
L 1.782698 10.999219 
L 13.475948 25.944818 
L 26.462532 36.45289 
L 43.78125 57.251594 
L 49.986596 61.906561 
L 73.520663 87.360232 
L 74.086552 88.055116 
L 101.215563 112.813902 
L 104.391854 116.582213 
L 128.822287 138.267573 
L 134.697157 145.535196 
L 156.08603 163.721244 
L 165.002459 174.754458 
L 182.16431 189.174915 
L 195.307761 204.530412 
L 207.914424 214.628586 
L 225.613063 235.140905 
L 232.252784 240.082257 
L 255.671113 265.535928 
L 255.918366 265.825835 
L 283.982285 290.989599 
z
M 252.238004 214.628586 
L 255.918366 200.661173 
L 272.654695 214.628586 
L 255.918366 221.366818 
z
M 225.318177 189.174915 
L 225.613063 185.939846 
L 230.377432 189.174915 
L 225.613063 189.693256 
z
" clip-path="url(#pca30bcc2e4)" style="fill: #c5e021"/>
    <path d="M 316.52897 293.265636 
L 342.882672 316.44327 
L 346.834272 316.44327 
L 377.139575 316.44327 
L 378.078357 316.44327 
L 377.139575 315.489735 
L 356.179289 290.989599 
L 346.834272 282.013158 
L 330.735456 265.535928 
L 316.52897 252.30747 
L 303.145197 240.082257 
L 286.223668 224.982699 
L 277.149119 240.082257 
L 286.223668 258.808102 
L 295.229705 265.535928 
L 314.998846 290.989599 
z
M 255.918366 221.366818 
L 272.654695 214.628586 
L 255.918366 200.661173 
L 252.238004 214.628586 
z
M 225.613063 189.693256 
L 230.377432 189.174915 
L 225.613063 185.939846 
L 225.318177 189.174915 
z
" clip-path="url(#pca30bcc2e4)" style="fill: #ece51b"/>
   </g>
   <g id="PathCollection_1">
    <defs>
     <path id="mdc0741d33a" d="M -3 3 
L 3 -3 
M -3 -3 
L 3 3 
" style="stroke: #ff0000; stroke-width: 1.5"/>
    </defs>
    <g clip-path="url(#pca30bcc2e4)">
     <use xlink:href="#mdc0741d33a" x="346.834272" y="316.44327" style="fill: #ff0000; stroke: #ff0000; stroke-width: 1.5"/>
     <use xlink:href="#mdc0741d33a" x="346.834272" y="290.989599" style="fill: #ff0000; stroke: #ff0000; stroke-width: 1.5"/>
     <use xlink:href="#mdc0741d33a" x="316.52897" y="265.535928" style="fill: #ff0000; stroke: #ff0000; stroke-width: 1.5"/>
     <use xlink:href="#mdc0741d33a" x="286.223668" y="240.082257" style="fill: #ff0000; stroke: #ff0000; stroke-width: 1.5"/>
     <use xlink:href="#mdc0741d33a" x="255.918366" y="214.628586" style="fill: #ff0000; stroke: #ff0000; stroke-width: 1.5"/>
     <use xlink:href="#mdc0741d33a" x="225.613063" y="189.174915" style="fill: #ff0000; stroke: #ff0000; stroke-width: 1.5"/>
     <use xlink:href="#mdc0741d33a" x="225.613063" y="163.721244" style="fill: #ff0000; stroke: #ff0000; stroke-width: 1.5"/>
     <use xlink:href="#mdc0741d33a" x="195.307761" y="138.267573" style="fill: #ff0000; stroke: #ff0000; stroke-width: 1.5"/>
     <use xlink:href="#mdc0741d33a" x="165.002459" y="112.813902" style="fill: #ff0000; stroke: #ff0000; stroke-width: 1.5"/>
     <use xlink:href="#mdc0741d33a" x="134.697157" y="87.360232" style="fill: #ff0000; stroke: #ff0000; stroke-width: 1.5"/>
     <use xlink:href="#mdc0741d33a" x="104.391854" y="61.906561" style="fill: #ff0000; stroke: #ff0000; stroke-width: 1.5"/>
     <use xlink:href="#mdc0741d33a" x="104.391854" y="36.45289" style="fill: #ff0000; stroke: #ff0000; stroke-width: 1.5"/>
     <use xlink:href="#mdc0741d33a" x="74.086552" y="10.999219" style="fill: #ff0000; stroke: #ff0000; stroke-width: 1.5"/>
    </g>
   </g>
   <g id="matplotlib.axis_1">
    <g id="xtick_1">
     <g id="line2d_1">
      <defs>
       <path id="m38f3b05bbe" d="M 0 0 
L 0 3.5 
" style="stroke: #000000; stroke-width: 0.8"/>
      </defs>
      <g>
       <use xlink:href="#m38f3b05bbe" x="134.697157" y="316.44327" style="stroke: #000000; stroke-width: 0.8"/>
      </g>
     </g>
     <g id="text_1">
      <!-- $\mathdefault{10^{-3}}$ -->
      <g transform="translate(122.947157 331.041707) scale(0.1 -0.1)">
       <defs>
        <path id="DejaVuSans-31" d="M 794 531 
L 1825 531 
L 1825 4091 
L 703 3866 
L 703 4441 
L 1819 4666 
L 2450 4666 
L 2450 531 
L 3481 531 
L 3481 0 
L 794 0 
L 794 531 
z
" transform="scale(0.015625)"/>
        <path id="DejaVuSans-30" d="M 2034 4250 
Q 1547 4250 1301 3770 
Q 1056 3291 1056 2328 
Q 1056 1369 1301 889 
Q 1547 409 2034 409 
Q 2525 409 2770 889 
Q 3016 1369 3016 2328 
Q 3016 3291 2770 3770 
Q 2525 4250 2034 4250 
z
M 2034 4750 
Q 2819 4750 3233 4129 
Q 3647 3509 3647 2328 
Q 3647 1150 3233 529 
Q 2819 -91 2034 -91 
Q 1250 -91 836 529 
Q 422 1150 422 2328 
Q 422 3509 836 4129 
Q 1250 4750 2034 4750 
z
" transform="scale(0.015625)"/>
        <path id="DejaVuSans-2212" d="M 678 2272 
L 4684 2272 
L 4684 1741 
L 678 1741 
L 678 2272 
z
" transform="scale(0.015625)"/>
        <path id="DejaVuSans-33" d="M 2597 2516 
Q 3050 2419 3304 2112 
Q 3559 1806 3559 1356 
Q 3559 666 3084 287 
Q 2609 -91 1734 -91 
Q 1441 -91 1130 -33 
Q 819 25 488 141 
L 488 750 
Q 750 597 1062 519 
Q 1375 441 1716 441 
Q 2309 441 2620 675 
Q 2931 909 2931 1356 
Q 2931 1769 2642 2001 
Q 2353 2234 1838 2234 
L 1294 2234 
L 1294 2753 
L 1863 2753 
Q 2328 2753 2575 2939 
Q 2822 3125 2822 3475 
Q 2822 3834 2567 4026 
Q 2313 4219 1838 4219 
Q 1578 4219 1281 4162 
Q 984 4106 628 3988 
L 628 4550 
Q 988 4650 1302 4700 
Q 1616 4750 1894 4750 
Q 2613 4750 3031 4423 
Q 3450 4097 3450 3541 
Q 3450 3153 3228 2886 
Q 3006 2619 2597 2516 
z
" transform="scale(0.015625)"/>
       </defs>
       <use xlink:href="#DejaVuSans-31" transform="translate(0 0.765625)"/>
       <use xlink:href="#DejaVuSans-30" transform="translate(63.623047 0.765625)"/>
       <use xlink:href="#DejaVuSans-2212" transform="translate(128.203125 39.046875) scale(0.7)"/>
       <use xlink:href="#DejaVuSans-33" transform="translate(186.855469 39.046875) scale(0.7)"/>
      </g>
     </g>
    </g>
    <g id="xtick_2">
     <g id="line2d_2">
      <g>
       <use xlink:href="#m38f3b05bbe" x="255.918366" y="316.44327" style="stroke: #000000; stroke-width: 0.8"/>
      </g>
     </g>
     <g id="text_2">
      <!-- $\mathdefault{10^{-2}}$ -->
      <g transform="translate(244.168366 331.041707) scale(0.1 -0.1)">
       <defs>
        <path id="DejaVuSans-32" d="M 1228 531 
L 3431 531 
L 3431 0 
L 469 0 
L 469 531 
Q 828 903 1448 1529 
Q 2069 2156 2228 2338 
Q 2531 2678 2651 2914 
Q 2772 3150 2772 3378 
Q 2772 3750 2511 3984 
Q 2250 4219 1831 4219 
Q 1534 4219 1204 4116 
Q 875 4013 500 3803 
L 500 4441 
Q 881 4594 1212 4672 
Q 1544 4750 1819 4750 
Q 2544 4750 2975 4387 
Q 3406 4025 3406 3419 
Q 3406 3131 3298 2873 
Q 3191 2616 2906 2266 
Q 2828 2175 2409 1742 
Q 1991 1309 1228 531 
z
" transform="scale(0.015625)"/>
       </defs>
       <use xlink:href="#DejaVuSans-31" transform="translate(0 0.765625)"/>
       <use xlink:href="#DejaVuSans-30" transform="translate(63.623047 0.765625)"/>
       <use xlink:href="#DejaVuSans-2212" transform="translate(128.203125 39.046875) scale(0.7)"/>
       <use xlink:href="#DejaVuSans-32" transform="translate(186.855469 39.046875) scale(0.7)"/>
      </g>
     </g>
    </g>
    <g id="xtick_3">
     <g id="line2d_3">
      <g>
       <use xlink:href="#m38f3b05bbe" x="377.139575" y="316.44327" style="stroke: #000000; stroke-width: 0.8"/>
      </g>
     </g>
     <g id="text_3">
      <!-- $\mathdefault{10^{-1}}$ -->
      <g transform="translate(365.389575 331.041707) scale(0.1 -0.1)">
       <use xlink:href="#DejaVuSans-31" transform="translate(0 0.684375)"/>
       <use xlink:href="#DejaVuSans-30" transform="translate(63.623047 0.684375)"/>
       <use xlink:href="#DejaVuSans-2212" transform="translate(128.203125 38.965625) scale(0.7)"/>
       <use xlink:href="#DejaVuSans-31" transform="translate(186.855469 38.965625) scale(0.7)"/>
      </g>
     </g>
    </g>
    <g id="xtick_4">
     <g id="line2d_4">
      <defs>
       <path id="m360e1f0208" d="M 0 0 
L 0 2 
" style="stroke: #000000; stroke-width: 0.6"/>
      </defs>
      <g>
       <use xlink:href="#m360e1f0208" x="49.967168" y="316.44327" style="stroke: #000000; stroke-width: 0.6"/>
      </g>
     </g>
    </g>
    <g id="xtick_5">
     <g id="line2d_5">
      <g>
       <use xlink:href="#m360e1f0208" x="71.313163" y="316.44327" style="stroke: #000000; stroke-width: 0.6"/>
      </g>
     </g>
    </g>
    <g id="xtick_6">
     <g id="line2d_6">
      <g>
       <use xlink:href="#m360e1f0208" x="86.458388" y="316.44327" style="stroke: #000000; stroke-width: 0.6"/>
      </g>
     </g>
    </g>
    <g id="xtick_7">
     <g id="line2d_7">
      <g>
       <use xlink:href="#m360e1f0208" x="98.205937" y="316.44327" style="stroke: #000000; stroke-width: 0.6"/>
      </g>
     </g>
    </g>
    <g id="xtick_8">
     <g id="line2d_8">
      <g>
       <use xlink:href="#m360e1f0208" x="107.804383" y="316.44327" style="stroke: #000000; stroke-width: 0.6"/>
      </g>
     </g>
    </g>
    <g id="xtick_9">
     <g id="line2d_9">
      <g>
       <use xlink:href="#m360e1f0208" x="115.919754" y="316.44327" style="stroke: #000000; stroke-width: 0.6"/>
      </g>
     </g>
    </g>
    <g id="xtick_10">
     <g id="line2d_10">
      <g>
       <use xlink:href="#m360e1f0208" x="122.949608" y="316.44327" style="stroke: #000000; stroke-width: 0.6"/>
      </g>
     </g>
    </g>
    <g id="xtick_11">
     <g id="line2d_11">
      <g>
       <use xlink:href="#m360e1f0208" x="129.150378" y="316.44327" style="stroke: #000000; stroke-width: 0.6"/>
      </g>
     </g>
    </g>
    <g id="xtick_12">
     <g id="line2d_12">
      <g>
       <use xlink:href="#m360e1f0208" x="171.188377" y="316.44327" style="stroke: #000000; stroke-width: 0.6"/>
      </g>
     </g>
    </g>
    <g id="xtick_13">
     <g id="line2d_13">
      <g>
       <use xlink:href="#m360e1f0208" x="192.534372" y="316.44327" style="stroke: #000000; stroke-width: 0.6"/>
      </g>
     </g>
    </g>
    <g id="xtick_14">
     <g id="line2d_14">
      <g>
       <use xlink:href="#m360e1f0208" x="207.679597" y="316.44327" style="stroke: #000000; stroke-width: 0.6"/>
      </g>
     </g>
    </g>
    <g id="xtick_15">
     <g id="line2d_15">
      <g>
       <use xlink:href="#m360e1f0208" x="219.427146" y="316.44327" style="stroke: #000000; stroke-width: 0.6"/>
      </g>
     </g>
    </g>
    <g id="xtick_16">
     <g id="line2d_16">
      <g>
       <use xlink:href="#m360e1f0208" x="229.025592" y="316.44327" style="stroke: #000000; stroke-width: 0.6"/>
      </g>
     </g>
    </g>
    <g id="xtick_17">
     <g id="line2d_17">
      <g>
       <use xlink:href="#m360e1f0208" x="237.140963" y="316.44327" style="stroke: #000000; stroke-width: 0.6"/>
      </g>
     </g>
    </g>
    <g id="xtick_18">
     <g id="line2d_18">
      <g>
       <use xlink:href="#m360e1f0208" x="244.170817" y="316.44327" style="stroke: #000000; stroke-width: 0.6"/>
      </g>
     </g>
    </g>
    <g id="xtick_19">
     <g id="line2d_19">
      <g>
       <use xlink:href="#m360e1f0208" x="250.371587" y="316.44327" style="stroke: #000000; stroke-width: 0.6"/>
      </g>
     </g>
    </g>
    <g id="xtick_20">
     <g id="line2d_20">
      <g>
       <use xlink:href="#m360e1f0208" x="292.409586" y="316.44327" style="stroke: #000000; stroke-width: 0.6"/>
      </g>
     </g>
    </g>
    <g id="xtick_21">
     <g id="line2d_21">
      <g>
       <use xlink:href="#m360e1f0208" x="313.755581" y="316.44327" style="stroke: #000000; stroke-width: 0.6"/>
      </g>
     </g>
    </g>
    <g id="xtick_22">
     <g id="line2d_22">
      <g>
       <use xlink:href="#m360e1f0208" x="328.900806" y="316.44327" style="stroke: #000000; stroke-width: 0.6"/>
      </g>
     </g>
    </g>
    <g id="xtick_23">
     <g id="line2d_23">
      <g>
       <use xlink:href="#m360e1f0208" x="340.648355" y="316.44327" style="stroke: #000000; stroke-width: 0.6"/>
      </g>
     </g>
    </g>
    <g id="xtick_24">
     <g id="line2d_24">
      <g>
       <use xlink:href="#m360e1f0208" x="350.246801" y="316.44327" style="stroke: #000000; stroke-width: 0.6"/>
      </g>
     </g>
    </g>
    <g id="xtick_25">
     <g id="line2d_25">
      <g>
       <use xlink:href="#m360e1f0208" x="358.362172" y="316.44327" style="stroke: #000000; stroke-width: 0.6"/>
      </g>
     </g>
    </g>
    <g id="xtick_26">
     <g id="line2d_26">
      <g>
       <use xlink:href="#m360e1f0208" x="365.392026" y="316.44327" style="stroke: #000000; stroke-width: 0.6"/>
      </g>
     </g>
    </g>
    <g id="xtick_27">
     <g id="line2d_27">
      <g>
       <use xlink:href="#m360e1f0208" x="371.592796" y="316.44327" style="stroke: #000000; stroke-width: 0.6"/>
      </g>
     </g>
    </g>
    <g id="text_4">
     <!-- bandwidth -->
     <g transform="translate(184.097912 344.719832) scale(0.1 -0.1)">
      <defs>
       <path id="DejaVuSans-62" d="M 3116 1747 
Q 3116 2381 2855 2742 
Q 2594 3103 2138 3103 
Q 1681 3103 1420 2742 
Q 1159 2381 1159 1747 
Q 1159 1113 1420 752 
Q 1681 391 2138 391 
Q 2594 391 2855 752 
Q 3116 1113 3116 1747 
z
M 1159 2969 
Q 1341 3281 1617 3432 
Q 1894 3584 2278 3584 
Q 2916 3584 3314 3078 
Q 3713 2572 3713 1747 
Q 3713 922 3314 415 
Q 2916 -91 2278 -91 
Q 1894 -91 1617 61 
Q 1341 213 1159 525 
L 1159 0 
L 581 0 
L 581 4863 
L 1159 4863 
L 1159 2969 
z
" transform="scale(0.015625)"/>
       <path id="DejaVuSans-61" d="M 2194 1759 
Q 1497 1759 1228 1600 
Q 959 1441 959 1056 
Q 959 750 1161 570 
Q 1363 391 1709 391 
Q 2188 391 2477 730 
Q 2766 1069 2766 1631 
L 2766 1759 
L 2194 1759 
z
M 3341 1997 
L 3341 0 
L 2766 0 
L 2766 531 
Q 2569 213 2275 61 
Q 1981 -91 1556 -91 
Q 1019 -91 701 211 
Q 384 513 384 1019 
Q 384 1609 779 1909 
Q 1175 2209 1959 2209 
L 2766 2209 
L 2766 2266 
Q 2766 2663 2505 2880 
Q 2244 3097 1772 3097 
Q 1472 3097 1187 3025 
Q 903 2953 641 2809 
L 641 3341 
Q 956 3463 1253 3523 
Q 1550 3584 1831 3584 
Q 2591 3584 2966 3190 
Q 3341 2797 3341 1997 
z
" transform="scale(0.015625)"/>
       <path id="DejaVuSans-6e" d="M 3513 2113 
L 3513 0 
L 2938 0 
L 2938 2094 
Q 2938 2591 2744 2837 
Q 2550 3084 2163 3084 
Q 1697 3084 1428 2787 
Q 1159 2491 1159 1978 
L 1159 0 
L 581 0 
L 581 3500 
L 1159 3500 
L 1159 2956 
Q 1366 3272 1645 3428 
Q 1925 3584 2291 3584 
Q 2894 3584 3203 3211 
Q 3513 2838 3513 2113 
z
" transform="scale(0.015625)"/>
       <path id="DejaVuSans-64" d="M 2906 2969 
L 2906 4863 
L 3481 4863 
L 3481 0 
L 2906 0 
L 2906 525 
Q 2725 213 2448 61 
Q 2172 -91 1784 -91 
Q 1150 -91 751 415 
Q 353 922 353 1747 
Q 353 2572 751 3078 
Q 1150 3584 1784 3584 
Q 2172 3584 2448 3432 
Q 2725 3281 2906 2969 
z
M 947 1747 
Q 947 1113 1208 752 
Q 1469 391 1925 391 
Q 2381 391 2643 752 
Q 2906 1113 2906 1747 
Q 2906 2381 2643 2742 
Q 2381 3103 1925 3103 
Q 1469 3103 1208 2742 
Q 947 2381 947 1747 
z
" transform="scale(0.015625)"/>
       <path id="DejaVuSans-77" d="M 269 3500 
L 844 3500 
L 1563 769 
L 2278 3500 
L 2956 3500 
L 3675 769 
L 4391 3500 
L 4966 3500 
L 4050 0 
L 3372 0 
L 2619 2869 
L 1863 0 
L 1184 0 
L 269 3500 
z
" transform="scale(0.015625)"/>
       <path id="DejaVuSans-69" d="M 603 3500 
L 1178 3500 
L 1178 0 
L 603 0 
L 603 3500 
z
M 603 4863 
L 1178 4863 
L 1178 4134 
L 603 4134 
L 603 4863 
z
" transform="scale(0.015625)"/>
       <path id="DejaVuSans-74" d="M 1172 4494 
L 1172 3500 
L 2356 3500 
L 2356 3053 
L 1172 3053 
L 1172 1153 
Q 1172 725 1289 603 
Q 1406 481 1766 481 
L 2356 481 
L 2356 0 
L 1766 0 
Q 1100 0 847 248 
Q 594 497 594 1153 
L 594 3053 
L 172 3053 
L 172 3500 
L 594 3500 
L 594 4494 
L 1172 4494 
z
" transform="scale(0.015625)"/>
       <path id="DejaVuSans-68" d="M 3513 2113 
L 3513 0 
L 2938 0 
L 2938 2094 
Q 2938 2591 2744 2837 
Q 2550 3084 2163 3084 
Q 1697 3084 1428 2787 
Q 1159 2491 1159 1978 
L 1159 0 
L 581 0 
L 581 4863 
L 1159 4863 
L 1159 2956 
Q 1366 3272 1645 3428 
Q 1925 3584 2291 3584 
Q 2894 3584 3203 3211 
Q 3513 2838 3513 2113 
z
" transform="scale(0.015625)"/>
      </defs>
      <use xlink:href="#DejaVuSans-62"/>
      <use xlink:href="#DejaVuSans-61" transform="translate(63.476562 0)"/>
      <use xlink:href="#DejaVuSans-6e" transform="translate(124.755859 0)"/>
      <use xlink:href="#DejaVuSans-64" transform="translate(188.134766 0)"/>
      <use xlink:href="#DejaVuSans-77" transform="translate(251.611328 0)"/>
      <use xlink:href="#DejaVuSans-69" transform="translate(333.398438 0)"/>
      <use xlink:href="#DejaVuSans-64" transform="translate(361.181641 0)"/>
      <use xlink:href="#DejaVuSans-74" transform="translate(424.658203 0)"/>
      <use xlink:href="#DejaVuSans-68" transform="translate(463.867188 0)"/>
     </g>
    </g>
   </g>
   <g id="matplotlib.axis_2">
    <g id="ytick_1">
     <g id="line2d_28">
      <defs>
       <path id="mbd2f377c6c" d="M 0 0 
L -3.5 0 
" style="stroke: #000000; stroke-width: 0.8"/>
      </defs>
      <g>
       <use xlink:href="#mbd2f377c6c" x="43.78125" y="316.44327" style="stroke: #000000; stroke-width: 0.8"/>
      </g>
     </g>
     <g id="text_5">
      <!-- 1.0 -->
      <g transform="translate(20.878125 320.242489) scale(0.1 -0.1)">
       <defs>
        <path id="DejaVuSans-2e" d="M 684 794 
L 1344 794 
L 1344 0 
L 684 0 
L 684 794 
z
" transform="scale(0.015625)"/>
       </defs>
       <use xlink:href="#DejaVuSans-31"/>
       <use xlink:href="#DejaVuSans-2e" transform="translate(63.623047 0)"/>
       <use xlink:href="#DejaVuSans-30" transform="translate(95.410156 0)"/>
      </g>
     </g>
    </g>
    <g id="ytick_2">
     <g id="line2d_29">
      <g>
       <use xlink:href="#mbd2f377c6c" x="43.78125" y="265.535928" style="stroke: #000000; stroke-width: 0.8"/>
      </g>
     </g>
     <g id="text_6">
      <!-- 1.5 -->
      <g transform="translate(20.878125 269.335147) scale(0.1 -0.1)">
       <defs>
        <path id="DejaVuSans-35" d="M 691 4666 
L 3169 4666 
L 3169 4134 
L 1269 4134 
L 1269 2991 
Q 1406 3038 1543 3061 
Q 1681 3084 1819 3084 
Q 2600 3084 3056 2656 
Q 3513 2228 3513 1497 
Q 3513 744 3044 326 
Q 2575 -91 1722 -91 
Q 1428 -91 1123 -41 
Q 819 9 494 109 
L 494 744 
Q 775 591 1075 516 
Q 1375 441 1709 441 
Q 2250 441 2565 725 
Q 2881 1009 2881 1497 
Q 2881 1984 2565 2268 
Q 2250 2553 1709 2553 
Q 1456 2553 1204 2497 
Q 953 2441 691 2322 
L 691 4666 
z
" transform="scale(0.015625)"/>
       </defs>
       <use xlink:href="#DejaVuSans-31"/>
       <use xlink:href="#DejaVuSans-2e" transform="translate(63.623047 0)"/>
       <use xlink:href="#DejaVuSans-35" transform="translate(95.410156 0)"/>
      </g>
     </g>
    </g>
    <g id="ytick_3">
     <g id="line2d_30">
      <g>
       <use xlink:href="#mbd2f377c6c" x="43.78125" y="214.628586" style="stroke: #000000; stroke-width: 0.8"/>
      </g>
     </g>
     <g id="text_7">
      <!-- 2.0 -->
      <g transform="translate(20.878125 218.427805) scale(0.1 -0.1)">
       <use xlink:href="#DejaVuSans-32"/>
       <use xlink:href="#DejaVuSans-2e" transform="translate(63.623047 0)"/>
       <use xlink:href="#DejaVuSans-30" transform="translate(95.410156 0)"/>
      </g>
     </g>
    </g>
    <g id="ytick_4">
     <g id="line2d_31">
      <g>
       <use xlink:href="#mbd2f377c6c" x="43.78125" y="163.721244" style="stroke: #000000; stroke-width: 0.8"/>
      </g>
     </g>
     <g id="text_8">
      <!-- 2.5 -->
      <g transform="translate(20.878125 167.520463) scale(0.1 -0.1)">
       <use xlink:href="#DejaVuSans-32"/>
       <use xlink:href="#DejaVuSans-2e" transform="translate(63.623047 0)"/>
       <use xlink:href="#DejaVuSans-35" transform="translate(95.410156 0)"/>
      </g>
     </g>
    </g>
    <g id="ytick_5">
     <g id="line2d_32">
      <g>
       <use xlink:href="#mbd2f377c6c" x="43.78125" y="112.813902" style="stroke: #000000; stroke-width: 0.8"/>
      </g>
     </g>
     <g id="text_9">
      <!-- 3.0 -->
      <g transform="translate(20.878125 116.613121) scale(0.1 -0.1)">
       <use xlink:href="#DejaVuSans-33"/>
       <use xlink:href="#DejaVuSans-2e" transform="translate(63.623047 0)"/>
       <use xlink:href="#DejaVuSans-30" transform="translate(95.410156 0)"/>
      </g>
     </g>
    </g>
    <g id="ytick_6">
     <g id="line2d_33">
      <g>
       <use xlink:href="#mbd2f377c6c" x="43.78125" y="61.906561" style="stroke: #000000; stroke-width: 0.8"/>
      </g>
     </g>
     <g id="text_10">
      <!-- 3.5 -->
      <g transform="translate(20.878125 65.705779) scale(0.1 -0.1)">
       <use xlink:href="#DejaVuSans-33"/>
       <use xlink:href="#DejaVuSans-2e" transform="translate(63.623047 0)"/>
       <use xlink:href="#DejaVuSans-35" transform="translate(95.410156 0)"/>
      </g>
     </g>
    </g>
    <g id="ytick_7">
     <g id="line2d_34">
      <g>
       <use xlink:href="#mbd2f377c6c" x="43.78125" y="10.999219" style="stroke: #000000; stroke-width: 0.8"/>
      </g>
     </g>
     <g id="text_11">
      <!-- 4.0 -->
      <g transform="translate(20.878125 14.798438) scale(0.1 -0.1)">
       <defs>
        <path id="DejaVuSans-34" d="M 2419 4116 
L 825 1625 
L 2419 1625 
L 2419 4116 
z
M 2253 4666 
L 3047 4666 
L 3047 1625 
L 3713 1625 
L 3713 1100 
L 3047 1100 
L 3047 0 
L 2419 0 
L 2419 1100 
L 313 1100 
L 313 1709 
L 2253 4666 
z
" transform="scale(0.015625)"/>
       </defs>
       <use xlink:href="#DejaVuSans-34"/>
       <use xlink:href="#DejaVuSans-2e" transform="translate(63.623047 0)"/>
       <use xlink:href="#DejaVuSans-30" transform="translate(95.410156 0)"/>
      </g>
     </g>
    </g>
    <g id="text_12">
     <!-- alpha -->
     <g transform="translate(14.798438 177.581401) rotate(-90) scale(0.1 -0.1)">
      <defs>
       <path id="DejaVuSans-6c" d="M 603 4863 
L 1178 4863 
L 1178 0 
L 603 0 
L 603 4863 
z
" transform="scale(0.015625)"/>
       <path id="DejaVuSans-70" d="M 1159 525 
L 1159 -1331 
L 581 -1331 
L 581 3500 
L 1159 3500 
L 1159 2969 
Q 1341 3281 1617 3432 
Q 1894 3584 2278 3584 
Q 2916 3584 3314 3078 
Q 3713 2572 3713 1747 
Q 3713 922 3314 415 
Q 2916 -91 2278 -91 
Q 1894 -91 1617 61 
Q 1341 213 1159 525 
z
M 3116 1747 
Q 3116 2381 2855 2742 
Q 2594 3103 2138 3103 
Q 1681 3103 1420 2742 
Q 1159 2381 1159 1747 
Q 1159 1113 1420 752 
Q 1681 391 2138 391 
Q 2594 391 2855 752 
Q 3116 1113 3116 1747 
z
" transform="scale(0.015625)"/>
      </defs>
      <use xlink:href="#DejaVuSans-61"/>
      <use xlink:href="#DejaVuSans-6c" transform="translate(61.279297 0)"/>
      <use xlink:href="#DejaVuSans-70" transform="translate(89.0625 0)"/>
      <use xlink:href="#DejaVuSans-68" transform="translate(152.539062 0)"/>
      <use xlink:href="#DejaVuSans-61" transform="translate(215.917969 0)"/>
     </g>
    </g>
   </g>
   <g id="patch_3">
    <path d="M 43.78125 316.44327 
L 43.78125 10.999219 
" style="fill: none; stroke: #000000; stroke-width: 0.8; stroke-linejoin: miter; stroke-linecap: square"/>
   </g>
   <g id="patch_4">
    <path d="M 377.139575 316.44327 
L 377.139575 10.999219 
" style="fill: none; stroke: #000000; stroke-width: 0.8; stroke-linejoin: miter; stroke-linecap: square"/>
   </g>
   <g id="patch_5">
    <path d="M 43.78125 316.44327 
L 377.139575 316.44327 
" style="fill: none; stroke: #000000; stroke-width: 0.8; stroke-linejoin: miter; stroke-linecap: square"/>
   </g>
   <g id="patch_6">
    <path d="M 43.78125 10.999219 
L 377.139575 10.999219 
" style="fill: none; stroke: #000000; stroke-width: 0.8; stroke-linejoin: miter; stroke-linecap: square"/>
   </g>
  </g>
  <g id="axes_2">
   <g id="patch_7">
    <path d="M 405.557491 316.44327 
L 420.829693 316.44327 
L 420.829693 10.999219 
L 405.557491 10.999219 
z
" style="fill: #ffffff"/>
   </g>
   <g id="QuadMesh_1">
    <path d="M 405.557491 316.44327 
L 420.829693 316.44327 
L 420.829693 298.475973 
L 405.557491 298.475973 
L 405.557491 316.44327 
" clip-path="url(#p5194d1f9fc)" style="fill: #460b5e"/>
    <path d="M 405.557491 298.475973 
L 420.829693 298.475973 
L 420.829693 280.508676 
L 405.557491 280.508676 
L 405.557491 298.475973 
" clip-path="url(#p5194d1f9fc)" style="fill: #482071"/>
    <path d="M 405.557491 280.508676 
L 420.829693 280.508676 
L 420.829693 262.541379 
L 405.557491 262.541379 
L 405.557491 280.508676 
" clip-path="url(#p5194d1f9fc)" style="fill: #46337f"/>
    <path d="M 405.557491 262.541379 
L 420.829693 262.541379 
L 420.829693 244.574081 
L 405.557491 244.574081 
L 405.557491 262.541379 
" clip-path="url(#p5194d1f9fc)" style="fill: #404588"/>
    <path d="M 405.557491 244.574081 
L 420.829693 244.574081 
L 420.829693 226.606784 
L 405.557491 226.606784 
L 405.557491 244.574081 
" clip-path="url(#p5194d1f9fc)" style="fill: #39558c"/>
    <path d="M 405.557491 226.606784 
L 420.829693 226.606784 
L 420.829693 208.639487 
L 405.557491 208.639487 
L 405.557491 226.606784 
" clip-path="url(#p5194d1f9fc)" style="fill: #32658e"/>
    <path d="M 405.557491 208.639487 
L 420.829693 208.639487 
L 420.829693 190.67219 
L 405.557491 190.67219 
L 405.557491 208.639487 
" clip-path="url(#p5194d1f9fc)" style="fill: #2c738e"/>
    <path d="M 405.557491 190.67219 
L 420.829693 190.67219 
L 420.829693 172.704893 
L 405.557491 172.704893 
L 405.557491 190.67219 
" clip-path="url(#p5194d1f9fc)" style="fill: #26828e"/>
    <path d="M 405.557491 172.704893 
L 420.829693 172.704893 
L 420.829693 154.737596 
L 405.557491 154.737596 
L 405.557491 172.704893 
" clip-path="url(#p5194d1f9fc)" style="fill: #21918c"/>
    <path d="M 405.557491 154.737596 
L 420.829693 154.737596 
L 420.829693 136.770299 
L 405.557491 136.770299 
L 405.557491 154.737596 
" clip-path="url(#p5194d1f9fc)" style="fill: #1f9f88"/>
    <path d="M 405.557491 136.770299 
L 420.829693 136.770299 
L 420.829693 118.803002 
L 405.557491 118.803002 
L 405.557491 136.770299 
" clip-path="url(#p5194d1f9fc)" style="fill: #26ad81"/>
    <path d="M 405.557491 118.803002 
L 420.829693 118.803002 
L 420.829693 100.835704 
L 405.557491 100.835704 
L 405.557491 118.803002 
" clip-path="url(#p5194d1f9fc)" style="fill: #3aba76"/>
    <path d="M 405.557491 100.835704 
L 420.829693 100.835704 
L 420.829693 82.868407 
L 405.557491 82.868407 
L 405.557491 100.835704 
" clip-path="url(#p5194d1f9fc)" style="fill: #56c667"/>
    <path d="M 405.557491 82.868407 
L 420.829693 82.868407 
L 420.829693 64.90111 
L 405.557491 64.90111 
L 405.557491 82.868407 
" clip-path="url(#p5194d1f9fc)" style="fill: #77d153"/>
    <path d="M 405.557491 64.90111 
L 420.829693 64.90111 
L 420.829693 46.933813 
L 405.557491 46.933813 
L 405.557491 64.90111 
" clip-path="url(#p5194d1f9fc)" style="fill: #9dd93b"/>
    <path d="M 405.557491 46.933813 
L 420.829693 46.933813 
L 420.829693 28.966516 
L 405.557491 28.966516 
L 405.557491 46.933813 
" clip-path="url(#p5194d1f9fc)" style="fill: #c5e021"/>
    <path d="M 405.557491 28.966516 
L 420.829693 28.966516 
L 420.829693 10.999219 
L 405.557491 10.999219 
L 405.557491 28.966516 
" clip-path="url(#p5194d1f9fc)" style="fill: #ece51b"/>
   </g>
   <g id="matplotlib.axis_3"/>
   <g id="matplotlib.axis_4">
    <g id="ytick_8">
     <g id="line2d_35">
      <defs>
       <path id="m0a27ea52cb" d="M 0 0 
L 3.5 0 
" style="stroke: #000000; stroke-width: 0.8"/>
      </defs>
      <g>
       <use xlink:href="#m0a27ea52cb" x="420.829693" y="298.475973" style="stroke: #000000; stroke-width: 0.8"/>
      </g>
     </g>
     <g id="text_13">
      <!-- -6.4 -->
      <g transform="translate(427.829693 302.275192) scale(0.1 -0.1)">
       <defs>
        <path id="DejaVuSans-2d" d="M 313 2009 
L 1997 2009 
L 1997 1497 
L 313 1497 
L 313 2009 
z
" transform="scale(0.015625)"/>
        <path id="DejaVuSans-36" d="M 2113 2584 
Q 1688 2584 1439 2293 
Q 1191 2003 1191 1497 
Q 1191 994 1439 701 
Q 1688 409 2113 409 
Q 2538 409 2786 701 
Q 3034 994 3034 1497 
Q 3034 2003 2786 2293 
Q 2538 2584 2113 2584 
z
M 3366 4563 
L 3366 3988 
Q 3128 4100 2886 4159 
Q 2644 4219 2406 4219 
Q 1781 4219 1451 3797 
Q 1122 3375 1075 2522 
Q 1259 2794 1537 2939 
Q 1816 3084 2150 3084 
Q 2853 3084 3261 2657 
Q 3669 2231 3669 1497 
Q 3669 778 3244 343 
Q 2819 -91 2113 -91 
Q 1303 -91 875 529 
Q 447 1150 447 2328 
Q 447 3434 972 4092 
Q 1497 4750 2381 4750 
Q 2619 4750 2861 4703 
Q 3103 4656 3366 4563 
z
" transform="scale(0.015625)"/>
       </defs>
       <use xlink:href="#DejaVuSans-2d"/>
       <use xlink:href="#DejaVuSans-36" transform="translate(36.083984 0)"/>
       <use xlink:href="#DejaVuSans-2e" transform="translate(99.707031 0)"/>
       <use xlink:href="#DejaVuSans-34" transform="translate(131.494141 0)"/>
      </g>
     </g>
    </g>
    <g id="ytick_9">
     <g id="line2d_36">
      <g>
       <use xlink:href="#m0a27ea52cb" x="420.829693" y="262.541379" style="stroke: #000000; stroke-width: 0.8"/>
      </g>
     </g>
     <g id="text_14">
      <!-- -5.6 -->
      <g transform="translate(427.829693 266.340597) scale(0.1 -0.1)">
       <use xlink:href="#DejaVuSans-2d"/>
       <use xlink:href="#DejaVuSans-35" transform="translate(36.083984 0)"/>
       <use xlink:href="#DejaVuSans-2e" transform="translate(99.707031 0)"/>
       <use xlink:href="#DejaVuSans-36" transform="translate(131.494141 0)"/>
      </g>
     </g>
    </g>
    <g id="ytick_10">
     <g id="line2d_37">
      <g>
       <use xlink:href="#m0a27ea52cb" x="420.829693" y="226.606784" style="stroke: #000000; stroke-width: 0.8"/>
      </g>
     </g>
     <g id="text_15">
      <!-- -4.8 -->
      <g transform="translate(427.829693 230.406003) scale(0.1 -0.1)">
       <defs>
        <path id="DejaVuSans-38" d="M 2034 2216 
Q 1584 2216 1326 1975 
Q 1069 1734 1069 1313 
Q 1069 891 1326 650 
Q 1584 409 2034 409 
Q 2484 409 2743 651 
Q 3003 894 3003 1313 
Q 3003 1734 2745 1975 
Q 2488 2216 2034 2216 
z
M 1403 2484 
Q 997 2584 770 2862 
Q 544 3141 544 3541 
Q 544 4100 942 4425 
Q 1341 4750 2034 4750 
Q 2731 4750 3128 4425 
Q 3525 4100 3525 3541 
Q 3525 3141 3298 2862 
Q 3072 2584 2669 2484 
Q 3125 2378 3379 2068 
Q 3634 1759 3634 1313 
Q 3634 634 3220 271 
Q 2806 -91 2034 -91 
Q 1263 -91 848 271 
Q 434 634 434 1313 
Q 434 1759 690 2068 
Q 947 2378 1403 2484 
z
M 1172 3481 
Q 1172 3119 1398 2916 
Q 1625 2713 2034 2713 
Q 2441 2713 2670 2916 
Q 2900 3119 2900 3481 
Q 2900 3844 2670 4047 
Q 2441 4250 2034 4250 
Q 1625 4250 1398 4047 
Q 1172 3844 1172 3481 
z
" transform="scale(0.015625)"/>
       </defs>
       <use xlink:href="#DejaVuSans-2d"/>
       <use xlink:href="#DejaVuSans-34" transform="translate(36.083984 0)"/>
       <use xlink:href="#DejaVuSans-2e" transform="translate(99.707031 0)"/>
       <use xlink:href="#DejaVuSans-38" transform="translate(131.494141 0)"/>
      </g>
     </g>
    </g>
    <g id="ytick_11">
     <g id="line2d_38">
      <g>
       <use xlink:href="#m0a27ea52cb" x="420.829693" y="190.67219" style="stroke: #000000; stroke-width: 0.8"/>
      </g>
     </g>
     <g id="text_16">
      <!-- -4.0 -->
      <g transform="translate(427.829693 194.471409) scale(0.1 -0.1)">
       <use xlink:href="#DejaVuSans-2d"/>
       <use xlink:href="#DejaVuSans-34" transform="translate(36.083984 0)"/>
       <use xlink:href="#DejaVuSans-2e" transform="translate(99.707031 0)"/>
       <use xlink:href="#DejaVuSans-30" transform="translate(131.494141 0)"/>
      </g>
     </g>
    </g>
    <g id="ytick_12">
     <g id="line2d_39">
      <g>
       <use xlink:href="#m0a27ea52cb" x="420.829693" y="154.737596" style="stroke: #000000; stroke-width: 0.8"/>
      </g>
     </g>
     <g id="text_17">
      <!-- -3.2 -->
      <g transform="translate(427.829693 158.536815) scale(0.1 -0.1)">
       <use xlink:href="#DejaVuSans-2d"/>
       <use xlink:href="#DejaVuSans-33" transform="translate(36.083984 0)"/>
       <use xlink:href="#DejaVuSans-2e" transform="translate(99.707031 0)"/>
       <use xlink:href="#DejaVuSans-32" transform="translate(131.494141 0)"/>
      </g>
     </g>
    </g>
    <g id="ytick_13">
     <g id="line2d_40">
      <g>
       <use xlink:href="#m0a27ea52cb" x="420.829693" y="118.803002" style="stroke: #000000; stroke-width: 0.8"/>
      </g>
     </g>
     <g id="text_18">
      <!-- -2.4 -->
      <g transform="translate(427.829693 122.60222) scale(0.1 -0.1)">
       <use xlink:href="#DejaVuSans-2d"/>
       <use xlink:href="#DejaVuSans-32" transform="translate(36.083984 0)"/>
       <use xlink:href="#DejaVuSans-2e" transform="translate(99.707031 0)"/>
       <use xlink:href="#DejaVuSans-34" transform="translate(131.494141 0)"/>
      </g>
     </g>
    </g>
    <g id="ytick_14">
     <g id="line2d_41">
      <g>
       <use xlink:href="#m0a27ea52cb" x="420.829693" y="82.868407" style="stroke: #000000; stroke-width: 0.8"/>
      </g>
     </g>
     <g id="text_19">
      <!-- -1.6 -->
      <g transform="translate(427.829693 86.667626) scale(0.1 -0.1)">
       <use xlink:href="#DejaVuSans-2d"/>
       <use xlink:href="#DejaVuSans-31" transform="translate(36.083984 0)"/>
       <use xlink:href="#DejaVuSans-2e" transform="translate(99.707031 0)"/>
       <use xlink:href="#DejaVuSans-36" transform="translate(131.494141 0)"/>
      </g>
     </g>
    </g>
    <g id="ytick_15">
     <g id="line2d_42">
      <g>
       <use xlink:href="#m0a27ea52cb" x="420.829693" y="46.933813" style="stroke: #000000; stroke-width: 0.8"/>
      </g>
     </g>
     <g id="text_20">
      <!-- -0.8 -->
      <g transform="translate(427.829693 50.733032) scale(0.1 -0.1)">
       <use xlink:href="#DejaVuSans-2d"/>
       <use xlink:href="#DejaVuSans-30" transform="translate(36.083984 0)"/>
       <use xlink:href="#DejaVuSans-2e" transform="translate(99.707031 0)"/>
       <use xlink:href="#DejaVuSans-38" transform="translate(131.494141 0)"/>
      </g>
     </g>
    </g>
    <g id="ytick_16">
     <g id="line2d_43">
      <g>
       <use xlink:href="#m0a27ea52cb" x="420.829693" y="10.999219" style="stroke: #000000; stroke-width: 0.8"/>
      </g>
     </g>
     <g id="text_21">
      <!-- 0.0 -->
      <g transform="translate(427.829693 14.798438) scale(0.1 -0.1)">
       <use xlink:href="#DejaVuSans-30"/>
       <use xlink:href="#DejaVuSans-2e" transform="translate(63.623047 0)"/>
       <use xlink:href="#DejaVuSans-30" transform="translate(95.410156 0)"/>
      </g>
     </g>
    </g>
    <g id="text_22">
     <!-- Score -->
     <g transform="translate(458.939068 177.723588) rotate(-90) scale(0.1 -0.1)">
      <defs>
       <path id="DejaVuSans-53" d="M 3425 4513 
L 3425 3897 
Q 3066 4069 2747 4153 
Q 2428 4238 2131 4238 
Q 1616 4238 1336 4038 
Q 1056 3838 1056 3469 
Q 1056 3159 1242 3001 
Q 1428 2844 1947 2747 
L 2328 2669 
Q 3034 2534 3370 2195 
Q 3706 1856 3706 1288 
Q 3706 609 3251 259 
Q 2797 -91 1919 -91 
Q 1588 -91 1214 -16 
Q 841 59 441 206 
L 441 856 
Q 825 641 1194 531 
Q 1563 422 1919 422 
Q 2459 422 2753 634 
Q 3047 847 3047 1241 
Q 3047 1584 2836 1778 
Q 2625 1972 2144 2069 
L 1759 2144 
Q 1053 2284 737 2584 
Q 422 2884 422 3419 
Q 422 4038 858 4394 
Q 1294 4750 2059 4750 
Q 2388 4750 2728 4690 
Q 3069 4631 3425 4513 
z
" transform="scale(0.015625)"/>
       <path id="DejaVuSans-63" d="M 3122 3366 
L 3122 2828 
Q 2878 2963 2633 3030 
Q 2388 3097 2138 3097 
Q 1578 3097 1268 2742 
Q 959 2388 959 1747 
Q 959 1106 1268 751 
Q 1578 397 2138 397 
Q 2388 397 2633 464 
Q 2878 531 3122 666 
L 3122 134 
Q 2881 22 2623 -34 
Q 2366 -91 2075 -91 
Q 1284 -91 818 406 
Q 353 903 353 1747 
Q 353 2603 823 3093 
Q 1294 3584 2113 3584 
Q 2378 3584 2631 3529 
Q 2884 3475 3122 3366 
z
" transform="scale(0.015625)"/>
       <path id="DejaVuSans-6f" d="M 1959 3097 
Q 1497 3097 1228 2736 
Q 959 2375 959 1747 
Q 959 1119 1226 758 
Q 1494 397 1959 397 
Q 2419 397 2687 759 
Q 2956 1122 2956 1747 
Q 2956 2369 2687 2733 
Q 2419 3097 1959 3097 
z
M 1959 3584 
Q 2709 3584 3137 3096 
Q 3566 2609 3566 1747 
Q 3566 888 3137 398 
Q 2709 -91 1959 -91 
Q 1206 -91 779 398 
Q 353 888 353 1747 
Q 353 2609 779 3096 
Q 1206 3584 1959 3584 
z
" transform="scale(0.015625)"/>
       <path id="DejaVuSans-72" d="M 2631 2963 
Q 2534 3019 2420 3045 
Q 2306 3072 2169 3072 
Q 1681 3072 1420 2755 
Q 1159 2438 1159 1844 
L 1159 0 
L 581 0 
L 581 3500 
L 1159 3500 
L 1159 2956 
Q 1341 3275 1631 3429 
Q 1922 3584 2338 3584 
Q 2397 3584 2469 3576 
Q 2541 3569 2628 3553 
L 2631 2963 
z
" transform="scale(0.015625)"/>
       <path id="DejaVuSans-65" d="M 3597 1894 
L 3597 1613 
L 953 1613 
Q 991 1019 1311 708 
Q 1631 397 2203 397 
Q 2534 397 2845 478 
Q 3156 559 3463 722 
L 3463 178 
Q 3153 47 2828 -22 
Q 2503 -91 2169 -91 
Q 1331 -91 842 396 
Q 353 884 353 1716 
Q 353 2575 817 3079 
Q 1281 3584 2069 3584 
Q 2775 3584 3186 3129 
Q 3597 2675 3597 1894 
z
M 3022 2063 
Q 3016 2534 2758 2815 
Q 2500 3097 2075 3097 
Q 1594 3097 1305 2825 
Q 1016 2553 972 2059 
L 3022 2063 
z
" transform="scale(0.015625)"/>
      </defs>
      <use xlink:href="#DejaVuSans-53"/>
      <use xlink:href="#DejaVuSans-63" transform="translate(63.476562 0)"/>
      <use xlink:href="#DejaVuSans-6f" transform="translate(118.457031 0)"/>
      <use xlink:href="#DejaVuSans-72" transform="translate(179.638672 0)"/>
      <use xlink:href="#DejaVuSans-65" transform="translate(218.501953 0)"/>
     </g>
    </g>
   </g>
   <g id="LineCollection_1"/>
   <g id="patch_8">
    <path d="M 405.557491 316.44327 
L 413.193592 316.44327 
L 420.829693 316.44327 
L 420.829693 10.999219 
L 413.193592 10.999219 
L 405.557491 10.999219 
L 405.557491 316.44327 
z
" style="fill: none; stroke: #000000; stroke-width: 0.8; stroke-linejoin: miter; stroke-linecap: square"/>
   </g>
  </g>
 </g>
 <defs>
  <clipPath id="pca30bcc2e4">
   <rect x="43.78125" y="10.999219" width="333.358325" height="305.444051"/>
  </clipPath>
  <clipPath id="p5194d1f9fc">
   <rect x="405.557491" y="10.999219" width="15.272203" height="305.444051"/>
  </clipPath>
 </defs>
</svg>
