<?xml version="1.0" encoding="utf-8" standalone="no"?>
<!DOCTYPE svg PUBLIC "-//W3C//DTD SVG 1.1//EN"
  "http://www.w3.org/Graphics/SVG/1.1/DTD/svg11.dtd">
<svg xmlns:xlink="http://www.w3.org/1999/xlink" width="460.8pt" height="345.6pt" viewBox="0 0 460.8 345.6" xmlns="http://www.w3.org/2000/svg" version="1.1">
 <metadata>
  <rdf:RDF xmlns:dc="http://purl.org/dc/elements/1.1/" xmlns:cc="http://creativecommons.org/ns#" xmlns:rdf="http://www.w3.org/1999/02/22-rdf-syntax-ns#">
   <cc:Work>
    <dc:type rdf:resource="http://purl.org/dc/dcmitype/StillImage"/>
    <dc:date>2025-11-23T18:47:07.335922</dc:date>
    <dc:format>image/svg+xml</dc:format>
    <dc:creator>
     <cc:Agent>
      <dc:title>Matplotlib v3.10.7, https://matplotlib.org/</dc:title>
     </cc:Agent>
    </dc:creator>
   </cc:Work>
  </rdf:RDF>
 </metadata>
 <defs>
  <style type="text/css">*{stroke-linejoin: round; stroke-linecap: butt}</style>
 </defs>
 <g id="figure_1">
  <g id="patch_1">
   <path d="M 0 345.6 
L 460.8 345.6 
L 460.8 0 
L 0 0 
z
" style="fill: #ffffff"/>
  </g>
  <g id="axes_1">
   <g id="patch_2">
    <path d="M 39.58149 312.24351 
L 368.972479 312.24351 
L 368.972479 18.118365 
L 39.58149 18.118365 
z
" style="fill: #ffffff"/>
   </g>
   <g id="QuadContourSet_1">
    <path d="M 204.276984 312.24351 
L 206.759679 312.24351 
L 204.276984 310.991484 
L 201.552498 312.24351 
z
" clip-path="url(#p5240b15bc7)" style="fill: #470d60"/>
    <path d="M 149.378486 291.498535 
L 174.343989 312.24351 
L 176.827735 312.24351 
L 201.552498 312.24351 
L 204.276984 310.991484 
L 206.759679 312.24351 
L 230.221663 312.24351 
L 204.276984 295.304989 
L 196.77292 287.733081 
L 176.827735 275.918914 
L 162.123055 263.222652 
L 149.378486 256.057335 
L 128.308691 238.712224 
L 121.929237 235.517628 
L 95.097413 214.201795 
L 94.479988 213.864287 
L 67.030739 198.06649 
L 56.101409 189.691366 
L 39.58149 181.922336 
L 22.723068 189.691366 
L 39.58149 209.211462 
L 44.213092 214.201795 
L 67.030739 224.971759 
L 82.537267 238.712224 
L 94.479988 246.951366 
L 114.059695 263.222652 
L 121.929237 269.553823 
L 144.816685 287.733081 
z
M -15.317008 166.433489 
L 12.132241 181.29645 
L 21.986531 165.180938 
L 12.132241 160.107115 
L -6.532264 140.670509 
L -15.317008 135.774295 
L -39.830081 140.670509 
L -16.771595 165.180938 
z
M -42.766257 134.115665 
L -40.686576 116.16008 
L -42.766257 115.02481 
L -56.549846 116.16008 
z
" clip-path="url(#p5240b15bc7)" style="fill: #482475"/>
    <path d="M 149.378486 297.535175 
L 168.323817 312.24351 
L 174.343989 312.24351 
L 149.378486 291.498535 
L 144.816685 287.733081 
L 121.929237 269.553823 
L 114.059695 263.222652 
L 94.479988 246.951366 
L 82.537267 238.712224 
L 67.030739 224.971759 
L 44.213092 214.201795 
L 39.58149 209.211462 
L 22.723068 189.691366 
L 39.58149 181.922336 
L 56.101409 189.691366 
L 67.030739 198.06649 
L 94.479988 213.864287 
L 95.097413 214.201795 
L 121.929237 235.517628 
L 128.308691 238.712224 
L 149.378486 256.057335 
L 162.123055 263.222652 
L 176.827735 275.918914 
L 196.77292 287.733081 
L 204.276984 295.304989 
L 230.221663 312.24351 
L 231.726233 312.24351 
L 238.194442 312.24351 
L 231.726233 307.796189 
L 208.231234 287.733081 
L 204.276984 285.123085 
L 176.827735 263.715848 
L 176.333649 263.222652 
L 149.378486 245.450481 
L 142.255845 238.712224 
L 121.929237 226.849892 
L 107.870399 214.201795 
L 94.479988 205.805598 
L 75.701925 189.691366 
L 67.030739 184.331849 
L 42.746325 165.180938 
L 39.58149 163.310272 
L 12.132241 144.190334 
L 9.249867 140.670509 
L -15.317008 124.357677 
L -24.342299 116.16008 
L -42.766257 104.149101 
L -57.0497 91.649651 
L -70.215506 83.40559 
L -70.215506 91.649651 
L -70.215506 116.16008 
L -70.215506 140.670509 
L -70.215506 141.310727 
L -42.766257 156.744188 
L -32.38655 165.180938 
L -15.317008 177.72589 
L 1.921955 189.691366 
L 12.132241 198.284677 
L 31.142314 214.201795 
L 39.58149 221.329849 
L 64.985379 238.712224 
L 67.030739 240.211105 
L 94.479988 257.461903 
L 102.362806 263.222652 
L 121.929237 277.229164 
L 136.449075 287.733081 
z
M -16.771595 165.180938 
L -39.830081 140.670509 
L -15.317008 135.774295 
L -6.532264 140.670509 
L 12.132241 160.107115 
L 21.986531 165.180938 
L 12.132241 181.29645 
L -15.317008 166.433489 
z
M -56.549846 116.16008 
L -42.766257 115.02481 
L -40.686576 116.16008 
L -42.766257 134.115665 
z
" clip-path="url(#p5240b15bc7)" style="fill: #443983"/>
    <path d="M 149.378486 303.571814 
L 161.432257 312.24351 
L 168.323817 312.24351 
L 149.378486 297.535175 
L 136.449075 287.733081 
L 121.929237 277.229164 
L 102.362806 263.222652 
L 94.479988 257.461903 
L 67.030739 240.211105 
L 64.985379 238.712224 
L 39.58149 221.329849 
L 31.142314 214.201795 
L 12.132241 198.284677 
L 1.921955 189.691366 
L -15.317008 177.72589 
L -32.38655 165.180938 
L -42.766257 156.744188 
L -70.215506 141.310727 
L -70.215506 152.103791 
L -49.240716 165.180938 
L -42.766257 171.173058 
L -15.317008 189.01829 
L -14.162903 189.691366 
L 12.132241 208.589089 
L 19.729824 214.201795 
L 39.58149 229.166294 
L 55.160643 238.712224 
L 67.030739 246.579032 
L 91.299822 263.222652 
L 94.479988 265.219429 
L 121.929237 284.904505 
L 126.293879 287.733081 
z
M 231.726233 307.796189 
L 238.194442 312.24351 
L 244.369298 312.24351 
L 231.726233 302.949039 
L 215.054587 287.733081 
L 204.276984 280.077641 
L 184.46373 263.222652 
L 176.827735 258.06185 
L 152.677571 238.712224 
L 149.378486 236.600299 
L 121.929237 218.182157 
L 117.93476 214.201795 
L 94.479988 197.746909 
L 86.011205 189.691366 
L 67.030739 176.552251 
L 54.134976 165.180938 
L 39.58149 155.451697 
L 21.922245 140.670509 
L 12.132241 134.318052 
L -11.317716 116.16008 
L -15.317008 113.71417 
L -42.766257 93.273392 
L -44.397213 91.649651 
L -70.215506 73.022248 
L -70.215506 83.40559 
L -57.0497 91.649651 
L -42.766257 104.149101 
L -24.342299 116.16008 
L -15.317008 124.357677 
L 9.249867 140.670509 
L 12.132241 144.190334 
L 39.58149 163.310272 
L 42.746325 165.180938 
L 67.030739 184.331849 
L 75.701925 189.691366 
L 94.479988 205.805598 
L 107.870399 214.201795 
L 121.929237 226.849892 
L 142.255845 238.712224 
L 149.378486 245.450481 
L 176.333649 263.222652 
L 176.827735 263.715848 
L 204.276984 285.123085 
L 208.231234 287.733081 
z
" clip-path="url(#p5240b15bc7)" style="fill: #3d4d8a"/>
    <path d="M 121.929237 289.773492 
L 149.378486 309.608453 
L 153.373656 312.24351 
L 161.432257 312.24351 
L 149.378486 303.571814 
L 126.293879 287.733081 
L 121.929237 284.904505 
L 94.479988 265.219429 
L 91.299822 263.222652 
L 67.030739 246.579032 
L 55.160643 238.712224 
L 39.58149 229.166294 
L 19.729824 214.201795 
L 12.132241 208.589089 
L -14.162903 189.691366 
L -15.317008 189.01829 
L -42.766257 171.173058 
L -49.240716 165.180938 
L -70.215506 152.103791 
L -70.215506 162.896856 
L -65.82262 165.180938 
L -42.766257 183.275376 
L -30.973401 189.691366 
L -15.317008 196.271929 
L 8.87455 214.201795 
L 12.132241 216.644903 
L 39.58149 237.002739 
L 42.77197 238.712224 
L 67.030739 252.94696 
L 83.403484 263.222652 
L 94.479988 269.637984 
L 119.056331 287.733081 
z
M 231.726233 302.949039 
L 244.369298 312.24351 
L 249.835441 312.24351 
L 231.726233 298.101888 
L 221.022666 287.733081 
L 204.276984 275.032197 
L 191.302211 263.222652 
L 176.827735 252.683686 
L 160.702359 238.712224 
L 149.378486 230.80986 
L 127.48043 214.201795 
L 121.929237 210.572775 
L 94.484643 189.691366 
L 94.479988 189.688492 
L 67.030739 168.772653 
L 63.32121 165.180938 
L 39.58149 147.593122 
L 32.114342 140.670509 
L 12.132241 126.161963 
L 0.651515 116.16008 
L -15.317008 105.039474 
L -31.12436 91.649651 
L -42.766257 83.801221 
L -63.525059 67.139223 
L -70.215506 62.825324 
L -70.215506 67.139223 
L -70.215506 73.022248 
L -44.397213 91.649651 
L -42.766257 93.273392 
L -15.317008 113.71417 
L -11.317716 116.16008 
L 12.132241 134.318052 
L 21.922245 140.670509 
L 39.58149 155.451697 
L 54.134976 165.180938 
L 67.030739 176.552251 
L 86.011205 189.691366 
L 94.479988 197.746909 
L 117.93476 214.201795 
L 121.929237 218.182157 
L 149.378486 236.600299 
L 152.677571 238.712224 
L 176.827735 258.06185 
L 184.46373 263.222652 
L 204.276984 280.077641 
L 215.054587 287.733081 
z
" clip-path="url(#p5240b15bc7)" style="fill: #355f8d"/>
    <path d="M 121.929237 293.004689 
L 147.539158 312.24351 
L 149.378486 312.24351 
L 153.373656 312.24351 
L 149.378486 309.608453 
L 121.929237 289.773492 
L 119.056331 287.733081 
L 94.479988 269.637984 
L 83.403484 263.222652 
L 67.030739 252.94696 
L 42.77197 238.712224 
L 39.58149 237.002739 
L 12.132241 216.644903 
L 8.87455 214.201795 
L -15.317008 196.271929 
L -30.973401 189.691366 
L -42.766257 183.275376 
L -65.82262 165.180938 
L -70.215506 162.896856 
L -70.215506 165.180938 
L -70.215506 170.125658 
L -45.579478 189.691366 
L -42.766257 192.600021 
L -15.317008 203.269582 
L 0.827198 214.201795 
L 12.132241 222.010711 
L 35.19609 238.712224 
L 39.58149 243.263406 
L 67.030739 259.314887 
L 73.934878 263.222652 
L 94.479988 274.056539 
L 114.120039 287.733081 
z
M 231.726233 298.101888 
L 249.835441 312.24351 
L 254.738934 312.24351 
L 231.726233 293.254738 
L 226.326193 287.733081 
L 204.276984 269.986753 
L 197.281854 263.222652 
L 176.827735 247.305522 
L 167.56919 238.712224 
L 149.378486 225.01942 
L 136.301835 214.201795 
L 121.929237 203.862113 
L 105.127361 189.691366 
L 94.479988 182.324817 
L 73.535614 165.180938 
L 67.030739 160.865284 
L 41.228179 140.670509 
L 39.58149 139.630368 
L 12.132241 118.005875 
L 10.21111 116.16008 
L -15.317008 96.364779 
L -20.30707 91.649651 
L -42.766257 74.575375 
L -50.93968 67.139223 
L -70.215506 52.872094 
L -70.215506 62.825324 
L -63.525059 67.139223 
L -42.766257 83.801221 
L -31.12436 91.649651 
L -15.317008 105.039474 
L 0.651515 116.16008 
L 12.132241 126.161963 
L 32.114342 140.670509 
L 39.58149 147.593122 
L 63.32121 165.180938 
L 67.030739 168.772653 
L 94.479988 189.688492 
L 94.484643 189.691366 
L 121.929237 210.572775 
L 127.48043 214.201795 
L 149.378486 230.80986 
L 160.702359 238.712224 
L 176.827735 252.683686 
L 191.302211 263.222652 
L 204.276984 275.032197 
L 221.022666 287.733081 
z
" clip-path="url(#p5240b15bc7)" style="fill: #2d708e"/>
    <path d="M 121.929237 296.235885 
L 144.089378 312.24351 
L 147.539158 312.24351 
L 121.929237 293.004689 
L 114.120039 287.733081 
L 94.479988 274.056539 
L 73.934878 263.222652 
L 67.030739 259.314887 
L 39.58149 243.263406 
L 35.19609 238.712224 
L 12.132241 222.010711 
L 0.827198 214.201795 
L -15.317008 203.269582 
L -42.766257 192.600021 
L -45.579478 189.691366 
L -70.215506 170.125658 
L -70.215506 176.397699 
L -52.184034 189.691366 
L -42.766257 198.790564 
L -15.317008 210.267234 
L -8.859609 214.201795 
L 12.132241 227.376519 
L 28.926413 238.712224 
L 39.58149 249.084415 
L 64.077131 263.222652 
L 67.030739 264.918614 
L 94.479988 278.475094 
L 108.613097 287.733081 
z
M 231.726233 293.254738 
L 254.738934 312.24351 
L 259.175482 312.24351 
L 259.193264 312.24351 
L 259.175482 312.231504 
L 231.726233 288.407588 
L 231.098449 287.733081 
L 204.276984 264.941309 
L 202.594509 263.222652 
L 176.827735 241.927358 
L 173.57049 238.712224 
L 149.378486 219.22898 
L 143.743283 214.201795 
L 121.929237 197.15145 
L 113.82275 189.691366 
L 94.479988 174.961142 
L 83.673175 165.180938 
L 67.030739 152.848333 
L 53.18542 140.670509 
L 39.58149 130.897083 
L 22.568597 116.16008 
L 12.132241 108.897709 
L -8.451413 91.649651 
L -15.317008 87.413458 
L -39.831713 67.139223 
L -42.766257 65.231443 
L -70.215506 42.918863 
L -70.215506 52.872094 
L -50.93968 67.139223 
L -42.766257 74.575375 
L -20.30707 91.649651 
L -15.317008 96.364779 
L 10.21111 116.16008 
L 12.132241 118.005875 
L 39.58149 139.630368 
L 41.228179 140.670509 
L 67.030739 160.865284 
L 73.535614 165.180938 
L 94.479988 182.324817 
L 105.127361 189.691366 
L 121.929237 203.862113 
L 136.301835 214.201795 
L 149.378486 225.01942 
L 167.56919 238.712224 
L 176.827735 247.305522 
L 197.281854 263.222652 
L 204.276984 269.986753 
L 226.326193 287.733081 
z
" clip-path="url(#p5240b15bc7)" style="fill: #27808e"/>
    <path d="M 121.929237 299.467082 
L 140.370418 312.24351 
L 144.089378 312.24351 
L 121.929237 296.235885 
L 108.613097 287.733081 
L 94.479988 278.475094 
L 67.030739 264.918614 
L 64.077131 263.222652 
L 39.58149 249.084415 
L 28.926413 238.712224 
L 12.132241 227.376519 
L -8.859609 214.201795 
L -15.317008 210.267234 
L -42.766257 198.790564 
L -52.184034 189.691366 
L -70.215506 176.397699 
L -70.215506 182.669739 
L -59.852723 189.691366 
L -42.766257 204.981108 
L -20.309599 214.201795 
L -15.317008 216.673782 
L 12.132241 232.742328 
L 21.705764 238.712224 
L 39.58149 254.905424 
L 55.455765 263.222652 
L 67.030739 269.308472 
L 94.479988 282.893648 
L 102.38611 287.733081 
z
M 231.726233 288.407588 
L 259.175482 312.231504 
L 259.193264 312.24351 
L 266.62009 312.24351 
L 259.175482 306.804332 
L 238.520783 287.733081 
L 231.726233 282.82255 
L 209.906338 263.222652 
L 204.276984 259.221016 
L 180.619936 238.712224 
L 176.827735 236.086483 
L 150.762319 214.201795 
L 149.378486 213.266053 
L 121.929237 190.440788 
L 121.174397 189.691366 
L 94.479988 167.597467 
L 92.028823 165.180938 
L 67.030739 144.831382 
L 62.73738 140.670509 
L 39.58149 122.163797 
L 33.363895 116.16008 
L 12.132241 99.511056 
L 3.83047 91.649651 
L -15.317008 78.132727 
L -27.040224 67.139223 
L -42.766257 55.396866 
L -56.50994 42.628794 
L -70.215506 32.564896 
L -70.215506 42.628794 
L -70.215506 42.918863 
L -42.766257 65.231443 
L -39.831713 67.139223 
L -15.317008 87.413458 
L -8.451413 91.649651 
L 12.132241 108.897709 
L 22.568597 116.16008 
L 39.58149 130.897083 
L 53.18542 140.670509 
L 67.030739 152.848333 
L 83.673175 165.180938 
L 94.479988 174.961142 
L 113.82275 189.691366 
L 121.929237 197.15145 
L 143.743283 214.201795 
L 149.378486 219.22898 
L 173.57049 238.712224 
L 176.827735 241.927358 
L 202.594509 263.222652 
L 204.276984 264.941309 
L 231.098449 287.733081 
z
" clip-path="url(#p5240b15bc7)" style="fill: #21918c"/>
    <path d="M 121.929237 302.698278 
L 136.336688 312.24351 
L 140.370418 312.24351 
L 121.929237 299.467082 
L 102.38611 287.733081 
L 94.479988 282.893648 
L 67.030739 269.308472 
L 55.455765 263.222652 
L 39.58149 254.905424 
L 21.705764 238.712224 
L 12.132241 232.742328 
L -15.317008 216.673782 
L -20.309599 214.201795 
L -42.766257 204.981108 
L -59.852723 189.691366 
L -70.215506 182.669739 
L -70.215506 188.94178 
L -68.995568 189.691366 
L -42.766257 211.171652 
L -34.165072 214.201795 
L -15.317008 222.32105 
L 12.132241 238.108136 
L 13.19318 238.712224 
L 39.58149 260.726432 
L 44.923877 263.222652 
L 67.030739 273.698329 
L 94.479988 287.312203 
L 95.222054 287.733081 
z
M 259.175482 306.804332 
L 266.62009 312.24351 
L 273.044554 312.24351 
L 259.175482 301.377159 
L 245.36203 287.733081 
L 231.726233 277.118232 
L 217.347221 263.222652 
L 204.276984 253.152089 
L 188.917917 238.712224 
L 176.827735 229.557834 
L 160.127064 214.201795 
L 149.378486 206.167034 
L 131.232509 189.691366 
L 121.929237 182.83679 
L 102.2368 165.180938 
L 94.479988 159.640759 
L 73.051792 140.670509 
L 67.030739 136.450434 
L 43.80704 116.16008 
L 39.58149 113.26823 
L 14.486259 91.649651 
L 12.132241 90.06916 
L -15.317008 68.851996 
L -16.964405 67.139223 
L -42.766257 45.562289 
L -45.591668 42.628794 
L -70.215506 22.198899 
L -70.215506 32.564896 
L -56.50994 42.628794 
L -42.766257 55.396866 
L -27.040224 67.139223 
L -15.317008 78.132727 
L 3.83047 91.649651 
L 12.132241 99.511056 
L 33.363895 116.16008 
L 39.58149 122.163797 
L 62.73738 140.670509 
L 67.030739 144.831382 
L 92.028823 165.180938 
L 94.479988 167.597467 
L 121.174397 189.691366 
L 121.929237 190.440788 
L 149.378486 213.266053 
L 150.762319 214.201795 
L 176.827735 236.086483 
L 180.619936 238.712224 
L 204.276984 259.221016 
L 209.906338 263.222652 
L 231.726233 282.82255 
L 238.520783 287.733081 
z
" clip-path="url(#p5240b15bc7)" style="fill: #1fa188"/>
    <path d="M 94.479988 295.087758 
L 121.929237 305.929475 
L 131.929938 312.24351 
L 136.336688 312.24351 
L 121.929237 302.698278 
L 95.222054 287.733081 
L 94.479988 287.312203 
L 67.030739 273.698329 
L 44.923877 263.222652 
L 39.58149 260.726432 
L 13.19318 238.712224 
L 12.132241 238.108136 
L -15.317008 222.32105 
L -34.165072 214.201795 
L -42.766257 211.171652 
L -68.995568 189.691366 
L -70.215506 188.94178 
L -70.215506 189.691366 
L -70.215506 196.64502 
L -46.832313 214.201795 
L -42.766257 218.898394 
L -15.317008 227.968318 
L 4.9841 238.712224 
L 12.132241 245.833946 
L 35.016101 263.222652 
L 39.58149 268.460177 
L 67.030739 278.088187 
L 87.967633 287.733081 
z
M 259.175482 301.377159 
L 273.044554 312.24351 
L 278.705328 312.24351 
L 259.175482 295.949987 
L 251.343788 287.733081 
L 231.726233 271.413915 
L 223.782195 263.222652 
L 204.276984 247.083162 
L 195.983674 238.712224 
L 176.827735 223.029185 
L 167.951109 214.201795 
L 149.378486 199.068016 
L 139.907769 189.691366 
L 121.929237 175.120486 
L 111.853973 165.180938 
L 94.479988 151.394373 
L 83.563156 140.670509 
L 67.030739 127.67672 
L 55.254145 116.16008 
L 39.58149 104.015722 
L 26.865949 91.649651 
L 12.132241 80.342538 
L -3.097949 67.139223 
L -15.317008 58.015948 
L -31.634828 42.628794 
L -42.766257 34.40922 
L -60.10074 18.118365 
L -70.215506 18.118365 
L -70.215506 22.198899 
L -45.591668 42.628794 
L -42.766257 45.562289 
L -16.964405 67.139223 
L -15.317008 68.851996 
L 12.132241 90.06916 
L 14.486259 91.649651 
L 39.58149 113.26823 
L 43.80704 116.16008 
L 67.030739 136.450434 
L 73.051792 140.670509 
L 94.479988 159.640759 
L 102.2368 165.180938 
L 121.929237 182.83679 
L 131.232509 189.691366 
L 149.378486 206.167034 
L 160.127064 214.201795 
L 176.827735 229.557834 
L 188.917917 238.712224 
L 204.276984 253.152089 
L 217.347221 263.222652 
L 231.726233 277.118232 
L 245.36203 287.733081 
z
" clip-path="url(#p5240b15bc7)" style="fill: #2ab07f"/>
    <path d="M 94.479988 303.216741 
L 121.929237 309.160672 
L 127.07408 312.24351 
L 131.929938 312.24351 
L 121.929237 305.929475 
L 94.479988 295.087758 
L 87.967633 287.733081 
L 67.030739 278.088187 
L 39.58149 268.460177 
L 35.016101 263.222652 
L 12.132241 245.833946 
L 4.9841 238.712224 
L -15.317008 227.968318 
L -42.766257 218.898394 
L -46.832313 214.201795 
L -70.215506 196.64502 
L -70.215506 204.542524 
L -55.968123 214.201795 
L -42.766257 228.098022 
L -15.317008 233.615586 
L -4.609418 238.712224 
L 12.132241 253.859154 
L 25.790305 263.222652 
L 39.58149 277.629985 
L 67.030739 282.478044 
L 79.554588 287.733081 
z
M 259.175482 295.949987 
L 278.705328 312.24351 
L 283.764839 312.24351 
L 259.175482 290.522814 
L 256.658113 287.733081 
L 231.726233 265.709597 
L 229.451125 263.222652 
L 204.276984 241.014235 
L 202.136294 238.712224 
L 176.827735 216.500536 
L 174.670506 214.201795 
L 149.378486 191.968997 
L 147.245034 189.691366 
L 121.929237 167.404182 
L 119.85326 165.180938 
L 94.479988 143.147986 
L 92.170782 140.670509 
L 67.030739 118.903005 
L 64.47831 116.16008 
L 39.58149 94.763213 
L 36.685047 91.649651 
L 12.132241 70.615915 
L 8.569365 67.139223 
L -15.317008 46.827903 
L -19.245595 42.628794 
L -42.766257 22.695689 
L -47.035236 18.118365 
L -60.10074 18.118365 
L -42.766257 34.40922 
L -31.634828 42.628794 
L -15.317008 58.015948 
L -3.097949 67.139223 
L 12.132241 80.342538 
L 26.865949 91.649651 
L 39.58149 104.015722 
L 55.254145 116.16008 
L 67.030739 127.67672 
L 83.563156 140.670509 
L 94.479988 151.394373 
L 111.853973 165.180938 
L 121.929237 175.120486 
L 139.907769 189.691366 
L 149.378486 199.068016 
L 167.951109 214.201795 
L 176.827735 223.029185 
L 195.983674 238.712224 
L 204.276984 247.083162 
L 223.782195 263.222652 
L 231.726233 271.413915 
L 251.343788 287.733081 
z
" clip-path="url(#p5240b15bc7)" style="fill: #44bf70"/>
    <path d="M 94.479988 311.345723 
L 115.369756 312.24351 
L 121.929237 312.24351 
L 127.07408 312.24351 
L 121.929237 309.160672 
L 94.479988 303.216741 
L 79.554588 287.733081 
L 67.030739 282.478044 
L 39.58149 277.629985 
L 25.790305 263.222652 
L 12.132241 253.859154 
L -4.609418 238.712224 
L -15.317008 233.615586 
L -42.766257 228.098022 
L -55.968123 214.201795 
L -70.215506 204.542524 
L -70.215506 212.440027 
L -67.279247 214.201795 
L -42.766257 237.297649 
L -24.192345 238.712224 
L -15.317008 251.846697 
L 12.132241 261.884362 
L 14.340684 263.222652 
L 39.58149 286.799793 
L 67.030739 286.867901 
L 69.332311 287.733081 
z
M 259.175482 290.522814 
L 283.764839 312.24351 
L 286.624731 312.24351 
L 292.963435 312.24351 
L 286.624731 307.477866 
L 267.123638 287.733081 
L 259.175482 281.610646 
L 241.088032 263.222652 
L 231.726233 255.805011 
L 214.976393 238.712224 
L 204.276984 230.27006 
L 188.436866 214.201795 
L 176.827735 204.833005 
L 162.115792 189.691366 
L 149.378486 179.595475 
L 135.509102 165.180938 
L 121.929237 154.335719 
L 108.472096 140.670509 
L 94.479988 129.317001 
L 81.591336 116.16008 
L 67.030739 104.079772 
L 54.825974 91.649651 
L 39.58149 78.74218 
L 28.300029 67.139223 
L 12.132241 53.752609 
L 1.390834 42.628794 
L -15.317008 29.172422 
L -25.96332 18.118365 
L -42.766257 18.118365 
L -47.035236 18.118365 
L -42.766257 22.695689 
L -19.245595 42.628794 
L -15.317008 46.827903 
L 8.569365 67.139223 
L 12.132241 70.615915 
L 36.685047 91.649651 
L 39.58149 94.763213 
L 64.47831 116.16008 
L 67.030739 118.903005 
L 92.170782 140.670509 
L 94.479988 143.147986 
L 119.85326 165.180938 
L 121.929237 167.404182 
L 147.245034 189.691366 
L 149.378486 191.968997 
L 174.670506 214.201795 
L 176.827735 216.500536 
L 202.136294 238.712224 
L 204.276984 241.014235 
L 229.451125 263.222652 
L 231.726233 265.709597 
L 256.658113 287.733081 
z
" clip-path="url(#p5240b15bc7)" style="fill: #67cc5c"/>
    <path d="M 12.132241 304.28892 
L 39.58149 306.625026 
L 50.320315 312.24351 
L 67.030739 312.24351 
L 94.479988 312.24351 
L 115.369756 312.24351 
L 94.479988 311.345723 
L 69.332311 287.733081 
L 67.030739 286.867901 
L 39.58149 286.799793 
L 14.340684 263.222652 
L 12.132241 261.884362 
L -15.317008 251.846697 
L -24.192345 238.712224 
L -42.766257 237.297649 
L -67.279247 214.201795 
L -70.215506 212.440027 
L -70.215506 214.201795 
L -70.215506 238.712224 
L -70.215506 257.454144 
L -58.962374 263.222652 
L -42.766257 279.693868 
L -15.317008 281.922924 
L -4.167327 287.733081 
z
M 286.624731 307.477866 
L 292.963435 312.24351 
L 306.291241 312.24351 
L 286.624731 295.131725 
L 280.215032 287.733081 
L 259.175482 269.012248 
L 254.183676 263.222652 
L 231.726233 242.653728 
L 228.352693 238.712224 
L 204.276984 216.668783 
L 202.16147 214.201795 
L 176.827735 190.372753 
L 176.254645 189.691366 
L 150.693219 165.180938 
L 149.378486 164.162813 
L 126.469853 140.670509 
L 121.929237 137.16329 
L 102.483148 116.16008 
L 94.479988 109.594898 
L 78.846635 91.649651 
L 67.030739 81.245704 
L 55.365684 67.139223 
L 39.58149 53.10937 
L 30.58693 42.628794 
L 12.132241 26.398136 
L 4.740207 18.118365 
L -15.317008 18.118365 
L -25.96332 18.118365 
L -15.317008 29.172422 
L 1.390834 42.628794 
L 12.132241 53.752609 
L 28.300029 67.139223 
L 39.58149 78.74218 
L 54.825974 91.649651 
L 67.030739 104.079772 
L 81.591336 116.16008 
L 94.479988 129.317001 
L 108.472096 140.670509 
L 121.929237 154.335719 
L 135.509102 165.180938 
L 149.378486 179.595475 
L 162.115792 189.691366 
L 176.827735 204.833005 
L 188.436866 214.201795 
L 204.276984 230.27006 
L 214.976393 238.712224 
L 231.726233 255.805011 
L 241.088032 263.222652 
L 259.175482 281.610646 
L 267.123638 287.733081 
z
" clip-path="url(#p5240b15bc7)" style="fill: #90d743"/>
    <path d="M -42.766257 312.24351 
L -15.317008 312.24351 
L 12.132241 312.24351 
L 39.58149 312.24351 
L 50.320315 312.24351 
L 39.58149 306.625026 
L 12.132241 304.28892 
L -4.167327 287.733081 
L -15.317008 281.922924 
L -42.766257 279.693868 
L -58.962374 263.222652 
L -70.215506 257.454144 
L -70.215506 263.222652 
L -70.215506 287.733081 
L -70.215506 312.24351 
z
M 286.624731 295.131725 
L 306.291241 312.24351 
L 314.073981 312.24351 
L 332.088333 312.24351 
L 314.073981 296.797966 
L 307.707613 287.733081 
L 286.624731 268.803548 
L 282.725815 263.222652 
L 259.175482 241.310329 
L 257.393025 238.712224 
L 232.331579 214.201795 
L 231.726233 213.741327 
L 216.697105 189.691366 
L 204.276984 178.870161 
L 195.989486 165.180938 
L 176.827735 147.132554 
L 172.877381 140.670509 
L 149.378486 117.327172 
L 148.584367 116.16008 
L 138.113986 91.649651 
L 149.378486 80.852079 
L 162.704641 91.649651 
L 176.827735 104.718911 
L 190.601228 116.16008 
L 204.276984 129.661413 
L 217.321628 140.670509 
L 231.726233 155.375009 
L 243.253762 165.180938 
L 259.175482 181.802588 
L 268.331278 189.691366 
L 286.624731 209.1497 
L 292.406112 214.201795 
L 314.073981 237.874415 
L 315.033633 238.712224 
L 336.726944 263.222652 
L 341.52323 269.279583 
L 357.534751 287.733081 
L 368.972479 303.744942 
L 375.927561 312.24351 
L 396.421728 312.24351 
L 423.870977 312.24351 
L 451.320226 312.24351 
L 478.769475 312.24351 
L 506.218724 312.24351 
L 533.667973 312.24351 
L 561.117222 312.24351 
L 588.566471 312.24351 
L 616.01572 312.24351 
L 643.464969 312.24351 
L 670.914218 312.24351 
L 698.363467 312.24351 
L 725.812716 312.24351 
L 753.261965 312.24351 
L 780.711214 312.24351 
L 808.160463 312.24351 
L 835.609713 312.24351 
L 863.058962 312.24351 
L 890.508211 312.24351 
L 917.95746 312.24351 
L 945.406709 312.24351 
L 972.855958 312.24351 
L 1000.305207 312.24351 
L 1027.754456 312.24351 
L 1055.203705 312.24351 
L 1082.652954 312.24351 
L 1110.102203 312.24351 
L 1137.551452 312.24351 
L 1137.551452 287.733081 
L 1137.551452 263.222652 
L 1137.551452 238.712224 
L 1137.551452 214.201795 
L 1137.551452 189.691366 
L 1137.551452 165.180938 
L 1137.551452 140.670509 
L 1137.551452 116.16008 
L 1137.551452 91.649651 
L 1137.551452 67.139223 
L 1137.551452 42.628794 
L 1137.551452 18.118365 
L 1110.102203 18.118365 
L 1082.652954 18.118365 
L 1055.203705 18.118365 
L 1027.754456 18.118365 
L 1000.305207 18.118365 
L 972.855958 18.118365 
L 945.406709 18.118365 
L 917.95746 18.118365 
L 890.508211 18.118365 
L 863.058962 18.118365 
L 835.609713 18.118365 
L 808.160463 18.118365 
L 780.711214 18.118365 
L 753.261965 18.118365 
L 725.812716 18.118365 
L 698.363467 18.118365 
L 670.914218 18.118365 
L 643.464969 18.118365 
L 616.01572 18.118365 
L 588.566471 18.118365 
L 561.117222 18.118365 
L 533.667973 18.118365 
L 506.218724 18.118365 
L 478.769475 18.118365 
L 451.320226 18.118365 
L 423.870977 18.118365 
L 396.421728 18.118365 
L 368.972479 18.118365 
L 341.52323 18.118365 
L 314.073981 18.118365 
L 286.624731 18.118365 
L 259.175482 18.118365 
L 231.726233 18.118365 
L 204.276984 18.118365 
L 176.827735 18.118365 
L 149.378486 18.118365 
L 121.929237 18.118365 
L 94.479988 18.118365 
L 67.030739 18.118365 
L 39.58149 18.118365 
L 12.132241 18.118365 
L 4.740207 18.118365 
L 12.132241 26.398136 
L 30.58693 42.628794 
L 39.58149 53.10937 
L 55.365684 67.139223 
L 67.030739 81.245704 
L 78.846635 91.649651 
L 94.479988 109.594898 
L 102.483148 116.16008 
L 121.929237 137.16329 
L 126.469853 140.670509 
L 149.378486 164.162813 
L 150.693219 165.180938 
L 176.254645 189.691366 
L 176.827735 190.372753 
L 202.16147 214.201795 
L 204.276984 216.668783 
L 228.352693 238.712224 
L 231.726233 242.653728 
L 254.183676 263.222652 
L 259.175482 269.012248 
L 280.215032 287.733081 
z
M 118.144558 67.139223 
L 121.929237 58.904438 
L 132.608428 67.139223 
L 121.929237 75.935521 
z
M 94.369407 42.628794 
L 94.479988 42.110026 
L 95.258393 42.628794 
L 94.479988 42.847803 
z
" clip-path="url(#p5240b15bc7)" style="fill: #bddf26"/>
    <path d="M 314.073981 296.797966 
L 332.088333 312.24351 
L 341.52323 312.24351 
L 368.972479 312.24351 
L 375.927561 312.24351 
L 368.972479 303.744942 
L 357.534751 287.733081 
L 341.52323 269.279583 
L 336.726944 263.222652 
L 315.033633 238.712224 
L 314.073981 237.874415 
L 292.406112 214.201795 
L 286.624731 209.1497 
L 268.331278 189.691366 
L 259.175482 181.802588 
L 243.253762 165.180938 
L 231.726233 155.375009 
L 217.321628 140.670509 
L 204.276984 129.661413 
L 190.601228 116.16008 
L 176.827735 104.718911 
L 162.704641 91.649651 
L 149.378486 80.852079 
L 138.113986 91.649651 
L 148.584367 116.16008 
L 149.378486 117.327172 
L 172.877381 140.670509 
L 176.827735 147.132554 
L 195.989486 165.180938 
L 204.276984 178.870161 
L 216.697105 189.691366 
L 231.726233 213.741327 
L 232.331579 214.201795 
L 257.393025 238.712224 
L 259.175482 241.310329 
L 282.725815 263.222652 
L 286.624731 268.803548 
L 307.707613 287.733081 
z
M 121.929237 75.935521 
L 132.608428 67.139223 
L 121.929237 58.904438 
L 118.144558 67.139223 
z
M 94.479988 42.847803 
L 95.258393 42.628794 
L 94.479988 42.110026 
L 94.369407 42.628794 
z
" clip-path="url(#p5240b15bc7)" style="fill: #eae51a"/>
   </g>
   <g id="PathCollection_1">
    <defs>
     <path id="m4d1a935b83" d="M -3 3 
L 3 -3 
M -3 -3 
L 3 3 
" style="stroke: #ff0000; stroke-width: 1.5"/>
    </defs>
    <g clip-path="url(#p5240b15bc7)">
     <use xlink:href="#m4d1a935b83" x="341.52323" y="312.24351" style="fill: #ff0000; stroke: #ff0000; stroke-width: 1.5"/>
     <use xlink:href="#m4d1a935b83" x="314.073981" y="287.733081" style="fill: #ff0000; stroke: #ff0000; stroke-width: 1.5"/>
     <use xlink:href="#m4d1a935b83" x="314.073981" y="263.222652" style="fill: #ff0000; stroke: #ff0000; stroke-width: 1.5"/>
     <use xlink:href="#m4d1a935b83" x="286.624731" y="238.712224" style="fill: #ff0000; stroke: #ff0000; stroke-width: 1.5"/>
     <use xlink:href="#m4d1a935b83" x="259.175482" y="214.201795" style="fill: #ff0000; stroke: #ff0000; stroke-width: 1.5"/>
     <use xlink:href="#m4d1a935b83" x="231.726233" y="189.691366" style="fill: #ff0000; stroke: #ff0000; stroke-width: 1.5"/>
     <use xlink:href="#m4d1a935b83" x="204.276984" y="165.180938" style="fill: #ff0000; stroke: #ff0000; stroke-width: 1.5"/>
     <use xlink:href="#m4d1a935b83" x="176.827735" y="140.670509" style="fill: #ff0000; stroke: #ff0000; stroke-width: 1.5"/>
     <use xlink:href="#m4d1a935b83" x="176.827735" y="116.16008" style="fill: #ff0000; stroke: #ff0000; stroke-width: 1.5"/>
     <use xlink:href="#m4d1a935b83" x="149.378486" y="91.649651" style="fill: #ff0000; stroke: #ff0000; stroke-width: 1.5"/>
     <use xlink:href="#m4d1a935b83" x="121.929237" y="67.139223" style="fill: #ff0000; stroke: #ff0000; stroke-width: 1.5"/>
     <use xlink:href="#m4d1a935b83" x="94.479988" y="42.628794" style="fill: #ff0000; stroke: #ff0000; stroke-width: 1.5"/>
     <use xlink:href="#m4d1a935b83" x="67.030739" y="18.118365" style="fill: #ff0000; stroke: #ff0000; stroke-width: 1.5"/>
    </g>
   </g>
   <g id="matplotlib.axis_1">
    <g id="xtick_1">
     <g id="line2d_1">
      <defs>
       <path id="mb70d57174b" d="M 0 0 
L 0 3.5 
" style="stroke: #000000; stroke-width: 0.8"/>
      </defs>
      <g>
       <use xlink:href="#mb70d57174b" x="39.58149" y="312.24351" style="stroke: #000000; stroke-width: 0.8"/>
      </g>
     </g>
     <g id="text_1">
      <!-- $\mathdefault{10^{-4}}$ -->
      <g transform="translate(27.83149 326.841947) scale(0.1 -0.1)">
       <defs>
        <path id="DejaVuSans-31" d="M 794 531 
L 1825 531 
L 1825 4091 
L 703 3866 
L 703 4441 
L 1819 4666 
L 2450 4666 
L 2450 531 
L 3481 531 
L 3481 0 
L 794 0 
L 794 531 
z
" transform="scale(0.015625)"/>
        <path id="DejaVuSans-30" d="M 2034 4250 
Q 1547 4250 1301 3770 
Q 1056 3291 1056 2328 
Q 1056 1369 1301 889 
Q 1547 409 2034 409 
Q 2525 409 2770 889 
Q 3016 1369 3016 2328 
Q 3016 3291 2770 3770 
Q 2525 4250 2034 4250 
z
M 2034 4750 
Q 2819 4750 3233 4129 
Q 3647 3509 3647 2328 
Q 3647 1150 3233 529 
Q 2819 -91 2034 -91 
Q 1250 -91 836 529 
Q 422 1150 422 2328 
Q 422 3509 836 4129 
Q 1250 4750 2034 4750 
z
" transform="scale(0.015625)"/>
        <path id="DejaVuSans-2212" d="M 678 2272 
L 4684 2272 
L 4684 1741 
L 678 1741 
L 678 2272 
z
" transform="scale(0.015625)"/>
        <path id="DejaVuSans-34" d="M 2419 4116 
L 825 1625 
L 2419 1625 
L 2419 4116 
z
M 2253 4666 
L 3047 4666 
L 3047 1625 
L 3713 1625 
L 3713 1100 
L 3047 1100 
L 3047 0 
L 2419 0 
L 2419 1100 
L 313 1100 
L 313 1709 
L 2253 4666 
z
" transform="scale(0.015625)"/>
       </defs>
       <use xlink:href="#DejaVuSans-31" transform="translate(0 0.684375)"/>
       <use xlink:href="#DejaVuSans-30" transform="translate(63.623047 0.684375)"/>
       <use xlink:href="#DejaVuSans-2212" transform="translate(128.203125 38.965625) scale(0.7)"/>
       <use xlink:href="#DejaVuSans-34" transform="translate(186.855469 38.965625) scale(0.7)"/>
      </g>
     </g>
    </g>
    <g id="xtick_2">
     <g id="line2d_2">
      <g>
       <use xlink:href="#mb70d57174b" x="149.378486" y="312.24351" style="stroke: #000000; stroke-width: 0.8"/>
      </g>
     </g>
     <g id="text_2">
      <!-- $\mathdefault{10^{-3}}$ -->
      <g transform="translate(137.628486 326.841947) scale(0.1 -0.1)">
       <defs>
        <path id="DejaVuSans-33" d="M 2597 2516 
Q 3050 2419 3304 2112 
Q 3559 1806 3559 1356 
Q 3559 666 3084 287 
Q 2609 -91 1734 -91 
Q 1441 -91 1130 -33 
Q 819 25 488 141 
L 488 750 
Q 750 597 1062 519 
Q 1375 441 1716 441 
Q 2309 441 2620 675 
Q 2931 909 2931 1356 
Q 2931 1769 2642 2001 
Q 2353 2234 1838 2234 
L 1294 2234 
L 1294 2753 
L 1863 2753 
Q 2328 2753 2575 2939 
Q 2822 3125 2822 3475 
Q 2822 3834 2567 4026 
Q 2313 4219 1838 4219 
Q 1578 4219 1281 4162 
Q 984 4106 628 3988 
L 628 4550 
Q 988 4650 1302 4700 
Q 1616 4750 1894 4750 
Q 2613 4750 3031 4423 
Q 3450 4097 3450 3541 
Q 3450 3153 3228 2886 
Q 3006 2619 2597 2516 
z
" transform="scale(0.015625)"/>
       </defs>
       <use xlink:href="#DejaVuSans-31" transform="translate(0 0.765625)"/>
       <use xlink:href="#DejaVuSans-30" transform="translate(63.623047 0.765625)"/>
       <use xlink:href="#DejaVuSans-2212" transform="translate(128.203125 39.046875) scale(0.7)"/>
       <use xlink:href="#DejaVuSans-33" transform="translate(186.855469 39.046875) scale(0.7)"/>
      </g>
     </g>
    </g>
    <g id="xtick_3">
     <g id="line2d_3">
      <g>
       <use xlink:href="#mb70d57174b" x="259.175482" y="312.24351" style="stroke: #000000; stroke-width: 0.8"/>
      </g>
     </g>
     <g id="text_3">
      <!-- $\mathdefault{10^{-2}}$ -->
      <g transform="translate(247.425482 326.841947) scale(0.1 -0.1)">
       <defs>
        <path id="DejaVuSans-32" d="M 1228 531 
L 3431 531 
L 3431 0 
L 469 0 
L 469 531 
Q 828 903 1448 1529 
Q 2069 2156 2228 2338 
Q 2531 2678 2651 2914 
Q 2772 3150 2772 3378 
Q 2772 3750 2511 3984 
Q 2250 4219 1831 4219 
Q 1534 4219 1204 4116 
Q 875 4013 500 3803 
L 500 4441 
Q 881 4594 1212 4672 
Q 1544 4750 1819 4750 
Q 2544 4750 2975 4387 
Q 3406 4025 3406 3419 
Q 3406 3131 3298 2873 
Q 3191 2616 2906 2266 
Q 2828 2175 2409 1742 
Q 1991 1309 1228 531 
z
" transform="scale(0.015625)"/>
       </defs>
       <use xlink:href="#DejaVuSans-31" transform="translate(0 0.765625)"/>
       <use xlink:href="#DejaVuSans-30" transform="translate(63.623047 0.765625)"/>
       <use xlink:href="#DejaVuSans-2212" transform="translate(128.203125 39.046875) scale(0.7)"/>
       <use xlink:href="#DejaVuSans-32" transform="translate(186.855469 39.046875) scale(0.7)"/>
      </g>
     </g>
    </g>
    <g id="xtick_4">
     <g id="line2d_4">
      <g>
       <use xlink:href="#mb70d57174b" x="368.972479" y="312.24351" style="stroke: #000000; stroke-width: 0.8"/>
      </g>
     </g>
     <g id="text_4">
      <!-- $\mathdefault{10^{-1}}$ -->
      <g transform="translate(357.222479 326.841947) scale(0.1 -0.1)">
       <use xlink:href="#DejaVuSans-31" transform="translate(0 0.684375)"/>
       <use xlink:href="#DejaVuSans-30" transform="translate(63.623047 0.684375)"/>
       <use xlink:href="#DejaVuSans-2212" transform="translate(128.203125 38.965625) scale(0.7)"/>
       <use xlink:href="#DejaVuSans-31" transform="translate(186.855469 38.965625) scale(0.7)"/>
      </g>
     </g>
    </g>
    <g id="xtick_5">
     <g id="line2d_5">
      <defs>
       <path id="m4dbd06f8f7" d="M 0 0 
L 0 2 
" style="stroke: #000000; stroke-width: 0.6"/>
      </defs>
      <g>
       <use xlink:href="#m4dbd06f8f7" x="72.633679" y="312.24351" style="stroke: #000000; stroke-width: 0.6"/>
      </g>
     </g>
    </g>
    <g id="xtick_6">
     <g id="line2d_6">
      <g>
       <use xlink:href="#m4dbd06f8f7" x="91.967971" y="312.24351" style="stroke: #000000; stroke-width: 0.6"/>
      </g>
     </g>
    </g>
    <g id="xtick_7">
     <g id="line2d_7">
      <g>
       <use xlink:href="#m4dbd06f8f7" x="105.685869" y="312.24351" style="stroke: #000000; stroke-width: 0.6"/>
      </g>
     </g>
    </g>
    <g id="xtick_8">
     <g id="line2d_8">
      <g>
       <use xlink:href="#m4dbd06f8f7" x="116.326297" y="312.24351" style="stroke: #000000; stroke-width: 0.6"/>
      </g>
     </g>
    </g>
    <g id="xtick_9">
     <g id="line2d_9">
      <g>
       <use xlink:href="#m4dbd06f8f7" x="125.02016" y="312.24351" style="stroke: #000000; stroke-width: 0.6"/>
      </g>
     </g>
    </g>
    <g id="xtick_10">
     <g id="line2d_10">
      <g>
       <use xlink:href="#m4dbd06f8f7" x="132.370716" y="312.24351" style="stroke: #000000; stroke-width: 0.6"/>
      </g>
     </g>
    </g>
    <g id="xtick_11">
     <g id="line2d_11">
      <g>
       <use xlink:href="#m4dbd06f8f7" x="138.738058" y="312.24351" style="stroke: #000000; stroke-width: 0.6"/>
      </g>
     </g>
    </g>
    <g id="xtick_12">
     <g id="line2d_12">
      <g>
       <use xlink:href="#m4dbd06f8f7" x="144.354451" y="312.24351" style="stroke: #000000; stroke-width: 0.6"/>
      </g>
     </g>
    </g>
    <g id="xtick_13">
     <g id="line2d_13">
      <g>
       <use xlink:href="#m4dbd06f8f7" x="182.430676" y="312.24351" style="stroke: #000000; stroke-width: 0.6"/>
      </g>
     </g>
    </g>
    <g id="xtick_14">
     <g id="line2d_14">
      <g>
       <use xlink:href="#m4dbd06f8f7" x="201.764967" y="312.24351" style="stroke: #000000; stroke-width: 0.6"/>
      </g>
     </g>
    </g>
    <g id="xtick_15">
     <g id="line2d_15">
      <g>
       <use xlink:href="#m4dbd06f8f7" x="215.482865" y="312.24351" style="stroke: #000000; stroke-width: 0.6"/>
      </g>
     </g>
    </g>
    <g id="xtick_16">
     <g id="line2d_16">
      <g>
       <use xlink:href="#m4dbd06f8f7" x="226.123293" y="312.24351" style="stroke: #000000; stroke-width: 0.6"/>
      </g>
     </g>
    </g>
    <g id="xtick_17">
     <g id="line2d_17">
      <g>
       <use xlink:href="#m4dbd06f8f7" x="234.817156" y="312.24351" style="stroke: #000000; stroke-width: 0.6"/>
      </g>
     </g>
    </g>
    <g id="xtick_18">
     <g id="line2d_18">
      <g>
       <use xlink:href="#m4dbd06f8f7" x="242.167713" y="312.24351" style="stroke: #000000; stroke-width: 0.6"/>
      </g>
     </g>
    </g>
    <g id="xtick_19">
     <g id="line2d_19">
      <g>
       <use xlink:href="#m4dbd06f8f7" x="248.535054" y="312.24351" style="stroke: #000000; stroke-width: 0.6"/>
      </g>
     </g>
    </g>
    <g id="xtick_20">
     <g id="line2d_20">
      <g>
       <use xlink:href="#m4dbd06f8f7" x="254.151447" y="312.24351" style="stroke: #000000; stroke-width: 0.6"/>
      </g>
     </g>
    </g>
    <g id="xtick_21">
     <g id="line2d_21">
      <g>
       <use xlink:href="#m4dbd06f8f7" x="292.227672" y="312.24351" style="stroke: #000000; stroke-width: 0.6"/>
      </g>
     </g>
    </g>
    <g id="xtick_22">
     <g id="line2d_22">
      <g>
       <use xlink:href="#m4dbd06f8f7" x="311.561963" y="312.24351" style="stroke: #000000; stroke-width: 0.6"/>
      </g>
     </g>
    </g>
    <g id="xtick_23">
     <g id="line2d_23">
      <g>
       <use xlink:href="#m4dbd06f8f7" x="325.279861" y="312.24351" style="stroke: #000000; stroke-width: 0.6"/>
      </g>
     </g>
    </g>
    <g id="xtick_24">
     <g id="line2d_24">
      <g>
       <use xlink:href="#m4dbd06f8f7" x="335.920289" y="312.24351" style="stroke: #000000; stroke-width: 0.6"/>
      </g>
     </g>
    </g>
    <g id="xtick_25">
     <g id="line2d_25">
      <g>
       <use xlink:href="#m4dbd06f8f7" x="344.614152" y="312.24351" style="stroke: #000000; stroke-width: 0.6"/>
      </g>
     </g>
    </g>
    <g id="xtick_26">
     <g id="line2d_26">
      <g>
       <use xlink:href="#m4dbd06f8f7" x="351.964709" y="312.24351" style="stroke: #000000; stroke-width: 0.6"/>
      </g>
     </g>
    </g>
    <g id="xtick_27">
     <g id="line2d_27">
      <g>
       <use xlink:href="#m4dbd06f8f7" x="358.33205" y="312.24351" style="stroke: #000000; stroke-width: 0.6"/>
      </g>
     </g>
    </g>
    <g id="xtick_28">
     <g id="line2d_28">
      <g>
       <use xlink:href="#m4dbd06f8f7" x="363.948444" y="312.24351" style="stroke: #000000; stroke-width: 0.6"/>
      </g>
     </g>
    </g>
    <g id="text_5">
     <!-- bandwidth -->
     <g transform="translate(177.914484 340.520072) scale(0.1 -0.1)">
      <defs>
       <path id="DejaVuSans-62" d="M 3116 1747 
Q 3116 2381 2855 2742 
Q 2594 3103 2138 3103 
Q 1681 3103 1420 2742 
Q 1159 2381 1159 1747 
Q 1159 1113 1420 752 
Q 1681 391 2138 391 
Q 2594 391 2855 752 
Q 3116 1113 3116 1747 
z
M 1159 2969 
Q 1341 3281 1617 3432 
Q 1894 3584 2278 3584 
Q 2916 3584 3314 3078 
Q 3713 2572 3713 1747 
Q 3713 922 3314 415 
Q 2916 -91 2278 -91 
Q 1894 -91 1617 61 
Q 1341 213 1159 525 
L 1159 0 
L 581 0 
L 581 4863 
L 1159 4863 
L 1159 2969 
z
" transform="scale(0.015625)"/>
       <path id="DejaVuSans-61" d="M 2194 1759 
Q 1497 1759 1228 1600 
Q 959 1441 959 1056 
Q 959 750 1161 570 
Q 1363 391 1709 391 
Q 2188 391 2477 730 
Q 2766 1069 2766 1631 
L 2766 1759 
L 2194 1759 
z
M 3341 1997 
L 3341 0 
L 2766 0 
L 2766 531 
Q 2569 213 2275 61 
Q 1981 -91 1556 -91 
Q 1019 -91 701 211 
Q 384 513 384 1019 
Q 384 1609 779 1909 
Q 1175 2209 1959 2209 
L 2766 2209 
L 2766 2266 
Q 2766 2663 2505 2880 
Q 2244 3097 1772 3097 
Q 1472 3097 1187 3025 
Q 903 2953 641 2809 
L 641 3341 
Q 956 3463 1253 3523 
Q 1550 3584 1831 3584 
Q 2591 3584 2966 3190 
Q 3341 2797 3341 1997 
z
" transform="scale(0.015625)"/>
       <path id="DejaVuSans-6e" d="M 3513 2113 
L 3513 0 
L 2938 0 
L 2938 2094 
Q 2938 2591 2744 2837 
Q 2550 3084 2163 3084 
Q 1697 3084 1428 2787 
Q 1159 2491 1159 1978 
L 1159 0 
L 581 0 
L 581 3500 
L 1159 3500 
L 1159 2956 
Q 1366 3272 1645 3428 
Q 1925 3584 2291 3584 
Q 2894 3584 3203 3211 
Q 3513 2838 3513 2113 
z
" transform="scale(0.015625)"/>
       <path id="DejaVuSans-64" d="M 2906 2969 
L 2906 4863 
L 3481 4863 
L 3481 0 
L 2906 0 
L 2906 525 
Q 2725 213 2448 61 
Q 2172 -91 1784 -91 
Q 1150 -91 751 415 
Q 353 922 353 1747 
Q 353 2572 751 3078 
Q 1150 3584 1784 3584 
Q 2172 3584 2448 3432 
Q 2725 3281 2906 2969 
z
M 947 1747 
Q 947 1113 1208 752 
Q 1469 391 1925 391 
Q 2381 391 2643 752 
Q 2906 1113 2906 1747 
Q 2906 2381 2643 2742 
Q 2381 3103 1925 3103 
Q 1469 3103 1208 2742 
Q 947 2381 947 1747 
z
" transform="scale(0.015625)"/>
       <path id="DejaVuSans-77" d="M 269 3500 
L 844 3500 
L 1563 769 
L 2278 3500 
L 2956 3500 
L 3675 769 
L 4391 3500 
L 4966 3500 
L 4050 0 
L 3372 0 
L 2619 2869 
L 1863 0 
L 1184 0 
L 269 3500 
z
" transform="scale(0.015625)"/>
       <path id="DejaVuSans-69" d="M 603 3500 
L 1178 3500 
L 1178 0 
L 603 0 
L 603 3500 
z
M 603 4863 
L 1178 4863 
L 1178 4134 
L 603 4134 
L 603 4863 
z
" transform="scale(0.015625)"/>
       <path id="DejaVuSans-74" d="M 1172 4494 
L 1172 3500 
L 2356 3500 
L 2356 3053 
L 1172 3053 
L 1172 1153 
Q 1172 725 1289 603 
Q 1406 481 1766 481 
L 2356 481 
L 2356 0 
L 1766 0 
Q 1100 0 847 248 
Q 594 497 594 1153 
L 594 3053 
L 172 3053 
L 172 3500 
L 594 3500 
L 594 4494 
L 1172 4494 
z
" transform="scale(0.015625)"/>
       <path id="DejaVuSans-68" d="M 3513 2113 
L 3513 0 
L 2938 0 
L 2938 2094 
Q 2938 2591 2744 2837 
Q 2550 3084 2163 3084 
Q 1697 3084 1428 2787 
Q 1159 2491 1159 1978 
L 1159 0 
L 581 0 
L 581 4863 
L 1159 4863 
L 1159 2956 
Q 1366 3272 1645 3428 
Q 1925 3584 2291 3584 
Q 2894 3584 3203 3211 
Q 3513 2838 3513 2113 
z
" transform="scale(0.015625)"/>
      </defs>
      <use xlink:href="#DejaVuSans-62"/>
      <use xlink:href="#DejaVuSans-61" transform="translate(63.476562 0)"/>
      <use xlink:href="#DejaVuSans-6e" transform="translate(124.755859 0)"/>
      <use xlink:href="#DejaVuSans-64" transform="translate(188.134766 0)"/>
      <use xlink:href="#DejaVuSans-77" transform="translate(251.611328 0)"/>
      <use xlink:href="#DejaVuSans-69" transform="translate(333.398438 0)"/>
      <use xlink:href="#DejaVuSans-64" transform="translate(361.181641 0)"/>
      <use xlink:href="#DejaVuSans-74" transform="translate(424.658203 0)"/>
      <use xlink:href="#DejaVuSans-68" transform="translate(463.867188 0)"/>
     </g>
    </g>
   </g>
   <g id="matplotlib.axis_2">
    <g id="ytick_1">
     <g id="line2d_29">
      <defs>
       <path id="m44f0f14330" d="M 0 0 
L -3.5 0 
" style="stroke: #000000; stroke-width: 0.8"/>
      </defs>
      <g>
       <use xlink:href="#m44f0f14330" x="39.58149" y="312.24351" style="stroke: #000000; stroke-width: 0.8"/>
      </g>
     </g>
     <g id="text_6">
      <!-- 1.0 -->
      <g transform="translate(16.678365 316.042729) scale(0.1 -0.1)">
       <defs>
        <path id="DejaVuSans-2e" d="M 684 794 
L 1344 794 
L 1344 0 
L 684 0 
L 684 794 
z
" transform="scale(0.015625)"/>
       </defs>
       <use xlink:href="#DejaVuSans-31"/>
       <use xlink:href="#DejaVuSans-2e" transform="translate(63.623047 0)"/>
       <use xlink:href="#DejaVuSans-30" transform="translate(95.410156 0)"/>
      </g>
     </g>
    </g>
    <g id="ytick_2">
     <g id="line2d_30">
      <g>
       <use xlink:href="#m44f0f14330" x="39.58149" y="263.222652" style="stroke: #000000; stroke-width: 0.8"/>
      </g>
     </g>
     <g id="text_7">
      <!-- 1.5 -->
      <g transform="translate(16.678365 267.021871) scale(0.1 -0.1)">
       <defs>
        <path id="DejaVuSans-35" d="M 691 4666 
L 3169 4666 
L 3169 4134 
L 1269 4134 
L 1269 2991 
Q 1406 3038 1543 3061 
Q 1681 3084 1819 3084 
Q 2600 3084 3056 2656 
Q 3513 2228 3513 1497 
Q 3513 744 3044 326 
Q 2575 -91 1722 -91 
Q 1428 -91 1123 -41 
Q 819 9 494 109 
L 494 744 
Q 775 591 1075 516 
Q 1375 441 1709 441 
Q 2250 441 2565 725 
Q 2881 1009 2881 1497 
Q 2881 1984 2565 2268 
Q 2250 2553 1709 2553 
Q 1456 2553 1204 2497 
Q 953 2441 691 2322 
L 691 4666 
z
" transform="scale(0.015625)"/>
       </defs>
       <use xlink:href="#DejaVuSans-31"/>
       <use xlink:href="#DejaVuSans-2e" transform="translate(63.623047 0)"/>
       <use xlink:href="#DejaVuSans-35" transform="translate(95.410156 0)"/>
      </g>
     </g>
    </g>
    <g id="ytick_3">
     <g id="line2d_31">
      <g>
       <use xlink:href="#m44f0f14330" x="39.58149" y="214.201795" style="stroke: #000000; stroke-width: 0.8"/>
      </g>
     </g>
     <g id="text_8">
      <!-- 2.0 -->
      <g transform="translate(16.678365 218.001014) scale(0.1 -0.1)">
       <use xlink:href="#DejaVuSans-32"/>
       <use xlink:href="#DejaVuSans-2e" transform="translate(63.623047 0)"/>
       <use xlink:href="#DejaVuSans-30" transform="translate(95.410156 0)"/>
      </g>
     </g>
    </g>
    <g id="ytick_4">
     <g id="line2d_32">
      <g>
       <use xlink:href="#m44f0f14330" x="39.58149" y="165.180938" style="stroke: #000000; stroke-width: 0.8"/>
      </g>
     </g>
     <g id="text_9">
      <!-- 2.5 -->
      <g transform="translate(16.678365 168.980156) scale(0.1 -0.1)">
       <use xlink:href="#DejaVuSans-32"/>
       <use xlink:href="#DejaVuSans-2e" transform="translate(63.623047 0)"/>
       <use xlink:href="#DejaVuSans-35" transform="translate(95.410156 0)"/>
      </g>
     </g>
    </g>
    <g id="ytick_5">
     <g id="line2d_33">
      <g>
       <use xlink:href="#m44f0f14330" x="39.58149" y="116.16008" style="stroke: #000000; stroke-width: 0.8"/>
      </g>
     </g>
     <g id="text_10">
      <!-- 3.0 -->
      <g transform="translate(16.678365 119.959299) scale(0.1 -0.1)">
       <use xlink:href="#DejaVuSans-33"/>
       <use xlink:href="#DejaVuSans-2e" transform="translate(63.623047 0)"/>
       <use xlink:href="#DejaVuSans-30" transform="translate(95.410156 0)"/>
      </g>
     </g>
    </g>
    <g id="ytick_6">
     <g id="line2d_34">
      <g>
       <use xlink:href="#m44f0f14330" x="39.58149" y="67.139223" style="stroke: #000000; stroke-width: 0.8"/>
      </g>
     </g>
     <g id="text_11">
      <!-- 3.5 -->
      <g transform="translate(16.678365 70.938441) scale(0.1 -0.1)">
       <use xlink:href="#DejaVuSans-33"/>
       <use xlink:href="#DejaVuSans-2e" transform="translate(63.623047 0)"/>
       <use xlink:href="#DejaVuSans-35" transform="translate(95.410156 0)"/>
      </g>
     </g>
    </g>
    <g id="ytick_7">
     <g id="line2d_35">
      <g>
       <use xlink:href="#m44f0f14330" x="39.58149" y="18.118365" style="stroke: #000000; stroke-width: 0.8"/>
      </g>
     </g>
     <g id="text_12">
      <!-- 4.0 -->
      <g transform="translate(16.678365 21.917584) scale(0.1 -0.1)">
       <use xlink:href="#DejaVuSans-34"/>
       <use xlink:href="#DejaVuSans-2e" transform="translate(63.623047 0)"/>
       <use xlink:href="#DejaVuSans-30" transform="translate(95.410156 0)"/>
      </g>
     </g>
    </g>
    <g id="text_13">
     <!-- alpha -->
     <g transform="translate(10.598677 179.041094) rotate(-90) scale(0.1 -0.1)">
      <defs>
       <path id="DejaVuSans-6c" d="M 603 4863 
L 1178 4863 
L 1178 0 
L 603 0 
L 603 4863 
z
" transform="scale(0.015625)"/>
       <path id="DejaVuSans-70" d="M 1159 525 
L 1159 -1331 
L 581 -1331 
L 581 3500 
L 1159 3500 
L 1159 2969 
Q 1341 3281 1617 3432 
Q 1894 3584 2278 3584 
Q 2916 3584 3314 3078 
Q 3713 2572 3713 1747 
Q 3713 922 3314 415 
Q 2916 -91 2278 -91 
Q 1894 -91 1617 61 
Q 1341 213 1159 525 
z
M 3116 1747 
Q 3116 2381 2855 2742 
Q 2594 3103 2138 3103 
Q 1681 3103 1420 2742 
Q 1159 2381 1159 1747 
Q 1159 1113 1420 752 
Q 1681 391 2138 391 
Q 2594 391 2855 752 
Q 3116 1113 3116 1747 
z
" transform="scale(0.015625)"/>
      </defs>
      <use xlink:href="#DejaVuSans-61"/>
      <use xlink:href="#DejaVuSans-6c" transform="translate(61.279297 0)"/>
      <use xlink:href="#DejaVuSans-70" transform="translate(89.0625 0)"/>
      <use xlink:href="#DejaVuSans-68" transform="translate(152.539062 0)"/>
      <use xlink:href="#DejaVuSans-61" transform="translate(215.917969 0)"/>
     </g>
    </g>
   </g>
   <g id="patch_3">
    <path d="M 39.58149 312.24351 
L 39.58149 18.118365 
" style="fill: none; stroke: #000000; stroke-width: 0.8; stroke-linejoin: miter; stroke-linecap: square"/>
   </g>
   <g id="patch_4">
    <path d="M 368.972479 312.24351 
L 368.972479 18.118365 
" style="fill: none; stroke: #000000; stroke-width: 0.8; stroke-linejoin: miter; stroke-linecap: square"/>
   </g>
   <g id="patch_5">
    <path d="M 39.58149 312.24351 
L 368.972479 312.24351 
" style="fill: none; stroke: #000000; stroke-width: 0.8; stroke-linejoin: miter; stroke-linecap: square"/>
   </g>
   <g id="patch_6">
    <path d="M 39.58149 18.118365 
L 368.972479 18.118365 
" style="fill: none; stroke: #000000; stroke-width: 0.8; stroke-linejoin: miter; stroke-linecap: square"/>
   </g>
   <g id="text_14">
    <!-- circulos_lo 8527 fkdc -->
    <g transform="translate(141.297609 12.118365) scale(0.12 -0.12)">
     <defs>
      <path id="DejaVuSans-63" d="M 3122 3366 
L 3122 2828 
Q 2878 2963 2633 3030 
Q 2388 3097 2138 3097 
Q 1578 3097 1268 2742 
Q 959 2388 959 1747 
Q 959 1106 1268 751 
Q 1578 397 2138 397 
Q 2388 397 2633 464 
Q 2878 531 3122 666 
L 3122 134 
Q 2881 22 2623 -34 
Q 2366 -91 2075 -91 
Q 1284 -91 818 406 
Q 353 903 353 1747 
Q 353 2603 823 3093 
Q 1294 3584 2113 3584 
Q 2378 3584 2631 3529 
Q 2884 3475 3122 3366 
z
" transform="scale(0.015625)"/>
      <path id="DejaVuSans-72" d="M 2631 2963 
Q 2534 3019 2420 3045 
Q 2306 3072 2169 3072 
Q 1681 3072 1420 2755 
Q 1159 2438 1159 1844 
L 1159 0 
L 581 0 
L 581 3500 
L 1159 3500 
L 1159 2956 
Q 1341 3275 1631 3429 
Q 1922 3584 2338 3584 
Q 2397 3584 2469 3576 
Q 2541 3569 2628 3553 
L 2631 2963 
z
" transform="scale(0.015625)"/>
      <path id="DejaVuSans-75" d="M 544 1381 
L 544 3500 
L 1119 3500 
L 1119 1403 
Q 1119 906 1312 657 
Q 1506 409 1894 409 
Q 2359 409 2629 706 
Q 2900 1003 2900 1516 
L 2900 3500 
L 3475 3500 
L 3475 0 
L 2900 0 
L 2900 538 
Q 2691 219 2414 64 
Q 2138 -91 1772 -91 
Q 1169 -91 856 284 
Q 544 659 544 1381 
z
M 1991 3584 
L 1991 3584 
z
" transform="scale(0.015625)"/>
      <path id="DejaVuSans-6f" d="M 1959 3097 
Q 1497 3097 1228 2736 
Q 959 2375 959 1747 
Q 959 1119 1226 758 
Q 1494 397 1959 397 
Q 2419 397 2687 759 
Q 2956 1122 2956 1747 
Q 2956 2369 2687 2733 
Q 2419 3097 1959 3097 
z
M 1959 3584 
Q 2709 3584 3137 3096 
Q 3566 2609 3566 1747 
Q 3566 888 3137 398 
Q 2709 -91 1959 -91 
Q 1206 -91 779 398 
Q 353 888 353 1747 
Q 353 2609 779 3096 
Q 1206 3584 1959 3584 
z
" transform="scale(0.015625)"/>
      <path id="DejaVuSans-73" d="M 2834 3397 
L 2834 2853 
Q 2591 2978 2328 3040 
Q 2066 3103 1784 3103 
Q 1356 3103 1142 2972 
Q 928 2841 928 2578 
Q 928 2378 1081 2264 
Q 1234 2150 1697 2047 
L 1894 2003 
Q 2506 1872 2764 1633 
Q 3022 1394 3022 966 
Q 3022 478 2636 193 
Q 2250 -91 1575 -91 
Q 1294 -91 989 -36 
Q 684 19 347 128 
L 347 722 
Q 666 556 975 473 
Q 1284 391 1588 391 
Q 1994 391 2212 530 
Q 2431 669 2431 922 
Q 2431 1156 2273 1281 
Q 2116 1406 1581 1522 
L 1381 1569 
Q 847 1681 609 1914 
Q 372 2147 372 2553 
Q 372 3047 722 3315 
Q 1072 3584 1716 3584 
Q 2034 3584 2315 3537 
Q 2597 3491 2834 3397 
z
" transform="scale(0.015625)"/>
      <path id="DejaVuSans-5f" d="M 3263 -1063 
L 3263 -1509 
L -63 -1509 
L -63 -1063 
L 3263 -1063 
z
" transform="scale(0.015625)"/>
      <path id="DejaVuSans-20" transform="scale(0.015625)"/>
      <path id="DejaVuSans-38" d="M 2034 2216 
Q 1584 2216 1326 1975 
Q 1069 1734 1069 1313 
Q 1069 891 1326 650 
Q 1584 409 2034 409 
Q 2484 409 2743 651 
Q 3003 894 3003 1313 
Q 3003 1734 2745 1975 
Q 2488 2216 2034 2216 
z
M 1403 2484 
Q 997 2584 770 2862 
Q 544 3141 544 3541 
Q 544 4100 942 4425 
Q 1341 4750 2034 4750 
Q 2731 4750 3128 4425 
Q 3525 4100 3525 3541 
Q 3525 3141 3298 2862 
Q 3072 2584 2669 2484 
Q 3125 2378 3379 2068 
Q 3634 1759 3634 1313 
Q 3634 634 3220 271 
Q 2806 -91 2034 -91 
Q 1263 -91 848 271 
Q 434 634 434 1313 
Q 434 1759 690 2068 
Q 947 2378 1403 2484 
z
M 1172 3481 
Q 1172 3119 1398 2916 
Q 1625 2713 2034 2713 
Q 2441 2713 2670 2916 
Q 2900 3119 2900 3481 
Q 2900 3844 2670 4047 
Q 2441 4250 2034 4250 
Q 1625 4250 1398 4047 
Q 1172 3844 1172 3481 
z
" transform="scale(0.015625)"/>
      <path id="DejaVuSans-37" d="M 525 4666 
L 3525 4666 
L 3525 4397 
L 1831 0 
L 1172 0 
L 2766 4134 
L 525 4134 
L 525 4666 
z
" transform="scale(0.015625)"/>
      <path id="DejaVuSans-66" d="M 2375 4863 
L 2375 4384 
L 1825 4384 
Q 1516 4384 1395 4259 
Q 1275 4134 1275 3809 
L 1275 3500 
L 2222 3500 
L 2222 3053 
L 1275 3053 
L 1275 0 
L 697 0 
L 697 3053 
L 147 3053 
L 147 3500 
L 697 3500 
L 697 3744 
Q 697 4328 969 4595 
Q 1241 4863 1831 4863 
L 2375 4863 
z
" transform="scale(0.015625)"/>
      <path id="DejaVuSans-6b" d="M 581 4863 
L 1159 4863 
L 1159 1991 
L 2875 3500 
L 3609 3500 
L 1753 1863 
L 3688 0 
L 2938 0 
L 1159 1709 
L 1159 0 
L 581 0 
L 581 4863 
z
" transform="scale(0.015625)"/>
     </defs>
     <use xlink:href="#DejaVuSans-63"/>
     <use xlink:href="#DejaVuSans-69" transform="translate(54.980469 0)"/>
     <use xlink:href="#DejaVuSans-72" transform="translate(82.763672 0)"/>
     <use xlink:href="#DejaVuSans-63" transform="translate(121.626953 0)"/>
     <use xlink:href="#DejaVuSans-75" transform="translate(176.607422 0)"/>
     <use xlink:href="#DejaVuSans-6c" transform="translate(239.986328 0)"/>
     <use xlink:href="#DejaVuSans-6f" transform="translate(267.769531 0)"/>
     <use xlink:href="#DejaVuSans-73" transform="translate(328.951172 0)"/>
     <use xlink:href="#DejaVuSans-5f" transform="translate(381.050781 0)"/>
     <use xlink:href="#DejaVuSans-6c" transform="translate(431.050781 0)"/>
     <use xlink:href="#DejaVuSans-6f" transform="translate(458.833984 0)"/>
     <use xlink:href="#DejaVuSans-20" transform="translate(520.015625 0)"/>
     <use xlink:href="#DejaVuSans-38" transform="translate(551.802734 0)"/>
     <use xlink:href="#DejaVuSans-35" transform="translate(615.425781 0)"/>
     <use xlink:href="#DejaVuSans-32" transform="translate(679.048828 0)"/>
     <use xlink:href="#DejaVuSans-37" transform="translate(742.671875 0)"/>
     <use xlink:href="#DejaVuSans-20" transform="translate(806.294922 0)"/>
     <use xlink:href="#DejaVuSans-66" transform="translate(838.082031 0)"/>
     <use xlink:href="#DejaVuSans-6b" transform="translate(873.287109 0)"/>
     <use xlink:href="#DejaVuSans-64" transform="translate(931.197266 0)"/>
     <use xlink:href="#DejaVuSans-63" transform="translate(994.673828 0)"/>
    </g>
   </g>
  </g>
  <g id="axes_2">
   <g id="patch_7">
    <path d="M 397.192028 312.24351 
L 411.898285 312.24351 
L 411.898285 18.118365 
L 397.192028 18.118365 
z
" style="fill: #ffffff"/>
   </g>
   <g id="QuadMesh_1">
    <path d="M 397.192028 312.24351 
L 411.898285 312.24351 
L 411.898285 292.635167 
L 397.192028 292.635167 
L 397.192028 312.24351 
" clip-path="url(#pf3f7e23225)" style="fill: #470d60"/>
    <path d="M 397.192028 292.635167 
L 411.898285 292.635167 
L 411.898285 273.026824 
L 397.192028 273.026824 
L 397.192028 292.635167 
" clip-path="url(#pf3f7e23225)" style="fill: #482475"/>
    <path d="M 397.192028 273.026824 
L 411.898285 273.026824 
L 411.898285 253.418481 
L 397.192028 253.418481 
L 397.192028 273.026824 
" clip-path="url(#pf3f7e23225)" style="fill: #443983"/>
    <path d="M 397.192028 253.418481 
L 411.898285 253.418481 
L 411.898285 233.810138 
L 397.192028 233.810138 
L 397.192028 253.418481 
" clip-path="url(#pf3f7e23225)" style="fill: #3d4d8a"/>
    <path d="M 397.192028 233.810138 
L 411.898285 233.810138 
L 411.898285 214.201795 
L 397.192028 214.201795 
L 397.192028 233.810138 
" clip-path="url(#pf3f7e23225)" style="fill: #355f8d"/>
    <path d="M 397.192028 214.201795 
L 411.898285 214.201795 
L 411.898285 194.593452 
L 397.192028 194.593452 
L 397.192028 214.201795 
" clip-path="url(#pf3f7e23225)" style="fill: #2d708e"/>
    <path d="M 397.192028 194.593452 
L 411.898285 194.593452 
L 411.898285 174.985109 
L 397.192028 174.985109 
L 397.192028 194.593452 
" clip-path="url(#pf3f7e23225)" style="fill: #27808e"/>
    <path d="M 397.192028 174.985109 
L 411.898285 174.985109 
L 411.898285 155.376766 
L 397.192028 155.376766 
L 397.192028 174.985109 
" clip-path="url(#pf3f7e23225)" style="fill: #21918c"/>
    <path d="M 397.192028 155.376766 
L 411.898285 155.376766 
L 411.898285 135.768423 
L 397.192028 135.768423 
L 397.192028 155.376766 
" clip-path="url(#pf3f7e23225)" style="fill: #1fa188"/>
    <path d="M 397.192028 135.768423 
L 411.898285 135.768423 
L 411.898285 116.16008 
L 397.192028 116.16008 
L 397.192028 135.768423 
" clip-path="url(#pf3f7e23225)" style="fill: #2ab07f"/>
    <path d="M 397.192028 116.16008 
L 411.898285 116.16008 
L 411.898285 96.551737 
L 397.192028 96.551737 
L 397.192028 116.16008 
" clip-path="url(#pf3f7e23225)" style="fill: #44bf70"/>
    <path d="M 397.192028 96.551737 
L 411.898285 96.551737 
L 411.898285 76.943394 
L 397.192028 76.943394 
L 397.192028 96.551737 
" clip-path="url(#pf3f7e23225)" style="fill: #67cc5c"/>
    <path d="M 397.192028 76.943394 
L 411.898285 76.943394 
L 411.898285 57.335051 
L 397.192028 57.335051 
L 397.192028 76.943394 
" clip-path="url(#pf3f7e23225)" style="fill: #90d743"/>
    <path d="M 397.192028 57.335051 
L 411.898285 57.335051 
L 411.898285 37.726708 
L 397.192028 37.726708 
L 397.192028 57.335051 
" clip-path="url(#pf3f7e23225)" style="fill: #bddf26"/>
    <path d="M 397.192028 37.726708 
L 411.898285 37.726708 
L 411.898285 18.118365 
L 397.192028 18.118365 
L 397.192028 37.726708 
" clip-path="url(#pf3f7e23225)" style="fill: #eae51a"/>
   </g>
   <g id="matplotlib.axis_3"/>
   <g id="matplotlib.axis_4">
    <g id="ytick_8">
     <g id="line2d_36">
      <defs>
       <path id="mcd69b0a36a" d="M 0 0 
L 3.5 0 
" style="stroke: #000000; stroke-width: 0.8"/>
      </defs>
      <g>
       <use xlink:href="#mcd69b0a36a" x="411.898285" y="292.635167" style="stroke: #000000; stroke-width: 0.8"/>
      </g>
     </g>
     <g id="text_15">
      <!-- 5.6 -->
      <g transform="translate(418.898285 296.434386) scale(0.1 -0.1)">
       <defs>
        <path id="DejaVuSans-36" d="M 2113 2584 
Q 1688 2584 1439 2293 
Q 1191 2003 1191 1497 
Q 1191 994 1439 701 
Q 1688 409 2113 409 
Q 2538 409 2786 701 
Q 3034 994 3034 1497 
Q 3034 2003 2786 2293 
Q 2538 2584 2113 2584 
z
M 3366 4563 
L 3366 3988 
Q 3128 4100 2886 4159 
Q 2644 4219 2406 4219 
Q 1781 4219 1451 3797 
Q 1122 3375 1075 2522 
Q 1259 2794 1537 2939 
Q 1816 3084 2150 3084 
Q 2853 3084 3261 2657 
Q 3669 2231 3669 1497 
Q 3669 778 3244 343 
Q 2819 -91 2113 -91 
Q 1303 -91 875 529 
Q 447 1150 447 2328 
Q 447 3434 972 4092 
Q 1497 4750 2381 4750 
Q 2619 4750 2861 4703 
Q 3103 4656 3366 4563 
z
" transform="scale(0.015625)"/>
       </defs>
       <use xlink:href="#DejaVuSans-2212"/>
       <use xlink:href="#DejaVuSans-35" transform="translate(83.789062 0)"/>
       <use xlink:href="#DejaVuSans-2e" transform="translate(147.412109 0)"/>
       <use xlink:href="#DejaVuSans-36" transform="translate(179.199219 0)"/>
      </g>
     </g>
    </g>
    <g id="ytick_9">
     <g id="line2d_37">
      <g>
       <use xlink:href="#mcd69b0a36a" x="411.898285" y="253.418481" style="stroke: #000000; stroke-width: 0.8"/>
      </g>
     </g>
     <g id="text_16">
      <!-- 4.8 -->
      <g transform="translate(418.898285 257.2177) scale(0.1 -0.1)">
       <use xlink:href="#DejaVuSans-2212"/>
       <use xlink:href="#DejaVuSans-34" transform="translate(83.789062 0)"/>
       <use xlink:href="#DejaVuSans-2e" transform="translate(147.412109 0)"/>
       <use xlink:href="#DejaVuSans-38" transform="translate(179.199219 0)"/>
      </g>
     </g>
    </g>
    <g id="ytick_10">
     <g id="line2d_38">
      <g>
       <use xlink:href="#mcd69b0a36a" x="411.898285" y="214.201795" style="stroke: #000000; stroke-width: 0.8"/>
      </g>
     </g>
     <g id="text_17">
      <!-- 4.0 -->
      <g transform="translate(418.898285 218.001014) scale(0.1 -0.1)">
       <use xlink:href="#DejaVuSans-2212"/>
       <use xlink:href="#DejaVuSans-34" transform="translate(83.789062 0)"/>
       <use xlink:href="#DejaVuSans-2e" transform="translate(147.412109 0)"/>
       <use xlink:href="#DejaVuSans-30" transform="translate(179.199219 0)"/>
      </g>
     </g>
    </g>
    <g id="ytick_11">
     <g id="line2d_39">
      <g>
       <use xlink:href="#mcd69b0a36a" x="411.898285" y="174.985109" style="stroke: #000000; stroke-width: 0.8"/>
      </g>
     </g>
     <g id="text_18">
      <!-- 3.2 -->
      <g transform="translate(418.898285 178.784328) scale(0.1 -0.1)">
       <use xlink:href="#DejaVuSans-2212"/>
       <use xlink:href="#DejaVuSans-33" transform="translate(83.789062 0)"/>
       <use xlink:href="#DejaVuSans-2e" transform="translate(147.412109 0)"/>
       <use xlink:href="#DejaVuSans-32" transform="translate(179.199219 0)"/>
      </g>
     </g>
    </g>
    <g id="ytick_12">
     <g id="line2d_40">
      <g>
       <use xlink:href="#mcd69b0a36a" x="411.898285" y="135.768423" style="stroke: #000000; stroke-width: 0.8"/>
      </g>
     </g>
     <g id="text_19">
      <!-- 2.4 -->
      <g transform="translate(418.898285 139.567642) scale(0.1 -0.1)">
       <use xlink:href="#DejaVuSans-2212"/>
       <use xlink:href="#DejaVuSans-32" transform="translate(83.789062 0)"/>
       <use xlink:href="#DejaVuSans-2e" transform="translate(147.412109 0)"/>
       <use xlink:href="#DejaVuSans-34" transform="translate(179.199219 0)"/>
      </g>
     </g>
    </g>
    <g id="ytick_13">
     <g id="line2d_41">
      <g>
       <use xlink:href="#mcd69b0a36a" x="411.898285" y="96.551737" style="stroke: #000000; stroke-width: 0.8"/>
      </g>
     </g>
     <g id="text_20">
      <!-- 1.6 -->
      <g transform="translate(418.898285 100.350956) scale(0.1 -0.1)">
       <use xlink:href="#DejaVuSans-2212"/>
       <use xlink:href="#DejaVuSans-31" transform="translate(83.789062 0)"/>
       <use xlink:href="#DejaVuSans-2e" transform="translate(147.412109 0)"/>
       <use xlink:href="#DejaVuSans-36" transform="translate(179.199219 0)"/>
      </g>
     </g>
    </g>
    <g id="ytick_14">
     <g id="line2d_42">
      <g>
       <use xlink:href="#mcd69b0a36a" x="411.898285" y="57.335051" style="stroke: #000000; stroke-width: 0.8"/>
      </g>
     </g>
     <g id="text_21">
      <!-- 0.8 -->
      <g transform="translate(418.898285 61.13427) scale(0.1 -0.1)">
       <use xlink:href="#DejaVuSans-2212"/>
       <use xlink:href="#DejaVuSans-30" transform="translate(83.789062 0)"/>
       <use xlink:href="#DejaVuSans-2e" transform="translate(147.412109 0)"/>
       <use xlink:href="#DejaVuSans-38" transform="translate(179.199219 0)"/>
      </g>
     </g>
    </g>
    <g id="ytick_15">
     <g id="line2d_43">
      <g>
       <use xlink:href="#mcd69b0a36a" x="411.898285" y="18.118365" style="stroke: #000000; stroke-width: 0.8"/>
      </g>
     </g>
     <g id="text_22">
      <!-- 0.0 -->
      <g transform="translate(418.898285 21.917584) scale(0.1 -0.1)">
       <use xlink:href="#DejaVuSans-30"/>
       <use xlink:href="#DejaVuSans-2e" transform="translate(63.623047 0)"/>
       <use xlink:href="#DejaVuSans-30" transform="translate(95.410156 0)"/>
      </g>
     </g>
    </g>
    <g id="text_23">
     <!-- Score -->
     <g transform="translate(454.779535 179.183281) rotate(-90) scale(0.1 -0.1)">
      <defs>
       <path id="DejaVuSans-53" d="M 3425 4513 
L 3425 3897 
Q 3066 4069 2747 4153 
Q 2428 4238 2131 4238 
Q 1616 4238 1336 4038 
Q 1056 3838 1056 3469 
Q 1056 3159 1242 3001 
Q 1428 2844 1947 2747 
L 2328 2669 
Q 3034 2534 3370 2195 
Q 3706 1856 3706 1288 
Q 3706 609 3251 259 
Q 2797 -91 1919 -91 
Q 1588 -91 1214 -16 
Q 841 59 441 206 
L 441 856 
Q 825 641 1194 531 
Q 1563 422 1919 422 
Q 2459 422 2753 634 
Q 3047 847 3047 1241 
Q 3047 1584 2836 1778 
Q 2625 1972 2144 2069 
L 1759 2144 
Q 1053 2284 737 2584 
Q 422 2884 422 3419 
Q 422 4038 858 4394 
Q 1294 4750 2059 4750 
Q 2388 4750 2728 4690 
Q 3069 4631 3425 4513 
z
" transform="scale(0.015625)"/>
       <path id="DejaVuSans-65" d="M 3597 1894 
L 3597 1613 
L 953 1613 
Q 991 1019 1311 708 
Q 1631 397 2203 397 
Q 2534 397 2845 478 
Q 3156 559 3463 722 
L 3463 178 
Q 3153 47 2828 -22 
Q 2503 -91 2169 -91 
Q 1331 -91 842 396 
Q 353 884 353 1716 
Q 353 2575 817 3079 
Q 1281 3584 2069 3584 
Q 2775 3584 3186 3129 
Q 3597 2675 3597 1894 
z
M 3022 2063 
Q 3016 2534 2758 2815 
Q 2500 3097 2075 3097 
Q 1594 3097 1305 2825 
Q 1016 2553 972 2059 
L 3022 2063 
z
" transform="scale(0.015625)"/>
      </defs>
      <use xlink:href="#DejaVuSans-53"/>
      <use xlink:href="#DejaVuSans-63" transform="translate(63.476562 0)"/>
      <use xlink:href="#DejaVuSans-6f" transform="translate(118.457031 0)"/>
      <use xlink:href="#DejaVuSans-72" transform="translate(179.638672 0)"/>
      <use xlink:href="#DejaVuSans-65" transform="translate(218.501953 0)"/>
     </g>
    </g>
   </g>
   <g id="LineCollection_1"/>
   <g id="patch_8">
    <path d="M 397.192028 312.24351 
L 404.545157 312.24351 
L 411.898285 312.24351 
L 411.898285 18.118365 
L 404.545157 18.118365 
L 397.192028 18.118365 
L 397.192028 312.24351 
z
" style="fill: none; stroke: #000000; stroke-width: 0.8; stroke-linejoin: miter; stroke-linecap: square"/>
   </g>
  </g>
 </g>
 <defs>
  <clipPath id="p5240b15bc7">
   <rect x="39.58149" y="18.118365" width="329.390989" height="294.125145"/>
  </clipPath>
  <clipPath id="pf3f7e23225">
   <rect x="397.192028" y="18.118365" width="14.706257" height="294.125145"/>
  </clipPath>
 </defs>
</svg>
