<?xml version="1.0" encoding="utf-8" standalone="no"?>
<!DOCTYPE svg PUBLIC "-//W3C//DTD SVG 1.1//EN"
  "http://www.w3.org/Graphics/SVG/1.1/DTD/svg11.dtd">
<svg xmlns:xlink="http://www.w3.org/1999/xlink" width="468.247053pt" height="353.99952pt" viewBox="0 0 468.247053 353.99952" xmlns="http://www.w3.org/2000/svg" version="1.1">
 <metadata>
  <rdf:RDF xmlns:dc="http://purl.org/dc/elements/1.1/" xmlns:cc="http://creativecommons.org/ns#" xmlns:rdf="http://www.w3.org/1999/02/22-rdf-syntax-ns#">
   <cc:Work>
    <dc:type rdf:resource="http://purl.org/dc/dcmitype/StillImage"/>
    <dc:date>1970-01-01T00:00:00+00:00</dc:date>
    <dc:format>image/svg+xml</dc:format>
    <dc:creator>
     <cc:Agent>
      <dc:title>Matplotlib v3.10.7, https://matplotlib.org/</dc:title>
     </cc:Agent>
    </dc:creator>
   </cc:Work>
  </rdf:RDF>
 </metadata>
 <defs>
  <style type="text/css">*{stroke-linejoin: round; stroke-linecap: butt}</style>
 </defs>
 <g id="figure_1">
  <g id="patch_1">
   <path d="M 0 353.99952 
L 468.247053 353.99952 
L 468.247053 0 
L 0 0 
z
" style="fill: #ffffff"/>
  </g>
  <g id="axes_1">
   <g id="patch_2">
    <path d="M 43.78125 316.44327 
L 377.70552 316.44327 
L 377.70552 22.318125 
L 43.78125 22.318125 
z
" style="fill: #ffffff"/>
   </g>
   <g id="QuadContourSet_1">
    <path d="M 165.208257 297.978957 
L 174.234038 291.932841 
L 165.208257 287.082764 
L 154.238464 291.932841 
z
M 195.565009 316.44327 
L 207.644157 316.44327 
L 195.565009 309.862848 
L 188.780963 316.44327 
z
M 134.851505 273.976004 
L 139.068484 267.422412 
L 134.851505 265.187394 
L 127.544927 267.422412 
z
M 43.78125 219.038314 
L 49.235181 218.401555 
L 43.78125 216.361144 
L 43.157121 218.401555 
z
" clip-path="url(#p0a7174c9c2)" style="fill: #470e61"/>
    <path d="M 134.851505 293.234 
L 165.208257 310.07292 
L 174.578673 316.44327 
L 188.780963 316.44327 
L 195.565009 309.862848 
L 207.644157 316.44327 
L 223.550512 316.44327 
L 195.565009 298.54614 
L 188.661211 291.932841 
L 165.208257 277.381221 
L 153.573805 267.422412 
L 134.851505 255.979667 
L 118.388005 242.911984 
L 104.494754 234.733076 
L 82.192947 218.401555 
L 74.138002 213.895178 
L 45.090319 193.891126 
L 43.78125 193.191762 
L 13.424498 177.530431 
L 4.611432 193.891126 
L 13.424498 201.187773 
L 35.130364 218.401555 
L 43.78125 226.589855 
L 66.797578 242.911984 
L 74.138002 248.696075 
L 101.530953 267.422412 
L 104.494754 269.75485 
L 133.041443 291.932841 
z
M 154.238464 291.932841 
L 165.208257 287.082764 
L 174.234038 291.932841 
L 165.208257 297.978957 
z
M 127.544927 267.422412 
L 134.851505 265.187394 
L 139.068484 267.422412 
L 134.851505 273.976004 
z
M 43.157121 218.401555 
L 43.78125 216.361144 
L 49.235181 218.401555 
L 43.78125 219.038314 
z
M -16.932254 175.569521 
L 2.018911 169.380697 
L -16.932254 160.248113 
L -34.646777 169.380697 
z
M -47.289005 155.048615 
L -40.238287 144.870269 
L -47.289005 141.584054 
L -69.489521 144.870269 
z
" clip-path="url(#p0a7174c9c2)" style="fill: #482677"/>
    <path d="M 134.851505 297.11908 
L 163.163917 316.44327 
L 165.208257 316.44327 
L 174.578673 316.44327 
L 165.208257 310.07292 
L 134.851505 293.234 
L 133.041443 291.932841 
L 104.494754 269.75485 
L 101.530953 267.422412 
L 74.138002 248.696075 
L 66.797578 242.911984 
L 43.78125 226.589855 
L 35.130364 218.401555 
L 13.424498 201.187773 
L 4.611432 193.891126 
L 13.424498 177.530431 
L 43.78125 193.191762 
L 45.090319 193.891126 
L 74.138002 213.895178 
L 82.192947 218.401555 
L 104.494754 234.733076 
L 118.388005 242.911984 
L 134.851505 255.979667 
L 153.573805 267.422412 
L 165.208257 277.381221 
L 188.661211 291.932841 
L 195.565009 298.54614 
L 223.550512 316.44327 
L 225.921761 316.44327 
L 234.049173 316.44327 
L 225.921761 311.16454 
L 200.336935 291.932841 
L 195.565009 289.002093 
L 165.208257 267.679677 
L 164.937858 267.422412 
L 134.851505 246.77194 
L 130.499666 242.911984 
L 104.494754 225.615604 
L 95.779401 218.401555 
L 74.138002 204.546244 
L 60.656107 193.891126 
L 43.78125 183.397727 
L 23.943141 169.380697 
L 13.424498 163.235111 
L -14.949397 144.870269 
L -16.932254 143.805561 
L -47.289005 125.58884 
L -54.301901 120.35984 
L -77.645757 106.664121 
L -88.531466 95.849411 
L -108.002509 84.103485 
L -108.002509 95.849411 
L -108.002509 120.35984 
L -108.002509 131.704719 
L -89.216186 144.870269 
L -77.645757 154.839865 
L -55.799086 169.380697 
L -47.289005 174.289198 
L -16.932254 186.992089 
L -7.758462 193.891126 
L 13.424498 209.575168 
L 25.658637 218.401555 
L 43.78125 234.141397 
L 57.374664 242.911984 
L 74.138002 255.033311 
L 93.754351 267.422412 
L 104.494754 275.286583 
L 127.234753 291.932841 
z
M -34.646777 169.380697 
L -16.932254 160.248113 
L 2.018911 169.380697 
L -16.932254 175.569521 
z
M -69.489521 144.870269 
L -47.289005 141.584054 
L -40.238287 144.870269 
L -47.289005 155.048615 
z
" clip-path="url(#p0a7174c9c2)" style="fill: #433d84"/>
    <path d="M 134.851505 301.004159 
L 158.56455 316.44327 
L 163.163917 316.44327 
L 134.851505 297.11908 
L 127.234753 291.932841 
L 104.494754 275.286583 
L 93.754351 267.422412 
L 74.138002 255.033311 
L 57.374664 242.911984 
L 43.78125 234.141397 
L 25.658637 218.401555 
L 13.424498 209.575168 
L -7.758462 193.891126 
L -16.932254 186.992089 
L -47.289005 174.289198 
L -55.799086 169.380697 
L -77.645757 154.839865 
L -89.216186 144.870269 
L -108.002509 131.704719 
L -108.002509 143.124635 
L -105.092015 144.870269 
L -77.645757 165.403589 
L -70.71813 169.380697 
L -47.289005 181.195702 
L -21.190624 193.891126 
L -16.932254 198.109584 
L 13.424498 217.962563 
L 14.104942 218.401555 
L 43.78125 241.692938 
L 45.893611 242.911984 
L 74.138002 261.370547 
L 84.629248 267.422412 
L 104.494754 280.818317 
L 120.708655 291.932841 
z
M 225.921761 311.16454 
L 234.049173 316.44327 
L 242.484871 316.44327 
L 225.921761 304.753428 
L 210.309123 291.932841 
L 195.565009 281.950524 
L 176.964679 267.422412 
L 165.208257 259.873164 
L 142.828449 242.911984 
L 134.851505 237.981412 
L 107.795917 218.401555 
L 104.494754 216.473517 
L 74.138002 195.197309 
L 72.659099 193.891126 
L 43.78125 173.603691 
L 38.548831 169.380697 
L 13.424498 152.389657 
L 3.574571 144.870269 
L -16.932254 131.66275 
L -32.384778 120.35984 
L -47.289005 111.246508 
L -68.761294 95.849411 
L -77.645757 90.694805 
L -106.521051 71.338982 
L -108.002509 70.529245 
L -108.002509 71.338982 
L -108.002509 84.103485 
L -88.531466 95.849411 
L -77.645757 106.664121 
L -54.301901 120.35984 
L -47.289005 125.58884 
L -16.932254 143.805561 
L -14.949397 144.870269 
L 13.424498 163.235111 
L 23.943141 169.380697 
L 43.78125 183.397727 
L 60.656107 193.891126 
L 74.138002 204.546244 
L 95.779401 218.401555 
L 104.494754 225.615604 
L 130.499666 242.911984 
L 134.851505 246.77194 
L 164.937858 267.422412 
L 165.208257 267.679677 
L 195.565009 289.002093 
L 200.336935 291.932841 
z
" clip-path="url(#p0a7174c9c2)" style="fill: #3b528b"/>
    <path d="M 134.851505 304.889238 
L 153.52538 316.44327 
L 158.56455 316.44327 
L 134.851505 301.004159 
L 120.708655 291.932841 
L 104.494754 280.818317 
L 84.629248 267.422412 
L 74.138002 261.370547 
L 45.893611 242.911984 
L 43.78125 241.692938 
L 14.104942 218.401555 
L 13.424498 217.962563 
L -16.932254 198.109584 
L -21.190624 193.891126 
L -47.289005 181.195702 
L -70.71813 169.380697 
L -77.645757 165.403589 
L -105.092015 144.870269 
L -108.002509 143.124635 
L -108.002509 144.870269 
L -108.002509 152.300854 
L -83.563584 169.380697 
L -77.645757 173.628846 
L -47.289005 188.102206 
L -33.779561 193.891126 
L -16.932254 208.761798 
L 0.059307 218.401555 
L 13.424498 225.918966 
L 36.85228 242.911984 
L 43.78125 247.874705 
L 73.826665 267.422412 
L 74.138002 267.662797 
L 104.494754 286.350051 
L 113.259342 291.932841 
z
M 225.921761 304.753428 
L 242.484871 316.44327 
L 249.755409 316.44327 
L 225.921761 298.342316 
L 218.692114 291.932841 
L 195.565009 274.898954 
L 186.81075 267.422412 
L 165.208257 252.118272 
L 154.244785 242.911984 
L 134.851505 229.492012 
L 121.251443 218.401555 
L 104.494754 207.238138 
L 87.583428 193.891126 
L 74.138002 185.200321 
L 53.719148 169.380697 
L 43.78125 163.1973 
L 19.390693 144.870269 
L 13.424498 141.30388 
L -15.435725 120.35984 
L -16.932254 119.498976 
L -47.289005 97.706958 
L -49.461065 95.849411 
L -77.645757 76.002481 
L -83.295036 71.338982 
L -108.002509 54.353738 
L -108.002509 70.529245 
L -106.521051 71.338982 
L -77.645757 90.694805 
L -68.761294 95.849411 
L -47.289005 111.246508 
L -32.384778 120.35984 
L -16.932254 131.66275 
L 3.574571 144.870269 
L 13.424498 152.389657 
L 38.548831 169.380697 
L 43.78125 173.603691 
L 72.659099 193.891126 
L 74.138002 195.197309 
L 104.494754 216.473517 
L 107.795917 218.401555 
L 134.851505 237.981412 
L 142.828449 242.911984 
L 165.208257 259.873164 
L 176.964679 267.422412 
L 195.565009 281.950524 
L 210.309123 291.932841 
z
" clip-path="url(#p0a7174c9c2)" style="fill: #32658e"/>
    <path d="M 134.851505 308.774317 
L 147.953316 316.44327 
L 153.52538 316.44327 
L 134.851505 304.889238 
L 113.259342 291.932841 
L 104.494754 286.350051 
L 74.138002 267.662797 
L 73.826665 267.422412 
L 43.78125 247.874705 
L 36.85228 242.911984 
L 13.424498 225.918966 
L 0.059307 218.401555 
L -16.932254 208.761798 
L -33.779561 193.891126 
L -47.289005 188.102206 
L -77.645757 173.628846 
L -83.563584 169.380697 
L -108.002509 152.300854 
L -108.002509 161.07222 
L -94.706195 169.380697 
L -77.645757 180.442097 
L -49.067305 193.891126 
L -47.289005 195.203956 
L -17.680061 218.401555 
L -16.932254 219.066341 
L 13.424498 233.851566 
L 27.188227 242.911984 
L 43.78125 253.792781 
L 66.392078 267.422412 
L 74.138002 273.001019 
L 104.494754 291.881785 
L 104.581883 291.932841 
z
M 225.921761 298.342316 
L 249.755409 316.44327 
L 256.143939 316.44327 
L 225.924549 291.932841 
L 225.921761 291.931049 
L 195.565009 267.847385 
L 195.104514 267.422412 
L 165.208257 244.36338 
L 163.624116 242.911984 
L 134.851505 221.002612 
L 131.96225 218.401555 
L 104.494754 198.002759 
L 99.838199 193.891126 
L 74.138002 175.098086 
L 67.634169 169.380697 
L 43.78125 152.326729 
L 35.169929 144.870269 
L 13.424498 129.674793 
L 2.477773 120.35984 
L -16.932254 107.053087 
L -30.269989 95.849411 
L -47.289005 84.429278 
L -63.092365 71.338982 
L -77.645757 61.783286 
L -95.830009 46.828554 
L -108.002509 39.020639 
L -108.002509 46.828554 
L -108.002509 54.353738 
L -83.295036 71.338982 
L -77.645757 76.002481 
L -49.461065 95.849411 
L -47.289005 97.706958 
L -16.932254 119.498976 
L -15.435725 120.35984 
L 13.424498 141.30388 
L 19.390693 144.870269 
L 43.78125 163.1973 
L 53.719148 169.380697 
L 74.138002 185.200321 
L 87.583428 193.891126 
L 104.494754 207.238138 
L 121.251443 218.401555 
L 134.851505 229.492012 
L 154.244785 242.911984 
L 165.208257 252.118272 
L 186.81075 267.422412 
L 195.565009 274.898954 
L 218.692114 291.932841 
z
" clip-path="url(#p0a7174c9c2)" style="fill: #2a768e"/>
    <path d="M 104.494754 297.60924 
L 134.851505 312.659397 
L 141.722175 316.44327 
L 147.953316 316.44327 
L 134.851505 308.774317 
L 104.581883 291.932841 
L 104.494754 291.881785 
L 74.138002 273.001019 
L 66.392078 267.422412 
L 43.78125 253.792781 
L 27.188227 242.911984 
L 13.424498 233.851566 
L -16.932254 219.066341 
L -17.680061 218.401555 
L -47.289005 195.203956 
L -49.067305 193.891126 
L -77.645757 180.442097 
L -94.706195 169.380698 
L -108.002509 161.07222 
L -108.002509 169.380697 
L -108.002509 169.916739 
L -77.645757 187.255349 
L -61.628245 193.891126 
L -47.289005 203.317049 
L -26.266476 218.401555 
L -16.932254 226.060652 
L 13.424498 241.784166 
L 15.346681 242.911984 
L 43.78125 259.710857 
L 57.734605 267.422412 
L 74.138002 278.339241 
L 97.598193 291.932841 
z
M 256.278513 316.44327 
L 265.267777 316.44327 
L 256.278513 310.029875 
L 235.847913 291.932841 
L 225.921761 284.91319 
L 205.752372 267.422412 
L 195.565009 260.328934 
L 174.943631 242.911984 
L 165.208257 236.188799 
L 144.016257 218.401555 
L 134.851505 212.159294 
L 112.64152 193.891126 
L 104.494754 188.463168 
L 81.124996 169.380697 
L 74.138002 164.75823 
L 49.381819 144.870269 
L 43.78125 141.258951 
L 17.326634 120.35984 
L 13.424498 117.88008 
L -14.783362 95.849411 
L -16.932254 94.499104 
L -47.02735 71.338982 
L -47.289005 71.179362 
L -77.645757 47.7841 
L -78.637774 46.828554 
L -108.002509 24.420376 
L -108.002509 39.020639 
L -95.830009 46.828554 
L -77.645757 61.783286 
L -63.092365 71.338982 
L -47.289005 84.429278 
L -30.269989 95.849411 
L -16.932254 107.053087 
L 2.477773 120.35984 
L 13.424498 129.674793 
L 35.169929 144.870269 
L 43.78125 152.326729 
L 67.634169 169.380697 
L 74.138002 175.098086 
L 99.838199 193.891126 
L 104.494754 198.002759 
L 131.96225 218.401555 
L 134.851505 221.002612 
L 163.624116 242.911984 
L 165.208257 244.36338 
L 195.104514 267.422412 
L 195.565009 267.847385 
L 225.921761 291.931049 
L 225.924549 291.932841 
L 256.143939 316.44327 
z
" clip-path="url(#p0a7174c9c2)" style="fill: #24878e"/>
    <path d="M 104.494754 303.338518 
L 134.59097 316.44327 
L 134.851505 316.44327 
L 141.722175 316.44327 
L 134.851505 312.659397 
L 104.494754 297.60924 
L 97.598193 291.932841 
L 74.138002 278.339241 
L 57.734605 267.422412 
L 43.78125 259.710857 
L 15.346681 242.911984 
L 13.424498 241.784166 
L -16.932254 226.060652 
L -26.266476 218.401555 
L -47.289005 203.317049 
L -61.628245 193.891126 
L -77.645757 187.255349 
L -108.002509 169.916739 
L -108.002509 180.074319 
L -78.08122 193.891126 
L -77.645757 194.215028 
L -47.289005 211.430143 
L -36.528127 218.401555 
L -16.932254 233.054963 
L 3.877212 242.911984 
L 13.424498 250.519159 
L 43.78125 265.628933 
L 47.371202 267.422412 
L 74.138002 283.677462 
L 89.582218 291.932841 
z
M 256.278513 310.029875 
L 265.267777 316.44327 
L 273.108995 316.44327 
L 256.278513 303.469562 
L 244.196405 291.932841 
L 225.921761 277.895331 
L 214.789685 267.422412 
L 195.565009 252.780543 
L 184.881902 242.911984 
L 165.208257 227.917583 
L 154.932844 218.401555 
L 134.851505 203.15964 
L 124.745912 193.891126 
L 104.494754 178.679457 
L 94.385349 169.380697 
L 74.138002 154.10854 
L 64.055159 144.870269 
L 43.78125 129.760472 
L 33.480521 120.35984 
L 13.424498 105.418686 
L 2.962823 95.849411 
L -16.932254 80.970212 
L -27.45156 71.338982 
L -47.289005 56.683166 
L -58.052251 46.828554 
L -77.645757 32.310672 
L -88.592481 22.318125 
L -108.002509 22.318125 
L -108.002509 24.420376 
L -78.637774 46.828554 
L -77.645757 47.7841 
L -47.289005 71.179362 
L -47.02735 71.338982 
L -16.932254 94.499104 
L -14.783362 95.849411 
L 13.424498 117.88008 
L 17.326634 120.35984 
L 43.78125 141.258951 
L 49.381819 144.870269 
L 74.138002 164.75823 
L 81.124996 169.380697 
L 104.494754 188.463168 
L 112.64152 193.891126 
L 134.851505 212.159294 
L 144.016257 218.401555 
L 165.208257 236.188799 
L 174.943631 242.911984 
L 195.565009 260.328934 
L 205.752372 267.422412 
L 225.921761 284.91319 
L 235.847913 291.932841 
z
" clip-path="url(#p0a7174c9c2)" style="fill: #1f998a"/>
    <path d="M 104.494754 309.067796 
L 123.470587 316.44327 
L 134.59097 316.44327 
L 104.494754 303.338518 
L 89.582218 291.932841 
L 74.138002 283.677462 
L 47.371202 267.422412 
L 43.78125 265.628933 
L 13.424498 250.519159 
L 3.877212 242.911984 
L -16.932254 233.054963 
L -36.528127 218.401555 
L -47.289005 211.430143 
L -77.645757 194.215028 
L -78.08122 193.891126 
L -108.002509 180.074319 
L -108.002509 190.231898 
L -98.28917 193.891126 
L -77.645757 206.649691 
L -50.368347 218.401555 
L -47.289005 220.816824 
L -16.932254 240.049274 
L -9.999076 242.911984 
L 13.424498 259.38714 
L 32.650721 267.422412 
L 43.78125 276.262953 
L 74.138002 289.015684 
L 80.125512 291.932841 
z
M 256.278513 303.469562 
L 273.108995 316.44327 
L 279.9338 316.44327 
L 256.278513 296.909248 
L 251.402105 291.932841 
L 225.921761 270.877472 
L 222.502478 267.422412 
L 195.565009 245.232151 
L 193.240933 242.911984 
L 165.208257 219.646367 
L 163.972591 218.401555 
L 134.851505 194.159985 
L 134.584063 193.891126 
L 105.49518 169.380697 
L 104.494754 168.712369 
L 76.924708 144.870269 
L 74.138002 142.986118 
L 47.841867 120.35984 
L 43.78125 117.663373 
L 18.725708 95.849411 
L 13.424498 92.261361 
L -10.179895 71.338982 
L -16.932254 66.669631 
L -39.400353 46.828554 
L -47.289005 41.314933 
L -68.429883 22.318125 
L -77.645757 22.318125 
L -88.592481 22.318125 
L -77.645757 32.310672 
L -58.052251 46.828554 
L -47.289005 56.683166 
L -27.45156 71.338982 
L -16.932254 80.970212 
L 2.962823 95.849411 
L 13.424498 105.418686 
L 33.480521 120.35984 
L 43.78125 129.760472 
L 64.055159 144.870269 
L 74.138002 154.10854 
L 94.385349 169.380697 
L 104.494754 178.679457 
L 124.745912 193.891126 
L 134.851505 203.15964 
L 154.932844 218.401555 
L 165.208257 227.917583 
L 184.881902 242.911984 
L 195.565009 252.780543 
L 214.789685 267.422412 
L 225.921761 277.895331 
L 244.196405 291.932841 
z
" clip-path="url(#p0a7174c9c2)" style="fill: #24aa83"/>
    <path d="M 74.138002 302.579463 
L 104.494754 314.797074 
L 109.360827 316.44327 
L 123.470587 316.44327 
L 104.494754 309.067796 
L 80.125512 291.932841 
L 74.138002 289.015684 
L 43.78125 276.262953 
L 32.650721 267.422412 
L 13.424498 259.38714 
L -9.999076 242.911984 
L -16.932254 240.049274 
L -47.289005 220.816824 
L -50.368347 218.401555 
L -77.645757 206.649691 
L -98.28917 193.891126 
L -108.002509 190.231898 
L -108.002509 193.891126 
L -108.002509 211.377029 
L -81.873908 218.401555 
L -77.645757 220.38037 
L -47.289005 237.980374 
L -35.324234 242.911984 
L -16.932254 254.569962 
L 10.432713 267.422412 
L 13.424498 270.872203 
L 43.78125 288.947585 
L 56.214755 291.932841 
z
M 256.278513 296.909248 
L 279.9338 316.44327 
L 285.975714 316.44327 
L 260.061897 291.932841 
L 256.278513 289.321945 
L 233.566507 267.422412 
L 225.921761 261.86333 
L 206.156988 242.911984 
L 195.565009 234.969599 
L 178.561765 218.401555 
L 165.208257 208.172565 
L 150.6842 193.891126 
L 134.851505 181.601586 
L 122.44669 169.380697 
L 104.494754 155.2291 
L 94.228785 144.870269 
L 74.138002 128.769476 
L 65.818994 120.35984 
L 43.78125 102.883802 
L 36.922617 95.849411 
L 13.424498 76.80138 
L 8.206579 71.338982 
L -16.932254 50.462182 
L -20.393882 46.828554 
L -47.289005 24.095265 
L -48.944065 22.318125 
L -68.429883 22.318125 
L -47.289005 41.314933 
L -39.400353 46.828554 
L -16.932254 66.669631 
L -10.179895 71.338982 
L 13.424498 92.261361 
L 18.725708 95.849411 
L 43.78125 117.663373 
L 47.841867 120.35984 
L 74.138002 142.986118 
L 76.924708 144.870269 
L 104.494754 168.712369 
L 105.49518 169.380697 
L 134.584063 193.891126 
L 134.851505 194.159985 
L 163.972591 218.401555 
L 165.208257 219.646367 
L 193.240933 242.911984 
L 195.565009 245.232151 
L 222.502478 267.422412 
L 225.921761 270.877472 
L 251.402105 291.932841 
z
" clip-path="url(#p0a7174c9c2)" style="fill: #3aba76"/>
    <path d="M 13.424498 300.229864 
L 43.78125 303.593885 
L 65.992709 316.44327 
L 74.138002 316.44327 
L 104.494754 316.44327 
L 109.360827 316.44327 
L 104.494754 314.797074 
L 74.138002 302.579463 
L 56.214755 291.932841 
L 43.78125 288.947585 
L 13.424498 270.872203 
L 10.432713 267.422412 
L -16.932254 254.569962 
L -35.324234 242.911984 
L -47.289005 237.980374 
L -77.645757 220.38037 
L -81.873908 218.401555 
L -108.002509 211.377029 
L -108.002509 218.401555 
L -108.002509 242.911984 
L -108.002509 251.155892 
L -77.645757 250.40424 
L -55.620699 267.422412 
L -47.289005 275.719435 
L -16.932254 274.546046 
L 5.092804 291.932841 
z
M 286.635264 316.44327 
L 299.931122 316.44327 
L 286.635264 306.454963 
L 273.357085 291.932841 
L 256.278513 278.507989 
L 245.996985 267.422412 
L 225.921761 250.913273 
L 218.458395 242.911984 
L 195.565009 223.502565 
L 190.888788 218.401555 
L 165.208257 196.131386 
L 163.178178 193.891126 
L 135.847273 169.380697 
L 134.851505 168.679522 
L 110.757736 144.870269 
L 104.494754 140.300642 
L 84.793829 120.35984 
L 74.138002 112.164691 
L 57.819394 95.849411 
L 43.78125 84.687352 
L 30.989039 71.338982 
L 13.424498 56.892807 
L 4.180678 46.828554 
L -16.932254 29.013461 
L -22.922663 22.318125 
L -47.289005 22.318125 
L -48.944065 22.318125 
L -47.289005 24.095265 
L -20.393882 46.828554 
L -16.932254 50.462182 
L 8.206579 71.338983 
L 13.424498 76.80138 
L 36.922617 95.849411 
L 43.78125 102.883802 
L 65.818994 120.35984 
L 74.138002 128.769476 
L 94.228785 144.870269 
L 104.494754 155.2291 
L 122.44669 169.380697 
L 134.851505 181.601586 
L 150.6842 193.891126 
L 165.208257 208.172565 
L 178.561765 218.401555 
L 195.565009 234.969599 
L 206.156988 242.911984 
L 225.921761 261.86333 
L 233.566507 267.422412 
L 256.278513 289.321945 
L 260.061897 291.932841 
L 285.975714 316.44327 
z
" clip-path="url(#p0a7174c9c2)" style="fill: #5ec962"/>
    <path d="M -77.645757 301.625896 
L -47.289005 301.329548 
L -26.954374 316.44327 
L -16.932254 316.44327 
L 13.424498 316.44327 
L 43.78125 316.44327 
L 65.992709 316.44327 
L 43.78125 303.593885 
L 13.424498 300.229864 
L 5.092804 291.932841 
L -16.932254 274.546046 
L -47.289005 275.719435 
L -55.620699 267.422412 
L -77.645757 250.40424 
L -108.002509 251.155892 
L -108.002509 267.422412 
L -108.002509 276.510676 
L -87.667877 291.932841 
z
M 286.635264 306.454963 
L 299.931122 316.44327 
L 311.790097 316.44327 
L 286.635264 295.152638 
L 283.966245 291.932841 
L 256.278513 267.694033 
L 256.049132 267.422412 
L 234.983745 242.911984 
L 225.921761 236.284586 
L 210.883868 218.401555 
L 195.565009 206.428551 
L 184.948582 193.891126 
L 165.208257 177.533992 
L 158.273455 169.380697 
L 134.851505 148.812628 
L 131.54775 144.870269 
L 104.494754 120.580774 
L 104.312298 120.35984 
L 82.472424 95.849411 
L 74.138002 89.464437 
L 58.483249 71.338982 
L 43.78125 59.093522 
L 33.494391 46.828554 
L 13.424498 29.891751 
L 7.118525 22.318125 
L -16.932254 22.318125 
L -22.922663 22.318125 
L -16.932254 29.013461 
L 4.180678 46.828554 
L 13.424498 56.892807 
L 30.989039 71.338982 
L 43.78125 84.687352 
L 57.819394 95.849411 
L 74.138002 112.164691 
L 84.793829 120.35984 
L 104.494754 140.300642 
L 110.757736 144.870269 
L 134.851505 168.679522 
L 135.847273 169.380697 
L 163.178178 193.891126 
L 165.208257 196.131386 
L 190.888788 218.401555 
L 195.565009 223.502565 
L 218.458395 242.911984 
L 225.921761 250.913273 
L 245.996985 267.422412 
L 256.278513 278.507989 
L 273.357085 291.932841 
z
" clip-path="url(#p0a7174c9c2)" style="fill: #89d548"/>
    <path d="M -77.645757 316.44327 
L -47.289005 316.44327 
L -26.954374 316.44327 
L -47.289005 301.329548 
L -77.645757 301.625896 
L -87.667877 291.932841 
L -108.002509 276.510676 
L -108.002509 291.932841 
L -108.002509 316.44327 
z
M 286.635264 295.152638 
L 311.790097 316.44327 
L 316.992016 316.44327 
L 343.404398 316.44327 
L 316.992016 293.473404 
L 315.977755 291.932841 
L 300.084648 267.422412 
L 286.635264 257.086801 
L 278.862091 242.911984 
L 286.635264 228.122218 
L 304.392893 242.911984 
L 316.992016 253.582656 
L 332.758113 267.422412 
L 347.348768 281.614035 
L 358.332618 291.932841 
L 377.70552 313.872207 
L 380.206259 316.44327 
L 408.062272 316.44327 
L 438.419023 316.44327 
L 468.775775 316.44327 
L 499.132527 316.44327 
L 529.489279 316.44327 
L 559.846031 316.44327 
L 590.202783 316.44327 
L 620.559534 316.44327 
L 650.916286 316.44327 
L 681.273038 316.44327 
L 711.62979 316.44327 
L 741.986542 316.44327 
L 772.343293 316.44327 
L 802.700045 316.44327 
L 833.056797 316.44327 
L 863.413549 316.44327 
L 893.770301 316.44327 
L 924.127052 316.44327 
L 954.483804 316.44327 
L 984.840556 316.44327 
L 1015.197308 316.44327 
L 1045.55406 316.44327 
L 1075.910811 316.44327 
L 1106.267563 316.44327 
L 1136.624315 316.44327 
L 1166.981067 316.44327 
L 1197.337819 316.44327 
L 1227.69457 316.44327 
L 1227.69457 291.932841 
L 1227.69457 267.422412 
L 1227.69457 242.911984 
L 1227.69457 218.401555 
L 1227.69457 193.891126 
L 1227.69457 169.380697 
L 1227.69457 144.870269 
L 1227.69457 120.35984 
L 1227.69457 95.849411 
L 1227.69457 71.338982 
L 1227.69457 46.828554 
L 1227.69457 22.318125 
L 1197.337819 22.318125 
L 1166.981067 22.318125 
L 1136.624315 22.318125 
L 1106.267563 22.318125 
L 1075.910811 22.318125 
L 1045.55406 22.318125 
L 1015.197308 22.318125 
L 984.840556 22.318125 
L 954.483804 22.318125 
L 924.127052 22.318125 
L 893.770301 22.318125 
L 863.413549 22.318125 
L 833.056797 22.318125 
L 802.700045 22.318125 
L 772.343293 22.318125 
L 741.986542 22.318125 
L 711.62979 22.318125 
L 681.273038 22.318125 
L 650.916286 22.318125 
L 620.559534 22.318125 
L 590.202783 22.318125 
L 559.846031 22.318125 
L 529.489279 22.318125 
L 499.132527 22.318125 
L 468.775775 22.318125 
L 438.419023 22.318125 
L 408.062272 22.318125 
L 377.70552 22.318125 
L 347.348768 22.318125 
L 316.992016 22.318125 
L 286.635264 22.318125 
L 256.278513 22.318125 
L 225.921761 22.318125 
L 195.565009 22.318125 
L 165.208257 22.318125 
L 134.851505 22.318125 
L 104.494754 22.318125 
L 74.138002 22.318125 
L 43.78125 22.318125 
L 13.424498 22.318125 
L 7.118525 22.318125 
L 13.424498 29.891751 
L 33.494391 46.828554 
L 43.78125 59.093522 
L 58.483249 71.338982 
L 74.138002 89.464437 
L 82.472424 95.849411 
L 104.312298 120.35984 
L 104.494754 120.580774 
L 131.54775 144.870269 
L 134.851505 148.812628 
L 158.273455 169.380697 
L 165.208257 177.533992 
L 184.948582 193.891126 
L 195.565009 206.428551 
L 210.883868 218.401555 
L 225.921761 236.284586 
L 234.983745 242.911984 
L 256.049132 267.422412 
L 256.278513 267.694033 
L 283.966245 291.932841 
z
M 253.39818 218.401555 
L 256.278513 206.317905 
L 272.246235 218.401555 
L 256.278513 223.296444 
z
" clip-path="url(#p0a7174c9c2)" style="fill: #b8de29"/>
    <path d="M 316.992016 293.473404 
L 343.404398 316.44327 
L 347.348768 316.44327 
L 377.70552 316.44327 
L 380.206259 316.44327 
L 377.70552 313.872207 
L 358.332618 291.932841 
L 347.348768 281.614035 
L 332.758113 267.422412 
L 316.992016 253.582656 
L 304.392893 242.911984 
L 286.635264 228.122218 
L 278.862091 242.911984 
L 286.635264 257.086801 
L 300.084648 267.422412 
L 315.977755 291.932841 
z
M 256.278513 223.296444 
L 272.246235 218.401555 
L 256.278513 206.317905 
L 253.39818 218.401555 
z
" clip-path="url(#p0a7174c9c2)" style="fill: #e7e419"/>
   </g>
   <g id="PathCollection_1">
    <defs>
     <path id="mdc0741d33a" d="M -3 3 
L 3 -3 
M -3 -3 
L 3 3 
" style="stroke: #ff0000; stroke-width: 1.5"/>
    </defs>
    <g clip-path="url(#p0a7174c9c2)">
     <use xlink:href="#mdc0741d33a" x="347.348768" y="316.44327" style="fill: #ff0000; stroke: #ff0000; stroke-width: 1.5"/>
     <use xlink:href="#mdc0741d33a" x="347.348768" y="291.932841" style="fill: #ff0000; stroke: #ff0000; stroke-width: 1.5"/>
     <use xlink:href="#mdc0741d33a" x="316.992016" y="267.422412" style="fill: #ff0000; stroke: #ff0000; stroke-width: 1.5"/>
     <use xlink:href="#mdc0741d33a" x="286.635264" y="242.911984" style="fill: #ff0000; stroke: #ff0000; stroke-width: 1.5"/>
     <use xlink:href="#mdc0741d33a" x="256.278513" y="218.401555" style="fill: #ff0000; stroke: #ff0000; stroke-width: 1.5"/>
     <use xlink:href="#mdc0741d33a" x="225.921761" y="193.891126" style="fill: #ff0000; stroke: #ff0000; stroke-width: 1.5"/>
     <use xlink:href="#mdc0741d33a" x="225.921761" y="169.380697" style="fill: #ff0000; stroke: #ff0000; stroke-width: 1.5"/>
     <use xlink:href="#mdc0741d33a" x="195.565009" y="144.870269" style="fill: #ff0000; stroke: #ff0000; stroke-width: 1.5"/>
     <use xlink:href="#mdc0741d33a" x="165.208257" y="120.35984" style="fill: #ff0000; stroke: #ff0000; stroke-width: 1.5"/>
     <use xlink:href="#mdc0741d33a" x="134.851505" y="95.849411" style="fill: #ff0000; stroke: #ff0000; stroke-width: 1.5"/>
     <use xlink:href="#mdc0741d33a" x="104.494754" y="71.338982" style="fill: #ff0000; stroke: #ff0000; stroke-width: 1.5"/>
     <use xlink:href="#mdc0741d33a" x="104.494754" y="46.828554" style="fill: #ff0000; stroke: #ff0000; stroke-width: 1.5"/>
     <use xlink:href="#mdc0741d33a" x="74.138002" y="22.318125" style="fill: #ff0000; stroke: #ff0000; stroke-width: 1.5"/>
    </g>
   </g>
   <g id="matplotlib.axis_1">
    <g id="xtick_1">
     <g id="line2d_1">
      <defs>
       <path id="m38f3b05bbe" d="M 0 0 
L 0 3.5 
" style="stroke: #000000; stroke-width: 0.8"/>
      </defs>
      <g>
       <use xlink:href="#m38f3b05bbe" x="134.851505" y="316.44327" style="stroke: #000000; stroke-width: 0.8"/>
      </g>
     </g>
     <g id="text_1">
      <!-- $\mathdefault{10^{-3}}$ -->
      <g transform="translate(123.101505 331.041707) scale(0.1 -0.1)">
       <defs>
        <path id="DejaVuSans-31" d="M 794 531 
L 1825 531 
L 1825 4091 
L 703 3866 
L 703 4441 
L 1819 4666 
L 2450 4666 
L 2450 531 
L 3481 531 
L 3481 0 
L 794 0 
L 794 531 
z
" transform="scale(0.015625)"/>
        <path id="DejaVuSans-30" d="M 2034 4250 
Q 1547 4250 1301 3770 
Q 1056 3291 1056 2328 
Q 1056 1369 1301 889 
Q 1547 409 2034 409 
Q 2525 409 2770 889 
Q 3016 1369 3016 2328 
Q 3016 3291 2770 3770 
Q 2525 4250 2034 4250 
z
M 2034 4750 
Q 2819 4750 3233 4129 
Q 3647 3509 3647 2328 
Q 3647 1150 3233 529 
Q 2819 -91 2034 -91 
Q 1250 -91 836 529 
Q 422 1150 422 2328 
Q 422 3509 836 4129 
Q 1250 4750 2034 4750 
z
" transform="scale(0.015625)"/>
        <path id="DejaVuSans-2212" d="M 678 2272 
L 4684 2272 
L 4684 1741 
L 678 1741 
L 678 2272 
z
" transform="scale(0.015625)"/>
        <path id="DejaVuSans-33" d="M 2597 2516 
Q 3050 2419 3304 2112 
Q 3559 1806 3559 1356 
Q 3559 666 3084 287 
Q 2609 -91 1734 -91 
Q 1441 -91 1130 -33 
Q 819 25 488 141 
L 488 750 
Q 750 597 1062 519 
Q 1375 441 1716 441 
Q 2309 441 2620 675 
Q 2931 909 2931 1356 
Q 2931 1769 2642 2001 
Q 2353 2234 1838 2234 
L 1294 2234 
L 1294 2753 
L 1863 2753 
Q 2328 2753 2575 2939 
Q 2822 3125 2822 3475 
Q 2822 3834 2567 4026 
Q 2313 4219 1838 4219 
Q 1578 4219 1281 4162 
Q 984 4106 628 3988 
L 628 4550 
Q 988 4650 1302 4700 
Q 1616 4750 1894 4750 
Q 2613 4750 3031 4423 
Q 3450 4097 3450 3541 
Q 3450 3153 3228 2886 
Q 3006 2619 2597 2516 
z
" transform="scale(0.015625)"/>
       </defs>
       <use xlink:href="#DejaVuSans-31" transform="translate(0 0.765625)"/>
       <use xlink:href="#DejaVuSans-30" transform="translate(63.623047 0.765625)"/>
       <use xlink:href="#DejaVuSans-2212" transform="translate(128.203125 39.046875) scale(0.7)"/>
       <use xlink:href="#DejaVuSans-33" transform="translate(186.855469 39.046875) scale(0.7)"/>
      </g>
     </g>
    </g>
    <g id="xtick_2">
     <g id="line2d_2">
      <g>
       <use xlink:href="#m38f3b05bbe" x="256.278513" y="316.44327" style="stroke: #000000; stroke-width: 0.8"/>
      </g>
     </g>
     <g id="text_2">
      <!-- $\mathdefault{10^{-2}}$ -->
      <g transform="translate(244.528513 331.041707) scale(0.1 -0.1)">
       <defs>
        <path id="DejaVuSans-32" d="M 1228 531 
L 3431 531 
L 3431 0 
L 469 0 
L 469 531 
Q 828 903 1448 1529 
Q 2069 2156 2228 2338 
Q 2531 2678 2651 2914 
Q 2772 3150 2772 3378 
Q 2772 3750 2511 3984 
Q 2250 4219 1831 4219 
Q 1534 4219 1204 4116 
Q 875 4013 500 3803 
L 500 4441 
Q 881 4594 1212 4672 
Q 1544 4750 1819 4750 
Q 2544 4750 2975 4387 
Q 3406 4025 3406 3419 
Q 3406 3131 3298 2873 
Q 3191 2616 2906 2266 
Q 2828 2175 2409 1742 
Q 1991 1309 1228 531 
z
" transform="scale(0.015625)"/>
       </defs>
       <use xlink:href="#DejaVuSans-31" transform="translate(0 0.765625)"/>
       <use xlink:href="#DejaVuSans-30" transform="translate(63.623047 0.765625)"/>
       <use xlink:href="#DejaVuSans-2212" transform="translate(128.203125 39.046875) scale(0.7)"/>
       <use xlink:href="#DejaVuSans-32" transform="translate(186.855469 39.046875) scale(0.7)"/>
      </g>
     </g>
    </g>
    <g id="xtick_3">
     <g id="line2d_3">
      <g>
       <use xlink:href="#m38f3b05bbe" x="377.70552" y="316.44327" style="stroke: #000000; stroke-width: 0.8"/>
      </g>
     </g>
     <g id="text_3">
      <!-- $\mathdefault{10^{-1}}$ -->
      <g transform="translate(365.95552 331.041707) scale(0.1 -0.1)">
       <use xlink:href="#DejaVuSans-31" transform="translate(0 0.684375)"/>
       <use xlink:href="#DejaVuSans-30" transform="translate(63.623047 0.684375)"/>
       <use xlink:href="#DejaVuSans-2212" transform="translate(128.203125 38.965625) scale(0.7)"/>
       <use xlink:href="#DejaVuSans-31" transform="translate(186.855469 38.965625) scale(0.7)"/>
      </g>
     </g>
    </g>
    <g id="xtick_4">
     <g id="line2d_4">
      <defs>
       <path id="m360e1f0208" d="M 0 0 
L 0 2 
" style="stroke: #000000; stroke-width: 0.6"/>
      </defs>
      <g>
       <use xlink:href="#m360e1f0208" x="49.97767" y="316.44327" style="stroke: #000000; stroke-width: 0.6"/>
      </g>
     </g>
    </g>
    <g id="xtick_5">
     <g id="line2d_5">
      <g>
       <use xlink:href="#m360e1f0208" x="71.359904" y="316.44327" style="stroke: #000000; stroke-width: 0.6"/>
      </g>
     </g>
    </g>
    <g id="xtick_6">
     <g id="line2d_6">
      <g>
       <use xlink:href="#m360e1f0208" x="86.530841" y="316.44327" style="stroke: #000000; stroke-width: 0.6"/>
      </g>
     </g>
    </g>
    <g id="xtick_7">
     <g id="line2d_7">
      <g>
       <use xlink:href="#m360e1f0208" x="98.298334" y="316.44327" style="stroke: #000000; stroke-width: 0.6"/>
      </g>
     </g>
    </g>
    <g id="xtick_8">
     <g id="line2d_8">
      <g>
       <use xlink:href="#m360e1f0208" x="107.913076" y="316.44327" style="stroke: #000000; stroke-width: 0.6"/>
      </g>
     </g>
    </g>
    <g id="xtick_9">
     <g id="line2d_9">
      <g>
       <use xlink:href="#m360e1f0208" x="116.042224" y="316.44327" style="stroke: #000000; stroke-width: 0.6"/>
      </g>
     </g>
    </g>
    <g id="xtick_10">
     <g id="line2d_10">
      <g>
       <use xlink:href="#m360e1f0208" x="123.084013" y="316.44327" style="stroke: #000000; stroke-width: 0.6"/>
      </g>
     </g>
    </g>
    <g id="xtick_11">
     <g id="line2d_11">
      <g>
       <use xlink:href="#m360e1f0208" x="129.29531" y="316.44327" style="stroke: #000000; stroke-width: 0.6"/>
      </g>
     </g>
    </g>
    <g id="xtick_12">
     <g id="line2d_12">
      <g>
       <use xlink:href="#m360e1f0208" x="171.404677" y="316.44327" style="stroke: #000000; stroke-width: 0.6"/>
      </g>
     </g>
    </g>
    <g id="xtick_13">
     <g id="line2d_13">
      <g>
       <use xlink:href="#m360e1f0208" x="192.786911" y="316.44327" style="stroke: #000000; stroke-width: 0.6"/>
      </g>
     </g>
    </g>
    <g id="xtick_14">
     <g id="line2d_14">
      <g>
       <use xlink:href="#m360e1f0208" x="207.957848" y="316.44327" style="stroke: #000000; stroke-width: 0.6"/>
      </g>
     </g>
    </g>
    <g id="xtick_15">
     <g id="line2d_15">
      <g>
       <use xlink:href="#m360e1f0208" x="219.725341" y="316.44327" style="stroke: #000000; stroke-width: 0.6"/>
      </g>
     </g>
    </g>
    <g id="xtick_16">
     <g id="line2d_16">
      <g>
       <use xlink:href="#m360e1f0208" x="229.340083" y="316.44327" style="stroke: #000000; stroke-width: 0.6"/>
      </g>
     </g>
    </g>
    <g id="xtick_17">
     <g id="line2d_17">
      <g>
       <use xlink:href="#m360e1f0208" x="237.469231" y="316.44327" style="stroke: #000000; stroke-width: 0.6"/>
      </g>
     </g>
    </g>
    <g id="xtick_18">
     <g id="line2d_18">
      <g>
       <use xlink:href="#m360e1f0208" x="244.51102" y="316.44327" style="stroke: #000000; stroke-width: 0.6"/>
      </g>
     </g>
    </g>
    <g id="xtick_19">
     <g id="line2d_19">
      <g>
       <use xlink:href="#m360e1f0208" x="250.722318" y="316.44327" style="stroke: #000000; stroke-width: 0.6"/>
      </g>
     </g>
    </g>
    <g id="xtick_20">
     <g id="line2d_20">
      <g>
       <use xlink:href="#m360e1f0208" x="292.831684" y="316.44327" style="stroke: #000000; stroke-width: 0.6"/>
      </g>
     </g>
    </g>
    <g id="xtick_21">
     <g id="line2d_21">
      <g>
       <use xlink:href="#m360e1f0208" x="314.213919" y="316.44327" style="stroke: #000000; stroke-width: 0.6"/>
      </g>
     </g>
    </g>
    <g id="xtick_22">
     <g id="line2d_22">
      <g>
       <use xlink:href="#m360e1f0208" x="329.384856" y="316.44327" style="stroke: #000000; stroke-width: 0.6"/>
      </g>
     </g>
    </g>
    <g id="xtick_23">
     <g id="line2d_23">
      <g>
       <use xlink:href="#m360e1f0208" x="341.152348" y="316.44327" style="stroke: #000000; stroke-width: 0.6"/>
      </g>
     </g>
    </g>
    <g id="xtick_24">
     <g id="line2d_24">
      <g>
       <use xlink:href="#m360e1f0208" x="350.76709" y="316.44327" style="stroke: #000000; stroke-width: 0.6"/>
      </g>
     </g>
    </g>
    <g id="xtick_25">
     <g id="line2d_25">
      <g>
       <use xlink:href="#m360e1f0208" x="358.896238" y="316.44327" style="stroke: #000000; stroke-width: 0.6"/>
      </g>
     </g>
    </g>
    <g id="xtick_26">
     <g id="line2d_26">
      <g>
       <use xlink:href="#m360e1f0208" x="365.938027" y="316.44327" style="stroke: #000000; stroke-width: 0.6"/>
      </g>
     </g>
    </g>
    <g id="xtick_27">
     <g id="line2d_27">
      <g>
       <use xlink:href="#m360e1f0208" x="372.149325" y="316.44327" style="stroke: #000000; stroke-width: 0.6"/>
      </g>
     </g>
    </g>
    <g id="text_4">
     <!-- bandwidth -->
     <g transform="translate(184.380885 344.719832) scale(0.1 -0.1)">
      <defs>
       <path id="DejaVuSans-62" d="M 3116 1747 
Q 3116 2381 2855 2742 
Q 2594 3103 2138 3103 
Q 1681 3103 1420 2742 
Q 1159 2381 1159 1747 
Q 1159 1113 1420 752 
Q 1681 391 2138 391 
Q 2594 391 2855 752 
Q 3116 1113 3116 1747 
z
M 1159 2969 
Q 1341 3281 1617 3432 
Q 1894 3584 2278 3584 
Q 2916 3584 3314 3078 
Q 3713 2572 3713 1747 
Q 3713 922 3314 415 
Q 2916 -91 2278 -91 
Q 1894 -91 1617 61 
Q 1341 213 1159 525 
L 1159 0 
L 581 0 
L 581 4863 
L 1159 4863 
L 1159 2969 
z
" transform="scale(0.015625)"/>
       <path id="DejaVuSans-61" d="M 2194 1759 
Q 1497 1759 1228 1600 
Q 959 1441 959 1056 
Q 959 750 1161 570 
Q 1363 391 1709 391 
Q 2188 391 2477 730 
Q 2766 1069 2766 1631 
L 2766 1759 
L 2194 1759 
z
M 3341 1997 
L 3341 0 
L 2766 0 
L 2766 531 
Q 2569 213 2275 61 
Q 1981 -91 1556 -91 
Q 1019 -91 701 211 
Q 384 513 384 1019 
Q 384 1609 779 1909 
Q 1175 2209 1959 2209 
L 2766 2209 
L 2766 2266 
Q 2766 2663 2505 2880 
Q 2244 3097 1772 3097 
Q 1472 3097 1187 3025 
Q 903 2953 641 2809 
L 641 3341 
Q 956 3463 1253 3523 
Q 1550 3584 1831 3584 
Q 2591 3584 2966 3190 
Q 3341 2797 3341 1997 
z
" transform="scale(0.015625)"/>
       <path id="DejaVuSans-6e" d="M 3513 2113 
L 3513 0 
L 2938 0 
L 2938 2094 
Q 2938 2591 2744 2837 
Q 2550 3084 2163 3084 
Q 1697 3084 1428 2787 
Q 1159 2491 1159 1978 
L 1159 0 
L 581 0 
L 581 3500 
L 1159 3500 
L 1159 2956 
Q 1366 3272 1645 3428 
Q 1925 3584 2291 3584 
Q 2894 3584 3203 3211 
Q 3513 2838 3513 2113 
z
" transform="scale(0.015625)"/>
       <path id="DejaVuSans-64" d="M 2906 2969 
L 2906 4863 
L 3481 4863 
L 3481 0 
L 2906 0 
L 2906 525 
Q 2725 213 2448 61 
Q 2172 -91 1784 -91 
Q 1150 -91 751 415 
Q 353 922 353 1747 
Q 353 2572 751 3078 
Q 1150 3584 1784 3584 
Q 2172 3584 2448 3432 
Q 2725 3281 2906 2969 
z
M 947 1747 
Q 947 1113 1208 752 
Q 1469 391 1925 391 
Q 2381 391 2643 752 
Q 2906 1113 2906 1747 
Q 2906 2381 2643 2742 
Q 2381 3103 1925 3103 
Q 1469 3103 1208 2742 
Q 947 2381 947 1747 
z
" transform="scale(0.015625)"/>
       <path id="DejaVuSans-77" d="M 269 3500 
L 844 3500 
L 1563 769 
L 2278 3500 
L 2956 3500 
L 3675 769 
L 4391 3500 
L 4966 3500 
L 4050 0 
L 3372 0 
L 2619 2869 
L 1863 0 
L 1184 0 
L 269 3500 
z
" transform="scale(0.015625)"/>
       <path id="DejaVuSans-69" d="M 603 3500 
L 1178 3500 
L 1178 0 
L 603 0 
L 603 3500 
z
M 603 4863 
L 1178 4863 
L 1178 4134 
L 603 4134 
L 603 4863 
z
" transform="scale(0.015625)"/>
       <path id="DejaVuSans-74" d="M 1172 4494 
L 1172 3500 
L 2356 3500 
L 2356 3053 
L 1172 3053 
L 1172 1153 
Q 1172 725 1289 603 
Q 1406 481 1766 481 
L 2356 481 
L 2356 0 
L 1766 0 
Q 1100 0 847 248 
Q 594 497 594 1153 
L 594 3053 
L 172 3053 
L 172 3500 
L 594 3500 
L 594 4494 
L 1172 4494 
z
" transform="scale(0.015625)"/>
       <path id="DejaVuSans-68" d="M 3513 2113 
L 3513 0 
L 2938 0 
L 2938 2094 
Q 2938 2591 2744 2837 
Q 2550 3084 2163 3084 
Q 1697 3084 1428 2787 
Q 1159 2491 1159 1978 
L 1159 0 
L 581 0 
L 581 4863 
L 1159 4863 
L 1159 2956 
Q 1366 3272 1645 3428 
Q 1925 3584 2291 3584 
Q 2894 3584 3203 3211 
Q 3513 2838 3513 2113 
z
" transform="scale(0.015625)"/>
      </defs>
      <use xlink:href="#DejaVuSans-62"/>
      <use xlink:href="#DejaVuSans-61" transform="translate(63.476562 0)"/>
      <use xlink:href="#DejaVuSans-6e" transform="translate(124.755859 0)"/>
      <use xlink:href="#DejaVuSans-64" transform="translate(188.134766 0)"/>
      <use xlink:href="#DejaVuSans-77" transform="translate(251.611328 0)"/>
      <use xlink:href="#DejaVuSans-69" transform="translate(333.398438 0)"/>
      <use xlink:href="#DejaVuSans-64" transform="translate(361.181641 0)"/>
      <use xlink:href="#DejaVuSans-74" transform="translate(424.658203 0)"/>
      <use xlink:href="#DejaVuSans-68" transform="translate(463.867188 0)"/>
     </g>
    </g>
   </g>
   <g id="matplotlib.axis_2">
    <g id="ytick_1">
     <g id="line2d_28">
      <defs>
       <path id="mbd2f377c6c" d="M 0 0 
L -3.5 0 
" style="stroke: #000000; stroke-width: 0.8"/>
      </defs>
      <g>
       <use xlink:href="#mbd2f377c6c" x="43.78125" y="316.44327" style="stroke: #000000; stroke-width: 0.8"/>
      </g>
     </g>
     <g id="text_5">
      <!-- 1.0 -->
      <g transform="translate(20.878125 320.242489) scale(0.1 -0.1)">
       <defs>
        <path id="DejaVuSans-2e" d="M 684 794 
L 1344 794 
L 1344 0 
L 684 0 
L 684 794 
z
" transform="scale(0.015625)"/>
       </defs>
       <use xlink:href="#DejaVuSans-31"/>
       <use xlink:href="#DejaVuSans-2e" transform="translate(63.623047 0)"/>
       <use xlink:href="#DejaVuSans-30" transform="translate(95.410156 0)"/>
      </g>
     </g>
    </g>
    <g id="ytick_2">
     <g id="line2d_29">
      <g>
       <use xlink:href="#mbd2f377c6c" x="43.78125" y="267.422412" style="stroke: #000000; stroke-width: 0.8"/>
      </g>
     </g>
     <g id="text_6">
      <!-- 1.5 -->
      <g transform="translate(20.878125 271.221631) scale(0.1 -0.1)">
       <defs>
        <path id="DejaVuSans-35" d="M 691 4666 
L 3169 4666 
L 3169 4134 
L 1269 4134 
L 1269 2991 
Q 1406 3038 1543 3061 
Q 1681 3084 1819 3084 
Q 2600 3084 3056 2656 
Q 3513 2228 3513 1497 
Q 3513 744 3044 326 
Q 2575 -91 1722 -91 
Q 1428 -91 1123 -41 
Q 819 9 494 109 
L 494 744 
Q 775 591 1075 516 
Q 1375 441 1709 441 
Q 2250 441 2565 725 
Q 2881 1009 2881 1497 
Q 2881 1984 2565 2268 
Q 2250 2553 1709 2553 
Q 1456 2553 1204 2497 
Q 953 2441 691 2322 
L 691 4666 
z
" transform="scale(0.015625)"/>
       </defs>
       <use xlink:href="#DejaVuSans-31"/>
       <use xlink:href="#DejaVuSans-2e" transform="translate(63.623047 0)"/>
       <use xlink:href="#DejaVuSans-35" transform="translate(95.410156 0)"/>
      </g>
     </g>
    </g>
    <g id="ytick_3">
     <g id="line2d_30">
      <g>
       <use xlink:href="#mbd2f377c6c" x="43.78125" y="218.401555" style="stroke: #000000; stroke-width: 0.8"/>
      </g>
     </g>
     <g id="text_7">
      <!-- 2.0 -->
      <g transform="translate(20.878125 222.200774) scale(0.1 -0.1)">
       <use xlink:href="#DejaVuSans-32"/>
       <use xlink:href="#DejaVuSans-2e" transform="translate(63.623047 0)"/>
       <use xlink:href="#DejaVuSans-30" transform="translate(95.410156 0)"/>
      </g>
     </g>
    </g>
    <g id="ytick_4">
     <g id="line2d_31">
      <g>
       <use xlink:href="#mbd2f377c6c" x="43.78125" y="169.380697" style="stroke: #000000; stroke-width: 0.8"/>
      </g>
     </g>
     <g id="text_8">
      <!-- 2.5 -->
      <g transform="translate(20.878125 173.179916) scale(0.1 -0.1)">
       <use xlink:href="#DejaVuSans-32"/>
       <use xlink:href="#DejaVuSans-2e" transform="translate(63.623047 0)"/>
       <use xlink:href="#DejaVuSans-35" transform="translate(95.410156 0)"/>
      </g>
     </g>
    </g>
    <g id="ytick_5">
     <g id="line2d_32">
      <g>
       <use xlink:href="#mbd2f377c6c" x="43.78125" y="120.35984" style="stroke: #000000; stroke-width: 0.8"/>
      </g>
     </g>
     <g id="text_9">
      <!-- 3.0 -->
      <g transform="translate(20.878125 124.159059) scale(0.1 -0.1)">
       <use xlink:href="#DejaVuSans-33"/>
       <use xlink:href="#DejaVuSans-2e" transform="translate(63.623047 0)"/>
       <use xlink:href="#DejaVuSans-30" transform="translate(95.410156 0)"/>
      </g>
     </g>
    </g>
    <g id="ytick_6">
     <g id="line2d_33">
      <g>
       <use xlink:href="#mbd2f377c6c" x="43.78125" y="71.338982" style="stroke: #000000; stroke-width: 0.8"/>
      </g>
     </g>
     <g id="text_10">
      <!-- 3.5 -->
      <g transform="translate(20.878125 75.138201) scale(0.1 -0.1)">
       <use xlink:href="#DejaVuSans-33"/>
       <use xlink:href="#DejaVuSans-2e" transform="translate(63.623047 0)"/>
       <use xlink:href="#DejaVuSans-35" transform="translate(95.410156 0)"/>
      </g>
     </g>
    </g>
    <g id="ytick_7">
     <g id="line2d_34">
      <g>
       <use xlink:href="#mbd2f377c6c" x="43.78125" y="22.318125" style="stroke: #000000; stroke-width: 0.8"/>
      </g>
     </g>
     <g id="text_11">
      <!-- 4.0 -->
      <g transform="translate(20.878125 26.117344) scale(0.1 -0.1)">
       <defs>
        <path id="DejaVuSans-34" d="M 2419 4116 
L 825 1625 
L 2419 1625 
L 2419 4116 
z
M 2253 4666 
L 3047 4666 
L 3047 1625 
L 3713 1625 
L 3713 1100 
L 3047 1100 
L 3047 0 
L 2419 0 
L 2419 1100 
L 313 1100 
L 313 1709 
L 2253 4666 
z
" transform="scale(0.015625)"/>
       </defs>
       <use xlink:href="#DejaVuSans-34"/>
       <use xlink:href="#DejaVuSans-2e" transform="translate(63.623047 0)"/>
       <use xlink:href="#DejaVuSans-30" transform="translate(95.410156 0)"/>
      </g>
     </g>
    </g>
    <g id="text_12">
     <!-- alpha -->
     <g transform="translate(14.798438 183.240854) rotate(-90) scale(0.1 -0.1)">
      <defs>
       <path id="DejaVuSans-6c" d="M 603 4863 
L 1178 4863 
L 1178 0 
L 603 0 
L 603 4863 
z
" transform="scale(0.015625)"/>
       <path id="DejaVuSans-70" d="M 1159 525 
L 1159 -1331 
L 581 -1331 
L 581 3500 
L 1159 3500 
L 1159 2969 
Q 1341 3281 1617 3432 
Q 1894 3584 2278 3584 
Q 2916 3584 3314 3078 
Q 3713 2572 3713 1747 
Q 3713 922 3314 415 
Q 2916 -91 2278 -91 
Q 1894 -91 1617 61 
Q 1341 213 1159 525 
z
M 3116 1747 
Q 3116 2381 2855 2742 
Q 2594 3103 2138 3103 
Q 1681 3103 1420 2742 
Q 1159 2381 1159 1747 
Q 1159 1113 1420 752 
Q 1681 391 2138 391 
Q 2594 391 2855 752 
Q 3116 1113 3116 1747 
z
" transform="scale(0.015625)"/>
      </defs>
      <use xlink:href="#DejaVuSans-61"/>
      <use xlink:href="#DejaVuSans-6c" transform="translate(61.279297 0)"/>
      <use xlink:href="#DejaVuSans-70" transform="translate(89.0625 0)"/>
      <use xlink:href="#DejaVuSans-68" transform="translate(152.539062 0)"/>
      <use xlink:href="#DejaVuSans-61" transform="translate(215.917969 0)"/>
     </g>
    </g>
   </g>
   <g id="patch_3">
    <path d="M 43.78125 316.44327 
L 43.78125 22.318125 
" style="fill: none; stroke: #000000; stroke-width: 0.8; stroke-linejoin: miter; stroke-linecap: square"/>
   </g>
   <g id="patch_4">
    <path d="M 377.70552 316.44327 
L 377.70552 22.318125 
" style="fill: none; stroke: #000000; stroke-width: 0.8; stroke-linejoin: miter; stroke-linecap: square"/>
   </g>
   <g id="patch_5">
    <path d="M 43.78125 316.44327 
L 377.70552 316.44327 
" style="fill: none; stroke: #000000; stroke-width: 0.8; stroke-linejoin: miter; stroke-linecap: square"/>
   </g>
   <g id="patch_6">
    <path d="M 43.78125 22.318125 
L 377.70552 22.318125 
" style="fill: none; stroke: #000000; stroke-width: 0.8; stroke-linejoin: miter; stroke-linecap: square"/>
   </g>
   <g id="text_13">
    <!-- circulos_lo 7354 fkdc -->
    <g transform="translate(147.76401 16.318125) scale(0.12 -0.12)">
     <defs>
      <path id="DejaVuSans-63" d="M 3122 3366 
L 3122 2828 
Q 2878 2963 2633 3030 
Q 2388 3097 2138 3097 
Q 1578 3097 1268 2742 
Q 959 2388 959 1747 
Q 959 1106 1268 751 
Q 1578 397 2138 397 
Q 2388 397 2633 464 
Q 2878 531 3122 666 
L 3122 134 
Q 2881 22 2623 -34 
Q 2366 -91 2075 -91 
Q 1284 -91 818 406 
Q 353 903 353 1747 
Q 353 2603 823 3093 
Q 1294 3584 2113 3584 
Q 2378 3584 2631 3529 
Q 2884 3475 3122 3366 
z
" transform="scale(0.015625)"/>
      <path id="DejaVuSans-72" d="M 2631 2963 
Q 2534 3019 2420 3045 
Q 2306 3072 2169 3072 
Q 1681 3072 1420 2755 
Q 1159 2438 1159 1844 
L 1159 0 
L 581 0 
L 581 3500 
L 1159 3500 
L 1159 2956 
Q 1341 3275 1631 3429 
Q 1922 3584 2338 3584 
Q 2397 3584 2469 3576 
Q 2541 3569 2628 3553 
L 2631 2963 
z
" transform="scale(0.015625)"/>
      <path id="DejaVuSans-75" d="M 544 1381 
L 544 3500 
L 1119 3500 
L 1119 1403 
Q 1119 906 1312 657 
Q 1506 409 1894 409 
Q 2359 409 2629 706 
Q 2900 1003 2900 1516 
L 2900 3500 
L 3475 3500 
L 3475 0 
L 2900 0 
L 2900 538 
Q 2691 219 2414 64 
Q 2138 -91 1772 -91 
Q 1169 -91 856 284 
Q 544 659 544 1381 
z
M 1991 3584 
L 1991 3584 
z
" transform="scale(0.015625)"/>
      <path id="DejaVuSans-6f" d="M 1959 3097 
Q 1497 3097 1228 2736 
Q 959 2375 959 1747 
Q 959 1119 1226 758 
Q 1494 397 1959 397 
Q 2419 397 2687 759 
Q 2956 1122 2956 1747 
Q 2956 2369 2687 2733 
Q 2419 3097 1959 3097 
z
M 1959 3584 
Q 2709 3584 3137 3096 
Q 3566 2609 3566 1747 
Q 3566 888 3137 398 
Q 2709 -91 1959 -91 
Q 1206 -91 779 398 
Q 353 888 353 1747 
Q 353 2609 779 3096 
Q 1206 3584 1959 3584 
z
" transform="scale(0.015625)"/>
      <path id="DejaVuSans-73" d="M 2834 3397 
L 2834 2853 
Q 2591 2978 2328 3040 
Q 2066 3103 1784 3103 
Q 1356 3103 1142 2972 
Q 928 2841 928 2578 
Q 928 2378 1081 2264 
Q 1234 2150 1697 2047 
L 1894 2003 
Q 2506 1872 2764 1633 
Q 3022 1394 3022 966 
Q 3022 478 2636 193 
Q 2250 -91 1575 -91 
Q 1294 -91 989 -36 
Q 684 19 347 128 
L 347 722 
Q 666 556 975 473 
Q 1284 391 1588 391 
Q 1994 391 2212 530 
Q 2431 669 2431 922 
Q 2431 1156 2273 1281 
Q 2116 1406 1581 1522 
L 1381 1569 
Q 847 1681 609 1914 
Q 372 2147 372 2553 
Q 372 3047 722 3315 
Q 1072 3584 1716 3584 
Q 2034 3584 2315 3537 
Q 2597 3491 2834 3397 
z
" transform="scale(0.015625)"/>
      <path id="DejaVuSans-5f" d="M 3263 -1063 
L 3263 -1509 
L -63 -1509 
L -63 -1063 
L 3263 -1063 
z
" transform="scale(0.015625)"/>
      <path id="DejaVuSans-20" transform="scale(0.015625)"/>
      <path id="DejaVuSans-37" d="M 525 4666 
L 3525 4666 
L 3525 4397 
L 1831 0 
L 1172 0 
L 2766 4134 
L 525 4134 
L 525 4666 
z
" transform="scale(0.015625)"/>
      <path id="DejaVuSans-66" d="M 2375 4863 
L 2375 4384 
L 1825 4384 
Q 1516 4384 1395 4259 
Q 1275 4134 1275 3809 
L 1275 3500 
L 2222 3500 
L 2222 3053 
L 1275 3053 
L 1275 0 
L 697 0 
L 697 3053 
L 147 3053 
L 147 3500 
L 697 3500 
L 697 3744 
Q 697 4328 969 4595 
Q 1241 4863 1831 4863 
L 2375 4863 
z
" transform="scale(0.015625)"/>
      <path id="DejaVuSans-6b" d="M 581 4863 
L 1159 4863 
L 1159 1991 
L 2875 3500 
L 3609 3500 
L 1753 1863 
L 3688 0 
L 2938 0 
L 1159 1709 
L 1159 0 
L 581 0 
L 581 4863 
z
" transform="scale(0.015625)"/>
     </defs>
     <use xlink:href="#DejaVuSans-63"/>
     <use xlink:href="#DejaVuSans-69" transform="translate(54.980469 0)"/>
     <use xlink:href="#DejaVuSans-72" transform="translate(82.763672 0)"/>
     <use xlink:href="#DejaVuSans-63" transform="translate(121.626953 0)"/>
     <use xlink:href="#DejaVuSans-75" transform="translate(176.607422 0)"/>
     <use xlink:href="#DejaVuSans-6c" transform="translate(239.986328 0)"/>
     <use xlink:href="#DejaVuSans-6f" transform="translate(267.769531 0)"/>
     <use xlink:href="#DejaVuSans-73" transform="translate(328.951172 0)"/>
     <use xlink:href="#DejaVuSans-5f" transform="translate(381.050781 0)"/>
     <use xlink:href="#DejaVuSans-6c" transform="translate(431.050781 0)"/>
     <use xlink:href="#DejaVuSans-6f" transform="translate(458.833984 0)"/>
     <use xlink:href="#DejaVuSans-20" transform="translate(520.015625 0)"/>
     <use xlink:href="#DejaVuSans-37" transform="translate(551.802734 0)"/>
     <use xlink:href="#DejaVuSans-33" transform="translate(615.425781 0)"/>
     <use xlink:href="#DejaVuSans-35" transform="translate(679.048828 0)"/>
     <use xlink:href="#DejaVuSans-34" transform="translate(742.671875 0)"/>
     <use xlink:href="#DejaVuSans-20" transform="translate(806.294922 0)"/>
     <use xlink:href="#DejaVuSans-66" transform="translate(838.082031 0)"/>
     <use xlink:href="#DejaVuSans-6b" transform="translate(873.287109 0)"/>
     <use xlink:href="#DejaVuSans-64" transform="translate(931.197266 0)"/>
     <use xlink:href="#DejaVuSans-63" transform="translate(994.673828 0)"/>
    </g>
   </g>
  </g>
  <g id="axes_2">
   <g id="patch_7">
    <path d="M 406.151733 316.44327 
L 420.857991 316.44327 
L 420.857991 22.318125 
L 406.151733 22.318125 
z
" style="fill: #ffffff"/>
   </g>
   <g id="QuadMesh_1">
    <path d="M 406.151733 316.44327 
L 420.857991 316.44327 
L 420.857991 295.434331 
L 406.151733 295.434331 
L 406.151733 316.44327 
" clip-path="url(#p0a2dfbf1b2)" style="fill: #470e61"/>
    <path d="M 406.151733 295.434331 
L 420.857991 295.434331 
L 420.857991 274.425392 
L 406.151733 274.425392 
L 406.151733 295.434331 
" clip-path="url(#p0a2dfbf1b2)" style="fill: #482677"/>
    <path d="M 406.151733 274.425392 
L 420.857991 274.425392 
L 420.857991 253.416453 
L 406.151733 253.416453 
L 406.151733 274.425392 
" clip-path="url(#p0a2dfbf1b2)" style="fill: #433d84"/>
    <path d="M 406.151733 253.416453 
L 420.857991 253.416453 
L 420.857991 232.407514 
L 406.151733 232.407514 
L 406.151733 253.416453 
" clip-path="url(#p0a2dfbf1b2)" style="fill: #3b528b"/>
    <path d="M 406.151733 232.407514 
L 420.857991 232.407514 
L 420.857991 211.398575 
L 406.151733 211.398575 
L 406.151733 232.407514 
" clip-path="url(#p0a2dfbf1b2)" style="fill: #32658e"/>
    <path d="M 406.151733 211.398575 
L 420.857991 211.398575 
L 420.857991 190.389636 
L 406.151733 190.389636 
L 406.151733 211.398575 
" clip-path="url(#p0a2dfbf1b2)" style="fill: #2a768e"/>
    <path d="M 406.151733 190.389636 
L 420.857991 190.389636 
L 420.857991 169.380697 
L 406.151733 169.380697 
L 406.151733 190.389636 
" clip-path="url(#p0a2dfbf1b2)" style="fill: #24878e"/>
    <path d="M 406.151733 169.380697 
L 420.857991 169.380697 
L 420.857991 148.371759 
L 406.151733 148.371759 
L 406.151733 169.380697 
" clip-path="url(#p0a2dfbf1b2)" style="fill: #1f998a"/>
    <path d="M 406.151733 148.371759 
L 420.857991 148.371759 
L 420.857991 127.36282 
L 406.151733 127.36282 
L 406.151733 148.371759 
" clip-path="url(#p0a2dfbf1b2)" style="fill: #24aa83"/>
    <path d="M 406.151733 127.36282 
L 420.857991 127.36282 
L 420.857991 106.353881 
L 406.151733 106.353881 
L 406.151733 127.36282 
" clip-path="url(#p0a2dfbf1b2)" style="fill: #3aba76"/>
    <path d="M 406.151733 106.353881 
L 420.857991 106.353881 
L 420.857991 85.344942 
L 406.151733 85.344942 
L 406.151733 106.353881 
" clip-path="url(#p0a2dfbf1b2)" style="fill: #5ec962"/>
    <path d="M 406.151733 85.344942 
L 420.857991 85.344942 
L 420.857991 64.336003 
L 406.151733 64.336003 
L 406.151733 85.344942 
" clip-path="url(#p0a2dfbf1b2)" style="fill: #89d548"/>
    <path d="M 406.151733 64.336003 
L 420.857991 64.336003 
L 420.857991 43.327064 
L 406.151733 43.327064 
L 406.151733 64.336003 
" clip-path="url(#p0a2dfbf1b2)" style="fill: #b8de29"/>
    <path d="M 406.151733 43.327064 
L 420.857991 43.327064 
L 420.857991 22.318125 
L 406.151733 22.318125 
L 406.151733 43.327064 
" clip-path="url(#p0a2dfbf1b2)" style="fill: #e7e419"/>
   </g>
   <g id="matplotlib.axis_3"/>
   <g id="matplotlib.axis_4">
    <g id="ytick_8">
     <g id="line2d_35">
      <defs>
       <path id="m0a27ea52cb" d="M 0 0 
L 3.5 0 
" style="stroke: #000000; stroke-width: 0.8"/>
      </defs>
      <g>
       <use xlink:href="#m0a27ea52cb" x="420.857991" y="316.44327" style="stroke: #000000; stroke-width: 0.8"/>
      </g>
     </g>
     <g id="text_14">
      <!-- -5.6 -->
      <g transform="translate(427.857991 320.242489) scale(0.1 -0.1)">
       <defs>
        <path id="DejaVuSans-2d" d="M 313 2009 
L 1997 2009 
L 1997 1497 
L 313 1497 
L 313 2009 
z
" transform="scale(0.015625)"/>
        <path id="DejaVuSans-36" d="M 2113 2584 
Q 1688 2584 1439 2293 
Q 1191 2003 1191 1497 
Q 1191 994 1439 701 
Q 1688 409 2113 409 
Q 2538 409 2786 701 
Q 3034 994 3034 1497 
Q 3034 2003 2786 2293 
Q 2538 2584 2113 2584 
z
M 3366 4563 
L 3366 3988 
Q 3128 4100 2886 4159 
Q 2644 4219 2406 4219 
Q 1781 4219 1451 3797 
Q 1122 3375 1075 2522 
Q 1259 2794 1537 2939 
Q 1816 3084 2150 3084 
Q 2853 3084 3261 2657 
Q 3669 2231 3669 1497 
Q 3669 778 3244 343 
Q 2819 -91 2113 -91 
Q 1303 -91 875 529 
Q 447 1150 447 2328 
Q 447 3434 972 4092 
Q 1497 4750 2381 4750 
Q 2619 4750 2861 4703 
Q 3103 4656 3366 4563 
z
" transform="scale(0.015625)"/>
       </defs>
       <use xlink:href="#DejaVuSans-2d"/>
       <use xlink:href="#DejaVuSans-35" transform="translate(36.083984 0)"/>
       <use xlink:href="#DejaVuSans-2e" transform="translate(99.707031 0)"/>
       <use xlink:href="#DejaVuSans-36" transform="translate(131.494141 0)"/>
      </g>
     </g>
    </g>
    <g id="ytick_9">
     <g id="line2d_36">
      <g>
       <use xlink:href="#m0a27ea52cb" x="420.857991" y="274.425392" style="stroke: #000000; stroke-width: 0.8"/>
      </g>
     </g>
     <g id="text_15">
      <!-- -4.8 -->
      <g transform="translate(427.857991 278.224611) scale(0.1 -0.1)">
       <defs>
        <path id="DejaVuSans-38" d="M 2034 2216 
Q 1584 2216 1326 1975 
Q 1069 1734 1069 1313 
Q 1069 891 1326 650 
Q 1584 409 2034 409 
Q 2484 409 2743 651 
Q 3003 894 3003 1313 
Q 3003 1734 2745 1975 
Q 2488 2216 2034 2216 
z
M 1403 2484 
Q 997 2584 770 2862 
Q 544 3141 544 3541 
Q 544 4100 942 4425 
Q 1341 4750 2034 4750 
Q 2731 4750 3128 4425 
Q 3525 4100 3525 3541 
Q 3525 3141 3298 2862 
Q 3072 2584 2669 2484 
Q 3125 2378 3379 2068 
Q 3634 1759 3634 1313 
Q 3634 634 3220 271 
Q 2806 -91 2034 -91 
Q 1263 -91 848 271 
Q 434 634 434 1313 
Q 434 1759 690 2068 
Q 947 2378 1403 2484 
z
M 1172 3481 
Q 1172 3119 1398 2916 
Q 1625 2713 2034 2713 
Q 2441 2713 2670 2916 
Q 2900 3119 2900 3481 
Q 2900 3844 2670 4047 
Q 2441 4250 2034 4250 
Q 1625 4250 1398 4047 
Q 1172 3844 1172 3481 
z
" transform="scale(0.015625)"/>
       </defs>
       <use xlink:href="#DejaVuSans-2d"/>
       <use xlink:href="#DejaVuSans-34" transform="translate(36.083984 0)"/>
       <use xlink:href="#DejaVuSans-2e" transform="translate(99.707031 0)"/>
       <use xlink:href="#DejaVuSans-38" transform="translate(131.494141 0)"/>
      </g>
     </g>
    </g>
    <g id="ytick_10">
     <g id="line2d_37">
      <g>
       <use xlink:href="#m0a27ea52cb" x="420.857991" y="232.407514" style="stroke: #000000; stroke-width: 0.8"/>
      </g>
     </g>
     <g id="text_16">
      <!-- -4.0 -->
      <g transform="translate(427.857991 236.206733) scale(0.1 -0.1)">
       <use xlink:href="#DejaVuSans-2d"/>
       <use xlink:href="#DejaVuSans-34" transform="translate(36.083984 0)"/>
       <use xlink:href="#DejaVuSans-2e" transform="translate(99.707031 0)"/>
       <use xlink:href="#DejaVuSans-30" transform="translate(131.494141 0)"/>
      </g>
     </g>
    </g>
    <g id="ytick_11">
     <g id="line2d_38">
      <g>
       <use xlink:href="#m0a27ea52cb" x="420.857991" y="190.389636" style="stroke: #000000; stroke-width: 0.8"/>
      </g>
     </g>
     <g id="text_17">
      <!-- -3.2 -->
      <g transform="translate(427.857991 194.188855) scale(0.1 -0.1)">
       <use xlink:href="#DejaVuSans-2d"/>
       <use xlink:href="#DejaVuSans-33" transform="translate(36.083984 0)"/>
       <use xlink:href="#DejaVuSans-2e" transform="translate(99.707031 0)"/>
       <use xlink:href="#DejaVuSans-32" transform="translate(131.494141 0)"/>
      </g>
     </g>
    </g>
    <g id="ytick_12">
     <g id="line2d_39">
      <g>
       <use xlink:href="#m0a27ea52cb" x="420.857991" y="148.371759" style="stroke: #000000; stroke-width: 0.8"/>
      </g>
     </g>
     <g id="text_18">
      <!-- -2.4 -->
      <g transform="translate(427.857991 152.170977) scale(0.1 -0.1)">
       <use xlink:href="#DejaVuSans-2d"/>
       <use xlink:href="#DejaVuSans-32" transform="translate(36.083984 0)"/>
       <use xlink:href="#DejaVuSans-2e" transform="translate(99.707031 0)"/>
       <use xlink:href="#DejaVuSans-34" transform="translate(131.494141 0)"/>
      </g>
     </g>
    </g>
    <g id="ytick_13">
     <g id="line2d_40">
      <g>
       <use xlink:href="#m0a27ea52cb" x="420.857991" y="106.353881" style="stroke: #000000; stroke-width: 0.8"/>
      </g>
     </g>
     <g id="text_19">
      <!-- -1.6 -->
      <g transform="translate(427.857991 110.153099) scale(0.1 -0.1)">
       <use xlink:href="#DejaVuSans-2d"/>
       <use xlink:href="#DejaVuSans-31" transform="translate(36.083984 0)"/>
       <use xlink:href="#DejaVuSans-2e" transform="translate(99.707031 0)"/>
       <use xlink:href="#DejaVuSans-36" transform="translate(131.494141 0)"/>
      </g>
     </g>
    </g>
    <g id="ytick_14">
     <g id="line2d_41">
      <g>
       <use xlink:href="#m0a27ea52cb" x="420.857991" y="64.336003" style="stroke: #000000; stroke-width: 0.8"/>
      </g>
     </g>
     <g id="text_20">
      <!-- -0.8 -->
      <g transform="translate(427.857991 68.135222) scale(0.1 -0.1)">
       <use xlink:href="#DejaVuSans-2d"/>
       <use xlink:href="#DejaVuSans-30" transform="translate(36.083984 0)"/>
       <use xlink:href="#DejaVuSans-2e" transform="translate(99.707031 0)"/>
       <use xlink:href="#DejaVuSans-38" transform="translate(131.494141 0)"/>
      </g>
     </g>
    </g>
    <g id="ytick_15">
     <g id="line2d_42">
      <g>
       <use xlink:href="#m0a27ea52cb" x="420.857991" y="22.318125" style="stroke: #000000; stroke-width: 0.8"/>
      </g>
     </g>
     <g id="text_21">
      <!-- 0.0 -->
      <g transform="translate(427.857991 26.117344) scale(0.1 -0.1)">
       <use xlink:href="#DejaVuSans-30"/>
       <use xlink:href="#DejaVuSans-2e" transform="translate(63.623047 0)"/>
       <use xlink:href="#DejaVuSans-30" transform="translate(95.410156 0)"/>
      </g>
     </g>
    </g>
    <g id="text_22">
     <!-- Score -->
     <g transform="translate(458.967366 183.383041) rotate(-90) scale(0.1 -0.1)">
      <defs>
       <path id="DejaVuSans-53" d="M 3425 4513 
L 3425 3897 
Q 3066 4069 2747 4153 
Q 2428 4238 2131 4238 
Q 1616 4238 1336 4038 
Q 1056 3838 1056 3469 
Q 1056 3159 1242 3001 
Q 1428 2844 1947 2747 
L 2328 2669 
Q 3034 2534 3370 2195 
Q 3706 1856 3706 1288 
Q 3706 609 3251 259 
Q 2797 -91 1919 -91 
Q 1588 -91 1214 -16 
Q 841 59 441 206 
L 441 856 
Q 825 641 1194 531 
Q 1563 422 1919 422 
Q 2459 422 2753 634 
Q 3047 847 3047 1241 
Q 3047 1584 2836 1778 
Q 2625 1972 2144 2069 
L 1759 2144 
Q 1053 2284 737 2584 
Q 422 2884 422 3419 
Q 422 4038 858 4394 
Q 1294 4750 2059 4750 
Q 2388 4750 2728 4690 
Q 3069 4631 3425 4513 
z
" transform="scale(0.015625)"/>
       <path id="DejaVuSans-65" d="M 3597 1894 
L 3597 1613 
L 953 1613 
Q 991 1019 1311 708 
Q 1631 397 2203 397 
Q 2534 397 2845 478 
Q 3156 559 3463 722 
L 3463 178 
Q 3153 47 2828 -22 
Q 2503 -91 2169 -91 
Q 1331 -91 842 396 
Q 353 884 353 1716 
Q 353 2575 817 3079 
Q 1281 3584 2069 3584 
Q 2775 3584 3186 3129 
Q 3597 2675 3597 1894 
z
M 3022 2063 
Q 3016 2534 2758 2815 
Q 2500 3097 2075 3097 
Q 1594 3097 1305 2825 
Q 1016 2553 972 2059 
L 3022 2063 
z
" transform="scale(0.015625)"/>
      </defs>
      <use xlink:href="#DejaVuSans-53"/>
      <use xlink:href="#DejaVuSans-63" transform="translate(63.476562 0)"/>
      <use xlink:href="#DejaVuSans-6f" transform="translate(118.457031 0)"/>
      <use xlink:href="#DejaVuSans-72" transform="translate(179.638672 0)"/>
      <use xlink:href="#DejaVuSans-65" transform="translate(218.501953 0)"/>
     </g>
    </g>
   </g>
   <g id="LineCollection_1"/>
   <g id="patch_8">
    <path d="M 406.151733 316.44327 
L 413.504862 316.44327 
L 420.857991 316.44327 
L 420.857991 22.318125 
L 413.504862 22.318125 
L 406.151733 22.318125 
L 406.151733 316.44327 
z
" style="fill: none; stroke: #000000; stroke-width: 0.8; stroke-linejoin: miter; stroke-linecap: square"/>
   </g>
  </g>
 </g>
 <defs>
  <clipPath id="p0a7174c9c2">
   <rect x="43.78125" y="22.318125" width="333.92427" height="294.125145"/>
  </clipPath>
  <clipPath id="p0a2dfbf1b2">
   <rect x="406.151733" y="22.318125" width="14.706257" height="294.125145"/>
  </clipPath>
 </defs>
</svg>
