<?xml version="1.0" encoding="utf-8" standalone="no"?>
<!DOCTYPE svg PUBLIC "-//W3C//DTD SVG 1.1//EN"
  "http://www.w3.org/Graphics/SVG/1.1/DTD/svg11.dtd">
<svg xmlns:xlink="http://www.w3.org/1999/xlink" width="460.8pt" height="345.6pt" viewBox="0 0 460.8 345.6" xmlns="http://www.w3.org/2000/svg" version="1.1">
 <metadata>
  <rdf:RDF xmlns:dc="http://purl.org/dc/elements/1.1/" xmlns:cc="http://creativecommons.org/ns#" xmlns:rdf="http://www.w3.org/1999/02/22-rdf-syntax-ns#">
   <cc:Work>
    <dc:type rdf:resource="http://purl.org/dc/dcmitype/StillImage"/>
    <dc:date>2025-11-23T17:47:04.067744</dc:date>
    <dc:format>image/svg+xml</dc:format>
    <dc:creator>
     <cc:Agent>
      <dc:title>Matplotlib v3.10.7, https://matplotlib.org/</dc:title>
     </cc:Agent>
    </dc:creator>
   </cc:Work>
  </rdf:RDF>
 </metadata>
 <defs>
  <style type="text/css">*{stroke-linejoin: round; stroke-linecap: butt}</style>
 </defs>
 <g id="figure_1">
  <g id="patch_1">
   <path d="M 0 345.6 
L 460.8 345.6 
L 460.8 0 
L 0 0 
z
" style="fill: #ffffff"/>
  </g>
  <g id="axes_1">
   <g id="patch_2">
    <path d="M 60.10625 331.3 
L 450 331.3 
L 450 25.918125 
L 60.10625 25.918125 
z
" style="fill: #ffffff"/>
   </g>
   <g id="patch_3">
    <path d="M 255.053125 1670.327156 
L 255.053125 1670.327156 
L 255.053125 1670.327156 
L 255.053125 1670.327156 
z
" clip-path="url(#pa054b16933)" style="fill: #96cac1; stroke: #626262; stroke-linejoin: miter"/>
   </g>
   <g id="patch_4">
    <path d="M 255.053125 1670.327156 
L 255.053125 1670.327156 
L 255.053125 1670.327156 
L 255.053125 1670.327156 
z
" clip-path="url(#pa054b16933)" style="fill: #8aafc9; stroke: #626262; stroke-linejoin: miter"/>
   </g>
   <g id="patch_5">
    <path d="M 255.053125 1670.327156 
L 255.053125 1670.327156 
L 255.053125 1670.327156 
L 255.053125 1670.327156 
z
" clip-path="url(#pa054b16933)" style="fill: #d9d9d9; stroke: #626262; stroke-linejoin: miter"/>
   </g>
   <g id="patch_6">
    <path d="M 255.053125 1670.327156 
L 255.053125 1670.327156 
L 255.053125 1670.327156 
L 255.053125 1670.327156 
z
" clip-path="url(#pa054b16933)" style="fill: #c1bed6; stroke: #626262; stroke-linejoin: miter"/>
   </g>
   <g id="patch_7">
    <path d="M 255.053125 1670.327156 
L 255.053125 1670.327156 
L 255.053125 1670.327156 
L 255.053125 1670.327156 
z
" clip-path="url(#pa054b16933)" style="fill: #f6f6bc; stroke: #626262; stroke-linejoin: miter"/>
   </g>
   <g id="patch_8">
    <path d="M 255.053125 1670.327156 
L 255.053125 1670.327156 
L 255.053125 1670.327156 
L 255.053125 1670.327156 
z
" clip-path="url(#pa054b16933)" style="fill: #ea8e83; stroke: #626262; stroke-linejoin: miter"/>
   </g>
   <g id="patch_9">
    <path d="M 255.053125 1670.327156 
L 255.053125 1670.327156 
L 255.053125 1670.327156 
L 255.053125 1670.327156 
z
" clip-path="url(#pa054b16933)" style="fill: #eab375; stroke: #626262; stroke-linejoin: miter"/>
   </g>
   <g id="patch_10">
    <path d="M 255.053125 1670.327156 
L 255.053125 1670.327156 
L 255.053125 1670.327156 
L 255.053125 1670.327156 
z
" clip-path="url(#pa054b16933)" style="fill: #afcf78; stroke: #626262; stroke-linejoin: miter"/>
   </g>
   <g id="matplotlib.axis_1">
    <g id="xtick_1">
     <g id="line2d_1">
      <defs>
       <path id="m233b0ac74f" d="M 0 0 
L 0 3.5 
" style="stroke: #000000; stroke-width: 0.8"/>
      </defs>
      <g>
       <use xlink:href="#m233b0ac74f" x="255.053125" y="331.3" style="stroke: #000000; stroke-width: 0.8"/>
      </g>
     </g>
    </g>
   </g>
   <g id="matplotlib.axis_2">
    <g id="ytick_1">
     <g id="line2d_2">
      <defs>
       <path id="m2372dbbf14" d="M 0 0 
L -3.5 0 
" style="stroke: #000000; stroke-width: 0.8"/>
      </defs>
      <g>
       <use xlink:href="#m2372dbbf14" x="60.10625" y="306.072013" style="stroke: #000000; stroke-width: 0.8"/>
      </g>
     </g>
     <g id="text_1">
      <!-- 0.825 -->
      <g transform="translate(24.478125 309.871231) scale(0.1 -0.1)">
       <defs>
        <path id="DejaVuSans-30" d="M 2034 4250 
Q 1547 4250 1301 3770 
Q 1056 3291 1056 2328 
Q 1056 1369 1301 889 
Q 1547 409 2034 409 
Q 2525 409 2770 889 
Q 3016 1369 3016 2328 
Q 3016 3291 2770 3770 
Q 2525 4250 2034 4250 
z
M 2034 4750 
Q 2819 4750 3233 4129 
Q 3647 3509 3647 2328 
Q 3647 1150 3233 529 
Q 2819 -91 2034 -91 
Q 1250 -91 836 529 
Q 422 1150 422 2328 
Q 422 3509 836 4129 
Q 1250 4750 2034 4750 
z
" transform="scale(0.015625)"/>
        <path id="DejaVuSans-2e" d="M 684 794 
L 1344 794 
L 1344 0 
L 684 0 
L 684 794 
z
" transform="scale(0.015625)"/>
        <path id="DejaVuSans-38" d="M 2034 2216 
Q 1584 2216 1326 1975 
Q 1069 1734 1069 1313 
Q 1069 891 1326 650 
Q 1584 409 2034 409 
Q 2484 409 2743 651 
Q 3003 894 3003 1313 
Q 3003 1734 2745 1975 
Q 2488 2216 2034 2216 
z
M 1403 2484 
Q 997 2584 770 2862 
Q 544 3141 544 3541 
Q 544 4100 942 4425 
Q 1341 4750 2034 4750 
Q 2731 4750 3128 4425 
Q 3525 4100 3525 3541 
Q 3525 3141 3298 2862 
Q 3072 2584 2669 2484 
Q 3125 2378 3379 2068 
Q 3634 1759 3634 1313 
Q 3634 634 3220 271 
Q 2806 -91 2034 -91 
Q 1263 -91 848 271 
Q 434 634 434 1313 
Q 434 1759 690 2068 
Q 947 2378 1403 2484 
z
M 1172 3481 
Q 1172 3119 1398 2916 
Q 1625 2713 2034 2713 
Q 2441 2713 2670 2916 
Q 2900 3119 2900 3481 
Q 2900 3844 2670 4047 
Q 2441 4250 2034 4250 
Q 1625 4250 1398 4047 
Q 1172 3844 1172 3481 
z
" transform="scale(0.015625)"/>
        <path id="DejaVuSans-32" d="M 1228 531 
L 3431 531 
L 3431 0 
L 469 0 
L 469 531 
Q 828 903 1448 1529 
Q 2069 2156 2228 2338 
Q 2531 2678 2651 2914 
Q 2772 3150 2772 3378 
Q 2772 3750 2511 3984 
Q 2250 4219 1831 4219 
Q 1534 4219 1204 4116 
Q 875 4013 500 3803 
L 500 4441 
Q 881 4594 1212 4672 
Q 1544 4750 1819 4750 
Q 2544 4750 2975 4387 
Q 3406 4025 3406 3419 
Q 3406 3131 3298 2873 
Q 3191 2616 2906 2266 
Q 2828 2175 2409 1742 
Q 1991 1309 1228 531 
z
" transform="scale(0.015625)"/>
        <path id="DejaVuSans-35" d="M 691 4666 
L 3169 4666 
L 3169 4134 
L 1269 4134 
L 1269 2991 
Q 1406 3038 1543 3061 
Q 1681 3084 1819 3084 
Q 2600 3084 3056 2656 
Q 3513 2228 3513 1497 
Q 3513 744 3044 326 
Q 2575 -91 1722 -91 
Q 1428 -91 1123 -41 
Q 819 9 494 109 
L 494 744 
Q 775 591 1075 516 
Q 1375 441 1709 441 
Q 2250 441 2565 725 
Q 2881 1009 2881 1497 
Q 2881 1984 2565 2268 
Q 2250 2553 1709 2553 
Q 1456 2553 1204 2497 
Q 953 2441 691 2322 
L 691 4666 
z
" transform="scale(0.015625)"/>
       </defs>
       <use xlink:href="#DejaVuSans-30"/>
       <use xlink:href="#DejaVuSans-2e" transform="translate(63.623047 0)"/>
       <use xlink:href="#DejaVuSans-38" transform="translate(95.410156 0)"/>
       <use xlink:href="#DejaVuSans-32" transform="translate(159.033203 0)"/>
       <use xlink:href="#DejaVuSans-35" transform="translate(222.65625 0)"/>
      </g>
     </g>
    </g>
    <g id="ytick_2">
     <g id="line2d_3">
      <g>
       <use xlink:href="#m2372dbbf14" x="60.10625" y="264.730948" style="stroke: #000000; stroke-width: 0.8"/>
      </g>
     </g>
     <g id="text_2">
      <!-- 0.850 -->
      <g transform="translate(24.478125 268.530166) scale(0.1 -0.1)">
       <use xlink:href="#DejaVuSans-30"/>
       <use xlink:href="#DejaVuSans-2e" transform="translate(63.623047 0)"/>
       <use xlink:href="#DejaVuSans-38" transform="translate(95.410156 0)"/>
       <use xlink:href="#DejaVuSans-35" transform="translate(159.033203 0)"/>
       <use xlink:href="#DejaVuSans-30" transform="translate(222.65625 0)"/>
      </g>
     </g>
    </g>
    <g id="ytick_3">
     <g id="line2d_4">
      <g>
       <use xlink:href="#m2372dbbf14" x="60.10625" y="223.389883" style="stroke: #000000; stroke-width: 0.8"/>
      </g>
     </g>
     <g id="text_3">
      <!-- 0.875 -->
      <g transform="translate(24.478125 227.189101) scale(0.1 -0.1)">
       <defs>
        <path id="DejaVuSans-37" d="M 525 4666 
L 3525 4666 
L 3525 4397 
L 1831 0 
L 1172 0 
L 2766 4134 
L 525 4134 
L 525 4666 
z
" transform="scale(0.015625)"/>
       </defs>
       <use xlink:href="#DejaVuSans-30"/>
       <use xlink:href="#DejaVuSans-2e" transform="translate(63.623047 0)"/>
       <use xlink:href="#DejaVuSans-38" transform="translate(95.410156 0)"/>
       <use xlink:href="#DejaVuSans-37" transform="translate(159.033203 0)"/>
       <use xlink:href="#DejaVuSans-35" transform="translate(222.65625 0)"/>
      </g>
     </g>
    </g>
    <g id="ytick_4">
     <g id="line2d_5">
      <g>
       <use xlink:href="#m2372dbbf14" x="60.10625" y="182.048818" style="stroke: #000000; stroke-width: 0.8"/>
      </g>
     </g>
     <g id="text_4">
      <!-- 0.900 -->
      <g transform="translate(24.478125 185.848037) scale(0.1 -0.1)">
       <defs>
        <path id="DejaVuSans-39" d="M 703 97 
L 703 672 
Q 941 559 1184 500 
Q 1428 441 1663 441 
Q 2288 441 2617 861 
Q 2947 1281 2994 2138 
Q 2813 1869 2534 1725 
Q 2256 1581 1919 1581 
Q 1219 1581 811 2004 
Q 403 2428 403 3163 
Q 403 3881 828 4315 
Q 1253 4750 1959 4750 
Q 2769 4750 3195 4129 
Q 3622 3509 3622 2328 
Q 3622 1225 3098 567 
Q 2575 -91 1691 -91 
Q 1453 -91 1209 -44 
Q 966 3 703 97 
z
M 1959 2075 
Q 2384 2075 2632 2365 
Q 2881 2656 2881 3163 
Q 2881 3666 2632 3958 
Q 2384 4250 1959 4250 
Q 1534 4250 1286 3958 
Q 1038 3666 1038 3163 
Q 1038 2656 1286 2365 
Q 1534 2075 1959 2075 
z
" transform="scale(0.015625)"/>
       </defs>
       <use xlink:href="#DejaVuSans-30"/>
       <use xlink:href="#DejaVuSans-2e" transform="translate(63.623047 0)"/>
       <use xlink:href="#DejaVuSans-39" transform="translate(95.410156 0)"/>
       <use xlink:href="#DejaVuSans-30" transform="translate(159.033203 0)"/>
       <use xlink:href="#DejaVuSans-30" transform="translate(222.65625 0)"/>
      </g>
     </g>
    </g>
    <g id="ytick_5">
     <g id="line2d_6">
      <g>
       <use xlink:href="#m2372dbbf14" x="60.10625" y="140.707753" style="stroke: #000000; stroke-width: 0.8"/>
      </g>
     </g>
     <g id="text_5">
      <!-- 0.925 -->
      <g transform="translate(24.478125 144.506972) scale(0.1 -0.1)">
       <use xlink:href="#DejaVuSans-30"/>
       <use xlink:href="#DejaVuSans-2e" transform="translate(63.623047 0)"/>
       <use xlink:href="#DejaVuSans-39" transform="translate(95.410156 0)"/>
       <use xlink:href="#DejaVuSans-32" transform="translate(159.033203 0)"/>
       <use xlink:href="#DejaVuSans-35" transform="translate(222.65625 0)"/>
      </g>
     </g>
    </g>
    <g id="ytick_6">
     <g id="line2d_7">
      <g>
       <use xlink:href="#m2372dbbf14" x="60.10625" y="99.366688" style="stroke: #000000; stroke-width: 0.8"/>
      </g>
     </g>
     <g id="text_6">
      <!-- 0.950 -->
      <g transform="translate(24.478125 103.165907) scale(0.1 -0.1)">
       <use xlink:href="#DejaVuSans-30"/>
       <use xlink:href="#DejaVuSans-2e" transform="translate(63.623047 0)"/>
       <use xlink:href="#DejaVuSans-39" transform="translate(95.410156 0)"/>
       <use xlink:href="#DejaVuSans-35" transform="translate(159.033203 0)"/>
       <use xlink:href="#DejaVuSans-30" transform="translate(222.65625 0)"/>
      </g>
     </g>
    </g>
    <g id="ytick_7">
     <g id="line2d_8">
      <g>
       <use xlink:href="#m2372dbbf14" x="60.10625" y="58.025623" style="stroke: #000000; stroke-width: 0.8"/>
      </g>
     </g>
     <g id="text_7">
      <!-- 0.975 -->
      <g transform="translate(24.478125 61.824842) scale(0.1 -0.1)">
       <use xlink:href="#DejaVuSans-30"/>
       <use xlink:href="#DejaVuSans-2e" transform="translate(63.623047 0)"/>
       <use xlink:href="#DejaVuSans-39" transform="translate(95.410156 0)"/>
       <use xlink:href="#DejaVuSans-37" transform="translate(159.033203 0)"/>
       <use xlink:href="#DejaVuSans-35" transform="translate(222.65625 0)"/>
      </g>
     </g>
    </g>
    <g id="text_8">
     <!-- r2 -->
     <g transform="translate(18.398438 183.845781) rotate(-90) scale(0.1 -0.1)">
      <defs>
       <path id="DejaVuSans-72" d="M 2631 2963 
Q 2534 3019 2420 3045 
Q 2306 3072 2169 3072 
Q 1681 3072 1420 2755 
Q 1159 2438 1159 1844 
L 1159 0 
L 581 0 
L 581 3500 
L 1159 3500 
L 1159 2956 
Q 1341 3275 1631 3429 
Q 1922 3584 2338 3584 
Q 2397 3584 2469 3576 
Q 2541 3569 2628 3553 
L 2631 2963 
z
" transform="scale(0.015625)"/>
      </defs>
      <use xlink:href="#DejaVuSans-72"/>
      <use xlink:href="#DejaVuSans-32" transform="translate(41.113281 0)"/>
     </g>
    </g>
   </g>
   <g id="patch_11">
    <path d="M 102.994563 58.809307 
L 134.186062 58.809307 
L 134.186062 49.227446 
L 102.994563 49.227446 
L 102.994563 58.809307 
z
" clip-path="url(#pa054b16933)" style="fill: #96cac1; stroke: #626262; stroke-linejoin: miter"/>
   </g>
   <g id="line2d_9">
    <path d="M 118.590313 58.809307 
L 118.590313 72.744609 
" clip-path="url(#pa054b16933)" style="fill: none; stroke: #626262"/>
   </g>
   <g id="line2d_10">
    <path d="M 118.590313 49.227446 
L 118.590313 39.799119 
" clip-path="url(#pa054b16933)" style="fill: none; stroke: #626262"/>
   </g>
   <g id="line2d_11">
    <path d="M 110.792437 72.744609 
L 126.388188 72.744609 
" clip-path="url(#pa054b16933)" style="fill: none; stroke: #626262; stroke-linecap: square"/>
   </g>
   <g id="line2d_12">
    <path d="M 110.792437 39.799119 
L 126.388188 39.799119 
" clip-path="url(#pa054b16933)" style="fill: none; stroke: #626262; stroke-linecap: square"/>
   </g>
   <g id="line2d_13">
    <defs>
     <path id="m6a45f4eaff" d="M 0 3 
C 0.795609 3 1.55874 2.683901 2.12132 2.12132 
C 2.683901 1.55874 3 0.795609 3 0 
C 3 -0.795609 2.683901 -1.55874 2.12132 -2.12132 
C 1.55874 -2.683901 0.795609 -3 0 -3 
C -0.795609 -3 -1.55874 -2.683901 -2.12132 -2.12132 
C -2.683901 -1.55874 -3 -0.795609 -3 0 
C -3 0.795609 -2.683901 1.55874 -2.12132 2.12132 
C -1.55874 2.683901 -0.795609 3 0 3 
z
" style="stroke: #626262"/>
    </defs>
    <g clip-path="url(#pa054b16933)">
     <use xlink:href="#m6a45f4eaff" x="118.590313" y="76.846701" style="fill-opacity: 0; stroke: #626262"/>
     <use xlink:href="#m6a45f4eaff" x="118.590313" y="77.702197" style="fill-opacity: 0; stroke: #626262"/>
    </g>
   </g>
   <g id="patch_12">
    <path d="M 141.983937 167.985631 
L 173.175438 167.985631 
L 173.175438 116.028376 
L 141.983937 116.028376 
L 141.983937 167.985631 
z
" clip-path="url(#pa054b16933)" style="fill: #8aafc9; stroke: #626262; stroke-linejoin: miter"/>
   </g>
   <g id="line2d_14">
    <path d="M 157.579688 167.985631 
L 157.579688 210.93742 
" clip-path="url(#pa054b16933)" style="fill: none; stroke: #626262"/>
   </g>
   <g id="line2d_15">
    <path d="M 157.579688 116.028376 
L 157.579688 83.549947 
" clip-path="url(#pa054b16933)" style="fill: none; stroke: #626262"/>
   </g>
   <g id="line2d_16">
    <path d="M 149.781813 210.93742 
L 165.377563 210.93742 
" clip-path="url(#pa054b16933)" style="fill: none; stroke: #626262; stroke-linecap: square"/>
   </g>
   <g id="line2d_17">
    <path d="M 149.781813 83.549947 
L 165.377563 83.549947 
" clip-path="url(#pa054b16933)" style="fill: none; stroke: #626262; stroke-linecap: square"/>
   </g>
   <g id="line2d_18">
    <g clip-path="url(#pa054b16933)">
     <use xlink:href="#m6a45f4eaff" x="157.579688" y="302.673918" style="fill-opacity: 0; stroke: #626262"/>
    </g>
   </g>
   <g id="patch_13">
    <path d="M 180.973312 119.679844 
L 212.164812 119.679844 
L 212.164812 106.228319 
L 180.973312 106.228319 
L 180.973312 119.679844 
z
" clip-path="url(#pa054b16933)" style="fill: #d9d9d9; stroke: #626262; stroke-linejoin: miter"/>
   </g>
   <g id="line2d_19">
    <path d="M 196.569063 119.679844 
L 196.569063 137.790544 
" clip-path="url(#pa054b16933)" style="fill: none; stroke: #626262"/>
   </g>
   <g id="line2d_20">
    <path d="M 196.569063 106.228319 
L 196.569063 91.323948 
" clip-path="url(#pa054b16933)" style="fill: none; stroke: #626262"/>
   </g>
   <g id="line2d_21">
    <path d="M 188.771187 137.790544 
L 204.366938 137.790544 
" clip-path="url(#pa054b16933)" style="fill: none; stroke: #626262; stroke-linecap: square"/>
   </g>
   <g id="line2d_22">
    <path d="M 188.771187 91.323948 
L 204.366938 91.323948 
" clip-path="url(#pa054b16933)" style="fill: none; stroke: #626262; stroke-linecap: square"/>
   </g>
   <g id="line2d_23">
    <g clip-path="url(#pa054b16933)">
     <use xlink:href="#m6a45f4eaff" x="196.569063" y="142.471962" style="fill-opacity: 0; stroke: #626262"/>
    </g>
   </g>
   <g id="patch_14">
    <path d="M 219.962688 277.784634 
L 251.154188 277.784634 
L 251.154188 227.552688 
L 219.962688 227.552688 
L 219.962688 277.784634 
z
" clip-path="url(#pa054b16933)" style="fill: #c1bed6; stroke: #626262; stroke-linejoin: miter"/>
   </g>
   <g id="line2d_24">
    <path d="M 235.558437 277.784634 
L 235.558437 317.419006 
" clip-path="url(#pa054b16933)" style="fill: none; stroke: #626262"/>
   </g>
   <g id="line2d_25">
    <path d="M 235.558437 227.552688 
L 235.558437 205.32628 
" clip-path="url(#pa054b16933)" style="fill: none; stroke: #626262"/>
   </g>
   <g id="line2d_26">
    <path d="M 227.760562 317.419006 
L 243.356313 317.419006 
" clip-path="url(#pa054b16933)" style="fill: none; stroke: #626262; stroke-linecap: square"/>
   </g>
   <g id="line2d_27">
    <path d="M 227.760562 205.32628 
L 243.356313 205.32628 
" clip-path="url(#pa054b16933)" style="fill: none; stroke: #626262; stroke-linecap: square"/>
   </g>
   <g id="line2d_28"/>
   <g id="patch_15">
    <path d="M 258.952063 68.917597 
L 290.143562 68.917597 
L 290.143562 56.631771 
L 258.952063 56.631771 
L 258.952063 68.917597 
z
" clip-path="url(#pa054b16933)" style="fill: #f6f6bc; stroke: #626262; stroke-linejoin: miter"/>
   </g>
   <g id="line2d_29">
    <path d="M 274.547812 68.917597 
L 274.547812 75.765235 
" clip-path="url(#pa054b16933)" style="fill: none; stroke: #626262"/>
   </g>
   <g id="line2d_30">
    <path d="M 274.547812 56.631771 
L 274.547812 50.814277 
" clip-path="url(#pa054b16933)" style="fill: none; stroke: #626262"/>
   </g>
   <g id="line2d_31">
    <path d="M 266.749937 75.765235 
L 282.345687 75.765235 
" clip-path="url(#pa054b16933)" style="fill: none; stroke: #626262; stroke-linecap: square"/>
   </g>
   <g id="line2d_32">
    <path d="M 266.749937 50.814277 
L 282.345687 50.814277 
" clip-path="url(#pa054b16933)" style="fill: none; stroke: #626262; stroke-linecap: square"/>
   </g>
   <g id="line2d_33">
    <g clip-path="url(#pa054b16933)">
     <use xlink:href="#m6a45f4eaff" x="274.547812" y="97.015731" style="fill-opacity: 0; stroke: #626262"/>
     <use xlink:href="#m6a45f4eaff" x="274.547812" y="93.076138" style="fill-opacity: 0; stroke: #626262"/>
     <use xlink:href="#m6a45f4eaff" x="274.547812" y="104.130984" style="fill-opacity: 0; stroke: #626262"/>
    </g>
   </g>
   <g id="patch_16">
    <path d="M 297.941438 199.192244 
L 329.132938 199.192244 
L 329.132938 144.075711 
L 297.941438 144.075711 
L 297.941438 199.192244 
z
" clip-path="url(#pa054b16933)" style="fill: #ea8e83; stroke: #626262; stroke-linejoin: miter"/>
   </g>
   <g id="line2d_34">
    <path d="M 313.537188 199.192244 
L 313.537188 225.368685 
" clip-path="url(#pa054b16933)" style="fill: none; stroke: #626262"/>
   </g>
   <g id="line2d_35">
    <path d="M 313.537188 144.075711 
L 313.537188 111.674883 
" clip-path="url(#pa054b16933)" style="fill: none; stroke: #626262"/>
   </g>
   <g id="line2d_36">
    <path d="M 305.739312 225.368685 
L 321.335062 225.368685 
" clip-path="url(#pa054b16933)" style="fill: none; stroke: #626262; stroke-linecap: square"/>
   </g>
   <g id="line2d_37">
    <path d="M 305.739312 111.674883 
L 321.335062 111.674883 
" clip-path="url(#pa054b16933)" style="fill: none; stroke: #626262; stroke-linecap: square"/>
   </g>
   <g id="line2d_38">
    <g clip-path="url(#pa054b16933)">
     <use xlink:href="#m6a45f4eaff" x="313.537188" y="302.673918" style="fill-opacity: 0; stroke: #626262"/>
    </g>
   </g>
   <g id="patch_17">
    <path d="M 336.930813 135.766685 
L 368.122313 135.766685 
L 368.122313 117.962604 
L 336.930813 117.962604 
L 336.930813 135.766685 
z
" clip-path="url(#pa054b16933)" style="fill: #eab375; stroke: #626262; stroke-linejoin: miter"/>
   </g>
   <g id="line2d_39">
    <path d="M 352.526563 135.766685 
L 352.526563 147.498229 
" clip-path="url(#pa054b16933)" style="fill: none; stroke: #626262"/>
   </g>
   <g id="line2d_40">
    <path d="M 352.526563 117.962604 
L 352.526563 97.016518 
" clip-path="url(#pa054b16933)" style="fill: none; stroke: #626262"/>
   </g>
   <g id="line2d_41">
    <path d="M 344.728688 147.498229 
L 360.324438 147.498229 
" clip-path="url(#pa054b16933)" style="fill: none; stroke: #626262; stroke-linecap: square"/>
   </g>
   <g id="line2d_42">
    <path d="M 344.728688 97.016518 
L 360.324438 97.016518 
" clip-path="url(#pa054b16933)" style="fill: none; stroke: #626262; stroke-linecap: square"/>
   </g>
   <g id="line2d_43">
    <g clip-path="url(#pa054b16933)">
     <use xlink:href="#m6a45f4eaff" x="352.526563" y="163.002068" style="fill-opacity: 0; stroke: #626262"/>
    </g>
   </g>
   <g id="patch_18">
    <path d="M 375.920187 140.508993 
L 407.111688 140.508993 
L 407.111688 118.779736 
L 375.920187 118.779736 
L 375.920187 140.508993 
z
" clip-path="url(#pa054b16933)" style="fill: #afcf78; stroke: #626262; stroke-linejoin: miter"/>
   </g>
   <g id="line2d_44">
    <path d="M 391.515938 140.508993 
L 391.515938 167.417602 
" clip-path="url(#pa054b16933)" style="fill: none; stroke: #626262"/>
   </g>
   <g id="line2d_45">
    <path d="M 391.515938 118.779736 
L 391.515938 101.289629 
" clip-path="url(#pa054b16933)" style="fill: none; stroke: #626262"/>
   </g>
   <g id="line2d_46">
    <path d="M 383.718062 167.417602 
L 399.313813 167.417602 
" clip-path="url(#pa054b16933)" style="fill: none; stroke: #626262; stroke-linecap: square"/>
   </g>
   <g id="line2d_47">
    <path d="M 383.718062 101.289629 
L 399.313813 101.289629 
" clip-path="url(#pa054b16933)" style="fill: none; stroke: #626262; stroke-linecap: square"/>
   </g>
   <g id="line2d_48"/>
   <g id="line2d_49">
    <path d="M 60.10625 51.824966 
L 450 51.824966 
" clip-path="url(#pa054b16933)" style="fill: none; stroke-dasharray: 1.5,2.475; stroke-dashoffset: 0; stroke: #808080; stroke-width: 1.5"/>
   </g>
   <g id="line2d_50">
    <path d="M 102.994563 51.824966 
L 134.186062 51.824966 
" clip-path="url(#pa054b16933)" style="fill: none; stroke: #626262"/>
   </g>
   <g id="line2d_51">
    <path d="M 141.983937 135.509156 
L 173.175438 135.509156 
" clip-path="url(#pa054b16933)" style="fill: none; stroke: #626262"/>
   </g>
   <g id="line2d_52">
    <path d="M 180.973312 111.31872 
L 212.164812 111.31872 
" clip-path="url(#pa054b16933)" style="fill: none; stroke: #626262"/>
   </g>
   <g id="line2d_53">
    <path d="M 219.962688 242.974317 
L 251.154188 242.974317 
" clip-path="url(#pa054b16933)" style="fill: none; stroke: #626262"/>
   </g>
   <g id="line2d_54">
    <path d="M 258.952063 60.012296 
L 290.143562 60.012296 
" clip-path="url(#pa054b16933)" style="fill: none; stroke: #626262"/>
   </g>
   <g id="line2d_55">
    <path d="M 297.941438 171.186446 
L 329.132938 171.186446 
" clip-path="url(#pa054b16933)" style="fill: none; stroke: #626262"/>
   </g>
   <g id="line2d_56">
    <path d="M 336.930813 127.051611 
L 368.122313 127.051611 
" clip-path="url(#pa054b16933)" style="fill: none; stroke: #626262"/>
   </g>
   <g id="line2d_57">
    <path d="M 375.920187 130.459276 
L 407.111688 130.459276 
" clip-path="url(#pa054b16933)" style="fill: none; stroke: #626262"/>
   </g>
   <g id="patch_19">
    <path d="M 60.10625 331.3 
L 60.10625 25.918125 
" style="fill: none; stroke: #000000; stroke-width: 0.8; stroke-linejoin: miter; stroke-linecap: square"/>
   </g>
   <g id="patch_20">
    <path d="M 450 331.3 
L 450 25.918125 
" style="fill: none; stroke: #000000; stroke-width: 0.8; stroke-linejoin: miter; stroke-linecap: square"/>
   </g>
   <g id="patch_21">
    <path d="M 60.10625 331.3 
L 450 331.3 
" style="fill: none; stroke: #000000; stroke-width: 0.8; stroke-linejoin: miter; stroke-linecap: square"/>
   </g>
   <g id="patch_22">
    <path d="M 60.10625 25.918125 
L 450 25.918125 
" style="fill: none; stroke: #000000; stroke-width: 0.8; stroke-linejoin: miter; stroke-linecap: square"/>
   </g>
   <g id="text_9">
    <!-- digitos -  r2 por clf (boxplot) -->
    <g transform="translate(171.011875 19.918125) scale(0.12 -0.12)">
     <defs>
      <path id="DejaVuSans-64" d="M 2906 2969 
L 2906 4863 
L 3481 4863 
L 3481 0 
L 2906 0 
L 2906 525 
Q 2725 213 2448 61 
Q 2172 -91 1784 -91 
Q 1150 -91 751 415 
Q 353 922 353 1747 
Q 353 2572 751 3078 
Q 1150 3584 1784 3584 
Q 2172 3584 2448 3432 
Q 2725 3281 2906 2969 
z
M 947 1747 
Q 947 1113 1208 752 
Q 1469 391 1925 391 
Q 2381 391 2643 752 
Q 2906 1113 2906 1747 
Q 2906 2381 2643 2742 
Q 2381 3103 1925 3103 
Q 1469 3103 1208 2742 
Q 947 2381 947 1747 
z
" transform="scale(0.015625)"/>
      <path id="DejaVuSans-69" d="M 603 3500 
L 1178 3500 
L 1178 0 
L 603 0 
L 603 3500 
z
M 603 4863 
L 1178 4863 
L 1178 4134 
L 603 4134 
L 603 4863 
z
" transform="scale(0.015625)"/>
      <path id="DejaVuSans-67" d="M 2906 1791 
Q 2906 2416 2648 2759 
Q 2391 3103 1925 3103 
Q 1463 3103 1205 2759 
Q 947 2416 947 1791 
Q 947 1169 1205 825 
Q 1463 481 1925 481 
Q 2391 481 2648 825 
Q 2906 1169 2906 1791 
z
M 3481 434 
Q 3481 -459 3084 -895 
Q 2688 -1331 1869 -1331 
Q 1566 -1331 1297 -1286 
Q 1028 -1241 775 -1147 
L 775 -588 
Q 1028 -725 1275 -790 
Q 1522 -856 1778 -856 
Q 2344 -856 2625 -561 
Q 2906 -266 2906 331 
L 2906 616 
Q 2728 306 2450 153 
Q 2172 0 1784 0 
Q 1141 0 747 490 
Q 353 981 353 1791 
Q 353 2603 747 3093 
Q 1141 3584 1784 3584 
Q 2172 3584 2450 3431 
Q 2728 3278 2906 2969 
L 2906 3500 
L 3481 3500 
L 3481 434 
z
" transform="scale(0.015625)"/>
      <path id="DejaVuSans-74" d="M 1172 4494 
L 1172 3500 
L 2356 3500 
L 2356 3053 
L 1172 3053 
L 1172 1153 
Q 1172 725 1289 603 
Q 1406 481 1766 481 
L 2356 481 
L 2356 0 
L 1766 0 
Q 1100 0 847 248 
Q 594 497 594 1153 
L 594 3053 
L 172 3053 
L 172 3500 
L 594 3500 
L 594 4494 
L 1172 4494 
z
" transform="scale(0.015625)"/>
      <path id="DejaVuSans-6f" d="M 1959 3097 
Q 1497 3097 1228 2736 
Q 959 2375 959 1747 
Q 959 1119 1226 758 
Q 1494 397 1959 397 
Q 2419 397 2687 759 
Q 2956 1122 2956 1747 
Q 2956 2369 2687 2733 
Q 2419 3097 1959 3097 
z
M 1959 3584 
Q 2709 3584 3137 3096 
Q 3566 2609 3566 1747 
Q 3566 888 3137 398 
Q 2709 -91 1959 -91 
Q 1206 -91 779 398 
Q 353 888 353 1747 
Q 353 2609 779 3096 
Q 1206 3584 1959 3584 
z
" transform="scale(0.015625)"/>
      <path id="DejaVuSans-73" d="M 2834 3397 
L 2834 2853 
Q 2591 2978 2328 3040 
Q 2066 3103 1784 3103 
Q 1356 3103 1142 2972 
Q 928 2841 928 2578 
Q 928 2378 1081 2264 
Q 1234 2150 1697 2047 
L 1894 2003 
Q 2506 1872 2764 1633 
Q 3022 1394 3022 966 
Q 3022 478 2636 193 
Q 2250 -91 1575 -91 
Q 1294 -91 989 -36 
Q 684 19 347 128 
L 347 722 
Q 666 556 975 473 
Q 1284 391 1588 391 
Q 1994 391 2212 530 
Q 2431 669 2431 922 
Q 2431 1156 2273 1281 
Q 2116 1406 1581 1522 
L 1381 1569 
Q 847 1681 609 1914 
Q 372 2147 372 2553 
Q 372 3047 722 3315 
Q 1072 3584 1716 3584 
Q 2034 3584 2315 3537 
Q 2597 3491 2834 3397 
z
" transform="scale(0.015625)"/>
      <path id="DejaVuSans-20" transform="scale(0.015625)"/>
      <path id="DejaVuSans-2d" d="M 313 2009 
L 1997 2009 
L 1997 1497 
L 313 1497 
L 313 2009 
z
" transform="scale(0.015625)"/>
      <path id="DejaVuSans-70" d="M 1159 525 
L 1159 -1331 
L 581 -1331 
L 581 3500 
L 1159 3500 
L 1159 2969 
Q 1341 3281 1617 3432 
Q 1894 3584 2278 3584 
Q 2916 3584 3314 3078 
Q 3713 2572 3713 1747 
Q 3713 922 3314 415 
Q 2916 -91 2278 -91 
Q 1894 -91 1617 61 
Q 1341 213 1159 525 
z
M 3116 1747 
Q 3116 2381 2855 2742 
Q 2594 3103 2138 3103 
Q 1681 3103 1420 2742 
Q 1159 2381 1159 1747 
Q 1159 1113 1420 752 
Q 1681 391 2138 391 
Q 2594 391 2855 752 
Q 3116 1113 3116 1747 
z
" transform="scale(0.015625)"/>
      <path id="DejaVuSans-63" d="M 3122 3366 
L 3122 2828 
Q 2878 2963 2633 3030 
Q 2388 3097 2138 3097 
Q 1578 3097 1268 2742 
Q 959 2388 959 1747 
Q 959 1106 1268 751 
Q 1578 397 2138 397 
Q 2388 397 2633 464 
Q 2878 531 3122 666 
L 3122 134 
Q 2881 22 2623 -34 
Q 2366 -91 2075 -91 
Q 1284 -91 818 406 
Q 353 903 353 1747 
Q 353 2603 823 3093 
Q 1294 3584 2113 3584 
Q 2378 3584 2631 3529 
Q 2884 3475 3122 3366 
z
" transform="scale(0.015625)"/>
      <path id="DejaVuSans-6c" d="M 603 4863 
L 1178 4863 
L 1178 0 
L 603 0 
L 603 4863 
z
" transform="scale(0.015625)"/>
      <path id="DejaVuSans-66" d="M 2375 4863 
L 2375 4384 
L 1825 4384 
Q 1516 4384 1395 4259 
Q 1275 4134 1275 3809 
L 1275 3500 
L 2222 3500 
L 2222 3053 
L 1275 3053 
L 1275 0 
L 697 0 
L 697 3053 
L 147 3053 
L 147 3500 
L 697 3500 
L 697 3744 
Q 697 4328 969 4595 
Q 1241 4863 1831 4863 
L 2375 4863 
z
" transform="scale(0.015625)"/>
      <path id="DejaVuSans-28" d="M 1984 4856 
Q 1566 4138 1362 3434 
Q 1159 2731 1159 2009 
Q 1159 1288 1364 580 
Q 1569 -128 1984 -844 
L 1484 -844 
Q 1016 -109 783 600 
Q 550 1309 550 2009 
Q 550 2706 781 3412 
Q 1013 4119 1484 4856 
L 1984 4856 
z
" transform="scale(0.015625)"/>
      <path id="DejaVuSans-62" d="M 3116 1747 
Q 3116 2381 2855 2742 
Q 2594 3103 2138 3103 
Q 1681 3103 1420 2742 
Q 1159 2381 1159 1747 
Q 1159 1113 1420 752 
Q 1681 391 2138 391 
Q 2594 391 2855 752 
Q 3116 1113 3116 1747 
z
M 1159 2969 
Q 1341 3281 1617 3432 
Q 1894 3584 2278 3584 
Q 2916 3584 3314 3078 
Q 3713 2572 3713 1747 
Q 3713 922 3314 415 
Q 2916 -91 2278 -91 
Q 1894 -91 1617 61 
Q 1341 213 1159 525 
L 1159 0 
L 581 0 
L 581 4863 
L 1159 4863 
L 1159 2969 
z
" transform="scale(0.015625)"/>
      <path id="DejaVuSans-78" d="M 3513 3500 
L 2247 1797 
L 3578 0 
L 2900 0 
L 1881 1375 
L 863 0 
L 184 0 
L 1544 1831 
L 300 3500 
L 978 3500 
L 1906 2253 
L 2834 3500 
L 3513 3500 
z
" transform="scale(0.015625)"/>
      <path id="DejaVuSans-29" d="M 513 4856 
L 1013 4856 
Q 1481 4119 1714 3412 
Q 1947 2706 1947 2009 
Q 1947 1309 1714 600 
Q 1481 -109 1013 -844 
L 513 -844 
Q 928 -128 1133 580 
Q 1338 1288 1338 2009 
Q 1338 2731 1133 3434 
Q 928 4138 513 4856 
z
" transform="scale(0.015625)"/>
     </defs>
     <use xlink:href="#DejaVuSans-64"/>
     <use xlink:href="#DejaVuSans-69" transform="translate(63.476562 0)"/>
     <use xlink:href="#DejaVuSans-67" transform="translate(91.259766 0)"/>
     <use xlink:href="#DejaVuSans-69" transform="translate(154.736328 0)"/>
     <use xlink:href="#DejaVuSans-74" transform="translate(182.519531 0)"/>
     <use xlink:href="#DejaVuSans-6f" transform="translate(221.728516 0)"/>
     <use xlink:href="#DejaVuSans-73" transform="translate(282.910156 0)"/>
     <use xlink:href="#DejaVuSans-20" transform="translate(335.009766 0)"/>
     <use xlink:href="#DejaVuSans-2d" transform="translate(366.796875 0)"/>
     <use xlink:href="#DejaVuSans-20" transform="translate(402.880859 0)"/>
     <use xlink:href="#DejaVuSans-20" transform="translate(434.667969 0)"/>
     <use xlink:href="#DejaVuSans-72" transform="translate(466.455078 0)"/>
     <use xlink:href="#DejaVuSans-32" transform="translate(507.568359 0)"/>
     <use xlink:href="#DejaVuSans-20" transform="translate(571.191406 0)"/>
     <use xlink:href="#DejaVuSans-70" transform="translate(602.978516 0)"/>
     <use xlink:href="#DejaVuSans-6f" transform="translate(666.455078 0)"/>
     <use xlink:href="#DejaVuSans-72" transform="translate(727.636719 0)"/>
     <use xlink:href="#DejaVuSans-20" transform="translate(768.75 0)"/>
     <use xlink:href="#DejaVuSans-63" transform="translate(800.537109 0)"/>
     <use xlink:href="#DejaVuSans-6c" transform="translate(855.517578 0)"/>
     <use xlink:href="#DejaVuSans-66" transform="translate(883.300781 0)"/>
     <use xlink:href="#DejaVuSans-20" transform="translate(918.505859 0)"/>
     <use xlink:href="#DejaVuSans-28" transform="translate(950.292969 0)"/>
     <use xlink:href="#DejaVuSans-62" transform="translate(989.306641 0)"/>
     <use xlink:href="#DejaVuSans-6f" transform="translate(1052.783203 0)"/>
     <use xlink:href="#DejaVuSans-78" transform="translate(1110.839844 0)"/>
     <use xlink:href="#DejaVuSans-70" transform="translate(1170.019531 0)"/>
     <use xlink:href="#DejaVuSans-6c" transform="translate(1233.496094 0)"/>
     <use xlink:href="#DejaVuSans-6f" transform="translate(1261.279297 0)"/>
     <use xlink:href="#DejaVuSans-74" transform="translate(1322.460938 0)"/>
     <use xlink:href="#DejaVuSans-29" transform="translate(1361.669922 0)"/>
    </g>
   </g>
   <g id="legend_1">
    <g id="patch_23">
     <path d="M 67.10625 326.3 
L 120.264063 326.3 
Q 122.264063 326.3 122.264063 324.3 
L 122.264063 193.196875 
Q 122.264063 191.196875 120.264063 191.196875 
L 67.10625 191.196875 
Q 65.10625 191.196875 65.10625 193.196875 
L 65.10625 324.3 
Q 65.10625 326.3 67.10625 326.3 
z
" style="fill: #ffffff; opacity: 0.8; stroke: #cccccc; stroke-linejoin: miter"/>
    </g>
    <g id="text_10">
     <!-- clf -->
     <g transform="translate(87.786719 202.795313) scale(0.1 -0.1)">
      <use xlink:href="#DejaVuSans-63"/>
      <use xlink:href="#DejaVuSans-6c" transform="translate(54.980469 0)"/>
      <use xlink:href="#DejaVuSans-66" transform="translate(82.763672 0)"/>
     </g>
    </g>
    <g id="patch_24">
     <path d="M 69.10625 217.473438 
L 89.10625 217.473438 
L 89.10625 210.473438 
L 69.10625 210.473438 
z
" style="fill: #96cac1; stroke: #626262; stroke-linejoin: miter"/>
    </g>
    <g id="text_11">
     <!-- fkdc -->
     <g transform="translate(97.10625 217.473438) scale(0.1 -0.1)">
      <defs>
       <path id="DejaVuSans-6b" d="M 581 4863 
L 1159 4863 
L 1159 1991 
L 2875 3500 
L 3609 3500 
L 1753 1863 
L 3688 0 
L 2938 0 
L 1159 1709 
L 1159 0 
L 581 0 
L 581 4863 
z
" transform="scale(0.015625)"/>
      </defs>
      <use xlink:href="#DejaVuSans-66"/>
      <use xlink:href="#DejaVuSans-6b" transform="translate(35.205078 0)"/>
      <use xlink:href="#DejaVuSans-64" transform="translate(93.115234 0)"/>
      <use xlink:href="#DejaVuSans-63" transform="translate(156.591797 0)"/>
     </g>
    </g>
    <g id="patch_25">
     <path d="M 69.10625 232.151563 
L 89.10625 232.151563 
L 89.10625 225.151563 
L 69.10625 225.151563 
z
" style="fill: #8aafc9; stroke: #626262; stroke-linejoin: miter"/>
    </g>
    <g id="text_12">
     <!-- fkn -->
     <g transform="translate(97.10625 232.151563) scale(0.1 -0.1)">
      <defs>
       <path id="DejaVuSans-6e" d="M 3513 2113 
L 3513 0 
L 2938 0 
L 2938 2094 
Q 2938 2591 2744 2837 
Q 2550 3084 2163 3084 
Q 1697 3084 1428 2787 
Q 1159 2491 1159 1978 
L 1159 0 
L 581 0 
L 581 3500 
L 1159 3500 
L 1159 2956 
Q 1366 3272 1645 3428 
Q 1925 3584 2291 3584 
Q 2894 3584 3203 3211 
Q 3513 2838 3513 2113 
z
" transform="scale(0.015625)"/>
      </defs>
      <use xlink:href="#DejaVuSans-66"/>
      <use xlink:href="#DejaVuSans-6b" transform="translate(35.205078 0)"/>
      <use xlink:href="#DejaVuSans-6e" transform="translate(93.115234 0)"/>
     </g>
    </g>
    <g id="patch_26">
     <path d="M 69.10625 246.829688 
L 89.10625 246.829688 
L 89.10625 239.829688 
L 69.10625 239.829688 
z
" style="fill: #d9d9d9; stroke: #626262; stroke-linejoin: miter"/>
    </g>
    <g id="text_13">
     <!-- gbt -->
     <g transform="translate(97.10625 246.829688) scale(0.1 -0.1)">
      <use xlink:href="#DejaVuSans-67"/>
      <use xlink:href="#DejaVuSans-62" transform="translate(63.476562 0)"/>
      <use xlink:href="#DejaVuSans-74" transform="translate(126.953125 0)"/>
     </g>
    </g>
    <g id="patch_27">
     <path d="M 69.10625 261.507813 
L 89.10625 261.507813 
L 89.10625 254.507813 
L 69.10625 254.507813 
z
" style="fill: #c1bed6; stroke: #626262; stroke-linejoin: miter"/>
    </g>
    <g id="text_14">
     <!-- gnb -->
     <g transform="translate(97.10625 261.507813) scale(0.1 -0.1)">
      <use xlink:href="#DejaVuSans-67"/>
      <use xlink:href="#DejaVuSans-6e" transform="translate(63.476562 0)"/>
      <use xlink:href="#DejaVuSans-62" transform="translate(126.855469 0)"/>
     </g>
    </g>
    <g id="patch_28">
     <path d="M 69.10625 276.185938 
L 89.10625 276.185938 
L 89.10625 269.185938 
L 69.10625 269.185938 
z
" style="fill: #f6f6bc; stroke: #626262; stroke-linejoin: miter"/>
    </g>
    <g id="text_15">
     <!-- kdc -->
     <g transform="translate(97.10625 276.185938) scale(0.1 -0.1)">
      <use xlink:href="#DejaVuSans-6b"/>
      <use xlink:href="#DejaVuSans-64" transform="translate(57.910156 0)"/>
      <use xlink:href="#DejaVuSans-63" transform="translate(121.386719 0)"/>
     </g>
    </g>
    <g id="patch_29">
     <path d="M 69.10625 290.864063 
L 89.10625 290.864063 
L 89.10625 283.864063 
L 69.10625 283.864063 
z
" style="fill: #ea8e83; stroke: #626262; stroke-linejoin: miter"/>
    </g>
    <g id="text_16">
     <!-- kn -->
     <g transform="translate(97.10625 290.864063) scale(0.1 -0.1)">
      <use xlink:href="#DejaVuSans-6b"/>
      <use xlink:href="#DejaVuSans-6e" transform="translate(57.910156 0)"/>
     </g>
    </g>
    <g id="patch_30">
     <path d="M 69.10625 305.542188 
L 89.10625 305.542188 
L 89.10625 298.542188 
L 69.10625 298.542188 
z
" style="fill: #eab375; stroke: #626262; stroke-linejoin: miter"/>
    </g>
    <g id="text_17">
     <!-- lr -->
     <g transform="translate(97.10625 305.542188) scale(0.1 -0.1)">
      <use xlink:href="#DejaVuSans-6c"/>
      <use xlink:href="#DejaVuSans-72" transform="translate(27.783203 0)"/>
     </g>
    </g>
    <g id="patch_31">
     <path d="M 69.10625 320.220313 
L 89.10625 320.220313 
L 89.10625 313.220313 
L 69.10625 313.220313 
z
" style="fill: #afcf78; stroke: #626262; stroke-linejoin: miter"/>
    </g>
    <g id="text_18">
     <!-- slr -->
     <g transform="translate(97.10625 320.220313) scale(0.1 -0.1)">
      <use xlink:href="#DejaVuSans-73"/>
      <use xlink:href="#DejaVuSans-6c" transform="translate(52.099609 0)"/>
      <use xlink:href="#DejaVuSans-72" transform="translate(79.882812 0)"/>
     </g>
    </g>
   </g>
  </g>
 </g>
 <defs>
  <clipPath id="pa054b16933">
   <rect x="60.10625" y="25.918125" width="389.89375" height="305.381875"/>
  </clipPath>
 </defs>
</svg>
