<?xml version="1.0" encoding="utf-8" standalone="no"?>
<!DOCTYPE svg PUBLIC "-//W3C//DTD SVG 1.1//EN"
  "http://www.w3.org/Graphics/SVG/1.1/DTD/svg11.dtd">
<svg xmlns:xlink="http://www.w3.org/1999/xlink" width="453.6pt" height="338.4pt" viewBox="0 0 453.6 338.4" xmlns="http://www.w3.org/2000/svg" version="1.1">
 <metadata>
  <rdf:RDF xmlns:dc="http://purl.org/dc/elements/1.1/" xmlns:cc="http://creativecommons.org/ns#" xmlns:rdf="http://www.w3.org/1999/02/22-rdf-syntax-ns#">
   <cc:Work>
    <dc:type rdf:resource="http://purl.org/dc/dcmitype/StillImage"/>
    <dc:date>1970-01-01T00:00:00+00:00</dc:date>
    <dc:format>image/svg+xml</dc:format>
    <dc:creator>
     <cc:Agent>
      <dc:title>Matplotlib v3.10.7, https://matplotlib.org/</dc:title>
     </cc:Agent>
    </dc:creator>
   </cc:Work>
  </rdf:RDF>
 </metadata>
 <defs>
  <style type="text/css">*{stroke-linejoin: round; stroke-linecap: butt}</style>
 </defs>
 <g id="figure_1">
  <g id="patch_1">
   <path d="M 0 338.4 
L 453.6 338.4 
L 453.6 0 
L 0 0 
z
" style="fill: #ffffff"/>
  </g>
  <g id="axes_1">
   <g id="patch_2">
    <path d="M 56.50625 327.7 
L 446.4 327.7 
L 446.4 7.2 
L 56.50625 7.2 
z
" style="fill: #ffffff"/>
   </g>
   <g id="patch_3">
    <path d="M 251.453125 1733.016551 
L 251.453125 1733.016551 
L 251.453125 1733.016551 
L 251.453125 1733.016551 
z
" clip-path="url(#p903e996c1f)" style="fill: #b3e2cd; stroke: #7a7a7a; stroke-linejoin: miter"/>
   </g>
   <g id="patch_4">
    <path d="M 251.453125 1733.016551 
L 251.453125 1733.016551 
L 251.453125 1733.016551 
L 251.453125 1733.016551 
z
" clip-path="url(#p903e996c1f)" style="fill: #fdcdac; stroke: #7a7a7a; stroke-linejoin: miter"/>
   </g>
   <g id="patch_5">
    <path d="M 251.453125 1733.016551 
L 251.453125 1733.016551 
L 251.453125 1733.016551 
L 251.453125 1733.016551 
z
" clip-path="url(#p903e996c1f)" style="fill: #f4cae4; stroke: #7a7a7a; stroke-linejoin: miter"/>
   </g>
   <g id="patch_6">
    <path d="M 251.453125 1733.016551 
L 251.453125 1733.016551 
L 251.453125 1733.016551 
L 251.453125 1733.016551 
z
" clip-path="url(#p903e996c1f)" style="fill: #e6f5c9; stroke: #7a7a7a; stroke-linejoin: miter"/>
   </g>
   <g id="patch_7">
    <path d="M 251.453125 1733.016551 
L 251.453125 1733.016551 
L 251.453125 1733.016551 
L 251.453125 1733.016551 
z
" clip-path="url(#p903e996c1f)" style="fill: #b3e2cd; stroke: #7a7a7a; stroke-linejoin: miter"/>
   </g>
   <g id="patch_8">
    <path d="M 251.453125 1733.016551 
L 251.453125 1733.016551 
L 251.453125 1733.016551 
L 251.453125 1733.016551 
z
" clip-path="url(#p903e996c1f)" style="fill: #fdcdac; stroke: #7a7a7a; stroke-linejoin: miter"/>
   </g>
   <g id="patch_9">
    <path d="M 251.453125 1733.016551 
L 251.453125 1733.016551 
L 251.453125 1733.016551 
L 251.453125 1733.016551 
z
" clip-path="url(#p903e996c1f)" style="fill: #cbd5e8; stroke: #7a7a7a; stroke-linejoin: miter"/>
   </g>
   <g id="patch_10">
    <path d="M 251.453125 1733.016551 
L 251.453125 1733.016551 
L 251.453125 1733.016551 
L 251.453125 1733.016551 
z
" clip-path="url(#p903e996c1f)" style="fill: #cbd5e8; stroke: #7a7a7a; stroke-linejoin: miter"/>
   </g>
   <g id="matplotlib.axis_1">
    <g id="xtick_1">
     <g id="line2d_1">
      <defs>
       <path id="m38f3b05bbe" d="M 0 0 
L 0 3.5 
" style="stroke: #000000; stroke-width: 0.8"/>
      </defs>
      <g>
       <use xlink:href="#m38f3b05bbe" x="251.453125" y="327.7" style="stroke: #000000; stroke-width: 0.8"/>
      </g>
     </g>
    </g>
   </g>
   <g id="matplotlib.axis_2">
    <g id="ytick_1">
     <g id="line2d_2">
      <defs>
       <path id="mbd2f377c6c" d="M 0 0 
L -3.5 0 
" style="stroke: #000000; stroke-width: 0.8"/>
      </defs>
      <g>
       <use xlink:href="#mbd2f377c6c" x="56.50625" y="301.223085" style="stroke: #000000; stroke-width: 0.8"/>
      </g>
     </g>
     <g id="text_1">
      <!-- 0.825 -->
      <g transform="translate(20.878125 305.022304) scale(0.1 -0.1)">
       <defs>
        <path id="DejaVuSans-30" d="M 2034 4250 
Q 1547 4250 1301 3770 
Q 1056 3291 1056 2328 
Q 1056 1369 1301 889 
Q 1547 409 2034 409 
Q 2525 409 2770 889 
Q 3016 1369 3016 2328 
Q 3016 3291 2770 3770 
Q 2525 4250 2034 4250 
z
M 2034 4750 
Q 2819 4750 3233 4129 
Q 3647 3509 3647 2328 
Q 3647 1150 3233 529 
Q 2819 -91 2034 -91 
Q 1250 -91 836 529 
Q 422 1150 422 2328 
Q 422 3509 836 4129 
Q 1250 4750 2034 4750 
z
" transform="scale(0.015625)"/>
        <path id="DejaVuSans-2e" d="M 684 794 
L 1344 794 
L 1344 0 
L 684 0 
L 684 794 
z
" transform="scale(0.015625)"/>
        <path id="DejaVuSans-38" d="M 2034 2216 
Q 1584 2216 1326 1975 
Q 1069 1734 1069 1313 
Q 1069 891 1326 650 
Q 1584 409 2034 409 
Q 2484 409 2743 651 
Q 3003 894 3003 1313 
Q 3003 1734 2745 1975 
Q 2488 2216 2034 2216 
z
M 1403 2484 
Q 997 2584 770 2862 
Q 544 3141 544 3541 
Q 544 4100 942 4425 
Q 1341 4750 2034 4750 
Q 2731 4750 3128 4425 
Q 3525 4100 3525 3541 
Q 3525 3141 3298 2862 
Q 3072 2584 2669 2484 
Q 3125 2378 3379 2068 
Q 3634 1759 3634 1313 
Q 3634 634 3220 271 
Q 2806 -91 2034 -91 
Q 1263 -91 848 271 
Q 434 634 434 1313 
Q 434 1759 690 2068 
Q 947 2378 1403 2484 
z
M 1172 3481 
Q 1172 3119 1398 2916 
Q 1625 2713 2034 2713 
Q 2441 2713 2670 2916 
Q 2900 3119 2900 3481 
Q 2900 3844 2670 4047 
Q 2441 4250 2034 4250 
Q 1625 4250 1398 4047 
Q 1172 3844 1172 3481 
z
" transform="scale(0.015625)"/>
        <path id="DejaVuSans-32" d="M 1228 531 
L 3431 531 
L 3431 0 
L 469 0 
L 469 531 
Q 828 903 1448 1529 
Q 2069 2156 2228 2338 
Q 2531 2678 2651 2914 
Q 2772 3150 2772 3378 
Q 2772 3750 2511 3984 
Q 2250 4219 1831 4219 
Q 1534 4219 1204 4116 
Q 875 4013 500 3803 
L 500 4441 
Q 881 4594 1212 4672 
Q 1544 4750 1819 4750 
Q 2544 4750 2975 4387 
Q 3406 4025 3406 3419 
Q 3406 3131 3298 2873 
Q 3191 2616 2906 2266 
Q 2828 2175 2409 1742 
Q 1991 1309 1228 531 
z
" transform="scale(0.015625)"/>
        <path id="DejaVuSans-35" d="M 691 4666 
L 3169 4666 
L 3169 4134 
L 1269 4134 
L 1269 2991 
Q 1406 3038 1543 3061 
Q 1681 3084 1819 3084 
Q 2600 3084 3056 2656 
Q 3513 2228 3513 1497 
Q 3513 744 3044 326 
Q 2575 -91 1722 -91 
Q 1428 -91 1123 -41 
Q 819 9 494 109 
L 494 744 
Q 775 591 1075 516 
Q 1375 441 1709 441 
Q 2250 441 2565 725 
Q 2881 1009 2881 1497 
Q 2881 1984 2565 2268 
Q 2250 2553 1709 2553 
Q 1456 2553 1204 2497 
Q 953 2441 691 2322 
L 691 4666 
z
" transform="scale(0.015625)"/>
       </defs>
       <use xlink:href="#DejaVuSans-30"/>
       <use xlink:href="#DejaVuSans-2e" transform="translate(63.623047 0)"/>
       <use xlink:href="#DejaVuSans-38" transform="translate(95.410156 0)"/>
       <use xlink:href="#DejaVuSans-32" transform="translate(159.033203 0)"/>
       <use xlink:href="#DejaVuSans-35" transform="translate(222.65625 0)"/>
      </g>
     </g>
    </g>
    <g id="ytick_2">
     <g id="line2d_3">
      <g>
       <use xlink:href="#mbd2f377c6c" x="56.50625" y="257.835404" style="stroke: #000000; stroke-width: 0.8"/>
      </g>
     </g>
     <g id="text_2">
      <!-- 0.850 -->
      <g transform="translate(20.878125 261.634623) scale(0.1 -0.1)">
       <use xlink:href="#DejaVuSans-30"/>
       <use xlink:href="#DejaVuSans-2e" transform="translate(63.623047 0)"/>
       <use xlink:href="#DejaVuSans-38" transform="translate(95.410156 0)"/>
       <use xlink:href="#DejaVuSans-35" transform="translate(159.033203 0)"/>
       <use xlink:href="#DejaVuSans-30" transform="translate(222.65625 0)"/>
      </g>
     </g>
    </g>
    <g id="ytick_3">
     <g id="line2d_4">
      <g>
       <use xlink:href="#mbd2f377c6c" x="56.50625" y="214.447723" style="stroke: #000000; stroke-width: 0.8"/>
      </g>
     </g>
     <g id="text_3">
      <!-- 0.875 -->
      <g transform="translate(20.878125 218.246942) scale(0.1 -0.1)">
       <defs>
        <path id="DejaVuSans-37" d="M 525 4666 
L 3525 4666 
L 3525 4397 
L 1831 0 
L 1172 0 
L 2766 4134 
L 525 4134 
L 525 4666 
z
" transform="scale(0.015625)"/>
       </defs>
       <use xlink:href="#DejaVuSans-30"/>
       <use xlink:href="#DejaVuSans-2e" transform="translate(63.623047 0)"/>
       <use xlink:href="#DejaVuSans-38" transform="translate(95.410156 0)"/>
       <use xlink:href="#DejaVuSans-37" transform="translate(159.033203 0)"/>
       <use xlink:href="#DejaVuSans-35" transform="translate(222.65625 0)"/>
      </g>
     </g>
    </g>
    <g id="ytick_4">
     <g id="line2d_5">
      <g>
       <use xlink:href="#mbd2f377c6c" x="56.50625" y="171.060043" style="stroke: #000000; stroke-width: 0.8"/>
      </g>
     </g>
     <g id="text_4">
      <!-- 0.900 -->
      <g transform="translate(20.878125 174.859261) scale(0.1 -0.1)">
       <defs>
        <path id="DejaVuSans-39" d="M 703 97 
L 703 672 
Q 941 559 1184 500 
Q 1428 441 1663 441 
Q 2288 441 2617 861 
Q 2947 1281 2994 2138 
Q 2813 1869 2534 1725 
Q 2256 1581 1919 1581 
Q 1219 1581 811 2004 
Q 403 2428 403 3163 
Q 403 3881 828 4315 
Q 1253 4750 1959 4750 
Q 2769 4750 3195 4129 
Q 3622 3509 3622 2328 
Q 3622 1225 3098 567 
Q 2575 -91 1691 -91 
Q 1453 -91 1209 -44 
Q 966 3 703 97 
z
M 1959 2075 
Q 2384 2075 2632 2365 
Q 2881 2656 2881 3163 
Q 2881 3666 2632 3958 
Q 2384 4250 1959 4250 
Q 1534 4250 1286 3958 
Q 1038 3666 1038 3163 
Q 1038 2656 1286 2365 
Q 1534 2075 1959 2075 
z
" transform="scale(0.015625)"/>
       </defs>
       <use xlink:href="#DejaVuSans-30"/>
       <use xlink:href="#DejaVuSans-2e" transform="translate(63.623047 0)"/>
       <use xlink:href="#DejaVuSans-39" transform="translate(95.410156 0)"/>
       <use xlink:href="#DejaVuSans-30" transform="translate(159.033203 0)"/>
       <use xlink:href="#DejaVuSans-30" transform="translate(222.65625 0)"/>
      </g>
     </g>
    </g>
    <g id="ytick_5">
     <g id="line2d_6">
      <g>
       <use xlink:href="#mbd2f377c6c" x="56.50625" y="127.672362" style="stroke: #000000; stroke-width: 0.8"/>
      </g>
     </g>
     <g id="text_5">
      <!-- 0.925 -->
      <g transform="translate(20.878125 131.471581) scale(0.1 -0.1)">
       <use xlink:href="#DejaVuSans-30"/>
       <use xlink:href="#DejaVuSans-2e" transform="translate(63.623047 0)"/>
       <use xlink:href="#DejaVuSans-39" transform="translate(95.410156 0)"/>
       <use xlink:href="#DejaVuSans-32" transform="translate(159.033203 0)"/>
       <use xlink:href="#DejaVuSans-35" transform="translate(222.65625 0)"/>
      </g>
     </g>
    </g>
    <g id="ytick_6">
     <g id="line2d_7">
      <g>
       <use xlink:href="#mbd2f377c6c" x="56.50625" y="84.284681" style="stroke: #000000; stroke-width: 0.8"/>
      </g>
     </g>
     <g id="text_6">
      <!-- 0.950 -->
      <g transform="translate(20.878125 88.0839) scale(0.1 -0.1)">
       <use xlink:href="#DejaVuSans-30"/>
       <use xlink:href="#DejaVuSans-2e" transform="translate(63.623047 0)"/>
       <use xlink:href="#DejaVuSans-39" transform="translate(95.410156 0)"/>
       <use xlink:href="#DejaVuSans-35" transform="translate(159.033203 0)"/>
       <use xlink:href="#DejaVuSans-30" transform="translate(222.65625 0)"/>
      </g>
     </g>
    </g>
    <g id="ytick_7">
     <g id="line2d_8">
      <g>
       <use xlink:href="#mbd2f377c6c" x="56.50625" y="40.897" style="stroke: #000000; stroke-width: 0.8"/>
      </g>
     </g>
     <g id="text_7">
      <!-- 0.975 -->
      <g transform="translate(20.878125 44.696219) scale(0.1 -0.1)">
       <use xlink:href="#DejaVuSans-30"/>
       <use xlink:href="#DejaVuSans-2e" transform="translate(63.623047 0)"/>
       <use xlink:href="#DejaVuSans-39" transform="translate(95.410156 0)"/>
       <use xlink:href="#DejaVuSans-37" transform="translate(159.033203 0)"/>
       <use xlink:href="#DejaVuSans-35" transform="translate(222.65625 0)"/>
      </g>
     </g>
    </g>
    <g id="text_8">
     <!-- r2 -->
     <g transform="translate(14.798438 172.686719) rotate(-90) scale(0.1 -0.1)">
      <defs>
       <path id="DejaVuSans-72" d="M 2631 2963 
Q 2534 3019 2420 3045 
Q 2306 3072 2169 3072 
Q 1681 3072 1420 2755 
Q 1159 2438 1159 1844 
L 1159 0 
L 581 0 
L 581 3500 
L 1159 3500 
L 1159 2956 
Q 1341 3275 1631 3429 
Q 1922 3584 2338 3584 
Q 2397 3584 2469 3576 
Q 2541 3569 2628 3553 
L 2631 2963 
z
" transform="scale(0.015625)"/>
      </defs>
      <use xlink:href="#DejaVuSans-72"/>
      <use xlink:href="#DejaVuSans-32" transform="translate(41.113281 0)"/>
     </g>
    </g>
   </g>
   <g id="patch_11">
    <path d="M 99.394562 41.719481 
L 130.586062 41.719481 
L 130.586062 31.663264 
L 99.394562 31.663264 
L 99.394562 41.719481 
z
" clip-path="url(#p903e996c1f)" style="fill: #b3e2cd; stroke: #7a7a7a; stroke-linejoin: miter"/>
   </g>
   <g id="line2d_9">
    <path d="M 114.990312 41.719481 
L 114.990312 56.344659 
" clip-path="url(#p903e996c1f)" style="fill: none; stroke: #7a7a7a"/>
   </g>
   <g id="line2d_10">
    <path d="M 114.990312 31.663264 
L 114.990312 21.768182 
" clip-path="url(#p903e996c1f)" style="fill: none; stroke: #7a7a7a"/>
   </g>
   <g id="line2d_11">
    <path d="M 107.192437 56.344659 
L 122.788187 56.344659 
" clip-path="url(#p903e996c1f)" style="fill: none; stroke: #7a7a7a; stroke-linecap: square"/>
   </g>
   <g id="line2d_12">
    <path d="M 107.192437 21.768182 
L 122.788187 21.768182 
" clip-path="url(#p903e996c1f)" style="fill: none; stroke: #7a7a7a; stroke-linecap: square"/>
   </g>
   <g id="line2d_13">
    <defs>
     <path id="mf2d42e0765" d="M 0 3 
C 0.795609 3 1.55874 2.683901 2.12132 2.12132 
C 2.683901 1.55874 3 0.795609 3 0 
C 3 -0.795609 2.683901 -1.55874 2.12132 -2.12132 
C 1.55874 -2.683901 0.795609 -3 0 -3 
C -0.795609 -3 -1.55874 -2.683901 -2.12132 -2.12132 
C -2.683901 -1.55874 -3 -0.795609 -3 0 
C -3 0.795609 -2.683901 1.55874 -2.12132 2.12132 
C -1.55874 2.683901 -0.795609 3 0 3 
z
" style="stroke: #7a7a7a"/>
    </defs>
    <g clip-path="url(#p903e996c1f)">
     <use xlink:href="#mf2d42e0765" x="114.990312" y="60.649828" style="fill-opacity: 0; stroke: #7a7a7a"/>
     <use xlink:href="#mf2d42e0765" x="114.990312" y="61.547675" style="fill-opacity: 0; stroke: #7a7a7a"/>
    </g>
   </g>
   <g id="patch_12">
    <path d="M 138.383937 156.300649 
L 169.575437 156.300649 
L 169.575437 101.771217 
L 138.383937 101.771217 
L 138.383937 156.300649 
z
" clip-path="url(#p903e996c1f)" style="fill: #fdcdac; stroke: #7a7a7a; stroke-linejoin: miter"/>
   </g>
   <g id="line2d_14">
    <path d="M 153.979687 156.300649 
L 153.979687 201.378794 
" clip-path="url(#p903e996c1f)" style="fill: none; stroke: #7a7a7a"/>
   </g>
   <g id="line2d_15">
    <path d="M 153.979687 101.771217 
L 153.979687 67.684922 
" clip-path="url(#p903e996c1f)" style="fill: none; stroke: #7a7a7a"/>
   </g>
   <g id="line2d_16">
    <path d="M 146.181812 201.378794 
L 161.777562 201.378794 
" clip-path="url(#p903e996c1f)" style="fill: none; stroke: #7a7a7a; stroke-linecap: square"/>
   </g>
   <g id="line2d_17">
    <path d="M 146.181812 67.684922 
L 161.777562 67.684922 
" clip-path="url(#p903e996c1f)" style="fill: none; stroke: #7a7a7a; stroke-linecap: square"/>
   </g>
   <g id="line2d_18">
    <g clip-path="url(#p903e996c1f)">
     <use xlink:href="#mf2d42e0765" x="153.979687" y="297.656766" style="fill-opacity: 0; stroke: #7a7a7a"/>
    </g>
   </g>
   <g id="patch_13">
    <path d="M 177.373312 105.603453 
L 208.564812 105.603453 
L 208.564812 91.486001 
L 177.373312 91.486001 
L 177.373312 105.603453 
z
" clip-path="url(#p903e996c1f)" style="fill: #f4cae4; stroke: #7a7a7a; stroke-linejoin: miter"/>
   </g>
   <g id="line2d_19">
    <path d="M 192.969062 105.603453 
L 192.969062 124.610735 
" clip-path="url(#p903e996c1f)" style="fill: none; stroke: #7a7a7a"/>
   </g>
   <g id="line2d_20">
    <path d="M 192.969062 91.486001 
L 192.969062 75.843781 
" clip-path="url(#p903e996c1f)" style="fill: none; stroke: #7a7a7a"/>
   </g>
   <g id="line2d_21">
    <path d="M 185.171187 124.610735 
L 200.766937 124.610735 
" clip-path="url(#p903e996c1f)" style="fill: none; stroke: #7a7a7a; stroke-linecap: square"/>
   </g>
   <g id="line2d_22">
    <path d="M 185.171187 75.843781 
L 200.766937 75.843781 
" clip-path="url(#p903e996c1f)" style="fill: none; stroke: #7a7a7a; stroke-linecap: square"/>
   </g>
   <g id="line2d_23">
    <g clip-path="url(#p903e996c1f)">
     <use xlink:href="#mf2d42e0765" x="192.969062" y="129.523909" style="fill-opacity: 0; stroke: #7a7a7a"/>
    </g>
   </g>
   <g id="patch_14">
    <path d="M 216.362687 271.535321 
L 247.554187 271.535321 
L 247.554187 218.816611 
L 216.362687 218.816611 
L 216.362687 271.535321 
z
" clip-path="url(#p903e996c1f)" style="fill: #e6f5c9; stroke: #7a7a7a; stroke-linejoin: miter"/>
   </g>
   <g id="line2d_24">
    <path d="M 231.958437 271.535321 
L 231.958437 313.131818 
" clip-path="url(#p903e996c1f)" style="fill: none; stroke: #7a7a7a"/>
   </g>
   <g id="line2d_25">
    <path d="M 231.958437 218.816611 
L 231.958437 195.489871 
" clip-path="url(#p903e996c1f)" style="fill: none; stroke: #7a7a7a"/>
   </g>
   <g id="line2d_26">
    <path d="M 224.160562 313.131818 
L 239.756312 313.131818 
" clip-path="url(#p903e996c1f)" style="fill: none; stroke: #7a7a7a; stroke-linecap: square"/>
   </g>
   <g id="line2d_27">
    <path d="M 224.160562 195.489871 
L 239.756312 195.489871 
" clip-path="url(#p903e996c1f)" style="fill: none; stroke: #7a7a7a; stroke-linecap: square"/>
   </g>
   <g id="line2d_28"/>
   <g id="patch_15">
    <path d="M 255.352062 52.328188 
L 286.543562 52.328188 
L 286.543562 39.434145 
L 255.352062 39.434145 
L 255.352062 52.328188 
z
" clip-path="url(#p903e996c1f)" style="fill: url(#h5c36d2b54f); stroke: #7a7a7a; stroke-linejoin: miter"/>
   </g>
   <g id="line2d_29">
    <path d="M 270.947812 52.328188 
L 270.947812 59.514823 
" clip-path="url(#p903e996c1f)" style="fill: none; stroke: #7a7a7a"/>
   </g>
   <g id="line2d_30">
    <path d="M 270.947812 39.434145 
L 270.947812 33.328652 
" clip-path="url(#p903e996c1f)" style="fill: none; stroke: #7a7a7a"/>
   </g>
   <g id="line2d_31">
    <path d="M 263.149937 59.514823 
L 278.745687 59.514823 
" clip-path="url(#p903e996c1f)" style="fill: none; stroke: #7a7a7a; stroke-linecap: square"/>
   </g>
   <g id="line2d_32">
    <path d="M 263.149937 33.328652 
L 278.745687 33.328652 
" clip-path="url(#p903e996c1f)" style="fill: none; stroke: #7a7a7a; stroke-linecap: square"/>
   </g>
   <g id="line2d_33">
    <g clip-path="url(#p903e996c1f)">
     <use xlink:href="#mf2d42e0765" x="270.947812" y="81.817338" style="fill-opacity: 0; stroke: #7a7a7a"/>
     <use xlink:href="#mf2d42e0765" x="270.947812" y="77.682714" style="fill-opacity: 0; stroke: #7a7a7a"/>
     <use xlink:href="#mf2d42e0765" x="270.947812" y="89.284836" style="fill-opacity: 0; stroke: #7a7a7a"/>
    </g>
   </g>
   <g id="patch_16">
    <path d="M 294.341437 189.052165 
L 325.532937 189.052165 
L 325.532937 131.207053 
L 294.341437 131.207053 
L 294.341437 189.052165 
z
" clip-path="url(#p903e996c1f)" style="fill: url(#h0577782f04); stroke: #7a7a7a; stroke-linejoin: miter"/>
   </g>
   <g id="line2d_34">
    <path d="M 309.937187 189.052165 
L 309.937187 216.524487 
" clip-path="url(#p903e996c1f)" style="fill: none; stroke: #7a7a7a"/>
   </g>
   <g id="line2d_35">
    <path d="M 309.937187 131.207053 
L 309.937187 97.202201 
" clip-path="url(#p903e996c1f)" style="fill: none; stroke: #7a7a7a"/>
   </g>
   <g id="line2d_36">
    <path d="M 302.139312 216.524487 
L 317.735062 216.524487 
" clip-path="url(#p903e996c1f)" style="fill: none; stroke: #7a7a7a; stroke-linecap: square"/>
   </g>
   <g id="line2d_37">
    <path d="M 302.139312 97.202201 
L 317.735062 97.202201 
" clip-path="url(#p903e996c1f)" style="fill: none; stroke: #7a7a7a; stroke-linecap: square"/>
   </g>
   <g id="line2d_38">
    <g clip-path="url(#p903e996c1f)">
     <use xlink:href="#mf2d42e0765" x="309.937187" y="297.656766" style="fill-opacity: 0; stroke: #7a7a7a"/>
    </g>
   </g>
   <g id="patch_17">
    <path d="M 333.330812 122.486683 
L 364.522312 122.486683 
L 364.522312 103.8012 
L 333.330812 103.8012 
L 333.330812 122.486683 
z
" clip-path="url(#p903e996c1f)" style="fill: #cbd5e8; stroke: #7a7a7a; stroke-linejoin: miter"/>
   </g>
   <g id="line2d_39">
    <path d="M 348.926562 122.486683 
L 348.926562 134.799005 
" clip-path="url(#p903e996c1f)" style="fill: none; stroke: #7a7a7a"/>
   </g>
   <g id="line2d_40">
    <path d="M 348.926562 103.8012 
L 348.926562 81.818165 
" clip-path="url(#p903e996c1f)" style="fill: none; stroke: #7a7a7a"/>
   </g>
   <g id="line2d_41">
    <path d="M 341.128687 134.799005 
L 356.724437 134.799005 
" clip-path="url(#p903e996c1f)" style="fill: none; stroke: #7a7a7a; stroke-linecap: square"/>
   </g>
   <g id="line2d_42">
    <path d="M 341.128687 81.818165 
L 356.724437 81.818165 
" clip-path="url(#p903e996c1f)" style="fill: none; stroke: #7a7a7a; stroke-linecap: square"/>
   </g>
   <g id="line2d_43">
    <g clip-path="url(#p903e996c1f)">
     <use xlink:href="#mf2d42e0765" x="348.926562" y="151.070371" style="fill-opacity: 0; stroke: #7a7a7a"/>
    </g>
   </g>
   <g id="patch_18">
    <path d="M 372.320187 127.463762 
L 403.511687 127.463762 
L 403.511687 104.658785 
L 372.320187 104.658785 
L 372.320187 127.463762 
z
" clip-path="url(#p903e996c1f)" style="fill: url(#h9666d6bbb0); stroke: #7a7a7a; stroke-linejoin: miter"/>
   </g>
   <g id="line2d_44">
    <path d="M 387.915937 127.463762 
L 387.915937 155.704499 
" clip-path="url(#p903e996c1f)" style="fill: none; stroke: #7a7a7a"/>
   </g>
   <g id="line2d_45">
    <path d="M 387.915937 104.658785 
L 387.915937 86.302818 
" clip-path="url(#p903e996c1f)" style="fill: none; stroke: #7a7a7a"/>
   </g>
   <g id="line2d_46">
    <path d="M 380.118062 155.704499 
L 395.713812 155.704499 
" clip-path="url(#p903e996c1f)" style="fill: none; stroke: #7a7a7a; stroke-linecap: square"/>
   </g>
   <g id="line2d_47">
    <path d="M 380.118062 86.302818 
L 395.713812 86.302818 
" clip-path="url(#p903e996c1f)" style="fill: none; stroke: #7a7a7a; stroke-linecap: square"/>
   </g>
   <g id="line2d_48"/>
   <g id="line2d_49">
    <path d="M 56.50625 34.389375 
L 446.4 34.389375 
" clip-path="url(#p903e996c1f)" style="fill: none; stroke-dasharray: 1.5,2.475; stroke-dashoffset: 0; stroke: #808080; stroke-width: 1.5"/>
   </g>
   <g id="line2d_50">
    <path d="M 99.394562 34.389375 
L 130.586062 34.389375 
" clip-path="url(#p903e996c1f)" style="fill: none; stroke: #7a7a7a"/>
   </g>
   <g id="line2d_51">
    <path d="M 138.383937 122.216405 
L 169.575437 122.216405 
" clip-path="url(#p903e996c1f)" style="fill: none; stroke: #7a7a7a"/>
   </g>
   <g id="line2d_52">
    <path d="M 177.373312 96.828406 
L 208.564812 96.828406 
" clip-path="url(#p903e996c1f)" style="fill: none; stroke: #7a7a7a"/>
   </g>
   <g id="line2d_53">
    <path d="M 216.362687 235.001698 
L 247.554187 235.001698 
" clip-path="url(#p903e996c1f)" style="fill: none; stroke: #7a7a7a"/>
   </g>
   <g id="line2d_54">
    <path d="M 255.352062 42.982025 
L 286.543562 42.982025 
" clip-path="url(#p903e996c1f)" style="fill: none; stroke: #7a7a7a"/>
   </g>
   <g id="line2d_55">
    <path d="M 294.341437 159.659922 
L 325.532937 159.659922 
" clip-path="url(#p903e996c1f)" style="fill: none; stroke: #7a7a7a"/>
   </g>
   <g id="line2d_56">
    <path d="M 333.330812 113.340164 
L 364.522312 113.340164 
" clip-path="url(#p903e996c1f)" style="fill: none; stroke: #7a7a7a"/>
   </g>
   <g id="line2d_57">
    <path d="M 372.320187 116.916527 
L 403.511687 116.916527 
" clip-path="url(#p903e996c1f)" style="fill: none; stroke: #7a7a7a"/>
   </g>
   <g id="patch_19">
    <path d="M 56.50625 327.7 
L 56.50625 7.2 
" style="fill: none; stroke: #000000; stroke-width: 0.8; stroke-linejoin: miter; stroke-linecap: square"/>
   </g>
   <g id="patch_20">
    <path d="M 446.4 327.7 
L 446.4 7.2 
" style="fill: none; stroke: #000000; stroke-width: 0.8; stroke-linejoin: miter; stroke-linecap: square"/>
   </g>
   <g id="patch_21">
    <path d="M 56.50625 327.7 
L 446.4 327.7 
" style="fill: none; stroke: #000000; stroke-width: 0.8; stroke-linejoin: miter; stroke-linecap: square"/>
   </g>
   <g id="patch_22">
    <path d="M 56.50625 7.2 
L 446.4 7.2 
" style="fill: none; stroke: #000000; stroke-width: 0.8; stroke-linejoin: miter; stroke-linecap: square"/>
   </g>
   <g id="legend_1">
    <g id="patch_23">
     <path d="M 63.50625 322.7 
L 116.664062 322.7 
Q 118.664062 322.7 118.664062 320.7 
L 118.664062 189.596875 
Q 118.664062 187.596875 116.664062 187.596875 
L 63.50625 187.596875 
Q 61.50625 187.596875 61.50625 189.596875 
L 61.50625 320.7 
Q 61.50625 322.7 63.50625 322.7 
z
" style="fill: #ffffff; opacity: 0.8; stroke: #cccccc; stroke-linejoin: miter"/>
    </g>
    <g id="text_9">
     <!-- clf -->
     <g transform="translate(84.186719 199.195312) scale(0.1 -0.1)">
      <defs>
       <path id="DejaVuSans-63" d="M 3122 3366 
L 3122 2828 
Q 2878 2963 2633 3030 
Q 2388 3097 2138 3097 
Q 1578 3097 1268 2742 
Q 959 2388 959 1747 
Q 959 1106 1268 751 
Q 1578 397 2138 397 
Q 2388 397 2633 464 
Q 2878 531 3122 666 
L 3122 134 
Q 2881 22 2623 -34 
Q 2366 -91 2075 -91 
Q 1284 -91 818 406 
Q 353 903 353 1747 
Q 353 2603 823 3093 
Q 1294 3584 2113 3584 
Q 2378 3584 2631 3529 
Q 2884 3475 3122 3366 
z
" transform="scale(0.015625)"/>
       <path id="DejaVuSans-6c" d="M 603 4863 
L 1178 4863 
L 1178 0 
L 603 0 
L 603 4863 
z
" transform="scale(0.015625)"/>
       <path id="DejaVuSans-66" d="M 2375 4863 
L 2375 4384 
L 1825 4384 
Q 1516 4384 1395 4259 
Q 1275 4134 1275 3809 
L 1275 3500 
L 2222 3500 
L 2222 3053 
L 1275 3053 
L 1275 0 
L 697 0 
L 697 3053 
L 147 3053 
L 147 3500 
L 697 3500 
L 697 3744 
Q 697 4328 969 4595 
Q 1241 4863 1831 4863 
L 2375 4863 
z
" transform="scale(0.015625)"/>
      </defs>
      <use xlink:href="#DejaVuSans-63"/>
      <use xlink:href="#DejaVuSans-6c" transform="translate(54.980469 0)"/>
      <use xlink:href="#DejaVuSans-66" transform="translate(82.763672 0)"/>
     </g>
    </g>
    <g id="patch_24">
     <path d="M 65.50625 213.873438 
L 85.50625 213.873438 
L 85.50625 206.873438 
L 65.50625 206.873438 
z
" style="fill: #b3e2cd; stroke: #7a7a7a; stroke-linejoin: miter"/>
    </g>
    <g id="text_10">
     <!-- fkdc -->
     <g transform="translate(93.50625 213.873438) scale(0.1 -0.1)">
      <defs>
       <path id="DejaVuSans-6b" d="M 581 4863 
L 1159 4863 
L 1159 1991 
L 2875 3500 
L 3609 3500 
L 1753 1863 
L 3688 0 
L 2938 0 
L 1159 1709 
L 1159 0 
L 581 0 
L 581 4863 
z
" transform="scale(0.015625)"/>
       <path id="DejaVuSans-64" d="M 2906 2969 
L 2906 4863 
L 3481 4863 
L 3481 0 
L 2906 0 
L 2906 525 
Q 2725 213 2448 61 
Q 2172 -91 1784 -91 
Q 1150 -91 751 415 
Q 353 922 353 1747 
Q 353 2572 751 3078 
Q 1150 3584 1784 3584 
Q 2172 3584 2448 3432 
Q 2725 3281 2906 2969 
z
M 947 1747 
Q 947 1113 1208 752 
Q 1469 391 1925 391 
Q 2381 391 2643 752 
Q 2906 1113 2906 1747 
Q 2906 2381 2643 2742 
Q 2381 3103 1925 3103 
Q 1469 3103 1208 2742 
Q 947 2381 947 1747 
z
" transform="scale(0.015625)"/>
      </defs>
      <use xlink:href="#DejaVuSans-66"/>
      <use xlink:href="#DejaVuSans-6b" transform="translate(35.205078 0)"/>
      <use xlink:href="#DejaVuSans-64" transform="translate(93.115234 0)"/>
      <use xlink:href="#DejaVuSans-63" transform="translate(156.591797 0)"/>
     </g>
    </g>
    <g id="patch_25">
     <path d="M 65.50625 228.551563 
L 85.50625 228.551563 
L 85.50625 221.551563 
L 65.50625 221.551563 
z
" style="fill: #fdcdac; stroke: #7a7a7a; stroke-linejoin: miter"/>
    </g>
    <g id="text_11">
     <!-- fkn -->
     <g transform="translate(93.50625 228.551563) scale(0.1 -0.1)">
      <defs>
       <path id="DejaVuSans-6e" d="M 3513 2113 
L 3513 0 
L 2938 0 
L 2938 2094 
Q 2938 2591 2744 2837 
Q 2550 3084 2163 3084 
Q 1697 3084 1428 2787 
Q 1159 2491 1159 1978 
L 1159 0 
L 581 0 
L 581 3500 
L 1159 3500 
L 1159 2956 
Q 1366 3272 1645 3428 
Q 1925 3584 2291 3584 
Q 2894 3584 3203 3211 
Q 3513 2838 3513 2113 
z
" transform="scale(0.015625)"/>
      </defs>
      <use xlink:href="#DejaVuSans-66"/>
      <use xlink:href="#DejaVuSans-6b" transform="translate(35.205078 0)"/>
      <use xlink:href="#DejaVuSans-6e" transform="translate(93.115234 0)"/>
     </g>
    </g>
    <g id="patch_26">
     <path d="M 65.50625 243.229688 
L 85.50625 243.229688 
L 85.50625 236.229688 
L 65.50625 236.229688 
z
" style="fill: #f4cae4; stroke: #7a7a7a; stroke-linejoin: miter"/>
    </g>
    <g id="text_12">
     <!-- gbt -->
     <g transform="translate(93.50625 243.229688) scale(0.1 -0.1)">
      <defs>
       <path id="DejaVuSans-67" d="M 2906 1791 
Q 2906 2416 2648 2759 
Q 2391 3103 1925 3103 
Q 1463 3103 1205 2759 
Q 947 2416 947 1791 
Q 947 1169 1205 825 
Q 1463 481 1925 481 
Q 2391 481 2648 825 
Q 2906 1169 2906 1791 
z
M 3481 434 
Q 3481 -459 3084 -895 
Q 2688 -1331 1869 -1331 
Q 1566 -1331 1297 -1286 
Q 1028 -1241 775 -1147 
L 775 -588 
Q 1028 -725 1275 -790 
Q 1522 -856 1778 -856 
Q 2344 -856 2625 -561 
Q 2906 -266 2906 331 
L 2906 616 
Q 2728 306 2450 153 
Q 2172 0 1784 0 
Q 1141 0 747 490 
Q 353 981 353 1791 
Q 353 2603 747 3093 
Q 1141 3584 1784 3584 
Q 2172 3584 2450 3431 
Q 2728 3278 2906 2969 
L 2906 3500 
L 3481 3500 
L 3481 434 
z
" transform="scale(0.015625)"/>
       <path id="DejaVuSans-62" d="M 3116 1747 
Q 3116 2381 2855 2742 
Q 2594 3103 2138 3103 
Q 1681 3103 1420 2742 
Q 1159 2381 1159 1747 
Q 1159 1113 1420 752 
Q 1681 391 2138 391 
Q 2594 391 2855 752 
Q 3116 1113 3116 1747 
z
M 1159 2969 
Q 1341 3281 1617 3432 
Q 1894 3584 2278 3584 
Q 2916 3584 3314 3078 
Q 3713 2572 3713 1747 
Q 3713 922 3314 415 
Q 2916 -91 2278 -91 
Q 1894 -91 1617 61 
Q 1341 213 1159 525 
L 1159 0 
L 581 0 
L 581 4863 
L 1159 4863 
L 1159 2969 
z
" transform="scale(0.015625)"/>
       <path id="DejaVuSans-74" d="M 1172 4494 
L 1172 3500 
L 2356 3500 
L 2356 3053 
L 1172 3053 
L 1172 1153 
Q 1172 725 1289 603 
Q 1406 481 1766 481 
L 2356 481 
L 2356 0 
L 1766 0 
Q 1100 0 847 248 
Q 594 497 594 1153 
L 594 3053 
L 172 3053 
L 172 3500 
L 594 3500 
L 594 4494 
L 1172 4494 
z
" transform="scale(0.015625)"/>
      </defs>
      <use xlink:href="#DejaVuSans-67"/>
      <use xlink:href="#DejaVuSans-62" transform="translate(63.476562 0)"/>
      <use xlink:href="#DejaVuSans-74" transform="translate(126.953125 0)"/>
     </g>
    </g>
    <g id="patch_27">
     <path d="M 65.50625 257.907812 
L 85.50625 257.907812 
L 85.50625 250.907812 
L 65.50625 250.907812 
z
" style="fill: #e6f5c9; stroke: #7a7a7a; stroke-linejoin: miter"/>
    </g>
    <g id="text_13">
     <!-- gnb -->
     <g transform="translate(93.50625 257.907812) scale(0.1 -0.1)">
      <use xlink:href="#DejaVuSans-67"/>
      <use xlink:href="#DejaVuSans-6e" transform="translate(63.476562 0)"/>
      <use xlink:href="#DejaVuSans-62" transform="translate(126.855469 0)"/>
     </g>
    </g>
    <g id="patch_28">
     <path d="M 65.50625 272.585938 
L 85.50625 272.585938 
L 85.50625 265.585938 
L 65.50625 265.585938 
z
" style="fill: url(#h5c36d2b54f); stroke: #7a7a7a; stroke-linejoin: miter"/>
    </g>
    <g id="text_14">
     <!-- kdc -->
     <g transform="translate(93.50625 272.585938) scale(0.1 -0.1)">
      <use xlink:href="#DejaVuSans-6b"/>
      <use xlink:href="#DejaVuSans-64" transform="translate(57.910156 0)"/>
      <use xlink:href="#DejaVuSans-63" transform="translate(121.386719 0)"/>
     </g>
    </g>
    <g id="patch_29">
     <path d="M 65.50625 287.264063 
L 85.50625 287.264063 
L 85.50625 280.264063 
L 65.50625 280.264063 
z
" style="fill: url(#h0577782f04); stroke: #7a7a7a; stroke-linejoin: miter"/>
    </g>
    <g id="text_15">
     <!-- kn -->
     <g transform="translate(93.50625 287.264063) scale(0.1 -0.1)">
      <use xlink:href="#DejaVuSans-6b"/>
      <use xlink:href="#DejaVuSans-6e" transform="translate(57.910156 0)"/>
     </g>
    </g>
    <g id="patch_30">
     <path d="M 65.50625 301.942187 
L 85.50625 301.942187 
L 85.50625 294.942187 
L 65.50625 294.942187 
z
" style="fill: #cbd5e8; stroke: #7a7a7a; stroke-linejoin: miter"/>
    </g>
    <g id="text_16">
     <!-- lr -->
     <g transform="translate(93.50625 301.942187) scale(0.1 -0.1)">
      <use xlink:href="#DejaVuSans-6c"/>
      <use xlink:href="#DejaVuSans-72" transform="translate(27.783203 0)"/>
     </g>
    </g>
    <g id="patch_31">
     <path d="M 65.50625 316.620313 
L 85.50625 316.620313 
L 85.50625 309.620313 
L 65.50625 309.620313 
z
" style="fill: url(#h9666d6bbb0); stroke: #7a7a7a; stroke-linejoin: miter"/>
    </g>
    <g id="text_17">
     <!-- slr -->
     <g transform="translate(93.50625 316.620313) scale(0.1 -0.1)">
      <defs>
       <path id="DejaVuSans-73" d="M 2834 3397 
L 2834 2853 
Q 2591 2978 2328 3040 
Q 2066 3103 1784 3103 
Q 1356 3103 1142 2972 
Q 928 2841 928 2578 
Q 928 2378 1081 2264 
Q 1234 2150 1697 2047 
L 1894 2003 
Q 2506 1872 2764 1633 
Q 3022 1394 3022 966 
Q 3022 478 2636 193 
Q 2250 -91 1575 -91 
Q 1294 -91 989 -36 
Q 684 19 347 128 
L 347 722 
Q 666 556 975 473 
Q 1284 391 1588 391 
Q 1994 391 2212 530 
Q 2431 669 2431 922 
Q 2431 1156 2273 1281 
Q 2116 1406 1581 1522 
L 1381 1569 
Q 847 1681 609 1914 
Q 372 2147 372 2553 
Q 372 3047 722 3315 
Q 1072 3584 1716 3584 
Q 2034 3584 2315 3537 
Q 2597 3491 2834 3397 
z
" transform="scale(0.015625)"/>
      </defs>
      <use xlink:href="#DejaVuSans-73"/>
      <use xlink:href="#DejaVuSans-6c" transform="translate(52.099609 0)"/>
      <use xlink:href="#DejaVuSans-72" transform="translate(79.882812 0)"/>
     </g>
    </g>
   </g>
  </g>
 </g>
 <defs>
  <clipPath id="p903e996c1f">
   <rect x="56.50625" y="7.2" width="389.89375" height="320.5"/>
  </clipPath>
 </defs>
 <defs>
  <pattern id="h5c36d2b54f" patternUnits="userSpaceOnUse" x="0" y="0" width="72" height="72">
   <rect x="0" y="0" width="73" height="73" fill="#b3e2cd"/>
   <path d="M -36 36 
L 36 -36 
M -32 40 
L 40 -32 
M -28 44 
L 44 -28 
M -24 48 
L 48 -24 
M -20 52 
L 52 -20 
M -16 56 
L 56 -16 
M -12 60 
L 60 -12 
M -8 64 
L 64 -8 
M -4 68 
L 68 -4 
M 0 72 
L 72 0 
M 4 76 
L 76 4 
M 8 80 
L 80 8 
M 12 84 
L 84 12 
M 16 88 
L 88 16 
M 20 92 
L 92 20 
M 24 96 
L 96 24 
M 28 100 
L 100 28 
M 32 104 
L 104 32 
M 36 108 
L 108 36 
" style="fill: #7a7a7a; stroke: #7a7a7a; stroke-width: 1.0; stroke-linecap: butt; stroke-linejoin: miter"/>
  </pattern>
  <pattern id="h0577782f04" patternUnits="userSpaceOnUse" x="0" y="0" width="72" height="72">
   <rect x="0" y="0" width="73" height="73" fill="#fdcdac"/>
   <path d="M -36 36 
L 36 -36 
M -32 40 
L 40 -32 
M -28 44 
L 44 -28 
M -24 48 
L 48 -24 
M -20 52 
L 52 -20 
M -16 56 
L 56 -16 
M -12 60 
L 60 -12 
M -8 64 
L 64 -8 
M -4 68 
L 68 -4 
M 0 72 
L 72 0 
M 4 76 
L 76 4 
M 8 80 
L 80 8 
M 12 84 
L 84 12 
M 16 88 
L 88 16 
M 20 92 
L 92 20 
M 24 96 
L 96 24 
M 28 100 
L 100 28 
M 32 104 
L 104 32 
M 36 108 
L 108 36 
" style="fill: #7a7a7a; stroke: #7a7a7a; stroke-width: 1.0; stroke-linecap: butt; stroke-linejoin: miter"/>
  </pattern>
  <pattern id="h9666d6bbb0" patternUnits="userSpaceOnUse" x="0" y="0" width="72" height="72">
   <rect x="0" y="0" width="73" height="73" fill="#cbd5e8"/>
   <path d="M -36 36 
L 36 -36 
M -32 40 
L 40 -32 
M -28 44 
L 44 -28 
M -24 48 
L 48 -24 
M -20 52 
L 52 -20 
M -16 56 
L 56 -16 
M -12 60 
L 60 -12 
M -8 64 
L 64 -8 
M -4 68 
L 68 -4 
M 0 72 
L 72 0 
M 4 76 
L 76 4 
M 8 80 
L 80 8 
M 12 84 
L 84 12 
M 16 88 
L 88 16 
M 20 92 
L 92 20 
M 24 96 
L 96 24 
M 28 100 
L 100 28 
M 32 104 
L 104 32 
M 36 108 
L 108 36 
" style="fill: #7a7a7a; stroke: #7a7a7a; stroke-width: 1.0; stroke-linecap: butt; stroke-linejoin: miter"/>
  </pattern>
 </defs>
</svg>
