<?xml version="1.0" encoding="utf-8" standalone="no"?>
<!DOCTYPE svg PUBLIC "-//W3C//DTD SVG 1.1//EN"
  "http://www.w3.org/Graphics/SVG/1.1/DTD/svg11.dtd">
<svg xmlns:xlink="http://www.w3.org/1999/xlink" width="460.8pt" height="345.6pt" viewBox="0 0 460.8 345.6" xmlns="http://www.w3.org/2000/svg" version="1.1">
 <metadata>
  <rdf:RDF xmlns:dc="http://purl.org/dc/elements/1.1/" xmlns:cc="http://creativecommons.org/ns#" xmlns:rdf="http://www.w3.org/1999/02/22-rdf-syntax-ns#">
   <cc:Work>
    <dc:type rdf:resource="http://purl.org/dc/dcmitype/StillImage"/>
    <dc:date>2025-11-23T17:47:04.186038</dc:date>
    <dc:format>image/svg+xml</dc:format>
    <dc:creator>
     <cc:Agent>
      <dc:title>Matplotlib v3.10.7, https://matplotlib.org/</dc:title>
     </cc:Agent>
    </dc:creator>
   </cc:Work>
  </rdf:RDF>
 </metadata>
 <defs>
  <style type="text/css">*{stroke-linejoin: round; stroke-linecap: butt}</style>
 </defs>
 <g id="figure_1">
  <g id="patch_1">
   <path d="M 0 345.6 
L 460.8 345.6 
L 460.8 0 
L 0 0 
z
" style="fill: #ffffff"/>
  </g>
  <g id="axes_1">
   <g id="patch_2">
    <path d="M 53.74375 331.3 
L 450 331.3 
L 450 25.918125 
L 53.74375 25.918125 
z
" style="fill: #ffffff"/>
   </g>
   <g id="patch_3">
    <path d="M 251.871875 2563.8738 
L 251.871875 2563.8738 
L 251.871875 2563.8738 
L 251.871875 2563.8738 
z
" clip-path="url(#p4d7e48b0d9)" style="fill: #96cac1; stroke: #626262; stroke-linejoin: miter"/>
   </g>
   <g id="patch_4">
    <path d="M 251.871875 2563.8738 
L 251.871875 2563.8738 
L 251.871875 2563.8738 
L 251.871875 2563.8738 
z
" clip-path="url(#p4d7e48b0d9)" style="fill: #8aafc9; stroke: #626262; stroke-linejoin: miter"/>
   </g>
   <g id="patch_5">
    <path d="M 251.871875 2563.8738 
L 251.871875 2563.8738 
L 251.871875 2563.8738 
L 251.871875 2563.8738 
z
" clip-path="url(#p4d7e48b0d9)" style="fill: #d9d9d9; stroke: #626262; stroke-linejoin: miter"/>
   </g>
   <g id="patch_6">
    <path d="M 251.871875 2563.8738 
L 251.871875 2563.8738 
L 251.871875 2563.8738 
L 251.871875 2563.8738 
z
" clip-path="url(#p4d7e48b0d9)" style="fill: #c1bed6; stroke: #626262; stroke-linejoin: miter"/>
   </g>
   <g id="patch_7">
    <path d="M 251.871875 2563.8738 
L 251.871875 2563.8738 
L 251.871875 2563.8738 
L 251.871875 2563.8738 
z
" clip-path="url(#p4d7e48b0d9)" style="fill: #f6f6bc; stroke: #626262; stroke-linejoin: miter"/>
   </g>
   <g id="patch_8">
    <path d="M 251.871875 2563.8738 
L 251.871875 2563.8738 
L 251.871875 2563.8738 
L 251.871875 2563.8738 
z
" clip-path="url(#p4d7e48b0d9)" style="fill: #ea8e83; stroke: #626262; stroke-linejoin: miter"/>
   </g>
   <g id="patch_9">
    <path d="M 251.871875 2563.8738 
L 251.871875 2563.8738 
L 251.871875 2563.8738 
L 251.871875 2563.8738 
z
" clip-path="url(#p4d7e48b0d9)" style="fill: #eab375; stroke: #626262; stroke-linejoin: miter"/>
   </g>
   <g id="patch_10">
    <path d="M 251.871875 2563.8738 
L 251.871875 2563.8738 
L 251.871875 2563.8738 
L 251.871875 2563.8738 
z
" clip-path="url(#p4d7e48b0d9)" style="fill: #afcf78; stroke: #626262; stroke-linejoin: miter"/>
   </g>
   <g id="patch_11">
    <path d="M 251.871875 2563.8738 
L 251.871875 2563.8738 
L 251.871875 2563.8738 
L 251.871875 2563.8738 
z
" clip-path="url(#p4d7e48b0d9)" style="fill: #f6d3e5; stroke: #626262; stroke-linejoin: miter"/>
   </g>
   <g id="matplotlib.axis_1">
    <g id="xtick_1">
     <g id="line2d_1">
      <defs>
       <path id="me41be9917d" d="M 0 0 
L 0 3.5 
" style="stroke: #000000; stroke-width: 0.8"/>
      </defs>
      <g>
       <use xlink:href="#me41be9917d" x="251.871875" y="331.3" style="stroke: #000000; stroke-width: 0.8"/>
      </g>
     </g>
    </g>
   </g>
   <g id="matplotlib.axis_2">
    <g id="ytick_1">
     <g id="line2d_2">
      <defs>
       <path id="m319283d1c0" d="M 0 0 
L -3.5 0 
" style="stroke: #000000; stroke-width: 0.8"/>
      </defs>
      <g>
       <use xlink:href="#m319283d1c0" x="53.74375" y="322.744775" style="stroke: #000000; stroke-width: 0.8"/>
      </g>
     </g>
     <g id="text_1">
      <!-- 0.88 -->
      <g transform="translate(24.478125 326.543994) scale(0.1 -0.1)">
       <defs>
        <path id="DejaVuSans-30" d="M 2034 4250 
Q 1547 4250 1301 3770 
Q 1056 3291 1056 2328 
Q 1056 1369 1301 889 
Q 1547 409 2034 409 
Q 2525 409 2770 889 
Q 3016 1369 3016 2328 
Q 3016 3291 2770 3770 
Q 2525 4250 2034 4250 
z
M 2034 4750 
Q 2819 4750 3233 4129 
Q 3647 3509 3647 2328 
Q 3647 1150 3233 529 
Q 2819 -91 2034 -91 
Q 1250 -91 836 529 
Q 422 1150 422 2328 
Q 422 3509 836 4129 
Q 1250 4750 2034 4750 
z
" transform="scale(0.015625)"/>
        <path id="DejaVuSans-2e" d="M 684 794 
L 1344 794 
L 1344 0 
L 684 0 
L 684 794 
z
" transform="scale(0.015625)"/>
        <path id="DejaVuSans-38" d="M 2034 2216 
Q 1584 2216 1326 1975 
Q 1069 1734 1069 1313 
Q 1069 891 1326 650 
Q 1584 409 2034 409 
Q 2484 409 2743 651 
Q 3003 894 3003 1313 
Q 3003 1734 2745 1975 
Q 2488 2216 2034 2216 
z
M 1403 2484 
Q 997 2584 770 2862 
Q 544 3141 544 3541 
Q 544 4100 942 4425 
Q 1341 4750 2034 4750 
Q 2731 4750 3128 4425 
Q 3525 4100 3525 3541 
Q 3525 3141 3298 2862 
Q 3072 2584 2669 2484 
Q 3125 2378 3379 2068 
Q 3634 1759 3634 1313 
Q 3634 634 3220 271 
Q 2806 -91 2034 -91 
Q 1263 -91 848 271 
Q 434 634 434 1313 
Q 434 1759 690 2068 
Q 947 2378 1403 2484 
z
M 1172 3481 
Q 1172 3119 1398 2916 
Q 1625 2713 2034 2713 
Q 2441 2713 2670 2916 
Q 2900 3119 2900 3481 
Q 2900 3844 2670 4047 
Q 2441 4250 2034 4250 
Q 1625 4250 1398 4047 
Q 1172 3844 1172 3481 
z
" transform="scale(0.015625)"/>
       </defs>
       <use xlink:href="#DejaVuSans-30"/>
       <use xlink:href="#DejaVuSans-2e" transform="translate(63.623047 0)"/>
       <use xlink:href="#DejaVuSans-38" transform="translate(95.410156 0)"/>
       <use xlink:href="#DejaVuSans-38" transform="translate(159.033203 0)"/>
      </g>
     </g>
    </g>
    <g id="ytick_2">
     <g id="line2d_3">
      <g>
       <use xlink:href="#m319283d1c0" x="53.74375" y="271.810024" style="stroke: #000000; stroke-width: 0.8"/>
      </g>
     </g>
     <g id="text_2">
      <!-- 0.90 -->
      <g transform="translate(24.478125 275.609243) scale(0.1 -0.1)">
       <defs>
        <path id="DejaVuSans-39" d="M 703 97 
L 703 672 
Q 941 559 1184 500 
Q 1428 441 1663 441 
Q 2288 441 2617 861 
Q 2947 1281 2994 2138 
Q 2813 1869 2534 1725 
Q 2256 1581 1919 1581 
Q 1219 1581 811 2004 
Q 403 2428 403 3163 
Q 403 3881 828 4315 
Q 1253 4750 1959 4750 
Q 2769 4750 3195 4129 
Q 3622 3509 3622 2328 
Q 3622 1225 3098 567 
Q 2575 -91 1691 -91 
Q 1453 -91 1209 -44 
Q 966 3 703 97 
z
M 1959 2075 
Q 2384 2075 2632 2365 
Q 2881 2656 2881 3163 
Q 2881 3666 2632 3958 
Q 2384 4250 1959 4250 
Q 1534 4250 1286 3958 
Q 1038 3666 1038 3163 
Q 1038 2656 1286 2365 
Q 1534 2075 1959 2075 
z
" transform="scale(0.015625)"/>
       </defs>
       <use xlink:href="#DejaVuSans-30"/>
       <use xlink:href="#DejaVuSans-2e" transform="translate(63.623047 0)"/>
       <use xlink:href="#DejaVuSans-39" transform="translate(95.410156 0)"/>
       <use xlink:href="#DejaVuSans-30" transform="translate(159.033203 0)"/>
      </g>
     </g>
    </g>
    <g id="ytick_3">
     <g id="line2d_4">
      <g>
       <use xlink:href="#m319283d1c0" x="53.74375" y="220.875274" style="stroke: #000000; stroke-width: 0.8"/>
      </g>
     </g>
     <g id="text_3">
      <!-- 0.92 -->
      <g transform="translate(24.478125 224.674493) scale(0.1 -0.1)">
       <defs>
        <path id="DejaVuSans-32" d="M 1228 531 
L 3431 531 
L 3431 0 
L 469 0 
L 469 531 
Q 828 903 1448 1529 
Q 2069 2156 2228 2338 
Q 2531 2678 2651 2914 
Q 2772 3150 2772 3378 
Q 2772 3750 2511 3984 
Q 2250 4219 1831 4219 
Q 1534 4219 1204 4116 
Q 875 4013 500 3803 
L 500 4441 
Q 881 4594 1212 4672 
Q 1544 4750 1819 4750 
Q 2544 4750 2975 4387 
Q 3406 4025 3406 3419 
Q 3406 3131 3298 2873 
Q 3191 2616 2906 2266 
Q 2828 2175 2409 1742 
Q 1991 1309 1228 531 
z
" transform="scale(0.015625)"/>
       </defs>
       <use xlink:href="#DejaVuSans-30"/>
       <use xlink:href="#DejaVuSans-2e" transform="translate(63.623047 0)"/>
       <use xlink:href="#DejaVuSans-39" transform="translate(95.410156 0)"/>
       <use xlink:href="#DejaVuSans-32" transform="translate(159.033203 0)"/>
      </g>
     </g>
    </g>
    <g id="ytick_4">
     <g id="line2d_5">
      <g>
       <use xlink:href="#m319283d1c0" x="53.74375" y="169.940523" style="stroke: #000000; stroke-width: 0.8"/>
      </g>
     </g>
     <g id="text_4">
      <!-- 0.94 -->
      <g transform="translate(24.478125 173.739742) scale(0.1 -0.1)">
       <defs>
        <path id="DejaVuSans-34" d="M 2419 4116 
L 825 1625 
L 2419 1625 
L 2419 4116 
z
M 2253 4666 
L 3047 4666 
L 3047 1625 
L 3713 1625 
L 3713 1100 
L 3047 1100 
L 3047 0 
L 2419 0 
L 2419 1100 
L 313 1100 
L 313 1709 
L 2253 4666 
z
" transform="scale(0.015625)"/>
       </defs>
       <use xlink:href="#DejaVuSans-30"/>
       <use xlink:href="#DejaVuSans-2e" transform="translate(63.623047 0)"/>
       <use xlink:href="#DejaVuSans-39" transform="translate(95.410156 0)"/>
       <use xlink:href="#DejaVuSans-34" transform="translate(159.033203 0)"/>
      </g>
     </g>
    </g>
    <g id="ytick_5">
     <g id="line2d_6">
      <g>
       <use xlink:href="#m319283d1c0" x="53.74375" y="119.005773" style="stroke: #000000; stroke-width: 0.8"/>
      </g>
     </g>
     <g id="text_5">
      <!-- 0.96 -->
      <g transform="translate(24.478125 122.804991) scale(0.1 -0.1)">
       <defs>
        <path id="DejaVuSans-36" d="M 2113 2584 
Q 1688 2584 1439 2293 
Q 1191 2003 1191 1497 
Q 1191 994 1439 701 
Q 1688 409 2113 409 
Q 2538 409 2786 701 
Q 3034 994 3034 1497 
Q 3034 2003 2786 2293 
Q 2538 2584 2113 2584 
z
M 3366 4563 
L 3366 3988 
Q 3128 4100 2886 4159 
Q 2644 4219 2406 4219 
Q 1781 4219 1451 3797 
Q 1122 3375 1075 2522 
Q 1259 2794 1537 2939 
Q 1816 3084 2150 3084 
Q 2853 3084 3261 2657 
Q 3669 2231 3669 1497 
Q 3669 778 3244 343 
Q 2819 -91 2113 -91 
Q 1303 -91 875 529 
Q 447 1150 447 2328 
Q 447 3434 972 4092 
Q 1497 4750 2381 4750 
Q 2619 4750 2861 4703 
Q 3103 4656 3366 4563 
z
" transform="scale(0.015625)"/>
       </defs>
       <use xlink:href="#DejaVuSans-30"/>
       <use xlink:href="#DejaVuSans-2e" transform="translate(63.623047 0)"/>
       <use xlink:href="#DejaVuSans-39" transform="translate(95.410156 0)"/>
       <use xlink:href="#DejaVuSans-36" transform="translate(159.033203 0)"/>
      </g>
     </g>
    </g>
    <g id="ytick_6">
     <g id="line2d_7">
      <g>
       <use xlink:href="#m319283d1c0" x="53.74375" y="68.071022" style="stroke: #000000; stroke-width: 0.8"/>
      </g>
     </g>
     <g id="text_6">
      <!-- 0.98 -->
      <g transform="translate(24.478125 71.870241) scale(0.1 -0.1)">
       <use xlink:href="#DejaVuSans-30"/>
       <use xlink:href="#DejaVuSans-2e" transform="translate(63.623047 0)"/>
       <use xlink:href="#DejaVuSans-39" transform="translate(95.410156 0)"/>
       <use xlink:href="#DejaVuSans-38" transform="translate(159.033203 0)"/>
      </g>
     </g>
    </g>
    <g id="text_7">
     <!-- accuracy -->
     <g transform="translate(18.398437 201.168437) rotate(-90) scale(0.1 -0.1)">
      <defs>
       <path id="DejaVuSans-61" d="M 2194 1759 
Q 1497 1759 1228 1600 
Q 959 1441 959 1056 
Q 959 750 1161 570 
Q 1363 391 1709 391 
Q 2188 391 2477 730 
Q 2766 1069 2766 1631 
L 2766 1759 
L 2194 1759 
z
M 3341 1997 
L 3341 0 
L 2766 0 
L 2766 531 
Q 2569 213 2275 61 
Q 1981 -91 1556 -91 
Q 1019 -91 701 211 
Q 384 513 384 1019 
Q 384 1609 779 1909 
Q 1175 2209 1959 2209 
L 2766 2209 
L 2766 2266 
Q 2766 2663 2505 2880 
Q 2244 3097 1772 3097 
Q 1472 3097 1187 3025 
Q 903 2953 641 2809 
L 641 3341 
Q 956 3463 1253 3523 
Q 1550 3584 1831 3584 
Q 2591 3584 2966 3190 
Q 3341 2797 3341 1997 
z
" transform="scale(0.015625)"/>
       <path id="DejaVuSans-63" d="M 3122 3366 
L 3122 2828 
Q 2878 2963 2633 3030 
Q 2388 3097 2138 3097 
Q 1578 3097 1268 2742 
Q 959 2388 959 1747 
Q 959 1106 1268 751 
Q 1578 397 2138 397 
Q 2388 397 2633 464 
Q 2878 531 3122 666 
L 3122 134 
Q 2881 22 2623 -34 
Q 2366 -91 2075 -91 
Q 1284 -91 818 406 
Q 353 903 353 1747 
Q 353 2603 823 3093 
Q 1294 3584 2113 3584 
Q 2378 3584 2631 3529 
Q 2884 3475 3122 3366 
z
" transform="scale(0.015625)"/>
       <path id="DejaVuSans-75" d="M 544 1381 
L 544 3500 
L 1119 3500 
L 1119 1403 
Q 1119 906 1312 657 
Q 1506 409 1894 409 
Q 2359 409 2629 706 
Q 2900 1003 2900 1516 
L 2900 3500 
L 3475 3500 
L 3475 0 
L 2900 0 
L 2900 538 
Q 2691 219 2414 64 
Q 2138 -91 1772 -91 
Q 1169 -91 856 284 
Q 544 659 544 1381 
z
M 1991 3584 
L 1991 3584 
z
" transform="scale(0.015625)"/>
       <path id="DejaVuSans-72" d="M 2631 2963 
Q 2534 3019 2420 3045 
Q 2306 3072 2169 3072 
Q 1681 3072 1420 2755 
Q 1159 2438 1159 1844 
L 1159 0 
L 581 0 
L 581 3500 
L 1159 3500 
L 1159 2956 
Q 1341 3275 1631 3429 
Q 1922 3584 2338 3584 
Q 2397 3584 2469 3576 
Q 2541 3569 2628 3553 
L 2631 2963 
z
" transform="scale(0.015625)"/>
       <path id="DejaVuSans-79" d="M 2059 -325 
Q 1816 -950 1584 -1140 
Q 1353 -1331 966 -1331 
L 506 -1331 
L 506 -850 
L 844 -850 
Q 1081 -850 1212 -737 
Q 1344 -625 1503 -206 
L 1606 56 
L 191 3500 
L 800 3500 
L 1894 763 
L 2988 3500 
L 3597 3500 
L 2059 -325 
z
" transform="scale(0.015625)"/>
      </defs>
      <use xlink:href="#DejaVuSans-61"/>
      <use xlink:href="#DejaVuSans-63" transform="translate(61.279297 0)"/>
      <use xlink:href="#DejaVuSans-63" transform="translate(116.259766 0)"/>
      <use xlink:href="#DejaVuSans-75" transform="translate(171.240234 0)"/>
      <use xlink:href="#DejaVuSans-72" transform="translate(234.619141 0)"/>
      <use xlink:href="#DejaVuSans-61" transform="translate(275.732422 0)"/>
      <use xlink:href="#DejaVuSans-63" transform="translate(337.011719 0)"/>
      <use xlink:href="#DejaVuSans-79" transform="translate(391.992188 0)"/>
     </g>
    </g>
   </g>
   <g id="patch_12">
    <path d="M 96.891653 62.461967 
L 125.069875 62.461967 
L 125.069875 53.963399 
L 96.891653 53.963399 
L 96.891653 62.461967 
z
" clip-path="url(#p4d7e48b0d9)" style="fill: #96cac1; stroke: #626262; stroke-linejoin: miter"/>
   </g>
   <g id="line2d_8">
    <path d="M 110.980764 62.461967 
L 110.980764 73.793391 
" clip-path="url(#p4d7e48b0d9)" style="fill: none; stroke: #626262"/>
   </g>
   <g id="line2d_9">
    <path d="M 110.980764 53.963399 
L 110.980764 45.464831 
" clip-path="url(#p4d7e48b0d9)" style="fill: none; stroke: #626262"/>
   </g>
   <g id="line2d_10">
    <path d="M 103.936208 73.793391 
L 118.025319 73.793391 
" clip-path="url(#p4d7e48b0d9)" style="fill: none; stroke: #626262; stroke-linecap: square"/>
   </g>
   <g id="line2d_11">
    <path d="M 103.936208 45.464831 
L 118.025319 45.464831 
" clip-path="url(#p4d7e48b0d9)" style="fill: none; stroke: #626262; stroke-linecap: square"/>
   </g>
   <g id="line2d_12">
    <defs>
     <path id="m8b4e8babb5" d="M 0 3 
C 0.795609 3 1.55874 2.683901 2.12132 2.12132 
C 2.683901 1.55874 3 0.795609 3 0 
C 3 -0.795609 2.683901 -1.55874 2.12132 -2.12132 
C 1.55874 -2.683901 0.795609 -3 0 -3 
C -0.795609 -3 -1.55874 -2.683901 -2.12132 -2.12132 
C -2.683901 -1.55874 -3 -0.795609 -3 0 
C -3 0.795609 -2.683901 1.55874 -2.12132 2.12132 
C -1.55874 2.683901 -0.795609 3 0 3 
z
" style="stroke: #626262"/>
    </defs>
    <g clip-path="url(#p4d7e48b0d9)">
     <use xlink:href="#m8b4e8babb5" x="110.980764" y="76.626247" style="fill-opacity: 0; stroke: #626262"/>
     <use xlink:href="#m8b4e8babb5" x="110.980764" y="39.799119" style="fill-opacity: 0; stroke: #626262"/>
    </g>
   </g>
   <g id="patch_13">
    <path d="M 132.114431 130.450511 
L 160.292653 130.450511 
L 160.292653 82.291959 
L 132.114431 82.291959 
L 132.114431 130.450511 
z
" clip-path="url(#p4d7e48b0d9)" style="fill: #8aafc9; stroke: #626262; stroke-linejoin: miter"/>
   </g>
   <g id="line2d_13">
    <path d="M 146.203542 130.450511 
L 146.203542 187.10763 
" clip-path="url(#p4d7e48b0d9)" style="fill: none; stroke: #626262"/>
   </g>
   <g id="line2d_14">
    <path d="M 146.203542 82.291959 
L 146.203542 59.629111 
" clip-path="url(#p4d7e48b0d9)" style="fill: none; stroke: #626262"/>
   </g>
   <g id="line2d_15">
    <path d="M 139.158986 187.10763 
L 153.248097 187.10763 
" clip-path="url(#p4d7e48b0d9)" style="fill: none; stroke: #626262; stroke-linecap: square"/>
   </g>
   <g id="line2d_16">
    <path d="M 139.158986 59.629111 
L 153.248097 59.629111 
" clip-path="url(#p4d7e48b0d9)" style="fill: none; stroke: #626262; stroke-linecap: square"/>
   </g>
   <g id="line2d_17"/>
   <g id="patch_14">
    <path d="M 167.337208 124.784799 
L 195.515431 124.784799 
L 195.515431 110.620519 
L 167.337208 110.620519 
L 167.337208 124.784799 
z
" clip-path="url(#p4d7e48b0d9)" style="fill: #d9d9d9; stroke: #626262; stroke-linejoin: miter"/>
   </g>
   <g id="line2d_18">
    <path d="M 181.426319 124.784799 
L 181.426319 144.614791 
" clip-path="url(#p4d7e48b0d9)" style="fill: none; stroke: #626262"/>
   </g>
   <g id="line2d_19">
    <path d="M 181.426319 110.620519 
L 181.426319 90.790527 
" clip-path="url(#p4d7e48b0d9)" style="fill: none; stroke: #626262"/>
   </g>
   <g id="line2d_20">
    <path d="M 174.381764 144.614791 
L 188.470875 144.614791 
" clip-path="url(#p4d7e48b0d9)" style="fill: none; stroke: #626262; stroke-linecap: square"/>
   </g>
   <g id="line2d_21">
    <path d="M 174.381764 90.790527 
L 188.470875 90.790527 
" clip-path="url(#p4d7e48b0d9)" style="fill: none; stroke: #626262; stroke-linecap: square"/>
   </g>
   <g id="line2d_22">
    <g clip-path="url(#p4d7e48b0d9)">
     <use xlink:href="#m8b4e8babb5" x="181.426319" y="153.113359" style="fill-opacity: 0; stroke: #626262"/>
     <use xlink:href="#m8b4e8babb5" x="181.426319" y="150.280503" style="fill-opacity: 0; stroke: #626262"/>
     <use xlink:href="#m8b4e8babb5" x="181.426319" y="87.957671" style="fill-opacity: 0; stroke: #626262"/>
    </g>
   </g>
   <g id="patch_15">
    <path d="M 202.559986 294.756158 
L 230.738208 294.756158 
L 230.738208 255.096174 
L 202.559986 255.096174 
L 202.559986 294.756158 
z
" clip-path="url(#p4d7e48b0d9)" style="fill: #c1bed6; stroke: #626262; stroke-linejoin: miter"/>
   </g>
   <g id="line2d_23">
    <path d="M 216.649097 294.756158 
L 216.649097 317.419006 
" clip-path="url(#p4d7e48b0d9)" style="fill: none; stroke: #626262"/>
   </g>
   <g id="line2d_24">
    <path d="M 216.649097 255.096174 
L 216.649097 226.767614 
" clip-path="url(#p4d7e48b0d9)" style="fill: none; stroke: #626262"/>
   </g>
   <g id="line2d_25">
    <path d="M 209.604542 317.419006 
L 223.693653 317.419006 
" clip-path="url(#p4d7e48b0d9)" style="fill: none; stroke: #626262; stroke-linecap: square"/>
   </g>
   <g id="line2d_26">
    <path d="M 209.604542 226.767614 
L 223.693653 226.767614 
" clip-path="url(#p4d7e48b0d9)" style="fill: none; stroke: #626262; stroke-linecap: square"/>
   </g>
   <g id="line2d_27"/>
   <g id="patch_16">
    <path d="M 237.782764 65.294823 
L 265.960986 65.294823 
L 265.960986 51.130543 
L 237.782764 51.130543 
L 237.782764 65.294823 
z
" clip-path="url(#p4d7e48b0d9)" style="fill: #f6f6bc; stroke: #626262; stroke-linejoin: miter"/>
   </g>
   <g id="line2d_28">
    <path d="M 251.871875 65.294823 
L 251.871875 79.459103 
" clip-path="url(#p4d7e48b0d9)" style="fill: none; stroke: #626262"/>
   </g>
   <g id="line2d_29">
    <path d="M 251.871875 51.130543 
L 251.871875 45.464831 
" clip-path="url(#p4d7e48b0d9)" style="fill: none; stroke: #626262"/>
   </g>
   <g id="line2d_30">
    <path d="M 244.827319 79.459103 
L 258.916431 79.459103 
" clip-path="url(#p4d7e48b0d9)" style="fill: none; stroke: #626262; stroke-linecap: square"/>
   </g>
   <g id="line2d_31">
    <path d="M 244.827319 45.464831 
L 258.916431 45.464831 
" clip-path="url(#p4d7e48b0d9)" style="fill: none; stroke: #626262; stroke-linecap: square"/>
   </g>
   <g id="line2d_32">
    <g clip-path="url(#p4d7e48b0d9)">
     <use xlink:href="#m8b4e8babb5" x="251.871875" y="90.790527" style="fill-opacity: 0; stroke: #626262"/>
    </g>
   </g>
   <g id="patch_17">
    <path d="M 273.005542 158.779071 
L 301.183764 158.779071 
L 301.183764 104.954807 
L 273.005542 104.954807 
L 273.005542 158.779071 
z
" clip-path="url(#p4d7e48b0d9)" style="fill: #ea8e83; stroke: #626262; stroke-linejoin: miter"/>
   </g>
   <g id="line2d_33">
    <path d="M 287.094653 158.779071 
L 287.094653 187.10763 
" clip-path="url(#p4d7e48b0d9)" style="fill: none; stroke: #626262"/>
   </g>
   <g id="line2d_34">
    <path d="M 287.094653 104.954807 
L 287.094653 73.793391 
" clip-path="url(#p4d7e48b0d9)" style="fill: none; stroke: #626262"/>
   </g>
   <g id="line2d_35">
    <path d="M 280.050097 187.10763 
L 294.139208 187.10763 
" clip-path="url(#p4d7e48b0d9)" style="fill: none; stroke: #626262; stroke-linecap: square"/>
   </g>
   <g id="line2d_36">
    <path d="M 280.050097 73.793391 
L 294.139208 73.793391 
" clip-path="url(#p4d7e48b0d9)" style="fill: none; stroke: #626262; stroke-linecap: square"/>
   </g>
   <g id="line2d_37"/>
   <g id="patch_18">
    <path d="M 308.228319 124.784799 
L 336.406542 124.784799 
L 336.406542 104.954807 
L 308.228319 104.954807 
L 308.228319 124.784799 
z
" clip-path="url(#p4d7e48b0d9)" style="fill: #eab375; stroke: #626262; stroke-linejoin: miter"/>
   </g>
   <g id="line2d_38">
    <path d="M 322.317431 124.784799 
L 322.317431 150.280503 
" clip-path="url(#p4d7e48b0d9)" style="fill: none; stroke: #626262"/>
   </g>
   <g id="line2d_39">
    <path d="M 322.317431 104.954807 
L 322.317431 85.124815 
" clip-path="url(#p4d7e48b0d9)" style="fill: none; stroke: #626262"/>
   </g>
   <g id="line2d_40">
    <path d="M 315.272875 150.280503 
L 329.361986 150.280503 
" clip-path="url(#p4d7e48b0d9)" style="fill: none; stroke: #626262; stroke-linecap: square"/>
   </g>
   <g id="line2d_41">
    <path d="M 315.272875 85.124815 
L 329.361986 85.124815 
" clip-path="url(#p4d7e48b0d9)" style="fill: none; stroke: #626262; stroke-linecap: square"/>
   </g>
   <g id="line2d_42"/>
   <g id="patch_19">
    <path d="M 343.451097 127.617655 
L 371.629319 127.617655 
L 371.629319 102.121951 
L 343.451097 102.121951 
L 343.451097 127.617655 
z
" clip-path="url(#p4d7e48b0d9)" style="fill: #afcf78; stroke: #626262; stroke-linejoin: miter"/>
   </g>
   <g id="line2d_43">
    <path d="M 357.540208 127.617655 
L 357.540208 155.946215 
" clip-path="url(#p4d7e48b0d9)" style="fill: none; stroke: #626262"/>
   </g>
   <g id="line2d_44">
    <path d="M 357.540208 102.121951 
L 357.540208 82.291959 
" clip-path="url(#p4d7e48b0d9)" style="fill: none; stroke: #626262"/>
   </g>
   <g id="line2d_45">
    <path d="M 350.495653 155.946215 
L 364.584764 155.946215 
" clip-path="url(#p4d7e48b0d9)" style="fill: none; stroke: #626262; stroke-linecap: square"/>
   </g>
   <g id="line2d_46">
    <path d="M 350.495653 82.291959 
L 364.584764 82.291959 
" clip-path="url(#p4d7e48b0d9)" style="fill: none; stroke: #626262; stroke-linecap: square"/>
   </g>
   <g id="line2d_47"/>
   <g id="patch_20">
    <path d="M 378.673875 65.294823 
L 406.852097 65.294823 
L 406.852097 51.130543 
L 378.673875 51.130543 
L 378.673875 65.294823 
z
" clip-path="url(#p4d7e48b0d9)" style="fill: #f6d3e5; stroke: #626262; stroke-linejoin: miter"/>
   </g>
   <g id="line2d_48">
    <path d="M 392.762986 65.294823 
L 392.762986 85.124815 
" clip-path="url(#p4d7e48b0d9)" style="fill: none; stroke: #626262"/>
   </g>
   <g id="line2d_49">
    <path d="M 392.762986 51.130543 
L 392.762986 42.631975 
" clip-path="url(#p4d7e48b0d9)" style="fill: none; stroke: #626262"/>
   </g>
   <g id="line2d_50">
    <path d="M 385.718431 85.124815 
L 399.807542 85.124815 
" clip-path="url(#p4d7e48b0d9)" style="fill: none; stroke: #626262; stroke-linecap: square"/>
   </g>
   <g id="line2d_51">
    <path d="M 385.718431 42.631975 
L 399.807542 42.631975 
" clip-path="url(#p4d7e48b0d9)" style="fill: none; stroke: #626262; stroke-linecap: square"/>
   </g>
   <g id="line2d_52">
    <g clip-path="url(#p4d7e48b0d9)">
     <use xlink:href="#m8b4e8babb5" x="392.762986" y="87.957671" style="fill-opacity: 0; stroke: #626262"/>
    </g>
   </g>
   <g id="line2d_53">
    <path d="M 53.74375 53.963399 
L 450 53.963399 
" clip-path="url(#p4d7e48b0d9)" style="fill: none; stroke-dasharray: 1.5,2.475; stroke-dashoffset: 0; stroke: #808080; stroke-width: 1.5"/>
   </g>
   <g id="line2d_54">
    <path d="M 96.891653 56.796255 
L 125.069875 56.796255 
" clip-path="url(#p4d7e48b0d9)" style="fill: none; stroke: #626262"/>
   </g>
   <g id="line2d_55">
    <path d="M 132.114431 104.954807 
L 160.292653 104.954807 
" clip-path="url(#p4d7e48b0d9)" style="fill: none; stroke: #626262"/>
   </g>
   <g id="line2d_56">
    <path d="M 167.337208 119.119087 
L 195.515431 119.119087 
" clip-path="url(#p4d7e48b0d9)" style="fill: none; stroke: #626262"/>
   </g>
   <g id="line2d_57">
    <path d="M 202.559986 272.09331 
L 230.738208 272.09331 
" clip-path="url(#p4d7e48b0d9)" style="fill: none; stroke: #626262"/>
   </g>
   <g id="line2d_58">
    <path d="M 237.782764 53.963399 
L 265.960986 53.963399 
" clip-path="url(#p4d7e48b0d9)" style="fill: none; stroke: #626262"/>
   </g>
   <g id="line2d_59">
    <path d="M 273.005542 136.116223 
L 301.183764 136.116223 
" clip-path="url(#p4d7e48b0d9)" style="fill: none; stroke: #626262"/>
   </g>
   <g id="line2d_60">
    <path d="M 308.228319 116.286231 
L 336.406542 116.286231 
" clip-path="url(#p4d7e48b0d9)" style="fill: none; stroke: #626262"/>
   </g>
   <g id="line2d_61">
    <path d="M 343.451097 119.119087 
L 371.629319 119.119087 
" clip-path="url(#p4d7e48b0d9)" style="fill: none; stroke: #626262"/>
   </g>
   <g id="line2d_62">
    <path d="M 378.673875 62.461967 
L 406.852097 62.461967 
" clip-path="url(#p4d7e48b0d9)" style="fill: none; stroke: #626262"/>
   </g>
   <g id="patch_21">
    <path d="M 53.74375 331.3 
L 53.74375 25.918125 
" style="fill: none; stroke: #000000; stroke-width: 0.8; stroke-linejoin: miter; stroke-linecap: square"/>
   </g>
   <g id="patch_22">
    <path d="M 450 331.3 
L 450 25.918125 
" style="fill: none; stroke: #000000; stroke-width: 0.8; stroke-linejoin: miter; stroke-linecap: square"/>
   </g>
   <g id="patch_23">
    <path d="M 53.74375 331.3 
L 450 331.3 
" style="fill: none; stroke: #000000; stroke-width: 0.8; stroke-linejoin: miter; stroke-linecap: square"/>
   </g>
   <g id="patch_24">
    <path d="M 53.74375 25.918125 
L 450 25.918125 
" style="fill: none; stroke: #000000; stroke-width: 0.8; stroke-linejoin: miter; stroke-linecap: square"/>
   </g>
   <g id="text_8">
    <!-- digitos -  accuracy por clf (boxplot) -->
    <g transform="translate(147.043437 19.918125) scale(0.12 -0.12)">
     <defs>
      <path id="DejaVuSans-64" d="M 2906 2969 
L 2906 4863 
L 3481 4863 
L 3481 0 
L 2906 0 
L 2906 525 
Q 2725 213 2448 61 
Q 2172 -91 1784 -91 
Q 1150 -91 751 415 
Q 353 922 353 1747 
Q 353 2572 751 3078 
Q 1150 3584 1784 3584 
Q 2172 3584 2448 3432 
Q 2725 3281 2906 2969 
z
M 947 1747 
Q 947 1113 1208 752 
Q 1469 391 1925 391 
Q 2381 391 2643 752 
Q 2906 1113 2906 1747 
Q 2906 2381 2643 2742 
Q 2381 3103 1925 3103 
Q 1469 3103 1208 2742 
Q 947 2381 947 1747 
z
" transform="scale(0.015625)"/>
      <path id="DejaVuSans-69" d="M 603 3500 
L 1178 3500 
L 1178 0 
L 603 0 
L 603 3500 
z
M 603 4863 
L 1178 4863 
L 1178 4134 
L 603 4134 
L 603 4863 
z
" transform="scale(0.015625)"/>
      <path id="DejaVuSans-67" d="M 2906 1791 
Q 2906 2416 2648 2759 
Q 2391 3103 1925 3103 
Q 1463 3103 1205 2759 
Q 947 2416 947 1791 
Q 947 1169 1205 825 
Q 1463 481 1925 481 
Q 2391 481 2648 825 
Q 2906 1169 2906 1791 
z
M 3481 434 
Q 3481 -459 3084 -895 
Q 2688 -1331 1869 -1331 
Q 1566 -1331 1297 -1286 
Q 1028 -1241 775 -1147 
L 775 -588 
Q 1028 -725 1275 -790 
Q 1522 -856 1778 -856 
Q 2344 -856 2625 -561 
Q 2906 -266 2906 331 
L 2906 616 
Q 2728 306 2450 153 
Q 2172 0 1784 0 
Q 1141 0 747 490 
Q 353 981 353 1791 
Q 353 2603 747 3093 
Q 1141 3584 1784 3584 
Q 2172 3584 2450 3431 
Q 2728 3278 2906 2969 
L 2906 3500 
L 3481 3500 
L 3481 434 
z
" transform="scale(0.015625)"/>
      <path id="DejaVuSans-74" d="M 1172 4494 
L 1172 3500 
L 2356 3500 
L 2356 3053 
L 1172 3053 
L 1172 1153 
Q 1172 725 1289 603 
Q 1406 481 1766 481 
L 2356 481 
L 2356 0 
L 1766 0 
Q 1100 0 847 248 
Q 594 497 594 1153 
L 594 3053 
L 172 3053 
L 172 3500 
L 594 3500 
L 594 4494 
L 1172 4494 
z
" transform="scale(0.015625)"/>
      <path id="DejaVuSans-6f" d="M 1959 3097 
Q 1497 3097 1228 2736 
Q 959 2375 959 1747 
Q 959 1119 1226 758 
Q 1494 397 1959 397 
Q 2419 397 2687 759 
Q 2956 1122 2956 1747 
Q 2956 2369 2687 2733 
Q 2419 3097 1959 3097 
z
M 1959 3584 
Q 2709 3584 3137 3096 
Q 3566 2609 3566 1747 
Q 3566 888 3137 398 
Q 2709 -91 1959 -91 
Q 1206 -91 779 398 
Q 353 888 353 1747 
Q 353 2609 779 3096 
Q 1206 3584 1959 3584 
z
" transform="scale(0.015625)"/>
      <path id="DejaVuSans-73" d="M 2834 3397 
L 2834 2853 
Q 2591 2978 2328 3040 
Q 2066 3103 1784 3103 
Q 1356 3103 1142 2972 
Q 928 2841 928 2578 
Q 928 2378 1081 2264 
Q 1234 2150 1697 2047 
L 1894 2003 
Q 2506 1872 2764 1633 
Q 3022 1394 3022 966 
Q 3022 478 2636 193 
Q 2250 -91 1575 -91 
Q 1294 -91 989 -36 
Q 684 19 347 128 
L 347 722 
Q 666 556 975 473 
Q 1284 391 1588 391 
Q 1994 391 2212 530 
Q 2431 669 2431 922 
Q 2431 1156 2273 1281 
Q 2116 1406 1581 1522 
L 1381 1569 
Q 847 1681 609 1914 
Q 372 2147 372 2553 
Q 372 3047 722 3315 
Q 1072 3584 1716 3584 
Q 2034 3584 2315 3537 
Q 2597 3491 2834 3397 
z
" transform="scale(0.015625)"/>
      <path id="DejaVuSans-20" transform="scale(0.015625)"/>
      <path id="DejaVuSans-2d" d="M 313 2009 
L 1997 2009 
L 1997 1497 
L 313 1497 
L 313 2009 
z
" transform="scale(0.015625)"/>
      <path id="DejaVuSans-70" d="M 1159 525 
L 1159 -1331 
L 581 -1331 
L 581 3500 
L 1159 3500 
L 1159 2969 
Q 1341 3281 1617 3432 
Q 1894 3584 2278 3584 
Q 2916 3584 3314 3078 
Q 3713 2572 3713 1747 
Q 3713 922 3314 415 
Q 2916 -91 2278 -91 
Q 1894 -91 1617 61 
Q 1341 213 1159 525 
z
M 3116 1747 
Q 3116 2381 2855 2742 
Q 2594 3103 2138 3103 
Q 1681 3103 1420 2742 
Q 1159 2381 1159 1747 
Q 1159 1113 1420 752 
Q 1681 391 2138 391 
Q 2594 391 2855 752 
Q 3116 1113 3116 1747 
z
" transform="scale(0.015625)"/>
      <path id="DejaVuSans-6c" d="M 603 4863 
L 1178 4863 
L 1178 0 
L 603 0 
L 603 4863 
z
" transform="scale(0.015625)"/>
      <path id="DejaVuSans-66" d="M 2375 4863 
L 2375 4384 
L 1825 4384 
Q 1516 4384 1395 4259 
Q 1275 4134 1275 3809 
L 1275 3500 
L 2222 3500 
L 2222 3053 
L 1275 3053 
L 1275 0 
L 697 0 
L 697 3053 
L 147 3053 
L 147 3500 
L 697 3500 
L 697 3744 
Q 697 4328 969 4595 
Q 1241 4863 1831 4863 
L 2375 4863 
z
" transform="scale(0.015625)"/>
      <path id="DejaVuSans-28" d="M 1984 4856 
Q 1566 4138 1362 3434 
Q 1159 2731 1159 2009 
Q 1159 1288 1364 580 
Q 1569 -128 1984 -844 
L 1484 -844 
Q 1016 -109 783 600 
Q 550 1309 550 2009 
Q 550 2706 781 3412 
Q 1013 4119 1484 4856 
L 1984 4856 
z
" transform="scale(0.015625)"/>
      <path id="DejaVuSans-62" d="M 3116 1747 
Q 3116 2381 2855 2742 
Q 2594 3103 2138 3103 
Q 1681 3103 1420 2742 
Q 1159 2381 1159 1747 
Q 1159 1113 1420 752 
Q 1681 391 2138 391 
Q 2594 391 2855 752 
Q 3116 1113 3116 1747 
z
M 1159 2969 
Q 1341 3281 1617 3432 
Q 1894 3584 2278 3584 
Q 2916 3584 3314 3078 
Q 3713 2572 3713 1747 
Q 3713 922 3314 415 
Q 2916 -91 2278 -91 
Q 1894 -91 1617 61 
Q 1341 213 1159 525 
L 1159 0 
L 581 0 
L 581 4863 
L 1159 4863 
L 1159 2969 
z
" transform="scale(0.015625)"/>
      <path id="DejaVuSans-78" d="M 3513 3500 
L 2247 1797 
L 3578 0 
L 2900 0 
L 1881 1375 
L 863 0 
L 184 0 
L 1544 1831 
L 300 3500 
L 978 3500 
L 1906 2253 
L 2834 3500 
L 3513 3500 
z
" transform="scale(0.015625)"/>
      <path id="DejaVuSans-29" d="M 513 4856 
L 1013 4856 
Q 1481 4119 1714 3412 
Q 1947 2706 1947 2009 
Q 1947 1309 1714 600 
Q 1481 -109 1013 -844 
L 513 -844 
Q 928 -128 1133 580 
Q 1338 1288 1338 2009 
Q 1338 2731 1133 3434 
Q 928 4138 513 4856 
z
" transform="scale(0.015625)"/>
     </defs>
     <use xlink:href="#DejaVuSans-64"/>
     <use xlink:href="#DejaVuSans-69" transform="translate(63.476562 0)"/>
     <use xlink:href="#DejaVuSans-67" transform="translate(91.259766 0)"/>
     <use xlink:href="#DejaVuSans-69" transform="translate(154.736328 0)"/>
     <use xlink:href="#DejaVuSans-74" transform="translate(182.519531 0)"/>
     <use xlink:href="#DejaVuSans-6f" transform="translate(221.728516 0)"/>
     <use xlink:href="#DejaVuSans-73" transform="translate(282.910156 0)"/>
     <use xlink:href="#DejaVuSans-20" transform="translate(335.009766 0)"/>
     <use xlink:href="#DejaVuSans-2d" transform="translate(366.796875 0)"/>
     <use xlink:href="#DejaVuSans-20" transform="translate(402.880859 0)"/>
     <use xlink:href="#DejaVuSans-20" transform="translate(434.667969 0)"/>
     <use xlink:href="#DejaVuSans-61" transform="translate(466.455078 0)"/>
     <use xlink:href="#DejaVuSans-63" transform="translate(527.734375 0)"/>
     <use xlink:href="#DejaVuSans-63" transform="translate(582.714844 0)"/>
     <use xlink:href="#DejaVuSans-75" transform="translate(637.695312 0)"/>
     <use xlink:href="#DejaVuSans-72" transform="translate(701.074219 0)"/>
     <use xlink:href="#DejaVuSans-61" transform="translate(742.1875 0)"/>
     <use xlink:href="#DejaVuSans-63" transform="translate(803.466797 0)"/>
     <use xlink:href="#DejaVuSans-79" transform="translate(858.447266 0)"/>
     <use xlink:href="#DejaVuSans-20" transform="translate(917.626953 0)"/>
     <use xlink:href="#DejaVuSans-70" transform="translate(949.414062 0)"/>
     <use xlink:href="#DejaVuSans-6f" transform="translate(1012.890625 0)"/>
     <use xlink:href="#DejaVuSans-72" transform="translate(1074.072266 0)"/>
     <use xlink:href="#DejaVuSans-20" transform="translate(1115.185547 0)"/>
     <use xlink:href="#DejaVuSans-63" transform="translate(1146.972656 0)"/>
     <use xlink:href="#DejaVuSans-6c" transform="translate(1201.953125 0)"/>
     <use xlink:href="#DejaVuSans-66" transform="translate(1229.736328 0)"/>
     <use xlink:href="#DejaVuSans-20" transform="translate(1264.941406 0)"/>
     <use xlink:href="#DejaVuSans-28" transform="translate(1296.728516 0)"/>
     <use xlink:href="#DejaVuSans-62" transform="translate(1335.742188 0)"/>
     <use xlink:href="#DejaVuSans-6f" transform="translate(1399.21875 0)"/>
     <use xlink:href="#DejaVuSans-78" transform="translate(1457.275391 0)"/>
     <use xlink:href="#DejaVuSans-70" transform="translate(1516.455078 0)"/>
     <use xlink:href="#DejaVuSans-6c" transform="translate(1579.931641 0)"/>
     <use xlink:href="#DejaVuSans-6f" transform="translate(1607.714844 0)"/>
     <use xlink:href="#DejaVuSans-74" transform="translate(1668.896484 0)"/>
     <use xlink:href="#DejaVuSans-29" transform="translate(1708.105469 0)"/>
    </g>
   </g>
   <g id="legend_1">
    <g id="patch_25">
     <path d="M 60.74375 326.3 
L 113.901563 326.3 
Q 115.901563 326.3 115.901563 324.3 
L 115.901563 178.51875 
Q 115.901563 176.51875 113.901563 176.51875 
L 60.74375 176.51875 
Q 58.74375 176.51875 58.74375 178.51875 
L 58.74375 324.3 
Q 58.74375 326.3 60.74375 326.3 
z
" style="fill: #ffffff; opacity: 0.8; stroke: #cccccc; stroke-linejoin: miter"/>
    </g>
    <g id="text_9">
     <!-- clf -->
     <g transform="translate(81.424219 188.117188) scale(0.1 -0.1)">
      <use xlink:href="#DejaVuSans-63"/>
      <use xlink:href="#DejaVuSans-6c" transform="translate(54.980469 0)"/>
      <use xlink:href="#DejaVuSans-66" transform="translate(82.763672 0)"/>
     </g>
    </g>
    <g id="patch_26">
     <path d="M 62.74375 202.795313 
L 82.74375 202.795313 
L 82.74375 195.795313 
L 62.74375 195.795313 
z
" style="fill: #96cac1; stroke: #626262; stroke-linejoin: miter"/>
    </g>
    <g id="text_10">
     <!-- fkdc -->
     <g transform="translate(90.74375 202.795313) scale(0.1 -0.1)">
      <defs>
       <path id="DejaVuSans-6b" d="M 581 4863 
L 1159 4863 
L 1159 1991 
L 2875 3500 
L 3609 3500 
L 1753 1863 
L 3688 0 
L 2938 0 
L 1159 1709 
L 1159 0 
L 581 0 
L 581 4863 
z
" transform="scale(0.015625)"/>
      </defs>
      <use xlink:href="#DejaVuSans-66"/>
      <use xlink:href="#DejaVuSans-6b" transform="translate(35.205078 0)"/>
      <use xlink:href="#DejaVuSans-64" transform="translate(93.115234 0)"/>
      <use xlink:href="#DejaVuSans-63" transform="translate(156.591797 0)"/>
     </g>
    </g>
    <g id="patch_27">
     <path d="M 62.74375 217.473438 
L 82.74375 217.473438 
L 82.74375 210.473438 
L 62.74375 210.473438 
z
" style="fill: #8aafc9; stroke: #626262; stroke-linejoin: miter"/>
    </g>
    <g id="text_11">
     <!-- fkn -->
     <g transform="translate(90.74375 217.473438) scale(0.1 -0.1)">
      <defs>
       <path id="DejaVuSans-6e" d="M 3513 2113 
L 3513 0 
L 2938 0 
L 2938 2094 
Q 2938 2591 2744 2837 
Q 2550 3084 2163 3084 
Q 1697 3084 1428 2787 
Q 1159 2491 1159 1978 
L 1159 0 
L 581 0 
L 581 3500 
L 1159 3500 
L 1159 2956 
Q 1366 3272 1645 3428 
Q 1925 3584 2291 3584 
Q 2894 3584 3203 3211 
Q 3513 2838 3513 2113 
z
" transform="scale(0.015625)"/>
      </defs>
      <use xlink:href="#DejaVuSans-66"/>
      <use xlink:href="#DejaVuSans-6b" transform="translate(35.205078 0)"/>
      <use xlink:href="#DejaVuSans-6e" transform="translate(93.115234 0)"/>
     </g>
    </g>
    <g id="patch_28">
     <path d="M 62.74375 232.151563 
L 82.74375 232.151563 
L 82.74375 225.151563 
L 62.74375 225.151563 
z
" style="fill: #d9d9d9; stroke: #626262; stroke-linejoin: miter"/>
    </g>
    <g id="text_12">
     <!-- gbt -->
     <g transform="translate(90.74375 232.151563) scale(0.1 -0.1)">
      <use xlink:href="#DejaVuSans-67"/>
      <use xlink:href="#DejaVuSans-62" transform="translate(63.476562 0)"/>
      <use xlink:href="#DejaVuSans-74" transform="translate(126.953125 0)"/>
     </g>
    </g>
    <g id="patch_29">
     <path d="M 62.74375 246.829688 
L 82.74375 246.829688 
L 82.74375 239.829688 
L 62.74375 239.829688 
z
" style="fill: #c1bed6; stroke: #626262; stroke-linejoin: miter"/>
    </g>
    <g id="text_13">
     <!-- gnb -->
     <g transform="translate(90.74375 246.829688) scale(0.1 -0.1)">
      <use xlink:href="#DejaVuSans-67"/>
      <use xlink:href="#DejaVuSans-6e" transform="translate(63.476562 0)"/>
      <use xlink:href="#DejaVuSans-62" transform="translate(126.855469 0)"/>
     </g>
    </g>
    <g id="patch_30">
     <path d="M 62.74375 261.507812 
L 82.74375 261.507812 
L 82.74375 254.507812 
L 62.74375 254.507812 
z
" style="fill: #f6f6bc; stroke: #626262; stroke-linejoin: miter"/>
    </g>
    <g id="text_14">
     <!-- kdc -->
     <g transform="translate(90.74375 261.507812) scale(0.1 -0.1)">
      <use xlink:href="#DejaVuSans-6b"/>
      <use xlink:href="#DejaVuSans-64" transform="translate(57.910156 0)"/>
      <use xlink:href="#DejaVuSans-63" transform="translate(121.386719 0)"/>
     </g>
    </g>
    <g id="patch_31">
     <path d="M 62.74375 276.185938 
L 82.74375 276.185938 
L 82.74375 269.185938 
L 62.74375 269.185938 
z
" style="fill: #ea8e83; stroke: #626262; stroke-linejoin: miter"/>
    </g>
    <g id="text_15">
     <!-- kn -->
     <g transform="translate(90.74375 276.185938) scale(0.1 -0.1)">
      <use xlink:href="#DejaVuSans-6b"/>
      <use xlink:href="#DejaVuSans-6e" transform="translate(57.910156 0)"/>
     </g>
    </g>
    <g id="patch_32">
     <path d="M 62.74375 290.864063 
L 82.74375 290.864063 
L 82.74375 283.864063 
L 62.74375 283.864063 
z
" style="fill: #eab375; stroke: #626262; stroke-linejoin: miter"/>
    </g>
    <g id="text_16">
     <!-- lr -->
     <g transform="translate(90.74375 290.864063) scale(0.1 -0.1)">
      <use xlink:href="#DejaVuSans-6c"/>
      <use xlink:href="#DejaVuSans-72" transform="translate(27.783203 0)"/>
     </g>
    </g>
    <g id="patch_33">
     <path d="M 62.74375 305.542188 
L 82.74375 305.542188 
L 82.74375 298.542188 
L 62.74375 298.542188 
z
" style="fill: #afcf78; stroke: #626262; stroke-linejoin: miter"/>
    </g>
    <g id="text_17">
     <!-- slr -->
     <g transform="translate(90.74375 305.542188) scale(0.1 -0.1)">
      <use xlink:href="#DejaVuSans-73"/>
      <use xlink:href="#DejaVuSans-6c" transform="translate(52.099609 0)"/>
      <use xlink:href="#DejaVuSans-72" transform="translate(79.882812 0)"/>
     </g>
    </g>
    <g id="patch_34">
     <path d="M 62.74375 320.220312 
L 82.74375 320.220312 
L 82.74375 313.220312 
L 62.74375 313.220312 
z
" style="fill: #f6d3e5; stroke: #626262; stroke-linejoin: miter"/>
    </g>
    <g id="text_18">
     <!-- svc -->
     <g transform="translate(90.74375 320.220312) scale(0.1 -0.1)">
      <defs>
       <path id="DejaVuSans-76" d="M 191 3500 
L 800 3500 
L 1894 563 
L 2988 3500 
L 3597 3500 
L 2284 0 
L 1503 0 
L 191 3500 
z
" transform="scale(0.015625)"/>
      </defs>
      <use xlink:href="#DejaVuSans-73"/>
      <use xlink:href="#DejaVuSans-76" transform="translate(52.099609 0)"/>
      <use xlink:href="#DejaVuSans-63" transform="translate(111.279297 0)"/>
     </g>
    </g>
   </g>
  </g>
 </g>
 <defs>
  <clipPath id="p4d7e48b0d9">
   <rect x="53.74375" y="25.918125" width="396.25625" height="305.381875"/>
  </clipPath>
 </defs>
</svg>
