<?xml version="1.0" encoding="utf-8" standalone="no"?>
<!DOCTYPE svg PUBLIC "-//W3C//DTD SVG 1.1//EN"
  "http://www.w3.org/Graphics/SVG/1.1/DTD/svg11.dtd">
<svg xmlns:xlink="http://www.w3.org/1999/xlink" width="460.8pt" height="345.6pt" viewBox="0 0 460.8 345.6" xmlns="http://www.w3.org/2000/svg" version="1.1">
 <metadata>
  <rdf:RDF xmlns:dc="http://purl.org/dc/elements/1.1/" xmlns:cc="http://creativecommons.org/ns#" xmlns:rdf="http://www.w3.org/1999/02/22-rdf-syntax-ns#">
   <cc:Work>
    <dc:type rdf:resource="http://purl.org/dc/dcmitype/StillImage"/>
    <dc:date>1970-01-01T00:00:00+00:00</dc:date>
    <dc:format>image/svg+xml</dc:format>
    <dc:creator>
     <cc:Agent>
      <dc:title>Matplotlib v3.10.7, https://matplotlib.org/</dc:title>
     </cc:Agent>
    </dc:creator>
   </cc:Work>
  </rdf:RDF>
 </metadata>
 <defs>
  <style type="text/css">*{stroke-linejoin: round; stroke-linecap: butt}</style>
 </defs>
 <g id="figure_1">
  <g id="patch_1">
   <path d="M 0 345.6 
L 460.8 345.6 
L 460.8 0 
L 0 0 
z
" style="fill: #ffffff"/>
  </g>
  <g id="axes_1">
   <g id="patch_2">
    <path d="M 39.58149 312.24351 
L 378.623885 312.24351 
L 378.623885 18.118365 
L 39.58149 18.118365 
z
" style="fill: #ffffff"/>
   </g>
   <g id="QuadContourSet_1">
    <path d="M 278.905533 312.24351 
L 280.05328 312.24351 
L 278.905533 298.408476 
L 278.470547 312.24351 
z
M 258.961863 251.330387 
L 264.252271 238.712224 
L 258.961863 222.225516 
L 256.128704 238.712224 
z
M 239.018193 169.442123 
L 240.612306 165.180938 
L 239.018193 160.501803 
L 238.20718 165.180938 
z
" clip-path="url(#pcdd9c1d8d8)" style="fill: #470d60"/>
    <path d="M 278.905533 298.408476 
L 280.05328 312.24351 
L 285.892392 312.24351 
L 283.263846 287.733081 
L 278.905533 274.794152 
L 269.119211 287.733081 
L 275.9124 312.24351 
L 278.470547 312.24351 
z
M 258.961863 267.916425 
L 263.289348 263.222652 
L 269.356338 238.712224 
L 262.345924 214.201795 
L 258.961863 206.449867 
L 249.282552 214.201795 
L 252.650847 238.712224 
L 258.612886 263.222652 
z
M 256.128704 238.712224 
L 258.961863 222.225516 
L 264.252271 238.712224 
L 258.961863 251.330387 
z
M 239.018193 188.193051 
L 246.867798 165.180938 
L 239.285558 140.670509 
L 239.018193 140.12831 
L 237.628662 140.670509 
L 234.393942 165.180938 
z
M 238.20718 165.180938 
L 239.018193 160.501803 
L 240.612306 165.180938 
L 239.018193 169.442123 
z
" clip-path="url(#pcdd9c1d8d8)" style="fill: #482173"/>
    <path d="M 258.961863 289.570368 
L 273.150199 312.24351 
L 275.9124 312.24351 
L 269.119211 287.733081 
L 278.905533 274.794152 
L 283.263846 287.733081 
L 285.892392 312.24351 
L 290.88787 312.24351 
L 287.711073 287.733081 
L 280.264076 263.222652 
L 278.905533 259.602542 
L 273.804117 238.712224 
L 267.621351 214.201795 
L 258.961863 192.748915 
L 255.867929 189.691366 
L 252.1647 165.180938 
L 245.849725 140.670509 
L 239.018193 125.415367 
L 219.074523 120.198242 
L 216.79944 140.670509 
L 219.074523 146.362806 
L 230.108496 165.180938 
L 235.202167 189.691366 
L 237.6586 214.201795 
L 239.018193 219.325456 
L 248.78451 238.712224 
L 256.335752 263.222652 
L 258.472296 287.733081 
z
M 258.612886 263.222652 
L 252.650847 238.712224 
L 249.282552 214.201795 
L 258.961863 206.449867 
L 262.345924 214.201795 
L 269.356338 238.712224 
L 263.289348 263.222652 
L 258.961863 267.916425 
z
M 234.393942 165.180938 
L 237.628662 140.670509 
L 239.018193 140.12831 
L 239.285558 140.670509 
L 246.867798 165.180938 
L 239.018193 188.193051 
z
M 219.074523 75.071781 
L 221.742602 67.139223 
L 219.074523 60.719 
L 210.072205 67.139223 
z
" clip-path="url(#pcdd9c1d8d8)" style="fill: #453581"/>
    <path d="M 258.961863 295.170007 
L 270.148547 312.24351 
L 273.150199 312.24351 
L 258.961863 289.570368 
L 258.472296 287.733081 
L 256.335752 263.222652 
L 248.78451 238.712224 
L 239.018193 219.325456 
L 237.6586 214.201795 
L 235.202167 189.691366 
L 230.108496 165.180938 
L 219.074523 146.362806 
L 216.79944 140.670509 
L 219.074523 120.198242 
L 239.018193 125.415367 
L 245.849725 140.670509 
L 252.1647 165.180937 
L 255.867929 189.691366 
L 258.961863 192.748915 
L 267.621351 214.201795 
L 273.804117 238.712224 
L 278.905533 259.602542 
L 280.264076 263.222652 
L 287.711073 287.733081 
L 290.88787 312.24351 
L 295.252998 312.24351 
L 291.651837 287.733081 
L 285.659909 263.222652 
L 278.905533 243.737092 
L 277.745314 238.712224 
L 272.198635 214.201795 
L 264.483753 189.691366 
L 258.961863 175.109155 
L 256.758136 165.180938 
L 251.366099 140.670509 
L 242.3262 116.16008 
L 239.018193 107.871743 
L 226.80466 91.649651 
L 229.082021 67.139223 
L 220.286873 42.628794 
L 219.074523 39.638229 
L 201.508029 42.628794 
L 199.130852 43.018883 
L 194.379332 67.139222 
L 199.130852 76.13589 
L 215.595353 91.649651 
L 210.492614 116.16008 
L 212.827485 140.670509 
L 219.074523 155.447292 
L 225.217141 165.180938 
L 230.514396 189.691366 
L 235.040469 214.201795 
L 239.018193 228.643127 
L 244.431866 238.712224 
L 253.898355 263.222652 
L 256.93605 287.733081 
z
M 210.072205 67.139222 
L 219.074523 60.719 
L 221.742602 67.139223 
L 219.074523 75.071781 
z
" clip-path="url(#pcdd9c1d8d8)" style="fill: #3e4989"/>
    <path d="M 258.961863 300.769645 
L 266.861955 312.24351 
L 270.148547 312.24351 
L 258.961863 295.170007 
L 256.93605 287.733081 
L 253.898355 263.222652 
L 244.431866 238.712224 
L 239.018193 228.643127 
L 235.040469 214.201795 
L 230.514396 189.691366 
L 225.217141 165.180938 
L 219.074523 155.447292 
L 212.827485 140.670509 
L 210.492614 116.16008 
L 215.595353 91.649651 
L 199.130852 76.13589 
L 194.379332 67.139223 
L 199.130852 43.018883 
L 201.508029 42.628794 
L 219.074523 39.638229 
L 220.286873 42.628794 
L 229.082021 67.139223 
L 226.80466 91.649651 
L 239.018193 107.871743 
L 242.3262 116.16008 
L 251.366099 140.670509 
L 256.758136 165.180938 
L 258.961863 175.109155 
L 264.483753 189.691366 
L 272.198635 214.201795 
L 277.745314 238.712224 
L 278.905533 243.737092 
L 285.659909 263.222652 
L 291.651837 287.733081 
L 295.252998 312.24351 
L 298.849204 312.24351 
L 299.31595 312.24351 
L 298.849204 310.720388 
L 295.189787 287.733081 
L 290.327522 263.222652 
L 283.368842 238.712224 
L 278.905533 226.82716 
L 276.241149 214.201795 
L 270.500373 189.691366 
L 262.849345 165.180938 
L 258.961863 155.020716 
L 256.123593 140.670509 
L 249.932066 116.16008 
L 241.90379 91.649651 
L 239.018193 85.02578 
L 235.135169 67.139223 
L 229.359005 42.628794 
L 221.24041 18.118365 
L 219.074523 18.118365 
L 199.130852 18.118365 
L 192.399722 18.118365 
L 183.099684 42.628794 
L 186.384292 67.139223 
L 199.130852 88.748401 
L 202.86405 91.649651 
L 199.130852 107.387081 
L 198.806342 116.16008 
L 199.130852 117.890448 
L 208.340481 140.670509 
L 219.074523 164.531777 
L 219.519876 165.180938 
L 225.091592 189.691366 
L 232.208197 214.201795 
L 239.018193 237.960798 
L 239.452737 238.712224 
L 251.276418 263.222652 
L 255.328511 287.733081 
z
" clip-path="url(#pcdd9c1d8d8)" style="fill: #375b8d"/>
    <path d="M 258.961863 306.369284 
L 263.230596 312.24351 
L 266.861955 312.24351 
L 258.961863 300.769645 
L 255.328511 287.733081 
L 251.276418 263.222652 
L 239.452737 238.712224 
L 239.018193 237.960798 
L 232.208197 214.201795 
L 225.091592 189.691366 
L 219.519876 165.180937 
L 219.074523 164.531777 
L 208.340481 140.670509 
L 199.130852 117.890448 
L 198.806342 116.16008 
L 199.130852 107.387081 
L 202.86405 91.649651 
L 199.130852 88.748401 
L 186.384292 67.139223 
L 183.099684 42.628794 
L 192.399722 18.118365 
L 182.630508 18.118365 
L 179.187182 24.525587 
L 175.557885 42.628794 
L 178.360414 67.139223 
L 179.187182 70.564019 
L 194.065465 91.649651 
L 196.165691 116.16008 
L 199.130852 131.384442 
L 203.184669 140.670509 
L 214.937809 165.180937 
L 218.946906 189.691366 
L 219.074523 190.215285 
L 229.123608 214.201795 
L 237.194558 238.712224 
L 239.018193 244.786194 
L 248.43969 263.222652 
L 253.642739 287.733081 
z
M 298.849204 310.720388 
L 299.31595 312.24351 
L 304.932272 312.24351 
L 298.849204 290.689313 
L 298.39969 287.733081 
L 294.440304 263.222652 
L 289.012132 238.712224 
L 281.10983 214.201795 
L 278.905533 207.45804 
L 275.625116 189.691366 
L 269.88903 165.180938 
L 262.115987 140.670509 
L 258.961863 130.966866 
L 256.165073 116.16008 
L 250.77103 91.649651 
L 242.133348 67.139223 
L 239.018193 57.417059 
L 236.541773 42.628794 
L 231.627779 18.118365 
L 221.24041 18.118365 
L 229.359005 42.628794 
L 235.135169 67.139223 
L 239.018193 85.02578 
L 241.90379 91.649651 
L 249.932066 116.16008 
L 256.123593 140.670509 
L 258.961863 155.020716 
L 262.849345 165.180938 
L 270.500373 189.691366 
L 276.241149 214.201795 
L 278.905533 226.82716 
L 283.368842 238.712224 
L 290.327522 263.222652 
L 295.189787 287.733081 
z
" clip-path="url(#pcdd9c1d8d8)" style="fill: #306a8e"/>
    <path d="M 258.961863 311.968922 
L 259.173569 312.24351 
L 263.230596 312.24351 
L 258.961863 306.369284 
L 253.642739 287.733081 
L 248.43969 263.222652 
L 239.018193 244.786194 
L 237.194558 238.712224 
L 229.123608 214.201795 
L 219.074523 190.215285 
L 218.946906 189.691366 
L 214.937809 165.180938 
L 203.184669 140.670509 
L 199.130852 131.384442 
L 196.165691 116.16008 
L 194.065465 91.649651 
L 179.187182 70.564019 
L 178.360414 67.139223 
L 175.557885 42.628794 
L 179.187182 24.525587 
L 182.630508 18.118365 
L 179.187182 18.118365 
L 159.243512 18.118365 
L 156.786509 18.118365 
L 159.243512 25.103125 
L 170.550124 42.628794 
L 175.203947 67.139223 
L 179.187182 82.912884 
L 186.140489 91.649651 
L 193.307044 116.16008 
L 198.369981 140.670509 
L 199.130852 144.503502 
L 209.849911 165.180938 
L 216.711502 189.691366 
L 219.074523 199.086381 
L 225.737309 214.201795 
L 235.0955 238.712224 
L 239.018193 251.39297 
L 245.349814 263.222652 
L 251.870728 287.733081 
z
M 298.849204 290.689313 
L 304.932272 312.24351 
L 309.763878 312.24351 
L 304.447811 287.733081 
L 298.849204 268.111637 
L 298.116257 263.222652 
L 293.863673 238.712224 
L 288.136405 214.201795 
L 281.280369 189.691366 
L 278.905533 182.079747 
L 275.737051 165.180938 
L 270.124211 140.670509 
L 263.815689 116.16008 
L 258.961863 98.269463 
L 257.825016 91.649651 
L 252.027528 67.139223 
L 245.87291 42.628794 
L 240.043211 18.118365 
L 239.018193 18.118365 
L 231.627779 18.118365 
L 236.541773 42.628794 
L 239.018193 57.417059 
L 242.133348 67.139223 
L 250.77103 91.649651 
L 256.165073 116.16008 
L 258.961863 130.966866 
L 262.115987 140.670509 
L 269.88903 165.180938 
L 275.625116 189.691366 
L 278.905533 207.45804 
L 281.10983 214.201795 
L 289.012132 238.712224 
L 294.440304 263.222652 
L 298.39969 287.733081 
z
" clip-path="url(#pcdd9c1d8d8)" style="fill: #297a8e"/>
    <path d="M 258.961863 312.24351 
L 259.173569 312.24351 
L 258.961863 311.968922 
L 251.870728 287.733081 
L 245.349814 263.222652 
L 239.018193 251.39297 
L 235.0955 238.712224 
L 225.737309 214.201795 
L 219.074523 199.086381 
L 216.711502 189.691366 
L 209.849911 165.180938 
L 199.130852 144.503502 
L 198.369981 140.670509 
L 193.307044 116.16008 
L 186.140489 91.649651 
L 179.187182 82.912884 
L 175.203947 67.139223 
L 170.550124 42.628794 
L 159.243512 25.103125 
L 156.786509 18.118365 
L 153.021007 18.118365 
L 159.243512 34.891059 
L 164.694212 42.628794 
L 171.730812 67.139223 
L 178.337676 91.649651 
L 179.187182 93.901247 
L 190.191141 116.16008 
L 195.81079 140.670509 
L 199.130852 156.795156 
L 203.884049 165.180938 
L 214.321857 189.691366 
L 219.074523 207.957478 
L 221.983818 214.201795 
L 232.861019 238.712224 
L 239.018193 257.999745 
L 241.957143 263.222652 
L 250.003175 287.733081 
L 256.615259 312.24351 
z
M 310.036515 287.733081 
L 304.56613 263.222652 
L 298.849204 243.362591 
L 298.118537 238.712224 
L 293.975385 214.201795 
L 288.692421 189.691366 
L 282.560285 165.180938 
L 278.905533 153.151592 
L 276.624483 140.670509 
L 272.018067 116.16008 
L 266.812457 91.649651 
L 260.247738 67.139223 
L 258.961863 63.086628 
L 254.884312 42.628794 
L 250.568543 18.118365 
L 240.043211 18.118365 
L 245.87291 42.628794 
L 252.027528 67.139223 
L 257.825016 91.649651 
L 258.961863 98.269463 
L 263.815689 116.16008 
L 270.124211 140.670509 
L 275.737051 165.180938 
L 278.905533 182.079747 
L 281.280369 189.691366 
L 288.136405 214.201795 
L 293.863673 238.712224 
L 298.116257 263.222652 
L 298.849204 268.111637 
L 304.447811 287.733081 
L 309.763878 312.24351 
L 314.003408 312.24351 
z
" clip-path="url(#pcdd9c1d8d8)" style="fill: #23898e"/>
    <path d="M 39.58149 312.24351 
L 59.52516 312.24351 
L 79.468831 312.24351 
L 99.412501 312.24351 
L 119.356171 312.24351 
L 139.299841 312.24351 
L 159.243512 312.24351 
L 170.36315 312.24351 
L 159.243512 303.830616 
L 142.066231 287.733081 
L 139.299841 286.136873 
L 119.356171 274.015931 
L 110.532139 263.222652 
L 99.412501 252.628637 
L 79.468831 241.851356 
L 75.927789 238.712224 
L 59.52516 224.410303 
L 50.566411 214.201795 
L 39.58149 205.249572 
L 19.63782 194.492426 
L 19.63782 214.201795 
L 19.63782 238.712224 
L 19.63782 263.222652 
L 19.63782 287.733081 
L 19.63782 312.24351 
z
M 250.003175 287.733081 
L 241.957143 263.222652 
L 239.018193 257.999745 
L 232.861019 238.712224 
L 221.983818 214.201795 
L 219.074523 207.957478 
L 214.321857 189.691366 
L 203.884049 165.180938 
L 199.130852 156.795156 
L 195.81079 140.670509 
L 190.191141 116.16008 
L 179.187182 93.901247 
L 178.337676 91.649651 
L 171.730812 67.139223 
L 164.694212 42.628794 
L 159.243512 34.891059 
L 153.021007 18.118365 
L 148.795774 18.118365 
L 158.479335 42.628794 
L 159.243512 45.097727 
L 167.870312 67.139223 
L 175.265232 91.649651 
L 179.187182 101.598896 
L 186.767062 116.16008 
L 193.047373 140.670509 
L 197.939866 165.180938 
L 199.130852 166.996946 
L 211.755097 189.691366 
L 217.941802 214.201795 
L 219.074523 215.920048 
L 230.472428 238.712224 
L 238.366161 263.222652 
L 239.018193 264.470114 
L 248.029189 287.733081 
L 253.963201 312.24351 
L 256.615259 312.24351 
z
M 314.847679 287.733081 
L 310.684063 263.222652 
L 305.460487 238.712224 
L 299.118501 214.201795 
L 298.849204 213.397347 
L 294.794827 189.691366 
L 290.59793 165.180938 
L 285.062549 140.670509 
L 278.905533 117.803389 
L 278.645474 116.16008 
L 274.476614 91.649651 
L 270.316672 67.139223 
L 264.948356 42.628794 
L 258.961863 20.384772 
L 258.63027 18.118365 
L 250.568543 18.118365 
L 254.884312 42.628794 
L 258.961863 63.086628 
L 260.247738 67.139223 
L 266.812457 91.649651 
L 272.018067 116.16008 
L 276.624483 140.670509 
L 278.905533 153.151592 
L 282.560285 165.180938 
L 288.692421 189.691366 
L 293.975385 214.201795 
L 298.118537 238.712224 
L 298.849204 243.362591 
L 304.56613 263.222652 
L 310.036515 287.733081 
L 314.003408 312.24351 
L 317.780258 312.24351 
z
M 438.454896 312.24351 
L 458.398566 312.24351 
L 478.342236 312.24351 
L 498.285907 312.24351 
L 518.229577 312.24351 
L 538.173247 312.24351 
L 558.116917 312.24351 
L 578.060588 312.24351 
L 598.004258 312.24351 
L 617.947928 312.24351 
L 637.891599 312.24351 
L 657.835269 312.24351 
L 677.778939 312.24351 
L 697.722609 312.24351 
L 717.66628 312.24351 
L 737.60995 312.24351 
L 757.55362 312.24351 
L 777.497291 312.24351 
L 797.440961 312.24351 
L 817.384631 312.24351 
L 837.328301 312.24351 
L 857.271972 312.24351 
L 877.215642 312.24351 
L 897.159312 312.24351 
L 897.159312 287.733081 
L 897.159312 263.222652 
L 897.159312 238.712224 
L 897.159312 214.201795 
L 897.159312 189.691366 
L 897.159312 165.180938 
L 897.159312 140.670509 
L 897.159312 116.16008 
L 897.159312 91.649651 
L 897.159312 67.139223 
L 897.159312 42.628794 
L 897.159312 18.118365 
L 877.215642 18.118365 
L 857.271972 18.118365 
L 837.328301 18.118365 
L 817.384631 18.118365 
L 797.440961 18.118365 
L 777.497291 18.118365 
L 757.55362 18.118365 
L 737.60995 18.118365 
L 717.66628 18.118365 
L 697.722609 18.118365 
L 677.778939 18.118365 
L 657.835269 18.118365 
L 637.891599 18.118365 
L 617.947928 18.118365 
L 598.004258 18.118365 
L 578.060588 18.118365 
L 558.116917 18.118365 
L 538.173247 18.118365 
L 518.229577 18.118365 
L 498.285907 18.118365 
L 478.342236 18.118365 
L 458.398566 18.118365 
L 438.454896 18.118365 
L 418.511225 18.118365 
L 398.567555 18.118365 
L 378.623885 18.118365 
L 367.183785 18.118365 
L 373.509033 42.628794 
L 377.822566 67.139223 
L 378.623885 72.266449 
L 387.37125 91.649651 
L 394.256973 116.16008 
L 398.36298 140.670509 
L 398.567555 142.11697 
L 409.629859 165.180938 
L 415.305743 189.691366 
L 418.410582 214.201795 
L 418.511225 215.149973 
L 425.713877 238.712224 
L 429.623062 263.222652 
L 429.959995 287.733081 
L 424.33973 312.24351 
z
" clip-path="url(#pcdd9c1d8d8)" style="fill: #1f978b"/>
    <path d="M 159.243512 303.830616 
L 170.36315 312.24351 
L 179.187182 312.24351 
L 191.794066 312.24351 
L 179.187182 300.395391 
L 168.577621 287.733081 
L 159.243512 278.604359 
L 143.443874 263.222652 
L 139.299841 259.598665 
L 119.356171 245.577058 
L 114.494035 238.712224 
L 99.412501 222.966157 
L 92.400902 214.201795 
L 79.468831 202.030065 
L 68.830947 189.691366 
L 59.52516 180.449586 
L 39.58149 167.075526 
L 38.316837 165.180938 
L 19.63782 146.285658 
L 19.63782 165.180938 
L 19.63782 189.691366 
L 19.63782 194.492426 
L 39.58149 205.249572 
L 50.566411 214.201795 
L 59.52516 224.410303 
L 75.927789 238.712224 
L 79.468831 241.851356 
L 99.412501 252.628637 
L 110.532139 263.222652 
L 119.356171 274.015931 
L 139.299841 286.136873 
L 142.066231 287.733081 
z
M 248.029189 287.733081 
L 239.018193 264.470114 
L 238.366161 263.222652 
L 230.472428 238.712224 
L 219.074523 215.920048 
L 217.941802 214.201795 
L 211.755097 189.691366 
L 199.130852 166.996946 
L 197.939866 165.180938 
L 193.047373 140.670509 
L 186.767062 116.16008 
L 179.187182 101.598896 
L 175.265232 91.649651 
L 167.870312 67.139222 
L 159.243512 45.097727 
L 158.479335 42.628794 
L 148.795774 18.118365 
L 143.982735 18.118365 
L 154.578985 42.628794 
L 159.243512 56.884751 
L 163.525066 67.139223 
L 171.893567 91.649651 
L 179.187182 109.296545 
L 182.967087 116.16008 
L 190.044285 140.670509 
L 193.900072 165.180938 
L 199.130852 172.711867 
L 208.982851 189.691366 
L 213.817113 214.201795 
L 219.074523 221.722891 
L 227.906884 238.712224 
L 235.072037 263.222652 
L 239.018193 270.425663 
L 245.9359 287.733081 
L 251.091179 312.24351 
L 253.963201 312.24351 
z
M 318.792874 312.24351 
L 323.089061 312.24351 
L 319.30016 287.733081 
L 318.792874 285.285837 
L 315.882073 263.222652 
L 312.150646 238.712224 
L 308.123344 214.201795 
L 301.556519 189.691366 
L 298.849204 178.996937 
L 297.117545 165.180938 
L 293.353806 140.670509 
L 289.447601 116.16008 
L 283.81896 91.649651 
L 278.905533 73.748681 
L 278.108685 67.139223 
L 275.320726 42.628794 
L 271.69741 18.118365 
L 258.961863 18.118365 
L 258.63027 18.118365 
L 258.961863 20.384772 
L 264.948356 42.628794 
L 270.316672 67.139223 
L 274.476614 91.649651 
L 278.645474 116.16008 
L 278.905533 117.803389 
L 285.062549 140.670509 
L 290.59793 165.180938 
L 294.794827 189.691366 
L 298.849204 213.397347 
L 299.118501 214.201795 
L 305.460487 238.712224 
L 310.684063 263.222652 
L 314.847679 287.733081 
L 317.780258 312.24351 
z
M 418.511225 312.24351 
L 424.33973 312.24351 
L 429.959995 287.733081 
L 429.623062 263.222652 
L 425.713877 238.712224 
L 418.511225 215.149973 
L 418.410582 214.201795 
L 415.305743 189.691366 
L 409.629859 165.180938 
L 398.567555 142.11697 
L 398.36298 140.670509 
L 394.256973 116.16008 
L 387.37125 91.649651 
L 378.623885 72.266449 
L 377.822566 67.139223 
L 373.509033 42.628794 
L 367.183785 18.118365 
L 358.680215 18.118365 
L 344.987604 18.118365 
L 353.889574 42.628794 
L 358.680215 58.954348 
L 361.983264 67.139223 
L 369.659827 91.649651 
L 375.001591 116.16008 
L 378.623885 135.928915 
L 380.764417 140.670509 
L 389.049907 165.180938 
L 394.158622 189.691366 
L 397.831865 214.201795 
L 398.567555 220.417479 
L 404.376548 238.712224 
L 408.728728 263.222652 
L 410.012523 287.733081 
L 408.154686 312.24351 
z
" clip-path="url(#pcdd9c1d8d8)" style="fill: #22a785"/>
    <path d="M 179.187182 300.395391 
L 191.794066 312.24351 
L 199.130852 312.24351 
L 203.836906 312.24351 
L 199.130852 307.378174 
L 182.038544 287.733081 
L 179.187182 284.848209 
L 161.1862 263.222652 
L 159.243512 261.286786 
L 139.678511 238.712224 
L 139.299841 238.345463 
L 119.356171 216.242592 
L 117.905915 214.201795 
L 99.412501 196.402558 
L 93.972926 189.691366 
L 79.468831 174.28292 
L 72.913942 165.180938 
L 59.52516 152.272235 
L 50.975801 140.670509 
L 39.58149 128.413557 
L 29.225386 116.16008 
L 19.63782 106.737831 
L 19.63782 116.16008 
L 19.63782 140.670509 
L 19.63782 146.285658 
L 38.316837 165.180938 
L 39.58149 167.075526 
L 59.52516 180.449586 
L 68.830947 189.691366 
L 79.468831 202.030065 
L 92.400902 214.201795 
L 99.412501 222.966157 
L 114.494035 238.712224 
L 119.356171 245.577058 
L 139.299841 259.598665 
L 143.443874 263.222652 
L 159.243512 278.604359 
L 168.577621 287.733081 
z
M 245.9359 287.733081 
L 239.018193 270.425663 
L 235.072037 263.222652 
L 227.906884 238.712224 
L 219.074523 221.722891 
L 213.817113 214.201795 
L 208.982851 189.691366 
L 199.130852 172.711867 
L 193.900072 165.180938 
L 190.044285 140.670509 
L 182.967087 116.16008 
L 179.187182 109.296545 
L 171.893567 91.649651 
L 163.525066 67.139223 
L 159.243512 56.884751 
L 154.578985 42.628794 
L 143.982735 18.118365 
L 139.299841 18.118365 
L 138.163735 18.118365 
L 139.299841 19.852057 
L 150.183173 42.628794 
L 158.261462 67.139223 
L 159.243512 68.640507 
L 168.15805 91.649651 
L 178.352717 116.16008 
L 179.187182 117.437316 
L 186.75597 140.670509 
L 189.326274 165.180938 
L 199.130852 178.426788 
L 205.969332 189.691366 
L 209.134154 214.201795 
L 219.074523 227.525733 
L 225.136057 238.712224 
L 231.431481 263.222652 
L 239.018193 276.381212 
L 243.707956 287.733081 
L 247.959379 312.24351 
L 251.091179 312.24351 
z
M 325.855764 287.733081 
L 321.878848 263.222652 
L 318.792874 247.394636 
L 317.755647 238.712224 
L 315.263954 214.201795 
L 311.30648 189.691366 
L 307.529777 165.180938 
L 302.152595 140.670509 
L 298.849204 126.350318 
L 297.843274 116.16008 
L 296.031336 91.649651 
L 295.007329 67.139223 
L 295.783429 42.628794 
L 298.849204 28.140513 
L 304.569319 18.118365 
L 298.849204 18.118365 
L 278.905533 18.118365 
L 271.69741 18.118365 
L 275.320726 42.628794 
L 278.108685 67.139223 
L 278.905533 73.748681 
L 283.81896 91.649651 
L 289.447601 116.16008 
L 293.353806 140.670509 
L 297.117545 165.180938 
L 298.849204 178.996937 
L 301.556519 189.691366 
L 308.123344 214.201795 
L 312.150646 238.712224 
L 315.882073 263.222652 
L 318.792874 285.285837 
L 319.30016 287.733081 
L 323.089061 312.24351 
L 328.338685 312.24351 
z
M 398.567555 312.24351 
L 408.154686 312.24351 
L 410.012523 287.733081 
L 408.728728 263.222652 
L 404.376548 238.712224 
L 398.567555 220.417479 
L 397.831865 214.201795 
L 394.158622 189.691366 
L 389.049907 165.180938 
L 380.764417 140.670509 
L 378.623885 135.928915 
L 375.001591 116.16008 
L 369.659827 91.649651 
L 361.983264 67.139223 
L 358.680215 58.954348 
L 353.889574 42.628794 
L 344.987604 18.118365 
L 338.736544 18.118365 
L 325.989522 18.118365 
L 334.177943 42.628794 
L 338.736544 54.663831 
L 344.597668 67.139223 
L 354.073455 91.649651 
L 358.680215 104.228599 
L 363.036105 116.16008 
L 369.959303 140.670509 
L 375.434837 165.180938 
L 378.623885 181.322 
L 381.662737 189.691366 
L 388.193212 214.201795 
L 392.545102 238.712224 
L 395.392294 263.222652 
L 396.743066 287.733081 
L 396.576501 312.24351 
z
" clip-path="url(#pcdd9c1d8d8)" style="fill: #32b67a"/>
    <path d="M 199.130852 307.378174 
L 203.836906 312.24351 
L 212.743563 312.24351 
L 199.130852 296.148895 
L 192.807627 287.733081 
L 179.187182 271.536139 
L 173.320186 263.222652 
L 159.243512 246.39784 
L 153.739097 238.712224 
L 139.299841 221.45659 
L 134.164332 214.201795 
L 119.356171 196.856129 
L 113.844697 189.691366 
L 99.412501 173.319741 
L 93.731369 165.180938 
L 79.468831 147.883462 
L 74.079585 140.670509 
L 59.52516 124.227856 
L 54.133123 116.16008 
L 39.58149 99.721172 
L 33.896592 91.649651 
L 19.63782 74.314286 
L 19.63782 91.649651 
L 19.63782 106.737831 
L 29.225386 116.16008 
L 39.58149 128.413557 
L 50.975801 140.670509 
L 59.52516 152.272235 
L 72.913942 165.180938 
L 79.468831 174.28292 
L 93.972926 189.691366 
L 99.412501 196.402558 
L 117.905915 214.201795 
L 119.356171 216.242592 
L 139.299841 238.345463 
L 139.678511 238.712224 
L 159.243512 261.286786 
L 161.1862 263.222652 
L 179.187182 284.848209 
L 182.038544 287.733081 
z
M 243.707956 287.733081 
L 239.018193 276.381212 
L 231.431481 263.222652 
L 225.136057 238.712224 
L 219.074523 227.525733 
L 209.134154 214.201795 
L 205.969332 189.691366 
L 199.130852 178.426788 
L 189.326274 165.180937 
L 186.75597 140.670509 
L 179.187182 117.437316 
L 178.352717 116.16008 
L 168.15805 91.649651 
L 159.243512 68.640507 
L 158.261462 67.139223 
L 150.183173 42.628794 
L 139.299841 19.852057 
L 138.163735 18.118365 
L 129.565618 18.118365 
L 139.299841 31.2819 
L 145.14745 42.628794 
L 149.603232 67.139223 
L 159.243512 80.187036 
L 163.970543 91.649651 
L 169.522953 116.16008 
L 179.187182 129.224341 
L 183.122508 140.670509 
L 184.055481 165.180938 
L 199.130852 184.14171 
L 202.668506 189.691366 
L 203.717792 214.201795 
L 219.074523 233.328576 
L 222.124215 238.712224 
L 227.362966 263.222652 
L 239.018193 282.336761 
L 241.326834 287.733081 
L 244.516089 312.24351 
L 247.959379 312.24351 
z
M 331.366094 287.733081 
L 329.044421 263.222652 
L 326.413565 238.712224 
L 324.057692 214.201795 
L 319.121405 189.691366 
L 318.792874 187.93428 
L 317.045107 165.180938 
L 315.564603 140.670509 
L 315.006241 116.16008 
L 316.465235 91.649651 
L 318.792874 77.307309 
L 326.953285 91.649651 
L 338.736544 104.55337 
L 344.502773 116.16008 
L 356.335064 140.670509 
L 358.680215 145.236579 
L 365.070526 165.180938 
L 371.336417 189.691366 
L 376.526945 214.201795 
L 378.623885 225.499145 
L 382.272197 238.712224 
L 387.110338 263.222652 
L 389.963876 287.733081 
L 390.942105 312.24351 
L 396.576501 312.24351 
L 396.743066 287.733081 
L 395.392294 263.222652 
L 392.545102 238.712224 
L 388.193212 214.201795 
L 381.662737 189.691366 
L 378.623885 181.322 
L 375.434837 165.180938 
L 369.959303 140.670509 
L 363.036105 116.16008 
L 358.680215 104.228599 
L 354.073455 91.649651 
L 344.597668 67.139223 
L 338.736544 54.663831 
L 334.177943 42.628794 
L 325.989522 18.118365 
L 318.792874 18.118365 
L 304.569319 18.118365 
L 298.849204 28.140513 
L 295.783429 42.628794 
L 295.007329 67.139223 
L 296.031336 91.649651 
L 297.843274 116.16008 
L 298.849204 126.350318 
L 302.152595 140.670509 
L 307.529777 165.180938 
L 311.30648 189.691366 
L 315.263954 214.201795 
L 317.755647 238.712224 
L 318.792874 247.394636 
L 321.878848 263.222652 
L 325.855764 287.733081 
L 328.338685 312.24351 
L 332.896541 312.24351 
z
" clip-path="url(#pcdd9c1d8d8)" style="fill: #4cc26c"/>
    <path d="M 199.130852 296.148895 
L 212.743563 312.24351 
L 219.074523 312.24351 
L 224.602931 312.24351 
L 219.074523 310.961048 
L 201.89984 287.733081 
L 199.130852 284.109127 
L 184.347624 263.222652 
L 179.187182 257.321368 
L 166.29591 238.712224 
L 159.243512 230.128515 
L 148.453582 214.201795 
L 139.299841 203.443744 
L 129.899139 189.691366 
L 119.356171 177.507081 
L 110.797818 165.180938 
L 99.412501 150.646237 
L 93.143879 140.670509 
L 79.468831 121.338409 
L 76.107421 116.16008 
L 59.52516 92.849897 
L 58.774582 91.649651 
L 40.428158 67.139223 
L 39.58149 66.2043 
L 23.142944 42.628794 
L 19.63782 39.275871 
L 19.63782 42.628794 
L 19.63782 67.139223 
L 19.63782 74.314286 
L 33.896592 91.649651 
L 39.58149 99.721172 
L 54.133123 116.16008 
L 59.52516 124.227856 
L 74.079585 140.670509 
L 79.468831 147.883462 
L 93.731369 165.180938 
L 99.412501 173.319741 
L 113.844697 189.691366 
L 119.356171 196.856129 
L 134.164332 214.201795 
L 139.299841 221.45659 
L 153.739097 238.712224 
L 159.243512 246.39784 
L 173.320186 263.222652 
L 179.187182 271.536139 
L 192.807627 287.733081 
z
M 239.018193 292.352801 
L 240.692435 312.24351 
L 244.516089 312.24351 
L 241.326834 287.733081 
L 239.018193 282.336761 
L 227.362966 263.222652 
L 222.124215 238.712224 
L 219.074523 233.328576 
L 203.717792 214.201795 
L 202.668506 189.691366 
L 199.130852 184.14171 
L 184.055481 165.180937 
L 183.122508 140.670509 
L 179.187182 129.224341 
L 169.522953 116.16008 
L 163.970543 91.649651 
L 159.243512 80.187036 
L 149.603232 67.139223 
L 145.14745 42.628794 
L 139.299841 31.2819 
L 129.565618 18.118365 
L 119.356171 18.118365 
L 117.672618 18.118365 
L 114.060665 42.628794 
L 119.356171 48.947967 
L 137.47439 67.139223 
L 139.299841 74.226294 
L 158.777614 91.649651 
L 156.618564 116.16008 
L 159.243512 119.349446 
L 178.635705 140.670509 
L 173.722792 165.180938 
L 179.187182 171.364876 
L 198.425684 189.691366 
L 183.574932 214.201795 
L 199.130852 223.954601 
L 216.696126 238.712224 
L 219.074523 240.982866 
L 222.752307 263.222652 
L 238.360948 287.733081 
z
M 336.119094 287.733081 
L 334.978959 263.222652 
L 334.085807 238.712224 
L 333.996856 214.201795 
L 334.688858 189.691366 
L 338.402321 165.180938 
L 338.736544 164.071408 
L 339.612916 165.180938 
L 358.680215 187.356485 
L 359.460022 189.691366 
L 366.46704 214.201795 
L 372.123771 238.712224 
L 376.910383 263.222652 
L 378.623885 273.059713 
L 381.527325 287.733081 
L 384.209984 312.24351 
L 390.942105 312.24351 
L 389.963876 287.733081 
L 387.110338 263.222652 
L 382.272197 238.712224 
L 378.623885 225.499145 
L 376.526945 214.201795 
L 371.336417 189.691366 
L 365.070526 165.180938 
L 358.680215 145.236579 
L 356.335064 140.670509 
L 344.502773 116.16008 
L 338.736544 104.55337 
L 326.953285 91.649651 
L 318.792874 77.307309 
L 316.465235 91.649651 
L 315.006241 116.16008 
L 315.564603 140.670509 
L 317.045107 165.180938 
L 318.792874 187.93428 
L 319.121405 189.691366 
L 324.057692 214.201795 
L 326.413565 238.712224 
L 329.044421 263.222652 
L 331.366094 287.733081 
L 332.896541 312.24351 
L 336.923897 312.24351 
z
M 119.356171 117.478518 
L 122.231057 116.16008 
L 119.356171 112.444483 
L 118.473132 116.16008 
z
" clip-path="url(#pcdd9c1d8d8)" style="fill: #70cf57"/>
    <path d="M 219.074523 310.961048 
L 224.602931 312.24351 
L 239.018193 312.24351 
L 240.692435 312.24351 
L 239.018193 292.352801 
L 238.360948 287.733081 
L 222.752307 263.222652 
L 219.074523 240.982866 
L 216.696126 238.712224 
L 199.130852 223.954601 
L 183.574932 214.201795 
L 198.425684 189.691366 
L 179.187182 171.364876 
L 173.722792 165.180938 
L 178.635705 140.670509 
L 159.243512 119.349446 
L 156.618564 116.16008 
L 158.777614 91.649651 
L 139.299841 74.226294 
L 137.47439 67.139223 
L 119.356171 48.947967 
L 114.060665 42.628794 
L 117.672618 18.118365 
L 99.412501 18.118365 
L 79.468831 18.118365 
L 73.74206 18.118365 
L 67.129455 42.628794 
L 79.468831 56.794318 
L 90.425129 67.139223 
L 99.412501 77.950723 
L 113.065012 91.649651 
L 103.154029 116.16008 
L 99.412501 122.111719 
L 96.491543 116.16008 
L 79.468831 94.783713 
L 77.759823 91.649651 
L 63.224194 67.139223 
L 59.52516 61.952871 
L 48.533419 42.628794 
L 39.58149 29.306549 
L 31.860206 18.118365 
L 19.63782 18.118365 
L 19.63782 39.275871 
L 23.142944 42.628794 
L 39.58149 66.2043 
L 40.428158 67.139223 
L 58.774582 91.649651 
L 59.52516 92.849897 
L 76.107421 116.16008 
L 79.468831 121.338409 
L 93.143879 140.670509 
L 99.412501 150.646237 
L 110.797818 165.180938 
L 119.356171 177.507081 
L 129.899139 189.691366 
L 139.299841 203.443744 
L 148.453582 214.201795 
L 159.243512 230.128515 
L 166.29591 238.712224 
L 179.187182 257.321368 
L 184.347624 263.222652 
L 199.130852 284.109127 
L 201.89984 287.733081 
z
M 211.164528 287.733081 
L 219.074523 268.396278 
L 230.458257 287.733081 
L 219.074523 299.863382 
z
M 195.217716 263.222652 
L 199.130852 252.755356 
L 212.460293 263.222652 
L 199.130852 269.644972 
z
M 177.47191 238.712224 
L 179.187182 234.712321 
L 185.030768 238.712224 
L 179.187182 241.605253 
z
M 144.672649 189.691366 
L 139.299841 182.565514 
L 128.01067 165.180938 
L 139.299841 154.50184 
L 151.185327 165.180938 
L 159.243512 174.414747 
L 174.500678 189.691366 
L 159.243512 211.896406 
z
M 114.120294 140.670509 
L 119.356171 135.729395 
L 125.297418 140.670509 
L 119.356171 150.882134 
z
M 118.473132 116.16008 
L 119.356171 112.444483 
L 122.231057 116.16008 
L 119.356171 117.478518 
z
M 338.736544 312.24351 
L 345.77477 312.24351 
L 345.658442 287.733081 
L 346.451796 263.222652 
L 354.167411 238.712224 
L 358.680215 233.560479 
L 360.234119 238.712224 
L 366.506854 263.222652 
L 371.580951 287.733081 
L 375.515469 312.24351 
L 378.623885 312.24351 
L 384.209984 312.24351 
L 381.527325 287.733081 
L 378.623885 273.059713 
L 376.910383 263.222652 
L 372.123771 238.712224 
L 366.46704 214.201795 
L 359.460022 189.691366 
L 358.680215 187.356485 
L 339.612916 165.180938 
L 338.736544 164.071408 
L 338.402321 165.180938 
L 334.688858 189.691366 
L 333.996856 214.201795 
L 334.085807 238.712224 
L 334.978959 263.222652 
L 336.119094 287.733081 
L 336.923897 312.24351 
z
" clip-path="url(#pcdd9c1d8d8)" style="fill: #98d83e"/>
    <path d="M 219.074523 299.863382 
L 230.458257 287.733081 
L 219.074523 268.396278 
L 211.164528 287.733081 
z
M 218.467202 287.733081 
L 219.074523 286.086967 
L 220.203195 287.733081 
L 219.074523 288.765717 
z
M 358.680215 289.76695 
L 362.807802 312.24351 
L 375.515469 312.24351 
L 371.580951 287.733081 
L 366.506854 263.222652 
L 360.234119 238.712224 
L 358.680215 233.560479 
L 354.167411 238.712224 
L 346.451796 263.222652 
L 345.658442 287.733081 
L 345.77477 312.24351 
L 356.429898 312.24351 
z
M 199.130852 269.644972 
L 212.460293 263.222652 
L 199.130852 252.755356 
L 195.217716 263.222652 
z
M 179.187182 241.605253 
L 185.030768 238.712224 
L 179.187182 234.712321 
L 177.47191 238.712224 
z
M 159.243512 211.896406 
L 174.500678 189.691366 
L 159.243512 174.414747 
L 151.185327 165.180938 
L 139.299841 154.50184 
L 128.01067 165.180938 
L 139.299841 182.565514 
L 144.672649 189.691366 
z
M 119.356171 150.882134 
L 125.297418 140.670509 
L 119.356171 135.729395 
L 114.120294 140.670509 
z
M 99.412501 122.111719 
L 103.154029 116.16008 
L 113.065012 91.649651 
L 99.412501 77.950723 
L 90.425129 67.139223 
L 79.468831 56.794318 
L 67.129455 42.628794 
L 73.74206 18.118365 
L 61.299031 18.118365 
L 59.52516 22.334475 
L 57.4947 18.118365 
L 39.58149 18.118365 
L 31.860206 18.118365 
L 39.58149 29.306549 
L 48.533419 42.628794 
L 59.52516 61.952871 
L 63.224194 67.139223 
L 77.759823 91.649651 
L 79.468831 94.783713 
L 96.491543 116.16008 
z
" clip-path="url(#pcdd9c1d8d8)" style="fill: #c2df23"/>
    <path d="M 219.074523 288.765717 
L 220.203195 287.733081 
L 219.074523 286.086967 
L 218.467202 287.733081 
z
M 358.680215 312.24351 
L 362.807802 312.24351 
L 358.680215 289.76695 
L 356.429898 312.24351 
z
M 59.52516 22.334475 
L 61.299031 18.118365 
L 59.52516 18.118365 
L 57.4947 18.118365 
z
" clip-path="url(#pcdd9c1d8d8)" style="fill: #ece51b"/>
   </g>
   <g id="PathCollection_1">
    <defs>
     <path id="mdc0741d33a" d="M -3 3 
L 3 -3 
M -3 -3 
L 3 3 
" style="stroke: #ff0000; stroke-width: 1.5"/>
    </defs>
    <g clip-path="url(#pcdd9c1d8d8)">
     <use xlink:href="#mdc0741d33a" x="358.680215" y="312.24351" style="fill: #ff0000; stroke: #ff0000; stroke-width: 1.5"/>
     <use xlink:href="#mdc0741d33a" x="219.074523" y="287.733081" style="fill: #ff0000; stroke: #ff0000; stroke-width: 1.5"/>
     <use xlink:href="#mdc0741d33a" x="358.680215" y="263.222652" style="fill: #ff0000; stroke: #ff0000; stroke-width: 1.5"/>
     <use xlink:href="#mdc0741d33a" x="179.187182" y="238.712224" style="fill: #ff0000; stroke: #ff0000; stroke-width: 1.5"/>
     <use xlink:href="#mdc0741d33a" x="159.243512" y="214.201795" style="fill: #ff0000; stroke: #ff0000; stroke-width: 1.5"/>
     <use xlink:href="#mdc0741d33a" x="159.243512" y="189.691366" style="fill: #ff0000; stroke: #ff0000; stroke-width: 1.5"/>
     <use xlink:href="#mdc0741d33a" x="139.299841" y="165.180938" style="fill: #ff0000; stroke: #ff0000; stroke-width: 1.5"/>
     <use xlink:href="#mdc0741d33a" x="119.356171" y="140.670509" style="fill: #ff0000; stroke: #ff0000; stroke-width: 1.5"/>
     <use xlink:href="#mdc0741d33a" x="99.412501" y="116.16008" style="fill: #ff0000; stroke: #ff0000; stroke-width: 1.5"/>
     <use xlink:href="#mdc0741d33a" x="99.412501" y="91.649651" style="fill: #ff0000; stroke: #ff0000; stroke-width: 1.5"/>
     <use xlink:href="#mdc0741d33a" x="79.468831" y="67.139223" style="fill: #ff0000; stroke: #ff0000; stroke-width: 1.5"/>
     <use xlink:href="#mdc0741d33a" x="59.52516" y="42.628794" style="fill: #ff0000; stroke: #ff0000; stroke-width: 1.5"/>
     <use xlink:href="#mdc0741d33a" x="59.52516" y="18.118365" style="fill: #ff0000; stroke: #ff0000; stroke-width: 1.5"/>
    </g>
   </g>
   <g id="matplotlib.axis_1">
    <g id="xtick_1">
     <g id="line2d_1">
      <defs>
       <path id="m38f3b05bbe" d="M 0 0 
L 0 3.5 
" style="stroke: #000000; stroke-width: 0.8"/>
      </defs>
      <g>
       <use xlink:href="#m38f3b05bbe" x="99.412501" y="312.24351" style="stroke: #000000; stroke-width: 0.8"/>
      </g>
     </g>
     <g id="text_1">
      <!-- $\mathdefault{10^{-4}}$ -->
      <g transform="translate(87.662501 326.841947) scale(0.1 -0.1)">
       <defs>
        <path id="DejaVuSans-31" d="M 794 531 
L 1825 531 
L 1825 4091 
L 703 3866 
L 703 4441 
L 1819 4666 
L 2450 4666 
L 2450 531 
L 3481 531 
L 3481 0 
L 794 0 
L 794 531 
z
" transform="scale(0.015625)"/>
        <path id="DejaVuSans-30" d="M 2034 4250 
Q 1547 4250 1301 3770 
Q 1056 3291 1056 2328 
Q 1056 1369 1301 889 
Q 1547 409 2034 409 
Q 2525 409 2770 889 
Q 3016 1369 3016 2328 
Q 3016 3291 2770 3770 
Q 2525 4250 2034 4250 
z
M 2034 4750 
Q 2819 4750 3233 4129 
Q 3647 3509 3647 2328 
Q 3647 1150 3233 529 
Q 2819 -91 2034 -91 
Q 1250 -91 836 529 
Q 422 1150 422 2328 
Q 422 3509 836 4129 
Q 1250 4750 2034 4750 
z
" transform="scale(0.015625)"/>
        <path id="DejaVuSans-2212" d="M 678 2272 
L 4684 2272 
L 4684 1741 
L 678 1741 
L 678 2272 
z
" transform="scale(0.015625)"/>
        <path id="DejaVuSans-34" d="M 2419 4116 
L 825 1625 
L 2419 1625 
L 2419 4116 
z
M 2253 4666 
L 3047 4666 
L 3047 1625 
L 3713 1625 
L 3713 1100 
L 3047 1100 
L 3047 0 
L 2419 0 
L 2419 1100 
L 313 1100 
L 313 1709 
L 2253 4666 
z
" transform="scale(0.015625)"/>
       </defs>
       <use xlink:href="#DejaVuSans-31" transform="translate(0 0.684375)"/>
       <use xlink:href="#DejaVuSans-30" transform="translate(63.623047 0.684375)"/>
       <use xlink:href="#DejaVuSans-2212" transform="translate(128.203125 38.965625) scale(0.7)"/>
       <use xlink:href="#DejaVuSans-34" transform="translate(186.855469 38.965625) scale(0.7)"/>
      </g>
     </g>
    </g>
    <g id="xtick_2">
     <g id="line2d_2">
      <g>
       <use xlink:href="#m38f3b05bbe" x="179.187182" y="312.24351" style="stroke: #000000; stroke-width: 0.8"/>
      </g>
     </g>
     <g id="text_2">
      <!-- $\mathdefault{10^{-3}}$ -->
      <g transform="translate(167.437182 326.841947) scale(0.1 -0.1)">
       <defs>
        <path id="DejaVuSans-33" d="M 2597 2516 
Q 3050 2419 3304 2112 
Q 3559 1806 3559 1356 
Q 3559 666 3084 287 
Q 2609 -91 1734 -91 
Q 1441 -91 1130 -33 
Q 819 25 488 141 
L 488 750 
Q 750 597 1062 519 
Q 1375 441 1716 441 
Q 2309 441 2620 675 
Q 2931 909 2931 1356 
Q 2931 1769 2642 2001 
Q 2353 2234 1838 2234 
L 1294 2234 
L 1294 2753 
L 1863 2753 
Q 2328 2753 2575 2939 
Q 2822 3125 2822 3475 
Q 2822 3834 2567 4026 
Q 2313 4219 1838 4219 
Q 1578 4219 1281 4162 
Q 984 4106 628 3988 
L 628 4550 
Q 988 4650 1302 4700 
Q 1616 4750 1894 4750 
Q 2613 4750 3031 4423 
Q 3450 4097 3450 3541 
Q 3450 3153 3228 2886 
Q 3006 2619 2597 2516 
z
" transform="scale(0.015625)"/>
       </defs>
       <use xlink:href="#DejaVuSans-31" transform="translate(0 0.765625)"/>
       <use xlink:href="#DejaVuSans-30" transform="translate(63.623047 0.765625)"/>
       <use xlink:href="#DejaVuSans-2212" transform="translate(128.203125 39.046875) scale(0.7)"/>
       <use xlink:href="#DejaVuSans-33" transform="translate(186.855469 39.046875) scale(0.7)"/>
      </g>
     </g>
    </g>
    <g id="xtick_3">
     <g id="line2d_3">
      <g>
       <use xlink:href="#m38f3b05bbe" x="258.961863" y="312.24351" style="stroke: #000000; stroke-width: 0.8"/>
      </g>
     </g>
     <g id="text_3">
      <!-- $\mathdefault{10^{-2}}$ -->
      <g transform="translate(247.211863 326.841947) scale(0.1 -0.1)">
       <defs>
        <path id="DejaVuSans-32" d="M 1228 531 
L 3431 531 
L 3431 0 
L 469 0 
L 469 531 
Q 828 903 1448 1529 
Q 2069 2156 2228 2338 
Q 2531 2678 2651 2914 
Q 2772 3150 2772 3378 
Q 2772 3750 2511 3984 
Q 2250 4219 1831 4219 
Q 1534 4219 1204 4116 
Q 875 4013 500 3803 
L 500 4441 
Q 881 4594 1212 4672 
Q 1544 4750 1819 4750 
Q 2544 4750 2975 4387 
Q 3406 4025 3406 3419 
Q 3406 3131 3298 2873 
Q 3191 2616 2906 2266 
Q 2828 2175 2409 1742 
Q 1991 1309 1228 531 
z
" transform="scale(0.015625)"/>
       </defs>
       <use xlink:href="#DejaVuSans-31" transform="translate(0 0.765625)"/>
       <use xlink:href="#DejaVuSans-30" transform="translate(63.623047 0.765625)"/>
       <use xlink:href="#DejaVuSans-2212" transform="translate(128.203125 39.046875) scale(0.7)"/>
       <use xlink:href="#DejaVuSans-32" transform="translate(186.855469 39.046875) scale(0.7)"/>
      </g>
     </g>
    </g>
    <g id="xtick_4">
     <g id="line2d_4">
      <g>
       <use xlink:href="#m38f3b05bbe" x="338.736544" y="312.24351" style="stroke: #000000; stroke-width: 0.8"/>
      </g>
     </g>
     <g id="text_4">
      <!-- $\mathdefault{10^{-1}}$ -->
      <g transform="translate(326.986544 326.841947) scale(0.1 -0.1)">
       <use xlink:href="#DejaVuSans-31" transform="translate(0 0.684375)"/>
       <use xlink:href="#DejaVuSans-30" transform="translate(63.623047 0.684375)"/>
       <use xlink:href="#DejaVuSans-2212" transform="translate(128.203125 38.965625) scale(0.7)"/>
       <use xlink:href="#DejaVuSans-31" transform="translate(186.855469 38.965625) scale(0.7)"/>
      </g>
     </g>
    </g>
    <g id="xtick_5">
     <g id="line2d_5">
      <defs>
       <path id="m360e1f0208" d="M 0 0 
L 0 2 
" style="stroke: #000000; stroke-width: 0.6"/>
      </defs>
      <g>
       <use xlink:href="#m360e1f0208" x="43.652392" y="312.24351" style="stroke: #000000; stroke-width: 0.6"/>
      </g>
     </g>
    </g>
    <g id="xtick_6">
     <g id="line2d_6">
      <g>
       <use xlink:href="#m360e1f0208" x="57.700016" y="312.24351" style="stroke: #000000; stroke-width: 0.6"/>
      </g>
     </g>
    </g>
    <g id="xtick_7">
     <g id="line2d_7">
      <g>
       <use xlink:href="#m360e1f0208" x="67.666964" y="312.24351" style="stroke: #000000; stroke-width: 0.6"/>
      </g>
     </g>
    </g>
    <g id="xtick_8">
     <g id="line2d_8">
      <g>
       <use xlink:href="#m360e1f0208" x="75.397929" y="312.24351" style="stroke: #000000; stroke-width: 0.6"/>
      </g>
     </g>
    </g>
    <g id="xtick_9">
     <g id="line2d_9">
      <g>
       <use xlink:href="#m360e1f0208" x="81.714588" y="312.24351" style="stroke: #000000; stroke-width: 0.6"/>
      </g>
     </g>
    </g>
    <g id="xtick_10">
     <g id="line2d_10">
      <g>
       <use xlink:href="#m360e1f0208" x="87.055246" y="312.24351" style="stroke: #000000; stroke-width: 0.6"/>
      </g>
     </g>
    </g>
    <g id="xtick_11">
     <g id="line2d_11">
      <g>
       <use xlink:href="#m360e1f0208" x="91.681535" y="312.24351" style="stroke: #000000; stroke-width: 0.6"/>
      </g>
     </g>
    </g>
    <g id="xtick_12">
     <g id="line2d_12">
      <g>
       <use xlink:href="#m360e1f0208" x="95.762212" y="312.24351" style="stroke: #000000; stroke-width: 0.6"/>
      </g>
     </g>
    </g>
    <g id="xtick_13">
     <g id="line2d_13">
      <g>
       <use xlink:href="#m360e1f0208" x="123.427073" y="312.24351" style="stroke: #000000; stroke-width: 0.6"/>
      </g>
     </g>
    </g>
    <g id="xtick_14">
     <g id="line2d_14">
      <g>
       <use xlink:href="#m360e1f0208" x="137.474697" y="312.24351" style="stroke: #000000; stroke-width: 0.6"/>
      </g>
     </g>
    </g>
    <g id="xtick_15">
     <g id="line2d_15">
      <g>
       <use xlink:href="#m360e1f0208" x="147.441645" y="312.24351" style="stroke: #000000; stroke-width: 0.6"/>
      </g>
     </g>
    </g>
    <g id="xtick_16">
     <g id="line2d_16">
      <g>
       <use xlink:href="#m360e1f0208" x="155.17261" y="312.24351" style="stroke: #000000; stroke-width: 0.6"/>
      </g>
     </g>
    </g>
    <g id="xtick_17">
     <g id="line2d_17">
      <g>
       <use xlink:href="#m360e1f0208" x="161.489269" y="312.24351" style="stroke: #000000; stroke-width: 0.6"/>
      </g>
     </g>
    </g>
    <g id="xtick_18">
     <g id="line2d_18">
      <g>
       <use xlink:href="#m360e1f0208" x="166.829928" y="312.24351" style="stroke: #000000; stroke-width: 0.6"/>
      </g>
     </g>
    </g>
    <g id="xtick_19">
     <g id="line2d_19">
      <g>
       <use xlink:href="#m360e1f0208" x="171.456217" y="312.24351" style="stroke: #000000; stroke-width: 0.6"/>
      </g>
     </g>
    </g>
    <g id="xtick_20">
     <g id="line2d_20">
      <g>
       <use xlink:href="#m360e1f0208" x="175.536893" y="312.24351" style="stroke: #000000; stroke-width: 0.6"/>
      </g>
     </g>
    </g>
    <g id="xtick_21">
     <g id="line2d_21">
      <g>
       <use xlink:href="#m360e1f0208" x="203.201754" y="312.24351" style="stroke: #000000; stroke-width: 0.6"/>
      </g>
     </g>
    </g>
    <g id="xtick_22">
     <g id="line2d_22">
      <g>
       <use xlink:href="#m360e1f0208" x="217.249378" y="312.24351" style="stroke: #000000; stroke-width: 0.6"/>
      </g>
     </g>
    </g>
    <g id="xtick_23">
     <g id="line2d_23">
      <g>
       <use xlink:href="#m360e1f0208" x="227.216326" y="312.24351" style="stroke: #000000; stroke-width: 0.6"/>
      </g>
     </g>
    </g>
    <g id="xtick_24">
     <g id="line2d_24">
      <g>
       <use xlink:href="#m360e1f0208" x="234.947291" y="312.24351" style="stroke: #000000; stroke-width: 0.6"/>
      </g>
     </g>
    </g>
    <g id="xtick_25">
     <g id="line2d_25">
      <g>
       <use xlink:href="#m360e1f0208" x="241.26395" y="312.24351" style="stroke: #000000; stroke-width: 0.6"/>
      </g>
     </g>
    </g>
    <g id="xtick_26">
     <g id="line2d_26">
      <g>
       <use xlink:href="#m360e1f0208" x="246.604609" y="312.24351" style="stroke: #000000; stroke-width: 0.6"/>
      </g>
     </g>
    </g>
    <g id="xtick_27">
     <g id="line2d_27">
      <g>
       <use xlink:href="#m360e1f0208" x="251.230898" y="312.24351" style="stroke: #000000; stroke-width: 0.6"/>
      </g>
     </g>
    </g>
    <g id="xtick_28">
     <g id="line2d_28">
      <g>
       <use xlink:href="#m360e1f0208" x="255.311574" y="312.24351" style="stroke: #000000; stroke-width: 0.6"/>
      </g>
     </g>
    </g>
    <g id="xtick_29">
     <g id="line2d_29">
      <g>
       <use xlink:href="#m360e1f0208" x="282.976435" y="312.24351" style="stroke: #000000; stroke-width: 0.6"/>
      </g>
     </g>
    </g>
    <g id="xtick_30">
     <g id="line2d_30">
      <g>
       <use xlink:href="#m360e1f0208" x="297.024059" y="312.24351" style="stroke: #000000; stroke-width: 0.6"/>
      </g>
     </g>
    </g>
    <g id="xtick_31">
     <g id="line2d_31">
      <g>
       <use xlink:href="#m360e1f0208" x="306.991007" y="312.24351" style="stroke: #000000; stroke-width: 0.6"/>
      </g>
     </g>
    </g>
    <g id="xtick_32">
     <g id="line2d_32">
      <g>
       <use xlink:href="#m360e1f0208" x="314.721972" y="312.24351" style="stroke: #000000; stroke-width: 0.6"/>
      </g>
     </g>
    </g>
    <g id="xtick_33">
     <g id="line2d_33">
      <g>
       <use xlink:href="#m360e1f0208" x="321.038631" y="312.24351" style="stroke: #000000; stroke-width: 0.6"/>
      </g>
     </g>
    </g>
    <g id="xtick_34">
     <g id="line2d_34">
      <g>
       <use xlink:href="#m360e1f0208" x="326.37929" y="312.24351" style="stroke: #000000; stroke-width: 0.6"/>
      </g>
     </g>
    </g>
    <g id="xtick_35">
     <g id="line2d_35">
      <g>
       <use xlink:href="#m360e1f0208" x="331.005579" y="312.24351" style="stroke: #000000; stroke-width: 0.6"/>
      </g>
     </g>
    </g>
    <g id="xtick_36">
     <g id="line2d_36">
      <g>
       <use xlink:href="#m360e1f0208" x="335.086255" y="312.24351" style="stroke: #000000; stroke-width: 0.6"/>
      </g>
     </g>
    </g>
    <g id="xtick_37">
     <g id="line2d_37">
      <g>
       <use xlink:href="#m360e1f0208" x="362.751116" y="312.24351" style="stroke: #000000; stroke-width: 0.6"/>
      </g>
     </g>
    </g>
    <g id="xtick_38">
     <g id="line2d_38">
      <g>
       <use xlink:href="#m360e1f0208" x="376.79874" y="312.24351" style="stroke: #000000; stroke-width: 0.6"/>
      </g>
     </g>
    </g>
    <g id="text_5">
     <!-- bandwidth -->
     <g transform="translate(182.740187 340.520072) scale(0.1 -0.1)">
      <defs>
       <path id="DejaVuSans-62" d="M 3116 1747 
Q 3116 2381 2855 2742 
Q 2594 3103 2138 3103 
Q 1681 3103 1420 2742 
Q 1159 2381 1159 1747 
Q 1159 1113 1420 752 
Q 1681 391 2138 391 
Q 2594 391 2855 752 
Q 3116 1113 3116 1747 
z
M 1159 2969 
Q 1341 3281 1617 3432 
Q 1894 3584 2278 3584 
Q 2916 3584 3314 3078 
Q 3713 2572 3713 1747 
Q 3713 922 3314 415 
Q 2916 -91 2278 -91 
Q 1894 -91 1617 61 
Q 1341 213 1159 525 
L 1159 0 
L 581 0 
L 581 4863 
L 1159 4863 
L 1159 2969 
z
" transform="scale(0.015625)"/>
       <path id="DejaVuSans-61" d="M 2194 1759 
Q 1497 1759 1228 1600 
Q 959 1441 959 1056 
Q 959 750 1161 570 
Q 1363 391 1709 391 
Q 2188 391 2477 730 
Q 2766 1069 2766 1631 
L 2766 1759 
L 2194 1759 
z
M 3341 1997 
L 3341 0 
L 2766 0 
L 2766 531 
Q 2569 213 2275 61 
Q 1981 -91 1556 -91 
Q 1019 -91 701 211 
Q 384 513 384 1019 
Q 384 1609 779 1909 
Q 1175 2209 1959 2209 
L 2766 2209 
L 2766 2266 
Q 2766 2663 2505 2880 
Q 2244 3097 1772 3097 
Q 1472 3097 1187 3025 
Q 903 2953 641 2809 
L 641 3341 
Q 956 3463 1253 3523 
Q 1550 3584 1831 3584 
Q 2591 3584 2966 3190 
Q 3341 2797 3341 1997 
z
" transform="scale(0.015625)"/>
       <path id="DejaVuSans-6e" d="M 3513 2113 
L 3513 0 
L 2938 0 
L 2938 2094 
Q 2938 2591 2744 2837 
Q 2550 3084 2163 3084 
Q 1697 3084 1428 2787 
Q 1159 2491 1159 1978 
L 1159 0 
L 581 0 
L 581 3500 
L 1159 3500 
L 1159 2956 
Q 1366 3272 1645 3428 
Q 1925 3584 2291 3584 
Q 2894 3584 3203 3211 
Q 3513 2838 3513 2113 
z
" transform="scale(0.015625)"/>
       <path id="DejaVuSans-64" d="M 2906 2969 
L 2906 4863 
L 3481 4863 
L 3481 0 
L 2906 0 
L 2906 525 
Q 2725 213 2448 61 
Q 2172 -91 1784 -91 
Q 1150 -91 751 415 
Q 353 922 353 1747 
Q 353 2572 751 3078 
Q 1150 3584 1784 3584 
Q 2172 3584 2448 3432 
Q 2725 3281 2906 2969 
z
M 947 1747 
Q 947 1113 1208 752 
Q 1469 391 1925 391 
Q 2381 391 2643 752 
Q 2906 1113 2906 1747 
Q 2906 2381 2643 2742 
Q 2381 3103 1925 3103 
Q 1469 3103 1208 2742 
Q 947 2381 947 1747 
z
" transform="scale(0.015625)"/>
       <path id="DejaVuSans-77" d="M 269 3500 
L 844 3500 
L 1563 769 
L 2278 3500 
L 2956 3500 
L 3675 769 
L 4391 3500 
L 4966 3500 
L 4050 0 
L 3372 0 
L 2619 2869 
L 1863 0 
L 1184 0 
L 269 3500 
z
" transform="scale(0.015625)"/>
       <path id="DejaVuSans-69" d="M 603 3500 
L 1178 3500 
L 1178 0 
L 603 0 
L 603 3500 
z
M 603 4863 
L 1178 4863 
L 1178 4134 
L 603 4134 
L 603 4863 
z
" transform="scale(0.015625)"/>
       <path id="DejaVuSans-74" d="M 1172 4494 
L 1172 3500 
L 2356 3500 
L 2356 3053 
L 1172 3053 
L 1172 1153 
Q 1172 725 1289 603 
Q 1406 481 1766 481 
L 2356 481 
L 2356 0 
L 1766 0 
Q 1100 0 847 248 
Q 594 497 594 1153 
L 594 3053 
L 172 3053 
L 172 3500 
L 594 3500 
L 594 4494 
L 1172 4494 
z
" transform="scale(0.015625)"/>
       <path id="DejaVuSans-68" d="M 3513 2113 
L 3513 0 
L 2938 0 
L 2938 2094 
Q 2938 2591 2744 2837 
Q 2550 3084 2163 3084 
Q 1697 3084 1428 2787 
Q 1159 2491 1159 1978 
L 1159 0 
L 581 0 
L 581 4863 
L 1159 4863 
L 1159 2956 
Q 1366 3272 1645 3428 
Q 1925 3584 2291 3584 
Q 2894 3584 3203 3211 
Q 3513 2838 3513 2113 
z
" transform="scale(0.015625)"/>
      </defs>
      <use xlink:href="#DejaVuSans-62"/>
      <use xlink:href="#DejaVuSans-61" transform="translate(63.476562 0)"/>
      <use xlink:href="#DejaVuSans-6e" transform="translate(124.755859 0)"/>
      <use xlink:href="#DejaVuSans-64" transform="translate(188.134766 0)"/>
      <use xlink:href="#DejaVuSans-77" transform="translate(251.611328 0)"/>
      <use xlink:href="#DejaVuSans-69" transform="translate(333.398438 0)"/>
      <use xlink:href="#DejaVuSans-64" transform="translate(361.181641 0)"/>
      <use xlink:href="#DejaVuSans-74" transform="translate(424.658203 0)"/>
      <use xlink:href="#DejaVuSans-68" transform="translate(463.867188 0)"/>
     </g>
    </g>
   </g>
   <g id="matplotlib.axis_2">
    <g id="ytick_1">
     <g id="line2d_39">
      <defs>
       <path id="mbd2f377c6c" d="M 0 0 
L -3.5 0 
" style="stroke: #000000; stroke-width: 0.8"/>
      </defs>
      <g>
       <use xlink:href="#mbd2f377c6c" x="39.58149" y="312.24351" style="stroke: #000000; stroke-width: 0.8"/>
      </g>
     </g>
     <g id="text_6">
      <!-- 1.0 -->
      <g transform="translate(16.678365 316.042729) scale(0.1 -0.1)">
       <defs>
        <path id="DejaVuSans-2e" d="M 684 794 
L 1344 794 
L 1344 0 
L 684 0 
L 684 794 
z
" transform="scale(0.015625)"/>
       </defs>
       <use xlink:href="#DejaVuSans-31"/>
       <use xlink:href="#DejaVuSans-2e" transform="translate(63.623047 0)"/>
       <use xlink:href="#DejaVuSans-30" transform="translate(95.410156 0)"/>
      </g>
     </g>
    </g>
    <g id="ytick_2">
     <g id="line2d_40">
      <g>
       <use xlink:href="#mbd2f377c6c" x="39.58149" y="263.222652" style="stroke: #000000; stroke-width: 0.8"/>
      </g>
     </g>
     <g id="text_7">
      <!-- 1.5 -->
      <g transform="translate(16.678365 267.021871) scale(0.1 -0.1)">
       <defs>
        <path id="DejaVuSans-35" d="M 691 4666 
L 3169 4666 
L 3169 4134 
L 1269 4134 
L 1269 2991 
Q 1406 3038 1543 3061 
Q 1681 3084 1819 3084 
Q 2600 3084 3056 2656 
Q 3513 2228 3513 1497 
Q 3513 744 3044 326 
Q 2575 -91 1722 -91 
Q 1428 -91 1123 -41 
Q 819 9 494 109 
L 494 744 
Q 775 591 1075 516 
Q 1375 441 1709 441 
Q 2250 441 2565 725 
Q 2881 1009 2881 1497 
Q 2881 1984 2565 2268 
Q 2250 2553 1709 2553 
Q 1456 2553 1204 2497 
Q 953 2441 691 2322 
L 691 4666 
z
" transform="scale(0.015625)"/>
       </defs>
       <use xlink:href="#DejaVuSans-31"/>
       <use xlink:href="#DejaVuSans-2e" transform="translate(63.623047 0)"/>
       <use xlink:href="#DejaVuSans-35" transform="translate(95.410156 0)"/>
      </g>
     </g>
    </g>
    <g id="ytick_3">
     <g id="line2d_41">
      <g>
       <use xlink:href="#mbd2f377c6c" x="39.58149" y="214.201795" style="stroke: #000000; stroke-width: 0.8"/>
      </g>
     </g>
     <g id="text_8">
      <!-- 2.0 -->
      <g transform="translate(16.678365 218.001014) scale(0.1 -0.1)">
       <use xlink:href="#DejaVuSans-32"/>
       <use xlink:href="#DejaVuSans-2e" transform="translate(63.623047 0)"/>
       <use xlink:href="#DejaVuSans-30" transform="translate(95.410156 0)"/>
      </g>
     </g>
    </g>
    <g id="ytick_4">
     <g id="line2d_42">
      <g>
       <use xlink:href="#mbd2f377c6c" x="39.58149" y="165.180938" style="stroke: #000000; stroke-width: 0.8"/>
      </g>
     </g>
     <g id="text_9">
      <!-- 2.5 -->
      <g transform="translate(16.678365 168.980156) scale(0.1 -0.1)">
       <use xlink:href="#DejaVuSans-32"/>
       <use xlink:href="#DejaVuSans-2e" transform="translate(63.623047 0)"/>
       <use xlink:href="#DejaVuSans-35" transform="translate(95.410156 0)"/>
      </g>
     </g>
    </g>
    <g id="ytick_5">
     <g id="line2d_43">
      <g>
       <use xlink:href="#mbd2f377c6c" x="39.58149" y="116.16008" style="stroke: #000000; stroke-width: 0.8"/>
      </g>
     </g>
     <g id="text_10">
      <!-- 3.0 -->
      <g transform="translate(16.678365 119.959299) scale(0.1 -0.1)">
       <use xlink:href="#DejaVuSans-33"/>
       <use xlink:href="#DejaVuSans-2e" transform="translate(63.623047 0)"/>
       <use xlink:href="#DejaVuSans-30" transform="translate(95.410156 0)"/>
      </g>
     </g>
    </g>
    <g id="ytick_6">
     <g id="line2d_44">
      <g>
       <use xlink:href="#mbd2f377c6c" x="39.58149" y="67.139223" style="stroke: #000000; stroke-width: 0.8"/>
      </g>
     </g>
     <g id="text_11">
      <!-- 3.5 -->
      <g transform="translate(16.678365 70.938441) scale(0.1 -0.1)">
       <use xlink:href="#DejaVuSans-33"/>
       <use xlink:href="#DejaVuSans-2e" transform="translate(63.623047 0)"/>
       <use xlink:href="#DejaVuSans-35" transform="translate(95.410156 0)"/>
      </g>
     </g>
    </g>
    <g id="ytick_7">
     <g id="line2d_45">
      <g>
       <use xlink:href="#mbd2f377c6c" x="39.58149" y="18.118365" style="stroke: #000000; stroke-width: 0.8"/>
      </g>
     </g>
     <g id="text_12">
      <!-- 4.0 -->
      <g transform="translate(16.678365 21.917584) scale(0.1 -0.1)">
       <use xlink:href="#DejaVuSans-34"/>
       <use xlink:href="#DejaVuSans-2e" transform="translate(63.623047 0)"/>
       <use xlink:href="#DejaVuSans-30" transform="translate(95.410156 0)"/>
      </g>
     </g>
    </g>
    <g id="text_13">
     <!-- alpha -->
     <g transform="translate(10.598677 179.041094) rotate(-90) scale(0.1 -0.1)">
      <defs>
       <path id="DejaVuSans-6c" d="M 603 4863 
L 1178 4863 
L 1178 0 
L 603 0 
L 603 4863 
z
" transform="scale(0.015625)"/>
       <path id="DejaVuSans-70" d="M 1159 525 
L 1159 -1331 
L 581 -1331 
L 581 3500 
L 1159 3500 
L 1159 2969 
Q 1341 3281 1617 3432 
Q 1894 3584 2278 3584 
Q 2916 3584 3314 3078 
Q 3713 2572 3713 1747 
Q 3713 922 3314 415 
Q 2916 -91 2278 -91 
Q 1894 -91 1617 61 
Q 1341 213 1159 525 
z
M 3116 1747 
Q 3116 2381 2855 2742 
Q 2594 3103 2138 3103 
Q 1681 3103 1420 2742 
Q 1159 2381 1159 1747 
Q 1159 1113 1420 752 
Q 1681 391 2138 391 
Q 2594 391 2855 752 
Q 3116 1113 3116 1747 
z
" transform="scale(0.015625)"/>
      </defs>
      <use xlink:href="#DejaVuSans-61"/>
      <use xlink:href="#DejaVuSans-6c" transform="translate(61.279297 0)"/>
      <use xlink:href="#DejaVuSans-70" transform="translate(89.0625 0)"/>
      <use xlink:href="#DejaVuSans-68" transform="translate(152.539062 0)"/>
      <use xlink:href="#DejaVuSans-61" transform="translate(215.917969 0)"/>
     </g>
    </g>
   </g>
   <g id="patch_3">
    <path d="M 39.58149 312.24351 
L 39.58149 18.118365 
" style="fill: none; stroke: #000000; stroke-width: 0.8; stroke-linejoin: miter; stroke-linecap: square"/>
   </g>
   <g id="patch_4">
    <path d="M 378.623885 312.24351 
L 378.623885 18.118365 
" style="fill: none; stroke: #000000; stroke-width: 0.8; stroke-linejoin: miter; stroke-linecap: square"/>
   </g>
   <g id="patch_5">
    <path d="M 39.58149 312.24351 
L 378.623885 312.24351 
" style="fill: none; stroke: #000000; stroke-width: 0.8; stroke-linejoin: miter; stroke-linecap: square"/>
   </g>
   <g id="patch_6">
    <path d="M 39.58149 18.118365 
L 378.623885 18.118365 
" style="fill: none; stroke: #000000; stroke-width: 0.8; stroke-linejoin: miter; stroke-linecap: square"/>
   </g>
   <g id="text_14">
    <!-- espirales_lo 1188 fkdc -->
    <g transform="translate(142.064875 12.118365) scale(0.12 -0.12)">
     <defs>
      <path id="DejaVuSans-65" d="M 3597 1894 
L 3597 1613 
L 953 1613 
Q 991 1019 1311 708 
Q 1631 397 2203 397 
Q 2534 397 2845 478 
Q 3156 559 3463 722 
L 3463 178 
Q 3153 47 2828 -22 
Q 2503 -91 2169 -91 
Q 1331 -91 842 396 
Q 353 884 353 1716 
Q 353 2575 817 3079 
Q 1281 3584 2069 3584 
Q 2775 3584 3186 3129 
Q 3597 2675 3597 1894 
z
M 3022 2063 
Q 3016 2534 2758 2815 
Q 2500 3097 2075 3097 
Q 1594 3097 1305 2825 
Q 1016 2553 972 2059 
L 3022 2063 
z
" transform="scale(0.015625)"/>
      <path id="DejaVuSans-73" d="M 2834 3397 
L 2834 2853 
Q 2591 2978 2328 3040 
Q 2066 3103 1784 3103 
Q 1356 3103 1142 2972 
Q 928 2841 928 2578 
Q 928 2378 1081 2264 
Q 1234 2150 1697 2047 
L 1894 2003 
Q 2506 1872 2764 1633 
Q 3022 1394 3022 966 
Q 3022 478 2636 193 
Q 2250 -91 1575 -91 
Q 1294 -91 989 -36 
Q 684 19 347 128 
L 347 722 
Q 666 556 975 473 
Q 1284 391 1588 391 
Q 1994 391 2212 530 
Q 2431 669 2431 922 
Q 2431 1156 2273 1281 
Q 2116 1406 1581 1522 
L 1381 1569 
Q 847 1681 609 1914 
Q 372 2147 372 2553 
Q 372 3047 722 3315 
Q 1072 3584 1716 3584 
Q 2034 3584 2315 3537 
Q 2597 3491 2834 3397 
z
" transform="scale(0.015625)"/>
      <path id="DejaVuSans-72" d="M 2631 2963 
Q 2534 3019 2420 3045 
Q 2306 3072 2169 3072 
Q 1681 3072 1420 2755 
Q 1159 2438 1159 1844 
L 1159 0 
L 581 0 
L 581 3500 
L 1159 3500 
L 1159 2956 
Q 1341 3275 1631 3429 
Q 1922 3584 2338 3584 
Q 2397 3584 2469 3576 
Q 2541 3569 2628 3553 
L 2631 2963 
z
" transform="scale(0.015625)"/>
      <path id="DejaVuSans-5f" d="M 3263 -1063 
L 3263 -1509 
L -63 -1509 
L -63 -1063 
L 3263 -1063 
z
" transform="scale(0.015625)"/>
      <path id="DejaVuSans-6f" d="M 1959 3097 
Q 1497 3097 1228 2736 
Q 959 2375 959 1747 
Q 959 1119 1226 758 
Q 1494 397 1959 397 
Q 2419 397 2687 759 
Q 2956 1122 2956 1747 
Q 2956 2369 2687 2733 
Q 2419 3097 1959 3097 
z
M 1959 3584 
Q 2709 3584 3137 3096 
Q 3566 2609 3566 1747 
Q 3566 888 3137 398 
Q 2709 -91 1959 -91 
Q 1206 -91 779 398 
Q 353 888 353 1747 
Q 353 2609 779 3096 
Q 1206 3584 1959 3584 
z
" transform="scale(0.015625)"/>
      <path id="DejaVuSans-20" transform="scale(0.015625)"/>
      <path id="DejaVuSans-38" d="M 2034 2216 
Q 1584 2216 1326 1975 
Q 1069 1734 1069 1313 
Q 1069 891 1326 650 
Q 1584 409 2034 409 
Q 2484 409 2743 651 
Q 3003 894 3003 1313 
Q 3003 1734 2745 1975 
Q 2488 2216 2034 2216 
z
M 1403 2484 
Q 997 2584 770 2862 
Q 544 3141 544 3541 
Q 544 4100 942 4425 
Q 1341 4750 2034 4750 
Q 2731 4750 3128 4425 
Q 3525 4100 3525 3541 
Q 3525 3141 3298 2862 
Q 3072 2584 2669 2484 
Q 3125 2378 3379 2068 
Q 3634 1759 3634 1313 
Q 3634 634 3220 271 
Q 2806 -91 2034 -91 
Q 1263 -91 848 271 
Q 434 634 434 1313 
Q 434 1759 690 2068 
Q 947 2378 1403 2484 
z
M 1172 3481 
Q 1172 3119 1398 2916 
Q 1625 2713 2034 2713 
Q 2441 2713 2670 2916 
Q 2900 3119 2900 3481 
Q 2900 3844 2670 4047 
Q 2441 4250 2034 4250 
Q 1625 4250 1398 4047 
Q 1172 3844 1172 3481 
z
" transform="scale(0.015625)"/>
      <path id="DejaVuSans-66" d="M 2375 4863 
L 2375 4384 
L 1825 4384 
Q 1516 4384 1395 4259 
Q 1275 4134 1275 3809 
L 1275 3500 
L 2222 3500 
L 2222 3053 
L 1275 3053 
L 1275 0 
L 697 0 
L 697 3053 
L 147 3053 
L 147 3500 
L 697 3500 
L 697 3744 
Q 697 4328 969 4595 
Q 1241 4863 1831 4863 
L 2375 4863 
z
" transform="scale(0.015625)"/>
      <path id="DejaVuSans-6b" d="M 581 4863 
L 1159 4863 
L 1159 1991 
L 2875 3500 
L 3609 3500 
L 1753 1863 
L 3688 0 
L 2938 0 
L 1159 1709 
L 1159 0 
L 581 0 
L 581 4863 
z
" transform="scale(0.015625)"/>
      <path id="DejaVuSans-63" d="M 3122 3366 
L 3122 2828 
Q 2878 2963 2633 3030 
Q 2388 3097 2138 3097 
Q 1578 3097 1268 2742 
Q 959 2388 959 1747 
Q 959 1106 1268 751 
Q 1578 397 2138 397 
Q 2388 397 2633 464 
Q 2878 531 3122 666 
L 3122 134 
Q 2881 22 2623 -34 
Q 2366 -91 2075 -91 
Q 1284 -91 818 406 
Q 353 903 353 1747 
Q 353 2603 823 3093 
Q 1294 3584 2113 3584 
Q 2378 3584 2631 3529 
Q 2884 3475 3122 3366 
z
" transform="scale(0.015625)"/>
     </defs>
     <use xlink:href="#DejaVuSans-65"/>
     <use xlink:href="#DejaVuSans-73" transform="translate(61.523438 0)"/>
     <use xlink:href="#DejaVuSans-70" transform="translate(113.623047 0)"/>
     <use xlink:href="#DejaVuSans-69" transform="translate(177.099609 0)"/>
     <use xlink:href="#DejaVuSans-72" transform="translate(204.882812 0)"/>
     <use xlink:href="#DejaVuSans-61" transform="translate(245.996094 0)"/>
     <use xlink:href="#DejaVuSans-6c" transform="translate(307.275391 0)"/>
     <use xlink:href="#DejaVuSans-65" transform="translate(335.058594 0)"/>
     <use xlink:href="#DejaVuSans-73" transform="translate(396.582031 0)"/>
     <use xlink:href="#DejaVuSans-5f" transform="translate(448.681641 0)"/>
     <use xlink:href="#DejaVuSans-6c" transform="translate(498.681641 0)"/>
     <use xlink:href="#DejaVuSans-6f" transform="translate(526.464844 0)"/>
     <use xlink:href="#DejaVuSans-20" transform="translate(587.646484 0)"/>
     <use xlink:href="#DejaVuSans-31" transform="translate(619.433594 0)"/>
     <use xlink:href="#DejaVuSans-31" transform="translate(683.056641 0)"/>
     <use xlink:href="#DejaVuSans-38" transform="translate(746.679688 0)"/>
     <use xlink:href="#DejaVuSans-38" transform="translate(810.302734 0)"/>
     <use xlink:href="#DejaVuSans-20" transform="translate(873.925781 0)"/>
     <use xlink:href="#DejaVuSans-66" transform="translate(905.712891 0)"/>
     <use xlink:href="#DejaVuSans-6b" transform="translate(940.917969 0)"/>
     <use xlink:href="#DejaVuSans-64" transform="translate(998.828125 0)"/>
     <use xlink:href="#DejaVuSans-63" transform="translate(1062.304688 0)"/>
    </g>
   </g>
  </g>
  <g id="axes_2">
   <g id="patch_7">
    <path d="M 395.576005 312.24351 
L 410.282262 312.24351 
L 410.282262 18.118365 
L 395.576005 18.118365 
z
" style="fill: #ffffff"/>
   </g>
   <g id="QuadMesh_1">
    <path d="M 395.576005 312.24351 
L 410.282262 312.24351 
L 410.282262 293.860688 
L 395.576005 293.860688 
L 395.576005 312.24351 
" clip-path="url(#pbdd60e4c41)" style="fill: #470d60"/>
    <path d="M 395.576005 293.860688 
L 410.282262 293.860688 
L 410.282262 275.477867 
L 395.576005 275.477867 
L 395.576005 293.860688 
" clip-path="url(#pbdd60e4c41)" style="fill: #482173"/>
    <path d="M 395.576005 275.477867 
L 410.282262 275.477867 
L 410.282262 257.095045 
L 395.576005 257.095045 
L 395.576005 275.477867 
" clip-path="url(#pbdd60e4c41)" style="fill: #453581"/>
    <path d="M 395.576005 257.095045 
L 410.282262 257.095045 
L 410.282262 238.712224 
L 395.576005 238.712224 
L 395.576005 257.095045 
" clip-path="url(#pbdd60e4c41)" style="fill: #3e4989"/>
    <path d="M 395.576005 238.712224 
L 410.282262 238.712224 
L 410.282262 220.329402 
L 395.576005 220.329402 
L 395.576005 238.712224 
" clip-path="url(#pbdd60e4c41)" style="fill: #375b8d"/>
    <path d="M 395.576005 220.329402 
L 410.282262 220.329402 
L 410.282262 201.946581 
L 395.576005 201.946581 
L 395.576005 220.329402 
" clip-path="url(#pbdd60e4c41)" style="fill: #306a8e"/>
    <path d="M 395.576005 201.946581 
L 410.282262 201.946581 
L 410.282262 183.563759 
L 395.576005 183.563759 
L 395.576005 201.946581 
" clip-path="url(#pbdd60e4c41)" style="fill: #297a8e"/>
    <path d="M 395.576005 183.563759 
L 410.282262 183.563759 
L 410.282262 165.180937 
L 395.576005 165.180937 
L 395.576005 183.563759 
" clip-path="url(#pbdd60e4c41)" style="fill: #23898e"/>
    <path d="M 395.576005 165.180937 
L 410.282262 165.180937 
L 410.282262 146.798116 
L 395.576005 146.798116 
L 395.576005 165.180937 
" clip-path="url(#pbdd60e4c41)" style="fill: #1f978b"/>
    <path d="M 395.576005 146.798116 
L 410.282262 146.798116 
L 410.282262 128.415294 
L 395.576005 128.415294 
L 395.576005 146.798116 
" clip-path="url(#pbdd60e4c41)" style="fill: #22a785"/>
    <path d="M 395.576005 128.415294 
L 410.282262 128.415294 
L 410.282262 110.032473 
L 395.576005 110.032473 
L 395.576005 128.415294 
" clip-path="url(#pbdd60e4c41)" style="fill: #32b67a"/>
    <path d="M 395.576005 110.032473 
L 410.282262 110.032473 
L 410.282262 91.649651 
L 395.576005 91.649651 
L 395.576005 110.032473 
" clip-path="url(#pbdd60e4c41)" style="fill: #4cc26c"/>
    <path d="M 395.576005 91.649651 
L 410.282262 91.649651 
L 410.282262 73.26683 
L 395.576005 73.26683 
L 395.576005 91.649651 
" clip-path="url(#pbdd60e4c41)" style="fill: #70cf57"/>
    <path d="M 395.576005 73.26683 
L 410.282262 73.26683 
L 410.282262 54.884008 
L 395.576005 54.884008 
L 395.576005 73.26683 
" clip-path="url(#pbdd60e4c41)" style="fill: #98d83e"/>
    <path d="M 395.576005 54.884008 
L 410.282262 54.884008 
L 410.282262 36.501187 
L 395.576005 36.501187 
L 395.576005 54.884008 
" clip-path="url(#pbdd60e4c41)" style="fill: #c2df23"/>
    <path d="M 395.576005 36.501187 
L 410.282262 36.501187 
L 410.282262 18.118365 
L 395.576005 18.118365 
L 395.576005 36.501187 
" clip-path="url(#pbdd60e4c41)" style="fill: #ece51b"/>
   </g>
   <g id="matplotlib.axis_3"/>
   <g id="matplotlib.axis_4">
    <g id="ytick_8">
     <g id="line2d_46">
      <defs>
       <path id="m0a27ea52cb" d="M 0 0 
L 3.5 0 
" style="stroke: #000000; stroke-width: 0.8"/>
      </defs>
      <g>
       <use xlink:href="#m0a27ea52cb" x="410.282262" y="312.24351" style="stroke: #000000; stroke-width: 0.8"/>
      </g>
     </g>
     <g id="text_15">
      <!-- -1.36 -->
      <g transform="translate(417.282262 316.042729) scale(0.1 -0.1)">
       <defs>
        <path id="DejaVuSans-2d" d="M 313 2009 
L 1997 2009 
L 1997 1497 
L 313 1497 
L 313 2009 
z
" transform="scale(0.015625)"/>
        <path id="DejaVuSans-36" d="M 2113 2584 
Q 1688 2584 1439 2293 
Q 1191 2003 1191 1497 
Q 1191 994 1439 701 
Q 1688 409 2113 409 
Q 2538 409 2786 701 
Q 3034 994 3034 1497 
Q 3034 2003 2786 2293 
Q 2538 2584 2113 2584 
z
M 3366 4563 
L 3366 3988 
Q 3128 4100 2886 4159 
Q 2644 4219 2406 4219 
Q 1781 4219 1451 3797 
Q 1122 3375 1075 2522 
Q 1259 2794 1537 2939 
Q 1816 3084 2150 3084 
Q 2853 3084 3261 2657 
Q 3669 2231 3669 1497 
Q 3669 778 3244 343 
Q 2819 -91 2113 -91 
Q 1303 -91 875 529 
Q 447 1150 447 2328 
Q 447 3434 972 4092 
Q 1497 4750 2381 4750 
Q 2619 4750 2861 4703 
Q 3103 4656 3366 4563 
z
" transform="scale(0.015625)"/>
       </defs>
       <use xlink:href="#DejaVuSans-2d"/>
       <use xlink:href="#DejaVuSans-31" transform="translate(36.083984 0)"/>
       <use xlink:href="#DejaVuSans-2e" transform="translate(99.707031 0)"/>
       <use xlink:href="#DejaVuSans-33" transform="translate(131.494141 0)"/>
       <use xlink:href="#DejaVuSans-36" transform="translate(195.117188 0)"/>
      </g>
     </g>
    </g>
    <g id="ytick_9">
     <g id="line2d_47">
      <g>
       <use xlink:href="#m0a27ea52cb" x="410.282262" y="275.477867" style="stroke: #000000; stroke-width: 0.8"/>
      </g>
     </g>
     <g id="text_16">
      <!-- -1.20 -->
      <g transform="translate(417.282262 279.277086) scale(0.1 -0.1)">
       <use xlink:href="#DejaVuSans-2d"/>
       <use xlink:href="#DejaVuSans-31" transform="translate(36.083984 0)"/>
       <use xlink:href="#DejaVuSans-2e" transform="translate(99.707031 0)"/>
       <use xlink:href="#DejaVuSans-32" transform="translate(131.494141 0)"/>
       <use xlink:href="#DejaVuSans-30" transform="translate(195.117188 0)"/>
      </g>
     </g>
    </g>
    <g id="ytick_10">
     <g id="line2d_48">
      <g>
       <use xlink:href="#m0a27ea52cb" x="410.282262" y="238.712224" style="stroke: #000000; stroke-width: 0.8"/>
      </g>
     </g>
     <g id="text_17">
      <!-- -1.04 -->
      <g transform="translate(417.282262 242.511442) scale(0.1 -0.1)">
       <use xlink:href="#DejaVuSans-2d"/>
       <use xlink:href="#DejaVuSans-31" transform="translate(36.083984 0)"/>
       <use xlink:href="#DejaVuSans-2e" transform="translate(99.707031 0)"/>
       <use xlink:href="#DejaVuSans-30" transform="translate(131.494141 0)"/>
       <use xlink:href="#DejaVuSans-34" transform="translate(195.117188 0)"/>
      </g>
     </g>
    </g>
    <g id="ytick_11">
     <g id="line2d_49">
      <g>
       <use xlink:href="#m0a27ea52cb" x="410.282262" y="201.946581" style="stroke: #000000; stroke-width: 0.8"/>
      </g>
     </g>
     <g id="text_18">
      <!-- -0.88 -->
      <g transform="translate(417.282262 205.745799) scale(0.1 -0.1)">
       <use xlink:href="#DejaVuSans-2d"/>
       <use xlink:href="#DejaVuSans-30" transform="translate(36.083984 0)"/>
       <use xlink:href="#DejaVuSans-2e" transform="translate(99.707031 0)"/>
       <use xlink:href="#DejaVuSans-38" transform="translate(131.494141 0)"/>
       <use xlink:href="#DejaVuSans-38" transform="translate(195.117188 0)"/>
      </g>
     </g>
    </g>
    <g id="ytick_12">
     <g id="line2d_50">
      <g>
       <use xlink:href="#m0a27ea52cb" x="410.282262" y="165.180937" style="stroke: #000000; stroke-width: 0.8"/>
      </g>
     </g>
     <g id="text_19">
      <!-- -0.72 -->
      <g transform="translate(417.282262 168.980156) scale(0.1 -0.1)">
       <defs>
        <path id="DejaVuSans-37" d="M 525 4666 
L 3525 4666 
L 3525 4397 
L 1831 0 
L 1172 0 
L 2766 4134 
L 525 4134 
L 525 4666 
z
" transform="scale(0.015625)"/>
       </defs>
       <use xlink:href="#DejaVuSans-2d"/>
       <use xlink:href="#DejaVuSans-30" transform="translate(36.083984 0)"/>
       <use xlink:href="#DejaVuSans-2e" transform="translate(99.707031 0)"/>
       <use xlink:href="#DejaVuSans-37" transform="translate(131.494141 0)"/>
       <use xlink:href="#DejaVuSans-32" transform="translate(195.117188 0)"/>
      </g>
     </g>
    </g>
    <g id="ytick_13">
     <g id="line2d_51">
      <g>
       <use xlink:href="#m0a27ea52cb" x="410.282262" y="128.415294" style="stroke: #000000; stroke-width: 0.8"/>
      </g>
     </g>
     <g id="text_20">
      <!-- -0.56 -->
      <g transform="translate(417.282262 132.214513) scale(0.1 -0.1)">
       <use xlink:href="#DejaVuSans-2d"/>
       <use xlink:href="#DejaVuSans-30" transform="translate(36.083984 0)"/>
       <use xlink:href="#DejaVuSans-2e" transform="translate(99.707031 0)"/>
       <use xlink:href="#DejaVuSans-35" transform="translate(131.494141 0)"/>
       <use xlink:href="#DejaVuSans-36" transform="translate(195.117188 0)"/>
      </g>
     </g>
    </g>
    <g id="ytick_14">
     <g id="line2d_52">
      <g>
       <use xlink:href="#m0a27ea52cb" x="410.282262" y="91.649651" style="stroke: #000000; stroke-width: 0.8"/>
      </g>
     </g>
     <g id="text_21">
      <!-- -0.40 -->
      <g transform="translate(417.282262 95.44887) scale(0.1 -0.1)">
       <use xlink:href="#DejaVuSans-2d"/>
       <use xlink:href="#DejaVuSans-30" transform="translate(36.083984 0)"/>
       <use xlink:href="#DejaVuSans-2e" transform="translate(99.707031 0)"/>
       <use xlink:href="#DejaVuSans-34" transform="translate(131.494141 0)"/>
       <use xlink:href="#DejaVuSans-30" transform="translate(195.117188 0)"/>
      </g>
     </g>
    </g>
    <g id="ytick_15">
     <g id="line2d_53">
      <g>
       <use xlink:href="#m0a27ea52cb" x="410.282262" y="54.884008" style="stroke: #000000; stroke-width: 0.8"/>
      </g>
     </g>
     <g id="text_22">
      <!-- -0.24 -->
      <g transform="translate(417.282262 58.683227) scale(0.1 -0.1)">
       <use xlink:href="#DejaVuSans-2d"/>
       <use xlink:href="#DejaVuSans-30" transform="translate(36.083984 0)"/>
       <use xlink:href="#DejaVuSans-2e" transform="translate(99.707031 0)"/>
       <use xlink:href="#DejaVuSans-32" transform="translate(131.494141 0)"/>
       <use xlink:href="#DejaVuSans-34" transform="translate(195.117188 0)"/>
      </g>
     </g>
    </g>
    <g id="ytick_16">
     <g id="line2d_54">
      <g>
       <use xlink:href="#m0a27ea52cb" x="410.282262" y="18.118365" style="stroke: #000000; stroke-width: 0.8"/>
      </g>
     </g>
     <g id="text_23">
      <!-- -0.08 -->
      <g transform="translate(417.282262 21.917584) scale(0.1 -0.1)">
       <use xlink:href="#DejaVuSans-2d"/>
       <use xlink:href="#DejaVuSans-30" transform="translate(36.083984 0)"/>
       <use xlink:href="#DejaVuSans-2e" transform="translate(99.707031 0)"/>
       <use xlink:href="#DejaVuSans-30" transform="translate(131.494141 0)"/>
       <use xlink:href="#DejaVuSans-38" transform="translate(195.117188 0)"/>
      </g>
     </g>
    </g>
    <g id="text_24">
     <!-- Score -->
     <g transform="translate(454.754137 179.183281) rotate(-90) scale(0.1 -0.1)">
      <defs>
       <path id="DejaVuSans-53" d="M 3425 4513 
L 3425 3897 
Q 3066 4069 2747 4153 
Q 2428 4238 2131 4238 
Q 1616 4238 1336 4038 
Q 1056 3838 1056 3469 
Q 1056 3159 1242 3001 
Q 1428 2844 1947 2747 
L 2328 2669 
Q 3034 2534 3370 2195 
Q 3706 1856 3706 1288 
Q 3706 609 3251 259 
Q 2797 -91 1919 -91 
Q 1588 -91 1214 -16 
Q 841 59 441 206 
L 441 856 
Q 825 641 1194 531 
Q 1563 422 1919 422 
Q 2459 422 2753 634 
Q 3047 847 3047 1241 
Q 3047 1584 2836 1778 
Q 2625 1972 2144 2069 
L 1759 2144 
Q 1053 2284 737 2584 
Q 422 2884 422 3419 
Q 422 4038 858 4394 
Q 1294 4750 2059 4750 
Q 2388 4750 2728 4690 
Q 3069 4631 3425 4513 
z
" transform="scale(0.015625)"/>
      </defs>
      <use xlink:href="#DejaVuSans-53"/>
      <use xlink:href="#DejaVuSans-63" transform="translate(63.476562 0)"/>
      <use xlink:href="#DejaVuSans-6f" transform="translate(118.457031 0)"/>
      <use xlink:href="#DejaVuSans-72" transform="translate(179.638672 0)"/>
      <use xlink:href="#DejaVuSans-65" transform="translate(218.501953 0)"/>
     </g>
    </g>
   </g>
   <g id="LineCollection_1"/>
   <g id="patch_8">
    <path d="M 395.576005 312.24351 
L 402.929133 312.24351 
L 410.282262 312.24351 
L 410.282262 18.118365 
L 402.929133 18.118365 
L 395.576005 18.118365 
L 395.576005 312.24351 
z
" style="fill: none; stroke: #000000; stroke-width: 0.8; stroke-linejoin: miter; stroke-linecap: square"/>
   </g>
  </g>
 </g>
 <defs>
  <clipPath id="pcdd9c1d8d8">
   <rect x="39.58149" y="18.118365" width="339.042395" height="294.125145"/>
  </clipPath>
  <clipPath id="pbdd60e4c41">
   <rect x="395.576005" y="18.118365" width="14.706257" height="294.125145"/>
  </clipPath>
 </defs>
</svg>
