<?xml version="1.0" encoding="utf-8" standalone="no"?>
<!DOCTYPE svg PUBLIC "-//W3C//DTD SVG 1.1//EN"
  "http://www.w3.org/Graphics/SVG/1.1/DTD/svg11.dtd">
<svg xmlns:xlink="http://www.w3.org/1999/xlink" width="460.8pt" height="345.6pt" viewBox="0 0 460.8 345.6" xmlns="http://www.w3.org/2000/svg" version="1.1">
 <metadata>
  <rdf:RDF xmlns:dc="http://purl.org/dc/elements/1.1/" xmlns:cc="http://creativecommons.org/ns#" xmlns:rdf="http://www.w3.org/1999/02/22-rdf-syntax-ns#">
   <cc:Work>
    <dc:type rdf:resource="http://purl.org/dc/dcmitype/StillImage"/>
    <dc:date>2025-11-23T18:47:19.210867</dc:date>
    <dc:format>image/svg+xml</dc:format>
    <dc:creator>
     <cc:Agent>
      <dc:title>Matplotlib v3.10.7, https://matplotlib.org/</dc:title>
     </cc:Agent>
    </dc:creator>
   </cc:Work>
  </rdf:RDF>
 </metadata>
 <defs>
  <style type="text/css">*{stroke-linejoin: round; stroke-linecap: butt}</style>
 </defs>
 <g id="figure_1">
  <g id="patch_1">
   <path d="M 0 345.6 
L 460.8 345.6 
L 460.8 0 
L 0 0 
z
" style="fill: #ffffff"/>
  </g>
  <g id="axes_1">
   <g id="patch_2">
    <path d="M 39.58149 312.24351 
L 374.090604 312.24351 
L 374.090604 18.118365 
L 39.58149 18.118365 
z
" style="fill: #ffffff"/>
   </g>
   <g id="QuadContourSet_1">
    <path d="M 39.58149 265.891469 
L 44.249376 263.222652 
L 39.58149 257.728329 
L 38.700197 263.222652 
z
M -71.921548 189.7634 
L -66.201025 189.691366 
L -71.921548 188.842261 
L -72.051524 189.691366 
z
M -127.673067 140.67094 
L -127.641195 140.670509 
L -127.673067 140.66548 
L -127.67372 140.670509 
z
M -183.424586 91.652146 
L -183.363248 91.649651 
L -183.424586 91.635421 
L -183.426211 91.649651 
z
M -239.176105 42.680526 
L -238.842209 42.628794 
L -239.176105 42.551204 
L -239.187635 42.628794 
z
" clip-path="url(#pbacc817667)" style="fill: #470d60"/>
    <path d="M 95.333009 312.24351 
L 110.832571 312.24351 
L 95.333009 297.088926 
L 91.462649 312.24351 
z
M 39.58149 278.904532 
L 64.254123 263.222652 
L 44.884761 238.712224 
L 39.58149 234.808925 
L -16.170029 214.898075 
L -20.226031 238.712224 
L -16.170029 240.863158 
L 34.28427 263.222652 
z
M 38.700197 263.222652 
L 39.58149 257.728329 
L 44.249376 263.222652 
L 39.58149 265.891469 
z
M -71.921548 192.244879 
L -16.170029 213.32223 
L -4.378701 189.691366 
L -16.170029 181.576274 
L -62.880515 165.180938 
L -59.869499 140.670509 
L -71.921548 132.121988 
L -114.804679 116.16008 
L -117.214766 91.649651 
L -127.673067 83.782106 
L -167.079551 67.139223 
L -175.357055 42.628794 
L -183.424586 35.656494 
L -229.609182 18.118365 
L -239.176105 18.118365 
L -254.787289 18.118365 
L -243.57637 42.628794 
L -239.176105 61.930688 
L -210.953699 67.139223 
L -187.84195 91.649651 
L -183.424586 98.27717 
L -131.596099 116.16008 
L -132.129746 140.670509 
L -127.673067 143.547772 
L -72.977698 165.180938 
L -76.639027 189.691366 
z
M -72.051524 189.691366 
L -71.921548 188.842261 
L -66.201025 189.691366 
L -71.921548 189.7634 
z
M -127.67372 140.670509 
L -127.673067 140.66548 
L -127.641195 140.670509 
L -127.673067 140.67094 
z
M -183.426211 91.649651 
L -183.424586 91.635421 
L -183.363248 91.649651 
L -183.424586 91.652146 
z
M -239.187635 42.628794 
L -239.176105 42.551204 
L -238.842209 42.628794 
L -239.176105 42.680526 
z
" clip-path="url(#pbacc817667)" style="fill: #482374"/>
    <path d="M 39.58149 288.783959 
L 86.422468 312.24351 
L 91.462649 312.24351 
L 95.333009 297.088926 
L 110.832571 312.24351 
L 127.185222 312.24351 
L 104.549755 287.733081 
L 95.333009 279.670794 
L 80.825835 263.222652 
L 61.21207 238.712224 
L 39.58149 221.35775 
L 23.333366 214.201795 
L 11.180978 189.691366 
L -16.170029 169.238023 
L -25.803905 165.180938 
L -43.737334 140.670509 
L -71.921548 118.880521 
L -78.01445 116.16008 
L -100.342561 91.649651 
L -127.673067 69.154762 
L -131.675387 67.139223 
L -157.595078 42.628794 
L -183.402139 18.118365 
L -183.424586 18.118365 
L -229.609182 18.118365 
L -183.424586 35.656494 
L -175.357055 42.628794 
L -167.079551 67.139223 
L -127.673067 83.782106 
L -117.214766 91.649651 
L -114.804679 116.16008 
L -71.921548 132.121988 
L -59.869499 140.670509 
L -62.880515 165.180938 
L -16.170029 181.576274 
L -4.378701 189.691366 
L -16.170029 213.32223 
L -71.921548 192.244879 
L -76.639027 189.691366 
L -72.977698 165.180938 
L -127.673067 143.547772 
L -132.129746 140.670509 
L -131.596099 116.16008 
L -183.424586 98.27717 
L -187.84195 91.649651 
L -210.953699 67.139223 
L -239.176105 61.930688 
L -243.57637 42.628794 
L -254.787289 18.118365 
L -294.927624 18.118365 
L -298.520028 18.118365 
L -294.927624 20.123288 
L -248.173458 42.628794 
L -242.953093 67.139223 
L -239.176105 69.230566 
L -192.468677 91.649651 
L -183.424586 104.902195 
L -147.738722 116.16008 
L -136.800721 140.670509 
L -127.673067 146.424605 
L -78.700883 165.180937 
L -81.454677 189.691366 
L -71.921548 194.726358 
L -20.973329 214.201795 
L -25.303875 238.712224 
L -16.170029 243.432059 
L 29.657338 263.222652 
L 38.119067 287.733081 
z
M 34.28427 263.222652 
L -16.170029 240.863158 
L -20.226031 238.712224 
L -16.170029 214.898075 
L 39.58149 234.808925 
L 44.884761 238.712224 
L 64.254123 263.222652 
L 39.58149 278.904532 
z
" clip-path="url(#pbacc817667)" style="fill: #453581"/>
    <path d="M 39.58149 292.051994 
L 81.105521 312.24351 
L 86.422468 312.24351 
L 39.58149 288.783959 
L 38.119067 287.733081 
L 29.657338 263.222652 
L -16.170029 243.432059 
L -25.303875 238.712224 
L -20.973329 214.201795 
L -71.921548 194.726358 
L -81.454677 189.691366 
L -78.700883 165.180938 
L -127.673067 146.424605 
L -136.800721 140.670509 
L -147.738722 116.16008 
L -183.424586 104.902195 
L -192.468677 91.649651 
L -239.176105 69.230566 
L -242.953093 67.139223 
L -248.173458 42.628794 
L -294.927624 20.123288 
L -298.520028 18.118365 
L -303.881062 18.118365 
L -294.927624 22.980335 
L -252.999672 42.628794 
L -248.38279 67.139223 
L -239.176105 72.097663 
L -197.327568 91.649651 
L -183.424586 111.52722 
L -167.120874 116.16008 
L -141.708438 140.670509 
L -127.673067 149.301437 
L -84.783627 165.180938 
L -86.52236 189.691366 
L -71.921548 197.207837 
L -26.157625 214.201795 
L -30.662752 238.712224 
L -16.170029 246.000961 
L 24.79822 263.222652 
L 33.424743 287.733081 
z
M 120.599906 287.733081 
L 95.333009 263.66256 
L 94.972002 263.222652 
L 75.179872 238.712224 
L 47.708809 214.201795 
L 39.58149 207.699061 
L 24.583463 189.691366 
L -4.823369 165.180938 
L -16.170029 156.128291 
L -29.91251 140.670509 
L -58.555064 116.16008 
L -71.921548 106.057634 
L -85.978158 91.649651 
L -113.169469 67.139222 
L -127.673067 56.690652 
L -142.591264 42.628794 
L -166.797839 18.118365 
L -183.402139 18.118365 
L -157.595078 42.628794 
L -131.675387 67.139223 
L -127.673067 69.154762 
L -100.342561 91.649651 
L -78.01445 116.16008 
L -71.921548 118.880521 
L -43.737334 140.670509 
L -25.803905 165.180938 
L -16.170029 169.238023 
L 11.180978 189.691366 
L 23.333366 214.201795 
L 39.58149 221.35775 
L 61.21207 238.712224 
L 80.825835 263.222652 
L 95.333009 279.670794 
L 104.549755 287.733081 
L 127.185222 312.24351 
L 141.171554 312.24351 
z
" clip-path="url(#pbacc817667)" style="fill: #3f4889"/>
    <path d="M 39.58149 295.320029 
L 75.47964 312.24351 
L 81.105521 312.24351 
L 39.58149 292.051994 
L 33.424743 287.733081 
L 24.79822 263.222652 
L -16.170029 246.000961 
L -30.662752 238.712224 
L -26.157625 214.201795 
L -71.921548 197.207837 
L -86.52236 189.691366 
L -84.783627 165.180938 
L -127.673067 149.301437 
L -141.708438 140.670509 
L -167.120874 116.16008 
L -183.424586 111.52722 
L -197.327568 91.649651 
L -239.176105 72.097663 
L -248.38279 67.139223 
L -252.999672 42.628794 
L -294.927624 22.980335 
L -303.881062 18.118365 
L -309.55633 18.118365 
L -294.927624 25.837382 
L -258.079055 42.628794 
L -254.135063 67.139222 
L -239.176105 74.96476 
L -202.44316 91.649651 
L -185.680618 116.16008 
L -183.424586 117.381653 
L -146.878181 140.670509 
L -127.673067 152.178269 
L -91.274156 165.180938 
L -91.869921 189.691366 
L -71.921548 199.689316 
L -31.635203 214.201795 
L -36.335601 238.712224 
L -16.170029 248.569862 
L 19.682377 263.222652 
L 28.491244 287.733081 
z
M 151.084528 312.24351 
L 154.537896 312.24351 
L 151.084528 309.241579 
L 134.364492 287.733081 
L 111.412952 263.222652 
L 95.333009 249.158596 
L 87.384804 238.712224 
L 63.079182 214.201795 
L 39.58149 193.804483 
L 36.354716 189.691366 
L 9.944148 165.180938 
L -16.170029 142.640599 
L -17.816839 140.670509 
L -43.993328 116.16008 
L -71.921548 93.342981 
L -73.47163 91.649651 
L -98.685974 67.139223 
L -127.673067 44.572257 
L -129.60304 42.628794 
L -152.627948 18.118365 
L -166.797839 18.118365 
L -142.591264 42.628794 
L -127.673067 56.690652 
L -113.169469 67.139223 
L -85.978158 91.649651 
L -71.921548 106.057634 
L -58.555064 116.16008 
L -29.91251 140.670509 
L -16.170029 156.128291 
L -4.823369 165.180938 
L 24.583463 189.691366 
L 39.58149 207.699061 
L 47.708809 214.201795 
L 75.179872 238.712224 
L 94.972002 263.222652 
L 95.333009 263.66256 
L 120.599906 287.733081 
L 141.171554 312.24351 
z
" clip-path="url(#pbacc817667)" style="fill: #375b8d"/>
    <path d="M -517.933699 312.24351 
L -462.18218 312.24351 
L -406.430661 312.24351 
L -350.679143 312.24351 
L -294.927624 312.24351 
L -239.176105 312.24351 
L -183.424586 312.24351 
L -148.247846 312.24351 
L -183.424586 303.683024 
L -238.667621 287.733081 
L -239.176105 287.628087 
L -294.927624 266.089593 
L -303.204164 263.222652 
L -350.679143 253.735355 
L -405.688391 238.712224 
L -406.430661 238.546444 
L -462.18218 218.024382 
L -484.372723 214.201795 
L -517.933699 208.984728 
L -572.481901 189.691366 
L -573.685218 189.481379 
L -573.685218 189.691366 
L -573.685218 214.201795 
L -573.685218 238.712224 
L -573.685218 263.222652 
L -573.685218 287.733081 
L -573.685218 312.24351 
z
M 39.58149 298.588064 
L 69.506696 312.24351 
L 75.47964 312.24351 
L 39.58149 295.320029 
L 28.491244 287.733081 
L 19.682377 263.222652 
L -16.170029 248.569862 
L -36.335601 238.712224 
L -31.635203 214.201795 
L -71.921548 199.689316 
L -91.869921 189.691366 
L -91.274156 165.180938 
L -127.673067 152.178269 
L -146.878181 140.670509 
L -183.424586 117.381653 
L -185.680618 116.16008 
L -202.44316 91.649651 
L -239.176105 74.96476 
L -254.135063 67.139223 
L -258.079055 42.628794 
L -294.927624 25.837382 
L -309.55633 18.118365 
L -315.584973 18.118365 
L -294.927624 28.694428 
L -263.439646 42.628794 
L -260.250678 67.139223 
L -239.176105 77.831857 
L -207.844098 91.649651 
L -193.585181 116.16008 
L -183.424586 121.444045 
L -152.339516 140.670509 
L -127.673067 155.055102 
L -98.231098 165.180938 
L -97.530091 189.691366 
L -71.921548 202.170795 
L -37.441248 214.201795 
L -42.361516 238.712224 
L -16.170029 251.138764 
L 14.281159 263.222652 
L 23.292883 287.733081 
z
M 151.084528 309.241579 
L 154.537896 312.24351 
L 170.276633 312.24351 
L 151.084528 294.119448 
L 146.414044 287.733081 
L 125.561853 263.222652 
L 100.268436 238.712224 
L 95.333009 235.258854 
L 76.34105 214.201795 
L 51.410017 189.691366 
L 39.58149 181.972478 
L 22.755008 165.180938 
L -1.582864 140.670509 
L -16.170029 131.318089 
L -31.337544 116.16008 
L -56.238452 91.649651 
L -71.921548 81.806367 
L -86.089304 67.139223 
L -111.540675 42.628794 
L -127.673067 32.333738 
L -140.269065 18.118365 
L -152.627948 18.118365 
L -129.60304 42.628794 
L -127.673067 44.572257 
L -98.685974 67.139223 
L -73.47163 91.649651 
L -71.921548 93.342981 
L -43.993328 116.16008 
L -17.816839 140.670509 
L -16.170029 142.640599 
L 9.944148 165.180938 
L 36.354716 189.691366 
L 39.58149 193.804483 
L 63.079182 214.201795 
L 87.384804 238.712224 
L 95.333009 249.158596 
L 111.412952 263.222652 
L 134.364492 287.733081 
z
M 541.34516 312.24351 
L 597.096679 312.24351 
L 652.848198 312.24351 
L 708.599717 312.24351 
L 764.351236 312.24351 
L 820.102755 312.24351 
L 875.854274 312.24351 
L 931.605793 312.24351 
L 987.357312 312.24351 
L 1043.108831 312.24351 
L 1098.86035 312.24351 
L 1154.611869 312.24351 
L 1210.363388 312.24351 
L 1266.114907 312.24351 
L 1321.866426 312.24351 
L 1377.617944 312.24351 
L 1433.369463 312.24351 
L 1489.120982 312.24351 
L 1544.872501 312.24351 
L 1600.62402 312.24351 
L 1656.375539 312.24351 
L 1712.127058 312.24351 
L 1767.878577 312.24351 
L 1823.630096 312.24351 
L 1879.381615 312.24351 
L 1879.381615 287.733081 
L 1879.381615 263.222652 
L 1879.381615 238.712224 
L 1879.381615 214.201795 
L 1879.381615 189.691366 
L 1879.381615 165.180938 
L 1879.381615 140.670509 
L 1879.381615 116.16008 
L 1879.381615 91.649651 
L 1879.381615 67.139223 
L 1879.381615 42.628794 
L 1879.381615 18.118365 
L 1823.630096 18.118365 
L 1767.878577 18.118365 
L 1712.127058 18.118365 
L 1656.375539 18.118365 
L 1600.62402 18.118365 
L 1544.872501 18.118365 
L 1489.120982 18.118365 
L 1433.369463 18.118365 
L 1377.617944 18.118365 
L 1321.866426 18.118365 
L 1266.114907 18.118365 
L 1210.363388 18.118365 
L 1154.611869 18.118365 
L 1098.86035 18.118365 
L 1043.108831 18.118365 
L 987.357312 18.118365 
L 931.605793 18.118365 
L 875.854274 18.118365 
L 820.102755 18.118365 
L 764.351236 18.118365 
L 708.599717 18.118365 
L 652.848198 18.118365 
L 597.096679 18.118365 
L 541.34516 18.118365 
L 485.593641 18.118365 
L 429.842123 18.118365 
L 423.48204 18.118365 
L 429.842123 35.438549 
L 440.254033 42.628794 
L 462.461547 67.139223 
L 474.551674 91.649651 
L 483.001105 116.16008 
L 485.593641 124.592113 
L 504.761219 140.670509 
L 520.158968 165.180938 
L 529.476974 189.691366 
L 535.646215 214.201795 
L 539.682237 238.712224 
L 541.34516 254.227302 
L 547.650813 263.222652 
L 550.881567 287.733081 
L 541.34516 293.857113 
L 538.144859 312.24351 
z
" clip-path="url(#pbacc817667)" style="fill: #2f6b8e"/>
    <path d="M -183.424586 303.683024 
L -148.247846 312.24351 
L -127.673067 312.24351 
L -93.955695 312.24351 
L -127.673067 300.100322 
L -159.129091 287.733081 
L -183.424586 280.30576 
L -230.806874 263.222652 
L -239.176105 260.633703 
L -294.927624 238.895539 
L -295.404323 238.712224 
L -350.679143 220.326706 
L -365.049833 214.201795 
L -406.430661 202.845386 
L -438.949694 189.691366 
L -462.18218 182.447279 
L -505.915505 165.180938 
L -517.933699 161.020126 
L -568.538446 140.670509 
L -573.685218 139.188735 
L -573.685218 140.670509 
L -573.685218 165.180938 
L -573.685218 189.481379 
L -572.481901 189.691366 
L -517.933699 208.984728 
L -484.372723 214.201795 
L -462.18218 218.024382 
L -406.430661 238.546444 
L -405.688391 238.712224 
L -350.679143 253.735355 
L -303.204164 263.222652 
L -294.927624 266.089593 
L -239.176105 287.628087 
L -238.667621 287.733081 
z
M 39.58149 301.856099 
L 63.141037 312.24351 
L 69.506696 312.24351 
L 39.58149 298.588064 
L 23.292883 287.733081 
L 14.281159 263.222652 
L -16.170029 251.138764 
L -42.361516 238.712224 
L -37.441248 214.201795 
L -71.921548 202.170795 
L -97.530091 189.691366 
L -98.231098 165.180938 
L -127.673067 155.055102 
L -152.339516 140.670509 
L -183.424586 121.444045 
L -193.585181 116.16008 
L -207.844098 91.649651 
L -239.176105 77.831857 
L -260.250678 67.139223 
L -263.439646 42.628794 
L -294.927624 28.694428 
L -315.584973 18.118365 
L -322.013938 18.118365 
L -294.927624 31.551475 
L -269.114417 42.628794 
L -266.778648 67.139223 
L -239.176105 80.698954 
L -213.564104 91.649651 
L -202.19268 116.16008 
L -183.424586 125.506437 
L -158.127314 140.670509 
L -127.673067 157.931934 
L -105.726715 165.180938 
L -103.5417 189.691366 
L -71.921548 204.652274 
L -43.617679 214.201795 
L -48.787378 238.712224 
L -16.170029 253.707665 
L 8.560838 263.222652 
L 17.799599 287.733081 
z
M 151.084528 294.119448 
L 170.276633 312.24351 
L 183.811681 312.24351 
L 161.279102 287.733081 
L 151.084528 279.84926 
L 137.904773 263.222652 
L 116.212021 238.712224 
L 95.333009 222.820575 
L 88.003734 214.201795 
L 66.060746 189.691366 
L 39.58149 171.007787 
L 34.067573 165.180938 
L 13.103271 140.670509 
L -16.170029 120.365933 
L -20.146037 116.16008 
L -40.828362 91.649651 
L -71.921548 70.450747 
L -74.944034 67.139223 
L -95.285598 42.628794 
L -127.673067 20.072274 
L -129.310294 18.118365 
L -140.269065 18.118365 
L -127.673067 32.333738 
L -111.540675 42.628794 
L -86.089304 67.139223 
L -71.921548 81.806367 
L -56.238452 91.649651 
L -31.337544 116.16008 
L -16.170029 131.318089 
L -1.582864 140.670509 
L 22.755008 165.180938 
L 39.58149 181.972478 
L 51.410017 189.691366 
L 76.34105 214.201795 
L 95.333009 235.258854 
L 100.268436 238.712224 
L 125.561853 263.222652 
L 146.414044 287.733081 
z
M 541.34516 293.857113 
L 550.881567 287.733081 
L 547.650813 263.222652 
L 541.34516 254.227302 
L 539.682237 238.712224 
L 535.646215 214.201795 
L 529.476974 189.691366 
L 520.158968 165.180938 
L 504.761219 140.670509 
L 485.593641 124.592113 
L 483.001105 116.16008 
L 474.551674 91.649651 
L 462.461547 67.139223 
L 440.254033 42.628794 
L 429.842123 35.438549 
L 423.48204 18.118365 
L 379.645169 18.118365 
L 399.887897 42.628794 
L 414.050237 67.139223 
L 424.872843 91.649651 
L 429.842123 104.780654 
L 440.858845 116.16008 
L 458.435796 140.670509 
L 470.597479 165.180938 
L 479.4176 189.691366 
L 485.593641 212.733062 
L 486.825137 214.201795 
L 503.269666 238.712224 
L 512.68488 263.222652 
L 516.082614 287.733081 
L 511.634901 312.24351 
L 538.144859 312.24351 
z
" clip-path="url(#pbacc817667)" style="fill: #29798e"/>
    <path d="M -127.673067 300.100322 
L -93.955695 312.24351 
L -71.921548 312.24351 
L -64.487915 312.24351 
L -71.921548 309.535971 
L -122.212572 287.733081 
L -127.673067 285.848648 
L -183.424586 263.980898 
L -185.10224 263.222652 
L -239.176105 241.774463 
L -245.324908 238.712224 
L -294.927624 221.146823 
L -310.122076 214.201795 
L -350.679143 199.613896 
L -376.352898 189.691366 
L -406.430661 179.655577 
L -440.338007 165.180938 
L -462.18218 157.643735 
L -497.15254 140.670509 
L -517.933699 133.330978 
L -558.570368 116.16008 
L -573.685218 110.84141 
L -573.685218 116.16008 
L -573.685218 139.188735 
L -568.538446 140.670509 
L -517.933699 161.020126 
L -505.915505 165.180938 
L -462.18218 182.447279 
L -438.949694 189.691366 
L -406.430661 202.845386 
L -365.049833 214.201795 
L -350.679143 220.326706 
L -295.404323 238.712224 
L -294.927624 238.895539 
L -239.176105 260.633703 
L -230.806874 263.222652 
L -183.424586 280.30576 
L -159.129091 287.733081 
z
M 39.58149 305.124134 
L 56.327365 312.24351 
L 63.141037 312.24351 
L 39.58149 301.856099 
L 17.799599 287.733081 
L 8.560838 263.222652 
L -16.170029 253.707665 
L -48.787378 238.712224 
L -43.617679 214.201795 
L -71.921548 204.652274 
L -103.5417 189.691366 
L -105.726715 165.180938 
L -127.673067 157.931934 
L -158.127314 140.670509 
L -183.424586 125.506437 
L -202.19268 116.16008 
L -213.564104 91.649651 
L -239.176105 80.698954 
L -266.778648 67.139223 
L -269.114417 42.628794 
L -294.927624 31.551475 
L -322.013938 18.118365 
L -328.900195 18.118365 
L -294.927624 34.408522 
L -275.142499 42.628794 
L -273.778627 67.139223 
L -239.176105 83.56605 
L -219.643257 91.649651 
L -211.64045 116.16008 
L -183.424586 129.568828 
L -164.283099 140.670509 
L -127.673067 160.808766 
L -113.851479 165.180938 
L -109.951296 189.691366 
L -71.921548 207.133753 
L -50.214993 214.201795 
L -55.670075 238.712224 
L -16.170029 256.276566 
L 2.48133 263.222652 
L 11.975905 287.733081 
z
M 176.728947 287.733081 
L 151.084528 266.201894 
L 148.850995 263.222652 
L 129.898203 238.712224 
L 102.074687 214.201795 
L 95.333009 210.068091 
L 78.783665 189.691366 
L 50.389353 165.180937 
L 39.58149 158.437839 
L 25.85287 140.670509 
L -2.078648 116.16008 
L -16.170029 106.647094 
L -27.536952 91.649651 
L -55.506378 67.139223 
L -71.921548 55.361037 
L -81.370661 42.628794 
L -108.322305 18.118365 
L -127.673067 18.118365 
L -129.310294 18.118365 
L -127.673067 20.072274 
L -95.285598 42.628794 
L -74.944034 67.139223 
L -71.921548 70.450747 
L -40.828362 91.649651 
L -20.146037 116.16008 
L -16.170029 120.365933 
L 13.103271 140.670509 
L 34.067573 165.180938 
L 39.58149 171.007787 
L 66.060746 189.691366 
L 88.003734 214.201795 
L 95.333009 222.820575 
L 116.212021 238.712224 
L 137.904773 263.222652 
L 151.084528 279.84926 
L 161.279102 287.733081 
L 183.811681 312.24351 
L 195.685031 312.24351 
z
M 485.593641 312.24351 
L 511.634901 312.24351 
L 516.082614 287.733081 
L 512.68488 263.222652 
L 503.269666 238.712224 
L 486.825137 214.201795 
L 485.593641 212.733062 
L 479.4176 189.691366 
L 470.597479 165.180938 
L 458.435796 140.670509 
L 440.858845 116.16008 
L 429.842123 104.780654 
L 424.872843 91.649651 
L 414.050237 67.139223 
L 399.887897 42.628794 
L 379.645169 18.118365 
L 374.090604 18.118365 
L 353.881101 18.118365 
L 366.170751 42.628794 
L 374.090604 60.513382 
L 380.335206 67.139223 
L 399.391381 91.649651 
L 413.324058 116.16008 
L 424.147935 140.670509 
L 429.842123 155.358114 
L 438.511954 165.180938 
L 455.634074 189.691366 
L 467.402741 214.201795 
L 475.788058 238.712224 
L 481.479952 263.222652 
L 484.084299 287.733081 
L 483.239774 312.24351 
z
" clip-path="url(#pbacc817667)" style="fill: #23888e"/>
    <path d="M -71.921548 309.535971 
L -64.487915 312.24351 
L -44.846051 312.24351 
L -71.921548 301.296497 
L -100.038893 287.733081 
L -127.673067 277.004915 
L -158.35506 263.222652 
L -183.424586 253.474315 
L -214.835595 238.712224 
L -239.176105 228.83751 
L -272.875983 214.201795 
L -294.927624 206.022942 
L -331.839483 189.691366 
L -350.679143 182.928751 
L -391.925071 165.180938 
L -406.430661 159.993616 
L -449.478302 140.670509 
L -462.18218 136.0735 
L -505.877428 116.16008 
L -517.933699 111.894498 
L -561.387012 91.649651 
L -573.685218 87.385608 
L -573.685218 91.649651 
L -573.685218 110.84141 
L -558.570368 116.16008 
L -517.933699 133.330978 
L -497.15254 140.670509 
L -462.18218 157.643735 
L -440.338007 165.180938 
L -406.430661 179.655577 
L -376.352898 189.691366 
L -350.679143 199.613896 
L -310.122076 214.201795 
L -294.927624 221.146823 
L -245.324908 238.712224 
L -239.176105 241.774463 
L -185.10224 263.222652 
L -183.424586 263.980898 
L -127.673067 285.848648 
L -122.212572 287.733081 
z
M 39.58149 308.392169 
L 48.997811 312.24351 
L 56.327365 312.24351 
L 39.58149 305.124134 
L 11.975905 287.733081 
L 2.48133 263.222652 
L -16.170029 256.276566 
L -55.670075 238.712224 
L -50.214993 214.201795 
L -71.921548 207.133753 
L -109.951296 189.691366 
L -113.851479 165.180938 
L -127.673067 160.808766 
L -164.283099 140.670509 
L -183.424586 129.568828 
L -211.64045 116.16008 
L -219.643257 91.649651 
L -239.176105 83.56605 
L -273.778627 67.139223 
L -275.142499 42.628794 
L -294.927624 34.408522 
L -328.900195 18.118365 
L -336.313815 18.118365 
L -294.927624 37.265568 
L -281.570826 42.628794 
L -281.32423 67.139223 
L -239.176105 86.433147 
L -226.129698 91.649651 
L -222.110471 116.16008 
L -183.424586 133.63122 
L -170.856861 140.670509 
L -127.673067 163.685598 
L -122.720762 165.180938 
L -116.815335 189.691366 
L -71.921548 209.615232 
L -57.294773 214.201795 
L -63.079569 238.712224 
L -16.170029 258.845468 
L -4.005515 263.222652 
L 5.779497 287.733081 
z
M 190.049906 287.733081 
L 164.462737 263.222652 
L 151.084528 251.52 
L 141.887651 238.712224 
L 121.251994 214.201795 
L 95.333009 196.606596 
L 90.027624 189.691366 
L 70.071496 165.180938 
L 39.58149 144.04736 
L 37.117654 140.670509 
L 17.16615 116.16008 
L -15.212221 91.649651 
L -16.170029 91.107146 
L -36.240744 67.139223 
L -64.22411 42.628794 
L -71.921548 38.381952 
L -89.426478 18.118365 
L -108.322305 18.118365 
L -81.370661 42.628794 
L -71.921548 55.361037 
L -55.506378 67.139223 
L -27.536952 91.649651 
L -16.170029 106.647094 
L -2.078648 116.16008 
L 25.85287 140.670509 
L 39.58149 158.437839 
L 50.389353 165.180938 
L 78.783665 189.691366 
L 95.333009 210.068091 
L 102.074687 214.201795 
L 129.898203 238.712224 
L 148.850995 263.222652 
L 151.084528 266.201894 
L 176.728947 287.733081 
L 195.685031 312.24351 
L 206.260444 312.24351 
z
M 484.084299 287.733081 
L 481.479952 263.222652 
L 475.788058 238.712224 
L 467.402741 214.201795 
L 455.634074 189.691366 
L 438.511954 165.180938 
L 429.842123 155.358114 
L 424.147935 140.670509 
L 413.324058 116.16008 
L 399.391381 91.649651 
L 380.335206 67.139223 
L 374.090604 60.513382 
L 366.170751 42.628794 
L 353.881101 18.118365 
L 325.102233 18.118365 
L 343.277781 42.628794 
L 357.778266 67.139223 
L 370.0325 91.649651 
L 374.090604 100.235616 
L 387.803515 116.16008 
L 404.244761 140.670509 
L 416.961172 165.180938 
L 427.533239 189.691366 
L 429.842123 195.411228 
L 444.489147 214.201795 
L 457.983416 238.712224 
L 467.083849 263.222652 
L 472.212048 287.733081 
L 473.256171 312.24351 
L 483.239774 312.24351 
z
" clip-path="url(#pbacc817667)" style="fill: #1f988b"/>
    <path d="M -71.921548 301.296497 
L -44.846051 312.24351 
L -28.523869 312.24351 
L -71.921548 293.057024 
L -82.008026 287.733081 
L -127.673067 268.161183 
L -137.586421 263.222652 
L -183.424586 243.251139 
L -192.045369 238.712224 
L -239.176105 217.048588 
L -244.876688 214.201795 
L -294.927624 192.558419 
L -300.471449 189.691366 
L -350.679143 168.296498 
L -356.762458 165.180938 
L -406.430661 143.669628 
L -411.980788 140.670509 
L -462.18218 118.392963 
L -466.208031 116.16008 
L -517.933699 93.446644 
L -521.092544 91.649651 
L -573.685218 68.936352 
L -573.685218 87.385608 
L -561.387012 91.649651 
L -517.933699 111.894498 
L -505.877428 116.16008 
L -462.18218 136.0735 
L -449.478302 140.670509 
L -406.430661 159.993616 
L -391.925071 165.180938 
L -350.679143 182.928751 
L -331.839483 189.691366 
L -294.927624 206.022942 
L -272.875983 214.201795 
L -239.176105 228.83751 
L -214.835595 238.712224 
L -183.424586 253.474315 
L -158.35506 263.222652 
L -127.673067 277.004915 
L -100.038893 287.733081 
z
M 39.58149 311.660204 
L 41.06781 312.24351 
L 48.997811 312.24351 
L 39.58149 308.392169 
L 5.779497 287.733081 
L -4.005515 263.222652 
L -16.170029 258.845468 
L -63.079569 238.712224 
L -57.294773 214.201795 
L -71.921548 209.615232 
L -116.815335 189.691366 
L -122.720762 165.180938 
L -127.673067 163.685598 
L -170.856861 140.670509 
L -183.424586 133.63122 
L -222.110471 116.16008 
L -226.129698 91.649651 
L -239.176105 86.433147 
L -281.32423 67.139223 
L -281.570826 42.628794 
L -294.927624 37.265568 
L -336.313815 18.118365 
L -344.34232 18.118365 
L -294.927624 40.122615 
L -288.456352 42.628794 
L -289.507761 67.139223 
L -239.176105 89.300244 
L -233.081944 91.649651 
L -233.851101 116.16008 
L -183.424586 137.693612 
L -177.909524 140.670509 
L -171.480894 165.180938 
L -127.673067 177.916582 
L -124.203208 189.691366 
L -71.921548 212.096711 
L -64.93319 214.201795 
L -71.103234 238.712224 
L -16.170029 261.414369 
L -10.958226 263.222652 
L -0.840615 287.733081 
z
M 206.836047 312.24351 
L 220.585141 312.24351 
L 206.836047 295.920892 
L 201.758247 287.733081 
L 179.257732 263.222652 
L 153.855876 238.712224 
L 151.084528 235.6398 
L 137.252415 214.201795 
L 106.920544 189.691366 
L 95.333009 178.921758 
L 86.421453 165.180938 
L 60.952022 140.670509 
L 39.58149 125.172752 
L 33.213479 116.16008 
L 13.174979 91.649651 
L -16.170029 72.331533 
L -20.178945 67.139223 
L -36.883928 42.628794 
L -71.921548 20.251624 
L -73.622291 18.118365 
L -89.426478 18.118365 
L -71.921548 38.381952 
L -64.22411 42.628794 
L -36.240744 67.139222 
L -16.170029 91.107146 
L -15.212221 91.649651 
L 17.16615 116.16008 
L 37.117654 140.670509 
L 39.58149 144.04736 
L 70.071496 165.180938 
L 90.027624 189.691366 
L 95.333009 196.606596 
L 121.251994 214.201795 
L 141.887651 238.712224 
L 151.084528 251.52 
L 164.462737 263.222652 
L 190.049906 287.733081 
L 206.260444 312.24351 
z
M 472.212048 287.733081 
L 467.083849 263.222652 
L 457.983416 238.712224 
L 444.489147 214.201795 
L 429.842123 195.411228 
L 427.533239 189.691366 
L 416.961172 165.180938 
L 404.244761 140.670509 
L 387.803515 116.16008 
L 374.090604 100.235616 
L 370.0325 91.649651 
L 357.778266 67.139223 
L 343.277781 42.628794 
L 325.102233 18.118365 
L 318.339085 18.118365 
L 301.930631 18.118365 
L 315.528853 42.628794 
L 318.339085 47.843237 
L 334.234144 67.139223 
L 350.66627 91.649651 
L 364.489244 116.16008 
L 374.090604 134.91021 
L 379.164607 140.670509 
L 397.515689 165.180938 
L 411.710036 189.691366 
L 423.269306 214.201795 
L 429.842123 230.263387 
L 436.151362 238.712224 
L 450.167861 263.222652 
L 458.678429 287.733081 
L 462.123888 312.24351 
L 473.256171 312.24351 
z
" clip-path="url(#pbacc817667)" style="fill: #22a785"/>
    <path d="M -71.921548 293.057024 
L -28.523869 312.24351 
L -16.170029 312.24351 
L 39.58149 312.24351 
L 41.06781 312.24351 
L 39.58149 311.660204 
L -0.840615 287.733081 
L -10.958226 263.222652 
L -16.170029 261.414369 
L -71.103234 238.712224 
L -64.93319 214.201795 
L -71.921548 212.096711 
L -124.203208 189.691366 
L -127.673067 177.916582 
L -171.480894 165.180938 
L -177.909524 140.670509 
L -183.424586 137.693612 
L -233.851101 116.16008 
L -233.081944 91.649651 
L -239.176105 89.300244 
L -289.507761 67.139223 
L -288.456352 42.628794 
L -294.927624 40.122615 
L -344.34232 18.118365 
L -350.679143 18.118365 
L -406.430661 18.118365 
L -427.156624 18.118365 
L -406.430661 42.1333 
L -404.497862 42.628794 
L -350.679143 60.111883 
L -323.069813 67.139223 
L -318.841271 91.649651 
L -294.927624 101.72857 
L -253.374333 116.16008 
L -239.176105 134.544639 
L -211.684427 140.670509 
L -216.733335 165.180938 
L -183.424586 177.149654 
L -144.794045 189.691366 
L -127.673067 213.285 
L -118.703536 214.201795 
L -127.673067 216.493783 
L -183.424586 229.637045 
L -210.369339 214.201795 
L -239.176105 201.582511 
L -261.79679 189.691366 
L -294.927624 175.775614 
L -315.237717 165.180938 
L -350.679143 148.889258 
L -365.649967 140.670509 
L -350.679143 122.935993 
L -343.067611 116.16008 
L -350.679143 112.634222 
L -365.701184 116.16008 
L -406.430661 122.912987 
L -418.233255 116.16008 
L -462.18218 96.096626 
L -469.975291 91.649651 
L -511.345173 67.139223 
L -517.933699 64.568067 
L -564.15447 42.628794 
L -573.685218 39.03513 
L -573.685218 42.628794 
L -573.685218 67.139223 
L -573.685218 68.936352 
L -521.092544 91.649651 
L -517.933699 93.446644 
L -466.208031 116.16008 
L -462.18218 118.392963 
L -411.980788 140.670509 
L -406.430661 143.669628 
L -356.762458 165.180938 
L -350.679143 168.296498 
L -300.471449 189.691366 
L -294.927624 192.558419 
L -244.876688 214.201795 
L -239.176105 217.048588 
L -192.045369 238.712224 
L -183.424586 243.251139 
L -137.586421 263.222652 
L -127.673067 268.161183 
L -82.008026 287.733081 
z
M -54.788481 287.733081 
L -71.921548 276.179439 
L -94.402288 263.222652 
L -71.921548 255.737509 
L -36.222254 263.222652 
L -16.170029 268.537926 
L -7.946658 287.733081 
L -16.170029 309.718577 
z
M 206.836047 295.920892 
L 220.585141 312.24351 
L 233.312546 312.24351 
L 215.850861 287.733081 
L 206.836047 280.757376 
L 192.089257 263.222652 
L 171.12906 238.712224 
L 151.084528 214.374832 
L 150.980432 214.201795 
L 127.118063 189.691366 
L 104.024551 165.180938 
L 95.333009 156.120815 
L 83.236607 140.670509 
L 56.774239 116.16008 
L 39.58149 98.914486 
L 35.100201 91.649651 
L 11.0627 67.139223 
L -14.906622 42.628794 
L -16.170029 41.665238 
L -37.79219 18.118365 
L -71.921548 18.118365 
L -73.622291 18.118365 
L -71.921548 20.251624 
L -36.883928 42.628794 
L -20.178945 67.139223 
L -16.170029 72.331533 
L 13.174979 91.649651 
L 33.213479 116.16008 
L 39.58149 125.172752 
L 60.952022 140.670509 
L 86.421453 165.180938 
L 95.333009 178.921758 
L 106.920544 189.691366 
L 137.252415 214.201795 
L 151.084528 235.6398 
L 153.855876 238.712224 
L 179.257732 263.222652 
L 201.758247 287.733081 
z
M 458.678429 287.733081 
L 450.167861 263.222652 
L 436.151362 238.712224 
L 429.842123 230.263387 
L 423.269306 214.201795 
L 411.710036 189.691366 
L 397.515689 165.180938 
L 379.164607 140.670509 
L 374.090604 134.91021 
L 364.489244 116.16008 
L 350.66627 91.649651 
L 334.234144 67.139223 
L 318.339085 47.843237 
L 315.528853 42.628794 
L 301.930631 18.118365 
L 276.702897 18.118365 
L 294.149289 42.628794 
L 309.518456 67.139222 
L 318.339085 82.20548 
L 326.434389 91.649651 
L 344.628359 116.16008 
L 359.920115 140.670509 
L 373.548087 165.180938 
L 374.090604 166.158313 
L 392.786993 189.691366 
L 407.746351 214.201795 
L 419.662036 238.712224 
L 429.739468 263.222652 
L 429.842123 263.494417 
L 442.941625 287.733081 
L 449.54381 312.24351 
L 462.123888 312.24351 
z
" clip-path="url(#pbacc817667)" style="fill: #31b57b"/>
    <path d="M -16.170029 309.718577 
L -7.946658 287.733081 
L -16.170029 268.537926 
L -36.222254 263.222652 
L -71.921548 255.737509 
L -94.402288 263.222652 
L -71.921548 276.179439 
L -54.788481 287.733081 
z
M -18.255362 287.733081 
L -16.170029 286.489662 
L -15.615658 287.733081 
L -16.170029 289.157253 
z
M 230.937533 287.733081 
L 206.836047 267.527836 
L 203.417928 263.222652 
L 185.782867 238.712224 
L 169.964427 214.201795 
L 151.084528 197.813575 
L 143.821693 189.691366 
L 123.770275 165.180938 
L 104.223299 140.670509 
L 95.333009 132.203319 
L 81.669987 116.16008 
L 60.018161 91.649651 
L 39.58149 67.474394 
L 39.321468 67.139223 
L 19.476105 42.628794 
L -6.996627 18.118365 
L -16.170029 18.118365 
L -37.79219 18.118365 
L -16.170029 41.665238 
L -14.906622 42.628794 
L 11.0627 67.139223 
L 35.100201 91.649651 
L 39.58149 98.914486 
L 56.774239 116.16008 
L 83.236607 140.670509 
L 95.333009 156.120815 
L 104.024551 165.180938 
L 127.118063 189.691366 
L 150.980432 214.201795 
L 151.084528 214.374832 
L 171.12906 238.712224 
L 192.089257 263.222652 
L 206.836047 280.757376 
L 215.850861 287.733081 
L 233.312546 312.24351 
L 244.560006 312.24351 
z
M 429.842123 299.102858 
L 435.082255 312.24351 
L 449.54381 312.24351 
L 442.941625 287.733081 
L 429.842123 263.494417 
L 429.739468 263.222652 
L 419.662036 238.712224 
L 407.746351 214.201795 
L 392.786993 189.691366 
L 374.090604 166.158313 
L 373.548087 165.180938 
L 359.920115 140.670509 
L 344.628359 116.16008 
L 326.434389 91.649651 
L 318.339085 82.20548 
L 309.518456 67.139223 
L 294.149289 42.628794 
L 276.702897 18.118365 
L 262.587566 18.118365 
L 249.57725 18.118365 
L 262.587566 38.023712 
L 266.672559 42.628794 
L 286.455886 67.139223 
L 303.539833 91.649651 
L 318.339085 114.731652 
L 319.615453 116.16008 
L 339.458441 140.670509 
L 355.939477 165.180937 
L 370.88723 189.691366 
L 374.090604 194.912765 
L 389.251515 214.201795 
L 404.187524 238.712224 
L 416.038707 263.222652 
L 426.058104 287.733081 
z
M -183.424586 229.637045 
L -127.673067 216.493783 
L -118.703536 214.201795 
L -127.673067 213.285 
L -144.794045 189.691366 
L -183.424586 177.149654 
L -216.733335 165.180938 
L -211.684427 140.670509 
L -239.176105 134.544639 
L -253.374333 116.16008 
L -294.927624 101.72857 
L -318.841271 91.649651 
L -323.069813 67.139223 
L -350.679143 60.111883 
L -404.497862 42.628794 
L -406.430661 42.1333 
L -427.156624 18.118365 
L -456.893068 18.118365 
L -462.18218 22.767102 
L -468.233733 18.118365 
L -517.933699 18.118365 
L -573.685218 18.118365 
L -573.685218 39.03513 
L -564.15447 42.628794 
L -517.933699 64.568067 
L -511.345173 67.139223 
L -469.975291 91.649651 
L -462.18218 96.096626 
L -418.233255 116.16008 
L -406.430661 122.912987 
L -365.701184 116.16008 
L -350.679143 112.634222 
L -343.067611 116.16008 
L -350.679143 122.935993 
L -365.649967 140.670509 
L -350.679143 148.889258 
L -315.237717 165.180938 
L -294.927624 175.775614 
L -261.79679 189.691366 
L -239.176105 201.582511 
L -210.369339 214.201795 
z
M -303.913856 116.16008 
L -294.927624 112.895225 
L -283.84688 116.16008 
L -294.927624 122.865422 
z
M -412.019762 91.649651 
L -406.430661 84.971984 
L -371.941642 91.649651 
L -406.430661 95.243825 
z
" clip-path="url(#pbacc817667)" style="fill: #4ec36b"/>
    <path d="M -16.170029 289.157253 
L -15.615658 287.733081 
L -16.170029 286.489662 
L -18.255362 287.733081 
z
M 243.98777 287.733081 
L 223.0006 263.222652 
L 206.836047 251.444996 
L 198.508106 238.712224 
L 185.87696 214.201795 
L 164.968359 189.691366 
L 151.084528 179.917009 
L 140.164036 165.180938 
L 125.728387 140.670509 
L 105.934972 116.16008 
L 95.333009 108.796665 
L 81.49584 91.649651 
L 66.404087 67.139223 
L 47.811781 42.628794 
L 39.58149 36.947127 
L 22.198116 18.118365 
L -6.996627 18.118365 
L 19.476105 42.628794 
L 39.321468 67.139223 
L 39.58149 67.474394 
L 60.018161 91.649651 
L 81.669987 116.16008 
L 95.333009 132.203319 
L 104.223299 140.670509 
L 123.770275 165.180938 
L 143.821693 189.691366 
L 151.084528 197.813575 
L 169.964427 214.201795 
L 185.782867 238.712224 
L 203.417928 263.222652 
L 206.836047 267.527836 
L 230.937533 287.733081 
L 244.560006 312.24351 
L 254.636123 312.24351 
z
M 429.842123 312.24351 
L 435.082255 312.24351 
L 429.842123 299.102858 
L 426.058104 287.733081 
L 416.038707 263.222652 
L 404.187524 238.712224 
L 389.251515 214.201795 
L 374.090604 194.912765 
L 370.88723 189.691366 
L 355.939477 165.180938 
L 339.458441 140.670509 
L 319.615453 116.16008 
L 318.339085 114.731652 
L 303.539833 91.649651 
L 286.455886 67.139223 
L 266.672559 42.628794 
L 262.587566 38.023712 
L 249.57725 18.118365 
L 219.8655 18.118365 
L 239.613887 42.628794 
L 257.638103 67.139223 
L 262.587566 73.832291 
L 278.230994 91.649651 
L 296.816721 116.16008 
L 314.44331 140.670509 
L 318.339085 145.917719 
L 334.401843 165.180938 
L 351.620118 189.691366 
L 367.954162 214.201795 
L 374.090604 223.147175 
L 385.761477 238.712224 
L 400.075322 263.222652 
L 411.359903 287.733081 
L 420.06048 312.24351 
z
M -294.927624 122.865422 
L -283.84688 116.16008 
L -294.927624 112.895225 
L -303.913856 116.16008 
z
M -406.430661 95.243825 
L -371.941642 91.649651 
L -406.430661 84.971984 
L -412.019762 91.649651 
z
M -462.18218 22.767102 
L -456.893068 18.118365 
L -462.18218 18.118365 
L -468.233733 18.118365 
z
" clip-path="url(#pbacc817667)" style="fill: #70cf57"/>
    <path d="M 262.587566 312.24351 
L 268.095932 312.24351 
L 262.587566 308.205365 
L 255.486524 287.733081 
L 242.882327 263.222652 
L 217.871951 238.712224 
L 206.836047 231.044382 
L 199.540268 214.201795 
L 187.557447 189.691366 
L 162.256536 165.180938 
L 151.084528 157.410242 
L 143.315265 140.670509 
L 132.286279 116.16008 
L 107.79798 91.649651 
L 95.333009 83.079024 
L 87.58886 67.139223 
L 77.40536 42.628794 
L 54.328782 18.118365 
L 39.58149 18.118365 
L 22.198116 18.118365 
L 39.58149 36.947127 
L 47.811781 42.628794 
L 66.404087 67.139223 
L 81.49584 91.649651 
L 95.333009 108.796665 
L 105.934972 116.16008 
L 125.728387 140.670509 
L 140.164036 165.180938 
L 151.084528 179.917009 
L 164.968359 189.691366 
L 185.87696 214.201795 
L 198.508106 238.712224 
L 206.836047 251.444996 
L 223.0006 263.222652 
L 243.98777 287.733081 
L 254.636123 312.24351 
z
M 411.359903 287.733081 
L 400.075322 263.222652 
L 385.761477 238.712224 
L 374.090604 223.147175 
L 367.954162 214.201795 
L 351.620118 189.691366 
L 334.401843 165.180938 
L 318.339085 145.917719 
L 314.44331 140.670509 
L 296.816721 116.16008 
L 278.230994 91.649651 
L 262.587566 73.832291 
L 257.638103 67.139223 
L 239.613887 42.628794 
L 219.8655 18.118365 
L 206.836047 18.118365 
L 182.986459 18.118365 
L 204.12481 42.628794 
L 206.836047 45.558649 
L 225.893098 67.139223 
L 245.673519 91.649651 
L 262.587566 110.707044 
L 267.599617 116.16008 
L 287.154489 140.670509 
L 306.651032 165.180938 
L 318.339085 178.563841 
L 327.543504 189.691366 
L 345.113705 214.201795 
L 362.721926 238.712224 
L 374.090604 253.270494 
L 380.951248 263.222652 
L 394.024954 287.733081 
L 403.413752 312.24351 
L 420.06048 312.24351 
z
" clip-path="url(#pbacc817667)" style="fill: #98d83e"/>
    <path d="M 262.587566 308.205365 
L 268.095932 312.24351 
L 301.542612 312.24351 
L 283.133981 287.733081 
L 262.587566 273.086816 
L 259.369625 263.222652 
L 250.308257 238.712224 
L 235.584398 214.201795 
L 206.836047 192.792601 
L 205.861618 189.691366 
L 199.345367 165.180938 
L 191.00351 140.670509 
L 179.2882 116.16008 
L 206.836047 104.007273 
L 216.360987 116.16008 
L 236.25683 140.670509 
L 262.587566 159.180847 
L 267.575905 165.180938 
L 286.209515 189.691366 
L 311.614882 214.201795 
L 318.339085 219.268154 
L 332.003312 238.712224 
L 349.087937 263.222652 
L 371.304449 287.733081 
L 374.090604 290.544617 
L 383.299462 312.24351 
L 403.413752 312.24351 
L 394.024954 287.733081 
L 380.951248 263.222652 
L 374.090604 253.270494 
L 362.721926 238.712224 
L 345.113705 214.201795 
L 327.543504 189.691366 
L 318.339085 178.563841 
L 306.651032 165.180938 
L 287.154489 140.670509 
L 267.599617 116.16008 
L 262.587566 110.707044 
L 245.673519 91.649651 
L 225.893098 67.139223 
L 206.836047 45.558649 
L 204.12481 42.628794 
L 182.986459 18.118365 
L 151.084528 18.118365 
L 95.333009 18.118365 
L 54.328782 18.118365 
L 77.40536 42.628794 
L 87.58886 67.139223 
L 95.333009 83.079024 
L 107.79798 91.649651 
L 132.286279 116.16008 
L 143.315265 140.670509 
L 151.084528 157.410242 
L 162.256536 165.180938 
L 187.557447 189.691366 
L 199.540268 214.201795 
L 206.836047 231.044382 
L 217.871951 238.712224 
L 242.882327 263.222652 
L 255.486524 287.733081 
z
M 148.99112 91.649651 
L 146.818082 67.139223 
L 151.084528 55.650125 
L 158.656355 67.139223 
L 172.683696 91.649651 
L 151.084528 101.086867 
z
" clip-path="url(#pbacc817667)" style="fill: #c0df25"/>
    <path d="M 318.339085 312.24351 
L 374.090604 312.24351 
L 383.299462 312.24351 
L 374.090604 290.544617 
L 371.304449 287.733081 
L 349.087937 263.222652 
L 332.003312 238.712224 
L 318.339085 219.268154 
L 311.614882 214.201795 
L 286.209515 189.691366 
L 267.575905 165.180938 
L 262.587566 159.180847 
L 236.25683 140.670509 
L 216.360987 116.16008 
L 206.836047 104.007273 
L 179.2882 116.16008 
L 191.00351 140.670509 
L 199.345367 165.180938 
L 205.861618 189.691366 
L 206.836047 192.792601 
L 235.584398 214.201795 
L 250.308257 238.712224 
L 259.369625 263.222652 
L 262.587566 273.086816 
L 283.133981 287.733081 
L 301.542612 312.24351 
z
M 151.084528 101.086867 
L 172.683696 91.649651 
L 158.656355 67.139223 
L 151.084528 55.650125 
L 146.818082 67.139223 
L 148.99112 91.649651 
z
" clip-path="url(#pbacc817667)" style="fill: #ece51b"/>
   </g>
   <g id="PathCollection_1">
    <defs>
     <path id="med21fe53ba" d="M -3 3 
L 3 -3 
M -3 -3 
L 3 3 
" style="stroke: #ff0000; stroke-width: 1.5"/>
    </defs>
    <g clip-path="url(#pbacc817667)">
     <use xlink:href="#med21fe53ba" x="318.339085" y="312.24351" style="fill: #ff0000; stroke: #ff0000; stroke-width: 1.5"/>
     <use xlink:href="#med21fe53ba" x="318.339085" y="287.733081" style="fill: #ff0000; stroke: #ff0000; stroke-width: 1.5"/>
     <use xlink:href="#med21fe53ba" x="318.339085" y="263.222652" style="fill: #ff0000; stroke: #ff0000; stroke-width: 1.5"/>
     <use xlink:href="#med21fe53ba" x="262.587566" y="238.712224" style="fill: #ff0000; stroke: #ff0000; stroke-width: 1.5"/>
     <use xlink:href="#med21fe53ba" x="262.587566" y="214.201795" style="fill: #ff0000; stroke: #ff0000; stroke-width: 1.5"/>
     <use xlink:href="#med21fe53ba" x="262.587566" y="189.691366" style="fill: #ff0000; stroke: #ff0000; stroke-width: 1.5"/>
     <use xlink:href="#med21fe53ba" x="206.836047" y="165.180938" style="fill: #ff0000; stroke: #ff0000; stroke-width: 1.5"/>
     <use xlink:href="#med21fe53ba" x="206.836047" y="140.670509" style="fill: #ff0000; stroke: #ff0000; stroke-width: 1.5"/>
     <use xlink:href="#med21fe53ba" x="206.836047" y="116.16008" style="fill: #ff0000; stroke: #ff0000; stroke-width: 1.5"/>
     <use xlink:href="#med21fe53ba" x="151.084528" y="91.649651" style="fill: #ff0000; stroke: #ff0000; stroke-width: 1.5"/>
     <use xlink:href="#med21fe53ba" x="151.084528" y="67.139223" style="fill: #ff0000; stroke: #ff0000; stroke-width: 1.5"/>
     <use xlink:href="#med21fe53ba" x="151.084528" y="42.628794" style="fill: #ff0000; stroke: #ff0000; stroke-width: 1.5"/>
     <use xlink:href="#med21fe53ba" x="95.333009" y="18.118365" style="fill: #ff0000; stroke: #ff0000; stroke-width: 1.5"/>
    </g>
   </g>
   <g id="matplotlib.axis_1">
    <g id="xtick_1">
     <g id="line2d_1">
      <defs>
       <path id="mccae451f36" d="M 0 0 
L 0 3.5 
" style="stroke: #000000; stroke-width: 0.8"/>
      </defs>
      <g>
       <use xlink:href="#mccae451f36" x="95.333009" y="312.24351" style="stroke: #000000; stroke-width: 0.8"/>
      </g>
     </g>
     <g id="text_1">
      <!-- $\mathdefault{10^{-2}}$ -->
      <g transform="translate(83.583009 326.841947) scale(0.1 -0.1)">
       <defs>
        <path id="DejaVuSans-31" d="M 794 531 
L 1825 531 
L 1825 4091 
L 703 3866 
L 703 4441 
L 1819 4666 
L 2450 4666 
L 2450 531 
L 3481 531 
L 3481 0 
L 794 0 
L 794 531 
z
" transform="scale(0.015625)"/>
        <path id="DejaVuSans-30" d="M 2034 4250 
Q 1547 4250 1301 3770 
Q 1056 3291 1056 2328 
Q 1056 1369 1301 889 
Q 1547 409 2034 409 
Q 2525 409 2770 889 
Q 3016 1369 3016 2328 
Q 3016 3291 2770 3770 
Q 2525 4250 2034 4250 
z
M 2034 4750 
Q 2819 4750 3233 4129 
Q 3647 3509 3647 2328 
Q 3647 1150 3233 529 
Q 2819 -91 2034 -91 
Q 1250 -91 836 529 
Q 422 1150 422 2328 
Q 422 3509 836 4129 
Q 1250 4750 2034 4750 
z
" transform="scale(0.015625)"/>
        <path id="DejaVuSans-2212" d="M 678 2272 
L 4684 2272 
L 4684 1741 
L 678 1741 
L 678 2272 
z
" transform="scale(0.015625)"/>
        <path id="DejaVuSans-32" d="M 1228 531 
L 3431 531 
L 3431 0 
L 469 0 
L 469 531 
Q 828 903 1448 1529 
Q 2069 2156 2228 2338 
Q 2531 2678 2651 2914 
Q 2772 3150 2772 3378 
Q 2772 3750 2511 3984 
Q 2250 4219 1831 4219 
Q 1534 4219 1204 4116 
Q 875 4013 500 3803 
L 500 4441 
Q 881 4594 1212 4672 
Q 1544 4750 1819 4750 
Q 2544 4750 2975 4387 
Q 3406 4025 3406 3419 
Q 3406 3131 3298 2873 
Q 3191 2616 2906 2266 
Q 2828 2175 2409 1742 
Q 1991 1309 1228 531 
z
" transform="scale(0.015625)"/>
       </defs>
       <use xlink:href="#DejaVuSans-31" transform="translate(0 0.765625)"/>
       <use xlink:href="#DejaVuSans-30" transform="translate(63.623047 0.765625)"/>
       <use xlink:href="#DejaVuSans-2212" transform="translate(128.203125 39.046875) scale(0.7)"/>
       <use xlink:href="#DejaVuSans-32" transform="translate(186.855469 39.046875) scale(0.7)"/>
      </g>
     </g>
    </g>
    <g id="xtick_2">
     <g id="line2d_2">
      <g>
       <use xlink:href="#mccae451f36" x="318.339085" y="312.24351" style="stroke: #000000; stroke-width: 0.8"/>
      </g>
     </g>
     <g id="text_2">
      <!-- $\mathdefault{10^{-1}}$ -->
      <g transform="translate(306.589085 326.841947) scale(0.1 -0.1)">
       <use xlink:href="#DejaVuSans-31" transform="translate(0 0.684375)"/>
       <use xlink:href="#DejaVuSans-30" transform="translate(63.623047 0.684375)"/>
       <use xlink:href="#DejaVuSans-2212" transform="translate(128.203125 38.965625) scale(0.7)"/>
       <use xlink:href="#DejaVuSans-31" transform="translate(186.855469 38.965625) scale(0.7)"/>
      </g>
     </g>
    </g>
    <g id="xtick_3">
     <g id="line2d_3">
      <defs>
       <path id="m52e1059885" d="M 0 0 
L 0 2 
" style="stroke: #000000; stroke-width: 0.6"/>
      </defs>
      <g>
       <use xlink:href="#m52e1059885" x="45.85939" y="312.24351" style="stroke: #000000; stroke-width: 0.6"/>
      </g>
     </g>
    </g>
    <g id="xtick_4">
     <g id="line2d_4">
      <g>
       <use xlink:href="#m52e1059885" x="60.788931" y="312.24351" style="stroke: #000000; stroke-width: 0.6"/>
      </g>
     </g>
    </g>
    <g id="xtick_5">
     <g id="line2d_5">
      <g>
       <use xlink:href="#m52e1059885" x="73.721487" y="312.24351" style="stroke: #000000; stroke-width: 0.6"/>
      </g>
     </g>
    </g>
    <g id="xtick_6">
     <g id="line2d_6">
      <g>
       <use xlink:href="#m52e1059885" x="85.128811" y="312.24351" style="stroke: #000000; stroke-width: 0.6"/>
      </g>
     </g>
    </g>
    <g id="xtick_7">
     <g id="line2d_7">
      <g>
       <use xlink:href="#m52e1059885" x="162.464527" y="312.24351" style="stroke: #000000; stroke-width: 0.6"/>
      </g>
     </g>
    </g>
    <g id="xtick_8">
     <g id="line2d_8">
      <g>
       <use xlink:href="#m52e1059885" x="201.733948" y="312.24351" style="stroke: #000000; stroke-width: 0.6"/>
      </g>
     </g>
    </g>
    <g id="xtick_9">
     <g id="line2d_9">
      <g>
       <use xlink:href="#m52e1059885" x="229.596045" y="312.24351" style="stroke: #000000; stroke-width: 0.6"/>
      </g>
     </g>
    </g>
    <g id="xtick_10">
     <g id="line2d_10">
      <g>
       <use xlink:href="#m52e1059885" x="251.207567" y="312.24351" style="stroke: #000000; stroke-width: 0.6"/>
      </g>
     </g>
    </g>
    <g id="xtick_11">
     <g id="line2d_11">
      <g>
       <use xlink:href="#m52e1059885" x="268.865466" y="312.24351" style="stroke: #000000; stroke-width: 0.6"/>
      </g>
     </g>
    </g>
    <g id="xtick_12">
     <g id="line2d_12">
      <g>
       <use xlink:href="#m52e1059885" x="283.795006" y="312.24351" style="stroke: #000000; stroke-width: 0.6"/>
      </g>
     </g>
    </g>
    <g id="xtick_13">
     <g id="line2d_13">
      <g>
       <use xlink:href="#m52e1059885" x="296.727563" y="312.24351" style="stroke: #000000; stroke-width: 0.6"/>
      </g>
     </g>
    </g>
    <g id="xtick_14">
     <g id="line2d_14">
      <g>
       <use xlink:href="#m52e1059885" x="308.134886" y="312.24351" style="stroke: #000000; stroke-width: 0.6"/>
      </g>
     </g>
    </g>
    <g id="text_3">
     <!-- bandwidth -->
     <g transform="translate(180.473547 340.520072) scale(0.1 -0.1)">
      <defs>
       <path id="DejaVuSans-62" d="M 3116 1747 
Q 3116 2381 2855 2742 
Q 2594 3103 2138 3103 
Q 1681 3103 1420 2742 
Q 1159 2381 1159 1747 
Q 1159 1113 1420 752 
Q 1681 391 2138 391 
Q 2594 391 2855 752 
Q 3116 1113 3116 1747 
z
M 1159 2969 
Q 1341 3281 1617 3432 
Q 1894 3584 2278 3584 
Q 2916 3584 3314 3078 
Q 3713 2572 3713 1747 
Q 3713 922 3314 415 
Q 2916 -91 2278 -91 
Q 1894 -91 1617 61 
Q 1341 213 1159 525 
L 1159 0 
L 581 0 
L 581 4863 
L 1159 4863 
L 1159 2969 
z
" transform="scale(0.015625)"/>
       <path id="DejaVuSans-61" d="M 2194 1759 
Q 1497 1759 1228 1600 
Q 959 1441 959 1056 
Q 959 750 1161 570 
Q 1363 391 1709 391 
Q 2188 391 2477 730 
Q 2766 1069 2766 1631 
L 2766 1759 
L 2194 1759 
z
M 3341 1997 
L 3341 0 
L 2766 0 
L 2766 531 
Q 2569 213 2275 61 
Q 1981 -91 1556 -91 
Q 1019 -91 701 211 
Q 384 513 384 1019 
Q 384 1609 779 1909 
Q 1175 2209 1959 2209 
L 2766 2209 
L 2766 2266 
Q 2766 2663 2505 2880 
Q 2244 3097 1772 3097 
Q 1472 3097 1187 3025 
Q 903 2953 641 2809 
L 641 3341 
Q 956 3463 1253 3523 
Q 1550 3584 1831 3584 
Q 2591 3584 2966 3190 
Q 3341 2797 3341 1997 
z
" transform="scale(0.015625)"/>
       <path id="DejaVuSans-6e" d="M 3513 2113 
L 3513 0 
L 2938 0 
L 2938 2094 
Q 2938 2591 2744 2837 
Q 2550 3084 2163 3084 
Q 1697 3084 1428 2787 
Q 1159 2491 1159 1978 
L 1159 0 
L 581 0 
L 581 3500 
L 1159 3500 
L 1159 2956 
Q 1366 3272 1645 3428 
Q 1925 3584 2291 3584 
Q 2894 3584 3203 3211 
Q 3513 2838 3513 2113 
z
" transform="scale(0.015625)"/>
       <path id="DejaVuSans-64" d="M 2906 2969 
L 2906 4863 
L 3481 4863 
L 3481 0 
L 2906 0 
L 2906 525 
Q 2725 213 2448 61 
Q 2172 -91 1784 -91 
Q 1150 -91 751 415 
Q 353 922 353 1747 
Q 353 2572 751 3078 
Q 1150 3584 1784 3584 
Q 2172 3584 2448 3432 
Q 2725 3281 2906 2969 
z
M 947 1747 
Q 947 1113 1208 752 
Q 1469 391 1925 391 
Q 2381 391 2643 752 
Q 2906 1113 2906 1747 
Q 2906 2381 2643 2742 
Q 2381 3103 1925 3103 
Q 1469 3103 1208 2742 
Q 947 2381 947 1747 
z
" transform="scale(0.015625)"/>
       <path id="DejaVuSans-77" d="M 269 3500 
L 844 3500 
L 1563 769 
L 2278 3500 
L 2956 3500 
L 3675 769 
L 4391 3500 
L 4966 3500 
L 4050 0 
L 3372 0 
L 2619 2869 
L 1863 0 
L 1184 0 
L 269 3500 
z
" transform="scale(0.015625)"/>
       <path id="DejaVuSans-69" d="M 603 3500 
L 1178 3500 
L 1178 0 
L 603 0 
L 603 3500 
z
M 603 4863 
L 1178 4863 
L 1178 4134 
L 603 4134 
L 603 4863 
z
" transform="scale(0.015625)"/>
       <path id="DejaVuSans-74" d="M 1172 4494 
L 1172 3500 
L 2356 3500 
L 2356 3053 
L 1172 3053 
L 1172 1153 
Q 1172 725 1289 603 
Q 1406 481 1766 481 
L 2356 481 
L 2356 0 
L 1766 0 
Q 1100 0 847 248 
Q 594 497 594 1153 
L 594 3053 
L 172 3053 
L 172 3500 
L 594 3500 
L 594 4494 
L 1172 4494 
z
" transform="scale(0.015625)"/>
       <path id="DejaVuSans-68" d="M 3513 2113 
L 3513 0 
L 2938 0 
L 2938 2094 
Q 2938 2591 2744 2837 
Q 2550 3084 2163 3084 
Q 1697 3084 1428 2787 
Q 1159 2491 1159 1978 
L 1159 0 
L 581 0 
L 581 4863 
L 1159 4863 
L 1159 2956 
Q 1366 3272 1645 3428 
Q 1925 3584 2291 3584 
Q 2894 3584 3203 3211 
Q 3513 2838 3513 2113 
z
" transform="scale(0.015625)"/>
      </defs>
      <use xlink:href="#DejaVuSans-62"/>
      <use xlink:href="#DejaVuSans-61" transform="translate(63.476562 0)"/>
      <use xlink:href="#DejaVuSans-6e" transform="translate(124.755859 0)"/>
      <use xlink:href="#DejaVuSans-64" transform="translate(188.134766 0)"/>
      <use xlink:href="#DejaVuSans-77" transform="translate(251.611328 0)"/>
      <use xlink:href="#DejaVuSans-69" transform="translate(333.398438 0)"/>
      <use xlink:href="#DejaVuSans-64" transform="translate(361.181641 0)"/>
      <use xlink:href="#DejaVuSans-74" transform="translate(424.658203 0)"/>
      <use xlink:href="#DejaVuSans-68" transform="translate(463.867188 0)"/>
     </g>
    </g>
   </g>
   <g id="matplotlib.axis_2">
    <g id="ytick_1">
     <g id="line2d_15">
      <defs>
       <path id="m52377e20f9" d="M 0 0 
L -3.5 0 
" style="stroke: #000000; stroke-width: 0.8"/>
      </defs>
      <g>
       <use xlink:href="#m52377e20f9" x="39.58149" y="312.24351" style="stroke: #000000; stroke-width: 0.8"/>
      </g>
     </g>
     <g id="text_4">
      <!-- 1.0 -->
      <g transform="translate(16.678365 316.042729) scale(0.1 -0.1)">
       <defs>
        <path id="DejaVuSans-2e" d="M 684 794 
L 1344 794 
L 1344 0 
L 684 0 
L 684 794 
z
" transform="scale(0.015625)"/>
       </defs>
       <use xlink:href="#DejaVuSans-31"/>
       <use xlink:href="#DejaVuSans-2e" transform="translate(63.623047 0)"/>
       <use xlink:href="#DejaVuSans-30" transform="translate(95.410156 0)"/>
      </g>
     </g>
    </g>
    <g id="ytick_2">
     <g id="line2d_16">
      <g>
       <use xlink:href="#m52377e20f9" x="39.58149" y="263.222652" style="stroke: #000000; stroke-width: 0.8"/>
      </g>
     </g>
     <g id="text_5">
      <!-- 1.5 -->
      <g transform="translate(16.678365 267.021871) scale(0.1 -0.1)">
       <defs>
        <path id="DejaVuSans-35" d="M 691 4666 
L 3169 4666 
L 3169 4134 
L 1269 4134 
L 1269 2991 
Q 1406 3038 1543 3061 
Q 1681 3084 1819 3084 
Q 2600 3084 3056 2656 
Q 3513 2228 3513 1497 
Q 3513 744 3044 326 
Q 2575 -91 1722 -91 
Q 1428 -91 1123 -41 
Q 819 9 494 109 
L 494 744 
Q 775 591 1075 516 
Q 1375 441 1709 441 
Q 2250 441 2565 725 
Q 2881 1009 2881 1497 
Q 2881 1984 2565 2268 
Q 2250 2553 1709 2553 
Q 1456 2553 1204 2497 
Q 953 2441 691 2322 
L 691 4666 
z
" transform="scale(0.015625)"/>
       </defs>
       <use xlink:href="#DejaVuSans-31"/>
       <use xlink:href="#DejaVuSans-2e" transform="translate(63.623047 0)"/>
       <use xlink:href="#DejaVuSans-35" transform="translate(95.410156 0)"/>
      </g>
     </g>
    </g>
    <g id="ytick_3">
     <g id="line2d_17">
      <g>
       <use xlink:href="#m52377e20f9" x="39.58149" y="214.201795" style="stroke: #000000; stroke-width: 0.8"/>
      </g>
     </g>
     <g id="text_6">
      <!-- 2.0 -->
      <g transform="translate(16.678365 218.001014) scale(0.1 -0.1)">
       <use xlink:href="#DejaVuSans-32"/>
       <use xlink:href="#DejaVuSans-2e" transform="translate(63.623047 0)"/>
       <use xlink:href="#DejaVuSans-30" transform="translate(95.410156 0)"/>
      </g>
     </g>
    </g>
    <g id="ytick_4">
     <g id="line2d_18">
      <g>
       <use xlink:href="#m52377e20f9" x="39.58149" y="165.180938" style="stroke: #000000; stroke-width: 0.8"/>
      </g>
     </g>
     <g id="text_7">
      <!-- 2.5 -->
      <g transform="translate(16.678365 168.980156) scale(0.1 -0.1)">
       <use xlink:href="#DejaVuSans-32"/>
       <use xlink:href="#DejaVuSans-2e" transform="translate(63.623047 0)"/>
       <use xlink:href="#DejaVuSans-35" transform="translate(95.410156 0)"/>
      </g>
     </g>
    </g>
    <g id="ytick_5">
     <g id="line2d_19">
      <g>
       <use xlink:href="#m52377e20f9" x="39.58149" y="116.16008" style="stroke: #000000; stroke-width: 0.8"/>
      </g>
     </g>
     <g id="text_8">
      <!-- 3.0 -->
      <g transform="translate(16.678365 119.959299) scale(0.1 -0.1)">
       <defs>
        <path id="DejaVuSans-33" d="M 2597 2516 
Q 3050 2419 3304 2112 
Q 3559 1806 3559 1356 
Q 3559 666 3084 287 
Q 2609 -91 1734 -91 
Q 1441 -91 1130 -33 
Q 819 25 488 141 
L 488 750 
Q 750 597 1062 519 
Q 1375 441 1716 441 
Q 2309 441 2620 675 
Q 2931 909 2931 1356 
Q 2931 1769 2642 2001 
Q 2353 2234 1838 2234 
L 1294 2234 
L 1294 2753 
L 1863 2753 
Q 2328 2753 2575 2939 
Q 2822 3125 2822 3475 
Q 2822 3834 2567 4026 
Q 2313 4219 1838 4219 
Q 1578 4219 1281 4162 
Q 984 4106 628 3988 
L 628 4550 
Q 988 4650 1302 4700 
Q 1616 4750 1894 4750 
Q 2613 4750 3031 4423 
Q 3450 4097 3450 3541 
Q 3450 3153 3228 2886 
Q 3006 2619 2597 2516 
z
" transform="scale(0.015625)"/>
       </defs>
       <use xlink:href="#DejaVuSans-33"/>
       <use xlink:href="#DejaVuSans-2e" transform="translate(63.623047 0)"/>
       <use xlink:href="#DejaVuSans-30" transform="translate(95.410156 0)"/>
      </g>
     </g>
    </g>
    <g id="ytick_6">
     <g id="line2d_20">
      <g>
       <use xlink:href="#m52377e20f9" x="39.58149" y="67.139223" style="stroke: #000000; stroke-width: 0.8"/>
      </g>
     </g>
     <g id="text_9">
      <!-- 3.5 -->
      <g transform="translate(16.678365 70.938441) scale(0.1 -0.1)">
       <use xlink:href="#DejaVuSans-33"/>
       <use xlink:href="#DejaVuSans-2e" transform="translate(63.623047 0)"/>
       <use xlink:href="#DejaVuSans-35" transform="translate(95.410156 0)"/>
      </g>
     </g>
    </g>
    <g id="ytick_7">
     <g id="line2d_21">
      <g>
       <use xlink:href="#m52377e20f9" x="39.58149" y="18.118365" style="stroke: #000000; stroke-width: 0.8"/>
      </g>
     </g>
     <g id="text_10">
      <!-- 4.0 -->
      <g transform="translate(16.678365 21.917584) scale(0.1 -0.1)">
       <defs>
        <path id="DejaVuSans-34" d="M 2419 4116 
L 825 1625 
L 2419 1625 
L 2419 4116 
z
M 2253 4666 
L 3047 4666 
L 3047 1625 
L 3713 1625 
L 3713 1100 
L 3047 1100 
L 3047 0 
L 2419 0 
L 2419 1100 
L 313 1100 
L 313 1709 
L 2253 4666 
z
" transform="scale(0.015625)"/>
       </defs>
       <use xlink:href="#DejaVuSans-34"/>
       <use xlink:href="#DejaVuSans-2e" transform="translate(63.623047 0)"/>
       <use xlink:href="#DejaVuSans-30" transform="translate(95.410156 0)"/>
      </g>
     </g>
    </g>
    <g id="text_11">
     <!-- alpha -->
     <g transform="translate(10.598677 179.041094) rotate(-90) scale(0.1 -0.1)">
      <defs>
       <path id="DejaVuSans-6c" d="M 603 4863 
L 1178 4863 
L 1178 0 
L 603 0 
L 603 4863 
z
" transform="scale(0.015625)"/>
       <path id="DejaVuSans-70" d="M 1159 525 
L 1159 -1331 
L 581 -1331 
L 581 3500 
L 1159 3500 
L 1159 2969 
Q 1341 3281 1617 3432 
Q 1894 3584 2278 3584 
Q 2916 3584 3314 3078 
Q 3713 2572 3713 1747 
Q 3713 922 3314 415 
Q 2916 -91 2278 -91 
Q 1894 -91 1617 61 
Q 1341 213 1159 525 
z
M 3116 1747 
Q 3116 2381 2855 2742 
Q 2594 3103 2138 3103 
Q 1681 3103 1420 2742 
Q 1159 2381 1159 1747 
Q 1159 1113 1420 752 
Q 1681 391 2138 391 
Q 2594 391 2855 752 
Q 3116 1113 3116 1747 
z
" transform="scale(0.015625)"/>
      </defs>
      <use xlink:href="#DejaVuSans-61"/>
      <use xlink:href="#DejaVuSans-6c" transform="translate(61.279297 0)"/>
      <use xlink:href="#DejaVuSans-70" transform="translate(89.0625 0)"/>
      <use xlink:href="#DejaVuSans-68" transform="translate(152.539062 0)"/>
      <use xlink:href="#DejaVuSans-61" transform="translate(215.917969 0)"/>
     </g>
    </g>
   </g>
   <g id="patch_3">
    <path d="M 39.58149 312.24351 
L 39.58149 18.118365 
" style="fill: none; stroke: #000000; stroke-width: 0.8; stroke-linejoin: miter; stroke-linecap: square"/>
   </g>
   <g id="patch_4">
    <path d="M 374.090604 312.24351 
L 374.090604 18.118365 
" style="fill: none; stroke: #000000; stroke-width: 0.8; stroke-linejoin: miter; stroke-linecap: square"/>
   </g>
   <g id="patch_5">
    <path d="M 39.58149 312.24351 
L 374.090604 312.24351 
" style="fill: none; stroke: #000000; stroke-width: 0.8; stroke-linejoin: miter; stroke-linecap: square"/>
   </g>
   <g id="patch_6">
    <path d="M 39.58149 18.118365 
L 374.090604 18.118365 
" style="fill: none; stroke: #000000; stroke-width: 0.8; stroke-linejoin: miter; stroke-linecap: square"/>
   </g>
   <g id="text_12">
    <!-- espirales_lo 8527 fkdc -->
    <g transform="translate(139.798234 12.118365) scale(0.12 -0.12)">
     <defs>
      <path id="DejaVuSans-65" d="M 3597 1894 
L 3597 1613 
L 953 1613 
Q 991 1019 1311 708 
Q 1631 397 2203 397 
Q 2534 397 2845 478 
Q 3156 559 3463 722 
L 3463 178 
Q 3153 47 2828 -22 
Q 2503 -91 2169 -91 
Q 1331 -91 842 396 
Q 353 884 353 1716 
Q 353 2575 817 3079 
Q 1281 3584 2069 3584 
Q 2775 3584 3186 3129 
Q 3597 2675 3597 1894 
z
M 3022 2063 
Q 3016 2534 2758 2815 
Q 2500 3097 2075 3097 
Q 1594 3097 1305 2825 
Q 1016 2553 972 2059 
L 3022 2063 
z
" transform="scale(0.015625)"/>
      <path id="DejaVuSans-73" d="M 2834 3397 
L 2834 2853 
Q 2591 2978 2328 3040 
Q 2066 3103 1784 3103 
Q 1356 3103 1142 2972 
Q 928 2841 928 2578 
Q 928 2378 1081 2264 
Q 1234 2150 1697 2047 
L 1894 2003 
Q 2506 1872 2764 1633 
Q 3022 1394 3022 966 
Q 3022 478 2636 193 
Q 2250 -91 1575 -91 
Q 1294 -91 989 -36 
Q 684 19 347 128 
L 347 722 
Q 666 556 975 473 
Q 1284 391 1588 391 
Q 1994 391 2212 530 
Q 2431 669 2431 922 
Q 2431 1156 2273 1281 
Q 2116 1406 1581 1522 
L 1381 1569 
Q 847 1681 609 1914 
Q 372 2147 372 2553 
Q 372 3047 722 3315 
Q 1072 3584 1716 3584 
Q 2034 3584 2315 3537 
Q 2597 3491 2834 3397 
z
" transform="scale(0.015625)"/>
      <path id="DejaVuSans-72" d="M 2631 2963 
Q 2534 3019 2420 3045 
Q 2306 3072 2169 3072 
Q 1681 3072 1420 2755 
Q 1159 2438 1159 1844 
L 1159 0 
L 581 0 
L 581 3500 
L 1159 3500 
L 1159 2956 
Q 1341 3275 1631 3429 
Q 1922 3584 2338 3584 
Q 2397 3584 2469 3576 
Q 2541 3569 2628 3553 
L 2631 2963 
z
" transform="scale(0.015625)"/>
      <path id="DejaVuSans-5f" d="M 3263 -1063 
L 3263 -1509 
L -63 -1509 
L -63 -1063 
L 3263 -1063 
z
" transform="scale(0.015625)"/>
      <path id="DejaVuSans-6f" d="M 1959 3097 
Q 1497 3097 1228 2736 
Q 959 2375 959 1747 
Q 959 1119 1226 758 
Q 1494 397 1959 397 
Q 2419 397 2687 759 
Q 2956 1122 2956 1747 
Q 2956 2369 2687 2733 
Q 2419 3097 1959 3097 
z
M 1959 3584 
Q 2709 3584 3137 3096 
Q 3566 2609 3566 1747 
Q 3566 888 3137 398 
Q 2709 -91 1959 -91 
Q 1206 -91 779 398 
Q 353 888 353 1747 
Q 353 2609 779 3096 
Q 1206 3584 1959 3584 
z
" transform="scale(0.015625)"/>
      <path id="DejaVuSans-20" transform="scale(0.015625)"/>
      <path id="DejaVuSans-38" d="M 2034 2216 
Q 1584 2216 1326 1975 
Q 1069 1734 1069 1313 
Q 1069 891 1326 650 
Q 1584 409 2034 409 
Q 2484 409 2743 651 
Q 3003 894 3003 1313 
Q 3003 1734 2745 1975 
Q 2488 2216 2034 2216 
z
M 1403 2484 
Q 997 2584 770 2862 
Q 544 3141 544 3541 
Q 544 4100 942 4425 
Q 1341 4750 2034 4750 
Q 2731 4750 3128 4425 
Q 3525 4100 3525 3541 
Q 3525 3141 3298 2862 
Q 3072 2584 2669 2484 
Q 3125 2378 3379 2068 
Q 3634 1759 3634 1313 
Q 3634 634 3220 271 
Q 2806 -91 2034 -91 
Q 1263 -91 848 271 
Q 434 634 434 1313 
Q 434 1759 690 2068 
Q 947 2378 1403 2484 
z
M 1172 3481 
Q 1172 3119 1398 2916 
Q 1625 2713 2034 2713 
Q 2441 2713 2670 2916 
Q 2900 3119 2900 3481 
Q 2900 3844 2670 4047 
Q 2441 4250 2034 4250 
Q 1625 4250 1398 4047 
Q 1172 3844 1172 3481 
z
" transform="scale(0.015625)"/>
      <path id="DejaVuSans-37" d="M 525 4666 
L 3525 4666 
L 3525 4397 
L 1831 0 
L 1172 0 
L 2766 4134 
L 525 4134 
L 525 4666 
z
" transform="scale(0.015625)"/>
      <path id="DejaVuSans-66" d="M 2375 4863 
L 2375 4384 
L 1825 4384 
Q 1516 4384 1395 4259 
Q 1275 4134 1275 3809 
L 1275 3500 
L 2222 3500 
L 2222 3053 
L 1275 3053 
L 1275 0 
L 697 0 
L 697 3053 
L 147 3053 
L 147 3500 
L 697 3500 
L 697 3744 
Q 697 4328 969 4595 
Q 1241 4863 1831 4863 
L 2375 4863 
z
" transform="scale(0.015625)"/>
      <path id="DejaVuSans-6b" d="M 581 4863 
L 1159 4863 
L 1159 1991 
L 2875 3500 
L 3609 3500 
L 1753 1863 
L 3688 0 
L 2938 0 
L 1159 1709 
L 1159 0 
L 581 0 
L 581 4863 
z
" transform="scale(0.015625)"/>
      <path id="DejaVuSans-63" d="M 3122 3366 
L 3122 2828 
Q 2878 2963 2633 3030 
Q 2388 3097 2138 3097 
Q 1578 3097 1268 2742 
Q 959 2388 959 1747 
Q 959 1106 1268 751 
Q 1578 397 2138 397 
Q 2388 397 2633 464 
Q 2878 531 3122 666 
L 3122 134 
Q 2881 22 2623 -34 
Q 2366 -91 2075 -91 
Q 1284 -91 818 406 
Q 353 903 353 1747 
Q 353 2603 823 3093 
Q 1294 3584 2113 3584 
Q 2378 3584 2631 3529 
Q 2884 3475 3122 3366 
z
" transform="scale(0.015625)"/>
     </defs>
     <use xlink:href="#DejaVuSans-65"/>
     <use xlink:href="#DejaVuSans-73" transform="translate(61.523438 0)"/>
     <use xlink:href="#DejaVuSans-70" transform="translate(113.623047 0)"/>
     <use xlink:href="#DejaVuSans-69" transform="translate(177.099609 0)"/>
     <use xlink:href="#DejaVuSans-72" transform="translate(204.882812 0)"/>
     <use xlink:href="#DejaVuSans-61" transform="translate(245.996094 0)"/>
     <use xlink:href="#DejaVuSans-6c" transform="translate(307.275391 0)"/>
     <use xlink:href="#DejaVuSans-65" transform="translate(335.058594 0)"/>
     <use xlink:href="#DejaVuSans-73" transform="translate(396.582031 0)"/>
     <use xlink:href="#DejaVuSans-5f" transform="translate(448.681641 0)"/>
     <use xlink:href="#DejaVuSans-6c" transform="translate(498.681641 0)"/>
     <use xlink:href="#DejaVuSans-6f" transform="translate(526.464844 0)"/>
     <use xlink:href="#DejaVuSans-20" transform="translate(587.646484 0)"/>
     <use xlink:href="#DejaVuSans-38" transform="translate(619.433594 0)"/>
     <use xlink:href="#DejaVuSans-35" transform="translate(683.056641 0)"/>
     <use xlink:href="#DejaVuSans-32" transform="translate(746.679688 0)"/>
     <use xlink:href="#DejaVuSans-37" transform="translate(810.302734 0)"/>
     <use xlink:href="#DejaVuSans-20" transform="translate(873.925781 0)"/>
     <use xlink:href="#DejaVuSans-66" transform="translate(905.712891 0)"/>
     <use xlink:href="#DejaVuSans-6b" transform="translate(940.917969 0)"/>
     <use xlink:href="#DejaVuSans-64" transform="translate(998.828125 0)"/>
     <use xlink:href="#DejaVuSans-63" transform="translate(1062.304688 0)"/>
    </g>
   </g>
  </g>
  <g id="axes_2">
   <g id="patch_7">
    <path d="M 390.816059 312.24351 
L 405.522317 312.24351 
L 405.522317 18.118365 
L 390.816059 18.118365 
z
" style="fill: #ffffff"/>
   </g>
   <g id="QuadMesh_1">
    <path d="M 390.816059 312.24351 
L 405.522317 312.24351 
L 405.522317 293.860688 
L 390.816059 293.860688 
L 390.816059 312.24351 
" clip-path="url(#p54c7c1fd6a)" style="fill: #470d60"/>
    <path d="M 390.816059 293.860688 
L 405.522317 293.860688 
L 405.522317 275.477867 
L 390.816059 275.477867 
L 390.816059 293.860688 
" clip-path="url(#p54c7c1fd6a)" style="fill: #482374"/>
    <path d="M 390.816059 275.477867 
L 405.522317 275.477867 
L 405.522317 257.095045 
L 390.816059 257.095045 
L 390.816059 275.477867 
" clip-path="url(#p54c7c1fd6a)" style="fill: #453581"/>
    <path d="M 390.816059 257.095045 
L 405.522317 257.095045 
L 405.522317 238.712224 
L 390.816059 238.712224 
L 390.816059 257.095045 
" clip-path="url(#p54c7c1fd6a)" style="fill: #3f4889"/>
    <path d="M 390.816059 238.712224 
L 405.522317 238.712224 
L 405.522317 220.329402 
L 390.816059 220.329402 
L 390.816059 238.712224 
" clip-path="url(#p54c7c1fd6a)" style="fill: #375b8d"/>
    <path d="M 390.816059 220.329402 
L 405.522317 220.329402 
L 405.522317 201.946581 
L 390.816059 201.946581 
L 390.816059 220.329402 
" clip-path="url(#p54c7c1fd6a)" style="fill: #2f6b8e"/>
    <path d="M 390.816059 201.946581 
L 405.522317 201.946581 
L 405.522317 183.563759 
L 390.816059 183.563759 
L 390.816059 201.946581 
" clip-path="url(#p54c7c1fd6a)" style="fill: #29798e"/>
    <path d="M 390.816059 183.563759 
L 405.522317 183.563759 
L 405.522317 165.180937 
L 390.816059 165.180937 
L 390.816059 183.563759 
" clip-path="url(#p54c7c1fd6a)" style="fill: #23888e"/>
    <path d="M 390.816059 165.180937 
L 405.522317 165.180937 
L 405.522317 146.798116 
L 390.816059 146.798116 
L 390.816059 165.180937 
" clip-path="url(#p54c7c1fd6a)" style="fill: #1f988b"/>
    <path d="M 390.816059 146.798116 
L 405.522317 146.798116 
L 405.522317 128.415294 
L 390.816059 128.415294 
L 390.816059 146.798116 
" clip-path="url(#p54c7c1fd6a)" style="fill: #22a785"/>
    <path d="M 390.816059 128.415294 
L 405.522317 128.415294 
L 405.522317 110.032473 
L 390.816059 110.032473 
L 390.816059 128.415294 
" clip-path="url(#p54c7c1fd6a)" style="fill: #31b57b"/>
    <path d="M 390.816059 110.032473 
L 405.522317 110.032473 
L 405.522317 91.649651 
L 390.816059 91.649651 
L 390.816059 110.032473 
" clip-path="url(#p54c7c1fd6a)" style="fill: #4ec36b"/>
    <path d="M 390.816059 91.649651 
L 405.522317 91.649651 
L 405.522317 73.26683 
L 390.816059 73.26683 
L 390.816059 91.649651 
" clip-path="url(#p54c7c1fd6a)" style="fill: #70cf57"/>
    <path d="M 390.816059 73.26683 
L 405.522317 73.26683 
L 405.522317 54.884008 
L 390.816059 54.884008 
L 390.816059 73.26683 
" clip-path="url(#p54c7c1fd6a)" style="fill: #98d83e"/>
    <path d="M 390.816059 54.884008 
L 405.522317 54.884008 
L 405.522317 36.501187 
L 390.816059 36.501187 
L 390.816059 54.884008 
" clip-path="url(#p54c7c1fd6a)" style="fill: #c0df25"/>
    <path d="M 390.816059 36.501187 
L 405.522317 36.501187 
L 405.522317 18.118365 
L 390.816059 18.118365 
L 390.816059 36.501187 
" clip-path="url(#p54c7c1fd6a)" style="fill: #ece51b"/>
   </g>
   <g id="matplotlib.axis_3"/>
   <g id="matplotlib.axis_4">
    <g id="ytick_8">
     <g id="line2d_22">
      <defs>
       <path id="m4e87b058da" d="M 0 0 
L 3.5 0 
" style="stroke: #000000; stroke-width: 0.8"/>
      </defs>
      <g>
       <use xlink:href="#m4e87b058da" x="405.522317" y="312.24351" style="stroke: #000000; stroke-width: 0.8"/>
      </g>
     </g>
     <g id="text_13">
      <!-- 1.02 -->
      <g transform="translate(412.522317 316.042729) scale(0.1 -0.1)">
       <use xlink:href="#DejaVuSans-2212"/>
       <use xlink:href="#DejaVuSans-31" transform="translate(83.789062 0)"/>
       <use xlink:href="#DejaVuSans-2e" transform="translate(147.412109 0)"/>
       <use xlink:href="#DejaVuSans-30" transform="translate(179.199219 0)"/>
       <use xlink:href="#DejaVuSans-32" transform="translate(242.822266 0)"/>
      </g>
     </g>
    </g>
    <g id="ytick_9">
     <g id="line2d_23">
      <g>
       <use xlink:href="#m4e87b058da" x="405.522317" y="275.477867" style="stroke: #000000; stroke-width: 0.8"/>
      </g>
     </g>
     <g id="text_14">
      <!-- 0.90 -->
      <g transform="translate(412.522317 279.277086) scale(0.1 -0.1)">
       <defs>
        <path id="DejaVuSans-39" d="M 703 97 
L 703 672 
Q 941 559 1184 500 
Q 1428 441 1663 441 
Q 2288 441 2617 861 
Q 2947 1281 2994 2138 
Q 2813 1869 2534 1725 
Q 2256 1581 1919 1581 
Q 1219 1581 811 2004 
Q 403 2428 403 3163 
Q 403 3881 828 4315 
Q 1253 4750 1959 4750 
Q 2769 4750 3195 4129 
Q 3622 3509 3622 2328 
Q 3622 1225 3098 567 
Q 2575 -91 1691 -91 
Q 1453 -91 1209 -44 
Q 966 3 703 97 
z
M 1959 2075 
Q 2384 2075 2632 2365 
Q 2881 2656 2881 3163 
Q 2881 3666 2632 3958 
Q 2384 4250 1959 4250 
Q 1534 4250 1286 3958 
Q 1038 3666 1038 3163 
Q 1038 2656 1286 2365 
Q 1534 2075 1959 2075 
z
" transform="scale(0.015625)"/>
       </defs>
       <use xlink:href="#DejaVuSans-2212"/>
       <use xlink:href="#DejaVuSans-30" transform="translate(83.789062 0)"/>
       <use xlink:href="#DejaVuSans-2e" transform="translate(147.412109 0)"/>
       <use xlink:href="#DejaVuSans-39" transform="translate(179.199219 0)"/>
       <use xlink:href="#DejaVuSans-30" transform="translate(242.822266 0)"/>
      </g>
     </g>
    </g>
    <g id="ytick_10">
     <g id="line2d_24">
      <g>
       <use xlink:href="#m4e87b058da" x="405.522317" y="238.712224" style="stroke: #000000; stroke-width: 0.8"/>
      </g>
     </g>
     <g id="text_15">
      <!-- 0.78 -->
      <g transform="translate(412.522317 242.511442) scale(0.1 -0.1)">
       <use xlink:href="#DejaVuSans-2212"/>
       <use xlink:href="#DejaVuSans-30" transform="translate(83.789062 0)"/>
       <use xlink:href="#DejaVuSans-2e" transform="translate(147.412109 0)"/>
       <use xlink:href="#DejaVuSans-37" transform="translate(179.199219 0)"/>
       <use xlink:href="#DejaVuSans-38" transform="translate(242.822266 0)"/>
      </g>
     </g>
    </g>
    <g id="ytick_11">
     <g id="line2d_25">
      <g>
       <use xlink:href="#m4e87b058da" x="405.522317" y="201.946581" style="stroke: #000000; stroke-width: 0.8"/>
      </g>
     </g>
     <g id="text_16">
      <!-- 0.66 -->
      <g transform="translate(412.522317 205.745799) scale(0.1 -0.1)">
       <defs>
        <path id="DejaVuSans-36" d="M 2113 2584 
Q 1688 2584 1439 2293 
Q 1191 2003 1191 1497 
Q 1191 994 1439 701 
Q 1688 409 2113 409 
Q 2538 409 2786 701 
Q 3034 994 3034 1497 
Q 3034 2003 2786 2293 
Q 2538 2584 2113 2584 
z
M 3366 4563 
L 3366 3988 
Q 3128 4100 2886 4159 
Q 2644 4219 2406 4219 
Q 1781 4219 1451 3797 
Q 1122 3375 1075 2522 
Q 1259 2794 1537 2939 
Q 1816 3084 2150 3084 
Q 2853 3084 3261 2657 
Q 3669 2231 3669 1497 
Q 3669 778 3244 343 
Q 2819 -91 2113 -91 
Q 1303 -91 875 529 
Q 447 1150 447 2328 
Q 447 3434 972 4092 
Q 1497 4750 2381 4750 
Q 2619 4750 2861 4703 
Q 3103 4656 3366 4563 
z
" transform="scale(0.015625)"/>
       </defs>
       <use xlink:href="#DejaVuSans-2212"/>
       <use xlink:href="#DejaVuSans-30" transform="translate(83.789062 0)"/>
       <use xlink:href="#DejaVuSans-2e" transform="translate(147.412109 0)"/>
       <use xlink:href="#DejaVuSans-36" transform="translate(179.199219 0)"/>
       <use xlink:href="#DejaVuSans-36" transform="translate(242.822266 0)"/>
      </g>
     </g>
    </g>
    <g id="ytick_12">
     <g id="line2d_26">
      <g>
       <use xlink:href="#m4e87b058da" x="405.522317" y="165.180937" style="stroke: #000000; stroke-width: 0.8"/>
      </g>
     </g>
     <g id="text_17">
      <!-- 0.54 -->
      <g transform="translate(412.522317 168.980156) scale(0.1 -0.1)">
       <use xlink:href="#DejaVuSans-2212"/>
       <use xlink:href="#DejaVuSans-30" transform="translate(83.789062 0)"/>
       <use xlink:href="#DejaVuSans-2e" transform="translate(147.412109 0)"/>
       <use xlink:href="#DejaVuSans-35" transform="translate(179.199219 0)"/>
       <use xlink:href="#DejaVuSans-34" transform="translate(242.822266 0)"/>
      </g>
     </g>
    </g>
    <g id="ytick_13">
     <g id="line2d_27">
      <g>
       <use xlink:href="#m4e87b058da" x="405.522317" y="128.415294" style="stroke: #000000; stroke-width: 0.8"/>
      </g>
     </g>
     <g id="text_18">
      <!-- 0.42 -->
      <g transform="translate(412.522317 132.214513) scale(0.1 -0.1)">
       <use xlink:href="#DejaVuSans-2212"/>
       <use xlink:href="#DejaVuSans-30" transform="translate(83.789062 0)"/>
       <use xlink:href="#DejaVuSans-2e" transform="translate(147.412109 0)"/>
       <use xlink:href="#DejaVuSans-34" transform="translate(179.199219 0)"/>
       <use xlink:href="#DejaVuSans-32" transform="translate(242.822266 0)"/>
      </g>
     </g>
    </g>
    <g id="ytick_14">
     <g id="line2d_28">
      <g>
       <use xlink:href="#m4e87b058da" x="405.522317" y="91.649651" style="stroke: #000000; stroke-width: 0.8"/>
      </g>
     </g>
     <g id="text_19">
      <!-- 0.30 -->
      <g transform="translate(412.522317 95.44887) scale(0.1 -0.1)">
       <use xlink:href="#DejaVuSans-2212"/>
       <use xlink:href="#DejaVuSans-30" transform="translate(83.789062 0)"/>
       <use xlink:href="#DejaVuSans-2e" transform="translate(147.412109 0)"/>
       <use xlink:href="#DejaVuSans-33" transform="translate(179.199219 0)"/>
       <use xlink:href="#DejaVuSans-30" transform="translate(242.822266 0)"/>
      </g>
     </g>
    </g>
    <g id="ytick_15">
     <g id="line2d_29">
      <g>
       <use xlink:href="#m4e87b058da" x="405.522317" y="54.884008" style="stroke: #000000; stroke-width: 0.8"/>
      </g>
     </g>
     <g id="text_20">
      <!-- 0.18 -->
      <g transform="translate(412.522317 58.683227) scale(0.1 -0.1)">
       <use xlink:href="#DejaVuSans-2212"/>
       <use xlink:href="#DejaVuSans-30" transform="translate(83.789062 0)"/>
       <use xlink:href="#DejaVuSans-2e" transform="translate(147.412109 0)"/>
       <use xlink:href="#DejaVuSans-31" transform="translate(179.199219 0)"/>
       <use xlink:href="#DejaVuSans-38" transform="translate(242.822266 0)"/>
      </g>
     </g>
    </g>
    <g id="ytick_16">
     <g id="line2d_30">
      <g>
       <use xlink:href="#m4e87b058da" x="405.522317" y="18.118365" style="stroke: #000000; stroke-width: 0.8"/>
      </g>
     </g>
     <g id="text_21">
      <!-- 0.06 -->
      <g transform="translate(412.522317 21.917584) scale(0.1 -0.1)">
       <use xlink:href="#DejaVuSans-2212"/>
       <use xlink:href="#DejaVuSans-30" transform="translate(83.789062 0)"/>
       <use xlink:href="#DejaVuSans-2e" transform="translate(147.412109 0)"/>
       <use xlink:href="#DejaVuSans-30" transform="translate(179.199219 0)"/>
       <use xlink:href="#DejaVuSans-36" transform="translate(242.822266 0)"/>
      </g>
     </g>
    </g>
    <g id="text_22">
     <!-- Score -->
     <g transform="translate(454.766067 179.183281) rotate(-90) scale(0.1 -0.1)">
      <defs>
       <path id="DejaVuSans-53" d="M 3425 4513 
L 3425 3897 
Q 3066 4069 2747 4153 
Q 2428 4238 2131 4238 
Q 1616 4238 1336 4038 
Q 1056 3838 1056 3469 
Q 1056 3159 1242 3001 
Q 1428 2844 1947 2747 
L 2328 2669 
Q 3034 2534 3370 2195 
Q 3706 1856 3706 1288 
Q 3706 609 3251 259 
Q 2797 -91 1919 -91 
Q 1588 -91 1214 -16 
Q 841 59 441 206 
L 441 856 
Q 825 641 1194 531 
Q 1563 422 1919 422 
Q 2459 422 2753 634 
Q 3047 847 3047 1241 
Q 3047 1584 2836 1778 
Q 2625 1972 2144 2069 
L 1759 2144 
Q 1053 2284 737 2584 
Q 422 2884 422 3419 
Q 422 4038 858 4394 
Q 1294 4750 2059 4750 
Q 2388 4750 2728 4690 
Q 3069 4631 3425 4513 
z
" transform="scale(0.015625)"/>
      </defs>
      <use xlink:href="#DejaVuSans-53"/>
      <use xlink:href="#DejaVuSans-63" transform="translate(63.476562 0)"/>
      <use xlink:href="#DejaVuSans-6f" transform="translate(118.457031 0)"/>
      <use xlink:href="#DejaVuSans-72" transform="translate(179.638672 0)"/>
      <use xlink:href="#DejaVuSans-65" transform="translate(218.501953 0)"/>
     </g>
    </g>
   </g>
   <g id="LineCollection_1"/>
   <g id="patch_8">
    <path d="M 390.816059 312.24351 
L 398.169188 312.24351 
L 405.522317 312.24351 
L 405.522317 18.118365 
L 398.169188 18.118365 
L 390.816059 18.118365 
L 390.816059 312.24351 
z
" style="fill: none; stroke: #000000; stroke-width: 0.8; stroke-linejoin: miter; stroke-linecap: square"/>
   </g>
  </g>
 </g>
 <defs>
  <clipPath id="pbacc817667">
   <rect x="39.58149" y="18.118365" width="334.509114" height="294.125145"/>
  </clipPath>
  <clipPath id="p54c7c1fd6a">
   <rect x="390.816059" y="18.118365" width="14.706257" height="294.125145"/>
  </clipPath>
 </defs>
</svg>
