<?xml version="1.0" encoding="utf-8" standalone="no"?>
<!DOCTYPE svg PUBLIC "-//W3C//DTD SVG 1.1//EN"
  "http://www.w3.org/Graphics/SVG/1.1/DTD/svg11.dtd">
<svg xmlns:xlink="http://www.w3.org/1999/xlink" width="468.217678pt" height="353.99952pt" viewBox="0 0 468.217678 353.99952" xmlns="http://www.w3.org/2000/svg" version="1.1">
 <metadata>
  <rdf:RDF xmlns:dc="http://purl.org/dc/elements/1.1/" xmlns:cc="http://creativecommons.org/ns#" xmlns:rdf="http://www.w3.org/1999/02/22-rdf-syntax-ns#">
   <cc:Work>
    <dc:type rdf:resource="http://purl.org/dc/dcmitype/StillImage"/>
    <dc:date>1970-01-01T00:00:00+00:00</dc:date>
    <dc:format>image/svg+xml</dc:format>
    <dc:creator>
     <cc:Agent>
      <dc:title>Matplotlib v3.10.7, https://matplotlib.org/</dc:title>
     </cc:Agent>
    </dc:creator>
   </cc:Work>
  </rdf:RDF>
 </metadata>
 <defs>
  <style type="text/css">*{stroke-linejoin: round; stroke-linecap: butt}</style>
 </defs>
 <g id="figure_1">
  <g id="patch_1">
   <path d="M 0 353.99952 
L 468.217678 353.99952 
L 468.217678 0 
L 0 0 
z
" style="fill: #ffffff"/>
  </g>
  <g id="axes_1">
   <g id="patch_2">
    <path d="M 43.78125 316.44327 
L 388.86802 316.44327 
L 388.86802 22.318125 
L 43.78125 22.318125 
z
" style="fill: #ffffff"/>
   </g>
   <g id="QuadContourSet_1">
    <path d="M 273.839097 292.389906 
L 279.114918 291.932841 
L 281.414303 267.422412 
L 273.839097 255.440367 
L 272.950785 267.422412 
L 273.614185 291.932841 
z
M 293.010584 316.44327 
L 295.912709 316.44327 
L 293.010584 304.181022 
L 292.079445 316.44327 
z
" clip-path="url(#p078e3c1532)" style="fill: #470d60"/>
    <path d="M 273.839097 296.233923 
L 289.755685 316.44327 
L 292.079445 316.44327 
L 293.010584 304.181022 
L 295.912709 316.44327 
L 301.939323 316.44327 
L 296.698986 291.932841 
L 293.341616 267.422412 
L 293.010584 266.287487 
L 280.436812 242.911984 
L 273.992246 218.401555 
L 273.839097 217.706596 
L 273.351944 218.401555 
L 271.134931 242.911984 
L 270.919409 267.422412 
L 271.659999 291.932841 
z
M 273.614185 291.932841 
L 272.950785 267.422412 
L 273.839097 255.440367 
L 281.414303 267.422412 
L 279.114918 291.932841 
L 273.839097 292.389906 
z
" clip-path="url(#p078e3c1532)" style="fill: #482475"/>
    <path d="M 273.839097 300.077939 
L 287.257545 316.44327 
L 289.755685 316.44327 
L 273.839097 296.233923 
L 271.659999 291.932841 
L 270.919409 267.422412 
L 271.134931 242.911984 
L 273.351944 218.401555 
L 273.839097 217.706596 
L 273.992246 218.401555 
L 280.436812 242.911984 
L 293.010584 266.287487 
L 293.341616 267.422412 
L 296.698986 291.932841 
L 301.939323 316.44327 
L 307.040682 316.44327 
L 302.234449 291.932841 
L 298.077233 267.422412 
L 293.010584 248.753856 
L 290.284732 242.911984 
L 281.871464 218.401555 
L 276.485675 193.891126 
L 273.839097 179.7705 
L 270.104371 169.380697 
L 261.001835 144.870269 
L 254.667609 122.24853 
L 245.491684 144.870269 
L 250.079798 169.380697 
L 254.667609 186.854728 
L 265.254363 193.891126 
L 254.667609 204.49513 
L 253.56966 218.401555 
L 254.667609 224.812887 
L 265.25152 242.911984 
L 268.756037 267.422412 
L 269.583961 291.932841 
z
M 235.496122 107.153808 
L 245.957888 95.849411 
L 236.794657 71.338982 
L 235.496122 66.751658 
L 233.963538 71.338982 
L 231.842171 95.849411 
z
" clip-path="url(#p078e3c1532)" style="fill: #443983"/>
    <path d="M 62.952737 316.44327 
L 82.124224 316.44327 
L 101.295712 316.44327 
L 120.467199 316.44327 
L 139.638686 316.44327 
L 158.810173 316.44327 
L 177.981661 316.44327 
L 185.594229 316.44327 
L 177.981661 310.703128 
L 161.0795 291.932841 
L 158.810173 290.156271 
L 139.638686 281.246991 
L 128.050199 267.422412 
L 120.467199 261.159281 
L 104.412581 242.911984 
L 101.295712 240.69127 
L 82.124224 232.005421 
L 71.647489 218.401555 
L 62.952737 211.637373 
L 47.180298 193.891126 
L 43.78125 191.157941 
L 43.78125 193.891126 
L 43.78125 218.401555 
L 43.78125 242.911984 
L 43.78125 267.422412 
L 43.78125 291.932841 
L 43.78125 316.44327 
z
M 273.839097 303.921956 
L 284.556714 316.44327 
L 287.257545 316.44327 
L 273.839097 300.077939 
L 269.583961 291.932841 
L 268.756037 267.422412 
L 265.25152 242.911984 
L 254.667609 224.812887 
L 253.56966 218.401555 
L 254.667609 204.49513 
L 265.254363 193.891126 
L 254.667609 186.854728 
L 250.079798 169.380697 
L 245.491684 144.870269 
L 254.667609 122.24853 
L 261.001835 144.870269 
L 270.104371 169.380697 
L 273.839097 179.7705 
L 276.485675 193.891126 
L 281.871464 218.401555 
L 290.284732 242.911984 
L 293.010584 248.753856 
L 298.077233 267.422412 
L 302.234449 291.932841 
L 307.040682 316.44327 
L 311.463439 316.44327 
L 306.979659 291.932841 
L 302.222547 267.422412 
L 296.322543 242.911984 
L 293.010584 232.381815 
L 288.238634 218.401555 
L 282.163752 193.891126 
L 277.660484 169.380698 
L 273.839097 157.704417 
L 268.861702 144.870269 
L 262.183144 120.35984 
L 255.838533 95.849411 
L 254.667609 92.429029 
L 246.988808 71.338982 
L 241.237237 46.828554 
L 235.496122 29.587274 
L 216.663417 46.828554 
L 216.324635 49.167747 
L 216.108074 71.338982 
L 216.324635 72.442759 
L 226.312902 95.849411 
L 234.856838 120.35984 
L 234.167837 144.870269 
L 235.496122 151.47471 
L 244.420815 169.380697 
L 251.635826 193.891126 
L 251.254576 218.401555 
L 254.667609 237.658269 
L 258.100913 242.911984 
L 266.442314 267.422412 
L 267.369858 291.932841 
z
M 231.842171 95.849411 
L 233.963538 71.338982 
L 235.496122 66.751658 
L 236.794657 71.338982 
L 245.957888 95.849411 
L 235.496122 107.153808 
z
M 446.382482 316.44327 
L 465.553969 316.44327 
L 484.725456 316.44327 
L 503.896943 316.44327 
L 523.06843 316.44327 
L 542.239918 316.44327 
L 561.411405 316.44327 
L 580.582892 316.44327 
L 599.754379 316.44327 
L 618.925866 316.44327 
L 638.097354 316.44327 
L 657.268841 316.44327 
L 676.440328 316.44327 
L 695.611815 316.44327 
L 714.783303 316.44327 
L 733.95479 316.44327 
L 753.126277 316.44327 
L 772.297764 316.44327 
L 791.469251 316.44327 
L 810.640739 316.44327 
L 829.812226 316.44327 
L 848.983713 316.44327 
L 868.1552 316.44327 
L 887.326687 316.44327 
L 887.326687 291.932841 
L 887.326687 267.422412 
L 887.326687 242.911984 
L 887.326687 218.401555 
L 887.326687 193.891126 
L 887.326687 169.380697 
L 887.326687 144.870269 
L 887.326687 120.35984 
L 887.326687 95.849411 
L 887.326687 71.338982 
L 887.326687 46.828554 
L 887.326687 22.318125 
L 868.1552 22.318125 
L 848.983713 22.318125 
L 829.812226 22.318125 
L 810.640739 22.318125 
L 791.469251 22.318125 
L 772.297764 22.318125 
L 753.126277 22.318125 
L 733.95479 22.318125 
L 714.783303 22.318125 
L 695.611815 22.318125 
L 676.440328 22.318125 
L 657.268841 22.318125 
L 638.097354 22.318125 
L 618.925866 22.318125 
L 599.754379 22.318125 
L 580.582892 22.318125 
L 561.411405 22.318125 
L 542.239918 22.318125 
L 523.06843 22.318125 
L 503.896943 22.318125 
L 484.725456 22.318125 
L 465.553969 22.318125 
L 446.382482 22.318125 
L 427.210994 22.318125 
L 408.039507 22.318125 
L 388.86802 22.318125 
L 384.322857 22.318125 
L 387.653332 46.828554 
L 388.86802 56.636934 
L 395.741782 71.338982 
L 402.863298 95.849411 
L 407.13337 120.35984 
L 408.039507 126.54215 
L 416.269054 144.870269 
L 422.337139 169.380697 
L 425.958455 193.891126 
L 427.210994 204.883669 
L 431.457176 218.401555 
L 436.083127 242.911984 
L 438.321499 267.422412 
L 437.838406 291.932841 
L 432.200248 316.44327 
z
" clip-path="url(#p078e3c1532)" style="fill: #3d4d8a"/>
    <path d="M 177.981661 310.703128 
L 185.594229 316.44327 
L 197.153148 316.44327 
L 203.794349 316.44327 
L 197.153148 310.701326 
L 177.981661 292.092036 
L 177.869049 291.932841 
L 158.810173 272.475734 
L 153.125131 267.422412 
L 139.638686 255.75767 
L 128.492905 242.911984 
L 120.467199 235.991195 
L 101.295712 218.590599 
L 101.095256 218.401555 
L 82.124224 200.27065 
L 76.284911 193.891126 
L 62.952737 181.340398 
L 51.998828 169.380697 
L 43.78125 162.971008 
L 43.78125 169.380697 
L 43.78125 191.157941 
L 47.180298 193.891126 
L 62.952737 211.637373 
L 71.647489 218.401555 
L 82.124224 232.005421 
L 101.295712 240.69127 
L 104.412581 242.911984 
L 120.467199 261.159281 
L 128.050199 267.422412 
L 139.638686 281.246991 
L 158.810173 290.156271 
L 161.0795 291.932841 
z
M 273.839097 307.765973 
L 281.617373 316.44327 
L 284.556714 316.44327 
L 273.839097 303.921956 
L 267.369858 291.932841 
L 266.442314 267.422412 
L 258.100913 242.911984 
L 254.667609 237.658269 
L 251.254576 218.401555 
L 251.635826 193.891126 
L 244.420815 169.380697 
L 235.496122 151.47471 
L 234.167837 144.870269 
L 234.856838 120.35984 
L 226.312902 95.849411 
L 216.324635 72.442759 
L 216.108074 71.338982 
L 216.324635 49.167747 
L 216.663417 46.828554 
L 235.496122 29.587274 
L 241.237237 46.828554 
L 246.988808 71.338982 
L 254.667609 92.429029 
L 255.838533 95.849411 
L 262.183144 120.35984 
L 268.861702 144.870269 
L 273.839097 157.704417 
L 277.660484 169.380697 
L 282.163752 193.891126 
L 288.238634 218.401555 
L 293.010584 232.381815 
L 296.322543 242.911984 
L 302.222547 267.422412 
L 306.979659 291.932841 
L 311.463439 316.44327 
L 312.182071 316.44327 
L 315.376779 316.44327 
L 312.182071 298.031856 
L 311.13232 291.932841 
L 305.908545 267.422412 
L 300.743514 242.911984 
L 293.6596 218.401555 
L 293.010584 216.61167 
L 287.013312 193.891126 
L 282.470876 169.380697 
L 275.382855 144.870269 
L 273.839097 140.086606 
L 268.631051 120.35984 
L 262.368411 95.849411 
L 254.801581 71.338982 
L 254.667609 70.757646 
L 249.85419 46.828554 
L 242.363783 22.318125 
L 235.496122 22.318125 
L 216.324635 22.318125 
L 209.693581 22.318125 
L 211.517121 46.828554 
L 212.731259 71.338982 
L 216.324635 88.756931 
L 219.679259 95.849411 
L 228.67766 120.35984 
L 231.139573 144.870269 
L 235.496122 165.582339 
L 237.599386 169.380697 
L 246.071518 193.891126 
L 248.76646 218.401555 
L 252.58812 242.911984 
L 254.667609 246.79499 
L 263.95577 267.422412 
L 264.99801 291.932841 
z
M 427.210994 316.44327 
L 432.200248 316.44327 
L 437.838406 291.932841 
L 438.321499 267.422412 
L 436.083127 242.911984 
L 431.457176 218.401555 
L 427.210994 204.883669 
L 425.958455 193.891126 
L 422.337139 169.380697 
L 416.269054 144.870269 
L 408.039507 126.54215 
L 407.13337 120.35984 
L 402.863298 95.849411 
L 395.741782 71.338982 
L 388.86802 56.636934 
L 387.653332 46.828554 
L 384.322857 22.318125 
L 371.558578 22.318125 
L 378.213238 46.828554 
L 383.061865 71.338982 
L 386.890079 95.849411 
L 388.86802 109.988558 
L 393.153599 120.35984 
L 400.409909 144.870269 
L 405.11035 169.380697 
L 408.039507 190.901792 
L 409.203683 193.891126 
L 416.401058 218.401555 
L 420.815276 242.911984 
L 423.128254 267.422412 
L 423.41408 291.932841 
L 421.520587 316.44327 
z
" clip-path="url(#p078e3c1532)" style="fill: #355f8d"/>
    <path d="M 177.981661 292.092036 
L 197.153148 310.701326 
L 203.794349 316.44327 
L 216.324635 316.44327 
L 216.724205 316.44327 
L 216.324635 316.014906 
L 197.153148 295.336985 
L 194.378342 291.932841 
L 177.981661 274.830903 
L 172.001793 267.422412 
L 158.810173 254.130554 
L 149.062739 242.911984 
L 139.638686 234.083264 
L 125.903698 218.401555 
L 120.467199 213.077128 
L 104.542561 193.891126 
L 101.295712 190.733578 
L 83.697385 169.380697 
L 82.124224 167.966167 
L 62.952737 147.663184 
L 60.542322 144.870269 
L 43.78125 128.606837 
L 43.78125 144.870269 
L 43.78125 162.971008 
L 51.998828 169.380697 
L 62.952737 181.340398 
L 76.284911 193.891126 
L 82.124224 200.27065 
L 101.095256 218.401555 
L 101.295712 218.590599 
L 120.467199 235.991195 
L 128.492905 242.911984 
L 139.638686 255.75767 
L 153.125131 267.422412 
L 158.810173 272.475734 
L 177.869049 291.932841 
z
M 273.839097 311.60999 
L 278.393281 316.44327 
L 281.617373 316.44327 
L 273.839097 307.765973 
L 264.99801 291.932841 
L 263.95577 267.422412 
L 254.667609 246.79499 
L 252.58812 242.911984 
L 248.76646 218.401555 
L 246.071518 193.891126 
L 237.599386 169.380697 
L 235.496122 165.582339 
L 231.139573 144.870269 
L 228.67766 120.35984 
L 219.679259 95.849411 
L 216.324635 88.756931 
L 212.731259 71.338982 
L 211.517121 46.828554 
L 209.693581 22.318125 
L 197.153148 22.318125 
L 196.219803 22.318125 
L 197.153148 26.714108 
L 205.852587 46.828554 
L 208.973021 71.338982 
L 214.077096 95.849411 
L 216.324635 108.614398 
L 221.084742 120.35984 
L 227.808164 144.870269 
L 232.671309 169.380697 
L 235.496122 183.979512 
L 239.387326 193.891126 
L 246.077344 218.401555 
L 248.743797 242.911984 
L 254.667609 253.36518 
L 261.268489 267.422412 
L 262.444203 291.932841 
z
M 312.182071 298.031856 
L 315.376779 316.44327 
L 318.880111 316.44327 
L 315.053755 291.932841 
L 312.182071 281.485529 
L 309.226939 267.422412 
L 304.645805 242.911984 
L 298.838563 218.401555 
L 293.010584 201.007459 
L 291.245636 193.891126 
L 286.67335 169.380697 
L 281.294587 144.870269 
L 274.13829 120.35984 
L 273.839097 119.662451 
L 267.825471 95.849411 
L 262.026708 71.338982 
L 257.317188 46.828554 
L 254.667609 40.191745 
L 249.548635 22.318125 
L 242.363783 22.318125 
L 249.85419 46.828554 
L 254.667609 70.757646 
L 254.801581 71.338982 
L 262.368411 95.849411 
L 268.631051 120.35984 
L 273.839097 140.086606 
L 275.382855 144.870269 
L 282.470876 169.380697 
L 287.013312 193.891126 
L 293.010584 216.61167 
L 293.6596 218.401555 
L 300.743514 242.911984 
L 305.908545 267.422412 
L 311.13232 291.932841 
z
M 423.41408 291.932841 
L 423.128254 267.422412 
L 420.815276 242.911984 
L 416.401058 218.401555 
L 409.203683 193.891126 
L 408.039507 190.901792 
L 405.11035 169.380697 
L 400.409909 144.870269 
L 393.153599 120.35984 
L 388.86802 109.988558 
L 386.890079 95.849411 
L 383.061865 71.338982 
L 378.213238 46.828554 
L 371.558578 22.318125 
L 369.696533 22.318125 
L 363.621641 22.318125 
L 367.823248 46.828554 
L 369.696533 58.473434 
L 373.660817 71.338982 
L 379.711953 95.849411 
L 384.372223 120.35984 
L 388.195086 144.870269 
L 388.86802 149.412126 
L 395.836578 169.380697 
L 401.564807 193.891126 
L 405.365631 218.401555 
L 407.979265 242.911984 
L 408.039507 243.683063 
L 413.178422 267.422412 
L 414.875495 291.932841 
L 412.878759 316.44327 
L 421.520587 316.44327 
z
" clip-path="url(#p078e3c1532)" style="fill: #2d708e"/>
    <path d="M 197.153148 295.336985 
L 216.324635 316.014906 
L 216.724205 316.44327 
L 223.182962 316.44327 
L 216.324635 308.327782 
L 203.449458 291.932841 
L 197.153148 285.051225 
L 183.299502 267.422412 
L 177.981661 261.818605 
L 162.972772 242.911984 
L 158.810173 238.381067 
L 142.454297 218.401555 
L 139.638686 215.573666 
L 122.781034 193.891126 
L 120.467199 191.537623 
L 103.449632 169.380697 
L 101.295712 167.149213 
L 83.454536 144.870269 
L 82.124224 143.5298 
L 63.407524 120.35984 
L 62.952737 119.843356 
L 44.111522 95.849411 
L 43.78125 95.535547 
L 43.78125 95.849411 
L 43.78125 120.35984 
L 43.78125 128.606837 
L 60.542322 144.870269 
L 62.952737 147.663184 
L 82.124224 167.966167 
L 83.697385 169.380697 
L 101.295712 190.733578 
L 104.542561 193.891126 
L 120.467199 213.077128 
L 125.903698 218.401555 
L 139.638686 234.083264 
L 149.062739 242.911984 
L 158.810173 254.130554 
L 172.001793 267.422412 
L 177.981661 274.830903 
L 194.378342 291.932841 
z
M 273.839097 315.454007 
L 274.823288 316.44327 
L 278.393281 316.44327 
L 273.839097 311.60999 
L 262.444203 291.932841 
L 261.268489 267.422412 
L 254.667609 253.36518 
L 248.743797 242.911984 
L 246.077344 218.401555 
L 239.387326 193.891126 
L 235.496122 183.979512 
L 232.671309 169.380697 
L 227.808164 144.870269 
L 221.084742 120.35984 
L 216.324635 108.614398 
L 214.077096 95.849411 
L 208.973021 71.338982 
L 205.852587 46.828554 
L 197.153148 26.714108 
L 196.219803 22.318125 
L 192.529611 22.318125 
L 197.153148 42.936873 
L 199.023082 46.828554 
L 204.736093 71.338982 
L 209.686636 95.849411 
L 213.571654 120.35984 
L 216.324635 125.582745 
L 224.106096 144.870269 
L 228.370987 169.380697 
L 232.068401 193.891126 
L 235.496122 198.397385 
L 243.151874 218.401555 
L 244.397104 242.911984 
L 254.667609 259.93537 
L 258.345193 267.422412 
L 259.678183 291.932841 
z
M 318.639031 291.932841 
L 312.285015 267.422412 
L 312.182071 267.02078 
L 308.138441 242.911984 
L 303.319503 218.401555 
L 296.610029 193.891126 
L 293.010584 183.728811 
L 290.404462 169.380697 
L 286.31345 144.870269 
L 281.119897 120.35984 
L 273.839097 101.476204 
L 272.512983 95.849411 
L 267.960409 71.338982 
L 264.495949 46.828554 
L 256.40097 22.318125 
L 254.667609 22.318125 
L 249.548635 22.318125 
L 254.667609 40.191745 
L 257.317188 46.828554 
L 262.026708 71.338982 
L 267.825471 95.849411 
L 273.839097 119.662451 
L 274.13829 120.35984 
L 281.294587 144.870269 
L 286.67335 169.380697 
L 291.245636 193.891126 
L 293.010584 201.007459 
L 298.838563 218.401555 
L 304.645805 242.911984 
L 309.226939 267.422412 
L 312.182071 281.485529 
L 315.053755 291.932841 
L 318.880111 316.44327 
L 322.049746 316.44327 
z
M 408.039507 316.44327 
L 412.878759 316.44327 
L 414.875495 291.932841 
L 413.178422 267.422412 
L 408.039507 243.683063 
L 407.979265 242.911984 
L 405.365631 218.401555 
L 401.564807 193.891126 
L 395.836578 169.380697 
L 388.86802 149.412126 
L 388.195086 144.870269 
L 384.372223 120.35984 
L 379.711953 95.849411 
L 373.660817 71.338982 
L 369.696533 58.473434 
L 367.823248 46.828554 
L 363.621641 22.318125 
L 355.069561 22.318125 
L 360.978245 46.828554 
L 365.871083 71.338982 
L 369.696533 93.190431 
L 370.549182 95.849411 
L 377.433914 120.35984 
L 382.679767 144.870269 
L 386.920124 169.380697 
L 388.86802 181.824502 
L 393.011497 193.891126 
L 399.135727 218.401555 
L 403.121237 242.911984 
L 405.62076 267.422412 
L 406.749188 291.932841 
L 406.406238 316.44327 
z
" clip-path="url(#p078e3c1532)" style="fill: #27808e"/>
    <path d="M 216.324635 308.327782 
L 223.182962 316.44327 
L 228.590308 316.44327 
L 216.324635 300.640658 
L 210.107155 291.932841 
L 197.153148 276.210944 
L 190.961571 267.422412 
L 177.981661 251.996143 
L 171.602591 242.911984 
L 158.810173 226.974297 
L 152.744622 218.401555 
L 139.638686 202.944702 
L 133.599154 193.891126 
L 120.467199 178.079764 
L 114.776087 169.380697 
L 101.295712 152.71587 
L 96.03744 144.870269 
L 82.124224 127.813467 
L 77.166762 120.35984 
L 62.952737 100.362821 
L 60.12969 95.849411 
L 43.78125 75.890506 
L 43.78125 95.535547 
L 44.111522 95.849411 
L 62.952737 119.843356 
L 63.407524 120.35984 
L 82.124224 143.5298 
L 83.454536 144.870269 
L 101.295712 167.149213 
L 103.449632 169.380697 
L 120.467199 191.537623 
L 122.781034 193.891126 
L 139.638686 215.573666 
L 142.454297 218.401555 
L 158.810173 238.381067 
L 162.972772 242.911984 
L 177.981661 261.818605 
L 183.299502 267.422412 
L 197.153148 285.051225 
L 203.449458 291.932841 
z
M 273.839097 316.44327 
L 274.823288 316.44327 
L 273.839097 315.454007 
L 259.678183 291.932841 
L 258.345193 267.422412 
L 254.667609 259.93537 
L 244.397104 242.911984 
L 243.151874 218.401555 
L 235.496122 198.397385 
L 232.068401 193.891126 
L 228.370987 169.380697 
L 224.106096 144.870269 
L 216.324635 125.582745 
L 213.571654 120.35984 
L 209.686636 95.849411 
L 204.736093 71.338982 
L 199.023082 46.828554 
L 197.153148 42.936873 
L 192.529611 22.318125 
L 188.37899 22.318125 
L 192.128213 46.828554 
L 197.153148 61.602382 
L 199.880486 71.338982 
L 204.628218 95.849411 
L 206.979842 120.35984 
L 216.324635 136.466272 
L 219.940441 144.870269 
L 223.431901 169.380697 
L 224.000197 193.891126 
L 235.496122 207.340788 
L 239.944464 218.401555 
L 239.396722 242.911984 
L 254.667609 266.505559 
L 255.140395 267.422412 
L 256.661457 291.932841 
L 267.088185 316.44327 
z
M 321.875581 291.932841 
L 316.732677 267.422412 
L 312.182071 248.427651 
L 311.299319 242.911984 
L 307.268427 218.401555 
L 302.356663 193.891126 
L 294.916537 169.380697 
L 293.010584 162.481193 
L 290.674094 144.870269 
L 286.888551 120.35984 
L 280.294844 95.849411 
L 273.839097 76.471999 
L 272.995085 71.338982 
L 270.398381 46.828554 
L 266.461429 22.318125 
L 256.40097 22.318125 
L 264.495949 46.828554 
L 267.960409 71.338982 
L 272.512983 95.849411 
L 273.839097 101.476204 
L 281.119897 120.35984 
L 286.31345 144.870269 
L 290.404462 169.380697 
L 293.010584 183.728811 
L 296.610029 193.891126 
L 303.319503 218.401555 
L 308.138441 242.911984 
L 312.182071 267.02078 
L 312.285015 267.422412 
L 318.639031 291.932841 
L 322.049746 316.44327 
L 324.943762 316.44327 
z
M 406.749188 291.932841 
L 405.62076 267.422412 
L 403.121237 242.911984 
L 399.135727 218.401555 
L 393.011497 193.891126 
L 388.86802 181.824502 
L 386.920124 169.380697 
L 382.679767 144.870269 
L 377.433914 120.35984 
L 370.549182 95.849411 
L 369.696533 93.190431 
L 365.871083 71.338982 
L 360.978245 46.828554 
L 355.069561 22.318125 
L 350.525045 22.318125 
L 346.856714 22.318125 
L 350.525045 40.885917 
L 352.352527 46.828554 
L 359.034724 71.338982 
L 364.481624 95.849411 
L 369.15882 120.35984 
L 369.696533 123.2264 
L 376.066214 144.870269 
L 381.656372 169.380697 
L 386.17021 193.891126 
L 388.86802 210.423663 
L 391.465956 218.401555 
L 397.43154 242.911984 
L 401.066101 267.422412 
L 402.934777 291.932841 
L 403.17439 316.44327 
L 406.406238 316.44327 
z
" clip-path="url(#p078e3c1532)" style="fill: #21918c"/>
    <path d="M 216.324635 300.640658 
L 228.590308 316.44327 
L 233.241113 316.44327 
L 216.324635 292.953534 
L 215.653109 291.932841 
L 197.238881 267.422412 
L 197.153148 267.375892 
L 178.593805 242.911984 
L 177.981661 242.141482 
L 161.231304 218.401555 
L 158.810173 215.473052 
L 142.94055 193.891126 
L 139.638686 190.243077 
L 124.816691 169.380698 
L 120.467199 164.063742 
L 107.505999 144.870269 
L 101.295712 137.853144 
L 89.448011 120.35984 
L 82.124224 111.71276 
L 72.826009 95.849411 
L 62.952737 84.528747 
L 54.008702 71.338982 
L 43.78125 57.675928 
L 43.78125 71.338982 
L 43.78125 75.890506 
L 60.12969 95.849411 
L 62.952737 100.362821 
L 77.166762 120.35984 
L 82.124224 127.813467 
L 96.03744 144.870269 
L 101.295712 152.71587 
L 114.776087 169.380697 
L 120.467199 178.079764 
L 133.599154 193.891126 
L 139.638686 202.944702 
L 152.744622 218.401555 
L 158.810173 226.974297 
L 171.602591 242.911984 
L 177.981661 251.996143 
L 190.961571 267.422412 
L 197.153148 276.210944 
L 210.107155 291.932841 
z
M 254.667609 314.7456 
L 255.08645 316.44327 
L 267.088185 316.44327 
L 256.661457 291.932841 
L 255.140395 267.422412 
L 254.667609 266.505559 
L 239.396722 242.911984 
L 239.944464 218.401555 
L 235.496122 207.340788 
L 224.000197 193.891126 
L 223.431901 169.380697 
L 219.940441 144.870269 
L 216.324635 136.466272 
L 206.979842 120.35984 
L 204.628218 95.849411 
L 199.880486 71.338982 
L 197.153148 61.602382 
L 192.128213 46.828554 
L 188.37899 22.318125 
L 183.636446 22.318125 
L 184.097829 46.828554 
L 188.444429 71.338982 
L 177.981661 87.132803 
L 174.757157 95.849411 
L 166.63893 120.35984 
L 177.981661 130.687441 
L 193.432552 120.35984 
L 189.373555 95.849411 
L 197.153148 88.217086 
L 198.661487 95.849411 
L 198.753091 120.35984 
L 197.153148 130.226292 
L 193.195158 144.870269 
L 179.157576 169.380697 
L 197.153148 183.891556 
L 210.30316 193.891126 
L 212.958817 218.401555 
L 216.324635 241.941869 
L 218.412251 242.911984 
L 235.496122 250.661331 
L 245.382277 267.422412 
L 252.670893 291.932841 
z
M 231.587723 218.401555 
L 235.496122 216.28419 
L 236.394919 218.401555 
L 235.496122 228.866293 
z
M 212.40763 169.380697 
L 216.324635 157.858946 
L 217.630621 169.380697 
L 216.324635 180.359127 
z
M 324.825271 291.932841 
L 320.655741 267.422412 
L 315.819664 242.911984 
L 312.182071 227.590588 
L 310.798365 218.401555 
L 307.25611 193.891126 
L 302.073835 169.380697 
L 296.372912 144.870269 
L 293.010584 130.098741 
L 291.803985 120.35984 
L 287.86358 95.849411 
L 283.666091 71.338982 
L 279.424149 46.828554 
L 274.736435 22.318125 
L 273.839097 22.318125 
L 266.461429 22.318125 
L 270.398381 46.828554 
L 272.995085 71.338983 
L 273.839097 76.471999 
L 280.294844 95.849411 
L 286.888551 120.35984 
L 290.674094 144.870269 
L 293.010584 162.481193 
L 294.916537 169.380697 
L 302.356663 193.891126 
L 307.268427 218.401555 
L 311.299319 242.911984 
L 312.182071 248.427651 
L 316.732677 267.422412 
L 321.875581 291.932841 
L 324.943762 316.44327 
L 327.606281 316.44327 
z
M 402.934777 291.932841 
L 401.066101 267.422412 
L 397.43154 242.911984 
L 391.465956 218.401555 
L 388.86802 210.423663 
L 386.17021 193.891126 
L 381.656372 169.380697 
L 376.066214 144.870269 
L 369.696533 123.2264 
L 369.15882 120.35984 
L 364.481624 95.849411 
L 359.034724 71.338982 
L 352.352527 46.828554 
L 350.525045 40.885917 
L 346.856714 22.318125 
L 339.160127 22.318125 
L 345.065909 46.828554 
L 350.459025 71.338982 
L 350.525045 71.633053 
L 357.700866 95.849411 
L 363.54661 120.35984 
L 368.626256 144.870269 
L 369.696533 150.116829 
L 375.401605 169.380697 
L 381.127268 193.891126 
L 385.764475 218.401555 
L 388.86802 237.175361 
L 390.565383 242.911984 
L 395.78836 267.422412 
L 398.626297 291.932841 
L 399.594885 316.44327 
L 403.17439 316.44327 
z
M 158.810173 80.191218 
L 170.471118 71.338982 
L 165.542915 46.828554 
L 158.810173 42.36763 
L 146.737151 22.318125 
L 139.638686 22.318125 
L 133.143567 22.318125 
L 125.133486 46.828554 
L 139.638686 61.389443 
L 150.135178 71.338982 
z
" clip-path="url(#p078e3c1532)" style="fill: #1fa188"/>
    <path d="M 216.324635 292.953534 
L 233.241113 316.44327 
L 235.496122 316.44327 
L 254.667609 316.44327 
L 255.08645 316.44327 
L 254.667609 314.7456 
L 252.670893 291.932841 
L 245.382277 267.422412 
L 235.496122 250.661331 
L 218.412251 242.911984 
L 216.324635 241.941869 
L 212.958817 218.401555 
L 210.30316 193.891126 
L 197.153148 183.891556 
L 179.157576 169.380697 
L 193.195158 144.870269 
L 197.153148 130.226292 
L 198.753091 120.35984 
L 198.661487 95.849411 
L 197.153148 88.217086 
L 189.373555 95.849411 
L 193.432552 120.35984 
L 177.981661 130.687441 
L 166.63893 120.35984 
L 174.757157 95.849411 
L 177.981661 87.132803 
L 188.444429 71.338982 
L 184.097829 46.828554 
L 183.636446 22.318125 
L 178.104611 22.318125 
L 177.981661 23.551952 
L 158.810173 24.431584 
L 157.7252 22.318125 
L 146.737151 22.318125 
L 158.810173 42.36763 
L 165.542915 46.828554 
L 170.471118 71.338982 
L 158.810173 80.191218 
L 150.135178 71.338982 
L 139.638686 61.389443 
L 125.133486 46.828554 
L 133.143567 22.318125 
L 120.467199 22.318125 
L 101.295712 22.318125 
L 95.076551 22.318125 
L 101.295712 30.694324 
L 115.645244 46.828554 
L 119.814925 71.338982 
L 120.467199 72.268318 
L 133.014857 95.849411 
L 139.638686 105.007389 
L 153.968435 120.35984 
L 158.810173 136.981622 
L 170.754766 144.870269 
L 170.36216 169.380697 
L 177.981661 179.335022 
L 192.574387 193.891126 
L 197.153148 200.864639 
L 207.46234 218.401555 
L 211.325553 242.911984 
L 216.324635 256.648956 
L 230.958144 267.422412 
L 235.496122 271.595056 
L 246.87908 291.932841 
L 235.496122 310.737089 
L 224.604398 291.932841 
L 216.324635 278.883542 
L 209.364287 267.422412 
L 197.153148 259.428865 
L 185.819678 242.911984 
L 177.981661 231.890635 
L 169.510486 218.401555 
L 158.810173 203.686027 
L 152.523019 193.891126 
L 139.638686 177.357459 
L 134.718372 169.380697 
L 120.467199 149.027401 
L 118.056531 144.870269 
L 101.295712 122.47905 
L 100.065522 120.35984 
L 82.65121 95.849411 
L 82.124224 95.201085 
L 64.823769 71.338982 
L 62.952737 69.022201 
L 50.341128 46.828554 
L 43.78125 38.999309 
L 43.78125 46.828554 
L 43.78125 57.675928 
L 54.008702 71.338982 
L 62.952737 84.528747 
L 72.826009 95.849411 
L 82.124224 111.71276 
L 89.448011 120.35984 
L 101.295712 137.853144 
L 107.505999 144.870269 
L 120.467199 164.063742 
L 124.816691 169.380697 
L 139.638686 190.243077 
L 142.94055 193.891126 
L 158.810173 215.473052 
L 161.231304 218.401555 
L 177.981661 242.141482 
L 178.593805 242.911984 
L 197.153148 267.375892 
L 197.238881 267.422412 
L 215.653109 291.932841 
z
M 327.534837 291.932841 
L 324.165006 267.422412 
L 320.390528 242.911984 
L 315.737665 218.401555 
L 312.182071 199.338847 
L 311.526366 193.891126 
L 307.961768 169.380697 
L 303.415208 144.870269 
L 299.386043 120.35984 
L 295.006099 95.849411 
L 293.010584 75.437175 
L 292.728439 71.338982 
L 292.21057 46.828554 
L 289.201024 22.318125 
L 274.736435 22.318125 
L 279.424149 46.828554 
L 283.666091 71.338982 
L 287.86358 95.849411 
L 291.803985 120.35984 
L 293.010584 130.098741 
L 296.372912 144.870269 
L 302.073835 169.380697 
L 307.25611 193.891126 
L 310.798365 218.401555 
L 312.182071 227.590588 
L 315.819664 242.911984 
L 320.655741 267.422412 
L 324.825271 291.932841 
L 327.606281 316.44327 
L 330.071612 316.44327 
z
M 398.626297 291.932841 
L 395.78836 267.422412 
L 390.565383 242.911984 
L 388.86802 237.175361 
L 385.764475 218.401555 
L 381.127268 193.891126 
L 375.401605 169.380697 
L 369.696533 150.116829 
L 368.626256 144.870269 
L 363.54661 120.35984 
L 357.700866 95.849411 
L 350.525045 71.633053 
L 350.459025 71.338982 
L 345.065909 46.828554 
L 339.160127 22.318125 
L 331.353558 22.318125 
L 329.385837 22.318125 
L 331.353558 28.742255 
L 336.902887 46.828554 
L 343.426215 71.338982 
L 349.541801 95.849411 
L 350.525045 99.685776 
L 356.793101 120.35984 
L 362.923989 144.870269 
L 368.410556 169.380697 
L 369.696533 175.127521 
L 375.182075 193.891126 
L 380.83752 218.401555 
L 385.448409 242.911984 
L 388.86802 264.829459 
L 389.513812 267.422412 
L 393.676442 291.932841 
L 395.58381 316.44327 
L 399.594885 316.44327 
z
M 235.496122 228.866293 
L 236.394919 218.401555 
L 235.496122 216.28419 
L 231.587723 218.401555 
z
M 216.324635 180.359127 
L 217.630621 169.380697 
L 216.324635 157.858946 
L 212.40763 169.380697 
z
" clip-path="url(#p078e3c1532)" style="fill: #2ab07f"/>
    <path d="M 235.496122 310.737089 
L 246.87908 291.932841 
L 235.496122 271.595056 
L 230.958144 267.422412 
L 216.324635 256.648956 
L 211.325553 242.911984 
L 207.46234 218.401555 
L 197.153148 200.864639 
L 192.574387 193.891126 
L 177.981661 179.335022 
L 170.36216 169.380697 
L 170.754766 144.870269 
L 158.810173 136.981622 
L 153.968435 120.35984 
L 139.638686 105.007389 
L 133.014857 95.849411 
L 120.467199 72.268318 
L 119.814925 71.338982 
L 115.645244 46.828554 
L 101.295712 30.694324 
L 95.076551 22.318125 
L 87.16688 22.318125 
L 82.124224 39.167268 
L 63.406582 46.828554 
L 62.952737 46.923069 
L 62.907997 46.828554 
L 46.729757 22.318125 
L 43.78125 22.318125 
L 43.78125 38.999309 
L 50.341128 46.828554 
L 62.952737 69.022201 
L 64.823769 71.338982 
L 82.124224 95.201085 
L 82.65121 95.849411 
L 100.065522 120.35984 
L 101.295712 122.47905 
L 118.056531 144.870269 
L 120.467199 149.027401 
L 134.718372 169.380697 
L 139.638686 177.357459 
L 152.523019 193.891126 
L 158.810173 203.686027 
L 169.510486 218.401555 
L 177.981661 231.890635 
L 185.819678 242.911984 
L 197.153148 259.428865 
L 209.364287 267.422412 
L 216.324635 278.883542 
L 224.604398 291.932841 
z
M 232.137585 291.932841 
L 235.496122 284.938858 
L 239.863484 291.932841 
L 235.496122 298.399455 
z
M 191.753881 242.911984 
L 177.981661 221.639787 
L 176.135856 218.401555 
L 165.521527 193.891126 
L 177.981661 189.584607 
L 183.001517 193.891126 
L 197.153148 212.684922 
L 200.875886 218.401555 
L 205.249816 242.911984 
L 197.153148 251.481839 
z
M 155.442342 169.380697 
L 139.638686 163.895055 
L 128.568663 144.870269 
L 120.467199 135.215356 
L 111.034799 120.35984 
L 101.295712 106.810151 
L 94.842987 95.849411 
L 82.124224 76.945005 
L 78.792919 71.338982 
L 82.124224 57.538897 
L 87.274672 46.828554 
L 101.295712 39.318976 
L 108.745457 46.828554 
L 104.835955 71.338982 
L 120.467199 89.288137 
L 124.458209 95.849411 
L 139.638686 114.437008 
L 145.916281 120.35984 
L 153.595146 144.870269 
L 158.810173 165.927182 
L 160.122047 169.380697 
L 158.810173 178.898697 
z
M 331.353558 316.44327 
L 334.133942 316.44327 
L 331.353558 305.46719 
L 330.040447 291.932841 
L 327.339495 267.422412 
L 324.409099 242.911984 
L 321.112532 218.401555 
L 318.073093 193.891126 
L 313.832772 169.380697 
L 312.182071 163.918962 
L 309.225185 144.870269 
L 306.504315 120.35984 
L 304.427474 95.849411 
L 303.925789 71.338982 
L 305.122209 46.828554 
L 307.249738 22.318125 
L 293.010584 22.318125 
L 289.201024 22.318125 
L 292.21057 46.828554 
L 292.728439 71.338982 
L 293.010584 75.437175 
L 295.006099 95.849411 
L 299.386043 120.35984 
L 303.415208 144.870269 
L 307.961768 169.380697 
L 311.526366 193.891126 
L 312.182071 199.338847 
L 315.737665 218.401555 
L 320.390528 242.911984 
L 324.165006 267.422412 
L 327.534837 291.932841 
L 330.071612 316.44327 
z
M 388.86802 298.646045 
L 391.022645 316.44327 
L 395.58381 316.44327 
L 393.676442 291.932841 
L 389.513812 267.422412 
L 388.86802 264.829459 
L 385.448409 242.911984 
L 380.83752 218.401555 
L 375.182075 193.891126 
L 369.696533 175.127521 
L 368.410556 169.380697 
L 362.923989 144.870269 
L 356.793101 120.35984 
L 350.525045 99.685776 
L 349.541801 95.849411 
L 343.426215 71.338982 
L 336.902887 46.828554 
L 331.353558 28.742255 
L 329.385837 22.318125 
L 317.023321 22.318125 
L 325.212405 46.828554 
L 331.353558 61.635176 
L 334.499447 71.338982 
L 341.624126 95.849411 
L 348.57289 120.35984 
L 350.525045 126.800735 
L 356.039499 144.870269 
L 362.38815 169.380698 
L 368.363965 193.891126 
L 369.696533 199.322516 
L 375.05298 218.401555 
L 380.498609 242.911984 
L 384.841491 267.422412 
L 388.182006 291.932841 
z
M 158.810173 24.431584 
L 177.981661 23.551952 
L 178.104611 22.318125 
L 177.981661 22.318125 
L 158.810173 22.318125 
L 157.7252 22.318125 
z
" clip-path="url(#p078e3c1532)" style="fill: #44bf70"/>
    <path d="M 235.496122 298.399455 
L 239.863484 291.932841 
L 235.496122 284.938858 
L 232.137585 291.932841 
z
M 331.353558 305.46719 
L 334.133942 316.44327 
L 339.58933 316.44327 
L 334.843017 291.932841 
L 331.353558 279.158034 
L 330.237556 267.422412 
L 327.99457 242.911984 
L 325.739303 218.401555 
L 323.984185 193.891126 
L 322.333698 169.380697 
L 318.869515 144.870269 
L 313.581965 120.35984 
L 312.182071 111.845681 
L 311.762939 95.849411 
L 312.182071 79.013459 
L 329.109255 95.849411 
L 331.353558 96.310886 
L 338.775532 120.35984 
L 346.79421 144.870269 
L 350.525045 154.574245 
L 355.030899 169.380697 
L 361.629003 193.891126 
L 368.168638 218.401555 
L 369.696533 224.02113 
L 374.682531 242.911984 
L 379.755145 267.422412 
L 383.571991 291.932841 
L 386.313722 316.44327 
L 388.86802 316.44327 
L 391.022645 316.44327 
L 388.86802 298.646045 
L 388.182006 291.932841 
L 384.841491 267.422412 
L 380.498609 242.911984 
L 375.05298 218.401555 
L 369.696533 199.322516 
L 368.363965 193.891126 
L 362.38815 169.380697 
L 356.039499 144.870269 
L 350.525045 126.800735 
L 348.57289 120.35984 
L 341.624126 95.849411 
L 334.499447 71.338982 
L 331.353558 61.635176 
L 325.212405 46.828554 
L 317.023321 22.318125 
L 312.182071 22.318125 
L 307.249738 22.318125 
L 305.122209 46.828554 
L 303.925789 71.338982 
L 304.427474 95.849411 
L 306.504315 120.35984 
L 309.225185 144.870269 
L 312.182071 163.918962 
L 313.832772 169.380697 
L 318.073093 193.891126 
L 321.112532 218.401555 
L 324.409099 242.911984 
L 327.339495 267.422412 
L 330.040447 291.932841 
z
M 197.153148 251.481839 
L 205.249816 242.911984 
L 200.875886 218.401555 
L 197.153148 212.684922 
L 183.001517 193.891126 
L 177.981661 189.584607 
L 165.521527 193.891126 
L 176.135856 218.401555 
L 177.981661 221.639787 
L 191.753881 242.911984 
z
M 196.788919 242.911984 
L 197.153148 239.682113 
L 197.812707 242.911984 
L 197.153148 243.534812 
z
M 158.810173 178.898697 
L 160.122047 169.380697 
L 158.810173 165.927182 
L 153.595146 144.870269 
L 145.916281 120.35984 
L 139.638686 114.437008 
L 124.458209 95.849411 
L 120.467199 89.288137 
L 104.835955 71.338982 
L 108.745457 46.828554 
L 101.295712 39.318976 
L 87.274672 46.828554 
L 82.124224 57.538897 
L 78.792919 71.338982 
L 82.124224 76.945005 
L 94.842987 95.849411 
L 101.295712 106.810151 
L 111.034799 120.35984 
L 120.467199 135.215356 
L 128.568663 144.870269 
L 139.638686 163.895055 
L 155.442342 169.380697 
z
M 137.266512 144.870269 
L 139.638686 133.511435 
L 143.607107 144.870269 
L 139.638686 149.495389 
z
M 119.620867 120.35984 
L 120.467199 116.545437 
L 126.02707 120.35984 
L 120.467199 121.871135 
z
M 62.952737 46.923069 
L 63.406582 46.828554 
L 82.124224 39.167268 
L 87.16688 22.318125 
L 82.124224 22.318125 
L 70.897668 22.318125 
L 62.952737 27.267532 
L 60.262574 22.318125 
L 46.729757 22.318125 
L 62.907997 46.828554 
z
" clip-path="url(#p078e3c1532)" style="fill: #67cc5c"/>
    <path d="M 341.56054 291.932841 
L 337.579101 267.422412 
L 331.353558 244.455177 
L 331.23128 242.911984 
L 329.801009 218.401555 
L 329.002586 193.891126 
L 329.100038 169.380697 
L 330.854389 144.870269 
L 331.353558 142.241539 
L 332.275487 144.870269 
L 341.126925 169.380697 
L 350.525045 185.266099 
L 353.177643 193.891126 
L 360.039982 218.401555 
L 367.20423 242.911984 
L 369.696533 250.724786 
L 373.749488 267.422412 
L 378.219736 291.932841 
L 381.326574 316.44327 
L 386.313722 316.44327 
L 383.571991 291.932841 
L 379.755145 267.422412 
L 374.682531 242.911984 
L 369.696533 224.02113 
L 368.168638 218.401555 
L 361.629003 193.891126 
L 355.030899 169.380697 
L 350.525045 154.574245 
L 346.79421 144.870269 
L 338.775532 120.35984 
L 331.353558 96.310886 
L 329.109255 95.849411 
L 312.182071 79.013459 
L 311.762939 95.849411 
L 312.182071 111.845681 
L 313.581965 120.35984 
L 318.869515 144.870269 
L 322.333698 169.380697 
L 323.984185 193.891126 
L 325.739303 218.401555 
L 327.99457 242.911984 
L 330.237556 267.422412 
L 331.353558 279.158034 
L 334.843017 291.932841 
L 339.58933 316.44327 
L 344.275608 316.44327 
z
M 197.153148 243.534812 
L 197.812707 242.911984 
L 197.153148 239.682113 
L 196.788919 242.911984 
z
M 139.638686 149.495389 
L 143.607107 144.870269 
L 139.638686 133.511435 
L 137.266512 144.870269 
z
M 120.467199 121.871135 
L 126.02707 120.35984 
L 120.467199 116.545437 
L 119.620867 120.35984 
z
M 62.952737 27.267532 
L 70.897668 22.318125 
L 62.952737 22.318125 
L 60.262574 22.318125 
z
" clip-path="url(#p078e3c1532)" style="fill: #90d743"/>
    <path d="M 347.147902 291.932841 
L 346.019456 267.422412 
L 346.152762 242.911984 
L 350.525045 223.597808 
L 355.965682 242.911984 
L 363.3986 267.422412 
L 369.696533 281.819763 
L 371.839494 291.932841 
L 375.458829 316.44327 
L 381.326574 316.44327 
L 378.219736 291.932841 
L 373.749488 267.422412 
L 369.696533 250.724786 
L 367.20423 242.911984 
L 360.039982 218.401555 
L 353.177643 193.891126 
L 350.525045 185.266099 
L 341.126925 169.380697 
L 332.275487 144.870269 
L 331.353558 142.241539 
L 330.854389 144.870269 
L 329.100038 169.380697 
L 329.002586 193.891126 
L 329.801009 218.401555 
L 331.23128 242.911984 
L 331.353558 244.455177 
L 337.579101 267.422412 
L 341.56054 291.932841 
L 344.275608 316.44327 
L 348.383084 316.44327 
z
" clip-path="url(#p078e3c1532)" style="fill: #bddf26"/>
    <path d="M 350.525045 316.44327 
L 369.696533 316.44327 
L 375.458829 316.44327 
L 371.839494 291.932841 
L 369.696533 281.819763 
L 363.3986 267.422412 
L 355.965682 242.911984 
L 350.525045 223.597808 
L 346.152762 242.911984 
L 346.019456 267.422412 
L 347.147902 291.932841 
L 348.383084 316.44327 
z
" clip-path="url(#p078e3c1532)" style="fill: #eae51a"/>
   </g>
   <g id="PathCollection_1">
    <defs>
     <path id="mdc0741d33a" d="M -3 3 
L 3 -3 
M -3 -3 
L 3 3 
" style="stroke: #ff0000; stroke-width: 1.5"/>
    </defs>
    <g clip-path="url(#p078e3c1532)">
     <use xlink:href="#mdc0741d33a" x="369.696533" y="316.44327" style="fill: #ff0000; stroke: #ff0000; stroke-width: 1.5"/>
     <use xlink:href="#mdc0741d33a" x="350.525045" y="291.932841" style="fill: #ff0000; stroke: #ff0000; stroke-width: 1.5"/>
     <use xlink:href="#mdc0741d33a" x="350.525045" y="267.422412" style="fill: #ff0000; stroke: #ff0000; stroke-width: 1.5"/>
     <use xlink:href="#mdc0741d33a" x="350.525045" y="242.911984" style="fill: #ff0000; stroke: #ff0000; stroke-width: 1.5"/>
     <use xlink:href="#mdc0741d33a" x="350.525045" y="218.401555" style="fill: #ff0000; stroke: #ff0000; stroke-width: 1.5"/>
     <use xlink:href="#mdc0741d33a" x="331.353558" y="193.891126" style="fill: #ff0000; stroke: #ff0000; stroke-width: 1.5"/>
     <use xlink:href="#mdc0741d33a" x="331.353558" y="169.380697" style="fill: #ff0000; stroke: #ff0000; stroke-width: 1.5"/>
     <use xlink:href="#mdc0741d33a" x="331.353558" y="144.870269" style="fill: #ff0000; stroke: #ff0000; stroke-width: 1.5"/>
     <use xlink:href="#mdc0741d33a" x="331.353558" y="120.35984" style="fill: #ff0000; stroke: #ff0000; stroke-width: 1.5"/>
     <use xlink:href="#mdc0741d33a" x="312.182071" y="95.849411" style="fill: #ff0000; stroke: #ff0000; stroke-width: 1.5"/>
     <use xlink:href="#mdc0741d33a" x="312.182071" y="71.338982" style="fill: #ff0000; stroke: #ff0000; stroke-width: 1.5"/>
     <use xlink:href="#mdc0741d33a" x="101.295712" y="46.828554" style="fill: #ff0000; stroke: #ff0000; stroke-width: 1.5"/>
     <use xlink:href="#mdc0741d33a" x="62.952737" y="22.318125" style="fill: #ff0000; stroke: #ff0000; stroke-width: 1.5"/>
    </g>
   </g>
   <g id="matplotlib.axis_1">
    <g id="xtick_1">
     <g id="line2d_1">
      <defs>
       <path id="m38f3b05bbe" d="M 0 0 
L 0 3.5 
" style="stroke: #000000; stroke-width: 0.8"/>
      </defs>
      <g>
       <use xlink:href="#m38f3b05bbe" x="43.78125" y="316.44327" style="stroke: #000000; stroke-width: 0.8"/>
      </g>
     </g>
     <g id="text_1">
      <!-- $\mathdefault{10^{-5}}$ -->
      <g transform="translate(32.03125 331.041707) scale(0.1 -0.1)">
       <defs>
        <path id="DejaVuSans-31" d="M 794 531 
L 1825 531 
L 1825 4091 
L 703 3866 
L 703 4441 
L 1819 4666 
L 2450 4666 
L 2450 531 
L 3481 531 
L 3481 0 
L 794 0 
L 794 531 
z
" transform="scale(0.015625)"/>
        <path id="DejaVuSans-30" d="M 2034 4250 
Q 1547 4250 1301 3770 
Q 1056 3291 1056 2328 
Q 1056 1369 1301 889 
Q 1547 409 2034 409 
Q 2525 409 2770 889 
Q 3016 1369 3016 2328 
Q 3016 3291 2770 3770 
Q 2525 4250 2034 4250 
z
M 2034 4750 
Q 2819 4750 3233 4129 
Q 3647 3509 3647 2328 
Q 3647 1150 3233 529 
Q 2819 -91 2034 -91 
Q 1250 -91 836 529 
Q 422 1150 422 2328 
Q 422 3509 836 4129 
Q 1250 4750 2034 4750 
z
" transform="scale(0.015625)"/>
        <path id="DejaVuSans-2212" d="M 678 2272 
L 4684 2272 
L 4684 1741 
L 678 1741 
L 678 2272 
z
" transform="scale(0.015625)"/>
        <path id="DejaVuSans-35" d="M 691 4666 
L 3169 4666 
L 3169 4134 
L 1269 4134 
L 1269 2991 
Q 1406 3038 1543 3061 
Q 1681 3084 1819 3084 
Q 2600 3084 3056 2656 
Q 3513 2228 3513 1497 
Q 3513 744 3044 326 
Q 2575 -91 1722 -91 
Q 1428 -91 1123 -41 
Q 819 9 494 109 
L 494 744 
Q 775 591 1075 516 
Q 1375 441 1709 441 
Q 2250 441 2565 725 
Q 2881 1009 2881 1497 
Q 2881 1984 2565 2268 
Q 2250 2553 1709 2553 
Q 1456 2553 1204 2497 
Q 953 2441 691 2322 
L 691 4666 
z
" transform="scale(0.015625)"/>
       </defs>
       <use xlink:href="#DejaVuSans-31" transform="translate(0 0.684375)"/>
       <use xlink:href="#DejaVuSans-30" transform="translate(63.623047 0.684375)"/>
       <use xlink:href="#DejaVuSans-2212" transform="translate(128.203125 38.965625) scale(0.7)"/>
       <use xlink:href="#DejaVuSans-35" transform="translate(186.855469 38.965625) scale(0.7)"/>
      </g>
     </g>
    </g>
    <g id="xtick_2">
     <g id="line2d_2">
      <g>
       <use xlink:href="#m38f3b05bbe" x="120.467199" y="316.44327" style="stroke: #000000; stroke-width: 0.8"/>
      </g>
     </g>
     <g id="text_2">
      <!-- $\mathdefault{10^{-4}}$ -->
      <g transform="translate(108.717199 331.041707) scale(0.1 -0.1)">
       <defs>
        <path id="DejaVuSans-34" d="M 2419 4116 
L 825 1625 
L 2419 1625 
L 2419 4116 
z
M 2253 4666 
L 3047 4666 
L 3047 1625 
L 3713 1625 
L 3713 1100 
L 3047 1100 
L 3047 0 
L 2419 0 
L 2419 1100 
L 313 1100 
L 313 1709 
L 2253 4666 
z
" transform="scale(0.015625)"/>
       </defs>
       <use xlink:href="#DejaVuSans-31" transform="translate(0 0.684375)"/>
       <use xlink:href="#DejaVuSans-30" transform="translate(63.623047 0.684375)"/>
       <use xlink:href="#DejaVuSans-2212" transform="translate(128.203125 38.965625) scale(0.7)"/>
       <use xlink:href="#DejaVuSans-34" transform="translate(186.855469 38.965625) scale(0.7)"/>
      </g>
     </g>
    </g>
    <g id="xtick_3">
     <g id="line2d_3">
      <g>
       <use xlink:href="#m38f3b05bbe" x="197.153148" y="316.44327" style="stroke: #000000; stroke-width: 0.8"/>
      </g>
     </g>
     <g id="text_3">
      <!-- $\mathdefault{10^{-3}}$ -->
      <g transform="translate(185.403148 331.041707) scale(0.1 -0.1)">
       <defs>
        <path id="DejaVuSans-33" d="M 2597 2516 
Q 3050 2419 3304 2112 
Q 3559 1806 3559 1356 
Q 3559 666 3084 287 
Q 2609 -91 1734 -91 
Q 1441 -91 1130 -33 
Q 819 25 488 141 
L 488 750 
Q 750 597 1062 519 
Q 1375 441 1716 441 
Q 2309 441 2620 675 
Q 2931 909 2931 1356 
Q 2931 1769 2642 2001 
Q 2353 2234 1838 2234 
L 1294 2234 
L 1294 2753 
L 1863 2753 
Q 2328 2753 2575 2939 
Q 2822 3125 2822 3475 
Q 2822 3834 2567 4026 
Q 2313 4219 1838 4219 
Q 1578 4219 1281 4162 
Q 984 4106 628 3988 
L 628 4550 
Q 988 4650 1302 4700 
Q 1616 4750 1894 4750 
Q 2613 4750 3031 4423 
Q 3450 4097 3450 3541 
Q 3450 3153 3228 2886 
Q 3006 2619 2597 2516 
z
" transform="scale(0.015625)"/>
       </defs>
       <use xlink:href="#DejaVuSans-31" transform="translate(0 0.765625)"/>
       <use xlink:href="#DejaVuSans-30" transform="translate(63.623047 0.765625)"/>
       <use xlink:href="#DejaVuSans-2212" transform="translate(128.203125 39.046875) scale(0.7)"/>
       <use xlink:href="#DejaVuSans-33" transform="translate(186.855469 39.046875) scale(0.7)"/>
      </g>
     </g>
    </g>
    <g id="xtick_4">
     <g id="line2d_4">
      <g>
       <use xlink:href="#m38f3b05bbe" x="273.839097" y="316.44327" style="stroke: #000000; stroke-width: 0.8"/>
      </g>
     </g>
     <g id="text_4">
      <!-- $\mathdefault{10^{-2}}$ -->
      <g transform="translate(262.089097 331.041707) scale(0.1 -0.1)">
       <defs>
        <path id="DejaVuSans-32" d="M 1228 531 
L 3431 531 
L 3431 0 
L 469 0 
L 469 531 
Q 828 903 1448 1529 
Q 2069 2156 2228 2338 
Q 2531 2678 2651 2914 
Q 2772 3150 2772 3378 
Q 2772 3750 2511 3984 
Q 2250 4219 1831 4219 
Q 1534 4219 1204 4116 
Q 875 4013 500 3803 
L 500 4441 
Q 881 4594 1212 4672 
Q 1544 4750 1819 4750 
Q 2544 4750 2975 4387 
Q 3406 4025 3406 3419 
Q 3406 3131 3298 2873 
Q 3191 2616 2906 2266 
Q 2828 2175 2409 1742 
Q 1991 1309 1228 531 
z
" transform="scale(0.015625)"/>
       </defs>
       <use xlink:href="#DejaVuSans-31" transform="translate(0 0.765625)"/>
       <use xlink:href="#DejaVuSans-30" transform="translate(63.623047 0.765625)"/>
       <use xlink:href="#DejaVuSans-2212" transform="translate(128.203125 39.046875) scale(0.7)"/>
       <use xlink:href="#DejaVuSans-32" transform="translate(186.855469 39.046875) scale(0.7)"/>
      </g>
     </g>
    </g>
    <g id="xtick_5">
     <g id="line2d_5">
      <g>
       <use xlink:href="#m38f3b05bbe" x="350.525045" y="316.44327" style="stroke: #000000; stroke-width: 0.8"/>
      </g>
     </g>
     <g id="text_5">
      <!-- $\mathdefault{10^{-1}}$ -->
      <g transform="translate(338.775045 331.041707) scale(0.1 -0.1)">
       <use xlink:href="#DejaVuSans-31" transform="translate(0 0.684375)"/>
       <use xlink:href="#DejaVuSans-30" transform="translate(63.623047 0.684375)"/>
       <use xlink:href="#DejaVuSans-2212" transform="translate(128.203125 38.965625) scale(0.7)"/>
       <use xlink:href="#DejaVuSans-31" transform="translate(186.855469 38.965625) scale(0.7)"/>
      </g>
     </g>
    </g>
    <g id="xtick_6">
     <g id="line2d_6">
      <defs>
       <path id="m360e1f0208" d="M 0 0 
L 0 2 
" style="stroke: #000000; stroke-width: 0.6"/>
      </defs>
      <g>
       <use xlink:href="#m360e1f0208" x="66.866021" y="316.44327" style="stroke: #000000; stroke-width: 0.6"/>
      </g>
     </g>
    </g>
    <g id="xtick_7">
     <g id="line2d_7">
      <g>
       <use xlink:href="#m360e1f0208" x="80.369746" y="316.44327" style="stroke: #000000; stroke-width: 0.6"/>
      </g>
     </g>
    </g>
    <g id="xtick_8">
     <g id="line2d_8">
      <g>
       <use xlink:href="#m360e1f0208" x="89.950792" y="316.44327" style="stroke: #000000; stroke-width: 0.6"/>
      </g>
     </g>
    </g>
    <g id="xtick_9">
     <g id="line2d_9">
      <g>
       <use xlink:href="#m360e1f0208" x="97.382428" y="316.44327" style="stroke: #000000; stroke-width: 0.6"/>
      </g>
     </g>
    </g>
    <g id="xtick_10">
     <g id="line2d_10">
      <g>
       <use xlink:href="#m360e1f0208" x="103.454517" y="316.44327" style="stroke: #000000; stroke-width: 0.6"/>
      </g>
     </g>
    </g>
    <g id="xtick_11">
     <g id="line2d_11">
      <g>
       <use xlink:href="#m360e1f0208" x="108.588395" y="316.44327" style="stroke: #000000; stroke-width: 0.6"/>
      </g>
     </g>
    </g>
    <g id="xtick_12">
     <g id="line2d_12">
      <g>
       <use xlink:href="#m360e1f0208" x="113.035563" y="316.44327" style="stroke: #000000; stroke-width: 0.6"/>
      </g>
     </g>
    </g>
    <g id="xtick_13">
     <g id="line2d_13">
      <g>
       <use xlink:href="#m360e1f0208" x="116.958242" y="316.44327" style="stroke: #000000; stroke-width: 0.6"/>
      </g>
     </g>
    </g>
    <g id="xtick_14">
     <g id="line2d_14">
      <g>
       <use xlink:href="#m360e1f0208" x="143.55197" y="316.44327" style="stroke: #000000; stroke-width: 0.6"/>
      </g>
     </g>
    </g>
    <g id="xtick_15">
     <g id="line2d_15">
      <g>
       <use xlink:href="#m360e1f0208" x="157.055695" y="316.44327" style="stroke: #000000; stroke-width: 0.6"/>
      </g>
     </g>
    </g>
    <g id="xtick_16">
     <g id="line2d_16">
      <g>
       <use xlink:href="#m360e1f0208" x="166.636741" y="316.44327" style="stroke: #000000; stroke-width: 0.6"/>
      </g>
     </g>
    </g>
    <g id="xtick_17">
     <g id="line2d_17">
      <g>
       <use xlink:href="#m360e1f0208" x="174.068377" y="316.44327" style="stroke: #000000; stroke-width: 0.6"/>
      </g>
     </g>
    </g>
    <g id="xtick_18">
     <g id="line2d_18">
      <g>
       <use xlink:href="#m360e1f0208" x="180.140466" y="316.44327" style="stroke: #000000; stroke-width: 0.6"/>
      </g>
     </g>
    </g>
    <g id="xtick_19">
     <g id="line2d_19">
      <g>
       <use xlink:href="#m360e1f0208" x="185.274344" y="316.44327" style="stroke: #000000; stroke-width: 0.6"/>
      </g>
     </g>
    </g>
    <g id="xtick_20">
     <g id="line2d_20">
      <g>
       <use xlink:href="#m360e1f0208" x="189.721511" y="316.44327" style="stroke: #000000; stroke-width: 0.6"/>
      </g>
     </g>
    </g>
    <g id="xtick_21">
     <g id="line2d_21">
      <g>
       <use xlink:href="#m360e1f0208" x="193.644191" y="316.44327" style="stroke: #000000; stroke-width: 0.6"/>
      </g>
     </g>
    </g>
    <g id="xtick_22">
     <g id="line2d_22">
      <g>
       <use xlink:href="#m360e1f0208" x="220.237919" y="316.44327" style="stroke: #000000; stroke-width: 0.6"/>
      </g>
     </g>
    </g>
    <g id="xtick_23">
     <g id="line2d_23">
      <g>
       <use xlink:href="#m360e1f0208" x="233.741644" y="316.44327" style="stroke: #000000; stroke-width: 0.6"/>
      </g>
     </g>
    </g>
    <g id="xtick_24">
     <g id="line2d_24">
      <g>
       <use xlink:href="#m360e1f0208" x="243.322689" y="316.44327" style="stroke: #000000; stroke-width: 0.6"/>
      </g>
     </g>
    </g>
    <g id="xtick_25">
     <g id="line2d_25">
      <g>
       <use xlink:href="#m360e1f0208" x="250.754326" y="316.44327" style="stroke: #000000; stroke-width: 0.6"/>
      </g>
     </g>
    </g>
    <g id="xtick_26">
     <g id="line2d_26">
      <g>
       <use xlink:href="#m360e1f0208" x="256.826415" y="316.44327" style="stroke: #000000; stroke-width: 0.6"/>
      </g>
     </g>
    </g>
    <g id="xtick_27">
     <g id="line2d_27">
      <g>
       <use xlink:href="#m360e1f0208" x="261.960293" y="316.44327" style="stroke: #000000; stroke-width: 0.6"/>
      </g>
     </g>
    </g>
    <g id="xtick_28">
     <g id="line2d_28">
      <g>
       <use xlink:href="#m360e1f0208" x="266.40746" y="316.44327" style="stroke: #000000; stroke-width: 0.6"/>
      </g>
     </g>
    </g>
    <g id="xtick_29">
     <g id="line2d_29">
      <g>
       <use xlink:href="#m360e1f0208" x="270.33014" y="316.44327" style="stroke: #000000; stroke-width: 0.6"/>
      </g>
     </g>
    </g>
    <g id="xtick_30">
     <g id="line2d_30">
      <g>
       <use xlink:href="#m360e1f0208" x="296.923867" y="316.44327" style="stroke: #000000; stroke-width: 0.6"/>
      </g>
     </g>
    </g>
    <g id="xtick_31">
     <g id="line2d_31">
      <g>
       <use xlink:href="#m360e1f0208" x="310.427593" y="316.44327" style="stroke: #000000; stroke-width: 0.6"/>
      </g>
     </g>
    </g>
    <g id="xtick_32">
     <g id="line2d_32">
      <g>
       <use xlink:href="#m360e1f0208" x="320.008638" y="316.44327" style="stroke: #000000; stroke-width: 0.6"/>
      </g>
     </g>
    </g>
    <g id="xtick_33">
     <g id="line2d_33">
      <g>
       <use xlink:href="#m360e1f0208" x="327.440275" y="316.44327" style="stroke: #000000; stroke-width: 0.6"/>
      </g>
     </g>
    </g>
    <g id="xtick_34">
     <g id="line2d_34">
      <g>
       <use xlink:href="#m360e1f0208" x="333.512364" y="316.44327" style="stroke: #000000; stroke-width: 0.6"/>
      </g>
     </g>
    </g>
    <g id="xtick_35">
     <g id="line2d_35">
      <g>
       <use xlink:href="#m360e1f0208" x="338.646242" y="316.44327" style="stroke: #000000; stroke-width: 0.6"/>
      </g>
     </g>
    </g>
    <g id="xtick_36">
     <g id="line2d_36">
      <g>
       <use xlink:href="#m360e1f0208" x="343.093409" y="316.44327" style="stroke: #000000; stroke-width: 0.6"/>
      </g>
     </g>
    </g>
    <g id="xtick_37">
     <g id="line2d_37">
      <g>
       <use xlink:href="#m360e1f0208" x="347.016089" y="316.44327" style="stroke: #000000; stroke-width: 0.6"/>
      </g>
     </g>
    </g>
    <g id="xtick_38">
     <g id="line2d_38">
      <g>
       <use xlink:href="#m360e1f0208" x="373.609816" y="316.44327" style="stroke: #000000; stroke-width: 0.6"/>
      </g>
     </g>
    </g>
    <g id="xtick_39">
     <g id="line2d_39">
      <g>
       <use xlink:href="#m360e1f0208" x="387.113542" y="316.44327" style="stroke: #000000; stroke-width: 0.6"/>
      </g>
     </g>
    </g>
    <g id="text_6">
     <!-- bandwidth -->
     <g transform="translate(189.962135 344.719832) scale(0.1 -0.1)">
      <defs>
       <path id="DejaVuSans-62" d="M 3116 1747 
Q 3116 2381 2855 2742 
Q 2594 3103 2138 3103 
Q 1681 3103 1420 2742 
Q 1159 2381 1159 1747 
Q 1159 1113 1420 752 
Q 1681 391 2138 391 
Q 2594 391 2855 752 
Q 3116 1113 3116 1747 
z
M 1159 2969 
Q 1341 3281 1617 3432 
Q 1894 3584 2278 3584 
Q 2916 3584 3314 3078 
Q 3713 2572 3713 1747 
Q 3713 922 3314 415 
Q 2916 -91 2278 -91 
Q 1894 -91 1617 61 
Q 1341 213 1159 525 
L 1159 0 
L 581 0 
L 581 4863 
L 1159 4863 
L 1159 2969 
z
" transform="scale(0.015625)"/>
       <path id="DejaVuSans-61" d="M 2194 1759 
Q 1497 1759 1228 1600 
Q 959 1441 959 1056 
Q 959 750 1161 570 
Q 1363 391 1709 391 
Q 2188 391 2477 730 
Q 2766 1069 2766 1631 
L 2766 1759 
L 2194 1759 
z
M 3341 1997 
L 3341 0 
L 2766 0 
L 2766 531 
Q 2569 213 2275 61 
Q 1981 -91 1556 -91 
Q 1019 -91 701 211 
Q 384 513 384 1019 
Q 384 1609 779 1909 
Q 1175 2209 1959 2209 
L 2766 2209 
L 2766 2266 
Q 2766 2663 2505 2880 
Q 2244 3097 1772 3097 
Q 1472 3097 1187 3025 
Q 903 2953 641 2809 
L 641 3341 
Q 956 3463 1253 3523 
Q 1550 3584 1831 3584 
Q 2591 3584 2966 3190 
Q 3341 2797 3341 1997 
z
" transform="scale(0.015625)"/>
       <path id="DejaVuSans-6e" d="M 3513 2113 
L 3513 0 
L 2938 0 
L 2938 2094 
Q 2938 2591 2744 2837 
Q 2550 3084 2163 3084 
Q 1697 3084 1428 2787 
Q 1159 2491 1159 1978 
L 1159 0 
L 581 0 
L 581 3500 
L 1159 3500 
L 1159 2956 
Q 1366 3272 1645 3428 
Q 1925 3584 2291 3584 
Q 2894 3584 3203 3211 
Q 3513 2838 3513 2113 
z
" transform="scale(0.015625)"/>
       <path id="DejaVuSans-64" d="M 2906 2969 
L 2906 4863 
L 3481 4863 
L 3481 0 
L 2906 0 
L 2906 525 
Q 2725 213 2448 61 
Q 2172 -91 1784 -91 
Q 1150 -91 751 415 
Q 353 922 353 1747 
Q 353 2572 751 3078 
Q 1150 3584 1784 3584 
Q 2172 3584 2448 3432 
Q 2725 3281 2906 2969 
z
M 947 1747 
Q 947 1113 1208 752 
Q 1469 391 1925 391 
Q 2381 391 2643 752 
Q 2906 1113 2906 1747 
Q 2906 2381 2643 2742 
Q 2381 3103 1925 3103 
Q 1469 3103 1208 2742 
Q 947 2381 947 1747 
z
" transform="scale(0.015625)"/>
       <path id="DejaVuSans-77" d="M 269 3500 
L 844 3500 
L 1563 769 
L 2278 3500 
L 2956 3500 
L 3675 769 
L 4391 3500 
L 4966 3500 
L 4050 0 
L 3372 0 
L 2619 2869 
L 1863 0 
L 1184 0 
L 269 3500 
z
" transform="scale(0.015625)"/>
       <path id="DejaVuSans-69" d="M 603 3500 
L 1178 3500 
L 1178 0 
L 603 0 
L 603 3500 
z
M 603 4863 
L 1178 4863 
L 1178 4134 
L 603 4134 
L 603 4863 
z
" transform="scale(0.015625)"/>
       <path id="DejaVuSans-74" d="M 1172 4494 
L 1172 3500 
L 2356 3500 
L 2356 3053 
L 1172 3053 
L 1172 1153 
Q 1172 725 1289 603 
Q 1406 481 1766 481 
L 2356 481 
L 2356 0 
L 1766 0 
Q 1100 0 847 248 
Q 594 497 594 1153 
L 594 3053 
L 172 3053 
L 172 3500 
L 594 3500 
L 594 4494 
L 1172 4494 
z
" transform="scale(0.015625)"/>
       <path id="DejaVuSans-68" d="M 3513 2113 
L 3513 0 
L 2938 0 
L 2938 2094 
Q 2938 2591 2744 2837 
Q 2550 3084 2163 3084 
Q 1697 3084 1428 2787 
Q 1159 2491 1159 1978 
L 1159 0 
L 581 0 
L 581 4863 
L 1159 4863 
L 1159 2956 
Q 1366 3272 1645 3428 
Q 1925 3584 2291 3584 
Q 2894 3584 3203 3211 
Q 3513 2838 3513 2113 
z
" transform="scale(0.015625)"/>
      </defs>
      <use xlink:href="#DejaVuSans-62"/>
      <use xlink:href="#DejaVuSans-61" transform="translate(63.476562 0)"/>
      <use xlink:href="#DejaVuSans-6e" transform="translate(124.755859 0)"/>
      <use xlink:href="#DejaVuSans-64" transform="translate(188.134766 0)"/>
      <use xlink:href="#DejaVuSans-77" transform="translate(251.611328 0)"/>
      <use xlink:href="#DejaVuSans-69" transform="translate(333.398438 0)"/>
      <use xlink:href="#DejaVuSans-64" transform="translate(361.181641 0)"/>
      <use xlink:href="#DejaVuSans-74" transform="translate(424.658203 0)"/>
      <use xlink:href="#DejaVuSans-68" transform="translate(463.867188 0)"/>
     </g>
    </g>
   </g>
   <g id="matplotlib.axis_2">
    <g id="ytick_1">
     <g id="line2d_40">
      <defs>
       <path id="mbd2f377c6c" d="M 0 0 
L -3.5 0 
" style="stroke: #000000; stroke-width: 0.8"/>
      </defs>
      <g>
       <use xlink:href="#mbd2f377c6c" x="43.78125" y="316.44327" style="stroke: #000000; stroke-width: 0.8"/>
      </g>
     </g>
     <g id="text_7">
      <!-- 1.0 -->
      <g transform="translate(20.878125 320.242489) scale(0.1 -0.1)">
       <defs>
        <path id="DejaVuSans-2e" d="M 684 794 
L 1344 794 
L 1344 0 
L 684 0 
L 684 794 
z
" transform="scale(0.015625)"/>
       </defs>
       <use xlink:href="#DejaVuSans-31"/>
       <use xlink:href="#DejaVuSans-2e" transform="translate(63.623047 0)"/>
       <use xlink:href="#DejaVuSans-30" transform="translate(95.410156 0)"/>
      </g>
     </g>
    </g>
    <g id="ytick_2">
     <g id="line2d_41">
      <g>
       <use xlink:href="#mbd2f377c6c" x="43.78125" y="267.422412" style="stroke: #000000; stroke-width: 0.8"/>
      </g>
     </g>
     <g id="text_8">
      <!-- 1.5 -->
      <g transform="translate(20.878125 271.221631) scale(0.1 -0.1)">
       <use xlink:href="#DejaVuSans-31"/>
       <use xlink:href="#DejaVuSans-2e" transform="translate(63.623047 0)"/>
       <use xlink:href="#DejaVuSans-35" transform="translate(95.410156 0)"/>
      </g>
     </g>
    </g>
    <g id="ytick_3">
     <g id="line2d_42">
      <g>
       <use xlink:href="#mbd2f377c6c" x="43.78125" y="218.401555" style="stroke: #000000; stroke-width: 0.8"/>
      </g>
     </g>
     <g id="text_9">
      <!-- 2.0 -->
      <g transform="translate(20.878125 222.200774) scale(0.1 -0.1)">
       <use xlink:href="#DejaVuSans-32"/>
       <use xlink:href="#DejaVuSans-2e" transform="translate(63.623047 0)"/>
       <use xlink:href="#DejaVuSans-30" transform="translate(95.410156 0)"/>
      </g>
     </g>
    </g>
    <g id="ytick_4">
     <g id="line2d_43">
      <g>
       <use xlink:href="#mbd2f377c6c" x="43.78125" y="169.380697" style="stroke: #000000; stroke-width: 0.8"/>
      </g>
     </g>
     <g id="text_10">
      <!-- 2.5 -->
      <g transform="translate(20.878125 173.179916) scale(0.1 -0.1)">
       <use xlink:href="#DejaVuSans-32"/>
       <use xlink:href="#DejaVuSans-2e" transform="translate(63.623047 0)"/>
       <use xlink:href="#DejaVuSans-35" transform="translate(95.410156 0)"/>
      </g>
     </g>
    </g>
    <g id="ytick_5">
     <g id="line2d_44">
      <g>
       <use xlink:href="#mbd2f377c6c" x="43.78125" y="120.35984" style="stroke: #000000; stroke-width: 0.8"/>
      </g>
     </g>
     <g id="text_11">
      <!-- 3.0 -->
      <g transform="translate(20.878125 124.159059) scale(0.1 -0.1)">
       <use xlink:href="#DejaVuSans-33"/>
       <use xlink:href="#DejaVuSans-2e" transform="translate(63.623047 0)"/>
       <use xlink:href="#DejaVuSans-30" transform="translate(95.410156 0)"/>
      </g>
     </g>
    </g>
    <g id="ytick_6">
     <g id="line2d_45">
      <g>
       <use xlink:href="#mbd2f377c6c" x="43.78125" y="71.338982" style="stroke: #000000; stroke-width: 0.8"/>
      </g>
     </g>
     <g id="text_12">
      <!-- 3.5 -->
      <g transform="translate(20.878125 75.138201) scale(0.1 -0.1)">
       <use xlink:href="#DejaVuSans-33"/>
       <use xlink:href="#DejaVuSans-2e" transform="translate(63.623047 0)"/>
       <use xlink:href="#DejaVuSans-35" transform="translate(95.410156 0)"/>
      </g>
     </g>
    </g>
    <g id="ytick_7">
     <g id="line2d_46">
      <g>
       <use xlink:href="#mbd2f377c6c" x="43.78125" y="22.318125" style="stroke: #000000; stroke-width: 0.8"/>
      </g>
     </g>
     <g id="text_13">
      <!-- 4.0 -->
      <g transform="translate(20.878125 26.117344) scale(0.1 -0.1)">
       <use xlink:href="#DejaVuSans-34"/>
       <use xlink:href="#DejaVuSans-2e" transform="translate(63.623047 0)"/>
       <use xlink:href="#DejaVuSans-30" transform="translate(95.410156 0)"/>
      </g>
     </g>
    </g>
    <g id="text_14">
     <!-- alpha -->
     <g transform="translate(14.798438 183.240854) rotate(-90) scale(0.1 -0.1)">
      <defs>
       <path id="DejaVuSans-6c" d="M 603 4863 
L 1178 4863 
L 1178 0 
L 603 0 
L 603 4863 
z
" transform="scale(0.015625)"/>
       <path id="DejaVuSans-70" d="M 1159 525 
L 1159 -1331 
L 581 -1331 
L 581 3500 
L 1159 3500 
L 1159 2969 
Q 1341 3281 1617 3432 
Q 1894 3584 2278 3584 
Q 2916 3584 3314 3078 
Q 3713 2572 3713 1747 
Q 3713 922 3314 415 
Q 2916 -91 2278 -91 
Q 1894 -91 1617 61 
Q 1341 213 1159 525 
z
M 3116 1747 
Q 3116 2381 2855 2742 
Q 2594 3103 2138 3103 
Q 1681 3103 1420 2742 
Q 1159 2381 1159 1747 
Q 1159 1113 1420 752 
Q 1681 391 2138 391 
Q 2594 391 2855 752 
Q 3116 1113 3116 1747 
z
" transform="scale(0.015625)"/>
      </defs>
      <use xlink:href="#DejaVuSans-61"/>
      <use xlink:href="#DejaVuSans-6c" transform="translate(61.279297 0)"/>
      <use xlink:href="#DejaVuSans-70" transform="translate(89.0625 0)"/>
      <use xlink:href="#DejaVuSans-68" transform="translate(152.539062 0)"/>
      <use xlink:href="#DejaVuSans-61" transform="translate(215.917969 0)"/>
     </g>
    </g>
   </g>
   <g id="patch_3">
    <path d="M 43.78125 316.44327 
L 43.78125 22.318125 
" style="fill: none; stroke: #000000; stroke-width: 0.8; stroke-linejoin: miter; stroke-linecap: square"/>
   </g>
   <g id="patch_4">
    <path d="M 388.86802 316.44327 
L 388.86802 22.318125 
" style="fill: none; stroke: #000000; stroke-width: 0.8; stroke-linejoin: miter; stroke-linecap: square"/>
   </g>
   <g id="patch_5">
    <path d="M 43.78125 316.44327 
L 388.86802 316.44327 
" style="fill: none; stroke: #000000; stroke-width: 0.8; stroke-linejoin: miter; stroke-linecap: square"/>
   </g>
   <g id="patch_6">
    <path d="M 43.78125 22.318125 
L 388.86802 22.318125 
" style="fill: none; stroke: #000000; stroke-width: 0.8; stroke-linejoin: miter; stroke-linecap: square"/>
   </g>
   <g id="text_15">
    <!-- espirales_lo 7354 fkdc -->
    <g transform="translate(149.286822 16.318125) scale(0.12 -0.12)">
     <defs>
      <path id="DejaVuSans-65" d="M 3597 1894 
L 3597 1613 
L 953 1613 
Q 991 1019 1311 708 
Q 1631 397 2203 397 
Q 2534 397 2845 478 
Q 3156 559 3463 722 
L 3463 178 
Q 3153 47 2828 -22 
Q 2503 -91 2169 -91 
Q 1331 -91 842 396 
Q 353 884 353 1716 
Q 353 2575 817 3079 
Q 1281 3584 2069 3584 
Q 2775 3584 3186 3129 
Q 3597 2675 3597 1894 
z
M 3022 2063 
Q 3016 2534 2758 2815 
Q 2500 3097 2075 3097 
Q 1594 3097 1305 2825 
Q 1016 2553 972 2059 
L 3022 2063 
z
" transform="scale(0.015625)"/>
      <path id="DejaVuSans-73" d="M 2834 3397 
L 2834 2853 
Q 2591 2978 2328 3040 
Q 2066 3103 1784 3103 
Q 1356 3103 1142 2972 
Q 928 2841 928 2578 
Q 928 2378 1081 2264 
Q 1234 2150 1697 2047 
L 1894 2003 
Q 2506 1872 2764 1633 
Q 3022 1394 3022 966 
Q 3022 478 2636 193 
Q 2250 -91 1575 -91 
Q 1294 -91 989 -36 
Q 684 19 347 128 
L 347 722 
Q 666 556 975 473 
Q 1284 391 1588 391 
Q 1994 391 2212 530 
Q 2431 669 2431 922 
Q 2431 1156 2273 1281 
Q 2116 1406 1581 1522 
L 1381 1569 
Q 847 1681 609 1914 
Q 372 2147 372 2553 
Q 372 3047 722 3315 
Q 1072 3584 1716 3584 
Q 2034 3584 2315 3537 
Q 2597 3491 2834 3397 
z
" transform="scale(0.015625)"/>
      <path id="DejaVuSans-72" d="M 2631 2963 
Q 2534 3019 2420 3045 
Q 2306 3072 2169 3072 
Q 1681 3072 1420 2755 
Q 1159 2438 1159 1844 
L 1159 0 
L 581 0 
L 581 3500 
L 1159 3500 
L 1159 2956 
Q 1341 3275 1631 3429 
Q 1922 3584 2338 3584 
Q 2397 3584 2469 3576 
Q 2541 3569 2628 3553 
L 2631 2963 
z
" transform="scale(0.015625)"/>
      <path id="DejaVuSans-5f" d="M 3263 -1063 
L 3263 -1509 
L -63 -1509 
L -63 -1063 
L 3263 -1063 
z
" transform="scale(0.015625)"/>
      <path id="DejaVuSans-6f" d="M 1959 3097 
Q 1497 3097 1228 2736 
Q 959 2375 959 1747 
Q 959 1119 1226 758 
Q 1494 397 1959 397 
Q 2419 397 2687 759 
Q 2956 1122 2956 1747 
Q 2956 2369 2687 2733 
Q 2419 3097 1959 3097 
z
M 1959 3584 
Q 2709 3584 3137 3096 
Q 3566 2609 3566 1747 
Q 3566 888 3137 398 
Q 2709 -91 1959 -91 
Q 1206 -91 779 398 
Q 353 888 353 1747 
Q 353 2609 779 3096 
Q 1206 3584 1959 3584 
z
" transform="scale(0.015625)"/>
      <path id="DejaVuSans-20" transform="scale(0.015625)"/>
      <path id="DejaVuSans-37" d="M 525 4666 
L 3525 4666 
L 3525 4397 
L 1831 0 
L 1172 0 
L 2766 4134 
L 525 4134 
L 525 4666 
z
" transform="scale(0.015625)"/>
      <path id="DejaVuSans-66" d="M 2375 4863 
L 2375 4384 
L 1825 4384 
Q 1516 4384 1395 4259 
Q 1275 4134 1275 3809 
L 1275 3500 
L 2222 3500 
L 2222 3053 
L 1275 3053 
L 1275 0 
L 697 0 
L 697 3053 
L 147 3053 
L 147 3500 
L 697 3500 
L 697 3744 
Q 697 4328 969 4595 
Q 1241 4863 1831 4863 
L 2375 4863 
z
" transform="scale(0.015625)"/>
      <path id="DejaVuSans-6b" d="M 581 4863 
L 1159 4863 
L 1159 1991 
L 2875 3500 
L 3609 3500 
L 1753 1863 
L 3688 0 
L 2938 0 
L 1159 1709 
L 1159 0 
L 581 0 
L 581 4863 
z
" transform="scale(0.015625)"/>
      <path id="DejaVuSans-63" d="M 3122 3366 
L 3122 2828 
Q 2878 2963 2633 3030 
Q 2388 3097 2138 3097 
Q 1578 3097 1268 2742 
Q 959 2388 959 1747 
Q 959 1106 1268 751 
Q 1578 397 2138 397 
Q 2388 397 2633 464 
Q 2878 531 3122 666 
L 3122 134 
Q 2881 22 2623 -34 
Q 2366 -91 2075 -91 
Q 1284 -91 818 406 
Q 353 903 353 1747 
Q 353 2603 823 3093 
Q 1294 3584 2113 3584 
Q 2378 3584 2631 3529 
Q 2884 3475 3122 3366 
z
" transform="scale(0.015625)"/>
     </defs>
     <use xlink:href="#DejaVuSans-65"/>
     <use xlink:href="#DejaVuSans-73" transform="translate(61.523438 0)"/>
     <use xlink:href="#DejaVuSans-70" transform="translate(113.623047 0)"/>
     <use xlink:href="#DejaVuSans-69" transform="translate(177.099609 0)"/>
     <use xlink:href="#DejaVuSans-72" transform="translate(204.882812 0)"/>
     <use xlink:href="#DejaVuSans-61" transform="translate(245.996094 0)"/>
     <use xlink:href="#DejaVuSans-6c" transform="translate(307.275391 0)"/>
     <use xlink:href="#DejaVuSans-65" transform="translate(335.058594 0)"/>
     <use xlink:href="#DejaVuSans-73" transform="translate(396.582031 0)"/>
     <use xlink:href="#DejaVuSans-5f" transform="translate(448.681641 0)"/>
     <use xlink:href="#DejaVuSans-6c" transform="translate(498.681641 0)"/>
     <use xlink:href="#DejaVuSans-6f" transform="translate(526.464844 0)"/>
     <use xlink:href="#DejaVuSans-20" transform="translate(587.646484 0)"/>
     <use xlink:href="#DejaVuSans-37" transform="translate(619.433594 0)"/>
     <use xlink:href="#DejaVuSans-33" transform="translate(683.056641 0)"/>
     <use xlink:href="#DejaVuSans-35" transform="translate(746.679688 0)"/>
     <use xlink:href="#DejaVuSans-34" transform="translate(810.302734 0)"/>
     <use xlink:href="#DejaVuSans-20" transform="translate(873.925781 0)"/>
     <use xlink:href="#DejaVuSans-66" transform="translate(905.712891 0)"/>
     <use xlink:href="#DejaVuSans-6b" transform="translate(940.917969 0)"/>
     <use xlink:href="#DejaVuSans-64" transform="translate(998.828125 0)"/>
     <use xlink:href="#DejaVuSans-63" transform="translate(1062.304688 0)"/>
    </g>
   </g>
  </g>
  <g id="axes_2">
   <g id="patch_7">
    <path d="M 406.122358 316.44327 
L 420.828616 316.44327 
L 420.828616 22.318125 
L 406.122358 22.318125 
z
" style="fill: #ffffff"/>
   </g>
   <g id="QuadMesh_1">
    <path d="M 406.122358 316.44327 
L 420.828616 316.44327 
L 420.828616 296.834927 
L 406.122358 296.834927 
L 406.122358 316.44327 
" clip-path="url(#p5097c4bec0)" style="fill: #470d60"/>
    <path d="M 406.122358 296.834927 
L 420.828616 296.834927 
L 420.828616 277.226584 
L 406.122358 277.226584 
L 406.122358 296.834927 
" clip-path="url(#p5097c4bec0)" style="fill: #482475"/>
    <path d="M 406.122358 277.226584 
L 420.828616 277.226584 
L 420.828616 257.618241 
L 406.122358 257.618241 
L 406.122358 277.226584 
" clip-path="url(#p5097c4bec0)" style="fill: #443983"/>
    <path d="M 406.122358 257.618241 
L 420.828616 257.618241 
L 420.828616 238.009898 
L 406.122358 238.009898 
L 406.122358 257.618241 
" clip-path="url(#p5097c4bec0)" style="fill: #3d4d8a"/>
    <path d="M 406.122358 238.009898 
L 420.828616 238.009898 
L 420.828616 218.401555 
L 406.122358 218.401555 
L 406.122358 238.009898 
" clip-path="url(#p5097c4bec0)" style="fill: #355f8d"/>
    <path d="M 406.122358 218.401555 
L 420.828616 218.401555 
L 420.828616 198.793212 
L 406.122358 198.793212 
L 406.122358 218.401555 
" clip-path="url(#p5097c4bec0)" style="fill: #2d708e"/>
    <path d="M 406.122358 198.793212 
L 420.828616 198.793212 
L 420.828616 179.184869 
L 406.122358 179.184869 
L 406.122358 198.793212 
" clip-path="url(#p5097c4bec0)" style="fill: #27808e"/>
    <path d="M 406.122358 179.184869 
L 420.828616 179.184869 
L 420.828616 159.576526 
L 406.122358 159.576526 
L 406.122358 179.184869 
" clip-path="url(#p5097c4bec0)" style="fill: #21918c"/>
    <path d="M 406.122358 159.576526 
L 420.828616 159.576526 
L 420.828616 139.968183 
L 406.122358 139.968183 
L 406.122358 159.576526 
" clip-path="url(#p5097c4bec0)" style="fill: #1fa188"/>
    <path d="M 406.122358 139.968183 
L 420.828616 139.968183 
L 420.828616 120.35984 
L 406.122358 120.35984 
L 406.122358 139.968183 
" clip-path="url(#p5097c4bec0)" style="fill: #2ab07f"/>
    <path d="M 406.122358 120.35984 
L 420.828616 120.35984 
L 420.828616 100.751497 
L 406.122358 100.751497 
L 406.122358 120.35984 
" clip-path="url(#p5097c4bec0)" style="fill: #44bf70"/>
    <path d="M 406.122358 100.751497 
L 420.828616 100.751497 
L 420.828616 81.143154 
L 406.122358 81.143154 
L 406.122358 100.751497 
" clip-path="url(#p5097c4bec0)" style="fill: #67cc5c"/>
    <path d="M 406.122358 81.143154 
L 420.828616 81.143154 
L 420.828616 61.534811 
L 406.122358 61.534811 
L 406.122358 81.143154 
" clip-path="url(#p5097c4bec0)" style="fill: #90d743"/>
    <path d="M 406.122358 61.534811 
L 420.828616 61.534811 
L 420.828616 41.926468 
L 406.122358 41.926468 
L 406.122358 61.534811 
" clip-path="url(#p5097c4bec0)" style="fill: #bddf26"/>
    <path d="M 406.122358 41.926468 
L 420.828616 41.926468 
L 420.828616 22.318125 
L 406.122358 22.318125 
L 406.122358 41.926468 
" clip-path="url(#p5097c4bec0)" style="fill: #eae51a"/>
   </g>
   <g id="matplotlib.axis_3"/>
   <g id="matplotlib.axis_4">
    <g id="ytick_8">
     <g id="line2d_47">
      <defs>
       <path id="m0a27ea52cb" d="M 0 0 
L 3.5 0 
" style="stroke: #000000; stroke-width: 0.8"/>
      </defs>
      <g>
       <use xlink:href="#m0a27ea52cb" x="420.828616" y="296.834927" style="stroke: #000000; stroke-width: 0.8"/>
      </g>
     </g>
     <g id="text_16">
      <!-- -0.8 -->
      <g transform="translate(427.828616 300.634146) scale(0.1 -0.1)">
       <defs>
        <path id="DejaVuSans-2d" d="M 313 2009 
L 1997 2009 
L 1997 1497 
L 313 1497 
L 313 2009 
z
" transform="scale(0.015625)"/>
        <path id="DejaVuSans-38" d="M 2034 2216 
Q 1584 2216 1326 1975 
Q 1069 1734 1069 1313 
Q 1069 891 1326 650 
Q 1584 409 2034 409 
Q 2484 409 2743 651 
Q 3003 894 3003 1313 
Q 3003 1734 2745 1975 
Q 2488 2216 2034 2216 
z
M 1403 2484 
Q 997 2584 770 2862 
Q 544 3141 544 3541 
Q 544 4100 942 4425 
Q 1341 4750 2034 4750 
Q 2731 4750 3128 4425 
Q 3525 4100 3525 3541 
Q 3525 3141 3298 2862 
Q 3072 2584 2669 2484 
Q 3125 2378 3379 2068 
Q 3634 1759 3634 1313 
Q 3634 634 3220 271 
Q 2806 -91 2034 -91 
Q 1263 -91 848 271 
Q 434 634 434 1313 
Q 434 1759 690 2068 
Q 947 2378 1403 2484 
z
M 1172 3481 
Q 1172 3119 1398 2916 
Q 1625 2713 2034 2713 
Q 2441 2713 2670 2916 
Q 2900 3119 2900 3481 
Q 2900 3844 2670 4047 
Q 2441 4250 2034 4250 
Q 1625 4250 1398 4047 
Q 1172 3844 1172 3481 
z
" transform="scale(0.015625)"/>
       </defs>
       <use xlink:href="#DejaVuSans-2d"/>
       <use xlink:href="#DejaVuSans-30" transform="translate(36.083984 0)"/>
       <use xlink:href="#DejaVuSans-2e" transform="translate(99.707031 0)"/>
       <use xlink:href="#DejaVuSans-38" transform="translate(131.494141 0)"/>
      </g>
     </g>
    </g>
    <g id="ytick_9">
     <g id="line2d_48">
      <g>
       <use xlink:href="#m0a27ea52cb" x="420.828616" y="257.618241" style="stroke: #000000; stroke-width: 0.8"/>
      </g>
     </g>
     <g id="text_17">
      <!-- -0.7 -->
      <g transform="translate(427.828616 261.41746) scale(0.1 -0.1)">
       <use xlink:href="#DejaVuSans-2d"/>
       <use xlink:href="#DejaVuSans-30" transform="translate(36.083984 0)"/>
       <use xlink:href="#DejaVuSans-2e" transform="translate(99.707031 0)"/>
       <use xlink:href="#DejaVuSans-37" transform="translate(131.494141 0)"/>
      </g>
     </g>
    </g>
    <g id="ytick_10">
     <g id="line2d_49">
      <g>
       <use xlink:href="#m0a27ea52cb" x="420.828616" y="218.401555" style="stroke: #000000; stroke-width: 0.8"/>
      </g>
     </g>
     <g id="text_18">
      <!-- -0.6 -->
      <g transform="translate(427.828616 222.200774) scale(0.1 -0.1)">
       <defs>
        <path id="DejaVuSans-36" d="M 2113 2584 
Q 1688 2584 1439 2293 
Q 1191 2003 1191 1497 
Q 1191 994 1439 701 
Q 1688 409 2113 409 
Q 2538 409 2786 701 
Q 3034 994 3034 1497 
Q 3034 2003 2786 2293 
Q 2538 2584 2113 2584 
z
M 3366 4563 
L 3366 3988 
Q 3128 4100 2886 4159 
Q 2644 4219 2406 4219 
Q 1781 4219 1451 3797 
Q 1122 3375 1075 2522 
Q 1259 2794 1537 2939 
Q 1816 3084 2150 3084 
Q 2853 3084 3261 2657 
Q 3669 2231 3669 1497 
Q 3669 778 3244 343 
Q 2819 -91 2113 -91 
Q 1303 -91 875 529 
Q 447 1150 447 2328 
Q 447 3434 972 4092 
Q 1497 4750 2381 4750 
Q 2619 4750 2861 4703 
Q 3103 4656 3366 4563 
z
" transform="scale(0.015625)"/>
       </defs>
       <use xlink:href="#DejaVuSans-2d"/>
       <use xlink:href="#DejaVuSans-30" transform="translate(36.083984 0)"/>
       <use xlink:href="#DejaVuSans-2e" transform="translate(99.707031 0)"/>
       <use xlink:href="#DejaVuSans-36" transform="translate(131.494141 0)"/>
      </g>
     </g>
    </g>
    <g id="ytick_11">
     <g id="line2d_50">
      <g>
       <use xlink:href="#m0a27ea52cb" x="420.828616" y="179.184869" style="stroke: #000000; stroke-width: 0.8"/>
      </g>
     </g>
     <g id="text_19">
      <!-- -0.5 -->
      <g transform="translate(427.828616 182.984088) scale(0.1 -0.1)">
       <use xlink:href="#DejaVuSans-2d"/>
       <use xlink:href="#DejaVuSans-30" transform="translate(36.083984 0)"/>
       <use xlink:href="#DejaVuSans-2e" transform="translate(99.707031 0)"/>
       <use xlink:href="#DejaVuSans-35" transform="translate(131.494141 0)"/>
      </g>
     </g>
    </g>
    <g id="ytick_12">
     <g id="line2d_51">
      <g>
       <use xlink:href="#m0a27ea52cb" x="420.828616" y="139.968183" style="stroke: #000000; stroke-width: 0.8"/>
      </g>
     </g>
     <g id="text_20">
      <!-- -0.4 -->
      <g transform="translate(427.828616 143.767402) scale(0.1 -0.1)">
       <use xlink:href="#DejaVuSans-2d"/>
       <use xlink:href="#DejaVuSans-30" transform="translate(36.083984 0)"/>
       <use xlink:href="#DejaVuSans-2e" transform="translate(99.707031 0)"/>
       <use xlink:href="#DejaVuSans-34" transform="translate(131.494141 0)"/>
      </g>
     </g>
    </g>
    <g id="ytick_13">
     <g id="line2d_52">
      <g>
       <use xlink:href="#m0a27ea52cb" x="420.828616" y="100.751497" style="stroke: #000000; stroke-width: 0.8"/>
      </g>
     </g>
     <g id="text_21">
      <!-- -0.3 -->
      <g transform="translate(427.828616 104.550716) scale(0.1 -0.1)">
       <use xlink:href="#DejaVuSans-2d"/>
       <use xlink:href="#DejaVuSans-30" transform="translate(36.083984 0)"/>
       <use xlink:href="#DejaVuSans-2e" transform="translate(99.707031 0)"/>
       <use xlink:href="#DejaVuSans-33" transform="translate(131.494141 0)"/>
      </g>
     </g>
    </g>
    <g id="ytick_14">
     <g id="line2d_53">
      <g>
       <use xlink:href="#m0a27ea52cb" x="420.828616" y="61.534811" style="stroke: #000000; stroke-width: 0.8"/>
      </g>
     </g>
     <g id="text_22">
      <!-- -0.2 -->
      <g transform="translate(427.828616 65.33403) scale(0.1 -0.1)">
       <use xlink:href="#DejaVuSans-2d"/>
       <use xlink:href="#DejaVuSans-30" transform="translate(36.083984 0)"/>
       <use xlink:href="#DejaVuSans-2e" transform="translate(99.707031 0)"/>
       <use xlink:href="#DejaVuSans-32" transform="translate(131.494141 0)"/>
      </g>
     </g>
    </g>
    <g id="ytick_15">
     <g id="line2d_54">
      <g>
       <use xlink:href="#m0a27ea52cb" x="420.828616" y="22.318125" style="stroke: #000000; stroke-width: 0.8"/>
      </g>
     </g>
     <g id="text_23">
      <!-- -0.1 -->
      <g transform="translate(427.828616 26.117344) scale(0.1 -0.1)">
       <use xlink:href="#DejaVuSans-2d"/>
       <use xlink:href="#DejaVuSans-30" transform="translate(36.083984 0)"/>
       <use xlink:href="#DejaVuSans-2e" transform="translate(99.707031 0)"/>
       <use xlink:href="#DejaVuSans-31" transform="translate(131.494141 0)"/>
      </g>
     </g>
    </g>
    <g id="text_24">
     <!-- Score -->
     <g transform="translate(458.937991 183.383041) rotate(-90) scale(0.1 -0.1)">
      <defs>
       <path id="DejaVuSans-53" d="M 3425 4513 
L 3425 3897 
Q 3066 4069 2747 4153 
Q 2428 4238 2131 4238 
Q 1616 4238 1336 4038 
Q 1056 3838 1056 3469 
Q 1056 3159 1242 3001 
Q 1428 2844 1947 2747 
L 2328 2669 
Q 3034 2534 3370 2195 
Q 3706 1856 3706 1288 
Q 3706 609 3251 259 
Q 2797 -91 1919 -91 
Q 1588 -91 1214 -16 
Q 841 59 441 206 
L 441 856 
Q 825 641 1194 531 
Q 1563 422 1919 422 
Q 2459 422 2753 634 
Q 3047 847 3047 1241 
Q 3047 1584 2836 1778 
Q 2625 1972 2144 2069 
L 1759 2144 
Q 1053 2284 737 2584 
Q 422 2884 422 3419 
Q 422 4038 858 4394 
Q 1294 4750 2059 4750 
Q 2388 4750 2728 4690 
Q 3069 4631 3425 4513 
z
" transform="scale(0.015625)"/>
      </defs>
      <use xlink:href="#DejaVuSans-53"/>
      <use xlink:href="#DejaVuSans-63" transform="translate(63.476562 0)"/>
      <use xlink:href="#DejaVuSans-6f" transform="translate(118.457031 0)"/>
      <use xlink:href="#DejaVuSans-72" transform="translate(179.638672 0)"/>
      <use xlink:href="#DejaVuSans-65" transform="translate(218.501953 0)"/>
     </g>
    </g>
   </g>
   <g id="LineCollection_1"/>
   <g id="patch_8">
    <path d="M 406.122358 316.44327 
L 413.475487 316.44327 
L 420.828616 316.44327 
L 420.828616 22.318125 
L 413.475487 22.318125 
L 406.122358 22.318125 
L 406.122358 316.44327 
z
" style="fill: none; stroke: #000000; stroke-width: 0.8; stroke-linejoin: miter; stroke-linecap: square"/>
   </g>
  </g>
 </g>
 <defs>
  <clipPath id="p078e3c1532">
   <rect x="43.78125" y="22.318125" width="345.08677" height="294.125145"/>
  </clipPath>
  <clipPath id="p5097c4bec0">
   <rect x="406.122358" y="22.318125" width="14.706257" height="294.125145"/>
  </clipPath>
 </defs>
</svg>
