<?xml version="1.0" encoding="utf-8" standalone="no"?>
<!DOCTYPE svg PUBLIC "-//W3C//DTD SVG 1.1//EN"
  "http://www.w3.org/Graphics/SVG/1.1/DTD/svg11.dtd">
<svg xmlns:xlink="http://www.w3.org/1999/xlink" width="460.8pt" height="345.6pt" viewBox="0 0 460.8 345.6" xmlns="http://www.w3.org/2000/svg" version="1.1">
 <metadata>
  <rdf:RDF xmlns:dc="http://purl.org/dc/elements/1.1/" xmlns:cc="http://creativecommons.org/ns#" xmlns:rdf="http://www.w3.org/1999/02/22-rdf-syntax-ns#">
   <cc:Work>
    <dc:type rdf:resource="http://purl.org/dc/dcmitype/StillImage"/>
    <dc:date>1970-01-01T00:00:00+00:00</dc:date>
    <dc:format>image/svg+xml</dc:format>
    <dc:creator>
     <cc:Agent>
      <dc:title>Matplotlib v3.10.7, https://matplotlib.org/</dc:title>
     </cc:Agent>
    </dc:creator>
   </cc:Work>
  </rdf:RDF>
 </metadata>
 <defs>
  <style type="text/css">*{stroke-linejoin: round; stroke-linecap: butt}</style>
 </defs>
 <g id="figure_1">
  <g id="patch_1">
   <path d="M 0 345.6 
L 460.8 345.6 
L 460.8 0 
L 0 0 
z
" style="fill: #ffffff"/>
  </g>
  <g id="axes_1">
   <g id="patch_2">
    <path d="M 39.58149 312.24351 
L 378.623885 312.24351 
L 378.623885 18.118365 
L 39.58149 18.118365 
z
" style="fill: #ffffff"/>
   </g>
   <g id="QuadContourSet_1">
    <path d="M 39.58149 265.891469 
L 44.312636 263.222652 
L 39.58149 257.728329 
L 38.688254 263.222652 
z
M -73.432642 189.7634 
L -67.634594 189.691366 
L -73.432642 188.842261 
L -73.56438 189.691366 
z
M -129.939707 140.67094 
L -129.907404 140.670509 
L -129.939707 140.66548 
L -129.940369 140.670509 
z
M -186.446773 91.652146 
L -186.384604 91.649651 
L -186.446773 91.635421 
L -186.44842 91.649651 
z
M -242.953839 42.680526 
L -242.615418 42.628794 
L -242.953839 42.551204 
L -242.965526 42.628794 
z
" clip-path="url(#pace02e1532)" style="fill: #470d60"/>
    <path d="M 96.088556 312.24351 
L 111.798168 312.24351 
L 96.088556 297.088926 
L 92.165745 312.24351 
z
M 39.58149 278.904532 
L 64.588487 263.222652 
L 44.956631 238.712224 
L 39.58149 234.808925 
L -16.925576 214.898075 
L -21.036545 238.712224 
L -16.925576 240.863158 
L 34.212482 263.222652 
z
M 38.688254 263.222652 
L 39.58149 257.728329 
L 44.312636 263.222652 
L 39.58149 265.891469 
z
M -73.432642 192.244879 
L -16.925576 213.32223 
L -4.974452 189.691366 
L -16.925576 181.576274 
L -64.269085 165.180938 
L -61.217263 140.670509 
L -73.432642 132.121988 
L -116.896927 116.16008 
L -119.339675 91.649651 
L -129.939707 83.782106 
L -169.88023 67.139223 
L -178.269911 42.628794 
L -186.446773 35.656494 
L -233.257265 18.118365 
L -242.953839 18.118365 
L -258.776586 18.118365 
L -247.413737 42.628794 
L -242.953839 61.930688 
L -214.348963 67.139223 
L -190.924002 91.649651 
L -186.446773 98.27717 
L -133.915904 116.16008 
L -134.456784 140.670509 
L -129.939707 143.547772 
L -74.503105 165.180938 
L -78.214052 189.691366 
z
M -73.56438 189.691366 
L -73.432642 188.842261 
L -67.634594 189.691366 
L -73.432642 189.7634 
z
M -129.940369 140.670509 
L -129.939707 140.66548 
L -129.907404 140.670509 
L -129.939707 140.67094 
z
M -186.44842 91.649651 
L -186.446773 91.635421 
L -186.384604 91.649651 
L -186.446773 91.652146 
z
M -242.965526 42.628794 
L -242.953839 42.551204 
L -242.615418 42.628794 
L -242.953839 42.680526 
z
" clip-path="url(#pace02e1532)" style="fill: #482374"/>
    <path d="M 39.58149 288.783959 
L 87.057259 312.24351 
L 92.165745 312.24351 
L 96.088556 297.088926 
L 111.798168 312.24351 
L 128.372431 312.24351 
L 105.430208 287.733081 
L 96.088556 279.670794 
L 81.38478 263.222652 
L 61.505209 238.712224 
L 39.58149 221.35775 
L 23.113171 214.201795 
L 10.796093 189.691366 
L -16.925576 169.238023 
L -26.690011 165.180938 
L -44.866475 140.670509 
L -73.432642 118.880521 
L -79.608115 116.16008 
L -102.238817 91.649651 
L -129.939707 69.154762 
L -133.996267 67.139223 
L -160.267223 42.628794 
L -186.424023 18.118365 
L -186.446773 18.118365 
L -233.257265 18.118365 
L -186.446773 35.656494 
L -178.269911 42.628794 
L -169.88023 67.139223 
L -129.939707 83.782106 
L -119.339675 91.649651 
L -116.896927 116.16008 
L -73.432642 132.121988 
L -61.217263 140.670509 
L -64.269085 165.180938 
L -16.925576 181.576274 
L -4.974452 189.691366 
L -16.925576 213.32223 
L -73.432642 192.244879 
L -78.214052 189.691366 
L -74.503105 165.180938 
L -129.939707 143.547772 
L -134.456784 140.670509 
L -133.915904 116.16008 
L -186.446773 98.27717 
L -190.924002 91.649651 
L -214.348963 67.139223 
L -242.953839 61.930688 
L -247.413737 42.628794 
L -258.776586 18.118365 
L -299.460905 18.118365 
L -303.101993 18.118365 
L -299.460905 20.123288 
L -252.073125 42.628794 
L -246.782014 67.139223 
L -242.953839 69.230566 
L -195.61343 91.649651 
L -186.446773 104.902195 
L -150.277293 116.16008 
L -139.19106 140.670509 
L -129.939707 146.424605 
L -80.303851 165.180937 
L -83.094964 189.691366 
L -73.432642 194.726358 
L -21.793971 214.201795 
L -26.183204 238.712224 
L -16.925576 243.432059 
L 29.522846 263.222652 
L 38.099249 287.733081 
z
M 34.212482 263.222652 
L -16.925576 240.863158 
L -21.036545 238.712224 
L -16.925576 214.898075 
L 39.58149 234.808925 
L 44.956631 238.712224 
L 64.588487 263.222652 
L 39.58149 278.904532 
z
" clip-path="url(#pace02e1532)" style="fill: #453581"/>
    <path d="M 39.58149 292.051994 
L 81.668257 312.24351 
L 87.057259 312.24351 
L 39.58149 288.783959 
L 38.099249 287.733081 
L 29.522846 263.222652 
L -16.925576 243.432059 
L -26.183204 238.712224 
L -21.793971 214.201795 
L -73.432642 194.726358 
L -83.094964 189.691366 
L -80.303851 165.180938 
L -129.939707 146.424605 
L -139.19106 140.670509 
L -150.277293 116.16008 
L -186.446773 104.902195 
L -195.61343 91.649651 
L -242.953839 69.230566 
L -246.782014 67.139223 
L -252.073125 42.628794 
L -299.460905 20.123288 
L -303.101993 18.118365 
L -308.535681 18.118365 
L -299.460905 22.980335 
L -256.964744 42.628794 
L -252.285293 67.139223 
L -242.953839 72.097663 
L -200.538169 91.649651 
L -186.446773 111.52722 
L -169.922113 116.16008 
L -144.165286 140.670509 
L -129.939707 149.301437 
L -86.469028 165.180938 
L -88.231325 189.691366 
L -73.432642 197.207837 
L -27.048524 214.201795 
L -31.614705 238.712224 
L -16.925576 246.000961 
L 24.597877 263.222652 
L 33.341307 287.733081 
z
M 121.697871 287.733081 
L 96.088556 263.66256 
L 95.722656 263.222652 
L 75.662303 238.712224 
L 47.81895 214.201795 
L 39.58149 207.699061 
L 24.380209 189.691366 
L -5.425146 165.180938 
L -16.925576 156.128291 
L -30.854295 140.670509 
L -59.885015 116.16008 
L -73.432642 106.057634 
L -87.679748 91.649651 
L -115.239557 67.139222 
L -129.939707 56.690652 
L -145.060077 42.628794 
L -169.5947 18.118365 
L -186.424023 18.118365 
L -160.267223 42.628794 
L -133.996267 67.139223 
L -129.939707 69.154762 
L -102.238817 91.649651 
L -79.608115 116.16008 
L -73.432642 118.880521 
L -44.866475 140.670509 
L -26.690011 165.180938 
L -16.925576 169.238023 
L 10.796093 189.691366 
L 23.113171 214.201795 
L 39.58149 221.35775 
L 61.505209 238.712224 
L 81.38478 263.222652 
L 96.088556 279.670794 
L 105.430208 287.733081 
L 128.372431 312.24351 
L 142.548307 312.24351 
z
" clip-path="url(#pace02e1532)" style="fill: #3f4889"/>
    <path d="M 39.58149 295.320029 
L 75.966133 312.24351 
L 81.668257 312.24351 
L 39.58149 292.051994 
L 33.341307 287.733081 
L 24.597877 263.222652 
L -16.925576 246.000961 
L -31.614705 238.712224 
L -27.048524 214.201795 
L -73.432642 197.207837 
L -88.231325 189.691366 
L -86.469028 165.180938 
L -129.939707 149.301437 
L -144.165286 140.670509 
L -169.922113 116.16008 
L -186.446773 111.52722 
L -200.538169 91.649651 
L -242.953839 72.097663 
L -252.285293 67.139223 
L -256.964744 42.628794 
L -299.460905 22.980335 
L -308.535681 18.118365 
L -314.28786 18.118365 
L -299.460905 25.837382 
L -262.112963 42.628794 
L -258.115522 67.139222 
L -242.953839 74.96476 
L -205.723088 91.649651 
L -188.733379 116.16008 
L -186.446773 117.381653 
L -149.40509 140.670509 
L -129.939707 152.178269 
L -93.047517 165.180938 
L -93.651356 189.691366 
L -73.432642 199.689316 
L -32.600335 214.201795 
L -37.364433 238.712224 
L -16.925576 248.569862 
L 19.412703 263.222652 
L 28.340948 287.733081 
z
M 152.595622 312.24351 
L 156.095789 312.24351 
L 152.595622 309.241579 
L 135.648996 287.733081 
L 112.386415 263.222652 
L 96.088556 249.158596 
L 88.032637 238.712224 
L 63.397623 214.201795 
L 39.58149 193.804483 
L 36.310986 189.691366 
L 9.542501 165.180938 
L -16.925576 142.640599 
L -18.594704 140.670509 
L -45.125937 116.16008 
L -73.432642 93.342981 
L -75.003731 91.649651 
L -100.55978 67.139223 
L -129.939707 44.572257 
L -131.895836 42.628794 
L -155.232779 18.118365 
L -169.5947 18.118365 
L -145.060077 42.628794 
L -129.939707 56.690652 
L -115.239557 67.139223 
L -87.679748 91.649651 
L -73.432642 106.057634 
L -59.885015 116.16008 
L -30.854295 140.670509 
L -16.925576 156.128291 
L -5.425146 165.180938 
L 24.380209 189.691366 
L 39.58149 207.699061 
L 47.81895 214.201795 
L 75.662303 238.712224 
L 95.722656 263.222652 
L 96.088556 263.66256 
L 121.697871 287.733081 
L 142.548307 312.24351 
z
" clip-path="url(#pace02e1532)" style="fill: #375b8d"/>
    <path d="M -525.489168 312.24351 
L -468.982102 312.24351 
L -412.475036 312.24351 
L -355.967971 312.24351 
L -299.460905 312.24351 
L -242.953839 312.24351 
L -186.446773 312.24351 
L -150.793317 312.24351 
L -186.446773 303.683024 
L -242.438465 287.733081 
L -242.953839 287.628087 
L -299.460905 266.089593 
L -307.84961 263.222652 
L -355.967971 253.735355 
L -411.722707 238.712224 
L -412.475036 238.546444 
L -468.982102 218.024382 
L -491.473372 214.201795 
L -525.489168 208.984728 
L -580.77661 189.691366 
L -581.996234 189.481379 
L -581.996234 189.691366 
L -581.996234 214.201795 
L -581.996234 238.712224 
L -581.996234 263.222652 
L -581.996234 287.733081 
L -581.996234 312.24351 
z
M 39.58149 298.588064 
L 69.912244 312.24351 
L 75.966133 312.24351 
L 39.58149 295.320029 
L 28.340948 287.733081 
L 19.412703 263.222652 
L -16.925576 248.569862 
L -37.364433 238.712224 
L -32.600335 214.201795 
L -73.432642 199.689316 
L -93.651356 189.691366 
L -93.047517 165.180938 
L -129.939707 152.178269 
L -149.40509 140.670509 
L -186.446773 117.381653 
L -188.733379 116.16008 
L -205.723088 91.649651 
L -242.953839 74.96476 
L -258.115522 67.139223 
L -262.112963 42.628794 
L -299.460905 25.837382 
L -314.28786 18.118365 
L -320.398203 18.118365 
L -299.460905 28.694428 
L -267.546201 42.628794 
L -264.314016 67.139223 
L -242.953839 77.831857 
L -211.19722 91.649651 
L -196.745065 116.16008 
L -186.446773 121.444045 
L -154.940437 140.670509 
L -129.939707 155.055102 
L -100.09874 165.180938 
L -99.388233 189.691366 
L -73.432642 202.170795 
L -38.485063 214.201795 
L -43.472011 238.712224 
L -16.925576 251.138764 
L 13.938288 263.222652 
L 23.072139 287.733081 
z
M 152.595622 309.241579 
L 156.095789 312.24351 
L 172.047819 312.24351 
L 152.595622 294.119448 
L 147.861843 287.733081 
L 126.727062 263.222652 
L 101.090868 238.712224 
L 96.088556 235.258854 
L 76.839218 214.201795 
L 51.570317 189.691366 
L 39.58149 181.972478 
L 22.526975 165.180938 
L -2.140725 140.670509 
L -16.925576 131.318089 
L -32.298642 116.16008 
L -57.537008 91.649651 
L -73.432642 81.806367 
L -87.7924 67.139223 
L -113.588689 42.628794 
L -129.939707 32.333738 
L -142.706407 18.118365 
L -155.232779 18.118365 
L -131.895836 42.628794 
L -129.939707 44.572257 
L -100.55978 67.139223 
L -75.003731 91.649651 
L -73.432642 93.342981 
L -45.125937 116.16008 
L -18.594704 140.670509 
L -16.925576 142.640599 
L 9.542501 165.180938 
L 36.310986 189.691366 
L 39.58149 193.804483 
L 63.397623 214.201795 
L 88.032637 238.712224 
L 96.088556 249.158596 
L 112.386415 263.222652 
L 135.648996 287.733081 
z
M 548.145082 312.24351 
L 604.652148 312.24351 
L 661.159214 312.24351 
L 717.66628 312.24351 
L 774.173346 312.24351 
L 830.680411 312.24351 
L 887.187477 312.24351 
L 943.694543 312.24351 
L 1000.201609 312.24351 
L 1056.708675 312.24351 
L 1113.21574 312.24351 
L 1169.722806 312.24351 
L 1226.229872 312.24351 
L 1282.736938 312.24351 
L 1339.244004 312.24351 
L 1395.751069 312.24351 
L 1452.258135 312.24351 
L 1508.765201 312.24351 
L 1565.272267 312.24351 
L 1621.779333 312.24351 
L 1678.286399 312.24351 
L 1734.793464 312.24351 
L 1791.30053 312.24351 
L 1847.807596 312.24351 
L 1904.314662 312.24351 
L 1904.314662 287.733081 
L 1904.314662 263.222652 
L 1904.314662 238.712224 
L 1904.314662 214.201795 
L 1904.314662 189.691366 
L 1904.314662 165.180938 
L 1904.314662 140.670509 
L 1904.314662 116.16008 
L 1904.314662 91.649651 
L 1904.314662 67.139223 
L 1904.314662 42.628794 
L 1904.314662 18.118365 
L 1847.807596 18.118365 
L 1791.30053 18.118365 
L 1734.793464 18.118365 
L 1678.286399 18.118365 
L 1621.779333 18.118365 
L 1565.272267 18.118365 
L 1508.765201 18.118365 
L 1452.258135 18.118365 
L 1395.751069 18.118365 
L 1339.244004 18.118365 
L 1282.736938 18.118365 
L 1226.229872 18.118365 
L 1169.722806 18.118365 
L 1113.21574 18.118365 
L 1056.708675 18.118365 
L 1000.201609 18.118365 
L 943.694543 18.118365 
L 887.187477 18.118365 
L 830.680411 18.118365 
L 774.173346 18.118365 
L 717.66628 18.118365 
L 661.159214 18.118365 
L 604.652148 18.118365 
L 548.145082 18.118365 
L 491.638016 18.118365 
L 435.130951 18.118365 
L 428.684676 18.118365 
L 435.130951 35.438549 
L 445.683964 42.628794 
L 468.192435 67.139223 
L 480.446408 91.649651 
L 489.010345 116.16008 
L 491.638016 124.592113 
L 511.065354 140.670509 
L 526.671774 165.180938 
L 536.116057 189.691366 
L 542.368904 214.201795 
L 546.459623 238.712224 
L 548.145082 254.227302 
L 554.53619 263.222652 
L 557.810726 287.733081 
L 548.145082 293.857113 
L 544.901411 312.24351 
z
" clip-path="url(#pace02e1532)" style="fill: #2f6b8e"/>
    <path d="M -186.446773 303.683024 
L -150.793317 312.24351 
L -129.939707 312.24351 
L -95.765397 312.24351 
L -129.939707 300.100322 
L -161.822025 287.733081 
L -186.446773 280.30576 
L -234.471188 263.222652 
L -242.953839 260.633703 
L -299.460905 238.895539 
L -299.944064 238.712224 
L -355.967971 220.326706 
L -370.533414 214.201795 
L -412.475036 202.845386 
L -445.434768 189.691366 
L -468.982102 182.447279 
L -513.308103 165.180938 
L -525.489168 161.020126 
L -576.779713 140.670509 
L -581.996234 139.188735 
L -581.996234 140.670509 
L -581.996234 165.180938 
L -581.996234 189.481379 
L -580.77661 189.691366 
L -525.489168 208.984728 
L -491.473372 214.201795 
L -468.982102 218.024382 
L -412.475036 238.546444 
L -411.722707 238.712224 
L -355.967971 253.735355 
L -307.84961 263.222652 
L -299.460905 266.089593 
L -242.953839 287.628087 
L -242.438465 287.733081 
z
M 39.58149 301.856099 
L 63.460317 312.24351 
L 69.912244 312.24351 
L 39.58149 298.588064 
L 23.072139 287.733081 
L 13.938288 263.222652 
L -16.925576 251.138764 
L -43.472011 238.712224 
L -38.485063 214.201795 
L -73.432642 202.170795 
L -99.388233 189.691366 
L -100.09874 165.180938 
L -129.939707 155.055102 
L -154.940437 140.670509 
L -186.446773 121.444045 
L -196.745065 116.16008 
L -211.19722 91.649651 
L -242.953839 77.831857 
L -264.314016 67.139223 
L -267.546201 42.628794 
L -299.460905 28.694428 
L -320.398203 18.118365 
L -326.914294 18.118365 
L -299.460905 31.551475 
L -273.297876 42.628794 
L -270.930453 67.139223 
L -242.953839 80.698954 
L -216.994743 91.649651 
L -205.469214 116.16008 
L -186.446773 125.506437 
L -160.806671 140.670509 
L -129.939707 157.931934 
L -107.695938 165.180938 
L -105.481311 189.691366 
L -73.432642 204.652274 
L -44.745198 214.201795 
L -49.984956 238.712224 
L -16.925576 253.707665 
L 8.140445 263.222652 
L 17.50441 287.733081 
z
M 152.595622 294.119448 
L 172.047819 312.24351 
L 185.766295 312.24351 
L 162.928353 287.733081 
L 152.595622 279.84926 
L 139.237254 263.222652 
L 117.250521 238.712224 
L 96.088556 222.820575 
L 88.659954 214.201795 
L 66.419594 189.691366 
L 39.58149 171.007787 
L 33.992849 165.180938 
L 12.744437 140.670509 
L -16.925576 120.365933 
L -20.955467 116.16008 
L -41.91808 91.649651 
L -73.432642 70.450747 
L -76.496089 67.139223 
L -97.113322 42.628794 
L -129.939707 20.072274 
L -131.599122 18.118365 
L -142.706407 18.118365 
L -129.939707 32.333738 
L -113.588689 42.628794 
L -87.7924 67.139223 
L -73.432642 81.806367 
L -57.537008 91.649651 
L -32.298642 116.16008 
L -16.925576 131.318089 
L -2.140725 140.670509 
L 22.526975 165.180938 
L 39.58149 181.972478 
L 51.570317 189.691366 
L 76.839218 214.201795 
L 96.088556 235.258854 
L 101.090868 238.712224 
L 126.727062 263.222652 
L 147.861843 287.733081 
z
M 548.145082 293.857113 
L 557.810726 287.733081 
L 554.53619 263.222652 
L 548.145082 254.227302 
L 546.459623 238.712224 
L 542.368904 214.201795 
L 536.116057 189.691366 
L 526.671774 165.180938 
L 511.065354 140.670509 
L 491.638016 124.592113 
L 489.010345 116.16008 
L 480.446408 91.649651 
L 468.192435 67.139223 
L 445.683964 42.628794 
L 435.130951 35.438549 
L 428.684676 18.118365 
L 384.253726 18.118365 
L 404.770784 42.628794 
L 419.125053 67.139223 
L 430.094327 91.649651 
L 435.130951 104.780654 
L 446.296972 116.16008 
L 464.112127 140.670509 
L 476.438626 165.180938 
L 485.378277 189.691366 
L 491.638016 212.733062 
L 492.886201 214.201795 
L 509.553587 238.712224 
L 519.096396 263.222652 
L 522.540177 287.733081 
L 518.032189 312.24351 
L 544.901411 312.24351 
z
" clip-path="url(#pace02e1532)" style="fill: #29798e"/>
    <path d="M -129.939707 300.100322 
L -95.765397 312.24351 
L -73.432642 312.24351 
L -65.898268 312.24351 
L -73.432642 309.535971 
L -124.405212 287.733081 
L -129.939707 285.848648 
L -186.446773 263.980898 
L -188.147163 263.222652 
L -242.953839 241.774463 
L -249.185971 238.712224 
L -299.460905 221.146823 
L -314.861274 214.201795 
L -355.967971 199.613896 
L -381.989657 189.691366 
L -412.475036 179.655577 
L -446.841895 165.180938 
L -468.982102 157.643735 
L -504.426382 140.670509 
L -525.489168 133.330978 
L -566.676547 116.16008 
L -581.996234 110.84141 
L -581.996234 116.16008 
L -581.996234 139.188735 
L -576.779713 140.670509 
L -525.489168 161.020126 
L -513.308103 165.180938 
L -468.982102 182.447279 
L -445.434768 189.691366 
L -412.475036 202.845386 
L -370.533414 214.201795 
L -355.967971 220.326706 
L -299.944064 238.712224 
L -299.460905 238.895539 
L -242.953839 260.633703 
L -234.471188 263.222652 
L -186.446773 280.30576 
L -161.822025 287.733081 
z
M 39.58149 305.124134 
L 56.554306 312.24351 
L 63.460317 312.24351 
L 39.58149 301.856099 
L 17.50441 287.733081 
L 8.140445 263.222652 
L -16.925576 253.707665 
L -49.984956 238.712224 
L -44.745198 214.201795 
L -73.432642 204.652274 
L -105.481311 189.691366 
L -107.695938 165.180938 
L -129.939707 157.931934 
L -160.806671 140.670509 
L -186.446773 125.506437 
L -205.469214 116.16008 
L -216.994743 91.649651 
L -242.953839 80.698954 
L -270.930453 67.139223 
L -273.297876 42.628794 
L -299.460905 31.551475 
L -326.914294 18.118365 
L -333.893874 18.118365 
L -299.460905 34.408522 
L -279.407651 42.628794 
L -278.025296 67.139223 
L -242.953839 83.56605 
L -223.156282 91.649651 
L -215.04502 116.16008 
L -186.446773 129.568828 
L -167.04588 140.670509 
L -129.939707 160.808766 
L -115.930808 165.180938 
L -111.977771 189.691366 
L -73.432642 207.133753 
L -51.431919 214.201795 
L -56.960928 238.712224 
L -16.925576 256.276566 
L 1.978547 263.222652 
L 11.601793 287.733081 
z
M 178.587575 287.733081 
L 152.595622 266.201894 
L 150.33182 263.222652 
L 131.122178 238.712224 
L 102.921597 214.201795 
L 96.088556 210.068091 
L 79.314935 189.691366 
L 50.535821 165.180937 
L 39.58149 158.437839 
L 25.666819 140.670509 
L -2.643228 116.16008 
L -16.925576 106.647094 
L -28.446544 91.649651 
L -56.795013 67.139223 
L -73.432642 55.361037 
L -83.009809 42.628794 
L -110.326703 18.118365 
L -129.939707 18.118365 
L -131.599122 18.118365 
L -129.939707 20.072274 
L -97.113322 42.628794 
L -76.496089 67.139223 
L -73.432642 70.450747 
L -41.91808 91.649651 
L -20.955467 116.16008 
L -16.925576 120.365933 
L 12.744437 140.670509 
L 33.992849 165.180938 
L 39.58149 171.007787 
L 66.419594 189.691366 
L 88.659954 214.201795 
L 96.088556 222.820575 
L 117.250521 238.712224 
L 139.237254 263.222652 
L 152.595622 279.84926 
L 162.928353 287.733081 
L 185.766295 312.24351 
L 197.800553 312.24351 
z
M 491.638016 312.24351 
L 518.032189 312.24351 
L 522.540177 287.733081 
L 519.096396 263.222652 
L 509.553587 238.712224 
L 492.886201 214.201795 
L 491.638016 212.733062 
L 485.378277 189.691366 
L 476.438626 165.180938 
L 464.112127 140.670509 
L 446.296972 116.16008 
L 435.130951 104.780654 
L 430.094327 91.649651 
L 419.125053 67.139223 
L 404.770784 42.628794 
L 384.253726 18.118365 
L 378.623885 18.118365 
L 358.140502 18.118365 
L 370.596702 42.628794 
L 378.623885 60.513382 
L 384.953114 67.139223 
L 404.267539 91.649651 
L 418.389032 116.16008 
L 429.359595 140.670509 
L 435.130951 155.358114 
L 443.918276 165.180938 
L 461.272436 189.691366 
L 473.200592 214.201795 
L 481.699547 238.712224 
L 487.468578 263.222652 
L 490.108219 287.733081 
L 489.252249 312.24351 
z
" clip-path="url(#pace02e1532)" style="fill: #23888e"/>
    <path d="M -73.432642 309.535971 
L -65.898268 312.24351 
L -45.990216 312.24351 
L -73.432642 301.296497 
L -101.931034 287.733081 
L -129.939707 277.004915 
L -161.037504 263.222652 
L -186.446773 253.474315 
L -218.283466 238.712224 
L -242.953839 228.83751 
L -277.110419 214.201795 
L -299.460905 206.022942 
L -336.872995 189.691366 
L -355.967971 182.928751 
L -397.772865 165.180938 
L -412.475036 159.993616 
L -456.106061 140.670509 
L -468.982102 136.0735 
L -513.269509 116.16008 
L -525.489168 111.894498 
L -569.531362 91.649651 
L -581.996234 87.385608 
L -581.996234 91.649651 
L -581.996234 110.84141 
L -566.676547 116.16008 
L -525.489168 133.330978 
L -504.426382 140.670509 
L -468.982102 157.643735 
L -446.841895 165.180938 
L -412.475036 179.655577 
L -381.989657 189.691366 
L -355.967971 199.613896 
L -314.861274 214.201795 
L -299.460905 221.146823 
L -249.185971 238.712224 
L -242.953839 241.774463 
L -188.147163 263.222652 
L -186.446773 263.980898 
L -129.939707 285.848648 
L -124.405212 287.733081 
z
M 39.58149 308.392169 
L 49.125421 312.24351 
L 56.554306 312.24351 
L 39.58149 305.124134 
L 11.601793 287.733081 
L 1.978547 263.222652 
L -16.925576 256.276566 
L -56.960928 238.712224 
L -51.431919 214.201795 
L -73.432642 207.133753 
L -111.977771 189.691366 
L -115.930808 165.180938 
L -129.939707 160.808766 
L -167.04588 140.670509 
L -186.446773 129.568828 
L -215.04502 116.16008 
L -223.156282 91.649651 
L -242.953839 83.56605 
L -278.025296 67.139223 
L -279.407651 42.628794 
L -299.460905 34.408522 
L -333.893874 18.118365 
L -341.407964 18.118365 
L -299.460905 37.265568 
L -285.923095 42.628794 
L -285.673157 67.139223 
L -242.953839 86.433147 
L -229.730627 91.649651 
L -225.656931 116.16008 
L -186.446773 133.63122 
L -173.70873 140.670509 
L -129.939707 163.685598 
L -124.920289 165.180938 
L -118.934831 189.691366 
L -73.432642 209.615232 
L -58.607644 214.201795 
L -64.470836 238.712224 
L -16.925576 258.845468 
L -4.596208 263.222652 
L 5.321411 287.733081 
z
M 192.08906 287.733081 
L 166.155133 263.222652 
L 152.595622 251.52 
L 143.274109 238.712224 
L 122.358796 214.201795 
L 96.088556 196.606596 
L 90.711272 189.691366 
L 70.484698 165.180938 
L 39.58149 144.04736 
L 37.084264 140.670509 
L 16.862376 116.16008 
L -15.954787 91.649651 
L -16.925576 91.107146 
L -37.26829 67.139223 
L -65.630888 42.628794 
L -73.432642 38.381952 
L -91.174799 18.118365 
L -110.326703 18.118365 
L -83.009809 42.628794 
L -73.432642 55.361037 
L -56.795013 67.139223 
L -28.446544 91.649651 
L -16.925576 106.647094 
L -2.643228 116.16008 
L 25.666819 140.670509 
L 39.58149 158.437839 
L 50.535821 165.180938 
L 79.314935 189.691366 
L 96.088556 210.068091 
L 102.921597 214.201795 
L 131.122178 238.712224 
L 150.33182 263.222652 
L 152.595622 266.201894 
L 178.587575 287.733081 
L 197.800553 312.24351 
L 208.519284 312.24351 
z
M 490.108219 287.733081 
L 487.468578 263.222652 
L 481.699547 238.712224 
L 473.200592 214.201795 
L 461.272436 189.691366 
L 443.918276 165.180938 
L 435.130951 155.358114 
L 429.359595 140.670509 
L 418.389032 116.16008 
L 404.267539 91.649651 
L 384.953114 67.139223 
L 378.623885 60.513382 
L 370.596702 42.628794 
L 358.140502 18.118365 
L 328.971622 18.118365 
L 347.393486 42.628794 
L 362.090482 67.139223 
L 374.510786 91.649651 
L 378.623885 100.235616 
L 392.522634 116.16008 
L 409.186693 140.670509 
L 422.075437 165.180938 
L 432.790777 189.691366 
L 435.130951 195.411228 
L 449.976472 214.201795 
L 463.653616 238.712224 
L 472.877378 263.222652 
L 478.075075 287.733081 
L 479.133349 312.24351 
L 489.252249 312.24351 
z
" clip-path="url(#pace02e1532)" style="fill: #1f988b"/>
    <path d="M -73.432642 301.296497 
L -45.990216 312.24351 
L -29.446836 312.24351 
L -73.432642 293.057024 
L -83.655812 287.733081 
L -129.939707 268.161183 
L -139.987408 263.222652 
L -186.446773 243.251139 
L -195.184386 238.712224 
L -242.953839 217.048588 
L -248.731677 214.201795 
L -299.460905 192.558419 
L -305.07986 189.691366 
L -355.967971 168.296498 
L -362.133727 165.180938 
L -412.475036 143.669628 
L -418.100378 140.670509 
L -468.982102 118.392963 
L -473.062511 116.16008 
L -525.489168 93.446644 
L -528.690821 91.649651 
L -581.996234 68.936352 
L -581.996234 87.385608 
L -569.531362 91.649651 
L -525.489168 111.894498 
L -513.269509 116.16008 
L -468.982102 136.0735 
L -456.106061 140.670509 
L -412.475036 159.993616 
L -397.772865 165.180938 
L -355.967971 182.928751 
L -336.872995 189.691366 
L -299.460905 206.022942 
L -277.110419 214.201795 
L -242.953839 228.83751 
L -218.283466 238.712224 
L -186.446773 253.474315 
L -161.037504 263.222652 
L -129.939707 277.004915 
L -101.931034 287.733081 
z
M 39.58149 311.660204 
L 41.087953 312.24351 
L 49.125421 312.24351 
L 39.58149 308.392169 
L 5.321411 287.733081 
L -4.596208 263.222652 
L -16.925576 258.845468 
L -64.470836 238.712224 
L -58.607644 214.201795 
L -73.432642 209.615232 
L -118.934831 189.691366 
L -124.920289 165.180938 
L -129.939707 163.685598 
L -173.70873 140.670509 
L -186.446773 133.63122 
L -225.656931 116.16008 
L -229.730627 91.649651 
L -242.953839 86.433147 
L -285.673157 67.139223 
L -285.923095 42.628794 
L -299.460905 37.265568 
L -341.407964 18.118365 
L -349.545271 18.118365 
L -299.460905 40.122615 
L -292.901934 42.628794 
L -293.967592 67.139223 
L -242.953839 89.300244 
L -236.77709 91.649651 
L -237.556671 116.16008 
L -186.446773 137.693612 
L -180.856971 140.670509 
L -174.34122 165.180938 
L -129.939707 177.916582 
L -126.422825 189.691366 
L -73.432642 212.096711 
L -66.349578 214.201795 
L -72.603238 238.712224 
L -16.925576 261.414369 
L -11.643142 263.222652 
L -1.388417 287.733081 
z
M 209.102687 312.24351 
L 223.03811 312.24351 
L 209.102687 295.920892 
L 203.956073 287.733081 
L 181.150631 263.222652 
L 155.404527 238.712224 
L 152.595622 235.6398 
L 138.576056 214.201795 
L 107.833126 189.691366 
L 96.088556 178.921758 
L 87.05623 165.180938 
L 61.241637 140.670509 
L 39.58149 125.172752 
L 33.127179 116.16008 
L 12.817117 91.649651 
L -16.925576 72.331533 
L -20.988821 67.139223 
L -37.920191 42.628794 
L -73.432642 20.251624 
L -75.156433 18.118365 
L -91.174799 18.118365 
L -73.432642 38.381952 
L -65.630888 42.628794 
L -37.26829 67.139222 
L -16.925576 91.107146 
L -15.954787 91.649651 
L 16.862376 116.16008 
L 37.084264 140.670509 
L 39.58149 144.04736 
L 70.484698 165.180938 
L 90.711272 189.691366 
L 96.088556 196.606596 
L 122.358796 214.201795 
L 143.274109 238.712224 
L 152.595622 251.52 
L 166.155133 263.222652 
L 192.08906 287.733081 
L 208.519284 312.24351 
z
M 478.075075 287.733081 
L 472.877378 263.222652 
L 463.653616 238.712224 
L 449.976472 214.201795 
L 435.130951 195.411228 
L 432.790777 189.691366 
L 422.075437 165.180938 
L 409.186693 140.670509 
L 392.522634 116.16008 
L 378.623885 100.235616 
L 374.510786 91.649651 
L 362.090482 67.139223 
L 347.393486 42.628794 
L 328.971622 18.118365 
L 322.116819 18.118365 
L 305.485998 18.118365 
L 319.268503 42.628794 
L 322.116819 47.843237 
L 338.227289 67.139223 
L 354.882104 91.649651 
L 368.892408 116.16008 
L 378.623885 134.91021 
L 383.766651 140.670509 
L 402.366428 165.180938 
L 416.753137 189.691366 
L 428.469059 214.201795 
L 435.130951 230.263387 
L 441.525693 238.712224 
L 455.732144 263.222652 
L 464.358048 287.733081 
L 467.8502 312.24351 
L 479.133349 312.24351 
z
" clip-path="url(#pace02e1532)" style="fill: #22a785"/>
    <path d="M -73.432642 293.057024 
L -29.446836 312.24351 
L -16.925576 312.24351 
L 39.58149 312.24351 
L 41.087953 312.24351 
L 39.58149 311.660204 
L -1.388417 287.733081 
L -11.643142 263.222652 
L -16.925576 261.414369 
L -72.603238 238.712224 
L -66.349578 214.201795 
L -73.432642 212.096711 
L -126.422825 189.691366 
L -129.939707 177.916582 
L -174.34122 165.180938 
L -180.856971 140.670509 
L -186.446773 137.693612 
L -237.556671 116.16008 
L -236.77709 91.649651 
L -242.953839 89.300244 
L -293.967592 67.139223 
L -292.901934 42.628794 
L -299.460905 40.122615 
L -349.545271 18.118365 
L -355.967971 18.118365 
L -412.475036 18.118365 
L -433.481878 18.118365 
L -412.475036 42.1333 
L -410.516044 42.628794 
L -355.967971 60.111883 
L -327.984479 67.139223 
L -323.698631 91.649651 
L -299.460905 101.72857 
L -257.344483 116.16008 
L -242.953839 134.544639 
L -215.089593 140.670509 
L -220.206924 165.180938 
L -186.446773 177.149654 
L -147.29271 189.691366 
L -129.939707 213.285 
L -120.848621 214.201795 
L -129.939707 216.493783 
L -186.446773 229.637045 
L -213.756683 214.201795 
L -242.953839 201.582511 
L -265.881081 189.691366 
L -299.460905 175.775614 
L -320.046242 165.180938 
L -355.967971 148.889258 
L -371.14168 140.670509 
L -355.967971 122.935993 
L -348.253287 116.16008 
L -355.967971 112.634222 
L -371.193591 116.16008 
L -412.475036 122.912987 
L -424.437579 116.16008 
L -468.982102 96.096626 
L -476.880826 91.649651 
L -518.811353 67.139223 
L -525.489168 64.568067 
L -572.336324 42.628794 
L -581.996234 39.03513 
L -581.996234 42.628794 
L -581.996234 67.139223 
L -581.996234 68.936352 
L -528.690821 91.649651 
L -525.489168 93.446644 
L -473.062511 116.16008 
L -468.982102 118.392963 
L -418.100378 140.670509 
L -412.475036 143.669628 
L -362.133727 165.180938 
L -355.967971 168.296498 
L -305.07986 189.691366 
L -299.460905 192.558419 
L -248.731677 214.201795 
L -242.953839 217.048588 
L -195.184386 238.712224 
L -186.446773 243.251139 
L -139.987408 263.222652 
L -129.939707 268.161183 
L -83.655812 287.733081 
z
M -56.067386 287.733081 
L -73.432642 276.179439 
L -96.218042 263.222652 
L -73.432642 255.737509 
L -37.249549 263.222652 
L -16.925576 268.537926 
L -8.590761 287.733081 
L -16.925576 309.718577 
z
M 209.102687 295.920892 
L 223.03811 312.24351 
L 235.937997 312.24351 
L 218.239671 287.733081 
L 209.102687 280.757376 
L 194.156049 263.222652 
L 172.911799 238.712224 
L 152.595622 214.374832 
L 152.490115 214.201795 
L 128.304363 189.691366 
L 104.897886 165.180938 
L 96.088556 156.120815 
L 83.828223 140.670509 
L 57.007236 116.16008 
L 39.58149 98.914486 
L 35.03947 91.649651 
L 10.676212 67.139223 
L -15.645047 42.628794 
L -16.925576 41.665238 
L -38.840761 18.118365 
L -73.432642 18.118365 
L -75.156433 18.118365 
L -73.432642 20.251624 
L -37.920191 42.628794 
L -20.988821 67.139223 
L -16.925576 72.331533 
L 12.817117 91.649651 
L 33.127179 116.16008 
L 39.58149 125.172752 
L 61.241637 140.670509 
L 87.05623 165.180938 
L 96.088556 178.921758 
L 107.833126 189.691366 
L 138.576056 214.201795 
L 152.595622 235.6398 
L 155.404527 238.712224 
L 181.150631 263.222652 
L 203.956073 287.733081 
z
M 464.358048 287.733081 
L 455.732144 263.222652 
L 441.525693 238.712224 
L 435.130951 230.263387 
L 428.469059 214.201795 
L 416.753137 189.691366 
L 402.366428 165.180938 
L 383.766651 140.670509 
L 378.623885 134.91021 
L 368.892408 116.16008 
L 354.882104 91.649651 
L 338.227289 67.139223 
L 322.116819 47.843237 
L 319.268503 42.628794 
L 305.485998 18.118365 
L 279.916376 18.118365 
L 297.599203 42.628794 
L 313.176653 67.139222 
L 322.116819 82.20548 
L 330.321831 91.649651 
L 348.762366 116.16008 
L 364.261357 140.670509 
L 378.074016 165.180938 
L 378.623885 166.158313 
L 397.573648 189.691366 
L 412.735736 214.201795 
L 424.812903 238.712224 
L 435.026904 263.222652 
L 435.130951 263.494417 
L 448.407978 287.733081 
L 455.099636 312.24351 
L 467.8502 312.24351 
z
" clip-path="url(#pace02e1532)" style="fill: #31b57b"/>
    <path d="M -16.925576 309.718577 
L -8.590761 287.733081 
L -16.925576 268.537926 
L -37.249549 263.222652 
L -73.432642 255.737509 
L -96.218042 263.222652 
L -73.432642 276.179439 
L -56.067386 287.733081 
z
M -19.039169 287.733081 
L -16.925576 286.489662 
L -16.363692 287.733081 
L -16.925576 289.157253 
z
M 233.530798 287.733081 
L 209.102687 267.527836 
L 205.638246 263.222652 
L 187.764194 238.712224 
L 171.731382 214.201795 
L 152.595622 197.813575 
L 145.23436 189.691366 
L 124.911205 165.180938 
L 105.099328 140.670509 
L 96.088556 132.203319 
L 82.240372 116.16008 
L 60.295119 91.649651 
L 39.58149 67.474394 
L 39.317944 67.139223 
L 19.203636 42.628794 
L -7.627856 18.118365 
L -16.925576 18.118365 
L -38.840761 18.118365 
L -16.925576 41.665238 
L -15.645047 42.628794 
L 10.676212 67.139223 
L 35.03947 91.649651 
L 39.58149 98.914486 
L 57.007236 116.16008 
L 83.828223 140.670509 
L 96.088556 156.120815 
L 104.897886 165.180938 
L 128.304363 189.691366 
L 152.490115 214.201795 
L 152.595622 214.374832 
L 172.911799 238.712224 
L 194.156049 263.222652 
L 209.102687 280.757376 
L 218.239671 287.733081 
L 235.937997 312.24351 
L 247.337883 312.24351 
z
M 435.130951 299.102858 
L 440.442097 312.24351 
L 455.099636 312.24351 
L 448.407978 287.733081 
L 435.130951 263.494417 
L 435.026904 263.222652 
L 424.812903 238.712224 
L 412.735736 214.201795 
L 397.573648 189.691366 
L 378.623885 166.158313 
L 378.074016 165.180938 
L 364.261357 140.670509 
L 348.762366 116.16008 
L 330.321831 91.649651 
L 322.116819 82.20548 
L 313.176653 67.139223 
L 297.599203 42.628794 
L 279.916376 18.118365 
L 265.609753 18.118365 
L 252.423122 18.118365 
L 265.609753 38.023712 
L 269.750106 42.628794 
L 289.801538 67.139223 
L 307.117007 91.649651 
L 322.116819 114.731652 
L 323.410485 116.16008 
L 343.522386 140.670509 
L 360.226774 165.180937 
L 375.377099 189.691366 
L 378.623885 194.912765 
L 393.990257 214.201795 
L 409.12868 238.712224 
L 421.14047 263.222652 
L 431.295651 287.733081 
z
M -186.446773 229.637045 
L -129.939707 216.493783 
L -120.848621 214.201795 
L -129.939707 213.285 
L -147.29271 189.691366 
L -186.446773 177.149654 
L -220.206924 165.180938 
L -215.089593 140.670509 
L -242.953839 134.544639 
L -257.344483 116.16008 
L -299.460905 101.72857 
L -323.698631 91.649651 
L -327.984479 67.139223 
L -355.967971 60.111883 
L -410.516044 42.628794 
L -412.475036 42.1333 
L -433.481878 18.118365 
L -463.621311 18.118365 
L -468.982102 22.767102 
L -475.115666 18.118365 
L -525.489168 18.118365 
L -581.996234 18.118365 
L -581.996234 39.03513 
L -572.336324 42.628794 
L -525.489168 64.568067 
L -518.811353 67.139223 
L -476.880826 91.649651 
L -468.982102 96.096626 
L -424.437579 116.16008 
L -412.475036 122.912987 
L -371.193591 116.16008 
L -355.967971 112.634222 
L -348.253287 116.16008 
L -355.967971 122.935993 
L -371.14168 140.670509 
L -355.967971 148.889258 
L -320.046242 165.180938 
L -299.460905 175.775614 
L -265.881081 189.691366 
L -242.953839 201.582511 
L -213.756683 214.201795 
z
M -308.568919 116.16008 
L -299.460905 112.895225 
L -288.229994 116.16008 
L -299.460905 122.865422 
z
M -418.139881 91.649651 
L -412.475036 84.971984 
L -377.51862 91.649651 
L -412.475036 95.243825 
z
" clip-path="url(#pace02e1532)" style="fill: #4ec36b"/>
    <path d="M -16.925576 289.157253 
L -16.363692 287.733081 
L -16.925576 286.489662 
L -19.039169 287.733081 
z
M 246.757892 287.733081 
L 225.486303 263.222652 
L 209.102687 251.444996 
L 200.661886 238.712224 
L 187.859562 214.201795 
L 166.667607 189.691366 
L 152.595622 179.917009 
L 141.527135 165.180938 
L 126.895853 140.670509 
L 106.834197 116.16008 
L 96.088556 108.796665 
L 82.063865 91.649651 
L 66.767588 67.139223 
L 47.923318 42.628794 
L 39.58149 36.947127 
L 21.962536 18.118365 
L -7.627856 18.118365 
L 19.203636 42.628794 
L 39.317944 67.139223 
L 39.58149 67.474394 
L 60.295119 91.649651 
L 82.240372 116.16008 
L 96.088556 132.203319 
L 105.099328 140.670509 
L 124.911205 165.180938 
L 145.23436 189.691366 
L 152.595622 197.813575 
L 171.731382 214.201795 
L 187.764194 238.712224 
L 205.638246 263.222652 
L 209.102687 267.527836 
L 233.530798 287.733081 
L 247.337883 312.24351 
L 257.550552 312.24351 
z
M 435.130951 312.24351 
L 440.442097 312.24351 
L 435.130951 299.102858 
L 431.295651 287.733081 
L 421.14047 263.222652 
L 409.12868 238.712224 
L 393.990257 214.201795 
L 378.623885 194.912765 
L 375.377099 189.691366 
L 360.226774 165.180938 
L 343.522386 140.670509 
L 323.410485 116.16008 
L 322.116819 114.731652 
L 307.117007 91.649651 
L 289.801538 67.139223 
L 269.750106 42.628794 
L 265.609753 38.023712 
L 252.423122 18.118365 
L 222.308717 18.118365 
L 242.324734 42.628794 
L 260.593216 67.139223 
L 265.609753 73.832291 
L 281.465182 91.649651 
L 300.302784 116.16008 
L 318.168249 140.670509 
L 322.116819 145.917719 
L 338.39726 165.180938 
L 355.848878 189.691366 
L 372.404281 214.201795 
L 378.623885 223.147175 
L 390.452922 238.712224 
L 404.96075 263.222652 
L 416.398259 287.733081 
L 425.216747 312.24351 
z
M -299.460905 122.865422 
L -288.229994 116.16008 
L -299.460905 112.895225 
L -308.568919 116.16008 
z
M -412.475036 95.243825 
L -377.51862 91.649651 
L -412.475036 84.971984 
L -418.139881 91.649651 
z
M -468.982102 22.767102 
L -463.621311 18.118365 
L -468.982102 18.118365 
L -475.115666 18.118365 
z
" clip-path="url(#pace02e1532)" style="fill: #70cf57"/>
    <path d="M 265.609753 312.24351 
L 271.192769 312.24351 
L 265.609753 308.205365 
L 258.412478 287.733081 
L 245.637469 263.222652 
L 220.288151 238.712224 
L 209.102687 231.044382 
L 201.708036 214.201795 
L 189.562823 189.691366 
L 163.919033 165.180938 
L 152.595622 157.410242 
L 144.721069 140.670509 
L 133.542618 116.16008 
L 108.722453 91.649651 
L 96.088556 83.079024 
L 88.239458 67.139223 
L 77.917951 42.628794 
L 54.528638 18.118365 
L 39.58149 18.118365 
L 21.962536 18.118365 
L 39.58149 36.947127 
L 47.923318 42.628794 
L 66.767588 67.139223 
L 82.063865 91.649651 
L 96.088556 108.796665 
L 106.834197 116.16008 
L 126.895853 140.670509 
L 141.527135 165.180938 
L 152.595622 179.917009 
L 166.667607 189.691366 
L 187.859562 214.201795 
L 200.661886 238.712224 
L 209.102687 251.444996 
L 225.486303 263.222652 
L 246.757892 287.733081 
L 257.550552 312.24351 
z
M 416.398259 287.733081 
L 404.96075 263.222652 
L 390.452922 238.712224 
L 378.623885 223.147175 
L 372.404281 214.201795 
L 355.848878 189.691366 
L 338.39726 165.180938 
L 322.116819 145.917719 
L 318.168249 140.670509 
L 300.302784 116.16008 
L 281.465182 91.649651 
L 265.609753 73.832291 
L 260.593216 67.139223 
L 242.324734 42.628794 
L 222.308717 18.118365 
L 209.102687 18.118365 
L 184.929889 18.118365 
L 206.354708 42.628794 
L 209.102687 45.558649 
L 228.418001 67.139223 
L 248.466487 91.649651 
L 265.609753 110.707044 
L 270.689728 116.16008 
L 290.509609 140.670509 
L 310.27037 165.180938 
L 322.116819 178.563841 
L 331.445977 189.691366 
L 349.25429 214.201795 
L 367.101138 238.712224 
L 378.623885 253.270494 
L 385.577505 263.222652 
L 398.828387 287.733081 
L 408.344421 312.24351 
L 425.216747 312.24351 
z
" clip-path="url(#pace02e1532)" style="fill: #98d83e"/>
    <path d="M 265.609753 308.205365 
L 271.192769 312.24351 
L 305.09272 312.24351 
L 286.434614 287.733081 
L 265.609753 273.086816 
L 262.348202 263.222652 
L 253.164034 238.712224 
L 238.240638 214.201795 
L 209.102687 192.792601 
L 208.115053 189.691366 
L 201.510494 165.180938 
L 193.055587 140.670509 
L 181.181511 116.16008 
L 209.102687 104.007273 
L 218.75671 116.16008 
L 238.922182 140.670509 
L 265.609753 159.180847 
L 270.665695 165.180938 
L 289.551828 189.691366 
L 315.301489 214.201795 
L 322.116819 219.268154 
L 335.966224 238.712224 
L 353.282381 263.222652 
L 375.799973 287.733081 
L 378.623885 290.544617 
L 387.957542 312.24351 
L 408.344421 312.24351 
L 398.828387 287.733081 
L 385.577505 263.222652 
L 378.623885 253.270494 
L 367.101138 238.712224 
L 349.25429 214.201795 
L 331.445977 189.691366 
L 322.116819 178.563841 
L 310.27037 165.180938 
L 290.509609 140.670509 
L 270.689728 116.16008 
L 265.609753 110.707044 
L 248.466487 91.649651 
L 228.418001 67.139223 
L 209.102687 45.558649 
L 206.354708 42.628794 
L 184.929889 18.118365 
L 152.595622 18.118365 
L 96.088556 18.118365 
L 54.528638 18.118365 
L 77.917951 42.628794 
L 88.239458 67.139223 
L 96.088556 83.079024 
L 108.722453 91.649651 
L 133.542618 116.16008 
L 144.721069 140.670509 
L 152.595622 157.410242 
L 163.919033 165.180938 
L 189.562823 189.691366 
L 201.708036 214.201795 
L 209.102687 231.044382 
L 220.288151 238.712224 
L 245.637469 263.222652 
L 258.412478 287.733081 
z
M 150.473844 91.649651 
L 148.271357 67.139223 
L 152.595622 55.650125 
L 160.270062 67.139223 
L 174.487502 91.649651 
L 152.595622 101.086867 
z
" clip-path="url(#pace02e1532)" style="fill: #c0df25"/>
    <path d="M 322.116819 312.24351 
L 378.623885 312.24351 
L 387.957542 312.24351 
L 378.623885 290.544617 
L 375.799973 287.733081 
L 353.282381 263.222652 
L 335.966224 238.712224 
L 322.116819 219.268154 
L 315.301489 214.201795 
L 289.551828 189.691366 
L 270.665695 165.180938 
L 265.609753 159.180847 
L 238.922182 140.670509 
L 218.75671 116.16008 
L 209.102687 104.007273 
L 181.181511 116.16008 
L 193.055587 140.670509 
L 201.510494 165.180938 
L 208.115053 189.691366 
L 209.102687 192.792601 
L 238.240638 214.201795 
L 253.164034 238.712224 
L 262.348202 263.222652 
L 265.609753 273.086816 
L 286.434614 287.733081 
L 305.09272 312.24351 
z
M 152.595622 101.086867 
L 174.487502 91.649651 
L 160.270062 67.139223 
L 152.595622 55.650125 
L 148.271357 67.139223 
L 150.473844 91.649651 
z
" clip-path="url(#pace02e1532)" style="fill: #ece51b"/>
   </g>
   <g id="PathCollection_1">
    <defs>
     <path id="mdc0741d33a" d="M -3 3 
L 3 -3 
M -3 -3 
L 3 3 
" style="stroke: #ff0000; stroke-width: 1.5"/>
    </defs>
    <g clip-path="url(#pace02e1532)">
     <use xlink:href="#mdc0741d33a" x="322.116819" y="312.24351" style="fill: #ff0000; stroke: #ff0000; stroke-width: 1.5"/>
     <use xlink:href="#mdc0741d33a" x="322.116819" y="287.733081" style="fill: #ff0000; stroke: #ff0000; stroke-width: 1.5"/>
     <use xlink:href="#mdc0741d33a" x="322.116819" y="263.222652" style="fill: #ff0000; stroke: #ff0000; stroke-width: 1.5"/>
     <use xlink:href="#mdc0741d33a" x="265.609753" y="238.712224" style="fill: #ff0000; stroke: #ff0000; stroke-width: 1.5"/>
     <use xlink:href="#mdc0741d33a" x="265.609753" y="214.201795" style="fill: #ff0000; stroke: #ff0000; stroke-width: 1.5"/>
     <use xlink:href="#mdc0741d33a" x="265.609753" y="189.691366" style="fill: #ff0000; stroke: #ff0000; stroke-width: 1.5"/>
     <use xlink:href="#mdc0741d33a" x="209.102687" y="165.180938" style="fill: #ff0000; stroke: #ff0000; stroke-width: 1.5"/>
     <use xlink:href="#mdc0741d33a" x="209.102687" y="140.670509" style="fill: #ff0000; stroke: #ff0000; stroke-width: 1.5"/>
     <use xlink:href="#mdc0741d33a" x="209.102687" y="116.16008" style="fill: #ff0000; stroke: #ff0000; stroke-width: 1.5"/>
     <use xlink:href="#mdc0741d33a" x="152.595622" y="91.649651" style="fill: #ff0000; stroke: #ff0000; stroke-width: 1.5"/>
     <use xlink:href="#mdc0741d33a" x="152.595622" y="67.139223" style="fill: #ff0000; stroke: #ff0000; stroke-width: 1.5"/>
     <use xlink:href="#mdc0741d33a" x="152.595622" y="42.628794" style="fill: #ff0000; stroke: #ff0000; stroke-width: 1.5"/>
     <use xlink:href="#mdc0741d33a" x="96.088556" y="18.118365" style="fill: #ff0000; stroke: #ff0000; stroke-width: 1.5"/>
    </g>
   </g>
   <g id="matplotlib.axis_1">
    <g id="xtick_1">
     <g id="line2d_1">
      <defs>
       <path id="m38f3b05bbe" d="M 0 0 
L 0 3.5 
" style="stroke: #000000; stroke-width: 0.8"/>
      </defs>
      <g>
       <use xlink:href="#m38f3b05bbe" x="96.088556" y="312.24351" style="stroke: #000000; stroke-width: 0.8"/>
      </g>
     </g>
     <g id="text_1">
      <!-- $\mathdefault{10^{-2}}$ -->
      <g transform="translate(84.338556 326.841947) scale(0.1 -0.1)">
       <defs>
        <path id="DejaVuSans-31" d="M 794 531 
L 1825 531 
L 1825 4091 
L 703 3866 
L 703 4441 
L 1819 4666 
L 2450 4666 
L 2450 531 
L 3481 531 
L 3481 0 
L 794 0 
L 794 531 
z
" transform="scale(0.015625)"/>
        <path id="DejaVuSans-30" d="M 2034 4250 
Q 1547 4250 1301 3770 
Q 1056 3291 1056 2328 
Q 1056 1369 1301 889 
Q 1547 409 2034 409 
Q 2525 409 2770 889 
Q 3016 1369 3016 2328 
Q 3016 3291 2770 3770 
Q 2525 4250 2034 4250 
z
M 2034 4750 
Q 2819 4750 3233 4129 
Q 3647 3509 3647 2328 
Q 3647 1150 3233 529 
Q 2819 -91 2034 -91 
Q 1250 -91 836 529 
Q 422 1150 422 2328 
Q 422 3509 836 4129 
Q 1250 4750 2034 4750 
z
" transform="scale(0.015625)"/>
        <path id="DejaVuSans-2212" d="M 678 2272 
L 4684 2272 
L 4684 1741 
L 678 1741 
L 678 2272 
z
" transform="scale(0.015625)"/>
        <path id="DejaVuSans-32" d="M 1228 531 
L 3431 531 
L 3431 0 
L 469 0 
L 469 531 
Q 828 903 1448 1529 
Q 2069 2156 2228 2338 
Q 2531 2678 2651 2914 
Q 2772 3150 2772 3378 
Q 2772 3750 2511 3984 
Q 2250 4219 1831 4219 
Q 1534 4219 1204 4116 
Q 875 4013 500 3803 
L 500 4441 
Q 881 4594 1212 4672 
Q 1544 4750 1819 4750 
Q 2544 4750 2975 4387 
Q 3406 4025 3406 3419 
Q 3406 3131 3298 2873 
Q 3191 2616 2906 2266 
Q 2828 2175 2409 1742 
Q 1991 1309 1228 531 
z
" transform="scale(0.015625)"/>
       </defs>
       <use xlink:href="#DejaVuSans-31" transform="translate(0 0.765625)"/>
       <use xlink:href="#DejaVuSans-30" transform="translate(63.623047 0.765625)"/>
       <use xlink:href="#DejaVuSans-2212" transform="translate(128.203125 39.046875) scale(0.7)"/>
       <use xlink:href="#DejaVuSans-32" transform="translate(186.855469 39.046875) scale(0.7)"/>
      </g>
     </g>
    </g>
    <g id="xtick_2">
     <g id="line2d_2">
      <g>
       <use xlink:href="#m38f3b05bbe" x="322.116819" y="312.24351" style="stroke: #000000; stroke-width: 0.8"/>
      </g>
     </g>
     <g id="text_2">
      <!-- $\mathdefault{10^{-1}}$ -->
      <g transform="translate(310.366819 326.841947) scale(0.1 -0.1)">
       <use xlink:href="#DejaVuSans-31" transform="translate(0 0.684375)"/>
       <use xlink:href="#DejaVuSans-30" transform="translate(63.623047 0.684375)"/>
       <use xlink:href="#DejaVuSans-2212" transform="translate(128.203125 38.965625) scale(0.7)"/>
       <use xlink:href="#DejaVuSans-31" transform="translate(186.855469 38.965625) scale(0.7)"/>
      </g>
     </g>
    </g>
    <g id="xtick_3">
     <g id="line2d_3">
      <defs>
       <path id="m360e1f0208" d="M 0 0 
L 0 2 
" style="stroke: #000000; stroke-width: 0.6"/>
      </defs>
      <g>
       <use xlink:href="#m360e1f0208" x="45.944468" y="312.24351" style="stroke: #000000; stroke-width: 0.6"/>
      </g>
     </g>
    </g>
    <g id="xtick_4">
     <g id="line2d_4">
      <g>
       <use xlink:href="#m360e1f0208" x="61.076335" y="312.24351" style="stroke: #000000; stroke-width: 0.6"/>
      </g>
     </g>
    </g>
    <g id="xtick_5">
     <g id="line2d_5">
      <g>
       <use xlink:href="#m360e1f0208" x="74.184154" y="312.24351" style="stroke: #000000; stroke-width: 0.6"/>
      </g>
     </g>
    </g>
    <g id="xtick_6">
     <g id="line2d_6">
      <g>
       <use xlink:href="#m360e1f0208" x="85.74607" y="312.24351" style="stroke: #000000; stroke-width: 0.6"/>
      </g>
     </g>
    </g>
    <g id="xtick_7">
     <g id="line2d_7">
      <g>
       <use xlink:href="#m360e1f0208" x="164.129843" y="312.24351" style="stroke: #000000; stroke-width: 0.6"/>
      </g>
     </g>
    </g>
    <g id="xtick_8">
     <g id="line2d_8">
      <g>
       <use xlink:href="#m360e1f0208" x="203.931444" y="312.24351" style="stroke: #000000; stroke-width: 0.6"/>
      </g>
     </g>
    </g>
    <g id="xtick_9">
     <g id="line2d_9">
      <g>
       <use xlink:href="#m360e1f0208" x="232.17113" y="312.24351" style="stroke: #000000; stroke-width: 0.6"/>
      </g>
     </g>
    </g>
    <g id="xtick_10">
     <g id="line2d_10">
      <g>
       <use xlink:href="#m360e1f0208" x="254.075532" y="312.24351" style="stroke: #000000; stroke-width: 0.6"/>
      </g>
     </g>
    </g>
    <g id="xtick_11">
     <g id="line2d_11">
      <g>
       <use xlink:href="#m360e1f0208" x="271.972731" y="312.24351" style="stroke: #000000; stroke-width: 0.6"/>
      </g>
     </g>
    </g>
    <g id="xtick_12">
     <g id="line2d_12">
      <g>
       <use xlink:href="#m360e1f0208" x="287.104598" y="312.24351" style="stroke: #000000; stroke-width: 0.6"/>
      </g>
     </g>
    </g>
    <g id="xtick_13">
     <g id="line2d_13">
      <g>
       <use xlink:href="#m360e1f0208" x="300.212417" y="312.24351" style="stroke: #000000; stroke-width: 0.6"/>
      </g>
     </g>
    </g>
    <g id="xtick_14">
     <g id="line2d_14">
      <g>
       <use xlink:href="#m360e1f0208" x="311.774333" y="312.24351" style="stroke: #000000; stroke-width: 0.6"/>
      </g>
     </g>
    </g>
    <g id="text_3">
     <!-- bandwidth -->
     <g transform="translate(182.740187 340.520072) scale(0.1 -0.1)">
      <defs>
       <path id="DejaVuSans-62" d="M 3116 1747 
Q 3116 2381 2855 2742 
Q 2594 3103 2138 3103 
Q 1681 3103 1420 2742 
Q 1159 2381 1159 1747 
Q 1159 1113 1420 752 
Q 1681 391 2138 391 
Q 2594 391 2855 752 
Q 3116 1113 3116 1747 
z
M 1159 2969 
Q 1341 3281 1617 3432 
Q 1894 3584 2278 3584 
Q 2916 3584 3314 3078 
Q 3713 2572 3713 1747 
Q 3713 922 3314 415 
Q 2916 -91 2278 -91 
Q 1894 -91 1617 61 
Q 1341 213 1159 525 
L 1159 0 
L 581 0 
L 581 4863 
L 1159 4863 
L 1159 2969 
z
" transform="scale(0.015625)"/>
       <path id="DejaVuSans-61" d="M 2194 1759 
Q 1497 1759 1228 1600 
Q 959 1441 959 1056 
Q 959 750 1161 570 
Q 1363 391 1709 391 
Q 2188 391 2477 730 
Q 2766 1069 2766 1631 
L 2766 1759 
L 2194 1759 
z
M 3341 1997 
L 3341 0 
L 2766 0 
L 2766 531 
Q 2569 213 2275 61 
Q 1981 -91 1556 -91 
Q 1019 -91 701 211 
Q 384 513 384 1019 
Q 384 1609 779 1909 
Q 1175 2209 1959 2209 
L 2766 2209 
L 2766 2266 
Q 2766 2663 2505 2880 
Q 2244 3097 1772 3097 
Q 1472 3097 1187 3025 
Q 903 2953 641 2809 
L 641 3341 
Q 956 3463 1253 3523 
Q 1550 3584 1831 3584 
Q 2591 3584 2966 3190 
Q 3341 2797 3341 1997 
z
" transform="scale(0.015625)"/>
       <path id="DejaVuSans-6e" d="M 3513 2113 
L 3513 0 
L 2938 0 
L 2938 2094 
Q 2938 2591 2744 2837 
Q 2550 3084 2163 3084 
Q 1697 3084 1428 2787 
Q 1159 2491 1159 1978 
L 1159 0 
L 581 0 
L 581 3500 
L 1159 3500 
L 1159 2956 
Q 1366 3272 1645 3428 
Q 1925 3584 2291 3584 
Q 2894 3584 3203 3211 
Q 3513 2838 3513 2113 
z
" transform="scale(0.015625)"/>
       <path id="DejaVuSans-64" d="M 2906 2969 
L 2906 4863 
L 3481 4863 
L 3481 0 
L 2906 0 
L 2906 525 
Q 2725 213 2448 61 
Q 2172 -91 1784 -91 
Q 1150 -91 751 415 
Q 353 922 353 1747 
Q 353 2572 751 3078 
Q 1150 3584 1784 3584 
Q 2172 3584 2448 3432 
Q 2725 3281 2906 2969 
z
M 947 1747 
Q 947 1113 1208 752 
Q 1469 391 1925 391 
Q 2381 391 2643 752 
Q 2906 1113 2906 1747 
Q 2906 2381 2643 2742 
Q 2381 3103 1925 3103 
Q 1469 3103 1208 2742 
Q 947 2381 947 1747 
z
" transform="scale(0.015625)"/>
       <path id="DejaVuSans-77" d="M 269 3500 
L 844 3500 
L 1563 769 
L 2278 3500 
L 2956 3500 
L 3675 769 
L 4391 3500 
L 4966 3500 
L 4050 0 
L 3372 0 
L 2619 2869 
L 1863 0 
L 1184 0 
L 269 3500 
z
" transform="scale(0.015625)"/>
       <path id="DejaVuSans-69" d="M 603 3500 
L 1178 3500 
L 1178 0 
L 603 0 
L 603 3500 
z
M 603 4863 
L 1178 4863 
L 1178 4134 
L 603 4134 
L 603 4863 
z
" transform="scale(0.015625)"/>
       <path id="DejaVuSans-74" d="M 1172 4494 
L 1172 3500 
L 2356 3500 
L 2356 3053 
L 1172 3053 
L 1172 1153 
Q 1172 725 1289 603 
Q 1406 481 1766 481 
L 2356 481 
L 2356 0 
L 1766 0 
Q 1100 0 847 248 
Q 594 497 594 1153 
L 594 3053 
L 172 3053 
L 172 3500 
L 594 3500 
L 594 4494 
L 1172 4494 
z
" transform="scale(0.015625)"/>
       <path id="DejaVuSans-68" d="M 3513 2113 
L 3513 0 
L 2938 0 
L 2938 2094 
Q 2938 2591 2744 2837 
Q 2550 3084 2163 3084 
Q 1697 3084 1428 2787 
Q 1159 2491 1159 1978 
L 1159 0 
L 581 0 
L 581 4863 
L 1159 4863 
L 1159 2956 
Q 1366 3272 1645 3428 
Q 1925 3584 2291 3584 
Q 2894 3584 3203 3211 
Q 3513 2838 3513 2113 
z
" transform="scale(0.015625)"/>
      </defs>
      <use xlink:href="#DejaVuSans-62"/>
      <use xlink:href="#DejaVuSans-61" transform="translate(63.476562 0)"/>
      <use xlink:href="#DejaVuSans-6e" transform="translate(124.755859 0)"/>
      <use xlink:href="#DejaVuSans-64" transform="translate(188.134766 0)"/>
      <use xlink:href="#DejaVuSans-77" transform="translate(251.611328 0)"/>
      <use xlink:href="#DejaVuSans-69" transform="translate(333.398438 0)"/>
      <use xlink:href="#DejaVuSans-64" transform="translate(361.181641 0)"/>
      <use xlink:href="#DejaVuSans-74" transform="translate(424.658203 0)"/>
      <use xlink:href="#DejaVuSans-68" transform="translate(463.867188 0)"/>
     </g>
    </g>
   </g>
   <g id="matplotlib.axis_2">
    <g id="ytick_1">
     <g id="line2d_15">
      <defs>
       <path id="mbd2f377c6c" d="M 0 0 
L -3.5 0 
" style="stroke: #000000; stroke-width: 0.8"/>
      </defs>
      <g>
       <use xlink:href="#mbd2f377c6c" x="39.58149" y="312.24351" style="stroke: #000000; stroke-width: 0.8"/>
      </g>
     </g>
     <g id="text_4">
      <!-- 1.0 -->
      <g transform="translate(16.678365 316.042729) scale(0.1 -0.1)">
       <defs>
        <path id="DejaVuSans-2e" d="M 684 794 
L 1344 794 
L 1344 0 
L 684 0 
L 684 794 
z
" transform="scale(0.015625)"/>
       </defs>
       <use xlink:href="#DejaVuSans-31"/>
       <use xlink:href="#DejaVuSans-2e" transform="translate(63.623047 0)"/>
       <use xlink:href="#DejaVuSans-30" transform="translate(95.410156 0)"/>
      </g>
     </g>
    </g>
    <g id="ytick_2">
     <g id="line2d_16">
      <g>
       <use xlink:href="#mbd2f377c6c" x="39.58149" y="263.222652" style="stroke: #000000; stroke-width: 0.8"/>
      </g>
     </g>
     <g id="text_5">
      <!-- 1.5 -->
      <g transform="translate(16.678365 267.021871) scale(0.1 -0.1)">
       <defs>
        <path id="DejaVuSans-35" d="M 691 4666 
L 3169 4666 
L 3169 4134 
L 1269 4134 
L 1269 2991 
Q 1406 3038 1543 3061 
Q 1681 3084 1819 3084 
Q 2600 3084 3056 2656 
Q 3513 2228 3513 1497 
Q 3513 744 3044 326 
Q 2575 -91 1722 -91 
Q 1428 -91 1123 -41 
Q 819 9 494 109 
L 494 744 
Q 775 591 1075 516 
Q 1375 441 1709 441 
Q 2250 441 2565 725 
Q 2881 1009 2881 1497 
Q 2881 1984 2565 2268 
Q 2250 2553 1709 2553 
Q 1456 2553 1204 2497 
Q 953 2441 691 2322 
L 691 4666 
z
" transform="scale(0.015625)"/>
       </defs>
       <use xlink:href="#DejaVuSans-31"/>
       <use xlink:href="#DejaVuSans-2e" transform="translate(63.623047 0)"/>
       <use xlink:href="#DejaVuSans-35" transform="translate(95.410156 0)"/>
      </g>
     </g>
    </g>
    <g id="ytick_3">
     <g id="line2d_17">
      <g>
       <use xlink:href="#mbd2f377c6c" x="39.58149" y="214.201795" style="stroke: #000000; stroke-width: 0.8"/>
      </g>
     </g>
     <g id="text_6">
      <!-- 2.0 -->
      <g transform="translate(16.678365 218.001014) scale(0.1 -0.1)">
       <use xlink:href="#DejaVuSans-32"/>
       <use xlink:href="#DejaVuSans-2e" transform="translate(63.623047 0)"/>
       <use xlink:href="#DejaVuSans-30" transform="translate(95.410156 0)"/>
      </g>
     </g>
    </g>
    <g id="ytick_4">
     <g id="line2d_18">
      <g>
       <use xlink:href="#mbd2f377c6c" x="39.58149" y="165.180938" style="stroke: #000000; stroke-width: 0.8"/>
      </g>
     </g>
     <g id="text_7">
      <!-- 2.5 -->
      <g transform="translate(16.678365 168.980156) scale(0.1 -0.1)">
       <use xlink:href="#DejaVuSans-32"/>
       <use xlink:href="#DejaVuSans-2e" transform="translate(63.623047 0)"/>
       <use xlink:href="#DejaVuSans-35" transform="translate(95.410156 0)"/>
      </g>
     </g>
    </g>
    <g id="ytick_5">
     <g id="line2d_19">
      <g>
       <use xlink:href="#mbd2f377c6c" x="39.58149" y="116.16008" style="stroke: #000000; stroke-width: 0.8"/>
      </g>
     </g>
     <g id="text_8">
      <!-- 3.0 -->
      <g transform="translate(16.678365 119.959299) scale(0.1 -0.1)">
       <defs>
        <path id="DejaVuSans-33" d="M 2597 2516 
Q 3050 2419 3304 2112 
Q 3559 1806 3559 1356 
Q 3559 666 3084 287 
Q 2609 -91 1734 -91 
Q 1441 -91 1130 -33 
Q 819 25 488 141 
L 488 750 
Q 750 597 1062 519 
Q 1375 441 1716 441 
Q 2309 441 2620 675 
Q 2931 909 2931 1356 
Q 2931 1769 2642 2001 
Q 2353 2234 1838 2234 
L 1294 2234 
L 1294 2753 
L 1863 2753 
Q 2328 2753 2575 2939 
Q 2822 3125 2822 3475 
Q 2822 3834 2567 4026 
Q 2313 4219 1838 4219 
Q 1578 4219 1281 4162 
Q 984 4106 628 3988 
L 628 4550 
Q 988 4650 1302 4700 
Q 1616 4750 1894 4750 
Q 2613 4750 3031 4423 
Q 3450 4097 3450 3541 
Q 3450 3153 3228 2886 
Q 3006 2619 2597 2516 
z
" transform="scale(0.015625)"/>
       </defs>
       <use xlink:href="#DejaVuSans-33"/>
       <use xlink:href="#DejaVuSans-2e" transform="translate(63.623047 0)"/>
       <use xlink:href="#DejaVuSans-30" transform="translate(95.410156 0)"/>
      </g>
     </g>
    </g>
    <g id="ytick_6">
     <g id="line2d_20">
      <g>
       <use xlink:href="#mbd2f377c6c" x="39.58149" y="67.139223" style="stroke: #000000; stroke-width: 0.8"/>
      </g>
     </g>
     <g id="text_9">
      <!-- 3.5 -->
      <g transform="translate(16.678365 70.938441) scale(0.1 -0.1)">
       <use xlink:href="#DejaVuSans-33"/>
       <use xlink:href="#DejaVuSans-2e" transform="translate(63.623047 0)"/>
       <use xlink:href="#DejaVuSans-35" transform="translate(95.410156 0)"/>
      </g>
     </g>
    </g>
    <g id="ytick_7">
     <g id="line2d_21">
      <g>
       <use xlink:href="#mbd2f377c6c" x="39.58149" y="18.118365" style="stroke: #000000; stroke-width: 0.8"/>
      </g>
     </g>
     <g id="text_10">
      <!-- 4.0 -->
      <g transform="translate(16.678365 21.917584) scale(0.1 -0.1)">
       <defs>
        <path id="DejaVuSans-34" d="M 2419 4116 
L 825 1625 
L 2419 1625 
L 2419 4116 
z
M 2253 4666 
L 3047 4666 
L 3047 1625 
L 3713 1625 
L 3713 1100 
L 3047 1100 
L 3047 0 
L 2419 0 
L 2419 1100 
L 313 1100 
L 313 1709 
L 2253 4666 
z
" transform="scale(0.015625)"/>
       </defs>
       <use xlink:href="#DejaVuSans-34"/>
       <use xlink:href="#DejaVuSans-2e" transform="translate(63.623047 0)"/>
       <use xlink:href="#DejaVuSans-30" transform="translate(95.410156 0)"/>
      </g>
     </g>
    </g>
    <g id="text_11">
     <!-- alpha -->
     <g transform="translate(10.598677 179.041094) rotate(-90) scale(0.1 -0.1)">
      <defs>
       <path id="DejaVuSans-6c" d="M 603 4863 
L 1178 4863 
L 1178 0 
L 603 0 
L 603 4863 
z
" transform="scale(0.015625)"/>
       <path id="DejaVuSans-70" d="M 1159 525 
L 1159 -1331 
L 581 -1331 
L 581 3500 
L 1159 3500 
L 1159 2969 
Q 1341 3281 1617 3432 
Q 1894 3584 2278 3584 
Q 2916 3584 3314 3078 
Q 3713 2572 3713 1747 
Q 3713 922 3314 415 
Q 2916 -91 2278 -91 
Q 1894 -91 1617 61 
Q 1341 213 1159 525 
z
M 3116 1747 
Q 3116 2381 2855 2742 
Q 2594 3103 2138 3103 
Q 1681 3103 1420 2742 
Q 1159 2381 1159 1747 
Q 1159 1113 1420 752 
Q 1681 391 2138 391 
Q 2594 391 2855 752 
Q 3116 1113 3116 1747 
z
" transform="scale(0.015625)"/>
      </defs>
      <use xlink:href="#DejaVuSans-61"/>
      <use xlink:href="#DejaVuSans-6c" transform="translate(61.279297 0)"/>
      <use xlink:href="#DejaVuSans-70" transform="translate(89.0625 0)"/>
      <use xlink:href="#DejaVuSans-68" transform="translate(152.539062 0)"/>
      <use xlink:href="#DejaVuSans-61" transform="translate(215.917969 0)"/>
     </g>
    </g>
   </g>
   <g id="patch_3">
    <path d="M 39.58149 312.24351 
L 39.58149 18.118365 
" style="fill: none; stroke: #000000; stroke-width: 0.8; stroke-linejoin: miter; stroke-linecap: square"/>
   </g>
   <g id="patch_4">
    <path d="M 378.623885 312.24351 
L 378.623885 18.118365 
" style="fill: none; stroke: #000000; stroke-width: 0.8; stroke-linejoin: miter; stroke-linecap: square"/>
   </g>
   <g id="patch_5">
    <path d="M 39.58149 312.24351 
L 378.623885 312.24351 
" style="fill: none; stroke: #000000; stroke-width: 0.8; stroke-linejoin: miter; stroke-linecap: square"/>
   </g>
   <g id="patch_6">
    <path d="M 39.58149 18.118365 
L 378.623885 18.118365 
" style="fill: none; stroke: #000000; stroke-width: 0.8; stroke-linejoin: miter; stroke-linecap: square"/>
   </g>
   <g id="text_12">
    <!-- espirales_lo 8527 fkdc -->
    <g transform="translate(142.064875 12.118365) scale(0.12 -0.12)">
     <defs>
      <path id="DejaVuSans-65" d="M 3597 1894 
L 3597 1613 
L 953 1613 
Q 991 1019 1311 708 
Q 1631 397 2203 397 
Q 2534 397 2845 478 
Q 3156 559 3463 722 
L 3463 178 
Q 3153 47 2828 -22 
Q 2503 -91 2169 -91 
Q 1331 -91 842 396 
Q 353 884 353 1716 
Q 353 2575 817 3079 
Q 1281 3584 2069 3584 
Q 2775 3584 3186 3129 
Q 3597 2675 3597 1894 
z
M 3022 2063 
Q 3016 2534 2758 2815 
Q 2500 3097 2075 3097 
Q 1594 3097 1305 2825 
Q 1016 2553 972 2059 
L 3022 2063 
z
" transform="scale(0.015625)"/>
      <path id="DejaVuSans-73" d="M 2834 3397 
L 2834 2853 
Q 2591 2978 2328 3040 
Q 2066 3103 1784 3103 
Q 1356 3103 1142 2972 
Q 928 2841 928 2578 
Q 928 2378 1081 2264 
Q 1234 2150 1697 2047 
L 1894 2003 
Q 2506 1872 2764 1633 
Q 3022 1394 3022 966 
Q 3022 478 2636 193 
Q 2250 -91 1575 -91 
Q 1294 -91 989 -36 
Q 684 19 347 128 
L 347 722 
Q 666 556 975 473 
Q 1284 391 1588 391 
Q 1994 391 2212 530 
Q 2431 669 2431 922 
Q 2431 1156 2273 1281 
Q 2116 1406 1581 1522 
L 1381 1569 
Q 847 1681 609 1914 
Q 372 2147 372 2553 
Q 372 3047 722 3315 
Q 1072 3584 1716 3584 
Q 2034 3584 2315 3537 
Q 2597 3491 2834 3397 
z
" transform="scale(0.015625)"/>
      <path id="DejaVuSans-72" d="M 2631 2963 
Q 2534 3019 2420 3045 
Q 2306 3072 2169 3072 
Q 1681 3072 1420 2755 
Q 1159 2438 1159 1844 
L 1159 0 
L 581 0 
L 581 3500 
L 1159 3500 
L 1159 2956 
Q 1341 3275 1631 3429 
Q 1922 3584 2338 3584 
Q 2397 3584 2469 3576 
Q 2541 3569 2628 3553 
L 2631 2963 
z
" transform="scale(0.015625)"/>
      <path id="DejaVuSans-5f" d="M 3263 -1063 
L 3263 -1509 
L -63 -1509 
L -63 -1063 
L 3263 -1063 
z
" transform="scale(0.015625)"/>
      <path id="DejaVuSans-6f" d="M 1959 3097 
Q 1497 3097 1228 2736 
Q 959 2375 959 1747 
Q 959 1119 1226 758 
Q 1494 397 1959 397 
Q 2419 397 2687 759 
Q 2956 1122 2956 1747 
Q 2956 2369 2687 2733 
Q 2419 3097 1959 3097 
z
M 1959 3584 
Q 2709 3584 3137 3096 
Q 3566 2609 3566 1747 
Q 3566 888 3137 398 
Q 2709 -91 1959 -91 
Q 1206 -91 779 398 
Q 353 888 353 1747 
Q 353 2609 779 3096 
Q 1206 3584 1959 3584 
z
" transform="scale(0.015625)"/>
      <path id="DejaVuSans-20" transform="scale(0.015625)"/>
      <path id="DejaVuSans-38" d="M 2034 2216 
Q 1584 2216 1326 1975 
Q 1069 1734 1069 1313 
Q 1069 891 1326 650 
Q 1584 409 2034 409 
Q 2484 409 2743 651 
Q 3003 894 3003 1313 
Q 3003 1734 2745 1975 
Q 2488 2216 2034 2216 
z
M 1403 2484 
Q 997 2584 770 2862 
Q 544 3141 544 3541 
Q 544 4100 942 4425 
Q 1341 4750 2034 4750 
Q 2731 4750 3128 4425 
Q 3525 4100 3525 3541 
Q 3525 3141 3298 2862 
Q 3072 2584 2669 2484 
Q 3125 2378 3379 2068 
Q 3634 1759 3634 1313 
Q 3634 634 3220 271 
Q 2806 -91 2034 -91 
Q 1263 -91 848 271 
Q 434 634 434 1313 
Q 434 1759 690 2068 
Q 947 2378 1403 2484 
z
M 1172 3481 
Q 1172 3119 1398 2916 
Q 1625 2713 2034 2713 
Q 2441 2713 2670 2916 
Q 2900 3119 2900 3481 
Q 2900 3844 2670 4047 
Q 2441 4250 2034 4250 
Q 1625 4250 1398 4047 
Q 1172 3844 1172 3481 
z
" transform="scale(0.015625)"/>
      <path id="DejaVuSans-37" d="M 525 4666 
L 3525 4666 
L 3525 4397 
L 1831 0 
L 1172 0 
L 2766 4134 
L 525 4134 
L 525 4666 
z
" transform="scale(0.015625)"/>
      <path id="DejaVuSans-66" d="M 2375 4863 
L 2375 4384 
L 1825 4384 
Q 1516 4384 1395 4259 
Q 1275 4134 1275 3809 
L 1275 3500 
L 2222 3500 
L 2222 3053 
L 1275 3053 
L 1275 0 
L 697 0 
L 697 3053 
L 147 3053 
L 147 3500 
L 697 3500 
L 697 3744 
Q 697 4328 969 4595 
Q 1241 4863 1831 4863 
L 2375 4863 
z
" transform="scale(0.015625)"/>
      <path id="DejaVuSans-6b" d="M 581 4863 
L 1159 4863 
L 1159 1991 
L 2875 3500 
L 3609 3500 
L 1753 1863 
L 3688 0 
L 2938 0 
L 1159 1709 
L 1159 0 
L 581 0 
L 581 4863 
z
" transform="scale(0.015625)"/>
      <path id="DejaVuSans-63" d="M 3122 3366 
L 3122 2828 
Q 2878 2963 2633 3030 
Q 2388 3097 2138 3097 
Q 1578 3097 1268 2742 
Q 959 2388 959 1747 
Q 959 1106 1268 751 
Q 1578 397 2138 397 
Q 2388 397 2633 464 
Q 2878 531 3122 666 
L 3122 134 
Q 2881 22 2623 -34 
Q 2366 -91 2075 -91 
Q 1284 -91 818 406 
Q 353 903 353 1747 
Q 353 2603 823 3093 
Q 1294 3584 2113 3584 
Q 2378 3584 2631 3529 
Q 2884 3475 3122 3366 
z
" transform="scale(0.015625)"/>
     </defs>
     <use xlink:href="#DejaVuSans-65"/>
     <use xlink:href="#DejaVuSans-73" transform="translate(61.523438 0)"/>
     <use xlink:href="#DejaVuSans-70" transform="translate(113.623047 0)"/>
     <use xlink:href="#DejaVuSans-69" transform="translate(177.099609 0)"/>
     <use xlink:href="#DejaVuSans-72" transform="translate(204.882812 0)"/>
     <use xlink:href="#DejaVuSans-61" transform="translate(245.996094 0)"/>
     <use xlink:href="#DejaVuSans-6c" transform="translate(307.275391 0)"/>
     <use xlink:href="#DejaVuSans-65" transform="translate(335.058594 0)"/>
     <use xlink:href="#DejaVuSans-73" transform="translate(396.582031 0)"/>
     <use xlink:href="#DejaVuSans-5f" transform="translate(448.681641 0)"/>
     <use xlink:href="#DejaVuSans-6c" transform="translate(498.681641 0)"/>
     <use xlink:href="#DejaVuSans-6f" transform="translate(526.464844 0)"/>
     <use xlink:href="#DejaVuSans-20" transform="translate(587.646484 0)"/>
     <use xlink:href="#DejaVuSans-38" transform="translate(619.433594 0)"/>
     <use xlink:href="#DejaVuSans-35" transform="translate(683.056641 0)"/>
     <use xlink:href="#DejaVuSans-32" transform="translate(746.679688 0)"/>
     <use xlink:href="#DejaVuSans-37" transform="translate(810.302734 0)"/>
     <use xlink:href="#DejaVuSans-20" transform="translate(873.925781 0)"/>
     <use xlink:href="#DejaVuSans-66" transform="translate(905.712891 0)"/>
     <use xlink:href="#DejaVuSans-6b" transform="translate(940.917969 0)"/>
     <use xlink:href="#DejaVuSans-64" transform="translate(998.828125 0)"/>
     <use xlink:href="#DejaVuSans-63" transform="translate(1062.304688 0)"/>
    </g>
   </g>
  </g>
  <g id="axes_2">
   <g id="patch_7">
    <path d="M 395.576005 312.24351 
L 410.282262 312.24351 
L 410.282262 18.118365 
L 395.576005 18.118365 
z
" style="fill: #ffffff"/>
   </g>
   <g id="QuadMesh_1">
    <path d="M 395.576005 312.24351 
L 410.282262 312.24351 
L 410.282262 293.860688 
L 395.576005 293.860688 
L 395.576005 312.24351 
" clip-path="url(#pbdd60e4c41)" style="fill: #470d60"/>
    <path d="M 395.576005 293.860688 
L 410.282262 293.860688 
L 410.282262 275.477867 
L 395.576005 275.477867 
L 395.576005 293.860688 
" clip-path="url(#pbdd60e4c41)" style="fill: #482374"/>
    <path d="M 395.576005 275.477867 
L 410.282262 275.477867 
L 410.282262 257.095045 
L 395.576005 257.095045 
L 395.576005 275.477867 
" clip-path="url(#pbdd60e4c41)" style="fill: #453581"/>
    <path d="M 395.576005 257.095045 
L 410.282262 257.095045 
L 410.282262 238.712224 
L 395.576005 238.712224 
L 395.576005 257.095045 
" clip-path="url(#pbdd60e4c41)" style="fill: #3f4889"/>
    <path d="M 395.576005 238.712224 
L 410.282262 238.712224 
L 410.282262 220.329402 
L 395.576005 220.329402 
L 395.576005 238.712224 
" clip-path="url(#pbdd60e4c41)" style="fill: #375b8d"/>
    <path d="M 395.576005 220.329402 
L 410.282262 220.329402 
L 410.282262 201.946581 
L 395.576005 201.946581 
L 395.576005 220.329402 
" clip-path="url(#pbdd60e4c41)" style="fill: #2f6b8e"/>
    <path d="M 395.576005 201.946581 
L 410.282262 201.946581 
L 410.282262 183.563759 
L 395.576005 183.563759 
L 395.576005 201.946581 
" clip-path="url(#pbdd60e4c41)" style="fill: #29798e"/>
    <path d="M 395.576005 183.563759 
L 410.282262 183.563759 
L 410.282262 165.180937 
L 395.576005 165.180937 
L 395.576005 183.563759 
" clip-path="url(#pbdd60e4c41)" style="fill: #23888e"/>
    <path d="M 395.576005 165.180937 
L 410.282262 165.180937 
L 410.282262 146.798116 
L 395.576005 146.798116 
L 395.576005 165.180937 
" clip-path="url(#pbdd60e4c41)" style="fill: #1f988b"/>
    <path d="M 395.576005 146.798116 
L 410.282262 146.798116 
L 410.282262 128.415294 
L 395.576005 128.415294 
L 395.576005 146.798116 
" clip-path="url(#pbdd60e4c41)" style="fill: #22a785"/>
    <path d="M 395.576005 128.415294 
L 410.282262 128.415294 
L 410.282262 110.032473 
L 395.576005 110.032473 
L 395.576005 128.415294 
" clip-path="url(#pbdd60e4c41)" style="fill: #31b57b"/>
    <path d="M 395.576005 110.032473 
L 410.282262 110.032473 
L 410.282262 91.649651 
L 395.576005 91.649651 
L 395.576005 110.032473 
" clip-path="url(#pbdd60e4c41)" style="fill: #4ec36b"/>
    <path d="M 395.576005 91.649651 
L 410.282262 91.649651 
L 410.282262 73.26683 
L 395.576005 73.26683 
L 395.576005 91.649651 
" clip-path="url(#pbdd60e4c41)" style="fill: #70cf57"/>
    <path d="M 395.576005 73.26683 
L 410.282262 73.26683 
L 410.282262 54.884008 
L 395.576005 54.884008 
L 395.576005 73.26683 
" clip-path="url(#pbdd60e4c41)" style="fill: #98d83e"/>
    <path d="M 395.576005 54.884008 
L 410.282262 54.884008 
L 410.282262 36.501187 
L 395.576005 36.501187 
L 395.576005 54.884008 
" clip-path="url(#pbdd60e4c41)" style="fill: #c0df25"/>
    <path d="M 395.576005 36.501187 
L 410.282262 36.501187 
L 410.282262 18.118365 
L 395.576005 18.118365 
L 395.576005 36.501187 
" clip-path="url(#pbdd60e4c41)" style="fill: #ece51b"/>
   </g>
   <g id="matplotlib.axis_3"/>
   <g id="matplotlib.axis_4">
    <g id="ytick_8">
     <g id="line2d_22">
      <defs>
       <path id="m0a27ea52cb" d="M 0 0 
L 3.5 0 
" style="stroke: #000000; stroke-width: 0.8"/>
      </defs>
      <g>
       <use xlink:href="#m0a27ea52cb" x="410.282262" y="312.24351" style="stroke: #000000; stroke-width: 0.8"/>
      </g>
     </g>
     <g id="text_13">
      <!-- -1.02 -->
      <g transform="translate(417.282262 316.042729) scale(0.1 -0.1)">
       <defs>
        <path id="DejaVuSans-2d" d="M 313 2009 
L 1997 2009 
L 1997 1497 
L 313 1497 
L 313 2009 
z
" transform="scale(0.015625)"/>
       </defs>
       <use xlink:href="#DejaVuSans-2d"/>
       <use xlink:href="#DejaVuSans-31" transform="translate(36.083984 0)"/>
       <use xlink:href="#DejaVuSans-2e" transform="translate(99.707031 0)"/>
       <use xlink:href="#DejaVuSans-30" transform="translate(131.494141 0)"/>
       <use xlink:href="#DejaVuSans-32" transform="translate(195.117188 0)"/>
      </g>
     </g>
    </g>
    <g id="ytick_9">
     <g id="line2d_23">
      <g>
       <use xlink:href="#m0a27ea52cb" x="410.282262" y="275.477867" style="stroke: #000000; stroke-width: 0.8"/>
      </g>
     </g>
     <g id="text_14">
      <!-- -0.90 -->
      <g transform="translate(417.282262 279.277086) scale(0.1 -0.1)">
       <defs>
        <path id="DejaVuSans-39" d="M 703 97 
L 703 672 
Q 941 559 1184 500 
Q 1428 441 1663 441 
Q 2288 441 2617 861 
Q 2947 1281 2994 2138 
Q 2813 1869 2534 1725 
Q 2256 1581 1919 1581 
Q 1219 1581 811 2004 
Q 403 2428 403 3163 
Q 403 3881 828 4315 
Q 1253 4750 1959 4750 
Q 2769 4750 3195 4129 
Q 3622 3509 3622 2328 
Q 3622 1225 3098 567 
Q 2575 -91 1691 -91 
Q 1453 -91 1209 -44 
Q 966 3 703 97 
z
M 1959 2075 
Q 2384 2075 2632 2365 
Q 2881 2656 2881 3163 
Q 2881 3666 2632 3958 
Q 2384 4250 1959 4250 
Q 1534 4250 1286 3958 
Q 1038 3666 1038 3163 
Q 1038 2656 1286 2365 
Q 1534 2075 1959 2075 
z
" transform="scale(0.015625)"/>
       </defs>
       <use xlink:href="#DejaVuSans-2d"/>
       <use xlink:href="#DejaVuSans-30" transform="translate(36.083984 0)"/>
       <use xlink:href="#DejaVuSans-2e" transform="translate(99.707031 0)"/>
       <use xlink:href="#DejaVuSans-39" transform="translate(131.494141 0)"/>
       <use xlink:href="#DejaVuSans-30" transform="translate(195.117188 0)"/>
      </g>
     </g>
    </g>
    <g id="ytick_10">
     <g id="line2d_24">
      <g>
       <use xlink:href="#m0a27ea52cb" x="410.282262" y="238.712224" style="stroke: #000000; stroke-width: 0.8"/>
      </g>
     </g>
     <g id="text_15">
      <!-- -0.78 -->
      <g transform="translate(417.282262 242.511442) scale(0.1 -0.1)">
       <use xlink:href="#DejaVuSans-2d"/>
       <use xlink:href="#DejaVuSans-30" transform="translate(36.083984 0)"/>
       <use xlink:href="#DejaVuSans-2e" transform="translate(99.707031 0)"/>
       <use xlink:href="#DejaVuSans-37" transform="translate(131.494141 0)"/>
       <use xlink:href="#DejaVuSans-38" transform="translate(195.117188 0)"/>
      </g>
     </g>
    </g>
    <g id="ytick_11">
     <g id="line2d_25">
      <g>
       <use xlink:href="#m0a27ea52cb" x="410.282262" y="201.946581" style="stroke: #000000; stroke-width: 0.8"/>
      </g>
     </g>
     <g id="text_16">
      <!-- -0.66 -->
      <g transform="translate(417.282262 205.745799) scale(0.1 -0.1)">
       <defs>
        <path id="DejaVuSans-36" d="M 2113 2584 
Q 1688 2584 1439 2293 
Q 1191 2003 1191 1497 
Q 1191 994 1439 701 
Q 1688 409 2113 409 
Q 2538 409 2786 701 
Q 3034 994 3034 1497 
Q 3034 2003 2786 2293 
Q 2538 2584 2113 2584 
z
M 3366 4563 
L 3366 3988 
Q 3128 4100 2886 4159 
Q 2644 4219 2406 4219 
Q 1781 4219 1451 3797 
Q 1122 3375 1075 2522 
Q 1259 2794 1537 2939 
Q 1816 3084 2150 3084 
Q 2853 3084 3261 2657 
Q 3669 2231 3669 1497 
Q 3669 778 3244 343 
Q 2819 -91 2113 -91 
Q 1303 -91 875 529 
Q 447 1150 447 2328 
Q 447 3434 972 4092 
Q 1497 4750 2381 4750 
Q 2619 4750 2861 4703 
Q 3103 4656 3366 4563 
z
" transform="scale(0.015625)"/>
       </defs>
       <use xlink:href="#DejaVuSans-2d"/>
       <use xlink:href="#DejaVuSans-30" transform="translate(36.083984 0)"/>
       <use xlink:href="#DejaVuSans-2e" transform="translate(99.707031 0)"/>
       <use xlink:href="#DejaVuSans-36" transform="translate(131.494141 0)"/>
       <use xlink:href="#DejaVuSans-36" transform="translate(195.117188 0)"/>
      </g>
     </g>
    </g>
    <g id="ytick_12">
     <g id="line2d_26">
      <g>
       <use xlink:href="#m0a27ea52cb" x="410.282262" y="165.180937" style="stroke: #000000; stroke-width: 0.8"/>
      </g>
     </g>
     <g id="text_17">
      <!-- -0.54 -->
      <g transform="translate(417.282262 168.980156) scale(0.1 -0.1)">
       <use xlink:href="#DejaVuSans-2d"/>
       <use xlink:href="#DejaVuSans-30" transform="translate(36.083984 0)"/>
       <use xlink:href="#DejaVuSans-2e" transform="translate(99.707031 0)"/>
       <use xlink:href="#DejaVuSans-35" transform="translate(131.494141 0)"/>
       <use xlink:href="#DejaVuSans-34" transform="translate(195.117188 0)"/>
      </g>
     </g>
    </g>
    <g id="ytick_13">
     <g id="line2d_27">
      <g>
       <use xlink:href="#m0a27ea52cb" x="410.282262" y="128.415294" style="stroke: #000000; stroke-width: 0.8"/>
      </g>
     </g>
     <g id="text_18">
      <!-- -0.42 -->
      <g transform="translate(417.282262 132.214513) scale(0.1 -0.1)">
       <use xlink:href="#DejaVuSans-2d"/>
       <use xlink:href="#DejaVuSans-30" transform="translate(36.083984 0)"/>
       <use xlink:href="#DejaVuSans-2e" transform="translate(99.707031 0)"/>
       <use xlink:href="#DejaVuSans-34" transform="translate(131.494141 0)"/>
       <use xlink:href="#DejaVuSans-32" transform="translate(195.117188 0)"/>
      </g>
     </g>
    </g>
    <g id="ytick_14">
     <g id="line2d_28">
      <g>
       <use xlink:href="#m0a27ea52cb" x="410.282262" y="91.649651" style="stroke: #000000; stroke-width: 0.8"/>
      </g>
     </g>
     <g id="text_19">
      <!-- -0.30 -->
      <g transform="translate(417.282262 95.44887) scale(0.1 -0.1)">
       <use xlink:href="#DejaVuSans-2d"/>
       <use xlink:href="#DejaVuSans-30" transform="translate(36.083984 0)"/>
       <use xlink:href="#DejaVuSans-2e" transform="translate(99.707031 0)"/>
       <use xlink:href="#DejaVuSans-33" transform="translate(131.494141 0)"/>
       <use xlink:href="#DejaVuSans-30" transform="translate(195.117188 0)"/>
      </g>
     </g>
    </g>
    <g id="ytick_15">
     <g id="line2d_29">
      <g>
       <use xlink:href="#m0a27ea52cb" x="410.282262" y="54.884008" style="stroke: #000000; stroke-width: 0.8"/>
      </g>
     </g>
     <g id="text_20">
      <!-- -0.18 -->
      <g transform="translate(417.282262 58.683227) scale(0.1 -0.1)">
       <use xlink:href="#DejaVuSans-2d"/>
       <use xlink:href="#DejaVuSans-30" transform="translate(36.083984 0)"/>
       <use xlink:href="#DejaVuSans-2e" transform="translate(99.707031 0)"/>
       <use xlink:href="#DejaVuSans-31" transform="translate(131.494141 0)"/>
       <use xlink:href="#DejaVuSans-38" transform="translate(195.117188 0)"/>
      </g>
     </g>
    </g>
    <g id="ytick_16">
     <g id="line2d_30">
      <g>
       <use xlink:href="#m0a27ea52cb" x="410.282262" y="18.118365" style="stroke: #000000; stroke-width: 0.8"/>
      </g>
     </g>
     <g id="text_21">
      <!-- -0.06 -->
      <g transform="translate(417.282262 21.917584) scale(0.1 -0.1)">
       <use xlink:href="#DejaVuSans-2d"/>
       <use xlink:href="#DejaVuSans-30" transform="translate(36.083984 0)"/>
       <use xlink:href="#DejaVuSans-2e" transform="translate(99.707031 0)"/>
       <use xlink:href="#DejaVuSans-30" transform="translate(131.494141 0)"/>
       <use xlink:href="#DejaVuSans-36" transform="translate(195.117188 0)"/>
      </g>
     </g>
    </g>
    <g id="text_22">
     <!-- Score -->
     <g transform="translate(454.754137 179.183281) rotate(-90) scale(0.1 -0.1)">
      <defs>
       <path id="DejaVuSans-53" d="M 3425 4513 
L 3425 3897 
Q 3066 4069 2747 4153 
Q 2428 4238 2131 4238 
Q 1616 4238 1336 4038 
Q 1056 3838 1056 3469 
Q 1056 3159 1242 3001 
Q 1428 2844 1947 2747 
L 2328 2669 
Q 3034 2534 3370 2195 
Q 3706 1856 3706 1288 
Q 3706 609 3251 259 
Q 2797 -91 1919 -91 
Q 1588 -91 1214 -16 
Q 841 59 441 206 
L 441 856 
Q 825 641 1194 531 
Q 1563 422 1919 422 
Q 2459 422 2753 634 
Q 3047 847 3047 1241 
Q 3047 1584 2836 1778 
Q 2625 1972 2144 2069 
L 1759 2144 
Q 1053 2284 737 2584 
Q 422 2884 422 3419 
Q 422 4038 858 4394 
Q 1294 4750 2059 4750 
Q 2388 4750 2728 4690 
Q 3069 4631 3425 4513 
z
" transform="scale(0.015625)"/>
      </defs>
      <use xlink:href="#DejaVuSans-53"/>
      <use xlink:href="#DejaVuSans-63" transform="translate(63.476562 0)"/>
      <use xlink:href="#DejaVuSans-6f" transform="translate(118.457031 0)"/>
      <use xlink:href="#DejaVuSans-72" transform="translate(179.638672 0)"/>
      <use xlink:href="#DejaVuSans-65" transform="translate(218.501953 0)"/>
     </g>
    </g>
   </g>
   <g id="LineCollection_1"/>
   <g id="patch_8">
    <path d="M 395.576005 312.24351 
L 402.929133 312.24351 
L 410.282262 312.24351 
L 410.282262 18.118365 
L 402.929133 18.118365 
L 395.576005 18.118365 
L 395.576005 312.24351 
z
" style="fill: none; stroke: #000000; stroke-width: 0.8; stroke-linejoin: miter; stroke-linecap: square"/>
   </g>
  </g>
 </g>
 <defs>
  <clipPath id="pace02e1532">
   <rect x="39.58149" y="18.118365" width="339.042395" height="294.125145"/>
  </clipPath>
  <clipPath id="pbdd60e4c41">
   <rect x="395.576005" y="18.118365" width="14.706257" height="294.125145"/>
  </clipPath>
 </defs>
</svg>
