<?xml version="1.0" encoding="utf-8" standalone="no"?>
<!DOCTYPE svg PUBLIC "-//W3C//DTD SVG 1.1//EN"
  "http://www.w3.org/Graphics/SVG/1.1/DTD/svg11.dtd">
<svg xmlns:xlink="http://www.w3.org/1999/xlink" width="468.233584pt" height="353.99952pt" viewBox="0 0 468.233584 353.99952" xmlns="http://www.w3.org/2000/svg" version="1.1">
 <metadata>
  <rdf:RDF xmlns:dc="http://purl.org/dc/elements/1.1/" xmlns:cc="http://creativecommons.org/ns#" xmlns:rdf="http://www.w3.org/1999/02/22-rdf-syntax-ns#">
   <cc:Work>
    <dc:type rdf:resource="http://purl.org/dc/dcmitype/StillImage"/>
    <dc:date>1970-01-01T00:00:00+00:00</dc:date>
    <dc:format>image/svg+xml</dc:format>
    <dc:creator>
     <cc:Agent>
      <dc:title>Matplotlib v3.10.7, https://matplotlib.org/</dc:title>
     </cc:Agent>
    </dc:creator>
   </cc:Work>
  </rdf:RDF>
 </metadata>
 <defs>
  <style type="text/css">*{stroke-linejoin: round; stroke-linecap: butt}</style>
 </defs>
 <g id="figure_1">
  <g id="patch_1">
   <path d="M 0 353.99952 
L 468.233584 353.99952 
L 468.233584 0 
L 0 0 
z
" style="fill: #ffffff"/>
  </g>
  <g id="axes_1">
   <g id="patch_2">
    <path d="M 43.78125 316.44327 
L 382.823645 316.44327 
L 382.823645 22.318125 
L 43.78125 22.318125 
z
" style="fill: #ffffff"/>
   </g>
   <g id="QuadContourSet_1">
    <path d="M 43.78125 270.091229 
L 48.512396 267.422412 
L 43.78125 261.928089 
L 42.888014 267.422412 
z
M -69.232882 193.96316 
L -63.434834 193.891126 
L -69.232882 193.042021 
L -69.36462 193.891126 
z
M -125.739947 144.8707 
L -125.707644 144.870269 
L -125.739947 144.86524 
L -125.740609 144.870269 
z
M -182.247013 95.851906 
L -182.184844 95.849411 
L -182.247013 95.835181 
L -182.24866 95.849411 
z
M -238.754079 46.880286 
L -238.415658 46.828554 
L -238.754079 46.750964 
L -238.765766 46.828554 
z
" clip-path="url(#p29a663a100)" style="fill: #470d60"/>
    <path d="M 100.288316 316.44327 
L 115.997928 316.44327 
L 100.288316 301.288686 
L 96.365505 316.44327 
z
M 43.78125 283.104292 
L 68.788247 267.422412 
L 49.156391 242.911984 
L 43.78125 239.008685 
L -12.725816 219.097835 
L -16.836785 242.911984 
L -12.725816 245.062918 
L 38.412242 267.422412 
z
M 42.888014 267.422412 
L 43.78125 261.928089 
L 48.512396 267.422412 
L 43.78125 270.091229 
z
M -69.232882 196.444639 
L -12.725816 217.52199 
L -0.774692 193.891126 
L -12.725816 185.776034 
L -60.069325 169.380697 
L -57.017503 144.870269 
L -69.232882 136.321748 
L -112.697167 120.35984 
L -115.139915 95.849411 
L -125.739947 87.981866 
L -165.68047 71.338982 
L -174.070151 46.828554 
L -182.247013 39.856254 
L -229.057505 22.318125 
L -238.754079 22.318125 
L -254.576826 22.318125 
L -243.213977 46.828554 
L -238.754079 66.130448 
L -210.149203 71.338982 
L -186.724242 95.849411 
L -182.247013 102.47693 
L -129.716144 120.35984 
L -130.257024 144.870269 
L -125.739947 147.747532 
L -70.303345 169.380697 
L -74.014292 193.891126 
z
M -69.36462 193.891126 
L -69.232882 193.042021 
L -63.434834 193.891126 
L -69.232882 193.96316 
z
M -125.740609 144.870269 
L -125.739947 144.86524 
L -125.707644 144.870269 
L -125.739947 144.8707 
z
M -182.24866 95.849411 
L -182.247013 95.835181 
L -182.184844 95.849411 
L -182.247013 95.851906 
z
M -238.765766 46.828554 
L -238.754079 46.750964 
L -238.415658 46.828554 
L -238.754079 46.880286 
z
" clip-path="url(#p29a663a100)" style="fill: #482374"/>
    <path d="M 43.78125 292.983719 
L 91.257019 316.44327 
L 96.365505 316.44327 
L 100.288316 301.288686 
L 115.997928 316.44327 
L 132.572191 316.44327 
L 109.629968 291.932841 
L 100.288316 283.870554 
L 85.58454 267.422412 
L 65.704969 242.911984 
L 43.78125 225.55751 
L 27.312931 218.401555 
L 14.995853 193.891126 
L -12.725816 173.437783 
L -22.490251 169.380697 
L -40.666715 144.870269 
L -69.232882 123.080281 
L -75.408355 120.35984 
L -98.039057 95.849411 
L -125.739947 73.354522 
L -129.796507 71.338982 
L -156.067463 46.828554 
L -182.224263 22.318125 
L -182.247013 22.318125 
L -229.057505 22.318125 
L -182.247013 39.856254 
L -174.070151 46.828554 
L -165.68047 71.338982 
L -125.739947 87.981866 
L -115.139915 95.849411 
L -112.697167 120.35984 
L -69.232882 136.321748 
L -57.017503 144.870269 
L -60.069325 169.380697 
L -12.725816 185.776034 
L -0.774692 193.891126 
L -12.725816 217.52199 
L -69.232882 196.444639 
L -74.014292 193.891126 
L -70.303345 169.380697 
L -125.739947 147.747532 
L -130.257024 144.870269 
L -129.716144 120.35984 
L -182.247013 102.47693 
L -186.724242 95.849411 
L -210.149203 71.338982 
L -238.754079 66.130448 
L -243.213977 46.828554 
L -254.576826 22.318125 
L -295.261145 22.318125 
L -298.902233 22.318125 
L -295.261145 24.323048 
L -247.873365 46.828554 
L -242.582254 71.338982 
L -238.754079 73.430326 
L -191.41367 95.849411 
L -182.247013 109.101955 
L -146.077533 120.35984 
L -134.9913 144.870269 
L -125.739947 150.624365 
L -76.104091 169.380697 
L -78.895204 193.891126 
L -69.232882 198.926118 
L -17.594211 218.401555 
L -21.983444 242.911984 
L -12.725816 247.631819 
L 33.722606 267.422412 
L 42.299009 291.932841 
z
M 38.412242 267.422412 
L -12.725816 245.062918 
L -16.836785 242.911984 
L -12.725816 219.097835 
L 43.78125 239.008685 
L 49.156391 242.911984 
L 68.788247 267.422412 
L 43.78125 283.104292 
z
" clip-path="url(#p29a663a100)" style="fill: #453581"/>
    <path d="M 43.78125 296.251754 
L 85.868017 316.44327 
L 91.257019 316.44327 
L 43.78125 292.983719 
L 42.299009 291.932841 
L 33.722606 267.422412 
L -12.725816 247.631819 
L -21.983444 242.911984 
L -17.594211 218.401555 
L -69.232882 198.926118 
L -78.895204 193.891126 
L -76.104091 169.380697 
L -125.739947 150.624365 
L -134.9913 144.870269 
L -146.077533 120.35984 
L -182.247013 109.101955 
L -191.41367 95.849411 
L -238.754079 73.430326 
L -242.582254 71.338982 
L -247.873365 46.828554 
L -295.261145 24.323048 
L -298.902233 22.318125 
L -304.335921 22.318125 
L -295.261145 27.180095 
L -252.764984 46.828554 
L -248.085533 71.338982 
L -238.754079 76.297423 
L -196.338409 95.849411 
L -182.247013 115.72698 
L -165.722353 120.35984 
L -139.965526 144.870269 
L -125.739947 153.501197 
L -82.269268 169.380697 
L -84.031565 193.891126 
L -69.232882 201.407597 
L -22.848764 218.401555 
L -27.414945 242.911984 
L -12.725816 250.200721 
L 28.797637 267.422412 
L 37.541067 291.932841 
z
M 125.897631 291.932841 
L 100.288316 267.86232 
L 99.922416 267.422412 
L 79.862063 242.911984 
L 52.01871 218.401555 
L 43.78125 211.898821 
L 28.579969 193.891126 
L -1.225386 169.380698 
L -12.725816 160.328051 
L -26.654535 144.870269 
L -55.685255 120.35984 
L -69.232882 110.257394 
L -83.479988 95.849411 
L -111.039797 71.338982 
L -125.739947 60.890412 
L -140.860317 46.828554 
L -165.39494 22.318125 
L -182.224263 22.318125 
L -156.067463 46.828554 
L -129.796507 71.338982 
L -125.739947 73.354522 
L -98.039057 95.849411 
L -75.408355 120.35984 
L -69.232882 123.080281 
L -40.666715 144.870269 
L -22.490251 169.380697 
L -12.725816 173.437783 
L 14.995853 193.891126 
L 27.312931 218.401555 
L 43.78125 225.55751 
L 65.704969 242.911984 
L 85.58454 267.422412 
L 100.288316 283.870554 
L 109.629968 291.932841 
L 132.572191 316.44327 
L 146.748067 316.44327 
z
" clip-path="url(#p29a663a100)" style="fill: #3f4889"/>
    <path d="M 43.78125 299.519789 
L 80.165893 316.44327 
L 85.868017 316.44327 
L 43.78125 296.251754 
L 37.541067 291.932841 
L 28.797637 267.422412 
L -12.725816 250.200721 
L -27.414945 242.911984 
L -22.848764 218.401555 
L -69.232882 201.407597 
L -84.031565 193.891126 
L -82.269268 169.380697 
L -125.739947 153.501197 
L -139.965526 144.870269 
L -165.722353 120.35984 
L -182.247013 115.72698 
L -196.338409 95.849411 
L -238.754079 76.297423 
L -248.085533 71.338982 
L -252.764984 46.828554 
L -295.261145 27.180095 
L -304.335921 22.318125 
L -310.0881 22.318125 
L -295.261145 30.037142 
L -257.913203 46.828554 
L -253.915762 71.338982 
L -238.754079 79.16452 
L -201.523328 95.849411 
L -184.533619 120.35984 
L -182.247013 121.581413 
L -145.20533 144.870269 
L -125.739947 156.378029 
L -88.847757 169.380697 
L -89.451596 193.891126 
L -69.232882 203.889076 
L -28.400575 218.401555 
L -33.164673 242.911984 
L -12.725816 252.769622 
L 23.612463 267.422412 
L 32.540708 291.932841 
z
M 156.795382 316.44327 
L 160.295549 316.44327 
L 156.795382 313.441339 
L 139.848756 291.932841 
L 116.586175 267.422412 
L 100.288316 253.358356 
L 92.232397 242.911984 
L 67.597383 218.401555 
L 43.78125 198.004243 
L 40.510746 193.891126 
L 13.742261 169.380697 
L -12.725816 146.840359 
L -14.394944 144.870269 
L -40.926177 120.35984 
L -69.232882 97.542741 
L -70.803971 95.849411 
L -96.36002 71.338982 
L -125.739947 48.772017 
L -127.696076 46.828554 
L -151.033019 22.318125 
L -165.39494 22.318125 
L -140.860317 46.828554 
L -125.739947 60.890412 
L -111.039797 71.338982 
L -83.479988 95.849411 
L -69.232882 110.257394 
L -55.685255 120.35984 
L -26.654535 144.870269 
L -12.725816 160.328051 
L -1.225386 169.380697 
L 28.579969 193.891126 
L 43.78125 211.898821 
L 52.01871 218.401555 
L 79.862063 242.911984 
L 99.922416 267.422412 
L 100.288316 267.86232 
L 125.897631 291.932841 
L 146.748067 316.44327 
z
" clip-path="url(#p29a663a100)" style="fill: #375b8d"/>
    <path d="M -521.289408 316.44327 
L -464.782342 316.44327 
L -408.275276 316.44327 
L -351.768211 316.44327 
L -295.261145 316.44327 
L -238.754079 316.44327 
L -182.247013 316.44327 
L -146.593557 316.44327 
L -182.247013 307.882784 
L -238.238705 291.932841 
L -238.754079 291.827847 
L -295.261145 270.289353 
L -303.64985 267.422412 
L -351.768211 257.935115 
L -407.522947 242.911984 
L -408.275276 242.746204 
L -464.782342 222.224142 
L -487.273612 218.401555 
L -521.289408 213.184488 
L -576.57685 193.891126 
L -577.796474 193.681139 
L -577.796474 193.891126 
L -577.796474 218.401555 
L -577.796474 242.911984 
L -577.796474 267.422412 
L -577.796474 291.932841 
L -577.796474 316.44327 
z
M 43.78125 302.787824 
L 74.112004 316.44327 
L 80.165893 316.44327 
L 43.78125 299.519789 
L 32.540708 291.932841 
L 23.612463 267.422412 
L -12.725816 252.769622 
L -33.164673 242.911984 
L -28.400575 218.401555 
L -69.232882 203.889076 
L -89.451596 193.891126 
L -88.847757 169.380697 
L -125.739947 156.378029 
L -145.20533 144.870269 
L -182.247013 121.581413 
L -184.533619 120.35984 
L -201.523328 95.849411 
L -238.754079 79.16452 
L -253.915762 71.338982 
L -257.913203 46.828554 
L -295.261145 30.037142 
L -310.0881 22.318125 
L -316.198443 22.318125 
L -295.261145 32.894188 
L -263.346441 46.828554 
L -260.114256 71.338983 
L -238.754079 82.031617 
L -206.99746 95.849411 
L -192.545305 120.35984 
L -182.247013 125.643805 
L -150.740677 144.870269 
L -125.739947 159.254862 
L -95.89898 169.380697 
L -95.188473 193.891126 
L -69.232882 206.370555 
L -34.285303 218.401555 
L -39.272251 242.911984 
L -12.725816 255.338524 
L 18.138048 267.422412 
L 27.271899 291.932841 
z
M 156.795382 313.441339 
L 160.295549 316.44327 
L 176.247579 316.44327 
L 156.795382 298.319208 
L 152.061603 291.932841 
L 130.926822 267.422412 
L 105.290628 242.911984 
L 100.288316 239.458614 
L 81.038978 218.401555 
L 55.770077 193.891126 
L 43.78125 186.172238 
L 26.726735 169.380697 
L 2.059035 144.870269 
L -12.725816 135.517849 
L -28.098882 120.35984 
L -53.337248 95.849411 
L -69.232882 86.006127 
L -83.59264 71.338982 
L -109.388929 46.828554 
L -125.739947 36.533498 
L -138.506647 22.318125 
L -151.033019 22.318125 
L -127.696076 46.828554 
L -125.739947 48.772017 
L -96.36002 71.338982 
L -70.803971 95.849411 
L -69.232882 97.542741 
L -40.926177 120.35984 
L -14.394944 144.870269 
L -12.725816 146.840359 
L 13.742261 169.380697 
L 40.510746 193.891126 
L 43.78125 198.004243 
L 67.597383 218.401555 
L 92.232397 242.911984 
L 100.288316 253.358356 
L 116.586175 267.422412 
L 139.848756 291.932841 
z
M 552.344842 316.44327 
L 608.851908 316.44327 
L 665.358974 316.44327 
L 721.86604 316.44327 
L 778.373106 316.44327 
L 834.880171 316.44327 
L 891.387237 316.44327 
L 947.894303 316.44327 
L 1004.401369 316.44327 
L 1060.908435 316.44327 
L 1117.4155 316.44327 
L 1173.922566 316.44327 
L 1230.429632 316.44327 
L 1286.936698 316.44327 
L 1343.443764 316.44327 
L 1399.950829 316.44327 
L 1456.457895 316.44327 
L 1512.964961 316.44327 
L 1569.472027 316.44327 
L 1625.979093 316.44327 
L 1682.486159 316.44327 
L 1738.993224 316.44327 
L 1795.50029 316.44327 
L 1852.007356 316.44327 
L 1908.514422 316.44327 
L 1908.514422 291.932841 
L 1908.514422 267.422412 
L 1908.514422 242.911984 
L 1908.514422 218.401555 
L 1908.514422 193.891126 
L 1908.514422 169.380697 
L 1908.514422 144.870269 
L 1908.514422 120.35984 
L 1908.514422 95.849411 
L 1908.514422 71.338982 
L 1908.514422 46.828554 
L 1908.514422 22.318125 
L 1852.007356 22.318125 
L 1795.50029 22.318125 
L 1738.993224 22.318125 
L 1682.486159 22.318125 
L 1625.979093 22.318125 
L 1569.472027 22.318125 
L 1512.964961 22.318125 
L 1456.457895 22.318125 
L 1399.950829 22.318125 
L 1343.443764 22.318125 
L 1286.936698 22.318125 
L 1230.429632 22.318125 
L 1173.922566 22.318125 
L 1117.4155 22.318125 
L 1060.908435 22.318125 
L 1004.401369 22.318125 
L 947.894303 22.318125 
L 891.387237 22.318125 
L 834.880171 22.318125 
L 778.373106 22.318125 
L 721.86604 22.318125 
L 665.358974 22.318125 
L 608.851908 22.318125 
L 552.344842 22.318125 
L 495.837776 22.318125 
L 439.330711 22.318125 
L 432.884436 22.318125 
L 439.330711 39.638309 
L 449.883724 46.828554 
L 472.392195 71.338982 
L 484.646168 95.849411 
L 493.210105 120.35984 
L 495.837776 128.791873 
L 515.265114 144.870269 
L 530.871534 169.380697 
L 540.315817 193.891126 
L 546.568664 218.401555 
L 550.659383 242.911984 
L 552.344842 258.427062 
L 558.73595 267.422412 
L 562.010486 291.932841 
L 552.344842 298.056873 
L 549.101171 316.44327 
z
" clip-path="url(#p29a663a100)" style="fill: #2f6b8e"/>
    <path d="M -182.247013 307.882784 
L -146.593557 316.44327 
L -125.739947 316.44327 
L -91.565637 316.44327 
L -125.739947 304.300082 
L -157.622265 291.932841 
L -182.247013 284.50552 
L -230.271428 267.422412 
L -238.754079 264.833463 
L -295.261145 243.095299 
L -295.744304 242.911984 
L -351.768211 224.526466 
L -366.333654 218.401555 
L -408.275276 207.045146 
L -441.235008 193.891126 
L -464.782342 186.647039 
L -509.108343 169.380697 
L -521.289408 165.219886 
L -572.579953 144.870269 
L -577.796474 143.388495 
L -577.796474 144.870269 
L -577.796474 169.380697 
L -577.796474 193.681139 
L -576.57685 193.891126 
L -521.289408 213.184488 
L -487.273612 218.401555 
L -464.782342 222.224142 
L -408.275276 242.746204 
L -407.522947 242.911984 
L -351.768211 257.935115 
L -303.64985 267.422412 
L -295.261145 270.289353 
L -238.754079 291.827847 
L -238.238705 291.932841 
z
M 43.78125 306.055859 
L 67.660077 316.44327 
L 74.112004 316.44327 
L 43.78125 302.787824 
L 27.271899 291.932841 
L 18.138048 267.422412 
L -12.725816 255.338524 
L -39.272251 242.911984 
L -34.285303 218.401555 
L -69.232882 206.370555 
L -95.188473 193.891126 
L -95.89898 169.380697 
L -125.739947 159.254862 
L -150.740677 144.870269 
L -182.247013 125.643805 
L -192.545305 120.35984 
L -206.99746 95.849411 
L -238.754079 82.031617 
L -260.114256 71.338982 
L -263.346441 46.828554 
L -295.261145 32.894188 
L -316.198443 22.318125 
L -322.714534 22.318125 
L -295.261145 35.751235 
L -269.098116 46.828554 
L -266.730693 71.338982 
L -238.754079 84.898714 
L -212.794983 95.849411 
L -201.269454 120.35984 
L -182.247013 129.706197 
L -156.606911 144.870269 
L -125.739947 162.131694 
L -103.496178 169.380697 
L -101.281551 193.891126 
L -69.232882 208.852034 
L -40.545438 218.401555 
L -45.785196 242.911984 
L -12.725816 257.907425 
L 12.340205 267.422412 
L 21.70417 291.932841 
z
M 156.795382 298.319208 
L 176.247579 316.44327 
L 189.966055 316.44327 
L 167.128113 291.932841 
L 156.795382 284.04902 
L 143.437014 267.422412 
L 121.450281 242.911984 
L 100.288316 227.020335 
L 92.859714 218.401555 
L 70.619354 193.891126 
L 43.78125 175.207547 
L 38.192609 169.380697 
L 16.944197 144.870269 
L -12.725816 124.565693 
L -16.755707 120.35984 
L -37.71832 95.849411 
L -69.232882 74.650507 
L -72.296329 71.338982 
L -92.913562 46.828554 
L -125.739947 24.272034 
L -127.399362 22.318125 
L -138.506647 22.318125 
L -125.739947 36.533498 
L -109.388929 46.828554 
L -83.59264 71.338982 
L -69.232882 86.006127 
L -53.337248 95.849411 
L -28.098882 120.35984 
L -12.725816 135.517849 
L 2.059035 144.870269 
L 26.726735 169.380697 
L 43.78125 186.172238 
L 55.770077 193.891126 
L 81.038978 218.401555 
L 100.288316 239.458614 
L 105.290628 242.911984 
L 130.926822 267.422412 
L 152.061603 291.932841 
z
M 552.344842 298.056873 
L 562.010486 291.932841 
L 558.73595 267.422412 
L 552.344842 258.427062 
L 550.659383 242.911984 
L 546.568664 218.401555 
L 540.315817 193.891126 
L 530.871534 169.380697 
L 515.265114 144.870269 
L 495.837776 128.791873 
L 493.210105 120.35984 
L 484.646168 95.849411 
L 472.392195 71.338982 
L 449.883724 46.828554 
L 439.330711 39.638309 
L 432.884436 22.318125 
L 388.453486 22.318125 
L 408.970544 46.828554 
L 423.324813 71.338982 
L 434.294087 95.849411 
L 439.330711 108.980414 
L 450.496732 120.35984 
L 468.311887 144.870269 
L 480.638386 169.380697 
L 489.578037 193.891126 
L 495.837776 216.932822 
L 497.085961 218.401555 
L 513.753347 242.911984 
L 523.296156 267.422412 
L 526.739937 291.932841 
L 522.231949 316.44327 
L 549.101171 316.44327 
z
" clip-path="url(#p29a663a100)" style="fill: #29798e"/>
    <path d="M -125.739947 304.300082 
L -91.565637 316.44327 
L -69.232882 316.44327 
L -61.698508 316.44327 
L -69.232882 313.735731 
L -120.205452 291.932841 
L -125.739947 290.048408 
L -182.247013 268.180658 
L -183.947403 267.422412 
L -238.754079 245.974223 
L -244.986211 242.911984 
L -295.261145 225.346583 
L -310.661514 218.401555 
L -351.768211 203.813656 
L -377.789897 193.891126 
L -408.275276 183.855337 
L -442.642135 169.380697 
L -464.782342 161.843495 
L -500.226622 144.870269 
L -521.289408 137.530738 
L -562.476787 120.35984 
L -577.796474 115.04117 
L -577.796474 120.35984 
L -577.796474 143.388495 
L -572.579953 144.870269 
L -521.289408 165.219886 
L -509.108343 169.380697 
L -464.782342 186.647039 
L -441.235008 193.891126 
L -408.275276 207.045146 
L -366.333654 218.401555 
L -351.768211 224.526466 
L -295.744304 242.911984 
L -295.261145 243.095299 
L -238.754079 264.833463 
L -230.271428 267.422412 
L -182.247013 284.50552 
L -157.622265 291.932841 
z
M 43.78125 309.323894 
L 60.754066 316.44327 
L 67.660077 316.44327 
L 43.78125 306.055859 
L 21.70417 291.932841 
L 12.340205 267.422412 
L -12.725816 257.907425 
L -45.785196 242.911984 
L -40.545438 218.401555 
L -69.232882 208.852034 
L -101.281551 193.891126 
L -103.496178 169.380697 
L -125.739947 162.131694 
L -156.606911 144.870269 
L -182.247013 129.706197 
L -201.269454 120.35984 
L -212.794983 95.849411 
L -238.754079 84.898714 
L -266.730693 71.338982 
L -269.098116 46.828554 
L -295.261145 35.751235 
L -322.714534 22.318125 
L -329.694114 22.318125 
L -295.261145 38.608282 
L -275.207891 46.828554 
L -273.825536 71.338982 
L -238.754079 87.76581 
L -218.956522 95.849411 
L -210.84526 120.35984 
L -182.247013 133.768588 
L -162.84612 144.870269 
L -125.739947 165.008526 
L -111.731048 169.380697 
L -107.778011 193.891126 
L -69.232882 211.333513 
L -47.232159 218.401555 
L -52.761168 242.911984 
L -12.725816 260.476326 
L 6.178307 267.422412 
L 15.801553 291.932841 
z
M 182.787335 291.932841 
L 156.795382 270.401654 
L 154.53158 267.422412 
L 135.321938 242.911984 
L 107.121357 218.401555 
L 100.288316 214.267851 
L 83.514695 193.891126 
L 54.735581 169.380697 
L 43.78125 162.637599 
L 29.866579 144.870269 
L 1.556532 120.35984 
L -12.725816 110.846854 
L -24.246784 95.849411 
L -52.595253 71.338982 
L -69.232882 59.560797 
L -78.810049 46.828554 
L -106.126943 22.318125 
L -125.739947 22.318125 
L -127.399362 22.318125 
L -125.739947 24.272034 
L -92.913562 46.828554 
L -72.296329 71.338982 
L -69.232882 74.650507 
L -37.71832 95.849411 
L -16.755707 120.35984 
L -12.725816 124.565693 
L 16.944197 144.870269 
L 38.192609 169.380697 
L 43.78125 175.207547 
L 70.619354 193.891126 
L 92.859714 218.401555 
L 100.288316 227.020335 
L 121.450281 242.911984 
L 143.437014 267.422412 
L 156.795382 284.04902 
L 167.128113 291.932841 
L 189.966055 316.44327 
L 202.000313 316.44327 
z
M 495.837776 316.44327 
L 522.231949 316.44327 
L 526.739937 291.932841 
L 523.296156 267.422412 
L 513.753347 242.911984 
L 497.085961 218.401555 
L 495.837776 216.932822 
L 489.578037 193.891126 
L 480.638386 169.380697 
L 468.311887 144.870269 
L 450.496732 120.35984 
L 439.330711 108.980414 
L 434.294087 95.849411 
L 423.324813 71.338982 
L 408.970544 46.828554 
L 388.453486 22.318125 
L 382.823645 22.318125 
L 362.340262 22.318125 
L 374.796462 46.828554 
L 382.823645 64.713142 
L 389.152874 71.338982 
L 408.467299 95.849411 
L 422.588792 120.35984 
L 433.559355 144.870269 
L 439.330711 159.557874 
L 448.118036 169.380697 
L 465.472196 193.891126 
L 477.400352 218.401555 
L 485.899307 242.911984 
L 491.668338 267.422412 
L 494.307979 291.932841 
L 493.452009 316.44327 
z
" clip-path="url(#p29a663a100)" style="fill: #23888e"/>
    <path d="M -69.232882 313.735731 
L -61.698508 316.44327 
L -41.790456 316.44327 
L -69.232882 305.496257 
L -97.731274 291.932841 
L -125.739947 281.204675 
L -156.837744 267.422412 
L -182.247013 257.674075 
L -214.083706 242.911984 
L -238.754079 233.03727 
L -272.910659 218.401555 
L -295.261145 210.222702 
L -332.673235 193.891126 
L -351.768211 187.128511 
L -393.573105 169.380697 
L -408.275276 164.193376 
L -451.906301 144.870269 
L -464.782342 140.27326 
L -509.069749 120.35984 
L -521.289408 116.094258 
L -565.331602 95.849411 
L -577.796474 91.585368 
L -577.796474 95.849411 
L -577.796474 115.04117 
L -562.476787 120.35984 
L -521.289408 137.530738 
L -500.226622 144.870269 
L -464.782342 161.843495 
L -442.642135 169.380697 
L -408.275276 183.855337 
L -377.789897 193.891126 
L -351.768211 203.813656 
L -310.661514 218.401555 
L -295.261145 225.346583 
L -244.986211 242.911984 
L -238.754079 245.974223 
L -183.947403 267.422412 
L -182.247013 268.180658 
L -125.739947 290.048408 
L -120.205452 291.932841 
z
M 43.78125 312.591929 
L 53.325181 316.44327 
L 60.754066 316.44327 
L 43.78125 309.323894 
L 15.801553 291.932841 
L 6.178307 267.422412 
L -12.725816 260.476326 
L -52.761168 242.911984 
L -47.232159 218.401555 
L -69.232882 211.333513 
L -107.778011 193.891126 
L -111.731048 169.380697 
L -125.739947 165.008526 
L -162.84612 144.870269 
L -182.247013 133.768588 
L -210.84526 120.35984 
L -218.956522 95.849411 
L -238.754079 87.76581 
L -273.825536 71.338982 
L -275.207891 46.828554 
L -295.261145 38.608282 
L -329.694114 22.318125 
L -337.208204 22.318125 
L -295.261145 41.465328 
L -281.723335 46.828554 
L -281.473397 71.338982 
L -238.754079 90.632907 
L -225.530867 95.849411 
L -221.457171 120.35984 
L -182.247013 137.83098 
L -169.50897 144.870269 
L -125.739947 167.885358 
L -120.720529 169.380697 
L -114.735071 193.891126 
L -69.232882 213.814992 
L -54.407884 218.401555 
L -60.271076 242.911984 
L -12.725816 263.045228 
L -0.396448 267.422412 
L 9.521171 291.932841 
z
M 196.28882 291.932841 
L 170.354893 267.422412 
L 156.795382 255.71976 
L 147.473869 242.911984 
L 126.558556 218.401555 
L 100.288316 200.806356 
L 94.911032 193.891126 
L 74.684458 169.380697 
L 43.78125 148.24712 
L 41.284024 144.870269 
L 21.062136 120.35984 
L -11.755027 95.849411 
L -12.725816 95.306906 
L -33.06853 71.338982 
L -61.431128 46.828554 
L -69.232882 42.581712 
L -86.975039 22.318125 
L -106.126943 22.318125 
L -78.810049 46.828554 
L -69.232882 59.560797 
L -52.595253 71.338982 
L -24.246784 95.849411 
L -12.725816 110.846854 
L 1.556532 120.35984 
L 29.866579 144.870269 
L 43.78125 162.637599 
L 54.735581 169.380697 
L 83.514695 193.891126 
L 100.288316 214.267851 
L 107.121357 218.401555 
L 135.321938 242.911984 
L 154.53158 267.422412 
L 156.795382 270.401654 
L 182.787335 291.932841 
L 202.000313 316.44327 
L 212.719044 316.44327 
z
M 494.307979 291.932841 
L 491.668338 267.422412 
L 485.899307 242.911984 
L 477.400352 218.401555 
L 465.472196 193.891126 
L 448.118036 169.380697 
L 439.330711 159.557874 
L 433.559355 144.870269 
L 422.588792 120.35984 
L 408.467299 95.849411 
L 389.152874 71.338982 
L 382.823645 64.713142 
L 374.796462 46.828554 
L 362.340262 22.318125 
L 333.171382 22.318125 
L 351.593246 46.828554 
L 366.290242 71.338982 
L 378.710546 95.849411 
L 382.823645 104.435376 
L 396.722394 120.35984 
L 413.386453 144.870269 
L 426.275197 169.380697 
L 436.990537 193.891126 
L 439.330711 199.610988 
L 454.176232 218.401555 
L 467.853376 242.911984 
L 477.077138 267.422412 
L 482.274835 291.932841 
L 483.333109 316.44327 
L 493.452009 316.44327 
z
" clip-path="url(#p29a663a100)" style="fill: #1f988b"/>
    <path d="M -69.232882 305.496257 
L -41.790456 316.44327 
L -25.247076 316.44327 
L -69.232882 297.256784 
L -79.456052 291.932841 
L -125.739947 272.360943 
L -135.787648 267.422412 
L -182.247013 247.450899 
L -190.984626 242.911984 
L -238.754079 221.248348 
L -244.531917 218.401555 
L -295.261145 196.758179 
L -300.8801 193.891126 
L -351.768211 172.496258 
L -357.933967 169.380697 
L -408.275276 147.869388 
L -413.900618 144.870269 
L -464.782342 122.592723 
L -468.862751 120.35984 
L -521.289408 97.646404 
L -524.491061 95.849411 
L -577.796474 73.136112 
L -577.796474 91.585368 
L -565.331602 95.849411 
L -521.289408 116.094258 
L -509.069749 120.35984 
L -464.782342 140.27326 
L -451.906301 144.870269 
L -408.275276 164.193376 
L -393.573105 169.380697 
L -351.768211 187.128511 
L -332.673235 193.891126 
L -295.261145 210.222702 
L -272.910659 218.401555 
L -238.754079 233.03727 
L -214.083706 242.911984 
L -182.247013 257.674075 
L -156.837744 267.422412 
L -125.739947 281.204675 
L -97.731274 291.932841 
z
M 43.78125 315.859964 
L 45.287713 316.44327 
L 53.325181 316.44327 
L 43.78125 312.591929 
L 9.521171 291.932841 
L -0.396448 267.422412 
L -12.725816 263.045228 
L -60.271076 242.911984 
L -54.407884 218.401555 
L -69.232882 213.814992 
L -114.735071 193.891126 
L -120.720529 169.380697 
L -125.739947 167.885358 
L -169.50897 144.870269 
L -182.247013 137.83098 
L -221.457171 120.35984 
L -225.530867 95.849411 
L -238.754079 90.632907 
L -281.473397 71.338982 
L -281.723335 46.828554 
L -295.261145 41.465328 
L -337.208204 22.318125 
L -345.345511 22.318125 
L -295.261145 44.322375 
L -288.702174 46.828554 
L -289.767832 71.338982 
L -238.754079 93.500004 
L -232.57733 95.849411 
L -233.356911 120.35984 
L -182.247013 141.893372 
L -176.657211 144.870269 
L -170.14146 169.380697 
L -125.739947 182.116342 
L -122.223065 193.891126 
L -69.232882 216.296471 
L -62.149818 218.401555 
L -68.403478 242.911984 
L -12.725816 265.614129 
L -7.443382 267.422412 
L 2.811343 291.932841 
z
M 213.302447 316.44327 
L 227.23787 316.44327 
L 213.302447 300.120652 
L 208.155833 291.932841 
L 185.350391 267.422412 
L 159.604287 242.911984 
L 156.795382 239.83956 
L 142.775816 218.401555 
L 112.032886 193.891126 
L 100.288316 183.121518 
L 91.25599 169.380697 
L 65.441397 144.870269 
L 43.78125 129.372512 
L 37.326939 120.35984 
L 17.016877 95.849411 
L -12.725816 76.531293 
L -16.789061 71.338982 
L -33.720431 46.828554 
L -69.232882 24.451384 
L -70.956673 22.318125 
L -86.975039 22.318125 
L -69.232882 42.581712 
L -61.431128 46.828554 
L -33.06853 71.338982 
L -12.725816 95.306906 
L -11.755027 95.849411 
L 21.062136 120.35984 
L 41.284024 144.870269 
L 43.78125 148.24712 
L 74.684458 169.380697 
L 94.911032 193.891126 
L 100.288316 200.806356 
L 126.558556 218.401555 
L 147.473869 242.911984 
L 156.795382 255.71976 
L 170.354893 267.422412 
L 196.28882 291.932841 
L 212.719044 316.44327 
z
M 482.274835 291.932841 
L 477.077138 267.422412 
L 467.853376 242.911984 
L 454.176232 218.401555 
L 439.330711 199.610988 
L 436.990537 193.891126 
L 426.275197 169.380697 
L 413.386453 144.870269 
L 396.722394 120.35984 
L 382.823645 104.435376 
L 378.710546 95.849411 
L 366.290242 71.338982 
L 351.593246 46.828554 
L 333.171382 22.318125 
L 326.316579 22.318125 
L 309.685758 22.318125 
L 323.468263 46.828554 
L 326.316579 52.042997 
L 342.427049 71.338982 
L 359.081864 95.849411 
L 373.092168 120.35984 
L 382.823645 139.10997 
L 387.966411 144.870269 
L 406.566188 169.380697 
L 420.952897 193.891126 
L 432.668819 218.401555 
L 439.330711 234.463147 
L 445.725453 242.911984 
L 459.931904 267.422412 
L 468.557808 291.932841 
L 472.04996 316.44327 
L 483.333109 316.44327 
z
" clip-path="url(#p29a663a100)" style="fill: #22a785"/>
    <path d="M -69.232882 297.256784 
L -25.247076 316.44327 
L -12.725816 316.44327 
L 43.78125 316.44327 
L 45.287713 316.44327 
L 43.78125 315.859964 
L 2.811343 291.932841 
L -7.443382 267.422412 
L -12.725816 265.614129 
L -68.403478 242.911984 
L -62.149818 218.401555 
L -69.232882 216.296471 
L -122.223065 193.891126 
L -125.739947 182.116342 
L -170.14146 169.380697 
L -176.657211 144.870269 
L -182.247013 141.893372 
L -233.356911 120.35984 
L -232.57733 95.849411 
L -238.754079 93.500004 
L -289.767832 71.338982 
L -288.702174 46.828554 
L -295.261145 44.322375 
L -345.345511 22.318125 
L -351.768211 22.318125 
L -408.275276 22.318125 
L -429.282118 22.318125 
L -408.275276 46.33306 
L -406.316284 46.828554 
L -351.768211 64.311643 
L -323.784719 71.338982 
L -319.498871 95.849411 
L -295.261145 105.92833 
L -253.144723 120.35984 
L -238.754079 138.744399 
L -210.889833 144.870269 
L -216.007164 169.380697 
L -182.247013 181.349414 
L -143.09295 193.891126 
L -125.739947 217.48476 
L -116.648861 218.401555 
L -125.739947 220.693543 
L -182.247013 233.836805 
L -209.556923 218.401555 
L -238.754079 205.782271 
L -261.681321 193.891126 
L -295.261145 179.975374 
L -315.846482 169.380697 
L -351.768211 153.089018 
L -366.94192 144.870269 
L -351.768211 127.135753 
L -344.053527 120.35984 
L -351.768211 116.833982 
L -366.993831 120.35984 
L -408.275276 127.112747 
L -420.237819 120.35984 
L -464.782342 100.296386 
L -472.681066 95.849411 
L -514.611593 71.338982 
L -521.289408 68.767827 
L -568.136564 46.828554 
L -577.796474 43.23489 
L -577.796474 46.828554 
L -577.796474 71.338982 
L -577.796474 73.136112 
L -524.491061 95.849411 
L -521.289408 97.646404 
L -468.862751 120.35984 
L -464.782342 122.592723 
L -413.900618 144.870269 
L -408.275276 147.869388 
L -357.933967 169.380697 
L -351.768211 172.496258 
L -300.8801 193.891126 
L -295.261145 196.758179 
L -244.531917 218.401555 
L -238.754079 221.248348 
L -190.984626 242.911984 
L -182.247013 247.450899 
L -135.787648 267.422412 
L -125.739947 272.360943 
L -79.456052 291.932841 
z
M -51.867626 291.932841 
L -69.232882 280.379199 
L -92.018282 267.422412 
L -69.232882 259.937269 
L -33.049789 267.422412 
L -12.725816 272.737686 
L -4.391001 291.932841 
L -12.725816 313.918337 
z
M 213.302447 300.120652 
L 227.23787 316.44327 
L 240.137757 316.44327 
L 222.439431 291.932841 
L 213.302447 284.957136 
L 198.355809 267.422412 
L 177.111559 242.911984 
L 156.795382 218.574592 
L 156.689875 218.401555 
L 132.504123 193.891126 
L 109.097646 169.380697 
L 100.288316 160.320575 
L 88.027983 144.870269 
L 61.206996 120.35984 
L 43.78125 103.114246 
L 39.23923 95.849411 
L 14.875972 71.338982 
L -11.445287 46.828554 
L -12.725816 45.864998 
L -34.641001 22.318125 
L -69.232882 22.318125 
L -70.956673 22.318125 
L -69.232882 24.451384 
L -33.720431 46.828554 
L -16.789061 71.338982 
L -12.725816 76.531293 
L 17.016877 95.849411 
L 37.326939 120.35984 
L 43.78125 129.372512 
L 65.441397 144.870269 
L 91.25599 169.380697 
L 100.288316 183.121518 
L 112.032886 193.891126 
L 142.775816 218.401555 
L 156.795382 239.83956 
L 159.604287 242.911984 
L 185.350391 267.422412 
L 208.155833 291.932841 
z
M 468.557808 291.932841 
L 459.931904 267.422412 
L 445.725453 242.911984 
L 439.330711 234.463147 
L 432.668819 218.401555 
L 420.952897 193.891126 
L 406.566188 169.380698 
L 387.966411 144.870269 
L 382.823645 139.10997 
L 373.092168 120.35984 
L 359.081864 95.849411 
L 342.427049 71.338982 
L 326.316579 52.042997 
L 323.468263 46.828554 
L 309.685758 22.318125 
L 284.116136 22.318125 
L 301.798963 46.828554 
L 317.376413 71.338982 
L 326.316579 86.40524 
L 334.521591 95.849411 
L 352.962126 120.35984 
L 368.461117 144.870269 
L 382.273776 169.380697 
L 382.823645 170.358073 
L 401.773408 193.891126 
L 416.935496 218.401555 
L 429.012663 242.911984 
L 439.226664 267.422412 
L 439.330711 267.694177 
L 452.607738 291.932841 
L 459.299396 316.44327 
L 472.04996 316.44327 
z
" clip-path="url(#p29a663a100)" style="fill: #31b57b"/>
    <path d="M -12.725816 313.918337 
L -4.391001 291.932841 
L -12.725816 272.737686 
L -33.049789 267.422412 
L -69.232882 259.937269 
L -92.018282 267.422412 
L -69.232882 280.379199 
L -51.867626 291.932841 
z
M -14.839409 291.932841 
L -12.725816 290.689422 
L -12.163932 291.932841 
L -12.725816 293.357013 
z
M 237.730558 291.932841 
L 213.302447 271.727596 
L 209.838006 267.422412 
L 191.963954 242.911984 
L 175.931142 218.401555 
L 156.795382 202.013335 
L 149.43412 193.891126 
L 129.110965 169.380697 
L 109.299088 144.870269 
L 100.288316 136.403079 
L 86.440132 120.35984 
L 64.494879 95.849411 
L 43.78125 71.674154 
L 43.517704 71.338982 
L 23.403396 46.828554 
L -3.428096 22.318125 
L -12.725816 22.318125 
L -34.641001 22.318125 
L -12.725816 45.864998 
L -11.445287 46.828554 
L 14.875972 71.338982 
L 39.23923 95.849411 
L 43.78125 103.114246 
L 61.206996 120.35984 
L 88.027983 144.870269 
L 100.288316 160.320575 
L 109.097646 169.380697 
L 132.504123 193.891126 
L 156.689875 218.401555 
L 156.795382 218.574592 
L 177.111559 242.911984 
L 198.355809 267.422412 
L 213.302447 284.957136 
L 222.439431 291.932841 
L 240.137757 316.44327 
L 251.537643 316.44327 
z
M 439.330711 303.302618 
L 444.641857 316.44327 
L 459.299396 316.44327 
L 452.607738 291.932841 
L 439.330711 267.694177 
L 439.226664 267.422412 
L 429.012663 242.911984 
L 416.935496 218.401555 
L 401.773408 193.891126 
L 382.823645 170.358073 
L 382.273776 169.380697 
L 368.461117 144.870269 
L 352.962126 120.35984 
L 334.521591 95.849411 
L 326.316579 86.40524 
L 317.376413 71.338982 
L 301.798963 46.828554 
L 284.116136 22.318125 
L 269.809513 22.318125 
L 256.622882 22.318125 
L 269.809513 42.223472 
L 273.949866 46.828554 
L 294.001298 71.338982 
L 311.316767 95.849411 
L 326.316579 118.931412 
L 327.610245 120.35984 
L 347.722146 144.870269 
L 364.426534 169.380697 
L 379.576859 193.891126 
L 382.823645 199.112525 
L 398.190017 218.401555 
L 413.32844 242.911984 
L 425.34023 267.422412 
L 435.495411 291.932841 
z
M -182.247013 233.836805 
L -125.739947 220.693543 
L -116.648861 218.401555 
L -125.739947 217.48476 
L -143.09295 193.891126 
L -182.247013 181.349414 
L -216.007164 169.380697 
L -210.889833 144.870269 
L -238.754079 138.744399 
L -253.144723 120.35984 
L -295.261145 105.92833 
L -319.498871 95.849411 
L -323.784719 71.338982 
L -351.768211 64.311643 
L -406.316284 46.828554 
L -408.275276 46.33306 
L -429.282118 22.318125 
L -459.421551 22.318125 
L -464.782342 26.966862 
L -470.915906 22.318125 
L -521.289408 22.318125 
L -577.796474 22.318125 
L -577.796474 43.23489 
L -568.136564 46.828554 
L -521.289408 68.767827 
L -514.611593 71.338982 
L -472.681066 95.849411 
L -464.782342 100.296386 
L -420.237819 120.35984 
L -408.275276 127.112747 
L -366.993831 120.35984 
L -351.768211 116.833982 
L -344.053527 120.35984 
L -351.768211 127.135753 
L -366.94192 144.870269 
L -351.768211 153.089018 
L -315.846482 169.380697 
L -295.261145 179.975374 
L -261.681321 193.891126 
L -238.754079 205.782271 
L -209.556923 218.401555 
z
M -304.369159 120.35984 
L -295.261145 117.094985 
L -284.030234 120.35984 
L -295.261145 127.065182 
z
M -413.940121 95.849411 
L -408.275276 89.171744 
L -373.31886 95.849411 
L -408.275276 99.443585 
z
" clip-path="url(#p29a663a100)" style="fill: #4ec36b"/>
    <path d="M -12.725816 293.357013 
L -12.163932 291.932841 
L -12.725816 290.689422 
L -14.839409 291.932841 
z
M 250.957652 291.932841 
L 229.686063 267.422412 
L 213.302447 255.644756 
L 204.861646 242.911984 
L 192.059322 218.401555 
L 170.867367 193.891126 
L 156.795382 184.116769 
L 145.726895 169.380697 
L 131.095613 144.870269 
L 111.033957 120.35984 
L 100.288316 112.996425 
L 86.263625 95.849411 
L 70.967348 71.338982 
L 52.123078 46.828554 
L 43.78125 41.146887 
L 26.162296 22.318125 
L -3.428096 22.318125 
L 23.403396 46.828554 
L 43.517704 71.338983 
L 43.78125 71.674154 
L 64.494879 95.849411 
L 86.440132 120.35984 
L 100.288316 136.403079 
L 109.299088 144.870269 
L 129.110965 169.380697 
L 149.43412 193.891126 
L 156.795382 202.013335 
L 175.931142 218.401555 
L 191.963954 242.911984 
L 209.838006 267.422412 
L 213.302447 271.727596 
L 237.730558 291.932841 
L 251.537643 316.44327 
L 261.750312 316.44327 
z
M 439.330711 316.44327 
L 444.641857 316.44327 
L 439.330711 303.302618 
L 435.495411 291.932841 
L 425.34023 267.422412 
L 413.32844 242.911984 
L 398.190017 218.401555 
L 382.823645 199.112525 
L 379.576859 193.891126 
L 364.426534 169.380697 
L 347.722146 144.870269 
L 327.610245 120.35984 
L 326.316579 118.931412 
L 311.316767 95.849411 
L 294.001298 71.338982 
L 273.949866 46.828554 
L 269.809513 42.223472 
L 256.622882 22.318125 
L 226.508477 22.318125 
L 246.524494 46.828554 
L 264.792976 71.338982 
L 269.809513 78.032051 
L 285.664942 95.849411 
L 304.502544 120.35984 
L 322.368009 144.870269 
L 326.316579 150.117479 
L 342.59702 169.380697 
L 360.048638 193.891126 
L 376.604041 218.401555 
L 382.823645 227.346935 
L 394.652682 242.911984 
L 409.16051 267.422412 
L 420.598019 291.932841 
L 429.416507 316.44327 
z
M -295.261145 127.065182 
L -284.030234 120.35984 
L -295.261145 117.094985 
L -304.369159 120.35984 
z
M -408.275276 99.443585 
L -373.31886 95.849411 
L -408.275276 89.171744 
L -413.940121 95.849411 
z
M -464.782342 26.966862 
L -459.421551 22.318125 
L -464.782342 22.318125 
L -470.915906 22.318125 
z
" clip-path="url(#p29a663a100)" style="fill: #70cf57"/>
    <path d="M 269.809513 316.44327 
L 275.392529 316.44327 
L 269.809513 312.405125 
L 262.612238 291.932841 
L 249.837229 267.422412 
L 224.487911 242.911984 
L 213.302447 235.244142 
L 205.907796 218.401555 
L 193.762583 193.891126 
L 168.118793 169.380697 
L 156.795382 161.610002 
L 148.920829 144.870269 
L 137.742378 120.35984 
L 112.922213 95.849411 
L 100.288316 87.278784 
L 92.439218 71.338982 
L 82.117711 46.828554 
L 58.728398 22.318125 
L 43.78125 22.318125 
L 26.162296 22.318125 
L 43.78125 41.146887 
L 52.123078 46.828554 
L 70.967348 71.338982 
L 86.263625 95.849411 
L 100.288316 112.996425 
L 111.033957 120.35984 
L 131.095613 144.870269 
L 145.726895 169.380697 
L 156.795382 184.116769 
L 170.867367 193.891126 
L 192.059322 218.401555 
L 204.861646 242.911984 
L 213.302447 255.644756 
L 229.686063 267.422412 
L 250.957652 291.932841 
L 261.750312 316.44327 
z
M 420.598019 291.932841 
L 409.16051 267.422412 
L 394.652682 242.911984 
L 382.823645 227.346935 
L 376.604041 218.401555 
L 360.048638 193.891126 
L 342.59702 169.380697 
L 326.316579 150.117479 
L 322.368009 144.870269 
L 304.502544 120.35984 
L 285.664942 95.849411 
L 269.809513 78.032051 
L 264.792976 71.338982 
L 246.524494 46.828554 
L 226.508477 22.318125 
L 213.302447 22.318125 
L 189.129649 22.318125 
L 210.554468 46.828554 
L 213.302447 49.758409 
L 232.617761 71.338982 
L 252.666247 95.849411 
L 269.809513 114.906804 
L 274.889488 120.35984 
L 294.709369 144.870269 
L 314.47013 169.380697 
L 326.316579 182.763601 
L 335.645737 193.891126 
L 353.45405 218.401555 
L 371.300898 242.911984 
L 382.823645 257.470254 
L 389.777265 267.422412 
L 403.028147 291.932841 
L 412.544181 316.44327 
L 429.416507 316.44327 
z
" clip-path="url(#p29a663a100)" style="fill: #98d83e"/>
    <path d="M 269.809513 312.405125 
L 275.392529 316.44327 
L 309.29248 316.44327 
L 290.634374 291.932841 
L 269.809513 277.286576 
L 266.547962 267.422412 
L 257.363794 242.911984 
L 242.440398 218.401555 
L 213.302447 196.992361 
L 212.314813 193.891126 
L 205.710254 169.380697 
L 197.255347 144.870269 
L 185.381271 120.35984 
L 213.302447 108.207033 
L 222.95647 120.35984 
L 243.121942 144.870269 
L 269.809513 163.380607 
L 274.865455 169.380697 
L 293.751588 193.891126 
L 319.501249 218.401555 
L 326.316579 223.467914 
L 340.165984 242.911984 
L 357.482141 267.422412 
L 379.999733 291.932841 
L 382.823645 294.744377 
L 392.157302 316.44327 
L 412.544181 316.44327 
L 403.028147 291.932841 
L 389.777265 267.422412 
L 382.823645 257.470254 
L 371.300898 242.911984 
L 353.45405 218.401555 
L 335.645737 193.891126 
L 326.316579 182.763601 
L 314.47013 169.380697 
L 294.709369 144.870269 
L 274.889488 120.35984 
L 269.809513 114.906804 
L 252.666247 95.849411 
L 232.617761 71.338982 
L 213.302447 49.758409 
L 210.554468 46.828554 
L 189.129649 22.318125 
L 156.795382 22.318125 
L 100.288316 22.318125 
L 58.728398 22.318125 
L 82.117711 46.828554 
L 92.439218 71.338983 
L 100.288316 87.278784 
L 112.922213 95.849411 
L 137.742378 120.35984 
L 148.920829 144.870269 
L 156.795382 161.610002 
L 168.118793 169.380697 
L 193.762583 193.891126 
L 205.907796 218.401555 
L 213.302447 235.244142 
L 224.487911 242.911984 
L 249.837229 267.422412 
L 262.612238 291.932841 
z
M 154.673604 95.849411 
L 152.471117 71.338982 
L 156.795382 59.849885 
L 164.469822 71.338982 
L 178.687262 95.849411 
L 156.795382 105.286627 
z
" clip-path="url(#p29a663a100)" style="fill: #c0df25"/>
    <path d="M 326.316579 316.44327 
L 382.823645 316.44327 
L 392.157302 316.44327 
L 382.823645 294.744377 
L 379.999733 291.932841 
L 357.482141 267.422412 
L 340.165984 242.911984 
L 326.316579 223.467914 
L 319.501249 218.401555 
L 293.751588 193.891126 
L 274.865455 169.380698 
L 269.809513 163.380607 
L 243.121942 144.870269 
L 222.95647 120.35984 
L 213.302447 108.207033 
L 185.381271 120.35984 
L 197.255347 144.870269 
L 205.710254 169.380697 
L 212.314813 193.891126 
L 213.302447 196.992361 
L 242.440398 218.401555 
L 257.363794 242.911984 
L 266.547962 267.422412 
L 269.809513 277.286576 
L 290.634374 291.932841 
L 309.29248 316.44327 
z
M 156.795382 105.286627 
L 178.687262 95.849411 
L 164.469822 71.338982 
L 156.795382 59.849885 
L 152.471117 71.338982 
L 154.673604 95.849411 
z
" clip-path="url(#p29a663a100)" style="fill: #ece51b"/>
   </g>
   <g id="PathCollection_1">
    <defs>
     <path id="mdc0741d33a" d="M -3 3 
L 3 -3 
M -3 -3 
L 3 3 
" style="stroke: #ff0000; stroke-width: 1.5"/>
    </defs>
    <g clip-path="url(#p29a663a100)">
     <use xlink:href="#mdc0741d33a" x="326.316579" y="316.44327" style="fill: #ff0000; stroke: #ff0000; stroke-width: 1.5"/>
     <use xlink:href="#mdc0741d33a" x="326.316579" y="291.932841" style="fill: #ff0000; stroke: #ff0000; stroke-width: 1.5"/>
     <use xlink:href="#mdc0741d33a" x="326.316579" y="267.422412" style="fill: #ff0000; stroke: #ff0000; stroke-width: 1.5"/>
     <use xlink:href="#mdc0741d33a" x="269.809513" y="242.911984" style="fill: #ff0000; stroke: #ff0000; stroke-width: 1.5"/>
     <use xlink:href="#mdc0741d33a" x="269.809513" y="218.401555" style="fill: #ff0000; stroke: #ff0000; stroke-width: 1.5"/>
     <use xlink:href="#mdc0741d33a" x="269.809513" y="193.891126" style="fill: #ff0000; stroke: #ff0000; stroke-width: 1.5"/>
     <use xlink:href="#mdc0741d33a" x="213.302447" y="169.380697" style="fill: #ff0000; stroke: #ff0000; stroke-width: 1.5"/>
     <use xlink:href="#mdc0741d33a" x="213.302447" y="144.870269" style="fill: #ff0000; stroke: #ff0000; stroke-width: 1.5"/>
     <use xlink:href="#mdc0741d33a" x="213.302447" y="120.35984" style="fill: #ff0000; stroke: #ff0000; stroke-width: 1.5"/>
     <use xlink:href="#mdc0741d33a" x="156.795382" y="95.849411" style="fill: #ff0000; stroke: #ff0000; stroke-width: 1.5"/>
     <use xlink:href="#mdc0741d33a" x="156.795382" y="71.338982" style="fill: #ff0000; stroke: #ff0000; stroke-width: 1.5"/>
     <use xlink:href="#mdc0741d33a" x="156.795382" y="46.828554" style="fill: #ff0000; stroke: #ff0000; stroke-width: 1.5"/>
     <use xlink:href="#mdc0741d33a" x="100.288316" y="22.318125" style="fill: #ff0000; stroke: #ff0000; stroke-width: 1.5"/>
    </g>
   </g>
   <g id="matplotlib.axis_1">
    <g id="xtick_1">
     <g id="line2d_1">
      <defs>
       <path id="m38f3b05bbe" d="M 0 0 
L 0 3.5 
" style="stroke: #000000; stroke-width: 0.8"/>
      </defs>
      <g>
       <use xlink:href="#m38f3b05bbe" x="100.288316" y="316.44327" style="stroke: #000000; stroke-width: 0.8"/>
      </g>
     </g>
     <g id="text_1">
      <!-- $\mathdefault{10^{-2}}$ -->
      <g transform="translate(88.538316 331.041707) scale(0.1 -0.1)">
       <defs>
        <path id="DejaVuSans-31" d="M 794 531 
L 1825 531 
L 1825 4091 
L 703 3866 
L 703 4441 
L 1819 4666 
L 2450 4666 
L 2450 531 
L 3481 531 
L 3481 0 
L 794 0 
L 794 531 
z
" transform="scale(0.015625)"/>
        <path id="DejaVuSans-30" d="M 2034 4250 
Q 1547 4250 1301 3770 
Q 1056 3291 1056 2328 
Q 1056 1369 1301 889 
Q 1547 409 2034 409 
Q 2525 409 2770 889 
Q 3016 1369 3016 2328 
Q 3016 3291 2770 3770 
Q 2525 4250 2034 4250 
z
M 2034 4750 
Q 2819 4750 3233 4129 
Q 3647 3509 3647 2328 
Q 3647 1150 3233 529 
Q 2819 -91 2034 -91 
Q 1250 -91 836 529 
Q 422 1150 422 2328 
Q 422 3509 836 4129 
Q 1250 4750 2034 4750 
z
" transform="scale(0.015625)"/>
        <path id="DejaVuSans-2212" d="M 678 2272 
L 4684 2272 
L 4684 1741 
L 678 1741 
L 678 2272 
z
" transform="scale(0.015625)"/>
        <path id="DejaVuSans-32" d="M 1228 531 
L 3431 531 
L 3431 0 
L 469 0 
L 469 531 
Q 828 903 1448 1529 
Q 2069 2156 2228 2338 
Q 2531 2678 2651 2914 
Q 2772 3150 2772 3378 
Q 2772 3750 2511 3984 
Q 2250 4219 1831 4219 
Q 1534 4219 1204 4116 
Q 875 4013 500 3803 
L 500 4441 
Q 881 4594 1212 4672 
Q 1544 4750 1819 4750 
Q 2544 4750 2975 4387 
Q 3406 4025 3406 3419 
Q 3406 3131 3298 2873 
Q 3191 2616 2906 2266 
Q 2828 2175 2409 1742 
Q 1991 1309 1228 531 
z
" transform="scale(0.015625)"/>
       </defs>
       <use xlink:href="#DejaVuSans-31" transform="translate(0 0.765625)"/>
       <use xlink:href="#DejaVuSans-30" transform="translate(63.623047 0.765625)"/>
       <use xlink:href="#DejaVuSans-2212" transform="translate(128.203125 39.046875) scale(0.7)"/>
       <use xlink:href="#DejaVuSans-32" transform="translate(186.855469 39.046875) scale(0.7)"/>
      </g>
     </g>
    </g>
    <g id="xtick_2">
     <g id="line2d_2">
      <g>
       <use xlink:href="#m38f3b05bbe" x="326.316579" y="316.44327" style="stroke: #000000; stroke-width: 0.8"/>
      </g>
     </g>
     <g id="text_2">
      <!-- $\mathdefault{10^{-1}}$ -->
      <g transform="translate(314.566579 331.041707) scale(0.1 -0.1)">
       <use xlink:href="#DejaVuSans-31" transform="translate(0 0.684375)"/>
       <use xlink:href="#DejaVuSans-30" transform="translate(63.623047 0.684375)"/>
       <use xlink:href="#DejaVuSans-2212" transform="translate(128.203125 38.965625) scale(0.7)"/>
       <use xlink:href="#DejaVuSans-31" transform="translate(186.855469 38.965625) scale(0.7)"/>
      </g>
     </g>
    </g>
    <g id="xtick_3">
     <g id="line2d_3">
      <defs>
       <path id="m360e1f0208" d="M 0 0 
L 0 2 
" style="stroke: #000000; stroke-width: 0.6"/>
      </defs>
      <g>
       <use xlink:href="#m360e1f0208" x="50.144228" y="316.44327" style="stroke: #000000; stroke-width: 0.6"/>
      </g>
     </g>
    </g>
    <g id="xtick_4">
     <g id="line2d_4">
      <g>
       <use xlink:href="#m360e1f0208" x="65.276095" y="316.44327" style="stroke: #000000; stroke-width: 0.6"/>
      </g>
     </g>
    </g>
    <g id="xtick_5">
     <g id="line2d_5">
      <g>
       <use xlink:href="#m360e1f0208" x="78.383914" y="316.44327" style="stroke: #000000; stroke-width: 0.6"/>
      </g>
     </g>
    </g>
    <g id="xtick_6">
     <g id="line2d_6">
      <g>
       <use xlink:href="#m360e1f0208" x="89.94583" y="316.44327" style="stroke: #000000; stroke-width: 0.6"/>
      </g>
     </g>
    </g>
    <g id="xtick_7">
     <g id="line2d_7">
      <g>
       <use xlink:href="#m360e1f0208" x="168.329603" y="316.44327" style="stroke: #000000; stroke-width: 0.6"/>
      </g>
     </g>
    </g>
    <g id="xtick_8">
     <g id="line2d_8">
      <g>
       <use xlink:href="#m360e1f0208" x="208.131204" y="316.44327" style="stroke: #000000; stroke-width: 0.6"/>
      </g>
     </g>
    </g>
    <g id="xtick_9">
     <g id="line2d_9">
      <g>
       <use xlink:href="#m360e1f0208" x="236.37089" y="316.44327" style="stroke: #000000; stroke-width: 0.6"/>
      </g>
     </g>
    </g>
    <g id="xtick_10">
     <g id="line2d_10">
      <g>
       <use xlink:href="#m360e1f0208" x="258.275292" y="316.44327" style="stroke: #000000; stroke-width: 0.6"/>
      </g>
     </g>
    </g>
    <g id="xtick_11">
     <g id="line2d_11">
      <g>
       <use xlink:href="#m360e1f0208" x="276.172491" y="316.44327" style="stroke: #000000; stroke-width: 0.6"/>
      </g>
     </g>
    </g>
    <g id="xtick_12">
     <g id="line2d_12">
      <g>
       <use xlink:href="#m360e1f0208" x="291.304358" y="316.44327" style="stroke: #000000; stroke-width: 0.6"/>
      </g>
     </g>
    </g>
    <g id="xtick_13">
     <g id="line2d_13">
      <g>
       <use xlink:href="#m360e1f0208" x="304.412177" y="316.44327" style="stroke: #000000; stroke-width: 0.6"/>
      </g>
     </g>
    </g>
    <g id="xtick_14">
     <g id="line2d_14">
      <g>
       <use xlink:href="#m360e1f0208" x="315.974093" y="316.44327" style="stroke: #000000; stroke-width: 0.6"/>
      </g>
     </g>
    </g>
    <g id="text_3">
     <!-- bandwidth -->
     <g transform="translate(186.939947 344.719832) scale(0.1 -0.1)">
      <defs>
       <path id="DejaVuSans-62" d="M 3116 1747 
Q 3116 2381 2855 2742 
Q 2594 3103 2138 3103 
Q 1681 3103 1420 2742 
Q 1159 2381 1159 1747 
Q 1159 1113 1420 752 
Q 1681 391 2138 391 
Q 2594 391 2855 752 
Q 3116 1113 3116 1747 
z
M 1159 2969 
Q 1341 3281 1617 3432 
Q 1894 3584 2278 3584 
Q 2916 3584 3314 3078 
Q 3713 2572 3713 1747 
Q 3713 922 3314 415 
Q 2916 -91 2278 -91 
Q 1894 -91 1617 61 
Q 1341 213 1159 525 
L 1159 0 
L 581 0 
L 581 4863 
L 1159 4863 
L 1159 2969 
z
" transform="scale(0.015625)"/>
       <path id="DejaVuSans-61" d="M 2194 1759 
Q 1497 1759 1228 1600 
Q 959 1441 959 1056 
Q 959 750 1161 570 
Q 1363 391 1709 391 
Q 2188 391 2477 730 
Q 2766 1069 2766 1631 
L 2766 1759 
L 2194 1759 
z
M 3341 1997 
L 3341 0 
L 2766 0 
L 2766 531 
Q 2569 213 2275 61 
Q 1981 -91 1556 -91 
Q 1019 -91 701 211 
Q 384 513 384 1019 
Q 384 1609 779 1909 
Q 1175 2209 1959 2209 
L 2766 2209 
L 2766 2266 
Q 2766 2663 2505 2880 
Q 2244 3097 1772 3097 
Q 1472 3097 1187 3025 
Q 903 2953 641 2809 
L 641 3341 
Q 956 3463 1253 3523 
Q 1550 3584 1831 3584 
Q 2591 3584 2966 3190 
Q 3341 2797 3341 1997 
z
" transform="scale(0.015625)"/>
       <path id="DejaVuSans-6e" d="M 3513 2113 
L 3513 0 
L 2938 0 
L 2938 2094 
Q 2938 2591 2744 2837 
Q 2550 3084 2163 3084 
Q 1697 3084 1428 2787 
Q 1159 2491 1159 1978 
L 1159 0 
L 581 0 
L 581 3500 
L 1159 3500 
L 1159 2956 
Q 1366 3272 1645 3428 
Q 1925 3584 2291 3584 
Q 2894 3584 3203 3211 
Q 3513 2838 3513 2113 
z
" transform="scale(0.015625)"/>
       <path id="DejaVuSans-64" d="M 2906 2969 
L 2906 4863 
L 3481 4863 
L 3481 0 
L 2906 0 
L 2906 525 
Q 2725 213 2448 61 
Q 2172 -91 1784 -91 
Q 1150 -91 751 415 
Q 353 922 353 1747 
Q 353 2572 751 3078 
Q 1150 3584 1784 3584 
Q 2172 3584 2448 3432 
Q 2725 3281 2906 2969 
z
M 947 1747 
Q 947 1113 1208 752 
Q 1469 391 1925 391 
Q 2381 391 2643 752 
Q 2906 1113 2906 1747 
Q 2906 2381 2643 2742 
Q 2381 3103 1925 3103 
Q 1469 3103 1208 2742 
Q 947 2381 947 1747 
z
" transform="scale(0.015625)"/>
       <path id="DejaVuSans-77" d="M 269 3500 
L 844 3500 
L 1563 769 
L 2278 3500 
L 2956 3500 
L 3675 769 
L 4391 3500 
L 4966 3500 
L 4050 0 
L 3372 0 
L 2619 2869 
L 1863 0 
L 1184 0 
L 269 3500 
z
" transform="scale(0.015625)"/>
       <path id="DejaVuSans-69" d="M 603 3500 
L 1178 3500 
L 1178 0 
L 603 0 
L 603 3500 
z
M 603 4863 
L 1178 4863 
L 1178 4134 
L 603 4134 
L 603 4863 
z
" transform="scale(0.015625)"/>
       <path id="DejaVuSans-74" d="M 1172 4494 
L 1172 3500 
L 2356 3500 
L 2356 3053 
L 1172 3053 
L 1172 1153 
Q 1172 725 1289 603 
Q 1406 481 1766 481 
L 2356 481 
L 2356 0 
L 1766 0 
Q 1100 0 847 248 
Q 594 497 594 1153 
L 594 3053 
L 172 3053 
L 172 3500 
L 594 3500 
L 594 4494 
L 1172 4494 
z
" transform="scale(0.015625)"/>
       <path id="DejaVuSans-68" d="M 3513 2113 
L 3513 0 
L 2938 0 
L 2938 2094 
Q 2938 2591 2744 2837 
Q 2550 3084 2163 3084 
Q 1697 3084 1428 2787 
Q 1159 2491 1159 1978 
L 1159 0 
L 581 0 
L 581 4863 
L 1159 4863 
L 1159 2956 
Q 1366 3272 1645 3428 
Q 1925 3584 2291 3584 
Q 2894 3584 3203 3211 
Q 3513 2838 3513 2113 
z
" transform="scale(0.015625)"/>
      </defs>
      <use xlink:href="#DejaVuSans-62"/>
      <use xlink:href="#DejaVuSans-61" transform="translate(63.476562 0)"/>
      <use xlink:href="#DejaVuSans-6e" transform="translate(124.755859 0)"/>
      <use xlink:href="#DejaVuSans-64" transform="translate(188.134766 0)"/>
      <use xlink:href="#DejaVuSans-77" transform="translate(251.611328 0)"/>
      <use xlink:href="#DejaVuSans-69" transform="translate(333.398438 0)"/>
      <use xlink:href="#DejaVuSans-64" transform="translate(361.181641 0)"/>
      <use xlink:href="#DejaVuSans-74" transform="translate(424.658203 0)"/>
      <use xlink:href="#DejaVuSans-68" transform="translate(463.867188 0)"/>
     </g>
    </g>
   </g>
   <g id="matplotlib.axis_2">
    <g id="ytick_1">
     <g id="line2d_15">
      <defs>
       <path id="mbd2f377c6c" d="M 0 0 
L -3.5 0 
" style="stroke: #000000; stroke-width: 0.8"/>
      </defs>
      <g>
       <use xlink:href="#mbd2f377c6c" x="43.78125" y="316.44327" style="stroke: #000000; stroke-width: 0.8"/>
      </g>
     </g>
     <g id="text_4">
      <!-- 1.0 -->
      <g transform="translate(20.878125 320.242489) scale(0.1 -0.1)">
       <defs>
        <path id="DejaVuSans-2e" d="M 684 794 
L 1344 794 
L 1344 0 
L 684 0 
L 684 794 
z
" transform="scale(0.015625)"/>
       </defs>
       <use xlink:href="#DejaVuSans-31"/>
       <use xlink:href="#DejaVuSans-2e" transform="translate(63.623047 0)"/>
       <use xlink:href="#DejaVuSans-30" transform="translate(95.410156 0)"/>
      </g>
     </g>
    </g>
    <g id="ytick_2">
     <g id="line2d_16">
      <g>
       <use xlink:href="#mbd2f377c6c" x="43.78125" y="267.422412" style="stroke: #000000; stroke-width: 0.8"/>
      </g>
     </g>
     <g id="text_5">
      <!-- 1.5 -->
      <g transform="translate(20.878125 271.221631) scale(0.1 -0.1)">
       <defs>
        <path id="DejaVuSans-35" d="M 691 4666 
L 3169 4666 
L 3169 4134 
L 1269 4134 
L 1269 2991 
Q 1406 3038 1543 3061 
Q 1681 3084 1819 3084 
Q 2600 3084 3056 2656 
Q 3513 2228 3513 1497 
Q 3513 744 3044 326 
Q 2575 -91 1722 -91 
Q 1428 -91 1123 -41 
Q 819 9 494 109 
L 494 744 
Q 775 591 1075 516 
Q 1375 441 1709 441 
Q 2250 441 2565 725 
Q 2881 1009 2881 1497 
Q 2881 1984 2565 2268 
Q 2250 2553 1709 2553 
Q 1456 2553 1204 2497 
Q 953 2441 691 2322 
L 691 4666 
z
" transform="scale(0.015625)"/>
       </defs>
       <use xlink:href="#DejaVuSans-31"/>
       <use xlink:href="#DejaVuSans-2e" transform="translate(63.623047 0)"/>
       <use xlink:href="#DejaVuSans-35" transform="translate(95.410156 0)"/>
      </g>
     </g>
    </g>
    <g id="ytick_3">
     <g id="line2d_17">
      <g>
       <use xlink:href="#mbd2f377c6c" x="43.78125" y="218.401555" style="stroke: #000000; stroke-width: 0.8"/>
      </g>
     </g>
     <g id="text_6">
      <!-- 2.0 -->
      <g transform="translate(20.878125 222.200774) scale(0.1 -0.1)">
       <use xlink:href="#DejaVuSans-32"/>
       <use xlink:href="#DejaVuSans-2e" transform="translate(63.623047 0)"/>
       <use xlink:href="#DejaVuSans-30" transform="translate(95.410156 0)"/>
      </g>
     </g>
    </g>
    <g id="ytick_4">
     <g id="line2d_18">
      <g>
       <use xlink:href="#mbd2f377c6c" x="43.78125" y="169.380697" style="stroke: #000000; stroke-width: 0.8"/>
      </g>
     </g>
     <g id="text_7">
      <!-- 2.5 -->
      <g transform="translate(20.878125 173.179916) scale(0.1 -0.1)">
       <use xlink:href="#DejaVuSans-32"/>
       <use xlink:href="#DejaVuSans-2e" transform="translate(63.623047 0)"/>
       <use xlink:href="#DejaVuSans-35" transform="translate(95.410156 0)"/>
      </g>
     </g>
    </g>
    <g id="ytick_5">
     <g id="line2d_19">
      <g>
       <use xlink:href="#mbd2f377c6c" x="43.78125" y="120.35984" style="stroke: #000000; stroke-width: 0.8"/>
      </g>
     </g>
     <g id="text_8">
      <!-- 3.0 -->
      <g transform="translate(20.878125 124.159059) scale(0.1 -0.1)">
       <defs>
        <path id="DejaVuSans-33" d="M 2597 2516 
Q 3050 2419 3304 2112 
Q 3559 1806 3559 1356 
Q 3559 666 3084 287 
Q 2609 -91 1734 -91 
Q 1441 -91 1130 -33 
Q 819 25 488 141 
L 488 750 
Q 750 597 1062 519 
Q 1375 441 1716 441 
Q 2309 441 2620 675 
Q 2931 909 2931 1356 
Q 2931 1769 2642 2001 
Q 2353 2234 1838 2234 
L 1294 2234 
L 1294 2753 
L 1863 2753 
Q 2328 2753 2575 2939 
Q 2822 3125 2822 3475 
Q 2822 3834 2567 4026 
Q 2313 4219 1838 4219 
Q 1578 4219 1281 4162 
Q 984 4106 628 3988 
L 628 4550 
Q 988 4650 1302 4700 
Q 1616 4750 1894 4750 
Q 2613 4750 3031 4423 
Q 3450 4097 3450 3541 
Q 3450 3153 3228 2886 
Q 3006 2619 2597 2516 
z
" transform="scale(0.015625)"/>
       </defs>
       <use xlink:href="#DejaVuSans-33"/>
       <use xlink:href="#DejaVuSans-2e" transform="translate(63.623047 0)"/>
       <use xlink:href="#DejaVuSans-30" transform="translate(95.410156 0)"/>
      </g>
     </g>
    </g>
    <g id="ytick_6">
     <g id="line2d_20">
      <g>
       <use xlink:href="#mbd2f377c6c" x="43.78125" y="71.338982" style="stroke: #000000; stroke-width: 0.8"/>
      </g>
     </g>
     <g id="text_9">
      <!-- 3.5 -->
      <g transform="translate(20.878125 75.138201) scale(0.1 -0.1)">
       <use xlink:href="#DejaVuSans-33"/>
       <use xlink:href="#DejaVuSans-2e" transform="translate(63.623047 0)"/>
       <use xlink:href="#DejaVuSans-35" transform="translate(95.410156 0)"/>
      </g>
     </g>
    </g>
    <g id="ytick_7">
     <g id="line2d_21">
      <g>
       <use xlink:href="#mbd2f377c6c" x="43.78125" y="22.318125" style="stroke: #000000; stroke-width: 0.8"/>
      </g>
     </g>
     <g id="text_10">
      <!-- 4.0 -->
      <g transform="translate(20.878125 26.117344) scale(0.1 -0.1)">
       <defs>
        <path id="DejaVuSans-34" d="M 2419 4116 
L 825 1625 
L 2419 1625 
L 2419 4116 
z
M 2253 4666 
L 3047 4666 
L 3047 1625 
L 3713 1625 
L 3713 1100 
L 3047 1100 
L 3047 0 
L 2419 0 
L 2419 1100 
L 313 1100 
L 313 1709 
L 2253 4666 
z
" transform="scale(0.015625)"/>
       </defs>
       <use xlink:href="#DejaVuSans-34"/>
       <use xlink:href="#DejaVuSans-2e" transform="translate(63.623047 0)"/>
       <use xlink:href="#DejaVuSans-30" transform="translate(95.410156 0)"/>
      </g>
     </g>
    </g>
    <g id="text_11">
     <!-- alpha -->
     <g transform="translate(14.798438 183.240854) rotate(-90) scale(0.1 -0.1)">
      <defs>
       <path id="DejaVuSans-6c" d="M 603 4863 
L 1178 4863 
L 1178 0 
L 603 0 
L 603 4863 
z
" transform="scale(0.015625)"/>
       <path id="DejaVuSans-70" d="M 1159 525 
L 1159 -1331 
L 581 -1331 
L 581 3500 
L 1159 3500 
L 1159 2969 
Q 1341 3281 1617 3432 
Q 1894 3584 2278 3584 
Q 2916 3584 3314 3078 
Q 3713 2572 3713 1747 
Q 3713 922 3314 415 
Q 2916 -91 2278 -91 
Q 1894 -91 1617 61 
Q 1341 213 1159 525 
z
M 3116 1747 
Q 3116 2381 2855 2742 
Q 2594 3103 2138 3103 
Q 1681 3103 1420 2742 
Q 1159 2381 1159 1747 
Q 1159 1113 1420 752 
Q 1681 391 2138 391 
Q 2594 391 2855 752 
Q 3116 1113 3116 1747 
z
" transform="scale(0.015625)"/>
      </defs>
      <use xlink:href="#DejaVuSans-61"/>
      <use xlink:href="#DejaVuSans-6c" transform="translate(61.279297 0)"/>
      <use xlink:href="#DejaVuSans-70" transform="translate(89.0625 0)"/>
      <use xlink:href="#DejaVuSans-68" transform="translate(152.539062 0)"/>
      <use xlink:href="#DejaVuSans-61" transform="translate(215.917969 0)"/>
     </g>
    </g>
   </g>
   <g id="patch_3">
    <path d="M 43.78125 316.44327 
L 43.78125 22.318125 
" style="fill: none; stroke: #000000; stroke-width: 0.8; stroke-linejoin: miter; stroke-linecap: square"/>
   </g>
   <g id="patch_4">
    <path d="M 382.823645 316.44327 
L 382.823645 22.318125 
" style="fill: none; stroke: #000000; stroke-width: 0.8; stroke-linejoin: miter; stroke-linecap: square"/>
   </g>
   <g id="patch_5">
    <path d="M 43.78125 316.44327 
L 382.823645 316.44327 
" style="fill: none; stroke: #000000; stroke-width: 0.8; stroke-linejoin: miter; stroke-linecap: square"/>
   </g>
   <g id="patch_6">
    <path d="M 43.78125 22.318125 
L 382.823645 22.318125 
" style="fill: none; stroke: #000000; stroke-width: 0.8; stroke-linejoin: miter; stroke-linecap: square"/>
   </g>
   <g id="text_12">
    <!-- espirales_lo 8527 fkdc -->
    <g transform="translate(146.264635 16.318125) scale(0.12 -0.12)">
     <defs>
      <path id="DejaVuSans-65" d="M 3597 1894 
L 3597 1613 
L 953 1613 
Q 991 1019 1311 708 
Q 1631 397 2203 397 
Q 2534 397 2845 478 
Q 3156 559 3463 722 
L 3463 178 
Q 3153 47 2828 -22 
Q 2503 -91 2169 -91 
Q 1331 -91 842 396 
Q 353 884 353 1716 
Q 353 2575 817 3079 
Q 1281 3584 2069 3584 
Q 2775 3584 3186 3129 
Q 3597 2675 3597 1894 
z
M 3022 2063 
Q 3016 2534 2758 2815 
Q 2500 3097 2075 3097 
Q 1594 3097 1305 2825 
Q 1016 2553 972 2059 
L 3022 2063 
z
" transform="scale(0.015625)"/>
      <path id="DejaVuSans-73" d="M 2834 3397 
L 2834 2853 
Q 2591 2978 2328 3040 
Q 2066 3103 1784 3103 
Q 1356 3103 1142 2972 
Q 928 2841 928 2578 
Q 928 2378 1081 2264 
Q 1234 2150 1697 2047 
L 1894 2003 
Q 2506 1872 2764 1633 
Q 3022 1394 3022 966 
Q 3022 478 2636 193 
Q 2250 -91 1575 -91 
Q 1294 -91 989 -36 
Q 684 19 347 128 
L 347 722 
Q 666 556 975 473 
Q 1284 391 1588 391 
Q 1994 391 2212 530 
Q 2431 669 2431 922 
Q 2431 1156 2273 1281 
Q 2116 1406 1581 1522 
L 1381 1569 
Q 847 1681 609 1914 
Q 372 2147 372 2553 
Q 372 3047 722 3315 
Q 1072 3584 1716 3584 
Q 2034 3584 2315 3537 
Q 2597 3491 2834 3397 
z
" transform="scale(0.015625)"/>
      <path id="DejaVuSans-72" d="M 2631 2963 
Q 2534 3019 2420 3045 
Q 2306 3072 2169 3072 
Q 1681 3072 1420 2755 
Q 1159 2438 1159 1844 
L 1159 0 
L 581 0 
L 581 3500 
L 1159 3500 
L 1159 2956 
Q 1341 3275 1631 3429 
Q 1922 3584 2338 3584 
Q 2397 3584 2469 3576 
Q 2541 3569 2628 3553 
L 2631 2963 
z
" transform="scale(0.015625)"/>
      <path id="DejaVuSans-5f" d="M 3263 -1063 
L 3263 -1509 
L -63 -1509 
L -63 -1063 
L 3263 -1063 
z
" transform="scale(0.015625)"/>
      <path id="DejaVuSans-6f" d="M 1959 3097 
Q 1497 3097 1228 2736 
Q 959 2375 959 1747 
Q 959 1119 1226 758 
Q 1494 397 1959 397 
Q 2419 397 2687 759 
Q 2956 1122 2956 1747 
Q 2956 2369 2687 2733 
Q 2419 3097 1959 3097 
z
M 1959 3584 
Q 2709 3584 3137 3096 
Q 3566 2609 3566 1747 
Q 3566 888 3137 398 
Q 2709 -91 1959 -91 
Q 1206 -91 779 398 
Q 353 888 353 1747 
Q 353 2609 779 3096 
Q 1206 3584 1959 3584 
z
" transform="scale(0.015625)"/>
      <path id="DejaVuSans-20" transform="scale(0.015625)"/>
      <path id="DejaVuSans-38" d="M 2034 2216 
Q 1584 2216 1326 1975 
Q 1069 1734 1069 1313 
Q 1069 891 1326 650 
Q 1584 409 2034 409 
Q 2484 409 2743 651 
Q 3003 894 3003 1313 
Q 3003 1734 2745 1975 
Q 2488 2216 2034 2216 
z
M 1403 2484 
Q 997 2584 770 2862 
Q 544 3141 544 3541 
Q 544 4100 942 4425 
Q 1341 4750 2034 4750 
Q 2731 4750 3128 4425 
Q 3525 4100 3525 3541 
Q 3525 3141 3298 2862 
Q 3072 2584 2669 2484 
Q 3125 2378 3379 2068 
Q 3634 1759 3634 1313 
Q 3634 634 3220 271 
Q 2806 -91 2034 -91 
Q 1263 -91 848 271 
Q 434 634 434 1313 
Q 434 1759 690 2068 
Q 947 2378 1403 2484 
z
M 1172 3481 
Q 1172 3119 1398 2916 
Q 1625 2713 2034 2713 
Q 2441 2713 2670 2916 
Q 2900 3119 2900 3481 
Q 2900 3844 2670 4047 
Q 2441 4250 2034 4250 
Q 1625 4250 1398 4047 
Q 1172 3844 1172 3481 
z
" transform="scale(0.015625)"/>
      <path id="DejaVuSans-37" d="M 525 4666 
L 3525 4666 
L 3525 4397 
L 1831 0 
L 1172 0 
L 2766 4134 
L 525 4134 
L 525 4666 
z
" transform="scale(0.015625)"/>
      <path id="DejaVuSans-66" d="M 2375 4863 
L 2375 4384 
L 1825 4384 
Q 1516 4384 1395 4259 
Q 1275 4134 1275 3809 
L 1275 3500 
L 2222 3500 
L 2222 3053 
L 1275 3053 
L 1275 0 
L 697 0 
L 697 3053 
L 147 3053 
L 147 3500 
L 697 3500 
L 697 3744 
Q 697 4328 969 4595 
Q 1241 4863 1831 4863 
L 2375 4863 
z
" transform="scale(0.015625)"/>
      <path id="DejaVuSans-6b" d="M 581 4863 
L 1159 4863 
L 1159 1991 
L 2875 3500 
L 3609 3500 
L 1753 1863 
L 3688 0 
L 2938 0 
L 1159 1709 
L 1159 0 
L 581 0 
L 581 4863 
z
" transform="scale(0.015625)"/>
      <path id="DejaVuSans-63" d="M 3122 3366 
L 3122 2828 
Q 2878 2963 2633 3030 
Q 2388 3097 2138 3097 
Q 1578 3097 1268 2742 
Q 959 2388 959 1747 
Q 959 1106 1268 751 
Q 1578 397 2138 397 
Q 2388 397 2633 464 
Q 2878 531 3122 666 
L 3122 134 
Q 2881 22 2623 -34 
Q 2366 -91 2075 -91 
Q 1284 -91 818 406 
Q 353 903 353 1747 
Q 353 2603 823 3093 
Q 1294 3584 2113 3584 
Q 2378 3584 2631 3529 
Q 2884 3475 3122 3366 
z
" transform="scale(0.015625)"/>
     </defs>
     <use xlink:href="#DejaVuSans-65"/>
     <use xlink:href="#DejaVuSans-73" transform="translate(61.523438 0)"/>
     <use xlink:href="#DejaVuSans-70" transform="translate(113.623047 0)"/>
     <use xlink:href="#DejaVuSans-69" transform="translate(177.099609 0)"/>
     <use xlink:href="#DejaVuSans-72" transform="translate(204.882812 0)"/>
     <use xlink:href="#DejaVuSans-61" transform="translate(245.996094 0)"/>
     <use xlink:href="#DejaVuSans-6c" transform="translate(307.275391 0)"/>
     <use xlink:href="#DejaVuSans-65" transform="translate(335.058594 0)"/>
     <use xlink:href="#DejaVuSans-73" transform="translate(396.582031 0)"/>
     <use xlink:href="#DejaVuSans-5f" transform="translate(448.681641 0)"/>
     <use xlink:href="#DejaVuSans-6c" transform="translate(498.681641 0)"/>
     <use xlink:href="#DejaVuSans-6f" transform="translate(526.464844 0)"/>
     <use xlink:href="#DejaVuSans-20" transform="translate(587.646484 0)"/>
     <use xlink:href="#DejaVuSans-38" transform="translate(619.433594 0)"/>
     <use xlink:href="#DejaVuSans-35" transform="translate(683.056641 0)"/>
     <use xlink:href="#DejaVuSans-32" transform="translate(746.679688 0)"/>
     <use xlink:href="#DejaVuSans-37" transform="translate(810.302734 0)"/>
     <use xlink:href="#DejaVuSans-20" transform="translate(873.925781 0)"/>
     <use xlink:href="#DejaVuSans-66" transform="translate(905.712891 0)"/>
     <use xlink:href="#DejaVuSans-6b" transform="translate(940.917969 0)"/>
     <use xlink:href="#DejaVuSans-64" transform="translate(998.828125 0)"/>
     <use xlink:href="#DejaVuSans-63" transform="translate(1062.304688 0)"/>
    </g>
   </g>
  </g>
  <g id="axes_2">
   <g id="patch_7">
    <path d="M 399.775765 316.44327 
L 414.482022 316.44327 
L 414.482022 22.318125 
L 399.775765 22.318125 
z
" style="fill: #ffffff"/>
   </g>
   <g id="QuadMesh_1">
    <path d="M 399.775765 316.44327 
L 414.482022 316.44327 
L 414.482022 298.060448 
L 399.775765 298.060448 
L 399.775765 316.44327 
" clip-path="url(#pc0ec673121)" style="fill: #470d60"/>
    <path d="M 399.775765 298.060448 
L 414.482022 298.060448 
L 414.482022 279.677627 
L 399.775765 279.677627 
L 399.775765 298.060448 
" clip-path="url(#pc0ec673121)" style="fill: #482374"/>
    <path d="M 399.775765 279.677627 
L 414.482022 279.677627 
L 414.482022 261.294805 
L 399.775765 261.294805 
L 399.775765 279.677627 
" clip-path="url(#pc0ec673121)" style="fill: #453581"/>
    <path d="M 399.775765 261.294805 
L 414.482022 261.294805 
L 414.482022 242.911984 
L 399.775765 242.911984 
L 399.775765 261.294805 
" clip-path="url(#pc0ec673121)" style="fill: #3f4889"/>
    <path d="M 399.775765 242.911984 
L 414.482022 242.911984 
L 414.482022 224.529162 
L 399.775765 224.529162 
L 399.775765 242.911984 
" clip-path="url(#pc0ec673121)" style="fill: #375b8d"/>
    <path d="M 399.775765 224.529162 
L 414.482022 224.529162 
L 414.482022 206.146341 
L 399.775765 206.146341 
L 399.775765 224.529162 
" clip-path="url(#pc0ec673121)" style="fill: #2f6b8e"/>
    <path d="M 399.775765 206.146341 
L 414.482022 206.146341 
L 414.482022 187.763519 
L 399.775765 187.763519 
L 399.775765 206.146341 
" clip-path="url(#pc0ec673121)" style="fill: #29798e"/>
    <path d="M 399.775765 187.763519 
L 414.482022 187.763519 
L 414.482022 169.380697 
L 399.775765 169.380697 
L 399.775765 187.763519 
" clip-path="url(#pc0ec673121)" style="fill: #23888e"/>
    <path d="M 399.775765 169.380697 
L 414.482022 169.380697 
L 414.482022 150.997876 
L 399.775765 150.997876 
L 399.775765 169.380697 
" clip-path="url(#pc0ec673121)" style="fill: #1f988b"/>
    <path d="M 399.775765 150.997876 
L 414.482022 150.997876 
L 414.482022 132.615054 
L 399.775765 132.615054 
L 399.775765 150.997876 
" clip-path="url(#pc0ec673121)" style="fill: #22a785"/>
    <path d="M 399.775765 132.615054 
L 414.482022 132.615054 
L 414.482022 114.232233 
L 399.775765 114.232233 
L 399.775765 132.615054 
" clip-path="url(#pc0ec673121)" style="fill: #31b57b"/>
    <path d="M 399.775765 114.232233 
L 414.482022 114.232233 
L 414.482022 95.849411 
L 399.775765 95.849411 
L 399.775765 114.232233 
" clip-path="url(#pc0ec673121)" style="fill: #4ec36b"/>
    <path d="M 399.775765 95.849411 
L 414.482022 95.849411 
L 414.482022 77.46659 
L 399.775765 77.46659 
L 399.775765 95.849411 
" clip-path="url(#pc0ec673121)" style="fill: #70cf57"/>
    <path d="M 399.775765 77.46659 
L 414.482022 77.46659 
L 414.482022 59.083768 
L 399.775765 59.083768 
L 399.775765 77.46659 
" clip-path="url(#pc0ec673121)" style="fill: #98d83e"/>
    <path d="M 399.775765 59.083768 
L 414.482022 59.083768 
L 414.482022 40.700947 
L 399.775765 40.700947 
L 399.775765 59.083768 
" clip-path="url(#pc0ec673121)" style="fill: #c0df25"/>
    <path d="M 399.775765 40.700947 
L 414.482022 40.700947 
L 414.482022 22.318125 
L 399.775765 22.318125 
L 399.775765 40.700947 
" clip-path="url(#pc0ec673121)" style="fill: #ece51b"/>
   </g>
   <g id="matplotlib.axis_3"/>
   <g id="matplotlib.axis_4">
    <g id="ytick_8">
     <g id="line2d_22">
      <defs>
       <path id="m0a27ea52cb" d="M 0 0 
L 3.5 0 
" style="stroke: #000000; stroke-width: 0.8"/>
      </defs>
      <g>
       <use xlink:href="#m0a27ea52cb" x="414.482022" y="316.44327" style="stroke: #000000; stroke-width: 0.8"/>
      </g>
     </g>
     <g id="text_13">
      <!-- -1.02 -->
      <g transform="translate(421.482022 320.242489) scale(0.1 -0.1)">
       <defs>
        <path id="DejaVuSans-2d" d="M 313 2009 
L 1997 2009 
L 1997 1497 
L 313 1497 
L 313 2009 
z
" transform="scale(0.015625)"/>
       </defs>
       <use xlink:href="#DejaVuSans-2d"/>
       <use xlink:href="#DejaVuSans-31" transform="translate(36.083984 0)"/>
       <use xlink:href="#DejaVuSans-2e" transform="translate(99.707031 0)"/>
       <use xlink:href="#DejaVuSans-30" transform="translate(131.494141 0)"/>
       <use xlink:href="#DejaVuSans-32" transform="translate(195.117188 0)"/>
      </g>
     </g>
    </g>
    <g id="ytick_9">
     <g id="line2d_23">
      <g>
       <use xlink:href="#m0a27ea52cb" x="414.482022" y="279.677627" style="stroke: #000000; stroke-width: 0.8"/>
      </g>
     </g>
     <g id="text_14">
      <!-- -0.90 -->
      <g transform="translate(421.482022 283.476846) scale(0.1 -0.1)">
       <defs>
        <path id="DejaVuSans-39" d="M 703 97 
L 703 672 
Q 941 559 1184 500 
Q 1428 441 1663 441 
Q 2288 441 2617 861 
Q 2947 1281 2994 2138 
Q 2813 1869 2534 1725 
Q 2256 1581 1919 1581 
Q 1219 1581 811 2004 
Q 403 2428 403 3163 
Q 403 3881 828 4315 
Q 1253 4750 1959 4750 
Q 2769 4750 3195 4129 
Q 3622 3509 3622 2328 
Q 3622 1225 3098 567 
Q 2575 -91 1691 -91 
Q 1453 -91 1209 -44 
Q 966 3 703 97 
z
M 1959 2075 
Q 2384 2075 2632 2365 
Q 2881 2656 2881 3163 
Q 2881 3666 2632 3958 
Q 2384 4250 1959 4250 
Q 1534 4250 1286 3958 
Q 1038 3666 1038 3163 
Q 1038 2656 1286 2365 
Q 1534 2075 1959 2075 
z
" transform="scale(0.015625)"/>
       </defs>
       <use xlink:href="#DejaVuSans-2d"/>
       <use xlink:href="#DejaVuSans-30" transform="translate(36.083984 0)"/>
       <use xlink:href="#DejaVuSans-2e" transform="translate(99.707031 0)"/>
       <use xlink:href="#DejaVuSans-39" transform="translate(131.494141 0)"/>
       <use xlink:href="#DejaVuSans-30" transform="translate(195.117188 0)"/>
      </g>
     </g>
    </g>
    <g id="ytick_10">
     <g id="line2d_24">
      <g>
       <use xlink:href="#m0a27ea52cb" x="414.482022" y="242.911984" style="stroke: #000000; stroke-width: 0.8"/>
      </g>
     </g>
     <g id="text_15">
      <!-- -0.78 -->
      <g transform="translate(421.482022 246.711202) scale(0.1 -0.1)">
       <use xlink:href="#DejaVuSans-2d"/>
       <use xlink:href="#DejaVuSans-30" transform="translate(36.083984 0)"/>
       <use xlink:href="#DejaVuSans-2e" transform="translate(99.707031 0)"/>
       <use xlink:href="#DejaVuSans-37" transform="translate(131.494141 0)"/>
       <use xlink:href="#DejaVuSans-38" transform="translate(195.117188 0)"/>
      </g>
     </g>
    </g>
    <g id="ytick_11">
     <g id="line2d_25">
      <g>
       <use xlink:href="#m0a27ea52cb" x="414.482022" y="206.146341" style="stroke: #000000; stroke-width: 0.8"/>
      </g>
     </g>
     <g id="text_16">
      <!-- -0.66 -->
      <g transform="translate(421.482022 209.945559) scale(0.1 -0.1)">
       <defs>
        <path id="DejaVuSans-36" d="M 2113 2584 
Q 1688 2584 1439 2293 
Q 1191 2003 1191 1497 
Q 1191 994 1439 701 
Q 1688 409 2113 409 
Q 2538 409 2786 701 
Q 3034 994 3034 1497 
Q 3034 2003 2786 2293 
Q 2538 2584 2113 2584 
z
M 3366 4563 
L 3366 3988 
Q 3128 4100 2886 4159 
Q 2644 4219 2406 4219 
Q 1781 4219 1451 3797 
Q 1122 3375 1075 2522 
Q 1259 2794 1537 2939 
Q 1816 3084 2150 3084 
Q 2853 3084 3261 2657 
Q 3669 2231 3669 1497 
Q 3669 778 3244 343 
Q 2819 -91 2113 -91 
Q 1303 -91 875 529 
Q 447 1150 447 2328 
Q 447 3434 972 4092 
Q 1497 4750 2381 4750 
Q 2619 4750 2861 4703 
Q 3103 4656 3366 4563 
z
" transform="scale(0.015625)"/>
       </defs>
       <use xlink:href="#DejaVuSans-2d"/>
       <use xlink:href="#DejaVuSans-30" transform="translate(36.083984 0)"/>
       <use xlink:href="#DejaVuSans-2e" transform="translate(99.707031 0)"/>
       <use xlink:href="#DejaVuSans-36" transform="translate(131.494141 0)"/>
       <use xlink:href="#DejaVuSans-36" transform="translate(195.117188 0)"/>
      </g>
     </g>
    </g>
    <g id="ytick_12">
     <g id="line2d_26">
      <g>
       <use xlink:href="#m0a27ea52cb" x="414.482022" y="169.380697" style="stroke: #000000; stroke-width: 0.8"/>
      </g>
     </g>
     <g id="text_17">
      <!-- -0.54 -->
      <g transform="translate(421.482022 173.179916) scale(0.1 -0.1)">
       <use xlink:href="#DejaVuSans-2d"/>
       <use xlink:href="#DejaVuSans-30" transform="translate(36.083984 0)"/>
       <use xlink:href="#DejaVuSans-2e" transform="translate(99.707031 0)"/>
       <use xlink:href="#DejaVuSans-35" transform="translate(131.494141 0)"/>
       <use xlink:href="#DejaVuSans-34" transform="translate(195.117188 0)"/>
      </g>
     </g>
    </g>
    <g id="ytick_13">
     <g id="line2d_27">
      <g>
       <use xlink:href="#m0a27ea52cb" x="414.482022" y="132.615054" style="stroke: #000000; stroke-width: 0.8"/>
      </g>
     </g>
     <g id="text_18">
      <!-- -0.42 -->
      <g transform="translate(421.482022 136.414273) scale(0.1 -0.1)">
       <use xlink:href="#DejaVuSans-2d"/>
       <use xlink:href="#DejaVuSans-30" transform="translate(36.083984 0)"/>
       <use xlink:href="#DejaVuSans-2e" transform="translate(99.707031 0)"/>
       <use xlink:href="#DejaVuSans-34" transform="translate(131.494141 0)"/>
       <use xlink:href="#DejaVuSans-32" transform="translate(195.117188 0)"/>
      </g>
     </g>
    </g>
    <g id="ytick_14">
     <g id="line2d_28">
      <g>
       <use xlink:href="#m0a27ea52cb" x="414.482022" y="95.849411" style="stroke: #000000; stroke-width: 0.8"/>
      </g>
     </g>
     <g id="text_19">
      <!-- -0.30 -->
      <g transform="translate(421.482022 99.64863) scale(0.1 -0.1)">
       <use xlink:href="#DejaVuSans-2d"/>
       <use xlink:href="#DejaVuSans-30" transform="translate(36.083984 0)"/>
       <use xlink:href="#DejaVuSans-2e" transform="translate(99.707031 0)"/>
       <use xlink:href="#DejaVuSans-33" transform="translate(131.494141 0)"/>
       <use xlink:href="#DejaVuSans-30" transform="translate(195.117188 0)"/>
      </g>
     </g>
    </g>
    <g id="ytick_15">
     <g id="line2d_29">
      <g>
       <use xlink:href="#m0a27ea52cb" x="414.482022" y="59.083768" style="stroke: #000000; stroke-width: 0.8"/>
      </g>
     </g>
     <g id="text_20">
      <!-- -0.18 -->
      <g transform="translate(421.482022 62.882987) scale(0.1 -0.1)">
       <use xlink:href="#DejaVuSans-2d"/>
       <use xlink:href="#DejaVuSans-30" transform="translate(36.083984 0)"/>
       <use xlink:href="#DejaVuSans-2e" transform="translate(99.707031 0)"/>
       <use xlink:href="#DejaVuSans-31" transform="translate(131.494141 0)"/>
       <use xlink:href="#DejaVuSans-38" transform="translate(195.117188 0)"/>
      </g>
     </g>
    </g>
    <g id="ytick_16">
     <g id="line2d_30">
      <g>
       <use xlink:href="#m0a27ea52cb" x="414.482022" y="22.318125" style="stroke: #000000; stroke-width: 0.8"/>
      </g>
     </g>
     <g id="text_21">
      <!-- -0.06 -->
      <g transform="translate(421.482022 26.117344) scale(0.1 -0.1)">
       <use xlink:href="#DejaVuSans-2d"/>
       <use xlink:href="#DejaVuSans-30" transform="translate(36.083984 0)"/>
       <use xlink:href="#DejaVuSans-2e" transform="translate(99.707031 0)"/>
       <use xlink:href="#DejaVuSans-30" transform="translate(131.494141 0)"/>
       <use xlink:href="#DejaVuSans-36" transform="translate(195.117188 0)"/>
      </g>
     </g>
    </g>
    <g id="text_22">
     <!-- Score -->
     <g transform="translate(458.953897 183.383041) rotate(-90) scale(0.1 -0.1)">
      <defs>
       <path id="DejaVuSans-53" d="M 3425 4513 
L 3425 3897 
Q 3066 4069 2747 4153 
Q 2428 4238 2131 4238 
Q 1616 4238 1336 4038 
Q 1056 3838 1056 3469 
Q 1056 3159 1242 3001 
Q 1428 2844 1947 2747 
L 2328 2669 
Q 3034 2534 3370 2195 
Q 3706 1856 3706 1288 
Q 3706 609 3251 259 
Q 2797 -91 1919 -91 
Q 1588 -91 1214 -16 
Q 841 59 441 206 
L 441 856 
Q 825 641 1194 531 
Q 1563 422 1919 422 
Q 2459 422 2753 634 
Q 3047 847 3047 1241 
Q 3047 1584 2836 1778 
Q 2625 1972 2144 2069 
L 1759 2144 
Q 1053 2284 737 2584 
Q 422 2884 422 3419 
Q 422 4038 858 4394 
Q 1294 4750 2059 4750 
Q 2388 4750 2728 4690 
Q 3069 4631 3425 4513 
z
" transform="scale(0.015625)"/>
      </defs>
      <use xlink:href="#DejaVuSans-53"/>
      <use xlink:href="#DejaVuSans-63" transform="translate(63.476562 0)"/>
      <use xlink:href="#DejaVuSans-6f" transform="translate(118.457031 0)"/>
      <use xlink:href="#DejaVuSans-72" transform="translate(179.638672 0)"/>
      <use xlink:href="#DejaVuSans-65" transform="translate(218.501953 0)"/>
     </g>
    </g>
   </g>
   <g id="LineCollection_1"/>
   <g id="patch_8">
    <path d="M 399.775765 316.44327 
L 407.128893 316.44327 
L 414.482022 316.44327 
L 414.482022 22.318125 
L 407.128893 22.318125 
L 399.775765 22.318125 
L 399.775765 316.44327 
z
" style="fill: none; stroke: #000000; stroke-width: 0.8; stroke-linejoin: miter; stroke-linecap: square"/>
   </g>
  </g>
 </g>
 <defs>
  <clipPath id="p29a663a100">
   <rect x="43.78125" y="22.318125" width="339.042395" height="294.125145"/>
  </clipPath>
  <clipPath id="pc0ec673121">
   <rect x="399.775765" y="22.318125" width="14.706257" height="294.125145"/>
  </clipPath>
 </defs>
</svg>
