<?xml version="1.0" encoding="utf-8" standalone="no"?>
<!DOCTYPE svg PUBLIC "-//W3C//DTD SVG 1.1//EN"
  "http://www.w3.org/Graphics/SVG/1.1/DTD/svg11.dtd">
<svg xmlns:xlink="http://www.w3.org/1999/xlink" width="468.233584pt" height="353.99952pt" viewBox="0 0 468.233584 353.99952" xmlns="http://www.w3.org/2000/svg" version="1.1">
 <metadata>
  <rdf:RDF xmlns:dc="http://purl.org/dc/elements/1.1/" xmlns:cc="http://creativecommons.org/ns#" xmlns:rdf="http://www.w3.org/1999/02/22-rdf-syntax-ns#">
   <cc:Work>
    <dc:type rdf:resource="http://purl.org/dc/dcmitype/StillImage"/>
    <dc:date>1970-01-01T00:00:00+00:00</dc:date>
    <dc:format>image/svg+xml</dc:format>
    <dc:creator>
     <cc:Agent>
      <dc:title>Matplotlib v3.10.7, https://matplotlib.org/</dc:title>
     </cc:Agent>
    </dc:creator>
   </cc:Work>
  </rdf:RDF>
 </metadata>
 <defs>
  <style type="text/css">*{stroke-linejoin: round; stroke-linecap: butt}</style>
 </defs>
 <g id="figure_1">
  <g id="patch_1">
   <path d="M 0 353.99952 
L 468.233584 353.99952 
L 468.233584 0 
L 0 0 
z
" style="fill: #ffffff"/>
  </g>
  <g id="axes_1">
   <g id="patch_2">
    <path d="M 43.78125 316.44327 
L 382.823645 316.44327 
L 382.823645 22.318125 
L 43.78125 22.318125 
z
" style="fill: #ffffff"/>
   </g>
   <g id="QuadContourSet_1">
    <path d="M 283.105293 316.44327 
L 284.25304 316.44327 
L 283.105293 302.608236 
L 282.670307 316.44327 
z
M 263.161623 255.530147 
L 268.452031 242.911984 
L 263.161623 226.425276 
L 260.328464 242.911984 
z
M 243.217953 173.641883 
L 244.812066 169.380697 
L 243.217953 164.701563 
L 242.40694 169.380697 
z
" clip-path="url(#p9b3f57cb40)" style="fill: #470d60"/>
    <path d="M 283.105293 302.608236 
L 284.25304 316.44327 
L 290.092152 316.44327 
L 287.463606 291.932841 
L 283.105293 278.993912 
L 273.318971 291.932841 
L 280.11216 316.44327 
L 282.670307 316.44327 
z
M 263.161623 272.116185 
L 267.489108 267.422412 
L 273.556098 242.911984 
L 266.545684 218.401555 
L 263.161623 210.649627 
L 253.482312 218.401555 
L 256.850607 242.911984 
L 262.812646 267.422412 
z
M 260.328464 242.911984 
L 263.161623 226.425276 
L 268.452031 242.911984 
L 263.161623 255.530147 
z
M 243.217953 192.392811 
L 251.067558 169.380697 
L 243.485318 144.870269 
L 243.217953 144.32807 
L 241.828422 144.870269 
L 238.593702 169.380697 
z
M 242.40694 169.380697 
L 243.217953 164.701563 
L 244.812066 169.380697 
L 243.217953 173.641883 
z
" clip-path="url(#p9b3f57cb40)" style="fill: #482173"/>
    <path d="M 263.161623 293.770128 
L 277.349959 316.44327 
L 280.11216 316.44327 
L 273.318971 291.932841 
L 283.105293 278.993912 
L 287.463606 291.932841 
L 290.092152 316.44327 
L 295.08763 316.44327 
L 291.910833 291.932841 
L 284.463836 267.422412 
L 283.105293 263.802302 
L 278.003877 242.911984 
L 271.821111 218.401555 
L 263.161623 196.948675 
L 260.067689 193.891126 
L 256.36446 169.380697 
L 250.049485 144.870269 
L 243.217953 129.615127 
L 223.274283 124.398002 
L 220.9992 144.870269 
L 223.274283 150.562566 
L 234.308256 169.380697 
L 239.401927 193.891126 
L 241.85836 218.401555 
L 243.217953 223.525216 
L 252.98427 242.911984 
L 260.535512 267.422412 
L 262.672056 291.932841 
z
M 262.812646 267.422412 
L 256.850607 242.911984 
L 253.482312 218.401555 
L 263.161623 210.649627 
L 266.545684 218.401555 
L 273.556098 242.911984 
L 267.489108 267.422412 
L 263.161623 272.116185 
z
M 238.593702 169.380697 
L 241.828422 144.870269 
L 243.217953 144.32807 
L 243.485318 144.870269 
L 251.067558 169.380697 
L 243.217953 192.392811 
z
M 223.274283 79.271541 
L 225.942362 71.338982 
L 223.274283 64.91876 
L 214.271965 71.338982 
z
" clip-path="url(#p9b3f57cb40)" style="fill: #453581"/>
    <path d="M 263.161623 299.369767 
L 274.348307 316.44327 
L 277.349959 316.44327 
L 263.161623 293.770128 
L 262.672056 291.932841 
L 260.535512 267.422412 
L 252.98427 242.911984 
L 243.217953 223.525216 
L 241.85836 218.401555 
L 239.401927 193.891126 
L 234.308256 169.380698 
L 223.274283 150.562566 
L 220.9992 144.870269 
L 223.274283 124.398002 
L 243.217953 129.615127 
L 250.049485 144.870269 
L 256.36446 169.380697 
L 260.067689 193.891126 
L 263.161623 196.948675 
L 271.821111 218.401555 
L 278.003877 242.911984 
L 283.105293 263.802302 
L 284.463836 267.422412 
L 291.910833 291.932841 
L 295.08763 316.44327 
L 299.452758 316.44327 
L 295.851597 291.932841 
L 289.859669 267.422412 
L 283.105293 247.936852 
L 281.945074 242.911984 
L 276.398395 218.401555 
L 268.683513 193.891126 
L 263.161623 179.308915 
L 260.957896 169.380697 
L 255.565859 144.870269 
L 246.52596 120.35984 
L 243.217953 112.071503 
L 231.00442 95.849411 
L 233.281781 71.338982 
L 224.486633 46.828554 
L 223.274283 43.837989 
L 205.707789 46.828554 
L 203.330612 47.218643 
L 198.579092 71.338982 
L 203.330612 80.33565 
L 219.795113 95.849411 
L 214.692374 120.35984 
L 217.027245 144.870269 
L 223.274283 159.647052 
L 229.416901 169.380697 
L 234.714156 193.891126 
L 239.240229 218.401555 
L 243.217953 232.842887 
L 248.631626 242.911984 
L 258.098115 267.422412 
L 261.13581 291.932841 
z
M 214.271965 71.338982 
L 223.274283 64.91876 
L 225.942362 71.338982 
L 223.274283 79.271541 
z
" clip-path="url(#p9b3f57cb40)" style="fill: #3e4989"/>
    <path d="M 263.161623 304.969405 
L 271.061715 316.44327 
L 274.348307 316.44327 
L 263.161623 299.369767 
L 261.13581 291.932841 
L 258.098115 267.422412 
L 248.631626 242.911984 
L 243.217953 232.842887 
L 239.240229 218.401555 
L 234.714156 193.891126 
L 229.416901 169.380697 
L 223.274283 159.647052 
L 217.027245 144.870269 
L 214.692374 120.35984 
L 219.795113 95.849411 
L 203.330612 80.33565 
L 198.579092 71.338982 
L 203.330612 47.218643 
L 205.707789 46.828554 
L 223.274283 43.837989 
L 224.486633 46.828554 
L 233.281781 71.338982 
L 231.00442 95.849411 
L 243.217953 112.071503 
L 246.52596 120.35984 
L 255.565859 144.870269 
L 260.957896 169.380697 
L 263.161623 179.308915 
L 268.683513 193.891126 
L 276.398395 218.401555 
L 281.945074 242.911984 
L 283.105293 247.936852 
L 289.859669 267.422412 
L 295.851597 291.932841 
L 299.452758 316.44327 
L 303.048964 316.44327 
L 303.51571 316.44327 
L 303.048964 314.920148 
L 299.389547 291.932841 
L 294.527282 267.422412 
L 287.568602 242.911984 
L 283.105293 231.02692 
L 280.440909 218.401555 
L 274.700133 193.891126 
L 267.049105 169.380697 
L 263.161623 159.220476 
L 260.323353 144.870269 
L 254.131826 120.35984 
L 246.10355 95.849411 
L 243.217953 89.22554 
L 239.334929 71.338982 
L 233.558765 46.828554 
L 225.44017 22.318125 
L 223.274283 22.318125 
L 203.330612 22.318125 
L 196.599482 22.318125 
L 187.299444 46.828554 
L 190.584052 71.338982 
L 203.330612 92.948161 
L 207.06381 95.849411 
L 203.330612 111.586841 
L 203.006102 120.35984 
L 203.330612 122.090208 
L 212.540241 144.870269 
L 223.274283 168.731537 
L 223.719636 169.380697 
L 229.291352 193.891126 
L 236.407957 218.401555 
L 243.217953 242.160558 
L 243.652497 242.911984 
L 255.476178 267.422412 
L 259.528271 291.932841 
z
" clip-path="url(#p9b3f57cb40)" style="fill: #375b8d"/>
    <path d="M 263.161623 310.569044 
L 267.430356 316.44327 
L 271.061715 316.44327 
L 263.161623 304.969405 
L 259.528271 291.932841 
L 255.476178 267.422412 
L 243.652497 242.911984 
L 243.217953 242.160558 
L 236.407957 218.401555 
L 229.291352 193.891126 
L 223.719636 169.380697 
L 223.274283 168.731537 
L 212.540241 144.870269 
L 203.330612 122.090208 
L 203.006102 120.35984 
L 203.330612 111.586841 
L 207.06381 95.849411 
L 203.330612 92.948161 
L 190.584052 71.338982 
L 187.299444 46.828554 
L 196.599482 22.318125 
L 186.830268 22.318125 
L 183.386942 28.725347 
L 179.757645 46.828554 
L 182.560174 71.338982 
L 183.386942 74.763779 
L 198.265225 95.849411 
L 200.365451 120.35984 
L 203.330612 135.584202 
L 207.384429 144.870269 
L 219.137569 169.380697 
L 223.146666 193.891126 
L 223.274283 194.415045 
L 233.323368 218.401555 
L 241.394318 242.911984 
L 243.217953 248.985954 
L 252.63945 267.422412 
L 257.842499 291.932841 
z
M 303.048964 314.920148 
L 303.51571 316.44327 
L 309.132032 316.44327 
L 303.048964 294.889073 
L 302.59945 291.932841 
L 298.640064 267.422412 
L 293.211892 242.911984 
L 285.30959 218.401555 
L 283.105293 211.6578 
L 279.824876 193.891126 
L 274.08879 169.380697 
L 266.315747 144.870269 
L 263.161623 135.166626 
L 260.364833 120.35984 
L 254.97079 95.849411 
L 246.333108 71.338982 
L 243.217953 61.616819 
L 240.741533 46.828554 
L 235.827539 22.318125 
L 225.44017 22.318125 
L 233.558765 46.828554 
L 239.334929 71.338982 
L 243.217953 89.22554 
L 246.10355 95.849411 
L 254.131826 120.35984 
L 260.323353 144.870269 
L 263.161623 159.220476 
L 267.049105 169.380697 
L 274.700133 193.891126 
L 280.440909 218.401555 
L 283.105293 231.02692 
L 287.568602 242.911984 
L 294.527282 267.422412 
L 299.389547 291.932841 
z
" clip-path="url(#p9b3f57cb40)" style="fill: #306a8e"/>
    <path d="M 263.161623 316.168682 
L 263.373329 316.44327 
L 267.430356 316.44327 
L 263.161623 310.569044 
L 257.842499 291.932841 
L 252.63945 267.422412 
L 243.217953 248.985954 
L 241.394318 242.911984 
L 233.323368 218.401555 
L 223.274283 194.415045 
L 223.146666 193.891126 
L 219.137569 169.380697 
L 207.384429 144.870269 
L 203.330612 135.584202 
L 200.365451 120.35984 
L 198.265225 95.849411 
L 183.386942 74.763779 
L 182.560174 71.338982 
L 179.757645 46.828554 
L 183.386942 28.725347 
L 186.830268 22.318125 
L 183.386942 22.318125 
L 163.443272 22.318125 
L 160.986269 22.318125 
L 163.443272 29.302885 
L 174.749884 46.828554 
L 179.403707 71.338982 
L 183.386942 87.112644 
L 190.340249 95.849411 
L 197.506804 120.35984 
L 202.569741 144.870269 
L 203.330612 148.703262 
L 214.049671 169.380697 
L 220.911262 193.891126 
L 223.274283 203.286141 
L 229.937069 218.401555 
L 239.29526 242.911984 
L 243.217953 255.59273 
L 249.549574 267.422412 
L 256.070488 291.932841 
z
M 303.048964 294.889073 
L 309.132032 316.44327 
L 313.963638 316.44327 
L 308.647571 291.932841 
L 303.048964 272.311397 
L 302.316017 267.422412 
L 298.063433 242.911984 
L 292.336165 218.401555 
L 285.480129 193.891126 
L 283.105293 186.279507 
L 279.936811 169.380697 
L 274.323971 144.870269 
L 268.015449 120.35984 
L 263.161623 102.469223 
L 262.024776 95.849411 
L 256.227288 71.338982 
L 250.07267 46.828554 
L 244.242971 22.318125 
L 243.217953 22.318125 
L 235.827539 22.318125 
L 240.741533 46.828554 
L 243.217953 61.616819 
L 246.333108 71.338982 
L 254.97079 95.849411 
L 260.364833 120.35984 
L 263.161623 135.166626 
L 266.315747 144.870269 
L 274.08879 169.380697 
L 279.824876 193.891126 
L 283.105293 211.6578 
L 285.30959 218.401555 
L 293.211892 242.911984 
L 298.640064 267.422412 
L 302.59945 291.932841 
z
" clip-path="url(#p9b3f57cb40)" style="fill: #297a8e"/>
    <path d="M 263.161623 316.44327 
L 263.373329 316.44327 
L 263.161623 316.168682 
L 256.070488 291.932841 
L 249.549574 267.422412 
L 243.217953 255.59273 
L 239.29526 242.911984 
L 229.937069 218.401555 
L 223.274283 203.286141 
L 220.911262 193.891126 
L 214.049671 169.380697 
L 203.330612 148.703262 
L 202.569741 144.870269 
L 197.506804 120.35984 
L 190.340249 95.849411 
L 183.386942 87.112644 
L 179.403707 71.338982 
L 174.749884 46.828554 
L 163.443272 29.302885 
L 160.986269 22.318125 
L 157.220767 22.318125 
L 163.443272 39.090819 
L 168.893972 46.828554 
L 175.930572 71.338982 
L 182.537436 95.849411 
L 183.386942 98.101007 
L 194.390901 120.35984 
L 200.01055 144.870269 
L 203.330612 160.994916 
L 208.083809 169.380697 
L 218.521617 193.891126 
L 223.274283 212.157238 
L 226.183578 218.401555 
L 237.060779 242.911984 
L 243.217953 262.199505 
L 246.156903 267.422412 
L 254.202935 291.932841 
L 260.815019 316.44327 
z
M 314.236275 291.932841 
L 308.76589 267.422412 
L 303.048964 247.562351 
L 302.318297 242.911984 
L 298.175145 218.401555 
L 292.892181 193.891126 
L 286.760045 169.380697 
L 283.105293 157.351352 
L 280.824243 144.870269 
L 276.217827 120.35984 
L 271.012217 95.849411 
L 264.447498 71.338982 
L 263.161623 67.286388 
L 259.084072 46.828554 
L 254.768303 22.318125 
L 244.242971 22.318125 
L 250.07267 46.828554 
L 256.227288 71.338982 
L 262.024776 95.849411 
L 263.161623 102.469223 
L 268.015449 120.35984 
L 274.323971 144.870269 
L 279.936811 169.380697 
L 283.105293 186.279507 
L 285.480129 193.891126 
L 292.336165 218.401555 
L 298.063433 242.911984 
L 302.316017 267.422412 
L 303.048964 272.311397 
L 308.647571 291.932841 
L 313.963638 316.44327 
L 318.203168 316.44327 
z
" clip-path="url(#p9b3f57cb40)" style="fill: #23898e"/>
    <path d="M 43.78125 316.44327 
L 63.72492 316.44327 
L 83.668591 316.44327 
L 103.612261 316.44327 
L 123.555931 316.44327 
L 143.499601 316.44327 
L 163.443272 316.44327 
L 174.56291 316.44327 
L 163.443272 308.030376 
L 146.265991 291.932841 
L 143.499601 290.336633 
L 123.555931 278.215691 
L 114.731899 267.422412 
L 103.612261 256.828397 
L 83.668591 246.051116 
L 80.127549 242.911984 
L 63.72492 228.610063 
L 54.766171 218.401555 
L 43.78125 209.449332 
L 23.83758 198.692186 
L 23.83758 218.401555 
L 23.83758 242.911984 
L 23.83758 267.422412 
L 23.83758 291.932841 
L 23.83758 316.44327 
z
M 254.202935 291.932841 
L 246.156903 267.422412 
L 243.217953 262.199505 
L 237.060779 242.911984 
L 226.183578 218.401555 
L 223.274283 212.157238 
L 218.521617 193.891126 
L 208.083809 169.380697 
L 203.330612 160.994916 
L 200.01055 144.870269 
L 194.390901 120.35984 
L 183.386942 98.101007 
L 182.537436 95.849411 
L 175.930572 71.338982 
L 168.893972 46.828554 
L 163.443272 39.090819 
L 157.220767 22.318125 
L 152.995534 22.318125 
L 162.679095 46.828554 
L 163.443272 49.297487 
L 172.070072 71.338982 
L 179.464992 95.849411 
L 183.386942 105.798656 
L 190.966822 120.35984 
L 197.247133 144.870269 
L 202.139626 169.380697 
L 203.330612 171.196706 
L 215.954857 193.891126 
L 222.141562 218.401555 
L 223.274283 220.119808 
L 234.672188 242.911984 
L 242.565921 267.422412 
L 243.217953 268.669874 
L 252.228949 291.932841 
L 258.162961 316.44327 
L 260.815019 316.44327 
z
M 319.047439 291.932841 
L 314.883823 267.422412 
L 309.660247 242.911984 
L 303.318261 218.401555 
L 303.048964 217.597107 
L 298.994587 193.891126 
L 294.79769 169.380697 
L 289.262309 144.870269 
L 283.105293 122.003149 
L 282.845234 120.35984 
L 278.676374 95.849411 
L 274.516432 71.338982 
L 269.148116 46.828554 
L 263.161623 24.584532 
L 262.83003 22.318125 
L 254.768303 22.318125 
L 259.084072 46.828554 
L 263.161623 67.286388 
L 264.447498 71.338982 
L 271.012217 95.849411 
L 276.217827 120.35984 
L 280.824243 144.870269 
L 283.105293 157.351352 
L 286.760045 169.380697 
L 292.892181 193.891126 
L 298.175145 218.401555 
L 302.318297 242.911984 
L 303.048964 247.562351 
L 308.76589 267.422412 
L 314.236275 291.932841 
L 318.203168 316.44327 
L 321.980018 316.44327 
z
M 442.654656 316.44327 
L 462.598326 316.44327 
L 482.541996 316.44327 
L 502.485667 316.44327 
L 522.429337 316.44327 
L 542.373007 316.44327 
L 562.316677 316.44327 
L 582.260348 316.44327 
L 602.204018 316.44327 
L 622.147688 316.44327 
L 642.091359 316.44327 
L 662.035029 316.44327 
L 681.978699 316.44327 
L 701.922369 316.44327 
L 721.86604 316.44327 
L 741.80971 316.44327 
L 761.75338 316.44327 
L 781.697051 316.44327 
L 801.640721 316.44327 
L 821.584391 316.44327 
L 841.528061 316.44327 
L 861.471732 316.44327 
L 881.415402 316.44327 
L 901.359072 316.44327 
L 901.359072 291.932841 
L 901.359072 267.422412 
L 901.359072 242.911984 
L 901.359072 218.401555 
L 901.359072 193.891126 
L 901.359072 169.380697 
L 901.359072 144.870269 
L 901.359072 120.35984 
L 901.359072 95.849411 
L 901.359072 71.338982 
L 901.359072 46.828554 
L 901.359072 22.318125 
L 881.415402 22.318125 
L 861.471732 22.318125 
L 841.528061 22.318125 
L 821.584391 22.318125 
L 801.640721 22.318125 
L 781.697051 22.318125 
L 761.75338 22.318125 
L 741.80971 22.318125 
L 721.86604 22.318125 
L 701.922369 22.318125 
L 681.978699 22.318125 
L 662.035029 22.318125 
L 642.091359 22.318125 
L 622.147688 22.318125 
L 602.204018 22.318125 
L 582.260348 22.318125 
L 562.316677 22.318125 
L 542.373007 22.318125 
L 522.429337 22.318125 
L 502.485667 22.318125 
L 482.541996 22.318125 
L 462.598326 22.318125 
L 442.654656 22.318125 
L 422.710985 22.318125 
L 402.767315 22.318125 
L 382.823645 22.318125 
L 371.383545 22.318125 
L 377.708793 46.828554 
L 382.022326 71.338982 
L 382.823645 76.466209 
L 391.57101 95.849411 
L 398.456733 120.35984 
L 402.56274 144.870269 
L 402.767315 146.31673 
L 413.829619 169.380697 
L 419.505503 193.891126 
L 422.610342 218.401555 
L 422.710985 219.349733 
L 429.913637 242.911984 
L 433.822822 267.422412 
L 434.159755 291.932841 
L 428.53949 316.44327 
z
" clip-path="url(#p9b3f57cb40)" style="fill: #1f978b"/>
    <path d="M 163.443272 308.030376 
L 174.56291 316.44327 
L 183.386942 316.44327 
L 195.993826 316.44327 
L 183.386942 304.595151 
L 172.777381 291.932841 
L 163.443272 282.804119 
L 147.643634 267.422412 
L 143.499601 263.798425 
L 123.555931 249.776818 
L 118.693795 242.911984 
L 103.612261 227.165917 
L 96.600662 218.401555 
L 83.668591 206.229825 
L 73.030707 193.891126 
L 63.72492 184.649346 
L 43.78125 171.275286 
L 42.516597 169.380697 
L 23.83758 150.485418 
L 23.83758 169.380697 
L 23.83758 193.891126 
L 23.83758 198.692186 
L 43.78125 209.449332 
L 54.766171 218.401555 
L 63.72492 228.610063 
L 80.127549 242.911984 
L 83.668591 246.051116 
L 103.612261 256.828397 
L 114.731899 267.422412 
L 123.555931 278.215691 
L 143.499601 290.336633 
L 146.265991 291.932841 
z
M 252.228949 291.932841 
L 243.217953 268.669874 
L 242.565921 267.422412 
L 234.672188 242.911984 
L 223.274283 220.119808 
L 222.141562 218.401555 
L 215.954857 193.891126 
L 203.330612 171.196706 
L 202.139626 169.380697 
L 197.247133 144.870269 
L 190.966822 120.35984 
L 183.386942 105.798656 
L 179.464992 95.849411 
L 172.070072 71.338982 
L 163.443272 49.297487 
L 162.679095 46.828554 
L 152.995534 22.318125 
L 148.182495 22.318125 
L 158.778745 46.828554 
L 163.443272 61.084511 
L 167.724826 71.338982 
L 176.093327 95.849411 
L 183.386942 113.496305 
L 187.166847 120.35984 
L 194.244045 144.870269 
L 198.099832 169.380697 
L 203.330612 176.911627 
L 213.182611 193.891126 
L 218.016873 218.401555 
L 223.274283 225.922651 
L 232.106644 242.911984 
L 239.271797 267.422412 
L 243.217953 274.625423 
L 250.13566 291.932841 
L 255.290939 316.44327 
L 258.162961 316.44327 
z
M 322.992634 316.44327 
L 327.288821 316.44327 
L 323.49992 291.932841 
L 322.992634 289.485597 
L 320.081833 267.422412 
L 316.350406 242.911984 
L 312.323104 218.401555 
L 305.756279 193.891126 
L 303.048964 183.196697 
L 301.317305 169.380697 
L 297.553566 144.870269 
L 293.647361 120.35984 
L 288.01872 95.849411 
L 283.105293 77.948441 
L 282.308445 71.338982 
L 279.520486 46.828554 
L 275.89717 22.318125 
L 263.161623 22.318125 
L 262.83003 22.318125 
L 263.161623 24.584532 
L 269.148116 46.828554 
L 274.516432 71.338982 
L 278.676374 95.849411 
L 282.845234 120.35984 
L 283.105293 122.003149 
L 289.262309 144.870269 
L 294.79769 169.380697 
L 298.994587 193.891126 
L 303.048964 217.597107 
L 303.318261 218.401555 
L 309.660247 242.911984 
L 314.883823 267.422412 
L 319.047439 291.932841 
L 321.980018 316.44327 
z
M 422.710985 316.44327 
L 428.53949 316.44327 
L 434.159755 291.932841 
L 433.822822 267.422412 
L 429.913637 242.911984 
L 422.710985 219.349733 
L 422.610342 218.401555 
L 419.505503 193.891126 
L 413.829619 169.380698 
L 402.767315 146.31673 
L 402.56274 144.870269 
L 398.456733 120.35984 
L 391.57101 95.849411 
L 382.823645 76.466209 
L 382.022326 71.338982 
L 377.708793 46.828554 
L 371.383545 22.318125 
L 362.879975 22.318125 
L 349.187364 22.318125 
L 358.089334 46.828554 
L 362.879975 63.154108 
L 366.183024 71.338982 
L 373.859587 95.849411 
L 379.201351 120.35984 
L 382.823645 140.128675 
L 384.964177 144.870269 
L 393.249667 169.380697 
L 398.358382 193.891126 
L 402.031625 218.401555 
L 402.767315 224.617239 
L 408.576308 242.911984 
L 412.928488 267.422412 
L 414.212283 291.932841 
L 412.354446 316.44327 
z
" clip-path="url(#p9b3f57cb40)" style="fill: #22a785"/>
    <path d="M 183.386942 304.595151 
L 195.993826 316.44327 
L 203.330612 316.44327 
L 208.036666 316.44327 
L 203.330612 311.577934 
L 186.238304 291.932841 
L 183.386942 289.047969 
L 165.38596 267.422412 
L 163.443272 265.486546 
L 143.878271 242.911984 
L 143.499601 242.545223 
L 123.555931 220.442352 
L 122.105675 218.401555 
L 103.612261 200.602318 
L 98.172686 193.891126 
L 83.668591 178.48268 
L 77.113702 169.380697 
L 63.72492 156.471995 
L 55.175561 144.870269 
L 43.78125 132.613317 
L 33.425146 120.35984 
L 23.83758 110.937591 
L 23.83758 120.35984 
L 23.83758 144.870269 
L 23.83758 150.485418 
L 42.516597 169.380697 
L 43.78125 171.275286 
L 63.72492 184.649346 
L 73.030707 193.891126 
L 83.668591 206.229825 
L 96.600662 218.401555 
L 103.612261 227.165917 
L 118.693795 242.911984 
L 123.555931 249.776818 
L 143.499601 263.798425 
L 147.643634 267.422412 
L 163.443272 282.804119 
L 172.777381 291.932841 
z
M 250.13566 291.932841 
L 243.217953 274.625423 
L 239.271797 267.422412 
L 232.106644 242.911984 
L 223.274283 225.922651 
L 218.016873 218.401555 
L 213.182611 193.891126 
L 203.330612 176.911627 
L 198.099832 169.380697 
L 194.244045 144.870269 
L 187.166847 120.35984 
L 183.386942 113.496305 
L 176.093327 95.849411 
L 167.724826 71.338982 
L 163.443272 61.084511 
L 158.778745 46.828554 
L 148.182495 22.318125 
L 143.499601 22.318125 
L 142.363495 22.318125 
L 143.499601 24.051817 
L 154.382933 46.828554 
L 162.461222 71.338982 
L 163.443272 72.840267 
L 172.35781 95.849411 
L 182.552477 120.35984 
L 183.386942 121.637076 
L 190.95573 144.870269 
L 193.526034 169.380697 
L 203.330612 182.626548 
L 210.169092 193.891126 
L 213.333914 218.401555 
L 223.274283 231.725493 
L 229.335817 242.911984 
L 235.631241 267.422412 
L 243.217953 280.580972 
L 247.907716 291.932841 
L 252.159139 316.44327 
L 255.290939 316.44327 
z
M 330.055524 291.932841 
L 326.078608 267.422412 
L 322.992634 251.594396 
L 321.955407 242.911984 
L 319.463714 218.401555 
L 315.50624 193.891126 
L 311.729537 169.380697 
L 306.352355 144.870269 
L 303.048964 130.550078 
L 302.043034 120.35984 
L 300.231096 95.849411 
L 299.207089 71.338982 
L 299.983189 46.828554 
L 303.048964 32.340273 
L 308.769079 22.318125 
L 303.048964 22.318125 
L 283.105293 22.318125 
L 275.89717 22.318125 
L 279.520486 46.828554 
L 282.308445 71.338982 
L 283.105293 77.948441 
L 288.01872 95.849411 
L 293.647361 120.35984 
L 297.553566 144.870269 
L 301.317305 169.380697 
L 303.048964 183.196697 
L 305.756279 193.891126 
L 312.323104 218.401555 
L 316.350406 242.911984 
L 320.081833 267.422412 
L 322.992634 289.485597 
L 323.49992 291.932841 
L 327.288821 316.44327 
L 332.538445 316.44327 
z
M 402.767315 316.44327 
L 412.354446 316.44327 
L 414.212283 291.932841 
L 412.928488 267.422412 
L 408.576308 242.911984 
L 402.767315 224.617239 
L 402.031625 218.401555 
L 398.358382 193.891126 
L 393.249667 169.380697 
L 384.964177 144.870269 
L 382.823645 140.128675 
L 379.201351 120.35984 
L 373.859587 95.849411 
L 366.183024 71.338982 
L 362.879975 63.154108 
L 358.089334 46.828554 
L 349.187364 22.318125 
L 342.936304 22.318125 
L 330.189282 22.318125 
L 338.377703 46.828554 
L 342.936304 58.863591 
L 348.797428 71.338982 
L 358.273215 95.849411 
L 362.879975 108.428359 
L 367.235865 120.35984 
L 374.159063 144.870269 
L 379.634597 169.380697 
L 382.823645 185.52176 
L 385.862497 193.891126 
L 392.392972 218.401555 
L 396.744862 242.911984 
L 399.592054 267.422412 
L 400.942826 291.932841 
L 400.776261 316.44327 
z
" clip-path="url(#p9b3f57cb40)" style="fill: #32b67a"/>
    <path d="M 203.330612 311.577934 
L 208.036666 316.44327 
L 216.943323 316.44327 
L 203.330612 300.348655 
L 197.007387 291.932841 
L 183.386942 275.735899 
L 177.519946 267.422412 
L 163.443272 250.5976 
L 157.938857 242.911984 
L 143.499601 225.65635 
L 138.364092 218.401555 
L 123.555931 201.055889 
L 118.044457 193.891126 
L 103.612261 177.519501 
L 97.931129 169.380697 
L 83.668591 152.083222 
L 78.279345 144.870269 
L 63.72492 128.427616 
L 58.332883 120.35984 
L 43.78125 103.920932 
L 38.096352 95.849411 
L 23.83758 78.514046 
L 23.83758 95.849411 
L 23.83758 110.937591 
L 33.425146 120.35984 
L 43.78125 132.613317 
L 55.175561 144.870269 
L 63.72492 156.471995 
L 77.113702 169.380697 
L 83.668591 178.48268 
L 98.172686 193.891126 
L 103.612261 200.602318 
L 122.105675 218.401555 
L 123.555931 220.442352 
L 143.499601 242.545223 
L 143.878271 242.911984 
L 163.443272 265.486546 
L 165.38596 267.422412 
L 183.386942 289.047969 
L 186.238304 291.932841 
z
M 247.907716 291.932841 
L 243.217953 280.580972 
L 235.631241 267.422412 
L 229.335817 242.911984 
L 223.274283 231.725493 
L 213.333914 218.401555 
L 210.169092 193.891126 
L 203.330612 182.626548 
L 193.526034 169.380697 
L 190.95573 144.870269 
L 183.386942 121.637076 
L 182.552477 120.35984 
L 172.35781 95.849411 
L 163.443272 72.840267 
L 162.461222 71.338982 
L 154.382933 46.828554 
L 143.499601 24.051817 
L 142.363495 22.318125 
L 133.765378 22.318125 
L 143.499601 35.48166 
L 149.34721 46.828554 
L 153.802992 71.338982 
L 163.443272 84.386796 
L 168.170303 95.849411 
L 173.722713 120.35984 
L 183.386942 133.424101 
L 187.322268 144.870269 
L 188.255241 169.380697 
L 203.330612 188.34147 
L 206.868266 193.891126 
L 207.917552 218.401555 
L 223.274283 237.528336 
L 226.323975 242.911984 
L 231.562726 267.422412 
L 243.217953 286.536521 
L 245.526594 291.932841 
L 248.715849 316.44327 
L 252.159139 316.44327 
z
M 335.565854 291.932841 
L 333.244181 267.422412 
L 330.613325 242.911984 
L 328.257452 218.401555 
L 323.321165 193.891126 
L 322.992634 192.13404 
L 321.244867 169.380697 
L 319.764363 144.870269 
L 319.206001 120.35984 
L 320.664995 95.849411 
L 322.992634 81.507069 
L 331.153045 95.849411 
L 342.936304 108.75313 
L 348.702533 120.35984 
L 360.534824 144.870269 
L 362.879975 149.436339 
L 369.270286 169.380697 
L 375.536177 193.891126 
L 380.726705 218.401555 
L 382.823645 229.698905 
L 386.471957 242.911984 
L 391.310098 267.422412 
L 394.163636 291.932841 
L 395.141865 316.44327 
L 400.776261 316.44327 
L 400.942826 291.932841 
L 399.592054 267.422412 
L 396.744862 242.911984 
L 392.392972 218.401555 
L 385.862497 193.891126 
L 382.823645 185.52176 
L 379.634597 169.380697 
L 374.159063 144.870269 
L 367.235865 120.35984 
L 362.879975 108.428359 
L 358.273215 95.849411 
L 348.797428 71.338982 
L 342.936304 58.863591 
L 338.377703 46.828554 
L 330.189282 22.318125 
L 322.992634 22.318125 
L 308.769079 22.318125 
L 303.048964 32.340273 
L 299.983189 46.828554 
L 299.207089 71.338983 
L 300.231096 95.849411 
L 302.043034 120.35984 
L 303.048964 130.550078 
L 306.352355 144.870269 
L 311.729537 169.380697 
L 315.50624 193.891126 
L 319.463714 218.401555 
L 321.955407 242.911984 
L 322.992634 251.594396 
L 326.078608 267.422412 
L 330.055524 291.932841 
L 332.538445 316.44327 
L 337.096301 316.44327 
z
" clip-path="url(#p9b3f57cb40)" style="fill: #4cc26c"/>
    <path d="M 203.330612 300.348655 
L 216.943323 316.44327 
L 223.274283 316.44327 
L 228.802691 316.44327 
L 223.274283 315.160808 
L 206.0996 291.932841 
L 203.330612 288.308887 
L 188.547384 267.422412 
L 183.386942 261.521128 
L 170.49567 242.911984 
L 163.443272 234.328275 
L 152.653342 218.401555 
L 143.499601 207.643504 
L 134.098899 193.891126 
L 123.555931 181.706841 
L 114.997578 169.380697 
L 103.612261 154.845997 
L 97.343639 144.870269 
L 83.668591 125.538169 
L 80.307181 120.35984 
L 63.72492 97.049657 
L 62.974342 95.849411 
L 44.627918 71.338982 
L 43.78125 70.40406 
L 27.342704 46.828554 
L 23.83758 43.475631 
L 23.83758 46.828554 
L 23.83758 71.338982 
L 23.83758 78.514046 
L 38.096352 95.849411 
L 43.78125 103.920932 
L 58.332883 120.35984 
L 63.72492 128.427616 
L 78.279345 144.870269 
L 83.668591 152.083222 
L 97.931129 169.380697 
L 103.612261 177.519501 
L 118.044457 193.891126 
L 123.555931 201.055889 
L 138.364092 218.401555 
L 143.499601 225.65635 
L 157.938857 242.911984 
L 163.443272 250.5976 
L 177.519946 267.422412 
L 183.386942 275.735899 
L 197.007387 291.932841 
z
M 243.217953 296.552561 
L 244.892195 316.44327 
L 248.715849 316.44327 
L 245.526594 291.932841 
L 243.217953 286.536521 
L 231.562726 267.422412 
L 226.323975 242.911984 
L 223.274283 237.528336 
L 207.917552 218.401555 
L 206.868266 193.891126 
L 203.330612 188.34147 
L 188.255241 169.380697 
L 187.322268 144.870269 
L 183.386942 133.424101 
L 173.722713 120.35984 
L 168.170303 95.849411 
L 163.443272 84.386796 
L 153.802992 71.338982 
L 149.34721 46.828554 
L 143.499601 35.48166 
L 133.765378 22.318125 
L 123.555931 22.318125 
L 121.872378 22.318125 
L 118.260425 46.828554 
L 123.555931 53.147727 
L 141.67415 71.338982 
L 143.499601 78.426054 
L 162.977374 95.849411 
L 160.818324 120.35984 
L 163.443272 123.549206 
L 182.835465 144.870269 
L 177.922552 169.380697 
L 183.386942 175.564636 
L 202.625444 193.891126 
L 187.774692 218.401555 
L 203.330612 228.154361 
L 220.895886 242.911984 
L 223.274283 245.182626 
L 226.952067 267.422412 
L 242.560708 291.932841 
z
M 340.318854 291.932841 
L 339.178719 267.422412 
L 338.285567 242.911984 
L 338.196616 218.401555 
L 338.888618 193.891126 
L 342.602081 169.380697 
L 342.936304 168.271168 
L 343.812676 169.380697 
L 362.879975 191.556245 
L 363.659782 193.891126 
L 370.6668 218.401555 
L 376.323531 242.911984 
L 381.110143 267.422412 
L 382.823645 277.259473 
L 385.727085 291.932841 
L 388.409744 316.44327 
L 395.141865 316.44327 
L 394.163636 291.932841 
L 391.310098 267.422412 
L 386.471957 242.911984 
L 382.823645 229.698905 
L 380.726705 218.401555 
L 375.536177 193.891126 
L 369.270286 169.380697 
L 362.879975 149.436339 
L 360.534824 144.870269 
L 348.702533 120.35984 
L 342.936304 108.75313 
L 331.153045 95.849411 
L 322.992634 81.507069 
L 320.664995 95.849411 
L 319.206001 120.35984 
L 319.764363 144.870269 
L 321.244867 169.380697 
L 322.992634 192.13404 
L 323.321165 193.891126 
L 328.257452 218.401555 
L 330.613325 242.911984 
L 333.244181 267.422412 
L 335.565854 291.932841 
L 337.096301 316.44327 
L 341.123657 316.44327 
z
M 123.555931 121.678278 
L 126.430817 120.35984 
L 123.555931 116.644243 
L 122.672892 120.35984 
z
" clip-path="url(#p9b3f57cb40)" style="fill: #70cf57"/>
    <path d="M 223.274283 315.160808 
L 228.802691 316.44327 
L 243.217953 316.44327 
L 244.892195 316.44327 
L 243.217953 296.552561 
L 242.560708 291.932841 
L 226.952067 267.422412 
L 223.274283 245.182626 
L 220.895886 242.911984 
L 203.330612 228.154361 
L 187.774692 218.401555 
L 202.625444 193.891126 
L 183.386942 175.564636 
L 177.922552 169.380697 
L 182.835465 144.870269 
L 163.443272 123.549206 
L 160.818324 120.35984 
L 162.977374 95.849411 
L 143.499601 78.426054 
L 141.67415 71.338982 
L 123.555931 53.147727 
L 118.260425 46.828554 
L 121.872378 22.318125 
L 103.612261 22.318125 
L 83.668591 22.318125 
L 77.94182 22.318125 
L 71.329215 46.828554 
L 83.668591 60.994078 
L 94.624889 71.338982 
L 103.612261 82.150483 
L 117.264772 95.849411 
L 107.353789 120.35984 
L 103.612261 126.311479 
L 100.691303 120.35984 
L 83.668591 98.983473 
L 81.959583 95.849411 
L 67.423954 71.338982 
L 63.72492 66.152631 
L 52.733179 46.828554 
L 43.78125 33.506309 
L 36.059966 22.318125 
L 23.83758 22.318125 
L 23.83758 43.475631 
L 27.342704 46.828554 
L 43.78125 70.40406 
L 44.627918 71.338982 
L 62.974342 95.849411 
L 63.72492 97.049657 
L 80.307181 120.35984 
L 83.668591 125.538169 
L 97.343639 144.870269 
L 103.612261 154.845997 
L 114.997578 169.380697 
L 123.555931 181.706841 
L 134.098899 193.891126 
L 143.499601 207.643504 
L 152.653342 218.401555 
L 163.443272 234.328275 
L 170.49567 242.911984 
L 183.386942 261.521128 
L 188.547384 267.422412 
L 203.330612 288.308887 
L 206.0996 291.932841 
z
M 215.364288 291.932841 
L 223.274283 272.596038 
L 234.658017 291.932841 
L 223.274283 304.063142 
z
M 199.417476 267.422412 
L 203.330612 256.955116 
L 216.660053 267.422412 
L 203.330612 273.844732 
z
M 181.67167 242.911984 
L 183.386942 238.912081 
L 189.230528 242.911984 
L 183.386942 245.805013 
z
M 148.872409 193.891126 
L 143.499601 186.765274 
L 132.21043 169.380697 
L 143.499601 158.7016 
L 155.385087 169.380697 
L 163.443272 178.614507 
L 178.700438 193.891126 
L 163.443272 216.096166 
z
M 118.320054 144.870269 
L 123.555931 139.929155 
L 129.497178 144.870269 
L 123.555931 155.081894 
z
M 122.672892 120.35984 
L 123.555931 116.644243 
L 126.430817 120.35984 
L 123.555931 121.678278 
z
M 342.936304 316.44327 
L 349.97453 316.44327 
L 349.858202 291.932841 
L 350.651556 267.422412 
L 358.367171 242.911984 
L 362.879975 237.760239 
L 364.433879 242.911984 
L 370.706614 267.422412 
L 375.780711 291.932841 
L 379.715229 316.44327 
L 382.823645 316.44327 
L 388.409744 316.44327 
L 385.727085 291.932841 
L 382.823645 277.259473 
L 381.110143 267.422412 
L 376.323531 242.911984 
L 370.6668 218.401555 
L 363.659782 193.891126 
L 362.879975 191.556245 
L 343.812676 169.380697 
L 342.936304 168.271168 
L 342.602081 169.380698 
L 338.888618 193.891126 
L 338.196616 218.401555 
L 338.285567 242.911984 
L 339.178719 267.422412 
L 340.318854 291.932841 
L 341.123657 316.44327 
z
" clip-path="url(#p9b3f57cb40)" style="fill: #98d83e"/>
    <path d="M 223.274283 304.063142 
L 234.658017 291.932841 
L 223.274283 272.596038 
L 215.364288 291.932841 
z
M 222.666962 291.932841 
L 223.274283 290.286727 
L 224.402955 291.932841 
L 223.274283 292.965477 
z
M 362.879975 293.96671 
L 367.007562 316.44327 
L 379.715229 316.44327 
L 375.780711 291.932841 
L 370.706614 267.422412 
L 364.433879 242.911984 
L 362.879975 237.760239 
L 358.367171 242.911984 
L 350.651556 267.422412 
L 349.858202 291.932841 
L 349.97453 316.44327 
L 360.629658 316.44327 
z
M 203.330612 273.844732 
L 216.660053 267.422412 
L 203.330612 256.955116 
L 199.417476 267.422412 
z
M 183.386942 245.805013 
L 189.230528 242.911984 
L 183.386942 238.912081 
L 181.67167 242.911984 
z
M 163.443272 216.096166 
L 178.700438 193.891126 
L 163.443272 178.614507 
L 155.385087 169.380697 
L 143.499601 158.7016 
L 132.21043 169.380697 
L 143.499601 186.765274 
L 148.872409 193.891126 
z
M 123.555931 155.081894 
L 129.497178 144.870269 
L 123.555931 139.929155 
L 118.320054 144.870269 
z
M 103.612261 126.311479 
L 107.353789 120.35984 
L 117.264772 95.849411 
L 103.612261 82.150483 
L 94.624889 71.338982 
L 83.668591 60.994078 
L 71.329215 46.828554 
L 77.94182 22.318125 
L 65.498791 22.318125 
L 63.72492 26.534235 
L 61.69446 22.318125 
L 43.78125 22.318125 
L 36.059966 22.318125 
L 43.78125 33.506309 
L 52.733179 46.828554 
L 63.72492 66.152631 
L 67.423954 71.338982 
L 81.959583 95.849411 
L 83.668591 98.983473 
L 100.691303 120.35984 
z
" clip-path="url(#p9b3f57cb40)" style="fill: #c2df23"/>
    <path d="M 223.274283 292.965477 
L 224.402955 291.932841 
L 223.274283 290.286727 
L 222.666962 291.932841 
z
M 362.879975 316.44327 
L 367.007562 316.44327 
L 362.879975 293.96671 
L 360.629658 316.44327 
z
M 63.72492 26.534235 
L 65.498791 22.318125 
L 63.72492 22.318125 
L 61.69446 22.318125 
z
" clip-path="url(#p9b3f57cb40)" style="fill: #ece51b"/>
   </g>
   <g id="PathCollection_1">
    <defs>
     <path id="mdc0741d33a" d="M -3 3 
L 3 -3 
M -3 -3 
L 3 3 
" style="stroke: #ff0000; stroke-width: 1.5"/>
    </defs>
    <g clip-path="url(#p9b3f57cb40)">
     <use xlink:href="#mdc0741d33a" x="362.879975" y="316.44327" style="fill: #ff0000; stroke: #ff0000; stroke-width: 1.5"/>
     <use xlink:href="#mdc0741d33a" x="223.274283" y="291.932841" style="fill: #ff0000; stroke: #ff0000; stroke-width: 1.5"/>
     <use xlink:href="#mdc0741d33a" x="362.879975" y="267.422412" style="fill: #ff0000; stroke: #ff0000; stroke-width: 1.5"/>
     <use xlink:href="#mdc0741d33a" x="183.386942" y="242.911984" style="fill: #ff0000; stroke: #ff0000; stroke-width: 1.5"/>
     <use xlink:href="#mdc0741d33a" x="163.443272" y="218.401555" style="fill: #ff0000; stroke: #ff0000; stroke-width: 1.5"/>
     <use xlink:href="#mdc0741d33a" x="163.443272" y="193.891126" style="fill: #ff0000; stroke: #ff0000; stroke-width: 1.5"/>
     <use xlink:href="#mdc0741d33a" x="143.499601" y="169.380697" style="fill: #ff0000; stroke: #ff0000; stroke-width: 1.5"/>
     <use xlink:href="#mdc0741d33a" x="123.555931" y="144.870269" style="fill: #ff0000; stroke: #ff0000; stroke-width: 1.5"/>
     <use xlink:href="#mdc0741d33a" x="103.612261" y="120.35984" style="fill: #ff0000; stroke: #ff0000; stroke-width: 1.5"/>
     <use xlink:href="#mdc0741d33a" x="103.612261" y="95.849411" style="fill: #ff0000; stroke: #ff0000; stroke-width: 1.5"/>
     <use xlink:href="#mdc0741d33a" x="83.668591" y="71.338982" style="fill: #ff0000; stroke: #ff0000; stroke-width: 1.5"/>
     <use xlink:href="#mdc0741d33a" x="63.72492" y="46.828554" style="fill: #ff0000; stroke: #ff0000; stroke-width: 1.5"/>
     <use xlink:href="#mdc0741d33a" x="63.72492" y="22.318125" style="fill: #ff0000; stroke: #ff0000; stroke-width: 1.5"/>
    </g>
   </g>
   <g id="matplotlib.axis_1">
    <g id="xtick_1">
     <g id="line2d_1">
      <defs>
       <path id="m38f3b05bbe" d="M 0 0 
L 0 3.5 
" style="stroke: #000000; stroke-width: 0.8"/>
      </defs>
      <g>
       <use xlink:href="#m38f3b05bbe" x="103.612261" y="316.44327" style="stroke: #000000; stroke-width: 0.8"/>
      </g>
     </g>
     <g id="text_1">
      <!-- $\mathdefault{10^{-4}}$ -->
      <g transform="translate(91.862261 331.041707) scale(0.1 -0.1)">
       <defs>
        <path id="DejaVuSans-31" d="M 794 531 
L 1825 531 
L 1825 4091 
L 703 3866 
L 703 4441 
L 1819 4666 
L 2450 4666 
L 2450 531 
L 3481 531 
L 3481 0 
L 794 0 
L 794 531 
z
" transform="scale(0.015625)"/>
        <path id="DejaVuSans-30" d="M 2034 4250 
Q 1547 4250 1301 3770 
Q 1056 3291 1056 2328 
Q 1056 1369 1301 889 
Q 1547 409 2034 409 
Q 2525 409 2770 889 
Q 3016 1369 3016 2328 
Q 3016 3291 2770 3770 
Q 2525 4250 2034 4250 
z
M 2034 4750 
Q 2819 4750 3233 4129 
Q 3647 3509 3647 2328 
Q 3647 1150 3233 529 
Q 2819 -91 2034 -91 
Q 1250 -91 836 529 
Q 422 1150 422 2328 
Q 422 3509 836 4129 
Q 1250 4750 2034 4750 
z
" transform="scale(0.015625)"/>
        <path id="DejaVuSans-2212" d="M 678 2272 
L 4684 2272 
L 4684 1741 
L 678 1741 
L 678 2272 
z
" transform="scale(0.015625)"/>
        <path id="DejaVuSans-34" d="M 2419 4116 
L 825 1625 
L 2419 1625 
L 2419 4116 
z
M 2253 4666 
L 3047 4666 
L 3047 1625 
L 3713 1625 
L 3713 1100 
L 3047 1100 
L 3047 0 
L 2419 0 
L 2419 1100 
L 313 1100 
L 313 1709 
L 2253 4666 
z
" transform="scale(0.015625)"/>
       </defs>
       <use xlink:href="#DejaVuSans-31" transform="translate(0 0.684375)"/>
       <use xlink:href="#DejaVuSans-30" transform="translate(63.623047 0.684375)"/>
       <use xlink:href="#DejaVuSans-2212" transform="translate(128.203125 38.965625) scale(0.7)"/>
       <use xlink:href="#DejaVuSans-34" transform="translate(186.855469 38.965625) scale(0.7)"/>
      </g>
     </g>
    </g>
    <g id="xtick_2">
     <g id="line2d_2">
      <g>
       <use xlink:href="#m38f3b05bbe" x="183.386942" y="316.44327" style="stroke: #000000; stroke-width: 0.8"/>
      </g>
     </g>
     <g id="text_2">
      <!-- $\mathdefault{10^{-3}}$ -->
      <g transform="translate(171.636942 331.041707) scale(0.1 -0.1)">
       <defs>
        <path id="DejaVuSans-33" d="M 2597 2516 
Q 3050 2419 3304 2112 
Q 3559 1806 3559 1356 
Q 3559 666 3084 287 
Q 2609 -91 1734 -91 
Q 1441 -91 1130 -33 
Q 819 25 488 141 
L 488 750 
Q 750 597 1062 519 
Q 1375 441 1716 441 
Q 2309 441 2620 675 
Q 2931 909 2931 1356 
Q 2931 1769 2642 2001 
Q 2353 2234 1838 2234 
L 1294 2234 
L 1294 2753 
L 1863 2753 
Q 2328 2753 2575 2939 
Q 2822 3125 2822 3475 
Q 2822 3834 2567 4026 
Q 2313 4219 1838 4219 
Q 1578 4219 1281 4162 
Q 984 4106 628 3988 
L 628 4550 
Q 988 4650 1302 4700 
Q 1616 4750 1894 4750 
Q 2613 4750 3031 4423 
Q 3450 4097 3450 3541 
Q 3450 3153 3228 2886 
Q 3006 2619 2597 2516 
z
" transform="scale(0.015625)"/>
       </defs>
       <use xlink:href="#DejaVuSans-31" transform="translate(0 0.765625)"/>
       <use xlink:href="#DejaVuSans-30" transform="translate(63.623047 0.765625)"/>
       <use xlink:href="#DejaVuSans-2212" transform="translate(128.203125 39.046875) scale(0.7)"/>
       <use xlink:href="#DejaVuSans-33" transform="translate(186.855469 39.046875) scale(0.7)"/>
      </g>
     </g>
    </g>
    <g id="xtick_3">
     <g id="line2d_3">
      <g>
       <use xlink:href="#m38f3b05bbe" x="263.161623" y="316.44327" style="stroke: #000000; stroke-width: 0.8"/>
      </g>
     </g>
     <g id="text_3">
      <!-- $\mathdefault{10^{-2}}$ -->
      <g transform="translate(251.411623 331.041707) scale(0.1 -0.1)">
       <defs>
        <path id="DejaVuSans-32" d="M 1228 531 
L 3431 531 
L 3431 0 
L 469 0 
L 469 531 
Q 828 903 1448 1529 
Q 2069 2156 2228 2338 
Q 2531 2678 2651 2914 
Q 2772 3150 2772 3378 
Q 2772 3750 2511 3984 
Q 2250 4219 1831 4219 
Q 1534 4219 1204 4116 
Q 875 4013 500 3803 
L 500 4441 
Q 881 4594 1212 4672 
Q 1544 4750 1819 4750 
Q 2544 4750 2975 4387 
Q 3406 4025 3406 3419 
Q 3406 3131 3298 2873 
Q 3191 2616 2906 2266 
Q 2828 2175 2409 1742 
Q 1991 1309 1228 531 
z
" transform="scale(0.015625)"/>
       </defs>
       <use xlink:href="#DejaVuSans-31" transform="translate(0 0.765625)"/>
       <use xlink:href="#DejaVuSans-30" transform="translate(63.623047 0.765625)"/>
       <use xlink:href="#DejaVuSans-2212" transform="translate(128.203125 39.046875) scale(0.7)"/>
       <use xlink:href="#DejaVuSans-32" transform="translate(186.855469 39.046875) scale(0.7)"/>
      </g>
     </g>
    </g>
    <g id="xtick_4">
     <g id="line2d_4">
      <g>
       <use xlink:href="#m38f3b05bbe" x="342.936304" y="316.44327" style="stroke: #000000; stroke-width: 0.8"/>
      </g>
     </g>
     <g id="text_4">
      <!-- $\mathdefault{10^{-1}}$ -->
      <g transform="translate(331.186304 331.041707) scale(0.1 -0.1)">
       <use xlink:href="#DejaVuSans-31" transform="translate(0 0.684375)"/>
       <use xlink:href="#DejaVuSans-30" transform="translate(63.623047 0.684375)"/>
       <use xlink:href="#DejaVuSans-2212" transform="translate(128.203125 38.965625) scale(0.7)"/>
       <use xlink:href="#DejaVuSans-31" transform="translate(186.855469 38.965625) scale(0.7)"/>
      </g>
     </g>
    </g>
    <g id="xtick_5">
     <g id="line2d_5">
      <defs>
       <path id="m360e1f0208" d="M 0 0 
L 0 2 
" style="stroke: #000000; stroke-width: 0.6"/>
      </defs>
      <g>
       <use xlink:href="#m360e1f0208" x="47.852152" y="316.44327" style="stroke: #000000; stroke-width: 0.6"/>
      </g>
     </g>
    </g>
    <g id="xtick_6">
     <g id="line2d_6">
      <g>
       <use xlink:href="#m360e1f0208" x="61.899776" y="316.44327" style="stroke: #000000; stroke-width: 0.6"/>
      </g>
     </g>
    </g>
    <g id="xtick_7">
     <g id="line2d_7">
      <g>
       <use xlink:href="#m360e1f0208" x="71.866724" y="316.44327" style="stroke: #000000; stroke-width: 0.6"/>
      </g>
     </g>
    </g>
    <g id="xtick_8">
     <g id="line2d_8">
      <g>
       <use xlink:href="#m360e1f0208" x="79.597689" y="316.44327" style="stroke: #000000; stroke-width: 0.6"/>
      </g>
     </g>
    </g>
    <g id="xtick_9">
     <g id="line2d_9">
      <g>
       <use xlink:href="#m360e1f0208" x="85.914348" y="316.44327" style="stroke: #000000; stroke-width: 0.6"/>
      </g>
     </g>
    </g>
    <g id="xtick_10">
     <g id="line2d_10">
      <g>
       <use xlink:href="#m360e1f0208" x="91.255006" y="316.44327" style="stroke: #000000; stroke-width: 0.6"/>
      </g>
     </g>
    </g>
    <g id="xtick_11">
     <g id="line2d_11">
      <g>
       <use xlink:href="#m360e1f0208" x="95.881295" y="316.44327" style="stroke: #000000; stroke-width: 0.6"/>
      </g>
     </g>
    </g>
    <g id="xtick_12">
     <g id="line2d_12">
      <g>
       <use xlink:href="#m360e1f0208" x="99.961972" y="316.44327" style="stroke: #000000; stroke-width: 0.6"/>
      </g>
     </g>
    </g>
    <g id="xtick_13">
     <g id="line2d_13">
      <g>
       <use xlink:href="#m360e1f0208" x="127.626833" y="316.44327" style="stroke: #000000; stroke-width: 0.6"/>
      </g>
     </g>
    </g>
    <g id="xtick_14">
     <g id="line2d_14">
      <g>
       <use xlink:href="#m360e1f0208" x="141.674457" y="316.44327" style="stroke: #000000; stroke-width: 0.6"/>
      </g>
     </g>
    </g>
    <g id="xtick_15">
     <g id="line2d_15">
      <g>
       <use xlink:href="#m360e1f0208" x="151.641405" y="316.44327" style="stroke: #000000; stroke-width: 0.6"/>
      </g>
     </g>
    </g>
    <g id="xtick_16">
     <g id="line2d_16">
      <g>
       <use xlink:href="#m360e1f0208" x="159.37237" y="316.44327" style="stroke: #000000; stroke-width: 0.6"/>
      </g>
     </g>
    </g>
    <g id="xtick_17">
     <g id="line2d_17">
      <g>
       <use xlink:href="#m360e1f0208" x="165.689029" y="316.44327" style="stroke: #000000; stroke-width: 0.6"/>
      </g>
     </g>
    </g>
    <g id="xtick_18">
     <g id="line2d_18">
      <g>
       <use xlink:href="#m360e1f0208" x="171.029688" y="316.44327" style="stroke: #000000; stroke-width: 0.6"/>
      </g>
     </g>
    </g>
    <g id="xtick_19">
     <g id="line2d_19">
      <g>
       <use xlink:href="#m360e1f0208" x="175.655977" y="316.44327" style="stroke: #000000; stroke-width: 0.6"/>
      </g>
     </g>
    </g>
    <g id="xtick_20">
     <g id="line2d_20">
      <g>
       <use xlink:href="#m360e1f0208" x="179.736653" y="316.44327" style="stroke: #000000; stroke-width: 0.6"/>
      </g>
     </g>
    </g>
    <g id="xtick_21">
     <g id="line2d_21">
      <g>
       <use xlink:href="#m360e1f0208" x="207.401514" y="316.44327" style="stroke: #000000; stroke-width: 0.6"/>
      </g>
     </g>
    </g>
    <g id="xtick_22">
     <g id="line2d_22">
      <g>
       <use xlink:href="#m360e1f0208" x="221.449138" y="316.44327" style="stroke: #000000; stroke-width: 0.6"/>
      </g>
     </g>
    </g>
    <g id="xtick_23">
     <g id="line2d_23">
      <g>
       <use xlink:href="#m360e1f0208" x="231.416086" y="316.44327" style="stroke: #000000; stroke-width: 0.6"/>
      </g>
     </g>
    </g>
    <g id="xtick_24">
     <g id="line2d_24">
      <g>
       <use xlink:href="#m360e1f0208" x="239.147051" y="316.44327" style="stroke: #000000; stroke-width: 0.6"/>
      </g>
     </g>
    </g>
    <g id="xtick_25">
     <g id="line2d_25">
      <g>
       <use xlink:href="#m360e1f0208" x="245.46371" y="316.44327" style="stroke: #000000; stroke-width: 0.6"/>
      </g>
     </g>
    </g>
    <g id="xtick_26">
     <g id="line2d_26">
      <g>
       <use xlink:href="#m360e1f0208" x="250.804369" y="316.44327" style="stroke: #000000; stroke-width: 0.6"/>
      </g>
     </g>
    </g>
    <g id="xtick_27">
     <g id="line2d_27">
      <g>
       <use xlink:href="#m360e1f0208" x="255.430658" y="316.44327" style="stroke: #000000; stroke-width: 0.6"/>
      </g>
     </g>
    </g>
    <g id="xtick_28">
     <g id="line2d_28">
      <g>
       <use xlink:href="#m360e1f0208" x="259.511334" y="316.44327" style="stroke: #000000; stroke-width: 0.6"/>
      </g>
     </g>
    </g>
    <g id="xtick_29">
     <g id="line2d_29">
      <g>
       <use xlink:href="#m360e1f0208" x="287.176195" y="316.44327" style="stroke: #000000; stroke-width: 0.6"/>
      </g>
     </g>
    </g>
    <g id="xtick_30">
     <g id="line2d_30">
      <g>
       <use xlink:href="#m360e1f0208" x="301.223819" y="316.44327" style="stroke: #000000; stroke-width: 0.6"/>
      </g>
     </g>
    </g>
    <g id="xtick_31">
     <g id="line2d_31">
      <g>
       <use xlink:href="#m360e1f0208" x="311.190767" y="316.44327" style="stroke: #000000; stroke-width: 0.6"/>
      </g>
     </g>
    </g>
    <g id="xtick_32">
     <g id="line2d_32">
      <g>
       <use xlink:href="#m360e1f0208" x="318.921732" y="316.44327" style="stroke: #000000; stroke-width: 0.6"/>
      </g>
     </g>
    </g>
    <g id="xtick_33">
     <g id="line2d_33">
      <g>
       <use xlink:href="#m360e1f0208" x="325.238391" y="316.44327" style="stroke: #000000; stroke-width: 0.6"/>
      </g>
     </g>
    </g>
    <g id="xtick_34">
     <g id="line2d_34">
      <g>
       <use xlink:href="#m360e1f0208" x="330.57905" y="316.44327" style="stroke: #000000; stroke-width: 0.6"/>
      </g>
     </g>
    </g>
    <g id="xtick_35">
     <g id="line2d_35">
      <g>
       <use xlink:href="#m360e1f0208" x="335.205339" y="316.44327" style="stroke: #000000; stroke-width: 0.6"/>
      </g>
     </g>
    </g>
    <g id="xtick_36">
     <g id="line2d_36">
      <g>
       <use xlink:href="#m360e1f0208" x="339.286015" y="316.44327" style="stroke: #000000; stroke-width: 0.6"/>
      </g>
     </g>
    </g>
    <g id="xtick_37">
     <g id="line2d_37">
      <g>
       <use xlink:href="#m360e1f0208" x="366.950876" y="316.44327" style="stroke: #000000; stroke-width: 0.6"/>
      </g>
     </g>
    </g>
    <g id="xtick_38">
     <g id="line2d_38">
      <g>
       <use xlink:href="#m360e1f0208" x="380.9985" y="316.44327" style="stroke: #000000; stroke-width: 0.6"/>
      </g>
     </g>
    </g>
    <g id="text_5">
     <!-- bandwidth -->
     <g transform="translate(186.939947 344.719832) scale(0.1 -0.1)">
      <defs>
       <path id="DejaVuSans-62" d="M 3116 1747 
Q 3116 2381 2855 2742 
Q 2594 3103 2138 3103 
Q 1681 3103 1420 2742 
Q 1159 2381 1159 1747 
Q 1159 1113 1420 752 
Q 1681 391 2138 391 
Q 2594 391 2855 752 
Q 3116 1113 3116 1747 
z
M 1159 2969 
Q 1341 3281 1617 3432 
Q 1894 3584 2278 3584 
Q 2916 3584 3314 3078 
Q 3713 2572 3713 1747 
Q 3713 922 3314 415 
Q 2916 -91 2278 -91 
Q 1894 -91 1617 61 
Q 1341 213 1159 525 
L 1159 0 
L 581 0 
L 581 4863 
L 1159 4863 
L 1159 2969 
z
" transform="scale(0.015625)"/>
       <path id="DejaVuSans-61" d="M 2194 1759 
Q 1497 1759 1228 1600 
Q 959 1441 959 1056 
Q 959 750 1161 570 
Q 1363 391 1709 391 
Q 2188 391 2477 730 
Q 2766 1069 2766 1631 
L 2766 1759 
L 2194 1759 
z
M 3341 1997 
L 3341 0 
L 2766 0 
L 2766 531 
Q 2569 213 2275 61 
Q 1981 -91 1556 -91 
Q 1019 -91 701 211 
Q 384 513 384 1019 
Q 384 1609 779 1909 
Q 1175 2209 1959 2209 
L 2766 2209 
L 2766 2266 
Q 2766 2663 2505 2880 
Q 2244 3097 1772 3097 
Q 1472 3097 1187 3025 
Q 903 2953 641 2809 
L 641 3341 
Q 956 3463 1253 3523 
Q 1550 3584 1831 3584 
Q 2591 3584 2966 3190 
Q 3341 2797 3341 1997 
z
" transform="scale(0.015625)"/>
       <path id="DejaVuSans-6e" d="M 3513 2113 
L 3513 0 
L 2938 0 
L 2938 2094 
Q 2938 2591 2744 2837 
Q 2550 3084 2163 3084 
Q 1697 3084 1428 2787 
Q 1159 2491 1159 1978 
L 1159 0 
L 581 0 
L 581 3500 
L 1159 3500 
L 1159 2956 
Q 1366 3272 1645 3428 
Q 1925 3584 2291 3584 
Q 2894 3584 3203 3211 
Q 3513 2838 3513 2113 
z
" transform="scale(0.015625)"/>
       <path id="DejaVuSans-64" d="M 2906 2969 
L 2906 4863 
L 3481 4863 
L 3481 0 
L 2906 0 
L 2906 525 
Q 2725 213 2448 61 
Q 2172 -91 1784 -91 
Q 1150 -91 751 415 
Q 353 922 353 1747 
Q 353 2572 751 3078 
Q 1150 3584 1784 3584 
Q 2172 3584 2448 3432 
Q 2725 3281 2906 2969 
z
M 947 1747 
Q 947 1113 1208 752 
Q 1469 391 1925 391 
Q 2381 391 2643 752 
Q 2906 1113 2906 1747 
Q 2906 2381 2643 2742 
Q 2381 3103 1925 3103 
Q 1469 3103 1208 2742 
Q 947 2381 947 1747 
z
" transform="scale(0.015625)"/>
       <path id="DejaVuSans-77" d="M 269 3500 
L 844 3500 
L 1563 769 
L 2278 3500 
L 2956 3500 
L 3675 769 
L 4391 3500 
L 4966 3500 
L 4050 0 
L 3372 0 
L 2619 2869 
L 1863 0 
L 1184 0 
L 269 3500 
z
" transform="scale(0.015625)"/>
       <path id="DejaVuSans-69" d="M 603 3500 
L 1178 3500 
L 1178 0 
L 603 0 
L 603 3500 
z
M 603 4863 
L 1178 4863 
L 1178 4134 
L 603 4134 
L 603 4863 
z
" transform="scale(0.015625)"/>
       <path id="DejaVuSans-74" d="M 1172 4494 
L 1172 3500 
L 2356 3500 
L 2356 3053 
L 1172 3053 
L 1172 1153 
Q 1172 725 1289 603 
Q 1406 481 1766 481 
L 2356 481 
L 2356 0 
L 1766 0 
Q 1100 0 847 248 
Q 594 497 594 1153 
L 594 3053 
L 172 3053 
L 172 3500 
L 594 3500 
L 594 4494 
L 1172 4494 
z
" transform="scale(0.015625)"/>
       <path id="DejaVuSans-68" d="M 3513 2113 
L 3513 0 
L 2938 0 
L 2938 2094 
Q 2938 2591 2744 2837 
Q 2550 3084 2163 3084 
Q 1697 3084 1428 2787 
Q 1159 2491 1159 1978 
L 1159 0 
L 581 0 
L 581 4863 
L 1159 4863 
L 1159 2956 
Q 1366 3272 1645 3428 
Q 1925 3584 2291 3584 
Q 2894 3584 3203 3211 
Q 3513 2838 3513 2113 
z
" transform="scale(0.015625)"/>
      </defs>
      <use xlink:href="#DejaVuSans-62"/>
      <use xlink:href="#DejaVuSans-61" transform="translate(63.476562 0)"/>
      <use xlink:href="#DejaVuSans-6e" transform="translate(124.755859 0)"/>
      <use xlink:href="#DejaVuSans-64" transform="translate(188.134766 0)"/>
      <use xlink:href="#DejaVuSans-77" transform="translate(251.611328 0)"/>
      <use xlink:href="#DejaVuSans-69" transform="translate(333.398438 0)"/>
      <use xlink:href="#DejaVuSans-64" transform="translate(361.181641 0)"/>
      <use xlink:href="#DejaVuSans-74" transform="translate(424.658203 0)"/>
      <use xlink:href="#DejaVuSans-68" transform="translate(463.867188 0)"/>
     </g>
    </g>
   </g>
   <g id="matplotlib.axis_2">
    <g id="ytick_1">
     <g id="line2d_39">
      <defs>
       <path id="mbd2f377c6c" d="M 0 0 
L -3.5 0 
" style="stroke: #000000; stroke-width: 0.8"/>
      </defs>
      <g>
       <use xlink:href="#mbd2f377c6c" x="43.78125" y="316.44327" style="stroke: #000000; stroke-width: 0.8"/>
      </g>
     </g>
     <g id="text_6">
      <!-- 1.0 -->
      <g transform="translate(20.878125 320.242489) scale(0.1 -0.1)">
       <defs>
        <path id="DejaVuSans-2e" d="M 684 794 
L 1344 794 
L 1344 0 
L 684 0 
L 684 794 
z
" transform="scale(0.015625)"/>
       </defs>
       <use xlink:href="#DejaVuSans-31"/>
       <use xlink:href="#DejaVuSans-2e" transform="translate(63.623047 0)"/>
       <use xlink:href="#DejaVuSans-30" transform="translate(95.410156 0)"/>
      </g>
     </g>
    </g>
    <g id="ytick_2">
     <g id="line2d_40">
      <g>
       <use xlink:href="#mbd2f377c6c" x="43.78125" y="267.422412" style="stroke: #000000; stroke-width: 0.8"/>
      </g>
     </g>
     <g id="text_7">
      <!-- 1.5 -->
      <g transform="translate(20.878125 271.221631) scale(0.1 -0.1)">
       <defs>
        <path id="DejaVuSans-35" d="M 691 4666 
L 3169 4666 
L 3169 4134 
L 1269 4134 
L 1269 2991 
Q 1406 3038 1543 3061 
Q 1681 3084 1819 3084 
Q 2600 3084 3056 2656 
Q 3513 2228 3513 1497 
Q 3513 744 3044 326 
Q 2575 -91 1722 -91 
Q 1428 -91 1123 -41 
Q 819 9 494 109 
L 494 744 
Q 775 591 1075 516 
Q 1375 441 1709 441 
Q 2250 441 2565 725 
Q 2881 1009 2881 1497 
Q 2881 1984 2565 2268 
Q 2250 2553 1709 2553 
Q 1456 2553 1204 2497 
Q 953 2441 691 2322 
L 691 4666 
z
" transform="scale(0.015625)"/>
       </defs>
       <use xlink:href="#DejaVuSans-31"/>
       <use xlink:href="#DejaVuSans-2e" transform="translate(63.623047 0)"/>
       <use xlink:href="#DejaVuSans-35" transform="translate(95.410156 0)"/>
      </g>
     </g>
    </g>
    <g id="ytick_3">
     <g id="line2d_41">
      <g>
       <use xlink:href="#mbd2f377c6c" x="43.78125" y="218.401555" style="stroke: #000000; stroke-width: 0.8"/>
      </g>
     </g>
     <g id="text_8">
      <!-- 2.0 -->
      <g transform="translate(20.878125 222.200774) scale(0.1 -0.1)">
       <use xlink:href="#DejaVuSans-32"/>
       <use xlink:href="#DejaVuSans-2e" transform="translate(63.623047 0)"/>
       <use xlink:href="#DejaVuSans-30" transform="translate(95.410156 0)"/>
      </g>
     </g>
    </g>
    <g id="ytick_4">
     <g id="line2d_42">
      <g>
       <use xlink:href="#mbd2f377c6c" x="43.78125" y="169.380697" style="stroke: #000000; stroke-width: 0.8"/>
      </g>
     </g>
     <g id="text_9">
      <!-- 2.5 -->
      <g transform="translate(20.878125 173.179916) scale(0.1 -0.1)">
       <use xlink:href="#DejaVuSans-32"/>
       <use xlink:href="#DejaVuSans-2e" transform="translate(63.623047 0)"/>
       <use xlink:href="#DejaVuSans-35" transform="translate(95.410156 0)"/>
      </g>
     </g>
    </g>
    <g id="ytick_5">
     <g id="line2d_43">
      <g>
       <use xlink:href="#mbd2f377c6c" x="43.78125" y="120.35984" style="stroke: #000000; stroke-width: 0.8"/>
      </g>
     </g>
     <g id="text_10">
      <!-- 3.0 -->
      <g transform="translate(20.878125 124.159059) scale(0.1 -0.1)">
       <use xlink:href="#DejaVuSans-33"/>
       <use xlink:href="#DejaVuSans-2e" transform="translate(63.623047 0)"/>
       <use xlink:href="#DejaVuSans-30" transform="translate(95.410156 0)"/>
      </g>
     </g>
    </g>
    <g id="ytick_6">
     <g id="line2d_44">
      <g>
       <use xlink:href="#mbd2f377c6c" x="43.78125" y="71.338982" style="stroke: #000000; stroke-width: 0.8"/>
      </g>
     </g>
     <g id="text_11">
      <!-- 3.5 -->
      <g transform="translate(20.878125 75.138201) scale(0.1 -0.1)">
       <use xlink:href="#DejaVuSans-33"/>
       <use xlink:href="#DejaVuSans-2e" transform="translate(63.623047 0)"/>
       <use xlink:href="#DejaVuSans-35" transform="translate(95.410156 0)"/>
      </g>
     </g>
    </g>
    <g id="ytick_7">
     <g id="line2d_45">
      <g>
       <use xlink:href="#mbd2f377c6c" x="43.78125" y="22.318125" style="stroke: #000000; stroke-width: 0.8"/>
      </g>
     </g>
     <g id="text_12">
      <!-- 4.0 -->
      <g transform="translate(20.878125 26.117344) scale(0.1 -0.1)">
       <use xlink:href="#DejaVuSans-34"/>
       <use xlink:href="#DejaVuSans-2e" transform="translate(63.623047 0)"/>
       <use xlink:href="#DejaVuSans-30" transform="translate(95.410156 0)"/>
      </g>
     </g>
    </g>
    <g id="text_13">
     <!-- alpha -->
     <g transform="translate(14.798438 183.240854) rotate(-90) scale(0.1 -0.1)">
      <defs>
       <path id="DejaVuSans-6c" d="M 603 4863 
L 1178 4863 
L 1178 0 
L 603 0 
L 603 4863 
z
" transform="scale(0.015625)"/>
       <path id="DejaVuSans-70" d="M 1159 525 
L 1159 -1331 
L 581 -1331 
L 581 3500 
L 1159 3500 
L 1159 2969 
Q 1341 3281 1617 3432 
Q 1894 3584 2278 3584 
Q 2916 3584 3314 3078 
Q 3713 2572 3713 1747 
Q 3713 922 3314 415 
Q 2916 -91 2278 -91 
Q 1894 -91 1617 61 
Q 1341 213 1159 525 
z
M 3116 1747 
Q 3116 2381 2855 2742 
Q 2594 3103 2138 3103 
Q 1681 3103 1420 2742 
Q 1159 2381 1159 1747 
Q 1159 1113 1420 752 
Q 1681 391 2138 391 
Q 2594 391 2855 752 
Q 3116 1113 3116 1747 
z
" transform="scale(0.015625)"/>
      </defs>
      <use xlink:href="#DejaVuSans-61"/>
      <use xlink:href="#DejaVuSans-6c" transform="translate(61.279297 0)"/>
      <use xlink:href="#DejaVuSans-70" transform="translate(89.0625 0)"/>
      <use xlink:href="#DejaVuSans-68" transform="translate(152.539062 0)"/>
      <use xlink:href="#DejaVuSans-61" transform="translate(215.917969 0)"/>
     </g>
    </g>
   </g>
   <g id="patch_3">
    <path d="M 43.78125 316.44327 
L 43.78125 22.318125 
" style="fill: none; stroke: #000000; stroke-width: 0.8; stroke-linejoin: miter; stroke-linecap: square"/>
   </g>
   <g id="patch_4">
    <path d="M 382.823645 316.44327 
L 382.823645 22.318125 
" style="fill: none; stroke: #000000; stroke-width: 0.8; stroke-linejoin: miter; stroke-linecap: square"/>
   </g>
   <g id="patch_5">
    <path d="M 43.78125 316.44327 
L 382.823645 316.44327 
" style="fill: none; stroke: #000000; stroke-width: 0.8; stroke-linejoin: miter; stroke-linecap: square"/>
   </g>
   <g id="patch_6">
    <path d="M 43.78125 22.318125 
L 382.823645 22.318125 
" style="fill: none; stroke: #000000; stroke-width: 0.8; stroke-linejoin: miter; stroke-linecap: square"/>
   </g>
   <g id="text_14">
    <!-- espirales_lo 1188 fkdc -->
    <g transform="translate(146.264635 16.318125) scale(0.12 -0.12)">
     <defs>
      <path id="DejaVuSans-65" d="M 3597 1894 
L 3597 1613 
L 953 1613 
Q 991 1019 1311 708 
Q 1631 397 2203 397 
Q 2534 397 2845 478 
Q 3156 559 3463 722 
L 3463 178 
Q 3153 47 2828 -22 
Q 2503 -91 2169 -91 
Q 1331 -91 842 396 
Q 353 884 353 1716 
Q 353 2575 817 3079 
Q 1281 3584 2069 3584 
Q 2775 3584 3186 3129 
Q 3597 2675 3597 1894 
z
M 3022 2063 
Q 3016 2534 2758 2815 
Q 2500 3097 2075 3097 
Q 1594 3097 1305 2825 
Q 1016 2553 972 2059 
L 3022 2063 
z
" transform="scale(0.015625)"/>
      <path id="DejaVuSans-73" d="M 2834 3397 
L 2834 2853 
Q 2591 2978 2328 3040 
Q 2066 3103 1784 3103 
Q 1356 3103 1142 2972 
Q 928 2841 928 2578 
Q 928 2378 1081 2264 
Q 1234 2150 1697 2047 
L 1894 2003 
Q 2506 1872 2764 1633 
Q 3022 1394 3022 966 
Q 3022 478 2636 193 
Q 2250 -91 1575 -91 
Q 1294 -91 989 -36 
Q 684 19 347 128 
L 347 722 
Q 666 556 975 473 
Q 1284 391 1588 391 
Q 1994 391 2212 530 
Q 2431 669 2431 922 
Q 2431 1156 2273 1281 
Q 2116 1406 1581 1522 
L 1381 1569 
Q 847 1681 609 1914 
Q 372 2147 372 2553 
Q 372 3047 722 3315 
Q 1072 3584 1716 3584 
Q 2034 3584 2315 3537 
Q 2597 3491 2834 3397 
z
" transform="scale(0.015625)"/>
      <path id="DejaVuSans-72" d="M 2631 2963 
Q 2534 3019 2420 3045 
Q 2306 3072 2169 3072 
Q 1681 3072 1420 2755 
Q 1159 2438 1159 1844 
L 1159 0 
L 581 0 
L 581 3500 
L 1159 3500 
L 1159 2956 
Q 1341 3275 1631 3429 
Q 1922 3584 2338 3584 
Q 2397 3584 2469 3576 
Q 2541 3569 2628 3553 
L 2631 2963 
z
" transform="scale(0.015625)"/>
      <path id="DejaVuSans-5f" d="M 3263 -1063 
L 3263 -1509 
L -63 -1509 
L -63 -1063 
L 3263 -1063 
z
" transform="scale(0.015625)"/>
      <path id="DejaVuSans-6f" d="M 1959 3097 
Q 1497 3097 1228 2736 
Q 959 2375 959 1747 
Q 959 1119 1226 758 
Q 1494 397 1959 397 
Q 2419 397 2687 759 
Q 2956 1122 2956 1747 
Q 2956 2369 2687 2733 
Q 2419 3097 1959 3097 
z
M 1959 3584 
Q 2709 3584 3137 3096 
Q 3566 2609 3566 1747 
Q 3566 888 3137 398 
Q 2709 -91 1959 -91 
Q 1206 -91 779 398 
Q 353 888 353 1747 
Q 353 2609 779 3096 
Q 1206 3584 1959 3584 
z
" transform="scale(0.015625)"/>
      <path id="DejaVuSans-20" transform="scale(0.015625)"/>
      <path id="DejaVuSans-38" d="M 2034 2216 
Q 1584 2216 1326 1975 
Q 1069 1734 1069 1313 
Q 1069 891 1326 650 
Q 1584 409 2034 409 
Q 2484 409 2743 651 
Q 3003 894 3003 1313 
Q 3003 1734 2745 1975 
Q 2488 2216 2034 2216 
z
M 1403 2484 
Q 997 2584 770 2862 
Q 544 3141 544 3541 
Q 544 4100 942 4425 
Q 1341 4750 2034 4750 
Q 2731 4750 3128 4425 
Q 3525 4100 3525 3541 
Q 3525 3141 3298 2862 
Q 3072 2584 2669 2484 
Q 3125 2378 3379 2068 
Q 3634 1759 3634 1313 
Q 3634 634 3220 271 
Q 2806 -91 2034 -91 
Q 1263 -91 848 271 
Q 434 634 434 1313 
Q 434 1759 690 2068 
Q 947 2378 1403 2484 
z
M 1172 3481 
Q 1172 3119 1398 2916 
Q 1625 2713 2034 2713 
Q 2441 2713 2670 2916 
Q 2900 3119 2900 3481 
Q 2900 3844 2670 4047 
Q 2441 4250 2034 4250 
Q 1625 4250 1398 4047 
Q 1172 3844 1172 3481 
z
" transform="scale(0.015625)"/>
      <path id="DejaVuSans-66" d="M 2375 4863 
L 2375 4384 
L 1825 4384 
Q 1516 4384 1395 4259 
Q 1275 4134 1275 3809 
L 1275 3500 
L 2222 3500 
L 2222 3053 
L 1275 3053 
L 1275 0 
L 697 0 
L 697 3053 
L 147 3053 
L 147 3500 
L 697 3500 
L 697 3744 
Q 697 4328 969 4595 
Q 1241 4863 1831 4863 
L 2375 4863 
z
" transform="scale(0.015625)"/>
      <path id="DejaVuSans-6b" d="M 581 4863 
L 1159 4863 
L 1159 1991 
L 2875 3500 
L 3609 3500 
L 1753 1863 
L 3688 0 
L 2938 0 
L 1159 1709 
L 1159 0 
L 581 0 
L 581 4863 
z
" transform="scale(0.015625)"/>
      <path id="DejaVuSans-63" d="M 3122 3366 
L 3122 2828 
Q 2878 2963 2633 3030 
Q 2388 3097 2138 3097 
Q 1578 3097 1268 2742 
Q 959 2388 959 1747 
Q 959 1106 1268 751 
Q 1578 397 2138 397 
Q 2388 397 2633 464 
Q 2878 531 3122 666 
L 3122 134 
Q 2881 22 2623 -34 
Q 2366 -91 2075 -91 
Q 1284 -91 818 406 
Q 353 903 353 1747 
Q 353 2603 823 3093 
Q 1294 3584 2113 3584 
Q 2378 3584 2631 3529 
Q 2884 3475 3122 3366 
z
" transform="scale(0.015625)"/>
     </defs>
     <use xlink:href="#DejaVuSans-65"/>
     <use xlink:href="#DejaVuSans-73" transform="translate(61.523438 0)"/>
     <use xlink:href="#DejaVuSans-70" transform="translate(113.623047 0)"/>
     <use xlink:href="#DejaVuSans-69" transform="translate(177.099609 0)"/>
     <use xlink:href="#DejaVuSans-72" transform="translate(204.882812 0)"/>
     <use xlink:href="#DejaVuSans-61" transform="translate(245.996094 0)"/>
     <use xlink:href="#DejaVuSans-6c" transform="translate(307.275391 0)"/>
     <use xlink:href="#DejaVuSans-65" transform="translate(335.058594 0)"/>
     <use xlink:href="#DejaVuSans-73" transform="translate(396.582031 0)"/>
     <use xlink:href="#DejaVuSans-5f" transform="translate(448.681641 0)"/>
     <use xlink:href="#DejaVuSans-6c" transform="translate(498.681641 0)"/>
     <use xlink:href="#DejaVuSans-6f" transform="translate(526.464844 0)"/>
     <use xlink:href="#DejaVuSans-20" transform="translate(587.646484 0)"/>
     <use xlink:href="#DejaVuSans-31" transform="translate(619.433594 0)"/>
     <use xlink:href="#DejaVuSans-31" transform="translate(683.056641 0)"/>
     <use xlink:href="#DejaVuSans-38" transform="translate(746.679688 0)"/>
     <use xlink:href="#DejaVuSans-38" transform="translate(810.302734 0)"/>
     <use xlink:href="#DejaVuSans-20" transform="translate(873.925781 0)"/>
     <use xlink:href="#DejaVuSans-66" transform="translate(905.712891 0)"/>
     <use xlink:href="#DejaVuSans-6b" transform="translate(940.917969 0)"/>
     <use xlink:href="#DejaVuSans-64" transform="translate(998.828125 0)"/>
     <use xlink:href="#DejaVuSans-63" transform="translate(1062.304688 0)"/>
    </g>
   </g>
  </g>
  <g id="axes_2">
   <g id="patch_7">
    <path d="M 399.775765 316.44327 
L 414.482022 316.44327 
L 414.482022 22.318125 
L 399.775765 22.318125 
z
" style="fill: #ffffff"/>
   </g>
   <g id="QuadMesh_1">
    <path d="M 399.775765 316.44327 
L 414.482022 316.44327 
L 414.482022 298.060448 
L 399.775765 298.060448 
L 399.775765 316.44327 
" clip-path="url(#pc0ec673121)" style="fill: #470d60"/>
    <path d="M 399.775765 298.060448 
L 414.482022 298.060448 
L 414.482022 279.677627 
L 399.775765 279.677627 
L 399.775765 298.060448 
" clip-path="url(#pc0ec673121)" style="fill: #482173"/>
    <path d="M 399.775765 279.677627 
L 414.482022 279.677627 
L 414.482022 261.294805 
L 399.775765 261.294805 
L 399.775765 279.677627 
" clip-path="url(#pc0ec673121)" style="fill: #453581"/>
    <path d="M 399.775765 261.294805 
L 414.482022 261.294805 
L 414.482022 242.911984 
L 399.775765 242.911984 
L 399.775765 261.294805 
" clip-path="url(#pc0ec673121)" style="fill: #3e4989"/>
    <path d="M 399.775765 242.911984 
L 414.482022 242.911984 
L 414.482022 224.529162 
L 399.775765 224.529162 
L 399.775765 242.911984 
" clip-path="url(#pc0ec673121)" style="fill: #375b8d"/>
    <path d="M 399.775765 224.529162 
L 414.482022 224.529162 
L 414.482022 206.146341 
L 399.775765 206.146341 
L 399.775765 224.529162 
" clip-path="url(#pc0ec673121)" style="fill: #306a8e"/>
    <path d="M 399.775765 206.146341 
L 414.482022 206.146341 
L 414.482022 187.763519 
L 399.775765 187.763519 
L 399.775765 206.146341 
" clip-path="url(#pc0ec673121)" style="fill: #297a8e"/>
    <path d="M 399.775765 187.763519 
L 414.482022 187.763519 
L 414.482022 169.380697 
L 399.775765 169.380697 
L 399.775765 187.763519 
" clip-path="url(#pc0ec673121)" style="fill: #23898e"/>
    <path d="M 399.775765 169.380697 
L 414.482022 169.380697 
L 414.482022 150.997876 
L 399.775765 150.997876 
L 399.775765 169.380697 
" clip-path="url(#pc0ec673121)" style="fill: #1f978b"/>
    <path d="M 399.775765 150.997876 
L 414.482022 150.997876 
L 414.482022 132.615054 
L 399.775765 132.615054 
L 399.775765 150.997876 
" clip-path="url(#pc0ec673121)" style="fill: #22a785"/>
    <path d="M 399.775765 132.615054 
L 414.482022 132.615054 
L 414.482022 114.232233 
L 399.775765 114.232233 
L 399.775765 132.615054 
" clip-path="url(#pc0ec673121)" style="fill: #32b67a"/>
    <path d="M 399.775765 114.232233 
L 414.482022 114.232233 
L 414.482022 95.849411 
L 399.775765 95.849411 
L 399.775765 114.232233 
" clip-path="url(#pc0ec673121)" style="fill: #4cc26c"/>
    <path d="M 399.775765 95.849411 
L 414.482022 95.849411 
L 414.482022 77.46659 
L 399.775765 77.46659 
L 399.775765 95.849411 
" clip-path="url(#pc0ec673121)" style="fill: #70cf57"/>
    <path d="M 399.775765 77.46659 
L 414.482022 77.46659 
L 414.482022 59.083768 
L 399.775765 59.083768 
L 399.775765 77.46659 
" clip-path="url(#pc0ec673121)" style="fill: #98d83e"/>
    <path d="M 399.775765 59.083768 
L 414.482022 59.083768 
L 414.482022 40.700947 
L 399.775765 40.700947 
L 399.775765 59.083768 
" clip-path="url(#pc0ec673121)" style="fill: #c2df23"/>
    <path d="M 399.775765 40.700947 
L 414.482022 40.700947 
L 414.482022 22.318125 
L 399.775765 22.318125 
L 399.775765 40.700947 
" clip-path="url(#pc0ec673121)" style="fill: #ece51b"/>
   </g>
   <g id="matplotlib.axis_3"/>
   <g id="matplotlib.axis_4">
    <g id="ytick_8">
     <g id="line2d_46">
      <defs>
       <path id="m0a27ea52cb" d="M 0 0 
L 3.5 0 
" style="stroke: #000000; stroke-width: 0.8"/>
      </defs>
      <g>
       <use xlink:href="#m0a27ea52cb" x="414.482022" y="316.44327" style="stroke: #000000; stroke-width: 0.8"/>
      </g>
     </g>
     <g id="text_15">
      <!-- -1.36 -->
      <g transform="translate(421.482022 320.242489) scale(0.1 -0.1)">
       <defs>
        <path id="DejaVuSans-2d" d="M 313 2009 
L 1997 2009 
L 1997 1497 
L 313 1497 
L 313 2009 
z
" transform="scale(0.015625)"/>
        <path id="DejaVuSans-36" d="M 2113 2584 
Q 1688 2584 1439 2293 
Q 1191 2003 1191 1497 
Q 1191 994 1439 701 
Q 1688 409 2113 409 
Q 2538 409 2786 701 
Q 3034 994 3034 1497 
Q 3034 2003 2786 2293 
Q 2538 2584 2113 2584 
z
M 3366 4563 
L 3366 3988 
Q 3128 4100 2886 4159 
Q 2644 4219 2406 4219 
Q 1781 4219 1451 3797 
Q 1122 3375 1075 2522 
Q 1259 2794 1537 2939 
Q 1816 3084 2150 3084 
Q 2853 3084 3261 2657 
Q 3669 2231 3669 1497 
Q 3669 778 3244 343 
Q 2819 -91 2113 -91 
Q 1303 -91 875 529 
Q 447 1150 447 2328 
Q 447 3434 972 4092 
Q 1497 4750 2381 4750 
Q 2619 4750 2861 4703 
Q 3103 4656 3366 4563 
z
" transform="scale(0.015625)"/>
       </defs>
       <use xlink:href="#DejaVuSans-2d"/>
       <use xlink:href="#DejaVuSans-31" transform="translate(36.083984 0)"/>
       <use xlink:href="#DejaVuSans-2e" transform="translate(99.707031 0)"/>
       <use xlink:href="#DejaVuSans-33" transform="translate(131.494141 0)"/>
       <use xlink:href="#DejaVuSans-36" transform="translate(195.117188 0)"/>
      </g>
     </g>
    </g>
    <g id="ytick_9">
     <g id="line2d_47">
      <g>
       <use xlink:href="#m0a27ea52cb" x="414.482022" y="279.677627" style="stroke: #000000; stroke-width: 0.8"/>
      </g>
     </g>
     <g id="text_16">
      <!-- -1.20 -->
      <g transform="translate(421.482022 283.476846) scale(0.1 -0.1)">
       <use xlink:href="#DejaVuSans-2d"/>
       <use xlink:href="#DejaVuSans-31" transform="translate(36.083984 0)"/>
       <use xlink:href="#DejaVuSans-2e" transform="translate(99.707031 0)"/>
       <use xlink:href="#DejaVuSans-32" transform="translate(131.494141 0)"/>
       <use xlink:href="#DejaVuSans-30" transform="translate(195.117188 0)"/>
      </g>
     </g>
    </g>
    <g id="ytick_10">
     <g id="line2d_48">
      <g>
       <use xlink:href="#m0a27ea52cb" x="414.482022" y="242.911984" style="stroke: #000000; stroke-width: 0.8"/>
      </g>
     </g>
     <g id="text_17">
      <!-- -1.04 -->
      <g transform="translate(421.482022 246.711202) scale(0.1 -0.1)">
       <use xlink:href="#DejaVuSans-2d"/>
       <use xlink:href="#DejaVuSans-31" transform="translate(36.083984 0)"/>
       <use xlink:href="#DejaVuSans-2e" transform="translate(99.707031 0)"/>
       <use xlink:href="#DejaVuSans-30" transform="translate(131.494141 0)"/>
       <use xlink:href="#DejaVuSans-34" transform="translate(195.117188 0)"/>
      </g>
     </g>
    </g>
    <g id="ytick_11">
     <g id="line2d_49">
      <g>
       <use xlink:href="#m0a27ea52cb" x="414.482022" y="206.146341" style="stroke: #000000; stroke-width: 0.8"/>
      </g>
     </g>
     <g id="text_18">
      <!-- -0.88 -->
      <g transform="translate(421.482022 209.945559) scale(0.1 -0.1)">
       <use xlink:href="#DejaVuSans-2d"/>
       <use xlink:href="#DejaVuSans-30" transform="translate(36.083984 0)"/>
       <use xlink:href="#DejaVuSans-2e" transform="translate(99.707031 0)"/>
       <use xlink:href="#DejaVuSans-38" transform="translate(131.494141 0)"/>
       <use xlink:href="#DejaVuSans-38" transform="translate(195.117188 0)"/>
      </g>
     </g>
    </g>
    <g id="ytick_12">
     <g id="line2d_50">
      <g>
       <use xlink:href="#m0a27ea52cb" x="414.482022" y="169.380697" style="stroke: #000000; stroke-width: 0.8"/>
      </g>
     </g>
     <g id="text_19">
      <!-- -0.72 -->
      <g transform="translate(421.482022 173.179916) scale(0.1 -0.1)">
       <defs>
        <path id="DejaVuSans-37" d="M 525 4666 
L 3525 4666 
L 3525 4397 
L 1831 0 
L 1172 0 
L 2766 4134 
L 525 4134 
L 525 4666 
z
" transform="scale(0.015625)"/>
       </defs>
       <use xlink:href="#DejaVuSans-2d"/>
       <use xlink:href="#DejaVuSans-30" transform="translate(36.083984 0)"/>
       <use xlink:href="#DejaVuSans-2e" transform="translate(99.707031 0)"/>
       <use xlink:href="#DejaVuSans-37" transform="translate(131.494141 0)"/>
       <use xlink:href="#DejaVuSans-32" transform="translate(195.117188 0)"/>
      </g>
     </g>
    </g>
    <g id="ytick_13">
     <g id="line2d_51">
      <g>
       <use xlink:href="#m0a27ea52cb" x="414.482022" y="132.615054" style="stroke: #000000; stroke-width: 0.8"/>
      </g>
     </g>
     <g id="text_20">
      <!-- -0.56 -->
      <g transform="translate(421.482022 136.414273) scale(0.1 -0.1)">
       <use xlink:href="#DejaVuSans-2d"/>
       <use xlink:href="#DejaVuSans-30" transform="translate(36.083984 0)"/>
       <use xlink:href="#DejaVuSans-2e" transform="translate(99.707031 0)"/>
       <use xlink:href="#DejaVuSans-35" transform="translate(131.494141 0)"/>
       <use xlink:href="#DejaVuSans-36" transform="translate(195.117188 0)"/>
      </g>
     </g>
    </g>
    <g id="ytick_14">
     <g id="line2d_52">
      <g>
       <use xlink:href="#m0a27ea52cb" x="414.482022" y="95.849411" style="stroke: #000000; stroke-width: 0.8"/>
      </g>
     </g>
     <g id="text_21">
      <!-- -0.40 -->
      <g transform="translate(421.482022 99.64863) scale(0.1 -0.1)">
       <use xlink:href="#DejaVuSans-2d"/>
       <use xlink:href="#DejaVuSans-30" transform="translate(36.083984 0)"/>
       <use xlink:href="#DejaVuSans-2e" transform="translate(99.707031 0)"/>
       <use xlink:href="#DejaVuSans-34" transform="translate(131.494141 0)"/>
       <use xlink:href="#DejaVuSans-30" transform="translate(195.117188 0)"/>
      </g>
     </g>
    </g>
    <g id="ytick_15">
     <g id="line2d_53">
      <g>
       <use xlink:href="#m0a27ea52cb" x="414.482022" y="59.083768" style="stroke: #000000; stroke-width: 0.8"/>
      </g>
     </g>
     <g id="text_22">
      <!-- -0.24 -->
      <g transform="translate(421.482022 62.882987) scale(0.1 -0.1)">
       <use xlink:href="#DejaVuSans-2d"/>
       <use xlink:href="#DejaVuSans-30" transform="translate(36.083984 0)"/>
       <use xlink:href="#DejaVuSans-2e" transform="translate(99.707031 0)"/>
       <use xlink:href="#DejaVuSans-32" transform="translate(131.494141 0)"/>
       <use xlink:href="#DejaVuSans-34" transform="translate(195.117188 0)"/>
      </g>
     </g>
    </g>
    <g id="ytick_16">
     <g id="line2d_54">
      <g>
       <use xlink:href="#m0a27ea52cb" x="414.482022" y="22.318125" style="stroke: #000000; stroke-width: 0.8"/>
      </g>
     </g>
     <g id="text_23">
      <!-- -0.08 -->
      <g transform="translate(421.482022 26.117344) scale(0.1 -0.1)">
       <use xlink:href="#DejaVuSans-2d"/>
       <use xlink:href="#DejaVuSans-30" transform="translate(36.083984 0)"/>
       <use xlink:href="#DejaVuSans-2e" transform="translate(99.707031 0)"/>
       <use xlink:href="#DejaVuSans-30" transform="translate(131.494141 0)"/>
       <use xlink:href="#DejaVuSans-38" transform="translate(195.117188 0)"/>
      </g>
     </g>
    </g>
    <g id="text_24">
     <!-- Score -->
     <g transform="translate(458.953897 183.383041) rotate(-90) scale(0.1 -0.1)">
      <defs>
       <path id="DejaVuSans-53" d="M 3425 4513 
L 3425 3897 
Q 3066 4069 2747 4153 
Q 2428 4238 2131 4238 
Q 1616 4238 1336 4038 
Q 1056 3838 1056 3469 
Q 1056 3159 1242 3001 
Q 1428 2844 1947 2747 
L 2328 2669 
Q 3034 2534 3370 2195 
Q 3706 1856 3706 1288 
Q 3706 609 3251 259 
Q 2797 -91 1919 -91 
Q 1588 -91 1214 -16 
Q 841 59 441 206 
L 441 856 
Q 825 641 1194 531 
Q 1563 422 1919 422 
Q 2459 422 2753 634 
Q 3047 847 3047 1241 
Q 3047 1584 2836 1778 
Q 2625 1972 2144 2069 
L 1759 2144 
Q 1053 2284 737 2584 
Q 422 2884 422 3419 
Q 422 4038 858 4394 
Q 1294 4750 2059 4750 
Q 2388 4750 2728 4690 
Q 3069 4631 3425 4513 
z
" transform="scale(0.015625)"/>
      </defs>
      <use xlink:href="#DejaVuSans-53"/>
      <use xlink:href="#DejaVuSans-63" transform="translate(63.476562 0)"/>
      <use xlink:href="#DejaVuSans-6f" transform="translate(118.457031 0)"/>
      <use xlink:href="#DejaVuSans-72" transform="translate(179.638672 0)"/>
      <use xlink:href="#DejaVuSans-65" transform="translate(218.501953 0)"/>
     </g>
    </g>
   </g>
   <g id="LineCollection_1"/>
   <g id="patch_8">
    <path d="M 399.775765 316.44327 
L 407.128893 316.44327 
L 414.482022 316.44327 
L 414.482022 22.318125 
L 407.128893 22.318125 
L 399.775765 22.318125 
L 399.775765 316.44327 
z
" style="fill: none; stroke: #000000; stroke-width: 0.8; stroke-linejoin: miter; stroke-linecap: square"/>
   </g>
  </g>
 </g>
 <defs>
  <clipPath id="p9b3f57cb40">
   <rect x="43.78125" y="22.318125" width="339.042395" height="294.125145"/>
  </clipPath>
  <clipPath id="pc0ec673121">
   <rect x="399.775765" y="22.318125" width="14.706257" height="294.125145"/>
  </clipPath>
 </defs>
</svg>
