<?xml version="1.0" encoding="utf-8" standalone="no"?>
<!DOCTYPE svg PUBLIC "-//W3C//DTD SVG 1.1//EN"
  "http://www.w3.org/Graphics/SVG/1.1/DTD/svg11.dtd">
<svg xmlns:xlink="http://www.w3.org/1999/xlink" width="460.8pt" height="345.6pt" viewBox="0 0 460.8 345.6" xmlns="http://www.w3.org/2000/svg" version="1.1">
 <metadata>
  <rdf:RDF xmlns:dc="http://purl.org/dc/elements/1.1/" xmlns:cc="http://creativecommons.org/ns#" xmlns:rdf="http://www.w3.org/1999/02/22-rdf-syntax-ns#">
   <cc:Work>
    <dc:type rdf:resource="http://purl.org/dc/dcmitype/StillImage"/>
    <dc:date>2025-11-23T18:47:16.832605</dc:date>
    <dc:format>image/svg+xml</dc:format>
    <dc:creator>
     <cc:Agent>
      <dc:title>Matplotlib v3.10.7, https://matplotlib.org/</dc:title>
     </cc:Agent>
    </dc:creator>
   </cc:Work>
  </rdf:RDF>
 </metadata>
 <defs>
  <style type="text/css">*{stroke-linejoin: round; stroke-linecap: butt}</style>
 </defs>
 <g id="figure_1">
  <g id="patch_1">
   <path d="M 0 345.6 
L 460.8 345.6 
L 460.8 0 
L 0 0 
z
" style="fill: #ffffff"/>
  </g>
  <g id="axes_1">
   <g id="patch_2">
    <path d="M 39.58149 312.24351 
L 374.090604 312.24351 
L 374.090604 18.118365 
L 39.58149 18.118365 
z
" style="fill: #ffffff"/>
   </g>
   <g id="QuadContourSet_1">
    <path d="M 275.70557 312.24351 
L 276.83797 312.24351 
L 275.70557 298.408476 
L 275.2764 312.24351 
z
M 256.028564 251.330387 
L 261.248235 238.712224 
L 256.028564 222.225516 
L 253.233286 238.712224 
z
M 236.351557 169.442123 
L 237.924355 165.180938 
L 236.351557 160.501803 
L 235.551388 165.180938 
z
" clip-path="url(#p5b1ce6f840)" style="fill: #470d60"/>
    <path d="M 275.70557 298.408476 
L 276.83797 312.24351 
L 282.599008 312.24351 
L 280.005608 287.733081 
L 275.70557 274.794152 
L 266.0501 287.733081 
L 272.752458 312.24351 
L 275.2764 312.24351 
z
M 256.028564 267.916425 
L 260.298186 263.222652 
L 266.284056 238.712224 
L 259.367376 214.201795 
L 256.028564 206.449867 
L 246.478673 214.201795 
L 249.80193 238.712224 
L 255.684253 263.222652 
z
M 253.233286 238.712224 
L 256.028564 222.225516 
L 261.248235 238.712224 
L 256.028564 251.330387 
z
M 236.351557 188.193051 
L 244.096206 165.180938 
L 236.615347 140.670509 
L 236.351557 140.12831 
L 234.980605 140.670509 
L 231.789136 165.180938 
z
M 235.551388 165.180938 
L 236.351557 160.501803 
L 237.924355 165.180938 
L 236.351557 169.442123 
z
" clip-path="url(#p5b1ce6f840)" style="fill: #482173"/>
    <path d="M 256.028564 289.570368 
L 270.02719 312.24351 
L 272.752458 312.24351 
L 266.0501 287.733081 
L 275.70557 274.794152 
L 280.005608 287.733081 
L 282.599008 312.24351 
L 287.527693 312.24351 
L 284.393372 287.733081 
L 277.045948 263.222652 
L 275.70557 259.602542 
L 270.672364 238.712224 
L 264.572267 214.201795 
L 256.028564 192.748915 
L 252.975998 189.691366 
L 249.322285 165.180938 
L 243.091746 140.670509 
L 236.351557 125.415367 
L 216.67455 120.198242 
L 214.429888 140.670509 
L 216.67455 146.362806 
L 227.56099 165.180938 
L 232.586554 189.691366 
L 235.010143 214.201795 
L 236.351557 219.325456 
L 245.98729 238.712224 
L 253.437566 263.222652 
L 255.545542 287.733081 
z
M 255.684253 263.222652 
L 249.80193 238.712224 
L 246.478673 214.201795 
L 256.028564 206.449867 
L 259.367376 214.201795 
L 266.284056 238.712224 
L 260.298186 263.222652 
L 256.028564 267.916425 
z
M 231.789136 165.180938 
L 234.980605 140.670509 
L 236.351557 140.12831 
L 236.615347 140.670509 
L 244.096206 165.180938 
L 236.351557 188.193051 
z
M 216.67455 75.071781 
L 219.306956 67.139223 
L 216.67455 60.719 
L 207.792601 67.139223 
z
" clip-path="url(#p5b1ce6f840)" style="fill: #453581"/>
    <path d="M 256.028564 295.170007 
L 267.065672 312.24351 
L 270.02719 312.24351 
L 256.028564 289.570368 
L 255.545542 287.733081 
L 253.437566 263.222652 
L 245.98729 238.712224 
L 236.351557 219.325456 
L 235.010143 214.201795 
L 232.586554 189.691366 
L 227.56099 165.180938 
L 216.67455 146.362806 
L 214.429888 140.670509 
L 216.67455 120.198242 
L 236.351557 125.415367 
L 243.091746 140.670509 
L 249.322285 165.180937 
L 252.975998 189.691366 
L 256.028564 192.748915 
L 264.572267 214.201795 
L 270.672364 238.712224 
L 275.70557 259.602542 
L 277.045948 263.222652 
L 284.393372 287.733081 
L 287.527693 312.24351 
L 291.834456 312.24351 
L 288.281445 287.733081 
L 282.369634 263.222652 
L 275.70557 243.737092 
L 274.560863 238.712224 
L 269.088349 214.201795 
L 261.476621 189.691366 
L 256.028564 175.109155 
L 253.854302 165.180938 
L 248.534361 140.670509 
L 239.615333 116.16008 
L 236.351557 107.871743 
L 224.301329 91.649651 
L 226.54824 67.139223 
L 217.87069 42.628794 
L 216.67455 39.638229 
L 199.342935 42.628794 
L 196.997543 43.018883 
L 192.309555 67.139222 
L 196.997543 76.13589 
L 213.2419 91.649651 
L 208.207389 116.16008 
L 210.511041 140.670509 
L 216.67455 155.447292 
L 222.735036 165.180938 
L 227.961463 189.691366 
L 232.427019 214.201795 
L 236.351557 228.643127 
L 241.692844 238.712224 
L 251.032759 263.222652 
L 254.029837 287.733081 
z
M 207.792601 67.139222 
L 216.67455 60.719 
L 219.306956 67.139223 
L 216.67455 75.071781 
z
" clip-path="url(#p5b1ce6f840)" style="fill: #3e4989"/>
    <path d="M 256.028564 300.769645 
L 263.823025 312.24351 
L 267.065672 312.24351 
L 256.028564 295.170007 
L 254.029837 287.733081 
L 251.032759 263.222652 
L 241.692844 238.712224 
L 236.351557 228.643127 
L 232.427019 214.201795 
L 227.961463 189.691366 
L 222.735036 165.180938 
L 216.67455 155.447292 
L 210.511041 140.670509 
L 208.207389 116.16008 
L 213.2419 91.649651 
L 196.997543 76.13589 
L 192.309555 67.139223 
L 196.997543 43.018883 
L 199.342935 42.628794 
L 216.67455 39.638229 
L 217.87069 42.628794 
L 226.54824 67.139223 
L 224.301329 91.649651 
L 236.351557 107.871743 
L 239.615333 116.16008 
L 248.534361 140.670509 
L 253.854302 165.180938 
L 256.028564 175.109155 
L 261.476621 189.691366 
L 269.088349 214.201795 
L 274.560863 238.712224 
L 275.70557 243.737092 
L 282.369634 263.222652 
L 288.281445 287.733081 
L 291.834456 312.24351 
L 295.382577 312.24351 
L 295.843083 312.24351 
L 295.382577 310.720388 
L 291.77209 287.733081 
L 286.974837 263.222652 
L 280.109201 238.712224 
L 275.70557 226.82716 
L 273.076811 214.201795 
L 267.412794 189.691366 
L 259.864067 165.180938 
L 256.028564 155.020716 
L 253.228243 140.670509 
L 247.119502 116.16008 
L 239.198572 91.649651 
L 236.351557 85.02578 
L 232.520452 67.139223 
L 226.82152 42.628794 
L 218.811478 18.118365 
L 216.67455 18.118365 
L 196.997543 18.118365 
L 190.356414 18.118365 
L 181.180725 42.628794 
L 184.421416 67.139223 
L 196.997543 88.748401 
L 200.680825 91.649651 
L 196.997543 107.387081 
L 196.677373 116.16008 
L 196.997543 117.890448 
L 206.084032 140.670509 
L 216.67455 164.531777 
L 217.113948 165.180938 
L 222.611166 189.691366 
L 229.632616 214.201795 
L 236.351557 237.960798 
L 236.780291 238.712224 
L 248.445879 263.222652 
L 252.443793 287.733081 
z
" clip-path="url(#p5b1ce6f840)" style="fill: #375b8d"/>
    <path d="M 256.028564 306.369284 
L 260.24022 312.24351 
L 263.823025 312.24351 
L 256.028564 300.769645 
L 252.443793 287.733081 
L 248.445879 263.222652 
L 236.780291 238.712224 
L 236.351557 237.960798 
L 229.632616 214.201795 
L 222.611166 189.691366 
L 217.113948 165.180937 
L 216.67455 164.531777 
L 206.084032 140.670509 
L 196.997543 117.890448 
L 196.677373 116.16008 
L 196.997543 107.387081 
L 200.680825 91.649651 
L 196.997543 88.748401 
L 184.421416 67.139223 
L 181.180725 42.628794 
L 190.356414 18.118365 
L 180.717822 18.118365 
L 177.320537 24.525587 
L 173.739767 42.628794 
L 176.504824 67.139223 
L 177.320537 70.564019 
L 191.999885 91.649651 
L 194.072029 116.16008 
L 196.997543 131.384442 
L 200.997157 140.670509 
L 212.593148 165.180937 
L 216.54864 189.691366 
L 216.67455 190.215285 
L 226.58927 214.201795 
L 234.552306 238.712224 
L 236.351557 244.786194 
L 245.64708 263.222652 
L 250.780561 287.733081 
z
M 295.382577 310.720388 
L 295.843083 312.24351 
L 301.384309 312.24351 
L 295.382577 290.689313 
L 294.939074 287.733081 
L 291.032628 263.222652 
L 285.677035 238.712224 
L 277.880393 214.201795 
L 275.70557 207.45804 
L 272.469015 189.691366 
L 266.809625 165.180938 
L 259.140514 140.670509 
L 256.028564 130.966866 
L 253.269168 116.16008 
L 247.947249 91.649651 
L 239.42506 67.139223 
L 236.351557 57.417059 
L 233.908249 42.628794 
L 229.059959 18.118365 
L 218.811478 18.118365 
L 226.82152 42.628794 
L 232.520452 67.139223 
L 236.351557 85.02578 
L 239.198572 91.649651 
L 247.119502 116.16008 
L 253.228243 140.670509 
L 256.028564 155.020716 
L 259.864067 165.180938 
L 267.412794 189.691366 
L 273.076811 214.201795 
L 275.70557 226.82716 
L 280.109201 238.712224 
L 286.974837 263.222652 
L 291.77209 287.733081 
z
" clip-path="url(#p5b1ce6f840)" style="fill: #306a8e"/>
    <path d="M 256.028564 311.968922 
L 256.237438 312.24351 
L 260.24022 312.24351 
L 256.028564 306.369284 
L 250.780561 287.733081 
L 245.64708 263.222652 
L 236.351557 244.786194 
L 234.552306 238.712224 
L 226.58927 214.201795 
L 216.67455 190.215285 
L 216.54864 189.691366 
L 212.593148 165.180938 
L 200.997157 140.670509 
L 196.997543 131.384442 
L 194.072029 116.16008 
L 191.999885 91.649651 
L 177.320537 70.564019 
L 176.504824 67.139223 
L 173.739767 42.628794 
L 177.320537 24.525587 
L 180.717822 18.118365 
L 177.320537 18.118365 
L 157.64353 18.118365 
L 155.21938 18.118365 
L 157.64353 25.103125 
L 168.798963 42.628794 
L 173.390561 67.139223 
L 177.320537 82.912884 
L 184.180872 91.649651 
L 191.251604 116.16008 
L 196.246845 140.670509 
L 196.997543 144.503502 
L 207.57328 165.180938 
L 214.343125 189.691366 
L 216.67455 199.086381 
L 223.24825 214.201795 
L 232.481314 238.712224 
L 236.351557 251.39297 
L 242.598519 263.222652 
L 249.032242 287.733081 
z
M 295.382577 290.689313 
L 301.384309 312.24351 
L 306.151313 312.24351 
L 300.906327 287.733081 
L 295.382577 268.111637 
L 294.659431 263.222652 
L 290.463706 238.712224 
L 284.813017 214.201795 
L 278.048653 189.691366 
L 275.70557 182.079747 
L 272.579453 165.180938 
L 267.041661 140.670509 
L 260.81749 116.16008 
L 256.028564 98.269463 
L 254.906917 91.649651 
L 249.186946 67.139223 
L 243.11462 42.628794 
L 237.36287 18.118365 
L 236.351557 18.118365 
L 229.059959 18.118365 
L 233.908249 42.628794 
L 236.351557 57.417059 
L 239.42506 67.139223 
L 247.947249 91.649651 
L 253.269168 116.16008 
L 256.028564 130.966866 
L 259.140514 140.670509 
L 266.809625 165.180938 
L 272.469015 189.691366 
L 275.70557 207.45804 
L 277.880393 214.201795 
L 285.677035 238.712224 
L 291.032628 263.222652 
L 294.939074 287.733081 
z
" clip-path="url(#p5b1ce6f840)" style="fill: #297a8e"/>
    <path d="M 256.028564 312.24351 
L 256.237438 312.24351 
L 256.028564 311.968922 
L 249.032242 287.733081 
L 242.598519 263.222652 
L 236.351557 251.39297 
L 232.481314 238.712224 
L 223.24825 214.201795 
L 216.67455 199.086381 
L 214.343125 189.691366 
L 207.57328 165.180938 
L 196.997543 144.503502 
L 196.246845 140.670509 
L 191.251604 116.16008 
L 184.180872 91.649651 
L 177.320537 82.912884 
L 173.390561 67.139223 
L 168.798963 42.628794 
L 157.64353 25.103125 
L 155.21938 18.118365 
L 151.504225 18.118365 
L 157.64353 34.891059 
L 163.02135 42.628794 
L 169.963865 67.139223 
L 176.48239 91.649651 
L 177.320537 93.901247 
L 188.177364 116.16008 
L 193.721873 140.670509 
L 196.997543 156.795156 
L 201.687186 165.180938 
L 211.985431 189.691366 
L 216.67455 207.957478 
L 219.544946 214.201795 
L 230.276709 238.712224 
L 236.351557 257.999745 
L 239.251211 263.222652 
L 247.189661 287.733081 
L 253.713335 312.24351 
z
M 306.420304 287.733081 
L 301.023063 263.222652 
L 295.382577 243.362591 
L 294.66168 238.712224 
L 290.573926 214.201795 
L 285.361598 189.691366 
L 279.311454 165.180938 
L 275.70557 153.151592 
L 273.45502 140.670509 
L 268.910195 116.16008 
L 263.774188 91.649651 
L 257.297245 67.139223 
L 256.028564 63.086628 
L 252.005533 42.628794 
L 247.747469 18.118365 
L 237.36287 18.118365 
L 243.11462 42.628794 
L 249.186946 67.139223 
L 254.906917 91.649651 
L 256.028564 98.269463 
L 260.81749 116.16008 
L 267.041661 140.670509 
L 272.579453 165.180938 
L 275.70557 182.079747 
L 278.048653 189.691366 
L 284.813017 214.201795 
L 290.463706 238.712224 
L 294.659431 263.222652 
L 295.382577 268.111637 
L 300.906327 287.733081 
L 306.151313 312.24351 
L 310.334157 312.24351 
z
" clip-path="url(#p5b1ce6f840)" style="fill: #23898e"/>
    <path d="M 39.58149 312.24351 
L 59.258497 312.24351 
L 78.935503 312.24351 
L 98.61251 312.24351 
L 118.289517 312.24351 
L 137.966523 312.24351 
L 157.64353 312.24351 
L 168.614489 312.24351 
L 157.64353 303.830616 
L 140.695924 287.733081 
L 137.966523 286.136873 
L 118.289517 274.015931 
L 109.583469 263.222652 
L 98.61251 252.628637 
L 78.935503 241.851356 
L 75.441808 238.712224 
L 59.258497 224.410303 
L 50.419534 214.201795 
L 39.58149 205.249572 
L 19.904483 194.492426 
L 19.904483 214.201795 
L 19.904483 238.712224 
L 19.904483 263.222652 
L 19.904483 287.733081 
L 19.904483 312.24351 
z
M 247.189661 287.733081 
L 239.251211 263.222652 
L 236.351557 257.999745 
L 230.276709 238.712224 
L 219.544946 214.201795 
L 216.67455 207.957478 
L 211.985431 189.691366 
L 201.687186 165.180938 
L 196.997543 156.795156 
L 193.721873 140.670509 
L 188.177364 116.16008 
L 177.320537 93.901247 
L 176.48239 91.649651 
L 169.963865 67.139223 
L 163.02135 42.628794 
L 157.64353 34.891059 
L 151.504225 18.118365 
L 147.335487 18.118365 
L 156.889571 42.628794 
L 157.64353 45.097727 
L 166.154983 67.139223 
L 173.451027 91.649651 
L 177.320537 101.598896 
L 184.799067 116.16008 
L 190.995405 140.670509 
L 195.822482 165.180938 
L 196.997543 166.996946 
L 209.452991 189.691366 
L 215.556975 214.201795 
L 216.67455 215.920048 
L 227.920056 238.712224 
L 235.708243 263.222652 
L 236.351557 264.470114 
L 245.242068 287.733081 
L 251.096738 312.24351 
L 253.713335 312.24351 
z
M 311.167139 287.733081 
L 307.059194 263.222652 
L 301.905462 238.712224 
L 295.648274 214.201795 
L 295.382577 213.397347 
L 291.382411 189.691366 
L 287.24163 165.180938 
L 281.780262 140.670509 
L 275.70557 117.803389 
L 275.448988 116.16008 
L 271.335869 91.649651 
L 267.231549 67.139223 
L 261.935012 42.628794 
L 256.028564 20.384772 
L 255.701404 18.118365 
L 247.747469 18.118365 
L 252.005533 42.628794 
L 256.028564 63.086628 
L 257.297245 67.139223 
L 263.774188 91.649651 
L 268.910195 116.16008 
L 273.45502 140.670509 
L 275.70557 153.151592 
L 279.311454 165.180938 
L 285.361598 189.691366 
L 290.573926 214.201795 
L 294.66168 238.712224 
L 295.382577 243.362591 
L 301.023063 263.222652 
L 306.420304 287.733081 
L 310.334157 312.24351 
L 314.060507 312.24351 
z
M 433.121624 312.24351 
L 452.79863 312.24351 
L 472.475637 312.24351 
L 492.152644 312.24351 
L 511.82965 312.24351 
L 531.506657 312.24351 
L 551.183664 312.24351 
L 570.86067 312.24351 
L 590.537677 312.24351 
L 610.214684 312.24351 
L 629.891691 312.24351 
L 649.568697 312.24351 
L 669.245704 312.24351 
L 688.922711 312.24351 
L 708.599717 312.24351 
L 728.276724 312.24351 
L 747.953731 312.24351 
L 767.630737 312.24351 
L 787.307744 312.24351 
L 806.984751 312.24351 
L 826.661757 312.24351 
L 846.338764 312.24351 
L 866.015771 312.24351 
L 885.692777 312.24351 
L 885.692777 287.733081 
L 885.692777 263.222652 
L 885.692777 238.712224 
L 885.692777 214.201795 
L 885.692777 189.691366 
L 885.692777 165.180938 
L 885.692777 140.670509 
L 885.692777 116.16008 
L 885.692777 91.649651 
L 885.692777 67.139223 
L 885.692777 42.628794 
L 885.692777 18.118365 
L 866.015771 18.118365 
L 846.338764 18.118365 
L 826.661757 18.118365 
L 806.984751 18.118365 
L 787.307744 18.118365 
L 767.630737 18.118365 
L 747.953731 18.118365 
L 728.276724 18.118365 
L 708.599717 18.118365 
L 688.922711 18.118365 
L 669.245704 18.118365 
L 649.568697 18.118365 
L 629.891691 18.118365 
L 610.214684 18.118365 
L 590.537677 18.118365 
L 570.86067 18.118365 
L 551.183664 18.118365 
L 531.506657 18.118365 
L 511.82965 18.118365 
L 492.152644 18.118365 
L 472.475637 18.118365 
L 452.79863 18.118365 
L 433.121624 18.118365 
L 413.444617 18.118365 
L 393.76761 18.118365 
L 374.090604 18.118365 
L 362.803467 18.118365 
L 369.044141 42.628794 
L 373.299999 67.139223 
L 374.090604 72.266449 
L 382.721009 91.649651 
L 389.514665 116.16008 
L 393.56577 140.670509 
L 393.76761 142.11697 
L 404.682002 165.180938 
L 410.281994 189.691366 
L 413.345319 214.201795 
L 413.444617 215.149973 
L 420.550963 238.712224 
L 424.407879 263.222652 
L 424.740307 287.733081 
L 419.19519 312.24351 
z
" clip-path="url(#p5b1ce6f840)" style="fill: #1f978b"/>
    <path d="M 157.64353 303.830616 
L 168.614489 312.24351 
L 177.320537 312.24351 
L 189.758856 312.24351 
L 177.320537 300.395391 
L 166.852834 287.733081 
L 157.64353 278.604359 
L 142.055147 263.222652 
L 137.966523 259.598665 
L 118.289517 245.577058 
L 113.492391 238.712224 
L 98.61251 222.966157 
L 91.694662 214.201795 
L 78.935503 202.030065 
L 68.439858 189.691366 
L 59.258497 180.449586 
L 39.58149 167.075526 
L 38.333747 165.180938 
L 19.904483 146.285658 
L 19.904483 165.180938 
L 19.904483 189.691366 
L 19.904483 194.492426 
L 39.58149 205.249572 
L 50.419534 214.201795 
L 59.258497 224.410303 
L 75.441808 238.712224 
L 78.935503 241.851356 
L 98.61251 252.628637 
L 109.583469 263.222652 
L 118.289517 274.015931 
L 137.966523 286.136873 
L 140.695924 287.733081 
z
M 245.242068 287.733081 
L 236.351557 264.470114 
L 235.708243 263.222652 
L 227.920056 238.712224 
L 216.67455 215.920048 
L 215.556975 214.201795 
L 209.452991 189.691366 
L 196.997543 166.996946 
L 195.822482 165.180938 
L 190.995405 140.670509 
L 184.799067 116.16008 
L 177.320537 101.598896 
L 173.451027 91.649651 
L 166.154983 67.139222 
L 157.64353 45.097727 
L 156.889571 42.628794 
L 147.335487 18.118365 
L 142.586803 18.118365 
L 153.041372 42.628794 
L 157.64353 56.884751 
L 161.867837 67.139223 
L 170.124444 91.649651 
L 177.320537 109.296545 
L 181.049901 116.16008 
L 188.032471 140.670509 
L 191.836703 165.180938 
L 196.997543 172.711867 
L 206.717812 189.691366 
L 211.487437 214.201795 
L 216.67455 221.722891 
L 225.388816 238.712224 
L 232.458165 263.222652 
L 236.351557 270.425663 
L 243.176769 287.733081 
L 248.263117 312.24351 
L 251.096738 312.24351 
z
M 315.059584 312.24351 
L 319.298327 312.24351 
L 315.560086 287.733081 
L 315.059584 285.285837 
L 312.187703 263.222652 
L 308.506168 238.712224 
L 304.532714 214.201795 
L 298.053693 189.691366 
L 295.382577 178.996937 
L 293.674072 165.180938 
L 289.960657 140.670509 
L 286.106682 116.16008 
L 280.5533 91.649651 
L 275.70557 73.748681 
L 274.919376 67.139223 
L 272.168695 42.628794 
L 268.593825 18.118365 
L 256.028564 18.118365 
L 255.701404 18.118365 
L 256.028564 20.384772 
L 261.935012 42.628794 
L 267.231549 67.139223 
L 271.335869 91.649651 
L 275.448988 116.16008 
L 275.70557 117.803389 
L 281.780262 140.670509 
L 287.24163 165.180938 
L 291.382411 189.691366 
L 295.382577 213.397347 
L 295.648274 214.201795 
L 301.905462 238.712224 
L 307.059194 263.222652 
L 311.167139 287.733081 
L 314.060507 312.24351 
z
M 413.444617 312.24351 
L 419.19519 312.24351 
L 424.740307 287.733081 
L 424.407879 263.222652 
L 420.550963 238.712224 
L 413.444617 215.149973 
L 413.345319 214.201795 
L 410.281994 189.691366 
L 404.682002 165.180938 
L 393.76761 142.11697 
L 393.56577 140.670509 
L 389.514665 116.16008 
L 382.721009 91.649651 
L 374.090604 72.266449 
L 373.299999 67.139223 
L 369.044141 42.628794 
L 362.803467 18.118365 
L 354.413597 18.118365 
L 340.904068 18.118365 
L 349.687011 42.628794 
L 354.413597 58.954348 
L 357.672482 67.139223 
L 365.246403 91.649651 
L 370.516743 116.16008 
L 374.090604 135.928915 
L 376.202515 140.670509 
L 384.377221 165.180938 
L 389.417629 189.691366 
L 393.041757 214.201795 
L 393.76761 220.417479 
L 399.498932 238.712224 
L 403.79292 263.222652 
L 405.059549 287.733081 
L 403.226553 312.24351 
z
" clip-path="url(#p5b1ce6f840)" style="fill: #22a785"/>
    <path d="M 177.320537 300.395391 
L 189.758856 312.24351 
L 196.997543 312.24351 
L 201.640674 312.24351 
L 196.997543 307.378174 
L 180.133774 287.733081 
L 177.320537 284.848209 
L 159.560243 263.222652 
L 157.64353 261.286786 
L 138.34013 238.712224 
L 137.966523 238.345463 
L 118.289517 216.242592 
L 116.858652 214.201795 
L 98.61251 196.402558 
L 93.245667 189.691366 
L 78.935503 174.28292 
L 72.46826 165.180938 
L 59.258497 152.272235 
L 50.823449 140.670509 
L 39.58149 128.413557 
L 29.363856 116.16008 
L 19.904483 106.737831 
L 19.904483 116.16008 
L 19.904483 140.670509 
L 19.904483 146.285658 
L 38.333747 165.180938 
L 39.58149 167.075526 
L 59.258497 180.449586 
L 68.439858 189.691366 
L 78.935503 202.030065 
L 91.694662 214.201795 
L 98.61251 222.966157 
L 113.492391 238.712224 
L 118.289517 245.577058 
L 137.966523 259.598665 
L 142.055147 263.222652 
L 157.64353 278.604359 
L 166.852834 287.733081 
z
M 243.176769 287.733081 
L 236.351557 270.425663 
L 232.458165 263.222652 
L 225.388816 238.712224 
L 216.67455 221.722891 
L 211.487437 214.201795 
L 206.717812 189.691366 
L 196.997543 172.711867 
L 191.836703 165.180938 
L 188.032471 140.670509 
L 181.049901 116.16008 
L 177.320537 109.296545 
L 170.124444 91.649651 
L 161.867837 67.139223 
L 157.64353 56.884751 
L 153.041372 42.628794 
L 142.586803 18.118365 
L 137.966523 18.118365 
L 136.845608 18.118365 
L 137.966523 19.852057 
L 148.704335 42.628794 
L 156.674611 67.139223 
L 157.64353 68.640507 
L 166.438874 91.649651 
L 176.497229 116.16008 
L 177.320537 117.437316 
L 184.788124 140.670509 
L 187.324061 165.180938 
L 196.997543 178.426788 
L 203.744587 189.691366 
L 206.867093 214.201795 
L 216.67455 227.525733 
L 222.655037 238.712224 
L 228.866285 263.222652 
L 236.351557 276.381212 
L 240.978614 287.733081 
L 245.173192 312.24351 
L 248.263117 312.24351 
z
M 322.028036 287.733081 
L 318.104296 263.222652 
L 315.059584 247.394636 
L 314.036225 238.712224 
L 311.577848 214.201795 
L 307.673289 189.691366 
L 303.947084 165.180938 
L 298.641799 140.670509 
L 295.382577 126.350318 
L 294.390097 116.16008 
L 292.602387 91.649651 
L 291.592071 67.139223 
L 292.357794 42.628794 
L 295.382577 28.140513 
L 301.026209 18.118365 
L 295.382577 18.118365 
L 275.70557 18.118365 
L 268.593825 18.118365 
L 272.168695 42.628794 
L 274.919376 67.139223 
L 275.70557 73.748681 
L 280.5533 91.649651 
L 286.106682 116.16008 
L 289.960657 140.670509 
L 293.674072 165.180938 
L 295.382577 178.996937 
L 298.053693 189.691366 
L 304.532714 214.201795 
L 308.506168 238.712224 
L 312.187703 263.222652 
L 315.059584 285.285837 
L 315.560086 287.733081 
L 319.298327 312.24351 
L 324.477759 312.24351 
z
M 393.76761 312.24351 
L 403.226553 312.24351 
L 405.059549 287.733081 
L 403.79292 263.222652 
L 399.498932 238.712224 
L 393.76761 220.417479 
L 393.041757 214.201795 
L 389.417629 189.691366 
L 384.377221 165.180938 
L 376.202515 140.670509 
L 374.090604 135.928915 
L 370.516743 116.16008 
L 365.246403 91.649651 
L 357.672482 67.139223 
L 354.413597 58.954348 
L 349.687011 42.628794 
L 340.904068 18.118365 
L 334.73659 18.118365 
L 322.160006 18.118365 
L 330.238941 42.628794 
L 334.73659 54.663831 
L 340.519345 67.139223 
L 349.868434 91.649651 
L 354.413597 104.228599 
L 358.711245 116.16008 
L 365.541875 140.670509 
L 370.944196 165.180938 
L 374.090604 181.322 
L 377.088823 189.691366 
L 383.53198 214.201795 
L 387.825683 238.712224 
L 390.634805 263.222652 
L 391.967516 287.733081 
L 391.803178 312.24351 
z
" clip-path="url(#p5b1ce6f840)" style="fill: #32b67a"/>
    <path d="M 196.997543 307.378174 
L 201.640674 312.24351 
L 210.428241 312.24351 
L 196.997543 296.148895 
L 190.758865 287.733081 
L 177.320537 271.536139 
L 171.531988 263.222652 
L 157.64353 246.39784 
L 152.212714 238.712224 
L 137.966523 221.45659 
L 132.899681 214.201795 
L 118.289517 196.856129 
L 112.851736 189.691366 
L 98.61251 173.319741 
L 93.00734 165.180938 
L 78.935503 147.883462 
L 73.618316 140.670509 
L 59.258497 124.227856 
L 53.938555 116.16008 
L 39.58149 99.721172 
L 33.972604 91.649651 
L 19.904483 74.314286 
L 19.904483 91.649651 
L 19.904483 106.737831 
L 29.363856 116.16008 
L 39.58149 128.413557 
L 50.823449 140.670509 
L 59.258497 152.272235 
L 72.46826 165.180938 
L 78.935503 174.28292 
L 93.245667 189.691366 
L 98.61251 196.402558 
L 116.858652 214.201795 
L 118.289517 216.242592 
L 137.966523 238.345463 
L 138.34013 238.712224 
L 157.64353 261.286786 
L 159.560243 263.222652 
L 177.320537 284.848209 
L 180.133774 287.733081 
z
M 240.978614 287.733081 
L 236.351557 276.381212 
L 228.866285 263.222652 
L 222.655037 238.712224 
L 216.67455 227.525733 
L 206.867093 214.201795 
L 203.744587 189.691366 
L 196.997543 178.426788 
L 187.324061 165.180937 
L 184.788124 140.670509 
L 177.320537 117.437316 
L 176.497229 116.16008 
L 166.438874 91.649651 
L 157.64353 68.640507 
L 156.674611 67.139223 
L 148.704335 42.628794 
L 137.966523 19.852057 
L 136.845608 18.118365 
L 128.362455 18.118365 
L 137.966523 31.2819 
L 143.735945 42.628794 
L 148.132149 67.139223 
L 157.64353 80.187036 
L 162.307357 91.649651 
L 167.785527 116.16008 
L 177.320537 129.224341 
L 181.203244 140.670509 
L 182.123742 165.180938 
L 196.997543 184.14171 
L 200.487896 189.691366 
L 201.523151 214.201795 
L 216.67455 233.328576 
L 219.683466 238.712224 
L 224.85217 263.222652 
L 236.351557 282.336761 
L 238.62933 287.733081 
L 241.775942 312.24351 
L 245.173192 312.24351 
z
M 327.464689 287.733081 
L 325.174058 263.222652 
L 322.578379 238.712224 
L 320.254006 214.201795 
L 315.383722 189.691366 
L 315.059584 187.93428 
L 313.335186 165.180938 
L 311.874477 140.670509 
L 311.323581 116.16008 
L 312.763067 91.649651 
L 315.059584 77.307309 
L 323.110883 91.649651 
L 334.73659 104.55337 
L 340.42572 116.16008 
L 352.099803 140.670509 
L 354.413597 145.236579 
L 360.718464 165.180938 
L 366.900576 189.691366 
L 372.021702 214.201795 
L 374.090604 225.499145 
L 377.690135 238.712224 
L 382.463586 263.222652 
L 385.27897 287.733081 
L 386.244118 312.24351 
L 391.803178 312.24351 
L 391.967516 287.733081 
L 390.634805 263.222652 
L 387.825683 238.712224 
L 383.53198 214.201795 
L 377.088823 189.691366 
L 374.090604 181.322 
L 370.944196 165.180938 
L 365.541875 140.670509 
L 358.711245 116.16008 
L 354.413597 104.228599 
L 349.868434 91.649651 
L 340.519345 67.139223 
L 334.73659 54.663831 
L 330.238941 42.628794 
L 322.160006 18.118365 
L 315.059584 18.118365 
L 301.026209 18.118365 
L 295.382577 28.140513 
L 292.357794 42.628794 
L 291.592071 67.139223 
L 292.602387 91.649651 
L 294.390097 116.16008 
L 295.382577 126.350318 
L 298.641799 140.670509 
L 303.947084 165.180938 
L 307.673289 189.691366 
L 311.577848 214.201795 
L 314.036225 238.712224 
L 315.059584 247.394636 
L 318.104296 263.222652 
L 322.028036 287.733081 
L 324.477759 312.24351 
L 328.974673 312.24351 
z
" clip-path="url(#p5b1ce6f840)" style="fill: #4cc26c"/>
    <path d="M 196.997543 296.148895 
L 210.428241 312.24351 
L 216.67455 312.24351 
L 222.129039 312.24351 
L 216.67455 310.961048 
L 199.729508 287.733081 
L 196.997543 284.109127 
L 182.411979 263.222652 
L 177.320537 257.321368 
L 164.601632 238.712224 
L 157.64353 230.128515 
L 146.997871 214.201795 
L 137.966523 203.443744 
L 128.691517 189.691366 
L 118.289517 177.507081 
L 109.845596 165.180938 
L 98.61251 150.646237 
L 92.427705 140.670509 
L 78.935503 121.338409 
L 75.619038 116.16008 
L 59.258497 92.849897 
L 58.517954 91.649651 
L 40.416837 67.139223 
L 39.58149 66.2043 
L 23.362742 42.628794 
L 19.904483 39.275871 
L 19.904483 42.628794 
L 19.904483 67.139223 
L 19.904483 74.314286 
L 33.972604 91.649651 
L 39.58149 99.721172 
L 53.938555 116.16008 
L 59.258497 124.227856 
L 73.618316 140.670509 
L 78.935503 147.883462 
L 93.00734 165.180938 
L 98.61251 173.319741 
L 112.851736 189.691366 
L 118.289517 196.856129 
L 132.899681 214.201795 
L 137.966523 221.45659 
L 152.212714 238.712224 
L 157.64353 246.39784 
L 171.531988 263.222652 
L 177.320537 271.536139 
L 190.758865 287.733081 
z
M 236.351557 292.352801 
L 238.003413 312.24351 
L 241.775942 312.24351 
L 238.62933 287.733081 
L 236.351557 282.336761 
L 224.85217 263.222652 
L 219.683466 238.712224 
L 216.67455 233.328576 
L 201.523151 214.201795 
L 200.487896 189.691366 
L 196.997543 184.14171 
L 182.123742 165.180937 
L 181.203244 140.670509 
L 177.320537 129.224341 
L 167.785527 116.16008 
L 162.307357 91.649651 
L 157.64353 80.187036 
L 148.132149 67.139223 
L 143.735945 42.628794 
L 137.966523 31.2819 
L 128.362455 18.118365 
L 118.289517 18.118365 
L 116.628475 18.118365 
L 113.064816 42.628794 
L 118.289517 48.947967 
L 136.16548 67.139223 
L 137.966523 74.226294 
L 157.183861 91.649651 
L 155.053681 116.16008 
L 157.64353 119.349446 
L 176.776433 140.670509 
L 171.92921 165.180938 
L 177.320537 171.364876 
L 196.301804 189.691366 
L 181.649619 214.201795 
L 196.997543 223.954601 
L 214.327955 238.712224 
L 216.67455 240.982866 
L 220.30316 263.222652 
L 235.7031 287.733081 
z
M 332.154138 287.733081 
L 331.029247 263.222652 
L 330.148037 238.712224 
L 330.060276 214.201795 
L 330.743025 189.691366 
L 334.406835 165.180938 
L 334.73659 164.071408 
L 335.601244 165.180938 
L 354.413597 187.356485 
L 355.182977 189.691366 
L 362.096306 214.201795 
L 367.677401 238.712224 
L 372.400013 263.222652 
L 374.090604 273.059713 
L 376.955223 287.733081 
L 379.602012 312.24351 
L 386.244118 312.24351 
L 385.27897 287.733081 
L 382.463586 263.222652 
L 377.690135 238.712224 
L 374.090604 225.499145 
L 372.021702 214.201795 
L 366.900576 189.691366 
L 360.718464 165.180938 
L 354.413597 145.236579 
L 352.099803 140.670509 
L 340.42572 116.16008 
L 334.73659 104.55337 
L 323.110883 91.649651 
L 315.059584 77.307309 
L 312.763067 91.649651 
L 311.323581 116.16008 
L 311.874477 140.670509 
L 313.335186 165.180938 
L 315.059584 187.93428 
L 315.383722 189.691366 
L 320.254006 214.201795 
L 322.578379 238.712224 
L 325.174058 263.222652 
L 327.464689 287.733081 
L 328.974673 312.24351 
L 332.94818 312.24351 
z
M 118.289517 117.478518 
L 121.125963 116.16008 
L 118.289517 112.444483 
L 117.418284 116.16008 
z
" clip-path="url(#p5b1ce6f840)" style="fill: #70cf57"/>
    <path d="M 216.67455 310.961048 
L 222.129039 312.24351 
L 236.351557 312.24351 
L 238.003413 312.24351 
L 236.351557 292.352801 
L 235.7031 287.733081 
L 220.30316 263.222652 
L 216.67455 240.982866 
L 214.327955 238.712224 
L 196.997543 223.954601 
L 181.649619 214.201795 
L 196.301804 189.691366 
L 177.320537 171.364876 
L 171.92921 165.180938 
L 176.776433 140.670509 
L 157.64353 119.349446 
L 155.053681 116.16008 
L 157.183861 91.649651 
L 137.966523 74.226294 
L 136.16548 67.139223 
L 118.289517 48.947967 
L 113.064816 42.628794 
L 116.628475 18.118365 
L 98.61251 18.118365 
L 78.935503 18.118365 
L 73.285304 18.118365 
L 66.761116 42.628794 
L 78.935503 56.794318 
L 89.745307 67.139223 
L 98.61251 77.950723 
L 112.082476 91.649651 
L 102.304011 116.16008 
L 98.61251 122.111719 
L 95.730608 116.16008 
L 78.935503 94.783713 
L 77.249347 91.649651 
L 62.908071 67.139223 
L 59.258497 61.952871 
L 48.413724 42.628794 
L 39.58149 29.306549 
L 31.963446 18.118365 
L 19.904483 18.118365 
L 19.904483 39.275871 
L 23.362742 42.628794 
L 39.58149 66.2043 
L 40.416837 67.139223 
L 58.517954 91.649651 
L 59.258497 92.849897 
L 75.619038 116.16008 
L 78.935503 121.338409 
L 92.427705 140.670509 
L 98.61251 150.646237 
L 109.845596 165.180938 
L 118.289517 177.507081 
L 128.691517 189.691366 
L 137.966523 203.443744 
L 146.997871 214.201795 
L 157.64353 230.128515 
L 164.601632 238.712224 
L 177.320537 257.321368 
L 182.411979 263.222652 
L 196.997543 284.109127 
L 199.729508 287.733081 
z
M 208.870319 287.733081 
L 216.67455 268.396278 
L 227.906075 287.733081 
L 216.67455 299.863382 
z
M 193.136729 263.222652 
L 196.997543 252.755356 
L 210.148758 263.222652 
L 196.997543 269.644972 
z
M 175.628199 238.712224 
L 177.320537 234.712321 
L 183.085989 238.712224 
L 177.320537 241.605253 
z
M 143.267492 189.691366 
L 137.966523 182.565514 
L 126.828298 165.180938 
L 137.966523 154.50184 
L 149.69309 165.180938 
L 157.64353 174.414747 
L 172.696696 189.691366 
L 157.64353 211.896406 
z
M 113.123648 140.670509 
L 118.289517 135.729395 
L 124.151324 140.670509 
L 118.289517 150.882134 
z
M 117.418284 116.16008 
L 118.289517 112.444483 
L 121.125963 116.16008 
L 118.289517 117.478518 
z
M 334.73659 312.24351 
L 341.680709 312.24351 
L 341.565937 287.733081 
L 342.348683 263.222652 
L 349.961133 238.712224 
L 354.413597 233.560479 
L 355.946724 238.712224 
L 362.135588 263.222652 
L 367.141839 287.733081 
L 371.023749 312.24351 
L 374.090604 312.24351 
L 379.602012 312.24351 
L 376.955223 287.733081 
L 374.090604 273.059713 
L 372.400013 263.222652 
L 367.677401 238.712224 
L 362.096306 214.201795 
L 355.182977 189.691366 
L 354.413597 187.356485 
L 335.601244 165.180938 
L 334.73659 164.071408 
L 334.406835 165.180938 
L 330.743025 189.691366 
L 330.060276 214.201795 
L 330.148037 238.712224 
L 331.029247 263.222652 
L 332.154138 287.733081 
L 332.94818 312.24351 
z
" clip-path="url(#p5b1ce6f840)" style="fill: #98d83e"/>
    <path d="M 216.67455 299.863382 
L 227.906075 287.733081 
L 216.67455 268.396278 
L 208.870319 287.733081 
z
M 216.07535 287.733081 
L 216.67455 286.086967 
L 217.788131 287.733081 
L 216.67455 288.765717 
z
M 354.413597 289.76695 
L 358.485995 312.24351 
L 371.023749 312.24351 
L 367.141839 287.733081 
L 362.135588 263.222652 
L 355.946724 238.712224 
L 354.413597 233.560479 
L 349.961133 238.712224 
L 342.348683 263.222652 
L 341.565937 287.733081 
L 341.680709 312.24351 
L 352.193369 312.24351 
z
M 196.997543 269.644972 
L 210.148758 263.222652 
L 196.997543 252.755356 
L 193.136729 263.222652 
z
M 177.320537 241.605253 
L 183.085989 238.712224 
L 177.320537 234.712321 
L 175.628199 238.712224 
z
M 157.64353 211.896406 
L 172.696696 189.691366 
L 157.64353 174.414747 
L 149.69309 165.180938 
L 137.966523 154.50184 
L 126.828298 165.180938 
L 137.966523 182.565514 
L 143.267492 189.691366 
z
M 118.289517 150.882134 
L 124.151324 140.670509 
L 118.289517 135.729395 
L 113.123648 140.670509 
z
M 98.61251 122.111719 
L 102.304011 116.16008 
L 112.082476 91.649651 
L 98.61251 77.950723 
L 89.745307 67.139223 
L 78.935503 56.794318 
L 66.761116 42.628794 
L 73.285304 18.118365 
L 61.008649 18.118365 
L 59.258497 22.334475 
L 57.255185 18.118365 
L 39.58149 18.118365 
L 31.963446 18.118365 
L 39.58149 29.306549 
L 48.413724 42.628794 
L 59.258497 61.952871 
L 62.908071 67.139223 
L 77.249347 91.649651 
L 78.935503 94.783713 
L 95.730608 116.16008 
z
" clip-path="url(#p5b1ce6f840)" style="fill: #c2df23"/>
    <path d="M 216.67455 288.765717 
L 217.788131 287.733081 
L 216.67455 286.086967 
L 216.07535 287.733081 
z
M 354.413597 312.24351 
L 358.485995 312.24351 
L 354.413597 289.76695 
L 352.193369 312.24351 
z
M 59.258497 22.334475 
L 61.008649 18.118365 
L 59.258497 18.118365 
L 57.255185 18.118365 
z
" clip-path="url(#p5b1ce6f840)" style="fill: #ece51b"/>
   </g>
   <g id="PathCollection_1">
    <defs>
     <path id="m175ce657bd" d="M -3 3 
L 3 -3 
M -3 -3 
L 3 3 
" style="stroke: #ff0000; stroke-width: 1.5"/>
    </defs>
    <g clip-path="url(#p5b1ce6f840)">
     <use xlink:href="#m175ce657bd" x="354.413597" y="312.24351" style="fill: #ff0000; stroke: #ff0000; stroke-width: 1.5"/>
     <use xlink:href="#m175ce657bd" x="216.67455" y="287.733081" style="fill: #ff0000; stroke: #ff0000; stroke-width: 1.5"/>
     <use xlink:href="#m175ce657bd" x="354.413597" y="263.222652" style="fill: #ff0000; stroke: #ff0000; stroke-width: 1.5"/>
     <use xlink:href="#m175ce657bd" x="177.320537" y="238.712224" style="fill: #ff0000; stroke: #ff0000; stroke-width: 1.5"/>
     <use xlink:href="#m175ce657bd" x="157.64353" y="214.201795" style="fill: #ff0000; stroke: #ff0000; stroke-width: 1.5"/>
     <use xlink:href="#m175ce657bd" x="157.64353" y="189.691366" style="fill: #ff0000; stroke: #ff0000; stroke-width: 1.5"/>
     <use xlink:href="#m175ce657bd" x="137.966523" y="165.180938" style="fill: #ff0000; stroke: #ff0000; stroke-width: 1.5"/>
     <use xlink:href="#m175ce657bd" x="118.289517" y="140.670509" style="fill: #ff0000; stroke: #ff0000; stroke-width: 1.5"/>
     <use xlink:href="#m175ce657bd" x="98.61251" y="116.16008" style="fill: #ff0000; stroke: #ff0000; stroke-width: 1.5"/>
     <use xlink:href="#m175ce657bd" x="98.61251" y="91.649651" style="fill: #ff0000; stroke: #ff0000; stroke-width: 1.5"/>
     <use xlink:href="#m175ce657bd" x="78.935503" y="67.139223" style="fill: #ff0000; stroke: #ff0000; stroke-width: 1.5"/>
     <use xlink:href="#m175ce657bd" x="59.258497" y="42.628794" style="fill: #ff0000; stroke: #ff0000; stroke-width: 1.5"/>
     <use xlink:href="#m175ce657bd" x="59.258497" y="18.118365" style="fill: #ff0000; stroke: #ff0000; stroke-width: 1.5"/>
    </g>
   </g>
   <g id="matplotlib.axis_1">
    <g id="xtick_1">
     <g id="line2d_1">
      <defs>
       <path id="mdadcca67e0" d="M 0 0 
L 0 3.5 
" style="stroke: #000000; stroke-width: 0.8"/>
      </defs>
      <g>
       <use xlink:href="#mdadcca67e0" x="98.61251" y="312.24351" style="stroke: #000000; stroke-width: 0.8"/>
      </g>
     </g>
     <g id="text_1">
      <!-- $\mathdefault{10^{-4}}$ -->
      <g transform="translate(86.86251 326.841947) scale(0.1 -0.1)">
       <defs>
        <path id="DejaVuSans-31" d="M 794 531 
L 1825 531 
L 1825 4091 
L 703 3866 
L 703 4441 
L 1819 4666 
L 2450 4666 
L 2450 531 
L 3481 531 
L 3481 0 
L 794 0 
L 794 531 
z
" transform="scale(0.015625)"/>
        <path id="DejaVuSans-30" d="M 2034 4250 
Q 1547 4250 1301 3770 
Q 1056 3291 1056 2328 
Q 1056 1369 1301 889 
Q 1547 409 2034 409 
Q 2525 409 2770 889 
Q 3016 1369 3016 2328 
Q 3016 3291 2770 3770 
Q 2525 4250 2034 4250 
z
M 2034 4750 
Q 2819 4750 3233 4129 
Q 3647 3509 3647 2328 
Q 3647 1150 3233 529 
Q 2819 -91 2034 -91 
Q 1250 -91 836 529 
Q 422 1150 422 2328 
Q 422 3509 836 4129 
Q 1250 4750 2034 4750 
z
" transform="scale(0.015625)"/>
        <path id="DejaVuSans-2212" d="M 678 2272 
L 4684 2272 
L 4684 1741 
L 678 1741 
L 678 2272 
z
" transform="scale(0.015625)"/>
        <path id="DejaVuSans-34" d="M 2419 4116 
L 825 1625 
L 2419 1625 
L 2419 4116 
z
M 2253 4666 
L 3047 4666 
L 3047 1625 
L 3713 1625 
L 3713 1100 
L 3047 1100 
L 3047 0 
L 2419 0 
L 2419 1100 
L 313 1100 
L 313 1709 
L 2253 4666 
z
" transform="scale(0.015625)"/>
       </defs>
       <use xlink:href="#DejaVuSans-31" transform="translate(0 0.684375)"/>
       <use xlink:href="#DejaVuSans-30" transform="translate(63.623047 0.684375)"/>
       <use xlink:href="#DejaVuSans-2212" transform="translate(128.203125 38.965625) scale(0.7)"/>
       <use xlink:href="#DejaVuSans-34" transform="translate(186.855469 38.965625) scale(0.7)"/>
      </g>
     </g>
    </g>
    <g id="xtick_2">
     <g id="line2d_2">
      <g>
       <use xlink:href="#mdadcca67e0" x="177.320537" y="312.24351" style="stroke: #000000; stroke-width: 0.8"/>
      </g>
     </g>
     <g id="text_2">
      <!-- $\mathdefault{10^{-3}}$ -->
      <g transform="translate(165.570537 326.841947) scale(0.1 -0.1)">
       <defs>
        <path id="DejaVuSans-33" d="M 2597 2516 
Q 3050 2419 3304 2112 
Q 3559 1806 3559 1356 
Q 3559 666 3084 287 
Q 2609 -91 1734 -91 
Q 1441 -91 1130 -33 
Q 819 25 488 141 
L 488 750 
Q 750 597 1062 519 
Q 1375 441 1716 441 
Q 2309 441 2620 675 
Q 2931 909 2931 1356 
Q 2931 1769 2642 2001 
Q 2353 2234 1838 2234 
L 1294 2234 
L 1294 2753 
L 1863 2753 
Q 2328 2753 2575 2939 
Q 2822 3125 2822 3475 
Q 2822 3834 2567 4026 
Q 2313 4219 1838 4219 
Q 1578 4219 1281 4162 
Q 984 4106 628 3988 
L 628 4550 
Q 988 4650 1302 4700 
Q 1616 4750 1894 4750 
Q 2613 4750 3031 4423 
Q 3450 4097 3450 3541 
Q 3450 3153 3228 2886 
Q 3006 2619 2597 2516 
z
" transform="scale(0.015625)"/>
       </defs>
       <use xlink:href="#DejaVuSans-31" transform="translate(0 0.765625)"/>
       <use xlink:href="#DejaVuSans-30" transform="translate(63.623047 0.765625)"/>
       <use xlink:href="#DejaVuSans-2212" transform="translate(128.203125 39.046875) scale(0.7)"/>
       <use xlink:href="#DejaVuSans-33" transform="translate(186.855469 39.046875) scale(0.7)"/>
      </g>
     </g>
    </g>
    <g id="xtick_3">
     <g id="line2d_3">
      <g>
       <use xlink:href="#mdadcca67e0" x="256.028564" y="312.24351" style="stroke: #000000; stroke-width: 0.8"/>
      </g>
     </g>
     <g id="text_3">
      <!-- $\mathdefault{10^{-2}}$ -->
      <g transform="translate(244.278564 326.841947) scale(0.1 -0.1)">
       <defs>
        <path id="DejaVuSans-32" d="M 1228 531 
L 3431 531 
L 3431 0 
L 469 0 
L 469 531 
Q 828 903 1448 1529 
Q 2069 2156 2228 2338 
Q 2531 2678 2651 2914 
Q 2772 3150 2772 3378 
Q 2772 3750 2511 3984 
Q 2250 4219 1831 4219 
Q 1534 4219 1204 4116 
Q 875 4013 500 3803 
L 500 4441 
Q 881 4594 1212 4672 
Q 1544 4750 1819 4750 
Q 2544 4750 2975 4387 
Q 3406 4025 3406 3419 
Q 3406 3131 3298 2873 
Q 3191 2616 2906 2266 
Q 2828 2175 2409 1742 
Q 1991 1309 1228 531 
z
" transform="scale(0.015625)"/>
       </defs>
       <use xlink:href="#DejaVuSans-31" transform="translate(0 0.765625)"/>
       <use xlink:href="#DejaVuSans-30" transform="translate(63.623047 0.765625)"/>
       <use xlink:href="#DejaVuSans-2212" transform="translate(128.203125 39.046875) scale(0.7)"/>
       <use xlink:href="#DejaVuSans-32" transform="translate(186.855469 39.046875) scale(0.7)"/>
      </g>
     </g>
    </g>
    <g id="xtick_4">
     <g id="line2d_4">
      <g>
       <use xlink:href="#mdadcca67e0" x="334.73659" y="312.24351" style="stroke: #000000; stroke-width: 0.8"/>
      </g>
     </g>
     <g id="text_4">
      <!-- $\mathdefault{10^{-1}}$ -->
      <g transform="translate(322.98659 326.841947) scale(0.1 -0.1)">
       <use xlink:href="#DejaVuSans-31" transform="translate(0 0.684375)"/>
       <use xlink:href="#DejaVuSans-30" transform="translate(63.623047 0.684375)"/>
       <use xlink:href="#DejaVuSans-2212" transform="translate(128.203125 38.965625) scale(0.7)"/>
       <use xlink:href="#DejaVuSans-31" transform="translate(186.855469 38.965625) scale(0.7)"/>
      </g>
     </g>
    </g>
    <g id="xtick_5">
     <g id="line2d_5">
      <defs>
       <path id="m437a6cbd00" d="M 0 0 
L 0 2 
" style="stroke: #000000; stroke-width: 0.6"/>
      </defs>
      <g>
       <use xlink:href="#m437a6cbd00" x="43.59796" y="312.24351" style="stroke: #000000; stroke-width: 0.6"/>
      </g>
     </g>
    </g>
    <g id="xtick_6">
     <g id="line2d_6">
      <g>
       <use xlink:href="#m437a6cbd00" x="57.457756" y="312.24351" style="stroke: #000000; stroke-width: 0.6"/>
      </g>
     </g>
    </g>
    <g id="xtick_7">
     <g id="line2d_7">
      <g>
       <use xlink:href="#m437a6cbd00" x="67.291437" y="312.24351" style="stroke: #000000; stroke-width: 0.6"/>
      </g>
     </g>
    </g>
    <g id="xtick_8">
     <g id="line2d_8">
      <g>
       <use xlink:href="#m437a6cbd00" x="74.919033" y="312.24351" style="stroke: #000000; stroke-width: 0.6"/>
      </g>
     </g>
    </g>
    <g id="xtick_9">
     <g id="line2d_9">
      <g>
       <use xlink:href="#m437a6cbd00" x="81.151233" y="312.24351" style="stroke: #000000; stroke-width: 0.6"/>
      </g>
     </g>
    </g>
    <g id="xtick_10">
     <g id="line2d_10">
      <g>
       <use xlink:href="#m437a6cbd00" x="86.420482" y="312.24351" style="stroke: #000000; stroke-width: 0.6"/>
      </g>
     </g>
    </g>
    <g id="xtick_11">
     <g id="line2d_11">
      <g>
       <use xlink:href="#m437a6cbd00" x="90.984914" y="312.24351" style="stroke: #000000; stroke-width: 0.6"/>
      </g>
     </g>
    </g>
    <g id="xtick_12">
     <g id="line2d_12">
      <g>
       <use xlink:href="#m437a6cbd00" x="95.011028" y="312.24351" style="stroke: #000000; stroke-width: 0.6"/>
      </g>
     </g>
    </g>
    <g id="xtick_13">
     <g id="line2d_13">
      <g>
       <use xlink:href="#m437a6cbd00" x="122.305987" y="312.24351" style="stroke: #000000; stroke-width: 0.6"/>
      </g>
     </g>
    </g>
    <g id="xtick_14">
     <g id="line2d_14">
      <g>
       <use xlink:href="#m437a6cbd00" x="136.165783" y="312.24351" style="stroke: #000000; stroke-width: 0.6"/>
      </g>
     </g>
    </g>
    <g id="xtick_15">
     <g id="line2d_15">
      <g>
       <use xlink:href="#m437a6cbd00" x="145.999464" y="312.24351" style="stroke: #000000; stroke-width: 0.6"/>
      </g>
     </g>
    </g>
    <g id="xtick_16">
     <g id="line2d_16">
      <g>
       <use xlink:href="#m437a6cbd00" x="153.62706" y="312.24351" style="stroke: #000000; stroke-width: 0.6"/>
      </g>
     </g>
    </g>
    <g id="xtick_17">
     <g id="line2d_17">
      <g>
       <use xlink:href="#m437a6cbd00" x="159.859259" y="312.24351" style="stroke: #000000; stroke-width: 0.6"/>
      </g>
     </g>
    </g>
    <g id="xtick_18">
     <g id="line2d_18">
      <g>
       <use xlink:href="#m437a6cbd00" x="165.128509" y="312.24351" style="stroke: #000000; stroke-width: 0.6"/>
      </g>
     </g>
    </g>
    <g id="xtick_19">
     <g id="line2d_19">
      <g>
       <use xlink:href="#m437a6cbd00" x="169.692941" y="312.24351" style="stroke: #000000; stroke-width: 0.6"/>
      </g>
     </g>
    </g>
    <g id="xtick_20">
     <g id="line2d_20">
      <g>
       <use xlink:href="#m437a6cbd00" x="173.719055" y="312.24351" style="stroke: #000000; stroke-width: 0.6"/>
      </g>
     </g>
    </g>
    <g id="xtick_21">
     <g id="line2d_21">
      <g>
       <use xlink:href="#m437a6cbd00" x="201.014014" y="312.24351" style="stroke: #000000; stroke-width: 0.6"/>
      </g>
     </g>
    </g>
    <g id="xtick_22">
     <g id="line2d_22">
      <g>
       <use xlink:href="#m437a6cbd00" x="214.873809" y="312.24351" style="stroke: #000000; stroke-width: 0.6"/>
      </g>
     </g>
    </g>
    <g id="xtick_23">
     <g id="line2d_23">
      <g>
       <use xlink:href="#m437a6cbd00" x="224.707491" y="312.24351" style="stroke: #000000; stroke-width: 0.6"/>
      </g>
     </g>
    </g>
    <g id="xtick_24">
     <g id="line2d_24">
      <g>
       <use xlink:href="#m437a6cbd00" x="232.335087" y="312.24351" style="stroke: #000000; stroke-width: 0.6"/>
      </g>
     </g>
    </g>
    <g id="xtick_25">
     <g id="line2d_25">
      <g>
       <use xlink:href="#m437a6cbd00" x="238.567286" y="312.24351" style="stroke: #000000; stroke-width: 0.6"/>
      </g>
     </g>
    </g>
    <g id="xtick_26">
     <g id="line2d_26">
      <g>
       <use xlink:href="#m437a6cbd00" x="243.836536" y="312.24351" style="stroke: #000000; stroke-width: 0.6"/>
      </g>
     </g>
    </g>
    <g id="xtick_27">
     <g id="line2d_27">
      <g>
       <use xlink:href="#m437a6cbd00" x="248.400968" y="312.24351" style="stroke: #000000; stroke-width: 0.6"/>
      </g>
     </g>
    </g>
    <g id="xtick_28">
     <g id="line2d_28">
      <g>
       <use xlink:href="#m437a6cbd00" x="252.427082" y="312.24351" style="stroke: #000000; stroke-width: 0.6"/>
      </g>
     </g>
    </g>
    <g id="xtick_29">
     <g id="line2d_29">
      <g>
       <use xlink:href="#m437a6cbd00" x="279.72204" y="312.24351" style="stroke: #000000; stroke-width: 0.6"/>
      </g>
     </g>
    </g>
    <g id="xtick_30">
     <g id="line2d_30">
      <g>
       <use xlink:href="#m437a6cbd00" x="293.581836" y="312.24351" style="stroke: #000000; stroke-width: 0.6"/>
      </g>
     </g>
    </g>
    <g id="xtick_31">
     <g id="line2d_31">
      <g>
       <use xlink:href="#m437a6cbd00" x="303.415517" y="312.24351" style="stroke: #000000; stroke-width: 0.6"/>
      </g>
     </g>
    </g>
    <g id="xtick_32">
     <g id="line2d_32">
      <g>
       <use xlink:href="#m437a6cbd00" x="311.043113" y="312.24351" style="stroke: #000000; stroke-width: 0.6"/>
      </g>
     </g>
    </g>
    <g id="xtick_33">
     <g id="line2d_33">
      <g>
       <use xlink:href="#m437a6cbd00" x="317.275313" y="312.24351" style="stroke: #000000; stroke-width: 0.6"/>
      </g>
     </g>
    </g>
    <g id="xtick_34">
     <g id="line2d_34">
      <g>
       <use xlink:href="#m437a6cbd00" x="322.544563" y="312.24351" style="stroke: #000000; stroke-width: 0.6"/>
      </g>
     </g>
    </g>
    <g id="xtick_35">
     <g id="line2d_35">
      <g>
       <use xlink:href="#m437a6cbd00" x="327.108994" y="312.24351" style="stroke: #000000; stroke-width: 0.6"/>
      </g>
     </g>
    </g>
    <g id="xtick_36">
     <g id="line2d_36">
      <g>
       <use xlink:href="#m437a6cbd00" x="331.135108" y="312.24351" style="stroke: #000000; stroke-width: 0.6"/>
      </g>
     </g>
    </g>
    <g id="xtick_37">
     <g id="line2d_37">
      <g>
       <use xlink:href="#m437a6cbd00" x="358.430067" y="312.24351" style="stroke: #000000; stroke-width: 0.6"/>
      </g>
     </g>
    </g>
    <g id="xtick_38">
     <g id="line2d_38">
      <g>
       <use xlink:href="#m437a6cbd00" x="372.289863" y="312.24351" style="stroke: #000000; stroke-width: 0.6"/>
      </g>
     </g>
    </g>
    <g id="text_5">
     <!-- bandwidth -->
     <g transform="translate(180.473547 340.520072) scale(0.1 -0.1)">
      <defs>
       <path id="DejaVuSans-62" d="M 3116 1747 
Q 3116 2381 2855 2742 
Q 2594 3103 2138 3103 
Q 1681 3103 1420 2742 
Q 1159 2381 1159 1747 
Q 1159 1113 1420 752 
Q 1681 391 2138 391 
Q 2594 391 2855 752 
Q 3116 1113 3116 1747 
z
M 1159 2969 
Q 1341 3281 1617 3432 
Q 1894 3584 2278 3584 
Q 2916 3584 3314 3078 
Q 3713 2572 3713 1747 
Q 3713 922 3314 415 
Q 2916 -91 2278 -91 
Q 1894 -91 1617 61 
Q 1341 213 1159 525 
L 1159 0 
L 581 0 
L 581 4863 
L 1159 4863 
L 1159 2969 
z
" transform="scale(0.015625)"/>
       <path id="DejaVuSans-61" d="M 2194 1759 
Q 1497 1759 1228 1600 
Q 959 1441 959 1056 
Q 959 750 1161 570 
Q 1363 391 1709 391 
Q 2188 391 2477 730 
Q 2766 1069 2766 1631 
L 2766 1759 
L 2194 1759 
z
M 3341 1997 
L 3341 0 
L 2766 0 
L 2766 531 
Q 2569 213 2275 61 
Q 1981 -91 1556 -91 
Q 1019 -91 701 211 
Q 384 513 384 1019 
Q 384 1609 779 1909 
Q 1175 2209 1959 2209 
L 2766 2209 
L 2766 2266 
Q 2766 2663 2505 2880 
Q 2244 3097 1772 3097 
Q 1472 3097 1187 3025 
Q 903 2953 641 2809 
L 641 3341 
Q 956 3463 1253 3523 
Q 1550 3584 1831 3584 
Q 2591 3584 2966 3190 
Q 3341 2797 3341 1997 
z
" transform="scale(0.015625)"/>
       <path id="DejaVuSans-6e" d="M 3513 2113 
L 3513 0 
L 2938 0 
L 2938 2094 
Q 2938 2591 2744 2837 
Q 2550 3084 2163 3084 
Q 1697 3084 1428 2787 
Q 1159 2491 1159 1978 
L 1159 0 
L 581 0 
L 581 3500 
L 1159 3500 
L 1159 2956 
Q 1366 3272 1645 3428 
Q 1925 3584 2291 3584 
Q 2894 3584 3203 3211 
Q 3513 2838 3513 2113 
z
" transform="scale(0.015625)"/>
       <path id="DejaVuSans-64" d="M 2906 2969 
L 2906 4863 
L 3481 4863 
L 3481 0 
L 2906 0 
L 2906 525 
Q 2725 213 2448 61 
Q 2172 -91 1784 -91 
Q 1150 -91 751 415 
Q 353 922 353 1747 
Q 353 2572 751 3078 
Q 1150 3584 1784 3584 
Q 2172 3584 2448 3432 
Q 2725 3281 2906 2969 
z
M 947 1747 
Q 947 1113 1208 752 
Q 1469 391 1925 391 
Q 2381 391 2643 752 
Q 2906 1113 2906 1747 
Q 2906 2381 2643 2742 
Q 2381 3103 1925 3103 
Q 1469 3103 1208 2742 
Q 947 2381 947 1747 
z
" transform="scale(0.015625)"/>
       <path id="DejaVuSans-77" d="M 269 3500 
L 844 3500 
L 1563 769 
L 2278 3500 
L 2956 3500 
L 3675 769 
L 4391 3500 
L 4966 3500 
L 4050 0 
L 3372 0 
L 2619 2869 
L 1863 0 
L 1184 0 
L 269 3500 
z
" transform="scale(0.015625)"/>
       <path id="DejaVuSans-69" d="M 603 3500 
L 1178 3500 
L 1178 0 
L 603 0 
L 603 3500 
z
M 603 4863 
L 1178 4863 
L 1178 4134 
L 603 4134 
L 603 4863 
z
" transform="scale(0.015625)"/>
       <path id="DejaVuSans-74" d="M 1172 4494 
L 1172 3500 
L 2356 3500 
L 2356 3053 
L 1172 3053 
L 1172 1153 
Q 1172 725 1289 603 
Q 1406 481 1766 481 
L 2356 481 
L 2356 0 
L 1766 0 
Q 1100 0 847 248 
Q 594 497 594 1153 
L 594 3053 
L 172 3053 
L 172 3500 
L 594 3500 
L 594 4494 
L 1172 4494 
z
" transform="scale(0.015625)"/>
       <path id="DejaVuSans-68" d="M 3513 2113 
L 3513 0 
L 2938 0 
L 2938 2094 
Q 2938 2591 2744 2837 
Q 2550 3084 2163 3084 
Q 1697 3084 1428 2787 
Q 1159 2491 1159 1978 
L 1159 0 
L 581 0 
L 581 4863 
L 1159 4863 
L 1159 2956 
Q 1366 3272 1645 3428 
Q 1925 3584 2291 3584 
Q 2894 3584 3203 3211 
Q 3513 2838 3513 2113 
z
" transform="scale(0.015625)"/>
      </defs>
      <use xlink:href="#DejaVuSans-62"/>
      <use xlink:href="#DejaVuSans-61" transform="translate(63.476562 0)"/>
      <use xlink:href="#DejaVuSans-6e" transform="translate(124.755859 0)"/>
      <use xlink:href="#DejaVuSans-64" transform="translate(188.134766 0)"/>
      <use xlink:href="#DejaVuSans-77" transform="translate(251.611328 0)"/>
      <use xlink:href="#DejaVuSans-69" transform="translate(333.398438 0)"/>
      <use xlink:href="#DejaVuSans-64" transform="translate(361.181641 0)"/>
      <use xlink:href="#DejaVuSans-74" transform="translate(424.658203 0)"/>
      <use xlink:href="#DejaVuSans-68" transform="translate(463.867188 0)"/>
     </g>
    </g>
   </g>
   <g id="matplotlib.axis_2">
    <g id="ytick_1">
     <g id="line2d_39">
      <defs>
       <path id="me123c6ecc8" d="M 0 0 
L -3.5 0 
" style="stroke: #000000; stroke-width: 0.8"/>
      </defs>
      <g>
       <use xlink:href="#me123c6ecc8" x="39.58149" y="312.24351" style="stroke: #000000; stroke-width: 0.8"/>
      </g>
     </g>
     <g id="text_6">
      <!-- 1.0 -->
      <g transform="translate(16.678365 316.042729) scale(0.1 -0.1)">
       <defs>
        <path id="DejaVuSans-2e" d="M 684 794 
L 1344 794 
L 1344 0 
L 684 0 
L 684 794 
z
" transform="scale(0.015625)"/>
       </defs>
       <use xlink:href="#DejaVuSans-31"/>
       <use xlink:href="#DejaVuSans-2e" transform="translate(63.623047 0)"/>
       <use xlink:href="#DejaVuSans-30" transform="translate(95.410156 0)"/>
      </g>
     </g>
    </g>
    <g id="ytick_2">
     <g id="line2d_40">
      <g>
       <use xlink:href="#me123c6ecc8" x="39.58149" y="263.222652" style="stroke: #000000; stroke-width: 0.8"/>
      </g>
     </g>
     <g id="text_7">
      <!-- 1.5 -->
      <g transform="translate(16.678365 267.021871) scale(0.1 -0.1)">
       <defs>
        <path id="DejaVuSans-35" d="M 691 4666 
L 3169 4666 
L 3169 4134 
L 1269 4134 
L 1269 2991 
Q 1406 3038 1543 3061 
Q 1681 3084 1819 3084 
Q 2600 3084 3056 2656 
Q 3513 2228 3513 1497 
Q 3513 744 3044 326 
Q 2575 -91 1722 -91 
Q 1428 -91 1123 -41 
Q 819 9 494 109 
L 494 744 
Q 775 591 1075 516 
Q 1375 441 1709 441 
Q 2250 441 2565 725 
Q 2881 1009 2881 1497 
Q 2881 1984 2565 2268 
Q 2250 2553 1709 2553 
Q 1456 2553 1204 2497 
Q 953 2441 691 2322 
L 691 4666 
z
" transform="scale(0.015625)"/>
       </defs>
       <use xlink:href="#DejaVuSans-31"/>
       <use xlink:href="#DejaVuSans-2e" transform="translate(63.623047 0)"/>
       <use xlink:href="#DejaVuSans-35" transform="translate(95.410156 0)"/>
      </g>
     </g>
    </g>
    <g id="ytick_3">
     <g id="line2d_41">
      <g>
       <use xlink:href="#me123c6ecc8" x="39.58149" y="214.201795" style="stroke: #000000; stroke-width: 0.8"/>
      </g>
     </g>
     <g id="text_8">
      <!-- 2.0 -->
      <g transform="translate(16.678365 218.001014) scale(0.1 -0.1)">
       <use xlink:href="#DejaVuSans-32"/>
       <use xlink:href="#DejaVuSans-2e" transform="translate(63.623047 0)"/>
       <use xlink:href="#DejaVuSans-30" transform="translate(95.410156 0)"/>
      </g>
     </g>
    </g>
    <g id="ytick_4">
     <g id="line2d_42">
      <g>
       <use xlink:href="#me123c6ecc8" x="39.58149" y="165.180938" style="stroke: #000000; stroke-width: 0.8"/>
      </g>
     </g>
     <g id="text_9">
      <!-- 2.5 -->
      <g transform="translate(16.678365 168.980156) scale(0.1 -0.1)">
       <use xlink:href="#DejaVuSans-32"/>
       <use xlink:href="#DejaVuSans-2e" transform="translate(63.623047 0)"/>
       <use xlink:href="#DejaVuSans-35" transform="translate(95.410156 0)"/>
      </g>
     </g>
    </g>
    <g id="ytick_5">
     <g id="line2d_43">
      <g>
       <use xlink:href="#me123c6ecc8" x="39.58149" y="116.16008" style="stroke: #000000; stroke-width: 0.8"/>
      </g>
     </g>
     <g id="text_10">
      <!-- 3.0 -->
      <g transform="translate(16.678365 119.959299) scale(0.1 -0.1)">
       <use xlink:href="#DejaVuSans-33"/>
       <use xlink:href="#DejaVuSans-2e" transform="translate(63.623047 0)"/>
       <use xlink:href="#DejaVuSans-30" transform="translate(95.410156 0)"/>
      </g>
     </g>
    </g>
    <g id="ytick_6">
     <g id="line2d_44">
      <g>
       <use xlink:href="#me123c6ecc8" x="39.58149" y="67.139223" style="stroke: #000000; stroke-width: 0.8"/>
      </g>
     </g>
     <g id="text_11">
      <!-- 3.5 -->
      <g transform="translate(16.678365 70.938441) scale(0.1 -0.1)">
       <use xlink:href="#DejaVuSans-33"/>
       <use xlink:href="#DejaVuSans-2e" transform="translate(63.623047 0)"/>
       <use xlink:href="#DejaVuSans-35" transform="translate(95.410156 0)"/>
      </g>
     </g>
    </g>
    <g id="ytick_7">
     <g id="line2d_45">
      <g>
       <use xlink:href="#me123c6ecc8" x="39.58149" y="18.118365" style="stroke: #000000; stroke-width: 0.8"/>
      </g>
     </g>
     <g id="text_12">
      <!-- 4.0 -->
      <g transform="translate(16.678365 21.917584) scale(0.1 -0.1)">
       <use xlink:href="#DejaVuSans-34"/>
       <use xlink:href="#DejaVuSans-2e" transform="translate(63.623047 0)"/>
       <use xlink:href="#DejaVuSans-30" transform="translate(95.410156 0)"/>
      </g>
     </g>
    </g>
    <g id="text_13">
     <!-- alpha -->
     <g transform="translate(10.598677 179.041094) rotate(-90) scale(0.1 -0.1)">
      <defs>
       <path id="DejaVuSans-6c" d="M 603 4863 
L 1178 4863 
L 1178 0 
L 603 0 
L 603 4863 
z
" transform="scale(0.015625)"/>
       <path id="DejaVuSans-70" d="M 1159 525 
L 1159 -1331 
L 581 -1331 
L 581 3500 
L 1159 3500 
L 1159 2969 
Q 1341 3281 1617 3432 
Q 1894 3584 2278 3584 
Q 2916 3584 3314 3078 
Q 3713 2572 3713 1747 
Q 3713 922 3314 415 
Q 2916 -91 2278 -91 
Q 1894 -91 1617 61 
Q 1341 213 1159 525 
z
M 3116 1747 
Q 3116 2381 2855 2742 
Q 2594 3103 2138 3103 
Q 1681 3103 1420 2742 
Q 1159 2381 1159 1747 
Q 1159 1113 1420 752 
Q 1681 391 2138 391 
Q 2594 391 2855 752 
Q 3116 1113 3116 1747 
z
" transform="scale(0.015625)"/>
      </defs>
      <use xlink:href="#DejaVuSans-61"/>
      <use xlink:href="#DejaVuSans-6c" transform="translate(61.279297 0)"/>
      <use xlink:href="#DejaVuSans-70" transform="translate(89.0625 0)"/>
      <use xlink:href="#DejaVuSans-68" transform="translate(152.539062 0)"/>
      <use xlink:href="#DejaVuSans-61" transform="translate(215.917969 0)"/>
     </g>
    </g>
   </g>
   <g id="patch_3">
    <path d="M 39.58149 312.24351 
L 39.58149 18.118365 
" style="fill: none; stroke: #000000; stroke-width: 0.8; stroke-linejoin: miter; stroke-linecap: square"/>
   </g>
   <g id="patch_4">
    <path d="M 374.090604 312.24351 
L 374.090604 18.118365 
" style="fill: none; stroke: #000000; stroke-width: 0.8; stroke-linejoin: miter; stroke-linecap: square"/>
   </g>
   <g id="patch_5">
    <path d="M 39.58149 312.24351 
L 374.090604 312.24351 
" style="fill: none; stroke: #000000; stroke-width: 0.8; stroke-linejoin: miter; stroke-linecap: square"/>
   </g>
   <g id="patch_6">
    <path d="M 39.58149 18.118365 
L 374.090604 18.118365 
" style="fill: none; stroke: #000000; stroke-width: 0.8; stroke-linejoin: miter; stroke-linecap: square"/>
   </g>
   <g id="text_14">
    <!-- espirales_lo 1188 fkdc -->
    <g transform="translate(139.798234 12.118365) scale(0.12 -0.12)">
     <defs>
      <path id="DejaVuSans-65" d="M 3597 1894 
L 3597 1613 
L 953 1613 
Q 991 1019 1311 708 
Q 1631 397 2203 397 
Q 2534 397 2845 478 
Q 3156 559 3463 722 
L 3463 178 
Q 3153 47 2828 -22 
Q 2503 -91 2169 -91 
Q 1331 -91 842 396 
Q 353 884 353 1716 
Q 353 2575 817 3079 
Q 1281 3584 2069 3584 
Q 2775 3584 3186 3129 
Q 3597 2675 3597 1894 
z
M 3022 2063 
Q 3016 2534 2758 2815 
Q 2500 3097 2075 3097 
Q 1594 3097 1305 2825 
Q 1016 2553 972 2059 
L 3022 2063 
z
" transform="scale(0.015625)"/>
      <path id="DejaVuSans-73" d="M 2834 3397 
L 2834 2853 
Q 2591 2978 2328 3040 
Q 2066 3103 1784 3103 
Q 1356 3103 1142 2972 
Q 928 2841 928 2578 
Q 928 2378 1081 2264 
Q 1234 2150 1697 2047 
L 1894 2003 
Q 2506 1872 2764 1633 
Q 3022 1394 3022 966 
Q 3022 478 2636 193 
Q 2250 -91 1575 -91 
Q 1294 -91 989 -36 
Q 684 19 347 128 
L 347 722 
Q 666 556 975 473 
Q 1284 391 1588 391 
Q 1994 391 2212 530 
Q 2431 669 2431 922 
Q 2431 1156 2273 1281 
Q 2116 1406 1581 1522 
L 1381 1569 
Q 847 1681 609 1914 
Q 372 2147 372 2553 
Q 372 3047 722 3315 
Q 1072 3584 1716 3584 
Q 2034 3584 2315 3537 
Q 2597 3491 2834 3397 
z
" transform="scale(0.015625)"/>
      <path id="DejaVuSans-72" d="M 2631 2963 
Q 2534 3019 2420 3045 
Q 2306 3072 2169 3072 
Q 1681 3072 1420 2755 
Q 1159 2438 1159 1844 
L 1159 0 
L 581 0 
L 581 3500 
L 1159 3500 
L 1159 2956 
Q 1341 3275 1631 3429 
Q 1922 3584 2338 3584 
Q 2397 3584 2469 3576 
Q 2541 3569 2628 3553 
L 2631 2963 
z
" transform="scale(0.015625)"/>
      <path id="DejaVuSans-5f" d="M 3263 -1063 
L 3263 -1509 
L -63 -1509 
L -63 -1063 
L 3263 -1063 
z
" transform="scale(0.015625)"/>
      <path id="DejaVuSans-6f" d="M 1959 3097 
Q 1497 3097 1228 2736 
Q 959 2375 959 1747 
Q 959 1119 1226 758 
Q 1494 397 1959 397 
Q 2419 397 2687 759 
Q 2956 1122 2956 1747 
Q 2956 2369 2687 2733 
Q 2419 3097 1959 3097 
z
M 1959 3584 
Q 2709 3584 3137 3096 
Q 3566 2609 3566 1747 
Q 3566 888 3137 398 
Q 2709 -91 1959 -91 
Q 1206 -91 779 398 
Q 353 888 353 1747 
Q 353 2609 779 3096 
Q 1206 3584 1959 3584 
z
" transform="scale(0.015625)"/>
      <path id="DejaVuSans-20" transform="scale(0.015625)"/>
      <path id="DejaVuSans-38" d="M 2034 2216 
Q 1584 2216 1326 1975 
Q 1069 1734 1069 1313 
Q 1069 891 1326 650 
Q 1584 409 2034 409 
Q 2484 409 2743 651 
Q 3003 894 3003 1313 
Q 3003 1734 2745 1975 
Q 2488 2216 2034 2216 
z
M 1403 2484 
Q 997 2584 770 2862 
Q 544 3141 544 3541 
Q 544 4100 942 4425 
Q 1341 4750 2034 4750 
Q 2731 4750 3128 4425 
Q 3525 4100 3525 3541 
Q 3525 3141 3298 2862 
Q 3072 2584 2669 2484 
Q 3125 2378 3379 2068 
Q 3634 1759 3634 1313 
Q 3634 634 3220 271 
Q 2806 -91 2034 -91 
Q 1263 -91 848 271 
Q 434 634 434 1313 
Q 434 1759 690 2068 
Q 947 2378 1403 2484 
z
M 1172 3481 
Q 1172 3119 1398 2916 
Q 1625 2713 2034 2713 
Q 2441 2713 2670 2916 
Q 2900 3119 2900 3481 
Q 2900 3844 2670 4047 
Q 2441 4250 2034 4250 
Q 1625 4250 1398 4047 
Q 1172 3844 1172 3481 
z
" transform="scale(0.015625)"/>
      <path id="DejaVuSans-66" d="M 2375 4863 
L 2375 4384 
L 1825 4384 
Q 1516 4384 1395 4259 
Q 1275 4134 1275 3809 
L 1275 3500 
L 2222 3500 
L 2222 3053 
L 1275 3053 
L 1275 0 
L 697 0 
L 697 3053 
L 147 3053 
L 147 3500 
L 697 3500 
L 697 3744 
Q 697 4328 969 4595 
Q 1241 4863 1831 4863 
L 2375 4863 
z
" transform="scale(0.015625)"/>
      <path id="DejaVuSans-6b" d="M 581 4863 
L 1159 4863 
L 1159 1991 
L 2875 3500 
L 3609 3500 
L 1753 1863 
L 3688 0 
L 2938 0 
L 1159 1709 
L 1159 0 
L 581 0 
L 581 4863 
z
" transform="scale(0.015625)"/>
      <path id="DejaVuSans-63" d="M 3122 3366 
L 3122 2828 
Q 2878 2963 2633 3030 
Q 2388 3097 2138 3097 
Q 1578 3097 1268 2742 
Q 959 2388 959 1747 
Q 959 1106 1268 751 
Q 1578 397 2138 397 
Q 2388 397 2633 464 
Q 2878 531 3122 666 
L 3122 134 
Q 2881 22 2623 -34 
Q 2366 -91 2075 -91 
Q 1284 -91 818 406 
Q 353 903 353 1747 
Q 353 2603 823 3093 
Q 1294 3584 2113 3584 
Q 2378 3584 2631 3529 
Q 2884 3475 3122 3366 
z
" transform="scale(0.015625)"/>
     </defs>
     <use xlink:href="#DejaVuSans-65"/>
     <use xlink:href="#DejaVuSans-73" transform="translate(61.523438 0)"/>
     <use xlink:href="#DejaVuSans-70" transform="translate(113.623047 0)"/>
     <use xlink:href="#DejaVuSans-69" transform="translate(177.099609 0)"/>
     <use xlink:href="#DejaVuSans-72" transform="translate(204.882812 0)"/>
     <use xlink:href="#DejaVuSans-61" transform="translate(245.996094 0)"/>
     <use xlink:href="#DejaVuSans-6c" transform="translate(307.275391 0)"/>
     <use xlink:href="#DejaVuSans-65" transform="translate(335.058594 0)"/>
     <use xlink:href="#DejaVuSans-73" transform="translate(396.582031 0)"/>
     <use xlink:href="#DejaVuSans-5f" transform="translate(448.681641 0)"/>
     <use xlink:href="#DejaVuSans-6c" transform="translate(498.681641 0)"/>
     <use xlink:href="#DejaVuSans-6f" transform="translate(526.464844 0)"/>
     <use xlink:href="#DejaVuSans-20" transform="translate(587.646484 0)"/>
     <use xlink:href="#DejaVuSans-31" transform="translate(619.433594 0)"/>
     <use xlink:href="#DejaVuSans-31" transform="translate(683.056641 0)"/>
     <use xlink:href="#DejaVuSans-38" transform="translate(746.679688 0)"/>
     <use xlink:href="#DejaVuSans-38" transform="translate(810.302734 0)"/>
     <use xlink:href="#DejaVuSans-20" transform="translate(873.925781 0)"/>
     <use xlink:href="#DejaVuSans-66" transform="translate(905.712891 0)"/>
     <use xlink:href="#DejaVuSans-6b" transform="translate(940.917969 0)"/>
     <use xlink:href="#DejaVuSans-64" transform="translate(998.828125 0)"/>
     <use xlink:href="#DejaVuSans-63" transform="translate(1062.304688 0)"/>
    </g>
   </g>
  </g>
  <g id="axes_2">
   <g id="patch_7">
    <path d="M 390.816059 312.24351 
L 405.522317 312.24351 
L 405.522317 18.118365 
L 390.816059 18.118365 
z
" style="fill: #ffffff"/>
   </g>
   <g id="QuadMesh_1">
    <path d="M 390.816059 312.24351 
L 405.522317 312.24351 
L 405.522317 293.860688 
L 390.816059 293.860688 
L 390.816059 312.24351 
" clip-path="url(#pef4a2e8dcf)" style="fill: #470d60"/>
    <path d="M 390.816059 293.860688 
L 405.522317 293.860688 
L 405.522317 275.477867 
L 390.816059 275.477867 
L 390.816059 293.860688 
" clip-path="url(#pef4a2e8dcf)" style="fill: #482173"/>
    <path d="M 390.816059 275.477867 
L 405.522317 275.477867 
L 405.522317 257.095045 
L 390.816059 257.095045 
L 390.816059 275.477867 
" clip-path="url(#pef4a2e8dcf)" style="fill: #453581"/>
    <path d="M 390.816059 257.095045 
L 405.522317 257.095045 
L 405.522317 238.712224 
L 390.816059 238.712224 
L 390.816059 257.095045 
" clip-path="url(#pef4a2e8dcf)" style="fill: #3e4989"/>
    <path d="M 390.816059 238.712224 
L 405.522317 238.712224 
L 405.522317 220.329402 
L 390.816059 220.329402 
L 390.816059 238.712224 
" clip-path="url(#pef4a2e8dcf)" style="fill: #375b8d"/>
    <path d="M 390.816059 220.329402 
L 405.522317 220.329402 
L 405.522317 201.946581 
L 390.816059 201.946581 
L 390.816059 220.329402 
" clip-path="url(#pef4a2e8dcf)" style="fill: #306a8e"/>
    <path d="M 390.816059 201.946581 
L 405.522317 201.946581 
L 405.522317 183.563759 
L 390.816059 183.563759 
L 390.816059 201.946581 
" clip-path="url(#pef4a2e8dcf)" style="fill: #297a8e"/>
    <path d="M 390.816059 183.563759 
L 405.522317 183.563759 
L 405.522317 165.180937 
L 390.816059 165.180937 
L 390.816059 183.563759 
" clip-path="url(#pef4a2e8dcf)" style="fill: #23898e"/>
    <path d="M 390.816059 165.180937 
L 405.522317 165.180937 
L 405.522317 146.798116 
L 390.816059 146.798116 
L 390.816059 165.180937 
" clip-path="url(#pef4a2e8dcf)" style="fill: #1f978b"/>
    <path d="M 390.816059 146.798116 
L 405.522317 146.798116 
L 405.522317 128.415294 
L 390.816059 128.415294 
L 390.816059 146.798116 
" clip-path="url(#pef4a2e8dcf)" style="fill: #22a785"/>
    <path d="M 390.816059 128.415294 
L 405.522317 128.415294 
L 405.522317 110.032473 
L 390.816059 110.032473 
L 390.816059 128.415294 
" clip-path="url(#pef4a2e8dcf)" style="fill: #32b67a"/>
    <path d="M 390.816059 110.032473 
L 405.522317 110.032473 
L 405.522317 91.649651 
L 390.816059 91.649651 
L 390.816059 110.032473 
" clip-path="url(#pef4a2e8dcf)" style="fill: #4cc26c"/>
    <path d="M 390.816059 91.649651 
L 405.522317 91.649651 
L 405.522317 73.26683 
L 390.816059 73.26683 
L 390.816059 91.649651 
" clip-path="url(#pef4a2e8dcf)" style="fill: #70cf57"/>
    <path d="M 390.816059 73.26683 
L 405.522317 73.26683 
L 405.522317 54.884008 
L 390.816059 54.884008 
L 390.816059 73.26683 
" clip-path="url(#pef4a2e8dcf)" style="fill: #98d83e"/>
    <path d="M 390.816059 54.884008 
L 405.522317 54.884008 
L 405.522317 36.501187 
L 390.816059 36.501187 
L 390.816059 54.884008 
" clip-path="url(#pef4a2e8dcf)" style="fill: #c2df23"/>
    <path d="M 390.816059 36.501187 
L 405.522317 36.501187 
L 405.522317 18.118365 
L 390.816059 18.118365 
L 390.816059 36.501187 
" clip-path="url(#pef4a2e8dcf)" style="fill: #ece51b"/>
   </g>
   <g id="matplotlib.axis_3"/>
   <g id="matplotlib.axis_4">
    <g id="ytick_8">
     <g id="line2d_46">
      <defs>
       <path id="m3fd6e64b86" d="M 0 0 
L 3.5 0 
" style="stroke: #000000; stroke-width: 0.8"/>
      </defs>
      <g>
       <use xlink:href="#m3fd6e64b86" x="405.522317" y="312.24351" style="stroke: #000000; stroke-width: 0.8"/>
      </g>
     </g>
     <g id="text_15">
      <!-- 1.36 -->
      <g transform="translate(412.522317 316.042729) scale(0.1 -0.1)">
       <defs>
        <path id="DejaVuSans-36" d="M 2113 2584 
Q 1688 2584 1439 2293 
Q 1191 2003 1191 1497 
Q 1191 994 1439 701 
Q 1688 409 2113 409 
Q 2538 409 2786 701 
Q 3034 994 3034 1497 
Q 3034 2003 2786 2293 
Q 2538 2584 2113 2584 
z
M 3366 4563 
L 3366 3988 
Q 3128 4100 2886 4159 
Q 2644 4219 2406 4219 
Q 1781 4219 1451 3797 
Q 1122 3375 1075 2522 
Q 1259 2794 1537 2939 
Q 1816 3084 2150 3084 
Q 2853 3084 3261 2657 
Q 3669 2231 3669 1497 
Q 3669 778 3244 343 
Q 2819 -91 2113 -91 
Q 1303 -91 875 529 
Q 447 1150 447 2328 
Q 447 3434 972 4092 
Q 1497 4750 2381 4750 
Q 2619 4750 2861 4703 
Q 3103 4656 3366 4563 
z
" transform="scale(0.015625)"/>
       </defs>
       <use xlink:href="#DejaVuSans-2212"/>
       <use xlink:href="#DejaVuSans-31" transform="translate(83.789062 0)"/>
       <use xlink:href="#DejaVuSans-2e" transform="translate(147.412109 0)"/>
       <use xlink:href="#DejaVuSans-33" transform="translate(179.199219 0)"/>
       <use xlink:href="#DejaVuSans-36" transform="translate(242.822266 0)"/>
      </g>
     </g>
    </g>
    <g id="ytick_9">
     <g id="line2d_47">
      <g>
       <use xlink:href="#m3fd6e64b86" x="405.522317" y="275.477867" style="stroke: #000000; stroke-width: 0.8"/>
      </g>
     </g>
     <g id="text_16">
      <!-- 1.20 -->
      <g transform="translate(412.522317 279.277086) scale(0.1 -0.1)">
       <use xlink:href="#DejaVuSans-2212"/>
       <use xlink:href="#DejaVuSans-31" transform="translate(83.789062 0)"/>
       <use xlink:href="#DejaVuSans-2e" transform="translate(147.412109 0)"/>
       <use xlink:href="#DejaVuSans-32" transform="translate(179.199219 0)"/>
       <use xlink:href="#DejaVuSans-30" transform="translate(242.822266 0)"/>
      </g>
     </g>
    </g>
    <g id="ytick_10">
     <g id="line2d_48">
      <g>
       <use xlink:href="#m3fd6e64b86" x="405.522317" y="238.712224" style="stroke: #000000; stroke-width: 0.8"/>
      </g>
     </g>
     <g id="text_17">
      <!-- 1.04 -->
      <g transform="translate(412.522317 242.511442) scale(0.1 -0.1)">
       <use xlink:href="#DejaVuSans-2212"/>
       <use xlink:href="#DejaVuSans-31" transform="translate(83.789062 0)"/>
       <use xlink:href="#DejaVuSans-2e" transform="translate(147.412109 0)"/>
       <use xlink:href="#DejaVuSans-30" transform="translate(179.199219 0)"/>
       <use xlink:href="#DejaVuSans-34" transform="translate(242.822266 0)"/>
      </g>
     </g>
    </g>
    <g id="ytick_11">
     <g id="line2d_49">
      <g>
       <use xlink:href="#m3fd6e64b86" x="405.522317" y="201.946581" style="stroke: #000000; stroke-width: 0.8"/>
      </g>
     </g>
     <g id="text_18">
      <!-- 0.88 -->
      <g transform="translate(412.522317 205.745799) scale(0.1 -0.1)">
       <use xlink:href="#DejaVuSans-2212"/>
       <use xlink:href="#DejaVuSans-30" transform="translate(83.789062 0)"/>
       <use xlink:href="#DejaVuSans-2e" transform="translate(147.412109 0)"/>
       <use xlink:href="#DejaVuSans-38" transform="translate(179.199219 0)"/>
       <use xlink:href="#DejaVuSans-38" transform="translate(242.822266 0)"/>
      </g>
     </g>
    </g>
    <g id="ytick_12">
     <g id="line2d_50">
      <g>
       <use xlink:href="#m3fd6e64b86" x="405.522317" y="165.180937" style="stroke: #000000; stroke-width: 0.8"/>
      </g>
     </g>
     <g id="text_19">
      <!-- 0.72 -->
      <g transform="translate(412.522317 168.980156) scale(0.1 -0.1)">
       <defs>
        <path id="DejaVuSans-37" d="M 525 4666 
L 3525 4666 
L 3525 4397 
L 1831 0 
L 1172 0 
L 2766 4134 
L 525 4134 
L 525 4666 
z
" transform="scale(0.015625)"/>
       </defs>
       <use xlink:href="#DejaVuSans-2212"/>
       <use xlink:href="#DejaVuSans-30" transform="translate(83.789062 0)"/>
       <use xlink:href="#DejaVuSans-2e" transform="translate(147.412109 0)"/>
       <use xlink:href="#DejaVuSans-37" transform="translate(179.199219 0)"/>
       <use xlink:href="#DejaVuSans-32" transform="translate(242.822266 0)"/>
      </g>
     </g>
    </g>
    <g id="ytick_13">
     <g id="line2d_51">
      <g>
       <use xlink:href="#m3fd6e64b86" x="405.522317" y="128.415294" style="stroke: #000000; stroke-width: 0.8"/>
      </g>
     </g>
     <g id="text_20">
      <!-- 0.56 -->
      <g transform="translate(412.522317 132.214513) scale(0.1 -0.1)">
       <use xlink:href="#DejaVuSans-2212"/>
       <use xlink:href="#DejaVuSans-30" transform="translate(83.789062 0)"/>
       <use xlink:href="#DejaVuSans-2e" transform="translate(147.412109 0)"/>
       <use xlink:href="#DejaVuSans-35" transform="translate(179.199219 0)"/>
       <use xlink:href="#DejaVuSans-36" transform="translate(242.822266 0)"/>
      </g>
     </g>
    </g>
    <g id="ytick_14">
     <g id="line2d_52">
      <g>
       <use xlink:href="#m3fd6e64b86" x="405.522317" y="91.649651" style="stroke: #000000; stroke-width: 0.8"/>
      </g>
     </g>
     <g id="text_21">
      <!-- 0.40 -->
      <g transform="translate(412.522317 95.44887) scale(0.1 -0.1)">
       <use xlink:href="#DejaVuSans-2212"/>
       <use xlink:href="#DejaVuSans-30" transform="translate(83.789062 0)"/>
       <use xlink:href="#DejaVuSans-2e" transform="translate(147.412109 0)"/>
       <use xlink:href="#DejaVuSans-34" transform="translate(179.199219 0)"/>
       <use xlink:href="#DejaVuSans-30" transform="translate(242.822266 0)"/>
      </g>
     </g>
    </g>
    <g id="ytick_15">
     <g id="line2d_53">
      <g>
       <use xlink:href="#m3fd6e64b86" x="405.522317" y="54.884008" style="stroke: #000000; stroke-width: 0.8"/>
      </g>
     </g>
     <g id="text_22">
      <!-- 0.24 -->
      <g transform="translate(412.522317 58.683227) scale(0.1 -0.1)">
       <use xlink:href="#DejaVuSans-2212"/>
       <use xlink:href="#DejaVuSans-30" transform="translate(83.789062 0)"/>
       <use xlink:href="#DejaVuSans-2e" transform="translate(147.412109 0)"/>
       <use xlink:href="#DejaVuSans-32" transform="translate(179.199219 0)"/>
       <use xlink:href="#DejaVuSans-34" transform="translate(242.822266 0)"/>
      </g>
     </g>
    </g>
    <g id="ytick_16">
     <g id="line2d_54">
      <g>
       <use xlink:href="#m3fd6e64b86" x="405.522317" y="18.118365" style="stroke: #000000; stroke-width: 0.8"/>
      </g>
     </g>
     <g id="text_23">
      <!-- 0.08 -->
      <g transform="translate(412.522317 21.917584) scale(0.1 -0.1)">
       <use xlink:href="#DejaVuSans-2212"/>
       <use xlink:href="#DejaVuSans-30" transform="translate(83.789062 0)"/>
       <use xlink:href="#DejaVuSans-2e" transform="translate(147.412109 0)"/>
       <use xlink:href="#DejaVuSans-30" transform="translate(179.199219 0)"/>
       <use xlink:href="#DejaVuSans-38" transform="translate(242.822266 0)"/>
      </g>
     </g>
    </g>
    <g id="text_24">
     <!-- Score -->
     <g transform="translate(454.766067 179.183281) rotate(-90) scale(0.1 -0.1)">
      <defs>
       <path id="DejaVuSans-53" d="M 3425 4513 
L 3425 3897 
Q 3066 4069 2747 4153 
Q 2428 4238 2131 4238 
Q 1616 4238 1336 4038 
Q 1056 3838 1056 3469 
Q 1056 3159 1242 3001 
Q 1428 2844 1947 2747 
L 2328 2669 
Q 3034 2534 3370 2195 
Q 3706 1856 3706 1288 
Q 3706 609 3251 259 
Q 2797 -91 1919 -91 
Q 1588 -91 1214 -16 
Q 841 59 441 206 
L 441 856 
Q 825 641 1194 531 
Q 1563 422 1919 422 
Q 2459 422 2753 634 
Q 3047 847 3047 1241 
Q 3047 1584 2836 1778 
Q 2625 1972 2144 2069 
L 1759 2144 
Q 1053 2284 737 2584 
Q 422 2884 422 3419 
Q 422 4038 858 4394 
Q 1294 4750 2059 4750 
Q 2388 4750 2728 4690 
Q 3069 4631 3425 4513 
z
" transform="scale(0.015625)"/>
      </defs>
      <use xlink:href="#DejaVuSans-53"/>
      <use xlink:href="#DejaVuSans-63" transform="translate(63.476562 0)"/>
      <use xlink:href="#DejaVuSans-6f" transform="translate(118.457031 0)"/>
      <use xlink:href="#DejaVuSans-72" transform="translate(179.638672 0)"/>
      <use xlink:href="#DejaVuSans-65" transform="translate(218.501953 0)"/>
     </g>
    </g>
   </g>
   <g id="LineCollection_1"/>
   <g id="patch_8">
    <path d="M 390.816059 312.24351 
L 398.169188 312.24351 
L 405.522317 312.24351 
L 405.522317 18.118365 
L 398.169188 18.118365 
L 390.816059 18.118365 
L 390.816059 312.24351 
z
" style="fill: none; stroke: #000000; stroke-width: 0.8; stroke-linejoin: miter; stroke-linecap: square"/>
   </g>
  </g>
 </g>
 <defs>
  <clipPath id="p5b1ce6f840">
   <rect x="39.58149" y="18.118365" width="334.509114" height="294.125145"/>
  </clipPath>
  <clipPath id="pef4a2e8dcf">
   <rect x="390.816059" y="18.118365" width="14.706257" height="294.125145"/>
  </clipPath>
 </defs>
</svg>
