<?xml version="1.0" encoding="utf-8" standalone="no"?>
<!DOCTYPE svg PUBLIC "-//W3C//DTD SVG 1.1//EN"
  "http://www.w3.org/Graphics/SVG/1.1/DTD/svg11.dtd">
<svg xmlns:xlink="http://www.w3.org/1999/xlink" width="468.205287pt" height="353.99952pt" viewBox="0 0 468.205287 353.99952" xmlns="http://www.w3.org/2000/svg" version="1.1">
 <metadata>
  <rdf:RDF xmlns:dc="http://purl.org/dc/elements/1.1/" xmlns:cc="http://creativecommons.org/ns#" xmlns:rdf="http://www.w3.org/1999/02/22-rdf-syntax-ns#">
   <cc:Work>
    <dc:type rdf:resource="http://purl.org/dc/dcmitype/StillImage"/>
    <dc:date>1970-01-01T00:00:00+00:00</dc:date>
    <dc:format>image/svg+xml</dc:format>
    <dc:creator>
     <cc:Agent>
      <dc:title>Matplotlib v3.10.7, https://matplotlib.org/</dc:title>
     </cc:Agent>
    </dc:creator>
   </cc:Work>
  </rdf:RDF>
 </metadata>
 <defs>
  <style type="text/css">*{stroke-linejoin: round; stroke-linecap: butt}</style>
 </defs>
 <g id="figure_1">
  <g id="patch_1">
   <path d="M 0 353.99952 
L 468.205287 353.99952 
L 468.205287 0 
L 0 0 
z
" style="fill: #ffffff"/>
  </g>
  <g id="axes_1">
   <g id="patch_2">
    <path d="M 43.78125 316.44327 
L 382.2577 316.44327 
L 382.2577 10.999219 
L 43.78125 10.999219 
z
" style="fill: #ffffff"/>
   </g>
   <g id="QuadContourSet_1">
    <path d="M 43.78125 268.30745 
L 48.504498 265.535928 
L 43.78125 259.830165 
L 42.889505 265.535928 
z
M -69.044233 189.249721 
L -63.255864 189.174915 
L -69.044233 188.293134 
L -69.175751 189.174915 
z
M -125.456975 138.268021 
L -125.424725 138.267573 
L -125.456975 138.262352 
L -125.457636 138.267573 
z
M -181.869716 87.362822 
L -181.807651 87.360232 
L -181.869716 87.345454 
L -181.871361 87.360232 
z
M -238.282458 36.506613 
L -237.944602 36.45289 
L -238.282458 36.372314 
L -238.294125 36.45289 
z
" clip-path="url(#p86d78b86ef)" style="fill: #470d60"/>
    <path d="M 100.193992 316.44327 
L 115.877381 316.44327 
L 100.193992 300.705487 
L 96.277729 316.44327 
z
M 43.78125 281.821298 
L 68.746504 265.535928 
L 49.147419 240.082257 
L 43.78125 236.028747 
L -12.631492 215.351661 
L -16.735598 240.082257 
L -12.631492 242.315966 
L 38.421204 265.535928 
z
M 42.889505 265.535928 
L 43.78125 259.830165 
L 48.504498 265.535928 
L 43.78125 268.30745 
z
M -69.044233 191.826696 
L -12.631492 213.715173 
L -0.700317 189.174915 
L -12.631492 180.747528 
L -59.895973 163.721244 
L -56.849245 138.267573 
L -69.044233 129.390077 
L -112.435966 112.813902 
L -114.874636 87.360232 
L -125.456975 79.189917 
L -165.330827 61.906561 
L -173.706504 36.45289 
L -181.869716 29.212273 
L -228.60207 10.999219 
L -238.282458 10.999219 
L -254.078793 10.999219 
L -242.734912 36.45289 
L -238.282458 56.497585 
L -209.72533 61.906561 
L -186.339472 87.360232 
L -181.869716 94.242799 
L -129.426534 112.813902 
L -129.966511 138.267573 
L -125.456975 141.255564 
L -70.11291 163.721244 
L -73.817663 189.174915 
z
M -69.175751 189.174915 
L -69.044233 188.293134 
L -63.255864 189.174915 
L -69.044233 189.249721 
z
M -125.457636 138.267573 
L -125.456975 138.262352 
L -125.424725 138.267573 
L -125.456975 138.268021 
z
M -181.871361 87.360232 
L -181.869716 87.345454 
L -181.807651 87.360232 
L -181.869716 87.362822 
z
M -238.294125 36.45289 
L -238.282458 36.372314 
L -237.944602 36.45289 
L -238.282458 36.506613 
z
" clip-path="url(#p86d78b86ef)" style="fill: #482374"/>
    <path d="M 43.78125 292.080918 
L 91.17777 316.44327 
L 96.277729 316.44327 
L 100.193992 300.705487 
L 115.877381 316.44327 
L 132.423977 316.44327 
L 109.52005 290.989599 
L 100.193992 282.617049 
L 85.51476 265.535928 
L 65.668373 240.082257 
L 43.78125 222.059926 
L 27.34042 214.628586 
L 15.043903 189.174915 
L -12.631492 167.934459 
L -22.379627 163.721244 
L -40.52575 138.267573 
L -69.044233 115.639035 
L -75.209398 112.813902 
L -97.802324 87.360232 
L -125.456975 63.999665 
L -129.506763 61.906561 
L -155.733866 36.45289 
L -181.847004 10.999219 
L -181.869716 10.999219 
L -228.60207 10.999219 
L -181.869716 29.212273 
L -173.706504 36.45289 
L -165.330827 61.906561 
L -125.456975 79.189917 
L -114.874636 87.360232 
L -112.435966 112.813902 
L -69.044233 129.390077 
L -56.849245 138.267573 
L -59.895973 163.721244 
L -12.631492 180.747528 
L -0.700317 189.174915 
L -12.631492 213.715173 
L -69.044233 191.826696 
L -73.817663 189.174915 
L -70.11291 163.721244 
L -125.456975 141.255564 
L -129.966511 138.267573 
L -129.426534 112.813902 
L -181.869716 94.242799 
L -186.339472 87.360232 
L -209.72533 61.906561 
L -238.282458 56.497585 
L -242.734912 36.45289 
L -254.078793 10.999219 
L -294.6952 10.999219 
L -298.33021 10.999219 
L -294.6952 13.081298 
L -247.386522 36.45289 
L -242.104243 61.906561 
L -238.282458 64.078386 
L -191.021072 87.360232 
L -181.869716 101.122777 
L -145.760612 112.813902 
L -134.692885 138.267573 
L -125.456975 144.243106 
L -75.903972 163.721244 
L -78.690427 189.174915 
L -69.044233 194.40367 
L -17.49176 214.628586 
L -21.873666 240.082257 
L -12.631492 244.983728 
L 33.739396 265.535928 
L 42.301483 290.989599 
z
M 38.421204 265.535928 
L -12.631492 242.315966 
L -16.735598 240.082257 
L -12.631492 215.351661 
L 43.78125 236.028747 
L 49.147419 240.082257 
L 68.746504 265.535928 
L 43.78125 281.821298 
z
" clip-path="url(#p86d78b86ef)" style="fill: #453581"/>
    <path d="M 43.78125 295.474718 
L 85.797764 316.44327 
L 91.17777 316.44327 
L 43.78125 292.080918 
L 42.301483 290.989599 
L 33.739396 265.535928 
L -12.631492 244.983728 
L -21.873666 240.082257 
L -17.49176 214.628586 
L -69.044233 194.40367 
L -78.690427 189.174915 
L -75.903972 163.721244 
L -125.456975 144.243106 
L -134.692885 138.267573 
L -145.760612 112.813902 
L -181.869716 101.122777 
L -191.021072 87.360232 
L -238.282458 64.078386 
L -242.104243 61.906561 
L -247.386522 36.45289 
L -294.6952 13.081298 
L -298.33021 10.999219 
L -303.754828 10.999219 
L -294.6952 16.048293 
L -252.269975 36.45289 
L -247.598336 61.906561 
L -238.282458 67.055818 
L -195.93759 87.360232 
L -181.869716 108.002755 
L -165.37264 112.813902 
L -139.658808 138.267573 
L -125.456975 147.230648 
L -82.058859 163.721244 
L -83.818214 189.174915 
L -69.044233 196.980645 
L -22.737542 214.628586 
L -27.296101 240.082257 
L -12.631492 247.651489 
L 28.822648 265.535928 
L 37.551483 290.989599 
z
M 125.760558 290.989599 
L 100.193992 265.992765 
L 99.828703 265.535928 
L 79.801835 240.082257 
L 52.00496 214.628586 
L 43.78125 207.875605 
L 28.605343 189.174915 
L -1.150258 163.721244 
L -12.631492 154.320222 
L -26.536961 138.267573 
L -55.519221 112.813902 
L -69.044233 102.322681 
L -83.267557 87.360232 
L -110.781362 61.906561 
L -125.456975 51.055895 
L -140.552105 36.45289 
L -165.045774 10.999219 
L -181.847004 10.999219 
L -155.733866 36.45289 
L -129.506763 61.906561 
L -125.456975 63.999665 
L -97.802324 87.360232 
L -75.209398 112.813902 
L -69.044233 115.639035 
L -40.52575 138.267573 
L -22.379627 163.721244 
L -12.631492 167.934459 
L 15.043903 189.174915 
L 27.34042 214.628586 
L 43.78125 222.059926 
L 65.668373 240.082257 
L 85.51476 265.535928 
L 100.193992 282.617049 
L 109.52005 290.989599 
L 132.423977 316.44327 
L 146.57619 316.44327 
z
" clip-path="url(#p86d78b86ef)" style="fill: #3f4889"/>
    <path d="M 43.78125 298.868517 
L 80.105158 316.44327 
L 85.797764 316.44327 
L 43.78125 295.474718 
L 37.551483 290.989599 
L 28.822648 265.535928 
L -12.631492 247.651489 
L -27.296101 240.082257 
L -22.737542 214.628586 
L -69.044233 196.980645 
L -83.818214 189.174915 
L -82.058859 163.721244 
L -125.456975 147.230648 
L -139.658808 138.267573 
L -165.37264 112.813902 
L -181.869716 108.002755 
L -195.93759 87.360232 
L -238.282458 67.055818 
L -247.598336 61.906561 
L -252.269975 36.45289 
L -294.6952 16.048293 
L -303.754828 10.999219 
L -309.497405 10.999219 
L -294.6952 19.015289 
L -257.409601 36.45289 
L -253.418833 61.906561 
L -238.282458 70.033251 
L -201.113854 87.360232 
L -184.152505 112.813902 
L -181.869716 114.082486 
L -144.889865 138.267573 
L -125.456975 150.218191 
L -88.626366 163.721244 
L -89.229198 189.174915 
L -69.044233 199.557619 
L -28.280086 214.628586 
L -33.036231 240.082257 
L -12.631492 250.31925 
L 23.64613 265.535928 
L 32.559472 290.989599 
z
M 156.606733 316.44327 
L 160.101058 316.44327 
L 156.606733 313.325815 
L 139.688395 290.989599 
L 116.464645 265.535928 
L 100.193992 250.93064 
L 92.15152 240.082257 
L 67.557628 214.628586 
L 43.78125 193.446318 
L 40.516205 189.174915 
L 13.792404 163.721244 
L -12.631492 140.313479 
L -14.297833 138.267573 
L -40.78478 112.813902 
L -69.044233 89.118727 
L -70.6127 87.360232 
L -96.12609 61.906561 
L -125.456975 38.471144 
L -127.409838 36.45289 
L -150.707825 10.999219 
L -165.045774 10.999219 
L -140.552105 36.45289 
L -125.456975 51.055895 
L -110.781362 61.906561 
L -83.267557 87.360232 
L -69.044233 102.322681 
L -55.519221 112.813902 
L -26.536961 138.267573 
L -12.631492 154.320222 
L -1.150258 163.721244 
L 28.605343 189.174915 
L 43.78125 207.875605 
L 52.00496 214.628586 
L 79.801835 240.082257 
L 99.828703 265.535928 
L 100.193992 265.992765 
L 125.760558 290.989599 
L 146.57619 316.44327 
z
" clip-path="url(#p86d78b86ef)" style="fill: #375b8d"/>
    <path d="M -520.346166 316.44327 
L -463.933424 316.44327 
L -407.520683 316.44327 
L -351.107941 316.44327 
L -294.6952 316.44327 
L -238.282458 316.44327 
L -181.869716 316.44327 
L -146.275774 316.44327 
L -181.869716 307.553348 
L -237.767944 290.989599 
L -238.282458 290.880565 
L -294.6952 268.513198 
L -303.069902 265.535928 
L -351.107941 255.683528 
L -406.769609 240.082257 
L -407.520683 239.910098 
L -463.933424 218.598279 
L -486.387151 214.628586 
L -520.346166 209.210749 
L -575.541319 189.174915 
L -576.758908 188.956847 
L -576.758908 189.174915 
L -576.758908 214.628586 
L -576.758908 240.082257 
L -576.758908 265.535928 
L -576.758908 290.989599 
L -576.758908 316.44327 
z
M 43.78125 302.262317 
L 74.061374 316.44327 
L 80.105158 316.44327 
L 43.78125 298.868517 
L 32.559472 290.989599 
L 23.64613 265.535928 
L -12.631492 250.31925 
L -33.036231 240.082257 
L -28.280086 214.628586 
L -69.044233 199.557619 
L -89.229198 189.174915 
L -88.626366 163.721244 
L -125.456975 150.218191 
L -144.889865 138.267573 
L -181.869716 114.082486 
L -184.152505 112.813902 
L -201.113854 87.360232 
L -238.282458 70.033251 
L -253.418833 61.906561 
L -257.409601 36.45289 
L -294.6952 19.015289 
L -309.497405 10.999219 
L -315.597548 10.999219 
L -294.6952 21.982284 
L -262.833769 36.45289 
L -259.60698 61.906561 
L -238.282458 73.010683 
L -206.578848 87.360232 
L -192.150818 112.813902 
L -181.869716 118.301212 
L -150.415972 138.267573 
L -125.456975 153.205733 
L -95.665819 163.721244 
L -94.956498 189.174915 
L -69.044233 202.134594 
L -34.154991 214.628586 
L -39.133614 240.082257 
L -12.631492 252.987011 
L 18.180852 265.535928 
L 27.299457 290.989599 
z
M 156.606733 313.325815 
L 160.101058 316.44327 
L 176.02646 316.44327 
L 156.606733 297.621734 
L 151.880857 290.989599 
L 130.781355 265.535928 
L 105.187954 240.082257 
L 100.193992 236.49599 
L 80.976785 214.628586 
L 55.750065 189.174915 
L 43.78125 181.158979 
L 26.755203 163.721244 
L 2.12868 138.267573 
L -12.631492 128.555241 
L -27.978896 112.813902 
L -53.175133 87.360232 
L -69.044233 77.138145 
L -83.380022 61.906561 
L -109.13325 36.45289 
L -125.456975 25.761646 
L -138.202364 10.999219 
L -150.707825 10.999219 
L -127.409838 36.45289 
L -125.456975 38.471144 
L -96.12609 61.906561 
L -70.6127 87.360232 
L -69.044233 89.118727 
L -40.78478 112.813902 
L -14.297833 138.267573 
L -12.631492 140.313479 
L 13.792404 163.721244 
L 40.516205 189.174915 
L 43.78125 193.446318 
L 67.557628 214.628586 
L 92.15152 240.082257 
L 100.193992 250.93064 
L 116.464645 265.535928 
L 139.688395 290.989599 
z
M 551.495924 316.44327 
L 607.908666 316.44327 
L 664.321408 316.44327 
L 720.734149 316.44327 
L 777.146891 316.44327 
L 833.559632 316.44327 
L 889.972374 316.44327 
L 946.385115 316.44327 
L 1002.797857 316.44327 
L 1059.210599 316.44327 
L 1115.62334 316.44327 
L 1172.036082 316.44327 
L 1228.448823 316.44327 
L 1284.861565 316.44327 
L 1341.274307 316.44327 
L 1397.687048 316.44327 
L 1454.09979 316.44327 
L 1510.512531 316.44327 
L 1566.925273 316.44327 
L 1623.338015 316.44327 
L 1679.750756 316.44327 
L 1736.163498 316.44327 
L 1792.576239 316.44327 
L 1848.988981 316.44327 
L 1905.401723 316.44327 
L 1905.401723 290.989599 
L 1905.401723 265.535928 
L 1905.401723 240.082257 
L 1905.401723 214.628586 
L 1905.401723 189.174915 
L 1905.401723 163.721244 
L 1905.401723 138.267573 
L 1905.401723 112.813902 
L 1905.401723 87.360232 
L 1905.401723 61.906561 
L 1905.401723 36.45289 
L 1905.401723 10.999219 
L 1848.988981 10.999219 
L 1792.576239 10.999219 
L 1736.163498 10.999219 
L 1679.750756 10.999219 
L 1623.338015 10.999219 
L 1566.925273 10.999219 
L 1510.512531 10.999219 
L 1454.09979 10.999219 
L 1397.687048 10.999219 
L 1341.274307 10.999219 
L 1284.861565 10.999219 
L 1228.448823 10.999219 
L 1172.036082 10.999219 
L 1115.62334 10.999219 
L 1059.210599 10.999219 
L 1002.797857 10.999219 
L 946.385115 10.999219 
L 889.972374 10.999219 
L 833.559632 10.999219 
L 777.146891 10.999219 
L 720.734149 10.999219 
L 664.321408 10.999219 
L 607.908666 10.999219 
L 551.495924 10.999219 
L 495.083183 10.999219 
L 438.670441 10.999219 
L 432.234927 10.999219 
L 438.670441 28.985941 
L 449.205838 36.45289 
L 471.676738 61.906561 
L 483.910256 87.360232 
L 492.459898 112.813902 
L 495.083183 121.570428 
L 514.478091 138.267573 
L 530.05846 163.721244 
L 539.486979 189.174915 
L 545.729388 214.628586 
L 549.813279 240.082257 
L 551.495924 256.194407 
L 557.876363 265.535928 
L 561.145434 290.989599 
L 551.495924 297.349304 
L 548.257667 316.44327 
z
" clip-path="url(#p86d78b86ef)" style="fill: #2f6b8e"/>
    <path d="M -181.869716 307.553348 
L -146.275774 316.44327 
L -125.456975 316.44327 
L -91.339709 316.44327 
L -125.456975 303.832772 
L -157.286073 290.989599 
L -181.869716 283.27645 
L -229.813966 265.535928 
L -238.282458 262.847347 
L -294.6952 240.272627 
L -295.177553 240.082257 
L -351.107941 220.989204 
L -365.649071 214.628586 
L -407.520683 202.835146 
L -440.425397 189.174915 
L -463.933424 181.652052 
L -508.185434 163.721244 
L -520.346166 159.400311 
L -571.551094 138.267573 
L -576.758908 136.728776 
L -576.758908 138.267573 
L -576.758908 163.721244 
L -576.758908 188.956847 
L -575.541319 189.174915 
L -520.346166 209.210749 
L -486.387151 214.628586 
L -463.933424 218.598279 
L -407.520683 239.910098 
L -406.769609 240.082257 
L -351.107941 255.683528 
L -303.069902 265.535928 
L -294.6952 268.513198 
L -238.282458 290.880565 
L -237.767944 290.989599 
z
M 43.78125 305.656117 
L 67.620218 316.44327 
L 74.061374 316.44327 
L 43.78125 302.262317 
L 27.299457 290.989599 
L 18.180852 265.535928 
L -12.631492 252.987011 
L -39.133614 240.082257 
L -34.154991 214.628586 
L -69.044233 202.134594 
L -94.956498 189.174915 
L -95.665819 163.721244 
L -125.456975 153.205733 
L -150.415972 138.267573 
L -181.869716 118.301212 
L -192.150818 112.813902 
L -206.578848 87.360232 
L -238.282458 73.010683 
L -259.60698 61.906561 
L -262.833769 36.45289 
L -294.6952 21.982284 
L -315.597548 10.999219 
L -322.102762 10.999219 
L -294.6952 24.949279 
L -268.575844 36.45289 
L -266.212372 61.906561 
L -238.282458 75.988115 
L -212.366694 87.360232 
L -200.860404 112.813902 
L -181.869716 122.519938 
L -156.272414 138.267573 
L -125.456975 156.193275 
L -103.250335 163.721244 
L -101.039406 189.174915 
L -69.044233 204.711568 
L -40.404676 214.628586 
L -45.635688 240.082257 
L -12.631492 255.654772 
L 12.392688 265.535928 
L 21.741022 290.989599 
z
M 156.606733 297.621734 
L 176.02646 316.44327 
L 189.722036 316.44327 
L 166.922217 290.989599 
L 156.606733 282.802382 
L 143.270664 265.535928 
L 121.320632 240.082257 
L 100.193992 223.579045 
L 92.77779 214.628586 
L 70.574554 189.174915 
L 43.78125 169.77233 
L 38.201937 163.721244 
L 16.988994 138.267573 
L -12.631492 117.181611 
L -16.654656 112.813902 
L -37.582277 87.360232 
L -69.044233 65.345524 
L -72.102567 61.906561 
L -92.685385 36.45289 
L -125.456975 13.02832 
L -127.113619 10.999219 
L -138.202364 10.999219 
L -125.456975 25.761646 
L -109.13325 36.45289 
L -83.380022 61.906561 
L -69.044233 77.138145 
L -53.175133 87.360232 
L -27.978896 112.813902 
L -12.631492 128.555241 
L 2.12868 138.267573 
L 26.755203 163.721244 
L 43.78125 181.158979 
L 55.750065 189.174915 
L 80.976785 214.628586 
L 100.193992 236.49599 
L 105.187954 240.082257 
L 130.781355 265.535928 
L 151.880857 290.989599 
z
M 551.495924 297.349304 
L 561.145434 290.989599 
L 557.876363 265.535928 
L 551.495924 256.194407 
L 549.813279 240.082257 
L 545.729388 214.628586 
L 539.486979 189.174915 
L 530.05846 163.721244 
L 514.478091 138.267573 
L 495.083183 121.570428 
L 492.459898 112.813902 
L 483.910256 87.360232 
L 471.676738 61.906561 
L 449.205838 36.45289 
L 438.670441 28.985941 
L 432.234927 10.999219 
L 387.878143 10.999219 
L 408.360953 36.45289 
L 422.691261 61.906561 
L 433.642225 87.360232 
L 438.670441 100.996558 
L 449.817824 112.813902 
L 467.603241 138.267573 
L 479.909163 163.721244 
L 488.833892 189.174915 
L 495.083183 213.103331 
L 496.329284 214.628586 
L 512.968848 240.082257 
L 522.495728 265.535928 
L 525.933759 290.989599 
L 521.433297 316.44327 
L 548.257667 316.44327 
z
" clip-path="url(#p86d78b86ef)" style="fill: #29798e"/>
    <path d="M -125.456975 303.832772 
L -91.339709 316.44327 
L -69.044233 316.44327 
L -61.522436 316.44327 
L -69.044233 313.631536 
L -119.931718 290.989599 
L -125.456975 289.032646 
L -181.869716 266.323354 
L -183.567268 265.535928 
L -238.282458 243.262342 
L -244.504187 240.082257 
L -294.6952 221.840881 
L -310.069861 214.628586 
L -351.107941 199.479297 
L -377.086191 189.174915 
L -407.520683 178.752916 
L -441.830175 163.721244 
L -463.933424 155.893985 
L -499.318539 138.267573 
L -520.346166 130.645593 
L -561.464792 112.813902 
L -576.758908 107.290552 
L -576.758908 112.813902 
L -576.758908 136.728776 
L -571.551094 138.267573 
L -520.346166 159.400311 
L -508.185434 163.721244 
L -463.933424 181.652052 
L -440.425397 189.174915 
L -407.520683 202.835146 
L -365.649071 214.628586 
L -351.107941 220.989204 
L -295.177553 240.082257 
L -294.6952 240.272627 
L -238.282458 262.847347 
L -229.813966 265.535928 
L -181.869716 283.27645 
L -157.286073 290.989599 
z
M 43.78125 309.049917 
L 60.725734 316.44327 
L 67.620218 316.44327 
L 43.78125 305.656117 
L 21.741022 290.989599 
L 12.392688 265.535928 
L -12.631492 255.654772 
L -45.635688 240.082257 
L -40.404676 214.628586 
L -69.044233 204.711568 
L -101.039406 189.174915 
L -103.250335 163.721244 
L -125.456975 156.193275 
L -156.272414 138.267573 
L -181.869716 122.519938 
L -200.860404 112.813902 
L -212.366694 87.360232 
L -238.282458 75.988115 
L -266.212372 61.906561 
L -268.575844 36.45289 
L -294.6952 24.949279 
L -322.102762 10.999219 
L -329.070691 10.999219 
L -294.6952 27.916274 
L -274.67542 36.45289 
L -273.295372 61.906561 
L -238.282458 78.965547 
L -218.517948 87.360232 
L -210.420226 112.813902 
L -181.869716 126.738664 
L -162.501208 138.267573 
L -125.456975 159.180817 
L -111.47146 163.721244 
L -107.525021 189.174915 
L -69.044233 207.288543 
L -47.080235 214.628586 
L -52.600015 240.082257 
L -12.631492 258.322534 
L 6.241075 265.535928 
L 15.848258 290.989599 
z
M 182.5553 290.989599 
L 156.606733 268.62982 
L 154.34671 265.535928 
L 135.169134 240.082257 
L 107.015627 214.628586 
L 100.193992 210.335804 
L 83.44837 189.174915 
L 54.717296 163.721244 
L 43.78125 156.718649 
L 29.889806 138.267573 
L 1.627015 112.813902 
L -12.631492 102.934826 
L -24.133228 87.360232 
L -52.434377 61.906561 
L -69.044233 49.675111 
L -78.605414 36.45289 
L -105.87671 10.999219 
L -125.456975 10.999219 
L -127.113619 10.999219 
L -125.456975 13.02832 
L -92.685385 36.45289 
L -72.102567 61.906561 
L -69.044233 65.345524 
L -37.582277 87.360232 
L -16.654656 112.813902 
L -12.631492 117.181611 
L 16.988994 138.267573 
L 38.201937 163.721244 
L 43.78125 169.77233 
L 70.574554 189.174915 
L 92.77779 214.628586 
L 100.193992 223.579045 
L 121.320632 240.082257 
L 143.270664 265.535928 
L 156.606733 282.802382 
L 166.922217 290.989599 
L 189.722036 316.44327 
L 201.736206 316.44327 
z
M 495.083183 316.44327 
L 521.433297 316.44327 
L 525.933759 290.989599 
L 522.495728 265.535928 
L 512.968848 240.082257 
L 496.329284 214.628586 
L 495.083183 213.103331 
L 488.833892 189.174915 
L 479.909163 163.721244 
L 467.603241 138.267573 
L 449.817824 112.813902 
L 438.670441 100.996558 
L 433.642225 87.360232 
L 422.691261 61.906561 
L 408.360953 36.45289 
L 387.878143 10.999219 
L 382.2577 10.999219 
L 361.808509 10.999219 
L 374.243916 36.45289 
L 382.2577 55.025736 
L 388.576364 61.906561 
L 407.858548 87.360232 
L 421.956469 112.813902 
L 432.908719 138.267573 
L 438.670441 153.520406 
L 447.443099 163.721244 
L 464.76829 189.174915 
L 476.676535 214.628586 
L 485.161303 240.082257 
L 490.920704 265.535928 
L 493.555939 290.989599 
L 492.701398 316.44327 
z
" clip-path="url(#p86d78b86ef)" style="fill: #23888e"/>
    <path d="M -69.044233 313.631536 
L -61.522436 316.44327 
L -41.647616 316.44327 
L -69.044233 305.07498 
L -97.495054 290.989599 
L -125.456975 279.848578 
L -156.502862 265.535928 
L -181.869716 255.412443 
L -213.653266 240.082257 
L -238.282458 229.827531 
L -272.382022 214.628586 
L -294.6952 206.134984 
L -332.04484 189.174915 
L -351.107941 182.152053 
L -392.843053 163.721244 
L -407.520683 158.334298 
L -451.078876 138.267573 
L -463.933424 133.493657 
L -508.146905 112.813902 
L -520.346166 108.384166 
L -564.314842 87.360232 
L -576.758908 82.932094 
L -576.758908 87.360232 
L -576.758908 107.290552 
L -561.464792 112.813902 
L -520.346166 130.645593 
L -499.318539 138.267573 
L -463.933424 155.893985 
L -441.830175 163.721244 
L -407.520683 178.752916 
L -377.086191 189.174915 
L -351.107941 199.479297 
L -310.069861 214.628586 
L -294.6952 221.840881 
L -244.504187 240.082257 
L -238.282458 243.262342 
L -183.567268 265.535928 
L -181.869716 266.323354 
L -125.456975 289.032646 
L -119.931718 290.989599 
z
M 43.78125 312.443716 
L 53.30925 316.44327 
L 60.725734 316.44327 
L 43.78125 309.049917 
L 15.848258 290.989599 
L 6.241075 265.535928 
L -12.631492 258.322534 
L -52.600015 240.082257 
L -47.080235 214.628586 
L -69.044233 207.288543 
L -107.525021 189.174915 
L -111.47146 163.721244 
L -125.456975 159.180817 
L -162.501208 138.267573 
L -181.869716 126.738664 
L -210.420226 112.813902 
L -218.517948 87.360232 
L -238.282458 78.965547 
L -273.295372 61.906561 
L -274.67542 36.45289 
L -294.6952 27.916274 
L -329.070691 10.999219 
L -336.572238 10.999219 
L -294.6952 30.88327 
L -281.179988 36.45289 
L -280.930467 61.906561 
L -238.282458 81.942979 
L -225.081319 87.360232 
L -221.014423 112.813902 
L -181.869716 130.957389 
L -169.152936 138.267573 
L -125.456975 162.16836 
L -120.445935 163.721244 
L -114.470468 189.174915 
L -69.044233 209.865517 
L -54.243982 214.628586 
L -60.097387 240.082257 
L -12.631492 260.990295 
L -0.322705 265.535928 
L 9.57836 290.989599 
z
M 196.034247 290.989599 
L 170.14361 265.535928 
L 156.606733 253.382919 
L 147.30078 240.082257 
L 126.42038 214.628586 
L 100.193992 196.356265 
L 94.825683 189.174915 
L 74.632873 163.721244 
L 43.78125 141.774377 
L 41.288192 138.267573 
L 21.10006 112.813902 
L -11.662324 87.360232 
L -12.631492 86.796849 
L -32.940249 61.906561 
L -61.255503 36.45289 
L -69.044233 32.042615 
L -86.756775 10.999219 
L -105.87671 10.999219 
L -78.605414 36.45289 
L -69.044233 49.675111 
L -52.434377 61.906561 
L -24.133228 87.360232 
L -12.631492 102.934826 
L 1.627015 112.813902 
L 29.889806 138.267573 
L 43.78125 156.718649 
L 54.717296 163.721244 
L 83.44837 189.174915 
L 100.193992 210.335804 
L 107.015627 214.628586 
L 135.169134 240.082257 
L 154.34671 265.535928 
L 156.606733 268.62982 
L 182.5553 290.989599 
L 201.736206 316.44327 
L 212.437045 316.44327 
z
M 493.555939 290.989599 
L 490.920704 265.535928 
L 485.161303 240.082257 
L 476.676535 214.628586 
L 464.76829 189.174915 
L 447.443099 163.721244 
L 438.670441 153.520406 
L 432.908719 138.267573 
L 421.956469 112.813902 
L 407.858548 87.360232 
L 388.576364 61.906561 
L 382.2577 55.025736 
L 374.243916 36.45289 
L 361.808509 10.999219 
L 332.688319 10.999219 
L 351.079432 36.45289 
L 365.751895 61.906561 
L 378.151466 87.360232 
L 382.2577 96.276612 
L 396.133249 112.813902 
L 412.769491 138.267573 
L 425.63672 163.721244 
L 436.334174 189.174915 
L 438.670441 195.114896 
L 453.491182 214.628586 
L 467.145495 240.082257 
L 476.353861 265.535928 
L 481.542881 290.989599 
L 482.599388 316.44327 
L 492.701398 316.44327 
z
" clip-path="url(#p86d78b86ef)" style="fill: #1f988b"/>
    <path d="M -69.044233 305.07498 
L -41.647616 316.44327 
L -25.13185 316.44327 
L -69.044233 296.518424 
L -79.250339 290.989599 
L -125.456975 270.66451 
L -135.487903 265.535928 
L -181.869716 244.795845 
L -190.592743 240.082257 
L -238.282458 217.584933 
L -244.050651 214.628586 
L -294.6952 192.152302 
L -300.304775 189.174915 
L -351.107941 166.956702 
L -357.263405 163.721244 
L -407.520683 141.382108 
L -413.136635 138.267573 
L -463.933424 115.132714 
L -468.007022 112.813902 
L -520.346166 89.226379 
L -523.542475 87.360232 
L -576.758908 63.77285 
L -576.758908 82.932094 
L -564.314842 87.360232 
L -520.346166 108.384166 
L -508.146905 112.813902 
L -463.933424 133.493657 
L -451.078876 138.267573 
L -407.520683 158.334298 
L -392.843053 163.721244 
L -351.107941 182.152053 
L -332.04484 189.174915 
L -294.6952 206.134984 
L -272.382022 214.628586 
L -238.282458 229.827531 
L -213.653266 240.082257 
L -181.869716 255.412443 
L -156.502862 265.535928 
L -125.456975 279.848578 
L -97.495054 290.989599 
z
M 43.78125 315.837516 
L 45.285198 316.44327 
L 53.30925 316.44327 
L 43.78125 312.443716 
L 9.57836 290.989599 
L -0.322705 265.535928 
L -12.631492 260.990295 
L -60.097387 240.082257 
L -54.243982 214.628586 
L -69.044233 209.865517 
L -114.470468 189.174915 
L -120.445935 163.721244 
L -125.456975 162.16836 
L -169.152936 138.267573 
L -181.869716 130.957389 
L -221.014423 112.813902 
L -225.081319 87.360232 
L -238.282458 81.942979 
L -280.930467 61.906561 
L -281.179988 36.45289 
L -294.6952 30.88327 
L -336.572238 10.999219 
L -344.695963 10.999219 
L -294.6952 33.850265 
L -288.147177 36.45289 
L -289.211056 61.906561 
L -238.282458 84.920412 
L -232.11602 87.360232 
L -232.894299 112.813902 
L -181.869716 135.176115 
L -176.289245 138.267573 
L -169.78437 163.721244 
L -125.456975 176.946998 
L -121.945963 189.174915 
L -69.044233 212.442492 
L -61.972993 214.628586 
L -68.216214 240.082257 
L -12.631492 263.658056 
L -7.357876 265.535928 
L 2.879731 290.989599 
z
M 213.019475 316.44327 
L 226.931636 316.44327 
L 213.019475 299.492504 
L 207.881451 290.989599 
L 185.114077 265.535928 
L 159.41095 240.082257 
L 156.606733 236.891596 
L 142.610569 214.628586 
L 111.918957 189.174915 
L 100.193992 177.990857 
L 91.176743 163.721244 
L 65.405241 138.267573 
L 43.78125 122.173412 
L 37.337713 112.813902 
L 17.061553 87.360232 
L -12.631492 67.298688 
L -16.687954 61.906561 
L -33.591061 36.45289 
L -69.044233 13.214573 
L -70.765147 10.999219 
L -86.756775 10.999219 
L -69.044233 32.042615 
L -61.255503 36.45289 
L -32.940249 61.906561 
L -12.631492 86.796849 
L -11.662324 87.360232 
L 21.10006 112.813902 
L 41.288192 138.267573 
L 43.78125 141.774377 
L 74.632873 163.721244 
L 94.825683 189.174915 
L 100.193992 196.356265 
L 126.42038 214.628586 
L 147.30078 240.082257 
L 156.606733 253.382919 
L 170.14361 265.535928 
L 196.034247 290.989599 
L 212.437045 316.44327 
z
M 481.542881 290.989599 
L 476.353861 265.535928 
L 467.145495 240.082257 
L 453.491182 214.628586 
L 438.670441 195.114896 
L 436.334174 189.174915 
L 425.63672 163.721244 
L 412.769491 138.267573 
L 396.133249 112.813902 
L 382.2577 96.276612 
L 378.151466 87.360232 
L 365.751895 61.906561 
L 351.079432 36.45289 
L 332.688319 10.999219 
L 325.844958 10.999219 
L 309.241897 10.999219 
L 323.001396 36.45289 
L 325.844958 41.868002 
L 341.928536 61.906561 
L 358.55555 87.360232 
L 372.542466 112.813902 
L 382.2577 132.285599 
L 387.391881 138.267573 
L 405.96061 163.721244 
L 420.323305 189.174915 
L 432.01967 214.628586 
L 438.670441 231.308282 
L 445.054509 240.082257 
L 459.237246 265.535928 
L 467.848751 290.989599 
L 471.335074 316.44327 
L 482.599388 316.44327 
z
" clip-path="url(#p86d78b86ef)" style="fill: #22a785"/>
    <path d="M -69.044233 296.518424 
L -25.13185 316.44327 
L -12.631492 316.44327 
L 43.78125 316.44327 
L 45.285198 316.44327 
L 43.78125 315.837516 
L 2.879731 290.989599 
L -7.357876 265.535928 
L -12.631492 263.658056 
L -68.216214 240.082257 
L -61.972993 214.628586 
L -69.044233 212.442492 
L -121.945963 189.174915 
L -125.456975 176.946998 
L -169.78437 163.721244 
L -176.289245 138.267573 
L -181.869716 135.176115 
L -232.894299 112.813902 
L -232.11602 87.360232 
L -238.282458 84.920412 
L -289.211056 61.906561 
L -288.147177 36.45289 
L -294.6952 33.850265 
L -344.695963 10.999219 
L -351.107941 10.999219 
L -407.520683 10.999219 
L -428.492459 10.999219 
L -407.520683 35.938327 
L -405.56496 36.45289 
L -351.107941 54.608786 
L -323.171161 61.906561 
L -318.892467 87.360232 
L -294.6952 97.82702 
L -252.64908 112.813902 
L -238.282458 131.90596 
L -210.464725 138.267573 
L -215.573513 163.721244 
L -181.869716 176.150556 
L -142.781011 189.174915 
L -125.456975 213.67651 
L -116.381064 214.628586 
L -125.456975 217.008778 
L -181.869716 230.657835 
L -209.134039 214.628586 
L -238.282458 201.523671 
L -261.171429 189.174915 
L -294.6952 174.723639 
L -315.246174 163.721244 
L -351.107941 146.802608 
L -366.256322 138.267573 
L -351.107941 119.850575 
L -343.406135 112.813902 
L -351.107941 109.152357 
L -366.308147 112.813902 
L -407.520683 119.826684 
L -419.463257 112.813902 
L -463.933424 91.97834 
L -471.818963 87.360232 
L -513.679498 61.906561 
L -520.346166 59.236459 
L -567.115122 36.45289 
L -576.758908 32.72093 
L -576.758908 36.45289 
L -576.758908 61.906561 
L -576.758908 63.77285 
L -523.542475 87.360232 
L -520.346166 89.226379 
L -468.007022 112.813902 
L -463.933424 115.132714 
L -413.136635 138.267573 
L -407.520683 141.382108 
L -357.263405 163.721244 
L -351.107941 166.956702 
L -300.304775 189.174915 
L -294.6952 192.152302 
L -244.050651 214.628586 
L -238.282458 217.584933 
L -190.592743 240.082257 
L -181.869716 244.795845 
L -135.487903 265.535928 
L -125.456975 270.66451 
L -79.250339 290.989599 
z
M -51.707965 290.989599 
L -69.044233 278.991334 
L -91.791599 265.535928 
L -69.044233 257.762732 
L -32.921539 265.535928 
L -12.631492 271.055751 
L -4.31059 290.989599 
L -12.631492 313.82117 
z
M 213.019475 299.492504 
L 226.931636 316.44327 
L 239.80999 316.44327 
L 222.141206 290.989599 
L 213.019475 283.745445 
L 198.097786 265.535928 
L 176.888997 240.082257 
L 156.606733 214.808282 
L 156.501403 214.628586 
L 132.356022 189.174915 
L 108.988616 163.721244 
L 100.193992 154.312458 
L 87.954124 138.267573 
L 61.177908 112.813902 
L 43.78125 94.904641 
L 39.246812 87.360232 
L 14.924222 61.906561 
L -11.3531 36.45289 
L -12.631492 35.452253 
L -34.510095 10.999219 
L -69.044233 10.999219 
L -70.765147 10.999219 
L -69.044233 13.214573 
L -33.591061 36.45289 
L -16.687954 61.906561 
L -12.631492 67.298688 
L 17.061553 87.360232 
L 37.337713 112.813902 
L 43.78125 122.173412 
L 65.405241 138.267573 
L 91.176743 163.721244 
L 100.193992 177.990857 
L 111.918957 189.174915 
L 142.610569 214.628586 
L 156.606733 236.891596 
L 159.41095 240.082257 
L 185.114077 265.535928 
L 207.881451 290.989599 
z
M 467.848751 290.989599 
L 459.237246 265.535928 
L 445.054509 240.082257 
L 438.670441 231.308282 
L 432.01967 214.628586 
L 420.323305 189.174915 
L 405.96061 163.721244 
L 387.391881 138.267573 
L 382.2577 132.285599 
L 372.542466 112.813902 
L 358.55555 87.360232 
L 341.928536 61.906561 
L 325.844958 41.868002 
L 323.001396 36.45289 
L 309.241897 10.999219 
L 283.714958 10.999219 
L 301.368268 36.45289 
L 316.919716 61.906561 
L 325.844958 77.552618 
L 334.036274 87.360232 
L 352.446027 112.813902 
L 367.919146 138.267573 
L 381.708748 163.721244 
L 382.2577 164.736232 
L 401.175831 189.174915 
L 416.312609 214.628586 
L 428.369617 240.082257 
L 438.566569 265.535928 
L 438.670441 265.818151 
L 451.925306 290.989599 
L 458.605794 316.44327 
L 471.335074 316.44327 
z
" clip-path="url(#p86d78b86ef)" style="fill: #31b57b"/>
    <path d="M -12.631492 313.82117 
L -4.31059 290.989599 
L -12.631492 271.055751 
L -32.921539 265.535928 
L -69.044233 257.762732 
L -91.791599 265.535928 
L -69.044233 278.991334 
L -51.707965 290.989599 
z
M -14.741557 290.989599 
L -12.631492 289.698328 
L -12.070546 290.989599 
L -12.631492 292.468578 
z
M 237.406808 290.989599 
L 213.019475 270.006789 
L 209.560816 265.535928 
L 191.7166 240.082257 
L 175.710551 214.628586 
L 156.606733 197.609693 
L 149.25776 189.174915 
L 128.968528 163.721244 
L 109.189722 138.267573 
L 100.193992 129.474538 
L 86.368924 112.813902 
L 64.460303 87.360232 
L 43.78125 62.254631 
L 43.518144 61.906561 
L 23.437412 36.45289 
L -3.349292 10.999219 
L -12.631492 10.999219 
L -34.510095 10.999219 
L -12.631492 35.452253 
L -11.3531 36.45289 
L 14.924222 61.906561 
L 39.246812 87.360232 
L 43.78125 94.904641 
L 61.177908 112.813902 
L 87.954124 138.267573 
L 100.193992 154.312458 
L 108.988616 163.721244 
L 132.356022 189.174915 
L 156.501403 214.628586 
L 156.606733 214.808282 
L 176.888997 240.082257 
L 198.097786 265.535928 
L 213.019475 283.745445 
L 222.141206 290.989599 
L 239.80999 316.44327 
L 251.190846 316.44327 
z
M 438.670441 302.796922 
L 443.972722 316.44327 
L 458.605794 316.44327 
L 451.925306 290.989599 
L 438.670441 265.818151 
L 438.566569 265.535928 
L 428.369617 240.082257 
L 416.312609 214.628586 
L 401.175831 189.174915 
L 382.2577 164.736232 
L 381.708748 163.721244 
L 367.919146 138.267573 
L 352.446027 112.813902 
L 334.036274 87.360232 
L 325.844958 77.552618 
L 316.919716 61.906561 
L 301.368268 36.45289 
L 283.714958 10.999219 
L 269.432216 10.999219 
L 256.267596 10.999219 
L 269.432216 31.67059 
L 273.565658 36.45289 
L 293.583619 61.906561 
L 310.870185 87.360232 
L 325.844958 111.330504 
L 327.136464 112.813902 
L 347.214794 138.267573 
L 363.891298 163.721244 
L 379.016334 189.174915 
L 382.2577 194.597251 
L 397.598422 214.628586 
L 412.711575 240.082257 
L 424.703315 265.535928 
L 434.841544 290.989599 
z
M -181.869716 230.657835 
L -125.456975 217.008778 
L -116.381064 214.628586 
L -125.456975 213.67651 
L -142.781011 189.174915 
L -181.869716 176.150556 
L -215.573513 163.721244 
L -210.464725 138.267573 
L -238.282458 131.90596 
L -252.64908 112.813902 
L -294.6952 97.82702 
L -318.892467 87.360232 
L -323.171161 61.906561 
L -351.107941 54.608786 
L -405.56496 36.45289 
L -407.520683 35.938327 
L -428.492459 10.999219 
L -458.581582 10.999219 
L -463.933424 15.826855 
L -470.05675 10.999219 
L -520.346166 10.999219 
L -576.758908 10.999219 
L -576.758908 32.72093 
L -567.115122 36.45289 
L -520.346166 59.236459 
L -513.679498 61.906561 
L -471.818963 87.360232 
L -463.933424 91.97834 
L -419.463257 112.813902 
L -407.520683 119.826684 
L -366.308147 112.813902 
L -351.107941 109.152357 
L -343.406135 112.813902 
L -351.107941 119.850575 
L -366.256322 138.267573 
L -351.107941 146.802608 
L -315.246174 163.721244 
L -294.6952 174.723639 
L -261.171429 189.174915 
L -238.282458 201.523671 
L -209.134039 214.628586 
z
M -303.78801 112.813902 
L -294.6952 109.423405 
L -283.483036 112.813902 
L -294.6952 119.777288 
z
M -413.176071 87.360232 
L -407.520683 80.425586 
L -372.622618 87.360232 
L -407.520683 91.092721 
z
" clip-path="url(#p86d78b86ef)" style="fill: #4ec36b"/>
    <path d="M -12.631492 292.468578 
L -12.070546 290.989599 
L -12.631492 289.698328 
L -14.741557 290.989599 
z
M 250.611824 290.989599 
L 229.375742 265.535928 
L 213.019475 253.305029 
L 204.592763 240.082257 
L 191.811809 214.628586 
L 170.655229 189.174915 
L 156.606733 179.024408 
L 145.556722 163.721244 
L 130.949864 138.267573 
L 110.921695 112.813902 
L 100.193992 105.167119 
L 86.192711 87.360232 
L 70.921967 61.906561 
L 52.109154 36.45289 
L 43.78125 30.552573 
L 26.191707 10.999219 
L -3.349292 10.999219 
L 23.437412 36.45289 
L 43.518144 61.906561 
L 43.78125 62.254631 
L 64.460303 87.360232 
L 86.368924 112.813902 
L 100.193992 129.474538 
L 109.189722 138.267573 
L 128.968528 163.721244 
L 149.25776 189.174915 
L 156.606733 197.609693 
L 175.710551 214.628586 
L 191.7166 240.082257 
L 209.560816 265.535928 
L 213.019475 270.006789 
L 237.406808 290.989599 
L 251.190846 316.44327 
L 261.386468 316.44327 
z
M 438.670441 316.44327 
L 443.972722 316.44327 
L 438.670441 302.796922 
L 434.841544 290.989599 
L 424.703315 265.535928 
L 412.711575 240.082257 
L 397.598422 214.628586 
L 382.2577 194.597251 
L 379.016334 189.174915 
L 363.891298 163.721244 
L 347.214794 138.267573 
L 327.136464 112.813902 
L 325.844958 111.330504 
L 310.870185 87.360232 
L 293.583619 61.906561 
L 273.565658 36.45289 
L 269.432216 31.67059 
L 256.267596 10.999219 
L 226.20346 10.999219 
L 246.186066 36.45289 
L 264.424053 61.906561 
L 269.432216 68.8572 
L 285.261178 87.360232 
L 304.067335 112.813902 
L 321.902979 138.267573 
L 325.844958 143.716714 
L 342.098223 163.721244 
L 359.52071 189.174915 
L 376.048478 214.628586 
L 382.2577 223.918214 
L 394.066991 240.082257 
L 408.550602 265.535928 
L 419.969019 290.989599 
L 428.772787 316.44327 
z
M -294.6952 119.777288 
L -283.483036 112.813902 
L -294.6952 109.423405 
L -303.78801 112.813902 
z
M -407.520683 91.092721 
L -372.622618 87.360232 
L -407.520683 80.425586 
L -413.176071 87.360232 
z
M -463.933424 15.826855 
L -458.581582 10.999219 
L -463.933424 10.999219 
L -470.05675 10.999219 
z
" clip-path="url(#p86d78b86ef)" style="fill: #70cf57"/>
    <path d="M 269.432216 316.44327 
L 275.005913 316.44327 
L 269.432216 312.249724 
L 262.246955 290.989599 
L 249.49327 265.535928 
L 224.186267 240.082257 
L 213.019475 232.119331 
L 205.637166 214.628586 
L 193.512227 189.174915 
L 167.911243 163.721244 
L 156.606733 155.651507 
L 148.745325 138.267573 
L 137.585534 112.813902 
L 112.8068 87.360232 
L 100.193992 78.459779 
L 92.357996 61.906561 
L 82.053718 36.45289 
L 58.703448 10.999219 
L 43.78125 10.999219 
L 26.191707 10.999219 
L 43.78125 30.552573 
L 52.109154 36.45289 
L 70.921967 61.906561 
L 86.192711 87.360232 
L 100.193992 105.167119 
L 110.921695 112.813902 
L 130.949864 138.267573 
L 145.556722 163.721244 
L 156.606733 179.024408 
L 170.655229 189.174915 
L 191.811809 214.628586 
L 204.592763 240.082257 
L 213.019475 253.305029 
L 229.375742 265.535928 
L 250.611824 290.989599 
L 261.386468 316.44327 
z
M 419.969019 290.989599 
L 408.550602 265.535928 
L 394.066991 240.082257 
L 382.2577 223.918214 
L 376.048478 214.628586 
L 359.52071 189.174915 
L 342.098223 163.721244 
L 325.844958 143.716714 
L 321.902979 138.267573 
L 304.067335 112.813902 
L 285.261178 87.360232 
L 269.432216 68.8572 
L 264.424053 61.906561 
L 246.186066 36.45289 
L 226.20346 10.999219 
L 213.019475 10.999219 
L 188.887027 10.999219 
L 210.276082 36.45289 
L 213.019475 39.495496 
L 232.302546 61.906561 
L 252.317567 87.360232 
L 269.432216 107.151016 
L 274.503711 112.813902 
L 294.290508 138.267573 
L 314.018283 163.721244 
L 325.844958 177.619167 
L 335.158543 189.174915 
L 352.93713 214.628586 
L 370.754187 240.082257 
L 382.2577 255.200778 
L 389.199712 265.535928 
L 402.428475 290.989599 
L 411.928625 316.44327 
L 428.772787 316.44327 
z
" clip-path="url(#p86d78b86ef)" style="fill: #98d83e"/>
    <path d="M 269.432216 312.249724 
L 275.005913 316.44327 
L 308.849276 316.44327 
L 290.222315 290.989599 
L 269.432216 275.779698 
L 266.17611 265.535928 
L 257.007272 240.082257 
L 242.108787 214.628586 
L 213.019475 192.395496 
L 212.033489 189.174915 
L 205.439954 163.721244 
L 196.999161 138.267573 
L 185.144906 112.813902 
L 213.019475 100.193415 
L 222.657382 112.813902 
L 242.789193 138.267573 
L 269.432216 157.490251 
L 274.479718 163.721244 
L 293.334326 189.174915 
L 319.041005 214.628586 
L 325.844958 219.889915 
L 339.671245 240.082257 
L 356.958497 265.535928 
L 379.438501 290.989599 
L 382.2577 293.909332 
L 391.575777 316.44327 
L 411.928625 316.44327 
L 402.428475 290.989599 
L 389.199712 265.535928 
L 382.2577 255.200778 
L 370.754187 240.082257 
L 352.93713 214.628586 
L 335.158543 189.174915 
L 325.844958 177.619167 
L 314.018283 163.721244 
L 294.290508 138.267573 
L 274.503711 112.813902 
L 269.432216 107.151016 
L 252.317567 87.360232 
L 232.302546 61.906561 
L 213.019475 39.495496 
L 210.276082 36.45289 
L 188.887027 10.999219 
L 156.606733 10.999219 
L 100.193992 10.999219 
L 58.703448 10.999219 
L 82.053718 36.45289 
L 92.357996 61.906561 
L 100.193992 78.459779 
L 112.8068 87.360232 
L 137.585534 112.813902 
L 148.745325 138.267573 
L 156.606733 155.651507 
L 167.911243 163.721244 
L 193.512227 189.174915 
L 205.637166 214.628586 
L 213.019475 232.119331 
L 224.186267 240.082257 
L 249.49327 265.535928 
L 262.246955 290.989599 
z
M 154.488497 87.360232 
L 152.289687 61.906561 
L 156.606733 49.975324 
L 164.268363 61.906561 
L 178.462071 87.360232 
L 156.606733 97.160623 
z
" clip-path="url(#p86d78b86ef)" style="fill: #c0df25"/>
    <path d="M 325.844958 316.44327 
L 382.2577 316.44327 
L 391.575777 316.44327 
L 382.2577 293.909332 
L 379.438501 290.989599 
L 356.958497 265.535928 
L 339.671245 240.082257 
L 325.844958 219.889915 
L 319.041005 214.628586 
L 293.334326 189.174915 
L 274.479718 163.721244 
L 269.432216 157.490251 
L 242.789193 138.267573 
L 222.657382 112.813902 
L 213.019475 100.193415 
L 185.144906 112.813902 
L 196.999161 138.267573 
L 205.439954 163.721244 
L 212.033489 189.174915 
L 213.019475 192.395496 
L 242.108787 214.628586 
L 257.007272 240.082257 
L 266.17611 265.535928 
L 269.432216 275.779698 
L 290.222315 290.989599 
L 308.849276 316.44327 
z
M 156.606733 97.160623 
L 178.462071 87.360232 
L 164.268363 61.906561 
L 156.606733 49.975324 
L 152.289687 61.906561 
L 154.488497 87.360232 
z
" clip-path="url(#p86d78b86ef)" style="fill: #ece51b"/>
   </g>
   <g id="PathCollection_1">
    <defs>
     <path id="mdc0741d33a" d="M -3 3 
L 3 -3 
M -3 -3 
L 3 3 
" style="stroke: #ff0000; stroke-width: 1.5"/>
    </defs>
    <g clip-path="url(#p86d78b86ef)">
     <use xlink:href="#mdc0741d33a" x="325.844958" y="316.44327" style="fill: #ff0000; stroke: #ff0000; stroke-width: 1.5"/>
     <use xlink:href="#mdc0741d33a" x="325.844958" y="290.989599" style="fill: #ff0000; stroke: #ff0000; stroke-width: 1.5"/>
     <use xlink:href="#mdc0741d33a" x="325.844958" y="265.535928" style="fill: #ff0000; stroke: #ff0000; stroke-width: 1.5"/>
     <use xlink:href="#mdc0741d33a" x="269.432216" y="240.082257" style="fill: #ff0000; stroke: #ff0000; stroke-width: 1.5"/>
     <use xlink:href="#mdc0741d33a" x="269.432216" y="214.628586" style="fill: #ff0000; stroke: #ff0000; stroke-width: 1.5"/>
     <use xlink:href="#mdc0741d33a" x="269.432216" y="189.174915" style="fill: #ff0000; stroke: #ff0000; stroke-width: 1.5"/>
     <use xlink:href="#mdc0741d33a" x="213.019475" y="163.721244" style="fill: #ff0000; stroke: #ff0000; stroke-width: 1.5"/>
     <use xlink:href="#mdc0741d33a" x="213.019475" y="138.267573" style="fill: #ff0000; stroke: #ff0000; stroke-width: 1.5"/>
     <use xlink:href="#mdc0741d33a" x="213.019475" y="112.813902" style="fill: #ff0000; stroke: #ff0000; stroke-width: 1.5"/>
     <use xlink:href="#mdc0741d33a" x="156.606733" y="87.360232" style="fill: #ff0000; stroke: #ff0000; stroke-width: 1.5"/>
     <use xlink:href="#mdc0741d33a" x="156.606733" y="61.906561" style="fill: #ff0000; stroke: #ff0000; stroke-width: 1.5"/>
     <use xlink:href="#mdc0741d33a" x="156.606733" y="36.45289" style="fill: #ff0000; stroke: #ff0000; stroke-width: 1.5"/>
     <use xlink:href="#mdc0741d33a" x="100.193992" y="10.999219" style="fill: #ff0000; stroke: #ff0000; stroke-width: 1.5"/>
    </g>
   </g>
   <g id="matplotlib.axis_1">
    <g id="xtick_1">
     <g id="line2d_1">
      <defs>
       <path id="m38f3b05bbe" d="M 0 0 
L 0 3.5 
" style="stroke: #000000; stroke-width: 0.8"/>
      </defs>
      <g>
       <use xlink:href="#m38f3b05bbe" x="100.193992" y="316.44327" style="stroke: #000000; stroke-width: 0.8"/>
      </g>
     </g>
     <g id="text_1">
      <!-- $\mathdefault{10^{-2}}$ -->
      <g transform="translate(88.443992 331.041707) scale(0.1 -0.1)">
       <defs>
        <path id="DejaVuSans-31" d="M 794 531 
L 1825 531 
L 1825 4091 
L 703 3866 
L 703 4441 
L 1819 4666 
L 2450 4666 
L 2450 531 
L 3481 531 
L 3481 0 
L 794 0 
L 794 531 
z
" transform="scale(0.015625)"/>
        <path id="DejaVuSans-30" d="M 2034 4250 
Q 1547 4250 1301 3770 
Q 1056 3291 1056 2328 
Q 1056 1369 1301 889 
Q 1547 409 2034 409 
Q 2525 409 2770 889 
Q 3016 1369 3016 2328 
Q 3016 3291 2770 3770 
Q 2525 4250 2034 4250 
z
M 2034 4750 
Q 2819 4750 3233 4129 
Q 3647 3509 3647 2328 
Q 3647 1150 3233 529 
Q 2819 -91 2034 -91 
Q 1250 -91 836 529 
Q 422 1150 422 2328 
Q 422 3509 836 4129 
Q 1250 4750 2034 4750 
z
" transform="scale(0.015625)"/>
        <path id="DejaVuSans-2212" d="M 678 2272 
L 4684 2272 
L 4684 1741 
L 678 1741 
L 678 2272 
z
" transform="scale(0.015625)"/>
        <path id="DejaVuSans-32" d="M 1228 531 
L 3431 531 
L 3431 0 
L 469 0 
L 469 531 
Q 828 903 1448 1529 
Q 2069 2156 2228 2338 
Q 2531 2678 2651 2914 
Q 2772 3150 2772 3378 
Q 2772 3750 2511 3984 
Q 2250 4219 1831 4219 
Q 1534 4219 1204 4116 
Q 875 4013 500 3803 
L 500 4441 
Q 881 4594 1212 4672 
Q 1544 4750 1819 4750 
Q 2544 4750 2975 4387 
Q 3406 4025 3406 3419 
Q 3406 3131 3298 2873 
Q 3191 2616 2906 2266 
Q 2828 2175 2409 1742 
Q 1991 1309 1228 531 
z
" transform="scale(0.015625)"/>
       </defs>
       <use xlink:href="#DejaVuSans-31" transform="translate(0 0.765625)"/>
       <use xlink:href="#DejaVuSans-30" transform="translate(63.623047 0.765625)"/>
       <use xlink:href="#DejaVuSans-2212" transform="translate(128.203125 39.046875) scale(0.7)"/>
       <use xlink:href="#DejaVuSans-32" transform="translate(186.855469 39.046875) scale(0.7)"/>
      </g>
     </g>
    </g>
    <g id="xtick_2">
     <g id="line2d_2">
      <g>
       <use xlink:href="#m38f3b05bbe" x="325.844958" y="316.44327" style="stroke: #000000; stroke-width: 0.8"/>
      </g>
     </g>
     <g id="text_2">
      <!-- $\mathdefault{10^{-1}}$ -->
      <g transform="translate(314.094958 331.041707) scale(0.1 -0.1)">
       <use xlink:href="#DejaVuSans-31" transform="translate(0 0.684375)"/>
       <use xlink:href="#DejaVuSans-30" transform="translate(63.623047 0.684375)"/>
       <use xlink:href="#DejaVuSans-2212" transform="translate(128.203125 38.965625) scale(0.7)"/>
       <use xlink:href="#DejaVuSans-31" transform="translate(186.855469 38.965625) scale(0.7)"/>
      </g>
     </g>
    </g>
    <g id="xtick_3">
     <g id="line2d_3">
      <defs>
       <path id="m360e1f0208" d="M 0 0 
L 0 2 
" style="stroke: #000000; stroke-width: 0.6"/>
      </defs>
      <g>
       <use xlink:href="#m360e1f0208" x="50.133607" y="316.44327" style="stroke: #000000; stroke-width: 0.6"/>
      </g>
     </g>
    </g>
    <g id="xtick_4">
     <g id="line2d_4">
      <g>
       <use xlink:href="#m360e1f0208" x="65.240215" y="316.44327" style="stroke: #000000; stroke-width: 0.6"/>
      </g>
     </g>
    </g>
    <g id="xtick_5">
     <g id="line2d_5">
      <g>
       <use xlink:href="#m360e1f0208" x="78.326154" y="316.44327" style="stroke: #000000; stroke-width: 0.6"/>
      </g>
     </g>
    </g>
    <g id="xtick_6">
     <g id="line2d_6">
      <g>
       <use xlink:href="#m360e1f0208" x="89.86877" y="316.44327" style="stroke: #000000; stroke-width: 0.6"/>
      </g>
     </g>
    </g>
    <g id="xtick_7">
     <g id="line2d_7">
      <g>
       <use xlink:href="#m360e1f0208" x="168.121701" y="316.44327" style="stroke: #000000; stroke-width: 0.6"/>
      </g>
     </g>
    </g>
    <g id="xtick_8">
     <g id="line2d_8">
      <g>
       <use xlink:href="#m360e1f0208" x="207.856864" y="316.44327" style="stroke: #000000; stroke-width: 0.6"/>
      </g>
     </g>
    </g>
    <g id="xtick_9">
     <g id="line2d_9">
      <g>
       <use xlink:href="#m360e1f0208" x="236.04941" y="316.44327" style="stroke: #000000; stroke-width: 0.6"/>
      </g>
     </g>
    </g>
    <g id="xtick_10">
     <g id="line2d_10">
      <g>
       <use xlink:href="#m360e1f0208" x="257.917249" y="316.44327" style="stroke: #000000; stroke-width: 0.6"/>
      </g>
     </g>
    </g>
    <g id="xtick_11">
     <g id="line2d_11">
      <g>
       <use xlink:href="#m360e1f0208" x="275.784573" y="316.44327" style="stroke: #000000; stroke-width: 0.6"/>
      </g>
     </g>
    </g>
    <g id="xtick_12">
     <g id="line2d_12">
      <g>
       <use xlink:href="#m360e1f0208" x="290.891181" y="316.44327" style="stroke: #000000; stroke-width: 0.6"/>
      </g>
     </g>
    </g>
    <g id="xtick_13">
     <g id="line2d_13">
      <g>
       <use xlink:href="#m360e1f0208" x="303.97712" y="316.44327" style="stroke: #000000; stroke-width: 0.6"/>
      </g>
     </g>
    </g>
    <g id="xtick_14">
     <g id="line2d_14">
      <g>
       <use xlink:href="#m360e1f0208" x="315.519736" y="316.44327" style="stroke: #000000; stroke-width: 0.6"/>
      </g>
     </g>
    </g>
    <g id="text_3">
     <!-- bandwidth -->
     <g transform="translate(186.656975 344.719832) scale(0.1 -0.1)">
      <defs>
       <path id="DejaVuSans-62" d="M 3116 1747 
Q 3116 2381 2855 2742 
Q 2594 3103 2138 3103 
Q 1681 3103 1420 2742 
Q 1159 2381 1159 1747 
Q 1159 1113 1420 752 
Q 1681 391 2138 391 
Q 2594 391 2855 752 
Q 3116 1113 3116 1747 
z
M 1159 2969 
Q 1341 3281 1617 3432 
Q 1894 3584 2278 3584 
Q 2916 3584 3314 3078 
Q 3713 2572 3713 1747 
Q 3713 922 3314 415 
Q 2916 -91 2278 -91 
Q 1894 -91 1617 61 
Q 1341 213 1159 525 
L 1159 0 
L 581 0 
L 581 4863 
L 1159 4863 
L 1159 2969 
z
" transform="scale(0.015625)"/>
       <path id="DejaVuSans-61" d="M 2194 1759 
Q 1497 1759 1228 1600 
Q 959 1441 959 1056 
Q 959 750 1161 570 
Q 1363 391 1709 391 
Q 2188 391 2477 730 
Q 2766 1069 2766 1631 
L 2766 1759 
L 2194 1759 
z
M 3341 1997 
L 3341 0 
L 2766 0 
L 2766 531 
Q 2569 213 2275 61 
Q 1981 -91 1556 -91 
Q 1019 -91 701 211 
Q 384 513 384 1019 
Q 384 1609 779 1909 
Q 1175 2209 1959 2209 
L 2766 2209 
L 2766 2266 
Q 2766 2663 2505 2880 
Q 2244 3097 1772 3097 
Q 1472 3097 1187 3025 
Q 903 2953 641 2809 
L 641 3341 
Q 956 3463 1253 3523 
Q 1550 3584 1831 3584 
Q 2591 3584 2966 3190 
Q 3341 2797 3341 1997 
z
" transform="scale(0.015625)"/>
       <path id="DejaVuSans-6e" d="M 3513 2113 
L 3513 0 
L 2938 0 
L 2938 2094 
Q 2938 2591 2744 2837 
Q 2550 3084 2163 3084 
Q 1697 3084 1428 2787 
Q 1159 2491 1159 1978 
L 1159 0 
L 581 0 
L 581 3500 
L 1159 3500 
L 1159 2956 
Q 1366 3272 1645 3428 
Q 1925 3584 2291 3584 
Q 2894 3584 3203 3211 
Q 3513 2838 3513 2113 
z
" transform="scale(0.015625)"/>
       <path id="DejaVuSans-64" d="M 2906 2969 
L 2906 4863 
L 3481 4863 
L 3481 0 
L 2906 0 
L 2906 525 
Q 2725 213 2448 61 
Q 2172 -91 1784 -91 
Q 1150 -91 751 415 
Q 353 922 353 1747 
Q 353 2572 751 3078 
Q 1150 3584 1784 3584 
Q 2172 3584 2448 3432 
Q 2725 3281 2906 2969 
z
M 947 1747 
Q 947 1113 1208 752 
Q 1469 391 1925 391 
Q 2381 391 2643 752 
Q 2906 1113 2906 1747 
Q 2906 2381 2643 2742 
Q 2381 3103 1925 3103 
Q 1469 3103 1208 2742 
Q 947 2381 947 1747 
z
" transform="scale(0.015625)"/>
       <path id="DejaVuSans-77" d="M 269 3500 
L 844 3500 
L 1563 769 
L 2278 3500 
L 2956 3500 
L 3675 769 
L 4391 3500 
L 4966 3500 
L 4050 0 
L 3372 0 
L 2619 2869 
L 1863 0 
L 1184 0 
L 269 3500 
z
" transform="scale(0.015625)"/>
       <path id="DejaVuSans-69" d="M 603 3500 
L 1178 3500 
L 1178 0 
L 603 0 
L 603 3500 
z
M 603 4863 
L 1178 4863 
L 1178 4134 
L 603 4134 
L 603 4863 
z
" transform="scale(0.015625)"/>
       <path id="DejaVuSans-74" d="M 1172 4494 
L 1172 3500 
L 2356 3500 
L 2356 3053 
L 1172 3053 
L 1172 1153 
Q 1172 725 1289 603 
Q 1406 481 1766 481 
L 2356 481 
L 2356 0 
L 1766 0 
Q 1100 0 847 248 
Q 594 497 594 1153 
L 594 3053 
L 172 3053 
L 172 3500 
L 594 3500 
L 594 4494 
L 1172 4494 
z
" transform="scale(0.015625)"/>
       <path id="DejaVuSans-68" d="M 3513 2113 
L 3513 0 
L 2938 0 
L 2938 2094 
Q 2938 2591 2744 2837 
Q 2550 3084 2163 3084 
Q 1697 3084 1428 2787 
Q 1159 2491 1159 1978 
L 1159 0 
L 581 0 
L 581 4863 
L 1159 4863 
L 1159 2956 
Q 1366 3272 1645 3428 
Q 1925 3584 2291 3584 
Q 2894 3584 3203 3211 
Q 3513 2838 3513 2113 
z
" transform="scale(0.015625)"/>
      </defs>
      <use xlink:href="#DejaVuSans-62"/>
      <use xlink:href="#DejaVuSans-61" transform="translate(63.476562 0)"/>
      <use xlink:href="#DejaVuSans-6e" transform="translate(124.755859 0)"/>
      <use xlink:href="#DejaVuSans-64" transform="translate(188.134766 0)"/>
      <use xlink:href="#DejaVuSans-77" transform="translate(251.611328 0)"/>
      <use xlink:href="#DejaVuSans-69" transform="translate(333.398438 0)"/>
      <use xlink:href="#DejaVuSans-64" transform="translate(361.181641 0)"/>
      <use xlink:href="#DejaVuSans-74" transform="translate(424.658203 0)"/>
      <use xlink:href="#DejaVuSans-68" transform="translate(463.867188 0)"/>
     </g>
    </g>
   </g>
   <g id="matplotlib.axis_2">
    <g id="ytick_1">
     <g id="line2d_15">
      <defs>
       <path id="mbd2f377c6c" d="M 0 0 
L -3.5 0 
" style="stroke: #000000; stroke-width: 0.8"/>
      </defs>
      <g>
       <use xlink:href="#mbd2f377c6c" x="43.78125" y="316.44327" style="stroke: #000000; stroke-width: 0.8"/>
      </g>
     </g>
     <g id="text_4">
      <!-- 1.0 -->
      <g transform="translate(20.878125 320.242489) scale(0.1 -0.1)">
       <defs>
        <path id="DejaVuSans-2e" d="M 684 794 
L 1344 794 
L 1344 0 
L 684 0 
L 684 794 
z
" transform="scale(0.015625)"/>
       </defs>
       <use xlink:href="#DejaVuSans-31"/>
       <use xlink:href="#DejaVuSans-2e" transform="translate(63.623047 0)"/>
       <use xlink:href="#DejaVuSans-30" transform="translate(95.410156 0)"/>
      </g>
     </g>
    </g>
    <g id="ytick_2">
     <g id="line2d_16">
      <g>
       <use xlink:href="#mbd2f377c6c" x="43.78125" y="265.535928" style="stroke: #000000; stroke-width: 0.8"/>
      </g>
     </g>
     <g id="text_5">
      <!-- 1.5 -->
      <g transform="translate(20.878125 269.335147) scale(0.1 -0.1)">
       <defs>
        <path id="DejaVuSans-35" d="M 691 4666 
L 3169 4666 
L 3169 4134 
L 1269 4134 
L 1269 2991 
Q 1406 3038 1543 3061 
Q 1681 3084 1819 3084 
Q 2600 3084 3056 2656 
Q 3513 2228 3513 1497 
Q 3513 744 3044 326 
Q 2575 -91 1722 -91 
Q 1428 -91 1123 -41 
Q 819 9 494 109 
L 494 744 
Q 775 591 1075 516 
Q 1375 441 1709 441 
Q 2250 441 2565 725 
Q 2881 1009 2881 1497 
Q 2881 1984 2565 2268 
Q 2250 2553 1709 2553 
Q 1456 2553 1204 2497 
Q 953 2441 691 2322 
L 691 4666 
z
" transform="scale(0.015625)"/>
       </defs>
       <use xlink:href="#DejaVuSans-31"/>
       <use xlink:href="#DejaVuSans-2e" transform="translate(63.623047 0)"/>
       <use xlink:href="#DejaVuSans-35" transform="translate(95.410156 0)"/>
      </g>
     </g>
    </g>
    <g id="ytick_3">
     <g id="line2d_17">
      <g>
       <use xlink:href="#mbd2f377c6c" x="43.78125" y="214.628586" style="stroke: #000000; stroke-width: 0.8"/>
      </g>
     </g>
     <g id="text_6">
      <!-- 2.0 -->
      <g transform="translate(20.878125 218.427805) scale(0.1 -0.1)">
       <use xlink:href="#DejaVuSans-32"/>
       <use xlink:href="#DejaVuSans-2e" transform="translate(63.623047 0)"/>
       <use xlink:href="#DejaVuSans-30" transform="translate(95.410156 0)"/>
      </g>
     </g>
    </g>
    <g id="ytick_4">
     <g id="line2d_18">
      <g>
       <use xlink:href="#mbd2f377c6c" x="43.78125" y="163.721244" style="stroke: #000000; stroke-width: 0.8"/>
      </g>
     </g>
     <g id="text_7">
      <!-- 2.5 -->
      <g transform="translate(20.878125 167.520463) scale(0.1 -0.1)">
       <use xlink:href="#DejaVuSans-32"/>
       <use xlink:href="#DejaVuSans-2e" transform="translate(63.623047 0)"/>
       <use xlink:href="#DejaVuSans-35" transform="translate(95.410156 0)"/>
      </g>
     </g>
    </g>
    <g id="ytick_5">
     <g id="line2d_19">
      <g>
       <use xlink:href="#mbd2f377c6c" x="43.78125" y="112.813902" style="stroke: #000000; stroke-width: 0.8"/>
      </g>
     </g>
     <g id="text_8">
      <!-- 3.0 -->
      <g transform="translate(20.878125 116.613121) scale(0.1 -0.1)">
       <defs>
        <path id="DejaVuSans-33" d="M 2597 2516 
Q 3050 2419 3304 2112 
Q 3559 1806 3559 1356 
Q 3559 666 3084 287 
Q 2609 -91 1734 -91 
Q 1441 -91 1130 -33 
Q 819 25 488 141 
L 488 750 
Q 750 597 1062 519 
Q 1375 441 1716 441 
Q 2309 441 2620 675 
Q 2931 909 2931 1356 
Q 2931 1769 2642 2001 
Q 2353 2234 1838 2234 
L 1294 2234 
L 1294 2753 
L 1863 2753 
Q 2328 2753 2575 2939 
Q 2822 3125 2822 3475 
Q 2822 3834 2567 4026 
Q 2313 4219 1838 4219 
Q 1578 4219 1281 4162 
Q 984 4106 628 3988 
L 628 4550 
Q 988 4650 1302 4700 
Q 1616 4750 1894 4750 
Q 2613 4750 3031 4423 
Q 3450 4097 3450 3541 
Q 3450 3153 3228 2886 
Q 3006 2619 2597 2516 
z
" transform="scale(0.015625)"/>
       </defs>
       <use xlink:href="#DejaVuSans-33"/>
       <use xlink:href="#DejaVuSans-2e" transform="translate(63.623047 0)"/>
       <use xlink:href="#DejaVuSans-30" transform="translate(95.410156 0)"/>
      </g>
     </g>
    </g>
    <g id="ytick_6">
     <g id="line2d_20">
      <g>
       <use xlink:href="#mbd2f377c6c" x="43.78125" y="61.906561" style="stroke: #000000; stroke-width: 0.8"/>
      </g>
     </g>
     <g id="text_9">
      <!-- 3.5 -->
      <g transform="translate(20.878125 65.705779) scale(0.1 -0.1)">
       <use xlink:href="#DejaVuSans-33"/>
       <use xlink:href="#DejaVuSans-2e" transform="translate(63.623047 0)"/>
       <use xlink:href="#DejaVuSans-35" transform="translate(95.410156 0)"/>
      </g>
     </g>
    </g>
    <g id="ytick_7">
     <g id="line2d_21">
      <g>
       <use xlink:href="#mbd2f377c6c" x="43.78125" y="10.999219" style="stroke: #000000; stroke-width: 0.8"/>
      </g>
     </g>
     <g id="text_10">
      <!-- 4.0 -->
      <g transform="translate(20.878125 14.798438) scale(0.1 -0.1)">
       <defs>
        <path id="DejaVuSans-34" d="M 2419 4116 
L 825 1625 
L 2419 1625 
L 2419 4116 
z
M 2253 4666 
L 3047 4666 
L 3047 1625 
L 3713 1625 
L 3713 1100 
L 3047 1100 
L 3047 0 
L 2419 0 
L 2419 1100 
L 313 1100 
L 313 1709 
L 2253 4666 
z
" transform="scale(0.015625)"/>
       </defs>
       <use xlink:href="#DejaVuSans-34"/>
       <use xlink:href="#DejaVuSans-2e" transform="translate(63.623047 0)"/>
       <use xlink:href="#DejaVuSans-30" transform="translate(95.410156 0)"/>
      </g>
     </g>
    </g>
    <g id="text_11">
     <!-- alpha -->
     <g transform="translate(14.798438 177.581401) rotate(-90) scale(0.1 -0.1)">
      <defs>
       <path id="DejaVuSans-6c" d="M 603 4863 
L 1178 4863 
L 1178 0 
L 603 0 
L 603 4863 
z
" transform="scale(0.015625)"/>
       <path id="DejaVuSans-70" d="M 1159 525 
L 1159 -1331 
L 581 -1331 
L 581 3500 
L 1159 3500 
L 1159 2969 
Q 1341 3281 1617 3432 
Q 1894 3584 2278 3584 
Q 2916 3584 3314 3078 
Q 3713 2572 3713 1747 
Q 3713 922 3314 415 
Q 2916 -91 2278 -91 
Q 1894 -91 1617 61 
Q 1341 213 1159 525 
z
M 3116 1747 
Q 3116 2381 2855 2742 
Q 2594 3103 2138 3103 
Q 1681 3103 1420 2742 
Q 1159 2381 1159 1747 
Q 1159 1113 1420 752 
Q 1681 391 2138 391 
Q 2594 391 2855 752 
Q 3116 1113 3116 1747 
z
" transform="scale(0.015625)"/>
      </defs>
      <use xlink:href="#DejaVuSans-61"/>
      <use xlink:href="#DejaVuSans-6c" transform="translate(61.279297 0)"/>
      <use xlink:href="#DejaVuSans-70" transform="translate(89.0625 0)"/>
      <use xlink:href="#DejaVuSans-68" transform="translate(152.539062 0)"/>
      <use xlink:href="#DejaVuSans-61" transform="translate(215.917969 0)"/>
     </g>
    </g>
   </g>
   <g id="patch_3">
    <path d="M 43.78125 316.44327 
L 43.78125 10.999219 
" style="fill: none; stroke: #000000; stroke-width: 0.8; stroke-linejoin: miter; stroke-linecap: square"/>
   </g>
   <g id="patch_4">
    <path d="M 382.2577 316.44327 
L 382.2577 10.999219 
" style="fill: none; stroke: #000000; stroke-width: 0.8; stroke-linejoin: miter; stroke-linecap: square"/>
   </g>
   <g id="patch_5">
    <path d="M 43.78125 316.44327 
L 382.2577 316.44327 
" style="fill: none; stroke: #000000; stroke-width: 0.8; stroke-linejoin: miter; stroke-linecap: square"/>
   </g>
   <g id="patch_6">
    <path d="M 43.78125 10.999219 
L 382.2577 10.999219 
" style="fill: none; stroke: #000000; stroke-width: 0.8; stroke-linejoin: miter; stroke-linecap: square"/>
   </g>
  </g>
  <g id="axes_2">
   <g id="patch_7">
    <path d="M 399.181522 316.44327 
L 414.453725 316.44327 
L 414.453725 10.999219 
L 399.181522 10.999219 
z
" style="fill: #ffffff"/>
   </g>
   <g id="QuadMesh_1">
    <path d="M 399.181522 316.44327 
L 414.453725 316.44327 
L 414.453725 297.353017 
L 399.181522 297.353017 
L 399.181522 316.44327 
" clip-path="url(#pa5ea5bacd4)" style="fill: #470d60"/>
    <path d="M 399.181522 297.353017 
L 414.453725 297.353017 
L 414.453725 278.262764 
L 399.181522 278.262764 
L 399.181522 297.353017 
" clip-path="url(#pa5ea5bacd4)" style="fill: #482374"/>
    <path d="M 399.181522 278.262764 
L 414.453725 278.262764 
L 414.453725 259.17251 
L 399.181522 259.17251 
L 399.181522 278.262764 
" clip-path="url(#pa5ea5bacd4)" style="fill: #453581"/>
    <path d="M 399.181522 259.17251 
L 414.453725 259.17251 
L 414.453725 240.082257 
L 399.181522 240.082257 
L 399.181522 259.17251 
" clip-path="url(#pa5ea5bacd4)" style="fill: #3f4889"/>
    <path d="M 399.181522 240.082257 
L 414.453725 240.082257 
L 414.453725 220.992004 
L 399.181522 220.992004 
L 399.181522 240.082257 
" clip-path="url(#pa5ea5bacd4)" style="fill: #375b8d"/>
    <path d="M 399.181522 220.992004 
L 414.453725 220.992004 
L 414.453725 201.901751 
L 399.181522 201.901751 
L 399.181522 220.992004 
" clip-path="url(#pa5ea5bacd4)" style="fill: #2f6b8e"/>
    <path d="M 399.181522 201.901751 
L 414.453725 201.901751 
L 414.453725 182.811498 
L 399.181522 182.811498 
L 399.181522 201.901751 
" clip-path="url(#pa5ea5bacd4)" style="fill: #29798e"/>
    <path d="M 399.181522 182.811498 
L 414.453725 182.811498 
L 414.453725 163.721244 
L 399.181522 163.721244 
L 399.181522 182.811498 
" clip-path="url(#pa5ea5bacd4)" style="fill: #23888e"/>
    <path d="M 399.181522 163.721244 
L 414.453725 163.721244 
L 414.453725 144.630991 
L 399.181522 144.630991 
L 399.181522 163.721244 
" clip-path="url(#pa5ea5bacd4)" style="fill: #1f988b"/>
    <path d="M 399.181522 144.630991 
L 414.453725 144.630991 
L 414.453725 125.540738 
L 399.181522 125.540738 
L 399.181522 144.630991 
" clip-path="url(#pa5ea5bacd4)" style="fill: #22a785"/>
    <path d="M 399.181522 125.540738 
L 414.453725 125.540738 
L 414.453725 106.450485 
L 399.181522 106.450485 
L 399.181522 125.540738 
" clip-path="url(#pa5ea5bacd4)" style="fill: #31b57b"/>
    <path d="M 399.181522 106.450485 
L 414.453725 106.450485 
L 414.453725 87.360232 
L 399.181522 87.360232 
L 399.181522 106.450485 
" clip-path="url(#pa5ea5bacd4)" style="fill: #4ec36b"/>
    <path d="M 399.181522 87.360232 
L 414.453725 87.360232 
L 414.453725 68.269978 
L 399.181522 68.269978 
L 399.181522 87.360232 
" clip-path="url(#pa5ea5bacd4)" style="fill: #70cf57"/>
    <path d="M 399.181522 68.269978 
L 414.453725 68.269978 
L 414.453725 49.179725 
L 399.181522 49.179725 
L 399.181522 68.269978 
" clip-path="url(#pa5ea5bacd4)" style="fill: #98d83e"/>
    <path d="M 399.181522 49.179725 
L 414.453725 49.179725 
L 414.453725 30.089472 
L 399.181522 30.089472 
L 399.181522 49.179725 
" clip-path="url(#pa5ea5bacd4)" style="fill: #c0df25"/>
    <path d="M 399.181522 30.089472 
L 414.453725 30.089472 
L 414.453725 10.999219 
L 399.181522 10.999219 
L 399.181522 30.089472 
" clip-path="url(#pa5ea5bacd4)" style="fill: #ece51b"/>
   </g>
   <g id="matplotlib.axis_3"/>
   <g id="matplotlib.axis_4">
    <g id="ytick_8">
     <g id="line2d_22">
      <defs>
       <path id="m0a27ea52cb" d="M 0 0 
L 3.5 0 
" style="stroke: #000000; stroke-width: 0.8"/>
      </defs>
      <g>
       <use xlink:href="#m0a27ea52cb" x="414.453725" y="316.44327" style="stroke: #000000; stroke-width: 0.8"/>
      </g>
     </g>
     <g id="text_12">
      <!-- -1.02 -->
      <g transform="translate(421.453725 320.242489) scale(0.1 -0.1)">
       <defs>
        <path id="DejaVuSans-2d" d="M 313 2009 
L 1997 2009 
L 1997 1497 
L 313 1497 
L 313 2009 
z
" transform="scale(0.015625)"/>
       </defs>
       <use xlink:href="#DejaVuSans-2d"/>
       <use xlink:href="#DejaVuSans-31" transform="translate(36.083984 0)"/>
       <use xlink:href="#DejaVuSans-2e" transform="translate(99.707031 0)"/>
       <use xlink:href="#DejaVuSans-30" transform="translate(131.494141 0)"/>
       <use xlink:href="#DejaVuSans-32" transform="translate(195.117188 0)"/>
      </g>
     </g>
    </g>
    <g id="ytick_9">
     <g id="line2d_23">
      <g>
       <use xlink:href="#m0a27ea52cb" x="414.453725" y="278.262764" style="stroke: #000000; stroke-width: 0.8"/>
      </g>
     </g>
     <g id="text_13">
      <!-- -0.90 -->
      <g transform="translate(421.453725 282.061982) scale(0.1 -0.1)">
       <defs>
        <path id="DejaVuSans-39" d="M 703 97 
L 703 672 
Q 941 559 1184 500 
Q 1428 441 1663 441 
Q 2288 441 2617 861 
Q 2947 1281 2994 2138 
Q 2813 1869 2534 1725 
Q 2256 1581 1919 1581 
Q 1219 1581 811 2004 
Q 403 2428 403 3163 
Q 403 3881 828 4315 
Q 1253 4750 1959 4750 
Q 2769 4750 3195 4129 
Q 3622 3509 3622 2328 
Q 3622 1225 3098 567 
Q 2575 -91 1691 -91 
Q 1453 -91 1209 -44 
Q 966 3 703 97 
z
M 1959 2075 
Q 2384 2075 2632 2365 
Q 2881 2656 2881 3163 
Q 2881 3666 2632 3958 
Q 2384 4250 1959 4250 
Q 1534 4250 1286 3958 
Q 1038 3666 1038 3163 
Q 1038 2656 1286 2365 
Q 1534 2075 1959 2075 
z
" transform="scale(0.015625)"/>
       </defs>
       <use xlink:href="#DejaVuSans-2d"/>
       <use xlink:href="#DejaVuSans-30" transform="translate(36.083984 0)"/>
       <use xlink:href="#DejaVuSans-2e" transform="translate(99.707031 0)"/>
       <use xlink:href="#DejaVuSans-39" transform="translate(131.494141 0)"/>
       <use xlink:href="#DejaVuSans-30" transform="translate(195.117188 0)"/>
      </g>
     </g>
    </g>
    <g id="ytick_10">
     <g id="line2d_24">
      <g>
       <use xlink:href="#m0a27ea52cb" x="414.453725" y="240.082257" style="stroke: #000000; stroke-width: 0.8"/>
      </g>
     </g>
     <g id="text_14">
      <!-- -0.78 -->
      <g transform="translate(421.453725 243.881476) scale(0.1 -0.1)">
       <defs>
        <path id="DejaVuSans-37" d="M 525 4666 
L 3525 4666 
L 3525 4397 
L 1831 0 
L 1172 0 
L 2766 4134 
L 525 4134 
L 525 4666 
z
" transform="scale(0.015625)"/>
        <path id="DejaVuSans-38" d="M 2034 2216 
Q 1584 2216 1326 1975 
Q 1069 1734 1069 1313 
Q 1069 891 1326 650 
Q 1584 409 2034 409 
Q 2484 409 2743 651 
Q 3003 894 3003 1313 
Q 3003 1734 2745 1975 
Q 2488 2216 2034 2216 
z
M 1403 2484 
Q 997 2584 770 2862 
Q 544 3141 544 3541 
Q 544 4100 942 4425 
Q 1341 4750 2034 4750 
Q 2731 4750 3128 4425 
Q 3525 4100 3525 3541 
Q 3525 3141 3298 2862 
Q 3072 2584 2669 2484 
Q 3125 2378 3379 2068 
Q 3634 1759 3634 1313 
Q 3634 634 3220 271 
Q 2806 -91 2034 -91 
Q 1263 -91 848 271 
Q 434 634 434 1313 
Q 434 1759 690 2068 
Q 947 2378 1403 2484 
z
M 1172 3481 
Q 1172 3119 1398 2916 
Q 1625 2713 2034 2713 
Q 2441 2713 2670 2916 
Q 2900 3119 2900 3481 
Q 2900 3844 2670 4047 
Q 2441 4250 2034 4250 
Q 1625 4250 1398 4047 
Q 1172 3844 1172 3481 
z
" transform="scale(0.015625)"/>
       </defs>
       <use xlink:href="#DejaVuSans-2d"/>
       <use xlink:href="#DejaVuSans-30" transform="translate(36.083984 0)"/>
       <use xlink:href="#DejaVuSans-2e" transform="translate(99.707031 0)"/>
       <use xlink:href="#DejaVuSans-37" transform="translate(131.494141 0)"/>
       <use xlink:href="#DejaVuSans-38" transform="translate(195.117188 0)"/>
      </g>
     </g>
    </g>
    <g id="ytick_11">
     <g id="line2d_25">
      <g>
       <use xlink:href="#m0a27ea52cb" x="414.453725" y="201.901751" style="stroke: #000000; stroke-width: 0.8"/>
      </g>
     </g>
     <g id="text_15">
      <!-- -0.66 -->
      <g transform="translate(421.453725 205.70097) scale(0.1 -0.1)">
       <defs>
        <path id="DejaVuSans-36" d="M 2113 2584 
Q 1688 2584 1439 2293 
Q 1191 2003 1191 1497 
Q 1191 994 1439 701 
Q 1688 409 2113 409 
Q 2538 409 2786 701 
Q 3034 994 3034 1497 
Q 3034 2003 2786 2293 
Q 2538 2584 2113 2584 
z
M 3366 4563 
L 3366 3988 
Q 3128 4100 2886 4159 
Q 2644 4219 2406 4219 
Q 1781 4219 1451 3797 
Q 1122 3375 1075 2522 
Q 1259 2794 1537 2939 
Q 1816 3084 2150 3084 
Q 2853 3084 3261 2657 
Q 3669 2231 3669 1497 
Q 3669 778 3244 343 
Q 2819 -91 2113 -91 
Q 1303 -91 875 529 
Q 447 1150 447 2328 
Q 447 3434 972 4092 
Q 1497 4750 2381 4750 
Q 2619 4750 2861 4703 
Q 3103 4656 3366 4563 
z
" transform="scale(0.015625)"/>
       </defs>
       <use xlink:href="#DejaVuSans-2d"/>
       <use xlink:href="#DejaVuSans-30" transform="translate(36.083984 0)"/>
       <use xlink:href="#DejaVuSans-2e" transform="translate(99.707031 0)"/>
       <use xlink:href="#DejaVuSans-36" transform="translate(131.494141 0)"/>
       <use xlink:href="#DejaVuSans-36" transform="translate(195.117188 0)"/>
      </g>
     </g>
    </g>
    <g id="ytick_12">
     <g id="line2d_26">
      <g>
       <use xlink:href="#m0a27ea52cb" x="414.453725" y="163.721244" style="stroke: #000000; stroke-width: 0.8"/>
      </g>
     </g>
     <g id="text_16">
      <!-- -0.54 -->
      <g transform="translate(421.453725 167.520463) scale(0.1 -0.1)">
       <use xlink:href="#DejaVuSans-2d"/>
       <use xlink:href="#DejaVuSans-30" transform="translate(36.083984 0)"/>
       <use xlink:href="#DejaVuSans-2e" transform="translate(99.707031 0)"/>
       <use xlink:href="#DejaVuSans-35" transform="translate(131.494141 0)"/>
       <use xlink:href="#DejaVuSans-34" transform="translate(195.117188 0)"/>
      </g>
     </g>
    </g>
    <g id="ytick_13">
     <g id="line2d_27">
      <g>
       <use xlink:href="#m0a27ea52cb" x="414.453725" y="125.540738" style="stroke: #000000; stroke-width: 0.8"/>
      </g>
     </g>
     <g id="text_17">
      <!-- -0.42 -->
      <g transform="translate(421.453725 129.339957) scale(0.1 -0.1)">
       <use xlink:href="#DejaVuSans-2d"/>
       <use xlink:href="#DejaVuSans-30" transform="translate(36.083984 0)"/>
       <use xlink:href="#DejaVuSans-2e" transform="translate(99.707031 0)"/>
       <use xlink:href="#DejaVuSans-34" transform="translate(131.494141 0)"/>
       <use xlink:href="#DejaVuSans-32" transform="translate(195.117188 0)"/>
      </g>
     </g>
    </g>
    <g id="ytick_14">
     <g id="line2d_28">
      <g>
       <use xlink:href="#m0a27ea52cb" x="414.453725" y="87.360232" style="stroke: #000000; stroke-width: 0.8"/>
      </g>
     </g>
     <g id="text_18">
      <!-- -0.30 -->
      <g transform="translate(421.453725 91.15945) scale(0.1 -0.1)">
       <use xlink:href="#DejaVuSans-2d"/>
       <use xlink:href="#DejaVuSans-30" transform="translate(36.083984 0)"/>
       <use xlink:href="#DejaVuSans-2e" transform="translate(99.707031 0)"/>
       <use xlink:href="#DejaVuSans-33" transform="translate(131.494141 0)"/>
       <use xlink:href="#DejaVuSans-30" transform="translate(195.117188 0)"/>
      </g>
     </g>
    </g>
    <g id="ytick_15">
     <g id="line2d_29">
      <g>
       <use xlink:href="#m0a27ea52cb" x="414.453725" y="49.179725" style="stroke: #000000; stroke-width: 0.8"/>
      </g>
     </g>
     <g id="text_19">
      <!-- -0.18 -->
      <g transform="translate(421.453725 52.978944) scale(0.1 -0.1)">
       <use xlink:href="#DejaVuSans-2d"/>
       <use xlink:href="#DejaVuSans-30" transform="translate(36.083984 0)"/>
       <use xlink:href="#DejaVuSans-2e" transform="translate(99.707031 0)"/>
       <use xlink:href="#DejaVuSans-31" transform="translate(131.494141 0)"/>
       <use xlink:href="#DejaVuSans-38" transform="translate(195.117188 0)"/>
      </g>
     </g>
    </g>
    <g id="ytick_16">
     <g id="line2d_30">
      <g>
       <use xlink:href="#m0a27ea52cb" x="414.453725" y="10.999219" style="stroke: #000000; stroke-width: 0.8"/>
      </g>
     </g>
     <g id="text_20">
      <!-- -0.06 -->
      <g transform="translate(421.453725 14.798438) scale(0.1 -0.1)">
       <use xlink:href="#DejaVuSans-2d"/>
       <use xlink:href="#DejaVuSans-30" transform="translate(36.083984 0)"/>
       <use xlink:href="#DejaVuSans-2e" transform="translate(99.707031 0)"/>
       <use xlink:href="#DejaVuSans-30" transform="translate(131.494141 0)"/>
       <use xlink:href="#DejaVuSans-36" transform="translate(195.117188 0)"/>
      </g>
     </g>
    </g>
    <g id="text_21">
     <!-- Score -->
     <g transform="translate(458.9256 177.723588) rotate(-90) scale(0.1 -0.1)">
      <defs>
       <path id="DejaVuSans-53" d="M 3425 4513 
L 3425 3897 
Q 3066 4069 2747 4153 
Q 2428 4238 2131 4238 
Q 1616 4238 1336 4038 
Q 1056 3838 1056 3469 
Q 1056 3159 1242 3001 
Q 1428 2844 1947 2747 
L 2328 2669 
Q 3034 2534 3370 2195 
Q 3706 1856 3706 1288 
Q 3706 609 3251 259 
Q 2797 -91 1919 -91 
Q 1588 -91 1214 -16 
Q 841 59 441 206 
L 441 856 
Q 825 641 1194 531 
Q 1563 422 1919 422 
Q 2459 422 2753 634 
Q 3047 847 3047 1241 
Q 3047 1584 2836 1778 
Q 2625 1972 2144 2069 
L 1759 2144 
Q 1053 2284 737 2584 
Q 422 2884 422 3419 
Q 422 4038 858 4394 
Q 1294 4750 2059 4750 
Q 2388 4750 2728 4690 
Q 3069 4631 3425 4513 
z
" transform="scale(0.015625)"/>
       <path id="DejaVuSans-63" d="M 3122 3366 
L 3122 2828 
Q 2878 2963 2633 3030 
Q 2388 3097 2138 3097 
Q 1578 3097 1268 2742 
Q 959 2388 959 1747 
Q 959 1106 1268 751 
Q 1578 397 2138 397 
Q 2388 397 2633 464 
Q 2878 531 3122 666 
L 3122 134 
Q 2881 22 2623 -34 
Q 2366 -91 2075 -91 
Q 1284 -91 818 406 
Q 353 903 353 1747 
Q 353 2603 823 3093 
Q 1294 3584 2113 3584 
Q 2378 3584 2631 3529 
Q 2884 3475 3122 3366 
z
" transform="scale(0.015625)"/>
       <path id="DejaVuSans-6f" d="M 1959 3097 
Q 1497 3097 1228 2736 
Q 959 2375 959 1747 
Q 959 1119 1226 758 
Q 1494 397 1959 397 
Q 2419 397 2687 759 
Q 2956 1122 2956 1747 
Q 2956 2369 2687 2733 
Q 2419 3097 1959 3097 
z
M 1959 3584 
Q 2709 3584 3137 3096 
Q 3566 2609 3566 1747 
Q 3566 888 3137 398 
Q 2709 -91 1959 -91 
Q 1206 -91 779 398 
Q 353 888 353 1747 
Q 353 2609 779 3096 
Q 1206 3584 1959 3584 
z
" transform="scale(0.015625)"/>
       <path id="DejaVuSans-72" d="M 2631 2963 
Q 2534 3019 2420 3045 
Q 2306 3072 2169 3072 
Q 1681 3072 1420 2755 
Q 1159 2438 1159 1844 
L 1159 0 
L 581 0 
L 581 3500 
L 1159 3500 
L 1159 2956 
Q 1341 3275 1631 3429 
Q 1922 3584 2338 3584 
Q 2397 3584 2469 3576 
Q 2541 3569 2628 3553 
L 2631 2963 
z
" transform="scale(0.015625)"/>
       <path id="DejaVuSans-65" d="M 3597 1894 
L 3597 1613 
L 953 1613 
Q 991 1019 1311 708 
Q 1631 397 2203 397 
Q 2534 397 2845 478 
Q 3156 559 3463 722 
L 3463 178 
Q 3153 47 2828 -22 
Q 2503 -91 2169 -91 
Q 1331 -91 842 396 
Q 353 884 353 1716 
Q 353 2575 817 3079 
Q 1281 3584 2069 3584 
Q 2775 3584 3186 3129 
Q 3597 2675 3597 1894 
z
M 3022 2063 
Q 3016 2534 2758 2815 
Q 2500 3097 2075 3097 
Q 1594 3097 1305 2825 
Q 1016 2553 972 2059 
L 3022 2063 
z
" transform="scale(0.015625)"/>
      </defs>
      <use xlink:href="#DejaVuSans-53"/>
      <use xlink:href="#DejaVuSans-63" transform="translate(63.476562 0)"/>
      <use xlink:href="#DejaVuSans-6f" transform="translate(118.457031 0)"/>
      <use xlink:href="#DejaVuSans-72" transform="translate(179.638672 0)"/>
      <use xlink:href="#DejaVuSans-65" transform="translate(218.501953 0)"/>
     </g>
    </g>
   </g>
   <g id="LineCollection_1"/>
   <g id="patch_8">
    <path d="M 399.181522 316.44327 
L 406.817623 316.44327 
L 414.453725 316.44327 
L 414.453725 10.999219 
L 406.817623 10.999219 
L 399.181522 10.999219 
L 399.181522 316.44327 
z
" style="fill: none; stroke: #000000; stroke-width: 0.8; stroke-linejoin: miter; stroke-linecap: square"/>
   </g>
  </g>
 </g>
 <defs>
  <clipPath id="p86d78b86ef">
   <rect x="43.78125" y="10.999219" width="338.47645" height="305.444051"/>
  </clipPath>
  <clipPath id="pa5ea5bacd4">
   <rect x="399.181522" y="10.999219" width="15.272203" height="305.444051"/>
  </clipPath>
 </defs>
</svg>
