<?xml version="1.0" encoding="utf-8" standalone="no"?>
<!DOCTYPE svg PUBLIC "-//W3C//DTD SVG 1.1//EN"
  "http://www.w3.org/Graphics/SVG/1.1/DTD/svg11.dtd">
<svg xmlns:xlink="http://www.w3.org/1999/xlink" width="468.205287pt" height="353.99952pt" viewBox="0 0 468.205287 353.99952" xmlns="http://www.w3.org/2000/svg" version="1.1">
 <metadata>
  <rdf:RDF xmlns:dc="http://purl.org/dc/elements/1.1/" xmlns:cc="http://creativecommons.org/ns#" xmlns:rdf="http://www.w3.org/1999/02/22-rdf-syntax-ns#">
   <cc:Work>
    <dc:type rdf:resource="http://purl.org/dc/dcmitype/StillImage"/>
    <dc:date>1970-01-01T00:00:00+00:00</dc:date>
    <dc:format>image/svg+xml</dc:format>
    <dc:creator>
     <cc:Agent>
      <dc:title>Matplotlib v3.10.7, https://matplotlib.org/</dc:title>
     </cc:Agent>
    </dc:creator>
   </cc:Work>
  </rdf:RDF>
 </metadata>
 <defs>
  <style type="text/css">*{stroke-linejoin: round; stroke-linecap: butt}</style>
 </defs>
 <g id="figure_1">
  <g id="patch_1">
   <path d="M 0 353.99952 
L 468.205287 353.99952 
L 468.205287 0 
L 0 0 
z
" style="fill: #ffffff"/>
  </g>
  <g id="axes_1">
   <g id="patch_2">
    <path d="M 43.78125 316.44327 
L 382.2577 316.44327 
L 382.2577 10.999219 
L 43.78125 10.999219 
z
" style="fill: #ffffff"/>
   </g>
   <g id="QuadContourSet_1">
    <path d="M 282.705803 316.44327 
L 283.851633 316.44327 
L 282.705803 302.075818 
L 282.271543 316.44327 
z
M 262.795423 253.186009 
L 268.077 240.082257 
L 262.795423 222.961087 
L 259.966994 240.082257 
z
M 242.885044 168.146414 
L 244.476496 163.721244 
L 242.885044 158.862041 
L 242.075385 163.721244 
z
" clip-path="url(#p32b9675a28)" style="fill: #470d60"/>
    <path d="M 282.705803 302.075818 
L 283.851633 316.44327 
L 289.680998 316.44327 
L 287.05684 290.989599 
L 282.705803 277.552737 
L 272.935816 290.989599 
L 279.717666 316.44327 
L 282.271543 316.44327 
z
M 262.795423 270.410333 
L 267.115684 265.535928 
L 273.172548 240.082257 
L 266.173835 214.628586 
L 262.795423 206.578338 
L 253.132269 214.628586 
L 256.494941 240.082257 
L 262.447029 265.535928 
z
M 259.966994 240.082257 
L 262.795423 222.961087 
L 268.077 240.082257 
L 262.795423 253.186009 
z
M 242.885044 187.618939 
L 250.721546 163.721244 
L 243.151962 138.267573 
L 242.885044 137.70451 
L 241.497832 138.267573 
L 238.268512 163.721244 
z
M 242.075385 163.721244 
L 242.885044 158.862041 
L 244.476496 163.721244 
L 242.885044 168.146414 
z
" clip-path="url(#p32b9675a28)" style="fill: #482173"/>
    <path d="M 262.795423 292.897591 
L 276.960075 316.44327 
L 279.717666 316.44327 
L 272.935816 290.989599 
L 282.705803 277.552737 
L 287.05684 290.989599 
L 289.680998 316.44327 
L 294.668138 316.44327 
L 291.496644 290.989599 
L 284.062077 265.535928 
L 282.705803 261.776503 
L 277.612902 240.082257 
L 271.440456 214.628586 
L 262.795423 192.350128 
L 259.706654 189.174915 
L 256.009607 163.721244 
L 249.705172 138.267573 
L 242.885044 122.425363 
L 222.974664 117.007467 
L 220.70338 138.267573 
L 222.974664 144.17893 
L 233.99022 163.721244 
L 239.075388 189.174915 
L 241.527721 214.628586 
L 242.885044 219.949423 
L 252.635058 240.082257 
L 260.173696 265.535928 
L 262.306673 290.989599 
z
M 262.447029 265.535928 
L 256.494941 240.082257 
L 253.132269 214.628586 
L 262.795423 206.578338 
L 266.173835 214.628586 
L 273.172548 240.082257 
L 267.115684 265.535928 
L 262.795423 270.410333 
z
M 238.268512 163.721244 
L 241.497832 138.267573 
L 242.885044 137.70451 
L 243.151962 138.267573 
L 250.721546 163.721244 
L 242.885044 187.618939 
z
M 222.974664 70.14439 
L 225.638291 61.906561 
L 222.974664 55.239266 
L 213.987374 61.906561 
z
" clip-path="url(#p32b9675a28)" style="fill: #453581"/>
    <path d="M 262.795423 298.712722 
L 273.963434 316.44327 
L 276.960075 316.44327 
L 262.795423 292.897591 
L 262.306673 290.989599 
L 260.173696 265.535928 
L 252.635058 240.082257 
L 242.885044 219.949423 
L 241.527721 214.628586 
L 239.075388 189.174915 
L 233.99022 163.721244 
L 222.974664 144.17893 
L 220.70338 138.267573 
L 222.974664 117.007467 
L 242.885044 122.425363 
L 249.705172 138.267573 
L 256.009607 163.721244 
L 259.706654 189.174915 
L 262.795423 192.350128 
L 271.440456 214.628586 
L 277.612902 240.082257 
L 282.705803 261.776503 
L 284.062077 265.535928 
L 291.496644 290.989599 
L 294.668138 316.44327 
L 299.025979 316.44327 
L 295.430829 290.989599 
L 289.448904 265.535928 
L 282.705803 245.300499 
L 281.547519 240.082257 
L 276.0101 214.628586 
L 268.308096 189.174915 
L 262.795423 174.031533 
L 260.595374 163.721244 
L 255.212339 138.267573 
L 246.187529 112.813902 
L 242.885044 104.206603 
L 230.691899 87.360232 
L 232.965458 61.906561 
L 224.184991 36.45289 
L 222.974664 33.347238 
L 205.437494 36.45289 
L 203.064285 36.857991 
L 198.320696 61.906561 
L 203.064285 71.24945 
L 219.501303 87.360232 
L 214.407082 112.813902 
L 216.738055 138.267573 
L 222.974664 153.613016 
L 229.107029 163.721244 
L 234.395442 189.174915 
L 238.91396 214.628586 
L 242.885044 229.625668 
L 248.28968 240.082257 
L 257.740368 265.535928 
L 260.772992 290.989599 
z
M 213.987374 61.906561 
L 222.974664 55.239266 
L 225.638291 61.906561 
L 222.974664 70.14439 
z
" clip-path="url(#p32b9675a28)" style="fill: #3e4989"/>
    <path d="M 262.795423 304.527853 
L 270.682328 316.44327 
L 273.963434 316.44327 
L 262.795423 298.712722 
L 260.772992 290.989599 
L 257.740368 265.535928 
L 248.28968 240.082257 
L 242.885044 229.625668 
L 238.91396 214.628586 
L 234.395442 189.174915 
L 229.107029 163.721244 
L 222.974664 153.613016 
L 216.738055 138.267573 
L 214.407082 112.813902 
L 219.501303 87.360232 
L 203.064285 71.24945 
L 198.320696 61.906561 
L 203.064285 36.857991 
L 205.437494 36.45289 
L 222.974664 33.347238 
L 224.184991 36.45289 
L 232.965458 61.906561 
L 230.691899 87.360232 
L 242.885044 104.206603 
L 246.187529 112.813902 
L 255.212339 138.267573 
L 260.595374 163.721244 
L 262.795423 174.031533 
L 268.308096 189.174915 
L 276.0101 214.628586 
L 281.547519 240.082257 
L 282.705803 245.300499 
L 289.448904 265.535928 
L 295.430829 290.989599 
L 299.025979 316.44327 
L 302.616182 316.44327 
L 303.08215 316.44327 
L 302.616182 314.861533 
L 298.962874 290.989599 
L 294.108725 265.535928 
L 287.161661 240.082257 
L 282.705803 227.739817 
L 280.045866 214.628586 
L 274.314673 189.174915 
L 266.676416 163.721244 
L 262.795423 153.170024 
L 259.96189 138.267573 
L 253.780699 112.813902 
L 245.765825 87.360232 
L 242.885044 80.481452 
L 239.008502 61.906561 
L 233.24198 36.45289 
L 225.136936 10.999219 
L 222.974664 10.999219 
L 203.064285 10.999219 
L 196.344391 10.999219 
L 187.059877 36.45289 
L 190.339002 61.906561 
L 203.064285 84.347332 
L 206.791251 87.360232 
L 203.064285 103.703289 
L 202.740317 112.813902 
L 203.064285 114.610861 
L 212.258541 138.267573 
L 222.974664 163.047102 
L 223.419274 163.721244 
L 228.98169 189.174915 
L 236.086415 214.628586 
L 242.885044 239.301914 
L 243.318863 240.082257 
L 255.122807 265.535928 
L 259.168136 290.989599 
z
" clip-path="url(#p32b9675a28)" style="fill: #375b8d"/>
    <path d="M 262.795423 310.342984 
L 267.057031 316.44327 
L 270.682328 316.44327 
L 262.795423 304.527853 
L 259.168136 290.989599 
L 255.122807 265.535928 
L 243.318863 240.082257 
L 242.885044 239.301914 
L 236.086415 214.628586 
L 228.98169 189.174915 
L 223.419274 163.721244 
L 222.974664 163.047102 
L 212.258541 138.267573 
L 203.064285 114.610861 
L 202.740317 112.813902 
L 203.064285 103.703289 
L 206.791251 87.360232 
L 203.064285 84.347332 
L 190.339002 61.906561 
L 187.059877 36.45289 
L 196.344391 10.999219 
L 186.591484 10.999219 
L 183.153906 17.653012 
L 179.530667 36.45289 
L 182.328518 61.906561 
L 183.153906 65.463155 
L 198.007354 87.360232 
L 200.104074 112.813902 
L 203.064285 128.624149 
L 207.111335 138.267573 
L 218.844856 163.721244 
L 222.847261 189.174915 
L 222.974664 189.718996 
L 233.006975 214.628586 
L 241.064453 240.082257 
L 242.885044 246.389974 
L 252.290814 265.535928 
L 257.485178 290.989599 
z
M 302.616182 314.861533 
L 303.08215 316.44327 
L 308.689096 316.44327 
L 302.616182 294.059596 
L 302.167419 290.989599 
L 298.214642 265.535928 
L 292.795531 240.082257 
L 284.906419 214.628586 
L 282.705803 207.625309 
L 279.430862 189.174915 
L 273.70435 163.721244 
L 265.944282 138.267573 
L 262.795423 128.190502 
L 260.003301 112.813902 
L 254.618263 87.360232 
L 245.994999 61.906561 
L 242.885044 51.810256 
L 240.412758 36.45289 
L 235.506966 10.999219 
L 225.136936 10.999219 
L 233.24198 36.45289 
L 239.008502 61.906561 
L 242.885044 80.481452 
L 245.765825 87.360232 
L 253.780699 112.813902 
L 259.96189 138.267573 
L 262.795423 153.170024 
L 266.676416 163.721244 
L 274.314673 189.174915 
L 280.045866 214.628586 
L 282.705803 227.739817 
L 287.161661 240.082257 
L 294.108725 265.535928 
L 298.962874 290.989599 
z
" clip-path="url(#p32b9675a28)" style="fill: #306a8e"/>
    <path d="M 262.795423 316.158115 
L 263.006775 316.44327 
L 267.057031 316.44327 
L 262.795423 310.342984 
L 257.485178 290.989599 
L 252.290814 265.535928 
L 242.885044 246.389974 
L 241.064453 240.082257 
L 233.006975 214.628586 
L 222.974664 189.718996 
L 222.847261 189.174915 
L 218.844856 163.721244 
L 207.111335 138.267573 
L 203.064285 128.624149 
L 200.104074 112.813902 
L 198.007354 87.360232 
L 183.153906 65.463155 
L 182.328518 61.906561 
L 179.530667 36.45289 
L 183.153906 17.653012 
L 186.591484 10.999219 
L 183.153906 10.999219 
L 163.243526 10.999219 
L 160.790625 10.999219 
L 163.243526 18.252776 
L 174.531265 36.45289 
L 179.17732 61.906561 
L 183.153906 78.287244 
L 190.095606 87.360232 
L 197.250198 112.813902 
L 202.304684 138.267573 
L 203.064285 142.248073 
L 213.765452 163.721244 
L 220.615588 189.174915 
L 222.974664 198.931481 
L 229.62633 214.628586 
L 238.968899 240.082257 
L 242.885044 253.251 
L 249.206096 265.535928 
L 255.716125 290.989599 
z
M 302.616182 294.059596 
L 308.689096 316.44327 
L 313.512637 316.44327 
L 308.205444 290.989599 
L 302.616182 270.613057 
L 301.884459 265.535928 
L 297.638973 240.082257 
L 291.921265 214.628586 
L 285.076674 189.174915 
L 282.705803 181.270376 
L 279.542609 163.721244 
L 273.939138 138.267573 
L 267.641147 112.813902 
L 262.795423 94.234796 
L 261.660474 87.360232 
L 255.872663 61.906561 
L 249.728319 36.45289 
L 243.908351 10.999219 
L 242.885044 10.999219 
L 235.506966 10.999219 
L 240.412758 36.45289 
L 242.885044 51.810256 
L 245.994999 61.906561 
L 254.618263 87.360232 
L 260.003301 112.813902 
L 262.795423 128.190502 
L 265.944282 138.267573 
L 273.70435 163.721244 
L 279.430862 189.174915 
L 282.705803 207.625309 
L 284.906419 214.628586 
L 292.795531 240.082257 
L 298.214642 265.535928 
L 302.167419 290.989599 
z
" clip-path="url(#p32b9675a28)" style="fill: #297a8e"/>
    <path d="M 262.795423 316.44327 
L 263.006775 316.44327 
L 262.795423 316.158115 
L 255.716125 290.989599 
L 249.206096 265.535928 
L 242.885044 253.251 
L 238.968899 240.082257 
L 229.62633 214.628586 
L 222.974664 198.931481 
L 220.615588 189.174915 
L 213.765452 163.721244 
L 203.064285 142.248073 
L 202.304684 138.267573 
L 197.250198 112.813902 
L 190.095606 87.360232 
L 183.153906 78.287244 
L 179.17732 61.906561 
L 174.531265 36.45289 
L 163.243526 18.252776 
L 160.790625 10.999219 
L 157.031408 10.999219 
L 163.243526 28.417382 
L 168.685128 36.45289 
L 175.709982 61.906561 
L 182.305818 87.360232 
L 183.153906 89.698476 
L 194.139497 112.813902 
L 199.749765 138.267573 
L 203.064285 155.01275 
L 207.809547 163.721244 
L 218.229932 189.174915 
L 222.974664 208.143967 
L 225.879104 214.628586 
L 236.738148 240.082257 
L 242.885044 260.112026 
L 245.819088 265.535928 
L 253.851689 290.989599 
L 260.452736 316.44327 
z
M 313.784819 290.989599 
L 308.323565 265.535928 
L 302.616182 244.911586 
L 301.886735 240.082257 
L 297.750499 214.628586 
L 292.476353 189.174915 
L 286.354453 163.721244 
L 282.705803 151.228969 
L 280.42856 138.267573 
L 275.829833 112.813902 
L 270.632913 87.360232 
L 264.079151 61.906561 
L 262.795423 57.698009 
L 258.724679 36.45289 
L 254.416114 10.999219 
L 243.908351 10.999219 
L 249.728319 36.45289 
L 255.872663 61.906561 
L 261.660474 87.360232 
L 262.795423 94.234796 
L 267.641147 112.813902 
L 273.939138 138.267573 
L 279.542609 163.721244 
L 282.705803 181.270376 
L 285.076674 189.174915 
L 291.921265 214.628586 
L 297.638973 240.082257 
L 301.884459 265.535928 
L 302.616182 270.613057 
L 308.205444 290.989599 
L 313.512637 316.44327 
L 317.74509 316.44327 
z
" clip-path="url(#p32b9675a28)" style="fill: #23898e"/>
    <path d="M 43.78125 316.44327 
L 63.691629 316.44327 
L 83.602009 316.44327 
L 103.512388 316.44327 
L 123.422768 316.44327 
L 143.333147 316.44327 
L 163.243526 316.44327 
L 174.344603 316.44327 
L 163.243526 307.70662 
L 146.094919 290.989599 
L 143.333147 289.331963 
L 123.422768 276.744567 
L 114.613465 265.535928 
L 103.512388 254.53422 
L 83.602009 243.342193 
L 80.066878 240.082257 
L 63.691629 225.229952 
L 54.747835 214.628586 
L 43.78125 205.331852 
L 23.870871 194.160736 
L 23.870871 214.628586 
L 23.870871 240.082257 
L 23.870871 265.535928 
L 23.870871 290.989599 
L 23.870871 316.44327 
z
M 253.851689 290.989599 
L 245.819088 265.535928 
L 242.885044 260.112026 
L 236.738148 240.082257 
L 225.879104 214.628586 
L 222.974664 208.143967 
L 218.229932 189.174915 
L 207.809547 163.721244 
L 203.064285 155.01275 
L 199.749765 138.267573 
L 194.139497 112.813902 
L 183.153906 89.698476 
L 182.305818 87.360232 
L 175.709982 61.906561 
L 168.685128 36.45289 
L 163.243526 28.417382 
L 157.031408 10.999219 
L 152.813228 10.999219 
L 162.480626 36.45289 
L 163.243526 39.016835 
L 171.855927 61.906561 
L 179.238502 87.360232 
L 183.153906 97.692356 
L 190.721133 112.813902 
L 196.990961 138.267573 
L 201.875287 163.721244 
L 203.064285 165.607139 
L 215.667457 189.174915 
L 221.843834 214.628586 
L 222.974664 216.412963 
L 234.353544 240.082257 
L 242.2341 265.535928 
L 242.885044 266.831396 
L 251.880998 290.989599 
L 257.805105 316.44327 
L 260.452736 316.44327 
z
M 318.587952 290.989599 
L 314.431286 265.535928 
L 309.21643 240.082257 
L 302.88503 214.628586 
L 302.616182 213.79318 
L 298.568573 189.174915 
L 294.378682 163.721244 
L 288.852541 138.267573 
L 282.705803 114.520452 
L 282.446177 112.813902 
L 278.284276 87.360232 
L 274.131278 61.906561 
L 268.771923 36.45289 
L 262.795423 13.352844 
L 262.464383 10.999219 
L 254.416114 10.999219 
L 258.724679 36.45289 
L 262.795423 57.698009 
L 264.079151 61.906561 
L 270.632913 87.360232 
L 275.829833 112.813902 
L 280.42856 138.267573 
L 282.705803 151.228969 
L 286.354453 163.721244 
L 292.476353 189.174915 
L 297.750499 214.628586 
L 301.886735 240.082257 
L 302.616182 244.911586 
L 308.323565 265.535928 
L 313.784819 290.989599 
L 317.74509 316.44327 
L 321.515636 316.44327 
z
M 441.988838 316.44327 
L 461.899217 316.44327 
L 481.809596 316.44327 
L 501.719976 316.44327 
L 521.630355 316.44327 
L 541.540735 316.44327 
L 561.451114 316.44327 
L 581.361493 316.44327 
L 601.271873 316.44327 
L 621.182252 316.44327 
L 641.092632 316.44327 
L 661.003011 316.44327 
L 680.91339 316.44327 
L 700.82377 316.44327 
L 720.734149 316.44327 
L 740.644529 316.44327 
L 760.554908 316.44327 
L 780.465287 316.44327 
L 800.375667 316.44327 
L 820.286046 316.44327 
L 840.196425 316.44327 
L 860.106805 316.44327 
L 880.017184 316.44327 
L 899.927564 316.44327 
L 899.927564 290.989599 
L 899.927564 265.535928 
L 899.927564 240.082257 
L 899.927564 214.628586 
L 899.927564 189.174915 
L 899.927564 163.721244 
L 899.927564 138.267573 
L 899.927564 112.813902 
L 899.927564 87.360232 
L 899.927564 61.906561 
L 899.927564 36.45289 
L 899.927564 10.999219 
L 880.017184 10.999219 
L 860.106805 10.999219 
L 840.196425 10.999219 
L 820.286046 10.999219 
L 800.375667 10.999219 
L 780.465287 10.999219 
L 760.554908 10.999219 
L 740.644529 10.999219 
L 720.734149 10.999219 
L 700.82377 10.999219 
L 680.91339 10.999219 
L 661.003011 10.999219 
L 641.092632 10.999219 
L 621.182252 10.999219 
L 601.271873 10.999219 
L 581.361493 10.999219 
L 561.451114 10.999219 
L 541.540735 10.999219 
L 521.630355 10.999219 
L 501.719976 10.999219 
L 481.809596 10.999219 
L 461.899217 10.999219 
L 441.988838 10.999219 
L 422.078458 10.999219 
L 402.168079 10.999219 
L 382.2577 10.999219 
L 370.836696 10.999219 
L 377.151386 36.45289 
L 381.457718 61.906561 
L 382.2577 67.2311 
L 390.990463 87.360232 
L 397.864693 112.813902 
L 401.963845 138.267573 
L 402.168079 139.769699 
L 413.211917 163.721244 
L 418.878326 189.174915 
L 421.977982 214.628586 
L 422.078458 215.613253 
L 429.269086 240.082257 
L 433.171746 265.535928 
L 433.508117 290.989599 
L 427.897234 316.44327 
z
" clip-path="url(#p32b9675a28)" style="fill: #1f978b"/>
    <path d="M 163.243526 307.70662 
L 174.344603 316.44327 
L 183.153906 316.44327 
L 195.739746 316.44327 
L 183.153906 304.139196 
L 172.562055 290.989599 
L 163.243526 281.509574 
L 147.470262 265.535928 
L 143.333147 261.772477 
L 123.422768 247.211273 
L 118.568747 240.082257 
L 103.512388 223.73023 
L 96.512493 214.628586 
L 83.602009 201.988448 
L 72.981883 189.174915 
L 63.691629 179.577481 
L 43.78125 165.688743 
L 42.518708 163.721244 
L 23.870871 144.098812 
L 23.870871 163.721244 
L 23.870871 189.174915 
L 23.870871 194.160736 
L 43.78125 205.331852 
L 54.747835 214.628586 
L 63.691629 225.229952 
L 80.066878 240.082257 
L 83.602009 243.342193 
L 103.512388 254.53422 
L 114.613465 265.535928 
L 123.422768 276.744567 
L 143.333147 289.331963 
L 146.094919 290.989599 
z
M 251.880998 290.989599 
L 242.885044 266.831396 
L 242.2341 265.535928 
L 234.353544 240.082257 
L 222.974664 216.412963 
L 221.843834 214.628586 
L 215.667457 189.174915 
L 203.064285 165.607139 
L 201.875287 163.721244 
L 196.990961 138.267573 
L 190.721133 112.813902 
L 183.153906 97.692356 
L 179.238502 87.360232 
L 171.855927 61.906561 
L 163.243526 39.016835 
L 162.480626 36.45289 
L 152.813228 10.999219 
L 148.008223 10.999219 
L 158.586786 36.45289 
L 163.243526 51.257463 
L 167.517934 61.906561 
L 175.872466 87.360232 
L 183.153906 105.686236 
L 186.927501 112.813902 
L 193.992885 138.267573 
L 197.842236 163.721244 
L 203.064285 171.541989 
L 212.899838 189.174915 
L 217.726031 214.628586 
L 222.974664 222.439118 
L 231.792283 240.082257 
L 238.945475 265.535928 
L 242.885044 273.016134 
L 249.791204 290.989599 
L 254.937877 316.44327 
L 257.805105 316.44327 
z
M 322.526561 316.44327 
L 326.815577 316.44327 
L 323.033 290.989599 
L 322.526561 288.448176 
L 319.62062 265.535928 
L 315.895421 240.082257 
L 311.874841 214.628586 
L 305.318978 189.174915 
L 302.616182 178.068929 
L 300.887414 163.721244 
L 297.129958 138.267573 
L 293.230273 112.813902 
L 287.611027 87.360232 
L 282.705803 68.770373 
L 281.910284 61.906561 
L 279.126979 36.45289 
L 275.509711 10.999219 
L 262.795423 10.999219 
L 262.464383 10.999219 
L 262.795423 13.352844 
L 268.771923 36.45289 
L 274.131278 61.906561 
L 278.284276 87.360232 
L 282.446177 112.813902 
L 282.705803 114.520452 
L 288.852541 138.267573 
L 294.378682 163.721244 
L 298.568573 189.174915 
L 302.616182 213.79318 
L 302.88503 214.628586 
L 309.21643 240.082257 
L 314.431286 265.535928 
L 318.587952 290.989599 
L 321.515636 316.44327 
z
M 422.078458 316.44327 
L 427.897234 316.44327 
L 433.508117 290.989599 
L 433.171746 265.535928 
L 429.269086 240.082257 
L 422.078458 215.613253 
L 421.977982 214.628586 
L 418.878326 189.174915 
L 413.211917 163.721244 
L 402.168079 139.769699 
L 401.963845 138.267573 
L 397.864693 112.813902 
L 390.990463 87.360232 
L 382.2577 67.2311 
L 381.457718 61.906561 
L 377.151386 36.45289 
L 370.836696 10.999219 
L 362.34732 10.999219 
L 348.677566 10.999219 
L 357.564676 36.45289 
L 362.34732 53.406706 
L 365.644856 61.906561 
L 373.308605 87.360232 
L 378.641452 112.813902 
L 382.2577 133.343508 
L 384.394659 138.267573 
L 392.666318 163.721244 
L 397.766506 189.174915 
L 401.433617 214.628586 
L 402.168079 221.08347 
L 407.967375 240.082257 
L 412.312291 265.535928 
L 413.593942 290.989599 
L 411.739207 316.44327 
z
" clip-path="url(#p32b9675a28)" style="fill: #22a785"/>
    <path d="M 183.153906 304.139196 
L 195.739746 316.44327 
L 203.064285 316.44327 
L 207.762484 316.44327 
L 203.064285 311.3907 
L 186.000508 290.989599 
L 183.153906 287.993707 
L 165.182972 265.535928 
L 163.243526 263.525563 
L 143.711184 240.082257 
L 143.333147 239.701382 
L 123.422768 216.747919 
L 121.974933 214.628586 
L 103.512388 196.144375 
L 98.081893 189.174915 
L 83.602009 173.173501 
L 77.058062 163.721244 
L 63.691629 150.315773 
L 55.156541 138.267573 
L 43.78125 125.538933 
L 33.442433 112.813902 
L 23.870871 103.029055 
L 23.870871 112.813902 
L 23.870871 138.267573 
L 23.870871 144.098812 
L 42.518708 163.721244 
L 43.78125 165.688743 
L 63.691629 179.577481 
L 72.981883 189.174915 
L 83.602009 201.988448 
L 96.512493 214.628586 
L 103.512388 223.73023 
L 118.568747 240.082257 
L 123.422768 247.211273 
L 143.333147 261.772477 
L 147.470262 265.535928 
L 163.243526 281.509574 
L 172.562055 290.989599 
z
M 249.791204 290.989599 
L 242.885044 273.016134 
L 238.945475 265.535928 
L 231.792283 240.082257 
L 222.974664 222.439118 
L 217.726031 214.628586 
L 212.899838 189.174915 
L 203.064285 171.541989 
L 197.842236 163.721244 
L 193.992885 138.267573 
L 186.927501 112.813902 
L 183.153906 105.686236 
L 175.872466 87.360232 
L 167.517934 61.906561 
L 163.243526 51.257463 
L 158.586786 36.45289 
L 148.008223 10.999219 
L 143.333147 10.999219 
L 142.198937 10.999219 
L 143.333147 12.799629 
L 154.198311 36.45289 
L 162.263116 61.906561 
L 163.243526 63.465619 
L 172.143184 87.360232 
L 182.320833 112.813902 
L 183.153906 114.140291 
L 190.710059 138.267573 
L 193.276073 163.721244 
L 203.064285 177.476839 
L 209.89135 189.174915 
L 213.050889 214.628586 
L 222.974664 228.465274 
L 229.026081 240.082257 
L 235.310996 265.535928 
L 242.885044 279.200872 
L 247.566979 290.989599 
L 251.811305 316.44327 
L 254.937877 316.44327 
z
M 329.577661 290.989599 
L 325.607384 265.535928 
L 322.526561 249.098797 
L 321.491066 240.082257 
L 319.003532 214.628586 
L 315.052664 189.174915 
L 311.282265 163.721244 
L 305.914059 138.267573 
L 302.616182 123.396294 
L 301.611931 112.813902 
L 299.803018 87.360232 
L 298.78072 61.906561 
L 299.555525 36.45289 
L 302.616182 21.407053 
L 308.326749 10.999219 
L 302.616182 10.999219 
L 282.705803 10.999219 
L 275.509711 10.999219 
L 279.126979 36.45289 
L 281.910284 61.906561 
L 282.705803 68.770373 
L 287.611027 87.360232 
L 293.230273 112.813902 
L 297.129958 138.267573 
L 300.887414 163.721244 
L 302.616182 178.068929 
L 305.318978 189.174915 
L 311.874841 214.628586 
L 315.895421 240.082257 
L 319.62062 265.535928 
L 322.526561 288.448176 
L 323.033 290.989599 
L 326.815577 316.44327 
L 332.056438 316.44327 
z
M 402.168079 316.44327 
L 411.739207 316.44327 
L 413.593942 290.989599 
L 412.312291 265.535928 
L 407.967375 240.082257 
L 402.168079 221.08347 
L 401.433617 214.628586 
L 397.766506 189.174915 
L 392.666318 163.721244 
L 384.394659 138.267573 
L 382.2577 133.343508 
L 378.641452 112.813902 
L 373.308605 87.360232 
L 365.644856 61.906561 
L 362.34732 53.406706 
L 357.564676 36.45289 
L 348.677566 10.999219 
L 342.436941 10.999219 
L 329.711197 10.999219 
L 337.885949 36.45289 
L 342.436941 48.951075 
L 348.28828 61.906561 
L 357.74825 87.360232 
L 362.34732 100.423258 
L 366.695939 112.813902 
L 373.607581 138.267573 
L 379.073975 163.721244 
L 382.2577 180.483468 
L 385.291479 189.174915 
L 391.811053 214.628586 
L 396.155679 240.082257 
L 398.998118 265.535928 
L 400.346635 290.989599 
L 400.180349 316.44327 
z
" clip-path="url(#p32b9675a28)" style="fill: #32b67a"/>
    <path d="M 203.064285 311.3907 
L 207.762484 316.44327 
L 216.654273 316.44327 
L 203.064285 299.729281 
L 196.751615 290.989599 
L 183.153906 274.169345 
L 177.296704 265.535928 
L 163.243526 248.063641 
L 157.748299 240.082257 
L 143.333147 222.16257 
L 138.20621 214.628586 
L 123.422768 196.615402 
L 117.920494 189.174915 
L 103.512388 172.173256 
L 97.840739 163.721244 
L 83.602009 145.758105 
L 78.221759 138.267573 
L 63.691629 121.192153 
L 58.308593 112.813902 
L 43.78125 95.742371 
L 38.105842 87.360232 
L 23.870871 69.357744 
L 23.870871 87.360232 
L 23.870871 103.029055 
L 33.442433 112.813902 
L 43.78125 125.538933 
L 55.156541 138.267573 
L 63.691629 150.315773 
L 77.058062 163.721244 
L 83.602009 173.173501 
L 98.081893 189.174915 
L 103.512388 196.144375 
L 121.974933 214.628586 
L 123.422768 216.747919 
L 143.333147 239.701382 
L 143.711184 240.082257 
L 163.243526 263.525563 
L 165.182972 265.535928 
L 183.153906 287.993707 
L 186.000508 290.989599 
z
M 247.566979 290.989599 
L 242.885044 279.200872 
L 235.310996 265.535928 
L 229.026081 240.082257 
L 222.974664 228.465274 
L 213.050889 214.628586 
L 209.89135 189.174915 
L 203.064285 177.476839 
L 193.276073 163.721244 
L 190.710059 138.267573 
L 183.153906 114.140291 
L 182.320833 112.813902 
L 172.143184 87.360232 
L 163.243526 63.465619 
L 162.263116 61.906561 
L 154.198311 36.45289 
L 143.333147 12.799629 
L 142.198937 10.999219 
L 133.615172 10.999219 
L 143.333147 24.66933 
L 149.170995 36.45289 
L 153.619338 61.906561 
L 163.243526 75.456497 
L 167.962667 87.360232 
L 173.505809 112.813902 
L 183.153906 126.380919 
L 187.082662 138.267573 
L 188.014078 163.721244 
L 203.064285 183.41169 
L 206.596034 189.174915 
L 207.643568 214.628586 
L 222.974664 234.491429 
L 226.019266 240.082257 
L 231.249273 265.535928 
L 242.885044 285.385611 
L 245.189832 290.989599 
L 248.373763 316.44327 
L 251.811305 316.44327 
z
M 335.078794 290.989599 
L 332.760996 265.535928 
L 330.134531 240.082257 
L 327.782591 214.628586 
L 322.854544 189.174915 
L 322.526561 187.35021 
L 320.781712 163.721244 
L 319.303679 138.267573 
L 318.74625 112.813902 
L 320.202807 87.360232 
L 322.526561 72.465949 
L 330.673351 87.360232 
L 342.436941 100.760528 
L 348.193545 112.813902 
L 360.006084 138.267573 
L 362.34732 143.009361 
L 368.726964 163.721244 
L 374.982397 189.174915 
L 380.16426 214.628586 
L 382.2577 226.360695 
L 385.899922 240.082257 
L 390.729987 265.535928 
L 393.578762 290.989599 
L 394.555357 316.44327 
L 400.180349 316.44327 
L 400.346635 290.989599 
L 398.998118 265.535928 
L 396.155679 240.082257 
L 391.811053 214.628586 
L 385.291479 189.174915 
L 382.2577 180.483468 
L 379.073975 163.721244 
L 373.607581 138.267573 
L 366.695939 112.813902 
L 362.34732 100.423258 
L 357.74825 87.360232 
L 348.28828 61.906561 
L 342.436941 48.951075 
L 337.885949 36.45289 
L 329.711197 10.999219 
L 322.526561 10.999219 
L 308.326749 10.999219 
L 302.616182 21.407053 
L 299.555525 36.45289 
L 298.78072 61.906561 
L 299.803018 87.360232 
L 301.611931 112.813902 
L 302.616182 123.396294 
L 305.914059 138.267573 
L 311.282265 163.721244 
L 315.052664 189.174915 
L 319.003532 214.628586 
L 321.491066 240.082257 
L 322.526561 249.098797 
L 325.607384 265.535928 
L 329.577661 290.989599 
L 332.056438 316.44327 
L 336.606686 316.44327 
z
" clip-path="url(#p32b9675a28)" style="fill: #4cc26c"/>
    <path d="M 203.064285 299.729281 
L 216.654273 316.44327 
L 222.974664 316.44327 
L 228.493845 316.44327 
L 222.974664 315.111455 
L 205.828651 290.989599 
L 203.064285 287.226183 
L 188.305733 265.535928 
L 183.153906 259.407543 
L 170.284153 240.082257 
L 163.243526 231.168219 
L 152.471607 214.628586 
L 143.333147 203.45653 
L 133.948137 189.174915 
L 123.422768 176.521739 
L 114.8787 163.721244 
L 103.512388 148.627201 
L 97.25423 138.267573 
L 83.602009 118.191511 
L 80.24621 112.813902 
L 63.691629 88.606666 
L 62.942304 87.360232 
L 44.626504 61.906561 
L 43.78125 60.93566 
L 27.370144 36.45289 
L 23.870871 32.970935 
L 23.870871 36.45289 
L 23.870871 61.906561 
L 23.870871 69.357744 
L 38.105842 87.360232 
L 43.78125 95.742371 
L 58.308593 112.813902 
L 63.691629 121.192153 
L 78.221759 138.267573 
L 83.602009 145.758105 
L 97.840739 163.721244 
L 103.512388 172.173256 
L 117.920494 189.174915 
L 123.422768 196.615402 
L 138.20621 214.628586 
L 143.333147 222.16257 
L 157.748299 240.082257 
L 163.243526 248.063641 
L 177.296704 265.535928 
L 183.153906 274.169345 
L 196.751615 290.989599 
z
M 242.885044 295.787101 
L 244.556491 316.44327 
L 248.373763 316.44327 
L 245.189832 290.989599 
L 242.885044 285.385611 
L 231.249273 265.535928 
L 226.019266 240.082257 
L 222.974664 234.491429 
L 207.643568 214.628586 
L 206.596034 189.174915 
L 203.064285 183.41169 
L 188.014078 163.721244 
L 187.082662 138.267573 
L 183.153906 126.380919 
L 173.505809 112.813902 
L 167.962667 87.360232 
L 163.243526 75.456497 
L 153.619338 61.906561 
L 149.170995 36.45289 
L 143.333147 24.66933 
L 133.615172 10.999219 
L 123.422768 10.999219 
L 121.742025 10.999219 
L 118.136101 36.45289 
L 123.422768 43.015246 
L 141.510743 61.906561 
L 143.333147 69.266366 
L 162.778406 87.360232 
L 160.622961 112.813902 
L 163.243526 116.126005 
L 182.603349 138.267573 
L 177.698637 163.721244 
L 183.153906 170.143161 
L 202.360294 189.174915 
L 187.534332 214.628586 
L 203.064285 224.756713 
L 220.600238 240.082257 
L 222.974664 242.440282 
L 226.64631 265.535928 
L 242.228896 290.989599 
z
M 339.82386 290.989599 
L 338.685628 265.535928 
L 337.793966 240.082257 
L 337.705165 214.628586 
L 338.396012 189.174915 
L 342.103275 163.721244 
L 342.436941 162.569016 
L 343.311849 163.721244 
L 362.34732 186.75018 
L 363.125826 189.174915 
L 370.121147 214.628586 
L 375.768436 240.082257 
L 380.547058 265.535928 
L 382.2577 275.751551 
L 385.156294 290.989599 
L 387.834474 316.44327 
L 394.555357 316.44327 
L 393.578762 290.989599 
L 390.729987 265.535928 
L 385.899922 240.082257 
L 382.2577 226.360695 
L 380.16426 214.628586 
L 374.982397 189.174915 
L 368.726964 163.721244 
L 362.34732 143.009361 
L 360.006084 138.267573 
L 348.193545 112.813902 
L 342.436941 100.760528 
L 330.673351 87.360232 
L 322.526561 72.465949 
L 320.202807 87.360232 
L 318.74625 112.813902 
L 319.303679 138.267573 
L 320.781712 163.721244 
L 322.526561 187.35021 
L 322.854544 189.174915 
L 327.782591 214.628586 
L 330.134531 240.082257 
L 332.760996 265.535928 
L 335.078794 290.989599 
L 336.606686 316.44327 
L 340.62732 316.44327 
z
M 123.422768 114.183078 
L 126.292855 112.813902 
L 123.422768 108.955317 
L 122.541202 112.813902 
z
" clip-path="url(#p32b9675a28)" style="fill: #70cf57"/>
    <path d="M 222.974664 315.111455 
L 228.493845 316.44327 
L 242.885044 316.44327 
L 244.556491 316.44327 
L 242.885044 295.787101 
L 242.228896 290.989599 
L 226.64631 265.535928 
L 222.974664 242.440282 
L 220.600238 240.082257 
L 203.064285 224.756713 
L 187.534332 214.628586 
L 202.360294 189.174915 
L 183.153906 170.143161 
L 177.698637 163.721244 
L 182.603349 138.267573 
L 163.243526 116.126005 
L 160.622961 112.813902 
L 162.778406 87.360232 
L 143.333147 69.266366 
L 141.510743 61.906561 
L 123.422768 43.015246 
L 118.136101 36.45289 
L 121.742025 10.999219 
L 103.512388 10.999219 
L 83.602009 10.999219 
L 77.884798 10.999219 
L 71.283231 36.45289 
L 83.602009 51.16355 
L 94.540019 61.906561 
L 103.512388 73.134124 
L 117.14211 87.360232 
L 107.247671 112.813902 
L 103.512388 118.99458 
L 100.596306 112.813902 
L 83.602009 90.614902 
L 81.895854 87.360232 
L 67.384489 61.906561 
L 63.691629 56.520621 
L 52.718236 36.45289 
L 43.78125 22.617961 
L 36.072855 10.999219 
L 23.870871 10.999219 
L 23.870871 32.970935 
L 27.370144 36.45289 
L 43.78125 60.93566 
L 44.626504 61.906561 
L 62.942304 87.360232 
L 63.691629 88.606666 
L 80.24621 112.813902 
L 83.602009 118.191511 
L 97.25423 138.267573 
L 103.512388 148.627201 
L 114.8787 163.721244 
L 123.422768 176.521739 
L 133.948137 189.174915 
L 143.333147 203.45653 
L 152.471607 214.628586 
L 163.243526 231.168219 
L 170.284153 240.082257 
L 183.153906 259.407543 
L 188.305733 265.535928 
L 203.064285 287.226183 
L 205.828651 290.989599 
z
M 215.077874 290.989599 
L 222.974664 270.908652 
L 234.339397 290.989599 
L 222.974664 303.586714 
z
M 199.157681 265.535928 
L 203.064285 254.665815 
L 216.371476 265.535928 
L 203.064285 272.2054 
z
M 181.441497 240.082257 
L 183.153906 235.928425 
L 188.987737 240.082257 
L 183.153906 243.08662 
z
M 148.696986 189.174915 
L 143.333147 181.774837 
L 132.06282 163.721244 
L 143.333147 152.63118 
L 155.198793 163.721244 
L 163.243526 173.310401 
L 178.475225 189.174915 
L 163.243526 212.234478 
z
M 118.19563 138.267573 
L 123.422768 133.136309 
L 129.354097 138.267573 
L 123.422768 148.872176 
z
M 122.541202 112.813902 
L 123.422768 108.955317 
L 126.292855 112.813902 
L 123.422768 114.183078 
z
M 342.436941 316.44327 
L 349.463418 316.44327 
L 349.347284 290.989599 
L 350.139314 265.535928 
L 357.842049 240.082257 
L 362.34732 234.732256 
L 363.89863 240.082257 
L 370.160895 265.535928 
L 375.226522 290.989599 
L 379.154472 316.44327 
L 382.2577 316.44327 
L 387.834474 316.44327 
L 385.156294 290.989599 
L 382.2577 275.751551 
L 380.547058 265.535928 
L 375.768436 240.082257 
L 370.121147 214.628586 
L 363.125826 189.174915 
L 362.34732 186.75018 
L 343.311849 163.721244 
L 342.436941 162.569016 
L 342.103275 163.721244 
L 338.396012 189.174915 
L 337.705165 214.628586 
L 337.793966 240.082257 
L 338.685628 265.535928 
L 339.82386 290.989599 
L 340.62732 316.44327 
z
" clip-path="url(#p32b9675a28)" style="fill: #98d83e"/>
    <path d="M 222.974664 303.586714 
L 234.339397 290.989599 
L 222.974664 270.908652 
L 215.077874 290.989599 
z
M 222.368357 290.989599 
L 222.974664 289.280137 
L 224.101453 290.989599 
L 222.974664 292.061974 
z
M 362.34732 293.101738 
L 366.468018 316.44327 
L 379.154472 316.44327 
L 375.226522 290.989599 
L 370.160895 265.535928 
L 363.89863 240.082257 
L 362.34732 234.732256 
L 357.842049 240.082257 
L 350.139314 265.535928 
L 349.347284 290.989599 
L 349.463418 316.44327 
L 360.10076 316.44327 
z
M 203.064285 272.2054 
L 216.371476 265.535928 
L 203.064285 254.665815 
L 199.157681 265.535928 
z
M 183.153906 243.08662 
L 188.987737 240.082257 
L 183.153906 235.928425 
L 181.441497 240.082257 
z
M 163.243526 212.234478 
L 178.475225 189.174915 
L 163.243526 173.310401 
L 155.198793 163.721244 
L 143.333147 152.63118 
L 132.06282 163.721244 
L 143.333147 181.774837 
L 148.696986 189.174915 
z
M 123.422768 148.872176 
L 129.354097 138.267573 
L 123.422768 133.136309 
L 118.19563 138.267573 
z
M 103.512388 118.99458 
L 107.247671 112.813902 
L 117.14211 87.360232 
L 103.512388 73.134124 
L 94.540019 61.906561 
L 83.602009 51.16355 
L 71.283231 36.45289 
L 77.884798 10.999219 
L 65.462539 10.999219 
L 63.691629 15.377578 
L 61.664558 10.999219 
L 43.78125 10.999219 
L 36.072855 10.999219 
L 43.78125 22.617961 
L 52.718236 36.45289 
L 63.691629 56.520621 
L 67.384489 61.906561 
L 81.895854 87.360232 
L 83.602009 90.614902 
L 100.596306 112.813902 
z
" clip-path="url(#p32b9675a28)" style="fill: #c2df23"/>
    <path d="M 222.974664 292.061974 
L 224.101453 290.989599 
L 222.974664 289.280137 
L 222.368357 290.989599 
z
M 362.34732 316.44327 
L 366.468018 316.44327 
L 362.34732 293.101738 
L 360.10076 316.44327 
z
M 63.691629 15.377578 
L 65.462539 10.999219 
L 63.691629 10.999219 
L 61.664558 10.999219 
z
" clip-path="url(#p32b9675a28)" style="fill: #ece51b"/>
   </g>
   <g id="PathCollection_1">
    <defs>
     <path id="mdc0741d33a" d="M -3 3 
L 3 -3 
M -3 -3 
L 3 3 
" style="stroke: #ff0000; stroke-width: 1.5"/>
    </defs>
    <g clip-path="url(#p32b9675a28)">
     <use xlink:href="#mdc0741d33a" x="362.34732" y="316.44327" style="fill: #ff0000; stroke: #ff0000; stroke-width: 1.5"/>
     <use xlink:href="#mdc0741d33a" x="222.974664" y="290.989599" style="fill: #ff0000; stroke: #ff0000; stroke-width: 1.5"/>
     <use xlink:href="#mdc0741d33a" x="362.34732" y="265.535928" style="fill: #ff0000; stroke: #ff0000; stroke-width: 1.5"/>
     <use xlink:href="#mdc0741d33a" x="183.153906" y="240.082257" style="fill: #ff0000; stroke: #ff0000; stroke-width: 1.5"/>
     <use xlink:href="#mdc0741d33a" x="163.243526" y="214.628586" style="fill: #ff0000; stroke: #ff0000; stroke-width: 1.5"/>
     <use xlink:href="#mdc0741d33a" x="163.243526" y="189.174915" style="fill: #ff0000; stroke: #ff0000; stroke-width: 1.5"/>
     <use xlink:href="#mdc0741d33a" x="143.333147" y="163.721244" style="fill: #ff0000; stroke: #ff0000; stroke-width: 1.5"/>
     <use xlink:href="#mdc0741d33a" x="123.422768" y="138.267573" style="fill: #ff0000; stroke: #ff0000; stroke-width: 1.5"/>
     <use xlink:href="#mdc0741d33a" x="103.512388" y="112.813902" style="fill: #ff0000; stroke: #ff0000; stroke-width: 1.5"/>
     <use xlink:href="#mdc0741d33a" x="103.512388" y="87.360232" style="fill: #ff0000; stroke: #ff0000; stroke-width: 1.5"/>
     <use xlink:href="#mdc0741d33a" x="83.602009" y="61.906561" style="fill: #ff0000; stroke: #ff0000; stroke-width: 1.5"/>
     <use xlink:href="#mdc0741d33a" x="63.691629" y="36.45289" style="fill: #ff0000; stroke: #ff0000; stroke-width: 1.5"/>
     <use xlink:href="#mdc0741d33a" x="63.691629" y="10.999219" style="fill: #ff0000; stroke: #ff0000; stroke-width: 1.5"/>
    </g>
   </g>
   <g id="matplotlib.axis_1">
    <g id="xtick_1">
     <g id="line2d_1">
      <defs>
       <path id="m38f3b05bbe" d="M 0 0 
L 0 3.5 
" style="stroke: #000000; stroke-width: 0.8"/>
      </defs>
      <g>
       <use xlink:href="#m38f3b05bbe" x="103.512388" y="316.44327" style="stroke: #000000; stroke-width: 0.8"/>
      </g>
     </g>
     <g id="text_1">
      <!-- $\mathdefault{10^{-4}}$ -->
      <g transform="translate(91.762388 331.041707) scale(0.1 -0.1)">
       <defs>
        <path id="DejaVuSans-31" d="M 794 531 
L 1825 531 
L 1825 4091 
L 703 3866 
L 703 4441 
L 1819 4666 
L 2450 4666 
L 2450 531 
L 3481 531 
L 3481 0 
L 794 0 
L 794 531 
z
" transform="scale(0.015625)"/>
        <path id="DejaVuSans-30" d="M 2034 4250 
Q 1547 4250 1301 3770 
Q 1056 3291 1056 2328 
Q 1056 1369 1301 889 
Q 1547 409 2034 409 
Q 2525 409 2770 889 
Q 3016 1369 3016 2328 
Q 3016 3291 2770 3770 
Q 2525 4250 2034 4250 
z
M 2034 4750 
Q 2819 4750 3233 4129 
Q 3647 3509 3647 2328 
Q 3647 1150 3233 529 
Q 2819 -91 2034 -91 
Q 1250 -91 836 529 
Q 422 1150 422 2328 
Q 422 3509 836 4129 
Q 1250 4750 2034 4750 
z
" transform="scale(0.015625)"/>
        <path id="DejaVuSans-2212" d="M 678 2272 
L 4684 2272 
L 4684 1741 
L 678 1741 
L 678 2272 
z
" transform="scale(0.015625)"/>
        <path id="DejaVuSans-34" d="M 2419 4116 
L 825 1625 
L 2419 1625 
L 2419 4116 
z
M 2253 4666 
L 3047 4666 
L 3047 1625 
L 3713 1625 
L 3713 1100 
L 3047 1100 
L 3047 0 
L 2419 0 
L 2419 1100 
L 313 1100 
L 313 1709 
L 2253 4666 
z
" transform="scale(0.015625)"/>
       </defs>
       <use xlink:href="#DejaVuSans-31" transform="translate(0 0.684375)"/>
       <use xlink:href="#DejaVuSans-30" transform="translate(63.623047 0.684375)"/>
       <use xlink:href="#DejaVuSans-2212" transform="translate(128.203125 38.965625) scale(0.7)"/>
       <use xlink:href="#DejaVuSans-34" transform="translate(186.855469 38.965625) scale(0.7)"/>
      </g>
     </g>
    </g>
    <g id="xtick_2">
     <g id="line2d_2">
      <g>
       <use xlink:href="#m38f3b05bbe" x="183.153906" y="316.44327" style="stroke: #000000; stroke-width: 0.8"/>
      </g>
     </g>
     <g id="text_2">
      <!-- $\mathdefault{10^{-3}}$ -->
      <g transform="translate(171.403906 331.041707) scale(0.1 -0.1)">
       <defs>
        <path id="DejaVuSans-33" d="M 2597 2516 
Q 3050 2419 3304 2112 
Q 3559 1806 3559 1356 
Q 3559 666 3084 287 
Q 2609 -91 1734 -91 
Q 1441 -91 1130 -33 
Q 819 25 488 141 
L 488 750 
Q 750 597 1062 519 
Q 1375 441 1716 441 
Q 2309 441 2620 675 
Q 2931 909 2931 1356 
Q 2931 1769 2642 2001 
Q 2353 2234 1838 2234 
L 1294 2234 
L 1294 2753 
L 1863 2753 
Q 2328 2753 2575 2939 
Q 2822 3125 2822 3475 
Q 2822 3834 2567 4026 
Q 2313 4219 1838 4219 
Q 1578 4219 1281 4162 
Q 984 4106 628 3988 
L 628 4550 
Q 988 4650 1302 4700 
Q 1616 4750 1894 4750 
Q 2613 4750 3031 4423 
Q 3450 4097 3450 3541 
Q 3450 3153 3228 2886 
Q 3006 2619 2597 2516 
z
" transform="scale(0.015625)"/>
       </defs>
       <use xlink:href="#DejaVuSans-31" transform="translate(0 0.765625)"/>
       <use xlink:href="#DejaVuSans-30" transform="translate(63.623047 0.765625)"/>
       <use xlink:href="#DejaVuSans-2212" transform="translate(128.203125 39.046875) scale(0.7)"/>
       <use xlink:href="#DejaVuSans-33" transform="translate(186.855469 39.046875) scale(0.7)"/>
      </g>
     </g>
    </g>
    <g id="xtick_3">
     <g id="line2d_3">
      <g>
       <use xlink:href="#m38f3b05bbe" x="262.795423" y="316.44327" style="stroke: #000000; stroke-width: 0.8"/>
      </g>
     </g>
     <g id="text_3">
      <!-- $\mathdefault{10^{-2}}$ -->
      <g transform="translate(251.045423 331.041707) scale(0.1 -0.1)">
       <defs>
        <path id="DejaVuSans-32" d="M 1228 531 
L 3431 531 
L 3431 0 
L 469 0 
L 469 531 
Q 828 903 1448 1529 
Q 2069 2156 2228 2338 
Q 2531 2678 2651 2914 
Q 2772 3150 2772 3378 
Q 2772 3750 2511 3984 
Q 2250 4219 1831 4219 
Q 1534 4219 1204 4116 
Q 875 4013 500 3803 
L 500 4441 
Q 881 4594 1212 4672 
Q 1544 4750 1819 4750 
Q 2544 4750 2975 4387 
Q 3406 4025 3406 3419 
Q 3406 3131 3298 2873 
Q 3191 2616 2906 2266 
Q 2828 2175 2409 1742 
Q 1991 1309 1228 531 
z
" transform="scale(0.015625)"/>
       </defs>
       <use xlink:href="#DejaVuSans-31" transform="translate(0 0.765625)"/>
       <use xlink:href="#DejaVuSans-30" transform="translate(63.623047 0.765625)"/>
       <use xlink:href="#DejaVuSans-2212" transform="translate(128.203125 39.046875) scale(0.7)"/>
       <use xlink:href="#DejaVuSans-32" transform="translate(186.855469 39.046875) scale(0.7)"/>
      </g>
     </g>
    </g>
    <g id="xtick_4">
     <g id="line2d_4">
      <g>
       <use xlink:href="#m38f3b05bbe" x="342.436941" y="316.44327" style="stroke: #000000; stroke-width: 0.8"/>
      </g>
     </g>
     <g id="text_4">
      <!-- $\mathdefault{10^{-1}}$ -->
      <g transform="translate(330.686941 331.041707) scale(0.1 -0.1)">
       <use xlink:href="#DejaVuSans-31" transform="translate(0 0.684375)"/>
       <use xlink:href="#DejaVuSans-30" transform="translate(63.623047 0.684375)"/>
       <use xlink:href="#DejaVuSans-2212" transform="translate(128.203125 38.965625) scale(0.7)"/>
       <use xlink:href="#DejaVuSans-31" transform="translate(186.855469 38.965625) scale(0.7)"/>
      </g>
     </g>
    </g>
    <g id="xtick_5">
     <g id="line2d_5">
      <defs>
       <path id="m360e1f0208" d="M 0 0 
L 0 2 
" style="stroke: #000000; stroke-width: 0.6"/>
      </defs>
      <g>
       <use xlink:href="#m360e1f0208" x="47.845356" y="316.44327" style="stroke: #000000; stroke-width: 0.6"/>
      </g>
     </g>
    </g>
    <g id="xtick_6">
     <g id="line2d_6">
      <g>
       <use xlink:href="#m360e1f0208" x="61.869531" y="316.44327" style="stroke: #000000; stroke-width: 0.6"/>
      </g>
     </g>
    </g>
    <g id="xtick_7">
     <g id="line2d_7">
      <g>
       <use xlink:href="#m360e1f0208" x="71.819842" y="316.44327" style="stroke: #000000; stroke-width: 0.6"/>
      </g>
     </g>
    </g>
    <g id="xtick_8">
     <g id="line2d_8">
      <g>
       <use xlink:href="#m360e1f0208" x="79.537902" y="316.44327" style="stroke: #000000; stroke-width: 0.6"/>
      </g>
     </g>
    </g>
    <g id="xtick_9">
     <g id="line2d_9">
      <g>
       <use xlink:href="#m360e1f0208" x="85.844017" y="316.44327" style="stroke: #000000; stroke-width: 0.6"/>
      </g>
     </g>
    </g>
    <g id="xtick_10">
     <g id="line2d_10">
      <g>
       <use xlink:href="#m360e1f0208" x="91.175761" y="316.44327" style="stroke: #000000; stroke-width: 0.6"/>
      </g>
     </g>
    </g>
    <g id="xtick_11">
     <g id="line2d_11">
      <g>
       <use xlink:href="#m360e1f0208" x="95.794328" y="316.44327" style="stroke: #000000; stroke-width: 0.6"/>
      </g>
     </g>
    </g>
    <g id="xtick_12">
     <g id="line2d_12">
      <g>
       <use xlink:href="#m360e1f0208" x="99.868192" y="316.44327" style="stroke: #000000; stroke-width: 0.6"/>
      </g>
     </g>
    </g>
    <g id="xtick_13">
     <g id="line2d_13">
      <g>
       <use xlink:href="#m360e1f0208" x="127.486874" y="316.44327" style="stroke: #000000; stroke-width: 0.6"/>
      </g>
     </g>
    </g>
    <g id="xtick_14">
     <g id="line2d_14">
      <g>
       <use xlink:href="#m360e1f0208" x="141.511049" y="316.44327" style="stroke: #000000; stroke-width: 0.6"/>
      </g>
     </g>
    </g>
    <g id="xtick_15">
     <g id="line2d_15">
      <g>
       <use xlink:href="#m360e1f0208" x="151.46136" y="316.44327" style="stroke: #000000; stroke-width: 0.6"/>
      </g>
     </g>
    </g>
    <g id="xtick_16">
     <g id="line2d_16">
      <g>
       <use xlink:href="#m360e1f0208" x="159.17942" y="316.44327" style="stroke: #000000; stroke-width: 0.6"/>
      </g>
     </g>
    </g>
    <g id="xtick_17">
     <g id="line2d_17">
      <g>
       <use xlink:href="#m360e1f0208" x="165.485535" y="316.44327" style="stroke: #000000; stroke-width: 0.6"/>
      </g>
     </g>
    </g>
    <g id="xtick_18">
     <g id="line2d_18">
      <g>
       <use xlink:href="#m360e1f0208" x="170.817279" y="316.44327" style="stroke: #000000; stroke-width: 0.6"/>
      </g>
     </g>
    </g>
    <g id="xtick_19">
     <g id="line2d_19">
      <g>
       <use xlink:href="#m360e1f0208" x="175.435845" y="316.44327" style="stroke: #000000; stroke-width: 0.6"/>
      </g>
     </g>
    </g>
    <g id="xtick_20">
     <g id="line2d_20">
      <g>
       <use xlink:href="#m360e1f0208" x="179.50971" y="316.44327" style="stroke: #000000; stroke-width: 0.6"/>
      </g>
     </g>
    </g>
    <g id="xtick_21">
     <g id="line2d_21">
      <g>
       <use xlink:href="#m360e1f0208" x="207.128391" y="316.44327" style="stroke: #000000; stroke-width: 0.6"/>
      </g>
     </g>
    </g>
    <g id="xtick_22">
     <g id="line2d_22">
      <g>
       <use xlink:href="#m360e1f0208" x="221.152566" y="316.44327" style="stroke: #000000; stroke-width: 0.6"/>
      </g>
     </g>
    </g>
    <g id="xtick_23">
     <g id="line2d_23">
      <g>
       <use xlink:href="#m360e1f0208" x="231.102877" y="316.44327" style="stroke: #000000; stroke-width: 0.6"/>
      </g>
     </g>
    </g>
    <g id="xtick_24">
     <g id="line2d_24">
      <g>
       <use xlink:href="#m360e1f0208" x="238.820938" y="316.44327" style="stroke: #000000; stroke-width: 0.6"/>
      </g>
     </g>
    </g>
    <g id="xtick_25">
     <g id="line2d_25">
      <g>
       <use xlink:href="#m360e1f0208" x="245.127052" y="316.44327" style="stroke: #000000; stroke-width: 0.6"/>
      </g>
     </g>
    </g>
    <g id="xtick_26">
     <g id="line2d_26">
      <g>
       <use xlink:href="#m360e1f0208" x="250.458796" y="316.44327" style="stroke: #000000; stroke-width: 0.6"/>
      </g>
     </g>
    </g>
    <g id="xtick_27">
     <g id="line2d_27">
      <g>
       <use xlink:href="#m360e1f0208" x="255.077363" y="316.44327" style="stroke: #000000; stroke-width: 0.6"/>
      </g>
     </g>
    </g>
    <g id="xtick_28">
     <g id="line2d_28">
      <g>
       <use xlink:href="#m360e1f0208" x="259.151227" y="316.44327" style="stroke: #000000; stroke-width: 0.6"/>
      </g>
     </g>
    </g>
    <g id="xtick_29">
     <g id="line2d_29">
      <g>
       <use xlink:href="#m360e1f0208" x="286.769909" y="316.44327" style="stroke: #000000; stroke-width: 0.6"/>
      </g>
     </g>
    </g>
    <g id="xtick_30">
     <g id="line2d_30">
      <g>
       <use xlink:href="#m360e1f0208" x="300.794084" y="316.44327" style="stroke: #000000; stroke-width: 0.6"/>
      </g>
     </g>
    </g>
    <g id="xtick_31">
     <g id="line2d_31">
      <g>
       <use xlink:href="#m360e1f0208" x="310.744395" y="316.44327" style="stroke: #000000; stroke-width: 0.6"/>
      </g>
     </g>
    </g>
    <g id="xtick_32">
     <g id="line2d_32">
      <g>
       <use xlink:href="#m360e1f0208" x="318.462455" y="316.44327" style="stroke: #000000; stroke-width: 0.6"/>
      </g>
     </g>
    </g>
    <g id="xtick_33">
     <g id="line2d_33">
      <g>
       <use xlink:href="#m360e1f0208" x="324.76857" y="316.44327" style="stroke: #000000; stroke-width: 0.6"/>
      </g>
     </g>
    </g>
    <g id="xtick_34">
     <g id="line2d_34">
      <g>
       <use xlink:href="#m360e1f0208" x="330.100314" y="316.44327" style="stroke: #000000; stroke-width: 0.6"/>
      </g>
     </g>
    </g>
    <g id="xtick_35">
     <g id="line2d_35">
      <g>
       <use xlink:href="#m360e1f0208" x="334.71888" y="316.44327" style="stroke: #000000; stroke-width: 0.6"/>
      </g>
     </g>
    </g>
    <g id="xtick_36">
     <g id="line2d_36">
      <g>
       <use xlink:href="#m360e1f0208" x="338.792745" y="316.44327" style="stroke: #000000; stroke-width: 0.6"/>
      </g>
     </g>
    </g>
    <g id="xtick_37">
     <g id="line2d_37">
      <g>
       <use xlink:href="#m360e1f0208" x="366.411426" y="316.44327" style="stroke: #000000; stroke-width: 0.6"/>
      </g>
     </g>
    </g>
    <g id="xtick_38">
     <g id="line2d_38">
      <g>
       <use xlink:href="#m360e1f0208" x="380.435602" y="316.44327" style="stroke: #000000; stroke-width: 0.6"/>
      </g>
     </g>
    </g>
    <g id="text_5">
     <!-- bandwidth -->
     <g transform="translate(186.656975 344.719832) scale(0.1 -0.1)">
      <defs>
       <path id="DejaVuSans-62" d="M 3116 1747 
Q 3116 2381 2855 2742 
Q 2594 3103 2138 3103 
Q 1681 3103 1420 2742 
Q 1159 2381 1159 1747 
Q 1159 1113 1420 752 
Q 1681 391 2138 391 
Q 2594 391 2855 752 
Q 3116 1113 3116 1747 
z
M 1159 2969 
Q 1341 3281 1617 3432 
Q 1894 3584 2278 3584 
Q 2916 3584 3314 3078 
Q 3713 2572 3713 1747 
Q 3713 922 3314 415 
Q 2916 -91 2278 -91 
Q 1894 -91 1617 61 
Q 1341 213 1159 525 
L 1159 0 
L 581 0 
L 581 4863 
L 1159 4863 
L 1159 2969 
z
" transform="scale(0.015625)"/>
       <path id="DejaVuSans-61" d="M 2194 1759 
Q 1497 1759 1228 1600 
Q 959 1441 959 1056 
Q 959 750 1161 570 
Q 1363 391 1709 391 
Q 2188 391 2477 730 
Q 2766 1069 2766 1631 
L 2766 1759 
L 2194 1759 
z
M 3341 1997 
L 3341 0 
L 2766 0 
L 2766 531 
Q 2569 213 2275 61 
Q 1981 -91 1556 -91 
Q 1019 -91 701 211 
Q 384 513 384 1019 
Q 384 1609 779 1909 
Q 1175 2209 1959 2209 
L 2766 2209 
L 2766 2266 
Q 2766 2663 2505 2880 
Q 2244 3097 1772 3097 
Q 1472 3097 1187 3025 
Q 903 2953 641 2809 
L 641 3341 
Q 956 3463 1253 3523 
Q 1550 3584 1831 3584 
Q 2591 3584 2966 3190 
Q 3341 2797 3341 1997 
z
" transform="scale(0.015625)"/>
       <path id="DejaVuSans-6e" d="M 3513 2113 
L 3513 0 
L 2938 0 
L 2938 2094 
Q 2938 2591 2744 2837 
Q 2550 3084 2163 3084 
Q 1697 3084 1428 2787 
Q 1159 2491 1159 1978 
L 1159 0 
L 581 0 
L 581 3500 
L 1159 3500 
L 1159 2956 
Q 1366 3272 1645 3428 
Q 1925 3584 2291 3584 
Q 2894 3584 3203 3211 
Q 3513 2838 3513 2113 
z
" transform="scale(0.015625)"/>
       <path id="DejaVuSans-64" d="M 2906 2969 
L 2906 4863 
L 3481 4863 
L 3481 0 
L 2906 0 
L 2906 525 
Q 2725 213 2448 61 
Q 2172 -91 1784 -91 
Q 1150 -91 751 415 
Q 353 922 353 1747 
Q 353 2572 751 3078 
Q 1150 3584 1784 3584 
Q 2172 3584 2448 3432 
Q 2725 3281 2906 2969 
z
M 947 1747 
Q 947 1113 1208 752 
Q 1469 391 1925 391 
Q 2381 391 2643 752 
Q 2906 1113 2906 1747 
Q 2906 2381 2643 2742 
Q 2381 3103 1925 3103 
Q 1469 3103 1208 2742 
Q 947 2381 947 1747 
z
" transform="scale(0.015625)"/>
       <path id="DejaVuSans-77" d="M 269 3500 
L 844 3500 
L 1563 769 
L 2278 3500 
L 2956 3500 
L 3675 769 
L 4391 3500 
L 4966 3500 
L 4050 0 
L 3372 0 
L 2619 2869 
L 1863 0 
L 1184 0 
L 269 3500 
z
" transform="scale(0.015625)"/>
       <path id="DejaVuSans-69" d="M 603 3500 
L 1178 3500 
L 1178 0 
L 603 0 
L 603 3500 
z
M 603 4863 
L 1178 4863 
L 1178 4134 
L 603 4134 
L 603 4863 
z
" transform="scale(0.015625)"/>
       <path id="DejaVuSans-74" d="M 1172 4494 
L 1172 3500 
L 2356 3500 
L 2356 3053 
L 1172 3053 
L 1172 1153 
Q 1172 725 1289 603 
Q 1406 481 1766 481 
L 2356 481 
L 2356 0 
L 1766 0 
Q 1100 0 847 248 
Q 594 497 594 1153 
L 594 3053 
L 172 3053 
L 172 3500 
L 594 3500 
L 594 4494 
L 1172 4494 
z
" transform="scale(0.015625)"/>
       <path id="DejaVuSans-68" d="M 3513 2113 
L 3513 0 
L 2938 0 
L 2938 2094 
Q 2938 2591 2744 2837 
Q 2550 3084 2163 3084 
Q 1697 3084 1428 2787 
Q 1159 2491 1159 1978 
L 1159 0 
L 581 0 
L 581 4863 
L 1159 4863 
L 1159 2956 
Q 1366 3272 1645 3428 
Q 1925 3584 2291 3584 
Q 2894 3584 3203 3211 
Q 3513 2838 3513 2113 
z
" transform="scale(0.015625)"/>
      </defs>
      <use xlink:href="#DejaVuSans-62"/>
      <use xlink:href="#DejaVuSans-61" transform="translate(63.476562 0)"/>
      <use xlink:href="#DejaVuSans-6e" transform="translate(124.755859 0)"/>
      <use xlink:href="#DejaVuSans-64" transform="translate(188.134766 0)"/>
      <use xlink:href="#DejaVuSans-77" transform="translate(251.611328 0)"/>
      <use xlink:href="#DejaVuSans-69" transform="translate(333.398438 0)"/>
      <use xlink:href="#DejaVuSans-64" transform="translate(361.181641 0)"/>
      <use xlink:href="#DejaVuSans-74" transform="translate(424.658203 0)"/>
      <use xlink:href="#DejaVuSans-68" transform="translate(463.867188 0)"/>
     </g>
    </g>
   </g>
   <g id="matplotlib.axis_2">
    <g id="ytick_1">
     <g id="line2d_39">
      <defs>
       <path id="mbd2f377c6c" d="M 0 0 
L -3.5 0 
" style="stroke: #000000; stroke-width: 0.8"/>
      </defs>
      <g>
       <use xlink:href="#mbd2f377c6c" x="43.78125" y="316.44327" style="stroke: #000000; stroke-width: 0.8"/>
      </g>
     </g>
     <g id="text_6">
      <!-- 1.0 -->
      <g transform="translate(20.878125 320.242489) scale(0.1 -0.1)">
       <defs>
        <path id="DejaVuSans-2e" d="M 684 794 
L 1344 794 
L 1344 0 
L 684 0 
L 684 794 
z
" transform="scale(0.015625)"/>
       </defs>
       <use xlink:href="#DejaVuSans-31"/>
       <use xlink:href="#DejaVuSans-2e" transform="translate(63.623047 0)"/>
       <use xlink:href="#DejaVuSans-30" transform="translate(95.410156 0)"/>
      </g>
     </g>
    </g>
    <g id="ytick_2">
     <g id="line2d_40">
      <g>
       <use xlink:href="#mbd2f377c6c" x="43.78125" y="265.535928" style="stroke: #000000; stroke-width: 0.8"/>
      </g>
     </g>
     <g id="text_7">
      <!-- 1.5 -->
      <g transform="translate(20.878125 269.335147) scale(0.1 -0.1)">
       <defs>
        <path id="DejaVuSans-35" d="M 691 4666 
L 3169 4666 
L 3169 4134 
L 1269 4134 
L 1269 2991 
Q 1406 3038 1543 3061 
Q 1681 3084 1819 3084 
Q 2600 3084 3056 2656 
Q 3513 2228 3513 1497 
Q 3513 744 3044 326 
Q 2575 -91 1722 -91 
Q 1428 -91 1123 -41 
Q 819 9 494 109 
L 494 744 
Q 775 591 1075 516 
Q 1375 441 1709 441 
Q 2250 441 2565 725 
Q 2881 1009 2881 1497 
Q 2881 1984 2565 2268 
Q 2250 2553 1709 2553 
Q 1456 2553 1204 2497 
Q 953 2441 691 2322 
L 691 4666 
z
" transform="scale(0.015625)"/>
       </defs>
       <use xlink:href="#DejaVuSans-31"/>
       <use xlink:href="#DejaVuSans-2e" transform="translate(63.623047 0)"/>
       <use xlink:href="#DejaVuSans-35" transform="translate(95.410156 0)"/>
      </g>
     </g>
    </g>
    <g id="ytick_3">
     <g id="line2d_41">
      <g>
       <use xlink:href="#mbd2f377c6c" x="43.78125" y="214.628586" style="stroke: #000000; stroke-width: 0.8"/>
      </g>
     </g>
     <g id="text_8">
      <!-- 2.0 -->
      <g transform="translate(20.878125 218.427805) scale(0.1 -0.1)">
       <use xlink:href="#DejaVuSans-32"/>
       <use xlink:href="#DejaVuSans-2e" transform="translate(63.623047 0)"/>
       <use xlink:href="#DejaVuSans-30" transform="translate(95.410156 0)"/>
      </g>
     </g>
    </g>
    <g id="ytick_4">
     <g id="line2d_42">
      <g>
       <use xlink:href="#mbd2f377c6c" x="43.78125" y="163.721244" style="stroke: #000000; stroke-width: 0.8"/>
      </g>
     </g>
     <g id="text_9">
      <!-- 2.5 -->
      <g transform="translate(20.878125 167.520463) scale(0.1 -0.1)">
       <use xlink:href="#DejaVuSans-32"/>
       <use xlink:href="#DejaVuSans-2e" transform="translate(63.623047 0)"/>
       <use xlink:href="#DejaVuSans-35" transform="translate(95.410156 0)"/>
      </g>
     </g>
    </g>
    <g id="ytick_5">
     <g id="line2d_43">
      <g>
       <use xlink:href="#mbd2f377c6c" x="43.78125" y="112.813902" style="stroke: #000000; stroke-width: 0.8"/>
      </g>
     </g>
     <g id="text_10">
      <!-- 3.0 -->
      <g transform="translate(20.878125 116.613121) scale(0.1 -0.1)">
       <use xlink:href="#DejaVuSans-33"/>
       <use xlink:href="#DejaVuSans-2e" transform="translate(63.623047 0)"/>
       <use xlink:href="#DejaVuSans-30" transform="translate(95.410156 0)"/>
      </g>
     </g>
    </g>
    <g id="ytick_6">
     <g id="line2d_44">
      <g>
       <use xlink:href="#mbd2f377c6c" x="43.78125" y="61.906561" style="stroke: #000000; stroke-width: 0.8"/>
      </g>
     </g>
     <g id="text_11">
      <!-- 3.5 -->
      <g transform="translate(20.878125 65.705779) scale(0.1 -0.1)">
       <use xlink:href="#DejaVuSans-33"/>
       <use xlink:href="#DejaVuSans-2e" transform="translate(63.623047 0)"/>
       <use xlink:href="#DejaVuSans-35" transform="translate(95.410156 0)"/>
      </g>
     </g>
    </g>
    <g id="ytick_7">
     <g id="line2d_45">
      <g>
       <use xlink:href="#mbd2f377c6c" x="43.78125" y="10.999219" style="stroke: #000000; stroke-width: 0.8"/>
      </g>
     </g>
     <g id="text_12">
      <!-- 4.0 -->
      <g transform="translate(20.878125 14.798438) scale(0.1 -0.1)">
       <use xlink:href="#DejaVuSans-34"/>
       <use xlink:href="#DejaVuSans-2e" transform="translate(63.623047 0)"/>
       <use xlink:href="#DejaVuSans-30" transform="translate(95.410156 0)"/>
      </g>
     </g>
    </g>
    <g id="text_13">
     <!-- alpha -->
     <g transform="translate(14.798438 177.581401) rotate(-90) scale(0.1 -0.1)">
      <defs>
       <path id="DejaVuSans-6c" d="M 603 4863 
L 1178 4863 
L 1178 0 
L 603 0 
L 603 4863 
z
" transform="scale(0.015625)"/>
       <path id="DejaVuSans-70" d="M 1159 525 
L 1159 -1331 
L 581 -1331 
L 581 3500 
L 1159 3500 
L 1159 2969 
Q 1341 3281 1617 3432 
Q 1894 3584 2278 3584 
Q 2916 3584 3314 3078 
Q 3713 2572 3713 1747 
Q 3713 922 3314 415 
Q 2916 -91 2278 -91 
Q 1894 -91 1617 61 
Q 1341 213 1159 525 
z
M 3116 1747 
Q 3116 2381 2855 2742 
Q 2594 3103 2138 3103 
Q 1681 3103 1420 2742 
Q 1159 2381 1159 1747 
Q 1159 1113 1420 752 
Q 1681 391 2138 391 
Q 2594 391 2855 752 
Q 3116 1113 3116 1747 
z
" transform="scale(0.015625)"/>
      </defs>
      <use xlink:href="#DejaVuSans-61"/>
      <use xlink:href="#DejaVuSans-6c" transform="translate(61.279297 0)"/>
      <use xlink:href="#DejaVuSans-70" transform="translate(89.0625 0)"/>
      <use xlink:href="#DejaVuSans-68" transform="translate(152.539062 0)"/>
      <use xlink:href="#DejaVuSans-61" transform="translate(215.917969 0)"/>
     </g>
    </g>
   </g>
   <g id="patch_3">
    <path d="M 43.78125 316.44327 
L 43.78125 10.999219 
" style="fill: none; stroke: #000000; stroke-width: 0.8; stroke-linejoin: miter; stroke-linecap: square"/>
   </g>
   <g id="patch_4">
    <path d="M 382.2577 316.44327 
L 382.2577 10.999219 
" style="fill: none; stroke: #000000; stroke-width: 0.8; stroke-linejoin: miter; stroke-linecap: square"/>
   </g>
   <g id="patch_5">
    <path d="M 43.78125 316.44327 
L 382.2577 316.44327 
" style="fill: none; stroke: #000000; stroke-width: 0.8; stroke-linejoin: miter; stroke-linecap: square"/>
   </g>
   <g id="patch_6">
    <path d="M 43.78125 10.999219 
L 382.2577 10.999219 
" style="fill: none; stroke: #000000; stroke-width: 0.8; stroke-linejoin: miter; stroke-linecap: square"/>
   </g>
  </g>
  <g id="axes_2">
   <g id="patch_7">
    <path d="M 399.181522 316.44327 
L 414.453725 316.44327 
L 414.453725 10.999219 
L 399.181522 10.999219 
z
" style="fill: #ffffff"/>
   </g>
   <g id="QuadMesh_1">
    <path d="M 399.181522 316.44327 
L 414.453725 316.44327 
L 414.453725 297.353017 
L 399.181522 297.353017 
L 399.181522 316.44327 
" clip-path="url(#pa5ea5bacd4)" style="fill: #470d60"/>
    <path d="M 399.181522 297.353017 
L 414.453725 297.353017 
L 414.453725 278.262764 
L 399.181522 278.262764 
L 399.181522 297.353017 
" clip-path="url(#pa5ea5bacd4)" style="fill: #482173"/>
    <path d="M 399.181522 278.262764 
L 414.453725 278.262764 
L 414.453725 259.17251 
L 399.181522 259.17251 
L 399.181522 278.262764 
" clip-path="url(#pa5ea5bacd4)" style="fill: #453581"/>
    <path d="M 399.181522 259.17251 
L 414.453725 259.17251 
L 414.453725 240.082257 
L 399.181522 240.082257 
L 399.181522 259.17251 
" clip-path="url(#pa5ea5bacd4)" style="fill: #3e4989"/>
    <path d="M 399.181522 240.082257 
L 414.453725 240.082257 
L 414.453725 220.992004 
L 399.181522 220.992004 
L 399.181522 240.082257 
" clip-path="url(#pa5ea5bacd4)" style="fill: #375b8d"/>
    <path d="M 399.181522 220.992004 
L 414.453725 220.992004 
L 414.453725 201.901751 
L 399.181522 201.901751 
L 399.181522 220.992004 
" clip-path="url(#pa5ea5bacd4)" style="fill: #306a8e"/>
    <path d="M 399.181522 201.901751 
L 414.453725 201.901751 
L 414.453725 182.811498 
L 399.181522 182.811498 
L 399.181522 201.901751 
" clip-path="url(#pa5ea5bacd4)" style="fill: #297a8e"/>
    <path d="M 399.181522 182.811498 
L 414.453725 182.811498 
L 414.453725 163.721244 
L 399.181522 163.721244 
L 399.181522 182.811498 
" clip-path="url(#pa5ea5bacd4)" style="fill: #23898e"/>
    <path d="M 399.181522 163.721244 
L 414.453725 163.721244 
L 414.453725 144.630991 
L 399.181522 144.630991 
L 399.181522 163.721244 
" clip-path="url(#pa5ea5bacd4)" style="fill: #1f978b"/>
    <path d="M 399.181522 144.630991 
L 414.453725 144.630991 
L 414.453725 125.540738 
L 399.181522 125.540738 
L 399.181522 144.630991 
" clip-path="url(#pa5ea5bacd4)" style="fill: #22a785"/>
    <path d="M 399.181522 125.540738 
L 414.453725 125.540738 
L 414.453725 106.450485 
L 399.181522 106.450485 
L 399.181522 125.540738 
" clip-path="url(#pa5ea5bacd4)" style="fill: #32b67a"/>
    <path d="M 399.181522 106.450485 
L 414.453725 106.450485 
L 414.453725 87.360232 
L 399.181522 87.360232 
L 399.181522 106.450485 
" clip-path="url(#pa5ea5bacd4)" style="fill: #4cc26c"/>
    <path d="M 399.181522 87.360232 
L 414.453725 87.360232 
L 414.453725 68.269978 
L 399.181522 68.269978 
L 399.181522 87.360232 
" clip-path="url(#pa5ea5bacd4)" style="fill: #70cf57"/>
    <path d="M 399.181522 68.269978 
L 414.453725 68.269978 
L 414.453725 49.179725 
L 399.181522 49.179725 
L 399.181522 68.269978 
" clip-path="url(#pa5ea5bacd4)" style="fill: #98d83e"/>
    <path d="M 399.181522 49.179725 
L 414.453725 49.179725 
L 414.453725 30.089472 
L 399.181522 30.089472 
L 399.181522 49.179725 
" clip-path="url(#pa5ea5bacd4)" style="fill: #c2df23"/>
    <path d="M 399.181522 30.089472 
L 414.453725 30.089472 
L 414.453725 10.999219 
L 399.181522 10.999219 
L 399.181522 30.089472 
" clip-path="url(#pa5ea5bacd4)" style="fill: #ece51b"/>
   </g>
   <g id="matplotlib.axis_3"/>
   <g id="matplotlib.axis_4">
    <g id="ytick_8">
     <g id="line2d_46">
      <defs>
       <path id="m0a27ea52cb" d="M 0 0 
L 3.5 0 
" style="stroke: #000000; stroke-width: 0.8"/>
      </defs>
      <g>
       <use xlink:href="#m0a27ea52cb" x="414.453725" y="316.44327" style="stroke: #000000; stroke-width: 0.8"/>
      </g>
     </g>
     <g id="text_14">
      <!-- -1.36 -->
      <g transform="translate(421.453725 320.242489) scale(0.1 -0.1)">
       <defs>
        <path id="DejaVuSans-2d" d="M 313 2009 
L 1997 2009 
L 1997 1497 
L 313 1497 
L 313 2009 
z
" transform="scale(0.015625)"/>
        <path id="DejaVuSans-36" d="M 2113 2584 
Q 1688 2584 1439 2293 
Q 1191 2003 1191 1497 
Q 1191 994 1439 701 
Q 1688 409 2113 409 
Q 2538 409 2786 701 
Q 3034 994 3034 1497 
Q 3034 2003 2786 2293 
Q 2538 2584 2113 2584 
z
M 3366 4563 
L 3366 3988 
Q 3128 4100 2886 4159 
Q 2644 4219 2406 4219 
Q 1781 4219 1451 3797 
Q 1122 3375 1075 2522 
Q 1259 2794 1537 2939 
Q 1816 3084 2150 3084 
Q 2853 3084 3261 2657 
Q 3669 2231 3669 1497 
Q 3669 778 3244 343 
Q 2819 -91 2113 -91 
Q 1303 -91 875 529 
Q 447 1150 447 2328 
Q 447 3434 972 4092 
Q 1497 4750 2381 4750 
Q 2619 4750 2861 4703 
Q 3103 4656 3366 4563 
z
" transform="scale(0.015625)"/>
       </defs>
       <use xlink:href="#DejaVuSans-2d"/>
       <use xlink:href="#DejaVuSans-31" transform="translate(36.083984 0)"/>
       <use xlink:href="#DejaVuSans-2e" transform="translate(99.707031 0)"/>
       <use xlink:href="#DejaVuSans-33" transform="translate(131.494141 0)"/>
       <use xlink:href="#DejaVuSans-36" transform="translate(195.117188 0)"/>
      </g>
     </g>
    </g>
    <g id="ytick_9">
     <g id="line2d_47">
      <g>
       <use xlink:href="#m0a27ea52cb" x="414.453725" y="278.262764" style="stroke: #000000; stroke-width: 0.8"/>
      </g>
     </g>
     <g id="text_15">
      <!-- -1.20 -->
      <g transform="translate(421.453725 282.061982) scale(0.1 -0.1)">
       <use xlink:href="#DejaVuSans-2d"/>
       <use xlink:href="#DejaVuSans-31" transform="translate(36.083984 0)"/>
       <use xlink:href="#DejaVuSans-2e" transform="translate(99.707031 0)"/>
       <use xlink:href="#DejaVuSans-32" transform="translate(131.494141 0)"/>
       <use xlink:href="#DejaVuSans-30" transform="translate(195.117188 0)"/>
      </g>
     </g>
    </g>
    <g id="ytick_10">
     <g id="line2d_48">
      <g>
       <use xlink:href="#m0a27ea52cb" x="414.453725" y="240.082257" style="stroke: #000000; stroke-width: 0.8"/>
      </g>
     </g>
     <g id="text_16">
      <!-- -1.04 -->
      <g transform="translate(421.453725 243.881476) scale(0.1 -0.1)">
       <use xlink:href="#DejaVuSans-2d"/>
       <use xlink:href="#DejaVuSans-31" transform="translate(36.083984 0)"/>
       <use xlink:href="#DejaVuSans-2e" transform="translate(99.707031 0)"/>
       <use xlink:href="#DejaVuSans-30" transform="translate(131.494141 0)"/>
       <use xlink:href="#DejaVuSans-34" transform="translate(195.117188 0)"/>
      </g>
     </g>
    </g>
    <g id="ytick_11">
     <g id="line2d_49">
      <g>
       <use xlink:href="#m0a27ea52cb" x="414.453725" y="201.901751" style="stroke: #000000; stroke-width: 0.8"/>
      </g>
     </g>
     <g id="text_17">
      <!-- -0.88 -->
      <g transform="translate(421.453725 205.70097) scale(0.1 -0.1)">
       <defs>
        <path id="DejaVuSans-38" d="M 2034 2216 
Q 1584 2216 1326 1975 
Q 1069 1734 1069 1313 
Q 1069 891 1326 650 
Q 1584 409 2034 409 
Q 2484 409 2743 651 
Q 3003 894 3003 1313 
Q 3003 1734 2745 1975 
Q 2488 2216 2034 2216 
z
M 1403 2484 
Q 997 2584 770 2862 
Q 544 3141 544 3541 
Q 544 4100 942 4425 
Q 1341 4750 2034 4750 
Q 2731 4750 3128 4425 
Q 3525 4100 3525 3541 
Q 3525 3141 3298 2862 
Q 3072 2584 2669 2484 
Q 3125 2378 3379 2068 
Q 3634 1759 3634 1313 
Q 3634 634 3220 271 
Q 2806 -91 2034 -91 
Q 1263 -91 848 271 
Q 434 634 434 1313 
Q 434 1759 690 2068 
Q 947 2378 1403 2484 
z
M 1172 3481 
Q 1172 3119 1398 2916 
Q 1625 2713 2034 2713 
Q 2441 2713 2670 2916 
Q 2900 3119 2900 3481 
Q 2900 3844 2670 4047 
Q 2441 4250 2034 4250 
Q 1625 4250 1398 4047 
Q 1172 3844 1172 3481 
z
" transform="scale(0.015625)"/>
       </defs>
       <use xlink:href="#DejaVuSans-2d"/>
       <use xlink:href="#DejaVuSans-30" transform="translate(36.083984 0)"/>
       <use xlink:href="#DejaVuSans-2e" transform="translate(99.707031 0)"/>
       <use xlink:href="#DejaVuSans-38" transform="translate(131.494141 0)"/>
       <use xlink:href="#DejaVuSans-38" transform="translate(195.117188 0)"/>
      </g>
     </g>
    </g>
    <g id="ytick_12">
     <g id="line2d_50">
      <g>
       <use xlink:href="#m0a27ea52cb" x="414.453725" y="163.721244" style="stroke: #000000; stroke-width: 0.8"/>
      </g>
     </g>
     <g id="text_18">
      <!-- -0.72 -->
      <g transform="translate(421.453725 167.520463) scale(0.1 -0.1)">
       <defs>
        <path id="DejaVuSans-37" d="M 525 4666 
L 3525 4666 
L 3525 4397 
L 1831 0 
L 1172 0 
L 2766 4134 
L 525 4134 
L 525 4666 
z
" transform="scale(0.015625)"/>
       </defs>
       <use xlink:href="#DejaVuSans-2d"/>
       <use xlink:href="#DejaVuSans-30" transform="translate(36.083984 0)"/>
       <use xlink:href="#DejaVuSans-2e" transform="translate(99.707031 0)"/>
       <use xlink:href="#DejaVuSans-37" transform="translate(131.494141 0)"/>
       <use xlink:href="#DejaVuSans-32" transform="translate(195.117188 0)"/>
      </g>
     </g>
    </g>
    <g id="ytick_13">
     <g id="line2d_51">
      <g>
       <use xlink:href="#m0a27ea52cb" x="414.453725" y="125.540738" style="stroke: #000000; stroke-width: 0.8"/>
      </g>
     </g>
     <g id="text_19">
      <!-- -0.56 -->
      <g transform="translate(421.453725 129.339957) scale(0.1 -0.1)">
       <use xlink:href="#DejaVuSans-2d"/>
       <use xlink:href="#DejaVuSans-30" transform="translate(36.083984 0)"/>
       <use xlink:href="#DejaVuSans-2e" transform="translate(99.707031 0)"/>
       <use xlink:href="#DejaVuSans-35" transform="translate(131.494141 0)"/>
       <use xlink:href="#DejaVuSans-36" transform="translate(195.117188 0)"/>
      </g>
     </g>
    </g>
    <g id="ytick_14">
     <g id="line2d_52">
      <g>
       <use xlink:href="#m0a27ea52cb" x="414.453725" y="87.360232" style="stroke: #000000; stroke-width: 0.8"/>
      </g>
     </g>
     <g id="text_20">
      <!-- -0.40 -->
      <g transform="translate(421.453725 91.15945) scale(0.1 -0.1)">
       <use xlink:href="#DejaVuSans-2d"/>
       <use xlink:href="#DejaVuSans-30" transform="translate(36.083984 0)"/>
       <use xlink:href="#DejaVuSans-2e" transform="translate(99.707031 0)"/>
       <use xlink:href="#DejaVuSans-34" transform="translate(131.494141 0)"/>
       <use xlink:href="#DejaVuSans-30" transform="translate(195.117188 0)"/>
      </g>
     </g>
    </g>
    <g id="ytick_15">
     <g id="line2d_53">
      <g>
       <use xlink:href="#m0a27ea52cb" x="414.453725" y="49.179725" style="stroke: #000000; stroke-width: 0.8"/>
      </g>
     </g>
     <g id="text_21">
      <!-- -0.24 -->
      <g transform="translate(421.453725 52.978944) scale(0.1 -0.1)">
       <use xlink:href="#DejaVuSans-2d"/>
       <use xlink:href="#DejaVuSans-30" transform="translate(36.083984 0)"/>
       <use xlink:href="#DejaVuSans-2e" transform="translate(99.707031 0)"/>
       <use xlink:href="#DejaVuSans-32" transform="translate(131.494141 0)"/>
       <use xlink:href="#DejaVuSans-34" transform="translate(195.117188 0)"/>
      </g>
     </g>
    </g>
    <g id="ytick_16">
     <g id="line2d_54">
      <g>
       <use xlink:href="#m0a27ea52cb" x="414.453725" y="10.999219" style="stroke: #000000; stroke-width: 0.8"/>
      </g>
     </g>
     <g id="text_22">
      <!-- -0.08 -->
      <g transform="translate(421.453725 14.798438) scale(0.1 -0.1)">
       <use xlink:href="#DejaVuSans-2d"/>
       <use xlink:href="#DejaVuSans-30" transform="translate(36.083984 0)"/>
       <use xlink:href="#DejaVuSans-2e" transform="translate(99.707031 0)"/>
       <use xlink:href="#DejaVuSans-30" transform="translate(131.494141 0)"/>
       <use xlink:href="#DejaVuSans-38" transform="translate(195.117188 0)"/>
      </g>
     </g>
    </g>
    <g id="text_23">
     <!-- Score -->
     <g transform="translate(458.9256 177.723588) rotate(-90) scale(0.1 -0.1)">
      <defs>
       <path id="DejaVuSans-53" d="M 3425 4513 
L 3425 3897 
Q 3066 4069 2747 4153 
Q 2428 4238 2131 4238 
Q 1616 4238 1336 4038 
Q 1056 3838 1056 3469 
Q 1056 3159 1242 3001 
Q 1428 2844 1947 2747 
L 2328 2669 
Q 3034 2534 3370 2195 
Q 3706 1856 3706 1288 
Q 3706 609 3251 259 
Q 2797 -91 1919 -91 
Q 1588 -91 1214 -16 
Q 841 59 441 206 
L 441 856 
Q 825 641 1194 531 
Q 1563 422 1919 422 
Q 2459 422 2753 634 
Q 3047 847 3047 1241 
Q 3047 1584 2836 1778 
Q 2625 1972 2144 2069 
L 1759 2144 
Q 1053 2284 737 2584 
Q 422 2884 422 3419 
Q 422 4038 858 4394 
Q 1294 4750 2059 4750 
Q 2388 4750 2728 4690 
Q 3069 4631 3425 4513 
z
" transform="scale(0.015625)"/>
       <path id="DejaVuSans-63" d="M 3122 3366 
L 3122 2828 
Q 2878 2963 2633 3030 
Q 2388 3097 2138 3097 
Q 1578 3097 1268 2742 
Q 959 2388 959 1747 
Q 959 1106 1268 751 
Q 1578 397 2138 397 
Q 2388 397 2633 464 
Q 2878 531 3122 666 
L 3122 134 
Q 2881 22 2623 -34 
Q 2366 -91 2075 -91 
Q 1284 -91 818 406 
Q 353 903 353 1747 
Q 353 2603 823 3093 
Q 1294 3584 2113 3584 
Q 2378 3584 2631 3529 
Q 2884 3475 3122 3366 
z
" transform="scale(0.015625)"/>
       <path id="DejaVuSans-6f" d="M 1959 3097 
Q 1497 3097 1228 2736 
Q 959 2375 959 1747 
Q 959 1119 1226 758 
Q 1494 397 1959 397 
Q 2419 397 2687 759 
Q 2956 1122 2956 1747 
Q 2956 2369 2687 2733 
Q 2419 3097 1959 3097 
z
M 1959 3584 
Q 2709 3584 3137 3096 
Q 3566 2609 3566 1747 
Q 3566 888 3137 398 
Q 2709 -91 1959 -91 
Q 1206 -91 779 398 
Q 353 888 353 1747 
Q 353 2609 779 3096 
Q 1206 3584 1959 3584 
z
" transform="scale(0.015625)"/>
       <path id="DejaVuSans-72" d="M 2631 2963 
Q 2534 3019 2420 3045 
Q 2306 3072 2169 3072 
Q 1681 3072 1420 2755 
Q 1159 2438 1159 1844 
L 1159 0 
L 581 0 
L 581 3500 
L 1159 3500 
L 1159 2956 
Q 1341 3275 1631 3429 
Q 1922 3584 2338 3584 
Q 2397 3584 2469 3576 
Q 2541 3569 2628 3553 
L 2631 2963 
z
" transform="scale(0.015625)"/>
       <path id="DejaVuSans-65" d="M 3597 1894 
L 3597 1613 
L 953 1613 
Q 991 1019 1311 708 
Q 1631 397 2203 397 
Q 2534 397 2845 478 
Q 3156 559 3463 722 
L 3463 178 
Q 3153 47 2828 -22 
Q 2503 -91 2169 -91 
Q 1331 -91 842 396 
Q 353 884 353 1716 
Q 353 2575 817 3079 
Q 1281 3584 2069 3584 
Q 2775 3584 3186 3129 
Q 3597 2675 3597 1894 
z
M 3022 2063 
Q 3016 2534 2758 2815 
Q 2500 3097 2075 3097 
Q 1594 3097 1305 2825 
Q 1016 2553 972 2059 
L 3022 2063 
z
" transform="scale(0.015625)"/>
      </defs>
      <use xlink:href="#DejaVuSans-53"/>
      <use xlink:href="#DejaVuSans-63" transform="translate(63.476562 0)"/>
      <use xlink:href="#DejaVuSans-6f" transform="translate(118.457031 0)"/>
      <use xlink:href="#DejaVuSans-72" transform="translate(179.638672 0)"/>
      <use xlink:href="#DejaVuSans-65" transform="translate(218.501953 0)"/>
     </g>
    </g>
   </g>
   <g id="LineCollection_1"/>
   <g id="patch_8">
    <path d="M 399.181522 316.44327 
L 406.817623 316.44327 
L 414.453725 316.44327 
L 414.453725 10.999219 
L 406.817623 10.999219 
L 399.181522 10.999219 
L 399.181522 316.44327 
z
" style="fill: none; stroke: #000000; stroke-width: 0.8; stroke-linejoin: miter; stroke-linecap: square"/>
   </g>
  </g>
 </g>
 <defs>
  <clipPath id="p32b9675a28">
   <rect x="43.78125" y="10.999219" width="338.47645" height="305.444051"/>
  </clipPath>
  <clipPath id="pa5ea5bacd4">
   <rect x="399.181522" y="10.999219" width="15.272203" height="305.444051"/>
  </clipPath>
 </defs>
</svg>
