<?xml version="1.0" encoding="utf-8" standalone="no"?>
<!DOCTYPE svg PUBLIC "-//W3C//DTD SVG 1.1//EN"
  "http://www.w3.org/Graphics/SVG/1.1/DTD/svg11.dtd">
<svg xmlns:xlink="http://www.w3.org/1999/xlink" width="460.8pt" height="345.6pt" viewBox="0 0 460.8 345.6" xmlns="http://www.w3.org/2000/svg" version="1.1">
 <metadata>
  <rdf:RDF xmlns:dc="http://purl.org/dc/elements/1.1/" xmlns:cc="http://creativecommons.org/ns#" xmlns:rdf="http://www.w3.org/1999/02/22-rdf-syntax-ns#">
   <cc:Work>
    <dc:type rdf:resource="http://purl.org/dc/dcmitype/StillImage"/>
    <dc:date>2025-11-23T18:47:18.614000</dc:date>
    <dc:format>image/svg+xml</dc:format>
    <dc:creator>
     <cc:Agent>
      <dc:title>Matplotlib v3.10.7, https://matplotlib.org/</dc:title>
     </cc:Agent>
    </dc:creator>
   </cc:Work>
  </rdf:RDF>
 </metadata>
 <defs>
  <style type="text/css">*{stroke-linejoin: round; stroke-linecap: butt}</style>
 </defs>
 <g id="figure_1">
  <g id="patch_1">
   <path d="M 0 345.6 
L 460.8 345.6 
L 460.8 0 
L 0 0 
z
" style="fill: #ffffff"/>
  </g>
  <g id="axes_1">
   <g id="patch_2">
    <path d="M 39.58149 312.24351 
L 380.134979 312.24351 
L 380.134979 18.118365 
L 39.58149 18.118365 
z
" style="fill: #ffffff"/>
   </g>
   <g id="QuadContourSet_1">
    <path d="M 266.617149 288.190146 
L 271.823664 287.733081 
L 274.092842 263.222652 
L 266.617149 251.240607 
L 265.740507 263.222652 
L 266.395192 287.733081 
z
M 285.536787 312.24351 
L 288.400788 312.24351 
L 285.536787 299.981262 
L 284.617881 312.24351 
z
" clip-path="url(#p4ec5bef4a9)" style="fill: #470d60"/>
    <path d="M 266.617149 292.034163 
L 282.324647 312.24351 
L 284.617881 312.24351 
L 285.536787 299.981262 
L 288.400788 312.24351 
L 294.348233 312.24351 
L 289.176737 287.733081 
L 285.863471 263.222652 
L 285.536787 262.087727 
L 273.128193 238.712224 
L 266.768287 214.201795 
L 266.617149 213.506836 
L 266.136396 214.201795 
L 263.948507 238.712224 
L 263.735817 263.222652 
L 264.466678 287.733081 
z
M 266.395192 287.733081 
L 265.740507 263.222652 
L 266.617149 251.240607 
L 274.092842 263.222652 
L 271.823664 287.733081 
L 266.617149 288.190146 
z
" clip-path="url(#p4ec5bef4a9)" style="fill: #482475"/>
    <path d="M 266.617149 295.878179 
L 279.859324 312.24351 
L 282.324647 312.24351 
L 266.617149 292.034163 
L 264.466678 287.733081 
L 263.735817 263.222652 
L 263.948507 238.712224 
L 266.136396 214.201795 
L 266.617149 213.506836 
L 266.768287 214.201795 
L 273.128193 238.712224 
L 285.536787 262.087727 
L 285.863471 263.222652 
L 289.176737 287.733081 
L 294.348233 312.24351 
L 299.382577 312.24351 
L 294.639482 287.733081 
L 290.536877 263.222652 
L 285.536787 244.554096 
L 282.846744 238.712224 
L 274.543998 214.201795 
L 269.228961 189.691366 
L 266.617149 175.57074 
L 262.931485 165.180938 
L 253.948526 140.670509 
L 247.697511 118.04877 
L 238.642126 140.670509 
L 243.169968 165.180938 
L 247.697511 182.654968 
L 258.14519 189.691366 
L 247.697511 200.29537 
L 246.613985 214.201795 
L 247.697511 220.613127 
L 258.142385 238.712224 
L 261.600864 263.222652 
L 262.417912 287.733081 
z
M 228.777873 102.954048 
L 239.102206 91.649651 
L 230.059349 67.139223 
L 228.777873 62.551898 
L 227.265421 67.139223 
L 225.171922 91.649651 
z
" clip-path="url(#p4ec5bef4a9)" style="fill: #443983"/>
    <path d="M 58.501128 312.24351 
L 77.420767 312.24351 
L 96.340405 312.24351 
L 115.260043 312.24351 
L 134.179681 312.24351 
L 153.09932 312.24351 
L 172.018958 312.24351 
L 179.531523 312.24351 
L 172.018958 306.503368 
L 155.338835 287.733081 
L 153.09932 285.956511 
L 134.179681 277.047231 
L 122.743428 263.222652 
L 115.260043 256.959521 
L 99.416329 238.712224 
L 96.340405 236.49151 
L 77.420767 227.805661 
L 67.08166 214.201795 
L 58.501128 207.437613 
L 42.935886 189.691366 
L 39.58149 186.958181 
L 39.58149 189.691366 
L 39.58149 214.201795 
L 39.58149 238.712224 
L 39.58149 263.222652 
L 39.58149 287.733081 
L 39.58149 312.24351 
z
M 266.617149 299.722196 
L 277.193973 312.24351 
L 279.859324 312.24351 
L 266.617149 295.878179 
L 262.417912 287.733081 
L 261.600864 263.222652 
L 258.142385 238.712224 
L 247.697511 220.613127 
L 246.613985 214.201795 
L 247.697511 200.29537 
L 258.14519 189.691366 
L 247.697511 182.654968 
L 243.169968 165.180938 
L 238.642126 140.670509 
L 247.697511 118.04877 
L 253.948526 140.670509 
L 262.931485 165.180937 
L 266.617149 175.57074 
L 269.228961 189.691366 
L 274.543998 214.201795 
L 282.846744 238.712224 
L 285.536787 244.554096 
L 290.536877 263.222652 
L 294.639482 287.733081 
L 299.382577 312.24351 
L 303.747234 312.24351 
L 299.322356 287.733081 
L 294.627736 263.222652 
L 288.805239 238.712224 
L 285.536787 228.182055 
L 280.827525 214.201795 
L 274.832447 189.691366 
L 270.388336 165.180938 
L 266.617149 153.504657 
L 261.705141 140.670509 
L 255.114317 116.16008 
L 248.853052 91.649651 
L 247.697511 88.229269 
L 240.119583 67.139223 
L 234.443568 42.628794 
L 228.777873 25.387514 
L 210.192566 42.628794 
L 209.858234 44.967987 
L 209.644519 67.139223 
L 209.858234 68.242999 
L 219.715289 91.649651 
L 228.146986 116.16008 
L 227.467036 140.670509 
L 228.777873 147.27495 
L 237.585325 165.180938 
L 244.705555 189.691366 
L 244.329313 214.201795 
L 247.697511 233.458509 
L 251.085712 238.712224 
L 259.317535 263.222652 
L 260.232895 287.733081 
z
M 225.171922 91.649651 
L 227.265421 67.139223 
L 228.777873 62.551898 
L 230.059349 67.139223 
L 239.102206 91.649651 
L 228.777873 102.954048 
z
M 436.893893 312.24351 
L 455.813532 312.24351 
L 474.73317 312.24351 
L 493.652808 312.24351 
L 512.572446 312.24351 
L 531.492085 312.24351 
L 550.411723 312.24351 
L 569.331361 312.24351 
L 588.250999 312.24351 
L 607.170638 312.24351 
L 626.090276 312.24351 
L 645.009914 312.24351 
L 663.929552 312.24351 
L 682.849191 312.24351 
L 701.768829 312.24351 
L 720.688467 312.24351 
L 739.608106 312.24351 
L 758.527744 312.24351 
L 777.447382 312.24351 
L 796.36702 312.24351 
L 815.286659 312.24351 
L 834.206297 312.24351 
L 853.125935 312.24351 
L 872.045573 312.24351 
L 872.045573 287.733081 
L 872.045573 263.222652 
L 872.045573 238.712224 
L 872.045573 214.201795 
L 872.045573 189.691366 
L 872.045573 165.180938 
L 872.045573 140.670509 
L 872.045573 116.16008 
L 872.045573 91.649651 
L 872.045573 67.139223 
L 872.045573 42.628794 
L 872.045573 18.118365 
L 853.125935 18.118365 
L 834.206297 18.118365 
L 815.286659 18.118365 
L 796.36702 18.118365 
L 777.447382 18.118365 
L 758.527744 18.118365 
L 739.608106 18.118365 
L 720.688467 18.118365 
L 701.768829 18.118365 
L 682.849191 18.118365 
L 663.929552 18.118365 
L 645.009914 18.118365 
L 626.090276 18.118365 
L 607.170638 18.118365 
L 588.250999 18.118365 
L 569.331361 18.118365 
L 550.411723 18.118365 
L 531.492085 18.118365 
L 512.572446 18.118365 
L 493.652808 18.118365 
L 474.73317 18.118365 
L 455.813532 18.118365 
L 436.893893 18.118365 
L 417.974255 18.118365 
L 399.054617 18.118365 
L 380.134979 18.118365 
L 375.649524 18.118365 
L 378.936248 42.628794 
L 380.134979 52.437174 
L 386.918443 67.139223 
L 393.946406 91.649651 
L 398.160383 116.16008 
L 399.054617 122.34239 
L 407.176055 140.670509 
L 413.164426 165.180938 
L 416.73817 189.691366 
L 417.974255 200.683909 
L 422.164656 214.201795 
L 426.729838 238.712224 
L 428.938805 263.222652 
L 428.462058 287.733081 
L 422.897967 312.24351 
z
" clip-path="url(#p4ec5bef4a9)" style="fill: #3d4d8a"/>
    <path d="M 172.018958 306.503368 
L 179.531523 312.24351 
L 190.938596 312.24351 
L 197.492554 312.24351 
L 190.938596 306.501566 
L 172.018958 287.892276 
L 171.907826 287.733081 
L 153.09932 268.275974 
L 147.48896 263.222652 
L 134.179681 251.55791 
L 123.180319 238.712224 
L 115.260043 231.791435 
L 96.340405 214.390839 
L 96.142582 214.201795 
L 77.420767 196.07089 
L 71.658162 189.691366 
L 58.501128 177.140638 
L 47.691117 165.180938 
L 39.58149 158.771248 
L 39.58149 165.180938 
L 39.58149 186.958181 
L 42.935886 189.691366 
L 58.501128 207.437613 
L 67.08166 214.201795 
L 77.420767 227.805661 
L 96.340405 236.49151 
L 99.416329 238.712224 
L 115.260043 256.959521 
L 122.743428 263.222652 
L 134.179681 277.047231 
L 153.09932 285.956511 
L 155.338835 287.733081 
z
M 266.617149 303.566213 
L 274.293245 312.24351 
L 277.193973 312.24351 
L 266.617149 299.722196 
L 260.232895 287.733081 
L 259.317535 263.222652 
L 251.085712 238.712224 
L 247.697511 233.458509 
L 244.329313 214.201795 
L 244.705555 189.691366 
L 237.585325 165.180938 
L 228.777873 147.27495 
L 227.467036 140.670509 
L 228.146986 116.16008 
L 219.715289 91.649651 
L 209.858234 68.242999 
L 209.644519 67.139223 
L 209.858234 44.967987 
L 210.192566 42.628794 
L 228.777873 25.387514 
L 234.443568 42.628794 
L 240.119583 67.139223 
L 247.697511 88.229269 
L 248.853052 91.649651 
L 255.114317 116.16008 
L 261.705141 140.670509 
L 266.617149 153.504657 
L 270.388336 165.180938 
L 274.832447 189.691366 
L 280.827525 214.201795 
L 285.536787 228.182055 
L 288.805239 238.712224 
L 294.627736 263.222652 
L 299.322356 287.733081 
L 303.747234 312.24351 
L 304.456426 312.24351 
L 307.609166 312.24351 
L 304.456426 293.832096 
L 303.420465 287.733081 
L 298.265313 263.222652 
L 293.168133 238.712224 
L 286.177278 214.201795 
L 285.536787 212.41191 
L 279.618299 189.691366 
L 275.135536 165.180938 
L 268.140628 140.670509 
L 266.617149 135.886846 
L 261.47752 116.16008 
L 255.29715 91.649651 
L 247.829723 67.139223 
L 247.697511 66.557886 
L 242.947324 42.628794 
L 235.555315 18.118365 
L 228.777873 18.118365 
L 209.858234 18.118365 
L 203.31429 18.118365 
L 205.113875 42.628794 
L 206.312063 67.139223 
L 209.858234 84.557171 
L 213.16879 91.649651 
L 222.048982 116.16008 
L 224.478554 140.670509 
L 228.777873 161.382579 
L 230.853507 165.180938 
L 239.214343 189.691366 
L 241.873883 214.201795 
L 245.645339 238.712224 
L 247.697511 242.59523 
L 256.863656 263.222652 
L 257.892205 287.733081 
z
M 417.974255 312.24351 
L 422.897967 312.24351 
L 428.462058 287.733081 
L 428.938805 263.222652 
L 426.729838 238.712224 
L 422.164656 214.201795 
L 417.974255 200.683909 
L 416.73817 189.691366 
L 413.164426 165.180938 
L 407.176055 140.670509 
L 399.054617 122.34239 
L 398.160383 116.16008 
L 393.946406 91.649651 
L 386.918443 67.139223 
L 380.134979 52.437174 
L 378.936248 42.628794 
L 375.649524 18.118365 
L 363.052925 18.118365 
L 369.620165 42.628794 
L 374.405097 67.139223 
L 378.183021 91.649651 
L 380.134979 105.788798 
L 384.36426 116.16008 
L 391.525246 140.670509 
L 396.163939 165.180938 
L 399.054617 186.702032 
L 400.203499 189.691366 
L 407.306325 214.201795 
L 411.662555 238.712224 
L 413.945149 263.222652 
L 414.22722 287.733081 
L 412.3586 312.24351 
z
" clip-path="url(#p4ec5bef4a9)" style="fill: #355f8d"/>
    <path d="M 172.018958 287.892276 
L 190.938596 306.501566 
L 197.492554 312.24351 
L 209.858234 312.24351 
L 210.252555 312.24351 
L 209.858234 311.815146 
L 190.938596 291.137225 
L 188.200242 287.733081 
L 172.018958 270.631143 
L 166.117645 263.222652 
L 153.09932 249.930794 
L 143.479934 238.712224 
L 134.179681 229.883504 
L 120.625125 214.201795 
L 115.260043 208.877368 
L 99.544601 189.691366 
L 96.340405 186.533818 
L 78.973261 165.180938 
L 77.420767 163.766407 
L 58.501128 143.463424 
L 56.122377 140.670509 
L 39.58149 124.407077 
L 39.58149 140.670509 
L 39.58149 158.771248 
L 47.691117 165.180938 
L 58.501128 177.140638 
L 71.658162 189.691366 
L 77.420767 196.07089 
L 96.142582 214.201795 
L 96.340405 214.390839 
L 115.260043 231.791435 
L 123.180319 238.712224 
L 134.179681 251.55791 
L 147.48896 263.222652 
L 153.09932 268.275974 
L 171.907826 287.733081 
z
M 266.617149 307.41023 
L 271.111506 312.24351 
L 274.293245 312.24351 
L 266.617149 303.566213 
L 257.892205 287.733081 
L 256.863656 263.222652 
L 247.697511 242.59523 
L 245.645339 238.712224 
L 241.873883 214.201795 
L 239.214343 189.691366 
L 230.853507 165.180938 
L 228.777873 161.382579 
L 224.478554 140.670509 
L 222.048982 116.16008 
L 213.16879 91.649651 
L 209.858234 84.557171 
L 206.312063 67.139223 
L 205.113875 42.628794 
L 203.31429 18.118365 
L 190.938596 18.118365 
L 190.017512 18.118365 
L 190.938596 22.514348 
L 199.523754 42.628794 
L 202.603196 67.139223 
L 207.640221 91.649651 
L 209.858234 104.414638 
L 214.55581 116.16008 
L 221.190908 140.670509 
L 225.990168 165.180938 
L 228.777873 179.779752 
L 232.617959 189.691366 
L 239.220092 214.201795 
L 241.851518 238.712224 
L 247.697511 249.16542 
L 254.211678 263.222652 
L 255.371947 287.733081 
z
M 304.456426 293.832096 
L 307.609166 312.24351 
L 311.066476 312.24351 
L 307.290385 287.733081 
L 304.456426 277.285769 
L 301.540114 263.222652 
L 297.01916 238.712224 
L 291.288206 214.201795 
L 285.536787 196.807699 
L 283.795025 189.691366 
L 279.282804 165.180938 
L 273.974699 140.670509 
L 266.912413 116.16008 
L 266.617149 115.462691 
L 260.682522 91.649651 
L 254.959936 67.139223 
L 250.312283 42.628794 
L 247.697511 35.991985 
L 242.645783 18.118365 
L 235.555315 18.118365 
L 242.947324 42.628794 
L 247.697511 66.557886 
L 247.829723 67.139223 
L 255.29715 91.649651 
L 261.47752 116.16008 
L 266.617149 135.886846 
L 268.140628 140.670509 
L 275.135536 165.180938 
L 279.618299 189.691366 
L 285.536787 212.41191 
L 286.177278 214.201795 
L 293.168133 238.712224 
L 298.265313 263.222652 
L 303.420465 287.733081 
z
M 414.22722 287.733081 
L 413.945149 263.222652 
L 411.662555 238.712224 
L 407.306325 214.201795 
L 400.203499 189.691366 
L 399.054617 186.702032 
L 396.163939 165.180938 
L 391.525246 140.670509 
L 384.36426 116.16008 
L 380.134979 105.788798 
L 378.183021 91.649651 
L 374.405097 67.139223 
L 369.620165 42.628794 
L 363.052925 18.118365 
L 361.21534 18.118365 
L 355.220252 18.118365 
L 359.366665 42.628794 
L 361.21534 54.273674 
L 365.127547 67.139223 
L 371.099191 91.649651 
L 375.698242 116.16008 
L 379.470885 140.670509 
L 380.134979 145.212366 
L 387.011994 165.180938 
L 392.664972 189.691366 
L 396.415866 214.201795 
L 398.995166 238.712224 
L 399.054617 239.483303 
L 404.126023 263.222652 
L 405.800803 287.733081 
L 403.830297 312.24351 
L 412.3586 312.24351 
z
" clip-path="url(#p4ec5bef4a9)" style="fill: #2d708e"/>
    <path d="M 190.938596 291.137225 
L 209.858234 311.815146 
L 210.252555 312.24351 
L 216.626466 312.24351 
L 209.858234 304.128022 
L 197.152194 287.733081 
L 190.938596 280.851465 
L 177.26694 263.222652 
L 172.018958 257.618845 
L 157.207236 238.712224 
L 153.09932 234.181307 
L 136.958304 214.201795 
L 134.179681 211.373906 
L 117.543483 189.691366 
L 115.260043 187.337863 
L 98.466029 165.180938 
L 96.340405 162.949453 
L 78.733602 140.670509 
L 77.420767 139.33004 
L 58.949941 116.16008 
L 58.501128 115.643596 
L 39.907423 91.649651 
L 39.58149 91.335787 
L 39.58149 91.649651 
L 39.58149 116.16008 
L 39.58149 124.407077 
L 56.122377 140.670509 
L 58.501128 143.463424 
L 77.420767 163.766407 
L 78.973261 165.180938 
L 96.340405 186.533818 
L 99.544601 189.691366 
L 115.260043 208.877368 
L 120.625125 214.201795 
L 134.179681 229.883504 
L 143.479934 238.712224 
L 153.09932 249.930794 
L 166.117645 263.222652 
L 172.018958 270.631143 
L 188.200242 287.733081 
z
M 266.617149 311.254247 
L 267.588412 312.24351 
L 271.111506 312.24351 
L 266.617149 307.41023 
L 255.371947 287.733081 
L 254.211678 263.222652 
L 247.697511 249.16542 
L 241.851518 238.712224 
L 239.220092 214.201795 
L 232.617959 189.691366 
L 228.777873 179.779752 
L 225.990168 165.180938 
L 221.190908 140.670509 
L 214.55581 116.16008 
L 209.858234 104.414638 
L 207.640221 91.649651 
L 202.603196 67.139223 
L 199.523754 42.628794 
L 190.938596 22.514348 
L 190.017512 18.118365 
L 186.375797 18.118365 
L 190.938596 38.737113 
L 192.783966 42.628794 
L 198.421927 67.139223 
L 203.307437 91.649651 
L 207.141418 116.16008 
L 209.858234 121.382985 
L 217.537473 140.670509 
L 221.746337 165.180938 
L 225.39518 189.691366 
L 228.777873 194.197625 
L 236.333053 214.201795 
L 237.561925 238.712224 
L 247.697511 255.73561 
L 251.326783 263.222652 
L 252.642262 287.733081 
z
M 310.828563 287.733081 
L 304.558017 263.222652 
L 304.456426 262.82102 
L 300.465915 238.712224 
L 295.710282 214.201795 
L 289.088948 189.691366 
L 285.536787 179.529051 
L 282.964902 165.180938 
L 278.927631 140.670509 
L 273.802304 116.16008 
L 266.617149 97.276444 
L 265.308457 91.649651 
L 260.815688 67.139223 
L 257.396739 42.628794 
L 249.408101 18.118365 
L 247.697511 18.118365 
L 242.645783 18.118365 
L 247.697511 35.991985 
L 250.312283 42.628794 
L 254.959936 67.139223 
L 260.682522 91.649651 
L 266.617149 115.462691 
L 266.912413 116.16008 
L 273.974699 140.670509 
L 279.282804 165.180938 
L 283.795025 189.691366 
L 285.536787 196.807699 
L 291.288206 214.201795 
L 297.01916 238.712224 
L 301.540114 263.222652 
L 304.456426 277.285769 
L 307.290385 287.733081 
L 311.066476 312.24351 
L 314.194473 312.24351 
z
M 399.054617 312.24351 
L 403.830297 312.24351 
L 405.800803 287.733081 
L 404.126023 263.222652 
L 399.054617 239.483303 
L 398.995166 238.712224 
L 396.415866 214.201795 
L 392.664972 189.691366 
L 387.011994 165.180938 
L 380.134979 145.212366 
L 379.470885 140.670509 
L 375.698242 116.16008 
L 371.099191 91.649651 
L 365.127547 67.139223 
L 361.21534 54.273674 
L 359.366665 42.628794 
L 355.220252 18.118365 
L 346.780518 18.118365 
L 352.611582 42.628794 
L 357.440144 67.139223 
L 361.21534 88.990671 
L 362.056789 91.649651 
L 368.851079 116.16008 
L 374.028019 140.670509 
L 378.212672 165.180938 
L 380.134979 177.624742 
L 384.224024 189.691366 
L 390.267802 214.201795 
L 394.200957 238.712224 
L 396.667644 263.222652 
L 397.781248 287.733081 
L 397.442803 312.24351 
z
" clip-path="url(#p4ec5bef4a9)" style="fill: #27808e"/>
    <path d="M 209.858234 304.128022 
L 216.626466 312.24351 
L 221.962778 312.24351 
L 209.858234 296.440898 
L 203.722431 287.733081 
L 190.938596 272.011184 
L 184.828356 263.222652 
L 172.018958 247.796383 
L 165.723688 238.712224 
L 153.09932 222.774537 
L 147.113449 214.201795 
L 134.179681 198.744942 
L 128.219488 189.691366 
L 115.260043 173.880004 
L 109.643693 165.180938 
L 96.340405 148.51611 
L 91.15121 140.670509 
L 77.420767 123.613707 
L 72.528428 116.16008 
L 58.501128 96.163061 
L 55.715167 91.649651 
L 39.58149 71.690746 
L 39.58149 91.335787 
L 39.907423 91.649651 
L 58.501128 115.643596 
L 58.949941 116.16008 
L 77.420767 139.33004 
L 78.733602 140.670509 
L 96.340405 162.949453 
L 98.466029 165.180938 
L 115.260043 187.337863 
L 117.543483 189.691366 
L 134.179681 211.373906 
L 136.958304 214.201795 
L 153.09932 234.181307 
L 157.207236 238.712224 
L 172.018958 257.618845 
L 177.26694 263.222652 
L 190.938596 280.851465 
L 197.152194 287.733081 
z
M 266.617149 312.24351 
L 267.588412 312.24351 
L 266.617149 311.254247 
L 252.642262 287.733081 
L 251.326783 263.222652 
L 247.697511 255.73561 
L 237.561925 238.712224 
L 236.333053 214.201795 
L 228.777873 194.197625 
L 225.39518 189.691366 
L 221.746337 165.180938 
L 217.537473 140.670509 
L 209.858234 121.382985 
L 207.141418 116.16008 
L 203.307437 91.649651 
L 198.421927 67.139223 
L 192.783966 42.628794 
L 190.938596 38.737113 
L 186.375797 18.118365 
L 182.279702 18.118365 
L 185.979672 42.628794 
L 190.938596 57.402622 
L 193.630106 67.139223 
L 198.31547 91.649651 
L 200.636201 116.16008 
L 209.858234 132.266512 
L 213.426541 140.670509 
L 216.872134 165.180938 
L 217.432965 189.691366 
L 228.777873 203.141028 
L 233.167778 214.201795 
L 232.627232 238.712224 
L 247.697511 262.305799 
L 248.164086 263.222652 
L 249.665166 287.733081 
L 259.954922 312.24351 
z
M 314.022596 287.733081 
L 308.947252 263.222652 
L 304.456426 244.227891 
L 303.58527 238.712224 
L 299.607331 214.201795 
L 294.76009 189.691366 
L 287.417703 165.180938 
L 285.536787 158.281433 
L 283.230991 140.670509 
L 279.495178 116.16008 
L 272.98809 91.649651 
L 266.617149 72.272239 
L 265.784225 67.139223 
L 263.221633 42.628794 
L 259.3364 18.118365 
L 249.408101 18.118365 
L 257.396739 42.628794 
L 260.815688 67.139223 
L 265.308457 91.649651 
L 266.617149 97.276444 
L 273.802304 116.16008 
L 278.927631 140.670509 
L 282.964902 165.180938 
L 285.536787 179.529051 
L 289.088948 189.691366 
L 295.710282 214.201795 
L 300.465915 238.712224 
L 304.456426 262.82102 
L 304.558017 263.222652 
L 310.828563 287.733081 
L 314.194473 312.24351 
L 317.050471 312.24351 
z
M 397.781248 287.733081 
L 396.667644 263.222652 
L 394.200957 238.712224 
L 390.267802 214.201795 
L 384.224024 189.691366 
L 380.134979 177.624742 
L 378.212672 165.180938 
L 374.028019 140.670509 
L 368.851079 116.16008 
L 362.056789 91.649651 
L 361.21534 88.990671 
L 357.440144 67.139223 
L 352.611582 42.628794 
L 346.780518 18.118365 
L 342.295702 18.118365 
L 338.67556 18.118365 
L 342.295702 36.686157 
L 344.099177 42.628794 
L 350.693592 67.139223 
L 356.068938 91.649651 
L 360.684692 116.16008 
L 361.21534 119.02664 
L 367.501346 140.670509 
L 373.018068 165.180938 
L 377.472609 189.691366 
L 380.134979 206.223903 
L 382.698787 214.201795 
L 388.586003 238.712224 
L 392.172818 263.222652 
L 394.016946 287.733081 
L 394.253411 312.24351 
L 397.442803 312.24351 
z
" clip-path="url(#p4ec5bef4a9)" style="fill: #21918c"/>
    <path d="M 209.858234 296.440898 
L 221.962778 312.24351 
L 226.552487 312.24351 
L 209.858234 288.753774 
L 209.19553 287.733081 
L 191.023203 263.222652 
L 190.938596 263.176132 
L 172.623061 238.712224 
L 172.018958 237.941722 
L 155.488644 214.201795 
L 153.09932 211.273292 
L 137.43817 189.691366 
L 134.179681 186.043317 
L 119.552397 165.180938 
L 115.260043 159.863982 
L 102.469109 140.670509 
L 96.340405 133.653384 
L 84.648343 116.16008 
L 77.420767 107.513 
L 68.244698 91.649651 
L 58.501128 80.328987 
L 49.674588 67.139223 
L 39.58149 53.476168 
L 39.58149 67.139223 
L 39.58149 71.690746 
L 55.715167 91.649651 
L 58.501128 96.163061 
L 72.528428 116.16008 
L 77.420767 123.613707 
L 91.15121 140.670509 
L 96.340405 148.51611 
L 109.643693 165.180938 
L 115.260043 173.880004 
L 128.219488 189.691366 
L 134.179681 198.744942 
L 147.113449 214.201795 
L 153.09932 222.774537 
L 165.723688 238.712224 
L 172.018958 247.796383 
L 184.828356 263.222652 
L 190.938596 272.011184 
L 203.722431 287.733081 
z
M 247.697511 310.54584 
L 248.11085 312.24351 
L 259.954922 312.24351 
L 249.665166 287.733081 
L 248.164086 263.222652 
L 247.697511 262.305799 
L 232.627232 238.712224 
L 233.167778 214.201795 
L 228.777873 203.141028 
L 217.432965 189.691366 
L 216.872134 165.180938 
L 213.426541 140.670509 
L 209.858234 132.266512 
L 200.636201 116.16008 
L 198.31547 91.649651 
L 193.630106 67.139223 
L 190.938596 57.402622 
L 185.979672 42.628794 
L 182.279702 18.118365 
L 177.599458 18.118365 
L 178.054781 42.628794 
L 182.344281 67.139223 
L 172.018958 82.933043 
L 168.836814 91.649651 
L 160.825232 116.16008 
L 172.018958 126.487681 
L 187.266876 116.16008 
L 183.261201 91.649651 
L 190.938596 84.017326 
L 192.427121 91.649651 
L 192.517522 116.16008 
L 190.938596 126.026532 
L 187.032601 140.670509 
L 173.179425 165.180938 
L 190.938596 179.691796 
L 203.915861 189.691366 
L 206.536632 214.201795 
L 209.858234 237.742109 
L 211.918426 238.712224 
L 228.777873 246.461571 
L 238.534157 263.222652 
L 245.727025 287.733081 
z
M 224.920817 214.201795 
L 228.777873 212.08443 
L 229.664862 214.201795 
L 228.777873 224.666533 
z
M 205.992686 165.180938 
L 209.858234 153.659186 
L 211.147064 165.180938 
L 209.858234 176.159367 
z
M 316.933537 287.733081 
L 312.81878 263.222652 
L 308.046233 238.712224 
L 304.456426 223.390828 
L 303.090896 214.201795 
L 299.595176 189.691366 
L 294.480978 165.180938 
L 288.854946 140.670509 
L 285.536787 125.898981 
L 284.34604 116.16008 
L 280.457398 91.649651 
L 276.315049 67.139223 
L 272.128833 42.628794 
L 267.5027 18.118365 
L 266.617149 18.118365 
L 259.3364 18.118365 
L 263.221633 42.628794 
L 265.784225 67.139223 
L 266.617149 72.272239 
L 272.98809 91.649651 
L 279.495178 116.16008 
L 283.230991 140.670509 
L 285.536787 158.281433 
L 287.417703 165.180938 
L 294.76009 189.691366 
L 299.607331 214.201795 
L 303.58527 238.712224 
L 304.456426 244.227891 
L 308.947252 263.222652 
L 314.022596 287.733081 
L 317.050471 312.24351 
L 319.678013 312.24351 
z
M 394.016946 287.733081 
L 392.172818 263.222652 
L 388.586003 238.712224 
L 382.698787 214.201795 
L 380.134979 206.223903 
L 377.472609 189.691366 
L 373.018068 165.180938 
L 367.501346 140.670509 
L 361.21534 119.02664 
L 360.684692 116.16008 
L 356.068938 91.649651 
L 350.693592 67.139223 
L 344.099177 42.628794 
L 342.295702 36.686157 
L 338.67556 18.118365 
L 331.080081 18.118365 
L 336.90828 42.628794 
L 342.230549 67.139222 
L 342.295702 67.433293 
L 349.377256 91.649651 
L 355.146207 116.16008 
L 360.159124 140.670509 
L 361.21534 145.917069 
L 366.845467 165.180938 
L 372.495914 189.691366 
L 377.072204 214.201795 
L 380.134979 232.975601 
L 381.810044 238.712224 
L 386.964408 263.222652 
L 389.765065 287.733081 
L 390.720929 312.24351 
L 394.253411 312.24351 
z
M 153.09932 75.991458 
L 164.607079 67.139223 
L 159.743615 42.628794 
L 153.09932 38.16787 
L 141.184897 18.118365 
L 134.179681 18.118365 
L 127.769886 18.118365 
L 119.86503 42.628794 
L 134.179681 57.189683 
L 144.538284 67.139223 
z
" clip-path="url(#p4ec5bef4a9)" style="fill: #1fa188"/>
    <path d="M 209.858234 288.753774 
L 226.552487 312.24351 
L 228.777873 312.24351 
L 247.697511 312.24351 
L 248.11085 312.24351 
L 247.697511 310.54584 
L 245.727025 287.733081 
L 238.534157 263.222652 
L 228.777873 246.461571 
L 211.918426 238.712224 
L 209.858234 237.742109 
L 206.536632 214.201795 
L 203.915861 189.691366 
L 190.938596 179.691796 
L 173.179425 165.180938 
L 187.032601 140.670509 
L 190.938596 126.026532 
L 192.517522 116.16008 
L 192.427121 91.649651 
L 190.938596 84.017326 
L 183.261201 91.649651 
L 187.266876 116.16008 
L 172.018958 126.487681 
L 160.825232 116.16008 
L 168.836814 91.649651 
L 172.018958 82.933043 
L 182.344281 67.139223 
L 178.054781 42.628794 
L 177.599458 18.118365 
L 172.140293 18.118365 
L 172.018958 19.352192 
L 153.09932 20.231824 
L 152.028599 18.118365 
L 141.184897 18.118365 
L 153.09932 38.16787 
L 159.743615 42.628794 
L 164.607079 67.139223 
L 153.09932 75.991458 
L 144.538284 67.139222 
L 134.179681 57.189683 
L 119.86503 42.628794 
L 127.769886 18.118365 
L 115.260043 18.118365 
L 96.340405 18.118365 
L 90.202943 18.118365 
L 96.340405 26.494564 
L 110.501433 42.628794 
L 114.616338 67.139223 
L 115.260043 68.068558 
L 127.642867 91.649651 
L 134.179681 100.807629 
L 148.321185 116.16008 
L 153.09932 132.781862 
L 164.887 140.670509 
L 164.499552 165.180938 
L 172.018958 175.135262 
L 186.419985 189.691366 
L 190.938596 196.664879 
L 201.11236 214.201795 
L 204.924824 238.712224 
L 209.858234 252.449196 
L 224.299508 263.222652 
L 228.777873 267.395296 
L 240.011297 287.733081 
L 228.777873 306.537329 
L 218.029229 287.733081 
L 209.858234 274.683782 
L 202.989322 263.222652 
L 190.938596 255.229105 
L 179.75401 238.712224 
L 172.018958 227.690875 
L 163.659066 214.201795 
L 153.09932 199.486267 
L 146.894758 189.691366 
L 134.179681 173.157699 
L 129.324003 165.180938 
L 115.260043 144.827641 
L 112.881043 140.670509 
L 96.340405 118.27929 
L 95.126376 116.16008 
L 77.940829 91.649651 
L 77.420767 91.001325 
L 60.347581 67.139223 
L 58.501128 64.822441 
L 46.055194 42.628794 
L 39.58149 34.799549 
L 39.58149 42.628794 
L 39.58149 53.476168 
L 49.674588 67.139223 
L 58.501128 80.328987 
L 68.244698 91.649651 
L 77.420767 107.513 
L 84.648343 116.16008 
L 96.340405 133.653384 
L 102.469109 140.670509 
L 115.260043 159.863982 
L 119.552397 165.180938 
L 134.179681 186.043317 
L 137.43817 189.691366 
L 153.09932 211.273292 
L 155.488644 214.201795 
L 172.018958 237.941722 
L 172.623061 238.712224 
L 190.938596 263.176132 
L 191.023203 263.222652 
L 209.19553 287.733081 
z
M 319.607508 287.733081 
L 316.281945 263.222652 
L 312.557051 238.712224 
L 307.965311 214.201795 
L 304.456426 195.139087 
L 303.809334 189.691366 
L 300.291564 165.180938 
L 295.804729 140.670509 
L 291.828494 116.16008 
L 287.506088 91.649651 
L 285.536787 71.237415 
L 285.258349 67.139223 
L 284.747283 42.628794 
L 281.777272 18.118365 
L 267.5027 18.118365 
L 272.128833 42.628794 
L 276.315049 67.139223 
L 280.457398 91.649651 
L 284.34604 116.16008 
L 285.536787 125.898981 
L 288.854946 140.670509 
L 294.480978 165.180938 
L 299.595176 189.691366 
L 303.090896 214.201795 
L 304.456426 223.390828 
L 308.046233 238.712224 
L 312.81878 263.222652 
L 316.933537 287.733081 
L 319.678013 312.24351 
L 322.110958 312.24351 
z
M 389.765065 287.733081 
L 386.964408 263.222652 
L 381.810044 238.712224 
L 380.134979 232.975601 
L 377.072204 214.201795 
L 372.495914 189.691366 
L 366.845467 165.180938 
L 361.21534 145.917069 
L 360.159124 140.670509 
L 355.146207 116.16008 
L 349.377256 91.649651 
L 342.295702 67.433293 
L 342.230549 67.139223 
L 336.90828 42.628794 
L 331.080081 18.118365 
L 323.376064 18.118365 
L 321.434192 18.118365 
L 323.376064 24.542495 
L 328.852493 42.628794 
L 335.290127 67.139223 
L 341.325374 91.649651 
L 342.295702 95.486016 
L 348.481416 116.16008 
L 354.531766 140.670509 
L 359.946257 165.180938 
L 361.21534 170.927761 
L 366.628821 189.691366 
L 372.209973 214.201795 
L 376.76029 238.712224 
L 380.134979 260.629699 
L 380.772287 263.222652 
L 384.880234 287.733081 
L 386.762546 312.24351 
L 390.720929 312.24351 
z
M 228.777873 224.666533 
L 229.664862 214.201795 
L 228.777873 212.08443 
L 224.920817 214.201795 
z
M 209.858234 176.159367 
L 211.147064 165.180938 
L 209.858234 153.659186 
L 205.992686 165.180938 
z
" clip-path="url(#p4ec5bef4a9)" style="fill: #2ab07f"/>
    <path d="M 228.777873 306.537329 
L 240.011297 287.733081 
L 228.777873 267.395296 
L 224.299508 263.222652 
L 209.858234 252.449196 
L 204.924824 238.712224 
L 201.11236 214.201795 
L 190.938596 196.664879 
L 186.419985 189.691366 
L 172.018958 175.135262 
L 164.499552 165.180938 
L 164.887 140.670509 
L 153.09932 132.781862 
L 148.321185 116.16008 
L 134.179681 100.807629 
L 127.642867 91.649651 
L 115.260043 68.068558 
L 114.616338 67.139223 
L 110.501433 42.628794 
L 96.340405 26.494564 
L 90.202943 18.118365 
L 82.397179 18.118365 
L 77.420767 34.967508 
L 58.949011 42.628794 
L 58.501128 42.723309 
L 58.456976 42.628794 
L 42.491263 18.118365 
L 39.58149 18.118365 
L 39.58149 34.799549 
L 46.055194 42.628794 
L 58.501128 64.822441 
L 60.347581 67.139223 
L 77.420767 91.001325 
L 77.940829 91.649651 
L 95.126376 116.16008 
L 96.340405 118.27929 
L 112.881043 140.670509 
L 115.260043 144.827641 
L 129.324003 165.180938 
L 134.179681 173.157699 
L 146.894758 189.691366 
L 153.09932 199.486267 
L 163.659066 214.201795 
L 172.018958 227.690875 
L 179.75401 238.712224 
L 190.938596 255.229105 
L 202.989322 263.222652 
L 209.858234 274.683782 
L 218.029229 287.733081 
z
M 225.463456 287.733081 
L 228.777873 280.739098 
L 233.087862 287.733081 
L 228.777873 294.199695 
z
M 185.610258 238.712224 
L 172.018958 217.440027 
L 170.197401 214.201795 
L 159.722509 189.691366 
L 172.018958 185.384847 
L 176.97287 189.691366 
L 190.938596 208.485162 
L 194.61243 214.201795 
L 198.928902 238.712224 
L 190.938596 247.282079 
z
M 149.77573 165.180938 
L 134.179681 159.695295 
L 123.255081 140.670509 
L 115.260043 131.015596 
L 105.951554 116.16008 
L 96.340405 102.610391 
L 89.972447 91.649651 
L 77.420767 72.745245 
L 74.133223 67.139223 
L 77.420767 53.339137 
L 82.503555 42.628794 
L 96.340405 35.119216 
L 103.692285 42.628794 
L 99.834141 67.139223 
L 115.260043 85.088377 
L 119.198625 91.649651 
L 134.179681 110.237248 
L 140.374809 116.16008 
L 147.9528 140.670509 
L 153.09932 161.727422 
L 154.39396 165.180938 
L 153.09932 174.698937 
z
M 323.376064 312.24351 
L 326.119923 312.24351 
L 323.376064 301.26743 
L 322.080203 287.733081 
L 319.414732 263.222652 
L 316.522831 238.712224 
L 313.26957 214.201795 
L 310.27006 189.691366 
L 306.085442 165.180938 
L 304.456426 159.719202 
L 301.538383 140.670509 
L 298.853256 116.16008 
L 296.803698 91.649651 
L 296.308604 67.139223 
L 297.489306 42.628794 
L 299.588887 18.118365 
L 285.536787 18.118365 
L 281.777272 18.118365 
L 284.747283 42.628794 
L 285.258349 67.139223 
L 285.536787 71.237415 
L 287.506088 91.649651 
L 291.828494 116.16008 
L 295.804729 140.670509 
L 300.291564 165.180938 
L 303.809334 189.691366 
L 304.456426 195.139087 
L 307.965311 214.201795 
L 312.557051 238.712224 
L 316.281945 263.222652 
L 319.607508 287.733081 
L 322.110958 312.24351 
z
M 380.134979 294.446285 
L 382.261299 312.24351 
L 386.762546 312.24351 
L 384.880234 287.733081 
L 380.772287 263.222652 
L 380.134979 260.629699 
L 376.76029 238.712224 
L 372.209973 214.201795 
L 366.628821 189.691366 
L 361.21534 170.927761 
L 359.946257 165.180938 
L 354.531766 140.670509 
L 348.481416 116.16008 
L 342.295702 95.486016 
L 341.325374 91.649651 
L 335.290127 67.139223 
L 328.852493 42.628794 
L 323.376064 24.542495 
L 321.434192 18.118365 
L 309.234078 18.118365 
L 317.315585 42.628794 
L 323.376064 57.435416 
L 326.480627 67.139223 
L 333.511711 91.649651 
L 340.369192 116.16008 
L 342.295702 122.600975 
L 347.737714 140.670509 
L 354.002965 165.180938 
L 359.900278 189.691366 
L 361.21534 195.122756 
L 366.501422 214.201795 
L 371.875513 238.712224 
L 376.161345 263.222652 
L 379.457977 287.733081 
z
M 153.09932 20.231824 
L 172.018958 19.352192 
L 172.140293 18.118365 
L 172.018958 18.118365 
L 153.09932 18.118365 
L 152.028599 18.118365 
z
" clip-path="url(#p4ec5bef4a9)" style="fill: #44bf70"/>
    <path d="M 228.777873 294.199695 
L 233.087862 287.733081 
L 228.777873 280.739098 
L 225.463456 287.733081 
z
M 323.376064 301.26743 
L 326.119923 312.24351 
L 331.503645 312.24351 
L 326.819683 287.733081 
L 323.376064 274.958274 
L 322.274722 263.222652 
L 320.061202 238.712224 
L 317.835561 214.201795 
L 316.103499 189.691366 
L 314.474695 165.180938 
L 311.056019 140.670509 
L 305.83793 116.16008 
L 304.456426 107.645921 
L 304.042799 91.649651 
L 304.456426 74.813699 
L 321.161244 91.649651 
L 323.376064 92.111126 
L 330.700538 116.16008 
L 338.613878 140.670509 
L 342.295702 150.374485 
L 346.742364 165.180938 
L 353.253791 189.691366 
L 359.707517 214.201795 
L 361.21534 219.82137 
L 366.135839 238.712224 
L 371.141817 263.222652 
L 374.908522 287.733081 
L 377.614235 312.24351 
L 380.134979 312.24351 
L 382.261299 312.24351 
L 380.134979 294.446285 
L 379.457977 287.733081 
L 376.161345 263.222652 
L 371.875513 238.712224 
L 366.501422 214.201795 
L 361.21534 195.122756 
L 359.900278 189.691366 
L 354.002965 165.180938 
L 347.737714 140.670509 
L 342.295702 122.600975 
L 340.369192 116.16008 
L 333.511711 91.649651 
L 326.480627 67.139223 
L 323.376064 57.435416 
L 317.315585 42.628794 
L 309.234078 18.118365 
L 304.456426 18.118365 
L 299.588887 18.118365 
L 297.489306 42.628794 
L 296.308604 67.139223 
L 296.803698 91.649651 
L 298.853256 116.16008 
L 301.538383 140.670509 
L 304.456426 159.719202 
L 306.085442 165.180938 
L 310.27006 189.691366 
L 313.26957 214.201795 
L 316.522831 238.712224 
L 319.414732 263.222652 
L 322.080203 287.733081 
z
M 190.938596 247.282079 
L 198.928902 238.712224 
L 194.61243 214.201795 
L 190.938596 208.485162 
L 176.97287 189.691366 
L 172.018958 185.384847 
L 159.722509 189.691366 
L 170.197401 214.201795 
L 172.018958 217.440027 
L 185.610258 238.712224 
z
M 190.579152 238.712224 
L 190.938596 235.482353 
L 191.589491 238.712224 
L 190.938596 239.335052 
z
M 153.09932 174.698937 
L 154.39396 165.180938 
L 153.09932 161.727422 
L 147.9528 140.670509 
L 140.374809 116.16008 
L 134.179681 110.237248 
L 119.198625 91.649651 
L 115.260043 85.088377 
L 99.834141 67.139223 
L 103.692285 42.628794 
L 96.340405 35.119216 
L 82.503555 42.628794 
L 77.420767 53.339137 
L 74.133223 67.139223 
L 77.420767 72.745245 
L 89.972447 91.649651 
L 96.340405 102.610391 
L 105.951554 116.16008 
L 115.260043 131.015596 
L 123.255081 140.670509 
L 134.179681 159.695295 
L 149.77573 165.180938 
z
M 131.83867 140.670509 
L 134.179681 129.311675 
L 138.09597 140.670509 
L 134.179681 145.295629 
z
M 114.424829 116.16008 
L 115.260043 112.345677 
L 120.746876 116.16008 
L 115.260043 117.671375 
z
M 58.501128 42.723309 
L 58.949011 42.628794 
L 77.420767 34.967508 
L 82.397179 18.118365 
L 77.420767 18.118365 
L 66.341689 18.118365 
L 58.501128 23.067772 
L 55.846305 18.118365 
L 42.491263 18.118365 
L 58.456976 42.628794 
z
" clip-path="url(#p4ec5bef4a9)" style="fill: #67cc5c"/>
    <path d="M 333.44896 287.733081 
L 329.519824 263.222652 
L 323.376064 240.255417 
L 323.255392 238.712224 
L 321.84391 214.201795 
L 321.055976 189.691366 
L 321.152148 165.180938 
L 322.883452 140.670509 
L 323.376064 138.041779 
L 324.285882 140.670509 
L 333.021041 165.180938 
L 342.295702 181.066339 
L 344.913453 189.691366 
L 351.685644 214.201795 
L 358.755778 238.712224 
L 361.21534 246.525026 
L 365.215053 263.222652 
L 369.626578 287.733081 
L 372.692602 312.24351 
L 377.614235 312.24351 
L 374.908522 287.733081 
L 371.141817 263.222652 
L 366.135839 238.712224 
L 361.21534 219.82137 
L 359.707517 214.201795 
L 353.253791 189.691366 
L 346.742364 165.180938 
L 342.295702 150.374485 
L 338.613878 140.670509 
L 330.700538 116.16008 
L 323.376064 92.111126 
L 321.161244 91.649651 
L 304.456426 74.813699 
L 304.042799 91.649651 
L 304.456426 107.645921 
L 305.83793 116.16008 
L 311.056019 140.670509 
L 314.474695 165.180938 
L 316.103499 189.691366 
L 317.835561 214.201795 
L 320.061202 238.712224 
L 322.274722 263.222652 
L 323.376064 274.958274 
L 326.819683 287.733081 
L 331.503645 312.24351 
L 336.128362 312.24351 
z
M 190.938596 239.335052 
L 191.589491 238.712224 
L 190.938596 235.482353 
L 190.579152 238.712224 
z
M 134.179681 145.295629 
L 138.09597 140.670509 
L 134.179681 129.311675 
L 131.83867 140.670509 
z
M 115.260043 117.671375 
L 120.746876 116.16008 
L 115.260043 112.345677 
L 114.424829 116.16008 
z
M 58.501128 23.067772 
L 66.341689 18.118365 
L 58.501128 18.118365 
L 55.846305 18.118365 
z
" clip-path="url(#p4ec5bef4a9)" style="fill: #90d743"/>
    <path d="M 338.962923 287.733081 
L 337.849301 263.222652 
L 337.980856 238.712224 
L 342.295702 219.398048 
L 347.664867 238.712224 
L 355.000141 263.222652 
L 361.21534 277.620003 
L 363.330151 287.733081 
L 366.901939 312.24351 
L 372.692602 312.24351 
L 369.626578 287.733081 
L 365.215053 263.222652 
L 361.21534 246.525026 
L 358.755778 238.712224 
L 351.685644 214.201795 
L 344.913453 189.691366 
L 342.295702 181.066339 
L 333.021041 165.180938 
L 324.285882 140.670509 
L 323.376064 138.041779 
L 322.883452 140.670509 
L 321.152148 165.180938 
L 321.055976 189.691366 
L 321.84391 214.201795 
L 323.255392 238.712224 
L 323.376064 240.255417 
L 329.519824 263.222652 
L 333.44896 287.733081 
L 336.128362 312.24351 
L 340.181879 312.24351 
z
" clip-path="url(#p4ec5bef4a9)" style="fill: #bddf26"/>
    <path d="M 342.295702 312.24351 
L 361.21534 312.24351 
L 366.901939 312.24351 
L 363.330151 287.733081 
L 361.21534 277.620003 
L 355.000141 263.222652 
L 347.664867 238.712224 
L 342.295702 219.398048 
L 337.980856 238.712224 
L 337.849301 263.222652 
L 338.962923 287.733081 
L 340.181879 312.24351 
z
" clip-path="url(#p4ec5bef4a9)" style="fill: #eae51a"/>
   </g>
   <g id="PathCollection_1">
    <defs>
     <path id="m755e5aacf9" d="M -3 3 
L 3 -3 
M -3 -3 
L 3 3 
" style="stroke: #ff0000; stroke-width: 1.5"/>
    </defs>
    <g clip-path="url(#p4ec5bef4a9)">
     <use xlink:href="#m755e5aacf9" x="361.21534" y="312.24351" style="fill: #ff0000; stroke: #ff0000; stroke-width: 1.5"/>
     <use xlink:href="#m755e5aacf9" x="342.295702" y="287.733081" style="fill: #ff0000; stroke: #ff0000; stroke-width: 1.5"/>
     <use xlink:href="#m755e5aacf9" x="342.295702" y="263.222652" style="fill: #ff0000; stroke: #ff0000; stroke-width: 1.5"/>
     <use xlink:href="#m755e5aacf9" x="342.295702" y="238.712224" style="fill: #ff0000; stroke: #ff0000; stroke-width: 1.5"/>
     <use xlink:href="#m755e5aacf9" x="342.295702" y="214.201795" style="fill: #ff0000; stroke: #ff0000; stroke-width: 1.5"/>
     <use xlink:href="#m755e5aacf9" x="323.376064" y="189.691366" style="fill: #ff0000; stroke: #ff0000; stroke-width: 1.5"/>
     <use xlink:href="#m755e5aacf9" x="323.376064" y="165.180938" style="fill: #ff0000; stroke: #ff0000; stroke-width: 1.5"/>
     <use xlink:href="#m755e5aacf9" x="323.376064" y="140.670509" style="fill: #ff0000; stroke: #ff0000; stroke-width: 1.5"/>
     <use xlink:href="#m755e5aacf9" x="323.376064" y="116.16008" style="fill: #ff0000; stroke: #ff0000; stroke-width: 1.5"/>
     <use xlink:href="#m755e5aacf9" x="304.456426" y="91.649651" style="fill: #ff0000; stroke: #ff0000; stroke-width: 1.5"/>
     <use xlink:href="#m755e5aacf9" x="304.456426" y="67.139223" style="fill: #ff0000; stroke: #ff0000; stroke-width: 1.5"/>
     <use xlink:href="#m755e5aacf9" x="96.340405" y="42.628794" style="fill: #ff0000; stroke: #ff0000; stroke-width: 1.5"/>
     <use xlink:href="#m755e5aacf9" x="58.501128" y="18.118365" style="fill: #ff0000; stroke: #ff0000; stroke-width: 1.5"/>
    </g>
   </g>
   <g id="matplotlib.axis_1">
    <g id="xtick_1">
     <g id="line2d_1">
      <defs>
       <path id="m4b9d1a7861" d="M 0 0 
L 0 3.5 
" style="stroke: #000000; stroke-width: 0.8"/>
      </defs>
      <g>
       <use xlink:href="#m4b9d1a7861" x="39.58149" y="312.24351" style="stroke: #000000; stroke-width: 0.8"/>
      </g>
     </g>
     <g id="text_1">
      <!-- $\mathdefault{10^{-5}}$ -->
      <g transform="translate(27.83149 326.841947) scale(0.1 -0.1)">
       <defs>
        <path id="DejaVuSans-31" d="M 794 531 
L 1825 531 
L 1825 4091 
L 703 3866 
L 703 4441 
L 1819 4666 
L 2450 4666 
L 2450 531 
L 3481 531 
L 3481 0 
L 794 0 
L 794 531 
z
" transform="scale(0.015625)"/>
        <path id="DejaVuSans-30" d="M 2034 4250 
Q 1547 4250 1301 3770 
Q 1056 3291 1056 2328 
Q 1056 1369 1301 889 
Q 1547 409 2034 409 
Q 2525 409 2770 889 
Q 3016 1369 3016 2328 
Q 3016 3291 2770 3770 
Q 2525 4250 2034 4250 
z
M 2034 4750 
Q 2819 4750 3233 4129 
Q 3647 3509 3647 2328 
Q 3647 1150 3233 529 
Q 2819 -91 2034 -91 
Q 1250 -91 836 529 
Q 422 1150 422 2328 
Q 422 3509 836 4129 
Q 1250 4750 2034 4750 
z
" transform="scale(0.015625)"/>
        <path id="DejaVuSans-2212" d="M 678 2272 
L 4684 2272 
L 4684 1741 
L 678 1741 
L 678 2272 
z
" transform="scale(0.015625)"/>
        <path id="DejaVuSans-35" d="M 691 4666 
L 3169 4666 
L 3169 4134 
L 1269 4134 
L 1269 2991 
Q 1406 3038 1543 3061 
Q 1681 3084 1819 3084 
Q 2600 3084 3056 2656 
Q 3513 2228 3513 1497 
Q 3513 744 3044 326 
Q 2575 -91 1722 -91 
Q 1428 -91 1123 -41 
Q 819 9 494 109 
L 494 744 
Q 775 591 1075 516 
Q 1375 441 1709 441 
Q 2250 441 2565 725 
Q 2881 1009 2881 1497 
Q 2881 1984 2565 2268 
Q 2250 2553 1709 2553 
Q 1456 2553 1204 2497 
Q 953 2441 691 2322 
L 691 4666 
z
" transform="scale(0.015625)"/>
       </defs>
       <use xlink:href="#DejaVuSans-31" transform="translate(0 0.684375)"/>
       <use xlink:href="#DejaVuSans-30" transform="translate(63.623047 0.684375)"/>
       <use xlink:href="#DejaVuSans-2212" transform="translate(128.203125 38.965625) scale(0.7)"/>
       <use xlink:href="#DejaVuSans-35" transform="translate(186.855469 38.965625) scale(0.7)"/>
      </g>
     </g>
    </g>
    <g id="xtick_2">
     <g id="line2d_2">
      <g>
       <use xlink:href="#m4b9d1a7861" x="115.260043" y="312.24351" style="stroke: #000000; stroke-width: 0.8"/>
      </g>
     </g>
     <g id="text_2">
      <!-- $\mathdefault{10^{-4}}$ -->
      <g transform="translate(103.510043 326.841947) scale(0.1 -0.1)">
       <defs>
        <path id="DejaVuSans-34" d="M 2419 4116 
L 825 1625 
L 2419 1625 
L 2419 4116 
z
M 2253 4666 
L 3047 4666 
L 3047 1625 
L 3713 1625 
L 3713 1100 
L 3047 1100 
L 3047 0 
L 2419 0 
L 2419 1100 
L 313 1100 
L 313 1709 
L 2253 4666 
z
" transform="scale(0.015625)"/>
       </defs>
       <use xlink:href="#DejaVuSans-31" transform="translate(0 0.684375)"/>
       <use xlink:href="#DejaVuSans-30" transform="translate(63.623047 0.684375)"/>
       <use xlink:href="#DejaVuSans-2212" transform="translate(128.203125 38.965625) scale(0.7)"/>
       <use xlink:href="#DejaVuSans-34" transform="translate(186.855469 38.965625) scale(0.7)"/>
      </g>
     </g>
    </g>
    <g id="xtick_3">
     <g id="line2d_3">
      <g>
       <use xlink:href="#m4b9d1a7861" x="190.938596" y="312.24351" style="stroke: #000000; stroke-width: 0.8"/>
      </g>
     </g>
     <g id="text_3">
      <!-- $\mathdefault{10^{-3}}$ -->
      <g transform="translate(179.188596 326.841947) scale(0.1 -0.1)">
       <defs>
        <path id="DejaVuSans-33" d="M 2597 2516 
Q 3050 2419 3304 2112 
Q 3559 1806 3559 1356 
Q 3559 666 3084 287 
Q 2609 -91 1734 -91 
Q 1441 -91 1130 -33 
Q 819 25 488 141 
L 488 750 
Q 750 597 1062 519 
Q 1375 441 1716 441 
Q 2309 441 2620 675 
Q 2931 909 2931 1356 
Q 2931 1769 2642 2001 
Q 2353 2234 1838 2234 
L 1294 2234 
L 1294 2753 
L 1863 2753 
Q 2328 2753 2575 2939 
Q 2822 3125 2822 3475 
Q 2822 3834 2567 4026 
Q 2313 4219 1838 4219 
Q 1578 4219 1281 4162 
Q 984 4106 628 3988 
L 628 4550 
Q 988 4650 1302 4700 
Q 1616 4750 1894 4750 
Q 2613 4750 3031 4423 
Q 3450 4097 3450 3541 
Q 3450 3153 3228 2886 
Q 3006 2619 2597 2516 
z
" transform="scale(0.015625)"/>
       </defs>
       <use xlink:href="#DejaVuSans-31" transform="translate(0 0.765625)"/>
       <use xlink:href="#DejaVuSans-30" transform="translate(63.623047 0.765625)"/>
       <use xlink:href="#DejaVuSans-2212" transform="translate(128.203125 39.046875) scale(0.7)"/>
       <use xlink:href="#DejaVuSans-33" transform="translate(186.855469 39.046875) scale(0.7)"/>
      </g>
     </g>
    </g>
    <g id="xtick_4">
     <g id="line2d_4">
      <g>
       <use xlink:href="#m4b9d1a7861" x="266.617149" y="312.24351" style="stroke: #000000; stroke-width: 0.8"/>
      </g>
     </g>
     <g id="text_4">
      <!-- $\mathdefault{10^{-2}}$ -->
      <g transform="translate(254.867149 326.841947) scale(0.1 -0.1)">
       <defs>
        <path id="DejaVuSans-32" d="M 1228 531 
L 3431 531 
L 3431 0 
L 469 0 
L 469 531 
Q 828 903 1448 1529 
Q 2069 2156 2228 2338 
Q 2531 2678 2651 2914 
Q 2772 3150 2772 3378 
Q 2772 3750 2511 3984 
Q 2250 4219 1831 4219 
Q 1534 4219 1204 4116 
Q 875 4013 500 3803 
L 500 4441 
Q 881 4594 1212 4672 
Q 1544 4750 1819 4750 
Q 2544 4750 2975 4387 
Q 3406 4025 3406 3419 
Q 3406 3131 3298 2873 
Q 3191 2616 2906 2266 
Q 2828 2175 2409 1742 
Q 1991 1309 1228 531 
z
" transform="scale(0.015625)"/>
       </defs>
       <use xlink:href="#DejaVuSans-31" transform="translate(0 0.765625)"/>
       <use xlink:href="#DejaVuSans-30" transform="translate(63.623047 0.765625)"/>
       <use xlink:href="#DejaVuSans-2212" transform="translate(128.203125 39.046875) scale(0.7)"/>
       <use xlink:href="#DejaVuSans-32" transform="translate(186.855469 39.046875) scale(0.7)"/>
      </g>
     </g>
    </g>
    <g id="xtick_5">
     <g id="line2d_5">
      <g>
       <use xlink:href="#m4b9d1a7861" x="342.295702" y="312.24351" style="stroke: #000000; stroke-width: 0.8"/>
      </g>
     </g>
     <g id="text_5">
      <!-- $\mathdefault{10^{-1}}$ -->
      <g transform="translate(330.545702 326.841947) scale(0.1 -0.1)">
       <use xlink:href="#DejaVuSans-31" transform="translate(0 0.684375)"/>
       <use xlink:href="#DejaVuSans-30" transform="translate(63.623047 0.684375)"/>
       <use xlink:href="#DejaVuSans-2212" transform="translate(128.203125 38.965625) scale(0.7)"/>
       <use xlink:href="#DejaVuSans-31" transform="translate(186.855469 38.965625) scale(0.7)"/>
      </g>
     </g>
    </g>
    <g id="xtick_6">
     <g id="line2d_6">
      <defs>
       <path id="m113a5264c0" d="M 0 0 
L 0 2 
" style="stroke: #000000; stroke-width: 0.6"/>
      </defs>
      <g>
       <use xlink:href="#m113a5264c0" x="62.363004" y="312.24351" style="stroke: #000000; stroke-width: 0.6"/>
      </g>
     </g>
    </g>
    <g id="xtick_7">
     <g id="line2d_7">
      <g>
       <use xlink:href="#m113a5264c0" x="75.689336" y="312.24351" style="stroke: #000000; stroke-width: 0.6"/>
      </g>
     </g>
    </g>
    <g id="xtick_8">
     <g id="line2d_8">
      <g>
       <use xlink:href="#m113a5264c0" x="85.144519" y="312.24351" style="stroke: #000000; stroke-width: 0.6"/>
      </g>
     </g>
    </g>
    <g id="xtick_9">
     <g id="line2d_9">
      <g>
       <use xlink:href="#m113a5264c0" x="92.478529" y="312.24351" style="stroke: #000000; stroke-width: 0.6"/>
      </g>
     </g>
    </g>
    <g id="xtick_10">
     <g id="line2d_10">
      <g>
       <use xlink:href="#m113a5264c0" x="98.470851" y="312.24351" style="stroke: #000000; stroke-width: 0.6"/>
      </g>
     </g>
    </g>
    <g id="xtick_11">
     <g id="line2d_11">
      <g>
       <use xlink:href="#m113a5264c0" x="103.537287" y="312.24351" style="stroke: #000000; stroke-width: 0.6"/>
      </g>
     </g>
    </g>
    <g id="xtick_12">
     <g id="line2d_12">
      <g>
       <use xlink:href="#m113a5264c0" x="107.926033" y="312.24351" style="stroke: #000000; stroke-width: 0.6"/>
      </g>
     </g>
    </g>
    <g id="xtick_13">
     <g id="line2d_13">
      <g>
       <use xlink:href="#m113a5264c0" x="111.797182" y="312.24351" style="stroke: #000000; stroke-width: 0.6"/>
      </g>
     </g>
    </g>
    <g id="xtick_14">
     <g id="line2d_14">
      <g>
       <use xlink:href="#m113a5264c0" x="138.041558" y="312.24351" style="stroke: #000000; stroke-width: 0.6"/>
      </g>
     </g>
    </g>
    <g id="xtick_15">
     <g id="line2d_15">
      <g>
       <use xlink:href="#m113a5264c0" x="151.367889" y="312.24351" style="stroke: #000000; stroke-width: 0.6"/>
      </g>
     </g>
    </g>
    <g id="xtick_16">
     <g id="line2d_16">
      <g>
       <use xlink:href="#m113a5264c0" x="160.823072" y="312.24351" style="stroke: #000000; stroke-width: 0.6"/>
      </g>
     </g>
    </g>
    <g id="xtick_17">
     <g id="line2d_17">
      <g>
       <use xlink:href="#m113a5264c0" x="168.157082" y="312.24351" style="stroke: #000000; stroke-width: 0.6"/>
      </g>
     </g>
    </g>
    <g id="xtick_18">
     <g id="line2d_18">
      <g>
       <use xlink:href="#m113a5264c0" x="174.149404" y="312.24351" style="stroke: #000000; stroke-width: 0.6"/>
      </g>
     </g>
    </g>
    <g id="xtick_19">
     <g id="line2d_19">
      <g>
       <use xlink:href="#m113a5264c0" x="179.21584" y="312.24351" style="stroke: #000000; stroke-width: 0.6"/>
      </g>
     </g>
    </g>
    <g id="xtick_20">
     <g id="line2d_20">
      <g>
       <use xlink:href="#m113a5264c0" x="183.604586" y="312.24351" style="stroke: #000000; stroke-width: 0.6"/>
      </g>
     </g>
    </g>
    <g id="xtick_21">
     <g id="line2d_21">
      <g>
       <use xlink:href="#m113a5264c0" x="187.475735" y="312.24351" style="stroke: #000000; stroke-width: 0.6"/>
      </g>
     </g>
    </g>
    <g id="xtick_22">
     <g id="line2d_22">
      <g>
       <use xlink:href="#m113a5264c0" x="213.720111" y="312.24351" style="stroke: #000000; stroke-width: 0.6"/>
      </g>
     </g>
    </g>
    <g id="xtick_23">
     <g id="line2d_23">
      <g>
       <use xlink:href="#m113a5264c0" x="227.046442" y="312.24351" style="stroke: #000000; stroke-width: 0.6"/>
      </g>
     </g>
    </g>
    <g id="xtick_24">
     <g id="line2d_24">
      <g>
       <use xlink:href="#m113a5264c0" x="236.501625" y="312.24351" style="stroke: #000000; stroke-width: 0.6"/>
      </g>
     </g>
    </g>
    <g id="xtick_25">
     <g id="line2d_25">
      <g>
       <use xlink:href="#m113a5264c0" x="243.835635" y="312.24351" style="stroke: #000000; stroke-width: 0.6"/>
      </g>
     </g>
    </g>
    <g id="xtick_26">
     <g id="line2d_26">
      <g>
       <use xlink:href="#m113a5264c0" x="249.827957" y="312.24351" style="stroke: #000000; stroke-width: 0.6"/>
      </g>
     </g>
    </g>
    <g id="xtick_27">
     <g id="line2d_27">
      <g>
       <use xlink:href="#m113a5264c0" x="254.894393" y="312.24351" style="stroke: #000000; stroke-width: 0.6"/>
      </g>
     </g>
    </g>
    <g id="xtick_28">
     <g id="line2d_28">
      <g>
       <use xlink:href="#m113a5264c0" x="259.28314" y="312.24351" style="stroke: #000000; stroke-width: 0.6"/>
      </g>
     </g>
    </g>
    <g id="xtick_29">
     <g id="line2d_29">
      <g>
       <use xlink:href="#m113a5264c0" x="263.154288" y="312.24351" style="stroke: #000000; stroke-width: 0.6"/>
      </g>
     </g>
    </g>
    <g id="xtick_30">
     <g id="line2d_30">
      <g>
       <use xlink:href="#m113a5264c0" x="289.398664" y="312.24351" style="stroke: #000000; stroke-width: 0.6"/>
      </g>
     </g>
    </g>
    <g id="xtick_31">
     <g id="line2d_31">
      <g>
       <use xlink:href="#m113a5264c0" x="302.724995" y="312.24351" style="stroke: #000000; stroke-width: 0.6"/>
      </g>
     </g>
    </g>
    <g id="xtick_32">
     <g id="line2d_32">
      <g>
       <use xlink:href="#m113a5264c0" x="312.180178" y="312.24351" style="stroke: #000000; stroke-width: 0.6"/>
      </g>
     </g>
    </g>
    <g id="xtick_33">
     <g id="line2d_33">
      <g>
       <use xlink:href="#m113a5264c0" x="319.514188" y="312.24351" style="stroke: #000000; stroke-width: 0.6"/>
      </g>
     </g>
    </g>
    <g id="xtick_34">
     <g id="line2d_34">
      <g>
       <use xlink:href="#m113a5264c0" x="325.50651" y="312.24351" style="stroke: #000000; stroke-width: 0.6"/>
      </g>
     </g>
    </g>
    <g id="xtick_35">
     <g id="line2d_35">
      <g>
       <use xlink:href="#m113a5264c0" x="330.572946" y="312.24351" style="stroke: #000000; stroke-width: 0.6"/>
      </g>
     </g>
    </g>
    <g id="xtick_36">
     <g id="line2d_36">
      <g>
       <use xlink:href="#m113a5264c0" x="334.961693" y="312.24351" style="stroke: #000000; stroke-width: 0.6"/>
      </g>
     </g>
    </g>
    <g id="xtick_37">
     <g id="line2d_37">
      <g>
       <use xlink:href="#m113a5264c0" x="338.832841" y="312.24351" style="stroke: #000000; stroke-width: 0.6"/>
      </g>
     </g>
    </g>
    <g id="xtick_38">
     <g id="line2d_38">
      <g>
       <use xlink:href="#m113a5264c0" x="365.077217" y="312.24351" style="stroke: #000000; stroke-width: 0.6"/>
      </g>
     </g>
    </g>
    <g id="xtick_39">
     <g id="line2d_39">
      <g>
       <use xlink:href="#m113a5264c0" x="378.403548" y="312.24351" style="stroke: #000000; stroke-width: 0.6"/>
      </g>
     </g>
    </g>
    <g id="text_6">
     <!-- bandwidth -->
     <g transform="translate(183.495734 340.520072) scale(0.1 -0.1)">
      <defs>
       <path id="DejaVuSans-62" d="M 3116 1747 
Q 3116 2381 2855 2742 
Q 2594 3103 2138 3103 
Q 1681 3103 1420 2742 
Q 1159 2381 1159 1747 
Q 1159 1113 1420 752 
Q 1681 391 2138 391 
Q 2594 391 2855 752 
Q 3116 1113 3116 1747 
z
M 1159 2969 
Q 1341 3281 1617 3432 
Q 1894 3584 2278 3584 
Q 2916 3584 3314 3078 
Q 3713 2572 3713 1747 
Q 3713 922 3314 415 
Q 2916 -91 2278 -91 
Q 1894 -91 1617 61 
Q 1341 213 1159 525 
L 1159 0 
L 581 0 
L 581 4863 
L 1159 4863 
L 1159 2969 
z
" transform="scale(0.015625)"/>
       <path id="DejaVuSans-61" d="M 2194 1759 
Q 1497 1759 1228 1600 
Q 959 1441 959 1056 
Q 959 750 1161 570 
Q 1363 391 1709 391 
Q 2188 391 2477 730 
Q 2766 1069 2766 1631 
L 2766 1759 
L 2194 1759 
z
M 3341 1997 
L 3341 0 
L 2766 0 
L 2766 531 
Q 2569 213 2275 61 
Q 1981 -91 1556 -91 
Q 1019 -91 701 211 
Q 384 513 384 1019 
Q 384 1609 779 1909 
Q 1175 2209 1959 2209 
L 2766 2209 
L 2766 2266 
Q 2766 2663 2505 2880 
Q 2244 3097 1772 3097 
Q 1472 3097 1187 3025 
Q 903 2953 641 2809 
L 641 3341 
Q 956 3463 1253 3523 
Q 1550 3584 1831 3584 
Q 2591 3584 2966 3190 
Q 3341 2797 3341 1997 
z
" transform="scale(0.015625)"/>
       <path id="DejaVuSans-6e" d="M 3513 2113 
L 3513 0 
L 2938 0 
L 2938 2094 
Q 2938 2591 2744 2837 
Q 2550 3084 2163 3084 
Q 1697 3084 1428 2787 
Q 1159 2491 1159 1978 
L 1159 0 
L 581 0 
L 581 3500 
L 1159 3500 
L 1159 2956 
Q 1366 3272 1645 3428 
Q 1925 3584 2291 3584 
Q 2894 3584 3203 3211 
Q 3513 2838 3513 2113 
z
" transform="scale(0.015625)"/>
       <path id="DejaVuSans-64" d="M 2906 2969 
L 2906 4863 
L 3481 4863 
L 3481 0 
L 2906 0 
L 2906 525 
Q 2725 213 2448 61 
Q 2172 -91 1784 -91 
Q 1150 -91 751 415 
Q 353 922 353 1747 
Q 353 2572 751 3078 
Q 1150 3584 1784 3584 
Q 2172 3584 2448 3432 
Q 2725 3281 2906 2969 
z
M 947 1747 
Q 947 1113 1208 752 
Q 1469 391 1925 391 
Q 2381 391 2643 752 
Q 2906 1113 2906 1747 
Q 2906 2381 2643 2742 
Q 2381 3103 1925 3103 
Q 1469 3103 1208 2742 
Q 947 2381 947 1747 
z
" transform="scale(0.015625)"/>
       <path id="DejaVuSans-77" d="M 269 3500 
L 844 3500 
L 1563 769 
L 2278 3500 
L 2956 3500 
L 3675 769 
L 4391 3500 
L 4966 3500 
L 4050 0 
L 3372 0 
L 2619 2869 
L 1863 0 
L 1184 0 
L 269 3500 
z
" transform="scale(0.015625)"/>
       <path id="DejaVuSans-69" d="M 603 3500 
L 1178 3500 
L 1178 0 
L 603 0 
L 603 3500 
z
M 603 4863 
L 1178 4863 
L 1178 4134 
L 603 4134 
L 603 4863 
z
" transform="scale(0.015625)"/>
       <path id="DejaVuSans-74" d="M 1172 4494 
L 1172 3500 
L 2356 3500 
L 2356 3053 
L 1172 3053 
L 1172 1153 
Q 1172 725 1289 603 
Q 1406 481 1766 481 
L 2356 481 
L 2356 0 
L 1766 0 
Q 1100 0 847 248 
Q 594 497 594 1153 
L 594 3053 
L 172 3053 
L 172 3500 
L 594 3500 
L 594 4494 
L 1172 4494 
z
" transform="scale(0.015625)"/>
       <path id="DejaVuSans-68" d="M 3513 2113 
L 3513 0 
L 2938 0 
L 2938 2094 
Q 2938 2591 2744 2837 
Q 2550 3084 2163 3084 
Q 1697 3084 1428 2787 
Q 1159 2491 1159 1978 
L 1159 0 
L 581 0 
L 581 4863 
L 1159 4863 
L 1159 2956 
Q 1366 3272 1645 3428 
Q 1925 3584 2291 3584 
Q 2894 3584 3203 3211 
Q 3513 2838 3513 2113 
z
" transform="scale(0.015625)"/>
      </defs>
      <use xlink:href="#DejaVuSans-62"/>
      <use xlink:href="#DejaVuSans-61" transform="translate(63.476562 0)"/>
      <use xlink:href="#DejaVuSans-6e" transform="translate(124.755859 0)"/>
      <use xlink:href="#DejaVuSans-64" transform="translate(188.134766 0)"/>
      <use xlink:href="#DejaVuSans-77" transform="translate(251.611328 0)"/>
      <use xlink:href="#DejaVuSans-69" transform="translate(333.398438 0)"/>
      <use xlink:href="#DejaVuSans-64" transform="translate(361.181641 0)"/>
      <use xlink:href="#DejaVuSans-74" transform="translate(424.658203 0)"/>
      <use xlink:href="#DejaVuSans-68" transform="translate(463.867188 0)"/>
     </g>
    </g>
   </g>
   <g id="matplotlib.axis_2">
    <g id="ytick_1">
     <g id="line2d_40">
      <defs>
       <path id="m49425c808b" d="M 0 0 
L -3.5 0 
" style="stroke: #000000; stroke-width: 0.8"/>
      </defs>
      <g>
       <use xlink:href="#m49425c808b" x="39.58149" y="312.24351" style="stroke: #000000; stroke-width: 0.8"/>
      </g>
     </g>
     <g id="text_7">
      <!-- 1.0 -->
      <g transform="translate(16.678365 316.042729) scale(0.1 -0.1)">
       <defs>
        <path id="DejaVuSans-2e" d="M 684 794 
L 1344 794 
L 1344 0 
L 684 0 
L 684 794 
z
" transform="scale(0.015625)"/>
       </defs>
       <use xlink:href="#DejaVuSans-31"/>
       <use xlink:href="#DejaVuSans-2e" transform="translate(63.623047 0)"/>
       <use xlink:href="#DejaVuSans-30" transform="translate(95.410156 0)"/>
      </g>
     </g>
    </g>
    <g id="ytick_2">
     <g id="line2d_41">
      <g>
       <use xlink:href="#m49425c808b" x="39.58149" y="263.222652" style="stroke: #000000; stroke-width: 0.8"/>
      </g>
     </g>
     <g id="text_8">
      <!-- 1.5 -->
      <g transform="translate(16.678365 267.021871) scale(0.1 -0.1)">
       <use xlink:href="#DejaVuSans-31"/>
       <use xlink:href="#DejaVuSans-2e" transform="translate(63.623047 0)"/>
       <use xlink:href="#DejaVuSans-35" transform="translate(95.410156 0)"/>
      </g>
     </g>
    </g>
    <g id="ytick_3">
     <g id="line2d_42">
      <g>
       <use xlink:href="#m49425c808b" x="39.58149" y="214.201795" style="stroke: #000000; stroke-width: 0.8"/>
      </g>
     </g>
     <g id="text_9">
      <!-- 2.0 -->
      <g transform="translate(16.678365 218.001014) scale(0.1 -0.1)">
       <use xlink:href="#DejaVuSans-32"/>
       <use xlink:href="#DejaVuSans-2e" transform="translate(63.623047 0)"/>
       <use xlink:href="#DejaVuSans-30" transform="translate(95.410156 0)"/>
      </g>
     </g>
    </g>
    <g id="ytick_4">
     <g id="line2d_43">
      <g>
       <use xlink:href="#m49425c808b" x="39.58149" y="165.180938" style="stroke: #000000; stroke-width: 0.8"/>
      </g>
     </g>
     <g id="text_10">
      <!-- 2.5 -->
      <g transform="translate(16.678365 168.980156) scale(0.1 -0.1)">
       <use xlink:href="#DejaVuSans-32"/>
       <use xlink:href="#DejaVuSans-2e" transform="translate(63.623047 0)"/>
       <use xlink:href="#DejaVuSans-35" transform="translate(95.410156 0)"/>
      </g>
     </g>
    </g>
    <g id="ytick_5">
     <g id="line2d_44">
      <g>
       <use xlink:href="#m49425c808b" x="39.58149" y="116.16008" style="stroke: #000000; stroke-width: 0.8"/>
      </g>
     </g>
     <g id="text_11">
      <!-- 3.0 -->
      <g transform="translate(16.678365 119.959299) scale(0.1 -0.1)">
       <use xlink:href="#DejaVuSans-33"/>
       <use xlink:href="#DejaVuSans-2e" transform="translate(63.623047 0)"/>
       <use xlink:href="#DejaVuSans-30" transform="translate(95.410156 0)"/>
      </g>
     </g>
    </g>
    <g id="ytick_6">
     <g id="line2d_45">
      <g>
       <use xlink:href="#m49425c808b" x="39.58149" y="67.139223" style="stroke: #000000; stroke-width: 0.8"/>
      </g>
     </g>
     <g id="text_12">
      <!-- 3.5 -->
      <g transform="translate(16.678365 70.938441) scale(0.1 -0.1)">
       <use xlink:href="#DejaVuSans-33"/>
       <use xlink:href="#DejaVuSans-2e" transform="translate(63.623047 0)"/>
       <use xlink:href="#DejaVuSans-35" transform="translate(95.410156 0)"/>
      </g>
     </g>
    </g>
    <g id="ytick_7">
     <g id="line2d_46">
      <g>
       <use xlink:href="#m49425c808b" x="39.58149" y="18.118365" style="stroke: #000000; stroke-width: 0.8"/>
      </g>
     </g>
     <g id="text_13">
      <!-- 4.0 -->
      <g transform="translate(16.678365 21.917584) scale(0.1 -0.1)">
       <use xlink:href="#DejaVuSans-34"/>
       <use xlink:href="#DejaVuSans-2e" transform="translate(63.623047 0)"/>
       <use xlink:href="#DejaVuSans-30" transform="translate(95.410156 0)"/>
      </g>
     </g>
    </g>
    <g id="text_14">
     <!-- alpha -->
     <g transform="translate(10.598677 179.041094) rotate(-90) scale(0.1 -0.1)">
      <defs>
       <path id="DejaVuSans-6c" d="M 603 4863 
L 1178 4863 
L 1178 0 
L 603 0 
L 603 4863 
z
" transform="scale(0.015625)"/>
       <path id="DejaVuSans-70" d="M 1159 525 
L 1159 -1331 
L 581 -1331 
L 581 3500 
L 1159 3500 
L 1159 2969 
Q 1341 3281 1617 3432 
Q 1894 3584 2278 3584 
Q 2916 3584 3314 3078 
Q 3713 2572 3713 1747 
Q 3713 922 3314 415 
Q 2916 -91 2278 -91 
Q 1894 -91 1617 61 
Q 1341 213 1159 525 
z
M 3116 1747 
Q 3116 2381 2855 2742 
Q 2594 3103 2138 3103 
Q 1681 3103 1420 2742 
Q 1159 2381 1159 1747 
Q 1159 1113 1420 752 
Q 1681 391 2138 391 
Q 2594 391 2855 752 
Q 3116 1113 3116 1747 
z
" transform="scale(0.015625)"/>
      </defs>
      <use xlink:href="#DejaVuSans-61"/>
      <use xlink:href="#DejaVuSans-6c" transform="translate(61.279297 0)"/>
      <use xlink:href="#DejaVuSans-70" transform="translate(89.0625 0)"/>
      <use xlink:href="#DejaVuSans-68" transform="translate(152.539062 0)"/>
      <use xlink:href="#DejaVuSans-61" transform="translate(215.917969 0)"/>
     </g>
    </g>
   </g>
   <g id="patch_3">
    <path d="M 39.58149 312.24351 
L 39.58149 18.118365 
" style="fill: none; stroke: #000000; stroke-width: 0.8; stroke-linejoin: miter; stroke-linecap: square"/>
   </g>
   <g id="patch_4">
    <path d="M 380.134979 312.24351 
L 380.134979 18.118365 
" style="fill: none; stroke: #000000; stroke-width: 0.8; stroke-linejoin: miter; stroke-linecap: square"/>
   </g>
   <g id="patch_5">
    <path d="M 39.58149 312.24351 
L 380.134979 312.24351 
" style="fill: none; stroke: #000000; stroke-width: 0.8; stroke-linejoin: miter; stroke-linecap: square"/>
   </g>
   <g id="patch_6">
    <path d="M 39.58149 18.118365 
L 380.134979 18.118365 
" style="fill: none; stroke: #000000; stroke-width: 0.8; stroke-linejoin: miter; stroke-linecap: square"/>
   </g>
   <g id="text_15">
    <!-- espirales_lo 7354 fkdc -->
    <g transform="translate(142.820422 12.118365) scale(0.12 -0.12)">
     <defs>
      <path id="DejaVuSans-65" d="M 3597 1894 
L 3597 1613 
L 953 1613 
Q 991 1019 1311 708 
Q 1631 397 2203 397 
Q 2534 397 2845 478 
Q 3156 559 3463 722 
L 3463 178 
Q 3153 47 2828 -22 
Q 2503 -91 2169 -91 
Q 1331 -91 842 396 
Q 353 884 353 1716 
Q 353 2575 817 3079 
Q 1281 3584 2069 3584 
Q 2775 3584 3186 3129 
Q 3597 2675 3597 1894 
z
M 3022 2063 
Q 3016 2534 2758 2815 
Q 2500 3097 2075 3097 
Q 1594 3097 1305 2825 
Q 1016 2553 972 2059 
L 3022 2063 
z
" transform="scale(0.015625)"/>
      <path id="DejaVuSans-73" d="M 2834 3397 
L 2834 2853 
Q 2591 2978 2328 3040 
Q 2066 3103 1784 3103 
Q 1356 3103 1142 2972 
Q 928 2841 928 2578 
Q 928 2378 1081 2264 
Q 1234 2150 1697 2047 
L 1894 2003 
Q 2506 1872 2764 1633 
Q 3022 1394 3022 966 
Q 3022 478 2636 193 
Q 2250 -91 1575 -91 
Q 1294 -91 989 -36 
Q 684 19 347 128 
L 347 722 
Q 666 556 975 473 
Q 1284 391 1588 391 
Q 1994 391 2212 530 
Q 2431 669 2431 922 
Q 2431 1156 2273 1281 
Q 2116 1406 1581 1522 
L 1381 1569 
Q 847 1681 609 1914 
Q 372 2147 372 2553 
Q 372 3047 722 3315 
Q 1072 3584 1716 3584 
Q 2034 3584 2315 3537 
Q 2597 3491 2834 3397 
z
" transform="scale(0.015625)"/>
      <path id="DejaVuSans-72" d="M 2631 2963 
Q 2534 3019 2420 3045 
Q 2306 3072 2169 3072 
Q 1681 3072 1420 2755 
Q 1159 2438 1159 1844 
L 1159 0 
L 581 0 
L 581 3500 
L 1159 3500 
L 1159 2956 
Q 1341 3275 1631 3429 
Q 1922 3584 2338 3584 
Q 2397 3584 2469 3576 
Q 2541 3569 2628 3553 
L 2631 2963 
z
" transform="scale(0.015625)"/>
      <path id="DejaVuSans-5f" d="M 3263 -1063 
L 3263 -1509 
L -63 -1509 
L -63 -1063 
L 3263 -1063 
z
" transform="scale(0.015625)"/>
      <path id="DejaVuSans-6f" d="M 1959 3097 
Q 1497 3097 1228 2736 
Q 959 2375 959 1747 
Q 959 1119 1226 758 
Q 1494 397 1959 397 
Q 2419 397 2687 759 
Q 2956 1122 2956 1747 
Q 2956 2369 2687 2733 
Q 2419 3097 1959 3097 
z
M 1959 3584 
Q 2709 3584 3137 3096 
Q 3566 2609 3566 1747 
Q 3566 888 3137 398 
Q 2709 -91 1959 -91 
Q 1206 -91 779 398 
Q 353 888 353 1747 
Q 353 2609 779 3096 
Q 1206 3584 1959 3584 
z
" transform="scale(0.015625)"/>
      <path id="DejaVuSans-20" transform="scale(0.015625)"/>
      <path id="DejaVuSans-37" d="M 525 4666 
L 3525 4666 
L 3525 4397 
L 1831 0 
L 1172 0 
L 2766 4134 
L 525 4134 
L 525 4666 
z
" transform="scale(0.015625)"/>
      <path id="DejaVuSans-66" d="M 2375 4863 
L 2375 4384 
L 1825 4384 
Q 1516 4384 1395 4259 
Q 1275 4134 1275 3809 
L 1275 3500 
L 2222 3500 
L 2222 3053 
L 1275 3053 
L 1275 0 
L 697 0 
L 697 3053 
L 147 3053 
L 147 3500 
L 697 3500 
L 697 3744 
Q 697 4328 969 4595 
Q 1241 4863 1831 4863 
L 2375 4863 
z
" transform="scale(0.015625)"/>
      <path id="DejaVuSans-6b" d="M 581 4863 
L 1159 4863 
L 1159 1991 
L 2875 3500 
L 3609 3500 
L 1753 1863 
L 3688 0 
L 2938 0 
L 1159 1709 
L 1159 0 
L 581 0 
L 581 4863 
z
" transform="scale(0.015625)"/>
      <path id="DejaVuSans-63" d="M 3122 3366 
L 3122 2828 
Q 2878 2963 2633 3030 
Q 2388 3097 2138 3097 
Q 1578 3097 1268 2742 
Q 959 2388 959 1747 
Q 959 1106 1268 751 
Q 1578 397 2138 397 
Q 2388 397 2633 464 
Q 2878 531 3122 666 
L 3122 134 
Q 2881 22 2623 -34 
Q 2366 -91 2075 -91 
Q 1284 -91 818 406 
Q 353 903 353 1747 
Q 353 2603 823 3093 
Q 1294 3584 2113 3584 
Q 2378 3584 2631 3529 
Q 2884 3475 3122 3366 
z
" transform="scale(0.015625)"/>
     </defs>
     <use xlink:href="#DejaVuSans-65"/>
     <use xlink:href="#DejaVuSans-73" transform="translate(61.523438 0)"/>
     <use xlink:href="#DejaVuSans-70" transform="translate(113.623047 0)"/>
     <use xlink:href="#DejaVuSans-69" transform="translate(177.099609 0)"/>
     <use xlink:href="#DejaVuSans-72" transform="translate(204.882812 0)"/>
     <use xlink:href="#DejaVuSans-61" transform="translate(245.996094 0)"/>
     <use xlink:href="#DejaVuSans-6c" transform="translate(307.275391 0)"/>
     <use xlink:href="#DejaVuSans-65" transform="translate(335.058594 0)"/>
     <use xlink:href="#DejaVuSans-73" transform="translate(396.582031 0)"/>
     <use xlink:href="#DejaVuSans-5f" transform="translate(448.681641 0)"/>
     <use xlink:href="#DejaVuSans-6c" transform="translate(498.681641 0)"/>
     <use xlink:href="#DejaVuSans-6f" transform="translate(526.464844 0)"/>
     <use xlink:href="#DejaVuSans-20" transform="translate(587.646484 0)"/>
     <use xlink:href="#DejaVuSans-37" transform="translate(619.433594 0)"/>
     <use xlink:href="#DejaVuSans-33" transform="translate(683.056641 0)"/>
     <use xlink:href="#DejaVuSans-35" transform="translate(746.679688 0)"/>
     <use xlink:href="#DejaVuSans-34" transform="translate(810.302734 0)"/>
     <use xlink:href="#DejaVuSans-20" transform="translate(873.925781 0)"/>
     <use xlink:href="#DejaVuSans-66" transform="translate(905.712891 0)"/>
     <use xlink:href="#DejaVuSans-6b" transform="translate(940.917969 0)"/>
     <use xlink:href="#DejaVuSans-64" transform="translate(998.828125 0)"/>
     <use xlink:href="#DejaVuSans-63" transform="translate(1062.304688 0)"/>
    </g>
   </g>
  </g>
  <g id="axes_2">
   <g id="patch_7">
    <path d="M 397.162653 312.24351 
L 411.86891 312.24351 
L 411.86891 18.118365 
L 397.162653 18.118365 
z
" style="fill: #ffffff"/>
   </g>
   <g id="QuadMesh_1">
    <path d="M 397.162653 312.24351 
L 411.86891 312.24351 
L 411.86891 292.635167 
L 397.162653 292.635167 
L 397.162653 312.24351 
" clip-path="url(#p24e63dc8ab)" style="fill: #470d60"/>
    <path d="M 397.162653 292.635167 
L 411.86891 292.635167 
L 411.86891 273.026824 
L 397.162653 273.026824 
L 397.162653 292.635167 
" clip-path="url(#p24e63dc8ab)" style="fill: #482475"/>
    <path d="M 397.162653 273.026824 
L 411.86891 273.026824 
L 411.86891 253.418481 
L 397.162653 253.418481 
L 397.162653 273.026824 
" clip-path="url(#p24e63dc8ab)" style="fill: #443983"/>
    <path d="M 397.162653 253.418481 
L 411.86891 253.418481 
L 411.86891 233.810138 
L 397.162653 233.810138 
L 397.162653 253.418481 
" clip-path="url(#p24e63dc8ab)" style="fill: #3d4d8a"/>
    <path d="M 397.162653 233.810138 
L 411.86891 233.810138 
L 411.86891 214.201795 
L 397.162653 214.201795 
L 397.162653 233.810138 
" clip-path="url(#p24e63dc8ab)" style="fill: #355f8d"/>
    <path d="M 397.162653 214.201795 
L 411.86891 214.201795 
L 411.86891 194.593452 
L 397.162653 194.593452 
L 397.162653 214.201795 
" clip-path="url(#p24e63dc8ab)" style="fill: #2d708e"/>
    <path d="M 397.162653 194.593452 
L 411.86891 194.593452 
L 411.86891 174.985109 
L 397.162653 174.985109 
L 397.162653 194.593452 
" clip-path="url(#p24e63dc8ab)" style="fill: #27808e"/>
    <path d="M 397.162653 174.985109 
L 411.86891 174.985109 
L 411.86891 155.376766 
L 397.162653 155.376766 
L 397.162653 174.985109 
" clip-path="url(#p24e63dc8ab)" style="fill: #21918c"/>
    <path d="M 397.162653 155.376766 
L 411.86891 155.376766 
L 411.86891 135.768423 
L 397.162653 135.768423 
L 397.162653 155.376766 
" clip-path="url(#p24e63dc8ab)" style="fill: #1fa188"/>
    <path d="M 397.162653 135.768423 
L 411.86891 135.768423 
L 411.86891 116.16008 
L 397.162653 116.16008 
L 397.162653 135.768423 
" clip-path="url(#p24e63dc8ab)" style="fill: #2ab07f"/>
    <path d="M 397.162653 116.16008 
L 411.86891 116.16008 
L 411.86891 96.551737 
L 397.162653 96.551737 
L 397.162653 116.16008 
" clip-path="url(#p24e63dc8ab)" style="fill: #44bf70"/>
    <path d="M 397.162653 96.551737 
L 411.86891 96.551737 
L 411.86891 76.943394 
L 397.162653 76.943394 
L 397.162653 96.551737 
" clip-path="url(#p24e63dc8ab)" style="fill: #67cc5c"/>
    <path d="M 397.162653 76.943394 
L 411.86891 76.943394 
L 411.86891 57.335051 
L 397.162653 57.335051 
L 397.162653 76.943394 
" clip-path="url(#p24e63dc8ab)" style="fill: #90d743"/>
    <path d="M 397.162653 57.335051 
L 411.86891 57.335051 
L 411.86891 37.726708 
L 397.162653 37.726708 
L 397.162653 57.335051 
" clip-path="url(#p24e63dc8ab)" style="fill: #bddf26"/>
    <path d="M 397.162653 37.726708 
L 411.86891 37.726708 
L 411.86891 18.118365 
L 397.162653 18.118365 
L 397.162653 37.726708 
" clip-path="url(#p24e63dc8ab)" style="fill: #eae51a"/>
   </g>
   <g id="matplotlib.axis_3"/>
   <g id="matplotlib.axis_4">
    <g id="ytick_8">
     <g id="line2d_47">
      <defs>
       <path id="mdef815ebda" d="M 0 0 
L 3.5 0 
" style="stroke: #000000; stroke-width: 0.8"/>
      </defs>
      <g>
       <use xlink:href="#mdef815ebda" x="411.86891" y="292.635167" style="stroke: #000000; stroke-width: 0.8"/>
      </g>
     </g>
     <g id="text_16">
      <!-- 0.8 -->
      <g transform="translate(418.86891 296.434386) scale(0.1 -0.1)">
       <defs>
        <path id="DejaVuSans-38" d="M 2034 2216 
Q 1584 2216 1326 1975 
Q 1069 1734 1069 1313 
Q 1069 891 1326 650 
Q 1584 409 2034 409 
Q 2484 409 2743 651 
Q 3003 894 3003 1313 
Q 3003 1734 2745 1975 
Q 2488 2216 2034 2216 
z
M 1403 2484 
Q 997 2584 770 2862 
Q 544 3141 544 3541 
Q 544 4100 942 4425 
Q 1341 4750 2034 4750 
Q 2731 4750 3128 4425 
Q 3525 4100 3525 3541 
Q 3525 3141 3298 2862 
Q 3072 2584 2669 2484 
Q 3125 2378 3379 2068 
Q 3634 1759 3634 1313 
Q 3634 634 3220 271 
Q 2806 -91 2034 -91 
Q 1263 -91 848 271 
Q 434 634 434 1313 
Q 434 1759 690 2068 
Q 947 2378 1403 2484 
z
M 1172 3481 
Q 1172 3119 1398 2916 
Q 1625 2713 2034 2713 
Q 2441 2713 2670 2916 
Q 2900 3119 2900 3481 
Q 2900 3844 2670 4047 
Q 2441 4250 2034 4250 
Q 1625 4250 1398 4047 
Q 1172 3844 1172 3481 
z
" transform="scale(0.015625)"/>
       </defs>
       <use xlink:href="#DejaVuSans-2212"/>
       <use xlink:href="#DejaVuSans-30" transform="translate(83.789062 0)"/>
       <use xlink:href="#DejaVuSans-2e" transform="translate(147.412109 0)"/>
       <use xlink:href="#DejaVuSans-38" transform="translate(179.199219 0)"/>
      </g>
     </g>
    </g>
    <g id="ytick_9">
     <g id="line2d_48">
      <g>
       <use xlink:href="#mdef815ebda" x="411.86891" y="253.418481" style="stroke: #000000; stroke-width: 0.8"/>
      </g>
     </g>
     <g id="text_17">
      <!-- 0.7 -->
      <g transform="translate(418.86891 257.2177) scale(0.1 -0.1)">
       <use xlink:href="#DejaVuSans-2212"/>
       <use xlink:href="#DejaVuSans-30" transform="translate(83.789062 0)"/>
       <use xlink:href="#DejaVuSans-2e" transform="translate(147.412109 0)"/>
       <use xlink:href="#DejaVuSans-37" transform="translate(179.199219 0)"/>
      </g>
     </g>
    </g>
    <g id="ytick_10">
     <g id="line2d_49">
      <g>
       <use xlink:href="#mdef815ebda" x="411.86891" y="214.201795" style="stroke: #000000; stroke-width: 0.8"/>
      </g>
     </g>
     <g id="text_18">
      <!-- 0.6 -->
      <g transform="translate(418.86891 218.001014) scale(0.1 -0.1)">
       <defs>
        <path id="DejaVuSans-36" d="M 2113 2584 
Q 1688 2584 1439 2293 
Q 1191 2003 1191 1497 
Q 1191 994 1439 701 
Q 1688 409 2113 409 
Q 2538 409 2786 701 
Q 3034 994 3034 1497 
Q 3034 2003 2786 2293 
Q 2538 2584 2113 2584 
z
M 3366 4563 
L 3366 3988 
Q 3128 4100 2886 4159 
Q 2644 4219 2406 4219 
Q 1781 4219 1451 3797 
Q 1122 3375 1075 2522 
Q 1259 2794 1537 2939 
Q 1816 3084 2150 3084 
Q 2853 3084 3261 2657 
Q 3669 2231 3669 1497 
Q 3669 778 3244 343 
Q 2819 -91 2113 -91 
Q 1303 -91 875 529 
Q 447 1150 447 2328 
Q 447 3434 972 4092 
Q 1497 4750 2381 4750 
Q 2619 4750 2861 4703 
Q 3103 4656 3366 4563 
z
" transform="scale(0.015625)"/>
       </defs>
       <use xlink:href="#DejaVuSans-2212"/>
       <use xlink:href="#DejaVuSans-30" transform="translate(83.789062 0)"/>
       <use xlink:href="#DejaVuSans-2e" transform="translate(147.412109 0)"/>
       <use xlink:href="#DejaVuSans-36" transform="translate(179.199219 0)"/>
      </g>
     </g>
    </g>
    <g id="ytick_11">
     <g id="line2d_50">
      <g>
       <use xlink:href="#mdef815ebda" x="411.86891" y="174.985109" style="stroke: #000000; stroke-width: 0.8"/>
      </g>
     </g>
     <g id="text_19">
      <!-- 0.5 -->
      <g transform="translate(418.86891 178.784328) scale(0.1 -0.1)">
       <use xlink:href="#DejaVuSans-2212"/>
       <use xlink:href="#DejaVuSans-30" transform="translate(83.789062 0)"/>
       <use xlink:href="#DejaVuSans-2e" transform="translate(147.412109 0)"/>
       <use xlink:href="#DejaVuSans-35" transform="translate(179.199219 0)"/>
      </g>
     </g>
    </g>
    <g id="ytick_12">
     <g id="line2d_51">
      <g>
       <use xlink:href="#mdef815ebda" x="411.86891" y="135.768423" style="stroke: #000000; stroke-width: 0.8"/>
      </g>
     </g>
     <g id="text_20">
      <!-- 0.4 -->
      <g transform="translate(418.86891 139.567642) scale(0.1 -0.1)">
       <use xlink:href="#DejaVuSans-2212"/>
       <use xlink:href="#DejaVuSans-30" transform="translate(83.789062 0)"/>
       <use xlink:href="#DejaVuSans-2e" transform="translate(147.412109 0)"/>
       <use xlink:href="#DejaVuSans-34" transform="translate(179.199219 0)"/>
      </g>
     </g>
    </g>
    <g id="ytick_13">
     <g id="line2d_52">
      <g>
       <use xlink:href="#mdef815ebda" x="411.86891" y="96.551737" style="stroke: #000000; stroke-width: 0.8"/>
      </g>
     </g>
     <g id="text_21">
      <!-- 0.3 -->
      <g transform="translate(418.86891 100.350956) scale(0.1 -0.1)">
       <use xlink:href="#DejaVuSans-2212"/>
       <use xlink:href="#DejaVuSans-30" transform="translate(83.789062 0)"/>
       <use xlink:href="#DejaVuSans-2e" transform="translate(147.412109 0)"/>
       <use xlink:href="#DejaVuSans-33" transform="translate(179.199219 0)"/>
      </g>
     </g>
    </g>
    <g id="ytick_14">
     <g id="line2d_53">
      <g>
       <use xlink:href="#mdef815ebda" x="411.86891" y="57.335051" style="stroke: #000000; stroke-width: 0.8"/>
      </g>
     </g>
     <g id="text_22">
      <!-- 0.2 -->
      <g transform="translate(418.86891 61.13427) scale(0.1 -0.1)">
       <use xlink:href="#DejaVuSans-2212"/>
       <use xlink:href="#DejaVuSans-30" transform="translate(83.789062 0)"/>
       <use xlink:href="#DejaVuSans-2e" transform="translate(147.412109 0)"/>
       <use xlink:href="#DejaVuSans-32" transform="translate(179.199219 0)"/>
      </g>
     </g>
    </g>
    <g id="ytick_15">
     <g id="line2d_54">
      <g>
       <use xlink:href="#mdef815ebda" x="411.86891" y="18.118365" style="stroke: #000000; stroke-width: 0.8"/>
      </g>
     </g>
     <g id="text_23">
      <!-- 0.1 -->
      <g transform="translate(418.86891 21.917584) scale(0.1 -0.1)">
       <use xlink:href="#DejaVuSans-2212"/>
       <use xlink:href="#DejaVuSans-30" transform="translate(83.789062 0)"/>
       <use xlink:href="#DejaVuSans-2e" transform="translate(147.412109 0)"/>
       <use xlink:href="#DejaVuSans-31" transform="translate(179.199219 0)"/>
      </g>
     </g>
    </g>
    <g id="text_24">
     <!-- Score -->
     <g transform="translate(454.75016 179.183281) rotate(-90) scale(0.1 -0.1)">
      <defs>
       <path id="DejaVuSans-53" d="M 3425 4513 
L 3425 3897 
Q 3066 4069 2747 4153 
Q 2428 4238 2131 4238 
Q 1616 4238 1336 4038 
Q 1056 3838 1056 3469 
Q 1056 3159 1242 3001 
Q 1428 2844 1947 2747 
L 2328 2669 
Q 3034 2534 3370 2195 
Q 3706 1856 3706 1288 
Q 3706 609 3251 259 
Q 2797 -91 1919 -91 
Q 1588 -91 1214 -16 
Q 841 59 441 206 
L 441 856 
Q 825 641 1194 531 
Q 1563 422 1919 422 
Q 2459 422 2753 634 
Q 3047 847 3047 1241 
Q 3047 1584 2836 1778 
Q 2625 1972 2144 2069 
L 1759 2144 
Q 1053 2284 737 2584 
Q 422 2884 422 3419 
Q 422 4038 858 4394 
Q 1294 4750 2059 4750 
Q 2388 4750 2728 4690 
Q 3069 4631 3425 4513 
z
" transform="scale(0.015625)"/>
      </defs>
      <use xlink:href="#DejaVuSans-53"/>
      <use xlink:href="#DejaVuSans-63" transform="translate(63.476562 0)"/>
      <use xlink:href="#DejaVuSans-6f" transform="translate(118.457031 0)"/>
      <use xlink:href="#DejaVuSans-72" transform="translate(179.638672 0)"/>
      <use xlink:href="#DejaVuSans-65" transform="translate(218.501953 0)"/>
     </g>
    </g>
   </g>
   <g id="LineCollection_1"/>
   <g id="patch_8">
    <path d="M 397.162653 312.24351 
L 404.515782 312.24351 
L 411.86891 312.24351 
L 411.86891 18.118365 
L 404.515782 18.118365 
L 397.162653 18.118365 
L 397.162653 312.24351 
z
" style="fill: none; stroke: #000000; stroke-width: 0.8; stroke-linejoin: miter; stroke-linecap: square"/>
   </g>
  </g>
 </g>
 <defs>
  <clipPath id="p4ec5bef4a9">
   <rect x="39.58149" y="18.118365" width="340.553489" height="294.125145"/>
  </clipPath>
  <clipPath id="p24e63dc8ab">
   <rect x="397.162653" y="18.118365" width="14.706257" height="294.125145"/>
  </clipPath>
 </defs>
</svg>
