<?xml version="1.0" encoding="utf-8" standalone="no"?>
<!DOCTYPE svg PUBLIC "-//W3C//DTD SVG 1.1//EN"
  "http://www.w3.org/Graphics/SVG/1.1/DTD/svg11.dtd">
<svg xmlns:xlink="http://www.w3.org/1999/xlink" width="468.189381pt" height="353.99952pt" viewBox="0 0 468.189381 353.99952" xmlns="http://www.w3.org/2000/svg" version="1.1">
 <metadata>
  <rdf:RDF xmlns:dc="http://purl.org/dc/elements/1.1/" xmlns:cc="http://creativecommons.org/ns#" xmlns:rdf="http://www.w3.org/1999/02/22-rdf-syntax-ns#">
   <cc:Work>
    <dc:type rdf:resource="http://purl.org/dc/dcmitype/StillImage"/>
    <dc:date>1970-01-01T00:00:00+00:00</dc:date>
    <dc:format>image/svg+xml</dc:format>
    <dc:creator>
     <cc:Agent>
      <dc:title>Matplotlib v3.10.7, https://matplotlib.org/</dc:title>
     </cc:Agent>
    </dc:creator>
   </cc:Work>
  </rdf:RDF>
 </metadata>
 <defs>
  <style type="text/css">*{stroke-linejoin: round; stroke-linecap: butt}</style>
 </defs>
 <g id="figure_1">
  <g id="patch_1">
   <path d="M 0 353.99952 
L 468.189381 353.99952 
L 468.189381 0 
L 0 0 
z
" style="fill: #ffffff"/>
  </g>
  <g id="axes_1">
   <g id="patch_2">
    <path d="M 43.78125 316.44327 
L 388.302075 316.44327 
L 388.302075 10.999219 
L 43.78125 10.999219 
z
" style="fill: #ffffff"/>
   </g>
   <g id="QuadContourSet_1">
    <path d="M 273.4618 291.464253 
L 278.728969 290.989599 
L 281.024582 265.535928 
L 273.4618 253.092774 
L 272.574945 265.535928 
L 273.237257 290.989599 
z
M 292.601846 316.44327 
L 295.499211 316.44327 
L 292.601846 303.709131 
L 291.672234 316.44327 
z
" clip-path="url(#p1ec12e89ab)" style="fill: #470d60"/>
    <path d="M 273.4618 295.4562 
L 289.352285 316.44327 
L 291.672234 316.44327 
L 292.601846 303.709131 
L 295.499211 316.44327 
L 301.515942 316.44327 
L 296.284199 290.989599 
L 292.932335 265.535928 
L 292.601846 264.357327 
L 280.048695 240.082257 
L 273.614698 214.628586 
L 273.4618 213.906883 
L 272.975446 214.628586 
L 270.762069 240.082257 
L 270.546901 265.535928 
L 271.286276 290.989599 
z
M 273.237257 290.989599 
L 272.574945 265.535928 
L 273.4618 253.092774 
L 281.024582 265.535928 
L 278.728969 290.989599 
L 273.4618 291.464253 
z
" clip-path="url(#p1ec12e89ab)" style="fill: #482475"/>
    <path d="M 273.4618 299.448147 
L 286.858242 316.44327 
L 289.352285 316.44327 
L 273.4618 295.4562 
L 271.286276 290.989599 
L 270.546901 265.535928 
L 270.762069 240.082257 
L 272.975446 214.628586 
L 273.4618 213.906883 
L 273.614698 214.628586 
L 280.048695 240.082257 
L 292.601846 264.357327 
L 292.932335 265.535928 
L 296.284199 290.989599 
L 301.515942 316.44327 
L 306.608934 316.44327 
L 301.810584 290.989599 
L 297.660185 265.535928 
L 292.601846 246.148944 
L 289.880464 240.082257 
L 281.480994 214.628586 
L 276.104038 189.174915 
L 273.4618 174.51088 
L 269.733199 163.721244 
L 260.645591 138.267573 
L 254.321754 114.775275 
L 245.160877 138.267573 
L 249.741467 163.721244 
L 254.321754 181.867733 
L 264.891145 189.174915 
L 254.321754 200.186996 
L 253.225605 214.628586 
L 254.321754 221.286647 
L 264.888307 240.082257 
L 268.387076 265.535928 
L 269.213643 290.989599 
z
M 235.181708 99.099658 
L 245.626317 87.360232 
L 236.478113 61.906561 
L 235.181708 57.142701 
L 233.651637 61.906561 
L 231.53375 87.360232 
z
" clip-path="url(#p1ec12e89ab)" style="fill: #443983"/>
    <path d="M 62.921296 316.44327 
L 82.061342 316.44327 
L 101.201387 316.44327 
L 120.341433 316.44327 
L 139.481479 316.44327 
L 158.621525 316.44327 
L 177.761571 316.44327 
L 185.361654 316.44327 
L 177.761571 310.482228 
L 160.88713 290.989599 
L 158.621525 289.14466 
L 139.481479 279.892522 
L 127.911998 265.535928 
L 120.341433 259.031771 
L 104.313145 240.082257 
L 101.201387 237.776084 
L 82.061342 228.755974 
L 71.601788 214.628586 
L 62.921296 207.604097 
L 47.174724 189.174915 
L 43.78125 186.336548 
L 43.78125 189.174915 
L 43.78125 214.628586 
L 43.78125 240.082257 
L 43.78125 265.535928 
L 43.78125 290.989599 
L 43.78125 316.44327 
z
M 273.4618 303.440095 
L 284.16184 316.44327 
L 286.858242 316.44327 
L 273.4618 299.448147 
L 269.213643 290.989599 
L 268.387076 265.535928 
L 264.888307 240.082257 
L 254.321754 221.286647 
L 253.225605 214.628586 
L 254.321754 200.186996 
L 264.891145 189.174915 
L 254.321754 181.867733 
L 249.741467 163.721244 
L 245.160877 138.267573 
L 254.321754 114.775275 
L 260.645591 138.267573 
L 269.733199 163.721244 
L 273.4618 174.51088 
L 276.104038 189.174915 
L 281.480994 214.628586 
L 289.880464 240.082257 
L 292.601846 246.148944 
L 297.660185 265.535928 
L 301.810584 290.989599 
L 306.608934 316.44327 
L 311.024438 316.44327 
L 306.548012 290.989599 
L 301.798701 265.535928 
L 295.908373 240.082257 
L 292.601846 229.146852 
L 287.837721 214.628586 
L 281.772803 189.174915 
L 277.27692 163.721244 
L 273.4618 151.595622 
L 268.492568 138.267573 
L 261.824963 112.813902 
L 255.490757 87.360232 
L 254.321754 83.808222 
L 246.655546 61.906561 
L 240.913407 36.45289 
L 235.181708 18.548108 
L 216.379889 36.45289 
L 216.041662 38.882102 
L 215.825457 61.906561 
L 216.041662 63.052814 
L 226.013549 87.360232 
L 234.543472 112.813902 
L 233.855601 138.267573 
L 235.181708 145.126176 
L 244.091765 163.721244 
L 251.294943 189.174915 
L 250.914318 214.628586 
L 254.321754 234.626362 
L 257.749427 240.082257 
L 266.077148 265.535928 
L 267.003171 290.989599 
z
M 231.53375 87.360232 
L 233.651637 61.906561 
L 235.181708 57.142701 
L 236.478113 61.906561 
L 245.626317 87.360232 
L 235.181708 99.099658 
z
M 445.722212 316.44327 
L 464.862258 316.44327 
L 484.002304 316.44327 
L 503.142349 316.44327 
L 522.282395 316.44327 
L 541.422441 316.44327 
L 560.562487 316.44327 
L 579.702533 316.44327 
L 598.842578 316.44327 
L 617.982624 316.44327 
L 637.12267 316.44327 
L 656.262716 316.44327 
L 675.402762 316.44327 
L 694.542808 316.44327 
L 713.682853 316.44327 
L 732.822899 316.44327 
L 751.962945 316.44327 
L 771.102991 316.44327 
L 790.243037 316.44327 
L 809.383082 316.44327 
L 828.523128 316.44327 
L 847.663174 316.44327 
L 866.80322 316.44327 
L 885.943266 316.44327 
L 885.943266 290.989599 
L 885.943266 265.535928 
L 885.943266 240.082257 
L 885.943266 214.628586 
L 885.943266 189.174915 
L 885.943266 163.721244 
L 885.943266 138.267573 
L 885.943266 112.813902 
L 885.943266 87.360232 
L 885.943266 61.906561 
L 885.943266 36.45289 
L 885.943266 10.999219 
L 866.80322 10.999219 
L 847.663174 10.999219 
L 828.523128 10.999219 
L 809.383082 10.999219 
L 790.243037 10.999219 
L 771.102991 10.999219 
L 751.962945 10.999219 
L 732.822899 10.999219 
L 713.682853 10.999219 
L 694.542808 10.999219 
L 675.402762 10.999219 
L 656.262716 10.999219 
L 637.12267 10.999219 
L 617.982624 10.999219 
L 598.842578 10.999219 
L 579.702533 10.999219 
L 560.562487 10.999219 
L 541.422441 10.999219 
L 522.282395 10.999219 
L 503.142349 10.999219 
L 484.002304 10.999219 
L 464.862258 10.999219 
L 445.722212 10.999219 
L 426.582166 10.999219 
L 407.44212 10.999219 
L 388.302075 10.999219 
L 383.764366 10.999219 
L 387.089379 36.45289 
L 388.302075 46.638729 
L 395.164564 61.906561 
L 402.274401 87.360232 
L 406.537469 112.813902 
L 407.44212 119.234128 
L 415.658171 138.267573 
L 421.716304 163.721244 
L 425.331681 189.174915 
L 426.582166 200.590488 
L 430.821384 214.628586 
L 435.439749 240.082257 
L 437.674449 265.535928 
L 437.192149 290.989599 
L 431.563237 316.44327 
z
" clip-path="url(#p1ec12e89ab)" style="fill: #3d4d8a"/>
    <path d="M 177.761571 310.482228 
L 185.361654 316.44327 
L 196.901616 316.44327 
L 203.531926 316.44327 
L 196.901616 310.480357 
L 177.761571 291.154921 
L 177.649144 290.989599 
L 158.621525 270.783718 
L 152.945806 265.535928 
L 139.481479 253.422288 
L 128.353977 240.082257 
L 120.341433 232.895134 
L 101.201387 214.824905 
L 101.00126 214.628586 
L 82.061342 195.799944 
L 76.231605 189.174915 
L 62.921296 176.141193 
L 51.985351 163.721244 
L 43.78125 157.064889 
L 43.78125 163.721244 
L 43.78125 186.336548 
L 47.174724 189.174915 
L 62.921296 207.604097 
L 71.601788 214.628586 
L 82.061342 228.755974 
L 101.201387 237.776084 
L 104.313145 240.082257 
L 120.341433 259.031771 
L 127.911998 265.535928 
L 139.481479 279.892522 
L 158.621525 289.14466 
L 160.88713 290.989599 
z
M 273.4618 307.432042 
L 281.22732 316.44327 
L 284.16184 316.44327 
L 273.4618 303.440095 
L 267.003171 290.989599 
L 266.077148 265.535928 
L 257.749427 240.082257 
L 254.321754 234.626362 
L 250.914318 214.628586 
L 251.294943 189.174915 
L 244.091765 163.721244 
L 235.181708 145.126176 
L 233.855601 138.267573 
L 234.543472 112.813902 
L 226.013549 87.360232 
L 216.041662 63.052814 
L 215.825457 61.906561 
L 216.041662 38.882102 
L 216.379889 36.45289 
L 235.181708 18.548108 
L 240.913407 36.45289 
L 246.655546 61.906561 
L 254.321754 83.808222 
L 255.490757 87.360232 
L 261.824963 112.813902 
L 268.492568 138.267573 
L 273.4618 151.595622 
L 277.27692 163.721244 
L 281.772803 189.174915 
L 287.837721 214.628586 
L 292.601846 229.146852 
L 295.908373 240.082257 
L 301.798701 265.535928 
L 306.548012 290.989599 
L 311.024438 316.44327 
L 311.741891 316.44327 
L 314.93136 316.44327 
L 311.741891 297.323324 
L 310.693862 290.989599 
L 305.478654 265.535928 
L 300.322094 240.082257 
L 293.249798 214.628586 
L 292.601846 212.769821 
L 286.614409 189.174915 
L 282.079423 163.721244 
L 275.003027 138.267573 
L 273.4618 133.29982 
L 268.262295 112.813902 
L 262.009926 87.360232 
L 254.455506 61.906561 
L 254.321754 61.302853 
L 249.516229 36.45289 
L 242.038106 10.999219 
L 235.181708 10.999219 
L 216.041662 10.999219 
L 209.421483 10.999219 
L 211.242033 36.45289 
L 212.454179 61.906561 
L 216.041662 79.994809 
L 219.390784 87.360232 
L 228.374428 112.813902 
L 230.832303 138.267573 
L 235.181708 159.776713 
L 237.281523 163.721244 
L 245.73976 189.174915 
L 248.430283 214.628586 
L 252.245675 240.082257 
L 254.321754 244.114694 
L 263.594682 265.535928 
L 264.635213 290.989599 
z
M 426.582166 316.44327 
L 431.563237 316.44327 
L 437.192149 290.989599 
L 437.674449 265.535928 
L 435.439749 240.082257 
L 430.821384 214.628586 
L 426.582166 200.590488 
L 425.331681 189.174915 
L 421.716304 163.721244 
L 415.658171 138.267573 
L 407.44212 119.234128 
L 406.537469 112.813902 
L 402.274401 87.360232 
L 395.164564 61.906561 
L 388.302075 46.638729 
L 387.089379 36.45289 
L 383.764366 10.999219 
L 371.02102 10.999219 
L 377.664766 36.45289 
L 382.505442 61.906561 
L 386.327378 87.360232 
L 388.302075 102.043499 
L 392.580625 112.813902 
L 399.825035 138.267573 
L 404.517767 163.721244 
L 407.44212 186.070542 
L 408.604387 189.174915 
L 415.789958 214.628586 
L 420.196937 240.082257 
L 422.506122 265.535928 
L 422.791479 290.989599 
L 420.901091 316.44327 
z
" clip-path="url(#p1ec12e89ab)" style="fill: #355f8d"/>
    <path d="M 177.761571 291.154921 
L 196.901616 310.480357 
L 203.531926 316.44327 
L 216.041662 316.44327 
L 216.440577 316.44327 
L 216.041662 315.998421 
L 196.901616 294.524746 
L 194.131362 290.989599 
L 177.761571 273.229522 
L 171.79151 265.535928 
L 158.621525 251.732555 
L 148.890076 240.082257 
L 139.481479 230.913779 
L 125.769017 214.628586 
L 120.341433 209.099258 
L 104.442912 189.174915 
L 101.201387 185.895854 
L 83.631922 163.721244 
L 82.061342 162.252278 
L 62.921296 141.16797 
L 60.514833 138.267573 
L 43.78125 121.378271 
L 43.78125 138.267573 
L 43.78125 157.064889 
L 51.985351 163.721244 
L 62.921296 176.141193 
L 76.231605 189.174915 
L 82.061342 195.799944 
L 101.00126 214.628586 
L 101.201387 214.824905 
L 120.341433 232.895134 
L 128.353977 240.082257 
L 139.481479 253.422288 
L 152.945806 265.535928 
L 158.621525 270.783718 
L 177.649144 290.989599 
z
M 273.4618 311.42399 
L 278.008515 316.44327 
L 281.22732 316.44327 
L 273.4618 307.432042 
L 264.635213 290.989599 
L 263.594682 265.535928 
L 254.321754 244.114694 
L 252.245675 240.082257 
L 248.430283 214.628586 
L 245.73976 189.174915 
L 237.281523 163.721244 
L 235.181708 159.776713 
L 230.832303 138.267573 
L 228.374428 112.813902 
L 219.390784 87.360232 
L 216.041662 79.994809 
L 212.454179 61.906561 
L 211.242033 36.45289 
L 209.421483 10.999219 
L 196.901616 10.999219 
L 195.969802 10.999219 
L 196.901616 15.564373 
L 205.586789 36.45289 
L 208.702105 61.906561 
L 213.797809 87.360232 
L 216.041662 100.616458 
L 220.793963 112.813902 
L 227.506358 138.267573 
L 232.361527 163.721244 
L 235.181708 178.881869 
L 239.06653 189.174915 
L 245.745576 214.628586 
L 248.407657 240.082257 
L 254.321754 250.937726 
L 260.911808 265.535928 
L 262.085594 290.989599 
z
M 311.741891 297.323324 
L 314.93136 316.44327 
L 318.428947 316.44327 
L 314.608866 290.989599 
L 311.741891 280.14024 
L 308.791605 265.535928 
L 304.217984 240.082257 
L 298.420266 214.628586 
L 292.601846 196.565108 
L 290.839792 189.174915 
L 286.275005 163.721244 
L 280.905063 138.267573 
L 273.760503 112.813902 
L 273.4618 112.089675 
L 267.458036 87.360232 
L 261.668784 61.906561 
L 256.966987 36.45289 
L 254.321754 29.560674 
L 249.211175 10.999219 
L 242.038106 10.999219 
L 249.516229 36.45289 
L 254.321754 61.302853 
L 254.455506 61.906561 
L 262.009926 87.360232 
L 268.262295 112.813902 
L 273.4618 133.29982 
L 275.003027 138.267573 
L 282.079423 163.721244 
L 286.614409 189.174915 
L 292.601846 212.769821 
L 293.249798 214.628586 
L 300.322094 240.082257 
L 305.478654 265.535928 
L 310.693862 290.989599 
z
M 422.791479 290.989599 
L 422.506122 265.535928 
L 420.196937 240.082257 
L 415.789958 214.628586 
L 408.604387 189.174915 
L 407.44212 186.070542 
L 404.517767 163.721244 
L 399.825035 138.267573 
L 392.580625 112.813902 
L 388.302075 102.043499 
L 386.327378 87.360232 
L 382.505442 61.906561 
L 377.664766 36.45289 
L 371.02102 10.999219 
L 369.162029 10.999219 
L 363.0971 10.999219 
L 367.291816 36.45289 
L 369.162029 48.545903 
L 373.119811 61.906561 
L 379.161023 87.360232 
L 383.813651 112.813902 
L 387.630244 138.267573 
L 388.302075 142.984216 
L 395.259204 163.721244 
L 400.978038 189.174915 
L 404.772629 214.628586 
L 407.381977 240.082257 
L 407.44212 240.883011 
L 412.572607 265.535928 
L 414.266897 290.989599 
L 412.273436 316.44327 
L 420.901091 316.44327 
z
" clip-path="url(#p1ec12e89ab)" style="fill: #2d708e"/>
    <path d="M 196.901616 294.524746 
L 216.041662 315.998421 
L 216.440577 316.44327 
L 222.888741 316.44327 
L 216.041662 308.015471 
L 203.187601 290.989599 
L 196.901616 283.843155 
L 183.07069 265.535928 
L 177.761571 259.716467 
L 162.777297 240.082257 
L 158.621525 235.376976 
L 142.292472 214.628586 
L 139.481479 211.691871 
L 122.651474 189.174915 
L 120.341433 186.730842 
L 103.351775 163.721244 
L 101.201387 161.403885 
L 83.389471 138.267573 
L 82.061342 136.875519 
L 63.375337 112.813902 
L 62.921296 112.277543 
L 44.11098 87.360232 
L 43.78125 87.034289 
L 43.78125 87.360232 
L 43.78125 112.813902 
L 43.78125 121.378271 
L 60.514833 138.267573 
L 62.921296 141.16797 
L 82.061342 162.252278 
L 83.631922 163.721244 
L 101.201387 185.895854 
L 104.442912 189.174915 
L 120.341433 209.099258 
L 125.769017 214.628586 
L 139.481479 230.913779 
L 148.890076 240.082257 
L 158.621525 251.732555 
L 171.79151 265.535928 
L 177.761571 273.229522 
L 194.131362 290.989599 
z
M 273.4618 315.415937 
L 274.444377 316.44327 
L 278.008515 316.44327 
L 273.4618 311.42399 
L 262.085594 290.989599 
L 260.911808 265.535928 
L 254.321754 250.937726 
L 248.407657 240.082257 
L 245.745576 214.628586 
L 239.06653 189.174915 
L 235.181708 178.881869 
L 232.361527 163.721244 
L 227.506358 138.267573 
L 220.793963 112.813902 
L 216.041662 100.616458 
L 213.797809 87.360232 
L 208.702105 61.906561 
L 205.586789 36.45289 
L 196.901616 15.564373 
L 195.969802 10.999219 
L 192.285662 10.999219 
L 196.901616 32.411444 
L 198.768484 36.45289 
L 204.472126 61.906561 
L 209.41455 87.360232 
L 213.293196 112.813902 
L 216.041662 118.237802 
L 223.810361 138.267573 
L 228.068258 163.721244 
L 231.759609 189.174915 
L 235.181708 193.85459 
L 242.824904 214.628586 
L 244.068092 240.082257 
L 254.321754 257.760759 
L 257.993306 265.535928 
L 259.32411 290.989599 
z
M 318.188262 290.989599 
L 311.844667 265.535928 
L 311.741891 265.118839 
L 307.704893 240.082257 
L 302.893858 214.628586 
L 296.195387 189.174915 
L 292.601846 178.62152 
L 289.999998 163.721244 
L 285.915695 138.267573 
L 280.730659 112.813902 
L 273.4618 93.203562 
L 272.137861 87.360232 
L 267.592753 61.906561 
L 264.133975 36.45289 
L 256.052271 10.999219 
L 254.321754 10.999219 
L 249.211175 10.999219 
L 254.321754 29.560674 
L 256.966987 36.45289 
L 261.668784 61.906561 
L 267.458036 87.360232 
L 273.4618 112.089675 
L 273.760503 112.813902 
L 280.905063 138.267573 
L 286.275005 163.721244 
L 290.839792 189.174915 
L 292.601846 196.565108 
L 298.420266 214.628586 
L 304.217984 240.082257 
L 308.791605 265.535928 
L 311.741891 280.14024 
L 314.608866 290.989599 
L 318.428947 316.44327 
L 321.593384 316.44327 
z
M 407.44212 316.44327 
L 412.273436 316.44327 
L 414.266897 290.989599 
L 412.572607 265.535928 
L 407.44212 240.883011 
L 407.381977 240.082257 
L 404.772629 214.628586 
L 400.978038 189.174915 
L 395.259204 163.721244 
L 388.302075 142.984216 
L 387.630244 138.267573 
L 383.813651 112.813902 
L 379.161023 87.360232 
L 373.119811 61.906561 
L 369.162029 48.545903 
L 367.291816 36.45289 
L 363.0971 10.999219 
L 354.559045 10.999219 
L 360.458039 36.45289 
L 365.342853 61.906561 
L 369.162029 84.598925 
L 370.01328 87.360232 
L 376.886721 112.813902 
L 382.123971 138.267573 
L 386.357373 163.721244 
L 388.302075 176.643928 
L 392.438756 189.174915 
L 398.552942 214.628586 
L 402.531916 240.082257 
L 405.02734 265.535928 
L 406.153917 290.989599 
L 405.81153 316.44327 
z
" clip-path="url(#p1ec12e89ab)" style="fill: #27808e"/>
    <path d="M 216.041662 308.015471 
L 222.888741 316.44327 
L 228.28722 316.44327 
L 216.041662 300.032521 
L 209.834379 290.989599 
L 196.901616 274.662671 
L 190.720194 265.535928 
L 177.761571 249.516005 
L 171.392963 240.082257 
L 158.621525 223.531236 
L 152.565921 214.628586 
L 139.481479 198.576902 
L 133.451851 189.174915 
L 120.341433 172.75508 
L 114.659655 163.721244 
L 101.201387 146.4151 
L 95.95174 138.267573 
L 82.061342 120.55437 
L 77.112009 112.813902 
L 62.921296 92.047332 
L 60.102879 87.360232 
L 43.78125 66.633242 
L 43.78125 87.034289 
L 44.11098 87.360232 
L 62.921296 112.277543 
L 63.375337 112.813902 
L 82.061342 136.875519 
L 83.389471 138.267573 
L 101.201387 161.403885 
L 103.351775 163.721244 
L 120.341433 186.730842 
L 122.651474 189.174915 
L 139.481479 211.691871 
L 142.292472 214.628586 
L 158.621525 235.376976 
L 162.777297 240.082257 
L 177.761571 259.716467 
L 183.07069 265.535928 
L 196.901616 283.843155 
L 203.187601 290.989599 
z
M 273.4618 316.44327 
L 274.444377 316.44327 
L 273.4618 315.415937 
L 259.32411 290.989599 
L 257.993306 265.535928 
L 254.321754 257.760759 
L 244.068092 240.082257 
L 242.824904 214.628586 
L 235.181708 193.85459 
L 231.759609 189.174915 
L 228.068258 163.721244 
L 223.810361 138.267573 
L 216.041662 118.237802 
L 213.293196 112.813902 
L 209.41455 87.360232 
L 204.472126 61.906561 
L 198.768484 36.45289 
L 196.901616 32.411444 
L 192.285662 10.999219 
L 188.141849 10.999219 
L 191.884923 36.45289 
L 196.901616 51.795264 
L 199.624482 61.906561 
L 204.364428 87.360232 
L 206.712195 112.813902 
L 216.041662 129.540163 
L 219.651538 138.267573 
L 223.137272 163.721244 
L 223.704636 189.174915 
L 235.181708 203.142164 
L 239.622755 214.628586 
L 239.075911 240.082257 
L 254.321754 264.583792 
L 254.793764 265.535928 
L 256.312332 290.989599 
L 266.721959 316.44327 
z
M 321.419504 290.989599 
L 316.285034 265.535928 
L 311.741891 245.810186 
L 310.860587 240.082257 
L 306.836306 214.628586 
L 301.932597 189.174915 
L 294.504673 163.721244 
L 292.601846 156.556224 
L 290.269188 138.267573 
L 286.489853 112.813902 
L 279.90696 87.360232 
L 273.4618 67.237112 
L 272.619173 61.906561 
L 270.026727 36.45289 
L 266.096232 10.999219 
L 256.052271 10.999219 
L 264.133975 36.45289 
L 267.592753 61.906561 
L 272.137861 87.360232 
L 273.4618 93.203562 
L 280.730659 112.813902 
L 285.915695 138.267573 
L 289.999998 163.721244 
L 292.601846 178.62152 
L 296.195387 189.174915 
L 302.893858 214.628586 
L 307.704893 240.082257 
L 311.741891 265.118839 
L 311.844667 265.535928 
L 318.188262 290.989599 
L 321.593384 316.44327 
L 324.482653 316.44327 
z
M 406.153917 290.989599 
L 405.02734 265.535928 
L 402.531916 240.082257 
L 398.552942 214.628586 
L 392.438756 189.174915 
L 388.302075 176.643928 
L 386.357373 163.721244 
L 382.123971 138.267573 
L 376.886721 112.813902 
L 370.01328 87.360232 
L 369.162029 84.598925 
L 365.342853 61.906561 
L 360.458039 36.45289 
L 354.559045 10.999219 
L 350.021983 10.999219 
L 346.359667 10.999219 
L 350.021983 30.281561 
L 351.846468 36.45289 
L 358.517706 61.906561 
L 363.955673 87.360232 
L 368.625198 112.813902 
L 369.162029 115.790777 
L 375.521264 138.267573 
L 381.102254 163.721244 
L 385.608689 189.174915 
L 388.302075 206.343679 
L 390.89575 214.628586 
L 396.85155 240.082257 
L 400.480151 265.535928 
L 402.345762 290.989599 
L 402.584982 316.44327 
L 405.81153 316.44327 
z
" clip-path="url(#p1ec12e89ab)" style="fill: #21918c"/>
    <path d="M 216.041662 300.032521 
L 228.28722 316.44327 
L 232.930397 316.44327 
L 216.041662 292.049571 
L 215.371237 290.989599 
L 196.987209 265.535928 
L 196.901616 265.487617 
L 178.372711 240.082257 
L 177.761571 239.282104 
L 161.038684 214.628586 
L 158.621525 211.587384 
L 142.777928 189.174915 
L 139.481479 185.386477 
L 124.683792 163.721244 
L 120.341433 158.199675 
L 107.401489 138.267573 
L 101.201387 130.980407 
L 89.373117 112.813902 
L 82.061342 103.834054 
L 72.778375 87.360232 
L 62.921296 75.603911 
L 53.991929 61.906561 
L 43.78125 47.717707 
L 43.78125 61.906561 
L 43.78125 66.633242 
L 60.102879 87.360232 
L 62.921296 92.047332 
L 77.112009 112.813902 
L 82.061342 120.55437 
L 95.95174 138.267573 
L 101.201387 146.4151 
L 114.659655 163.721244 
L 120.341433 172.75508 
L 133.451851 189.174915 
L 139.481479 198.576902 
L 152.565921 214.628586 
L 158.621525 223.531236 
L 171.392963 240.082257 
L 177.761571 249.516005 
L 190.720194 265.535928 
L 196.901616 274.662671 
L 209.834379 290.989599 
z
M 254.321754 314.680268 
L 254.739908 316.44327 
L 266.721959 316.44327 
L 256.312332 290.989599 
L 254.793764 265.535928 
L 254.321754 264.583792 
L 239.075911 240.082257 
L 239.622755 214.628586 
L 235.181708 203.142164 
L 223.704636 189.174915 
L 223.137272 163.721244 
L 219.651538 138.267573 
L 216.041662 129.540163 
L 206.712195 112.813902 
L 204.364428 87.360232 
L 199.624482 61.906561 
L 196.901616 51.795264 
L 191.884923 36.45289 
L 188.141849 10.999219 
L 183.407082 10.999219 
L 183.867709 36.45289 
L 188.20718 61.906561 
L 177.761571 78.30818 
L 174.542356 87.360232 
L 166.437442 112.813902 
L 177.761571 123.538944 
L 193.187122 112.813902 
L 189.134782 87.360232 
L 196.901616 79.434189 
L 198.407483 87.360232 
L 198.498936 112.813902 
L 196.901616 123.060048 
L 192.950118 138.267573 
L 178.935557 163.721244 
L 196.901616 178.790528 
L 210.030062 189.174915 
L 212.681364 214.628586 
L 216.041662 239.074809 
L 218.125855 240.082257 
L 235.181708 248.129824 
L 245.05165 265.535928 
L 252.328312 290.989599 
z
M 231.279719 214.628586 
L 235.181708 212.429738 
L 236.079031 214.628586 
L 235.181708 225.496041 
z
M 212.131081 163.721244 
L 216.041662 151.756097 
L 217.345506 163.721244 
L 216.041662 175.12216 
z
M 324.364357 290.989599 
L 320.201665 265.535928 
L 315.373519 240.082257 
L 311.741891 224.171243 
L 310.360454 214.628586 
L 306.824009 189.174915 
L 301.650233 163.721244 
L 295.958659 138.267573 
L 292.601846 122.927589 
L 291.397226 112.813902 
L 287.463283 87.360232 
L 283.272677 61.906561 
L 279.037693 36.45289 
L 274.357667 10.999219 
L 273.4618 10.999219 
L 266.096232 10.999219 
L 270.026727 36.45289 
L 272.619173 61.906561 
L 273.4618 67.237112 
L 279.90696 87.360232 
L 286.489853 112.813902 
L 290.269188 138.267573 
L 292.601846 156.556224 
L 294.504673 163.721244 
L 301.932597 189.174915 
L 306.836306 214.628586 
L 310.860587 240.082257 
L 311.741891 245.810186 
L 316.285034 265.535928 
L 321.419504 290.989599 
L 324.482653 316.44327 
L 327.140806 316.44327 
z
M 402.345762 290.989599 
L 400.480151 265.535928 
L 396.85155 240.082257 
L 390.89575 214.628586 
L 388.302075 206.343679 
L 385.608689 189.174915 
L 381.102254 163.721244 
L 375.521264 138.267573 
L 369.162029 115.790777 
L 368.625198 112.813902 
L 363.955673 87.360232 
L 358.517706 61.906561 
L 351.846468 36.45289 
L 350.021983 30.281561 
L 346.359667 10.999219 
L 338.675703 10.999219 
L 344.5718 36.45289 
L 349.956071 61.906561 
L 350.021983 62.211948 
L 357.186035 87.360232 
L 363.022192 112.813902 
L 368.093507 138.267573 
L 369.162029 143.716038 
L 374.857744 163.721244 
L 380.574018 189.174915 
L 385.20362 214.628586 
L 388.302075 234.12487 
L 389.996654 240.082257 
L 395.211065 265.535928 
L 398.044348 290.989599 
L 399.011348 316.44327 
L 402.584982 316.44327 
z
M 158.621525 71.099459 
L 170.263346 61.906561 
L 165.343225 36.45289 
L 158.621525 31.820295 
L 146.568303 10.999219 
L 139.481479 10.999219 
L 132.997012 10.999219 
L 125.000067 36.45289 
L 139.481479 51.57413 
L 149.960757 61.906561 
z
" clip-path="url(#p1ec12e89ab)" style="fill: #1fa188"/>
    <path d="M 216.041662 292.049571 
L 232.930397 316.44327 
L 235.181708 316.44327 
L 254.321754 316.44327 
L 254.739908 316.44327 
L 254.321754 314.680268 
L 252.328312 290.989599 
L 245.05165 265.535928 
L 235.181708 248.129824 
L 218.125855 240.082257 
L 216.041662 239.074809 
L 212.681364 214.628586 
L 210.030062 189.174915 
L 196.901616 178.790528 
L 178.935557 163.721244 
L 192.950118 138.267573 
L 196.901616 123.060048 
L 198.498936 112.813902 
L 198.407483 87.360232 
L 196.901616 79.434189 
L 189.134782 87.360232 
L 193.187122 112.813902 
L 177.761571 123.538944 
L 166.437442 112.813902 
L 174.542356 87.360232 
L 177.761571 78.30818 
L 188.20718 61.906561 
L 183.867709 36.45289 
L 183.407082 10.999219 
L 177.884319 10.999219 
L 177.761571 12.280527 
L 158.621525 13.194011 
L 157.538331 10.999219 
L 146.568303 10.999219 
L 158.621525 31.820295 
L 165.343225 36.45289 
L 170.263346 61.906561 
L 158.621525 71.099459 
L 149.960757 61.906561 
L 139.481479 51.57413 
L 125.000067 36.45289 
L 132.997012 10.999219 
L 120.341433 10.999219 
L 101.201387 10.999219 
L 94.992426 10.999219 
L 101.201387 19.697761 
L 115.527387 36.45289 
L 119.69023 61.906561 
L 120.341433 62.87166 
L 132.868513 87.360232 
L 139.481479 96.870639 
L 153.787727 112.813902 
L 158.621525 130.075346 
L 170.546528 138.267573 
L 170.154567 163.721244 
L 177.761571 174.058644 
L 192.330365 189.174915 
L 196.901616 196.416792 
L 207.193901 214.628586 
L 211.050779 240.082257 
L 216.041662 254.347873 
L 230.651172 265.535928 
L 235.181708 269.869149 
L 246.545998 290.989599 
L 235.181708 310.517497 
L 224.307846 290.989599 
L 216.041662 277.43812 
L 209.092729 265.535928 
L 196.901616 257.234763 
L 185.586734 240.082257 
L 177.761571 228.63677 
L 169.304289 214.628586 
L 158.621525 199.346756 
L 152.344682 189.174915 
L 139.481479 172.004978 
L 134.569234 163.721244 
L 120.341433 142.584686 
L 117.934718 138.267573 
L 101.201387 115.014667 
L 99.973216 112.813902 
L 82.587463 87.360232 
L 82.061342 86.686956 
L 64.789259 61.906561 
L 62.921296 59.500622 
L 50.33037 36.45289 
L 43.78125 28.32235 
L 43.78125 36.45289 
L 43.78125 47.717707 
L 53.991929 61.906561 
L 62.921296 75.603911 
L 72.778375 87.360232 
L 82.061342 103.834054 
L 89.373117 112.813902 
L 101.201387 130.980407 
L 107.401489 138.267573 
L 120.341433 158.199675 
L 124.683792 163.721244 
L 139.481479 185.386477 
L 142.777928 189.174915 
L 158.621525 211.587384 
L 161.038684 214.628586 
L 177.761571 239.282104 
L 178.372711 240.082257 
L 196.901616 265.487617 
L 196.987209 265.535928 
L 215.371237 290.989599 
z
M 327.069479 290.989599 
L 323.705174 265.535928 
L 319.936886 240.082257 
L 315.291654 214.628586 
L 311.741891 194.832282 
L 311.087261 189.174915 
L 307.52851 163.721244 
L 302.989406 138.267573 
L 298.966849 112.813902 
L 294.594088 87.360232 
L 292.601846 66.162465 
L 292.320163 61.906561 
L 291.803144 36.45289 
L 288.798533 10.999219 
L 274.357667 10.999219 
L 279.037693 36.45289 
L 283.272677 61.906561 
L 287.463283 87.360232 
L 291.397226 112.813902 
L 292.601846 122.927589 
L 295.958659 138.267573 
L 301.650233 163.721244 
L 306.824009 189.174915 
L 310.360454 214.628586 
L 311.741891 224.171243 
L 315.373519 240.082257 
L 320.201665 265.535928 
L 324.364357 290.989599 
L 327.140806 316.44327 
L 329.602093 316.44327 
z
M 398.044348 290.989599 
L 395.211065 265.535928 
L 389.996654 240.082257 
L 388.302075 234.12487 
L 385.20362 214.628586 
L 380.574018 189.174915 
L 374.857744 163.721244 
L 369.162029 143.716038 
L 368.093507 138.267573 
L 363.022192 112.813902 
L 357.186035 87.360232 
L 350.021983 62.211948 
L 349.956071 61.906561 
L 344.5718 36.45289 
L 338.675703 10.999219 
L 330.881937 10.999219 
L 328.917443 10.999219 
L 330.881937 17.67057 
L 336.422165 36.45289 
L 342.934795 61.906561 
L 349.040351 87.360232 
L 350.021983 91.344232 
L 356.279758 112.813902 
L 362.400593 138.267573 
L 367.878161 163.721244 
L 369.162029 169.689225 
L 374.638575 189.174915 
L 380.284745 214.628586 
L 384.888072 240.082257 
L 388.302075 262.843189 
L 388.946807 265.535928 
L 393.102611 290.989599 
L 395.006851 316.44327 
L 399.011348 316.44327 
z
M 235.181708 225.496041 
L 236.079031 214.628586 
L 235.181708 212.429738 
L 231.279719 214.628586 
z
M 216.041662 175.12216 
L 217.345506 163.721244 
L 216.041662 151.756097 
L 212.131081 163.721244 
z
" clip-path="url(#p1ec12e89ab)" style="fill: #2ab07f"/>
    <path d="M 235.181708 310.517497 
L 246.545998 290.989599 
L 235.181708 269.869149 
L 230.651172 265.535928 
L 216.041662 254.347873 
L 211.050779 240.082257 
L 207.193901 214.628586 
L 196.901616 196.416792 
L 192.330365 189.174915 
L 177.761571 174.058644 
L 170.154567 163.721244 
L 170.546528 138.267573 
L 158.621525 130.075346 
L 153.787727 112.813902 
L 139.481479 96.870639 
L 132.868513 87.360232 
L 120.341433 62.87166 
L 119.69023 61.906561 
L 115.527387 36.45289 
L 101.201387 19.697761 
L 94.992426 10.999219 
L 87.095727 10.999219 
L 82.061342 28.496772 
L 63.374396 36.45289 
L 62.921296 36.551042 
L 62.876629 36.45289 
L 46.724921 10.999219 
L 43.78125 10.999219 
L 43.78125 28.32235 
L 50.33037 36.45289 
L 62.921296 59.500622 
L 64.789259 61.906561 
L 82.061342 86.686956 
L 82.587463 87.360232 
L 99.973216 112.813902 
L 101.201387 115.014667 
L 117.934718 138.267573 
L 120.341433 142.584686 
L 134.569234 163.721244 
L 139.481479 172.004978 
L 152.344682 189.174915 
L 158.621525 199.346756 
L 169.304289 214.628586 
L 177.761571 228.63677 
L 185.586734 240.082257 
L 196.901616 257.234763 
L 209.092729 265.535928 
L 216.041662 277.43812 
L 224.307846 290.989599 
z
M 231.828679 290.989599 
L 235.181708 283.726464 
L 239.541907 290.989599 
L 235.181708 297.70507 
z
M 191.511205 240.082257 
L 177.761571 217.991437 
L 175.918793 214.628586 
L 165.321872 189.174915 
L 177.761571 184.702667 
L 182.773194 189.174915 
L 196.901616 208.691958 
L 200.61825 214.628586 
L 204.985007 240.082257 
L 196.901616 248.981909 
z
M 155.259217 163.721244 
L 139.481479 158.024497 
L 128.429611 138.267573 
L 120.341433 128.241108 
L 110.924503 112.813902 
L 101.201387 98.742777 
L 94.759245 87.360232 
L 82.061342 67.728322 
L 78.735499 61.906561 
L 82.061342 47.575402 
L 87.203343 36.45289 
L 101.201387 28.654318 
L 108.638915 36.45289 
L 104.735825 61.906561 
L 120.341433 80.546458 
L 124.325898 87.360232 
L 139.481479 106.66314 
L 145.748778 112.813902 
L 153.41505 138.267573 
L 158.621525 160.134826 
L 159.931247 163.721244 
L 158.621525 173.605528 
z
M 330.881937 316.44327 
L 333.657761 316.44327 
L 330.881937 305.044795 
L 329.57098 290.989599 
L 326.874457 265.535928 
L 323.948867 240.082257 
L 320.657706 214.628586 
L 317.623252 189.174915 
L 313.389885 163.721244 
L 311.741891 158.049323 
L 308.789854 138.267573 
L 306.073447 112.813902 
L 304.000012 87.360232 
L 303.49915 61.906561 
L 304.693607 36.45289 
L 306.817648 10.999219 
L 292.601846 10.999219 
L 288.798533 10.999219 
L 291.803144 36.45289 
L 292.320163 61.906561 
L 292.601846 66.162465 
L 294.594088 87.360232 
L 298.966849 112.813902 
L 302.989406 138.267573 
L 307.52851 163.721244 
L 311.087261 189.174915 
L 311.741891 194.832282 
L 315.291654 214.628586 
L 319.936886 240.082257 
L 323.705174 265.535928 
L 327.069479 290.989599 
L 329.602093 316.44327 
z
M 388.302075 297.961149 
L 390.453166 316.44327 
L 395.006851 316.44327 
L 393.102611 290.989599 
L 388.946807 265.535928 
L 388.302075 262.843189 
L 384.888072 240.082257 
L 380.284745 214.628586 
L 374.638575 189.174915 
L 369.162029 169.689225 
L 367.878161 163.721244 
L 362.400593 138.267573 
L 356.279758 112.813902 
L 350.021983 91.344232 
L 349.040351 87.360232 
L 342.934795 61.906561 
L 336.422165 36.45289 
L 330.881937 17.67057 
L 328.917443 10.999219 
L 316.575202 10.999219 
L 324.750855 36.45289 
L 330.881937 51.829319 
L 334.022667 61.906561 
L 341.135662 87.360232 
L 348.073029 112.813902 
L 350.021983 119.502665 
L 355.527393 138.267573 
L 361.865632 163.721244 
L 367.831647 189.174915 
L 369.162029 194.815323 
L 374.509692 214.628586 
L 379.946389 240.082257 
L 384.28215 265.535928 
L 387.617186 290.989599 
z
M 158.621525 13.194011 
L 177.761571 12.280527 
L 177.884319 10.999219 
L 177.761571 10.999219 
L 158.621525 10.999219 
L 157.538331 10.999219 
z
" clip-path="url(#p1ec12e89ab)" style="fill: #44bf70"/>
    <path d="M 235.181708 297.70507 
L 239.541907 290.989599 
L 235.181708 283.726464 
L 231.828679 290.989599 
z
M 330.881937 305.044795 
L 333.657761 316.44327 
L 339.104202 316.44327 
L 334.365673 290.989599 
L 330.881937 277.723175 
L 329.767765 265.535928 
L 327.528458 240.082257 
L 325.27689 214.628586 
L 323.52465 189.174915 
L 321.87687 163.721244 
L 318.418368 138.267573 
L 313.13949 112.813902 
L 311.741891 103.972091 
L 311.323446 87.360232 
L 311.741891 69.876376 
L 328.641315 87.360232 
L 330.881937 87.839465 
L 338.291739 112.813902 
L 346.297266 138.267573 
L 350.021983 148.344991 
L 354.520447 163.721244 
L 361.10773 189.174915 
L 367.63664 214.628586 
L 369.162029 220.464421 
L 374.13985 240.082257 
L 379.204145 265.535928 
L 383.014731 290.989599 
L 385.751965 316.44327 
L 388.302075 316.44327 
L 390.453166 316.44327 
L 388.302075 297.961149 
L 387.617186 290.989599 
L 384.28215 265.535928 
L 379.946389 240.082257 
L 374.509692 214.628586 
L 369.162029 194.815323 
L 367.831647 189.174915 
L 361.865632 163.721244 
L 355.527393 138.267573 
L 350.021983 119.502665 
L 348.073029 112.813902 
L 341.135662 87.360232 
L 334.022667 61.906561 
L 330.881937 51.829319 
L 324.750855 36.45289 
L 316.575202 10.999219 
L 311.741891 10.999219 
L 306.817648 10.999219 
L 304.693607 36.45289 
L 303.49915 61.906561 
L 304.000012 87.360232 
L 306.073447 112.813902 
L 308.789854 138.267573 
L 311.741891 158.049323 
L 313.389885 163.721244 
L 317.623252 189.174915 
L 320.657706 214.628586 
L 323.948867 240.082257 
L 326.874457 265.535928 
L 329.57098 290.989599 
z
M 196.901616 248.981909 
L 204.985007 240.082257 
L 200.61825 214.628586 
L 196.901616 208.691958 
L 182.773194 189.174915 
L 177.761571 184.702667 
L 165.321872 189.174915 
L 175.918793 214.628586 
L 177.761571 217.991437 
L 191.511205 240.082257 
z
M 196.537985 240.082257 
L 196.901616 236.72809 
L 197.560094 240.082257 
L 196.901616 240.729054 
z
M 158.621525 173.605528 
L 159.931247 163.721244 
L 158.621525 160.134826 
L 153.41505 138.267573 
L 145.748778 112.813902 
L 139.481479 106.66314 
L 124.325898 87.360232 
L 120.341433 80.546458 
L 104.735825 61.906561 
L 108.638915 36.45289 
L 101.201387 28.654318 
L 87.203343 36.45289 
L 82.061342 47.575402 
L 78.735499 61.906561 
L 82.061342 67.728322 
L 94.759245 87.360232 
L 101.201387 98.742777 
L 110.924503 112.813902 
L 120.341433 128.241108 
L 128.429611 138.267573 
L 139.481479 158.024497 
L 155.259217 163.721244 
z
M 137.113195 138.267573 
L 139.481479 126.471614 
L 143.443392 138.267573 
L 139.481479 143.070683 
z
M 119.49649 112.813902 
L 120.341433 108.852708 
L 125.892186 112.813902 
L 120.341433 114.383357 
z
M 62.921296 36.551042 
L 63.374396 36.45289 
L 82.061342 28.496772 
L 87.095727 10.999219 
L 82.061342 10.999219 
L 70.853196 10.999219 
L 62.921296 16.139096 
L 60.235544 10.999219 
L 46.724921 10.999219 
L 62.876629 36.45289 
z
" clip-path="url(#p1ec12e89ab)" style="fill: #67cc5c"/>
    <path d="M 341.072179 290.989599 
L 337.09727 265.535928 
L 330.881937 241.684838 
L 330.759859 240.082257 
L 329.331934 214.628586 
L 328.534821 189.174915 
L 328.632113 163.721244 
L 330.383586 138.267573 
L 330.881937 135.537682 
L 331.802354 138.267573 
L 340.639275 163.721244 
L 350.021983 180.217969 
L 352.67023 189.174915 
L 359.521315 214.628586 
L 366.673813 240.082257 
L 369.162029 248.195722 
L 373.208337 265.535928 
L 377.671254 290.989599 
L 380.772997 316.44327 
L 385.751965 316.44327 
L 383.014731 290.989599 
L 379.204145 265.535928 
L 374.13985 240.082257 
L 369.162029 220.464421 
L 367.63664 214.628586 
L 361.10773 189.174915 
L 354.520447 163.721244 
L 350.021983 148.344991 
L 346.297266 138.267573 
L 338.291739 112.813902 
L 330.881937 87.839465 
L 328.641315 87.360232 
L 311.741891 69.876376 
L 311.323446 87.360232 
L 311.741891 103.972091 
L 313.13949 112.813902 
L 318.418368 138.267573 
L 321.87687 163.721244 
L 323.52465 189.174915 
L 325.27689 214.628586 
L 327.528458 240.082257 
L 329.767765 265.535928 
L 330.881937 277.723175 
L 334.365673 290.989599 
L 339.104202 316.44327 
L 343.782795 316.44327 
z
M 196.901616 240.729054 
L 197.560094 240.082257 
L 196.901616 236.72809 
L 196.537985 240.082257 
z
M 139.481479 143.070683 
L 143.443392 138.267573 
L 139.481479 126.471614 
L 137.113195 138.267573 
z
M 120.341433 114.383357 
L 125.892186 112.813902 
L 120.341433 108.852708 
L 119.49649 112.813902 
z
M 62.921296 16.139096 
L 70.853196 10.999219 
L 62.921296 10.999219 
L 60.235544 10.999219 
z
" clip-path="url(#p1ec12e89ab)" style="fill: #90d743"/>
    <path d="M 346.650378 290.989599 
L 345.523783 265.535928 
L 345.65687 240.082257 
L 350.021983 220.024809 
L 355.453697 240.082257 
L 362.874425 265.535928 
L 369.162029 280.487337 
L 371.301476 290.989599 
L 374.914875 316.44327 
L 380.772997 316.44327 
L 377.671254 290.989599 
L 373.208337 265.535928 
L 369.162029 248.195722 
L 366.673813 240.082257 
L 359.521315 214.628586 
L 352.67023 189.174915 
L 350.021983 180.217969 
L 340.639275 163.721244 
L 331.802354 138.267573 
L 330.881937 135.537682 
L 330.383586 138.267573 
L 328.632113 163.721244 
L 328.534821 189.174915 
L 329.331934 214.628586 
L 330.759859 240.082257 
L 330.881937 241.684838 
L 337.09727 265.535928 
L 341.072179 290.989599 
L 343.782795 316.44327 
L 347.883534 316.44327 
z
" clip-path="url(#p1ec12e89ab)" style="fill: #bddf26"/>
    <path d="M 350.021983 316.44327 
L 369.162029 316.44327 
L 374.914875 316.44327 
L 371.301476 290.989599 
L 369.162029 280.487337 
L 362.874425 265.535928 
L 355.453697 240.082257 
L 350.021983 220.024809 
L 345.65687 240.082257 
L 345.523783 265.535928 
L 346.650378 290.989599 
L 347.883534 316.44327 
z
" clip-path="url(#p1ec12e89ab)" style="fill: #eae51a"/>
   </g>
   <g id="PathCollection_1">
    <defs>
     <path id="mdc0741d33a" d="M -3 3 
L 3 -3 
M -3 -3 
L 3 3 
" style="stroke: #ff0000; stroke-width: 1.5"/>
    </defs>
    <g clip-path="url(#p1ec12e89ab)">
     <use xlink:href="#mdc0741d33a" x="369.162029" y="316.44327" style="fill: #ff0000; stroke: #ff0000; stroke-width: 1.5"/>
     <use xlink:href="#mdc0741d33a" x="350.021983" y="290.989599" style="fill: #ff0000; stroke: #ff0000; stroke-width: 1.5"/>
     <use xlink:href="#mdc0741d33a" x="350.021983" y="265.535928" style="fill: #ff0000; stroke: #ff0000; stroke-width: 1.5"/>
     <use xlink:href="#mdc0741d33a" x="350.021983" y="240.082257" style="fill: #ff0000; stroke: #ff0000; stroke-width: 1.5"/>
     <use xlink:href="#mdc0741d33a" x="350.021983" y="214.628586" style="fill: #ff0000; stroke: #ff0000; stroke-width: 1.5"/>
     <use xlink:href="#mdc0741d33a" x="330.881937" y="189.174915" style="fill: #ff0000; stroke: #ff0000; stroke-width: 1.5"/>
     <use xlink:href="#mdc0741d33a" x="330.881937" y="163.721244" style="fill: #ff0000; stroke: #ff0000; stroke-width: 1.5"/>
     <use xlink:href="#mdc0741d33a" x="330.881937" y="138.267573" style="fill: #ff0000; stroke: #ff0000; stroke-width: 1.5"/>
     <use xlink:href="#mdc0741d33a" x="330.881937" y="112.813902" style="fill: #ff0000; stroke: #ff0000; stroke-width: 1.5"/>
     <use xlink:href="#mdc0741d33a" x="311.741891" y="87.360232" style="fill: #ff0000; stroke: #ff0000; stroke-width: 1.5"/>
     <use xlink:href="#mdc0741d33a" x="311.741891" y="61.906561" style="fill: #ff0000; stroke: #ff0000; stroke-width: 1.5"/>
     <use xlink:href="#mdc0741d33a" x="101.201387" y="36.45289" style="fill: #ff0000; stroke: #ff0000; stroke-width: 1.5"/>
     <use xlink:href="#mdc0741d33a" x="62.921296" y="10.999219" style="fill: #ff0000; stroke: #ff0000; stroke-width: 1.5"/>
    </g>
   </g>
   <g id="matplotlib.axis_1">
    <g id="xtick_1">
     <g id="line2d_1">
      <defs>
       <path id="m38f3b05bbe" d="M 0 0 
L 0 3.5 
" style="stroke: #000000; stroke-width: 0.8"/>
      </defs>
      <g>
       <use xlink:href="#m38f3b05bbe" x="43.78125" y="316.44327" style="stroke: #000000; stroke-width: 0.8"/>
      </g>
     </g>
     <g id="text_1">
      <!-- $\mathdefault{10^{-5}}$ -->
      <g transform="translate(32.03125 331.041707) scale(0.1 -0.1)">
       <defs>
        <path id="DejaVuSans-31" d="M 794 531 
L 1825 531 
L 1825 4091 
L 703 3866 
L 703 4441 
L 1819 4666 
L 2450 4666 
L 2450 531 
L 3481 531 
L 3481 0 
L 794 0 
L 794 531 
z
" transform="scale(0.015625)"/>
        <path id="DejaVuSans-30" d="M 2034 4250 
Q 1547 4250 1301 3770 
Q 1056 3291 1056 2328 
Q 1056 1369 1301 889 
Q 1547 409 2034 409 
Q 2525 409 2770 889 
Q 3016 1369 3016 2328 
Q 3016 3291 2770 3770 
Q 2525 4250 2034 4250 
z
M 2034 4750 
Q 2819 4750 3233 4129 
Q 3647 3509 3647 2328 
Q 3647 1150 3233 529 
Q 2819 -91 2034 -91 
Q 1250 -91 836 529 
Q 422 1150 422 2328 
Q 422 3509 836 4129 
Q 1250 4750 2034 4750 
z
" transform="scale(0.015625)"/>
        <path id="DejaVuSans-2212" d="M 678 2272 
L 4684 2272 
L 4684 1741 
L 678 1741 
L 678 2272 
z
" transform="scale(0.015625)"/>
        <path id="DejaVuSans-35" d="M 691 4666 
L 3169 4666 
L 3169 4134 
L 1269 4134 
L 1269 2991 
Q 1406 3038 1543 3061 
Q 1681 3084 1819 3084 
Q 2600 3084 3056 2656 
Q 3513 2228 3513 1497 
Q 3513 744 3044 326 
Q 2575 -91 1722 -91 
Q 1428 -91 1123 -41 
Q 819 9 494 109 
L 494 744 
Q 775 591 1075 516 
Q 1375 441 1709 441 
Q 2250 441 2565 725 
Q 2881 1009 2881 1497 
Q 2881 1984 2565 2268 
Q 2250 2553 1709 2553 
Q 1456 2553 1204 2497 
Q 953 2441 691 2322 
L 691 4666 
z
" transform="scale(0.015625)"/>
       </defs>
       <use xlink:href="#DejaVuSans-31" transform="translate(0 0.684375)"/>
       <use xlink:href="#DejaVuSans-30" transform="translate(63.623047 0.684375)"/>
       <use xlink:href="#DejaVuSans-2212" transform="translate(128.203125 38.965625) scale(0.7)"/>
       <use xlink:href="#DejaVuSans-35" transform="translate(186.855469 38.965625) scale(0.7)"/>
      </g>
     </g>
    </g>
    <g id="xtick_2">
     <g id="line2d_2">
      <g>
       <use xlink:href="#m38f3b05bbe" x="120.341433" y="316.44327" style="stroke: #000000; stroke-width: 0.8"/>
      </g>
     </g>
     <g id="text_2">
      <!-- $\mathdefault{10^{-4}}$ -->
      <g transform="translate(108.591433 331.041707) scale(0.1 -0.1)">
       <defs>
        <path id="DejaVuSans-34" d="M 2419 4116 
L 825 1625 
L 2419 1625 
L 2419 4116 
z
M 2253 4666 
L 3047 4666 
L 3047 1625 
L 3713 1625 
L 3713 1100 
L 3047 1100 
L 3047 0 
L 2419 0 
L 2419 1100 
L 313 1100 
L 313 1709 
L 2253 4666 
z
" transform="scale(0.015625)"/>
       </defs>
       <use xlink:href="#DejaVuSans-31" transform="translate(0 0.684375)"/>
       <use xlink:href="#DejaVuSans-30" transform="translate(63.623047 0.684375)"/>
       <use xlink:href="#DejaVuSans-2212" transform="translate(128.203125 38.965625) scale(0.7)"/>
       <use xlink:href="#DejaVuSans-34" transform="translate(186.855469 38.965625) scale(0.7)"/>
      </g>
     </g>
    </g>
    <g id="xtick_3">
     <g id="line2d_3">
      <g>
       <use xlink:href="#m38f3b05bbe" x="196.901616" y="316.44327" style="stroke: #000000; stroke-width: 0.8"/>
      </g>
     </g>
     <g id="text_3">
      <!-- $\mathdefault{10^{-3}}$ -->
      <g transform="translate(185.151616 331.041707) scale(0.1 -0.1)">
       <defs>
        <path id="DejaVuSans-33" d="M 2597 2516 
Q 3050 2419 3304 2112 
Q 3559 1806 3559 1356 
Q 3559 666 3084 287 
Q 2609 -91 1734 -91 
Q 1441 -91 1130 -33 
Q 819 25 488 141 
L 488 750 
Q 750 597 1062 519 
Q 1375 441 1716 441 
Q 2309 441 2620 675 
Q 2931 909 2931 1356 
Q 2931 1769 2642 2001 
Q 2353 2234 1838 2234 
L 1294 2234 
L 1294 2753 
L 1863 2753 
Q 2328 2753 2575 2939 
Q 2822 3125 2822 3475 
Q 2822 3834 2567 4026 
Q 2313 4219 1838 4219 
Q 1578 4219 1281 4162 
Q 984 4106 628 3988 
L 628 4550 
Q 988 4650 1302 4700 
Q 1616 4750 1894 4750 
Q 2613 4750 3031 4423 
Q 3450 4097 3450 3541 
Q 3450 3153 3228 2886 
Q 3006 2619 2597 2516 
z
" transform="scale(0.015625)"/>
       </defs>
       <use xlink:href="#DejaVuSans-31" transform="translate(0 0.765625)"/>
       <use xlink:href="#DejaVuSans-30" transform="translate(63.623047 0.765625)"/>
       <use xlink:href="#DejaVuSans-2212" transform="translate(128.203125 39.046875) scale(0.7)"/>
       <use xlink:href="#DejaVuSans-33" transform="translate(186.855469 39.046875) scale(0.7)"/>
      </g>
     </g>
    </g>
    <g id="xtick_4">
     <g id="line2d_4">
      <g>
       <use xlink:href="#m38f3b05bbe" x="273.4618" y="316.44327" style="stroke: #000000; stroke-width: 0.8"/>
      </g>
     </g>
     <g id="text_4">
      <!-- $\mathdefault{10^{-2}}$ -->
      <g transform="translate(261.7118 331.041707) scale(0.1 -0.1)">
       <defs>
        <path id="DejaVuSans-32" d="M 1228 531 
L 3431 531 
L 3431 0 
L 469 0 
L 469 531 
Q 828 903 1448 1529 
Q 2069 2156 2228 2338 
Q 2531 2678 2651 2914 
Q 2772 3150 2772 3378 
Q 2772 3750 2511 3984 
Q 2250 4219 1831 4219 
Q 1534 4219 1204 4116 
Q 875 4013 500 3803 
L 500 4441 
Q 881 4594 1212 4672 
Q 1544 4750 1819 4750 
Q 2544 4750 2975 4387 
Q 3406 4025 3406 3419 
Q 3406 3131 3298 2873 
Q 3191 2616 2906 2266 
Q 2828 2175 2409 1742 
Q 1991 1309 1228 531 
z
" transform="scale(0.015625)"/>
       </defs>
       <use xlink:href="#DejaVuSans-31" transform="translate(0 0.765625)"/>
       <use xlink:href="#DejaVuSans-30" transform="translate(63.623047 0.765625)"/>
       <use xlink:href="#DejaVuSans-2212" transform="translate(128.203125 39.046875) scale(0.7)"/>
       <use xlink:href="#DejaVuSans-32" transform="translate(186.855469 39.046875) scale(0.7)"/>
      </g>
     </g>
    </g>
    <g id="xtick_5">
     <g id="line2d_5">
      <g>
       <use xlink:href="#m38f3b05bbe" x="350.021983" y="316.44327" style="stroke: #000000; stroke-width: 0.8"/>
      </g>
     </g>
     <g id="text_5">
      <!-- $\mathdefault{10^{-1}}$ -->
      <g transform="translate(338.271983 331.041707) scale(0.1 -0.1)">
       <use xlink:href="#DejaVuSans-31" transform="translate(0 0.684375)"/>
       <use xlink:href="#DejaVuSans-30" transform="translate(63.623047 0.684375)"/>
       <use xlink:href="#DejaVuSans-2212" transform="translate(128.203125 38.965625) scale(0.7)"/>
       <use xlink:href="#DejaVuSans-31" transform="translate(186.855469 38.965625) scale(0.7)"/>
      </g>
     </g>
    </g>
    <g id="xtick_6">
     <g id="line2d_6">
      <defs>
       <path id="m360e1f0208" d="M 0 0 
L 0 2 
" style="stroke: #000000; stroke-width: 0.6"/>
      </defs>
      <g>
       <use xlink:href="#m360e1f0208" x="66.828162" y="316.44327" style="stroke: #000000; stroke-width: 0.6"/>
      </g>
     </g>
    </g>
    <g id="xtick_7">
     <g id="line2d_7">
      <g>
       <use xlink:href="#m360e1f0208" x="80.309741" y="316.44327" style="stroke: #000000; stroke-width: 0.6"/>
      </g>
     </g>
    </g>
    <g id="xtick_8">
     <g id="line2d_8">
      <g>
       <use xlink:href="#m360e1f0208" x="89.875073" y="316.44327" style="stroke: #000000; stroke-width: 0.6"/>
      </g>
     </g>
    </g>
    <g id="xtick_9">
     <g id="line2d_9">
      <g>
       <use xlink:href="#m360e1f0208" x="97.294522" y="316.44327" style="stroke: #000000; stroke-width: 0.6"/>
      </g>
     </g>
    </g>
    <g id="xtick_10">
     <g id="line2d_10">
      <g>
       <use xlink:href="#m360e1f0208" x="103.356652" y="316.44327" style="stroke: #000000; stroke-width: 0.6"/>
      </g>
     </g>
    </g>
    <g id="xtick_11">
     <g id="line2d_11">
      <g>
       <use xlink:href="#m360e1f0208" x="108.482111" y="316.44327" style="stroke: #000000; stroke-width: 0.6"/>
      </g>
     </g>
    </g>
    <g id="xtick_12">
     <g id="line2d_12">
      <g>
       <use xlink:href="#m360e1f0208" x="112.921985" y="316.44327" style="stroke: #000000; stroke-width: 0.6"/>
      </g>
     </g>
    </g>
    <g id="xtick_13">
     <g id="line2d_13">
      <g>
       <use xlink:href="#m360e1f0208" x="116.838231" y="316.44327" style="stroke: #000000; stroke-width: 0.6"/>
      </g>
     </g>
    </g>
    <g id="xtick_14">
     <g id="line2d_14">
      <g>
       <use xlink:href="#m360e1f0208" x="143.388345" y="316.44327" style="stroke: #000000; stroke-width: 0.6"/>
      </g>
     </g>
    </g>
    <g id="xtick_15">
     <g id="line2d_15">
      <g>
       <use xlink:href="#m360e1f0208" x="156.869924" y="316.44327" style="stroke: #000000; stroke-width: 0.6"/>
      </g>
     </g>
    </g>
    <g id="xtick_16">
     <g id="line2d_16">
      <g>
       <use xlink:href="#m360e1f0208" x="166.435256" y="316.44327" style="stroke: #000000; stroke-width: 0.6"/>
      </g>
     </g>
    </g>
    <g id="xtick_17">
     <g id="line2d_17">
      <g>
       <use xlink:href="#m360e1f0208" x="173.854705" y="316.44327" style="stroke: #000000; stroke-width: 0.6"/>
      </g>
     </g>
    </g>
    <g id="xtick_18">
     <g id="line2d_18">
      <g>
       <use xlink:href="#m360e1f0208" x="179.916836" y="316.44327" style="stroke: #000000; stroke-width: 0.6"/>
      </g>
     </g>
    </g>
    <g id="xtick_19">
     <g id="line2d_19">
      <g>
       <use xlink:href="#m360e1f0208" x="185.042294" y="316.44327" style="stroke: #000000; stroke-width: 0.6"/>
      </g>
     </g>
    </g>
    <g id="xtick_20">
     <g id="line2d_20">
      <g>
       <use xlink:href="#m360e1f0208" x="189.482168" y="316.44327" style="stroke: #000000; stroke-width: 0.6"/>
      </g>
     </g>
    </g>
    <g id="xtick_21">
     <g id="line2d_21">
      <g>
       <use xlink:href="#m360e1f0208" x="193.398415" y="316.44327" style="stroke: #000000; stroke-width: 0.6"/>
      </g>
     </g>
    </g>
    <g id="xtick_22">
     <g id="line2d_22">
      <g>
       <use xlink:href="#m360e1f0208" x="219.948528" y="316.44327" style="stroke: #000000; stroke-width: 0.6"/>
      </g>
     </g>
    </g>
    <g id="xtick_23">
     <g id="line2d_23">
      <g>
       <use xlink:href="#m360e1f0208" x="233.430107" y="316.44327" style="stroke: #000000; stroke-width: 0.6"/>
      </g>
     </g>
    </g>
    <g id="xtick_24">
     <g id="line2d_24">
      <g>
       <use xlink:href="#m360e1f0208" x="242.99544" y="316.44327" style="stroke: #000000; stroke-width: 0.6"/>
      </g>
     </g>
    </g>
    <g id="xtick_25">
     <g id="line2d_25">
      <g>
       <use xlink:href="#m360e1f0208" x="250.414888" y="316.44327" style="stroke: #000000; stroke-width: 0.6"/>
      </g>
     </g>
    </g>
    <g id="xtick_26">
     <g id="line2d_26">
      <g>
       <use xlink:href="#m360e1f0208" x="256.477019" y="316.44327" style="stroke: #000000; stroke-width: 0.6"/>
      </g>
     </g>
    </g>
    <g id="xtick_27">
     <g id="line2d_27">
      <g>
       <use xlink:href="#m360e1f0208" x="261.602477" y="316.44327" style="stroke: #000000; stroke-width: 0.6"/>
      </g>
     </g>
    </g>
    <g id="xtick_28">
     <g id="line2d_28">
      <g>
       <use xlink:href="#m360e1f0208" x="266.042351" y="316.44327" style="stroke: #000000; stroke-width: 0.6"/>
      </g>
     </g>
    </g>
    <g id="xtick_29">
     <g id="line2d_29">
      <g>
       <use xlink:href="#m360e1f0208" x="269.958598" y="316.44327" style="stroke: #000000; stroke-width: 0.6"/>
      </g>
     </g>
    </g>
    <g id="xtick_30">
     <g id="line2d_30">
      <g>
       <use xlink:href="#m360e1f0208" x="296.508711" y="316.44327" style="stroke: #000000; stroke-width: 0.6"/>
      </g>
     </g>
    </g>
    <g id="xtick_31">
     <g id="line2d_31">
      <g>
       <use xlink:href="#m360e1f0208" x="309.99029" y="316.44327" style="stroke: #000000; stroke-width: 0.6"/>
      </g>
     </g>
    </g>
    <g id="xtick_32">
     <g id="line2d_32">
      <g>
       <use xlink:href="#m360e1f0208" x="319.555623" y="316.44327" style="stroke: #000000; stroke-width: 0.6"/>
      </g>
     </g>
    </g>
    <g id="xtick_33">
     <g id="line2d_33">
      <g>
       <use xlink:href="#m360e1f0208" x="326.975071" y="316.44327" style="stroke: #000000; stroke-width: 0.6"/>
      </g>
     </g>
    </g>
    <g id="xtick_34">
     <g id="line2d_34">
      <g>
       <use xlink:href="#m360e1f0208" x="333.037202" y="316.44327" style="stroke: #000000; stroke-width: 0.6"/>
      </g>
     </g>
    </g>
    <g id="xtick_35">
     <g id="line2d_35">
      <g>
       <use xlink:href="#m360e1f0208" x="338.162661" y="316.44327" style="stroke: #000000; stroke-width: 0.6"/>
      </g>
     </g>
    </g>
    <g id="xtick_36">
     <g id="line2d_36">
      <g>
       <use xlink:href="#m360e1f0208" x="342.602535" y="316.44327" style="stroke: #000000; stroke-width: 0.6"/>
      </g>
     </g>
    </g>
    <g id="xtick_37">
     <g id="line2d_37">
      <g>
       <use xlink:href="#m360e1f0208" x="346.518781" y="316.44327" style="stroke: #000000; stroke-width: 0.6"/>
      </g>
     </g>
    </g>
    <g id="xtick_38">
     <g id="line2d_38">
      <g>
       <use xlink:href="#m360e1f0208" x="373.068895" y="316.44327" style="stroke: #000000; stroke-width: 0.6"/>
      </g>
     </g>
    </g>
    <g id="xtick_39">
     <g id="line2d_39">
      <g>
       <use xlink:href="#m360e1f0208" x="386.550474" y="316.44327" style="stroke: #000000; stroke-width: 0.6"/>
      </g>
     </g>
    </g>
    <g id="text_6">
     <!-- bandwidth -->
     <g transform="translate(189.679162 344.719832) scale(0.1 -0.1)">
      <defs>
       <path id="DejaVuSans-62" d="M 3116 1747 
Q 3116 2381 2855 2742 
Q 2594 3103 2138 3103 
Q 1681 3103 1420 2742 
Q 1159 2381 1159 1747 
Q 1159 1113 1420 752 
Q 1681 391 2138 391 
Q 2594 391 2855 752 
Q 3116 1113 3116 1747 
z
M 1159 2969 
Q 1341 3281 1617 3432 
Q 1894 3584 2278 3584 
Q 2916 3584 3314 3078 
Q 3713 2572 3713 1747 
Q 3713 922 3314 415 
Q 2916 -91 2278 -91 
Q 1894 -91 1617 61 
Q 1341 213 1159 525 
L 1159 0 
L 581 0 
L 581 4863 
L 1159 4863 
L 1159 2969 
z
" transform="scale(0.015625)"/>
       <path id="DejaVuSans-61" d="M 2194 1759 
Q 1497 1759 1228 1600 
Q 959 1441 959 1056 
Q 959 750 1161 570 
Q 1363 391 1709 391 
Q 2188 391 2477 730 
Q 2766 1069 2766 1631 
L 2766 1759 
L 2194 1759 
z
M 3341 1997 
L 3341 0 
L 2766 0 
L 2766 531 
Q 2569 213 2275 61 
Q 1981 -91 1556 -91 
Q 1019 -91 701 211 
Q 384 513 384 1019 
Q 384 1609 779 1909 
Q 1175 2209 1959 2209 
L 2766 2209 
L 2766 2266 
Q 2766 2663 2505 2880 
Q 2244 3097 1772 3097 
Q 1472 3097 1187 3025 
Q 903 2953 641 2809 
L 641 3341 
Q 956 3463 1253 3523 
Q 1550 3584 1831 3584 
Q 2591 3584 2966 3190 
Q 3341 2797 3341 1997 
z
" transform="scale(0.015625)"/>
       <path id="DejaVuSans-6e" d="M 3513 2113 
L 3513 0 
L 2938 0 
L 2938 2094 
Q 2938 2591 2744 2837 
Q 2550 3084 2163 3084 
Q 1697 3084 1428 2787 
Q 1159 2491 1159 1978 
L 1159 0 
L 581 0 
L 581 3500 
L 1159 3500 
L 1159 2956 
Q 1366 3272 1645 3428 
Q 1925 3584 2291 3584 
Q 2894 3584 3203 3211 
Q 3513 2838 3513 2113 
z
" transform="scale(0.015625)"/>
       <path id="DejaVuSans-64" d="M 2906 2969 
L 2906 4863 
L 3481 4863 
L 3481 0 
L 2906 0 
L 2906 525 
Q 2725 213 2448 61 
Q 2172 -91 1784 -91 
Q 1150 -91 751 415 
Q 353 922 353 1747 
Q 353 2572 751 3078 
Q 1150 3584 1784 3584 
Q 2172 3584 2448 3432 
Q 2725 3281 2906 2969 
z
M 947 1747 
Q 947 1113 1208 752 
Q 1469 391 1925 391 
Q 2381 391 2643 752 
Q 2906 1113 2906 1747 
Q 2906 2381 2643 2742 
Q 2381 3103 1925 3103 
Q 1469 3103 1208 2742 
Q 947 2381 947 1747 
z
" transform="scale(0.015625)"/>
       <path id="DejaVuSans-77" d="M 269 3500 
L 844 3500 
L 1563 769 
L 2278 3500 
L 2956 3500 
L 3675 769 
L 4391 3500 
L 4966 3500 
L 4050 0 
L 3372 0 
L 2619 2869 
L 1863 0 
L 1184 0 
L 269 3500 
z
" transform="scale(0.015625)"/>
       <path id="DejaVuSans-69" d="M 603 3500 
L 1178 3500 
L 1178 0 
L 603 0 
L 603 3500 
z
M 603 4863 
L 1178 4863 
L 1178 4134 
L 603 4134 
L 603 4863 
z
" transform="scale(0.015625)"/>
       <path id="DejaVuSans-74" d="M 1172 4494 
L 1172 3500 
L 2356 3500 
L 2356 3053 
L 1172 3053 
L 1172 1153 
Q 1172 725 1289 603 
Q 1406 481 1766 481 
L 2356 481 
L 2356 0 
L 1766 0 
Q 1100 0 847 248 
Q 594 497 594 1153 
L 594 3053 
L 172 3053 
L 172 3500 
L 594 3500 
L 594 4494 
L 1172 4494 
z
" transform="scale(0.015625)"/>
       <path id="DejaVuSans-68" d="M 3513 2113 
L 3513 0 
L 2938 0 
L 2938 2094 
Q 2938 2591 2744 2837 
Q 2550 3084 2163 3084 
Q 1697 3084 1428 2787 
Q 1159 2491 1159 1978 
L 1159 0 
L 581 0 
L 581 4863 
L 1159 4863 
L 1159 2956 
Q 1366 3272 1645 3428 
Q 1925 3584 2291 3584 
Q 2894 3584 3203 3211 
Q 3513 2838 3513 2113 
z
" transform="scale(0.015625)"/>
      </defs>
      <use xlink:href="#DejaVuSans-62"/>
      <use xlink:href="#DejaVuSans-61" transform="translate(63.476562 0)"/>
      <use xlink:href="#DejaVuSans-6e" transform="translate(124.755859 0)"/>
      <use xlink:href="#DejaVuSans-64" transform="translate(188.134766 0)"/>
      <use xlink:href="#DejaVuSans-77" transform="translate(251.611328 0)"/>
      <use xlink:href="#DejaVuSans-69" transform="translate(333.398438 0)"/>
      <use xlink:href="#DejaVuSans-64" transform="translate(361.181641 0)"/>
      <use xlink:href="#DejaVuSans-74" transform="translate(424.658203 0)"/>
      <use xlink:href="#DejaVuSans-68" transform="translate(463.867188 0)"/>
     </g>
    </g>
   </g>
   <g id="matplotlib.axis_2">
    <g id="ytick_1">
     <g id="line2d_40">
      <defs>
       <path id="mbd2f377c6c" d="M 0 0 
L -3.5 0 
" style="stroke: #000000; stroke-width: 0.8"/>
      </defs>
      <g>
       <use xlink:href="#mbd2f377c6c" x="43.78125" y="316.44327" style="stroke: #000000; stroke-width: 0.8"/>
      </g>
     </g>
     <g id="text_7">
      <!-- 1.0 -->
      <g transform="translate(20.878125 320.242489) scale(0.1 -0.1)">
       <defs>
        <path id="DejaVuSans-2e" d="M 684 794 
L 1344 794 
L 1344 0 
L 684 0 
L 684 794 
z
" transform="scale(0.015625)"/>
       </defs>
       <use xlink:href="#DejaVuSans-31"/>
       <use xlink:href="#DejaVuSans-2e" transform="translate(63.623047 0)"/>
       <use xlink:href="#DejaVuSans-30" transform="translate(95.410156 0)"/>
      </g>
     </g>
    </g>
    <g id="ytick_2">
     <g id="line2d_41">
      <g>
       <use xlink:href="#mbd2f377c6c" x="43.78125" y="265.535928" style="stroke: #000000; stroke-width: 0.8"/>
      </g>
     </g>
     <g id="text_8">
      <!-- 1.5 -->
      <g transform="translate(20.878125 269.335147) scale(0.1 -0.1)">
       <use xlink:href="#DejaVuSans-31"/>
       <use xlink:href="#DejaVuSans-2e" transform="translate(63.623047 0)"/>
       <use xlink:href="#DejaVuSans-35" transform="translate(95.410156 0)"/>
      </g>
     </g>
    </g>
    <g id="ytick_3">
     <g id="line2d_42">
      <g>
       <use xlink:href="#mbd2f377c6c" x="43.78125" y="214.628586" style="stroke: #000000; stroke-width: 0.8"/>
      </g>
     </g>
     <g id="text_9">
      <!-- 2.0 -->
      <g transform="translate(20.878125 218.427805) scale(0.1 -0.1)">
       <use xlink:href="#DejaVuSans-32"/>
       <use xlink:href="#DejaVuSans-2e" transform="translate(63.623047 0)"/>
       <use xlink:href="#DejaVuSans-30" transform="translate(95.410156 0)"/>
      </g>
     </g>
    </g>
    <g id="ytick_4">
     <g id="line2d_43">
      <g>
       <use xlink:href="#mbd2f377c6c" x="43.78125" y="163.721244" style="stroke: #000000; stroke-width: 0.8"/>
      </g>
     </g>
     <g id="text_10">
      <!-- 2.5 -->
      <g transform="translate(20.878125 167.520463) scale(0.1 -0.1)">
       <use xlink:href="#DejaVuSans-32"/>
       <use xlink:href="#DejaVuSans-2e" transform="translate(63.623047 0)"/>
       <use xlink:href="#DejaVuSans-35" transform="translate(95.410156 0)"/>
      </g>
     </g>
    </g>
    <g id="ytick_5">
     <g id="line2d_44">
      <g>
       <use xlink:href="#mbd2f377c6c" x="43.78125" y="112.813902" style="stroke: #000000; stroke-width: 0.8"/>
      </g>
     </g>
     <g id="text_11">
      <!-- 3.0 -->
      <g transform="translate(20.878125 116.613121) scale(0.1 -0.1)">
       <use xlink:href="#DejaVuSans-33"/>
       <use xlink:href="#DejaVuSans-2e" transform="translate(63.623047 0)"/>
       <use xlink:href="#DejaVuSans-30" transform="translate(95.410156 0)"/>
      </g>
     </g>
    </g>
    <g id="ytick_6">
     <g id="line2d_45">
      <g>
       <use xlink:href="#mbd2f377c6c" x="43.78125" y="61.906561" style="stroke: #000000; stroke-width: 0.8"/>
      </g>
     </g>
     <g id="text_12">
      <!-- 3.5 -->
      <g transform="translate(20.878125 65.705779) scale(0.1 -0.1)">
       <use xlink:href="#DejaVuSans-33"/>
       <use xlink:href="#DejaVuSans-2e" transform="translate(63.623047 0)"/>
       <use xlink:href="#DejaVuSans-35" transform="translate(95.410156 0)"/>
      </g>
     </g>
    </g>
    <g id="ytick_7">
     <g id="line2d_46">
      <g>
       <use xlink:href="#mbd2f377c6c" x="43.78125" y="10.999219" style="stroke: #000000; stroke-width: 0.8"/>
      </g>
     </g>
     <g id="text_13">
      <!-- 4.0 -->
      <g transform="translate(20.878125 14.798438) scale(0.1 -0.1)">
       <use xlink:href="#DejaVuSans-34"/>
       <use xlink:href="#DejaVuSans-2e" transform="translate(63.623047 0)"/>
       <use xlink:href="#DejaVuSans-30" transform="translate(95.410156 0)"/>
      </g>
     </g>
    </g>
    <g id="text_14">
     <!-- alpha -->
     <g transform="translate(14.798438 177.581401) rotate(-90) scale(0.1 -0.1)">
      <defs>
       <path id="DejaVuSans-6c" d="M 603 4863 
L 1178 4863 
L 1178 0 
L 603 0 
L 603 4863 
z
" transform="scale(0.015625)"/>
       <path id="DejaVuSans-70" d="M 1159 525 
L 1159 -1331 
L 581 -1331 
L 581 3500 
L 1159 3500 
L 1159 2969 
Q 1341 3281 1617 3432 
Q 1894 3584 2278 3584 
Q 2916 3584 3314 3078 
Q 3713 2572 3713 1747 
Q 3713 922 3314 415 
Q 2916 -91 2278 -91 
Q 1894 -91 1617 61 
Q 1341 213 1159 525 
z
M 3116 1747 
Q 3116 2381 2855 2742 
Q 2594 3103 2138 3103 
Q 1681 3103 1420 2742 
Q 1159 2381 1159 1747 
Q 1159 1113 1420 752 
Q 1681 391 2138 391 
Q 2594 391 2855 752 
Q 3116 1113 3116 1747 
z
" transform="scale(0.015625)"/>
      </defs>
      <use xlink:href="#DejaVuSans-61"/>
      <use xlink:href="#DejaVuSans-6c" transform="translate(61.279297 0)"/>
      <use xlink:href="#DejaVuSans-70" transform="translate(89.0625 0)"/>
      <use xlink:href="#DejaVuSans-68" transform="translate(152.539062 0)"/>
      <use xlink:href="#DejaVuSans-61" transform="translate(215.917969 0)"/>
     </g>
    </g>
   </g>
   <g id="patch_3">
    <path d="M 43.78125 316.44327 
L 43.78125 10.999219 
" style="fill: none; stroke: #000000; stroke-width: 0.8; stroke-linejoin: miter; stroke-linecap: square"/>
   </g>
   <g id="patch_4">
    <path d="M 388.302075 316.44327 
L 388.302075 10.999219 
" style="fill: none; stroke: #000000; stroke-width: 0.8; stroke-linejoin: miter; stroke-linecap: square"/>
   </g>
   <g id="patch_5">
    <path d="M 43.78125 316.44327 
L 388.302075 316.44327 
" style="fill: none; stroke: #000000; stroke-width: 0.8; stroke-linejoin: miter; stroke-linecap: square"/>
   </g>
   <g id="patch_6">
    <path d="M 43.78125 10.999219 
L 388.302075 10.999219 
" style="fill: none; stroke: #000000; stroke-width: 0.8; stroke-linejoin: miter; stroke-linecap: square"/>
   </g>
  </g>
  <g id="axes_2">
   <g id="patch_7">
    <path d="M 405.528116 316.44327 
L 420.800318 316.44327 
L 420.800318 10.999219 
L 405.528116 10.999219 
z
" style="fill: #ffffff"/>
   </g>
   <g id="QuadMesh_1">
    <path d="M 405.528116 316.44327 
L 420.800318 316.44327 
L 420.800318 296.080333 
L 405.528116 296.080333 
L 405.528116 316.44327 
" clip-path="url(#pe6d9492728)" style="fill: #470d60"/>
    <path d="M 405.528116 296.080333 
L 420.800318 296.080333 
L 420.800318 275.717396 
L 405.528116 275.717396 
L 405.528116 296.080333 
" clip-path="url(#pe6d9492728)" style="fill: #482475"/>
    <path d="M 405.528116 275.717396 
L 420.800318 275.717396 
L 420.800318 255.35446 
L 405.528116 255.35446 
L 405.528116 275.717396 
" clip-path="url(#pe6d9492728)" style="fill: #443983"/>
    <path d="M 405.528116 255.35446 
L 420.800318 255.35446 
L 420.800318 234.991523 
L 405.528116 234.991523 
L 405.528116 255.35446 
" clip-path="url(#pe6d9492728)" style="fill: #3d4d8a"/>
    <path d="M 405.528116 234.991523 
L 420.800318 234.991523 
L 420.800318 214.628586 
L 405.528116 214.628586 
L 405.528116 234.991523 
" clip-path="url(#pe6d9492728)" style="fill: #355f8d"/>
    <path d="M 405.528116 214.628586 
L 420.800318 214.628586 
L 420.800318 194.265649 
L 405.528116 194.265649 
L 405.528116 214.628586 
" clip-path="url(#pe6d9492728)" style="fill: #2d708e"/>
    <path d="M 405.528116 194.265649 
L 420.800318 194.265649 
L 420.800318 173.902713 
L 405.528116 173.902713 
L 405.528116 194.265649 
" clip-path="url(#pe6d9492728)" style="fill: #27808e"/>
    <path d="M 405.528116 173.902713 
L 420.800318 173.902713 
L 420.800318 153.539776 
L 405.528116 153.539776 
L 405.528116 173.902713 
" clip-path="url(#pe6d9492728)" style="fill: #21918c"/>
    <path d="M 405.528116 153.539776 
L 420.800318 153.539776 
L 420.800318 133.176839 
L 405.528116 133.176839 
L 405.528116 153.539776 
" clip-path="url(#pe6d9492728)" style="fill: #1fa188"/>
    <path d="M 405.528116 133.176839 
L 420.800318 133.176839 
L 420.800318 112.813902 
L 405.528116 112.813902 
L 405.528116 133.176839 
" clip-path="url(#pe6d9492728)" style="fill: #2ab07f"/>
    <path d="M 405.528116 112.813902 
L 420.800318 112.813902 
L 420.800318 92.450966 
L 405.528116 92.450966 
L 405.528116 112.813902 
" clip-path="url(#pe6d9492728)" style="fill: #44bf70"/>
    <path d="M 405.528116 92.450966 
L 420.800318 92.450966 
L 420.800318 72.088029 
L 405.528116 72.088029 
L 405.528116 92.450966 
" clip-path="url(#pe6d9492728)" style="fill: #67cc5c"/>
    <path d="M 405.528116 72.088029 
L 420.800318 72.088029 
L 420.800318 51.725092 
L 405.528116 51.725092 
L 405.528116 72.088029 
" clip-path="url(#pe6d9492728)" style="fill: #90d743"/>
    <path d="M 405.528116 51.725092 
L 420.800318 51.725092 
L 420.800318 31.362156 
L 405.528116 31.362156 
L 405.528116 51.725092 
" clip-path="url(#pe6d9492728)" style="fill: #bddf26"/>
    <path d="M 405.528116 31.362156 
L 420.800318 31.362156 
L 420.800318 10.999219 
L 405.528116 10.999219 
L 405.528116 31.362156 
" clip-path="url(#pe6d9492728)" style="fill: #eae51a"/>
   </g>
   <g id="matplotlib.axis_3"/>
   <g id="matplotlib.axis_4">
    <g id="ytick_8">
     <g id="line2d_47">
      <defs>
       <path id="m0a27ea52cb" d="M 0 0 
L 3.5 0 
" style="stroke: #000000; stroke-width: 0.8"/>
      </defs>
      <g>
       <use xlink:href="#m0a27ea52cb" x="420.800318" y="296.080333" style="stroke: #000000; stroke-width: 0.8"/>
      </g>
     </g>
     <g id="text_15">
      <!-- -0.8 -->
      <g transform="translate(427.800318 299.879552) scale(0.1 -0.1)">
       <defs>
        <path id="DejaVuSans-2d" d="M 313 2009 
L 1997 2009 
L 1997 1497 
L 313 1497 
L 313 2009 
z
" transform="scale(0.015625)"/>
        <path id="DejaVuSans-38" d="M 2034 2216 
Q 1584 2216 1326 1975 
Q 1069 1734 1069 1313 
Q 1069 891 1326 650 
Q 1584 409 2034 409 
Q 2484 409 2743 651 
Q 3003 894 3003 1313 
Q 3003 1734 2745 1975 
Q 2488 2216 2034 2216 
z
M 1403 2484 
Q 997 2584 770 2862 
Q 544 3141 544 3541 
Q 544 4100 942 4425 
Q 1341 4750 2034 4750 
Q 2731 4750 3128 4425 
Q 3525 4100 3525 3541 
Q 3525 3141 3298 2862 
Q 3072 2584 2669 2484 
Q 3125 2378 3379 2068 
Q 3634 1759 3634 1313 
Q 3634 634 3220 271 
Q 2806 -91 2034 -91 
Q 1263 -91 848 271 
Q 434 634 434 1313 
Q 434 1759 690 2068 
Q 947 2378 1403 2484 
z
M 1172 3481 
Q 1172 3119 1398 2916 
Q 1625 2713 2034 2713 
Q 2441 2713 2670 2916 
Q 2900 3119 2900 3481 
Q 2900 3844 2670 4047 
Q 2441 4250 2034 4250 
Q 1625 4250 1398 4047 
Q 1172 3844 1172 3481 
z
" transform="scale(0.015625)"/>
       </defs>
       <use xlink:href="#DejaVuSans-2d"/>
       <use xlink:href="#DejaVuSans-30" transform="translate(36.083984 0)"/>
       <use xlink:href="#DejaVuSans-2e" transform="translate(99.707031 0)"/>
       <use xlink:href="#DejaVuSans-38" transform="translate(131.494141 0)"/>
      </g>
     </g>
    </g>
    <g id="ytick_9">
     <g id="line2d_48">
      <g>
       <use xlink:href="#m0a27ea52cb" x="420.800318" y="255.35446" style="stroke: #000000; stroke-width: 0.8"/>
      </g>
     </g>
     <g id="text_16">
      <!-- -0.7 -->
      <g transform="translate(427.800318 259.153678) scale(0.1 -0.1)">
       <defs>
        <path id="DejaVuSans-37" d="M 525 4666 
L 3525 4666 
L 3525 4397 
L 1831 0 
L 1172 0 
L 2766 4134 
L 525 4134 
L 525 4666 
z
" transform="scale(0.015625)"/>
       </defs>
       <use xlink:href="#DejaVuSans-2d"/>
       <use xlink:href="#DejaVuSans-30" transform="translate(36.083984 0)"/>
       <use xlink:href="#DejaVuSans-2e" transform="translate(99.707031 0)"/>
       <use xlink:href="#DejaVuSans-37" transform="translate(131.494141 0)"/>
      </g>
     </g>
    </g>
    <g id="ytick_10">
     <g id="line2d_49">
      <g>
       <use xlink:href="#m0a27ea52cb" x="420.800318" y="214.628586" style="stroke: #000000; stroke-width: 0.8"/>
      </g>
     </g>
     <g id="text_17">
      <!-- -0.6 -->
      <g transform="translate(427.800318 218.427805) scale(0.1 -0.1)">
       <defs>
        <path id="DejaVuSans-36" d="M 2113 2584 
Q 1688 2584 1439 2293 
Q 1191 2003 1191 1497 
Q 1191 994 1439 701 
Q 1688 409 2113 409 
Q 2538 409 2786 701 
Q 3034 994 3034 1497 
Q 3034 2003 2786 2293 
Q 2538 2584 2113 2584 
z
M 3366 4563 
L 3366 3988 
Q 3128 4100 2886 4159 
Q 2644 4219 2406 4219 
Q 1781 4219 1451 3797 
Q 1122 3375 1075 2522 
Q 1259 2794 1537 2939 
Q 1816 3084 2150 3084 
Q 2853 3084 3261 2657 
Q 3669 2231 3669 1497 
Q 3669 778 3244 343 
Q 2819 -91 2113 -91 
Q 1303 -91 875 529 
Q 447 1150 447 2328 
Q 447 3434 972 4092 
Q 1497 4750 2381 4750 
Q 2619 4750 2861 4703 
Q 3103 4656 3366 4563 
z
" transform="scale(0.015625)"/>
       </defs>
       <use xlink:href="#DejaVuSans-2d"/>
       <use xlink:href="#DejaVuSans-30" transform="translate(36.083984 0)"/>
       <use xlink:href="#DejaVuSans-2e" transform="translate(99.707031 0)"/>
       <use xlink:href="#DejaVuSans-36" transform="translate(131.494141 0)"/>
      </g>
     </g>
    </g>
    <g id="ytick_11">
     <g id="line2d_50">
      <g>
       <use xlink:href="#m0a27ea52cb" x="420.800318" y="173.902713" style="stroke: #000000; stroke-width: 0.8"/>
      </g>
     </g>
     <g id="text_18">
      <!-- -0.5 -->
      <g transform="translate(427.800318 177.701931) scale(0.1 -0.1)">
       <use xlink:href="#DejaVuSans-2d"/>
       <use xlink:href="#DejaVuSans-30" transform="translate(36.083984 0)"/>
       <use xlink:href="#DejaVuSans-2e" transform="translate(99.707031 0)"/>
       <use xlink:href="#DejaVuSans-35" transform="translate(131.494141 0)"/>
      </g>
     </g>
    </g>
    <g id="ytick_12">
     <g id="line2d_51">
      <g>
       <use xlink:href="#m0a27ea52cb" x="420.800318" y="133.176839" style="stroke: #000000; stroke-width: 0.8"/>
      </g>
     </g>
     <g id="text_19">
      <!-- -0.4 -->
      <g transform="translate(427.800318 136.976058) scale(0.1 -0.1)">
       <use xlink:href="#DejaVuSans-2d"/>
       <use xlink:href="#DejaVuSans-30" transform="translate(36.083984 0)"/>
       <use xlink:href="#DejaVuSans-2e" transform="translate(99.707031 0)"/>
       <use xlink:href="#DejaVuSans-34" transform="translate(131.494141 0)"/>
      </g>
     </g>
    </g>
    <g id="ytick_13">
     <g id="line2d_52">
      <g>
       <use xlink:href="#m0a27ea52cb" x="420.800318" y="92.450966" style="stroke: #000000; stroke-width: 0.8"/>
      </g>
     </g>
     <g id="text_20">
      <!-- -0.3 -->
      <g transform="translate(427.800318 96.250184) scale(0.1 -0.1)">
       <use xlink:href="#DejaVuSans-2d"/>
       <use xlink:href="#DejaVuSans-30" transform="translate(36.083984 0)"/>
       <use xlink:href="#DejaVuSans-2e" transform="translate(99.707031 0)"/>
       <use xlink:href="#DejaVuSans-33" transform="translate(131.494141 0)"/>
      </g>
     </g>
    </g>
    <g id="ytick_14">
     <g id="line2d_53">
      <g>
       <use xlink:href="#m0a27ea52cb" x="420.800318" y="51.725092" style="stroke: #000000; stroke-width: 0.8"/>
      </g>
     </g>
     <g id="text_21">
      <!-- -0.2 -->
      <g transform="translate(427.800318 55.524311) scale(0.1 -0.1)">
       <use xlink:href="#DejaVuSans-2d"/>
       <use xlink:href="#DejaVuSans-30" transform="translate(36.083984 0)"/>
       <use xlink:href="#DejaVuSans-2e" transform="translate(99.707031 0)"/>
       <use xlink:href="#DejaVuSans-32" transform="translate(131.494141 0)"/>
      </g>
     </g>
    </g>
    <g id="ytick_15">
     <g id="line2d_54">
      <g>
       <use xlink:href="#m0a27ea52cb" x="420.800318" y="10.999219" style="stroke: #000000; stroke-width: 0.8"/>
      </g>
     </g>
     <g id="text_22">
      <!-- -0.1 -->
      <g transform="translate(427.800318 14.798438) scale(0.1 -0.1)">
       <use xlink:href="#DejaVuSans-2d"/>
       <use xlink:href="#DejaVuSans-30" transform="translate(36.083984 0)"/>
       <use xlink:href="#DejaVuSans-2e" transform="translate(99.707031 0)"/>
       <use xlink:href="#DejaVuSans-31" transform="translate(131.494141 0)"/>
      </g>
     </g>
    </g>
    <g id="text_23">
     <!-- Score -->
     <g transform="translate(458.909693 177.723588) rotate(-90) scale(0.1 -0.1)">
      <defs>
       <path id="DejaVuSans-53" d="M 3425 4513 
L 3425 3897 
Q 3066 4069 2747 4153 
Q 2428 4238 2131 4238 
Q 1616 4238 1336 4038 
Q 1056 3838 1056 3469 
Q 1056 3159 1242 3001 
Q 1428 2844 1947 2747 
L 2328 2669 
Q 3034 2534 3370 2195 
Q 3706 1856 3706 1288 
Q 3706 609 3251 259 
Q 2797 -91 1919 -91 
Q 1588 -91 1214 -16 
Q 841 59 441 206 
L 441 856 
Q 825 641 1194 531 
Q 1563 422 1919 422 
Q 2459 422 2753 634 
Q 3047 847 3047 1241 
Q 3047 1584 2836 1778 
Q 2625 1972 2144 2069 
L 1759 2144 
Q 1053 2284 737 2584 
Q 422 2884 422 3419 
Q 422 4038 858 4394 
Q 1294 4750 2059 4750 
Q 2388 4750 2728 4690 
Q 3069 4631 3425 4513 
z
" transform="scale(0.015625)"/>
       <path id="DejaVuSans-63" d="M 3122 3366 
L 3122 2828 
Q 2878 2963 2633 3030 
Q 2388 3097 2138 3097 
Q 1578 3097 1268 2742 
Q 959 2388 959 1747 
Q 959 1106 1268 751 
Q 1578 397 2138 397 
Q 2388 397 2633 464 
Q 2878 531 3122 666 
L 3122 134 
Q 2881 22 2623 -34 
Q 2366 -91 2075 -91 
Q 1284 -91 818 406 
Q 353 903 353 1747 
Q 353 2603 823 3093 
Q 1294 3584 2113 3584 
Q 2378 3584 2631 3529 
Q 2884 3475 3122 3366 
z
" transform="scale(0.015625)"/>
       <path id="DejaVuSans-6f" d="M 1959 3097 
Q 1497 3097 1228 2736 
Q 959 2375 959 1747 
Q 959 1119 1226 758 
Q 1494 397 1959 397 
Q 2419 397 2687 759 
Q 2956 1122 2956 1747 
Q 2956 2369 2687 2733 
Q 2419 3097 1959 3097 
z
M 1959 3584 
Q 2709 3584 3137 3096 
Q 3566 2609 3566 1747 
Q 3566 888 3137 398 
Q 2709 -91 1959 -91 
Q 1206 -91 779 398 
Q 353 888 353 1747 
Q 353 2609 779 3096 
Q 1206 3584 1959 3584 
z
" transform="scale(0.015625)"/>
       <path id="DejaVuSans-72" d="M 2631 2963 
Q 2534 3019 2420 3045 
Q 2306 3072 2169 3072 
Q 1681 3072 1420 2755 
Q 1159 2438 1159 1844 
L 1159 0 
L 581 0 
L 581 3500 
L 1159 3500 
L 1159 2956 
Q 1341 3275 1631 3429 
Q 1922 3584 2338 3584 
Q 2397 3584 2469 3576 
Q 2541 3569 2628 3553 
L 2631 2963 
z
" transform="scale(0.015625)"/>
       <path id="DejaVuSans-65" d="M 3597 1894 
L 3597 1613 
L 953 1613 
Q 991 1019 1311 708 
Q 1631 397 2203 397 
Q 2534 397 2845 478 
Q 3156 559 3463 722 
L 3463 178 
Q 3153 47 2828 -22 
Q 2503 -91 2169 -91 
Q 1331 -91 842 396 
Q 353 884 353 1716 
Q 353 2575 817 3079 
Q 1281 3584 2069 3584 
Q 2775 3584 3186 3129 
Q 3597 2675 3597 1894 
z
M 3022 2063 
Q 3016 2534 2758 2815 
Q 2500 3097 2075 3097 
Q 1594 3097 1305 2825 
Q 1016 2553 972 2059 
L 3022 2063 
z
" transform="scale(0.015625)"/>
      </defs>
      <use xlink:href="#DejaVuSans-53"/>
      <use xlink:href="#DejaVuSans-63" transform="translate(63.476562 0)"/>
      <use xlink:href="#DejaVuSans-6f" transform="translate(118.457031 0)"/>
      <use xlink:href="#DejaVuSans-72" transform="translate(179.638672 0)"/>
      <use xlink:href="#DejaVuSans-65" transform="translate(218.501953 0)"/>
     </g>
    </g>
   </g>
   <g id="LineCollection_1"/>
   <g id="patch_8">
    <path d="M 405.528116 316.44327 
L 413.164217 316.44327 
L 420.800318 316.44327 
L 420.800318 10.999219 
L 413.164217 10.999219 
L 405.528116 10.999219 
L 405.528116 316.44327 
z
" style="fill: none; stroke: #000000; stroke-width: 0.8; stroke-linejoin: miter; stroke-linecap: square"/>
   </g>
  </g>
 </g>
 <defs>
  <clipPath id="p1ec12e89ab">
   <rect x="43.78125" y="10.999219" width="344.520825" height="305.444051"/>
  </clipPath>
  <clipPath id="pe6d9492728">
   <rect x="405.528116" y="10.999219" width="15.272203" height="305.444051"/>
  </clipPath>
 </defs>
</svg>
