<?xml version="1.0" encoding="utf-8" standalone="no"?>
<!DOCTYPE svg PUBLIC "-//W3C//DTD SVG 1.1//EN"
  "http://www.w3.org/Graphics/SVG/1.1/DTD/svg11.dtd">
<svg xmlns:xlink="http://www.w3.org/1999/xlink" width="460.8pt" height="345.6pt" viewBox="0 0 460.8 345.6" xmlns="http://www.w3.org/2000/svg" version="1.1">
 <metadata>
  <rdf:RDF xmlns:dc="http://purl.org/dc/elements/1.1/" xmlns:cc="http://creativecommons.org/ns#" xmlns:rdf="http://www.w3.org/1999/02/22-rdf-syntax-ns#">
   <cc:Work>
    <dc:type rdf:resource="http://purl.org/dc/dcmitype/StillImage"/>
    <dc:date>1970-01-01T00:00:00+00:00</dc:date>
    <dc:format>image/svg+xml</dc:format>
    <dc:creator>
     <cc:Agent>
      <dc:title>Matplotlib v3.10.7, https://matplotlib.org/</dc:title>
     </cc:Agent>
    </dc:creator>
   </cc:Work>
  </rdf:RDF>
 </metadata>
 <defs>
  <style type="text/css">*{stroke-linejoin: round; stroke-linecap: butt}</style>
 </defs>
 <g id="figure_1">
  <g id="patch_1">
   <path d="M 0 345.6 
L 460.8 345.6 
L 460.8 0 
L 0 0 
z
" style="fill: #ffffff"/>
  </g>
  <g id="axes_1">
   <g id="patch_2">
    <path d="M 39.58149 312.24351 
L 384.66826 312.24351 
L 384.66826 18.118365 
L 39.58149 18.118365 
z
" style="fill: #ffffff"/>
   </g>
   <g id="QuadContourSet_1">
    <path d="M 269.639337 288.190146 
L 274.915158 287.733081 
L 277.214543 263.222652 
L 269.639337 251.240607 
L 268.751025 263.222652 
L 269.414425 287.733081 
z
M 288.810824 312.24351 
L 291.712949 312.24351 
L 288.810824 299.981262 
L 287.879685 312.24351 
z
" clip-path="url(#p5a875cc57b)" style="fill: #470d60"/>
    <path d="M 269.639337 292.034163 
L 285.555925 312.24351 
L 287.879685 312.24351 
L 288.810824 299.981262 
L 291.712949 312.24351 
L 297.739563 312.24351 
L 292.499226 287.733081 
L 289.141856 263.222652 
L 288.810824 262.087727 
L 276.237052 238.712224 
L 269.792486 214.201795 
L 269.639337 213.506836 
L 269.152184 214.201795 
L 266.935171 238.712224 
L 266.719649 263.222652 
L 267.460239 287.733081 
z
M 269.414425 287.733081 
L 268.751025 263.222652 
L 269.639337 251.240607 
L 277.214543 263.222652 
L 274.915158 287.733081 
L 269.639337 288.190146 
z
" clip-path="url(#p5a875cc57b)" style="fill: #482475"/>
    <path d="M 269.639337 295.878179 
L 283.057785 312.24351 
L 285.555925 312.24351 
L 269.639337 292.034163 
L 267.460239 287.733081 
L 266.719649 263.222652 
L 266.935171 238.712224 
L 269.152184 214.201795 
L 269.639337 213.506836 
L 269.792486 214.201795 
L 276.237052 238.712224 
L 288.810824 262.087727 
L 289.141856 263.222652 
L 292.499226 287.733081 
L 297.739563 312.24351 
L 302.840922 312.24351 
L 298.034689 287.733081 
L 293.877473 263.222652 
L 288.810824 244.554096 
L 286.084972 238.712224 
L 277.671704 214.201795 
L 272.285915 189.691366 
L 269.639337 175.57074 
L 265.904611 165.180938 
L 256.802075 140.670509 
L 250.467849 118.04877 
L 241.291924 140.670509 
L 245.880038 165.180938 
L 250.467849 182.654968 
L 261.054603 189.691366 
L 250.467849 200.29537 
L 249.3699 214.201795 
L 250.467849 220.613127 
L 261.05176 238.712224 
L 264.556277 263.222652 
L 265.384201 287.733081 
z
M 231.296362 102.954048 
L 241.758128 91.649651 
L 232.594897 67.139223 
L 231.296362 62.551898 
L 229.763778 67.139223 
L 227.642411 91.649651 
z
" clip-path="url(#p5a875cc57b)" style="fill: #443983"/>
    <path d="M 58.752977 312.24351 
L 77.924464 312.24351 
L 97.095952 312.24351 
L 116.267439 312.24351 
L 135.438926 312.24351 
L 154.610413 312.24351 
L 173.781901 312.24351 
L 181.394469 312.24351 
L 173.781901 306.503368 
L 156.87974 287.733081 
L 154.610413 285.956511 
L 135.438926 277.047231 
L 123.850439 263.222652 
L 116.267439 256.959521 
L 100.212821 238.712224 
L 97.095952 236.49151 
L 77.924464 227.805661 
L 67.447729 214.201795 
L 58.752977 207.437613 
L 42.980538 189.691366 
L 39.58149 186.958181 
L 39.58149 189.691366 
L 39.58149 214.201795 
L 39.58149 238.712224 
L 39.58149 263.222652 
L 39.58149 287.733081 
L 39.58149 312.24351 
z
M 269.639337 299.722196 
L 280.356954 312.24351 
L 283.057785 312.24351 
L 269.639337 295.878179 
L 265.384201 287.733081 
L 264.556277 263.222652 
L 261.05176 238.712224 
L 250.467849 220.613127 
L 249.3699 214.201795 
L 250.467849 200.29537 
L 261.054603 189.691366 
L 250.467849 182.654968 
L 245.880038 165.180938 
L 241.291924 140.670509 
L 250.467849 118.04877 
L 256.802075 140.670509 
L 265.904611 165.180937 
L 269.639337 175.57074 
L 272.285915 189.691366 
L 277.671704 214.201795 
L 286.084972 238.712224 
L 288.810824 244.554096 
L 293.877473 263.222652 
L 298.034689 287.733081 
L 302.840922 312.24351 
L 307.263679 312.24351 
L 302.779899 287.733081 
L 298.022787 263.222652 
L 292.122783 238.712224 
L 288.810824 228.182055 
L 284.038874 214.201795 
L 277.963992 189.691366 
L 273.460724 165.180938 
L 269.639337 153.504657 
L 264.661942 140.670509 
L 257.983384 116.16008 
L 251.638773 91.649651 
L 250.467849 88.229269 
L 242.789048 67.139223 
L 237.037477 42.628794 
L 231.296362 25.387514 
L 212.463657 42.628794 
L 212.124875 44.967987 
L 211.908314 67.139223 
L 212.124875 68.242999 
L 222.113142 91.649651 
L 230.657078 116.16008 
L 229.968077 140.670509 
L 231.296362 147.27495 
L 240.221055 165.180938 
L 247.436066 189.691366 
L 247.054816 214.201795 
L 250.467849 233.458509 
L 253.901153 238.712224 
L 262.242554 263.222652 
L 263.170098 287.733081 
z
M 227.642411 91.649651 
L 229.763778 67.139223 
L 231.296362 62.551898 
L 232.594897 67.139223 
L 241.758128 91.649651 
L 231.296362 102.954048 
z
M 442.182722 312.24351 
L 461.354209 312.24351 
L 480.525696 312.24351 
L 499.697183 312.24351 
L 518.86867 312.24351 
L 538.040158 312.24351 
L 557.211645 312.24351 
L 576.383132 312.24351 
L 595.554619 312.24351 
L 614.726106 312.24351 
L 633.897594 312.24351 
L 653.069081 312.24351 
L 672.240568 312.24351 
L 691.412055 312.24351 
L 710.583543 312.24351 
L 729.75503 312.24351 
L 748.926517 312.24351 
L 768.098004 312.24351 
L 787.269491 312.24351 
L 806.440979 312.24351 
L 825.612466 312.24351 
L 844.783953 312.24351 
L 863.95544 312.24351 
L 883.126927 312.24351 
L 883.126927 287.733081 
L 883.126927 263.222652 
L 883.126927 238.712224 
L 883.126927 214.201795 
L 883.126927 189.691366 
L 883.126927 165.180938 
L 883.126927 140.670509 
L 883.126927 116.16008 
L 883.126927 91.649651 
L 883.126927 67.139223 
L 883.126927 42.628794 
L 883.126927 18.118365 
L 863.95544 18.118365 
L 844.783953 18.118365 
L 825.612466 18.118365 
L 806.440979 18.118365 
L 787.269491 18.118365 
L 768.098004 18.118365 
L 748.926517 18.118365 
L 729.75503 18.118365 
L 710.583543 18.118365 
L 691.412055 18.118365 
L 672.240568 18.118365 
L 653.069081 18.118365 
L 633.897594 18.118365 
L 614.726106 18.118365 
L 595.554619 18.118365 
L 576.383132 18.118365 
L 557.211645 18.118365 
L 538.040158 18.118365 
L 518.86867 18.118365 
L 499.697183 18.118365 
L 480.525696 18.118365 
L 461.354209 18.118365 
L 442.182722 18.118365 
L 423.011234 18.118365 
L 403.839747 18.118365 
L 384.66826 18.118365 
L 380.123097 18.118365 
L 383.453572 42.628794 
L 384.66826 52.437174 
L 391.542022 67.139223 
L 398.663538 91.649651 
L 402.93361 116.16008 
L 403.839747 122.34239 
L 412.069294 140.670509 
L 418.137379 165.180938 
L 421.758695 189.691366 
L 423.011234 200.683909 
L 427.257416 214.201795 
L 431.883367 238.712224 
L 434.121739 263.222652 
L 433.638646 287.733081 
L 428.000488 312.24351 
z
" clip-path="url(#p5a875cc57b)" style="fill: #3d4d8a"/>
    <path d="M 173.781901 306.503368 
L 181.394469 312.24351 
L 192.953388 312.24351 
L 199.594589 312.24351 
L 192.953388 306.501566 
L 173.781901 287.892276 
L 173.669289 287.733081 
L 154.610413 268.275974 
L 148.925371 263.222652 
L 135.438926 251.55791 
L 124.293145 238.712224 
L 116.267439 231.791435 
L 97.095952 214.390839 
L 96.895496 214.201795 
L 77.924464 196.07089 
L 72.085151 189.691366 
L 58.752977 177.140638 
L 47.799068 165.180938 
L 39.58149 158.771248 
L 39.58149 165.180938 
L 39.58149 186.958181 
L 42.980538 189.691366 
L 58.752977 207.437613 
L 67.447729 214.201795 
L 77.924464 227.805661 
L 97.095952 236.49151 
L 100.212821 238.712224 
L 116.267439 256.959521 
L 123.850439 263.222652 
L 135.438926 277.047231 
L 154.610413 285.956511 
L 156.87974 287.733081 
z
M 269.639337 303.566213 
L 277.417613 312.24351 
L 280.356954 312.24351 
L 269.639337 299.722196 
L 263.170098 287.733081 
L 262.242554 263.222652 
L 253.901153 238.712224 
L 250.467849 233.458509 
L 247.054816 214.201795 
L 247.436066 189.691366 
L 240.221055 165.180938 
L 231.296362 147.27495 
L 229.968077 140.670509 
L 230.657078 116.16008 
L 222.113142 91.649651 
L 212.124875 68.242999 
L 211.908314 67.139223 
L 212.124875 44.967987 
L 212.463657 42.628794 
L 231.296362 25.387514 
L 237.037477 42.628794 
L 242.789048 67.139223 
L 250.467849 88.229269 
L 251.638773 91.649651 
L 257.983384 116.16008 
L 264.661942 140.670509 
L 269.639337 153.504657 
L 273.460724 165.180938 
L 277.963992 189.691366 
L 284.038874 214.201795 
L 288.810824 228.182055 
L 292.122783 238.712224 
L 298.022787 263.222652 
L 302.779899 287.733081 
L 307.263679 312.24351 
L 307.982311 312.24351 
L 311.177019 312.24351 
L 307.982311 293.832096 
L 306.93256 287.733081 
L 301.708785 263.222652 
L 296.543754 238.712224 
L 289.45984 214.201795 
L 288.810824 212.41191 
L 282.813552 189.691366 
L 278.271116 165.180938 
L 271.183095 140.670509 
L 269.639337 135.886846 
L 264.431291 116.16008 
L 258.168651 91.649651 
L 250.601821 67.139223 
L 250.467849 66.557886 
L 245.65443 42.628794 
L 238.164023 18.118365 
L 231.296362 18.118365 
L 212.124875 18.118365 
L 205.493821 18.118365 
L 207.317361 42.628794 
L 208.531499 67.139223 
L 212.124875 84.557171 
L 215.479499 91.649651 
L 224.4779 116.16008 
L 226.939813 140.670509 
L 231.296362 161.382579 
L 233.399626 165.180938 
L 241.871758 189.691366 
L 244.5667 214.201795 
L 248.38836 238.712224 
L 250.467849 242.59523 
L 259.75601 263.222652 
L 260.79825 287.733081 
z
M 423.011234 312.24351 
L 428.000488 312.24351 
L 433.638646 287.733081 
L 434.121739 263.222652 
L 431.883367 238.712224 
L 427.257416 214.201795 
L 423.011234 200.683909 
L 421.758695 189.691366 
L 418.137379 165.180938 
L 412.069294 140.670509 
L 403.839747 122.34239 
L 402.93361 116.16008 
L 398.663538 91.649651 
L 391.542022 67.139223 
L 384.66826 52.437174 
L 383.453572 42.628794 
L 380.123097 18.118365 
L 367.358818 18.118365 
L 374.013478 42.628794 
L 378.862105 67.139223 
L 382.690319 91.649651 
L 384.66826 105.788798 
L 388.953839 116.16008 
L 396.210149 140.670509 
L 400.91059 165.180938 
L 403.839747 186.702032 
L 405.003923 189.691366 
L 412.201298 214.201795 
L 416.615516 238.712224 
L 418.928494 263.222652 
L 419.21432 287.733081 
L 417.320827 312.24351 
z
" clip-path="url(#p5a875cc57b)" style="fill: #355f8d"/>
    <path d="M 173.781901 287.892276 
L 192.953388 306.501566 
L 199.594589 312.24351 
L 212.124875 312.24351 
L 212.524445 312.24351 
L 212.124875 311.815146 
L 192.953388 291.137225 
L 190.178582 287.733081 
L 173.781901 270.631143 
L 167.802033 263.222652 
L 154.610413 249.930794 
L 144.862979 238.712224 
L 135.438926 229.883504 
L 121.703938 214.201795 
L 116.267439 208.877368 
L 100.342801 189.691366 
L 97.095952 186.533818 
L 79.497625 165.180938 
L 77.924464 163.766407 
L 58.752977 143.463424 
L 56.342562 140.670509 
L 39.58149 124.407077 
L 39.58149 140.670509 
L 39.58149 158.771248 
L 47.799068 165.180938 
L 58.752977 177.140638 
L 72.085151 189.691366 
L 77.924464 196.07089 
L 96.895496 214.201795 
L 97.095952 214.390839 
L 116.267439 231.791435 
L 124.293145 238.712224 
L 135.438926 251.55791 
L 148.925371 263.222652 
L 154.610413 268.275974 
L 173.669289 287.733081 
z
M 269.639337 307.41023 
L 274.193521 312.24351 
L 277.417613 312.24351 
L 269.639337 303.566213 
L 260.79825 287.733081 
L 259.75601 263.222652 
L 250.467849 242.59523 
L 248.38836 238.712224 
L 244.5667 214.201795 
L 241.871758 189.691366 
L 233.399626 165.180938 
L 231.296362 161.382579 
L 226.939813 140.670509 
L 224.4779 116.16008 
L 215.479499 91.649651 
L 212.124875 84.557171 
L 208.531499 67.139223 
L 207.317361 42.628794 
L 205.493821 18.118365 
L 192.953388 18.118365 
L 192.020043 18.118365 
L 192.953388 22.514348 
L 201.652827 42.628794 
L 204.773261 67.139223 
L 209.877336 91.649651 
L 212.124875 104.414638 
L 216.884982 116.16008 
L 223.608404 140.670509 
L 228.471549 165.180938 
L 231.296362 179.779752 
L 235.187566 189.691366 
L 241.877584 214.201795 
L 244.544037 238.712224 
L 250.467849 249.16542 
L 257.068729 263.222652 
L 258.244443 287.733081 
z
M 307.982311 293.832096 
L 311.177019 312.24351 
L 314.680351 312.24351 
L 310.853995 287.733081 
L 307.982311 277.285769 
L 305.027179 263.222652 
L 300.446045 238.712224 
L 294.638803 214.201795 
L 288.810824 196.807699 
L 287.045876 189.691366 
L 282.47359 165.180938 
L 277.094827 140.670509 
L 269.93853 116.16008 
L 269.639337 115.462691 
L 263.625711 91.649651 
L 257.826948 67.139223 
L 253.117428 42.628794 
L 250.467849 35.991985 
L 245.348875 18.118365 
L 238.164023 18.118365 
L 245.65443 42.628794 
L 250.467849 66.557886 
L 250.601821 67.139223 
L 258.168651 91.649651 
L 264.431291 116.16008 
L 269.639337 135.886846 
L 271.183095 140.670509 
L 278.271116 165.180938 
L 282.813552 189.691366 
L 288.810824 212.41191 
L 289.45984 214.201795 
L 296.543754 238.712224 
L 301.708785 263.222652 
L 306.93256 287.733081 
z
M 419.21432 287.733081 
L 418.928494 263.222652 
L 416.615516 238.712224 
L 412.201298 214.201795 
L 405.003923 189.691366 
L 403.839747 186.702032 
L 400.91059 165.180938 
L 396.210149 140.670509 
L 388.953839 116.16008 
L 384.66826 105.788798 
L 382.690319 91.649651 
L 378.862105 67.139223 
L 374.013478 42.628794 
L 367.358818 18.118365 
L 365.496773 18.118365 
L 359.421881 18.118365 
L 363.623488 42.628794 
L 365.496773 54.273674 
L 369.461057 67.139223 
L 375.512193 91.649651 
L 380.172463 116.16008 
L 383.995326 140.670509 
L 384.66826 145.212366 
L 391.636818 165.180938 
L 397.365047 189.691366 
L 401.165871 214.201795 
L 403.779505 238.712224 
L 403.839747 239.483303 
L 408.978662 263.222652 
L 410.675735 287.733081 
L 408.678999 312.24351 
L 417.320827 312.24351 
z
" clip-path="url(#p5a875cc57b)" style="fill: #2d708e"/>
    <path d="M 192.953388 291.137225 
L 212.124875 311.815146 
L 212.524445 312.24351 
L 218.983202 312.24351 
L 212.124875 304.128022 
L 199.249698 287.733081 
L 192.953388 280.851465 
L 179.099742 263.222652 
L 173.781901 257.618845 
L 158.773012 238.712224 
L 154.610413 234.181307 
L 138.254537 214.201795 
L 135.438926 211.373906 
L 118.581274 189.691366 
L 116.267439 187.337863 
L 99.249872 165.180938 
L 97.095952 162.949453 
L 79.254776 140.670509 
L 77.924464 139.33004 
L 59.207764 116.16008 
L 58.752977 115.643596 
L 39.911762 91.649651 
L 39.58149 91.335787 
L 39.58149 91.649651 
L 39.58149 116.16008 
L 39.58149 124.407077 
L 56.342562 140.670509 
L 58.752977 143.463424 
L 77.924464 163.766407 
L 79.497625 165.180938 
L 97.095952 186.533818 
L 100.342801 189.691366 
L 116.267439 208.877368 
L 121.703938 214.201795 
L 135.438926 229.883504 
L 144.862979 238.712224 
L 154.610413 249.930794 
L 167.802033 263.222652 
L 173.781901 270.631143 
L 190.178582 287.733081 
z
M 269.639337 311.254247 
L 270.623528 312.24351 
L 274.193521 312.24351 
L 269.639337 307.41023 
L 258.244443 287.733081 
L 257.068729 263.222652 
L 250.467849 249.16542 
L 244.544037 238.712224 
L 241.877584 214.201795 
L 235.187566 189.691366 
L 231.296362 179.779752 
L 228.471549 165.180938 
L 223.608404 140.670509 
L 216.884982 116.16008 
L 212.124875 104.414638 
L 209.877336 91.649651 
L 204.773261 67.139223 
L 201.652827 42.628794 
L 192.953388 22.514348 
L 192.020043 18.118365 
L 188.329851 18.118365 
L 192.953388 38.737113 
L 194.823322 42.628794 
L 200.536333 67.139223 
L 205.486876 91.649651 
L 209.371894 116.16008 
L 212.124875 121.382985 
L 219.906336 140.670509 
L 224.171227 165.180938 
L 227.868641 189.691366 
L 231.296362 194.197625 
L 238.952114 214.201795 
L 240.197344 238.712224 
L 250.467849 255.73561 
L 254.145433 263.222652 
L 255.478423 287.733081 
z
M 314.439271 287.733081 
L 308.085255 263.222652 
L 307.982311 262.82102 
L 303.938681 238.712224 
L 299.119743 214.201795 
L 292.410269 189.691366 
L 288.810824 179.529051 
L 286.204702 165.180938 
L 282.11369 140.670509 
L 276.920137 116.16008 
L 269.639337 97.276444 
L 268.313223 91.649651 
L 263.760649 67.139223 
L 260.296189 42.628794 
L 252.20121 18.118365 
L 250.467849 18.118365 
L 245.348875 18.118365 
L 250.467849 35.991985 
L 253.117428 42.628794 
L 257.826948 67.139223 
L 263.625711 91.649651 
L 269.639337 115.462691 
L 269.93853 116.16008 
L 277.094827 140.670509 
L 282.47359 165.180938 
L 287.045876 189.691366 
L 288.810824 196.807699 
L 294.638803 214.201795 
L 300.446045 238.712224 
L 305.027179 263.222652 
L 307.982311 277.285769 
L 310.853995 287.733081 
L 314.680351 312.24351 
L 317.849986 312.24351 
z
M 403.839747 312.24351 
L 408.678999 312.24351 
L 410.675735 287.733081 
L 408.978662 263.222652 
L 403.839747 239.483303 
L 403.779505 238.712224 
L 401.165871 214.201795 
L 397.365047 189.691366 
L 391.636818 165.180938 
L 384.66826 145.212366 
L 383.995326 140.670509 
L 380.172463 116.16008 
L 375.512193 91.649651 
L 369.461057 67.139223 
L 365.496773 54.273674 
L 363.623488 42.628794 
L 359.421881 18.118365 
L 350.869801 18.118365 
L 356.778485 42.628794 
L 361.671323 67.139223 
L 365.496773 88.990671 
L 366.349422 91.649651 
L 373.234154 116.16008 
L 378.480007 140.670509 
L 382.720364 165.180938 
L 384.66826 177.624742 
L 388.811737 189.691366 
L 394.935967 214.201795 
L 398.921477 238.712224 
L 401.421 263.222652 
L 402.549428 287.733081 
L 402.206478 312.24351 
z
" clip-path="url(#p5a875cc57b)" style="fill: #27808e"/>
    <path d="M 212.124875 304.128022 
L 218.983202 312.24351 
L 224.390548 312.24351 
L 212.124875 296.440898 
L 205.907395 287.733081 
L 192.953388 272.011184 
L 186.761811 263.222652 
L 173.781901 247.796383 
L 167.402831 238.712224 
L 154.610413 222.774537 
L 148.544862 214.201795 
L 135.438926 198.744942 
L 129.399394 189.691366 
L 116.267439 173.880004 
L 110.576327 165.180938 
L 97.095952 148.51611 
L 91.83768 140.670509 
L 77.924464 123.613707 
L 72.967002 116.16008 
L 58.752977 96.163061 
L 55.92993 91.649651 
L 39.58149 71.690746 
L 39.58149 91.335787 
L 39.911762 91.649651 
L 58.752977 115.643596 
L 59.207764 116.16008 
L 77.924464 139.33004 
L 79.254776 140.670509 
L 97.095952 162.949453 
L 99.249872 165.180938 
L 116.267439 187.337863 
L 118.581274 189.691366 
L 135.438926 211.373906 
L 138.254537 214.201795 
L 154.610413 234.181307 
L 158.773012 238.712224 
L 173.781901 257.618845 
L 179.099742 263.222652 
L 192.953388 280.851465 
L 199.249698 287.733081 
z
M 269.639337 312.24351 
L 270.623528 312.24351 
L 269.639337 311.254247 
L 255.478423 287.733081 
L 254.145433 263.222652 
L 250.467849 255.73561 
L 240.197344 238.712224 
L 238.952114 214.201795 
L 231.296362 194.197625 
L 227.868641 189.691366 
L 224.171227 165.180938 
L 219.906336 140.670509 
L 212.124875 121.382985 
L 209.371894 116.16008 
L 205.486876 91.649651 
L 200.536333 67.139223 
L 194.823322 42.628794 
L 192.953388 38.737113 
L 188.329851 18.118365 
L 184.17923 18.118365 
L 187.928453 42.628794 
L 192.953388 57.402622 
L 195.680726 67.139223 
L 200.428458 91.649651 
L 202.780082 116.16008 
L 212.124875 132.266512 
L 215.740681 140.670509 
L 219.232141 165.180938 
L 219.800437 189.691366 
L 231.296362 203.141028 
L 235.744704 214.201795 
L 235.196962 238.712224 
L 250.467849 262.305799 
L 250.940635 263.222652 
L 252.461697 287.733081 
L 262.888425 312.24351 
z
M 317.675821 287.733081 
L 312.532917 263.222652 
L 307.982311 244.227891 
L 307.099559 238.712224 
L 303.068667 214.201795 
L 298.156903 189.691366 
L 290.716777 165.180938 
L 288.810824 158.281433 
L 286.474334 140.670509 
L 282.688791 116.16008 
L 276.095084 91.649651 
L 269.639337 72.272239 
L 268.795325 67.139223 
L 266.198621 42.628794 
L 262.261669 18.118365 
L 252.20121 18.118365 
L 260.296189 42.628794 
L 263.760649 67.139223 
L 268.313223 91.649651 
L 269.639337 97.276444 
L 276.920137 116.16008 
L 282.11369 140.670509 
L 286.204702 165.180938 
L 288.810824 179.529051 
L 292.410269 189.691366 
L 299.119743 214.201795 
L 303.938681 238.712224 
L 307.982311 262.82102 
L 308.085255 263.222652 
L 314.439271 287.733081 
L 317.849986 312.24351 
L 320.744002 312.24351 
z
M 402.549428 287.733081 
L 401.421 263.222652 
L 398.921477 238.712224 
L 394.935967 214.201795 
L 388.811737 189.691366 
L 384.66826 177.624742 
L 382.720364 165.180938 
L 378.480007 140.670509 
L 373.234154 116.16008 
L 366.349422 91.649651 
L 365.496773 88.990671 
L 361.671323 67.139223 
L 356.778485 42.628794 
L 350.869801 18.118365 
L 346.325285 18.118365 
L 342.656954 18.118365 
L 346.325285 36.686157 
L 348.152767 42.628794 
L 354.834964 67.139223 
L 360.281864 91.649651 
L 364.95906 116.16008 
L 365.496773 119.02664 
L 371.866454 140.670509 
L 377.456612 165.180938 
L 381.97045 189.691366 
L 384.66826 206.223903 
L 387.266196 214.201795 
L 393.23178 238.712224 
L 396.866341 263.222652 
L 398.735017 287.733081 
L 398.97463 312.24351 
L 402.206478 312.24351 
z
" clip-path="url(#p5a875cc57b)" style="fill: #21918c"/>
    <path d="M 212.124875 296.440898 
L 224.390548 312.24351 
L 229.041353 312.24351 
L 212.124875 288.753774 
L 211.453349 287.733081 
L 193.039121 263.222652 
L 192.953388 263.176132 
L 174.394045 238.712224 
L 173.781901 237.941722 
L 157.031544 214.201795 
L 154.610413 211.273292 
L 138.74079 189.691366 
L 135.438926 186.043317 
L 120.616931 165.180938 
L 116.267439 159.863982 
L 103.306239 140.670509 
L 97.095952 133.653384 
L 85.248251 116.16008 
L 77.924464 107.513 
L 68.626249 91.649651 
L 58.752977 80.328987 
L 49.808942 67.139223 
L 39.58149 53.476168 
L 39.58149 67.139223 
L 39.58149 71.690746 
L 55.92993 91.649651 
L 58.752977 96.163061 
L 72.967002 116.16008 
L 77.924464 123.613707 
L 91.83768 140.670509 
L 97.095952 148.51611 
L 110.576327 165.180938 
L 116.267439 173.880004 
L 129.399394 189.691366 
L 135.438926 198.744942 
L 148.544862 214.201795 
L 154.610413 222.774537 
L 167.402831 238.712224 
L 173.781901 247.796383 
L 186.761811 263.222652 
L 192.953388 272.011184 
L 205.907395 287.733081 
z
M 250.467849 310.54584 
L 250.88669 312.24351 
L 262.888425 312.24351 
L 252.461697 287.733081 
L 250.940635 263.222652 
L 250.467849 262.305799 
L 235.196962 238.712224 
L 235.744704 214.201795 
L 231.296362 203.141028 
L 219.800437 189.691366 
L 219.232141 165.180938 
L 215.740681 140.670509 
L 212.124875 132.266512 
L 202.780082 116.16008 
L 200.428458 91.649651 
L 195.680726 67.139223 
L 192.953388 57.402622 
L 187.928453 42.628794 
L 184.17923 18.118365 
L 179.436686 18.118365 
L 179.898069 42.628794 
L 184.244669 67.139223 
L 173.781901 82.933043 
L 170.557397 91.649651 
L 162.43917 116.16008 
L 173.781901 126.487681 
L 189.232792 116.16008 
L 185.173795 91.649651 
L 192.953388 84.017326 
L 194.461727 91.649651 
L 194.553331 116.16008 
L 192.953388 126.026532 
L 188.995398 140.670509 
L 174.957816 165.180938 
L 192.953388 179.691796 
L 206.1034 189.691366 
L 208.759057 214.201795 
L 212.124875 237.742109 
L 214.212491 238.712224 
L 231.296362 246.461571 
L 241.182517 263.222652 
L 248.471133 287.733081 
z
M 227.387963 214.201795 
L 231.296362 212.08443 
L 232.195159 214.201795 
L 231.296362 224.666533 
z
M 208.20787 165.180938 
L 212.124875 153.659186 
L 213.430861 165.180938 
L 212.124875 176.159367 
z
M 320.625511 287.733081 
L 316.455981 263.222652 
L 311.619904 238.712224 
L 307.982311 223.390828 
L 306.598605 214.201795 
L 303.05635 189.691366 
L 297.874075 165.180938 
L 292.173152 140.670509 
L 288.810824 125.898981 
L 287.604225 116.16008 
L 283.66382 91.649651 
L 279.466331 67.139223 
L 275.224389 42.628794 
L 270.536675 18.118365 
L 269.639337 18.118365 
L 262.261669 18.118365 
L 266.198621 42.628794 
L 268.795325 67.139223 
L 269.639337 72.272239 
L 276.095084 91.649651 
L 282.688791 116.16008 
L 286.474334 140.670509 
L 288.810824 158.281433 
L 290.716777 165.180938 
L 298.156903 189.691366 
L 303.068667 214.201795 
L 307.099559 238.712224 
L 307.982311 244.227891 
L 312.532917 263.222652 
L 317.675821 287.733081 
L 320.744002 312.24351 
L 323.406521 312.24351 
z
M 398.735017 287.733081 
L 396.866341 263.222652 
L 393.23178 238.712224 
L 387.266196 214.201795 
L 384.66826 206.223903 
L 381.97045 189.691366 
L 377.456612 165.180938 
L 371.866454 140.670509 
L 365.496773 119.02664 
L 364.95906 116.16008 
L 360.281864 91.649651 
L 354.834964 67.139223 
L 348.152767 42.628794 
L 346.325285 36.686157 
L 342.656954 18.118365 
L 334.960367 18.118365 
L 340.866149 42.628794 
L 346.259265 67.139222 
L 346.325285 67.433293 
L 353.501106 91.649651 
L 359.34685 116.16008 
L 364.426496 140.670509 
L 365.496773 145.917069 
L 371.201845 165.180938 
L 376.927508 189.691366 
L 381.564715 214.201795 
L 384.66826 232.975601 
L 386.365623 238.712224 
L 391.5886 263.222652 
L 394.426537 287.733081 
L 395.395125 312.24351 
L 398.97463 312.24351 
z
M 154.610413 75.991458 
L 166.271358 67.139223 
L 161.343155 42.628794 
L 154.610413 38.16787 
L 142.537391 18.118365 
L 135.438926 18.118365 
L 128.943807 18.118365 
L 120.933726 42.628794 
L 135.438926 57.189683 
L 145.935418 67.139223 
z
" clip-path="url(#p5a875cc57b)" style="fill: #1fa188"/>
    <path d="M 212.124875 288.753774 
L 229.041353 312.24351 
L 231.296362 312.24351 
L 250.467849 312.24351 
L 250.88669 312.24351 
L 250.467849 310.54584 
L 248.471133 287.733081 
L 241.182517 263.222652 
L 231.296362 246.461571 
L 214.212491 238.712224 
L 212.124875 237.742109 
L 208.759057 214.201795 
L 206.1034 189.691366 
L 192.953388 179.691796 
L 174.957816 165.180938 
L 188.995398 140.670509 
L 192.953388 126.026532 
L 194.553331 116.16008 
L 194.461727 91.649651 
L 192.953388 84.017326 
L 185.173795 91.649651 
L 189.232792 116.16008 
L 173.781901 126.487681 
L 162.43917 116.16008 
L 170.557397 91.649651 
L 173.781901 82.933043 
L 184.244669 67.139223 
L 179.898069 42.628794 
L 179.436686 18.118365 
L 173.904851 18.118365 
L 173.781901 19.352192 
L 154.610413 20.231824 
L 153.52544 18.118365 
L 142.537391 18.118365 
L 154.610413 38.16787 
L 161.343155 42.628794 
L 166.271358 67.139223 
L 154.610413 75.991458 
L 145.935418 67.139222 
L 135.438926 57.189683 
L 120.933726 42.628794 
L 128.943807 18.118365 
L 116.267439 18.118365 
L 97.095952 18.118365 
L 90.876791 18.118365 
L 97.095952 26.494564 
L 111.445484 42.628794 
L 115.615165 67.139223 
L 116.267439 68.068558 
L 128.815097 91.649651 
L 135.438926 100.807629 
L 149.768675 116.16008 
L 154.610413 132.781862 
L 166.555006 140.670509 
L 166.1624 165.180938 
L 173.781901 175.135262 
L 188.374627 189.691366 
L 192.953388 196.664879 
L 203.26258 214.201795 
L 207.125793 238.712224 
L 212.124875 252.449196 
L 226.758384 263.222652 
L 231.296362 267.395296 
L 242.67932 287.733081 
L 231.296362 306.537329 
L 220.404638 287.733081 
L 212.124875 274.683782 
L 205.164527 263.222652 
L 192.953388 255.229105 
L 181.619918 238.712224 
L 173.781901 227.690875 
L 165.310726 214.201795 
L 154.610413 199.486267 
L 148.323259 189.691366 
L 135.438926 173.157699 
L 130.518612 165.180938 
L 116.267439 144.827641 
L 113.856771 140.670509 
L 97.095952 118.27929 
L 95.865762 116.16008 
L 78.45145 91.649651 
L 77.924464 91.001325 
L 60.624009 67.139223 
L 58.752977 64.822441 
L 46.141368 42.628794 
L 39.58149 34.799549 
L 39.58149 42.628794 
L 39.58149 53.476168 
L 49.808942 67.139223 
L 58.752977 80.328987 
L 68.626249 91.649651 
L 77.924464 107.513 
L 85.248251 116.16008 
L 97.095952 133.653384 
L 103.306239 140.670509 
L 116.267439 159.863982 
L 120.616931 165.180938 
L 135.438926 186.043317 
L 138.74079 189.691366 
L 154.610413 211.273292 
L 157.031544 214.201795 
L 173.781901 237.941722 
L 174.394045 238.712224 
L 192.953388 263.176132 
L 193.039121 263.222652 
L 211.453349 287.733081 
z
M 323.335077 287.733081 
L 319.965246 263.222652 
L 316.190768 238.712224 
L 311.537905 214.201795 
L 307.982311 195.139087 
L 307.326606 189.691366 
L 303.762008 165.180938 
L 299.215448 140.670509 
L 295.186283 116.16008 
L 290.806339 91.649651 
L 288.810824 71.237415 
L 288.528679 67.139223 
L 288.01081 42.628794 
L 285.001264 18.118365 
L 270.536675 18.118365 
L 275.224389 42.628794 
L 279.466331 67.139223 
L 283.66382 91.649651 
L 287.604225 116.16008 
L 288.810824 125.898981 
L 292.173152 140.670509 
L 297.874075 165.180938 
L 303.05635 189.691366 
L 306.598605 214.201795 
L 307.982311 223.390828 
L 311.619904 238.712224 
L 316.455981 263.222652 
L 320.625511 287.733081 
L 323.406521 312.24351 
L 325.871852 312.24351 
z
M 394.426537 287.733081 
L 391.5886 263.222652 
L 386.365623 238.712224 
L 384.66826 232.975601 
L 381.564715 214.201795 
L 376.927508 189.691366 
L 371.201845 165.180938 
L 365.496773 145.917069 
L 364.426496 140.670509 
L 359.34685 116.16008 
L 353.501106 91.649651 
L 346.325285 67.433293 
L 346.259265 67.139223 
L 340.866149 42.628794 
L 334.960367 18.118365 
L 327.153798 18.118365 
L 325.186077 18.118365 
L 327.153798 24.542495 
L 332.703127 42.628794 
L 339.226455 67.139223 
L 345.342041 91.649651 
L 346.325285 95.486016 
L 352.593341 116.16008 
L 358.724229 140.670509 
L 364.210796 165.180938 
L 365.496773 170.927761 
L 370.982315 189.691366 
L 376.63776 214.201795 
L 381.248649 238.712224 
L 384.66826 260.629699 
L 385.314052 263.222652 
L 389.476682 287.733081 
L 391.38405 312.24351 
L 395.395125 312.24351 
z
M 231.296362 224.666533 
L 232.195159 214.201795 
L 231.296362 212.08443 
L 227.387963 214.201795 
z
M 212.124875 176.159367 
L 213.430861 165.180938 
L 212.124875 153.659186 
L 208.20787 165.180938 
z
" clip-path="url(#p5a875cc57b)" style="fill: #2ab07f"/>
    <path d="M 231.296362 306.537329 
L 242.67932 287.733081 
L 231.296362 267.395296 
L 226.758384 263.222652 
L 212.124875 252.449196 
L 207.125793 238.712224 
L 203.26258 214.201795 
L 192.953388 196.664879 
L 188.374627 189.691366 
L 173.781901 175.135262 
L 166.1624 165.180938 
L 166.555006 140.670509 
L 154.610413 132.781862 
L 149.768675 116.16008 
L 135.438926 100.807629 
L 128.815097 91.649651 
L 116.267439 68.068558 
L 115.615165 67.139223 
L 111.445484 42.628794 
L 97.095952 26.494564 
L 90.876791 18.118365 
L 82.96712 18.118365 
L 77.924464 34.967508 
L 59.206822 42.628794 
L 58.752977 42.723309 
L 58.708237 42.628794 
L 42.529997 18.118365 
L 39.58149 18.118365 
L 39.58149 34.799549 
L 46.141368 42.628794 
L 58.752977 64.822441 
L 60.624009 67.139223 
L 77.924464 91.001325 
L 78.45145 91.649651 
L 95.865762 116.16008 
L 97.095952 118.27929 
L 113.856771 140.670509 
L 116.267439 144.827641 
L 130.518612 165.180938 
L 135.438926 173.157699 
L 148.323259 189.691366 
L 154.610413 199.486267 
L 165.310726 214.201795 
L 173.781901 227.690875 
L 181.619918 238.712224 
L 192.953388 255.229105 
L 205.164527 263.222652 
L 212.124875 274.683782 
L 220.404638 287.733081 
z
M 227.937825 287.733081 
L 231.296362 280.739098 
L 235.663724 287.733081 
L 231.296362 294.199695 
z
M 187.554121 238.712224 
L 173.781901 217.440027 
L 171.936096 214.201795 
L 161.321767 189.691366 
L 173.781901 185.384847 
L 178.801757 189.691366 
L 192.953388 208.485162 
L 196.676126 214.201795 
L 201.050056 238.712224 
L 192.953388 247.282079 
z
M 151.242582 165.180938 
L 135.438926 159.695295 
L 124.368903 140.670509 
L 116.267439 131.015596 
L 106.835039 116.16008 
L 97.095952 102.610391 
L 90.643227 91.649651 
L 77.924464 72.745245 
L 74.593159 67.139223 
L 77.924464 53.339137 
L 83.074912 42.628794 
L 97.095952 35.119216 
L 104.545697 42.628794 
L 100.636195 67.139223 
L 116.267439 85.088377 
L 120.258449 91.649651 
L 135.438926 110.237248 
L 141.716521 116.16008 
L 149.395386 140.670509 
L 154.610413 161.727422 
L 155.922287 165.180938 
L 154.610413 174.698937 
z
M 327.153798 312.24351 
L 329.934182 312.24351 
L 327.153798 301.26743 
L 325.840687 287.733081 
L 323.139735 263.222652 
L 320.209339 238.712224 
L 316.912772 214.201795 
L 313.873333 189.691366 
L 309.633012 165.180938 
L 307.982311 159.719202 
L 305.025425 140.670509 
L 302.304555 116.16008 
L 300.227714 91.649651 
L 299.726029 67.139223 
L 300.922449 42.628794 
L 303.049978 18.118365 
L 288.810824 18.118365 
L 285.001264 18.118365 
L 288.01081 42.628794 
L 288.528679 67.139223 
L 288.810824 71.237415 
L 290.806339 91.649651 
L 295.186283 116.16008 
L 299.215448 140.670509 
L 303.762008 165.180938 
L 307.326606 189.691366 
L 307.982311 195.139087 
L 311.537905 214.201795 
L 316.190768 238.712224 
L 319.965246 263.222652 
L 323.335077 287.733081 
L 325.871852 312.24351 
z
M 384.66826 294.446285 
L 386.822885 312.24351 
L 391.38405 312.24351 
L 389.476682 287.733081 
L 385.314052 263.222652 
L 384.66826 260.629699 
L 381.248649 238.712224 
L 376.63776 214.201795 
L 370.982315 189.691366 
L 365.496773 170.927761 
L 364.210796 165.180938 
L 358.724229 140.670509 
L 352.593341 116.16008 
L 346.325285 95.486016 
L 345.342041 91.649651 
L 339.226455 67.139223 
L 332.703127 42.628794 
L 327.153798 24.542495 
L 325.186077 18.118365 
L 312.823561 18.118365 
L 321.012645 42.628794 
L 327.153798 57.435416 
L 330.299687 67.139223 
L 337.424366 91.649651 
L 344.37313 116.16008 
L 346.325285 122.600975 
L 351.839739 140.670509 
L 358.18839 165.180938 
L 364.164205 189.691366 
L 365.496773 195.122756 
L 370.85322 214.201795 
L 376.298849 238.712224 
L 380.641731 263.222652 
L 383.982246 287.733081 
z
M 154.610413 20.231824 
L 173.781901 19.352192 
L 173.904851 18.118365 
L 173.781901 18.118365 
L 154.610413 18.118365 
L 153.52544 18.118365 
z
" clip-path="url(#p5a875cc57b)" style="fill: #44bf70"/>
    <path d="M 231.296362 294.199695 
L 235.663724 287.733081 
L 231.296362 280.739098 
L 227.937825 287.733081 
z
M 327.153798 301.26743 
L 329.934182 312.24351 
L 335.38957 312.24351 
L 330.643257 287.733081 
L 327.153798 274.958274 
L 326.037796 263.222652 
L 323.79481 238.712224 
L 321.539543 214.201795 
L 319.784425 189.691366 
L 318.133938 165.180938 
L 314.669755 140.670509 
L 309.382205 116.16008 
L 307.982311 107.645921 
L 307.563179 91.649651 
L 307.982311 74.813699 
L 324.909495 91.649651 
L 327.153798 92.111126 
L 334.575772 116.16008 
L 342.59445 140.670509 
L 346.325285 150.374485 
L 350.831139 165.180938 
L 357.429243 189.691366 
L 363.968878 214.201795 
L 365.496773 219.82137 
L 370.482771 238.712224 
L 375.555385 263.222652 
L 379.372231 287.733081 
L 382.113962 312.24351 
L 384.66826 312.24351 
L 386.822885 312.24351 
L 384.66826 294.446285 
L 383.982246 287.733081 
L 380.641731 263.222652 
L 376.298849 238.712224 
L 370.85322 214.201795 
L 365.496773 195.122756 
L 364.164205 189.691366 
L 358.18839 165.180938 
L 351.839739 140.670509 
L 346.325285 122.600975 
L 344.37313 116.16008 
L 337.424366 91.649651 
L 330.299687 67.139223 
L 327.153798 57.435416 
L 321.012645 42.628794 
L 312.823561 18.118365 
L 307.982311 18.118365 
L 303.049978 18.118365 
L 300.922449 42.628794 
L 299.726029 67.139223 
L 300.227714 91.649651 
L 302.304555 116.16008 
L 305.025425 140.670509 
L 307.982311 159.719202 
L 309.633012 165.180938 
L 313.873333 189.691366 
L 316.912772 214.201795 
L 320.209339 238.712224 
L 323.139735 263.222652 
L 325.840687 287.733081 
z
M 192.953388 247.282079 
L 201.050056 238.712224 
L 196.676126 214.201795 
L 192.953388 208.485162 
L 178.801757 189.691366 
L 173.781901 185.384847 
L 161.321767 189.691366 
L 171.936096 214.201795 
L 173.781901 217.440027 
L 187.554121 238.712224 
z
M 192.589159 238.712224 
L 192.953388 235.482353 
L 193.612947 238.712224 
L 192.953388 239.335052 
z
M 154.610413 174.698937 
L 155.922287 165.180938 
L 154.610413 161.727422 
L 149.395386 140.670509 
L 141.716521 116.16008 
L 135.438926 110.237248 
L 120.258449 91.649651 
L 116.267439 85.088377 
L 100.636195 67.139223 
L 104.545697 42.628794 
L 97.095952 35.119216 
L 83.074912 42.628794 
L 77.924464 53.339137 
L 74.593159 67.139223 
L 77.924464 72.745245 
L 90.643227 91.649651 
L 97.095952 102.610391 
L 106.835039 116.16008 
L 116.267439 131.015596 
L 124.368903 140.670509 
L 135.438926 159.695295 
L 151.242582 165.180938 
z
M 133.066752 140.670509 
L 135.438926 129.311675 
L 139.407347 140.670509 
L 135.438926 145.295629 
z
M 115.421107 116.16008 
L 116.267439 112.345677 
L 121.82731 116.16008 
L 116.267439 117.671375 
z
M 58.752977 42.723309 
L 59.206822 42.628794 
L 77.924464 34.967508 
L 82.96712 18.118365 
L 77.924464 18.118365 
L 66.697908 18.118365 
L 58.752977 23.067772 
L 56.062814 18.118365 
L 42.529997 18.118365 
L 58.708237 42.628794 
z
" clip-path="url(#p5a875cc57b)" style="fill: #67cc5c"/>
    <path d="M 337.36078 287.733081 
L 333.379341 263.222652 
L 327.153798 240.255417 
L 327.03152 238.712224 
L 325.601249 214.201795 
L 324.802826 189.691366 
L 324.900278 165.180938 
L 326.654629 140.670509 
L 327.153798 138.041779 
L 328.075727 140.670509 
L 336.927165 165.180938 
L 346.325285 181.066339 
L 348.977883 189.691366 
L 355.840222 214.201795 
L 363.00447 238.712224 
L 365.496773 246.525026 
L 369.549728 263.222652 
L 374.019976 287.733081 
L 377.126814 312.24351 
L 382.113962 312.24351 
L 379.372231 287.733081 
L 375.555385 263.222652 
L 370.482771 238.712224 
L 365.496773 219.82137 
L 363.968878 214.201795 
L 357.429243 189.691366 
L 350.831139 165.180938 
L 346.325285 150.374485 
L 342.59445 140.670509 
L 334.575772 116.16008 
L 327.153798 92.111126 
L 324.909495 91.649651 
L 307.982311 74.813699 
L 307.563179 91.649651 
L 307.982311 107.645921 
L 309.382205 116.16008 
L 314.669755 140.670509 
L 318.133938 165.180938 
L 319.784425 189.691366 
L 321.539543 214.201795 
L 323.79481 238.712224 
L 326.037796 263.222652 
L 327.153798 274.958274 
L 330.643257 287.733081 
L 335.38957 312.24351 
L 340.075848 312.24351 
z
M 192.953388 239.335052 
L 193.612947 238.712224 
L 192.953388 235.482353 
L 192.589159 238.712224 
z
M 135.438926 145.295629 
L 139.407347 140.670509 
L 135.438926 129.311675 
L 133.066752 140.670509 
z
M 116.267439 117.671375 
L 121.82731 116.16008 
L 116.267439 112.345677 
L 115.421107 116.16008 
z
M 58.752977 23.067772 
L 66.697908 18.118365 
L 58.752977 18.118365 
L 56.062814 18.118365 
z
" clip-path="url(#p5a875cc57b)" style="fill: #90d743"/>
    <path d="M 342.948142 287.733081 
L 341.819696 263.222652 
L 341.953002 238.712224 
L 346.325285 219.398048 
L 351.765922 238.712224 
L 359.19884 263.222652 
L 365.496773 277.620003 
L 367.639734 287.733081 
L 371.259069 312.24351 
L 377.126814 312.24351 
L 374.019976 287.733081 
L 369.549728 263.222652 
L 365.496773 246.525026 
L 363.00447 238.712224 
L 355.840222 214.201795 
L 348.977883 189.691366 
L 346.325285 181.066339 
L 336.927165 165.180938 
L 328.075727 140.670509 
L 327.153798 138.041779 
L 326.654629 140.670509 
L 324.900278 165.180938 
L 324.802826 189.691366 
L 325.601249 214.201795 
L 327.03152 238.712224 
L 327.153798 240.255417 
L 333.379341 263.222652 
L 337.36078 287.733081 
L 340.075848 312.24351 
L 344.183324 312.24351 
z
" clip-path="url(#p5a875cc57b)" style="fill: #bddf26"/>
    <path d="M 346.325285 312.24351 
L 365.496773 312.24351 
L 371.259069 312.24351 
L 367.639734 287.733081 
L 365.496773 277.620003 
L 359.19884 263.222652 
L 351.765922 238.712224 
L 346.325285 219.398048 
L 341.953002 238.712224 
L 341.819696 263.222652 
L 342.948142 287.733081 
L 344.183324 312.24351 
z
" clip-path="url(#p5a875cc57b)" style="fill: #eae51a"/>
   </g>
   <g id="PathCollection_1">
    <defs>
     <path id="mdc0741d33a" d="M -3 3 
L 3 -3 
M -3 -3 
L 3 3 
" style="stroke: #ff0000; stroke-width: 1.5"/>
    </defs>
    <g clip-path="url(#p5a875cc57b)">
     <use xlink:href="#mdc0741d33a" x="365.496773" y="312.24351" style="fill: #ff0000; stroke: #ff0000; stroke-width: 1.5"/>
     <use xlink:href="#mdc0741d33a" x="346.325285" y="287.733081" style="fill: #ff0000; stroke: #ff0000; stroke-width: 1.5"/>
     <use xlink:href="#mdc0741d33a" x="346.325285" y="263.222652" style="fill: #ff0000; stroke: #ff0000; stroke-width: 1.5"/>
     <use xlink:href="#mdc0741d33a" x="346.325285" y="238.712224" style="fill: #ff0000; stroke: #ff0000; stroke-width: 1.5"/>
     <use xlink:href="#mdc0741d33a" x="346.325285" y="214.201795" style="fill: #ff0000; stroke: #ff0000; stroke-width: 1.5"/>
     <use xlink:href="#mdc0741d33a" x="327.153798" y="189.691366" style="fill: #ff0000; stroke: #ff0000; stroke-width: 1.5"/>
     <use xlink:href="#mdc0741d33a" x="327.153798" y="165.180938" style="fill: #ff0000; stroke: #ff0000; stroke-width: 1.5"/>
     <use xlink:href="#mdc0741d33a" x="327.153798" y="140.670509" style="fill: #ff0000; stroke: #ff0000; stroke-width: 1.5"/>
     <use xlink:href="#mdc0741d33a" x="327.153798" y="116.16008" style="fill: #ff0000; stroke: #ff0000; stroke-width: 1.5"/>
     <use xlink:href="#mdc0741d33a" x="307.982311" y="91.649651" style="fill: #ff0000; stroke: #ff0000; stroke-width: 1.5"/>
     <use xlink:href="#mdc0741d33a" x="307.982311" y="67.139223" style="fill: #ff0000; stroke: #ff0000; stroke-width: 1.5"/>
     <use xlink:href="#mdc0741d33a" x="97.095952" y="42.628794" style="fill: #ff0000; stroke: #ff0000; stroke-width: 1.5"/>
     <use xlink:href="#mdc0741d33a" x="58.752977" y="18.118365" style="fill: #ff0000; stroke: #ff0000; stroke-width: 1.5"/>
    </g>
   </g>
   <g id="matplotlib.axis_1">
    <g id="xtick_1">
     <g id="line2d_1">
      <defs>
       <path id="m38f3b05bbe" d="M 0 0 
L 0 3.5 
" style="stroke: #000000; stroke-width: 0.8"/>
      </defs>
      <g>
       <use xlink:href="#m38f3b05bbe" x="39.58149" y="312.24351" style="stroke: #000000; stroke-width: 0.8"/>
      </g>
     </g>
     <g id="text_1">
      <!-- $\mathdefault{10^{-5}}$ -->
      <g transform="translate(27.83149 326.841947) scale(0.1 -0.1)">
       <defs>
        <path id="DejaVuSans-31" d="M 794 531 
L 1825 531 
L 1825 4091 
L 703 3866 
L 703 4441 
L 1819 4666 
L 2450 4666 
L 2450 531 
L 3481 531 
L 3481 0 
L 794 0 
L 794 531 
z
" transform="scale(0.015625)"/>
        <path id="DejaVuSans-30" d="M 2034 4250 
Q 1547 4250 1301 3770 
Q 1056 3291 1056 2328 
Q 1056 1369 1301 889 
Q 1547 409 2034 409 
Q 2525 409 2770 889 
Q 3016 1369 3016 2328 
Q 3016 3291 2770 3770 
Q 2525 4250 2034 4250 
z
M 2034 4750 
Q 2819 4750 3233 4129 
Q 3647 3509 3647 2328 
Q 3647 1150 3233 529 
Q 2819 -91 2034 -91 
Q 1250 -91 836 529 
Q 422 1150 422 2328 
Q 422 3509 836 4129 
Q 1250 4750 2034 4750 
z
" transform="scale(0.015625)"/>
        <path id="DejaVuSans-2212" d="M 678 2272 
L 4684 2272 
L 4684 1741 
L 678 1741 
L 678 2272 
z
" transform="scale(0.015625)"/>
        <path id="DejaVuSans-35" d="M 691 4666 
L 3169 4666 
L 3169 4134 
L 1269 4134 
L 1269 2991 
Q 1406 3038 1543 3061 
Q 1681 3084 1819 3084 
Q 2600 3084 3056 2656 
Q 3513 2228 3513 1497 
Q 3513 744 3044 326 
Q 2575 -91 1722 -91 
Q 1428 -91 1123 -41 
Q 819 9 494 109 
L 494 744 
Q 775 591 1075 516 
Q 1375 441 1709 441 
Q 2250 441 2565 725 
Q 2881 1009 2881 1497 
Q 2881 1984 2565 2268 
Q 2250 2553 1709 2553 
Q 1456 2553 1204 2497 
Q 953 2441 691 2322 
L 691 4666 
z
" transform="scale(0.015625)"/>
       </defs>
       <use xlink:href="#DejaVuSans-31" transform="translate(0 0.684375)"/>
       <use xlink:href="#DejaVuSans-30" transform="translate(63.623047 0.684375)"/>
       <use xlink:href="#DejaVuSans-2212" transform="translate(128.203125 38.965625) scale(0.7)"/>
       <use xlink:href="#DejaVuSans-35" transform="translate(186.855469 38.965625) scale(0.7)"/>
      </g>
     </g>
    </g>
    <g id="xtick_2">
     <g id="line2d_2">
      <g>
       <use xlink:href="#m38f3b05bbe" x="116.267439" y="312.24351" style="stroke: #000000; stroke-width: 0.8"/>
      </g>
     </g>
     <g id="text_2">
      <!-- $\mathdefault{10^{-4}}$ -->
      <g transform="translate(104.517439 326.841947) scale(0.1 -0.1)">
       <defs>
        <path id="DejaVuSans-34" d="M 2419 4116 
L 825 1625 
L 2419 1625 
L 2419 4116 
z
M 2253 4666 
L 3047 4666 
L 3047 1625 
L 3713 1625 
L 3713 1100 
L 3047 1100 
L 3047 0 
L 2419 0 
L 2419 1100 
L 313 1100 
L 313 1709 
L 2253 4666 
z
" transform="scale(0.015625)"/>
       </defs>
       <use xlink:href="#DejaVuSans-31" transform="translate(0 0.684375)"/>
       <use xlink:href="#DejaVuSans-30" transform="translate(63.623047 0.684375)"/>
       <use xlink:href="#DejaVuSans-2212" transform="translate(128.203125 38.965625) scale(0.7)"/>
       <use xlink:href="#DejaVuSans-34" transform="translate(186.855469 38.965625) scale(0.7)"/>
      </g>
     </g>
    </g>
    <g id="xtick_3">
     <g id="line2d_3">
      <g>
       <use xlink:href="#m38f3b05bbe" x="192.953388" y="312.24351" style="stroke: #000000; stroke-width: 0.8"/>
      </g>
     </g>
     <g id="text_3">
      <!-- $\mathdefault{10^{-3}}$ -->
      <g transform="translate(181.203388 326.841947) scale(0.1 -0.1)">
       <defs>
        <path id="DejaVuSans-33" d="M 2597 2516 
Q 3050 2419 3304 2112 
Q 3559 1806 3559 1356 
Q 3559 666 3084 287 
Q 2609 -91 1734 -91 
Q 1441 -91 1130 -33 
Q 819 25 488 141 
L 488 750 
Q 750 597 1062 519 
Q 1375 441 1716 441 
Q 2309 441 2620 675 
Q 2931 909 2931 1356 
Q 2931 1769 2642 2001 
Q 2353 2234 1838 2234 
L 1294 2234 
L 1294 2753 
L 1863 2753 
Q 2328 2753 2575 2939 
Q 2822 3125 2822 3475 
Q 2822 3834 2567 4026 
Q 2313 4219 1838 4219 
Q 1578 4219 1281 4162 
Q 984 4106 628 3988 
L 628 4550 
Q 988 4650 1302 4700 
Q 1616 4750 1894 4750 
Q 2613 4750 3031 4423 
Q 3450 4097 3450 3541 
Q 3450 3153 3228 2886 
Q 3006 2619 2597 2516 
z
" transform="scale(0.015625)"/>
       </defs>
       <use xlink:href="#DejaVuSans-31" transform="translate(0 0.765625)"/>
       <use xlink:href="#DejaVuSans-30" transform="translate(63.623047 0.765625)"/>
       <use xlink:href="#DejaVuSans-2212" transform="translate(128.203125 39.046875) scale(0.7)"/>
       <use xlink:href="#DejaVuSans-33" transform="translate(186.855469 39.046875) scale(0.7)"/>
      </g>
     </g>
    </g>
    <g id="xtick_4">
     <g id="line2d_4">
      <g>
       <use xlink:href="#m38f3b05bbe" x="269.639337" y="312.24351" style="stroke: #000000; stroke-width: 0.8"/>
      </g>
     </g>
     <g id="text_4">
      <!-- $\mathdefault{10^{-2}}$ -->
      <g transform="translate(257.889337 326.841947) scale(0.1 -0.1)">
       <defs>
        <path id="DejaVuSans-32" d="M 1228 531 
L 3431 531 
L 3431 0 
L 469 0 
L 469 531 
Q 828 903 1448 1529 
Q 2069 2156 2228 2338 
Q 2531 2678 2651 2914 
Q 2772 3150 2772 3378 
Q 2772 3750 2511 3984 
Q 2250 4219 1831 4219 
Q 1534 4219 1204 4116 
Q 875 4013 500 3803 
L 500 4441 
Q 881 4594 1212 4672 
Q 1544 4750 1819 4750 
Q 2544 4750 2975 4387 
Q 3406 4025 3406 3419 
Q 3406 3131 3298 2873 
Q 3191 2616 2906 2266 
Q 2828 2175 2409 1742 
Q 1991 1309 1228 531 
z
" transform="scale(0.015625)"/>
       </defs>
       <use xlink:href="#DejaVuSans-31" transform="translate(0 0.765625)"/>
       <use xlink:href="#DejaVuSans-30" transform="translate(63.623047 0.765625)"/>
       <use xlink:href="#DejaVuSans-2212" transform="translate(128.203125 39.046875) scale(0.7)"/>
       <use xlink:href="#DejaVuSans-32" transform="translate(186.855469 39.046875) scale(0.7)"/>
      </g>
     </g>
    </g>
    <g id="xtick_5">
     <g id="line2d_5">
      <g>
       <use xlink:href="#m38f3b05bbe" x="346.325285" y="312.24351" style="stroke: #000000; stroke-width: 0.8"/>
      </g>
     </g>
     <g id="text_5">
      <!-- $\mathdefault{10^{-1}}$ -->
      <g transform="translate(334.575285 326.841947) scale(0.1 -0.1)">
       <use xlink:href="#DejaVuSans-31" transform="translate(0 0.684375)"/>
       <use xlink:href="#DejaVuSans-30" transform="translate(63.623047 0.684375)"/>
       <use xlink:href="#DejaVuSans-2212" transform="translate(128.203125 38.965625) scale(0.7)"/>
       <use xlink:href="#DejaVuSans-31" transform="translate(186.855469 38.965625) scale(0.7)"/>
      </g>
     </g>
    </g>
    <g id="xtick_6">
     <g id="line2d_6">
      <defs>
       <path id="m360e1f0208" d="M 0 0 
L 0 2 
" style="stroke: #000000; stroke-width: 0.6"/>
      </defs>
      <g>
       <use xlink:href="#m360e1f0208" x="62.666261" y="312.24351" style="stroke: #000000; stroke-width: 0.6"/>
      </g>
     </g>
    </g>
    <g id="xtick_7">
     <g id="line2d_7">
      <g>
       <use xlink:href="#m360e1f0208" x="76.169986" y="312.24351" style="stroke: #000000; stroke-width: 0.6"/>
      </g>
     </g>
    </g>
    <g id="xtick_8">
     <g id="line2d_8">
      <g>
       <use xlink:href="#m360e1f0208" x="85.751032" y="312.24351" style="stroke: #000000; stroke-width: 0.6"/>
      </g>
     </g>
    </g>
    <g id="xtick_9">
     <g id="line2d_9">
      <g>
       <use xlink:href="#m360e1f0208" x="93.182668" y="312.24351" style="stroke: #000000; stroke-width: 0.6"/>
      </g>
     </g>
    </g>
    <g id="xtick_10">
     <g id="line2d_10">
      <g>
       <use xlink:href="#m360e1f0208" x="99.254757" y="312.24351" style="stroke: #000000; stroke-width: 0.6"/>
      </g>
     </g>
    </g>
    <g id="xtick_11">
     <g id="line2d_11">
      <g>
       <use xlink:href="#m360e1f0208" x="104.388635" y="312.24351" style="stroke: #000000; stroke-width: 0.6"/>
      </g>
     </g>
    </g>
    <g id="xtick_12">
     <g id="line2d_12">
      <g>
       <use xlink:href="#m360e1f0208" x="108.835803" y="312.24351" style="stroke: #000000; stroke-width: 0.6"/>
      </g>
     </g>
    </g>
    <g id="xtick_13">
     <g id="line2d_13">
      <g>
       <use xlink:href="#m360e1f0208" x="112.758482" y="312.24351" style="stroke: #000000; stroke-width: 0.6"/>
      </g>
     </g>
    </g>
    <g id="xtick_14">
     <g id="line2d_14">
      <g>
       <use xlink:href="#m360e1f0208" x="139.35221" y="312.24351" style="stroke: #000000; stroke-width: 0.6"/>
      </g>
     </g>
    </g>
    <g id="xtick_15">
     <g id="line2d_15">
      <g>
       <use xlink:href="#m360e1f0208" x="152.855935" y="312.24351" style="stroke: #000000; stroke-width: 0.6"/>
      </g>
     </g>
    </g>
    <g id="xtick_16">
     <g id="line2d_16">
      <g>
       <use xlink:href="#m360e1f0208" x="162.436981" y="312.24351" style="stroke: #000000; stroke-width: 0.6"/>
      </g>
     </g>
    </g>
    <g id="xtick_17">
     <g id="line2d_17">
      <g>
       <use xlink:href="#m360e1f0208" x="169.868617" y="312.24351" style="stroke: #000000; stroke-width: 0.6"/>
      </g>
     </g>
    </g>
    <g id="xtick_18">
     <g id="line2d_18">
      <g>
       <use xlink:href="#m360e1f0208" x="175.940706" y="312.24351" style="stroke: #000000; stroke-width: 0.6"/>
      </g>
     </g>
    </g>
    <g id="xtick_19">
     <g id="line2d_19">
      <g>
       <use xlink:href="#m360e1f0208" x="181.074584" y="312.24351" style="stroke: #000000; stroke-width: 0.6"/>
      </g>
     </g>
    </g>
    <g id="xtick_20">
     <g id="line2d_20">
      <g>
       <use xlink:href="#m360e1f0208" x="185.521751" y="312.24351" style="stroke: #000000; stroke-width: 0.6"/>
      </g>
     </g>
    </g>
    <g id="xtick_21">
     <g id="line2d_21">
      <g>
       <use xlink:href="#m360e1f0208" x="189.444431" y="312.24351" style="stroke: #000000; stroke-width: 0.6"/>
      </g>
     </g>
    </g>
    <g id="xtick_22">
     <g id="line2d_22">
      <g>
       <use xlink:href="#m360e1f0208" x="216.038159" y="312.24351" style="stroke: #000000; stroke-width: 0.6"/>
      </g>
     </g>
    </g>
    <g id="xtick_23">
     <g id="line2d_23">
      <g>
       <use xlink:href="#m360e1f0208" x="229.541884" y="312.24351" style="stroke: #000000; stroke-width: 0.6"/>
      </g>
     </g>
    </g>
    <g id="xtick_24">
     <g id="line2d_24">
      <g>
       <use xlink:href="#m360e1f0208" x="239.122929" y="312.24351" style="stroke: #000000; stroke-width: 0.6"/>
      </g>
     </g>
    </g>
    <g id="xtick_25">
     <g id="line2d_25">
      <g>
       <use xlink:href="#m360e1f0208" x="246.554566" y="312.24351" style="stroke: #000000; stroke-width: 0.6"/>
      </g>
     </g>
    </g>
    <g id="xtick_26">
     <g id="line2d_26">
      <g>
       <use xlink:href="#m360e1f0208" x="252.626655" y="312.24351" style="stroke: #000000; stroke-width: 0.6"/>
      </g>
     </g>
    </g>
    <g id="xtick_27">
     <g id="line2d_27">
      <g>
       <use xlink:href="#m360e1f0208" x="257.760533" y="312.24351" style="stroke: #000000; stroke-width: 0.6"/>
      </g>
     </g>
    </g>
    <g id="xtick_28">
     <g id="line2d_28">
      <g>
       <use xlink:href="#m360e1f0208" x="262.2077" y="312.24351" style="stroke: #000000; stroke-width: 0.6"/>
      </g>
     </g>
    </g>
    <g id="xtick_29">
     <g id="line2d_29">
      <g>
       <use xlink:href="#m360e1f0208" x="266.13038" y="312.24351" style="stroke: #000000; stroke-width: 0.6"/>
      </g>
     </g>
    </g>
    <g id="xtick_30">
     <g id="line2d_30">
      <g>
       <use xlink:href="#m360e1f0208" x="292.724107" y="312.24351" style="stroke: #000000; stroke-width: 0.6"/>
      </g>
     </g>
    </g>
    <g id="xtick_31">
     <g id="line2d_31">
      <g>
       <use xlink:href="#m360e1f0208" x="306.227833" y="312.24351" style="stroke: #000000; stroke-width: 0.6"/>
      </g>
     </g>
    </g>
    <g id="xtick_32">
     <g id="line2d_32">
      <g>
       <use xlink:href="#m360e1f0208" x="315.808878" y="312.24351" style="stroke: #000000; stroke-width: 0.6"/>
      </g>
     </g>
    </g>
    <g id="xtick_33">
     <g id="line2d_33">
      <g>
       <use xlink:href="#m360e1f0208" x="323.240515" y="312.24351" style="stroke: #000000; stroke-width: 0.6"/>
      </g>
     </g>
    </g>
    <g id="xtick_34">
     <g id="line2d_34">
      <g>
       <use xlink:href="#m360e1f0208" x="329.312604" y="312.24351" style="stroke: #000000; stroke-width: 0.6"/>
      </g>
     </g>
    </g>
    <g id="xtick_35">
     <g id="line2d_35">
      <g>
       <use xlink:href="#m360e1f0208" x="334.446482" y="312.24351" style="stroke: #000000; stroke-width: 0.6"/>
      </g>
     </g>
    </g>
    <g id="xtick_36">
     <g id="line2d_36">
      <g>
       <use xlink:href="#m360e1f0208" x="338.893649" y="312.24351" style="stroke: #000000; stroke-width: 0.6"/>
      </g>
     </g>
    </g>
    <g id="xtick_37">
     <g id="line2d_37">
      <g>
       <use xlink:href="#m360e1f0208" x="342.816329" y="312.24351" style="stroke: #000000; stroke-width: 0.6"/>
      </g>
     </g>
    </g>
    <g id="xtick_38">
     <g id="line2d_38">
      <g>
       <use xlink:href="#m360e1f0208" x="369.410056" y="312.24351" style="stroke: #000000; stroke-width: 0.6"/>
      </g>
     </g>
    </g>
    <g id="xtick_39">
     <g id="line2d_39">
      <g>
       <use xlink:href="#m360e1f0208" x="382.913782" y="312.24351" style="stroke: #000000; stroke-width: 0.6"/>
      </g>
     </g>
    </g>
    <g id="text_6">
     <!-- bandwidth -->
     <g transform="translate(185.762375 340.520072) scale(0.1 -0.1)">
      <defs>
       <path id="DejaVuSans-62" d="M 3116 1747 
Q 3116 2381 2855 2742 
Q 2594 3103 2138 3103 
Q 1681 3103 1420 2742 
Q 1159 2381 1159 1747 
Q 1159 1113 1420 752 
Q 1681 391 2138 391 
Q 2594 391 2855 752 
Q 3116 1113 3116 1747 
z
M 1159 2969 
Q 1341 3281 1617 3432 
Q 1894 3584 2278 3584 
Q 2916 3584 3314 3078 
Q 3713 2572 3713 1747 
Q 3713 922 3314 415 
Q 2916 -91 2278 -91 
Q 1894 -91 1617 61 
Q 1341 213 1159 525 
L 1159 0 
L 581 0 
L 581 4863 
L 1159 4863 
L 1159 2969 
z
" transform="scale(0.015625)"/>
       <path id="DejaVuSans-61" d="M 2194 1759 
Q 1497 1759 1228 1600 
Q 959 1441 959 1056 
Q 959 750 1161 570 
Q 1363 391 1709 391 
Q 2188 391 2477 730 
Q 2766 1069 2766 1631 
L 2766 1759 
L 2194 1759 
z
M 3341 1997 
L 3341 0 
L 2766 0 
L 2766 531 
Q 2569 213 2275 61 
Q 1981 -91 1556 -91 
Q 1019 -91 701 211 
Q 384 513 384 1019 
Q 384 1609 779 1909 
Q 1175 2209 1959 2209 
L 2766 2209 
L 2766 2266 
Q 2766 2663 2505 2880 
Q 2244 3097 1772 3097 
Q 1472 3097 1187 3025 
Q 903 2953 641 2809 
L 641 3341 
Q 956 3463 1253 3523 
Q 1550 3584 1831 3584 
Q 2591 3584 2966 3190 
Q 3341 2797 3341 1997 
z
" transform="scale(0.015625)"/>
       <path id="DejaVuSans-6e" d="M 3513 2113 
L 3513 0 
L 2938 0 
L 2938 2094 
Q 2938 2591 2744 2837 
Q 2550 3084 2163 3084 
Q 1697 3084 1428 2787 
Q 1159 2491 1159 1978 
L 1159 0 
L 581 0 
L 581 3500 
L 1159 3500 
L 1159 2956 
Q 1366 3272 1645 3428 
Q 1925 3584 2291 3584 
Q 2894 3584 3203 3211 
Q 3513 2838 3513 2113 
z
" transform="scale(0.015625)"/>
       <path id="DejaVuSans-64" d="M 2906 2969 
L 2906 4863 
L 3481 4863 
L 3481 0 
L 2906 0 
L 2906 525 
Q 2725 213 2448 61 
Q 2172 -91 1784 -91 
Q 1150 -91 751 415 
Q 353 922 353 1747 
Q 353 2572 751 3078 
Q 1150 3584 1784 3584 
Q 2172 3584 2448 3432 
Q 2725 3281 2906 2969 
z
M 947 1747 
Q 947 1113 1208 752 
Q 1469 391 1925 391 
Q 2381 391 2643 752 
Q 2906 1113 2906 1747 
Q 2906 2381 2643 2742 
Q 2381 3103 1925 3103 
Q 1469 3103 1208 2742 
Q 947 2381 947 1747 
z
" transform="scale(0.015625)"/>
       <path id="DejaVuSans-77" d="M 269 3500 
L 844 3500 
L 1563 769 
L 2278 3500 
L 2956 3500 
L 3675 769 
L 4391 3500 
L 4966 3500 
L 4050 0 
L 3372 0 
L 2619 2869 
L 1863 0 
L 1184 0 
L 269 3500 
z
" transform="scale(0.015625)"/>
       <path id="DejaVuSans-69" d="M 603 3500 
L 1178 3500 
L 1178 0 
L 603 0 
L 603 3500 
z
M 603 4863 
L 1178 4863 
L 1178 4134 
L 603 4134 
L 603 4863 
z
" transform="scale(0.015625)"/>
       <path id="DejaVuSans-74" d="M 1172 4494 
L 1172 3500 
L 2356 3500 
L 2356 3053 
L 1172 3053 
L 1172 1153 
Q 1172 725 1289 603 
Q 1406 481 1766 481 
L 2356 481 
L 2356 0 
L 1766 0 
Q 1100 0 847 248 
Q 594 497 594 1153 
L 594 3053 
L 172 3053 
L 172 3500 
L 594 3500 
L 594 4494 
L 1172 4494 
z
" transform="scale(0.015625)"/>
       <path id="DejaVuSans-68" d="M 3513 2113 
L 3513 0 
L 2938 0 
L 2938 2094 
Q 2938 2591 2744 2837 
Q 2550 3084 2163 3084 
Q 1697 3084 1428 2787 
Q 1159 2491 1159 1978 
L 1159 0 
L 581 0 
L 581 4863 
L 1159 4863 
L 1159 2956 
Q 1366 3272 1645 3428 
Q 1925 3584 2291 3584 
Q 2894 3584 3203 3211 
Q 3513 2838 3513 2113 
z
" transform="scale(0.015625)"/>
      </defs>
      <use xlink:href="#DejaVuSans-62"/>
      <use xlink:href="#DejaVuSans-61" transform="translate(63.476562 0)"/>
      <use xlink:href="#DejaVuSans-6e" transform="translate(124.755859 0)"/>
      <use xlink:href="#DejaVuSans-64" transform="translate(188.134766 0)"/>
      <use xlink:href="#DejaVuSans-77" transform="translate(251.611328 0)"/>
      <use xlink:href="#DejaVuSans-69" transform="translate(333.398438 0)"/>
      <use xlink:href="#DejaVuSans-64" transform="translate(361.181641 0)"/>
      <use xlink:href="#DejaVuSans-74" transform="translate(424.658203 0)"/>
      <use xlink:href="#DejaVuSans-68" transform="translate(463.867188 0)"/>
     </g>
    </g>
   </g>
   <g id="matplotlib.axis_2">
    <g id="ytick_1">
     <g id="line2d_40">
      <defs>
       <path id="mbd2f377c6c" d="M 0 0 
L -3.5 0 
" style="stroke: #000000; stroke-width: 0.8"/>
      </defs>
      <g>
       <use xlink:href="#mbd2f377c6c" x="39.58149" y="312.24351" style="stroke: #000000; stroke-width: 0.8"/>
      </g>
     </g>
     <g id="text_7">
      <!-- 1.0 -->
      <g transform="translate(16.678365 316.042729) scale(0.1 -0.1)">
       <defs>
        <path id="DejaVuSans-2e" d="M 684 794 
L 1344 794 
L 1344 0 
L 684 0 
L 684 794 
z
" transform="scale(0.015625)"/>
       </defs>
       <use xlink:href="#DejaVuSans-31"/>
       <use xlink:href="#DejaVuSans-2e" transform="translate(63.623047 0)"/>
       <use xlink:href="#DejaVuSans-30" transform="translate(95.410156 0)"/>
      </g>
     </g>
    </g>
    <g id="ytick_2">
     <g id="line2d_41">
      <g>
       <use xlink:href="#mbd2f377c6c" x="39.58149" y="263.222652" style="stroke: #000000; stroke-width: 0.8"/>
      </g>
     </g>
     <g id="text_8">
      <!-- 1.5 -->
      <g transform="translate(16.678365 267.021871) scale(0.1 -0.1)">
       <use xlink:href="#DejaVuSans-31"/>
       <use xlink:href="#DejaVuSans-2e" transform="translate(63.623047 0)"/>
       <use xlink:href="#DejaVuSans-35" transform="translate(95.410156 0)"/>
      </g>
     </g>
    </g>
    <g id="ytick_3">
     <g id="line2d_42">
      <g>
       <use xlink:href="#mbd2f377c6c" x="39.58149" y="214.201795" style="stroke: #000000; stroke-width: 0.8"/>
      </g>
     </g>
     <g id="text_9">
      <!-- 2.0 -->
      <g transform="translate(16.678365 218.001014) scale(0.1 -0.1)">
       <use xlink:href="#DejaVuSans-32"/>
       <use xlink:href="#DejaVuSans-2e" transform="translate(63.623047 0)"/>
       <use xlink:href="#DejaVuSans-30" transform="translate(95.410156 0)"/>
      </g>
     </g>
    </g>
    <g id="ytick_4">
     <g id="line2d_43">
      <g>
       <use xlink:href="#mbd2f377c6c" x="39.58149" y="165.180938" style="stroke: #000000; stroke-width: 0.8"/>
      </g>
     </g>
     <g id="text_10">
      <!-- 2.5 -->
      <g transform="translate(16.678365 168.980156) scale(0.1 -0.1)">
       <use xlink:href="#DejaVuSans-32"/>
       <use xlink:href="#DejaVuSans-2e" transform="translate(63.623047 0)"/>
       <use xlink:href="#DejaVuSans-35" transform="translate(95.410156 0)"/>
      </g>
     </g>
    </g>
    <g id="ytick_5">
     <g id="line2d_44">
      <g>
       <use xlink:href="#mbd2f377c6c" x="39.58149" y="116.16008" style="stroke: #000000; stroke-width: 0.8"/>
      </g>
     </g>
     <g id="text_11">
      <!-- 3.0 -->
      <g transform="translate(16.678365 119.959299) scale(0.1 -0.1)">
       <use xlink:href="#DejaVuSans-33"/>
       <use xlink:href="#DejaVuSans-2e" transform="translate(63.623047 0)"/>
       <use xlink:href="#DejaVuSans-30" transform="translate(95.410156 0)"/>
      </g>
     </g>
    </g>
    <g id="ytick_6">
     <g id="line2d_45">
      <g>
       <use xlink:href="#mbd2f377c6c" x="39.58149" y="67.139223" style="stroke: #000000; stroke-width: 0.8"/>
      </g>
     </g>
     <g id="text_12">
      <!-- 3.5 -->
      <g transform="translate(16.678365 70.938441) scale(0.1 -0.1)">
       <use xlink:href="#DejaVuSans-33"/>
       <use xlink:href="#DejaVuSans-2e" transform="translate(63.623047 0)"/>
       <use xlink:href="#DejaVuSans-35" transform="translate(95.410156 0)"/>
      </g>
     </g>
    </g>
    <g id="ytick_7">
     <g id="line2d_46">
      <g>
       <use xlink:href="#mbd2f377c6c" x="39.58149" y="18.118365" style="stroke: #000000; stroke-width: 0.8"/>
      </g>
     </g>
     <g id="text_13">
      <!-- 4.0 -->
      <g transform="translate(16.678365 21.917584) scale(0.1 -0.1)">
       <use xlink:href="#DejaVuSans-34"/>
       <use xlink:href="#DejaVuSans-2e" transform="translate(63.623047 0)"/>
       <use xlink:href="#DejaVuSans-30" transform="translate(95.410156 0)"/>
      </g>
     </g>
    </g>
    <g id="text_14">
     <!-- alpha -->
     <g transform="translate(10.598677 179.041094) rotate(-90) scale(0.1 -0.1)">
      <defs>
       <path id="DejaVuSans-6c" d="M 603 4863 
L 1178 4863 
L 1178 0 
L 603 0 
L 603 4863 
z
" transform="scale(0.015625)"/>
       <path id="DejaVuSans-70" d="M 1159 525 
L 1159 -1331 
L 581 -1331 
L 581 3500 
L 1159 3500 
L 1159 2969 
Q 1341 3281 1617 3432 
Q 1894 3584 2278 3584 
Q 2916 3584 3314 3078 
Q 3713 2572 3713 1747 
Q 3713 922 3314 415 
Q 2916 -91 2278 -91 
Q 1894 -91 1617 61 
Q 1341 213 1159 525 
z
M 3116 1747 
Q 3116 2381 2855 2742 
Q 2594 3103 2138 3103 
Q 1681 3103 1420 2742 
Q 1159 2381 1159 1747 
Q 1159 1113 1420 752 
Q 1681 391 2138 391 
Q 2594 391 2855 752 
Q 3116 1113 3116 1747 
z
" transform="scale(0.015625)"/>
      </defs>
      <use xlink:href="#DejaVuSans-61"/>
      <use xlink:href="#DejaVuSans-6c" transform="translate(61.279297 0)"/>
      <use xlink:href="#DejaVuSans-70" transform="translate(89.0625 0)"/>
      <use xlink:href="#DejaVuSans-68" transform="translate(152.539062 0)"/>
      <use xlink:href="#DejaVuSans-61" transform="translate(215.917969 0)"/>
     </g>
    </g>
   </g>
   <g id="patch_3">
    <path d="M 39.58149 312.24351 
L 39.58149 18.118365 
" style="fill: none; stroke: #000000; stroke-width: 0.8; stroke-linejoin: miter; stroke-linecap: square"/>
   </g>
   <g id="patch_4">
    <path d="M 384.66826 312.24351 
L 384.66826 18.118365 
" style="fill: none; stroke: #000000; stroke-width: 0.8; stroke-linejoin: miter; stroke-linecap: square"/>
   </g>
   <g id="patch_5">
    <path d="M 39.58149 312.24351 
L 384.66826 312.24351 
" style="fill: none; stroke: #000000; stroke-width: 0.8; stroke-linejoin: miter; stroke-linecap: square"/>
   </g>
   <g id="patch_6">
    <path d="M 39.58149 18.118365 
L 384.66826 18.118365 
" style="fill: none; stroke: #000000; stroke-width: 0.8; stroke-linejoin: miter; stroke-linecap: square"/>
   </g>
   <g id="text_15">
    <!-- espirales_lo 7354 fkdc -->
    <g transform="translate(145.087062 12.118365) scale(0.12 -0.12)">
     <defs>
      <path id="DejaVuSans-65" d="M 3597 1894 
L 3597 1613 
L 953 1613 
Q 991 1019 1311 708 
Q 1631 397 2203 397 
Q 2534 397 2845 478 
Q 3156 559 3463 722 
L 3463 178 
Q 3153 47 2828 -22 
Q 2503 -91 2169 -91 
Q 1331 -91 842 396 
Q 353 884 353 1716 
Q 353 2575 817 3079 
Q 1281 3584 2069 3584 
Q 2775 3584 3186 3129 
Q 3597 2675 3597 1894 
z
M 3022 2063 
Q 3016 2534 2758 2815 
Q 2500 3097 2075 3097 
Q 1594 3097 1305 2825 
Q 1016 2553 972 2059 
L 3022 2063 
z
" transform="scale(0.015625)"/>
      <path id="DejaVuSans-73" d="M 2834 3397 
L 2834 2853 
Q 2591 2978 2328 3040 
Q 2066 3103 1784 3103 
Q 1356 3103 1142 2972 
Q 928 2841 928 2578 
Q 928 2378 1081 2264 
Q 1234 2150 1697 2047 
L 1894 2003 
Q 2506 1872 2764 1633 
Q 3022 1394 3022 966 
Q 3022 478 2636 193 
Q 2250 -91 1575 -91 
Q 1294 -91 989 -36 
Q 684 19 347 128 
L 347 722 
Q 666 556 975 473 
Q 1284 391 1588 391 
Q 1994 391 2212 530 
Q 2431 669 2431 922 
Q 2431 1156 2273 1281 
Q 2116 1406 1581 1522 
L 1381 1569 
Q 847 1681 609 1914 
Q 372 2147 372 2553 
Q 372 3047 722 3315 
Q 1072 3584 1716 3584 
Q 2034 3584 2315 3537 
Q 2597 3491 2834 3397 
z
" transform="scale(0.015625)"/>
      <path id="DejaVuSans-72" d="M 2631 2963 
Q 2534 3019 2420 3045 
Q 2306 3072 2169 3072 
Q 1681 3072 1420 2755 
Q 1159 2438 1159 1844 
L 1159 0 
L 581 0 
L 581 3500 
L 1159 3500 
L 1159 2956 
Q 1341 3275 1631 3429 
Q 1922 3584 2338 3584 
Q 2397 3584 2469 3576 
Q 2541 3569 2628 3553 
L 2631 2963 
z
" transform="scale(0.015625)"/>
      <path id="DejaVuSans-5f" d="M 3263 -1063 
L 3263 -1509 
L -63 -1509 
L -63 -1063 
L 3263 -1063 
z
" transform="scale(0.015625)"/>
      <path id="DejaVuSans-6f" d="M 1959 3097 
Q 1497 3097 1228 2736 
Q 959 2375 959 1747 
Q 959 1119 1226 758 
Q 1494 397 1959 397 
Q 2419 397 2687 759 
Q 2956 1122 2956 1747 
Q 2956 2369 2687 2733 
Q 2419 3097 1959 3097 
z
M 1959 3584 
Q 2709 3584 3137 3096 
Q 3566 2609 3566 1747 
Q 3566 888 3137 398 
Q 2709 -91 1959 -91 
Q 1206 -91 779 398 
Q 353 888 353 1747 
Q 353 2609 779 3096 
Q 1206 3584 1959 3584 
z
" transform="scale(0.015625)"/>
      <path id="DejaVuSans-20" transform="scale(0.015625)"/>
      <path id="DejaVuSans-37" d="M 525 4666 
L 3525 4666 
L 3525 4397 
L 1831 0 
L 1172 0 
L 2766 4134 
L 525 4134 
L 525 4666 
z
" transform="scale(0.015625)"/>
      <path id="DejaVuSans-66" d="M 2375 4863 
L 2375 4384 
L 1825 4384 
Q 1516 4384 1395 4259 
Q 1275 4134 1275 3809 
L 1275 3500 
L 2222 3500 
L 2222 3053 
L 1275 3053 
L 1275 0 
L 697 0 
L 697 3053 
L 147 3053 
L 147 3500 
L 697 3500 
L 697 3744 
Q 697 4328 969 4595 
Q 1241 4863 1831 4863 
L 2375 4863 
z
" transform="scale(0.015625)"/>
      <path id="DejaVuSans-6b" d="M 581 4863 
L 1159 4863 
L 1159 1991 
L 2875 3500 
L 3609 3500 
L 1753 1863 
L 3688 0 
L 2938 0 
L 1159 1709 
L 1159 0 
L 581 0 
L 581 4863 
z
" transform="scale(0.015625)"/>
      <path id="DejaVuSans-63" d="M 3122 3366 
L 3122 2828 
Q 2878 2963 2633 3030 
Q 2388 3097 2138 3097 
Q 1578 3097 1268 2742 
Q 959 2388 959 1747 
Q 959 1106 1268 751 
Q 1578 397 2138 397 
Q 2388 397 2633 464 
Q 2878 531 3122 666 
L 3122 134 
Q 2881 22 2623 -34 
Q 2366 -91 2075 -91 
Q 1284 -91 818 406 
Q 353 903 353 1747 
Q 353 2603 823 3093 
Q 1294 3584 2113 3584 
Q 2378 3584 2631 3529 
Q 2884 3475 3122 3366 
z
" transform="scale(0.015625)"/>
     </defs>
     <use xlink:href="#DejaVuSans-65"/>
     <use xlink:href="#DejaVuSans-73" transform="translate(61.523438 0)"/>
     <use xlink:href="#DejaVuSans-70" transform="translate(113.623047 0)"/>
     <use xlink:href="#DejaVuSans-69" transform="translate(177.099609 0)"/>
     <use xlink:href="#DejaVuSans-72" transform="translate(204.882812 0)"/>
     <use xlink:href="#DejaVuSans-61" transform="translate(245.996094 0)"/>
     <use xlink:href="#DejaVuSans-6c" transform="translate(307.275391 0)"/>
     <use xlink:href="#DejaVuSans-65" transform="translate(335.058594 0)"/>
     <use xlink:href="#DejaVuSans-73" transform="translate(396.582031 0)"/>
     <use xlink:href="#DejaVuSans-5f" transform="translate(448.681641 0)"/>
     <use xlink:href="#DejaVuSans-6c" transform="translate(498.681641 0)"/>
     <use xlink:href="#DejaVuSans-6f" transform="translate(526.464844 0)"/>
     <use xlink:href="#DejaVuSans-20" transform="translate(587.646484 0)"/>
     <use xlink:href="#DejaVuSans-37" transform="translate(619.433594 0)"/>
     <use xlink:href="#DejaVuSans-33" transform="translate(683.056641 0)"/>
     <use xlink:href="#DejaVuSans-35" transform="translate(746.679688 0)"/>
     <use xlink:href="#DejaVuSans-34" transform="translate(810.302734 0)"/>
     <use xlink:href="#DejaVuSans-20" transform="translate(873.925781 0)"/>
     <use xlink:href="#DejaVuSans-66" transform="translate(905.712891 0)"/>
     <use xlink:href="#DejaVuSans-6b" transform="translate(940.917969 0)"/>
     <use xlink:href="#DejaVuSans-64" transform="translate(998.828125 0)"/>
     <use xlink:href="#DejaVuSans-63" transform="translate(1062.304688 0)"/>
    </g>
   </g>
  </g>
  <g id="axes_2">
   <g id="patch_7">
    <path d="M 401.922598 312.24351 
L 416.628856 312.24351 
L 416.628856 18.118365 
L 401.922598 18.118365 
z
" style="fill: #ffffff"/>
   </g>
   <g id="QuadMesh_1">
    <path d="M 401.922598 312.24351 
L 416.628856 312.24351 
L 416.628856 292.635167 
L 401.922598 292.635167 
L 401.922598 312.24351 
" clip-path="url(#pa38a546031)" style="fill: #470d60"/>
    <path d="M 401.922598 292.635167 
L 416.628856 292.635167 
L 416.628856 273.026824 
L 401.922598 273.026824 
L 401.922598 292.635167 
" clip-path="url(#pa38a546031)" style="fill: #482475"/>
    <path d="M 401.922598 273.026824 
L 416.628856 273.026824 
L 416.628856 253.418481 
L 401.922598 253.418481 
L 401.922598 273.026824 
" clip-path="url(#pa38a546031)" style="fill: #443983"/>
    <path d="M 401.922598 253.418481 
L 416.628856 253.418481 
L 416.628856 233.810138 
L 401.922598 233.810138 
L 401.922598 253.418481 
" clip-path="url(#pa38a546031)" style="fill: #3d4d8a"/>
    <path d="M 401.922598 233.810138 
L 416.628856 233.810138 
L 416.628856 214.201795 
L 401.922598 214.201795 
L 401.922598 233.810138 
" clip-path="url(#pa38a546031)" style="fill: #355f8d"/>
    <path d="M 401.922598 214.201795 
L 416.628856 214.201795 
L 416.628856 194.593452 
L 401.922598 194.593452 
L 401.922598 214.201795 
" clip-path="url(#pa38a546031)" style="fill: #2d708e"/>
    <path d="M 401.922598 194.593452 
L 416.628856 194.593452 
L 416.628856 174.985109 
L 401.922598 174.985109 
L 401.922598 194.593452 
" clip-path="url(#pa38a546031)" style="fill: #27808e"/>
    <path d="M 401.922598 174.985109 
L 416.628856 174.985109 
L 416.628856 155.376766 
L 401.922598 155.376766 
L 401.922598 174.985109 
" clip-path="url(#pa38a546031)" style="fill: #21918c"/>
    <path d="M 401.922598 155.376766 
L 416.628856 155.376766 
L 416.628856 135.768423 
L 401.922598 135.768423 
L 401.922598 155.376766 
" clip-path="url(#pa38a546031)" style="fill: #1fa188"/>
    <path d="M 401.922598 135.768423 
L 416.628856 135.768423 
L 416.628856 116.16008 
L 401.922598 116.16008 
L 401.922598 135.768423 
" clip-path="url(#pa38a546031)" style="fill: #2ab07f"/>
    <path d="M 401.922598 116.16008 
L 416.628856 116.16008 
L 416.628856 96.551737 
L 401.922598 96.551737 
L 401.922598 116.16008 
" clip-path="url(#pa38a546031)" style="fill: #44bf70"/>
    <path d="M 401.922598 96.551737 
L 416.628856 96.551737 
L 416.628856 76.943394 
L 401.922598 76.943394 
L 401.922598 96.551737 
" clip-path="url(#pa38a546031)" style="fill: #67cc5c"/>
    <path d="M 401.922598 76.943394 
L 416.628856 76.943394 
L 416.628856 57.335051 
L 401.922598 57.335051 
L 401.922598 76.943394 
" clip-path="url(#pa38a546031)" style="fill: #90d743"/>
    <path d="M 401.922598 57.335051 
L 416.628856 57.335051 
L 416.628856 37.726708 
L 401.922598 37.726708 
L 401.922598 57.335051 
" clip-path="url(#pa38a546031)" style="fill: #bddf26"/>
    <path d="M 401.922598 37.726708 
L 416.628856 37.726708 
L 416.628856 18.118365 
L 401.922598 18.118365 
L 401.922598 37.726708 
" clip-path="url(#pa38a546031)" style="fill: #eae51a"/>
   </g>
   <g id="matplotlib.axis_3"/>
   <g id="matplotlib.axis_4">
    <g id="ytick_8">
     <g id="line2d_47">
      <defs>
       <path id="m0a27ea52cb" d="M 0 0 
L 3.5 0 
" style="stroke: #000000; stroke-width: 0.8"/>
      </defs>
      <g>
       <use xlink:href="#m0a27ea52cb" x="416.628856" y="292.635167" style="stroke: #000000; stroke-width: 0.8"/>
      </g>
     </g>
     <g id="text_16">
      <!-- -0.8 -->
      <g transform="translate(423.628856 296.434386) scale(0.1 -0.1)">
       <defs>
        <path id="DejaVuSans-2d" d="M 313 2009 
L 1997 2009 
L 1997 1497 
L 313 1497 
L 313 2009 
z
" transform="scale(0.015625)"/>
        <path id="DejaVuSans-38" d="M 2034 2216 
Q 1584 2216 1326 1975 
Q 1069 1734 1069 1313 
Q 1069 891 1326 650 
Q 1584 409 2034 409 
Q 2484 409 2743 651 
Q 3003 894 3003 1313 
Q 3003 1734 2745 1975 
Q 2488 2216 2034 2216 
z
M 1403 2484 
Q 997 2584 770 2862 
Q 544 3141 544 3541 
Q 544 4100 942 4425 
Q 1341 4750 2034 4750 
Q 2731 4750 3128 4425 
Q 3525 4100 3525 3541 
Q 3525 3141 3298 2862 
Q 3072 2584 2669 2484 
Q 3125 2378 3379 2068 
Q 3634 1759 3634 1313 
Q 3634 634 3220 271 
Q 2806 -91 2034 -91 
Q 1263 -91 848 271 
Q 434 634 434 1313 
Q 434 1759 690 2068 
Q 947 2378 1403 2484 
z
M 1172 3481 
Q 1172 3119 1398 2916 
Q 1625 2713 2034 2713 
Q 2441 2713 2670 2916 
Q 2900 3119 2900 3481 
Q 2900 3844 2670 4047 
Q 2441 4250 2034 4250 
Q 1625 4250 1398 4047 
Q 1172 3844 1172 3481 
z
" transform="scale(0.015625)"/>
       </defs>
       <use xlink:href="#DejaVuSans-2d"/>
       <use xlink:href="#DejaVuSans-30" transform="translate(36.083984 0)"/>
       <use xlink:href="#DejaVuSans-2e" transform="translate(99.707031 0)"/>
       <use xlink:href="#DejaVuSans-38" transform="translate(131.494141 0)"/>
      </g>
     </g>
    </g>
    <g id="ytick_9">
     <g id="line2d_48">
      <g>
       <use xlink:href="#m0a27ea52cb" x="416.628856" y="253.418481" style="stroke: #000000; stroke-width: 0.8"/>
      </g>
     </g>
     <g id="text_17">
      <!-- -0.7 -->
      <g transform="translate(423.628856 257.2177) scale(0.1 -0.1)">
       <use xlink:href="#DejaVuSans-2d"/>
       <use xlink:href="#DejaVuSans-30" transform="translate(36.083984 0)"/>
       <use xlink:href="#DejaVuSans-2e" transform="translate(99.707031 0)"/>
       <use xlink:href="#DejaVuSans-37" transform="translate(131.494141 0)"/>
      </g>
     </g>
    </g>
    <g id="ytick_10">
     <g id="line2d_49">
      <g>
       <use xlink:href="#m0a27ea52cb" x="416.628856" y="214.201795" style="stroke: #000000; stroke-width: 0.8"/>
      </g>
     </g>
     <g id="text_18">
      <!-- -0.6 -->
      <g transform="translate(423.628856 218.001014) scale(0.1 -0.1)">
       <defs>
        <path id="DejaVuSans-36" d="M 2113 2584 
Q 1688 2584 1439 2293 
Q 1191 2003 1191 1497 
Q 1191 994 1439 701 
Q 1688 409 2113 409 
Q 2538 409 2786 701 
Q 3034 994 3034 1497 
Q 3034 2003 2786 2293 
Q 2538 2584 2113 2584 
z
M 3366 4563 
L 3366 3988 
Q 3128 4100 2886 4159 
Q 2644 4219 2406 4219 
Q 1781 4219 1451 3797 
Q 1122 3375 1075 2522 
Q 1259 2794 1537 2939 
Q 1816 3084 2150 3084 
Q 2853 3084 3261 2657 
Q 3669 2231 3669 1497 
Q 3669 778 3244 343 
Q 2819 -91 2113 -91 
Q 1303 -91 875 529 
Q 447 1150 447 2328 
Q 447 3434 972 4092 
Q 1497 4750 2381 4750 
Q 2619 4750 2861 4703 
Q 3103 4656 3366 4563 
z
" transform="scale(0.015625)"/>
       </defs>
       <use xlink:href="#DejaVuSans-2d"/>
       <use xlink:href="#DejaVuSans-30" transform="translate(36.083984 0)"/>
       <use xlink:href="#DejaVuSans-2e" transform="translate(99.707031 0)"/>
       <use xlink:href="#DejaVuSans-36" transform="translate(131.494141 0)"/>
      </g>
     </g>
    </g>
    <g id="ytick_11">
     <g id="line2d_50">
      <g>
       <use xlink:href="#m0a27ea52cb" x="416.628856" y="174.985109" style="stroke: #000000; stroke-width: 0.8"/>
      </g>
     </g>
     <g id="text_19">
      <!-- -0.5 -->
      <g transform="translate(423.628856 178.784328) scale(0.1 -0.1)">
       <use xlink:href="#DejaVuSans-2d"/>
       <use xlink:href="#DejaVuSans-30" transform="translate(36.083984 0)"/>
       <use xlink:href="#DejaVuSans-2e" transform="translate(99.707031 0)"/>
       <use xlink:href="#DejaVuSans-35" transform="translate(131.494141 0)"/>
      </g>
     </g>
    </g>
    <g id="ytick_12">
     <g id="line2d_51">
      <g>
       <use xlink:href="#m0a27ea52cb" x="416.628856" y="135.768423" style="stroke: #000000; stroke-width: 0.8"/>
      </g>
     </g>
     <g id="text_20">
      <!-- -0.4 -->
      <g transform="translate(423.628856 139.567642) scale(0.1 -0.1)">
       <use xlink:href="#DejaVuSans-2d"/>
       <use xlink:href="#DejaVuSans-30" transform="translate(36.083984 0)"/>
       <use xlink:href="#DejaVuSans-2e" transform="translate(99.707031 0)"/>
       <use xlink:href="#DejaVuSans-34" transform="translate(131.494141 0)"/>
      </g>
     </g>
    </g>
    <g id="ytick_13">
     <g id="line2d_52">
      <g>
       <use xlink:href="#m0a27ea52cb" x="416.628856" y="96.551737" style="stroke: #000000; stroke-width: 0.8"/>
      </g>
     </g>
     <g id="text_21">
      <!-- -0.3 -->
      <g transform="translate(423.628856 100.350956) scale(0.1 -0.1)">
       <use xlink:href="#DejaVuSans-2d"/>
       <use xlink:href="#DejaVuSans-30" transform="translate(36.083984 0)"/>
       <use xlink:href="#DejaVuSans-2e" transform="translate(99.707031 0)"/>
       <use xlink:href="#DejaVuSans-33" transform="translate(131.494141 0)"/>
      </g>
     </g>
    </g>
    <g id="ytick_14">
     <g id="line2d_53">
      <g>
       <use xlink:href="#m0a27ea52cb" x="416.628856" y="57.335051" style="stroke: #000000; stroke-width: 0.8"/>
      </g>
     </g>
     <g id="text_22">
      <!-- -0.2 -->
      <g transform="translate(423.628856 61.13427) scale(0.1 -0.1)">
       <use xlink:href="#DejaVuSans-2d"/>
       <use xlink:href="#DejaVuSans-30" transform="translate(36.083984 0)"/>
       <use xlink:href="#DejaVuSans-2e" transform="translate(99.707031 0)"/>
       <use xlink:href="#DejaVuSans-32" transform="translate(131.494141 0)"/>
      </g>
     </g>
    </g>
    <g id="ytick_15">
     <g id="line2d_54">
      <g>
       <use xlink:href="#m0a27ea52cb" x="416.628856" y="18.118365" style="stroke: #000000; stroke-width: 0.8"/>
      </g>
     </g>
     <g id="text_23">
      <!-- -0.1 -->
      <g transform="translate(423.628856 21.917584) scale(0.1 -0.1)">
       <use xlink:href="#DejaVuSans-2d"/>
       <use xlink:href="#DejaVuSans-30" transform="translate(36.083984 0)"/>
       <use xlink:href="#DejaVuSans-2e" transform="translate(99.707031 0)"/>
       <use xlink:href="#DejaVuSans-31" transform="translate(131.494141 0)"/>
      </g>
     </g>
    </g>
    <g id="text_24">
     <!-- Score -->
     <g transform="translate(454.738231 179.183281) rotate(-90) scale(0.1 -0.1)">
      <defs>
       <path id="DejaVuSans-53" d="M 3425 4513 
L 3425 3897 
Q 3066 4069 2747 4153 
Q 2428 4238 2131 4238 
Q 1616 4238 1336 4038 
Q 1056 3838 1056 3469 
Q 1056 3159 1242 3001 
Q 1428 2844 1947 2747 
L 2328 2669 
Q 3034 2534 3370 2195 
Q 3706 1856 3706 1288 
Q 3706 609 3251 259 
Q 2797 -91 1919 -91 
Q 1588 -91 1214 -16 
Q 841 59 441 206 
L 441 856 
Q 825 641 1194 531 
Q 1563 422 1919 422 
Q 2459 422 2753 634 
Q 3047 847 3047 1241 
Q 3047 1584 2836 1778 
Q 2625 1972 2144 2069 
L 1759 2144 
Q 1053 2284 737 2584 
Q 422 2884 422 3419 
Q 422 4038 858 4394 
Q 1294 4750 2059 4750 
Q 2388 4750 2728 4690 
Q 3069 4631 3425 4513 
z
" transform="scale(0.015625)"/>
      </defs>
      <use xlink:href="#DejaVuSans-53"/>
      <use xlink:href="#DejaVuSans-63" transform="translate(63.476562 0)"/>
      <use xlink:href="#DejaVuSans-6f" transform="translate(118.457031 0)"/>
      <use xlink:href="#DejaVuSans-72" transform="translate(179.638672 0)"/>
      <use xlink:href="#DejaVuSans-65" transform="translate(218.501953 0)"/>
     </g>
    </g>
   </g>
   <g id="LineCollection_1"/>
   <g id="patch_8">
    <path d="M 401.922598 312.24351 
L 409.275727 312.24351 
L 416.628856 312.24351 
L 416.628856 18.118365 
L 409.275727 18.118365 
L 401.922598 18.118365 
L 401.922598 312.24351 
z
" style="fill: none; stroke: #000000; stroke-width: 0.8; stroke-linejoin: miter; stroke-linecap: square"/>
   </g>
  </g>
 </g>
 <defs>
  <clipPath id="p5a875cc57b">
   <rect x="39.58149" y="18.118365" width="345.08677" height="294.125145"/>
  </clipPath>
  <clipPath id="pa38a546031">
   <rect x="401.922598" y="18.118365" width="14.706257" height="294.125145"/>
  </clipPath>
 </defs>
</svg>
