<?xml version="1.0" encoding="utf-8" standalone="no"?>
<!DOCTYPE svg PUBLIC "-//W3C//DTD SVG 1.1//EN"
  "http://www.w3.org/Graphics/SVG/1.1/DTD/svg11.dtd">
<svg xmlns:xlink="http://www.w3.org/1999/xlink" width="468.205287pt" height="353.99952pt" viewBox="0 0 468.205287 353.99952" xmlns="http://www.w3.org/2000/svg" version="1.1">
 <metadata>
  <rdf:RDF xmlns:dc="http://purl.org/dc/elements/1.1/" xmlns:cc="http://creativecommons.org/ns#" xmlns:rdf="http://www.w3.org/1999/02/22-rdf-syntax-ns#">
   <cc:Work>
    <dc:type rdf:resource="http://purl.org/dc/dcmitype/StillImage"/>
    <dc:date>1970-01-01T00:00:00+00:00</dc:date>
    <dc:format>image/svg+xml</dc:format>
    <dc:creator>
     <cc:Agent>
      <dc:title>Matplotlib v3.10.7, https://matplotlib.org/</dc:title>
     </cc:Agent>
    </dc:creator>
   </cc:Work>
  </rdf:RDF>
 </metadata>
 <defs>
  <style type="text/css">*{stroke-linejoin: round; stroke-linecap: butt}</style>
 </defs>
 <g id="figure_1">
  <g id="patch_1">
   <path d="M 0 353.99952 
L 468.205287 353.99952 
L 468.205287 0 
L 0 0 
z
" style="fill: #ffffff"/>
  </g>
  <g id="axes_1">
   <g id="patch_2">
    <path d="M 43.78125 316.44327 
L 382.2577 316.44327 
L 382.2577 10.999219 
L 43.78125 10.999219 
z
" style="fill: #ffffff"/>
   </g>
   <g id="QuadContourSet_1">
    <path d="M 43.78125 266.876334 
L 55.065667 265.535928 
L 43.78125 260.736128 
L 41.828401 265.535928 
z
" clip-path="url(#p32b9675a28)" style="fill: #470d60"/>
    <path d="M 92.135029 316.44327 
L 116.410253 316.44327 
L 92.135029 298.666002 
L 86.67537 316.44327 
z
M 43.78125 270.38811 
L 78.979003 265.535928 
L 43.78125 248.160972 
L 36.485769 265.535928 
z
M 41.828401 265.535928 
L 43.78125 260.736128 
L 55.065667 265.535928 
L 43.78125 266.876334 
z
M -4.572529 219.152948 
L 10.917965 214.628586 
L -4.572529 203.478494 
L -9.091974 214.628586 
z
M -52.926307 164.662523 
L -50.768901 163.721244 
L -52.926307 162.384711 
L -53.402127 163.721244 
z
" clip-path="url(#p32b9675a28)" style="fill: #482475"/>
    <path d="M 92.135029 298.666002 
L 116.410253 316.44327 
L 136.740949 316.44327 
L 104.005261 290.989599 
L 96.811946 265.535928 
L 92.135029 261.333057 
L 54.968367 240.082257 
L 43.78125 235.126838 
L 39.812651 240.082257 
L 30.780107 265.535928 
L 43.78125 273.899885 
L 87.973151 290.989599 
L 80.283555 316.44327 
L 86.67537 316.44327 
z
M 36.485769 265.535928 
L 43.78125 248.160972 
L 78.979003 265.535928 
L 43.78125 270.38811 
z
M -4.572529 224.341705 
L 25.751082 214.628586 
L -4.572529 190.691028 
L -14.593346 214.628586 
z
M -9.091974 214.628586 
L -4.572529 203.478494 
L 10.917965 214.628586 
L -4.572529 219.152948 
z
M -52.926307 174.959768 
L -30.204156 163.721244 
L -52.926307 147.763519 
L -58.791441 163.721244 
z
M -53.402127 163.721244 
L -52.926307 162.384711 
L -50.768901 163.721244 
L -52.926307 164.662523 
z
M -101.280086 114.977014 
L -94.594982 112.813902 
L -101.280086 108.592441 
L -102.312991 112.813902 
z
" clip-path="url(#p32b9675a28)" style="fill: #443983"/>
    <path d="M 87.973151 290.989599 
L 43.78125 273.899885 
L 30.780107 265.535928 
L 39.812651 240.082257 
L 43.78125 235.126838 
L 54.968367 240.082257 
L 92.135029 261.333057 
L 96.811946 265.535928 
L 104.005261 290.989599 
L 136.740949 316.44327 
L 140.488807 316.44327 
L 149.592933 316.44327 
L 140.488807 307.655469 
L 120.577711 290.989599 
L 110.113662 265.535928 
L 92.135029 248.017222 
L 80.09781 240.082257 
L 43.78125 221.268062 
L 38.353809 214.628586 
L 38.473135 189.174915 
L -4.572529 174.458849 
L -13.696949 163.721244 
L -41.314136 138.267573 
L -52.926307 129.559806 
L -62.00426 138.267573 
L -64.550379 163.721244 
L -52.926307 185.257014 
L -35.219744 189.174915 
L -20.480428 214.628586 
L -4.572529 229.530462 
L 27.601209 240.082257 
L 24.658459 265.535928 
L 43.78125 277.41166 
L 80.597188 290.989599 
L 73.365007 316.44327 
L 80.283555 316.44327 
z
M -14.593346 214.628586 
L -4.572529 190.691028 
L 25.751082 214.628586 
L -4.572529 224.341705 
z
M -58.791441 163.721244 
L -52.926307 147.763519 
L -30.204156 163.721244 
L -52.926307 174.959768 
z
M -101.280086 125.824388 
L -67.319625 112.813902 
L -101.280086 87.423046 
L -107.693379 112.813902 
z
M -102.312991 112.813902 
L -101.280086 108.592441 
L -94.594982 112.813902 
L -101.280086 114.977014 
z
" clip-path="url(#p32b9675a28)" style="fill: #3d4d8a"/>
    <path d="M 80.597188 290.989599 
L 43.78125 277.41166 
L 24.658459 265.535928 
L 27.601209 240.082257 
L -4.572529 229.530462 
L -20.480428 214.628586 
L -35.219744 189.174915 
L -52.926307 185.257014 
L -64.550379 163.721244 
L -62.00426 138.267573 
L -52.926307 129.559806 
L -41.314136 138.267573 
L -13.696949 163.721244 
L -4.572529 174.458849 
L 38.473135 189.174915 
L 38.353809 214.628586 
L 43.78125 221.268062 
L 80.09781 240.082257 
L 92.135029 248.017222 
L 110.113662 265.535928 
L 120.577711 290.989599 
L 140.488807 307.655469 
L 149.592933 316.44327 
L 159.888308 316.44327 
L 140.488807 296.49986 
L 134.413128 290.989599 
L 121.594107 265.535928 
L 98.068112 240.082257 
L 92.135029 234.517051 
L 59.537089 214.628586 
L 57.157414 189.174915 
L 43.78125 176.319146 
L 12.964219 163.721244 
L -4.572529 152.991022 
L -14.972939 138.267573 
L -25.46868 112.813902 
L -52.926307 102.104236 
L -65.188143 87.360232 
L -88.944179 61.906561 
L -101.280086 47.89836 
L -112.013083 36.45289 
L -133.896786 10.999219 
L -149.633864 10.999219 
L -157.217486 10.999219 
L -160.639397 36.45289 
L -151.556139 61.906561 
L -149.633864 66.664706 
L -119.514658 87.360232 
L -113.442125 112.813902 
L -101.280086 136.671762 
L -95.091925 138.267573 
L -70.733401 163.721244 
L -60.798073 189.174915 
L -52.926307 193.08501 
L -26.811413 214.628586 
L -4.572529 234.719219 
L 13.307524 240.082257 
L 18.055364 265.535928 
L 43.78125 280.923435 
L 72.510646 290.989599 
L 65.82505 316.44327 
L 73.365007 316.44327 
z
M -107.693379 112.813902 
L -101.280086 87.423046 
L -67.319625 112.813902 
L -101.280086 125.824388 
z
" clip-path="url(#p32b9675a28)" style="fill: #355f8d"/>
    <path d="M -439.756535 316.44327 
L -391.402757 316.44327 
L -343.048978 316.44327 
L -294.6952 316.44327 
L -246.341421 316.44327 
L -197.987643 316.44327 
L -149.633864 316.44327 
L -113.010598 316.44327 
L -149.633864 307.783108 
L -182.662078 290.989599 
L -197.987643 286.401568 
L -246.341421 272.105505 
L -261.9362 265.535928 
L -294.6952 255.681707 
L -320.926284 240.082257 
L -343.048978 232.991664 
L -391.402757 218.95916 
L -400.475772 214.628586 
L -439.756535 201.560855 
L -459.873164 189.174915 
L -488.110314 181.375262 
L -488.110314 189.174915 
L -488.110314 214.628586 
L -488.110314 240.082257 
L -488.110314 265.535928 
L -488.110314 290.989599 
L -488.110314 316.44327 
z
M 72.510646 290.989599 
L 43.78125 280.923435 
L 18.055364 265.535928 
L 13.307524 240.082257 
L -4.572529 234.719219 
L -26.811413 214.628586 
L -52.926307 193.08501 
L -60.798073 189.174915 
L -70.733401 163.721244 
L -95.091925 138.267573 
L -101.280086 136.671762 
L -113.442125 112.813902 
L -119.514658 87.360232 
L -149.633864 66.664706 
L -151.556139 61.906561 
L -160.639397 36.45289 
L -157.217486 10.999219 
L -178.402959 10.999219 
L -176.513841 36.45289 
L -158.674431 61.906561 
L -149.633864 83.365897 
L -142.917728 87.360232 
L -119.6134 112.813902 
L -113.788769 138.267573 
L -101.280086 143.914941 
L -77.407964 163.721244 
L -75.301811 189.174915 
L -52.926307 199.396505 
L -33.658744 214.628586 
L -4.572529 239.907976 
L -3.927498 240.082257 
L 10.888579 265.535928 
L 43.78125 284.43521 
L 63.561875 290.989599 
L 57.540945 316.44327 
L 65.82505 316.44327 
z
M 140.488807 296.49986 
L 159.888308 316.44327 
L 169.058484 316.44327 
L 146.638015 290.989599 
L 140.488807 282.290173 
L 131.692481 265.535928 
L 111.167344 240.082257 
L 92.135029 220.745049 
L 83.385941 214.628586 
L 70.478486 189.174915 
L 46.380815 163.721244 
L 43.78125 161.333712 
L 10.226337 138.267573 
L 7.059078 112.813902 
L -4.572529 102.912119 
L -33.007516 87.360232 
L -52.926307 73.653313 
L -62.893965 61.906561 
L -70.244419 36.45289 
L -101.280086 16.179564 
L -105.448596 10.999219 
L -133.896786 10.999219 
L -112.013083 36.45289 
L -101.280086 47.89836 
L -88.944179 61.906561 
L -65.188143 87.360232 
L -52.926307 102.104236 
L -25.46868 112.813902 
L -14.972939 138.267573 
L -4.572529 152.991022 
L 12.964219 163.721244 
L 43.78125 176.319146 
L 57.157414 189.174915 
L 59.537089 214.628586 
L 92.135029 234.517051 
L 98.068112 240.082257 
L 121.594107 265.535928 
L 134.413128 290.989599 
z
M 527.319035 316.44327 
L 575.672814 316.44327 
L 624.026592 316.44327 
L 672.380371 316.44327 
L 720.734149 316.44327 
L 769.087928 316.44327 
L 817.441706 316.44327 
L 865.795485 316.44327 
L 914.149263 316.44327 
L 962.503042 316.44327 
L 1010.85682 316.44327 
L 1059.210599 316.44327 
L 1107.564377 316.44327 
L 1155.918156 316.44327 
L 1204.271934 316.44327 
L 1252.625713 316.44327 
L 1300.979491 316.44327 
L 1349.33327 316.44327 
L 1397.687048 316.44327 
L 1446.040827 316.44327 
L 1494.394605 316.44327 
L 1542.748384 316.44327 
L 1591.102162 316.44327 
L 1639.455941 316.44327 
L 1639.455941 290.989599 
L 1639.455941 265.535928 
L 1639.455941 240.082257 
L 1639.455941 214.628586 
L 1639.455941 189.174915 
L 1639.455941 163.721244 
L 1639.455941 138.267573 
L 1639.455941 112.813902 
L 1639.455941 87.360232 
L 1639.455941 61.906561 
L 1639.455941 36.45289 
L 1639.455941 10.999219 
L 1591.102162 10.999219 
L 1542.748384 10.999219 
L 1494.394605 10.999219 
L 1446.040827 10.999219 
L 1397.687048 10.999219 
L 1349.33327 10.999219 
L 1300.979491 10.999219 
L 1252.625713 10.999219 
L 1204.271934 10.999219 
L 1155.918156 10.999219 
L 1107.564377 10.999219 
L 1059.210599 10.999219 
L 1010.85682 10.999219 
L 962.503042 10.999219 
L 914.149263 10.999219 
L 865.795485 10.999219 
L 817.441706 10.999219 
L 769.087928 10.999219 
L 720.734149 10.999219 
L 672.380371 10.999219 
L 624.026592 10.999219 
L 575.672814 10.999219 
L 527.319035 10.999219 
L 478.965257 10.999219 
L 430.611478 10.999219 
L 382.2577 10.999219 
L 374.136383 10.999219 
L 382.2577 30.643139 
L 388.355589 36.45289 
L 408.535159 61.906561 
L 421.473531 87.360232 
L 430.526215 112.813902 
L 430.611478 113.084549 
L 455.372177 138.267573 
L 468.83176 163.721244 
L 477.133147 189.174915 
L 478.965257 196.591697 
L 496.120584 214.628586 
L 506.87388 240.082257 
L 512.192976 265.535928 
L 513.394907 290.989599 
L 498.415708 316.44327 
z
" clip-path="url(#p32b9675a28)" style="fill: #2d708e"/>
    <path d="M -149.633864 307.783108 
L -113.010598 316.44327 
L -101.280086 316.44327 
L -75.944437 316.44327 
L -101.280086 306.00232 
L -133.246976 290.989599 
L -149.633864 284.379915 
L -190.321312 265.535928 
L -197.987643 262.850092 
L -246.341421 241.074004 
L -248.111431 240.082257 
L -294.6952 222.543244 
L -309.749263 214.628586 
L -343.048978 204.021074 
L -374.274406 189.174915 
L -391.402757 183.224738 
L -431.907922 163.721244 
L -439.756535 160.807159 
L -488.110314 139.710114 
L -488.110314 163.721244 
L -488.110314 181.375262 
L -459.873164 189.174915 
L -439.756535 201.560855 
L -400.475772 214.628586 
L -391.402757 218.95916 
L -343.048978 232.991664 
L -320.926284 240.082257 
L -294.6952 255.681707 
L -261.9362 265.535928 
L -246.341421 272.105505 
L -197.987643 286.401568 
L -182.662078 290.989599 
z
M 63.561875 290.989599 
L 43.78125 284.43521 
L 10.888579 265.535928 
L -3.927498 240.082257 
L -4.572529 239.907976 
L -33.658744 214.628586 
L -52.926307 199.396505 
L -75.301811 189.174915 
L -77.407964 163.721244 
L -101.280086 143.914941 
L -113.788769 138.267573 
L -119.6134 112.813902 
L -142.917728 87.360232 
L -149.633864 83.365897 
L -158.674431 61.906561 
L -176.513841 36.45289 
L -178.402959 10.999219 
L -197.987643 10.999219 
L -200.502904 10.999219 
L -197.987643 30.475083 
L -196.104146 36.45289 
L -166.452267 61.906561 
L -162.555385 87.360232 
L -149.633864 92.590582 
L -126.274275 112.813902 
L -131.310064 138.267573 
L -101.280086 150.53643 
L -84.659026 163.721244 
L -92.843504 189.174915 
L -52.926307 205.708 
L -41.114183 214.628586 
L -42.125862 240.082257 
L -4.572529 253.35035 
L 3.052805 265.535928 
L 43.78125 287.946985 
L 53.544815 290.989599 
L 48.349557 316.44327 
L 57.540945 316.44327 
z
M 157.606793 290.989599 
L 140.804947 265.535928 
L 140.488807 265.199091 
L 122.49672 240.082257 
L 99.767863 214.628586 
L 92.135029 205.566523 
L 81.973338 189.174915 
L 60.976887 163.721244 
L 43.78125 146.465243 
L 33.325348 138.267573 
L 21.885023 112.813902 
L -4.572529 88.130958 
L -5.776574 87.360232 
L -37.640289 61.906561 
L -43.989694 36.45289 
L -52.926307 29.092943 
L -78.130842 10.999219 
L -101.280086 10.999219 
L -105.448596 10.999219 
L -101.280086 16.179564 
L -70.244419 36.45289 
L -62.893965 61.906561 
L -52.926307 73.653313 
L -33.007516 87.360232 
L -4.572529 102.912119 
L 7.059078 112.813902 
L 10.226337 138.267573 
L 43.78125 161.333712 
L 46.380815 163.721244 
L 70.478486 189.174915 
L 83.385941 214.628586 
L 92.135029 220.745049 
L 111.167344 240.082257 
L 131.692481 265.535928 
L 140.488807 282.290173 
L 146.638015 290.989599 
L 169.058484 316.44327 
L 177.325357 316.44327 
z
M 478.965257 316.44327 
L 498.415708 316.44327 
L 513.394907 290.989599 
L 512.192976 265.535928 
L 506.87388 240.082257 
L 496.120584 214.628586 
L 478.965257 196.591697 
L 477.133147 189.174915 
L 468.83176 163.721244 
L 455.372177 138.267573 
L 430.611478 113.084549 
L 430.526215 112.813902 
L 421.473531 87.360232 
L 408.535159 61.906561 
L 388.355589 36.45289 
L 382.2577 30.643139 
L 374.136383 10.999219 
L 333.903921 10.999219 
L 331.680376 10.999219 
L 333.903921 15.464201 
L 352.317483 36.45289 
L 367.829212 61.906561 
L 378.76654 87.360232 
L 382.2577 96.776736 
L 395.940764 112.813902 
L 411.719959 138.267573 
L 422.213646 163.721244 
L 429.479123 189.174915 
L 430.611478 193.655839 
L 446.361059 214.628586 
L 457.768883 240.082257 
L 463.892263 265.535928 
L 465.496952 290.989599 
L 460.847147 316.44327 
z
M -197.987643 139.933964 
L -185.252911 138.267573 
L -197.987643 128.839506 
L -200.65712 138.267573 
z
M -294.6952 63.228818 
L -279.229626 61.906561 
L -294.6952 52.356923 
L -296.807824 61.906561 
z
" clip-path="url(#p32b9675a28)" style="fill: #27808e"/>
    <path d="M -101.280086 306.00232 
L -75.944437 316.44327 
L -54.349304 316.44327 
L -101.280086 294.246968 
L -107.25657 290.989599 
L -149.633864 270.856388 
L -159.271458 265.535928 
L -197.987643 249.079386 
L -214.33013 240.082257 
L -246.341421 225.434165 
L -267.698168 214.628586 
L -294.6952 202.231656 
L -327.903247 189.174915 
L -343.048978 182.712841 
L -391.402757 164.065494 
L -391.971912 163.721244 
L -439.756535 140.922079 
L -444.351618 138.267573 
L -488.110314 117.487354 
L -488.110314 138.267573 
L -488.110314 139.710114 
L -439.756535 160.807159 
L -431.907922 163.721244 
L -391.402757 183.224738 
L -374.274406 189.174915 
L -343.048978 204.021074 
L -309.749263 214.628586 
L -294.6952 222.543244 
L -248.111431 240.082257 
L -246.341421 241.074004 
L -197.987643 262.850092 
L -190.321312 265.535928 
L -149.633864 284.379915 
L -133.246976 290.989599 
z
M 43.78125 316.44327 
L 48.349557 316.44327 
L 53.544815 290.989599 
L 43.78125 287.946985 
L 3.052805 265.535928 
L -4.572529 253.35035 
L -42.125862 240.082257 
L -41.114183 214.628586 
L -52.926307 205.708 
L -92.843504 189.174915 
L -84.659026 163.721244 
L -101.280086 150.53643 
L -131.310064 138.267573 
L -126.274275 112.813902 
L -149.633864 92.590582 
L -162.555385 87.360232 
L -166.452267 61.906561 
L -196.104146 36.45289 
L -197.987643 30.475083 
L -200.502904 10.999219 
L -210.340604 10.999219 
L -210.603121 36.45289 
L -197.987643 43.870432 
L -175.024464 61.906561 
L -183.271489 87.360232 
L -149.633864 99.465066 
L -133.509183 112.813902 
L -149.633864 136.386037 
L -183.533833 112.813902 
L -197.987643 99.629619 
L -210.049952 112.813902 
L -213.664941 138.267573 
L -197.987643 147.337565 
L -160.208117 163.721244 
L -149.633864 169.859355 
L -124.285068 163.721244 
L -101.280086 157.157918 
L -92.595669 163.721244 
L -101.280086 179.692161 
L -108.404283 189.174915 
L -101.280086 196.184973 
L -52.926307 212.019496 
L -49.296366 214.628586 
L -52.926307 223.349553 
L -66.741372 240.082257 
L -52.926307 247.215742 
L -6.517949 265.535928 
L -4.572529 267.629959 
L 40.165697 290.989599 
L 37.520069 316.44327 
z
M -200.65712 138.267573 
L -197.987643 128.839506 
L -185.252911 138.267573 
L -197.987643 139.933964 
z
M 167.30727 290.989599 
L 152.396014 265.535928 
L 140.488807 251.931586 
L 132.478063 240.082257 
L 111.963808 214.628586 
L 92.135029 189.264241 
L 92.082855 189.174915 
L 73.408204 163.721244 
L 50.85238 138.267573 
L 43.78125 129.409349 
L 34.482576 112.813902 
L 11.219745 87.360232 
L -4.572529 71.028622 
L -14.611594 61.906561 
L -28.14843 36.45289 
L -52.926307 13.957897 
L -56.564546 10.999219 
L -78.130842 10.999219 
L -52.926307 29.092943 
L -43.989694 36.45289 
L -37.640289 61.906561 
L -5.776574 87.360232 
L -4.572529 88.130958 
L 21.885023 112.813902 
L 33.325348 138.267573 
L 43.78125 146.465243 
L 60.976887 163.721244 
L 81.973338 189.174915 
L 92.135029 205.566523 
L 99.767863 214.628586 
L 122.49672 240.082257 
L 140.488807 265.199091 
L 140.804947 265.535928 
L 157.606793 290.989599 
L 177.325357 316.44327 
L 184.851038 316.44327 
z
M 465.496952 290.989599 
L 463.892263 265.535928 
L 457.768883 240.082257 
L 446.361059 214.628586 
L 430.611478 193.655839 
L 429.479123 189.174915 
L 422.213646 163.721244 
L 411.719959 138.267573 
L 395.940764 112.813902 
L 382.2577 96.776736 
L 378.76654 87.360232 
L 367.829212 61.906561 
L 352.317483 36.45289 
L 333.903921 15.464201 
L 331.680376 10.999219 
L 302.257592 10.999219 
L 320.158157 36.45289 
L 333.903921 61.009085 
L 334.757404 61.906561 
L 355.166161 87.360232 
L 369.026723 112.813902 
L 379.754245 138.267573 
L 382.2577 144.558542 
L 397.270405 163.721244 
L 410.769702 189.174915 
L 420.096967 214.628586 
L 426.844925 240.082257 
L 430.611478 260.369444 
L 433.299351 265.535928 
L 438.505893 290.989599 
L 432.582857 316.44327 
L 460.847147 316.44327 
z
M -246.341421 96.747789 
L -214.695441 87.360232 
L -236.116482 61.906561 
L -246.341421 57.200021 
L -279.410584 36.45289 
L -294.6952 22.271465 
L -307.015281 36.45289 
L -308.562326 61.906561 
L -294.6952 70.008243 
L -255.767793 87.360232 
z
M -296.807824 61.906561 
L -294.6952 52.356923 
L -279.229626 61.906561 
L -294.6952 63.228818 
z
M -343.048978 20.028231 
L -310.669377 10.999219 
L -343.048978 10.999219 
L -358.735089 10.999219 
z
" clip-path="url(#p32b9675a28)" style="fill: #21918c"/>
    <path d="M -101.280086 294.246968 
L -54.349304 316.44327 
L -52.926307 316.44327 
L -32.989035 316.44327 
L -52.926307 306.857579 
L -82.558938 290.989599 
L -101.280086 281.759783 
L -130.790952 265.535928 
L -149.633864 256.474911 
L -183.599775 240.082257 
L -197.987643 233.847375 
L -233.467302 214.628586 
L -246.341421 209.093767 
L -281.56201 189.174915 
L -294.6952 183.388514 
L -329.364963 163.721244 
L -343.048978 157.934843 
L -381.965346 138.267573 
L -391.402757 134.37875 
L -434.583936 112.813902 
L -439.756535 110.73665 
L -488.110314 88.263247 
L -488.110314 112.813902 
L -488.110314 117.487354 
L -444.351618 138.267573 
L -439.756535 140.922079 
L -391.971912 163.721244 
L -391.402757 164.065494 
L -343.048978 182.712841 
L -327.903247 189.174915 
L -294.6952 202.231656 
L -267.698168 214.628586 
L -246.341421 225.434165 
L -214.33013 240.082257 
L -197.987643 249.079386 
L -159.271458 265.535928 
L -149.633864 270.856388 
L -107.25657 290.989599 
z
M 40.165697 290.989599 
L -4.572529 267.629959 
L -6.517949 265.535928 
L -52.926307 247.215742 
L -66.741372 240.082257 
L -52.926307 223.349553 
L -49.296366 214.628586 
L -52.926307 212.019496 
L -101.280086 196.184973 
L -108.404283 189.174915 
L -101.280086 179.692161 
L -92.595669 163.721244 
L -101.280086 157.157918 
L -124.285068 163.721244 
L -149.633864 169.859355 
L -160.208117 163.721244 
L -197.987643 147.337565 
L -213.664941 138.267573 
L -210.049952 112.813902 
L -197.987643 99.629619 
L -183.533833 112.813902 
L -149.633864 136.386037 
L -133.509183 112.813902 
L -149.633864 99.465066 
L -183.271489 87.360232 
L -175.024464 61.906561 
L -197.987643 43.870432 
L -210.603121 36.45289 
L -210.340604 10.999219 
L -221.485215 10.999219 
L -226.965204 36.45289 
L -246.341421 46.603381 
L -260.908744 36.45289 
L -282.304537 10.999219 
L -294.6952 10.999219 
L -310.669377 10.999219 
L -343.048978 20.028231 
L -358.735089 10.999219 
L -382.957442 10.999219 
L -343.048978 31.044797 
L -329.403749 36.45289 
L -322.233561 61.906561 
L -294.6952 76.787668 
L -268.916868 87.360232 
L -246.341421 108.201827 
L -234.227412 112.813902 
L -229.06288 138.267573 
L -246.341421 154.218231 
L -260.711306 163.721244 
L -246.341421 172.533892 
L -228.070591 163.721244 
L -197.987643 154.741166 
L -175.222744 163.721244 
L -149.633864 177.348645 
L -122.094837 189.174915 
L -101.280086 208.095983 
L -74.465743 214.628586 
L -88.193705 240.082257 
L -52.926307 256.209544 
L -26.147237 265.535928 
L -4.572529 286.254216 
L 6.623831 290.989599 
L 24.585183 316.44327 
L 37.520069 316.44327 
z
M -164.38538 112.813902 
L -149.633864 106.33955 
L -141.426475 112.813902 
L -149.633864 124.246682 
z
M -255.767793 87.360232 
L -294.6952 70.008243 
L -308.562326 61.906561 
L -307.015281 36.45289 
L -294.6952 22.271465 
L -279.410584 36.45289 
L -246.341421 57.200021 
L -236.116482 61.906561 
L -214.695441 87.360232 
L -246.341421 96.747789 
z
M -216.834032 61.906561 
L -197.987643 51.971886 
L -184.571933 61.906561 
L -197.987643 80.804188 
z
M 188.842586 316.44327 
L 194.663063 316.44327 
L 188.842586 311.234552 
L 176.002585 290.989599 
L 162.579849 265.535928 
L 142.078273 240.082257 
L 140.488807 238.786056 
L 122.611438 214.628586 
L 105.540423 189.174915 
L 92.135029 175.189355 
L 84.23472 163.721244 
L 64.751864 138.267573 
L 46.404561 112.813902 
L 43.78125 110.531129 
L 25.181016 87.360232 
L 3.856697 61.906561 
L -4.572529 53.071904 
L -14.825909 36.45289 
L -37.056977 10.999219 
L -52.926307 10.999219 
L -56.564546 10.999219 
L -52.926307 13.957897 
L -28.14843 36.45289 
L -14.611594 61.906561 
L -4.572529 71.028622 
L 11.219745 87.360232 
L 34.482576 112.813902 
L 43.78125 129.409349 
L 50.85238 138.267573 
L 73.408204 163.721244 
L 92.082855 189.174915 
L 92.135029 189.264241 
L 111.963808 214.628586 
L 132.478063 240.082257 
L 140.488807 251.931586 
L 152.396014 265.535928 
L 167.30727 290.989599 
L 184.851038 316.44327 
z
M 430.611478 316.44327 
L 432.582857 316.44327 
L 438.505893 290.989599 
L 433.299351 265.535928 
L 430.611478 260.369444 
L 426.844925 240.082257 
L 420.096967 214.628586 
L 410.769702 189.174915 
L 397.270405 163.721244 
L 382.2577 144.558542 
L 379.754245 138.267573 
L 369.026723 112.813902 
L 355.166161 87.360232 
L 334.757404 61.906561 
L 333.903921 61.009085 
L 320.158157 36.45289 
L 302.257592 10.999219 
L 285.550143 10.999219 
L 275.261429 10.999219 
L 285.550143 33.020469 
L 288.973827 36.45289 
L 310.247146 61.906561 
L 327.100934 87.360232 
L 333.903921 98.301061 
L 345.752368 112.813902 
L 361.568443 138.267573 
L 373.886994 163.721244 
L 382.2577 183.425425 
L 386.662031 189.174915 
L 401.818033 214.628586 
L 411.904353 240.082257 
L 418.719851 265.535928 
L 422.12745 290.989599 
L 421.780062 316.44327 
z
M -197.987643 193.819718 
L -189.819386 189.174915 
L -197.987643 184.992233 
L -205.144127 189.174915 
z
M -439.756535 38.517579 
L -430.25306 36.45289 
L -439.756535 32.431959 
L -442.881597 36.45289 
z
M -470.249944 10.999219 
L -488.110314 10.999219 
L -488.110314 15.458037 
z
" clip-path="url(#p32b9675a28)" style="fill: #1fa188"/>
    <path d="M -52.926307 306.857579 
L -32.989035 316.44327 
L -15.70207 316.44327 
L -4.572529 303.581905 
L 9.289419 316.44327 
L 24.585183 316.44327 
L 6.623831 290.989599 
L -4.572529 286.254216 
L -26.147237 265.535928 
L -52.926307 256.209544 
L -88.193705 240.082257 
L -74.465743 214.628586 
L -101.280086 208.095983 
L -122.094837 189.174915 
L -149.633864 177.348645 
L -175.222744 163.721244 
L -197.987643 154.741166 
L -228.070591 163.721244 
L -246.341421 172.533892 
L -260.711306 163.721244 
L -246.341421 154.218231 
L -229.06288 138.267573 
L -234.227412 112.813902 
L -246.341421 108.201827 
L -268.916868 87.360232 
L -294.6952 76.787668 
L -322.233561 61.906561 
L -329.403749 36.45289 
L -343.048978 31.044797 
L -382.957442 10.999219 
L -391.402757 10.999219 
L -439.756535 10.999219 
L -470.249944 10.999219 
L -488.110314 15.458037 
L -488.110314 26.483539 
L -463.60622 36.45289 
L -439.756535 50.427379 
L -411.881934 61.906561 
L -391.402757 74.119544 
L -360.538272 87.360232 
L -343.048978 98.118359 
L -311.808468 87.360232 
L -294.6952 83.567093 
L -284.513299 87.360232 
L -294.6952 102.769858 
L -304.747134 112.813902 
L -294.6952 118.452729 
L -248.422001 138.267573 
L -294.6952 163.366453 
L -342.142645 138.267573 
L -343.048978 137.836075 
L -390.301751 112.813902 
L -391.402757 112.37042 
L -438.625155 87.360232 
L -439.756535 86.890661 
L -486.912852 61.906561 
L -488.110314 61.406629 
L -488.110314 61.906561 
L -488.110314 87.360232 
L -488.110314 88.263247 
L -439.756535 110.73665 
L -434.583936 112.813902 
L -391.402757 134.37875 
L -381.965346 138.267573 
L -343.048978 157.934843 
L -329.364963 163.721244 
L -294.6952 183.388514 
L -281.56201 189.174915 
L -246.341421 209.093767 
L -233.467302 214.628586 
L -197.987643 233.847375 
L -183.599775 240.082257 
L -149.633864 256.474911 
L -130.790952 265.535928 
L -101.280086 281.759783 
L -82.558938 290.989599 
z
M -62.061932 290.989599 
L -101.280086 268.992079 
L -106.755806 265.535928 
L -101.280086 256.644021 
L -52.926307 265.203346 
L -51.809049 265.535928 
L -29.379547 290.989599 
L -52.926307 296.490593 
z
M -152.150444 240.082257 
L -149.633864 237.698116 
L -139.666297 240.082257 
L -149.633864 241.536974 
z
M -199.86438 214.628586 
L -197.987643 213.294065 
L -193.668692 214.628586 
L -197.987643 215.861132 
z
M -247.445756 189.174915 
L -246.341421 188.540308 
L -244.337654 189.174915 
L -246.341421 189.934523 
z
M -205.144127 189.174915 
L -197.987643 184.992233 
L -189.819386 189.174915 
L -197.987643 193.819718 
z
M -162.248071 189.174915 
L -149.633864 184.837935 
L -138.459669 189.174915 
L -149.633864 198.863338 
z
M -202.548166 163.721244 
L -197.987643 162.144768 
L -193.518273 163.721244 
L -197.987643 167.455424 
z
M -350.913408 61.906561 
L -343.048978 53.709728 
L -338.570771 61.906561 
L -343.048978 67.995636 
z
M -442.881597 36.45289 
L -439.756535 32.431959 
L -430.25306 36.45289 
L -439.756535 38.517579 
z
M 188.842586 311.234552 
L 194.663063 316.44327 
L 206.762138 316.44327 
L 188.842586 299.180392 
L 183.881626 290.989599 
L 171.661452 265.535928 
L 155.650469 240.082257 
L 140.488807 226.659659 
L 132.05996 214.628586 
L 117.157443 189.174915 
L 95.464461 163.721244 
L 92.135029 160.977623 
L 76.674605 138.267573 
L 61.214785 112.813902 
L 43.78125 96.21627 
L 37.149164 87.360232 
L 19.374192 61.906561 
L -2.126445 36.45289 
L -4.572529 34.241409 
L -20.769251 10.999219 
L -37.056977 10.999219 
L -14.825909 36.45289 
L -4.572529 53.071904 
L 3.856697 61.906561 
L 25.181016 87.360232 
L 43.78125 110.531129 
L 46.404561 112.813902 
L 64.751864 138.267573 
L 84.23472 163.721244 
L 92.135029 175.189355 
L 105.540423 189.174915 
L 122.611438 214.628586 
L 140.488807 238.786056 
L 142.078273 240.082257 
L 162.579849 265.535928 
L 176.002585 290.989599 
z
M 422.12745 290.989599 
L 418.719851 265.535928 
L 411.904353 240.082257 
L 401.818033 214.628586 
L 386.662031 189.174915 
L 382.2577 183.425425 
L 373.886994 163.721244 
L 361.568443 138.267573 
L 345.752368 112.813902 
L 333.903921 98.301061 
L 327.100934 87.360232 
L 310.247146 61.906561 
L 288.973827 36.45289 
L 285.550143 33.020469 
L 275.261429 10.999219 
L 253.459201 10.999219 
L 267.632704 36.45289 
L 280.985638 61.906561 
L 285.550143 70.766862 
L 300.485267 87.360232 
L 319.791835 112.813902 
L 333.903921 132.799834 
L 338.325343 138.267573 
L 355.250665 163.721244 
L 368.581785 189.174915 
L 380.058184 214.628586 
L 382.2577 220.129223 
L 393.7188 240.082257 
L 403.691306 265.535928 
L 409.533019 290.989599 
L 411.262652 316.44327 
L 421.780062 316.44327 
z
M -149.633864 124.246682 
L -141.426475 112.813902 
L -149.633864 106.33955 
L -164.38538 112.813902 
z
M -197.987643 80.804188 
L -184.571933 61.906561 
L -197.987643 51.971886 
L -216.834032 61.906561 
z
M -201.162032 61.906561 
L -197.987643 60.073339 
L -195.345421 61.906561 
L -197.987643 65.393694 
z
M -246.341421 46.603381 
L -226.965204 36.45289 
L -221.485215 10.999219 
L -234.337954 10.999219 
L -246.341421 35.188354 
L -260.5249 10.999219 
L -282.304537 10.999219 
L -260.908744 36.45289 
z
" clip-path="url(#p32b9675a28)" style="fill: #2ab07f"/>
    <path d="M -52.926307 296.490593 
L -29.379547 290.989599 
L -51.809049 265.535928 
L -52.926307 265.203346 
L -101.280086 256.644021 
L -106.755806 265.535928 
L -101.280086 268.992079 
L -62.061932 290.989599 
z
M -4.572529 316.44327 
L 9.289419 316.44327 
L -4.572529 303.581905 
L -15.70207 316.44327 
z
M 188.842586 299.180392 
L 206.762138 316.44327 
L 217.335887 316.44327 
L 195.172042 290.989599 
L 188.842586 285.675898 
L 179.856287 265.535928 
L 167.331724 240.082257 
L 140.667746 214.628586 
L 140.488807 214.493997 
L 127.3613 189.174915 
L 111.520417 163.721244 
L 92.135029 146.106768 
L 87.113485 138.267573 
L 73.800994 112.813902 
L 52.300126 87.360232 
L 43.78125 80.32827 
L 32.467161 61.906561 
L 16.617696 36.45289 
L -4.572529 14.977609 
L -7.132653 10.999219 
L -20.769251 10.999219 
L -4.572529 34.241409 
L -2.126445 36.45289 
L 19.374192 61.906561 
L 37.149164 87.360232 
L 43.78125 96.21627 
L 61.214785 112.813902 
L 76.674605 138.267573 
L 92.135029 160.977623 
L 95.464461 163.721244 
L 117.157443 189.174915 
L 132.05996 214.628586 
L 140.488807 226.659659 
L 155.650469 240.082257 
L 171.661452 265.535928 
L 183.881626 290.989599 
z
M 409.533019 290.989599 
L 403.691306 265.535928 
L 393.7188 240.082257 
L 382.2577 220.129223 
L 380.058184 214.628586 
L 368.581785 189.174915 
L 355.250665 163.721244 
L 338.325343 138.267573 
L 333.903921 132.799834 
L 319.791835 112.813902 
L 300.485267 87.360232 
L 285.550143 70.766862 
L 280.985638 61.906561 
L 267.632704 36.45289 
L 253.459201 10.999219 
L 237.196364 10.999219 
L 226.671652 10.999219 
L 237.196364 29.103899 
L 242.23271 36.45289 
L 258.004376 61.906561 
L 272.774155 87.360232 
L 285.550143 109.788778 
L 288.482296 112.813902 
L 310.593297 138.267573 
L 331.215264 163.721244 
L 333.903921 167.15692 
L 348.896417 189.174915 
L 363.143433 214.628586 
L 374.961076 240.082257 
L 382.2577 259.415792 
L 385.375081 265.535928 
L 394.711399 290.989599 
L 399.237316 316.44327 
L 411.262652 316.44327 
z
M -149.633864 241.536974 
L -139.666297 240.082257 
L -149.633864 237.698116 
L -152.150444 240.082257 
z
M -197.987643 215.861132 
L -193.668692 214.628586 
L -197.987643 213.294065 
L -199.86438 214.628586 
z
M -246.341421 189.934523 
L -244.337654 189.174915 
L -246.341421 188.540308 
L -247.445756 189.174915 
z
M -149.633864 198.863338 
L -138.459669 189.174915 
L -149.633864 184.837935 
L -162.248071 189.174915 
z
M -197.987643 167.455424 
L -193.518273 163.721244 
L -197.987643 162.144768 
L -202.548166 163.721244 
z
M -294.6952 163.366453 
L -248.422001 138.267573 
L -294.6952 118.452729 
L -304.747134 112.813902 
L -294.6952 102.769858 
L -284.513299 87.360232 
L -294.6952 83.567093 
L -311.808468 87.360232 
L -343.048978 98.118359 
L -360.538272 87.360232 
L -391.402757 74.119544 
L -411.881934 61.906561 
L -439.756535 50.427379 
L -463.60622 36.45289 
L -488.110314 26.483539 
L -488.110314 36.45289 
L -488.110314 61.406629 
L -486.912852 61.906561 
L -439.756535 86.890661 
L -438.625155 87.360232 
L -391.402757 112.37042 
L -390.301751 112.813902 
L -343.048978 137.836075 
L -342.142645 138.267573 
z
M -303.061686 138.267573 
L -294.6952 133.914753 
L -282.125916 138.267573 
L -294.6952 143.781163 
z
M -344.803967 112.813902 
L -343.048978 112.107673 
L -340.748646 112.813902 
L -343.048978 114.016404 
z
M -392.170192 87.360232 
L -391.402757 87.080209 
L -390.617632 87.360232 
L -391.402757 87.889163 
z
M -343.048978 67.995636 
L -338.570771 61.906561 
L -343.048978 53.709728 
L -350.913408 61.906561 
z
M -197.987643 65.393694 
L -195.345421 61.906561 
L -197.987643 60.073339 
L -201.162032 61.906561 
z
M -246.341421 35.188354 
L -234.337954 10.999219 
L -246.341421 10.999219 
L -260.5249 10.999219 
z
" clip-path="url(#p32b9675a28)" style="fill: #44bf70"/>
    <path d="M 212.319363 290.989599 
L 188.842586 269.096524 
L 187.322228 265.535928 
L 177.585087 240.082257 
L 160.791608 214.628586 
L 140.488807 197.372532 
L 136.458816 189.174915 
L 124.994325 163.721244 
L 104.749221 138.267573 
L 92.135029 128.448288 
L 84.74475 112.813902 
L 71.239063 87.360232 
L 43.820925 61.906561 
L 43.78125 61.878567 
L 31.932733 36.45289 
L 16.804469 10.999219 
L -4.572529 10.999219 
L -7.132653 10.999219 
L -4.572529 14.977609 
L 16.617696 36.45289 
L 32.467161 61.906561 
L 43.78125 80.32827 
L 52.300126 87.360232 
L 73.800994 112.813902 
L 87.113485 138.267573 
L 92.135029 146.106768 
L 111.520417 163.721244 
L 127.3613 189.174915 
L 140.488807 214.493997 
L 140.667746 214.628586 
L 167.331724 240.082257 
L 179.856287 265.535928 
L 188.842586 285.675898 
L 195.172042 290.989599 
L 217.335887 316.44327 
L 226.726203 316.44327 
z
M 382.2577 306.31118 
L 385.198114 316.44327 
L 399.237316 316.44327 
L 394.711399 290.989599 
L 385.375081 265.535928 
L 382.2577 259.415792 
L 374.961076 240.082257 
L 363.143433 214.628586 
L 348.896417 189.174915 
L 333.903921 167.15692 
L 331.215264 163.721244 
L 310.593297 138.267573 
L 288.482296 112.813902 
L 285.550143 109.788778 
L 272.774155 87.360232 
L 258.004376 61.906561 
L 242.23271 36.45289 
L 237.196364 29.103899 
L 226.671652 10.999219 
L 193.189793 10.999219 
L 210.189065 36.45289 
L 227.091487 61.906561 
L 237.196364 77.753868 
L 243.79841 87.360232 
L 260.444053 112.813902 
L 276.718992 138.267573 
L 285.550143 152.746972 
L 296.722922 163.721244 
L 321.176309 189.174915 
L 333.903921 203.053458 
L 341.94109 214.628586 
L 357.039954 240.082257 
L 368.990332 265.535928 
L 378.156375 290.989599 
z
M -294.6952 143.781163 
L -282.125916 138.267573 
L -294.6952 133.914753 
L -303.061686 138.267573 
z
M -343.048978 114.016404 
L -340.748646 112.813902 
L -343.048978 112.107673 
L -344.803967 112.813902 
z
M -391.402757 87.889163 
L -390.617632 87.360232 
L -391.402757 87.080209 
L -392.170192 87.360232 
z
" clip-path="url(#p32b9675a28)" style="fill: #67cc5c"/>
    <path d="M 226.55274 290.989599 
L 210.998635 265.535928 
L 188.842586 246.193006 
L 186.721926 240.082257 
L 177.014022 214.628586 
L 159.083302 189.174915 
L 140.488807 174.23592 
L 136.602738 163.721244 
L 126.456828 138.267573 
L 105.186797 112.813902 
L 92.135029 103.081807 
L 86.683712 87.360232 
L 76.289143 61.906561 
L 51.343912 36.45289 
L 43.78125 31.042713 
L 37.748227 10.999219 
L 16.804469 10.999219 
L 31.932733 36.45289 
L 43.78125 61.878567 
L 43.820925 61.906561 
L 71.239063 87.360232 
L 84.74475 112.813902 
L 92.135029 128.448288 
L 104.749221 138.267573 
L 124.994325 163.721244 
L 136.458816 189.174915 
L 140.488807 197.372532 
L 160.791608 214.628586 
L 177.585087 240.082257 
L 187.322228 265.535928 
L 188.842586 269.096524 
L 212.319363 290.989599 
L 226.726203 316.44327 
L 235.171527 316.44327 
z
M 382.2577 316.44327 
L 385.198114 316.44327 
L 382.2577 306.31118 
L 378.156375 290.989599 
L 368.990332 265.535928 
L 357.039954 240.082257 
L 341.94109 214.628586 
L 333.903921 203.053458 
L 321.176309 189.174915 
L 296.722922 163.721244 
L 285.550143 152.746972 
L 276.718992 138.267573 
L 260.444053 112.813902 
L 243.79841 87.360232 
L 237.196364 77.753868 
L 227.091487 61.906561 
L 210.189065 36.45289 
L 193.189793 10.999219 
L 188.842586 10.999219 
L 140.488807 10.999219 
L 139.919516 10.999219 
L 140.488807 11.707576 
L 161.349135 36.45289 
L 181.56174 61.906561 
L 188.842586 71.237305 
L 202.158494 87.360232 
L 221.904808 112.813902 
L 237.196364 132.90979 
L 241.489766 138.267573 
L 260.838825 163.721244 
L 278.962439 189.174915 
L 285.550143 198.103575 
L 305.576684 214.628586 
L 333.903921 239.629312 
L 334.228488 240.082257 
L 350.121892 265.535928 
L 361.998797 290.989599 
L 370.384971 316.44327 
z
" clip-path="url(#p32b9675a28)" style="fill: #90d743"/>
    <path d="M 237.196364 316.44327 
L 269.338821 316.44327 
L 250.680086 290.989599 
L 237.196364 281.889626 
L 232.72987 265.535928 
L 224.69612 240.082257 
L 210.793278 214.628586 
L 188.842586 200.750436 
L 186.198394 189.174915 
L 184.052752 163.721244 
L 188.842586 152.083333 
L 199.094097 163.721244 
L 223.015349 189.174915 
L 237.196364 194.832008 
L 252.611503 214.628586 
L 274.052133 240.082257 
L 285.550143 249.756022 
L 310.084096 265.535928 
L 333.903921 277.521659 
L 341.974775 290.989599 
L 352.971971 316.44327 
L 370.384971 316.44327 
L 361.998797 290.989599 
L 350.121892 265.535928 
L 334.228488 240.082257 
L 333.903921 239.629312 
L 305.576684 214.628586 
L 285.550143 198.103575 
L 278.962439 189.174915 
L 260.838825 163.721244 
L 241.489766 138.267573 
L 237.196364 132.90979 
L 221.904808 112.813902 
L 202.158494 87.360232 
L 188.842586 71.237305 
L 181.56174 61.906561 
L 161.349135 36.45289 
L 140.488807 11.707576 
L 139.919516 10.999219 
L 92.135029 10.999219 
L 43.78125 10.999219 
L 37.748227 10.999219 
L 43.78125 31.042713 
L 51.343912 36.45289 
L 76.289143 61.906561 
L 86.683712 87.360232 
L 92.135029 103.081807 
L 105.186797 112.813902 
L 126.456828 138.267573 
L 136.602738 163.721244 
L 140.488807 174.23592 
L 159.083302 189.174915 
L 177.014022 214.628586 
L 186.721926 240.082257 
L 188.842586 246.193006 
L 210.998635 265.535928 
L 226.55274 290.989599 
L 235.171527 316.44327 
z
" clip-path="url(#p32b9675a28)" style="fill: #bddf26"/>
    <path d="M 285.550143 316.44327 
L 333.903921 316.44327 
L 352.971971 316.44327 
L 341.974775 290.989599 
L 333.903921 277.521659 
L 310.084096 265.535928 
L 285.550143 249.756022 
L 274.052133 240.082257 
L 252.611503 214.628586 
L 237.196364 194.832008 
L 223.015349 189.174915 
L 199.094097 163.721244 
L 188.842586 152.083333 
L 184.052752 163.721244 
L 186.198394 189.174915 
L 188.842586 200.750436 
L 210.793278 214.628586 
L 224.69612 240.082257 
L 232.72987 265.535928 
L 237.196364 281.889626 
L 250.680086 290.989599 
L 269.338821 316.44327 
z
" clip-path="url(#p32b9675a28)" style="fill: #eae51a"/>
   </g>
   <g id="PathCollection_1">
    <defs>
     <path id="mdc0741d33a" d="M -3 3 
L 3 -3 
M -3 -3 
L 3 3 
" style="stroke: #ff0000; stroke-width: 1.5"/>
    </defs>
    <g clip-path="url(#p32b9675a28)">
     <use xlink:href="#mdc0741d33a" x="333.903921" y="316.44327" style="fill: #ff0000; stroke: #ff0000; stroke-width: 1.5"/>
     <use xlink:href="#mdc0741d33a" x="285.550143" y="290.989599" style="fill: #ff0000; stroke: #ff0000; stroke-width: 1.5"/>
     <use xlink:href="#mdc0741d33a" x="237.196364" y="265.535928" style="fill: #ff0000; stroke: #ff0000; stroke-width: 1.5"/>
     <use xlink:href="#mdc0741d33a" x="237.196364" y="240.082257" style="fill: #ff0000; stroke: #ff0000; stroke-width: 1.5"/>
     <use xlink:href="#mdc0741d33a" x="237.196364" y="214.628586" style="fill: #ff0000; stroke: #ff0000; stroke-width: 1.5"/>
     <use xlink:href="#mdc0741d33a" x="188.842586" y="189.174915" style="fill: #ff0000; stroke: #ff0000; stroke-width: 1.5"/>
     <use xlink:href="#mdc0741d33a" x="188.842586" y="163.721244" style="fill: #ff0000; stroke: #ff0000; stroke-width: 1.5"/>
     <use xlink:href="#mdc0741d33a" x="188.842586" y="138.267573" style="fill: #ff0000; stroke: #ff0000; stroke-width: 1.5"/>
     <use xlink:href="#mdc0741d33a" x="140.488807" y="112.813902" style="fill: #ff0000; stroke: #ff0000; stroke-width: 1.5"/>
     <use xlink:href="#mdc0741d33a" x="140.488807" y="87.360232" style="fill: #ff0000; stroke: #ff0000; stroke-width: 1.5"/>
     <use xlink:href="#mdc0741d33a" x="92.135029" y="61.906561" style="fill: #ff0000; stroke: #ff0000; stroke-width: 1.5"/>
     <use xlink:href="#mdc0741d33a" x="92.135029" y="36.45289" style="fill: #ff0000; stroke: #ff0000; stroke-width: 1.5"/>
     <use xlink:href="#mdc0741d33a" x="92.135029" y="10.999219" style="fill: #ff0000; stroke: #ff0000; stroke-width: 1.5"/>
    </g>
   </g>
   <g id="matplotlib.axis_1">
    <g id="xtick_1">
     <g id="line2d_1">
      <defs>
       <path id="m38f3b05bbe" d="M 0 0 
L 0 3.5 
" style="stroke: #000000; stroke-width: 0.8"/>
      </defs>
      <g>
       <use xlink:href="#m38f3b05bbe" x="92.135029" y="316.44327" style="stroke: #000000; stroke-width: 0.8"/>
      </g>
     </g>
     <g id="text_1">
      <!-- $\mathdefault{10^{-2}}$ -->
      <g transform="translate(80.385029 331.041707) scale(0.1 -0.1)">
       <defs>
        <path id="DejaVuSans-31" d="M 794 531 
L 1825 531 
L 1825 4091 
L 703 3866 
L 703 4441 
L 1819 4666 
L 2450 4666 
L 2450 531 
L 3481 531 
L 3481 0 
L 794 0 
L 794 531 
z
" transform="scale(0.015625)"/>
        <path id="DejaVuSans-30" d="M 2034 4250 
Q 1547 4250 1301 3770 
Q 1056 3291 1056 2328 
Q 1056 1369 1301 889 
Q 1547 409 2034 409 
Q 2525 409 2770 889 
Q 3016 1369 3016 2328 
Q 3016 3291 2770 3770 
Q 2525 4250 2034 4250 
z
M 2034 4750 
Q 2819 4750 3233 4129 
Q 3647 3509 3647 2328 
Q 3647 1150 3233 529 
Q 2819 -91 2034 -91 
Q 1250 -91 836 529 
Q 422 1150 422 2328 
Q 422 3509 836 4129 
Q 1250 4750 2034 4750 
z
" transform="scale(0.015625)"/>
        <path id="DejaVuSans-2212" d="M 678 2272 
L 4684 2272 
L 4684 1741 
L 678 1741 
L 678 2272 
z
" transform="scale(0.015625)"/>
        <path id="DejaVuSans-32" d="M 1228 531 
L 3431 531 
L 3431 0 
L 469 0 
L 469 531 
Q 828 903 1448 1529 
Q 2069 2156 2228 2338 
Q 2531 2678 2651 2914 
Q 2772 3150 2772 3378 
Q 2772 3750 2511 3984 
Q 2250 4219 1831 4219 
Q 1534 4219 1204 4116 
Q 875 4013 500 3803 
L 500 4441 
Q 881 4594 1212 4672 
Q 1544 4750 1819 4750 
Q 2544 4750 2975 4387 
Q 3406 4025 3406 3419 
Q 3406 3131 3298 2873 
Q 3191 2616 2906 2266 
Q 2828 2175 2409 1742 
Q 1991 1309 1228 531 
z
" transform="scale(0.015625)"/>
       </defs>
       <use xlink:href="#DejaVuSans-31" transform="translate(0 0.765625)"/>
       <use xlink:href="#DejaVuSans-30" transform="translate(63.623047 0.765625)"/>
       <use xlink:href="#DejaVuSans-2212" transform="translate(128.203125 39.046875) scale(0.7)"/>
       <use xlink:href="#DejaVuSans-32" transform="translate(186.855469 39.046875) scale(0.7)"/>
      </g>
     </g>
    </g>
    <g id="xtick_2">
     <g id="line2d_2">
      <g>
       <use xlink:href="#m38f3b05bbe" x="285.550143" y="316.44327" style="stroke: #000000; stroke-width: 0.8"/>
      </g>
     </g>
     <g id="text_2">
      <!-- $\mathdefault{10^{-1}}$ -->
      <g transform="translate(273.800143 331.041707) scale(0.1 -0.1)">
       <use xlink:href="#DejaVuSans-31" transform="translate(0 0.684375)"/>
       <use xlink:href="#DejaVuSans-30" transform="translate(63.623047 0.684375)"/>
       <use xlink:href="#DejaVuSans-2212" transform="translate(128.203125 38.965625) scale(0.7)"/>
       <use xlink:href="#DejaVuSans-31" transform="translate(186.855469 38.965625) scale(0.7)"/>
      </g>
     </g>
    </g>
    <g id="xtick_3">
     <g id="line2d_3">
      <defs>
       <path id="m360e1f0208" d="M 0 0 
L 0 2 
" style="stroke: #000000; stroke-width: 0.6"/>
      </defs>
      <g>
       <use xlink:href="#m360e1f0208" x="49.226127" y="316.44327" style="stroke: #000000; stroke-width: 0.6"/>
      </g>
     </g>
    </g>
    <g id="xtick_4">
     <g id="line2d_4">
      <g>
       <use xlink:href="#m360e1f0208" x="62.174648" y="316.44327" style="stroke: #000000; stroke-width: 0.6"/>
      </g>
     </g>
    </g>
    <g id="xtick_5">
     <g id="line2d_5">
      <g>
       <use xlink:href="#m360e1f0208" x="73.391167" y="316.44327" style="stroke: #000000; stroke-width: 0.6"/>
      </g>
     </g>
    </g>
    <g id="xtick_6">
     <g id="line2d_6">
      <g>
       <use xlink:href="#m360e1f0208" x="83.284838" y="316.44327" style="stroke: #000000; stroke-width: 0.6"/>
      </g>
     </g>
    </g>
    <g id="xtick_7">
     <g id="line2d_7">
      <g>
       <use xlink:href="#m360e1f0208" x="150.358779" y="316.44327" style="stroke: #000000; stroke-width: 0.6"/>
      </g>
     </g>
    </g>
    <g id="xtick_8">
     <g id="line2d_8">
      <g>
       <use xlink:href="#m360e1f0208" x="184.41749" y="316.44327" style="stroke: #000000; stroke-width: 0.6"/>
      </g>
     </g>
    </g>
    <g id="xtick_9">
     <g id="line2d_9">
      <g>
       <use xlink:href="#m360e1f0208" x="208.58253" y="316.44327" style="stroke: #000000; stroke-width: 0.6"/>
      </g>
     </g>
    </g>
    <g id="xtick_10">
     <g id="line2d_10">
      <g>
       <use xlink:href="#m360e1f0208" x="227.326392" y="316.44327" style="stroke: #000000; stroke-width: 0.6"/>
      </g>
     </g>
    </g>
    <g id="xtick_11">
     <g id="line2d_11">
      <g>
       <use xlink:href="#m360e1f0208" x="242.641241" y="316.44327" style="stroke: #000000; stroke-width: 0.6"/>
      </g>
     </g>
    </g>
    <g id="xtick_12">
     <g id="line2d_12">
      <g>
       <use xlink:href="#m360e1f0208" x="255.589762" y="316.44327" style="stroke: #000000; stroke-width: 0.6"/>
      </g>
     </g>
    </g>
    <g id="xtick_13">
     <g id="line2d_13">
      <g>
       <use xlink:href="#m360e1f0208" x="266.806281" y="316.44327" style="stroke: #000000; stroke-width: 0.6"/>
      </g>
     </g>
    </g>
    <g id="xtick_14">
     <g id="line2d_14">
      <g>
       <use xlink:href="#m360e1f0208" x="276.699952" y="316.44327" style="stroke: #000000; stroke-width: 0.6"/>
      </g>
     </g>
    </g>
    <g id="xtick_15">
     <g id="line2d_15">
      <g>
       <use xlink:href="#m360e1f0208" x="343.773893" y="316.44327" style="stroke: #000000; stroke-width: 0.6"/>
      </g>
     </g>
    </g>
    <g id="xtick_16">
     <g id="line2d_16">
      <g>
       <use xlink:href="#m360e1f0208" x="377.832604" y="316.44327" style="stroke: #000000; stroke-width: 0.6"/>
      </g>
     </g>
    </g>
    <g id="text_3">
     <!-- bandwidth -->
     <g transform="translate(186.656975 344.719832) scale(0.1 -0.1)">
      <defs>
       <path id="DejaVuSans-62" d="M 3116 1747 
Q 3116 2381 2855 2742 
Q 2594 3103 2138 3103 
Q 1681 3103 1420 2742 
Q 1159 2381 1159 1747 
Q 1159 1113 1420 752 
Q 1681 391 2138 391 
Q 2594 391 2855 752 
Q 3116 1113 3116 1747 
z
M 1159 2969 
Q 1341 3281 1617 3432 
Q 1894 3584 2278 3584 
Q 2916 3584 3314 3078 
Q 3713 2572 3713 1747 
Q 3713 922 3314 415 
Q 2916 -91 2278 -91 
Q 1894 -91 1617 61 
Q 1341 213 1159 525 
L 1159 0 
L 581 0 
L 581 4863 
L 1159 4863 
L 1159 2969 
z
" transform="scale(0.015625)"/>
       <path id="DejaVuSans-61" d="M 2194 1759 
Q 1497 1759 1228 1600 
Q 959 1441 959 1056 
Q 959 750 1161 570 
Q 1363 391 1709 391 
Q 2188 391 2477 730 
Q 2766 1069 2766 1631 
L 2766 1759 
L 2194 1759 
z
M 3341 1997 
L 3341 0 
L 2766 0 
L 2766 531 
Q 2569 213 2275 61 
Q 1981 -91 1556 -91 
Q 1019 -91 701 211 
Q 384 513 384 1019 
Q 384 1609 779 1909 
Q 1175 2209 1959 2209 
L 2766 2209 
L 2766 2266 
Q 2766 2663 2505 2880 
Q 2244 3097 1772 3097 
Q 1472 3097 1187 3025 
Q 903 2953 641 2809 
L 641 3341 
Q 956 3463 1253 3523 
Q 1550 3584 1831 3584 
Q 2591 3584 2966 3190 
Q 3341 2797 3341 1997 
z
" transform="scale(0.015625)"/>
       <path id="DejaVuSans-6e" d="M 3513 2113 
L 3513 0 
L 2938 0 
L 2938 2094 
Q 2938 2591 2744 2837 
Q 2550 3084 2163 3084 
Q 1697 3084 1428 2787 
Q 1159 2491 1159 1978 
L 1159 0 
L 581 0 
L 581 3500 
L 1159 3500 
L 1159 2956 
Q 1366 3272 1645 3428 
Q 1925 3584 2291 3584 
Q 2894 3584 3203 3211 
Q 3513 2838 3513 2113 
z
" transform="scale(0.015625)"/>
       <path id="DejaVuSans-64" d="M 2906 2969 
L 2906 4863 
L 3481 4863 
L 3481 0 
L 2906 0 
L 2906 525 
Q 2725 213 2448 61 
Q 2172 -91 1784 -91 
Q 1150 -91 751 415 
Q 353 922 353 1747 
Q 353 2572 751 3078 
Q 1150 3584 1784 3584 
Q 2172 3584 2448 3432 
Q 2725 3281 2906 2969 
z
M 947 1747 
Q 947 1113 1208 752 
Q 1469 391 1925 391 
Q 2381 391 2643 752 
Q 2906 1113 2906 1747 
Q 2906 2381 2643 2742 
Q 2381 3103 1925 3103 
Q 1469 3103 1208 2742 
Q 947 2381 947 1747 
z
" transform="scale(0.015625)"/>
       <path id="DejaVuSans-77" d="M 269 3500 
L 844 3500 
L 1563 769 
L 2278 3500 
L 2956 3500 
L 3675 769 
L 4391 3500 
L 4966 3500 
L 4050 0 
L 3372 0 
L 2619 2869 
L 1863 0 
L 1184 0 
L 269 3500 
z
" transform="scale(0.015625)"/>
       <path id="DejaVuSans-69" d="M 603 3500 
L 1178 3500 
L 1178 0 
L 603 0 
L 603 3500 
z
M 603 4863 
L 1178 4863 
L 1178 4134 
L 603 4134 
L 603 4863 
z
" transform="scale(0.015625)"/>
       <path id="DejaVuSans-74" d="M 1172 4494 
L 1172 3500 
L 2356 3500 
L 2356 3053 
L 1172 3053 
L 1172 1153 
Q 1172 725 1289 603 
Q 1406 481 1766 481 
L 2356 481 
L 2356 0 
L 1766 0 
Q 1100 0 847 248 
Q 594 497 594 1153 
L 594 3053 
L 172 3053 
L 172 3500 
L 594 3500 
L 594 4494 
L 1172 4494 
z
" transform="scale(0.015625)"/>
       <path id="DejaVuSans-68" d="M 3513 2113 
L 3513 0 
L 2938 0 
L 2938 2094 
Q 2938 2591 2744 2837 
Q 2550 3084 2163 3084 
Q 1697 3084 1428 2787 
Q 1159 2491 1159 1978 
L 1159 0 
L 581 0 
L 581 4863 
L 1159 4863 
L 1159 2956 
Q 1366 3272 1645 3428 
Q 1925 3584 2291 3584 
Q 2894 3584 3203 3211 
Q 3513 2838 3513 2113 
z
" transform="scale(0.015625)"/>
      </defs>
      <use xlink:href="#DejaVuSans-62"/>
      <use xlink:href="#DejaVuSans-61" transform="translate(63.476562 0)"/>
      <use xlink:href="#DejaVuSans-6e" transform="translate(124.755859 0)"/>
      <use xlink:href="#DejaVuSans-64" transform="translate(188.134766 0)"/>
      <use xlink:href="#DejaVuSans-77" transform="translate(251.611328 0)"/>
      <use xlink:href="#DejaVuSans-69" transform="translate(333.398438 0)"/>
      <use xlink:href="#DejaVuSans-64" transform="translate(361.181641 0)"/>
      <use xlink:href="#DejaVuSans-74" transform="translate(424.658203 0)"/>
      <use xlink:href="#DejaVuSans-68" transform="translate(463.867188 0)"/>
     </g>
    </g>
   </g>
   <g id="matplotlib.axis_2">
    <g id="ytick_1">
     <g id="line2d_17">
      <defs>
       <path id="mbd2f377c6c" d="M 0 0 
L -3.5 0 
" style="stroke: #000000; stroke-width: 0.8"/>
      </defs>
      <g>
       <use xlink:href="#mbd2f377c6c" x="43.78125" y="316.44327" style="stroke: #000000; stroke-width: 0.8"/>
      </g>
     </g>
     <g id="text_4">
      <!-- 1.0 -->
      <g transform="translate(20.878125 320.242489) scale(0.1 -0.1)">
       <defs>
        <path id="DejaVuSans-2e" d="M 684 794 
L 1344 794 
L 1344 0 
L 684 0 
L 684 794 
z
" transform="scale(0.015625)"/>
       </defs>
       <use xlink:href="#DejaVuSans-31"/>
       <use xlink:href="#DejaVuSans-2e" transform="translate(63.623047 0)"/>
       <use xlink:href="#DejaVuSans-30" transform="translate(95.410156 0)"/>
      </g>
     </g>
    </g>
    <g id="ytick_2">
     <g id="line2d_18">
      <g>
       <use xlink:href="#mbd2f377c6c" x="43.78125" y="265.535928" style="stroke: #000000; stroke-width: 0.8"/>
      </g>
     </g>
     <g id="text_5">
      <!-- 1.5 -->
      <g transform="translate(20.878125 269.335147) scale(0.1 -0.1)">
       <defs>
        <path id="DejaVuSans-35" d="M 691 4666 
L 3169 4666 
L 3169 4134 
L 1269 4134 
L 1269 2991 
Q 1406 3038 1543 3061 
Q 1681 3084 1819 3084 
Q 2600 3084 3056 2656 
Q 3513 2228 3513 1497 
Q 3513 744 3044 326 
Q 2575 -91 1722 -91 
Q 1428 -91 1123 -41 
Q 819 9 494 109 
L 494 744 
Q 775 591 1075 516 
Q 1375 441 1709 441 
Q 2250 441 2565 725 
Q 2881 1009 2881 1497 
Q 2881 1984 2565 2268 
Q 2250 2553 1709 2553 
Q 1456 2553 1204 2497 
Q 953 2441 691 2322 
L 691 4666 
z
" transform="scale(0.015625)"/>
       </defs>
       <use xlink:href="#DejaVuSans-31"/>
       <use xlink:href="#DejaVuSans-2e" transform="translate(63.623047 0)"/>
       <use xlink:href="#DejaVuSans-35" transform="translate(95.410156 0)"/>
      </g>
     </g>
    </g>
    <g id="ytick_3">
     <g id="line2d_19">
      <g>
       <use xlink:href="#mbd2f377c6c" x="43.78125" y="214.628586" style="stroke: #000000; stroke-width: 0.8"/>
      </g>
     </g>
     <g id="text_6">
      <!-- 2.0 -->
      <g transform="translate(20.878125 218.427805) scale(0.1 -0.1)">
       <use xlink:href="#DejaVuSans-32"/>
       <use xlink:href="#DejaVuSans-2e" transform="translate(63.623047 0)"/>
       <use xlink:href="#DejaVuSans-30" transform="translate(95.410156 0)"/>
      </g>
     </g>
    </g>
    <g id="ytick_4">
     <g id="line2d_20">
      <g>
       <use xlink:href="#mbd2f377c6c" x="43.78125" y="163.721244" style="stroke: #000000; stroke-width: 0.8"/>
      </g>
     </g>
     <g id="text_7">
      <!-- 2.5 -->
      <g transform="translate(20.878125 167.520463) scale(0.1 -0.1)">
       <use xlink:href="#DejaVuSans-32"/>
       <use xlink:href="#DejaVuSans-2e" transform="translate(63.623047 0)"/>
       <use xlink:href="#DejaVuSans-35" transform="translate(95.410156 0)"/>
      </g>
     </g>
    </g>
    <g id="ytick_5">
     <g id="line2d_21">
      <g>
       <use xlink:href="#mbd2f377c6c" x="43.78125" y="112.813902" style="stroke: #000000; stroke-width: 0.8"/>
      </g>
     </g>
     <g id="text_8">
      <!-- 3.0 -->
      <g transform="translate(20.878125 116.613121) scale(0.1 -0.1)">
       <defs>
        <path id="DejaVuSans-33" d="M 2597 2516 
Q 3050 2419 3304 2112 
Q 3559 1806 3559 1356 
Q 3559 666 3084 287 
Q 2609 -91 1734 -91 
Q 1441 -91 1130 -33 
Q 819 25 488 141 
L 488 750 
Q 750 597 1062 519 
Q 1375 441 1716 441 
Q 2309 441 2620 675 
Q 2931 909 2931 1356 
Q 2931 1769 2642 2001 
Q 2353 2234 1838 2234 
L 1294 2234 
L 1294 2753 
L 1863 2753 
Q 2328 2753 2575 2939 
Q 2822 3125 2822 3475 
Q 2822 3834 2567 4026 
Q 2313 4219 1838 4219 
Q 1578 4219 1281 4162 
Q 984 4106 628 3988 
L 628 4550 
Q 988 4650 1302 4700 
Q 1616 4750 1894 4750 
Q 2613 4750 3031 4423 
Q 3450 4097 3450 3541 
Q 3450 3153 3228 2886 
Q 3006 2619 2597 2516 
z
" transform="scale(0.015625)"/>
       </defs>
       <use xlink:href="#DejaVuSans-33"/>
       <use xlink:href="#DejaVuSans-2e" transform="translate(63.623047 0)"/>
       <use xlink:href="#DejaVuSans-30" transform="translate(95.410156 0)"/>
      </g>
     </g>
    </g>
    <g id="ytick_6">
     <g id="line2d_22">
      <g>
       <use xlink:href="#mbd2f377c6c" x="43.78125" y="61.906561" style="stroke: #000000; stroke-width: 0.8"/>
      </g>
     </g>
     <g id="text_9">
      <!-- 3.5 -->
      <g transform="translate(20.878125 65.705779) scale(0.1 -0.1)">
       <use xlink:href="#DejaVuSans-33"/>
       <use xlink:href="#DejaVuSans-2e" transform="translate(63.623047 0)"/>
       <use xlink:href="#DejaVuSans-35" transform="translate(95.410156 0)"/>
      </g>
     </g>
    </g>
    <g id="ytick_7">
     <g id="line2d_23">
      <g>
       <use xlink:href="#mbd2f377c6c" x="43.78125" y="10.999219" style="stroke: #000000; stroke-width: 0.8"/>
      </g>
     </g>
     <g id="text_10">
      <!-- 4.0 -->
      <g transform="translate(20.878125 14.798438) scale(0.1 -0.1)">
       <defs>
        <path id="DejaVuSans-34" d="M 2419 4116 
L 825 1625 
L 2419 1625 
L 2419 4116 
z
M 2253 4666 
L 3047 4666 
L 3047 1625 
L 3713 1625 
L 3713 1100 
L 3047 1100 
L 3047 0 
L 2419 0 
L 2419 1100 
L 313 1100 
L 313 1709 
L 2253 4666 
z
" transform="scale(0.015625)"/>
       </defs>
       <use xlink:href="#DejaVuSans-34"/>
       <use xlink:href="#DejaVuSans-2e" transform="translate(63.623047 0)"/>
       <use xlink:href="#DejaVuSans-30" transform="translate(95.410156 0)"/>
      </g>
     </g>
    </g>
    <g id="text_11">
     <!-- alpha -->
     <g transform="translate(14.798438 177.581401) rotate(-90) scale(0.1 -0.1)">
      <defs>
       <path id="DejaVuSans-6c" d="M 603 4863 
L 1178 4863 
L 1178 0 
L 603 0 
L 603 4863 
z
" transform="scale(0.015625)"/>
       <path id="DejaVuSans-70" d="M 1159 525 
L 1159 -1331 
L 581 -1331 
L 581 3500 
L 1159 3500 
L 1159 2969 
Q 1341 3281 1617 3432 
Q 1894 3584 2278 3584 
Q 2916 3584 3314 3078 
Q 3713 2572 3713 1747 
Q 3713 922 3314 415 
Q 2916 -91 2278 -91 
Q 1894 -91 1617 61 
Q 1341 213 1159 525 
z
M 3116 1747 
Q 3116 2381 2855 2742 
Q 2594 3103 2138 3103 
Q 1681 3103 1420 2742 
Q 1159 2381 1159 1747 
Q 1159 1113 1420 752 
Q 1681 391 2138 391 
Q 2594 391 2855 752 
Q 3116 1113 3116 1747 
z
" transform="scale(0.015625)"/>
      </defs>
      <use xlink:href="#DejaVuSans-61"/>
      <use xlink:href="#DejaVuSans-6c" transform="translate(61.279297 0)"/>
      <use xlink:href="#DejaVuSans-70" transform="translate(89.0625 0)"/>
      <use xlink:href="#DejaVuSans-68" transform="translate(152.539062 0)"/>
      <use xlink:href="#DejaVuSans-61" transform="translate(215.917969 0)"/>
     </g>
    </g>
   </g>
   <g id="patch_3">
    <path d="M 43.78125 316.44327 
L 43.78125 10.999219 
" style="fill: none; stroke: #000000; stroke-width: 0.8; stroke-linejoin: miter; stroke-linecap: square"/>
   </g>
   <g id="patch_4">
    <path d="M 382.2577 316.44327 
L 382.2577 10.999219 
" style="fill: none; stroke: #000000; stroke-width: 0.8; stroke-linejoin: miter; stroke-linecap: square"/>
   </g>
   <g id="patch_5">
    <path d="M 43.78125 316.44327 
L 382.2577 316.44327 
" style="fill: none; stroke: #000000; stroke-width: 0.8; stroke-linejoin: miter; stroke-linecap: square"/>
   </g>
   <g id="patch_6">
    <path d="M 43.78125 10.999219 
L 382.2577 10.999219 
" style="fill: none; stroke: #000000; stroke-width: 0.8; stroke-linejoin: miter; stroke-linecap: square"/>
   </g>
  </g>
  <g id="axes_2">
   <g id="patch_7">
    <path d="M 399.181522 316.44327 
L 414.453725 316.44327 
L 414.453725 10.999219 
L 399.181522 10.999219 
z
" style="fill: #ffffff"/>
   </g>
   <g id="QuadMesh_1">
    <path d="M 399.181522 316.44327 
L 414.453725 316.44327 
L 414.453725 296.080333 
L 399.181522 296.080333 
L 399.181522 316.44327 
" clip-path="url(#pa5ea5bacd4)" style="fill: #470d60"/>
    <path d="M 399.181522 296.080333 
L 414.453725 296.080333 
L 414.453725 275.717396 
L 399.181522 275.717396 
L 399.181522 296.080333 
" clip-path="url(#pa5ea5bacd4)" style="fill: #482475"/>
    <path d="M 399.181522 275.717396 
L 414.453725 275.717396 
L 414.453725 255.35446 
L 399.181522 255.35446 
L 399.181522 275.717396 
" clip-path="url(#pa5ea5bacd4)" style="fill: #443983"/>
    <path d="M 399.181522 255.35446 
L 414.453725 255.35446 
L 414.453725 234.991523 
L 399.181522 234.991523 
L 399.181522 255.35446 
" clip-path="url(#pa5ea5bacd4)" style="fill: #3d4d8a"/>
    <path d="M 399.181522 234.991523 
L 414.453725 234.991523 
L 414.453725 214.628586 
L 399.181522 214.628586 
L 399.181522 234.991523 
" clip-path="url(#pa5ea5bacd4)" style="fill: #355f8d"/>
    <path d="M 399.181522 214.628586 
L 414.453725 214.628586 
L 414.453725 194.265649 
L 399.181522 194.265649 
L 399.181522 214.628586 
" clip-path="url(#pa5ea5bacd4)" style="fill: #2d708e"/>
    <path d="M 399.181522 194.265649 
L 414.453725 194.265649 
L 414.453725 173.902713 
L 399.181522 173.902713 
L 399.181522 194.265649 
" clip-path="url(#pa5ea5bacd4)" style="fill: #27808e"/>
    <path d="M 399.181522 173.902713 
L 414.453725 173.902713 
L 414.453725 153.539776 
L 399.181522 153.539776 
L 399.181522 173.902713 
" clip-path="url(#pa5ea5bacd4)" style="fill: #21918c"/>
    <path d="M 399.181522 153.539776 
L 414.453725 153.539776 
L 414.453725 133.176839 
L 399.181522 133.176839 
L 399.181522 153.539776 
" clip-path="url(#pa5ea5bacd4)" style="fill: #1fa188"/>
    <path d="M 399.181522 133.176839 
L 414.453725 133.176839 
L 414.453725 112.813902 
L 399.181522 112.813902 
L 399.181522 133.176839 
" clip-path="url(#pa5ea5bacd4)" style="fill: #2ab07f"/>
    <path d="M 399.181522 112.813902 
L 414.453725 112.813902 
L 414.453725 92.450966 
L 399.181522 92.450966 
L 399.181522 112.813902 
" clip-path="url(#pa5ea5bacd4)" style="fill: #44bf70"/>
    <path d="M 399.181522 92.450966 
L 414.453725 92.450966 
L 414.453725 72.088029 
L 399.181522 72.088029 
L 399.181522 92.450966 
" clip-path="url(#pa5ea5bacd4)" style="fill: #67cc5c"/>
    <path d="M 399.181522 72.088029 
L 414.453725 72.088029 
L 414.453725 51.725092 
L 399.181522 51.725092 
L 399.181522 72.088029 
" clip-path="url(#pa5ea5bacd4)" style="fill: #90d743"/>
    <path d="M 399.181522 51.725092 
L 414.453725 51.725092 
L 414.453725 31.362156 
L 399.181522 31.362156 
L 399.181522 51.725092 
" clip-path="url(#pa5ea5bacd4)" style="fill: #bddf26"/>
    <path d="M 399.181522 31.362156 
L 414.453725 31.362156 
L 414.453725 10.999219 
L 399.181522 10.999219 
L 399.181522 31.362156 
" clip-path="url(#pa5ea5bacd4)" style="fill: #eae51a"/>
   </g>
   <g id="matplotlib.axis_3"/>
   <g id="matplotlib.axis_4">
    <g id="ytick_8">
     <g id="line2d_24">
      <defs>
       <path id="m0a27ea52cb" d="M 0 0 
L 3.5 0 
" style="stroke: #000000; stroke-width: 0.8"/>
      </defs>
      <g>
       <use xlink:href="#m0a27ea52cb" x="414.453725" y="296.080333" style="stroke: #000000; stroke-width: 0.8"/>
      </g>
     </g>
     <g id="text_12">
      <!-- -0.96 -->
      <g transform="translate(421.453725 299.879552) scale(0.1 -0.1)">
       <defs>
        <path id="DejaVuSans-2d" d="M 313 2009 
L 1997 2009 
L 1997 1497 
L 313 1497 
L 313 2009 
z
" transform="scale(0.015625)"/>
        <path id="DejaVuSans-39" d="M 703 97 
L 703 672 
Q 941 559 1184 500 
Q 1428 441 1663 441 
Q 2288 441 2617 861 
Q 2947 1281 2994 2138 
Q 2813 1869 2534 1725 
Q 2256 1581 1919 1581 
Q 1219 1581 811 2004 
Q 403 2428 403 3163 
Q 403 3881 828 4315 
Q 1253 4750 1959 4750 
Q 2769 4750 3195 4129 
Q 3622 3509 3622 2328 
Q 3622 1225 3098 567 
Q 2575 -91 1691 -91 
Q 1453 -91 1209 -44 
Q 966 3 703 97 
z
M 1959 2075 
Q 2384 2075 2632 2365 
Q 2881 2656 2881 3163 
Q 2881 3666 2632 3958 
Q 2384 4250 1959 4250 
Q 1534 4250 1286 3958 
Q 1038 3666 1038 3163 
Q 1038 2656 1286 2365 
Q 1534 2075 1959 2075 
z
" transform="scale(0.015625)"/>
        <path id="DejaVuSans-36" d="M 2113 2584 
Q 1688 2584 1439 2293 
Q 1191 2003 1191 1497 
Q 1191 994 1439 701 
Q 1688 409 2113 409 
Q 2538 409 2786 701 
Q 3034 994 3034 1497 
Q 3034 2003 2786 2293 
Q 2538 2584 2113 2584 
z
M 3366 4563 
L 3366 3988 
Q 3128 4100 2886 4159 
Q 2644 4219 2406 4219 
Q 1781 4219 1451 3797 
Q 1122 3375 1075 2522 
Q 1259 2794 1537 2939 
Q 1816 3084 2150 3084 
Q 2853 3084 3261 2657 
Q 3669 2231 3669 1497 
Q 3669 778 3244 343 
Q 2819 -91 2113 -91 
Q 1303 -91 875 529 
Q 447 1150 447 2328 
Q 447 3434 972 4092 
Q 1497 4750 2381 4750 
Q 2619 4750 2861 4703 
Q 3103 4656 3366 4563 
z
" transform="scale(0.015625)"/>
       </defs>
       <use xlink:href="#DejaVuSans-2d"/>
       <use xlink:href="#DejaVuSans-30" transform="translate(36.083984 0)"/>
       <use xlink:href="#DejaVuSans-2e" transform="translate(99.707031 0)"/>
       <use xlink:href="#DejaVuSans-39" transform="translate(131.494141 0)"/>
       <use xlink:href="#DejaVuSans-36" transform="translate(195.117188 0)"/>
      </g>
     </g>
    </g>
    <g id="ytick_9">
     <g id="line2d_25">
      <g>
       <use xlink:href="#m0a27ea52cb" x="414.453725" y="255.35446" style="stroke: #000000; stroke-width: 0.8"/>
      </g>
     </g>
     <g id="text_13">
      <!-- -0.84 -->
      <g transform="translate(421.453725 259.153678) scale(0.1 -0.1)">
       <defs>
        <path id="DejaVuSans-38" d="M 2034 2216 
Q 1584 2216 1326 1975 
Q 1069 1734 1069 1313 
Q 1069 891 1326 650 
Q 1584 409 2034 409 
Q 2484 409 2743 651 
Q 3003 894 3003 1313 
Q 3003 1734 2745 1975 
Q 2488 2216 2034 2216 
z
M 1403 2484 
Q 997 2584 770 2862 
Q 544 3141 544 3541 
Q 544 4100 942 4425 
Q 1341 4750 2034 4750 
Q 2731 4750 3128 4425 
Q 3525 4100 3525 3541 
Q 3525 3141 3298 2862 
Q 3072 2584 2669 2484 
Q 3125 2378 3379 2068 
Q 3634 1759 3634 1313 
Q 3634 634 3220 271 
Q 2806 -91 2034 -91 
Q 1263 -91 848 271 
Q 434 634 434 1313 
Q 434 1759 690 2068 
Q 947 2378 1403 2484 
z
M 1172 3481 
Q 1172 3119 1398 2916 
Q 1625 2713 2034 2713 
Q 2441 2713 2670 2916 
Q 2900 3119 2900 3481 
Q 2900 3844 2670 4047 
Q 2441 4250 2034 4250 
Q 1625 4250 1398 4047 
Q 1172 3844 1172 3481 
z
" transform="scale(0.015625)"/>
       </defs>
       <use xlink:href="#DejaVuSans-2d"/>
       <use xlink:href="#DejaVuSans-30" transform="translate(36.083984 0)"/>
       <use xlink:href="#DejaVuSans-2e" transform="translate(99.707031 0)"/>
       <use xlink:href="#DejaVuSans-38" transform="translate(131.494141 0)"/>
       <use xlink:href="#DejaVuSans-34" transform="translate(195.117188 0)"/>
      </g>
     </g>
    </g>
    <g id="ytick_10">
     <g id="line2d_26">
      <g>
       <use xlink:href="#m0a27ea52cb" x="414.453725" y="214.628586" style="stroke: #000000; stroke-width: 0.8"/>
      </g>
     </g>
     <g id="text_14">
      <!-- -0.72 -->
      <g transform="translate(421.453725 218.427805) scale(0.1 -0.1)">
       <defs>
        <path id="DejaVuSans-37" d="M 525 4666 
L 3525 4666 
L 3525 4397 
L 1831 0 
L 1172 0 
L 2766 4134 
L 525 4134 
L 525 4666 
z
" transform="scale(0.015625)"/>
       </defs>
       <use xlink:href="#DejaVuSans-2d"/>
       <use xlink:href="#DejaVuSans-30" transform="translate(36.083984 0)"/>
       <use xlink:href="#DejaVuSans-2e" transform="translate(99.707031 0)"/>
       <use xlink:href="#DejaVuSans-37" transform="translate(131.494141 0)"/>
       <use xlink:href="#DejaVuSans-32" transform="translate(195.117188 0)"/>
      </g>
     </g>
    </g>
    <g id="ytick_11">
     <g id="line2d_27">
      <g>
       <use xlink:href="#m0a27ea52cb" x="414.453725" y="173.902713" style="stroke: #000000; stroke-width: 0.8"/>
      </g>
     </g>
     <g id="text_15">
      <!-- -0.60 -->
      <g transform="translate(421.453725 177.701931) scale(0.1 -0.1)">
       <use xlink:href="#DejaVuSans-2d"/>
       <use xlink:href="#DejaVuSans-30" transform="translate(36.083984 0)"/>
       <use xlink:href="#DejaVuSans-2e" transform="translate(99.707031 0)"/>
       <use xlink:href="#DejaVuSans-36" transform="translate(131.494141 0)"/>
       <use xlink:href="#DejaVuSans-30" transform="translate(195.117188 0)"/>
      </g>
     </g>
    </g>
    <g id="ytick_12">
     <g id="line2d_28">
      <g>
       <use xlink:href="#m0a27ea52cb" x="414.453725" y="133.176839" style="stroke: #000000; stroke-width: 0.8"/>
      </g>
     </g>
     <g id="text_16">
      <!-- -0.48 -->
      <g transform="translate(421.453725 136.976058) scale(0.1 -0.1)">
       <use xlink:href="#DejaVuSans-2d"/>
       <use xlink:href="#DejaVuSans-30" transform="translate(36.083984 0)"/>
       <use xlink:href="#DejaVuSans-2e" transform="translate(99.707031 0)"/>
       <use xlink:href="#DejaVuSans-34" transform="translate(131.494141 0)"/>
       <use xlink:href="#DejaVuSans-38" transform="translate(195.117188 0)"/>
      </g>
     </g>
    </g>
    <g id="ytick_13">
     <g id="line2d_29">
      <g>
       <use xlink:href="#m0a27ea52cb" x="414.453725" y="92.450966" style="stroke: #000000; stroke-width: 0.8"/>
      </g>
     </g>
     <g id="text_17">
      <!-- -0.36 -->
      <g transform="translate(421.453725 96.250184) scale(0.1 -0.1)">
       <use xlink:href="#DejaVuSans-2d"/>
       <use xlink:href="#DejaVuSans-30" transform="translate(36.083984 0)"/>
       <use xlink:href="#DejaVuSans-2e" transform="translate(99.707031 0)"/>
       <use xlink:href="#DejaVuSans-33" transform="translate(131.494141 0)"/>
       <use xlink:href="#DejaVuSans-36" transform="translate(195.117188 0)"/>
      </g>
     </g>
    </g>
    <g id="ytick_14">
     <g id="line2d_30">
      <g>
       <use xlink:href="#m0a27ea52cb" x="414.453725" y="51.725092" style="stroke: #000000; stroke-width: 0.8"/>
      </g>
     </g>
     <g id="text_18">
      <!-- -0.24 -->
      <g transform="translate(421.453725 55.524311) scale(0.1 -0.1)">
       <use xlink:href="#DejaVuSans-2d"/>
       <use xlink:href="#DejaVuSans-30" transform="translate(36.083984 0)"/>
       <use xlink:href="#DejaVuSans-2e" transform="translate(99.707031 0)"/>
       <use xlink:href="#DejaVuSans-32" transform="translate(131.494141 0)"/>
       <use xlink:href="#DejaVuSans-34" transform="translate(195.117188 0)"/>
      </g>
     </g>
    </g>
    <g id="ytick_15">
     <g id="line2d_31">
      <g>
       <use xlink:href="#m0a27ea52cb" x="414.453725" y="10.999219" style="stroke: #000000; stroke-width: 0.8"/>
      </g>
     </g>
     <g id="text_19">
      <!-- -0.12 -->
      <g transform="translate(421.453725 14.798438) scale(0.1 -0.1)">
       <use xlink:href="#DejaVuSans-2d"/>
       <use xlink:href="#DejaVuSans-30" transform="translate(36.083984 0)"/>
       <use xlink:href="#DejaVuSans-2e" transform="translate(99.707031 0)"/>
       <use xlink:href="#DejaVuSans-31" transform="translate(131.494141 0)"/>
       <use xlink:href="#DejaVuSans-32" transform="translate(195.117188 0)"/>
      </g>
     </g>
    </g>
    <g id="text_20">
     <!-- Score -->
     <g transform="translate(458.9256 177.723588) rotate(-90) scale(0.1 -0.1)">
      <defs>
       <path id="DejaVuSans-53" d="M 3425 4513 
L 3425 3897 
Q 3066 4069 2747 4153 
Q 2428 4238 2131 4238 
Q 1616 4238 1336 4038 
Q 1056 3838 1056 3469 
Q 1056 3159 1242 3001 
Q 1428 2844 1947 2747 
L 2328 2669 
Q 3034 2534 3370 2195 
Q 3706 1856 3706 1288 
Q 3706 609 3251 259 
Q 2797 -91 1919 -91 
Q 1588 -91 1214 -16 
Q 841 59 441 206 
L 441 856 
Q 825 641 1194 531 
Q 1563 422 1919 422 
Q 2459 422 2753 634 
Q 3047 847 3047 1241 
Q 3047 1584 2836 1778 
Q 2625 1972 2144 2069 
L 1759 2144 
Q 1053 2284 737 2584 
Q 422 2884 422 3419 
Q 422 4038 858 4394 
Q 1294 4750 2059 4750 
Q 2388 4750 2728 4690 
Q 3069 4631 3425 4513 
z
" transform="scale(0.015625)"/>
       <path id="DejaVuSans-63" d="M 3122 3366 
L 3122 2828 
Q 2878 2963 2633 3030 
Q 2388 3097 2138 3097 
Q 1578 3097 1268 2742 
Q 959 2388 959 1747 
Q 959 1106 1268 751 
Q 1578 397 2138 397 
Q 2388 397 2633 464 
Q 2878 531 3122 666 
L 3122 134 
Q 2881 22 2623 -34 
Q 2366 -91 2075 -91 
Q 1284 -91 818 406 
Q 353 903 353 1747 
Q 353 2603 823 3093 
Q 1294 3584 2113 3584 
Q 2378 3584 2631 3529 
Q 2884 3475 3122 3366 
z
" transform="scale(0.015625)"/>
       <path id="DejaVuSans-6f" d="M 1959 3097 
Q 1497 3097 1228 2736 
Q 959 2375 959 1747 
Q 959 1119 1226 758 
Q 1494 397 1959 397 
Q 2419 397 2687 759 
Q 2956 1122 2956 1747 
Q 2956 2369 2687 2733 
Q 2419 3097 1959 3097 
z
M 1959 3584 
Q 2709 3584 3137 3096 
Q 3566 2609 3566 1747 
Q 3566 888 3137 398 
Q 2709 -91 1959 -91 
Q 1206 -91 779 398 
Q 353 888 353 1747 
Q 353 2609 779 3096 
Q 1206 3584 1959 3584 
z
" transform="scale(0.015625)"/>
       <path id="DejaVuSans-72" d="M 2631 2963 
Q 2534 3019 2420 3045 
Q 2306 3072 2169 3072 
Q 1681 3072 1420 2755 
Q 1159 2438 1159 1844 
L 1159 0 
L 581 0 
L 581 3500 
L 1159 3500 
L 1159 2956 
Q 1341 3275 1631 3429 
Q 1922 3584 2338 3584 
Q 2397 3584 2469 3576 
Q 2541 3569 2628 3553 
L 2631 2963 
z
" transform="scale(0.015625)"/>
       <path id="DejaVuSans-65" d="M 3597 1894 
L 3597 1613 
L 953 1613 
Q 991 1019 1311 708 
Q 1631 397 2203 397 
Q 2534 397 2845 478 
Q 3156 559 3463 722 
L 3463 178 
Q 3153 47 2828 -22 
Q 2503 -91 2169 -91 
Q 1331 -91 842 396 
Q 353 884 353 1716 
Q 353 2575 817 3079 
Q 1281 3584 2069 3584 
Q 2775 3584 3186 3129 
Q 3597 2675 3597 1894 
z
M 3022 2063 
Q 3016 2534 2758 2815 
Q 2500 3097 2075 3097 
Q 1594 3097 1305 2825 
Q 1016 2553 972 2059 
L 3022 2063 
z
" transform="scale(0.015625)"/>
      </defs>
      <use xlink:href="#DejaVuSans-53"/>
      <use xlink:href="#DejaVuSans-63" transform="translate(63.476562 0)"/>
      <use xlink:href="#DejaVuSans-6f" transform="translate(118.457031 0)"/>
      <use xlink:href="#DejaVuSans-72" transform="translate(179.638672 0)"/>
      <use xlink:href="#DejaVuSans-65" transform="translate(218.501953 0)"/>
     </g>
    </g>
   </g>
   <g id="LineCollection_1"/>
   <g id="patch_8">
    <path d="M 399.181522 316.44327 
L 406.817623 316.44327 
L 414.453725 316.44327 
L 414.453725 10.999219 
L 406.817623 10.999219 
L 399.181522 10.999219 
L 399.181522 316.44327 
z
" style="fill: none; stroke: #000000; stroke-width: 0.8; stroke-linejoin: miter; stroke-linecap: square"/>
   </g>
  </g>
 </g>
 <defs>
  <clipPath id="p32b9675a28">
   <rect x="43.78125" y="10.999219" width="338.47645" height="305.444051"/>
  </clipPath>
  <clipPath id="pa5ea5bacd4">
   <rect x="399.181522" y="10.999219" width="15.272203" height="305.444051"/>
  </clipPath>
 </defs>
</svg>
