<?xml version="1.0" encoding="utf-8" standalone="no"?>
<!DOCTYPE svg PUBLIC "-//W3C//DTD SVG 1.1//EN"
  "http://www.w3.org/Graphics/SVG/1.1/DTD/svg11.dtd">
<svg xmlns:xlink="http://www.w3.org/1999/xlink" width="460.8pt" height="345.6pt" viewBox="0 0 460.8 345.6" xmlns="http://www.w3.org/2000/svg" version="1.1">
 <metadata>
  <rdf:RDF xmlns:dc="http://purl.org/dc/elements/1.1/" xmlns:cc="http://creativecommons.org/ns#" xmlns:rdf="http://www.w3.org/1999/02/22-rdf-syntax-ns#">
   <cc:Work>
    <dc:type rdf:resource="http://purl.org/dc/dcmitype/StillImage"/>
    <dc:date>2024-10-31T12:36:07.797156</dc:date>
    <dc:format>image/svg+xml</dc:format>
    <dc:creator>
     <cc:Agent>
      <dc:title>Matplotlib v3.8.4, https://matplotlib.org/</dc:title>
     </cc:Agent>
    </dc:creator>
   </cc:Work>
  </rdf:RDF>
 </metadata>
 <defs>
  <style type="text/css">*{stroke-linejoin: round; stroke-linecap: butt}</style>
 </defs>
 <g id="figure_1">
  <g id="patch_1">
   <path d="M 0 345.6 
L 460.8 345.6 
L 460.8 0 
L 0 0 
z
" style="fill: #ffffff"/>
  </g>
  <g id="axes_1">
   <g id="patch_2">
    <path d="M 39.58149 312.24351 
L 373.6914 312.24351 
L 373.6914 18.12024 
L 39.58149 18.12024 
z
" style="fill: #ffffff"/>
   </g>
   <g id="QuadContourSet_1">
    <path d="M 256.752932 312.24351 
L 268.428018 312.24351 
L 256.752932 308.284158 
L 253.512835 312.24351 
z
" clip-path="url(#p57e7f3298e)" style="fill: #470d60"/>
    <path d="M 240.047436 285.982504 
L 241.800297 275.478101 
L 240.047436 268.125019 
L 238.640805 275.478101 
z
M 256.752932 308.284158 
L 268.428018 312.24351 
L 273.458427 312.24351 
L 290.163923 312.24351 
L 306.869418 312.24351 
L 323.574914 312.24351 
L 340.280409 312.24351 
L 356.985905 312.24351 
L 373.6914 312.24351 
L 373.6914 275.478101 
L 373.6914 238.712693 
L 373.6914 201.947284 
L 373.6914 165.181875 
L 373.6914 128.416466 
L 373.6914 91.651058 
L 373.6914 54.885649 
L 373.6914 18.12024 
L 356.985905 18.12024 
L 340.280409 18.12024 
L 323.574914 18.12024 
L 306.869418 18.12024 
L 290.163923 18.12024 
L 273.458427 18.12024 
L 256.752932 18.12024 
L 240.047436 18.12024 
L 223.341941 18.12024 
L 206.636445 18.12024 
L 205.619889 18.12024 
L 206.636445 26.422106 
L 219.97916 54.885649 
L 222.438965 91.651058 
L 223.341941 95.037345 
L 238.696905 128.416466 
L 239.606131 165.181875 
L 240.047436 165.83259 
L 255.886267 201.947284 
L 256.752932 218.287465 
L 267.181002 238.712693 
L 271.513019 275.478101 
L 256.752932 301.496698 
L 246.946587 312.24351 
L 253.512835 312.24351 
z
" clip-path="url(#p57e7f3298e)" style="fill: #482475"/>
    <path d="M 240.047436 312.24351 
L 246.946587 312.24351 
L 256.752932 301.496698 
L 271.513019 275.478101 
L 267.181002 238.712693 
L 256.752932 218.287465 
L 255.886267 201.947284 
L 240.047436 165.83259 
L 239.606131 165.181875 
L 238.696905 128.416466 
L 223.341941 95.037345 
L 222.438965 91.651058 
L 219.97916 54.885649 
L 206.636445 26.422106 
L 205.619889 18.12024 
L 203.789831 18.12024 
L 206.636445 40.653878 
L 214.067965 54.885649 
L 220.822475 91.651058 
L 223.341941 100.84241 
L 236.545412 128.416466 
L 236.80734 165.181875 
L 240.047436 169.736881 
L 254.535721 201.947284 
L 252.176677 238.712693 
L 256.752932 240.755215 
L 268.326123 275.478101 
L 256.752932 294.709238 
L 246.501078 275.478101 
L 240.047436 246.065774 
L 236.445986 238.712693 
L 224.796404 201.947284 
L 223.341941 196.901051 
L 215.54283 201.947284 
L 220.87174 238.712693 
L 223.341941 251.350802 
L 233.958803 275.478101 
L 239.613667 312.24351 
z
M 238.640805 275.478101 
L 240.047436 268.125019 
L 241.800297 275.478101 
L 240.047436 285.982504 
z
M 206.636445 181.893424 
L 208.854197 165.181875 
L 206.636445 154.969261 
L 204.762809 165.181875 
z
" clip-path="url(#p57e7f3298e)" style="fill: #443983"/>
    <path d="M 233.958803 275.478101 
L 223.341941 251.350802 
L 220.87174 238.712693 
L 215.54283 201.947284 
L 223.341941 196.901051 
L 224.796404 201.947284 
L 236.445986 238.712693 
L 240.047436 246.065774 
L 246.501078 275.478101 
L 256.752932 294.709238 
L 268.326123 275.478101 
L 256.752932 240.755215 
L 252.176677 238.712693 
L 254.535721 201.947284 
L 240.047436 169.736881 
L 236.80734 165.181875 
L 236.545412 128.416466 
L 223.341941 100.84241 
L 220.822475 91.651058 
L 214.067965 54.885649 
L 206.636445 40.653878 
L 203.789831 18.12024 
L 201.836553 18.12024 
L 206.636445 54.885649 
L 206.636445 54.885649 
L 219.110605 91.651058 
L 223.341941 106.647474 
L 234.22155 128.416466 
L 233.709533 165.181875 
L 240.047436 173.641173 
L 253.119242 201.947284 
L 240.047436 235.616658 
L 227.131779 201.947284 
L 223.341941 188.250367 
L 213.573165 165.181875 
L 206.636445 130.458989 
L 204.762809 128.416466 
L 191.940059 91.651058 
L 189.93095 82.459705 
L 180.457616 91.651058 
L 188.102289 128.416466 
L 189.93095 137.607818 
L 199.700862 165.181875 
L 205.337709 201.947284 
L 206.636445 207.199485 
L 217.913148 238.712693 
L 223.341941 265.13783 
L 228.373336 275.478101 
L 236.865382 312.24351 
L 239.613667 312.24351 
z
M 250.545502 275.478101 
L 256.752932 253.010351 
L 264.745583 275.478101 
L 256.752932 287.921778 
z
M 204.762809 165.181875 
L 206.636445 154.969261 
L 208.854197 165.181875 
L 206.636445 181.893424 
z
M 173.225454 75.310876 
L 177.273053 54.885649 
L 173.225454 38.174099 
L 170.450899 54.885649 
z
" clip-path="url(#p57e7f3298e)" style="fill: #3d4d8a"/>
    <path d="M 223.341941 278.541885 
L 233.82934 312.24351 
L 236.865382 312.24351 
L 228.373336 275.478101 
L 223.341941 265.13783 
L 217.913148 238.712693 
L 206.636445 207.199485 
L 205.337709 201.947284 
L 199.700862 165.181875 
L 189.93095 137.607818 
L 188.102289 128.416466 
L 180.457616 91.651058 
L 189.93095 82.459705 
L 191.940059 91.651058 
L 204.762809 128.416466 
L 206.636445 130.458989 
L 213.573165 165.181875 
L 223.341941 188.250367 
L 227.131779 201.947284 
L 240.047436 235.616658 
L 253.119242 201.947284 
L 240.047436 173.641173 
L 233.709533 165.181875 
L 234.22155 128.416466 
L 223.341941 106.647474 
L 219.110605 91.651058 
L 206.636445 54.885649 
L 206.636445 54.885649 
L 201.836553 18.12024 
L 199.742257 18.12024 
L 198.284283 54.885649 
L 206.636445 61.279633 
L 217.291389 91.651058 
L 223.341941 112.452539 
L 231.695274 128.416466 
L 230.241091 165.181875 
L 240.047436 177.545464 
L 251.630061 201.947284 
L 240.047436 230.972606 
L 229.293135 201.947284 
L 223.341941 179.599682 
L 217.631038 165.181875 
L 211.795874 128.416466 
L 206.636445 122.469121 
L 195.090379 91.651058 
L 189.93095 66.703102 
L 185.163419 54.885649 
L 175.721081 18.12024 
L 173.225454 18.12024 
L 156.519959 18.12024 
L 152.708051 18.12024 
L 156.519959 38.800782 
L 162.456685 54.885649 
L 170.634947 91.651058 
L 173.225454 100.563884 
L 184.058137 128.416466 
L 189.93095 155.990523 
L 193.565438 165.181875 
L 202.551686 201.947284 
L 206.636445 217.703887 
L 214.618329 238.712693 
L 222.688831 275.478101 
z
M 170.450899 54.885649 
L 173.225454 38.174099 
L 177.273053 54.885649 
L 173.225454 75.310876 
z
M 256.752932 287.921778 
L 264.745583 275.478101 
L 256.752932 253.010351 
L 250.545502 275.478101 
z
M 254.094604 275.478101 
L 256.752932 265.265488 
L 260.660266 275.478101 
L 256.752932 281.134318 
z
" clip-path="url(#p57e7f3298e)" style="fill: #355f8d"/>
    <path d="M 39.58149 311.477564 
L 39.58149 312.24351 
L 40.102049 312.24351 
z
M 223.341941 290.797022 
L 230.438161 312.24351 
L 233.82934 312.24351 
L 223.341941 278.541885 
L 222.688831 275.478101 
L 214.618329 238.712693 
L 206.636445 217.703887 
L 202.551686 201.947284 
L 193.565438 165.181875 
L 189.93095 155.990523 
L 184.058137 128.416466 
L 173.225454 100.563884 
L 170.634947 91.651058 
L 162.456685 54.885649 
L 156.519959 38.800782 
L 152.708051 18.12024 
L 146.694419 18.12024 
L 154.844153 54.885649 
L 156.519959 61.95592 
L 166.25613 91.651058 
L 173.225454 113.933123 
L 179.357724 128.416466 
L 188.332496 165.181875 
L 189.93095 171.309443 
L 199.469515 201.947284 
L 206.636445 228.20829 
L 210.900947 238.712693 
L 219.918668 275.478101 
z
M 256.752932 281.134318 
L 260.660266 275.478101 
L 256.752932 265.265488 
L 254.094604 275.478101 
z
M 240.047436 230.972606 
L 251.630061 201.947284 
L 240.047436 177.545464 
L 230.241091 165.181875 
L 231.695274 128.416466 
L 223.341941 112.452539 
L 217.291389 91.651058 
L 206.636445 61.279633 
L 198.284283 54.885649 
L 199.742257 18.12024 
L 197.484987 18.12024 
L 189.93095 51.90467 
L 180.148212 18.12024 
L 175.721081 18.12024 
L 185.163419 54.885649 
L 189.93095 66.703102 
L 195.090379 91.651058 
L 206.636445 122.469121 
L 211.795874 128.416466 
L 217.631038 165.181875 
L 223.341941 179.599682 
L 229.293135 201.947284 
z
M 231.304617 201.947284 
L 240.047436 181.449755 
L 250.06031 201.947284 
L 240.047436 226.328555 
z
M 221.190487 165.181875 
L 216.5422 128.416466 
L 223.341941 118.257603 
L 228.927929 128.416466 
L 226.301117 165.181875 
L 223.341941 170.948998 
z
M 197.931956 91.651058 
L 206.636445 67.673617 
L 215.350458 91.651058 
L 206.636445 115.981107 
z
" clip-path="url(#p57e7f3298e)" style="fill: #2d708e"/>
    <path d="M 39.58149 302.286212 
L 39.58149 311.477564 
L 40.102049 312.24351 
L 45.71376 312.24351 
z
M 223.341941 303.052158 
L 226.597617 312.24351 
L 230.438161 312.24351 
L 223.341941 290.797022 
L 219.918668 275.478101 
L 210.900947 238.712693 
L 206.636445 228.20829 
L 199.469515 201.947284 
L 189.93095 171.309443 
L 188.332496 165.181875 
L 179.357724 128.416466 
L 173.225454 113.933123 
L 166.25613 91.651058 
L 156.519959 61.95592 
L 154.844153 54.885649 
L 146.694419 18.12024 
L 139.814463 18.12024 
L 139.503016 18.12024 
L 139.814463 19.718736 
L 150.376992 54.885649 
L 156.519959 78.92457 
L 161.097146 91.651058 
L 173.225454 127.302363 
L 173.746013 128.416466 
L 184.844438 165.181875 
L 189.93095 183.564579 
L 196.020668 201.947284 
L 206.636445 238.712693 
L 206.636445 238.712693 
L 216.8559 275.478101 
z
M 240.047436 226.328555 
L 250.06031 201.947284 
L 240.047436 181.449755 
L 231.304617 201.947284 
z
M 233.185669 201.947284 
L 240.047436 185.354046 
L 248.400769 201.947284 
L 240.047436 221.684503 
z
M 223.341941 170.948998 
L 226.301117 165.181875 
L 228.927929 128.416466 
L 223.341941 118.257603 
L 216.5422 128.416466 
L 221.190487 165.181875 
z
M 220.620274 128.416466 
L 223.341941 124.062668 
L 225.868607 128.416466 
L 223.341941 153.869442 
z
M 206.636445 115.981107 
L 215.350458 91.651058 
L 206.636445 67.673617 
L 197.931956 91.651058 
z
M 200.519943 91.651058 
L 206.636445 74.067601 
L 213.270351 91.651058 
L 206.636445 109.493094 
z
M 189.93095 51.90467 
L 197.484987 18.12024 
L 195.03722 18.12024 
L 189.93095 39.980753 
L 183.98851 18.12024 
L 180.148212 18.12024 
z
" clip-path="url(#p57e7f3298e)" style="fill: #27808e"/>
    <path d="M 39.58149 293.09486 
L 39.58149 302.286212 
L 45.71376 312.24351 
L 50.414173 312.24351 
z
M 223.341941 312.24351 
L 226.597617 312.24351 
L 223.341941 303.052158 
L 216.8559 275.478101 
L 206.636445 238.712693 
L 206.636445 238.712693 
L 196.020668 201.947284 
L 189.93095 183.564579 
L 184.844438 165.181875 
L 173.746013 128.416466 
L 173.225454 127.302363 
L 161.097146 91.651058 
L 156.519959 78.92457 
L 150.376992 54.885649 
L 139.814463 19.718736 
L 139.503016 18.12024 
L 135.479002 18.12024 
L 139.814463 38.900688 
L 145.09484 54.885649 
L 155.526131 91.651058 
L 156.519959 95.097815 
L 169.503929 128.416466 
L 173.225454 141.897116 
L 180.879124 165.181875 
L 189.93095 195.819716 
L 192.105968 201.947284 
L 203.273665 238.712693 
L 206.636445 252.499721 
L 213.431334 275.478101 
L 222.163703 312.24351 
z
M 240.047436 221.684503 
L 248.400769 201.947284 
L 240.047436 185.354046 
L 233.185669 201.947284 
z
M 234.952182 201.947284 
L 240.047436 189.258337 
L 246.64054 201.947284 
L 240.047436 217.040452 
z
M 223.341941 153.869442 
L 225.868607 128.416466 
L 223.341941 124.062668 
L 220.620274 128.416466 
z
M 206.636445 109.493094 
L 213.270351 91.651058 
L 206.636445 74.067601 
L 200.519943 91.651058 
z
M 202.895916 91.651058 
L 206.636445 80.461585 
L 211.029556 91.651058 
L 206.636445 103.005081 
z
M 189.93095 39.980753 
L 195.03722 18.12024 
L 192.363814 18.12024 
L 189.93095 28.056837 
L 187.379498 18.12024 
L 183.98851 18.12024 
z
" clip-path="url(#p57e7f3298e)" style="fill: #21918c"/>
    <path d="M 39.58149 283.903507 
L 39.58149 293.09486 
L 50.414173 312.24351 
L 54.458324 312.24351 
z
M 213.431334 275.478101 
L 206.636445 252.499721 
L 203.273665 238.712693 
L 192.105968 201.947284 
L 189.93095 195.819716 
L 180.879124 165.181875 
L 173.225454 141.897116 
L 169.503929 128.416466 
L 156.519959 95.097815 
L 155.526131 91.651058 
L 145.09484 54.885649 
L 139.814463 38.900688 
L 135.479002 18.12024 
L 130.805786 18.12024 
L 139.009589 54.885649 
L 139.814463 57.713757 
L 151.170919 91.651058 
L 156.519959 108.884843 
L 164.81274 128.416466 
L 173.225454 156.60328 
L 176.284932 165.181875 
L 187.852864 201.947284 
L 189.93095 209.300365 
L 199.469515 238.712693 
L 206.636445 266.286749 
L 209.547899 275.478101 
L 216.904802 312.24351 
L 222.163703 312.24351 
z
M 240.047436 217.040452 
L 246.64054 201.947284 
L 240.047436 189.258337 
L 234.952182 201.947284 
z
M 236.617307 201.947284 
L 240.047436 193.162629 
L 244.766611 201.947284 
L 240.047436 212.3964 
z
M 206.636445 103.005081 
L 211.029556 91.651058 
L 206.636445 80.461585 
L 202.895916 91.651058 
z
M 205.091997 91.651058 
L 206.636445 86.855569 
L 208.601152 91.651058 
L 206.636445 96.517067 
z
M 189.93095 28.056837 
L 192.363814 18.12024 
L 189.93095 18.12024 
L 187.379498 18.12024 
z
" clip-path="url(#p57e7f3298e)" style="fill: #1fa188"/>
    <path d="M 56.286986 312.24351 
L 59.568972 312.24351 
L 56.286986 305.755497 
L 40.35005 275.478101 
L 39.58149 273.806946 
L 39.58149 275.478101 
L 39.58149 283.903507 
L 54.458324 312.24351 
z
M 206.636445 290.184265 
L 210.477236 312.24351 
L 216.904802 312.24351 
L 209.547899 275.478101 
L 206.636445 266.286749 
L 199.469515 238.712693 
L 189.93095 209.300365 
L 187.852864 201.947284 
L 176.284932 165.181875 
L 173.225454 156.60328 
L 164.81274 128.416466 
L 156.519959 108.884843 
L 151.170919 91.651058 
L 139.814463 57.713757 
L 139.009589 54.885649 
L 130.805786 18.12024 
L 125.232831 18.12024 
L 133.646333 54.885649 
L 139.814463 74.682407 
L 146.044693 91.651058 
L 156.519959 122.671871 
L 159.214182 128.416466 
L 170.772611 165.181875 
L 173.225454 172.534957 
L 183.188764 201.947284 
L 189.93095 224.006529 
L 195.090379 238.712693 
L 204.762809 275.478101 
z
M 240.047436 212.3964 
L 244.766611 201.947284 
L 240.047436 193.162629 
L 236.617307 201.947284 
z
M 238.192053 201.947284 
L 240.047436 197.06692 
L 242.763273 201.947284 
L 240.047436 207.752348 
z
M 206.636445 96.517067 
L 208.601152 91.651058 
L 206.636445 86.855569 
L 205.091997 91.651058 
z
" clip-path="url(#p57e7f3298e)" style="fill: #2ab07f"/>
    <path d="M 56.286986 305.755497 
L 59.568972 312.24351 
L 65.19337 312.24351 
L 56.286986 292.77947 
L 48.266648 275.478101 
L 39.58149 253.753087 
L 39.58149 273.806946 
L 40.35005 275.478101 
z
M 206.636445 312.24351 
L 210.477236 312.24351 
L 206.636445 290.184265 
L 204.762809 275.478101 
L 195.090379 238.712693 
L 189.93095 224.006529 
L 183.188764 201.947284 
L 173.225454 172.534957 
L 170.772611 165.181875 
L 159.214182 128.416466 
L 156.519959 122.671871 
L 146.044693 91.651058 
L 139.814463 74.682407 
L 133.646333 54.885649 
L 125.232831 18.12024 
L 123.108968 18.12024 
L 116.416346 18.12024 
L 123.108968 39.129045 
L 127.061962 54.885649 
L 139.814463 91.651058 
L 139.814463 91.651058 
L 151.417187 128.416466 
L 156.519959 143.555164 
L 163.870424 165.181875 
L 173.225454 190.182353 
L 177.628781 201.947284 
L 189.93095 238.712693 
L 189.93095 238.712693 
L 198.284283 275.478101 
L 203.667137 312.24351 
z
M 240.047436 207.752348 
L 242.763273 201.947284 
L 240.047436 197.06692 
L 238.192053 201.947284 
z
M 239.685728 201.947284 
L 240.047436 200.971211 
L 240.611317 201.947284 
L 240.047436 203.108297 
z
" clip-path="url(#p57e7f3298e)" style="fill: #44bf70"/>
    <path d="M 56.286986 292.77947 
L 65.19337 312.24351 
L 69.902672 312.24351 
L 56.286986 279.803443 
L 54.480012 275.478101 
L 45.167478 238.712692 
L 39.58149 229.52134 
L 39.58149 238.712693 
L 39.58149 253.753087 
L 48.266648 275.478101 
z
M 198.284283 275.478101 
L 189.93095 238.712693 
L 189.93095 238.712693 
L 177.628781 201.947284 
L 173.225454 190.182353 
L 163.870424 165.181875 
L 156.519959 143.555164 
L 151.417187 128.416466 
L 139.814463 91.651058 
L 139.814463 91.651058 
L 127.061962 54.885649 
L 123.108968 39.129045 
L 116.416346 18.12024 
L 106.403472 18.12024 
L 101.200906 18.12024 
L 106.403472 31.907268 
L 115.19342 54.885649 
L 123.108968 82.459705 
L 126.168445 91.651058 
L 139.814463 128.416466 
L 139.814463 128.416466 
L 154.775066 165.181875 
L 156.519959 170.434076 
L 169.862674 201.947284 
L 173.225454 215.316523 
L 180.541723 238.712693 
L 189.93095 275.478101 
L 189.93095 275.478101 
L 196.624696 312.24351 
L 203.667137 312.24351 
z
M 240.047436 203.108297 
L 240.611317 201.947284 
L 240.047436 200.971211 
L 239.685728 201.947284 
z
" clip-path="url(#p57e7f3298e)" style="fill: #67cc5c"/>
    <path d="M 56.286986 279.803443 
L 69.902672 312.24351 
L 72.992481 312.24351 
L 89.697977 312.24351 
L 106.403472 312.24351 
L 123.108968 312.24351 
L 135.238208 312.24351 
L 123.108968 275.478101 
L 123.108968 275.478101 
L 110.244263 238.712693 
L 106.403472 228.20829 
L 97.129496 201.947284 
L 89.697977 183.564579 
L 82.531047 165.181875 
L 72.992481 149.425271 
L 64.640318 128.416466 
L 56.286986 112.659863 
L 47.934823 91.651058 
L 39.58149 69.591812 
L 39.58149 91.651058 
L 39.58149 128.416466 
L 39.58149 165.181875 
L 39.58149 201.947284 
L 39.58149 229.52134 
L 45.167478 238.712693 
L 54.480012 275.478101 
z
M 189.93095 312.24351 
L 196.624696 312.24351 
L 189.93095 275.478101 
L 189.93095 275.478101 
L 180.541723 238.712693 
L 173.225454 215.316523 
L 169.862674 201.947284 
L 156.519959 170.434076 
L 154.775066 165.181875 
L 139.814463 128.416466 
L 139.814463 128.416466 
L 126.168445 91.651058 
L 123.108968 82.459705 
L 115.19342 54.885649 
L 106.403472 31.907268 
L 101.200906 18.12024 
L 89.697977 18.12024 
L 81.898865 18.12024 
L 89.697977 41.516409 
L 96.930138 54.885649 
L 106.403472 80.621435 
L 111.197004 91.651058 
L 123.108968 125.074156 
L 124.796332 128.416466 
L 139.814463 162.353767 
L 141.282434 165.181875 
L 156.519959 201.947284 
L 156.519959 201.947284 
L 166.788315 238.712693 
L 173.225454 259.13792 
L 178.384883 275.478101 
L 186.84114 312.24351 
z
" clip-path="url(#p57e7f3298e)" style="fill: #90d743"/>
    <path d="M 123.108968 275.478101 
L 135.238208 312.24351 
L 139.814463 312.24351 
L 156.519959 312.24351 
L 173.225454 312.24351 
L 186.84114 312.24351 
L 178.384883 275.478101 
L 173.225454 259.13792 
L 166.788315 238.712693 
L 156.519959 201.947284 
L 156.519959 201.947284 
L 141.282434 165.181875 
L 139.814463 162.353767 
L 124.796332 128.416466 
L 123.108968 125.074156 
L 111.197004 91.651058 
L 106.403472 80.621435 
L 96.930138 54.885649 
L 89.697977 41.516409 
L 81.898865 18.12024 
L 72.992481 18.12024 
L 56.286986 18.12024 
L 39.58149 18.12024 
L 39.58149 54.885649 
L 39.58149 69.591812 
L 47.934823 91.651058 
L 56.286986 112.659863 
L 64.640318 128.416466 
L 72.992481 149.425271 
L 82.531047 165.181875 
L 89.697977 183.564579 
L 97.129496 201.947284 
L 106.403472 228.20829 
L 110.244263 238.712693 
L 123.108968 275.478101 
z
M 121.476259 201.947284 
L 123.108968 195.819716 
L 126.648409 201.947284 
L 123.108968 211.138636 
z
" clip-path="url(#p57e7f3298e)" style="fill: #bddf26"/>
    <path d="M 123.108968 211.138636 
L 126.648409 201.947284 
L 123.108968 195.819716 
L 121.476259 201.947284 
z
" clip-path="url(#p57e7f3298e)" style="fill: #eae51a"/>
   </g>
   <g id="PathCollection_1">
    <defs>
     <path id="m9906ee2ab3" d="M -3 3 
L 3 -3 
M -3 -3 
L 3 3 
" style="stroke: #ff0000; stroke-width: 1.5"/>
    </defs>
    <g clip-path="url(#p57e7f3298e)">
     <use xlink:href="#m9906ee2ab3" x="156.519959" y="312.24351" style="fill: #ff0000; stroke: #ff0000; stroke-width: 1.5"/>
     <use xlink:href="#m9906ee2ab3" x="156.519959" y="275.478101" style="fill: #ff0000; stroke: #ff0000; stroke-width: 1.5"/>
     <use xlink:href="#m9906ee2ab3" x="139.814463" y="238.712693" style="fill: #ff0000; stroke: #ff0000; stroke-width: 1.5"/>
     <use xlink:href="#m9906ee2ab3" x="123.108968" y="201.947284" style="fill: #ff0000; stroke: #ff0000; stroke-width: 1.5"/>
     <use xlink:href="#m9906ee2ab3" x="106.403472" y="165.181875" style="fill: #ff0000; stroke: #ff0000; stroke-width: 1.5"/>
     <use xlink:href="#m9906ee2ab3" x="89.697977" y="128.416466" style="fill: #ff0000; stroke: #ff0000; stroke-width: 1.5"/>
     <use xlink:href="#m9906ee2ab3" x="72.992481" y="91.651058" style="fill: #ff0000; stroke: #ff0000; stroke-width: 1.5"/>
     <use xlink:href="#m9906ee2ab3" x="56.286986" y="54.885649" style="fill: #ff0000; stroke: #ff0000; stroke-width: 1.5"/>
     <use xlink:href="#m9906ee2ab3" x="56.286986" y="18.12024" style="fill: #ff0000; stroke: #ff0000; stroke-width: 1.5"/>
    </g>
   </g>
   <g id="matplotlib.axis_1">
    <g id="xtick_1">
     <g id="line2d_1">
      <defs>
       <path id="m4b625c8adf" d="M 0 0 
L 0 3.5 
" style="stroke: #000000; stroke-width: 0.8"/>
      </defs>
      <g>
       <use xlink:href="#m4b625c8adf" x="39.58149" y="312.24351" style="stroke: #000000; stroke-width: 0.8"/>
      </g>
     </g>
     <g id="text_1">
      <!-- $\mathdefault{10^{-3}}$ -->
      <g transform="translate(27.83149 326.841947) scale(0.1 -0.1)">
       <defs>
        <path id="DejaVuSans-31" d="M 794 531 
L 1825 531 
L 1825 4091 
L 703 3866 
L 703 4441 
L 1819 4666 
L 2450 4666 
L 2450 531 
L 3481 531 
L 3481 0 
L 794 0 
L 794 531 
z
" transform="scale(0.015625)"/>
        <path id="DejaVuSans-30" d="M 2034 4250 
Q 1547 4250 1301 3770 
Q 1056 3291 1056 2328 
Q 1056 1369 1301 889 
Q 1547 409 2034 409 
Q 2525 409 2770 889 
Q 3016 1369 3016 2328 
Q 3016 3291 2770 3770 
Q 2525 4250 2034 4250 
z
M 2034 4750 
Q 2819 4750 3233 4129 
Q 3647 3509 3647 2328 
Q 3647 1150 3233 529 
Q 2819 -91 2034 -91 
Q 1250 -91 836 529 
Q 422 1150 422 2328 
Q 422 3509 836 4129 
Q 1250 4750 2034 4750 
z
" transform="scale(0.015625)"/>
        <path id="DejaVuSans-2212" d="M 678 2272 
L 4684 2272 
L 4684 1741 
L 678 1741 
L 678 2272 
z
" transform="scale(0.015625)"/>
        <path id="DejaVuSans-33" d="M 2597 2516 
Q 3050 2419 3304 2112 
Q 3559 1806 3559 1356 
Q 3559 666 3084 287 
Q 2609 -91 1734 -91 
Q 1441 -91 1130 -33 
Q 819 25 488 141 
L 488 750 
Q 750 597 1062 519 
Q 1375 441 1716 441 
Q 2309 441 2620 675 
Q 2931 909 2931 1356 
Q 2931 1769 2642 2001 
Q 2353 2234 1838 2234 
L 1294 2234 
L 1294 2753 
L 1863 2753 
Q 2328 2753 2575 2939 
Q 2822 3125 2822 3475 
Q 2822 3834 2567 4026 
Q 2313 4219 1838 4219 
Q 1578 4219 1281 4162 
Q 984 4106 628 3988 
L 628 4550 
Q 988 4650 1302 4700 
Q 1616 4750 1894 4750 
Q 2613 4750 3031 4423 
Q 3450 4097 3450 3541 
Q 3450 3153 3228 2886 
Q 3006 2619 2597 2516 
z
" transform="scale(0.015625)"/>
       </defs>
       <use xlink:href="#DejaVuSans-31" transform="translate(0 0.765625)"/>
       <use xlink:href="#DejaVuSans-30" transform="translate(63.623047 0.765625)"/>
       <use xlink:href="#DejaVuSans-2212" transform="translate(128.203125 39.046875) scale(0.7)"/>
       <use xlink:href="#DejaVuSans-33" transform="translate(186.855469 39.046875) scale(0.7)"/>
      </g>
     </g>
    </g>
    <g id="xtick_2">
     <g id="line2d_2">
      <g>
       <use xlink:href="#m4b625c8adf" x="106.403472" y="312.24351" style="stroke: #000000; stroke-width: 0.8"/>
      </g>
     </g>
     <g id="text_2">
      <!-- $\mathdefault{10^{-2}}$ -->
      <g transform="translate(94.653472 326.841947) scale(0.1 -0.1)">
       <defs>
        <path id="DejaVuSans-32" d="M 1228 531 
L 3431 531 
L 3431 0 
L 469 0 
L 469 531 
Q 828 903 1448 1529 
Q 2069 2156 2228 2338 
Q 2531 2678 2651 2914 
Q 2772 3150 2772 3378 
Q 2772 3750 2511 3984 
Q 2250 4219 1831 4219 
Q 1534 4219 1204 4116 
Q 875 4013 500 3803 
L 500 4441 
Q 881 4594 1212 4672 
Q 1544 4750 1819 4750 
Q 2544 4750 2975 4387 
Q 3406 4025 3406 3419 
Q 3406 3131 3298 2873 
Q 3191 2616 2906 2266 
Q 2828 2175 2409 1742 
Q 1991 1309 1228 531 
z
" transform="scale(0.015625)"/>
       </defs>
       <use xlink:href="#DejaVuSans-31" transform="translate(0 0.765625)"/>
       <use xlink:href="#DejaVuSans-30" transform="translate(63.623047 0.765625)"/>
       <use xlink:href="#DejaVuSans-2212" transform="translate(128.203125 39.046875) scale(0.7)"/>
       <use xlink:href="#DejaVuSans-32" transform="translate(186.855469 39.046875) scale(0.7)"/>
      </g>
     </g>
    </g>
    <g id="xtick_3">
     <g id="line2d_3">
      <g>
       <use xlink:href="#m4b625c8adf" x="173.225454" y="312.24351" style="stroke: #000000; stroke-width: 0.8"/>
      </g>
     </g>
     <g id="text_3">
      <!-- $\mathdefault{10^{-1}}$ -->
      <g transform="translate(161.475454 326.841947) scale(0.1 -0.1)">
       <use xlink:href="#DejaVuSans-31" transform="translate(0 0.684375)"/>
       <use xlink:href="#DejaVuSans-30" transform="translate(63.623047 0.684375)"/>
       <use xlink:href="#DejaVuSans-2212" transform="translate(128.203125 38.965625) scale(0.7)"/>
       <use xlink:href="#DejaVuSans-31" transform="translate(186.855469 38.965625) scale(0.7)"/>
      </g>
     </g>
    </g>
    <g id="xtick_4">
     <g id="line2d_4">
      <g>
       <use xlink:href="#m4b625c8adf" x="240.047436" y="312.24351" style="stroke: #000000; stroke-width: 0.8"/>
      </g>
     </g>
     <g id="text_4">
      <!-- $\mathdefault{10^{0}}$ -->
      <g transform="translate(231.247436 326.841947) scale(0.1 -0.1)">
       <use xlink:href="#DejaVuSans-31" transform="translate(0 0.765625)"/>
       <use xlink:href="#DejaVuSans-30" transform="translate(63.623047 0.765625)"/>
       <use xlink:href="#DejaVuSans-30" transform="translate(128.203125 39.046875) scale(0.7)"/>
      </g>
     </g>
    </g>
    <g id="xtick_5">
     <g id="line2d_5">
      <g>
       <use xlink:href="#m4b625c8adf" x="306.869418" y="312.24351" style="stroke: #000000; stroke-width: 0.8"/>
      </g>
     </g>
     <g id="text_5">
      <!-- $\mathdefault{10^{1}}$ -->
      <g transform="translate(298.069418 326.841947) scale(0.1 -0.1)">
       <use xlink:href="#DejaVuSans-31" transform="translate(0 0.684375)"/>
       <use xlink:href="#DejaVuSans-30" transform="translate(63.623047 0.684375)"/>
       <use xlink:href="#DejaVuSans-31" transform="translate(128.203125 38.965625) scale(0.7)"/>
      </g>
     </g>
    </g>
    <g id="xtick_6">
     <g id="line2d_6">
      <g>
       <use xlink:href="#m4b625c8adf" x="373.6914" y="312.24351" style="stroke: #000000; stroke-width: 0.8"/>
      </g>
     </g>
     <g id="text_6">
      <!-- $\mathdefault{10^{2}}$ -->
      <g transform="translate(364.8914 326.841947) scale(0.1 -0.1)">
       <use xlink:href="#DejaVuSans-31" transform="translate(0 0.765625)"/>
       <use xlink:href="#DejaVuSans-30" transform="translate(63.623047 0.765625)"/>
       <use xlink:href="#DejaVuSans-32" transform="translate(128.203125 39.046875) scale(0.7)"/>
      </g>
     </g>
    </g>
    <g id="xtick_7">
     <g id="line2d_7">
      <defs>
       <path id="me9a5fc083b" d="M 0 0 
L 0 2 
" style="stroke: #000000; stroke-width: 0.6"/>
      </defs>
      <g>
       <use xlink:href="#me9a5fc083b" x="59.696911" y="312.24351" style="stroke: #000000; stroke-width: 0.6"/>
      </g>
     </g>
    </g>
    <g id="xtick_8">
     <g id="line2d_8">
      <g>
       <use xlink:href="#me9a5fc083b" x="71.463678" y="312.24351" style="stroke: #000000; stroke-width: 0.6"/>
      </g>
     </g>
    </g>
    <g id="xtick_9">
     <g id="line2d_9">
      <g>
       <use xlink:href="#me9a5fc083b" x="79.812332" y="312.24351" style="stroke: #000000; stroke-width: 0.6"/>
      </g>
     </g>
    </g>
    <g id="xtick_10">
     <g id="line2d_10">
      <g>
       <use xlink:href="#me9a5fc083b" x="86.288051" y="312.24351" style="stroke: #000000; stroke-width: 0.6"/>
      </g>
     </g>
    </g>
    <g id="xtick_11">
     <g id="line2d_11">
      <g>
       <use xlink:href="#me9a5fc083b" x="91.579099" y="312.24351" style="stroke: #000000; stroke-width: 0.6"/>
      </g>
     </g>
    </g>
    <g id="xtick_12">
     <g id="line2d_12">
      <g>
       <use xlink:href="#me9a5fc083b" x="96.052616" y="312.24351" style="stroke: #000000; stroke-width: 0.6"/>
      </g>
     </g>
    </g>
    <g id="xtick_13">
     <g id="line2d_13">
      <g>
       <use xlink:href="#me9a5fc083b" x="99.927753" y="312.24351" style="stroke: #000000; stroke-width: 0.6"/>
      </g>
     </g>
    </g>
    <g id="xtick_14">
     <g id="line2d_14">
      <g>
       <use xlink:href="#me9a5fc083b" x="103.345866" y="312.24351" style="stroke: #000000; stroke-width: 0.6"/>
      </g>
     </g>
    </g>
    <g id="xtick_15">
     <g id="line2d_15">
      <g>
       <use xlink:href="#me9a5fc083b" x="126.518893" y="312.24351" style="stroke: #000000; stroke-width: 0.6"/>
      </g>
     </g>
    </g>
    <g id="xtick_16">
     <g id="line2d_16">
      <g>
       <use xlink:href="#me9a5fc083b" x="138.28566" y="312.24351" style="stroke: #000000; stroke-width: 0.6"/>
      </g>
     </g>
    </g>
    <g id="xtick_17">
     <g id="line2d_17">
      <g>
       <use xlink:href="#me9a5fc083b" x="146.634314" y="312.24351" style="stroke: #000000; stroke-width: 0.6"/>
      </g>
     </g>
    </g>
    <g id="xtick_18">
     <g id="line2d_18">
      <g>
       <use xlink:href="#me9a5fc083b" x="153.110033" y="312.24351" style="stroke: #000000; stroke-width: 0.6"/>
      </g>
     </g>
    </g>
    <g id="xtick_19">
     <g id="line2d_19">
      <g>
       <use xlink:href="#me9a5fc083b" x="158.401081" y="312.24351" style="stroke: #000000; stroke-width: 0.6"/>
      </g>
     </g>
    </g>
    <g id="xtick_20">
     <g id="line2d_20">
      <g>
       <use xlink:href="#me9a5fc083b" x="162.874598" y="312.24351" style="stroke: #000000; stroke-width: 0.6"/>
      </g>
     </g>
    </g>
    <g id="xtick_21">
     <g id="line2d_21">
      <g>
       <use xlink:href="#me9a5fc083b" x="166.749735" y="312.24351" style="stroke: #000000; stroke-width: 0.6"/>
      </g>
     </g>
    </g>
    <g id="xtick_22">
     <g id="line2d_22">
      <g>
       <use xlink:href="#me9a5fc083b" x="170.167848" y="312.24351" style="stroke: #000000; stroke-width: 0.6"/>
      </g>
     </g>
    </g>
    <g id="xtick_23">
     <g id="line2d_23">
      <g>
       <use xlink:href="#me9a5fc083b" x="193.340875" y="312.24351" style="stroke: #000000; stroke-width: 0.6"/>
      </g>
     </g>
    </g>
    <g id="xtick_24">
     <g id="line2d_24">
      <g>
       <use xlink:href="#me9a5fc083b" x="205.107642" y="312.24351" style="stroke: #000000; stroke-width: 0.6"/>
      </g>
     </g>
    </g>
    <g id="xtick_25">
     <g id="line2d_25">
      <g>
       <use xlink:href="#me9a5fc083b" x="213.456296" y="312.24351" style="stroke: #000000; stroke-width: 0.6"/>
      </g>
     </g>
    </g>
    <g id="xtick_26">
     <g id="line2d_26">
      <g>
       <use xlink:href="#me9a5fc083b" x="219.932015" y="312.24351" style="stroke: #000000; stroke-width: 0.6"/>
      </g>
     </g>
    </g>
    <g id="xtick_27">
     <g id="line2d_27">
      <g>
       <use xlink:href="#me9a5fc083b" x="225.223063" y="312.24351" style="stroke: #000000; stroke-width: 0.6"/>
      </g>
     </g>
    </g>
    <g id="xtick_28">
     <g id="line2d_28">
      <g>
       <use xlink:href="#me9a5fc083b" x="229.69658" y="312.24351" style="stroke: #000000; stroke-width: 0.6"/>
      </g>
     </g>
    </g>
    <g id="xtick_29">
     <g id="line2d_29">
      <g>
       <use xlink:href="#me9a5fc083b" x="233.571717" y="312.24351" style="stroke: #000000; stroke-width: 0.6"/>
      </g>
     </g>
    </g>
    <g id="xtick_30">
     <g id="line2d_30">
      <g>
       <use xlink:href="#me9a5fc083b" x="236.98983" y="312.24351" style="stroke: #000000; stroke-width: 0.6"/>
      </g>
     </g>
    </g>
    <g id="xtick_31">
     <g id="line2d_31">
      <g>
       <use xlink:href="#me9a5fc083b" x="260.162857" y="312.24351" style="stroke: #000000; stroke-width: 0.6"/>
      </g>
     </g>
    </g>
    <g id="xtick_32">
     <g id="line2d_32">
      <g>
       <use xlink:href="#me9a5fc083b" x="271.929624" y="312.24351" style="stroke: #000000; stroke-width: 0.6"/>
      </g>
     </g>
    </g>
    <g id="xtick_33">
     <g id="line2d_33">
      <g>
       <use xlink:href="#me9a5fc083b" x="280.278278" y="312.24351" style="stroke: #000000; stroke-width: 0.6"/>
      </g>
     </g>
    </g>
    <g id="xtick_34">
     <g id="line2d_34">
      <g>
       <use xlink:href="#me9a5fc083b" x="286.753997" y="312.24351" style="stroke: #000000; stroke-width: 0.6"/>
      </g>
     </g>
    </g>
    <g id="xtick_35">
     <g id="line2d_35">
      <g>
       <use xlink:href="#me9a5fc083b" x="292.045045" y="312.24351" style="stroke: #000000; stroke-width: 0.6"/>
      </g>
     </g>
    </g>
    <g id="xtick_36">
     <g id="line2d_36">
      <g>
       <use xlink:href="#me9a5fc083b" x="296.518562" y="312.24351" style="stroke: #000000; stroke-width: 0.6"/>
      </g>
     </g>
    </g>
    <g id="xtick_37">
     <g id="line2d_37">
      <g>
       <use xlink:href="#me9a5fc083b" x="300.393699" y="312.24351" style="stroke: #000000; stroke-width: 0.6"/>
      </g>
     </g>
    </g>
    <g id="xtick_38">
     <g id="line2d_38">
      <g>
       <use xlink:href="#me9a5fc083b" x="303.811812" y="312.24351" style="stroke: #000000; stroke-width: 0.6"/>
      </g>
     </g>
    </g>
    <g id="xtick_39">
     <g id="line2d_39">
      <g>
       <use xlink:href="#me9a5fc083b" x="326.984839" y="312.24351" style="stroke: #000000; stroke-width: 0.6"/>
      </g>
     </g>
    </g>
    <g id="xtick_40">
     <g id="line2d_40">
      <g>
       <use xlink:href="#me9a5fc083b" x="338.751606" y="312.24351" style="stroke: #000000; stroke-width: 0.6"/>
      </g>
     </g>
    </g>
    <g id="xtick_41">
     <g id="line2d_41">
      <g>
       <use xlink:href="#me9a5fc083b" x="347.10026" y="312.24351" style="stroke: #000000; stroke-width: 0.6"/>
      </g>
     </g>
    </g>
    <g id="xtick_42">
     <g id="line2d_42">
      <g>
       <use xlink:href="#me9a5fc083b" x="353.57598" y="312.24351" style="stroke: #000000; stroke-width: 0.6"/>
      </g>
     </g>
    </g>
    <g id="xtick_43">
     <g id="line2d_43">
      <g>
       <use xlink:href="#me9a5fc083b" x="358.867027" y="312.24351" style="stroke: #000000; stroke-width: 0.6"/>
      </g>
     </g>
    </g>
    <g id="xtick_44">
     <g id="line2d_44">
      <g>
       <use xlink:href="#me9a5fc083b" x="363.340545" y="312.24351" style="stroke: #000000; stroke-width: 0.6"/>
      </g>
     </g>
    </g>
    <g id="xtick_45">
     <g id="line2d_45">
      <g>
       <use xlink:href="#me9a5fc083b" x="367.215681" y="312.24351" style="stroke: #000000; stroke-width: 0.6"/>
      </g>
     </g>
    </g>
    <g id="xtick_46">
     <g id="line2d_46">
      <g>
       <use xlink:href="#me9a5fc083b" x="370.633794" y="312.24351" style="stroke: #000000; stroke-width: 0.6"/>
      </g>
     </g>
    </g>
    <g id="text_7">
     <!-- $h$ -->
     <g transform="translate(203.436445 340.520072) scale(0.1 -0.1)">
      <defs>
       <path id="DejaVuSans-Oblique-68" d="M 3566 2113 
L 3156 0 
L 2578 0 
L 2988 2091 
Q 3016 2238 3031 2350 
Q 3047 2463 3047 2528 
Q 3047 2791 2881 2937 
Q 2716 3084 2419 3084 
Q 1956 3084 1617 2771 
Q 1278 2459 1178 1941 
L 800 0 
L 225 0 
L 1172 4863 
L 1747 4863 
L 1375 2950 
Q 1594 3244 1934 3414 
Q 2275 3584 2650 3584 
Q 3113 3584 3367 3334 
Q 3622 3084 3622 2631 
Q 3622 2519 3608 2391 
Q 3594 2263 3566 2113 
z
" transform="scale(0.015625)"/>
      </defs>
      <use xlink:href="#DejaVuSans-Oblique-68" transform="translate(0 0.015625)"/>
     </g>
    </g>
   </g>
   <g id="matplotlib.axis_2">
    <g id="ytick_1">
     <g id="line2d_47">
      <defs>
       <path id="m7f5e3608ec" d="M 0 0 
L -3.5 0 
" style="stroke: #000000; stroke-width: 0.8"/>
      </defs>
      <g>
       <use xlink:href="#m7f5e3608ec" x="39.58149" y="312.24351" style="stroke: #000000; stroke-width: 0.8"/>
      </g>
     </g>
     <g id="text_8">
      <!-- 1.0 -->
      <g transform="translate(16.678365 316.042729) scale(0.1 -0.1)">
       <defs>
        <path id="DejaVuSans-2e" d="M 684 794 
L 1344 794 
L 1344 0 
L 684 0 
L 684 794 
z
" transform="scale(0.015625)"/>
       </defs>
       <use xlink:href="#DejaVuSans-31"/>
       <use xlink:href="#DejaVuSans-2e" x="63.623047"/>
       <use xlink:href="#DejaVuSans-30" x="95.410156"/>
      </g>
     </g>
    </g>
    <g id="ytick_2">
     <g id="line2d_48">
      <g>
       <use xlink:href="#m7f5e3608ec" x="39.58149" y="273.027074" style="stroke: #000000; stroke-width: 0.8"/>
      </g>
     </g>
     <g id="text_9">
      <!-- 1.2 -->
      <g transform="translate(16.678365 276.826293) scale(0.1 -0.1)">
       <use xlink:href="#DejaVuSans-31"/>
       <use xlink:href="#DejaVuSans-2e" x="63.623047"/>
       <use xlink:href="#DejaVuSans-32" x="95.410156"/>
      </g>
     </g>
    </g>
    <g id="ytick_3">
     <g id="line2d_49">
      <g>
       <use xlink:href="#m7f5e3608ec" x="39.58149" y="233.810638" style="stroke: #000000; stroke-width: 0.8"/>
      </g>
     </g>
     <g id="text_10">
      <!-- 1.4 -->
      <g transform="translate(16.678365 237.609857) scale(0.1 -0.1)">
       <defs>
        <path id="DejaVuSans-34" d="M 2419 4116 
L 825 1625 
L 2419 1625 
L 2419 4116 
z
M 2253 4666 
L 3047 4666 
L 3047 1625 
L 3713 1625 
L 3713 1100 
L 3047 1100 
L 3047 0 
L 2419 0 
L 2419 1100 
L 313 1100 
L 313 1709 
L 2253 4666 
z
" transform="scale(0.015625)"/>
       </defs>
       <use xlink:href="#DejaVuSans-31"/>
       <use xlink:href="#DejaVuSans-2e" x="63.623047"/>
       <use xlink:href="#DejaVuSans-34" x="95.410156"/>
      </g>
     </g>
    </g>
    <g id="ytick_4">
     <g id="line2d_50">
      <g>
       <use xlink:href="#m7f5e3608ec" x="39.58149" y="194.594202" style="stroke: #000000; stroke-width: 0.8"/>
      </g>
     </g>
     <g id="text_11">
      <!-- 1.6 -->
      <g transform="translate(16.678365 198.393421) scale(0.1 -0.1)">
       <defs>
        <path id="DejaVuSans-36" d="M 2113 2584 
Q 1688 2584 1439 2293 
Q 1191 2003 1191 1497 
Q 1191 994 1439 701 
Q 1688 409 2113 409 
Q 2538 409 2786 701 
Q 3034 994 3034 1497 
Q 3034 2003 2786 2293 
Q 2538 2584 2113 2584 
z
M 3366 4563 
L 3366 3988 
Q 3128 4100 2886 4159 
Q 2644 4219 2406 4219 
Q 1781 4219 1451 3797 
Q 1122 3375 1075 2522 
Q 1259 2794 1537 2939 
Q 1816 3084 2150 3084 
Q 2853 3084 3261 2657 
Q 3669 2231 3669 1497 
Q 3669 778 3244 343 
Q 2819 -91 2113 -91 
Q 1303 -91 875 529 
Q 447 1150 447 2328 
Q 447 3434 972 4092 
Q 1497 4750 2381 4750 
Q 2619 4750 2861 4703 
Q 3103 4656 3366 4563 
z
" transform="scale(0.015625)"/>
       </defs>
       <use xlink:href="#DejaVuSans-31"/>
       <use xlink:href="#DejaVuSans-2e" x="63.623047"/>
       <use xlink:href="#DejaVuSans-36" x="95.410156"/>
      </g>
     </g>
    </g>
    <g id="ytick_5">
     <g id="line2d_51">
      <g>
       <use xlink:href="#m7f5e3608ec" x="39.58149" y="155.377766" style="stroke: #000000; stroke-width: 0.8"/>
      </g>
     </g>
     <g id="text_12">
      <!-- 1.8 -->
      <g transform="translate(16.678365 159.176985) scale(0.1 -0.1)">
       <defs>
        <path id="DejaVuSans-38" d="M 2034 2216 
Q 1584 2216 1326 1975 
Q 1069 1734 1069 1313 
Q 1069 891 1326 650 
Q 1584 409 2034 409 
Q 2484 409 2743 651 
Q 3003 894 3003 1313 
Q 3003 1734 2745 1975 
Q 2488 2216 2034 2216 
z
M 1403 2484 
Q 997 2584 770 2862 
Q 544 3141 544 3541 
Q 544 4100 942 4425 
Q 1341 4750 2034 4750 
Q 2731 4750 3128 4425 
Q 3525 4100 3525 3541 
Q 3525 3141 3298 2862 
Q 3072 2584 2669 2484 
Q 3125 2378 3379 2068 
Q 3634 1759 3634 1313 
Q 3634 634 3220 271 
Q 2806 -91 2034 -91 
Q 1263 -91 848 271 
Q 434 634 434 1313 
Q 434 1759 690 2068 
Q 947 2378 1403 2484 
z
M 1172 3481 
Q 1172 3119 1398 2916 
Q 1625 2713 2034 2713 
Q 2441 2713 2670 2916 
Q 2900 3119 2900 3481 
Q 2900 3844 2670 4047 
Q 2441 4250 2034 4250 
Q 1625 4250 1398 4047 
Q 1172 3844 1172 3481 
z
" transform="scale(0.015625)"/>
       </defs>
       <use xlink:href="#DejaVuSans-31"/>
       <use xlink:href="#DejaVuSans-2e" x="63.623047"/>
       <use xlink:href="#DejaVuSans-38" x="95.410156"/>
      </g>
     </g>
    </g>
    <g id="ytick_6">
     <g id="line2d_52">
      <g>
       <use xlink:href="#m7f5e3608ec" x="39.58149" y="116.16133" style="stroke: #000000; stroke-width: 0.8"/>
      </g>
     </g>
     <g id="text_13">
      <!-- 2.0 -->
      <g transform="translate(16.678365 119.960549) scale(0.1 -0.1)">
       <use xlink:href="#DejaVuSans-32"/>
       <use xlink:href="#DejaVuSans-2e" x="63.623047"/>
       <use xlink:href="#DejaVuSans-30" x="95.410156"/>
      </g>
     </g>
    </g>
    <g id="ytick_7">
     <g id="line2d_53">
      <g>
       <use xlink:href="#m7f5e3608ec" x="39.58149" y="76.944894" style="stroke: #000000; stroke-width: 0.8"/>
      </g>
     </g>
     <g id="text_14">
      <!-- 2.2 -->
      <g transform="translate(16.678365 80.744113) scale(0.1 -0.1)">
       <use xlink:href="#DejaVuSans-32"/>
       <use xlink:href="#DejaVuSans-2e" x="63.623047"/>
       <use xlink:href="#DejaVuSans-32" x="95.410156"/>
      </g>
     </g>
    </g>
    <g id="ytick_8">
     <g id="line2d_54">
      <g>
       <use xlink:href="#m7f5e3608ec" x="39.58149" y="37.728458" style="stroke: #000000; stroke-width: 0.8"/>
      </g>
     </g>
     <g id="text_15">
      <!-- 2.4 -->
      <g transform="translate(16.678365 41.527677) scale(0.1 -0.1)">
       <use xlink:href="#DejaVuSans-32"/>
       <use xlink:href="#DejaVuSans-2e" x="63.623047"/>
       <use xlink:href="#DejaVuSans-34" x="95.410156"/>
      </g>
     </g>
    </g>
    <g id="text_16">
     <!-- $\alpha$ -->
     <g transform="translate(10.598677 168.481875) rotate(-90) scale(0.1 -0.1)">
      <defs>
       <path id="DejaVuSans-Oblique-3b1" d="M 2619 1628 
L 2622 2350 
Q 2625 3088 2069 3091 
Q 1653 3094 1394 2747 
Q 1069 2319 959 1747 
Q 825 1059 994 731 
Q 1169 397 1547 397 
Q 1966 397 2319 1063 
L 2619 1628 
z
M 2166 3578 
Q 3141 3594 3128 2584 
Q 3128 2584 3616 3500 
L 4128 3500 
L 3119 1603 
L 3109 919 
Q 3109 766 3194 638 
Q 3291 488 3391 488 
L 3669 488 
L 3575 0 
L 3228 0 
Q 2934 0 2722 263 
Q 2622 394 2619 669 
Q 2416 334 2066 50 
Q 1900 -81 1453 -78 
Q 722 -72 456 397 
Q 184 884 353 1747 
Q 534 2675 1009 3097 
Q 1544 3569 2166 3578 
z
" transform="scale(0.015625)"/>
      </defs>
      <use xlink:href="#DejaVuSans-Oblique-3b1" transform="translate(0 0.84375)"/>
     </g>
    </g>
   </g>
   <g id="patch_3">
    <path d="M 39.58149 312.24351 
L 39.58149 18.12024 
" style="fill: none; stroke: #000000; stroke-width: 0.8; stroke-linejoin: miter; stroke-linecap: square"/>
   </g>
   <g id="patch_4">
    <path d="M 373.6914 312.24351 
L 373.6914 18.12024 
" style="fill: none; stroke: #000000; stroke-width: 0.8; stroke-linejoin: miter; stroke-linecap: square"/>
   </g>
   <g id="patch_5">
    <path d="M 39.58149 312.24351 
L 373.6914 312.24351 
" style="fill: none; stroke: #000000; stroke-width: 0.8; stroke-linejoin: miter; stroke-linecap: square"/>
   </g>
   <g id="patch_6">
    <path d="M 39.58149 18.12024 
L 373.6914 18.12024 
" style="fill: none; stroke: #000000; stroke-width: 0.8; stroke-linejoin: miter; stroke-linecap: square"/>
   </g>
   <g id="text_17">
    <!-- Exactitud para $\alpha$ y $h$ -->
    <g transform="translate(145.736445 12.12024) scale(0.12 -0.12)">
     <defs>
      <path id="DejaVuSans-45" d="M 628 4666 
L 3578 4666 
L 3578 4134 
L 1259 4134 
L 1259 2753 
L 3481 2753 
L 3481 2222 
L 1259 2222 
L 1259 531 
L 3634 531 
L 3634 0 
L 628 0 
L 628 4666 
z
" transform="scale(0.015625)"/>
      <path id="DejaVuSans-78" d="M 3513 3500 
L 2247 1797 
L 3578 0 
L 2900 0 
L 1881 1375 
L 863 0 
L 184 0 
L 1544 1831 
L 300 3500 
L 978 3500 
L 1906 2253 
L 2834 3500 
L 3513 3500 
z
" transform="scale(0.015625)"/>
      <path id="DejaVuSans-61" d="M 2194 1759 
Q 1497 1759 1228 1600 
Q 959 1441 959 1056 
Q 959 750 1161 570 
Q 1363 391 1709 391 
Q 2188 391 2477 730 
Q 2766 1069 2766 1631 
L 2766 1759 
L 2194 1759 
z
M 3341 1997 
L 3341 0 
L 2766 0 
L 2766 531 
Q 2569 213 2275 61 
Q 1981 -91 1556 -91 
Q 1019 -91 701 211 
Q 384 513 384 1019 
Q 384 1609 779 1909 
Q 1175 2209 1959 2209 
L 2766 2209 
L 2766 2266 
Q 2766 2663 2505 2880 
Q 2244 3097 1772 3097 
Q 1472 3097 1187 3025 
Q 903 2953 641 2809 
L 641 3341 
Q 956 3463 1253 3523 
Q 1550 3584 1831 3584 
Q 2591 3584 2966 3190 
Q 3341 2797 3341 1997 
z
" transform="scale(0.015625)"/>
      <path id="DejaVuSans-63" d="M 3122 3366 
L 3122 2828 
Q 2878 2963 2633 3030 
Q 2388 3097 2138 3097 
Q 1578 3097 1268 2742 
Q 959 2388 959 1747 
Q 959 1106 1268 751 
Q 1578 397 2138 397 
Q 2388 397 2633 464 
Q 2878 531 3122 666 
L 3122 134 
Q 2881 22 2623 -34 
Q 2366 -91 2075 -91 
Q 1284 -91 818 406 
Q 353 903 353 1747 
Q 353 2603 823 3093 
Q 1294 3584 2113 3584 
Q 2378 3584 2631 3529 
Q 2884 3475 3122 3366 
z
" transform="scale(0.015625)"/>
      <path id="DejaVuSans-74" d="M 1172 4494 
L 1172 3500 
L 2356 3500 
L 2356 3053 
L 1172 3053 
L 1172 1153 
Q 1172 725 1289 603 
Q 1406 481 1766 481 
L 2356 481 
L 2356 0 
L 1766 0 
Q 1100 0 847 248 
Q 594 497 594 1153 
L 594 3053 
L 172 3053 
L 172 3500 
L 594 3500 
L 594 4494 
L 1172 4494 
z
" transform="scale(0.015625)"/>
      <path id="DejaVuSans-69" d="M 603 3500 
L 1178 3500 
L 1178 0 
L 603 0 
L 603 3500 
z
M 603 4863 
L 1178 4863 
L 1178 4134 
L 603 4134 
L 603 4863 
z
" transform="scale(0.015625)"/>
      <path id="DejaVuSans-75" d="M 544 1381 
L 544 3500 
L 1119 3500 
L 1119 1403 
Q 1119 906 1312 657 
Q 1506 409 1894 409 
Q 2359 409 2629 706 
Q 2900 1003 2900 1516 
L 2900 3500 
L 3475 3500 
L 3475 0 
L 2900 0 
L 2900 538 
Q 2691 219 2414 64 
Q 2138 -91 1772 -91 
Q 1169 -91 856 284 
Q 544 659 544 1381 
z
M 1991 3584 
L 1991 3584 
z
" transform="scale(0.015625)"/>
      <path id="DejaVuSans-64" d="M 2906 2969 
L 2906 4863 
L 3481 4863 
L 3481 0 
L 2906 0 
L 2906 525 
Q 2725 213 2448 61 
Q 2172 -91 1784 -91 
Q 1150 -91 751 415 
Q 353 922 353 1747 
Q 353 2572 751 3078 
Q 1150 3584 1784 3584 
Q 2172 3584 2448 3432 
Q 2725 3281 2906 2969 
z
M 947 1747 
Q 947 1113 1208 752 
Q 1469 391 1925 391 
Q 2381 391 2643 752 
Q 2906 1113 2906 1747 
Q 2906 2381 2643 2742 
Q 2381 3103 1925 3103 
Q 1469 3103 1208 2742 
Q 947 2381 947 1747 
z
" transform="scale(0.015625)"/>
      <path id="DejaVuSans-20" transform="scale(0.015625)"/>
      <path id="DejaVuSans-70" d="M 1159 525 
L 1159 -1331 
L 581 -1331 
L 581 3500 
L 1159 3500 
L 1159 2969 
Q 1341 3281 1617 3432 
Q 1894 3584 2278 3584 
Q 2916 3584 3314 3078 
Q 3713 2572 3713 1747 
Q 3713 922 3314 415 
Q 2916 -91 2278 -91 
Q 1894 -91 1617 61 
Q 1341 213 1159 525 
z
M 3116 1747 
Q 3116 2381 2855 2742 
Q 2594 3103 2138 3103 
Q 1681 3103 1420 2742 
Q 1159 2381 1159 1747 
Q 1159 1113 1420 752 
Q 1681 391 2138 391 
Q 2594 391 2855 752 
Q 3116 1113 3116 1747 
z
" transform="scale(0.015625)"/>
      <path id="DejaVuSans-72" d="M 2631 2963 
Q 2534 3019 2420 3045 
Q 2306 3072 2169 3072 
Q 1681 3072 1420 2755 
Q 1159 2438 1159 1844 
L 1159 0 
L 581 0 
L 581 3500 
L 1159 3500 
L 1159 2956 
Q 1341 3275 1631 3429 
Q 1922 3584 2338 3584 
Q 2397 3584 2469 3576 
Q 2541 3569 2628 3553 
L 2631 2963 
z
" transform="scale(0.015625)"/>
      <path id="DejaVuSans-79" d="M 2059 -325 
Q 1816 -950 1584 -1140 
Q 1353 -1331 966 -1331 
L 506 -1331 
L 506 -850 
L 844 -850 
Q 1081 -850 1212 -737 
Q 1344 -625 1503 -206 
L 1606 56 
L 191 3500 
L 800 3500 
L 1894 763 
L 2988 3500 
L 3597 3500 
L 2059 -325 
z
" transform="scale(0.015625)"/>
     </defs>
     <use xlink:href="#DejaVuSans-45" transform="translate(0 0.015625)"/>
     <use xlink:href="#DejaVuSans-78" transform="translate(63.183594 0.015625)"/>
     <use xlink:href="#DejaVuSans-61" transform="translate(122.363281 0.015625)"/>
     <use xlink:href="#DejaVuSans-63" transform="translate(183.642578 0.015625)"/>
     <use xlink:href="#DejaVuSans-74" transform="translate(238.623047 0.015625)"/>
     <use xlink:href="#DejaVuSans-69" transform="translate(277.832031 0.015625)"/>
     <use xlink:href="#DejaVuSans-74" transform="translate(305.615234 0.015625)"/>
     <use xlink:href="#DejaVuSans-75" transform="translate(344.824219 0.015625)"/>
     <use xlink:href="#DejaVuSans-64" transform="translate(408.203125 0.015625)"/>
     <use xlink:href="#DejaVuSans-20" transform="translate(471.679688 0.015625)"/>
     <use xlink:href="#DejaVuSans-70" transform="translate(503.466797 0.015625)"/>
     <use xlink:href="#DejaVuSans-61" transform="translate(566.943359 0.015625)"/>
     <use xlink:href="#DejaVuSans-72" transform="translate(628.222656 0.015625)"/>
     <use xlink:href="#DejaVuSans-61" transform="translate(669.335938 0.015625)"/>
     <use xlink:href="#DejaVuSans-20" transform="translate(730.615234 0.015625)"/>
     <use xlink:href="#DejaVuSans-Oblique-3b1" transform="translate(762.402344 0.015625)"/>
     <use xlink:href="#DejaVuSans-20" transform="translate(828.320312 0.015625)"/>
     <use xlink:href="#DejaVuSans-79" transform="translate(860.107422 0.015625)"/>
     <use xlink:href="#DejaVuSans-20" transform="translate(919.287109 0.015625)"/>
     <use xlink:href="#DejaVuSans-Oblique-68" transform="translate(951.074219 0.015625)"/>
    </g>
   </g>
  </g>
  <g id="axes_2">
   <g id="patch_7">
    <path d="M 399.196896 312.24351 
L 413.90306 312.24351 
L 413.90306 18.12024 
L 399.196896 18.12024 
z
" style="fill: #ffffff"/>
   </g>
   <g id="QuadMesh_1">
    <path d="M 399.196896 312.24351 
L 413.90306 312.24351 
L 413.90306 292.635292 
L 399.196896 292.635292 
L 399.196896 312.24351 
" clip-path="url(#pd8905dc734)" style="fill: #470d60"/>
    <path d="M 399.196896 292.635292 
L 413.90306 292.635292 
L 413.90306 273.027074 
L 399.196896 273.027074 
L 399.196896 292.635292 
" clip-path="url(#pd8905dc734)" style="fill: #482475"/>
    <path d="M 399.196896 273.027074 
L 413.90306 273.027074 
L 413.90306 253.418856 
L 399.196896 253.418856 
L 399.196896 273.027074 
" clip-path="url(#pd8905dc734)" style="fill: #443983"/>
    <path d="M 399.196896 253.418856 
L 413.90306 253.418856 
L 413.90306 233.810638 
L 399.196896 233.810638 
L 399.196896 253.418856 
" clip-path="url(#pd8905dc734)" style="fill: #3d4d8a"/>
    <path d="M 399.196896 233.810638 
L 413.90306 233.810638 
L 413.90306 214.20242 
L 399.196896 214.20242 
L 399.196896 233.810638 
" clip-path="url(#pd8905dc734)" style="fill: #355f8d"/>
    <path d="M 399.196896 214.20242 
L 413.90306 214.20242 
L 413.90306 194.594202 
L 399.196896 194.594202 
L 399.196896 214.20242 
" clip-path="url(#pd8905dc734)" style="fill: #2d708e"/>
    <path d="M 399.196896 194.594202 
L 413.90306 194.594202 
L 413.90306 174.985984 
L 399.196896 174.985984 
L 399.196896 194.594202 
" clip-path="url(#pd8905dc734)" style="fill: #27808e"/>
    <path d="M 399.196896 174.985984 
L 413.90306 174.985984 
L 413.90306 155.377766 
L 399.196896 155.377766 
L 399.196896 174.985984 
" clip-path="url(#pd8905dc734)" style="fill: #21918c"/>
    <path d="M 399.196896 155.377766 
L 413.90306 155.377766 
L 413.90306 135.769548 
L 399.196896 135.769548 
L 399.196896 155.377766 
" clip-path="url(#pd8905dc734)" style="fill: #1fa188"/>
    <path d="M 399.196896 135.769548 
L 413.90306 135.769548 
L 413.90306 116.16133 
L 399.196896 116.16133 
L 399.196896 135.769548 
" clip-path="url(#pd8905dc734)" style="fill: #2ab07f"/>
    <path d="M 399.196896 116.16133 
L 413.90306 116.16133 
L 413.90306 96.553112 
L 399.196896 96.553112 
L 399.196896 116.16133 
" clip-path="url(#pd8905dc734)" style="fill: #44bf70"/>
    <path d="M 399.196896 96.553112 
L 413.90306 96.553112 
L 413.90306 76.944894 
L 399.196896 76.944894 
L 399.196896 96.553112 
" clip-path="url(#pd8905dc734)" style="fill: #67cc5c"/>
    <path d="M 399.196896 76.944894 
L 413.90306 76.944894 
L 413.90306 57.336676 
L 399.196896 57.336676 
L 399.196896 76.944894 
" clip-path="url(#pd8905dc734)" style="fill: #90d743"/>
    <path d="M 399.196896 57.336676 
L 413.90306 57.336676 
L 413.90306 37.728458 
L 399.196896 37.728458 
L 399.196896 57.336676 
" clip-path="url(#pd8905dc734)" style="fill: #bddf26"/>
    <path d="M 399.196896 37.728458 
L 413.90306 37.728458 
L 413.90306 18.12024 
L 399.196896 18.12024 
L 399.196896 37.728458 
" clip-path="url(#pd8905dc734)" style="fill: #eae51a"/>
   </g>
   <g id="matplotlib.axis_3"/>
   <g id="matplotlib.axis_4">
    <g id="ytick_9">
     <g id="line2d_55">
      <defs>
       <path id="m8f39199d42" d="M 0 0 
L 3.5 0 
" style="stroke: #000000; stroke-width: 0.8"/>
      </defs>
      <g>
       <use xlink:href="#m8f39199d42" x="413.90306" y="312.24351" style="stroke: #000000; stroke-width: 0.8"/>
      </g>
     </g>
     <g id="text_18">
      <!-- 0.48 -->
      <g transform="translate(420.90306 316.042729) scale(0.1 -0.1)">
       <use xlink:href="#DejaVuSans-30"/>
       <use xlink:href="#DejaVuSans-2e" x="63.623047"/>
       <use xlink:href="#DejaVuSans-34" x="95.410156"/>
       <use xlink:href="#DejaVuSans-38" x="159.033203"/>
      </g>
     </g>
    </g>
    <g id="ytick_10">
     <g id="line2d_56">
      <g>
       <use xlink:href="#m8f39199d42" x="413.90306" y="273.027074" style="stroke: #000000; stroke-width: 0.8"/>
      </g>
     </g>
     <g id="text_19">
      <!-- 0.54 -->
      <g transform="translate(420.90306 276.826293) scale(0.1 -0.1)">
       <defs>
        <path id="DejaVuSans-35" d="M 691 4666 
L 3169 4666 
L 3169 4134 
L 1269 4134 
L 1269 2991 
Q 1406 3038 1543 3061 
Q 1681 3084 1819 3084 
Q 2600 3084 3056 2656 
Q 3513 2228 3513 1497 
Q 3513 744 3044 326 
Q 2575 -91 1722 -91 
Q 1428 -91 1123 -41 
Q 819 9 494 109 
L 494 744 
Q 775 591 1075 516 
Q 1375 441 1709 441 
Q 2250 441 2565 725 
Q 2881 1009 2881 1497 
Q 2881 1984 2565 2268 
Q 2250 2553 1709 2553 
Q 1456 2553 1204 2497 
Q 953 2441 691 2322 
L 691 4666 
z
" transform="scale(0.015625)"/>
       </defs>
       <use xlink:href="#DejaVuSans-30"/>
       <use xlink:href="#DejaVuSans-2e" x="63.623047"/>
       <use xlink:href="#DejaVuSans-35" x="95.410156"/>
       <use xlink:href="#DejaVuSans-34" x="159.033203"/>
      </g>
     </g>
    </g>
    <g id="ytick_11">
     <g id="line2d_57">
      <g>
       <use xlink:href="#m8f39199d42" x="413.90306" y="233.810638" style="stroke: #000000; stroke-width: 0.8"/>
      </g>
     </g>
     <g id="text_20">
      <!-- 0.60 -->
      <g transform="translate(420.90306 237.609857) scale(0.1 -0.1)">
       <use xlink:href="#DejaVuSans-30"/>
       <use xlink:href="#DejaVuSans-2e" x="63.623047"/>
       <use xlink:href="#DejaVuSans-36" x="95.410156"/>
       <use xlink:href="#DejaVuSans-30" x="159.033203"/>
      </g>
     </g>
    </g>
    <g id="ytick_12">
     <g id="line2d_58">
      <g>
       <use xlink:href="#m8f39199d42" x="413.90306" y="194.594202" style="stroke: #000000; stroke-width: 0.8"/>
      </g>
     </g>
     <g id="text_21">
      <!-- 0.66 -->
      <g transform="translate(420.90306 198.393421) scale(0.1 -0.1)">
       <use xlink:href="#DejaVuSans-30"/>
       <use xlink:href="#DejaVuSans-2e" x="63.623047"/>
       <use xlink:href="#DejaVuSans-36" x="95.410156"/>
       <use xlink:href="#DejaVuSans-36" x="159.033203"/>
      </g>
     </g>
    </g>
    <g id="ytick_13">
     <g id="line2d_59">
      <g>
       <use xlink:href="#m8f39199d42" x="413.90306" y="155.377766" style="stroke: #000000; stroke-width: 0.8"/>
      </g>
     </g>
     <g id="text_22">
      <!-- 0.72 -->
      <g transform="translate(420.90306 159.176985) scale(0.1 -0.1)">
       <defs>
        <path id="DejaVuSans-37" d="M 525 4666 
L 3525 4666 
L 3525 4397 
L 1831 0 
L 1172 0 
L 2766 4134 
L 525 4134 
L 525 4666 
z
" transform="scale(0.015625)"/>
       </defs>
       <use xlink:href="#DejaVuSans-30"/>
       <use xlink:href="#DejaVuSans-2e" x="63.623047"/>
       <use xlink:href="#DejaVuSans-37" x="95.410156"/>
       <use xlink:href="#DejaVuSans-32" x="159.033203"/>
      </g>
     </g>
    </g>
    <g id="ytick_14">
     <g id="line2d_60">
      <g>
       <use xlink:href="#m8f39199d42" x="413.90306" y="116.16133" style="stroke: #000000; stroke-width: 0.8"/>
      </g>
     </g>
     <g id="text_23">
      <!-- 0.78 -->
      <g transform="translate(420.90306 119.960549) scale(0.1 -0.1)">
       <use xlink:href="#DejaVuSans-30"/>
       <use xlink:href="#DejaVuSans-2e" x="63.623047"/>
       <use xlink:href="#DejaVuSans-37" x="95.410156"/>
       <use xlink:href="#DejaVuSans-38" x="159.033203"/>
      </g>
     </g>
    </g>
    <g id="ytick_15">
     <g id="line2d_61">
      <g>
       <use xlink:href="#m8f39199d42" x="413.90306" y="76.944894" style="stroke: #000000; stroke-width: 0.8"/>
      </g>
     </g>
     <g id="text_24">
      <!-- 0.84 -->
      <g transform="translate(420.90306 80.744113) scale(0.1 -0.1)">
       <use xlink:href="#DejaVuSans-30"/>
       <use xlink:href="#DejaVuSans-2e" x="63.623047"/>
       <use xlink:href="#DejaVuSans-38" x="95.410156"/>
       <use xlink:href="#DejaVuSans-34" x="159.033203"/>
      </g>
     </g>
    </g>
    <g id="ytick_16">
     <g id="line2d_62">
      <g>
       <use xlink:href="#m8f39199d42" x="413.90306" y="37.728458" style="stroke: #000000; stroke-width: 0.8"/>
      </g>
     </g>
     <g id="text_25">
      <!-- 0.90 -->
      <g transform="translate(420.90306 41.527677) scale(0.1 -0.1)">
       <defs>
        <path id="DejaVuSans-39" d="M 703 97 
L 703 672 
Q 941 559 1184 500 
Q 1428 441 1663 441 
Q 2288 441 2617 861 
Q 2947 1281 2994 2138 
Q 2813 1869 2534 1725 
Q 2256 1581 1919 1581 
Q 1219 1581 811 2004 
Q 403 2428 403 3163 
Q 403 3881 828 4315 
Q 1253 4750 1959 4750 
Q 2769 4750 3195 4129 
Q 3622 3509 3622 2328 
Q 3622 1225 3098 567 
Q 2575 -91 1691 -91 
Q 1453 -91 1209 -44 
Q 966 3 703 97 
z
M 1959 2075 
Q 2384 2075 2632 2365 
Q 2881 2656 2881 3163 
Q 2881 3666 2632 3958 
Q 2384 4250 1959 4250 
Q 1534 4250 1286 3958 
Q 1038 3666 1038 3163 
Q 1038 2656 1286 2365 
Q 1534 2075 1959 2075 
z
" transform="scale(0.015625)"/>
       </defs>
       <use xlink:href="#DejaVuSans-30"/>
       <use xlink:href="#DejaVuSans-2e" x="63.623047"/>
       <use xlink:href="#DejaVuSans-39" x="95.410156"/>
       <use xlink:href="#DejaVuSans-30" x="159.033203"/>
      </g>
     </g>
    </g>
    <g id="text_26">
     <!-- Exactitud -->
     <g transform="translate(454.767122 188.76625) rotate(-90) scale(0.1 -0.1)">
      <use xlink:href="#DejaVuSans-45"/>
      <use xlink:href="#DejaVuSans-78" x="63.183594"/>
      <use xlink:href="#DejaVuSans-61" x="122.363281"/>
      <use xlink:href="#DejaVuSans-63" x="183.642578"/>
      <use xlink:href="#DejaVuSans-74" x="238.623047"/>
      <use xlink:href="#DejaVuSans-69" x="277.832031"/>
      <use xlink:href="#DejaVuSans-74" x="305.615234"/>
      <use xlink:href="#DejaVuSans-75" x="344.824219"/>
      <use xlink:href="#DejaVuSans-64" x="408.203125"/>
     </g>
    </g>
   </g>
   <g id="LineCollection_1"/>
   <g id="patch_8">
    <path d="M 399.196896 312.24351 
L 406.549978 312.24351 
L 413.90306 312.24351 
L 413.90306 18.12024 
L 406.549978 18.12024 
L 399.196896 18.12024 
L 399.196896 312.24351 
z
" style="fill: none; stroke: #000000; stroke-width: 0.8; stroke-linejoin: miter; stroke-linecap: square"/>
   </g>
  </g>
 </g>
 <defs>
  <clipPath id="p57e7f3298e">
   <rect x="39.58149" y="18.12024" width="334.10991" height="294.12327"/>
  </clipPath>
  <clipPath id="pd8905dc734">
   <rect x="399.196896" y="18.12024" width="14.706164" height="294.12327"/>
  </clipPath>
 </defs>
</svg>
