<?xml version="1.0" encoding="utf-8" standalone="no"?>
<!DOCTYPE svg PUBLIC "-//W3C//DTD SVG 1.1//EN"
  "http://www.w3.org/Graphics/SVG/1.1/DTD/svg11.dtd">
<svg xmlns:xlink="http://www.w3.org/1999/xlink" width="460.8pt" height="345.6pt" viewBox="0 0 460.8 345.6" xmlns="http://www.w3.org/2000/svg" version="1.1">
 <metadata>
  <rdf:RDF xmlns:dc="http://purl.org/dc/elements/1.1/" xmlns:cc="http://creativecommons.org/ns#" xmlns:rdf="http://www.w3.org/1999/02/22-rdf-syntax-ns#">
   <cc:Work>
    <dc:type rdf:resource="http://purl.org/dc/dcmitype/StillImage"/>
    <dc:date>2024-10-18T15:16:38.904396</dc:date>
    <dc:format>image/svg+xml</dc:format>
    <dc:creator>
     <cc:Agent>
      <dc:title>Matplotlib v3.8.4, https://matplotlib.org/</dc:title>
     </cc:Agent>
    </dc:creator>
   </cc:Work>
  </rdf:RDF>
 </metadata>
 <defs>
  <style type="text/css">*{stroke-linejoin: round; stroke-linecap: butt}</style>
 </defs>
 <g id="figure_1">
  <g id="patch_1">
   <path d="M 0 345.6 
L 460.8 345.6 
L 460.8 0 
L 0 0 
z
" style="fill: #ffffff"/>
  </g>
  <g id="axes_1">
   <g id="patch_2">
    <path d="M 39.58149 312.24351 
L 373.6914 312.24351 
L 373.6914 18.12024 
L 39.58149 18.12024 
z
" style="fill: #ffffff"/>
   </g>
   <g id="QuadContourSet_1">
    <path d="M 223.341941 276.262377 
L 236.358708 312.24351 
L 240.047436 312.24351 
L 256.752932 312.24351 
L 273.458427 312.24351 
L 290.163923 312.24351 
L 306.869418 312.24351 
L 323.574914 312.24351 
L 340.280409 312.24351 
L 356.985905 312.24351 
L 373.6914 312.24351 
L 373.6914 275.478101 
L 373.6914 238.712693 
L 373.6914 201.947284 
L 373.6914 165.181875 
L 373.6914 128.416466 
L 373.6914 104.044137 
L 356.985905 104.044137 
L 340.280409 104.044137 
L 323.574914 104.044137 
L 306.869418 104.044137 
L 290.163923 104.044137 
L 273.458427 104.044137 
L 256.752932 104.044137 
L 240.047436 104.044137 
L 223.341941 108.964697 
L 206.636445 113.242064 
L 204.491482 128.416466 
L 206.399477 165.181875 
L 206.636445 168.163721 
L 215.210706 201.947284 
L 221.692725 238.712693 
L 223.254836 275.478101 
z
" clip-path="url(#p1effda3542)" style="fill: #470e61"/>
    <path d="M 223.341941 294.252944 
L 230.574102 312.24351 
L 236.358708 312.24351 
L 223.341941 276.262377 
L 223.254836 275.478101 
L 221.692725 238.712693 
L 215.210706 201.947284 
L 206.636445 168.163721 
L 206.399477 165.181875 
L 204.491482 128.416466 
L 206.636445 113.242064 
L 223.341941 108.964697 
L 240.047436 104.044137 
L 256.752932 104.044137 
L 273.458427 104.044137 
L 290.163923 104.044137 
L 306.869418 104.044137 
L 323.574914 104.044137 
L 340.280409 104.044137 
L 356.985905 104.044137 
L 373.6914 104.044137 
L 373.6914 91.651058 
L 373.6914 54.885649 
L 373.6914 18.12024 
L 356.985905 18.12024 
L 340.280409 18.12024 
L 323.574914 18.12024 
L 306.869418 18.12024 
L 290.163923 18.12024 
L 273.458427 18.12024 
L 256.752932 18.12024 
L 240.047436 18.12024 
L 223.341941 18.12024 
L 206.636445 18.12024 
L 189.93095 18.12024 
L 173.225454 18.12024 
L 172.882543 18.12024 
L 173.225454 28.18406 
L 176.359854 54.885649 
L 186.836562 91.651058 
L 188.253959 128.416466 
L 189.93095 137.660642 
L 200.353068 165.181875 
L 205.372587 201.947284 
L 206.636445 209.36772 
L 217.488647 238.712693 
L 221.181393 275.478101 
z
" clip-path="url(#p1effda3542)" style="fill: #482677"/>
    <path d="M 223.341941 312.24351 
L 230.574102 312.24351 
L 223.341941 294.252944 
L 221.181393 275.478101 
L 217.488647 238.712693 
L 206.636445 209.36772 
L 205.372587 201.947284 
L 200.353068 165.181875 
L 189.93095 137.660642 
L 188.253959 128.416466 
L 186.836562 91.651058 
L 176.359854 54.885649 
L 173.225454 28.18406 
L 172.882543 18.12024 
L 156.519959 18.12024 
L 155.03131 18.12024 
L 156.519959 25.623867 
L 166.862873 54.885649 
L 173.225454 84.566872 
L 176.266437 91.651058 
L 184.012536 128.416466 
L 189.93095 158.790188 
L 192.706112 165.181875 
L 202.700832 201.947284 
L 206.636445 224.029897 
L 212.570659 238.712693 
L 218.94833 275.478101 
L 223.341941 312.24351 
z
" clip-path="url(#p1effda3542)" style="fill: #433d84"/>
    <path d="M 218.94833 275.478101 
L 212.570659 238.712693 
L 206.636445 224.029897 
L 202.700832 201.947284 
L 192.706112 165.181875 
L 189.93095 158.790188 
L 184.012536 128.416466 
L 176.266437 91.651058 
L 173.225454 84.566872 
L 166.862873 54.885649 
L 156.519959 25.623867 
L 155.03131 18.12024 
L 149.380821 18.12024 
L 156.519959 50.846144 
L 158.186546 54.885649 
L 170.158672 91.651058 
L 173.225454 107.938239 
L 179.043332 128.416466 
L 188.218737 165.181875 
L 189.93095 172.748881 
L 199.757928 201.947284 
L 206.636445 238.692074 
L 206.64569 238.712693 
L 216.529006 275.478101 
L 221.112623 312.24351 
L 223.341941 312.24351 
z
" clip-path="url(#p1effda3542)" style="fill: #3b528b"/>
    <path d="M 39.58149 303.603402 
L 39.58149 312.24351 
L 43.617549 312.24351 
z
M 216.529006 275.478101 
L 206.64569 238.712693 
L 206.636445 238.692074 
L 199.757928 201.947284 
L 189.93095 172.748881 
L 188.218737 165.181875 
L 179.043332 128.416466 
L 173.225454 107.938239 
L 170.158672 91.651058 
L 158.186546 54.885649 
L 156.519959 50.846144 
L 149.380821 18.12024 
L 142.357452 18.12024 
L 153.649067 54.885649 
L 156.519959 67.528095 
L 165.643586 91.651058 
L 173.143378 128.416466 
L 173.225454 128.691292 
L 185.573075 165.181875 
L 189.93095 183.597634 
L 196.482558 201.947284 
L 204.402479 238.712693 
L 206.636445 249.767396 
L 213.889496 275.478101 
L 218.697694 312.24351 
L 221.112623 312.24351 
z
" clip-path="url(#p1effda3542)" style="fill: #32658e"/>
    <path d="M 39.58149 294.951127 
L 39.58149 303.603402 
L 43.617549 312.24351 
L 47.164906 312.24351 
z
M 213.889496 275.478101 
L 206.636445 249.767396 
L 204.402479 238.712693 
L 196.482558 201.947284 
L 189.93095 183.597634 
L 185.573075 165.181875 
L 173.225454 128.691292 
L 173.143378 128.416466 
L 165.643586 91.651058 
L 156.519959 67.528095 
L 153.649067 54.885649 
L 142.357452 18.12024 
L 139.814463 18.12024 
L 137.267302 18.12024 
L 139.814463 27.372559 
L 149.813206 54.885649 
L 156.519959 82.581426 
L 160.294241 91.651058 
L 169.970149 128.416466 
L 173.225454 138.742064 
L 182.661804 165.181875 
L 189.93095 194.446388 
L 192.789922 201.947284 
L 201.978539 238.712693 
L 206.636445 260.837667 
L 210.985673 275.478101 
L 216.063416 312.24351 
L 218.697694 312.24351 
z
" clip-path="url(#p1effda3542)" style="fill: #2a768e"/>
    <path d="M 39.58149 286.298853 
L 39.58149 294.951127 
L 47.164906 312.24351 
L 50.325494 312.24351 
z
M 210.985673 275.478101 
L 206.636445 260.837667 
L 201.978539 238.712693 
L 192.789922 201.947284 
L 189.93095 194.446388 
L 182.661804 165.181875 
L 173.225454 138.742064 
L 169.970149 128.416466 
L 160.294241 91.651058 
L 156.519959 82.581426 
L 149.813206 54.885649 
L 139.814463 27.372559 
L 137.267302 18.12024 
L 133.150193 18.12024 
L 139.814463 40.712239 
L 145.391973 54.885649 
L 155.230553 91.651058 
L 156.519959 97.255755 
L 166.406858 128.416466 
L 173.225454 148.792835 
L 179.425578 165.181875 
L 189.010096 201.947284 
L 189.93095 205.483108 
L 199.333533 238.712693 
L 206.636445 271.907939 
L 207.758649 275.478101 
L 213.165925 312.24351 
L 216.063416 312.24351 
z
" clip-path="url(#p1effda3542)" style="fill: #24878e"/>
    <path d="M 39.58149 277.646578 
L 39.58149 286.298853 
L 50.325494 312.24351 
L 53.175423 312.24351 
z
M 206.636445 291.081 
L 209.946721 312.24351 
L 213.165925 312.24351 
L 207.758649 275.478101 
L 206.636445 271.907939 
L 199.333533 238.712693 
L 189.93095 205.483108 
L 189.010096 201.947284 
L 179.425578 165.181875 
L 173.225454 148.792835 
L 166.406858 128.416466 
L 156.519959 97.255755 
L 155.230553 91.651058 
L 145.391973 54.885649 
L 139.814463 40.712239 
L 133.150193 18.12024 
L 128.350876 18.12024 
L 139.814463 54.051919 
L 140.173965 54.885649 
L 151.708261 91.651058 
L 156.519959 111.355625 
L 162.343989 128.416466 
L 173.225454 158.843607 
L 175.782634 165.181875 
L 185.807863 201.947284 
L 189.93095 216.940968 
L 196.423057 238.712693 
L 204.276428 275.478101 
z
" clip-path="url(#p1effda3542)" style="fill: #1f998a"/>
    <path d="M 45.135684 275.478101 
L 39.58149 265.513878 
L 39.58149 275.478101 
L 39.58149 277.646578 
L 53.175423 312.24351 
L 55.770333 312.24351 
z
M 206.636445 312.24351 
L 209.946721 312.24351 
L 206.636445 291.081 
L 204.276428 275.478101 
L 196.423057 238.712693 
L 189.93095 216.940968 
L 185.807863 201.947284 
L 175.782634 165.181875 
L 173.225454 158.843607 
L 162.343989 128.416466 
L 156.519959 111.355625 
L 151.708261 91.651058 
L 140.173965 54.885649 
L 139.814463 54.051919 
L 128.350876 18.12024 
L 123.108968 18.12024 
L 122.712589 18.12024 
L 123.108968 19.414498 
L 135.778244 54.885649 
L 139.814463 68.438884 
L 147.698626 91.651058 
L 156.519959 125.455494 
L 157.618258 128.416466 
L 171.623076 165.181875 
L 173.225454 170.875889 
L 182.207948 201.947284 
L 189.93095 228.398828 
L 193.187813 238.712693 
L 200.39966 275.478101 
L 206.317787 312.24351 
z
" clip-path="url(#p1effda3542)" style="fill: #24aa83"/>
    <path d="M 56.286986 312.24351 
L 63.688318 312.24351 
L 56.286986 296.157848 
L 51.200963 275.478101 
L 39.58149 252.217166 
L 39.58149 265.513878 
L 45.135684 275.478101 
L 55.770333 312.24351 
z
M 200.39966 275.478101 
L 193.187813 238.712692 
L 189.93095 228.398828 
L 182.207948 201.947284 
L 173.225454 170.875889 
L 171.623076 165.181875 
L 157.618258 128.416466 
L 156.519959 125.455494 
L 147.698626 91.651058 
L 139.814463 68.438884 
L 135.778244 54.885649 
L 123.108968 19.414498 
L 122.712589 18.12024 
L 117.319724 18.12024 
L 123.108968 35.374521 
L 130.747226 54.885649 
L 139.814463 82.895668 
L 143.044804 91.651058 
L 151.847947 128.416466 
L 156.519959 140.369007 
L 166.780531 165.181875 
L 173.225454 186.291154 
L 178.097379 201.947284 
L 189.273395 238.712692 
L 189.93095 241.724628 
L 195.923968 275.478101 
L 202.070436 312.24351 
L 206.317787 312.24351 
z
" clip-path="url(#p1effda3542)" style="fill: #3aba76"/>
    <path d="M 56.286986 296.157848 
L 63.688318 312.24351 
L 70.964399 312.24351 
L 56.286986 275.796251 
L 56.215123 275.478101 
L 39.58149 238.920454 
L 39.58149 252.217166 
L 51.200963 275.478101 
z
M 195.923968 275.478101 
L 189.93095 241.724628 
L 189.273395 238.712693 
L 178.097379 201.947284 
L 173.225454 186.291154 
L 166.780531 165.181875 
L 156.519959 140.369007 
L 151.847947 128.416466 
L 143.044804 91.651058 
L 139.814463 82.895668 
L 130.747226 54.885649 
L 123.108968 35.374521 
L 117.319724 18.12024 
L 110.690605 18.12024 
L 123.108968 51.334544 
L 124.657234 54.885649 
L 133.853374 91.651058 
L 139.814463 107.249627 
L 144.596313 128.416466 
L 156.519959 155.498804 
L 160.964832 165.181875 
L 173.225454 201.70642 
L 173.306951 201.947284 
L 181.706239 238.712693 
L 189.93095 271.891117 
L 190.629875 275.478101 
L 197.093088 312.24351 
L 202.070436 312.24351 
z
" clip-path="url(#p1effda3542)" style="fill: #5cc863"/>
    <path d="M 56.286986 275.796251 
L 70.964399 312.24351 
L 72.992481 312.24351 
L 89.697977 312.24351 
L 106.403472 312.24351 
L 123.108968 312.24351 
L 138.530175 312.24351 
L 128.556856 275.478101 
L 123.108968 260.780949 
L 115.692965 238.712693 
L 106.403472 223.141461 
L 99.021569 201.947284 
L 89.697977 184.048889 
L 82.316073 165.181875 
L 72.992481 145.016482 
L 67.377703 128.416466 
L 57.288662 91.651058 
L 56.286986 89.151655 
L 43.779 54.885649 
L 39.58149 41.963689 
L 39.58149 54.885649 
L 39.58149 91.651058 
L 39.58149 128.416466 
L 39.58149 165.181875 
L 39.58149 201.947284 
L 39.58149 238.712693 
L 39.58149 238.920454 
L 56.215123 275.478101 
z
M 189.93095 306.329313 
L 191.081652 312.24351 
L 197.093088 312.24351 
L 190.629875 275.478101 
L 189.93095 271.891117 
L 181.706239 238.712693 
L 173.306951 201.947284 
L 173.225454 201.70642 
L 160.964832 165.181875 
L 156.519959 155.498804 
L 144.596313 128.416466 
L 139.814463 107.249627 
L 133.853374 91.651058 
L 124.657234 54.885649 
L 123.108968 51.334544 
L 110.690605 18.12024 
L 106.403472 18.12024 
L 89.697977 18.12024 
L 89.300794 18.12024 
L 89.697977 19.359074 
L 103.415043 54.885649 
L 106.403472 63.705672 
L 119.176772 91.651058 
L 123.108968 106.252191 
L 134.273468 128.416466 
L 139.814463 143.0176 
L 151.876761 165.181875 
L 156.519959 190.206248 
L 159.652518 201.947284 
L 172.029693 238.712693 
L 173.225454 243.363709 
L 183.396023 275.478101 
z
" clip-path="url(#p1effda3542)" style="fill: #89d548"/>
    <path d="M 139.814463 312.24351 
L 154.814135 312.24351 
L 146.563665 275.478101 
L 139.814463 263.109167 
L 132.895645 238.712693 
L 123.108968 203.727112 
L 122.362684 201.947284 
L 106.403472 177.280831 
L 101.890319 165.181875 
L 89.697977 136.36288 
L 87.240385 128.416466 
L 89.697977 104.713839 
L 96.783029 91.651058 
L 106.403472 88.205736 
L 108.317291 91.651058 
L 115.274257 128.416466 
L 123.108968 148.291941 
L 131.979752 165.181875 
L 139.814463 177.550809 
L 147.873609 201.947284 
L 156.519959 225.428937 
L 162.431589 238.712693 
L 173.225454 274.50022 
L 173.594002 275.478101 
L 179.356218 312.24351 
L 189.93095 312.24351 
L 191.081652 312.24351 
L 189.93095 306.329313 
L 183.396023 275.478101 
L 173.225454 243.363709 
L 172.029693 238.712693 
L 159.652518 201.947284 
L 156.519959 190.206248 
L 151.876761 165.181875 
L 139.814463 143.0176 
L 134.273468 128.416466 
L 123.108968 106.252191 
L 119.176772 91.651058 
L 106.403472 63.705672 
L 103.415043 54.885649 
L 89.697977 19.359074 
L 89.300794 18.12024 
L 78.274255 18.12024 
L 89.697977 47.776782 
L 93.010512 54.885649 
L 89.697977 82.954995 
L 72.992481 65.488012 
L 72.057959 54.885649 
L 63.113837 18.12024 
L 56.286986 18.12024 
L 39.58149 18.12024 
L 39.58149 41.963689 
L 43.779 54.885649 
L 56.286986 89.151655 
L 57.288662 91.651058 
L 67.377703 128.416466 
L 72.992481 145.016482 
L 82.316073 165.181875 
L 89.697977 184.048889 
L 99.021569 201.947284 
L 106.403472 223.141461 
L 115.692965 238.712693 
L 123.108968 260.780949 
L 128.556856 275.478101 
L 138.530175 312.24351 
z
" clip-path="url(#p1effda3542)" style="fill: #b8de29"/>
    <path d="M 156.519959 312.24351 
L 173.225454 312.24351 
L 179.356218 312.24351 
L 173.594002 275.478101 
L 173.225454 274.50022 
L 162.431589 238.712693 
L 156.519959 225.428937 
L 147.873609 201.947284 
L 139.814463 177.550809 
L 131.979752 165.181875 
L 123.108968 148.291941 
L 115.274257 128.416466 
L 108.317291 91.651058 
L 106.403472 88.205736 
L 96.783029 91.651058 
L 89.697977 104.713839 
L 87.240385 128.416466 
L 89.697977 136.36288 
L 101.890319 165.181875 
L 106.403472 177.280831 
L 122.362684 201.947284 
L 123.108968 203.727112 
L 132.895645 238.712693 
L 139.814463 263.109167 
L 146.563665 275.478101 
L 154.814135 312.24351 
z
M 72.992481 65.488012 
L 89.697977 82.954995 
L 93.010512 54.885649 
L 89.697977 47.776782 
L 78.274255 18.12024 
L 72.992481 18.12024 
L 63.113837 18.12024 
L 72.057959 54.885649 
z
" clip-path="url(#p1effda3542)" style="fill: #e7e419"/>
   </g>
   <g id="PathCollection_1">
    <defs>
     <path id="m5771427a63" d="M -3 3 
L 3 -3 
M -3 -3 
L 3 3 
" style="stroke: #ff0000; stroke-width: 1.5"/>
    </defs>
    <g clip-path="url(#p1effda3542)">
     <use xlink:href="#m5771427a63" x="173.225454" y="312.24351" style="fill: #ff0000; stroke: #ff0000; stroke-width: 1.5"/>
     <use xlink:href="#m5771427a63" x="156.519959" y="275.478101" style="fill: #ff0000; stroke: #ff0000; stroke-width: 1.5"/>
     <use xlink:href="#m5771427a63" x="139.814463" y="238.712693" style="fill: #ff0000; stroke: #ff0000; stroke-width: 1.5"/>
     <use xlink:href="#m5771427a63" x="139.814463" y="201.947284" style="fill: #ff0000; stroke: #ff0000; stroke-width: 1.5"/>
     <use xlink:href="#m5771427a63" x="106.403472" y="165.181875" style="fill: #ff0000; stroke: #ff0000; stroke-width: 1.5"/>
     <use xlink:href="#m5771427a63" x="106.403472" y="128.416466" style="fill: #ff0000; stroke: #ff0000; stroke-width: 1.5"/>
     <use xlink:href="#m5771427a63" x="106.403472" y="91.651058" style="fill: #ff0000; stroke: #ff0000; stroke-width: 1.5"/>
     <use xlink:href="#m5771427a63" x="89.697977" y="54.885649" style="fill: #ff0000; stroke: #ff0000; stroke-width: 1.5"/>
     <use xlink:href="#m5771427a63" x="72.992481" y="18.12024" style="fill: #ff0000; stroke: #ff0000; stroke-width: 1.5"/>
    </g>
   </g>
   <g id="matplotlib.axis_1">
    <g id="xtick_1">
     <g id="line2d_1">
      <defs>
       <path id="me45fb2663d" d="M 0 0 
L 0 3.5 
" style="stroke: #000000; stroke-width: 0.8"/>
      </defs>
      <g>
       <use xlink:href="#me45fb2663d" x="39.58149" y="312.24351" style="stroke: #000000; stroke-width: 0.8"/>
      </g>
     </g>
     <g id="text_1">
      <!-- $\mathdefault{10^{-3}}$ -->
      <g transform="translate(27.83149 326.841947) scale(0.1 -0.1)">
       <defs>
        <path id="DejaVuSans-31" d="M 794 531 
L 1825 531 
L 1825 4091 
L 703 3866 
L 703 4441 
L 1819 4666 
L 2450 4666 
L 2450 531 
L 3481 531 
L 3481 0 
L 794 0 
L 794 531 
z
" transform="scale(0.015625)"/>
        <path id="DejaVuSans-30" d="M 2034 4250 
Q 1547 4250 1301 3770 
Q 1056 3291 1056 2328 
Q 1056 1369 1301 889 
Q 1547 409 2034 409 
Q 2525 409 2770 889 
Q 3016 1369 3016 2328 
Q 3016 3291 2770 3770 
Q 2525 4250 2034 4250 
z
M 2034 4750 
Q 2819 4750 3233 4129 
Q 3647 3509 3647 2328 
Q 3647 1150 3233 529 
Q 2819 -91 2034 -91 
Q 1250 -91 836 529 
Q 422 1150 422 2328 
Q 422 3509 836 4129 
Q 1250 4750 2034 4750 
z
" transform="scale(0.015625)"/>
        <path id="DejaVuSans-2212" d="M 678 2272 
L 4684 2272 
L 4684 1741 
L 678 1741 
L 678 2272 
z
" transform="scale(0.015625)"/>
        <path id="DejaVuSans-33" d="M 2597 2516 
Q 3050 2419 3304 2112 
Q 3559 1806 3559 1356 
Q 3559 666 3084 287 
Q 2609 -91 1734 -91 
Q 1441 -91 1130 -33 
Q 819 25 488 141 
L 488 750 
Q 750 597 1062 519 
Q 1375 441 1716 441 
Q 2309 441 2620 675 
Q 2931 909 2931 1356 
Q 2931 1769 2642 2001 
Q 2353 2234 1838 2234 
L 1294 2234 
L 1294 2753 
L 1863 2753 
Q 2328 2753 2575 2939 
Q 2822 3125 2822 3475 
Q 2822 3834 2567 4026 
Q 2313 4219 1838 4219 
Q 1578 4219 1281 4162 
Q 984 4106 628 3988 
L 628 4550 
Q 988 4650 1302 4700 
Q 1616 4750 1894 4750 
Q 2613 4750 3031 4423 
Q 3450 4097 3450 3541 
Q 3450 3153 3228 2886 
Q 3006 2619 2597 2516 
z
" transform="scale(0.015625)"/>
       </defs>
       <use xlink:href="#DejaVuSans-31" transform="translate(0 0.765625)"/>
       <use xlink:href="#DejaVuSans-30" transform="translate(63.623047 0.765625)"/>
       <use xlink:href="#DejaVuSans-2212" transform="translate(128.203125 39.046875) scale(0.7)"/>
       <use xlink:href="#DejaVuSans-33" transform="translate(186.855469 39.046875) scale(0.7)"/>
      </g>
     </g>
    </g>
    <g id="xtick_2">
     <g id="line2d_2">
      <g>
       <use xlink:href="#me45fb2663d" x="106.403472" y="312.24351" style="stroke: #000000; stroke-width: 0.8"/>
      </g>
     </g>
     <g id="text_2">
      <!-- $\mathdefault{10^{-2}}$ -->
      <g transform="translate(94.653472 326.841947) scale(0.1 -0.1)">
       <defs>
        <path id="DejaVuSans-32" d="M 1228 531 
L 3431 531 
L 3431 0 
L 469 0 
L 469 531 
Q 828 903 1448 1529 
Q 2069 2156 2228 2338 
Q 2531 2678 2651 2914 
Q 2772 3150 2772 3378 
Q 2772 3750 2511 3984 
Q 2250 4219 1831 4219 
Q 1534 4219 1204 4116 
Q 875 4013 500 3803 
L 500 4441 
Q 881 4594 1212 4672 
Q 1544 4750 1819 4750 
Q 2544 4750 2975 4387 
Q 3406 4025 3406 3419 
Q 3406 3131 3298 2873 
Q 3191 2616 2906 2266 
Q 2828 2175 2409 1742 
Q 1991 1309 1228 531 
z
" transform="scale(0.015625)"/>
       </defs>
       <use xlink:href="#DejaVuSans-31" transform="translate(0 0.765625)"/>
       <use xlink:href="#DejaVuSans-30" transform="translate(63.623047 0.765625)"/>
       <use xlink:href="#DejaVuSans-2212" transform="translate(128.203125 39.046875) scale(0.7)"/>
       <use xlink:href="#DejaVuSans-32" transform="translate(186.855469 39.046875) scale(0.7)"/>
      </g>
     </g>
    </g>
    <g id="xtick_3">
     <g id="line2d_3">
      <g>
       <use xlink:href="#me45fb2663d" x="173.225454" y="312.24351" style="stroke: #000000; stroke-width: 0.8"/>
      </g>
     </g>
     <g id="text_3">
      <!-- $\mathdefault{10^{-1}}$ -->
      <g transform="translate(161.475454 326.841947) scale(0.1 -0.1)">
       <use xlink:href="#DejaVuSans-31" transform="translate(0 0.684375)"/>
       <use xlink:href="#DejaVuSans-30" transform="translate(63.623047 0.684375)"/>
       <use xlink:href="#DejaVuSans-2212" transform="translate(128.203125 38.965625) scale(0.7)"/>
       <use xlink:href="#DejaVuSans-31" transform="translate(186.855469 38.965625) scale(0.7)"/>
      </g>
     </g>
    </g>
    <g id="xtick_4">
     <g id="line2d_4">
      <g>
       <use xlink:href="#me45fb2663d" x="240.047436" y="312.24351" style="stroke: #000000; stroke-width: 0.8"/>
      </g>
     </g>
     <g id="text_4">
      <!-- $\mathdefault{10^{0}}$ -->
      <g transform="translate(231.247436 326.841947) scale(0.1 -0.1)">
       <use xlink:href="#DejaVuSans-31" transform="translate(0 0.765625)"/>
       <use xlink:href="#DejaVuSans-30" transform="translate(63.623047 0.765625)"/>
       <use xlink:href="#DejaVuSans-30" transform="translate(128.203125 39.046875) scale(0.7)"/>
      </g>
     </g>
    </g>
    <g id="xtick_5">
     <g id="line2d_5">
      <g>
       <use xlink:href="#me45fb2663d" x="306.869418" y="312.24351" style="stroke: #000000; stroke-width: 0.8"/>
      </g>
     </g>
     <g id="text_5">
      <!-- $\mathdefault{10^{1}}$ -->
      <g transform="translate(298.069418 326.841947) scale(0.1 -0.1)">
       <use xlink:href="#DejaVuSans-31" transform="translate(0 0.684375)"/>
       <use xlink:href="#DejaVuSans-30" transform="translate(63.623047 0.684375)"/>
       <use xlink:href="#DejaVuSans-31" transform="translate(128.203125 38.965625) scale(0.7)"/>
      </g>
     </g>
    </g>
    <g id="xtick_6">
     <g id="line2d_6">
      <g>
       <use xlink:href="#me45fb2663d" x="373.6914" y="312.24351" style="stroke: #000000; stroke-width: 0.8"/>
      </g>
     </g>
     <g id="text_6">
      <!-- $\mathdefault{10^{2}}$ -->
      <g transform="translate(364.8914 326.841947) scale(0.1 -0.1)">
       <use xlink:href="#DejaVuSans-31" transform="translate(0 0.765625)"/>
       <use xlink:href="#DejaVuSans-30" transform="translate(63.623047 0.765625)"/>
       <use xlink:href="#DejaVuSans-32" transform="translate(128.203125 39.046875) scale(0.7)"/>
      </g>
     </g>
    </g>
    <g id="xtick_7">
     <g id="line2d_7">
      <defs>
       <path id="ma0b1bf0313" d="M 0 0 
L 0 2 
" style="stroke: #000000; stroke-width: 0.6"/>
      </defs>
      <g>
       <use xlink:href="#ma0b1bf0313" x="59.696911" y="312.24351" style="stroke: #000000; stroke-width: 0.6"/>
      </g>
     </g>
    </g>
    <g id="xtick_8">
     <g id="line2d_8">
      <g>
       <use xlink:href="#ma0b1bf0313" x="71.463678" y="312.24351" style="stroke: #000000; stroke-width: 0.6"/>
      </g>
     </g>
    </g>
    <g id="xtick_9">
     <g id="line2d_9">
      <g>
       <use xlink:href="#ma0b1bf0313" x="79.812332" y="312.24351" style="stroke: #000000; stroke-width: 0.6"/>
      </g>
     </g>
    </g>
    <g id="xtick_10">
     <g id="line2d_10">
      <g>
       <use xlink:href="#ma0b1bf0313" x="86.288051" y="312.24351" style="stroke: #000000; stroke-width: 0.6"/>
      </g>
     </g>
    </g>
    <g id="xtick_11">
     <g id="line2d_11">
      <g>
       <use xlink:href="#ma0b1bf0313" x="91.579099" y="312.24351" style="stroke: #000000; stroke-width: 0.6"/>
      </g>
     </g>
    </g>
    <g id="xtick_12">
     <g id="line2d_12">
      <g>
       <use xlink:href="#ma0b1bf0313" x="96.052616" y="312.24351" style="stroke: #000000; stroke-width: 0.6"/>
      </g>
     </g>
    </g>
    <g id="xtick_13">
     <g id="line2d_13">
      <g>
       <use xlink:href="#ma0b1bf0313" x="99.927753" y="312.24351" style="stroke: #000000; stroke-width: 0.6"/>
      </g>
     </g>
    </g>
    <g id="xtick_14">
     <g id="line2d_14">
      <g>
       <use xlink:href="#ma0b1bf0313" x="103.345866" y="312.24351" style="stroke: #000000; stroke-width: 0.6"/>
      </g>
     </g>
    </g>
    <g id="xtick_15">
     <g id="line2d_15">
      <g>
       <use xlink:href="#ma0b1bf0313" x="126.518893" y="312.24351" style="stroke: #000000; stroke-width: 0.6"/>
      </g>
     </g>
    </g>
    <g id="xtick_16">
     <g id="line2d_16">
      <g>
       <use xlink:href="#ma0b1bf0313" x="138.28566" y="312.24351" style="stroke: #000000; stroke-width: 0.6"/>
      </g>
     </g>
    </g>
    <g id="xtick_17">
     <g id="line2d_17">
      <g>
       <use xlink:href="#ma0b1bf0313" x="146.634314" y="312.24351" style="stroke: #000000; stroke-width: 0.6"/>
      </g>
     </g>
    </g>
    <g id="xtick_18">
     <g id="line2d_18">
      <g>
       <use xlink:href="#ma0b1bf0313" x="153.110033" y="312.24351" style="stroke: #000000; stroke-width: 0.6"/>
      </g>
     </g>
    </g>
    <g id="xtick_19">
     <g id="line2d_19">
      <g>
       <use xlink:href="#ma0b1bf0313" x="158.401081" y="312.24351" style="stroke: #000000; stroke-width: 0.6"/>
      </g>
     </g>
    </g>
    <g id="xtick_20">
     <g id="line2d_20">
      <g>
       <use xlink:href="#ma0b1bf0313" x="162.874598" y="312.24351" style="stroke: #000000; stroke-width: 0.6"/>
      </g>
     </g>
    </g>
    <g id="xtick_21">
     <g id="line2d_21">
      <g>
       <use xlink:href="#ma0b1bf0313" x="166.749735" y="312.24351" style="stroke: #000000; stroke-width: 0.6"/>
      </g>
     </g>
    </g>
    <g id="xtick_22">
     <g id="line2d_22">
      <g>
       <use xlink:href="#ma0b1bf0313" x="170.167848" y="312.24351" style="stroke: #000000; stroke-width: 0.6"/>
      </g>
     </g>
    </g>
    <g id="xtick_23">
     <g id="line2d_23">
      <g>
       <use xlink:href="#ma0b1bf0313" x="193.340875" y="312.24351" style="stroke: #000000; stroke-width: 0.6"/>
      </g>
     </g>
    </g>
    <g id="xtick_24">
     <g id="line2d_24">
      <g>
       <use xlink:href="#ma0b1bf0313" x="205.107642" y="312.24351" style="stroke: #000000; stroke-width: 0.6"/>
      </g>
     </g>
    </g>
    <g id="xtick_25">
     <g id="line2d_25">
      <g>
       <use xlink:href="#ma0b1bf0313" x="213.456296" y="312.24351" style="stroke: #000000; stroke-width: 0.6"/>
      </g>
     </g>
    </g>
    <g id="xtick_26">
     <g id="line2d_26">
      <g>
       <use xlink:href="#ma0b1bf0313" x="219.932015" y="312.24351" style="stroke: #000000; stroke-width: 0.6"/>
      </g>
     </g>
    </g>
    <g id="xtick_27">
     <g id="line2d_27">
      <g>
       <use xlink:href="#ma0b1bf0313" x="225.223063" y="312.24351" style="stroke: #000000; stroke-width: 0.6"/>
      </g>
     </g>
    </g>
    <g id="xtick_28">
     <g id="line2d_28">
      <g>
       <use xlink:href="#ma0b1bf0313" x="229.69658" y="312.24351" style="stroke: #000000; stroke-width: 0.6"/>
      </g>
     </g>
    </g>
    <g id="xtick_29">
     <g id="line2d_29">
      <g>
       <use xlink:href="#ma0b1bf0313" x="233.571717" y="312.24351" style="stroke: #000000; stroke-width: 0.6"/>
      </g>
     </g>
    </g>
    <g id="xtick_30">
     <g id="line2d_30">
      <g>
       <use xlink:href="#ma0b1bf0313" x="236.98983" y="312.24351" style="stroke: #000000; stroke-width: 0.6"/>
      </g>
     </g>
    </g>
    <g id="xtick_31">
     <g id="line2d_31">
      <g>
       <use xlink:href="#ma0b1bf0313" x="260.162857" y="312.24351" style="stroke: #000000; stroke-width: 0.6"/>
      </g>
     </g>
    </g>
    <g id="xtick_32">
     <g id="line2d_32">
      <g>
       <use xlink:href="#ma0b1bf0313" x="271.929624" y="312.24351" style="stroke: #000000; stroke-width: 0.6"/>
      </g>
     </g>
    </g>
    <g id="xtick_33">
     <g id="line2d_33">
      <g>
       <use xlink:href="#ma0b1bf0313" x="280.278278" y="312.24351" style="stroke: #000000; stroke-width: 0.6"/>
      </g>
     </g>
    </g>
    <g id="xtick_34">
     <g id="line2d_34">
      <g>
       <use xlink:href="#ma0b1bf0313" x="286.753997" y="312.24351" style="stroke: #000000; stroke-width: 0.6"/>
      </g>
     </g>
    </g>
    <g id="xtick_35">
     <g id="line2d_35">
      <g>
       <use xlink:href="#ma0b1bf0313" x="292.045045" y="312.24351" style="stroke: #000000; stroke-width: 0.6"/>
      </g>
     </g>
    </g>
    <g id="xtick_36">
     <g id="line2d_36">
      <g>
       <use xlink:href="#ma0b1bf0313" x="296.518562" y="312.24351" style="stroke: #000000; stroke-width: 0.6"/>
      </g>
     </g>
    </g>
    <g id="xtick_37">
     <g id="line2d_37">
      <g>
       <use xlink:href="#ma0b1bf0313" x="300.393699" y="312.24351" style="stroke: #000000; stroke-width: 0.6"/>
      </g>
     </g>
    </g>
    <g id="xtick_38">
     <g id="line2d_38">
      <g>
       <use xlink:href="#ma0b1bf0313" x="303.811812" y="312.24351" style="stroke: #000000; stroke-width: 0.6"/>
      </g>
     </g>
    </g>
    <g id="xtick_39">
     <g id="line2d_39">
      <g>
       <use xlink:href="#ma0b1bf0313" x="326.984839" y="312.24351" style="stroke: #000000; stroke-width: 0.6"/>
      </g>
     </g>
    </g>
    <g id="xtick_40">
     <g id="line2d_40">
      <g>
       <use xlink:href="#ma0b1bf0313" x="338.751606" y="312.24351" style="stroke: #000000; stroke-width: 0.6"/>
      </g>
     </g>
    </g>
    <g id="xtick_41">
     <g id="line2d_41">
      <g>
       <use xlink:href="#ma0b1bf0313" x="347.10026" y="312.24351" style="stroke: #000000; stroke-width: 0.6"/>
      </g>
     </g>
    </g>
    <g id="xtick_42">
     <g id="line2d_42">
      <g>
       <use xlink:href="#ma0b1bf0313" x="353.57598" y="312.24351" style="stroke: #000000; stroke-width: 0.6"/>
      </g>
     </g>
    </g>
    <g id="xtick_43">
     <g id="line2d_43">
      <g>
       <use xlink:href="#ma0b1bf0313" x="358.867027" y="312.24351" style="stroke: #000000; stroke-width: 0.6"/>
      </g>
     </g>
    </g>
    <g id="xtick_44">
     <g id="line2d_44">
      <g>
       <use xlink:href="#ma0b1bf0313" x="363.340545" y="312.24351" style="stroke: #000000; stroke-width: 0.6"/>
      </g>
     </g>
    </g>
    <g id="xtick_45">
     <g id="line2d_45">
      <g>
       <use xlink:href="#ma0b1bf0313" x="367.215681" y="312.24351" style="stroke: #000000; stroke-width: 0.6"/>
      </g>
     </g>
    </g>
    <g id="xtick_46">
     <g id="line2d_46">
      <g>
       <use xlink:href="#ma0b1bf0313" x="370.633794" y="312.24351" style="stroke: #000000; stroke-width: 0.6"/>
      </g>
     </g>
    </g>
    <g id="text_7">
     <!-- $h$ -->
     <g transform="translate(203.436445 340.520072) scale(0.1 -0.1)">
      <defs>
       <path id="DejaVuSans-Oblique-68" d="M 3566 2113 
L 3156 0 
L 2578 0 
L 2988 2091 
Q 3016 2238 3031 2350 
Q 3047 2463 3047 2528 
Q 3047 2791 2881 2937 
Q 2716 3084 2419 3084 
Q 1956 3084 1617 2771 
Q 1278 2459 1178 1941 
L 800 0 
L 225 0 
L 1172 4863 
L 1747 4863 
L 1375 2950 
Q 1594 3244 1934 3414 
Q 2275 3584 2650 3584 
Q 3113 3584 3367 3334 
Q 3622 3084 3622 2631 
Q 3622 2519 3608 2391 
Q 3594 2263 3566 2113 
z
" transform="scale(0.015625)"/>
      </defs>
      <use xlink:href="#DejaVuSans-Oblique-68" transform="translate(0 0.015625)"/>
     </g>
    </g>
   </g>
   <g id="matplotlib.axis_2">
    <g id="ytick_1">
     <g id="line2d_47">
      <defs>
       <path id="m28d231f3bd" d="M 0 0 
L -3.5 0 
" style="stroke: #000000; stroke-width: 0.8"/>
      </defs>
      <g>
       <use xlink:href="#m28d231f3bd" x="39.58149" y="312.24351" style="stroke: #000000; stroke-width: 0.8"/>
      </g>
     </g>
     <g id="text_8">
      <!-- 1.0 -->
      <g transform="translate(16.678365 316.042729) scale(0.1 -0.1)">
       <defs>
        <path id="DejaVuSans-2e" d="M 684 794 
L 1344 794 
L 1344 0 
L 684 0 
L 684 794 
z
" transform="scale(0.015625)"/>
       </defs>
       <use xlink:href="#DejaVuSans-31"/>
       <use xlink:href="#DejaVuSans-2e" x="63.623047"/>
       <use xlink:href="#DejaVuSans-30" x="95.410156"/>
      </g>
     </g>
    </g>
    <g id="ytick_2">
     <g id="line2d_48">
      <g>
       <use xlink:href="#m28d231f3bd" x="39.58149" y="273.027074" style="stroke: #000000; stroke-width: 0.8"/>
      </g>
     </g>
     <g id="text_9">
      <!-- 1.2 -->
      <g transform="translate(16.678365 276.826293) scale(0.1 -0.1)">
       <use xlink:href="#DejaVuSans-31"/>
       <use xlink:href="#DejaVuSans-2e" x="63.623047"/>
       <use xlink:href="#DejaVuSans-32" x="95.410156"/>
      </g>
     </g>
    </g>
    <g id="ytick_3">
     <g id="line2d_49">
      <g>
       <use xlink:href="#m28d231f3bd" x="39.58149" y="233.810638" style="stroke: #000000; stroke-width: 0.8"/>
      </g>
     </g>
     <g id="text_10">
      <!-- 1.4 -->
      <g transform="translate(16.678365 237.609857) scale(0.1 -0.1)">
       <defs>
        <path id="DejaVuSans-34" d="M 2419 4116 
L 825 1625 
L 2419 1625 
L 2419 4116 
z
M 2253 4666 
L 3047 4666 
L 3047 1625 
L 3713 1625 
L 3713 1100 
L 3047 1100 
L 3047 0 
L 2419 0 
L 2419 1100 
L 313 1100 
L 313 1709 
L 2253 4666 
z
" transform="scale(0.015625)"/>
       </defs>
       <use xlink:href="#DejaVuSans-31"/>
       <use xlink:href="#DejaVuSans-2e" x="63.623047"/>
       <use xlink:href="#DejaVuSans-34" x="95.410156"/>
      </g>
     </g>
    </g>
    <g id="ytick_4">
     <g id="line2d_50">
      <g>
       <use xlink:href="#m28d231f3bd" x="39.58149" y="194.594202" style="stroke: #000000; stroke-width: 0.8"/>
      </g>
     </g>
     <g id="text_11">
      <!-- 1.6 -->
      <g transform="translate(16.678365 198.393421) scale(0.1 -0.1)">
       <defs>
        <path id="DejaVuSans-36" d="M 2113 2584 
Q 1688 2584 1439 2293 
Q 1191 2003 1191 1497 
Q 1191 994 1439 701 
Q 1688 409 2113 409 
Q 2538 409 2786 701 
Q 3034 994 3034 1497 
Q 3034 2003 2786 2293 
Q 2538 2584 2113 2584 
z
M 3366 4563 
L 3366 3988 
Q 3128 4100 2886 4159 
Q 2644 4219 2406 4219 
Q 1781 4219 1451 3797 
Q 1122 3375 1075 2522 
Q 1259 2794 1537 2939 
Q 1816 3084 2150 3084 
Q 2853 3084 3261 2657 
Q 3669 2231 3669 1497 
Q 3669 778 3244 343 
Q 2819 -91 2113 -91 
Q 1303 -91 875 529 
Q 447 1150 447 2328 
Q 447 3434 972 4092 
Q 1497 4750 2381 4750 
Q 2619 4750 2861 4703 
Q 3103 4656 3366 4563 
z
" transform="scale(0.015625)"/>
       </defs>
       <use xlink:href="#DejaVuSans-31"/>
       <use xlink:href="#DejaVuSans-2e" x="63.623047"/>
       <use xlink:href="#DejaVuSans-36" x="95.410156"/>
      </g>
     </g>
    </g>
    <g id="ytick_5">
     <g id="line2d_51">
      <g>
       <use xlink:href="#m28d231f3bd" x="39.58149" y="155.377766" style="stroke: #000000; stroke-width: 0.8"/>
      </g>
     </g>
     <g id="text_12">
      <!-- 1.8 -->
      <g transform="translate(16.678365 159.176985) scale(0.1 -0.1)">
       <defs>
        <path id="DejaVuSans-38" d="M 2034 2216 
Q 1584 2216 1326 1975 
Q 1069 1734 1069 1313 
Q 1069 891 1326 650 
Q 1584 409 2034 409 
Q 2484 409 2743 651 
Q 3003 894 3003 1313 
Q 3003 1734 2745 1975 
Q 2488 2216 2034 2216 
z
M 1403 2484 
Q 997 2584 770 2862 
Q 544 3141 544 3541 
Q 544 4100 942 4425 
Q 1341 4750 2034 4750 
Q 2731 4750 3128 4425 
Q 3525 4100 3525 3541 
Q 3525 3141 3298 2862 
Q 3072 2584 2669 2484 
Q 3125 2378 3379 2068 
Q 3634 1759 3634 1313 
Q 3634 634 3220 271 
Q 2806 -91 2034 -91 
Q 1263 -91 848 271 
Q 434 634 434 1313 
Q 434 1759 690 2068 
Q 947 2378 1403 2484 
z
M 1172 3481 
Q 1172 3119 1398 2916 
Q 1625 2713 2034 2713 
Q 2441 2713 2670 2916 
Q 2900 3119 2900 3481 
Q 2900 3844 2670 4047 
Q 2441 4250 2034 4250 
Q 1625 4250 1398 4047 
Q 1172 3844 1172 3481 
z
" transform="scale(0.015625)"/>
       </defs>
       <use xlink:href="#DejaVuSans-31"/>
       <use xlink:href="#DejaVuSans-2e" x="63.623047"/>
       <use xlink:href="#DejaVuSans-38" x="95.410156"/>
      </g>
     </g>
    </g>
    <g id="ytick_6">
     <g id="line2d_52">
      <g>
       <use xlink:href="#m28d231f3bd" x="39.58149" y="116.16133" style="stroke: #000000; stroke-width: 0.8"/>
      </g>
     </g>
     <g id="text_13">
      <!-- 2.0 -->
      <g transform="translate(16.678365 119.960549) scale(0.1 -0.1)">
       <use xlink:href="#DejaVuSans-32"/>
       <use xlink:href="#DejaVuSans-2e" x="63.623047"/>
       <use xlink:href="#DejaVuSans-30" x="95.410156"/>
      </g>
     </g>
    </g>
    <g id="ytick_7">
     <g id="line2d_53">
      <g>
       <use xlink:href="#m28d231f3bd" x="39.58149" y="76.944894" style="stroke: #000000; stroke-width: 0.8"/>
      </g>
     </g>
     <g id="text_14">
      <!-- 2.2 -->
      <g transform="translate(16.678365 80.744113) scale(0.1 -0.1)">
       <use xlink:href="#DejaVuSans-32"/>
       <use xlink:href="#DejaVuSans-2e" x="63.623047"/>
       <use xlink:href="#DejaVuSans-32" x="95.410156"/>
      </g>
     </g>
    </g>
    <g id="ytick_8">
     <g id="line2d_54">
      <g>
       <use xlink:href="#m28d231f3bd" x="39.58149" y="37.728458" style="stroke: #000000; stroke-width: 0.8"/>
      </g>
     </g>
     <g id="text_15">
      <!-- 2.4 -->
      <g transform="translate(16.678365 41.527677) scale(0.1 -0.1)">
       <use xlink:href="#DejaVuSans-32"/>
       <use xlink:href="#DejaVuSans-2e" x="63.623047"/>
       <use xlink:href="#DejaVuSans-34" x="95.410156"/>
      </g>
     </g>
    </g>
    <g id="text_16">
     <!-- $\alpha$ -->
     <g transform="translate(10.598677 168.481875) rotate(-90) scale(0.1 -0.1)">
      <defs>
       <path id="DejaVuSans-Oblique-3b1" d="M 2619 1628 
L 2622 2350 
Q 2625 3088 2069 3091 
Q 1653 3094 1394 2747 
Q 1069 2319 959 1747 
Q 825 1059 994 731 
Q 1169 397 1547 397 
Q 1966 397 2319 1063 
L 2619 1628 
z
M 2166 3578 
Q 3141 3594 3128 2584 
Q 3128 2584 3616 3500 
L 4128 3500 
L 3119 1603 
L 3109 919 
Q 3109 766 3194 638 
Q 3291 488 3391 488 
L 3669 488 
L 3575 0 
L 3228 0 
Q 2934 0 2722 263 
Q 2622 394 2619 669 
Q 2416 334 2066 50 
Q 1900 -81 1453 -78 
Q 722 -72 456 397 
Q 184 884 353 1747 
Q 534 2675 1009 3097 
Q 1544 3569 2166 3578 
z
" transform="scale(0.015625)"/>
      </defs>
      <use xlink:href="#DejaVuSans-Oblique-3b1" transform="translate(0 0.84375)"/>
     </g>
    </g>
   </g>
   <g id="patch_3">
    <path d="M 39.58149 312.24351 
L 39.58149 18.12024 
" style="fill: none; stroke: #000000; stroke-width: 0.8; stroke-linejoin: miter; stroke-linecap: square"/>
   </g>
   <g id="patch_4">
    <path d="M 373.6914 312.24351 
L 373.6914 18.12024 
" style="fill: none; stroke: #000000; stroke-width: 0.8; stroke-linejoin: miter; stroke-linecap: square"/>
   </g>
   <g id="patch_5">
    <path d="M 39.58149 312.24351 
L 373.6914 312.24351 
" style="fill: none; stroke: #000000; stroke-width: 0.8; stroke-linejoin: miter; stroke-linecap: square"/>
   </g>
   <g id="patch_6">
    <path d="M 39.58149 18.12024 
L 373.6914 18.12024 
" style="fill: none; stroke: #000000; stroke-width: 0.8; stroke-linejoin: miter; stroke-linecap: square"/>
   </g>
   <g id="text_17">
    <!-- Exactitud para $\alpha$ y $h$ -->
    <g transform="translate(145.736445 12.12024) scale(0.12 -0.12)">
     <defs>
      <path id="DejaVuSans-45" d="M 628 4666 
L 3578 4666 
L 3578 4134 
L 1259 4134 
L 1259 2753 
L 3481 2753 
L 3481 2222 
L 1259 2222 
L 1259 531 
L 3634 531 
L 3634 0 
L 628 0 
L 628 4666 
z
" transform="scale(0.015625)"/>
      <path id="DejaVuSans-78" d="M 3513 3500 
L 2247 1797 
L 3578 0 
L 2900 0 
L 1881 1375 
L 863 0 
L 184 0 
L 1544 1831 
L 300 3500 
L 978 3500 
L 1906 2253 
L 2834 3500 
L 3513 3500 
z
" transform="scale(0.015625)"/>
      <path id="DejaVuSans-61" d="M 2194 1759 
Q 1497 1759 1228 1600 
Q 959 1441 959 1056 
Q 959 750 1161 570 
Q 1363 391 1709 391 
Q 2188 391 2477 730 
Q 2766 1069 2766 1631 
L 2766 1759 
L 2194 1759 
z
M 3341 1997 
L 3341 0 
L 2766 0 
L 2766 531 
Q 2569 213 2275 61 
Q 1981 -91 1556 -91 
Q 1019 -91 701 211 
Q 384 513 384 1019 
Q 384 1609 779 1909 
Q 1175 2209 1959 2209 
L 2766 2209 
L 2766 2266 
Q 2766 2663 2505 2880 
Q 2244 3097 1772 3097 
Q 1472 3097 1187 3025 
Q 903 2953 641 2809 
L 641 3341 
Q 956 3463 1253 3523 
Q 1550 3584 1831 3584 
Q 2591 3584 2966 3190 
Q 3341 2797 3341 1997 
z
" transform="scale(0.015625)"/>
      <path id="DejaVuSans-63" d="M 3122 3366 
L 3122 2828 
Q 2878 2963 2633 3030 
Q 2388 3097 2138 3097 
Q 1578 3097 1268 2742 
Q 959 2388 959 1747 
Q 959 1106 1268 751 
Q 1578 397 2138 397 
Q 2388 397 2633 464 
Q 2878 531 3122 666 
L 3122 134 
Q 2881 22 2623 -34 
Q 2366 -91 2075 -91 
Q 1284 -91 818 406 
Q 353 903 353 1747 
Q 353 2603 823 3093 
Q 1294 3584 2113 3584 
Q 2378 3584 2631 3529 
Q 2884 3475 3122 3366 
z
" transform="scale(0.015625)"/>
      <path id="DejaVuSans-74" d="M 1172 4494 
L 1172 3500 
L 2356 3500 
L 2356 3053 
L 1172 3053 
L 1172 1153 
Q 1172 725 1289 603 
Q 1406 481 1766 481 
L 2356 481 
L 2356 0 
L 1766 0 
Q 1100 0 847 248 
Q 594 497 594 1153 
L 594 3053 
L 172 3053 
L 172 3500 
L 594 3500 
L 594 4494 
L 1172 4494 
z
" transform="scale(0.015625)"/>
      <path id="DejaVuSans-69" d="M 603 3500 
L 1178 3500 
L 1178 0 
L 603 0 
L 603 3500 
z
M 603 4863 
L 1178 4863 
L 1178 4134 
L 603 4134 
L 603 4863 
z
" transform="scale(0.015625)"/>
      <path id="DejaVuSans-75" d="M 544 1381 
L 544 3500 
L 1119 3500 
L 1119 1403 
Q 1119 906 1312 657 
Q 1506 409 1894 409 
Q 2359 409 2629 706 
Q 2900 1003 2900 1516 
L 2900 3500 
L 3475 3500 
L 3475 0 
L 2900 0 
L 2900 538 
Q 2691 219 2414 64 
Q 2138 -91 1772 -91 
Q 1169 -91 856 284 
Q 544 659 544 1381 
z
M 1991 3584 
L 1991 3584 
z
" transform="scale(0.015625)"/>
      <path id="DejaVuSans-64" d="M 2906 2969 
L 2906 4863 
L 3481 4863 
L 3481 0 
L 2906 0 
L 2906 525 
Q 2725 213 2448 61 
Q 2172 -91 1784 -91 
Q 1150 -91 751 415 
Q 353 922 353 1747 
Q 353 2572 751 3078 
Q 1150 3584 1784 3584 
Q 2172 3584 2448 3432 
Q 2725 3281 2906 2969 
z
M 947 1747 
Q 947 1113 1208 752 
Q 1469 391 1925 391 
Q 2381 391 2643 752 
Q 2906 1113 2906 1747 
Q 2906 2381 2643 2742 
Q 2381 3103 1925 3103 
Q 1469 3103 1208 2742 
Q 947 2381 947 1747 
z
" transform="scale(0.015625)"/>
      <path id="DejaVuSans-20" transform="scale(0.015625)"/>
      <path id="DejaVuSans-70" d="M 1159 525 
L 1159 -1331 
L 581 -1331 
L 581 3500 
L 1159 3500 
L 1159 2969 
Q 1341 3281 1617 3432 
Q 1894 3584 2278 3584 
Q 2916 3584 3314 3078 
Q 3713 2572 3713 1747 
Q 3713 922 3314 415 
Q 2916 -91 2278 -91 
Q 1894 -91 1617 61 
Q 1341 213 1159 525 
z
M 3116 1747 
Q 3116 2381 2855 2742 
Q 2594 3103 2138 3103 
Q 1681 3103 1420 2742 
Q 1159 2381 1159 1747 
Q 1159 1113 1420 752 
Q 1681 391 2138 391 
Q 2594 391 2855 752 
Q 3116 1113 3116 1747 
z
" transform="scale(0.015625)"/>
      <path id="DejaVuSans-72" d="M 2631 2963 
Q 2534 3019 2420 3045 
Q 2306 3072 2169 3072 
Q 1681 3072 1420 2755 
Q 1159 2438 1159 1844 
L 1159 0 
L 581 0 
L 581 3500 
L 1159 3500 
L 1159 2956 
Q 1341 3275 1631 3429 
Q 1922 3584 2338 3584 
Q 2397 3584 2469 3576 
Q 2541 3569 2628 3553 
L 2631 2963 
z
" transform="scale(0.015625)"/>
      <path id="DejaVuSans-79" d="M 2059 -325 
Q 1816 -950 1584 -1140 
Q 1353 -1331 966 -1331 
L 506 -1331 
L 506 -850 
L 844 -850 
Q 1081 -850 1212 -737 
Q 1344 -625 1503 -206 
L 1606 56 
L 191 3500 
L 800 3500 
L 1894 763 
L 2988 3500 
L 3597 3500 
L 2059 -325 
z
" transform="scale(0.015625)"/>
     </defs>
     <use xlink:href="#DejaVuSans-45" transform="translate(0 0.015625)"/>
     <use xlink:href="#DejaVuSans-78" transform="translate(63.183594 0.015625)"/>
     <use xlink:href="#DejaVuSans-61" transform="translate(122.363281 0.015625)"/>
     <use xlink:href="#DejaVuSans-63" transform="translate(183.642578 0.015625)"/>
     <use xlink:href="#DejaVuSans-74" transform="translate(238.623047 0.015625)"/>
     <use xlink:href="#DejaVuSans-69" transform="translate(277.832031 0.015625)"/>
     <use xlink:href="#DejaVuSans-74" transform="translate(305.615234 0.015625)"/>
     <use xlink:href="#DejaVuSans-75" transform="translate(344.824219 0.015625)"/>
     <use xlink:href="#DejaVuSans-64" transform="translate(408.203125 0.015625)"/>
     <use xlink:href="#DejaVuSans-20" transform="translate(471.679688 0.015625)"/>
     <use xlink:href="#DejaVuSans-70" transform="translate(503.466797 0.015625)"/>
     <use xlink:href="#DejaVuSans-61" transform="translate(566.943359 0.015625)"/>
     <use xlink:href="#DejaVuSans-72" transform="translate(628.222656 0.015625)"/>
     <use xlink:href="#DejaVuSans-61" transform="translate(669.335938 0.015625)"/>
     <use xlink:href="#DejaVuSans-20" transform="translate(730.615234 0.015625)"/>
     <use xlink:href="#DejaVuSans-Oblique-3b1" transform="translate(762.402344 0.015625)"/>
     <use xlink:href="#DejaVuSans-20" transform="translate(828.320312 0.015625)"/>
     <use xlink:href="#DejaVuSans-79" transform="translate(860.107422 0.015625)"/>
     <use xlink:href="#DejaVuSans-20" transform="translate(919.287109 0.015625)"/>
     <use xlink:href="#DejaVuSans-Oblique-68" transform="translate(951.074219 0.015625)"/>
    </g>
   </g>
  </g>
  <g id="axes_2">
   <g id="patch_7">
    <path d="M 399.196896 312.24351 
L 413.90306 312.24351 
L 413.90306 18.12024 
L 399.196896 18.12024 
z
" style="fill: #ffffff"/>
   </g>
   <g id="QuadMesh_1">
    <path d="M 399.196896 312.24351 
L 413.90306 312.24351 
L 413.90306 291.234705 
L 399.196896 291.234705 
L 399.196896 312.24351 
" clip-path="url(#p078c206cfe)" style="fill: #470e61"/>
    <path d="M 399.196896 291.234705 
L 413.90306 291.234705 
L 413.90306 270.2259 
L 399.196896 270.2259 
L 399.196896 291.234705 
" clip-path="url(#p078c206cfe)" style="fill: #482677"/>
    <path d="M 399.196896 270.2259 
L 413.90306 270.2259 
L 413.90306 249.217095 
L 399.196896 249.217095 
L 399.196896 270.2259 
" clip-path="url(#p078c206cfe)" style="fill: #433d84"/>
    <path d="M 399.196896 249.217095 
L 413.90306 249.217095 
L 413.90306 228.20829 
L 399.196896 228.20829 
L 399.196896 249.217095 
" clip-path="url(#p078c206cfe)" style="fill: #3b528b"/>
    <path d="M 399.196896 228.20829 
L 413.90306 228.20829 
L 413.90306 207.199485 
L 399.196896 207.199485 
L 399.196896 228.20829 
" clip-path="url(#p078c206cfe)" style="fill: #32658e"/>
    <path d="M 399.196896 207.199485 
L 413.90306 207.199485 
L 413.90306 186.19068 
L 399.196896 186.19068 
L 399.196896 207.199485 
" clip-path="url(#p078c206cfe)" style="fill: #2a768e"/>
    <path d="M 399.196896 186.19068 
L 413.90306 186.19068 
L 413.90306 165.181875 
L 399.196896 165.181875 
L 399.196896 186.19068 
" clip-path="url(#p078c206cfe)" style="fill: #24878e"/>
    <path d="M 399.196896 165.181875 
L 413.90306 165.181875 
L 413.90306 144.17307 
L 399.196896 144.17307 
L 399.196896 165.181875 
" clip-path="url(#p078c206cfe)" style="fill: #1f998a"/>
    <path d="M 399.196896 144.17307 
L 413.90306 144.17307 
L 413.90306 123.164265 
L 399.196896 123.164265 
L 399.196896 144.17307 
" clip-path="url(#p078c206cfe)" style="fill: #24aa83"/>
    <path d="M 399.196896 123.164265 
L 413.90306 123.164265 
L 413.90306 102.15546 
L 399.196896 102.15546 
L 399.196896 123.164265 
" clip-path="url(#p078c206cfe)" style="fill: #3aba76"/>
    <path d="M 399.196896 102.15546 
L 413.90306 102.15546 
L 413.90306 81.146655 
L 399.196896 81.146655 
L 399.196896 102.15546 
" clip-path="url(#p078c206cfe)" style="fill: #5cc863"/>
    <path d="M 399.196896 81.146655 
L 413.90306 81.146655 
L 413.90306 60.13785 
L 399.196896 60.13785 
L 399.196896 81.146655 
" clip-path="url(#p078c206cfe)" style="fill: #89d548"/>
    <path d="M 399.196896 60.13785 
L 413.90306 60.13785 
L 413.90306 39.129045 
L 399.196896 39.129045 
L 399.196896 60.13785 
" clip-path="url(#p078c206cfe)" style="fill: #b8de29"/>
    <path d="M 399.196896 39.129045 
L 413.90306 39.129045 
L 413.90306 18.12024 
L 399.196896 18.12024 
L 399.196896 39.129045 
" clip-path="url(#p078c206cfe)" style="fill: #e7e419"/>
   </g>
   <g id="matplotlib.axis_3"/>
   <g id="matplotlib.axis_4">
    <g id="ytick_9">
     <g id="line2d_55">
      <defs>
       <path id="mcdb386d3ae" d="M 0 0 
L 3.5 0 
" style="stroke: #000000; stroke-width: 0.8"/>
      </defs>
      <g>
       <use xlink:href="#mcdb386d3ae" x="413.90306" y="312.24351" style="stroke: #000000; stroke-width: 0.8"/>
      </g>
     </g>
     <g id="text_18">
      <!-- 0.24 -->
      <g transform="translate(420.90306 316.042729) scale(0.1 -0.1)">
       <use xlink:href="#DejaVuSans-30"/>
       <use xlink:href="#DejaVuSans-2e" x="63.623047"/>
       <use xlink:href="#DejaVuSans-32" x="95.410156"/>
       <use xlink:href="#DejaVuSans-34" x="159.033203"/>
      </g>
     </g>
    </g>
    <g id="ytick_10">
     <g id="line2d_56">
      <g>
       <use xlink:href="#mcdb386d3ae" x="413.90306" y="270.2259" style="stroke: #000000; stroke-width: 0.8"/>
      </g>
     </g>
     <g id="text_19">
      <!-- 0.32 -->
      <g transform="translate(420.90306 274.025119) scale(0.1 -0.1)">
       <use xlink:href="#DejaVuSans-30"/>
       <use xlink:href="#DejaVuSans-2e" x="63.623047"/>
       <use xlink:href="#DejaVuSans-33" x="95.410156"/>
       <use xlink:href="#DejaVuSans-32" x="159.033203"/>
      </g>
     </g>
    </g>
    <g id="ytick_11">
     <g id="line2d_57">
      <g>
       <use xlink:href="#mcdb386d3ae" x="413.90306" y="228.20829" style="stroke: #000000; stroke-width: 0.8"/>
      </g>
     </g>
     <g id="text_20">
      <!-- 0.40 -->
      <g transform="translate(420.90306 232.007509) scale(0.1 -0.1)">
       <use xlink:href="#DejaVuSans-30"/>
       <use xlink:href="#DejaVuSans-2e" x="63.623047"/>
       <use xlink:href="#DejaVuSans-34" x="95.410156"/>
       <use xlink:href="#DejaVuSans-30" x="159.033203"/>
      </g>
     </g>
    </g>
    <g id="ytick_12">
     <g id="line2d_58">
      <g>
       <use xlink:href="#mcdb386d3ae" x="413.90306" y="186.19068" style="stroke: #000000; stroke-width: 0.8"/>
      </g>
     </g>
     <g id="text_21">
      <!-- 0.48 -->
      <g transform="translate(420.90306 189.989899) scale(0.1 -0.1)">
       <use xlink:href="#DejaVuSans-30"/>
       <use xlink:href="#DejaVuSans-2e" x="63.623047"/>
       <use xlink:href="#DejaVuSans-34" x="95.410156"/>
       <use xlink:href="#DejaVuSans-38" x="159.033203"/>
      </g>
     </g>
    </g>
    <g id="ytick_13">
     <g id="line2d_59">
      <g>
       <use xlink:href="#mcdb386d3ae" x="413.90306" y="144.17307" style="stroke: #000000; stroke-width: 0.8"/>
      </g>
     </g>
     <g id="text_22">
      <!-- 0.56 -->
      <g transform="translate(420.90306 147.972289) scale(0.1 -0.1)">
       <defs>
        <path id="DejaVuSans-35" d="M 691 4666 
L 3169 4666 
L 3169 4134 
L 1269 4134 
L 1269 2991 
Q 1406 3038 1543 3061 
Q 1681 3084 1819 3084 
Q 2600 3084 3056 2656 
Q 3513 2228 3513 1497 
Q 3513 744 3044 326 
Q 2575 -91 1722 -91 
Q 1428 -91 1123 -41 
Q 819 9 494 109 
L 494 744 
Q 775 591 1075 516 
Q 1375 441 1709 441 
Q 2250 441 2565 725 
Q 2881 1009 2881 1497 
Q 2881 1984 2565 2268 
Q 2250 2553 1709 2553 
Q 1456 2553 1204 2497 
Q 953 2441 691 2322 
L 691 4666 
z
" transform="scale(0.015625)"/>
       </defs>
       <use xlink:href="#DejaVuSans-30"/>
       <use xlink:href="#DejaVuSans-2e" x="63.623047"/>
       <use xlink:href="#DejaVuSans-35" x="95.410156"/>
       <use xlink:href="#DejaVuSans-36" x="159.033203"/>
      </g>
     </g>
    </g>
    <g id="ytick_14">
     <g id="line2d_60">
      <g>
       <use xlink:href="#mcdb386d3ae" x="413.90306" y="102.15546" style="stroke: #000000; stroke-width: 0.8"/>
      </g>
     </g>
     <g id="text_23">
      <!-- 0.64 -->
      <g transform="translate(420.90306 105.954679) scale(0.1 -0.1)">
       <use xlink:href="#DejaVuSans-30"/>
       <use xlink:href="#DejaVuSans-2e" x="63.623047"/>
       <use xlink:href="#DejaVuSans-36" x="95.410156"/>
       <use xlink:href="#DejaVuSans-34" x="159.033203"/>
      </g>
     </g>
    </g>
    <g id="ytick_15">
     <g id="line2d_61">
      <g>
       <use xlink:href="#mcdb386d3ae" x="413.90306" y="60.13785" style="stroke: #000000; stroke-width: 0.8"/>
      </g>
     </g>
     <g id="text_24">
      <!-- 0.72 -->
      <g transform="translate(420.90306 63.937069) scale(0.1 -0.1)">
       <defs>
        <path id="DejaVuSans-37" d="M 525 4666 
L 3525 4666 
L 3525 4397 
L 1831 0 
L 1172 0 
L 2766 4134 
L 525 4134 
L 525 4666 
z
" transform="scale(0.015625)"/>
       </defs>
       <use xlink:href="#DejaVuSans-30"/>
       <use xlink:href="#DejaVuSans-2e" x="63.623047"/>
       <use xlink:href="#DejaVuSans-37" x="95.410156"/>
       <use xlink:href="#DejaVuSans-32" x="159.033203"/>
      </g>
     </g>
    </g>
    <g id="ytick_16">
     <g id="line2d_62">
      <g>
       <use xlink:href="#mcdb386d3ae" x="413.90306" y="18.12024" style="stroke: #000000; stroke-width: 0.8"/>
      </g>
     </g>
     <g id="text_25">
      <!-- 0.80 -->
      <g transform="translate(420.90306 21.919459) scale(0.1 -0.1)">
       <use xlink:href="#DejaVuSans-30"/>
       <use xlink:href="#DejaVuSans-2e" x="63.623047"/>
       <use xlink:href="#DejaVuSans-38" x="95.410156"/>
       <use xlink:href="#DejaVuSans-30" x="159.033203"/>
      </g>
     </g>
    </g>
    <g id="text_26">
     <!-- Exactitud -->
     <g transform="translate(454.767122 188.76625) rotate(-90) scale(0.1 -0.1)">
      <use xlink:href="#DejaVuSans-45"/>
      <use xlink:href="#DejaVuSans-78" x="63.183594"/>
      <use xlink:href="#DejaVuSans-61" x="122.363281"/>
      <use xlink:href="#DejaVuSans-63" x="183.642578"/>
      <use xlink:href="#DejaVuSans-74" x="238.623047"/>
      <use xlink:href="#DejaVuSans-69" x="277.832031"/>
      <use xlink:href="#DejaVuSans-74" x="305.615234"/>
      <use xlink:href="#DejaVuSans-75" x="344.824219"/>
      <use xlink:href="#DejaVuSans-64" x="408.203125"/>
     </g>
    </g>
   </g>
   <g id="LineCollection_1"/>
   <g id="patch_8">
    <path d="M 399.196896 312.24351 
L 406.549978 312.24351 
L 413.90306 312.24351 
L 413.90306 18.12024 
L 406.549978 18.12024 
L 399.196896 18.12024 
L 399.196896 312.24351 
z
" style="fill: none; stroke: #000000; stroke-width: 0.8; stroke-linejoin: miter; stroke-linecap: square"/>
   </g>
  </g>
 </g>
 <defs>
  <clipPath id="p1effda3542">
   <rect x="39.58149" y="18.12024" width="334.10991" height="294.12327"/>
  </clipPath>
  <clipPath id="p078c206cfe">
   <rect x="399.196896" y="18.12024" width="14.706164" height="294.12327"/>
  </clipPath>
 </defs>
</svg>
