<?xml version="1.0" encoding="utf-8" standalone="no"?>
<!DOCTYPE svg PUBLIC "-//W3C//DTD SVG 1.1//EN"
  "http://www.w3.org/Graphics/SVG/1.1/DTD/svg11.dtd">
<svg xmlns:xlink="http://www.w3.org/1999/xlink" width="460.8pt" height="345.6pt" viewBox="0 0 460.8 345.6" xmlns="http://www.w3.org/2000/svg" version="1.1">
 <metadata>
  <rdf:RDF xmlns:dc="http://purl.org/dc/elements/1.1/" xmlns:cc="http://creativecommons.org/ns#" xmlns:rdf="http://www.w3.org/1999/02/22-rdf-syntax-ns#">
   <cc:Work>
    <dc:type rdf:resource="http://purl.org/dc/dcmitype/StillImage"/>
    <dc:date>1970-01-01T00:00:00+00:00</dc:date>
    <dc:format>image/svg+xml</dc:format>
    <dc:creator>
     <cc:Agent>
      <dc:title>Matplotlib v3.10.7, https://matplotlib.org/</dc:title>
     </cc:Agent>
    </dc:creator>
   </cc:Work>
  </rdf:RDF>
 </metadata>
 <defs>
  <style type="text/css">*{stroke-linejoin: round; stroke-linecap: butt}</style>
 </defs>
 <g id="figure_1">
  <g id="patch_1">
   <path d="M 0 345.6 
L 460.8 345.6 
L 460.8 0 
L 0 0 
z
" style="fill: #ffffff"/>
  </g>
  <g id="axes_1">
   <g id="patch_2">
    <path d="M 39.58149 312.24351 
L 378.623979 312.24351 
L 378.623979 18.12024 
L 39.58149 18.12024 
z
" style="fill: #ffffff"/>
   </g>
   <g id="QuadContourSet_1">
    <path d="M 124.342112 264.513691 
L 126.140363 263.222965 
L 124.342112 258.601062 
L 124.030912 263.222965 
z
" clip-path="url(#p8da1ac7ad1)" style="fill: #470d60"/>
    <path d="M 132.047623 312.24351 
L 135.916049 312.24351 
L 132.047623 295.125127 
L 131.177589 312.24351 
z
M 124.342112 267.895308 
L 129.951119 263.222965 
L 124.342112 246.491983 
L 123.179526 263.222965 
z
M 124.030912 263.222965 
L 124.342112 258.601062 
L 126.140363 263.222965 
L 124.342112 264.513691 
z
M 116.636601 218.559094 
L 119.105119 214.20242 
L 116.636601 203.465587 
L 115.916396 214.20242 
z
M 108.93109 166.088267 
L 109.274888 165.181875 
L 108.93109 163.894878 
L 108.855265 165.181875 
z
" clip-path="url(#p8da1ac7ad1)" style="fill: #482475"/>
    <path d="M 132.047623 295.125127 
L 135.916049 312.24351 
L 139.155887 312.24351 
L 133.939227 287.733237 
L 132.792923 263.222965 
L 132.047623 259.175867 
L 126.124857 238.712693 
L 124.342112 233.940938 
L 123.709688 238.712693 
L 122.27029 263.222965 
L 124.342112 271.276925 
L 131.384399 287.733238 
L 130.159009 312.24351 
L 131.177589 312.24351 
z
M 123.179526 263.222965 
L 124.342112 246.491983 
L 129.951119 263.222965 
L 124.342112 267.895308 
z
M 116.636601 223.555538 
L 121.468879 214.20242 
L 116.636601 191.152068 
L 115.039714 214.20242 
z
M 115.916396 214.20242 
L 116.636601 203.465587 
L 119.105119 214.20242 
L 116.636601 218.559094 
z
M 108.93109 176.003862 
L 112.552023 165.181875 
L 108.93109 149.815597 
L 107.99644 165.181875 
z
M 108.855265 165.181875 
L 108.93109 163.894878 
L 109.274888 165.181875 
L 108.93109 166.088267 
z
M 101.225579 118.24427 
L 102.290897 116.16133 
L 101.225579 112.09633 
L 101.060978 116.16133 
z
" clip-path="url(#p8da1ac7ad1)" style="fill: #443983"/>
    <path d="M 131.384399 287.733237 
L 124.342112 271.276925 
L 122.27029 263.222965 
L 123.709688 238.712693 
L 124.342112 233.940938 
L 126.124857 238.712693 
L 132.047623 259.175867 
L 132.792923 263.222965 
L 133.939227 287.733237 
L 139.155887 312.24351 
L 139.753134 312.24351 
L 141.20394 312.24351 
L 139.753134 303.781414 
L 136.580163 287.733237 
L 134.912644 263.222965 
L 132.047623 246.35356 
L 130.129409 238.712693 
L 124.342112 220.595815 
L 123.477212 214.20242 
L 123.496227 189.692148 
L 116.636601 175.521508 
L 115.182561 165.181875 
L 110.78157 140.671603 
L 108.93109 132.286574 
L 107.484455 140.671603 
L 107.078713 165.181875 
L 108.93109 185.919457 
L 111.752754 189.692148 
L 114.101567 214.20242 
L 116.636601 228.551982 
L 121.76371 238.712693 
L 121.294762 263.222965 
L 124.342112 274.658542 
L 130.208988 287.733237 
L 129.05649 312.24351 
L 130.159009 312.24351 
z
M 115.039714 214.20242 
L 116.636601 191.152068 
L 121.468879 214.20242 
L 116.636601 223.555538 
z
M 107.99644 165.181875 
L 108.93109 149.815597 
L 112.552023 165.181875 
L 108.93109 176.003862 
z
M 101.225579 128.689603 
L 106.637415 116.16133 
L 101.225579 91.711544 
L 100.203576 116.16133 
z
M 101.060978 116.16133 
L 101.225579 112.09633 
L 102.290897 116.16133 
L 101.225579 118.24427 
z
" clip-path="url(#p8da1ac7ad1)" style="fill: #3d4d8a"/>
    <path d="M 130.208988 287.733237 
L 124.342112 274.658542 
L 121.294762 263.222965 
L 121.76371 238.712693 
L 116.636601 228.551982 
L 114.101567 214.20242 
L 111.752754 189.692148 
L 108.93109 185.919457 
L 107.078713 165.181875 
L 107.484455 140.671603 
L 108.93109 132.286574 
L 110.78157 140.671603 
L 115.182561 165.181875 
L 116.636601 175.521508 
L 123.496227 189.692148 
L 123.477212 214.20242 
L 124.342112 220.595815 
L 130.129409 238.712693 
L 132.047623 246.35356 
L 134.912644 263.222965 
L 136.580163 287.733237 
L 139.753134 303.781414 
L 141.20394 312.24351 
L 142.84458 312.24351 
L 139.753134 293.03927 
L 138.784933 287.733237 
L 136.742132 263.222965 
L 132.993101 238.712693 
L 132.047623 233.353751 
L 126.852915 214.20242 
L 126.473697 189.692148 
L 124.342112 177.312856 
L 119.431204 165.181875 
L 116.636601 154.849351 
L 114.979223 140.671603 
L 113.306654 116.16133 
L 108.93109 105.8486 
L 106.977081 91.651058 
L 103.191391 67.140785 
L 101.225579 53.651775 
L 99.515201 42.630513 
L 96.027881 18.12024 
L 93.520068 18.12024 
L 92.311565 18.12024 
L 91.76626 42.630513 
L 93.21374 67.140785 
L 93.520068 71.722577 
L 98.319773 91.651058 
L 99.287473 116.16133 
L 101.225579 139.134937 
L 102.211705 140.671603 
L 106.093406 165.181875 
L 107.676669 189.692148 
L 108.93109 193.457321 
L 113.09268 214.20242 
L 116.636601 233.548427 
L 119.485912 238.712693 
L 120.242513 263.222965 
L 124.342112 278.040159 
L 128.920341 287.733237 
L 127.854945 312.24351 
L 129.05649 312.24351 
z
M 100.203576 116.16133 
L 101.225579 91.711544 
L 106.637415 116.16133 
L 101.225579 128.689603 
z
" clip-path="url(#p8da1ac7ad1)" style="fill: #355f8d"/>
    <path d="M 47.287001 312.24351 
L 54.992512 312.24351 
L 62.698023 312.24351 
L 70.403534 312.24351 
L 78.109046 312.24351 
L 85.814557 312.24351 
L 93.520068 312.24351 
L 99.35624 312.24351 
L 93.520068 303.904323 
L 88.256792 287.733237 
L 85.814557 283.315254 
L 78.109046 269.549051 
L 75.623909 263.222965 
L 70.403534 253.733975 
L 66.223429 238.712693 
L 62.698023 231.8849 
L 54.992512 218.372488 
L 53.546664 214.20242 
L 47.287001 201.619023 
L 44.081276 189.692148 
L 39.58149 182.181576 
L 39.58149 189.692148 
L 39.58149 214.20242 
L 39.58149 238.712693 
L 39.58149 263.222965 
L 39.58149 287.733237 
L 39.58149 312.24351 
z
M 128.920341 287.733237 
L 124.342112 278.040159 
L 120.242513 263.222965 
L 119.485912 238.712693 
L 116.636601 233.548427 
L 113.09268 214.20242 
L 108.93109 193.457321 
L 107.676669 189.692148 
L 106.093406 165.181875 
L 102.211705 140.671603 
L 101.225579 139.134937 
L 99.287473 116.16133 
L 98.319773 91.651058 
L 93.520068 71.722577 
L 93.21374 67.140785 
L 91.76626 42.630513 
L 92.311565 18.12024 
L 88.935512 18.12024 
L 89.236556 42.630513 
L 92.07939 67.140785 
L 93.520068 87.804766 
L 94.590331 91.651058 
L 98.304038 116.16133 
L 99.232233 140.671603 
L 101.225579 146.10966 
L 105.029767 165.181875 
L 105.365398 189.692148 
L 108.93109 199.534891 
L 112.00151 214.20242 
L 116.636601 238.544871 
L 116.739391 238.712693 
L 119.100436 263.222965 
L 124.342112 281.421776 
L 127.494292 287.733237 
L 126.534815 312.24351 
L 127.854945 312.24351 
z
M 139.753134 293.03927 
L 142.84458 312.24351 
L 144.305911 312.24351 
L 140.733053 287.733237 
L 139.753134 279.356242 
L 138.351379 263.222965 
L 135.080555 238.712692 
L 132.047623 220.092186 
L 130.653395 214.20242 
L 128.596503 189.692148 
L 124.756371 165.181875 
L 124.342112 162.882833 
L 118.994903 140.671603 
L 118.490179 116.16133 
L 116.636601 106.626539 
L 112.105288 91.651058 
L 108.93109 78.452164 
L 107.342674 67.140785 
L 106.171328 42.630513 
L 101.225579 23.108584 
L 100.561298 18.12024 
L 96.027881 18.12024 
L 99.515201 42.630513 
L 101.225579 53.651775 
L 103.191391 67.140785 
L 106.977081 91.651058 
L 108.93109 105.8486 
L 113.306654 116.16133 
L 114.979223 140.671603 
L 116.636601 154.849351 
L 119.431204 165.181875 
L 124.342112 177.312856 
L 126.473697 189.692148 
L 126.852915 214.20242 
L 132.047623 233.353751 
L 132.993101 238.712693 
L 136.742132 263.222965 
L 138.784933 287.733237 
z
M 201.397223 312.24351 
L 209.102734 312.24351 
L 216.808245 312.24351 
L 224.513757 312.24351 
L 232.219268 312.24351 
L 239.924779 312.24351 
L 247.63029 312.24351 
L 255.335801 312.24351 
L 263.041312 312.24351 
L 270.746823 312.24351 
L 278.452334 312.24351 
L 286.157845 312.24351 
L 293.863356 312.24351 
L 301.568868 312.24351 
L 309.274379 312.24351 
L 316.97989 312.24351 
L 324.685401 312.24351 
L 332.390912 312.24351 
L 340.096423 312.24351 
L 347.801934 312.24351 
L 355.507445 312.24351 
L 363.212956 312.24351 
L 370.918468 312.24351 
L 378.623979 312.24351 
L 378.623979 287.733237 
L 378.623979 263.222965 
L 378.623979 238.712693 
L 378.623979 214.20242 
L 378.623979 189.692148 
L 378.623979 165.181875 
L 378.623979 140.671603 
L 378.623979 116.16133 
L 378.623979 91.651058 
L 378.623979 67.140785 
L 378.623979 42.630513 
L 378.623979 18.12024 
L 370.918468 18.12024 
L 363.212956 18.12024 
L 355.507445 18.12024 
L 347.801934 18.12024 
L 340.096423 18.12024 
L 332.390912 18.12024 
L 324.685401 18.12024 
L 316.97989 18.12024 
L 309.274379 18.12024 
L 301.568868 18.12024 
L 293.863356 18.12024 
L 286.157845 18.12024 
L 278.452334 18.12024 
L 270.746823 18.12024 
L 263.041312 18.12024 
L 255.335801 18.12024 
L 247.63029 18.12024 
L 239.924779 18.12024 
L 232.219268 18.12024 
L 224.513757 18.12024 
L 216.808245 18.12024 
L 209.102734 18.12024 
L 201.397223 18.12024 
L 193.691712 18.12024 
L 185.986201 18.12024 
L 178.28069 18.12024 
L 176.986502 18.12024 
L 178.28069 37.03609 
L 179.252431 42.630513 
L 182.468186 67.140785 
L 184.530006 91.651058 
L 185.972614 116.16133 
L 185.986201 116.421946 
L 189.931991 140.671603 
L 192.076869 165.181875 
L 193.399753 189.692148 
L 193.691712 196.834039 
L 196.425533 214.20242 
L 198.139146 238.712693 
L 198.98678 263.222965 
L 199.178317 287.733237 
L 196.791277 312.24351 
z
" clip-path="url(#p8da1ac7ad1)" style="fill: #2d708e"/>
    <path d="M 93.520068 303.904323 
L 99.35624 312.24351 
L 101.225579 312.24351 
L 105.262991 312.24351 
L 101.225579 302.189536 
L 96.131432 287.733237 
L 93.520068 281.36853 
L 87.03624 263.222965 
L 85.814557 260.636675 
L 78.109046 239.667682 
L 77.826982 238.712693 
L 70.403534 221.823734 
L 68.004565 214.20242 
L 62.698023 203.988058 
L 57.722034 189.692148 
L 54.992512 183.962504 
L 48.537732 165.181875 
L 47.287001 162.375795 
L 39.58149 142.060677 
L 39.58149 165.181875 
L 39.58149 182.181576 
L 44.081276 189.692148 
L 47.287001 201.619023 
L 53.546664 214.20242 
L 54.992512 218.372488 
L 62.698023 231.8849 
L 66.223429 238.712693 
L 70.403534 253.733975 
L 75.623909 263.222965 
L 78.109046 269.549051 
L 85.814557 283.315254 
L 88.256792 287.733237 
z
M 127.494292 287.733237 
L 124.342112 281.421776 
L 119.100436 263.222965 
L 116.739391 238.712693 
L 116.636601 238.544871 
L 112.00151 214.20242 
L 108.93109 199.534891 
L 105.365398 189.692148 
L 105.029767 165.181875 
L 101.225579 146.10966 
L 99.232233 140.671603 
L 98.304038 116.16133 
L 94.590331 91.651058 
L 93.520068 87.804766 
L 92.07939 67.140785 
L 89.236556 42.630513 
L 88.935512 18.12024 
L 85.814557 18.12024 
L 85.413732 18.12024 
L 85.814557 36.874263 
L 86.114705 42.630513 
L 90.839938 67.140785 
L 91.460933 91.651058 
L 93.520068 96.687554 
L 97.242581 116.16133 
L 96.440093 140.671603 
L 101.225579 152.485734 
L 103.87426 165.181875 
L 102.570007 189.692148 
L 108.93109 205.612461 
L 110.813434 214.20242 
L 110.652216 238.712693 
L 116.636601 251.489026 
L 117.851751 263.222965 
L 124.342112 284.803393 
L 125.898004 287.733237 
L 125.070104 312.24351 
L 126.534815 312.24351 
z
M 142.481005 287.733237 
L 139.803513 263.222965 
L 139.753134 262.898612 
L 136.88597 238.712693 
L 133.263969 214.20242 
L 132.047623 205.476227 
L 130.428287 189.692148 
L 127.082357 165.181875 
L 124.342112 148.565439 
L 122.675891 140.671603 
L 120.852796 116.16133 
L 116.636601 92.393218 
L 116.444728 91.651058 
L 111.367023 67.140785 
L 110.355201 42.630513 
L 108.93109 35.543351 
L 104.914572 18.12024 
L 101.225579 18.12024 
L 100.561298 18.12024 
L 101.225579 23.108584 
L 106.171328 42.630513 
L 107.342674 67.140785 
L 108.93109 78.452164 
L 112.105288 91.651058 
L 116.636601 106.626539 
L 118.490179 116.16133 
L 118.994903 140.671603 
L 124.342112 162.882833 
L 124.756371 165.181875 
L 128.596503 189.692148 
L 130.653395 214.20242 
L 132.047623 220.092186 
L 135.080555 238.712693 
L 138.351379 263.222965 
L 139.753134 279.356242 
L 140.733053 287.733237 
L 144.305911 312.24351 
L 145.623295 312.24351 
z
M 193.691712 312.24351 
L 196.791277 312.24351 
L 199.178317 287.733237 
L 198.98678 263.222965 
L 198.139146 238.712693 
L 196.425533 214.20242 
L 193.691712 196.834039 
L 193.399753 189.692148 
L 192.076869 165.181875 
L 189.931991 140.671603 
L 185.986201 116.421946 
L 185.972614 116.16133 
L 184.530006 91.651058 
L 182.468186 67.140785 
L 179.252431 42.630513 
L 178.28069 37.03609 
L 176.986502 18.12024 
L 170.575179 18.12024 
L 170.220841 18.12024 
L 170.575179 22.419735 
L 173.509508 42.630513 
L 175.98141 67.140785 
L 177.724349 91.651058 
L 178.28069 100.718554 
L 180.461181 116.16133 
L 182.975706 140.671603 
L 184.647948 165.181875 
L 185.805752 189.692148 
L 185.986201 194.006993 
L 188.496006 214.20242 
L 190.313922 238.712693 
L 191.289726 263.222965 
L 191.545444 287.733237 
L 190.804465 312.24351 
z
M 85.814557 142.276231 
L 87.843925 140.671603 
L 85.814557 131.592971 
L 85.389157 140.671603 
z
M 70.403534 68.414035 
L 72.868081 67.140785 
L 70.403534 57.945089 
L 70.066873 67.140785 
z
" clip-path="url(#p8da1ac7ad1)" style="fill: #27808e"/>
    <path d="M 101.225579 302.189536 
L 105.262991 312.24351 
L 108.704325 312.24351 
L 101.225579 290.869878 
L 100.273184 287.733237 
L 93.520068 268.346231 
L 91.98425 263.222965 
L 85.814557 247.376357 
L 83.210268 238.712693 
L 78.109046 224.607508 
L 74.705699 214.20242 
L 70.403534 202.264962 
L 65.111601 189.692148 
L 62.698023 183.469579 
L 54.992512 165.513365 
L 54.901813 165.181875 
L 47.287001 143.227723 
L 46.554743 140.671603 
L 39.58149 120.661568 
L 39.58149 140.671603 
L 39.58149 142.060677 
L 47.287001 162.375795 
L 48.537732 165.181875 
L 54.992512 183.962504 
L 57.722034 189.692148 
L 62.698023 203.988058 
L 68.004565 214.20242 
L 70.403534 221.823734 
L 77.826982 238.712693 
L 78.109046 239.667682 
L 85.814557 260.636675 
L 87.03624 263.222965 
L 93.520068 281.36853 
L 96.131432 287.733237 
z
M 124.342112 312.24351 
L 125.070104 312.24351 
L 125.898004 287.733237 
L 124.342112 284.803393 
L 117.851751 263.222965 
L 116.636601 251.489026 
L 110.652216 238.712693 
L 110.813434 214.20242 
L 108.93109 205.612461 
L 102.570007 189.692148 
L 103.87426 165.181875 
L 101.225579 152.485734 
L 96.440093 140.671603 
L 97.242581 116.16133 
L 93.520068 96.687554 
L 91.460933 91.651058 
L 90.839938 67.140785 
L 86.114705 42.630513 
L 85.814557 36.874263 
L 85.413732 18.12024 
L 83.846026 18.12024 
L 83.804192 42.630513 
L 85.814557 49.773136 
L 89.473899 67.140785 
L 88.159678 91.651058 
L 93.520068 103.307246 
L 96.089648 116.16133 
L 93.520068 138.859802 
L 88.117872 116.16133 
L 85.814557 103.4657 
L 83.892344 116.16133 
L 83.31627 140.671603 
L 85.814557 149.40543 
L 91.834987 165.181875 
L 93.520068 171.092486 
L 97.559575 165.181875 
L 101.225579 158.861808 
L 102.609501 165.181875 
L 101.225579 180.560856 
L 100.090288 189.692148 
L 101.225579 196.442389 
L 108.93109 211.690031 
L 109.509546 214.20242 
L 108.93109 222.600158 
L 106.729563 238.712693 
L 108.93109 245.581786 
L 116.326585 263.222965 
L 116.636601 265.239384 
L 123.765949 287.733237 
L 123.344349 312.24351 
z
M 85.389157 140.671603 
L 85.814557 131.592971 
L 87.843925 140.671603 
L 85.814557 142.276231 
z
M 144.026843 287.733237 
L 141.650631 263.222965 
L 139.753134 250.122846 
L 138.476567 238.712693 
L 135.207477 214.20242 
L 132.047623 189.778162 
L 132.039309 189.692148 
L 129.063374 165.181875 
L 125.468946 140.671603 
L 124.342112 132.141693 
L 122.860304 116.16133 
L 119.15321 91.651058 
L 116.636601 75.924752 
L 115.036806 67.140785 
L 112.879617 42.630513 
L 108.93109 20.96926 
L 108.351311 18.12024 
L 104.914572 18.12024 
L 108.93109 35.543351 
L 110.355201 42.630513 
L 111.367023 67.140785 
L 116.444728 91.651058 
L 116.636601 92.393218 
L 120.852796 116.16133 
L 122.675891 140.671603 
L 124.342112 148.565439 
L 127.082357 165.181875 
L 130.428287 189.692148 
L 132.047623 205.476227 
L 133.263969 214.20242 
L 136.88597 238.712693 
L 139.753134 262.898612 
L 139.803513 263.222965 
L 142.481005 287.733237 
L 145.623295 312.24351 
L 146.822565 312.24351 
z
M 191.545444 287.733237 
L 191.289726 263.222965 
L 190.313922 238.712693 
L 188.496006 214.20242 
L 185.986201 194.006993 
L 185.805752 189.692148 
L 184.647948 165.181875 
L 182.975706 140.671603 
L 180.461181 116.16133 
L 178.28069 100.718554 
L 177.724349 91.651058 
L 175.98141 67.140785 
L 173.509508 42.630513 
L 170.575179 22.419735 
L 170.220841 18.12024 
L 165.532116 18.12024 
L 168.384696 42.630513 
L 170.575179 66.276573 
L 170.711187 67.140785 
L 173.963465 91.651058 
L 176.172242 116.16133 
L 177.881747 140.671603 
L 178.28069 146.729407 
L 180.673069 165.181875 
L 182.824276 189.692148 
L 184.310641 214.20242 
L 185.385975 238.712693 
L 185.986201 258.247969 
L 186.414532 263.222965 
L 187.244231 287.733237 
L 186.300354 312.24351 
L 190.804465 312.24351 
z
M 78.109046 100.690681 
L 83.152053 91.651058 
L 79.738461 67.140785 
L 78.109046 62.608686 
L 72.839244 42.630513 
L 70.403534 28.974699 
L 68.440244 42.630513 
L 68.193711 67.140785 
L 70.403534 74.942192 
L 76.606887 91.651058 
z
M 70.066873 67.140785 
L 70.403534 57.945089 
L 72.868081 67.140785 
L 70.403534 68.414035 
z
M 62.698023 26.814607 
L 67.857938 18.12024 
L 62.698023 18.12024 
L 60.198332 18.12024 
z
" clip-path="url(#p8da1ac7ad1)" style="fill: #21918c"/>
    <path d="M 101.225579 290.869878 
L 108.704325 312.24351 
L 108.93109 312.24351 
L 112.108233 312.24351 
L 108.93109 303.013097 
L 104.208924 287.733237 
L 101.225579 278.84551 
L 96.522817 263.222965 
L 93.520068 254.49778 
L 88.107363 238.712693 
L 85.814557 232.708896 
L 80.160626 214.20242 
L 78.109046 208.87274 
L 72.4964 189.692148 
L 70.403534 184.120209 
L 64.878666 165.181875 
L 62.698023 159.609937 
L 56.496429 140.671603 
L 54.992512 136.926912 
L 48.111291 116.16133 
L 47.287001 114.161067 
L 39.58149 92.520604 
L 39.58149 116.16133 
L 39.58149 120.661568 
L 46.554743 140.671603 
L 47.287001 143.227723 
L 54.901813 165.181875 
L 54.992512 165.513365 
L 62.698023 183.469579 
L 65.111601 189.692148 
L 70.403534 202.264962 
L 74.705699 214.20242 
L 78.109046 224.607508 
L 83.210268 238.712693 
L 85.814557 247.376357 
L 91.98425 263.222965 
L 93.520068 268.346231 
L 100.273184 287.733237 
z
M 123.765949 287.733237 
L 116.636601 265.239384 
L 116.326585 263.222965 
L 108.93109 245.581786 
L 106.729563 238.712693 
L 108.93109 222.600158 
L 109.509546 214.20242 
L 108.93109 211.690031 
L 101.225579 196.442389 
L 100.090288 189.692148 
L 101.225579 180.560856 
L 102.609501 165.181875 
L 101.225579 158.861808 
L 97.559575 165.181875 
L 93.520068 171.092486 
L 91.834987 165.181875 
L 85.814557 149.40543 
L 83.31627 140.671603 
L 83.892344 116.16133 
L 85.814557 103.4657 
L 88.117872 116.16133 
L 93.520068 138.859802 
L 96.089648 116.16133 
L 93.520068 103.307246 
L 88.159678 91.651058 
L 89.473899 67.140785 
L 85.814557 49.773136 
L 83.804192 42.630513 
L 83.846026 18.12024 
L 82.070055 18.12024 
L 81.196781 42.630513 
L 78.109046 52.404793 
L 75.787641 42.630513 
L 72.378073 18.12024 
L 70.403534 18.12024 
L 67.857938 18.12024 
L 62.698023 26.814607 
L 60.198332 18.12024 
L 56.338332 18.12024 
L 62.698023 37.422862 
L 64.872486 42.630513 
L 66.015105 67.140785 
L 70.403534 81.470349 
L 74.511491 91.651058 
L 78.109046 111.720193 
L 80.039497 116.16133 
L 80.862501 140.671603 
L 78.109046 156.031075 
L 75.819104 165.181875 
L 78.109046 173.667896 
L 81.020629 165.181875 
L 85.814557 156.534629 
L 89.442302 165.181875 
L 93.520068 178.304198 
L 97.908603 189.692148 
L 101.225579 207.911937 
L 105.498631 214.20242 
L 103.310985 238.712693 
L 108.93109 254.242248 
L 113.198521 263.222965 
L 116.636601 283.173364 
L 118.420819 287.733237 
L 121.283085 312.24351 
L 123.344349 312.24351 
z
M 91.169311 116.16133 
L 93.520068 109.926939 
L 94.827972 116.16133 
L 93.520068 127.170372 
z
M 76.606887 91.651058 
L 70.403534 74.942192 
L 68.193711 67.140785 
L 68.440244 42.630513 
L 70.403534 28.974699 
L 72.839244 42.630513 
L 78.109046 62.608686 
L 79.738461 67.140785 
L 83.152053 91.651058 
L 78.109046 100.690681 
z
M 82.811253 67.140785 
L 85.814557 57.574322 
L 87.952443 67.140785 
L 85.814557 85.338003 
z
M 147.458645 312.24351 
L 148.386179 312.24351 
L 147.458645 307.227844 
L 145.412502 287.733237 
L 143.273496 263.222965 
L 140.006427 238.712693 
L 139.753134 237.464533 
L 136.904251 214.20242 
L 134.183866 189.692148 
L 132.047623 176.224939 
L 130.788654 165.181875 
L 127.683925 140.671603 
L 124.760155 116.16133 
L 124.342112 113.963164 
L 121.378035 91.651058 
L 117.979857 67.140785 
L 116.636601 58.633571 
L 115.002654 42.630513 
L 111.459978 18.12024 
L 108.93109 18.12024 
L 108.351311 18.12024 
L 108.93109 20.96926 
L 112.879617 42.630513 
L 115.036806 67.140785 
L 116.636601 75.924752 
L 119.15321 91.651058 
L 122.860304 116.16133 
L 124.342112 132.141693 
L 125.468946 140.671603 
L 129.063374 165.181875 
L 132.039309 189.692148 
L 132.047623 189.778162 
L 135.207477 214.20242 
L 138.476567 238.712692 
L 139.753134 250.122846 
L 141.650631 263.222965 
L 144.026843 287.733237 
L 146.822565 312.24351 
z
M 185.986201 312.24351 
L 186.300354 312.24351 
L 187.244231 287.733237 
L 186.414532 263.222965 
L 185.986201 258.247969 
L 185.385975 238.712693 
L 184.310641 214.20242 
L 182.824276 189.692148 
L 180.673069 165.181875 
L 178.28069 146.729407 
L 177.881747 140.671603 
L 176.172242 116.16133 
L 173.963465 91.651058 
L 170.711187 67.140785 
L 170.575179 66.276573 
L 168.384696 42.630513 
L 165.532116 18.12024 
L 162.869668 18.12024 
L 161.23009 18.12024 
L 162.869668 39.325308 
L 163.415256 42.630513 
L 166.805307 67.140785 
L 169.491075 91.651058 
L 170.575179 102.186383 
L 172.463311 116.16133 
L 174.983713 140.671603 
L 176.94676 165.181875 
L 178.28069 184.155753 
L 178.982551 189.692148 
L 181.397765 214.20242 
L 183.00509 238.712692 
L 184.091188 263.222965 
L 184.634212 287.733237 
L 184.578853 312.24351 
z
M 85.814557 194.164798 
L 87.116225 189.692148 
L 85.814557 185.664489 
L 84.674121 189.692148 
z
M 47.287001 44.618677 
L 48.801446 42.630513 
L 47.287001 38.758611 
L 46.789001 42.630513 
z
M 42.427664 18.12024 
L 39.58149 18.12024 
L 39.58149 22.4138 
z
" clip-path="url(#p8da1ac7ad1)" style="fill: #1fa188"/>
    <path d="M 108.93109 303.013097 
L 112.108233 312.24351 
L 114.863031 312.24351 
L 116.636601 299.85883 
L 118.845599 312.24351 
L 121.283085 312.24351 
L 118.420819 287.733237 
L 116.636601 283.173364 
L 113.198521 263.222965 
L 108.93109 254.242248 
L 103.310985 238.712693 
L 105.498631 214.20242 
L 101.225579 207.911937 
L 97.908603 189.692148 
L 93.520068 178.304198 
L 89.442302 165.181875 
L 85.814557 156.534629 
L 81.020629 165.181875 
L 78.109046 173.667896 
L 75.819104 165.181875 
L 78.109046 156.031075 
L 80.862501 140.671603 
L 80.039497 116.16133 
L 78.109046 111.720193 
L 74.511491 91.651058 
L 70.403534 81.470349 
L 66.015105 67.140785 
L 64.872486 42.630513 
L 62.698023 37.422862 
L 56.338332 18.12024 
L 54.992512 18.12024 
L 47.287001 18.12024 
L 42.427664 18.12024 
L 39.58149 22.4138 
L 39.58149 33.03066 
L 43.486388 42.630513 
L 47.287001 56.087061 
L 51.729013 67.140785 
L 54.992512 78.901114 
L 59.910983 91.651058 
L 62.698023 102.010453 
L 67.676416 91.651058 
L 70.403534 87.998505 
L 72.026091 91.651058 
L 70.403534 106.489551 
L 68.801689 116.16133 
L 70.403534 121.591163 
L 77.777491 140.671603 
L 70.403534 164.840233 
L 62.842454 140.671603 
L 62.698023 140.256097 
L 55.167965 116.16133 
L 54.992512 115.734284 
L 47.467294 91.651058 
L 47.287001 91.198891 
L 39.772314 67.140785 
L 39.58149 66.659382 
L 39.58149 67.140785 
L 39.58149 91.651058 
L 39.58149 92.520604 
L 47.287001 114.161067 
L 48.111291 116.16133 
L 54.992512 136.926912 
L 56.496429 140.671603 
L 62.698023 159.609937 
L 64.878666 165.181875 
L 70.403534 184.120209 
L 72.4964 189.692148 
L 78.109046 208.87274 
L 80.160626 214.20242 
L 85.814557 232.708896 
L 88.107363 238.712693 
L 93.520068 254.49778 
L 96.522817 263.222965 
L 101.225579 278.84551 
L 104.208924 287.733237 
z
M 107.475265 287.733237 
L 101.225579 266.551019 
L 100.352985 263.222965 
L 101.225579 254.660622 
L 108.93109 262.90271 
L 109.109133 263.222965 
L 112.68343 287.733237 
L 108.93109 293.030346 
z
M 93.119033 238.712693 
L 93.520068 236.416915 
L 95.108469 238.712693 
L 93.520068 240.113492 
z
M 85.515485 214.20242 
L 85.814557 212.917361 
L 86.502811 214.20242 
L 85.814557 215.389283 
z
M 77.933062 189.692148 
L 78.109046 189.081061 
L 78.42836 189.692148 
L 78.109046 190.423602 
z
M 84.674121 189.692148 
L 85.814557 185.664489 
L 87.116225 189.692148 
L 85.814557 194.164798 
z
M 91.509906 189.692148 
L 93.520068 185.51591 
L 95.300754 189.692148 
L 93.520068 199.021485 
z
M 85.087806 165.181875 
L 85.814557 163.663828 
L 86.526782 165.181875 
L 85.814557 168.777653 
z
M 61.444772 67.140785 
L 62.698023 59.247754 
L 63.411657 67.140785 
L 62.698023 73.004179 
z
M 46.789001 42.630513 
L 47.287001 38.758611 
L 48.801446 42.630513 
L 47.287001 44.618677 
z
M 147.458645 307.227844 
L 148.386179 312.24351 
L 150.314251 312.24351 
L 147.458645 295.620452 
L 146.668082 287.733237 
L 144.720712 263.222965 
L 142.169251 238.712693 
L 139.753134 225.787581 
L 138.409939 214.20242 
L 136.035119 189.692148 
L 132.578192 165.181875 
L 132.047623 162.539942 
L 129.583897 140.671603 
L 127.120267 116.16133 
L 124.342112 100.178862 
L 123.285243 91.651058 
L 120.452678 67.140785 
L 117.026401 42.630513 
L 116.636601 40.500997 
L 114.055541 18.12024 
L 111.459978 18.12024 
L 115.002654 42.630513 
L 116.636601 58.633571 
L 117.979857 67.140785 
L 121.378035 91.651058 
L 124.342112 113.963164 
L 124.760155 116.16133 
L 127.683925 140.671603 
L 130.788654 165.181875 
L 132.047623 176.224939 
L 134.183866 189.692148 
L 136.904251 214.20242 
L 139.753134 237.464533 
L 140.006427 238.712693 
L 143.273496 263.222965 
L 145.412502 287.733237 
z
M 184.634212 287.733237 
L 184.091188 263.222965 
L 183.00509 238.712693 
L 181.397765 214.20242 
L 178.982551 189.692148 
L 178.28069 184.155753 
L 176.94676 165.181875 
L 174.983713 140.671603 
L 172.463311 116.16133 
L 170.575179 102.186383 
L 169.491075 91.651058 
L 166.805307 67.140785 
L 163.415256 42.630513 
L 162.869668 39.325308 
L 161.23009 18.12024 
L 157.755753 18.12024 
L 160.014399 42.630513 
L 162.142282 67.140785 
L 162.869668 75.672694 
L 165.249684 91.651058 
L 168.32632 116.16133 
L 170.575179 135.406516 
L 171.279763 140.671603 
L 173.976931 165.181875 
L 176.101338 189.692148 
L 177.930182 214.20242 
L 178.28069 219.499185 
L 180.107096 238.712693 
L 181.696284 263.222965 
L 182.627202 287.733237 
L 182.902831 312.24351 
L 184.578853 312.24351 
z
M 93.520068 127.170372 
L 94.827972 116.16133 
L 93.520068 109.926939 
L 91.169311 116.16133 
z
M 85.814557 85.338003 
L 87.952443 67.140785 
L 85.814557 57.574322 
L 82.811253 67.140785 
z
M 85.308696 67.140785 
L 85.814557 65.375509 
L 86.235613 67.140785 
L 85.814557 70.498674 
z
M 78.109046 52.404793 
L 81.196781 42.630513 
L 82.070055 18.12024 
L 80.021882 18.12024 
L 78.109046 41.412845 
L 75.848809 18.12024 
L 72.378073 18.12024 
L 75.787641 42.630513 
z
" clip-path="url(#p8da1ac7ad1)" style="fill: #2ab07f"/>
    <path d="M 108.93109 293.030346 
L 112.68343 287.733237 
L 109.109133 263.222965 
L 108.93109 262.90271 
L 101.225579 254.660622 
L 100.352985 263.222965 
L 101.225579 266.551019 
L 107.475265 287.733237 
z
M 116.636601 312.24351 
L 118.845599 312.24351 
L 116.636601 299.85883 
L 114.863031 312.24351 
z
M 147.458645 295.620452 
L 150.314251 312.24351 
L 151.999251 312.24351 
L 148.467288 287.733237 
L 147.458645 282.61648 
L 146.026616 263.222965 
L 144.03074 238.712693 
L 139.781649 214.20242 
L 139.753134 214.072819 
L 137.661175 189.692148 
L 135.13682 165.181875 
L 132.047623 148.22025 
L 131.247405 140.671603 
L 129.125967 116.16133 
L 125.699654 91.651058 
L 124.342112 84.879724 
L 122.539133 67.140785 
L 120.013411 42.630513 
L 116.636601 21.951178 
L 116.228627 18.12024 
L 114.055541 18.12024 
L 116.636601 40.500997 
L 117.026401 42.630513 
L 120.452678 67.140785 
L 123.285243 91.651058 
L 124.342112 100.178862 
L 127.120267 116.16133 
L 129.583897 140.671603 
L 132.047623 162.539942 
L 132.578192 165.181875 
L 136.035119 189.692148 
L 138.409939 214.20242 
L 139.753134 225.787581 
L 142.169251 238.712693 
L 144.720712 263.222965 
L 146.668082 287.733238 
z
M 182.627202 287.733237 
L 181.696284 263.222965 
L 180.107096 238.712693 
L 178.28069 219.499185 
L 177.930182 214.20242 
L 176.101338 189.692148 
L 173.976931 165.181875 
L 171.279763 140.671603 
L 170.575179 135.406516 
L 168.32632 116.16133 
L 165.249684 91.651058 
L 162.869668 75.672694 
L 162.142282 67.140785 
L 160.014399 42.630513 
L 157.755753 18.12024 
L 155.164157 18.12024 
L 153.48697 18.12024 
L 155.164157 35.5539 
L 155.966733 42.630513 
L 158.480058 67.140785 
L 160.833725 91.651058 
L 162.869668 113.248327 
L 163.336927 116.16133 
L 166.860469 140.671603 
L 170.146723 165.181875 
L 170.575179 168.490213 
L 172.964337 189.692148 
L 175.234698 214.20242 
L 177.117922 238.712693 
L 178.28069 257.329661 
L 178.777466 263.222965 
L 180.265274 287.733237 
L 180.98651 312.24351 
L 182.902831 312.24351 
z
M 93.520068 240.113492 
L 95.108469 238.712693 
L 93.520068 236.416915 
L 93.119033 238.712693 
z
M 85.814557 215.389283 
L 86.502811 214.20242 
L 85.814557 212.917361 
L 85.515485 214.20242 
z
M 78.109046 190.423602 
L 78.42836 189.692148 
L 78.109046 189.081061 
L 77.933062 189.692148 
z
M 93.520068 199.021485 
L 95.300754 189.692148 
L 93.520068 185.51591 
L 91.509906 189.692147 
z
M 85.814557 168.777653 
L 86.526782 165.181875 
L 85.814557 163.663828 
L 85.087806 165.181875 
z
M 70.403534 164.840233 
L 77.777491 140.671603 
L 70.403534 121.591163 
L 68.801689 116.16133 
L 70.403534 106.489551 
L 72.026091 91.651058 
L 70.403534 87.998505 
L 67.676416 91.651058 
L 62.698023 102.010453 
L 59.910983 91.651058 
L 54.992512 78.901114 
L 51.729013 67.140785 
L 47.287001 56.087061 
L 43.486388 42.630513 
L 39.58149 33.03066 
L 39.58149 42.630513 
L 39.58149 66.659382 
L 39.772314 67.140785 
L 47.287001 91.198891 
L 47.467294 91.651058 
L 54.992512 115.734284 
L 55.167965 116.16133 
L 62.698023 140.256097 
L 62.842454 140.671603 
z
M 69.070277 140.671603 
L 70.403534 136.480112 
L 72.406537 140.671603 
L 70.403534 145.98084 
z
M 62.418354 116.16133 
L 62.698023 115.481275 
L 63.064597 116.16133 
L 62.698023 117.319262 
z
M 54.870216 91.651058 
L 54.992512 91.381414 
L 55.117627 91.651058 
L 54.992512 92.160385 
z
M 62.698023 73.004179 
L 63.411657 67.140785 
L 62.698023 59.247754 
L 61.444772 67.140785 
z
M 85.814557 70.498674 
L 86.235613 67.140785 
L 85.814557 65.375509 
L 85.308696 67.140785 
z
M 78.109046 41.412845 
L 80.021882 18.12024 
L 78.109046 18.12024 
L 75.848809 18.12024 
z
" clip-path="url(#p8da1ac7ad1)" style="fill: #44bf70"/>
    <path d="M 151.199833 287.733237 
L 147.458645 266.651593 
L 147.216366 263.222965 
L 145.664685 238.712693 
L 142.988527 214.20242 
L 139.753134 197.585933 
L 139.110927 189.692148 
L 137.283981 165.181875 
L 134.057783 140.671603 
L 132.047623 131.216253 
L 130.869931 116.16133 
L 128.717706 91.651058 
L 124.348435 67.140785 
L 124.342112 67.113828 
L 122.453969 42.630513 
L 120.043174 18.12024 
L 116.636601 18.12024 
L 116.228627 18.12024 
L 116.636601 21.951178 
L 120.013411 42.630513 
L 122.539133 67.140785 
L 124.342112 84.879724 
L 125.699654 91.651058 
L 129.125967 116.16133 
L 131.247405 140.671603 
L 132.047623 148.22025 
L 135.13682 165.181875 
L 137.661175 189.692148 
L 139.753134 214.072819 
L 139.781649 214.20242 
L 144.03074 238.712693 
L 146.026616 263.222965 
L 147.458645 282.61648 
L 148.467288 287.733237 
L 151.999251 312.24351 
L 153.495664 312.24351 
z
M 178.28069 302.486949 
L 178.749265 312.24351 
L 180.98651 312.24351 
L 180.265274 287.733237 
L 178.777466 263.222965 
L 178.28069 257.329661 
L 177.117922 238.712693 
L 175.234698 214.20242 
L 172.964337 189.692148 
L 170.575179 168.490213 
L 170.146723 165.181875 
L 166.860469 140.671603 
L 163.336927 116.16133 
L 162.869668 113.248327 
L 160.833725 91.651058 
L 158.480058 67.140785 
L 155.966733 42.630513 
L 155.164157 35.5539 
L 153.48697 18.12024 
L 148.151403 18.12024 
L 150.860356 42.630513 
L 153.553874 67.140785 
L 155.164157 82.400738 
L 156.216239 91.651058 
L 158.868838 116.16133 
L 161.462362 140.671603 
L 162.869668 154.614346 
L 164.650128 165.181875 
L 168.546945 189.692148 
L 170.575179 203.056305 
L 171.855958 214.20242 
L 174.262067 238.712693 
L 176.166443 263.222965 
L 177.627115 287.733237 
z
M 70.403534 145.98084 
L 72.406537 140.671603 
L 70.403534 136.480112 
L 69.070277 140.671603 
z
M 62.698023 117.319262 
L 63.064597 116.16133 
L 62.698023 115.481275 
L 62.418354 116.16133 
z
M 54.992512 92.160385 
L 55.117627 91.651058 
L 54.992512 91.381414 
L 54.870216 91.651058 
z
" clip-path="url(#p8da1ac7ad1)" style="fill: #67cc5c"/>
    <path d="M 153.468021 287.733237 
L 150.989366 263.222965 
L 147.458645 244.596956 
L 147.120704 238.712693 
L 145.573682 214.20242 
L 142.716297 189.692148 
L 139.753134 175.306841 
L 139.133862 165.181875 
L 137.517041 140.671603 
L 134.127513 116.16133 
L 132.047623 106.789939 
L 131.178918 91.651058 
L 129.522471 67.140785 
L 125.547275 42.630513 
L 124.342112 37.420855 
L 123.380708 18.12024 
L 120.043174 18.12024 
L 122.453969 42.630513 
L 124.342112 67.113828 
L 124.348435 67.140785 
L 128.717706 91.651058 
L 130.869931 116.16133 
L 132.047623 131.216253 
L 134.057783 140.671603 
L 137.283981 165.181875 
L 139.110927 189.692148 
L 139.753134 197.585933 
L 142.988527 214.20242 
L 145.664685 238.712693 
L 147.216366 263.222965 
L 147.458645 266.651593 
L 151.199833 287.733237 
L 153.495664 312.24351 
L 154.841485 312.24351 
z
M 178.28069 312.24351 
L 178.749265 312.24351 
L 178.28069 302.486949 
L 177.627115 287.733237 
L 176.166443 263.222965 
L 174.262067 238.712693 
L 171.855958 214.20242 
L 170.575179 203.056305 
L 168.546945 189.692148 
L 164.650128 165.181875 
L 162.869668 154.614346 
L 161.462362 140.671603 
L 158.868838 116.16133 
L 156.216239 91.651058 
L 155.164157 82.400738 
L 153.553874 67.140785 
L 150.860356 42.630513 
L 148.151403 18.12024 
L 147.458645 18.12024 
L 139.753134 18.12024 
L 139.662414 18.12024 
L 139.753134 18.802343 
L 143.077373 42.630513 
L 146.298392 67.140785 
L 147.458645 76.125701 
L 149.580628 91.651058 
L 152.727341 116.16133 
L 155.164157 135.512397 
L 155.84834 140.671603 
L 158.931747 165.181875 
L 161.819871 189.692148 
L 162.869668 198.289881 
L 166.061036 214.20242 
L 170.575179 238.276535 
L 170.626901 238.712693 
L 173.159625 263.222965 
L 175.052293 287.733237 
L 176.388688 312.24351 
z
" clip-path="url(#p8da1ac7ad1)" style="fill: #90d743"/>
    <path d="M 155.164157 312.24351 
L 160.286281 312.24351 
L 157.312881 287.733237 
L 155.164157 278.97054 
L 154.45239 263.222965 
L 153.172156 238.712693 
L 150.956641 214.20242 
L 147.458645 200.838641 
L 147.037275 189.692148 
L 146.695352 165.181875 
L 147.458645 153.975303 
L 149.092295 165.181875 
L 152.904313 189.692148 
L 155.164157 195.139569 
L 157.620666 214.20242 
L 161.03738 238.712692 
L 162.869668 248.027915 
L 166.779324 263.222965 
L 170.575179 274.764464 
L 171.861326 287.733237 
L 173.613805 312.24351 
L 176.388688 312.24351 
L 175.052293 287.733237 
L 173.159625 263.222965 
L 170.626901 238.712693 
L 170.575179 238.276535 
L 166.061036 214.20242 
L 162.869668 198.289881 
L 161.819871 189.692148 
L 158.931747 165.181875 
L 155.84834 140.671603 
L 155.164157 135.512397 
L 152.727341 116.16133 
L 149.580628 91.651058 
L 147.458645 76.125701 
L 146.298392 67.140785 
L 143.077373 42.630513 
L 139.753134 18.802343 
L 139.662414 18.12024 
L 132.047623 18.12024 
L 124.342112 18.12024 
L 123.380708 18.12024 
L 124.342112 37.420855 
L 125.547275 42.630513 
L 129.522471 67.140785 
L 131.178918 91.651058 
L 132.047623 106.789939 
L 134.127513 116.16133 
L 137.517041 140.671603 
L 139.133862 165.181875 
L 139.753134 175.306841 
L 142.716297 189.692148 
L 145.573682 214.20242 
L 147.120704 238.712693 
L 147.458645 244.596956 
L 150.989366 263.222965 
L 153.468021 287.733237 
L 154.841485 312.24351 
z
" clip-path="url(#p8da1ac7ad1)" style="fill: #bddf26"/>
    <path d="M 162.869668 312.24351 
L 170.575179 312.24351 
L 173.613805 312.24351 
L 171.861326 287.733237 
L 170.575179 274.764464 
L 166.779324 263.222965 
L 162.869668 248.027915 
L 161.03738 238.712693 
L 157.620666 214.20242 
L 155.164157 195.139569 
L 152.904313 189.692148 
L 149.092295 165.181875 
L 147.458645 153.975303 
L 146.695352 165.181875 
L 147.037275 189.692148 
L 147.458645 200.838641 
L 150.956641 214.20242 
L 153.172156 238.712693 
L 154.45239 263.222965 
L 155.164157 278.97054 
L 157.312881 287.733237 
L 160.286281 312.24351 
z
" clip-path="url(#p8da1ac7ad1)" style="fill: #eae51a"/>
   </g>
   <g id="PathCollection_1">
    <defs>
     <path id="mdc0741d33a" d="M -3 3 
L 3 -3 
M -3 -3 
L 3 3 
" style="stroke: #ff0000; stroke-width: 1.5"/>
    </defs>
    <g clip-path="url(#p8da1ac7ad1)">
     <use xlink:href="#mdc0741d33a" x="170.575179" y="312.24351" style="fill: #ff0000; stroke: #ff0000; stroke-width: 1.5"/>
     <use xlink:href="#mdc0741d33a" x="162.869668" y="287.733237" style="fill: #ff0000; stroke: #ff0000; stroke-width: 1.5"/>
     <use xlink:href="#mdc0741d33a" x="155.164157" y="263.222965" style="fill: #ff0000; stroke: #ff0000; stroke-width: 1.5"/>
     <use xlink:href="#mdc0741d33a" x="155.164157" y="238.712693" style="fill: #ff0000; stroke: #ff0000; stroke-width: 1.5"/>
     <use xlink:href="#mdc0741d33a" x="155.164157" y="214.20242" style="fill: #ff0000; stroke: #ff0000; stroke-width: 1.5"/>
     <use xlink:href="#mdc0741d33a" x="147.458645" y="189.692148" style="fill: #ff0000; stroke: #ff0000; stroke-width: 1.5"/>
     <use xlink:href="#mdc0741d33a" x="147.458645" y="165.181875" style="fill: #ff0000; stroke: #ff0000; stroke-width: 1.5"/>
     <use xlink:href="#mdc0741d33a" x="147.458645" y="140.671603" style="fill: #ff0000; stroke: #ff0000; stroke-width: 1.5"/>
     <use xlink:href="#mdc0741d33a" x="139.753134" y="116.16133" style="fill: #ff0000; stroke: #ff0000; stroke-width: 1.5"/>
     <use xlink:href="#mdc0741d33a" x="139.753134" y="91.651058" style="fill: #ff0000; stroke: #ff0000; stroke-width: 1.5"/>
     <use xlink:href="#mdc0741d33a" x="132.047623" y="67.140785" style="fill: #ff0000; stroke: #ff0000; stroke-width: 1.5"/>
     <use xlink:href="#mdc0741d33a" x="132.047623" y="42.630513" style="fill: #ff0000; stroke: #ff0000; stroke-width: 1.5"/>
     <use xlink:href="#mdc0741d33a" x="132.047623" y="18.12024" style="fill: #ff0000; stroke: #ff0000; stroke-width: 1.5"/>
    </g>
   </g>
   <g id="matplotlib.axis_1">
    <g id="xtick_1">
     <g id="line2d_1">
      <defs>
       <path id="m38f3b05bbe" d="M 0 0 
L 0 3.5 
" style="stroke: #000000; stroke-width: 0.8"/>
      </defs>
      <g>
       <use xlink:href="#m38f3b05bbe" x="39.58149" y="312.24351" style="stroke: #000000; stroke-width: 0.8"/>
      </g>
     </g>
     <g id="text_1">
      <!-- $\mathdefault{10^{-5}}$ -->
      <g transform="translate(27.83149 326.841947) scale(0.1 -0.1)">
       <defs>
        <path id="DejaVuSans-31" d="M 794 531 
L 1825 531 
L 1825 4091 
L 703 3866 
L 703 4441 
L 1819 4666 
L 2450 4666 
L 2450 531 
L 3481 531 
L 3481 0 
L 794 0 
L 794 531 
z
" transform="scale(0.015625)"/>
        <path id="DejaVuSans-30" d="M 2034 4250 
Q 1547 4250 1301 3770 
Q 1056 3291 1056 2328 
Q 1056 1369 1301 889 
Q 1547 409 2034 409 
Q 2525 409 2770 889 
Q 3016 1369 3016 2328 
Q 3016 3291 2770 3770 
Q 2525 4250 2034 4250 
z
M 2034 4750 
Q 2819 4750 3233 4129 
Q 3647 3509 3647 2328 
Q 3647 1150 3233 529 
Q 2819 -91 2034 -91 
Q 1250 -91 836 529 
Q 422 1150 422 2328 
Q 422 3509 836 4129 
Q 1250 4750 2034 4750 
z
" transform="scale(0.015625)"/>
        <path id="DejaVuSans-2212" d="M 678 2272 
L 4684 2272 
L 4684 1741 
L 678 1741 
L 678 2272 
z
" transform="scale(0.015625)"/>
        <path id="DejaVuSans-35" d="M 691 4666 
L 3169 4666 
L 3169 4134 
L 1269 4134 
L 1269 2991 
Q 1406 3038 1543 3061 
Q 1681 3084 1819 3084 
Q 2600 3084 3056 2656 
Q 3513 2228 3513 1497 
Q 3513 744 3044 326 
Q 2575 -91 1722 -91 
Q 1428 -91 1123 -41 
Q 819 9 494 109 
L 494 744 
Q 775 591 1075 516 
Q 1375 441 1709 441 
Q 2250 441 2565 725 
Q 2881 1009 2881 1497 
Q 2881 1984 2565 2268 
Q 2250 2553 1709 2553 
Q 1456 2553 1204 2497 
Q 953 2441 691 2322 
L 691 4666 
z
" transform="scale(0.015625)"/>
       </defs>
       <use xlink:href="#DejaVuSans-31" transform="translate(0 0.684375)"/>
       <use xlink:href="#DejaVuSans-30" transform="translate(63.623047 0.684375)"/>
       <use xlink:href="#DejaVuSans-2212" transform="translate(128.203125 38.965625) scale(0.7)"/>
       <use xlink:href="#DejaVuSans-35" transform="translate(186.855469 38.965625) scale(0.7)"/>
      </g>
     </g>
    </g>
    <g id="xtick_2">
     <g id="line2d_2">
      <g>
       <use xlink:href="#m38f3b05bbe" x="101.225579" y="312.24351" style="stroke: #000000; stroke-width: 0.8"/>
      </g>
     </g>
     <g id="text_2">
      <!-- $\mathdefault{10^{-3}}$ -->
      <g transform="translate(89.475579 326.841947) scale(0.1 -0.1)">
       <defs>
        <path id="DejaVuSans-33" d="M 2597 2516 
Q 3050 2419 3304 2112 
Q 3559 1806 3559 1356 
Q 3559 666 3084 287 
Q 2609 -91 1734 -91 
Q 1441 -91 1130 -33 
Q 819 25 488 141 
L 488 750 
Q 750 597 1062 519 
Q 1375 441 1716 441 
Q 2309 441 2620 675 
Q 2931 909 2931 1356 
Q 2931 1769 2642 2001 
Q 2353 2234 1838 2234 
L 1294 2234 
L 1294 2753 
L 1863 2753 
Q 2328 2753 2575 2939 
Q 2822 3125 2822 3475 
Q 2822 3834 2567 4026 
Q 2313 4219 1838 4219 
Q 1578 4219 1281 4162 
Q 984 4106 628 3988 
L 628 4550 
Q 988 4650 1302 4700 
Q 1616 4750 1894 4750 
Q 2613 4750 3031 4423 
Q 3450 4097 3450 3541 
Q 3450 3153 3228 2886 
Q 3006 2619 2597 2516 
z
" transform="scale(0.015625)"/>
       </defs>
       <use xlink:href="#DejaVuSans-31" transform="translate(0 0.765625)"/>
       <use xlink:href="#DejaVuSans-30" transform="translate(63.623047 0.765625)"/>
       <use xlink:href="#DejaVuSans-2212" transform="translate(128.203125 39.046875) scale(0.7)"/>
       <use xlink:href="#DejaVuSans-33" transform="translate(186.855469 39.046875) scale(0.7)"/>
      </g>
     </g>
    </g>
    <g id="xtick_3">
     <g id="line2d_3">
      <g>
       <use xlink:href="#m38f3b05bbe" x="162.869668" y="312.24351" style="stroke: #000000; stroke-width: 0.8"/>
      </g>
     </g>
     <g id="text_3">
      <!-- $\mathdefault{10^{-1}}$ -->
      <g transform="translate(151.119668 326.841947) scale(0.1 -0.1)">
       <use xlink:href="#DejaVuSans-31" transform="translate(0 0.684375)"/>
       <use xlink:href="#DejaVuSans-30" transform="translate(63.623047 0.684375)"/>
       <use xlink:href="#DejaVuSans-2212" transform="translate(128.203125 38.965625) scale(0.7)"/>
       <use xlink:href="#DejaVuSans-31" transform="translate(186.855469 38.965625) scale(0.7)"/>
      </g>
     </g>
    </g>
    <g id="xtick_4">
     <g id="line2d_4">
      <g>
       <use xlink:href="#m38f3b05bbe" x="224.513757" y="312.24351" style="stroke: #000000; stroke-width: 0.8"/>
      </g>
     </g>
     <g id="text_4">
      <!-- $\mathdefault{10^{1}}$ -->
      <g transform="translate(215.713757 326.841947) scale(0.1 -0.1)">
       <use xlink:href="#DejaVuSans-31" transform="translate(0 0.684375)"/>
       <use xlink:href="#DejaVuSans-30" transform="translate(63.623047 0.684375)"/>
       <use xlink:href="#DejaVuSans-31" transform="translate(128.203125 38.965625) scale(0.7)"/>
      </g>
     </g>
    </g>
    <g id="xtick_5">
     <g id="line2d_5">
      <g>
       <use xlink:href="#m38f3b05bbe" x="286.157845" y="312.24351" style="stroke: #000000; stroke-width: 0.8"/>
      </g>
     </g>
     <g id="text_5">
      <!-- $\mathdefault{10^{3}}$ -->
      <g transform="translate(277.357845 326.841947) scale(0.1 -0.1)">
       <use xlink:href="#DejaVuSans-31" transform="translate(0 0.765625)"/>
       <use xlink:href="#DejaVuSans-30" transform="translate(63.623047 0.765625)"/>
       <use xlink:href="#DejaVuSans-33" transform="translate(128.203125 39.046875) scale(0.7)"/>
      </g>
     </g>
    </g>
    <g id="xtick_6">
     <g id="line2d_6">
      <g>
       <use xlink:href="#m38f3b05bbe" x="347.801934" y="312.24351" style="stroke: #000000; stroke-width: 0.8"/>
      </g>
     </g>
     <g id="text_6">
      <!-- $\mathdefault{10^{5}}$ -->
      <g transform="translate(339.001934 326.841947) scale(0.1 -0.1)">
       <use xlink:href="#DejaVuSans-31" transform="translate(0 0.684375)"/>
       <use xlink:href="#DejaVuSans-30" transform="translate(63.623047 0.684375)"/>
       <use xlink:href="#DejaVuSans-35" transform="translate(128.203125 38.965625) scale(0.7)"/>
      </g>
     </g>
    </g>
    <g id="text_7">
     <!-- $h$ -->
     <g transform="translate(205.902734 340.520072) scale(0.1 -0.1)">
      <defs>
       <path id="DejaVuSans-Oblique-68" d="M 3566 2113 
L 3156 0 
L 2578 0 
L 2988 2091 
Q 3016 2238 3031 2350 
Q 3047 2463 3047 2528 
Q 3047 2791 2881 2937 
Q 2716 3084 2419 3084 
Q 1956 3084 1617 2771 
Q 1278 2459 1178 1941 
L 800 0 
L 225 0 
L 1172 4863 
L 1747 4863 
L 1375 2950 
Q 1594 3244 1934 3414 
Q 2275 3584 2650 3584 
Q 3113 3584 3367 3334 
Q 3622 3084 3622 2631 
Q 3622 2519 3608 2391 
Q 3594 2263 3566 2113 
z
" transform="scale(0.015625)"/>
      </defs>
      <use xlink:href="#DejaVuSans-Oblique-68" transform="translate(0 0.015625)"/>
     </g>
    </g>
   </g>
   <g id="matplotlib.axis_2">
    <g id="ytick_1">
     <g id="line2d_7">
      <defs>
       <path id="mbd2f377c6c" d="M 0 0 
L -3.5 0 
" style="stroke: #000000; stroke-width: 0.8"/>
      </defs>
      <g>
       <use xlink:href="#mbd2f377c6c" x="39.58149" y="312.24351" style="stroke: #000000; stroke-width: 0.8"/>
      </g>
     </g>
     <g id="text_8">
      <!-- 1.0 -->
      <g transform="translate(16.678365 316.042729) scale(0.1 -0.1)">
       <defs>
        <path id="DejaVuSans-2e" d="M 684 794 
L 1344 794 
L 1344 0 
L 684 0 
L 684 794 
z
" transform="scale(0.015625)"/>
       </defs>
       <use xlink:href="#DejaVuSans-31"/>
       <use xlink:href="#DejaVuSans-2e" transform="translate(63.623047 0)"/>
       <use xlink:href="#DejaVuSans-30" transform="translate(95.410156 0)"/>
      </g>
     </g>
    </g>
    <g id="ytick_2">
     <g id="line2d_8">
      <g>
       <use xlink:href="#mbd2f377c6c" x="39.58149" y="263.222965" style="stroke: #000000; stroke-width: 0.8"/>
      </g>
     </g>
     <g id="text_9">
      <!-- 1.5 -->
      <g transform="translate(16.678365 267.022184) scale(0.1 -0.1)">
       <use xlink:href="#DejaVuSans-31"/>
       <use xlink:href="#DejaVuSans-2e" transform="translate(63.623047 0)"/>
       <use xlink:href="#DejaVuSans-35" transform="translate(95.410156 0)"/>
      </g>
     </g>
    </g>
    <g id="ytick_3">
     <g id="line2d_9">
      <g>
       <use xlink:href="#mbd2f377c6c" x="39.58149" y="214.20242" style="stroke: #000000; stroke-width: 0.8"/>
      </g>
     </g>
     <g id="text_10">
      <!-- 2.0 -->
      <g transform="translate(16.678365 218.001639) scale(0.1 -0.1)">
       <defs>
        <path id="DejaVuSans-32" d="M 1228 531 
L 3431 531 
L 3431 0 
L 469 0 
L 469 531 
Q 828 903 1448 1529 
Q 2069 2156 2228 2338 
Q 2531 2678 2651 2914 
Q 2772 3150 2772 3378 
Q 2772 3750 2511 3984 
Q 2250 4219 1831 4219 
Q 1534 4219 1204 4116 
Q 875 4013 500 3803 
L 500 4441 
Q 881 4594 1212 4672 
Q 1544 4750 1819 4750 
Q 2544 4750 2975 4387 
Q 3406 4025 3406 3419 
Q 3406 3131 3298 2873 
Q 3191 2616 2906 2266 
Q 2828 2175 2409 1742 
Q 1991 1309 1228 531 
z
" transform="scale(0.015625)"/>
       </defs>
       <use xlink:href="#DejaVuSans-32"/>
       <use xlink:href="#DejaVuSans-2e" transform="translate(63.623047 0)"/>
       <use xlink:href="#DejaVuSans-30" transform="translate(95.410156 0)"/>
      </g>
     </g>
    </g>
    <g id="ytick_4">
     <g id="line2d_10">
      <g>
       <use xlink:href="#mbd2f377c6c" x="39.58149" y="165.181875" style="stroke: #000000; stroke-width: 0.8"/>
      </g>
     </g>
     <g id="text_11">
      <!-- 2.5 -->
      <g transform="translate(16.678365 168.981094) scale(0.1 -0.1)">
       <use xlink:href="#DejaVuSans-32"/>
       <use xlink:href="#DejaVuSans-2e" transform="translate(63.623047 0)"/>
       <use xlink:href="#DejaVuSans-35" transform="translate(95.410156 0)"/>
      </g>
     </g>
    </g>
    <g id="ytick_5">
     <g id="line2d_11">
      <g>
       <use xlink:href="#mbd2f377c6c" x="39.58149" y="116.16133" style="stroke: #000000; stroke-width: 0.8"/>
      </g>
     </g>
     <g id="text_12">
      <!-- 3.0 -->
      <g transform="translate(16.678365 119.960549) scale(0.1 -0.1)">
       <use xlink:href="#DejaVuSans-33"/>
       <use xlink:href="#DejaVuSans-2e" transform="translate(63.623047 0)"/>
       <use xlink:href="#DejaVuSans-30" transform="translate(95.410156 0)"/>
      </g>
     </g>
    </g>
    <g id="ytick_6">
     <g id="line2d_12">
      <g>
       <use xlink:href="#mbd2f377c6c" x="39.58149" y="67.140785" style="stroke: #000000; stroke-width: 0.8"/>
      </g>
     </g>
     <g id="text_13">
      <!-- 3.5 -->
      <g transform="translate(16.678365 70.940004) scale(0.1 -0.1)">
       <use xlink:href="#DejaVuSans-33"/>
       <use xlink:href="#DejaVuSans-2e" transform="translate(63.623047 0)"/>
       <use xlink:href="#DejaVuSans-35" transform="translate(95.410156 0)"/>
      </g>
     </g>
    </g>
    <g id="ytick_7">
     <g id="line2d_13">
      <g>
       <use xlink:href="#mbd2f377c6c" x="39.58149" y="18.12024" style="stroke: #000000; stroke-width: 0.8"/>
      </g>
     </g>
     <g id="text_14">
      <!-- 4.0 -->
      <g transform="translate(16.678365 21.919459) scale(0.1 -0.1)">
       <defs>
        <path id="DejaVuSans-34" d="M 2419 4116 
L 825 1625 
L 2419 1625 
L 2419 4116 
z
M 2253 4666 
L 3047 4666 
L 3047 1625 
L 3713 1625 
L 3713 1100 
L 3047 1100 
L 3047 0 
L 2419 0 
L 2419 1100 
L 313 1100 
L 313 1709 
L 2253 4666 
z
" transform="scale(0.015625)"/>
       </defs>
       <use xlink:href="#DejaVuSans-34"/>
       <use xlink:href="#DejaVuSans-2e" transform="translate(63.623047 0)"/>
       <use xlink:href="#DejaVuSans-30" transform="translate(95.410156 0)"/>
      </g>
     </g>
    </g>
    <g id="text_15">
     <!-- $\alpha$ -->
     <g transform="translate(10.598677 168.481875) rotate(-90) scale(0.1 -0.1)">
      <defs>
       <path id="DejaVuSans-Oblique-3b1" d="M 2619 1628 
L 2622 2350 
Q 2625 3088 2069 3091 
Q 1653 3094 1394 2747 
Q 1069 2319 959 1747 
Q 825 1059 994 731 
Q 1169 397 1547 397 
Q 1966 397 2319 1063 
L 2619 1628 
z
M 2166 3578 
Q 3141 3594 3128 2584 
Q 3128 2584 3616 3500 
L 4128 3500 
L 3119 1603 
L 3109 919 
Q 3109 766 3194 638 
Q 3291 488 3391 488 
L 3669 488 
L 3575 0 
L 3228 0 
Q 2934 0 2722 263 
Q 2622 394 2619 669 
Q 2416 334 2066 50 
Q 1900 -81 1453 -78 
Q 722 -72 456 397 
Q 184 884 353 1747 
Q 534 2675 1009 3097 
Q 1544 3569 2166 3578 
z
" transform="scale(0.015625)"/>
      </defs>
      <use xlink:href="#DejaVuSans-Oblique-3b1" transform="translate(0 0.84375)"/>
     </g>
    </g>
   </g>
   <g id="patch_3">
    <path d="M 39.58149 312.24351 
L 39.58149 18.12024 
" style="fill: none; stroke: #000000; stroke-width: 0.8; stroke-linejoin: miter; stroke-linecap: square"/>
   </g>
   <g id="patch_4">
    <path d="M 378.623979 312.24351 
L 378.623979 18.12024 
" style="fill: none; stroke: #000000; stroke-width: 0.8; stroke-linejoin: miter; stroke-linecap: square"/>
   </g>
   <g id="patch_5">
    <path d="M 39.58149 312.24351 
L 378.623979 312.24351 
" style="fill: none; stroke: #000000; stroke-width: 0.8; stroke-linejoin: miter; stroke-linecap: square"/>
   </g>
   <g id="patch_6">
    <path d="M 39.58149 18.12024 
L 378.623979 18.12024 
" style="fill: none; stroke: #000000; stroke-width: 0.8; stroke-linejoin: miter; stroke-linecap: square"/>
   </g>
   <g id="text_16">
    <!-- Score para $\alpha$ y $h$ -->
    <g transform="translate(159.542734 12.12024) scale(0.12 -0.12)">
     <defs>
      <path id="DejaVuSans-53" d="M 3425 4513 
L 3425 3897 
Q 3066 4069 2747 4153 
Q 2428 4238 2131 4238 
Q 1616 4238 1336 4038 
Q 1056 3838 1056 3469 
Q 1056 3159 1242 3001 
Q 1428 2844 1947 2747 
L 2328 2669 
Q 3034 2534 3370 2195 
Q 3706 1856 3706 1288 
Q 3706 609 3251 259 
Q 2797 -91 1919 -91 
Q 1588 -91 1214 -16 
Q 841 59 441 206 
L 441 856 
Q 825 641 1194 531 
Q 1563 422 1919 422 
Q 2459 422 2753 634 
Q 3047 847 3047 1241 
Q 3047 1584 2836 1778 
Q 2625 1972 2144 2069 
L 1759 2144 
Q 1053 2284 737 2584 
Q 422 2884 422 3419 
Q 422 4038 858 4394 
Q 1294 4750 2059 4750 
Q 2388 4750 2728 4690 
Q 3069 4631 3425 4513 
z
" transform="scale(0.015625)"/>
      <path id="DejaVuSans-63" d="M 3122 3366 
L 3122 2828 
Q 2878 2963 2633 3030 
Q 2388 3097 2138 3097 
Q 1578 3097 1268 2742 
Q 959 2388 959 1747 
Q 959 1106 1268 751 
Q 1578 397 2138 397 
Q 2388 397 2633 464 
Q 2878 531 3122 666 
L 3122 134 
Q 2881 22 2623 -34 
Q 2366 -91 2075 -91 
Q 1284 -91 818 406 
Q 353 903 353 1747 
Q 353 2603 823 3093 
Q 1294 3584 2113 3584 
Q 2378 3584 2631 3529 
Q 2884 3475 3122 3366 
z
" transform="scale(0.015625)"/>
      <path id="DejaVuSans-6f" d="M 1959 3097 
Q 1497 3097 1228 2736 
Q 959 2375 959 1747 
Q 959 1119 1226 758 
Q 1494 397 1959 397 
Q 2419 397 2687 759 
Q 2956 1122 2956 1747 
Q 2956 2369 2687 2733 
Q 2419 3097 1959 3097 
z
M 1959 3584 
Q 2709 3584 3137 3096 
Q 3566 2609 3566 1747 
Q 3566 888 3137 398 
Q 2709 -91 1959 -91 
Q 1206 -91 779 398 
Q 353 888 353 1747 
Q 353 2609 779 3096 
Q 1206 3584 1959 3584 
z
" transform="scale(0.015625)"/>
      <path id="DejaVuSans-72" d="M 2631 2963 
Q 2534 3019 2420 3045 
Q 2306 3072 2169 3072 
Q 1681 3072 1420 2755 
Q 1159 2438 1159 1844 
L 1159 0 
L 581 0 
L 581 3500 
L 1159 3500 
L 1159 2956 
Q 1341 3275 1631 3429 
Q 1922 3584 2338 3584 
Q 2397 3584 2469 3576 
Q 2541 3569 2628 3553 
L 2631 2963 
z
" transform="scale(0.015625)"/>
      <path id="DejaVuSans-65" d="M 3597 1894 
L 3597 1613 
L 953 1613 
Q 991 1019 1311 708 
Q 1631 397 2203 397 
Q 2534 397 2845 478 
Q 3156 559 3463 722 
L 3463 178 
Q 3153 47 2828 -22 
Q 2503 -91 2169 -91 
Q 1331 -91 842 396 
Q 353 884 353 1716 
Q 353 2575 817 3079 
Q 1281 3584 2069 3584 
Q 2775 3584 3186 3129 
Q 3597 2675 3597 1894 
z
M 3022 2063 
Q 3016 2534 2758 2815 
Q 2500 3097 2075 3097 
Q 1594 3097 1305 2825 
Q 1016 2553 972 2059 
L 3022 2063 
z
" transform="scale(0.015625)"/>
      <path id="DejaVuSans-20" transform="scale(0.015625)"/>
      <path id="DejaVuSans-70" d="M 1159 525 
L 1159 -1331 
L 581 -1331 
L 581 3500 
L 1159 3500 
L 1159 2969 
Q 1341 3281 1617 3432 
Q 1894 3584 2278 3584 
Q 2916 3584 3314 3078 
Q 3713 2572 3713 1747 
Q 3713 922 3314 415 
Q 2916 -91 2278 -91 
Q 1894 -91 1617 61 
Q 1341 213 1159 525 
z
M 3116 1747 
Q 3116 2381 2855 2742 
Q 2594 3103 2138 3103 
Q 1681 3103 1420 2742 
Q 1159 2381 1159 1747 
Q 1159 1113 1420 752 
Q 1681 391 2138 391 
Q 2594 391 2855 752 
Q 3116 1113 3116 1747 
z
" transform="scale(0.015625)"/>
      <path id="DejaVuSans-61" d="M 2194 1759 
Q 1497 1759 1228 1600 
Q 959 1441 959 1056 
Q 959 750 1161 570 
Q 1363 391 1709 391 
Q 2188 391 2477 730 
Q 2766 1069 2766 1631 
L 2766 1759 
L 2194 1759 
z
M 3341 1997 
L 3341 0 
L 2766 0 
L 2766 531 
Q 2569 213 2275 61 
Q 1981 -91 1556 -91 
Q 1019 -91 701 211 
Q 384 513 384 1019 
Q 384 1609 779 1909 
Q 1175 2209 1959 2209 
L 2766 2209 
L 2766 2266 
Q 2766 2663 2505 2880 
Q 2244 3097 1772 3097 
Q 1472 3097 1187 3025 
Q 903 2953 641 2809 
L 641 3341 
Q 956 3463 1253 3523 
Q 1550 3584 1831 3584 
Q 2591 3584 2966 3190 
Q 3341 2797 3341 1997 
z
" transform="scale(0.015625)"/>
      <path id="DejaVuSans-79" d="M 2059 -325 
Q 1816 -950 1584 -1140 
Q 1353 -1331 966 -1331 
L 506 -1331 
L 506 -850 
L 844 -850 
Q 1081 -850 1212 -737 
Q 1344 -625 1503 -206 
L 1606 56 
L 191 3500 
L 800 3500 
L 1894 763 
L 2988 3500 
L 3597 3500 
L 2059 -325 
z
" transform="scale(0.015625)"/>
     </defs>
     <use xlink:href="#DejaVuSans-53" transform="translate(0 0.015625)"/>
     <use xlink:href="#DejaVuSans-63" transform="translate(63.476562 0.015625)"/>
     <use xlink:href="#DejaVuSans-6f" transform="translate(118.457031 0.015625)"/>
     <use xlink:href="#DejaVuSans-72" transform="translate(179.638672 0.015625)"/>
     <use xlink:href="#DejaVuSans-65" transform="translate(220.751953 0.015625)"/>
     <use xlink:href="#DejaVuSans-20" transform="translate(282.275391 0.015625)"/>
     <use xlink:href="#DejaVuSans-70" transform="translate(314.0625 0.015625)"/>
     <use xlink:href="#DejaVuSans-61" transform="translate(377.539062 0.015625)"/>
     <use xlink:href="#DejaVuSans-72" transform="translate(438.818359 0.015625)"/>
     <use xlink:href="#DejaVuSans-61" transform="translate(479.931641 0.015625)"/>
     <use xlink:href="#DejaVuSans-20" transform="translate(541.210938 0.015625)"/>
     <use xlink:href="#DejaVuSans-Oblique-3b1" transform="translate(572.998047 0.015625)"/>
     <use xlink:href="#DejaVuSans-20" transform="translate(638.916016 0.015625)"/>
     <use xlink:href="#DejaVuSans-79" transform="translate(670.703125 0.015625)"/>
     <use xlink:href="#DejaVuSans-20" transform="translate(729.882812 0.015625)"/>
     <use xlink:href="#DejaVuSans-Oblique-68" transform="translate(761.669922 0.015625)"/>
    </g>
   </g>
  </g>
  <g id="axes_2">
   <g id="patch_7">
    <path d="M 395.576103 312.24351 
L 410.282267 312.24351 
L 410.282267 18.12024 
L 395.576103 18.12024 
z
" style="fill: #ffffff"/>
   </g>
   <g id="QuadMesh_1">
    <path d="M 395.576103 312.24351 
L 410.282267 312.24351 
L 410.282267 292.635292 
L 395.576103 292.635292 
L 395.576103 312.24351 
" clip-path="url(#pec8343dbd4)" style="fill: #470d60"/>
    <path d="M 395.576103 292.635292 
L 410.282267 292.635292 
L 410.282267 273.027074 
L 395.576103 273.027074 
L 395.576103 292.635292 
" clip-path="url(#pec8343dbd4)" style="fill: #482475"/>
    <path d="M 395.576103 273.027074 
L 410.282267 273.027074 
L 410.282267 253.418856 
L 395.576103 253.418856 
L 395.576103 273.027074 
" clip-path="url(#pec8343dbd4)" style="fill: #443983"/>
    <path d="M 395.576103 253.418856 
L 410.282267 253.418856 
L 410.282267 233.810638 
L 395.576103 233.810638 
L 395.576103 253.418856 
" clip-path="url(#pec8343dbd4)" style="fill: #3d4d8a"/>
    <path d="M 395.576103 233.810638 
L 410.282267 233.810638 
L 410.282267 214.20242 
L 395.576103 214.20242 
L 395.576103 233.810638 
" clip-path="url(#pec8343dbd4)" style="fill: #355f8d"/>
    <path d="M 395.576103 214.20242 
L 410.282267 214.20242 
L 410.282267 194.594202 
L 395.576103 194.594202 
L 395.576103 214.20242 
" clip-path="url(#pec8343dbd4)" style="fill: #2d708e"/>
    <path d="M 395.576103 194.594202 
L 410.282267 194.594202 
L 410.282267 174.985984 
L 395.576103 174.985984 
L 395.576103 194.594202 
" clip-path="url(#pec8343dbd4)" style="fill: #27808e"/>
    <path d="M 395.576103 174.985984 
L 410.282267 174.985984 
L 410.282267 155.377766 
L 395.576103 155.377766 
L 395.576103 174.985984 
" clip-path="url(#pec8343dbd4)" style="fill: #21918c"/>
    <path d="M 395.576103 155.377766 
L 410.282267 155.377766 
L 410.282267 135.769548 
L 395.576103 135.769548 
L 395.576103 155.377766 
" clip-path="url(#pec8343dbd4)" style="fill: #1fa188"/>
    <path d="M 395.576103 135.769548 
L 410.282267 135.769548 
L 410.282267 116.16133 
L 395.576103 116.16133 
L 395.576103 135.769548 
" clip-path="url(#pec8343dbd4)" style="fill: #2ab07f"/>
    <path d="M 395.576103 116.16133 
L 410.282267 116.16133 
L 410.282267 96.553112 
L 395.576103 96.553112 
L 395.576103 116.16133 
" clip-path="url(#pec8343dbd4)" style="fill: #44bf70"/>
    <path d="M 395.576103 96.553112 
L 410.282267 96.553112 
L 410.282267 76.944894 
L 395.576103 76.944894 
L 395.576103 96.553112 
" clip-path="url(#pec8343dbd4)" style="fill: #67cc5c"/>
    <path d="M 395.576103 76.944894 
L 410.282267 76.944894 
L 410.282267 57.336676 
L 395.576103 57.336676 
L 395.576103 76.944894 
" clip-path="url(#pec8343dbd4)" style="fill: #90d743"/>
    <path d="M 395.576103 57.336676 
L 410.282267 57.336676 
L 410.282267 37.728458 
L 395.576103 37.728458 
L 395.576103 57.336676 
" clip-path="url(#pec8343dbd4)" style="fill: #bddf26"/>
    <path d="M 395.576103 37.728458 
L 410.282267 37.728458 
L 410.282267 18.12024 
L 395.576103 18.12024 
L 395.576103 37.728458 
" clip-path="url(#pec8343dbd4)" style="fill: #eae51a"/>
   </g>
   <g id="matplotlib.axis_3"/>
   <g id="matplotlib.axis_4">
    <g id="ytick_8">
     <g id="line2d_14">
      <defs>
       <path id="m0a27ea52cb" d="M 0 0 
L 3.5 0 
" style="stroke: #000000; stroke-width: 0.8"/>
      </defs>
      <g>
       <use xlink:href="#m0a27ea52cb" x="410.282267" y="292.635292" style="stroke: #000000; stroke-width: 0.8"/>
      </g>
     </g>
     <g id="text_17">
      <!-- -0.96 -->
      <g transform="translate(417.282267 296.434511) scale(0.1 -0.1)">
       <defs>
        <path id="DejaVuSans-2d" d="M 313 2009 
L 1997 2009 
L 1997 1497 
L 313 1497 
L 313 2009 
z
" transform="scale(0.015625)"/>
        <path id="DejaVuSans-39" d="M 703 97 
L 703 672 
Q 941 559 1184 500 
Q 1428 441 1663 441 
Q 2288 441 2617 861 
Q 2947 1281 2994 2138 
Q 2813 1869 2534 1725 
Q 2256 1581 1919 1581 
Q 1219 1581 811 2004 
Q 403 2428 403 3163 
Q 403 3881 828 4315 
Q 1253 4750 1959 4750 
Q 2769 4750 3195 4129 
Q 3622 3509 3622 2328 
Q 3622 1225 3098 567 
Q 2575 -91 1691 -91 
Q 1453 -91 1209 -44 
Q 966 3 703 97 
z
M 1959 2075 
Q 2384 2075 2632 2365 
Q 2881 2656 2881 3163 
Q 2881 3666 2632 3958 
Q 2384 4250 1959 4250 
Q 1534 4250 1286 3958 
Q 1038 3666 1038 3163 
Q 1038 2656 1286 2365 
Q 1534 2075 1959 2075 
z
" transform="scale(0.015625)"/>
        <path id="DejaVuSans-36" d="M 2113 2584 
Q 1688 2584 1439 2293 
Q 1191 2003 1191 1497 
Q 1191 994 1439 701 
Q 1688 409 2113 409 
Q 2538 409 2786 701 
Q 3034 994 3034 1497 
Q 3034 2003 2786 2293 
Q 2538 2584 2113 2584 
z
M 3366 4563 
L 3366 3988 
Q 3128 4100 2886 4159 
Q 2644 4219 2406 4219 
Q 1781 4219 1451 3797 
Q 1122 3375 1075 2522 
Q 1259 2794 1537 2939 
Q 1816 3084 2150 3084 
Q 2853 3084 3261 2657 
Q 3669 2231 3669 1497 
Q 3669 778 3244 343 
Q 2819 -91 2113 -91 
Q 1303 -91 875 529 
Q 447 1150 447 2328 
Q 447 3434 972 4092 
Q 1497 4750 2381 4750 
Q 2619 4750 2861 4703 
Q 3103 4656 3366 4563 
z
" transform="scale(0.015625)"/>
       </defs>
       <use xlink:href="#DejaVuSans-2d"/>
       <use xlink:href="#DejaVuSans-30" transform="translate(36.083984 0)"/>
       <use xlink:href="#DejaVuSans-2e" transform="translate(99.707031 0)"/>
       <use xlink:href="#DejaVuSans-39" transform="translate(131.494141 0)"/>
       <use xlink:href="#DejaVuSans-36" transform="translate(195.117188 0)"/>
      </g>
     </g>
    </g>
    <g id="ytick_9">
     <g id="line2d_15">
      <g>
       <use xlink:href="#m0a27ea52cb" x="410.282267" y="253.418856" style="stroke: #000000; stroke-width: 0.8"/>
      </g>
     </g>
     <g id="text_18">
      <!-- -0.84 -->
      <g transform="translate(417.282267 257.218075) scale(0.1 -0.1)">
       <defs>
        <path id="DejaVuSans-38" d="M 2034 2216 
Q 1584 2216 1326 1975 
Q 1069 1734 1069 1313 
Q 1069 891 1326 650 
Q 1584 409 2034 409 
Q 2484 409 2743 651 
Q 3003 894 3003 1313 
Q 3003 1734 2745 1975 
Q 2488 2216 2034 2216 
z
M 1403 2484 
Q 997 2584 770 2862 
Q 544 3141 544 3541 
Q 544 4100 942 4425 
Q 1341 4750 2034 4750 
Q 2731 4750 3128 4425 
Q 3525 4100 3525 3541 
Q 3525 3141 3298 2862 
Q 3072 2584 2669 2484 
Q 3125 2378 3379 2068 
Q 3634 1759 3634 1313 
Q 3634 634 3220 271 
Q 2806 -91 2034 -91 
Q 1263 -91 848 271 
Q 434 634 434 1313 
Q 434 1759 690 2068 
Q 947 2378 1403 2484 
z
M 1172 3481 
Q 1172 3119 1398 2916 
Q 1625 2713 2034 2713 
Q 2441 2713 2670 2916 
Q 2900 3119 2900 3481 
Q 2900 3844 2670 4047 
Q 2441 4250 2034 4250 
Q 1625 4250 1398 4047 
Q 1172 3844 1172 3481 
z
" transform="scale(0.015625)"/>
       </defs>
       <use xlink:href="#DejaVuSans-2d"/>
       <use xlink:href="#DejaVuSans-30" transform="translate(36.083984 0)"/>
       <use xlink:href="#DejaVuSans-2e" transform="translate(99.707031 0)"/>
       <use xlink:href="#DejaVuSans-38" transform="translate(131.494141 0)"/>
       <use xlink:href="#DejaVuSans-34" transform="translate(195.117188 0)"/>
      </g>
     </g>
    </g>
    <g id="ytick_10">
     <g id="line2d_16">
      <g>
       <use xlink:href="#m0a27ea52cb" x="410.282267" y="214.20242" style="stroke: #000000; stroke-width: 0.8"/>
      </g>
     </g>
     <g id="text_19">
      <!-- -0.72 -->
      <g transform="translate(417.282267 218.001639) scale(0.1 -0.1)">
       <defs>
        <path id="DejaVuSans-37" d="M 525 4666 
L 3525 4666 
L 3525 4397 
L 1831 0 
L 1172 0 
L 2766 4134 
L 525 4134 
L 525 4666 
z
" transform="scale(0.015625)"/>
       </defs>
       <use xlink:href="#DejaVuSans-2d"/>
       <use xlink:href="#DejaVuSans-30" transform="translate(36.083984 0)"/>
       <use xlink:href="#DejaVuSans-2e" transform="translate(99.707031 0)"/>
       <use xlink:href="#DejaVuSans-37" transform="translate(131.494141 0)"/>
       <use xlink:href="#DejaVuSans-32" transform="translate(195.117188 0)"/>
      </g>
     </g>
    </g>
    <g id="ytick_11">
     <g id="line2d_17">
      <g>
       <use xlink:href="#m0a27ea52cb" x="410.282267" y="174.985984" style="stroke: #000000; stroke-width: 0.8"/>
      </g>
     </g>
     <g id="text_20">
      <!-- -0.60 -->
      <g transform="translate(417.282267 178.785203) scale(0.1 -0.1)">
       <use xlink:href="#DejaVuSans-2d"/>
       <use xlink:href="#DejaVuSans-30" transform="translate(36.083984 0)"/>
       <use xlink:href="#DejaVuSans-2e" transform="translate(99.707031 0)"/>
       <use xlink:href="#DejaVuSans-36" transform="translate(131.494141 0)"/>
       <use xlink:href="#DejaVuSans-30" transform="translate(195.117188 0)"/>
      </g>
     </g>
    </g>
    <g id="ytick_12">
     <g id="line2d_18">
      <g>
       <use xlink:href="#m0a27ea52cb" x="410.282267" y="135.769548" style="stroke: #000000; stroke-width: 0.8"/>
      </g>
     </g>
     <g id="text_21">
      <!-- -0.48 -->
      <g transform="translate(417.282267 139.568767) scale(0.1 -0.1)">
       <use xlink:href="#DejaVuSans-2d"/>
       <use xlink:href="#DejaVuSans-30" transform="translate(36.083984 0)"/>
       <use xlink:href="#DejaVuSans-2e" transform="translate(99.707031 0)"/>
       <use xlink:href="#DejaVuSans-34" transform="translate(131.494141 0)"/>
       <use xlink:href="#DejaVuSans-38" transform="translate(195.117188 0)"/>
      </g>
     </g>
    </g>
    <g id="ytick_13">
     <g id="line2d_19">
      <g>
       <use xlink:href="#m0a27ea52cb" x="410.282267" y="96.553112" style="stroke: #000000; stroke-width: 0.8"/>
      </g>
     </g>
     <g id="text_22">
      <!-- -0.36 -->
      <g transform="translate(417.282267 100.352331) scale(0.1 -0.1)">
       <use xlink:href="#DejaVuSans-2d"/>
       <use xlink:href="#DejaVuSans-30" transform="translate(36.083984 0)"/>
       <use xlink:href="#DejaVuSans-2e" transform="translate(99.707031 0)"/>
       <use xlink:href="#DejaVuSans-33" transform="translate(131.494141 0)"/>
       <use xlink:href="#DejaVuSans-36" transform="translate(195.117188 0)"/>
      </g>
     </g>
    </g>
    <g id="ytick_14">
     <g id="line2d_20">
      <g>
       <use xlink:href="#m0a27ea52cb" x="410.282267" y="57.336676" style="stroke: #000000; stroke-width: 0.8"/>
      </g>
     </g>
     <g id="text_23">
      <!-- -0.24 -->
      <g transform="translate(417.282267 61.135895) scale(0.1 -0.1)">
       <use xlink:href="#DejaVuSans-2d"/>
       <use xlink:href="#DejaVuSans-30" transform="translate(36.083984 0)"/>
       <use xlink:href="#DejaVuSans-2e" transform="translate(99.707031 0)"/>
       <use xlink:href="#DejaVuSans-32" transform="translate(131.494141 0)"/>
       <use xlink:href="#DejaVuSans-34" transform="translate(195.117188 0)"/>
      </g>
     </g>
    </g>
    <g id="ytick_15">
     <g id="line2d_21">
      <g>
       <use xlink:href="#m0a27ea52cb" x="410.282267" y="18.12024" style="stroke: #000000; stroke-width: 0.8"/>
      </g>
     </g>
     <g id="text_24">
      <!-- -0.12 -->
      <g transform="translate(417.282267 21.919459) scale(0.1 -0.1)">
       <use xlink:href="#DejaVuSans-2d"/>
       <use xlink:href="#DejaVuSans-30" transform="translate(36.083984 0)"/>
       <use xlink:href="#DejaVuSans-2e" transform="translate(99.707031 0)"/>
       <use xlink:href="#DejaVuSans-31" transform="translate(131.494141 0)"/>
       <use xlink:href="#DejaVuSans-32" transform="translate(195.117188 0)"/>
      </g>
     </g>
    </g>
    <g id="text_25">
     <!-- Score -->
     <g transform="translate(454.754142 179.184219) rotate(-90) scale(0.1 -0.1)">
      <use xlink:href="#DejaVuSans-53"/>
      <use xlink:href="#DejaVuSans-63" transform="translate(63.476562 0)"/>
      <use xlink:href="#DejaVuSans-6f" transform="translate(118.457031 0)"/>
      <use xlink:href="#DejaVuSans-72" transform="translate(179.638672 0)"/>
      <use xlink:href="#DejaVuSans-65" transform="translate(218.501953 0)"/>
     </g>
    </g>
   </g>
   <g id="LineCollection_1"/>
   <g id="patch_8">
    <path d="M 395.576103 312.24351 
L 402.929185 312.24351 
L 410.282267 312.24351 
L 410.282267 18.12024 
L 402.929185 18.12024 
L 395.576103 18.12024 
L 395.576103 312.24351 
z
" style="fill: none; stroke: #000000; stroke-width: 0.8; stroke-linejoin: miter; stroke-linecap: square"/>
   </g>
  </g>
 </g>
 <defs>
  <clipPath id="p8da1ac7ad1">
   <rect x="39.58149" y="18.12024" width="339.042489" height="294.12327"/>
  </clipPath>
  <clipPath id="pec8343dbd4">
   <rect x="395.576103" y="18.12024" width="14.706164" height="294.12327"/>
  </clipPath>
 </defs>
</svg>
