<?xml version="1.0" encoding="utf-8" standalone="no"?>
<!DOCTYPE svg PUBLIC "-//W3C//DTD SVG 1.1//EN"
  "http://www.w3.org/Graphics/SVG/1.1/DTD/svg11.dtd">
<svg xmlns:xlink="http://www.w3.org/1999/xlink" width="468.233584pt" height="353.99952pt" viewBox="0 0 468.233584 353.99952" xmlns="http://www.w3.org/2000/svg" version="1.1">
 <metadata>
  <rdf:RDF xmlns:dc="http://purl.org/dc/elements/1.1/" xmlns:cc="http://creativecommons.org/ns#" xmlns:rdf="http://www.w3.org/1999/02/22-rdf-syntax-ns#">
   <cc:Work>
    <dc:type rdf:resource="http://purl.org/dc/dcmitype/StillImage"/>
    <dc:date>1970-01-01T00:00:00+00:00</dc:date>
    <dc:format>image/svg+xml</dc:format>
    <dc:creator>
     <cc:Agent>
      <dc:title>Matplotlib v3.10.7, https://matplotlib.org/</dc:title>
     </cc:Agent>
    </dc:creator>
   </cc:Work>
  </rdf:RDF>
 </metadata>
 <defs>
  <style type="text/css">*{stroke-linejoin: round; stroke-linecap: butt}</style>
 </defs>
 <g id="figure_1">
  <g id="patch_1">
   <path d="M 0 353.99952 
L 468.233584 353.99952 
L 468.233584 0 
L 0 0 
z
" style="fill: #ffffff"/>
  </g>
  <g id="axes_1">
   <g id="patch_2">
    <path d="M 43.78125 316.44327 
L 382.823645 316.44327 
L 382.823645 22.318125 
L 43.78125 22.318125 
z
" style="fill: #ffffff"/>
   </g>
   <g id="QuadContourSet_1">
    <path d="M 43.78125 268.713147 
L 55.084535 267.422412 
L 43.78125 262.80048 
L 41.825135 267.422412 
z
" clip-path="url(#p9b3f57cb40)" style="fill: #470d60"/>
    <path d="M 92.215878 316.44327 
L 116.531692 316.44327 
L 92.215878 299.324778 
L 86.747091 316.44327 
z
M 43.78125 272.094786 
L 79.037855 267.422412 
L 43.78125 250.691324 
L 36.473571 267.422412 
z
M 41.825135 267.422412 
L 43.78125 262.80048 
L 55.084535 267.422412 
L 43.78125 268.713147 
z
M -4.653378 222.758256 
L 10.863017 218.401555 
L -4.653378 207.664654 
L -9.18038 218.401555 
z
M -53.088006 170.287095 
L -50.926993 169.380697 
L -53.088006 168.093692 
L -53.564621 169.380697 
z
" clip-path="url(#p9b3f57cb40)" style="fill: #482475"/>
    <path d="M 92.215878 299.324778 
L 116.531692 316.44327 
L 136.896381 316.44327 
L 104.105958 291.932841 
L 96.900615 267.422412 
L 92.215878 263.375288 
L 54.987072 242.911984 
L 43.78125 238.140199 
L 39.806016 242.911984 
L 30.758369 267.422412 
L 43.78125 275.476424 
L 88.047041 291.932841 
L 80.344589 316.44327 
L 86.747091 316.44327 
z
M 36.473571 267.422412 
L 43.78125 250.691324 
L 79.037855 267.422412 
L 43.78125 272.094786 
z
M -4.653378 227.754733 
L 25.720935 218.401555 
L -4.653378 195.351056 
L -14.69095 218.401555 
z
M -9.18038 218.401555 
L -4.653378 207.664654 
L 10.863017 218.401555 
L -4.653378 222.758256 
z
M -53.088006 180.202753 
L -30.327862 169.380697 
L -53.088006 154.014321 
L -58.962946 169.380697 
z
M -53.564621 169.380697 
L -53.088006 168.093692 
L -50.926993 169.380697 
L -53.088006 170.287095 
z
M -101.522634 122.442793 
L -94.826352 120.35984 
L -101.522634 116.294814 
L -102.557266 120.35984 
z
" clip-path="url(#p9b3f57cb40)" style="fill: #443983"/>
    <path d="M 88.047041 291.932841 
L 43.78125 275.476424 
L 30.758369 267.422412 
L 39.806016 242.911984 
L 43.78125 238.140199 
L 54.987072 242.911984 
L 92.215878 263.375288 
L 96.900615 267.422412 
L 104.105958 291.932841 
L 136.896381 316.44327 
L 140.650506 316.44327 
L 149.769854 316.44327 
L 140.650506 307.98112 
L 120.706117 291.932841 
L 110.224572 267.422412 
L 92.215878 250.5529 
L 80.158532 242.911984 
L 43.78125 224.794991 
L 38.344734 218.401555 
L 38.46426 193.891126 
L -4.653378 179.720397 
L -13.793055 169.380697 
L -41.456418 144.870269 
L -53.088006 136.485187 
L -62.181137 144.870269 
L -64.731514 169.380697 
L -53.088006 190.118411 
L -35.351836 193.891126 
L -20.587876 218.401555 
L -4.653378 232.751209 
L 27.574156 242.911984 
L 24.626485 267.422412 
L 43.78125 278.858063 
L 80.658746 291.932841 
L 73.414472 316.44327 
L 80.344589 316.44327 
z
M -14.69095 218.401555 
L -4.653378 195.351056 
L 25.720935 218.401555 
L -4.653378 227.754733 
z
M -58.962946 169.380697 
L -53.088006 154.014321 
L -30.327862 169.380697 
L -53.088006 180.202753 
z
M -101.522634 132.888193 
L -67.50539 120.35984 
L -101.522634 95.909898 
L -107.94665 120.35984 
z
M -102.557266 120.35984 
L -101.522634 116.294814 
L -94.826352 120.35984 
L -101.522634 122.442793 
z
" clip-path="url(#p9b3f57cb40)" style="fill: #3d4d8a"/>
    <path d="M 80.658746 291.932841 
L 43.78125 278.858063 
L 24.626485 267.422412 
L 27.574156 242.911984 
L -4.653378 232.751209 
L -20.587876 218.401555 
L -35.351836 193.891126 
L -53.088006 190.118411 
L -64.731514 169.380697 
L -62.181137 144.870269 
L -53.088006 136.485187 
L -41.456418 144.870269 
L -13.793055 169.380697 
L -4.653378 179.720397 
L 38.46426 193.891126 
L 38.344734 218.401555 
L 43.78125 224.794991 
L 80.158532 242.911984 
L 92.215878 250.5529 
L 110.224572 267.422412 
L 120.706117 291.932841 
L 140.650506 307.98112 
L 149.769854 316.44327 
L 160.082443 316.44327 
L 140.650506 297.238907 
L 134.564668 291.932841 
L 121.724213 267.422412 
L 98.158881 242.911984 
L 92.215878 237.553008 
L 59.563433 218.401555 
L 57.179779 193.891126 
L 43.78125 181.511756 
L 12.912692 169.380697 
L -4.653378 159.048107 
L -15.071179 144.870269 
L -25.584468 120.35984 
L -53.088006 110.047044 
L -65.370344 95.849411 
L -89.166101 71.338982 
L -101.522634 57.849886 
L -112.273577 46.828554 
L -134.19387 22.318125 
L -149.957261 22.318125 
L -157.553563 22.318125 
L -160.981196 46.828554 
L -151.882751 71.338982 
L -149.957261 75.920804 
L -119.787695 95.849411 
L -113.705009 120.35984 
L -101.522634 143.333593 
L -95.324126 144.870269 
L -70.924874 169.380697 
L -60.972933 193.891126 
L -53.088006 197.656323 
L -26.929447 218.401555 
L -4.653378 237.747685 
L 13.25657 242.911984 
L 18.012349 267.422412 
L 43.78125 282.239701 
L 72.558683 291.932841 
L 65.861909 316.44327 
L 73.414472 316.44327 
z
M -107.94665 120.35984 
L -101.522634 95.909898 
L -67.50539 120.35984 
L -101.522634 132.888193 
z
" clip-path="url(#p9b3f57cb40)" style="fill: #355f8d"/>
    <path d="M -440.565028 316.44327 
L -392.130401 316.44327 
L -343.695773 316.44327 
L -295.261145 316.44327 
L -246.826517 316.44327 
L -198.391889 316.44327 
L -149.957261 316.44327 
L -113.27276 316.44327 
L -149.957261 308.10403 
L -183.040699 291.932841 
L -198.391889 287.51483 
L -246.826517 273.748539 
L -262.447371 267.422412 
L -295.261145 257.933362 
L -321.536088 242.911984 
L -343.695773 236.084148 
L -392.130401 222.57165 
L -401.218586 218.401555 
L -440.565028 205.818078 
L -460.715294 193.891126 
L -488.999656 186.380507 
L -488.999656 193.891126 
L -488.999656 218.401555 
L -488.999656 242.911984 
L -488.999656 267.422412 
L -488.999656 291.932841 
L -488.999656 316.44327 
z
M 72.558683 291.932841 
L 43.78125 282.239701 
L 18.012349 267.422412 
L 13.25657 242.911984 
L -4.653378 237.747685 
L -26.929447 218.401555 
L -53.088006 197.656323 
L -60.972933 193.891126 
L -70.924874 169.380697 
L -95.324126 144.870269 
L -101.522634 143.333593 
L -113.705009 120.35984 
L -119.787695 95.849411 
L -149.957261 75.920804 
L -151.882751 71.338982 
L -160.981196 46.828554 
L -157.553563 22.318125 
L -178.774459 22.318125 
L -176.882182 46.828554 
L -159.012945 71.338982 
L -149.957261 92.003096 
L -143.229896 95.849411 
L -119.886602 120.35984 
L -114.052232 144.870269 
L -101.522634 150.308361 
L -77.610597 169.380697 
L -75.500922 193.891126 
L -53.088006 203.733932 
L -33.788226 218.401555 
L -4.653378 242.744161 
L -4.007268 242.911984 
L 10.833582 267.422412 
L 43.78125 285.62134 
L 63.594949 291.932841 
L 57.563952 316.44327 
L 65.861909 316.44327 
z
M 140.650506 297.238907 
L 160.082443 316.44327 
L 169.267952 316.44327 
L 146.809995 291.932841 
L 140.650506 283.555792 
L 131.839472 267.422412 
L 111.280016 242.911984 
L 92.215878 224.291359 
L 83.452161 218.401555 
L 70.523125 193.891126 
L 46.385161 169.380697 
L 43.78125 167.08164 
L 10.170232 144.870269 
L 6.997678 120.35984 
L -4.653378 110.824989 
L -33.13591 95.849411 
L -53.088006 82.650433 
L -63.07233 71.338982 
L -70.435074 46.828554 
L -101.522634 27.306501 
L -105.698114 22.318125 
L -134.19387 22.318125 
L -112.273577 46.828554 
L -101.522634 57.849886 
L -89.166101 71.338982 
L -65.370344 95.849411 
L -53.088006 110.047044 
L -25.584468 120.35984 
L -15.071179 144.870269 
L -4.653378 159.048107 
L 12.912692 169.380697 
L 43.78125 181.511756 
L 57.179779 193.891126 
L 59.563433 218.401555 
L 92.215878 237.553008 
L 98.158881 242.911984 
L 121.724213 267.422412 
L 134.564668 291.932841 
z
M 528.127528 316.44327 
L 576.562156 316.44327 
L 624.996784 316.44327 
L 673.431412 316.44327 
L 721.86604 316.44327 
L 770.300668 316.44327 
L 818.735295 316.44327 
L 867.169923 316.44327 
L 915.604551 316.44327 
L 964.039179 316.44327 
L 1012.473807 316.44327 
L 1060.908435 316.44327 
L 1109.343062 316.44327 
L 1157.77769 316.44327 
L 1206.212318 316.44327 
L 1254.646946 316.44327 
L 1303.081574 316.44327 
L 1351.516202 316.44327 
L 1399.950829 316.44327 
L 1448.385457 316.44327 
L 1496.820085 316.44327 
L 1545.254713 316.44327 
L 1593.689341 316.44327 
L 1642.123969 316.44327 
L 1642.123969 291.932841 
L 1642.123969 267.422412 
L 1642.123969 242.911984 
L 1642.123969 218.401555 
L 1642.123969 193.891126 
L 1642.123969 169.380697 
L 1642.123969 144.870269 
L 1642.123969 120.35984 
L 1642.123969 95.849411 
L 1642.123969 71.338982 
L 1642.123969 46.828554 
L 1642.123969 22.318125 
L 1593.689341 22.318125 
L 1545.254713 22.318125 
L 1496.820085 22.318125 
L 1448.385457 22.318125 
L 1399.950829 22.318125 
L 1351.516202 22.318125 
L 1303.081574 22.318125 
L 1254.646946 22.318125 
L 1206.212318 22.318125 
L 1157.77769 22.318125 
L 1109.343062 22.318125 
L 1060.908435 22.318125 
L 1012.473807 22.318125 
L 964.039179 22.318125 
L 915.604551 22.318125 
L 867.169923 22.318125 
L 818.735295 22.318125 
L 770.300668 22.318125 
L 721.86604 22.318125 
L 673.431412 22.318125 
L 624.996784 22.318125 
L 576.562156 22.318125 
L 528.127528 22.318125 
L 479.692901 22.318125 
L 431.258273 22.318125 
L 382.823645 22.318125 
L 374.688749 22.318125 
L 382.823645 41.234096 
L 388.93173 46.828554 
L 409.145041 71.338982 
L 422.105047 95.849411 
L 431.172867 120.35984 
L 431.258273 120.620457 
L 456.060372 144.870269 
L 469.542461 169.380697 
L 477.857728 193.891126 
L 479.692901 201.033063 
L 496.876913 218.401555 
L 507.648189 242.911984 
L 512.976178 267.422412 
L 514.180119 291.932841 
L 499.175874 316.44327 
z
" clip-path="url(#p9b3f57cb40)" style="fill: #2d708e"/>
    <path d="M -149.957261 308.10403 
L -113.27276 316.44327 
L -101.522634 316.44327 
L -76.144622 316.44327 
L -101.522634 306.389232 
L -133.542974 291.932841 
L -149.957261 285.568093 
L -190.712741 267.422412 
L -198.391889 264.836106 
L -246.826517 243.866979 
L -248.599486 242.911984 
L -295.261145 226.022918 
L -310.340379 218.401555 
L -343.695773 208.187128 
L -374.973411 193.891126 
L -392.130401 188.161446 
L -432.703293 169.380697 
L -440.565028 166.5746 
L -488.999656 146.259353 
L -488.999656 169.380697 
L -488.999656 186.380507 
L -460.715294 193.891126 
L -440.565028 205.818078 
L -401.218586 218.401555 
L -392.130401 222.57165 
L -343.695773 236.084148 
L -321.536088 242.911984 
L -295.261145 257.933362 
L -262.447371 267.422412 
L -246.826517 273.748539 
L -198.391889 287.51483 
L -183.040699 291.932841 
z
M 63.594949 291.932841 
L 43.78125 285.62134 
L 10.833582 267.422412 
L -4.007268 242.911984 
L -4.653378 242.744161 
L -33.788226 218.401555 
L -53.088006 203.733932 
L -75.500922 193.891126 
L -77.610597 169.380697 
L -101.522634 150.308361 
L -114.052232 144.870269 
L -119.886602 120.35984 
L -143.229896 95.849411 
L -149.957261 92.003096 
L -159.012945 71.338982 
L -176.882182 46.828554 
L -178.774459 22.318125 
L -198.391889 22.318125 
L -200.911357 22.318125 
L -198.391889 41.072268 
L -196.505244 46.828554 
L -166.803785 71.338982 
L -162.900388 95.849411 
L -149.957261 100.88594 
L -126.558614 120.35984 
L -131.602824 144.870269 
L -101.522634 156.684476 
L -84.873783 169.380697 
L -93.071946 193.891126 
L -53.088006 209.811541 
L -41.256132 218.401555 
L -42.269502 242.911984 
L -4.653378 255.688398 
L 2.984705 267.422412 
L 43.78125 289.002978 
L 53.56114 291.932841 
L 48.357195 316.44327 
L 57.563952 316.44327 
z
M 157.797113 291.932841 
L 140.967174 267.422412 
L 140.650506 267.098058 
L 122.628335 242.911984 
L 99.861474 218.401555 
L 92.215878 209.675306 
L 82.037197 193.891126 
L 61.005639 169.380697 
L 43.78125 152.764156 
L 33.307865 144.870269 
L 21.848412 120.35984 
L -4.653378 96.591576 
L -5.859437 95.849411 
L -37.776429 71.338982 
L -44.136451 46.828554 
L -53.088006 39.741347 
L -78.334684 22.318125 
L -101.522634 22.318125 
L -105.698114 22.318125 
L -101.522634 27.306501 
L -70.435074 46.828554 
L -63.07233 71.338982 
L -53.088006 82.650433 
L -33.13591 95.849411 
L -4.653378 110.824989 
L 6.997678 120.35984 
L 10.170232 144.870269 
L 43.78125 167.08164 
L 46.385161 169.380697 
L 70.523125 193.891126 
L 83.452161 218.401555 
L 92.215878 224.291359 
L 111.280016 242.911984 
L 131.839472 267.422412 
L 140.650506 283.555792 
L 146.809995 291.932841 
L 169.267952 316.44327 
L 177.548648 316.44327 
z
M 479.692901 316.44327 
L 499.175874 316.44327 
L 514.180119 291.932841 
L 512.976178 267.422412 
L 507.648189 242.911984 
L 496.876913 218.401555 
L 479.692901 201.033063 
L 477.857728 193.891126 
L 469.542461 169.380697 
L 456.060372 144.870269 
L 431.258273 120.620457 
L 431.172867 120.35984 
L 422.105047 95.849411 
L 409.145041 71.338982 
L 388.93173 46.828554 
L 382.823645 41.234096 
L 374.688749 22.318125 
L 334.389017 22.318125 
L 332.161754 22.318125 
L 334.389017 26.617648 
L 352.833367 46.828554 
L 368.371032 71.338982 
L 379.326648 95.849411 
L 382.823645 104.916966 
L 396.529588 120.35984 
L 412.335166 144.870269 
L 422.846399 169.380697 
L 430.124024 193.891126 
L 431.258273 198.205999 
L 447.034188 218.401555 
L 458.461086 242.911984 
L 464.594705 267.422412 
L 466.202077 291.932841 
L 461.544497 316.44327 
z
M -198.391889 146.474908 
L -185.635865 144.870269 
L -198.391889 135.791579 
L -201.065831 144.870269 
z
M -295.261145 72.612241 
L -279.769712 71.338982 
L -295.261145 62.143228 
L -297.377301 71.338982 
z
" clip-path="url(#p9b3f57cb40)" style="fill: #27808e"/>
    <path d="M -101.522634 306.389232 
L -76.144622 316.44327 
L -54.513382 316.44327 
L -101.522634 295.069501 
L -107.509111 291.932841 
L -149.957261 272.545711 
L -159.61097 267.422412 
L -198.391889 251.575704 
L -214.761702 242.911984 
L -246.826517 228.806709 
L -268.218973 218.401555 
L -295.261145 206.46402 
L -328.524718 193.891126 
L -343.695773 187.668518 
L -392.130401 169.71219 
L -392.700507 169.380697 
L -440.565028 147.426406 
L -445.167795 144.870269 
L -488.999656 124.860107 
L -488.999656 144.870269 
L -488.999656 146.259353 
L -440.565028 166.5746 
L -432.703293 169.380697 
L -392.130401 188.161446 
L -374.973411 193.891126 
L -343.695773 208.187128 
L -310.340379 218.401555 
L -295.261145 226.022918 
L -248.599486 242.911984 
L -246.826517 243.866979 
L -198.391889 264.836106 
L -190.712741 267.422412 
L -149.957261 285.568093 
L -133.542974 291.932841 
z
M 43.78125 316.44327 
L 48.357195 316.44327 
L 53.56114 291.932841 
L 43.78125 289.002978 
L 2.984705 267.422412 
L -4.653378 255.688398 
L -42.269502 242.911984 
L -41.256132 218.401555 
L -53.088006 209.811541 
L -93.071946 193.891126 
L -84.873783 169.380697 
L -101.522634 156.684476 
L -131.602824 144.870269 
L -126.558614 120.35984 
L -149.957261 100.88594 
L -162.900388 95.849411 
L -166.803785 71.338982 
L -196.505244 46.828554 
L -198.391889 41.072268 
L -200.911357 22.318125 
L -210.765505 22.318125 
L -211.028461 46.828554 
L -198.391889 53.971223 
L -175.390316 71.338982 
L -183.65113 95.849411 
L -149.957261 107.505674 
L -133.805619 120.35984 
L -149.957261 143.058457 
L -183.913912 120.35984 
L -198.391889 107.664129 
L -210.474367 120.35984 
L -214.0954 144.870269 
L -198.391889 153.604152 
L -160.549195 169.380697 
L -149.957261 175.291347 
L -124.566081 169.380697 
L -101.522634 163.06059 
L -92.823696 169.380697 
L -101.522634 184.759776 
L -108.658743 193.891126 
L -101.522634 200.641411 
L -53.088006 215.88915 
L -49.451995 218.401555 
L -53.088006 226.799347 
L -66.92617 242.911984 
L -53.088006 249.781121 
L -6.602051 267.422412 
L -4.653378 269.438844 
L 40.159651 291.932841 
L 37.5096 316.44327 
z
M -201.065831 144.870269 
L -198.391889 135.791579 
L -185.635865 144.870269 
L -198.391889 146.474908 
z
M 167.51381 291.932841 
L 152.577622 267.422412 
L 140.650506 254.32221 
L 132.626368 242.911984 
L 112.077812 218.401555 
L 92.215878 193.977142 
L 92.163617 193.891126 
L 73.457742 169.380697 
L 50.864203 144.870269 
L 43.78125 136.340305 
L 34.467029 120.35984 
L 11.165301 95.849411 
L -4.653378 80.123006 
L -14.709229 71.338982 
L -28.268699 46.828554 
L -53.088006 25.167163 
L -56.732328 22.318125 
L -78.334684 22.318125 
L -53.088006 39.741347 
L -44.136451 46.828554 
L -37.776429 71.338982 
L -5.859437 95.849411 
L -4.653378 96.591576 
L 21.848412 120.35984 
L 33.307865 144.870269 
L 43.78125 152.764156 
L 61.005639 169.380697 
L 82.037197 193.891126 
L 92.215878 209.675306 
L 99.861474 218.401555 
L 122.628335 242.911984 
L 140.650506 267.098058 
L 140.967174 267.422412 
L 157.797113 291.932841 
L 177.548648 316.44327 
L 185.086912 316.44327 
z
M 466.202077 291.932841 
L 464.594705 267.422412 
L 458.461086 242.911984 
L 447.034188 218.401555 
L 431.258273 198.205999 
L 430.124024 193.891126 
L 422.846399 169.380697 
L 412.335166 144.870269 
L 396.529588 120.35984 
L 382.823645 104.916966 
L 379.326648 95.849411 
L 368.371032 71.338982 
L 352.833367 46.828554 
L 334.389017 26.617648 
L 332.161754 22.318125 
L 302.689774 22.318125 
L 320.62027 46.828554 
L 334.389017 70.474765 
L 335.243927 71.338982 
L 355.686808 95.849411 
L 369.570546 120.35984 
L 380.316004 144.870269 
L 382.823645 150.928112 
L 397.861452 169.380697 
L 411.383321 193.891126 
L 420.726181 218.401555 
L 427.485422 242.911984 
L 431.258273 262.447384 
L 433.95064 267.422412 
L 439.165887 291.932841 
L 433.232948 316.44327 
L 461.544497 316.44327 
z
M -246.826517 104.889092 
L -215.127623 95.849411 
L -236.584482 71.338982 
L -246.826517 66.806854 
L -279.950973 46.828554 
L -295.261145 33.172653 
L -307.601826 46.828554 
L -309.151458 71.338982 
L -295.261145 79.140439 
L -256.268651 95.849411 
z
M -297.377301 71.338982 
L -295.261145 62.143228 
L -279.769712 71.338982 
L -295.261145 72.612241 
z
M -343.695773 31.012547 
L -311.262032 22.318125 
L -343.695773 22.318125 
L -359.408111 22.318125 
z
" clip-path="url(#p9b3f57cb40)" style="fill: #21918c"/>
    <path d="M -101.522634 295.069501 
L -54.513382 316.44327 
L -53.088006 316.44327 
L -33.117398 316.44327 
L -53.088006 307.212798 
L -82.770183 291.932841 
L -101.522634 283.045057 
L -131.082843 267.422412 
L -149.957261 258.697172 
L -183.979965 242.911984 
L -198.391889 236.908149 
L -233.930872 218.401555 
L -246.826517 213.071841 
L -282.105996 193.891126 
L -295.261145 188.319153 
L -329.988877 169.380697 
L -343.695773 163.808724 
L -382.67721 144.870269 
L -392.130401 141.125555 
L -435.383781 120.35984 
L -440.565028 118.359564 
L -488.999656 96.718963 
L -488.999656 120.35984 
L -488.999656 124.860107 
L -445.167795 144.870269 
L -440.565028 147.426406 
L -392.700507 169.380697 
L -392.130401 169.71219 
L -343.695773 187.668518 
L -328.524718 193.891126 
L -295.261145 206.46402 
L -268.218973 218.401555 
L -246.826517 228.806709 
L -214.761702 242.911984 
L -198.391889 251.575704 
L -159.61097 267.422412 
L -149.957261 272.545711 
L -107.509111 291.932841 
z
M 40.159651 291.932841 
L -4.653378 269.438844 
L -6.602051 267.422412 
L -53.088006 249.781121 
L -66.92617 242.911984 
L -53.088006 226.799347 
L -49.451995 218.401555 
L -53.088006 215.88915 
L -101.522634 200.641411 
L -108.658743 193.891126 
L -101.522634 184.759776 
L -92.823696 169.380697 
L -101.522634 163.06059 
L -124.566081 169.380697 
L -149.957261 175.291347 
L -160.549195 169.380697 
L -198.391889 153.604152 
L -214.0954 144.870269 
L -210.474367 120.35984 
L -198.391889 107.664129 
L -183.913912 120.35984 
L -149.957261 143.058457 
L -133.805619 120.35984 
L -149.957261 107.505674 
L -183.65113 95.849411 
L -175.390316 71.338982 
L -198.391889 53.971223 
L -211.028461 46.828554 
L -210.765505 22.318125 
L -221.92875 22.318125 
L -227.417902 46.828554 
L -246.826517 56.602896 
L -261.418197 46.828554 
L -282.849765 22.318125 
L -295.261145 22.318125 
L -311.262032 22.318125 
L -343.695773 31.012547 
L -359.408111 22.318125 
L -383.670965 22.318125 
L -343.695773 41.62087 
L -330.027728 46.828554 
L -322.845551 71.338982 
L -295.261145 85.668637 
L -269.439711 95.849411 
L -246.826517 115.918675 
L -234.692253 120.35984 
L -229.519086 144.870269 
L -246.826517 160.22984 
L -261.220429 169.380697 
L -246.826517 177.866773 
L -228.525138 169.380697 
L -198.391889 160.733396 
L -175.588927 169.380697 
L -149.957261 182.503105 
L -122.372188 193.891126 
L -101.522634 212.111032 
L -74.663457 218.401555 
L -88.414372 242.911984 
L -53.088006 258.441638 
L -26.26416 267.422412 
L -4.653378 287.372938 
L 6.561702 291.932841 
L 24.553087 316.44327 
L 37.5096 316.44327 
z
M -164.733442 120.35984 
L -149.957261 114.125409 
L -141.736149 120.35984 
L -149.957261 131.368952 
z
M -256.268651 95.849411 
L -295.261145 79.140439 
L -309.151458 71.338982 
L -307.601826 46.828554 
L -295.261145 33.172653 
L -279.950973 46.828554 
L -246.826517 66.806854 
L -236.584482 71.338982 
L -215.127623 95.849411 
L -246.826517 104.889092 
z
M -217.269791 71.338982 
L -198.391889 61.772459 
L -184.953748 71.338982 
L -198.391889 89.536316 
z
M 189.085134 316.44327 
L 194.915343 316.44327 
L 189.085134 311.427572 
L 176.223664 291.932841 
L 162.778485 267.422412 
L 142.242629 242.911984 
L 140.650506 241.663816 
L 122.743245 218.401555 
L 105.643687 193.891126 
L 92.215878 180.423832 
L 84.30236 169.380697 
L 64.786927 144.870269 
L 46.408947 120.35984 
L 43.78125 118.16166 
L 25.149916 95.849411 
L 3.789941 71.338982 
L -4.653378 62.831714 
L -14.923902 46.828554 
L -37.192142 22.318125 
L -53.088006 22.318125 
L -56.732328 22.318125 
L -53.088006 25.167163 
L -28.268699 46.828554 
L -14.709229 71.338982 
L -4.653378 80.123006 
L 11.165301 95.849411 
L 34.467029 120.35984 
L 43.78125 136.340305 
L 50.864203 144.870269 
L 73.457742 169.380698 
L 92.163617 193.891126 
L 92.215878 193.977142 
L 112.077812 218.401555 
L 132.626368 242.911984 
L 140.650506 254.32221 
L 152.577622 267.422412 
L 167.51381 291.932841 
L 185.086912 316.44327 
z
M 431.258273 316.44327 
L 433.232948 316.44327 
L 439.165887 291.932841 
L 433.95064 267.422412 
L 431.258273 262.447384 
L 427.485422 242.911984 
L 420.726181 218.401555 
L 411.383321 193.891126 
L 397.861452 169.380697 
L 382.823645 150.928112 
L 380.316004 144.870269 
L 369.570546 120.35984 
L 355.686808 95.849411 
L 335.243927 71.338982 
L 334.389017 70.474765 
L 320.62027 46.828554 
L 302.689774 22.318125 
L 285.954389 22.318125 
L 275.648472 22.318125 
L 285.954389 43.523329 
L 289.383798 46.828554 
L 310.692687 71.338982 
L 327.574655 95.849411 
L 334.389017 106.384804 
L 346.257275 120.35984 
L 362.099796 144.870269 
L 374.438943 169.380697 
L 382.823645 188.354696 
L 387.235341 193.891126 
L 402.416684 218.401555 
L 412.519869 242.911984 
L 419.346763 267.422412 
L 422.760059 291.932841 
L 422.412091 316.44327 
z
M -198.391889 198.363805 
L -190.209975 193.891126 
L -198.391889 189.863442 
L -205.56034 193.891126 
z
M -440.565028 48.816731 
L -431.045663 46.828554 
L -440.565028 42.956627 
L -443.695315 46.828554 
z
M -471.109423 22.318125 
L -488.999656 22.318125 
L -488.999656 26.611712 
z
" clip-path="url(#p9b3f57cb40)" style="fill: #1fa188"/>
    <path d="M -53.088006 307.212798 
L -33.117398 316.44327 
L -15.801529 316.44327 
L -4.653378 304.058511 
L 9.231747 316.44327 
L 24.553087 316.44327 
L 6.561702 291.932841 
L -4.653378 287.372938 
L -26.26416 267.422412 
L -53.088006 258.441638 
L -88.414372 242.911984 
L -74.663457 218.401555 
L -101.522634 212.111032 
L -122.372188 193.891126 
L -149.957261 182.503105 
L -175.588927 169.380697 
L -198.391889 160.733396 
L -228.525138 169.380697 
L -246.826517 177.866773 
L -261.220429 169.380697 
L -246.826517 160.22984 
L -229.519086 144.870269 
L -234.692253 120.35984 
L -246.826517 115.918675 
L -269.439711 95.849411 
L -295.261145 85.668637 
L -322.845551 71.338983 
L -330.027728 46.828554 
L -343.695773 41.62087 
L -383.670965 22.318125 
L -392.130401 22.318125 
L -440.565028 22.318125 
L -471.109423 22.318125 
L -488.999656 26.611712 
L -488.999656 37.22864 
L -464.454591 46.828554 
L -440.565028 60.285188 
L -412.64382 71.338982 
L -392.130401 83.099387 
L -361.214309 95.849411 
L -343.695773 106.208873 
L -312.403028 95.849411 
L -295.261145 92.196836 
L -285.06222 95.849411 
L -295.261145 110.687999 
L -305.329886 120.35984 
L -295.261145 125.789707 
L -248.910576 144.870269 
L -295.261145 169.039054 
L -342.787924 144.870269 
L -343.695773 144.454761 
L -391.027554 120.35984 
L -392.130401 119.932791 
L -439.431756 95.849411 
L -440.565028 95.397242 
L -487.800192 71.338982 
L -488.999656 70.857577 
L -488.999656 71.338982 
L -488.999656 95.849411 
L -488.999656 96.718963 
L -440.565028 118.359564 
L -435.383781 120.35984 
L -392.130401 141.125555 
L -382.67721 144.870269 
L -343.695773 163.808724 
L -329.988877 169.380697 
L -295.261145 188.319153 
L -282.105996 193.891126 
L -246.826517 213.071841 
L -233.930872 218.401555 
L -198.391889 236.908149 
L -183.979965 242.911984 
L -149.957261 258.697172 
L -131.082843 267.422412 
L -101.522634 283.045057 
L -82.770183 291.932841 
z
M -62.238905 291.932841 
L -101.522634 270.750488 
L -107.00751 267.422412 
L -101.522634 258.860015 
L -53.088006 267.102155 
L -51.968879 267.422412 
L -29.501874 291.932841 
L -53.088006 297.229983 
z
M -152.47805 242.911984 
L -149.957261 240.616192 
L -139.973028 242.911984 
L -149.957261 244.312793 
z
M -200.271765 218.401555 
L -198.391889 217.116487 
L -194.065718 218.401555 
L -198.391889 219.588426 
z
M -247.932699 193.891126 
L -246.826517 193.280036 
L -244.8194 193.891126 
L -246.826517 194.622585 
z
M -205.56034 193.891126 
L -198.391889 189.863442 
L -190.209975 193.891126 
L -198.391889 198.363805 
z
M -162.592559 193.891126 
L -149.957261 189.714863 
L -138.764382 193.891126 
L -149.957261 203.220523 
z
M -202.960038 169.380697 
L -198.391889 167.862641 
L -193.915047 169.380697 
L -198.391889 172.976498 
z
M -351.573352 71.338982 
L -343.695773 63.445902 
L -339.210078 71.338982 
L -343.695773 77.202414 
z
M -443.695315 46.828554 
L -440.565028 42.956627 
L -431.045663 46.828554 
L -440.565028 48.816731 
z
M 189.085134 311.427572 
L 194.915343 316.44327 
L 207.034648 316.44327 
L 189.085134 299.820106 
L 184.115879 291.932841 
L 171.875272 267.422412 
L 155.837518 242.911984 
L 140.650506 229.98679 
L 132.207565 218.401555 
L 117.280131 193.891126 
L 95.550878 169.380697 
L 92.215878 166.738747 
L 76.729604 144.870269 
L 61.243935 120.35984 
L 43.78125 104.37727 
L 37.138075 95.849411 
L 19.333382 71.338982 
L -2.203205 46.828554 
L -4.653378 44.699025 
L -20.877182 22.318125 
L -37.192142 22.318125 
L -14.923902 46.828554 
L -4.653378 62.831714 
L 3.789941 71.338982 
L 25.149916 95.849411 
L 43.78125 118.16166 
L 46.408947 120.35984 
L 64.786927 144.870269 
L 84.30236 169.380697 
L 92.215878 180.423832 
L 105.643687 193.891126 
L 122.743245 218.401555 
L 140.650506 241.663816 
L 142.242629 242.911984 
L 162.778485 267.422412 
L 176.223664 291.932841 
z
M 422.760059 291.932841 
L 419.346763 267.422412 
L 412.519869 242.911984 
L 402.416684 218.401555 
L 387.235341 193.891126 
L 382.823645 188.354696 
L 374.438943 169.380697 
L 362.099796 144.870269 
L 346.257275 120.35984 
L 334.389017 106.384804 
L 327.574655 95.849411 
L 310.692687 71.338982 
L 289.383798 46.828554 
L 285.954389 43.523329 
L 275.648472 22.318125 
L 253.809791 22.318125 
L 268.006992 46.828554 
L 281.382253 71.338982 
L 285.954389 79.870945 
L 300.914485 95.849411 
L 320.253335 120.35984 
L 334.389017 139.605149 
L 338.817832 144.870269 
L 355.771454 169.380697 
L 369.124864 193.891126 
L 380.620452 218.401555 
L 382.823645 223.698354 
L 394.303909 242.911984 
L 404.29309 267.422412 
L 410.144569 291.932841 
L 411.877095 316.44327 
L 422.412091 316.44327 
z
M -149.957261 131.368952 
L -141.736149 120.35984 
L -149.957261 114.125409 
L -164.733442 120.35984 
z
M -198.391889 89.536316 
L -184.953748 71.338982 
L -198.391889 61.772459 
L -217.269791 71.338982 
z
M -201.571587 71.338982 
L -198.391889 69.573695 
L -195.74525 71.338982 
L -198.391889 74.696892 
z
M -246.826517 56.602896 
L -227.417902 46.828554 
L -221.92875 22.318125 
L -234.802979 22.318125 
L -246.826517 45.610878 
L -261.033711 22.318125 
L -282.849765 22.318125 
L -261.418197 46.828554 
z
" clip-path="url(#p9b3f57cb40)" style="fill: #2ab07f"/>
    <path d="M -53.088006 297.229983 
L -29.501874 291.932841 
L -51.968879 267.422412 
L -53.088006 267.102155 
L -101.522634 258.860015 
L -107.00751 267.422412 
L -101.522634 270.750488 
L -62.238905 291.932841 
z
M -4.653378 316.44327 
L 9.231747 316.44327 
L -4.653378 304.058511 
L -15.801529 316.44327 
z
M 189.085134 299.820106 
L 207.034648 316.44327 
L 217.626077 316.44327 
L 195.425173 291.932841 
L 189.085134 286.816051 
L 180.083809 267.422412 
L 167.538305 242.911984 
L 140.829743 218.401555 
L 140.650506 218.271953 
L 127.501049 193.891126 
L 111.63368 169.380697 
L 92.215878 152.418965 
L 87.185938 144.870269 
L 73.851189 120.35984 
L 52.31437 95.849411 
L 43.78125 89.078035 
L 32.448243 71.338982 
L 16.572278 46.828554 
L -4.653378 26.149087 
L -7.217783 22.318125 
L -20.877182 22.318125 
L -4.653378 44.699025 
L -2.203205 46.828554 
L 19.333382 71.338982 
L 37.138075 95.849411 
L 43.78125 104.37727 
L 61.243935 120.35984 
L 76.729604 144.870269 
L 92.215878 166.738747 
L 95.550878 169.380697 
L 117.280131 193.891126 
L 132.207565 218.401555 
L 140.650506 229.98679 
L 155.837518 242.911984 
L 171.875272 267.422412 
L 184.115879 291.932841 
z
M 410.144569 291.932841 
L 404.29309 267.422412 
L 394.303909 242.911984 
L 382.823645 223.698354 
L 380.620452 218.401555 
L 369.124864 193.891126 
L 355.771454 169.380698 
L 338.817832 144.870269 
L 334.389017 139.605149 
L 320.253335 120.35984 
L 300.914485 95.849411 
L 285.954389 79.870945 
L 281.382253 71.338982 
L 268.006992 46.828554 
L 253.809791 22.318125 
L 237.519761 22.318125 
L 226.977451 22.318125 
L 237.519761 39.751896 
L 242.564529 46.828554 
L 258.362565 71.338982 
L 273.15704 95.849411 
L 285.954389 117.446819 
L 288.891446 120.35984 
L 311.039417 144.870269 
L 331.695864 169.380697 
L 334.389017 172.689057 
L 349.406581 193.891126 
L 363.677418 218.401555 
L 375.514821 242.911984 
L 382.823645 261.529071 
L 385.946239 267.422412 
L 395.298168 291.932841 
L 399.831652 316.44327 
L 411.877095 316.44327 
z
M -149.957261 244.312793 
L -139.973028 242.911984 
L -149.957261 240.616192 
L -152.47805 242.911984 
z
M -198.391889 219.588426 
L -194.065718 218.401555 
L -198.391889 217.116487 
L -200.271765 218.401555 
z
M -246.826517 194.622585 
L -244.8194 193.891126 
L -246.826517 193.280036 
L -247.932699 193.891126 
z
M -149.957261 203.220523 
L -138.764382 193.891126 
L -149.957261 189.714863 
L -162.592559 193.891126 
z
M -198.391889 172.976498 
L -193.915047 169.380697 
L -198.391889 167.862641 
L -202.960038 169.380697 
z
M -295.261145 169.039054 
L -248.910576 144.870269 
L -295.261145 125.789707 
L -305.329886 120.35984 
L -295.261145 110.687999 
L -285.06222 95.849411 
L -295.261145 92.196836 
L -312.403028 95.849411 
L -343.695773 106.208873 
L -361.214309 95.849411 
L -392.130401 83.099387 
L -412.64382 71.338982 
L -440.565028 60.285188 
L -464.454591 46.828554 
L -488.999656 37.22864 
L -488.999656 46.828554 
L -488.999656 70.857577 
L -487.800192 71.338982 
L -440.565028 95.397242 
L -439.431756 95.849411 
L -392.130401 119.932791 
L -391.027554 120.35984 
L -343.695773 144.454761 
L -342.787924 144.870269 
z
M -303.64162 144.870269 
L -295.261145 140.678752 
L -282.670845 144.870269 
L -295.261145 150.17954 
z
M -345.453696 120.35984 
L -343.695773 119.679781 
L -341.391595 120.35984 
L -343.695773 121.51778 
z
M -392.899119 95.849411 
L -392.130401 95.579766 
L -391.343963 95.849411 
L -392.130401 96.358742 
z
M -343.695773 77.202414 
L -339.210078 71.338982 
L -343.695773 63.445902 
L -351.573352 71.338982 
z
M -198.391889 74.696892 
L -195.74525 71.338982 
L -198.391889 69.573695 
L -201.571587 71.338982 
z
M -246.826517 45.610878 
L -234.802979 22.318125 
L -246.826517 22.318125 
L -261.033711 22.318125 
z
" clip-path="url(#p9b3f57cb40)" style="fill: #44bf70"/>
    <path d="M 212.601165 291.932841 
L 189.085134 270.851063 
L 187.562234 267.422412 
L 177.808812 242.911984 
L 160.987254 218.401555 
L 140.650506 201.784962 
L 136.613777 193.891126 
L 125.130116 169.380697 
L 104.851162 144.870269 
L 92.215878 135.414859 
L 84.813243 120.35984 
L 71.284974 95.849411 
L 43.820991 71.338982 
L 43.78125 71.312026 
L 31.912922 46.828554 
L 16.759363 22.318125 
L -4.653378 22.318125 
L -7.217783 22.318125 
L -4.653378 26.149087 
L 16.572278 46.828554 
L 32.448243 71.338982 
L 43.78125 89.078035 
L 52.31437 95.849411 
L 73.851189 120.35984 
L 87.185938 144.870269 
L 92.215878 152.418965 
L 111.63368 169.380697 
L 127.501049 193.891126 
L 140.650506 218.271953 
L 140.829743 218.401555 
L 167.538305 242.911984 
L 180.083809 267.422412 
L 189.085134 286.816051 
L 195.425173 291.932841 
L 217.626077 316.44327 
L 227.032094 316.44327 
z
M 382.823645 306.686647 
L 385.768976 316.44327 
L 399.831652 316.44327 
L 395.298168 291.932841 
L 385.946239 267.422412 
L 382.823645 261.529071 
L 375.514821 242.911984 
L 363.677418 218.401555 
L 349.406581 193.891126 
L 334.389017 172.689057 
L 331.695864 169.380697 
L 311.039417 144.870269 
L 288.891446 120.35984 
L 285.954389 117.446819 
L 273.15704 95.849411 
L 258.362565 71.338983 
L 242.564529 46.828554 
L 237.519761 39.751896 
L 226.977451 22.318125 
L 193.43961 22.318125 
L 210.467305 46.828554 
L 227.397988 71.338982 
L 237.519761 86.599033 
L 244.132846 95.849411 
L 260.806321 120.35984 
L 277.108473 144.870269 
L 285.954389 158.813101 
L 297.145849 169.380697 
L 321.640124 193.891126 
L 334.389017 207.255369 
L 342.439624 218.401555 
L 357.563734 242.911984 
L 369.534094 267.422412 
L 378.715463 291.932841 
z
M -295.261145 150.17954 
L -282.670845 144.870269 
L -295.261145 140.678752 
L -303.64162 144.870269 
z
M -343.695773 121.51778 
L -341.391595 120.35984 
L -343.695773 119.679781 
L -345.453696 120.35984 
z
M -392.130401 96.358742 
L -391.343963 95.849411 
L -392.130401 95.579766 
L -392.899119 95.849411 
z
" clip-path="url(#p9b3f57cb40)" style="fill: #67cc5c"/>
    <path d="M 226.858341 291.932841 
L 211.278229 267.422412 
L 189.085134 248.796285 
L 186.960928 242.911984 
L 177.236792 218.401555 
L 159.276092 193.891126 
L 140.650506 179.505729 
L 136.757939 169.380697 
L 126.595065 144.870269 
L 105.289469 120.35984 
L 92.215878 110.988389 
L 86.755447 95.849411 
L 76.343498 71.338982 
L 51.356557 46.828554 
L 43.78125 41.618863 
L 37.738139 22.318125 
L 16.759363 22.318125 
L 31.912922 46.828554 
L 43.78125 71.312026 
L 43.820991 71.338982 
L 71.284974 95.849411 
L 84.813243 120.35984 
L 92.215878 135.414859 
L 104.851162 144.870269 
L 125.130116 169.380697 
L 136.613777 193.891126 
L 140.650506 201.784962 
L 160.987254 218.401555 
L 177.808812 242.911984 
L 187.562234 267.422412 
L 189.085134 270.851063 
L 212.601165 291.932841 
L 227.032094 316.44327 
L 235.491538 316.44327 
z
M 382.823645 316.44327 
L 385.768976 316.44327 
L 382.823645 306.686647 
L 378.715463 291.932841 
L 369.534094 267.422412 
L 357.563734 242.911984 
L 342.439624 218.401555 
L 334.389017 207.255369 
L 321.640124 193.891126 
L 297.145849 169.380697 
L 285.954389 158.813101 
L 277.108473 144.870269 
L 260.806321 120.35984 
L 244.132846 95.849411 
L 237.519761 86.599033 
L 227.397988 71.338982 
L 210.467305 46.828554 
L 193.43961 22.318125 
L 189.085134 22.318125 
L 140.650506 22.318125 
L 140.080262 22.318125 
L 140.650506 23.000233 
L 161.545713 46.828554 
L 181.792114 71.338983 
L 189.085134 80.323956 
L 202.423307 95.849411 
L 222.202637 120.35984 
L 237.519761 139.71103 
L 241.820343 144.870269 
L 261.201753 169.380697 
L 279.35567 193.891126 
L 285.954389 202.488914 
L 306.014415 218.401555 
L 334.389017 242.475824 
L 334.714127 242.911984 
L 350.634105 267.422412 
L 362.530869 291.932841 
L 370.931065 316.44327 
z
" clip-path="url(#p9b3f57cb40)" style="fill: #90d743"/>
    <path d="M 237.519761 316.44327 
L 269.715962 316.44327 
L 251.026028 291.932841 
L 237.519761 283.170088 
L 233.045799 267.422412 
L 224.998617 242.911984 
L 211.072528 218.401555 
L 189.085134 205.03769 
L 186.436521 193.891126 
L 184.287291 169.380697 
L 189.085134 158.174054 
L 199.353786 169.380697 
L 223.315035 193.891126 
L 237.519761 199.338583 
L 252.960675 218.401555 
L 274.437155 242.911984 
L 285.954389 252.227266 
L 310.529365 267.422412 
L 334.389017 278.963985 
L 342.473366 291.932841 
L 353.48895 316.44327 
L 370.931065 316.44327 
L 362.530869 291.932841 
L 350.634105 267.422412 
L 334.714127 242.911984 
L 334.389017 242.475824 
L 306.014415 218.401555 
L 285.954389 202.488914 
L 279.35567 193.891126 
L 261.201753 169.380697 
L 241.820343 144.870269 
L 237.519761 139.71103 
L 222.202637 120.35984 
L 202.423307 95.849411 
L 189.085134 80.323956 
L 181.792114 71.338982 
L 161.545713 46.828554 
L 140.650506 23.000233 
L 140.080262 22.318125 
L 92.215878 22.318125 
L 43.78125 22.318125 
L 37.738139 22.318125 
L 43.78125 41.618863 
L 51.356557 46.828554 
L 76.343498 71.338982 
L 86.755447 95.849411 
L 92.215878 110.988389 
L 105.289469 120.35984 
L 126.595065 144.870269 
L 136.757939 169.380697 
L 140.650506 179.505729 
L 159.276092 193.891126 
L 177.236792 218.401555 
L 186.960928 242.911984 
L 189.085134 248.796285 
L 211.278229 267.422412 
L 226.858341 291.932841 
L 235.491538 316.44327 
z
" clip-path="url(#p9b3f57cb40)" style="fill: #bddf26"/>
    <path d="M 285.954389 316.44327 
L 334.389017 316.44327 
L 353.48895 316.44327 
L 342.473366 291.932841 
L 334.389017 278.963985 
L 310.529365 267.422412 
L 285.954389 252.227266 
L 274.437155 242.911984 
L 252.960675 218.401555 
L 237.519761 199.338583 
L 223.315035 193.891126 
L 199.353786 169.380697 
L 189.085134 158.174054 
L 184.287291 169.380697 
L 186.436521 193.891126 
L 189.085134 205.03769 
L 211.072528 218.401555 
L 224.998617 242.911984 
L 233.045799 267.422412 
L 237.519761 283.170088 
L 251.026028 291.932841 
L 269.715962 316.44327 
z
" clip-path="url(#p9b3f57cb40)" style="fill: #eae51a"/>
   </g>
   <g id="PathCollection_1">
    <defs>
     <path id="mdc0741d33a" d="M -3 3 
L 3 -3 
M -3 -3 
L 3 3 
" style="stroke: #ff0000; stroke-width: 1.5"/>
    </defs>
    <g clip-path="url(#p9b3f57cb40)">
     <use xlink:href="#mdc0741d33a" x="334.389017" y="316.44327" style="fill: #ff0000; stroke: #ff0000; stroke-width: 1.5"/>
     <use xlink:href="#mdc0741d33a" x="285.954389" y="291.932841" style="fill: #ff0000; stroke: #ff0000; stroke-width: 1.5"/>
     <use xlink:href="#mdc0741d33a" x="237.519761" y="267.422412" style="fill: #ff0000; stroke: #ff0000; stroke-width: 1.5"/>
     <use xlink:href="#mdc0741d33a" x="237.519761" y="242.911984" style="fill: #ff0000; stroke: #ff0000; stroke-width: 1.5"/>
     <use xlink:href="#mdc0741d33a" x="237.519761" y="218.401555" style="fill: #ff0000; stroke: #ff0000; stroke-width: 1.5"/>
     <use xlink:href="#mdc0741d33a" x="189.085134" y="193.891126" style="fill: #ff0000; stroke: #ff0000; stroke-width: 1.5"/>
     <use xlink:href="#mdc0741d33a" x="189.085134" y="169.380697" style="fill: #ff0000; stroke: #ff0000; stroke-width: 1.5"/>
     <use xlink:href="#mdc0741d33a" x="189.085134" y="144.870269" style="fill: #ff0000; stroke: #ff0000; stroke-width: 1.5"/>
     <use xlink:href="#mdc0741d33a" x="140.650506" y="120.35984" style="fill: #ff0000; stroke: #ff0000; stroke-width: 1.5"/>
     <use xlink:href="#mdc0741d33a" x="140.650506" y="95.849411" style="fill: #ff0000; stroke: #ff0000; stroke-width: 1.5"/>
     <use xlink:href="#mdc0741d33a" x="92.215878" y="71.338982" style="fill: #ff0000; stroke: #ff0000; stroke-width: 1.5"/>
     <use xlink:href="#mdc0741d33a" x="92.215878" y="46.828554" style="fill: #ff0000; stroke: #ff0000; stroke-width: 1.5"/>
     <use xlink:href="#mdc0741d33a" x="92.215878" y="22.318125" style="fill: #ff0000; stroke: #ff0000; stroke-width: 1.5"/>
    </g>
   </g>
   <g id="matplotlib.axis_1">
    <g id="xtick_1">
     <g id="line2d_1">
      <defs>
       <path id="m38f3b05bbe" d="M 0 0 
L 0 3.5 
" style="stroke: #000000; stroke-width: 0.8"/>
      </defs>
      <g>
       <use xlink:href="#m38f3b05bbe" x="92.215878" y="316.44327" style="stroke: #000000; stroke-width: 0.8"/>
      </g>
     </g>
     <g id="text_1">
      <!-- $\mathdefault{10^{-2}}$ -->
      <g transform="translate(80.465878 331.041707) scale(0.1 -0.1)">
       <defs>
        <path id="DejaVuSans-31" d="M 794 531 
L 1825 531 
L 1825 4091 
L 703 3866 
L 703 4441 
L 1819 4666 
L 2450 4666 
L 2450 531 
L 3481 531 
L 3481 0 
L 794 0 
L 794 531 
z
" transform="scale(0.015625)"/>
        <path id="DejaVuSans-30" d="M 2034 4250 
Q 1547 4250 1301 3770 
Q 1056 3291 1056 2328 
Q 1056 1369 1301 889 
Q 1547 409 2034 409 
Q 2525 409 2770 889 
Q 3016 1369 3016 2328 
Q 3016 3291 2770 3770 
Q 2525 4250 2034 4250 
z
M 2034 4750 
Q 2819 4750 3233 4129 
Q 3647 3509 3647 2328 
Q 3647 1150 3233 529 
Q 2819 -91 2034 -91 
Q 1250 -91 836 529 
Q 422 1150 422 2328 
Q 422 3509 836 4129 
Q 1250 4750 2034 4750 
z
" transform="scale(0.015625)"/>
        <path id="DejaVuSans-2212" d="M 678 2272 
L 4684 2272 
L 4684 1741 
L 678 1741 
L 678 2272 
z
" transform="scale(0.015625)"/>
        <path id="DejaVuSans-32" d="M 1228 531 
L 3431 531 
L 3431 0 
L 469 0 
L 469 531 
Q 828 903 1448 1529 
Q 2069 2156 2228 2338 
Q 2531 2678 2651 2914 
Q 2772 3150 2772 3378 
Q 2772 3750 2511 3984 
Q 2250 4219 1831 4219 
Q 1534 4219 1204 4116 
Q 875 4013 500 3803 
L 500 4441 
Q 881 4594 1212 4672 
Q 1544 4750 1819 4750 
Q 2544 4750 2975 4387 
Q 3406 4025 3406 3419 
Q 3406 3131 3298 2873 
Q 3191 2616 2906 2266 
Q 2828 2175 2409 1742 
Q 1991 1309 1228 531 
z
" transform="scale(0.015625)"/>
       </defs>
       <use xlink:href="#DejaVuSans-31" transform="translate(0 0.765625)"/>
       <use xlink:href="#DejaVuSans-30" transform="translate(63.623047 0.765625)"/>
       <use xlink:href="#DejaVuSans-2212" transform="translate(128.203125 39.046875) scale(0.7)"/>
       <use xlink:href="#DejaVuSans-32" transform="translate(186.855469 39.046875) scale(0.7)"/>
      </g>
     </g>
    </g>
    <g id="xtick_2">
     <g id="line2d_2">
      <g>
       <use xlink:href="#m38f3b05bbe" x="285.954389" y="316.44327" style="stroke: #000000; stroke-width: 0.8"/>
      </g>
     </g>
     <g id="text_2">
      <!-- $\mathdefault{10^{-1}}$ -->
      <g transform="translate(274.204389 331.041707) scale(0.1 -0.1)">
       <use xlink:href="#DejaVuSans-31" transform="translate(0 0.684375)"/>
       <use xlink:href="#DejaVuSans-30" transform="translate(63.623047 0.684375)"/>
       <use xlink:href="#DejaVuSans-2212" transform="translate(128.203125 38.965625) scale(0.7)"/>
       <use xlink:href="#DejaVuSans-31" transform="translate(186.855469 38.965625) scale(0.7)"/>
      </g>
     </g>
    </g>
    <g id="xtick_3">
     <g id="line2d_3">
      <defs>
       <path id="m360e1f0208" d="M 0 0 
L 0 2 
" style="stroke: #000000; stroke-width: 0.6"/>
      </defs>
      <g>
       <use xlink:href="#m360e1f0208" x="49.235231" y="316.44327" style="stroke: #000000; stroke-width: 0.6"/>
      </g>
     </g>
    </g>
    <g id="xtick_4">
     <g id="line2d_4">
      <g>
       <use xlink:href="#m360e1f0208" x="62.205403" y="316.44327" style="stroke: #000000; stroke-width: 0.6"/>
      </g>
     </g>
    </g>
    <g id="xtick_5">
     <g id="line2d_5">
      <g>
       <use xlink:href="#m360e1f0208" x="73.440676" y="316.44327" style="stroke: #000000; stroke-width: 0.6"/>
      </g>
     </g>
    </g>
    <g id="xtick_6">
     <g id="line2d_6">
      <g>
       <use xlink:href="#m360e1f0208" x="83.35089" y="316.44327" style="stroke: #000000; stroke-width: 0.6"/>
      </g>
     </g>
    </g>
    <g id="xtick_7">
     <g id="line2d_7">
      <g>
       <use xlink:href="#m360e1f0208" x="150.536981" y="316.44327" style="stroke: #000000; stroke-width: 0.6"/>
      </g>
     </g>
    </g>
    <g id="xtick_8">
     <g id="line2d_8">
      <g>
       <use xlink:href="#m360e1f0208" x="184.652639" y="316.44327" style="stroke: #000000; stroke-width: 0.6"/>
      </g>
     </g>
    </g>
    <g id="xtick_9">
     <g id="line2d_9">
      <g>
       <use xlink:href="#m360e1f0208" x="208.858084" y="316.44327" style="stroke: #000000; stroke-width: 0.6"/>
      </g>
     </g>
    </g>
    <g id="xtick_10">
     <g id="line2d_10">
      <g>
       <use xlink:href="#m360e1f0208" x="227.633286" y="316.44327" style="stroke: #000000; stroke-width: 0.6"/>
      </g>
     </g>
    </g>
    <g id="xtick_11">
     <g id="line2d_11">
      <g>
       <use xlink:href="#m360e1f0208" x="242.973743" y="316.44327" style="stroke: #000000; stroke-width: 0.6"/>
      </g>
     </g>
    </g>
    <g id="xtick_12">
     <g id="line2d_12">
      <g>
       <use xlink:href="#m360e1f0208" x="255.943914" y="316.44327" style="stroke: #000000; stroke-width: 0.6"/>
      </g>
     </g>
    </g>
    <g id="xtick_13">
     <g id="line2d_13">
      <g>
       <use xlink:href="#m360e1f0208" x="267.179188" y="316.44327" style="stroke: #000000; stroke-width: 0.6"/>
      </g>
     </g>
    </g>
    <g id="xtick_14">
     <g id="line2d_14">
      <g>
       <use xlink:href="#m360e1f0208" x="277.089401" y="316.44327" style="stroke: #000000; stroke-width: 0.6"/>
      </g>
     </g>
    </g>
    <g id="xtick_15">
     <g id="line2d_15">
      <g>
       <use xlink:href="#m360e1f0208" x="344.275492" y="316.44327" style="stroke: #000000; stroke-width: 0.6"/>
      </g>
     </g>
    </g>
    <g id="xtick_16">
     <g id="line2d_16">
      <g>
       <use xlink:href="#m360e1f0208" x="378.391151" y="316.44327" style="stroke: #000000; stroke-width: 0.6"/>
      </g>
     </g>
    </g>
    <g id="text_3">
     <!-- bandwidth -->
     <g transform="translate(186.939947 344.719832) scale(0.1 -0.1)">
      <defs>
       <path id="DejaVuSans-62" d="M 3116 1747 
Q 3116 2381 2855 2742 
Q 2594 3103 2138 3103 
Q 1681 3103 1420 2742 
Q 1159 2381 1159 1747 
Q 1159 1113 1420 752 
Q 1681 391 2138 391 
Q 2594 391 2855 752 
Q 3116 1113 3116 1747 
z
M 1159 2969 
Q 1341 3281 1617 3432 
Q 1894 3584 2278 3584 
Q 2916 3584 3314 3078 
Q 3713 2572 3713 1747 
Q 3713 922 3314 415 
Q 2916 -91 2278 -91 
Q 1894 -91 1617 61 
Q 1341 213 1159 525 
L 1159 0 
L 581 0 
L 581 4863 
L 1159 4863 
L 1159 2969 
z
" transform="scale(0.015625)"/>
       <path id="DejaVuSans-61" d="M 2194 1759 
Q 1497 1759 1228 1600 
Q 959 1441 959 1056 
Q 959 750 1161 570 
Q 1363 391 1709 391 
Q 2188 391 2477 730 
Q 2766 1069 2766 1631 
L 2766 1759 
L 2194 1759 
z
M 3341 1997 
L 3341 0 
L 2766 0 
L 2766 531 
Q 2569 213 2275 61 
Q 1981 -91 1556 -91 
Q 1019 -91 701 211 
Q 384 513 384 1019 
Q 384 1609 779 1909 
Q 1175 2209 1959 2209 
L 2766 2209 
L 2766 2266 
Q 2766 2663 2505 2880 
Q 2244 3097 1772 3097 
Q 1472 3097 1187 3025 
Q 903 2953 641 2809 
L 641 3341 
Q 956 3463 1253 3523 
Q 1550 3584 1831 3584 
Q 2591 3584 2966 3190 
Q 3341 2797 3341 1997 
z
" transform="scale(0.015625)"/>
       <path id="DejaVuSans-6e" d="M 3513 2113 
L 3513 0 
L 2938 0 
L 2938 2094 
Q 2938 2591 2744 2837 
Q 2550 3084 2163 3084 
Q 1697 3084 1428 2787 
Q 1159 2491 1159 1978 
L 1159 0 
L 581 0 
L 581 3500 
L 1159 3500 
L 1159 2956 
Q 1366 3272 1645 3428 
Q 1925 3584 2291 3584 
Q 2894 3584 3203 3211 
Q 3513 2838 3513 2113 
z
" transform="scale(0.015625)"/>
       <path id="DejaVuSans-64" d="M 2906 2969 
L 2906 4863 
L 3481 4863 
L 3481 0 
L 2906 0 
L 2906 525 
Q 2725 213 2448 61 
Q 2172 -91 1784 -91 
Q 1150 -91 751 415 
Q 353 922 353 1747 
Q 353 2572 751 3078 
Q 1150 3584 1784 3584 
Q 2172 3584 2448 3432 
Q 2725 3281 2906 2969 
z
M 947 1747 
Q 947 1113 1208 752 
Q 1469 391 1925 391 
Q 2381 391 2643 752 
Q 2906 1113 2906 1747 
Q 2906 2381 2643 2742 
Q 2381 3103 1925 3103 
Q 1469 3103 1208 2742 
Q 947 2381 947 1747 
z
" transform="scale(0.015625)"/>
       <path id="DejaVuSans-77" d="M 269 3500 
L 844 3500 
L 1563 769 
L 2278 3500 
L 2956 3500 
L 3675 769 
L 4391 3500 
L 4966 3500 
L 4050 0 
L 3372 0 
L 2619 2869 
L 1863 0 
L 1184 0 
L 269 3500 
z
" transform="scale(0.015625)"/>
       <path id="DejaVuSans-69" d="M 603 3500 
L 1178 3500 
L 1178 0 
L 603 0 
L 603 3500 
z
M 603 4863 
L 1178 4863 
L 1178 4134 
L 603 4134 
L 603 4863 
z
" transform="scale(0.015625)"/>
       <path id="DejaVuSans-74" d="M 1172 4494 
L 1172 3500 
L 2356 3500 
L 2356 3053 
L 1172 3053 
L 1172 1153 
Q 1172 725 1289 603 
Q 1406 481 1766 481 
L 2356 481 
L 2356 0 
L 1766 0 
Q 1100 0 847 248 
Q 594 497 594 1153 
L 594 3053 
L 172 3053 
L 172 3500 
L 594 3500 
L 594 4494 
L 1172 4494 
z
" transform="scale(0.015625)"/>
       <path id="DejaVuSans-68" d="M 3513 2113 
L 3513 0 
L 2938 0 
L 2938 2094 
Q 2938 2591 2744 2837 
Q 2550 3084 2163 3084 
Q 1697 3084 1428 2787 
Q 1159 2491 1159 1978 
L 1159 0 
L 581 0 
L 581 4863 
L 1159 4863 
L 1159 2956 
Q 1366 3272 1645 3428 
Q 1925 3584 2291 3584 
Q 2894 3584 3203 3211 
Q 3513 2838 3513 2113 
z
" transform="scale(0.015625)"/>
      </defs>
      <use xlink:href="#DejaVuSans-62"/>
      <use xlink:href="#DejaVuSans-61" transform="translate(63.476562 0)"/>
      <use xlink:href="#DejaVuSans-6e" transform="translate(124.755859 0)"/>
      <use xlink:href="#DejaVuSans-64" transform="translate(188.134766 0)"/>
      <use xlink:href="#DejaVuSans-77" transform="translate(251.611328 0)"/>
      <use xlink:href="#DejaVuSans-69" transform="translate(333.398438 0)"/>
      <use xlink:href="#DejaVuSans-64" transform="translate(361.181641 0)"/>
      <use xlink:href="#DejaVuSans-74" transform="translate(424.658203 0)"/>
      <use xlink:href="#DejaVuSans-68" transform="translate(463.867188 0)"/>
     </g>
    </g>
   </g>
   <g id="matplotlib.axis_2">
    <g id="ytick_1">
     <g id="line2d_17">
      <defs>
       <path id="mbd2f377c6c" d="M 0 0 
L -3.5 0 
" style="stroke: #000000; stroke-width: 0.8"/>
      </defs>
      <g>
       <use xlink:href="#mbd2f377c6c" x="43.78125" y="316.44327" style="stroke: #000000; stroke-width: 0.8"/>
      </g>
     </g>
     <g id="text_4">
      <!-- 1.0 -->
      <g transform="translate(20.878125 320.242489) scale(0.1 -0.1)">
       <defs>
        <path id="DejaVuSans-2e" d="M 684 794 
L 1344 794 
L 1344 0 
L 684 0 
L 684 794 
z
" transform="scale(0.015625)"/>
       </defs>
       <use xlink:href="#DejaVuSans-31"/>
       <use xlink:href="#DejaVuSans-2e" transform="translate(63.623047 0)"/>
       <use xlink:href="#DejaVuSans-30" transform="translate(95.410156 0)"/>
      </g>
     </g>
    </g>
    <g id="ytick_2">
     <g id="line2d_18">
      <g>
       <use xlink:href="#mbd2f377c6c" x="43.78125" y="267.422412" style="stroke: #000000; stroke-width: 0.8"/>
      </g>
     </g>
     <g id="text_5">
      <!-- 1.5 -->
      <g transform="translate(20.878125 271.221631) scale(0.1 -0.1)">
       <defs>
        <path id="DejaVuSans-35" d="M 691 4666 
L 3169 4666 
L 3169 4134 
L 1269 4134 
L 1269 2991 
Q 1406 3038 1543 3061 
Q 1681 3084 1819 3084 
Q 2600 3084 3056 2656 
Q 3513 2228 3513 1497 
Q 3513 744 3044 326 
Q 2575 -91 1722 -91 
Q 1428 -91 1123 -41 
Q 819 9 494 109 
L 494 744 
Q 775 591 1075 516 
Q 1375 441 1709 441 
Q 2250 441 2565 725 
Q 2881 1009 2881 1497 
Q 2881 1984 2565 2268 
Q 2250 2553 1709 2553 
Q 1456 2553 1204 2497 
Q 953 2441 691 2322 
L 691 4666 
z
" transform="scale(0.015625)"/>
       </defs>
       <use xlink:href="#DejaVuSans-31"/>
       <use xlink:href="#DejaVuSans-2e" transform="translate(63.623047 0)"/>
       <use xlink:href="#DejaVuSans-35" transform="translate(95.410156 0)"/>
      </g>
     </g>
    </g>
    <g id="ytick_3">
     <g id="line2d_19">
      <g>
       <use xlink:href="#mbd2f377c6c" x="43.78125" y="218.401555" style="stroke: #000000; stroke-width: 0.8"/>
      </g>
     </g>
     <g id="text_6">
      <!-- 2.0 -->
      <g transform="translate(20.878125 222.200774) scale(0.1 -0.1)">
       <use xlink:href="#DejaVuSans-32"/>
       <use xlink:href="#DejaVuSans-2e" transform="translate(63.623047 0)"/>
       <use xlink:href="#DejaVuSans-30" transform="translate(95.410156 0)"/>
      </g>
     </g>
    </g>
    <g id="ytick_4">
     <g id="line2d_20">
      <g>
       <use xlink:href="#mbd2f377c6c" x="43.78125" y="169.380697" style="stroke: #000000; stroke-width: 0.8"/>
      </g>
     </g>
     <g id="text_7">
      <!-- 2.5 -->
      <g transform="translate(20.878125 173.179916) scale(0.1 -0.1)">
       <use xlink:href="#DejaVuSans-32"/>
       <use xlink:href="#DejaVuSans-2e" transform="translate(63.623047 0)"/>
       <use xlink:href="#DejaVuSans-35" transform="translate(95.410156 0)"/>
      </g>
     </g>
    </g>
    <g id="ytick_5">
     <g id="line2d_21">
      <g>
       <use xlink:href="#mbd2f377c6c" x="43.78125" y="120.35984" style="stroke: #000000; stroke-width: 0.8"/>
      </g>
     </g>
     <g id="text_8">
      <!-- 3.0 -->
      <g transform="translate(20.878125 124.159059) scale(0.1 -0.1)">
       <defs>
        <path id="DejaVuSans-33" d="M 2597 2516 
Q 3050 2419 3304 2112 
Q 3559 1806 3559 1356 
Q 3559 666 3084 287 
Q 2609 -91 1734 -91 
Q 1441 -91 1130 -33 
Q 819 25 488 141 
L 488 750 
Q 750 597 1062 519 
Q 1375 441 1716 441 
Q 2309 441 2620 675 
Q 2931 909 2931 1356 
Q 2931 1769 2642 2001 
Q 2353 2234 1838 2234 
L 1294 2234 
L 1294 2753 
L 1863 2753 
Q 2328 2753 2575 2939 
Q 2822 3125 2822 3475 
Q 2822 3834 2567 4026 
Q 2313 4219 1838 4219 
Q 1578 4219 1281 4162 
Q 984 4106 628 3988 
L 628 4550 
Q 988 4650 1302 4700 
Q 1616 4750 1894 4750 
Q 2613 4750 3031 4423 
Q 3450 4097 3450 3541 
Q 3450 3153 3228 2886 
Q 3006 2619 2597 2516 
z
" transform="scale(0.015625)"/>
       </defs>
       <use xlink:href="#DejaVuSans-33"/>
       <use xlink:href="#DejaVuSans-2e" transform="translate(63.623047 0)"/>
       <use xlink:href="#DejaVuSans-30" transform="translate(95.410156 0)"/>
      </g>
     </g>
    </g>
    <g id="ytick_6">
     <g id="line2d_22">
      <g>
       <use xlink:href="#mbd2f377c6c" x="43.78125" y="71.338982" style="stroke: #000000; stroke-width: 0.8"/>
      </g>
     </g>
     <g id="text_9">
      <!-- 3.5 -->
      <g transform="translate(20.878125 75.138201) scale(0.1 -0.1)">
       <use xlink:href="#DejaVuSans-33"/>
       <use xlink:href="#DejaVuSans-2e" transform="translate(63.623047 0)"/>
       <use xlink:href="#DejaVuSans-35" transform="translate(95.410156 0)"/>
      </g>
     </g>
    </g>
    <g id="ytick_7">
     <g id="line2d_23">
      <g>
       <use xlink:href="#mbd2f377c6c" x="43.78125" y="22.318125" style="stroke: #000000; stroke-width: 0.8"/>
      </g>
     </g>
     <g id="text_10">
      <!-- 4.0 -->
      <g transform="translate(20.878125 26.117344) scale(0.1 -0.1)">
       <defs>
        <path id="DejaVuSans-34" d="M 2419 4116 
L 825 1625 
L 2419 1625 
L 2419 4116 
z
M 2253 4666 
L 3047 4666 
L 3047 1625 
L 3713 1625 
L 3713 1100 
L 3047 1100 
L 3047 0 
L 2419 0 
L 2419 1100 
L 313 1100 
L 313 1709 
L 2253 4666 
z
" transform="scale(0.015625)"/>
       </defs>
       <use xlink:href="#DejaVuSans-34"/>
       <use xlink:href="#DejaVuSans-2e" transform="translate(63.623047 0)"/>
       <use xlink:href="#DejaVuSans-30" transform="translate(95.410156 0)"/>
      </g>
     </g>
    </g>
    <g id="text_11">
     <!-- alpha -->
     <g transform="translate(14.798438 183.240854) rotate(-90) scale(0.1 -0.1)">
      <defs>
       <path id="DejaVuSans-6c" d="M 603 4863 
L 1178 4863 
L 1178 0 
L 603 0 
L 603 4863 
z
" transform="scale(0.015625)"/>
       <path id="DejaVuSans-70" d="M 1159 525 
L 1159 -1331 
L 581 -1331 
L 581 3500 
L 1159 3500 
L 1159 2969 
Q 1341 3281 1617 3432 
Q 1894 3584 2278 3584 
Q 2916 3584 3314 3078 
Q 3713 2572 3713 1747 
Q 3713 922 3314 415 
Q 2916 -91 2278 -91 
Q 1894 -91 1617 61 
Q 1341 213 1159 525 
z
M 3116 1747 
Q 3116 2381 2855 2742 
Q 2594 3103 2138 3103 
Q 1681 3103 1420 2742 
Q 1159 2381 1159 1747 
Q 1159 1113 1420 752 
Q 1681 391 2138 391 
Q 2594 391 2855 752 
Q 3116 1113 3116 1747 
z
" transform="scale(0.015625)"/>
      </defs>
      <use xlink:href="#DejaVuSans-61"/>
      <use xlink:href="#DejaVuSans-6c" transform="translate(61.279297 0)"/>
      <use xlink:href="#DejaVuSans-70" transform="translate(89.0625 0)"/>
      <use xlink:href="#DejaVuSans-68" transform="translate(152.539062 0)"/>
      <use xlink:href="#DejaVuSans-61" transform="translate(215.917969 0)"/>
     </g>
    </g>
   </g>
   <g id="patch_3">
    <path d="M 43.78125 316.44327 
L 43.78125 22.318125 
" style="fill: none; stroke: #000000; stroke-width: 0.8; stroke-linejoin: miter; stroke-linecap: square"/>
   </g>
   <g id="patch_4">
    <path d="M 382.823645 316.44327 
L 382.823645 22.318125 
" style="fill: none; stroke: #000000; stroke-width: 0.8; stroke-linejoin: miter; stroke-linecap: square"/>
   </g>
   <g id="patch_5">
    <path d="M 43.78125 316.44327 
L 382.823645 316.44327 
" style="fill: none; stroke: #000000; stroke-width: 0.8; stroke-linejoin: miter; stroke-linecap: square"/>
   </g>
   <g id="patch_6">
    <path d="M 43.78125 22.318125 
L 382.823645 22.318125 
" style="fill: none; stroke: #000000; stroke-width: 0.8; stroke-linejoin: miter; stroke-linecap: square"/>
   </g>
   <g id="text_12">
    <!-- espirales_lo 1434 fkdc -->
    <g transform="translate(146.264635 16.318125) scale(0.12 -0.12)">
     <defs>
      <path id="DejaVuSans-65" d="M 3597 1894 
L 3597 1613 
L 953 1613 
Q 991 1019 1311 708 
Q 1631 397 2203 397 
Q 2534 397 2845 478 
Q 3156 559 3463 722 
L 3463 178 
Q 3153 47 2828 -22 
Q 2503 -91 2169 -91 
Q 1331 -91 842 396 
Q 353 884 353 1716 
Q 353 2575 817 3079 
Q 1281 3584 2069 3584 
Q 2775 3584 3186 3129 
Q 3597 2675 3597 1894 
z
M 3022 2063 
Q 3016 2534 2758 2815 
Q 2500 3097 2075 3097 
Q 1594 3097 1305 2825 
Q 1016 2553 972 2059 
L 3022 2063 
z
" transform="scale(0.015625)"/>
      <path id="DejaVuSans-73" d="M 2834 3397 
L 2834 2853 
Q 2591 2978 2328 3040 
Q 2066 3103 1784 3103 
Q 1356 3103 1142 2972 
Q 928 2841 928 2578 
Q 928 2378 1081 2264 
Q 1234 2150 1697 2047 
L 1894 2003 
Q 2506 1872 2764 1633 
Q 3022 1394 3022 966 
Q 3022 478 2636 193 
Q 2250 -91 1575 -91 
Q 1294 -91 989 -36 
Q 684 19 347 128 
L 347 722 
Q 666 556 975 473 
Q 1284 391 1588 391 
Q 1994 391 2212 530 
Q 2431 669 2431 922 
Q 2431 1156 2273 1281 
Q 2116 1406 1581 1522 
L 1381 1569 
Q 847 1681 609 1914 
Q 372 2147 372 2553 
Q 372 3047 722 3315 
Q 1072 3584 1716 3584 
Q 2034 3584 2315 3537 
Q 2597 3491 2834 3397 
z
" transform="scale(0.015625)"/>
      <path id="DejaVuSans-72" d="M 2631 2963 
Q 2534 3019 2420 3045 
Q 2306 3072 2169 3072 
Q 1681 3072 1420 2755 
Q 1159 2438 1159 1844 
L 1159 0 
L 581 0 
L 581 3500 
L 1159 3500 
L 1159 2956 
Q 1341 3275 1631 3429 
Q 1922 3584 2338 3584 
Q 2397 3584 2469 3576 
Q 2541 3569 2628 3553 
L 2631 2963 
z
" transform="scale(0.015625)"/>
      <path id="DejaVuSans-5f" d="M 3263 -1063 
L 3263 -1509 
L -63 -1509 
L -63 -1063 
L 3263 -1063 
z
" transform="scale(0.015625)"/>
      <path id="DejaVuSans-6f" d="M 1959 3097 
Q 1497 3097 1228 2736 
Q 959 2375 959 1747 
Q 959 1119 1226 758 
Q 1494 397 1959 397 
Q 2419 397 2687 759 
Q 2956 1122 2956 1747 
Q 2956 2369 2687 2733 
Q 2419 3097 1959 3097 
z
M 1959 3584 
Q 2709 3584 3137 3096 
Q 3566 2609 3566 1747 
Q 3566 888 3137 398 
Q 2709 -91 1959 -91 
Q 1206 -91 779 398 
Q 353 888 353 1747 
Q 353 2609 779 3096 
Q 1206 3584 1959 3584 
z
" transform="scale(0.015625)"/>
      <path id="DejaVuSans-20" transform="scale(0.015625)"/>
      <path id="DejaVuSans-66" d="M 2375 4863 
L 2375 4384 
L 1825 4384 
Q 1516 4384 1395 4259 
Q 1275 4134 1275 3809 
L 1275 3500 
L 2222 3500 
L 2222 3053 
L 1275 3053 
L 1275 0 
L 697 0 
L 697 3053 
L 147 3053 
L 147 3500 
L 697 3500 
L 697 3744 
Q 697 4328 969 4595 
Q 1241 4863 1831 4863 
L 2375 4863 
z
" transform="scale(0.015625)"/>
      <path id="DejaVuSans-6b" d="M 581 4863 
L 1159 4863 
L 1159 1991 
L 2875 3500 
L 3609 3500 
L 1753 1863 
L 3688 0 
L 2938 0 
L 1159 1709 
L 1159 0 
L 581 0 
L 581 4863 
z
" transform="scale(0.015625)"/>
      <path id="DejaVuSans-63" d="M 3122 3366 
L 3122 2828 
Q 2878 2963 2633 3030 
Q 2388 3097 2138 3097 
Q 1578 3097 1268 2742 
Q 959 2388 959 1747 
Q 959 1106 1268 751 
Q 1578 397 2138 397 
Q 2388 397 2633 464 
Q 2878 531 3122 666 
L 3122 134 
Q 2881 22 2623 -34 
Q 2366 -91 2075 -91 
Q 1284 -91 818 406 
Q 353 903 353 1747 
Q 353 2603 823 3093 
Q 1294 3584 2113 3584 
Q 2378 3584 2631 3529 
Q 2884 3475 3122 3366 
z
" transform="scale(0.015625)"/>
     </defs>
     <use xlink:href="#DejaVuSans-65"/>
     <use xlink:href="#DejaVuSans-73" transform="translate(61.523438 0)"/>
     <use xlink:href="#DejaVuSans-70" transform="translate(113.623047 0)"/>
     <use xlink:href="#DejaVuSans-69" transform="translate(177.099609 0)"/>
     <use xlink:href="#DejaVuSans-72" transform="translate(204.882812 0)"/>
     <use xlink:href="#DejaVuSans-61" transform="translate(245.996094 0)"/>
     <use xlink:href="#DejaVuSans-6c" transform="translate(307.275391 0)"/>
     <use xlink:href="#DejaVuSans-65" transform="translate(335.058594 0)"/>
     <use xlink:href="#DejaVuSans-73" transform="translate(396.582031 0)"/>
     <use xlink:href="#DejaVuSans-5f" transform="translate(448.681641 0)"/>
     <use xlink:href="#DejaVuSans-6c" transform="translate(498.681641 0)"/>
     <use xlink:href="#DejaVuSans-6f" transform="translate(526.464844 0)"/>
     <use xlink:href="#DejaVuSans-20" transform="translate(587.646484 0)"/>
     <use xlink:href="#DejaVuSans-31" transform="translate(619.433594 0)"/>
     <use xlink:href="#DejaVuSans-34" transform="translate(683.056641 0)"/>
     <use xlink:href="#DejaVuSans-33" transform="translate(746.679688 0)"/>
     <use xlink:href="#DejaVuSans-34" transform="translate(810.302734 0)"/>
     <use xlink:href="#DejaVuSans-20" transform="translate(873.925781 0)"/>
     <use xlink:href="#DejaVuSans-66" transform="translate(905.712891 0)"/>
     <use xlink:href="#DejaVuSans-6b" transform="translate(940.917969 0)"/>
     <use xlink:href="#DejaVuSans-64" transform="translate(998.828125 0)"/>
     <use xlink:href="#DejaVuSans-63" transform="translate(1062.304688 0)"/>
    </g>
   </g>
  </g>
  <g id="axes_2">
   <g id="patch_7">
    <path d="M 399.775765 316.44327 
L 414.482022 316.44327 
L 414.482022 22.318125 
L 399.775765 22.318125 
z
" style="fill: #ffffff"/>
   </g>
   <g id="QuadMesh_1">
    <path d="M 399.775765 316.44327 
L 414.482022 316.44327 
L 414.482022 296.834927 
L 399.775765 296.834927 
L 399.775765 316.44327 
" clip-path="url(#pc0ec673121)" style="fill: #470d60"/>
    <path d="M 399.775765 296.834927 
L 414.482022 296.834927 
L 414.482022 277.226584 
L 399.775765 277.226584 
L 399.775765 296.834927 
" clip-path="url(#pc0ec673121)" style="fill: #482475"/>
    <path d="M 399.775765 277.226584 
L 414.482022 277.226584 
L 414.482022 257.618241 
L 399.775765 257.618241 
L 399.775765 277.226584 
" clip-path="url(#pc0ec673121)" style="fill: #443983"/>
    <path d="M 399.775765 257.618241 
L 414.482022 257.618241 
L 414.482022 238.009898 
L 399.775765 238.009898 
L 399.775765 257.618241 
" clip-path="url(#pc0ec673121)" style="fill: #3d4d8a"/>
    <path d="M 399.775765 238.009898 
L 414.482022 238.009898 
L 414.482022 218.401555 
L 399.775765 218.401555 
L 399.775765 238.009898 
" clip-path="url(#pc0ec673121)" style="fill: #355f8d"/>
    <path d="M 399.775765 218.401555 
L 414.482022 218.401555 
L 414.482022 198.793212 
L 399.775765 198.793212 
L 399.775765 218.401555 
" clip-path="url(#pc0ec673121)" style="fill: #2d708e"/>
    <path d="M 399.775765 198.793212 
L 414.482022 198.793212 
L 414.482022 179.184869 
L 399.775765 179.184869 
L 399.775765 198.793212 
" clip-path="url(#pc0ec673121)" style="fill: #27808e"/>
    <path d="M 399.775765 179.184869 
L 414.482022 179.184869 
L 414.482022 159.576526 
L 399.775765 159.576526 
L 399.775765 179.184869 
" clip-path="url(#pc0ec673121)" style="fill: #21918c"/>
    <path d="M 399.775765 159.576526 
L 414.482022 159.576526 
L 414.482022 139.968183 
L 399.775765 139.968183 
L 399.775765 159.576526 
" clip-path="url(#pc0ec673121)" style="fill: #1fa188"/>
    <path d="M 399.775765 139.968183 
L 414.482022 139.968183 
L 414.482022 120.35984 
L 399.775765 120.35984 
L 399.775765 139.968183 
" clip-path="url(#pc0ec673121)" style="fill: #2ab07f"/>
    <path d="M 399.775765 120.35984 
L 414.482022 120.35984 
L 414.482022 100.751497 
L 399.775765 100.751497 
L 399.775765 120.35984 
" clip-path="url(#pc0ec673121)" style="fill: #44bf70"/>
    <path d="M 399.775765 100.751497 
L 414.482022 100.751497 
L 414.482022 81.143154 
L 399.775765 81.143154 
L 399.775765 100.751497 
" clip-path="url(#pc0ec673121)" style="fill: #67cc5c"/>
    <path d="M 399.775765 81.143154 
L 414.482022 81.143154 
L 414.482022 61.534811 
L 399.775765 61.534811 
L 399.775765 81.143154 
" clip-path="url(#pc0ec673121)" style="fill: #90d743"/>
    <path d="M 399.775765 61.534811 
L 414.482022 61.534811 
L 414.482022 41.926468 
L 399.775765 41.926468 
L 399.775765 61.534811 
" clip-path="url(#pc0ec673121)" style="fill: #bddf26"/>
    <path d="M 399.775765 41.926468 
L 414.482022 41.926468 
L 414.482022 22.318125 
L 399.775765 22.318125 
L 399.775765 41.926468 
" clip-path="url(#pc0ec673121)" style="fill: #eae51a"/>
   </g>
   <g id="matplotlib.axis_3"/>
   <g id="matplotlib.axis_4">
    <g id="ytick_8">
     <g id="line2d_24">
      <defs>
       <path id="m0a27ea52cb" d="M 0 0 
L 3.5 0 
" style="stroke: #000000; stroke-width: 0.8"/>
      </defs>
      <g>
       <use xlink:href="#m0a27ea52cb" x="414.482022" y="296.834927" style="stroke: #000000; stroke-width: 0.8"/>
      </g>
     </g>
     <g id="text_13">
      <!-- -0.96 -->
      <g transform="translate(421.482022 300.634146) scale(0.1 -0.1)">
       <defs>
        <path id="DejaVuSans-2d" d="M 313 2009 
L 1997 2009 
L 1997 1497 
L 313 1497 
L 313 2009 
z
" transform="scale(0.015625)"/>
        <path id="DejaVuSans-39" d="M 703 97 
L 703 672 
Q 941 559 1184 500 
Q 1428 441 1663 441 
Q 2288 441 2617 861 
Q 2947 1281 2994 2138 
Q 2813 1869 2534 1725 
Q 2256 1581 1919 1581 
Q 1219 1581 811 2004 
Q 403 2428 403 3163 
Q 403 3881 828 4315 
Q 1253 4750 1959 4750 
Q 2769 4750 3195 4129 
Q 3622 3509 3622 2328 
Q 3622 1225 3098 567 
Q 2575 -91 1691 -91 
Q 1453 -91 1209 -44 
Q 966 3 703 97 
z
M 1959 2075 
Q 2384 2075 2632 2365 
Q 2881 2656 2881 3163 
Q 2881 3666 2632 3958 
Q 2384 4250 1959 4250 
Q 1534 4250 1286 3958 
Q 1038 3666 1038 3163 
Q 1038 2656 1286 2365 
Q 1534 2075 1959 2075 
z
" transform="scale(0.015625)"/>
        <path id="DejaVuSans-36" d="M 2113 2584 
Q 1688 2584 1439 2293 
Q 1191 2003 1191 1497 
Q 1191 994 1439 701 
Q 1688 409 2113 409 
Q 2538 409 2786 701 
Q 3034 994 3034 1497 
Q 3034 2003 2786 2293 
Q 2538 2584 2113 2584 
z
M 3366 4563 
L 3366 3988 
Q 3128 4100 2886 4159 
Q 2644 4219 2406 4219 
Q 1781 4219 1451 3797 
Q 1122 3375 1075 2522 
Q 1259 2794 1537 2939 
Q 1816 3084 2150 3084 
Q 2853 3084 3261 2657 
Q 3669 2231 3669 1497 
Q 3669 778 3244 343 
Q 2819 -91 2113 -91 
Q 1303 -91 875 529 
Q 447 1150 447 2328 
Q 447 3434 972 4092 
Q 1497 4750 2381 4750 
Q 2619 4750 2861 4703 
Q 3103 4656 3366 4563 
z
" transform="scale(0.015625)"/>
       </defs>
       <use xlink:href="#DejaVuSans-2d"/>
       <use xlink:href="#DejaVuSans-30" transform="translate(36.083984 0)"/>
       <use xlink:href="#DejaVuSans-2e" transform="translate(99.707031 0)"/>
       <use xlink:href="#DejaVuSans-39" transform="translate(131.494141 0)"/>
       <use xlink:href="#DejaVuSans-36" transform="translate(195.117188 0)"/>
      </g>
     </g>
    </g>
    <g id="ytick_9">
     <g id="line2d_25">
      <g>
       <use xlink:href="#m0a27ea52cb" x="414.482022" y="257.618241" style="stroke: #000000; stroke-width: 0.8"/>
      </g>
     </g>
     <g id="text_14">
      <!-- -0.84 -->
      <g transform="translate(421.482022 261.41746) scale(0.1 -0.1)">
       <defs>
        <path id="DejaVuSans-38" d="M 2034 2216 
Q 1584 2216 1326 1975 
Q 1069 1734 1069 1313 
Q 1069 891 1326 650 
Q 1584 409 2034 409 
Q 2484 409 2743 651 
Q 3003 894 3003 1313 
Q 3003 1734 2745 1975 
Q 2488 2216 2034 2216 
z
M 1403 2484 
Q 997 2584 770 2862 
Q 544 3141 544 3541 
Q 544 4100 942 4425 
Q 1341 4750 2034 4750 
Q 2731 4750 3128 4425 
Q 3525 4100 3525 3541 
Q 3525 3141 3298 2862 
Q 3072 2584 2669 2484 
Q 3125 2378 3379 2068 
Q 3634 1759 3634 1313 
Q 3634 634 3220 271 
Q 2806 -91 2034 -91 
Q 1263 -91 848 271 
Q 434 634 434 1313 
Q 434 1759 690 2068 
Q 947 2378 1403 2484 
z
M 1172 3481 
Q 1172 3119 1398 2916 
Q 1625 2713 2034 2713 
Q 2441 2713 2670 2916 
Q 2900 3119 2900 3481 
Q 2900 3844 2670 4047 
Q 2441 4250 2034 4250 
Q 1625 4250 1398 4047 
Q 1172 3844 1172 3481 
z
" transform="scale(0.015625)"/>
       </defs>
       <use xlink:href="#DejaVuSans-2d"/>
       <use xlink:href="#DejaVuSans-30" transform="translate(36.083984 0)"/>
       <use xlink:href="#DejaVuSans-2e" transform="translate(99.707031 0)"/>
       <use xlink:href="#DejaVuSans-38" transform="translate(131.494141 0)"/>
       <use xlink:href="#DejaVuSans-34" transform="translate(195.117188 0)"/>
      </g>
     </g>
    </g>
    <g id="ytick_10">
     <g id="line2d_26">
      <g>
       <use xlink:href="#m0a27ea52cb" x="414.482022" y="218.401555" style="stroke: #000000; stroke-width: 0.8"/>
      </g>
     </g>
     <g id="text_15">
      <!-- -0.72 -->
      <g transform="translate(421.482022 222.200774) scale(0.1 -0.1)">
       <defs>
        <path id="DejaVuSans-37" d="M 525 4666 
L 3525 4666 
L 3525 4397 
L 1831 0 
L 1172 0 
L 2766 4134 
L 525 4134 
L 525 4666 
z
" transform="scale(0.015625)"/>
       </defs>
       <use xlink:href="#DejaVuSans-2d"/>
       <use xlink:href="#DejaVuSans-30" transform="translate(36.083984 0)"/>
       <use xlink:href="#DejaVuSans-2e" transform="translate(99.707031 0)"/>
       <use xlink:href="#DejaVuSans-37" transform="translate(131.494141 0)"/>
       <use xlink:href="#DejaVuSans-32" transform="translate(195.117188 0)"/>
      </g>
     </g>
    </g>
    <g id="ytick_11">
     <g id="line2d_27">
      <g>
       <use xlink:href="#m0a27ea52cb" x="414.482022" y="179.184869" style="stroke: #000000; stroke-width: 0.8"/>
      </g>
     </g>
     <g id="text_16">
      <!-- -0.60 -->
      <g transform="translate(421.482022 182.984088) scale(0.1 -0.1)">
       <use xlink:href="#DejaVuSans-2d"/>
       <use xlink:href="#DejaVuSans-30" transform="translate(36.083984 0)"/>
       <use xlink:href="#DejaVuSans-2e" transform="translate(99.707031 0)"/>
       <use xlink:href="#DejaVuSans-36" transform="translate(131.494141 0)"/>
       <use xlink:href="#DejaVuSans-30" transform="translate(195.117188 0)"/>
      </g>
     </g>
    </g>
    <g id="ytick_12">
     <g id="line2d_28">
      <g>
       <use xlink:href="#m0a27ea52cb" x="414.482022" y="139.968183" style="stroke: #000000; stroke-width: 0.8"/>
      </g>
     </g>
     <g id="text_17">
      <!-- -0.48 -->
      <g transform="translate(421.482022 143.767402) scale(0.1 -0.1)">
       <use xlink:href="#DejaVuSans-2d"/>
       <use xlink:href="#DejaVuSans-30" transform="translate(36.083984 0)"/>
       <use xlink:href="#DejaVuSans-2e" transform="translate(99.707031 0)"/>
       <use xlink:href="#DejaVuSans-34" transform="translate(131.494141 0)"/>
       <use xlink:href="#DejaVuSans-38" transform="translate(195.117188 0)"/>
      </g>
     </g>
    </g>
    <g id="ytick_13">
     <g id="line2d_29">
      <g>
       <use xlink:href="#m0a27ea52cb" x="414.482022" y="100.751497" style="stroke: #000000; stroke-width: 0.8"/>
      </g>
     </g>
     <g id="text_18">
      <!-- -0.36 -->
      <g transform="translate(421.482022 104.550716) scale(0.1 -0.1)">
       <use xlink:href="#DejaVuSans-2d"/>
       <use xlink:href="#DejaVuSans-30" transform="translate(36.083984 0)"/>
       <use xlink:href="#DejaVuSans-2e" transform="translate(99.707031 0)"/>
       <use xlink:href="#DejaVuSans-33" transform="translate(131.494141 0)"/>
       <use xlink:href="#DejaVuSans-36" transform="translate(195.117188 0)"/>
      </g>
     </g>
    </g>
    <g id="ytick_14">
     <g id="line2d_30">
      <g>
       <use xlink:href="#m0a27ea52cb" x="414.482022" y="61.534811" style="stroke: #000000; stroke-width: 0.8"/>
      </g>
     </g>
     <g id="text_19">
      <!-- -0.24 -->
      <g transform="translate(421.482022 65.33403) scale(0.1 -0.1)">
       <use xlink:href="#DejaVuSans-2d"/>
       <use xlink:href="#DejaVuSans-30" transform="translate(36.083984 0)"/>
       <use xlink:href="#DejaVuSans-2e" transform="translate(99.707031 0)"/>
       <use xlink:href="#DejaVuSans-32" transform="translate(131.494141 0)"/>
       <use xlink:href="#DejaVuSans-34" transform="translate(195.117188 0)"/>
      </g>
     </g>
    </g>
    <g id="ytick_15">
     <g id="line2d_31">
      <g>
       <use xlink:href="#m0a27ea52cb" x="414.482022" y="22.318125" style="stroke: #000000; stroke-width: 0.8"/>
      </g>
     </g>
     <g id="text_20">
      <!-- -0.12 -->
      <g transform="translate(421.482022 26.117344) scale(0.1 -0.1)">
       <use xlink:href="#DejaVuSans-2d"/>
       <use xlink:href="#DejaVuSans-30" transform="translate(36.083984 0)"/>
       <use xlink:href="#DejaVuSans-2e" transform="translate(99.707031 0)"/>
       <use xlink:href="#DejaVuSans-31" transform="translate(131.494141 0)"/>
       <use xlink:href="#DejaVuSans-32" transform="translate(195.117188 0)"/>
      </g>
     </g>
    </g>
    <g id="text_21">
     <!-- Score -->
     <g transform="translate(458.953897 183.383041) rotate(-90) scale(0.1 -0.1)">
      <defs>
       <path id="DejaVuSans-53" d="M 3425 4513 
L 3425 3897 
Q 3066 4069 2747 4153 
Q 2428 4238 2131 4238 
Q 1616 4238 1336 4038 
Q 1056 3838 1056 3469 
Q 1056 3159 1242 3001 
Q 1428 2844 1947 2747 
L 2328 2669 
Q 3034 2534 3370 2195 
Q 3706 1856 3706 1288 
Q 3706 609 3251 259 
Q 2797 -91 1919 -91 
Q 1588 -91 1214 -16 
Q 841 59 441 206 
L 441 856 
Q 825 641 1194 531 
Q 1563 422 1919 422 
Q 2459 422 2753 634 
Q 3047 847 3047 1241 
Q 3047 1584 2836 1778 
Q 2625 1972 2144 2069 
L 1759 2144 
Q 1053 2284 737 2584 
Q 422 2884 422 3419 
Q 422 4038 858 4394 
Q 1294 4750 2059 4750 
Q 2388 4750 2728 4690 
Q 3069 4631 3425 4513 
z
" transform="scale(0.015625)"/>
      </defs>
      <use xlink:href="#DejaVuSans-53"/>
      <use xlink:href="#DejaVuSans-63" transform="translate(63.476562 0)"/>
      <use xlink:href="#DejaVuSans-6f" transform="translate(118.457031 0)"/>
      <use xlink:href="#DejaVuSans-72" transform="translate(179.638672 0)"/>
      <use xlink:href="#DejaVuSans-65" transform="translate(218.501953 0)"/>
     </g>
    </g>
   </g>
   <g id="LineCollection_1"/>
   <g id="patch_8">
    <path d="M 399.775765 316.44327 
L 407.128893 316.44327 
L 414.482022 316.44327 
L 414.482022 22.318125 
L 407.128893 22.318125 
L 399.775765 22.318125 
L 399.775765 316.44327 
z
" style="fill: none; stroke: #000000; stroke-width: 0.8; stroke-linejoin: miter; stroke-linecap: square"/>
   </g>
  </g>
 </g>
 <defs>
  <clipPath id="p9b3f57cb40">
   <rect x="43.78125" y="22.318125" width="339.042395" height="294.125145"/>
  </clipPath>
  <clipPath id="pc0ec673121">
   <rect x="399.775765" y="22.318125" width="14.706257" height="294.125145"/>
  </clipPath>
 </defs>
</svg>
