<?xml version="1.0" encoding="utf-8" standalone="no"?>
<!DOCTYPE svg PUBLIC "-//W3C//DTD SVG 1.1//EN"
  "http://www.w3.org/Graphics/SVG/1.1/DTD/svg11.dtd">
<svg xmlns:xlink="http://www.w3.org/1999/xlink" width="460.8pt" height="345.6pt" viewBox="0 0 460.8 345.6" xmlns="http://www.w3.org/2000/svg" version="1.1">
 <metadata>
  <rdf:RDF xmlns:dc="http://purl.org/dc/elements/1.1/" xmlns:cc="http://creativecommons.org/ns#" xmlns:rdf="http://www.w3.org/1999/02/22-rdf-syntax-ns#">
   <cc:Work>
    <dc:type rdf:resource="http://purl.org/dc/dcmitype/StillImage"/>
    <dc:date>2026-03-04T11:21:44.224814</dc:date>
    <dc:format>image/svg+xml</dc:format>
    <dc:creator>
     <cc:Agent>
      <dc:title>Matplotlib v3.10.7, https://matplotlib.org/</dc:title>
     </cc:Agent>
    </dc:creator>
   </cc:Work>
  </rdf:RDF>
 </metadata>
 <defs>
  <style type="text/css">*{stroke-linejoin: round; stroke-linecap: butt}</style>
 </defs>
 <g id="figure_1">
  <g id="patch_1">
   <path d="M 0 345.6 
L 460.8 345.6 
L 460.8 0 
L 0 0 
z
" style="fill: #ffffff"/>
  </g>
  <g id="axes_1">
   <g id="patch_2">
    <path d="M 39.58149 312.24351 
L 374.090697 312.24351 
L 374.090697 18.12024 
L 39.58149 18.12024 
z
" style="fill: #ffffff"/>
   </g>
   <g id="QuadContourSet_1">
    <path d="M 123.208792 264.513691 
L 124.982998 263.222965 
L 123.208792 258.601062 
L 122.901753 263.222965 
z
" clip-path="url(#p6ceba28125)" style="fill: #470d60"/>
    <path d="M 130.811274 312.24351 
L 134.627976 312.24351 
L 130.811274 295.125127 
L 129.952872 312.24351 
z
M 123.208792 267.895308 
L 128.742802 263.222965 
L 123.208792 246.491983 
L 122.061751 263.222965 
z
M 122.901753 263.222965 
L 123.208792 258.601062 
L 124.982998 263.222965 
L 123.208792 264.513691 
z
M 115.60631 218.559094 
L 118.041822 214.20242 
L 115.60631 203.465587 
L 114.895734 214.20242 
z
M 108.003828 166.088267 
L 108.343029 165.181875 
L 108.003828 163.894878 
L 107.929017 165.181875 
z
" clip-path="url(#p6ceba28125)" style="fill: #482475"/>
    <path d="M 130.811274 295.125127 
L 134.627976 312.24351 
L 137.824494 312.24351 
L 132.677586 287.733237 
L 131.546608 263.222965 
L 130.811274 259.175867 
L 124.9677 238.712693 
L 123.208792 233.940938 
L 122.584824 238.712693 
L 121.164671 263.222965 
L 123.208792 271.276925 
L 130.156918 287.733238 
L 128.947911 312.24351 
L 129.952872 312.24351 
z
M 122.061751 263.222965 
L 123.208792 246.491983 
L 128.742802 263.222965 
L 123.208792 267.895308 
z
M 115.60631 223.555538 
L 120.373977 214.20242 
L 115.60631 191.152068 
L 114.030775 214.20242 
z
M 114.895734 214.20242 
L 115.60631 203.465587 
L 118.041822 214.20242 
L 115.60631 218.559094 
z
M 108.003828 176.003862 
L 111.576346 165.181875 
L 108.003828 149.815597 
L 107.081675 165.181875 
z
M 107.929017 165.181875 
L 108.003828 163.894878 
L 108.343029 165.181875 
L 108.003828 166.088267 
z
M 100.401346 118.24427 
L 101.452419 116.16133 
L 100.401346 112.09633 
L 100.238946 116.16133 
z
" clip-path="url(#p6ceba28125)" style="fill: #443983"/>
    <path d="M 130.156918 287.733237 
L 123.208792 271.276925 
L 121.164671 263.222965 
L 122.584824 238.712693 
L 123.208792 233.940938 
L 124.9677 238.712693 
L 130.811274 259.175867 
L 131.546608 263.222965 
L 132.677586 287.733237 
L 137.824494 312.24351 
L 138.413756 312.24351 
L 139.845163 312.24351 
L 138.413756 303.781414 
L 135.283209 287.733237 
L 133.637986 263.222965 
L 130.811274 246.35356 
L 128.918707 238.712693 
L 123.208792 220.595815 
L 122.355456 214.20242 
L 122.374217 189.692148 
L 115.60631 175.521508 
L 114.171712 165.181875 
L 109.829566 140.671603 
L 108.003828 132.286574 
L 106.576536 140.671603 
L 106.176219 165.181875 
L 108.003828 185.919457 
L 110.787764 189.692148 
L 113.105171 214.20242 
L 115.60631 228.551982 
L 120.664865 238.712693 
L 120.202188 263.222965 
L 123.208792 274.658542 
L 128.997223 287.733237 
L 127.860134 312.24351 
L 128.947911 312.24351 
z
M 114.030775 214.20242 
L 115.60631 191.152068 
L 120.373977 214.20242 
L 115.60631 223.555538 
z
M 107.081675 165.181875 
L 108.003828 149.815597 
L 111.576346 165.181875 
L 108.003828 176.003862 
z
M 100.401346 128.689603 
L 105.740821 116.16133 
L 100.401346 91.711544 
L 99.393008 116.16133 
z
M 100.238946 116.16133 
L 100.401346 112.09633 
L 101.452419 116.16133 
L 100.401346 118.24427 
z
" clip-path="url(#p6ceba28125)" style="fill: #3d4d8a"/>
    <path d="M 128.997223 287.733237 
L 123.208792 274.658542 
L 120.202188 263.222965 
L 120.664865 238.712693 
L 115.60631 228.551982 
L 113.105171 214.20242 
L 110.787764 189.692148 
L 108.003828 185.919457 
L 106.176219 165.181875 
L 106.576536 140.671603 
L 108.003828 132.286574 
L 109.829566 140.671603 
L 114.171712 165.181875 
L 115.60631 175.521508 
L 122.374217 189.692148 
L 122.355456 214.20242 
L 123.208792 220.595815 
L 128.918707 238.712693 
L 130.811274 246.35356 
L 133.637986 263.222965 
L 135.283209 287.733237 
L 138.413756 303.781414 
L 139.845163 312.24351 
L 141.463866 312.24351 
L 138.413756 293.03927 
L 137.4585 287.733237 
L 135.443013 263.222965 
L 131.74411 238.712693 
L 130.811274 233.353751 
L 125.686023 214.20242 
L 125.311876 189.692148 
L 123.208792 177.312856 
L 118.363546 165.181875 
L 115.60631 154.849351 
L 113.971093 140.671603 
L 112.320887 116.16133 
L 108.003828 105.8486 
L 106.075946 91.651058 
L 102.340874 67.140785 
L 100.401346 53.651775 
L 98.713837 42.630513 
L 95.273145 18.12024 
L 92.798864 18.12024 
L 91.60652 18.12024 
L 91.068506 42.630513 
L 92.496632 67.140785 
L 92.798864 71.722577 
L 97.534393 91.651058 
L 98.489154 116.16133 
L 100.401346 139.134937 
L 101.374287 140.671603 
L 105.204086 165.181875 
L 106.76618 189.692148 
L 108.003828 193.457321 
L 112.109774 214.20242 
L 115.60631 233.548427 
L 118.417523 238.712693 
L 119.164008 263.222965 
L 123.208792 278.040159 
L 127.725806 287.733237 
L 126.674655 312.24351 
L 127.860134 312.24351 
z
M 99.393008 116.16133 
L 100.401346 91.711544 
L 105.740821 116.16133 
L 100.401346 128.689603 
z
" clip-path="url(#p6ceba28125)" style="fill: #355f8d"/>
    <path d="M 47.183972 312.24351 
L 54.786454 312.24351 
L 62.388936 312.24351 
L 69.991418 312.24351 
L 77.5939 312.24351 
L 85.196382 312.24351 
L 92.798864 312.24351 
L 98.557002 312.24351 
L 92.798864 303.904323 
L 87.605963 287.733237 
L 85.196382 283.315254 
L 77.5939 269.549051 
L 75.141992 263.222965 
L 69.991418 253.733975 
L 65.867204 238.712693 
L 62.388936 231.8849 
L 54.786454 218.372488 
L 53.359938 214.20242 
L 47.183972 201.619023 
L 44.02111 189.692148 
L 39.58149 182.181576 
L 39.58149 189.692148 
L 39.58149 214.20242 
L 39.58149 238.712693 
L 39.58149 263.222965 
L 39.58149 287.733237 
L 39.58149 312.24351 
z
M 127.725806 287.733237 
L 123.208792 278.040159 
L 119.164008 263.222965 
L 118.417523 238.712693 
L 115.60631 233.548427 
L 112.109774 214.20242 
L 108.003828 193.457321 
L 106.76618 189.692148 
L 105.204086 165.181875 
L 101.374287 140.671603 
L 100.401346 139.134937 
L 98.489154 116.16133 
L 97.534393 91.651058 
L 92.798864 71.722577 
L 92.496632 67.140785 
L 91.068506 42.630513 
L 91.60652 18.12024 
L 88.275608 18.12024 
L 88.572627 42.630513 
L 91.37745 67.140785 
L 92.798864 87.804766 
L 93.854817 91.651058 
L 97.518868 116.16133 
L 98.434653 140.671603 
L 100.401346 146.10966 
L 104.154669 165.181875 
L 104.485812 189.692148 
L 108.003828 199.534891 
L 111.033194 214.20242 
L 115.60631 238.544871 
L 115.707726 238.712693 
L 118.037201 263.222965 
L 123.208792 281.421776 
L 126.318825 287.733237 
L 125.372177 312.24351 
L 126.674655 312.24351 
z
M 138.413756 293.03927 
L 141.463866 312.24351 
L 142.905658 312.24351 
L 139.380573 287.733237 
L 138.413756 279.356242 
L 137.030743 263.222965 
L 133.803653 238.712692 
L 130.811274 220.092186 
L 129.435688 214.20242 
L 127.406297 189.692148 
L 123.617512 165.181875 
L 123.208792 162.882833 
L 117.93308 140.671603 
L 117.435103 116.16133 
L 115.60631 106.626539 
L 111.135584 91.651058 
L 108.003828 78.452164 
L 106.436651 67.140785 
L 105.280967 42.630513 
L 100.401346 23.108584 
L 99.745947 18.12024 
L 95.273145 18.12024 
L 98.713837 42.630513 
L 100.401346 53.651775 
L 102.340874 67.140785 
L 106.075946 91.651058 
L 108.003828 105.8486 
L 112.320887 116.16133 
L 113.971093 140.671603 
L 115.60631 154.849351 
L 118.363546 165.181875 
L 123.208792 177.312856 
L 125.311876 189.692148 
L 125.686023 214.20242 
L 130.811274 233.353751 
L 131.74411 238.712693 
L 135.443013 263.222965 
L 137.4585 287.733237 
z
M 199.233612 312.24351 
L 206.836094 312.24351 
L 214.438576 312.24351 
L 222.041058 312.24351 
L 229.64354 312.24351 
L 237.246022 312.24351 
L 244.848504 312.24351 
L 252.450986 312.24351 
L 260.053468 312.24351 
L 267.65595 312.24351 
L 275.258432 312.24351 
L 282.860914 312.24351 
L 290.463396 312.24351 
L 298.065878 312.24351 
L 305.66836 312.24351 
L 313.270841 312.24351 
L 320.873323 312.24351 
L 328.475805 312.24351 
L 336.078287 312.24351 
L 343.680769 312.24351 
L 351.283251 312.24351 
L 358.885733 312.24351 
L 366.488215 312.24351 
L 374.090697 312.24351 
L 374.090697 287.733237 
L 374.090697 263.222965 
L 374.090697 238.712693 
L 374.090697 214.20242 
L 374.090697 189.692148 
L 374.090697 165.181875 
L 374.090697 140.671603 
L 374.090697 116.16133 
L 374.090697 91.651058 
L 374.090697 67.140785 
L 374.090697 42.630513 
L 374.090697 18.12024 
L 366.488215 18.12024 
L 358.885733 18.12024 
L 351.283251 18.12024 
L 343.680769 18.12024 
L 336.078287 18.12024 
L 328.475805 18.12024 
L 320.873323 18.12024 
L 313.270841 18.12024 
L 305.66836 18.12024 
L 298.065878 18.12024 
L 290.463396 18.12024 
L 282.860914 18.12024 
L 275.258432 18.12024 
L 267.65595 18.12024 
L 260.053468 18.12024 
L 252.450986 18.12024 
L 244.848504 18.12024 
L 237.246022 18.12024 
L 229.64354 18.12024 
L 222.041058 18.12024 
L 214.438576 18.12024 
L 206.836094 18.12024 
L 199.233612 18.12024 
L 191.63113 18.12024 
L 184.028648 18.12024 
L 176.426166 18.12024 
L 175.149282 18.12024 
L 176.426166 37.03609 
L 177.384914 42.630513 
L 180.557671 67.140785 
L 182.591923 91.651058 
L 184.015242 116.16133 
L 184.028648 116.421946 
L 187.921679 140.671603 
L 190.037878 165.181875 
L 191.343074 189.692148 
L 191.63113 196.834039 
L 194.328397 214.20242 
L 196.019097 238.712693 
L 196.855399 263.222965 
L 197.044374 287.733237 
L 194.689251 312.24351 
z
" clip-path="url(#p6ceba28125)" style="fill: #2d708e"/>
    <path d="M 92.798864 303.904323 
L 98.557002 312.24351 
L 100.401346 312.24351 
L 104.384774 312.24351 
L 100.401346 302.189536 
L 95.375312 287.733237 
L 92.798864 281.36853 
L 86.40173 263.222965 
L 85.196382 260.636675 
L 77.5939 239.667682 
L 77.315608 238.712693 
L 69.991418 221.823734 
L 67.624524 214.20242 
L 62.388936 203.988058 
L 57.47948 189.692148 
L 54.786454 183.962504 
L 48.41798 165.181875 
L 47.183972 162.375795 
L 39.58149 142.060677 
L 39.58149 165.181875 
L 39.58149 182.181576 
L 44.02111 189.692148 
L 47.183972 201.619023 
L 53.359938 214.20242 
L 54.786454 218.372488 
L 62.388936 231.8849 
L 65.867204 238.712693 
L 69.991418 253.733975 
L 75.141992 263.222965 
L 77.5939 269.549051 
L 85.196382 283.315254 
L 87.605963 287.733237 
z
M 126.318825 287.733237 
L 123.208792 281.421776 
L 118.037201 263.222965 
L 115.707726 238.712693 
L 115.60631 238.544871 
L 111.033194 214.20242 
L 108.003828 199.534891 
L 104.485812 189.692148 
L 104.154669 165.181875 
L 100.401346 146.10966 
L 98.434653 140.671603 
L 97.518868 116.16133 
L 93.854817 91.651058 
L 92.798864 87.804766 
L 91.37745 67.140785 
L 88.572627 42.630513 
L 88.275608 18.12024 
L 85.196382 18.12024 
L 84.800917 18.12024 
L 85.196382 36.874263 
L 85.492517 42.630513 
L 90.15457 67.140785 
L 90.767262 91.651058 
L 92.798864 96.687554 
L 96.471604 116.16133 
L 95.679846 140.671603 
L 100.401346 152.485734 
L 103.014612 165.181875 
L 101.727798 189.692148 
L 108.003828 205.612461 
L 109.861003 214.20242 
L 109.701941 238.712693 
L 115.60631 251.489026 
L 116.805212 263.222965 
L 123.208792 284.803393 
L 124.74388 287.733237 
L 123.927049 312.24351 
L 125.372177 312.24351 
z
M 141.105152 287.733237 
L 138.463461 263.222965 
L 138.413756 262.898612 
L 135.584928 238.712693 
L 132.011356 214.20242 
L 130.811274 205.476227 
L 129.21359 189.692148 
L 125.912397 165.181875 
L 123.208792 148.565439 
L 121.56485 140.671603 
L 119.766131 116.16133 
L 115.60631 92.393218 
L 115.417002 91.651058 
L 110.407191 67.140785 
L 109.408898 42.630513 
L 108.003828 35.543351 
L 104.041014 18.12024 
L 100.401346 18.12024 
L 99.745947 18.12024 
L 100.401346 23.108584 
L 105.280967 42.630513 
L 106.436651 67.140785 
L 108.003828 78.452164 
L 111.135584 91.651058 
L 115.60631 106.626539 
L 117.435103 116.16133 
L 117.93308 140.671603 
L 123.208792 162.882833 
L 123.617512 165.181875 
L 127.406297 189.692148 
L 129.435688 214.20242 
L 130.811274 220.092186 
L 133.803653 238.712693 
L 137.030743 263.222965 
L 138.413756 279.356242 
L 139.380573 287.733237 
L 142.905658 312.24351 
L 144.205427 312.24351 
z
M 191.63113 312.24351 
L 194.689251 312.24351 
L 197.044374 287.733237 
L 196.855399 263.222965 
L 196.019097 238.712693 
L 194.328397 214.20242 
L 191.63113 196.834039 
L 191.343074 189.692148 
L 190.037878 165.181875 
L 187.921679 140.671603 
L 184.028648 116.421946 
L 184.015242 116.16133 
L 182.591923 91.651058 
L 180.557671 67.140785 
L 177.384914 42.630513 
L 176.426166 37.03609 
L 175.149282 18.12024 
L 168.823684 18.12024 
L 168.474084 18.12024 
L 168.823684 22.419735 
L 171.718779 42.630513 
L 174.157629 67.140785 
L 175.877264 91.651058 
L 176.426166 100.718554 
L 178.577502 116.16133 
L 181.058405 140.671603 
L 182.708288 165.181875 
L 183.850612 189.692148 
L 184.028648 194.006993 
L 186.504895 214.20242 
L 188.298504 238.712693 
L 189.26126 263.222965 
L 189.513559 287.733237 
L 188.782488 312.24351 
z
M 85.196382 142.276231 
L 87.198616 140.671603 
L 85.196382 131.592971 
L 84.77667 140.671603 
z
M 69.991418 68.414035 
L 72.423012 67.140785 
L 69.991418 57.945089 
L 69.659258 67.140785 
z
" clip-path="url(#p6ceba28125)" style="fill: #27808e"/>
    <path d="M 100.401346 302.189536 
L 104.384774 312.24351 
L 107.780095 312.24351 
L 100.401346 290.869878 
L 99.461686 287.733237 
L 92.798864 268.346231 
L 91.283581 263.222965 
L 85.196382 247.376357 
L 82.626914 238.712693 
L 77.5939 224.607508 
L 74.236059 214.20242 
L 69.991418 202.264962 
L 64.770242 189.692148 
L 62.388936 183.469579 
L 54.786454 165.513365 
L 54.696968 165.181875 
L 47.183972 143.227723 
L 46.461504 140.671603 
L 39.58149 120.661568 
L 39.58149 140.671603 
L 39.58149 142.060677 
L 47.183972 162.375795 
L 48.41798 165.181875 
L 54.786454 183.962504 
L 57.47948 189.692148 
L 62.388936 203.988058 
L 67.624524 214.20242 
L 69.991418 221.823734 
L 77.315608 238.712693 
L 77.5939 239.667682 
L 85.196382 260.636675 
L 86.40173 263.222965 
L 92.798864 281.36853 
L 95.375312 287.733237 
z
M 123.208792 312.24351 
L 123.927049 312.24351 
L 124.74388 287.733237 
L 123.208792 284.803393 
L 116.805212 263.222965 
L 115.60631 251.489026 
L 109.701941 238.712693 
L 109.861003 214.20242 
L 108.003828 205.612461 
L 101.727798 189.692148 
L 103.014612 165.181875 
L 100.401346 152.485734 
L 95.679846 140.671603 
L 96.471604 116.16133 
L 92.798864 96.687554 
L 90.767262 91.651058 
L 90.15457 67.140785 
L 85.492517 42.630513 
L 85.196382 36.874263 
L 84.800917 18.12024 
L 83.254172 18.12024 
L 83.212898 42.630513 
L 85.196382 49.773136 
L 88.806796 67.140785 
L 87.510147 91.651058 
L 92.798864 103.307246 
L 95.334087 116.16133 
L 92.798864 138.859802 
L 87.4689 116.16133 
L 85.196382 103.4657 
L 83.299871 116.16133 
L 82.7315 140.671603 
L 85.196382 149.40543 
L 91.136314 165.181875 
L 92.798864 171.092486 
L 96.784359 165.181875 
L 100.401346 158.861808 
L 101.766764 165.181875 
L 100.401346 180.560856 
L 99.281235 189.692148 
L 100.401346 196.442389 
L 108.003828 211.690031 
L 108.57455 214.20242 
L 108.003828 222.600158 
L 105.831737 238.712693 
L 108.003828 245.581786 
L 115.300439 263.222965 
L 115.60631 265.239384 
L 122.640332 287.733237 
L 122.22437 312.24351 
z
M 84.77667 140.671603 
L 85.196382 131.592971 
L 87.198616 140.671603 
L 85.196382 142.276231 
z
M 142.630321 287.733237 
L 140.285881 263.222965 
L 138.413756 250.122846 
L 137.154257 238.712693 
L 133.928878 214.20242 
L 130.811274 189.778162 
L 130.803071 189.692148 
L 127.866926 165.181875 
L 124.320559 140.671603 
L 123.208792 132.141693 
L 121.746796 116.16133 
L 118.089269 91.651058 
L 115.60631 75.924752 
L 114.027905 67.140785 
L 111.89956 42.630513 
L 108.003828 20.96926 
L 107.431801 18.12024 
L 104.041014 18.12024 
L 108.003828 35.543351 
L 109.408898 42.630513 
L 110.407191 67.140785 
L 115.417002 91.651058 
L 115.60631 92.393218 
L 119.766131 116.16133 
L 121.56485 140.671603 
L 123.208792 148.565439 
L 125.912397 165.181875 
L 129.21359 189.692148 
L 130.811274 205.476227 
L 132.011356 214.20242 
L 135.584928 238.712693 
L 138.413756 262.898612 
L 138.463461 263.222965 
L 141.105152 287.733237 
L 144.205427 312.24351 
L 145.388662 312.24351 
z
M 189.513559 287.733237 
L 189.26126 263.222965 
L 188.298504 238.712693 
L 186.504895 214.20242 
L 184.028648 194.006993 
L 183.850612 189.692148 
L 182.708288 165.181875 
L 181.058405 140.671603 
L 178.577502 116.16133 
L 176.426166 100.718554 
L 175.877264 91.651058 
L 174.157629 67.140785 
L 171.718779 42.630513 
L 168.823684 22.419735 
L 168.474084 18.12024 
L 163.848051 18.12024 
L 166.662489 42.630513 
L 168.823684 66.276573 
L 168.957874 67.140785 
L 172.166665 91.651058 
L 174.345909 116.16133 
L 176.032557 140.671603 
L 176.426166 146.729407 
L 178.786557 165.181875 
L 180.909 189.692148 
L 182.375491 214.20242 
L 183.436447 238.712693 
L 184.028648 258.247969 
L 184.451252 263.222965 
L 185.269857 287.733237 
L 184.3386 312.24351 
L 188.782488 312.24351 
z
M 77.5939 100.690681 
L 82.569478 91.651058 
L 79.201528 67.140785 
L 77.5939 62.608686 
L 72.39456 42.630513 
L 69.991418 28.974699 
L 68.054378 42.630513 
L 67.811142 67.140785 
L 69.991418 74.942192 
L 76.111827 91.651058 
z
M 69.659258 67.140785 
L 69.991418 57.945089 
L 72.423012 67.140785 
L 69.991418 68.414035 
z
M 62.388936 26.814607 
L 67.479858 18.12024 
L 62.388936 18.12024 
L 59.922668 18.12024 
z
" clip-path="url(#p6ceba28125)" style="fill: #21918c"/>
    <path d="M 100.401346 290.869878 
L 107.780095 312.24351 
L 108.003828 312.24351 
L 111.13849 312.24351 
L 108.003828 303.013097 
L 103.344801 287.733237 
L 100.401346 278.84551 
L 95.761464 263.222965 
L 92.798864 254.49778 
L 87.458532 238.712693 
L 85.196382 232.708896 
L 79.618049 214.20242 
L 77.5939 208.87274 
L 72.0563 189.692148 
L 69.991418 184.120209 
L 64.540422 165.181875 
L 62.388936 159.609937 
L 56.270262 140.671603 
L 54.786454 136.926912 
L 47.99724 116.16133 
L 47.183972 114.161067 
L 39.58149 92.520604 
L 39.58149 116.16133 
L 39.58149 120.661568 
L 46.461504 140.671603 
L 47.183972 143.227723 
L 54.696968 165.181875 
L 54.786454 165.513365 
L 62.388936 183.469579 
L 64.770242 189.692148 
L 69.991418 202.264962 
L 74.236059 214.20242 
L 77.5939 224.607508 
L 82.626914 238.712693 
L 85.196382 247.376357 
L 91.283581 263.222965 
L 92.798864 268.346231 
L 99.461686 287.733237 
z
M 122.640332 287.733237 
L 115.60631 265.239384 
L 115.300439 263.222965 
L 108.003828 245.581786 
L 105.831737 238.712693 
L 108.003828 222.600158 
L 108.57455 214.20242 
L 108.003828 211.690031 
L 100.401346 196.442389 
L 99.281235 189.692148 
L 100.401346 180.560856 
L 101.766764 165.181875 
L 100.401346 158.861808 
L 96.784359 165.181875 
L 92.798864 171.092486 
L 91.136314 165.181875 
L 85.196382 149.40543 
L 82.7315 140.671603 
L 83.299871 116.16133 
L 85.196382 103.4657 
L 87.4689 116.16133 
L 92.798864 138.859802 
L 95.334087 116.16133 
L 92.798864 103.307246 
L 87.510147 91.651058 
L 88.806796 67.140785 
L 85.196382 49.773136 
L 83.212898 42.630513 
L 83.254172 18.12024 
L 81.501947 18.12024 
L 80.640349 42.630513 
L 77.5939 52.404793 
L 75.303535 42.630513 
L 71.939555 18.12024 
L 69.991418 18.12024 
L 67.479858 18.12024 
L 62.388936 26.814607 
L 59.922668 18.12024 
L 56.114279 18.12024 
L 62.388936 37.422862 
L 64.534324 42.630513 
L 65.661665 67.140785 
L 69.991418 81.470349 
L 74.044448 91.651058 
L 77.5939 111.720193 
L 79.49854 116.16133 
L 80.31054 140.671603 
L 77.5939 156.031075 
L 75.334577 165.181875 
L 77.5939 173.667896 
L 80.466553 165.181875 
L 85.196382 156.534629 
L 88.775621 165.181875 
L 92.798864 178.304198 
L 97.128721 189.692148 
L 100.401346 207.911937 
L 104.617264 214.20242 
L 102.458868 238.712693 
L 108.003828 254.242248 
L 112.2142 263.222965 
L 115.60631 283.173364 
L 117.366671 287.733237 
L 120.190667 312.24351 
L 122.22437 312.24351 
z
M 90.479539 116.16133 
L 92.798864 109.926939 
L 94.089281 116.16133 
L 92.798864 127.170372 
z
M 76.111827 91.651058 
L 69.991418 74.942192 
L 67.811142 67.140785 
L 68.054378 42.630513 
L 69.991418 28.974699 
L 72.39456 42.630513 
L 77.5939 62.608686 
L 79.201528 67.140785 
L 82.569478 91.651058 
L 77.5939 100.690681 
z
M 82.233235 67.140785 
L 85.196382 57.574322 
L 87.305683 67.140785 
L 85.196382 85.338003 
z
M 146.016238 312.24351 
L 146.93137 312.24351 
L 146.016238 307.227844 
L 143.997453 287.733237 
L 141.887047 263.222965 
L 138.663662 238.712693 
L 138.413756 237.464533 
L 135.602965 214.20242 
L 132.918953 189.692148 
L 130.811274 176.224939 
L 129.569138 165.181875 
L 126.505922 140.671603 
L 123.621245 116.16133 
L 123.208792 113.963164 
L 120.284347 91.651058 
L 116.931605 67.140785 
L 115.60631 58.633571 
L 113.99421 42.630513 
L 110.498903 18.12024 
L 108.003828 18.12024 
L 107.431801 18.12024 
L 108.003828 20.96926 
L 111.89956 42.630513 
L 114.027905 67.140785 
L 115.60631 75.924752 
L 118.089269 91.651058 
L 121.746796 116.16133 
L 123.208792 132.141693 
L 124.320559 140.671603 
L 127.866926 165.181875 
L 130.803071 189.692148 
L 130.811274 189.778162 
L 133.928878 214.20242 
L 137.154257 238.712692 
L 138.413756 250.122846 
L 140.285881 263.222965 
L 142.630321 287.733237 
L 145.388662 312.24351 
z
M 184.028648 312.24351 
L 184.3386 312.24351 
L 185.269857 287.733237 
L 184.451252 263.222965 
L 184.028648 258.247969 
L 183.436447 238.712693 
L 182.375491 214.20242 
L 180.909 189.692148 
L 178.786557 165.181875 
L 176.426166 146.729407 
L 176.032557 140.671603 
L 174.345909 116.16133 
L 172.166665 91.651058 
L 168.957874 67.140785 
L 168.823684 66.276573 
L 166.662489 42.630513 
L 163.848051 18.12024 
L 161.221202 18.12024 
L 159.603546 18.12024 
L 161.221202 39.325308 
L 161.759495 42.630513 
L 165.104218 67.140785 
L 167.754076 91.651058 
L 168.823684 102.186383 
L 170.68657 116.16133 
L 173.173272 140.671603 
L 175.110071 165.181875 
L 176.426166 184.155753 
L 177.118642 189.692148 
L 179.501563 214.20242 
L 181.087397 238.712692 
L 182.158972 263.222965 
L 182.694736 287.733237 
L 182.640118 312.24351 
z
M 85.196382 194.164798 
L 86.480646 189.692148 
L 85.196382 185.664489 
L 84.071195 189.692148 
z
M 47.183972 44.618677 
L 48.678167 42.630513 
L 47.183972 38.758611 
L 46.69263 42.630513 
z
M 42.389608 18.12024 
L 39.58149 18.12024 
L 39.58149 22.4138 
z
" clip-path="url(#p6ceba28125)" style="fill: #1fa188"/>
    <path d="M 108.003828 303.013097 
L 111.13849 312.24351 
L 113.856454 312.24351 
L 115.60631 299.85883 
L 117.785772 312.24351 
L 120.190667 312.24351 
L 117.366671 287.733237 
L 115.60631 283.173364 
L 112.2142 263.222965 
L 108.003828 254.242248 
L 102.458868 238.712693 
L 104.617264 214.20242 
L 100.401346 207.911937 
L 97.128721 189.692148 
L 92.798864 178.304198 
L 88.775621 165.181875 
L 85.196382 156.534629 
L 80.466553 165.181875 
L 77.5939 173.667896 
L 75.334577 165.181875 
L 77.5939 156.031075 
L 80.31054 140.671603 
L 79.49854 116.16133 
L 77.5939 111.720193 
L 74.044448 91.651058 
L 69.991418 81.470349 
L 65.661665 67.140785 
L 64.534324 42.630513 
L 62.388936 37.422862 
L 56.114279 18.12024 
L 54.786454 18.12024 
L 47.183972 18.12024 
L 42.389608 18.12024 
L 39.58149 22.4138 
L 39.58149 33.03066 
L 43.434176 42.630513 
L 47.183972 56.087061 
L 51.56659 67.140785 
L 54.786454 78.901114 
L 59.63916 91.651058 
L 62.388936 102.010453 
L 67.300763 91.651058 
L 69.991418 87.998505 
L 71.59228 91.651058 
L 69.991418 106.489551 
L 68.41099 116.16133 
L 69.991418 121.591163 
L 77.266778 140.671603 
L 69.991418 164.840233 
L 62.531435 140.671603 
L 62.388936 140.256097 
L 54.959561 116.16133 
L 54.786454 115.734284 
L 47.361855 91.651058 
L 47.183972 91.198891 
L 39.769762 67.140785 
L 39.58149 66.659382 
L 39.58149 67.140785 
L 39.58149 91.651058 
L 39.58149 92.520604 
L 47.183972 114.161067 
L 47.99724 116.16133 
L 54.786454 136.926912 
L 56.270262 140.671603 
L 62.388936 159.609937 
L 64.540422 165.181875 
L 69.991418 184.120209 
L 72.0563 189.692148 
L 77.5939 208.87274 
L 79.618049 214.20242 
L 85.196382 232.708896 
L 87.458532 238.712693 
L 92.798864 254.49778 
L 95.761464 263.222965 
L 100.401346 278.84551 
L 103.344801 287.733237 
z
M 106.567468 287.733237 
L 100.401346 266.551019 
L 99.540419 263.222965 
L 100.401346 254.660622 
L 108.003828 262.90271 
L 108.17949 263.222965 
L 111.705996 287.733237 
L 108.003828 293.030346 
z
M 92.403191 238.712693 
L 92.798864 236.416915 
L 94.366027 238.712693 
L 92.798864 240.113492 
z
M 84.901309 214.20242 
L 85.196382 212.917361 
L 85.875434 214.20242 
L 85.196382 215.389283 
z
M 77.420269 189.692148 
L 77.5939 189.081061 
L 77.908945 189.692148 
L 77.5939 190.423602 
z
M 84.071195 189.692148 
L 85.196382 185.664489 
L 86.480646 189.692148 
L 85.196382 194.164798 
z
M 90.81558 189.692148 
L 92.798864 185.51591 
L 94.55574 189.692148 
L 92.798864 199.021485 
z
M 84.479348 165.181875 
L 85.196382 163.663828 
L 85.899084 165.181875 
L 85.196382 168.777653 
z
M 61.152441 67.140785 
L 62.388936 59.247754 
L 63.093028 67.140785 
L 62.388936 73.004179 
z
M 46.69263 42.630513 
L 47.183972 38.758611 
L 48.678167 42.630513 
L 47.183972 44.618677 
z
M 146.016238 307.227844 
L 146.93137 312.24351 
L 148.833661 312.24351 
L 146.016238 295.620452 
L 145.236245 287.733237 
L 143.314913 263.222965 
L 140.797567 238.712693 
L 138.413756 225.787581 
L 137.08852 214.20242 
L 134.745454 189.692148 
L 131.334748 165.181875 
L 130.811274 162.539942 
L 128.38049 140.671603 
L 125.949801 116.16133 
L 123.208792 100.178862 
L 122.166054 91.651058 
L 119.371362 67.140785 
L 115.990898 42.630513 
L 115.60631 40.500997 
L 113.05976 18.12024 
L 110.498903 18.12024 
L 113.99421 42.630513 
L 115.60631 58.633571 
L 116.931605 67.140785 
L 120.284347 91.651058 
L 123.208792 113.963164 
L 123.621245 116.16133 
L 126.505922 140.671603 
L 129.569138 165.181875 
L 130.811274 176.224939 
L 132.918953 189.692148 
L 135.602965 214.20242 
L 138.413756 237.464533 
L 138.663662 238.712693 
L 141.887047 263.222965 
L 143.997453 287.733237 
z
M 182.694736 287.733237 
L 182.158972 263.222965 
L 181.087397 238.712693 
L 179.501563 214.20242 
L 177.118642 189.692148 
L 176.426166 184.155753 
L 175.110071 165.181875 
L 173.173272 140.671603 
L 170.68657 116.16133 
L 168.823684 102.186383 
L 167.754076 91.651058 
L 165.104218 67.140785 
L 161.759495 42.630513 
L 161.221202 39.325308 
L 159.603546 18.12024 
L 156.175664 18.12024 
L 158.404111 42.630513 
L 160.503542 67.140785 
L 161.221202 75.672694 
L 163.569395 91.651058 
L 166.604894 116.16133 
L 168.823684 135.406516 
L 169.518847 140.671603 
L 172.179952 165.181875 
L 174.275953 189.692148 
L 176.080344 214.20242 
L 176.426166 219.499185 
L 178.228151 238.712693 
L 179.796091 263.222965 
L 180.714561 287.733237 
L 180.986505 312.24351 
L 182.640118 312.24351 
z
M 92.798864 127.170372 
L 94.089281 116.16133 
L 92.798864 109.926939 
L 90.479539 116.16133 
z
M 85.196382 85.338003 
L 87.305683 67.140785 
L 85.196382 57.574322 
L 82.233235 67.140785 
z
M 84.697285 67.140785 
L 85.196382 65.375509 
L 85.611808 67.140785 
L 85.196382 70.498674 
z
M 77.5939 52.404793 
L 80.640349 42.630513 
L 81.501947 18.12024 
L 79.48116 18.12024 
L 77.5939 41.412845 
L 75.363885 18.12024 
L 71.939555 18.12024 
L 75.303535 42.630513 
z
" clip-path="url(#p6ceba28125)" style="fill: #2ab07f"/>
    <path d="M 108.003828 293.030346 
L 111.705996 287.733237 
L 108.17949 263.222965 
L 108.003828 262.90271 
L 100.401346 254.660622 
L 99.540419 263.222965 
L 100.401346 266.551019 
L 106.567468 287.733237 
z
M 115.60631 312.24351 
L 117.785772 312.24351 
L 115.60631 299.85883 
L 113.856454 312.24351 
z
M 146.016238 295.620452 
L 148.833661 312.24351 
L 150.496132 312.24351 
L 147.011394 287.733237 
L 146.016238 282.61648 
L 144.603356 263.222965 
L 142.634166 238.712693 
L 138.44189 214.20242 
L 138.413756 214.072819 
L 136.349767 189.692148 
L 133.859165 165.181875 
L 130.811274 148.22025 
L 130.021756 140.671603 
L 127.928683 116.16133 
L 124.548183 91.651058 
L 123.208792 84.879724 
L 121.42992 67.140785 
L 118.937969 42.630513 
L 115.60631 21.951178 
L 115.203791 18.12024 
L 113.05976 18.12024 
L 115.60631 40.500997 
L 115.990898 42.630513 
L 119.371362 67.140785 
L 122.166054 91.651058 
L 123.208792 100.178862 
L 125.949801 116.16133 
L 128.38049 140.671603 
L 130.811274 162.539942 
L 131.334748 165.181875 
L 134.745454 189.692148 
L 137.08852 214.20242 
L 138.413756 225.787581 
L 140.797567 238.712693 
L 143.314913 263.222965 
L 145.236245 287.733238 
z
M 180.714561 287.733237 
L 179.796091 263.222965 
L 178.228151 238.712693 
L 176.426166 219.499185 
L 176.080344 214.20242 
L 174.275953 189.692148 
L 172.179952 165.181875 
L 169.518847 140.671603 
L 168.823684 135.406516 
L 166.604894 116.16133 
L 163.569395 91.651058 
L 161.221202 75.672694 
L 160.503542 67.140785 
L 158.404111 42.630513 
L 156.175664 18.12024 
L 153.61872 18.12024 
L 151.963959 18.12024 
L 153.61872 35.5539 
L 154.410565 42.630513 
L 156.890285 67.140785 
L 159.212482 91.651058 
L 161.221202 113.248327 
L 161.682213 116.16133 
L 165.158642 140.671603 
L 168.400956 165.181875 
L 168.823684 168.490213 
L 171.180897 189.692148 
L 173.420902 214.20242 
L 175.278945 238.712693 
L 176.426166 257.329661 
L 176.9163 263.222965 
L 178.384214 287.733237 
L 179.095807 312.24351 
L 180.986505 312.24351 
z
M 92.798864 240.113492 
L 94.366027 238.712693 
L 92.798864 236.416915 
L 92.403191 238.712693 
z
M 85.196382 215.389283 
L 85.875434 214.20242 
L 85.196382 212.917361 
L 84.901309 214.20242 
z
M 77.5939 190.423602 
L 77.908945 189.692148 
L 77.5939 189.081061 
L 77.420269 189.692148 
z
M 92.798864 199.021485 
L 94.55574 189.692148 
L 92.798864 185.51591 
L 90.81558 189.692147 
z
M 85.196382 168.777653 
L 85.899084 165.181875 
L 85.196382 163.663828 
L 84.479348 165.181875 
z
M 69.991418 164.840233 
L 77.266778 140.671603 
L 69.991418 121.591163 
L 68.41099 116.16133 
L 69.991418 106.489551 
L 71.59228 91.651058 
L 69.991418 87.998505 
L 67.300763 91.651058 
L 62.388936 102.010453 
L 59.63916 91.651058 
L 54.786454 78.901114 
L 51.56659 67.140785 
L 47.183972 56.087061 
L 43.434176 42.630513 
L 39.58149 33.03066 
L 39.58149 42.630513 
L 39.58149 66.659382 
L 39.769762 67.140785 
L 47.183972 91.198891 
L 47.361855 91.651058 
L 54.786454 115.734284 
L 54.959561 116.16133 
L 62.388936 140.256097 
L 62.531435 140.671603 
z
M 68.675987 140.671603 
L 69.991418 136.480112 
L 71.967639 140.671603 
L 69.991418 145.98084 
z
M 62.113006 116.16133 
L 62.388936 115.481275 
L 62.750608 116.16133 
L 62.388936 117.319262 
z
M 54.665793 91.651058 
L 54.786454 91.381414 
L 54.909896 91.651058 
L 54.786454 92.160385 
z
M 62.388936 73.004179 
L 63.093028 67.140785 
L 62.388936 59.247754 
L 61.152441 67.140785 
z
M 85.196382 70.498674 
L 85.611808 67.140785 
L 85.196382 65.375509 
L 84.697285 67.140785 
z
M 77.5939 41.412845 
L 79.48116 18.12024 
L 77.5939 18.12024 
L 75.363885 18.12024 
z
" clip-path="url(#p6ceba28125)" style="fill: #44bf70"/>
    <path d="M 149.707403 287.733237 
L 146.016238 266.651593 
L 145.777198 263.222965 
L 144.246264 238.712693 
L 141.605889 214.20242 
L 138.413756 197.585933 
L 137.780136 189.692148 
L 135.977617 165.181875 
L 132.794556 140.671603 
L 130.811274 131.216253 
L 129.649328 116.16133 
L 127.52588 91.651058 
L 123.21503 67.140785 
L 123.208792 67.113828 
L 121.345894 42.630513 
L 118.967334 18.12024 
L 115.60631 18.12024 
L 115.203791 18.12024 
L 115.60631 21.951178 
L 118.937969 42.630513 
L 121.42992 67.140785 
L 123.208792 84.879724 
L 124.548183 91.651058 
L 127.928683 116.16133 
L 130.021756 140.671603 
L 130.811274 148.22025 
L 133.859165 165.181875 
L 136.349767 189.692148 
L 138.413756 214.072819 
L 138.44189 214.20242 
L 142.634166 238.712693 
L 144.603356 263.222965 
L 146.016238 282.61648 
L 147.011394 287.733237 
L 150.496132 312.24351 
L 151.972536 312.24351 
z
M 176.426166 302.486949 
L 176.888476 312.24351 
L 179.095807 312.24351 
L 178.384214 287.733237 
L 176.9163 263.222965 
L 176.426166 257.329661 
L 175.278945 238.712693 
L 173.420902 214.20242 
L 171.180897 189.692148 
L 168.823684 168.490213 
L 168.400956 165.181875 
L 165.158642 140.671603 
L 161.682213 116.16133 
L 161.221202 113.248327 
L 159.212482 91.651058 
L 156.890285 67.140785 
L 154.410565 42.630513 
L 153.61872 35.5539 
L 151.963959 18.12024 
L 146.699733 18.12024 
L 149.372464 42.630513 
L 152.029968 67.140785 
L 153.61872 82.400738 
L 154.656735 91.651058 
L 157.273866 116.16133 
L 159.832713 140.671603 
L 161.221202 154.614346 
L 162.977856 165.181875 
L 166.822569 189.692148 
L 168.823684 203.056305 
L 170.087337 214.20242 
L 172.461275 238.712693 
L 174.340188 263.222965 
L 175.78133 287.733237 
z
M 69.991418 145.98084 
L 71.967639 140.671603 
L 69.991418 136.480112 
L 68.675987 140.671603 
z
M 62.388936 117.319262 
L 62.750608 116.16133 
L 62.388936 115.481275 
L 62.113006 116.16133 
z
M 54.786454 92.160385 
L 54.909896 91.651058 
L 54.786454 91.381414 
L 54.665793 91.651058 
z
" clip-path="url(#p6ceba28125)" style="fill: #67cc5c"/>
    <path d="M 151.945263 287.733237 
L 149.49975 263.222965 
L 146.016238 244.596956 
L 145.682814 238.712693 
L 144.156477 214.20242 
L 141.337298 189.692148 
L 138.413756 175.306841 
L 137.802764 165.181875 
L 136.207561 140.671603 
L 132.863354 116.16133 
L 130.811274 106.789939 
L 129.954184 91.651058 
L 128.319885 67.140785 
L 124.397841 42.630513 
L 123.208792 37.420855 
L 122.260242 18.12024 
L 118.967334 18.12024 
L 121.345894 42.630513 
L 123.208792 67.113828 
L 123.21503 67.140785 
L 127.52588 91.651058 
L 129.649328 116.16133 
L 130.811274 131.216253 
L 132.794556 140.671603 
L 135.977617 165.181875 
L 137.780136 189.692148 
L 138.413756 197.585933 
L 141.605889 214.20242 
L 144.246264 238.712693 
L 145.777198 263.222965 
L 146.016238 266.651593 
L 149.707403 287.733237 
L 151.972536 312.24351 
L 153.300362 312.24351 
z
M 176.426166 312.24351 
L 176.888476 312.24351 
L 176.426166 302.486949 
L 175.78133 287.733237 
L 174.340188 263.222965 
L 172.461275 238.712693 
L 170.087337 214.20242 
L 168.823684 203.056305 
L 166.822569 189.692148 
L 162.977856 165.181875 
L 161.221202 154.614346 
L 159.832713 140.671603 
L 157.273866 116.16133 
L 154.656735 91.651058 
L 153.61872 82.400738 
L 152.029968 67.140785 
L 149.372464 42.630513 
L 146.699733 18.12024 
L 146.016238 18.12024 
L 138.413756 18.12024 
L 138.324248 18.12024 
L 138.413756 18.802343 
L 141.693546 42.630513 
L 144.871498 67.140785 
L 146.016238 76.125701 
L 148.109848 91.651058 
L 151.214486 116.16133 
L 153.61872 135.512397 
L 154.293755 140.671603 
L 157.335935 165.181875 
L 160.185442 189.692148 
L 161.221202 198.289881 
L 164.369899 214.20242 
L 168.823684 238.276535 
L 168.874714 238.712693 
L 171.373574 263.222965 
L 173.240935 287.733237 
L 174.559461 312.24351 
z
" clip-path="url(#p6ceba28125)" style="fill: #90d743"/>
    <path d="M 153.61872 312.24351 
L 158.672357 312.24351 
L 155.738714 287.733237 
L 153.61872 278.97054 
L 152.91647 263.222965 
L 151.653354 238.712693 
L 149.467462 214.20242 
L 146.016238 200.838641 
L 145.600502 189.692148 
L 145.26315 165.181875 
L 146.016238 153.975303 
L 147.628044 165.181875 
L 151.389092 189.692148 
L 153.61872 195.139569 
L 156.042384 214.20242 
L 159.413413 238.712692 
L 161.221202 248.027915 
L 165.078583 263.222965 
L 168.823684 274.764464 
L 170.092634 287.733237 
L 171.821681 312.24351 
L 174.559461 312.24351 
L 173.240935 287.733237 
L 171.373574 263.222965 
L 168.874714 238.712693 
L 168.823684 238.276535 
L 164.369899 214.20242 
L 161.221202 198.289881 
L 160.185442 189.692148 
L 157.335935 165.181875 
L 154.293755 140.671603 
L 153.61872 135.512397 
L 151.214486 116.16133 
L 148.109848 91.651058 
L 146.016238 76.125701 
L 144.871498 67.140785 
L 141.693546 42.630513 
L 138.413756 18.802343 
L 138.324248 18.12024 
L 130.811274 18.12024 
L 123.208792 18.12024 
L 122.260242 18.12024 
L 123.208792 37.420855 
L 124.397841 42.630513 
L 128.319885 67.140785 
L 129.954184 91.651058 
L 130.811274 106.789939 
L 132.863354 116.16133 
L 136.207561 140.671603 
L 137.802764 165.181875 
L 138.413756 175.306841 
L 141.337298 189.692148 
L 144.156477 214.20242 
L 145.682814 238.712693 
L 146.016238 244.596956 
L 149.49975 263.222965 
L 151.945263 287.733237 
L 153.300362 312.24351 
z
" clip-path="url(#p6ceba28125)" style="fill: #bddf26"/>
    <path d="M 161.221202 312.24351 
L 168.823684 312.24351 
L 171.821681 312.24351 
L 170.092634 287.733237 
L 168.823684 274.764464 
L 165.078583 263.222965 
L 161.221202 248.027915 
L 159.413413 238.712693 
L 156.042384 214.20242 
L 153.61872 195.139569 
L 151.389092 189.692148 
L 147.628044 165.181875 
L 146.016238 153.975303 
L 145.26315 165.181875 
L 145.600502 189.692148 
L 146.016238 200.838641 
L 149.467462 214.20242 
L 151.653354 238.712693 
L 152.91647 263.222965 
L 153.61872 278.97054 
L 155.738714 287.733237 
L 158.672357 312.24351 
z
" clip-path="url(#p6ceba28125)" style="fill: #eae51a"/>
   </g>
   <g id="PathCollection_1">
    <defs>
     <path id="m98d3e8a39a" d="M -3 3 
L 3 -3 
M -3 -3 
L 3 3 
" style="stroke: #ff0000; stroke-width: 1.5"/>
    </defs>
    <g clip-path="url(#p6ceba28125)">
     <use xlink:href="#m98d3e8a39a" x="168.823684" y="312.24351" style="fill: #ff0000; stroke: #ff0000; stroke-width: 1.5"/>
     <use xlink:href="#m98d3e8a39a" x="161.221202" y="287.733237" style="fill: #ff0000; stroke: #ff0000; stroke-width: 1.5"/>
     <use xlink:href="#m98d3e8a39a" x="153.61872" y="263.222965" style="fill: #ff0000; stroke: #ff0000; stroke-width: 1.5"/>
     <use xlink:href="#m98d3e8a39a" x="153.61872" y="238.712693" style="fill: #ff0000; stroke: #ff0000; stroke-width: 1.5"/>
     <use xlink:href="#m98d3e8a39a" x="153.61872" y="214.20242" style="fill: #ff0000; stroke: #ff0000; stroke-width: 1.5"/>
     <use xlink:href="#m98d3e8a39a" x="146.016238" y="189.692148" style="fill: #ff0000; stroke: #ff0000; stroke-width: 1.5"/>
     <use xlink:href="#m98d3e8a39a" x="146.016238" y="165.181875" style="fill: #ff0000; stroke: #ff0000; stroke-width: 1.5"/>
     <use xlink:href="#m98d3e8a39a" x="146.016238" y="140.671603" style="fill: #ff0000; stroke: #ff0000; stroke-width: 1.5"/>
     <use xlink:href="#m98d3e8a39a" x="138.413756" y="116.16133" style="fill: #ff0000; stroke: #ff0000; stroke-width: 1.5"/>
     <use xlink:href="#m98d3e8a39a" x="138.413756" y="91.651058" style="fill: #ff0000; stroke: #ff0000; stroke-width: 1.5"/>
     <use xlink:href="#m98d3e8a39a" x="130.811274" y="67.140785" style="fill: #ff0000; stroke: #ff0000; stroke-width: 1.5"/>
     <use xlink:href="#m98d3e8a39a" x="130.811274" y="42.630513" style="fill: #ff0000; stroke: #ff0000; stroke-width: 1.5"/>
     <use xlink:href="#m98d3e8a39a" x="130.811274" y="18.12024" style="fill: #ff0000; stroke: #ff0000; stroke-width: 1.5"/>
    </g>
   </g>
   <g id="matplotlib.axis_1">
    <g id="xtick_1">
     <g id="line2d_1">
      <defs>
       <path id="m8c9f7414a3" d="M 0 0 
L 0 3.5 
" style="stroke: #000000; stroke-width: 0.8"/>
      </defs>
      <g>
       <use xlink:href="#m8c9f7414a3" x="39.58149" y="312.24351" style="stroke: #000000; stroke-width: 0.8"/>
      </g>
     </g>
     <g id="text_1">
      <!-- $\mathdefault{10^{-5}}$ -->
      <g transform="translate(27.83149 326.841947) scale(0.1 -0.1)">
       <defs>
        <path id="DejaVuSans-31" d="M 794 531 
L 1825 531 
L 1825 4091 
L 703 3866 
L 703 4441 
L 1819 4666 
L 2450 4666 
L 2450 531 
L 3481 531 
L 3481 0 
L 794 0 
L 794 531 
z
" transform="scale(0.015625)"/>
        <path id="DejaVuSans-30" d="M 2034 4250 
Q 1547 4250 1301 3770 
Q 1056 3291 1056 2328 
Q 1056 1369 1301 889 
Q 1547 409 2034 409 
Q 2525 409 2770 889 
Q 3016 1369 3016 2328 
Q 3016 3291 2770 3770 
Q 2525 4250 2034 4250 
z
M 2034 4750 
Q 2819 4750 3233 4129 
Q 3647 3509 3647 2328 
Q 3647 1150 3233 529 
Q 2819 -91 2034 -91 
Q 1250 -91 836 529 
Q 422 1150 422 2328 
Q 422 3509 836 4129 
Q 1250 4750 2034 4750 
z
" transform="scale(0.015625)"/>
        <path id="DejaVuSans-2212" d="M 678 2272 
L 4684 2272 
L 4684 1741 
L 678 1741 
L 678 2272 
z
" transform="scale(0.015625)"/>
        <path id="DejaVuSans-35" d="M 691 4666 
L 3169 4666 
L 3169 4134 
L 1269 4134 
L 1269 2991 
Q 1406 3038 1543 3061 
Q 1681 3084 1819 3084 
Q 2600 3084 3056 2656 
Q 3513 2228 3513 1497 
Q 3513 744 3044 326 
Q 2575 -91 1722 -91 
Q 1428 -91 1123 -41 
Q 819 9 494 109 
L 494 744 
Q 775 591 1075 516 
Q 1375 441 1709 441 
Q 2250 441 2565 725 
Q 2881 1009 2881 1497 
Q 2881 1984 2565 2268 
Q 2250 2553 1709 2553 
Q 1456 2553 1204 2497 
Q 953 2441 691 2322 
L 691 4666 
z
" transform="scale(0.015625)"/>
       </defs>
       <use xlink:href="#DejaVuSans-31" transform="translate(0 0.684375)"/>
       <use xlink:href="#DejaVuSans-30" transform="translate(63.623047 0.684375)"/>
       <use xlink:href="#DejaVuSans-2212" transform="translate(128.203125 38.965625) scale(0.7)"/>
       <use xlink:href="#DejaVuSans-35" transform="translate(186.855469 38.965625) scale(0.7)"/>
      </g>
     </g>
    </g>
    <g id="xtick_2">
     <g id="line2d_2">
      <g>
       <use xlink:href="#m8c9f7414a3" x="100.401346" y="312.24351" style="stroke: #000000; stroke-width: 0.8"/>
      </g>
     </g>
     <g id="text_2">
      <!-- $\mathdefault{10^{-3}}$ -->
      <g transform="translate(88.651346 326.841947) scale(0.1 -0.1)">
       <defs>
        <path id="DejaVuSans-33" d="M 2597 2516 
Q 3050 2419 3304 2112 
Q 3559 1806 3559 1356 
Q 3559 666 3084 287 
Q 2609 -91 1734 -91 
Q 1441 -91 1130 -33 
Q 819 25 488 141 
L 488 750 
Q 750 597 1062 519 
Q 1375 441 1716 441 
Q 2309 441 2620 675 
Q 2931 909 2931 1356 
Q 2931 1769 2642 2001 
Q 2353 2234 1838 2234 
L 1294 2234 
L 1294 2753 
L 1863 2753 
Q 2328 2753 2575 2939 
Q 2822 3125 2822 3475 
Q 2822 3834 2567 4026 
Q 2313 4219 1838 4219 
Q 1578 4219 1281 4162 
Q 984 4106 628 3988 
L 628 4550 
Q 988 4650 1302 4700 
Q 1616 4750 1894 4750 
Q 2613 4750 3031 4423 
Q 3450 4097 3450 3541 
Q 3450 3153 3228 2886 
Q 3006 2619 2597 2516 
z
" transform="scale(0.015625)"/>
       </defs>
       <use xlink:href="#DejaVuSans-31" transform="translate(0 0.765625)"/>
       <use xlink:href="#DejaVuSans-30" transform="translate(63.623047 0.765625)"/>
       <use xlink:href="#DejaVuSans-2212" transform="translate(128.203125 39.046875) scale(0.7)"/>
       <use xlink:href="#DejaVuSans-33" transform="translate(186.855469 39.046875) scale(0.7)"/>
      </g>
     </g>
    </g>
    <g id="xtick_3">
     <g id="line2d_3">
      <g>
       <use xlink:href="#m8c9f7414a3" x="161.221202" y="312.24351" style="stroke: #000000; stroke-width: 0.8"/>
      </g>
     </g>
     <g id="text_3">
      <!-- $\mathdefault{10^{-1}}$ -->
      <g transform="translate(149.471202 326.841947) scale(0.1 -0.1)">
       <use xlink:href="#DejaVuSans-31" transform="translate(0 0.684375)"/>
       <use xlink:href="#DejaVuSans-30" transform="translate(63.623047 0.684375)"/>
       <use xlink:href="#DejaVuSans-2212" transform="translate(128.203125 38.965625) scale(0.7)"/>
       <use xlink:href="#DejaVuSans-31" transform="translate(186.855469 38.965625) scale(0.7)"/>
      </g>
     </g>
    </g>
    <g id="xtick_4">
     <g id="line2d_4">
      <g>
       <use xlink:href="#m8c9f7414a3" x="222.041058" y="312.24351" style="stroke: #000000; stroke-width: 0.8"/>
      </g>
     </g>
     <g id="text_4">
      <!-- $\mathdefault{10^{1}}$ -->
      <g transform="translate(213.241058 326.841947) scale(0.1 -0.1)">
       <use xlink:href="#DejaVuSans-31" transform="translate(0 0.684375)"/>
       <use xlink:href="#DejaVuSans-30" transform="translate(63.623047 0.684375)"/>
       <use xlink:href="#DejaVuSans-31" transform="translate(128.203125 38.965625) scale(0.7)"/>
      </g>
     </g>
    </g>
    <g id="xtick_5">
     <g id="line2d_5">
      <g>
       <use xlink:href="#m8c9f7414a3" x="282.860914" y="312.24351" style="stroke: #000000; stroke-width: 0.8"/>
      </g>
     </g>
     <g id="text_5">
      <!-- $\mathdefault{10^{3}}$ -->
      <g transform="translate(274.060914 326.841947) scale(0.1 -0.1)">
       <use xlink:href="#DejaVuSans-31" transform="translate(0 0.765625)"/>
       <use xlink:href="#DejaVuSans-30" transform="translate(63.623047 0.765625)"/>
       <use xlink:href="#DejaVuSans-33" transform="translate(128.203125 39.046875) scale(0.7)"/>
      </g>
     </g>
    </g>
    <g id="xtick_6">
     <g id="line2d_6">
      <g>
       <use xlink:href="#m8c9f7414a3" x="343.680769" y="312.24351" style="stroke: #000000; stroke-width: 0.8"/>
      </g>
     </g>
     <g id="text_6">
      <!-- $\mathdefault{10^{5}}$ -->
      <g transform="translate(334.880769 326.841947) scale(0.1 -0.1)">
       <use xlink:href="#DejaVuSans-31" transform="translate(0 0.684375)"/>
       <use xlink:href="#DejaVuSans-30" transform="translate(63.623047 0.684375)"/>
       <use xlink:href="#DejaVuSans-35" transform="translate(128.203125 38.965625) scale(0.7)"/>
      </g>
     </g>
    </g>
    <g id="text_7">
     <!-- $h$ -->
     <g transform="translate(203.636094 340.520072) scale(0.1 -0.1)">
      <defs>
       <path id="DejaVuSans-Oblique-68" d="M 3566 2113 
L 3156 0 
L 2578 0 
L 2988 2091 
Q 3016 2238 3031 2350 
Q 3047 2463 3047 2528 
Q 3047 2791 2881 2937 
Q 2716 3084 2419 3084 
Q 1956 3084 1617 2771 
Q 1278 2459 1178 1941 
L 800 0 
L 225 0 
L 1172 4863 
L 1747 4863 
L 1375 2950 
Q 1594 3244 1934 3414 
Q 2275 3584 2650 3584 
Q 3113 3584 3367 3334 
Q 3622 3084 3622 2631 
Q 3622 2519 3608 2391 
Q 3594 2263 3566 2113 
z
" transform="scale(0.015625)"/>
      </defs>
      <use xlink:href="#DejaVuSans-Oblique-68" transform="translate(0 0.015625)"/>
     </g>
    </g>
   </g>
   <g id="matplotlib.axis_2">
    <g id="ytick_1">
     <g id="line2d_7">
      <defs>
       <path id="m0df208063e" d="M 0 0 
L -3.5 0 
" style="stroke: #000000; stroke-width: 0.8"/>
      </defs>
      <g>
       <use xlink:href="#m0df208063e" x="39.58149" y="312.24351" style="stroke: #000000; stroke-width: 0.8"/>
      </g>
     </g>
     <g id="text_8">
      <!-- 1.0 -->
      <g transform="translate(16.678365 316.042729) scale(0.1 -0.1)">
       <defs>
        <path id="DejaVuSans-2e" d="M 684 794 
L 1344 794 
L 1344 0 
L 684 0 
L 684 794 
z
" transform="scale(0.015625)"/>
       </defs>
       <use xlink:href="#DejaVuSans-31"/>
       <use xlink:href="#DejaVuSans-2e" transform="translate(63.623047 0)"/>
       <use xlink:href="#DejaVuSans-30" transform="translate(95.410156 0)"/>
      </g>
     </g>
    </g>
    <g id="ytick_2">
     <g id="line2d_8">
      <g>
       <use xlink:href="#m0df208063e" x="39.58149" y="263.222965" style="stroke: #000000; stroke-width: 0.8"/>
      </g>
     </g>
     <g id="text_9">
      <!-- 1.5 -->
      <g transform="translate(16.678365 267.022184) scale(0.1 -0.1)">
       <use xlink:href="#DejaVuSans-31"/>
       <use xlink:href="#DejaVuSans-2e" transform="translate(63.623047 0)"/>
       <use xlink:href="#DejaVuSans-35" transform="translate(95.410156 0)"/>
      </g>
     </g>
    </g>
    <g id="ytick_3">
     <g id="line2d_9">
      <g>
       <use xlink:href="#m0df208063e" x="39.58149" y="214.20242" style="stroke: #000000; stroke-width: 0.8"/>
      </g>
     </g>
     <g id="text_10">
      <!-- 2.0 -->
      <g transform="translate(16.678365 218.001639) scale(0.1 -0.1)">
       <defs>
        <path id="DejaVuSans-32" d="M 1228 531 
L 3431 531 
L 3431 0 
L 469 0 
L 469 531 
Q 828 903 1448 1529 
Q 2069 2156 2228 2338 
Q 2531 2678 2651 2914 
Q 2772 3150 2772 3378 
Q 2772 3750 2511 3984 
Q 2250 4219 1831 4219 
Q 1534 4219 1204 4116 
Q 875 4013 500 3803 
L 500 4441 
Q 881 4594 1212 4672 
Q 1544 4750 1819 4750 
Q 2544 4750 2975 4387 
Q 3406 4025 3406 3419 
Q 3406 3131 3298 2873 
Q 3191 2616 2906 2266 
Q 2828 2175 2409 1742 
Q 1991 1309 1228 531 
z
" transform="scale(0.015625)"/>
       </defs>
       <use xlink:href="#DejaVuSans-32"/>
       <use xlink:href="#DejaVuSans-2e" transform="translate(63.623047 0)"/>
       <use xlink:href="#DejaVuSans-30" transform="translate(95.410156 0)"/>
      </g>
     </g>
    </g>
    <g id="ytick_4">
     <g id="line2d_10">
      <g>
       <use xlink:href="#m0df208063e" x="39.58149" y="165.181875" style="stroke: #000000; stroke-width: 0.8"/>
      </g>
     </g>
     <g id="text_11">
      <!-- 2.5 -->
      <g transform="translate(16.678365 168.981094) scale(0.1 -0.1)">
       <use xlink:href="#DejaVuSans-32"/>
       <use xlink:href="#DejaVuSans-2e" transform="translate(63.623047 0)"/>
       <use xlink:href="#DejaVuSans-35" transform="translate(95.410156 0)"/>
      </g>
     </g>
    </g>
    <g id="ytick_5">
     <g id="line2d_11">
      <g>
       <use xlink:href="#m0df208063e" x="39.58149" y="116.16133" style="stroke: #000000; stroke-width: 0.8"/>
      </g>
     </g>
     <g id="text_12">
      <!-- 3.0 -->
      <g transform="translate(16.678365 119.960549) scale(0.1 -0.1)">
       <use xlink:href="#DejaVuSans-33"/>
       <use xlink:href="#DejaVuSans-2e" transform="translate(63.623047 0)"/>
       <use xlink:href="#DejaVuSans-30" transform="translate(95.410156 0)"/>
      </g>
     </g>
    </g>
    <g id="ytick_6">
     <g id="line2d_12">
      <g>
       <use xlink:href="#m0df208063e" x="39.58149" y="67.140785" style="stroke: #000000; stroke-width: 0.8"/>
      </g>
     </g>
     <g id="text_13">
      <!-- 3.5 -->
      <g transform="translate(16.678365 70.940004) scale(0.1 -0.1)">
       <use xlink:href="#DejaVuSans-33"/>
       <use xlink:href="#DejaVuSans-2e" transform="translate(63.623047 0)"/>
       <use xlink:href="#DejaVuSans-35" transform="translate(95.410156 0)"/>
      </g>
     </g>
    </g>
    <g id="ytick_7">
     <g id="line2d_13">
      <g>
       <use xlink:href="#m0df208063e" x="39.58149" y="18.12024" style="stroke: #000000; stroke-width: 0.8"/>
      </g>
     </g>
     <g id="text_14">
      <!-- 4.0 -->
      <g transform="translate(16.678365 21.919459) scale(0.1 -0.1)">
       <defs>
        <path id="DejaVuSans-34" d="M 2419 4116 
L 825 1625 
L 2419 1625 
L 2419 4116 
z
M 2253 4666 
L 3047 4666 
L 3047 1625 
L 3713 1625 
L 3713 1100 
L 3047 1100 
L 3047 0 
L 2419 0 
L 2419 1100 
L 313 1100 
L 313 1709 
L 2253 4666 
z
" transform="scale(0.015625)"/>
       </defs>
       <use xlink:href="#DejaVuSans-34"/>
       <use xlink:href="#DejaVuSans-2e" transform="translate(63.623047 0)"/>
       <use xlink:href="#DejaVuSans-30" transform="translate(95.410156 0)"/>
      </g>
     </g>
    </g>
    <g id="text_15">
     <!-- $\alpha$ -->
     <g transform="translate(10.598677 168.481875) rotate(-90) scale(0.1 -0.1)">
      <defs>
       <path id="DejaVuSans-Oblique-3b1" d="M 2619 1628 
L 2622 2350 
Q 2625 3088 2069 3091 
Q 1653 3094 1394 2747 
Q 1069 2319 959 1747 
Q 825 1059 994 731 
Q 1169 397 1547 397 
Q 1966 397 2319 1063 
L 2619 1628 
z
M 2166 3578 
Q 3141 3594 3128 2584 
Q 3128 2584 3616 3500 
L 4128 3500 
L 3119 1603 
L 3109 919 
Q 3109 766 3194 638 
Q 3291 488 3391 488 
L 3669 488 
L 3575 0 
L 3228 0 
Q 2934 0 2722 263 
Q 2622 394 2619 669 
Q 2416 334 2066 50 
Q 1900 -81 1453 -78 
Q 722 -72 456 397 
Q 184 884 353 1747 
Q 534 2675 1009 3097 
Q 1544 3569 2166 3578 
z
" transform="scale(0.015625)"/>
      </defs>
      <use xlink:href="#DejaVuSans-Oblique-3b1" transform="translate(0 0.84375)"/>
     </g>
    </g>
   </g>
   <g id="patch_3">
    <path d="M 39.58149 312.24351 
L 39.58149 18.12024 
" style="fill: none; stroke: #000000; stroke-width: 0.8; stroke-linejoin: miter; stroke-linecap: square"/>
   </g>
   <g id="patch_4">
    <path d="M 374.090697 312.24351 
L 374.090697 18.12024 
" style="fill: none; stroke: #000000; stroke-width: 0.8; stroke-linejoin: miter; stroke-linecap: square"/>
   </g>
   <g id="patch_5">
    <path d="M 39.58149 312.24351 
L 374.090697 312.24351 
" style="fill: none; stroke: #000000; stroke-width: 0.8; stroke-linejoin: miter; stroke-linecap: square"/>
   </g>
   <g id="patch_6">
    <path d="M 39.58149 18.12024 
L 374.090697 18.12024 
" style="fill: none; stroke: #000000; stroke-width: 0.8; stroke-linejoin: miter; stroke-linecap: square"/>
   </g>
   <g id="text_16">
    <!-- Exactitud para $\alpha$ y $h$ -->
    <g transform="translate(145.936094 12.12024) scale(0.12 -0.12)">
     <defs>
      <path id="DejaVuSans-45" d="M 628 4666 
L 3578 4666 
L 3578 4134 
L 1259 4134 
L 1259 2753 
L 3481 2753 
L 3481 2222 
L 1259 2222 
L 1259 531 
L 3634 531 
L 3634 0 
L 628 0 
L 628 4666 
z
" transform="scale(0.015625)"/>
      <path id="DejaVuSans-78" d="M 3513 3500 
L 2247 1797 
L 3578 0 
L 2900 0 
L 1881 1375 
L 863 0 
L 184 0 
L 1544 1831 
L 300 3500 
L 978 3500 
L 1906 2253 
L 2834 3500 
L 3513 3500 
z
" transform="scale(0.015625)"/>
      <path id="DejaVuSans-61" d="M 2194 1759 
Q 1497 1759 1228 1600 
Q 959 1441 959 1056 
Q 959 750 1161 570 
Q 1363 391 1709 391 
Q 2188 391 2477 730 
Q 2766 1069 2766 1631 
L 2766 1759 
L 2194 1759 
z
M 3341 1997 
L 3341 0 
L 2766 0 
L 2766 531 
Q 2569 213 2275 61 
Q 1981 -91 1556 -91 
Q 1019 -91 701 211 
Q 384 513 384 1019 
Q 384 1609 779 1909 
Q 1175 2209 1959 2209 
L 2766 2209 
L 2766 2266 
Q 2766 2663 2505 2880 
Q 2244 3097 1772 3097 
Q 1472 3097 1187 3025 
Q 903 2953 641 2809 
L 641 3341 
Q 956 3463 1253 3523 
Q 1550 3584 1831 3584 
Q 2591 3584 2966 3190 
Q 3341 2797 3341 1997 
z
" transform="scale(0.015625)"/>
      <path id="DejaVuSans-63" d="M 3122 3366 
L 3122 2828 
Q 2878 2963 2633 3030 
Q 2388 3097 2138 3097 
Q 1578 3097 1268 2742 
Q 959 2388 959 1747 
Q 959 1106 1268 751 
Q 1578 397 2138 397 
Q 2388 397 2633 464 
Q 2878 531 3122 666 
L 3122 134 
Q 2881 22 2623 -34 
Q 2366 -91 2075 -91 
Q 1284 -91 818 406 
Q 353 903 353 1747 
Q 353 2603 823 3093 
Q 1294 3584 2113 3584 
Q 2378 3584 2631 3529 
Q 2884 3475 3122 3366 
z
" transform="scale(0.015625)"/>
      <path id="DejaVuSans-74" d="M 1172 4494 
L 1172 3500 
L 2356 3500 
L 2356 3053 
L 1172 3053 
L 1172 1153 
Q 1172 725 1289 603 
Q 1406 481 1766 481 
L 2356 481 
L 2356 0 
L 1766 0 
Q 1100 0 847 248 
Q 594 497 594 1153 
L 594 3053 
L 172 3053 
L 172 3500 
L 594 3500 
L 594 4494 
L 1172 4494 
z
" transform="scale(0.015625)"/>
      <path id="DejaVuSans-69" d="M 603 3500 
L 1178 3500 
L 1178 0 
L 603 0 
L 603 3500 
z
M 603 4863 
L 1178 4863 
L 1178 4134 
L 603 4134 
L 603 4863 
z
" transform="scale(0.015625)"/>
      <path id="DejaVuSans-75" d="M 544 1381 
L 544 3500 
L 1119 3500 
L 1119 1403 
Q 1119 906 1312 657 
Q 1506 409 1894 409 
Q 2359 409 2629 706 
Q 2900 1003 2900 1516 
L 2900 3500 
L 3475 3500 
L 3475 0 
L 2900 0 
L 2900 538 
Q 2691 219 2414 64 
Q 2138 -91 1772 -91 
Q 1169 -91 856 284 
Q 544 659 544 1381 
z
M 1991 3584 
L 1991 3584 
z
" transform="scale(0.015625)"/>
      <path id="DejaVuSans-64" d="M 2906 2969 
L 2906 4863 
L 3481 4863 
L 3481 0 
L 2906 0 
L 2906 525 
Q 2725 213 2448 61 
Q 2172 -91 1784 -91 
Q 1150 -91 751 415 
Q 353 922 353 1747 
Q 353 2572 751 3078 
Q 1150 3584 1784 3584 
Q 2172 3584 2448 3432 
Q 2725 3281 2906 2969 
z
M 947 1747 
Q 947 1113 1208 752 
Q 1469 391 1925 391 
Q 2381 391 2643 752 
Q 2906 1113 2906 1747 
Q 2906 2381 2643 2742 
Q 2381 3103 1925 3103 
Q 1469 3103 1208 2742 
Q 947 2381 947 1747 
z
" transform="scale(0.015625)"/>
      <path id="DejaVuSans-20" transform="scale(0.015625)"/>
      <path id="DejaVuSans-70" d="M 1159 525 
L 1159 -1331 
L 581 -1331 
L 581 3500 
L 1159 3500 
L 1159 2969 
Q 1341 3281 1617 3432 
Q 1894 3584 2278 3584 
Q 2916 3584 3314 3078 
Q 3713 2572 3713 1747 
Q 3713 922 3314 415 
Q 2916 -91 2278 -91 
Q 1894 -91 1617 61 
Q 1341 213 1159 525 
z
M 3116 1747 
Q 3116 2381 2855 2742 
Q 2594 3103 2138 3103 
Q 1681 3103 1420 2742 
Q 1159 2381 1159 1747 
Q 1159 1113 1420 752 
Q 1681 391 2138 391 
Q 2594 391 2855 752 
Q 3116 1113 3116 1747 
z
" transform="scale(0.015625)"/>
      <path id="DejaVuSans-72" d="M 2631 2963 
Q 2534 3019 2420 3045 
Q 2306 3072 2169 3072 
Q 1681 3072 1420 2755 
Q 1159 2438 1159 1844 
L 1159 0 
L 581 0 
L 581 3500 
L 1159 3500 
L 1159 2956 
Q 1341 3275 1631 3429 
Q 1922 3584 2338 3584 
Q 2397 3584 2469 3576 
Q 2541 3569 2628 3553 
L 2631 2963 
z
" transform="scale(0.015625)"/>
      <path id="DejaVuSans-79" d="M 2059 -325 
Q 1816 -950 1584 -1140 
Q 1353 -1331 966 -1331 
L 506 -1331 
L 506 -850 
L 844 -850 
Q 1081 -850 1212 -737 
Q 1344 -625 1503 -206 
L 1606 56 
L 191 3500 
L 800 3500 
L 1894 763 
L 2988 3500 
L 3597 3500 
L 2059 -325 
z
" transform="scale(0.015625)"/>
     </defs>
     <use xlink:href="#DejaVuSans-45" transform="translate(0 0.015625)"/>
     <use xlink:href="#DejaVuSans-78" transform="translate(63.183594 0.015625)"/>
     <use xlink:href="#DejaVuSans-61" transform="translate(122.363281 0.015625)"/>
     <use xlink:href="#DejaVuSans-63" transform="translate(183.642578 0.015625)"/>
     <use xlink:href="#DejaVuSans-74" transform="translate(238.623047 0.015625)"/>
     <use xlink:href="#DejaVuSans-69" transform="translate(277.832031 0.015625)"/>
     <use xlink:href="#DejaVuSans-74" transform="translate(305.615234 0.015625)"/>
     <use xlink:href="#DejaVuSans-75" transform="translate(344.824219 0.015625)"/>
     <use xlink:href="#DejaVuSans-64" transform="translate(408.203125 0.015625)"/>
     <use xlink:href="#DejaVuSans-20" transform="translate(471.679688 0.015625)"/>
     <use xlink:href="#DejaVuSans-70" transform="translate(503.466797 0.015625)"/>
     <use xlink:href="#DejaVuSans-61" transform="translate(566.943359 0.015625)"/>
     <use xlink:href="#DejaVuSans-72" transform="translate(628.222656 0.015625)"/>
     <use xlink:href="#DejaVuSans-61" transform="translate(669.335938 0.015625)"/>
     <use xlink:href="#DejaVuSans-20" transform="translate(730.615234 0.015625)"/>
     <use xlink:href="#DejaVuSans-Oblique-3b1" transform="translate(762.402344 0.015625)"/>
     <use xlink:href="#DejaVuSans-20" transform="translate(828.320312 0.015625)"/>
     <use xlink:href="#DejaVuSans-79" transform="translate(860.107422 0.015625)"/>
     <use xlink:href="#DejaVuSans-20" transform="translate(919.287109 0.015625)"/>
     <use xlink:href="#DejaVuSans-Oblique-68" transform="translate(951.074219 0.015625)"/>
    </g>
   </g>
  </g>
  <g id="axes_2">
   <g id="patch_7">
    <path d="M 390.816158 312.24351 
L 405.522321 312.24351 
L 405.522321 18.12024 
L 390.816158 18.12024 
z
" style="fill: #ffffff"/>
   </g>
   <g id="QuadMesh_1">
    <path d="M 390.816158 312.24351 
L 405.522321 312.24351 
L 405.522321 292.635292 
L 390.816158 292.635292 
L 390.816158 312.24351 
" clip-path="url(#p65faf996ee)" style="fill: #470d60"/>
    <path d="M 390.816158 292.635292 
L 405.522321 292.635292 
L 405.522321 273.027074 
L 390.816158 273.027074 
L 390.816158 292.635292 
" clip-path="url(#p65faf996ee)" style="fill: #482475"/>
    <path d="M 390.816158 273.027074 
L 405.522321 273.027074 
L 405.522321 253.418856 
L 390.816158 253.418856 
L 390.816158 273.027074 
" clip-path="url(#p65faf996ee)" style="fill: #443983"/>
    <path d="M 390.816158 253.418856 
L 405.522321 253.418856 
L 405.522321 233.810638 
L 390.816158 233.810638 
L 390.816158 253.418856 
" clip-path="url(#p65faf996ee)" style="fill: #3d4d8a"/>
    <path d="M 390.816158 233.810638 
L 405.522321 233.810638 
L 405.522321 214.20242 
L 390.816158 214.20242 
L 390.816158 233.810638 
" clip-path="url(#p65faf996ee)" style="fill: #355f8d"/>
    <path d="M 390.816158 214.20242 
L 405.522321 214.20242 
L 405.522321 194.594202 
L 390.816158 194.594202 
L 390.816158 214.20242 
" clip-path="url(#p65faf996ee)" style="fill: #2d708e"/>
    <path d="M 390.816158 194.594202 
L 405.522321 194.594202 
L 405.522321 174.985984 
L 390.816158 174.985984 
L 390.816158 194.594202 
" clip-path="url(#p65faf996ee)" style="fill: #27808e"/>
    <path d="M 390.816158 174.985984 
L 405.522321 174.985984 
L 405.522321 155.377766 
L 390.816158 155.377766 
L 390.816158 174.985984 
" clip-path="url(#p65faf996ee)" style="fill: #21918c"/>
    <path d="M 390.816158 155.377766 
L 405.522321 155.377766 
L 405.522321 135.769548 
L 390.816158 135.769548 
L 390.816158 155.377766 
" clip-path="url(#p65faf996ee)" style="fill: #1fa188"/>
    <path d="M 390.816158 135.769548 
L 405.522321 135.769548 
L 405.522321 116.16133 
L 390.816158 116.16133 
L 390.816158 135.769548 
" clip-path="url(#p65faf996ee)" style="fill: #2ab07f"/>
    <path d="M 390.816158 116.16133 
L 405.522321 116.16133 
L 405.522321 96.553112 
L 390.816158 96.553112 
L 390.816158 116.16133 
" clip-path="url(#p65faf996ee)" style="fill: #44bf70"/>
    <path d="M 390.816158 96.553112 
L 405.522321 96.553112 
L 405.522321 76.944894 
L 390.816158 76.944894 
L 390.816158 96.553112 
" clip-path="url(#p65faf996ee)" style="fill: #67cc5c"/>
    <path d="M 390.816158 76.944894 
L 405.522321 76.944894 
L 405.522321 57.336676 
L 390.816158 57.336676 
L 390.816158 76.944894 
" clip-path="url(#p65faf996ee)" style="fill: #90d743"/>
    <path d="M 390.816158 57.336676 
L 405.522321 57.336676 
L 405.522321 37.728458 
L 390.816158 37.728458 
L 390.816158 57.336676 
" clip-path="url(#p65faf996ee)" style="fill: #bddf26"/>
    <path d="M 390.816158 37.728458 
L 405.522321 37.728458 
L 405.522321 18.12024 
L 390.816158 18.12024 
L 390.816158 37.728458 
" clip-path="url(#p65faf996ee)" style="fill: #eae51a"/>
   </g>
   <g id="matplotlib.axis_3"/>
   <g id="matplotlib.axis_4">
    <g id="ytick_8">
     <g id="line2d_14">
      <defs>
       <path id="mbedff80e44" d="M 0 0 
L 3.5 0 
" style="stroke: #000000; stroke-width: 0.8"/>
      </defs>
      <g>
       <use xlink:href="#mbedff80e44" x="405.522321" y="292.635292" style="stroke: #000000; stroke-width: 0.8"/>
      </g>
     </g>
     <g id="text_17">
      <!-- −0.96 -->
      <g transform="translate(412.522321 296.434511) scale(0.1 -0.1)">
       <defs>
        <path id="DejaVuSans-39" d="M 703 97 
L 703 672 
Q 941 559 1184 500 
Q 1428 441 1663 441 
Q 2288 441 2617 861 
Q 2947 1281 2994 2138 
Q 2813 1869 2534 1725 
Q 2256 1581 1919 1581 
Q 1219 1581 811 2004 
Q 403 2428 403 3163 
Q 403 3881 828 4315 
Q 1253 4750 1959 4750 
Q 2769 4750 3195 4129 
Q 3622 3509 3622 2328 
Q 3622 1225 3098 567 
Q 2575 -91 1691 -91 
Q 1453 -91 1209 -44 
Q 966 3 703 97 
z
M 1959 2075 
Q 2384 2075 2632 2365 
Q 2881 2656 2881 3163 
Q 2881 3666 2632 3958 
Q 2384 4250 1959 4250 
Q 1534 4250 1286 3958 
Q 1038 3666 1038 3163 
Q 1038 2656 1286 2365 
Q 1534 2075 1959 2075 
z
" transform="scale(0.015625)"/>
        <path id="DejaVuSans-36" d="M 2113 2584 
Q 1688 2584 1439 2293 
Q 1191 2003 1191 1497 
Q 1191 994 1439 701 
Q 1688 409 2113 409 
Q 2538 409 2786 701 
Q 3034 994 3034 1497 
Q 3034 2003 2786 2293 
Q 2538 2584 2113 2584 
z
M 3366 4563 
L 3366 3988 
Q 3128 4100 2886 4159 
Q 2644 4219 2406 4219 
Q 1781 4219 1451 3797 
Q 1122 3375 1075 2522 
Q 1259 2794 1537 2939 
Q 1816 3084 2150 3084 
Q 2853 3084 3261 2657 
Q 3669 2231 3669 1497 
Q 3669 778 3244 343 
Q 2819 -91 2113 -91 
Q 1303 -91 875 529 
Q 447 1150 447 2328 
Q 447 3434 972 4092 
Q 1497 4750 2381 4750 
Q 2619 4750 2861 4703 
Q 3103 4656 3366 4563 
z
" transform="scale(0.015625)"/>
       </defs>
       <use xlink:href="#DejaVuSans-2212"/>
       <use xlink:href="#DejaVuSans-30" transform="translate(83.789062 0)"/>
       <use xlink:href="#DejaVuSans-2e" transform="translate(147.412109 0)"/>
       <use xlink:href="#DejaVuSans-39" transform="translate(179.199219 0)"/>
       <use xlink:href="#DejaVuSans-36" transform="translate(242.822266 0)"/>
      </g>
     </g>
    </g>
    <g id="ytick_9">
     <g id="line2d_15">
      <g>
       <use xlink:href="#mbedff80e44" x="405.522321" y="253.418856" style="stroke: #000000; stroke-width: 0.8"/>
      </g>
     </g>
     <g id="text_18">
      <!-- −0.84 -->
      <g transform="translate(412.522321 257.218075) scale(0.1 -0.1)">
       <defs>
        <path id="DejaVuSans-38" d="M 2034 2216 
Q 1584 2216 1326 1975 
Q 1069 1734 1069 1313 
Q 1069 891 1326 650 
Q 1584 409 2034 409 
Q 2484 409 2743 651 
Q 3003 894 3003 1313 
Q 3003 1734 2745 1975 
Q 2488 2216 2034 2216 
z
M 1403 2484 
Q 997 2584 770 2862 
Q 544 3141 544 3541 
Q 544 4100 942 4425 
Q 1341 4750 2034 4750 
Q 2731 4750 3128 4425 
Q 3525 4100 3525 3541 
Q 3525 3141 3298 2862 
Q 3072 2584 2669 2484 
Q 3125 2378 3379 2068 
Q 3634 1759 3634 1313 
Q 3634 634 3220 271 
Q 2806 -91 2034 -91 
Q 1263 -91 848 271 
Q 434 634 434 1313 
Q 434 1759 690 2068 
Q 947 2378 1403 2484 
z
M 1172 3481 
Q 1172 3119 1398 2916 
Q 1625 2713 2034 2713 
Q 2441 2713 2670 2916 
Q 2900 3119 2900 3481 
Q 2900 3844 2670 4047 
Q 2441 4250 2034 4250 
Q 1625 4250 1398 4047 
Q 1172 3844 1172 3481 
z
" transform="scale(0.015625)"/>
       </defs>
       <use xlink:href="#DejaVuSans-2212"/>
       <use xlink:href="#DejaVuSans-30" transform="translate(83.789062 0)"/>
       <use xlink:href="#DejaVuSans-2e" transform="translate(147.412109 0)"/>
       <use xlink:href="#DejaVuSans-38" transform="translate(179.199219 0)"/>
       <use xlink:href="#DejaVuSans-34" transform="translate(242.822266 0)"/>
      </g>
     </g>
    </g>
    <g id="ytick_10">
     <g id="line2d_16">
      <g>
       <use xlink:href="#mbedff80e44" x="405.522321" y="214.20242" style="stroke: #000000; stroke-width: 0.8"/>
      </g>
     </g>
     <g id="text_19">
      <!-- −0.72 -->
      <g transform="translate(412.522321 218.001639) scale(0.1 -0.1)">
       <defs>
        <path id="DejaVuSans-37" d="M 525 4666 
L 3525 4666 
L 3525 4397 
L 1831 0 
L 1172 0 
L 2766 4134 
L 525 4134 
L 525 4666 
z
" transform="scale(0.015625)"/>
       </defs>
       <use xlink:href="#DejaVuSans-2212"/>
       <use xlink:href="#DejaVuSans-30" transform="translate(83.789062 0)"/>
       <use xlink:href="#DejaVuSans-2e" transform="translate(147.412109 0)"/>
       <use xlink:href="#DejaVuSans-37" transform="translate(179.199219 0)"/>
       <use xlink:href="#DejaVuSans-32" transform="translate(242.822266 0)"/>
      </g>
     </g>
    </g>
    <g id="ytick_11">
     <g id="line2d_17">
      <g>
       <use xlink:href="#mbedff80e44" x="405.522321" y="174.985984" style="stroke: #000000; stroke-width: 0.8"/>
      </g>
     </g>
     <g id="text_20">
      <!-- −0.60 -->
      <g transform="translate(412.522321 178.785203) scale(0.1 -0.1)">
       <use xlink:href="#DejaVuSans-2212"/>
       <use xlink:href="#DejaVuSans-30" transform="translate(83.789062 0)"/>
       <use xlink:href="#DejaVuSans-2e" transform="translate(147.412109 0)"/>
       <use xlink:href="#DejaVuSans-36" transform="translate(179.199219 0)"/>
       <use xlink:href="#DejaVuSans-30" transform="translate(242.822266 0)"/>
      </g>
     </g>
    </g>
    <g id="ytick_12">
     <g id="line2d_18">
      <g>
       <use xlink:href="#mbedff80e44" x="405.522321" y="135.769548" style="stroke: #000000; stroke-width: 0.8"/>
      </g>
     </g>
     <g id="text_21">
      <!-- −0.48 -->
      <g transform="translate(412.522321 139.568767) scale(0.1 -0.1)">
       <use xlink:href="#DejaVuSans-2212"/>
       <use xlink:href="#DejaVuSans-30" transform="translate(83.789062 0)"/>
       <use xlink:href="#DejaVuSans-2e" transform="translate(147.412109 0)"/>
       <use xlink:href="#DejaVuSans-34" transform="translate(179.199219 0)"/>
       <use xlink:href="#DejaVuSans-38" transform="translate(242.822266 0)"/>
      </g>
     </g>
    </g>
    <g id="ytick_13">
     <g id="line2d_19">
      <g>
       <use xlink:href="#mbedff80e44" x="405.522321" y="96.553112" style="stroke: #000000; stroke-width: 0.8"/>
      </g>
     </g>
     <g id="text_22">
      <!-- −0.36 -->
      <g transform="translate(412.522321 100.352331) scale(0.1 -0.1)">
       <use xlink:href="#DejaVuSans-2212"/>
       <use xlink:href="#DejaVuSans-30" transform="translate(83.789062 0)"/>
       <use xlink:href="#DejaVuSans-2e" transform="translate(147.412109 0)"/>
       <use xlink:href="#DejaVuSans-33" transform="translate(179.199219 0)"/>
       <use xlink:href="#DejaVuSans-36" transform="translate(242.822266 0)"/>
      </g>
     </g>
    </g>
    <g id="ytick_14">
     <g id="line2d_20">
      <g>
       <use xlink:href="#mbedff80e44" x="405.522321" y="57.336676" style="stroke: #000000; stroke-width: 0.8"/>
      </g>
     </g>
     <g id="text_23">
      <!-- −0.24 -->
      <g transform="translate(412.522321 61.135895) scale(0.1 -0.1)">
       <use xlink:href="#DejaVuSans-2212"/>
       <use xlink:href="#DejaVuSans-30" transform="translate(83.789062 0)"/>
       <use xlink:href="#DejaVuSans-2e" transform="translate(147.412109 0)"/>
       <use xlink:href="#DejaVuSans-32" transform="translate(179.199219 0)"/>
       <use xlink:href="#DejaVuSans-34" transform="translate(242.822266 0)"/>
      </g>
     </g>
    </g>
    <g id="ytick_15">
     <g id="line2d_21">
      <g>
       <use xlink:href="#mbedff80e44" x="405.522321" y="18.12024" style="stroke: #000000; stroke-width: 0.8"/>
      </g>
     </g>
     <g id="text_24">
      <!-- −0.12 -->
      <g transform="translate(412.522321 21.919459) scale(0.1 -0.1)">
       <use xlink:href="#DejaVuSans-2212"/>
       <use xlink:href="#DejaVuSans-30" transform="translate(83.789062 0)"/>
       <use xlink:href="#DejaVuSans-2e" transform="translate(147.412109 0)"/>
       <use xlink:href="#DejaVuSans-31" transform="translate(179.199219 0)"/>
       <use xlink:href="#DejaVuSans-32" transform="translate(242.822266 0)"/>
      </g>
     </g>
    </g>
    <g id="text_25">
     <!-- Exactitud -->
     <g transform="translate(454.766071 188.76625) rotate(-90) scale(0.1 -0.1)">
      <use xlink:href="#DejaVuSans-45"/>
      <use xlink:href="#DejaVuSans-78" transform="translate(63.183594 0)"/>
      <use xlink:href="#DejaVuSans-61" transform="translate(122.363281 0)"/>
      <use xlink:href="#DejaVuSans-63" transform="translate(183.642578 0)"/>
      <use xlink:href="#DejaVuSans-74" transform="translate(238.623047 0)"/>
      <use xlink:href="#DejaVuSans-69" transform="translate(277.832031 0)"/>
      <use xlink:href="#DejaVuSans-74" transform="translate(305.615234 0)"/>
      <use xlink:href="#DejaVuSans-75" transform="translate(344.824219 0)"/>
      <use xlink:href="#DejaVuSans-64" transform="translate(408.203125 0)"/>
     </g>
    </g>
   </g>
   <g id="LineCollection_1"/>
   <g id="patch_8">
    <path d="M 390.816158 312.24351 
L 398.169239 312.24351 
L 405.522321 312.24351 
L 405.522321 18.12024 
L 398.169239 18.12024 
L 390.816158 18.12024 
L 390.816158 312.24351 
z
" style="fill: none; stroke: #000000; stroke-width: 0.8; stroke-linejoin: miter; stroke-linecap: square"/>
   </g>
  </g>
 </g>
 <defs>
  <clipPath id="p6ceba28125">
   <rect x="39.58149" y="18.12024" width="334.509207" height="294.12327"/>
  </clipPath>
  <clipPath id="p65faf996ee">
   <rect x="390.816158" y="18.12024" width="14.706164" height="294.12327"/>
  </clipPath>
 </defs>
</svg>
