<?xml version="1.0" encoding="utf-8" standalone="no"?>
<!DOCTYPE svg PUBLIC "-//W3C//DTD SVG 1.1//EN"
  "http://www.w3.org/Graphics/SVG/1.1/DTD/svg11.dtd">
<svg xmlns:xlink="http://www.w3.org/1999/xlink" width="460.8pt" height="345.6pt" viewBox="0 0 460.8 345.6" xmlns="http://www.w3.org/2000/svg" version="1.1">
 <metadata>
  <rdf:RDF xmlns:dc="http://purl.org/dc/elements/1.1/" xmlns:cc="http://creativecommons.org/ns#" xmlns:rdf="http://www.w3.org/1999/02/22-rdf-syntax-ns#">
   <cc:Work>
    <dc:type rdf:resource="http://purl.org/dc/dcmitype/StillImage"/>
    <dc:date>1970-01-01T00:00:00+00:00</dc:date>
    <dc:format>image/svg+xml</dc:format>
    <dc:creator>
     <cc:Agent>
      <dc:title>Matplotlib v3.10.7, https://matplotlib.org/</dc:title>
     </cc:Agent>
    </dc:creator>
   </cc:Work>
  </rdf:RDF>
 </metadata>
 <defs>
  <style type="text/css">*{stroke-linejoin: round; stroke-linecap: butt}</style>
 </defs>
 <g id="figure_1">
  <g id="patch_1">
   <path d="M 0 345.6 
L 460.8 345.6 
L 460.8 0 
L 0 0 
z
" style="fill: #ffffff"/>
  </g>
  <g id="axes_1">
   <g id="patch_2">
    <path d="M 39.58149 312.24351 
L 378.623885 312.24351 
L 378.623885 18.118365 
L 39.58149 18.118365 
z
" style="fill: #ffffff"/>
   </g>
   <g id="QuadContourSet_1">
    <path d="M 39.58149 264.513387 
L 50.884775 263.222652 
L 39.58149 258.60072 
L 37.625375 263.222652 
z
" clip-path="url(#pcdd9c1d8d8)" style="fill: #470d60"/>
    <path d="M 88.016118 312.24351 
L 112.331932 312.24351 
L 88.016118 295.125018 
L 82.547331 312.24351 
z
M 39.58149 267.895026 
L 74.838095 263.222652 
L 39.58149 246.491564 
L 32.273811 263.222652 
z
M 37.625375 263.222652 
L 39.58149 258.60072 
L 50.884775 263.222652 
L 39.58149 264.513387 
z
M -8.853138 218.558496 
L 6.663257 214.201795 
L -8.853138 203.464894 
L -13.38014 214.201795 
z
M -57.287766 166.087335 
L -55.126753 165.180938 
L -57.287766 163.893932 
L -57.764381 165.180938 
z
" clip-path="url(#pcdd9c1d8d8)" style="fill: #482475"/>
    <path d="M 88.016118 295.125018 
L 112.331932 312.24351 
L 132.696621 312.24351 
L 99.906198 287.733081 
L 92.700855 263.222652 
L 88.016118 259.175528 
L 50.787312 238.712224 
L 39.58149 233.940439 
L 35.606256 238.712224 
L 26.558609 263.222652 
L 39.58149 271.276664 
L 83.847281 287.733081 
L 76.144829 312.24351 
L 82.547331 312.24351 
z
M 32.273811 263.222652 
L 39.58149 246.491564 
L 74.838095 263.222652 
L 39.58149 267.895026 
z
M -8.853138 223.554973 
L 21.521175 214.201795 
L -8.853138 191.151296 
L -18.89071 214.201795 
z
M -13.38014 214.201795 
L -8.853138 203.464894 
L 6.663257 214.201795 
L -8.853138 218.558496 
z
M -57.287766 176.002993 
L -34.527622 165.180938 
L -57.287766 149.814561 
L -63.162706 165.180938 
z
M -57.764381 165.180938 
L -57.287766 163.893932 
L -55.126753 165.180938 
L -57.287766 166.087335 
z
M -105.722394 118.243033 
L -99.026112 116.16008 
L -105.722394 112.095054 
L -106.757026 116.16008 
z
" clip-path="url(#pcdd9c1d8d8)" style="fill: #443983"/>
    <path d="M 83.847281 287.733081 
L 39.58149 271.276664 
L 26.558609 263.222652 
L 35.606256 238.712224 
L 39.58149 233.940439 
L 50.787312 238.712224 
L 88.016118 259.175528 
L 92.700855 263.222652 
L 99.906198 287.733081 
L 132.696621 312.24351 
L 136.450746 312.24351 
L 145.570094 312.24351 
L 136.450746 303.78136 
L 116.506357 287.733081 
L 106.024812 263.222652 
L 88.016118 246.35314 
L 75.958772 238.712224 
L 39.58149 220.595231 
L 34.144974 214.201795 
L 34.2645 189.691366 
L -8.853138 175.520637 
L -17.992815 165.180938 
L -45.656178 140.670509 
L -57.287766 132.285427 
L -66.380897 140.670509 
L -68.931274 165.180938 
L -57.287766 185.918651 
L -39.551596 189.691366 
L -24.787636 214.201795 
L -8.853138 228.551449 
L 23.374396 238.712224 
L 20.426725 263.222652 
L 39.58149 274.658303 
L 76.458986 287.733081 
L 69.214712 312.24351 
L 76.144829 312.24351 
z
M -18.89071 214.201795 
L -8.853138 191.151296 
L 21.521175 214.201795 
L -8.853138 223.554973 
z
M -63.162706 165.180938 
L -57.287766 149.814561 
L -34.527622 165.180938 
L -57.287766 176.002993 
z
M -105.722394 128.688433 
L -71.70515 116.16008 
L -105.722394 91.710138 
L -112.14641 116.16008 
z
M -106.757026 116.16008 
L -105.722394 112.095054 
L -99.026112 116.16008 
L -105.722394 118.243033 
z
" clip-path="url(#pcdd9c1d8d8)" style="fill: #3d4d8a"/>
    <path d="M 76.458986 287.733081 
L 39.58149 274.658303 
L 20.426725 263.222652 
L 23.374396 238.712224 
L -8.853138 228.551449 
L -24.787636 214.201795 
L -39.551596 189.691366 
L -57.287766 185.918651 
L -68.931274 165.180938 
L -66.380897 140.670509 
L -57.287766 132.285427 
L -45.656178 140.670509 
L -17.992815 165.180938 
L -8.853138 175.520637 
L 34.2645 189.691366 
L 34.144974 214.201795 
L 39.58149 220.595231 
L 75.958772 238.712224 
L 88.016118 246.35314 
L 106.024812 263.222652 
L 116.506357 287.733081 
L 136.450746 303.78136 
L 145.570094 312.24351 
L 155.882683 312.24351 
L 136.450746 293.039147 
L 130.364908 287.733081 
L 117.524453 263.222652 
L 93.959121 238.712224 
L 88.016118 233.353248 
L 55.363673 214.201795 
L 52.980019 189.691366 
L 39.58149 177.311996 
L 8.712932 165.180938 
L -8.853138 154.848347 
L -19.270939 140.670509 
L -29.784228 116.16008 
L -57.287766 105.847284 
L -69.570104 91.649651 
L -93.365861 67.139222 
L -105.722394 53.650126 
L -116.473337 42.628794 
L -138.39363 18.118365 
L -154.157021 18.118365 
L -161.753323 18.118365 
L -165.180956 42.628794 
L -156.082511 67.139223 
L -154.157021 71.721044 
L -123.987455 91.649651 
L -117.904769 116.16008 
L -105.722394 139.133833 
L -99.523886 140.670509 
L -75.124634 165.180938 
L -65.172693 189.691366 
L -57.287766 193.456563 
L -31.129207 214.201795 
L -8.853138 233.547925 
L 9.05681 238.712224 
L 13.812589 263.222652 
L 39.58149 278.039941 
L 68.358923 287.733081 
L 61.662149 312.24351 
L 69.214712 312.24351 
z
M -112.14641 116.16008 
L -105.722394 91.710138 
L -71.70515 116.16008 
L -105.722394 128.688433 
z
" clip-path="url(#pcdd9c1d8d8)" style="fill: #355f8d"/>
    <path d="M -444.764788 312.24351 
L -396.330161 312.24351 
L -347.895533 312.24351 
L -299.460905 312.24351 
L -251.026277 312.24351 
L -202.591649 312.24351 
L -154.157021 312.24351 
L -117.47252 312.24351 
L -154.157021 303.90427 
L -187.240459 287.733081 
L -202.591649 283.31507 
L -251.026277 269.548779 
L -266.647131 263.222652 
L -299.460905 253.733602 
L -325.735848 238.712224 
L -347.895533 231.884388 
L -396.330161 218.37189 
L -405.418346 214.201795 
L -444.764788 201.618318 
L -464.915054 189.691366 
L -493.199416 182.180747 
L -493.199416 189.691366 
L -493.199416 214.201795 
L -493.199416 238.712224 
L -493.199416 263.222652 
L -493.199416 287.733081 
L -493.199416 312.24351 
z
M 68.358923 287.733081 
L 39.58149 278.039941 
L 13.812589 263.222652 
L 9.05681 238.712224 
L -8.853138 233.547925 
L -31.129207 214.201795 
L -57.287766 193.456563 
L -65.172693 189.691366 
L -75.124634 165.180938 
L -99.523886 140.670509 
L -105.722394 139.133833 
L -117.904769 116.16008 
L -123.987455 91.649651 
L -154.157021 71.721044 
L -156.082511 67.139223 
L -165.180956 42.628794 
L -161.753323 18.118365 
L -182.974219 18.118365 
L -181.081942 42.628794 
L -163.212705 67.139223 
L -154.157021 87.803336 
L -147.429656 91.649651 
L -124.086362 116.16008 
L -118.251992 140.670509 
L -105.722394 146.108601 
L -81.810357 165.180938 
L -79.700682 189.691366 
L -57.287766 199.534172 
L -37.987986 214.201795 
L -8.853138 238.544401 
L -8.207028 238.712224 
L 6.633822 263.222652 
L 39.58149 281.42158 
L 59.395189 287.733081 
L 53.364192 312.24351 
L 61.662149 312.24351 
z
M 136.450746 293.039147 
L 155.882683 312.24351 
L 165.068192 312.24351 
L 142.610235 287.733081 
L 136.450746 279.356032 
L 127.639712 263.222652 
L 107.080256 238.712224 
L 88.016118 220.091599 
L 79.252401 214.201795 
L 66.323365 189.691366 
L 42.185401 165.180938 
L 39.58149 162.88188 
L 5.970472 140.670509 
L 2.797918 116.16008 
L -8.853138 106.625229 
L -37.33567 91.649651 
L -57.287766 78.450673 
L -67.27209 67.139223 
L -74.634834 42.628794 
L -105.722394 23.106741 
L -109.897874 18.118365 
L -138.39363 18.118365 
L -116.473337 42.628794 
L -105.722394 53.650126 
L -93.365861 67.139223 
L -69.570104 91.649651 
L -57.287766 105.847284 
L -29.784228 116.16008 
L -19.270939 140.670509 
L -8.853138 154.848347 
L 8.712932 165.180938 
L 39.58149 177.311996 
L 52.980019 189.691366 
L 55.363673 214.201795 
L 88.016118 233.353248 
L 93.959121 238.712224 
L 117.524453 263.222652 
L 130.364908 287.733081 
z
M 523.927768 312.24351 
L 572.362396 312.24351 
L 620.797024 312.24351 
L 669.231652 312.24351 
L 717.66628 312.24351 
L 766.100908 312.24351 
L 814.535535 312.24351 
L 862.970163 312.24351 
L 911.404791 312.24351 
L 959.839419 312.24351 
L 1008.274047 312.24351 
L 1056.708675 312.24351 
L 1105.143302 312.24351 
L 1153.57793 312.24351 
L 1202.012558 312.24351 
L 1250.447186 312.24351 
L 1298.881814 312.24351 
L 1347.316442 312.24351 
L 1395.751069 312.24351 
L 1444.185697 312.24351 
L 1492.620325 312.24351 
L 1541.054953 312.24351 
L 1589.489581 312.24351 
L 1637.924209 312.24351 
L 1637.924209 287.733081 
L 1637.924209 263.222652 
L 1637.924209 238.712224 
L 1637.924209 214.201795 
L 1637.924209 189.691366 
L 1637.924209 165.180938 
L 1637.924209 140.670509 
L 1637.924209 116.16008 
L 1637.924209 91.649651 
L 1637.924209 67.139223 
L 1637.924209 42.628794 
L 1637.924209 18.118365 
L 1589.489581 18.118365 
L 1541.054953 18.118365 
L 1492.620325 18.118365 
L 1444.185697 18.118365 
L 1395.751069 18.118365 
L 1347.316442 18.118365 
L 1298.881814 18.118365 
L 1250.447186 18.118365 
L 1202.012558 18.118365 
L 1153.57793 18.118365 
L 1105.143302 18.118365 
L 1056.708675 18.118365 
L 1008.274047 18.118365 
L 959.839419 18.118365 
L 911.404791 18.118365 
L 862.970163 18.118365 
L 814.535535 18.118365 
L 766.100908 18.118365 
L 717.66628 18.118365 
L 669.231652 18.118365 
L 620.797024 18.118365 
L 572.362396 18.118365 
L 523.927768 18.118365 
L 475.493141 18.118365 
L 427.058513 18.118365 
L 378.623885 18.118365 
L 370.488989 18.118365 
L 378.623885 37.034336 
L 384.73197 42.628794 
L 404.945281 67.139223 
L 417.905287 91.649651 
L 426.973107 116.16008 
L 427.058513 116.420697 
L 451.860612 140.670509 
L 465.342701 165.180938 
L 473.657968 189.691366 
L 475.493141 196.833303 
L 492.677153 214.201795 
L 503.448429 238.712224 
L 508.776418 263.222652 
L 509.980359 287.733081 
L 494.976114 312.24351 
z
" clip-path="url(#pcdd9c1d8d8)" style="fill: #2d708e"/>
    <path d="M -154.157021 303.90427 
L -117.47252 312.24351 
L -105.722394 312.24351 
L -80.344382 312.24351 
L -105.722394 302.189472 
L -137.742734 287.733081 
L -154.157021 281.368333 
L -194.912501 263.222652 
L -202.591649 260.636346 
L -251.026277 239.667219 
L -252.799246 238.712224 
L -299.460905 221.823158 
L -314.540139 214.201795 
L -347.895533 203.987368 
L -379.173171 189.691366 
L -396.330161 183.961686 
L -436.903053 165.180938 
L -444.764788 162.37484 
L -493.199416 142.059593 
L -493.199416 165.180938 
L -493.199416 182.180747 
L -464.915054 189.691366 
L -444.764788 201.618318 
L -405.418346 214.201795 
L -396.330161 218.37189 
L -347.895533 231.884388 
L -325.735848 238.712224 
L -299.460905 253.733602 
L -266.647131 263.222652 
L -251.026277 269.548779 
L -202.591649 283.31507 
L -187.240459 287.733081 
z
M 59.395189 287.733081 
L 39.58149 281.42158 
L 6.633822 263.222652 
L -8.207028 238.712224 
L -8.853138 238.544401 
L -37.987986 214.201795 
L -57.287766 199.534172 
L -79.700682 189.691366 
L -81.810357 165.180937 
L -105.722394 146.108601 
L -118.251992 140.670509 
L -124.086362 116.16008 
L -147.429656 91.649651 
L -154.157021 87.803336 
L -163.212705 67.139223 
L -181.081942 42.628794 
L -182.974219 18.118365 
L -202.591649 18.118365 
L -205.111117 18.118365 
L -202.591649 36.872508 
L -200.705004 42.628794 
L -171.003545 67.139222 
L -167.100148 91.649651 
L -154.157021 96.68618 
L -130.758374 116.16008 
L -135.802584 140.670509 
L -105.722394 152.484716 
L -89.073543 165.180938 
L -97.271706 189.691366 
L -57.287766 205.611781 
L -45.455892 214.201795 
L -46.469262 238.712224 
L -8.853138 251.488638 
L -1.215055 263.222652 
L 39.58149 284.803218 
L 49.36138 287.733081 
L 44.157435 312.24351 
L 53.364192 312.24351 
z
M 153.597353 287.733081 
L 136.767414 263.222652 
L 136.450746 262.898298 
L 118.428575 238.712224 
L 95.661714 214.201795 
L 88.016118 205.475546 
L 77.837437 189.691366 
L 56.805879 165.180938 
L 39.58149 148.564396 
L 29.108105 140.670509 
L 17.648652 116.16008 
L -8.853138 92.391816 
L -10.059197 91.649651 
L -41.976189 67.139223 
L -48.336211 42.628794 
L -57.287766 35.541587 
L -82.534444 18.118365 
L -105.722394 18.118365 
L -109.897874 18.118365 
L -105.722394 23.106741 
L -74.634834 42.628794 
L -67.27209 67.139223 
L -57.287766 78.450673 
L -37.33567 91.649651 
L -8.853138 106.625229 
L 2.797918 116.16008 
L 5.970472 140.670509 
L 39.58149 162.88188 
L 42.185401 165.180938 
L 66.323365 189.691366 
L 79.252401 214.201795 
L 88.016118 220.091599 
L 107.080256 238.712224 
L 127.639712 263.222652 
L 136.450746 279.356032 
L 142.610235 287.733081 
L 165.068192 312.24351 
L 173.348888 312.24351 
z
M 475.493141 312.24351 
L 494.976114 312.24351 
L 509.980359 287.733081 
L 508.776418 263.222652 
L 503.448429 238.712224 
L 492.677153 214.201795 
L 475.493141 196.833303 
L 473.657968 189.691366 
L 465.342701 165.180938 
L 451.860612 140.670509 
L 427.058513 116.420697 
L 426.973107 116.16008 
L 417.905287 91.649651 
L 404.945281 67.139223 
L 384.73197 42.628794 
L 378.623885 37.034336 
L 370.488989 18.118365 
L 330.189257 18.118365 
L 327.961994 18.118365 
L 330.189257 22.417888 
L 348.633607 42.628794 
L 364.171272 67.139223 
L 375.126888 91.649651 
L 378.623885 100.717206 
L 392.329828 116.16008 
L 408.135406 140.670509 
L 418.646639 165.180938 
L 425.924264 189.691366 
L 427.058513 194.006239 
L 442.834428 214.201795 
L 454.261326 238.712224 
L 460.394945 263.222652 
L 462.002317 287.733081 
L 457.344737 312.24351 
z
M -202.591649 142.275148 
L -189.835625 140.670509 
L -202.591649 131.591819 
L -205.265591 140.670509 
z
M -299.460905 68.412481 
L -283.969472 67.139223 
L -299.460905 57.943468 
L -301.577061 67.139223 
z
" clip-path="url(#pcdd9c1d8d8)" style="fill: #27808e"/>
    <path d="M -105.722394 302.189472 
L -80.344382 312.24351 
L -58.713142 312.24351 
L -105.722394 290.869741 
L -111.708871 287.733081 
L -154.157021 268.345951 
L -163.81073 263.222652 
L -202.591649 247.375944 
L -218.961462 238.712224 
L -251.026277 224.606949 
L -272.418733 214.201795 
L -299.460905 202.26426 
L -332.724478 189.691366 
L -347.895533 183.468758 
L -396.330161 165.51243 
L -396.900267 165.180938 
L -444.764788 143.226646 
L -449.367555 140.670509 
L -493.199416 120.660347 
L -493.199416 140.670509 
L -493.199416 142.059593 
L -444.764788 162.37484 
L -436.903053 165.180938 
L -396.330161 183.961686 
L -379.173171 189.691366 
L -347.895533 203.987368 
L -314.540139 214.201795 
L -299.460905 221.823158 
L -252.799246 238.712224 
L -251.026277 239.667219 
L -202.591649 260.636346 
L -194.912501 263.222652 
L -154.157021 281.368333 
L -137.742734 287.733081 
z
M 39.58149 312.24351 
L 44.157435 312.24351 
L 49.36138 287.733081 
L 39.58149 284.803218 
L -1.215055 263.222652 
L -8.853138 251.488638 
L -46.469262 238.712224 
L -45.455892 214.201795 
L -57.287766 205.611781 
L -97.271706 189.691366 
L -89.073543 165.180937 
L -105.722394 152.484716 
L -135.802584 140.670509 
L -130.758374 116.16008 
L -154.157021 96.68618 
L -167.100148 91.649651 
L -171.003545 67.139223 
L -200.705004 42.628794 
L -202.591649 36.872508 
L -205.111117 18.118365 
L -214.965265 18.118365 
L -215.228221 42.628794 
L -202.591649 49.771463 
L -179.590076 67.139223 
L -187.85089 91.649651 
L -154.157021 103.305914 
L -138.005379 116.16008 
L -154.157021 138.858697 
L -188.113672 116.16008 
L -202.591649 103.464369 
L -214.674127 116.16008 
L -218.29516 140.670509 
L -202.591649 149.404392 
L -164.748955 165.180938 
L -154.157021 171.091587 
L -128.765841 165.180938 
L -105.722394 158.86083 
L -97.023456 165.180938 
L -105.722394 180.560016 
L -112.858503 189.691366 
L -105.722394 196.441651 
L -57.287766 211.68939 
L -53.651755 214.201795 
L -57.287766 222.599587 
L -71.12593 238.712224 
L -57.287766 245.581361 
L -10.801811 263.222652 
L -8.853138 265.239084 
L 35.959891 287.733081 
L 33.30984 312.24351 
z
M -205.265591 140.670509 
L -202.591649 131.591819 
L -189.835625 140.670509 
L -202.591649 142.275148 
z
M 163.31405 287.733081 
L 148.377862 263.222652 
L 136.450746 250.12245 
L 128.426608 238.712224 
L 107.878052 214.201795 
L 88.016118 189.777382 
L 87.963857 189.691366 
L 69.257982 165.180938 
L 46.664443 140.670509 
L 39.58149 132.140545 
L 30.267269 116.16008 
L 6.965541 91.649651 
L -8.853138 75.923246 
L -18.908989 67.139223 
L -32.468459 42.628794 
L -57.287766 20.967403 
L -60.932088 18.118365 
L -82.534444 18.118365 
L -57.287766 35.541587 
L -48.336211 42.628794 
L -41.976189 67.139223 
L -10.059197 91.649651 
L -8.853138 92.391816 
L 17.648652 116.16008 
L 29.108105 140.670509 
L 39.58149 148.564396 
L 56.805879 165.180938 
L 77.837437 189.691366 
L 88.016118 205.475546 
L 95.661714 214.201795 
L 118.428575 238.712224 
L 136.450746 262.898298 
L 136.767414 263.222652 
L 153.597353 287.733081 
L 173.348888 312.24351 
L 180.887152 312.24351 
z
M 462.002317 287.733081 
L 460.394945 263.222652 
L 454.261326 238.712224 
L 442.834428 214.201795 
L 427.058513 194.006239 
L 425.924264 189.691366 
L 418.646639 165.180938 
L 408.135406 140.670509 
L 392.329828 116.16008 
L 378.623885 100.717206 
L 375.126888 91.649651 
L 364.171272 67.139223 
L 348.633607 42.628794 
L 330.189257 22.417888 
L 327.961994 18.118365 
L 298.490014 18.118365 
L 316.42051 42.628794 
L 330.189257 66.275005 
L 331.044167 67.139223 
L 351.487048 91.649651 
L 365.370786 116.16008 
L 376.116244 140.670509 
L 378.623885 146.728352 
L 393.661692 165.180938 
L 407.183561 189.691366 
L 416.526421 214.201795 
L 423.285662 238.712224 
L 427.058513 258.247624 
L 429.75088 263.222652 
L 434.966127 287.733081 
L 429.033188 312.24351 
L 457.344737 312.24351 
z
M -251.026277 100.689332 
L -219.327383 91.649651 
L -240.784242 67.139223 
L -251.026277 62.607094 
L -284.150733 42.628794 
L -299.460905 28.972893 
L -311.801586 42.628794 
L -313.351218 67.139223 
L -299.460905 74.940679 
L -260.468411 91.649651 
z
M -301.577061 67.139223 
L -299.460905 57.943468 
L -283.969472 67.139223 
L -299.460905 68.412481 
z
M -347.895533 26.812787 
L -315.461792 18.118365 
L -347.895533 18.118365 
L -363.607871 18.118365 
z
" clip-path="url(#pcdd9c1d8d8)" style="fill: #21918c"/>
    <path d="M -105.722394 290.869741 
L -58.713142 312.24351 
L -57.287766 312.24351 
L -37.317158 312.24351 
L -57.287766 303.013038 
L -86.969943 287.733081 
L -105.722394 278.845297 
L -135.282603 263.222652 
L -154.157021 254.497412 
L -188.179725 238.712224 
L -202.591649 232.708389 
L -238.130632 214.201795 
L -251.026277 208.872081 
L -286.305756 189.691366 
L -299.460905 184.119393 
L -334.188637 165.180938 
L -347.895533 159.608964 
L -386.87697 140.670509 
L -396.330161 136.925795 
L -439.583541 116.16008 
L -444.764788 114.159804 
L -493.199416 92.519203 
L -493.199416 116.16008 
L -493.199416 120.660347 
L -449.367555 140.670509 
L -444.764788 143.226646 
L -396.900267 165.180938 
L -396.330161 165.51243 
L -347.895533 183.468758 
L -332.724478 189.691366 
L -299.460905 202.26426 
L -272.418733 214.201795 
L -251.026277 224.606949 
L -218.961462 238.712224 
L -202.591649 247.375944 
L -163.81073 263.222652 
L -154.157021 268.345951 
L -111.708871 287.733081 
z
M 35.959891 287.733081 
L -8.853138 265.239084 
L -10.801811 263.222652 
L -57.287766 245.581361 
L -71.12593 238.712224 
L -57.287766 222.599587 
L -53.651755 214.201795 
L -57.287766 211.68939 
L -105.722394 196.441651 
L -112.858503 189.691366 
L -105.722394 180.560016 
L -97.023456 165.180938 
L -105.722394 158.86083 
L -128.765841 165.180938 
L -154.157021 171.091587 
L -164.748955 165.180938 
L -202.591649 149.404392 
L -218.29516 140.670509 
L -214.674127 116.16008 
L -202.591649 103.464369 
L -188.113672 116.16008 
L -154.157021 138.858697 
L -138.005379 116.16008 
L -154.157021 103.305914 
L -187.85089 91.649651 
L -179.590076 67.139222 
L -202.591649 49.771463 
L -215.228221 42.628794 
L -214.965265 18.118365 
L -226.12851 18.118365 
L -231.617662 42.628794 
L -251.026277 52.403136 
L -265.617957 42.628794 
L -287.049525 18.118365 
L -299.460905 18.118365 
L -315.461792 18.118365 
L -347.895533 26.812787 
L -363.607871 18.118365 
L -387.870725 18.118365 
L -347.895533 37.42111 
L -334.227488 42.628794 
L -327.045311 67.139223 
L -299.460905 81.468877 
L -273.639471 91.649651 
L -251.026277 111.718915 
L -238.892013 116.16008 
L -233.718846 140.670509 
L -251.026277 156.03008 
L -265.420189 165.180938 
L -251.026277 173.667013 
L -232.724898 165.180938 
L -202.591649 156.533636 
L -179.788687 165.180938 
L -154.157021 178.303345 
L -126.571948 189.691366 
L -105.722394 207.911272 
L -78.863217 214.201795 
L -92.614132 238.712224 
L -57.287766 254.241878 
L -30.46392 263.222652 
L -8.853138 283.173178 
L 2.361942 287.733081 
L 20.353327 312.24351 
L 33.30984 312.24351 
z
M -168.933202 116.16008 
L -154.157021 109.925649 
L -145.935909 116.16008 
L -154.157021 127.169192 
z
M -260.468411 91.649651 
L -299.460905 74.940679 
L -313.351218 67.139223 
L -311.801586 42.628794 
L -299.460905 28.972893 
L -284.150733 42.628794 
L -251.026277 62.607094 
L -240.784242 67.139223 
L -219.327383 91.649651 
L -251.026277 100.689332 
z
M -221.469551 67.139223 
L -202.591649 57.572699 
L -189.153508 67.139223 
L -202.591649 85.336556 
z
M 184.885374 312.24351 
L 190.715583 312.24351 
L 184.885374 307.227812 
L 172.023904 287.733081 
L 158.578725 263.222652 
L 138.042869 238.712224 
L 136.450746 237.464056 
L 118.543485 214.201795 
L 101.443927 189.691366 
L 88.016118 176.224072 
L 80.1026 165.180938 
L 60.587167 140.670509 
L 42.209187 116.16008 
L 39.58149 113.9619 
L 20.950156 91.649651 
L -0.409819 67.139223 
L -8.853138 58.631954 
L -19.123662 42.628794 
L -41.391902 18.118365 
L -57.287766 18.118365 
L -60.932088 18.118365 
L -57.287766 20.967403 
L -32.468459 42.628794 
L -18.908989 67.139222 
L -8.853138 75.923246 
L 6.965541 91.649651 
L 30.267269 116.16008 
L 39.58149 132.140545 
L 46.664443 140.670509 
L 69.257982 165.180938 
L 87.963857 189.691366 
L 88.016118 189.777382 
L 107.878052 214.201795 
L 128.426608 238.712224 
L 136.450746 250.12245 
L 148.377862 263.222652 
L 163.31405 287.733081 
L 180.887152 312.24351 
z
M 427.058513 312.24351 
L 429.033188 312.24351 
L 434.966127 287.733081 
L 429.75088 263.222652 
L 427.058513 258.247624 
L 423.285662 238.712224 
L 416.526421 214.201795 
L 407.183561 189.691366 
L 393.661692 165.180938 
L 378.623885 146.728352 
L 376.116244 140.670509 
L 365.370786 116.16008 
L 351.487048 91.649651 
L 331.044167 67.139222 
L 330.189257 66.275005 
L 316.42051 42.628794 
L 298.490014 18.118365 
L 281.754629 18.118365 
L 271.448712 18.118365 
L 281.754629 39.323569 
L 285.184038 42.628794 
L 306.492927 67.139223 
L 323.374895 91.649651 
L 330.189257 102.185044 
L 342.057515 116.16008 
L 357.900036 140.670509 
L 370.239183 165.180938 
L 378.623885 184.154936 
L 383.035581 189.691366 
L 398.216924 214.201795 
L 408.320109 238.712224 
L 415.147003 263.222652 
L 418.560299 287.733081 
L 418.212331 312.24351 
z
M -202.591649 194.164045 
L -194.409735 189.691366 
L -202.591649 185.663682 
L -209.7601 189.691366 
z
M -444.764788 44.616971 
L -435.245423 42.628794 
L -444.764788 38.756867 
L -447.895075 42.628794 
z
M -475.309183 18.118365 
L -493.199416 18.118365 
L -493.199416 22.411952 
z
" clip-path="url(#pcdd9c1d8d8)" style="fill: #1fa188"/>
    <path d="M -57.287766 303.013038 
L -37.317158 312.24351 
L -20.001289 312.24351 
L -8.853138 299.858751 
L 5.031987 312.24351 
L 20.353327 312.24351 
L 2.361942 287.733081 
L -8.853138 283.173178 
L -30.46392 263.222652 
L -57.287766 254.241878 
L -92.614132 238.712224 
L -78.863217 214.201795 
L -105.722394 207.911272 
L -126.571948 189.691366 
L -154.157021 178.303345 
L -179.788687 165.180938 
L -202.591649 156.533636 
L -232.724898 165.180938 
L -251.026277 173.667013 
L -265.420189 165.180938 
L -251.026277 156.03008 
L -233.718846 140.670509 
L -238.892013 116.16008 
L -251.026277 111.718915 
L -273.639471 91.649651 
L -299.460905 81.468877 
L -327.045311 67.139223 
L -334.227488 42.628794 
L -347.895533 37.42111 
L -387.870725 18.118365 
L -396.330161 18.118365 
L -444.764788 18.118365 
L -475.309183 18.118365 
L -493.199416 22.411952 
L -493.199416 33.02888 
L -468.654351 42.628794 
L -444.764788 56.085428 
L -416.84358 67.139223 
L -396.330161 78.899627 
L -365.414069 91.649651 
L -347.895533 102.009113 
L -316.602788 91.649651 
L -299.460905 87.997076 
L -289.26198 91.649651 
L -299.460905 106.488239 
L -309.529646 116.16008 
L -299.460905 121.589947 
L -253.110336 140.670509 
L -299.460905 164.839294 
L -346.987684 140.670509 
L -347.895533 140.255001 
L -395.227314 116.16008 
L -396.330161 115.733031 
L -443.631516 91.649651 
L -444.764788 91.197482 
L -491.999952 67.139223 
L -493.199416 66.657817 
L -493.199416 67.139223 
L -493.199416 91.649651 
L -493.199416 92.519203 
L -444.764788 114.159804 
L -439.583541 116.16008 
L -396.330161 136.925795 
L -386.87697 140.670509 
L -347.895533 159.608964 
L -334.188637 165.180938 
L -299.460905 184.119393 
L -286.305756 189.691366 
L -251.026277 208.872081 
L -238.130632 214.201795 
L -202.591649 232.708389 
L -188.179725 238.712224 
L -154.157021 254.497412 
L -135.282603 263.222652 
L -105.722394 278.845297 
L -86.969943 287.733081 
z
M -66.438665 287.733081 
L -105.722394 266.550728 
L -111.20727 263.222652 
L -105.722394 254.660255 
L -57.287766 262.902395 
L -56.168639 263.222652 
L -33.701634 287.733081 
L -57.287766 293.030223 
z
M -156.67781 238.712224 
L -154.157021 236.416432 
L -144.172788 238.712224 
L -154.157021 240.113033 
z
M -204.471525 214.201795 
L -202.591649 212.916727 
L -198.265478 214.201795 
L -202.591649 215.388666 
z
M -252.132459 189.691366 
L -251.026277 189.080276 
L -249.01916 189.691366 
L -251.026277 190.422825 
z
M -209.7601 189.691366 
L -202.591649 185.663682 
L -194.409735 189.691366 
L -202.591649 194.164045 
z
M -166.792319 189.691366 
L -154.157021 185.515103 
L -142.964142 189.691366 
L -154.157021 199.020763 
z
M -207.159798 165.180938 
L -202.591649 163.662881 
L -198.114807 165.180938 
L -202.591649 168.776738 
z
M -355.773112 67.139223 
L -347.895533 59.246142 
L -343.409838 67.139223 
L -347.895533 73.002654 
z
M -447.895075 42.628794 
L -444.764788 38.756867 
L -435.245423 42.628794 
L -444.764788 44.616971 
z
M 184.885374 307.227812 
L 190.715583 312.24351 
L 202.834888 312.24351 
L 184.885374 295.620346 
L 179.916119 287.733081 
L 167.675512 263.222652 
L 151.637758 238.712224 
L 136.450746 225.78703 
L 128.007805 214.201795 
L 113.080371 189.691366 
L 91.351118 165.180938 
L 88.016118 162.538987 
L 72.529844 140.670509 
L 57.044175 116.16008 
L 39.58149 100.17751 
L 32.938315 91.649651 
L 15.133622 67.139223 
L -6.402965 42.628794 
L -8.853138 40.499265 
L -25.076942 18.118365 
L -41.391902 18.118365 
L -19.123662 42.628794 
L -8.853138 58.631954 
L -0.409819 67.139223 
L 20.950156 91.649651 
L 39.58149 113.9619 
L 42.209187 116.16008 
L 60.587167 140.670509 
L 80.1026 165.180938 
L 88.016118 176.224072 
L 101.443927 189.691366 
L 118.543485 214.201795 
L 136.450746 237.464056 
L 138.042869 238.712224 
L 158.578725 263.222652 
L 172.023904 287.733081 
z
M 418.560299 287.733081 
L 415.147003 263.222652 
L 408.320109 238.712224 
L 398.216924 214.201795 
L 383.035581 189.691366 
L 378.623885 184.154936 
L 370.239183 165.180938 
L 357.900036 140.670509 
L 342.057515 116.16008 
L 330.189257 102.185044 
L 323.374895 91.649651 
L 306.492927 67.139223 
L 285.184038 42.628794 
L 281.754629 39.323569 
L 271.448712 18.118365 
L 249.610031 18.118365 
L 263.807232 42.628794 
L 277.182493 67.139223 
L 281.754629 75.671185 
L 296.714725 91.649651 
L 316.053575 116.16008 
L 330.189257 135.405389 
L 334.618072 140.670509 
L 351.571694 165.180938 
L 364.925104 189.691366 
L 376.420692 214.201795 
L 378.623885 219.498594 
L 390.104149 238.712224 
L 400.09333 263.222652 
L 405.944809 287.733081 
L 407.677335 312.24351 
L 418.212331 312.24351 
z
M -154.157021 127.169192 
L -145.935909 116.16008 
L -154.157021 109.925649 
L -168.933202 116.16008 
z
M -202.591649 85.336556 
L -189.153508 67.139223 
L -202.591649 57.572699 
L -221.469551 67.139223 
z
M -205.771347 67.139223 
L -202.591649 65.373935 
L -199.94501 67.139223 
L -202.591649 70.497132 
z
M -251.026277 52.403136 
L -231.617662 42.628794 
L -226.12851 18.118365 
L -239.002739 18.118365 
L -251.026277 41.411118 
L -265.233471 18.118365 
L -287.049525 18.118365 
L -265.617957 42.628794 
z
" clip-path="url(#pcdd9c1d8d8)" style="fill: #2ab07f"/>
    <path d="M -57.287766 293.030223 
L -33.701634 287.733081 
L -56.168639 263.222652 
L -57.287766 262.902395 
L -105.722394 254.660255 
L -111.20727 263.222652 
L -105.722394 266.550728 
L -66.438665 287.733081 
z
M -8.853138 312.24351 
L 5.031987 312.24351 
L -8.853138 299.858751 
L -20.001289 312.24351 
z
M 184.885374 295.620346 
L 202.834888 312.24351 
L 213.426317 312.24351 
L 191.225413 287.733081 
L 184.885374 282.616291 
L 175.884049 263.222652 
L 163.338545 238.712224 
L 136.629983 214.201795 
L 136.450746 214.072193 
L 123.301289 189.691366 
L 107.43392 165.180938 
L 88.016118 148.219205 
L 82.986178 140.670509 
L 69.651429 116.16008 
L 48.11461 91.649651 
L 39.58149 84.878275 
L 28.248483 67.139223 
L 12.372518 42.628794 
L -8.853138 21.949327 
L -11.417543 18.118365 
L -25.076942 18.118365 
L -8.853138 40.499265 
L -6.402965 42.628794 
L 15.133622 67.139223 
L 32.938315 91.649651 
L 39.58149 100.17751 
L 57.044175 116.16008 
L 72.529844 140.670509 
L 88.016118 162.538987 
L 91.351118 165.180938 
L 113.080371 189.691366 
L 128.007805 214.201795 
L 136.450746 225.78703 
L 151.637758 238.712224 
L 167.675512 263.222652 
L 179.916119 287.733081 
z
M 405.944809 287.733081 
L 400.09333 263.222652 
L 390.104149 238.712224 
L 378.623885 219.498594 
L 376.420692 214.201795 
L 364.925104 189.691366 
L 351.571694 165.180938 
L 334.618072 140.670509 
L 330.189257 135.405389 
L 316.053575 116.16008 
L 296.714725 91.649651 
L 281.754629 75.671185 
L 277.182493 67.139223 
L 263.807232 42.628794 
L 249.610031 18.118365 
L 233.320001 18.118365 
L 222.777691 18.118365 
L 233.320001 35.552136 
L 238.364769 42.628794 
L 254.162805 67.139223 
L 268.95728 91.649651 
L 281.754629 113.247059 
L 284.691686 116.16008 
L 306.839657 140.670509 
L 327.496104 165.180937 
L 330.189257 168.489297 
L 345.206821 189.691366 
L 359.477658 214.201795 
L 371.315061 238.712224 
L 378.623885 257.329311 
L 381.746479 263.222652 
L 391.098408 287.733081 
L 395.631892 312.24351 
L 407.677335 312.24351 
z
M -154.157021 240.113033 
L -144.172788 238.712224 
L -154.157021 236.416432 
L -156.67781 238.712224 
z
M -202.591649 215.388666 
L -198.265478 214.201795 
L -202.591649 212.916727 
L -204.471525 214.201795 
z
M -251.026277 190.422825 
L -249.01916 189.691366 
L -251.026277 189.080276 
L -252.132459 189.691366 
z
M -154.157021 199.020763 
L -142.964142 189.691366 
L -154.157021 185.515103 
L -166.792319 189.691366 
z
M -202.591649 168.776738 
L -198.114807 165.180938 
L -202.591649 163.662881 
L -207.159798 165.180938 
z
M -299.460905 164.839294 
L -253.110336 140.670509 
L -299.460905 121.589947 
L -309.529646 116.16008 
L -299.460905 106.488239 
L -289.26198 91.649651 
L -299.460905 87.997076 
L -316.602788 91.649651 
L -347.895533 102.009113 
L -365.414069 91.649651 
L -396.330161 78.899627 
L -416.84358 67.139223 
L -444.764788 56.085428 
L -468.654351 42.628794 
L -493.199416 33.02888 
L -493.199416 42.628794 
L -493.199416 66.657817 
L -491.999952 67.139223 
L -444.764788 91.197482 
L -443.631516 91.649651 
L -396.330161 115.733031 
L -395.227314 116.16008 
L -347.895533 140.255001 
L -346.987684 140.670509 
z
M -307.84138 140.670509 
L -299.460905 136.478992 
L -286.870605 140.670509 
L -299.460905 145.97978 
z
M -349.653456 116.16008 
L -347.895533 115.480021 
L -345.591355 116.16008 
L -347.895533 117.31802 
z
M -397.098879 91.649651 
L -396.330161 91.380006 
L -395.543723 91.649651 
L -396.330161 92.158982 
z
M -347.895533 73.002654 
L -343.409838 67.139223 
L -347.895533 59.246142 
L -355.773112 67.139223 
z
M -202.591649 70.497132 
L -199.94501 67.139223 
L -202.591649 65.373935 
L -205.771347 67.139223 
z
M -251.026277 41.411118 
L -239.002739 18.118365 
L -251.026277 18.118365 
L -265.233471 18.118365 
z
" clip-path="url(#pcdd9c1d8d8)" style="fill: #44bf70"/>
    <path d="M 208.401405 287.733081 
L 184.885374 266.651303 
L 183.362474 263.222652 
L 173.609052 238.712224 
L 156.787494 214.201795 
L 136.450746 197.585202 
L 132.414017 189.691366 
L 120.930356 165.180938 
L 100.651402 140.670509 
L 88.016118 131.215099 
L 80.613483 116.16008 
L 67.085214 91.649651 
L 39.621231 67.139223 
L 39.58149 67.112266 
L 27.713162 42.628794 
L 12.559603 18.118365 
L -8.853138 18.118365 
L -11.417543 18.118365 
L -8.853138 21.949327 
L 12.372518 42.628794 
L 28.248483 67.139223 
L 39.58149 84.878275 
L 48.11461 91.649651 
L 69.651429 116.16008 
L 82.986178 140.670509 
L 88.016118 148.219205 
L 107.43392 165.180938 
L 123.301289 189.691366 
L 136.450746 214.072193 
L 136.629983 214.201795 
L 163.338545 238.712224 
L 175.884049 263.222652 
L 184.885374 282.616291 
L 191.225413 287.733081 
L 213.426317 312.24351 
L 222.832334 312.24351 
z
M 378.623885 302.486887 
L 381.569216 312.24351 
L 395.631892 312.24351 
L 391.098408 287.733081 
L 381.746479 263.222652 
L 378.623885 257.329311 
L 371.315061 238.712224 
L 359.477658 214.201795 
L 345.206821 189.691366 
L 330.189257 168.489297 
L 327.496104 165.180938 
L 306.839657 140.670509 
L 284.691686 116.16008 
L 281.754629 113.247059 
L 268.95728 91.649651 
L 254.162805 67.139223 
L 238.364769 42.628794 
L 233.320001 35.552136 
L 222.777691 18.118365 
L 189.23985 18.118365 
L 206.267545 42.628794 
L 223.198228 67.139223 
L 233.320001 82.399273 
L 239.933086 91.649651 
L 256.606561 116.16008 
L 272.908713 140.670509 
L 281.754629 154.613341 
L 292.946089 165.180938 
L 317.440364 189.691366 
L 330.189257 203.055609 
L 338.239864 214.201795 
L 353.363974 238.712224 
L 365.334334 263.222652 
L 374.515703 287.733081 
z
M -299.460905 145.97978 
L -286.870605 140.670509 
L -299.460905 136.478992 
L -307.84138 140.670509 
z
M -347.895533 117.31802 
L -345.591355 116.16008 
L -347.895533 115.480021 
L -349.653456 116.16008 
z
M -396.330161 92.158982 
L -395.543723 91.649651 
L -396.330161 91.380006 
L -397.098879 91.649651 
z
" clip-path="url(#pcdd9c1d8d8)" style="fill: #67cc5c"/>
    <path d="M 222.658581 287.733081 
L 207.078469 263.222652 
L 184.885374 244.596525 
L 182.761168 238.712224 
L 173.037032 214.201795 
L 155.076332 189.691366 
L 136.450746 175.305969 
L 132.558179 165.180938 
L 122.395305 140.670509 
L 101.089709 116.16008 
L 88.016118 106.788629 
L 82.555687 91.649651 
L 72.143738 67.139223 
L 47.156797 42.628794 
L 39.58149 37.419103 
L 33.538379 18.118365 
L 12.559603 18.118365 
L 27.713162 42.628794 
L 39.58149 67.112266 
L 39.621231 67.139223 
L 67.085214 91.649651 
L 80.613483 116.16008 
L 88.016118 131.215099 
L 100.651402 140.670509 
L 120.930356 165.180938 
L 132.414017 189.691366 
L 136.450746 197.585202 
L 156.787494 214.201795 
L 173.609052 238.712224 
L 183.362474 263.222652 
L 184.885374 266.651303 
L 208.401405 287.733081 
L 222.832334 312.24351 
L 231.291778 312.24351 
z
M 378.623885 312.24351 
L 381.569216 312.24351 
L 378.623885 302.486887 
L 374.515703 287.733081 
L 365.334334 263.222652 
L 353.363974 238.712224 
L 338.239864 214.201795 
L 330.189257 203.055609 
L 317.440364 189.691366 
L 292.946089 165.180938 
L 281.754629 154.613341 
L 272.908713 140.670509 
L 256.606561 116.16008 
L 239.933086 91.649651 
L 233.320001 82.399273 
L 223.198228 67.139223 
L 206.267545 42.628794 
L 189.23985 18.118365 
L 184.885374 18.118365 
L 136.450746 18.118365 
L 135.880502 18.118365 
L 136.450746 18.800473 
L 157.345953 42.628794 
L 177.592354 67.139223 
L 184.885374 76.124196 
L 198.223547 91.649651 
L 218.002877 116.16008 
L 233.320001 135.51127 
L 237.620583 140.670509 
L 257.001993 165.180938 
L 275.15591 189.691366 
L 281.754629 198.289154 
L 301.814655 214.201795 
L 330.189257 238.276064 
L 330.514367 238.712224 
L 346.434345 263.222652 
L 358.331109 287.733081 
L 366.731305 312.24351 
z
" clip-path="url(#pcdd9c1d8d8)" style="fill: #90d743"/>
    <path d="M 233.320001 312.24351 
L 265.516202 312.24351 
L 246.826268 287.733081 
L 233.320001 278.970328 
L 228.846039 263.222652 
L 220.798857 238.712224 
L 206.872768 214.201795 
L 184.885374 200.83793 
L 182.236761 189.691366 
L 180.087531 165.180938 
L 184.885374 153.974294 
L 195.154026 165.180938 
L 219.115275 189.691366 
L 233.320001 195.138823 
L 248.760915 214.201795 
L 270.237395 238.712224 
L 281.754629 248.027506 
L 306.329605 263.222652 
L 330.189257 274.764225 
L 338.273606 287.733081 
L 349.28919 312.24351 
L 366.731305 312.24351 
L 358.331109 287.733081 
L 346.434345 263.222652 
L 330.514367 238.712224 
L 330.189257 238.276064 
L 301.814655 214.201795 
L 281.754629 198.289154 
L 275.15591 189.691366 
L 257.001993 165.180938 
L 237.620583 140.670509 
L 233.320001 135.51127 
L 218.002877 116.16008 
L 198.223547 91.649651 
L 184.885374 76.124196 
L 177.592354 67.139223 
L 157.345953 42.628794 
L 136.450746 18.800473 
L 135.880502 18.118365 
L 88.016118 18.118365 
L 39.58149 18.118365 
L 33.538379 18.118365 
L 39.58149 37.419103 
L 47.156797 42.628794 
L 72.143738 67.139223 
L 82.555687 91.649651 
L 88.016118 106.788629 
L 101.089709 116.16008 
L 122.395305 140.670509 
L 132.558179 165.180938 
L 136.450746 175.305969 
L 155.076332 189.691366 
L 173.037032 214.201795 
L 182.761168 238.712224 
L 184.885374 244.596525 
L 207.078469 263.222652 
L 222.658581 287.733081 
L 231.291778 312.24351 
z
" clip-path="url(#pcdd9c1d8d8)" style="fill: #bddf26"/>
    <path d="M 281.754629 312.24351 
L 330.189257 312.24351 
L 349.28919 312.24351 
L 338.273606 287.733081 
L 330.189257 274.764225 
L 306.329605 263.222652 
L 281.754629 248.027506 
L 270.237395 238.712224 
L 248.760915 214.201795 
L 233.320001 195.138823 
L 219.115275 189.691366 
L 195.154026 165.180938 
L 184.885374 153.974294 
L 180.087531 165.180938 
L 182.236761 189.691366 
L 184.885374 200.83793 
L 206.872768 214.201795 
L 220.798857 238.712224 
L 228.846039 263.222652 
L 233.320001 278.970328 
L 246.826268 287.733081 
L 265.516202 312.24351 
z
" clip-path="url(#pcdd9c1d8d8)" style="fill: #eae51a"/>
   </g>
   <g id="PathCollection_1">
    <defs>
     <path id="mdc0741d33a" d="M -3 3 
L 3 -3 
M -3 -3 
L 3 3 
" style="stroke: #ff0000; stroke-width: 1.5"/>
    </defs>
    <g clip-path="url(#pcdd9c1d8d8)">
     <use xlink:href="#mdc0741d33a" x="330.189257" y="312.24351" style="fill: #ff0000; stroke: #ff0000; stroke-width: 1.5"/>
     <use xlink:href="#mdc0741d33a" x="281.754629" y="287.733081" style="fill: #ff0000; stroke: #ff0000; stroke-width: 1.5"/>
     <use xlink:href="#mdc0741d33a" x="233.320001" y="263.222652" style="fill: #ff0000; stroke: #ff0000; stroke-width: 1.5"/>
     <use xlink:href="#mdc0741d33a" x="233.320001" y="238.712224" style="fill: #ff0000; stroke: #ff0000; stroke-width: 1.5"/>
     <use xlink:href="#mdc0741d33a" x="233.320001" y="214.201795" style="fill: #ff0000; stroke: #ff0000; stroke-width: 1.5"/>
     <use xlink:href="#mdc0741d33a" x="184.885374" y="189.691366" style="fill: #ff0000; stroke: #ff0000; stroke-width: 1.5"/>
     <use xlink:href="#mdc0741d33a" x="184.885374" y="165.180938" style="fill: #ff0000; stroke: #ff0000; stroke-width: 1.5"/>
     <use xlink:href="#mdc0741d33a" x="184.885374" y="140.670509" style="fill: #ff0000; stroke: #ff0000; stroke-width: 1.5"/>
     <use xlink:href="#mdc0741d33a" x="136.450746" y="116.16008" style="fill: #ff0000; stroke: #ff0000; stroke-width: 1.5"/>
     <use xlink:href="#mdc0741d33a" x="136.450746" y="91.649651" style="fill: #ff0000; stroke: #ff0000; stroke-width: 1.5"/>
     <use xlink:href="#mdc0741d33a" x="88.016118" y="67.139223" style="fill: #ff0000; stroke: #ff0000; stroke-width: 1.5"/>
     <use xlink:href="#mdc0741d33a" x="88.016118" y="42.628794" style="fill: #ff0000; stroke: #ff0000; stroke-width: 1.5"/>
     <use xlink:href="#mdc0741d33a" x="88.016118" y="18.118365" style="fill: #ff0000; stroke: #ff0000; stroke-width: 1.5"/>
    </g>
   </g>
   <g id="matplotlib.axis_1">
    <g id="xtick_1">
     <g id="line2d_1">
      <defs>
       <path id="m38f3b05bbe" d="M 0 0 
L 0 3.5 
" style="stroke: #000000; stroke-width: 0.8"/>
      </defs>
      <g>
       <use xlink:href="#m38f3b05bbe" x="88.016118" y="312.24351" style="stroke: #000000; stroke-width: 0.8"/>
      </g>
     </g>
     <g id="text_1">
      <!-- $\mathdefault{10^{-2}}$ -->
      <g transform="translate(76.266118 326.841947) scale(0.1 -0.1)">
       <defs>
        <path id="DejaVuSans-31" d="M 794 531 
L 1825 531 
L 1825 4091 
L 703 3866 
L 703 4441 
L 1819 4666 
L 2450 4666 
L 2450 531 
L 3481 531 
L 3481 0 
L 794 0 
L 794 531 
z
" transform="scale(0.015625)"/>
        <path id="DejaVuSans-30" d="M 2034 4250 
Q 1547 4250 1301 3770 
Q 1056 3291 1056 2328 
Q 1056 1369 1301 889 
Q 1547 409 2034 409 
Q 2525 409 2770 889 
Q 3016 1369 3016 2328 
Q 3016 3291 2770 3770 
Q 2525 4250 2034 4250 
z
M 2034 4750 
Q 2819 4750 3233 4129 
Q 3647 3509 3647 2328 
Q 3647 1150 3233 529 
Q 2819 -91 2034 -91 
Q 1250 -91 836 529 
Q 422 1150 422 2328 
Q 422 3509 836 4129 
Q 1250 4750 2034 4750 
z
" transform="scale(0.015625)"/>
        <path id="DejaVuSans-2212" d="M 678 2272 
L 4684 2272 
L 4684 1741 
L 678 1741 
L 678 2272 
z
" transform="scale(0.015625)"/>
        <path id="DejaVuSans-32" d="M 1228 531 
L 3431 531 
L 3431 0 
L 469 0 
L 469 531 
Q 828 903 1448 1529 
Q 2069 2156 2228 2338 
Q 2531 2678 2651 2914 
Q 2772 3150 2772 3378 
Q 2772 3750 2511 3984 
Q 2250 4219 1831 4219 
Q 1534 4219 1204 4116 
Q 875 4013 500 3803 
L 500 4441 
Q 881 4594 1212 4672 
Q 1544 4750 1819 4750 
Q 2544 4750 2975 4387 
Q 3406 4025 3406 3419 
Q 3406 3131 3298 2873 
Q 3191 2616 2906 2266 
Q 2828 2175 2409 1742 
Q 1991 1309 1228 531 
z
" transform="scale(0.015625)"/>
       </defs>
       <use xlink:href="#DejaVuSans-31" transform="translate(0 0.765625)"/>
       <use xlink:href="#DejaVuSans-30" transform="translate(63.623047 0.765625)"/>
       <use xlink:href="#DejaVuSans-2212" transform="translate(128.203125 39.046875) scale(0.7)"/>
       <use xlink:href="#DejaVuSans-32" transform="translate(186.855469 39.046875) scale(0.7)"/>
      </g>
     </g>
    </g>
    <g id="xtick_2">
     <g id="line2d_2">
      <g>
       <use xlink:href="#m38f3b05bbe" x="281.754629" y="312.24351" style="stroke: #000000; stroke-width: 0.8"/>
      </g>
     </g>
     <g id="text_2">
      <!-- $\mathdefault{10^{-1}}$ -->
      <g transform="translate(270.004629 326.841947) scale(0.1 -0.1)">
       <use xlink:href="#DejaVuSans-31" transform="translate(0 0.684375)"/>
       <use xlink:href="#DejaVuSans-30" transform="translate(63.623047 0.684375)"/>
       <use xlink:href="#DejaVuSans-2212" transform="translate(128.203125 38.965625) scale(0.7)"/>
       <use xlink:href="#DejaVuSans-31" transform="translate(186.855469 38.965625) scale(0.7)"/>
      </g>
     </g>
    </g>
    <g id="xtick_3">
     <g id="line2d_3">
      <defs>
       <path id="m360e1f0208" d="M 0 0 
L 0 2 
" style="stroke: #000000; stroke-width: 0.6"/>
      </defs>
      <g>
       <use xlink:href="#m360e1f0208" x="45.035471" y="312.24351" style="stroke: #000000; stroke-width: 0.6"/>
      </g>
     </g>
    </g>
    <g id="xtick_4">
     <g id="line2d_4">
      <g>
       <use xlink:href="#m360e1f0208" x="58.005643" y="312.24351" style="stroke: #000000; stroke-width: 0.6"/>
      </g>
     </g>
    </g>
    <g id="xtick_5">
     <g id="line2d_5">
      <g>
       <use xlink:href="#m360e1f0208" x="69.240916" y="312.24351" style="stroke: #000000; stroke-width: 0.6"/>
      </g>
     </g>
    </g>
    <g id="xtick_6">
     <g id="line2d_6">
      <g>
       <use xlink:href="#m360e1f0208" x="79.15113" y="312.24351" style="stroke: #000000; stroke-width: 0.6"/>
      </g>
     </g>
    </g>
    <g id="xtick_7">
     <g id="line2d_7">
      <g>
       <use xlink:href="#m360e1f0208" x="146.337221" y="312.24351" style="stroke: #000000; stroke-width: 0.6"/>
      </g>
     </g>
    </g>
    <g id="xtick_8">
     <g id="line2d_8">
      <g>
       <use xlink:href="#m360e1f0208" x="180.452879" y="312.24351" style="stroke: #000000; stroke-width: 0.6"/>
      </g>
     </g>
    </g>
    <g id="xtick_9">
     <g id="line2d_9">
      <g>
       <use xlink:href="#m360e1f0208" x="204.658324" y="312.24351" style="stroke: #000000; stroke-width: 0.6"/>
      </g>
     </g>
    </g>
    <g id="xtick_10">
     <g id="line2d_10">
      <g>
       <use xlink:href="#m360e1f0208" x="223.433526" y="312.24351" style="stroke: #000000; stroke-width: 0.6"/>
      </g>
     </g>
    </g>
    <g id="xtick_11">
     <g id="line2d_11">
      <g>
       <use xlink:href="#m360e1f0208" x="238.773983" y="312.24351" style="stroke: #000000; stroke-width: 0.6"/>
      </g>
     </g>
    </g>
    <g id="xtick_12">
     <g id="line2d_12">
      <g>
       <use xlink:href="#m360e1f0208" x="251.744154" y="312.24351" style="stroke: #000000; stroke-width: 0.6"/>
      </g>
     </g>
    </g>
    <g id="xtick_13">
     <g id="line2d_13">
      <g>
       <use xlink:href="#m360e1f0208" x="262.979428" y="312.24351" style="stroke: #000000; stroke-width: 0.6"/>
      </g>
     </g>
    </g>
    <g id="xtick_14">
     <g id="line2d_14">
      <g>
       <use xlink:href="#m360e1f0208" x="272.889641" y="312.24351" style="stroke: #000000; stroke-width: 0.6"/>
      </g>
     </g>
    </g>
    <g id="xtick_15">
     <g id="line2d_15">
      <g>
       <use xlink:href="#m360e1f0208" x="340.075732" y="312.24351" style="stroke: #000000; stroke-width: 0.6"/>
      </g>
     </g>
    </g>
    <g id="xtick_16">
     <g id="line2d_16">
      <g>
       <use xlink:href="#m360e1f0208" x="374.191391" y="312.24351" style="stroke: #000000; stroke-width: 0.6"/>
      </g>
     </g>
    </g>
    <g id="text_3">
     <!-- bandwidth -->
     <g transform="translate(182.740187 340.520072) scale(0.1 -0.1)">
      <defs>
       <path id="DejaVuSans-62" d="M 3116 1747 
Q 3116 2381 2855 2742 
Q 2594 3103 2138 3103 
Q 1681 3103 1420 2742 
Q 1159 2381 1159 1747 
Q 1159 1113 1420 752 
Q 1681 391 2138 391 
Q 2594 391 2855 752 
Q 3116 1113 3116 1747 
z
M 1159 2969 
Q 1341 3281 1617 3432 
Q 1894 3584 2278 3584 
Q 2916 3584 3314 3078 
Q 3713 2572 3713 1747 
Q 3713 922 3314 415 
Q 2916 -91 2278 -91 
Q 1894 -91 1617 61 
Q 1341 213 1159 525 
L 1159 0 
L 581 0 
L 581 4863 
L 1159 4863 
L 1159 2969 
z
" transform="scale(0.015625)"/>
       <path id="DejaVuSans-61" d="M 2194 1759 
Q 1497 1759 1228 1600 
Q 959 1441 959 1056 
Q 959 750 1161 570 
Q 1363 391 1709 391 
Q 2188 391 2477 730 
Q 2766 1069 2766 1631 
L 2766 1759 
L 2194 1759 
z
M 3341 1997 
L 3341 0 
L 2766 0 
L 2766 531 
Q 2569 213 2275 61 
Q 1981 -91 1556 -91 
Q 1019 -91 701 211 
Q 384 513 384 1019 
Q 384 1609 779 1909 
Q 1175 2209 1959 2209 
L 2766 2209 
L 2766 2266 
Q 2766 2663 2505 2880 
Q 2244 3097 1772 3097 
Q 1472 3097 1187 3025 
Q 903 2953 641 2809 
L 641 3341 
Q 956 3463 1253 3523 
Q 1550 3584 1831 3584 
Q 2591 3584 2966 3190 
Q 3341 2797 3341 1997 
z
" transform="scale(0.015625)"/>
       <path id="DejaVuSans-6e" d="M 3513 2113 
L 3513 0 
L 2938 0 
L 2938 2094 
Q 2938 2591 2744 2837 
Q 2550 3084 2163 3084 
Q 1697 3084 1428 2787 
Q 1159 2491 1159 1978 
L 1159 0 
L 581 0 
L 581 3500 
L 1159 3500 
L 1159 2956 
Q 1366 3272 1645 3428 
Q 1925 3584 2291 3584 
Q 2894 3584 3203 3211 
Q 3513 2838 3513 2113 
z
" transform="scale(0.015625)"/>
       <path id="DejaVuSans-64" d="M 2906 2969 
L 2906 4863 
L 3481 4863 
L 3481 0 
L 2906 0 
L 2906 525 
Q 2725 213 2448 61 
Q 2172 -91 1784 -91 
Q 1150 -91 751 415 
Q 353 922 353 1747 
Q 353 2572 751 3078 
Q 1150 3584 1784 3584 
Q 2172 3584 2448 3432 
Q 2725 3281 2906 2969 
z
M 947 1747 
Q 947 1113 1208 752 
Q 1469 391 1925 391 
Q 2381 391 2643 752 
Q 2906 1113 2906 1747 
Q 2906 2381 2643 2742 
Q 2381 3103 1925 3103 
Q 1469 3103 1208 2742 
Q 947 2381 947 1747 
z
" transform="scale(0.015625)"/>
       <path id="DejaVuSans-77" d="M 269 3500 
L 844 3500 
L 1563 769 
L 2278 3500 
L 2956 3500 
L 3675 769 
L 4391 3500 
L 4966 3500 
L 4050 0 
L 3372 0 
L 2619 2869 
L 1863 0 
L 1184 0 
L 269 3500 
z
" transform="scale(0.015625)"/>
       <path id="DejaVuSans-69" d="M 603 3500 
L 1178 3500 
L 1178 0 
L 603 0 
L 603 3500 
z
M 603 4863 
L 1178 4863 
L 1178 4134 
L 603 4134 
L 603 4863 
z
" transform="scale(0.015625)"/>
       <path id="DejaVuSans-74" d="M 1172 4494 
L 1172 3500 
L 2356 3500 
L 2356 3053 
L 1172 3053 
L 1172 1153 
Q 1172 725 1289 603 
Q 1406 481 1766 481 
L 2356 481 
L 2356 0 
L 1766 0 
Q 1100 0 847 248 
Q 594 497 594 1153 
L 594 3053 
L 172 3053 
L 172 3500 
L 594 3500 
L 594 4494 
L 1172 4494 
z
" transform="scale(0.015625)"/>
       <path id="DejaVuSans-68" d="M 3513 2113 
L 3513 0 
L 2938 0 
L 2938 2094 
Q 2938 2591 2744 2837 
Q 2550 3084 2163 3084 
Q 1697 3084 1428 2787 
Q 1159 2491 1159 1978 
L 1159 0 
L 581 0 
L 581 4863 
L 1159 4863 
L 1159 2956 
Q 1366 3272 1645 3428 
Q 1925 3584 2291 3584 
Q 2894 3584 3203 3211 
Q 3513 2838 3513 2113 
z
" transform="scale(0.015625)"/>
      </defs>
      <use xlink:href="#DejaVuSans-62"/>
      <use xlink:href="#DejaVuSans-61" transform="translate(63.476562 0)"/>
      <use xlink:href="#DejaVuSans-6e" transform="translate(124.755859 0)"/>
      <use xlink:href="#DejaVuSans-64" transform="translate(188.134766 0)"/>
      <use xlink:href="#DejaVuSans-77" transform="translate(251.611328 0)"/>
      <use xlink:href="#DejaVuSans-69" transform="translate(333.398438 0)"/>
      <use xlink:href="#DejaVuSans-64" transform="translate(361.181641 0)"/>
      <use xlink:href="#DejaVuSans-74" transform="translate(424.658203 0)"/>
      <use xlink:href="#DejaVuSans-68" transform="translate(463.867188 0)"/>
     </g>
    </g>
   </g>
   <g id="matplotlib.axis_2">
    <g id="ytick_1">
     <g id="line2d_17">
      <defs>
       <path id="mbd2f377c6c" d="M 0 0 
L -3.5 0 
" style="stroke: #000000; stroke-width: 0.8"/>
      </defs>
      <g>
       <use xlink:href="#mbd2f377c6c" x="39.58149" y="312.24351" style="stroke: #000000; stroke-width: 0.8"/>
      </g>
     </g>
     <g id="text_4">
      <!-- 1.0 -->
      <g transform="translate(16.678365 316.042729) scale(0.1 -0.1)">
       <defs>
        <path id="DejaVuSans-2e" d="M 684 794 
L 1344 794 
L 1344 0 
L 684 0 
L 684 794 
z
" transform="scale(0.015625)"/>
       </defs>
       <use xlink:href="#DejaVuSans-31"/>
       <use xlink:href="#DejaVuSans-2e" transform="translate(63.623047 0)"/>
       <use xlink:href="#DejaVuSans-30" transform="translate(95.410156 0)"/>
      </g>
     </g>
    </g>
    <g id="ytick_2">
     <g id="line2d_18">
      <g>
       <use xlink:href="#mbd2f377c6c" x="39.58149" y="263.222652" style="stroke: #000000; stroke-width: 0.8"/>
      </g>
     </g>
     <g id="text_5">
      <!-- 1.5 -->
      <g transform="translate(16.678365 267.021871) scale(0.1 -0.1)">
       <defs>
        <path id="DejaVuSans-35" d="M 691 4666 
L 3169 4666 
L 3169 4134 
L 1269 4134 
L 1269 2991 
Q 1406 3038 1543 3061 
Q 1681 3084 1819 3084 
Q 2600 3084 3056 2656 
Q 3513 2228 3513 1497 
Q 3513 744 3044 326 
Q 2575 -91 1722 -91 
Q 1428 -91 1123 -41 
Q 819 9 494 109 
L 494 744 
Q 775 591 1075 516 
Q 1375 441 1709 441 
Q 2250 441 2565 725 
Q 2881 1009 2881 1497 
Q 2881 1984 2565 2268 
Q 2250 2553 1709 2553 
Q 1456 2553 1204 2497 
Q 953 2441 691 2322 
L 691 4666 
z
" transform="scale(0.015625)"/>
       </defs>
       <use xlink:href="#DejaVuSans-31"/>
       <use xlink:href="#DejaVuSans-2e" transform="translate(63.623047 0)"/>
       <use xlink:href="#DejaVuSans-35" transform="translate(95.410156 0)"/>
      </g>
     </g>
    </g>
    <g id="ytick_3">
     <g id="line2d_19">
      <g>
       <use xlink:href="#mbd2f377c6c" x="39.58149" y="214.201795" style="stroke: #000000; stroke-width: 0.8"/>
      </g>
     </g>
     <g id="text_6">
      <!-- 2.0 -->
      <g transform="translate(16.678365 218.001014) scale(0.1 -0.1)">
       <use xlink:href="#DejaVuSans-32"/>
       <use xlink:href="#DejaVuSans-2e" transform="translate(63.623047 0)"/>
       <use xlink:href="#DejaVuSans-30" transform="translate(95.410156 0)"/>
      </g>
     </g>
    </g>
    <g id="ytick_4">
     <g id="line2d_20">
      <g>
       <use xlink:href="#mbd2f377c6c" x="39.58149" y="165.180938" style="stroke: #000000; stroke-width: 0.8"/>
      </g>
     </g>
     <g id="text_7">
      <!-- 2.5 -->
      <g transform="translate(16.678365 168.980156) scale(0.1 -0.1)">
       <use xlink:href="#DejaVuSans-32"/>
       <use xlink:href="#DejaVuSans-2e" transform="translate(63.623047 0)"/>
       <use xlink:href="#DejaVuSans-35" transform="translate(95.410156 0)"/>
      </g>
     </g>
    </g>
    <g id="ytick_5">
     <g id="line2d_21">
      <g>
       <use xlink:href="#mbd2f377c6c" x="39.58149" y="116.16008" style="stroke: #000000; stroke-width: 0.8"/>
      </g>
     </g>
     <g id="text_8">
      <!-- 3.0 -->
      <g transform="translate(16.678365 119.959299) scale(0.1 -0.1)">
       <defs>
        <path id="DejaVuSans-33" d="M 2597 2516 
Q 3050 2419 3304 2112 
Q 3559 1806 3559 1356 
Q 3559 666 3084 287 
Q 2609 -91 1734 -91 
Q 1441 -91 1130 -33 
Q 819 25 488 141 
L 488 750 
Q 750 597 1062 519 
Q 1375 441 1716 441 
Q 2309 441 2620 675 
Q 2931 909 2931 1356 
Q 2931 1769 2642 2001 
Q 2353 2234 1838 2234 
L 1294 2234 
L 1294 2753 
L 1863 2753 
Q 2328 2753 2575 2939 
Q 2822 3125 2822 3475 
Q 2822 3834 2567 4026 
Q 2313 4219 1838 4219 
Q 1578 4219 1281 4162 
Q 984 4106 628 3988 
L 628 4550 
Q 988 4650 1302 4700 
Q 1616 4750 1894 4750 
Q 2613 4750 3031 4423 
Q 3450 4097 3450 3541 
Q 3450 3153 3228 2886 
Q 3006 2619 2597 2516 
z
" transform="scale(0.015625)"/>
       </defs>
       <use xlink:href="#DejaVuSans-33"/>
       <use xlink:href="#DejaVuSans-2e" transform="translate(63.623047 0)"/>
       <use xlink:href="#DejaVuSans-30" transform="translate(95.410156 0)"/>
      </g>
     </g>
    </g>
    <g id="ytick_6">
     <g id="line2d_22">
      <g>
       <use xlink:href="#mbd2f377c6c" x="39.58149" y="67.139223" style="stroke: #000000; stroke-width: 0.8"/>
      </g>
     </g>
     <g id="text_9">
      <!-- 3.5 -->
      <g transform="translate(16.678365 70.938441) scale(0.1 -0.1)">
       <use xlink:href="#DejaVuSans-33"/>
       <use xlink:href="#DejaVuSans-2e" transform="translate(63.623047 0)"/>
       <use xlink:href="#DejaVuSans-35" transform="translate(95.410156 0)"/>
      </g>
     </g>
    </g>
    <g id="ytick_7">
     <g id="line2d_23">
      <g>
       <use xlink:href="#mbd2f377c6c" x="39.58149" y="18.118365" style="stroke: #000000; stroke-width: 0.8"/>
      </g>
     </g>
     <g id="text_10">
      <!-- 4.0 -->
      <g transform="translate(16.678365 21.917584) scale(0.1 -0.1)">
       <defs>
        <path id="DejaVuSans-34" d="M 2419 4116 
L 825 1625 
L 2419 1625 
L 2419 4116 
z
M 2253 4666 
L 3047 4666 
L 3047 1625 
L 3713 1625 
L 3713 1100 
L 3047 1100 
L 3047 0 
L 2419 0 
L 2419 1100 
L 313 1100 
L 313 1709 
L 2253 4666 
z
" transform="scale(0.015625)"/>
       </defs>
       <use xlink:href="#DejaVuSans-34"/>
       <use xlink:href="#DejaVuSans-2e" transform="translate(63.623047 0)"/>
       <use xlink:href="#DejaVuSans-30" transform="translate(95.410156 0)"/>
      </g>
     </g>
    </g>
    <g id="text_11">
     <!-- alpha -->
     <g transform="translate(10.598677 179.041094) rotate(-90) scale(0.1 -0.1)">
      <defs>
       <path id="DejaVuSans-6c" d="M 603 4863 
L 1178 4863 
L 1178 0 
L 603 0 
L 603 4863 
z
" transform="scale(0.015625)"/>
       <path id="DejaVuSans-70" d="M 1159 525 
L 1159 -1331 
L 581 -1331 
L 581 3500 
L 1159 3500 
L 1159 2969 
Q 1341 3281 1617 3432 
Q 1894 3584 2278 3584 
Q 2916 3584 3314 3078 
Q 3713 2572 3713 1747 
Q 3713 922 3314 415 
Q 2916 -91 2278 -91 
Q 1894 -91 1617 61 
Q 1341 213 1159 525 
z
M 3116 1747 
Q 3116 2381 2855 2742 
Q 2594 3103 2138 3103 
Q 1681 3103 1420 2742 
Q 1159 2381 1159 1747 
Q 1159 1113 1420 752 
Q 1681 391 2138 391 
Q 2594 391 2855 752 
Q 3116 1113 3116 1747 
z
" transform="scale(0.015625)"/>
      </defs>
      <use xlink:href="#DejaVuSans-61"/>
      <use xlink:href="#DejaVuSans-6c" transform="translate(61.279297 0)"/>
      <use xlink:href="#DejaVuSans-70" transform="translate(89.0625 0)"/>
      <use xlink:href="#DejaVuSans-68" transform="translate(152.539062 0)"/>
      <use xlink:href="#DejaVuSans-61" transform="translate(215.917969 0)"/>
     </g>
    </g>
   </g>
   <g id="patch_3">
    <path d="M 39.58149 312.24351 
L 39.58149 18.118365 
" style="fill: none; stroke: #000000; stroke-width: 0.8; stroke-linejoin: miter; stroke-linecap: square"/>
   </g>
   <g id="patch_4">
    <path d="M 378.623885 312.24351 
L 378.623885 18.118365 
" style="fill: none; stroke: #000000; stroke-width: 0.8; stroke-linejoin: miter; stroke-linecap: square"/>
   </g>
   <g id="patch_5">
    <path d="M 39.58149 312.24351 
L 378.623885 312.24351 
" style="fill: none; stroke: #000000; stroke-width: 0.8; stroke-linejoin: miter; stroke-linecap: square"/>
   </g>
   <g id="patch_6">
    <path d="M 39.58149 18.118365 
L 378.623885 18.118365 
" style="fill: none; stroke: #000000; stroke-width: 0.8; stroke-linejoin: miter; stroke-linecap: square"/>
   </g>
   <g id="text_12">
    <!-- espirales_lo 1434 fkdc -->
    <g transform="translate(142.064875 12.118365) scale(0.12 -0.12)">
     <defs>
      <path id="DejaVuSans-65" d="M 3597 1894 
L 3597 1613 
L 953 1613 
Q 991 1019 1311 708 
Q 1631 397 2203 397 
Q 2534 397 2845 478 
Q 3156 559 3463 722 
L 3463 178 
Q 3153 47 2828 -22 
Q 2503 -91 2169 -91 
Q 1331 -91 842 396 
Q 353 884 353 1716 
Q 353 2575 817 3079 
Q 1281 3584 2069 3584 
Q 2775 3584 3186 3129 
Q 3597 2675 3597 1894 
z
M 3022 2063 
Q 3016 2534 2758 2815 
Q 2500 3097 2075 3097 
Q 1594 3097 1305 2825 
Q 1016 2553 972 2059 
L 3022 2063 
z
" transform="scale(0.015625)"/>
      <path id="DejaVuSans-73" d="M 2834 3397 
L 2834 2853 
Q 2591 2978 2328 3040 
Q 2066 3103 1784 3103 
Q 1356 3103 1142 2972 
Q 928 2841 928 2578 
Q 928 2378 1081 2264 
Q 1234 2150 1697 2047 
L 1894 2003 
Q 2506 1872 2764 1633 
Q 3022 1394 3022 966 
Q 3022 478 2636 193 
Q 2250 -91 1575 -91 
Q 1294 -91 989 -36 
Q 684 19 347 128 
L 347 722 
Q 666 556 975 473 
Q 1284 391 1588 391 
Q 1994 391 2212 530 
Q 2431 669 2431 922 
Q 2431 1156 2273 1281 
Q 2116 1406 1581 1522 
L 1381 1569 
Q 847 1681 609 1914 
Q 372 2147 372 2553 
Q 372 3047 722 3315 
Q 1072 3584 1716 3584 
Q 2034 3584 2315 3537 
Q 2597 3491 2834 3397 
z
" transform="scale(0.015625)"/>
      <path id="DejaVuSans-72" d="M 2631 2963 
Q 2534 3019 2420 3045 
Q 2306 3072 2169 3072 
Q 1681 3072 1420 2755 
Q 1159 2438 1159 1844 
L 1159 0 
L 581 0 
L 581 3500 
L 1159 3500 
L 1159 2956 
Q 1341 3275 1631 3429 
Q 1922 3584 2338 3584 
Q 2397 3584 2469 3576 
Q 2541 3569 2628 3553 
L 2631 2963 
z
" transform="scale(0.015625)"/>
      <path id="DejaVuSans-5f" d="M 3263 -1063 
L 3263 -1509 
L -63 -1509 
L -63 -1063 
L 3263 -1063 
z
" transform="scale(0.015625)"/>
      <path id="DejaVuSans-6f" d="M 1959 3097 
Q 1497 3097 1228 2736 
Q 959 2375 959 1747 
Q 959 1119 1226 758 
Q 1494 397 1959 397 
Q 2419 397 2687 759 
Q 2956 1122 2956 1747 
Q 2956 2369 2687 2733 
Q 2419 3097 1959 3097 
z
M 1959 3584 
Q 2709 3584 3137 3096 
Q 3566 2609 3566 1747 
Q 3566 888 3137 398 
Q 2709 -91 1959 -91 
Q 1206 -91 779 398 
Q 353 888 353 1747 
Q 353 2609 779 3096 
Q 1206 3584 1959 3584 
z
" transform="scale(0.015625)"/>
      <path id="DejaVuSans-20" transform="scale(0.015625)"/>
      <path id="DejaVuSans-66" d="M 2375 4863 
L 2375 4384 
L 1825 4384 
Q 1516 4384 1395 4259 
Q 1275 4134 1275 3809 
L 1275 3500 
L 2222 3500 
L 2222 3053 
L 1275 3053 
L 1275 0 
L 697 0 
L 697 3053 
L 147 3053 
L 147 3500 
L 697 3500 
L 697 3744 
Q 697 4328 969 4595 
Q 1241 4863 1831 4863 
L 2375 4863 
z
" transform="scale(0.015625)"/>
      <path id="DejaVuSans-6b" d="M 581 4863 
L 1159 4863 
L 1159 1991 
L 2875 3500 
L 3609 3500 
L 1753 1863 
L 3688 0 
L 2938 0 
L 1159 1709 
L 1159 0 
L 581 0 
L 581 4863 
z
" transform="scale(0.015625)"/>
      <path id="DejaVuSans-63" d="M 3122 3366 
L 3122 2828 
Q 2878 2963 2633 3030 
Q 2388 3097 2138 3097 
Q 1578 3097 1268 2742 
Q 959 2388 959 1747 
Q 959 1106 1268 751 
Q 1578 397 2138 397 
Q 2388 397 2633 464 
Q 2878 531 3122 666 
L 3122 134 
Q 2881 22 2623 -34 
Q 2366 -91 2075 -91 
Q 1284 -91 818 406 
Q 353 903 353 1747 
Q 353 2603 823 3093 
Q 1294 3584 2113 3584 
Q 2378 3584 2631 3529 
Q 2884 3475 3122 3366 
z
" transform="scale(0.015625)"/>
     </defs>
     <use xlink:href="#DejaVuSans-65"/>
     <use xlink:href="#DejaVuSans-73" transform="translate(61.523438 0)"/>
     <use xlink:href="#DejaVuSans-70" transform="translate(113.623047 0)"/>
     <use xlink:href="#DejaVuSans-69" transform="translate(177.099609 0)"/>
     <use xlink:href="#DejaVuSans-72" transform="translate(204.882812 0)"/>
     <use xlink:href="#DejaVuSans-61" transform="translate(245.996094 0)"/>
     <use xlink:href="#DejaVuSans-6c" transform="translate(307.275391 0)"/>
     <use xlink:href="#DejaVuSans-65" transform="translate(335.058594 0)"/>
     <use xlink:href="#DejaVuSans-73" transform="translate(396.582031 0)"/>
     <use xlink:href="#DejaVuSans-5f" transform="translate(448.681641 0)"/>
     <use xlink:href="#DejaVuSans-6c" transform="translate(498.681641 0)"/>
     <use xlink:href="#DejaVuSans-6f" transform="translate(526.464844 0)"/>
     <use xlink:href="#DejaVuSans-20" transform="translate(587.646484 0)"/>
     <use xlink:href="#DejaVuSans-31" transform="translate(619.433594 0)"/>
     <use xlink:href="#DejaVuSans-34" transform="translate(683.056641 0)"/>
     <use xlink:href="#DejaVuSans-33" transform="translate(746.679688 0)"/>
     <use xlink:href="#DejaVuSans-34" transform="translate(810.302734 0)"/>
     <use xlink:href="#DejaVuSans-20" transform="translate(873.925781 0)"/>
     <use xlink:href="#DejaVuSans-66" transform="translate(905.712891 0)"/>
     <use xlink:href="#DejaVuSans-6b" transform="translate(940.917969 0)"/>
     <use xlink:href="#DejaVuSans-64" transform="translate(998.828125 0)"/>
     <use xlink:href="#DejaVuSans-63" transform="translate(1062.304688 0)"/>
    </g>
   </g>
  </g>
  <g id="axes_2">
   <g id="patch_7">
    <path d="M 395.576005 312.24351 
L 410.282262 312.24351 
L 410.282262 18.118365 
L 395.576005 18.118365 
z
" style="fill: #ffffff"/>
   </g>
   <g id="QuadMesh_1">
    <path d="M 395.576005 312.24351 
L 410.282262 312.24351 
L 410.282262 292.635167 
L 395.576005 292.635167 
L 395.576005 312.24351 
" clip-path="url(#pbdd60e4c41)" style="fill: #470d60"/>
    <path d="M 395.576005 292.635167 
L 410.282262 292.635167 
L 410.282262 273.026824 
L 395.576005 273.026824 
L 395.576005 292.635167 
" clip-path="url(#pbdd60e4c41)" style="fill: #482475"/>
    <path d="M 395.576005 273.026824 
L 410.282262 273.026824 
L 410.282262 253.418481 
L 395.576005 253.418481 
L 395.576005 273.026824 
" clip-path="url(#pbdd60e4c41)" style="fill: #443983"/>
    <path d="M 395.576005 253.418481 
L 410.282262 253.418481 
L 410.282262 233.810138 
L 395.576005 233.810138 
L 395.576005 253.418481 
" clip-path="url(#pbdd60e4c41)" style="fill: #3d4d8a"/>
    <path d="M 395.576005 233.810138 
L 410.282262 233.810138 
L 410.282262 214.201795 
L 395.576005 214.201795 
L 395.576005 233.810138 
" clip-path="url(#pbdd60e4c41)" style="fill: #355f8d"/>
    <path d="M 395.576005 214.201795 
L 410.282262 214.201795 
L 410.282262 194.593452 
L 395.576005 194.593452 
L 395.576005 214.201795 
" clip-path="url(#pbdd60e4c41)" style="fill: #2d708e"/>
    <path d="M 395.576005 194.593452 
L 410.282262 194.593452 
L 410.282262 174.985109 
L 395.576005 174.985109 
L 395.576005 194.593452 
" clip-path="url(#pbdd60e4c41)" style="fill: #27808e"/>
    <path d="M 395.576005 174.985109 
L 410.282262 174.985109 
L 410.282262 155.376766 
L 395.576005 155.376766 
L 395.576005 174.985109 
" clip-path="url(#pbdd60e4c41)" style="fill: #21918c"/>
    <path d="M 395.576005 155.376766 
L 410.282262 155.376766 
L 410.282262 135.768423 
L 395.576005 135.768423 
L 395.576005 155.376766 
" clip-path="url(#pbdd60e4c41)" style="fill: #1fa188"/>
    <path d="M 395.576005 135.768423 
L 410.282262 135.768423 
L 410.282262 116.16008 
L 395.576005 116.16008 
L 395.576005 135.768423 
" clip-path="url(#pbdd60e4c41)" style="fill: #2ab07f"/>
    <path d="M 395.576005 116.16008 
L 410.282262 116.16008 
L 410.282262 96.551737 
L 395.576005 96.551737 
L 395.576005 116.16008 
" clip-path="url(#pbdd60e4c41)" style="fill: #44bf70"/>
    <path d="M 395.576005 96.551737 
L 410.282262 96.551737 
L 410.282262 76.943394 
L 395.576005 76.943394 
L 395.576005 96.551737 
" clip-path="url(#pbdd60e4c41)" style="fill: #67cc5c"/>
    <path d="M 395.576005 76.943394 
L 410.282262 76.943394 
L 410.282262 57.335051 
L 395.576005 57.335051 
L 395.576005 76.943394 
" clip-path="url(#pbdd60e4c41)" style="fill: #90d743"/>
    <path d="M 395.576005 57.335051 
L 410.282262 57.335051 
L 410.282262 37.726708 
L 395.576005 37.726708 
L 395.576005 57.335051 
" clip-path="url(#pbdd60e4c41)" style="fill: #bddf26"/>
    <path d="M 395.576005 37.726708 
L 410.282262 37.726708 
L 410.282262 18.118365 
L 395.576005 18.118365 
L 395.576005 37.726708 
" clip-path="url(#pbdd60e4c41)" style="fill: #eae51a"/>
   </g>
   <g id="matplotlib.axis_3"/>
   <g id="matplotlib.axis_4">
    <g id="ytick_8">
     <g id="line2d_24">
      <defs>
       <path id="m0a27ea52cb" d="M 0 0 
L 3.5 0 
" style="stroke: #000000; stroke-width: 0.8"/>
      </defs>
      <g>
       <use xlink:href="#m0a27ea52cb" x="410.282262" y="292.635167" style="stroke: #000000; stroke-width: 0.8"/>
      </g>
     </g>
     <g id="text_13">
      <!-- -0.96 -->
      <g transform="translate(417.282262 296.434386) scale(0.1 -0.1)">
       <defs>
        <path id="DejaVuSans-2d" d="M 313 2009 
L 1997 2009 
L 1997 1497 
L 313 1497 
L 313 2009 
z
" transform="scale(0.015625)"/>
        <path id="DejaVuSans-39" d="M 703 97 
L 703 672 
Q 941 559 1184 500 
Q 1428 441 1663 441 
Q 2288 441 2617 861 
Q 2947 1281 2994 2138 
Q 2813 1869 2534 1725 
Q 2256 1581 1919 1581 
Q 1219 1581 811 2004 
Q 403 2428 403 3163 
Q 403 3881 828 4315 
Q 1253 4750 1959 4750 
Q 2769 4750 3195 4129 
Q 3622 3509 3622 2328 
Q 3622 1225 3098 567 
Q 2575 -91 1691 -91 
Q 1453 -91 1209 -44 
Q 966 3 703 97 
z
M 1959 2075 
Q 2384 2075 2632 2365 
Q 2881 2656 2881 3163 
Q 2881 3666 2632 3958 
Q 2384 4250 1959 4250 
Q 1534 4250 1286 3958 
Q 1038 3666 1038 3163 
Q 1038 2656 1286 2365 
Q 1534 2075 1959 2075 
z
" transform="scale(0.015625)"/>
        <path id="DejaVuSans-36" d="M 2113 2584 
Q 1688 2584 1439 2293 
Q 1191 2003 1191 1497 
Q 1191 994 1439 701 
Q 1688 409 2113 409 
Q 2538 409 2786 701 
Q 3034 994 3034 1497 
Q 3034 2003 2786 2293 
Q 2538 2584 2113 2584 
z
M 3366 4563 
L 3366 3988 
Q 3128 4100 2886 4159 
Q 2644 4219 2406 4219 
Q 1781 4219 1451 3797 
Q 1122 3375 1075 2522 
Q 1259 2794 1537 2939 
Q 1816 3084 2150 3084 
Q 2853 3084 3261 2657 
Q 3669 2231 3669 1497 
Q 3669 778 3244 343 
Q 2819 -91 2113 -91 
Q 1303 -91 875 529 
Q 447 1150 447 2328 
Q 447 3434 972 4092 
Q 1497 4750 2381 4750 
Q 2619 4750 2861 4703 
Q 3103 4656 3366 4563 
z
" transform="scale(0.015625)"/>
       </defs>
       <use xlink:href="#DejaVuSans-2d"/>
       <use xlink:href="#DejaVuSans-30" transform="translate(36.083984 0)"/>
       <use xlink:href="#DejaVuSans-2e" transform="translate(99.707031 0)"/>
       <use xlink:href="#DejaVuSans-39" transform="translate(131.494141 0)"/>
       <use xlink:href="#DejaVuSans-36" transform="translate(195.117188 0)"/>
      </g>
     </g>
    </g>
    <g id="ytick_9">
     <g id="line2d_25">
      <g>
       <use xlink:href="#m0a27ea52cb" x="410.282262" y="253.418481" style="stroke: #000000; stroke-width: 0.8"/>
      </g>
     </g>
     <g id="text_14">
      <!-- -0.84 -->
      <g transform="translate(417.282262 257.2177) scale(0.1 -0.1)">
       <defs>
        <path id="DejaVuSans-38" d="M 2034 2216 
Q 1584 2216 1326 1975 
Q 1069 1734 1069 1313 
Q 1069 891 1326 650 
Q 1584 409 2034 409 
Q 2484 409 2743 651 
Q 3003 894 3003 1313 
Q 3003 1734 2745 1975 
Q 2488 2216 2034 2216 
z
M 1403 2484 
Q 997 2584 770 2862 
Q 544 3141 544 3541 
Q 544 4100 942 4425 
Q 1341 4750 2034 4750 
Q 2731 4750 3128 4425 
Q 3525 4100 3525 3541 
Q 3525 3141 3298 2862 
Q 3072 2584 2669 2484 
Q 3125 2378 3379 2068 
Q 3634 1759 3634 1313 
Q 3634 634 3220 271 
Q 2806 -91 2034 -91 
Q 1263 -91 848 271 
Q 434 634 434 1313 
Q 434 1759 690 2068 
Q 947 2378 1403 2484 
z
M 1172 3481 
Q 1172 3119 1398 2916 
Q 1625 2713 2034 2713 
Q 2441 2713 2670 2916 
Q 2900 3119 2900 3481 
Q 2900 3844 2670 4047 
Q 2441 4250 2034 4250 
Q 1625 4250 1398 4047 
Q 1172 3844 1172 3481 
z
" transform="scale(0.015625)"/>
       </defs>
       <use xlink:href="#DejaVuSans-2d"/>
       <use xlink:href="#DejaVuSans-30" transform="translate(36.083984 0)"/>
       <use xlink:href="#DejaVuSans-2e" transform="translate(99.707031 0)"/>
       <use xlink:href="#DejaVuSans-38" transform="translate(131.494141 0)"/>
       <use xlink:href="#DejaVuSans-34" transform="translate(195.117188 0)"/>
      </g>
     </g>
    </g>
    <g id="ytick_10">
     <g id="line2d_26">
      <g>
       <use xlink:href="#m0a27ea52cb" x="410.282262" y="214.201795" style="stroke: #000000; stroke-width: 0.8"/>
      </g>
     </g>
     <g id="text_15">
      <!-- -0.72 -->
      <g transform="translate(417.282262 218.001014) scale(0.1 -0.1)">
       <defs>
        <path id="DejaVuSans-37" d="M 525 4666 
L 3525 4666 
L 3525 4397 
L 1831 0 
L 1172 0 
L 2766 4134 
L 525 4134 
L 525 4666 
z
" transform="scale(0.015625)"/>
       </defs>
       <use xlink:href="#DejaVuSans-2d"/>
       <use xlink:href="#DejaVuSans-30" transform="translate(36.083984 0)"/>
       <use xlink:href="#DejaVuSans-2e" transform="translate(99.707031 0)"/>
       <use xlink:href="#DejaVuSans-37" transform="translate(131.494141 0)"/>
       <use xlink:href="#DejaVuSans-32" transform="translate(195.117188 0)"/>
      </g>
     </g>
    </g>
    <g id="ytick_11">
     <g id="line2d_27">
      <g>
       <use xlink:href="#m0a27ea52cb" x="410.282262" y="174.985109" style="stroke: #000000; stroke-width: 0.8"/>
      </g>
     </g>
     <g id="text_16">
      <!-- -0.60 -->
      <g transform="translate(417.282262 178.784328) scale(0.1 -0.1)">
       <use xlink:href="#DejaVuSans-2d"/>
       <use xlink:href="#DejaVuSans-30" transform="translate(36.083984 0)"/>
       <use xlink:href="#DejaVuSans-2e" transform="translate(99.707031 0)"/>
       <use xlink:href="#DejaVuSans-36" transform="translate(131.494141 0)"/>
       <use xlink:href="#DejaVuSans-30" transform="translate(195.117188 0)"/>
      </g>
     </g>
    </g>
    <g id="ytick_12">
     <g id="line2d_28">
      <g>
       <use xlink:href="#m0a27ea52cb" x="410.282262" y="135.768423" style="stroke: #000000; stroke-width: 0.8"/>
      </g>
     </g>
     <g id="text_17">
      <!-- -0.48 -->
      <g transform="translate(417.282262 139.567642) scale(0.1 -0.1)">
       <use xlink:href="#DejaVuSans-2d"/>
       <use xlink:href="#DejaVuSans-30" transform="translate(36.083984 0)"/>
       <use xlink:href="#DejaVuSans-2e" transform="translate(99.707031 0)"/>
       <use xlink:href="#DejaVuSans-34" transform="translate(131.494141 0)"/>
       <use xlink:href="#DejaVuSans-38" transform="translate(195.117188 0)"/>
      </g>
     </g>
    </g>
    <g id="ytick_13">
     <g id="line2d_29">
      <g>
       <use xlink:href="#m0a27ea52cb" x="410.282262" y="96.551737" style="stroke: #000000; stroke-width: 0.8"/>
      </g>
     </g>
     <g id="text_18">
      <!-- -0.36 -->
      <g transform="translate(417.282262 100.350956) scale(0.1 -0.1)">
       <use xlink:href="#DejaVuSans-2d"/>
       <use xlink:href="#DejaVuSans-30" transform="translate(36.083984 0)"/>
       <use xlink:href="#DejaVuSans-2e" transform="translate(99.707031 0)"/>
       <use xlink:href="#DejaVuSans-33" transform="translate(131.494141 0)"/>
       <use xlink:href="#DejaVuSans-36" transform="translate(195.117188 0)"/>
      </g>
     </g>
    </g>
    <g id="ytick_14">
     <g id="line2d_30">
      <g>
       <use xlink:href="#m0a27ea52cb" x="410.282262" y="57.335051" style="stroke: #000000; stroke-width: 0.8"/>
      </g>
     </g>
     <g id="text_19">
      <!-- -0.24 -->
      <g transform="translate(417.282262 61.13427) scale(0.1 -0.1)">
       <use xlink:href="#DejaVuSans-2d"/>
       <use xlink:href="#DejaVuSans-30" transform="translate(36.083984 0)"/>
       <use xlink:href="#DejaVuSans-2e" transform="translate(99.707031 0)"/>
       <use xlink:href="#DejaVuSans-32" transform="translate(131.494141 0)"/>
       <use xlink:href="#DejaVuSans-34" transform="translate(195.117188 0)"/>
      </g>
     </g>
    </g>
    <g id="ytick_15">
     <g id="line2d_31">
      <g>
       <use xlink:href="#m0a27ea52cb" x="410.282262" y="18.118365" style="stroke: #000000; stroke-width: 0.8"/>
      </g>
     </g>
     <g id="text_20">
      <!-- -0.12 -->
      <g transform="translate(417.282262 21.917584) scale(0.1 -0.1)">
       <use xlink:href="#DejaVuSans-2d"/>
       <use xlink:href="#DejaVuSans-30" transform="translate(36.083984 0)"/>
       <use xlink:href="#DejaVuSans-2e" transform="translate(99.707031 0)"/>
       <use xlink:href="#DejaVuSans-31" transform="translate(131.494141 0)"/>
       <use xlink:href="#DejaVuSans-32" transform="translate(195.117188 0)"/>
      </g>
     </g>
    </g>
    <g id="text_21">
     <!-- Score -->
     <g transform="translate(454.754137 179.183281) rotate(-90) scale(0.1 -0.1)">
      <defs>
       <path id="DejaVuSans-53" d="M 3425 4513 
L 3425 3897 
Q 3066 4069 2747 4153 
Q 2428 4238 2131 4238 
Q 1616 4238 1336 4038 
Q 1056 3838 1056 3469 
Q 1056 3159 1242 3001 
Q 1428 2844 1947 2747 
L 2328 2669 
Q 3034 2534 3370 2195 
Q 3706 1856 3706 1288 
Q 3706 609 3251 259 
Q 2797 -91 1919 -91 
Q 1588 -91 1214 -16 
Q 841 59 441 206 
L 441 856 
Q 825 641 1194 531 
Q 1563 422 1919 422 
Q 2459 422 2753 634 
Q 3047 847 3047 1241 
Q 3047 1584 2836 1778 
Q 2625 1972 2144 2069 
L 1759 2144 
Q 1053 2284 737 2584 
Q 422 2884 422 3419 
Q 422 4038 858 4394 
Q 1294 4750 2059 4750 
Q 2388 4750 2728 4690 
Q 3069 4631 3425 4513 
z
" transform="scale(0.015625)"/>
      </defs>
      <use xlink:href="#DejaVuSans-53"/>
      <use xlink:href="#DejaVuSans-63" transform="translate(63.476562 0)"/>
      <use xlink:href="#DejaVuSans-6f" transform="translate(118.457031 0)"/>
      <use xlink:href="#DejaVuSans-72" transform="translate(179.638672 0)"/>
      <use xlink:href="#DejaVuSans-65" transform="translate(218.501953 0)"/>
     </g>
    </g>
   </g>
   <g id="LineCollection_1"/>
   <g id="patch_8">
    <path d="M 395.576005 312.24351 
L 402.929133 312.24351 
L 410.282262 312.24351 
L 410.282262 18.118365 
L 402.929133 18.118365 
L 395.576005 18.118365 
L 395.576005 312.24351 
z
" style="fill: none; stroke: #000000; stroke-width: 0.8; stroke-linejoin: miter; stroke-linecap: square"/>
   </g>
  </g>
 </g>
 <defs>
  <clipPath id="pcdd9c1d8d8">
   <rect x="39.58149" y="18.118365" width="339.042395" height="294.125145"/>
  </clipPath>
  <clipPath id="pbdd60e4c41">
   <rect x="395.576005" y="18.118365" width="14.706257" height="294.125145"/>
  </clipPath>
 </defs>
</svg>
