<?xml version="1.0" encoding="utf-8" standalone="no"?>
<!DOCTYPE svg PUBLIC "-//W3C//DTD SVG 1.1//EN"
  "http://www.w3.org/Graphics/SVG/1.1/DTD/svg11.dtd">
<svg xmlns:xlink="http://www.w3.org/1999/xlink" width="468.262959pt" height="353.99952pt" viewBox="0 0 468.262959 353.99952" xmlns="http://www.w3.org/2000/svg" version="1.1">
 <metadata>
  <rdf:RDF xmlns:dc="http://purl.org/dc/elements/1.1/" xmlns:cc="http://creativecommons.org/ns#" xmlns:rdf="http://www.w3.org/1999/02/22-rdf-syntax-ns#">
   <cc:Work>
    <dc:type rdf:resource="http://purl.org/dc/dcmitype/StillImage"/>
    <dc:date>1970-01-01T00:00:00+00:00</dc:date>
    <dc:format>image/svg+xml</dc:format>
    <dc:creator>
     <cc:Agent>
      <dc:title>Matplotlib v3.10.7, https://matplotlib.org/</dc:title>
     </cc:Agent>
    </dc:creator>
   </cc:Work>
  </rdf:RDF>
 </metadata>
 <defs>
  <style type="text/css">*{stroke-linejoin: round; stroke-linecap: butt}</style>
 </defs>
 <g id="figure_1">
  <g id="patch_1">
   <path d="M 0 353.99952 
L 468.262959 353.99952 
L 468.262959 0 
L 0 0 
z
" style="fill: #ffffff"/>
  </g>
  <g id="axes_1">
   <g id="patch_2">
    <path d="M 43.78125 316.44327 
L 371.661145 316.44327 
L 371.661145 22.318125 
L 43.78125 22.318125 
z
" style="fill: #ffffff"/>
   </g>
   <g id="QuadContourSet_1">
    <path d="M 590.247741 100.149339 
L 592.440225 95.849411 
L 597.200693 71.338982 
L 597.759436 46.828554 
L 596.423269 22.318125 
L 590.247741 22.318125 
L 553.816642 22.318125 
L 517.385543 22.318125 
L 511.266669 22.318125 
L 517.385543 39.934963 
L 529.137774 46.828554 
L 550.882423 71.338982 
L 553.816642 76.648097 
L 587.982711 95.849411 
z
" clip-path="url(#pd025393979)" style="fill: #470d60"/>
    <path d="M 590.247741 164.713354 
L 626.678841 147.465494 
L 628.133751 144.870269 
L 633.433306 120.35984 
L 633.494742 95.849411 
L 631.329897 71.338982 
L 627.493219 46.828554 
L 626.678841 42.636395 
L 625.291161 22.318125 
L 596.423269 22.318125 
L 597.759436 46.828554 
L 597.200693 71.338982 
L 592.440225 95.849411 
L 590.247741 100.149339 
L 587.982711 95.849411 
L 553.816642 76.648097 
L 550.882423 71.338982 
L 529.137774 46.828554 
L 517.385543 39.934963 
L 511.266669 22.318125 
L 498.215755 22.318125 
L 509.895169 46.828554 
L 517.385543 67.186031 
L 523.215963 71.338982 
L 545.355029 95.849411 
L 553.816642 112.279334 
L 564.669531 120.35984 
L 582.515253 144.870269 
z
" clip-path="url(#pd025393979)" style="fill: #482475"/>
    <path d="M 626.678841 235.393858 
L 663.10994 236.007179 
L 690.21243 218.401555 
L 696.734484 193.891126 
L 697.879158 169.380697 
L 697.382552 144.870269 
L 695.852986 120.35984 
L 693.583585 95.849411 
L 690.973889 71.338982 
L 687.693 46.828554 
L 684.024729 22.318125 
L 663.10994 22.318125 
L 626.678841 22.318125 
L 625.291161 22.318125 
L 626.678841 42.636395 
L 627.493219 46.828554 
L 631.329897 71.338982 
L 633.494742 95.849411 
L 633.433306 120.35984 
L 628.133751 144.870269 
L 626.678841 147.465494 
L 590.247741 164.713354 
L 582.515253 144.870269 
L 564.669531 120.35984 
L 553.816642 112.279334 
L 545.355029 95.849411 
L 523.215963 71.338982 
L 517.385543 67.186031 
L 509.895169 46.828554 
L 498.215755 22.318125 
L 481.755198 22.318125 
L 498.884687 46.828554 
L 510.384526 71.338982 
L 517.385543 89.606717 
L 524.777074 95.849411 
L 544.328239 120.35984 
L 553.816642 140.294075 
L 558.917993 144.870269 
L 577.488048 169.380697 
L 587.453278 193.891126 
L 590.247741 203.243262 
L 615.78758 218.401555 
z
" clip-path="url(#pd025393979)" style="fill: #443983"/>
    <path d="M -29.080949 316.44327 
L 7.350151 316.44327 
L 43.78125 316.44327 
L 80.212349 316.44327 
L 116.643449 316.44327 
L 153.074548 316.44327 
L 189.505648 316.44327 
L 225.936747 316.44327 
L 227.216396 316.44327 
L 225.936747 315.981359 
L 189.505648 297.902958 
L 177.125731 291.932841 
L 153.074548 283.1967 
L 125.608374 267.422412 
L 116.643449 264.473139 
L 80.212349 244.437742 
L 76.055658 242.911984 
L 43.78125 230.341788 
L 28.605741 218.401555 
L 7.350151 207.926392 
L -22.488434 193.891126 
L -29.080949 192.354446 
L -65.512048 178.178381 
L -65.512048 193.891126 
L -65.512048 218.401555 
L -65.512048 242.911984 
L -65.512048 267.422412 
L -65.512048 291.932841 
L -65.512048 316.44327 
z
M 626.678841 316.44327 
L 663.10994 316.44327 
L 699.54104 316.44327 
L 735.972139 316.44327 
L 772.403239 316.44327 
L 808.834338 316.44327 
L 845.265437 316.44327 
L 881.696537 316.44327 
L 918.127636 316.44327 
L 954.558736 316.44327 
L 990.989835 316.44327 
L 1027.420935 316.44327 
L 1063.852034 316.44327 
L 1100.283133 316.44327 
L 1136.714233 316.44327 
L 1173.145332 316.44327 
L 1209.576432 316.44327 
L 1246.007531 316.44327 
L 1282.438631 316.44327 
L 1318.86973 316.44327 
L 1355.300829 316.44327 
L 1391.731929 316.44327 
L 1428.163028 316.44327 
L 1464.594128 316.44327 
L 1501.025227 316.44327 
L 1537.456327 316.44327 
L 1537.456327 291.932841 
L 1537.456327 267.422412 
L 1537.456327 242.911984 
L 1537.456327 218.401555 
L 1537.456327 193.891126 
L 1537.456327 169.380697 
L 1537.456327 144.870269 
L 1537.456327 120.35984 
L 1537.456327 95.849411 
L 1537.456327 71.338982 
L 1537.456327 46.828554 
L 1537.456327 22.318125 
L 1501.025227 22.318125 
L 1464.594128 22.318125 
L 1428.163028 22.318125 
L 1391.731929 22.318125 
L 1355.300829 22.318125 
L 1318.86973 22.318125 
L 1282.438631 22.318125 
L 1246.007531 22.318125 
L 1209.576432 22.318125 
L 1173.145332 22.318125 
L 1136.714233 22.318125 
L 1100.283133 22.318125 
L 1063.852034 22.318125 
L 1027.420935 22.318125 
L 990.989835 22.318125 
L 954.558736 22.318125 
L 918.127636 22.318125 
L 881.696537 22.318125 
L 845.265437 22.318125 
L 808.834338 22.318125 
L 772.403239 22.318125 
L 735.972139 22.318125 
L 699.54104 22.318125 
L 684.024729 22.318125 
L 687.693 46.828554 
L 690.973889 71.338982 
L 693.583585 95.849411 
L 695.852986 120.35984 
L 697.382552 144.870269 
L 697.879158 169.380697 
L 696.734484 193.891126 
L 690.21243 218.401555 
L 663.10994 236.007179 
L 626.678841 235.393858 
L 615.78758 218.401555 
L 590.247741 203.243262 
L 587.453278 193.891126 
L 577.488048 169.380697 
L 558.917993 144.870269 
L 553.816642 140.294075 
L 544.328239 120.35984 
L 524.777074 95.849411 
L 517.385543 89.606717 
L 510.384526 71.338982 
L 498.884687 46.828554 
L 481.755198 22.318125 
L 480.954443 22.318125 
L 471.972756 22.318125 
L 480.954443 41.006795 
L 485.546596 46.828554 
L 500.887939 71.338982 
L 511.934087 95.849411 
L 517.385543 109.158469 
L 528.87398 120.35984 
L 545.333997 144.870269 
L 553.816642 163.531229 
L 559.474751 169.380697 
L 576.195169 193.891126 
L 585.736573 218.401555 
L 590.247741 235.107684 
L 600.451321 242.911984 
L 616.855988 267.422412 
L 622.995581 291.932841 
L 624.509757 316.44327 
z
" clip-path="url(#pd025393979)" style="fill: #3d4d8a"/>
    <path d="M 189.505648 297.902958 
L 225.936747 315.981359 
L 227.216396 316.44327 
L 257.518734 316.44327 
L 225.936747 301.809108 
L 212.131174 291.932841 
L 189.505648 279.778438 
L 170.912007 267.422412 
L 153.074548 258.229614 
L 127.682742 242.911984 
L 116.643449 237.577247 
L 88.147193 218.401555 
L 80.212349 214.702513 
L 46.336815 193.891126 
L 43.78125 192.72726 
L 7.350151 174.455624 
L -1.235739 169.380697 
L -29.080949 156.194688 
L -44.42155 144.870269 
L -65.512048 134.709283 
L -65.512048 144.870269 
L -65.512048 169.380697 
L -65.512048 178.178381 
L -29.080949 192.354446 
L -22.488434 193.891126 
L 7.350151 207.926392 
L 28.605741 218.401555 
L 43.78125 230.341788 
L 76.055658 242.911984 
L 80.212349 244.437742 
L 116.643449 264.473139 
L 125.608374 267.422412 
L 153.074548 283.1967 
L 177.125731 291.932841 
z
M 622.995581 291.932841 
L 616.855988 267.422412 
L 600.451321 242.911984 
L 590.247741 235.107684 
L 585.736573 218.401555 
L 576.195169 193.891126 
L 559.474751 169.380698 
L 553.816642 163.531229 
L 545.333997 144.870269 
L 528.87398 120.35984 
L 517.385543 109.158469 
L 511.934087 95.849411 
L 500.887939 71.338982 
L 485.546596 46.828554 
L 480.954443 41.006795 
L 471.972756 22.318125 
L 460.996923 22.318125 
L 474.695025 46.828554 
L 480.954443 59.377042 
L 489.710397 71.338982 
L 503.400328 95.849411 
L 514.395395 120.35984 
L 517.385543 127.06157 
L 533.30512 144.870269 
L 547.336082 169.380697 
L 553.816642 183.666423 
L 562.491493 193.891126 
L 576.624847 218.401555 
L 585.144928 242.911984 
L 590.247741 264.441221 
L 593.258964 267.422412 
L 607.775835 291.932841 
L 613.752725 316.44327 
L 624.509757 316.44327 
z
M 335.230045 194.99142 
L 338.286164 193.891126 
L 335.230045 190.652494 
L 334.76864 193.891126 
z
" clip-path="url(#pd025393979)" style="fill: #355f8d"/>
    <path d="M 225.936747 301.809108 
L 257.518734 316.44327 
L 262.367847 316.44327 
L 270.910578 316.44327 
L 262.367847 311.434385 
L 230.20472 291.932841 
L 225.936747 289.592584 
L 191.549554 267.422412 
L 189.505648 266.33848 
L 153.074548 243.597381 
L 152.131656 242.911984 
L 116.643449 221.861215 
L 112.362256 218.401555 
L 80.212349 200.070344 
L 71.90114 193.891126 
L 43.78125 178.090237 
L 30.606796 169.380697 
L 7.350151 156.953969 
L -11.134823 144.870269 
L -29.080949 135.557329 
L -52.982228 120.35984 
L -65.512048 114.027916 
L -65.512048 120.35984 
L -65.512048 134.709283 
L -44.42155 144.870269 
L -29.080949 156.194688 
L -1.235739 169.380697 
L 7.350151 174.455624 
L 43.78125 192.72726 
L 46.336815 193.891126 
L 80.212349 214.702513 
L 88.147193 218.401555 
L 116.643449 237.577247 
L 127.682742 242.911984 
L 153.074548 258.229614 
L 170.912007 267.422412 
L 189.505648 279.778438 
L 212.131174 291.932841 
z
M 590.247741 295.374305 
L 600.785175 316.44327 
L 613.752725 316.44327 
L 607.775835 291.932841 
L 593.258964 267.422412 
L 590.247741 264.441221 
L 585.144928 242.911984 
L 576.624847 218.401555 
L 562.491493 193.891126 
L 553.816642 183.666423 
L 547.336082 169.380697 
L 533.30512 144.870269 
L 517.385543 127.06157 
L 514.395395 120.35984 
L 503.400328 95.849411 
L 489.710397 71.338982 
L 480.954443 59.377042 
L 474.695025 46.828554 
L 460.996923 22.318125 
L 447.709704 22.318125 
L 464.546339 46.828554 
L 477.922746 71.338982 
L 480.954443 77.137887 
L 493.533822 95.849411 
L 506.232535 120.35984 
L 517.385543 143.823721 
L 518.440416 144.870269 
L 537.373099 169.380697 
L 550.020558 193.891126 
L 553.816642 201.982518 
L 565.977014 218.401555 
L 577.550841 242.911984 
L 584.89303 267.422412 
L 589.683844 291.932841 
z
M 371.661145 274.510514 
L 388.631603 267.422412 
L 378.59798 242.911984 
L 371.661145 228.83034 
L 370.091115 242.911984 
L 368.867607 267.422412 
z
M 335.230045 204.586606 
L 360.080692 193.891126 
L 342.719043 169.380697 
L 335.230045 158.84791 
L 334.088119 169.380697 
L 330.595613 193.891126 
z
M 334.76864 193.891126 
L 335.230045 190.652494 
L 338.286164 193.891126 
L 335.230045 194.99142 
z
M 298.798946 130.449785 
L 322.655174 120.35984 
L 305.782824 95.849411 
L 298.798946 88.098107 
L 297.45922 95.849411 
L 294.649922 120.35984 
z
M 262.367847 54.246772 
L 284.035806 46.828554 
L 269.095981 22.318125 
L 262.367847 22.318125 
L 261.061921 22.318125 
L 259.1081 46.828554 
z
" clip-path="url(#pd025393979)" style="fill: #2d708e"/>
    <path d="M 262.367847 311.434385 
L 270.910578 316.44327 
L 280.286904 316.44327 
L 262.367847 305.099669 
L 242.536795 291.932841 
L 225.936747 281.872187 
L 205.739676 267.422412 
L 189.505648 257.765757 
L 168.509409 242.911984 
L 153.074548 233.719603 
L 131.083436 218.401555 
L 116.643449 210.208839 
L 92.327809 193.891126 
L 80.212349 186.348493 
L 54.518663 169.380697 
L 43.78125 163.352702 
L 14.642919 144.870269 
L 7.350151 140.867267 
L -25.805978 120.35984 
L -29.080949 118.564868 
L -65.512048 96.315594 
L -65.512048 114.027916 
L -52.982228 120.35984 
L -29.080949 135.557329 
L -11.134823 144.870269 
L 7.350151 156.953969 
L 30.606796 169.380697 
L 43.78125 178.090237 
L 71.90114 193.891126 
L 80.212349 200.070344 
L 112.362256 218.401555 
L 116.643449 221.861215 
L 152.131656 242.911984 
L 153.074548 243.597381 
L 189.505648 266.33848 
L 191.549554 267.422412 
L 225.936747 289.592584 
L 230.20472 291.932841 
z
M 408.092244 316.44327 
L 423.458205 316.44327 
L 414.642755 291.932841 
L 408.092244 276.549035 
L 405.152878 267.422412 
L 395.304989 242.911984 
L 385.77289 218.401555 
L 377.909562 193.891126 
L 371.661145 181.048895 
L 366.327989 169.380697 
L 352.765867 144.870269 
L 342.964064 120.35984 
L 337.328476 95.849411 
L 335.230045 90.711059 
L 324.937644 71.338982 
L 308.809609 46.828554 
L 301.598533 22.318125 
L 298.798946 22.318125 
L 269.095981 22.318125 
L 284.035806 46.828554 
L 262.367847 54.246772 
L 259.1081 46.828554 
L 261.061921 22.318125 
L 251.656606 22.318125 
L 254.48779 46.828554 
L 262.367847 64.127704 
L 284.143957 71.338982 
L 288.398974 95.849411 
L 290.127976 120.35984 
L 298.798946 140.718868 
L 315.022993 144.870269 
L 329.238452 169.380697 
L 326.127879 193.891126 
L 335.230045 214.181792 
L 351.285118 218.401555 
L 365.287261 242.911984 
L 365.137625 267.422412 
L 371.661145 283.49983 
L 400.101586 291.932841 
L 403.139935 316.44327 
z
M 368.867607 267.422412 
L 370.091115 242.911984 
L 371.661145 228.83034 
L 378.59798 242.911984 
L 388.631603 267.422412 
L 371.661145 274.510514 
z
M 330.595613 193.891126 
L 334.088119 169.380697 
L 335.230045 158.84791 
L 342.719043 169.380697 
L 360.080692 193.891126 
L 335.230045 204.586606 
z
M 294.649922 120.35984 
L 297.45922 95.849411 
L 298.798946 88.098107 
L 305.782824 95.849411 
L 322.655174 120.35984 
L 298.798946 130.449785 
z
M 590.247741 316.44327 
L 600.785175 316.44327 
L 590.247741 295.374305 
L 589.683844 291.932841 
L 584.89303 267.422412 
L 577.550841 242.911984 
L 565.977014 218.401555 
L 553.816642 201.982518 
L 550.020558 193.891126 
L 537.373099 169.380697 
L 518.440416 144.870269 
L 517.385543 143.823721 
L 506.232535 120.35984 
L 493.533822 95.849411 
L 480.954443 77.137887 
L 477.922746 71.338982 
L 464.546339 46.828554 
L 447.709704 22.318125 
L 444.523344 22.318125 
L 436.820577 22.318125 
L 444.523344 36.666945 
L 452.453503 46.828554 
L 467.77195 71.338982 
L 480.954443 94.650593 
L 481.839841 95.849411 
L 496.858704 120.35984 
L 509.390059 144.870269 
L 517.385543 159.929626 
L 525.543233 169.380697 
L 541.09949 193.891126 
L 553.441311 218.401555 
L 553.816642 219.152516 
L 568.919652 242.911984 
L 578.336637 267.422412 
L 584.321755 291.932841 
L 588.664409 316.44327 
z
" clip-path="url(#pd025393979)" style="fill: #27808e"/>
    <path d="M 262.367847 305.099669 
L 280.286904 316.44327 
L 288.451654 316.44327 
L 262.367847 298.764953 
L 252.853287 291.932841 
L 225.936747 274.15179 
L 217.323587 267.422412 
L 189.505648 249.193033 
L 181.459247 242.911984 
L 153.074548 224.075476 
L 145.789872 218.401555 
L 116.643449 199.70353 
L 109.009491 193.891126 
L 80.212349 173.292097 
L 75.146906 169.380697 
L 43.78125 148.467482 
L 39.064908 144.870269 
L 7.350151 123.54746 
L 3.205828 120.35984 
L -29.080949 97.865703 
L -31.651443 95.849411 
L -65.512048 73.392758 
L -65.512048 95.849411 
L -65.512048 96.315594 
L -29.080949 118.564868 
L -25.805978 120.35984 
L 7.350151 140.867267 
L 14.642919 144.870269 
L 43.78125 163.352702 
L 54.518663 169.380697 
L 80.212349 186.348493 
L 92.327809 193.891126 
L 116.643449 210.208839 
L 131.083436 218.401555 
L 153.074548 233.719603 
L 168.509409 242.911984 
L 189.505648 257.765757 
L 205.739676 267.422412 
L 225.936747 281.872187 
L 242.536795 291.932841 
z
M 371.661145 292.326203 
L 397.742987 316.44327 
L 403.139935 316.44327 
L 400.101586 291.932841 
L 371.661145 283.49983 
L 365.137625 267.422412 
L 365.287261 242.911984 
L 351.285118 218.401555 
L 335.230045 214.181792 
L 326.127879 193.891126 
L 329.238452 169.380697 
L 315.022993 144.870269 
L 298.798946 140.718868 
L 290.127976 120.35984 
L 288.398974 95.849411 
L 284.143957 71.338982 
L 262.367847 64.127704 
L 254.48779 46.828554 
L 251.656606 22.318125 
L 240.605381 22.318125 
L 249.50342 46.828554 
L 260.499271 71.338982 
L 262.367847 75.871222 
L 277.821416 95.849411 
L 285.257898 120.35984 
L 294.923888 144.870269 
L 298.798946 148.196468 
L 323.986086 169.380697 
L 321.320628 193.891126 
L 332.453348 218.401555 
L 335.230045 221.554964 
L 360.088594 242.911984 
L 361.173964 267.422412 
L 371.318169 291.932841 
z
M 430.360996 291.932841 
L 423.614192 267.422412 
L 408.972174 242.911984 
L 408.092244 241.513197 
L 400.804728 218.401555 
L 394.635595 193.891126 
L 387.02966 169.380697 
L 372.701179 144.870269 
L 371.661145 143.490597 
L 362.811426 120.35984 
L 356.818059 95.849411 
L 350.011313 71.338982 
L 335.230045 50.91929 
L 332.659376 46.828554 
L 323.718005 22.318125 
L 301.598533 22.318125 
L 308.809609 46.828554 
L 324.937644 71.338982 
L 335.230045 90.711059 
L 337.328476 95.849411 
L 342.964064 120.35984 
L 352.765867 144.870269 
L 366.327989 169.380697 
L 371.661145 181.048895 
L 377.909562 193.891126 
L 385.77289 218.401555 
L 395.304989 242.911984 
L 405.152878 267.422412 
L 408.092244 276.549035 
L 414.642755 291.932841 
L 423.458205 316.44327 
L 435.860605 316.44327 
z
M 584.321755 291.932841 
L 578.336637 267.422412 
L 568.919652 242.911984 
L 553.816642 219.152516 
L 553.441311 218.401555 
L 541.09949 193.891126 
L 525.543233 169.380697 
L 517.385543 159.929626 
L 509.390059 144.870269 
L 496.858704 120.35984 
L 481.839841 95.849411 
L 480.954443 94.650593 
L 467.77195 71.338982 
L 452.453503 46.828554 
L 444.523344 36.666945 
L 436.820577 22.318125 
L 425.494018 22.318125 
L 439.022992 46.828554 
L 444.523344 55.771013 
L 455.676114 71.338982 
L 470.457088 95.849411 
L 480.954443 113.101745 
L 485.85095 120.35984 
L 499.57709 144.870269 
L 513.090386 169.380697 
L 517.385543 176.21575 
L 530.711256 193.891126 
L 544.662305 218.401555 
L 553.816642 235.505068 
L 558.922605 242.911984 
L 571.021677 267.422412 
L 578.462947 291.932841 
L 583.53679 316.44327 
L 588.664409 316.44327 
z
" clip-path="url(#pd025393979)" style="fill: #21918c"/>
    <path d="M 262.367847 298.764953 
L 288.451654 316.44327 
L 295.682411 316.44327 
L 262.367847 292.430238 
L 261.721425 291.932841 
L 228.043495 267.422412 
L 225.936747 266.187184 
L 194.227039 242.911984 
L 189.505648 240.094124 
L 160.794625 218.401555 
L 153.074548 213.584513 
L 126.213382 193.891126 
L 116.643449 188.165674 
L 94.418671 169.380698 
L 80.212349 160.508685 
L 60.19752 144.870269 
L 43.78125 134.812118 
L 25.552916 120.35984 
L 7.350151 108.21095 
L -7.543429 95.849411 
L -29.080949 81.916211 
L -42.251321 71.338982 
L -65.512048 56.265846 
L -65.512048 71.338982 
L -65.512048 73.392758 
L -31.651443 95.849411 
L -29.080949 97.865703 
L 3.205828 120.35984 
L 7.350151 123.54746 
L 39.064908 144.870269 
L 43.78125 148.467482 
L 75.146906 169.380697 
L 80.212349 173.292097 
L 109.009491 193.891126 
L 116.643449 199.70353 
L 145.789872 218.401555 
L 153.074548 224.075476 
L 181.459247 242.911984 
L 189.505648 249.193033 
L 217.323587 267.422412 
L 225.936747 274.15179 
L 252.853287 291.932841 
z
M 371.661145 298.682511 
L 391.842533 316.44327 
L 397.742987 316.44327 
L 371.661145 292.326203 
L 371.318169 291.932841 
L 361.173964 267.422412 
L 360.088594 242.911984 
L 335.230045 221.554964 
L 332.453348 218.401555 
L 321.320628 193.891126 
L 323.986086 169.380697 
L 298.798946 148.196468 
L 294.923888 144.870269 
L 285.257898 120.35984 
L 277.821416 95.849411 
L 262.367847 75.871222 
L 260.499271 71.338982 
L 249.50342 46.828554 
L 240.605381 22.318125 
L 227.207382 22.318125 
L 244.092671 46.828554 
L 253.059535 71.338982 
L 262.367847 92.645969 
L 265.114062 95.849411 
L 279.98158 120.35984 
L 287.833194 144.870269 
L 298.798946 153.779796 
L 318.258037 169.380697 
L 316.117982 193.891126 
L 327.172232 218.401555 
L 335.230045 227.183832 
L 354.424359 242.911984 
L 356.945375 267.422412 
L 365.501725 291.932841 
z
M 444.523344 316.44327 
L 448.821195 316.44327 
L 444.523344 302.817253 
L 442.94176 291.932841 
L 438.952127 267.422412 
L 430.04968 242.911984 
L 419.271026 218.401555 
L 408.092244 195.005684 
L 407.852478 193.891126 
L 403.655225 169.380697 
L 397.944374 144.870269 
L 385.572545 120.35984 
L 371.772721 95.849411 
L 371.661145 95.619227 
L 367.391668 71.338982 
L 361.768084 46.828554 
L 350.394672 22.318125 
L 335.230045 22.318125 
L 323.718005 22.318125 
L 332.659376 46.828554 
L 335.230045 50.91929 
L 350.011313 71.338982 
L 356.818059 95.849411 
L 362.811426 120.35984 
L 371.661145 143.490597 
L 372.701179 144.870269 
L 387.02966 169.380697 
L 394.635595 193.891126 
L 400.804728 218.401555 
L 408.092244 241.513197 
L 408.972174 242.911984 
L 423.614192 267.422412 
L 430.360996 291.932841 
L 435.860605 316.44327 
z
M 578.462947 291.932841 
L 571.021677 267.422412 
L 558.922605 242.911984 
L 553.816642 235.505068 
L 544.662305 218.401555 
L 530.711256 193.891126 
L 517.385543 176.21575 
L 513.090386 169.380697 
L 499.57709 144.870269 
L 485.85095 120.35984 
L 480.954443 113.101745 
L 470.457088 95.849411 
L 455.676114 71.338982 
L 444.523344 55.771013 
L 439.022992 46.828554 
L 425.494018 22.318125 
L 411.688659 22.318125 
L 424.42016 46.828554 
L 439.858584 71.338982 
L 444.523344 77.230358 
L 456.833293 95.849411 
L 471.876257 120.35984 
L 480.954443 133.573672 
L 487.9583 144.870269 
L 501.251324 169.380697 
L 517.385543 192.821983 
L 518.276428 193.891126 
L 534.466309 218.401555 
L 548.280129 242.911984 
L 553.816642 251.912388 
L 562.749372 267.422412 
L 572.005909 291.932841 
L 577.956805 316.44327 
L 583.53679 316.44327 
z
" clip-path="url(#pd025393979)" style="fill: #1fa188"/>
    <path d="M 262.367847 292.430238 
L 295.682411 316.44327 
L 298.798946 316.44327 
L 305.368811 316.44327 
L 298.798946 312.202414 
L 274.268518 291.932841 
L 262.367847 283.7035 
L 242.421385 267.422412 
L 225.936747 256.564321 
L 209.299841 242.911984 
L 189.505648 229.553043 
L 176.366086 218.401555 
L 153.074548 201.883318 
L 143.502851 193.891126 
L 116.643449 175.348958 
L 110.389882 169.380697 
L 80.212349 147.842032 
L 76.86467 144.870269 
L 43.78125 121.548679 
L 42.464817 120.35984 
L 12.890654 95.849411 
L 7.350151 92.405722 
L -18.550146 71.338983 
L -29.080949 64.66373 
L -50.728105 46.828554 
L -65.512048 36.699895 
L -65.512048 46.828554 
L -65.512048 56.265846 
L -42.251321 71.338982 
L -29.080949 81.916211 
L -7.543429 95.849411 
L 7.350151 108.21095 
L 25.552916 120.35984 
L 43.78125 134.812118 
L 60.19752 144.870269 
L 80.212349 160.508685 
L 94.418671 169.380697 
L 116.643449 188.165674 
L 126.213382 193.891126 
L 153.074548 213.584513 
L 160.794625 218.401555 
L 189.505648 240.094124 
L 194.227039 242.911984 
L 225.936747 266.187184 
L 228.043495 267.422412 
L 261.721425 291.932841 
z
M 371.661145 305.038819 
L 385.334867 316.44327 
L 391.842533 316.44327 
L 371.661145 298.682511 
L 365.501725 291.932841 
L 356.945375 267.422412 
L 354.424359 242.911984 
L 335.230045 227.183832 
L 327.172232 218.401555 
L 316.117982 193.891126 
L 318.258037 169.380697 
L 298.798946 153.779796 
L 287.833194 144.870269 
L 279.98158 120.35984 
L 265.114062 95.849411 
L 262.367847 92.645969 
L 253.059535 71.338982 
L 244.092671 46.828554 
L 227.207382 22.318125 
L 225.936747 22.318125 
L 215.808361 22.318125 
L 225.936747 30.600417 
L 238.175716 46.828554 
L 244.627247 71.338982 
L 255.859412 95.849411 
L 262.367847 103.466774 
L 274.22503 120.35984 
L 279.846634 144.870269 
L 298.798946 159.363123 
L 311.959488 169.380697 
L 310.449024 193.891126 
L 321.409971 218.401555 
L 335.230045 232.812701 
L 348.202892 242.911984 
L 352.413891 267.422412 
L 359.096114 291.932841 
z
M 444.523344 302.817253 
L 448.821195 316.44327 
L 468.911847 316.44327 
L 464.535901 291.932841 
L 459.611767 267.422412 
L 448.139687 242.911984 
L 444.523344 236.812633 
L 439.792623 218.401555 
L 433.796761 193.891126 
L 428.609828 169.380697 
L 425.490605 144.870269 
L 412.748986 120.35984 
L 408.092244 116.336289 
L 403.055285 95.849411 
L 401.651638 71.338982 
L 408.092244 56.160422 
L 414.654985 71.338982 
L 426.941261 95.849411 
L 444.523344 105.844933 
L 453.361094 120.35984 
L 468.402104 144.870269 
L 480.954443 159.329612 
L 486.675845 169.380697 
L 500.367941 193.891126 
L 517.385543 211.685636 
L 522.306178 218.401555 
L 536.707035 242.911984 
L 552.989106 267.422412 
L 553.816642 268.437945 
L 564.814435 291.932841 
L 571.836844 316.44327 
L 577.956805 316.44327 
L 572.005909 291.932841 
L 562.749372 267.422412 
L 553.816642 251.912388 
L 548.280129 242.911984 
L 534.466309 218.401555 
L 518.276428 193.891126 
L 517.385543 192.821983 
L 501.251324 169.380697 
L 487.9583 144.870269 
L 480.954443 133.573672 
L 471.876257 120.35984 
L 456.833293 95.849411 
L 444.523344 77.230358 
L 439.858584 71.338982 
L 424.42016 46.828554 
L 411.688659 22.318125 
L 408.092244 22.318125 
L 371.661145 22.318125 
L 350.394672 22.318125 
L 361.768084 46.828554 
L 367.391668 71.338982 
L 371.661145 95.619227 
L 371.772721 95.849411 
L 385.572545 120.35984 
L 397.944374 144.870269 
L 403.655225 169.380697 
L 407.852478 193.891126 
L 408.092244 195.005684 
L 419.271026 218.401555 
L 430.04968 242.911984 
L 438.952127 267.422412 
L 442.94176 291.932841 
z
" clip-path="url(#pd025393979)" style="fill: #2ab07f"/>
    <path d="M 298.798946 312.202414 
L 305.368811 316.44327 
L 316.120852 316.44327 
L 298.798946 304.238087 
L 285.065893 291.932841 
L 262.367847 274.772938 
L 254.129943 267.422412 
L 225.936747 246.941457 
L 221.464405 242.911984 
L 189.505648 219.011963 
L 188.852814 218.401555 
L 161.436249 193.891126 
L 153.074548 187.703341 
L 132.38199 169.380697 
L 116.643449 158.834786 
L 101.706242 144.870269 
L 80.212349 129.0274 
L 70.822566 120.35984 
L 43.78125 101.525139 
L 38.287765 95.849411 
L 7.350151 72.120406 
L 6.556787 71.338982 
L -21.574631 46.828554 
L -29.080949 42.012888 
L -49.304148 22.318125 
L -65.512048 22.318125 
L -65.512048 36.699895 
L -50.728105 46.828554 
L -29.080949 64.66373 
L -18.550146 71.338982 
L 7.350151 92.405722 
L 12.890654 95.849411 
L 42.464817 120.35984 
L 43.78125 121.548679 
L 76.86467 144.870269 
L 80.212349 147.842032 
L 110.389882 169.380697 
L 116.643449 175.348958 
L 143.502851 193.891126 
L 153.074548 201.883318 
L 176.366086 218.401555 
L 189.505648 229.553043 
L 209.299841 242.911984 
L 225.936747 256.564321 
L 242.421385 267.422412 
L 262.367847 283.7035 
L 274.268518 291.932841 
z
M 371.661145 311.395127 
L 378.080522 316.44327 
L 385.334867 316.44327 
L 371.661145 305.038819 
L 359.096114 291.932841 
L 352.413891 267.422412 
L 348.202892 242.911984 
L 335.230045 232.812701 
L 321.409971 218.401555 
L 310.449024 193.891126 
L 311.959488 169.380697 
L 298.798946 159.363123 
L 279.846634 144.870269 
L 274.22503 120.35984 
L 262.367847 103.466774 
L 255.859412 95.849411 
L 244.627247 71.338982 
L 238.175716 46.828554 
L 225.936747 30.600417 
L 215.808361 22.318125 
L 202.508781 22.318125 
L 225.936747 39.645222 
L 231.647967 46.828554 
L 234.896195 71.338982 
L 246.762983 95.849411 
L 262.367847 112.882179 
L 267.891996 120.35984 
L 270.704644 144.870269 
L 298.798946 164.946451 
L 304.964097 169.380697 
L 304.221858 193.891126 
L 315.070024 218.401555 
L 335.230045 238.441569 
L 341.302473 242.911984 
L 347.532747 267.422412 
L 351.968386 291.932841 
z
M 480.954443 316.44327 
L 488.541693 316.44327 
L 483.513535 291.932841 
L 480.954443 281.519729 
L 479.561192 267.422412 
L 477.813317 242.911984 
L 478.091755 218.401555 
L 480.954443 211.313882 
L 486.205911 218.401555 
L 517.385543 234.950672 
L 522.533163 242.911984 
L 536.470901 267.422412 
L 553.816642 286.162815 
L 556.699752 291.932841 
L 565.061095 316.44327 
L 571.836844 316.44327 
L 564.814435 291.932841 
L 553.816642 268.437945 
L 552.989106 267.422412 
L 536.707035 242.911984 
L 522.306178 218.401555 
L 517.385543 211.685636 
L 500.367941 193.891126 
L 486.675845 169.380697 
L 480.954443 159.329612 
L 468.402104 144.870269 
L 453.361094 120.35984 
L 444.523344 105.844933 
L 426.941261 95.849411 
L 414.654985 71.338983 
L 408.092244 56.160422 
L 401.651638 71.338982 
L 403.055285 95.849411 
L 408.092244 116.336289 
L 412.748986 120.35984 
L 425.490605 144.870269 
L 428.609828 169.380697 
L 433.796761 193.891126 
L 439.792623 218.401555 
L 444.523344 236.812633 
L 448.139687 242.911984 
L 459.611767 267.422412 
L 464.535901 291.932841 
L 468.911847 316.44327 
z
" clip-path="url(#pd025393979)" style="fill: #44bf70"/>
    <path d="M 298.798946 304.238087 
L 316.120852 316.44327 
L 325.30873 316.44327 
L 298.798946 296.273761 
L 294.286832 291.932841 
L 267.130537 267.422412 
L 262.367847 264.227735 
L 240.401275 242.911984 
L 225.936747 232.416327 
L 211.996609 218.401555 
L 189.505648 201.567092 
L 182.297945 193.891126 
L 155.464134 169.380697 
L 153.074548 167.933209 
L 127.070696 144.870269 
L 116.643449 137.114283 
L 100.271692 120.35984 
L 80.212349 104.944345 
L 70.633797 95.849411 
L 43.78125 74.040977 
L 41.367217 71.338982 
L 15.890573 46.828554 
L 7.350151 41.04762 
L -12.712459 22.318125 
L -29.080949 22.318125 
L -49.304148 22.318125 
L -29.080949 42.012888 
L -21.574631 46.828554 
L 6.556787 71.338982 
L 7.350151 72.120406 
L 38.287765 95.849411 
L 43.78125 101.525139 
L 70.822566 120.35984 
L 80.212349 129.0274 
L 101.706242 144.870269 
L 116.643449 158.834786 
L 132.38199 169.380697 
L 153.074548 187.703341 
L 161.436249 193.891126 
L 188.852814 218.401555 
L 189.505648 219.011963 
L 221.464405 242.911984 
L 225.936747 246.941457 
L 254.129943 267.422412 
L 262.367847 274.772938 
L 285.065893 291.932841 
z
M 371.661145 316.44327 
L 378.080522 316.44327 
L 371.661145 311.395127 
L 351.968386 291.932841 
L 347.532747 267.422412 
L 341.302473 242.911984 
L 335.230045 238.441569 
L 315.070024 218.401555 
L 304.221858 193.891126 
L 304.964097 169.380697 
L 298.798946 164.946451 
L 270.704644 144.870269 
L 267.891996 120.35984 
L 262.367847 112.882179 
L 246.762983 95.849411 
L 234.896195 71.338982 
L 231.647967 46.828554 
L 225.936747 39.645222 
L 202.508781 22.318125 
L 189.505648 22.318125 
L 185.062473 22.318125 
L 189.505648 25.95688 
L 221.685068 46.828554 
L 221.591429 71.338982 
L 225.936747 76.285039 
L 236.136045 95.849411 
L 258.022529 120.35984 
L 257.484631 144.870269 
L 262.367847 148.586555 
L 294.453628 169.380697 
L 293.915878 193.891126 
L 298.798946 197.607302 
L 308.02352 218.401555 
L 330.223042 242.911984 
L 335.230045 246.491561 
L 342.243437 267.422412 
L 343.934797 291.932841 
L 367.63618 316.44327 
z
M 515.2706 291.932841 
L 517.385543 282.030078 
L 522.730927 291.932841 
L 553.816642 306.759641 
L 557.471958 316.44327 
L 565.061095 316.44327 
L 556.699752 291.932841 
L 553.816642 286.162815 
L 536.470901 267.422412 
L 522.533163 242.911984 
L 517.385543 234.950672 
L 486.205911 218.401555 
L 480.954443 211.313882 
L 478.091755 218.401555 
L 477.813317 242.911984 
L 479.561192 267.422412 
L 480.954443 281.519729 
L 483.513535 291.932841 
L 488.541693 316.44327 
L 513.882372 316.44327 
z
" clip-path="url(#pd025393979)" style="fill: #67cc5c"/>
    <path d="M 298.798946 296.273761 
L 325.30873 316.44327 
L 333.330275 316.44327 
L 335.230045 295.975725 
L 343.316124 316.44327 
L 367.63618 316.44327 
L 343.934797 291.932841 
L 342.243437 267.422412 
L 335.230045 246.491561 
L 330.223042 242.911984 
L 308.02352 218.401555 
L 298.798946 197.607302 
L 293.915878 193.891126 
L 294.453628 169.380697 
L 262.367847 148.586555 
L 257.484631 144.870269 
L 258.022529 120.35984 
L 236.136045 95.849411 
L 225.936747 76.285039 
L 221.591429 71.338982 
L 221.685068 46.828554 
L 189.505648 25.95688 
L 185.062473 22.318125 
L 157.468493 22.318125 
L 189.505648 43.637417 
L 195.613938 46.828554 
L 194.780804 71.338982 
L 191.316263 95.849411 
L 225.936747 109.35064 
L 231.211903 120.35984 
L 226.228509 144.870269 
L 262.367847 166.643178 
L 267.643002 169.380697 
L 262.65961 193.891126 
L 298.798946 215.664021 
L 300.092993 218.401555 
L 298.798946 239.845574 
L 295.756794 242.911984 
L 262.367847 246.171016 
L 259.464618 242.911984 
L 234.068382 218.401555 
L 225.936747 210.141926 
L 212.547381 193.891126 
L 189.505648 175.271902 
L 185.346431 169.380697 
L 154.733751 144.870269 
L 153.074548 143.454542 
L 137.799497 120.35984 
L 116.643449 103.911229 
L 110.374088 95.849411 
L 80.212349 71.60472 
L 79.994511 71.338982 
L 60.463817 46.828554 
L 43.78125 33.259162 
L 34.962145 22.318125 
L 7.350151 22.318125 
L -12.712459 22.318125 
L 7.350151 41.04762 
L 15.890573 46.828554 
L 41.367217 71.338983 
L 43.78125 74.040977 
L 70.633797 95.849411 
L 80.212349 104.944345 
L 100.271692 120.35984 
L 116.643449 137.114283 
L 127.070696 144.870269 
L 153.074548 167.933209 
L 155.464134 169.380697 
L 182.297945 193.891126 
L 189.505648 201.567092 
L 211.996609 218.401555 
L 225.936747 232.416327 
L 240.401275 242.911984 
L 262.367847 264.227735 
L 267.130537 267.422412 
L 294.286832 291.932841 
z
M 288.863742 267.422412 
L 298.798946 243.788101 
L 335.230045 263.884552 
L 336.471417 267.422412 
L 335.230045 287.05303 
L 298.798946 281.208321 
z
M 517.385543 316.44327 
L 553.816642 316.44327 
L 557.471958 316.44327 
L 553.816642 306.759641 
L 522.730927 291.932841 
L 517.385543 282.030078 
L 515.2706 291.932841 
L 513.882372 316.44327 
z
M 116.643449 24.616369 
L 136.330034 22.318125 
L 116.643449 22.318125 
L 112.673886 22.318125 
z
" clip-path="url(#pd025393979)" style="fill: #90d743"/>
    <path d="M 335.230045 316.44327 
L 343.316124 316.44327 
L 335.230045 295.975725 
L 333.330275 316.44327 
z
M 298.798946 281.208321 
L 335.230045 287.05303 
L 336.471417 267.422412 
L 335.230045 263.884552 
L 298.798946 243.788101 
L 288.863742 267.422412 
z
M 262.367847 246.171016 
L 295.756794 242.911984 
L 298.798946 239.845574 
L 300.092993 218.401555 
L 298.798946 215.664021 
L 262.65961 193.891126 
L 267.643002 169.380697 
L 262.367847 166.643178 
L 226.228509 144.870269 
L 231.211903 120.35984 
L 225.936747 109.35064 
L 191.316263 95.849411 
L 194.780804 71.338982 
L 195.613938 46.828554 
L 189.505648 43.637417 
L 157.468493 22.318125 
L 153.074548 22.318125 
L 136.330034 22.318125 
L 116.643449 24.616369 
L 112.673886 22.318125 
L 80.212349 22.318125 
L 43.78125 22.318125 
L 34.962145 22.318125 
L 43.78125 33.259162 
L 60.463817 46.828554 
L 79.994511 71.338982 
L 80.212349 71.60472 
L 110.374088 95.849411 
L 116.643449 103.911229 
L 137.799497 120.35984 
L 153.074548 143.454542 
L 154.733751 144.870269 
L 185.346431 169.380697 
L 189.505648 175.271902 
L 212.547381 193.891126 
L 225.936747 210.141926 
L 234.068382 218.401555 
L 259.464618 242.911984 
z
M 261.339269 218.401555 
L 262.367847 217.29806 
L 264.892087 218.401555 
L 262.367847 219.725779 
z
M 223.547939 169.380697 
L 225.936747 167.642628 
L 229.851644 169.380697 
L 225.936747 172.30387 
z
M 182.042756 120.35984 
L 189.505648 115.910216 
L 198.919584 120.35984 
L 189.505648 129.259088 
z
M 151.93835 71.338982 
L 153.074548 70.853975 
L 154.201181 71.338982 
L 153.074548 73.44684 
z
M 114.740078 46.828554 
L 116.643449 45.833013 
L 118.82819 46.828554 
L 116.643449 49.040866 
z
" clip-path="url(#pd025393979)" style="fill: #bddf26"/>
    <path d="M 262.367847 219.725779 
L 264.892087 218.401555 
L 262.367847 217.29806 
L 261.339269 218.401555 
z
M 225.936747 172.30387 
L 229.851644 169.380698 
L 225.936747 167.642628 
L 223.547939 169.380697 
z
M 189.505648 129.259088 
L 198.919584 120.35984 
L 189.505648 115.910216 
L 182.042756 120.35984 
z
M 153.074548 73.44684 
L 154.201181 71.338982 
L 153.074548 70.853975 
L 151.93835 71.338982 
z
M 116.643449 49.040866 
L 118.82819 46.828554 
L 116.643449 45.833013 
L 114.740078 46.828554 
z
" clip-path="url(#pd025393979)" style="fill: #eae51a"/>
   </g>
   <g id="PathCollection_1">
    <defs>
     <path id="mdc0741d33a" d="M -3 3 
L 3 -3 
M -3 -3 
L 3 3 
" style="stroke: #ff0000; stroke-width: 1.5"/>
    </defs>
    <g clip-path="url(#pd025393979)">
     <use xlink:href="#mdc0741d33a" x="335.230045" y="316.44327" style="fill: #ff0000; stroke: #ff0000; stroke-width: 1.5"/>
     <use xlink:href="#mdc0741d33a" x="335.230045" y="291.932841" style="fill: #ff0000; stroke: #ff0000; stroke-width: 1.5"/>
     <use xlink:href="#mdc0741d33a" x="298.798946" y="267.422412" style="fill: #ff0000; stroke: #ff0000; stroke-width: 1.5"/>
     <use xlink:href="#mdc0741d33a" x="262.367847" y="242.911984" style="fill: #ff0000; stroke: #ff0000; stroke-width: 1.5"/>
     <use xlink:href="#mdc0741d33a" x="262.367847" y="218.401555" style="fill: #ff0000; stroke: #ff0000; stroke-width: 1.5"/>
     <use xlink:href="#mdc0741d33a" x="225.936747" y="193.891126" style="fill: #ff0000; stroke: #ff0000; stroke-width: 1.5"/>
     <use xlink:href="#mdc0741d33a" x="225.936747" y="169.380697" style="fill: #ff0000; stroke: #ff0000; stroke-width: 1.5"/>
     <use xlink:href="#mdc0741d33a" x="189.505648" y="144.870269" style="fill: #ff0000; stroke: #ff0000; stroke-width: 1.5"/>
     <use xlink:href="#mdc0741d33a" x="189.505648" y="120.35984" style="fill: #ff0000; stroke: #ff0000; stroke-width: 1.5"/>
     <use xlink:href="#mdc0741d33a" x="153.074548" y="95.849411" style="fill: #ff0000; stroke: #ff0000; stroke-width: 1.5"/>
     <use xlink:href="#mdc0741d33a" x="153.074548" y="71.338982" style="fill: #ff0000; stroke: #ff0000; stroke-width: 1.5"/>
     <use xlink:href="#mdc0741d33a" x="116.643449" y="46.828554" style="fill: #ff0000; stroke: #ff0000; stroke-width: 1.5"/>
     <use xlink:href="#mdc0741d33a" x="80.212349" y="22.318125" style="fill: #ff0000; stroke: #ff0000; stroke-width: 1.5"/>
    </g>
   </g>
   <g id="matplotlib.axis_1">
    <g id="xtick_1">
     <g id="line2d_1">
      <defs>
       <path id="m38f3b05bbe" d="M 0 0 
L 0 3.5 
" style="stroke: #000000; stroke-width: 0.8"/>
      </defs>
      <g>
       <use xlink:href="#m38f3b05bbe" x="80.212349" y="316.44327" style="stroke: #000000; stroke-width: 0.8"/>
      </g>
     </g>
     <g id="text_1">
      <!-- $\mathdefault{10^{-4}}$ -->
      <g transform="translate(68.462349 331.041707) scale(0.1 -0.1)">
       <defs>
        <path id="DejaVuSans-31" d="M 794 531 
L 1825 531 
L 1825 4091 
L 703 3866 
L 703 4441 
L 1819 4666 
L 2450 4666 
L 2450 531 
L 3481 531 
L 3481 0 
L 794 0 
L 794 531 
z
" transform="scale(0.015625)"/>
        <path id="DejaVuSans-30" d="M 2034 4250 
Q 1547 4250 1301 3770 
Q 1056 3291 1056 2328 
Q 1056 1369 1301 889 
Q 1547 409 2034 409 
Q 2525 409 2770 889 
Q 3016 1369 3016 2328 
Q 3016 3291 2770 3770 
Q 2525 4250 2034 4250 
z
M 2034 4750 
Q 2819 4750 3233 4129 
Q 3647 3509 3647 2328 
Q 3647 1150 3233 529 
Q 2819 -91 2034 -91 
Q 1250 -91 836 529 
Q 422 1150 422 2328 
Q 422 3509 836 4129 
Q 1250 4750 2034 4750 
z
" transform="scale(0.015625)"/>
        <path id="DejaVuSans-2212" d="M 678 2272 
L 4684 2272 
L 4684 1741 
L 678 1741 
L 678 2272 
z
" transform="scale(0.015625)"/>
        <path id="DejaVuSans-34" d="M 2419 4116 
L 825 1625 
L 2419 1625 
L 2419 4116 
z
M 2253 4666 
L 3047 4666 
L 3047 1625 
L 3713 1625 
L 3713 1100 
L 3047 1100 
L 3047 0 
L 2419 0 
L 2419 1100 
L 313 1100 
L 313 1709 
L 2253 4666 
z
" transform="scale(0.015625)"/>
       </defs>
       <use xlink:href="#DejaVuSans-31" transform="translate(0 0.684375)"/>
       <use xlink:href="#DejaVuSans-30" transform="translate(63.623047 0.684375)"/>
       <use xlink:href="#DejaVuSans-2212" transform="translate(128.203125 38.965625) scale(0.7)"/>
       <use xlink:href="#DejaVuSans-34" transform="translate(186.855469 38.965625) scale(0.7)"/>
      </g>
     </g>
    </g>
    <g id="xtick_2">
     <g id="line2d_2">
      <g>
       <use xlink:href="#m38f3b05bbe" x="225.936747" y="316.44327" style="stroke: #000000; stroke-width: 0.8"/>
      </g>
     </g>
     <g id="text_2">
      <!-- $\mathdefault{10^{-3}}$ -->
      <g transform="translate(214.186747 331.041707) scale(0.1 -0.1)">
       <defs>
        <path id="DejaVuSans-33" d="M 2597 2516 
Q 3050 2419 3304 2112 
Q 3559 1806 3559 1356 
Q 3559 666 3084 287 
Q 2609 -91 1734 -91 
Q 1441 -91 1130 -33 
Q 819 25 488 141 
L 488 750 
Q 750 597 1062 519 
Q 1375 441 1716 441 
Q 2309 441 2620 675 
Q 2931 909 2931 1356 
Q 2931 1769 2642 2001 
Q 2353 2234 1838 2234 
L 1294 2234 
L 1294 2753 
L 1863 2753 
Q 2328 2753 2575 2939 
Q 2822 3125 2822 3475 
Q 2822 3834 2567 4026 
Q 2313 4219 1838 4219 
Q 1578 4219 1281 4162 
Q 984 4106 628 3988 
L 628 4550 
Q 988 4650 1302 4700 
Q 1616 4750 1894 4750 
Q 2613 4750 3031 4423 
Q 3450 4097 3450 3541 
Q 3450 3153 3228 2886 
Q 3006 2619 2597 2516 
z
" transform="scale(0.015625)"/>
       </defs>
       <use xlink:href="#DejaVuSans-31" transform="translate(0 0.765625)"/>
       <use xlink:href="#DejaVuSans-30" transform="translate(63.623047 0.765625)"/>
       <use xlink:href="#DejaVuSans-2212" transform="translate(128.203125 39.046875) scale(0.7)"/>
       <use xlink:href="#DejaVuSans-33" transform="translate(186.855469 39.046875) scale(0.7)"/>
      </g>
     </g>
    </g>
    <g id="xtick_3">
     <g id="line2d_3">
      <g>
       <use xlink:href="#m38f3b05bbe" x="371.661145" y="316.44327" style="stroke: #000000; stroke-width: 0.8"/>
      </g>
     </g>
     <g id="text_3">
      <!-- $\mathdefault{10^{-2}}$ -->
      <g transform="translate(359.911145 331.041707) scale(0.1 -0.1)">
       <defs>
        <path id="DejaVuSans-32" d="M 1228 531 
L 3431 531 
L 3431 0 
L 469 0 
L 469 531 
Q 828 903 1448 1529 
Q 2069 2156 2228 2338 
Q 2531 2678 2651 2914 
Q 2772 3150 2772 3378 
Q 2772 3750 2511 3984 
Q 2250 4219 1831 4219 
Q 1534 4219 1204 4116 
Q 875 4013 500 3803 
L 500 4441 
Q 881 4594 1212 4672 
Q 1544 4750 1819 4750 
Q 2544 4750 2975 4387 
Q 3406 4025 3406 3419 
Q 3406 3131 3298 2873 
Q 3191 2616 2906 2266 
Q 2828 2175 2409 1742 
Q 1991 1309 1228 531 
z
" transform="scale(0.015625)"/>
       </defs>
       <use xlink:href="#DejaVuSans-31" transform="translate(0 0.765625)"/>
       <use xlink:href="#DejaVuSans-30" transform="translate(63.623047 0.765625)"/>
       <use xlink:href="#DejaVuSans-2212" transform="translate(128.203125 39.046875) scale(0.7)"/>
       <use xlink:href="#DejaVuSans-32" transform="translate(186.855469 39.046875) scale(0.7)"/>
      </g>
     </g>
    </g>
    <g id="xtick_4">
     <g id="line2d_4">
      <defs>
       <path id="m360e1f0208" d="M 0 0 
L 0 2 
" style="stroke: #000000; stroke-width: 0.6"/>
      </defs>
      <g>
       <use xlink:href="#m360e1f0208" x="47.883574" y="316.44327" style="stroke: #000000; stroke-width: 0.6"/>
      </g>
     </g>
    </g>
    <g id="xtick_5">
     <g id="line2d_5">
      <g>
       <use xlink:href="#m360e1f0208" x="57.639355" y="316.44327" style="stroke: #000000; stroke-width: 0.6"/>
      </g>
     </g>
    </g>
    <g id="xtick_6">
     <g id="line2d_6">
      <g>
       <use xlink:href="#m360e1f0208" x="66.090196" y="316.44327" style="stroke: #000000; stroke-width: 0.6"/>
      </g>
     </g>
    </g>
    <g id="xtick_7">
     <g id="line2d_7">
      <g>
       <use xlink:href="#m360e1f0208" x="73.544367" y="316.44327" style="stroke: #000000; stroke-width: 0.6"/>
      </g>
     </g>
    </g>
    <g id="xtick_8">
     <g id="line2d_8">
      <g>
       <use xlink:href="#m360e1f0208" x="124.079764" y="316.44327" style="stroke: #000000; stroke-width: 0.6"/>
      </g>
     </g>
    </g>
    <g id="xtick_9">
     <g id="line2d_9">
      <g>
       <use xlink:href="#m360e1f0208" x="149.740557" y="316.44327" style="stroke: #000000; stroke-width: 0.6"/>
      </g>
     </g>
    </g>
    <g id="xtick_10">
     <g id="line2d_10">
      <g>
       <use xlink:href="#m360e1f0208" x="167.947179" y="316.44327" style="stroke: #000000; stroke-width: 0.6"/>
      </g>
     </g>
    </g>
    <g id="xtick_11">
     <g id="line2d_11">
      <g>
       <use xlink:href="#m360e1f0208" x="182.069332" y="316.44327" style="stroke: #000000; stroke-width: 0.6"/>
      </g>
     </g>
    </g>
    <g id="xtick_12">
     <g id="line2d_12">
      <g>
       <use xlink:href="#m360e1f0208" x="193.607972" y="316.44327" style="stroke: #000000; stroke-width: 0.6"/>
      </g>
     </g>
    </g>
    <g id="xtick_13">
     <g id="line2d_13">
      <g>
       <use xlink:href="#m360e1f0208" x="203.363752" y="316.44327" style="stroke: #000000; stroke-width: 0.6"/>
      </g>
     </g>
    </g>
    <g id="xtick_14">
     <g id="line2d_14">
      <g>
       <use xlink:href="#m360e1f0208" x="211.814594" y="316.44327" style="stroke: #000000; stroke-width: 0.6"/>
      </g>
     </g>
    </g>
    <g id="xtick_15">
     <g id="line2d_15">
      <g>
       <use xlink:href="#m360e1f0208" x="219.268764" y="316.44327" style="stroke: #000000; stroke-width: 0.6"/>
      </g>
     </g>
    </g>
    <g id="xtick_16">
     <g id="line2d_16">
      <g>
       <use xlink:href="#m360e1f0208" x="269.804162" y="316.44327" style="stroke: #000000; stroke-width: 0.6"/>
      </g>
     </g>
    </g>
    <g id="xtick_17">
     <g id="line2d_17">
      <g>
       <use xlink:href="#m360e1f0208" x="295.464955" y="316.44327" style="stroke: #000000; stroke-width: 0.6"/>
      </g>
     </g>
    </g>
    <g id="xtick_18">
     <g id="line2d_18">
      <g>
       <use xlink:href="#m360e1f0208" x="313.671577" y="316.44327" style="stroke: #000000; stroke-width: 0.6"/>
      </g>
     </g>
    </g>
    <g id="xtick_19">
     <g id="line2d_19">
      <g>
       <use xlink:href="#m360e1f0208" x="327.79373" y="316.44327" style="stroke: #000000; stroke-width: 0.6"/>
      </g>
     </g>
    </g>
    <g id="xtick_20">
     <g id="line2d_20">
      <g>
       <use xlink:href="#m360e1f0208" x="339.332369" y="316.44327" style="stroke: #000000; stroke-width: 0.6"/>
      </g>
     </g>
    </g>
    <g id="xtick_21">
     <g id="line2d_21">
      <g>
       <use xlink:href="#m360e1f0208" x="349.08815" y="316.44327" style="stroke: #000000; stroke-width: 0.6"/>
      </g>
     </g>
    </g>
    <g id="xtick_22">
     <g id="line2d_22">
      <g>
       <use xlink:href="#m360e1f0208" x="357.538992" y="316.44327" style="stroke: #000000; stroke-width: 0.6"/>
      </g>
     </g>
    </g>
    <g id="xtick_23">
     <g id="line2d_23">
      <g>
       <use xlink:href="#m360e1f0208" x="364.993162" y="316.44327" style="stroke: #000000; stroke-width: 0.6"/>
      </g>
     </g>
    </g>
    <g id="text_4">
     <!-- bandwidth -->
     <g transform="translate(181.358697 344.719832) scale(0.1 -0.1)">
      <defs>
       <path id="DejaVuSans-62" d="M 3116 1747 
Q 3116 2381 2855 2742 
Q 2594 3103 2138 3103 
Q 1681 3103 1420 2742 
Q 1159 2381 1159 1747 
Q 1159 1113 1420 752 
Q 1681 391 2138 391 
Q 2594 391 2855 752 
Q 3116 1113 3116 1747 
z
M 1159 2969 
Q 1341 3281 1617 3432 
Q 1894 3584 2278 3584 
Q 2916 3584 3314 3078 
Q 3713 2572 3713 1747 
Q 3713 922 3314 415 
Q 2916 -91 2278 -91 
Q 1894 -91 1617 61 
Q 1341 213 1159 525 
L 1159 0 
L 581 0 
L 581 4863 
L 1159 4863 
L 1159 2969 
z
" transform="scale(0.015625)"/>
       <path id="DejaVuSans-61" d="M 2194 1759 
Q 1497 1759 1228 1600 
Q 959 1441 959 1056 
Q 959 750 1161 570 
Q 1363 391 1709 391 
Q 2188 391 2477 730 
Q 2766 1069 2766 1631 
L 2766 1759 
L 2194 1759 
z
M 3341 1997 
L 3341 0 
L 2766 0 
L 2766 531 
Q 2569 213 2275 61 
Q 1981 -91 1556 -91 
Q 1019 -91 701 211 
Q 384 513 384 1019 
Q 384 1609 779 1909 
Q 1175 2209 1959 2209 
L 2766 2209 
L 2766 2266 
Q 2766 2663 2505 2880 
Q 2244 3097 1772 3097 
Q 1472 3097 1187 3025 
Q 903 2953 641 2809 
L 641 3341 
Q 956 3463 1253 3523 
Q 1550 3584 1831 3584 
Q 2591 3584 2966 3190 
Q 3341 2797 3341 1997 
z
" transform="scale(0.015625)"/>
       <path id="DejaVuSans-6e" d="M 3513 2113 
L 3513 0 
L 2938 0 
L 2938 2094 
Q 2938 2591 2744 2837 
Q 2550 3084 2163 3084 
Q 1697 3084 1428 2787 
Q 1159 2491 1159 1978 
L 1159 0 
L 581 0 
L 581 3500 
L 1159 3500 
L 1159 2956 
Q 1366 3272 1645 3428 
Q 1925 3584 2291 3584 
Q 2894 3584 3203 3211 
Q 3513 2838 3513 2113 
z
" transform="scale(0.015625)"/>
       <path id="DejaVuSans-64" d="M 2906 2969 
L 2906 4863 
L 3481 4863 
L 3481 0 
L 2906 0 
L 2906 525 
Q 2725 213 2448 61 
Q 2172 -91 1784 -91 
Q 1150 -91 751 415 
Q 353 922 353 1747 
Q 353 2572 751 3078 
Q 1150 3584 1784 3584 
Q 2172 3584 2448 3432 
Q 2725 3281 2906 2969 
z
M 947 1747 
Q 947 1113 1208 752 
Q 1469 391 1925 391 
Q 2381 391 2643 752 
Q 2906 1113 2906 1747 
Q 2906 2381 2643 2742 
Q 2381 3103 1925 3103 
Q 1469 3103 1208 2742 
Q 947 2381 947 1747 
z
" transform="scale(0.015625)"/>
       <path id="DejaVuSans-77" d="M 269 3500 
L 844 3500 
L 1563 769 
L 2278 3500 
L 2956 3500 
L 3675 769 
L 4391 3500 
L 4966 3500 
L 4050 0 
L 3372 0 
L 2619 2869 
L 1863 0 
L 1184 0 
L 269 3500 
z
" transform="scale(0.015625)"/>
       <path id="DejaVuSans-69" d="M 603 3500 
L 1178 3500 
L 1178 0 
L 603 0 
L 603 3500 
z
M 603 4863 
L 1178 4863 
L 1178 4134 
L 603 4134 
L 603 4863 
z
" transform="scale(0.015625)"/>
       <path id="DejaVuSans-74" d="M 1172 4494 
L 1172 3500 
L 2356 3500 
L 2356 3053 
L 1172 3053 
L 1172 1153 
Q 1172 725 1289 603 
Q 1406 481 1766 481 
L 2356 481 
L 2356 0 
L 1766 0 
Q 1100 0 847 248 
Q 594 497 594 1153 
L 594 3053 
L 172 3053 
L 172 3500 
L 594 3500 
L 594 4494 
L 1172 4494 
z
" transform="scale(0.015625)"/>
       <path id="DejaVuSans-68" d="M 3513 2113 
L 3513 0 
L 2938 0 
L 2938 2094 
Q 2938 2591 2744 2837 
Q 2550 3084 2163 3084 
Q 1697 3084 1428 2787 
Q 1159 2491 1159 1978 
L 1159 0 
L 581 0 
L 581 4863 
L 1159 4863 
L 1159 2956 
Q 1366 3272 1645 3428 
Q 1925 3584 2291 3584 
Q 2894 3584 3203 3211 
Q 3513 2838 3513 2113 
z
" transform="scale(0.015625)"/>
      </defs>
      <use xlink:href="#DejaVuSans-62"/>
      <use xlink:href="#DejaVuSans-61" transform="translate(63.476562 0)"/>
      <use xlink:href="#DejaVuSans-6e" transform="translate(124.755859 0)"/>
      <use xlink:href="#DejaVuSans-64" transform="translate(188.134766 0)"/>
      <use xlink:href="#DejaVuSans-77" transform="translate(251.611328 0)"/>
      <use xlink:href="#DejaVuSans-69" transform="translate(333.398438 0)"/>
      <use xlink:href="#DejaVuSans-64" transform="translate(361.181641 0)"/>
      <use xlink:href="#DejaVuSans-74" transform="translate(424.658203 0)"/>
      <use xlink:href="#DejaVuSans-68" transform="translate(463.867188 0)"/>
     </g>
    </g>
   </g>
   <g id="matplotlib.axis_2">
    <g id="ytick_1">
     <g id="line2d_24">
      <defs>
       <path id="mbd2f377c6c" d="M 0 0 
L -3.5 0 
" style="stroke: #000000; stroke-width: 0.8"/>
      </defs>
      <g>
       <use xlink:href="#mbd2f377c6c" x="43.78125" y="316.44327" style="stroke: #000000; stroke-width: 0.8"/>
      </g>
     </g>
     <g id="text_5">
      <!-- 1.0 -->
      <g transform="translate(20.878125 320.242489) scale(0.1 -0.1)">
       <defs>
        <path id="DejaVuSans-2e" d="M 684 794 
L 1344 794 
L 1344 0 
L 684 0 
L 684 794 
z
" transform="scale(0.015625)"/>
       </defs>
       <use xlink:href="#DejaVuSans-31"/>
       <use xlink:href="#DejaVuSans-2e" transform="translate(63.623047 0)"/>
       <use xlink:href="#DejaVuSans-30" transform="translate(95.410156 0)"/>
      </g>
     </g>
    </g>
    <g id="ytick_2">
     <g id="line2d_25">
      <g>
       <use xlink:href="#mbd2f377c6c" x="43.78125" y="267.422412" style="stroke: #000000; stroke-width: 0.8"/>
      </g>
     </g>
     <g id="text_6">
      <!-- 1.5 -->
      <g transform="translate(20.878125 271.221631) scale(0.1 -0.1)">
       <defs>
        <path id="DejaVuSans-35" d="M 691 4666 
L 3169 4666 
L 3169 4134 
L 1269 4134 
L 1269 2991 
Q 1406 3038 1543 3061 
Q 1681 3084 1819 3084 
Q 2600 3084 3056 2656 
Q 3513 2228 3513 1497 
Q 3513 744 3044 326 
Q 2575 -91 1722 -91 
Q 1428 -91 1123 -41 
Q 819 9 494 109 
L 494 744 
Q 775 591 1075 516 
Q 1375 441 1709 441 
Q 2250 441 2565 725 
Q 2881 1009 2881 1497 
Q 2881 1984 2565 2268 
Q 2250 2553 1709 2553 
Q 1456 2553 1204 2497 
Q 953 2441 691 2322 
L 691 4666 
z
" transform="scale(0.015625)"/>
       </defs>
       <use xlink:href="#DejaVuSans-31"/>
       <use xlink:href="#DejaVuSans-2e" transform="translate(63.623047 0)"/>
       <use xlink:href="#DejaVuSans-35" transform="translate(95.410156 0)"/>
      </g>
     </g>
    </g>
    <g id="ytick_3">
     <g id="line2d_26">
      <g>
       <use xlink:href="#mbd2f377c6c" x="43.78125" y="218.401555" style="stroke: #000000; stroke-width: 0.8"/>
      </g>
     </g>
     <g id="text_7">
      <!-- 2.0 -->
      <g transform="translate(20.878125 222.200774) scale(0.1 -0.1)">
       <use xlink:href="#DejaVuSans-32"/>
       <use xlink:href="#DejaVuSans-2e" transform="translate(63.623047 0)"/>
       <use xlink:href="#DejaVuSans-30" transform="translate(95.410156 0)"/>
      </g>
     </g>
    </g>
    <g id="ytick_4">
     <g id="line2d_27">
      <g>
       <use xlink:href="#mbd2f377c6c" x="43.78125" y="169.380697" style="stroke: #000000; stroke-width: 0.8"/>
      </g>
     </g>
     <g id="text_8">
      <!-- 2.5 -->
      <g transform="translate(20.878125 173.179916) scale(0.1 -0.1)">
       <use xlink:href="#DejaVuSans-32"/>
       <use xlink:href="#DejaVuSans-2e" transform="translate(63.623047 0)"/>
       <use xlink:href="#DejaVuSans-35" transform="translate(95.410156 0)"/>
      </g>
     </g>
    </g>
    <g id="ytick_5">
     <g id="line2d_28">
      <g>
       <use xlink:href="#mbd2f377c6c" x="43.78125" y="120.35984" style="stroke: #000000; stroke-width: 0.8"/>
      </g>
     </g>
     <g id="text_9">
      <!-- 3.0 -->
      <g transform="translate(20.878125 124.159059) scale(0.1 -0.1)">
       <use xlink:href="#DejaVuSans-33"/>
       <use xlink:href="#DejaVuSans-2e" transform="translate(63.623047 0)"/>
       <use xlink:href="#DejaVuSans-30" transform="translate(95.410156 0)"/>
      </g>
     </g>
    </g>
    <g id="ytick_6">
     <g id="line2d_29">
      <g>
       <use xlink:href="#mbd2f377c6c" x="43.78125" y="71.338982" style="stroke: #000000; stroke-width: 0.8"/>
      </g>
     </g>
     <g id="text_10">
      <!-- 3.5 -->
      <g transform="translate(20.878125 75.138201) scale(0.1 -0.1)">
       <use xlink:href="#DejaVuSans-33"/>
       <use xlink:href="#DejaVuSans-2e" transform="translate(63.623047 0)"/>
       <use xlink:href="#DejaVuSans-35" transform="translate(95.410156 0)"/>
      </g>
     </g>
    </g>
    <g id="ytick_7">
     <g id="line2d_30">
      <g>
       <use xlink:href="#mbd2f377c6c" x="43.78125" y="22.318125" style="stroke: #000000; stroke-width: 0.8"/>
      </g>
     </g>
     <g id="text_11">
      <!-- 4.0 -->
      <g transform="translate(20.878125 26.117344) scale(0.1 -0.1)">
       <use xlink:href="#DejaVuSans-34"/>
       <use xlink:href="#DejaVuSans-2e" transform="translate(63.623047 0)"/>
       <use xlink:href="#DejaVuSans-30" transform="translate(95.410156 0)"/>
      </g>
     </g>
    </g>
    <g id="text_12">
     <!-- alpha -->
     <g transform="translate(14.798438 183.240854) rotate(-90) scale(0.1 -0.1)">
      <defs>
       <path id="DejaVuSans-6c" d="M 603 4863 
L 1178 4863 
L 1178 0 
L 603 0 
L 603 4863 
z
" transform="scale(0.015625)"/>
       <path id="DejaVuSans-70" d="M 1159 525 
L 1159 -1331 
L 581 -1331 
L 581 3500 
L 1159 3500 
L 1159 2969 
Q 1341 3281 1617 3432 
Q 1894 3584 2278 3584 
Q 2916 3584 3314 3078 
Q 3713 2572 3713 1747 
Q 3713 922 3314 415 
Q 2916 -91 2278 -91 
Q 1894 -91 1617 61 
Q 1341 213 1159 525 
z
M 3116 1747 
Q 3116 2381 2855 2742 
Q 2594 3103 2138 3103 
Q 1681 3103 1420 2742 
Q 1159 2381 1159 1747 
Q 1159 1113 1420 752 
Q 1681 391 2138 391 
Q 2594 391 2855 752 
Q 3116 1113 3116 1747 
z
" transform="scale(0.015625)"/>
      </defs>
      <use xlink:href="#DejaVuSans-61"/>
      <use xlink:href="#DejaVuSans-6c" transform="translate(61.279297 0)"/>
      <use xlink:href="#DejaVuSans-70" transform="translate(89.0625 0)"/>
      <use xlink:href="#DejaVuSans-68" transform="translate(152.539062 0)"/>
      <use xlink:href="#DejaVuSans-61" transform="translate(215.917969 0)"/>
     </g>
    </g>
   </g>
   <g id="patch_3">
    <path d="M 43.78125 316.44327 
L 43.78125 22.318125 
" style="fill: none; stroke: #000000; stroke-width: 0.8; stroke-linejoin: miter; stroke-linecap: square"/>
   </g>
   <g id="patch_4">
    <path d="M 371.661145 316.44327 
L 371.661145 22.318125 
" style="fill: none; stroke: #000000; stroke-width: 0.8; stroke-linejoin: miter; stroke-linecap: square"/>
   </g>
   <g id="patch_5">
    <path d="M 43.78125 316.44327 
L 371.661145 316.44327 
" style="fill: none; stroke: #000000; stroke-width: 0.8; stroke-linejoin: miter; stroke-linecap: square"/>
   </g>
   <g id="patch_6">
    <path d="M 43.78125 22.318125 
L 371.661145 22.318125 
" style="fill: none; stroke: #000000; stroke-width: 0.8; stroke-linejoin: miter; stroke-linecap: square"/>
   </g>
   <g id="text_13">
    <!-- helices_0 1188 fkdc -->
    <g transform="translate(148.180572 16.318125) scale(0.12 -0.12)">
     <defs>
      <path id="DejaVuSans-65" d="M 3597 1894 
L 3597 1613 
L 953 1613 
Q 991 1019 1311 708 
Q 1631 397 2203 397 
Q 2534 397 2845 478 
Q 3156 559 3463 722 
L 3463 178 
Q 3153 47 2828 -22 
Q 2503 -91 2169 -91 
Q 1331 -91 842 396 
Q 353 884 353 1716 
Q 353 2575 817 3079 
Q 1281 3584 2069 3584 
Q 2775 3584 3186 3129 
Q 3597 2675 3597 1894 
z
M 3022 2063 
Q 3016 2534 2758 2815 
Q 2500 3097 2075 3097 
Q 1594 3097 1305 2825 
Q 1016 2553 972 2059 
L 3022 2063 
z
" transform="scale(0.015625)"/>
      <path id="DejaVuSans-63" d="M 3122 3366 
L 3122 2828 
Q 2878 2963 2633 3030 
Q 2388 3097 2138 3097 
Q 1578 3097 1268 2742 
Q 959 2388 959 1747 
Q 959 1106 1268 751 
Q 1578 397 2138 397 
Q 2388 397 2633 464 
Q 2878 531 3122 666 
L 3122 134 
Q 2881 22 2623 -34 
Q 2366 -91 2075 -91 
Q 1284 -91 818 406 
Q 353 903 353 1747 
Q 353 2603 823 3093 
Q 1294 3584 2113 3584 
Q 2378 3584 2631 3529 
Q 2884 3475 3122 3366 
z
" transform="scale(0.015625)"/>
      <path id="DejaVuSans-73" d="M 2834 3397 
L 2834 2853 
Q 2591 2978 2328 3040 
Q 2066 3103 1784 3103 
Q 1356 3103 1142 2972 
Q 928 2841 928 2578 
Q 928 2378 1081 2264 
Q 1234 2150 1697 2047 
L 1894 2003 
Q 2506 1872 2764 1633 
Q 3022 1394 3022 966 
Q 3022 478 2636 193 
Q 2250 -91 1575 -91 
Q 1294 -91 989 -36 
Q 684 19 347 128 
L 347 722 
Q 666 556 975 473 
Q 1284 391 1588 391 
Q 1994 391 2212 530 
Q 2431 669 2431 922 
Q 2431 1156 2273 1281 
Q 2116 1406 1581 1522 
L 1381 1569 
Q 847 1681 609 1914 
Q 372 2147 372 2553 
Q 372 3047 722 3315 
Q 1072 3584 1716 3584 
Q 2034 3584 2315 3537 
Q 2597 3491 2834 3397 
z
" transform="scale(0.015625)"/>
      <path id="DejaVuSans-5f" d="M 3263 -1063 
L 3263 -1509 
L -63 -1509 
L -63 -1063 
L 3263 -1063 
z
" transform="scale(0.015625)"/>
      <path id="DejaVuSans-20" transform="scale(0.015625)"/>
      <path id="DejaVuSans-38" d="M 2034 2216 
Q 1584 2216 1326 1975 
Q 1069 1734 1069 1313 
Q 1069 891 1326 650 
Q 1584 409 2034 409 
Q 2484 409 2743 651 
Q 3003 894 3003 1313 
Q 3003 1734 2745 1975 
Q 2488 2216 2034 2216 
z
M 1403 2484 
Q 997 2584 770 2862 
Q 544 3141 544 3541 
Q 544 4100 942 4425 
Q 1341 4750 2034 4750 
Q 2731 4750 3128 4425 
Q 3525 4100 3525 3541 
Q 3525 3141 3298 2862 
Q 3072 2584 2669 2484 
Q 3125 2378 3379 2068 
Q 3634 1759 3634 1313 
Q 3634 634 3220 271 
Q 2806 -91 2034 -91 
Q 1263 -91 848 271 
Q 434 634 434 1313 
Q 434 1759 690 2068 
Q 947 2378 1403 2484 
z
M 1172 3481 
Q 1172 3119 1398 2916 
Q 1625 2713 2034 2713 
Q 2441 2713 2670 2916 
Q 2900 3119 2900 3481 
Q 2900 3844 2670 4047 
Q 2441 4250 2034 4250 
Q 1625 4250 1398 4047 
Q 1172 3844 1172 3481 
z
" transform="scale(0.015625)"/>
      <path id="DejaVuSans-66" d="M 2375 4863 
L 2375 4384 
L 1825 4384 
Q 1516 4384 1395 4259 
Q 1275 4134 1275 3809 
L 1275 3500 
L 2222 3500 
L 2222 3053 
L 1275 3053 
L 1275 0 
L 697 0 
L 697 3053 
L 147 3053 
L 147 3500 
L 697 3500 
L 697 3744 
Q 697 4328 969 4595 
Q 1241 4863 1831 4863 
L 2375 4863 
z
" transform="scale(0.015625)"/>
      <path id="DejaVuSans-6b" d="M 581 4863 
L 1159 4863 
L 1159 1991 
L 2875 3500 
L 3609 3500 
L 1753 1863 
L 3688 0 
L 2938 0 
L 1159 1709 
L 1159 0 
L 581 0 
L 581 4863 
z
" transform="scale(0.015625)"/>
     </defs>
     <use xlink:href="#DejaVuSans-68"/>
     <use xlink:href="#DejaVuSans-65" transform="translate(63.378906 0)"/>
     <use xlink:href="#DejaVuSans-6c" transform="translate(124.902344 0)"/>
     <use xlink:href="#DejaVuSans-69" transform="translate(152.685547 0)"/>
     <use xlink:href="#DejaVuSans-63" transform="translate(180.46875 0)"/>
     <use xlink:href="#DejaVuSans-65" transform="translate(235.449219 0)"/>
     <use xlink:href="#DejaVuSans-73" transform="translate(296.972656 0)"/>
     <use xlink:href="#DejaVuSans-5f" transform="translate(349.072266 0)"/>
     <use xlink:href="#DejaVuSans-30" transform="translate(399.072266 0)"/>
     <use xlink:href="#DejaVuSans-20" transform="translate(462.695312 0)"/>
     <use xlink:href="#DejaVuSans-31" transform="translate(494.482422 0)"/>
     <use xlink:href="#DejaVuSans-31" transform="translate(558.105469 0)"/>
     <use xlink:href="#DejaVuSans-38" transform="translate(621.728516 0)"/>
     <use xlink:href="#DejaVuSans-38" transform="translate(685.351562 0)"/>
     <use xlink:href="#DejaVuSans-20" transform="translate(748.974609 0)"/>
     <use xlink:href="#DejaVuSans-66" transform="translate(780.761719 0)"/>
     <use xlink:href="#DejaVuSans-6b" transform="translate(815.966797 0)"/>
     <use xlink:href="#DejaVuSans-64" transform="translate(873.876953 0)"/>
     <use xlink:href="#DejaVuSans-63" transform="translate(937.353516 0)"/>
    </g>
   </g>
  </g>
  <g id="axes_2">
   <g id="patch_7">
    <path d="M 399.80514 316.44327 
L 414.511397 316.44327 
L 414.511397 22.318125 
L 399.80514 22.318125 
z
" style="fill: #ffffff"/>
   </g>
   <g id="QuadMesh_1">
    <path d="M 399.80514 316.44327 
L 414.511397 316.44327 
L 414.511397 296.834927 
L 399.80514 296.834927 
L 399.80514 316.44327 
" clip-path="url(#p1c2e68bb5d)" style="fill: #470d60"/>
    <path d="M 399.80514 296.834927 
L 414.511397 296.834927 
L 414.511397 277.226584 
L 399.80514 277.226584 
L 399.80514 296.834927 
" clip-path="url(#p1c2e68bb5d)" style="fill: #482475"/>
    <path d="M 399.80514 277.226584 
L 414.511397 277.226584 
L 414.511397 257.618241 
L 399.80514 257.618241 
L 399.80514 277.226584 
" clip-path="url(#p1c2e68bb5d)" style="fill: #443983"/>
    <path d="M 399.80514 257.618241 
L 414.511397 257.618241 
L 414.511397 238.009898 
L 399.80514 238.009898 
L 399.80514 257.618241 
" clip-path="url(#p1c2e68bb5d)" style="fill: #3d4d8a"/>
    <path d="M 399.80514 238.009898 
L 414.511397 238.009898 
L 414.511397 218.401555 
L 399.80514 218.401555 
L 399.80514 238.009898 
" clip-path="url(#p1c2e68bb5d)" style="fill: #355f8d"/>
    <path d="M 399.80514 218.401555 
L 414.511397 218.401555 
L 414.511397 198.793212 
L 399.80514 198.793212 
L 399.80514 218.401555 
" clip-path="url(#p1c2e68bb5d)" style="fill: #2d708e"/>
    <path d="M 399.80514 198.793212 
L 414.511397 198.793212 
L 414.511397 179.184869 
L 399.80514 179.184869 
L 399.80514 198.793212 
" clip-path="url(#p1c2e68bb5d)" style="fill: #27808e"/>
    <path d="M 399.80514 179.184869 
L 414.511397 179.184869 
L 414.511397 159.576526 
L 399.80514 159.576526 
L 399.80514 179.184869 
" clip-path="url(#p1c2e68bb5d)" style="fill: #21918c"/>
    <path d="M 399.80514 159.576526 
L 414.511397 159.576526 
L 414.511397 139.968183 
L 399.80514 139.968183 
L 399.80514 159.576526 
" clip-path="url(#p1c2e68bb5d)" style="fill: #1fa188"/>
    <path d="M 399.80514 139.968183 
L 414.511397 139.968183 
L 414.511397 120.35984 
L 399.80514 120.35984 
L 399.80514 139.968183 
" clip-path="url(#p1c2e68bb5d)" style="fill: #2ab07f"/>
    <path d="M 399.80514 120.35984 
L 414.511397 120.35984 
L 414.511397 100.751497 
L 399.80514 100.751497 
L 399.80514 120.35984 
" clip-path="url(#p1c2e68bb5d)" style="fill: #44bf70"/>
    <path d="M 399.80514 100.751497 
L 414.511397 100.751497 
L 414.511397 81.143154 
L 399.80514 81.143154 
L 399.80514 100.751497 
" clip-path="url(#p1c2e68bb5d)" style="fill: #67cc5c"/>
    <path d="M 399.80514 81.143154 
L 414.511397 81.143154 
L 414.511397 61.534811 
L 399.80514 61.534811 
L 399.80514 81.143154 
" clip-path="url(#p1c2e68bb5d)" style="fill: #90d743"/>
    <path d="M 399.80514 61.534811 
L 414.511397 61.534811 
L 414.511397 41.926468 
L 399.80514 41.926468 
L 399.80514 61.534811 
" clip-path="url(#p1c2e68bb5d)" style="fill: #bddf26"/>
    <path d="M 399.80514 41.926468 
L 414.511397 41.926468 
L 414.511397 22.318125 
L 399.80514 22.318125 
L 399.80514 41.926468 
" clip-path="url(#p1c2e68bb5d)" style="fill: #eae51a"/>
   </g>
   <g id="matplotlib.axis_3"/>
   <g id="matplotlib.axis_4">
    <g id="ytick_8">
     <g id="line2d_31">
      <defs>
       <path id="m0a27ea52cb" d="M 0 0 
L 3.5 0 
" style="stroke: #000000; stroke-width: 0.8"/>
      </defs>
      <g>
       <use xlink:href="#m0a27ea52cb" x="414.511397" y="296.834927" style="stroke: #000000; stroke-width: 0.8"/>
      </g>
     </g>
     <g id="text_14">
      <!-- -0.84 -->
      <g transform="translate(421.511397 300.634146) scale(0.1 -0.1)">
       <defs>
        <path id="DejaVuSans-2d" d="M 313 2009 
L 1997 2009 
L 1997 1497 
L 313 1497 
L 313 2009 
z
" transform="scale(0.015625)"/>
       </defs>
       <use xlink:href="#DejaVuSans-2d"/>
       <use xlink:href="#DejaVuSans-30" transform="translate(36.083984 0)"/>
       <use xlink:href="#DejaVuSans-2e" transform="translate(99.707031 0)"/>
       <use xlink:href="#DejaVuSans-38" transform="translate(131.494141 0)"/>
       <use xlink:href="#DejaVuSans-34" transform="translate(195.117188 0)"/>
      </g>
     </g>
    </g>
    <g id="ytick_9">
     <g id="line2d_32">
      <g>
       <use xlink:href="#m0a27ea52cb" x="414.511397" y="257.618241" style="stroke: #000000; stroke-width: 0.8"/>
      </g>
     </g>
     <g id="text_15">
      <!-- -0.72 -->
      <g transform="translate(421.511397 261.41746) scale(0.1 -0.1)">
       <defs>
        <path id="DejaVuSans-37" d="M 525 4666 
L 3525 4666 
L 3525 4397 
L 1831 0 
L 1172 0 
L 2766 4134 
L 525 4134 
L 525 4666 
z
" transform="scale(0.015625)"/>
       </defs>
       <use xlink:href="#DejaVuSans-2d"/>
       <use xlink:href="#DejaVuSans-30" transform="translate(36.083984 0)"/>
       <use xlink:href="#DejaVuSans-2e" transform="translate(99.707031 0)"/>
       <use xlink:href="#DejaVuSans-37" transform="translate(131.494141 0)"/>
       <use xlink:href="#DejaVuSans-32" transform="translate(195.117188 0)"/>
      </g>
     </g>
    </g>
    <g id="ytick_10">
     <g id="line2d_33">
      <g>
       <use xlink:href="#m0a27ea52cb" x="414.511397" y="218.401555" style="stroke: #000000; stroke-width: 0.8"/>
      </g>
     </g>
     <g id="text_16">
      <!-- -0.60 -->
      <g transform="translate(421.511397 222.200774) scale(0.1 -0.1)">
       <defs>
        <path id="DejaVuSans-36" d="M 2113 2584 
Q 1688 2584 1439 2293 
Q 1191 2003 1191 1497 
Q 1191 994 1439 701 
Q 1688 409 2113 409 
Q 2538 409 2786 701 
Q 3034 994 3034 1497 
Q 3034 2003 2786 2293 
Q 2538 2584 2113 2584 
z
M 3366 4563 
L 3366 3988 
Q 3128 4100 2886 4159 
Q 2644 4219 2406 4219 
Q 1781 4219 1451 3797 
Q 1122 3375 1075 2522 
Q 1259 2794 1537 2939 
Q 1816 3084 2150 3084 
Q 2853 3084 3261 2657 
Q 3669 2231 3669 1497 
Q 3669 778 3244 343 
Q 2819 -91 2113 -91 
Q 1303 -91 875 529 
Q 447 1150 447 2328 
Q 447 3434 972 4092 
Q 1497 4750 2381 4750 
Q 2619 4750 2861 4703 
Q 3103 4656 3366 4563 
z
" transform="scale(0.015625)"/>
       </defs>
       <use xlink:href="#DejaVuSans-2d"/>
       <use xlink:href="#DejaVuSans-30" transform="translate(36.083984 0)"/>
       <use xlink:href="#DejaVuSans-2e" transform="translate(99.707031 0)"/>
       <use xlink:href="#DejaVuSans-36" transform="translate(131.494141 0)"/>
       <use xlink:href="#DejaVuSans-30" transform="translate(195.117188 0)"/>
      </g>
     </g>
    </g>
    <g id="ytick_11">
     <g id="line2d_34">
      <g>
       <use xlink:href="#m0a27ea52cb" x="414.511397" y="179.184869" style="stroke: #000000; stroke-width: 0.8"/>
      </g>
     </g>
     <g id="text_17">
      <!-- -0.48 -->
      <g transform="translate(421.511397 182.984088) scale(0.1 -0.1)">
       <use xlink:href="#DejaVuSans-2d"/>
       <use xlink:href="#DejaVuSans-30" transform="translate(36.083984 0)"/>
       <use xlink:href="#DejaVuSans-2e" transform="translate(99.707031 0)"/>
       <use xlink:href="#DejaVuSans-34" transform="translate(131.494141 0)"/>
       <use xlink:href="#DejaVuSans-38" transform="translate(195.117188 0)"/>
      </g>
     </g>
    </g>
    <g id="ytick_12">
     <g id="line2d_35">
      <g>
       <use xlink:href="#m0a27ea52cb" x="414.511397" y="139.968183" style="stroke: #000000; stroke-width: 0.8"/>
      </g>
     </g>
     <g id="text_18">
      <!-- -0.36 -->
      <g transform="translate(421.511397 143.767402) scale(0.1 -0.1)">
       <use xlink:href="#DejaVuSans-2d"/>
       <use xlink:href="#DejaVuSans-30" transform="translate(36.083984 0)"/>
       <use xlink:href="#DejaVuSans-2e" transform="translate(99.707031 0)"/>
       <use xlink:href="#DejaVuSans-33" transform="translate(131.494141 0)"/>
       <use xlink:href="#DejaVuSans-36" transform="translate(195.117188 0)"/>
      </g>
     </g>
    </g>
    <g id="ytick_13">
     <g id="line2d_36">
      <g>
       <use xlink:href="#m0a27ea52cb" x="414.511397" y="100.751497" style="stroke: #000000; stroke-width: 0.8"/>
      </g>
     </g>
     <g id="text_19">
      <!-- -0.24 -->
      <g transform="translate(421.511397 104.550716) scale(0.1 -0.1)">
       <use xlink:href="#DejaVuSans-2d"/>
       <use xlink:href="#DejaVuSans-30" transform="translate(36.083984 0)"/>
       <use xlink:href="#DejaVuSans-2e" transform="translate(99.707031 0)"/>
       <use xlink:href="#DejaVuSans-32" transform="translate(131.494141 0)"/>
       <use xlink:href="#DejaVuSans-34" transform="translate(195.117188 0)"/>
      </g>
     </g>
    </g>
    <g id="ytick_14">
     <g id="line2d_37">
      <g>
       <use xlink:href="#m0a27ea52cb" x="414.511397" y="61.534811" style="stroke: #000000; stroke-width: 0.8"/>
      </g>
     </g>
     <g id="text_20">
      <!-- -0.12 -->
      <g transform="translate(421.511397 65.33403) scale(0.1 -0.1)">
       <use xlink:href="#DejaVuSans-2d"/>
       <use xlink:href="#DejaVuSans-30" transform="translate(36.083984 0)"/>
       <use xlink:href="#DejaVuSans-2e" transform="translate(99.707031 0)"/>
       <use xlink:href="#DejaVuSans-31" transform="translate(131.494141 0)"/>
       <use xlink:href="#DejaVuSans-32" transform="translate(195.117188 0)"/>
      </g>
     </g>
    </g>
    <g id="ytick_15">
     <g id="line2d_38">
      <g>
       <use xlink:href="#m0a27ea52cb" x="414.511397" y="22.318125" style="stroke: #000000; stroke-width: 0.8"/>
      </g>
     </g>
     <g id="text_21">
      <!-- 0.00 -->
      <g transform="translate(421.511397 26.117344) scale(0.1 -0.1)">
       <use xlink:href="#DejaVuSans-30"/>
       <use xlink:href="#DejaVuSans-2e" transform="translate(63.623047 0)"/>
       <use xlink:href="#DejaVuSans-30" transform="translate(95.410156 0)"/>
       <use xlink:href="#DejaVuSans-30" transform="translate(159.033203 0)"/>
      </g>
     </g>
    </g>
    <g id="text_22">
     <!-- Score -->
     <g transform="translate(458.983272 183.383041) rotate(-90) scale(0.1 -0.1)">
      <defs>
       <path id="DejaVuSans-53" d="M 3425 4513 
L 3425 3897 
Q 3066 4069 2747 4153 
Q 2428 4238 2131 4238 
Q 1616 4238 1336 4038 
Q 1056 3838 1056 3469 
Q 1056 3159 1242 3001 
Q 1428 2844 1947 2747 
L 2328 2669 
Q 3034 2534 3370 2195 
Q 3706 1856 3706 1288 
Q 3706 609 3251 259 
Q 2797 -91 1919 -91 
Q 1588 -91 1214 -16 
Q 841 59 441 206 
L 441 856 
Q 825 641 1194 531 
Q 1563 422 1919 422 
Q 2459 422 2753 634 
Q 3047 847 3047 1241 
Q 3047 1584 2836 1778 
Q 2625 1972 2144 2069 
L 1759 2144 
Q 1053 2284 737 2584 
Q 422 2884 422 3419 
Q 422 4038 858 4394 
Q 1294 4750 2059 4750 
Q 2388 4750 2728 4690 
Q 3069 4631 3425 4513 
z
" transform="scale(0.015625)"/>
       <path id="DejaVuSans-6f" d="M 1959 3097 
Q 1497 3097 1228 2736 
Q 959 2375 959 1747 
Q 959 1119 1226 758 
Q 1494 397 1959 397 
Q 2419 397 2687 759 
Q 2956 1122 2956 1747 
Q 2956 2369 2687 2733 
Q 2419 3097 1959 3097 
z
M 1959 3584 
Q 2709 3584 3137 3096 
Q 3566 2609 3566 1747 
Q 3566 888 3137 398 
Q 2709 -91 1959 -91 
Q 1206 -91 779 398 
Q 353 888 353 1747 
Q 353 2609 779 3096 
Q 1206 3584 1959 3584 
z
" transform="scale(0.015625)"/>
       <path id="DejaVuSans-72" d="M 2631 2963 
Q 2534 3019 2420 3045 
Q 2306 3072 2169 3072 
Q 1681 3072 1420 2755 
Q 1159 2438 1159 1844 
L 1159 0 
L 581 0 
L 581 3500 
L 1159 3500 
L 1159 2956 
Q 1341 3275 1631 3429 
Q 1922 3584 2338 3584 
Q 2397 3584 2469 3576 
Q 2541 3569 2628 3553 
L 2631 2963 
z
" transform="scale(0.015625)"/>
      </defs>
      <use xlink:href="#DejaVuSans-53"/>
      <use xlink:href="#DejaVuSans-63" transform="translate(63.476562 0)"/>
      <use xlink:href="#DejaVuSans-6f" transform="translate(118.457031 0)"/>
      <use xlink:href="#DejaVuSans-72" transform="translate(179.638672 0)"/>
      <use xlink:href="#DejaVuSans-65" transform="translate(218.501953 0)"/>
     </g>
    </g>
   </g>
   <g id="LineCollection_1"/>
   <g id="patch_8">
    <path d="M 399.80514 316.44327 
L 407.158268 316.44327 
L 414.511397 316.44327 
L 414.511397 22.318125 
L 407.158268 22.318125 
L 399.80514 22.318125 
L 399.80514 316.44327 
z
" style="fill: none; stroke: #000000; stroke-width: 0.8; stroke-linejoin: miter; stroke-linecap: square"/>
   </g>
  </g>
 </g>
 <defs>
  <clipPath id="pd025393979">
   <rect x="43.78125" y="22.318125" width="327.879895" height="294.125145"/>
  </clipPath>
  <clipPath id="p1c2e68bb5d">
   <rect x="399.80514" y="22.318125" width="14.706257" height="294.125145"/>
  </clipPath>
 </defs>
</svg>
