<?xml version="1.0" encoding="utf-8" standalone="no"?>
<!DOCTYPE svg PUBLIC "-//W3C//DTD SVG 1.1//EN"
  "http://www.w3.org/Graphics/SVG/1.1/DTD/svg11.dtd">
<svg xmlns:xlink="http://www.w3.org/1999/xlink" width="468.234662pt" height="353.99952pt" viewBox="0 0 468.234662 353.99952" xmlns="http://www.w3.org/2000/svg" version="1.1">
 <metadata>
  <rdf:RDF xmlns:dc="http://purl.org/dc/elements/1.1/" xmlns:cc="http://creativecommons.org/ns#" xmlns:rdf="http://www.w3.org/1999/02/22-rdf-syntax-ns#">
   <cc:Work>
    <dc:type rdf:resource="http://purl.org/dc/dcmitype/StillImage"/>
    <dc:date>1970-01-01T00:00:00+00:00</dc:date>
    <dc:format>image/svg+xml</dc:format>
    <dc:creator>
     <cc:Agent>
      <dc:title>Matplotlib v3.10.7, https://matplotlib.org/</dc:title>
     </cc:Agent>
    </dc:creator>
   </cc:Work>
  </rdf:RDF>
 </metadata>
 <defs>
  <style type="text/css">*{stroke-linejoin: round; stroke-linecap: butt}</style>
 </defs>
 <g id="figure_1">
  <g id="patch_1">
   <path d="M 0 353.99952 
L 468.234662 353.99952 
L 468.234662 0 
L 0 0 
z
" style="fill: #ffffff"/>
  </g>
  <g id="axes_1">
   <g id="patch_2">
    <path d="M 43.78125 316.44327 
L 371.0952 316.44327 
L 371.0952 10.999219 
L 43.78125 10.999219 
z
" style="fill: #ffffff"/>
   </g>
   <g id="QuadContourSet_1">
    <path d="M 589.304499 91.825635 
L 591.493198 87.360232 
L 596.245449 61.906561 
L 596.803228 36.45289 
L 595.469367 10.999219 
L 589.304499 10.999219 
L 552.936283 10.999219 
L 516.568066 10.999219 
L 510.459754 10.999219 
L 516.568066 29.294011 
L 528.300012 36.45289 
L 550.007129 61.906561 
L 552.936283 67.419987 
L 587.043378 87.360232 
z
" clip-path="url(#pa24054e3cf)" style="fill: #470d60"/>
    <path d="M 589.304499 158.874286 
L 625.672716 140.962672 
L 627.125115 138.267573 
L 632.415522 112.813902 
L 632.476852 87.360232 
L 630.315744 61.906561 
L 626.485688 36.45289 
L 625.672716 32.099403 
L 624.287431 10.999219 
L 595.469367 10.999219 
L 596.803228 36.45289 
L 596.245449 61.906561 
L 591.493198 87.360232 
L 589.304499 91.825635 
L 587.043378 87.360232 
L 552.936283 67.419987 
L 550.007129 61.906561 
L 528.300012 36.45289 
L 516.568066 29.294011 
L 510.459754 10.999219 
L 497.431367 10.999219 
L 509.090621 36.45289 
L 516.568066 57.59379 
L 522.388422 61.906561 
L 544.489275 87.360232 
L 552.936283 104.422432 
L 563.770439 112.813902 
L 581.585358 138.267573 
z
" clip-path="url(#pa24054e3cf)" style="fill: #482475"/>
    <path d="M 625.672716 232.274809 
L 662.040933 232.911733 
L 689.096641 214.628586 
L 695.607437 189.174915 
L 696.750136 163.721244 
L 696.254387 138.267573 
L 694.727461 112.813902 
L 692.461977 87.360232 
L 689.856785 61.906561 
L 686.58156 36.45289 
L 682.91962 10.999219 
L 662.040933 10.999219 
L 625.672716 10.999219 
L 624.287431 10.999219 
L 625.672716 32.099403 
L 626.485688 36.45289 
L 630.315744 61.906561 
L 632.476852 87.360232 
L 632.415522 112.813902 
L 627.125115 138.267573 
L 625.672716 140.962672 
L 589.304499 158.874286 
L 581.585358 138.267573 
L 563.770439 112.813902 
L 552.936283 104.422432 
L 544.489275 87.360232 
L 522.388422 61.906561 
L 516.568066 57.59379 
L 509.090621 36.45289 
L 497.431367 10.999219 
L 480.999222 10.999219 
L 498.099144 36.45289 
L 509.579134 61.906561 
L 516.568066 80.877298 
L 523.946839 87.360232 
L 543.464257 112.813902 
L 552.936283 133.515273 
L 558.028828 138.267573 
L 576.56683 163.721244 
L 586.514859 189.174915 
L 589.304499 198.886952 
L 614.800254 214.628586 
z
" clip-path="url(#pa24054e3cf)" style="fill: #443983"/>
    <path d="M -28.955183 316.44327 
L 7.413033 316.44327 
L 43.78125 316.44327 
L 80.149467 316.44327 
L 116.517683 316.44327 
L 152.8859 316.44327 
L 189.254116 316.44327 
L 225.622333 316.44327 
L 226.899773 316.44327 
L 225.622333 315.963583 
L 189.254116 297.189465 
L 176.895569 290.989599 
L 152.8859 281.917263 
L 125.467134 265.535928 
L 116.517683 262.473157 
L 80.149467 241.666731 
L 75.99995 240.082257 
L 43.78125 227.028319 
L 28.631936 214.628586 
L 7.413033 203.750304 
L -22.374048 189.174915 
L -28.955183 187.579099 
L -65.3234 172.857492 
L -65.3234 189.174915 
L -65.3234 214.628586 
L -65.3234 240.082257 
L -65.3234 265.535928 
L -65.3234 290.989599 
L -65.3234 316.44327 
z
M 625.672716 316.44327 
L 662.040933 316.44327 
L 698.409149 316.44327 
L 734.777366 316.44327 
L 771.145582 316.44327 
L 807.513799 316.44327 
L 843.882016 316.44327 
L 880.250232 316.44327 
L 916.618449 316.44327 
L 952.986665 316.44327 
L 989.354882 316.44327 
L 1025.723099 316.44327 
L 1062.091315 316.44327 
L 1098.459532 316.44327 
L 1134.827749 316.44327 
L 1171.195965 316.44327 
L 1207.564182 316.44327 
L 1243.932398 316.44327 
L 1280.300615 316.44327 
L 1316.668832 316.44327 
L 1353.037048 316.44327 
L 1389.405265 316.44327 
L 1425.773481 316.44327 
L 1462.141698 316.44327 
L 1498.509915 316.44327 
L 1534.878131 316.44327 
L 1534.878131 290.989599 
L 1534.878131 265.535928 
L 1534.878131 240.082257 
L 1534.878131 214.628586 
L 1534.878131 189.174915 
L 1534.878131 163.721244 
L 1534.878131 138.267573 
L 1534.878131 112.813902 
L 1534.878131 87.360232 
L 1534.878131 61.906561 
L 1534.878131 36.45289 
L 1534.878131 10.999219 
L 1498.509915 10.999219 
L 1462.141698 10.999219 
L 1425.773481 10.999219 
L 1389.405265 10.999219 
L 1353.037048 10.999219 
L 1316.668832 10.999219 
L 1280.300615 10.999219 
L 1243.932398 10.999219 
L 1207.564182 10.999219 
L 1171.195965 10.999219 
L 1134.827749 10.999219 
L 1098.459532 10.999219 
L 1062.091315 10.999219 
L 1025.723099 10.999219 
L 989.354882 10.999219 
L 952.986665 10.999219 
L 916.618449 10.999219 
L 880.250232 10.999219 
L 843.882016 10.999219 
L 807.513799 10.999219 
L 771.145582 10.999219 
L 734.777366 10.999219 
L 698.409149 10.999219 
L 682.91962 10.999219 
L 686.58156 36.45289 
L 689.856785 61.906561 
L 692.461977 87.360232 
L 694.727461 112.813902 
L 696.254387 138.267573 
L 696.750136 163.721244 
L 695.607437 189.174915 
L 689.096641 214.628586 
L 662.040933 232.911733 
L 625.672716 232.274809 
L 614.800254 214.628586 
L 589.304499 198.886952 
L 586.514859 189.174915 
L 576.56683 163.721244 
L 558.028828 138.267573 
L 552.936283 133.515273 
L 543.464257 112.813902 
L 523.946839 87.360232 
L 516.568066 80.877298 
L 509.579134 61.906561 
L 498.099144 36.45289 
L 480.999222 10.999219 
L 480.199849 10.999219 
L 471.233665 10.999219 
L 480.199849 30.407091 
L 484.784076 36.45289 
L 500.098939 61.906561 
L 511.12602 87.360232 
L 516.568066 101.181466 
L 528.036674 112.813902 
L 544.468279 138.267573 
L 552.936283 157.646669 
L 558.584626 163.721244 
L 575.276182 189.174915 
L 584.801117 214.628586 
L 589.304499 231.977623 
L 599.490466 240.082257 
L 615.866818 265.535928 
L 621.995813 290.989599 
L 623.507376 316.44327 
z
" clip-path="url(#pa24054e3cf)" style="fill: #3d4d8a"/>
    <path d="M 189.254116 297.189465 
L 225.622333 315.963583 
L 226.899773 316.44327 
L 257.149807 316.44327 
L 225.622333 301.245937 
L 211.840589 290.989599 
L 189.254116 278.367454 
L 170.69257 265.535928 
L 152.8859 255.98936 
L 127.537921 240.082257 
L 116.517683 234.542222 
L 88.070614 214.628586 
L 80.149467 210.787193 
L 46.332404 189.174915 
L 43.78125 187.966259 
L 7.413033 168.99147 
L -1.158037 163.721244 
L -28.955183 150.027794 
L -44.269305 138.267573 
L -65.3234 127.71556 
L -65.3234 138.267573 
L -65.3234 163.721244 
L -65.3234 172.857492 
L -28.955183 187.579099 
L -22.374048 189.174915 
L 7.413033 203.750304 
L 28.631936 214.628586 
L 43.78125 227.028319 
L 75.99995 240.082257 
L 80.149467 241.666731 
L 116.517683 262.473157 
L 125.467134 265.535928 
L 152.8859 281.917263 
L 176.895569 290.989599 
z
M 621.995813 290.989599 
L 615.866818 265.535928 
L 599.490466 240.082257 
L 589.304499 231.977623 
L 584.801117 214.628586 
L 575.276182 189.174915 
L 558.584626 163.721244 
L 552.936283 157.646669 
L 544.468279 138.267573 
L 528.036674 112.813902 
L 516.568066 101.181466 
L 511.12602 87.360232 
L 500.098939 61.906561 
L 484.784076 36.45289 
L 480.199849 30.407091 
L 471.233665 10.999219 
L 460.276777 10.999219 
L 473.951235 36.45289 
L 480.199849 49.484285 
L 488.940689 61.906561 
L 502.606991 87.360232 
L 513.583079 112.813902 
L 516.568066 119.773537 
L 532.460165 138.267573 
L 546.466908 163.721244 
L 552.936283 178.556731 
L 561.59616 189.174915 
L 575.705119 214.628586 
L 584.210494 240.082257 
L 589.304499 262.44001 
L 592.310524 265.535928 
L 606.802338 290.989599 
L 612.768911 316.44327 
L 623.507376 316.44327 
z
M 334.726983 190.317552 
L 337.777827 189.174915 
L 334.726983 185.811649 
L 334.266374 189.174915 
z
" clip-path="url(#pa24054e3cf)" style="fill: #355f8d"/>
    <path d="M 225.622333 301.245937 
L 257.149807 316.44327 
L 261.99055 316.44327 
L 270.518536 316.44327 
L 261.99055 311.241627 
L 229.882939 290.989599 
L 225.622333 288.559281 
L 191.294495 265.535928 
L 189.254116 264.410283 
L 152.8859 240.794031 
L 151.944635 240.082257 
L 116.517683 218.221385 
L 112.24388 214.628586 
L 80.149467 195.59193 
L 71.852603 189.174915 
L 43.78125 172.765955 
L 30.629537 163.721244 
L 7.413033 150.816294 
L -11.040034 138.267573 
L -28.955183 128.596241 
L -52.815207 112.813902 
L -65.3234 106.238305 
L -65.3234 112.813902 
L -65.3234 127.71556 
L -44.269305 138.267573 
L -28.955183 150.027794 
L -1.158037 163.721244 
L 7.413033 168.99147 
L 43.78125 187.966259 
L 46.332404 189.174915 
L 80.149467 210.787193 
L 88.070614 214.628586 
L 116.517683 234.542222 
L 127.537921 240.082257 
L 152.8859 255.98936 
L 170.69257 265.535928 
L 189.254116 278.367454 
L 211.840589 290.989599 
z
M 589.304499 294.563502 
L 599.823744 316.44327 
L 612.768911 316.44327 
L 606.802338 290.989599 
L 592.310524 265.535928 
L 589.304499 262.44001 
L 584.210494 240.082257 
L 575.705119 214.628586 
L 561.59616 189.174915 
L 552.936283 178.556731 
L 546.466908 163.721244 
L 532.460165 138.267573 
L 516.568066 119.773537 
L 513.583079 112.813902 
L 502.606991 87.360232 
L 488.940689 61.906561 
L 480.199849 49.484285 
L 473.951235 36.45289 
L 460.276777 10.999219 
L 447.012493 10.999219 
L 463.820067 36.45289 
L 477.173386 61.906561 
L 480.199849 67.928626 
L 492.757515 87.360232 
L 505.43431 112.813902 
L 516.568066 137.180751 
L 517.621119 138.267573 
L 536.521123 163.721244 
L 549.146751 189.174915 
L 552.936283 197.57769 
L 565.075665 214.628586 
L 576.629515 240.082257 
L 583.95903 265.535928 
L 588.741575 290.989599 
z
M 371.0952 272.896803 
L 388.036365 265.535928 
L 378.020061 240.082257 
L 371.0952 225.458706 
L 369.52788 240.082257 
L 368.306484 265.535928 
z
M 334.726983 200.281992 
L 359.534736 189.174915 
L 342.203054 163.721244 
L 334.726983 152.783121 
L 333.587027 163.721244 
L 330.10055 189.174915 
z
M 334.266374 189.174915 
L 334.726983 185.811649 
L 337.777827 189.174915 
L 334.726983 190.317552 
z
M 298.358766 123.292142 
L 322.173816 112.813902 
L 305.33059 87.360232 
L 298.358766 79.310632 
L 297.021353 87.360232 
L 294.216904 112.813902 
z
M 261.99055 44.156586 
L 283.621108 36.45289 
L 268.707071 10.999219 
L 261.99055 10.999219 
L 260.686878 10.999219 
L 258.73643 36.45289 
z
" clip-path="url(#pa24054e3cf)" style="fill: #2d708e"/>
    <path d="M 261.99055 311.241627 
L 270.518536 316.44327 
L 279.878678 316.44327 
L 261.99055 304.66313 
L 242.193728 290.989599 
L 225.622333 280.541777 
L 205.460123 265.535928 
L 189.254116 255.507652 
L 168.294119 240.082257 
L 152.8859 230.536123 
L 130.932746 214.628586 
L 116.517683 206.120588 
L 92.244014 189.174915 
L 80.149467 181.342017 
L 54.50013 163.721244 
L 43.78125 157.461272 
L 14.693214 138.267573 
L 7.413033 134.110523 
L -25.685865 112.813902 
L -28.955183 110.949854 
L -65.3234 87.844354 
L -65.3234 106.238305 
L -52.815207 112.813902 
L -28.955183 128.596241 
L -11.040034 138.267573 
L 7.413033 150.816294 
L 30.629537 163.721244 
L 43.78125 172.765955 
L 71.852603 189.174915 
L 80.149467 195.59193 
L 112.24388 214.628586 
L 116.517683 218.221385 
L 151.944635 240.082257 
L 152.8859 240.794031 
L 189.254116 264.410283 
L 191.294495 265.535928 
L 225.622333 288.559281 
L 229.882939 290.989599 
z
M 407.463416 316.44327 
L 422.802854 316.44327 
L 414.002621 290.989599 
L 407.463416 275.013774 
L 404.529124 265.535928 
L 394.698233 240.082257 
L 385.182587 214.628586 
L 377.332832 189.174915 
L 371.0952 175.838473 
L 365.771249 163.721244 
L 352.232537 138.267573 
L 342.447652 112.813902 
L 336.821791 87.360232 
L 334.726983 82.024139 
L 324.452347 61.906561 
L 308.352151 36.45289 
L 301.153521 10.999219 
L 298.358766 10.999219 
L 268.707071 10.999219 
L 283.621108 36.45289 
L 261.99055 44.156586 
L 258.73643 36.45289 
L 260.686878 10.999219 
L 251.297798 10.999219 
L 254.124095 36.45289 
L 261.99055 54.417768 
L 283.729072 61.906561 
L 287.976745 87.360232 
L 289.702763 112.813902 
L 298.358766 133.956413 
L 314.554809 138.267573 
L 328.745731 163.721244 
L 325.640527 189.174915 
L 334.726983 210.246433 
L 350.754343 214.628586 
L 364.732317 240.082257 
L 364.58294 265.535928 
L 371.0952 282.232058 
L 399.48655 290.989599 
L 402.519654 316.44327 
z
M 368.306484 265.535928 
L 369.52788 240.082257 
L 371.0952 225.458706 
L 378.020061 240.082257 
L 388.036365 265.535928 
L 371.0952 272.896803 
z
M 330.10055 189.174915 
L 333.587027 163.721244 
L 334.726983 152.783121 
L 342.203054 163.721244 
L 359.534736 189.174915 
L 334.726983 200.281992 
z
M 294.216904 112.813902 
L 297.021353 87.360232 
L 298.358766 79.310632 
L 305.33059 87.360232 
L 322.173816 112.813902 
L 298.358766 123.292142 
z
M 589.304499 316.44327 
L 599.823744 316.44327 
L 589.304499 294.563502 
L 588.741575 290.989599 
L 583.95903 265.535928 
L 576.629515 240.082257 
L 565.075665 214.628586 
L 552.936283 197.57769 
L 549.146751 189.174915 
L 536.521123 163.721244 
L 517.621119 138.267573 
L 516.568066 137.180751 
L 505.43431 112.813902 
L 492.757515 87.360232 
L 480.199849 67.928626 
L 477.173386 61.906561 
L 463.820067 36.45289 
L 447.012493 10.999219 
L 443.831633 10.999219 
L 436.142162 10.999219 
L 443.831633 25.900229 
L 451.748104 36.45289 
L 467.04011 61.906561 
L 480.199849 86.115279 
L 481.083719 87.360232 
L 496.076658 112.813902 
L 508.586384 138.267573 
L 516.568066 153.906464 
L 524.711676 163.721244 
L 540.241081 189.174915 
L 552.561599 214.628586 
L 552.936283 215.408446 
L 568.013224 240.082257 
L 577.413954 265.535928 
L 583.388741 290.989599 
L 587.723899 316.44327 
z
" clip-path="url(#pa24054e3cf)" style="fill: #27808e"/>
    <path d="M 261.99055 304.66313 
L 279.878678 316.44327 
L 288.029335 316.44327 
L 261.99055 298.084634 
L 252.492413 290.989599 
L 225.622333 272.524274 
L 217.02404 265.535928 
L 189.254116 246.605021 
L 181.221604 240.082257 
L 152.8859 220.520858 
L 145.613797 214.628586 
L 116.517683 195.210999 
L 108.896902 189.174915 
L 80.149467 167.783167 
L 75.092767 163.721244 
L 43.78125 142.00322 
L 39.073049 138.267573 
L 7.413033 116.124192 
L 3.275865 112.813902 
L -28.955183 89.454117 
L -31.521241 87.360232 
L -65.3234 64.039373 
L -65.3234 87.360232 
L -65.3234 87.844354 
L -28.955183 110.949854 
L -25.685865 112.813902 
L 7.413033 134.110523 
L 14.693214 138.267573 
L 43.78125 157.461272 
L 54.50013 163.721244 
L 80.149467 181.342017 
L 92.244014 189.174915 
L 116.517683 206.120588 
L 130.932746 214.628586 
L 152.8859 230.536123 
L 168.294119 240.082257 
L 189.254116 255.507652 
L 205.460123 265.535928 
L 225.622333 280.541777 
L 242.193728 290.989599 
z
M 371.0952 291.398098 
L 397.132023 316.44327 
L 402.519654 316.44327 
L 399.48655 290.989599 
L 371.0952 282.232058 
L 364.58294 265.535928 
L 364.732317 240.082257 
L 350.754343 214.628586 
L 334.726983 210.246433 
L 325.640527 189.174915 
L 328.745731 163.721244 
L 314.554809 138.267573 
L 298.358766 133.956413 
L 289.702763 112.813902 
L 287.976745 87.360232 
L 283.729072 61.906561 
L 261.99055 54.417768 
L 254.124095 36.45289 
L 251.297798 10.999219 
L 240.265648 10.999219 
L 249.148328 36.45289 
L 260.125199 61.906561 
L 261.99055 66.613216 
L 277.417445 87.360232 
L 284.841091 112.813902 
L 294.490397 138.267573 
L 298.358766 141.721776 
L 323.502431 163.721244 
L 320.841574 189.174915 
L 331.955078 214.628586 
L 334.726983 217.903349 
L 359.542623 240.082257 
L 360.62612 265.535928 
L 370.752816 290.989599 
z
M 429.69373 290.989599 
L 422.958572 265.535928 
L 408.341828 240.082257 
L 407.463416 238.629641 
L 400.188479 214.628586 
L 394.029994 189.174915 
L 386.437187 163.721244 
L 372.133438 138.267573 
L 371.0952 136.834807 
L 362.260756 112.813902 
L 356.277734 87.360232 
L 349.482737 61.906561 
L 334.726983 40.701051 
L 332.16075 36.45289 
L 323.234813 10.999219 
L 301.153521 10.999219 
L 308.352151 36.45289 
L 324.452347 61.906561 
L 334.726983 82.024139 
L 336.821791 87.360232 
L 342.447652 112.813902 
L 352.232537 138.267573 
L 365.771249 163.721244 
L 371.0952 175.838473 
L 377.332832 189.174915 
L 385.182587 214.628586 
L 394.698233 240.082257 
L 404.529124 265.535928 
L 407.463416 275.013774 
L 414.002621 290.989599 
L 422.802854 316.44327 
L 435.183847 316.44327 
z
M 583.388741 290.989599 
L 577.413954 265.535928 
L 568.013224 240.082257 
L 552.936283 215.408446 
L 552.561599 214.628586 
L 540.241081 189.174915 
L 524.711676 163.721244 
L 516.568066 153.906464 
L 508.586384 138.267573 
L 496.076658 112.813902 
L 481.083719 87.360232 
L 480.199849 86.115279 
L 467.04011 61.906561 
L 451.748104 36.45289 
L 443.831633 25.900229 
L 436.142162 10.999219 
L 424.835153 10.999219 
L 438.340775 36.45289 
L 443.831633 45.739485 
L 454.965152 61.906561 
L 469.720613 87.360232 
L 480.199849 105.276493 
L 485.087904 112.813902 
L 498.790353 138.267573 
L 512.280323 163.721244 
L 516.568066 170.819332 
L 529.870778 189.174915 
L 543.797747 214.628586 
L 552.936283 232.390299 
L 558.033432 240.082257 
L 570.11162 265.535928 
L 577.540046 290.989599 
L 582.605131 316.44327 
L 587.723899 316.44327 
z
" clip-path="url(#pa24054e3cf)" style="fill: #21918c"/>
    <path d="M 261.99055 298.084634 
L 288.029335 316.44327 
L 295.247611 316.44327 
L 261.99055 291.506137 
L 261.345244 290.989599 
L 227.725445 265.535928 
L 225.622333 264.253164 
L 193.967358 240.082257 
L 189.254116 237.155957 
L 160.592651 214.628586 
L 152.8859 209.626169 
L 126.071098 189.174915 
L 116.517683 183.229129 
L 94.331267 163.721244 
L 80.149467 154.507808 
L 60.169184 138.267573 
L 43.78125 127.822352 
L 25.58438 112.813902 
L 7.413033 100.197483 
L -7.454839 87.360232 
L -28.955183 72.890836 
L -42.102822 61.906561 
L -65.3234 46.25336 
L -65.3234 61.906561 
L -65.3234 64.039373 
L -31.521241 87.360232 
L -28.955183 89.454117 
L 3.275865 112.813902 
L 7.413033 116.124192 
L 39.073049 138.267573 
L 43.78125 142.00322 
L 75.092767 163.721244 
L 80.149467 167.783167 
L 108.896902 189.174915 
L 116.517683 195.210999 
L 145.613797 214.628586 
L 152.8859 220.520858 
L 181.221604 240.082257 
L 189.254116 246.605021 
L 217.02404 265.535928 
L 225.622333 272.524274 
L 252.492413 290.989599 
z
M 371.0952 297.999018 
L 391.241754 316.44327 
L 397.132023 316.44327 
L 371.0952 291.398098 
L 370.752816 290.989599 
L 360.62612 265.535928 
L 359.542623 240.082257 
L 334.726983 217.903349 
L 331.955078 214.628586 
L 320.841574 189.174915 
L 323.502431 163.721244 
L 298.358766 141.721776 
L 294.490397 138.267573 
L 284.841091 112.813902 
L 277.417445 87.360232 
L 261.99055 66.613216 
L 260.125199 61.906561 
L 249.148328 36.45289 
L 240.265648 10.999219 
L 226.890775 10.999219 
L 243.746919 36.45289 
L 252.698305 61.906561 
L 261.99055 84.03351 
L 264.732025 87.360232 
L 279.57388 112.813902 
L 287.411942 138.267573 
L 298.358766 147.519968 
L 317.78427 163.721244 
L 315.647909 189.174915 
L 326.683078 214.628586 
L 334.726983 223.748835 
L 353.888165 240.082257 
L 356.40483 265.535928 
L 364.946411 290.989599 
z
M 443.831633 316.44327 
L 448.122066 316.44327 
L 443.831633 302.292879 
L 442.252779 290.989599 
L 438.270032 265.535928 
L 429.382952 240.082257 
L 418.622903 214.628586 
L 407.463416 190.332364 
L 407.224064 189.174915 
L 403.034055 163.721244 
L 397.333062 138.267573 
L 384.982588 112.813902 
L 371.206583 87.360232 
L 371.0952 87.12119 
L 366.833092 61.906561 
L 361.219215 36.45289 
L 349.865434 10.999219 
L 334.726983 10.999219 
L 323.234813 10.999219 
L 332.16075 36.45289 
L 334.726983 40.701051 
L 349.482737 61.906561 
L 356.277734 87.360232 
L 362.260756 112.813902 
L 371.0952 136.834807 
L 372.133438 138.267573 
L 386.437187 163.721244 
L 394.029994 189.174915 
L 400.188479 214.628586 
L 407.463416 238.629641 
L 408.341828 240.082257 
L 422.958572 265.535928 
L 429.69373 290.989599 
L 435.183847 316.44327 
z
M 577.540046 290.989599 
L 570.11162 265.535928 
L 558.033432 240.082257 
L 552.936283 232.390299 
L 543.797747 214.628586 
L 529.870778 189.174915 
L 516.568066 170.819332 
L 512.280323 163.721244 
L 498.790353 138.267573 
L 485.087904 112.813902 
L 480.199849 105.276493 
L 469.720613 87.360232 
L 454.965152 61.906561 
L 443.831633 45.739485 
L 438.340775 36.45289 
L 424.835153 10.999219 
L 411.053623 10.999219 
L 423.763149 36.45289 
L 439.174925 61.906561 
L 443.831633 68.024656 
L 456.120334 87.360232 
L 471.137333 112.813902 
L 480.199849 126.536247 
L 487.191617 138.267573 
L 500.461696 163.721244 
L 516.568066 188.064628 
L 517.457413 189.174915 
L 533.61935 214.628586 
L 547.409326 240.082257 
L 552.936283 249.429027 
L 561.853594 265.535928 
L 571.094154 290.989599 
L 577.034778 316.44327 
L 582.605131 316.44327 
z
" clip-path="url(#pa24054e3cf)" style="fill: #1fa188"/>
    <path d="M 261.99055 291.506137 
L 295.247611 316.44327 
L 298.358766 316.44327 
L 304.917291 316.44327 
L 298.358766 312.039211 
L 273.87068 290.989599 
L 261.99055 282.443565 
L 242.078517 265.535928 
L 225.622333 254.259981 
L 209.014144 240.082257 
L 189.254116 226.209221 
L 176.137235 214.628586 
L 152.8859 197.474673 
L 143.330724 189.174915 
L 116.517683 169.919183 
L 110.274911 163.721244 
L 80.149467 141.3537 
L 76.807566 138.267573 
L 43.78125 114.048491 
L 42.467089 112.813902 
L 12.943973 87.360232 
L 7.413033 83.784017 
L -18.442558 61.906561 
L -28.955183 54.974422 
L -50.564975 36.45289 
L -65.3234 25.934446 
L -65.3234 36.45289 
L -65.3234 46.25336 
L -42.102822 61.906561 
L -28.955183 72.890836 
L -7.454839 87.360232 
L 7.413033 100.197483 
L 25.58438 112.813902 
L 43.78125 127.822352 
L 60.169184 138.267573 
L 80.149467 154.507808 
L 94.331267 163.721244 
L 116.517683 183.229129 
L 126.071098 189.174915 
L 152.8859 209.626169 
L 160.592651 214.628586 
L 189.254116 237.155957 
L 193.967358 240.082257 
L 225.622333 264.253164 
L 227.725445 265.535928 
L 261.345244 290.989599 
z
M 371.0952 304.599938 
L 384.74532 316.44327 
L 391.241754 316.44327 
L 371.0952 297.999018 
L 364.946411 290.989599 
L 356.40483 265.535928 
L 353.888165 240.082257 
L 334.726983 223.748835 
L 326.683078 214.628586 
L 315.647909 189.174915 
L 317.78427 163.721244 
L 298.358766 147.519968 
L 287.411942 138.267573 
L 279.57388 112.813902 
L 264.732025 87.360232 
L 261.99055 84.03351 
L 252.698305 61.906561 
L 243.746919 36.45289 
L 226.890775 10.999219 
L 225.622333 10.999219 
L 215.511429 10.999219 
L 225.622333 19.600241 
L 237.840176 36.45289 
L 244.280571 61.906561 
L 255.493349 87.360232 
L 261.99055 95.270735 
L 273.827267 112.813902 
L 279.439167 138.267573 
L 298.358766 153.318161 
L 311.496592 163.721244 
L 309.988736 189.174915 
L 320.930763 214.628586 
L 334.726983 229.59432 
L 347.677438 240.082257 
L 351.881167 265.535928 
L 358.551857 290.989599 
z
M 443.831633 302.292879 
L 448.122066 316.44327 
L 468.178039 316.44327 
L 463.809646 290.989599 
L 458.894012 265.535928 
L 447.441734 240.082257 
L 443.831633 233.748184 
L 439.109078 214.628586 
L 433.123565 189.174915 
L 427.945585 163.721244 
L 424.831746 138.267573 
L 412.11212 112.813902 
L 407.463416 108.635512 
L 402.435151 87.360232 
L 401.033927 61.906561 
L 407.463416 46.143879 
L 414.014829 61.906561 
L 426.279898 87.360232 
L 443.831633 97.740414 
L 452.654128 112.813902 
L 467.669177 138.267573 
L 480.199849 153.28336 
L 485.911376 163.721244 
L 499.579838 189.174915 
L 516.568066 207.654216 
L 521.480208 214.628586 
L 535.856208 240.082257 
L 552.110175 265.535928 
L 552.936283 266.590542 
L 563.915093 290.989599 
L 570.925381 316.44327 
L 577.034778 316.44327 
L 571.094154 290.989599 
L 561.853594 265.535928 
L 552.936283 249.429027 
L 547.409326 240.082257 
L 533.61935 214.628586 
L 517.457413 189.174915 
L 516.568066 188.064628 
L 500.461696 163.721244 
L 487.191617 138.267573 
L 480.199849 126.536247 
L 471.137333 112.813902 
L 456.120334 87.360232 
L 443.831633 68.024656 
L 439.174925 61.906561 
L 423.763149 36.45289 
L 411.053623 10.999219 
L 407.463416 10.999219 
L 371.0952 10.999219 
L 349.865434 10.999219 
L 361.219215 36.45289 
L 366.833092 61.906561 
L 371.0952 87.12119 
L 371.206583 87.360232 
L 384.982588 112.813902 
L 397.333062 138.267573 
L 403.034055 163.721244 
L 407.224064 189.174915 
L 407.463416 190.332364 
L 418.622903 214.628586 
L 429.382952 240.082257 
L 438.270032 265.535928 
L 442.252779 290.989599 
z
" clip-path="url(#pa24054e3cf)" style="fill: #2ab07f"/>
    <path d="M 298.358766 312.039211 
L 304.917291 316.44327 
L 315.650773 316.44327 
L 298.358766 303.768392 
L 284.649418 290.989599 
L 261.99055 273.169326 
L 253.766866 265.535928 
L 225.622333 244.266798 
L 221.157711 240.082257 
L 189.254116 215.262485 
L 188.60241 214.628586 
L 161.233168 189.174915 
L 152.8859 182.749004 
L 132.229058 163.721244 
L 116.517683 152.769491 
L 101.606259 138.267573 
L 80.149467 121.815018 
L 70.775891 112.813902 
L 43.78125 93.25438 
L 38.297248 87.360232 
L 7.413033 62.718056 
L 6.621039 61.906561 
L -21.461822 36.45289 
L -28.955183 31.451901 
L -49.143476 10.999219 
L -65.3234 10.999219 
L -65.3234 25.934446 
L -50.564975 36.45289 
L -28.955183 54.974422 
L -18.442558 61.906561 
L 7.413033 83.784017 
L 12.943973 87.360232 
L 42.467089 112.813902 
L 43.78125 114.048491 
L 76.807566 138.267573 
L 80.149467 141.3537 
L 110.274911 163.721244 
L 116.517683 169.919183 
L 143.330724 189.174915 
L 152.8859 197.474673 
L 176.137235 214.628586 
L 189.254116 226.209221 
L 209.014144 240.082257 
L 225.622333 254.259981 
L 242.078517 265.535928 
L 261.99055 282.443565 
L 273.87068 290.989599 
z
M 371.0952 311.200857 
L 377.503496 316.44327 
L 384.74532 316.44327 
L 371.0952 304.599938 
L 358.551857 290.989599 
L 351.881167 265.535928 
L 347.677438 240.082257 
L 334.726983 229.59432 
L 320.930763 214.628586 
L 309.988736 189.174915 
L 311.496592 163.721244 
L 298.358766 153.318161 
L 279.439167 138.267573 
L 273.827267 112.813902 
L 261.99055 95.270735 
L 255.493349 87.360232 
L 244.280571 61.906561 
L 237.840176 36.45289 
L 225.622333 19.600241 
L 215.511429 10.999219 
L 202.234806 10.999219 
L 225.622333 28.993119 
L 231.323695 36.45289 
L 234.566317 61.906561 
L 246.412621 87.360232 
L 261.99055 105.048476 
L 267.505165 112.813902 
L 270.312957 138.267573 
L 298.358766 159.116353 
L 304.513276 163.721244 
L 303.772318 189.174915 
L 314.601759 214.628586 
L 334.726983 235.439806 
L 340.788929 240.082257 
L 347.008449 265.535928 
L 351.436432 290.989599 
z
M 480.199849 316.44327 
L 487.774003 316.44327 
L 482.754524 290.989599 
L 480.199849 280.175756 
L 478.809004 265.535928 
L 477.064145 240.082257 
L 477.342103 214.628586 
L 480.199849 207.268156 
L 485.442253 214.628586 
L 516.568066 231.814568 
L 521.706802 240.082257 
L 535.620482 265.535928 
L 552.936283 284.997523 
L 555.814416 290.989599 
L 564.161327 316.44327 
L 570.925381 316.44327 
L 563.915093 290.989599 
L 552.936283 266.590542 
L 552.110175 265.535928 
L 535.856208 240.082257 
L 521.480208 214.628586 
L 516.568066 207.654216 
L 499.579838 189.174915 
L 485.911376 163.721244 
L 480.199849 153.28336 
L 467.669177 138.267573 
L 452.654128 112.813902 
L 443.831633 97.740414 
L 426.279898 87.360232 
L 414.014829 61.906561 
L 407.463416 46.143879 
L 401.033927 61.906561 
L 402.435151 87.360232 
L 407.463416 108.635512 
L 412.11212 112.813902 
L 424.831746 138.267573 
L 427.945585 163.721244 
L 433.123565 189.174915 
L 439.109078 214.628586 
L 443.831633 233.748184 
L 447.441734 240.082257 
L 458.894012 265.535928 
L 463.809646 290.989599 
L 468.178039 316.44327 
z
" clip-path="url(#pa24054e3cf)" style="fill: #44bf70"/>
    <path d="M 298.358766 303.768392 
L 315.650773 316.44327 
L 324.822793 316.44327 
L 298.358766 295.497572 
L 293.854441 290.989599 
L 266.745019 265.535928 
L 261.99055 262.218309 
L 240.061894 240.082257 
L 225.622333 229.182693 
L 211.706257 214.628586 
L 189.254116 197.146278 
L 182.058855 189.174915 
L 155.271361 163.721244 
L 152.8859 162.218052 
L 126.926933 138.267573 
L 116.517683 130.213111 
L 100.174185 112.813902 
L 80.149467 96.805168 
L 70.587448 87.360232 
L 43.78125 64.712536 
L 41.371384 61.906561 
L 15.938714 36.45289 
L 7.413033 30.449486 
L -12.614946 10.999219 
L -28.955183 10.999219 
L -49.143476 10.999219 
L -28.955183 31.451901 
L -21.461822 36.45289 
L 6.621039 61.906561 
L 7.413033 62.718056 
L 38.297248 87.360232 
L 43.78125 93.25438 
L 70.775891 112.813902 
L 80.149467 121.815018 
L 101.606259 138.267573 
L 116.517683 152.769491 
L 132.229058 163.721244 
L 152.8859 182.749004 
L 161.233168 189.174915 
L 188.60241 214.628586 
L 189.254116 215.262485 
L 221.157711 240.082257 
L 225.622333 244.266798 
L 253.766866 265.535928 
L 261.99055 273.169326 
L 284.649418 290.989599 
z
M 371.0952 316.44327 
L 377.503496 316.44327 
L 371.0952 311.200857 
L 351.436432 290.989599 
L 347.008449 265.535928 
L 340.788929 240.082257 
L 334.726983 235.439806 
L 314.601759 214.628586 
L 303.772318 189.174915 
L 304.513276 163.721244 
L 298.358766 159.116353 
L 270.312957 138.267573 
L 267.505165 112.813902 
L 261.99055 105.048476 
L 246.412621 87.360232 
L 234.566317 61.906561 
L 231.323695 36.45289 
L 225.622333 28.993119 
L 202.234806 10.999219 
L 189.254116 10.999219 
L 184.818611 10.999219 
L 189.254116 14.778006 
L 221.377992 36.45289 
L 221.284516 61.906561 
L 225.622333 67.042957 
L 235.804026 87.360232 
L 257.652732 112.813902 
L 257.115763 138.267573 
L 261.99055 142.126874 
L 294.020949 163.721244 
L 293.484127 189.174915 
L 298.358766 193.034102 
L 307.567418 214.628586 
L 329.728622 240.082257 
L 334.726983 243.799588 
L 341.728269 265.535928 
L 343.416709 290.989599 
L 367.077182 316.44327 
z
M 514.456774 290.989599 
L 516.568066 280.705745 
L 521.904224 290.989599 
L 552.936283 306.386983 
L 556.58529 316.44327 
L 564.161327 316.44327 
L 555.814416 290.989599 
L 552.936283 284.997523 
L 535.620482 265.535928 
L 521.706802 240.082257 
L 516.568066 231.814568 
L 485.442253 214.628586 
L 480.199849 207.268156 
L 477.342103 214.628586 
L 477.064145 240.082257 
L 478.809004 265.535928 
L 480.199849 280.175756 
L 482.754524 290.989599 
L 487.774003 316.44327 
L 513.070942 316.44327 
z
" clip-path="url(#pa24054e3cf)" style="fill: #67cc5c"/>
    <path d="M 298.358766 295.497572 
L 324.822793 316.44327 
L 332.830492 316.44327 
L 334.726983 295.188066 
L 342.799104 316.44327 
L 367.077182 316.44327 
L 343.416709 290.989599 
L 341.728269 265.535928 
L 334.726983 243.799588 
L 329.728622 240.082257 
L 307.567418 214.628586 
L 298.358766 193.034102 
L 293.484127 189.174915 
L 294.020949 163.721244 
L 261.99055 142.126874 
L 257.115763 138.267573 
L 257.652732 112.813902 
L 235.804026 87.360232 
L 225.622333 67.042957 
L 221.284516 61.906561 
L 221.377992 36.45289 
L 189.254116 14.778006 
L 184.818611 10.999219 
L 157.27226 10.999219 
L 189.254116 33.138948 
L 195.351863 36.45289 
L 194.520167 61.906561 
L 191.061606 87.360232 
L 225.622333 101.381032 
L 230.888384 112.813902 
L 225.913592 138.267573 
L 261.99055 160.878376 
L 267.2566 163.721244 
L 262.28181 189.174915 
L 298.358766 211.785703 
L 299.65058 214.628586 
L 298.358766 236.897842 
L 295.321865 240.082257 
L 261.99055 243.466708 
L 259.092332 240.082257 
L 233.739932 214.628586 
L 225.622333 206.051099 
L 212.256078 189.174915 
L 189.254116 169.839162 
L 185.102079 163.721244 
L 154.542239 138.267573 
L 152.8859 136.797365 
L 137.637215 112.813902 
L 116.517683 95.732294 
L 110.259144 87.360232 
L 80.149467 62.182525 
L 79.932004 61.906561 
L 60.435022 36.45289 
L 43.78125 22.361303 
L 34.977367 10.999219 
L 7.413033 10.999219 
L -12.614946 10.999219 
L 7.413033 30.449486 
L 15.938714 36.45289 
L 41.371384 61.906561 
L 43.78125 64.712536 
L 70.587448 87.360232 
L 80.149467 96.805168 
L 100.174185 112.813902 
L 116.517683 130.213111 
L 126.926933 138.267573 
L 152.8859 162.218052 
L 155.271361 163.721244 
L 182.058855 189.174915 
L 189.254116 197.146278 
L 211.706257 214.628586 
L 225.622333 229.182693 
L 240.061894 240.082257 
L 261.99055 262.218309 
L 266.745019 265.535928 
L 293.854441 290.989599 
z
M 288.440711 265.535928 
L 298.358766 240.99209 
L 334.726983 261.861919 
L 335.966212 265.535928 
L 334.726983 285.921997 
L 298.358766 279.852364 
z
M 516.568066 316.44327 
L 552.936283 316.44327 
L 556.58529 316.44327 
L 552.936283 306.386983 
L 521.904224 290.989599 
L 516.568066 280.705745 
L 514.456774 290.989599 
L 513.070942 316.44327 
z
M 116.517683 13.385906 
L 136.170288 10.999219 
L 116.517683 10.999219 
L 112.554973 10.999219 
z
" clip-path="url(#pa24054e3cf)" style="fill: #90d743"/>
    <path d="M 334.726983 316.44327 
L 342.799104 316.44327 
L 334.726983 295.188066 
L 332.830492 316.44327 
z
M 298.358766 279.852364 
L 334.726983 285.921997 
L 335.966212 265.535928 
L 334.726983 261.861919 
L 298.358766 240.99209 
L 288.440711 265.535928 
z
M 261.99055 243.466708 
L 295.321865 240.082257 
L 298.358766 236.897842 
L 299.65058 214.628586 
L 298.358766 211.785703 
L 262.28181 189.174915 
L 267.2566 163.721244 
L 261.99055 160.878376 
L 225.913592 138.267573 
L 230.888384 112.813902 
L 225.622333 101.381032 
L 191.061606 87.360232 
L 194.520167 61.906561 
L 195.351863 36.45289 
L 189.254116 33.138948 
L 157.27226 10.999219 
L 152.8859 10.999219 
L 136.170288 10.999219 
L 116.517683 13.385906 
L 112.554973 10.999219 
L 80.149467 10.999219 
L 43.78125 10.999219 
L 34.977367 10.999219 
L 43.78125 22.361303 
L 60.435022 36.45289 
L 79.932004 61.906561 
L 80.149467 62.182525 
L 110.259144 87.360232 
L 116.517683 95.732294 
L 137.637215 112.813902 
L 152.8859 136.797365 
L 154.542239 138.267573 
L 185.102079 163.721244 
L 189.254116 169.839162 
L 212.256078 189.174915 
L 225.622333 206.051099 
L 233.739932 214.628586 
L 259.092332 240.082257 
z
M 260.963748 214.628586 
L 261.99055 213.482625 
L 264.510433 214.628586 
L 261.99055 216.003771 
z
M 223.237648 163.721244 
L 225.622333 161.916288 
L 229.530472 163.721244 
L 225.622333 166.75691 
z
M 181.804106 112.813902 
L 189.254116 108.193042 
L 198.651804 112.813902 
L 189.254116 122.055623 
z
M 151.751663 61.906561 
L 152.8859 61.402888 
L 154.010587 61.906561 
L 152.8859 64.095535 
z
M 114.617598 36.45289 
L 116.517683 35.419037 
L 118.698653 36.45289 
L 116.517683 38.750339 
z
" clip-path="url(#pa24054e3cf)" style="fill: #bddf26"/>
    <path d="M 261.99055 216.003771 
L 264.510433 214.628586 
L 261.99055 213.482625 
L 260.963748 214.628586 
z
M 225.622333 166.75691 
L 229.530472 163.721244 
L 225.622333 161.916288 
L 223.237648 163.721244 
z
M 189.254116 122.055623 
L 198.651804 112.813902 
L 189.254116 108.193042 
L 181.804106 112.813902 
z
M 152.8859 64.095535 
L 154.010587 61.906561 
L 152.8859 61.402888 
L 151.751663 61.906561 
z
M 116.517683 38.750339 
L 118.698653 36.45289 
L 116.517683 35.419037 
L 114.617598 36.45289 
z
" clip-path="url(#pa24054e3cf)" style="fill: #eae51a"/>
   </g>
   <g id="PathCollection_1">
    <defs>
     <path id="mdc0741d33a" d="M -3 3 
L 3 -3 
M -3 -3 
L 3 3 
" style="stroke: #ff0000; stroke-width: 1.5"/>
    </defs>
    <g clip-path="url(#pa24054e3cf)">
     <use xlink:href="#mdc0741d33a" x="334.726983" y="316.44327" style="fill: #ff0000; stroke: #ff0000; stroke-width: 1.5"/>
     <use xlink:href="#mdc0741d33a" x="334.726983" y="290.989599" style="fill: #ff0000; stroke: #ff0000; stroke-width: 1.5"/>
     <use xlink:href="#mdc0741d33a" x="298.358766" y="265.535928" style="fill: #ff0000; stroke: #ff0000; stroke-width: 1.5"/>
     <use xlink:href="#mdc0741d33a" x="261.99055" y="240.082257" style="fill: #ff0000; stroke: #ff0000; stroke-width: 1.5"/>
     <use xlink:href="#mdc0741d33a" x="261.99055" y="214.628586" style="fill: #ff0000; stroke: #ff0000; stroke-width: 1.5"/>
     <use xlink:href="#mdc0741d33a" x="225.622333" y="189.174915" style="fill: #ff0000; stroke: #ff0000; stroke-width: 1.5"/>
     <use xlink:href="#mdc0741d33a" x="225.622333" y="163.721244" style="fill: #ff0000; stroke: #ff0000; stroke-width: 1.5"/>
     <use xlink:href="#mdc0741d33a" x="189.254116" y="138.267573" style="fill: #ff0000; stroke: #ff0000; stroke-width: 1.5"/>
     <use xlink:href="#mdc0741d33a" x="189.254116" y="112.813902" style="fill: #ff0000; stroke: #ff0000; stroke-width: 1.5"/>
     <use xlink:href="#mdc0741d33a" x="152.8859" y="87.360232" style="fill: #ff0000; stroke: #ff0000; stroke-width: 1.5"/>
     <use xlink:href="#mdc0741d33a" x="152.8859" y="61.906561" style="fill: #ff0000; stroke: #ff0000; stroke-width: 1.5"/>
     <use xlink:href="#mdc0741d33a" x="116.517683" y="36.45289" style="fill: #ff0000; stroke: #ff0000; stroke-width: 1.5"/>
     <use xlink:href="#mdc0741d33a" x="80.149467" y="10.999219" style="fill: #ff0000; stroke: #ff0000; stroke-width: 1.5"/>
    </g>
   </g>
   <g id="matplotlib.axis_1">
    <g id="xtick_1">
     <g id="line2d_1">
      <defs>
       <path id="m38f3b05bbe" d="M 0 0 
L 0 3.5 
" style="stroke: #000000; stroke-width: 0.8"/>
      </defs>
      <g>
       <use xlink:href="#m38f3b05bbe" x="80.149467" y="316.44327" style="stroke: #000000; stroke-width: 0.8"/>
      </g>
     </g>
     <g id="text_1">
      <!-- $\mathdefault{10^{-4}}$ -->
      <g transform="translate(68.399467 331.041707) scale(0.1 -0.1)">
       <defs>
        <path id="DejaVuSans-31" d="M 794 531 
L 1825 531 
L 1825 4091 
L 703 3866 
L 703 4441 
L 1819 4666 
L 2450 4666 
L 2450 531 
L 3481 531 
L 3481 0 
L 794 0 
L 794 531 
z
" transform="scale(0.015625)"/>
        <path id="DejaVuSans-30" d="M 2034 4250 
Q 1547 4250 1301 3770 
Q 1056 3291 1056 2328 
Q 1056 1369 1301 889 
Q 1547 409 2034 409 
Q 2525 409 2770 889 
Q 3016 1369 3016 2328 
Q 3016 3291 2770 3770 
Q 2525 4250 2034 4250 
z
M 2034 4750 
Q 2819 4750 3233 4129 
Q 3647 3509 3647 2328 
Q 3647 1150 3233 529 
Q 2819 -91 2034 -91 
Q 1250 -91 836 529 
Q 422 1150 422 2328 
Q 422 3509 836 4129 
Q 1250 4750 2034 4750 
z
" transform="scale(0.015625)"/>
        <path id="DejaVuSans-2212" d="M 678 2272 
L 4684 2272 
L 4684 1741 
L 678 1741 
L 678 2272 
z
" transform="scale(0.015625)"/>
        <path id="DejaVuSans-34" d="M 2419 4116 
L 825 1625 
L 2419 1625 
L 2419 4116 
z
M 2253 4666 
L 3047 4666 
L 3047 1625 
L 3713 1625 
L 3713 1100 
L 3047 1100 
L 3047 0 
L 2419 0 
L 2419 1100 
L 313 1100 
L 313 1709 
L 2253 4666 
z
" transform="scale(0.015625)"/>
       </defs>
       <use xlink:href="#DejaVuSans-31" transform="translate(0 0.684375)"/>
       <use xlink:href="#DejaVuSans-30" transform="translate(63.623047 0.684375)"/>
       <use xlink:href="#DejaVuSans-2212" transform="translate(128.203125 38.965625) scale(0.7)"/>
       <use xlink:href="#DejaVuSans-34" transform="translate(186.855469 38.965625) scale(0.7)"/>
      </g>
     </g>
    </g>
    <g id="xtick_2">
     <g id="line2d_2">
      <g>
       <use xlink:href="#m38f3b05bbe" x="225.622333" y="316.44327" style="stroke: #000000; stroke-width: 0.8"/>
      </g>
     </g>
     <g id="text_2">
      <!-- $\mathdefault{10^{-3}}$ -->
      <g transform="translate(213.872333 331.041707) scale(0.1 -0.1)">
       <defs>
        <path id="DejaVuSans-33" d="M 2597 2516 
Q 3050 2419 3304 2112 
Q 3559 1806 3559 1356 
Q 3559 666 3084 287 
Q 2609 -91 1734 -91 
Q 1441 -91 1130 -33 
Q 819 25 488 141 
L 488 750 
Q 750 597 1062 519 
Q 1375 441 1716 441 
Q 2309 441 2620 675 
Q 2931 909 2931 1356 
Q 2931 1769 2642 2001 
Q 2353 2234 1838 2234 
L 1294 2234 
L 1294 2753 
L 1863 2753 
Q 2328 2753 2575 2939 
Q 2822 3125 2822 3475 
Q 2822 3834 2567 4026 
Q 2313 4219 1838 4219 
Q 1578 4219 1281 4162 
Q 984 4106 628 3988 
L 628 4550 
Q 988 4650 1302 4700 
Q 1616 4750 1894 4750 
Q 2613 4750 3031 4423 
Q 3450 4097 3450 3541 
Q 3450 3153 3228 2886 
Q 3006 2619 2597 2516 
z
" transform="scale(0.015625)"/>
       </defs>
       <use xlink:href="#DejaVuSans-31" transform="translate(0 0.765625)"/>
       <use xlink:href="#DejaVuSans-30" transform="translate(63.623047 0.765625)"/>
       <use xlink:href="#DejaVuSans-2212" transform="translate(128.203125 39.046875) scale(0.7)"/>
       <use xlink:href="#DejaVuSans-33" transform="translate(186.855469 39.046875) scale(0.7)"/>
      </g>
     </g>
    </g>
    <g id="xtick_3">
     <g id="line2d_3">
      <g>
       <use xlink:href="#m38f3b05bbe" x="371.0952" y="316.44327" style="stroke: #000000; stroke-width: 0.8"/>
      </g>
     </g>
     <g id="text_3">
      <!-- $\mathdefault{10^{-2}}$ -->
      <g transform="translate(359.3452 331.041707) scale(0.1 -0.1)">
       <defs>
        <path id="DejaVuSans-32" d="M 1228 531 
L 3431 531 
L 3431 0 
L 469 0 
L 469 531 
Q 828 903 1448 1529 
Q 2069 2156 2228 2338 
Q 2531 2678 2651 2914 
Q 2772 3150 2772 3378 
Q 2772 3750 2511 3984 
Q 2250 4219 1831 4219 
Q 1534 4219 1204 4116 
Q 875 4013 500 3803 
L 500 4441 
Q 881 4594 1212 4672 
Q 1544 4750 1819 4750 
Q 2544 4750 2975 4387 
Q 3406 4025 3406 3419 
Q 3406 3131 3298 2873 
Q 3191 2616 2906 2266 
Q 2828 2175 2409 1742 
Q 1991 1309 1228 531 
z
" transform="scale(0.015625)"/>
       </defs>
       <use xlink:href="#DejaVuSans-31" transform="translate(0 0.765625)"/>
       <use xlink:href="#DejaVuSans-30" transform="translate(63.623047 0.765625)"/>
       <use xlink:href="#DejaVuSans-2212" transform="translate(128.203125 39.046875) scale(0.7)"/>
       <use xlink:href="#DejaVuSans-32" transform="translate(186.855469 39.046875) scale(0.7)"/>
      </g>
     </g>
    </g>
    <g id="xtick_4">
     <g id="line2d_4">
      <defs>
       <path id="m360e1f0208" d="M 0 0 
L 0 2 
" style="stroke: #000000; stroke-width: 0.6"/>
      </defs>
      <g>
       <use xlink:href="#m360e1f0208" x="47.876493" y="316.44327" style="stroke: #000000; stroke-width: 0.6"/>
      </g>
     </g>
    </g>
    <g id="xtick_5">
     <g id="line2d_5">
      <g>
       <use xlink:href="#m360e1f0208" x="57.615434" y="316.44327" style="stroke: #000000; stroke-width: 0.6"/>
      </g>
     </g>
    </g>
    <g id="xtick_6">
     <g id="line2d_6">
      <g>
       <use xlink:href="#m360e1f0208" x="66.051689" y="316.44327" style="stroke: #000000; stroke-width: 0.6"/>
      </g>
     </g>
    </g>
    <g id="xtick_7">
     <g id="line2d_7">
      <g>
       <use xlink:href="#m360e1f0208" x="73.492993" y="316.44327" style="stroke: #000000; stroke-width: 0.6"/>
      </g>
     </g>
    </g>
    <g id="xtick_8">
     <g id="line2d_8">
      <g>
       <use xlink:href="#m360e1f0208" x="123.941163" y="316.44327" style="stroke: #000000; stroke-width: 0.6"/>
      </g>
     </g>
    </g>
    <g id="xtick_9">
     <g id="line2d_9">
      <g>
       <use xlink:href="#m360e1f0208" x="149.557663" y="316.44327" style="stroke: #000000; stroke-width: 0.6"/>
      </g>
     </g>
    </g>
    <g id="xtick_10">
     <g id="line2d_10">
      <g>
       <use xlink:href="#m360e1f0208" x="167.732859" y="316.44327" style="stroke: #000000; stroke-width: 0.6"/>
      </g>
     </g>
    </g>
    <g id="xtick_11">
     <g id="line2d_11">
      <g>
       <use xlink:href="#m360e1f0208" x="181.830637" y="316.44327" style="stroke: #000000; stroke-width: 0.6"/>
      </g>
     </g>
    </g>
    <g id="xtick_12">
     <g id="line2d_12">
      <g>
       <use xlink:href="#m360e1f0208" x="193.34936" y="316.44327" style="stroke: #000000; stroke-width: 0.6"/>
      </g>
     </g>
    </g>
    <g id="xtick_13">
     <g id="line2d_13">
      <g>
       <use xlink:href="#m360e1f0208" x="203.088301" y="316.44327" style="stroke: #000000; stroke-width: 0.6"/>
      </g>
     </g>
    </g>
    <g id="xtick_14">
     <g id="line2d_14">
      <g>
       <use xlink:href="#m360e1f0208" x="211.524556" y="316.44327" style="stroke: #000000; stroke-width: 0.6"/>
      </g>
     </g>
    </g>
    <g id="xtick_15">
     <g id="line2d_15">
      <g>
       <use xlink:href="#m360e1f0208" x="218.96586" y="316.44327" style="stroke: #000000; stroke-width: 0.6"/>
      </g>
     </g>
    </g>
    <g id="xtick_16">
     <g id="line2d_16">
      <g>
       <use xlink:href="#m360e1f0208" x="269.414029" y="316.44327" style="stroke: #000000; stroke-width: 0.6"/>
      </g>
     </g>
    </g>
    <g id="xtick_17">
     <g id="line2d_17">
      <g>
       <use xlink:href="#m360e1f0208" x="295.03053" y="316.44327" style="stroke: #000000; stroke-width: 0.6"/>
      </g>
     </g>
    </g>
    <g id="xtick_18">
     <g id="line2d_18">
      <g>
       <use xlink:href="#m360e1f0208" x="313.205726" y="316.44327" style="stroke: #000000; stroke-width: 0.6"/>
      </g>
     </g>
    </g>
    <g id="xtick_19">
     <g id="line2d_19">
      <g>
       <use xlink:href="#m360e1f0208" x="327.303503" y="316.44327" style="stroke: #000000; stroke-width: 0.6"/>
      </g>
     </g>
    </g>
    <g id="xtick_20">
     <g id="line2d_20">
      <g>
       <use xlink:href="#m360e1f0208" x="338.822226" y="316.44327" style="stroke: #000000; stroke-width: 0.6"/>
      </g>
     </g>
    </g>
    <g id="xtick_21">
     <g id="line2d_21">
      <g>
       <use xlink:href="#m360e1f0208" x="348.561167" y="316.44327" style="stroke: #000000; stroke-width: 0.6"/>
      </g>
     </g>
    </g>
    <g id="xtick_22">
     <g id="line2d_22">
      <g>
       <use xlink:href="#m360e1f0208" x="356.997422" y="316.44327" style="stroke: #000000; stroke-width: 0.6"/>
      </g>
     </g>
    </g>
    <g id="xtick_23">
     <g id="line2d_23">
      <g>
       <use xlink:href="#m360e1f0208" x="364.438726" y="316.44327" style="stroke: #000000; stroke-width: 0.6"/>
      </g>
     </g>
    </g>
    <g id="text_4">
     <!-- bandwidth -->
     <g transform="translate(181.075725 344.719832) scale(0.1 -0.1)">
      <defs>
       <path id="DejaVuSans-62" d="M 3116 1747 
Q 3116 2381 2855 2742 
Q 2594 3103 2138 3103 
Q 1681 3103 1420 2742 
Q 1159 2381 1159 1747 
Q 1159 1113 1420 752 
Q 1681 391 2138 391 
Q 2594 391 2855 752 
Q 3116 1113 3116 1747 
z
M 1159 2969 
Q 1341 3281 1617 3432 
Q 1894 3584 2278 3584 
Q 2916 3584 3314 3078 
Q 3713 2572 3713 1747 
Q 3713 922 3314 415 
Q 2916 -91 2278 -91 
Q 1894 -91 1617 61 
Q 1341 213 1159 525 
L 1159 0 
L 581 0 
L 581 4863 
L 1159 4863 
L 1159 2969 
z
" transform="scale(0.015625)"/>
       <path id="DejaVuSans-61" d="M 2194 1759 
Q 1497 1759 1228 1600 
Q 959 1441 959 1056 
Q 959 750 1161 570 
Q 1363 391 1709 391 
Q 2188 391 2477 730 
Q 2766 1069 2766 1631 
L 2766 1759 
L 2194 1759 
z
M 3341 1997 
L 3341 0 
L 2766 0 
L 2766 531 
Q 2569 213 2275 61 
Q 1981 -91 1556 -91 
Q 1019 -91 701 211 
Q 384 513 384 1019 
Q 384 1609 779 1909 
Q 1175 2209 1959 2209 
L 2766 2209 
L 2766 2266 
Q 2766 2663 2505 2880 
Q 2244 3097 1772 3097 
Q 1472 3097 1187 3025 
Q 903 2953 641 2809 
L 641 3341 
Q 956 3463 1253 3523 
Q 1550 3584 1831 3584 
Q 2591 3584 2966 3190 
Q 3341 2797 3341 1997 
z
" transform="scale(0.015625)"/>
       <path id="DejaVuSans-6e" d="M 3513 2113 
L 3513 0 
L 2938 0 
L 2938 2094 
Q 2938 2591 2744 2837 
Q 2550 3084 2163 3084 
Q 1697 3084 1428 2787 
Q 1159 2491 1159 1978 
L 1159 0 
L 581 0 
L 581 3500 
L 1159 3500 
L 1159 2956 
Q 1366 3272 1645 3428 
Q 1925 3584 2291 3584 
Q 2894 3584 3203 3211 
Q 3513 2838 3513 2113 
z
" transform="scale(0.015625)"/>
       <path id="DejaVuSans-64" d="M 2906 2969 
L 2906 4863 
L 3481 4863 
L 3481 0 
L 2906 0 
L 2906 525 
Q 2725 213 2448 61 
Q 2172 -91 1784 -91 
Q 1150 -91 751 415 
Q 353 922 353 1747 
Q 353 2572 751 3078 
Q 1150 3584 1784 3584 
Q 2172 3584 2448 3432 
Q 2725 3281 2906 2969 
z
M 947 1747 
Q 947 1113 1208 752 
Q 1469 391 1925 391 
Q 2381 391 2643 752 
Q 2906 1113 2906 1747 
Q 2906 2381 2643 2742 
Q 2381 3103 1925 3103 
Q 1469 3103 1208 2742 
Q 947 2381 947 1747 
z
" transform="scale(0.015625)"/>
       <path id="DejaVuSans-77" d="M 269 3500 
L 844 3500 
L 1563 769 
L 2278 3500 
L 2956 3500 
L 3675 769 
L 4391 3500 
L 4966 3500 
L 4050 0 
L 3372 0 
L 2619 2869 
L 1863 0 
L 1184 0 
L 269 3500 
z
" transform="scale(0.015625)"/>
       <path id="DejaVuSans-69" d="M 603 3500 
L 1178 3500 
L 1178 0 
L 603 0 
L 603 3500 
z
M 603 4863 
L 1178 4863 
L 1178 4134 
L 603 4134 
L 603 4863 
z
" transform="scale(0.015625)"/>
       <path id="DejaVuSans-74" d="M 1172 4494 
L 1172 3500 
L 2356 3500 
L 2356 3053 
L 1172 3053 
L 1172 1153 
Q 1172 725 1289 603 
Q 1406 481 1766 481 
L 2356 481 
L 2356 0 
L 1766 0 
Q 1100 0 847 248 
Q 594 497 594 1153 
L 594 3053 
L 172 3053 
L 172 3500 
L 594 3500 
L 594 4494 
L 1172 4494 
z
" transform="scale(0.015625)"/>
       <path id="DejaVuSans-68" d="M 3513 2113 
L 3513 0 
L 2938 0 
L 2938 2094 
Q 2938 2591 2744 2837 
Q 2550 3084 2163 3084 
Q 1697 3084 1428 2787 
Q 1159 2491 1159 1978 
L 1159 0 
L 581 0 
L 581 4863 
L 1159 4863 
L 1159 2956 
Q 1366 3272 1645 3428 
Q 1925 3584 2291 3584 
Q 2894 3584 3203 3211 
Q 3513 2838 3513 2113 
z
" transform="scale(0.015625)"/>
      </defs>
      <use xlink:href="#DejaVuSans-62"/>
      <use xlink:href="#DejaVuSans-61" transform="translate(63.476562 0)"/>
      <use xlink:href="#DejaVuSans-6e" transform="translate(124.755859 0)"/>
      <use xlink:href="#DejaVuSans-64" transform="translate(188.134766 0)"/>
      <use xlink:href="#DejaVuSans-77" transform="translate(251.611328 0)"/>
      <use xlink:href="#DejaVuSans-69" transform="translate(333.398438 0)"/>
      <use xlink:href="#DejaVuSans-64" transform="translate(361.181641 0)"/>
      <use xlink:href="#DejaVuSans-74" transform="translate(424.658203 0)"/>
      <use xlink:href="#DejaVuSans-68" transform="translate(463.867188 0)"/>
     </g>
    </g>
   </g>
   <g id="matplotlib.axis_2">
    <g id="ytick_1">
     <g id="line2d_24">
      <defs>
       <path id="mbd2f377c6c" d="M 0 0 
L -3.5 0 
" style="stroke: #000000; stroke-width: 0.8"/>
      </defs>
      <g>
       <use xlink:href="#mbd2f377c6c" x="43.78125" y="316.44327" style="stroke: #000000; stroke-width: 0.8"/>
      </g>
     </g>
     <g id="text_5">
      <!-- 1.0 -->
      <g transform="translate(20.878125 320.242489) scale(0.1 -0.1)">
       <defs>
        <path id="DejaVuSans-2e" d="M 684 794 
L 1344 794 
L 1344 0 
L 684 0 
L 684 794 
z
" transform="scale(0.015625)"/>
       </defs>
       <use xlink:href="#DejaVuSans-31"/>
       <use xlink:href="#DejaVuSans-2e" transform="translate(63.623047 0)"/>
       <use xlink:href="#DejaVuSans-30" transform="translate(95.410156 0)"/>
      </g>
     </g>
    </g>
    <g id="ytick_2">
     <g id="line2d_25">
      <g>
       <use xlink:href="#mbd2f377c6c" x="43.78125" y="265.535928" style="stroke: #000000; stroke-width: 0.8"/>
      </g>
     </g>
     <g id="text_6">
      <!-- 1.5 -->
      <g transform="translate(20.878125 269.335147) scale(0.1 -0.1)">
       <defs>
        <path id="DejaVuSans-35" d="M 691 4666 
L 3169 4666 
L 3169 4134 
L 1269 4134 
L 1269 2991 
Q 1406 3038 1543 3061 
Q 1681 3084 1819 3084 
Q 2600 3084 3056 2656 
Q 3513 2228 3513 1497 
Q 3513 744 3044 326 
Q 2575 -91 1722 -91 
Q 1428 -91 1123 -41 
Q 819 9 494 109 
L 494 744 
Q 775 591 1075 516 
Q 1375 441 1709 441 
Q 2250 441 2565 725 
Q 2881 1009 2881 1497 
Q 2881 1984 2565 2268 
Q 2250 2553 1709 2553 
Q 1456 2553 1204 2497 
Q 953 2441 691 2322 
L 691 4666 
z
" transform="scale(0.015625)"/>
       </defs>
       <use xlink:href="#DejaVuSans-31"/>
       <use xlink:href="#DejaVuSans-2e" transform="translate(63.623047 0)"/>
       <use xlink:href="#DejaVuSans-35" transform="translate(95.410156 0)"/>
      </g>
     </g>
    </g>
    <g id="ytick_3">
     <g id="line2d_26">
      <g>
       <use xlink:href="#mbd2f377c6c" x="43.78125" y="214.628586" style="stroke: #000000; stroke-width: 0.8"/>
      </g>
     </g>
     <g id="text_7">
      <!-- 2.0 -->
      <g transform="translate(20.878125 218.427805) scale(0.1 -0.1)">
       <use xlink:href="#DejaVuSans-32"/>
       <use xlink:href="#DejaVuSans-2e" transform="translate(63.623047 0)"/>
       <use xlink:href="#DejaVuSans-30" transform="translate(95.410156 0)"/>
      </g>
     </g>
    </g>
    <g id="ytick_4">
     <g id="line2d_27">
      <g>
       <use xlink:href="#mbd2f377c6c" x="43.78125" y="163.721244" style="stroke: #000000; stroke-width: 0.8"/>
      </g>
     </g>
     <g id="text_8">
      <!-- 2.5 -->
      <g transform="translate(20.878125 167.520463) scale(0.1 -0.1)">
       <use xlink:href="#DejaVuSans-32"/>
       <use xlink:href="#DejaVuSans-2e" transform="translate(63.623047 0)"/>
       <use xlink:href="#DejaVuSans-35" transform="translate(95.410156 0)"/>
      </g>
     </g>
    </g>
    <g id="ytick_5">
     <g id="line2d_28">
      <g>
       <use xlink:href="#mbd2f377c6c" x="43.78125" y="112.813902" style="stroke: #000000; stroke-width: 0.8"/>
      </g>
     </g>
     <g id="text_9">
      <!-- 3.0 -->
      <g transform="translate(20.878125 116.613121) scale(0.1 -0.1)">
       <use xlink:href="#DejaVuSans-33"/>
       <use xlink:href="#DejaVuSans-2e" transform="translate(63.623047 0)"/>
       <use xlink:href="#DejaVuSans-30" transform="translate(95.410156 0)"/>
      </g>
     </g>
    </g>
    <g id="ytick_6">
     <g id="line2d_29">
      <g>
       <use xlink:href="#mbd2f377c6c" x="43.78125" y="61.906561" style="stroke: #000000; stroke-width: 0.8"/>
      </g>
     </g>
     <g id="text_10">
      <!-- 3.5 -->
      <g transform="translate(20.878125 65.705779) scale(0.1 -0.1)">
       <use xlink:href="#DejaVuSans-33"/>
       <use xlink:href="#DejaVuSans-2e" transform="translate(63.623047 0)"/>
       <use xlink:href="#DejaVuSans-35" transform="translate(95.410156 0)"/>
      </g>
     </g>
    </g>
    <g id="ytick_7">
     <g id="line2d_30">
      <g>
       <use xlink:href="#mbd2f377c6c" x="43.78125" y="10.999219" style="stroke: #000000; stroke-width: 0.8"/>
      </g>
     </g>
     <g id="text_11">
      <!-- 4.0 -->
      <g transform="translate(20.878125 14.798438) scale(0.1 -0.1)">
       <use xlink:href="#DejaVuSans-34"/>
       <use xlink:href="#DejaVuSans-2e" transform="translate(63.623047 0)"/>
       <use xlink:href="#DejaVuSans-30" transform="translate(95.410156 0)"/>
      </g>
     </g>
    </g>
    <g id="text_12">
     <!-- alpha -->
     <g transform="translate(14.798438 177.581401) rotate(-90) scale(0.1 -0.1)">
      <defs>
       <path id="DejaVuSans-6c" d="M 603 4863 
L 1178 4863 
L 1178 0 
L 603 0 
L 603 4863 
z
" transform="scale(0.015625)"/>
       <path id="DejaVuSans-70" d="M 1159 525 
L 1159 -1331 
L 581 -1331 
L 581 3500 
L 1159 3500 
L 1159 2969 
Q 1341 3281 1617 3432 
Q 1894 3584 2278 3584 
Q 2916 3584 3314 3078 
Q 3713 2572 3713 1747 
Q 3713 922 3314 415 
Q 2916 -91 2278 -91 
Q 1894 -91 1617 61 
Q 1341 213 1159 525 
z
M 3116 1747 
Q 3116 2381 2855 2742 
Q 2594 3103 2138 3103 
Q 1681 3103 1420 2742 
Q 1159 2381 1159 1747 
Q 1159 1113 1420 752 
Q 1681 391 2138 391 
Q 2594 391 2855 752 
Q 3116 1113 3116 1747 
z
" transform="scale(0.015625)"/>
      </defs>
      <use xlink:href="#DejaVuSans-61"/>
      <use xlink:href="#DejaVuSans-6c" transform="translate(61.279297 0)"/>
      <use xlink:href="#DejaVuSans-70" transform="translate(89.0625 0)"/>
      <use xlink:href="#DejaVuSans-68" transform="translate(152.539062 0)"/>
      <use xlink:href="#DejaVuSans-61" transform="translate(215.917969 0)"/>
     </g>
    </g>
   </g>
   <g id="patch_3">
    <path d="M 43.78125 316.44327 
L 43.78125 10.999219 
" style="fill: none; stroke: #000000; stroke-width: 0.8; stroke-linejoin: miter; stroke-linecap: square"/>
   </g>
   <g id="patch_4">
    <path d="M 371.0952 316.44327 
L 371.0952 10.999219 
" style="fill: none; stroke: #000000; stroke-width: 0.8; stroke-linejoin: miter; stroke-linecap: square"/>
   </g>
   <g id="patch_5">
    <path d="M 43.78125 316.44327 
L 371.0952 316.44327 
" style="fill: none; stroke: #000000; stroke-width: 0.8; stroke-linejoin: miter; stroke-linecap: square"/>
   </g>
   <g id="patch_6">
    <path d="M 43.78125 10.999219 
L 371.0952 10.999219 
" style="fill: none; stroke: #000000; stroke-width: 0.8; stroke-linejoin: miter; stroke-linecap: square"/>
   </g>
  </g>
  <g id="axes_2">
   <g id="patch_7">
    <path d="M 399.210897 316.44327 
L 414.4831 316.44327 
L 414.4831 10.999219 
L 399.210897 10.999219 
z
" style="fill: #ffffff"/>
   </g>
   <g id="QuadMesh_1">
    <path d="M 399.210897 316.44327 
L 414.4831 316.44327 
L 414.4831 296.080333 
L 399.210897 296.080333 
L 399.210897 316.44327 
" clip-path="url(#p3fa112e31b)" style="fill: #470d60"/>
    <path d="M 399.210897 296.080333 
L 414.4831 296.080333 
L 414.4831 275.717396 
L 399.210897 275.717396 
L 399.210897 296.080333 
" clip-path="url(#p3fa112e31b)" style="fill: #482475"/>
    <path d="M 399.210897 275.717396 
L 414.4831 275.717396 
L 414.4831 255.35446 
L 399.210897 255.35446 
L 399.210897 275.717396 
" clip-path="url(#p3fa112e31b)" style="fill: #443983"/>
    <path d="M 399.210897 255.35446 
L 414.4831 255.35446 
L 414.4831 234.991523 
L 399.210897 234.991523 
L 399.210897 255.35446 
" clip-path="url(#p3fa112e31b)" style="fill: #3d4d8a"/>
    <path d="M 399.210897 234.991523 
L 414.4831 234.991523 
L 414.4831 214.628586 
L 399.210897 214.628586 
L 399.210897 234.991523 
" clip-path="url(#p3fa112e31b)" style="fill: #355f8d"/>
    <path d="M 399.210897 214.628586 
L 414.4831 214.628586 
L 414.4831 194.265649 
L 399.210897 194.265649 
L 399.210897 214.628586 
" clip-path="url(#p3fa112e31b)" style="fill: #2d708e"/>
    <path d="M 399.210897 194.265649 
L 414.4831 194.265649 
L 414.4831 173.902713 
L 399.210897 173.902713 
L 399.210897 194.265649 
" clip-path="url(#p3fa112e31b)" style="fill: #27808e"/>
    <path d="M 399.210897 173.902713 
L 414.4831 173.902713 
L 414.4831 153.539776 
L 399.210897 153.539776 
L 399.210897 173.902713 
" clip-path="url(#p3fa112e31b)" style="fill: #21918c"/>
    <path d="M 399.210897 153.539776 
L 414.4831 153.539776 
L 414.4831 133.176839 
L 399.210897 133.176839 
L 399.210897 153.539776 
" clip-path="url(#p3fa112e31b)" style="fill: #1fa188"/>
    <path d="M 399.210897 133.176839 
L 414.4831 133.176839 
L 414.4831 112.813902 
L 399.210897 112.813902 
L 399.210897 133.176839 
" clip-path="url(#p3fa112e31b)" style="fill: #2ab07f"/>
    <path d="M 399.210897 112.813902 
L 414.4831 112.813902 
L 414.4831 92.450966 
L 399.210897 92.450966 
L 399.210897 112.813902 
" clip-path="url(#p3fa112e31b)" style="fill: #44bf70"/>
    <path d="M 399.210897 92.450966 
L 414.4831 92.450966 
L 414.4831 72.088029 
L 399.210897 72.088029 
L 399.210897 92.450966 
" clip-path="url(#p3fa112e31b)" style="fill: #67cc5c"/>
    <path d="M 399.210897 72.088029 
L 414.4831 72.088029 
L 414.4831 51.725092 
L 399.210897 51.725092 
L 399.210897 72.088029 
" clip-path="url(#p3fa112e31b)" style="fill: #90d743"/>
    <path d="M 399.210897 51.725092 
L 414.4831 51.725092 
L 414.4831 31.362156 
L 399.210897 31.362156 
L 399.210897 51.725092 
" clip-path="url(#p3fa112e31b)" style="fill: #bddf26"/>
    <path d="M 399.210897 31.362156 
L 414.4831 31.362156 
L 414.4831 10.999219 
L 399.210897 10.999219 
L 399.210897 31.362156 
" clip-path="url(#p3fa112e31b)" style="fill: #eae51a"/>
   </g>
   <g id="matplotlib.axis_3"/>
   <g id="matplotlib.axis_4">
    <g id="ytick_8">
     <g id="line2d_31">
      <defs>
       <path id="m0a27ea52cb" d="M 0 0 
L 3.5 0 
" style="stroke: #000000; stroke-width: 0.8"/>
      </defs>
      <g>
       <use xlink:href="#m0a27ea52cb" x="414.4831" y="296.080333" style="stroke: #000000; stroke-width: 0.8"/>
      </g>
     </g>
     <g id="text_13">
      <!-- -0.84 -->
      <g transform="translate(421.4831 299.879552) scale(0.1 -0.1)">
       <defs>
        <path id="DejaVuSans-2d" d="M 313 2009 
L 1997 2009 
L 1997 1497 
L 313 1497 
L 313 2009 
z
" transform="scale(0.015625)"/>
        <path id="DejaVuSans-38" d="M 2034 2216 
Q 1584 2216 1326 1975 
Q 1069 1734 1069 1313 
Q 1069 891 1326 650 
Q 1584 409 2034 409 
Q 2484 409 2743 651 
Q 3003 894 3003 1313 
Q 3003 1734 2745 1975 
Q 2488 2216 2034 2216 
z
M 1403 2484 
Q 997 2584 770 2862 
Q 544 3141 544 3541 
Q 544 4100 942 4425 
Q 1341 4750 2034 4750 
Q 2731 4750 3128 4425 
Q 3525 4100 3525 3541 
Q 3525 3141 3298 2862 
Q 3072 2584 2669 2484 
Q 3125 2378 3379 2068 
Q 3634 1759 3634 1313 
Q 3634 634 3220 271 
Q 2806 -91 2034 -91 
Q 1263 -91 848 271 
Q 434 634 434 1313 
Q 434 1759 690 2068 
Q 947 2378 1403 2484 
z
M 1172 3481 
Q 1172 3119 1398 2916 
Q 1625 2713 2034 2713 
Q 2441 2713 2670 2916 
Q 2900 3119 2900 3481 
Q 2900 3844 2670 4047 
Q 2441 4250 2034 4250 
Q 1625 4250 1398 4047 
Q 1172 3844 1172 3481 
z
" transform="scale(0.015625)"/>
       </defs>
       <use xlink:href="#DejaVuSans-2d"/>
       <use xlink:href="#DejaVuSans-30" transform="translate(36.083984 0)"/>
       <use xlink:href="#DejaVuSans-2e" transform="translate(99.707031 0)"/>
       <use xlink:href="#DejaVuSans-38" transform="translate(131.494141 0)"/>
       <use xlink:href="#DejaVuSans-34" transform="translate(195.117188 0)"/>
      </g>
     </g>
    </g>
    <g id="ytick_9">
     <g id="line2d_32">
      <g>
       <use xlink:href="#m0a27ea52cb" x="414.4831" y="255.35446" style="stroke: #000000; stroke-width: 0.8"/>
      </g>
     </g>
     <g id="text_14">
      <!-- -0.72 -->
      <g transform="translate(421.4831 259.153678) scale(0.1 -0.1)">
       <defs>
        <path id="DejaVuSans-37" d="M 525 4666 
L 3525 4666 
L 3525 4397 
L 1831 0 
L 1172 0 
L 2766 4134 
L 525 4134 
L 525 4666 
z
" transform="scale(0.015625)"/>
       </defs>
       <use xlink:href="#DejaVuSans-2d"/>
       <use xlink:href="#DejaVuSans-30" transform="translate(36.083984 0)"/>
       <use xlink:href="#DejaVuSans-2e" transform="translate(99.707031 0)"/>
       <use xlink:href="#DejaVuSans-37" transform="translate(131.494141 0)"/>
       <use xlink:href="#DejaVuSans-32" transform="translate(195.117188 0)"/>
      </g>
     </g>
    </g>
    <g id="ytick_10">
     <g id="line2d_33">
      <g>
       <use xlink:href="#m0a27ea52cb" x="414.4831" y="214.628586" style="stroke: #000000; stroke-width: 0.8"/>
      </g>
     </g>
     <g id="text_15">
      <!-- -0.60 -->
      <g transform="translate(421.4831 218.427805) scale(0.1 -0.1)">
       <defs>
        <path id="DejaVuSans-36" d="M 2113 2584 
Q 1688 2584 1439 2293 
Q 1191 2003 1191 1497 
Q 1191 994 1439 701 
Q 1688 409 2113 409 
Q 2538 409 2786 701 
Q 3034 994 3034 1497 
Q 3034 2003 2786 2293 
Q 2538 2584 2113 2584 
z
M 3366 4563 
L 3366 3988 
Q 3128 4100 2886 4159 
Q 2644 4219 2406 4219 
Q 1781 4219 1451 3797 
Q 1122 3375 1075 2522 
Q 1259 2794 1537 2939 
Q 1816 3084 2150 3084 
Q 2853 3084 3261 2657 
Q 3669 2231 3669 1497 
Q 3669 778 3244 343 
Q 2819 -91 2113 -91 
Q 1303 -91 875 529 
Q 447 1150 447 2328 
Q 447 3434 972 4092 
Q 1497 4750 2381 4750 
Q 2619 4750 2861 4703 
Q 3103 4656 3366 4563 
z
" transform="scale(0.015625)"/>
       </defs>
       <use xlink:href="#DejaVuSans-2d"/>
       <use xlink:href="#DejaVuSans-30" transform="translate(36.083984 0)"/>
       <use xlink:href="#DejaVuSans-2e" transform="translate(99.707031 0)"/>
       <use xlink:href="#DejaVuSans-36" transform="translate(131.494141 0)"/>
       <use xlink:href="#DejaVuSans-30" transform="translate(195.117188 0)"/>
      </g>
     </g>
    </g>
    <g id="ytick_11">
     <g id="line2d_34">
      <g>
       <use xlink:href="#m0a27ea52cb" x="414.4831" y="173.902713" style="stroke: #000000; stroke-width: 0.8"/>
      </g>
     </g>
     <g id="text_16">
      <!-- -0.48 -->
      <g transform="translate(421.4831 177.701931) scale(0.1 -0.1)">
       <use xlink:href="#DejaVuSans-2d"/>
       <use xlink:href="#DejaVuSans-30" transform="translate(36.083984 0)"/>
       <use xlink:href="#DejaVuSans-2e" transform="translate(99.707031 0)"/>
       <use xlink:href="#DejaVuSans-34" transform="translate(131.494141 0)"/>
       <use xlink:href="#DejaVuSans-38" transform="translate(195.117188 0)"/>
      </g>
     </g>
    </g>
    <g id="ytick_12">
     <g id="line2d_35">
      <g>
       <use xlink:href="#m0a27ea52cb" x="414.4831" y="133.176839" style="stroke: #000000; stroke-width: 0.8"/>
      </g>
     </g>
     <g id="text_17">
      <!-- -0.36 -->
      <g transform="translate(421.4831 136.976058) scale(0.1 -0.1)">
       <use xlink:href="#DejaVuSans-2d"/>
       <use xlink:href="#DejaVuSans-30" transform="translate(36.083984 0)"/>
       <use xlink:href="#DejaVuSans-2e" transform="translate(99.707031 0)"/>
       <use xlink:href="#DejaVuSans-33" transform="translate(131.494141 0)"/>
       <use xlink:href="#DejaVuSans-36" transform="translate(195.117188 0)"/>
      </g>
     </g>
    </g>
    <g id="ytick_13">
     <g id="line2d_36">
      <g>
       <use xlink:href="#m0a27ea52cb" x="414.4831" y="92.450966" style="stroke: #000000; stroke-width: 0.8"/>
      </g>
     </g>
     <g id="text_18">
      <!-- -0.24 -->
      <g transform="translate(421.4831 96.250184) scale(0.1 -0.1)">
       <use xlink:href="#DejaVuSans-2d"/>
       <use xlink:href="#DejaVuSans-30" transform="translate(36.083984 0)"/>
       <use xlink:href="#DejaVuSans-2e" transform="translate(99.707031 0)"/>
       <use xlink:href="#DejaVuSans-32" transform="translate(131.494141 0)"/>
       <use xlink:href="#DejaVuSans-34" transform="translate(195.117188 0)"/>
      </g>
     </g>
    </g>
    <g id="ytick_14">
     <g id="line2d_37">
      <g>
       <use xlink:href="#m0a27ea52cb" x="414.4831" y="51.725092" style="stroke: #000000; stroke-width: 0.8"/>
      </g>
     </g>
     <g id="text_19">
      <!-- -0.12 -->
      <g transform="translate(421.4831 55.524311) scale(0.1 -0.1)">
       <use xlink:href="#DejaVuSans-2d"/>
       <use xlink:href="#DejaVuSans-30" transform="translate(36.083984 0)"/>
       <use xlink:href="#DejaVuSans-2e" transform="translate(99.707031 0)"/>
       <use xlink:href="#DejaVuSans-31" transform="translate(131.494141 0)"/>
       <use xlink:href="#DejaVuSans-32" transform="translate(195.117188 0)"/>
      </g>
     </g>
    </g>
    <g id="ytick_15">
     <g id="line2d_38">
      <g>
       <use xlink:href="#m0a27ea52cb" x="414.4831" y="10.999219" style="stroke: #000000; stroke-width: 0.8"/>
      </g>
     </g>
     <g id="text_20">
      <!-- 0.00 -->
      <g transform="translate(421.4831 14.798438) scale(0.1 -0.1)">
       <use xlink:href="#DejaVuSans-30"/>
       <use xlink:href="#DejaVuSans-2e" transform="translate(63.623047 0)"/>
       <use xlink:href="#DejaVuSans-30" transform="translate(95.410156 0)"/>
       <use xlink:href="#DejaVuSans-30" transform="translate(159.033203 0)"/>
      </g>
     </g>
    </g>
    <g id="text_21">
     <!-- Score -->
     <g transform="translate(458.954975 177.723588) rotate(-90) scale(0.1 -0.1)">
      <defs>
       <path id="DejaVuSans-53" d="M 3425 4513 
L 3425 3897 
Q 3066 4069 2747 4153 
Q 2428 4238 2131 4238 
Q 1616 4238 1336 4038 
Q 1056 3838 1056 3469 
Q 1056 3159 1242 3001 
Q 1428 2844 1947 2747 
L 2328 2669 
Q 3034 2534 3370 2195 
Q 3706 1856 3706 1288 
Q 3706 609 3251 259 
Q 2797 -91 1919 -91 
Q 1588 -91 1214 -16 
Q 841 59 441 206 
L 441 856 
Q 825 641 1194 531 
Q 1563 422 1919 422 
Q 2459 422 2753 634 
Q 3047 847 3047 1241 
Q 3047 1584 2836 1778 
Q 2625 1972 2144 2069 
L 1759 2144 
Q 1053 2284 737 2584 
Q 422 2884 422 3419 
Q 422 4038 858 4394 
Q 1294 4750 2059 4750 
Q 2388 4750 2728 4690 
Q 3069 4631 3425 4513 
z
" transform="scale(0.015625)"/>
       <path id="DejaVuSans-63" d="M 3122 3366 
L 3122 2828 
Q 2878 2963 2633 3030 
Q 2388 3097 2138 3097 
Q 1578 3097 1268 2742 
Q 959 2388 959 1747 
Q 959 1106 1268 751 
Q 1578 397 2138 397 
Q 2388 397 2633 464 
Q 2878 531 3122 666 
L 3122 134 
Q 2881 22 2623 -34 
Q 2366 -91 2075 -91 
Q 1284 -91 818 406 
Q 353 903 353 1747 
Q 353 2603 823 3093 
Q 1294 3584 2113 3584 
Q 2378 3584 2631 3529 
Q 2884 3475 3122 3366 
z
" transform="scale(0.015625)"/>
       <path id="DejaVuSans-6f" d="M 1959 3097 
Q 1497 3097 1228 2736 
Q 959 2375 959 1747 
Q 959 1119 1226 758 
Q 1494 397 1959 397 
Q 2419 397 2687 759 
Q 2956 1122 2956 1747 
Q 2956 2369 2687 2733 
Q 2419 3097 1959 3097 
z
M 1959 3584 
Q 2709 3584 3137 3096 
Q 3566 2609 3566 1747 
Q 3566 888 3137 398 
Q 2709 -91 1959 -91 
Q 1206 -91 779 398 
Q 353 888 353 1747 
Q 353 2609 779 3096 
Q 1206 3584 1959 3584 
z
" transform="scale(0.015625)"/>
       <path id="DejaVuSans-72" d="M 2631 2963 
Q 2534 3019 2420 3045 
Q 2306 3072 2169 3072 
Q 1681 3072 1420 2755 
Q 1159 2438 1159 1844 
L 1159 0 
L 581 0 
L 581 3500 
L 1159 3500 
L 1159 2956 
Q 1341 3275 1631 3429 
Q 1922 3584 2338 3584 
Q 2397 3584 2469 3576 
Q 2541 3569 2628 3553 
L 2631 2963 
z
" transform="scale(0.015625)"/>
       <path id="DejaVuSans-65" d="M 3597 1894 
L 3597 1613 
L 953 1613 
Q 991 1019 1311 708 
Q 1631 397 2203 397 
Q 2534 397 2845 478 
Q 3156 559 3463 722 
L 3463 178 
Q 3153 47 2828 -22 
Q 2503 -91 2169 -91 
Q 1331 -91 842 396 
Q 353 884 353 1716 
Q 353 2575 817 3079 
Q 1281 3584 2069 3584 
Q 2775 3584 3186 3129 
Q 3597 2675 3597 1894 
z
M 3022 2063 
Q 3016 2534 2758 2815 
Q 2500 3097 2075 3097 
Q 1594 3097 1305 2825 
Q 1016 2553 972 2059 
L 3022 2063 
z
" transform="scale(0.015625)"/>
      </defs>
      <use xlink:href="#DejaVuSans-53"/>
      <use xlink:href="#DejaVuSans-63" transform="translate(63.476562 0)"/>
      <use xlink:href="#DejaVuSans-6f" transform="translate(118.457031 0)"/>
      <use xlink:href="#DejaVuSans-72" transform="translate(179.638672 0)"/>
      <use xlink:href="#DejaVuSans-65" transform="translate(218.501953 0)"/>
     </g>
    </g>
   </g>
   <g id="LineCollection_1"/>
   <g id="patch_8">
    <path d="M 399.210897 316.44327 
L 406.846998 316.44327 
L 414.4831 316.44327 
L 414.4831 10.999219 
L 406.846998 10.999219 
L 399.210897 10.999219 
L 399.210897 316.44327 
z
" style="fill: none; stroke: #000000; stroke-width: 0.8; stroke-linejoin: miter; stroke-linecap: square"/>
   </g>
  </g>
 </g>
 <defs>
  <clipPath id="pa24054e3cf">
   <rect x="43.78125" y="10.999219" width="327.31395" height="305.444051"/>
  </clipPath>
  <clipPath id="p3fa112e31b">
   <rect x="399.210897" y="10.999219" width="15.272203" height="305.444051"/>
  </clipPath>
 </defs>
</svg>
