<?xml version="1.0" encoding="utf-8" standalone="no"?>
<!DOCTYPE svg PUBLIC "-//W3C//DTD SVG 1.1//EN"
  "http://www.w3.org/Graphics/SVG/1.1/DTD/svg11.dtd">
<svg xmlns:xlink="http://www.w3.org/1999/xlink" width="576pt" height="576pt" viewBox="0 0 576 576" xmlns="http://www.w3.org/2000/svg" version="1.1">
 <metadata>
  <rdf:RDF xmlns:dc="http://purl.org/dc/elements/1.1/" xmlns:cc="http://creativecommons.org/ns#" xmlns:rdf="http://www.w3.org/1999/02/22-rdf-syntax-ns#">
   <cc:Work>
    <dc:type rdf:resource="http://purl.org/dc/dcmitype/StillImage"/>
    <dc:date>2025-11-30T16:02:45.999112</dc:date>
    <dc:format>image/svg+xml</dc:format>
    <dc:creator>
     <cc:Agent>
      <dc:title>Matplotlib v3.10.7, https://matplotlib.org/</dc:title>
     </cc:Agent>
    </dc:creator>
   </cc:Work>
  </rdf:RDF>
 </metadata>
 <defs>
  <style type="text/css">*{stroke-linejoin: round; stroke-linecap: butt}</style>
 </defs>
 <g id="figure_1">
  <g id="patch_1">
   <path d="M 0 576 
L 576 576 
L 576 0 
L 0 0 
z
" style="fill: #ffffff"/>
  </g>
  <g id="axes_1">
   <g id="patch_2">
    <path d="M 54.02 560.848571 
L 565.2 560.848571 
L 565.2 26.88 
L 54.02 26.88 
z
" style="fill: #ffffff"/>
   </g>
   <g id="patch_3">
    <path d="M 309.61 1276.680041 
L 309.61 1276.680041 
L 309.61 1276.680041 
L 309.61 1276.680041 
z
" clip-path="url(#pa5207d7525)" style="fill: #96cac1; stroke: #626262; stroke-linejoin: miter"/>
   </g>
   <g id="patch_4">
    <path d="M 309.61 1276.680041 
L 309.61 1276.680041 
L 309.61 1276.680041 
L 309.61 1276.680041 
z
" clip-path="url(#pa5207d7525)" style="fill: #8aafc9; stroke: #626262; stroke-linejoin: miter"/>
   </g>
   <g id="patch_5">
    <path d="M 309.61 1276.680041 
L 309.61 1276.680041 
L 309.61 1276.680041 
L 309.61 1276.680041 
z
" clip-path="url(#pa5207d7525)" style="fill: #f6f6bc; stroke: #626262; stroke-linejoin: miter"/>
   </g>
   <g id="patch_6">
    <path d="M 309.61 1276.680041 
L 309.61 1276.680041 
L 309.61 1276.680041 
L 309.61 1276.680041 
z
" clip-path="url(#pa5207d7525)" style="fill: #ea8e83; stroke: #626262; stroke-linejoin: miter"/>
   </g>
   <g id="matplotlib.axis_1">
    <g id="xtick_1">
     <g id="line2d_1">
      <defs>
       <path id="m24c93be9b4" d="M 0 0 
L 0 3.5 
" style="stroke: #000000; stroke-width: 0.8"/>
      </defs>
      <g>
       <use xlink:href="#m24c93be9b4" x="309.61" y="560.848571" style="stroke: #000000; stroke-width: 0.8"/>
      </g>
     </g>
    </g>
   </g>
   <g id="matplotlib.axis_2">
    <g id="ytick_1">
     <g id="line2d_2">
      <defs>
       <path id="m4a6bedde41" d="M 0 0 
L -3.5 0 
" style="stroke: #000000; stroke-width: 0.8"/>
      </defs>
      <g>
       <use xlink:href="#m4a6bedde41" x="54.02" y="558.719329" style="stroke: #000000; stroke-width: 0.8"/>
      </g>
     </g>
     <g id="text_1">
      <!-- 0.60 -->
      <g transform="translate(24.754375 562.518548) scale(0.1 -0.1)">
       <defs>
        <path id="DejaVuSans-30" d="M 2034 4250 
Q 1547 4250 1301 3770 
Q 1056 3291 1056 2328 
Q 1056 1369 1301 889 
Q 1547 409 2034 409 
Q 2525 409 2770 889 
Q 3016 1369 3016 2328 
Q 3016 3291 2770 3770 
Q 2525 4250 2034 4250 
z
M 2034 4750 
Q 2819 4750 3233 4129 
Q 3647 3509 3647 2328 
Q 3647 1150 3233 529 
Q 2819 -91 2034 -91 
Q 1250 -91 836 529 
Q 422 1150 422 2328 
Q 422 3509 836 4129 
Q 1250 4750 2034 4750 
z
" transform="scale(0.015625)"/>
        <path id="DejaVuSans-2e" d="M 684 794 
L 1344 794 
L 1344 0 
L 684 0 
L 684 794 
z
" transform="scale(0.015625)"/>
        <path id="DejaVuSans-36" d="M 2113 2584 
Q 1688 2584 1439 2293 
Q 1191 2003 1191 1497 
Q 1191 994 1439 701 
Q 1688 409 2113 409 
Q 2538 409 2786 701 
Q 3034 994 3034 1497 
Q 3034 2003 2786 2293 
Q 2538 2584 2113 2584 
z
M 3366 4563 
L 3366 3988 
Q 3128 4100 2886 4159 
Q 2644 4219 2406 4219 
Q 1781 4219 1451 3797 
Q 1122 3375 1075 2522 
Q 1259 2794 1537 2939 
Q 1816 3084 2150 3084 
Q 2853 3084 3261 2657 
Q 3669 2231 3669 1497 
Q 3669 778 3244 343 
Q 2819 -91 2113 -91 
Q 1303 -91 875 529 
Q 447 1150 447 2328 
Q 447 3434 972 4092 
Q 1497 4750 2381 4750 
Q 2619 4750 2861 4703 
Q 3103 4656 3366 4563 
z
" transform="scale(0.015625)"/>
       </defs>
       <use xlink:href="#DejaVuSans-30"/>
       <use xlink:href="#DejaVuSans-2e" transform="translate(63.623047 0)"/>
       <use xlink:href="#DejaVuSans-36" transform="translate(95.410156 0)"/>
       <use xlink:href="#DejaVuSans-30" transform="translate(159.033203 0)"/>
      </g>
     </g>
    </g>
    <g id="ytick_2">
     <g id="line2d_3">
      <g>
       <use xlink:href="#m4a6bedde41" x="54.02" y="498.88927" style="stroke: #000000; stroke-width: 0.8"/>
      </g>
     </g>
     <g id="text_2">
      <!-- 0.65 -->
      <g transform="translate(24.754375 502.688489) scale(0.1 -0.1)">
       <defs>
        <path id="DejaVuSans-35" d="M 691 4666 
L 3169 4666 
L 3169 4134 
L 1269 4134 
L 1269 2991 
Q 1406 3038 1543 3061 
Q 1681 3084 1819 3084 
Q 2600 3084 3056 2656 
Q 3513 2228 3513 1497 
Q 3513 744 3044 326 
Q 2575 -91 1722 -91 
Q 1428 -91 1123 -41 
Q 819 9 494 109 
L 494 744 
Q 775 591 1075 516 
Q 1375 441 1709 441 
Q 2250 441 2565 725 
Q 2881 1009 2881 1497 
Q 2881 1984 2565 2268 
Q 2250 2553 1709 2553 
Q 1456 2553 1204 2497 
Q 953 2441 691 2322 
L 691 4666 
z
" transform="scale(0.015625)"/>
       </defs>
       <use xlink:href="#DejaVuSans-30"/>
       <use xlink:href="#DejaVuSans-2e" transform="translate(63.623047 0)"/>
       <use xlink:href="#DejaVuSans-36" transform="translate(95.410156 0)"/>
       <use xlink:href="#DejaVuSans-35" transform="translate(159.033203 0)"/>
      </g>
     </g>
    </g>
    <g id="ytick_3">
     <g id="line2d_4">
      <g>
       <use xlink:href="#m4a6bedde41" x="54.02" y="439.059211" style="stroke: #000000; stroke-width: 0.8"/>
      </g>
     </g>
     <g id="text_3">
      <!-- 0.70 -->
      <g transform="translate(24.754375 442.858429) scale(0.1 -0.1)">
       <defs>
        <path id="DejaVuSans-37" d="M 525 4666 
L 3525 4666 
L 3525 4397 
L 1831 0 
L 1172 0 
L 2766 4134 
L 525 4134 
L 525 4666 
z
" transform="scale(0.015625)"/>
       </defs>
       <use xlink:href="#DejaVuSans-30"/>
       <use xlink:href="#DejaVuSans-2e" transform="translate(63.623047 0)"/>
       <use xlink:href="#DejaVuSans-37" transform="translate(95.410156 0)"/>
       <use xlink:href="#DejaVuSans-30" transform="translate(159.033203 0)"/>
      </g>
     </g>
    </g>
    <g id="ytick_4">
     <g id="line2d_5">
      <g>
       <use xlink:href="#m4a6bedde41" x="54.02" y="379.229151" style="stroke: #000000; stroke-width: 0.8"/>
      </g>
     </g>
     <g id="text_4">
      <!-- 0.75 -->
      <g transform="translate(24.754375 383.02837) scale(0.1 -0.1)">
       <use xlink:href="#DejaVuSans-30"/>
       <use xlink:href="#DejaVuSans-2e" transform="translate(63.623047 0)"/>
       <use xlink:href="#DejaVuSans-37" transform="translate(95.410156 0)"/>
       <use xlink:href="#DejaVuSans-35" transform="translate(159.033203 0)"/>
      </g>
     </g>
    </g>
    <g id="ytick_5">
     <g id="line2d_6">
      <g>
       <use xlink:href="#m4a6bedde41" x="54.02" y="319.399092" style="stroke: #000000; stroke-width: 0.8"/>
      </g>
     </g>
     <g id="text_5">
      <!-- 0.80 -->
      <g transform="translate(24.754375 323.198311) scale(0.1 -0.1)">
       <defs>
        <path id="DejaVuSans-38" d="M 2034 2216 
Q 1584 2216 1326 1975 
Q 1069 1734 1069 1313 
Q 1069 891 1326 650 
Q 1584 409 2034 409 
Q 2484 409 2743 651 
Q 3003 894 3003 1313 
Q 3003 1734 2745 1975 
Q 2488 2216 2034 2216 
z
M 1403 2484 
Q 997 2584 770 2862 
Q 544 3141 544 3541 
Q 544 4100 942 4425 
Q 1341 4750 2034 4750 
Q 2731 4750 3128 4425 
Q 3525 4100 3525 3541 
Q 3525 3141 3298 2862 
Q 3072 2584 2669 2484 
Q 3125 2378 3379 2068 
Q 3634 1759 3634 1313 
Q 3634 634 3220 271 
Q 2806 -91 2034 -91 
Q 1263 -91 848 271 
Q 434 634 434 1313 
Q 434 1759 690 2068 
Q 947 2378 1403 2484 
z
M 1172 3481 
Q 1172 3119 1398 2916 
Q 1625 2713 2034 2713 
Q 2441 2713 2670 2916 
Q 2900 3119 2900 3481 
Q 2900 3844 2670 4047 
Q 2441 4250 2034 4250 
Q 1625 4250 1398 4047 
Q 1172 3844 1172 3481 
z
" transform="scale(0.015625)"/>
       </defs>
       <use xlink:href="#DejaVuSans-30"/>
       <use xlink:href="#DejaVuSans-2e" transform="translate(63.623047 0)"/>
       <use xlink:href="#DejaVuSans-38" transform="translate(95.410156 0)"/>
       <use xlink:href="#DejaVuSans-30" transform="translate(159.033203 0)"/>
      </g>
     </g>
    </g>
    <g id="ytick_6">
     <g id="line2d_7">
      <g>
       <use xlink:href="#m4a6bedde41" x="54.02" y="259.569033" style="stroke: #000000; stroke-width: 0.8"/>
      </g>
     </g>
     <g id="text_6">
      <!-- 0.85 -->
      <g transform="translate(24.754375 263.368251) scale(0.1 -0.1)">
       <use xlink:href="#DejaVuSans-30"/>
       <use xlink:href="#DejaVuSans-2e" transform="translate(63.623047 0)"/>
       <use xlink:href="#DejaVuSans-38" transform="translate(95.410156 0)"/>
       <use xlink:href="#DejaVuSans-35" transform="translate(159.033203 0)"/>
      </g>
     </g>
    </g>
    <g id="ytick_7">
     <g id="line2d_8">
      <g>
       <use xlink:href="#m4a6bedde41" x="54.02" y="199.738973" style="stroke: #000000; stroke-width: 0.8"/>
      </g>
     </g>
     <g id="text_7">
      <!-- 0.90 -->
      <g transform="translate(24.754375 203.538192) scale(0.1 -0.1)">
       <defs>
        <path id="DejaVuSans-39" d="M 703 97 
L 703 672 
Q 941 559 1184 500 
Q 1428 441 1663 441 
Q 2288 441 2617 861 
Q 2947 1281 2994 2138 
Q 2813 1869 2534 1725 
Q 2256 1581 1919 1581 
Q 1219 1581 811 2004 
Q 403 2428 403 3163 
Q 403 3881 828 4315 
Q 1253 4750 1959 4750 
Q 2769 4750 3195 4129 
Q 3622 3509 3622 2328 
Q 3622 1225 3098 567 
Q 2575 -91 1691 -91 
Q 1453 -91 1209 -44 
Q 966 3 703 97 
z
M 1959 2075 
Q 2384 2075 2632 2365 
Q 2881 2656 2881 3163 
Q 2881 3666 2632 3958 
Q 2384 4250 1959 4250 
Q 1534 4250 1286 3958 
Q 1038 3666 1038 3163 
Q 1038 2656 1286 2365 
Q 1534 2075 1959 2075 
z
" transform="scale(0.015625)"/>
       </defs>
       <use xlink:href="#DejaVuSans-30"/>
       <use xlink:href="#DejaVuSans-2e" transform="translate(63.623047 0)"/>
       <use xlink:href="#DejaVuSans-39" transform="translate(95.410156 0)"/>
       <use xlink:href="#DejaVuSans-30" transform="translate(159.033203 0)"/>
      </g>
     </g>
    </g>
    <g id="ytick_8">
     <g id="line2d_9">
      <g>
       <use xlink:href="#m4a6bedde41" x="54.02" y="139.908914" style="stroke: #000000; stroke-width: 0.8"/>
      </g>
     </g>
     <g id="text_8">
      <!-- 0.95 -->
      <g transform="translate(24.754375 143.708133) scale(0.1 -0.1)">
       <use xlink:href="#DejaVuSans-30"/>
       <use xlink:href="#DejaVuSans-2e" transform="translate(63.623047 0)"/>
       <use xlink:href="#DejaVuSans-39" transform="translate(95.410156 0)"/>
       <use xlink:href="#DejaVuSans-35" transform="translate(159.033203 0)"/>
      </g>
     </g>
    </g>
    <g id="ytick_9">
     <g id="line2d_10">
      <g>
       <use xlink:href="#m4a6bedde41" x="54.02" y="80.078855" style="stroke: #000000; stroke-width: 0.8"/>
      </g>
     </g>
     <g id="text_9">
      <!-- 1.00 -->
      <g transform="translate(24.754375 83.878073) scale(0.1 -0.1)">
       <defs>
        <path id="DejaVuSans-31" d="M 794 531 
L 1825 531 
L 1825 4091 
L 703 3866 
L 703 4441 
L 1819 4666 
L 2450 4666 
L 2450 531 
L 3481 531 
L 3481 0 
L 794 0 
L 794 531 
z
" transform="scale(0.015625)"/>
       </defs>
       <use xlink:href="#DejaVuSans-31"/>
       <use xlink:href="#DejaVuSans-2e" transform="translate(63.623047 0)"/>
       <use xlink:href="#DejaVuSans-30" transform="translate(95.410156 0)"/>
       <use xlink:href="#DejaVuSans-30" transform="translate(159.033203 0)"/>
      </g>
     </g>
    </g>
    <g id="text_10">
     <!-- r2 -->
     <g transform="translate(18.674688 299.101004) rotate(-90) scale(0.1 -0.1)">
      <defs>
       <path id="DejaVuSans-72" d="M 2631 2963 
Q 2534 3019 2420 3045 
Q 2306 3072 2169 3072 
Q 1681 3072 1420 2755 
Q 1159 2438 1159 1844 
L 1159 0 
L 581 0 
L 581 3500 
L 1159 3500 
L 1159 2956 
Q 1341 3275 1631 3429 
Q 1922 3584 2338 3584 
Q 2397 3584 2469 3576 
Q 2541 3569 2628 3553 
L 2631 2963 
z
" transform="scale(0.015625)"/>
       <path id="DejaVuSans-32" d="M 1228 531 
L 3431 531 
L 3431 0 
L 469 0 
L 469 531 
Q 828 903 1448 1529 
Q 2069 2156 2228 2338 
Q 2531 2678 2651 2914 
Q 2772 3150 2772 3378 
Q 2772 3750 2511 3984 
Q 2250 4219 1831 4219 
Q 1534 4219 1204 4116 
Q 875 4013 500 3803 
L 500 4441 
Q 881 4594 1212 4672 
Q 1544 4750 1819 4750 
Q 2544 4750 2975 4387 
Q 3406 4025 3406 3419 
Q 3406 3131 3298 2873 
Q 3191 2616 2906 2266 
Q 2828 2175 2409 1742 
Q 1991 1309 1228 531 
z
" transform="scale(0.015625)"/>
      </defs>
      <use xlink:href="#DejaVuSans-72"/>
      <use xlink:href="#DejaVuSans-32" transform="translate(41.113281 0)"/>
     </g>
    </g>
   </g>
   <g id="patch_7">
    <path d="M 115.3616 142.897018 
L 197.1504 142.897018 
L 197.1504 95.03556 
L 115.3616 95.03556 
L 115.3616 142.897018 
z
" clip-path="url(#pa5207d7525)" style="fill: #96cac1; stroke: #626262; stroke-linejoin: miter"/>
   </g>
   <g id="line2d_11">
    <path d="M 156.256 142.897018 
L 156.256 176.206431 
" clip-path="url(#pa5207d7525)" style="fill: none; stroke: #626262"/>
   </g>
   <g id="line2d_12">
    <path d="M 156.256 95.03556 
L 156.256 80.078855 
" clip-path="url(#pa5207d7525)" style="fill: none; stroke: #626262"/>
   </g>
   <g id="line2d_13">
    <path d="M 135.8088 176.206431 
L 176.7032 176.206431 
" clip-path="url(#pa5207d7525)" style="fill: none; stroke: #626262; stroke-linecap: square"/>
   </g>
   <g id="line2d_14">
    <path d="M 135.8088 80.078855 
L 176.7032 80.078855 
" clip-path="url(#pa5207d7525)" style="fill: none; stroke: #626262; stroke-linecap: square"/>
   </g>
   <g id="line2d_15">
    <defs>
     <path id="m60d210f040" d="M 0 3 
C 0.795609 3 1.55874 2.683901 2.12132 2.12132 
C 2.683901 1.55874 3 0.795609 3 0 
C 3 -0.795609 2.683901 -1.55874 2.12132 -2.12132 
C 1.55874 -2.683901 0.795609 -3 0 -3 
C -0.795609 -3 -1.55874 -2.683901 -2.12132 -2.12132 
C -2.683901 -1.55874 -3 -0.795609 -3 0 
C -3 0.795609 -2.683901 1.55874 -2.12132 2.12132 
C -1.55874 2.683901 -0.795609 3 0 3 
z
" style="stroke: #626262"/>
    </defs>
    <g clip-path="url(#pa5207d7525)">
     <use xlink:href="#m60d210f040" x="156.256" y="546.728071" style="fill-opacity: 0; stroke: #626262"/>
     <use xlink:href="#m60d210f040" x="156.256" y="256.567981" style="fill-opacity: 0; stroke: #626262"/>
     <use xlink:href="#m60d210f040" x="156.256" y="262.550663" style="fill-opacity: 0; stroke: #626262"/>
     <use xlink:href="#m60d210f040" x="156.256" y="250.585299" style="fill-opacity: 0; stroke: #626262"/>
    </g>
   </g>
   <g id="patch_8">
    <path d="M 217.5976 320.006806 
L 299.3864 320.006806 
L 299.3864 124.318063 
L 217.5976 124.318063 
L 217.5976 320.006806 
z
" clip-path="url(#pa5207d7525)" style="fill: #8aafc9; stroke: #626262; stroke-linejoin: miter"/>
   </g>
   <g id="line2d_16">
    <path d="M 258.492 320.006806 
L 258.492 551.227553 
" clip-path="url(#pa5207d7525)" style="fill: none; stroke: #626262"/>
   </g>
   <g id="line2d_17">
    <path d="M 258.492 124.318063 
L 258.492 110.71828 
" clip-path="url(#pa5207d7525)" style="fill: none; stroke: #626262"/>
   </g>
   <g id="line2d_18">
    <path d="M 238.0448 551.227553 
L 278.9392 551.227553 
" clip-path="url(#pa5207d7525)" style="fill: none; stroke: #626262; stroke-linecap: square"/>
   </g>
   <g id="line2d_19">
    <path d="M 238.0448 110.71828 
L 278.9392 110.71828 
" clip-path="url(#pa5207d7525)" style="fill: none; stroke: #626262; stroke-linecap: square"/>
   </g>
   <g id="line2d_20">
    <g clip-path="url(#pa5207d7525)">
     <use xlink:href="#m60d210f040" x="258.492" y="746.053927" style="fill-opacity: 0; stroke: #626262"/>
    </g>
   </g>
   <g id="patch_9">
    <path d="M 319.8336 224.090328 
L 401.6224 224.090328 
L 401.6224 130.111055 
L 319.8336 130.111055 
L 319.8336 224.090328 
z
" clip-path="url(#pa5207d7525)" style="fill: #f6f6bc; stroke: #626262; stroke-linejoin: miter"/>
   </g>
   <g id="line2d_21">
    <path d="M 360.728 224.090328 
L 360.728 265.668013 
" clip-path="url(#pa5207d7525)" style="fill: none; stroke: #626262"/>
   </g>
   <g id="line2d_22">
    <path d="M 360.728 130.111055 
L 360.728 97.359338 
" clip-path="url(#pa5207d7525)" style="fill: none; stroke: #626262"/>
   </g>
   <g id="line2d_23">
    <path d="M 340.2808 265.668013 
L 381.1752 265.668013 
" clip-path="url(#pa5207d7525)" style="fill: none; stroke: #626262; stroke-linecap: square"/>
   </g>
   <g id="line2d_24">
    <path d="M 340.2808 97.359338 
L 381.1752 97.359338 
" clip-path="url(#pa5207d7525)" style="fill: none; stroke: #626262; stroke-linecap: square"/>
   </g>
   <g id="line2d_25">
    <g clip-path="url(#pa5207d7525)">
     <use xlink:href="#m60d210f040" x="360.728" y="419.771025" style="fill-opacity: 0; stroke: #626262"/>
     <use xlink:href="#m60d210f040" x="360.728" y="388.547116" style="fill-opacity: 0; stroke: #626262"/>
    </g>
   </g>
   <g id="patch_10">
    <path d="M 422.0696 709.218124 
L 503.8584 709.218124 
L 503.8584 261.555752 
L 422.0696 261.555752 
L 422.0696 709.218124 
z
" clip-path="url(#pa5207d7525)" style="fill: #ea8e83; stroke: #626262; stroke-linejoin: miter"/>
   </g>
   <g id="line2d_26">
    <path clip-path="url(#pa5207d7525)" style="fill: none; stroke: #626262"/>
   </g>
   <g id="line2d_27">
    <path d="M 462.964 261.555752 
L 462.964 127.410815 
" clip-path="url(#pa5207d7525)" style="fill: none; stroke: #626262"/>
   </g>
   <g id="line2d_28">
    <path clip-path="url(#pa5207d7525)" style="fill: none; stroke: #626262; stroke-linecap: square"/>
   </g>
   <g id="line2d_29">
    <path d="M 442.5168 127.410815 
L 483.4112 127.410815 
" clip-path="url(#pa5207d7525)" style="fill: none; stroke: #626262; stroke-linecap: square"/>
   </g>
   <g id="line2d_30"/>
   <g id="line2d_31">
    <path d="M 54.02 116.840961 
L 565.2 116.840961 
" clip-path="url(#pa5207d7525)" style="fill: none; stroke-dasharray: 1.5,2.475; stroke-dashoffset: 0; stroke: #808080; stroke-width: 1.5"/>
   </g>
   <g id="line2d_32">
    <path d="M 115.3616 116.840961 
L 197.1504 116.840961 
" clip-path="url(#pa5207d7525)" style="fill: none; stroke: #626262"/>
   </g>
   <g id="line2d_33">
    <path d="M 217.5976 258.433821 
L 299.3864 258.433821 
" clip-path="url(#pa5207d7525)" style="fill: none; stroke: #626262"/>
   </g>
   <g id="line2d_34">
    <path d="M 319.8336 175.884399 
L 401.6224 175.884399 
" clip-path="url(#pa5207d7525)" style="fill: none; stroke: #626262"/>
   </g>
   <g id="line2d_35">
    <path d="M 422.0696 335.404112 
L 503.8584 335.404112 
" clip-path="url(#pa5207d7525)" style="fill: none; stroke: #626262"/>
   </g>
   <g id="patch_11">
    <path d="M 54.02 560.848571 
L 54.02 26.88 
" style="fill: none; stroke: #000000; stroke-width: 0.8; stroke-linejoin: miter; stroke-linecap: square"/>
   </g>
   <g id="patch_12">
    <path d="M 565.2 560.848571 
L 565.2 26.88 
" style="fill: none; stroke: #000000; stroke-width: 0.8; stroke-linejoin: miter; stroke-linecap: square"/>
   </g>
   <g id="patch_13">
    <path d="M 54.02 560.848571 
L 565.2 560.848571 
" style="fill: none; stroke: #000000; stroke-width: 0.8; stroke-linejoin: miter; stroke-linecap: square"/>
   </g>
   <g id="patch_14">
    <path d="M 54.02 26.88 
L 565.2 26.88 
" style="fill: none; stroke: #000000; stroke-width: 0.8; stroke-linejoin: miter; stroke-linecap: square"/>
   </g>
   <g id="text_11">
    <!-- helices_0 -->
    <g transform="translate(281.847813 20.88) scale(0.12 -0.12)">
     <defs>
      <path id="DejaVuSans-68" d="M 3513 2113 
L 3513 0 
L 2938 0 
L 2938 2094 
Q 2938 2591 2744 2837 
Q 2550 3084 2163 3084 
Q 1697 3084 1428 2787 
Q 1159 2491 1159 1978 
L 1159 0 
L 581 0 
L 581 4863 
L 1159 4863 
L 1159 2956 
Q 1366 3272 1645 3428 
Q 1925 3584 2291 3584 
Q 2894 3584 3203 3211 
Q 3513 2838 3513 2113 
z
" transform="scale(0.015625)"/>
      <path id="DejaVuSans-65" d="M 3597 1894 
L 3597 1613 
L 953 1613 
Q 991 1019 1311 708 
Q 1631 397 2203 397 
Q 2534 397 2845 478 
Q 3156 559 3463 722 
L 3463 178 
Q 3153 47 2828 -22 
Q 2503 -91 2169 -91 
Q 1331 -91 842 396 
Q 353 884 353 1716 
Q 353 2575 817 3079 
Q 1281 3584 2069 3584 
Q 2775 3584 3186 3129 
Q 3597 2675 3597 1894 
z
M 3022 2063 
Q 3016 2534 2758 2815 
Q 2500 3097 2075 3097 
Q 1594 3097 1305 2825 
Q 1016 2553 972 2059 
L 3022 2063 
z
" transform="scale(0.015625)"/>
      <path id="DejaVuSans-6c" d="M 603 4863 
L 1178 4863 
L 1178 0 
L 603 0 
L 603 4863 
z
" transform="scale(0.015625)"/>
      <path id="DejaVuSans-69" d="M 603 3500 
L 1178 3500 
L 1178 0 
L 603 0 
L 603 3500 
z
M 603 4863 
L 1178 4863 
L 1178 4134 
L 603 4134 
L 603 4863 
z
" transform="scale(0.015625)"/>
      <path id="DejaVuSans-63" d="M 3122 3366 
L 3122 2828 
Q 2878 2963 2633 3030 
Q 2388 3097 2138 3097 
Q 1578 3097 1268 2742 
Q 959 2388 959 1747 
Q 959 1106 1268 751 
Q 1578 397 2138 397 
Q 2388 397 2633 464 
Q 2878 531 3122 666 
L 3122 134 
Q 2881 22 2623 -34 
Q 2366 -91 2075 -91 
Q 1284 -91 818 406 
Q 353 903 353 1747 
Q 353 2603 823 3093 
Q 1294 3584 2113 3584 
Q 2378 3584 2631 3529 
Q 2884 3475 3122 3366 
z
" transform="scale(0.015625)"/>
      <path id="DejaVuSans-73" d="M 2834 3397 
L 2834 2853 
Q 2591 2978 2328 3040 
Q 2066 3103 1784 3103 
Q 1356 3103 1142 2972 
Q 928 2841 928 2578 
Q 928 2378 1081 2264 
Q 1234 2150 1697 2047 
L 1894 2003 
Q 2506 1872 2764 1633 
Q 3022 1394 3022 966 
Q 3022 478 2636 193 
Q 2250 -91 1575 -91 
Q 1294 -91 989 -36 
Q 684 19 347 128 
L 347 722 
Q 666 556 975 473 
Q 1284 391 1588 391 
Q 1994 391 2212 530 
Q 2431 669 2431 922 
Q 2431 1156 2273 1281 
Q 2116 1406 1581 1522 
L 1381 1569 
Q 847 1681 609 1914 
Q 372 2147 372 2553 
Q 372 3047 722 3315 
Q 1072 3584 1716 3584 
Q 2034 3584 2315 3537 
Q 2597 3491 2834 3397 
z
" transform="scale(0.015625)"/>
      <path id="DejaVuSans-5f" d="M 3263 -1063 
L 3263 -1509 
L -63 -1509 
L -63 -1063 
L 3263 -1063 
z
" transform="scale(0.015625)"/>
     </defs>
     <use xlink:href="#DejaVuSans-68"/>
     <use xlink:href="#DejaVuSans-65" transform="translate(63.378906 0)"/>
     <use xlink:href="#DejaVuSans-6c" transform="translate(124.902344 0)"/>
     <use xlink:href="#DejaVuSans-69" transform="translate(152.685547 0)"/>
     <use xlink:href="#DejaVuSans-63" transform="translate(180.46875 0)"/>
     <use xlink:href="#DejaVuSans-65" transform="translate(235.449219 0)"/>
     <use xlink:href="#DejaVuSans-73" transform="translate(296.972656 0)"/>
     <use xlink:href="#DejaVuSans-5f" transform="translate(349.072266 0)"/>
     <use xlink:href="#DejaVuSans-30" transform="translate(399.072266 0)"/>
    </g>
   </g>
   <g id="legend_1">
    <g id="patch_15">
     <path d="M 505.042187 108.270625 
L 558.2 108.270625 
Q 560.2 108.270625 560.2 106.270625 
L 560.2 33.88 
Q 560.2 31.88 558.2 31.88 
L 505.042187 31.88 
Q 503.042187 31.88 503.042187 33.88 
L 503.042187 106.270625 
Q 503.042187 108.270625 505.042187 108.270625 
z
" style="fill: #ffffff; opacity: 0.8; stroke: #cccccc; stroke-linejoin: miter"/>
    </g>
    <g id="text_12">
     <!-- clf -->
     <g transform="translate(525.722656 43.478438) scale(0.1 -0.1)">
      <defs>
       <path id="DejaVuSans-66" d="M 2375 4863 
L 2375 4384 
L 1825 4384 
Q 1516 4384 1395 4259 
Q 1275 4134 1275 3809 
L 1275 3500 
L 2222 3500 
L 2222 3053 
L 1275 3053 
L 1275 0 
L 697 0 
L 697 3053 
L 147 3053 
L 147 3500 
L 697 3500 
L 697 3744 
Q 697 4328 969 4595 
Q 1241 4863 1831 4863 
L 2375 4863 
z
" transform="scale(0.015625)"/>
      </defs>
      <use xlink:href="#DejaVuSans-63"/>
      <use xlink:href="#DejaVuSans-6c" transform="translate(54.980469 0)"/>
      <use xlink:href="#DejaVuSans-66" transform="translate(82.763672 0)"/>
     </g>
    </g>
    <g id="patch_16">
     <path d="M 507.042187 58.156563 
L 527.042187 58.156563 
L 527.042187 51.156563 
L 507.042187 51.156563 
z
" style="fill: #96cac1; stroke: #626262; stroke-linejoin: miter"/>
    </g>
    <g id="text_13">
     <!-- fkdc -->
     <g transform="translate(535.042187 58.156563) scale(0.1 -0.1)">
      <defs>
       <path id="DejaVuSans-6b" d="M 581 4863 
L 1159 4863 
L 1159 1991 
L 2875 3500 
L 3609 3500 
L 1753 1863 
L 3688 0 
L 2938 0 
L 1159 1709 
L 1159 0 
L 581 0 
L 581 4863 
z
" transform="scale(0.015625)"/>
       <path id="DejaVuSans-64" d="M 2906 2969 
L 2906 4863 
L 3481 4863 
L 3481 0 
L 2906 0 
L 2906 525 
Q 2725 213 2448 61 
Q 2172 -91 1784 -91 
Q 1150 -91 751 415 
Q 353 922 353 1747 
Q 353 2572 751 3078 
Q 1150 3584 1784 3584 
Q 2172 3584 2448 3432 
Q 2725 3281 2906 2969 
z
M 947 1747 
Q 947 1113 1208 752 
Q 1469 391 1925 391 
Q 2381 391 2643 752 
Q 2906 1113 2906 1747 
Q 2906 2381 2643 2742 
Q 2381 3103 1925 3103 
Q 1469 3103 1208 2742 
Q 947 2381 947 1747 
z
" transform="scale(0.015625)"/>
      </defs>
      <use xlink:href="#DejaVuSans-66"/>
      <use xlink:href="#DejaVuSans-6b" transform="translate(35.205078 0)"/>
      <use xlink:href="#DejaVuSans-64" transform="translate(93.115234 0)"/>
      <use xlink:href="#DejaVuSans-63" transform="translate(156.591797 0)"/>
     </g>
    </g>
    <g id="patch_17">
     <path d="M 507.042187 72.834688 
L 527.042187 72.834688 
L 527.042187 65.834688 
L 507.042187 65.834688 
z
" style="fill: #8aafc9; stroke: #626262; stroke-linejoin: miter"/>
    </g>
    <g id="text_14">
     <!-- fkn -->
     <g transform="translate(535.042187 72.834688) scale(0.1 -0.1)">
      <defs>
       <path id="DejaVuSans-6e" d="M 3513 2113 
L 3513 0 
L 2938 0 
L 2938 2094 
Q 2938 2591 2744 2837 
Q 2550 3084 2163 3084 
Q 1697 3084 1428 2787 
Q 1159 2491 1159 1978 
L 1159 0 
L 581 0 
L 581 3500 
L 1159 3500 
L 1159 2956 
Q 1366 3272 1645 3428 
Q 1925 3584 2291 3584 
Q 2894 3584 3203 3211 
Q 3513 2838 3513 2113 
z
" transform="scale(0.015625)"/>
      </defs>
      <use xlink:href="#DejaVuSans-66"/>
      <use xlink:href="#DejaVuSans-6b" transform="translate(35.205078 0)"/>
      <use xlink:href="#DejaVuSans-6e" transform="translate(93.115234 0)"/>
     </g>
    </g>
    <g id="patch_18">
     <path d="M 507.042187 87.512813 
L 527.042187 87.512813 
L 527.042187 80.512813 
L 507.042187 80.512813 
z
" style="fill: #f6f6bc; stroke: #626262; stroke-linejoin: miter"/>
    </g>
    <g id="text_15">
     <!-- kdc -->
     <g transform="translate(535.042187 87.512813) scale(0.1 -0.1)">
      <use xlink:href="#DejaVuSans-6b"/>
      <use xlink:href="#DejaVuSans-64" transform="translate(57.910156 0)"/>
      <use xlink:href="#DejaVuSans-63" transform="translate(121.386719 0)"/>
     </g>
    </g>
    <g id="patch_19">
     <path d="M 507.042187 102.190938 
L 527.042187 102.190938 
L 527.042187 95.190938 
L 507.042187 95.190938 
z
" style="fill: #ea8e83; stroke: #626262; stroke-linejoin: miter"/>
    </g>
    <g id="text_16">
     <!-- kn -->
     <g transform="translate(535.042187 102.190938) scale(0.1 -0.1)">
      <use xlink:href="#DejaVuSans-6b"/>
      <use xlink:href="#DejaVuSans-6e" transform="translate(57.910156 0)"/>
     </g>
    </g>
   </g>
  </g>
 </g>
 <defs>
  <clipPath id="pa5207d7525">
   <rect x="54.02" y="26.88" width="511.18" height="533.968571"/>
  </clipPath>
 </defs>
</svg>
