<?xml version="1.0" encoding="utf-8" standalone="no"?>
<!DOCTYPE svg PUBLIC "-//W3C//DTD SVG 1.1//EN"
  "http://www.w3.org/Graphics/SVG/1.1/DTD/svg11.dtd">
<svg xmlns:xlink="http://www.w3.org/1999/xlink" width="460.8pt" height="345.6pt" viewBox="0 0 460.8 345.6" xmlns="http://www.w3.org/2000/svg" version="1.1">
 <metadata>
  <rdf:RDF xmlns:dc="http://purl.org/dc/elements/1.1/" xmlns:cc="http://creativecommons.org/ns#" xmlns:rdf="http://www.w3.org/1999/02/22-rdf-syntax-ns#">
   <cc:Work>
    <dc:type rdf:resource="http://purl.org/dc/dcmitype/StillImage"/>
    <dc:date>2025-11-23T17:47:00.777569</dc:date>
    <dc:format>image/svg+xml</dc:format>
    <dc:creator>
     <cc:Agent>
      <dc:title>Matplotlib v3.10.7, https://matplotlib.org/</dc:title>
     </cc:Agent>
    </dc:creator>
   </cc:Work>
  </rdf:RDF>
 </metadata>
 <defs>
  <style type="text/css">*{stroke-linejoin: round; stroke-linecap: butt}</style>
 </defs>
 <g id="figure_1">
  <g id="patch_1">
   <path d="M 0 345.6 
L 460.8 345.6 
L 460.8 0 
L 0 0 
z
" style="fill: #ffffff"/>
  </g>
  <g id="axes_1">
   <g id="patch_2">
    <path d="M 53.74375 331.3 
L 450 331.3 
L 450 25.918125 
L 53.74375 25.918125 
z
" style="fill: #ffffff"/>
   </g>
   <g id="patch_3">
    <path d="M 251.871875 678.136001 
L 251.871875 678.136001 
L 251.871875 678.136001 
L 251.871875 678.136001 
z
" clip-path="url(#p7159a53221)" style="fill: #96cac1; stroke: #626262; stroke-linejoin: miter"/>
   </g>
   <g id="patch_4">
    <path d="M 251.871875 678.136001 
L 251.871875 678.136001 
L 251.871875 678.136001 
L 251.871875 678.136001 
z
" clip-path="url(#p7159a53221)" style="fill: #8aafc9; stroke: #626262; stroke-linejoin: miter"/>
   </g>
   <g id="patch_5">
    <path d="M 251.871875 678.136001 
L 251.871875 678.136001 
L 251.871875 678.136001 
L 251.871875 678.136001 
z
" clip-path="url(#p7159a53221)" style="fill: #d9d9d9; stroke: #626262; stroke-linejoin: miter"/>
   </g>
   <g id="patch_6">
    <path d="M 251.871875 678.136001 
L 251.871875 678.136001 
L 251.871875 678.136001 
L 251.871875 678.136001 
z
" clip-path="url(#p7159a53221)" style="fill: #c1bed6; stroke: #626262; stroke-linejoin: miter"/>
   </g>
   <g id="patch_7">
    <path d="M 251.871875 678.136001 
L 251.871875 678.136001 
L 251.871875 678.136001 
L 251.871875 678.136001 
z
" clip-path="url(#p7159a53221)" style="fill: #f6f6bc; stroke: #626262; stroke-linejoin: miter"/>
   </g>
   <g id="patch_8">
    <path d="M 251.871875 678.136001 
L 251.871875 678.136001 
L 251.871875 678.136001 
L 251.871875 678.136001 
z
" clip-path="url(#p7159a53221)" style="fill: #ea8e83; stroke: #626262; stroke-linejoin: miter"/>
   </g>
   <g id="patch_9">
    <path d="M 251.871875 678.136001 
L 251.871875 678.136001 
L 251.871875 678.136001 
L 251.871875 678.136001 
z
" clip-path="url(#p7159a53221)" style="fill: #eab375; stroke: #626262; stroke-linejoin: miter"/>
   </g>
   <g id="patch_10">
    <path d="M 251.871875 678.136001 
L 251.871875 678.136001 
L 251.871875 678.136001 
L 251.871875 678.136001 
z
" clip-path="url(#p7159a53221)" style="fill: #afcf78; stroke: #626262; stroke-linejoin: miter"/>
   </g>
   <g id="patch_11">
    <path d="M 251.871875 678.136001 
L 251.871875 678.136001 
L 251.871875 678.136001 
L 251.871875 678.136001 
z
" clip-path="url(#p7159a53221)" style="fill: #f6d3e5; stroke: #626262; stroke-linejoin: miter"/>
   </g>
   <g id="matplotlib.axis_1">
    <g id="xtick_1">
     <g id="line2d_1">
      <defs>
       <path id="m43517e125c" d="M 0 0 
L 0 3.5 
" style="stroke: #000000; stroke-width: 0.8"/>
      </defs>
      <g>
       <use xlink:href="#m43517e125c" x="251.871875" y="331.3" style="stroke: #000000; stroke-width: 0.8"/>
      </g>
     </g>
    </g>
   </g>
   <g id="matplotlib.axis_2">
    <g id="ytick_1">
     <g id="line2d_2">
      <defs>
       <path id="m68ee35fa1f" d="M 0 0 
L -3.5 0 
" style="stroke: #000000; stroke-width: 0.8"/>
      </defs>
      <g>
       <use xlink:href="#m68ee35fa1f" x="53.74375" y="300.42187" style="stroke: #000000; stroke-width: 0.8"/>
      </g>
     </g>
     <g id="text_1">
      <!-- 0.50 -->
      <g transform="translate(24.478125 304.221089) scale(0.1 -0.1)">
       <defs>
        <path id="DejaVuSans-30" d="M 2034 4250 
Q 1547 4250 1301 3770 
Q 1056 3291 1056 2328 
Q 1056 1369 1301 889 
Q 1547 409 2034 409 
Q 2525 409 2770 889 
Q 3016 1369 3016 2328 
Q 3016 3291 2770 3770 
Q 2525 4250 2034 4250 
z
M 2034 4750 
Q 2819 4750 3233 4129 
Q 3647 3509 3647 2328 
Q 3647 1150 3233 529 
Q 2819 -91 2034 -91 
Q 1250 -91 836 529 
Q 422 1150 422 2328 
Q 422 3509 836 4129 
Q 1250 4750 2034 4750 
z
" transform="scale(0.015625)"/>
        <path id="DejaVuSans-2e" d="M 684 794 
L 1344 794 
L 1344 0 
L 684 0 
L 684 794 
z
" transform="scale(0.015625)"/>
        <path id="DejaVuSans-35" d="M 691 4666 
L 3169 4666 
L 3169 4134 
L 1269 4134 
L 1269 2991 
Q 1406 3038 1543 3061 
Q 1681 3084 1819 3084 
Q 2600 3084 3056 2656 
Q 3513 2228 3513 1497 
Q 3513 744 3044 326 
Q 2575 -91 1722 -91 
Q 1428 -91 1123 -41 
Q 819 9 494 109 
L 494 744 
Q 775 591 1075 516 
Q 1375 441 1709 441 
Q 2250 441 2565 725 
Q 2881 1009 2881 1497 
Q 2881 1984 2565 2268 
Q 2250 2553 1709 2553 
Q 1456 2553 1204 2497 
Q 953 2441 691 2322 
L 691 4666 
z
" transform="scale(0.015625)"/>
       </defs>
       <use xlink:href="#DejaVuSans-30"/>
       <use xlink:href="#DejaVuSans-2e" transform="translate(63.623047 0)"/>
       <use xlink:href="#DejaVuSans-35" transform="translate(95.410156 0)"/>
       <use xlink:href="#DejaVuSans-30" transform="translate(159.033203 0)"/>
      </g>
     </g>
    </g>
    <g id="ytick_2">
     <g id="line2d_3">
      <g>
       <use xlink:href="#m68ee35fa1f" x="53.74375" y="262.650457" style="stroke: #000000; stroke-width: 0.8"/>
      </g>
     </g>
     <g id="text_2">
      <!-- 0.55 -->
      <g transform="translate(24.478125 266.449675) scale(0.1 -0.1)">
       <use xlink:href="#DejaVuSans-30"/>
       <use xlink:href="#DejaVuSans-2e" transform="translate(63.623047 0)"/>
       <use xlink:href="#DejaVuSans-35" transform="translate(95.410156 0)"/>
       <use xlink:href="#DejaVuSans-35" transform="translate(159.033203 0)"/>
      </g>
     </g>
    </g>
    <g id="ytick_3">
     <g id="line2d_4">
      <g>
       <use xlink:href="#m68ee35fa1f" x="53.74375" y="224.879044" style="stroke: #000000; stroke-width: 0.8"/>
      </g>
     </g>
     <g id="text_3">
      <!-- 0.60 -->
      <g transform="translate(24.478125 228.678262) scale(0.1 -0.1)">
       <defs>
        <path id="DejaVuSans-36" d="M 2113 2584 
Q 1688 2584 1439 2293 
Q 1191 2003 1191 1497 
Q 1191 994 1439 701 
Q 1688 409 2113 409 
Q 2538 409 2786 701 
Q 3034 994 3034 1497 
Q 3034 2003 2786 2293 
Q 2538 2584 2113 2584 
z
M 3366 4563 
L 3366 3988 
Q 3128 4100 2886 4159 
Q 2644 4219 2406 4219 
Q 1781 4219 1451 3797 
Q 1122 3375 1075 2522 
Q 1259 2794 1537 2939 
Q 1816 3084 2150 3084 
Q 2853 3084 3261 2657 
Q 3669 2231 3669 1497 
Q 3669 778 3244 343 
Q 2819 -91 2113 -91 
Q 1303 -91 875 529 
Q 447 1150 447 2328 
Q 447 3434 972 4092 
Q 1497 4750 2381 4750 
Q 2619 4750 2861 4703 
Q 3103 4656 3366 4563 
z
" transform="scale(0.015625)"/>
       </defs>
       <use xlink:href="#DejaVuSans-30"/>
       <use xlink:href="#DejaVuSans-2e" transform="translate(63.623047 0)"/>
       <use xlink:href="#DejaVuSans-36" transform="translate(95.410156 0)"/>
       <use xlink:href="#DejaVuSans-30" transform="translate(159.033203 0)"/>
      </g>
     </g>
    </g>
    <g id="ytick_4">
     <g id="line2d_5">
      <g>
       <use xlink:href="#m68ee35fa1f" x="53.74375" y="187.10763" style="stroke: #000000; stroke-width: 0.8"/>
      </g>
     </g>
     <g id="text_4">
      <!-- 0.65 -->
      <g transform="translate(24.478125 190.906849) scale(0.1 -0.1)">
       <use xlink:href="#DejaVuSans-30"/>
       <use xlink:href="#DejaVuSans-2e" transform="translate(63.623047 0)"/>
       <use xlink:href="#DejaVuSans-36" transform="translate(95.410156 0)"/>
       <use xlink:href="#DejaVuSans-35" transform="translate(159.033203 0)"/>
      </g>
     </g>
    </g>
    <g id="ytick_5">
     <g id="line2d_6">
      <g>
       <use xlink:href="#m68ee35fa1f" x="53.74375" y="149.336217" style="stroke: #000000; stroke-width: 0.8"/>
      </g>
     </g>
     <g id="text_5">
      <!-- 0.70 -->
      <g transform="translate(24.478125 153.135436) scale(0.1 -0.1)">
       <defs>
        <path id="DejaVuSans-37" d="M 525 4666 
L 3525 4666 
L 3525 4397 
L 1831 0 
L 1172 0 
L 2766 4134 
L 525 4134 
L 525 4666 
z
" transform="scale(0.015625)"/>
       </defs>
       <use xlink:href="#DejaVuSans-30"/>
       <use xlink:href="#DejaVuSans-2e" transform="translate(63.623047 0)"/>
       <use xlink:href="#DejaVuSans-37" transform="translate(95.410156 0)"/>
       <use xlink:href="#DejaVuSans-30" transform="translate(159.033203 0)"/>
      </g>
     </g>
    </g>
    <g id="ytick_6">
     <g id="line2d_7">
      <g>
       <use xlink:href="#m68ee35fa1f" x="53.74375" y="111.564804" style="stroke: #000000; stroke-width: 0.8"/>
      </g>
     </g>
     <g id="text_6">
      <!-- 0.75 -->
      <g transform="translate(24.478125 115.364023) scale(0.1 -0.1)">
       <use xlink:href="#DejaVuSans-30"/>
       <use xlink:href="#DejaVuSans-2e" transform="translate(63.623047 0)"/>
       <use xlink:href="#DejaVuSans-37" transform="translate(95.410156 0)"/>
       <use xlink:href="#DejaVuSans-35" transform="translate(159.033203 0)"/>
      </g>
     </g>
    </g>
    <g id="ytick_7">
     <g id="line2d_8">
      <g>
       <use xlink:href="#m68ee35fa1f" x="53.74375" y="73.793391" style="stroke: #000000; stroke-width: 0.8"/>
      </g>
     </g>
     <g id="text_7">
      <!-- 0.80 -->
      <g transform="translate(24.478125 77.59261) scale(0.1 -0.1)">
       <defs>
        <path id="DejaVuSans-38" d="M 2034 2216 
Q 1584 2216 1326 1975 
Q 1069 1734 1069 1313 
Q 1069 891 1326 650 
Q 1584 409 2034 409 
Q 2484 409 2743 651 
Q 3003 894 3003 1313 
Q 3003 1734 2745 1975 
Q 2488 2216 2034 2216 
z
M 1403 2484 
Q 997 2584 770 2862 
Q 544 3141 544 3541 
Q 544 4100 942 4425 
Q 1341 4750 2034 4750 
Q 2731 4750 3128 4425 
Q 3525 4100 3525 3541 
Q 3525 3141 3298 2862 
Q 3072 2584 2669 2484 
Q 3125 2378 3379 2068 
Q 3634 1759 3634 1313 
Q 3634 634 3220 271 
Q 2806 -91 2034 -91 
Q 1263 -91 848 271 
Q 434 634 434 1313 
Q 434 1759 690 2068 
Q 947 2378 1403 2484 
z
M 1172 3481 
Q 1172 3119 1398 2916 
Q 1625 2713 2034 2713 
Q 2441 2713 2670 2916 
Q 2900 3119 2900 3481 
Q 2900 3844 2670 4047 
Q 2441 4250 2034 4250 
Q 1625 4250 1398 4047 
Q 1172 3844 1172 3481 
z
" transform="scale(0.015625)"/>
       </defs>
       <use xlink:href="#DejaVuSans-30"/>
       <use xlink:href="#DejaVuSans-2e" transform="translate(63.623047 0)"/>
       <use xlink:href="#DejaVuSans-38" transform="translate(95.410156 0)"/>
       <use xlink:href="#DejaVuSans-30" transform="translate(159.033203 0)"/>
      </g>
     </g>
    </g>
    <g id="ytick_8">
     <g id="line2d_9">
      <g>
       <use xlink:href="#m68ee35fa1f" x="53.74375" y="36.021978" style="stroke: #000000; stroke-width: 0.8"/>
      </g>
     </g>
     <g id="text_8">
      <!-- 0.85 -->
      <g transform="translate(24.478125 39.821197) scale(0.1 -0.1)">
       <use xlink:href="#DejaVuSans-30"/>
       <use xlink:href="#DejaVuSans-2e" transform="translate(63.623047 0)"/>
       <use xlink:href="#DejaVuSans-38" transform="translate(95.410156 0)"/>
       <use xlink:href="#DejaVuSans-35" transform="translate(159.033203 0)"/>
      </g>
     </g>
    </g>
    <g id="text_9">
     <!-- accuracy -->
     <g transform="translate(18.398437 201.168437) rotate(-90) scale(0.1 -0.1)">
      <defs>
       <path id="DejaVuSans-61" d="M 2194 1759 
Q 1497 1759 1228 1600 
Q 959 1441 959 1056 
Q 959 750 1161 570 
Q 1363 391 1709 391 
Q 2188 391 2477 730 
Q 2766 1069 2766 1631 
L 2766 1759 
L 2194 1759 
z
M 3341 1997 
L 3341 0 
L 2766 0 
L 2766 531 
Q 2569 213 2275 61 
Q 1981 -91 1556 -91 
Q 1019 -91 701 211 
Q 384 513 384 1019 
Q 384 1609 779 1909 
Q 1175 2209 1959 2209 
L 2766 2209 
L 2766 2266 
Q 2766 2663 2505 2880 
Q 2244 3097 1772 3097 
Q 1472 3097 1187 3025 
Q 903 2953 641 2809 
L 641 3341 
Q 956 3463 1253 3523 
Q 1550 3584 1831 3584 
Q 2591 3584 2966 3190 
Q 3341 2797 3341 1997 
z
" transform="scale(0.015625)"/>
       <path id="DejaVuSans-63" d="M 3122 3366 
L 3122 2828 
Q 2878 2963 2633 3030 
Q 2388 3097 2138 3097 
Q 1578 3097 1268 2742 
Q 959 2388 959 1747 
Q 959 1106 1268 751 
Q 1578 397 2138 397 
Q 2388 397 2633 464 
Q 2878 531 3122 666 
L 3122 134 
Q 2881 22 2623 -34 
Q 2366 -91 2075 -91 
Q 1284 -91 818 406 
Q 353 903 353 1747 
Q 353 2603 823 3093 
Q 1294 3584 2113 3584 
Q 2378 3584 2631 3529 
Q 2884 3475 3122 3366 
z
" transform="scale(0.015625)"/>
       <path id="DejaVuSans-75" d="M 544 1381 
L 544 3500 
L 1119 3500 
L 1119 1403 
Q 1119 906 1312 657 
Q 1506 409 1894 409 
Q 2359 409 2629 706 
Q 2900 1003 2900 1516 
L 2900 3500 
L 3475 3500 
L 3475 0 
L 2900 0 
L 2900 538 
Q 2691 219 2414 64 
Q 2138 -91 1772 -91 
Q 1169 -91 856 284 
Q 544 659 544 1381 
z
M 1991 3584 
L 1991 3584 
z
" transform="scale(0.015625)"/>
       <path id="DejaVuSans-72" d="M 2631 2963 
Q 2534 3019 2420 3045 
Q 2306 3072 2169 3072 
Q 1681 3072 1420 2755 
Q 1159 2438 1159 1844 
L 1159 0 
L 581 0 
L 581 3500 
L 1159 3500 
L 1159 2956 
Q 1341 3275 1631 3429 
Q 1922 3584 2338 3584 
Q 2397 3584 2469 3576 
Q 2541 3569 2628 3553 
L 2631 2963 
z
" transform="scale(0.015625)"/>
       <path id="DejaVuSans-79" d="M 2059 -325 
Q 1816 -950 1584 -1140 
Q 1353 -1331 966 -1331 
L 506 -1331 
L 506 -850 
L 844 -850 
Q 1081 -850 1212 -737 
Q 1344 -625 1503 -206 
L 1606 56 
L 191 3500 
L 800 3500 
L 1894 763 
L 2988 3500 
L 3597 3500 
L 2059 -325 
z
" transform="scale(0.015625)"/>
      </defs>
      <use xlink:href="#DejaVuSans-61"/>
      <use xlink:href="#DejaVuSans-63" transform="translate(61.279297 0)"/>
      <use xlink:href="#DejaVuSans-63" transform="translate(116.259766 0)"/>
      <use xlink:href="#DejaVuSans-75" transform="translate(171.240234 0)"/>
      <use xlink:href="#DejaVuSans-72" transform="translate(234.619141 0)"/>
      <use xlink:href="#DejaVuSans-61" transform="translate(275.732422 0)"/>
      <use xlink:href="#DejaVuSans-63" transform="translate(337.011719 0)"/>
      <use xlink:href="#DejaVuSans-79" transform="translate(391.992188 0)"/>
     </g>
    </g>
   </g>
   <g id="patch_12">
    <path d="M 96.891653 128.56194 
L 125.069875 128.56194 
L 125.069875 96.456239 
L 96.891653 96.456239 
L 96.891653 128.56194 
z
" clip-path="url(#p7159a53221)" style="fill: #96cac1; stroke: #626262; stroke-linejoin: miter"/>
   </g>
   <g id="line2d_10">
    <path d="M 110.980764 128.56194 
L 110.980764 141.781935 
" clip-path="url(#p7159a53221)" style="fill: none; stroke: #626262"/>
   </g>
   <g id="line2d_11">
    <path d="M 110.980764 96.456239 
L 110.980764 62.461967 
" clip-path="url(#p7159a53221)" style="fill: none; stroke: #626262"/>
   </g>
   <g id="line2d_12">
    <path d="M 103.936208 141.781935 
L 118.025319 141.781935 
" clip-path="url(#p7159a53221)" style="fill: none; stroke: #626262; stroke-linecap: square"/>
   </g>
   <g id="line2d_13">
    <path d="M 103.936208 62.461967 
L 118.025319 62.461967 
" clip-path="url(#p7159a53221)" style="fill: none; stroke: #626262; stroke-linecap: square"/>
   </g>
   <g id="line2d_14"/>
   <g id="patch_13">
    <path d="M 132.114431 113.453375 
L 160.292653 113.453375 
L 160.292653 88.901956 
L 132.114431 88.901956 
L 132.114431 113.453375 
z
" clip-path="url(#p7159a53221)" style="fill: #8aafc9; stroke: #626262; stroke-linejoin: miter"/>
   </g>
   <g id="line2d_15">
    <path d="M 146.203542 113.453375 
L 146.203542 136.116223 
" clip-path="url(#p7159a53221)" style="fill: none; stroke: #626262"/>
   </g>
   <g id="line2d_16">
    <path d="M 146.203542 88.901956 
L 146.203542 68.127679 
" clip-path="url(#p7159a53221)" style="fill: none; stroke: #626262"/>
   </g>
   <g id="line2d_17">
    <path d="M 139.158986 136.116223 
L 153.248097 136.116223 
" clip-path="url(#p7159a53221)" style="fill: none; stroke: #626262; stroke-linecap: square"/>
   </g>
   <g id="line2d_18">
    <path d="M 139.158986 68.127679 
L 153.248097 68.127679 
" clip-path="url(#p7159a53221)" style="fill: none; stroke: #626262; stroke-linecap: square"/>
   </g>
   <g id="line2d_19">
    <defs>
     <path id="m493b277ebb" d="M 0 3 
C 0.795609 3 1.55874 2.683901 2.12132 2.12132 
C 2.683901 1.55874 3 0.795609 3 0 
C 3 -0.795609 2.683901 -1.55874 2.12132 -2.12132 
C 1.55874 -2.683901 0.795609 -3 0 -3 
C -0.795609 -3 -1.55874 -2.683901 -2.12132 -2.12132 
C -2.683901 -1.55874 -3 -0.795609 -3 0 
C -3 0.795609 -2.683901 1.55874 -2.12132 2.12132 
C -1.55874 2.683901 -0.795609 3 0 3 
z
" style="stroke: #626262"/>
    </defs>
    <g clip-path="url(#p7159a53221)">
     <use xlink:href="#m493b277ebb" x="146.203542" y="168.221924" style="fill-opacity: 0; stroke: #626262"/>
     <use xlink:href="#m493b277ebb" x="146.203542" y="45.464831" style="fill-opacity: 0; stroke: #626262"/>
    </g>
   </g>
   <g id="patch_14">
    <path d="M 167.337208 277.759022 
L 195.515431 277.759022 
L 195.515431 224.879044 
L 167.337208 224.879044 
L 167.337208 277.759022 
z
" clip-path="url(#p7159a53221)" style="fill: #d9d9d9; stroke: #626262; stroke-linejoin: miter"/>
   </g>
   <g id="line2d_20">
    <path d="M 181.426319 277.759022 
L 181.426319 292.867587 
" clip-path="url(#p7159a53221)" style="fill: none; stroke: #626262"/>
   </g>
   <g id="line2d_21">
    <path d="M 181.426319 224.879044 
L 181.426319 168.221924 
" clip-path="url(#p7159a53221)" style="fill: none; stroke: #626262"/>
   </g>
   <g id="line2d_22">
    <path d="M 174.381764 292.867587 
L 188.470875 292.867587 
" clip-path="url(#p7159a53221)" style="fill: none; stroke: #626262; stroke-linecap: square"/>
   </g>
   <g id="line2d_23">
    <path d="M 174.381764 168.221924 
L 188.470875 168.221924 
" clip-path="url(#p7159a53221)" style="fill: none; stroke: #626262; stroke-linecap: square"/>
   </g>
   <g id="line2d_24"/>
   <g id="patch_15">
    <path d="M 202.559986 302.31044 
L 230.738208 302.31044 
L 230.738208 290.979017 
L 202.559986 290.979017 
L 202.559986 302.31044 
z
" clip-path="url(#p7159a53221)" style="fill: #c1bed6; stroke: #626262; stroke-linejoin: miter"/>
   </g>
   <g id="line2d_25">
    <path d="M 216.649097 302.31044 
L 216.649097 317.419006 
" clip-path="url(#p7159a53221)" style="fill: none; stroke: #626262"/>
   </g>
   <g id="line2d_26">
    <path d="M 216.649097 290.979017 
L 216.649097 287.201875 
" clip-path="url(#p7159a53221)" style="fill: none; stroke: #626262"/>
   </g>
   <g id="line2d_27">
    <path d="M 209.604542 317.419006 
L 223.693653 317.419006 
" clip-path="url(#p7159a53221)" style="fill: none; stroke: #626262; stroke-linecap: square"/>
   </g>
   <g id="line2d_28">
    <path d="M 209.604542 287.201875 
L 223.693653 287.201875 
" clip-path="url(#p7159a53221)" style="fill: none; stroke: #626262; stroke-linecap: square"/>
   </g>
   <g id="line2d_29">
    <g clip-path="url(#p7159a53221)">
     <use xlink:href="#m493b277ebb" x="216.649097" y="273.981881" style="fill-opacity: 0; stroke: #626262"/>
     <use xlink:href="#m493b277ebb" x="216.649097" y="258.873315" style="fill-opacity: 0; stroke: #626262"/>
    </g>
   </g>
   <g id="patch_16">
    <path d="M 237.782764 128.56194 
L 265.960986 128.56194 
L 265.960986 102.121951 
L 237.782764 102.121951 
L 237.782764 128.56194 
z
" clip-path="url(#p7159a53221)" style="fill: #f6f6bc; stroke: #626262; stroke-linejoin: miter"/>
   </g>
   <g id="line2d_30">
    <path d="M 251.871875 128.56194 
L 251.871875 166.333353 
" clip-path="url(#p7159a53221)" style="fill: none; stroke: #626262"/>
   </g>
   <g id="line2d_31">
    <path d="M 251.871875 102.121951 
L 251.871875 68.127679 
" clip-path="url(#p7159a53221)" style="fill: none; stroke: #626262"/>
   </g>
   <g id="line2d_32">
    <path d="M 244.827319 166.333353 
L 258.916431 166.333353 
" clip-path="url(#p7159a53221)" style="fill: none; stroke: #626262; stroke-linecap: square"/>
   </g>
   <g id="line2d_33">
    <path d="M 244.827319 68.127679 
L 258.916431 68.127679 
" clip-path="url(#p7159a53221)" style="fill: none; stroke: #626262; stroke-linecap: square"/>
   </g>
   <g id="line2d_34"/>
   <g id="patch_17">
    <path d="M 273.005542 122.896228 
L 301.183764 122.896228 
L 301.183764 96.456239 
L 273.005542 96.456239 
L 273.005542 122.896228 
z
" clip-path="url(#p7159a53221)" style="fill: #ea8e83; stroke: #626262; stroke-linejoin: miter"/>
   </g>
   <g id="line2d_35">
    <path d="M 287.094653 122.896228 
L 287.094653 145.559076 
" clip-path="url(#p7159a53221)" style="fill: none; stroke: #626262"/>
   </g>
   <g id="line2d_36">
    <path d="M 287.094653 96.456239 
L 287.094653 62.461967 
" clip-path="url(#p7159a53221)" style="fill: none; stroke: #626262"/>
   </g>
   <g id="line2d_37">
    <path d="M 280.050097 145.559076 
L 294.139208 145.559076 
" clip-path="url(#p7159a53221)" style="fill: none; stroke: #626262; stroke-linecap: square"/>
   </g>
   <g id="line2d_38">
    <path d="M 280.050097 62.461967 
L 294.139208 62.461967 
" clip-path="url(#p7159a53221)" style="fill: none; stroke: #626262; stroke-linecap: square"/>
   </g>
   <g id="line2d_39">
    <g clip-path="url(#p7159a53221)">
     <use xlink:href="#m493b277ebb" x="287.094653" y="166.333353" style="fill-opacity: 0; stroke: #626262"/>
    </g>
   </g>
   <g id="patch_18">
    <path d="M 308.228319 302.31044 
L 336.406542 302.31044 
L 336.406542 302.31044 
L 308.228319 302.31044 
L 308.228319 302.31044 
z
" clip-path="url(#p7159a53221)" style="fill: #eab375; stroke: #626262; stroke-linejoin: miter"/>
   </g>
   <g id="line2d_40">
    <path d="M 322.317431 302.31044 
L 322.317431 302.31044 
" clip-path="url(#p7159a53221)" style="fill: none; stroke: #626262"/>
   </g>
   <g id="line2d_41">
    <path d="M 322.317431 302.31044 
L 322.317431 302.31044 
" clip-path="url(#p7159a53221)" style="fill: none; stroke: #626262"/>
   </g>
   <g id="line2d_42">
    <path d="M 315.272875 302.31044 
L 329.361986 302.31044 
" clip-path="url(#p7159a53221)" style="fill: none; stroke: #626262; stroke-linecap: square"/>
   </g>
   <g id="line2d_43">
    <path d="M 315.272875 302.31044 
L 329.361986 302.31044 
" clip-path="url(#p7159a53221)" style="fill: none; stroke: #626262; stroke-linecap: square"/>
   </g>
   <g id="line2d_44">
    <g clip-path="url(#p7159a53221)">
     <use xlink:href="#m493b277ebb" x="322.317431" y="306.087582" style="fill-opacity: 0; stroke: #626262"/>
    </g>
   </g>
   <g id="patch_19">
    <path d="M 343.451097 302.31044 
L 371.629319 302.31044 
L 371.629319 302.31044 
L 343.451097 302.31044 
L 343.451097 302.31044 
z
" clip-path="url(#p7159a53221)" style="fill: #afcf78; stroke: #626262; stroke-linejoin: miter"/>
   </g>
   <g id="line2d_45">
    <path d="M 357.540208 302.31044 
L 357.540208 302.31044 
" clip-path="url(#p7159a53221)" style="fill: none; stroke: #626262"/>
   </g>
   <g id="line2d_46">
    <path d="M 357.540208 302.31044 
L 357.540208 302.31044 
" clip-path="url(#p7159a53221)" style="fill: none; stroke: #626262"/>
   </g>
   <g id="line2d_47">
    <path d="M 350.495653 302.31044 
L 364.584764 302.31044 
" clip-path="url(#p7159a53221)" style="fill: none; stroke: #626262; stroke-linecap: square"/>
   </g>
   <g id="line2d_48">
    <path d="M 350.495653 302.31044 
L 364.584764 302.31044 
" clip-path="url(#p7159a53221)" style="fill: none; stroke: #626262; stroke-linecap: square"/>
   </g>
   <g id="line2d_49"/>
   <g id="patch_20">
    <path d="M 378.673875 113.453375 
L 406.852097 113.453375 
L 406.852097 70.01625 
L 378.673875 70.01625 
L 378.673875 113.453375 
z
" clip-path="url(#p7159a53221)" style="fill: #f6d3e5; stroke: #626262; stroke-linejoin: miter"/>
   </g>
   <g id="line2d_50">
    <path d="M 392.762986 113.453375 
L 392.762986 151.224788 
" clip-path="url(#p7159a53221)" style="fill: none; stroke: #626262"/>
   </g>
   <g id="line2d_51">
    <path d="M 392.762986 70.01625 
L 392.762986 39.799119 
" clip-path="url(#p7159a53221)" style="fill: none; stroke: #626262"/>
   </g>
   <g id="line2d_52">
    <path d="M 385.718431 151.224788 
L 399.807542 151.224788 
" clip-path="url(#p7159a53221)" style="fill: none; stroke: #626262; stroke-linecap: square"/>
   </g>
   <g id="line2d_53">
    <path d="M 385.718431 39.799119 
L 399.807542 39.799119 
" clip-path="url(#p7159a53221)" style="fill: none; stroke: #626262; stroke-linecap: square"/>
   </g>
   <g id="line2d_54"/>
   <g id="line2d_55">
    <path d="M 53.74375 88.901956 
L 450 88.901956 
" clip-path="url(#p7159a53221)" style="fill: none; stroke-dasharray: 1.5,2.475; stroke-dashoffset: 0; stroke: #808080; stroke-width: 1.5"/>
   </g>
   <g id="line2d_56">
    <path d="M 96.891653 107.787663 
L 125.069875 107.787663 
" clip-path="url(#p7159a53221)" style="fill: none; stroke: #626262"/>
   </g>
   <g id="line2d_57">
    <path d="M 132.114431 102.121951 
L 160.292653 102.121951 
" clip-path="url(#p7159a53221)" style="fill: none; stroke: #626262"/>
   </g>
   <g id="line2d_58">
    <path d="M 167.337208 255.096174 
L 195.515431 255.096174 
" clip-path="url(#p7159a53221)" style="fill: none; stroke: #626262"/>
   </g>
   <g id="line2d_59">
    <path d="M 202.559986 298.533299 
L 230.738208 298.533299 
" clip-path="url(#p7159a53221)" style="fill: none; stroke: #626262"/>
   </g>
   <g id="line2d_60">
    <path d="M 237.782764 117.230516 
L 265.960986 117.230516 
" clip-path="url(#p7159a53221)" style="fill: none; stroke: #626262"/>
   </g>
   <g id="line2d_61">
    <path d="M 273.005542 111.564804 
L 301.183764 111.564804 
" clip-path="url(#p7159a53221)" style="fill: none; stroke: #626262"/>
   </g>
   <g id="line2d_62">
    <path d="M 308.228319 302.31044 
L 336.406542 302.31044 
" clip-path="url(#p7159a53221)" style="fill: none; stroke: #626262"/>
   </g>
   <g id="line2d_63">
    <path d="M 343.451097 302.31044 
L 371.629319 302.31044 
" clip-path="url(#p7159a53221)" style="fill: none; stroke: #626262"/>
   </g>
   <g id="line2d_64">
    <path d="M 378.673875 88.901956 
L 406.852097 88.901956 
" clip-path="url(#p7159a53221)" style="fill: none; stroke: #626262"/>
   </g>
   <g id="patch_21">
    <path d="M 53.74375 331.3 
L 53.74375 25.918125 
" style="fill: none; stroke: #000000; stroke-width: 0.8; stroke-linejoin: miter; stroke-linecap: square"/>
   </g>
   <g id="patch_22">
    <path d="M 450 331.3 
L 450 25.918125 
" style="fill: none; stroke: #000000; stroke-width: 0.8; stroke-linejoin: miter; stroke-linecap: square"/>
   </g>
   <g id="patch_23">
    <path d="M 53.74375 331.3 
L 450 331.3 
" style="fill: none; stroke: #000000; stroke-width: 0.8; stroke-linejoin: miter; stroke-linecap: square"/>
   </g>
   <g id="patch_24">
    <path d="M 53.74375 25.918125 
L 450 25.918125 
" style="fill: none; stroke: #000000; stroke-width: 0.8; stroke-linejoin: miter; stroke-linecap: square"/>
   </g>
   <g id="text_10">
    <!-- hueveras_0 -  accuracy por clf (boxplot) -->
    <g transform="translate(132.517812 19.918125) scale(0.12 -0.12)">
     <defs>
      <path id="DejaVuSans-68" d="M 3513 2113 
L 3513 0 
L 2938 0 
L 2938 2094 
Q 2938 2591 2744 2837 
Q 2550 3084 2163 3084 
Q 1697 3084 1428 2787 
Q 1159 2491 1159 1978 
L 1159 0 
L 581 0 
L 581 4863 
L 1159 4863 
L 1159 2956 
Q 1366 3272 1645 3428 
Q 1925 3584 2291 3584 
Q 2894 3584 3203 3211 
Q 3513 2838 3513 2113 
z
" transform="scale(0.015625)"/>
      <path id="DejaVuSans-65" d="M 3597 1894 
L 3597 1613 
L 953 1613 
Q 991 1019 1311 708 
Q 1631 397 2203 397 
Q 2534 397 2845 478 
Q 3156 559 3463 722 
L 3463 178 
Q 3153 47 2828 -22 
Q 2503 -91 2169 -91 
Q 1331 -91 842 396 
Q 353 884 353 1716 
Q 353 2575 817 3079 
Q 1281 3584 2069 3584 
Q 2775 3584 3186 3129 
Q 3597 2675 3597 1894 
z
M 3022 2063 
Q 3016 2534 2758 2815 
Q 2500 3097 2075 3097 
Q 1594 3097 1305 2825 
Q 1016 2553 972 2059 
L 3022 2063 
z
" transform="scale(0.015625)"/>
      <path id="DejaVuSans-76" d="M 191 3500 
L 800 3500 
L 1894 563 
L 2988 3500 
L 3597 3500 
L 2284 0 
L 1503 0 
L 191 3500 
z
" transform="scale(0.015625)"/>
      <path id="DejaVuSans-73" d="M 2834 3397 
L 2834 2853 
Q 2591 2978 2328 3040 
Q 2066 3103 1784 3103 
Q 1356 3103 1142 2972 
Q 928 2841 928 2578 
Q 928 2378 1081 2264 
Q 1234 2150 1697 2047 
L 1894 2003 
Q 2506 1872 2764 1633 
Q 3022 1394 3022 966 
Q 3022 478 2636 193 
Q 2250 -91 1575 -91 
Q 1294 -91 989 -36 
Q 684 19 347 128 
L 347 722 
Q 666 556 975 473 
Q 1284 391 1588 391 
Q 1994 391 2212 530 
Q 2431 669 2431 922 
Q 2431 1156 2273 1281 
Q 2116 1406 1581 1522 
L 1381 1569 
Q 847 1681 609 1914 
Q 372 2147 372 2553 
Q 372 3047 722 3315 
Q 1072 3584 1716 3584 
Q 2034 3584 2315 3537 
Q 2597 3491 2834 3397 
z
" transform="scale(0.015625)"/>
      <path id="DejaVuSans-5f" d="M 3263 -1063 
L 3263 -1509 
L -63 -1509 
L -63 -1063 
L 3263 -1063 
z
" transform="scale(0.015625)"/>
      <path id="DejaVuSans-20" transform="scale(0.015625)"/>
      <path id="DejaVuSans-2d" d="M 313 2009 
L 1997 2009 
L 1997 1497 
L 313 1497 
L 313 2009 
z
" transform="scale(0.015625)"/>
      <path id="DejaVuSans-70" d="M 1159 525 
L 1159 -1331 
L 581 -1331 
L 581 3500 
L 1159 3500 
L 1159 2969 
Q 1341 3281 1617 3432 
Q 1894 3584 2278 3584 
Q 2916 3584 3314 3078 
Q 3713 2572 3713 1747 
Q 3713 922 3314 415 
Q 2916 -91 2278 -91 
Q 1894 -91 1617 61 
Q 1341 213 1159 525 
z
M 3116 1747 
Q 3116 2381 2855 2742 
Q 2594 3103 2138 3103 
Q 1681 3103 1420 2742 
Q 1159 2381 1159 1747 
Q 1159 1113 1420 752 
Q 1681 391 2138 391 
Q 2594 391 2855 752 
Q 3116 1113 3116 1747 
z
" transform="scale(0.015625)"/>
      <path id="DejaVuSans-6f" d="M 1959 3097 
Q 1497 3097 1228 2736 
Q 959 2375 959 1747 
Q 959 1119 1226 758 
Q 1494 397 1959 397 
Q 2419 397 2687 759 
Q 2956 1122 2956 1747 
Q 2956 2369 2687 2733 
Q 2419 3097 1959 3097 
z
M 1959 3584 
Q 2709 3584 3137 3096 
Q 3566 2609 3566 1747 
Q 3566 888 3137 398 
Q 2709 -91 1959 -91 
Q 1206 -91 779 398 
Q 353 888 353 1747 
Q 353 2609 779 3096 
Q 1206 3584 1959 3584 
z
" transform="scale(0.015625)"/>
      <path id="DejaVuSans-6c" d="M 603 4863 
L 1178 4863 
L 1178 0 
L 603 0 
L 603 4863 
z
" transform="scale(0.015625)"/>
      <path id="DejaVuSans-66" d="M 2375 4863 
L 2375 4384 
L 1825 4384 
Q 1516 4384 1395 4259 
Q 1275 4134 1275 3809 
L 1275 3500 
L 2222 3500 
L 2222 3053 
L 1275 3053 
L 1275 0 
L 697 0 
L 697 3053 
L 147 3053 
L 147 3500 
L 697 3500 
L 697 3744 
Q 697 4328 969 4595 
Q 1241 4863 1831 4863 
L 2375 4863 
z
" transform="scale(0.015625)"/>
      <path id="DejaVuSans-28" d="M 1984 4856 
Q 1566 4138 1362 3434 
Q 1159 2731 1159 2009 
Q 1159 1288 1364 580 
Q 1569 -128 1984 -844 
L 1484 -844 
Q 1016 -109 783 600 
Q 550 1309 550 2009 
Q 550 2706 781 3412 
Q 1013 4119 1484 4856 
L 1984 4856 
z
" transform="scale(0.015625)"/>
      <path id="DejaVuSans-62" d="M 3116 1747 
Q 3116 2381 2855 2742 
Q 2594 3103 2138 3103 
Q 1681 3103 1420 2742 
Q 1159 2381 1159 1747 
Q 1159 1113 1420 752 
Q 1681 391 2138 391 
Q 2594 391 2855 752 
Q 3116 1113 3116 1747 
z
M 1159 2969 
Q 1341 3281 1617 3432 
Q 1894 3584 2278 3584 
Q 2916 3584 3314 3078 
Q 3713 2572 3713 1747 
Q 3713 922 3314 415 
Q 2916 -91 2278 -91 
Q 1894 -91 1617 61 
Q 1341 213 1159 525 
L 1159 0 
L 581 0 
L 581 4863 
L 1159 4863 
L 1159 2969 
z
" transform="scale(0.015625)"/>
      <path id="DejaVuSans-78" d="M 3513 3500 
L 2247 1797 
L 3578 0 
L 2900 0 
L 1881 1375 
L 863 0 
L 184 0 
L 1544 1831 
L 300 3500 
L 978 3500 
L 1906 2253 
L 2834 3500 
L 3513 3500 
z
" transform="scale(0.015625)"/>
      <path id="DejaVuSans-74" d="M 1172 4494 
L 1172 3500 
L 2356 3500 
L 2356 3053 
L 1172 3053 
L 1172 1153 
Q 1172 725 1289 603 
Q 1406 481 1766 481 
L 2356 481 
L 2356 0 
L 1766 0 
Q 1100 0 847 248 
Q 594 497 594 1153 
L 594 3053 
L 172 3053 
L 172 3500 
L 594 3500 
L 594 4494 
L 1172 4494 
z
" transform="scale(0.015625)"/>
      <path id="DejaVuSans-29" d="M 513 4856 
L 1013 4856 
Q 1481 4119 1714 3412 
Q 1947 2706 1947 2009 
Q 1947 1309 1714 600 
Q 1481 -109 1013 -844 
L 513 -844 
Q 928 -128 1133 580 
Q 1338 1288 1338 2009 
Q 1338 2731 1133 3434 
Q 928 4138 513 4856 
z
" transform="scale(0.015625)"/>
     </defs>
     <use xlink:href="#DejaVuSans-68"/>
     <use xlink:href="#DejaVuSans-75" transform="translate(63.378906 0)"/>
     <use xlink:href="#DejaVuSans-65" transform="translate(126.757812 0)"/>
     <use xlink:href="#DejaVuSans-76" transform="translate(188.28125 0)"/>
     <use xlink:href="#DejaVuSans-65" transform="translate(247.460938 0)"/>
     <use xlink:href="#DejaVuSans-72" transform="translate(308.984375 0)"/>
     <use xlink:href="#DejaVuSans-61" transform="translate(350.097656 0)"/>
     <use xlink:href="#DejaVuSans-73" transform="translate(411.376953 0)"/>
     <use xlink:href="#DejaVuSans-5f" transform="translate(463.476562 0)"/>
     <use xlink:href="#DejaVuSans-30" transform="translate(513.476562 0)"/>
     <use xlink:href="#DejaVuSans-20" transform="translate(577.099609 0)"/>
     <use xlink:href="#DejaVuSans-2d" transform="translate(608.886719 0)"/>
     <use xlink:href="#DejaVuSans-20" transform="translate(644.970703 0)"/>
     <use xlink:href="#DejaVuSans-20" transform="translate(676.757812 0)"/>
     <use xlink:href="#DejaVuSans-61" transform="translate(708.544922 0)"/>
     <use xlink:href="#DejaVuSans-63" transform="translate(769.824219 0)"/>
     <use xlink:href="#DejaVuSans-63" transform="translate(824.804688 0)"/>
     <use xlink:href="#DejaVuSans-75" transform="translate(879.785156 0)"/>
     <use xlink:href="#DejaVuSans-72" transform="translate(943.164062 0)"/>
     <use xlink:href="#DejaVuSans-61" transform="translate(984.277344 0)"/>
     <use xlink:href="#DejaVuSans-63" transform="translate(1045.556641 0)"/>
     <use xlink:href="#DejaVuSans-79" transform="translate(1100.537109 0)"/>
     <use xlink:href="#DejaVuSans-20" transform="translate(1159.716797 0)"/>
     <use xlink:href="#DejaVuSans-70" transform="translate(1191.503906 0)"/>
     <use xlink:href="#DejaVuSans-6f" transform="translate(1254.980469 0)"/>
     <use xlink:href="#DejaVuSans-72" transform="translate(1316.162109 0)"/>
     <use xlink:href="#DejaVuSans-20" transform="translate(1357.275391 0)"/>
     <use xlink:href="#DejaVuSans-63" transform="translate(1389.0625 0)"/>
     <use xlink:href="#DejaVuSans-6c" transform="translate(1444.042969 0)"/>
     <use xlink:href="#DejaVuSans-66" transform="translate(1471.826172 0)"/>
     <use xlink:href="#DejaVuSans-20" transform="translate(1507.03125 0)"/>
     <use xlink:href="#DejaVuSans-28" transform="translate(1538.818359 0)"/>
     <use xlink:href="#DejaVuSans-62" transform="translate(1577.832031 0)"/>
     <use xlink:href="#DejaVuSans-6f" transform="translate(1641.308594 0)"/>
     <use xlink:href="#DejaVuSans-78" transform="translate(1699.365234 0)"/>
     <use xlink:href="#DejaVuSans-70" transform="translate(1758.544922 0)"/>
     <use xlink:href="#DejaVuSans-6c" transform="translate(1822.021484 0)"/>
     <use xlink:href="#DejaVuSans-6f" transform="translate(1849.804688 0)"/>
     <use xlink:href="#DejaVuSans-74" transform="translate(1910.986328 0)"/>
     <use xlink:href="#DejaVuSans-29" transform="translate(1950.195312 0)"/>
    </g>
   </g>
   <g id="legend_1">
    <g id="patch_25">
     <path d="M 60.74375 326.3 
L 113.901563 326.3 
Q 115.901563 326.3 115.901563 324.3 
L 115.901563 178.51875 
Q 115.901563 176.51875 113.901563 176.51875 
L 60.74375 176.51875 
Q 58.74375 176.51875 58.74375 178.51875 
L 58.74375 324.3 
Q 58.74375 326.3 60.74375 326.3 
z
" style="fill: #ffffff; opacity: 0.8; stroke: #cccccc; stroke-linejoin: miter"/>
    </g>
    <g id="text_11">
     <!-- clf -->
     <g transform="translate(81.424219 188.117188) scale(0.1 -0.1)">
      <use xlink:href="#DejaVuSans-63"/>
      <use xlink:href="#DejaVuSans-6c" transform="translate(54.980469 0)"/>
      <use xlink:href="#DejaVuSans-66" transform="translate(82.763672 0)"/>
     </g>
    </g>
    <g id="patch_26">
     <path d="M 62.74375 202.795313 
L 82.74375 202.795313 
L 82.74375 195.795313 
L 62.74375 195.795313 
z
" style="fill: #96cac1; stroke: #626262; stroke-linejoin: miter"/>
    </g>
    <g id="text_12">
     <!-- fkdc -->
     <g transform="translate(90.74375 202.795313) scale(0.1 -0.1)">
      <defs>
       <path id="DejaVuSans-6b" d="M 581 4863 
L 1159 4863 
L 1159 1991 
L 2875 3500 
L 3609 3500 
L 1753 1863 
L 3688 0 
L 2938 0 
L 1159 1709 
L 1159 0 
L 581 0 
L 581 4863 
z
" transform="scale(0.015625)"/>
       <path id="DejaVuSans-64" d="M 2906 2969 
L 2906 4863 
L 3481 4863 
L 3481 0 
L 2906 0 
L 2906 525 
Q 2725 213 2448 61 
Q 2172 -91 1784 -91 
Q 1150 -91 751 415 
Q 353 922 353 1747 
Q 353 2572 751 3078 
Q 1150 3584 1784 3584 
Q 2172 3584 2448 3432 
Q 2725 3281 2906 2969 
z
M 947 1747 
Q 947 1113 1208 752 
Q 1469 391 1925 391 
Q 2381 391 2643 752 
Q 2906 1113 2906 1747 
Q 2906 2381 2643 2742 
Q 2381 3103 1925 3103 
Q 1469 3103 1208 2742 
Q 947 2381 947 1747 
z
" transform="scale(0.015625)"/>
      </defs>
      <use xlink:href="#DejaVuSans-66"/>
      <use xlink:href="#DejaVuSans-6b" transform="translate(35.205078 0)"/>
      <use xlink:href="#DejaVuSans-64" transform="translate(93.115234 0)"/>
      <use xlink:href="#DejaVuSans-63" transform="translate(156.591797 0)"/>
     </g>
    </g>
    <g id="patch_27">
     <path d="M 62.74375 217.473438 
L 82.74375 217.473438 
L 82.74375 210.473438 
L 62.74375 210.473438 
z
" style="fill: #8aafc9; stroke: #626262; stroke-linejoin: miter"/>
    </g>
    <g id="text_13">
     <!-- fkn -->
     <g transform="translate(90.74375 217.473438) scale(0.1 -0.1)">
      <defs>
       <path id="DejaVuSans-6e" d="M 3513 2113 
L 3513 0 
L 2938 0 
L 2938 2094 
Q 2938 2591 2744 2837 
Q 2550 3084 2163 3084 
Q 1697 3084 1428 2787 
Q 1159 2491 1159 1978 
L 1159 0 
L 581 0 
L 581 3500 
L 1159 3500 
L 1159 2956 
Q 1366 3272 1645 3428 
Q 1925 3584 2291 3584 
Q 2894 3584 3203 3211 
Q 3513 2838 3513 2113 
z
" transform="scale(0.015625)"/>
      </defs>
      <use xlink:href="#DejaVuSans-66"/>
      <use xlink:href="#DejaVuSans-6b" transform="translate(35.205078 0)"/>
      <use xlink:href="#DejaVuSans-6e" transform="translate(93.115234 0)"/>
     </g>
    </g>
    <g id="patch_28">
     <path d="M 62.74375 232.151563 
L 82.74375 232.151563 
L 82.74375 225.151563 
L 62.74375 225.151563 
z
" style="fill: #d9d9d9; stroke: #626262; stroke-linejoin: miter"/>
    </g>
    <g id="text_14">
     <!-- gbt -->
     <g transform="translate(90.74375 232.151563) scale(0.1 -0.1)">
      <defs>
       <path id="DejaVuSans-67" d="M 2906 1791 
Q 2906 2416 2648 2759 
Q 2391 3103 1925 3103 
Q 1463 3103 1205 2759 
Q 947 2416 947 1791 
Q 947 1169 1205 825 
Q 1463 481 1925 481 
Q 2391 481 2648 825 
Q 2906 1169 2906 1791 
z
M 3481 434 
Q 3481 -459 3084 -895 
Q 2688 -1331 1869 -1331 
Q 1566 -1331 1297 -1286 
Q 1028 -1241 775 -1147 
L 775 -588 
Q 1028 -725 1275 -790 
Q 1522 -856 1778 -856 
Q 2344 -856 2625 -561 
Q 2906 -266 2906 331 
L 2906 616 
Q 2728 306 2450 153 
Q 2172 0 1784 0 
Q 1141 0 747 490 
Q 353 981 353 1791 
Q 353 2603 747 3093 
Q 1141 3584 1784 3584 
Q 2172 3584 2450 3431 
Q 2728 3278 2906 2969 
L 2906 3500 
L 3481 3500 
L 3481 434 
z
" transform="scale(0.015625)"/>
      </defs>
      <use xlink:href="#DejaVuSans-67"/>
      <use xlink:href="#DejaVuSans-62" transform="translate(63.476562 0)"/>
      <use xlink:href="#DejaVuSans-74" transform="translate(126.953125 0)"/>
     </g>
    </g>
    <g id="patch_29">
     <path d="M 62.74375 246.829688 
L 82.74375 246.829688 
L 82.74375 239.829688 
L 62.74375 239.829688 
z
" style="fill: #c1bed6; stroke: #626262; stroke-linejoin: miter"/>
    </g>
    <g id="text_15">
     <!-- gnb -->
     <g transform="translate(90.74375 246.829688) scale(0.1 -0.1)">
      <use xlink:href="#DejaVuSans-67"/>
      <use xlink:href="#DejaVuSans-6e" transform="translate(63.476562 0)"/>
      <use xlink:href="#DejaVuSans-62" transform="translate(126.855469 0)"/>
     </g>
    </g>
    <g id="patch_30">
     <path d="M 62.74375 261.507812 
L 82.74375 261.507812 
L 82.74375 254.507812 
L 62.74375 254.507812 
z
" style="fill: #f6f6bc; stroke: #626262; stroke-linejoin: miter"/>
    </g>
    <g id="text_16">
     <!-- kdc -->
     <g transform="translate(90.74375 261.507812) scale(0.1 -0.1)">
      <use xlink:href="#DejaVuSans-6b"/>
      <use xlink:href="#DejaVuSans-64" transform="translate(57.910156 0)"/>
      <use xlink:href="#DejaVuSans-63" transform="translate(121.386719 0)"/>
     </g>
    </g>
    <g id="patch_31">
     <path d="M 62.74375 276.185938 
L 82.74375 276.185938 
L 82.74375 269.185938 
L 62.74375 269.185938 
z
" style="fill: #ea8e83; stroke: #626262; stroke-linejoin: miter"/>
    </g>
    <g id="text_17">
     <!-- kn -->
     <g transform="translate(90.74375 276.185938) scale(0.1 -0.1)">
      <use xlink:href="#DejaVuSans-6b"/>
      <use xlink:href="#DejaVuSans-6e" transform="translate(57.910156 0)"/>
     </g>
    </g>
    <g id="patch_32">
     <path d="M 62.74375 290.864063 
L 82.74375 290.864063 
L 82.74375 283.864063 
L 62.74375 283.864063 
z
" style="fill: #eab375; stroke: #626262; stroke-linejoin: miter"/>
    </g>
    <g id="text_18">
     <!-- lr -->
     <g transform="translate(90.74375 290.864063) scale(0.1 -0.1)">
      <use xlink:href="#DejaVuSans-6c"/>
      <use xlink:href="#DejaVuSans-72" transform="translate(27.783203 0)"/>
     </g>
    </g>
    <g id="patch_33">
     <path d="M 62.74375 305.542188 
L 82.74375 305.542188 
L 82.74375 298.542188 
L 62.74375 298.542188 
z
" style="fill: #afcf78; stroke: #626262; stroke-linejoin: miter"/>
    </g>
    <g id="text_19">
     <!-- slr -->
     <g transform="translate(90.74375 305.542188) scale(0.1 -0.1)">
      <use xlink:href="#DejaVuSans-73"/>
      <use xlink:href="#DejaVuSans-6c" transform="translate(52.099609 0)"/>
      <use xlink:href="#DejaVuSans-72" transform="translate(79.882812 0)"/>
     </g>
    </g>
    <g id="patch_34">
     <path d="M 62.74375 320.220312 
L 82.74375 320.220312 
L 82.74375 313.220312 
L 62.74375 313.220312 
z
" style="fill: #f6d3e5; stroke: #626262; stroke-linejoin: miter"/>
    </g>
    <g id="text_20">
     <!-- svc -->
     <g transform="translate(90.74375 320.220312) scale(0.1 -0.1)">
      <use xlink:href="#DejaVuSans-73"/>
      <use xlink:href="#DejaVuSans-76" transform="translate(52.099609 0)"/>
      <use xlink:href="#DejaVuSans-63" transform="translate(111.279297 0)"/>
     </g>
    </g>
   </g>
  </g>
 </g>
 <defs>
  <clipPath id="p7159a53221">
   <rect x="53.74375" y="25.918125" width="396.25625" height="305.381875"/>
  </clipPath>
 </defs>
</svg>
