<?xml version="1.0" encoding="utf-8" standalone="no"?>
<!DOCTYPE svg PUBLIC "-//W3C//DTD SVG 1.1//EN"
  "http://www.w3.org/Graphics/SVG/1.1/DTD/svg11.dtd">
<svg xmlns:xlink="http://www.w3.org/1999/xlink" width="453.6pt" height="338.4pt" viewBox="0 0 453.6 338.4" xmlns="http://www.w3.org/2000/svg" version="1.1">
 <metadata>
  <rdf:RDF xmlns:dc="http://purl.org/dc/elements/1.1/" xmlns:cc="http://creativecommons.org/ns#" xmlns:rdf="http://www.w3.org/1999/02/22-rdf-syntax-ns#">
   <cc:Work>
    <dc:type rdf:resource="http://purl.org/dc/dcmitype/StillImage"/>
    <dc:date>1970-01-01T00:00:00+00:00</dc:date>
    <dc:format>image/svg+xml</dc:format>
    <dc:creator>
     <cc:Agent>
      <dc:title>Matplotlib v3.10.7, https://matplotlib.org/</dc:title>
     </cc:Agent>
    </dc:creator>
   </cc:Work>
  </rdf:RDF>
 </metadata>
 <defs>
  <style type="text/css">*{stroke-linejoin: round; stroke-linecap: butt}</style>
 </defs>
 <g id="figure_1">
  <g id="patch_1">
   <path d="M 0 338.4 
L 453.6 338.4 
L 453.6 0 
L 0 0 
z
" style="fill: #ffffff"/>
  </g>
  <g id="axes_1">
   <g id="patch_2">
    <path d="M 53.751563 327.7 
L 446.4 327.7 
L 446.4 7.2 
L 53.751563 7.2 
z
" style="fill: #ffffff"/>
   </g>
   <g id="patch_3">
    <path d="M 250.075781 185.940462 
L 250.075781 185.940462 
L 250.075781 185.940462 
L 250.075781 185.940462 
z
" clip-path="url(#pba3e51a94f)" style="fill: #b3e2cd; stroke: #7a7a7a; stroke-linejoin: miter"/>
   </g>
   <g id="patch_4">
    <path d="M 250.075781 185.940462 
L 250.075781 185.940462 
L 250.075781 185.940462 
L 250.075781 185.940462 
z
" clip-path="url(#pba3e51a94f)" style="fill: #fdcdac; stroke: #7a7a7a; stroke-linejoin: miter"/>
   </g>
   <g id="patch_5">
    <path d="M 250.075781 185.940462 
L 250.075781 185.940462 
L 250.075781 185.940462 
L 250.075781 185.940462 
z
" clip-path="url(#pba3e51a94f)" style="fill: #f4cae4; stroke: #7a7a7a; stroke-linejoin: miter"/>
   </g>
   <g id="patch_6">
    <path d="M 250.075781 185.940462 
L 250.075781 185.940462 
L 250.075781 185.940462 
L 250.075781 185.940462 
z
" clip-path="url(#pba3e51a94f)" style="fill: #e6f5c9; stroke: #7a7a7a; stroke-linejoin: miter"/>
   </g>
   <g id="patch_7">
    <path d="M 250.075781 185.940462 
L 250.075781 185.940462 
L 250.075781 185.940462 
L 250.075781 185.940462 
z
" clip-path="url(#pba3e51a94f)" style="fill: #b3e2cd; stroke: #7a7a7a; stroke-linejoin: miter"/>
   </g>
   <g id="patch_8">
    <path d="M 250.075781 185.940462 
L 250.075781 185.940462 
L 250.075781 185.940462 
L 250.075781 185.940462 
z
" clip-path="url(#pba3e51a94f)" style="fill: #fdcdac; stroke: #7a7a7a; stroke-linejoin: miter"/>
   </g>
   <g id="patch_9">
    <path d="M 250.075781 185.940462 
L 250.075781 185.940462 
L 250.075781 185.940462 
L 250.075781 185.940462 
z
" clip-path="url(#pba3e51a94f)" style="fill: #cbd5e8; stroke: #7a7a7a; stroke-linejoin: miter"/>
   </g>
   <g id="patch_10">
    <path d="M 250.075781 185.940462 
L 250.075781 185.940462 
L 250.075781 185.940462 
L 250.075781 185.940462 
z
" clip-path="url(#pba3e51a94f)" style="fill: #cbd5e8; stroke: #7a7a7a; stroke-linejoin: miter"/>
   </g>
   <g id="matplotlib.axis_1">
    <g id="xtick_1">
     <g id="line2d_1">
      <defs>
       <path id="m38f3b05bbe" d="M 0 0 
L 0 3.5 
" style="stroke: #000000; stroke-width: 0.8"/>
      </defs>
      <g>
       <use xlink:href="#m38f3b05bbe" x="250.075781" y="327.7" style="stroke: #000000; stroke-width: 0.8"/>
      </g>
     </g>
    </g>
   </g>
   <g id="matplotlib.axis_2">
    <g id="ytick_1">
     <g id="line2d_2">
      <defs>
       <path id="mbd2f377c6c" d="M 0 0 
L -3.5 0 
" style="stroke: #000000; stroke-width: 0.8"/>
      </defs>
      <g>
       <use xlink:href="#mbd2f377c6c" x="53.751563" y="316.341596" style="stroke: #000000; stroke-width: 0.8"/>
      </g>
     </g>
     <g id="text_1">
      <!-- -0.75 -->
      <g transform="translate(20.878125 320.140815) scale(0.1 -0.1)">
       <defs>
        <path id="DejaVuSans-2d" d="M 313 2009 
L 1997 2009 
L 1997 1497 
L 313 1497 
L 313 2009 
z
" transform="scale(0.015625)"/>
        <path id="DejaVuSans-30" d="M 2034 4250 
Q 1547 4250 1301 3770 
Q 1056 3291 1056 2328 
Q 1056 1369 1301 889 
Q 1547 409 2034 409 
Q 2525 409 2770 889 
Q 3016 1369 3016 2328 
Q 3016 3291 2770 3770 
Q 2525 4250 2034 4250 
z
M 2034 4750 
Q 2819 4750 3233 4129 
Q 3647 3509 3647 2328 
Q 3647 1150 3233 529 
Q 2819 -91 2034 -91 
Q 1250 -91 836 529 
Q 422 1150 422 2328 
Q 422 3509 836 4129 
Q 1250 4750 2034 4750 
z
" transform="scale(0.015625)"/>
        <path id="DejaVuSans-2e" d="M 684 794 
L 1344 794 
L 1344 0 
L 684 0 
L 684 794 
z
" transform="scale(0.015625)"/>
        <path id="DejaVuSans-37" d="M 525 4666 
L 3525 4666 
L 3525 4397 
L 1831 0 
L 1172 0 
L 2766 4134 
L 525 4134 
L 525 4666 
z
" transform="scale(0.015625)"/>
        <path id="DejaVuSans-35" d="M 691 4666 
L 3169 4666 
L 3169 4134 
L 1269 4134 
L 1269 2991 
Q 1406 3038 1543 3061 
Q 1681 3084 1819 3084 
Q 2600 3084 3056 2656 
Q 3513 2228 3513 1497 
Q 3513 744 3044 326 
Q 2575 -91 1722 -91 
Q 1428 -91 1123 -41 
Q 819 9 494 109 
L 494 744 
Q 775 591 1075 516 
Q 1375 441 1709 441 
Q 2250 441 2565 725 
Q 2881 1009 2881 1497 
Q 2881 1984 2565 2268 
Q 2250 2553 1709 2553 
Q 1456 2553 1204 2497 
Q 953 2441 691 2322 
L 691 4666 
z
" transform="scale(0.015625)"/>
       </defs>
       <use xlink:href="#DejaVuSans-2d"/>
       <use xlink:href="#DejaVuSans-30" transform="translate(36.083984 0)"/>
       <use xlink:href="#DejaVuSans-2e" transform="translate(99.707031 0)"/>
       <use xlink:href="#DejaVuSans-37" transform="translate(131.494141 0)"/>
       <use xlink:href="#DejaVuSans-35" transform="translate(195.117188 0)"/>
      </g>
     </g>
    </g>
    <g id="ytick_2">
     <g id="line2d_3">
      <g>
       <use xlink:href="#mbd2f377c6c" x="53.751563" y="272.874551" style="stroke: #000000; stroke-width: 0.8"/>
      </g>
     </g>
     <g id="text_2">
      <!-- -0.50 -->
      <g transform="translate(20.878125 276.67377) scale(0.1 -0.1)">
       <use xlink:href="#DejaVuSans-2d"/>
       <use xlink:href="#DejaVuSans-30" transform="translate(36.083984 0)"/>
       <use xlink:href="#DejaVuSans-2e" transform="translate(99.707031 0)"/>
       <use xlink:href="#DejaVuSans-35" transform="translate(131.494141 0)"/>
       <use xlink:href="#DejaVuSans-30" transform="translate(195.117188 0)"/>
      </g>
     </g>
    </g>
    <g id="ytick_3">
     <g id="line2d_4">
      <g>
       <use xlink:href="#mbd2f377c6c" x="53.751563" y="229.407506" style="stroke: #000000; stroke-width: 0.8"/>
      </g>
     </g>
     <g id="text_3">
      <!-- -0.25 -->
      <g transform="translate(20.878125 233.206725) scale(0.1 -0.1)">
       <defs>
        <path id="DejaVuSans-32" d="M 1228 531 
L 3431 531 
L 3431 0 
L 469 0 
L 469 531 
Q 828 903 1448 1529 
Q 2069 2156 2228 2338 
Q 2531 2678 2651 2914 
Q 2772 3150 2772 3378 
Q 2772 3750 2511 3984 
Q 2250 4219 1831 4219 
Q 1534 4219 1204 4116 
Q 875 4013 500 3803 
L 500 4441 
Q 881 4594 1212 4672 
Q 1544 4750 1819 4750 
Q 2544 4750 2975 4387 
Q 3406 4025 3406 3419 
Q 3406 3131 3298 2873 
Q 3191 2616 2906 2266 
Q 2828 2175 2409 1742 
Q 1991 1309 1228 531 
z
" transform="scale(0.015625)"/>
       </defs>
       <use xlink:href="#DejaVuSans-2d"/>
       <use xlink:href="#DejaVuSans-30" transform="translate(36.083984 0)"/>
       <use xlink:href="#DejaVuSans-2e" transform="translate(99.707031 0)"/>
       <use xlink:href="#DejaVuSans-32" transform="translate(131.494141 0)"/>
       <use xlink:href="#DejaVuSans-35" transform="translate(195.117188 0)"/>
      </g>
     </g>
    </g>
    <g id="ytick_4">
     <g id="line2d_5">
      <g>
       <use xlink:href="#mbd2f377c6c" x="53.751563" y="185.940462" style="stroke: #000000; stroke-width: 0.8"/>
      </g>
     </g>
     <g id="text_4">
      <!-- 0.00 -->
      <g transform="translate(24.485938 189.73968) scale(0.1 -0.1)">
       <use xlink:href="#DejaVuSans-30"/>
       <use xlink:href="#DejaVuSans-2e" transform="translate(63.623047 0)"/>
       <use xlink:href="#DejaVuSans-30" transform="translate(95.410156 0)"/>
       <use xlink:href="#DejaVuSans-30" transform="translate(159.033203 0)"/>
      </g>
     </g>
    </g>
    <g id="ytick_5">
     <g id="line2d_6">
      <g>
       <use xlink:href="#mbd2f377c6c" x="53.751563" y="142.473417" style="stroke: #000000; stroke-width: 0.8"/>
      </g>
     </g>
     <g id="text_5">
      <!-- 0.25 -->
      <g transform="translate(24.485938 146.272636) scale(0.1 -0.1)">
       <use xlink:href="#DejaVuSans-30"/>
       <use xlink:href="#DejaVuSans-2e" transform="translate(63.623047 0)"/>
       <use xlink:href="#DejaVuSans-32" transform="translate(95.410156 0)"/>
       <use xlink:href="#DejaVuSans-35" transform="translate(159.033203 0)"/>
      </g>
     </g>
    </g>
    <g id="ytick_6">
     <g id="line2d_7">
      <g>
       <use xlink:href="#mbd2f377c6c" x="53.751563" y="99.006372" style="stroke: #000000; stroke-width: 0.8"/>
      </g>
     </g>
     <g id="text_6">
      <!-- 0.50 -->
      <g transform="translate(24.485938 102.805591) scale(0.1 -0.1)">
       <use xlink:href="#DejaVuSans-30"/>
       <use xlink:href="#DejaVuSans-2e" transform="translate(63.623047 0)"/>
       <use xlink:href="#DejaVuSans-35" transform="translate(95.410156 0)"/>
       <use xlink:href="#DejaVuSans-30" transform="translate(159.033203 0)"/>
      </g>
     </g>
    </g>
    <g id="ytick_7">
     <g id="line2d_8">
      <g>
       <use xlink:href="#mbd2f377c6c" x="53.751563" y="55.539327" style="stroke: #000000; stroke-width: 0.8"/>
      </g>
     </g>
     <g id="text_7">
      <!-- 0.75 -->
      <g transform="translate(24.485938 59.338546) scale(0.1 -0.1)">
       <use xlink:href="#DejaVuSans-30"/>
       <use xlink:href="#DejaVuSans-2e" transform="translate(63.623047 0)"/>
       <use xlink:href="#DejaVuSans-37" transform="translate(95.410156 0)"/>
       <use xlink:href="#DejaVuSans-35" transform="translate(159.033203 0)"/>
      </g>
     </g>
    </g>
    <g id="ytick_8">
     <g id="line2d_9">
      <g>
       <use xlink:href="#mbd2f377c6c" x="53.751563" y="12.072283" style="stroke: #000000; stroke-width: 0.8"/>
      </g>
     </g>
     <g id="text_8">
      <!-- 1.00 -->
      <g transform="translate(24.485938 15.871501) scale(0.1 -0.1)">
       <defs>
        <path id="DejaVuSans-31" d="M 794 531 
L 1825 531 
L 1825 4091 
L 703 3866 
L 703 4441 
L 1819 4666 
L 2450 4666 
L 2450 531 
L 3481 531 
L 3481 0 
L 794 0 
L 794 531 
z
" transform="scale(0.015625)"/>
       </defs>
       <use xlink:href="#DejaVuSans-31"/>
       <use xlink:href="#DejaVuSans-2e" transform="translate(63.623047 0)"/>
       <use xlink:href="#DejaVuSans-30" transform="translate(95.410156 0)"/>
       <use xlink:href="#DejaVuSans-30" transform="translate(159.033203 0)"/>
      </g>
     </g>
    </g>
    <g id="text_9">
     <!-- r2 -->
     <g transform="translate(14.798438 172.686719) rotate(-90) scale(0.1 -0.1)">
      <defs>
       <path id="DejaVuSans-72" d="M 2631 2963 
Q 2534 3019 2420 3045 
Q 2306 3072 2169 3072 
Q 1681 3072 1420 2755 
Q 1159 2438 1159 1844 
L 1159 0 
L 581 0 
L 581 3500 
L 1159 3500 
L 1159 2956 
Q 1341 3275 1631 3429 
Q 1922 3584 2338 3584 
Q 2397 3584 2469 3576 
Q 2541 3569 2628 3553 
L 2631 2963 
z
" transform="scale(0.015625)"/>
      </defs>
      <use xlink:href="#DejaVuSans-72"/>
      <use xlink:href="#DejaVuSans-32" transform="translate(41.113281 0)"/>
     </g>
    </g>
   </g>
   <g id="patch_11">
    <path d="M 96.942891 41.159635 
L 128.354766 41.159635 
L 128.354766 29.795203 
L 96.942891 29.795203 
L 96.942891 41.159635 
z
" clip-path="url(#pba3e51a94f)" style="fill: #b3e2cd; stroke: #7a7a7a; stroke-linejoin: miter"/>
   </g>
   <g id="line2d_10">
    <path d="M 112.648828 41.159635 
L 112.648828 58.026337 
" clip-path="url(#pba3e51a94f)" style="fill: none; stroke: #7a7a7a"/>
   </g>
   <g id="line2d_11">
    <path d="M 112.648828 29.795203 
L 112.648828 22.530123 
" clip-path="url(#pba3e51a94f)" style="fill: none; stroke: #7a7a7a"/>
   </g>
   <g id="line2d_12">
    <path d="M 104.795859 58.026337 
L 120.501797 58.026337 
" clip-path="url(#pba3e51a94f)" style="fill: none; stroke: #7a7a7a; stroke-linecap: square"/>
   </g>
   <g id="line2d_13">
    <path d="M 104.795859 22.530123 
L 120.501797 22.530123 
" clip-path="url(#pba3e51a94f)" style="fill: none; stroke: #7a7a7a; stroke-linecap: square"/>
   </g>
   <g id="line2d_14">
    <defs>
     <path id="mf2d42e0765" d="M 0 3 
C 0.795609 3 1.55874 2.683901 2.12132 2.12132 
C 2.683901 1.55874 3 0.795609 3 0 
C 3 -0.795609 2.683901 -1.55874 2.12132 -2.12132 
C 1.55874 -2.683901 0.795609 -3 0 -3 
C -0.795609 -3 -1.55874 -2.683901 -2.12132 -2.12132 
C -2.683901 -1.55874 -3 -0.795609 -3 0 
C -3 0.795609 -2.683901 1.55874 -2.12132 2.12132 
C -1.55874 2.683901 -0.795609 3 0 3 
z
" style="stroke: #7a7a7a"/>
    </defs>
    <g clip-path="url(#pba3e51a94f)">
     <use xlink:href="#mf2d42e0765" x="112.648828" y="59.064566" style="fill-opacity: 0; stroke: #7a7a7a"/>
     <use xlink:href="#mf2d42e0765" x="112.648828" y="59.426185" style="fill-opacity: 0; stroke: #7a7a7a"/>
     <use xlink:href="#mf2d42e0765" x="112.648828" y="313.131818" style="fill-opacity: 0; stroke: #7a7a7a"/>
    </g>
   </g>
   <g id="patch_12">
    <path d="M 136.207734 34.871505 
L 167.619609 34.871505 
L 167.619609 28.926967 
L 136.207734 28.926967 
L 136.207734 34.871505 
z
" clip-path="url(#pba3e51a94f)" style="fill: #fdcdac; stroke: #7a7a7a; stroke-linejoin: miter"/>
   </g>
   <g id="line2d_15">
    <path d="M 151.913672 34.871505 
L 151.913672 37.826516 
" clip-path="url(#pba3e51a94f)" style="fill: none; stroke: #7a7a7a"/>
   </g>
   <g id="line2d_16">
    <path d="M 151.913672 28.926967 
L 151.913672 21.768182 
" clip-path="url(#pba3e51a94f)" style="fill: none; stroke: #7a7a7a"/>
   </g>
   <g id="line2d_17">
    <path d="M 144.060703 37.826516 
L 159.766641 37.826516 
" clip-path="url(#pba3e51a94f)" style="fill: none; stroke: #7a7a7a; stroke-linecap: square"/>
   </g>
   <g id="line2d_18">
    <path d="M 144.060703 21.768182 
L 159.766641 21.768182 
" clip-path="url(#pba3e51a94f)" style="fill: none; stroke: #7a7a7a; stroke-linecap: square"/>
   </g>
   <g id="line2d_19">
    <g clip-path="url(#pba3e51a94f)">
     <use xlink:href="#mf2d42e0765" x="151.913672" y="313.131818" style="fill-opacity: 0; stroke: #7a7a7a"/>
     <use xlink:href="#mf2d42e0765" x="151.913672" y="172.928851" style="fill-opacity: 0; stroke: #7a7a7a"/>
     <use xlink:href="#mf2d42e0765" x="151.913672" y="173.33562" style="fill-opacity: 0; stroke: #7a7a7a"/>
     <use xlink:href="#mf2d42e0765" x="151.913672" y="177.242801" style="fill-opacity: 0; stroke: #7a7a7a"/>
    </g>
   </g>
   <g id="patch_13">
    <path d="M 175.472578 37.606773 
L 206.884453 37.606773 
L 206.884453 33.122 
L 175.472578 33.122 
L 175.472578 37.606773 
z
" clip-path="url(#pba3e51a94f)" style="fill: #f4cae4; stroke: #7a7a7a; stroke-linejoin: miter"/>
   </g>
   <g id="line2d_20">
    <path d="M 191.178516 37.606773 
L 191.178516 42.715417 
" clip-path="url(#pba3e51a94f)" style="fill: none; stroke: #7a7a7a"/>
   </g>
   <g id="line2d_21">
    <path d="M 191.178516 33.122 
L 191.178516 27.335122 
" clip-path="url(#pba3e51a94f)" style="fill: none; stroke: #7a7a7a"/>
   </g>
   <g id="line2d_22">
    <path d="M 183.325547 42.715417 
L 199.031484 42.715417 
" clip-path="url(#pba3e51a94f)" style="fill: none; stroke: #7a7a7a; stroke-linecap: square"/>
   </g>
   <g id="line2d_23">
    <path d="M 183.325547 27.335122 
L 199.031484 27.335122 
" clip-path="url(#pba3e51a94f)" style="fill: none; stroke: #7a7a7a; stroke-linecap: square"/>
   </g>
   <g id="line2d_24">
    <g clip-path="url(#pba3e51a94f)">
     <use xlink:href="#mf2d42e0765" x="191.178516" y="70.786248" style="fill-opacity: 0; stroke: #7a7a7a"/>
     <use xlink:href="#mf2d42e0765" x="191.178516" y="51.890487" style="fill-opacity: 0; stroke: #7a7a7a"/>
     <use xlink:href="#mf2d42e0765" x="191.178516" y="24.266946" style="fill-opacity: 0; stroke: #7a7a7a"/>
    </g>
   </g>
   <g id="patch_14">
    <path d="M 214.737422 47.908593 
L 246.149297 47.908593 
L 246.149297 42.024674 
L 214.737422 42.024674 
L 214.737422 47.908593 
z
" clip-path="url(#pba3e51a94f)" style="fill: #e6f5c9; stroke: #7a7a7a; stroke-linejoin: miter"/>
   </g>
   <g id="line2d_25">
    <path d="M 230.443359 47.908593 
L 230.443359 51.444957 
" clip-path="url(#pba3e51a94f)" style="fill: none; stroke: #7a7a7a"/>
   </g>
   <g id="line2d_26">
    <path d="M 230.443359 42.024674 
L 230.443359 35.206549 
" clip-path="url(#pba3e51a94f)" style="fill: none; stroke: #7a7a7a"/>
   </g>
   <g id="line2d_27">
    <path d="M 222.590391 51.444957 
L 238.296328 51.444957 
" clip-path="url(#pba3e51a94f)" style="fill: none; stroke: #7a7a7a; stroke-linecap: square"/>
   </g>
   <g id="line2d_28">
    <path d="M 222.590391 35.206549 
L 238.296328 35.206549 
" clip-path="url(#pba3e51a94f)" style="fill: none; stroke: #7a7a7a; stroke-linecap: square"/>
   </g>
   <g id="line2d_29">
    <g clip-path="url(#pba3e51a94f)">
     <use xlink:href="#mf2d42e0765" x="230.443359" y="59.813621" style="fill-opacity: 0; stroke: #7a7a7a"/>
     <use xlink:href="#mf2d42e0765" x="230.443359" y="65.812992" style="fill-opacity: 0; stroke: #7a7a7a"/>
     <use xlink:href="#mf2d42e0765" x="230.443359" y="27.216132" style="fill-opacity: 0; stroke: #7a7a7a"/>
    </g>
   </g>
   <g id="patch_15">
    <path d="M 254.002266 44.211949 
L 285.414141 44.211949 
L 285.414141 33.098166 
L 254.002266 33.098166 
L 254.002266 44.211949 
z
" clip-path="url(#pba3e51a94f)" style="fill: url(#h5c36d2b54f); stroke: #7a7a7a; stroke-linejoin: miter"/>
   </g>
   <g id="line2d_30">
    <path d="M 269.708203 44.211949 
L 269.708203 60.261538 
" clip-path="url(#pba3e51a94f)" style="fill: none; stroke: #7a7a7a"/>
   </g>
   <g id="line2d_31">
    <path d="M 269.708203 33.098166 
L 269.708203 27.399998 
" clip-path="url(#pba3e51a94f)" style="fill: none; stroke: #7a7a7a"/>
   </g>
   <g id="line2d_32">
    <path d="M 261.855234 60.261538 
L 277.561172 60.261538 
" clip-path="url(#pba3e51a94f)" style="fill: none; stroke: #7a7a7a; stroke-linecap: square"/>
   </g>
   <g id="line2d_33">
    <path d="M 261.855234 27.399998 
L 277.561172 27.399998 
" clip-path="url(#pba3e51a94f)" style="fill: none; stroke: #7a7a7a; stroke-linecap: square"/>
   </g>
   <g id="line2d_34">
    <g clip-path="url(#pba3e51a94f)">
     <use xlink:href="#mf2d42e0765" x="269.708203" y="313.131818" style="fill-opacity: 0; stroke: #7a7a7a"/>
    </g>
   </g>
   <g id="patch_16">
    <path d="M 293.267109 37.446206 
L 324.678984 37.446206 
L 324.678984 28.568307 
L 293.267109 28.568307 
L 293.267109 37.446206 
z
" clip-path="url(#pba3e51a94f)" style="fill: url(#h0577782f04); stroke: #7a7a7a; stroke-linejoin: miter"/>
   </g>
   <g id="line2d_35">
    <path d="M 308.973047 37.446206 
L 308.973047 38.312362 
" clip-path="url(#pba3e51a94f)" style="fill: none; stroke: #7a7a7a"/>
   </g>
   <g id="line2d_36">
    <path d="M 308.973047 28.568307 
L 308.973047 22.620446 
" clip-path="url(#pba3e51a94f)" style="fill: none; stroke: #7a7a7a"/>
   </g>
   <g id="line2d_37">
    <path d="M 301.120078 38.312362 
L 316.826016 38.312362 
" clip-path="url(#pba3e51a94f)" style="fill: none; stroke: #7a7a7a; stroke-linecap: square"/>
   </g>
   <g id="line2d_38">
    <path d="M 301.120078 22.620446 
L 316.826016 22.620446 
" clip-path="url(#pba3e51a94f)" style="fill: none; stroke: #7a7a7a; stroke-linecap: square"/>
   </g>
   <g id="line2d_39">
    <g clip-path="url(#pba3e51a94f)">
     <use xlink:href="#mf2d42e0765" x="308.973047" y="175.146642" style="fill-opacity: 0; stroke: #7a7a7a"/>
     <use xlink:href="#mf2d42e0765" x="308.973047" y="101.0967" style="fill-opacity: 0; stroke: #7a7a7a"/>
     <use xlink:href="#mf2d42e0765" x="308.973047" y="313.131818" style="fill-opacity: 0; stroke: #7a7a7a"/>
     <use xlink:href="#mf2d42e0765" x="308.973047" y="177.242801" style="fill-opacity: 0; stroke: #7a7a7a"/>
    </g>
   </g>
   <g id="patch_17">
    <path d="M 332.531953 34.537856 
L 363.943828 34.537856 
L 363.943828 28.689208 
L 332.531953 28.689208 
L 332.531953 34.537856 
z
" clip-path="url(#pba3e51a94f)" style="fill: #cbd5e8; stroke: #7a7a7a; stroke-linejoin: miter"/>
   </g>
   <g id="line2d_40">
    <path d="M 348.237891 34.537856 
L 348.237891 41.558832 
" clip-path="url(#pba3e51a94f)" style="fill: none; stroke: #7a7a7a"/>
   </g>
   <g id="line2d_41">
    <path d="M 348.237891 28.689208 
L 348.237891 24.378747 
" clip-path="url(#pba3e51a94f)" style="fill: none; stroke: #7a7a7a"/>
   </g>
   <g id="line2d_42">
    <path d="M 340.384922 41.558832 
L 356.090859 41.558832 
" clip-path="url(#pba3e51a94f)" style="fill: none; stroke: #7a7a7a; stroke-linecap: square"/>
   </g>
   <g id="line2d_43">
    <path d="M 340.384922 24.378747 
L 356.090859 24.378747 
" clip-path="url(#pba3e51a94f)" style="fill: none; stroke: #7a7a7a; stroke-linecap: square"/>
   </g>
   <g id="line2d_44">
    <g clip-path="url(#pba3e51a94f)">
     <use xlink:href="#mf2d42e0765" x="348.237891" y="46.8708" style="fill-opacity: 0; stroke: #7a7a7a"/>
    </g>
   </g>
   <g id="patch_18">
    <path d="M 371.796797 34.785649 
L 403.208672 34.785649 
L 403.208672 28.875636 
L 371.796797 28.875636 
L 371.796797 34.785649 
z
" clip-path="url(#pba3e51a94f)" style="fill: url(#h9666d6bbb0); stroke: #7a7a7a; stroke-linejoin: miter"/>
   </g>
   <g id="line2d_45">
    <path d="M 387.502734 34.785649 
L 387.502734 41.457563 
" clip-path="url(#pba3e51a94f)" style="fill: none; stroke: #7a7a7a"/>
   </g>
   <g id="line2d_46">
    <path d="M 387.502734 28.875636 
L 387.502734 25.665197 
" clip-path="url(#pba3e51a94f)" style="fill: none; stroke: #7a7a7a"/>
   </g>
   <g id="line2d_47">
    <path d="M 379.649766 41.457563 
L 395.355703 41.457563 
" clip-path="url(#pba3e51a94f)" style="fill: none; stroke: #7a7a7a; stroke-linecap: square"/>
   </g>
   <g id="line2d_48">
    <path d="M 379.649766 25.665197 
L 395.355703 25.665197 
" clip-path="url(#pba3e51a94f)" style="fill: none; stroke: #7a7a7a; stroke-linecap: square"/>
   </g>
   <g id="line2d_49">
    <g clip-path="url(#pba3e51a94f)">
     <use xlink:href="#mf2d42e0765" x="387.502734" y="44.230307" style="fill-opacity: 0; stroke: #7a7a7a"/>
     <use xlink:href="#mf2d42e0765" x="387.502734" y="50.086885" style="fill-opacity: 0; stroke: #7a7a7a"/>
    </g>
   </g>
   <g id="line2d_50">
    <path d="M 53.751563 30.148613 
L 446.4 30.148613 
" clip-path="url(#pba3e51a94f)" style="fill: none; stroke-dasharray: 1.5,2.475; stroke-dashoffset: 0; stroke: #808080; stroke-width: 1.5"/>
   </g>
   <g id="line2d_51">
    <path d="M 96.942891 35.714638 
L 128.354766 35.714638 
" clip-path="url(#pba3e51a94f)" style="fill: none; stroke: #7a7a7a"/>
   </g>
   <g id="line2d_52">
    <path d="M 136.207734 30.148613 
L 167.619609 30.148613 
" clip-path="url(#pba3e51a94f)" style="fill: none; stroke: #7a7a7a"/>
   </g>
   <g id="line2d_53">
    <path d="M 175.472578 36.45379 
L 206.884453 36.45379 
" clip-path="url(#pba3e51a94f)" style="fill: none; stroke: #7a7a7a"/>
   </g>
   <g id="line2d_54">
    <path d="M 214.737422 45.701725 
L 246.149297 45.701725 
" clip-path="url(#pba3e51a94f)" style="fill: none; stroke: #7a7a7a"/>
   </g>
   <g id="line2d_55">
    <path d="M 254.002266 37.068977 
L 285.414141 37.068977 
" clip-path="url(#pba3e51a94f)" style="fill: none; stroke: #7a7a7a"/>
   </g>
   <g id="line2d_56">
    <path d="M 293.267109 31.153195 
L 324.678984 31.153195 
" clip-path="url(#pba3e51a94f)" style="fill: none; stroke: #7a7a7a"/>
   </g>
   <g id="line2d_57">
    <path d="M 332.531953 31.043602 
L 363.943828 31.043602 
" clip-path="url(#pba3e51a94f)" style="fill: none; stroke: #7a7a7a"/>
   </g>
   <g id="line2d_58">
    <path d="M 371.796797 31.494593 
L 403.208672 31.494593 
" clip-path="url(#pba3e51a94f)" style="fill: none; stroke: #7a7a7a"/>
   </g>
   <g id="patch_19">
    <path d="M 53.751563 327.7 
L 53.751563 7.2 
" style="fill: none; stroke: #000000; stroke-width: 0.8; stroke-linejoin: miter; stroke-linecap: square"/>
   </g>
   <g id="patch_20">
    <path d="M 446.4 327.7 
L 446.4 7.2 
" style="fill: none; stroke: #000000; stroke-width: 0.8; stroke-linejoin: miter; stroke-linecap: square"/>
   </g>
   <g id="patch_21">
    <path d="M 53.751563 327.7 
L 446.4 327.7 
" style="fill: none; stroke: #000000; stroke-width: 0.8; stroke-linejoin: miter; stroke-linecap: square"/>
   </g>
   <g id="patch_22">
    <path d="M 53.751563 7.2 
L 446.4 7.2 
" style="fill: none; stroke: #000000; stroke-width: 0.8; stroke-linejoin: miter; stroke-linecap: square"/>
   </g>
   <g id="legend_1">
    <g id="patch_23">
     <path d="M 386.242187 322.7 
L 439.4 322.7 
Q 441.4 322.7 441.4 320.7 
L 441.4 189.596875 
Q 441.4 187.596875 439.4 187.596875 
L 386.242187 187.596875 
Q 384.242187 187.596875 384.242187 189.596875 
L 384.242187 320.7 
Q 384.242187 322.7 386.242187 322.7 
z
" style="fill: #ffffff; opacity: 0.8; stroke: #cccccc; stroke-linejoin: miter"/>
    </g>
    <g id="text_10">
     <!-- clf -->
     <g transform="translate(406.922656 199.195312) scale(0.1 -0.1)">
      <defs>
       <path id="DejaVuSans-63" d="M 3122 3366 
L 3122 2828 
Q 2878 2963 2633 3030 
Q 2388 3097 2138 3097 
Q 1578 3097 1268 2742 
Q 959 2388 959 1747 
Q 959 1106 1268 751 
Q 1578 397 2138 397 
Q 2388 397 2633 464 
Q 2878 531 3122 666 
L 3122 134 
Q 2881 22 2623 -34 
Q 2366 -91 2075 -91 
Q 1284 -91 818 406 
Q 353 903 353 1747 
Q 353 2603 823 3093 
Q 1294 3584 2113 3584 
Q 2378 3584 2631 3529 
Q 2884 3475 3122 3366 
z
" transform="scale(0.015625)"/>
       <path id="DejaVuSans-6c" d="M 603 4863 
L 1178 4863 
L 1178 0 
L 603 0 
L 603 4863 
z
" transform="scale(0.015625)"/>
       <path id="DejaVuSans-66" d="M 2375 4863 
L 2375 4384 
L 1825 4384 
Q 1516 4384 1395 4259 
Q 1275 4134 1275 3809 
L 1275 3500 
L 2222 3500 
L 2222 3053 
L 1275 3053 
L 1275 0 
L 697 0 
L 697 3053 
L 147 3053 
L 147 3500 
L 697 3500 
L 697 3744 
Q 697 4328 969 4595 
Q 1241 4863 1831 4863 
L 2375 4863 
z
" transform="scale(0.015625)"/>
      </defs>
      <use xlink:href="#DejaVuSans-63"/>
      <use xlink:href="#DejaVuSans-6c" transform="translate(54.980469 0)"/>
      <use xlink:href="#DejaVuSans-66" transform="translate(82.763672 0)"/>
     </g>
    </g>
    <g id="patch_24">
     <path d="M 388.242187 213.873438 
L 408.242187 213.873438 
L 408.242187 206.873438 
L 388.242187 206.873438 
z
" style="fill: #b3e2cd; stroke: #7a7a7a; stroke-linejoin: miter"/>
    </g>
    <g id="text_11">
     <!-- fkdc -->
     <g transform="translate(416.242187 213.873438) scale(0.1 -0.1)">
      <defs>
       <path id="DejaVuSans-6b" d="M 581 4863 
L 1159 4863 
L 1159 1991 
L 2875 3500 
L 3609 3500 
L 1753 1863 
L 3688 0 
L 2938 0 
L 1159 1709 
L 1159 0 
L 581 0 
L 581 4863 
z
" transform="scale(0.015625)"/>
       <path id="DejaVuSans-64" d="M 2906 2969 
L 2906 4863 
L 3481 4863 
L 3481 0 
L 2906 0 
L 2906 525 
Q 2725 213 2448 61 
Q 2172 -91 1784 -91 
Q 1150 -91 751 415 
Q 353 922 353 1747 
Q 353 2572 751 3078 
Q 1150 3584 1784 3584 
Q 2172 3584 2448 3432 
Q 2725 3281 2906 2969 
z
M 947 1747 
Q 947 1113 1208 752 
Q 1469 391 1925 391 
Q 2381 391 2643 752 
Q 2906 1113 2906 1747 
Q 2906 2381 2643 2742 
Q 2381 3103 1925 3103 
Q 1469 3103 1208 2742 
Q 947 2381 947 1747 
z
" transform="scale(0.015625)"/>
      </defs>
      <use xlink:href="#DejaVuSans-66"/>
      <use xlink:href="#DejaVuSans-6b" transform="translate(35.205078 0)"/>
      <use xlink:href="#DejaVuSans-64" transform="translate(93.115234 0)"/>
      <use xlink:href="#DejaVuSans-63" transform="translate(156.591797 0)"/>
     </g>
    </g>
    <g id="patch_25">
     <path d="M 388.242187 228.551563 
L 408.242187 228.551563 
L 408.242187 221.551563 
L 388.242187 221.551563 
z
" style="fill: #fdcdac; stroke: #7a7a7a; stroke-linejoin: miter"/>
    </g>
    <g id="text_12">
     <!-- fkn -->
     <g transform="translate(416.242187 228.551563) scale(0.1 -0.1)">
      <defs>
       <path id="DejaVuSans-6e" d="M 3513 2113 
L 3513 0 
L 2938 0 
L 2938 2094 
Q 2938 2591 2744 2837 
Q 2550 3084 2163 3084 
Q 1697 3084 1428 2787 
Q 1159 2491 1159 1978 
L 1159 0 
L 581 0 
L 581 3500 
L 1159 3500 
L 1159 2956 
Q 1366 3272 1645 3428 
Q 1925 3584 2291 3584 
Q 2894 3584 3203 3211 
Q 3513 2838 3513 2113 
z
" transform="scale(0.015625)"/>
      </defs>
      <use xlink:href="#DejaVuSans-66"/>
      <use xlink:href="#DejaVuSans-6b" transform="translate(35.205078 0)"/>
      <use xlink:href="#DejaVuSans-6e" transform="translate(93.115234 0)"/>
     </g>
    </g>
    <g id="patch_26">
     <path d="M 388.242187 243.229688 
L 408.242187 243.229688 
L 408.242187 236.229688 
L 388.242187 236.229688 
z
" style="fill: #f4cae4; stroke: #7a7a7a; stroke-linejoin: miter"/>
    </g>
    <g id="text_13">
     <!-- gbt -->
     <g transform="translate(416.242187 243.229688) scale(0.1 -0.1)">
      <defs>
       <path id="DejaVuSans-67" d="M 2906 1791 
Q 2906 2416 2648 2759 
Q 2391 3103 1925 3103 
Q 1463 3103 1205 2759 
Q 947 2416 947 1791 
Q 947 1169 1205 825 
Q 1463 481 1925 481 
Q 2391 481 2648 825 
Q 2906 1169 2906 1791 
z
M 3481 434 
Q 3481 -459 3084 -895 
Q 2688 -1331 1869 -1331 
Q 1566 -1331 1297 -1286 
Q 1028 -1241 775 -1147 
L 775 -588 
Q 1028 -725 1275 -790 
Q 1522 -856 1778 -856 
Q 2344 -856 2625 -561 
Q 2906 -266 2906 331 
L 2906 616 
Q 2728 306 2450 153 
Q 2172 0 1784 0 
Q 1141 0 747 490 
Q 353 981 353 1791 
Q 353 2603 747 3093 
Q 1141 3584 1784 3584 
Q 2172 3584 2450 3431 
Q 2728 3278 2906 2969 
L 2906 3500 
L 3481 3500 
L 3481 434 
z
" transform="scale(0.015625)"/>
       <path id="DejaVuSans-62" d="M 3116 1747 
Q 3116 2381 2855 2742 
Q 2594 3103 2138 3103 
Q 1681 3103 1420 2742 
Q 1159 2381 1159 1747 
Q 1159 1113 1420 752 
Q 1681 391 2138 391 
Q 2594 391 2855 752 
Q 3116 1113 3116 1747 
z
M 1159 2969 
Q 1341 3281 1617 3432 
Q 1894 3584 2278 3584 
Q 2916 3584 3314 3078 
Q 3713 2572 3713 1747 
Q 3713 922 3314 415 
Q 2916 -91 2278 -91 
Q 1894 -91 1617 61 
Q 1341 213 1159 525 
L 1159 0 
L 581 0 
L 581 4863 
L 1159 4863 
L 1159 2969 
z
" transform="scale(0.015625)"/>
       <path id="DejaVuSans-74" d="M 1172 4494 
L 1172 3500 
L 2356 3500 
L 2356 3053 
L 1172 3053 
L 1172 1153 
Q 1172 725 1289 603 
Q 1406 481 1766 481 
L 2356 481 
L 2356 0 
L 1766 0 
Q 1100 0 847 248 
Q 594 497 594 1153 
L 594 3053 
L 172 3053 
L 172 3500 
L 594 3500 
L 594 4494 
L 1172 4494 
z
" transform="scale(0.015625)"/>
      </defs>
      <use xlink:href="#DejaVuSans-67"/>
      <use xlink:href="#DejaVuSans-62" transform="translate(63.476562 0)"/>
      <use xlink:href="#DejaVuSans-74" transform="translate(126.953125 0)"/>
     </g>
    </g>
    <g id="patch_27">
     <path d="M 388.242187 257.907812 
L 408.242187 257.907812 
L 408.242187 250.907812 
L 388.242187 250.907812 
z
" style="fill: #e6f5c9; stroke: #7a7a7a; stroke-linejoin: miter"/>
    </g>
    <g id="text_14">
     <!-- gnb -->
     <g transform="translate(416.242187 257.907812) scale(0.1 -0.1)">
      <use xlink:href="#DejaVuSans-67"/>
      <use xlink:href="#DejaVuSans-6e" transform="translate(63.476562 0)"/>
      <use xlink:href="#DejaVuSans-62" transform="translate(126.855469 0)"/>
     </g>
    </g>
    <g id="patch_28">
     <path d="M 388.242187 272.585938 
L 408.242187 272.585938 
L 408.242187 265.585938 
L 388.242187 265.585938 
z
" style="fill: url(#h5c36d2b54f); stroke: #7a7a7a; stroke-linejoin: miter"/>
    </g>
    <g id="text_15">
     <!-- kdc -->
     <g transform="translate(416.242187 272.585938) scale(0.1 -0.1)">
      <use xlink:href="#DejaVuSans-6b"/>
      <use xlink:href="#DejaVuSans-64" transform="translate(57.910156 0)"/>
      <use xlink:href="#DejaVuSans-63" transform="translate(121.386719 0)"/>
     </g>
    </g>
    <g id="patch_29">
     <path d="M 388.242187 287.264063 
L 408.242187 287.264063 
L 408.242187 280.264063 
L 388.242187 280.264063 
z
" style="fill: url(#h0577782f04); stroke: #7a7a7a; stroke-linejoin: miter"/>
    </g>
    <g id="text_16">
     <!-- kn -->
     <g transform="translate(416.242187 287.264063) scale(0.1 -0.1)">
      <use xlink:href="#DejaVuSans-6b"/>
      <use xlink:href="#DejaVuSans-6e" transform="translate(57.910156 0)"/>
     </g>
    </g>
    <g id="patch_30">
     <path d="M 388.242187 301.942187 
L 408.242187 301.942187 
L 408.242187 294.942187 
L 388.242187 294.942187 
z
" style="fill: #cbd5e8; stroke: #7a7a7a; stroke-linejoin: miter"/>
    </g>
    <g id="text_17">
     <!-- lr -->
     <g transform="translate(416.242187 301.942187) scale(0.1 -0.1)">
      <use xlink:href="#DejaVuSans-6c"/>
      <use xlink:href="#DejaVuSans-72" transform="translate(27.783203 0)"/>
     </g>
    </g>
    <g id="patch_31">
     <path d="M 388.242187 316.620313 
L 408.242187 316.620313 
L 408.242187 309.620313 
L 388.242187 309.620313 
z
" style="fill: url(#h9666d6bbb0); stroke: #7a7a7a; stroke-linejoin: miter"/>
    </g>
    <g id="text_18">
     <!-- slr -->
     <g transform="translate(416.242187 316.620313) scale(0.1 -0.1)">
      <defs>
       <path id="DejaVuSans-73" d="M 2834 3397 
L 2834 2853 
Q 2591 2978 2328 3040 
Q 2066 3103 1784 3103 
Q 1356 3103 1142 2972 
Q 928 2841 928 2578 
Q 928 2378 1081 2264 
Q 1234 2150 1697 2047 
L 1894 2003 
Q 2506 1872 2764 1633 
Q 3022 1394 3022 966 
Q 3022 478 2636 193 
Q 2250 -91 1575 -91 
Q 1294 -91 989 -36 
Q 684 19 347 128 
L 347 722 
Q 666 556 975 473 
Q 1284 391 1588 391 
Q 1994 391 2212 530 
Q 2431 669 2431 922 
Q 2431 1156 2273 1281 
Q 2116 1406 1581 1522 
L 1381 1569 
Q 847 1681 609 1914 
Q 372 2147 372 2553 
Q 372 3047 722 3315 
Q 1072 3584 1716 3584 
Q 2034 3584 2315 3537 
Q 2597 3491 2834 3397 
z
" transform="scale(0.015625)"/>
      </defs>
      <use xlink:href="#DejaVuSans-73"/>
      <use xlink:href="#DejaVuSans-6c" transform="translate(52.099609 0)"/>
      <use xlink:href="#DejaVuSans-72" transform="translate(79.882812 0)"/>
     </g>
    </g>
   </g>
  </g>
 </g>
 <defs>
  <clipPath id="pba3e51a94f">
   <rect x="53.751563" y="7.2" width="392.648437" height="320.5"/>
  </clipPath>
 </defs>
 <defs>
  <pattern id="h5c36d2b54f" patternUnits="userSpaceOnUse" x="0" y="0" width="72" height="72">
   <rect x="0" y="0" width="73" height="73" fill="#b3e2cd"/>
   <path d="M -36 36 
L 36 -36 
M -32 40 
L 40 -32 
M -28 44 
L 44 -28 
M -24 48 
L 48 -24 
M -20 52 
L 52 -20 
M -16 56 
L 56 -16 
M -12 60 
L 60 -12 
M -8 64 
L 64 -8 
M -4 68 
L 68 -4 
M 0 72 
L 72 0 
M 4 76 
L 76 4 
M 8 80 
L 80 8 
M 12 84 
L 84 12 
M 16 88 
L 88 16 
M 20 92 
L 92 20 
M 24 96 
L 96 24 
M 28 100 
L 100 28 
M 32 104 
L 104 32 
M 36 108 
L 108 36 
" style="fill: #7a7a7a; stroke: #7a7a7a; stroke-width: 1.0; stroke-linecap: butt; stroke-linejoin: miter"/>
  </pattern>
  <pattern id="h0577782f04" patternUnits="userSpaceOnUse" x="0" y="0" width="72" height="72">
   <rect x="0" y="0" width="73" height="73" fill="#fdcdac"/>
   <path d="M -36 36 
L 36 -36 
M -32 40 
L 40 -32 
M -28 44 
L 44 -28 
M -24 48 
L 48 -24 
M -20 52 
L 52 -20 
M -16 56 
L 56 -16 
M -12 60 
L 60 -12 
M -8 64 
L 64 -8 
M -4 68 
L 68 -4 
M 0 72 
L 72 0 
M 4 76 
L 76 4 
M 8 80 
L 80 8 
M 12 84 
L 84 12 
M 16 88 
L 88 16 
M 20 92 
L 92 20 
M 24 96 
L 96 24 
M 28 100 
L 100 28 
M 32 104 
L 104 32 
M 36 108 
L 108 36 
" style="fill: #7a7a7a; stroke: #7a7a7a; stroke-width: 1.0; stroke-linecap: butt; stroke-linejoin: miter"/>
  </pattern>
  <pattern id="h9666d6bbb0" patternUnits="userSpaceOnUse" x="0" y="0" width="72" height="72">
   <rect x="0" y="0" width="73" height="73" fill="#cbd5e8"/>
   <path d="M -36 36 
L 36 -36 
M -32 40 
L 40 -32 
M -28 44 
L 44 -28 
M -24 48 
L 48 -24 
M -20 52 
L 52 -20 
M -16 56 
L 56 -16 
M -12 60 
L 60 -12 
M -8 64 
L 64 -8 
M -4 68 
L 68 -4 
M 0 72 
L 72 0 
M 4 76 
L 76 4 
M 8 80 
L 80 8 
M 12 84 
L 84 12 
M 16 88 
L 88 16 
M 20 92 
L 92 20 
M 24 96 
L 96 24 
M 28 100 
L 100 28 
M 32 104 
L 104 32 
M 36 108 
L 108 36 
" style="fill: #7a7a7a; stroke: #7a7a7a; stroke-width: 1.0; stroke-linecap: butt; stroke-linejoin: miter"/>
  </pattern>
 </defs>
</svg>
