<?xml version="1.0" encoding="utf-8" standalone="no"?>
<!DOCTYPE svg PUBLIC "-//W3C//DTD SVG 1.1//EN"
  "http://www.w3.org/Graphics/SVG/1.1/DTD/svg11.dtd">
<svg xmlns:xlink="http://www.w3.org/1999/xlink" width="460.8pt" height="345.6pt" viewBox="0 0 460.8 345.6" xmlns="http://www.w3.org/2000/svg" version="1.1">
 <metadata>
  <rdf:RDF xmlns:dc="http://purl.org/dc/elements/1.1/" xmlns:cc="http://creativecommons.org/ns#" xmlns:rdf="http://www.w3.org/1999/02/22-rdf-syntax-ns#">
   <cc:Work>
    <dc:type rdf:resource="http://purl.org/dc/dcmitype/StillImage"/>
    <dc:date>2025-11-23T17:46:56.556007</dc:date>
    <dc:format>image/svg+xml</dc:format>
    <dc:creator>
     <cc:Agent>
      <dc:title>Matplotlib v3.10.7, https://matplotlib.org/</dc:title>
     </cc:Agent>
    </dc:creator>
   </cc:Work>
  </rdf:RDF>
 </metadata>
 <defs>
  <style type="text/css">*{stroke-linejoin: round; stroke-linecap: butt}</style>
 </defs>
 <g id="figure_1">
  <g id="patch_1">
   <path d="M 0 345.6 
L 460.8 345.6 
L 460.8 0 
L 0 0 
z
" style="fill: #ffffff"/>
  </g>
  <g id="axes_1">
   <g id="patch_2">
    <path d="M 33.703125 318.121875 
L 449.262983 318.121875 
L 449.262983 25.918125 
L 33.703125 25.918125 
z
" style="fill: #ffffff"/>
   </g>
   <g id="PathCollection_1">
    <defs>
     <path id="C0_0_c2083608c0" d="M 0 3 
C 0.795609 3 1.55874 2.683901 2.12132 2.12132 
C 2.683901 1.55874 3 0.795609 3 -0 
C 3 -0.795609 2.683901 -1.55874 2.12132 -2.12132 
C 1.55874 -2.683901 0.795609 -3 0 -3 
C -0.795609 -3 -1.55874 -2.683901 -2.12132 -2.12132 
C -2.683901 -1.55874 -3 -0.795609 -3 0 
C -3 0.795609 -2.683901 1.55874 -2.12132 2.12132 
C -1.55874 2.683901 -0.795609 3 0 3 
z
"/>
    </defs>
    <g clip-path="url(#pd5d73bb72d)">
     <use xlink:href="#C0_0_c2083608c0" x="136.543696" y="138.815028" style="fill: #1f77b4; stroke: #ffffff; stroke-width: 0.48"/>
    </g>
    <g clip-path="url(#pd5d73bb72d)">
     <use xlink:href="#C0_0_c2083608c0" x="115.555824" y="194.156648" style="fill: #1f77b4; stroke: #ffffff; stroke-width: 0.48"/>
    </g>
    <g clip-path="url(#pd5d73bb72d)">
     <use xlink:href="#C0_0_c2083608c0" x="94.567953" y="172.02" style="fill: #1f77b4; stroke: #ffffff; stroke-width: 0.48"/>
    </g>
    <g clip-path="url(#pd5d73bb72d)">
     <use xlink:href="#C0_0_c2083608c0" x="84.074017" y="183.088324" style="fill: #1f77b4; stroke: #ffffff; stroke-width: 0.48"/>
    </g>
    <g clip-path="url(#pd5d73bb72d)">
     <use xlink:href="#C0_0_c2083608c0" x="126.04976" y="127.746705" style="fill: #1f77b4; stroke: #ffffff; stroke-width: 0.48"/>
    </g>
    <g clip-path="url(#pd5d73bb72d)">
     <use xlink:href="#C0_0_c2083608c0" x="168.025503" y="94.541733" style="fill: #1f77b4; stroke: #ffffff; stroke-width: 0.48"/>
    </g>
    <g clip-path="url(#pd5d73bb72d)">
     <use xlink:href="#C0_0_c2083608c0" x="84.074017" y="149.883352" style="fill: #1f77b4; stroke: #ffffff; stroke-width: 0.48"/>
    </g>
    <g clip-path="url(#pd5d73bb72d)">
     <use xlink:href="#C0_0_c2083608c0" x="126.04976" y="149.883352" style="fill: #1f77b4; stroke: #ffffff; stroke-width: 0.48"/>
    </g>
    <g clip-path="url(#pd5d73bb72d)">
     <use xlink:href="#C0_0_c2083608c0" x="63.086145" y="205.224972" style="fill: #1f77b4; stroke: #ffffff; stroke-width: 0.48"/>
    </g>
    <g clip-path="url(#pd5d73bb72d)">
     <use xlink:href="#C0_0_c2083608c0" x="115.555824" y="183.088324" style="fill: #1f77b4; stroke: #ffffff; stroke-width: 0.48"/>
    </g>
    <g clip-path="url(#pd5d73bb72d)">
     <use xlink:href="#C0_0_c2083608c0" x="168.025503" y="116.678381" style="fill: #1f77b4; stroke: #ffffff; stroke-width: 0.48"/>
    </g>
    <g clip-path="url(#pd5d73bb72d)">
     <use xlink:href="#C0_0_c2083608c0" x="105.061888" y="149.883352" style="fill: #1f77b4; stroke: #ffffff; stroke-width: 0.48"/>
    </g>
    <g clip-path="url(#pd5d73bb72d)">
     <use xlink:href="#C0_0_c2083608c0" x="105.061888" y="194.156648" style="fill: #1f77b4; stroke: #ffffff; stroke-width: 0.48"/>
    </g>
    <g clip-path="url(#pd5d73bb72d)">
     <use xlink:href="#C0_0_c2083608c0" x="52.592209" y="194.156648" style="fill: #1f77b4; stroke: #ffffff; stroke-width: 0.48"/>
    </g>
    <g clip-path="url(#pd5d73bb72d)">
     <use xlink:href="#C0_0_c2083608c0" x="210.001247" y="83.473409" style="fill: #1f77b4; stroke: #ffffff; stroke-width: 0.48"/>
    </g>
    <g clip-path="url(#pd5d73bb72d)">
     <use xlink:href="#C0_0_c2083608c0" x="199.507311" y="39.200114" style="fill: #1f77b4; stroke: #ffffff; stroke-width: 0.48"/>
    </g>
    <g clip-path="url(#pd5d73bb72d)">
     <use xlink:href="#C0_0_c2083608c0" x="168.025503" y="94.541733" style="fill: #1f77b4; stroke: #ffffff; stroke-width: 0.48"/>
    </g>
    <g clip-path="url(#pd5d73bb72d)">
     <use xlink:href="#C0_0_c2083608c0" x="136.543696" y="138.815028" style="fill: #1f77b4; stroke: #ffffff; stroke-width: 0.48"/>
    </g>
    <g clip-path="url(#pd5d73bb72d)">
     <use xlink:href="#C0_0_c2083608c0" x="199.507311" y="105.610057" style="fill: #1f77b4; stroke: #ffffff; stroke-width: 0.48"/>
    </g>
    <g clip-path="url(#pd5d73bb72d)">
     <use xlink:href="#C0_0_c2083608c0" x="136.543696" y="105.610057" style="fill: #1f77b4; stroke: #ffffff; stroke-width: 0.48"/>
    </g>
    <g clip-path="url(#pd5d73bb72d)">
     <use xlink:href="#C0_0_c2083608c0" x="168.025503" y="149.883352" style="fill: #1f77b4; stroke: #ffffff; stroke-width: 0.48"/>
    </g>
    <g clip-path="url(#pd5d73bb72d)">
     <use xlink:href="#C0_0_c2083608c0" x="136.543696" y="116.678381" style="fill: #1f77b4; stroke: #ffffff; stroke-width: 0.48"/>
    </g>
    <g clip-path="url(#pd5d73bb72d)">
     <use xlink:href="#C0_0_c2083608c0" x="84.074017" y="127.746705" style="fill: #1f77b4; stroke: #ffffff; stroke-width: 0.48"/>
    </g>
    <g clip-path="url(#pd5d73bb72d)">
     <use xlink:href="#C0_0_c2083608c0" x="136.543696" y="160.951676" style="fill: #1f77b4; stroke: #ffffff; stroke-width: 0.48"/>
    </g>
    <g clip-path="url(#pd5d73bb72d)">
     <use xlink:href="#C0_0_c2083608c0" x="105.061888" y="149.883352" style="fill: #1f77b4; stroke: #ffffff; stroke-width: 0.48"/>
    </g>
    <g clip-path="url(#pd5d73bb72d)">
     <use xlink:href="#C0_0_c2083608c0" x="126.04976" y="194.156648" style="fill: #1f77b4; stroke: #ffffff; stroke-width: 0.48"/>
    </g>
    <g clip-path="url(#pd5d73bb72d)">
     <use xlink:href="#C0_0_c2083608c0" x="126.04976" y="149.883352" style="fill: #1f77b4; stroke: #ffffff; stroke-width: 0.48"/>
    </g>
    <g clip-path="url(#pd5d73bb72d)">
     <use xlink:href="#C0_0_c2083608c0" x="147.037632" y="138.815028" style="fill: #1f77b4; stroke: #ffffff; stroke-width: 0.48"/>
    </g>
    <g clip-path="url(#pd5d73bb72d)">
     <use xlink:href="#C0_0_c2083608c0" x="147.037632" y="149.883352" style="fill: #1f77b4; stroke: #ffffff; stroke-width: 0.48"/>
    </g>
    <g clip-path="url(#pd5d73bb72d)">
     <use xlink:href="#C0_0_c2083608c0" x="94.567953" y="172.02" style="fill: #1f77b4; stroke: #ffffff; stroke-width: 0.48"/>
    </g>
    <g clip-path="url(#pd5d73bb72d)">
     <use xlink:href="#C0_0_c2083608c0" x="105.061888" y="183.088324" style="fill: #1f77b4; stroke: #ffffff; stroke-width: 0.48"/>
    </g>
    <g clip-path="url(#pd5d73bb72d)">
     <use xlink:href="#C0_0_c2083608c0" x="168.025503" y="149.883352" style="fill: #1f77b4; stroke: #ffffff; stroke-width: 0.48"/>
    </g>
    <g clip-path="url(#pd5d73bb72d)">
     <use xlink:href="#C0_0_c2083608c0" x="147.037632" y="72.405085" style="fill: #1f77b4; stroke: #ffffff; stroke-width: 0.48"/>
    </g>
    <g clip-path="url(#pd5d73bb72d)">
     <use xlink:href="#C0_0_c2083608c0" x="178.519439" y="61.336761" style="fill: #1f77b4; stroke: #ffffff; stroke-width: 0.48"/>
    </g>
    <g clip-path="url(#pd5d73bb72d)">
     <use xlink:href="#C0_0_c2083608c0" x="115.555824" y="183.088324" style="fill: #1f77b4; stroke: #ffffff; stroke-width: 0.48"/>
    </g>
    <g clip-path="url(#pd5d73bb72d)">
     <use xlink:href="#C0_0_c2083608c0" x="126.04976" y="172.02" style="fill: #1f77b4; stroke: #ffffff; stroke-width: 0.48"/>
    </g>
    <g clip-path="url(#pd5d73bb72d)">
     <use xlink:href="#C0_0_c2083608c0" x="178.519439" y="138.815028" style="fill: #1f77b4; stroke: #ffffff; stroke-width: 0.48"/>
    </g>
    <g clip-path="url(#pd5d73bb72d)">
     <use xlink:href="#C0_0_c2083608c0" x="115.555824" y="127.746705" style="fill: #1f77b4; stroke: #ffffff; stroke-width: 0.48"/>
    </g>
    <g clip-path="url(#pd5d73bb72d)">
     <use xlink:href="#C0_0_c2083608c0" x="63.086145" y="194.156648" style="fill: #1f77b4; stroke: #ffffff; stroke-width: 0.48"/>
    </g>
    <g clip-path="url(#pd5d73bb72d)">
     <use xlink:href="#C0_0_c2083608c0" x="136.543696" y="149.883352" style="fill: #1f77b4; stroke: #ffffff; stroke-width: 0.48"/>
    </g>
    <g clip-path="url(#pd5d73bb72d)">
     <use xlink:href="#C0_0_c2083608c0" x="126.04976" y="138.815028" style="fill: #1f77b4; stroke: #ffffff; stroke-width: 0.48"/>
    </g>
    <g clip-path="url(#pd5d73bb72d)">
     <use xlink:href="#C0_0_c2083608c0" x="73.580081" y="271.634915" style="fill: #1f77b4; stroke: #ffffff; stroke-width: 0.48"/>
    </g>
    <g clip-path="url(#pd5d73bb72d)">
     <use xlink:href="#C0_0_c2083608c0" x="63.086145" y="172.02" style="fill: #1f77b4; stroke: #ffffff; stroke-width: 0.48"/>
    </g>
    <g clip-path="url(#pd5d73bb72d)">
     <use xlink:href="#C0_0_c2083608c0" x="126.04976" y="138.815028" style="fill: #1f77b4; stroke: #ffffff; stroke-width: 0.48"/>
    </g>
    <g clip-path="url(#pd5d73bb72d)">
     <use xlink:href="#C0_0_c2083608c0" x="136.543696" y="105.610057" style="fill: #1f77b4; stroke: #ffffff; stroke-width: 0.48"/>
    </g>
    <g clip-path="url(#pd5d73bb72d)">
     <use xlink:href="#C0_0_c2083608c0" x="105.061888" y="194.156648" style="fill: #1f77b4; stroke: #ffffff; stroke-width: 0.48"/>
    </g>
    <g clip-path="url(#pd5d73bb72d)">
     <use xlink:href="#C0_0_c2083608c0" x="136.543696" y="105.610057" style="fill: #1f77b4; stroke: #ffffff; stroke-width: 0.48"/>
    </g>
    <g clip-path="url(#pd5d73bb72d)">
     <use xlink:href="#C0_0_c2083608c0" x="84.074017" y="172.02" style="fill: #1f77b4; stroke: #ffffff; stroke-width: 0.48"/>
    </g>
    <g clip-path="url(#pd5d73bb72d)">
     <use xlink:href="#C0_0_c2083608c0" x="157.531568" y="116.678381" style="fill: #1f77b4; stroke: #ffffff; stroke-width: 0.48"/>
    </g>
    <g clip-path="url(#pd5d73bb72d)">
     <use xlink:href="#C0_0_c2083608c0" x="126.04976" y="160.951676" style="fill: #1f77b4; stroke: #ffffff; stroke-width: 0.48"/>
    </g>
    <g clip-path="url(#pd5d73bb72d)">
     <use xlink:href="#C0_0_c2083608c0" x="335.928476" y="172.02" style="fill: #ff7f0e; stroke: #ffffff; stroke-width: 0.48"/>
    </g>
    <g clip-path="url(#pd5d73bb72d)">
     <use xlink:href="#C0_0_c2083608c0" x="272.964861" y="172.02" style="fill: #ff7f0e; stroke: #ffffff; stroke-width: 0.48"/>
    </g>
    <g clip-path="url(#pd5d73bb72d)">
     <use xlink:href="#C0_0_c2083608c0" x="325.43454" y="183.088324" style="fill: #ff7f0e; stroke: #ffffff; stroke-width: 0.48"/>
    </g>
    <g clip-path="url(#pd5d73bb72d)">
     <use xlink:href="#C0_0_c2083608c0" x="178.519439" y="271.634915" style="fill: #ff7f0e; stroke: #ffffff; stroke-width: 0.48"/>
    </g>
    <g clip-path="url(#pd5d73bb72d)">
     <use xlink:href="#C0_0_c2083608c0" x="283.458797" y="216.293295" style="fill: #ff7f0e; stroke: #ffffff; stroke-width: 0.48"/>
    </g>
    <g clip-path="url(#pd5d73bb72d)">
     <use xlink:href="#C0_0_c2083608c0" x="199.507311" y="216.293295" style="fill: #ff7f0e; stroke: #ffffff; stroke-width: 0.48"/>
    </g>
    <g clip-path="url(#pd5d73bb72d)">
     <use xlink:href="#C0_0_c2083608c0" x="262.470926" y="160.951676" style="fill: #ff7f0e; stroke: #ffffff; stroke-width: 0.48"/>
    </g>
    <g clip-path="url(#pd5d73bb72d)">
     <use xlink:href="#C0_0_c2083608c0" x="115.555824" y="260.566591" style="fill: #ff7f0e; stroke: #ffffff; stroke-width: 0.48"/>
    </g>
    <g clip-path="url(#pd5d73bb72d)">
     <use xlink:href="#C0_0_c2083608c0" x="293.952733" y="205.224972" style="fill: #ff7f0e; stroke: #ffffff; stroke-width: 0.48"/>
    </g>
    <g clip-path="url(#pd5d73bb72d)">
     <use xlink:href="#C0_0_c2083608c0" x="147.037632" y="227.361619" style="fill: #ff7f0e; stroke: #ffffff; stroke-width: 0.48"/>
    </g>
    <g clip-path="url(#pd5d73bb72d)">
     <use xlink:href="#C0_0_c2083608c0" x="126.04976" y="304.839886" style="fill: #ff7f0e; stroke: #ffffff; stroke-width: 0.48"/>
    </g>
    <g clip-path="url(#pd5d73bb72d)">
     <use xlink:href="#C0_0_c2083608c0" x="220.495182" y="194.156648" style="fill: #ff7f0e; stroke: #ffffff; stroke-width: 0.48"/>
    </g>
    <g clip-path="url(#pd5d73bb72d)">
     <use xlink:href="#C0_0_c2083608c0" x="230.989118" y="282.703239" style="fill: #ff7f0e; stroke: #ffffff; stroke-width: 0.48"/>
    </g>
    <g clip-path="url(#pd5d73bb72d)">
     <use xlink:href="#C0_0_c2083608c0" x="241.483054" y="205.224972" style="fill: #ff7f0e; stroke: #ffffff; stroke-width: 0.48"/>
    </g>
    <g clip-path="url(#pd5d73bb72d)">
     <use xlink:href="#C0_0_c2083608c0" x="189.013375" y="205.224972" style="fill: #ff7f0e; stroke: #ffffff; stroke-width: 0.48"/>
    </g>
    <g clip-path="url(#pd5d73bb72d)">
     <use xlink:href="#C0_0_c2083608c0" x="304.446669" y="183.088324" style="fill: #ff7f0e; stroke: #ffffff; stroke-width: 0.48"/>
    </g>
    <g clip-path="url(#pd5d73bb72d)">
     <use xlink:href="#C0_0_c2083608c0" x="189.013375" y="194.156648" style="fill: #ff7f0e; stroke: #ffffff; stroke-width: 0.48"/>
    </g>
    <g clip-path="url(#pd5d73bb72d)">
     <use xlink:href="#C0_0_c2083608c0" x="210.001247" y="227.361619" style="fill: #ff7f0e; stroke: #ffffff; stroke-width: 0.48"/>
    </g>
    <g clip-path="url(#pd5d73bb72d)">
     <use xlink:href="#C0_0_c2083608c0" x="251.97699" y="282.703239" style="fill: #ff7f0e; stroke: #ffffff; stroke-width: 0.48"/>
    </g>
    <g clip-path="url(#pd5d73bb72d)">
     <use xlink:href="#C0_0_c2083608c0" x="189.013375" y="249.498267" style="fill: #ff7f0e; stroke: #ffffff; stroke-width: 0.48"/>
    </g>
    <g clip-path="url(#pd5d73bb72d)">
     <use xlink:href="#C0_0_c2083608c0" x="220.495182" y="172.02" style="fill: #ff7f0e; stroke: #ffffff; stroke-width: 0.48"/>
    </g>
    <g clip-path="url(#pd5d73bb72d)">
     <use xlink:href="#C0_0_c2083608c0" x="241.483054" y="216.293295" style="fill: #ff7f0e; stroke: #ffffff; stroke-width: 0.48"/>
    </g>
    <g clip-path="url(#pd5d73bb72d)">
     <use xlink:href="#C0_0_c2083608c0" x="262.470926" y="249.498267" style="fill: #ff7f0e; stroke: #ffffff; stroke-width: 0.48"/>
    </g>
    <g clip-path="url(#pd5d73bb72d)">
     <use xlink:href="#C0_0_c2083608c0" x="241.483054" y="216.293295" style="fill: #ff7f0e; stroke: #ffffff; stroke-width: 0.48"/>
    </g>
    <g clip-path="url(#pd5d73bb72d)">
     <use xlink:href="#C0_0_c2083608c0" x="272.964861" y="205.224972" style="fill: #ff7f0e; stroke: #ffffff; stroke-width: 0.48"/>
    </g>
    <g clip-path="url(#pd5d73bb72d)">
     <use xlink:href="#C0_0_c2083608c0" x="293.952733" y="194.156648" style="fill: #ff7f0e; stroke: #ffffff; stroke-width: 0.48"/>
    </g>
    <g clip-path="url(#pd5d73bb72d)">
     <use xlink:href="#C0_0_c2083608c0" x="314.940605" y="216.293295" style="fill: #ff7f0e; stroke: #ffffff; stroke-width: 0.48"/>
    </g>
    <g clip-path="url(#pd5d73bb72d)">
     <use xlink:href="#C0_0_c2083608c0" x="304.446669" y="194.156648" style="fill: #ff7f0e; stroke: #ffffff; stroke-width: 0.48"/>
    </g>
    <g clip-path="url(#pd5d73bb72d)">
     <use xlink:href="#C0_0_c2083608c0" x="230.989118" y="205.224972" style="fill: #ff7f0e; stroke: #ffffff; stroke-width: 0.48"/>
    </g>
    <g clip-path="url(#pd5d73bb72d)">
     <use xlink:href="#C0_0_c2083608c0" x="199.507311" y="238.429943" style="fill: #ff7f0e; stroke: #ffffff; stroke-width: 0.48"/>
    </g>
    <g clip-path="url(#pd5d73bb72d)">
     <use xlink:href="#C0_0_c2083608c0" x="178.519439" y="260.566591" style="fill: #ff7f0e; stroke: #ffffff; stroke-width: 0.48"/>
    </g>
    <g clip-path="url(#pd5d73bb72d)">
     <use xlink:href="#C0_0_c2083608c0" x="178.519439" y="260.566591" style="fill: #ff7f0e; stroke: #ffffff; stroke-width: 0.48"/>
    </g>
    <g clip-path="url(#pd5d73bb72d)">
     <use xlink:href="#C0_0_c2083608c0" x="210.001247" y="227.361619" style="fill: #ff7f0e; stroke: #ffffff; stroke-width: 0.48"/>
    </g>
    <g clip-path="url(#pd5d73bb72d)">
     <use xlink:href="#C0_0_c2083608c0" x="230.989118" y="227.361619" style="fill: #ff7f0e; stroke: #ffffff; stroke-width: 0.48"/>
    </g>
    <g clip-path="url(#pd5d73bb72d)">
     <use xlink:href="#C0_0_c2083608c0" x="168.025503" y="194.156648" style="fill: #ff7f0e; stroke: #ffffff; stroke-width: 0.48"/>
    </g>
    <g clip-path="url(#pd5d73bb72d)">
     <use xlink:href="#C0_0_c2083608c0" x="230.989118" y="149.883352" style="fill: #ff7f0e; stroke: #ffffff; stroke-width: 0.48"/>
    </g>
    <g clip-path="url(#pd5d73bb72d)">
     <use xlink:href="#C0_0_c2083608c0" x="304.446669" y="183.088324" style="fill: #ff7f0e; stroke: #ffffff; stroke-width: 0.48"/>
    </g>
    <g clip-path="url(#pd5d73bb72d)">
     <use xlink:href="#C0_0_c2083608c0" x="262.470926" y="271.634915" style="fill: #ff7f0e; stroke: #ffffff; stroke-width: 0.48"/>
    </g>
    <g clip-path="url(#pd5d73bb72d)">
     <use xlink:href="#C0_0_c2083608c0" x="189.013375" y="194.156648" style="fill: #ff7f0e; stroke: #ffffff; stroke-width: 0.48"/>
    </g>
    <g clip-path="url(#pd5d73bb72d)">
     <use xlink:href="#C0_0_c2083608c0" x="178.519439" y="249.498267" style="fill: #ff7f0e; stroke: #ffffff; stroke-width: 0.48"/>
    </g>
    <g clip-path="url(#pd5d73bb72d)">
     <use xlink:href="#C0_0_c2083608c0" x="178.519439" y="238.429943" style="fill: #ff7f0e; stroke: #ffffff; stroke-width: 0.48"/>
    </g>
    <g clip-path="url(#pd5d73bb72d)">
     <use xlink:href="#C0_0_c2083608c0" x="241.483054" y="194.156648" style="fill: #ff7f0e; stroke: #ffffff; stroke-width: 0.48"/>
    </g>
    <g clip-path="url(#pd5d73bb72d)">
     <use xlink:href="#C0_0_c2083608c0" x="210.001247" y="238.429943" style="fill: #ff7f0e; stroke: #ffffff; stroke-width: 0.48"/>
    </g>
    <g clip-path="url(#pd5d73bb72d)">
     <use xlink:href="#C0_0_c2083608c0" x="126.04976" y="271.634915" style="fill: #ff7f0e; stroke: #ffffff; stroke-width: 0.48"/>
    </g>
    <g clip-path="url(#pd5d73bb72d)">
     <use xlink:href="#C0_0_c2083608c0" x="189.013375" y="227.361619" style="fill: #ff7f0e; stroke: #ffffff; stroke-width: 0.48"/>
    </g>
    <g clip-path="url(#pd5d73bb72d)">
     <use xlink:href="#C0_0_c2083608c0" x="199.507311" y="194.156648" style="fill: #ff7f0e; stroke: #ffffff; stroke-width: 0.48"/>
    </g>
    <g clip-path="url(#pd5d73bb72d)">
     <use xlink:href="#C0_0_c2083608c0" x="199.507311" y="205.224972" style="fill: #ff7f0e; stroke: #ffffff; stroke-width: 0.48"/>
    </g>
    <g clip-path="url(#pd5d73bb72d)">
     <use xlink:href="#C0_0_c2083608c0" x="251.97699" y="205.224972" style="fill: #ff7f0e; stroke: #ffffff; stroke-width: 0.48"/>
    </g>
    <g clip-path="url(#pd5d73bb72d)">
     <use xlink:href="#C0_0_c2083608c0" x="136.543696" y="249.498267" style="fill: #ff7f0e; stroke: #ffffff; stroke-width: 0.48"/>
    </g>
    <g clip-path="url(#pd5d73bb72d)">
     <use xlink:href="#C0_0_c2083608c0" x="199.507311" y="216.293295" style="fill: #ff7f0e; stroke: #ffffff; stroke-width: 0.48"/>
    </g>
    <g clip-path="url(#pd5d73bb72d)">
     <use xlink:href="#C0_0_c2083608c0" x="262.470926" y="160.951676" style="fill: #2ca02c; stroke: #ffffff; stroke-width: 0.48"/>
    </g>
    <g clip-path="url(#pd5d73bb72d)">
     <use xlink:href="#C0_0_c2083608c0" x="210.001247" y="227.361619" style="fill: #2ca02c; stroke: #ffffff; stroke-width: 0.48"/>
    </g>
    <g clip-path="url(#pd5d73bb72d)">
     <use xlink:href="#C0_0_c2083608c0" x="346.422412" y="194.156648" style="fill: #2ca02c; stroke: #ffffff; stroke-width: 0.48"/>
    </g>
    <g clip-path="url(#pd5d73bb72d)">
     <use xlink:href="#C0_0_c2083608c0" x="262.470926" y="205.224972" style="fill: #2ca02c; stroke: #ffffff; stroke-width: 0.48"/>
    </g>
    <g clip-path="url(#pd5d73bb72d)">
     <use xlink:href="#C0_0_c2083608c0" x="283.458797" y="194.156648" style="fill: #2ca02c; stroke: #ffffff; stroke-width: 0.48"/>
    </g>
    <g clip-path="url(#pd5d73bb72d)">
     <use xlink:href="#C0_0_c2083608c0" x="398.892091" y="194.156648" style="fill: #2ca02c; stroke: #ffffff; stroke-width: 0.48"/>
    </g>
    <g clip-path="url(#pd5d73bb72d)">
     <use xlink:href="#C0_0_c2083608c0" x="115.555824" y="249.498267" style="fill: #2ca02c; stroke: #ffffff; stroke-width: 0.48"/>
    </g>
    <g clip-path="url(#pd5d73bb72d)">
     <use xlink:href="#C0_0_c2083608c0" x="367.410284" y="205.224972" style="fill: #2ca02c; stroke: #ffffff; stroke-width: 0.48"/>
    </g>
    <g clip-path="url(#pd5d73bb72d)">
     <use xlink:href="#C0_0_c2083608c0" x="304.446669" y="249.498267" style="fill: #2ca02c; stroke: #ffffff; stroke-width: 0.48"/>
    </g>
    <g clip-path="url(#pd5d73bb72d)">
     <use xlink:href="#C0_0_c2083608c0" x="356.916348" y="127.746705" style="fill: #2ca02c; stroke: #ffffff; stroke-width: 0.48"/>
    </g>
    <g clip-path="url(#pd5d73bb72d)">
     <use xlink:href="#C0_0_c2083608c0" x="283.458797" y="172.02" style="fill: #2ca02c; stroke: #ffffff; stroke-width: 0.48"/>
    </g>
    <g clip-path="url(#pd5d73bb72d)">
     <use xlink:href="#C0_0_c2083608c0" x="272.964861" y="227.361619" style="fill: #2ca02c; stroke: #ffffff; stroke-width: 0.48"/>
    </g>
    <g clip-path="url(#pd5d73bb72d)">
     <use xlink:href="#C0_0_c2083608c0" x="314.940605" y="194.156648" style="fill: #2ca02c; stroke: #ffffff; stroke-width: 0.48"/>
    </g>
    <g clip-path="url(#pd5d73bb72d)">
     <use xlink:href="#C0_0_c2083608c0" x="199.507311" y="249.498267" style="fill: #2ca02c; stroke: #ffffff; stroke-width: 0.48"/>
    </g>
    <g clip-path="url(#pd5d73bb72d)">
     <use xlink:href="#C0_0_c2083608c0" x="210.001247" y="216.293295" style="fill: #2ca02c; stroke: #ffffff; stroke-width: 0.48"/>
    </g>
    <g clip-path="url(#pd5d73bb72d)">
     <use xlink:href="#C0_0_c2083608c0" x="272.964861" y="172.02" style="fill: #2ca02c; stroke: #ffffff; stroke-width: 0.48"/>
    </g>
    <g clip-path="url(#pd5d73bb72d)">
     <use xlink:href="#C0_0_c2083608c0" x="283.458797" y="194.156648" style="fill: #2ca02c; stroke: #ffffff; stroke-width: 0.48"/>
    </g>
    <g clip-path="url(#pd5d73bb72d)">
     <use xlink:href="#C0_0_c2083608c0" x="409.386027" y="105.610057" style="fill: #2ca02c; stroke: #ffffff; stroke-width: 0.48"/>
    </g>
    <g clip-path="url(#pd5d73bb72d)">
     <use xlink:href="#C0_0_c2083608c0" x="409.386027" y="238.429943" style="fill: #2ca02c; stroke: #ffffff; stroke-width: 0.48"/>
    </g>
    <g clip-path="url(#pd5d73bb72d)">
     <use xlink:href="#C0_0_c2083608c0" x="230.989118" y="282.703239" style="fill: #2ca02c; stroke: #ffffff; stroke-width: 0.48"/>
    </g>
    <g clip-path="url(#pd5d73bb72d)">
     <use xlink:href="#C0_0_c2083608c0" x="325.43454" y="172.02" style="fill: #2ca02c; stroke: #ffffff; stroke-width: 0.48"/>
    </g>
    <g clip-path="url(#pd5d73bb72d)">
     <use xlink:href="#C0_0_c2083608c0" x="189.013375" y="216.293295" style="fill: #2ca02c; stroke: #ffffff; stroke-width: 0.48"/>
    </g>
    <g clip-path="url(#pd5d73bb72d)">
     <use xlink:href="#C0_0_c2083608c0" x="409.386027" y="216.293295" style="fill: #2ca02c; stroke: #ffffff; stroke-width: 0.48"/>
    </g>
    <g clip-path="url(#pd5d73bb72d)">
     <use xlink:href="#C0_0_c2083608c0" x="262.470926" y="227.361619" style="fill: #2ca02c; stroke: #ffffff; stroke-width: 0.48"/>
    </g>
    <g clip-path="url(#pd5d73bb72d)">
     <use xlink:href="#C0_0_c2083608c0" x="304.446669" y="160.951676" style="fill: #2ca02c; stroke: #ffffff; stroke-width: 0.48"/>
    </g>
    <g clip-path="url(#pd5d73bb72d)">
     <use xlink:href="#C0_0_c2083608c0" x="356.916348" y="172.02" style="fill: #2ca02c; stroke: #ffffff; stroke-width: 0.48"/>
    </g>
    <g clip-path="url(#pd5d73bb72d)">
     <use xlink:href="#C0_0_c2083608c0" x="251.97699" y="216.293295" style="fill: #2ca02c; stroke: #ffffff; stroke-width: 0.48"/>
    </g>
    <g clip-path="url(#pd5d73bb72d)">
     <use xlink:href="#C0_0_c2083608c0" x="241.483054" y="194.156648" style="fill: #2ca02c; stroke: #ffffff; stroke-width: 0.48"/>
    </g>
    <g clip-path="url(#pd5d73bb72d)">
     <use xlink:href="#C0_0_c2083608c0" x="272.964861" y="216.293295" style="fill: #2ca02c; stroke: #ffffff; stroke-width: 0.48"/>
    </g>
    <g clip-path="url(#pd5d73bb72d)">
     <use xlink:href="#C0_0_c2083608c0" x="356.916348" y="194.156648" style="fill: #2ca02c; stroke: #ffffff; stroke-width: 0.48"/>
    </g>
    <g clip-path="url(#pd5d73bb72d)">
     <use xlink:href="#C0_0_c2083608c0" x="377.904219" y="216.293295" style="fill: #2ca02c; stroke: #ffffff; stroke-width: 0.48"/>
    </g>
    <g clip-path="url(#pd5d73bb72d)">
     <use xlink:href="#C0_0_c2083608c0" x="430.373899" y="105.610057" style="fill: #2ca02c; stroke: #ffffff; stroke-width: 0.48"/>
    </g>
    <g clip-path="url(#pd5d73bb72d)">
     <use xlink:href="#C0_0_c2083608c0" x="272.964861" y="216.293295" style="fill: #2ca02c; stroke: #ffffff; stroke-width: 0.48"/>
    </g>
    <g clip-path="url(#pd5d73bb72d)">
     <use xlink:href="#C0_0_c2083608c0" x="262.470926" y="216.293295" style="fill: #2ca02c; stroke: #ffffff; stroke-width: 0.48"/>
    </g>
    <g clip-path="url(#pd5d73bb72d)">
     <use xlink:href="#C0_0_c2083608c0" x="241.483054" y="238.429943" style="fill: #2ca02c; stroke: #ffffff; stroke-width: 0.48"/>
    </g>
    <g clip-path="url(#pd5d73bb72d)">
     <use xlink:href="#C0_0_c2083608c0" x="409.386027" y="194.156648" style="fill: #2ca02c; stroke: #ffffff; stroke-width: 0.48"/>
    </g>
    <g clip-path="url(#pd5d73bb72d)">
     <use xlink:href="#C0_0_c2083608c0" x="262.470926" y="149.883352" style="fill: #2ca02c; stroke: #ffffff; stroke-width: 0.48"/>
    </g>
    <g clip-path="url(#pd5d73bb72d)">
     <use xlink:href="#C0_0_c2083608c0" x="272.964861" y="183.088324" style="fill: #2ca02c; stroke: #ffffff; stroke-width: 0.48"/>
    </g>
    <g clip-path="url(#pd5d73bb72d)">
     <use xlink:href="#C0_0_c2083608c0" x="230.989118" y="194.156648" style="fill: #2ca02c; stroke: #ffffff; stroke-width: 0.48"/>
    </g>
    <g clip-path="url(#pd5d73bb72d)">
     <use xlink:href="#C0_0_c2083608c0" x="325.43454" y="183.088324" style="fill: #2ca02c; stroke: #ffffff; stroke-width: 0.48"/>
    </g>
    <g clip-path="url(#pd5d73bb72d)">
     <use xlink:href="#C0_0_c2083608c0" x="304.446669" y="183.088324" style="fill: #2ca02c; stroke: #ffffff; stroke-width: 0.48"/>
    </g>
    <g clip-path="url(#pd5d73bb72d)">
     <use xlink:href="#C0_0_c2083608c0" x="325.43454" y="183.088324" style="fill: #2ca02c; stroke: #ffffff; stroke-width: 0.48"/>
    </g>
    <g clip-path="url(#pd5d73bb72d)">
     <use xlink:href="#C0_0_c2083608c0" x="210.001247" y="227.361619" style="fill: #2ca02c; stroke: #ffffff; stroke-width: 0.48"/>
    </g>
    <g clip-path="url(#pd5d73bb72d)">
     <use xlink:href="#C0_0_c2083608c0" x="314.940605" y="172.02" style="fill: #2ca02c; stroke: #ffffff; stroke-width: 0.48"/>
    </g>
    <g clip-path="url(#pd5d73bb72d)">
     <use xlink:href="#C0_0_c2083608c0" x="304.446669" y="160.951676" style="fill: #2ca02c; stroke: #ffffff; stroke-width: 0.48"/>
    </g>
    <g clip-path="url(#pd5d73bb72d)">
     <use xlink:href="#C0_0_c2083608c0" x="304.446669" y="194.156648" style="fill: #2ca02c; stroke: #ffffff; stroke-width: 0.48"/>
    </g>
    <g clip-path="url(#pd5d73bb72d)">
     <use xlink:href="#C0_0_c2083608c0" x="262.470926" y="249.498267" style="fill: #2ca02c; stroke: #ffffff; stroke-width: 0.48"/>
    </g>
    <g clip-path="url(#pd5d73bb72d)">
     <use xlink:href="#C0_0_c2083608c0" x="283.458797" y="194.156648" style="fill: #2ca02c; stroke: #ffffff; stroke-width: 0.48"/>
    </g>
    <g clip-path="url(#pd5d73bb72d)">
     <use xlink:href="#C0_0_c2083608c0" x="251.97699" y="149.883352" style="fill: #2ca02c; stroke: #ffffff; stroke-width: 0.48"/>
    </g>
    <g clip-path="url(#pd5d73bb72d)">
     <use xlink:href="#C0_0_c2083608c0" x="220.495182" y="194.156648" style="fill: #2ca02c; stroke: #ffffff; stroke-width: 0.48"/>
    </g>
   </g>
   <g id="matplotlib.axis_1">
    <g id="xtick_1">
     <g id="line2d_1">
      <defs>
       <path id="m1499d8a1c9" d="M 0 0 
L 0 3.5 
" style="stroke: #000000; stroke-width: 0.8"/>
      </defs>
      <g>
       <use xlink:href="#m1499d8a1c9" x="73.580081" y="318.121875" style="stroke: #000000; stroke-width: 0.8"/>
      </g>
     </g>
     <g id="text_1">
      <!-- 4.5 -->
      <g transform="translate(65.628519 332.720312) scale(0.1 -0.1)">
       <defs>
        <path id="DejaVuSans-34" d="M 2419 4116 
L 825 1625 
L 2419 1625 
L 2419 4116 
z
M 2253 4666 
L 3047 4666 
L 3047 1625 
L 3713 1625 
L 3713 1100 
L 3047 1100 
L 3047 0 
L 2419 0 
L 2419 1100 
L 313 1100 
L 313 1709 
L 2253 4666 
z
" transform="scale(0.015625)"/>
        <path id="DejaVuSans-2e" d="M 684 794 
L 1344 794 
L 1344 0 
L 684 0 
L 684 794 
z
" transform="scale(0.015625)"/>
        <path id="DejaVuSans-35" d="M 691 4666 
L 3169 4666 
L 3169 4134 
L 1269 4134 
L 1269 2991 
Q 1406 3038 1543 3061 
Q 1681 3084 1819 3084 
Q 2600 3084 3056 2656 
Q 3513 2228 3513 1497 
Q 3513 744 3044 326 
Q 2575 -91 1722 -91 
Q 1428 -91 1123 -41 
Q 819 9 494 109 
L 494 744 
Q 775 591 1075 516 
Q 1375 441 1709 441 
Q 2250 441 2565 725 
Q 2881 1009 2881 1497 
Q 2881 1984 2565 2268 
Q 2250 2553 1709 2553 
Q 1456 2553 1204 2497 
Q 953 2441 691 2322 
L 691 4666 
z
" transform="scale(0.015625)"/>
       </defs>
       <use xlink:href="#DejaVuSans-34"/>
       <use xlink:href="#DejaVuSans-2e" transform="translate(63.623047 0)"/>
       <use xlink:href="#DejaVuSans-35" transform="translate(95.410156 0)"/>
      </g>
     </g>
    </g>
    <g id="xtick_2">
     <g id="line2d_2">
      <g>
       <use xlink:href="#m1499d8a1c9" x="126.04976" y="318.121875" style="stroke: #000000; stroke-width: 0.8"/>
      </g>
     </g>
     <g id="text_2">
      <!-- 5.0 -->
      <g transform="translate(118.098198 332.720312) scale(0.1 -0.1)">
       <defs>
        <path id="DejaVuSans-30" d="M 2034 4250 
Q 1547 4250 1301 3770 
Q 1056 3291 1056 2328 
Q 1056 1369 1301 889 
Q 1547 409 2034 409 
Q 2525 409 2770 889 
Q 3016 1369 3016 2328 
Q 3016 3291 2770 3770 
Q 2525 4250 2034 4250 
z
M 2034 4750 
Q 2819 4750 3233 4129 
Q 3647 3509 3647 2328 
Q 3647 1150 3233 529 
Q 2819 -91 2034 -91 
Q 1250 -91 836 529 
Q 422 1150 422 2328 
Q 422 3509 836 4129 
Q 1250 4750 2034 4750 
z
" transform="scale(0.015625)"/>
       </defs>
       <use xlink:href="#DejaVuSans-35"/>
       <use xlink:href="#DejaVuSans-2e" transform="translate(63.623047 0)"/>
       <use xlink:href="#DejaVuSans-30" transform="translate(95.410156 0)"/>
      </g>
     </g>
    </g>
    <g id="xtick_3">
     <g id="line2d_3">
      <g>
       <use xlink:href="#m1499d8a1c9" x="178.519439" y="318.121875" style="stroke: #000000; stroke-width: 0.8"/>
      </g>
     </g>
     <g id="text_3">
      <!-- 5.5 -->
      <g transform="translate(170.567877 332.720312) scale(0.1 -0.1)">
       <use xlink:href="#DejaVuSans-35"/>
       <use xlink:href="#DejaVuSans-2e" transform="translate(63.623047 0)"/>
       <use xlink:href="#DejaVuSans-35" transform="translate(95.410156 0)"/>
      </g>
     </g>
    </g>
    <g id="xtick_4">
     <g id="line2d_4">
      <g>
       <use xlink:href="#m1499d8a1c9" x="230.989118" y="318.121875" style="stroke: #000000; stroke-width: 0.8"/>
      </g>
     </g>
     <g id="text_4">
      <!-- 6.0 -->
      <g transform="translate(223.037556 332.720312) scale(0.1 -0.1)">
       <defs>
        <path id="DejaVuSans-36" d="M 2113 2584 
Q 1688 2584 1439 2293 
Q 1191 2003 1191 1497 
Q 1191 994 1439 701 
Q 1688 409 2113 409 
Q 2538 409 2786 701 
Q 3034 994 3034 1497 
Q 3034 2003 2786 2293 
Q 2538 2584 2113 2584 
z
M 3366 4563 
L 3366 3988 
Q 3128 4100 2886 4159 
Q 2644 4219 2406 4219 
Q 1781 4219 1451 3797 
Q 1122 3375 1075 2522 
Q 1259 2794 1537 2939 
Q 1816 3084 2150 3084 
Q 2853 3084 3261 2657 
Q 3669 2231 3669 1497 
Q 3669 778 3244 343 
Q 2819 -91 2113 -91 
Q 1303 -91 875 529 
Q 447 1150 447 2328 
Q 447 3434 972 4092 
Q 1497 4750 2381 4750 
Q 2619 4750 2861 4703 
Q 3103 4656 3366 4563 
z
" transform="scale(0.015625)"/>
       </defs>
       <use xlink:href="#DejaVuSans-36"/>
       <use xlink:href="#DejaVuSans-2e" transform="translate(63.623047 0)"/>
       <use xlink:href="#DejaVuSans-30" transform="translate(95.410156 0)"/>
      </g>
     </g>
    </g>
    <g id="xtick_5">
     <g id="line2d_5">
      <g>
       <use xlink:href="#m1499d8a1c9" x="283.458797" y="318.121875" style="stroke: #000000; stroke-width: 0.8"/>
      </g>
     </g>
     <g id="text_5">
      <!-- 6.5 -->
      <g transform="translate(275.507235 332.720312) scale(0.1 -0.1)">
       <use xlink:href="#DejaVuSans-36"/>
       <use xlink:href="#DejaVuSans-2e" transform="translate(63.623047 0)"/>
       <use xlink:href="#DejaVuSans-35" transform="translate(95.410156 0)"/>
      </g>
     </g>
    </g>
    <g id="xtick_6">
     <g id="line2d_6">
      <g>
       <use xlink:href="#m1499d8a1c9" x="335.928476" y="318.121875" style="stroke: #000000; stroke-width: 0.8"/>
      </g>
     </g>
     <g id="text_6">
      <!-- 7.0 -->
      <g transform="translate(327.976914 332.720312) scale(0.1 -0.1)">
       <defs>
        <path id="DejaVuSans-37" d="M 525 4666 
L 3525 4666 
L 3525 4397 
L 1831 0 
L 1172 0 
L 2766 4134 
L 525 4134 
L 525 4666 
z
" transform="scale(0.015625)"/>
       </defs>
       <use xlink:href="#DejaVuSans-37"/>
       <use xlink:href="#DejaVuSans-2e" transform="translate(63.623047 0)"/>
       <use xlink:href="#DejaVuSans-30" transform="translate(95.410156 0)"/>
      </g>
     </g>
    </g>
    <g id="xtick_7">
     <g id="line2d_7">
      <g>
       <use xlink:href="#m1499d8a1c9" x="388.398155" y="318.121875" style="stroke: #000000; stroke-width: 0.8"/>
      </g>
     </g>
     <g id="text_7">
      <!-- 7.5 -->
      <g transform="translate(380.446593 332.720312) scale(0.1 -0.1)">
       <use xlink:href="#DejaVuSans-37"/>
       <use xlink:href="#DejaVuSans-2e" transform="translate(63.623047 0)"/>
       <use xlink:href="#DejaVuSans-35" transform="translate(95.410156 0)"/>
      </g>
     </g>
    </g>
    <g id="xtick_8">
     <g id="line2d_8">
      <g>
       <use xlink:href="#m1499d8a1c9" x="440.867834" y="318.121875" style="stroke: #000000; stroke-width: 0.8"/>
      </g>
     </g>
     <g id="text_8">
      <!-- 8.0 -->
      <g transform="translate(432.916272 332.720312) scale(0.1 -0.1)">
       <defs>
        <path id="DejaVuSans-38" d="M 2034 2216 
Q 1584 2216 1326 1975 
Q 1069 1734 1069 1313 
Q 1069 891 1326 650 
Q 1584 409 2034 409 
Q 2484 409 2743 651 
Q 3003 894 3003 1313 
Q 3003 1734 2745 1975 
Q 2488 2216 2034 2216 
z
M 1403 2484 
Q 997 2584 770 2862 
Q 544 3141 544 3541 
Q 544 4100 942 4425 
Q 1341 4750 2034 4750 
Q 2731 4750 3128 4425 
Q 3525 4100 3525 3541 
Q 3525 3141 3298 2862 
Q 3072 2584 2669 2484 
Q 3125 2378 3379 2068 
Q 3634 1759 3634 1313 
Q 3634 634 3220 271 
Q 2806 -91 2034 -91 
Q 1263 -91 848 271 
Q 434 634 434 1313 
Q 434 1759 690 2068 
Q 947 2378 1403 2484 
z
M 1172 3481 
Q 1172 3119 1398 2916 
Q 1625 2713 2034 2713 
Q 2441 2713 2670 2916 
Q 2900 3119 2900 3481 
Q 2900 3844 2670 4047 
Q 2441 4250 2034 4250 
Q 1625 4250 1398 4047 
Q 1172 3844 1172 3481 
z
" transform="scale(0.015625)"/>
       </defs>
       <use xlink:href="#DejaVuSans-38"/>
       <use xlink:href="#DejaVuSans-2e" transform="translate(63.623047 0)"/>
       <use xlink:href="#DejaVuSans-30" transform="translate(95.410156 0)"/>
      </g>
     </g>
    </g>
   </g>
   <g id="matplotlib.axis_2">
    <g id="ytick_1">
     <g id="line2d_9">
      <defs>
       <path id="m48d756552e" d="M 0 0 
L -3.5 0 
" style="stroke: #000000; stroke-width: 0.8"/>
      </defs>
      <g>
       <use xlink:href="#m48d756552e" x="33.703125" y="304.839886" style="stroke: #000000; stroke-width: 0.8"/>
      </g>
     </g>
     <g id="text_9">
      <!-- 2.0 -->
      <g transform="translate(10.8 308.639105) scale(0.1 -0.1)">
       <defs>
        <path id="DejaVuSans-32" d="M 1228 531 
L 3431 531 
L 3431 0 
L 469 0 
L 469 531 
Q 828 903 1448 1529 
Q 2069 2156 2228 2338 
Q 2531 2678 2651 2914 
Q 2772 3150 2772 3378 
Q 2772 3750 2511 3984 
Q 2250 4219 1831 4219 
Q 1534 4219 1204 4116 
Q 875 4013 500 3803 
L 500 4441 
Q 881 4594 1212 4672 
Q 1544 4750 1819 4750 
Q 2544 4750 2975 4387 
Q 3406 4025 3406 3419 
Q 3406 3131 3298 2873 
Q 3191 2616 2906 2266 
Q 2828 2175 2409 1742 
Q 1991 1309 1228 531 
z
" transform="scale(0.015625)"/>
       </defs>
       <use xlink:href="#DejaVuSans-32"/>
       <use xlink:href="#DejaVuSans-2e" transform="translate(63.623047 0)"/>
       <use xlink:href="#DejaVuSans-30" transform="translate(95.410156 0)"/>
      </g>
     </g>
    </g>
    <g id="ytick_2">
     <g id="line2d_10">
      <g>
       <use xlink:href="#m48d756552e" x="33.703125" y="249.498267" style="stroke: #000000; stroke-width: 0.8"/>
      </g>
     </g>
     <g id="text_10">
      <!-- 2.5 -->
      <g transform="translate(10.8 253.297486) scale(0.1 -0.1)">
       <use xlink:href="#DejaVuSans-32"/>
       <use xlink:href="#DejaVuSans-2e" transform="translate(63.623047 0)"/>
       <use xlink:href="#DejaVuSans-35" transform="translate(95.410156 0)"/>
      </g>
     </g>
    </g>
    <g id="ytick_3">
     <g id="line2d_11">
      <g>
       <use xlink:href="#m48d756552e" x="33.703125" y="194.156648" style="stroke: #000000; stroke-width: 0.8"/>
      </g>
     </g>
     <g id="text_11">
      <!-- 3.0 -->
      <g transform="translate(10.8 197.955866) scale(0.1 -0.1)">
       <defs>
        <path id="DejaVuSans-33" d="M 2597 2516 
Q 3050 2419 3304 2112 
Q 3559 1806 3559 1356 
Q 3559 666 3084 287 
Q 2609 -91 1734 -91 
Q 1441 -91 1130 -33 
Q 819 25 488 141 
L 488 750 
Q 750 597 1062 519 
Q 1375 441 1716 441 
Q 2309 441 2620 675 
Q 2931 909 2931 1356 
Q 2931 1769 2642 2001 
Q 2353 2234 1838 2234 
L 1294 2234 
L 1294 2753 
L 1863 2753 
Q 2328 2753 2575 2939 
Q 2822 3125 2822 3475 
Q 2822 3834 2567 4026 
Q 2313 4219 1838 4219 
Q 1578 4219 1281 4162 
Q 984 4106 628 3988 
L 628 4550 
Q 988 4650 1302 4700 
Q 1616 4750 1894 4750 
Q 2613 4750 3031 4423 
Q 3450 4097 3450 3541 
Q 3450 3153 3228 2886 
Q 3006 2619 2597 2516 
z
" transform="scale(0.015625)"/>
       </defs>
       <use xlink:href="#DejaVuSans-33"/>
       <use xlink:href="#DejaVuSans-2e" transform="translate(63.623047 0)"/>
       <use xlink:href="#DejaVuSans-30" transform="translate(95.410156 0)"/>
      </g>
     </g>
    </g>
    <g id="ytick_4">
     <g id="line2d_12">
      <g>
       <use xlink:href="#m48d756552e" x="33.703125" y="138.815028" style="stroke: #000000; stroke-width: 0.8"/>
      </g>
     </g>
     <g id="text_12">
      <!-- 3.5 -->
      <g transform="translate(10.8 142.614247) scale(0.1 -0.1)">
       <use xlink:href="#DejaVuSans-33"/>
       <use xlink:href="#DejaVuSans-2e" transform="translate(63.623047 0)"/>
       <use xlink:href="#DejaVuSans-35" transform="translate(95.410156 0)"/>
      </g>
     </g>
    </g>
    <g id="ytick_5">
     <g id="line2d_13">
      <g>
       <use xlink:href="#m48d756552e" x="33.703125" y="83.473409" style="stroke: #000000; stroke-width: 0.8"/>
      </g>
     </g>
     <g id="text_13">
      <!-- 4.0 -->
      <g transform="translate(10.8 87.272628) scale(0.1 -0.1)">
       <use xlink:href="#DejaVuSans-34"/>
       <use xlink:href="#DejaVuSans-2e" transform="translate(63.623047 0)"/>
       <use xlink:href="#DejaVuSans-30" transform="translate(95.410156 0)"/>
      </g>
     </g>
    </g>
    <g id="ytick_6">
     <g id="line2d_14">
      <g>
       <use xlink:href="#m48d756552e" x="33.703125" y="28.13179" style="stroke: #000000; stroke-width: 0.8"/>
      </g>
     </g>
     <g id="text_14">
      <!-- 4.5 -->
      <g transform="translate(10.8 31.931009) scale(0.1 -0.1)">
       <use xlink:href="#DejaVuSans-34"/>
       <use xlink:href="#DejaVuSans-2e" transform="translate(63.623047 0)"/>
       <use xlink:href="#DejaVuSans-35" transform="translate(95.410156 0)"/>
      </g>
     </g>
    </g>
   </g>
   <g id="line2d_15"/>
   <g id="line2d_16"/>
   <g id="line2d_17"/>
   <g id="patch_3">
    <path d="M 33.703125 318.121875 
L 33.703125 25.918125 
" style="fill: none; stroke: #000000; stroke-width: 0.8; stroke-linejoin: miter; stroke-linecap: square"/>
   </g>
   <g id="patch_4">
    <path d="M 449.262983 318.121875 
L 449.262983 25.918125 
" style="fill: none; stroke: #000000; stroke-width: 0.8; stroke-linejoin: miter; stroke-linecap: square"/>
   </g>
   <g id="patch_5">
    <path d="M 33.703125 318.121875 
L 449.262983 318.121875 
" style="fill: none; stroke: #000000; stroke-width: 0.8; stroke-linejoin: miter; stroke-linecap: square"/>
   </g>
   <g id="patch_6">
    <path d="M 33.703125 25.918125 
L 449.262983 25.918125 
" style="fill: none; stroke: #000000; stroke-width: 0.8; stroke-linejoin: miter; stroke-linecap: square"/>
   </g>
   <g id="text_15">
    <!-- iris -->
    <g transform="translate(232.557116 19.918125) scale(0.12 -0.12)">
     <defs>
      <path id="DejaVuSans-69" d="M 603 3500 
L 1178 3500 
L 1178 0 
L 603 0 
L 603 3500 
z
M 603 4863 
L 1178 4863 
L 1178 4134 
L 603 4134 
L 603 4863 
z
" transform="scale(0.015625)"/>
      <path id="DejaVuSans-72" d="M 2631 2963 
Q 2534 3019 2420 3045 
Q 2306 3072 2169 3072 
Q 1681 3072 1420 2755 
Q 1159 2438 1159 1844 
L 1159 0 
L 581 0 
L 581 3500 
L 1159 3500 
L 1159 2956 
Q 1341 3275 1631 3429 
Q 1922 3584 2338 3584 
Q 2397 3584 2469 3576 
Q 2541 3569 2628 3553 
L 2631 2963 
z
" transform="scale(0.015625)"/>
      <path id="DejaVuSans-73" d="M 2834 3397 
L 2834 2853 
Q 2591 2978 2328 3040 
Q 2066 3103 1784 3103 
Q 1356 3103 1142 2972 
Q 928 2841 928 2578 
Q 928 2378 1081 2264 
Q 1234 2150 1697 2047 
L 1894 2003 
Q 2506 1872 2764 1633 
Q 3022 1394 3022 966 
Q 3022 478 2636 193 
Q 2250 -91 1575 -91 
Q 1294 -91 989 -36 
Q 684 19 347 128 
L 347 722 
Q 666 556 975 473 
Q 1284 391 1588 391 
Q 1994 391 2212 530 
Q 2431 669 2431 922 
Q 2431 1156 2273 1281 
Q 2116 1406 1581 1522 
L 1381 1569 
Q 847 1681 609 1914 
Q 372 2147 372 2553 
Q 372 3047 722 3315 
Q 1072 3584 1716 3584 
Q 2034 3584 2315 3537 
Q 2597 3491 2834 3397 
z
" transform="scale(0.015625)"/>
     </defs>
     <use xlink:href="#DejaVuSans-69"/>
     <use xlink:href="#DejaVuSans-72" transform="translate(27.783203 0)"/>
     <use xlink:href="#DejaVuSans-69" transform="translate(68.896484 0)"/>
     <use xlink:href="#DejaVuSans-73" transform="translate(96.679688 0)"/>
    </g>
   </g>
   <g id="legend_1">
    <g id="patch_7">
     <path d="M 403.900483 77.9525 
L 442.262983 77.9525 
Q 444.262983 77.9525 444.262983 75.9525 
L 444.262983 32.918125 
Q 444.262983 30.918125 442.262983 30.918125 
L 403.900483 30.918125 
Q 401.900483 30.918125 401.900483 32.918125 
L 401.900483 75.9525 
Q 401.900483 77.9525 403.900483 77.9525 
z
" style="fill: #ffffff; opacity: 0.8; stroke: #cccccc; stroke-linejoin: miter"/>
    </g>
    <g id="line2d_18">
     <defs>
      <path id="m58647fda82" d="M 0 3 
C 0.795609 3 1.55874 2.683901 2.12132 2.12132 
C 2.683901 1.55874 3 0.795609 3 0 
C 3 -0.795609 2.683901 -1.55874 2.12132 -2.12132 
C 1.55874 -2.683901 0.795609 -3 0 -3 
C -0.795609 -3 -1.55874 -2.683901 -2.12132 -2.12132 
C -2.683901 -1.55874 -3 -0.795609 -3 0 
C -3 0.795609 -2.683901 1.55874 -2.12132 2.12132 
C -1.55874 2.683901 -0.795609 3 0 3 
z
" style="stroke: #ffffff; stroke-width: 0.48"/>
     </defs>
     <g>
      <use xlink:href="#m58647fda82" x="415.900483" y="39.016562" style="fill: #1f77b4; stroke: #ffffff; stroke-width: 0.48"/>
     </g>
    </g>
    <g id="text_16">
     <!-- 0 -->
     <g transform="translate(433.900483 42.516562) scale(0.1 -0.1)">
      <use xlink:href="#DejaVuSans-30"/>
     </g>
    </g>
    <g id="line2d_19">
     <defs>
      <path id="m18a74d9fb5" d="M 0 3 
C 0.795609 3 1.55874 2.683901 2.12132 2.12132 
C 2.683901 1.55874 3 0.795609 3 0 
C 3 -0.795609 2.683901 -1.55874 2.12132 -2.12132 
C 1.55874 -2.683901 0.795609 -3 0 -3 
C -0.795609 -3 -1.55874 -2.683901 -2.12132 -2.12132 
C -2.683901 -1.55874 -3 -0.795609 -3 0 
C -3 0.795609 -2.683901 1.55874 -2.12132 2.12132 
C -1.55874 2.683901 -0.795609 3 0 3 
z
" style="stroke: #ffffff; stroke-width: 0.48"/>
     </defs>
     <g>
      <use xlink:href="#m18a74d9fb5" x="415.900483" y="53.694687" style="fill: #ff7f0e; stroke: #ffffff; stroke-width: 0.48"/>
     </g>
    </g>
    <g id="text_17">
     <!-- 1 -->
     <g transform="translate(433.900483 57.194687) scale(0.1 -0.1)">
      <defs>
       <path id="DejaVuSans-31" d="M 794 531 
L 1825 531 
L 1825 4091 
L 703 3866 
L 703 4441 
L 1819 4666 
L 2450 4666 
L 2450 531 
L 3481 531 
L 3481 0 
L 794 0 
L 794 531 
z
" transform="scale(0.015625)"/>
      </defs>
      <use xlink:href="#DejaVuSans-31"/>
     </g>
    </g>
    <g id="line2d_20">
     <defs>
      <path id="m028770f3d0" d="M 0 3 
C 0.795609 3 1.55874 2.683901 2.12132 2.12132 
C 2.683901 1.55874 3 0.795609 3 0 
C 3 -0.795609 2.683901 -1.55874 2.12132 -2.12132 
C 1.55874 -2.683901 0.795609 -3 0 -3 
C -0.795609 -3 -1.55874 -2.683901 -2.12132 -2.12132 
C -2.683901 -1.55874 -3 -0.795609 -3 0 
C -3 0.795609 -2.683901 1.55874 -2.12132 2.12132 
C -1.55874 2.683901 -0.795609 3 0 3 
z
" style="stroke: #ffffff; stroke-width: 0.48"/>
     </defs>
     <g>
      <use xlink:href="#m028770f3d0" x="415.900483" y="68.372812" style="fill: #2ca02c; stroke: #ffffff; stroke-width: 0.48"/>
     </g>
    </g>
    <g id="text_18">
     <!-- 2 -->
     <g transform="translate(433.900483 71.872812) scale(0.1 -0.1)">
      <use xlink:href="#DejaVuSans-32"/>
     </g>
    </g>
   </g>
  </g>
 </g>
 <defs>
  <clipPath id="pd5d73bb72d">
   <rect x="33.703125" y="25.918125" width="415.559858" height="292.20375"/>
  </clipPath>
 </defs>
</svg>
