<?xml version="1.0" encoding="utf-8" standalone="no"?>
<!DOCTYPE svg PUBLIC "-//W3C//DTD SVG 1.1//EN"
  "http://www.w3.org/Graphics/SVG/1.1/DTD/svg11.dtd">
<svg xmlns:xlink="http://www.w3.org/1999/xlink" width="468.189381pt" height="353.99952pt" viewBox="0 0 468.189381 353.99952" xmlns="http://www.w3.org/2000/svg" version="1.1">
 <metadata>
  <rdf:RDF xmlns:dc="http://purl.org/dc/elements/1.1/" xmlns:cc="http://creativecommons.org/ns#" xmlns:rdf="http://www.w3.org/1999/02/22-rdf-syntax-ns#">
   <cc:Work>
    <dc:type rdf:resource="http://purl.org/dc/dcmitype/StillImage"/>
    <dc:date>1970-01-01T00:00:00+00:00</dc:date>
    <dc:format>image/svg+xml</dc:format>
    <dc:creator>
     <cc:Agent>
      <dc:title>Matplotlib v3.10.7, https://matplotlib.org/</dc:title>
     </cc:Agent>
    </dc:creator>
   </cc:Work>
  </rdf:RDF>
 </metadata>
 <defs>
  <style type="text/css">*{stroke-linejoin: round; stroke-linecap: butt}</style>
 </defs>
 <g id="figure_1">
  <g id="patch_1">
   <path d="M 0 353.99952 
L 468.189381 353.99952 
L 468.189381 0 
L 0 0 
z
" style="fill: #ffffff"/>
  </g>
  <g id="axes_1">
   <g id="patch_2">
    <path d="M 43.78125 316.44327 
L 388.302075 316.44327 
L 388.302075 10.999219 
L 43.78125 10.999219 
z
" style="fill: #ffffff"/>
   </g>
   <g id="QuadContourSet_1">
    <path d="M 43.78125 293.219842 
L 47.491513 290.989599 
L 43.78125 289.284887 
L 40.823915 290.989599 
z
M 0.716147 271.820996 
L 11.286235 265.535928 
L 0.716147 260.51714 
L -8.264313 265.535928 
z
M -42.348956 240.152152 
L -42.236288 240.082257 
L -42.348956 240.032769 
L -42.441873 240.082257 
z
M -85.414059 219.938413 
L -77.000901 214.628586 
L -85.414059 210.781436 
L -92.608505 214.628586 
z
" clip-path="url(#p1ec12e89ab)" style="fill: #460b5e"/>
    <path d="M 0.716147 291.077195 
L 43.740064 316.44327 
L 43.78125 316.44327 
L 86.846353 316.44327 
L 115.799087 316.44327 
L 86.846353 298.077979 
L 78.183111 290.989599 
L 43.78125 271.415201 
L 36.953915 265.535928 
L 0.716147 244.926755 
L -7.462135 240.082257 
L -42.348956 220.573605 
L -49.138312 214.628586 
L -85.414059 194.459442 
L -94.290888 189.174915 
L -128.479162 169.110072 
L -139.248691 163.721244 
L -171.544265 152.829402 
L -196.651967 138.267573 
L -214.609368 128.515204 
L -239.597516 112.813902 
L -257.674471 102.510122 
L -284.88254 87.360232 
L -300.739575 78.920783 
L -334.220761 61.906561 
L -343.804678 58.603033 
L -386.869781 43.244279 
L -386.869781 61.906561 
L -386.869781 65.719486 
L -348.877459 87.360232 
L -343.804678 90.686061 
L -304.931471 112.813902 
L -300.739575 114.838134 
L -260.324591 138.267573 
L -257.674471 139.676476 
L -216.142291 163.721244 
L -214.609368 164.745348 
L -172.7165 189.174915 
L -171.544265 189.985789 
L -129.269525 214.628586 
L -128.479162 215.230989 
L -86.159827 240.082257 
L -85.414059 240.615048 
L -42.848252 265.535928 
L -42.348956 265.930961 
L 0.593515 290.989599 
z
M 40.823915 290.989599 
L 43.78125 289.284887 
L 47.491513 290.989599 
L 43.78125 293.219842 
z
M -8.264313 265.535928 
L 0.716147 260.51714 
L 11.286235 265.535928 
L 0.716147 271.820996 
z
M -42.441873 240.082257 
L -42.348956 240.032769 
L -42.236288 240.082257 
L -42.348956 240.152152 
z
M -92.608505 214.628586 
L -85.414059 210.781436 
L -77.000901 214.628586 
L -85.414059 219.938413 
z
" clip-path="url(#p1ec12e89ab)" style="fill: #482071"/>
    <path d="M 0.716147 295.889837 
L 37.259656 316.44327 
L 43.740064 316.44327 
L 0.716147 291.077195 
L 0.593515 290.989599 
L -42.348956 265.930961 
L -42.848252 265.535928 
L -85.414059 240.615048 
L -86.159827 240.082257 
L -128.479162 215.230989 
L -129.269525 214.628586 
L -171.544265 189.985789 
L -172.7165 189.174915 
L -214.609368 164.745348 
L -216.142291 163.721244 
L -257.674471 139.676476 
L -260.324591 138.267573 
L -300.739575 114.838134 
L -304.931471 112.813902 
L -343.804678 90.686061 
L -348.877459 87.360232 
L -386.869781 65.719486 
L -386.869781 83.488044 
L -378.498575 87.360232 
L -343.804678 106.185046 
L -329.908409 112.813902 
L -300.739575 124.807837 
L -274.952798 138.267573 
L -257.674471 146.615904 
L -225.95698 163.721244 
L -214.609368 170.827636 
L -181.16223 189.174915 
L -171.544265 195.467104 
L -136.821648 214.628586 
L -128.479162 220.677236 
L -93.6011 240.082257 
L -85.414059 245.650218 
L -49.712203 265.535928 
L -42.348956 271.102602 
L -6.473072 290.989599 
z
M 86.846353 298.077979 
L 115.799087 316.44327 
L 129.911456 316.44327 
L 134.630591 316.44327 
L 129.911456 313.848107 
L 95.447639 290.989599 
L 86.846353 286.311406 
L 54.208405 265.535928 
L 43.78125 259.7971 
L 13.044701 240.082257 
L 0.716147 233.066178 
L -27.736658 214.628586 
L -42.348956 206.500423 
L -69.07755 189.174915 
L -85.414059 180.523964 
L -109.887526 163.721244 
L -128.479162 153.901217 
L -162.547948 138.267573 
L -171.544265 133.848932 
L -202.091787 112.813902 
L -214.609368 106.614508 
L -241.494976 87.360232 
L -257.674471 78.799955 
L -282.025724 61.906561 
L -300.739575 51.653284 
L -328.14034 36.45289 
L -343.804678 30.995886 
L -386.869781 12.474393 
L -386.869781 36.45289 
L -386.869781 43.244279 
L -343.804678 58.603033 
L -334.220761 61.906561 
L -300.739575 78.920783 
L -284.88254 87.360232 
L -257.674471 102.510122 
L -239.597516 112.813902 
L -214.609368 128.515204 
L -196.651967 138.267573 
L -171.544265 152.829402 
L -139.248691 163.721244 
L -128.479162 169.110072 
L -94.290888 189.174915 
L -85.414059 194.459442 
L -49.138312 214.628586 
L -42.348956 220.573605 
L -7.462135 240.082257 
L 0.716147 244.926755 
L 36.953915 265.535928 
L 43.78125 271.415201 
L 78.183111 290.989599 
z
" clip-path="url(#p1ec12e89ab)" style="fill: #46337f"/>
    <path d="M 0.716147 300.702479 
L 30.164198 316.44327 
L 37.259656 316.44327 
L 0.716147 295.889837 
L -6.473072 290.989599 
L -42.348956 271.102602 
L -49.712203 265.535928 
L -85.414059 245.650218 
L -93.6011 240.082257 
L -128.479162 220.677236 
L -136.821648 214.628586 
L -171.544265 195.467104 
L -181.16223 189.174915 
L -214.609368 170.827636 
L -225.95698 163.721244 
L -257.674471 146.615904 
L -274.952798 138.267573 
L -300.739575 124.807837 
L -329.908409 112.813902 
L -343.804678 106.185046 
L -378.498575 87.360232 
L -386.869781 83.488044 
L -386.869781 87.360232 
L -386.869781 92.900954 
L -349.559378 112.813902 
L -343.804678 117.194662 
L -300.739575 134.77754 
L -293.154101 138.267573 
L -257.674471 153.555332 
L -237.256527 163.721244 
L -214.609368 176.909924 
L -190.684213 189.174915 
L -171.544265 200.94842 
L -145.222639 214.628586 
L -128.479162 226.123483 
L -101.86512 240.082257 
L -85.414059 250.685389 
L -57.270126 265.535928 
L -42.348956 276.274243 
L -14.277454 290.989599 
z
M 129.911456 313.848107 
L 134.630591 316.44327 
L 145.563062 316.44327 
L 129.911456 307.168284 
L 107.256828 290.989599 
L 86.846353 278.94612 
L 67.466567 265.535928 
L 43.78125 251.244345 
L 27.947224 240.082257 
L 0.716147 222.887086 
L -10.715494 214.628586 
L -42.348956 194.796592 
L -50.021909 189.174915 
L -85.414059 167.731104 
L -90.568959 163.721244 
L -128.479162 140.752103 
L -132.959801 138.267573 
L -171.544265 114.929787 
L -174.110512 112.813902 
L -214.609368 88.364224 
L -215.796397 87.360232 
L -255.931853 61.906561 
L -257.674471 61.014492 
L -294.964114 36.45289 
L -300.739575 33.61766 
L -343.804678 14.995035 
L -350.9929 10.999219 
L -386.869781 10.999219 
L -386.869781 12.474393 
L -343.804678 30.995886 
L -328.14034 36.45289 
L -300.739575 51.653284 
L -282.025724 61.906561 
L -257.674471 78.799955 
L -241.494976 87.360232 
L -214.609368 106.614508 
L -202.091787 112.813902 
L -171.544265 133.848932 
L -162.547948 138.267573 
L -128.479162 153.901217 
L -109.887526 163.721244 
L -85.414059 180.523964 
L -69.07755 189.174915 
L -42.348956 206.500423 
L -27.736658 214.628586 
L 0.716147 233.066178 
L 13.044701 240.082257 
L 43.78125 259.7971 
L 54.208405 265.535928 
L 86.846353 286.311406 
L 95.447639 290.989599 
z
" clip-path="url(#p1ec12e89ab)" style="fill: #404588"/>
    <path d="M 0.716147 305.515121 
L 22.324581 316.44327 
L 30.164198 316.44327 
L 0.716147 300.702479 
L -14.277454 290.989599 
L -42.348956 276.274243 
L -57.270126 265.535928 
L -85.414059 250.685389 
L -101.86512 240.082257 
L -128.479162 226.123483 
L -145.222639 214.628586 
L -171.544265 200.94842 
L -190.684213 189.174915 
L -214.609368 176.909924 
L -237.256527 163.721244 
L -257.674471 153.555332 
L -293.154101 138.267573 
L -300.739575 134.77754 
L -343.804678 117.194662 
L -349.559378 112.813902 
L -386.869781 92.900954 
L -386.869781 99.985584 
L -360.817739 112.813902 
L -343.804678 124.849265 
L -310.1652 138.267573 
L -300.739575 143.98613 
L -257.674471 160.49476 
L -250.571705 163.721244 
L -214.609368 182.992211 
L -201.597365 189.174915 
L -171.544265 206.429736 
L -154.687777 214.628586 
L -128.479162 231.569731 
L -111.156702 240.082257 
L -85.414059 255.720559 
L -65.678296 265.535928 
L -42.348956 281.445885 
L -22.991843 290.989599 
z
M 129.911456 307.168284 
L 145.563062 316.44327 
L 155.099744 316.44327 
L 129.911456 300.48846 
L 117.453555 290.989599 
L 86.846353 271.580835 
L 78.725057 265.535928 
L 43.78125 242.691591 
L 40.368581 240.082257 
L 3.804581 214.628586 
L 0.716147 212.994854 
L -33.626517 189.174915 
L -42.348956 184.637783 
L -73.454074 163.721244 
L -85.414059 157.301371 
L -113.495598 138.267573 
L -128.479162 129.94229 
L -153.642281 112.813902 
L -171.544265 102.600348 
L -193.615338 87.360232 
L -214.609368 75.230361 
L -232.829787 61.906561 
L -257.674471 46.996848 
L -271.479585 36.45289 
L -300.739575 19.544651 
L -317.038719 10.999219 
L -343.804678 10.999219 
L -350.9929 10.999219 
L -343.804678 14.995035 
L -300.739575 33.61766 
L -294.964114 36.45289 
L -257.674471 61.014492 
L -255.931853 61.906561 
L -215.796397 87.360232 
L -214.609368 88.364224 
L -174.110512 112.813902 
L -171.544265 114.929787 
L -132.959801 138.267573 
L -128.479162 140.752103 
L -90.568959 163.721244 
L -85.414059 167.731104 
L -50.021909 189.174915 
L -42.348956 194.796592 
L -10.715494 214.628586 
L 0.716147 222.887086 
L 27.947224 240.082257 
L 43.78125 251.244345 
L 67.466567 265.535928 
L 86.846353 278.94612 
L 107.256828 290.989599 
z
" clip-path="url(#p1ec12e89ab)" style="fill: #39558c"/>
    <path d="M 0.716147 310.327763 
L 13.566228 316.44327 
L 22.324581 316.44327 
L 0.716147 305.515121 
L -22.991843 290.989599 
L -42.348956 281.445885 
L -65.678296 265.535928 
L -85.414059 255.720559 
L -111.156702 240.082257 
L -128.479162 231.569731 
L -154.687777 214.628586 
L -171.544265 206.429736 
L -201.597365 189.174915 
L -214.609368 182.992211 
L -250.571705 163.721244 
L -257.674471 160.49476 
L -300.739575 143.98613 
L -310.1652 138.267573 
L -343.804678 124.849265 
L -360.817739 112.813902 
L -386.869781 99.985584 
L -386.869781 107.070215 
L -374.075722 112.813902 
L -343.804678 132.503869 
L -327.478058 138.267573 
L -300.739575 152.784775 
L -268.239427 163.721244 
L -257.674471 172.172413 
L -214.609368 189.074499 
L -214.378897 189.174915 
L -171.544265 211.911052 
L -165.526294 214.628586 
L -128.479162 237.015978 
L -121.768157 240.082257 
L -85.414059 260.75573 
L -75.15255 265.535928 
L -42.348956 286.617526 
L -32.856819 290.989599 
z
M 129.911456 300.48846 
L 155.099744 316.44327 
L 163.557031 316.44327 
L 129.911456 293.808637 
L 126.425723 290.989599 
L 89.255713 265.535928 
L 86.846353 264.113668 
L 53.926186 240.082257 
L 43.78125 234.167286 
L 18.333238 214.628586 
L 0.716147 204.336117 
L -19.256439 189.174915 
L -42.348956 175.907024 
L -58.872894 163.721244 
L -85.414059 147.950518 
L -98.38743 138.267573 
L -128.479162 119.677466 
L -137.572687 112.813902 
L -171.544265 91.100693 
L -176.388855 87.360232 
L -214.609368 62.394351 
L -215.203762 61.906561 
L -251.473445 36.45289 
L -257.674471 33.183214 
L -290.454038 10.999219 
L -300.739575 10.999219 
L -317.038719 10.999219 
L -300.739575 19.544651 
L -271.479585 36.45289 
L -257.674471 46.996848 
L -232.829787 61.906561 
L -214.609368 75.230361 
L -193.615338 87.360232 
L -171.544265 102.600348 
L -153.642281 112.813902 
L -128.479162 129.94229 
L -113.495598 138.267573 
L -85.414059 157.301371 
L -73.454074 163.721244 
L -42.348956 184.637783 
L -33.626517 189.174915 
L 0.716147 212.994854 
L 3.804581 214.628586 
L 40.368581 240.082257 
L 43.78125 242.691591 
L 78.725057 265.535928 
L 86.846353 271.580835 
L 117.453555 290.989599 
z
" clip-path="url(#p1ec12e89ab)" style="fill: #32658e"/>
    <path d="M -42.348956 291.888402 
L 0.716147 315.140405 
L 3.644857 316.44327 
L 13.566228 316.44327 
L 0.716147 310.327763 
L -32.856819 290.989599 
L -42.348956 286.617526 
L -75.15255 265.535928 
L -85.414059 260.75573 
L -121.768157 240.082257 
L -128.479162 237.015978 
L -165.526294 214.628586 
L -171.544265 211.911052 
L -214.378897 189.174915 
L -214.609368 189.074499 
L -257.674471 172.172413 
L -268.239427 163.721244 
L -300.739575 152.784775 
L -327.478058 138.267573 
L -343.804678 132.503869 
L -374.075722 112.813902 
L -386.869781 107.070215 
L -386.869781 112.813902 
L -386.869781 116.785597 
L -350.456616 138.267573 
L -343.804678 141.058747 
L -300.739575 161.583421 
L -293.178348 163.721244 
L -257.674471 187.967501 
L -253.588938 189.174915 
L -215.208883 214.628586 
L -214.609368 215.11353 
L -171.544265 223.028146 
L -138.977571 240.082257 
L -128.479162 244.723663 
L -86.243461 265.535928 
L -85.414059 265.856537 
L -43.586547 290.989599 
z
M 129.911456 293.808637 
L 163.557031 316.44327 
L 171.154609 316.44327 
L 136.411563 290.989599 
L 129.911456 286.971736 
L 101.434112 265.535928 
L 86.846353 256.180065 
L 66.466206 240.082257 
L 43.78125 225.655472 
L 30.494017 214.628586 
L 0.716147 195.67738 
L -7.206856 189.174915 
L -42.348956 167.176265 
L -46.675374 163.721244 
L -85.414059 138.599666 
L -85.823678 138.267573 
L -121.122126 112.813902 
L -128.479162 108.541528 
L -156.264552 87.360232 
L -171.544265 78.530782 
L -192.972554 61.906561 
L -214.609368 49.322856 
L -230.646737 36.45289 
L -257.674471 19.988826 
L -269.28616 10.999219 
L -290.454038 10.999219 
L -257.674471 33.183214 
L -251.473445 36.45289 
L -215.203762 61.906561 
L -214.609368 62.394351 
L -176.388855 87.360232 
L -171.544265 91.100693 
L -137.572687 112.813902 
L -128.479162 119.677466 
L -98.38743 138.267573 
L -85.414059 147.950518 
L -58.872894 163.721244 
L -42.348956 175.907024 
L -19.256439 189.174915 
L 0.716147 204.336117 
L 18.333238 214.628586 
L 43.78125 234.167286 
L 53.926186 240.082257 
L 86.846353 264.113668 
L 89.255713 265.535928 
L 126.425723 290.989599 
z
" clip-path="url(#p1ec12e89ab)" style="fill: #2c738e"/>
    <path d="M -42.348956 297.7019 
L -5.582133 316.44327 
L 0.716147 316.44327 
L 3.644857 316.44327 
L 0.716147 315.140405 
L -42.348956 291.888402 
L -43.586547 290.989599 
L -85.414059 265.856537 
L -86.243461 265.535928 
L -128.479162 244.723663 
L -138.977571 240.082257 
L -171.544265 223.028146 
L -214.609368 215.11353 
L -215.208883 214.628586 
L -253.588938 189.174915 
L -257.674471 187.967501 
L -293.178348 163.721244 
L -300.739575 161.583421 
L -343.804678 141.058747 
L -350.456616 138.267573 
L -386.869781 116.785597 
L -386.869781 137.769335 
L -385.789708 138.267573 
L -343.804678 152.357779 
L -316.315652 163.721244 
L -300.739575 170.95489 
L -269.202654 189.174915 
L -257.674471 195.213154 
L -223.852397 214.628586 
L -214.609368 221.690011 
L -171.544265 239.686716 
L -170.603774 240.082257 
L -128.479162 255.344916 
L -104.846036 265.535928 
L -85.414059 272.18789 
L -52.127416 290.989599 
z
M 172.976559 316.44327 
L 180.673269 316.44327 
L 172.976559 311.844921 
L 146.474907 290.989599 
L 129.911456 280.02014 
L 111.904781 265.535928 
L 86.846353 248.246463 
L 77.202918 240.082257 
L 43.78125 217.143657 
L 40.951666 214.628586 
L 4.641596 189.174915 
L 0.716147 186.897537 
L -31.903362 163.721244 
L -42.348956 157.317816 
L -67.429496 138.267573 
L -85.414059 126.734625 
L -102.498754 112.813902 
L -128.479162 95.647733 
L -138.160357 87.360232 
L -171.544265 65.444935 
L -175.619101 61.906561 
L -214.204386 36.45289 
L -214.609368 36.216164 
L -249.073146 10.999219 
L -257.674471 10.999219 
L -269.28616 10.999219 
L -257.674471 19.988826 
L -230.646737 36.45289 
L -214.609368 49.322856 
L -192.972554 61.906561 
L -171.544265 78.530782 
L -156.264552 87.360232 
L -128.479162 108.541528 
L -121.122126 112.813902 
L -85.823678 138.267573 
L -85.414059 138.599666 
L -46.675374 163.721244 
L -42.348956 167.176265 
L -7.206856 189.174915 
L 0.716147 195.67738 
L 30.494017 214.628586 
L 43.78125 225.655472 
L 66.466206 240.082257 
L 86.846353 256.180065 
L 101.434112 265.535928 
L 129.911456 286.971736 
L 136.411563 290.989599 
L 171.154609 316.44327 
z
" clip-path="url(#p1ec12e89ab)" style="fill: #26828e"/>
    <path d="M -42.348956 303.515397 
L -15.182865 316.44327 
L -5.582133 316.44327 
L -42.348956 297.7019 
L -52.127416 290.989599 
L -85.414059 272.18789 
L -104.846036 265.535928 
L -128.479162 255.344916 
L -170.603774 240.082257 
L -171.544265 239.686716 
L -214.609368 221.690011 
L -223.852397 214.628586 
L -257.674471 195.213154 
L -269.202654 189.174915 
L -300.739575 170.95489 
L -316.315652 163.721244 
L -343.804678 152.357779 
L -385.789708 138.267573 
L -386.869781 137.769335 
L -386.869781 138.267573 
L -386.869781 147.192875 
L -343.804678 163.656811 
L -343.616556 163.721244 
L -300.739575 180.51021 
L -284.084922 189.174915 
L -257.674471 201.751174 
L -233.626614 214.628586 
L -214.609368 228.266493 
L -184.063015 240.082257 
L -171.544265 248.138428 
L -129.098962 265.535928 
L -128.479162 266.048863 
L -85.414059 278.519243 
L -61.770542 290.989599 
z
M 172.976559 311.844921 
L 180.673269 316.44327 
L 189.901242 316.44327 
L 172.976559 305.670272 
L 155.343676 290.989599 
L 129.911456 273.068544 
L 121.088283 265.535928 
L 86.846353 240.31286 
L 86.590355 240.082257 
L 53.533751 214.628586 
L 43.78125 208.755125 
L 18.609248 189.174915 
L 0.716147 177.752482 
L -17.293714 163.721244 
L -42.348956 146.720857 
L -52.457932 138.267573 
L -85.414059 114.777006 
L -87.599659 112.813902 
L -121.523978 87.360232 
L -128.479162 83.311392 
L -156.859742 61.906561 
L -171.544265 52.733125 
L -192.591166 36.45289 
L -214.609368 21.528704 
L -227.132707 10.999219 
L -249.073146 10.999219 
L -214.609368 36.216164 
L -214.204386 36.45289 
L -175.619101 61.906561 
L -171.544265 65.444935 
L -138.160357 87.360232 
L -128.479162 95.647733 
L -102.498754 112.813902 
L -85.414059 126.734625 
L -67.429496 138.267573 
L -42.348956 157.317816 
L -31.903362 163.721244 
L 0.716147 186.897537 
L 4.641596 189.174915 
L 40.951666 214.628586 
L 43.78125 217.143657 
L 77.202918 240.082257 
L 86.846353 248.246463 
L 111.904781 265.535928 
L 129.911456 280.02014 
L 146.474907 290.989599 
z
" clip-path="url(#p1ec12e89ab)" style="fill: #21918c"/>
    <path d="M -42.348956 309.328895 
L -26.199628 316.44327 
L -15.182865 316.44327 
L -42.348956 303.515397 
L -61.770542 290.989599 
L -85.414059 278.519243 
L -128.479162 266.048863 
L -129.098962 265.535928 
L -171.544265 248.138428 
L -184.063015 240.082257 
L -214.609368 228.266493 
L -233.626614 214.628586 
L -257.674471 201.751174 
L -284.084922 189.174915 
L -300.739575 180.51021 
L -343.616556 163.721244 
L -343.804678 163.656811 
L -386.869781 147.192875 
L -386.869781 156.335253 
L -364.480065 163.721244 
L -343.804678 175.013839 
L -303.052268 189.174915 
L -300.739575 191.149553 
L -257.674471 208.289194 
L -244.872526 214.628586 
L -214.609368 234.842975 
L -199.512441 240.082257 
L -171.544265 256.390537 
L -146.297005 265.535928 
L -128.479162 278.711581 
L -85.414059 284.850596 
L -72.843186 290.989599 
z
M 172.976559 305.670272 
L 189.901242 316.44327 
L 198.114921 316.44327 
L 172.976559 299.495623 
L 163.271621 290.989599 
L 129.911456 266.116949 
L 129.26672 265.535928 
L 99.825801 240.082257 
L 86.846353 232.369652 
L 65.501753 214.628586 
L 43.78125 200.418297 
L 30.374838 189.174915 
L 0.716147 168.607428 
L -5.076297 163.721244 
L -38.603756 138.267573 
L -42.348956 136.12912 
L -70.913558 112.813902 
L -85.414059 103.69235 
L -104.919703 87.360232 
L -128.479162 71.978005 
L -140.509461 61.906561 
L -171.544265 40.159934 
L -175.842728 36.45289 
L -207.952319 10.999219 
L -214.609368 10.999219 
L -227.132707 10.999219 
L -214.609368 21.528704 
L -192.591166 36.45289 
L -171.544265 52.733125 
L -156.859742 61.906561 
L -128.479162 83.311392 
L -121.523978 87.360232 
L -87.599659 112.813902 
L -85.414059 114.777006 
L -52.457932 138.267573 
L -42.348956 146.720857 
L -17.293714 163.721244 
L 0.716147 177.752482 
L 18.609248 189.174915 
L 43.78125 208.755125 
L 53.533751 214.628586 
L 86.590355 240.082257 
L 86.846353 240.31286 
L 121.088283 265.535928 
L 129.911456 273.068544 
L 155.343676 290.989599 
z
" clip-path="url(#p1ec12e89ab)" style="fill: #1f9f88"/>
    <path d="M -128.479162 291.496703 
L -85.414059 291.401478 
L -42.348956 315.142393 
L -39.123612 316.44327 
L -26.199628 316.44327 
L -42.348956 309.328895 
L -72.843186 290.989599 
L -85.414059 284.850596 
L -128.479162 278.711581 
L -146.297005 265.535928 
L -171.544265 256.390537 
L -199.512441 240.082257 
L -214.609368 234.842975 
L -244.872526 214.628586 
L -257.674471 208.289194 
L -300.739575 191.149553 
L -303.052268 189.174915 
L -343.804678 175.013839 
L -364.480065 163.721244 
L -386.869781 156.335253 
L -386.869781 163.721244 
L -386.869781 189.174915 
L -386.869781 189.278337 
L -385.221212 189.174915 
L -343.804678 186.371199 
L -333.781254 189.174915 
L -343.804678 201.010413 
L -348.444127 214.628586 
L -343.804678 218.399683 
L -310.3682 214.628586 
L -300.739575 212.335256 
L -265.217663 214.628586 
L -257.804279 240.082257 
L -257.674471 240.189849 
L -214.609368 242.440518 
L -171.544265 264.642646 
L -168.667106 265.535928 
L -129.037502 290.989599 
z
M 172.976559 299.495623 
L 198.114921 316.44327 
L 205.515361 316.44327 
L 172.976559 293.320974 
L 170.439345 290.989599 
L 143.300385 265.535928 
L 129.911456 257.585833 
L 111.189893 240.082257 
L 86.846353 224.426155 
L 75.816602 214.628586 
L 43.78125 192.08147 
L 40.53906 189.174915 
L 9.760525 163.721244 
L 0.716147 158.634327 
L -22.427664 138.267573 
L -42.348956 125.557976 
L -56.602982 112.813902 
L -85.414059 92.77916 
L -91.339625 87.360232 
L -125.796149 61.906561 
L -128.479162 60.387958 
L -156.479091 36.45289 
L -171.544265 26.42318 
L -188.281567 10.999219 
L -207.952319 10.999219 
L -175.842728 36.45289 
L -171.544265 40.159934 
L -140.509461 61.906561 
L -128.479162 71.978005 
L -104.919703 87.360232 
L -85.414059 103.69235 
L -70.913558 112.813902 
L -42.348956 136.12912 
L -38.603756 138.267573 
L -5.076297 163.721244 
L 0.716147 168.607428 
L 30.374838 189.174915 
L 43.78125 200.418297 
L 65.501753 214.628586 
L 86.846353 232.369652 
L 99.825801 240.082257 
L 129.26672 265.535928 
L 129.911456 266.116949 
L 163.271621 290.989599 
z
" clip-path="url(#p1ec12e89ab)" style="fill: #26ad81"/>
    <path d="M -128.479162 308.188469 
L -85.414059 304.958827 
L -59.915224 316.44327 
L -42.348956 316.44327 
L -39.123612 316.44327 
L -42.348956 315.142393 
L -85.414059 291.401478 
L -128.479162 291.496703 
L -129.037502 290.989599 
L -168.667106 265.535928 
L -171.544265 264.642646 
L -214.609368 242.440518 
L -257.674471 240.189849 
L -257.804279 240.082257 
L -265.217663 214.628586 
L -300.739575 212.335256 
L -310.3682 214.628586 
L -343.804678 218.399683 
L -348.444127 214.628586 
L -343.804678 201.010413 
L -333.781254 189.174915 
L -343.804678 186.371199 
L -385.221212 189.174915 
L -386.869781 189.278337 
L -386.869781 203.49326 
L -367.536137 214.628586 
L -343.804678 231.676034 
L -300.739575 227.815209 
L -278.205644 240.082257 
L -257.674471 254.977182 
L -214.609368 254.038682 
L -188.920124 265.535928 
L -171.544265 279.295903 
L -150.219008 290.989599 
z
M 172.976559 293.320974 
L 205.515361 316.44327 
L 212.24919 316.44327 
L 184.184601 290.989599 
L 172.976559 284.234232 
L 155.607511 265.535928 
L 129.911456 248.91066 
L 121.053219 240.082257 
L 86.846353 216.482659 
L 84.880063 214.628586 
L 57.362712 189.174915 
L 43.78125 180.910403 
L 26.125546 163.721244 
L 0.716147 147.711211 
L -9.134982 138.267573 
L -42.348956 114.986832 
L -44.595226 112.813902 
L -72.830661 87.360232 
L -85.414059 80.101425 
L -105.2315 61.906561 
L -128.479162 46.749532 
L -139.269128 36.45289 
L -171.544265 12.199924 
L -172.720952 10.999219 
L -188.281567 10.999219 
L -171.544265 26.42318 
L -156.479091 36.45289 
L -128.479162 60.387958 
L -125.796149 61.906561 
L -91.339625 87.360232 
L -85.414059 92.77916 
L -56.602982 112.813902 
L -42.348956 125.557976 
L -22.427664 138.267573 
L 0.716147 158.634327 
L 9.760525 163.721244 
L 40.53906 189.174915 
L 43.78125 192.08147 
L 75.816602 214.628586 
L 86.846353 224.426155 
L 111.189893 240.082257 
L 129.911456 257.585833 
L 143.300385 265.535928 
L 170.439345 290.989599 
z
" clip-path="url(#p1ec12e89ab)" style="fill: #3aba76"/>
    <path d="M -343.804678 316.44327 
L -300.739575 316.44327 
L -257.674471 316.44327 
L -214.609368 316.44327 
L -171.544265 316.44327 
L -128.479162 316.44327 
L -85.414059 316.44327 
L -59.915224 316.44327 
L -85.414059 304.958827 
L -128.479162 308.188469 
L -150.219008 290.989599 
L -171.544265 279.295903 
L -188.920124 265.535928 
L -214.609368 254.038682 
L -257.674471 254.977182 
L -278.205644 240.082257 
L -300.739575 227.815209 
L -343.804678 231.676034 
L -367.536137 214.628586 
L -386.869781 203.49326 
L -386.869781 214.628586 
L -386.869781 240.082257 
L -386.869781 265.535928 
L -386.869781 290.989599 
L -386.869781 316.44327 
z
M 216.041662 316.44327 
L 224.51227 316.44327 
L 216.041662 310.75246 
L 199.277413 290.989599 
L 172.976559 273.380979 
L 166.173139 265.535928 
L 129.911456 240.235486 
L 129.766322 240.082257 
L 105.584004 214.628586 
L 86.846353 202.887036 
L 74.347792 189.174915 
L 43.78125 168.222309 
L 39.545377 163.721244 
L 5.841166 138.267573 
L 0.716147 135.055099 
L -19.513482 112.813902 
L -42.348956 98.673762 
L -52.771843 87.360232 
L -85.414059 65.683338 
L -89.118087 61.906561 
L -118.181005 36.45289 
L -128.479162 30.684885 
L -146.011782 10.999219 
L -171.544265 10.999219 
L -172.720952 10.999219 
L -171.544265 12.199924 
L -139.269128 36.45289 
L -128.479162 46.749532 
L -105.2315 61.906561 
L -85.414059 80.101425 
L -72.830661 87.360232 
L -44.595226 112.813902 
L -42.348956 114.986832 
L -9.134982 138.267573 
L 0.716147 147.711211 
L 26.125546 163.721244 
L 43.78125 180.910403 
L 57.362712 189.174915 
L 84.880063 214.628586 
L 86.846353 216.482659 
L 121.053219 240.082257 
L 129.911456 248.91066 
L 155.607511 265.535928 
L 172.976559 284.234232 
L 184.184601 290.989599 
L 212.24919 316.44327 
z
M 517.497384 294.197797 
L 533.375449 316.44327 
L 560.562487 316.44327 
L 603.62759 316.44327 
L 646.692693 316.44327 
L 689.757796 316.44327 
L 732.822899 316.44327 
L 775.888002 316.44327 
L 818.953105 316.44327 
L 862.018208 316.44327 
L 905.083311 316.44327 
L 948.148414 316.44327 
L 991.213518 316.44327 
L 1034.278621 316.44327 
L 1077.343724 316.44327 
L 1120.408827 316.44327 
L 1163.47393 316.44327 
L 1206.539033 316.44327 
L 1249.604136 316.44327 
L 1292.669239 316.44327 
L 1335.734342 316.44327 
L 1378.799445 316.44327 
L 1421.864548 316.44327 
L 1464.929651 316.44327 
L 1507.994754 316.44327 
L 1507.994754 290.989599 
L 1507.994754 265.535928 
L 1507.994754 240.082257 
L 1507.994754 214.628586 
L 1507.994754 189.174915 
L 1507.994754 163.721244 
L 1507.994754 138.267573 
L 1507.994754 112.813902 
L 1507.994754 87.360232 
L 1507.994754 61.906561 
L 1507.994754 36.45289 
L 1507.994754 10.999219 
L 1464.929651 10.999219 
L 1421.864548 10.999219 
L 1378.799445 10.999219 
L 1335.734342 10.999219 
L 1292.669239 10.999219 
L 1249.604136 10.999219 
L 1206.539033 10.999219 
L 1163.47393 10.999219 
L 1120.408827 10.999219 
L 1077.343724 10.999219 
L 1034.278621 10.999219 
L 991.213518 10.999219 
L 948.148414 10.999219 
L 905.083311 10.999219 
L 862.018208 10.999219 
L 818.953105 10.999219 
L 775.888002 10.999219 
L 732.822899 10.999219 
L 689.757796 10.999219 
L 646.692693 10.999219 
L 603.62759 10.999219 
L 560.562487 10.999219 
L 517.497384 10.999219 
L 474.432281 10.999219 
L 431.367178 10.999219 
L 388.302075 10.999219 
L 375.336563 10.999219 
L 381.584772 36.45289 
L 387.310884 61.906561 
L 388.302075 65.950023 
L 399.283465 87.360232 
L 410.888514 112.813902 
L 420.909789 138.267573 
L 429.588377 163.721244 
L 431.367178 168.368928 
L 448.524685 189.174915 
L 464.37456 214.628586 
L 474.432281 236.181423 
L 478.99431 240.082257 
L 503.494591 265.535928 
L 516.642781 290.989599 
z
" clip-path="url(#p1ec12e89ab)" style="fill: #56c667"/>
    <path d="M 216.041662 310.75246 
L 224.51227 316.44327 
L 242.4173 316.44327 
L 216.041662 296.377849 
L 211.830553 290.989599 
L 182.710037 265.535928 
L 172.976559 258.786201 
L 157.023425 240.082257 
L 129.911456 221.023448 
L 124.577378 214.628586 
L 92.384921 189.174915 
L 86.846353 185.562944 
L 68.564166 163.721244 
L 43.78125 147.238955 
L 35.616376 138.267573 
L 4.846812 112.813902 
L 0.716147 110.430432 
L -23.110867 87.360232 
L -42.348956 73.851022 
L -53.024799 61.906561 
L -85.414059 37.981673 
L -86.618693 36.45289 
L -115.924867 10.999219 
L -128.479162 10.999219 
L -146.011782 10.999219 
L -128.479162 30.684885 
L -118.181005 36.45289 
L -89.118087 61.906561 
L -85.414059 65.683338 
L -52.771843 87.360232 
L -42.348956 98.673762 
L -19.513482 112.813902 
L 0.716147 135.055099 
L 5.841166 138.267573 
L 39.545377 163.721244 
L 43.78125 168.222309 
L 74.347792 189.174915 
L 86.846353 202.887036 
L 105.584004 214.628586 
L 129.766322 240.082257 
L 129.911456 240.235486 
L 166.173139 265.535928 
L 172.976559 273.380979 
L 199.277413 290.989599 
z
M 474.432281 316.44327 
L 517.497384 316.44327 
L 533.375449 316.44327 
L 517.497384 294.197797 
L 516.642781 290.989599 
L 503.494591 265.535928 
L 478.99431 240.082257 
L 474.432281 236.181423 
L 464.37456 214.628586 
L 448.524685 189.174915 
L 431.367178 168.368928 
L 429.588377 163.721244 
L 420.909789 138.267573 
L 410.888514 112.813902 
L 399.283465 87.360232 
L 388.302075 65.950023 
L 387.310884 61.906561 
L 381.584772 36.45289 
L 375.336563 10.999219 
L 345.236971 10.999219 
L 302.171868 10.999219 
L 273.949067 10.999219 
L 288.685719 36.45289 
L 301.30667 61.906561 
L 302.171868 63.573436 
L 320.041947 87.360232 
L 335.749679 112.813902 
L 345.236971 129.652733 
L 352.707933 138.267573 
L 372.459496 163.721244 
L 388.007263 189.174915 
L 388.302075 189.625957 
L 412.004087 214.628586 
L 428.85531 240.082257 
L 431.367178 244.18931 
L 451.996461 265.535928 
L 467.093413 290.989599 
L 473.81981 316.44327 
z
" clip-path="url(#p1ec12e89ab)" style="fill: #77d153"/>
    <path d="M 216.041662 296.377849 
L 242.4173 316.44327 
L 256.853848 316.44327 
L 238.394691 290.989599 
L 216.041662 273.318167 
L 209.997653 265.535928 
L 185.632808 240.082257 
L 172.976559 228.639967 
L 162.537416 214.628586 
L 133.400859 189.174915 
L 129.911456 186.141321 
L 112.723899 163.721244 
L 86.846353 141.001693 
L 84.732249 138.267573 
L 63.480999 112.813902 
L 43.78125 94.17633 
L 38.311785 87.360232 
L 15.986247 61.906561 
L 0.716147 46.804963 
L -8.248431 36.45289 
L -30.032955 10.999219 
L -42.348956 10.999219 
L -85.414059 10.999219 
L -115.924867 10.999219 
L -86.618693 36.45289 
L -85.414059 37.981673 
L -53.024799 61.906561 
L -42.348956 73.851022 
L -23.110867 87.360232 
L 0.716147 110.430432 
L 4.846812 112.813902 
L 35.616376 138.267573 
L 43.78125 147.238955 
L 68.564166 163.721244 
L 86.846353 185.562944 
L 92.384921 189.174915 
L 124.577378 214.628586 
L 129.911456 221.023448 
L 157.023425 240.082257 
L 172.976559 258.786201 
L 182.710037 265.535928 
L 211.830553 290.989599 
z
M 431.367178 316.44327 
L 473.81981 316.44327 
L 467.093413 290.989599 
L 451.996461 265.535928 
L 431.367178 244.18931 
L 428.85531 240.082257 
L 412.004087 214.628586 
L 388.302075 189.625957 
L 388.007263 189.174915 
L 372.459496 163.721244 
L 352.707933 138.267573 
L 345.236971 129.652733 
L 335.749679 112.813902 
L 320.041947 87.360232 
L 302.171868 63.573436 
L 301.30667 61.906561 
L 288.685719 36.45289 
L 273.949067 10.999219 
L 259.106765 10.999219 
L 216.041662 10.999219 
L 185.703504 10.999219 
L 207.168617 36.45289 
L 216.041662 48.005687 
L 230.332953 61.906561 
L 251.925894 87.360232 
L 259.106765 96.343543 
L 276.27186 112.813902 
L 297.804513 138.267573 
L 302.171868 143.579142 
L 322.686095 163.721244 
L 344.279802 189.174915 
L 345.236971 190.370051 
L 368.053533 214.628586 
L 388.302075 239.633238 
L 388.787114 240.082257 
L 408.428109 265.535928 
L 422.813809 290.989599 
L 429.360747 316.44327 
z
" clip-path="url(#p1ec12e89ab)" style="fill: #9dd93b"/>
    <path d="M 259.106765 316.44327 
L 300.512119 316.44327 
L 288.543424 290.989599 
L 259.106765 267.102619 
L 258.441999 265.535928 
L 248.768528 240.082257 
L 231.045299 214.628586 
L 216.041662 202.271417 
L 212.358679 189.174915 
L 208.07652 163.721244 
L 216.041662 149.713984 
L 228.198351 163.721244 
L 259.106765 185.3505 
L 262.908008 189.174915 
L 286.879257 214.628586 
L 302.171868 227.24739 
L 313.549496 240.082257 
L 336.264757 265.535928 
L 345.236971 274.675965 
L 356.404267 290.989599 
L 367.718144 316.44327 
L 388.302075 316.44327 
L 429.360747 316.44327 
L 422.813809 290.989599 
L 408.428109 265.535928 
L 388.787114 240.082257 
L 388.302075 239.633238 
L 368.053533 214.628586 
L 345.236971 190.370051 
L 344.279802 189.174915 
L 322.686095 163.721244 
L 302.171868 143.579142 
L 297.804513 138.267573 
L 276.27186 112.813902 
L 259.106765 96.343543 
L 251.925894 87.360232 
L 230.332953 61.906561 
L 216.041662 48.005687 
L 207.168617 36.45289 
L 185.703504 10.999219 
L 172.976559 10.999219 
L 129.911456 10.999219 
L 86.846353 10.999219 
L 43.78125 10.999219 
L 0.716147 10.999219 
L -30.032955 10.999219 
L -8.248431 36.45289 
L 0.716147 46.804963 
L 15.986247 61.906561 
L 38.311785 87.360232 
L 43.78125 94.17633 
L 63.480999 112.813902 
L 84.732249 138.267573 
L 86.846353 141.001693 
L 112.723899 163.721244 
L 129.911456 186.141321 
L 133.400859 189.174915 
L 162.537416 214.628586 
L 172.976559 228.639967 
L 185.632808 240.082257 
L 209.997653 265.535928 
L 216.041662 273.318167 
L 238.394691 290.989599 
L 256.853848 316.44327 
z
" clip-path="url(#p1ec12e89ab)" style="fill: #c5e021"/>
    <path d="M 302.171868 316.44327 
L 345.236971 316.44327 
L 367.718144 316.44327 
L 356.404267 290.989599 
L 345.236971 274.675965 
L 336.264757 265.535928 
L 313.549496 240.082257 
L 302.171868 227.24739 
L 286.879257 214.628586 
L 262.908008 189.174915 
L 259.106765 185.3505 
L 228.198351 163.721244 
L 216.041662 149.713984 
L 208.07652 163.721244 
L 212.358679 189.174915 
L 216.041662 202.271417 
L 231.045299 214.628586 
L 248.768528 240.082257 
L 258.441999 265.535928 
L 259.106765 267.102619 
L 288.543424 290.989599 
L 300.512119 316.44327 
z
" clip-path="url(#p1ec12e89ab)" style="fill: #ece51b"/>
   </g>
   <g id="PathCollection_1">
    <defs>
     <path id="mdc0741d33a" d="M -3 3 
L 3 -3 
M -3 -3 
L 3 3 
" style="stroke: #ff0000; stroke-width: 1.5"/>
    </defs>
    <g clip-path="url(#p1ec12e89ab)">
     <use xlink:href="#mdc0741d33a" x="345.236971" y="316.44327" style="fill: #ff0000; stroke: #ff0000; stroke-width: 1.5"/>
     <use xlink:href="#mdc0741d33a" x="302.171868" y="290.989599" style="fill: #ff0000; stroke: #ff0000; stroke-width: 1.5"/>
     <use xlink:href="#mdc0741d33a" x="302.171868" y="265.535928" style="fill: #ff0000; stroke: #ff0000; stroke-width: 1.5"/>
     <use xlink:href="#mdc0741d33a" x="259.106765" y="240.082257" style="fill: #ff0000; stroke: #ff0000; stroke-width: 1.5"/>
     <use xlink:href="#mdc0741d33a" x="259.106765" y="214.628586" style="fill: #ff0000; stroke: #ff0000; stroke-width: 1.5"/>
     <use xlink:href="#mdc0741d33a" x="216.041662" y="189.174915" style="fill: #ff0000; stroke: #ff0000; stroke-width: 1.5"/>
     <use xlink:href="#mdc0741d33a" x="216.041662" y="163.721244" style="fill: #ff0000; stroke: #ff0000; stroke-width: 1.5"/>
     <use xlink:href="#mdc0741d33a" x="216.041662" y="138.267573" style="fill: #ff0000; stroke: #ff0000; stroke-width: 1.5"/>
     <use xlink:href="#mdc0741d33a" x="172.976559" y="112.813902" style="fill: #ff0000; stroke: #ff0000; stroke-width: 1.5"/>
     <use xlink:href="#mdc0741d33a" x="129.911456" y="87.360232" style="fill: #ff0000; stroke: #ff0000; stroke-width: 1.5"/>
     <use xlink:href="#mdc0741d33a" x="129.911456" y="61.906561" style="fill: #ff0000; stroke: #ff0000; stroke-width: 1.5"/>
     <use xlink:href="#mdc0741d33a" x="86.846353" y="36.45289" style="fill: #ff0000; stroke: #ff0000; stroke-width: 1.5"/>
     <use xlink:href="#mdc0741d33a" x="86.846353" y="10.999219" style="fill: #ff0000; stroke: #ff0000; stroke-width: 1.5"/>
    </g>
   </g>
   <g id="matplotlib.axis_1">
    <g id="xtick_1">
     <g id="line2d_1">
      <defs>
       <path id="m38f3b05bbe" d="M 0 0 
L 0 3.5 
" style="stroke: #000000; stroke-width: 0.8"/>
      </defs>
      <g>
       <use xlink:href="#m38f3b05bbe" x="129.911456" y="316.44327" style="stroke: #000000; stroke-width: 0.8"/>
      </g>
     </g>
     <g id="text_1">
      <!-- $\mathdefault{10^{-2}}$ -->
      <g transform="translate(118.161456 331.041707) scale(0.1 -0.1)">
       <defs>
        <path id="DejaVuSans-31" d="M 794 531 
L 1825 531 
L 1825 4091 
L 703 3866 
L 703 4441 
L 1819 4666 
L 2450 4666 
L 2450 531 
L 3481 531 
L 3481 0 
L 794 0 
L 794 531 
z
" transform="scale(0.015625)"/>
        <path id="DejaVuSans-30" d="M 2034 4250 
Q 1547 4250 1301 3770 
Q 1056 3291 1056 2328 
Q 1056 1369 1301 889 
Q 1547 409 2034 409 
Q 2525 409 2770 889 
Q 3016 1369 3016 2328 
Q 3016 3291 2770 3770 
Q 2525 4250 2034 4250 
z
M 2034 4750 
Q 2819 4750 3233 4129 
Q 3647 3509 3647 2328 
Q 3647 1150 3233 529 
Q 2819 -91 2034 -91 
Q 1250 -91 836 529 
Q 422 1150 422 2328 
Q 422 3509 836 4129 
Q 1250 4750 2034 4750 
z
" transform="scale(0.015625)"/>
        <path id="DejaVuSans-2212" d="M 678 2272 
L 4684 2272 
L 4684 1741 
L 678 1741 
L 678 2272 
z
" transform="scale(0.015625)"/>
        <path id="DejaVuSans-32" d="M 1228 531 
L 3431 531 
L 3431 0 
L 469 0 
L 469 531 
Q 828 903 1448 1529 
Q 2069 2156 2228 2338 
Q 2531 2678 2651 2914 
Q 2772 3150 2772 3378 
Q 2772 3750 2511 3984 
Q 2250 4219 1831 4219 
Q 1534 4219 1204 4116 
Q 875 4013 500 3803 
L 500 4441 
Q 881 4594 1212 4672 
Q 1544 4750 1819 4750 
Q 2544 4750 2975 4387 
Q 3406 4025 3406 3419 
Q 3406 3131 3298 2873 
Q 3191 2616 2906 2266 
Q 2828 2175 2409 1742 
Q 1991 1309 1228 531 
z
" transform="scale(0.015625)"/>
       </defs>
       <use xlink:href="#DejaVuSans-31" transform="translate(0 0.765625)"/>
       <use xlink:href="#DejaVuSans-30" transform="translate(63.623047 0.765625)"/>
       <use xlink:href="#DejaVuSans-2212" transform="translate(128.203125 39.046875) scale(0.7)"/>
       <use xlink:href="#DejaVuSans-32" transform="translate(186.855469 39.046875) scale(0.7)"/>
      </g>
     </g>
    </g>
    <g id="xtick_2">
     <g id="line2d_2">
      <g>
       <use xlink:href="#m38f3b05bbe" x="302.171868" y="316.44327" style="stroke: #000000; stroke-width: 0.8"/>
      </g>
     </g>
     <g id="text_2">
      <!-- $\mathdefault{10^{-1}}$ -->
      <g transform="translate(290.421868 331.041707) scale(0.1 -0.1)">
       <use xlink:href="#DejaVuSans-31" transform="translate(0 0.684375)"/>
       <use xlink:href="#DejaVuSans-30" transform="translate(63.623047 0.684375)"/>
       <use xlink:href="#DejaVuSans-2212" transform="translate(128.203125 38.965625) scale(0.7)"/>
       <use xlink:href="#DejaVuSans-31" transform="translate(186.855469 38.965625) scale(0.7)"/>
      </g>
     </g>
    </g>
    <g id="xtick_3">
     <g id="line2d_3">
      <defs>
       <path id="m360e1f0208" d="M 0 0 
L 0 2 
" style="stroke: #000000; stroke-width: 0.6"/>
      </defs>
      <g>
       <use xlink:href="#m360e1f0208" x="61.362146" y="316.44327" style="stroke: #000000; stroke-width: 0.6"/>
      </g>
     </g>
    </g>
    <g id="xtick_4">
     <g id="line2d_4">
      <g>
       <use xlink:href="#m360e1f0208" x="78.055905" y="316.44327" style="stroke: #000000; stroke-width: 0.6"/>
      </g>
     </g>
    </g>
    <g id="xtick_5">
     <g id="line2d_5">
      <g>
       <use xlink:href="#m360e1f0208" x="91.695699" y="316.44327" style="stroke: #000000; stroke-width: 0.6"/>
      </g>
     </g>
    </g>
    <g id="xtick_6">
     <g id="line2d_6">
      <g>
       <use xlink:href="#m360e1f0208" x="103.227981" y="316.44327" style="stroke: #000000; stroke-width: 0.6"/>
      </g>
     </g>
    </g>
    <g id="xtick_7">
     <g id="line2d_7">
      <g>
       <use xlink:href="#m360e1f0208" x="113.217697" y="316.44327" style="stroke: #000000; stroke-width: 0.6"/>
      </g>
     </g>
    </g>
    <g id="xtick_8">
     <g id="line2d_8">
      <g>
       <use xlink:href="#m360e1f0208" x="122.029252" y="316.44327" style="stroke: #000000; stroke-width: 0.6"/>
      </g>
     </g>
    </g>
    <g id="xtick_9">
     <g id="line2d_9">
      <g>
       <use xlink:href="#m360e1f0208" x="181.767007" y="316.44327" style="stroke: #000000; stroke-width: 0.6"/>
      </g>
     </g>
    </g>
    <g id="xtick_10">
     <g id="line2d_10">
      <g>
       <use xlink:href="#m360e1f0208" x="212.10056" y="316.44327" style="stroke: #000000; stroke-width: 0.6"/>
      </g>
     </g>
    </g>
    <g id="xtick_11">
     <g id="line2d_11">
      <g>
       <use xlink:href="#m360e1f0208" x="233.622558" y="316.44327" style="stroke: #000000; stroke-width: 0.6"/>
      </g>
     </g>
    </g>
    <g id="xtick_12">
     <g id="line2d_12">
      <g>
       <use xlink:href="#m360e1f0208" x="250.316317" y="316.44327" style="stroke: #000000; stroke-width: 0.6"/>
      </g>
     </g>
    </g>
    <g id="xtick_13">
     <g id="line2d_13">
      <g>
       <use xlink:href="#m360e1f0208" x="263.956111" y="316.44327" style="stroke: #000000; stroke-width: 0.6"/>
      </g>
     </g>
    </g>
    <g id="xtick_14">
     <g id="line2d_14">
      <g>
       <use xlink:href="#m360e1f0208" x="275.488393" y="316.44327" style="stroke: #000000; stroke-width: 0.6"/>
      </g>
     </g>
    </g>
    <g id="xtick_15">
     <g id="line2d_15">
      <g>
       <use xlink:href="#m360e1f0208" x="285.47811" y="316.44327" style="stroke: #000000; stroke-width: 0.6"/>
      </g>
     </g>
    </g>
    <g id="xtick_16">
     <g id="line2d_16">
      <g>
       <use xlink:href="#m360e1f0208" x="294.289664" y="316.44327" style="stroke: #000000; stroke-width: 0.6"/>
      </g>
     </g>
    </g>
    <g id="xtick_17">
     <g id="line2d_17">
      <g>
       <use xlink:href="#m360e1f0208" x="354.02742" y="316.44327" style="stroke: #000000; stroke-width: 0.6"/>
      </g>
     </g>
    </g>
    <g id="xtick_18">
     <g id="line2d_18">
      <g>
       <use xlink:href="#m360e1f0208" x="384.360972" y="316.44327" style="stroke: #000000; stroke-width: 0.6"/>
      </g>
     </g>
    </g>
    <g id="text_3">
     <!-- bandwidth -->
     <g transform="translate(189.679162 344.719832) scale(0.1 -0.1)">
      <defs>
       <path id="DejaVuSans-62" d="M 3116 1747 
Q 3116 2381 2855 2742 
Q 2594 3103 2138 3103 
Q 1681 3103 1420 2742 
Q 1159 2381 1159 1747 
Q 1159 1113 1420 752 
Q 1681 391 2138 391 
Q 2594 391 2855 752 
Q 3116 1113 3116 1747 
z
M 1159 2969 
Q 1341 3281 1617 3432 
Q 1894 3584 2278 3584 
Q 2916 3584 3314 3078 
Q 3713 2572 3713 1747 
Q 3713 922 3314 415 
Q 2916 -91 2278 -91 
Q 1894 -91 1617 61 
Q 1341 213 1159 525 
L 1159 0 
L 581 0 
L 581 4863 
L 1159 4863 
L 1159 2969 
z
" transform="scale(0.015625)"/>
       <path id="DejaVuSans-61" d="M 2194 1759 
Q 1497 1759 1228 1600 
Q 959 1441 959 1056 
Q 959 750 1161 570 
Q 1363 391 1709 391 
Q 2188 391 2477 730 
Q 2766 1069 2766 1631 
L 2766 1759 
L 2194 1759 
z
M 3341 1997 
L 3341 0 
L 2766 0 
L 2766 531 
Q 2569 213 2275 61 
Q 1981 -91 1556 -91 
Q 1019 -91 701 211 
Q 384 513 384 1019 
Q 384 1609 779 1909 
Q 1175 2209 1959 2209 
L 2766 2209 
L 2766 2266 
Q 2766 2663 2505 2880 
Q 2244 3097 1772 3097 
Q 1472 3097 1187 3025 
Q 903 2953 641 2809 
L 641 3341 
Q 956 3463 1253 3523 
Q 1550 3584 1831 3584 
Q 2591 3584 2966 3190 
Q 3341 2797 3341 1997 
z
" transform="scale(0.015625)"/>
       <path id="DejaVuSans-6e" d="M 3513 2113 
L 3513 0 
L 2938 0 
L 2938 2094 
Q 2938 2591 2744 2837 
Q 2550 3084 2163 3084 
Q 1697 3084 1428 2787 
Q 1159 2491 1159 1978 
L 1159 0 
L 581 0 
L 581 3500 
L 1159 3500 
L 1159 2956 
Q 1366 3272 1645 3428 
Q 1925 3584 2291 3584 
Q 2894 3584 3203 3211 
Q 3513 2838 3513 2113 
z
" transform="scale(0.015625)"/>
       <path id="DejaVuSans-64" d="M 2906 2969 
L 2906 4863 
L 3481 4863 
L 3481 0 
L 2906 0 
L 2906 525 
Q 2725 213 2448 61 
Q 2172 -91 1784 -91 
Q 1150 -91 751 415 
Q 353 922 353 1747 
Q 353 2572 751 3078 
Q 1150 3584 1784 3584 
Q 2172 3584 2448 3432 
Q 2725 3281 2906 2969 
z
M 947 1747 
Q 947 1113 1208 752 
Q 1469 391 1925 391 
Q 2381 391 2643 752 
Q 2906 1113 2906 1747 
Q 2906 2381 2643 2742 
Q 2381 3103 1925 3103 
Q 1469 3103 1208 2742 
Q 947 2381 947 1747 
z
" transform="scale(0.015625)"/>
       <path id="DejaVuSans-77" d="M 269 3500 
L 844 3500 
L 1563 769 
L 2278 3500 
L 2956 3500 
L 3675 769 
L 4391 3500 
L 4966 3500 
L 4050 0 
L 3372 0 
L 2619 2869 
L 1863 0 
L 1184 0 
L 269 3500 
z
" transform="scale(0.015625)"/>
       <path id="DejaVuSans-69" d="M 603 3500 
L 1178 3500 
L 1178 0 
L 603 0 
L 603 3500 
z
M 603 4863 
L 1178 4863 
L 1178 4134 
L 603 4134 
L 603 4863 
z
" transform="scale(0.015625)"/>
       <path id="DejaVuSans-74" d="M 1172 4494 
L 1172 3500 
L 2356 3500 
L 2356 3053 
L 1172 3053 
L 1172 1153 
Q 1172 725 1289 603 
Q 1406 481 1766 481 
L 2356 481 
L 2356 0 
L 1766 0 
Q 1100 0 847 248 
Q 594 497 594 1153 
L 594 3053 
L 172 3053 
L 172 3500 
L 594 3500 
L 594 4494 
L 1172 4494 
z
" transform="scale(0.015625)"/>
       <path id="DejaVuSans-68" d="M 3513 2113 
L 3513 0 
L 2938 0 
L 2938 2094 
Q 2938 2591 2744 2837 
Q 2550 3084 2163 3084 
Q 1697 3084 1428 2787 
Q 1159 2491 1159 1978 
L 1159 0 
L 581 0 
L 581 4863 
L 1159 4863 
L 1159 2956 
Q 1366 3272 1645 3428 
Q 1925 3584 2291 3584 
Q 2894 3584 3203 3211 
Q 3513 2838 3513 2113 
z
" transform="scale(0.015625)"/>
      </defs>
      <use xlink:href="#DejaVuSans-62"/>
      <use xlink:href="#DejaVuSans-61" transform="translate(63.476562 0)"/>
      <use xlink:href="#DejaVuSans-6e" transform="translate(124.755859 0)"/>
      <use xlink:href="#DejaVuSans-64" transform="translate(188.134766 0)"/>
      <use xlink:href="#DejaVuSans-77" transform="translate(251.611328 0)"/>
      <use xlink:href="#DejaVuSans-69" transform="translate(333.398438 0)"/>
      <use xlink:href="#DejaVuSans-64" transform="translate(361.181641 0)"/>
      <use xlink:href="#DejaVuSans-74" transform="translate(424.658203 0)"/>
      <use xlink:href="#DejaVuSans-68" transform="translate(463.867188 0)"/>
     </g>
    </g>
   </g>
   <g id="matplotlib.axis_2">
    <g id="ytick_1">
     <g id="line2d_19">
      <defs>
       <path id="mbd2f377c6c" d="M 0 0 
L -3.5 0 
" style="stroke: #000000; stroke-width: 0.8"/>
      </defs>
      <g>
       <use xlink:href="#mbd2f377c6c" x="43.78125" y="316.44327" style="stroke: #000000; stroke-width: 0.8"/>
      </g>
     </g>
     <g id="text_4">
      <!-- 1.0 -->
      <g transform="translate(20.878125 320.242489) scale(0.1 -0.1)">
       <defs>
        <path id="DejaVuSans-2e" d="M 684 794 
L 1344 794 
L 1344 0 
L 684 0 
L 684 794 
z
" transform="scale(0.015625)"/>
       </defs>
       <use xlink:href="#DejaVuSans-31"/>
       <use xlink:href="#DejaVuSans-2e" transform="translate(63.623047 0)"/>
       <use xlink:href="#DejaVuSans-30" transform="translate(95.410156 0)"/>
      </g>
     </g>
    </g>
    <g id="ytick_2">
     <g id="line2d_20">
      <g>
       <use xlink:href="#mbd2f377c6c" x="43.78125" y="265.535928" style="stroke: #000000; stroke-width: 0.8"/>
      </g>
     </g>
     <g id="text_5">
      <!-- 1.5 -->
      <g transform="translate(20.878125 269.335147) scale(0.1 -0.1)">
       <defs>
        <path id="DejaVuSans-35" d="M 691 4666 
L 3169 4666 
L 3169 4134 
L 1269 4134 
L 1269 2991 
Q 1406 3038 1543 3061 
Q 1681 3084 1819 3084 
Q 2600 3084 3056 2656 
Q 3513 2228 3513 1497 
Q 3513 744 3044 326 
Q 2575 -91 1722 -91 
Q 1428 -91 1123 -41 
Q 819 9 494 109 
L 494 744 
Q 775 591 1075 516 
Q 1375 441 1709 441 
Q 2250 441 2565 725 
Q 2881 1009 2881 1497 
Q 2881 1984 2565 2268 
Q 2250 2553 1709 2553 
Q 1456 2553 1204 2497 
Q 953 2441 691 2322 
L 691 4666 
z
" transform="scale(0.015625)"/>
       </defs>
       <use xlink:href="#DejaVuSans-31"/>
       <use xlink:href="#DejaVuSans-2e" transform="translate(63.623047 0)"/>
       <use xlink:href="#DejaVuSans-35" transform="translate(95.410156 0)"/>
      </g>
     </g>
    </g>
    <g id="ytick_3">
     <g id="line2d_21">
      <g>
       <use xlink:href="#mbd2f377c6c" x="43.78125" y="214.628586" style="stroke: #000000; stroke-width: 0.8"/>
      </g>
     </g>
     <g id="text_6">
      <!-- 2.0 -->
      <g transform="translate(20.878125 218.427805) scale(0.1 -0.1)">
       <use xlink:href="#DejaVuSans-32"/>
       <use xlink:href="#DejaVuSans-2e" transform="translate(63.623047 0)"/>
       <use xlink:href="#DejaVuSans-30" transform="translate(95.410156 0)"/>
      </g>
     </g>
    </g>
    <g id="ytick_4">
     <g id="line2d_22">
      <g>
       <use xlink:href="#mbd2f377c6c" x="43.78125" y="163.721244" style="stroke: #000000; stroke-width: 0.8"/>
      </g>
     </g>
     <g id="text_7">
      <!-- 2.5 -->
      <g transform="translate(20.878125 167.520463) scale(0.1 -0.1)">
       <use xlink:href="#DejaVuSans-32"/>
       <use xlink:href="#DejaVuSans-2e" transform="translate(63.623047 0)"/>
       <use xlink:href="#DejaVuSans-35" transform="translate(95.410156 0)"/>
      </g>
     </g>
    </g>
    <g id="ytick_5">
     <g id="line2d_23">
      <g>
       <use xlink:href="#mbd2f377c6c" x="43.78125" y="112.813902" style="stroke: #000000; stroke-width: 0.8"/>
      </g>
     </g>
     <g id="text_8">
      <!-- 3.0 -->
      <g transform="translate(20.878125 116.613121) scale(0.1 -0.1)">
       <defs>
        <path id="DejaVuSans-33" d="M 2597 2516 
Q 3050 2419 3304 2112 
Q 3559 1806 3559 1356 
Q 3559 666 3084 287 
Q 2609 -91 1734 -91 
Q 1441 -91 1130 -33 
Q 819 25 488 141 
L 488 750 
Q 750 597 1062 519 
Q 1375 441 1716 441 
Q 2309 441 2620 675 
Q 2931 909 2931 1356 
Q 2931 1769 2642 2001 
Q 2353 2234 1838 2234 
L 1294 2234 
L 1294 2753 
L 1863 2753 
Q 2328 2753 2575 2939 
Q 2822 3125 2822 3475 
Q 2822 3834 2567 4026 
Q 2313 4219 1838 4219 
Q 1578 4219 1281 4162 
Q 984 4106 628 3988 
L 628 4550 
Q 988 4650 1302 4700 
Q 1616 4750 1894 4750 
Q 2613 4750 3031 4423 
Q 3450 4097 3450 3541 
Q 3450 3153 3228 2886 
Q 3006 2619 2597 2516 
z
" transform="scale(0.015625)"/>
       </defs>
       <use xlink:href="#DejaVuSans-33"/>
       <use xlink:href="#DejaVuSans-2e" transform="translate(63.623047 0)"/>
       <use xlink:href="#DejaVuSans-30" transform="translate(95.410156 0)"/>
      </g>
     </g>
    </g>
    <g id="ytick_6">
     <g id="line2d_24">
      <g>
       <use xlink:href="#mbd2f377c6c" x="43.78125" y="61.906561" style="stroke: #000000; stroke-width: 0.8"/>
      </g>
     </g>
     <g id="text_9">
      <!-- 3.5 -->
      <g transform="translate(20.878125 65.705779) scale(0.1 -0.1)">
       <use xlink:href="#DejaVuSans-33"/>
       <use xlink:href="#DejaVuSans-2e" transform="translate(63.623047 0)"/>
       <use xlink:href="#DejaVuSans-35" transform="translate(95.410156 0)"/>
      </g>
     </g>
    </g>
    <g id="ytick_7">
     <g id="line2d_25">
      <g>
       <use xlink:href="#mbd2f377c6c" x="43.78125" y="10.999219" style="stroke: #000000; stroke-width: 0.8"/>
      </g>
     </g>
     <g id="text_10">
      <!-- 4.0 -->
      <g transform="translate(20.878125 14.798438) scale(0.1 -0.1)">
       <defs>
        <path id="DejaVuSans-34" d="M 2419 4116 
L 825 1625 
L 2419 1625 
L 2419 4116 
z
M 2253 4666 
L 3047 4666 
L 3047 1625 
L 3713 1625 
L 3713 1100 
L 3047 1100 
L 3047 0 
L 2419 0 
L 2419 1100 
L 313 1100 
L 313 1709 
L 2253 4666 
z
" transform="scale(0.015625)"/>
       </defs>
       <use xlink:href="#DejaVuSans-34"/>
       <use xlink:href="#DejaVuSans-2e" transform="translate(63.623047 0)"/>
       <use xlink:href="#DejaVuSans-30" transform="translate(95.410156 0)"/>
      </g>
     </g>
    </g>
    <g id="text_11">
     <!-- alpha -->
     <g transform="translate(14.798438 177.581401) rotate(-90) scale(0.1 -0.1)">
      <defs>
       <path id="DejaVuSans-6c" d="M 603 4863 
L 1178 4863 
L 1178 0 
L 603 0 
L 603 4863 
z
" transform="scale(0.015625)"/>
       <path id="DejaVuSans-70" d="M 1159 525 
L 1159 -1331 
L 581 -1331 
L 581 3500 
L 1159 3500 
L 1159 2969 
Q 1341 3281 1617 3432 
Q 1894 3584 2278 3584 
Q 2916 3584 3314 3078 
Q 3713 2572 3713 1747 
Q 3713 922 3314 415 
Q 2916 -91 2278 -91 
Q 1894 -91 1617 61 
Q 1341 213 1159 525 
z
M 3116 1747 
Q 3116 2381 2855 2742 
Q 2594 3103 2138 3103 
Q 1681 3103 1420 2742 
Q 1159 2381 1159 1747 
Q 1159 1113 1420 752 
Q 1681 391 2138 391 
Q 2594 391 2855 752 
Q 3116 1113 3116 1747 
z
" transform="scale(0.015625)"/>
      </defs>
      <use xlink:href="#DejaVuSans-61"/>
      <use xlink:href="#DejaVuSans-6c" transform="translate(61.279297 0)"/>
      <use xlink:href="#DejaVuSans-70" transform="translate(89.0625 0)"/>
      <use xlink:href="#DejaVuSans-68" transform="translate(152.539062 0)"/>
      <use xlink:href="#DejaVuSans-61" transform="translate(215.917969 0)"/>
     </g>
    </g>
   </g>
   <g id="patch_3">
    <path d="M 43.78125 316.44327 
L 43.78125 10.999219 
" style="fill: none; stroke: #000000; stroke-width: 0.8; stroke-linejoin: miter; stroke-linecap: square"/>
   </g>
   <g id="patch_4">
    <path d="M 388.302075 316.44327 
L 388.302075 10.999219 
" style="fill: none; stroke: #000000; stroke-width: 0.8; stroke-linejoin: miter; stroke-linecap: square"/>
   </g>
   <g id="patch_5">
    <path d="M 43.78125 316.44327 
L 388.302075 316.44327 
" style="fill: none; stroke: #000000; stroke-width: 0.8; stroke-linejoin: miter; stroke-linecap: square"/>
   </g>
   <g id="patch_6">
    <path d="M 43.78125 10.999219 
L 388.302075 10.999219 
" style="fill: none; stroke: #000000; stroke-width: 0.8; stroke-linejoin: miter; stroke-linecap: square"/>
   </g>
  </g>
  <g id="axes_2">
   <g id="patch_7">
    <path d="M 405.528116 316.44327 
L 420.800318 316.44327 
L 420.800318 10.999219 
L 405.528116 10.999219 
z
" style="fill: #ffffff"/>
   </g>
   <g id="QuadMesh_1">
    <path d="M 405.528116 316.44327 
L 420.800318 316.44327 
L 420.800318 298.475973 
L 405.528116 298.475973 
L 405.528116 316.44327 
" clip-path="url(#pe6d9492728)" style="fill: #460b5e"/>
    <path d="M 405.528116 298.475973 
L 420.800318 298.475973 
L 420.800318 280.508676 
L 405.528116 280.508676 
L 405.528116 298.475973 
" clip-path="url(#pe6d9492728)" style="fill: #482071"/>
    <path d="M 405.528116 280.508676 
L 420.800318 280.508676 
L 420.800318 262.541379 
L 405.528116 262.541379 
L 405.528116 280.508676 
" clip-path="url(#pe6d9492728)" style="fill: #46337f"/>
    <path d="M 405.528116 262.541379 
L 420.800318 262.541379 
L 420.800318 244.574081 
L 405.528116 244.574081 
L 405.528116 262.541379 
" clip-path="url(#pe6d9492728)" style="fill: #404588"/>
    <path d="M 405.528116 244.574081 
L 420.800318 244.574081 
L 420.800318 226.606784 
L 405.528116 226.606784 
L 405.528116 244.574081 
" clip-path="url(#pe6d9492728)" style="fill: #39558c"/>
    <path d="M 405.528116 226.606784 
L 420.800318 226.606784 
L 420.800318 208.639487 
L 405.528116 208.639487 
L 405.528116 226.606784 
" clip-path="url(#pe6d9492728)" style="fill: #32658e"/>
    <path d="M 405.528116 208.639487 
L 420.800318 208.639487 
L 420.800318 190.67219 
L 405.528116 190.67219 
L 405.528116 208.639487 
" clip-path="url(#pe6d9492728)" style="fill: #2c738e"/>
    <path d="M 405.528116 190.67219 
L 420.800318 190.67219 
L 420.800318 172.704893 
L 405.528116 172.704893 
L 405.528116 190.67219 
" clip-path="url(#pe6d9492728)" style="fill: #26828e"/>
    <path d="M 405.528116 172.704893 
L 420.800318 172.704893 
L 420.800318 154.737596 
L 405.528116 154.737596 
L 405.528116 172.704893 
" clip-path="url(#pe6d9492728)" style="fill: #21918c"/>
    <path d="M 405.528116 154.737596 
L 420.800318 154.737596 
L 420.800318 136.770299 
L 405.528116 136.770299 
L 405.528116 154.737596 
" clip-path="url(#pe6d9492728)" style="fill: #1f9f88"/>
    <path d="M 405.528116 136.770299 
L 420.800318 136.770299 
L 420.800318 118.803002 
L 405.528116 118.803002 
L 405.528116 136.770299 
" clip-path="url(#pe6d9492728)" style="fill: #26ad81"/>
    <path d="M 405.528116 118.803002 
L 420.800318 118.803002 
L 420.800318 100.835704 
L 405.528116 100.835704 
L 405.528116 118.803002 
" clip-path="url(#pe6d9492728)" style="fill: #3aba76"/>
    <path d="M 405.528116 100.835704 
L 420.800318 100.835704 
L 420.800318 82.868407 
L 405.528116 82.868407 
L 405.528116 100.835704 
" clip-path="url(#pe6d9492728)" style="fill: #56c667"/>
    <path d="M 405.528116 82.868407 
L 420.800318 82.868407 
L 420.800318 64.90111 
L 405.528116 64.90111 
L 405.528116 82.868407 
" clip-path="url(#pe6d9492728)" style="fill: #77d153"/>
    <path d="M 405.528116 64.90111 
L 420.800318 64.90111 
L 420.800318 46.933813 
L 405.528116 46.933813 
L 405.528116 64.90111 
" clip-path="url(#pe6d9492728)" style="fill: #9dd93b"/>
    <path d="M 405.528116 46.933813 
L 420.800318 46.933813 
L 420.800318 28.966516 
L 405.528116 28.966516 
L 405.528116 46.933813 
" clip-path="url(#pe6d9492728)" style="fill: #c5e021"/>
    <path d="M 405.528116 28.966516 
L 420.800318 28.966516 
L 420.800318 10.999219 
L 405.528116 10.999219 
L 405.528116 28.966516 
" clip-path="url(#pe6d9492728)" style="fill: #ece51b"/>
   </g>
   <g id="matplotlib.axis_3"/>
   <g id="matplotlib.axis_4">
    <g id="ytick_8">
     <g id="line2d_26">
      <defs>
       <path id="m0a27ea52cb" d="M 0 0 
L 3.5 0 
" style="stroke: #000000; stroke-width: 0.8"/>
      </defs>
      <g>
       <use xlink:href="#m0a27ea52cb" x="420.800318" y="298.475973" style="stroke: #000000; stroke-width: 0.8"/>
      </g>
     </g>
     <g id="text_12">
      <!-- -2.4 -->
      <g transform="translate(427.800318 302.275192) scale(0.1 -0.1)">
       <defs>
        <path id="DejaVuSans-2d" d="M 313 2009 
L 1997 2009 
L 1997 1497 
L 313 1497 
L 313 2009 
z
" transform="scale(0.015625)"/>
       </defs>
       <use xlink:href="#DejaVuSans-2d"/>
       <use xlink:href="#DejaVuSans-32" transform="translate(36.083984 0)"/>
       <use xlink:href="#DejaVuSans-2e" transform="translate(99.707031 0)"/>
       <use xlink:href="#DejaVuSans-34" transform="translate(131.494141 0)"/>
      </g>
     </g>
    </g>
    <g id="ytick_9">
     <g id="line2d_27">
      <g>
       <use xlink:href="#m0a27ea52cb" x="420.800318" y="262.541379" style="stroke: #000000; stroke-width: 0.8"/>
      </g>
     </g>
     <g id="text_13">
      <!-- -2.1 -->
      <g transform="translate(427.800318 266.340597) scale(0.1 -0.1)">
       <use xlink:href="#DejaVuSans-2d"/>
       <use xlink:href="#DejaVuSans-32" transform="translate(36.083984 0)"/>
       <use xlink:href="#DejaVuSans-2e" transform="translate(99.707031 0)"/>
       <use xlink:href="#DejaVuSans-31" transform="translate(131.494141 0)"/>
      </g>
     </g>
    </g>
    <g id="ytick_10">
     <g id="line2d_28">
      <g>
       <use xlink:href="#m0a27ea52cb" x="420.800318" y="226.606784" style="stroke: #000000; stroke-width: 0.8"/>
      </g>
     </g>
     <g id="text_14">
      <!-- -1.8 -->
      <g transform="translate(427.800318 230.406003) scale(0.1 -0.1)">
       <defs>
        <path id="DejaVuSans-38" d="M 2034 2216 
Q 1584 2216 1326 1975 
Q 1069 1734 1069 1313 
Q 1069 891 1326 650 
Q 1584 409 2034 409 
Q 2484 409 2743 651 
Q 3003 894 3003 1313 
Q 3003 1734 2745 1975 
Q 2488 2216 2034 2216 
z
M 1403 2484 
Q 997 2584 770 2862 
Q 544 3141 544 3541 
Q 544 4100 942 4425 
Q 1341 4750 2034 4750 
Q 2731 4750 3128 4425 
Q 3525 4100 3525 3541 
Q 3525 3141 3298 2862 
Q 3072 2584 2669 2484 
Q 3125 2378 3379 2068 
Q 3634 1759 3634 1313 
Q 3634 634 3220 271 
Q 2806 -91 2034 -91 
Q 1263 -91 848 271 
Q 434 634 434 1313 
Q 434 1759 690 2068 
Q 947 2378 1403 2484 
z
M 1172 3481 
Q 1172 3119 1398 2916 
Q 1625 2713 2034 2713 
Q 2441 2713 2670 2916 
Q 2900 3119 2900 3481 
Q 2900 3844 2670 4047 
Q 2441 4250 2034 4250 
Q 1625 4250 1398 4047 
Q 1172 3844 1172 3481 
z
" transform="scale(0.015625)"/>
       </defs>
       <use xlink:href="#DejaVuSans-2d"/>
       <use xlink:href="#DejaVuSans-31" transform="translate(36.083984 0)"/>
       <use xlink:href="#DejaVuSans-2e" transform="translate(99.707031 0)"/>
       <use xlink:href="#DejaVuSans-38" transform="translate(131.494141 0)"/>
      </g>
     </g>
    </g>
    <g id="ytick_11">
     <g id="line2d_29">
      <g>
       <use xlink:href="#m0a27ea52cb" x="420.800318" y="190.67219" style="stroke: #000000; stroke-width: 0.8"/>
      </g>
     </g>
     <g id="text_15">
      <!-- -1.5 -->
      <g transform="translate(427.800318 194.471409) scale(0.1 -0.1)">
       <use xlink:href="#DejaVuSans-2d"/>
       <use xlink:href="#DejaVuSans-31" transform="translate(36.083984 0)"/>
       <use xlink:href="#DejaVuSans-2e" transform="translate(99.707031 0)"/>
       <use xlink:href="#DejaVuSans-35" transform="translate(131.494141 0)"/>
      </g>
     </g>
    </g>
    <g id="ytick_12">
     <g id="line2d_30">
      <g>
       <use xlink:href="#m0a27ea52cb" x="420.800318" y="154.737596" style="stroke: #000000; stroke-width: 0.8"/>
      </g>
     </g>
     <g id="text_16">
      <!-- -1.2 -->
      <g transform="translate(427.800318 158.536815) scale(0.1 -0.1)">
       <use xlink:href="#DejaVuSans-2d"/>
       <use xlink:href="#DejaVuSans-31" transform="translate(36.083984 0)"/>
       <use xlink:href="#DejaVuSans-2e" transform="translate(99.707031 0)"/>
       <use xlink:href="#DejaVuSans-32" transform="translate(131.494141 0)"/>
      </g>
     </g>
    </g>
    <g id="ytick_13">
     <g id="line2d_31">
      <g>
       <use xlink:href="#m0a27ea52cb" x="420.800318" y="118.803002" style="stroke: #000000; stroke-width: 0.8"/>
      </g>
     </g>
     <g id="text_17">
      <!-- -0.9 -->
      <g transform="translate(427.800318 122.60222) scale(0.1 -0.1)">
       <defs>
        <path id="DejaVuSans-39" d="M 703 97 
L 703 672 
Q 941 559 1184 500 
Q 1428 441 1663 441 
Q 2288 441 2617 861 
Q 2947 1281 2994 2138 
Q 2813 1869 2534 1725 
Q 2256 1581 1919 1581 
Q 1219 1581 811 2004 
Q 403 2428 403 3163 
Q 403 3881 828 4315 
Q 1253 4750 1959 4750 
Q 2769 4750 3195 4129 
Q 3622 3509 3622 2328 
Q 3622 1225 3098 567 
Q 2575 -91 1691 -91 
Q 1453 -91 1209 -44 
Q 966 3 703 97 
z
M 1959 2075 
Q 2384 2075 2632 2365 
Q 2881 2656 2881 3163 
Q 2881 3666 2632 3958 
Q 2384 4250 1959 4250 
Q 1534 4250 1286 3958 
Q 1038 3666 1038 3163 
Q 1038 2656 1286 2365 
Q 1534 2075 1959 2075 
z
" transform="scale(0.015625)"/>
       </defs>
       <use xlink:href="#DejaVuSans-2d"/>
       <use xlink:href="#DejaVuSans-30" transform="translate(36.083984 0)"/>
       <use xlink:href="#DejaVuSans-2e" transform="translate(99.707031 0)"/>
       <use xlink:href="#DejaVuSans-39" transform="translate(131.494141 0)"/>
      </g>
     </g>
    </g>
    <g id="ytick_14">
     <g id="line2d_32">
      <g>
       <use xlink:href="#m0a27ea52cb" x="420.800318" y="82.868407" style="stroke: #000000; stroke-width: 0.8"/>
      </g>
     </g>
     <g id="text_18">
      <!-- -0.6 -->
      <g transform="translate(427.800318 86.667626) scale(0.1 -0.1)">
       <defs>
        <path id="DejaVuSans-36" d="M 2113 2584 
Q 1688 2584 1439 2293 
Q 1191 2003 1191 1497 
Q 1191 994 1439 701 
Q 1688 409 2113 409 
Q 2538 409 2786 701 
Q 3034 994 3034 1497 
Q 3034 2003 2786 2293 
Q 2538 2584 2113 2584 
z
M 3366 4563 
L 3366 3988 
Q 3128 4100 2886 4159 
Q 2644 4219 2406 4219 
Q 1781 4219 1451 3797 
Q 1122 3375 1075 2522 
Q 1259 2794 1537 2939 
Q 1816 3084 2150 3084 
Q 2853 3084 3261 2657 
Q 3669 2231 3669 1497 
Q 3669 778 3244 343 
Q 2819 -91 2113 -91 
Q 1303 -91 875 529 
Q 447 1150 447 2328 
Q 447 3434 972 4092 
Q 1497 4750 2381 4750 
Q 2619 4750 2861 4703 
Q 3103 4656 3366 4563 
z
" transform="scale(0.015625)"/>
       </defs>
       <use xlink:href="#DejaVuSans-2d"/>
       <use xlink:href="#DejaVuSans-30" transform="translate(36.083984 0)"/>
       <use xlink:href="#DejaVuSans-2e" transform="translate(99.707031 0)"/>
       <use xlink:href="#DejaVuSans-36" transform="translate(131.494141 0)"/>
      </g>
     </g>
    </g>
    <g id="ytick_15">
     <g id="line2d_33">
      <g>
       <use xlink:href="#m0a27ea52cb" x="420.800318" y="46.933813" style="stroke: #000000; stroke-width: 0.8"/>
      </g>
     </g>
     <g id="text_19">
      <!-- -0.3 -->
      <g transform="translate(427.800318 50.733032) scale(0.1 -0.1)">
       <use xlink:href="#DejaVuSans-2d"/>
       <use xlink:href="#DejaVuSans-30" transform="translate(36.083984 0)"/>
       <use xlink:href="#DejaVuSans-2e" transform="translate(99.707031 0)"/>
       <use xlink:href="#DejaVuSans-33" transform="translate(131.494141 0)"/>
      </g>
     </g>
    </g>
    <g id="ytick_16">
     <g id="line2d_34">
      <g>
       <use xlink:href="#m0a27ea52cb" x="420.800318" y="10.999219" style="stroke: #000000; stroke-width: 0.8"/>
      </g>
     </g>
     <g id="text_20">
      <!-- 0.0 -->
      <g transform="translate(427.800318 14.798438) scale(0.1 -0.1)">
       <use xlink:href="#DejaVuSans-30"/>
       <use xlink:href="#DejaVuSans-2e" transform="translate(63.623047 0)"/>
       <use xlink:href="#DejaVuSans-30" transform="translate(95.410156 0)"/>
      </g>
     </g>
    </g>
    <g id="text_21">
     <!-- Score -->
     <g transform="translate(458.909693 177.723588) rotate(-90) scale(0.1 -0.1)">
      <defs>
       <path id="DejaVuSans-53" d="M 3425 4513 
L 3425 3897 
Q 3066 4069 2747 4153 
Q 2428 4238 2131 4238 
Q 1616 4238 1336 4038 
Q 1056 3838 1056 3469 
Q 1056 3159 1242 3001 
Q 1428 2844 1947 2747 
L 2328 2669 
Q 3034 2534 3370 2195 
Q 3706 1856 3706 1288 
Q 3706 609 3251 259 
Q 2797 -91 1919 -91 
Q 1588 -91 1214 -16 
Q 841 59 441 206 
L 441 856 
Q 825 641 1194 531 
Q 1563 422 1919 422 
Q 2459 422 2753 634 
Q 3047 847 3047 1241 
Q 3047 1584 2836 1778 
Q 2625 1972 2144 2069 
L 1759 2144 
Q 1053 2284 737 2584 
Q 422 2884 422 3419 
Q 422 4038 858 4394 
Q 1294 4750 2059 4750 
Q 2388 4750 2728 4690 
Q 3069 4631 3425 4513 
z
" transform="scale(0.015625)"/>
       <path id="DejaVuSans-63" d="M 3122 3366 
L 3122 2828 
Q 2878 2963 2633 3030 
Q 2388 3097 2138 3097 
Q 1578 3097 1268 2742 
Q 959 2388 959 1747 
Q 959 1106 1268 751 
Q 1578 397 2138 397 
Q 2388 397 2633 464 
Q 2878 531 3122 666 
L 3122 134 
Q 2881 22 2623 -34 
Q 2366 -91 2075 -91 
Q 1284 -91 818 406 
Q 353 903 353 1747 
Q 353 2603 823 3093 
Q 1294 3584 2113 3584 
Q 2378 3584 2631 3529 
Q 2884 3475 3122 3366 
z
" transform="scale(0.015625)"/>
       <path id="DejaVuSans-6f" d="M 1959 3097 
Q 1497 3097 1228 2736 
Q 959 2375 959 1747 
Q 959 1119 1226 758 
Q 1494 397 1959 397 
Q 2419 397 2687 759 
Q 2956 1122 2956 1747 
Q 2956 2369 2687 2733 
Q 2419 3097 1959 3097 
z
M 1959 3584 
Q 2709 3584 3137 3096 
Q 3566 2609 3566 1747 
Q 3566 888 3137 398 
Q 2709 -91 1959 -91 
Q 1206 -91 779 398 
Q 353 888 353 1747 
Q 353 2609 779 3096 
Q 1206 3584 1959 3584 
z
" transform="scale(0.015625)"/>
       <path id="DejaVuSans-72" d="M 2631 2963 
Q 2534 3019 2420 3045 
Q 2306 3072 2169 3072 
Q 1681 3072 1420 2755 
Q 1159 2438 1159 1844 
L 1159 0 
L 581 0 
L 581 3500 
L 1159 3500 
L 1159 2956 
Q 1341 3275 1631 3429 
Q 1922 3584 2338 3584 
Q 2397 3584 2469 3576 
Q 2541 3569 2628 3553 
L 2631 2963 
z
" transform="scale(0.015625)"/>
       <path id="DejaVuSans-65" d="M 3597 1894 
L 3597 1613 
L 953 1613 
Q 991 1019 1311 708 
Q 1631 397 2203 397 
Q 2534 397 2845 478 
Q 3156 559 3463 722 
L 3463 178 
Q 3153 47 2828 -22 
Q 2503 -91 2169 -91 
Q 1331 -91 842 396 
Q 353 884 353 1716 
Q 353 2575 817 3079 
Q 1281 3584 2069 3584 
Q 2775 3584 3186 3129 
Q 3597 2675 3597 1894 
z
M 3022 2063 
Q 3016 2534 2758 2815 
Q 2500 3097 2075 3097 
Q 1594 3097 1305 2825 
Q 1016 2553 972 2059 
L 3022 2063 
z
" transform="scale(0.015625)"/>
      </defs>
      <use xlink:href="#DejaVuSans-53"/>
      <use xlink:href="#DejaVuSans-63" transform="translate(63.476562 0)"/>
      <use xlink:href="#DejaVuSans-6f" transform="translate(118.457031 0)"/>
      <use xlink:href="#DejaVuSans-72" transform="translate(179.638672 0)"/>
      <use xlink:href="#DejaVuSans-65" transform="translate(218.501953 0)"/>
     </g>
    </g>
   </g>
   <g id="LineCollection_1"/>
   <g id="patch_8">
    <path d="M 405.528116 316.44327 
L 413.164217 316.44327 
L 420.800318 316.44327 
L 420.800318 10.999219 
L 413.164217 10.999219 
L 405.528116 10.999219 
L 405.528116 316.44327 
z
" style="fill: none; stroke: #000000; stroke-width: 0.8; stroke-linejoin: miter; stroke-linecap: square"/>
   </g>
  </g>
 </g>
 <defs>
  <clipPath id="p1ec12e89ab">
   <rect x="43.78125" y="10.999219" width="344.520825" height="305.444051"/>
  </clipPath>
  <clipPath id="pe6d9492728">
   <rect x="405.528116" y="10.999219" width="15.272203" height="305.444051"/>
  </clipPath>
 </defs>
</svg>
