<?xml version="1.0" encoding="utf-8" standalone="no"?>
<!DOCTYPE svg PUBLIC "-//W3C//DTD SVG 1.1//EN"
  "http://www.w3.org/Graphics/SVG/1.1/DTD/svg11.dtd">
<svg xmlns:xlink="http://www.w3.org/1999/xlink" width="460.8pt" height="345.6pt" viewBox="0 0 460.8 345.6" xmlns="http://www.w3.org/2000/svg" version="1.1">
 <metadata>
  <rdf:RDF xmlns:dc="http://purl.org/dc/elements/1.1/" xmlns:cc="http://creativecommons.org/ns#" xmlns:rdf="http://www.w3.org/1999/02/22-rdf-syntax-ns#">
   <cc:Work>
    <dc:type rdf:resource="http://purl.org/dc/dcmitype/StillImage"/>
    <dc:date>2025-11-23T18:47:13.267730</dc:date>
    <dc:format>image/svg+xml</dc:format>
    <dc:creator>
     <cc:Agent>
      <dc:title>Matplotlib v3.10.7, https://matplotlib.org/</dc:title>
     </cc:Agent>
    </dc:creator>
   </cc:Work>
  </rdf:RDF>
 </metadata>
 <defs>
  <style type="text/css">*{stroke-linejoin: round; stroke-linecap: butt}</style>
 </defs>
 <g id="figure_1">
  <g id="patch_1">
   <path d="M 0 345.6 
L 460.8 345.6 
L 460.8 0 
L 0 0 
z
" style="fill: #ffffff"/>
  </g>
  <g id="axes_1">
   <g id="patch_2">
    <path d="M 39.58149 312.24351 
L 380.134979 312.24351 
L 380.134979 18.118365 
L 39.58149 18.118365 
z
" style="fill: #ffffff"/>
   </g>
   <g id="QuadContourSet_1">
    <path d="M 39.58149 289.880678 
L 43.249027 287.733081 
L 39.58149 286.091541 
L 36.658211 287.733081 
z
M -2.987696 269.274814 
L 7.460672 263.222652 
L -2.987696 258.389847 
L -11.864742 263.222652 
z
M -45.556882 238.779529 
L -45.445511 238.712224 
L -45.556882 238.664569 
L -45.648729 238.712224 
z
M -88.126068 219.314854 
L -79.809792 214.201795 
L -88.126068 210.49721 
L -95.237666 214.201795 
z
" clip-path="url(#pf2375dda22)" style="fill: #460b5e"/>
    <path d="M -2.987696 287.817431 
L 39.540779 312.24351 
L 39.58149 312.24351 
L 82.150676 312.24351 
L 110.770004 312.24351 
L 82.150676 294.558785 
L 73.587195 287.733081 
L 39.58149 268.884056 
L 32.832775 263.222652 
L -2.987696 243.377198 
L -11.0718 238.712224 
L -45.556882 219.926508 
L -52.268055 214.201795 
L -88.126068 194.780063 
L -96.900676 189.691366 
L -130.695254 170.37007 
L -141.340767 165.180938 
L -173.26444 154.692717 
L -198.083014 140.670509 
L -215.833626 131.279535 
L -240.534023 116.16008 
L -258.402813 106.238129 
L -285.297566 91.649651 
L -300.971999 83.522946 
L -334.067632 67.139222 
L -343.541185 63.958114 
L -386.110371 49.168513 
L -386.110371 67.139223 
L -386.110371 70.810852 
L -348.555551 91.649651 
L -343.541185 94.852235 
L -305.115623 116.16008 
L -300.971999 118.109299 
L -261.022414 140.670509 
L -258.402813 142.027201 
L -217.348896 165.180938 
L -215.833626 166.167091 
L -174.423176 189.691366 
L -173.26444 190.472191 
L -131.476515 214.201795 
L -130.695254 214.781874 
L -88.863248 238.712224 
L -88.126068 239.225271 
L -46.050429 263.222652 
L -45.556882 263.603047 
L -3.108916 287.733081 
z
M 36.658211 287.733081 
L 39.58149 286.091541 
L 43.249027 287.733081 
L 39.58149 289.880678 
z
M -11.864742 263.222652 
L -2.987696 258.389847 
L 7.460672 263.222652 
L -2.987696 269.274814 
z
M -45.648729 238.712224 
L -45.556882 238.664569 
L -45.445511 238.712224 
L -45.556882 238.779529 
z
M -95.237666 214.201795 
L -88.126068 210.49721 
L -79.809792 214.201795 
L -88.126068 219.314854 
z
" clip-path="url(#pf2375dda22)" style="fill: #482071"/>
    <path d="M -2.987696 292.45173 
L 33.134996 312.24351 
L 39.540779 312.24351 
L -2.987696 287.817431 
L -3.108916 287.733081 
L -45.556882 263.603047 
L -46.050429 263.222652 
L -88.126068 239.225271 
L -88.863248 238.712224 
L -130.695254 214.781874 
L -131.476515 214.201795 
L -173.26444 190.472191 
L -174.423176 189.691366 
L -215.833626 166.167091 
L -217.348896 165.180938 
L -258.402813 142.027201 
L -261.022414 140.670509 
L -300.971999 118.109299 
L -305.115623 116.16008 
L -343.541185 94.852235 
L -348.555551 91.649651 
L -386.110371 70.810852 
L -386.110371 87.920956 
L -377.835564 91.649651 
L -343.541185 109.776871 
L -329.804939 116.16008 
L -300.971999 127.709552 
L -275.48217 140.670509 
L -258.402813 148.709473 
L -227.050564 165.180938 
L -215.833626 172.023986 
L -182.771649 189.691366 
L -173.26444 195.750384 
L -138.941672 214.201795 
L -130.695254 220.026299 
L -96.218831 238.712224 
L -88.126068 244.073852 
L -52.835337 263.222652 
L -45.556882 268.583041 
L -10.094128 287.733081 
z
M 82.150676 294.558785 
L 110.770004 312.24351 
L 124.719862 312.24351 
L 129.384654 312.24351 
L 124.719862 309.744517 
L 90.652914 287.733081 
L 82.150676 283.228249 
L 49.888571 263.222652 
L 39.58149 257.696489 
L 9.198888 238.712224 
L -2.987696 231.956141 
L -31.112852 214.201795 
L -45.556882 206.374839 
L -71.977683 189.691366 
L -88.126068 181.360995 
L -112.31771 165.180938 
L -130.695254 155.724813 
L -164.37172 140.670509 
L -173.26444 136.41561 
L -203.460191 116.16008 
L -215.833626 110.190417 
L -242.409632 91.649651 
L -258.402813 83.406595 
L -282.473648 67.139223 
L -300.971999 57.265904 
L -328.05723 42.628794 
L -343.541185 37.374012 
L -386.110371 19.538874 
L -386.110371 42.628794 
L -386.110371 49.168513 
L -343.541185 63.958114 
L -334.067632 67.139223 
L -300.971999 83.522946 
L -285.297566 91.649651 
L -258.402813 106.238129 
L -240.534023 116.16008 
L -215.833626 131.279535 
L -198.083014 140.670509 
L -173.26444 154.692717 
L -141.340767 165.180938 
L -130.695254 170.37007 
L -96.900676 189.691366 
L -88.126068 194.780063 
L -52.268055 214.201795 
L -45.556882 219.926508 
L -11.0718 238.712224 
L -2.987696 243.377198 
L 32.832775 263.222652 
L 39.58149 268.884056 
L 73.587195 287.733081 
z
" clip-path="url(#pf2375dda22)" style="fill: #46337f"/>
    <path d="M -2.987696 297.086029 
L 26.121245 312.24351 
L 33.134996 312.24351 
L -2.987696 292.45173 
L -10.094128 287.733081 
L -45.556882 268.583041 
L -52.835337 263.222652 
L -88.126068 244.073852 
L -96.218831 238.712224 
L -130.695254 220.026299 
L -138.941672 214.201795 
L -173.26444 195.750384 
L -182.771649 189.691366 
L -215.833626 172.023986 
L -227.050564 165.180938 
L -258.402813 148.709473 
L -275.48217 140.670509 
L -300.971999 127.709552 
L -329.804939 116.16008 
L -343.541185 109.776871 
L -377.835564 91.649651 
L -386.110371 87.920956 
L -386.110371 91.649651 
L -386.110371 96.98505 
L -349.229617 116.16008 
L -343.541185 120.378501 
L -300.971999 137.309806 
L -293.473876 140.670509 
L -258.402813 155.391746 
L -238.219991 165.180938 
L -215.833626 177.880881 
L -192.183982 189.691366 
L -173.26444 201.028578 
L -147.245921 214.201795 
L -130.695254 225.270723 
L -104.387687 238.712224 
L -88.126068 248.922433 
L -60.306227 263.222652 
L -45.556882 273.563036 
L -17.808638 287.733081 
z
M 124.719862 309.744517 
L 129.384654 312.24351 
L 140.191232 312.24351 
L 124.719862 303.312229 
L 102.326114 287.733081 
L 82.150676 276.1359 
L 62.994058 263.222652 
L 39.58149 249.460676 
L 23.929801 238.712224 
L -2.987696 222.154257 
L -14.287696 214.201795 
L -45.556882 195.104719 
L -53.141477 189.691366 
L -88.126068 169.042203 
L -93.221606 165.180938 
L -130.695254 143.062968 
L -135.124296 140.670509 
L -173.26444 118.197556 
L -175.801136 116.16008 
L -215.833626 92.616439 
L -217.006985 91.649651 
L -256.680261 67.139223 
L -258.402813 66.280211 
L -295.263046 42.628794 
L -300.971999 39.89863 
L -343.541185 21.966107 
L -350.64663 18.118365 
L -386.110371 18.118365 
L -386.110371 19.538874 
L -343.541185 37.374012 
L -328.05723 42.628794 
L -300.971999 57.265904 
L -282.473648 67.139223 
L -258.402813 83.406595 
L -242.409632 91.649651 
L -215.833626 110.190417 
L -203.460191 116.16008 
L -173.26444 136.41561 
L -164.37172 140.670509 
L -130.695254 155.724813 
L -112.31771 165.180938 
L -88.126068 181.360995 
L -71.977683 189.691366 
L -45.556882 206.374839 
L -31.112852 214.201795 
L -2.987696 231.956141 
L 9.198888 238.712224 
L 39.58149 257.696489 
L 49.888571 263.222652 
L 82.150676 283.228249 
L 90.652914 287.733081 
z
" clip-path="url(#pf2375dda22)" style="fill: #404588"/>
    <path d="M -2.987696 301.720328 
L 18.371906 312.24351 
L 26.121245 312.24351 
L -2.987696 297.086029 
L -17.808638 287.733081 
L -45.556882 273.563036 
L -60.306227 263.222652 
L -88.126068 248.922433 
L -104.387687 238.712224 
L -130.695254 225.270723 
L -147.245921 214.201795 
L -173.26444 201.028578 
L -192.183982 189.691366 
L -215.833626 177.880881 
L -238.219991 165.180938 
L -258.402813 155.391746 
L -293.473876 140.670509 
L -300.971999 137.309806 
L -343.541185 120.378501 
L -349.229617 116.16008 
L -386.110371 96.98505 
L -386.110371 103.807144 
L -360.358332 116.16008 
L -343.541185 127.749446 
L -310.289084 140.670509 
L -300.971999 146.177152 
L -258.402813 162.074018 
L -251.381838 165.180938 
L -215.833626 183.737776 
L -202.971463 189.691366 
L -173.26444 206.306771 
L -156.602063 214.201795 
L -130.695254 230.515148 
L -113.572271 238.712224 
L -88.126068 253.771014 
L -68.617572 263.222652 
L -45.556882 278.54303 
L -26.422677 287.733081 
z
M 124.719862 303.312229 
L 140.191232 312.24351 
L 149.618094 312.24351 
L 124.719862 296.879941 
L 112.40542 287.733081 
L 82.150676 269.043552 
L 74.122901 263.222652 
L 39.58149 241.224863 
L 36.20812 238.712224 
L 0.065173 214.201795 
L -2.987696 212.628604 
L -36.934887 189.691366 
L -45.556882 185.322368 
L -76.303808 165.180938 
L -88.126068 158.998966 
L -115.884234 140.670509 
L -130.695254 132.653738 
L -155.568607 116.16008 
L -173.26444 106.325012 
L -195.081353 91.649651 
L -215.833626 79.96928 
L -233.844227 67.139223 
L -258.402813 52.782022 
L -272.048953 42.628794 
L -300.971999 26.347128 
L -317.08345 18.118365 
L -343.541185 18.118365 
L -350.64663 18.118365 
L -343.541185 21.966107 
L -300.971999 39.89863 
L -295.263046 42.628794 
L -258.402813 66.280211 
L -256.680261 67.139223 
L -217.006985 91.649651 
L -215.833626 92.616439 
L -175.801136 116.16008 
L -173.26444 118.197556 
L -135.124296 140.670509 
L -130.695254 143.062968 
L -93.221606 165.180937 
L -88.126068 169.042203 
L -53.141477 189.691366 
L -45.556882 195.104719 
L -14.287696 214.201795 
L -2.987696 222.154257 
L 23.929801 238.712224 
L 39.58149 249.460676 
L 62.994058 263.222652 
L 82.150676 276.1359 
L 102.326114 287.733081 
z
" clip-path="url(#pf2375dda22)" style="fill: #39558c"/>
    <path d="M -2.987696 306.354627 
L 9.714409 312.24351 
L 18.371906 312.24351 
L -2.987696 301.720328 
L -26.422677 287.733081 
L -45.556882 278.54303 
L -68.617572 263.222652 
L -88.126068 253.771014 
L -113.572271 238.712224 
L -130.695254 230.515148 
L -156.602063 214.201795 
L -173.26444 206.306771 
L -202.971463 189.691366 
L -215.833626 183.737776 
L -251.381838 165.180938 
L -258.402813 162.074018 
L -300.971999 146.177152 
L -310.289084 140.670509 
L -343.541185 127.749446 
L -360.358332 116.16008 
L -386.110371 103.807144 
L -386.110371 110.629237 
L -373.463642 116.16008 
L -343.541185 135.120391 
L -327.402575 140.670509 
L -300.971999 154.649744 
L -268.846107 165.180938 
L -258.402813 173.318929 
L -215.833626 189.594671 
L -215.605809 189.691366 
L -173.26444 211.584965 
L -167.315769 214.201795 
L -130.695254 235.759572 
L -124.06153 238.712224 
L -88.126068 258.619595 
L -77.982726 263.222652 
L -45.556882 283.523025 
L -36.174052 287.733081 
z
M 124.719862 296.879941 
L 149.618094 312.24351 
L 157.977991 312.24351 
L 124.719862 290.447654 
L 121.274269 287.733081 
L 84.532291 263.222652 
L 82.150676 261.853097 
L 49.609601 238.712224 
L 39.58149 233.016445 
L 14.426525 214.201795 
L -2.987696 204.290736 
L -22.730287 189.691366 
L -45.556882 176.915146 
L -61.890538 165.180938 
L -88.126068 149.994631 
L -100.950043 140.670509 
L -130.695254 122.769299 
L -139.684062 116.16008 
L -173.26444 95.251501 
L -178.053242 91.649651 
L -215.833626 67.608937 
L -216.421175 67.139223 
L -252.273194 42.628794 
L -258.402813 39.480283 
L -290.804905 18.118365 
L -300.971999 18.118365 
L -317.08345 18.118365 
L -300.971999 26.347128 
L -272.048953 42.628794 
L -258.402813 52.782022 
L -233.844227 67.139223 
L -215.833626 79.96928 
L -195.081353 91.649651 
L -173.26444 106.325012 
L -155.568607 116.16008 
L -130.695254 132.653738 
L -115.884234 140.670509 
L -88.126068 158.998966 
L -76.303808 165.180938 
L -45.556882 185.322368 
L -36.934887 189.691366 
L -2.987696 212.628604 
L 0.065173 214.201795 
L 36.20812 238.712224 
L 39.58149 241.224863 
L 74.122901 263.222652 
L 82.150676 269.043552 
L 112.40542 287.733081 
z
" clip-path="url(#pf2375dda22)" style="fill: #32658e"/>
    <path d="M -45.556882 288.598577 
L -2.987696 310.988926 
L -0.092712 312.24351 
L 9.714409 312.24351 
L -2.987696 306.354627 
L -36.174052 287.733081 
L -45.556882 283.523025 
L -77.982726 263.222652 
L -88.126068 258.619595 
L -124.06153 238.712224 
L -130.695254 235.759572 
L -167.315769 214.201795 
L -173.26444 211.584965 
L -215.605809 189.691366 
L -215.833626 189.594671 
L -258.402813 173.318929 
L -268.846107 165.180938 
L -300.971999 154.649744 
L -327.402575 140.670509 
L -343.541185 135.120391 
L -373.463642 116.16008 
L -386.110371 110.629237 
L -386.110371 116.16008 
L -386.110371 119.984594 
L -350.116522 140.670509 
L -343.541185 143.35825 
L -300.971999 163.122336 
L -293.497843 165.180938 
L -258.402813 188.528695 
L -254.364326 189.691366 
L -216.426237 214.201795 
L -215.833626 214.668768 
L -173.26444 222.290091 
L -141.072768 238.712224 
L -130.695254 243.181632 
L -88.945919 263.222652 
L -88.126068 263.53138 
L -46.780221 287.733081 
z
M 124.719862 290.447654 
L 157.977991 312.24351 
L 165.488078 312.24351 
L 131.145117 287.733081 
L 124.719862 283.864109 
L 96.570449 263.222652 
L 82.150676 254.213492 
L 62.005217 238.712224 
L 39.58149 224.820055 
L 26.447267 214.201795 
L -2.987696 195.952868 
L -10.819462 189.691366 
L -45.556882 168.507924 
L -49.833479 165.180938 
L -88.126068 140.990295 
L -88.53097 140.670509 
L -123.422938 116.16008 
L -130.695254 112.046028 
L -158.160681 91.649651 
L -173.26444 83.147397 
L -194.445971 67.139223 
L -215.833626 55.021835 
L -231.686316 42.628794 
L -258.402813 26.774843 
L -269.880786 18.118365 
L -290.804905 18.118365 
L -258.402813 39.480283 
L -252.273194 42.628794 
L -216.421175 67.139223 
L -215.833626 67.608937 
L -178.053242 91.649651 
L -173.26444 95.251501 
L -139.684062 116.16008 
L -130.695254 122.769299 
L -100.950043 140.670509 
L -88.126068 149.994631 
L -61.890538 165.180938 
L -45.556882 176.915146 
L -22.730287 189.691366 
L -2.987696 204.290736 
L 14.426525 214.201795 
L 39.58149 233.016445 
L 49.609601 238.712224 
L 82.150676 261.853097 
L 84.532291 263.222652 
L 121.274269 287.733081 
z
" clip-path="url(#pf2375dda22)" style="fill: #2c738e"/>
    <path d="M -45.556882 294.196643 
L -9.213448 312.24351 
L -2.987696 312.24351 
L -0.092712 312.24351 
L -2.987696 310.988926 
L -45.556882 288.598577 
L -46.780221 287.733081 
L -88.126068 263.53138 
L -88.945919 263.222652 
L -130.695254 243.181632 
L -141.072768 238.712224 
L -173.26444 222.290091 
L -215.833626 214.668768 
L -216.426237 214.201795 
L -254.364326 189.691366 
L -258.402813 188.528695 
L -293.497843 165.180938 
L -300.971999 163.122336 
L -343.541185 143.35825 
L -350.116522 140.670509 
L -386.110371 119.984594 
L -386.110371 140.190734 
L -385.042735 140.670509 
L -343.541185 154.238571 
L -316.368709 165.180938 
L -300.971999 172.146524 
L -269.798242 189.691366 
L -258.402813 195.505844 
L -224.970216 214.201795 
L -215.833626 221.001543 
L -173.26444 238.33134 
L -172.334779 238.712224 
L -130.695254 253.409291 
L -107.334275 263.222652 
L -88.126068 269.628111 
L -55.222738 287.733081 
z
M 167.289048 312.24351 
L 174.897126 312.24351 
L 167.289048 307.815563 
L 141.092576 287.733081 
L 124.719862 277.17012 
L 106.920543 263.222652 
L 82.150676 246.573887 
L 72.61829 238.712224 
L 39.58149 216.623664 
L 36.784491 214.201795 
L 0.892549 189.691366 
L -2.987696 187.498381 
L -35.231575 165.180938 
L -45.556882 159.014802 
L -70.348607 140.670509 
L -88.126068 129.564939 
L -105.014024 116.16008 
L -130.695254 99.630041 
L -140.264965 91.649651 
L -173.26444 70.546475 
L -177.292352 67.139223 
L -215.433307 42.628794 
L -215.833626 42.40084 
L -249.900535 18.118365 
L -258.402813 18.118365 
L -269.880786 18.118365 
L -258.402813 26.774843 
L -231.686316 42.628794 
L -215.833626 55.021835 
L -194.445971 67.139223 
L -173.26444 83.147397 
L -158.160681 91.649651 
L -130.695254 112.046028 
L -123.422938 116.16008 
L -88.53097 140.670509 
L -88.126068 140.990295 
L -49.833479 165.180938 
L -45.556882 168.507924 
L -10.819462 189.691366 
L -2.987696 195.952868 
L 26.447267 214.201795 
L 39.58149 224.820055 
L 62.005217 238.712224 
L 82.150676 254.213492 
L 96.570449 263.222652 
L 124.719862 283.864109 
L 131.145117 287.733081 
L 165.488078 312.24351 
z
" clip-path="url(#pf2375dda22)" style="fill: #26828e"/>
    <path d="M -45.556882 299.794708 
L -18.703623 312.24351 
L -9.213448 312.24351 
L -45.556882 294.196643 
L -55.222738 287.733081 
L -88.126068 269.628111 
L -107.334275 263.222652 
L -130.695254 253.409291 
L -172.334779 238.712224 
L -173.26444 238.33134 
L -215.833626 221.001543 
L -224.970216 214.201795 
L -258.402813 195.505844 
L -269.798242 189.691366 
L -300.971999 172.146524 
L -316.368709 165.180938 
L -343.541185 154.238571 
L -385.042735 140.670509 
L -386.110371 140.190734 
L -386.110371 140.670509 
L -386.110371 149.265063 
L -343.541185 165.118892 
L -343.355229 165.180938 
L -300.971999 181.347751 
L -284.509133 189.691366 
L -258.402813 201.801584 
L -234.631879 214.201795 
L -215.833626 227.334319 
L -185.639031 238.712224 
L -173.26444 246.469855 
L -131.307917 263.222652 
L -130.695254 263.71658 
L -88.126068 275.724842 
L -64.754818 287.733081 
z
M 167.289048 307.815563 
L 174.897126 312.24351 
L 184.018835 312.24351 
L 167.289048 301.869729 
L 149.859217 287.733081 
L 124.719862 270.476131 
L 115.998292 263.222652 
L 82.150676 238.934282 
L 81.897626 238.712224 
L 49.221686 214.201795 
L 39.58149 208.545987 
L 14.699357 189.691366 
L -2.987696 178.692217 
L -20.790164 165.180938 
L -45.556882 148.810537 
L -55.549448 140.670509 
L -88.126068 118.050436 
L -90.2865 116.16008 
L -123.820162 91.649651 
L -130.695254 87.75085 
L -158.749017 67.139223 
L -173.26444 58.305728 
L -194.068975 42.628794 
L -215.833626 28.257657 
L -228.212752 18.118365 
L -249.900535 18.118365 
L -215.833626 42.40084 
L -215.433307 42.628794 
L -177.292352 67.139223 
L -173.26444 70.546475 
L -140.264965 91.649651 
L -130.695254 99.630041 
L -105.014024 116.16008 
L -88.126068 129.564939 
L -70.348607 140.670509 
L -45.556882 159.014802 
L -35.231575 165.180938 
L -2.987696 187.498381 
L 0.892549 189.691366 
L 36.784491 214.201795 
L 39.58149 216.623664 
L 72.61829 238.712224 
L 82.150676 246.573887 
L 106.920543 263.222652 
L 124.719862 277.17012 
L 141.092576 287.733081 
z
" clip-path="url(#pf2375dda22)" style="fill: #21918c"/>
    <path d="M -45.556882 305.392774 
L -29.593522 312.24351 
L -18.703623 312.24351 
L -45.556882 299.794708 
L -64.754818 287.733081 
L -88.126068 275.724842 
L -130.695254 263.71658 
L -131.307917 263.222652 
L -173.26444 246.469855 
L -185.639031 238.712224 
L -215.833626 227.334319 
L -234.631879 214.201795 
L -258.402813 201.801584 
L -284.509133 189.691366 
L -300.971999 181.347751 
L -343.355229 165.180938 
L -343.541185 165.118892 
L -386.110371 149.265063 
L -386.110371 158.06865 
L -363.978484 165.180938 
L -343.541185 176.05506 
L -303.25806 189.691366 
L -300.971999 191.592829 
L -258.402813 208.097323 
L -245.748288 214.201795 
L -215.833626 233.667095 
L -200.910548 238.712224 
L -173.26444 254.416164 
L -148.307916 263.222652 
L -130.695254 275.910052 
L -88.126068 281.821572 
L -75.699955 287.733081 
z
M 167.289048 301.869729 
L 184.018835 312.24351 
L 192.137929 312.24351 
L 167.289048 295.923896 
L 157.695867 287.733081 
L 124.719862 263.782142 
L 124.08255 263.222652 
L 94.980659 238.712224 
L 82.150676 231.285426 
L 61.05187 214.201795 
L 39.58149 200.5181 
L 26.32946 189.691366 
L -2.987696 169.886053 
L -8.713437 165.180938 
L -41.85481 140.670509 
L -45.556882 138.6113 
L -73.792548 116.16008 
L -88.126068 107.376547 
L -107.407095 91.649651 
L -130.695254 76.837447 
L -142.587018 67.139223 
L -173.26444 46.198466 
L -177.513404 42.628794 
L -209.253236 18.118365 
L -215.833626 18.118365 
L -228.212752 18.118365 
L -215.833626 28.257657 
L -194.068975 42.628794 
L -173.26444 58.305728 
L -158.749017 67.139223 
L -130.695254 87.75085 
L -123.820162 91.649651 
L -90.2865 116.16008 
L -88.126068 118.050436 
L -55.549448 140.670509 
L -45.556882 148.810537 
L -20.790164 165.180938 
L -2.987696 178.692217 
L 14.699357 189.691366 
L 39.58149 208.545987 
L 49.221686 214.201795 
L 81.897626 238.712224 
L 82.150676 238.934282 
L 115.998292 263.222652 
L 124.719862 270.476131 
L 149.859217 287.733081 
z
" clip-path="url(#pf2375dda22)" style="fill: #1f9f88"/>
    <path d="M -130.695254 288.221393 
L -88.126068 288.129697 
L -45.556882 310.99084 
L -42.368679 312.24351 
L -29.593522 312.24351 
L -45.556882 305.392774 
L -75.699955 287.733081 
L -88.126068 281.821572 
L -130.695254 275.910052 
L -148.307916 263.222652 
L -173.26444 254.416164 
L -200.910548 238.712224 
L -215.833626 233.667095 
L -245.748288 214.201795 
L -258.402813 208.097323 
L -300.971999 191.592829 
L -303.25806 189.691366 
L -343.541185 176.05506 
L -363.978484 165.180938 
L -386.110371 158.06865 
L -386.110371 165.180938 
L -386.110371 189.691366 
L -386.110371 189.790955 
L -384.480787 189.691366 
L -343.541185 186.991548 
L -333.633186 189.691366 
L -343.541185 201.088273 
L -348.127208 214.201795 
L -343.541185 217.833146 
L -310.489745 214.201795 
L -300.971999 211.993449 
L -265.859141 214.201795 
L -258.531125 238.712224 
L -258.402813 238.815828 
L -215.833626 240.983094 
L -173.26444 262.362473 
L -170.420413 263.222652 
L -131.247164 287.733081 
z
M 167.289048 295.923896 
L 192.137929 312.24351 
L 199.453148 312.24351 
L 167.289048 289.978062 
L 164.781051 287.733081 
L 137.954611 263.222652 
L 124.719862 255.567166 
L 106.213887 238.712224 
L 82.150676 223.636293 
L 71.247938 214.201795 
L 39.58149 192.490212 
L 36.376635 189.691366 
L 5.952531 165.180938 
L -2.987696 160.282527 
L -25.864994 140.670509 
L -45.556882 128.431894 
L -59.646765 116.16008 
L -88.126068 96.867769 
L -93.983398 91.649651 
L -128.043138 67.139223 
L -130.695254 65.676895 
L -158.372749 42.628794 
L -173.26444 32.970757 
L -189.809004 18.118365 
L -209.253236 18.118365 
L -177.513404 42.628794 
L -173.26444 46.198466 
L -142.587018 67.139223 
L -130.695254 76.837447 
L -107.407095 91.649651 
L -88.126068 107.376547 
L -73.792548 116.16008 
L -45.556882 138.6113 
L -41.85481 140.670509 
L -8.713437 165.180938 
L -2.987696 169.886053 
L 26.32946 189.691366 
L 39.58149 200.5181 
L 61.05187 214.201795 
L 82.150676 231.285426 
L 94.980659 238.712224 
L 124.08255 263.222652 
L 124.719862 263.782142 
L 157.695867 287.733081 
z
" clip-path="url(#pf2375dda22)" style="fill: #26ad81"/>
    <path d="M -130.695254 304.294609 
L -88.126068 301.184649 
L -62.920865 312.24351 
L -45.556882 312.24351 
L -42.368679 312.24351 
L -45.556882 310.99084 
L -88.126068 288.129697 
L -130.695254 288.221393 
L -131.247164 287.733081 
L -170.420413 263.222652 
L -173.26444 262.362473 
L -215.833626 240.983094 
L -258.402813 238.815828 
L -258.531125 238.712224 
L -265.859141 214.201795 
L -300.971999 211.993449 
L -310.489745 214.201795 
L -343.541185 217.833146 
L -348.127208 214.201795 
L -343.541185 201.088273 
L -333.633186 189.691366 
L -343.541185 186.991548 
L -384.480787 189.691366 
L -386.110371 189.790955 
L -386.110371 203.479113 
L -366.999364 214.201795 
L -343.541185 230.617512 
L -300.971999 226.899758 
L -278.697558 238.712224 
L -258.402813 253.055184 
L -215.833626 252.151462 
L -190.440207 263.222652 
L -173.26444 276.472721 
L -152.184754 287.733081 
z
M 167.289048 289.978062 
L 199.453148 312.24351 
L 206.109434 312.24351 
L 178.368024 287.733081 
L 167.289048 281.228049 
L 150.120013 263.222652 
L 124.719862 247.21347 
L 115.963632 238.712224 
L 82.150676 215.987161 
L 80.207029 214.201795 
L 53.006554 189.691366 
L 39.58149 181.733114 
L 22.129101 165.180938 
L -2.987696 149.764191 
L -12.725384 140.670509 
L -45.556882 118.252487 
L -47.777285 116.16008 
L -75.687574 91.649651 
L -88.126068 84.659835 
L -107.715301 67.139223 
L -130.695254 52.543871 
L -141.360968 42.628794 
L -173.26444 19.274575 
L -174.427577 18.118365 
L -189.809004 18.118365 
L -173.26444 32.970757 
L -158.372749 42.628794 
L -130.695254 65.676895 
L -128.043138 67.139223 
L -93.983398 91.649651 
L -88.126068 96.867769 
L -59.646765 116.16008 
L -45.556882 128.431894 
L -25.864994 140.670509 
L -2.987696 160.282527 
L 5.952531 165.180938 
L 36.376635 189.691366 
L 39.58149 192.490212 
L 71.247938 214.201795 
L 82.150676 223.636293 
L 106.213887 238.712224 
L 124.719862 255.567166 
L 137.954611 263.222652 
L 164.781051 287.733081 
z
" clip-path="url(#pf2375dda22)" style="fill: #3aba76"/>
    <path d="M -343.541185 312.24351 
L -300.971999 312.24351 
L -258.402813 312.24351 
L -215.833626 312.24351 
L -173.26444 312.24351 
L -130.695254 312.24351 
L -88.126068 312.24351 
L -62.920865 312.24351 
L -88.126068 301.184649 
L -130.695254 304.294609 
L -152.184754 287.733081 
L -173.26444 276.472721 
L -190.440207 263.222652 
L -215.833626 252.151462 
L -258.402813 253.055184 
L -278.697558 238.712224 
L -300.971999 226.899758 
L -343.541185 230.617512 
L -366.999364 214.201795 
L -386.110371 203.479113 
L -386.110371 214.201795 
L -386.110371 238.712224 
L -386.110371 263.222652 
L -386.110371 287.733081 
L -386.110371 312.24351 
z
M 209.858234 312.24351 
L 218.231299 312.24351 
L 209.858234 306.763585 
L 193.287034 287.733081 
L 167.289048 270.776988 
L 160.563973 263.222652 
L 124.719862 238.859775 
L 124.576399 238.712224 
L 100.672554 214.201795 
L 82.150676 202.895354 
L 69.796043 189.691366 
L 39.58149 169.515206 
L 35.394395 165.180938 
L 2.078305 140.670509 
L -2.987696 137.57708 
L -22.984371 116.16008 
L -45.556882 102.543934 
L -55.859744 91.649651 
L -88.126068 70.776043 
L -91.787443 67.139223 
L -120.515685 42.628794 
L -130.695254 37.074535 
L -148.025977 18.118365 
L -173.26444 18.118365 
L -174.427577 18.118365 
L -173.26444 19.274575 
L -141.360968 42.628794 
L -130.695254 52.543871 
L -107.715301 67.139223 
L -88.126068 84.659835 
L -75.687574 91.649651 
L -47.777285 116.16008 
L -45.556882 118.252487 
L -12.725384 140.670509 
L -2.987696 149.764191 
L 22.129101 165.180938 
L 39.58149 181.733114 
L 53.006554 189.691366 
L 80.207029 214.201795 
L 82.150676 215.987161 
L 115.963632 238.712224 
L 124.719862 247.21347 
L 150.120013 263.222652 
L 167.289048 281.228049 
L 178.368024 287.733081 
L 206.109434 312.24351 
z
M 507.842537 290.822392 
L 523.537758 312.24351 
L 550.411723 312.24351 
L 592.980909 312.24351 
L 635.550095 312.24351 
L 678.119281 312.24351 
L 720.688467 312.24351 
L 763.257653 312.24351 
L 805.826839 312.24351 
L 848.396025 312.24351 
L 890.965212 312.24351 
L 933.534398 312.24351 
L 976.103584 312.24351 
L 1018.67277 312.24351 
L 1061.241956 312.24351 
L 1103.811142 312.24351 
L 1146.380328 312.24351 
L 1188.949514 312.24351 
L 1231.5187 312.24351 
L 1274.087886 312.24351 
L 1316.657072 312.24351 
L 1359.226258 312.24351 
L 1401.795445 312.24351 
L 1444.364631 312.24351 
L 1486.933817 312.24351 
L 1486.933817 287.733081 
L 1486.933817 263.222652 
L 1486.933817 238.712224 
L 1486.933817 214.201795 
L 1486.933817 189.691366 
L 1486.933817 165.180938 
L 1486.933817 140.670509 
L 1486.933817 116.16008 
L 1486.933817 91.649651 
L 1486.933817 67.139223 
L 1486.933817 42.628794 
L 1486.933817 18.118365 
L 1444.364631 18.118365 
L 1401.795445 18.118365 
L 1359.226258 18.118365 
L 1316.657072 18.118365 
L 1274.087886 18.118365 
L 1231.5187 18.118365 
L 1188.949514 18.118365 
L 1146.380328 18.118365 
L 1103.811142 18.118365 
L 1061.241956 18.118365 
L 1018.67277 18.118365 
L 976.103584 18.118365 
L 933.534398 18.118365 
L 890.965212 18.118365 
L 848.396025 18.118365 
L 805.826839 18.118365 
L 763.257653 18.118365 
L 720.688467 18.118365 
L 678.119281 18.118365 
L 635.550095 18.118365 
L 592.980909 18.118365 
L 550.411723 18.118365 
L 507.842537 18.118365 
L 465.273351 18.118365 
L 422.704165 18.118365 
L 380.134979 18.118365 
L 367.318771 18.118365 
L 373.495029 42.628794 
L 379.155202 67.139222 
L 380.134979 71.032845 
L 390.989912 91.649651 
L 402.461324 116.16008 
L 412.367199 140.670509 
L 420.945848 165.180938 
L 422.704165 169.656391 
L 439.664094 189.691366 
L 455.33145 214.201795 
L 465.273351 234.955944 
L 469.782846 238.712224 
L 494.000994 263.222652 
L 506.997776 287.733081 
z
" clip-path="url(#pf2375dda22)" style="fill: #56c667"/>
    <path d="M 209.858234 306.763585 
L 218.231299 312.24351 
L 235.930143 312.24351 
L 209.858234 292.921658 
L 205.695618 287.733081 
L 176.91044 263.222652 
L 167.289048 256.723051 
L 151.519623 238.712224 
L 124.719862 220.359681 
L 119.447208 214.201795 
L 87.625464 189.691366 
L 82.150676 186.213245 
L 64.079018 165.180938 
L 39.58149 149.309436 
L 31.510639 140.670509 
L 1.095402 116.16008 
L -2.987696 113.864934 
L -26.54033 91.649651 
L -45.556882 78.641055 
L -56.109787 67.139223 
L -88.126068 44.100925 
L -89.31683 42.628794 
L -118.285528 18.118365 
L -130.695254 18.118365 
L -148.025977 18.118365 
L -130.695254 37.074535 
L -120.515685 42.628794 
L -91.787443 67.139222 
L -88.126068 70.776043 
L -55.859744 91.649651 
L -45.556882 102.543934 
L -22.984371 116.16008 
L -2.987696 137.57708 
L 2.078305 140.670509 
L 35.394395 165.180938 
L 39.58149 169.515206 
L 69.796043 189.691366 
L 82.150676 202.895354 
L 100.672554 214.201795 
L 124.576399 238.712224 
L 124.719862 238.859775 
L 160.563973 263.222652 
L 167.289048 270.776988 
L 193.287034 287.733081 
z
M 465.273351 312.24351 
L 507.842537 312.24351 
L 523.537758 312.24351 
L 507.842537 290.822392 
L 506.997776 287.733081 
L 494.000994 263.222652 
L 469.782846 238.712224 
L 465.273351 234.955944 
L 455.33145 214.201795 
L 439.664094 189.691366 
L 422.704165 169.656391 
L 420.945848 165.180938 
L 412.367199 140.670509 
L 402.461324 116.16008 
L 390.989912 91.649651 
L 380.134979 71.032845 
L 379.155202 67.139223 
L 373.495029 42.628794 
L 367.318771 18.118365 
L 337.565793 18.118365 
L 294.996606 18.118365 
L 267.098806 18.118365 
L 281.665757 42.628794 
L 294.141372 67.139223 
L 294.996606 68.744328 
L 312.660902 91.649651 
L 328.187751 116.16008 
L 337.565793 132.37491 
L 344.950722 140.670509 
L 364.474835 165.180938 
L 379.843562 189.691366 
L 380.134979 190.125694 
L 403.56405 214.201795 
L 420.221222 238.712224 
L 422.704165 242.667081 
L 443.095891 263.222652 
L 458.018994 287.733081 
L 464.667933 312.24351 
z
" clip-path="url(#pf2375dda22)" style="fill: #77d153"/>
    <path d="M 209.858234 292.921658 
L 235.930143 312.24351 
L 250.200447 312.24351 
L 231.953857 287.733081 
L 209.858234 270.716503 
L 203.883825 263.222652 
L 179.799554 238.712224 
L 167.289048 227.693953 
L 156.970117 214.201795 
L 128.169083 189.691366 
L 124.719862 186.770189 
L 107.730229 165.180938 
L 82.150676 143.303309 
L 80.060917 140.670509 
L 59.054386 116.16008 
L 39.58149 98.213164 
L 34.175008 91.649651 
L 12.106561 67.139223 
L -2.987696 52.597248 
L -11.849042 42.628794 
L -33.382706 18.118365 
L -45.556882 18.118365 
L -88.126068 18.118365 
L -118.285528 18.118365 
L -89.31683 42.628794 
L -88.126068 44.100925 
L -56.109787 67.139223 
L -45.556882 78.641055 
L -26.54033 91.649651 
L -2.987696 113.864934 
L 1.095402 116.16008 
L 31.510639 140.670509 
L 39.58149 149.309436 
L 64.079018 165.180938 
L 82.150676 186.213245 
L 87.625464 189.691366 
L 119.447208 214.201795 
L 124.719862 220.359681 
L 151.519623 238.712224 
L 167.289048 256.723051 
L 176.91044 263.222652 
L 205.695618 287.733081 
z
M 422.704165 312.24351 
L 464.667933 312.24351 
L 458.018994 287.733081 
L 443.095891 263.222652 
L 422.704165 242.667081 
L 420.221222 238.712224 
L 403.56405 214.201795 
L 380.134979 190.125694 
L 379.843562 189.691366 
L 364.474835 165.180938 
L 344.950722 140.670509 
L 337.565793 132.37491 
L 328.187751 116.16008 
L 312.660902 91.649651 
L 294.996606 68.744328 
L 294.141372 67.139223 
L 281.665757 42.628794 
L 267.098806 18.118365 
L 252.42742 18.118365 
L 209.858234 18.118365 
L 179.869435 18.118365 
L 201.087367 42.628794 
L 209.858234 53.753477 
L 223.984953 67.139223 
L 245.32924 91.649651 
L 252.42742 100.300067 
L 269.39485 116.16008 
L 290.679543 140.670509 
L 294.996606 145.785246 
L 315.274601 165.180938 
L 336.619645 189.691366 
L 337.565793 190.842214 
L 360.119609 214.201795 
L 380.134979 238.279844 
L 380.614433 238.712224 
L 400.029251 263.222652 
L 414.249293 287.733081 
L 420.720839 312.24351 
z
" clip-path="url(#pf2375dda22)" style="fill: #9dd93b"/>
    <path d="M 252.42742 312.24351 
L 293.35597 312.24351 
L 281.525101 287.733081 
L 252.42742 264.731286 
L 251.770309 263.222652 
L 242.208233 238.712224 
L 224.689096 214.201795 
L 209.858234 202.302548 
L 206.217662 189.691366 
L 201.984815 165.180938 
L 209.858234 151.692748 
L 221.874933 165.180938 
L 252.42742 186.008673 
L 256.184889 189.691366 
L 279.880097 214.201795 
L 294.996606 226.352981 
L 306.243215 238.712224 
L 328.696898 263.222652 
L 337.565793 272.023985 
L 348.604491 287.733081 
L 359.788083 312.24351 
L 380.134979 312.24351 
L 420.720839 312.24351 
L 414.249293 287.733081 
L 400.029251 263.222652 
L 380.614433 238.712224 
L 380.134979 238.279844 
L 360.119609 214.201795 
L 337.565793 190.842214 
L 336.619645 189.691366 
L 315.274601 165.180938 
L 294.996606 145.785246 
L 290.679543 140.670509 
L 269.39485 116.16008 
L 252.42742 100.300067 
L 245.32924 91.649651 
L 223.984953 67.139222 
L 209.858234 53.753477 
L 201.087367 42.628794 
L 179.869435 18.118365 
L 167.289048 18.118365 
L 124.719862 18.118365 
L 82.150676 18.118365 
L 39.58149 18.118365 
L -2.987696 18.118365 
L -33.382706 18.118365 
L -11.849042 42.628794 
L -2.987696 52.597248 
L 12.106561 67.139223 
L 34.175008 91.649651 
L 39.58149 98.213164 
L 59.054386 116.16008 
L 80.060917 140.670509 
L 82.150676 143.303309 
L 107.730229 165.180938 
L 124.719862 186.770189 
L 128.169083 189.691366 
L 156.970117 214.201795 
L 167.289048 227.693953 
L 179.799554 238.712224 
L 203.883825 263.222652 
L 209.858234 270.716503 
L 231.953857 287.733081 
L 250.200447 312.24351 
z
" clip-path="url(#pf2375dda22)" style="fill: #c5e021"/>
    <path d="M 294.996606 312.24351 
L 337.565793 312.24351 
L 359.788083 312.24351 
L 348.604491 287.733081 
L 337.565793 272.023985 
L 328.696898 263.222652 
L 306.243215 238.712224 
L 294.996606 226.352981 
L 279.880097 214.201795 
L 256.184889 189.691366 
L 252.42742 186.008673 
L 221.874933 165.180938 
L 209.858234 151.692748 
L 201.984815 165.180938 
L 206.217662 189.691366 
L 209.858234 202.302548 
L 224.689096 214.201795 
L 242.208233 238.712224 
L 251.770309 263.222652 
L 252.42742 264.731286 
L 281.525101 287.733081 
L 293.35597 312.24351 
z
" clip-path="url(#pf2375dda22)" style="fill: #ece51b"/>
   </g>
   <g id="PathCollection_1">
    <defs>
     <path id="me4990d4039" d="M -3 3 
L 3 -3 
M -3 -3 
L 3 3 
" style="stroke: #ff0000; stroke-width: 1.5"/>
    </defs>
    <g clip-path="url(#pf2375dda22)">
     <use xlink:href="#me4990d4039" x="337.565793" y="312.24351" style="fill: #ff0000; stroke: #ff0000; stroke-width: 1.5"/>
     <use xlink:href="#me4990d4039" x="294.996606" y="287.733081" style="fill: #ff0000; stroke: #ff0000; stroke-width: 1.5"/>
     <use xlink:href="#me4990d4039" x="294.996606" y="263.222652" style="fill: #ff0000; stroke: #ff0000; stroke-width: 1.5"/>
     <use xlink:href="#me4990d4039" x="252.42742" y="238.712224" style="fill: #ff0000; stroke: #ff0000; stroke-width: 1.5"/>
     <use xlink:href="#me4990d4039" x="252.42742" y="214.201795" style="fill: #ff0000; stroke: #ff0000; stroke-width: 1.5"/>
     <use xlink:href="#me4990d4039" x="209.858234" y="189.691366" style="fill: #ff0000; stroke: #ff0000; stroke-width: 1.5"/>
     <use xlink:href="#me4990d4039" x="209.858234" y="165.180938" style="fill: #ff0000; stroke: #ff0000; stroke-width: 1.5"/>
     <use xlink:href="#me4990d4039" x="209.858234" y="140.670509" style="fill: #ff0000; stroke: #ff0000; stroke-width: 1.5"/>
     <use xlink:href="#me4990d4039" x="167.289048" y="116.16008" style="fill: #ff0000; stroke: #ff0000; stroke-width: 1.5"/>
     <use xlink:href="#me4990d4039" x="124.719862" y="91.649651" style="fill: #ff0000; stroke: #ff0000; stroke-width: 1.5"/>
     <use xlink:href="#me4990d4039" x="124.719862" y="67.139223" style="fill: #ff0000; stroke: #ff0000; stroke-width: 1.5"/>
     <use xlink:href="#me4990d4039" x="82.150676" y="42.628794" style="fill: #ff0000; stroke: #ff0000; stroke-width: 1.5"/>
     <use xlink:href="#me4990d4039" x="82.150676" y="18.118365" style="fill: #ff0000; stroke: #ff0000; stroke-width: 1.5"/>
    </g>
   </g>
   <g id="matplotlib.axis_1">
    <g id="xtick_1">
     <g id="line2d_1">
      <defs>
       <path id="m45c8d54598" d="M 0 0 
L 0 3.5 
" style="stroke: #000000; stroke-width: 0.8"/>
      </defs>
      <g>
       <use xlink:href="#m45c8d54598" x="124.719862" y="312.24351" style="stroke: #000000; stroke-width: 0.8"/>
      </g>
     </g>
     <g id="text_1">
      <!-- $\mathdefault{10^{-2}}$ -->
      <g transform="translate(112.969862 326.841947) scale(0.1 -0.1)">
       <defs>
        <path id="DejaVuSans-31" d="M 794 531 
L 1825 531 
L 1825 4091 
L 703 3866 
L 703 4441 
L 1819 4666 
L 2450 4666 
L 2450 531 
L 3481 531 
L 3481 0 
L 794 0 
L 794 531 
z
" transform="scale(0.015625)"/>
        <path id="DejaVuSans-30" d="M 2034 4250 
Q 1547 4250 1301 3770 
Q 1056 3291 1056 2328 
Q 1056 1369 1301 889 
Q 1547 409 2034 409 
Q 2525 409 2770 889 
Q 3016 1369 3016 2328 
Q 3016 3291 2770 3770 
Q 2525 4250 2034 4250 
z
M 2034 4750 
Q 2819 4750 3233 4129 
Q 3647 3509 3647 2328 
Q 3647 1150 3233 529 
Q 2819 -91 2034 -91 
Q 1250 -91 836 529 
Q 422 1150 422 2328 
Q 422 3509 836 4129 
Q 1250 4750 2034 4750 
z
" transform="scale(0.015625)"/>
        <path id="DejaVuSans-2212" d="M 678 2272 
L 4684 2272 
L 4684 1741 
L 678 1741 
L 678 2272 
z
" transform="scale(0.015625)"/>
        <path id="DejaVuSans-32" d="M 1228 531 
L 3431 531 
L 3431 0 
L 469 0 
L 469 531 
Q 828 903 1448 1529 
Q 2069 2156 2228 2338 
Q 2531 2678 2651 2914 
Q 2772 3150 2772 3378 
Q 2772 3750 2511 3984 
Q 2250 4219 1831 4219 
Q 1534 4219 1204 4116 
Q 875 4013 500 3803 
L 500 4441 
Q 881 4594 1212 4672 
Q 1544 4750 1819 4750 
Q 2544 4750 2975 4387 
Q 3406 4025 3406 3419 
Q 3406 3131 3298 2873 
Q 3191 2616 2906 2266 
Q 2828 2175 2409 1742 
Q 1991 1309 1228 531 
z
" transform="scale(0.015625)"/>
       </defs>
       <use xlink:href="#DejaVuSans-31" transform="translate(0 0.765625)"/>
       <use xlink:href="#DejaVuSans-30" transform="translate(63.623047 0.765625)"/>
       <use xlink:href="#DejaVuSans-2212" transform="translate(128.203125 39.046875) scale(0.7)"/>
       <use xlink:href="#DejaVuSans-32" transform="translate(186.855469 39.046875) scale(0.7)"/>
      </g>
     </g>
    </g>
    <g id="xtick_2">
     <g id="line2d_2">
      <g>
       <use xlink:href="#m45c8d54598" x="294.996606" y="312.24351" style="stroke: #000000; stroke-width: 0.8"/>
      </g>
     </g>
     <g id="text_2">
      <!-- $\mathdefault{10^{-1}}$ -->
      <g transform="translate(283.246606 326.841947) scale(0.1 -0.1)">
       <use xlink:href="#DejaVuSans-31" transform="translate(0 0.684375)"/>
       <use xlink:href="#DejaVuSans-30" transform="translate(63.623047 0.684375)"/>
       <use xlink:href="#DejaVuSans-2212" transform="translate(128.203125 38.965625) scale(0.7)"/>
       <use xlink:href="#DejaVuSans-31" transform="translate(186.855469 38.965625) scale(0.7)"/>
      </g>
     </g>
    </g>
    <g id="xtick_3">
     <g id="line2d_3">
      <defs>
       <path id="m356ad8100f" d="M 0 0 
L 0 2 
" style="stroke: #000000; stroke-width: 0.6"/>
      </defs>
      <g>
       <use xlink:href="#m356ad8100f" x="56.959933" y="312.24351" style="stroke: #000000; stroke-width: 0.6"/>
      </g>
     </g>
    </g>
    <g id="xtick_4">
     <g id="line2d_4">
      <g>
       <use xlink:href="#m356ad8100f" x="73.461455" y="312.24351" style="stroke: #000000; stroke-width: 0.6"/>
      </g>
     </g>
    </g>
    <g id="xtick_5">
     <g id="line2d_5">
      <g>
       <use xlink:href="#m356ad8100f" x="86.944179" y="312.24351" style="stroke: #000000; stroke-width: 0.6"/>
      </g>
     </g>
    </g>
    <g id="xtick_6">
     <g id="line2d_6">
      <g>
       <use xlink:href="#m356ad8100f" x="98.343661" y="312.24351" style="stroke: #000000; stroke-width: 0.6"/>
      </g>
     </g>
    </g>
    <g id="xtick_7">
     <g id="line2d_7">
      <g>
       <use xlink:href="#m356ad8100f" x="108.218341" y="312.24351" style="stroke: #000000; stroke-width: 0.6"/>
      </g>
     </g>
    </g>
    <g id="xtick_8">
     <g id="line2d_8">
      <g>
       <use xlink:href="#m356ad8100f" x="116.928426" y="312.24351" style="stroke: #000000; stroke-width: 0.6"/>
      </g>
     </g>
    </g>
    <g id="xtick_9">
     <g id="line2d_9">
      <g>
       <use xlink:href="#m356ad8100f" x="175.97827" y="312.24351" style="stroke: #000000; stroke-width: 0.6"/>
      </g>
     </g>
    </g>
    <g id="xtick_10">
     <g id="line2d_10">
      <g>
       <use xlink:href="#m356ad8100f" x="205.962516" y="312.24351" style="stroke: #000000; stroke-width: 0.6"/>
      </g>
     </g>
    </g>
    <g id="xtick_11">
     <g id="line2d_11">
      <g>
       <use xlink:href="#m356ad8100f" x="227.236677" y="312.24351" style="stroke: #000000; stroke-width: 0.6"/>
      </g>
     </g>
    </g>
    <g id="xtick_12">
     <g id="line2d_12">
      <g>
       <use xlink:href="#m356ad8100f" x="243.738199" y="312.24351" style="stroke: #000000; stroke-width: 0.6"/>
      </g>
     </g>
    </g>
    <g id="xtick_13">
     <g id="line2d_13">
      <g>
       <use xlink:href="#m356ad8100f" x="257.220924" y="312.24351" style="stroke: #000000; stroke-width: 0.6"/>
      </g>
     </g>
    </g>
    <g id="xtick_14">
     <g id="line2d_14">
      <g>
       <use xlink:href="#m356ad8100f" x="268.620405" y="312.24351" style="stroke: #000000; stroke-width: 0.6"/>
      </g>
     </g>
    </g>
    <g id="xtick_15">
     <g id="line2d_15">
      <g>
       <use xlink:href="#m356ad8100f" x="278.495085" y="312.24351" style="stroke: #000000; stroke-width: 0.6"/>
      </g>
     </g>
    </g>
    <g id="xtick_16">
     <g id="line2d_16">
      <g>
       <use xlink:href="#m356ad8100f" x="287.20517" y="312.24351" style="stroke: #000000; stroke-width: 0.6"/>
      </g>
     </g>
    </g>
    <g id="xtick_17">
     <g id="line2d_17">
      <g>
       <use xlink:href="#m356ad8100f" x="346.255014" y="312.24351" style="stroke: #000000; stroke-width: 0.6"/>
      </g>
     </g>
    </g>
    <g id="xtick_18">
     <g id="line2d_18">
      <g>
       <use xlink:href="#m356ad8100f" x="376.23926" y="312.24351" style="stroke: #000000; stroke-width: 0.6"/>
      </g>
     </g>
    </g>
    <g id="text_3">
     <!-- bandwidth -->
     <g transform="translate(183.495734 340.520072) scale(0.1 -0.1)">
      <defs>
       <path id="DejaVuSans-62" d="M 3116 1747 
Q 3116 2381 2855 2742 
Q 2594 3103 2138 3103 
Q 1681 3103 1420 2742 
Q 1159 2381 1159 1747 
Q 1159 1113 1420 752 
Q 1681 391 2138 391 
Q 2594 391 2855 752 
Q 3116 1113 3116 1747 
z
M 1159 2969 
Q 1341 3281 1617 3432 
Q 1894 3584 2278 3584 
Q 2916 3584 3314 3078 
Q 3713 2572 3713 1747 
Q 3713 922 3314 415 
Q 2916 -91 2278 -91 
Q 1894 -91 1617 61 
Q 1341 213 1159 525 
L 1159 0 
L 581 0 
L 581 4863 
L 1159 4863 
L 1159 2969 
z
" transform="scale(0.015625)"/>
       <path id="DejaVuSans-61" d="M 2194 1759 
Q 1497 1759 1228 1600 
Q 959 1441 959 1056 
Q 959 750 1161 570 
Q 1363 391 1709 391 
Q 2188 391 2477 730 
Q 2766 1069 2766 1631 
L 2766 1759 
L 2194 1759 
z
M 3341 1997 
L 3341 0 
L 2766 0 
L 2766 531 
Q 2569 213 2275 61 
Q 1981 -91 1556 -91 
Q 1019 -91 701 211 
Q 384 513 384 1019 
Q 384 1609 779 1909 
Q 1175 2209 1959 2209 
L 2766 2209 
L 2766 2266 
Q 2766 2663 2505 2880 
Q 2244 3097 1772 3097 
Q 1472 3097 1187 3025 
Q 903 2953 641 2809 
L 641 3341 
Q 956 3463 1253 3523 
Q 1550 3584 1831 3584 
Q 2591 3584 2966 3190 
Q 3341 2797 3341 1997 
z
" transform="scale(0.015625)"/>
       <path id="DejaVuSans-6e" d="M 3513 2113 
L 3513 0 
L 2938 0 
L 2938 2094 
Q 2938 2591 2744 2837 
Q 2550 3084 2163 3084 
Q 1697 3084 1428 2787 
Q 1159 2491 1159 1978 
L 1159 0 
L 581 0 
L 581 3500 
L 1159 3500 
L 1159 2956 
Q 1366 3272 1645 3428 
Q 1925 3584 2291 3584 
Q 2894 3584 3203 3211 
Q 3513 2838 3513 2113 
z
" transform="scale(0.015625)"/>
       <path id="DejaVuSans-64" d="M 2906 2969 
L 2906 4863 
L 3481 4863 
L 3481 0 
L 2906 0 
L 2906 525 
Q 2725 213 2448 61 
Q 2172 -91 1784 -91 
Q 1150 -91 751 415 
Q 353 922 353 1747 
Q 353 2572 751 3078 
Q 1150 3584 1784 3584 
Q 2172 3584 2448 3432 
Q 2725 3281 2906 2969 
z
M 947 1747 
Q 947 1113 1208 752 
Q 1469 391 1925 391 
Q 2381 391 2643 752 
Q 2906 1113 2906 1747 
Q 2906 2381 2643 2742 
Q 2381 3103 1925 3103 
Q 1469 3103 1208 2742 
Q 947 2381 947 1747 
z
" transform="scale(0.015625)"/>
       <path id="DejaVuSans-77" d="M 269 3500 
L 844 3500 
L 1563 769 
L 2278 3500 
L 2956 3500 
L 3675 769 
L 4391 3500 
L 4966 3500 
L 4050 0 
L 3372 0 
L 2619 2869 
L 1863 0 
L 1184 0 
L 269 3500 
z
" transform="scale(0.015625)"/>
       <path id="DejaVuSans-69" d="M 603 3500 
L 1178 3500 
L 1178 0 
L 603 0 
L 603 3500 
z
M 603 4863 
L 1178 4863 
L 1178 4134 
L 603 4134 
L 603 4863 
z
" transform="scale(0.015625)"/>
       <path id="DejaVuSans-74" d="M 1172 4494 
L 1172 3500 
L 2356 3500 
L 2356 3053 
L 1172 3053 
L 1172 1153 
Q 1172 725 1289 603 
Q 1406 481 1766 481 
L 2356 481 
L 2356 0 
L 1766 0 
Q 1100 0 847 248 
Q 594 497 594 1153 
L 594 3053 
L 172 3053 
L 172 3500 
L 594 3500 
L 594 4494 
L 1172 4494 
z
" transform="scale(0.015625)"/>
       <path id="DejaVuSans-68" d="M 3513 2113 
L 3513 0 
L 2938 0 
L 2938 2094 
Q 2938 2591 2744 2837 
Q 2550 3084 2163 3084 
Q 1697 3084 1428 2787 
Q 1159 2491 1159 1978 
L 1159 0 
L 581 0 
L 581 4863 
L 1159 4863 
L 1159 2956 
Q 1366 3272 1645 3428 
Q 1925 3584 2291 3584 
Q 2894 3584 3203 3211 
Q 3513 2838 3513 2113 
z
" transform="scale(0.015625)"/>
      </defs>
      <use xlink:href="#DejaVuSans-62"/>
      <use xlink:href="#DejaVuSans-61" transform="translate(63.476562 0)"/>
      <use xlink:href="#DejaVuSans-6e" transform="translate(124.755859 0)"/>
      <use xlink:href="#DejaVuSans-64" transform="translate(188.134766 0)"/>
      <use xlink:href="#DejaVuSans-77" transform="translate(251.611328 0)"/>
      <use xlink:href="#DejaVuSans-69" transform="translate(333.398438 0)"/>
      <use xlink:href="#DejaVuSans-64" transform="translate(361.181641 0)"/>
      <use xlink:href="#DejaVuSans-74" transform="translate(424.658203 0)"/>
      <use xlink:href="#DejaVuSans-68" transform="translate(463.867188 0)"/>
     </g>
    </g>
   </g>
   <g id="matplotlib.axis_2">
    <g id="ytick_1">
     <g id="line2d_19">
      <defs>
       <path id="m537fef2d6c" d="M 0 0 
L -3.5 0 
" style="stroke: #000000; stroke-width: 0.8"/>
      </defs>
      <g>
       <use xlink:href="#m537fef2d6c" x="39.58149" y="312.24351" style="stroke: #000000; stroke-width: 0.8"/>
      </g>
     </g>
     <g id="text_4">
      <!-- 1.0 -->
      <g transform="translate(16.678365 316.042729) scale(0.1 -0.1)">
       <defs>
        <path id="DejaVuSans-2e" d="M 684 794 
L 1344 794 
L 1344 0 
L 684 0 
L 684 794 
z
" transform="scale(0.015625)"/>
       </defs>
       <use xlink:href="#DejaVuSans-31"/>
       <use xlink:href="#DejaVuSans-2e" transform="translate(63.623047 0)"/>
       <use xlink:href="#DejaVuSans-30" transform="translate(95.410156 0)"/>
      </g>
     </g>
    </g>
    <g id="ytick_2">
     <g id="line2d_20">
      <g>
       <use xlink:href="#m537fef2d6c" x="39.58149" y="263.222652" style="stroke: #000000; stroke-width: 0.8"/>
      </g>
     </g>
     <g id="text_5">
      <!-- 1.5 -->
      <g transform="translate(16.678365 267.021871) scale(0.1 -0.1)">
       <defs>
        <path id="DejaVuSans-35" d="M 691 4666 
L 3169 4666 
L 3169 4134 
L 1269 4134 
L 1269 2991 
Q 1406 3038 1543 3061 
Q 1681 3084 1819 3084 
Q 2600 3084 3056 2656 
Q 3513 2228 3513 1497 
Q 3513 744 3044 326 
Q 2575 -91 1722 -91 
Q 1428 -91 1123 -41 
Q 819 9 494 109 
L 494 744 
Q 775 591 1075 516 
Q 1375 441 1709 441 
Q 2250 441 2565 725 
Q 2881 1009 2881 1497 
Q 2881 1984 2565 2268 
Q 2250 2553 1709 2553 
Q 1456 2553 1204 2497 
Q 953 2441 691 2322 
L 691 4666 
z
" transform="scale(0.015625)"/>
       </defs>
       <use xlink:href="#DejaVuSans-31"/>
       <use xlink:href="#DejaVuSans-2e" transform="translate(63.623047 0)"/>
       <use xlink:href="#DejaVuSans-35" transform="translate(95.410156 0)"/>
      </g>
     </g>
    </g>
    <g id="ytick_3">
     <g id="line2d_21">
      <g>
       <use xlink:href="#m537fef2d6c" x="39.58149" y="214.201795" style="stroke: #000000; stroke-width: 0.8"/>
      </g>
     </g>
     <g id="text_6">
      <!-- 2.0 -->
      <g transform="translate(16.678365 218.001014) scale(0.1 -0.1)">
       <use xlink:href="#DejaVuSans-32"/>
       <use xlink:href="#DejaVuSans-2e" transform="translate(63.623047 0)"/>
       <use xlink:href="#DejaVuSans-30" transform="translate(95.410156 0)"/>
      </g>
     </g>
    </g>
    <g id="ytick_4">
     <g id="line2d_22">
      <g>
       <use xlink:href="#m537fef2d6c" x="39.58149" y="165.180938" style="stroke: #000000; stroke-width: 0.8"/>
      </g>
     </g>
     <g id="text_7">
      <!-- 2.5 -->
      <g transform="translate(16.678365 168.980156) scale(0.1 -0.1)">
       <use xlink:href="#DejaVuSans-32"/>
       <use xlink:href="#DejaVuSans-2e" transform="translate(63.623047 0)"/>
       <use xlink:href="#DejaVuSans-35" transform="translate(95.410156 0)"/>
      </g>
     </g>
    </g>
    <g id="ytick_5">
     <g id="line2d_23">
      <g>
       <use xlink:href="#m537fef2d6c" x="39.58149" y="116.16008" style="stroke: #000000; stroke-width: 0.8"/>
      </g>
     </g>
     <g id="text_8">
      <!-- 3.0 -->
      <g transform="translate(16.678365 119.959299) scale(0.1 -0.1)">
       <defs>
        <path id="DejaVuSans-33" d="M 2597 2516 
Q 3050 2419 3304 2112 
Q 3559 1806 3559 1356 
Q 3559 666 3084 287 
Q 2609 -91 1734 -91 
Q 1441 -91 1130 -33 
Q 819 25 488 141 
L 488 750 
Q 750 597 1062 519 
Q 1375 441 1716 441 
Q 2309 441 2620 675 
Q 2931 909 2931 1356 
Q 2931 1769 2642 2001 
Q 2353 2234 1838 2234 
L 1294 2234 
L 1294 2753 
L 1863 2753 
Q 2328 2753 2575 2939 
Q 2822 3125 2822 3475 
Q 2822 3834 2567 4026 
Q 2313 4219 1838 4219 
Q 1578 4219 1281 4162 
Q 984 4106 628 3988 
L 628 4550 
Q 988 4650 1302 4700 
Q 1616 4750 1894 4750 
Q 2613 4750 3031 4423 
Q 3450 4097 3450 3541 
Q 3450 3153 3228 2886 
Q 3006 2619 2597 2516 
z
" transform="scale(0.015625)"/>
       </defs>
       <use xlink:href="#DejaVuSans-33"/>
       <use xlink:href="#DejaVuSans-2e" transform="translate(63.623047 0)"/>
       <use xlink:href="#DejaVuSans-30" transform="translate(95.410156 0)"/>
      </g>
     </g>
    </g>
    <g id="ytick_6">
     <g id="line2d_24">
      <g>
       <use xlink:href="#m537fef2d6c" x="39.58149" y="67.139223" style="stroke: #000000; stroke-width: 0.8"/>
      </g>
     </g>
     <g id="text_9">
      <!-- 3.5 -->
      <g transform="translate(16.678365 70.938441) scale(0.1 -0.1)">
       <use xlink:href="#DejaVuSans-33"/>
       <use xlink:href="#DejaVuSans-2e" transform="translate(63.623047 0)"/>
       <use xlink:href="#DejaVuSans-35" transform="translate(95.410156 0)"/>
      </g>
     </g>
    </g>
    <g id="ytick_7">
     <g id="line2d_25">
      <g>
       <use xlink:href="#m537fef2d6c" x="39.58149" y="18.118365" style="stroke: #000000; stroke-width: 0.8"/>
      </g>
     </g>
     <g id="text_10">
      <!-- 4.0 -->
      <g transform="translate(16.678365 21.917584) scale(0.1 -0.1)">
       <defs>
        <path id="DejaVuSans-34" d="M 2419 4116 
L 825 1625 
L 2419 1625 
L 2419 4116 
z
M 2253 4666 
L 3047 4666 
L 3047 1625 
L 3713 1625 
L 3713 1100 
L 3047 1100 
L 3047 0 
L 2419 0 
L 2419 1100 
L 313 1100 
L 313 1709 
L 2253 4666 
z
" transform="scale(0.015625)"/>
       </defs>
       <use xlink:href="#DejaVuSans-34"/>
       <use xlink:href="#DejaVuSans-2e" transform="translate(63.623047 0)"/>
       <use xlink:href="#DejaVuSans-30" transform="translate(95.410156 0)"/>
      </g>
     </g>
    </g>
    <g id="text_11">
     <!-- alpha -->
     <g transform="translate(10.598677 179.041094) rotate(-90) scale(0.1 -0.1)">
      <defs>
       <path id="DejaVuSans-6c" d="M 603 4863 
L 1178 4863 
L 1178 0 
L 603 0 
L 603 4863 
z
" transform="scale(0.015625)"/>
       <path id="DejaVuSans-70" d="M 1159 525 
L 1159 -1331 
L 581 -1331 
L 581 3500 
L 1159 3500 
L 1159 2969 
Q 1341 3281 1617 3432 
Q 1894 3584 2278 3584 
Q 2916 3584 3314 3078 
Q 3713 2572 3713 1747 
Q 3713 922 3314 415 
Q 2916 -91 2278 -91 
Q 1894 -91 1617 61 
Q 1341 213 1159 525 
z
M 3116 1747 
Q 3116 2381 2855 2742 
Q 2594 3103 2138 3103 
Q 1681 3103 1420 2742 
Q 1159 2381 1159 1747 
Q 1159 1113 1420 752 
Q 1681 391 2138 391 
Q 2594 391 2855 752 
Q 3116 1113 3116 1747 
z
" transform="scale(0.015625)"/>
      </defs>
      <use xlink:href="#DejaVuSans-61"/>
      <use xlink:href="#DejaVuSans-6c" transform="translate(61.279297 0)"/>
      <use xlink:href="#DejaVuSans-70" transform="translate(89.0625 0)"/>
      <use xlink:href="#DejaVuSans-68" transform="translate(152.539062 0)"/>
      <use xlink:href="#DejaVuSans-61" transform="translate(215.917969 0)"/>
     </g>
    </g>
   </g>
   <g id="patch_3">
    <path d="M 39.58149 312.24351 
L 39.58149 18.118365 
" style="fill: none; stroke: #000000; stroke-width: 0.8; stroke-linejoin: miter; stroke-linecap: square"/>
   </g>
   <g id="patch_4">
    <path d="M 380.134979 312.24351 
L 380.134979 18.118365 
" style="fill: none; stroke: #000000; stroke-width: 0.8; stroke-linejoin: miter; stroke-linecap: square"/>
   </g>
   <g id="patch_5">
    <path d="M 39.58149 312.24351 
L 380.134979 312.24351 
" style="fill: none; stroke: #000000; stroke-width: 0.8; stroke-linejoin: miter; stroke-linecap: square"/>
   </g>
   <g id="patch_6">
    <path d="M 39.58149 18.118365 
L 380.134979 18.118365 
" style="fill: none; stroke: #000000; stroke-width: 0.8; stroke-linejoin: miter; stroke-linecap: square"/>
   </g>
   <g id="text_12">
    <!-- lunas_lo 8527 fkdc -->
    <g transform="translate(153.667297 12.118365) scale(0.12 -0.12)">
     <defs>
      <path id="DejaVuSans-75" d="M 544 1381 
L 544 3500 
L 1119 3500 
L 1119 1403 
Q 1119 906 1312 657 
Q 1506 409 1894 409 
Q 2359 409 2629 706 
Q 2900 1003 2900 1516 
L 2900 3500 
L 3475 3500 
L 3475 0 
L 2900 0 
L 2900 538 
Q 2691 219 2414 64 
Q 2138 -91 1772 -91 
Q 1169 -91 856 284 
Q 544 659 544 1381 
z
M 1991 3584 
L 1991 3584 
z
" transform="scale(0.015625)"/>
      <path id="DejaVuSans-73" d="M 2834 3397 
L 2834 2853 
Q 2591 2978 2328 3040 
Q 2066 3103 1784 3103 
Q 1356 3103 1142 2972 
Q 928 2841 928 2578 
Q 928 2378 1081 2264 
Q 1234 2150 1697 2047 
L 1894 2003 
Q 2506 1872 2764 1633 
Q 3022 1394 3022 966 
Q 3022 478 2636 193 
Q 2250 -91 1575 -91 
Q 1294 -91 989 -36 
Q 684 19 347 128 
L 347 722 
Q 666 556 975 473 
Q 1284 391 1588 391 
Q 1994 391 2212 530 
Q 2431 669 2431 922 
Q 2431 1156 2273 1281 
Q 2116 1406 1581 1522 
L 1381 1569 
Q 847 1681 609 1914 
Q 372 2147 372 2553 
Q 372 3047 722 3315 
Q 1072 3584 1716 3584 
Q 2034 3584 2315 3537 
Q 2597 3491 2834 3397 
z
" transform="scale(0.015625)"/>
      <path id="DejaVuSans-5f" d="M 3263 -1063 
L 3263 -1509 
L -63 -1509 
L -63 -1063 
L 3263 -1063 
z
" transform="scale(0.015625)"/>
      <path id="DejaVuSans-6f" d="M 1959 3097 
Q 1497 3097 1228 2736 
Q 959 2375 959 1747 
Q 959 1119 1226 758 
Q 1494 397 1959 397 
Q 2419 397 2687 759 
Q 2956 1122 2956 1747 
Q 2956 2369 2687 2733 
Q 2419 3097 1959 3097 
z
M 1959 3584 
Q 2709 3584 3137 3096 
Q 3566 2609 3566 1747 
Q 3566 888 3137 398 
Q 2709 -91 1959 -91 
Q 1206 -91 779 398 
Q 353 888 353 1747 
Q 353 2609 779 3096 
Q 1206 3584 1959 3584 
z
" transform="scale(0.015625)"/>
      <path id="DejaVuSans-20" transform="scale(0.015625)"/>
      <path id="DejaVuSans-38" d="M 2034 2216 
Q 1584 2216 1326 1975 
Q 1069 1734 1069 1313 
Q 1069 891 1326 650 
Q 1584 409 2034 409 
Q 2484 409 2743 651 
Q 3003 894 3003 1313 
Q 3003 1734 2745 1975 
Q 2488 2216 2034 2216 
z
M 1403 2484 
Q 997 2584 770 2862 
Q 544 3141 544 3541 
Q 544 4100 942 4425 
Q 1341 4750 2034 4750 
Q 2731 4750 3128 4425 
Q 3525 4100 3525 3541 
Q 3525 3141 3298 2862 
Q 3072 2584 2669 2484 
Q 3125 2378 3379 2068 
Q 3634 1759 3634 1313 
Q 3634 634 3220 271 
Q 2806 -91 2034 -91 
Q 1263 -91 848 271 
Q 434 634 434 1313 
Q 434 1759 690 2068 
Q 947 2378 1403 2484 
z
M 1172 3481 
Q 1172 3119 1398 2916 
Q 1625 2713 2034 2713 
Q 2441 2713 2670 2916 
Q 2900 3119 2900 3481 
Q 2900 3844 2670 4047 
Q 2441 4250 2034 4250 
Q 1625 4250 1398 4047 
Q 1172 3844 1172 3481 
z
" transform="scale(0.015625)"/>
      <path id="DejaVuSans-37" d="M 525 4666 
L 3525 4666 
L 3525 4397 
L 1831 0 
L 1172 0 
L 2766 4134 
L 525 4134 
L 525 4666 
z
" transform="scale(0.015625)"/>
      <path id="DejaVuSans-66" d="M 2375 4863 
L 2375 4384 
L 1825 4384 
Q 1516 4384 1395 4259 
Q 1275 4134 1275 3809 
L 1275 3500 
L 2222 3500 
L 2222 3053 
L 1275 3053 
L 1275 0 
L 697 0 
L 697 3053 
L 147 3053 
L 147 3500 
L 697 3500 
L 697 3744 
Q 697 4328 969 4595 
Q 1241 4863 1831 4863 
L 2375 4863 
z
" transform="scale(0.015625)"/>
      <path id="DejaVuSans-6b" d="M 581 4863 
L 1159 4863 
L 1159 1991 
L 2875 3500 
L 3609 3500 
L 1753 1863 
L 3688 0 
L 2938 0 
L 1159 1709 
L 1159 0 
L 581 0 
L 581 4863 
z
" transform="scale(0.015625)"/>
      <path id="DejaVuSans-63" d="M 3122 3366 
L 3122 2828 
Q 2878 2963 2633 3030 
Q 2388 3097 2138 3097 
Q 1578 3097 1268 2742 
Q 959 2388 959 1747 
Q 959 1106 1268 751 
Q 1578 397 2138 397 
Q 2388 397 2633 464 
Q 2878 531 3122 666 
L 3122 134 
Q 2881 22 2623 -34 
Q 2366 -91 2075 -91 
Q 1284 -91 818 406 
Q 353 903 353 1747 
Q 353 2603 823 3093 
Q 1294 3584 2113 3584 
Q 2378 3584 2631 3529 
Q 2884 3475 3122 3366 
z
" transform="scale(0.015625)"/>
     </defs>
     <use xlink:href="#DejaVuSans-6c"/>
     <use xlink:href="#DejaVuSans-75" transform="translate(27.783203 0)"/>
     <use xlink:href="#DejaVuSans-6e" transform="translate(91.162109 0)"/>
     <use xlink:href="#DejaVuSans-61" transform="translate(154.541016 0)"/>
     <use xlink:href="#DejaVuSans-73" transform="translate(215.820312 0)"/>
     <use xlink:href="#DejaVuSans-5f" transform="translate(267.919922 0)"/>
     <use xlink:href="#DejaVuSans-6c" transform="translate(317.919922 0)"/>
     <use xlink:href="#DejaVuSans-6f" transform="translate(345.703125 0)"/>
     <use xlink:href="#DejaVuSans-20" transform="translate(406.884766 0)"/>
     <use xlink:href="#DejaVuSans-38" transform="translate(438.671875 0)"/>
     <use xlink:href="#DejaVuSans-35" transform="translate(502.294922 0)"/>
     <use xlink:href="#DejaVuSans-32" transform="translate(565.917969 0)"/>
     <use xlink:href="#DejaVuSans-37" transform="translate(629.541016 0)"/>
     <use xlink:href="#DejaVuSans-20" transform="translate(693.164062 0)"/>
     <use xlink:href="#DejaVuSans-66" transform="translate(724.951172 0)"/>
     <use xlink:href="#DejaVuSans-6b" transform="translate(760.15625 0)"/>
     <use xlink:href="#DejaVuSans-64" transform="translate(818.066406 0)"/>
     <use xlink:href="#DejaVuSans-63" transform="translate(881.542969 0)"/>
    </g>
   </g>
  </g>
  <g id="axes_2">
   <g id="patch_7">
    <path d="M 397.162653 312.24351 
L 411.86891 312.24351 
L 411.86891 18.118365 
L 397.162653 18.118365 
z
" style="fill: #ffffff"/>
   </g>
   <g id="QuadMesh_1">
    <path d="M 397.162653 312.24351 
L 411.86891 312.24351 
L 411.86891 294.942031 
L 397.162653 294.942031 
L 397.162653 312.24351 
" clip-path="url(#p4bc660b2bf)" style="fill: #460b5e"/>
    <path d="M 397.162653 294.942031 
L 411.86891 294.942031 
L 411.86891 277.640552 
L 397.162653 277.640552 
L 397.162653 294.942031 
" clip-path="url(#p4bc660b2bf)" style="fill: #482071"/>
    <path d="M 397.162653 277.640552 
L 411.86891 277.640552 
L 411.86891 260.339073 
L 397.162653 260.339073 
L 397.162653 277.640552 
" clip-path="url(#p4bc660b2bf)" style="fill: #46337f"/>
    <path d="M 397.162653 260.339073 
L 411.86891 260.339073 
L 411.86891 243.037594 
L 397.162653 243.037594 
L 397.162653 260.339073 
" clip-path="url(#p4bc660b2bf)" style="fill: #404588"/>
    <path d="M 397.162653 243.037594 
L 411.86891 243.037594 
L 411.86891 225.736114 
L 397.162653 225.736114 
L 397.162653 243.037594 
" clip-path="url(#p4bc660b2bf)" style="fill: #39558c"/>
    <path d="M 397.162653 225.736114 
L 411.86891 225.736114 
L 411.86891 208.434635 
L 397.162653 208.434635 
L 397.162653 225.736114 
" clip-path="url(#p4bc660b2bf)" style="fill: #32658e"/>
    <path d="M 397.162653 208.434635 
L 411.86891 208.434635 
L 411.86891 191.133156 
L 397.162653 191.133156 
L 397.162653 208.434635 
" clip-path="url(#p4bc660b2bf)" style="fill: #2c738e"/>
    <path d="M 397.162653 191.133156 
L 411.86891 191.133156 
L 411.86891 173.831677 
L 397.162653 173.831677 
L 397.162653 191.133156 
" clip-path="url(#p4bc660b2bf)" style="fill: #26828e"/>
    <path d="M 397.162653 173.831677 
L 411.86891 173.831677 
L 411.86891 156.530198 
L 397.162653 156.530198 
L 397.162653 173.831677 
" clip-path="url(#p4bc660b2bf)" style="fill: #21918c"/>
    <path d="M 397.162653 156.530198 
L 411.86891 156.530198 
L 411.86891 139.228719 
L 397.162653 139.228719 
L 397.162653 156.530198 
" clip-path="url(#p4bc660b2bf)" style="fill: #1f9f88"/>
    <path d="M 397.162653 139.228719 
L 411.86891 139.228719 
L 411.86891 121.92724 
L 397.162653 121.92724 
L 397.162653 139.228719 
" clip-path="url(#p4bc660b2bf)" style="fill: #26ad81"/>
    <path d="M 397.162653 121.92724 
L 411.86891 121.92724 
L 411.86891 104.625761 
L 397.162653 104.625761 
L 397.162653 121.92724 
" clip-path="url(#p4bc660b2bf)" style="fill: #3aba76"/>
    <path d="M 397.162653 104.625761 
L 411.86891 104.625761 
L 411.86891 87.324281 
L 397.162653 87.324281 
L 397.162653 104.625761 
" clip-path="url(#p4bc660b2bf)" style="fill: #56c667"/>
    <path d="M 397.162653 87.324281 
L 411.86891 87.324281 
L 411.86891 70.022802 
L 397.162653 70.022802 
L 397.162653 87.324281 
" clip-path="url(#p4bc660b2bf)" style="fill: #77d153"/>
    <path d="M 397.162653 70.022802 
L 411.86891 70.022802 
L 411.86891 52.721323 
L 397.162653 52.721323 
L 397.162653 70.022802 
" clip-path="url(#p4bc660b2bf)" style="fill: #9dd93b"/>
    <path d="M 397.162653 52.721323 
L 411.86891 52.721323 
L 411.86891 35.419844 
L 397.162653 35.419844 
L 397.162653 52.721323 
" clip-path="url(#p4bc660b2bf)" style="fill: #c5e021"/>
    <path d="M 397.162653 35.419844 
L 411.86891 35.419844 
L 411.86891 18.118365 
L 397.162653 18.118365 
L 397.162653 35.419844 
" clip-path="url(#p4bc660b2bf)" style="fill: #ece51b"/>
   </g>
   <g id="matplotlib.axis_3"/>
   <g id="matplotlib.axis_4">
    <g id="ytick_8">
     <g id="line2d_26">
      <defs>
       <path id="mee54a5bc52" d="M 0 0 
L 3.5 0 
" style="stroke: #000000; stroke-width: 0.8"/>
      </defs>
      <g>
       <use xlink:href="#mee54a5bc52" x="411.86891" y="294.942031" style="stroke: #000000; stroke-width: 0.8"/>
      </g>
     </g>
     <g id="text_13">
      <!-- 2.4 -->
      <g transform="translate(418.86891 298.74125) scale(0.1 -0.1)">
       <use xlink:href="#DejaVuSans-2212"/>
       <use xlink:href="#DejaVuSans-32" transform="translate(83.789062 0)"/>
       <use xlink:href="#DejaVuSans-2e" transform="translate(147.412109 0)"/>
       <use xlink:href="#DejaVuSans-34" transform="translate(179.199219 0)"/>
      </g>
     </g>
    </g>
    <g id="ytick_9">
     <g id="line2d_27">
      <g>
       <use xlink:href="#mee54a5bc52" x="411.86891" y="260.339073" style="stroke: #000000; stroke-width: 0.8"/>
      </g>
     </g>
     <g id="text_14">
      <!-- 2.1 -->
      <g transform="translate(418.86891 264.138291) scale(0.1 -0.1)">
       <use xlink:href="#DejaVuSans-2212"/>
       <use xlink:href="#DejaVuSans-32" transform="translate(83.789062 0)"/>
       <use xlink:href="#DejaVuSans-2e" transform="translate(147.412109 0)"/>
       <use xlink:href="#DejaVuSans-31" transform="translate(179.199219 0)"/>
      </g>
     </g>
    </g>
    <g id="ytick_10">
     <g id="line2d_28">
      <g>
       <use xlink:href="#mee54a5bc52" x="411.86891" y="225.736114" style="stroke: #000000; stroke-width: 0.8"/>
      </g>
     </g>
     <g id="text_15">
      <!-- 1.8 -->
      <g transform="translate(418.86891 229.535333) scale(0.1 -0.1)">
       <use xlink:href="#DejaVuSans-2212"/>
       <use xlink:href="#DejaVuSans-31" transform="translate(83.789062 0)"/>
       <use xlink:href="#DejaVuSans-2e" transform="translate(147.412109 0)"/>
       <use xlink:href="#DejaVuSans-38" transform="translate(179.199219 0)"/>
      </g>
     </g>
    </g>
    <g id="ytick_11">
     <g id="line2d_29">
      <g>
       <use xlink:href="#mee54a5bc52" x="411.86891" y="191.133156" style="stroke: #000000; stroke-width: 0.8"/>
      </g>
     </g>
     <g id="text_16">
      <!-- 1.5 -->
      <g transform="translate(418.86891 194.932375) scale(0.1 -0.1)">
       <use xlink:href="#DejaVuSans-2212"/>
       <use xlink:href="#DejaVuSans-31" transform="translate(83.789062 0)"/>
       <use xlink:href="#DejaVuSans-2e" transform="translate(147.412109 0)"/>
       <use xlink:href="#DejaVuSans-35" transform="translate(179.199219 0)"/>
      </g>
     </g>
    </g>
    <g id="ytick_12">
     <g id="line2d_30">
      <g>
       <use xlink:href="#mee54a5bc52" x="411.86891" y="156.530198" style="stroke: #000000; stroke-width: 0.8"/>
      </g>
     </g>
     <g id="text_17">
      <!-- 1.2 -->
      <g transform="translate(418.86891 160.329417) scale(0.1 -0.1)">
       <use xlink:href="#DejaVuSans-2212"/>
       <use xlink:href="#DejaVuSans-31" transform="translate(83.789062 0)"/>
       <use xlink:href="#DejaVuSans-2e" transform="translate(147.412109 0)"/>
       <use xlink:href="#DejaVuSans-32" transform="translate(179.199219 0)"/>
      </g>
     </g>
    </g>
    <g id="ytick_13">
     <g id="line2d_31">
      <g>
       <use xlink:href="#mee54a5bc52" x="411.86891" y="121.92724" style="stroke: #000000; stroke-width: 0.8"/>
      </g>
     </g>
     <g id="text_18">
      <!-- 0.9 -->
      <g transform="translate(418.86891 125.726458) scale(0.1 -0.1)">
       <defs>
        <path id="DejaVuSans-39" d="M 703 97 
L 703 672 
Q 941 559 1184 500 
Q 1428 441 1663 441 
Q 2288 441 2617 861 
Q 2947 1281 2994 2138 
Q 2813 1869 2534 1725 
Q 2256 1581 1919 1581 
Q 1219 1581 811 2004 
Q 403 2428 403 3163 
Q 403 3881 828 4315 
Q 1253 4750 1959 4750 
Q 2769 4750 3195 4129 
Q 3622 3509 3622 2328 
Q 3622 1225 3098 567 
Q 2575 -91 1691 -91 
Q 1453 -91 1209 -44 
Q 966 3 703 97 
z
M 1959 2075 
Q 2384 2075 2632 2365 
Q 2881 2656 2881 3163 
Q 2881 3666 2632 3958 
Q 2384 4250 1959 4250 
Q 1534 4250 1286 3958 
Q 1038 3666 1038 3163 
Q 1038 2656 1286 2365 
Q 1534 2075 1959 2075 
z
" transform="scale(0.015625)"/>
       </defs>
       <use xlink:href="#DejaVuSans-2212"/>
       <use xlink:href="#DejaVuSans-30" transform="translate(83.789062 0)"/>
       <use xlink:href="#DejaVuSans-2e" transform="translate(147.412109 0)"/>
       <use xlink:href="#DejaVuSans-39" transform="translate(179.199219 0)"/>
      </g>
     </g>
    </g>
    <g id="ytick_14">
     <g id="line2d_32">
      <g>
       <use xlink:href="#mee54a5bc52" x="411.86891" y="87.324281" style="stroke: #000000; stroke-width: 0.8"/>
      </g>
     </g>
     <g id="text_19">
      <!-- 0.6 -->
      <g transform="translate(418.86891 91.1235) scale(0.1 -0.1)">
       <defs>
        <path id="DejaVuSans-36" d="M 2113 2584 
Q 1688 2584 1439 2293 
Q 1191 2003 1191 1497 
Q 1191 994 1439 701 
Q 1688 409 2113 409 
Q 2538 409 2786 701 
Q 3034 994 3034 1497 
Q 3034 2003 2786 2293 
Q 2538 2584 2113 2584 
z
M 3366 4563 
L 3366 3988 
Q 3128 4100 2886 4159 
Q 2644 4219 2406 4219 
Q 1781 4219 1451 3797 
Q 1122 3375 1075 2522 
Q 1259 2794 1537 2939 
Q 1816 3084 2150 3084 
Q 2853 3084 3261 2657 
Q 3669 2231 3669 1497 
Q 3669 778 3244 343 
Q 2819 -91 2113 -91 
Q 1303 -91 875 529 
Q 447 1150 447 2328 
Q 447 3434 972 4092 
Q 1497 4750 2381 4750 
Q 2619 4750 2861 4703 
Q 3103 4656 3366 4563 
z
" transform="scale(0.015625)"/>
       </defs>
       <use xlink:href="#DejaVuSans-2212"/>
       <use xlink:href="#DejaVuSans-30" transform="translate(83.789062 0)"/>
       <use xlink:href="#DejaVuSans-2e" transform="translate(147.412109 0)"/>
       <use xlink:href="#DejaVuSans-36" transform="translate(179.199219 0)"/>
      </g>
     </g>
    </g>
    <g id="ytick_15">
     <g id="line2d_33">
      <g>
       <use xlink:href="#mee54a5bc52" x="411.86891" y="52.721323" style="stroke: #000000; stroke-width: 0.8"/>
      </g>
     </g>
     <g id="text_20">
      <!-- 0.3 -->
      <g transform="translate(418.86891 56.520542) scale(0.1 -0.1)">
       <use xlink:href="#DejaVuSans-2212"/>
       <use xlink:href="#DejaVuSans-30" transform="translate(83.789062 0)"/>
       <use xlink:href="#DejaVuSans-2e" transform="translate(147.412109 0)"/>
       <use xlink:href="#DejaVuSans-33" transform="translate(179.199219 0)"/>
      </g>
     </g>
    </g>
    <g id="ytick_16">
     <g id="line2d_34">
      <g>
       <use xlink:href="#mee54a5bc52" x="411.86891" y="18.118365" style="stroke: #000000; stroke-width: 0.8"/>
      </g>
     </g>
     <g id="text_21">
      <!-- 0.0 -->
      <g transform="translate(418.86891 21.917584) scale(0.1 -0.1)">
       <use xlink:href="#DejaVuSans-30"/>
       <use xlink:href="#DejaVuSans-2e" transform="translate(63.623047 0)"/>
       <use xlink:href="#DejaVuSans-30" transform="translate(95.410156 0)"/>
      </g>
     </g>
    </g>
    <g id="text_22">
     <!-- Score -->
     <g transform="translate(454.75016 179.183281) rotate(-90) scale(0.1 -0.1)">
      <defs>
       <path id="DejaVuSans-53" d="M 3425 4513 
L 3425 3897 
Q 3066 4069 2747 4153 
Q 2428 4238 2131 4238 
Q 1616 4238 1336 4038 
Q 1056 3838 1056 3469 
Q 1056 3159 1242 3001 
Q 1428 2844 1947 2747 
L 2328 2669 
Q 3034 2534 3370 2195 
Q 3706 1856 3706 1288 
Q 3706 609 3251 259 
Q 2797 -91 1919 -91 
Q 1588 -91 1214 -16 
Q 841 59 441 206 
L 441 856 
Q 825 641 1194 531 
Q 1563 422 1919 422 
Q 2459 422 2753 634 
Q 3047 847 3047 1241 
Q 3047 1584 2836 1778 
Q 2625 1972 2144 2069 
L 1759 2144 
Q 1053 2284 737 2584 
Q 422 2884 422 3419 
Q 422 4038 858 4394 
Q 1294 4750 2059 4750 
Q 2388 4750 2728 4690 
Q 3069 4631 3425 4513 
z
" transform="scale(0.015625)"/>
       <path id="DejaVuSans-72" d="M 2631 2963 
Q 2534 3019 2420 3045 
Q 2306 3072 2169 3072 
Q 1681 3072 1420 2755 
Q 1159 2438 1159 1844 
L 1159 0 
L 581 0 
L 581 3500 
L 1159 3500 
L 1159 2956 
Q 1341 3275 1631 3429 
Q 1922 3584 2338 3584 
Q 2397 3584 2469 3576 
Q 2541 3569 2628 3553 
L 2631 2963 
z
" transform="scale(0.015625)"/>
       <path id="DejaVuSans-65" d="M 3597 1894 
L 3597 1613 
L 953 1613 
Q 991 1019 1311 708 
Q 1631 397 2203 397 
Q 2534 397 2845 478 
Q 3156 559 3463 722 
L 3463 178 
Q 3153 47 2828 -22 
Q 2503 -91 2169 -91 
Q 1331 -91 842 396 
Q 353 884 353 1716 
Q 353 2575 817 3079 
Q 1281 3584 2069 3584 
Q 2775 3584 3186 3129 
Q 3597 2675 3597 1894 
z
M 3022 2063 
Q 3016 2534 2758 2815 
Q 2500 3097 2075 3097 
Q 1594 3097 1305 2825 
Q 1016 2553 972 2059 
L 3022 2063 
z
" transform="scale(0.015625)"/>
      </defs>
      <use xlink:href="#DejaVuSans-53"/>
      <use xlink:href="#DejaVuSans-63" transform="translate(63.476562 0)"/>
      <use xlink:href="#DejaVuSans-6f" transform="translate(118.457031 0)"/>
      <use xlink:href="#DejaVuSans-72" transform="translate(179.638672 0)"/>
      <use xlink:href="#DejaVuSans-65" transform="translate(218.501953 0)"/>
     </g>
    </g>
   </g>
   <g id="LineCollection_1"/>
   <g id="patch_8">
    <path d="M 397.162653 312.24351 
L 404.515782 312.24351 
L 411.86891 312.24351 
L 411.86891 18.118365 
L 404.515782 18.118365 
L 397.162653 18.118365 
L 397.162653 312.24351 
z
" style="fill: none; stroke: #000000; stroke-width: 0.8; stroke-linejoin: miter; stroke-linecap: square"/>
   </g>
  </g>
 </g>
 <defs>
  <clipPath id="pf2375dda22">
   <rect x="39.58149" y="18.118365" width="340.553489" height="294.125145"/>
  </clipPath>
  <clipPath id="p4bc660b2bf">
   <rect x="397.162653" y="18.118365" width="14.706257" height="294.125145"/>
  </clipPath>
 </defs>
</svg>
