<?xml version="1.0" encoding="utf-8" standalone="no"?>
<!DOCTYPE svg PUBLIC "-//W3C//DTD SVG 1.1//EN"
  "http://www.w3.org/Graphics/SVG/1.1/DTD/svg11.dtd">
<svg xmlns:xlink="http://www.w3.org/1999/xlink" width="468.217678pt" height="353.99952pt" viewBox="0 0 468.217678 353.99952" xmlns="http://www.w3.org/2000/svg" version="1.1">
 <metadata>
  <rdf:RDF xmlns:dc="http://purl.org/dc/elements/1.1/" xmlns:cc="http://creativecommons.org/ns#" xmlns:rdf="http://www.w3.org/1999/02/22-rdf-syntax-ns#">
   <cc:Work>
    <dc:type rdf:resource="http://purl.org/dc/dcmitype/StillImage"/>
    <dc:date>1970-01-01T00:00:00+00:00</dc:date>
    <dc:format>image/svg+xml</dc:format>
    <dc:creator>
     <cc:Agent>
      <dc:title>Matplotlib v3.10.7, https://matplotlib.org/</dc:title>
     </cc:Agent>
    </dc:creator>
   </cc:Work>
  </rdf:RDF>
 </metadata>
 <defs>
  <style type="text/css">*{stroke-linejoin: round; stroke-linecap: butt}</style>
 </defs>
 <g id="figure_1">
  <g id="patch_1">
   <path d="M 0 353.99952 
L 468.217678 353.99952 
L 468.217678 0 
L 0 0 
z
" style="fill: #ffffff"/>
  </g>
  <g id="axes_1">
   <g id="patch_2">
    <path d="M 43.78125 316.44327 
L 388.86802 316.44327 
L 388.86802 22.318125 
L 43.78125 22.318125 
z
" style="fill: #ffffff"/>
   </g>
   <g id="QuadContourSet_1">
    <path d="M 43.78125 294.080438 
L 47.497608 291.932841 
L 43.78125 290.291301 
L 40.819057 291.932841 
z
M 0.645404 273.474574 
L 11.232856 267.422412 
L 0.645404 262.589607 
L -8.349809 267.422412 
z
M -42.490442 242.979289 
L -42.377589 242.911984 
L -42.490442 242.864329 
L -42.583512 242.911984 
z
M -85.626289 223.514614 
L -77.199311 218.401555 
L -85.626289 214.69697 
L -92.832552 218.401555 
z
" clip-path="url(#p0497d74b55)" style="fill: #460b5e"/>
    <path d="M 0.645404 292.017191 
L 43.739997 316.44327 
L 43.78125 316.44327 
L 86.917096 316.44327 
L 115.917391 316.44327 
L 86.917096 298.758545 
L 78.239623 291.932841 
L 43.78125 273.083816 
L 36.942699 267.422412 
L 0.645404 247.576958 
L -7.546312 242.911984 
L -42.490442 224.126268 
L -49.290951 218.401555 
L -85.626289 198.979823 
L -94.517699 193.891126 
L -128.762135 174.56983 
L -139.549355 169.380697 
L -171.897981 158.892477 
L -197.046928 144.870269 
L -215.033827 135.479295 
L -240.063023 120.35984 
L -258.169674 110.437889 
L -285.422437 95.849411 
L -301.30552 87.722706 
L -334.841706 71.338982 
L -344.441366 68.157874 
L -387.577212 53.368273 
L -387.577212 71.338982 
L -387.577212 75.010612 
L -349.522481 95.849411 
L -344.441366 99.051995 
L -305.504302 120.35984 
L -301.30552 122.309059 
L -260.824146 144.870269 
L -258.169674 146.226961 
L -216.569268 169.380697 
L -215.033827 170.366851 
L -173.072141 193.891126 
L -171.897981 194.671951 
L -129.553796 218.401555 
L -128.762135 218.981634 
L -86.373281 242.911984 
L -85.626289 243.425031 
L -42.990559 267.422412 
L -42.490442 267.802807 
L 0.52257 291.932841 
z
M 40.819057 291.932841 
L 43.78125 290.291301 
L 47.497608 291.932841 
L 43.78125 294.080438 
z
M -8.349809 267.422412 
L 0.645404 262.589607 
L 11.232856 267.422412 
L 0.645404 273.474574 
z
M -42.583512 242.911984 
L -42.490442 242.864329 
L -42.377589 242.911984 
L -42.490442 242.979289 
z
M -92.832552 218.401555 
L -85.626289 214.69697 
L -77.199311 218.401555 
L -85.626289 223.514614 
z
" clip-path="url(#p0497d74b55)" style="fill: #482071"/>
    <path d="M 0.645404 296.65149 
L 37.248943 316.44327 
L 43.739997 316.44327 
L 0.645404 292.017191 
L 0.52257 291.932841 
L -42.490442 267.802807 
L -42.990559 267.422412 
L -85.626289 243.425031 
L -86.373281 242.911984 
L -128.762135 218.981634 
L -129.553796 218.401555 
L -171.897981 194.671951 
L -173.072141 193.891126 
L -215.033827 170.366851 
L -216.569268 169.380697 
L -258.169674 146.226961 
L -260.824146 144.870269 
L -301.30552 122.309059 
L -305.504302 120.35984 
L -344.441366 99.051995 
L -349.522481 95.849411 
L -387.577212 75.010612 
L -387.577212 92.120716 
L -379.192255 95.849411 
L -344.441366 113.976631 
L -330.52227 120.35984 
L -301.30552 131.909312 
L -275.476383 144.870269 
L -258.169674 152.909233 
L -226.40008 169.380697 
L -215.033827 176.223746 
L -181.531745 193.891126 
L -171.897981 199.950144 
L -137.118325 218.401555 
L -128.762135 224.226059 
L -93.826778 242.911984 
L -85.626289 248.273612 
L -49.865785 267.422412 
L -42.490442 272.782801 
L -6.555625 291.932841 
z
M 86.917096 298.758545 
L 115.917391 316.44327 
L 130.052942 316.44327 
L 134.77983 316.44327 
L 130.052942 313.944277 
L 95.532512 291.932841 
L 86.917096 287.428009 
L 54.225533 267.422412 
L 43.78125 261.896249 
L 12.99421 242.911984 
L 0.645404 236.155901 
L -27.85414 218.401555 
L -42.490442 210.574599 
L -69.262944 193.891126 
L -85.626289 185.560755 
L -110.139958 169.380697 
L -128.762135 159.924573 
L -162.886885 144.870269 
L -171.897981 140.61537 
L -202.495683 120.35984 
L -215.033827 114.390177 
L -241.9636 95.849411 
L -258.169674 87.606355 
L -282.560928 71.338982 
L -301.30552 61.465664 
L -328.751297 46.828554 
L -344.441366 41.573772 
L -387.577212 23.738634 
L -387.577212 46.828554 
L -387.577212 53.368273 
L -344.441366 68.157874 
L -334.841706 71.338982 
L -301.30552 87.722706 
L -285.422437 95.849411 
L -258.169674 110.437889 
L -240.063023 120.35984 
L -215.033827 135.479295 
L -197.046928 144.870269 
L -171.897981 158.892477 
L -139.549355 169.380697 
L -128.762135 174.56983 
L -94.517699 193.891126 
L -85.626289 198.979823 
L -49.290951 218.401555 
L -42.490442 224.126268 
L -7.546312 242.911984 
L 0.645404 247.576958 
L 36.942699 267.422412 
L 43.78125 273.083816 
L 78.239623 291.932841 
z
" clip-path="url(#p0497d74b55)" style="fill: #46337f"/>
    <path d="M 0.645404 301.285789 
L 30.141829 316.44327 
L 37.248943 316.44327 
L 0.645404 296.65149 
L -6.555625 291.932841 
L -42.490442 272.782801 
L -49.865785 267.422412 
L -85.626289 248.273612 
L -93.826778 242.911984 
L -128.762135 224.226059 
L -137.118325 218.401555 
L -171.897981 199.950144 
L -181.531745 193.891126 
L -215.033827 176.223746 
L -226.40008 169.380697 
L -258.169674 152.909233 
L -275.476383 144.870269 
L -301.30552 131.909312 
L -330.52227 120.35984 
L -344.441366 113.976631 
L -379.192255 95.849411 
L -387.577212 92.120716 
L -387.577212 95.849411 
L -387.577212 101.18481 
L -350.20552 120.35984 
L -344.441366 124.578261 
L -301.30552 141.509566 
L -293.707586 144.870269 
L -258.169674 159.591506 
L -237.718189 169.380697 
L -215.033827 182.080641 
L -191.06937 193.891126 
L -171.897981 205.228338 
L -145.533116 218.401555 
L -128.762135 229.470483 
L -102.104374 242.911984 
L -85.626289 253.122193 
L -57.436123 267.422412 
L -42.490442 277.762796 
L -14.372827 291.932841 
z
M 130.052942 313.944277 
L 134.77983 316.44327 
L 145.730259 316.44327 
L 130.052942 307.511989 
L 107.3611 291.932841 
L 86.917096 280.33566 
L 67.505475 267.422412 
L 43.78125 253.660436 
L 27.921213 242.911984 
L 0.645404 226.354017 
L -10.805016 218.401555 
L -42.490442 199.304479 
L -50.176 193.891126 
L -85.626289 173.241963 
L -90.789656 169.380697 
L -128.762135 147.262728 
L -133.250134 144.870269 
L -171.897981 122.397316 
L -174.468444 120.35984 
L -215.033827 96.816199 
L -216.222806 95.849411 
L -256.424193 71.338982 
L -258.169674 70.479971 
L -295.520572 46.828554 
L -301.30552 44.09839 
L -344.441366 26.165867 
L -351.641396 22.318125 
L -387.577212 22.318125 
L -387.577212 23.738634 
L -344.441366 41.573772 
L -328.751297 46.828554 
L -301.30552 61.465664 
L -282.560928 71.338982 
L -258.169674 87.606355 
L -241.9636 95.849411 
L -215.033827 114.390177 
L -202.495683 120.35984 
L -171.897981 140.61537 
L -162.886885 144.870269 
L -128.762135 159.924573 
L -110.139958 169.380697 
L -85.626289 185.560755 
L -69.262944 193.891126 
L -42.490442 210.574599 
L -27.85414 218.401555 
L 0.645404 236.155901 
L 12.99421 242.911984 
L 43.78125 261.896249 
L 54.225533 267.422412 
L 86.917096 287.428009 
L 95.532512 291.932841 
z
" clip-path="url(#p0497d74b55)" style="fill: #404588"/>
    <path d="M 0.645404 305.920088 
L 22.289334 316.44327 
L 30.141829 316.44327 
L 0.645404 301.285789 
L -14.372827 291.932841 
L -42.490442 277.762796 
L -57.436123 267.422412 
L -85.626289 253.122193 
L -102.104374 242.911984 
L -128.762135 229.470483 
L -145.533116 218.401555 
L -171.897981 205.228338 
L -191.06937 193.891126 
L -215.033827 182.080641 
L -237.718189 169.380697 
L -258.169674 159.591506 
L -293.707586 144.870269 
L -301.30552 141.509566 
L -344.441366 124.578261 
L -350.20552 120.35984 
L -387.577212 101.18481 
L -387.577212 108.006904 
L -361.482375 120.35984 
L -344.441366 131.949206 
L -310.746629 144.870269 
L -301.30552 150.376912 
L -258.169674 166.273778 
L -251.055239 169.380697 
L -215.033827 187.937536 
L -202.000449 193.891126 
L -171.897981 210.506531 
L -155.013802 218.401555 
L -128.762135 234.714908 
L -111.411219 242.911984 
L -85.626289 257.970774 
L -65.858105 267.422412 
L -42.490442 282.74279 
L -23.101532 291.932841 
z
M 130.052942 307.511989 
L 145.730259 316.44327 
L 155.282607 316.44327 
L 130.052942 301.079701 
L 117.574577 291.932841 
L 86.917096 273.243312 
L 78.78246 267.422412 
L 43.78125 245.424623 
L 40.362975 242.911984 
L 3.738911 218.401555 
L 0.645404 216.828364 
L -33.753675 193.891126 
L -42.490442 189.522128 
L -73.646656 169.380697 
L -85.626289 163.198726 
L -113.753957 144.870269 
L -128.762135 136.853498 
L -153.966589 120.35984 
L -171.897981 110.524772 
L -194.00531 95.849411 
L -215.033827 84.16904 
L -233.284177 71.338982 
L -258.169674 56.981782 
L -271.997465 46.828554 
L -301.30552 30.546888 
L -317.631439 22.318125 
L -344.441366 22.318125 
L -351.641396 22.318125 
L -344.441366 26.165867 
L -301.30552 44.09839 
L -295.520572 46.828554 
L -258.169674 70.479971 
L -256.424193 71.338982 
L -216.222806 95.849411 
L -215.033827 96.816199 
L -174.468444 120.35984 
L -171.897981 122.397316 
L -133.250134 144.870269 
L -128.762135 147.262728 
L -90.789656 169.380697 
L -85.626289 173.241963 
L -50.176 193.891126 
L -42.490442 199.304479 
L -10.805016 218.401555 
L 0.645404 226.354017 
L 27.921213 242.911984 
L 43.78125 253.660436 
L 67.505475 267.422412 
L 86.917096 280.33566 
L 107.3611 291.932841 
z
" clip-path="url(#p0497d74b55)" style="fill: #39558c"/>
    <path d="M 0.645404 310.554387 
L 13.516593 316.44327 
L 22.289334 316.44327 
L 0.645404 305.920088 
L -23.101532 291.932841 
L -42.490442 282.74279 
L -65.858105 267.422412 
L -85.626289 257.970774 
L -111.411219 242.911984 
L -128.762135 234.714908 
L -155.013802 218.401555 
L -171.897981 210.506531 
L -202.000449 193.891126 
L -215.033827 187.937536 
L -251.055239 169.380697 
L -258.169674 166.273778 
L -301.30552 150.376912 
L -310.746629 144.870269 
L -344.441366 131.949206 
L -361.482375 120.35984 
L -387.577212 108.006904 
L -387.577212 114.828997 
L -374.762137 120.35984 
L -344.441366 139.320151 
L -328.087927 144.870269 
L -301.30552 158.849504 
L -268.751984 169.380697 
L -258.169674 177.518689 
L -215.033827 193.794431 
L -214.802977 193.891126 
L -171.897981 215.784725 
L -165.870124 218.401555 
L -128.762135 239.959332 
L -122.040106 242.911984 
L -85.626289 262.819355 
L -75.347923 267.422412 
L -42.490442 287.722785 
L -32.982712 291.932841 
z
M 130.052942 301.079701 
L 155.282607 316.44327 
L 163.753787 316.44327 
L 130.052942 294.647414 
L 126.561483 291.932841 
L 89.330414 267.422412 
L 86.917096 266.052857 
L 53.942851 242.911984 
L 43.78125 237.216205 
L 18.291434 218.401555 
L 0.645404 208.490496 
L -19.359991 193.891126 
L -42.490442 181.114906 
L -59.041524 169.380697 
L -85.626289 154.194391 
L -98.62097 144.870269 
L -128.762135 126.969059 
L -137.870597 120.35984 
L -171.897981 99.451261 
L -176.750529 95.849411 
L -215.033827 71.808697 
L -215.629197 71.338982 
L -251.958461 46.828554 
L -258.169674 43.680043 
L -291.003087 22.318125 
L -301.30552 22.318125 
L -317.631439 22.318125 
L -301.30552 30.546888 
L -271.997465 46.828554 
L -258.169674 56.981782 
L -233.284177 71.338983 
L -215.033827 84.16904 
L -194.00531 95.849411 
L -171.897981 110.524772 
L -153.966589 120.35984 
L -128.762135 136.853498 
L -113.753957 144.870269 
L -85.626289 163.198726 
L -73.646656 169.380697 
L -42.490442 189.522128 
L -33.753675 193.891126 
L 0.645404 216.828364 
L 3.738911 218.401555 
L 40.362975 242.911984 
L 43.78125 245.424623 
L 78.78246 267.422412 
L 86.917096 273.243312 
L 117.574577 291.932841 
z
" clip-path="url(#p0497d74b55)" style="fill: #32658e"/>
    <path d="M -42.490442 292.798337 
L 0.645404 315.188686 
L 3.578924 316.44327 
L 13.516593 316.44327 
L 0.645404 310.554387 
L -32.982712 291.932841 
L -42.490442 287.722785 
L -75.347923 267.422412 
L -85.626289 262.819355 
L -122.040106 242.911984 
L -128.762135 239.959332 
L -165.870124 218.401555 
L -171.897981 215.784725 
L -214.802977 193.891126 
L -215.033827 193.794431 
L -258.169674 177.518689 
L -268.751984 169.380697 
L -301.30552 158.849504 
L -328.087927 144.870269 
L -344.441366 139.320151 
L -374.762137 120.35984 
L -387.577212 114.828997 
L -387.577212 120.35984 
L -387.577212 124.184354 
L -351.104232 144.870269 
L -344.441366 147.55801 
L -301.30552 167.322096 
L -293.731872 169.380697 
L -258.169674 192.728455 
L -254.077429 193.891126 
L -215.634326 218.401555 
L -215.033827 218.868528 
L -171.897981 226.489851 
L -139.277789 242.911984 
L -128.762135 247.381392 
L -86.457053 267.422412 
L -85.626289 267.73114 
L -43.730066 291.932841 
z
M 130.052942 294.647414 
L 163.753787 316.44327 
L 171.363845 316.44327 
L 136.563727 291.932841 
L 130.052942 288.063869 
L 101.528818 267.422412 
L 86.917096 258.413252 
L 66.503471 242.911984 
L 43.78125 229.019815 
L 30.47219 218.401555 
L 0.645404 200.152628 
L -7.290614 193.891126 
L -42.490442 172.707684 
L -46.823967 169.380697 
L -85.626289 145.190055 
L -86.036581 144.870269 
L -121.393013 120.35984 
L -128.762135 116.245788 
L -156.593168 95.849411 
L -171.897981 87.347157 
L -193.36147 71.338982 
L -215.033827 59.221595 
L -231.09754 46.828554 
L -258.169674 30.974603 
L -269.800436 22.318125 
L -291.003087 22.318125 
L -258.169674 43.680043 
L -251.958461 46.828554 
L -215.629197 71.338982 
L -215.033827 71.808697 
L -176.750529 95.849411 
L -171.897981 99.451261 
L -137.870597 120.35984 
L -128.762135 126.969059 
L -98.62097 144.870269 
L -85.626289 154.194391 
L -59.041524 169.380697 
L -42.490442 181.114906 
L -19.359991 193.891126 
L 0.645404 208.490496 
L 18.291434 218.401555 
L 43.78125 237.216205 
L 53.942851 242.911984 
L 86.917096 266.052857 
L 89.330414 267.422412 
L 126.561483 291.932841 
z
" clip-path="url(#p0497d74b55)" style="fill: #2c738e"/>
    <path d="M -42.490442 298.396403 
L -5.663222 316.44327 
L 0.645404 316.44327 
L 3.578924 316.44327 
L 0.645404 315.188686 
L -42.490442 292.798337 
L -43.730066 291.932841 
L -85.626289 267.73114 
L -86.457053 267.422412 
L -128.762135 247.381392 
L -139.277789 242.911984 
L -171.897981 226.489851 
L -215.033827 218.868528 
L -215.634326 218.401555 
L -254.077429 193.891126 
L -258.169674 192.728455 
L -293.731872 169.380697 
L -301.30552 167.322096 
L -344.441366 147.55801 
L -351.104232 144.870269 
L -387.577212 124.184354 
L -387.577212 144.390494 
L -386.495365 144.870269 
L -344.441366 158.438331 
L -316.907184 169.380697 
L -301.30552 176.346284 
L -269.716794 193.891126 
L -258.169674 199.705604 
L -224.292039 218.401555 
L -215.033827 225.201303 
L -171.897981 242.5311 
L -170.955945 242.911984 
L -128.762135 257.609051 
L -105.090186 267.422412 
L -85.626289 273.827871 
L -52.284966 291.932841 
z
M 173.188789 316.44327 
L 180.898142 316.44327 
L 173.188789 312.015323 
L 146.643602 291.932841 
L 130.052942 281.36988 
L 112.016687 267.422412 
L 86.917096 250.773647 
L 77.25782 242.911984 
L 43.78125 220.823424 
L 40.947018 218.401555 
L 4.577301 193.891126 
L 0.645404 191.698141 
L -32.02769 169.380697 
L -42.490442 163.214562 
L -67.612182 144.870269 
L -85.626289 133.764699 
L -102.739049 120.35984 
L -128.762135 103.829801 
L -138.459233 95.849411 
L -171.897981 74.746235 
L -175.97951 71.338982 
L -214.628179 46.828554 
L -215.033827 46.6006 
L -249.554218 22.318125 
L -258.169674 22.318125 
L -269.800436 22.318125 
L -258.169674 30.974603 
L -231.09754 46.828554 
L -215.033827 59.221595 
L -193.36147 71.338982 
L -171.897981 87.347157 
L -156.593168 95.849411 
L -128.762135 116.245788 
L -121.393013 120.35984 
L -86.036581 144.870269 
L -85.626289 145.190055 
L -46.823967 169.380697 
L -42.490442 172.707684 
L -7.290614 193.891126 
L 0.645404 200.152628 
L 30.47219 218.401555 
L 43.78125 229.019815 
L 66.503471 242.911984 
L 86.917096 258.413252 
L 101.528818 267.422412 
L 130.052942 288.063869 
L 136.563727 291.932841 
L 171.363845 316.44327 
z
" clip-path="url(#p0497d74b55)" style="fill: #26828e"/>
    <path d="M -42.490442 303.994468 
L -15.279726 316.44327 
L -5.663222 316.44327 
L -42.490442 298.396403 
L -52.284966 291.932841 
L -85.626289 273.827871 
L -105.090186 267.422412 
L -128.762135 257.609051 
L -170.955945 242.911984 
L -171.897981 242.5311 
L -215.033827 225.201303 
L -224.292039 218.401555 
L -258.169674 199.705604 
L -269.716794 193.891126 
L -301.30552 176.346284 
L -316.907184 169.380697 
L -344.441366 158.438331 
L -386.495365 144.870269 
L -387.577212 144.390494 
L -387.577212 144.870269 
L -387.577212 153.464823 
L -344.441366 169.318652 
L -344.252935 169.380697 
L -301.30552 185.547511 
L -284.623508 193.891126 
L -258.169674 206.001344 
L -234.082313 218.401555 
L -215.033827 231.534079 
L -184.437296 242.911984 
L -171.897981 250.669615 
L -129.382953 267.422412 
L -128.762135 267.91634 
L -85.626289 279.924602 
L -61.943932 291.932841 
z
M 173.188789 312.015323 
L 180.898142 316.44327 
L 190.141274 316.44327 
L 173.188789 306.069489 
L 155.52694 291.932841 
L 130.052942 274.675891 
L 121.215276 267.422412 
L 86.917096 243.134042 
L 86.660678 242.911984 
L 53.549772 218.401555 
L 43.78125 212.745747 
L 18.567898 193.891126 
L 0.645404 182.891977 
L -17.394042 169.380697 
L -42.490442 153.010297 
L -52.616024 144.870269 
L -85.626289 122.250196 
L -87.815479 120.35984 
L -121.795525 95.849411 
L -128.762135 91.95061 
L -157.189335 71.338982 
L -171.897981 62.505488 
L -192.979456 46.828554 
L -215.033827 32.457417 
L -227.577738 22.318125 
L -249.554218 22.318125 
L -215.033827 46.6006 
L -214.628179 46.828554 
L -175.97951 71.338983 
L -171.897981 74.746235 
L -138.459233 95.849411 
L -128.762135 103.829801 
L -102.739049 120.35984 
L -85.626289 133.764699 
L -67.612182 144.870269 
L -42.490442 163.214562 
L -32.02769 169.380697 
L 0.645404 191.698141 
L 4.577301 193.891126 
L 40.947018 218.401555 
L 43.78125 220.823424 
L 77.25782 242.911984 
L 86.917096 250.773647 
L 112.016687 267.422412 
L 130.052942 281.36988 
L 146.643602 291.932841 
z
" clip-path="url(#p0497d74b55)" style="fill: #21918c"/>
    <path d="M -42.490442 309.592534 
L -26.314586 316.44327 
L -15.279726 316.44327 
L -42.490442 303.994468 
L -61.943932 291.932841 
L -85.626289 279.924602 
L -128.762135 267.91634 
L -129.382953 267.422412 
L -171.897981 250.669615 
L -184.437296 242.911984 
L -215.033827 231.534079 
L -234.082313 218.401555 
L -258.169674 206.001344 
L -284.623508 193.891126 
L -301.30552 185.547511 
L -344.252935 169.380697 
L -344.441366 169.318652 
L -387.577212 153.464823 
L -387.577212 162.26841 
L -365.150717 169.380697 
L -344.441366 180.25482 
L -303.622012 193.891126 
L -301.30552 195.792589 
L -258.169674 212.297083 
L -245.346698 218.401555 
L -215.033827 237.866855 
L -199.9121 242.911984 
L -171.897981 258.615924 
L -146.609248 267.422412 
L -128.762135 280.109812 
L -85.626289 286.021332 
L -73.034765 291.932841 
z
M 173.188789 306.069489 
L 190.141274 316.44327 
L 198.368446 316.44327 
L 173.188789 300.123656 
L 163.467908 291.932841 
L 130.052942 267.981902 
L 129.407147 267.422412 
L 99.917865 242.911984 
L 86.917096 235.485186 
L 65.537433 218.401555 
L 43.78125 204.71786 
L 30.352815 193.891126 
L 0.645404 174.085813 
L -5.156555 169.380697 
L -38.739091 144.870269 
L -42.490442 142.81106 
L -71.101967 120.35984 
L -85.626289 111.576307 
L -105.163975 95.849411 
L -128.762135 81.037207 
L -140.812196 71.338982 
L -171.897981 50.398226 
L -176.203505 46.828554 
L -208.365842 22.318125 
L -215.033827 22.318125 
L -227.577738 22.318125 
L -215.033827 32.457417 
L -192.979456 46.828554 
L -171.897981 62.505488 
L -157.189335 71.338982 
L -128.762135 91.95061 
L -121.795525 95.849411 
L -87.815479 120.35984 
L -85.626289 122.250196 
L -52.616024 144.870269 
L -42.490442 153.010297 
L -17.394042 169.380697 
L 0.645404 182.891977 
L 18.567898 193.891126 
L 43.78125 212.745747 
L 53.549772 218.401555 
L 86.660678 242.911984 
L 86.917096 243.134042 
L 121.215276 267.422412 
L 130.052942 274.675891 
L 155.52694 291.932841 
z
" clip-path="url(#p0497d74b55)" style="fill: #1f9f88"/>
    <path d="M -128.762135 292.421153 
L -85.626289 292.329457 
L -42.490442 315.1906 
L -39.2598 316.44327 
L -26.314586 316.44327 
L -42.490442 309.592534 
L -73.034765 291.932841 
L -85.626289 286.021332 
L -128.762135 280.109812 
L -146.609248 267.422412 
L -171.897981 258.615924 
L -199.9121 242.911984 
L -215.033827 237.866855 
L -245.346698 218.401555 
L -258.169674 212.297083 
L -301.30552 195.792589 
L -303.622012 193.891126 
L -344.441366 180.25482 
L -365.150717 169.380697 
L -387.577212 162.26841 
L -387.577212 169.380697 
L -387.577212 193.891126 
L -387.577212 193.990715 
L -385.925936 193.891126 
L -344.441366 191.191308 
L -334.401477 193.891126 
L -344.441366 205.288033 
L -349.088437 218.401555 
L -344.441366 222.032906 
L -310.949962 218.401555 
L -301.30552 216.193209 
L -265.725257 218.401555 
L -258.299694 242.911984 
L -258.169674 243.015588 
L -215.033827 245.182854 
L -171.897981 266.562233 
L -169.016095 267.422412 
L -129.321392 291.932841 
z
M 173.188789 300.123656 
L 198.368446 316.44327 
L 205.781042 316.44327 
L 173.188789 294.177822 
L 170.647407 291.932841 
L 143.463866 267.422412 
L 130.052942 259.766926 
L 111.300625 242.911984 
L 86.917096 227.836053 
L 75.869226 218.401555 
L 43.78125 196.689972 
L 40.533734 193.891126 
L 9.704639 169.380697 
L 0.645404 164.482287 
L -22.536426 144.870269 
L -42.490442 132.631654 
L -56.767883 120.35984 
L -85.626289 101.067529 
L -91.561588 95.849411 
L -126.074715 71.338982 
L -128.762135 69.876655 
L -156.808059 46.828554 
L -171.897981 37.170517 
L -188.662777 22.318125 
L -208.365842 22.318125 
L -176.203505 46.828554 
L -171.897981 50.398226 
L -140.812196 71.338982 
L -128.762135 81.037207 
L -105.163975 95.849411 
L -85.626289 111.576307 
L -71.101967 120.35984 
L -42.490442 142.81106 
L -38.739091 144.870269 
L -5.156555 169.380698 
L 0.645404 174.085813 
L 30.352815 193.891126 
L 43.78125 204.71786 
L 65.537433 218.401555 
L 86.917096 235.485186 
L 99.917865 242.911984 
L 129.407147 267.422412 
L 130.052942 267.981902 
L 163.467908 291.932841 
z
" clip-path="url(#p0497d74b55)" style="fill: #26ad81"/>
    <path d="M -128.762135 308.494369 
L -85.626289 305.384409 
L -60.085566 316.44327 
L -42.490442 316.44327 
L -39.2598 316.44327 
L -42.490442 315.1906 
L -85.626289 292.329457 
L -128.762135 292.421153 
L -129.321392 291.932841 
L -169.016095 267.422412 
L -171.897981 266.562233 
L -215.033827 245.182854 
L -258.169674 243.015588 
L -258.299694 242.911984 
L -265.725257 218.401555 
L -301.30552 216.193209 
L -310.949962 218.401555 
L -344.441366 222.032906 
L -349.088437 218.401555 
L -344.441366 205.288033 
L -334.401477 193.891126 
L -344.441366 191.191308 
L -385.925936 193.891126 
L -387.577212 193.990715 
L -387.577212 207.678873 
L -368.211809 218.401555 
L -344.441366 234.817272 
L -301.30552 231.099518 
L -278.734572 242.911984 
L -258.169674 257.254944 
L -215.033827 256.351222 
L -189.302383 267.422412 
L -171.897981 280.672481 
L -150.537693 291.932841 
z
M 173.188789 294.177822 
L 205.781042 316.44327 
L 212.525932 316.44327 
L 184.415242 291.932841 
L 173.188789 285.427809 
L 155.791208 267.422412 
L 130.052942 251.41323 
L 121.180154 242.911984 
L 86.917096 220.186921 
L 84.947577 218.401555 
L 57.385022 193.891126 
L 43.78125 185.932874 
L 26.096543 169.380697 
L 0.645404 153.963951 
L -9.221908 144.870269 
L -42.490442 122.452247 
L -44.740402 120.35984 
L -73.02222 95.849411 
L -85.626289 88.859595 
L -105.476284 71.338982 
L -128.762135 56.743631 
L -139.569826 46.828554 
L -171.897981 23.474335 
L -173.076601 22.318125 
L -188.662777 22.318125 
L -171.897981 37.170517 
L -156.808059 46.828554 
L -128.762135 69.876655 
L -126.074715 71.338982 
L -91.561588 95.849411 
L -85.626289 101.067529 
L -56.767883 120.35984 
L -42.490442 132.631654 
L -22.536426 144.870269 
L 0.645404 164.482287 
L 9.704639 169.380697 
L 40.533734 193.891126 
L 43.78125 196.689972 
L 75.869226 218.401555 
L 86.917096 227.836053 
L 111.300625 242.911984 
L 130.052942 259.766926 
L 143.463866 267.422412 
L 170.647407 291.932841 
z
" clip-path="url(#p0497d74b55)" style="fill: #3aba76"/>
    <path d="M -344.441366 316.44327 
L -301.30552 316.44327 
L -258.169674 316.44327 
L -215.033827 316.44327 
L -171.897981 316.44327 
L -128.762135 316.44327 
L -85.626289 316.44327 
L -60.085566 316.44327 
L -85.626289 305.384409 
L -128.762135 308.494369 
L -150.537693 291.932841 
L -171.897981 280.672481 
L -189.302383 267.422412 
L -215.033827 256.351222 
L -258.169674 257.254944 
L -278.734572 242.911984 
L -301.30552 231.099518 
L -344.441366 234.817272 
L -368.211809 218.401555 
L -387.577212 207.678873 
L -387.577212 218.401555 
L -387.577212 242.911984 
L -387.577212 267.422412 
L -387.577212 291.932841 
L -387.577212 316.44327 
z
M 216.324635 316.44327 
L 224.809158 316.44327 
L 216.324635 310.963345 
L 199.532847 291.932841 
L 173.188789 274.976748 
L 166.374192 267.422412 
L 130.052942 243.059535 
L 129.90757 242.911984 
L 105.685528 218.401555 
L 86.917096 207.095114 
L 74.398004 193.891126 
L 43.78125 173.714966 
L 39.538419 169.380697 
L 5.778841 144.870269 
L 0.645404 141.77684 
L -19.617457 120.35984 
L -42.490442 106.743694 
L -52.930451 95.849411 
L -85.626289 74.975803 
L -89.336402 71.338982 
L -118.447061 46.828554 
L -128.762135 41.274295 
L -146.323555 22.318125 
L -171.897981 22.318125 
L -173.076601 22.318125 
L -171.897981 23.474335 
L -139.569826 46.828554 
L -128.762135 56.743631 
L -105.476284 71.338982 
L -85.626289 88.859595 
L -73.02222 95.849411 
L -44.740402 120.35984 
L -42.490442 122.452247 
L -9.221908 144.870269 
L 0.645404 153.963951 
L 26.096543 169.380697 
L 43.78125 185.932874 
L 57.385022 193.891126 
L 84.947577 218.401555 
L 86.917096 220.186921 
L 121.180154 242.911984 
L 130.052942 251.41323 
L 155.791208 267.422412 
L 173.188789 285.427809 
L 184.415242 291.932841 
L 212.525932 316.44327 
z
M 518.275559 295.022152 
L 534.179707 316.44327 
L 561.411405 316.44327 
L 604.547251 316.44327 
L 647.683097 316.44327 
L 690.818944 316.44327 
L 733.95479 316.44327 
L 777.090636 316.44327 
L 820.226482 316.44327 
L 863.362328 316.44327 
L 906.498175 316.44327 
L 949.634021 316.44327 
L 992.769867 316.44327 
L 1035.905713 316.44327 
L 1079.04156 316.44327 
L 1122.177406 316.44327 
L 1165.313252 316.44327 
L 1208.449098 316.44327 
L 1251.584945 316.44327 
L 1294.720791 316.44327 
L 1337.856637 316.44327 
L 1380.992483 316.44327 
L 1424.128329 316.44327 
L 1467.264176 316.44327 
L 1510.400022 316.44327 
L 1510.400022 291.932841 
L 1510.400022 267.422412 
L 1510.400022 242.911984 
L 1510.400022 218.401555 
L 1510.400022 193.891126 
L 1510.400022 169.380697 
L 1510.400022 144.870269 
L 1510.400022 120.35984 
L 1510.400022 95.849411 
L 1510.400022 71.338982 
L 1510.400022 46.828554 
L 1510.400022 22.318125 
L 1467.264176 22.318125 
L 1424.128329 22.318125 
L 1380.992483 22.318125 
L 1337.856637 22.318125 
L 1294.720791 22.318125 
L 1251.584945 22.318125 
L 1208.449098 22.318125 
L 1165.313252 22.318125 
L 1122.177406 22.318125 
L 1079.04156 22.318125 
L 1035.905713 22.318125 
L 992.769867 22.318125 
L 949.634021 22.318125 
L 906.498175 22.318125 
L 863.362328 22.318125 
L 820.226482 22.318125 
L 777.090636 22.318125 
L 733.95479 22.318125 
L 690.818944 22.318125 
L 647.683097 22.318125 
L 604.547251 22.318125 
L 561.411405 22.318125 
L 518.275559 22.318125 
L 475.139712 22.318125 
L 432.003866 22.318125 
L 388.86802 22.318125 
L 375.881209 22.318125 
L 382.139683 46.828554 
L 387.875201 71.338982 
L 388.86802 75.232605 
L 399.867449 95.849411 
L 411.491562 120.35984 
L 421.529299 144.870269 
L 430.222143 169.380697 
L 432.003866 173.856151 
L 449.189558 193.891126 
L 465.06547 218.401555 
L 475.139712 239.155704 
L 479.709236 242.911984 
L 504.249764 267.422412 
L 517.419552 291.932841 
z
" clip-path="url(#p0497d74b55)" style="fill: #56c667"/>
    <path d="M 216.324635 310.963345 
L 224.809158 316.44327 
L 242.7436 316.44327 
L 216.324635 297.121418 
L 212.106608 291.932841 
L 182.938255 267.422412 
L 173.188789 260.922811 
L 157.209448 242.911984 
L 130.052942 224.559441 
L 124.710102 218.401555 
L 92.464762 193.891126 
L 86.917096 190.413005 
L 68.604877 169.380697 
L 43.78125 153.509196 
L 35.602964 144.870269 
L 4.782854 120.35984 
L 0.645404 118.064694 
L -23.220751 95.849411 
L -42.490442 82.840815 
L -53.183823 71.338982 
L -85.626289 48.300685 
L -86.832901 46.828554 
L -116.187216 22.318125 
L -128.762135 22.318125 
L -146.323555 22.318125 
L -128.762135 41.274295 
L -118.447061 46.828554 
L -89.336402 71.338982 
L -85.626289 74.975803 
L -52.930451 95.849411 
L -42.490442 106.743694 
L -19.617457 120.35984 
L 0.645404 141.77684 
L 5.778841 144.870269 
L 39.538419 169.380697 
L 43.78125 173.714966 
L 74.398004 193.891126 
L 86.917096 207.095114 
L 105.685528 218.401555 
L 129.90757 242.911984 
L 130.052942 243.059535 
L 166.374192 267.422412 
L 173.188789 274.976748 
L 199.532847 291.932841 
z
M 475.139712 316.44327 
L 518.275559 316.44327 
L 534.179707 316.44327 
L 518.275559 295.022152 
L 517.419552 291.932841 
L 504.249764 267.422412 
L 479.709236 242.911984 
L 475.139712 239.155704 
L 465.06547 218.401555 
L 449.189558 193.891126 
L 432.003866 173.856151 
L 430.222143 169.380697 
L 421.529299 144.870269 
L 411.491562 120.35984 
L 399.867449 95.849411 
L 388.86802 75.232605 
L 387.875201 71.338982 
L 382.139683 46.828554 
L 375.881209 22.318125 
L 345.732174 22.318125 
L 302.596327 22.318125 
L 274.327165 22.318125 
L 289.088024 46.828554 
L 301.729708 71.338983 
L 302.596327 72.944088 
L 320.495761 95.849411 
L 336.229296 120.35984 
L 345.732174 136.57467 
L 353.215408 144.870269 
L 372.999416 169.380697 
L 388.572724 193.891126 
L 388.86802 194.325454 
L 412.608967 218.401555 
L 429.487872 242.911984 
L 432.003866 246.866841 
L 452.667037 267.422412 
L 467.788789 291.932841 
L 474.526235 316.44327 
z
" clip-path="url(#p0497d74b55)" style="fill: #77d153"/>
    <path d="M 216.324635 297.121418 
L 242.7436 316.44327 
L 257.203863 316.44327 
L 238.714383 291.932841 
L 216.324635 274.916263 
L 210.270698 267.422412 
L 185.865828 242.911984 
L 173.188789 231.893713 
L 162.732497 218.401555 
L 133.548078 193.891126 
L 130.052942 190.969949 
L 112.837152 169.380697 
L 86.917096 147.503069 
L 84.79952 144.870269 
L 63.513359 120.35984 
L 43.78125 102.412924 
L 38.3028 95.849411 
L 15.940588 71.338982 
L 0.645404 56.797008 
L -8.3339 46.828554 
L -30.154209 22.318125 
L -42.490442 22.318125 
L -85.626289 22.318125 
L -116.187216 22.318125 
L -86.832901 46.828554 
L -85.626289 48.300685 
L -53.183823 71.338982 
L -42.490442 82.840815 
L -23.220751 95.849411 
L 0.645404 118.064694 
L 4.782854 120.35984 
L 35.602964 144.870269 
L 43.78125 153.509196 
L 68.604877 169.380697 
L 86.917096 190.413005 
L 92.464762 193.891126 
L 124.710102 218.401555 
L 130.052942 224.559441 
L 157.209448 242.911984 
L 173.188789 260.922811 
L 182.938255 267.422412 
L 212.106608 291.932841 
z
M 432.003866 316.44327 
L 474.526235 316.44327 
L 467.788789 291.932841 
L 452.667037 267.422412 
L 432.003866 246.866841 
L 429.487872 242.911984 
L 412.608967 218.401555 
L 388.86802 194.325454 
L 388.572724 193.891126 
L 372.999416 169.380697 
L 353.215408 144.870269 
L 345.732174 136.57467 
L 336.229296 120.35984 
L 320.495761 95.849411 
L 302.596327 72.944088 
L 301.729708 71.338982 
L 289.088024 46.828554 
L 274.327165 22.318125 
L 259.460481 22.318125 
L 216.324635 22.318125 
L 185.93664 22.318125 
L 207.437014 46.828554 
L 216.324635 57.953237 
L 230.639402 71.338982 
L 252.267813 95.849411 
L 259.460481 104.499827 
L 276.653773 120.35984 
L 298.221798 144.870269 
L 302.596327 149.985006 
L 323.144253 169.380697 
L 344.773432 193.891126 
L 345.732174 195.041974 
L 368.586216 218.401555 
L 388.86802 242.479604 
L 389.353856 242.911984 
L 409.027115 267.422412 
L 423.436447 291.932841 
L 429.99414 316.44327 
z
" clip-path="url(#p0497d74b55)" style="fill: #9dd93b"/>
    <path d="M 259.460481 316.44327 
L 300.933852 316.44327 
L 288.945496 291.932841 
L 259.460481 268.931046 
L 258.794623 267.422412 
L 249.105261 242.911984 
L 231.352918 218.401555 
L 216.324635 206.502308 
L 212.635602 193.891126 
L 208.346408 169.380697 
L 216.324635 155.892508 
L 228.501294 169.380697 
L 259.460481 190.208433 
L 263.267968 193.891126 
L 287.278595 218.401555 
L 302.596327 230.552741 
L 313.992645 242.911984 
L 336.74522 267.422412 
L 345.732174 276.223745 
L 356.917814 291.932841 
L 368.250276 316.44327 
L 388.86802 316.44327 
L 429.99414 316.44327 
L 423.436447 291.932841 
L 409.027115 267.422412 
L 389.353856 242.911984 
L 388.86802 242.479604 
L 368.586216 218.401555 
L 345.732174 195.041974 
L 344.773432 193.891126 
L 323.144253 169.380697 
L 302.596327 149.985006 
L 298.221798 144.870269 
L 276.653773 120.35984 
L 259.460481 104.499827 
L 252.267813 95.849411 
L 230.639402 71.338982 
L 216.324635 57.953237 
L 207.437014 46.828554 
L 185.93664 22.318125 
L 173.188789 22.318125 
L 130.052942 22.318125 
L 86.917096 22.318125 
L 43.78125 22.318125 
L 0.645404 22.318125 
L -30.154209 22.318125 
L -8.3339 46.828554 
L 0.645404 56.797008 
L 15.940588 71.338982 
L 38.3028 95.849411 
L 43.78125 102.412924 
L 63.513359 120.35984 
L 84.79952 144.870269 
L 86.917096 147.503069 
L 112.837152 169.380697 
L 130.052942 190.969949 
L 133.548078 193.891126 
L 162.732497 218.401555 
L 173.188789 231.893713 
L 185.865828 242.911984 
L 210.270698 267.422412 
L 216.324635 274.916263 
L 238.714383 291.932841 
L 257.203863 316.44327 
z
" clip-path="url(#p0497d74b55)" style="fill: #c5e021"/>
    <path d="M 302.596327 316.44327 
L 345.732174 316.44327 
L 368.250276 316.44327 
L 356.917814 291.932841 
L 345.732174 276.223745 
L 336.74522 267.422412 
L 313.992645 242.911984 
L 302.596327 230.552741 
L 287.278595 218.401555 
L 263.267968 193.891126 
L 259.460481 190.208433 
L 228.501294 169.380697 
L 216.324635 155.892508 
L 208.346408 169.380697 
L 212.635602 193.891126 
L 216.324635 206.502308 
L 231.352918 218.401555 
L 249.105261 242.911984 
L 258.794623 267.422412 
L 259.460481 268.931046 
L 288.945496 291.932841 
L 300.933852 316.44327 
z
" clip-path="url(#p0497d74b55)" style="fill: #ece51b"/>
   </g>
   <g id="PathCollection_1">
    <defs>
     <path id="mdc0741d33a" d="M -3 3 
L 3 -3 
M -3 -3 
L 3 3 
" style="stroke: #ff0000; stroke-width: 1.5"/>
    </defs>
    <g clip-path="url(#p0497d74b55)">
     <use xlink:href="#mdc0741d33a" x="345.732174" y="316.44327" style="fill: #ff0000; stroke: #ff0000; stroke-width: 1.5"/>
     <use xlink:href="#mdc0741d33a" x="302.596327" y="291.932841" style="fill: #ff0000; stroke: #ff0000; stroke-width: 1.5"/>
     <use xlink:href="#mdc0741d33a" x="302.596327" y="267.422412" style="fill: #ff0000; stroke: #ff0000; stroke-width: 1.5"/>
     <use xlink:href="#mdc0741d33a" x="259.460481" y="242.911984" style="fill: #ff0000; stroke: #ff0000; stroke-width: 1.5"/>
     <use xlink:href="#mdc0741d33a" x="259.460481" y="218.401555" style="fill: #ff0000; stroke: #ff0000; stroke-width: 1.5"/>
     <use xlink:href="#mdc0741d33a" x="216.324635" y="193.891126" style="fill: #ff0000; stroke: #ff0000; stroke-width: 1.5"/>
     <use xlink:href="#mdc0741d33a" x="216.324635" y="169.380697" style="fill: #ff0000; stroke: #ff0000; stroke-width: 1.5"/>
     <use xlink:href="#mdc0741d33a" x="216.324635" y="144.870269" style="fill: #ff0000; stroke: #ff0000; stroke-width: 1.5"/>
     <use xlink:href="#mdc0741d33a" x="173.188789" y="120.35984" style="fill: #ff0000; stroke: #ff0000; stroke-width: 1.5"/>
     <use xlink:href="#mdc0741d33a" x="130.052942" y="95.849411" style="fill: #ff0000; stroke: #ff0000; stroke-width: 1.5"/>
     <use xlink:href="#mdc0741d33a" x="130.052942" y="71.338982" style="fill: #ff0000; stroke: #ff0000; stroke-width: 1.5"/>
     <use xlink:href="#mdc0741d33a" x="86.917096" y="46.828554" style="fill: #ff0000; stroke: #ff0000; stroke-width: 1.5"/>
     <use xlink:href="#mdc0741d33a" x="86.917096" y="22.318125" style="fill: #ff0000; stroke: #ff0000; stroke-width: 1.5"/>
    </g>
   </g>
   <g id="matplotlib.axis_1">
    <g id="xtick_1">
     <g id="line2d_1">
      <defs>
       <path id="m38f3b05bbe" d="M 0 0 
L 0 3.5 
" style="stroke: #000000; stroke-width: 0.8"/>
      </defs>
      <g>
       <use xlink:href="#m38f3b05bbe" x="130.052942" y="316.44327" style="stroke: #000000; stroke-width: 0.8"/>
      </g>
     </g>
     <g id="text_1">
      <!-- $\mathdefault{10^{-2}}$ -->
      <g transform="translate(118.302942 331.041707) scale(0.1 -0.1)">
       <defs>
        <path id="DejaVuSans-31" d="M 794 531 
L 1825 531 
L 1825 4091 
L 703 3866 
L 703 4441 
L 1819 4666 
L 2450 4666 
L 2450 531 
L 3481 531 
L 3481 0 
L 794 0 
L 794 531 
z
" transform="scale(0.015625)"/>
        <path id="DejaVuSans-30" d="M 2034 4250 
Q 1547 4250 1301 3770 
Q 1056 3291 1056 2328 
Q 1056 1369 1301 889 
Q 1547 409 2034 409 
Q 2525 409 2770 889 
Q 3016 1369 3016 2328 
Q 3016 3291 2770 3770 
Q 2525 4250 2034 4250 
z
M 2034 4750 
Q 2819 4750 3233 4129 
Q 3647 3509 3647 2328 
Q 3647 1150 3233 529 
Q 2819 -91 2034 -91 
Q 1250 -91 836 529 
Q 422 1150 422 2328 
Q 422 3509 836 4129 
Q 1250 4750 2034 4750 
z
" transform="scale(0.015625)"/>
        <path id="DejaVuSans-2212" d="M 678 2272 
L 4684 2272 
L 4684 1741 
L 678 1741 
L 678 2272 
z
" transform="scale(0.015625)"/>
        <path id="DejaVuSans-32" d="M 1228 531 
L 3431 531 
L 3431 0 
L 469 0 
L 469 531 
Q 828 903 1448 1529 
Q 2069 2156 2228 2338 
Q 2531 2678 2651 2914 
Q 2772 3150 2772 3378 
Q 2772 3750 2511 3984 
Q 2250 4219 1831 4219 
Q 1534 4219 1204 4116 
Q 875 4013 500 3803 
L 500 4441 
Q 881 4594 1212 4672 
Q 1544 4750 1819 4750 
Q 2544 4750 2975 4387 
Q 3406 4025 3406 3419 
Q 3406 3131 3298 2873 
Q 3191 2616 2906 2266 
Q 2828 2175 2409 1742 
Q 1991 1309 1228 531 
z
" transform="scale(0.015625)"/>
       </defs>
       <use xlink:href="#DejaVuSans-31" transform="translate(0 0.765625)"/>
       <use xlink:href="#DejaVuSans-30" transform="translate(63.623047 0.765625)"/>
       <use xlink:href="#DejaVuSans-2212" transform="translate(128.203125 39.046875) scale(0.7)"/>
       <use xlink:href="#DejaVuSans-32" transform="translate(186.855469 39.046875) scale(0.7)"/>
      </g>
     </g>
    </g>
    <g id="xtick_2">
     <g id="line2d_2">
      <g>
       <use xlink:href="#m38f3b05bbe" x="302.596327" y="316.44327" style="stroke: #000000; stroke-width: 0.8"/>
      </g>
     </g>
     <g id="text_2">
      <!-- $\mathdefault{10^{-1}}$ -->
      <g transform="translate(290.846327 331.041707) scale(0.1 -0.1)">
       <use xlink:href="#DejaVuSans-31" transform="translate(0 0.684375)"/>
       <use xlink:href="#DejaVuSans-30" transform="translate(63.623047 0.684375)"/>
       <use xlink:href="#DejaVuSans-2212" transform="translate(128.203125 38.965625) scale(0.7)"/>
       <use xlink:href="#DejaVuSans-31" transform="translate(186.855469 38.965625) scale(0.7)"/>
      </g>
     </g>
    </g>
    <g id="xtick_3">
     <g id="line2d_3">
      <defs>
       <path id="m360e1f0208" d="M 0 0 
L 0 2 
" style="stroke: #000000; stroke-width: 0.6"/>
      </defs>
      <g>
       <use xlink:href="#m360e1f0208" x="61.391026" y="316.44327" style="stroke: #000000; stroke-width: 0.6"/>
      </g>
     </g>
    </g>
    <g id="xtick_4">
     <g id="line2d_4">
      <g>
       <use xlink:href="#m360e1f0208" x="78.112208" y="316.44327" style="stroke: #000000; stroke-width: 0.6"/>
      </g>
     </g>
    </g>
    <g id="xtick_5">
     <g id="line2d_5">
      <g>
       <use xlink:href="#m360e1f0208" x="91.774408" y="316.44327" style="stroke: #000000; stroke-width: 0.6"/>
      </g>
     </g>
    </g>
    <g id="xtick_6">
     <g id="line2d_6">
      <g>
       <use xlink:href="#m360e1f0208" x="103.325634" y="316.44327" style="stroke: #000000; stroke-width: 0.6"/>
      </g>
     </g>
    </g>
    <g id="xtick_7">
     <g id="line2d_7">
      <g>
       <use xlink:href="#m360e1f0208" x="113.331761" y="316.44327" style="stroke: #000000; stroke-width: 0.6"/>
      </g>
     </g>
    </g>
    <g id="xtick_8">
     <g id="line2d_8">
      <g>
       <use xlink:href="#m360e1f0208" x="122.15779" y="316.44327" style="stroke: #000000; stroke-width: 0.6"/>
      </g>
     </g>
    </g>
    <g id="xtick_9">
     <g id="line2d_9">
      <g>
       <use xlink:href="#m360e1f0208" x="181.993677" y="316.44327" style="stroke: #000000; stroke-width: 0.6"/>
      </g>
     </g>
    </g>
    <g id="xtick_10">
     <g id="line2d_10">
      <g>
       <use xlink:href="#m360e1f0208" x="212.377059" y="316.44327" style="stroke: #000000; stroke-width: 0.6"/>
      </g>
     </g>
    </g>
    <g id="xtick_11">
     <g id="line2d_11">
      <g>
       <use xlink:href="#m360e1f0208" x="233.934411" y="316.44327" style="stroke: #000000; stroke-width: 0.6"/>
      </g>
     </g>
    </g>
    <g id="xtick_12">
     <g id="line2d_12">
      <g>
       <use xlink:href="#m360e1f0208" x="250.655593" y="316.44327" style="stroke: #000000; stroke-width: 0.6"/>
      </g>
     </g>
    </g>
    <g id="xtick_13">
     <g id="line2d_13">
      <g>
       <use xlink:href="#m360e1f0208" x="264.317793" y="316.44327" style="stroke: #000000; stroke-width: 0.6"/>
      </g>
     </g>
    </g>
    <g id="xtick_14">
     <g id="line2d_14">
      <g>
       <use xlink:href="#m360e1f0208" x="275.869019" y="316.44327" style="stroke: #000000; stroke-width: 0.6"/>
      </g>
     </g>
    </g>
    <g id="xtick_15">
     <g id="line2d_15">
      <g>
       <use xlink:href="#m360e1f0208" x="285.875146" y="316.44327" style="stroke: #000000; stroke-width: 0.6"/>
      </g>
     </g>
    </g>
    <g id="xtick_16">
     <g id="line2d_16">
      <g>
       <use xlink:href="#m360e1f0208" x="294.701175" y="316.44327" style="stroke: #000000; stroke-width: 0.6"/>
      </g>
     </g>
    </g>
    <g id="xtick_17">
     <g id="line2d_17">
      <g>
       <use xlink:href="#m360e1f0208" x="354.537062" y="316.44327" style="stroke: #000000; stroke-width: 0.6"/>
      </g>
     </g>
    </g>
    <g id="xtick_18">
     <g id="line2d_18">
      <g>
       <use xlink:href="#m360e1f0208" x="384.920444" y="316.44327" style="stroke: #000000; stroke-width: 0.6"/>
      </g>
     </g>
    </g>
    <g id="text_3">
     <!-- bandwidth -->
     <g transform="translate(189.962135 344.719832) scale(0.1 -0.1)">
      <defs>
       <path id="DejaVuSans-62" d="M 3116 1747 
Q 3116 2381 2855 2742 
Q 2594 3103 2138 3103 
Q 1681 3103 1420 2742 
Q 1159 2381 1159 1747 
Q 1159 1113 1420 752 
Q 1681 391 2138 391 
Q 2594 391 2855 752 
Q 3116 1113 3116 1747 
z
M 1159 2969 
Q 1341 3281 1617 3432 
Q 1894 3584 2278 3584 
Q 2916 3584 3314 3078 
Q 3713 2572 3713 1747 
Q 3713 922 3314 415 
Q 2916 -91 2278 -91 
Q 1894 -91 1617 61 
Q 1341 213 1159 525 
L 1159 0 
L 581 0 
L 581 4863 
L 1159 4863 
L 1159 2969 
z
" transform="scale(0.015625)"/>
       <path id="DejaVuSans-61" d="M 2194 1759 
Q 1497 1759 1228 1600 
Q 959 1441 959 1056 
Q 959 750 1161 570 
Q 1363 391 1709 391 
Q 2188 391 2477 730 
Q 2766 1069 2766 1631 
L 2766 1759 
L 2194 1759 
z
M 3341 1997 
L 3341 0 
L 2766 0 
L 2766 531 
Q 2569 213 2275 61 
Q 1981 -91 1556 -91 
Q 1019 -91 701 211 
Q 384 513 384 1019 
Q 384 1609 779 1909 
Q 1175 2209 1959 2209 
L 2766 2209 
L 2766 2266 
Q 2766 2663 2505 2880 
Q 2244 3097 1772 3097 
Q 1472 3097 1187 3025 
Q 903 2953 641 2809 
L 641 3341 
Q 956 3463 1253 3523 
Q 1550 3584 1831 3584 
Q 2591 3584 2966 3190 
Q 3341 2797 3341 1997 
z
" transform="scale(0.015625)"/>
       <path id="DejaVuSans-6e" d="M 3513 2113 
L 3513 0 
L 2938 0 
L 2938 2094 
Q 2938 2591 2744 2837 
Q 2550 3084 2163 3084 
Q 1697 3084 1428 2787 
Q 1159 2491 1159 1978 
L 1159 0 
L 581 0 
L 581 3500 
L 1159 3500 
L 1159 2956 
Q 1366 3272 1645 3428 
Q 1925 3584 2291 3584 
Q 2894 3584 3203 3211 
Q 3513 2838 3513 2113 
z
" transform="scale(0.015625)"/>
       <path id="DejaVuSans-64" d="M 2906 2969 
L 2906 4863 
L 3481 4863 
L 3481 0 
L 2906 0 
L 2906 525 
Q 2725 213 2448 61 
Q 2172 -91 1784 -91 
Q 1150 -91 751 415 
Q 353 922 353 1747 
Q 353 2572 751 3078 
Q 1150 3584 1784 3584 
Q 2172 3584 2448 3432 
Q 2725 3281 2906 2969 
z
M 947 1747 
Q 947 1113 1208 752 
Q 1469 391 1925 391 
Q 2381 391 2643 752 
Q 2906 1113 2906 1747 
Q 2906 2381 2643 2742 
Q 2381 3103 1925 3103 
Q 1469 3103 1208 2742 
Q 947 2381 947 1747 
z
" transform="scale(0.015625)"/>
       <path id="DejaVuSans-77" d="M 269 3500 
L 844 3500 
L 1563 769 
L 2278 3500 
L 2956 3500 
L 3675 769 
L 4391 3500 
L 4966 3500 
L 4050 0 
L 3372 0 
L 2619 2869 
L 1863 0 
L 1184 0 
L 269 3500 
z
" transform="scale(0.015625)"/>
       <path id="DejaVuSans-69" d="M 603 3500 
L 1178 3500 
L 1178 0 
L 603 0 
L 603 3500 
z
M 603 4863 
L 1178 4863 
L 1178 4134 
L 603 4134 
L 603 4863 
z
" transform="scale(0.015625)"/>
       <path id="DejaVuSans-74" d="M 1172 4494 
L 1172 3500 
L 2356 3500 
L 2356 3053 
L 1172 3053 
L 1172 1153 
Q 1172 725 1289 603 
Q 1406 481 1766 481 
L 2356 481 
L 2356 0 
L 1766 0 
Q 1100 0 847 248 
Q 594 497 594 1153 
L 594 3053 
L 172 3053 
L 172 3500 
L 594 3500 
L 594 4494 
L 1172 4494 
z
" transform="scale(0.015625)"/>
       <path id="DejaVuSans-68" d="M 3513 2113 
L 3513 0 
L 2938 0 
L 2938 2094 
Q 2938 2591 2744 2837 
Q 2550 3084 2163 3084 
Q 1697 3084 1428 2787 
Q 1159 2491 1159 1978 
L 1159 0 
L 581 0 
L 581 4863 
L 1159 4863 
L 1159 2956 
Q 1366 3272 1645 3428 
Q 1925 3584 2291 3584 
Q 2894 3584 3203 3211 
Q 3513 2838 3513 2113 
z
" transform="scale(0.015625)"/>
      </defs>
      <use xlink:href="#DejaVuSans-62"/>
      <use xlink:href="#DejaVuSans-61" transform="translate(63.476562 0)"/>
      <use xlink:href="#DejaVuSans-6e" transform="translate(124.755859 0)"/>
      <use xlink:href="#DejaVuSans-64" transform="translate(188.134766 0)"/>
      <use xlink:href="#DejaVuSans-77" transform="translate(251.611328 0)"/>
      <use xlink:href="#DejaVuSans-69" transform="translate(333.398438 0)"/>
      <use xlink:href="#DejaVuSans-64" transform="translate(361.181641 0)"/>
      <use xlink:href="#DejaVuSans-74" transform="translate(424.658203 0)"/>
      <use xlink:href="#DejaVuSans-68" transform="translate(463.867188 0)"/>
     </g>
    </g>
   </g>
   <g id="matplotlib.axis_2">
    <g id="ytick_1">
     <g id="line2d_19">
      <defs>
       <path id="mbd2f377c6c" d="M 0 0 
L -3.5 0 
" style="stroke: #000000; stroke-width: 0.8"/>
      </defs>
      <g>
       <use xlink:href="#mbd2f377c6c" x="43.78125" y="316.44327" style="stroke: #000000; stroke-width: 0.8"/>
      </g>
     </g>
     <g id="text_4">
      <!-- 1.0 -->
      <g transform="translate(20.878125 320.242489) scale(0.1 -0.1)">
       <defs>
        <path id="DejaVuSans-2e" d="M 684 794 
L 1344 794 
L 1344 0 
L 684 0 
L 684 794 
z
" transform="scale(0.015625)"/>
       </defs>
       <use xlink:href="#DejaVuSans-31"/>
       <use xlink:href="#DejaVuSans-2e" transform="translate(63.623047 0)"/>
       <use xlink:href="#DejaVuSans-30" transform="translate(95.410156 0)"/>
      </g>
     </g>
    </g>
    <g id="ytick_2">
     <g id="line2d_20">
      <g>
       <use xlink:href="#mbd2f377c6c" x="43.78125" y="267.422412" style="stroke: #000000; stroke-width: 0.8"/>
      </g>
     </g>
     <g id="text_5">
      <!-- 1.5 -->
      <g transform="translate(20.878125 271.221631) scale(0.1 -0.1)">
       <defs>
        <path id="DejaVuSans-35" d="M 691 4666 
L 3169 4666 
L 3169 4134 
L 1269 4134 
L 1269 2991 
Q 1406 3038 1543 3061 
Q 1681 3084 1819 3084 
Q 2600 3084 3056 2656 
Q 3513 2228 3513 1497 
Q 3513 744 3044 326 
Q 2575 -91 1722 -91 
Q 1428 -91 1123 -41 
Q 819 9 494 109 
L 494 744 
Q 775 591 1075 516 
Q 1375 441 1709 441 
Q 2250 441 2565 725 
Q 2881 1009 2881 1497 
Q 2881 1984 2565 2268 
Q 2250 2553 1709 2553 
Q 1456 2553 1204 2497 
Q 953 2441 691 2322 
L 691 4666 
z
" transform="scale(0.015625)"/>
       </defs>
       <use xlink:href="#DejaVuSans-31"/>
       <use xlink:href="#DejaVuSans-2e" transform="translate(63.623047 0)"/>
       <use xlink:href="#DejaVuSans-35" transform="translate(95.410156 0)"/>
      </g>
     </g>
    </g>
    <g id="ytick_3">
     <g id="line2d_21">
      <g>
       <use xlink:href="#mbd2f377c6c" x="43.78125" y="218.401555" style="stroke: #000000; stroke-width: 0.8"/>
      </g>
     </g>
     <g id="text_6">
      <!-- 2.0 -->
      <g transform="translate(20.878125 222.200774) scale(0.1 -0.1)">
       <use xlink:href="#DejaVuSans-32"/>
       <use xlink:href="#DejaVuSans-2e" transform="translate(63.623047 0)"/>
       <use xlink:href="#DejaVuSans-30" transform="translate(95.410156 0)"/>
      </g>
     </g>
    </g>
    <g id="ytick_4">
     <g id="line2d_22">
      <g>
       <use xlink:href="#mbd2f377c6c" x="43.78125" y="169.380697" style="stroke: #000000; stroke-width: 0.8"/>
      </g>
     </g>
     <g id="text_7">
      <!-- 2.5 -->
      <g transform="translate(20.878125 173.179916) scale(0.1 -0.1)">
       <use xlink:href="#DejaVuSans-32"/>
       <use xlink:href="#DejaVuSans-2e" transform="translate(63.623047 0)"/>
       <use xlink:href="#DejaVuSans-35" transform="translate(95.410156 0)"/>
      </g>
     </g>
    </g>
    <g id="ytick_5">
     <g id="line2d_23">
      <g>
       <use xlink:href="#mbd2f377c6c" x="43.78125" y="120.35984" style="stroke: #000000; stroke-width: 0.8"/>
      </g>
     </g>
     <g id="text_8">
      <!-- 3.0 -->
      <g transform="translate(20.878125 124.159059) scale(0.1 -0.1)">
       <defs>
        <path id="DejaVuSans-33" d="M 2597 2516 
Q 3050 2419 3304 2112 
Q 3559 1806 3559 1356 
Q 3559 666 3084 287 
Q 2609 -91 1734 -91 
Q 1441 -91 1130 -33 
Q 819 25 488 141 
L 488 750 
Q 750 597 1062 519 
Q 1375 441 1716 441 
Q 2309 441 2620 675 
Q 2931 909 2931 1356 
Q 2931 1769 2642 2001 
Q 2353 2234 1838 2234 
L 1294 2234 
L 1294 2753 
L 1863 2753 
Q 2328 2753 2575 2939 
Q 2822 3125 2822 3475 
Q 2822 3834 2567 4026 
Q 2313 4219 1838 4219 
Q 1578 4219 1281 4162 
Q 984 4106 628 3988 
L 628 4550 
Q 988 4650 1302 4700 
Q 1616 4750 1894 4750 
Q 2613 4750 3031 4423 
Q 3450 4097 3450 3541 
Q 3450 3153 3228 2886 
Q 3006 2619 2597 2516 
z
" transform="scale(0.015625)"/>
       </defs>
       <use xlink:href="#DejaVuSans-33"/>
       <use xlink:href="#DejaVuSans-2e" transform="translate(63.623047 0)"/>
       <use xlink:href="#DejaVuSans-30" transform="translate(95.410156 0)"/>
      </g>
     </g>
    </g>
    <g id="ytick_6">
     <g id="line2d_24">
      <g>
       <use xlink:href="#mbd2f377c6c" x="43.78125" y="71.338982" style="stroke: #000000; stroke-width: 0.8"/>
      </g>
     </g>
     <g id="text_9">
      <!-- 3.5 -->
      <g transform="translate(20.878125 75.138201) scale(0.1 -0.1)">
       <use xlink:href="#DejaVuSans-33"/>
       <use xlink:href="#DejaVuSans-2e" transform="translate(63.623047 0)"/>
       <use xlink:href="#DejaVuSans-35" transform="translate(95.410156 0)"/>
      </g>
     </g>
    </g>
    <g id="ytick_7">
     <g id="line2d_25">
      <g>
       <use xlink:href="#mbd2f377c6c" x="43.78125" y="22.318125" style="stroke: #000000; stroke-width: 0.8"/>
      </g>
     </g>
     <g id="text_10">
      <!-- 4.0 -->
      <g transform="translate(20.878125 26.117344) scale(0.1 -0.1)">
       <defs>
        <path id="DejaVuSans-34" d="M 2419 4116 
L 825 1625 
L 2419 1625 
L 2419 4116 
z
M 2253 4666 
L 3047 4666 
L 3047 1625 
L 3713 1625 
L 3713 1100 
L 3047 1100 
L 3047 0 
L 2419 0 
L 2419 1100 
L 313 1100 
L 313 1709 
L 2253 4666 
z
" transform="scale(0.015625)"/>
       </defs>
       <use xlink:href="#DejaVuSans-34"/>
       <use xlink:href="#DejaVuSans-2e" transform="translate(63.623047 0)"/>
       <use xlink:href="#DejaVuSans-30" transform="translate(95.410156 0)"/>
      </g>
     </g>
    </g>
    <g id="text_11">
     <!-- alpha -->
     <g transform="translate(14.798438 183.240854) rotate(-90) scale(0.1 -0.1)">
      <defs>
       <path id="DejaVuSans-6c" d="M 603 4863 
L 1178 4863 
L 1178 0 
L 603 0 
L 603 4863 
z
" transform="scale(0.015625)"/>
       <path id="DejaVuSans-70" d="M 1159 525 
L 1159 -1331 
L 581 -1331 
L 581 3500 
L 1159 3500 
L 1159 2969 
Q 1341 3281 1617 3432 
Q 1894 3584 2278 3584 
Q 2916 3584 3314 3078 
Q 3713 2572 3713 1747 
Q 3713 922 3314 415 
Q 2916 -91 2278 -91 
Q 1894 -91 1617 61 
Q 1341 213 1159 525 
z
M 3116 1747 
Q 3116 2381 2855 2742 
Q 2594 3103 2138 3103 
Q 1681 3103 1420 2742 
Q 1159 2381 1159 1747 
Q 1159 1113 1420 752 
Q 1681 391 2138 391 
Q 2594 391 2855 752 
Q 3116 1113 3116 1747 
z
" transform="scale(0.015625)"/>
      </defs>
      <use xlink:href="#DejaVuSans-61"/>
      <use xlink:href="#DejaVuSans-6c" transform="translate(61.279297 0)"/>
      <use xlink:href="#DejaVuSans-70" transform="translate(89.0625 0)"/>
      <use xlink:href="#DejaVuSans-68" transform="translate(152.539062 0)"/>
      <use xlink:href="#DejaVuSans-61" transform="translate(215.917969 0)"/>
     </g>
    </g>
   </g>
   <g id="patch_3">
    <path d="M 43.78125 316.44327 
L 43.78125 22.318125 
" style="fill: none; stroke: #000000; stroke-width: 0.8; stroke-linejoin: miter; stroke-linecap: square"/>
   </g>
   <g id="patch_4">
    <path d="M 388.86802 316.44327 
L 388.86802 22.318125 
" style="fill: none; stroke: #000000; stroke-width: 0.8; stroke-linejoin: miter; stroke-linecap: square"/>
   </g>
   <g id="patch_5">
    <path d="M 43.78125 316.44327 
L 388.86802 316.44327 
" style="fill: none; stroke: #000000; stroke-width: 0.8; stroke-linejoin: miter; stroke-linecap: square"/>
   </g>
   <g id="patch_6">
    <path d="M 43.78125 22.318125 
L 388.86802 22.318125 
" style="fill: none; stroke: #000000; stroke-width: 0.8; stroke-linejoin: miter; stroke-linecap: square"/>
   </g>
   <g id="text_12">
    <!-- lunas_lo 8527 fkdc -->
    <g transform="translate(160.133697 16.318125) scale(0.12 -0.12)">
     <defs>
      <path id="DejaVuSans-75" d="M 544 1381 
L 544 3500 
L 1119 3500 
L 1119 1403 
Q 1119 906 1312 657 
Q 1506 409 1894 409 
Q 2359 409 2629 706 
Q 2900 1003 2900 1516 
L 2900 3500 
L 3475 3500 
L 3475 0 
L 2900 0 
L 2900 538 
Q 2691 219 2414 64 
Q 2138 -91 1772 -91 
Q 1169 -91 856 284 
Q 544 659 544 1381 
z
M 1991 3584 
L 1991 3584 
z
" transform="scale(0.015625)"/>
      <path id="DejaVuSans-73" d="M 2834 3397 
L 2834 2853 
Q 2591 2978 2328 3040 
Q 2066 3103 1784 3103 
Q 1356 3103 1142 2972 
Q 928 2841 928 2578 
Q 928 2378 1081 2264 
Q 1234 2150 1697 2047 
L 1894 2003 
Q 2506 1872 2764 1633 
Q 3022 1394 3022 966 
Q 3022 478 2636 193 
Q 2250 -91 1575 -91 
Q 1294 -91 989 -36 
Q 684 19 347 128 
L 347 722 
Q 666 556 975 473 
Q 1284 391 1588 391 
Q 1994 391 2212 530 
Q 2431 669 2431 922 
Q 2431 1156 2273 1281 
Q 2116 1406 1581 1522 
L 1381 1569 
Q 847 1681 609 1914 
Q 372 2147 372 2553 
Q 372 3047 722 3315 
Q 1072 3584 1716 3584 
Q 2034 3584 2315 3537 
Q 2597 3491 2834 3397 
z
" transform="scale(0.015625)"/>
      <path id="DejaVuSans-5f" d="M 3263 -1063 
L 3263 -1509 
L -63 -1509 
L -63 -1063 
L 3263 -1063 
z
" transform="scale(0.015625)"/>
      <path id="DejaVuSans-6f" d="M 1959 3097 
Q 1497 3097 1228 2736 
Q 959 2375 959 1747 
Q 959 1119 1226 758 
Q 1494 397 1959 397 
Q 2419 397 2687 759 
Q 2956 1122 2956 1747 
Q 2956 2369 2687 2733 
Q 2419 3097 1959 3097 
z
M 1959 3584 
Q 2709 3584 3137 3096 
Q 3566 2609 3566 1747 
Q 3566 888 3137 398 
Q 2709 -91 1959 -91 
Q 1206 -91 779 398 
Q 353 888 353 1747 
Q 353 2609 779 3096 
Q 1206 3584 1959 3584 
z
" transform="scale(0.015625)"/>
      <path id="DejaVuSans-20" transform="scale(0.015625)"/>
      <path id="DejaVuSans-38" d="M 2034 2216 
Q 1584 2216 1326 1975 
Q 1069 1734 1069 1313 
Q 1069 891 1326 650 
Q 1584 409 2034 409 
Q 2484 409 2743 651 
Q 3003 894 3003 1313 
Q 3003 1734 2745 1975 
Q 2488 2216 2034 2216 
z
M 1403 2484 
Q 997 2584 770 2862 
Q 544 3141 544 3541 
Q 544 4100 942 4425 
Q 1341 4750 2034 4750 
Q 2731 4750 3128 4425 
Q 3525 4100 3525 3541 
Q 3525 3141 3298 2862 
Q 3072 2584 2669 2484 
Q 3125 2378 3379 2068 
Q 3634 1759 3634 1313 
Q 3634 634 3220 271 
Q 2806 -91 2034 -91 
Q 1263 -91 848 271 
Q 434 634 434 1313 
Q 434 1759 690 2068 
Q 947 2378 1403 2484 
z
M 1172 3481 
Q 1172 3119 1398 2916 
Q 1625 2713 2034 2713 
Q 2441 2713 2670 2916 
Q 2900 3119 2900 3481 
Q 2900 3844 2670 4047 
Q 2441 4250 2034 4250 
Q 1625 4250 1398 4047 
Q 1172 3844 1172 3481 
z
" transform="scale(0.015625)"/>
      <path id="DejaVuSans-37" d="M 525 4666 
L 3525 4666 
L 3525 4397 
L 1831 0 
L 1172 0 
L 2766 4134 
L 525 4134 
L 525 4666 
z
" transform="scale(0.015625)"/>
      <path id="DejaVuSans-66" d="M 2375 4863 
L 2375 4384 
L 1825 4384 
Q 1516 4384 1395 4259 
Q 1275 4134 1275 3809 
L 1275 3500 
L 2222 3500 
L 2222 3053 
L 1275 3053 
L 1275 0 
L 697 0 
L 697 3053 
L 147 3053 
L 147 3500 
L 697 3500 
L 697 3744 
Q 697 4328 969 4595 
Q 1241 4863 1831 4863 
L 2375 4863 
z
" transform="scale(0.015625)"/>
      <path id="DejaVuSans-6b" d="M 581 4863 
L 1159 4863 
L 1159 1991 
L 2875 3500 
L 3609 3500 
L 1753 1863 
L 3688 0 
L 2938 0 
L 1159 1709 
L 1159 0 
L 581 0 
L 581 4863 
z
" transform="scale(0.015625)"/>
      <path id="DejaVuSans-63" d="M 3122 3366 
L 3122 2828 
Q 2878 2963 2633 3030 
Q 2388 3097 2138 3097 
Q 1578 3097 1268 2742 
Q 959 2388 959 1747 
Q 959 1106 1268 751 
Q 1578 397 2138 397 
Q 2388 397 2633 464 
Q 2878 531 3122 666 
L 3122 134 
Q 2881 22 2623 -34 
Q 2366 -91 2075 -91 
Q 1284 -91 818 406 
Q 353 903 353 1747 
Q 353 2603 823 3093 
Q 1294 3584 2113 3584 
Q 2378 3584 2631 3529 
Q 2884 3475 3122 3366 
z
" transform="scale(0.015625)"/>
     </defs>
     <use xlink:href="#DejaVuSans-6c"/>
     <use xlink:href="#DejaVuSans-75" transform="translate(27.783203 0)"/>
     <use xlink:href="#DejaVuSans-6e" transform="translate(91.162109 0)"/>
     <use xlink:href="#DejaVuSans-61" transform="translate(154.541016 0)"/>
     <use xlink:href="#DejaVuSans-73" transform="translate(215.820312 0)"/>
     <use xlink:href="#DejaVuSans-5f" transform="translate(267.919922 0)"/>
     <use xlink:href="#DejaVuSans-6c" transform="translate(317.919922 0)"/>
     <use xlink:href="#DejaVuSans-6f" transform="translate(345.703125 0)"/>
     <use xlink:href="#DejaVuSans-20" transform="translate(406.884766 0)"/>
     <use xlink:href="#DejaVuSans-38" transform="translate(438.671875 0)"/>
     <use xlink:href="#DejaVuSans-35" transform="translate(502.294922 0)"/>
     <use xlink:href="#DejaVuSans-32" transform="translate(565.917969 0)"/>
     <use xlink:href="#DejaVuSans-37" transform="translate(629.541016 0)"/>
     <use xlink:href="#DejaVuSans-20" transform="translate(693.164062 0)"/>
     <use xlink:href="#DejaVuSans-66" transform="translate(724.951172 0)"/>
     <use xlink:href="#DejaVuSans-6b" transform="translate(760.15625 0)"/>
     <use xlink:href="#DejaVuSans-64" transform="translate(818.066406 0)"/>
     <use xlink:href="#DejaVuSans-63" transform="translate(881.542969 0)"/>
    </g>
   </g>
  </g>
  <g id="axes_2">
   <g id="patch_7">
    <path d="M 406.122358 316.44327 
L 420.828616 316.44327 
L 420.828616 22.318125 
L 406.122358 22.318125 
z
" style="fill: #ffffff"/>
   </g>
   <g id="QuadMesh_1">
    <path d="M 406.122358 316.44327 
L 420.828616 316.44327 
L 420.828616 299.141791 
L 406.122358 299.141791 
L 406.122358 316.44327 
" clip-path="url(#p5097c4bec0)" style="fill: #460b5e"/>
    <path d="M 406.122358 299.141791 
L 420.828616 299.141791 
L 420.828616 281.840312 
L 406.122358 281.840312 
L 406.122358 299.141791 
" clip-path="url(#p5097c4bec0)" style="fill: #482071"/>
    <path d="M 406.122358 281.840312 
L 420.828616 281.840312 
L 420.828616 264.538833 
L 406.122358 264.538833 
L 406.122358 281.840312 
" clip-path="url(#p5097c4bec0)" style="fill: #46337f"/>
    <path d="M 406.122358 264.538833 
L 420.828616 264.538833 
L 420.828616 247.237354 
L 406.122358 247.237354 
L 406.122358 264.538833 
" clip-path="url(#p5097c4bec0)" style="fill: #404588"/>
    <path d="M 406.122358 247.237354 
L 420.828616 247.237354 
L 420.828616 229.935874 
L 406.122358 229.935874 
L 406.122358 247.237354 
" clip-path="url(#p5097c4bec0)" style="fill: #39558c"/>
    <path d="M 406.122358 229.935874 
L 420.828616 229.935874 
L 420.828616 212.634395 
L 406.122358 212.634395 
L 406.122358 229.935874 
" clip-path="url(#p5097c4bec0)" style="fill: #32658e"/>
    <path d="M 406.122358 212.634395 
L 420.828616 212.634395 
L 420.828616 195.332916 
L 406.122358 195.332916 
L 406.122358 212.634395 
" clip-path="url(#p5097c4bec0)" style="fill: #2c738e"/>
    <path d="M 406.122358 195.332916 
L 420.828616 195.332916 
L 420.828616 178.031437 
L 406.122358 178.031437 
L 406.122358 195.332916 
" clip-path="url(#p5097c4bec0)" style="fill: #26828e"/>
    <path d="M 406.122358 178.031437 
L 420.828616 178.031437 
L 420.828616 160.729958 
L 406.122358 160.729958 
L 406.122358 178.031437 
" clip-path="url(#p5097c4bec0)" style="fill: #21918c"/>
    <path d="M 406.122358 160.729958 
L 420.828616 160.729958 
L 420.828616 143.428479 
L 406.122358 143.428479 
L 406.122358 160.729958 
" clip-path="url(#p5097c4bec0)" style="fill: #1f9f88"/>
    <path d="M 406.122358 143.428479 
L 420.828616 143.428479 
L 420.828616 126.127 
L 406.122358 126.127 
L 406.122358 143.428479 
" clip-path="url(#p5097c4bec0)" style="fill: #26ad81"/>
    <path d="M 406.122358 126.127 
L 420.828616 126.127 
L 420.828616 108.825521 
L 406.122358 108.825521 
L 406.122358 126.127 
" clip-path="url(#p5097c4bec0)" style="fill: #3aba76"/>
    <path d="M 406.122358 108.825521 
L 420.828616 108.825521 
L 420.828616 91.524041 
L 406.122358 91.524041 
L 406.122358 108.825521 
" clip-path="url(#p5097c4bec0)" style="fill: #56c667"/>
    <path d="M 406.122358 91.524041 
L 420.828616 91.524041 
L 420.828616 74.222562 
L 406.122358 74.222562 
L 406.122358 91.524041 
" clip-path="url(#p5097c4bec0)" style="fill: #77d153"/>
    <path d="M 406.122358 74.222562 
L 420.828616 74.222562 
L 420.828616 56.921083 
L 406.122358 56.921083 
L 406.122358 74.222562 
" clip-path="url(#p5097c4bec0)" style="fill: #9dd93b"/>
    <path d="M 406.122358 56.921083 
L 420.828616 56.921083 
L 420.828616 39.619604 
L 406.122358 39.619604 
L 406.122358 56.921083 
" clip-path="url(#p5097c4bec0)" style="fill: #c5e021"/>
    <path d="M 406.122358 39.619604 
L 420.828616 39.619604 
L 420.828616 22.318125 
L 406.122358 22.318125 
L 406.122358 39.619604 
" clip-path="url(#p5097c4bec0)" style="fill: #ece51b"/>
   </g>
   <g id="matplotlib.axis_3"/>
   <g id="matplotlib.axis_4">
    <g id="ytick_8">
     <g id="line2d_26">
      <defs>
       <path id="m0a27ea52cb" d="M 0 0 
L 3.5 0 
" style="stroke: #000000; stroke-width: 0.8"/>
      </defs>
      <g>
       <use xlink:href="#m0a27ea52cb" x="420.828616" y="299.141791" style="stroke: #000000; stroke-width: 0.8"/>
      </g>
     </g>
     <g id="text_13">
      <!-- -2.4 -->
      <g transform="translate(427.828616 302.94101) scale(0.1 -0.1)">
       <defs>
        <path id="DejaVuSans-2d" d="M 313 2009 
L 1997 2009 
L 1997 1497 
L 313 1497 
L 313 2009 
z
" transform="scale(0.015625)"/>
       </defs>
       <use xlink:href="#DejaVuSans-2d"/>
       <use xlink:href="#DejaVuSans-32" transform="translate(36.083984 0)"/>
       <use xlink:href="#DejaVuSans-2e" transform="translate(99.707031 0)"/>
       <use xlink:href="#DejaVuSans-34" transform="translate(131.494141 0)"/>
      </g>
     </g>
    </g>
    <g id="ytick_9">
     <g id="line2d_27">
      <g>
       <use xlink:href="#m0a27ea52cb" x="420.828616" y="264.538833" style="stroke: #000000; stroke-width: 0.8"/>
      </g>
     </g>
     <g id="text_14">
      <!-- -2.1 -->
      <g transform="translate(427.828616 268.338051) scale(0.1 -0.1)">
       <use xlink:href="#DejaVuSans-2d"/>
       <use xlink:href="#DejaVuSans-32" transform="translate(36.083984 0)"/>
       <use xlink:href="#DejaVuSans-2e" transform="translate(99.707031 0)"/>
       <use xlink:href="#DejaVuSans-31" transform="translate(131.494141 0)"/>
      </g>
     </g>
    </g>
    <g id="ytick_10">
     <g id="line2d_28">
      <g>
       <use xlink:href="#m0a27ea52cb" x="420.828616" y="229.935874" style="stroke: #000000; stroke-width: 0.8"/>
      </g>
     </g>
     <g id="text_15">
      <!-- -1.8 -->
      <g transform="translate(427.828616 233.735093) scale(0.1 -0.1)">
       <use xlink:href="#DejaVuSans-2d"/>
       <use xlink:href="#DejaVuSans-31" transform="translate(36.083984 0)"/>
       <use xlink:href="#DejaVuSans-2e" transform="translate(99.707031 0)"/>
       <use xlink:href="#DejaVuSans-38" transform="translate(131.494141 0)"/>
      </g>
     </g>
    </g>
    <g id="ytick_11">
     <g id="line2d_29">
      <g>
       <use xlink:href="#m0a27ea52cb" x="420.828616" y="195.332916" style="stroke: #000000; stroke-width: 0.8"/>
      </g>
     </g>
     <g id="text_16">
      <!-- -1.5 -->
      <g transform="translate(427.828616 199.132135) scale(0.1 -0.1)">
       <use xlink:href="#DejaVuSans-2d"/>
       <use xlink:href="#DejaVuSans-31" transform="translate(36.083984 0)"/>
       <use xlink:href="#DejaVuSans-2e" transform="translate(99.707031 0)"/>
       <use xlink:href="#DejaVuSans-35" transform="translate(131.494141 0)"/>
      </g>
     </g>
    </g>
    <g id="ytick_12">
     <g id="line2d_30">
      <g>
       <use xlink:href="#m0a27ea52cb" x="420.828616" y="160.729958" style="stroke: #000000; stroke-width: 0.8"/>
      </g>
     </g>
     <g id="text_17">
      <!-- -1.2 -->
      <g transform="translate(427.828616 164.529177) scale(0.1 -0.1)">
       <use xlink:href="#DejaVuSans-2d"/>
       <use xlink:href="#DejaVuSans-31" transform="translate(36.083984 0)"/>
       <use xlink:href="#DejaVuSans-2e" transform="translate(99.707031 0)"/>
       <use xlink:href="#DejaVuSans-32" transform="translate(131.494141 0)"/>
      </g>
     </g>
    </g>
    <g id="ytick_13">
     <g id="line2d_31">
      <g>
       <use xlink:href="#m0a27ea52cb" x="420.828616" y="126.127" style="stroke: #000000; stroke-width: 0.8"/>
      </g>
     </g>
     <g id="text_18">
      <!-- -0.9 -->
      <g transform="translate(427.828616 129.926218) scale(0.1 -0.1)">
       <defs>
        <path id="DejaVuSans-39" d="M 703 97 
L 703 672 
Q 941 559 1184 500 
Q 1428 441 1663 441 
Q 2288 441 2617 861 
Q 2947 1281 2994 2138 
Q 2813 1869 2534 1725 
Q 2256 1581 1919 1581 
Q 1219 1581 811 2004 
Q 403 2428 403 3163 
Q 403 3881 828 4315 
Q 1253 4750 1959 4750 
Q 2769 4750 3195 4129 
Q 3622 3509 3622 2328 
Q 3622 1225 3098 567 
Q 2575 -91 1691 -91 
Q 1453 -91 1209 -44 
Q 966 3 703 97 
z
M 1959 2075 
Q 2384 2075 2632 2365 
Q 2881 2656 2881 3163 
Q 2881 3666 2632 3958 
Q 2384 4250 1959 4250 
Q 1534 4250 1286 3958 
Q 1038 3666 1038 3163 
Q 1038 2656 1286 2365 
Q 1534 2075 1959 2075 
z
" transform="scale(0.015625)"/>
       </defs>
       <use xlink:href="#DejaVuSans-2d"/>
       <use xlink:href="#DejaVuSans-30" transform="translate(36.083984 0)"/>
       <use xlink:href="#DejaVuSans-2e" transform="translate(99.707031 0)"/>
       <use xlink:href="#DejaVuSans-39" transform="translate(131.494141 0)"/>
      </g>
     </g>
    </g>
    <g id="ytick_14">
     <g id="line2d_32">
      <g>
       <use xlink:href="#m0a27ea52cb" x="420.828616" y="91.524041" style="stroke: #000000; stroke-width: 0.8"/>
      </g>
     </g>
     <g id="text_19">
      <!-- -0.6 -->
      <g transform="translate(427.828616 95.32326) scale(0.1 -0.1)">
       <defs>
        <path id="DejaVuSans-36" d="M 2113 2584 
Q 1688 2584 1439 2293 
Q 1191 2003 1191 1497 
Q 1191 994 1439 701 
Q 1688 409 2113 409 
Q 2538 409 2786 701 
Q 3034 994 3034 1497 
Q 3034 2003 2786 2293 
Q 2538 2584 2113 2584 
z
M 3366 4563 
L 3366 3988 
Q 3128 4100 2886 4159 
Q 2644 4219 2406 4219 
Q 1781 4219 1451 3797 
Q 1122 3375 1075 2522 
Q 1259 2794 1537 2939 
Q 1816 3084 2150 3084 
Q 2853 3084 3261 2657 
Q 3669 2231 3669 1497 
Q 3669 778 3244 343 
Q 2819 -91 2113 -91 
Q 1303 -91 875 529 
Q 447 1150 447 2328 
Q 447 3434 972 4092 
Q 1497 4750 2381 4750 
Q 2619 4750 2861 4703 
Q 3103 4656 3366 4563 
z
" transform="scale(0.015625)"/>
       </defs>
       <use xlink:href="#DejaVuSans-2d"/>
       <use xlink:href="#DejaVuSans-30" transform="translate(36.083984 0)"/>
       <use xlink:href="#DejaVuSans-2e" transform="translate(99.707031 0)"/>
       <use xlink:href="#DejaVuSans-36" transform="translate(131.494141 0)"/>
      </g>
     </g>
    </g>
    <g id="ytick_15">
     <g id="line2d_33">
      <g>
       <use xlink:href="#m0a27ea52cb" x="420.828616" y="56.921083" style="stroke: #000000; stroke-width: 0.8"/>
      </g>
     </g>
     <g id="text_20">
      <!-- -0.3 -->
      <g transform="translate(427.828616 60.720302) scale(0.1 -0.1)">
       <use xlink:href="#DejaVuSans-2d"/>
       <use xlink:href="#DejaVuSans-30" transform="translate(36.083984 0)"/>
       <use xlink:href="#DejaVuSans-2e" transform="translate(99.707031 0)"/>
       <use xlink:href="#DejaVuSans-33" transform="translate(131.494141 0)"/>
      </g>
     </g>
    </g>
    <g id="ytick_16">
     <g id="line2d_34">
      <g>
       <use xlink:href="#m0a27ea52cb" x="420.828616" y="22.318125" style="stroke: #000000; stroke-width: 0.8"/>
      </g>
     </g>
     <g id="text_21">
      <!-- 0.0 -->
      <g transform="translate(427.828616 26.117344) scale(0.1 -0.1)">
       <use xlink:href="#DejaVuSans-30"/>
       <use xlink:href="#DejaVuSans-2e" transform="translate(63.623047 0)"/>
       <use xlink:href="#DejaVuSans-30" transform="translate(95.410156 0)"/>
      </g>
     </g>
    </g>
    <g id="text_22">
     <!-- Score -->
     <g transform="translate(458.937991 183.383041) rotate(-90) scale(0.1 -0.1)">
      <defs>
       <path id="DejaVuSans-53" d="M 3425 4513 
L 3425 3897 
Q 3066 4069 2747 4153 
Q 2428 4238 2131 4238 
Q 1616 4238 1336 4038 
Q 1056 3838 1056 3469 
Q 1056 3159 1242 3001 
Q 1428 2844 1947 2747 
L 2328 2669 
Q 3034 2534 3370 2195 
Q 3706 1856 3706 1288 
Q 3706 609 3251 259 
Q 2797 -91 1919 -91 
Q 1588 -91 1214 -16 
Q 841 59 441 206 
L 441 856 
Q 825 641 1194 531 
Q 1563 422 1919 422 
Q 2459 422 2753 634 
Q 3047 847 3047 1241 
Q 3047 1584 2836 1778 
Q 2625 1972 2144 2069 
L 1759 2144 
Q 1053 2284 737 2584 
Q 422 2884 422 3419 
Q 422 4038 858 4394 
Q 1294 4750 2059 4750 
Q 2388 4750 2728 4690 
Q 3069 4631 3425 4513 
z
" transform="scale(0.015625)"/>
       <path id="DejaVuSans-72" d="M 2631 2963 
Q 2534 3019 2420 3045 
Q 2306 3072 2169 3072 
Q 1681 3072 1420 2755 
Q 1159 2438 1159 1844 
L 1159 0 
L 581 0 
L 581 3500 
L 1159 3500 
L 1159 2956 
Q 1341 3275 1631 3429 
Q 1922 3584 2338 3584 
Q 2397 3584 2469 3576 
Q 2541 3569 2628 3553 
L 2631 2963 
z
" transform="scale(0.015625)"/>
       <path id="DejaVuSans-65" d="M 3597 1894 
L 3597 1613 
L 953 1613 
Q 991 1019 1311 708 
Q 1631 397 2203 397 
Q 2534 397 2845 478 
Q 3156 559 3463 722 
L 3463 178 
Q 3153 47 2828 -22 
Q 2503 -91 2169 -91 
Q 1331 -91 842 396 
Q 353 884 353 1716 
Q 353 2575 817 3079 
Q 1281 3584 2069 3584 
Q 2775 3584 3186 3129 
Q 3597 2675 3597 1894 
z
M 3022 2063 
Q 3016 2534 2758 2815 
Q 2500 3097 2075 3097 
Q 1594 3097 1305 2825 
Q 1016 2553 972 2059 
L 3022 2063 
z
" transform="scale(0.015625)"/>
      </defs>
      <use xlink:href="#DejaVuSans-53"/>
      <use xlink:href="#DejaVuSans-63" transform="translate(63.476562 0)"/>
      <use xlink:href="#DejaVuSans-6f" transform="translate(118.457031 0)"/>
      <use xlink:href="#DejaVuSans-72" transform="translate(179.638672 0)"/>
      <use xlink:href="#DejaVuSans-65" transform="translate(218.501953 0)"/>
     </g>
    </g>
   </g>
   <g id="LineCollection_1"/>
   <g id="patch_8">
    <path d="M 406.122358 316.44327 
L 413.475487 316.44327 
L 420.828616 316.44327 
L 420.828616 22.318125 
L 413.475487 22.318125 
L 406.122358 22.318125 
L 406.122358 316.44327 
z
" style="fill: none; stroke: #000000; stroke-width: 0.8; stroke-linejoin: miter; stroke-linecap: square"/>
   </g>
  </g>
 </g>
 <defs>
  <clipPath id="p0497d74b55">
   <rect x="43.78125" y="22.318125" width="345.08677" height="294.125145"/>
  </clipPath>
  <clipPath id="p5097c4bec0">
   <rect x="406.122358" y="22.318125" width="14.706257" height="294.125145"/>
  </clipPath>
 </defs>
</svg>
