<?xml version="1.0" encoding="utf-8" standalone="no"?>
<!DOCTYPE svg PUBLIC "-//W3C//DTD SVG 1.1//EN"
  "http://www.w3.org/Graphics/SVG/1.1/DTD/svg11.dtd">
<svg xmlns:xlink="http://www.w3.org/1999/xlink" width="460.8pt" height="345.6pt" viewBox="0 0 460.8 345.6" xmlns="http://www.w3.org/2000/svg" version="1.1">
 <metadata>
  <rdf:RDF xmlns:dc="http://purl.org/dc/elements/1.1/" xmlns:cc="http://creativecommons.org/ns#" xmlns:rdf="http://www.w3.org/1999/02/22-rdf-syntax-ns#">
   <cc:Work>
    <dc:type rdf:resource="http://purl.org/dc/dcmitype/StillImage"/>
    <dc:date>1970-01-01T00:00:00+00:00</dc:date>
    <dc:format>image/svg+xml</dc:format>
    <dc:creator>
     <cc:Agent>
      <dc:title>Matplotlib v3.10.7, https://matplotlib.org/</dc:title>
     </cc:Agent>
    </dc:creator>
   </cc:Work>
  </rdf:RDF>
 </metadata>
 <defs>
  <style type="text/css">*{stroke-linejoin: round; stroke-linecap: butt}</style>
 </defs>
 <g id="figure_1">
  <g id="patch_1">
   <path d="M 0 345.6 
L 460.8 345.6 
L 460.8 0 
L 0 0 
z
" style="fill: #ffffff"/>
  </g>
  <g id="axes_1">
   <g id="patch_2">
    <path d="M 39.58149 312.24351 
L 384.66826 312.24351 
L 384.66826 18.118365 
L 39.58149 18.118365 
z
" style="fill: #ffffff"/>
   </g>
   <g id="QuadContourSet_1">
    <path d="M 39.58149 289.880678 
L 43.297848 287.733081 
L 39.58149 286.091541 
L 36.619297 287.733081 
z
M -3.554356 269.274814 
L 7.033096 263.222652 
L -3.554356 258.389847 
L -12.549569 263.222652 
z
M -46.690202 238.779529 
L -46.577349 238.712224 
L -46.690202 238.664569 
L -46.783272 238.712224 
z
M -89.826049 219.314854 
L -81.399071 214.201795 
L -89.826049 210.49721 
L -97.032312 214.201795 
z
" clip-path="url(#p50bfc125c0)" style="fill: #460b5e"/>
    <path d="M -3.554356 287.817431 
L 39.540237 312.24351 
L 39.58149 312.24351 
L 82.717336 312.24351 
L 111.717631 312.24351 
L 82.717336 294.558785 
L 74.039863 287.733081 
L 39.58149 268.884056 
L 32.742939 263.222652 
L -3.554356 243.377198 
L -11.746072 238.712224 
L -46.690202 219.926508 
L -53.490711 214.201795 
L -89.826049 194.780063 
L -98.717459 189.691366 
L -132.961895 170.37007 
L -143.749115 165.180938 
L -176.097741 154.692717 
L -201.246688 140.670509 
L -219.233587 131.279535 
L -244.262783 116.16008 
L -262.369434 106.238129 
L -289.622197 91.649651 
L -305.50528 83.522946 
L -339.041466 67.139222 
L -348.641126 63.958114 
L -391.776972 49.168513 
L -391.776972 67.139223 
L -391.776972 70.810852 
L -353.722241 91.649651 
L -348.641126 94.852235 
L -309.704062 116.16008 
L -305.50528 118.109299 
L -265.023906 140.670509 
L -262.369434 142.027201 
L -220.769028 165.180938 
L -219.233587 166.167091 
L -177.271901 189.691366 
L -176.097741 190.472191 
L -133.753556 214.201795 
L -132.961895 214.781874 
L -90.573041 238.712224 
L -89.826049 239.225271 
L -47.190319 263.222652 
L -46.690202 263.603047 
L -3.67719 287.733081 
z
M 36.619297 287.733081 
L 39.58149 286.091541 
L 43.297848 287.733081 
L 39.58149 289.880678 
z
M -12.549569 263.222652 
L -3.554356 258.389847 
L 7.033096 263.222652 
L -3.554356 269.274814 
z
M -46.783272 238.712224 
L -46.690202 238.664569 
L -46.577349 238.712224 
L -46.690202 238.779529 
z
M -97.032312 214.201795 
L -89.826049 210.49721 
L -81.399071 214.201795 
L -89.826049 219.314854 
z
" clip-path="url(#p50bfc125c0)" style="fill: #482071"/>
    <path d="M -3.554356 292.45173 
L 33.049183 312.24351 
L 39.540237 312.24351 
L -3.554356 287.817431 
L -3.67719 287.733081 
L -46.690202 263.603047 
L -47.190319 263.222652 
L -89.826049 239.225271 
L -90.573041 238.712224 
L -132.961895 214.781874 
L -133.753556 214.201795 
L -176.097741 190.472191 
L -177.271901 189.691366 
L -219.233587 166.167091 
L -220.769028 165.180938 
L -262.369434 142.027201 
L -265.023906 140.670509 
L -305.50528 118.109299 
L -309.704062 116.16008 
L -348.641126 94.852235 
L -353.722241 91.649651 
L -391.776972 70.810852 
L -391.776972 87.920956 
L -383.392015 91.649651 
L -348.641126 109.776871 
L -334.72203 116.16008 
L -305.50528 127.709552 
L -279.676143 140.670509 
L -262.369434 148.709473 
L -230.59984 165.180938 
L -219.233587 172.023986 
L -185.731505 189.691366 
L -176.097741 195.750384 
L -141.318085 214.201795 
L -132.961895 220.026299 
L -98.026538 238.712224 
L -89.826049 244.073852 
L -54.065545 263.222652 
L -46.690202 268.583041 
L -10.755385 287.733081 
z
M 82.717336 294.558785 
L 111.717631 312.24351 
L 125.853182 312.24351 
L 130.58007 312.24351 
L 125.853182 309.744517 
L 91.332752 287.733081 
L 82.717336 283.228249 
L 50.025773 263.222652 
L 39.58149 257.696489 
L 8.79445 238.712224 
L -3.554356 231.956141 
L -32.0539 214.201795 
L -46.690202 206.374839 
L -73.462704 189.691366 
L -89.826049 181.360995 
L -114.339718 165.180938 
L -132.961895 155.724813 
L -167.086645 140.670509 
L -176.097741 136.41561 
L -206.695443 116.16008 
L -219.233587 110.190417 
L -246.16336 91.649651 
L -262.369434 83.406595 
L -286.760688 67.139223 
L -305.50528 57.265904 
L -332.951057 42.628794 
L -348.641126 37.374012 
L -391.776972 19.538874 
L -391.776972 42.628794 
L -391.776972 49.168513 
L -348.641126 63.958114 
L -339.041466 67.139223 
L -305.50528 83.522946 
L -289.622197 91.649651 
L -262.369434 106.238129 
L -244.262783 116.16008 
L -219.233587 131.279535 
L -201.246688 140.670509 
L -176.097741 154.692717 
L -143.749115 165.180938 
L -132.961895 170.37007 
L -98.717459 189.691366 
L -89.826049 194.780063 
L -53.490711 214.201795 
L -46.690202 219.926508 
L -11.746072 238.712224 
L -3.554356 243.377198 
L 32.742939 263.222652 
L 39.58149 268.884056 
L 74.039863 287.733081 
z
" clip-path="url(#p50bfc125c0)" style="fill: #46337f"/>
    <path d="M -3.554356 297.086029 
L 25.942069 312.24351 
L 33.049183 312.24351 
L -3.554356 292.45173 
L -10.755385 287.733081 
L -46.690202 268.583041 
L -54.065545 263.222652 
L -89.826049 244.073852 
L -98.026538 238.712224 
L -132.961895 220.026299 
L -141.318085 214.201795 
L -176.097741 195.750384 
L -185.731505 189.691366 
L -219.233587 172.023986 
L -230.59984 165.180938 
L -262.369434 148.709473 
L -279.676143 140.670509 
L -305.50528 127.709552 
L -334.72203 116.16008 
L -348.641126 109.776871 
L -383.392015 91.649651 
L -391.776972 87.920956 
L -391.776972 91.649651 
L -391.776972 96.98505 
L -354.40528 116.16008 
L -348.641126 120.378501 
L -305.50528 137.309806 
L -297.907346 140.670509 
L -262.369434 155.391746 
L -241.917949 165.180938 
L -219.233587 177.880881 
L -195.26913 189.691366 
L -176.097741 201.028578 
L -149.732876 214.201795 
L -132.961895 225.270723 
L -106.304134 238.712224 
L -89.826049 248.922433 
L -61.635883 263.222652 
L -46.690202 273.563036 
L -18.572587 287.733081 
z
M 125.853182 309.744517 
L 130.58007 312.24351 
L 141.530499 312.24351 
L 125.853182 303.312229 
L 103.16134 287.733081 
L 82.717336 276.1359 
L 63.305715 263.222652 
L 39.58149 249.460676 
L 23.721453 238.712224 
L -3.554356 222.154257 
L -15.004776 214.201795 
L -46.690202 195.104719 
L -54.37576 189.691366 
L -89.826049 169.042203 
L -94.989416 165.180938 
L -132.961895 143.062968 
L -137.449894 140.670509 
L -176.097741 118.197556 
L -178.668204 116.16008 
L -219.233587 92.616439 
L -220.422566 91.649651 
L -260.623953 67.139223 
L -262.369434 66.280211 
L -299.720332 42.628794 
L -305.50528 39.89863 
L -348.641126 21.966107 
L -355.841156 18.118365 
L -391.776972 18.118365 
L -391.776972 19.538874 
L -348.641126 37.374012 
L -332.951057 42.628794 
L -305.50528 57.265904 
L -286.760688 67.139223 
L -262.369434 83.406595 
L -246.16336 91.649651 
L -219.233587 110.190417 
L -206.695443 116.16008 
L -176.097741 136.41561 
L -167.086645 140.670509 
L -132.961895 155.724813 
L -114.339718 165.180938 
L -89.826049 181.360995 
L -73.462704 189.691366 
L -46.690202 206.374839 
L -32.0539 214.201795 
L -3.554356 231.956141 
L 8.79445 238.712224 
L 39.58149 257.696489 
L 50.025773 263.222652 
L 82.717336 283.228249 
L 91.332752 287.733081 
z
" clip-path="url(#p50bfc125c0)" style="fill: #404588"/>
    <path d="M -3.554356 301.720328 
L 18.089574 312.24351 
L 25.942069 312.24351 
L -3.554356 297.086029 
L -18.572587 287.733081 
L -46.690202 273.563036 
L -61.635883 263.222652 
L -89.826049 248.922433 
L -106.304134 238.712224 
L -132.961895 225.270723 
L -149.732876 214.201795 
L -176.097741 201.028578 
L -195.26913 189.691366 
L -219.233587 177.880881 
L -241.917949 165.180938 
L -262.369434 155.391746 
L -297.907346 140.670509 
L -305.50528 137.309806 
L -348.641126 120.378501 
L -354.40528 116.16008 
L -391.776972 96.98505 
L -391.776972 103.807144 
L -365.682135 116.16008 
L -348.641126 127.749446 
L -314.946389 140.670509 
L -305.50528 146.177152 
L -262.369434 162.074018 
L -255.254999 165.180938 
L -219.233587 183.737776 
L -206.200209 189.691366 
L -176.097741 206.306771 
L -159.213562 214.201795 
L -132.961895 230.515148 
L -115.610979 238.712224 
L -89.826049 253.771014 
L -70.057865 263.222652 
L -46.690202 278.54303 
L -27.301292 287.733081 
z
M 125.853182 303.312229 
L 141.530499 312.24351 
L 151.082847 312.24351 
L 125.853182 296.879941 
L 113.374817 287.733081 
L 82.717336 269.043552 
L 74.5827 263.222652 
L 39.58149 241.224863 
L 36.163215 238.712224 
L -0.460849 214.201795 
L -3.554356 212.628604 
L -37.953435 189.691366 
L -46.690202 185.322368 
L -77.846416 165.180938 
L -89.826049 158.998966 
L -117.953717 140.670509 
L -132.961895 132.653738 
L -158.166349 116.16008 
L -176.097741 106.325012 
L -198.20507 91.649651 
L -219.233587 79.96928 
L -237.483937 67.139223 
L -262.369434 52.782022 
L -276.197225 42.628794 
L -305.50528 26.347128 
L -321.831199 18.118365 
L -348.641126 18.118365 
L -355.841156 18.118365 
L -348.641126 21.966107 
L -305.50528 39.89863 
L -299.720332 42.628794 
L -262.369434 66.280211 
L -260.623953 67.139223 
L -220.422566 91.649651 
L -219.233587 92.616439 
L -178.668204 116.16008 
L -176.097741 118.197556 
L -137.449894 140.670509 
L -132.961895 143.062968 
L -94.989416 165.180937 
L -89.826049 169.042203 
L -54.37576 189.691366 
L -46.690202 195.104719 
L -15.004776 214.201795 
L -3.554356 222.154257 
L 23.721453 238.712224 
L 39.58149 249.460676 
L 63.305715 263.222652 
L 82.717336 276.1359 
L 103.16134 287.733081 
z
" clip-path="url(#p50bfc125c0)" style="fill: #39558c"/>
    <path d="M -3.554356 306.354627 
L 9.316833 312.24351 
L 18.089574 312.24351 
L -3.554356 301.720328 
L -27.301292 287.733081 
L -46.690202 278.54303 
L -70.057865 263.222652 
L -89.826049 253.771014 
L -115.610979 238.712224 
L -132.961895 230.515148 
L -159.213562 214.201795 
L -176.097741 206.306771 
L -206.200209 189.691366 
L -219.233587 183.737776 
L -255.254999 165.180938 
L -262.369434 162.074018 
L -305.50528 146.177152 
L -314.946389 140.670509 
L -348.641126 127.749446 
L -365.682135 116.16008 
L -391.776972 103.807144 
L -391.776972 110.629237 
L -378.961897 116.16008 
L -348.641126 135.120391 
L -332.287687 140.670509 
L -305.50528 154.649744 
L -272.951744 165.180938 
L -262.369434 173.318929 
L -219.233587 189.594671 
L -219.002737 189.691366 
L -176.097741 211.584965 
L -170.069884 214.201795 
L -132.961895 235.759572 
L -126.239866 238.712224 
L -89.826049 258.619595 
L -79.547683 263.222652 
L -46.690202 283.523025 
L -37.182472 287.733081 
z
M 125.853182 296.879941 
L 151.082847 312.24351 
L 159.554027 312.24351 
L 125.853182 290.447654 
L 122.361723 287.733081 
L 85.130654 263.222652 
L 82.717336 261.853097 
L 49.743091 238.712224 
L 39.58149 233.016445 
L 14.091674 214.201795 
L -3.554356 204.290736 
L -23.559751 189.691366 
L -46.690202 176.915146 
L -63.241284 165.180938 
L -89.826049 149.994631 
L -102.82073 140.670509 
L -132.961895 122.769299 
L -142.070357 116.16008 
L -176.097741 95.251501 
L -180.950289 91.649651 
L -219.233587 67.608937 
L -219.828957 67.139223 
L -256.158221 42.628794 
L -262.369434 39.480283 
L -295.202847 18.118365 
L -305.50528 18.118365 
L -321.831199 18.118365 
L -305.50528 26.347128 
L -276.197225 42.628794 
L -262.369434 52.782022 
L -237.483937 67.139223 
L -219.233587 79.96928 
L -198.20507 91.649651 
L -176.097741 106.325012 
L -158.166349 116.16008 
L -132.961895 132.653738 
L -117.953717 140.670509 
L -89.826049 158.998966 
L -77.846416 165.180938 
L -46.690202 185.322368 
L -37.953435 189.691366 
L -3.554356 212.628604 
L -0.460849 214.201795 
L 36.163215 238.712224 
L 39.58149 241.224863 
L 74.5827 263.222652 
L 82.717336 269.043552 
L 113.374817 287.733081 
z
" clip-path="url(#p50bfc125c0)" style="fill: #32658e"/>
    <path d="M -46.690202 288.598577 
L -3.554356 310.988926 
L -0.620836 312.24351 
L 9.316833 312.24351 
L -3.554356 306.354627 
L -37.182472 287.733081 
L -46.690202 283.523025 
L -79.547683 263.222652 
L -89.826049 258.619595 
L -126.239866 238.712224 
L -132.961895 235.759572 
L -170.069884 214.201795 
L -176.097741 211.584965 
L -219.002737 189.691366 
L -219.233587 189.594671 
L -262.369434 173.318929 
L -272.951744 165.180938 
L -305.50528 154.649744 
L -332.287687 140.670509 
L -348.641126 135.120391 
L -378.961897 116.16008 
L -391.776972 110.629237 
L -391.776972 116.16008 
L -391.776972 119.984594 
L -355.303992 140.670509 
L -348.641126 143.35825 
L -305.50528 163.122336 
L -297.931632 165.180938 
L -262.369434 188.528695 
L -258.277189 189.691366 
L -219.834086 214.201795 
L -219.233587 214.668768 
L -176.097741 222.290091 
L -143.477549 238.712224 
L -132.961895 243.181632 
L -90.656813 263.222652 
L -89.826049 263.53138 
L -47.929826 287.733081 
z
M 125.853182 290.447654 
L 159.554027 312.24351 
L 167.164085 312.24351 
L 132.363967 287.733081 
L 125.853182 283.864109 
L 97.329058 263.222652 
L 82.717336 254.213492 
L 62.303711 238.712224 
L 39.58149 224.820055 
L 26.27243 214.201795 
L -3.554356 195.952868 
L -11.490374 189.691366 
L -46.690202 168.507924 
L -51.023727 165.180938 
L -89.826049 140.990295 
L -90.236341 140.670509 
L -125.592773 116.16008 
L -132.961895 112.046028 
L -160.792928 91.649651 
L -176.097741 83.147397 
L -197.56123 67.139223 
L -219.233587 55.021835 
L -235.2973 42.628794 
L -262.369434 26.774843 
L -274.000196 18.118365 
L -295.202847 18.118365 
L -262.369434 39.480283 
L -256.158221 42.628794 
L -219.828957 67.139223 
L -219.233587 67.608937 
L -180.950289 91.649651 
L -176.097741 95.251501 
L -142.070357 116.16008 
L -132.961895 122.769299 
L -102.82073 140.670509 
L -89.826049 149.994631 
L -63.241284 165.180938 
L -46.690202 176.915146 
L -23.559751 189.691366 
L -3.554356 204.290736 
L 14.091674 214.201795 
L 39.58149 233.016445 
L 49.743091 238.712224 
L 82.717336 261.853097 
L 85.130654 263.222652 
L 122.361723 287.733081 
z
" clip-path="url(#p50bfc125c0)" style="fill: #2c738e"/>
    <path d="M -46.690202 294.196643 
L -9.862982 312.24351 
L -3.554356 312.24351 
L -0.620836 312.24351 
L -3.554356 310.988926 
L -46.690202 288.598577 
L -47.929826 287.733081 
L -89.826049 263.53138 
L -90.656813 263.222652 
L -132.961895 243.181632 
L -143.477549 238.712224 
L -176.097741 222.290091 
L -219.233587 214.668768 
L -219.834086 214.201795 
L -258.277189 189.691366 
L -262.369434 188.528695 
L -297.931632 165.180938 
L -305.50528 163.122336 
L -348.641126 143.35825 
L -355.303992 140.670509 
L -391.776972 119.984594 
L -391.776972 140.190734 
L -390.695125 140.670509 
L -348.641126 154.238571 
L -321.106944 165.180938 
L -305.50528 172.146524 
L -273.916554 189.691366 
L -262.369434 195.505844 
L -228.491799 214.201795 
L -219.233587 221.001543 
L -176.097741 238.33134 
L -175.155705 238.712224 
L -132.961895 253.409291 
L -109.289946 263.222652 
L -89.826049 269.628111 
L -56.484726 287.733081 
z
M 168.989029 312.24351 
L 176.698382 312.24351 
L 168.989029 307.815563 
L 142.443842 287.733081 
L 125.853182 277.17012 
L 107.816927 263.222652 
L 82.717336 246.573887 
L 73.05806 238.712224 
L 39.58149 216.623664 
L 36.747258 214.201795 
L 0.377541 189.691366 
L -3.554356 187.498381 
L -36.22745 165.180938 
L -46.690202 159.014802 
L -71.811942 140.670509 
L -89.826049 129.564939 
L -106.938809 116.16008 
L -132.961895 99.630041 
L -142.658993 91.649651 
L -176.097741 70.546475 
L -180.17927 67.139223 
L -218.827939 42.628794 
L -219.233587 42.40084 
L -253.753978 18.118365 
L -262.369434 18.118365 
L -274.000196 18.118365 
L -262.369434 26.774843 
L -235.2973 42.628794 
L -219.233587 55.021835 
L -197.56123 67.139223 
L -176.097741 83.147397 
L -160.792928 91.649651 
L -132.961895 112.046028 
L -125.592773 116.16008 
L -90.236341 140.670509 
L -89.826049 140.990295 
L -51.023727 165.180938 
L -46.690202 168.507924 
L -11.490374 189.691366 
L -3.554356 195.952868 
L 26.27243 214.201795 
L 39.58149 224.820055 
L 62.303711 238.712224 
L 82.717336 254.213492 
L 97.329058 263.222652 
L 125.853182 283.864109 
L 132.363967 287.733081 
L 167.164085 312.24351 
z
" clip-path="url(#p50bfc125c0)" style="fill: #26828e"/>
    <path d="M -46.690202 299.794708 
L -19.479486 312.24351 
L -9.862982 312.24351 
L -46.690202 294.196643 
L -56.484726 287.733081 
L -89.826049 269.628111 
L -109.289946 263.222652 
L -132.961895 253.409291 
L -175.155705 238.712224 
L -176.097741 238.33134 
L -219.233587 221.001543 
L -228.491799 214.201795 
L -262.369434 195.505844 
L -273.916554 189.691366 
L -305.50528 172.146524 
L -321.106944 165.180938 
L -348.641126 154.238571 
L -390.695125 140.670509 
L -391.776972 140.190734 
L -391.776972 140.670509 
L -391.776972 149.265063 
L -348.641126 165.118892 
L -348.452695 165.180938 
L -305.50528 181.347751 
L -288.823268 189.691366 
L -262.369434 201.801584 
L -238.282073 214.201795 
L -219.233587 227.334319 
L -188.637056 238.712224 
L -176.097741 246.469855 
L -133.582713 263.222652 
L -132.961895 263.71658 
L -89.826049 275.724842 
L -66.143692 287.733081 
z
M 168.989029 307.815563 
L 176.698382 312.24351 
L 185.941514 312.24351 
L 168.989029 301.869729 
L 151.32718 287.733081 
L 125.853182 270.476131 
L 117.015516 263.222652 
L 82.717336 238.934282 
L 82.460918 238.712224 
L 49.350012 214.201795 
L 39.58149 208.545987 
L 14.368138 189.691366 
L -3.554356 178.692217 
L -21.593802 165.180938 
L -46.690202 148.810537 
L -56.815784 140.670509 
L -89.826049 118.050436 
L -92.015239 116.16008 
L -125.995285 91.649651 
L -132.961895 87.75085 
L -161.389095 67.139223 
L -176.097741 58.305728 
L -197.179216 42.628794 
L -219.233587 28.257657 
L -231.777498 18.118365 
L -253.753978 18.118365 
L -219.233587 42.40084 
L -218.827939 42.628794 
L -180.17927 67.139223 
L -176.097741 70.546475 
L -142.658993 91.649651 
L -132.961895 99.630041 
L -106.938809 116.16008 
L -89.826049 129.564939 
L -71.811942 140.670509 
L -46.690202 159.014802 
L -36.22745 165.180938 
L -3.554356 187.498381 
L 0.377541 189.691366 
L 36.747258 214.201795 
L 39.58149 216.623664 
L 73.05806 238.712224 
L 82.717336 246.573887 
L 107.816927 263.222652 
L 125.853182 277.17012 
L 142.443842 287.733081 
z
" clip-path="url(#p50bfc125c0)" style="fill: #21918c"/>
    <path d="M -46.690202 305.392774 
L -30.514346 312.24351 
L -19.479486 312.24351 
L -46.690202 299.794708 
L -66.143692 287.733081 
L -89.826049 275.724842 
L -132.961895 263.71658 
L -133.582713 263.222652 
L -176.097741 246.469855 
L -188.637056 238.712224 
L -219.233587 227.334319 
L -238.282073 214.201795 
L -262.369434 201.801584 
L -288.823268 189.691366 
L -305.50528 181.347751 
L -348.452695 165.180938 
L -348.641126 165.118892 
L -391.776972 149.265063 
L -391.776972 158.06865 
L -369.350477 165.180938 
L -348.641126 176.05506 
L -307.821772 189.691366 
L -305.50528 191.592829 
L -262.369434 208.097323 
L -249.546458 214.201795 
L -219.233587 233.667095 
L -204.11186 238.712224 
L -176.097741 254.416164 
L -150.809008 263.222652 
L -132.961895 275.910052 
L -89.826049 281.821572 
L -77.234525 287.733081 
z
M 168.989029 301.869729 
L 185.941514 312.24351 
L 194.168686 312.24351 
L 168.989029 295.923896 
L 159.268148 287.733081 
L 125.853182 263.782142 
L 125.207387 263.222652 
L 95.718105 238.712224 
L 82.717336 231.285426 
L 61.337673 214.201795 
L 39.58149 200.5181 
L 26.153055 189.691366 
L -3.554356 169.886053 
L -9.356315 165.180938 
L -42.938851 140.670509 
L -46.690202 138.6113 
L -75.301727 116.16008 
L -89.826049 107.376547 
L -109.363735 91.649651 
L -132.961895 76.837447 
L -145.011956 67.139223 
L -176.097741 46.198466 
L -180.403265 42.628794 
L -212.565602 18.118365 
L -219.233587 18.118365 
L -231.777498 18.118365 
L -219.233587 28.257657 
L -197.179216 42.628794 
L -176.097741 58.305728 
L -161.389095 67.139223 
L -132.961895 87.75085 
L -125.995285 91.649651 
L -92.015239 116.16008 
L -89.826049 118.050436 
L -56.815784 140.670509 
L -46.690202 148.810537 
L -21.593802 165.180938 
L -3.554356 178.692217 
L 14.368138 189.691366 
L 39.58149 208.545987 
L 49.350012 214.201795 
L 82.460918 238.712224 
L 82.717336 238.934282 
L 117.015516 263.222652 
L 125.853182 270.476131 
L 151.32718 287.733081 
z
" clip-path="url(#p50bfc125c0)" style="fill: #1f9f88"/>
    <path d="M -132.961895 288.221393 
L -89.826049 288.129697 
L -46.690202 310.99084 
L -43.45956 312.24351 
L -30.514346 312.24351 
L -46.690202 305.392774 
L -77.234525 287.733081 
L -89.826049 281.821572 
L -132.961895 275.910052 
L -150.809008 263.222652 
L -176.097741 254.416164 
L -204.11186 238.712224 
L -219.233587 233.667095 
L -249.546458 214.201795 
L -262.369434 208.097323 
L -305.50528 191.592829 
L -307.821772 189.691366 
L -348.641126 176.05506 
L -369.350477 165.180938 
L -391.776972 158.06865 
L -391.776972 165.180938 
L -391.776972 189.691366 
L -391.776972 189.790955 
L -390.125696 189.691366 
L -348.641126 186.991548 
L -338.601237 189.691366 
L -348.641126 201.088273 
L -353.288197 214.201795 
L -348.641126 217.833146 
L -315.149722 214.201795 
L -305.50528 211.993449 
L -269.925017 214.201795 
L -262.499454 238.712224 
L -262.369434 238.815828 
L -219.233587 240.983094 
L -176.097741 262.362473 
L -173.215855 263.222652 
L -133.521152 287.733081 
z
M 168.989029 295.923896 
L 194.168686 312.24351 
L 201.581282 312.24351 
L 168.989029 289.978062 
L 166.447647 287.733081 
L 139.264106 263.222652 
L 125.853182 255.567166 
L 107.100865 238.712224 
L 82.717336 223.636293 
L 71.669466 214.201795 
L 39.58149 192.490212 
L 36.333974 189.691366 
L 5.504879 165.180938 
L -3.554356 160.282527 
L -26.736186 140.670509 
L -46.690202 128.431894 
L -60.967643 116.16008 
L -89.826049 96.867769 
L -95.761348 91.649651 
L -130.274475 67.139223 
L -132.961895 65.676895 
L -161.007819 42.628794 
L -176.097741 32.970757 
L -192.862537 18.118365 
L -212.565602 18.118365 
L -180.403265 42.628794 
L -176.097741 46.198466 
L -145.011956 67.139223 
L -132.961895 76.837447 
L -109.363735 91.649651 
L -89.826049 107.376547 
L -75.301727 116.16008 
L -46.690202 138.6113 
L -42.938851 140.670509 
L -9.356315 165.180938 
L -3.554356 169.886053 
L 26.153055 189.691366 
L 39.58149 200.5181 
L 61.337673 214.201795 
L 82.717336 231.285426 
L 95.718105 238.712224 
L 125.207387 263.222652 
L 125.853182 263.782142 
L 159.268148 287.733081 
z
" clip-path="url(#p50bfc125c0)" style="fill: #26ad81"/>
    <path d="M -132.961895 304.294609 
L -89.826049 301.184649 
L -64.285326 312.24351 
L -46.690202 312.24351 
L -43.45956 312.24351 
L -46.690202 310.99084 
L -89.826049 288.129697 
L -132.961895 288.221393 
L -133.521152 287.733081 
L -173.215855 263.222652 
L -176.097741 262.362473 
L -219.233587 240.983094 
L -262.369434 238.815828 
L -262.499454 238.712224 
L -269.925017 214.201795 
L -305.50528 211.993449 
L -315.149722 214.201795 
L -348.641126 217.833146 
L -353.288197 214.201795 
L -348.641126 201.088273 
L -338.601237 189.691366 
L -348.641126 186.991548 
L -390.125696 189.691366 
L -391.776972 189.790955 
L -391.776972 203.479113 
L -372.411569 214.201795 
L -348.641126 230.617512 
L -305.50528 226.899758 
L -282.934332 238.712224 
L -262.369434 253.055184 
L -219.233587 252.151462 
L -193.502143 263.222652 
L -176.097741 276.472721 
L -154.737453 287.733081 
z
M 168.989029 289.978062 
L 201.581282 312.24351 
L 208.326172 312.24351 
L 180.215482 287.733081 
L 168.989029 281.228049 
L 151.591448 263.222652 
L 125.853182 247.21347 
L 116.980394 238.712224 
L 82.717336 215.987161 
L 80.747817 214.201795 
L 53.185262 189.691366 
L 39.58149 181.733114 
L 21.896783 165.180938 
L -3.554356 149.764191 
L -13.421668 140.670509 
L -46.690202 118.252487 
L -48.940162 116.16008 
L -77.22198 91.649651 
L -89.826049 84.659835 
L -109.676044 67.139223 
L -132.961895 52.543871 
L -143.769586 42.628794 
L -176.097741 19.274575 
L -177.276361 18.118365 
L -192.862537 18.118365 
L -176.097741 32.970757 
L -161.007819 42.628794 
L -132.961895 65.676895 
L -130.274475 67.139223 
L -95.761348 91.649651 
L -89.826049 96.867769 
L -60.967643 116.16008 
L -46.690202 128.431894 
L -26.736186 140.670509 
L -3.554356 160.282527 
L 5.504879 165.180938 
L 36.333974 189.691366 
L 39.58149 192.490212 
L 71.669466 214.201795 
L 82.717336 223.636293 
L 107.100865 238.712224 
L 125.853182 255.567166 
L 139.264106 263.222652 
L 166.447647 287.733081 
z
" clip-path="url(#p50bfc125c0)" style="fill: #3aba76"/>
    <path d="M -348.641126 312.24351 
L -305.50528 312.24351 
L -262.369434 312.24351 
L -219.233587 312.24351 
L -176.097741 312.24351 
L -132.961895 312.24351 
L -89.826049 312.24351 
L -64.285326 312.24351 
L -89.826049 301.184649 
L -132.961895 304.294609 
L -154.737453 287.733081 
L -176.097741 276.472721 
L -193.502143 263.222652 
L -219.233587 252.151462 
L -262.369434 253.055184 
L -282.934332 238.712224 
L -305.50528 226.899758 
L -348.641126 230.617512 
L -372.411569 214.201795 
L -391.776972 203.479113 
L -391.776972 214.201795 
L -391.776972 238.712224 
L -391.776972 263.222652 
L -391.776972 287.733081 
L -391.776972 312.24351 
z
M 212.124875 312.24351 
L 220.609398 312.24351 
L 212.124875 306.763585 
L 195.333087 287.733081 
L 168.989029 270.776988 
L 162.174432 263.222652 
L 125.853182 238.859775 
L 125.70781 238.712224 
L 101.485768 214.201795 
L 82.717336 202.895354 
L 70.198244 189.691366 
L 39.58149 169.515206 
L 35.338659 165.180938 
L 1.579081 140.670509 
L -3.554356 137.57708 
L -23.817217 116.16008 
L -46.690202 102.543934 
L -57.130211 91.649651 
L -89.826049 70.776043 
L -93.536162 67.139223 
L -122.646821 42.628794 
L -132.961895 37.074535 
L -150.523315 18.118365 
L -176.097741 18.118365 
L -177.276361 18.118365 
L -176.097741 19.274575 
L -143.769586 42.628794 
L -132.961895 52.543871 
L -109.676044 67.139223 
L -89.826049 84.659835 
L -77.22198 91.649651 
L -48.940162 116.16008 
L -46.690202 118.252487 
L -13.421668 140.670509 
L -3.554356 149.764191 
L 21.896783 165.180938 
L 39.58149 181.733114 
L 53.185262 189.691366 
L 80.747817 214.201795 
L 82.717336 215.987161 
L 116.980394 238.712224 
L 125.853182 247.21347 
L 151.591448 263.222652 
L 168.989029 281.228049 
L 180.215482 287.733081 
L 208.326172 312.24351 
z
M 514.075799 290.822392 
L 529.979947 312.24351 
L 557.211645 312.24351 
L 600.347491 312.24351 
L 643.483337 312.24351 
L 686.619184 312.24351 
L 729.75503 312.24351 
L 772.890876 312.24351 
L 816.026722 312.24351 
L 859.162568 312.24351 
L 902.298415 312.24351 
L 945.434261 312.24351 
L 988.570107 312.24351 
L 1031.705953 312.24351 
L 1074.8418 312.24351 
L 1117.977646 312.24351 
L 1161.113492 312.24351 
L 1204.249338 312.24351 
L 1247.385185 312.24351 
L 1290.521031 312.24351 
L 1333.656877 312.24351 
L 1376.792723 312.24351 
L 1419.928569 312.24351 
L 1463.064416 312.24351 
L 1506.200262 312.24351 
L 1506.200262 287.733081 
L 1506.200262 263.222652 
L 1506.200262 238.712224 
L 1506.200262 214.201795 
L 1506.200262 189.691366 
L 1506.200262 165.180938 
L 1506.200262 140.670509 
L 1506.200262 116.16008 
L 1506.200262 91.649651 
L 1506.200262 67.139223 
L 1506.200262 42.628794 
L 1506.200262 18.118365 
L 1463.064416 18.118365 
L 1419.928569 18.118365 
L 1376.792723 18.118365 
L 1333.656877 18.118365 
L 1290.521031 18.118365 
L 1247.385185 18.118365 
L 1204.249338 18.118365 
L 1161.113492 18.118365 
L 1117.977646 18.118365 
L 1074.8418 18.118365 
L 1031.705953 18.118365 
L 988.570107 18.118365 
L 945.434261 18.118365 
L 902.298415 18.118365 
L 859.162568 18.118365 
L 816.026722 18.118365 
L 772.890876 18.118365 
L 729.75503 18.118365 
L 686.619184 18.118365 
L 643.483337 18.118365 
L 600.347491 18.118365 
L 557.211645 18.118365 
L 514.075799 18.118365 
L 470.939952 18.118365 
L 427.804106 18.118365 
L 384.66826 18.118365 
L 371.681449 18.118365 
L 377.939923 42.628794 
L 383.675441 67.139222 
L 384.66826 71.032845 
L 395.667689 91.649651 
L 407.291802 116.16008 
L 417.329539 140.670509 
L 426.022383 165.180938 
L 427.804106 169.656391 
L 444.989798 189.691366 
L 460.86571 214.201795 
L 470.939952 234.955944 
L 475.509476 238.712224 
L 500.050004 263.222652 
L 513.219792 287.733081 
z
" clip-path="url(#p50bfc125c0)" style="fill: #56c667"/>
    <path d="M 212.124875 306.763585 
L 220.609398 312.24351 
L 238.54384 312.24351 
L 212.124875 292.921658 
L 207.906848 287.733081 
L 178.738495 263.222652 
L 168.989029 256.723051 
L 153.009688 238.712224 
L 125.853182 220.359681 
L 120.510342 214.201795 
L 88.265002 189.691366 
L 82.717336 186.213245 
L 64.405117 165.180938 
L 39.58149 149.309436 
L 31.403204 140.670509 
L 0.583094 116.16008 
L -3.554356 113.864934 
L -27.420511 91.649651 
L -46.690202 78.641055 
L -57.383583 67.139223 
L -89.826049 44.100925 
L -91.032661 42.628794 
L -120.386976 18.118365 
L -132.961895 18.118365 
L -150.523315 18.118365 
L -132.961895 37.074535 
L -122.646821 42.628794 
L -93.536162 67.139222 
L -89.826049 70.776043 
L -57.130211 91.649651 
L -46.690202 102.543934 
L -23.817217 116.16008 
L -3.554356 137.57708 
L 1.579081 140.670509 
L 35.338659 165.180938 
L 39.58149 169.515206 
L 70.198244 189.691366 
L 82.717336 202.895354 
L 101.485768 214.201795 
L 125.70781 238.712224 
L 125.853182 238.859775 
L 162.174432 263.222652 
L 168.989029 270.776988 
L 195.333087 287.733081 
z
M 470.939952 312.24351 
L 514.075799 312.24351 
L 529.979947 312.24351 
L 514.075799 290.822392 
L 513.219792 287.733081 
L 500.050004 263.222652 
L 475.509476 238.712224 
L 470.939952 234.955944 
L 460.86571 214.201795 
L 444.989798 189.691366 
L 427.804106 169.656391 
L 426.022383 165.180938 
L 417.329539 140.670509 
L 407.291802 116.16008 
L 395.667689 91.649651 
L 384.66826 71.032845 
L 383.675441 67.139223 
L 377.939923 42.628794 
L 371.681449 18.118365 
L 341.532414 18.118365 
L 298.396567 18.118365 
L 270.127405 18.118365 
L 284.888264 42.628794 
L 297.529948 67.139223 
L 298.396567 68.744328 
L 316.296001 91.649651 
L 332.029536 116.16008 
L 341.532414 132.37491 
L 349.015648 140.670509 
L 368.799656 165.180938 
L 384.372964 189.691366 
L 384.66826 190.125694 
L 408.409207 214.201795 
L 425.288112 238.712224 
L 427.804106 242.667081 
L 448.467277 263.222652 
L 463.589029 287.733081 
L 470.326475 312.24351 
z
" clip-path="url(#p50bfc125c0)" style="fill: #77d153"/>
    <path d="M 212.124875 292.921658 
L 238.54384 312.24351 
L 253.004103 312.24351 
L 234.514623 287.733081 
L 212.124875 270.716503 
L 206.070938 263.222652 
L 181.666068 238.712224 
L 168.989029 227.693953 
L 158.532737 214.201795 
L 129.348318 189.691366 
L 125.853182 186.770189 
L 108.637392 165.180938 
L 82.717336 143.303309 
L 80.59976 140.670509 
L 59.313599 116.16008 
L 39.58149 98.213164 
L 34.10304 91.649651 
L 11.740828 67.139223 
L -3.554356 52.597248 
L -12.53366 42.628794 
L -34.353969 18.118365 
L -46.690202 18.118365 
L -89.826049 18.118365 
L -120.386976 18.118365 
L -91.032661 42.628794 
L -89.826049 44.100925 
L -57.383583 67.139223 
L -46.690202 78.641055 
L -27.420511 91.649651 
L -3.554356 113.864934 
L 0.583094 116.16008 
L 31.403204 140.670509 
L 39.58149 149.309436 
L 64.405117 165.180938 
L 82.717336 186.213245 
L 88.265002 189.691366 
L 120.510342 214.201795 
L 125.853182 220.359681 
L 153.009688 238.712224 
L 168.989029 256.723051 
L 178.738495 263.222652 
L 207.906848 287.733081 
z
M 427.804106 312.24351 
L 470.326475 312.24351 
L 463.589029 287.733081 
L 448.467277 263.222652 
L 427.804106 242.667081 
L 425.288112 238.712224 
L 408.409207 214.201795 
L 384.66826 190.125694 
L 384.372964 189.691366 
L 368.799656 165.180938 
L 349.015648 140.670509 
L 341.532414 132.37491 
L 332.029536 116.16008 
L 316.296001 91.649651 
L 298.396567 68.744328 
L 297.529948 67.139223 
L 284.888264 42.628794 
L 270.127405 18.118365 
L 255.260721 18.118365 
L 212.124875 18.118365 
L 181.73688 18.118365 
L 203.237254 42.628794 
L 212.124875 53.753477 
L 226.439642 67.139223 
L 248.068053 91.649651 
L 255.260721 100.300067 
L 272.454013 116.16008 
L 294.022038 140.670509 
L 298.396567 145.785246 
L 318.944493 165.180938 
L 340.573672 189.691366 
L 341.532414 190.842214 
L 364.386456 214.201795 
L 384.66826 238.279844 
L 385.154096 238.712224 
L 404.827355 263.222652 
L 419.236687 287.733081 
L 425.79438 312.24351 
z
" clip-path="url(#p50bfc125c0)" style="fill: #9dd93b"/>
    <path d="M 255.260721 312.24351 
L 296.734092 312.24351 
L 284.745736 287.733081 
L 255.260721 264.731286 
L 254.594863 263.222652 
L 244.905501 238.712224 
L 227.153158 214.201795 
L 212.124875 202.302548 
L 208.435842 189.691366 
L 204.146648 165.180938 
L 212.124875 151.692748 
L 224.301534 165.180938 
L 255.260721 186.008673 
L 259.068208 189.691366 
L 283.078835 214.201795 
L 298.396567 226.352981 
L 309.792885 238.712224 
L 332.54546 263.222652 
L 341.532414 272.023985 
L 352.718054 287.733081 
L 364.050516 312.24351 
L 384.66826 312.24351 
L 425.79438 312.24351 
L 419.236687 287.733081 
L 404.827355 263.222652 
L 385.154096 238.712224 
L 384.66826 238.279844 
L 364.386456 214.201795 
L 341.532414 190.842214 
L 340.573672 189.691366 
L 318.944493 165.180938 
L 298.396567 145.785246 
L 294.022038 140.670509 
L 272.454013 116.16008 
L 255.260721 100.300067 
L 248.068053 91.649651 
L 226.439642 67.139222 
L 212.124875 53.753477 
L 203.237254 42.628794 
L 181.73688 18.118365 
L 168.989029 18.118365 
L 125.853182 18.118365 
L 82.717336 18.118365 
L 39.58149 18.118365 
L -3.554356 18.118365 
L -34.353969 18.118365 
L -12.53366 42.628794 
L -3.554356 52.597248 
L 11.740828 67.139223 
L 34.10304 91.649651 
L 39.58149 98.213164 
L 59.313599 116.16008 
L 80.59976 140.670509 
L 82.717336 143.303309 
L 108.637392 165.180938 
L 125.853182 186.770189 
L 129.348318 189.691366 
L 158.532737 214.201795 
L 168.989029 227.693953 
L 181.666068 238.712224 
L 206.070938 263.222652 
L 212.124875 270.716503 
L 234.514623 287.733081 
L 253.004103 312.24351 
z
" clip-path="url(#p50bfc125c0)" style="fill: #c5e021"/>
    <path d="M 298.396567 312.24351 
L 341.532414 312.24351 
L 364.050516 312.24351 
L 352.718054 287.733081 
L 341.532414 272.023985 
L 332.54546 263.222652 
L 309.792885 238.712224 
L 298.396567 226.352981 
L 283.078835 214.201795 
L 259.068208 189.691366 
L 255.260721 186.008673 
L 224.301534 165.180938 
L 212.124875 151.692748 
L 204.146648 165.180938 
L 208.435842 189.691366 
L 212.124875 202.302548 
L 227.153158 214.201795 
L 244.905501 238.712224 
L 254.594863 263.222652 
L 255.260721 264.731286 
L 284.745736 287.733081 
L 296.734092 312.24351 
z
" clip-path="url(#p50bfc125c0)" style="fill: #ece51b"/>
   </g>
   <g id="PathCollection_1">
    <defs>
     <path id="mdc0741d33a" d="M -3 3 
L 3 -3 
M -3 -3 
L 3 3 
" style="stroke: #ff0000; stroke-width: 1.5"/>
    </defs>
    <g clip-path="url(#p50bfc125c0)">
     <use xlink:href="#mdc0741d33a" x="341.532414" y="312.24351" style="fill: #ff0000; stroke: #ff0000; stroke-width: 1.5"/>
     <use xlink:href="#mdc0741d33a" x="298.396567" y="287.733081" style="fill: #ff0000; stroke: #ff0000; stroke-width: 1.5"/>
     <use xlink:href="#mdc0741d33a" x="298.396567" y="263.222652" style="fill: #ff0000; stroke: #ff0000; stroke-width: 1.5"/>
     <use xlink:href="#mdc0741d33a" x="255.260721" y="238.712224" style="fill: #ff0000; stroke: #ff0000; stroke-width: 1.5"/>
     <use xlink:href="#mdc0741d33a" x="255.260721" y="214.201795" style="fill: #ff0000; stroke: #ff0000; stroke-width: 1.5"/>
     <use xlink:href="#mdc0741d33a" x="212.124875" y="189.691366" style="fill: #ff0000; stroke: #ff0000; stroke-width: 1.5"/>
     <use xlink:href="#mdc0741d33a" x="212.124875" y="165.180938" style="fill: #ff0000; stroke: #ff0000; stroke-width: 1.5"/>
     <use xlink:href="#mdc0741d33a" x="212.124875" y="140.670509" style="fill: #ff0000; stroke: #ff0000; stroke-width: 1.5"/>
     <use xlink:href="#mdc0741d33a" x="168.989029" y="116.16008" style="fill: #ff0000; stroke: #ff0000; stroke-width: 1.5"/>
     <use xlink:href="#mdc0741d33a" x="125.853182" y="91.649651" style="fill: #ff0000; stroke: #ff0000; stroke-width: 1.5"/>
     <use xlink:href="#mdc0741d33a" x="125.853182" y="67.139223" style="fill: #ff0000; stroke: #ff0000; stroke-width: 1.5"/>
     <use xlink:href="#mdc0741d33a" x="82.717336" y="42.628794" style="fill: #ff0000; stroke: #ff0000; stroke-width: 1.5"/>
     <use xlink:href="#mdc0741d33a" x="82.717336" y="18.118365" style="fill: #ff0000; stroke: #ff0000; stroke-width: 1.5"/>
    </g>
   </g>
   <g id="matplotlib.axis_1">
    <g id="xtick_1">
     <g id="line2d_1">
      <defs>
       <path id="m38f3b05bbe" d="M 0 0 
L 0 3.5 
" style="stroke: #000000; stroke-width: 0.8"/>
      </defs>
      <g>
       <use xlink:href="#m38f3b05bbe" x="125.853182" y="312.24351" style="stroke: #000000; stroke-width: 0.8"/>
      </g>
     </g>
     <g id="text_1">
      <!-- $\mathdefault{10^{-2}}$ -->
      <g transform="translate(114.103182 326.841947) scale(0.1 -0.1)">
       <defs>
        <path id="DejaVuSans-31" d="M 794 531 
L 1825 531 
L 1825 4091 
L 703 3866 
L 703 4441 
L 1819 4666 
L 2450 4666 
L 2450 531 
L 3481 531 
L 3481 0 
L 794 0 
L 794 531 
z
" transform="scale(0.015625)"/>
        <path id="DejaVuSans-30" d="M 2034 4250 
Q 1547 4250 1301 3770 
Q 1056 3291 1056 2328 
Q 1056 1369 1301 889 
Q 1547 409 2034 409 
Q 2525 409 2770 889 
Q 3016 1369 3016 2328 
Q 3016 3291 2770 3770 
Q 2525 4250 2034 4250 
z
M 2034 4750 
Q 2819 4750 3233 4129 
Q 3647 3509 3647 2328 
Q 3647 1150 3233 529 
Q 2819 -91 2034 -91 
Q 1250 -91 836 529 
Q 422 1150 422 2328 
Q 422 3509 836 4129 
Q 1250 4750 2034 4750 
z
" transform="scale(0.015625)"/>
        <path id="DejaVuSans-2212" d="M 678 2272 
L 4684 2272 
L 4684 1741 
L 678 1741 
L 678 2272 
z
" transform="scale(0.015625)"/>
        <path id="DejaVuSans-32" d="M 1228 531 
L 3431 531 
L 3431 0 
L 469 0 
L 469 531 
Q 828 903 1448 1529 
Q 2069 2156 2228 2338 
Q 2531 2678 2651 2914 
Q 2772 3150 2772 3378 
Q 2772 3750 2511 3984 
Q 2250 4219 1831 4219 
Q 1534 4219 1204 4116 
Q 875 4013 500 3803 
L 500 4441 
Q 881 4594 1212 4672 
Q 1544 4750 1819 4750 
Q 2544 4750 2975 4387 
Q 3406 4025 3406 3419 
Q 3406 3131 3298 2873 
Q 3191 2616 2906 2266 
Q 2828 2175 2409 1742 
Q 1991 1309 1228 531 
z
" transform="scale(0.015625)"/>
       </defs>
       <use xlink:href="#DejaVuSans-31" transform="translate(0 0.765625)"/>
       <use xlink:href="#DejaVuSans-30" transform="translate(63.623047 0.765625)"/>
       <use xlink:href="#DejaVuSans-2212" transform="translate(128.203125 39.046875) scale(0.7)"/>
       <use xlink:href="#DejaVuSans-32" transform="translate(186.855469 39.046875) scale(0.7)"/>
      </g>
     </g>
    </g>
    <g id="xtick_2">
     <g id="line2d_2">
      <g>
       <use xlink:href="#m38f3b05bbe" x="298.396567" y="312.24351" style="stroke: #000000; stroke-width: 0.8"/>
      </g>
     </g>
     <g id="text_2">
      <!-- $\mathdefault{10^{-1}}$ -->
      <g transform="translate(286.646567 326.841947) scale(0.1 -0.1)">
       <use xlink:href="#DejaVuSans-31" transform="translate(0 0.684375)"/>
       <use xlink:href="#DejaVuSans-30" transform="translate(63.623047 0.684375)"/>
       <use xlink:href="#DejaVuSans-2212" transform="translate(128.203125 38.965625) scale(0.7)"/>
       <use xlink:href="#DejaVuSans-31" transform="translate(186.855469 38.965625) scale(0.7)"/>
      </g>
     </g>
    </g>
    <g id="xtick_3">
     <g id="line2d_3">
      <defs>
       <path id="m360e1f0208" d="M 0 0 
L 0 2 
" style="stroke: #000000; stroke-width: 0.6"/>
      </defs>
      <g>
       <use xlink:href="#m360e1f0208" x="57.191266" y="312.24351" style="stroke: #000000; stroke-width: 0.6"/>
      </g>
     </g>
    </g>
    <g id="xtick_4">
     <g id="line2d_4">
      <g>
       <use xlink:href="#m360e1f0208" x="73.912448" y="312.24351" style="stroke: #000000; stroke-width: 0.6"/>
      </g>
     </g>
    </g>
    <g id="xtick_5">
     <g id="line2d_5">
      <g>
       <use xlink:href="#m360e1f0208" x="87.574648" y="312.24351" style="stroke: #000000; stroke-width: 0.6"/>
      </g>
     </g>
    </g>
    <g id="xtick_6">
     <g id="line2d_6">
      <g>
       <use xlink:href="#m360e1f0208" x="99.125874" y="312.24351" style="stroke: #000000; stroke-width: 0.6"/>
      </g>
     </g>
    </g>
    <g id="xtick_7">
     <g id="line2d_7">
      <g>
       <use xlink:href="#m360e1f0208" x="109.132001" y="312.24351" style="stroke: #000000; stroke-width: 0.6"/>
      </g>
     </g>
    </g>
    <g id="xtick_8">
     <g id="line2d_8">
      <g>
       <use xlink:href="#m360e1f0208" x="117.95803" y="312.24351" style="stroke: #000000; stroke-width: 0.6"/>
      </g>
     </g>
    </g>
    <g id="xtick_9">
     <g id="line2d_9">
      <g>
       <use xlink:href="#m360e1f0208" x="177.793917" y="312.24351" style="stroke: #000000; stroke-width: 0.6"/>
      </g>
     </g>
    </g>
    <g id="xtick_10">
     <g id="line2d_10">
      <g>
       <use xlink:href="#m360e1f0208" x="208.177299" y="312.24351" style="stroke: #000000; stroke-width: 0.6"/>
      </g>
     </g>
    </g>
    <g id="xtick_11">
     <g id="line2d_11">
      <g>
       <use xlink:href="#m360e1f0208" x="229.734651" y="312.24351" style="stroke: #000000; stroke-width: 0.6"/>
      </g>
     </g>
    </g>
    <g id="xtick_12">
     <g id="line2d_12">
      <g>
       <use xlink:href="#m360e1f0208" x="246.455833" y="312.24351" style="stroke: #000000; stroke-width: 0.6"/>
      </g>
     </g>
    </g>
    <g id="xtick_13">
     <g id="line2d_13">
      <g>
       <use xlink:href="#m360e1f0208" x="260.118033" y="312.24351" style="stroke: #000000; stroke-width: 0.6"/>
      </g>
     </g>
    </g>
    <g id="xtick_14">
     <g id="line2d_14">
      <g>
       <use xlink:href="#m360e1f0208" x="271.669259" y="312.24351" style="stroke: #000000; stroke-width: 0.6"/>
      </g>
     </g>
    </g>
    <g id="xtick_15">
     <g id="line2d_15">
      <g>
       <use xlink:href="#m360e1f0208" x="281.675386" y="312.24351" style="stroke: #000000; stroke-width: 0.6"/>
      </g>
     </g>
    </g>
    <g id="xtick_16">
     <g id="line2d_16">
      <g>
       <use xlink:href="#m360e1f0208" x="290.501415" y="312.24351" style="stroke: #000000; stroke-width: 0.6"/>
      </g>
     </g>
    </g>
    <g id="xtick_17">
     <g id="line2d_17">
      <g>
       <use xlink:href="#m360e1f0208" x="350.337302" y="312.24351" style="stroke: #000000; stroke-width: 0.6"/>
      </g>
     </g>
    </g>
    <g id="xtick_18">
     <g id="line2d_18">
      <g>
       <use xlink:href="#m360e1f0208" x="380.720684" y="312.24351" style="stroke: #000000; stroke-width: 0.6"/>
      </g>
     </g>
    </g>
    <g id="text_3">
     <!-- bandwidth -->
     <g transform="translate(185.762375 340.520072) scale(0.1 -0.1)">
      <defs>
       <path id="DejaVuSans-62" d="M 3116 1747 
Q 3116 2381 2855 2742 
Q 2594 3103 2138 3103 
Q 1681 3103 1420 2742 
Q 1159 2381 1159 1747 
Q 1159 1113 1420 752 
Q 1681 391 2138 391 
Q 2594 391 2855 752 
Q 3116 1113 3116 1747 
z
M 1159 2969 
Q 1341 3281 1617 3432 
Q 1894 3584 2278 3584 
Q 2916 3584 3314 3078 
Q 3713 2572 3713 1747 
Q 3713 922 3314 415 
Q 2916 -91 2278 -91 
Q 1894 -91 1617 61 
Q 1341 213 1159 525 
L 1159 0 
L 581 0 
L 581 4863 
L 1159 4863 
L 1159 2969 
z
" transform="scale(0.015625)"/>
       <path id="DejaVuSans-61" d="M 2194 1759 
Q 1497 1759 1228 1600 
Q 959 1441 959 1056 
Q 959 750 1161 570 
Q 1363 391 1709 391 
Q 2188 391 2477 730 
Q 2766 1069 2766 1631 
L 2766 1759 
L 2194 1759 
z
M 3341 1997 
L 3341 0 
L 2766 0 
L 2766 531 
Q 2569 213 2275 61 
Q 1981 -91 1556 -91 
Q 1019 -91 701 211 
Q 384 513 384 1019 
Q 384 1609 779 1909 
Q 1175 2209 1959 2209 
L 2766 2209 
L 2766 2266 
Q 2766 2663 2505 2880 
Q 2244 3097 1772 3097 
Q 1472 3097 1187 3025 
Q 903 2953 641 2809 
L 641 3341 
Q 956 3463 1253 3523 
Q 1550 3584 1831 3584 
Q 2591 3584 2966 3190 
Q 3341 2797 3341 1997 
z
" transform="scale(0.015625)"/>
       <path id="DejaVuSans-6e" d="M 3513 2113 
L 3513 0 
L 2938 0 
L 2938 2094 
Q 2938 2591 2744 2837 
Q 2550 3084 2163 3084 
Q 1697 3084 1428 2787 
Q 1159 2491 1159 1978 
L 1159 0 
L 581 0 
L 581 3500 
L 1159 3500 
L 1159 2956 
Q 1366 3272 1645 3428 
Q 1925 3584 2291 3584 
Q 2894 3584 3203 3211 
Q 3513 2838 3513 2113 
z
" transform="scale(0.015625)"/>
       <path id="DejaVuSans-64" d="M 2906 2969 
L 2906 4863 
L 3481 4863 
L 3481 0 
L 2906 0 
L 2906 525 
Q 2725 213 2448 61 
Q 2172 -91 1784 -91 
Q 1150 -91 751 415 
Q 353 922 353 1747 
Q 353 2572 751 3078 
Q 1150 3584 1784 3584 
Q 2172 3584 2448 3432 
Q 2725 3281 2906 2969 
z
M 947 1747 
Q 947 1113 1208 752 
Q 1469 391 1925 391 
Q 2381 391 2643 752 
Q 2906 1113 2906 1747 
Q 2906 2381 2643 2742 
Q 2381 3103 1925 3103 
Q 1469 3103 1208 2742 
Q 947 2381 947 1747 
z
" transform="scale(0.015625)"/>
       <path id="DejaVuSans-77" d="M 269 3500 
L 844 3500 
L 1563 769 
L 2278 3500 
L 2956 3500 
L 3675 769 
L 4391 3500 
L 4966 3500 
L 4050 0 
L 3372 0 
L 2619 2869 
L 1863 0 
L 1184 0 
L 269 3500 
z
" transform="scale(0.015625)"/>
       <path id="DejaVuSans-69" d="M 603 3500 
L 1178 3500 
L 1178 0 
L 603 0 
L 603 3500 
z
M 603 4863 
L 1178 4863 
L 1178 4134 
L 603 4134 
L 603 4863 
z
" transform="scale(0.015625)"/>
       <path id="DejaVuSans-74" d="M 1172 4494 
L 1172 3500 
L 2356 3500 
L 2356 3053 
L 1172 3053 
L 1172 1153 
Q 1172 725 1289 603 
Q 1406 481 1766 481 
L 2356 481 
L 2356 0 
L 1766 0 
Q 1100 0 847 248 
Q 594 497 594 1153 
L 594 3053 
L 172 3053 
L 172 3500 
L 594 3500 
L 594 4494 
L 1172 4494 
z
" transform="scale(0.015625)"/>
       <path id="DejaVuSans-68" d="M 3513 2113 
L 3513 0 
L 2938 0 
L 2938 2094 
Q 2938 2591 2744 2837 
Q 2550 3084 2163 3084 
Q 1697 3084 1428 2787 
Q 1159 2491 1159 1978 
L 1159 0 
L 581 0 
L 581 4863 
L 1159 4863 
L 1159 2956 
Q 1366 3272 1645 3428 
Q 1925 3584 2291 3584 
Q 2894 3584 3203 3211 
Q 3513 2838 3513 2113 
z
" transform="scale(0.015625)"/>
      </defs>
      <use xlink:href="#DejaVuSans-62"/>
      <use xlink:href="#DejaVuSans-61" transform="translate(63.476562 0)"/>
      <use xlink:href="#DejaVuSans-6e" transform="translate(124.755859 0)"/>
      <use xlink:href="#DejaVuSans-64" transform="translate(188.134766 0)"/>
      <use xlink:href="#DejaVuSans-77" transform="translate(251.611328 0)"/>
      <use xlink:href="#DejaVuSans-69" transform="translate(333.398438 0)"/>
      <use xlink:href="#DejaVuSans-64" transform="translate(361.181641 0)"/>
      <use xlink:href="#DejaVuSans-74" transform="translate(424.658203 0)"/>
      <use xlink:href="#DejaVuSans-68" transform="translate(463.867188 0)"/>
     </g>
    </g>
   </g>
   <g id="matplotlib.axis_2">
    <g id="ytick_1">
     <g id="line2d_19">
      <defs>
       <path id="mbd2f377c6c" d="M 0 0 
L -3.5 0 
" style="stroke: #000000; stroke-width: 0.8"/>
      </defs>
      <g>
       <use xlink:href="#mbd2f377c6c" x="39.58149" y="312.24351" style="stroke: #000000; stroke-width: 0.8"/>
      </g>
     </g>
     <g id="text_4">
      <!-- 1.0 -->
      <g transform="translate(16.678365 316.042729) scale(0.1 -0.1)">
       <defs>
        <path id="DejaVuSans-2e" d="M 684 794 
L 1344 794 
L 1344 0 
L 684 0 
L 684 794 
z
" transform="scale(0.015625)"/>
       </defs>
       <use xlink:href="#DejaVuSans-31"/>
       <use xlink:href="#DejaVuSans-2e" transform="translate(63.623047 0)"/>
       <use xlink:href="#DejaVuSans-30" transform="translate(95.410156 0)"/>
      </g>
     </g>
    </g>
    <g id="ytick_2">
     <g id="line2d_20">
      <g>
       <use xlink:href="#mbd2f377c6c" x="39.58149" y="263.222652" style="stroke: #000000; stroke-width: 0.8"/>
      </g>
     </g>
     <g id="text_5">
      <!-- 1.5 -->
      <g transform="translate(16.678365 267.021871) scale(0.1 -0.1)">
       <defs>
        <path id="DejaVuSans-35" d="M 691 4666 
L 3169 4666 
L 3169 4134 
L 1269 4134 
L 1269 2991 
Q 1406 3038 1543 3061 
Q 1681 3084 1819 3084 
Q 2600 3084 3056 2656 
Q 3513 2228 3513 1497 
Q 3513 744 3044 326 
Q 2575 -91 1722 -91 
Q 1428 -91 1123 -41 
Q 819 9 494 109 
L 494 744 
Q 775 591 1075 516 
Q 1375 441 1709 441 
Q 2250 441 2565 725 
Q 2881 1009 2881 1497 
Q 2881 1984 2565 2268 
Q 2250 2553 1709 2553 
Q 1456 2553 1204 2497 
Q 953 2441 691 2322 
L 691 4666 
z
" transform="scale(0.015625)"/>
       </defs>
       <use xlink:href="#DejaVuSans-31"/>
       <use xlink:href="#DejaVuSans-2e" transform="translate(63.623047 0)"/>
       <use xlink:href="#DejaVuSans-35" transform="translate(95.410156 0)"/>
      </g>
     </g>
    </g>
    <g id="ytick_3">
     <g id="line2d_21">
      <g>
       <use xlink:href="#mbd2f377c6c" x="39.58149" y="214.201795" style="stroke: #000000; stroke-width: 0.8"/>
      </g>
     </g>
     <g id="text_6">
      <!-- 2.0 -->
      <g transform="translate(16.678365 218.001014) scale(0.1 -0.1)">
       <use xlink:href="#DejaVuSans-32"/>
       <use xlink:href="#DejaVuSans-2e" transform="translate(63.623047 0)"/>
       <use xlink:href="#DejaVuSans-30" transform="translate(95.410156 0)"/>
      </g>
     </g>
    </g>
    <g id="ytick_4">
     <g id="line2d_22">
      <g>
       <use xlink:href="#mbd2f377c6c" x="39.58149" y="165.180938" style="stroke: #000000; stroke-width: 0.8"/>
      </g>
     </g>
     <g id="text_7">
      <!-- 2.5 -->
      <g transform="translate(16.678365 168.980156) scale(0.1 -0.1)">
       <use xlink:href="#DejaVuSans-32"/>
       <use xlink:href="#DejaVuSans-2e" transform="translate(63.623047 0)"/>
       <use xlink:href="#DejaVuSans-35" transform="translate(95.410156 0)"/>
      </g>
     </g>
    </g>
    <g id="ytick_5">
     <g id="line2d_23">
      <g>
       <use xlink:href="#mbd2f377c6c" x="39.58149" y="116.16008" style="stroke: #000000; stroke-width: 0.8"/>
      </g>
     </g>
     <g id="text_8">
      <!-- 3.0 -->
      <g transform="translate(16.678365 119.959299) scale(0.1 -0.1)">
       <defs>
        <path id="DejaVuSans-33" d="M 2597 2516 
Q 3050 2419 3304 2112 
Q 3559 1806 3559 1356 
Q 3559 666 3084 287 
Q 2609 -91 1734 -91 
Q 1441 -91 1130 -33 
Q 819 25 488 141 
L 488 750 
Q 750 597 1062 519 
Q 1375 441 1716 441 
Q 2309 441 2620 675 
Q 2931 909 2931 1356 
Q 2931 1769 2642 2001 
Q 2353 2234 1838 2234 
L 1294 2234 
L 1294 2753 
L 1863 2753 
Q 2328 2753 2575 2939 
Q 2822 3125 2822 3475 
Q 2822 3834 2567 4026 
Q 2313 4219 1838 4219 
Q 1578 4219 1281 4162 
Q 984 4106 628 3988 
L 628 4550 
Q 988 4650 1302 4700 
Q 1616 4750 1894 4750 
Q 2613 4750 3031 4423 
Q 3450 4097 3450 3541 
Q 3450 3153 3228 2886 
Q 3006 2619 2597 2516 
z
" transform="scale(0.015625)"/>
       </defs>
       <use xlink:href="#DejaVuSans-33"/>
       <use xlink:href="#DejaVuSans-2e" transform="translate(63.623047 0)"/>
       <use xlink:href="#DejaVuSans-30" transform="translate(95.410156 0)"/>
      </g>
     </g>
    </g>
    <g id="ytick_6">
     <g id="line2d_24">
      <g>
       <use xlink:href="#mbd2f377c6c" x="39.58149" y="67.139223" style="stroke: #000000; stroke-width: 0.8"/>
      </g>
     </g>
     <g id="text_9">
      <!-- 3.5 -->
      <g transform="translate(16.678365 70.938441) scale(0.1 -0.1)">
       <use xlink:href="#DejaVuSans-33"/>
       <use xlink:href="#DejaVuSans-2e" transform="translate(63.623047 0)"/>
       <use xlink:href="#DejaVuSans-35" transform="translate(95.410156 0)"/>
      </g>
     </g>
    </g>
    <g id="ytick_7">
     <g id="line2d_25">
      <g>
       <use xlink:href="#mbd2f377c6c" x="39.58149" y="18.118365" style="stroke: #000000; stroke-width: 0.8"/>
      </g>
     </g>
     <g id="text_10">
      <!-- 4.0 -->
      <g transform="translate(16.678365 21.917584) scale(0.1 -0.1)">
       <defs>
        <path id="DejaVuSans-34" d="M 2419 4116 
L 825 1625 
L 2419 1625 
L 2419 4116 
z
M 2253 4666 
L 3047 4666 
L 3047 1625 
L 3713 1625 
L 3713 1100 
L 3047 1100 
L 3047 0 
L 2419 0 
L 2419 1100 
L 313 1100 
L 313 1709 
L 2253 4666 
z
" transform="scale(0.015625)"/>
       </defs>
       <use xlink:href="#DejaVuSans-34"/>
       <use xlink:href="#DejaVuSans-2e" transform="translate(63.623047 0)"/>
       <use xlink:href="#DejaVuSans-30" transform="translate(95.410156 0)"/>
      </g>
     </g>
    </g>
    <g id="text_11">
     <!-- alpha -->
     <g transform="translate(10.598677 179.041094) rotate(-90) scale(0.1 -0.1)">
      <defs>
       <path id="DejaVuSans-6c" d="M 603 4863 
L 1178 4863 
L 1178 0 
L 603 0 
L 603 4863 
z
" transform="scale(0.015625)"/>
       <path id="DejaVuSans-70" d="M 1159 525 
L 1159 -1331 
L 581 -1331 
L 581 3500 
L 1159 3500 
L 1159 2969 
Q 1341 3281 1617 3432 
Q 1894 3584 2278 3584 
Q 2916 3584 3314 3078 
Q 3713 2572 3713 1747 
Q 3713 922 3314 415 
Q 2916 -91 2278 -91 
Q 1894 -91 1617 61 
Q 1341 213 1159 525 
z
M 3116 1747 
Q 3116 2381 2855 2742 
Q 2594 3103 2138 3103 
Q 1681 3103 1420 2742 
Q 1159 2381 1159 1747 
Q 1159 1113 1420 752 
Q 1681 391 2138 391 
Q 2594 391 2855 752 
Q 3116 1113 3116 1747 
z
" transform="scale(0.015625)"/>
      </defs>
      <use xlink:href="#DejaVuSans-61"/>
      <use xlink:href="#DejaVuSans-6c" transform="translate(61.279297 0)"/>
      <use xlink:href="#DejaVuSans-70" transform="translate(89.0625 0)"/>
      <use xlink:href="#DejaVuSans-68" transform="translate(152.539062 0)"/>
      <use xlink:href="#DejaVuSans-61" transform="translate(215.917969 0)"/>
     </g>
    </g>
   </g>
   <g id="patch_3">
    <path d="M 39.58149 312.24351 
L 39.58149 18.118365 
" style="fill: none; stroke: #000000; stroke-width: 0.8; stroke-linejoin: miter; stroke-linecap: square"/>
   </g>
   <g id="patch_4">
    <path d="M 384.66826 312.24351 
L 384.66826 18.118365 
" style="fill: none; stroke: #000000; stroke-width: 0.8; stroke-linejoin: miter; stroke-linecap: square"/>
   </g>
   <g id="patch_5">
    <path d="M 39.58149 312.24351 
L 384.66826 312.24351 
" style="fill: none; stroke: #000000; stroke-width: 0.8; stroke-linejoin: miter; stroke-linecap: square"/>
   </g>
   <g id="patch_6">
    <path d="M 39.58149 18.118365 
L 384.66826 18.118365 
" style="fill: none; stroke: #000000; stroke-width: 0.8; stroke-linejoin: miter; stroke-linecap: square"/>
   </g>
   <g id="text_12">
    <!-- lunas_lo 8527 fkdc -->
    <g transform="translate(155.933937 12.118365) scale(0.12 -0.12)">
     <defs>
      <path id="DejaVuSans-75" d="M 544 1381 
L 544 3500 
L 1119 3500 
L 1119 1403 
Q 1119 906 1312 657 
Q 1506 409 1894 409 
Q 2359 409 2629 706 
Q 2900 1003 2900 1516 
L 2900 3500 
L 3475 3500 
L 3475 0 
L 2900 0 
L 2900 538 
Q 2691 219 2414 64 
Q 2138 -91 1772 -91 
Q 1169 -91 856 284 
Q 544 659 544 1381 
z
M 1991 3584 
L 1991 3584 
z
" transform="scale(0.015625)"/>
      <path id="DejaVuSans-73" d="M 2834 3397 
L 2834 2853 
Q 2591 2978 2328 3040 
Q 2066 3103 1784 3103 
Q 1356 3103 1142 2972 
Q 928 2841 928 2578 
Q 928 2378 1081 2264 
Q 1234 2150 1697 2047 
L 1894 2003 
Q 2506 1872 2764 1633 
Q 3022 1394 3022 966 
Q 3022 478 2636 193 
Q 2250 -91 1575 -91 
Q 1294 -91 989 -36 
Q 684 19 347 128 
L 347 722 
Q 666 556 975 473 
Q 1284 391 1588 391 
Q 1994 391 2212 530 
Q 2431 669 2431 922 
Q 2431 1156 2273 1281 
Q 2116 1406 1581 1522 
L 1381 1569 
Q 847 1681 609 1914 
Q 372 2147 372 2553 
Q 372 3047 722 3315 
Q 1072 3584 1716 3584 
Q 2034 3584 2315 3537 
Q 2597 3491 2834 3397 
z
" transform="scale(0.015625)"/>
      <path id="DejaVuSans-5f" d="M 3263 -1063 
L 3263 -1509 
L -63 -1509 
L -63 -1063 
L 3263 -1063 
z
" transform="scale(0.015625)"/>
      <path id="DejaVuSans-6f" d="M 1959 3097 
Q 1497 3097 1228 2736 
Q 959 2375 959 1747 
Q 959 1119 1226 758 
Q 1494 397 1959 397 
Q 2419 397 2687 759 
Q 2956 1122 2956 1747 
Q 2956 2369 2687 2733 
Q 2419 3097 1959 3097 
z
M 1959 3584 
Q 2709 3584 3137 3096 
Q 3566 2609 3566 1747 
Q 3566 888 3137 398 
Q 2709 -91 1959 -91 
Q 1206 -91 779 398 
Q 353 888 353 1747 
Q 353 2609 779 3096 
Q 1206 3584 1959 3584 
z
" transform="scale(0.015625)"/>
      <path id="DejaVuSans-20" transform="scale(0.015625)"/>
      <path id="DejaVuSans-38" d="M 2034 2216 
Q 1584 2216 1326 1975 
Q 1069 1734 1069 1313 
Q 1069 891 1326 650 
Q 1584 409 2034 409 
Q 2484 409 2743 651 
Q 3003 894 3003 1313 
Q 3003 1734 2745 1975 
Q 2488 2216 2034 2216 
z
M 1403 2484 
Q 997 2584 770 2862 
Q 544 3141 544 3541 
Q 544 4100 942 4425 
Q 1341 4750 2034 4750 
Q 2731 4750 3128 4425 
Q 3525 4100 3525 3541 
Q 3525 3141 3298 2862 
Q 3072 2584 2669 2484 
Q 3125 2378 3379 2068 
Q 3634 1759 3634 1313 
Q 3634 634 3220 271 
Q 2806 -91 2034 -91 
Q 1263 -91 848 271 
Q 434 634 434 1313 
Q 434 1759 690 2068 
Q 947 2378 1403 2484 
z
M 1172 3481 
Q 1172 3119 1398 2916 
Q 1625 2713 2034 2713 
Q 2441 2713 2670 2916 
Q 2900 3119 2900 3481 
Q 2900 3844 2670 4047 
Q 2441 4250 2034 4250 
Q 1625 4250 1398 4047 
Q 1172 3844 1172 3481 
z
" transform="scale(0.015625)"/>
      <path id="DejaVuSans-37" d="M 525 4666 
L 3525 4666 
L 3525 4397 
L 1831 0 
L 1172 0 
L 2766 4134 
L 525 4134 
L 525 4666 
z
" transform="scale(0.015625)"/>
      <path id="DejaVuSans-66" d="M 2375 4863 
L 2375 4384 
L 1825 4384 
Q 1516 4384 1395 4259 
Q 1275 4134 1275 3809 
L 1275 3500 
L 2222 3500 
L 2222 3053 
L 1275 3053 
L 1275 0 
L 697 0 
L 697 3053 
L 147 3053 
L 147 3500 
L 697 3500 
L 697 3744 
Q 697 4328 969 4595 
Q 1241 4863 1831 4863 
L 2375 4863 
z
" transform="scale(0.015625)"/>
      <path id="DejaVuSans-6b" d="M 581 4863 
L 1159 4863 
L 1159 1991 
L 2875 3500 
L 3609 3500 
L 1753 1863 
L 3688 0 
L 2938 0 
L 1159 1709 
L 1159 0 
L 581 0 
L 581 4863 
z
" transform="scale(0.015625)"/>
      <path id="DejaVuSans-63" d="M 3122 3366 
L 3122 2828 
Q 2878 2963 2633 3030 
Q 2388 3097 2138 3097 
Q 1578 3097 1268 2742 
Q 959 2388 959 1747 
Q 959 1106 1268 751 
Q 1578 397 2138 397 
Q 2388 397 2633 464 
Q 2878 531 3122 666 
L 3122 134 
Q 2881 22 2623 -34 
Q 2366 -91 2075 -91 
Q 1284 -91 818 406 
Q 353 903 353 1747 
Q 353 2603 823 3093 
Q 1294 3584 2113 3584 
Q 2378 3584 2631 3529 
Q 2884 3475 3122 3366 
z
" transform="scale(0.015625)"/>
     </defs>
     <use xlink:href="#DejaVuSans-6c"/>
     <use xlink:href="#DejaVuSans-75" transform="translate(27.783203 0)"/>
     <use xlink:href="#DejaVuSans-6e" transform="translate(91.162109 0)"/>
     <use xlink:href="#DejaVuSans-61" transform="translate(154.541016 0)"/>
     <use xlink:href="#DejaVuSans-73" transform="translate(215.820312 0)"/>
     <use xlink:href="#DejaVuSans-5f" transform="translate(267.919922 0)"/>
     <use xlink:href="#DejaVuSans-6c" transform="translate(317.919922 0)"/>
     <use xlink:href="#DejaVuSans-6f" transform="translate(345.703125 0)"/>
     <use xlink:href="#DejaVuSans-20" transform="translate(406.884766 0)"/>
     <use xlink:href="#DejaVuSans-38" transform="translate(438.671875 0)"/>
     <use xlink:href="#DejaVuSans-35" transform="translate(502.294922 0)"/>
     <use xlink:href="#DejaVuSans-32" transform="translate(565.917969 0)"/>
     <use xlink:href="#DejaVuSans-37" transform="translate(629.541016 0)"/>
     <use xlink:href="#DejaVuSans-20" transform="translate(693.164062 0)"/>
     <use xlink:href="#DejaVuSans-66" transform="translate(724.951172 0)"/>
     <use xlink:href="#DejaVuSans-6b" transform="translate(760.15625 0)"/>
     <use xlink:href="#DejaVuSans-64" transform="translate(818.066406 0)"/>
     <use xlink:href="#DejaVuSans-63" transform="translate(881.542969 0)"/>
    </g>
   </g>
  </g>
  <g id="axes_2">
   <g id="patch_7">
    <path d="M 401.922598 312.24351 
L 416.628856 312.24351 
L 416.628856 18.118365 
L 401.922598 18.118365 
z
" style="fill: #ffffff"/>
   </g>
   <g id="QuadMesh_1">
    <path d="M 401.922598 312.24351 
L 416.628856 312.24351 
L 416.628856 294.942031 
L 401.922598 294.942031 
L 401.922598 312.24351 
" clip-path="url(#pa38a546031)" style="fill: #460b5e"/>
    <path d="M 401.922598 294.942031 
L 416.628856 294.942031 
L 416.628856 277.640552 
L 401.922598 277.640552 
L 401.922598 294.942031 
" clip-path="url(#pa38a546031)" style="fill: #482071"/>
    <path d="M 401.922598 277.640552 
L 416.628856 277.640552 
L 416.628856 260.339073 
L 401.922598 260.339073 
L 401.922598 277.640552 
" clip-path="url(#pa38a546031)" style="fill: #46337f"/>
    <path d="M 401.922598 260.339073 
L 416.628856 260.339073 
L 416.628856 243.037594 
L 401.922598 243.037594 
L 401.922598 260.339073 
" clip-path="url(#pa38a546031)" style="fill: #404588"/>
    <path d="M 401.922598 243.037594 
L 416.628856 243.037594 
L 416.628856 225.736114 
L 401.922598 225.736114 
L 401.922598 243.037594 
" clip-path="url(#pa38a546031)" style="fill: #39558c"/>
    <path d="M 401.922598 225.736114 
L 416.628856 225.736114 
L 416.628856 208.434635 
L 401.922598 208.434635 
L 401.922598 225.736114 
" clip-path="url(#pa38a546031)" style="fill: #32658e"/>
    <path d="M 401.922598 208.434635 
L 416.628856 208.434635 
L 416.628856 191.133156 
L 401.922598 191.133156 
L 401.922598 208.434635 
" clip-path="url(#pa38a546031)" style="fill: #2c738e"/>
    <path d="M 401.922598 191.133156 
L 416.628856 191.133156 
L 416.628856 173.831677 
L 401.922598 173.831677 
L 401.922598 191.133156 
" clip-path="url(#pa38a546031)" style="fill: #26828e"/>
    <path d="M 401.922598 173.831677 
L 416.628856 173.831677 
L 416.628856 156.530198 
L 401.922598 156.530198 
L 401.922598 173.831677 
" clip-path="url(#pa38a546031)" style="fill: #21918c"/>
    <path d="M 401.922598 156.530198 
L 416.628856 156.530198 
L 416.628856 139.228719 
L 401.922598 139.228719 
L 401.922598 156.530198 
" clip-path="url(#pa38a546031)" style="fill: #1f9f88"/>
    <path d="M 401.922598 139.228719 
L 416.628856 139.228719 
L 416.628856 121.92724 
L 401.922598 121.92724 
L 401.922598 139.228719 
" clip-path="url(#pa38a546031)" style="fill: #26ad81"/>
    <path d="M 401.922598 121.92724 
L 416.628856 121.92724 
L 416.628856 104.625761 
L 401.922598 104.625761 
L 401.922598 121.92724 
" clip-path="url(#pa38a546031)" style="fill: #3aba76"/>
    <path d="M 401.922598 104.625761 
L 416.628856 104.625761 
L 416.628856 87.324281 
L 401.922598 87.324281 
L 401.922598 104.625761 
" clip-path="url(#pa38a546031)" style="fill: #56c667"/>
    <path d="M 401.922598 87.324281 
L 416.628856 87.324281 
L 416.628856 70.022802 
L 401.922598 70.022802 
L 401.922598 87.324281 
" clip-path="url(#pa38a546031)" style="fill: #77d153"/>
    <path d="M 401.922598 70.022802 
L 416.628856 70.022802 
L 416.628856 52.721323 
L 401.922598 52.721323 
L 401.922598 70.022802 
" clip-path="url(#pa38a546031)" style="fill: #9dd93b"/>
    <path d="M 401.922598 52.721323 
L 416.628856 52.721323 
L 416.628856 35.419844 
L 401.922598 35.419844 
L 401.922598 52.721323 
" clip-path="url(#pa38a546031)" style="fill: #c5e021"/>
    <path d="M 401.922598 35.419844 
L 416.628856 35.419844 
L 416.628856 18.118365 
L 401.922598 18.118365 
L 401.922598 35.419844 
" clip-path="url(#pa38a546031)" style="fill: #ece51b"/>
   </g>
   <g id="matplotlib.axis_3"/>
   <g id="matplotlib.axis_4">
    <g id="ytick_8">
     <g id="line2d_26">
      <defs>
       <path id="m0a27ea52cb" d="M 0 0 
L 3.5 0 
" style="stroke: #000000; stroke-width: 0.8"/>
      </defs>
      <g>
       <use xlink:href="#m0a27ea52cb" x="416.628856" y="294.942031" style="stroke: #000000; stroke-width: 0.8"/>
      </g>
     </g>
     <g id="text_13">
      <!-- -2.4 -->
      <g transform="translate(423.628856 298.74125) scale(0.1 -0.1)">
       <defs>
        <path id="DejaVuSans-2d" d="M 313 2009 
L 1997 2009 
L 1997 1497 
L 313 1497 
L 313 2009 
z
" transform="scale(0.015625)"/>
       </defs>
       <use xlink:href="#DejaVuSans-2d"/>
       <use xlink:href="#DejaVuSans-32" transform="translate(36.083984 0)"/>
       <use xlink:href="#DejaVuSans-2e" transform="translate(99.707031 0)"/>
       <use xlink:href="#DejaVuSans-34" transform="translate(131.494141 0)"/>
      </g>
     </g>
    </g>
    <g id="ytick_9">
     <g id="line2d_27">
      <g>
       <use xlink:href="#m0a27ea52cb" x="416.628856" y="260.339073" style="stroke: #000000; stroke-width: 0.8"/>
      </g>
     </g>
     <g id="text_14">
      <!-- -2.1 -->
      <g transform="translate(423.628856 264.138291) scale(0.1 -0.1)">
       <use xlink:href="#DejaVuSans-2d"/>
       <use xlink:href="#DejaVuSans-32" transform="translate(36.083984 0)"/>
       <use xlink:href="#DejaVuSans-2e" transform="translate(99.707031 0)"/>
       <use xlink:href="#DejaVuSans-31" transform="translate(131.494141 0)"/>
      </g>
     </g>
    </g>
    <g id="ytick_10">
     <g id="line2d_28">
      <g>
       <use xlink:href="#m0a27ea52cb" x="416.628856" y="225.736114" style="stroke: #000000; stroke-width: 0.8"/>
      </g>
     </g>
     <g id="text_15">
      <!-- -1.8 -->
      <g transform="translate(423.628856 229.535333) scale(0.1 -0.1)">
       <use xlink:href="#DejaVuSans-2d"/>
       <use xlink:href="#DejaVuSans-31" transform="translate(36.083984 0)"/>
       <use xlink:href="#DejaVuSans-2e" transform="translate(99.707031 0)"/>
       <use xlink:href="#DejaVuSans-38" transform="translate(131.494141 0)"/>
      </g>
     </g>
    </g>
    <g id="ytick_11">
     <g id="line2d_29">
      <g>
       <use xlink:href="#m0a27ea52cb" x="416.628856" y="191.133156" style="stroke: #000000; stroke-width: 0.8"/>
      </g>
     </g>
     <g id="text_16">
      <!-- -1.5 -->
      <g transform="translate(423.628856 194.932375) scale(0.1 -0.1)">
       <use xlink:href="#DejaVuSans-2d"/>
       <use xlink:href="#DejaVuSans-31" transform="translate(36.083984 0)"/>
       <use xlink:href="#DejaVuSans-2e" transform="translate(99.707031 0)"/>
       <use xlink:href="#DejaVuSans-35" transform="translate(131.494141 0)"/>
      </g>
     </g>
    </g>
    <g id="ytick_12">
     <g id="line2d_30">
      <g>
       <use xlink:href="#m0a27ea52cb" x="416.628856" y="156.530198" style="stroke: #000000; stroke-width: 0.8"/>
      </g>
     </g>
     <g id="text_17">
      <!-- -1.2 -->
      <g transform="translate(423.628856 160.329417) scale(0.1 -0.1)">
       <use xlink:href="#DejaVuSans-2d"/>
       <use xlink:href="#DejaVuSans-31" transform="translate(36.083984 0)"/>
       <use xlink:href="#DejaVuSans-2e" transform="translate(99.707031 0)"/>
       <use xlink:href="#DejaVuSans-32" transform="translate(131.494141 0)"/>
      </g>
     </g>
    </g>
    <g id="ytick_13">
     <g id="line2d_31">
      <g>
       <use xlink:href="#m0a27ea52cb" x="416.628856" y="121.92724" style="stroke: #000000; stroke-width: 0.8"/>
      </g>
     </g>
     <g id="text_18">
      <!-- -0.9 -->
      <g transform="translate(423.628856 125.726458) scale(0.1 -0.1)">
       <defs>
        <path id="DejaVuSans-39" d="M 703 97 
L 703 672 
Q 941 559 1184 500 
Q 1428 441 1663 441 
Q 2288 441 2617 861 
Q 2947 1281 2994 2138 
Q 2813 1869 2534 1725 
Q 2256 1581 1919 1581 
Q 1219 1581 811 2004 
Q 403 2428 403 3163 
Q 403 3881 828 4315 
Q 1253 4750 1959 4750 
Q 2769 4750 3195 4129 
Q 3622 3509 3622 2328 
Q 3622 1225 3098 567 
Q 2575 -91 1691 -91 
Q 1453 -91 1209 -44 
Q 966 3 703 97 
z
M 1959 2075 
Q 2384 2075 2632 2365 
Q 2881 2656 2881 3163 
Q 2881 3666 2632 3958 
Q 2384 4250 1959 4250 
Q 1534 4250 1286 3958 
Q 1038 3666 1038 3163 
Q 1038 2656 1286 2365 
Q 1534 2075 1959 2075 
z
" transform="scale(0.015625)"/>
       </defs>
       <use xlink:href="#DejaVuSans-2d"/>
       <use xlink:href="#DejaVuSans-30" transform="translate(36.083984 0)"/>
       <use xlink:href="#DejaVuSans-2e" transform="translate(99.707031 0)"/>
       <use xlink:href="#DejaVuSans-39" transform="translate(131.494141 0)"/>
      </g>
     </g>
    </g>
    <g id="ytick_14">
     <g id="line2d_32">
      <g>
       <use xlink:href="#m0a27ea52cb" x="416.628856" y="87.324281" style="stroke: #000000; stroke-width: 0.8"/>
      </g>
     </g>
     <g id="text_19">
      <!-- -0.6 -->
      <g transform="translate(423.628856 91.1235) scale(0.1 -0.1)">
       <defs>
        <path id="DejaVuSans-36" d="M 2113 2584 
Q 1688 2584 1439 2293 
Q 1191 2003 1191 1497 
Q 1191 994 1439 701 
Q 1688 409 2113 409 
Q 2538 409 2786 701 
Q 3034 994 3034 1497 
Q 3034 2003 2786 2293 
Q 2538 2584 2113 2584 
z
M 3366 4563 
L 3366 3988 
Q 3128 4100 2886 4159 
Q 2644 4219 2406 4219 
Q 1781 4219 1451 3797 
Q 1122 3375 1075 2522 
Q 1259 2794 1537 2939 
Q 1816 3084 2150 3084 
Q 2853 3084 3261 2657 
Q 3669 2231 3669 1497 
Q 3669 778 3244 343 
Q 2819 -91 2113 -91 
Q 1303 -91 875 529 
Q 447 1150 447 2328 
Q 447 3434 972 4092 
Q 1497 4750 2381 4750 
Q 2619 4750 2861 4703 
Q 3103 4656 3366 4563 
z
" transform="scale(0.015625)"/>
       </defs>
       <use xlink:href="#DejaVuSans-2d"/>
       <use xlink:href="#DejaVuSans-30" transform="translate(36.083984 0)"/>
       <use xlink:href="#DejaVuSans-2e" transform="translate(99.707031 0)"/>
       <use xlink:href="#DejaVuSans-36" transform="translate(131.494141 0)"/>
      </g>
     </g>
    </g>
    <g id="ytick_15">
     <g id="line2d_33">
      <g>
       <use xlink:href="#m0a27ea52cb" x="416.628856" y="52.721323" style="stroke: #000000; stroke-width: 0.8"/>
      </g>
     </g>
     <g id="text_20">
      <!-- -0.3 -->
      <g transform="translate(423.628856 56.520542) scale(0.1 -0.1)">
       <use xlink:href="#DejaVuSans-2d"/>
       <use xlink:href="#DejaVuSans-30" transform="translate(36.083984 0)"/>
       <use xlink:href="#DejaVuSans-2e" transform="translate(99.707031 0)"/>
       <use xlink:href="#DejaVuSans-33" transform="translate(131.494141 0)"/>
      </g>
     </g>
    </g>
    <g id="ytick_16">
     <g id="line2d_34">
      <g>
       <use xlink:href="#m0a27ea52cb" x="416.628856" y="18.118365" style="stroke: #000000; stroke-width: 0.8"/>
      </g>
     </g>
     <g id="text_21">
      <!-- 0.0 -->
      <g transform="translate(423.628856 21.917584) scale(0.1 -0.1)">
       <use xlink:href="#DejaVuSans-30"/>
       <use xlink:href="#DejaVuSans-2e" transform="translate(63.623047 0)"/>
       <use xlink:href="#DejaVuSans-30" transform="translate(95.410156 0)"/>
      </g>
     </g>
    </g>
    <g id="text_22">
     <!-- Score -->
     <g transform="translate(454.738231 179.183281) rotate(-90) scale(0.1 -0.1)">
      <defs>
       <path id="DejaVuSans-53" d="M 3425 4513 
L 3425 3897 
Q 3066 4069 2747 4153 
Q 2428 4238 2131 4238 
Q 1616 4238 1336 4038 
Q 1056 3838 1056 3469 
Q 1056 3159 1242 3001 
Q 1428 2844 1947 2747 
L 2328 2669 
Q 3034 2534 3370 2195 
Q 3706 1856 3706 1288 
Q 3706 609 3251 259 
Q 2797 -91 1919 -91 
Q 1588 -91 1214 -16 
Q 841 59 441 206 
L 441 856 
Q 825 641 1194 531 
Q 1563 422 1919 422 
Q 2459 422 2753 634 
Q 3047 847 3047 1241 
Q 3047 1584 2836 1778 
Q 2625 1972 2144 2069 
L 1759 2144 
Q 1053 2284 737 2584 
Q 422 2884 422 3419 
Q 422 4038 858 4394 
Q 1294 4750 2059 4750 
Q 2388 4750 2728 4690 
Q 3069 4631 3425 4513 
z
" transform="scale(0.015625)"/>
       <path id="DejaVuSans-72" d="M 2631 2963 
Q 2534 3019 2420 3045 
Q 2306 3072 2169 3072 
Q 1681 3072 1420 2755 
Q 1159 2438 1159 1844 
L 1159 0 
L 581 0 
L 581 3500 
L 1159 3500 
L 1159 2956 
Q 1341 3275 1631 3429 
Q 1922 3584 2338 3584 
Q 2397 3584 2469 3576 
Q 2541 3569 2628 3553 
L 2631 2963 
z
" transform="scale(0.015625)"/>
       <path id="DejaVuSans-65" d="M 3597 1894 
L 3597 1613 
L 953 1613 
Q 991 1019 1311 708 
Q 1631 397 2203 397 
Q 2534 397 2845 478 
Q 3156 559 3463 722 
L 3463 178 
Q 3153 47 2828 -22 
Q 2503 -91 2169 -91 
Q 1331 -91 842 396 
Q 353 884 353 1716 
Q 353 2575 817 3079 
Q 1281 3584 2069 3584 
Q 2775 3584 3186 3129 
Q 3597 2675 3597 1894 
z
M 3022 2063 
Q 3016 2534 2758 2815 
Q 2500 3097 2075 3097 
Q 1594 3097 1305 2825 
Q 1016 2553 972 2059 
L 3022 2063 
z
" transform="scale(0.015625)"/>
      </defs>
      <use xlink:href="#DejaVuSans-53"/>
      <use xlink:href="#DejaVuSans-63" transform="translate(63.476562 0)"/>
      <use xlink:href="#DejaVuSans-6f" transform="translate(118.457031 0)"/>
      <use xlink:href="#DejaVuSans-72" transform="translate(179.638672 0)"/>
      <use xlink:href="#DejaVuSans-65" transform="translate(218.501953 0)"/>
     </g>
    </g>
   </g>
   <g id="LineCollection_1"/>
   <g id="patch_8">
    <path d="M 401.922598 312.24351 
L 409.275727 312.24351 
L 416.628856 312.24351 
L 416.628856 18.118365 
L 409.275727 18.118365 
L 401.922598 18.118365 
L 401.922598 312.24351 
z
" style="fill: none; stroke: #000000; stroke-width: 0.8; stroke-linejoin: miter; stroke-linecap: square"/>
   </g>
  </g>
 </g>
 <defs>
  <clipPath id="p50bfc125c0">
   <rect x="39.58149" y="18.118365" width="345.08677" height="294.125145"/>
  </clipPath>
  <clipPath id="pa38a546031">
   <rect x="401.922598" y="18.118365" width="14.706257" height="294.125145"/>
  </clipPath>
 </defs>
</svg>
