<?xml version="1.0" encoding="utf-8" standalone="no"?>
<!DOCTYPE svg PUBLIC "-//W3C//DTD SVG 1.1//EN"
  "http://www.w3.org/Graphics/SVG/1.1/DTD/svg11.dtd">
<svg xmlns:xlink="http://www.w3.org/1999/xlink" width="468.189381pt" height="353.99952pt" viewBox="0 0 468.189381 353.99952" xmlns="http://www.w3.org/2000/svg" version="1.1">
 <metadata>
  <rdf:RDF xmlns:dc="http://purl.org/dc/elements/1.1/" xmlns:cc="http://creativecommons.org/ns#" xmlns:rdf="http://www.w3.org/1999/02/22-rdf-syntax-ns#">
   <cc:Work>
    <dc:type rdf:resource="http://purl.org/dc/dcmitype/StillImage"/>
    <dc:date>1970-01-01T00:00:00+00:00</dc:date>
    <dc:format>image/svg+xml</dc:format>
    <dc:creator>
     <cc:Agent>
      <dc:title>Matplotlib v3.10.7, https://matplotlib.org/</dc:title>
     </cc:Agent>
    </dc:creator>
   </cc:Work>
  </rdf:RDF>
 </metadata>
 <defs>
  <style type="text/css">*{stroke-linejoin: round; stroke-linecap: butt}</style>
 </defs>
 <g id="figure_1">
  <g id="patch_1">
   <path d="M 0 353.99952 
L 468.189381 353.99952 
L 468.189381 0 
L 0 0 
z
" style="fill: #ffffff"/>
  </g>
  <g id="axes_1">
   <g id="patch_2">
    <path d="M 43.78125 316.44327 
L 388.302075 316.44327 
L 388.302075 10.999219 
L 43.78125 10.999219 
z
" style="fill: #ffffff"/>
   </g>
   <g id="QuadContourSet_1">
    <path d="M 0.716147 291.500541 
L 43.272113 316.44327 
L 43.78125 316.44327 
L 86.846353 316.44327 
L 99.752433 316.44327 
L 86.846353 309.664747 
L 58.243528 290.989599 
L 43.78125 283.922486 
L 15.301241 265.535928 
L 0.716147 258.682713 
L -36.80482 240.082257 
L -42.348956 237.624488 
L -84.028303 214.628586 
L -85.414059 214.04354 
L -128.479162 202.699814 
L -129.551535 214.628586 
L -128.479162 215.421075 
L -86.831412 240.082257 
L -85.414059 240.93079 
L -43.250957 265.535928 
L -42.348956 266.245587 
L 0.019975 290.989599 
z
" clip-path="url(#p1ec12e89ab)" style="fill: #470d60"/>
    <path d="M 0.716147 297.187846 
L 35.479883 316.44327 
L 43.272113 316.44327 
L 0.716147 291.500541 
L 0.019975 290.989599 
L -42.348956 266.245587 
L -43.250957 265.535928 
L -85.414059 240.93079 
L -86.831412 240.082257 
L -128.479162 215.421075 
L -129.551535 214.628586 
L -128.479162 202.699814 
L -85.414059 214.04354 
L -84.028303 214.628586 
L -42.348956 237.624488 
L -36.80482 240.082257 
L 0.716147 258.682713 
L 15.301241 265.535928 
L 43.78125 283.922486 
L 58.243528 290.989599 
L 86.846353 309.664747 
L 99.752433 316.44327 
L 118.286687 316.44327 
L 86.846353 297.638071 
L 77.866029 290.989599 
L 43.78125 271.864861 
L 35.148686 265.535928 
L 0.716147 246.927828 
L -11.016754 240.082257 
L -42.348956 223.462671 
L -55.757944 214.628586 
L -85.414059 199.405306 
L -101.508768 189.174915 
L -128.479162 175.499993 
L -154.193362 163.721244 
L -171.544265 155.697671 
L -214.609368 140.60941 
L -224.558631 163.721244 
L -214.609368 170.454595 
L -183.163438 189.174915 
L -171.544265 197.326563 
L -140.652021 214.628586 
L -128.479162 222.9903 
L -97.338374 240.082257 
L -85.414059 246.743878 
L -51.281897 265.535928 
L -42.348956 272.200652 
L -8.200867 290.989599 
z
M -257.674471 143.750908 
L -218.921461 138.267573 
L -257.674471 120.553851 
L -265.32175 138.267573 
z
M -300.739575 117.963592 
L -269.328642 112.813902 
L -300.739575 99.225677 
L -307.258221 112.813902 
z
M -343.804678 91.816446 
L -318.889294 87.360232 
L -343.804678 76.644647 
L -349.554309 87.360232 
z
M -367.983838 61.906561 
L -386.869781 53.778547 
L -386.869781 61.906561 
L -386.869781 65.485077 
z
" clip-path="url(#p1ec12e89ab)" style="fill: #482374"/>
    <path d="M 0.716147 302.875151 
L 26.780644 316.44327 
L 35.479883 316.44327 
L 0.716147 297.187846 
L -8.200867 290.989599 
L -42.348956 272.200652 
L -51.281897 265.535928 
L -85.414059 246.743878 
L -97.338374 240.082257 
L -128.479162 222.9903 
L -140.652021 214.628586 
L -171.544265 197.326563 
L -183.163438 189.174915 
L -214.609368 170.454595 
L -224.558631 163.721244 
L -214.609368 140.60941 
L -171.544265 155.697671 
L -154.193362 163.721244 
L -128.479162 175.499993 
L -101.508768 189.174915 
L -85.414059 199.405306 
L -55.757944 214.628586 
L -42.348956 223.462671 
L -11.016754 240.082257 
L 0.716147 246.927828 
L 35.148686 265.535928 
L 43.78125 271.864861 
L 77.866029 290.989599 
L 86.846353 297.638071 
L 118.286687 316.44327 
L 129.911456 316.44327 
L 132.849771 316.44327 
L 129.911456 314.776718 
L 93.425705 290.989599 
L 86.846353 287.488878 
L 51.773978 265.535928 
L 43.78125 261.142287 
L 9.235178 240.082257 
L 0.716147 235.618407 
L -33.529192 214.628586 
L -42.348956 210.340677 
L -77.70166 189.174915 
L -85.414059 185.457357 
L -121.780163 163.721244 
L -128.479162 160.441269 
L -166.293429 138.267573 
L -171.544265 135.78217 
L -211.732627 112.813902 
L -214.609368 111.462543 
L -257.674471 95.011331 
L -270.316201 87.360232 
L -300.739575 71.978173 
L -318.090221 61.906561 
L -343.804678 49.33282 
L -366.472141 36.45289 
L -386.869781 26.917547 
L -386.869781 36.45289 
L -386.869781 53.778547 
L -367.983838 61.906561 
L -386.869781 65.485077 
L -386.869781 76.481305 
L -366.007278 87.360232 
L -343.804678 102.829137 
L -324.203989 112.813902 
L -300.739575 129.428437 
L -283.236738 138.267573 
L -257.674471 154.600312 
L -240.722583 163.721244 
L -214.609368 179.653084 
L -196.979036 189.174915 
L -171.544265 205.507328 
L -153.691458 214.628586 
L -128.479162 230.559524 
L -109.565927 240.082257 
L -85.414059 252.556967 
L -60.279789 265.535928 
L -42.348956 278.155716 
L -17.437887 290.989599 
z
M -265.32175 138.267573 
L -257.674471 120.553851 
L -218.921461 138.267573 
L -257.674471 143.750908 
z
M -307.258221 112.813902 
L -300.739575 99.225677 
L -269.328642 112.813902 
L -300.739575 117.963592 
z
M -349.554309 87.360232 
L -343.804678 76.644647 
L -318.889294 87.360232 
L -343.804678 91.816446 
z
" clip-path="url(#p1ec12e89ab)" style="fill: #453781"/>
    <path d="M 0.716147 308.562456 
L 16.935087 316.44327 
L 26.780644 316.44327 
L 0.716147 302.875151 
L -17.437887 290.989599 
L -42.348956 278.155716 
L -60.279789 265.535928 
L -85.414059 252.556967 
L -109.565927 240.082257 
L -128.479162 230.559524 
L -153.691458 214.628586 
L -171.544265 205.507328 
L -196.979036 189.174915 
L -214.609368 179.653084 
L -240.722583 163.721244 
L -257.674471 154.600312 
L -283.236738 138.267573 
L -300.739575 129.428437 
L -324.203989 112.813902 
L -343.804678 102.829137 
L -366.007278 87.360232 
L -386.869781 76.481305 
L -386.869781 87.360232 
L -386.869781 87.604734 
L -346.410883 112.813902 
L -343.804678 114.825143 
L -306.661796 138.267573 
L -300.739575 141.858285 
L -261.109296 163.721244 
L -257.674471 165.876236 
L -214.609368 188.851574 
L -213.937279 189.174915 
L -171.544265 213.688094 
L -169.493619 214.628586 
L -128.479162 238.128748 
L -124.190085 240.082257 
L -85.414059 258.370056 
L -70.509766 265.535928 
L -42.348956 284.110781 
L -27.97821 290.989599 
z
M 129.911456 314.776718 
L 132.849771 316.44327 
L 144.252661 316.44327 
L 129.911456 307.65222 
L 106.330161 290.989599 
L 86.846353 279.660608 
L 66.23679 265.535928 
L 43.78125 251.894647 
L 26.388752 240.082257 
L 0.716147 224.930141 
L -14.154477 214.628586 
L -42.348956 198.942847 
L -56.631571 189.174915 
L -85.414059 173.111525 
L -99.022433 163.721244 
L -128.479162 146.826249 
L -140.91499 138.267573 
L -171.544265 120.973073 
L -183.495275 112.813902 
L -214.609368 95.035728 
L -229.50966 87.360232 
L -257.674471 71.064273 
L -271.401691 61.906561 
L -300.739575 45.389293 
L -314.103081 36.45289 
L -343.804678 19.3451 
L -356.347417 10.999219 
L -386.869781 10.999219 
L -386.869781 26.917547 
L -366.472141 36.45289 
L -343.804678 49.33282 
L -318.090221 61.906561 
L -300.739575 71.978173 
L -270.316201 87.360232 
L -257.674471 95.011331 
L -214.609368 111.462543 
L -211.732627 112.813902 
L -171.544265 135.78217 
L -166.293429 138.267573 
L -128.479162 160.441269 
L -121.780163 163.721244 
L -85.414059 185.457357 
L -77.70166 189.174915 
L -42.348956 210.340677 
L -33.529192 214.628586 
L 0.716147 235.618407 
L 9.235178 240.082257 
L 43.78125 261.142287 
L 51.773978 265.535928 
L 86.846353 287.488878 
L 93.425705 290.989599 
z
" clip-path="url(#p1ec12e89ab)" style="fill: #3e4989"/>
    <path d="M 0.716147 314.249761 
L 5.594586 316.44327 
L 16.935087 316.44327 
L 0.716147 308.562456 
L -27.97821 290.989599 
L -42.348956 284.110781 
L -70.509766 265.535928 
L -85.414059 258.370056 
L -124.190085 240.082257 
L -128.479162 238.128748 
L -169.493619 214.628586 
L -171.544265 213.688094 
L -213.937279 189.174915 
L -214.609368 188.851574 
L -257.674471 165.876236 
L -261.109296 163.721244 
L -300.739575 141.858285 
L -306.661796 138.267573 
L -343.804678 114.825143 
L -346.410883 112.813902 
L -386.869781 87.604734 
L -386.869781 110.525379 
L -382.149658 112.813902 
L -343.804678 136.372563 
L -340.014169 138.267573 
L -300.739575 157.536699 
L -287.250534 163.721244 
L -257.674471 179.402858 
L -236.158229 189.174915 
L -214.609368 204.000382 
L -192.634948 214.628586 
L -171.544265 225.227112 
L -141.861494 240.082257 
L -128.479162 245.830038 
L -85.414059 264.183144 
L -82.3636 265.535928 
L -42.348956 290.065846 
L -40.250994 290.989599 
z
M 129.911456 307.65222 
L 144.252661 316.44327 
L 154.145186 316.44327 
L 129.911456 300.527721 
L 117.33274 290.989599 
L 86.846353 271.832339 
L 78.351448 265.535928 
L 43.78125 242.647007 
L 40.333526 240.082257 
L 1.254954 214.628586 
L 0.716147 214.335091 
L -39.825866 189.174915 
L -42.348956 187.798462 
L -80.493812 163.721244 
L -85.414059 161.020686 
L -119.932858 138.267573 
L -128.479162 133.702615 
L -160.268843 112.813902 
L -171.544265 106.888378 
L -200.595613 87.360232 
L -214.609368 79.95286 
L -240.783714 61.906561 
L -257.674471 52.926747 
L -281.814388 36.45289 
L -300.739575 26.441944 
L -322.92502 10.999219 
L -343.804678 10.999219 
L -356.347417 10.999219 
L -343.804678 19.3451 
L -314.103081 36.45289 
L -300.739575 45.389293 
L -271.401691 61.906561 
L -257.674471 71.064273 
L -229.50966 87.360232 
L -214.609368 95.035728 
L -183.495275 112.813902 
L -171.544265 120.973073 
L -140.91499 138.267573 
L -128.479162 146.826249 
L -99.022433 163.721244 
L -85.414059 173.111525 
L -56.631571 189.174915 
L -42.348956 198.942847 
L -14.154477 214.628586 
L 0.716147 224.930141 
L 26.388752 240.082257 
L 43.78125 251.894647 
L 66.23679 265.535928 
L 86.846353 279.660608 
L 106.330161 290.989599 
z
" clip-path="url(#p1ec12e89ab)" style="fill: #375b8d"/>
    <path d="M -42.348956 295.740296 
L -4.118552 316.44327 
L 0.716147 316.44327 
L 5.594586 316.44327 
L 0.716147 314.249761 
L -40.250994 290.989599 
L -42.348956 290.065846 
L -82.3636 265.535928 
L -85.414059 264.183144 
L -128.479162 245.830038 
L -141.861494 240.082257 
L -171.544265 225.227112 
L -192.634948 214.628586 
L -214.609368 204.000382 
L -236.158229 189.174915 
L -257.674471 179.402858 
L -287.250534 163.721244 
L -300.739575 157.536699 
L -340.014169 138.267573 
L -343.804678 136.372563 
L -382.149658 112.813902 
L -386.869781 110.525379 
L -386.869781 112.813902 
L -386.869781 133.222965 
L -376.243196 138.267573 
L -343.804678 147.694691 
L -310.551437 163.721244 
L -300.739575 171.13203 
L -263.050833 189.174915 
L -257.674471 191.51714 
L -217.997787 214.628586 
L -214.609368 217.046865 
L -171.544265 237.202358 
L -164.794816 240.082257 
L -128.479162 253.577269 
L -97.161267 265.535928 
L -85.414059 270.996764 
L -50.330575 290.989599 
z
M 129.911456 300.527721 
L 154.145186 316.44327 
L 162.88106 316.44327 
L 129.911456 293.403222 
L 126.922704 290.989599 
L 89.334285 265.535928 
L 86.846353 264.20478 
L 53.040696 240.082257 
L 43.78125 234.947309 
L 14.791509 214.628586 
L 0.716147 206.223203 
L -24.222624 189.174915 
L -42.348956 178.172966 
L -62.855263 163.721244 
L -85.414059 149.739998 
L -100.843016 138.267573 
L -128.479162 121.41073 
L -139.977943 112.813902 
L -171.544265 93.692492 
L -179.789 87.360232 
L -214.609368 66.048726 
L -219.858678 61.906561 
L -257.674471 38.587028 
L -260.396256 36.45289 
L -300.739575 11.594863 
L -301.483766 10.999219 
L -322.92502 10.999219 
L -300.739575 26.441944 
L -281.814388 36.45289 
L -257.674471 52.926747 
L -240.783714 61.906561 
L -214.609368 79.95286 
L -200.595613 87.360232 
L -171.544265 106.888378 
L -160.268843 112.813902 
L -128.479162 133.702615 
L -119.932858 138.267573 
L -85.414059 161.020686 
L -80.493812 163.721244 
L -42.348956 187.798462 
L -39.825866 189.174915 
L 0.716147 214.335091 
L 1.254954 214.628586 
L 40.333526 240.082257 
L 43.78125 242.647007 
L 78.351448 265.535928 
L 86.846353 271.832339 
L 117.33274 290.989599 
z
" clip-path="url(#p1ec12e89ab)" style="fill: #2f6b8e"/>
    <path d="M -42.348956 301.363224 
L -12.725097 316.44327 
L -4.118552 316.44327 
L -42.348956 295.740296 
L -50.330575 290.989599 
L -85.414059 270.996764 
L -97.161267 265.535928 
L -128.479162 253.577269 
L -164.794816 240.082257 
L -171.544265 237.202358 
L -214.609368 217.046865 
L -217.997787 214.628586 
L -257.674471 191.51714 
L -263.050833 189.174915 
L -300.739575 171.13203 
L -310.551437 163.721244 
L -343.804678 147.694691 
L -376.243196 138.267573 
L -386.869781 133.222965 
L -386.869781 138.267573 
L -386.869781 145.307936 
L -343.804678 158.030832 
L -330.244273 163.721244 
L -300.739575 183.370388 
L -286.435194 189.174915 
L -257.674471 199.955507 
L -230.181027 214.628586 
L -214.609368 224.890489 
L -181.387132 240.082257 
L -171.544265 244.588028 
L -128.479162 261.324499 
L -115.901771 265.535928 
L -85.414059 278.113839 
L -61.029867 290.989599 
z
M 129.911456 293.403222 
L 162.88106 316.44327 
L 170.702665 316.44327 
L 137.337867 290.989599 
L 129.911456 286.749458 
L 100.897748 265.535928 
L 86.846353 257.402205 
L 64.214855 240.082257 
L 43.78125 227.841678 
L 26.249961 214.628586 
L 0.716147 198.111316 
L -11.318773 189.174915 
L -42.348956 168.54747 
L -48.592173 163.721244 
L -85.414059 138.459311 
L -85.647433 138.267573 
L -123.254107 112.813902 
L -128.479162 109.909646 
L -161.621681 87.360232 
L -171.544265 81.343525 
L -199.161219 61.906561 
L -214.609368 52.85033 
L -237.352087 36.45289 
L -257.674471 24.744503 
L -276.57243 10.999219 
L -300.739575 10.999219 
L -301.483766 10.999219 
L -300.739575 11.594863 
L -260.396256 36.45289 
L -257.674471 38.587028 
L -219.858678 61.906561 
L -214.609368 66.048726 
L -179.789 87.360232 
L -171.544265 93.692492 
L -139.977943 112.813902 
L -128.479162 121.41073 
L -100.843016 138.267573 
L -85.414059 149.739998 
L -62.855263 163.721244 
L -42.348956 178.172966 
L -24.222624 189.174915 
L 0.716147 206.223203 
L 14.791509 214.628586 
L 43.78125 234.947309 
L 53.040696 240.082257 
L 86.846353 264.20478 
L 89.334285 265.535928 
L 126.922704 290.989599 
z
" clip-path="url(#p1ec12e89ab)" style="fill: #297a8e"/>
    <path d="M -42.348956 306.986153 
L -22.452054 316.44327 
L -12.725097 316.44327 
L -42.348956 301.363224 
L -61.029867 290.989599 
L -85.414059 278.113839 
L -115.901771 265.535928 
L -128.479162 261.324499 
L -171.544265 244.588028 
L -181.387132 240.082257 
L -214.609368 224.890489 
L -230.181027 214.628586 
L -257.674471 199.955507 
L -286.435194 189.174915 
L -300.739575 183.370388 
L -330.244273 163.721244 
L -343.804678 158.030832 
L -386.869781 145.307936 
L -386.869781 154.363015 
L -354.451317 163.721244 
L -343.804678 169.412706 
L -309.481102 189.174915 
L -300.739575 193.582466 
L -257.674471 208.393873 
L -244.741786 214.628586 
L -214.609368 232.734113 
L -196.703999 240.082257 
L -171.544265 250.520481 
L -133.656235 265.535928 
L -128.479162 268.265522 
L -85.414059 285.230915 
L -73.518841 290.989599 
z
M 172.976559 316.44327 
L 180.92676 316.44327 
L 172.976559 312.012655 
L 147.331514 290.989599 
L 129.911456 280.336876 
L 110.910842 265.535928 
L 86.846353 250.59963 
L 73.934851 240.082257 
L 43.78125 220.736047 
L 36.184258 214.628586 
L 0.716147 189.999428 
L -0.316633 189.174915 
L -34.121271 163.721244 
L -42.348956 159.371696 
L -70.239763 138.267573 
L -85.414059 129.688628 
L -108.107843 112.813902 
L -128.479162 100.248423 
L -145.6005 87.360232 
L -171.544265 69.77591 
L -181.531744 61.906561 
L -214.609368 39.951391 
L -218.915076 36.45289 
L -257.657519 10.999219 
L -257.674471 10.999219 
L -276.57243 10.999219 
L -257.674471 24.744503 
L -237.352087 36.45289 
L -214.609368 52.85033 
L -199.161219 61.906561 
L -171.544265 81.343525 
L -161.621681 87.360232 
L -128.479162 109.909646 
L -123.254107 112.813902 
L -85.647433 138.267573 
L -85.414059 138.459311 
L -48.592173 163.721244 
L -42.348956 168.54747 
L -11.318773 189.174915 
L 0.716147 198.111316 
L 26.249961 214.628586 
L 43.78125 227.841678 
L 64.214855 240.082257 
L 86.846353 257.402205 
L 100.897748 265.535928 
L 129.911456 286.749458 
L 137.337867 290.989599 
L 170.702665 316.44327 
z
" clip-path="url(#p1ec12e89ab)" style="fill: #23898e"/>
    <path d="M -85.414059 292.033483 
L -42.348956 312.609082 
L -33.635418 316.44327 
L -22.452054 316.44327 
L -42.348956 306.986153 
L -73.518841 290.989599 
L -85.414059 285.230915 
L -128.479162 268.265522 
L -133.656235 265.535928 
L -171.544265 250.520481 
L -196.703999 240.082257 
L -214.609368 232.734113 
L -244.741786 214.628586 
L -257.674471 208.393873 
L -300.739575 193.582466 
L -309.481102 189.174915 
L -343.804678 169.412706 
L -354.451317 163.721244 
L -386.869781 154.363015 
L -386.869781 163.418093 
L -385.566731 163.721244 
L -343.804678 182.075467 
L -329.597103 189.174915 
L -300.739575 201.966458 
L -262.66413 214.628586 
L -257.674471 217.348553 
L -215.536026 240.082257 
L -214.609368 240.538089 
L -171.544265 256.452935 
L -146.432788 265.535928 
L -128.479162 274.246285 
L -87.533581 290.989599 
z
M 172.976559 312.012655 
L 180.92676 316.44327 
L 191.141484 316.44327 
L 172.976559 305.583251 
L 156.146126 290.989599 
L 129.911456 273.924293 
L 119.740574 265.535928 
L 86.846353 243.797055 
L 82.535948 240.082257 
L 46.245358 214.628586 
L 43.78125 213.229519 
L 15.038645 189.174915 
L 0.716147 180.822482 
L -19.930022 163.721244 
L -42.348956 150.648172 
L -57.429989 138.267573 
L -85.414059 120.961344 
L -95.517787 112.813902 
L -128.479162 90.587199 
L -132.412473 87.360232 
L -164.602791 61.906561 
L -171.544265 58.308399 
L -200.202045 36.45289 
L -214.609368 28.391564 
L -237.891568 10.999219 
L -257.657519 10.999219 
L -218.915076 36.45289 
L -214.609368 39.951391 
L -181.531744 61.906561 
L -171.544265 69.77591 
L -145.6005 87.360232 
L -128.479162 100.248423 
L -108.107843 112.813902 
L -85.414059 129.688628 
L -70.239763 138.267573 
L -42.348956 159.371696 
L -34.121271 163.721244 
L -0.316633 189.174915 
L 0.716147 189.999428 
L 36.184258 214.628586 
L 43.78125 220.736047 
L 73.934851 240.082257 
L 86.846353 250.59963 
L 110.910842 265.535928 
L 129.911456 280.336876 
L 147.331514 290.989599 
z
" clip-path="url(#p1ec12e89ab)" style="fill: #1f988b"/>
    <path d="M -85.414059 297.502751 
L -45.155564 316.44327 
L -42.348956 316.44327 
L -33.635418 316.44327 
L -42.348956 312.609082 
L -85.414059 292.033483 
L -87.533581 290.989599 
L -128.479162 274.246285 
L -146.432788 265.535928 
L -171.544265 256.452935 
L -214.609368 240.538089 
L -215.536026 240.082257 
L -257.674471 217.348553 
L -262.66413 214.628586 
L -300.739575 201.966458 
L -329.597103 189.174915 
L -343.804678 182.075467 
L -385.566731 163.721244 
L -386.869781 163.418093 
L -386.869781 163.721244 
L -386.869781 175.394232 
L -353.510099 189.174915 
L -343.804678 194.232439 
L -300.739575 210.35045 
L -285.606662 214.628586 
L -257.674471 227.764018 
L -231.977963 240.082257 
L -214.609368 247.754066 
L -171.544265 262.385388 
L -161.850079 265.535928 
L -128.479162 280.227048 
L -99.741272 290.989599 
z
M 172.976559 305.583251 
L 191.141484 316.44327 
L 200.127578 316.44327 
L 172.976559 299.153847 
L 164.030775 290.989599 
L 129.911456 267.51171 
L 127.637317 265.535928 
L 94.883105 240.082257 
L 86.846353 235.601243 
L 61.77204 214.628586 
L 43.78125 203.270033 
L 28.300332 189.174915 
L 0.716147 171.525033 
L -8.006318 163.721244 
L -42.348956 141.924648 
L -46.496268 138.267573 
L -83.635783 112.813902 
L -85.414059 111.785125 
L -112.928504 87.360232 
L -128.479162 78.46386 
L -146.300755 61.906561 
L -171.544265 47.053893 
L -184.087146 36.45289 
L -214.609368 17.330107 
L -222.271569 10.999219 
L -237.891568 10.999219 
L -214.609368 28.391564 
L -200.202045 36.45289 
L -171.544265 58.308399 
L -164.602791 61.906561 
L -132.412473 87.360232 
L -128.479162 90.587199 
L -95.517787 112.813902 
L -85.414059 120.961344 
L -57.429989 138.267573 
L -42.348956 150.648172 
L -19.930022 163.721244 
L 0.716147 180.822482 
L 15.038645 189.174915 
L 43.78125 213.229519 
L 46.245358 214.628586 
L 82.535948 240.082257 
L 86.846353 243.797055 
L 119.740574 265.535928 
L 129.911456 273.924293 
L 156.146126 290.989599 
z
" clip-path="url(#p1ec12e89ab)" style="fill: #22a785"/>
    <path d="M -85.414059 302.972019 
L -54.733527 316.44327 
L -45.155564 316.44327 
L -85.414059 297.502751 
L -99.741272 290.989599 
L -128.479162 280.227048 
L -161.850079 265.535928 
L -171.544265 262.385388 
L -214.609368 247.754066 
L -231.977963 240.082257 
L -257.674471 227.764018 
L -285.606662 214.628586 
L -300.739575 210.35045 
L -343.804678 194.232439 
L -353.510099 189.174915 
L -386.869781 175.394232 
L -386.869781 187.471551 
L -381.846158 189.174915 
L -343.804678 205.743965 
L -314.670139 214.628586 
L -300.739575 218.8501 
L -257.674471 238.179483 
L -253.082131 240.082257 
L -214.609368 254.970042 
L -179.940573 265.535928 
L -171.544265 269.685335 
L -128.479162 286.207811 
L -114.337002 290.989599 
z
M 172.976559 299.153847 
L 200.127578 316.44327 
L 208.149122 316.44327 
L 172.976559 292.724443 
L 171.163097 290.989599 
L 143.054756 265.535928 
L 129.911456 258.051383 
L 110.028708 240.082257 
L 86.846353 225.729277 
L 74.623544 214.628586 
L 43.78125 193.310548 
L 39.561362 189.174915 
L 4.828329 163.721244 
L 0.716147 161.455674 
L -28.51337 138.267573 
L -42.348956 129.383434 
L -60.98811 112.813902 
L -85.414059 96.300842 
L -94.354724 87.360232 
L -128.479162 65.105699 
L -131.607668 61.906561 
L -169.385429 36.45289 
L -171.544265 35.106758 
L -199.317141 10.999219 
L -214.609368 10.999219 
L -222.271569 10.999219 
L -214.609368 17.330107 
L -184.087146 36.45289 
L -171.544265 47.053893 
L -146.300755 61.906561 
L -128.479162 78.46386 
L -112.928504 87.360232 
L -85.414059 111.785125 
L -83.635783 112.813902 
L -46.496268 138.267573 
L -42.348956 141.924648 
L -8.006318 163.721244 
L 0.716147 171.525033 
L 28.300332 189.174915 
L 43.78125 203.270033 
L 61.77204 214.628586 
L 86.846353 235.601243 
L 94.883105 240.082257 
L 127.637317 265.535928 
L 129.911456 267.51171 
L 164.030775 290.989599 
z
" clip-path="url(#p1ec12e89ab)" style="fill: #32b67a"/>
    <path d="M -128.479162 294.335829 
L -85.414059 308.441286 
L -65.720305 316.44327 
L -54.733527 316.44327 
L -85.414059 302.972019 
L -114.337002 290.989599 
L -128.479162 286.207811 
L -171.544265 269.685335 
L -179.940573 265.535928 
L -214.609368 254.970042 
L -253.082131 240.082257 
L -257.674471 238.179483 
L -300.739575 218.8501 
L -314.670139 214.628586 
L -343.804678 205.743965 
L -381.846158 189.174915 
L -386.869781 187.471551 
L -386.869781 189.174915 
L -386.869781 198.820999 
L -348.517565 214.628586 
L -343.804678 218.336486 
L -300.739575 227.470261 
L -270.439073 240.082257 
L -257.674471 249.671424 
L -214.609368 262.186019 
L -201.790897 265.535928 
L -171.544265 278.533982 
L -132.676477 290.989599 
z
M 172.976559 292.724443 
L 208.149122 316.44327 
L 215.393255 316.44327 
L 188.87399 290.989599 
L 172.976559 280.899582 
L 158.715976 265.535928 
L 129.911456 247.233845 
L 122.618308 240.082257 
L 86.846353 215.857312 
L 85.587632 214.628586 
L 59.610113 189.174915 
L 43.78125 180.081712 
L 26.326835 163.721244 
L 0.716147 147.353397 
L -9.421362 138.267573 
L -42.348956 114.086527 
L -43.626988 112.813902 
L -72.052501 87.360232 
L -85.414059 79.403495 
L -106.012899 61.906561 
L -128.479162 46.370761 
L -139.558997 36.45289 
L -171.544265 11.923925 
L -172.439518 10.999219 
L -199.317141 10.999219 
L -171.544265 35.106758 
L -169.385429 36.45289 
L -131.607668 61.906561 
L -128.479162 65.105699 
L -94.354724 87.360232 
L -85.414059 96.300842 
L -60.98811 112.813902 
L -42.348956 129.383434 
L -28.51337 138.267573 
L 0.716147 161.455674 
L 4.828329 163.721244 
L 39.561362 189.174915 
L 43.78125 193.310548 
L 74.623544 214.628586 
L 86.846353 225.729277 
L 110.028708 240.082257 
L 129.911456 258.051383 
L 143.054756 265.535928 
L 171.163097 290.989599 
z
" clip-path="url(#p1ec12e89ab)" style="fill: #4ec36b"/>
    <path d="M -128.479162 311.027595 
L -85.414059 313.910554 
L -78.603015 316.44327 
L -65.720305 316.44327 
L -85.414059 308.441286 
L -128.479162 294.335829 
L -132.676477 290.989599 
L -171.544265 278.533982 
L -201.790897 265.535928 
L -214.609368 262.186019 
L -257.674471 249.671424 
L -270.439073 240.082257 
L -300.739575 227.470261 
L -343.804678 218.336486 
L -348.517565 214.628586 
L -386.869781 198.820999 
L -386.869781 210.050933 
L -373.608846 214.628586 
L -343.804678 234.585108 
L -300.739575 236.090422 
L -289.762154 240.082257 
L -257.674471 261.403982 
L -237.548527 265.535928 
L -214.609368 281.389123 
L -171.544265 287.382629 
L -158.074104 290.989599 
z
M 216.041662 316.44327 
L 236.023617 316.44327 
L 216.041662 301.81284 
L 206.293423 290.989599 
L 172.976559 267.080864 
L 171.659409 265.535928 
L 143.578804 240.082257 
L 129.911456 231.193148 
L 114.754528 214.628586 
L 86.846353 196.394484 
L 80.726035 189.174915 
L 43.78125 164.531247 
L 43.006495 163.721244 
L 18.727475 138.267573 
L 0.716147 127.628639 
L -11.752461 112.813902 
L -42.348956 92.973281 
L -47.576433 87.360232 
L -80.309824 61.906561 
L -85.414059 59.119297 
L -105.061033 36.45289 
L -128.479162 21.626182 
L -138.166026 10.999219 
L -171.544265 10.999219 
L -172.439518 10.999219 
L -171.544265 11.923925 
L -139.558997 36.45289 
L -128.479162 46.370761 
L -106.012899 61.906561 
L -85.414059 79.403495 
L -72.052501 87.360232 
L -43.626988 112.813902 
L -42.348956 114.086527 
L -9.421362 138.267573 
L 0.716147 147.353397 
L 26.326835 163.721244 
L 43.78125 180.081712 
L 59.610113 189.174915 
L 85.587632 214.628586 
L 86.846353 215.857312 
L 122.618308 240.082257 
L 129.911456 247.233845 
L 158.715976 265.535928 
L 172.976559 280.899582 
L 188.87399 290.989599 
L 215.393255 316.44327 
z
" clip-path="url(#p1ec12e89ab)" style="fill: #70cf57"/>
    <path d="M -343.804678 316.44327 
L -300.739575 316.44327 
L -257.674471 316.44327 
L -214.609368 316.44327 
L -171.544265 316.44327 
L -128.479162 316.44327 
L -85.414059 316.44327 
L -78.603015 316.44327 
L -85.414059 313.910554 
L -128.479162 311.027595 
L -158.074104 290.989599 
L -171.544265 287.382629 
L -214.609368 281.389123 
L -237.548527 265.535928 
L -257.674471 261.403982 
L -289.762154 240.082257 
L -300.739575 236.090422 
L -343.804678 234.585108 
L -373.608846 214.628586 
L -386.869781 210.050933 
L -386.869781 214.628586 
L -386.869781 240.082257 
L -386.869781 265.535928 
L -386.869781 290.989599 
L -386.869781 316.44327 
z
M 216.041662 301.81284 
L 236.023617 316.44327 
L 253.24291 316.44327 
L 230.012759 290.989599 
L 216.041662 280.856933 
L 203.226702 265.535928 
L 174.410197 240.082257 
L 172.976559 238.965452 
L 151.212123 214.628586 
L 129.911456 195.21893 
L 124.852879 189.174915 
L 97.319048 163.721244 
L 86.846353 153.465662 
L 74.38607 138.267573 
L 43.78125 113.101006 
L 43.532069 112.813902 
L 25.228966 87.360232 
L 0.716147 67.155579 
L -4.115197 61.906561 
L -22.611341 36.45289 
L -42.348956 20.014432 
L -50.789468 10.999219 
L -85.414059 10.999219 
L -128.479162 10.999219 
L -138.166026 10.999219 
L -128.479162 21.626182 
L -105.061033 36.45289 
L -85.414059 59.119297 
L -80.309824 61.906561 
L -47.576433 87.360232 
L -42.348956 92.973281 
L -11.752461 112.813902 
L 0.716147 127.628639 
L 18.727475 138.267573 
L 43.006495 163.721244 
L 43.78125 164.531247 
L 80.726035 189.174915 
L 86.846353 196.394484 
L 114.754528 214.628586 
L 129.911456 231.193148 
L 143.578804 240.082257 
L 171.659409 265.535928 
L 172.976559 267.080864 
L 206.293423 290.989599 
z
M 474.432281 300.556704 
L 484.016491 316.44327 
L 517.497384 316.44327 
L 560.562487 316.44327 
L 603.62759 316.44327 
L 646.692693 316.44327 
L 689.757796 316.44327 
L 732.822899 316.44327 
L 775.888002 316.44327 
L 818.953105 316.44327 
L 862.018208 316.44327 
L 905.083311 316.44327 
L 948.148414 316.44327 
L 991.213518 316.44327 
L 1034.278621 316.44327 
L 1077.343724 316.44327 
L 1120.408827 316.44327 
L 1163.47393 316.44327 
L 1206.539033 316.44327 
L 1249.604136 316.44327 
L 1292.669239 316.44327 
L 1335.734342 316.44327 
L 1378.799445 316.44327 
L 1421.864548 316.44327 
L 1464.929651 316.44327 
L 1507.994754 316.44327 
L 1507.994754 290.989599 
L 1507.994754 265.535928 
L 1507.994754 240.082257 
L 1507.994754 214.628586 
L 1507.994754 189.174915 
L 1507.994754 163.721244 
L 1507.994754 138.267573 
L 1507.994754 112.813902 
L 1507.994754 87.360232 
L 1507.994754 61.906561 
L 1507.994754 36.45289 
L 1507.994754 10.999219 
L 1464.929651 10.999219 
L 1421.864548 10.999219 
L 1378.799445 10.999219 
L 1335.734342 10.999219 
L 1292.669239 10.999219 
L 1249.604136 10.999219 
L 1206.539033 10.999219 
L 1163.47393 10.999219 
L 1120.408827 10.999219 
L 1077.343724 10.999219 
L 1034.278621 10.999219 
L 991.213518 10.999219 
L 948.148414 10.999219 
L 905.083311 10.999219 
L 862.018208 10.999219 
L 818.953105 10.999219 
L 775.888002 10.999219 
L 732.822899 10.999219 
L 689.757796 10.999219 
L 646.692693 10.999219 
L 603.62759 10.999219 
L 560.562487 10.999219 
L 517.497384 10.999219 
L 474.432281 10.999219 
L 431.367178 10.999219 
L 388.302075 10.999219 
L 345.236971 10.999219 
L 302.171868 10.999219 
L 259.106765 10.999219 
L 257.961669 10.999219 
L 259.106765 13.213772 
L 278.048813 36.45289 
L 294.162335 61.906561 
L 302.171868 76.338776 
L 311.849054 87.360232 
L 331.399215 112.813902 
L 345.236971 135.962477 
L 347.502992 138.267573 
L 370.885612 163.721244 
L 387.408782 189.174915 
L 388.302075 190.512352 
L 413.028797 214.628586 
L 430.244231 240.082257 
L 431.367178 241.844564 
L 456.132941 265.535928 
L 471.573685 290.989599 
z
" clip-path="url(#p1ec12e89ab)" style="fill: #98d83e"/>
    <path d="M 259.106765 316.44327 
L 295.359457 316.44327 
L 272.485827 290.989599 
L 259.106765 281.221656 
L 252.16946 265.535928 
L 232.66778 240.082257 
L 216.041662 226.454655 
L 211.190057 214.628586 
L 197.116725 189.174915 
L 172.976559 166.460094 
L 171.767792 163.721244 
L 161.632493 138.267573 
L 141.724919 112.813902 
L 129.911456 103.065967 
L 123.807019 87.360232 
L 112.852173 61.906561 
L 86.846353 38.034218 
L 86.155499 36.45289 
L 84.549185 10.999219 
L 43.78125 10.999219 
L 0.716147 10.999219 
L -42.348956 10.999219 
L -50.789468 10.999219 
L -42.348956 20.014432 
L -22.611341 36.45289 
L -4.115197 61.906561 
L 0.716147 67.155579 
L 25.228966 87.360232 
L 43.532069 112.813902 
L 43.78125 113.101006 
L 74.38607 138.267573 
L 86.846353 153.465662 
L 97.319048 163.721244 
L 124.852879 189.174915 
L 129.911456 195.21893 
L 151.212123 214.628586 
L 172.976559 238.965452 
L 174.410197 240.082257 
L 203.226702 265.535928 
L 216.041662 280.856933 
L 230.012759 290.989599 
L 253.24291 316.44327 
z
M 431.367178 316.44327 
L 474.432281 316.44327 
L 484.016491 316.44327 
L 474.432281 300.556704 
L 471.573685 290.989599 
L 456.132941 265.535928 
L 431.367178 241.844564 
L 430.244231 240.082257 
L 413.028797 214.628586 
L 388.302075 190.512352 
L 387.408782 189.174915 
L 370.885612 163.721244 
L 347.502992 138.267573 
L 345.236971 135.962477 
L 331.399215 112.813902 
L 311.849054 87.360232 
L 302.171868 76.338776 
L 294.162335 61.906561 
L 278.048813 36.45289 
L 259.106765 13.213772 
L 257.961669 10.999219 
L 216.041662 10.999219 
L 172.976559 10.999219 
L 129.911456 10.999219 
L 92.524856 10.999219 
L 129.911456 33.402057 
L 133.757992 36.45289 
L 161.370788 61.906561 
L 172.976559 69.862604 
L 192.73826 87.360232 
L 216.041662 107.188291 
L 223.022086 112.813902 
L 249.465539 138.267573 
L 259.106765 146.974505 
L 277.381958 163.721244 
L 302.171868 187.027344 
L 304.741299 189.174915 
L 327.801996 214.628586 
L 345.236971 233.640371 
L 351.551099 240.082257 
L 371.137218 265.535928 
L 388.302075 290.174526 
L 388.921997 290.989599 
L 399.886415 316.44327 
z
" clip-path="url(#p1ec12e89ab)" style="fill: #c2df23"/>
    <path d="M 302.171868 316.44327 
L 345.236971 316.44327 
L 388.302075 316.44327 
L 399.886415 316.44327 
L 388.921997 290.989599 
L 388.302075 290.174526 
L 371.137218 265.535928 
L 351.551099 240.082257 
L 345.236971 233.640371 
L 327.801996 214.628586 
L 304.741299 189.174915 
L 302.171868 187.027344 
L 277.381958 163.721244 
L 259.106765 146.974505 
L 249.465539 138.267573 
L 223.022086 112.813902 
L 216.041662 107.188291 
L 192.73826 87.360232 
L 172.976559 69.862604 
L 161.370788 61.906561 
L 133.757992 36.45289 
L 129.911456 33.402057 
L 92.524856 10.999219 
L 86.846353 10.999219 
L 84.549185 10.999219 
L 86.155499 36.45289 
L 86.846353 38.034218 
L 112.852173 61.906561 
L 123.807019 87.360232 
L 129.911456 103.065967 
L 141.724919 112.813902 
L 161.632493 138.267573 
L 171.767792 163.721244 
L 172.976559 166.460094 
L 197.116725 189.174915 
L 211.190057 214.628586 
L 216.041662 226.454655 
L 232.66778 240.082257 
L 252.16946 265.535928 
L 259.106765 281.221656 
L 272.485827 290.989599 
L 295.359457 316.44327 
z
" clip-path="url(#p1ec12e89ab)" style="fill: #ece51b"/>
   </g>
   <g id="PathCollection_1">
    <defs>
     <path id="mdc0741d33a" d="M -3 3 
L 3 -3 
M -3 -3 
L 3 3 
" style="stroke: #ff0000; stroke-width: 1.5"/>
    </defs>
    <g clip-path="url(#p1ec12e89ab)">
     <use xlink:href="#mdc0741d33a" x="345.236971" y="316.44327" style="fill: #ff0000; stroke: #ff0000; stroke-width: 1.5"/>
     <use xlink:href="#mdc0741d33a" x="345.236971" y="290.989599" style="fill: #ff0000; stroke: #ff0000; stroke-width: 1.5"/>
     <use xlink:href="#mdc0741d33a" x="302.171868" y="265.535928" style="fill: #ff0000; stroke: #ff0000; stroke-width: 1.5"/>
     <use xlink:href="#mdc0741d33a" x="302.171868" y="240.082257" style="fill: #ff0000; stroke: #ff0000; stroke-width: 1.5"/>
     <use xlink:href="#mdc0741d33a" x="259.106765" y="214.628586" style="fill: #ff0000; stroke: #ff0000; stroke-width: 1.5"/>
     <use xlink:href="#mdc0741d33a" x="259.106765" y="189.174915" style="fill: #ff0000; stroke: #ff0000; stroke-width: 1.5"/>
     <use xlink:href="#mdc0741d33a" x="216.041662" y="163.721244" style="fill: #ff0000; stroke: #ff0000; stroke-width: 1.5"/>
     <use xlink:href="#mdc0741d33a" x="216.041662" y="138.267573" style="fill: #ff0000; stroke: #ff0000; stroke-width: 1.5"/>
     <use xlink:href="#mdc0741d33a" x="172.976559" y="112.813902" style="fill: #ff0000; stroke: #ff0000; stroke-width: 1.5"/>
     <use xlink:href="#mdc0741d33a" x="172.976559" y="87.360232" style="fill: #ff0000; stroke: #ff0000; stroke-width: 1.5"/>
     <use xlink:href="#mdc0741d33a" x="129.911456" y="61.906561" style="fill: #ff0000; stroke: #ff0000; stroke-width: 1.5"/>
     <use xlink:href="#mdc0741d33a" x="129.911456" y="36.45289" style="fill: #ff0000; stroke: #ff0000; stroke-width: 1.5"/>
     <use xlink:href="#mdc0741d33a" x="86.846353" y="10.999219" style="fill: #ff0000; stroke: #ff0000; stroke-width: 1.5"/>
    </g>
   </g>
   <g id="matplotlib.axis_1">
    <g id="xtick_1">
     <g id="line2d_1">
      <defs>
       <path id="m38f3b05bbe" d="M 0 0 
L 0 3.5 
" style="stroke: #000000; stroke-width: 0.8"/>
      </defs>
      <g>
       <use xlink:href="#m38f3b05bbe" x="129.911456" y="316.44327" style="stroke: #000000; stroke-width: 0.8"/>
      </g>
     </g>
     <g id="text_1">
      <!-- $\mathdefault{10^{-2}}$ -->
      <g transform="translate(118.161456 331.041707) scale(0.1 -0.1)">
       <defs>
        <path id="DejaVuSans-31" d="M 794 531 
L 1825 531 
L 1825 4091 
L 703 3866 
L 703 4441 
L 1819 4666 
L 2450 4666 
L 2450 531 
L 3481 531 
L 3481 0 
L 794 0 
L 794 531 
z
" transform="scale(0.015625)"/>
        <path id="DejaVuSans-30" d="M 2034 4250 
Q 1547 4250 1301 3770 
Q 1056 3291 1056 2328 
Q 1056 1369 1301 889 
Q 1547 409 2034 409 
Q 2525 409 2770 889 
Q 3016 1369 3016 2328 
Q 3016 3291 2770 3770 
Q 2525 4250 2034 4250 
z
M 2034 4750 
Q 2819 4750 3233 4129 
Q 3647 3509 3647 2328 
Q 3647 1150 3233 529 
Q 2819 -91 2034 -91 
Q 1250 -91 836 529 
Q 422 1150 422 2328 
Q 422 3509 836 4129 
Q 1250 4750 2034 4750 
z
" transform="scale(0.015625)"/>
        <path id="DejaVuSans-2212" d="M 678 2272 
L 4684 2272 
L 4684 1741 
L 678 1741 
L 678 2272 
z
" transform="scale(0.015625)"/>
        <path id="DejaVuSans-32" d="M 1228 531 
L 3431 531 
L 3431 0 
L 469 0 
L 469 531 
Q 828 903 1448 1529 
Q 2069 2156 2228 2338 
Q 2531 2678 2651 2914 
Q 2772 3150 2772 3378 
Q 2772 3750 2511 3984 
Q 2250 4219 1831 4219 
Q 1534 4219 1204 4116 
Q 875 4013 500 3803 
L 500 4441 
Q 881 4594 1212 4672 
Q 1544 4750 1819 4750 
Q 2544 4750 2975 4387 
Q 3406 4025 3406 3419 
Q 3406 3131 3298 2873 
Q 3191 2616 2906 2266 
Q 2828 2175 2409 1742 
Q 1991 1309 1228 531 
z
" transform="scale(0.015625)"/>
       </defs>
       <use xlink:href="#DejaVuSans-31" transform="translate(0 0.765625)"/>
       <use xlink:href="#DejaVuSans-30" transform="translate(63.623047 0.765625)"/>
       <use xlink:href="#DejaVuSans-2212" transform="translate(128.203125 39.046875) scale(0.7)"/>
       <use xlink:href="#DejaVuSans-32" transform="translate(186.855469 39.046875) scale(0.7)"/>
      </g>
     </g>
    </g>
    <g id="xtick_2">
     <g id="line2d_2">
      <g>
       <use xlink:href="#m38f3b05bbe" x="302.171868" y="316.44327" style="stroke: #000000; stroke-width: 0.8"/>
      </g>
     </g>
     <g id="text_2">
      <!-- $\mathdefault{10^{-1}}$ -->
      <g transform="translate(290.421868 331.041707) scale(0.1 -0.1)">
       <use xlink:href="#DejaVuSans-31" transform="translate(0 0.684375)"/>
       <use xlink:href="#DejaVuSans-30" transform="translate(63.623047 0.684375)"/>
       <use xlink:href="#DejaVuSans-2212" transform="translate(128.203125 38.965625) scale(0.7)"/>
       <use xlink:href="#DejaVuSans-31" transform="translate(186.855469 38.965625) scale(0.7)"/>
      </g>
     </g>
    </g>
    <g id="xtick_3">
     <g id="line2d_3">
      <defs>
       <path id="m360e1f0208" d="M 0 0 
L 0 2 
" style="stroke: #000000; stroke-width: 0.6"/>
      </defs>
      <g>
       <use xlink:href="#m360e1f0208" x="61.362146" y="316.44327" style="stroke: #000000; stroke-width: 0.6"/>
      </g>
     </g>
    </g>
    <g id="xtick_4">
     <g id="line2d_4">
      <g>
       <use xlink:href="#m360e1f0208" x="78.055905" y="316.44327" style="stroke: #000000; stroke-width: 0.6"/>
      </g>
     </g>
    </g>
    <g id="xtick_5">
     <g id="line2d_5">
      <g>
       <use xlink:href="#m360e1f0208" x="91.695699" y="316.44327" style="stroke: #000000; stroke-width: 0.6"/>
      </g>
     </g>
    </g>
    <g id="xtick_6">
     <g id="line2d_6">
      <g>
       <use xlink:href="#m360e1f0208" x="103.227981" y="316.44327" style="stroke: #000000; stroke-width: 0.6"/>
      </g>
     </g>
    </g>
    <g id="xtick_7">
     <g id="line2d_7">
      <g>
       <use xlink:href="#m360e1f0208" x="113.217697" y="316.44327" style="stroke: #000000; stroke-width: 0.6"/>
      </g>
     </g>
    </g>
    <g id="xtick_8">
     <g id="line2d_8">
      <g>
       <use xlink:href="#m360e1f0208" x="122.029252" y="316.44327" style="stroke: #000000; stroke-width: 0.6"/>
      </g>
     </g>
    </g>
    <g id="xtick_9">
     <g id="line2d_9">
      <g>
       <use xlink:href="#m360e1f0208" x="181.767007" y="316.44327" style="stroke: #000000; stroke-width: 0.6"/>
      </g>
     </g>
    </g>
    <g id="xtick_10">
     <g id="line2d_10">
      <g>
       <use xlink:href="#m360e1f0208" x="212.10056" y="316.44327" style="stroke: #000000; stroke-width: 0.6"/>
      </g>
     </g>
    </g>
    <g id="xtick_11">
     <g id="line2d_11">
      <g>
       <use xlink:href="#m360e1f0208" x="233.622558" y="316.44327" style="stroke: #000000; stroke-width: 0.6"/>
      </g>
     </g>
    </g>
    <g id="xtick_12">
     <g id="line2d_12">
      <g>
       <use xlink:href="#m360e1f0208" x="250.316317" y="316.44327" style="stroke: #000000; stroke-width: 0.6"/>
      </g>
     </g>
    </g>
    <g id="xtick_13">
     <g id="line2d_13">
      <g>
       <use xlink:href="#m360e1f0208" x="263.956111" y="316.44327" style="stroke: #000000; stroke-width: 0.6"/>
      </g>
     </g>
    </g>
    <g id="xtick_14">
     <g id="line2d_14">
      <g>
       <use xlink:href="#m360e1f0208" x="275.488393" y="316.44327" style="stroke: #000000; stroke-width: 0.6"/>
      </g>
     </g>
    </g>
    <g id="xtick_15">
     <g id="line2d_15">
      <g>
       <use xlink:href="#m360e1f0208" x="285.47811" y="316.44327" style="stroke: #000000; stroke-width: 0.6"/>
      </g>
     </g>
    </g>
    <g id="xtick_16">
     <g id="line2d_16">
      <g>
       <use xlink:href="#m360e1f0208" x="294.289664" y="316.44327" style="stroke: #000000; stroke-width: 0.6"/>
      </g>
     </g>
    </g>
    <g id="xtick_17">
     <g id="line2d_17">
      <g>
       <use xlink:href="#m360e1f0208" x="354.02742" y="316.44327" style="stroke: #000000; stroke-width: 0.6"/>
      </g>
     </g>
    </g>
    <g id="xtick_18">
     <g id="line2d_18">
      <g>
       <use xlink:href="#m360e1f0208" x="384.360972" y="316.44327" style="stroke: #000000; stroke-width: 0.6"/>
      </g>
     </g>
    </g>
    <g id="text_3">
     <!-- bandwidth -->
     <g transform="translate(189.679162 344.719832) scale(0.1 -0.1)">
      <defs>
       <path id="DejaVuSans-62" d="M 3116 1747 
Q 3116 2381 2855 2742 
Q 2594 3103 2138 3103 
Q 1681 3103 1420 2742 
Q 1159 2381 1159 1747 
Q 1159 1113 1420 752 
Q 1681 391 2138 391 
Q 2594 391 2855 752 
Q 3116 1113 3116 1747 
z
M 1159 2969 
Q 1341 3281 1617 3432 
Q 1894 3584 2278 3584 
Q 2916 3584 3314 3078 
Q 3713 2572 3713 1747 
Q 3713 922 3314 415 
Q 2916 -91 2278 -91 
Q 1894 -91 1617 61 
Q 1341 213 1159 525 
L 1159 0 
L 581 0 
L 581 4863 
L 1159 4863 
L 1159 2969 
z
" transform="scale(0.015625)"/>
       <path id="DejaVuSans-61" d="M 2194 1759 
Q 1497 1759 1228 1600 
Q 959 1441 959 1056 
Q 959 750 1161 570 
Q 1363 391 1709 391 
Q 2188 391 2477 730 
Q 2766 1069 2766 1631 
L 2766 1759 
L 2194 1759 
z
M 3341 1997 
L 3341 0 
L 2766 0 
L 2766 531 
Q 2569 213 2275 61 
Q 1981 -91 1556 -91 
Q 1019 -91 701 211 
Q 384 513 384 1019 
Q 384 1609 779 1909 
Q 1175 2209 1959 2209 
L 2766 2209 
L 2766 2266 
Q 2766 2663 2505 2880 
Q 2244 3097 1772 3097 
Q 1472 3097 1187 3025 
Q 903 2953 641 2809 
L 641 3341 
Q 956 3463 1253 3523 
Q 1550 3584 1831 3584 
Q 2591 3584 2966 3190 
Q 3341 2797 3341 1997 
z
" transform="scale(0.015625)"/>
       <path id="DejaVuSans-6e" d="M 3513 2113 
L 3513 0 
L 2938 0 
L 2938 2094 
Q 2938 2591 2744 2837 
Q 2550 3084 2163 3084 
Q 1697 3084 1428 2787 
Q 1159 2491 1159 1978 
L 1159 0 
L 581 0 
L 581 3500 
L 1159 3500 
L 1159 2956 
Q 1366 3272 1645 3428 
Q 1925 3584 2291 3584 
Q 2894 3584 3203 3211 
Q 3513 2838 3513 2113 
z
" transform="scale(0.015625)"/>
       <path id="DejaVuSans-64" d="M 2906 2969 
L 2906 4863 
L 3481 4863 
L 3481 0 
L 2906 0 
L 2906 525 
Q 2725 213 2448 61 
Q 2172 -91 1784 -91 
Q 1150 -91 751 415 
Q 353 922 353 1747 
Q 353 2572 751 3078 
Q 1150 3584 1784 3584 
Q 2172 3584 2448 3432 
Q 2725 3281 2906 2969 
z
M 947 1747 
Q 947 1113 1208 752 
Q 1469 391 1925 391 
Q 2381 391 2643 752 
Q 2906 1113 2906 1747 
Q 2906 2381 2643 2742 
Q 2381 3103 1925 3103 
Q 1469 3103 1208 2742 
Q 947 2381 947 1747 
z
" transform="scale(0.015625)"/>
       <path id="DejaVuSans-77" d="M 269 3500 
L 844 3500 
L 1563 769 
L 2278 3500 
L 2956 3500 
L 3675 769 
L 4391 3500 
L 4966 3500 
L 4050 0 
L 3372 0 
L 2619 2869 
L 1863 0 
L 1184 0 
L 269 3500 
z
" transform="scale(0.015625)"/>
       <path id="DejaVuSans-69" d="M 603 3500 
L 1178 3500 
L 1178 0 
L 603 0 
L 603 3500 
z
M 603 4863 
L 1178 4863 
L 1178 4134 
L 603 4134 
L 603 4863 
z
" transform="scale(0.015625)"/>
       <path id="DejaVuSans-74" d="M 1172 4494 
L 1172 3500 
L 2356 3500 
L 2356 3053 
L 1172 3053 
L 1172 1153 
Q 1172 725 1289 603 
Q 1406 481 1766 481 
L 2356 481 
L 2356 0 
L 1766 0 
Q 1100 0 847 248 
Q 594 497 594 1153 
L 594 3053 
L 172 3053 
L 172 3500 
L 594 3500 
L 594 4494 
L 1172 4494 
z
" transform="scale(0.015625)"/>
       <path id="DejaVuSans-68" d="M 3513 2113 
L 3513 0 
L 2938 0 
L 2938 2094 
Q 2938 2591 2744 2837 
Q 2550 3084 2163 3084 
Q 1697 3084 1428 2787 
Q 1159 2491 1159 1978 
L 1159 0 
L 581 0 
L 581 4863 
L 1159 4863 
L 1159 2956 
Q 1366 3272 1645 3428 
Q 1925 3584 2291 3584 
Q 2894 3584 3203 3211 
Q 3513 2838 3513 2113 
z
" transform="scale(0.015625)"/>
      </defs>
      <use xlink:href="#DejaVuSans-62"/>
      <use xlink:href="#DejaVuSans-61" transform="translate(63.476562 0)"/>
      <use xlink:href="#DejaVuSans-6e" transform="translate(124.755859 0)"/>
      <use xlink:href="#DejaVuSans-64" transform="translate(188.134766 0)"/>
      <use xlink:href="#DejaVuSans-77" transform="translate(251.611328 0)"/>
      <use xlink:href="#DejaVuSans-69" transform="translate(333.398438 0)"/>
      <use xlink:href="#DejaVuSans-64" transform="translate(361.181641 0)"/>
      <use xlink:href="#DejaVuSans-74" transform="translate(424.658203 0)"/>
      <use xlink:href="#DejaVuSans-68" transform="translate(463.867188 0)"/>
     </g>
    </g>
   </g>
   <g id="matplotlib.axis_2">
    <g id="ytick_1">
     <g id="line2d_19">
      <defs>
       <path id="mbd2f377c6c" d="M 0 0 
L -3.5 0 
" style="stroke: #000000; stroke-width: 0.8"/>
      </defs>
      <g>
       <use xlink:href="#mbd2f377c6c" x="43.78125" y="316.44327" style="stroke: #000000; stroke-width: 0.8"/>
      </g>
     </g>
     <g id="text_4">
      <!-- 1.0 -->
      <g transform="translate(20.878125 320.242489) scale(0.1 -0.1)">
       <defs>
        <path id="DejaVuSans-2e" d="M 684 794 
L 1344 794 
L 1344 0 
L 684 0 
L 684 794 
z
" transform="scale(0.015625)"/>
       </defs>
       <use xlink:href="#DejaVuSans-31"/>
       <use xlink:href="#DejaVuSans-2e" transform="translate(63.623047 0)"/>
       <use xlink:href="#DejaVuSans-30" transform="translate(95.410156 0)"/>
      </g>
     </g>
    </g>
    <g id="ytick_2">
     <g id="line2d_20">
      <g>
       <use xlink:href="#mbd2f377c6c" x="43.78125" y="265.535928" style="stroke: #000000; stroke-width: 0.8"/>
      </g>
     </g>
     <g id="text_5">
      <!-- 1.5 -->
      <g transform="translate(20.878125 269.335147) scale(0.1 -0.1)">
       <defs>
        <path id="DejaVuSans-35" d="M 691 4666 
L 3169 4666 
L 3169 4134 
L 1269 4134 
L 1269 2991 
Q 1406 3038 1543 3061 
Q 1681 3084 1819 3084 
Q 2600 3084 3056 2656 
Q 3513 2228 3513 1497 
Q 3513 744 3044 326 
Q 2575 -91 1722 -91 
Q 1428 -91 1123 -41 
Q 819 9 494 109 
L 494 744 
Q 775 591 1075 516 
Q 1375 441 1709 441 
Q 2250 441 2565 725 
Q 2881 1009 2881 1497 
Q 2881 1984 2565 2268 
Q 2250 2553 1709 2553 
Q 1456 2553 1204 2497 
Q 953 2441 691 2322 
L 691 4666 
z
" transform="scale(0.015625)"/>
       </defs>
       <use xlink:href="#DejaVuSans-31"/>
       <use xlink:href="#DejaVuSans-2e" transform="translate(63.623047 0)"/>
       <use xlink:href="#DejaVuSans-35" transform="translate(95.410156 0)"/>
      </g>
     </g>
    </g>
    <g id="ytick_3">
     <g id="line2d_21">
      <g>
       <use xlink:href="#mbd2f377c6c" x="43.78125" y="214.628586" style="stroke: #000000; stroke-width: 0.8"/>
      </g>
     </g>
     <g id="text_6">
      <!-- 2.0 -->
      <g transform="translate(20.878125 218.427805) scale(0.1 -0.1)">
       <use xlink:href="#DejaVuSans-32"/>
       <use xlink:href="#DejaVuSans-2e" transform="translate(63.623047 0)"/>
       <use xlink:href="#DejaVuSans-30" transform="translate(95.410156 0)"/>
      </g>
     </g>
    </g>
    <g id="ytick_4">
     <g id="line2d_22">
      <g>
       <use xlink:href="#mbd2f377c6c" x="43.78125" y="163.721244" style="stroke: #000000; stroke-width: 0.8"/>
      </g>
     </g>
     <g id="text_7">
      <!-- 2.5 -->
      <g transform="translate(20.878125 167.520463) scale(0.1 -0.1)">
       <use xlink:href="#DejaVuSans-32"/>
       <use xlink:href="#DejaVuSans-2e" transform="translate(63.623047 0)"/>
       <use xlink:href="#DejaVuSans-35" transform="translate(95.410156 0)"/>
      </g>
     </g>
    </g>
    <g id="ytick_5">
     <g id="line2d_23">
      <g>
       <use xlink:href="#mbd2f377c6c" x="43.78125" y="112.813902" style="stroke: #000000; stroke-width: 0.8"/>
      </g>
     </g>
     <g id="text_8">
      <!-- 3.0 -->
      <g transform="translate(20.878125 116.613121) scale(0.1 -0.1)">
       <defs>
        <path id="DejaVuSans-33" d="M 2597 2516 
Q 3050 2419 3304 2112 
Q 3559 1806 3559 1356 
Q 3559 666 3084 287 
Q 2609 -91 1734 -91 
Q 1441 -91 1130 -33 
Q 819 25 488 141 
L 488 750 
Q 750 597 1062 519 
Q 1375 441 1716 441 
Q 2309 441 2620 675 
Q 2931 909 2931 1356 
Q 2931 1769 2642 2001 
Q 2353 2234 1838 2234 
L 1294 2234 
L 1294 2753 
L 1863 2753 
Q 2328 2753 2575 2939 
Q 2822 3125 2822 3475 
Q 2822 3834 2567 4026 
Q 2313 4219 1838 4219 
Q 1578 4219 1281 4162 
Q 984 4106 628 3988 
L 628 4550 
Q 988 4650 1302 4700 
Q 1616 4750 1894 4750 
Q 2613 4750 3031 4423 
Q 3450 4097 3450 3541 
Q 3450 3153 3228 2886 
Q 3006 2619 2597 2516 
z
" transform="scale(0.015625)"/>
       </defs>
       <use xlink:href="#DejaVuSans-33"/>
       <use xlink:href="#DejaVuSans-2e" transform="translate(63.623047 0)"/>
       <use xlink:href="#DejaVuSans-30" transform="translate(95.410156 0)"/>
      </g>
     </g>
    </g>
    <g id="ytick_6">
     <g id="line2d_24">
      <g>
       <use xlink:href="#mbd2f377c6c" x="43.78125" y="61.906561" style="stroke: #000000; stroke-width: 0.8"/>
      </g>
     </g>
     <g id="text_9">
      <!-- 3.5 -->
      <g transform="translate(20.878125 65.705779) scale(0.1 -0.1)">
       <use xlink:href="#DejaVuSans-33"/>
       <use xlink:href="#DejaVuSans-2e" transform="translate(63.623047 0)"/>
       <use xlink:href="#DejaVuSans-35" transform="translate(95.410156 0)"/>
      </g>
     </g>
    </g>
    <g id="ytick_7">
     <g id="line2d_25">
      <g>
       <use xlink:href="#mbd2f377c6c" x="43.78125" y="10.999219" style="stroke: #000000; stroke-width: 0.8"/>
      </g>
     </g>
     <g id="text_10">
      <!-- 4.0 -->
      <g transform="translate(20.878125 14.798438) scale(0.1 -0.1)">
       <defs>
        <path id="DejaVuSans-34" d="M 2419 4116 
L 825 1625 
L 2419 1625 
L 2419 4116 
z
M 2253 4666 
L 3047 4666 
L 3047 1625 
L 3713 1625 
L 3713 1100 
L 3047 1100 
L 3047 0 
L 2419 0 
L 2419 1100 
L 313 1100 
L 313 1709 
L 2253 4666 
z
" transform="scale(0.015625)"/>
       </defs>
       <use xlink:href="#DejaVuSans-34"/>
       <use xlink:href="#DejaVuSans-2e" transform="translate(63.623047 0)"/>
       <use xlink:href="#DejaVuSans-30" transform="translate(95.410156 0)"/>
      </g>
     </g>
    </g>
    <g id="text_11">
     <!-- alpha -->
     <g transform="translate(14.798438 177.581401) rotate(-90) scale(0.1 -0.1)">
      <defs>
       <path id="DejaVuSans-6c" d="M 603 4863 
L 1178 4863 
L 1178 0 
L 603 0 
L 603 4863 
z
" transform="scale(0.015625)"/>
       <path id="DejaVuSans-70" d="M 1159 525 
L 1159 -1331 
L 581 -1331 
L 581 3500 
L 1159 3500 
L 1159 2969 
Q 1341 3281 1617 3432 
Q 1894 3584 2278 3584 
Q 2916 3584 3314 3078 
Q 3713 2572 3713 1747 
Q 3713 922 3314 415 
Q 2916 -91 2278 -91 
Q 1894 -91 1617 61 
Q 1341 213 1159 525 
z
M 3116 1747 
Q 3116 2381 2855 2742 
Q 2594 3103 2138 3103 
Q 1681 3103 1420 2742 
Q 1159 2381 1159 1747 
Q 1159 1113 1420 752 
Q 1681 391 2138 391 
Q 2594 391 2855 752 
Q 3116 1113 3116 1747 
z
" transform="scale(0.015625)"/>
      </defs>
      <use xlink:href="#DejaVuSans-61"/>
      <use xlink:href="#DejaVuSans-6c" transform="translate(61.279297 0)"/>
      <use xlink:href="#DejaVuSans-70" transform="translate(89.0625 0)"/>
      <use xlink:href="#DejaVuSans-68" transform="translate(152.539062 0)"/>
      <use xlink:href="#DejaVuSans-61" transform="translate(215.917969 0)"/>
     </g>
    </g>
   </g>
   <g id="patch_3">
    <path d="M 43.78125 316.44327 
L 43.78125 10.999219 
" style="fill: none; stroke: #000000; stroke-width: 0.8; stroke-linejoin: miter; stroke-linecap: square"/>
   </g>
   <g id="patch_4">
    <path d="M 388.302075 316.44327 
L 388.302075 10.999219 
" style="fill: none; stroke: #000000; stroke-width: 0.8; stroke-linejoin: miter; stroke-linecap: square"/>
   </g>
   <g id="patch_5">
    <path d="M 43.78125 316.44327 
L 388.302075 316.44327 
" style="fill: none; stroke: #000000; stroke-width: 0.8; stroke-linejoin: miter; stroke-linecap: square"/>
   </g>
   <g id="patch_6">
    <path d="M 43.78125 10.999219 
L 388.302075 10.999219 
" style="fill: none; stroke: #000000; stroke-width: 0.8; stroke-linejoin: miter; stroke-linecap: square"/>
   </g>
  </g>
  <g id="axes_2">
   <g id="patch_7">
    <path d="M 405.528116 316.44327 
L 420.800318 316.44327 
L 420.800318 10.999219 
L 405.528116 10.999219 
z
" style="fill: #ffffff"/>
   </g>
   <g id="QuadMesh_1">
    <path d="M 405.528116 316.44327 
L 420.800318 316.44327 
L 420.800318 297.353017 
L 405.528116 297.353017 
L 405.528116 316.44327 
" clip-path="url(#pe6d9492728)" style="fill: #470d60"/>
    <path d="M 405.528116 297.353017 
L 420.800318 297.353017 
L 420.800318 278.262764 
L 405.528116 278.262764 
L 405.528116 297.353017 
" clip-path="url(#pe6d9492728)" style="fill: #482374"/>
    <path d="M 405.528116 278.262764 
L 420.800318 278.262764 
L 420.800318 259.17251 
L 405.528116 259.17251 
L 405.528116 278.262764 
" clip-path="url(#pe6d9492728)" style="fill: #453781"/>
    <path d="M 405.528116 259.17251 
L 420.800318 259.17251 
L 420.800318 240.082257 
L 405.528116 240.082257 
L 405.528116 259.17251 
" clip-path="url(#pe6d9492728)" style="fill: #3e4989"/>
    <path d="M 405.528116 240.082257 
L 420.800318 240.082257 
L 420.800318 220.992004 
L 405.528116 220.992004 
L 405.528116 240.082257 
" clip-path="url(#pe6d9492728)" style="fill: #375b8d"/>
    <path d="M 405.528116 220.992004 
L 420.800318 220.992004 
L 420.800318 201.901751 
L 405.528116 201.901751 
L 405.528116 220.992004 
" clip-path="url(#pe6d9492728)" style="fill: #2f6b8e"/>
    <path d="M 405.528116 201.901751 
L 420.800318 201.901751 
L 420.800318 182.811498 
L 405.528116 182.811498 
L 405.528116 201.901751 
" clip-path="url(#pe6d9492728)" style="fill: #297a8e"/>
    <path d="M 405.528116 182.811498 
L 420.800318 182.811498 
L 420.800318 163.721244 
L 405.528116 163.721244 
L 405.528116 182.811498 
" clip-path="url(#pe6d9492728)" style="fill: #23898e"/>
    <path d="M 405.528116 163.721244 
L 420.800318 163.721244 
L 420.800318 144.630991 
L 405.528116 144.630991 
L 405.528116 163.721244 
" clip-path="url(#pe6d9492728)" style="fill: #1f988b"/>
    <path d="M 405.528116 144.630991 
L 420.800318 144.630991 
L 420.800318 125.540738 
L 405.528116 125.540738 
L 405.528116 144.630991 
" clip-path="url(#pe6d9492728)" style="fill: #22a785"/>
    <path d="M 405.528116 125.540738 
L 420.800318 125.540738 
L 420.800318 106.450485 
L 405.528116 106.450485 
L 405.528116 125.540738 
" clip-path="url(#pe6d9492728)" style="fill: #32b67a"/>
    <path d="M 405.528116 106.450485 
L 420.800318 106.450485 
L 420.800318 87.360232 
L 405.528116 87.360232 
L 405.528116 106.450485 
" clip-path="url(#pe6d9492728)" style="fill: #4ec36b"/>
    <path d="M 405.528116 87.360232 
L 420.800318 87.360232 
L 420.800318 68.269978 
L 405.528116 68.269978 
L 405.528116 87.360232 
" clip-path="url(#pe6d9492728)" style="fill: #70cf57"/>
    <path d="M 405.528116 68.269978 
L 420.800318 68.269978 
L 420.800318 49.179725 
L 405.528116 49.179725 
L 405.528116 68.269978 
" clip-path="url(#pe6d9492728)" style="fill: #98d83e"/>
    <path d="M 405.528116 49.179725 
L 420.800318 49.179725 
L 420.800318 30.089472 
L 405.528116 30.089472 
L 405.528116 49.179725 
" clip-path="url(#pe6d9492728)" style="fill: #c2df23"/>
    <path d="M 405.528116 30.089472 
L 420.800318 30.089472 
L 420.800318 10.999219 
L 405.528116 10.999219 
L 405.528116 30.089472 
" clip-path="url(#pe6d9492728)" style="fill: #ece51b"/>
   </g>
   <g id="matplotlib.axis_3"/>
   <g id="matplotlib.axis_4">
    <g id="ytick_8">
     <g id="line2d_26">
      <defs>
       <path id="m0a27ea52cb" d="M 0 0 
L 3.5 0 
" style="stroke: #000000; stroke-width: 0.8"/>
      </defs>
      <g>
       <use xlink:href="#m0a27ea52cb" x="420.800318" y="316.44327" style="stroke: #000000; stroke-width: 0.8"/>
      </g>
     </g>
     <g id="text_12">
      <!-- -4.0 -->
      <g transform="translate(427.800318 320.242489) scale(0.1 -0.1)">
       <defs>
        <path id="DejaVuSans-2d" d="M 313 2009 
L 1997 2009 
L 1997 1497 
L 313 1497 
L 313 2009 
z
" transform="scale(0.015625)"/>
       </defs>
       <use xlink:href="#DejaVuSans-2d"/>
       <use xlink:href="#DejaVuSans-34" transform="translate(36.083984 0)"/>
       <use xlink:href="#DejaVuSans-2e" transform="translate(99.707031 0)"/>
       <use xlink:href="#DejaVuSans-30" transform="translate(131.494141 0)"/>
      </g>
     </g>
    </g>
    <g id="ytick_9">
     <g id="line2d_27">
      <g>
       <use xlink:href="#m0a27ea52cb" x="420.800318" y="278.262764" style="stroke: #000000; stroke-width: 0.8"/>
      </g>
     </g>
     <g id="text_13">
      <!-- -3.5 -->
      <g transform="translate(427.800318 282.061982) scale(0.1 -0.1)">
       <use xlink:href="#DejaVuSans-2d"/>
       <use xlink:href="#DejaVuSans-33" transform="translate(36.083984 0)"/>
       <use xlink:href="#DejaVuSans-2e" transform="translate(99.707031 0)"/>
       <use xlink:href="#DejaVuSans-35" transform="translate(131.494141 0)"/>
      </g>
     </g>
    </g>
    <g id="ytick_10">
     <g id="line2d_28">
      <g>
       <use xlink:href="#m0a27ea52cb" x="420.800318" y="240.082257" style="stroke: #000000; stroke-width: 0.8"/>
      </g>
     </g>
     <g id="text_14">
      <!-- -3.0 -->
      <g transform="translate(427.800318 243.881476) scale(0.1 -0.1)">
       <use xlink:href="#DejaVuSans-2d"/>
       <use xlink:href="#DejaVuSans-33" transform="translate(36.083984 0)"/>
       <use xlink:href="#DejaVuSans-2e" transform="translate(99.707031 0)"/>
       <use xlink:href="#DejaVuSans-30" transform="translate(131.494141 0)"/>
      </g>
     </g>
    </g>
    <g id="ytick_11">
     <g id="line2d_29">
      <g>
       <use xlink:href="#m0a27ea52cb" x="420.800318" y="201.901751" style="stroke: #000000; stroke-width: 0.8"/>
      </g>
     </g>
     <g id="text_15">
      <!-- -2.5 -->
      <g transform="translate(427.800318 205.70097) scale(0.1 -0.1)">
       <use xlink:href="#DejaVuSans-2d"/>
       <use xlink:href="#DejaVuSans-32" transform="translate(36.083984 0)"/>
       <use xlink:href="#DejaVuSans-2e" transform="translate(99.707031 0)"/>
       <use xlink:href="#DejaVuSans-35" transform="translate(131.494141 0)"/>
      </g>
     </g>
    </g>
    <g id="ytick_12">
     <g id="line2d_30">
      <g>
       <use xlink:href="#m0a27ea52cb" x="420.800318" y="163.721244" style="stroke: #000000; stroke-width: 0.8"/>
      </g>
     </g>
     <g id="text_16">
      <!-- -2.0 -->
      <g transform="translate(427.800318 167.520463) scale(0.1 -0.1)">
       <use xlink:href="#DejaVuSans-2d"/>
       <use xlink:href="#DejaVuSans-32" transform="translate(36.083984 0)"/>
       <use xlink:href="#DejaVuSans-2e" transform="translate(99.707031 0)"/>
       <use xlink:href="#DejaVuSans-30" transform="translate(131.494141 0)"/>
      </g>
     </g>
    </g>
    <g id="ytick_13">
     <g id="line2d_31">
      <g>
       <use xlink:href="#m0a27ea52cb" x="420.800318" y="125.540738" style="stroke: #000000; stroke-width: 0.8"/>
      </g>
     </g>
     <g id="text_17">
      <!-- -1.5 -->
      <g transform="translate(427.800318 129.339957) scale(0.1 -0.1)">
       <use xlink:href="#DejaVuSans-2d"/>
       <use xlink:href="#DejaVuSans-31" transform="translate(36.083984 0)"/>
       <use xlink:href="#DejaVuSans-2e" transform="translate(99.707031 0)"/>
       <use xlink:href="#DejaVuSans-35" transform="translate(131.494141 0)"/>
      </g>
     </g>
    </g>
    <g id="ytick_14">
     <g id="line2d_32">
      <g>
       <use xlink:href="#m0a27ea52cb" x="420.800318" y="87.360232" style="stroke: #000000; stroke-width: 0.8"/>
      </g>
     </g>
     <g id="text_18">
      <!-- -1.0 -->
      <g transform="translate(427.800318 91.15945) scale(0.1 -0.1)">
       <use xlink:href="#DejaVuSans-2d"/>
       <use xlink:href="#DejaVuSans-31" transform="translate(36.083984 0)"/>
       <use xlink:href="#DejaVuSans-2e" transform="translate(99.707031 0)"/>
       <use xlink:href="#DejaVuSans-30" transform="translate(131.494141 0)"/>
      </g>
     </g>
    </g>
    <g id="ytick_15">
     <g id="line2d_33">
      <g>
       <use xlink:href="#m0a27ea52cb" x="420.800318" y="49.179725" style="stroke: #000000; stroke-width: 0.8"/>
      </g>
     </g>
     <g id="text_19">
      <!-- -0.5 -->
      <g transform="translate(427.800318 52.978944) scale(0.1 -0.1)">
       <use xlink:href="#DejaVuSans-2d"/>
       <use xlink:href="#DejaVuSans-30" transform="translate(36.083984 0)"/>
       <use xlink:href="#DejaVuSans-2e" transform="translate(99.707031 0)"/>
       <use xlink:href="#DejaVuSans-35" transform="translate(131.494141 0)"/>
      </g>
     </g>
    </g>
    <g id="ytick_16">
     <g id="line2d_34">
      <g>
       <use xlink:href="#m0a27ea52cb" x="420.800318" y="10.999219" style="stroke: #000000; stroke-width: 0.8"/>
      </g>
     </g>
     <g id="text_20">
      <!-- 0.0 -->
      <g transform="translate(427.800318 14.798438) scale(0.1 -0.1)">
       <use xlink:href="#DejaVuSans-30"/>
       <use xlink:href="#DejaVuSans-2e" transform="translate(63.623047 0)"/>
       <use xlink:href="#DejaVuSans-30" transform="translate(95.410156 0)"/>
      </g>
     </g>
    </g>
    <g id="text_21">
     <!-- Score -->
     <g transform="translate(458.909693 177.723588) rotate(-90) scale(0.1 -0.1)">
      <defs>
       <path id="DejaVuSans-53" d="M 3425 4513 
L 3425 3897 
Q 3066 4069 2747 4153 
Q 2428 4238 2131 4238 
Q 1616 4238 1336 4038 
Q 1056 3838 1056 3469 
Q 1056 3159 1242 3001 
Q 1428 2844 1947 2747 
L 2328 2669 
Q 3034 2534 3370 2195 
Q 3706 1856 3706 1288 
Q 3706 609 3251 259 
Q 2797 -91 1919 -91 
Q 1588 -91 1214 -16 
Q 841 59 441 206 
L 441 856 
Q 825 641 1194 531 
Q 1563 422 1919 422 
Q 2459 422 2753 634 
Q 3047 847 3047 1241 
Q 3047 1584 2836 1778 
Q 2625 1972 2144 2069 
L 1759 2144 
Q 1053 2284 737 2584 
Q 422 2884 422 3419 
Q 422 4038 858 4394 
Q 1294 4750 2059 4750 
Q 2388 4750 2728 4690 
Q 3069 4631 3425 4513 
z
" transform="scale(0.015625)"/>
       <path id="DejaVuSans-63" d="M 3122 3366 
L 3122 2828 
Q 2878 2963 2633 3030 
Q 2388 3097 2138 3097 
Q 1578 3097 1268 2742 
Q 959 2388 959 1747 
Q 959 1106 1268 751 
Q 1578 397 2138 397 
Q 2388 397 2633 464 
Q 2878 531 3122 666 
L 3122 134 
Q 2881 22 2623 -34 
Q 2366 -91 2075 -91 
Q 1284 -91 818 406 
Q 353 903 353 1747 
Q 353 2603 823 3093 
Q 1294 3584 2113 3584 
Q 2378 3584 2631 3529 
Q 2884 3475 3122 3366 
z
" transform="scale(0.015625)"/>
       <path id="DejaVuSans-6f" d="M 1959 3097 
Q 1497 3097 1228 2736 
Q 959 2375 959 1747 
Q 959 1119 1226 758 
Q 1494 397 1959 397 
Q 2419 397 2687 759 
Q 2956 1122 2956 1747 
Q 2956 2369 2687 2733 
Q 2419 3097 1959 3097 
z
M 1959 3584 
Q 2709 3584 3137 3096 
Q 3566 2609 3566 1747 
Q 3566 888 3137 398 
Q 2709 -91 1959 -91 
Q 1206 -91 779 398 
Q 353 888 353 1747 
Q 353 2609 779 3096 
Q 1206 3584 1959 3584 
z
" transform="scale(0.015625)"/>
       <path id="DejaVuSans-72" d="M 2631 2963 
Q 2534 3019 2420 3045 
Q 2306 3072 2169 3072 
Q 1681 3072 1420 2755 
Q 1159 2438 1159 1844 
L 1159 0 
L 581 0 
L 581 3500 
L 1159 3500 
L 1159 2956 
Q 1341 3275 1631 3429 
Q 1922 3584 2338 3584 
Q 2397 3584 2469 3576 
Q 2541 3569 2628 3553 
L 2631 2963 
z
" transform="scale(0.015625)"/>
       <path id="DejaVuSans-65" d="M 3597 1894 
L 3597 1613 
L 953 1613 
Q 991 1019 1311 708 
Q 1631 397 2203 397 
Q 2534 397 2845 478 
Q 3156 559 3463 722 
L 3463 178 
Q 3153 47 2828 -22 
Q 2503 -91 2169 -91 
Q 1331 -91 842 396 
Q 353 884 353 1716 
Q 353 2575 817 3079 
Q 1281 3584 2069 3584 
Q 2775 3584 3186 3129 
Q 3597 2675 3597 1894 
z
M 3022 2063 
Q 3016 2534 2758 2815 
Q 2500 3097 2075 3097 
Q 1594 3097 1305 2825 
Q 1016 2553 972 2059 
L 3022 2063 
z
" transform="scale(0.015625)"/>
      </defs>
      <use xlink:href="#DejaVuSans-53"/>
      <use xlink:href="#DejaVuSans-63" transform="translate(63.476562 0)"/>
      <use xlink:href="#DejaVuSans-6f" transform="translate(118.457031 0)"/>
      <use xlink:href="#DejaVuSans-72" transform="translate(179.638672 0)"/>
      <use xlink:href="#DejaVuSans-65" transform="translate(218.501953 0)"/>
     </g>
    </g>
   </g>
   <g id="LineCollection_1"/>
   <g id="patch_8">
    <path d="M 405.528116 316.44327 
L 413.164217 316.44327 
L 420.800318 316.44327 
L 420.800318 10.999219 
L 413.164217 10.999219 
L 405.528116 10.999219 
L 405.528116 316.44327 
z
" style="fill: none; stroke: #000000; stroke-width: 0.8; stroke-linejoin: miter; stroke-linecap: square"/>
   </g>
  </g>
 </g>
 <defs>
  <clipPath id="p1ec12e89ab">
   <rect x="43.78125" y="10.999219" width="344.520825" height="305.444051"/>
  </clipPath>
  <clipPath id="pe6d9492728">
   <rect x="405.528116" y="10.999219" width="15.272203" height="305.444051"/>
  </clipPath>
 </defs>
</svg>
