<?xml version="1.0" encoding="utf-8" standalone="no"?>
<!DOCTYPE svg PUBLIC "-//W3C//DTD SVG 1.1//EN"
  "http://www.w3.org/Graphics/SVG/1.1/DTD/svg11.dtd">
<svg xmlns:xlink="http://www.w3.org/1999/xlink" width="460.8pt" height="345.6pt" viewBox="0 0 460.8 345.6" xmlns="http://www.w3.org/2000/svg" version="1.1">
 <metadata>
  <rdf:RDF xmlns:dc="http://purl.org/dc/elements/1.1/" xmlns:cc="http://creativecommons.org/ns#" xmlns:rdf="http://www.w3.org/1999/02/22-rdf-syntax-ns#">
   <cc:Work>
    <dc:type rdf:resource="http://purl.org/dc/dcmitype/StillImage"/>
    <dc:date>2025-11-23T18:47:12.422325</dc:date>
    <dc:format>image/svg+xml</dc:format>
    <dc:creator>
     <cc:Agent>
      <dc:title>Matplotlib v3.10.7, https://matplotlib.org/</dc:title>
     </cc:Agent>
    </dc:creator>
   </cc:Work>
  </rdf:RDF>
 </metadata>
 <defs>
  <style type="text/css">*{stroke-linejoin: round; stroke-linecap: butt}</style>
 </defs>
 <g id="figure_1">
  <g id="patch_1">
   <path d="M 0 345.6 
L 460.8 345.6 
L 460.8 0 
L 0 0 
z
" style="fill: #ffffff"/>
  </g>
  <g id="axes_1">
   <g id="patch_2">
    <path d="M 39.58149 312.24351 
L 380.134979 312.24351 
L 380.134979 18.118365 
L 39.58149 18.118365 
z
" style="fill: #ffffff"/>
   </g>
   <g id="QuadContourSet_1">
    <path d="M -2.987696 288.225089 
L 39.078216 312.24351 
L 39.58149 312.24351 
L 82.150676 312.24351 
L 94.908136 312.24351 
L 82.150676 305.716181 
L 53.877227 287.733081 
L 39.58149 280.927856 
L 11.429443 263.222652 
L -2.987696 256.623398 
L -40.076589 238.712224 
L -45.556882 236.345532 
L -86.75627 214.201795 
L -88.126068 213.638429 
L -130.695254 202.71507 
L -131.755278 214.201795 
L -130.695254 214.964917 
L -89.527099 238.712224 
L -88.126068 239.529312 
L -46.448496 263.222652 
L -45.556882 263.906014 
L -3.675851 287.733081 
z
" clip-path="url(#p43bee29db5)" style="fill: #470d60"/>
    <path d="M -2.987696 293.701639 
L 31.375718 312.24351 
L 39.078216 312.24351 
L -2.987696 288.225089 
L -3.675851 287.733081 
L -45.556882 263.906014 
L -46.448496 263.222652 
L -88.126068 239.529312 
L -89.527099 238.712224 
L -130.695254 214.964917 
L -131.755278 214.201795 
L -130.695254 202.71507 
L -88.126068 213.638429 
L -86.75627 214.201795 
L -45.556882 236.345532 
L -40.076589 238.712224 
L -2.987696 256.623398 
L 11.429443 263.222652 
L 39.58149 280.927856 
L 53.877227 287.733081 
L 82.150676 305.716181 
L 94.908136 312.24351 
L 113.228958 312.24351 
L 82.150676 294.135179 
L 73.273765 287.733081 
L 39.58149 269.317053 
L 31.048335 263.222652 
L -2.987696 245.304117 
L -14.585487 238.712224 
L -45.556882 222.708513 
L -58.811458 214.201795 
L -88.126068 199.542647 
L -104.035438 189.691366 
L -130.695254 176.523198 
L -156.113341 165.180938 
L -173.26444 157.454695 
L -215.833626 142.925563 
L -225.668318 165.180938 
L -215.833626 171.664768 
L -184.749812 189.691366 
L -173.26444 197.540936 
L -142.727937 214.201795 
L -130.695254 222.253647 
L -99.913068 238.712224 
L -88.126068 245.126984 
L -54.386956 263.222652 
L -45.556882 269.6404 
L -11.802026 287.733081 
z
M -258.402813 145.950646 
L -220.096063 140.670509 
L -258.402813 123.613207 
L -265.962029 140.670509 
z
M -300.971999 121.118937 
L -269.922779 116.16008 
L -300.971999 103.075397 
L -307.415579 116.16008 
z
M -343.541185 95.94073 
L -318.912714 91.649651 
L -343.541185 81.331157 
L -349.224606 91.649651 
z
M -367.44191 67.139223 
L -386.110371 59.312411 
L -386.110371 67.139223 
L -386.110371 70.585129 
z
" clip-path="url(#p43bee29db5)" style="fill: #482374"/>
    <path d="M -2.987696 299.178188 
L 22.776655 312.24351 
L 31.375718 312.24351 
L -2.987696 293.701639 
L -11.802026 287.733081 
L -45.556882 269.6404 
L -54.386956 263.222652 
L -88.126068 245.126984 
L -99.913068 238.712224 
L -130.695254 222.253647 
L -142.727937 214.201795 
L -173.26444 197.540936 
L -184.749812 189.691366 
L -215.833626 171.664768 
L -225.668318 165.180938 
L -215.833626 142.925563 
L -173.26444 157.454695 
L -156.113341 165.180938 
L -130.695254 176.523198 
L -104.035438 189.691366 
L -88.126068 199.542647 
L -58.811458 214.201795 
L -45.556882 222.708513 
L -14.585487 238.712224 
L -2.987696 245.304117 
L 31.048335 263.222652 
L 39.58149 269.317053 
L 73.273765 287.733081 
L 82.150676 294.135179 
L 113.228958 312.24351 
L 124.719862 312.24351 
L 127.624341 312.24351 
L 124.719862 310.638716 
L 88.654263 287.733081 
L 82.150676 284.362087 
L 47.482177 263.222652 
L 39.58149 258.991827 
L 5.433234 238.712224 
L -2.987696 234.413791 
L -36.838682 214.201795 
L -45.556882 210.072784 
L -80.502481 189.691366 
L -88.126068 186.11157 
L -124.073397 165.180938 
L -130.695254 162.022509 
L -168.07407 140.670509 
L -173.26444 138.277207 
L -212.990012 116.16008 
L -215.833626 114.858798 
L -258.402813 99.017222 
L -270.898966 91.649651 
L -300.971999 76.837609 
L -318.122843 67.139223 
L -343.541185 55.03143 
L -365.94762 42.628794 
L -386.110371 33.446805 
L -386.110371 42.628794 
L -386.110371 59.312411 
L -367.44191 67.139223 
L -386.110371 70.585129 
L -386.110371 81.173867 
L -365.488111 91.649651 
L -343.541185 106.545322 
L -324.166208 116.16008 
L -300.971999 132.158927 
L -283.670716 140.670509 
L -258.402813 156.398001 
L -241.646134 165.180938 
L -215.833626 180.522388 
L -198.406317 189.691366 
L -173.26444 205.418545 
L -155.617218 214.201795 
L -130.695254 229.542377 
L -111.999814 238.712224 
L -88.126068 250.724656 
L -63.281232 263.222652 
L -45.556882 275.374787 
L -20.932677 287.733081 
z
M -265.962029 140.670509 
L -258.402813 123.613207 
L -220.096063 140.670509 
L -258.402813 145.950646 
z
M -307.415579 116.16008 
L -300.971999 103.075397 
L -269.922779 116.16008 
L -300.971999 121.118937 
z
M -349.224606 91.649651 
L -343.541185 81.331157 
L -318.912714 91.649651 
L -343.541185 95.94073 
z
" clip-path="url(#p43bee29db5)" style="fill: #453781"/>
    <path d="M -2.987696 304.654737 
L 13.044474 312.24351 
L 22.776655 312.24351 
L -2.987696 299.178188 
L -20.932677 287.733081 
L -45.556882 275.374787 
L -63.281232 263.222652 
L -88.126068 250.724656 
L -111.999814 238.712224 
L -130.695254 229.542377 
L -155.617218 214.201795 
L -173.26444 205.418545 
L -198.406317 189.691366 
L -215.833626 180.522388 
L -241.646134 165.180938 
L -258.402813 156.398001 
L -283.670716 140.670509 
L -300.971999 132.158927 
L -324.166208 116.16008 
L -343.541185 106.545322 
L -365.488111 91.649651 
L -386.110371 81.173867 
L -386.110371 91.649651 
L -386.110371 91.885094 
L -346.117379 116.16008 
L -343.541185 118.096789 
L -306.826023 140.670509 
L -300.971999 144.128159 
L -261.798084 165.180938 
L -258.402813 167.256072 
L -215.833626 189.380007 
L -215.169277 189.691366 
L -173.26444 213.296154 
L -171.237409 214.201795 
L -130.695254 236.831107 
L -126.455568 238.712224 
L -88.126068 256.322327 
L -73.393406 263.222652 
L -45.556882 281.109173 
L -31.351623 287.733081 
z
M 124.719862 310.638716 
L 127.624341 312.24351 
L 138.89592 312.24351 
L 124.719862 303.778232 
L 101.410118 287.733081 
L 82.150676 276.823911 
L 61.778443 263.222652 
L 39.58149 250.086879 
L 22.389275 238.712224 
L -2.987696 224.121603 
L -17.687077 214.201795 
L -45.556882 199.097326 
L -59.675026 189.691366 
L -88.126068 174.223241 
L -101.577734 165.180938 
L -130.695254 148.912024 
L -142.987877 140.670509 
L -173.26444 124.016894 
L -185.077828 116.16008 
L -215.833626 99.040715 
L -230.562334 91.649651 
L -258.402813 75.957576 
L -271.971956 67.139223 
L -300.971999 51.234039 
L -314.181617 42.628794 
L -343.541185 26.154971 
L -355.939487 18.118365 
L -386.110371 18.118365 
L -386.110371 33.446805 
L -365.94762 42.628794 
L -343.541185 55.03143 
L -318.122843 67.139223 
L -300.971999 76.837609 
L -270.898966 91.649651 
L -258.402813 99.017222 
L -215.833626 114.858798 
L -212.990012 116.16008 
L -173.26444 138.277207 
L -168.07407 140.670509 
L -130.695254 162.022509 
L -124.073397 165.180938 
L -88.126068 186.11157 
L -80.502481 189.691366 
L -45.556882 210.072784 
L -36.838682 214.201795 
L -2.987696 234.413791 
L 5.433234 238.712224 
L 39.58149 258.991827 
L 47.482177 263.222652 
L 82.150676 284.362087 
L 88.654263 287.733081 
z
" clip-path="url(#p43bee29db5)" style="fill: #3e4989"/>
    <path d="M -2.987696 310.131286 
L 1.834565 312.24351 
L 13.044474 312.24351 
L -2.987696 304.654737 
L -31.351623 287.733081 
L -45.556882 281.109173 
L -73.393406 263.222652 
L -88.126068 256.322327 
L -126.455568 238.712224 
L -130.695254 236.831107 
L -171.237409 214.201795 
L -173.26444 213.296154 
L -215.169277 189.691366 
L -215.833626 189.380007 
L -258.402813 167.256072 
L -261.798084 165.180938 
L -300.971999 144.128159 
L -306.826023 140.670509 
L -343.541185 118.096789 
L -346.117379 116.16008 
L -386.110371 91.885094 
L -386.110371 113.956363 
L -381.444603 116.16008 
L -343.541185 138.845722 
L -339.794326 140.670509 
L -300.971999 159.225574 
L -287.638292 165.180938 
L -258.402813 180.281434 
L -237.134341 189.691366 
L -215.833626 203.967442 
L -194.112253 214.201795 
L -173.26444 224.407568 
L -143.923482 238.712224 
L -130.695254 244.247008 
L -88.126068 261.919999 
L -85.110736 263.222652 
L -45.556882 286.84356 
L -43.483079 287.733081 
z
M 124.719862 303.778232 
L 138.89592 312.24351 
L 148.674528 312.24351 
L 124.719862 296.917747 
L 112.285997 287.733081 
L 82.150676 269.285735 
L 73.753594 263.222652 
L 39.58149 241.181931 
L 36.173469 238.712224 
L -2.455094 214.201795 
L -2.987696 213.919176 
L -43.062847 189.691366 
L -45.556882 188.36592 
L -83.262481 165.180938 
L -88.126068 162.580454 
L -122.247365 140.670509 
L -130.695254 136.274715 
L -162.118861 116.16008 
L -173.26444 110.454139 
L -201.981247 91.649651 
L -215.833626 84.516777 
L -241.706561 67.139222 
L -258.402813 58.492175 
L -282.264745 42.628794 
L -300.971999 32.988826 
L -322.901967 18.118365 
L -343.541185 18.118365 
L -355.939487 18.118365 
L -343.541185 26.154971 
L -314.181617 42.628794 
L -300.971999 51.234039 
L -271.971956 67.139223 
L -258.402813 75.957576 
L -230.562334 91.649651 
L -215.833626 99.040715 
L -185.077828 116.16008 
L -173.26444 124.016894 
L -142.987877 140.670509 
L -130.695254 148.912024 
L -101.577734 165.180938 
L -88.126068 174.223241 
L -59.675026 189.691366 
L -45.556882 199.097326 
L -17.687077 214.201795 
L -2.987696 224.121603 
L 22.389275 238.712224 
L 39.58149 250.086879 
L 61.778443 263.222652 
L 82.150676 276.823911 
L 101.410118 287.733081 
z
" clip-path="url(#p43bee29db5)" style="fill: #375b8d"/>
    <path d="M -45.556882 292.30773 
L -7.766721 312.24351 
L -2.987696 312.24351 
L 1.834565 312.24351 
L -2.987696 310.131286 
L -43.483079 287.733081 
L -45.556882 286.84356 
L -85.110736 263.222652 
L -88.126068 261.919999 
L -130.695254 244.247008 
L -143.923482 238.712224 
L -173.26444 224.407568 
L -194.112253 214.201795 
L -215.833626 203.967442 
L -237.134341 189.691366 
L -258.402813 180.281434 
L -287.638292 165.180937 
L -300.971999 159.225574 
L -339.794326 140.670509 
L -343.541185 138.845722 
L -381.444603 116.16008 
L -386.110371 113.956363 
L -386.110371 116.16008 
L -386.110371 135.81284 
L -375.606156 140.670509 
L -343.541185 149.748284 
L -310.670872 165.180938 
L -300.971999 172.3171 
L -263.717263 189.691366 
L -258.402813 191.946795 
L -219.183025 214.201795 
L -215.833626 216.530459 
L -173.26444 235.939045 
L -166.592714 238.712224 
L -130.695254 251.707148 
L -99.738001 263.222652 
L -88.126068 268.481125 
L -53.446588 287.733081 
z
M 124.719862 296.917747 
L 148.674528 312.24351 
L 157.309804 312.24351 
L 124.719862 290.057262 
L 121.765527 287.733081 
L 84.609959 263.222652 
L 82.150676 261.940833 
L 48.734308 238.712224 
L 39.58149 233.767562 
L 10.925581 214.201795 
L -2.987696 206.107892 
L -27.639284 189.691366 
L -45.556882 179.097118 
L -65.827048 165.180938 
L -88.126068 151.717798 
L -103.377353 140.670509 
L -130.695254 124.438333 
L -142.061621 116.16008 
L -173.26444 97.747256 
L -181.414233 91.649651 
L -215.833626 71.127891 
L -221.022488 67.139223 
L -258.402813 44.683847 
L -261.093254 42.628794 
L -300.971999 18.691936 
L -301.70762 18.118365 
L -322.901967 18.118365 
L -300.971999 32.988826 
L -282.264745 42.628794 
L -258.402813 58.492175 
L -241.706561 67.139223 
L -215.833626 84.516777 
L -201.981247 91.649651 
L -173.26444 110.454139 
L -162.118861 116.16008 
L -130.695254 136.274715 
L -122.247365 140.670509 
L -88.126068 162.580454 
L -83.262481 165.180938 
L -45.556882 188.36592 
L -43.062847 189.691366 
L -2.987696 213.919176 
L -2.455094 214.201795 
L 36.173469 238.712224 
L 39.58149 241.181931 
L 73.753594 263.222652 
L 82.150676 269.285735 
L 112.285997 287.733081 
z
" clip-path="url(#p43bee29db5)" style="fill: #2f6b8e"/>
    <path d="M -45.556882 297.722289 
L -16.274157 312.24351 
L -7.766721 312.24351 
L -45.556882 292.30773 
L -53.446588 287.733081 
L -88.126068 268.481125 
L -99.738001 263.222652 
L -130.695254 251.707148 
L -166.592714 238.712224 
L -173.26444 235.939045 
L -215.833626 216.530459 
L -219.183025 214.201795 
L -258.402813 191.946795 
L -263.717263 189.691366 
L -300.971999 172.3171 
L -310.670872 165.180938 
L -343.541185 149.748284 
L -375.606156 140.670509 
L -386.110371 135.81284 
L -386.110371 140.670509 
L -386.110371 147.449975 
L -343.541185 159.701396 
L -330.136935 165.180938 
L -300.971999 184.101939 
L -286.83234 189.691366 
L -258.402813 200.072459 
L -231.22597 214.201795 
L -215.833626 224.08342 
L -182.993962 238.712224 
L -173.26444 243.051024 
L -130.695254 259.167288 
L -118.262698 263.222652 
L -88.126068 275.334461 
L -64.022672 287.733081 
z
M 124.719862 290.057262 
L 157.309804 312.24351 
L 165.041339 312.24351 
L 132.060755 287.733081 
L 124.719862 283.650068 
L 96.040262 263.222652 
L 82.150676 255.390342 
L 59.779792 238.712224 
L 39.58149 226.925246 
L 22.252083 214.201795 
L -2.987696 198.296608 
L -14.884028 189.691366 
L -45.556882 169.828316 
L -51.728205 165.180938 
L -88.126068 140.855141 
L -88.356754 140.670509 
L -125.530368 116.16008 
L -130.695254 113.363448 
L -163.45612 91.649651 
L -173.26444 85.855907 
L -200.56337 67.139223 
L -215.833626 58.418591 
L -238.314451 42.628794 
L -258.402813 31.354287 
L -277.083151 18.118365 
L -300.971999 18.118365 
L -301.70762 18.118365 
L -300.971999 18.691936 
L -261.093254 42.628794 
L -258.402813 44.683847 
L -221.022488 67.139223 
L -215.833626 71.127891 
L -181.414233 91.649651 
L -173.26444 97.747256 
L -142.061621 116.16008 
L -130.695254 124.438333 
L -103.377353 140.670509 
L -88.126068 151.717798 
L -65.827048 165.180938 
L -45.556882 179.097118 
L -27.639284 189.691366 
L -2.987696 206.107892 
L 10.925581 214.201795 
L 39.58149 233.767562 
L 48.734308 238.712224 
L 82.150676 261.940833 
L 84.609959 263.222652 
L 121.765527 287.733081 
z
" clip-path="url(#p43bee29db5)" style="fill: #297a8e"/>
    <path d="M -45.556882 303.136847 
L -25.889103 312.24351 
L -16.274157 312.24351 
L -45.556882 297.722289 
L -64.022672 287.733081 
L -88.126068 275.334461 
L -118.262698 263.222652 
L -130.695254 259.167288 
L -173.26444 243.051024 
L -182.993962 238.712224 
L -215.833626 224.08342 
L -231.22597 214.201795 
L -258.402813 200.072459 
L -286.83234 189.691366 
L -300.971999 184.101939 
L -330.136935 165.180938 
L -343.541185 159.701396 
L -386.110371 147.449975 
L -386.110371 156.169498 
L -354.065222 165.180938 
L -343.541185 170.661489 
L -309.612863 189.691366 
L -300.971999 193.935586 
L -258.402813 208.198123 
L -245.619054 214.201795 
L -215.833626 231.636381 
L -198.134447 238.712224 
L -173.26444 248.763636 
L -135.812711 263.222652 
L -130.695254 265.851095 
L -88.126068 282.187798 
L -76.367829 287.733081 
z
M 167.289048 312.24351 
L 175.147698 312.24351 
L 167.289048 307.977082 
L 141.939319 287.733081 
L 124.719862 277.475118 
L 105.93805 263.222652 
L 82.150676 248.839852 
L 69.387857 238.712224 
L 39.58149 220.082931 
L 32.071982 214.201795 
L -2.987696 190.485325 
L -4.008583 189.691366 
L -37.423943 165.180938 
L -45.556882 160.992572 
L -73.126512 140.670509 
L -88.126068 132.409475 
L -110.558521 116.16008 
L -130.695254 104.060242 
L -147.619431 91.649651 
L -173.26444 74.716956 
L -183.136908 67.139223 
L -215.833626 45.99765 
L -220.089751 42.628794 
L -258.386055 18.118365 
L -258.402813 18.118365 
L -277.083151 18.118365 
L -258.402813 31.354287 
L -238.314451 42.628794 
L -215.833626 58.418591 
L -200.56337 67.139223 
L -173.26444 85.855907 
L -163.45612 91.649651 
L -130.695254 113.363448 
L -125.530368 116.16008 
L -88.356754 140.670509 
L -88.126068 140.855141 
L -51.728205 165.180938 
L -45.556882 169.828316 
L -14.884028 189.691366 
L -2.987696 198.296608 
L 22.252083 214.201795 
L 39.58149 226.925246 
L 59.779792 238.712224 
L 82.150676 255.390342 
L 96.040262 263.222652 
L 124.719862 283.650068 
L 132.060755 287.733081 
L 165.041339 312.24351 
z
" clip-path="url(#p43bee29db5)" style="fill: #23898e"/>
    <path d="M -88.126068 288.738282 
L -45.556882 308.551406 
L -36.943685 312.24351 
L -25.889103 312.24351 
L -45.556882 303.136847 
L -76.367829 287.733081 
L -88.126068 282.187798 
L -130.695254 265.851095 
L -135.812711 263.222652 
L -173.26444 248.763636 
L -198.134447 238.712224 
L -215.833626 231.636381 
L -245.619054 214.201795 
L -258.402813 208.198123 
L -300.971999 193.935586 
L -309.612863 189.691366 
L -343.541185 170.661489 
L -354.065222 165.180938 
L -386.110371 156.169498 
L -386.110371 164.88902 
L -384.822326 165.180938 
L -343.541185 182.855004 
L -329.497218 189.691366 
L -300.971999 202.00889 
L -263.335012 214.201795 
L -258.402813 216.820967 
L -216.749614 238.712224 
L -215.833626 239.151164 
L -173.26444 254.476249 
L -148.442135 263.222652 
L -130.695254 271.610228 
L -90.221183 287.733081 
z
M 167.289048 307.977082 
L 175.147698 312.24351 
L 185.244795 312.24351 
L 167.289048 301.785933 
L 150.652426 287.733081 
L 124.719862 271.300168 
L 114.666103 263.222652 
L 82.150676 242.289361 
L 77.889908 238.712224 
L 42.017222 214.201795 
L 39.58149 212.854573 
L 11.169871 189.691366 
L -2.987696 181.648451 
L -23.396114 165.180938 
L -45.556882 152.592317 
L -60.464249 140.670509 
L -88.126068 124.0056 
L -98.113446 116.16008 
L -130.695254 94.757036 
L -134.583271 91.649651 
L -166.402901 67.139223 
L -173.26444 63.674399 
L -201.592211 42.628794 
L -215.833626 34.866199 
L -238.847719 18.118365 
L -258.386055 18.118365 
L -220.089751 42.628794 
L -215.833626 45.99765 
L -183.136908 67.139223 
L -173.26444 74.716956 
L -147.619431 91.649651 
L -130.695254 104.060242 
L -110.558521 116.16008 
L -88.126068 132.409475 
L -73.126512 140.670509 
L -45.556882 160.992572 
L -37.423943 165.180938 
L -4.008583 189.691366 
L -2.987696 190.485325 
L 32.071982 214.201795 
L 39.58149 220.082931 
L 69.387857 238.712224 
L 82.150676 248.839852 
L 105.93805 263.222652 
L 124.719862 277.475118 
L 141.939319 287.733081 
z
" clip-path="url(#p43bee29db5)" style="fill: #1f988b"/>
    <path d="M -88.126068 294.004874 
L -48.331171 312.24351 
L -45.556882 312.24351 
L -36.943685 312.24351 
L -45.556882 308.551406 
L -88.126068 288.738282 
L -90.221183 287.733081 
L -130.695254 271.610228 
L -148.442135 263.222652 
L -173.26444 254.476249 
L -215.833626 239.151164 
L -216.749614 238.712224 
L -258.402813 216.820967 
L -263.335012 214.201795 
L -300.971999 202.00889 
L -329.497218 189.691366 
L -343.541185 182.855004 
L -384.822326 165.180938 
L -386.110371 164.88902 
L -386.110371 165.180938 
L -386.110371 176.421356 
L -353.134843 189.691366 
L -343.541185 194.561472 
L -300.971999 210.082195 
L -286.01335 214.201795 
L -258.402813 226.850464 
L -233.002212 238.712224 
L -215.833626 246.099736 
L -173.26444 260.188862 
L -163.681888 263.222652 
L -130.695254 277.36936 
L -102.288296 287.733081 
z
M 167.289048 301.785933 
L 185.244795 312.24351 
L 194.127409 312.24351 
L 167.289048 295.594785 
L 158.446279 287.733081 
L 124.719862 265.125217 
L 122.471911 263.222652 
L 90.09488 238.712224 
L 82.150676 234.397264 
L 57.365107 214.201795 
L 39.58149 203.264158 
L 24.278843 189.691366 
L -2.987696 172.695539 
L -11.609718 165.180938 
L -45.556882 144.192062 
L -49.656436 140.670509 
L -86.36827 116.16008 
L -88.126068 115.169426 
L -115.32367 91.649651 
L -130.695254 83.082955 
L -148.311622 67.139223 
L -173.26444 52.836953 
L -185.662884 42.628794 
L -215.833626 24.214648 
L -223.407593 18.118365 
L -238.847719 18.118365 
L -215.833626 34.866199 
L -201.592211 42.628794 
L -173.26444 63.674399 
L -166.402901 67.139223 
L -134.583271 91.649651 
L -130.695254 94.757036 
L -98.113446 116.16008 
L -88.126068 124.0056 
L -60.464249 140.670509 
L -45.556882 152.592317 
L -23.396114 165.180938 
L -2.987696 181.648451 
L 11.169871 189.691366 
L 39.58149 212.854573 
L 42.017222 214.201795 
L 77.889908 238.712224 
L 82.150676 242.289361 
L 114.666103 263.222652 
L 124.719862 271.300168 
L 150.652426 287.733081 
z
" clip-path="url(#p43bee29db5)" style="fill: #22a785"/>
    <path d="M -88.126068 299.271466 
L -57.798838 312.24351 
L -48.331171 312.24351 
L -88.126068 294.004874 
L -102.288296 287.733081 
L -130.695254 277.36936 
L -163.681888 263.222652 
L -173.26444 260.188862 
L -215.833626 246.099736 
L -233.002212 238.712224 
L -258.402813 226.850464 
L -286.01335 214.201795 
L -300.971999 210.082195 
L -343.541185 194.561472 
L -353.134843 189.691366 
L -386.110371 176.421356 
L -386.110371 188.051124 
L -381.144598 189.691366 
L -343.541185 205.646413 
L -314.742145 214.201795 
L -300.971999 218.266871 
L -258.402813 236.879961 
L -253.863355 238.712224 
L -215.833626 253.048309 
L -181.564061 263.222652 
L -173.26444 267.218294 
L -130.695254 283.128493 
L -116.715948 287.733081 
z
M 167.289048 295.594785 
L 194.127409 312.24351 
L 202.05658 312.24351 
L 167.289048 289.403637 
L 165.496469 287.733081 
L 137.71181 263.222652 
L 124.719862 256.015464 
L 105.066074 238.712224 
L 82.150676 224.891125 
L 70.068619 214.201795 
L 39.58149 193.673744 
L 35.410197 189.691366 
L 1.077132 165.180938 
L -2.987696 162.999323 
L -31.88062 140.670509 
L -45.556882 132.115591 
L -63.981397 116.16008 
L -88.126068 100.258947 
L -96.963777 91.649651 
L -130.695254 70.21981 
L -133.787734 67.139223 
L -171.130464 42.628794 
L -173.26444 41.332546 
L -200.717497 18.118365 
L -215.833626 18.118365 
L -223.407593 18.118365 
L -215.833626 24.214648 
L -185.662884 42.628794 
L -173.26444 52.836953 
L -148.311622 67.139223 
L -130.695254 83.082955 
L -115.32367 91.649651 
L -88.126068 115.169426 
L -86.36827 116.16008 
L -49.656436 140.670509 
L -45.556882 144.192062 
L -11.609718 165.180938 
L -2.987696 172.695539 
L 24.278843 189.691366 
L 39.58149 203.264158 
L 57.365107 214.201795 
L 82.150676 234.397264 
L 90.09488 238.712224 
L 122.471911 263.222652 
L 124.719862 265.125217 
L 158.446279 287.733081 
z
" clip-path="url(#p43bee29db5)" style="fill: #32b67a"/>
    <path d="M -130.695254 290.95531 
L -88.126068 304.538058 
L -68.659097 312.24351 
L -57.798838 312.24351 
L -88.126068 299.271466 
L -116.715948 287.733081 
L -130.695254 283.128493 
L -173.26444 267.218294 
L -181.564061 263.222652 
L -215.833626 253.048309 
L -253.863355 238.712224 
L -258.402813 236.879961 
L -300.971999 218.266871 
L -314.742145 214.201795 
L -343.541185 205.646413 
L -381.144598 189.691366 
L -386.110371 188.051124 
L -386.110371 189.691366 
L -386.110371 198.979993 
L -348.199801 214.201795 
L -343.541185 217.77229 
L -300.971999 226.567593 
L -271.020423 238.712224 
L -258.402813 247.946043 
L -215.833626 259.996882 
L -203.162767 263.222652 
L -173.26444 275.739035 
L -134.844235 287.733081 
z
M 167.289048 289.403637 
L 202.05658 312.24351 
L 209.217293 312.24351 
L 183.003411 287.733081 
L 167.289048 278.016972 
L 153.192683 263.222652 
L 124.719862 245.598793 
L 117.510699 238.712224 
L 82.150676 215.384987 
L 80.90645 214.201795 
L 55.228075 189.691366 
L 39.58149 180.935132 
L 22.328072 165.180938 
L -2.987696 149.419637 
L -13.008466 140.670509 
L -45.556882 117.385545 
L -46.820197 116.16008 
L -74.918375 91.649651 
L -88.126068 83.987769 
L -108.487702 67.139223 
L -130.695254 52.179137 
L -141.647499 42.628794 
L -173.26444 19.008804 
L -174.149384 18.118365 
L -200.717497 18.118365 
L -173.26444 41.332546 
L -171.130464 42.628794 
L -133.787734 67.139222 
L -130.695254 70.21981 
L -96.963777 91.649651 
L -88.126068 100.258947 
L -63.981397 116.16008 
L -45.556882 132.115591 
L -31.88062 140.670509 
L -2.987696 162.999323 
L 1.077132 165.180938 
L 35.410197 189.691366 
L 39.58149 193.673744 
L 70.068619 214.201795 
L 82.150676 224.891125 
L 105.066074 238.712224 
L 124.719862 256.015464 
L 137.71181 263.222652 
L 165.496469 287.733081 
z
" clip-path="url(#p43bee29db5)" style="fill: #4ec36b"/>
    <path d="M -130.695254 307.028525 
L -88.126068 309.80465 
L -81.393456 312.24351 
L -68.659097 312.24351 
L -88.126068 304.538058 
L -130.695254 290.95531 
L -134.844235 287.733081 
L -173.26444 275.739035 
L -203.162767 263.222652 
L -215.833626 259.996882 
L -258.402813 247.946043 
L -271.020423 238.712224 
L -300.971999 226.567593 
L -343.541185 217.77229 
L -348.199801 214.201795 
L -386.110371 198.979993 
L -386.110371 209.793777 
L -373.002142 214.201795 
L -343.541185 233.418783 
L -300.971999 234.868315 
L -290.120988 238.712224 
L -258.402813 259.243825 
L -238.508629 263.222652 
L -215.833626 278.488372 
L -173.26444 284.259776 
L -159.949395 287.733081 
z
M 209.858234 312.24351 
L 229.610087 312.24351 
L 209.858234 298.155243 
L 200.222251 287.733081 
L 167.289048 264.710337 
L 165.987065 263.222652 
L 138.229823 238.712224 
L 124.719862 230.15252 
L 109.737474 214.201795 
L 82.150676 196.643397 
L 76.100837 189.691366 
L 39.58149 165.960923 
L 38.815657 165.180938 
L 14.816222 140.670509 
L -2.987696 130.425823 
L -15.312722 116.16008 
L -45.556882 97.054696 
L -50.724162 91.649651 
L -83.080611 67.139223 
L -88.126068 64.455248 
L -107.546797 42.628794 
L -130.695254 28.351523 
L -140.270569 18.118365 
L -173.26444 18.118365 
L -174.149384 18.118365 
L -173.26444 19.008804 
L -141.647499 42.628794 
L -130.695254 52.179137 
L -108.487702 67.139223 
L -88.126068 83.987769 
L -74.918375 91.649651 
L -46.820197 116.16008 
L -45.556882 117.385545 
L -13.008466 140.670509 
L -2.987696 149.419637 
L 22.328072 165.180938 
L 39.58149 180.935132 
L 55.228075 189.691366 
L 80.90645 214.201795 
L 82.150676 215.384987 
L 117.510699 238.712224 
L 124.719862 245.598793 
L 153.192683 263.222652 
L 167.289048 278.016972 
L 183.003411 287.733081 
L 209.217293 312.24351 
z
" clip-path="url(#p43bee29db5)" style="fill: #70cf57"/>
    <path d="M -343.541185 312.24351 
L -300.971999 312.24351 
L -258.402813 312.24351 
L -215.833626 312.24351 
L -173.26444 312.24351 
L -130.695254 312.24351 
L -88.126068 312.24351 
L -81.393456 312.24351 
L -88.126068 309.80465 
L -130.695254 307.028525 
L -159.949395 287.733081 
L -173.26444 284.259776 
L -215.833626 278.488372 
L -238.508629 263.222652 
L -258.402813 259.243825 
L -290.120988 238.712224 
L -300.971999 234.868315 
L -343.541185 233.418783 
L -373.002142 214.201795 
L -386.110371 209.793777 
L -386.110371 214.201795 
L -386.110371 238.712224 
L -386.110371 263.222652 
L -386.110371 287.733081 
L -386.110371 312.24351 
z
M 209.858234 298.155243 
L 229.610087 312.24351 
L 246.631091 312.24351 
L 223.668446 287.733081 
L 209.858234 277.975903 
L 197.190845 263.222652 
L 168.706176 238.712224 
L 167.289048 237.636804 
L 145.775241 214.201795 
L 124.719862 195.511406 
L 119.719538 189.691366 
L 92.502772 165.180938 
L 82.150676 155.305398 
L 69.83388 140.670509 
L 39.58149 116.436544 
L 39.335178 116.16008 
L 21.242845 91.649651 
L -2.987696 72.193727 
L -7.763404 67.139223 
L -26.046556 42.628794 
L -45.556882 26.7995 
L -53.900197 18.118365 
L -88.126068 18.118365 
L -130.695254 18.118365 
L -140.270569 18.118365 
L -130.695254 28.351523 
L -107.546797 42.628794 
L -88.126068 64.455248 
L -83.080611 67.139223 
L -50.724162 91.649651 
L -45.556882 97.054696 
L -15.312722 116.16008 
L -2.987696 130.425823 
L 14.816222 140.670509 
L 38.815657 165.180938 
L 39.58149 165.960923 
L 76.100837 189.691366 
L 82.150676 196.643397 
L 109.737474 214.201795 
L 124.719862 230.15252 
L 138.229823 238.712224 
L 165.987065 263.222652 
L 167.289048 264.710337 
L 200.222251 287.733081 
z
M 465.273351 296.945656 
L 474.747194 312.24351 
L 507.842537 312.24351 
L 550.411723 312.24351 
L 592.980909 312.24351 
L 635.550095 312.24351 
L 678.119281 312.24351 
L 720.688467 312.24351 
L 763.257653 312.24351 
L 805.826839 312.24351 
L 848.396025 312.24351 
L 890.965212 312.24351 
L 933.534398 312.24351 
L 976.103584 312.24351 
L 1018.67277 312.24351 
L 1061.241956 312.24351 
L 1103.811142 312.24351 
L 1146.380328 312.24351 
L 1188.949514 312.24351 
L 1231.5187 312.24351 
L 1274.087886 312.24351 
L 1316.657072 312.24351 
L 1359.226258 312.24351 
L 1401.795445 312.24351 
L 1444.364631 312.24351 
L 1486.933817 312.24351 
L 1486.933817 287.733081 
L 1486.933817 263.222652 
L 1486.933817 238.712224 
L 1486.933817 214.201795 
L 1486.933817 189.691366 
L 1486.933817 165.180938 
L 1486.933817 140.670509 
L 1486.933817 116.16008 
L 1486.933817 91.649651 
L 1486.933817 67.139223 
L 1486.933817 42.628794 
L 1486.933817 18.118365 
L 1444.364631 18.118365 
L 1401.795445 18.118365 
L 1359.226258 18.118365 
L 1316.657072 18.118365 
L 1274.087886 18.118365 
L 1231.5187 18.118365 
L 1188.949514 18.118365 
L 1146.380328 18.118365 
L 1103.811142 18.118365 
L 1061.241956 18.118365 
L 1018.67277 18.118365 
L 976.103584 18.118365 
L 933.534398 18.118365 
L 890.965212 18.118365 
L 848.396025 18.118365 
L 805.826839 18.118365 
L 763.257653 18.118365 
L 720.688467 18.118365 
L 678.119281 18.118365 
L 635.550095 18.118365 
L 592.980909 18.118365 
L 550.411723 18.118365 
L 507.842537 18.118365 
L 465.273351 18.118365 
L 422.704165 18.118365 
L 380.134979 18.118365 
L 337.565793 18.118365 
L 294.996606 18.118365 
L 252.42742 18.118365 
L 251.29551 18.118365 
L 252.42742 20.250853 
L 271.15134 42.628794 
L 287.079307 67.139223 
L 294.996606 81.03662 
L 304.562354 91.649651 
L 323.887385 116.16008 
L 337.565793 138.450832 
L 339.805719 140.670509 
L 362.919075 165.180938 
L 379.251972 189.691366 
L 380.134979 190.979242 
L 404.57696 214.201795 
L 421.594149 238.712224 
L 422.704165 240.409224 
L 447.184737 263.222652 
L 462.447674 287.733081 
z
" clip-path="url(#p43bee29db5)" style="fill: #98d83e"/>
    <path d="M 252.42742 312.24351 
L 288.262644 312.24351 
L 265.652416 287.733081 
L 252.42742 278.327111 
L 245.570001 263.222652 
L 226.292893 238.712224 
L 209.858234 225.589622 
L 205.062498 214.201795 
L 191.151228 189.691366 
L 167.289048 167.818293 
L 166.094201 165.180938 
L 156.075615 140.670509 
L 136.397287 116.16008 
L 124.719862 106.773376 
L 118.685721 91.649651 
L 107.857026 67.139223 
L 82.150676 44.151523 
L 81.467778 42.628794 
L 79.879961 18.118365 
L 39.58149 18.118365 
L -2.987696 18.118365 
L -45.556882 18.118365 
L -53.900197 18.118365 
L -45.556882 26.7995 
L -26.046556 42.628794 
L -7.763404 67.139223 
L -2.987696 72.193727 
L 21.242845 91.649651 
L 39.335178 116.16008 
L 39.58149 116.436544 
L 69.83388 140.670509 
L 82.150676 155.305398 
L 92.502772 165.180938 
L 119.719538 189.691366 
L 124.719862 195.511406 
L 145.775241 214.201795 
L 167.289048 237.636804 
L 168.706176 238.712224 
L 197.190845 263.222652 
L 209.858234 277.975903 
L 223.668446 287.733081 
L 246.631091 312.24351 
z
M 422.704165 312.24351 
L 465.273351 312.24351 
L 474.747194 312.24351 
L 465.273351 296.945656 
L 462.447674 287.733081 
L 447.184737 263.222652 
L 422.704165 240.409224 
L 421.594149 238.712224 
L 404.57696 214.201795 
L 380.134979 190.979242 
L 379.251972 189.691366 
L 362.919075 165.180938 
L 339.805719 140.670509 
L 337.565793 138.450832 
L 323.887385 116.16008 
L 304.562354 91.649651 
L 294.996606 81.03662 
L 287.079307 67.139223 
L 271.15134 42.628794 
L 252.42742 20.250853 
L 251.29551 18.118365 
L 209.858234 18.118365 
L 167.289048 18.118365 
L 124.719862 18.118365 
L 87.763788 18.118365 
L 124.719862 39.691016 
L 128.522103 42.628794 
L 155.816923 67.139223 
L 167.289048 74.800437 
L 186.823183 91.649651 
L 209.858234 110.742938 
L 216.758275 116.16008 
L 242.897218 140.670509 
L 252.42742 149.054786 
L 270.492165 165.180938 
L 294.996606 187.623378 
L 297.536449 189.691366 
L 320.33159 214.201795 
L 337.565793 232.509056 
L 343.80721 238.712224 
L 363.167784 263.222652 
L 380.134979 286.948212 
L 380.747762 287.733081 
L 391.585919 312.24351 
z
" clip-path="url(#p43bee29db5)" style="fill: #c2df23"/>
    <path d="M 294.996606 312.24351 
L 337.565793 312.24351 
L 380.134979 312.24351 
L 391.585919 312.24351 
L 380.747762 287.733081 
L 380.134979 286.948212 
L 363.167784 263.222652 
L 343.80721 238.712224 
L 337.565793 232.509056 
L 320.33159 214.201795 
L 297.536449 189.691366 
L 294.996606 187.623378 
L 270.492165 165.180938 
L 252.42742 149.054786 
L 242.897218 140.670509 
L 216.758275 116.16008 
L 209.858234 110.742938 
L 186.823183 91.649651 
L 167.289048 74.800437 
L 155.816923 67.139223 
L 128.522103 42.628794 
L 124.719862 39.691016 
L 87.763788 18.118365 
L 82.150676 18.118365 
L 79.879961 18.118365 
L 81.467778 42.628794 
L 82.150676 44.151523 
L 107.857026 67.139223 
L 118.685721 91.649651 
L 124.719862 106.773376 
L 136.397287 116.16008 
L 156.075615 140.670509 
L 166.094201 165.180938 
L 167.289048 167.818293 
L 191.151228 189.691366 
L 205.062498 214.201795 
L 209.858234 225.589622 
L 226.292893 238.712224 
L 245.570001 263.222652 
L 252.42742 278.327111 
L 265.652416 287.733081 
L 288.262644 312.24351 
z
" clip-path="url(#p43bee29db5)" style="fill: #ece51b"/>
   </g>
   <g id="PathCollection_1">
    <defs>
     <path id="m8987d82ac9" d="M -3 3 
L 3 -3 
M -3 -3 
L 3 3 
" style="stroke: #ff0000; stroke-width: 1.5"/>
    </defs>
    <g clip-path="url(#p43bee29db5)">
     <use xlink:href="#m8987d82ac9" x="337.565793" y="312.24351" style="fill: #ff0000; stroke: #ff0000; stroke-width: 1.5"/>
     <use xlink:href="#m8987d82ac9" x="337.565793" y="287.733081" style="fill: #ff0000; stroke: #ff0000; stroke-width: 1.5"/>
     <use xlink:href="#m8987d82ac9" x="294.996606" y="263.222652" style="fill: #ff0000; stroke: #ff0000; stroke-width: 1.5"/>
     <use xlink:href="#m8987d82ac9" x="294.996606" y="238.712224" style="fill: #ff0000; stroke: #ff0000; stroke-width: 1.5"/>
     <use xlink:href="#m8987d82ac9" x="252.42742" y="214.201795" style="fill: #ff0000; stroke: #ff0000; stroke-width: 1.5"/>
     <use xlink:href="#m8987d82ac9" x="252.42742" y="189.691366" style="fill: #ff0000; stroke: #ff0000; stroke-width: 1.5"/>
     <use xlink:href="#m8987d82ac9" x="209.858234" y="165.180938" style="fill: #ff0000; stroke: #ff0000; stroke-width: 1.5"/>
     <use xlink:href="#m8987d82ac9" x="209.858234" y="140.670509" style="fill: #ff0000; stroke: #ff0000; stroke-width: 1.5"/>
     <use xlink:href="#m8987d82ac9" x="167.289048" y="116.16008" style="fill: #ff0000; stroke: #ff0000; stroke-width: 1.5"/>
     <use xlink:href="#m8987d82ac9" x="167.289048" y="91.649651" style="fill: #ff0000; stroke: #ff0000; stroke-width: 1.5"/>
     <use xlink:href="#m8987d82ac9" x="124.719862" y="67.139223" style="fill: #ff0000; stroke: #ff0000; stroke-width: 1.5"/>
     <use xlink:href="#m8987d82ac9" x="124.719862" y="42.628794" style="fill: #ff0000; stroke: #ff0000; stroke-width: 1.5"/>
     <use xlink:href="#m8987d82ac9" x="82.150676" y="18.118365" style="fill: #ff0000; stroke: #ff0000; stroke-width: 1.5"/>
    </g>
   </g>
   <g id="matplotlib.axis_1">
    <g id="xtick_1">
     <g id="line2d_1">
      <defs>
       <path id="m8bdcaf2b4c" d="M 0 0 
L 0 3.5 
" style="stroke: #000000; stroke-width: 0.8"/>
      </defs>
      <g>
       <use xlink:href="#m8bdcaf2b4c" x="124.719862" y="312.24351" style="stroke: #000000; stroke-width: 0.8"/>
      </g>
     </g>
     <g id="text_1">
      <!-- $\mathdefault{10^{-2}}$ -->
      <g transform="translate(112.969862 326.841947) scale(0.1 -0.1)">
       <defs>
        <path id="DejaVuSans-31" d="M 794 531 
L 1825 531 
L 1825 4091 
L 703 3866 
L 703 4441 
L 1819 4666 
L 2450 4666 
L 2450 531 
L 3481 531 
L 3481 0 
L 794 0 
L 794 531 
z
" transform="scale(0.015625)"/>
        <path id="DejaVuSans-30" d="M 2034 4250 
Q 1547 4250 1301 3770 
Q 1056 3291 1056 2328 
Q 1056 1369 1301 889 
Q 1547 409 2034 409 
Q 2525 409 2770 889 
Q 3016 1369 3016 2328 
Q 3016 3291 2770 3770 
Q 2525 4250 2034 4250 
z
M 2034 4750 
Q 2819 4750 3233 4129 
Q 3647 3509 3647 2328 
Q 3647 1150 3233 529 
Q 2819 -91 2034 -91 
Q 1250 -91 836 529 
Q 422 1150 422 2328 
Q 422 3509 836 4129 
Q 1250 4750 2034 4750 
z
" transform="scale(0.015625)"/>
        <path id="DejaVuSans-2212" d="M 678 2272 
L 4684 2272 
L 4684 1741 
L 678 1741 
L 678 2272 
z
" transform="scale(0.015625)"/>
        <path id="DejaVuSans-32" d="M 1228 531 
L 3431 531 
L 3431 0 
L 469 0 
L 469 531 
Q 828 903 1448 1529 
Q 2069 2156 2228 2338 
Q 2531 2678 2651 2914 
Q 2772 3150 2772 3378 
Q 2772 3750 2511 3984 
Q 2250 4219 1831 4219 
Q 1534 4219 1204 4116 
Q 875 4013 500 3803 
L 500 4441 
Q 881 4594 1212 4672 
Q 1544 4750 1819 4750 
Q 2544 4750 2975 4387 
Q 3406 4025 3406 3419 
Q 3406 3131 3298 2873 
Q 3191 2616 2906 2266 
Q 2828 2175 2409 1742 
Q 1991 1309 1228 531 
z
" transform="scale(0.015625)"/>
       </defs>
       <use xlink:href="#DejaVuSans-31" transform="translate(0 0.765625)"/>
       <use xlink:href="#DejaVuSans-30" transform="translate(63.623047 0.765625)"/>
       <use xlink:href="#DejaVuSans-2212" transform="translate(128.203125 39.046875) scale(0.7)"/>
       <use xlink:href="#DejaVuSans-32" transform="translate(186.855469 39.046875) scale(0.7)"/>
      </g>
     </g>
    </g>
    <g id="xtick_2">
     <g id="line2d_2">
      <g>
       <use xlink:href="#m8bdcaf2b4c" x="294.996606" y="312.24351" style="stroke: #000000; stroke-width: 0.8"/>
      </g>
     </g>
     <g id="text_2">
      <!-- $\mathdefault{10^{-1}}$ -->
      <g transform="translate(283.246606 326.841947) scale(0.1 -0.1)">
       <use xlink:href="#DejaVuSans-31" transform="translate(0 0.684375)"/>
       <use xlink:href="#DejaVuSans-30" transform="translate(63.623047 0.684375)"/>
       <use xlink:href="#DejaVuSans-2212" transform="translate(128.203125 38.965625) scale(0.7)"/>
       <use xlink:href="#DejaVuSans-31" transform="translate(186.855469 38.965625) scale(0.7)"/>
      </g>
     </g>
    </g>
    <g id="xtick_3">
     <g id="line2d_3">
      <defs>
       <path id="m68f2f830c6" d="M 0 0 
L 0 2 
" style="stroke: #000000; stroke-width: 0.6"/>
      </defs>
      <g>
       <use xlink:href="#m68f2f830c6" x="56.959933" y="312.24351" style="stroke: #000000; stroke-width: 0.6"/>
      </g>
     </g>
    </g>
    <g id="xtick_4">
     <g id="line2d_4">
      <g>
       <use xlink:href="#m68f2f830c6" x="73.461455" y="312.24351" style="stroke: #000000; stroke-width: 0.6"/>
      </g>
     </g>
    </g>
    <g id="xtick_5">
     <g id="line2d_5">
      <g>
       <use xlink:href="#m68f2f830c6" x="86.944179" y="312.24351" style="stroke: #000000; stroke-width: 0.6"/>
      </g>
     </g>
    </g>
    <g id="xtick_6">
     <g id="line2d_6">
      <g>
       <use xlink:href="#m68f2f830c6" x="98.343661" y="312.24351" style="stroke: #000000; stroke-width: 0.6"/>
      </g>
     </g>
    </g>
    <g id="xtick_7">
     <g id="line2d_7">
      <g>
       <use xlink:href="#m68f2f830c6" x="108.218341" y="312.24351" style="stroke: #000000; stroke-width: 0.6"/>
      </g>
     </g>
    </g>
    <g id="xtick_8">
     <g id="line2d_8">
      <g>
       <use xlink:href="#m68f2f830c6" x="116.928426" y="312.24351" style="stroke: #000000; stroke-width: 0.6"/>
      </g>
     </g>
    </g>
    <g id="xtick_9">
     <g id="line2d_9">
      <g>
       <use xlink:href="#m68f2f830c6" x="175.97827" y="312.24351" style="stroke: #000000; stroke-width: 0.6"/>
      </g>
     </g>
    </g>
    <g id="xtick_10">
     <g id="line2d_10">
      <g>
       <use xlink:href="#m68f2f830c6" x="205.962516" y="312.24351" style="stroke: #000000; stroke-width: 0.6"/>
      </g>
     </g>
    </g>
    <g id="xtick_11">
     <g id="line2d_11">
      <g>
       <use xlink:href="#m68f2f830c6" x="227.236677" y="312.24351" style="stroke: #000000; stroke-width: 0.6"/>
      </g>
     </g>
    </g>
    <g id="xtick_12">
     <g id="line2d_12">
      <g>
       <use xlink:href="#m68f2f830c6" x="243.738199" y="312.24351" style="stroke: #000000; stroke-width: 0.6"/>
      </g>
     </g>
    </g>
    <g id="xtick_13">
     <g id="line2d_13">
      <g>
       <use xlink:href="#m68f2f830c6" x="257.220924" y="312.24351" style="stroke: #000000; stroke-width: 0.6"/>
      </g>
     </g>
    </g>
    <g id="xtick_14">
     <g id="line2d_14">
      <g>
       <use xlink:href="#m68f2f830c6" x="268.620405" y="312.24351" style="stroke: #000000; stroke-width: 0.6"/>
      </g>
     </g>
    </g>
    <g id="xtick_15">
     <g id="line2d_15">
      <g>
       <use xlink:href="#m68f2f830c6" x="278.495085" y="312.24351" style="stroke: #000000; stroke-width: 0.6"/>
      </g>
     </g>
    </g>
    <g id="xtick_16">
     <g id="line2d_16">
      <g>
       <use xlink:href="#m68f2f830c6" x="287.20517" y="312.24351" style="stroke: #000000; stroke-width: 0.6"/>
      </g>
     </g>
    </g>
    <g id="xtick_17">
     <g id="line2d_17">
      <g>
       <use xlink:href="#m68f2f830c6" x="346.255014" y="312.24351" style="stroke: #000000; stroke-width: 0.6"/>
      </g>
     </g>
    </g>
    <g id="xtick_18">
     <g id="line2d_18">
      <g>
       <use xlink:href="#m68f2f830c6" x="376.23926" y="312.24351" style="stroke: #000000; stroke-width: 0.6"/>
      </g>
     </g>
    </g>
    <g id="text_3">
     <!-- bandwidth -->
     <g transform="translate(183.495734 340.520072) scale(0.1 -0.1)">
      <defs>
       <path id="DejaVuSans-62" d="M 3116 1747 
Q 3116 2381 2855 2742 
Q 2594 3103 2138 3103 
Q 1681 3103 1420 2742 
Q 1159 2381 1159 1747 
Q 1159 1113 1420 752 
Q 1681 391 2138 391 
Q 2594 391 2855 752 
Q 3116 1113 3116 1747 
z
M 1159 2969 
Q 1341 3281 1617 3432 
Q 1894 3584 2278 3584 
Q 2916 3584 3314 3078 
Q 3713 2572 3713 1747 
Q 3713 922 3314 415 
Q 2916 -91 2278 -91 
Q 1894 -91 1617 61 
Q 1341 213 1159 525 
L 1159 0 
L 581 0 
L 581 4863 
L 1159 4863 
L 1159 2969 
z
" transform="scale(0.015625)"/>
       <path id="DejaVuSans-61" d="M 2194 1759 
Q 1497 1759 1228 1600 
Q 959 1441 959 1056 
Q 959 750 1161 570 
Q 1363 391 1709 391 
Q 2188 391 2477 730 
Q 2766 1069 2766 1631 
L 2766 1759 
L 2194 1759 
z
M 3341 1997 
L 3341 0 
L 2766 0 
L 2766 531 
Q 2569 213 2275 61 
Q 1981 -91 1556 -91 
Q 1019 -91 701 211 
Q 384 513 384 1019 
Q 384 1609 779 1909 
Q 1175 2209 1959 2209 
L 2766 2209 
L 2766 2266 
Q 2766 2663 2505 2880 
Q 2244 3097 1772 3097 
Q 1472 3097 1187 3025 
Q 903 2953 641 2809 
L 641 3341 
Q 956 3463 1253 3523 
Q 1550 3584 1831 3584 
Q 2591 3584 2966 3190 
Q 3341 2797 3341 1997 
z
" transform="scale(0.015625)"/>
       <path id="DejaVuSans-6e" d="M 3513 2113 
L 3513 0 
L 2938 0 
L 2938 2094 
Q 2938 2591 2744 2837 
Q 2550 3084 2163 3084 
Q 1697 3084 1428 2787 
Q 1159 2491 1159 1978 
L 1159 0 
L 581 0 
L 581 3500 
L 1159 3500 
L 1159 2956 
Q 1366 3272 1645 3428 
Q 1925 3584 2291 3584 
Q 2894 3584 3203 3211 
Q 3513 2838 3513 2113 
z
" transform="scale(0.015625)"/>
       <path id="DejaVuSans-64" d="M 2906 2969 
L 2906 4863 
L 3481 4863 
L 3481 0 
L 2906 0 
L 2906 525 
Q 2725 213 2448 61 
Q 2172 -91 1784 -91 
Q 1150 -91 751 415 
Q 353 922 353 1747 
Q 353 2572 751 3078 
Q 1150 3584 1784 3584 
Q 2172 3584 2448 3432 
Q 2725 3281 2906 2969 
z
M 947 1747 
Q 947 1113 1208 752 
Q 1469 391 1925 391 
Q 2381 391 2643 752 
Q 2906 1113 2906 1747 
Q 2906 2381 2643 2742 
Q 2381 3103 1925 3103 
Q 1469 3103 1208 2742 
Q 947 2381 947 1747 
z
" transform="scale(0.015625)"/>
       <path id="DejaVuSans-77" d="M 269 3500 
L 844 3500 
L 1563 769 
L 2278 3500 
L 2956 3500 
L 3675 769 
L 4391 3500 
L 4966 3500 
L 4050 0 
L 3372 0 
L 2619 2869 
L 1863 0 
L 1184 0 
L 269 3500 
z
" transform="scale(0.015625)"/>
       <path id="DejaVuSans-69" d="M 603 3500 
L 1178 3500 
L 1178 0 
L 603 0 
L 603 3500 
z
M 603 4863 
L 1178 4863 
L 1178 4134 
L 603 4134 
L 603 4863 
z
" transform="scale(0.015625)"/>
       <path id="DejaVuSans-74" d="M 1172 4494 
L 1172 3500 
L 2356 3500 
L 2356 3053 
L 1172 3053 
L 1172 1153 
Q 1172 725 1289 603 
Q 1406 481 1766 481 
L 2356 481 
L 2356 0 
L 1766 0 
Q 1100 0 847 248 
Q 594 497 594 1153 
L 594 3053 
L 172 3053 
L 172 3500 
L 594 3500 
L 594 4494 
L 1172 4494 
z
" transform="scale(0.015625)"/>
       <path id="DejaVuSans-68" d="M 3513 2113 
L 3513 0 
L 2938 0 
L 2938 2094 
Q 2938 2591 2744 2837 
Q 2550 3084 2163 3084 
Q 1697 3084 1428 2787 
Q 1159 2491 1159 1978 
L 1159 0 
L 581 0 
L 581 4863 
L 1159 4863 
L 1159 2956 
Q 1366 3272 1645 3428 
Q 1925 3584 2291 3584 
Q 2894 3584 3203 3211 
Q 3513 2838 3513 2113 
z
" transform="scale(0.015625)"/>
      </defs>
      <use xlink:href="#DejaVuSans-62"/>
      <use xlink:href="#DejaVuSans-61" transform="translate(63.476562 0)"/>
      <use xlink:href="#DejaVuSans-6e" transform="translate(124.755859 0)"/>
      <use xlink:href="#DejaVuSans-64" transform="translate(188.134766 0)"/>
      <use xlink:href="#DejaVuSans-77" transform="translate(251.611328 0)"/>
      <use xlink:href="#DejaVuSans-69" transform="translate(333.398438 0)"/>
      <use xlink:href="#DejaVuSans-64" transform="translate(361.181641 0)"/>
      <use xlink:href="#DejaVuSans-74" transform="translate(424.658203 0)"/>
      <use xlink:href="#DejaVuSans-68" transform="translate(463.867188 0)"/>
     </g>
    </g>
   </g>
   <g id="matplotlib.axis_2">
    <g id="ytick_1">
     <g id="line2d_19">
      <defs>
       <path id="m0268dea0f5" d="M 0 0 
L -3.5 0 
" style="stroke: #000000; stroke-width: 0.8"/>
      </defs>
      <g>
       <use xlink:href="#m0268dea0f5" x="39.58149" y="312.24351" style="stroke: #000000; stroke-width: 0.8"/>
      </g>
     </g>
     <g id="text_4">
      <!-- 1.0 -->
      <g transform="translate(16.678365 316.042729) scale(0.1 -0.1)">
       <defs>
        <path id="DejaVuSans-2e" d="M 684 794 
L 1344 794 
L 1344 0 
L 684 0 
L 684 794 
z
" transform="scale(0.015625)"/>
       </defs>
       <use xlink:href="#DejaVuSans-31"/>
       <use xlink:href="#DejaVuSans-2e" transform="translate(63.623047 0)"/>
       <use xlink:href="#DejaVuSans-30" transform="translate(95.410156 0)"/>
      </g>
     </g>
    </g>
    <g id="ytick_2">
     <g id="line2d_20">
      <g>
       <use xlink:href="#m0268dea0f5" x="39.58149" y="263.222652" style="stroke: #000000; stroke-width: 0.8"/>
      </g>
     </g>
     <g id="text_5">
      <!-- 1.5 -->
      <g transform="translate(16.678365 267.021871) scale(0.1 -0.1)">
       <defs>
        <path id="DejaVuSans-35" d="M 691 4666 
L 3169 4666 
L 3169 4134 
L 1269 4134 
L 1269 2991 
Q 1406 3038 1543 3061 
Q 1681 3084 1819 3084 
Q 2600 3084 3056 2656 
Q 3513 2228 3513 1497 
Q 3513 744 3044 326 
Q 2575 -91 1722 -91 
Q 1428 -91 1123 -41 
Q 819 9 494 109 
L 494 744 
Q 775 591 1075 516 
Q 1375 441 1709 441 
Q 2250 441 2565 725 
Q 2881 1009 2881 1497 
Q 2881 1984 2565 2268 
Q 2250 2553 1709 2553 
Q 1456 2553 1204 2497 
Q 953 2441 691 2322 
L 691 4666 
z
" transform="scale(0.015625)"/>
       </defs>
       <use xlink:href="#DejaVuSans-31"/>
       <use xlink:href="#DejaVuSans-2e" transform="translate(63.623047 0)"/>
       <use xlink:href="#DejaVuSans-35" transform="translate(95.410156 0)"/>
      </g>
     </g>
    </g>
    <g id="ytick_3">
     <g id="line2d_21">
      <g>
       <use xlink:href="#m0268dea0f5" x="39.58149" y="214.201795" style="stroke: #000000; stroke-width: 0.8"/>
      </g>
     </g>
     <g id="text_6">
      <!-- 2.0 -->
      <g transform="translate(16.678365 218.001014) scale(0.1 -0.1)">
       <use xlink:href="#DejaVuSans-32"/>
       <use xlink:href="#DejaVuSans-2e" transform="translate(63.623047 0)"/>
       <use xlink:href="#DejaVuSans-30" transform="translate(95.410156 0)"/>
      </g>
     </g>
    </g>
    <g id="ytick_4">
     <g id="line2d_22">
      <g>
       <use xlink:href="#m0268dea0f5" x="39.58149" y="165.180938" style="stroke: #000000; stroke-width: 0.8"/>
      </g>
     </g>
     <g id="text_7">
      <!-- 2.5 -->
      <g transform="translate(16.678365 168.980156) scale(0.1 -0.1)">
       <use xlink:href="#DejaVuSans-32"/>
       <use xlink:href="#DejaVuSans-2e" transform="translate(63.623047 0)"/>
       <use xlink:href="#DejaVuSans-35" transform="translate(95.410156 0)"/>
      </g>
     </g>
    </g>
    <g id="ytick_5">
     <g id="line2d_23">
      <g>
       <use xlink:href="#m0268dea0f5" x="39.58149" y="116.16008" style="stroke: #000000; stroke-width: 0.8"/>
      </g>
     </g>
     <g id="text_8">
      <!-- 3.0 -->
      <g transform="translate(16.678365 119.959299) scale(0.1 -0.1)">
       <defs>
        <path id="DejaVuSans-33" d="M 2597 2516 
Q 3050 2419 3304 2112 
Q 3559 1806 3559 1356 
Q 3559 666 3084 287 
Q 2609 -91 1734 -91 
Q 1441 -91 1130 -33 
Q 819 25 488 141 
L 488 750 
Q 750 597 1062 519 
Q 1375 441 1716 441 
Q 2309 441 2620 675 
Q 2931 909 2931 1356 
Q 2931 1769 2642 2001 
Q 2353 2234 1838 2234 
L 1294 2234 
L 1294 2753 
L 1863 2753 
Q 2328 2753 2575 2939 
Q 2822 3125 2822 3475 
Q 2822 3834 2567 4026 
Q 2313 4219 1838 4219 
Q 1578 4219 1281 4162 
Q 984 4106 628 3988 
L 628 4550 
Q 988 4650 1302 4700 
Q 1616 4750 1894 4750 
Q 2613 4750 3031 4423 
Q 3450 4097 3450 3541 
Q 3450 3153 3228 2886 
Q 3006 2619 2597 2516 
z
" transform="scale(0.015625)"/>
       </defs>
       <use xlink:href="#DejaVuSans-33"/>
       <use xlink:href="#DejaVuSans-2e" transform="translate(63.623047 0)"/>
       <use xlink:href="#DejaVuSans-30" transform="translate(95.410156 0)"/>
      </g>
     </g>
    </g>
    <g id="ytick_6">
     <g id="line2d_24">
      <g>
       <use xlink:href="#m0268dea0f5" x="39.58149" y="67.139223" style="stroke: #000000; stroke-width: 0.8"/>
      </g>
     </g>
     <g id="text_9">
      <!-- 3.5 -->
      <g transform="translate(16.678365 70.938441) scale(0.1 -0.1)">
       <use xlink:href="#DejaVuSans-33"/>
       <use xlink:href="#DejaVuSans-2e" transform="translate(63.623047 0)"/>
       <use xlink:href="#DejaVuSans-35" transform="translate(95.410156 0)"/>
      </g>
     </g>
    </g>
    <g id="ytick_7">
     <g id="line2d_25">
      <g>
       <use xlink:href="#m0268dea0f5" x="39.58149" y="18.118365" style="stroke: #000000; stroke-width: 0.8"/>
      </g>
     </g>
     <g id="text_10">
      <!-- 4.0 -->
      <g transform="translate(16.678365 21.917584) scale(0.1 -0.1)">
       <defs>
        <path id="DejaVuSans-34" d="M 2419 4116 
L 825 1625 
L 2419 1625 
L 2419 4116 
z
M 2253 4666 
L 3047 4666 
L 3047 1625 
L 3713 1625 
L 3713 1100 
L 3047 1100 
L 3047 0 
L 2419 0 
L 2419 1100 
L 313 1100 
L 313 1709 
L 2253 4666 
z
" transform="scale(0.015625)"/>
       </defs>
       <use xlink:href="#DejaVuSans-34"/>
       <use xlink:href="#DejaVuSans-2e" transform="translate(63.623047 0)"/>
       <use xlink:href="#DejaVuSans-30" transform="translate(95.410156 0)"/>
      </g>
     </g>
    </g>
    <g id="text_11">
     <!-- alpha -->
     <g transform="translate(10.598677 179.041094) rotate(-90) scale(0.1 -0.1)">
      <defs>
       <path id="DejaVuSans-6c" d="M 603 4863 
L 1178 4863 
L 1178 0 
L 603 0 
L 603 4863 
z
" transform="scale(0.015625)"/>
       <path id="DejaVuSans-70" d="M 1159 525 
L 1159 -1331 
L 581 -1331 
L 581 3500 
L 1159 3500 
L 1159 2969 
Q 1341 3281 1617 3432 
Q 1894 3584 2278 3584 
Q 2916 3584 3314 3078 
Q 3713 2572 3713 1747 
Q 3713 922 3314 415 
Q 2916 -91 2278 -91 
Q 1894 -91 1617 61 
Q 1341 213 1159 525 
z
M 3116 1747 
Q 3116 2381 2855 2742 
Q 2594 3103 2138 3103 
Q 1681 3103 1420 2742 
Q 1159 2381 1159 1747 
Q 1159 1113 1420 752 
Q 1681 391 2138 391 
Q 2594 391 2855 752 
Q 3116 1113 3116 1747 
z
" transform="scale(0.015625)"/>
      </defs>
      <use xlink:href="#DejaVuSans-61"/>
      <use xlink:href="#DejaVuSans-6c" transform="translate(61.279297 0)"/>
      <use xlink:href="#DejaVuSans-70" transform="translate(89.0625 0)"/>
      <use xlink:href="#DejaVuSans-68" transform="translate(152.539062 0)"/>
      <use xlink:href="#DejaVuSans-61" transform="translate(215.917969 0)"/>
     </g>
    </g>
   </g>
   <g id="patch_3">
    <path d="M 39.58149 312.24351 
L 39.58149 18.118365 
" style="fill: none; stroke: #000000; stroke-width: 0.8; stroke-linejoin: miter; stroke-linecap: square"/>
   </g>
   <g id="patch_4">
    <path d="M 380.134979 312.24351 
L 380.134979 18.118365 
" style="fill: none; stroke: #000000; stroke-width: 0.8; stroke-linejoin: miter; stroke-linecap: square"/>
   </g>
   <g id="patch_5">
    <path d="M 39.58149 312.24351 
L 380.134979 312.24351 
" style="fill: none; stroke: #000000; stroke-width: 0.8; stroke-linejoin: miter; stroke-linecap: square"/>
   </g>
   <g id="patch_6">
    <path d="M 39.58149 18.118365 
L 380.134979 18.118365 
" style="fill: none; stroke: #000000; stroke-width: 0.8; stroke-linejoin: miter; stroke-linecap: square"/>
   </g>
   <g id="text_12">
    <!-- lunas_lo 7354 fkdc -->
    <g transform="translate(153.667297 12.118365) scale(0.12 -0.12)">
     <defs>
      <path id="DejaVuSans-75" d="M 544 1381 
L 544 3500 
L 1119 3500 
L 1119 1403 
Q 1119 906 1312 657 
Q 1506 409 1894 409 
Q 2359 409 2629 706 
Q 2900 1003 2900 1516 
L 2900 3500 
L 3475 3500 
L 3475 0 
L 2900 0 
L 2900 538 
Q 2691 219 2414 64 
Q 2138 -91 1772 -91 
Q 1169 -91 856 284 
Q 544 659 544 1381 
z
M 1991 3584 
L 1991 3584 
z
" transform="scale(0.015625)"/>
      <path id="DejaVuSans-73" d="M 2834 3397 
L 2834 2853 
Q 2591 2978 2328 3040 
Q 2066 3103 1784 3103 
Q 1356 3103 1142 2972 
Q 928 2841 928 2578 
Q 928 2378 1081 2264 
Q 1234 2150 1697 2047 
L 1894 2003 
Q 2506 1872 2764 1633 
Q 3022 1394 3022 966 
Q 3022 478 2636 193 
Q 2250 -91 1575 -91 
Q 1294 -91 989 -36 
Q 684 19 347 128 
L 347 722 
Q 666 556 975 473 
Q 1284 391 1588 391 
Q 1994 391 2212 530 
Q 2431 669 2431 922 
Q 2431 1156 2273 1281 
Q 2116 1406 1581 1522 
L 1381 1569 
Q 847 1681 609 1914 
Q 372 2147 372 2553 
Q 372 3047 722 3315 
Q 1072 3584 1716 3584 
Q 2034 3584 2315 3537 
Q 2597 3491 2834 3397 
z
" transform="scale(0.015625)"/>
      <path id="DejaVuSans-5f" d="M 3263 -1063 
L 3263 -1509 
L -63 -1509 
L -63 -1063 
L 3263 -1063 
z
" transform="scale(0.015625)"/>
      <path id="DejaVuSans-6f" d="M 1959 3097 
Q 1497 3097 1228 2736 
Q 959 2375 959 1747 
Q 959 1119 1226 758 
Q 1494 397 1959 397 
Q 2419 397 2687 759 
Q 2956 1122 2956 1747 
Q 2956 2369 2687 2733 
Q 2419 3097 1959 3097 
z
M 1959 3584 
Q 2709 3584 3137 3096 
Q 3566 2609 3566 1747 
Q 3566 888 3137 398 
Q 2709 -91 1959 -91 
Q 1206 -91 779 398 
Q 353 888 353 1747 
Q 353 2609 779 3096 
Q 1206 3584 1959 3584 
z
" transform="scale(0.015625)"/>
      <path id="DejaVuSans-20" transform="scale(0.015625)"/>
      <path id="DejaVuSans-37" d="M 525 4666 
L 3525 4666 
L 3525 4397 
L 1831 0 
L 1172 0 
L 2766 4134 
L 525 4134 
L 525 4666 
z
" transform="scale(0.015625)"/>
      <path id="DejaVuSans-66" d="M 2375 4863 
L 2375 4384 
L 1825 4384 
Q 1516 4384 1395 4259 
Q 1275 4134 1275 3809 
L 1275 3500 
L 2222 3500 
L 2222 3053 
L 1275 3053 
L 1275 0 
L 697 0 
L 697 3053 
L 147 3053 
L 147 3500 
L 697 3500 
L 697 3744 
Q 697 4328 969 4595 
Q 1241 4863 1831 4863 
L 2375 4863 
z
" transform="scale(0.015625)"/>
      <path id="DejaVuSans-6b" d="M 581 4863 
L 1159 4863 
L 1159 1991 
L 2875 3500 
L 3609 3500 
L 1753 1863 
L 3688 0 
L 2938 0 
L 1159 1709 
L 1159 0 
L 581 0 
L 581 4863 
z
" transform="scale(0.015625)"/>
      <path id="DejaVuSans-63" d="M 3122 3366 
L 3122 2828 
Q 2878 2963 2633 3030 
Q 2388 3097 2138 3097 
Q 1578 3097 1268 2742 
Q 959 2388 959 1747 
Q 959 1106 1268 751 
Q 1578 397 2138 397 
Q 2388 397 2633 464 
Q 2878 531 3122 666 
L 3122 134 
Q 2881 22 2623 -34 
Q 2366 -91 2075 -91 
Q 1284 -91 818 406 
Q 353 903 353 1747 
Q 353 2603 823 3093 
Q 1294 3584 2113 3584 
Q 2378 3584 2631 3529 
Q 2884 3475 3122 3366 
z
" transform="scale(0.015625)"/>
     </defs>
     <use xlink:href="#DejaVuSans-6c"/>
     <use xlink:href="#DejaVuSans-75" transform="translate(27.783203 0)"/>
     <use xlink:href="#DejaVuSans-6e" transform="translate(91.162109 0)"/>
     <use xlink:href="#DejaVuSans-61" transform="translate(154.541016 0)"/>
     <use xlink:href="#DejaVuSans-73" transform="translate(215.820312 0)"/>
     <use xlink:href="#DejaVuSans-5f" transform="translate(267.919922 0)"/>
     <use xlink:href="#DejaVuSans-6c" transform="translate(317.919922 0)"/>
     <use xlink:href="#DejaVuSans-6f" transform="translate(345.703125 0)"/>
     <use xlink:href="#DejaVuSans-20" transform="translate(406.884766 0)"/>
     <use xlink:href="#DejaVuSans-37" transform="translate(438.671875 0)"/>
     <use xlink:href="#DejaVuSans-33" transform="translate(502.294922 0)"/>
     <use xlink:href="#DejaVuSans-35" transform="translate(565.917969 0)"/>
     <use xlink:href="#DejaVuSans-34" transform="translate(629.541016 0)"/>
     <use xlink:href="#DejaVuSans-20" transform="translate(693.164062 0)"/>
     <use xlink:href="#DejaVuSans-66" transform="translate(724.951172 0)"/>
     <use xlink:href="#DejaVuSans-6b" transform="translate(760.15625 0)"/>
     <use xlink:href="#DejaVuSans-64" transform="translate(818.066406 0)"/>
     <use xlink:href="#DejaVuSans-63" transform="translate(881.542969 0)"/>
    </g>
   </g>
  </g>
  <g id="axes_2">
   <g id="patch_7">
    <path d="M 397.162653 312.24351 
L 411.86891 312.24351 
L 411.86891 18.118365 
L 397.162653 18.118365 
z
" style="fill: #ffffff"/>
   </g>
   <g id="QuadMesh_1">
    <path d="M 397.162653 312.24351 
L 411.86891 312.24351 
L 411.86891 293.860688 
L 397.162653 293.860688 
L 397.162653 312.24351 
" clip-path="url(#p4925e5a0f2)" style="fill: #470d60"/>
    <path d="M 397.162653 293.860688 
L 411.86891 293.860688 
L 411.86891 275.477867 
L 397.162653 275.477867 
L 397.162653 293.860688 
" clip-path="url(#p4925e5a0f2)" style="fill: #482374"/>
    <path d="M 397.162653 275.477867 
L 411.86891 275.477867 
L 411.86891 257.095045 
L 397.162653 257.095045 
L 397.162653 275.477867 
" clip-path="url(#p4925e5a0f2)" style="fill: #453781"/>
    <path d="M 397.162653 257.095045 
L 411.86891 257.095045 
L 411.86891 238.712224 
L 397.162653 238.712224 
L 397.162653 257.095045 
" clip-path="url(#p4925e5a0f2)" style="fill: #3e4989"/>
    <path d="M 397.162653 238.712224 
L 411.86891 238.712224 
L 411.86891 220.329402 
L 397.162653 220.329402 
L 397.162653 238.712224 
" clip-path="url(#p4925e5a0f2)" style="fill: #375b8d"/>
    <path d="M 397.162653 220.329402 
L 411.86891 220.329402 
L 411.86891 201.946581 
L 397.162653 201.946581 
L 397.162653 220.329402 
" clip-path="url(#p4925e5a0f2)" style="fill: #2f6b8e"/>
    <path d="M 397.162653 201.946581 
L 411.86891 201.946581 
L 411.86891 183.563759 
L 397.162653 183.563759 
L 397.162653 201.946581 
" clip-path="url(#p4925e5a0f2)" style="fill: #297a8e"/>
    <path d="M 397.162653 183.563759 
L 411.86891 183.563759 
L 411.86891 165.180937 
L 397.162653 165.180937 
L 397.162653 183.563759 
" clip-path="url(#p4925e5a0f2)" style="fill: #23898e"/>
    <path d="M 397.162653 165.180937 
L 411.86891 165.180937 
L 411.86891 146.798116 
L 397.162653 146.798116 
L 397.162653 165.180937 
" clip-path="url(#p4925e5a0f2)" style="fill: #1f988b"/>
    <path d="M 397.162653 146.798116 
L 411.86891 146.798116 
L 411.86891 128.415294 
L 397.162653 128.415294 
L 397.162653 146.798116 
" clip-path="url(#p4925e5a0f2)" style="fill: #22a785"/>
    <path d="M 397.162653 128.415294 
L 411.86891 128.415294 
L 411.86891 110.032473 
L 397.162653 110.032473 
L 397.162653 128.415294 
" clip-path="url(#p4925e5a0f2)" style="fill: #32b67a"/>
    <path d="M 397.162653 110.032473 
L 411.86891 110.032473 
L 411.86891 91.649651 
L 397.162653 91.649651 
L 397.162653 110.032473 
" clip-path="url(#p4925e5a0f2)" style="fill: #4ec36b"/>
    <path d="M 397.162653 91.649651 
L 411.86891 91.649651 
L 411.86891 73.26683 
L 397.162653 73.26683 
L 397.162653 91.649651 
" clip-path="url(#p4925e5a0f2)" style="fill: #70cf57"/>
    <path d="M 397.162653 73.26683 
L 411.86891 73.26683 
L 411.86891 54.884008 
L 397.162653 54.884008 
L 397.162653 73.26683 
" clip-path="url(#p4925e5a0f2)" style="fill: #98d83e"/>
    <path d="M 397.162653 54.884008 
L 411.86891 54.884008 
L 411.86891 36.501187 
L 397.162653 36.501187 
L 397.162653 54.884008 
" clip-path="url(#p4925e5a0f2)" style="fill: #c2df23"/>
    <path d="M 397.162653 36.501187 
L 411.86891 36.501187 
L 411.86891 18.118365 
L 397.162653 18.118365 
L 397.162653 36.501187 
" clip-path="url(#p4925e5a0f2)" style="fill: #ece51b"/>
   </g>
   <g id="matplotlib.axis_3"/>
   <g id="matplotlib.axis_4">
    <g id="ytick_8">
     <g id="line2d_26">
      <defs>
       <path id="m5da04f1a2e" d="M 0 0 
L 3.5 0 
" style="stroke: #000000; stroke-width: 0.8"/>
      </defs>
      <g>
       <use xlink:href="#m5da04f1a2e" x="411.86891" y="312.24351" style="stroke: #000000; stroke-width: 0.8"/>
      </g>
     </g>
     <g id="text_13">
      <!-- 4.0 -->
      <g transform="translate(418.86891 316.042729) scale(0.1 -0.1)">
       <use xlink:href="#DejaVuSans-2212"/>
       <use xlink:href="#DejaVuSans-34" transform="translate(83.789062 0)"/>
       <use xlink:href="#DejaVuSans-2e" transform="translate(147.412109 0)"/>
       <use xlink:href="#DejaVuSans-30" transform="translate(179.199219 0)"/>
      </g>
     </g>
    </g>
    <g id="ytick_9">
     <g id="line2d_27">
      <g>
       <use xlink:href="#m5da04f1a2e" x="411.86891" y="275.477867" style="stroke: #000000; stroke-width: 0.8"/>
      </g>
     </g>
     <g id="text_14">
      <!-- 3.5 -->
      <g transform="translate(418.86891 279.277086) scale(0.1 -0.1)">
       <use xlink:href="#DejaVuSans-2212"/>
       <use xlink:href="#DejaVuSans-33" transform="translate(83.789062 0)"/>
       <use xlink:href="#DejaVuSans-2e" transform="translate(147.412109 0)"/>
       <use xlink:href="#DejaVuSans-35" transform="translate(179.199219 0)"/>
      </g>
     </g>
    </g>
    <g id="ytick_10">
     <g id="line2d_28">
      <g>
       <use xlink:href="#m5da04f1a2e" x="411.86891" y="238.712224" style="stroke: #000000; stroke-width: 0.8"/>
      </g>
     </g>
     <g id="text_15">
      <!-- 3.0 -->
      <g transform="translate(418.86891 242.511442) scale(0.1 -0.1)">
       <use xlink:href="#DejaVuSans-2212"/>
       <use xlink:href="#DejaVuSans-33" transform="translate(83.789062 0)"/>
       <use xlink:href="#DejaVuSans-2e" transform="translate(147.412109 0)"/>
       <use xlink:href="#DejaVuSans-30" transform="translate(179.199219 0)"/>
      </g>
     </g>
    </g>
    <g id="ytick_11">
     <g id="line2d_29">
      <g>
       <use xlink:href="#m5da04f1a2e" x="411.86891" y="201.946581" style="stroke: #000000; stroke-width: 0.8"/>
      </g>
     </g>
     <g id="text_16">
      <!-- 2.5 -->
      <g transform="translate(418.86891 205.745799) scale(0.1 -0.1)">
       <use xlink:href="#DejaVuSans-2212"/>
       <use xlink:href="#DejaVuSans-32" transform="translate(83.789062 0)"/>
       <use xlink:href="#DejaVuSans-2e" transform="translate(147.412109 0)"/>
       <use xlink:href="#DejaVuSans-35" transform="translate(179.199219 0)"/>
      </g>
     </g>
    </g>
    <g id="ytick_12">
     <g id="line2d_30">
      <g>
       <use xlink:href="#m5da04f1a2e" x="411.86891" y="165.180937" style="stroke: #000000; stroke-width: 0.8"/>
      </g>
     </g>
     <g id="text_17">
      <!-- 2.0 -->
      <g transform="translate(418.86891 168.980156) scale(0.1 -0.1)">
       <use xlink:href="#DejaVuSans-2212"/>
       <use xlink:href="#DejaVuSans-32" transform="translate(83.789062 0)"/>
       <use xlink:href="#DejaVuSans-2e" transform="translate(147.412109 0)"/>
       <use xlink:href="#DejaVuSans-30" transform="translate(179.199219 0)"/>
      </g>
     </g>
    </g>
    <g id="ytick_13">
     <g id="line2d_31">
      <g>
       <use xlink:href="#m5da04f1a2e" x="411.86891" y="128.415294" style="stroke: #000000; stroke-width: 0.8"/>
      </g>
     </g>
     <g id="text_18">
      <!-- 1.5 -->
      <g transform="translate(418.86891 132.214513) scale(0.1 -0.1)">
       <use xlink:href="#DejaVuSans-2212"/>
       <use xlink:href="#DejaVuSans-31" transform="translate(83.789062 0)"/>
       <use xlink:href="#DejaVuSans-2e" transform="translate(147.412109 0)"/>
       <use xlink:href="#DejaVuSans-35" transform="translate(179.199219 0)"/>
      </g>
     </g>
    </g>
    <g id="ytick_14">
     <g id="line2d_32">
      <g>
       <use xlink:href="#m5da04f1a2e" x="411.86891" y="91.649651" style="stroke: #000000; stroke-width: 0.8"/>
      </g>
     </g>
     <g id="text_19">
      <!-- 1.0 -->
      <g transform="translate(418.86891 95.44887) scale(0.1 -0.1)">
       <use xlink:href="#DejaVuSans-2212"/>
       <use xlink:href="#DejaVuSans-31" transform="translate(83.789062 0)"/>
       <use xlink:href="#DejaVuSans-2e" transform="translate(147.412109 0)"/>
       <use xlink:href="#DejaVuSans-30" transform="translate(179.199219 0)"/>
      </g>
     </g>
    </g>
    <g id="ytick_15">
     <g id="line2d_33">
      <g>
       <use xlink:href="#m5da04f1a2e" x="411.86891" y="54.884008" style="stroke: #000000; stroke-width: 0.8"/>
      </g>
     </g>
     <g id="text_20">
      <!-- 0.5 -->
      <g transform="translate(418.86891 58.683227) scale(0.1 -0.1)">
       <use xlink:href="#DejaVuSans-2212"/>
       <use xlink:href="#DejaVuSans-30" transform="translate(83.789062 0)"/>
       <use xlink:href="#DejaVuSans-2e" transform="translate(147.412109 0)"/>
       <use xlink:href="#DejaVuSans-35" transform="translate(179.199219 0)"/>
      </g>
     </g>
    </g>
    <g id="ytick_16">
     <g id="line2d_34">
      <g>
       <use xlink:href="#m5da04f1a2e" x="411.86891" y="18.118365" style="stroke: #000000; stroke-width: 0.8"/>
      </g>
     </g>
     <g id="text_21">
      <!-- 0.0 -->
      <g transform="translate(418.86891 21.917584) scale(0.1 -0.1)">
       <use xlink:href="#DejaVuSans-30"/>
       <use xlink:href="#DejaVuSans-2e" transform="translate(63.623047 0)"/>
       <use xlink:href="#DejaVuSans-30" transform="translate(95.410156 0)"/>
      </g>
     </g>
    </g>
    <g id="text_22">
     <!-- Score -->
     <g transform="translate(454.75016 179.183281) rotate(-90) scale(0.1 -0.1)">
      <defs>
       <path id="DejaVuSans-53" d="M 3425 4513 
L 3425 3897 
Q 3066 4069 2747 4153 
Q 2428 4238 2131 4238 
Q 1616 4238 1336 4038 
Q 1056 3838 1056 3469 
Q 1056 3159 1242 3001 
Q 1428 2844 1947 2747 
L 2328 2669 
Q 3034 2534 3370 2195 
Q 3706 1856 3706 1288 
Q 3706 609 3251 259 
Q 2797 -91 1919 -91 
Q 1588 -91 1214 -16 
Q 841 59 441 206 
L 441 856 
Q 825 641 1194 531 
Q 1563 422 1919 422 
Q 2459 422 2753 634 
Q 3047 847 3047 1241 
Q 3047 1584 2836 1778 
Q 2625 1972 2144 2069 
L 1759 2144 
Q 1053 2284 737 2584 
Q 422 2884 422 3419 
Q 422 4038 858 4394 
Q 1294 4750 2059 4750 
Q 2388 4750 2728 4690 
Q 3069 4631 3425 4513 
z
" transform="scale(0.015625)"/>
       <path id="DejaVuSans-72" d="M 2631 2963 
Q 2534 3019 2420 3045 
Q 2306 3072 2169 3072 
Q 1681 3072 1420 2755 
Q 1159 2438 1159 1844 
L 1159 0 
L 581 0 
L 581 3500 
L 1159 3500 
L 1159 2956 
Q 1341 3275 1631 3429 
Q 1922 3584 2338 3584 
Q 2397 3584 2469 3576 
Q 2541 3569 2628 3553 
L 2631 2963 
z
" transform="scale(0.015625)"/>
       <path id="DejaVuSans-65" d="M 3597 1894 
L 3597 1613 
L 953 1613 
Q 991 1019 1311 708 
Q 1631 397 2203 397 
Q 2534 397 2845 478 
Q 3156 559 3463 722 
L 3463 178 
Q 3153 47 2828 -22 
Q 2503 -91 2169 -91 
Q 1331 -91 842 396 
Q 353 884 353 1716 
Q 353 2575 817 3079 
Q 1281 3584 2069 3584 
Q 2775 3584 3186 3129 
Q 3597 2675 3597 1894 
z
M 3022 2063 
Q 3016 2534 2758 2815 
Q 2500 3097 2075 3097 
Q 1594 3097 1305 2825 
Q 1016 2553 972 2059 
L 3022 2063 
z
" transform="scale(0.015625)"/>
      </defs>
      <use xlink:href="#DejaVuSans-53"/>
      <use xlink:href="#DejaVuSans-63" transform="translate(63.476562 0)"/>
      <use xlink:href="#DejaVuSans-6f" transform="translate(118.457031 0)"/>
      <use xlink:href="#DejaVuSans-72" transform="translate(179.638672 0)"/>
      <use xlink:href="#DejaVuSans-65" transform="translate(218.501953 0)"/>
     </g>
    </g>
   </g>
   <g id="LineCollection_1"/>
   <g id="patch_8">
    <path d="M 397.162653 312.24351 
L 404.515782 312.24351 
L 411.86891 312.24351 
L 411.86891 18.118365 
L 404.515782 18.118365 
L 397.162653 18.118365 
L 397.162653 312.24351 
z
" style="fill: none; stroke: #000000; stroke-width: 0.8; stroke-linejoin: miter; stroke-linecap: square"/>
   </g>
  </g>
 </g>
 <defs>
  <clipPath id="p43bee29db5">
   <rect x="39.58149" y="18.118365" width="340.553489" height="294.125145"/>
  </clipPath>
  <clipPath id="p4925e5a0f2">
   <rect x="397.162653" y="18.118365" width="14.706257" height="294.125145"/>
  </clipPath>
 </defs>
</svg>
