<?xml version="1.0" encoding="utf-8" standalone="no"?>
<!DOCTYPE svg PUBLIC "-//W3C//DTD SVG 1.1//EN"
  "http://www.w3.org/Graphics/SVG/1.1/DTD/svg11.dtd">
<svg xmlns:xlink="http://www.w3.org/1999/xlink" width="453.6pt" height="338.4pt" viewBox="0 0 453.6 338.4" xmlns="http://www.w3.org/2000/svg" version="1.1">
 <metadata>
  <rdf:RDF xmlns:dc="http://purl.org/dc/elements/1.1/" xmlns:cc="http://creativecommons.org/ns#" xmlns:rdf="http://www.w3.org/1999/02/22-rdf-syntax-ns#">
   <cc:Work>
    <dc:type rdf:resource="http://purl.org/dc/dcmitype/StillImage"/>
    <dc:date>1970-01-01T00:00:00+00:00</dc:date>
    <dc:format>image/svg+xml</dc:format>
    <dc:creator>
     <cc:Agent>
      <dc:title>Matplotlib v3.10.7, https://matplotlib.org/</dc:title>
     </cc:Agent>
    </dc:creator>
   </cc:Work>
  </rdf:RDF>
 </metadata>
 <defs>
  <style type="text/css">*{stroke-linejoin: round; stroke-linecap: butt}</style>
 </defs>
 <g id="figure_1">
  <g id="patch_1">
   <path d="M 0 338.4 
L 453.6 338.4 
L 453.6 0 
L 0 0 
z
" style="fill: #ffffff"/>
  </g>
  <g id="axes_1">
   <g id="patch_2">
    <path d="M 50.14375 327.7 
L 446.4 327.7 
L 446.4 7.2 
L 50.14375 7.2 
z
" style="fill: #ffffff"/>
   </g>
   <g id="patch_3">
    <path d="M 248.271875 1051.492623 
L 248.271875 1051.492623 
L 248.271875 1051.492623 
L 248.271875 1051.492623 
z
" clip-path="url(#p3b1d81f446)" style="fill: #b3e2cd; stroke: #7a7a7a; stroke-linejoin: miter"/>
   </g>
   <g id="patch_4">
    <path d="M 248.271875 1051.492623 
L 248.271875 1051.492623 
L 248.271875 1051.492623 
L 248.271875 1051.492623 
z
" clip-path="url(#p3b1d81f446)" style="fill: #fdcdac; stroke: #7a7a7a; stroke-linejoin: miter"/>
   </g>
   <g id="patch_5">
    <path d="M 248.271875 1051.492623 
L 248.271875 1051.492623 
L 248.271875 1051.492623 
L 248.271875 1051.492623 
z
" clip-path="url(#p3b1d81f446)" style="fill: #f4cae4; stroke: #7a7a7a; stroke-linejoin: miter"/>
   </g>
   <g id="patch_6">
    <path d="M 248.271875 1051.492623 
L 248.271875 1051.492623 
L 248.271875 1051.492623 
L 248.271875 1051.492623 
z
" clip-path="url(#p3b1d81f446)" style="fill: #b3e2cd; stroke: #7a7a7a; stroke-linejoin: miter"/>
   </g>
   <g id="patch_7">
    <path d="M 248.271875 1051.492623 
L 248.271875 1051.492623 
L 248.271875 1051.492623 
L 248.271875 1051.492623 
z
" clip-path="url(#p3b1d81f446)" style="fill: #fdcdac; stroke: #7a7a7a; stroke-linejoin: miter"/>
   </g>
   <g id="matplotlib.axis_1">
    <g id="xtick_1">
     <g id="line2d_1">
      <defs>
       <path id="m38f3b05bbe" d="M 0 0 
L 0 3.5 
" style="stroke: #000000; stroke-width: 0.8"/>
      </defs>
      <g>
       <use xlink:href="#m38f3b05bbe" x="248.271875" y="327.7" style="stroke: #000000; stroke-width: 0.8"/>
      </g>
     </g>
    </g>
   </g>
   <g id="matplotlib.axis_2">
    <g id="ytick_1">
     <g id="line2d_2">
      <defs>
       <path id="mbd2f377c6c" d="M 0 0 
L -3.5 0 
" style="stroke: #000000; stroke-width: 0.8"/>
      </defs>
      <g>
       <use xlink:href="#mbd2f377c6c" x="50.14375" y="299.868989" style="stroke: #000000; stroke-width: 0.8"/>
      </g>
     </g>
     <g id="text_1">
      <!-- 0.60 -->
      <g transform="translate(20.878125 303.668208) scale(0.1 -0.1)">
       <defs>
        <path id="DejaVuSans-30" d="M 2034 4250 
Q 1547 4250 1301 3770 
Q 1056 3291 1056 2328 
Q 1056 1369 1301 889 
Q 1547 409 2034 409 
Q 2525 409 2770 889 
Q 3016 1369 3016 2328 
Q 3016 3291 2770 3770 
Q 2525 4250 2034 4250 
z
M 2034 4750 
Q 2819 4750 3233 4129 
Q 3647 3509 3647 2328 
Q 3647 1150 3233 529 
Q 2819 -91 2034 -91 
Q 1250 -91 836 529 
Q 422 1150 422 2328 
Q 422 3509 836 4129 
Q 1250 4750 2034 4750 
z
" transform="scale(0.015625)"/>
        <path id="DejaVuSans-2e" d="M 684 794 
L 1344 794 
L 1344 0 
L 684 0 
L 684 794 
z
" transform="scale(0.015625)"/>
        <path id="DejaVuSans-36" d="M 2113 2584 
Q 1688 2584 1439 2293 
Q 1191 2003 1191 1497 
Q 1191 994 1439 701 
Q 1688 409 2113 409 
Q 2538 409 2786 701 
Q 3034 994 3034 1497 
Q 3034 2003 2786 2293 
Q 2538 2584 2113 2584 
z
M 3366 4563 
L 3366 3988 
Q 3128 4100 2886 4159 
Q 2644 4219 2406 4219 
Q 1781 4219 1451 3797 
Q 1122 3375 1075 2522 
Q 1259 2794 1537 2939 
Q 1816 3084 2150 3084 
Q 2853 3084 3261 2657 
Q 3669 2231 3669 1497 
Q 3669 778 3244 343 
Q 2819 -91 2113 -91 
Q 1303 -91 875 529 
Q 447 1150 447 2328 
Q 447 3434 972 4092 
Q 1497 4750 2381 4750 
Q 2619 4750 2861 4703 
Q 3103 4656 3366 4563 
z
" transform="scale(0.015625)"/>
       </defs>
       <use xlink:href="#DejaVuSans-30"/>
       <use xlink:href="#DejaVuSans-2e" transform="translate(63.623047 0)"/>
       <use xlink:href="#DejaVuSans-36" transform="translate(95.410156 0)"/>
       <use xlink:href="#DejaVuSans-30" transform="translate(159.033203 0)"/>
      </g>
     </g>
    </g>
    <g id="ytick_2">
     <g id="line2d_3">
      <g>
       <use xlink:href="#mbd2f377c6c" x="50.14375" y="237.233687" style="stroke: #000000; stroke-width: 0.8"/>
      </g>
     </g>
     <g id="text_2">
      <!-- 0.65 -->
      <g transform="translate(20.878125 241.032905) scale(0.1 -0.1)">
       <defs>
        <path id="DejaVuSans-35" d="M 691 4666 
L 3169 4666 
L 3169 4134 
L 1269 4134 
L 1269 2991 
Q 1406 3038 1543 3061 
Q 1681 3084 1819 3084 
Q 2600 3084 3056 2656 
Q 3513 2228 3513 1497 
Q 3513 744 3044 326 
Q 2575 -91 1722 -91 
Q 1428 -91 1123 -41 
Q 819 9 494 109 
L 494 744 
Q 775 591 1075 516 
Q 1375 441 1709 441 
Q 2250 441 2565 725 
Q 2881 1009 2881 1497 
Q 2881 1984 2565 2268 
Q 2250 2553 1709 2553 
Q 1456 2553 1204 2497 
Q 953 2441 691 2322 
L 691 4666 
z
" transform="scale(0.015625)"/>
       </defs>
       <use xlink:href="#DejaVuSans-30"/>
       <use xlink:href="#DejaVuSans-2e" transform="translate(63.623047 0)"/>
       <use xlink:href="#DejaVuSans-36" transform="translate(95.410156 0)"/>
       <use xlink:href="#DejaVuSans-35" transform="translate(159.033203 0)"/>
      </g>
     </g>
    </g>
    <g id="ytick_3">
     <g id="line2d_4">
      <g>
       <use xlink:href="#mbd2f377c6c" x="50.14375" y="174.598384" style="stroke: #000000; stroke-width: 0.8"/>
      </g>
     </g>
     <g id="text_3">
      <!-- 0.70 -->
      <g transform="translate(20.878125 178.397603) scale(0.1 -0.1)">
       <defs>
        <path id="DejaVuSans-37" d="M 525 4666 
L 3525 4666 
L 3525 4397 
L 1831 0 
L 1172 0 
L 2766 4134 
L 525 4134 
L 525 4666 
z
" transform="scale(0.015625)"/>
       </defs>
       <use xlink:href="#DejaVuSans-30"/>
       <use xlink:href="#DejaVuSans-2e" transform="translate(63.623047 0)"/>
       <use xlink:href="#DejaVuSans-37" transform="translate(95.410156 0)"/>
       <use xlink:href="#DejaVuSans-30" transform="translate(159.033203 0)"/>
      </g>
     </g>
    </g>
    <g id="ytick_4">
     <g id="line2d_5">
      <g>
       <use xlink:href="#mbd2f377c6c" x="50.14375" y="111.963081" style="stroke: #000000; stroke-width: 0.8"/>
      </g>
     </g>
     <g id="text_4">
      <!-- 0.75 -->
      <g transform="translate(20.878125 115.7623) scale(0.1 -0.1)">
       <use xlink:href="#DejaVuSans-30"/>
       <use xlink:href="#DejaVuSans-2e" transform="translate(63.623047 0)"/>
       <use xlink:href="#DejaVuSans-37" transform="translate(95.410156 0)"/>
       <use xlink:href="#DejaVuSans-35" transform="translate(159.033203 0)"/>
      </g>
     </g>
    </g>
    <g id="ytick_5">
     <g id="line2d_6">
      <g>
       <use xlink:href="#mbd2f377c6c" x="50.14375" y="49.327778" style="stroke: #000000; stroke-width: 0.8"/>
      </g>
     </g>
     <g id="text_5">
      <!-- 0.80 -->
      <g transform="translate(20.878125 53.126997) scale(0.1 -0.1)">
       <defs>
        <path id="DejaVuSans-38" d="M 2034 2216 
Q 1584 2216 1326 1975 
Q 1069 1734 1069 1313 
Q 1069 891 1326 650 
Q 1584 409 2034 409 
Q 2484 409 2743 651 
Q 3003 894 3003 1313 
Q 3003 1734 2745 1975 
Q 2488 2216 2034 2216 
z
M 1403 2484 
Q 997 2584 770 2862 
Q 544 3141 544 3541 
Q 544 4100 942 4425 
Q 1341 4750 2034 4750 
Q 2731 4750 3128 4425 
Q 3525 4100 3525 3541 
Q 3525 3141 3298 2862 
Q 3072 2584 2669 2484 
Q 3125 2378 3379 2068 
Q 3634 1759 3634 1313 
Q 3634 634 3220 271 
Q 2806 -91 2034 -91 
Q 1263 -91 848 271 
Q 434 634 434 1313 
Q 434 1759 690 2068 
Q 947 2378 1403 2484 
z
M 1172 3481 
Q 1172 3119 1398 2916 
Q 1625 2713 2034 2713 
Q 2441 2713 2670 2916 
Q 2900 3119 2900 3481 
Q 2900 3844 2670 4047 
Q 2441 4250 2034 4250 
Q 1625 4250 1398 4047 
Q 1172 3844 1172 3481 
z
" transform="scale(0.015625)"/>
       </defs>
       <use xlink:href="#DejaVuSans-30"/>
       <use xlink:href="#DejaVuSans-2e" transform="translate(63.623047 0)"/>
       <use xlink:href="#DejaVuSans-38" transform="translate(95.410156 0)"/>
       <use xlink:href="#DejaVuSans-30" transform="translate(159.033203 0)"/>
      </g>
     </g>
    </g>
    <g id="text_6">
     <!-- r2 -->
     <g transform="translate(14.798438 172.686719) rotate(-90) scale(0.1 -0.1)">
      <defs>
       <path id="DejaVuSans-72" d="M 2631 2963 
Q 2534 3019 2420 3045 
Q 2306 3072 2169 3072 
Q 1681 3072 1420 2755 
Q 1159 2438 1159 1844 
L 1159 0 
L 581 0 
L 581 3500 
L 1159 3500 
L 1159 2956 
Q 1341 3275 1631 3429 
Q 1922 3584 2338 3584 
Q 2397 3584 2469 3576 
Q 2541 3569 2628 3553 
L 2631 2963 
z
" transform="scale(0.015625)"/>
       <path id="DejaVuSans-32" d="M 1228 531 
L 3431 531 
L 3431 0 
L 469 0 
L 469 531 
Q 828 903 1448 1529 
Q 2069 2156 2228 2338 
Q 2531 2678 2651 2914 
Q 2772 3150 2772 3378 
Q 2772 3750 2511 3984 
Q 2250 4219 1831 4219 
Q 1534 4219 1204 4116 
Q 875 4013 500 3803 
L 500 4441 
Q 881 4594 1212 4672 
Q 1544 4750 1819 4750 
Q 2544 4750 2975 4387 
Q 3406 4025 3406 3419 
Q 3406 3131 3298 2873 
Q 3191 2616 2906 2266 
Q 2828 2175 2409 1742 
Q 1991 1309 1228 531 
z
" transform="scale(0.015625)"/>
      </defs>
      <use xlink:href="#DejaVuSans-72"/>
      <use xlink:href="#DejaVuSans-32" transform="translate(41.113281 0)"/>
     </g>
    </g>
   </g>
   <g id="patch_8">
    <path d="M 96.109475 142.22989 
L 146.830275 142.22989 
L 146.830275 70.544647 
L 96.109475 70.544647 
L 96.109475 142.22989 
z
" clip-path="url(#p3b1d81f446)" style="fill: #b3e2cd; stroke: #7a7a7a; stroke-linejoin: miter"/>
   </g>
   <g id="line2d_7">
    <path d="M 121.469875 142.22989 
L 121.469875 193.755728 
" clip-path="url(#p3b1d81f446)" style="fill: none; stroke: #7a7a7a"/>
   </g>
   <g id="line2d_8">
    <path d="M 121.469875 70.544647 
L 121.469875 21.768182 
" clip-path="url(#p3b1d81f446)" style="fill: none; stroke: #7a7a7a"/>
   </g>
   <g id="line2d_9">
    <path d="M 108.789675 193.755728 
L 134.150075 193.755728 
" clip-path="url(#p3b1d81f446)" style="fill: none; stroke: #7a7a7a; stroke-linecap: square"/>
   </g>
   <g id="line2d_10">
    <path d="M 108.789675 21.768182 
L 134.150075 21.768182 
" clip-path="url(#p3b1d81f446)" style="fill: none; stroke: #7a7a7a; stroke-linecap: square"/>
   </g>
   <g id="line2d_11"/>
   <g id="patch_9">
    <path d="M 159.510475 148.549567 
L 210.231275 148.549567 
L 210.231275 86.427915 
L 159.510475 86.427915 
L 159.510475 148.549567 
z
" clip-path="url(#p3b1d81f446)" style="fill: #fdcdac; stroke: #7a7a7a; stroke-linejoin: miter"/>
   </g>
   <g id="line2d_12">
    <path d="M 184.870875 148.549567 
L 184.870875 164.692686 
" clip-path="url(#p3b1d81f446)" style="fill: none; stroke: #7a7a7a"/>
   </g>
   <g id="line2d_13">
    <path d="M 184.870875 86.427915 
L 184.870875 30.342953 
" clip-path="url(#p3b1d81f446)" style="fill: none; stroke: #7a7a7a"/>
   </g>
   <g id="line2d_14">
    <path d="M 172.190675 164.692686 
L 197.551075 164.692686 
" clip-path="url(#p3b1d81f446)" style="fill: none; stroke: #7a7a7a; stroke-linecap: square"/>
   </g>
   <g id="line2d_15">
    <path d="M 172.190675 30.342953 
L 197.551075 30.342953 
" clip-path="url(#p3b1d81f446)" style="fill: none; stroke: #7a7a7a; stroke-linecap: square"/>
   </g>
   <g id="line2d_16">
    <defs>
     <path id="mf2d42e0765" d="M 0 3 
C 0.795609 3 1.55874 2.683901 2.12132 2.12132 
C 2.683901 1.55874 3 0.795609 3 0 
C 3 -0.795609 2.683901 -1.55874 2.12132 -2.12132 
C 1.55874 -2.683901 0.795609 -3 0 -3 
C -0.795609 -3 -1.55874 -2.683901 -2.12132 -2.12132 
C -2.683901 -1.55874 -3 -0.795609 -3 0 
C -3 0.795609 -2.683901 1.55874 -2.12132 2.12132 
C -1.55874 2.683901 -0.795609 3 0 3 
z
" style="stroke: #7a7a7a"/>
    </defs>
    <g clip-path="url(#p3b1d81f446)">
     <use xlink:href="#mf2d42e0765" x="184.870875" y="246.954101" style="fill-opacity: 0; stroke: #7a7a7a"/>
    </g>
   </g>
   <g id="patch_10">
    <path d="M 222.911475 199.686274 
L 273.632275 199.686274 
L 273.632275 120.439896 
L 222.911475 120.439896 
L 222.911475 199.686274 
z
" clip-path="url(#p3b1d81f446)" style="fill: #f4cae4; stroke: #7a7a7a; stroke-linejoin: miter"/>
   </g>
   <g id="line2d_17">
    <path d="M 248.271875 199.686274 
L 248.271875 313.131818 
" clip-path="url(#p3b1d81f446)" style="fill: none; stroke: #7a7a7a"/>
   </g>
   <g id="line2d_18">
    <path d="M 248.271875 120.439896 
L 248.271875 58.933685 
" clip-path="url(#p3b1d81f446)" style="fill: none; stroke: #7a7a7a"/>
   </g>
   <g id="line2d_19">
    <path d="M 235.591675 313.131818 
L 260.952075 313.131818 
" clip-path="url(#p3b1d81f446)" style="fill: none; stroke: #7a7a7a; stroke-linecap: square"/>
   </g>
   <g id="line2d_20">
    <path d="M 235.591675 58.933685 
L 260.952075 58.933685 
" clip-path="url(#p3b1d81f446)" style="fill: none; stroke: #7a7a7a; stroke-linecap: square"/>
   </g>
   <g id="line2d_21"/>
   <g id="patch_11">
    <path d="M 286.312475 163.84408 
L 337.033275 163.84408 
L 337.033275 107.207758 
L 286.312475 107.207758 
L 286.312475 163.84408 
z
" clip-path="url(#p3b1d81f446)" style="fill: url(#h5c36d2b54f); stroke: #7a7a7a; stroke-linejoin: miter"/>
   </g>
   <g id="line2d_22">
    <path d="M 311.672875 163.84408 
L 311.672875 194.665955 
" clip-path="url(#p3b1d81f446)" style="fill: none; stroke: #7a7a7a"/>
   </g>
   <g id="line2d_23">
    <path d="M 311.672875 107.207758 
L 311.672875 67.366524 
" clip-path="url(#p3b1d81f446)" style="fill: none; stroke: #7a7a7a"/>
   </g>
   <g id="line2d_24">
    <path d="M 298.992675 194.665955 
L 324.353075 194.665955 
" clip-path="url(#p3b1d81f446)" style="fill: none; stroke: #7a7a7a; stroke-linecap: square"/>
   </g>
   <g id="line2d_25">
    <path d="M 298.992675 67.366524 
L 324.353075 67.366524 
" clip-path="url(#p3b1d81f446)" style="fill: none; stroke: #7a7a7a; stroke-linecap: square"/>
   </g>
   <g id="line2d_26"/>
   <g id="patch_12">
    <path d="M 349.713475 148.549567 
L 400.434275 148.549567 
L 400.434275 91.120595 
L 349.713475 91.120595 
L 349.713475 148.549567 
z
" clip-path="url(#p3b1d81f446)" style="fill: url(#h0577782f04); stroke: #7a7a7a; stroke-linejoin: miter"/>
   </g>
   <g id="line2d_27">
    <path d="M 375.073875 148.549567 
L 375.073875 164.692686 
" clip-path="url(#p3b1d81f446)" style="fill: none; stroke: #7a7a7a"/>
   </g>
   <g id="line2d_28">
    <path d="M 375.073875 91.120595 
L 375.073875 30.342953 
" clip-path="url(#p3b1d81f446)" style="fill: none; stroke: #7a7a7a"/>
   </g>
   <g id="line2d_29">
    <path d="M 362.393675 164.692686 
L 387.754075 164.692686 
" clip-path="url(#p3b1d81f446)" style="fill: none; stroke: #7a7a7a; stroke-linecap: square"/>
   </g>
   <g id="line2d_30">
    <path d="M 362.393675 30.342953 
L 387.754075 30.342953 
" clip-path="url(#p3b1d81f446)" style="fill: none; stroke: #7a7a7a; stroke-linecap: square"/>
   </g>
   <g id="line2d_31">
    <g clip-path="url(#p3b1d81f446)">
     <use xlink:href="#mf2d42e0765" x="375.073875" y="246.954101" style="fill-opacity: 0; stroke: #7a7a7a"/>
    </g>
   </g>
   <g id="line2d_32">
    <path d="M 50.14375 94.575604 
L 446.4 94.575604 
" clip-path="url(#p3b1d81f446)" style="fill: none; stroke-dasharray: 1.5,2.475; stroke-dashoffset: 0; stroke: #808080; stroke-width: 1.5"/>
   </g>
   <g id="line2d_33">
    <path d="M 96.109475 94.575604 
L 146.830275 94.575604 
" clip-path="url(#p3b1d81f446)" style="fill: none; stroke: #7a7a7a"/>
   </g>
   <g id="line2d_34">
    <path d="M 159.510475 125.517141 
L 210.231275 125.517141 
" clip-path="url(#p3b1d81f446)" style="fill: none; stroke: #7a7a7a"/>
   </g>
   <g id="line2d_35">
    <path d="M 222.911475 150.283821 
L 273.632275 150.283821 
" clip-path="url(#p3b1d81f446)" style="fill: none; stroke: #7a7a7a"/>
   </g>
   <g id="line2d_36">
    <path d="M 286.312475 139.746684 
L 337.033275 139.746684 
" clip-path="url(#p3b1d81f446)" style="fill: none; stroke: #7a7a7a"/>
   </g>
   <g id="line2d_37">
    <path d="M 349.713475 125.517141 
L 400.434275 125.517141 
" clip-path="url(#p3b1d81f446)" style="fill: none; stroke: #7a7a7a"/>
   </g>
   <g id="patch_13">
    <path d="M 50.14375 327.7 
L 50.14375 7.2 
" style="fill: none; stroke: #000000; stroke-width: 0.8; stroke-linejoin: miter; stroke-linecap: square"/>
   </g>
   <g id="patch_14">
    <path d="M 446.4 327.7 
L 446.4 7.2 
" style="fill: none; stroke: #000000; stroke-width: 0.8; stroke-linejoin: miter; stroke-linecap: square"/>
   </g>
   <g id="patch_15">
    <path d="M 50.14375 327.7 
L 446.4 327.7 
" style="fill: none; stroke: #000000; stroke-width: 0.8; stroke-linejoin: miter; stroke-linecap: square"/>
   </g>
   <g id="patch_16">
    <path d="M 50.14375 7.2 
L 446.4 7.2 
" style="fill: none; stroke: #000000; stroke-width: 0.8; stroke-linejoin: miter; stroke-linecap: square"/>
   </g>
   <g id="legend_1">
    <g id="patch_17">
     <path d="M 57.14375 322.7 
L 110.301563 322.7 
Q 112.301563 322.7 112.301563 320.7 
L 112.301563 233.63125 
Q 112.301563 231.63125 110.301563 231.63125 
L 57.14375 231.63125 
Q 55.14375 231.63125 55.14375 233.63125 
L 55.14375 320.7 
Q 55.14375 322.7 57.14375 322.7 
z
" style="fill: #ffffff; opacity: 0.8; stroke: #cccccc; stroke-linejoin: miter"/>
    </g>
    <g id="text_7">
     <!-- clf -->
     <g transform="translate(77.824219 243.229687) scale(0.1 -0.1)">
      <defs>
       <path id="DejaVuSans-63" d="M 3122 3366 
L 3122 2828 
Q 2878 2963 2633 3030 
Q 2388 3097 2138 3097 
Q 1578 3097 1268 2742 
Q 959 2388 959 1747 
Q 959 1106 1268 751 
Q 1578 397 2138 397 
Q 2388 397 2633 464 
Q 2878 531 3122 666 
L 3122 134 
Q 2881 22 2623 -34 
Q 2366 -91 2075 -91 
Q 1284 -91 818 406 
Q 353 903 353 1747 
Q 353 2603 823 3093 
Q 1294 3584 2113 3584 
Q 2378 3584 2631 3529 
Q 2884 3475 3122 3366 
z
" transform="scale(0.015625)"/>
       <path id="DejaVuSans-6c" d="M 603 4863 
L 1178 4863 
L 1178 0 
L 603 0 
L 603 4863 
z
" transform="scale(0.015625)"/>
       <path id="DejaVuSans-66" d="M 2375 4863 
L 2375 4384 
L 1825 4384 
Q 1516 4384 1395 4259 
Q 1275 4134 1275 3809 
L 1275 3500 
L 2222 3500 
L 2222 3053 
L 1275 3053 
L 1275 0 
L 697 0 
L 697 3053 
L 147 3053 
L 147 3500 
L 697 3500 
L 697 3744 
Q 697 4328 969 4595 
Q 1241 4863 1831 4863 
L 2375 4863 
z
" transform="scale(0.015625)"/>
      </defs>
      <use xlink:href="#DejaVuSans-63"/>
      <use xlink:href="#DejaVuSans-6c" transform="translate(54.980469 0)"/>
      <use xlink:href="#DejaVuSans-66" transform="translate(82.763672 0)"/>
     </g>
    </g>
    <g id="patch_18">
     <path d="M 59.14375 257.907812 
L 79.14375 257.907812 
L 79.14375 250.907812 
L 59.14375 250.907812 
z
" style="fill: #b3e2cd; stroke: #7a7a7a; stroke-linejoin: miter"/>
    </g>
    <g id="text_8">
     <!-- fkdc -->
     <g transform="translate(87.14375 257.907812) scale(0.1 -0.1)">
      <defs>
       <path id="DejaVuSans-6b" d="M 581 4863 
L 1159 4863 
L 1159 1991 
L 2875 3500 
L 3609 3500 
L 1753 1863 
L 3688 0 
L 2938 0 
L 1159 1709 
L 1159 0 
L 581 0 
L 581 4863 
z
" transform="scale(0.015625)"/>
       <path id="DejaVuSans-64" d="M 2906 2969 
L 2906 4863 
L 3481 4863 
L 3481 0 
L 2906 0 
L 2906 525 
Q 2725 213 2448 61 
Q 2172 -91 1784 -91 
Q 1150 -91 751 415 
Q 353 922 353 1747 
Q 353 2572 751 3078 
Q 1150 3584 1784 3584 
Q 2172 3584 2448 3432 
Q 2725 3281 2906 2969 
z
M 947 1747 
Q 947 1113 1208 752 
Q 1469 391 1925 391 
Q 2381 391 2643 752 
Q 2906 1113 2906 1747 
Q 2906 2381 2643 2742 
Q 2381 3103 1925 3103 
Q 1469 3103 1208 2742 
Q 947 2381 947 1747 
z
" transform="scale(0.015625)"/>
      </defs>
      <use xlink:href="#DejaVuSans-66"/>
      <use xlink:href="#DejaVuSans-6b" transform="translate(35.205078 0)"/>
      <use xlink:href="#DejaVuSans-64" transform="translate(93.115234 0)"/>
      <use xlink:href="#DejaVuSans-63" transform="translate(156.591797 0)"/>
     </g>
    </g>
    <g id="patch_19">
     <path d="M 59.14375 272.585938 
L 79.14375 272.585938 
L 79.14375 265.585938 
L 59.14375 265.585938 
z
" style="fill: #fdcdac; stroke: #7a7a7a; stroke-linejoin: miter"/>
    </g>
    <g id="text_9">
     <!-- fkn -->
     <g transform="translate(87.14375 272.585938) scale(0.1 -0.1)">
      <defs>
       <path id="DejaVuSans-6e" d="M 3513 2113 
L 3513 0 
L 2938 0 
L 2938 2094 
Q 2938 2591 2744 2837 
Q 2550 3084 2163 3084 
Q 1697 3084 1428 2787 
Q 1159 2491 1159 1978 
L 1159 0 
L 581 0 
L 581 3500 
L 1159 3500 
L 1159 2956 
Q 1366 3272 1645 3428 
Q 1925 3584 2291 3584 
Q 2894 3584 3203 3211 
Q 3513 2838 3513 2113 
z
" transform="scale(0.015625)"/>
      </defs>
      <use xlink:href="#DejaVuSans-66"/>
      <use xlink:href="#DejaVuSans-6b" transform="translate(35.205078 0)"/>
      <use xlink:href="#DejaVuSans-6e" transform="translate(93.115234 0)"/>
     </g>
    </g>
    <g id="patch_20">
     <path d="M 59.14375 287.264062 
L 79.14375 287.264062 
L 79.14375 280.264062 
L 59.14375 280.264062 
z
" style="fill: #f4cae4; stroke: #7a7a7a; stroke-linejoin: miter"/>
    </g>
    <g id="text_10">
     <!-- gbt -->
     <g transform="translate(87.14375 287.264062) scale(0.1 -0.1)">
      <defs>
       <path id="DejaVuSans-67" d="M 2906 1791 
Q 2906 2416 2648 2759 
Q 2391 3103 1925 3103 
Q 1463 3103 1205 2759 
Q 947 2416 947 1791 
Q 947 1169 1205 825 
Q 1463 481 1925 481 
Q 2391 481 2648 825 
Q 2906 1169 2906 1791 
z
M 3481 434 
Q 3481 -459 3084 -895 
Q 2688 -1331 1869 -1331 
Q 1566 -1331 1297 -1286 
Q 1028 -1241 775 -1147 
L 775 -588 
Q 1028 -725 1275 -790 
Q 1522 -856 1778 -856 
Q 2344 -856 2625 -561 
Q 2906 -266 2906 331 
L 2906 616 
Q 2728 306 2450 153 
Q 2172 0 1784 0 
Q 1141 0 747 490 
Q 353 981 353 1791 
Q 353 2603 747 3093 
Q 1141 3584 1784 3584 
Q 2172 3584 2450 3431 
Q 2728 3278 2906 2969 
L 2906 3500 
L 3481 3500 
L 3481 434 
z
" transform="scale(0.015625)"/>
       <path id="DejaVuSans-62" d="M 3116 1747 
Q 3116 2381 2855 2742 
Q 2594 3103 2138 3103 
Q 1681 3103 1420 2742 
Q 1159 2381 1159 1747 
Q 1159 1113 1420 752 
Q 1681 391 2138 391 
Q 2594 391 2855 752 
Q 3116 1113 3116 1747 
z
M 1159 2969 
Q 1341 3281 1617 3432 
Q 1894 3584 2278 3584 
Q 2916 3584 3314 3078 
Q 3713 2572 3713 1747 
Q 3713 922 3314 415 
Q 2916 -91 2278 -91 
Q 1894 -91 1617 61 
Q 1341 213 1159 525 
L 1159 0 
L 581 0 
L 581 4863 
L 1159 4863 
L 1159 2969 
z
" transform="scale(0.015625)"/>
       <path id="DejaVuSans-74" d="M 1172 4494 
L 1172 3500 
L 2356 3500 
L 2356 3053 
L 1172 3053 
L 1172 1153 
Q 1172 725 1289 603 
Q 1406 481 1766 481 
L 2356 481 
L 2356 0 
L 1766 0 
Q 1100 0 847 248 
Q 594 497 594 1153 
L 594 3053 
L 172 3053 
L 172 3500 
L 594 3500 
L 594 4494 
L 1172 4494 
z
" transform="scale(0.015625)"/>
      </defs>
      <use xlink:href="#DejaVuSans-67"/>
      <use xlink:href="#DejaVuSans-62" transform="translate(63.476562 0)"/>
      <use xlink:href="#DejaVuSans-74" transform="translate(126.953125 0)"/>
     </g>
    </g>
    <g id="patch_21">
     <path d="M 59.14375 301.942187 
L 79.14375 301.942187 
L 79.14375 294.942187 
L 59.14375 294.942187 
z
" style="fill: url(#h5c36d2b54f); stroke: #7a7a7a; stroke-linejoin: miter"/>
    </g>
    <g id="text_11">
     <!-- kdc -->
     <g transform="translate(87.14375 301.942187) scale(0.1 -0.1)">
      <use xlink:href="#DejaVuSans-6b"/>
      <use xlink:href="#DejaVuSans-64" transform="translate(57.910156 0)"/>
      <use xlink:href="#DejaVuSans-63" transform="translate(121.386719 0)"/>
     </g>
    </g>
    <g id="patch_22">
     <path d="M 59.14375 316.620312 
L 79.14375 316.620312 
L 79.14375 309.620312 
L 59.14375 309.620312 
z
" style="fill: url(#h0577782f04); stroke: #7a7a7a; stroke-linejoin: miter"/>
    </g>
    <g id="text_12">
     <!-- kn -->
     <g transform="translate(87.14375 316.620312) scale(0.1 -0.1)">
      <use xlink:href="#DejaVuSans-6b"/>
      <use xlink:href="#DejaVuSans-6e" transform="translate(57.910156 0)"/>
     </g>
    </g>
   </g>
  </g>
 </g>
 <defs>
  <clipPath id="p3b1d81f446">
   <rect x="50.14375" y="7.2" width="396.25625" height="320.5"/>
  </clipPath>
 </defs>
 <defs>
  <pattern id="h5c36d2b54f" patternUnits="userSpaceOnUse" x="0" y="0" width="72" height="72">
   <rect x="0" y="0" width="73" height="73" fill="#b3e2cd"/>
   <path d="M -36 36 
L 36 -36 
M -32 40 
L 40 -32 
M -28 44 
L 44 -28 
M -24 48 
L 48 -24 
M -20 52 
L 52 -20 
M -16 56 
L 56 -16 
M -12 60 
L 60 -12 
M -8 64 
L 64 -8 
M -4 68 
L 68 -4 
M 0 72 
L 72 0 
M 4 76 
L 76 4 
M 8 80 
L 80 8 
M 12 84 
L 84 12 
M 16 88 
L 88 16 
M 20 92 
L 92 20 
M 24 96 
L 96 24 
M 28 100 
L 100 28 
M 32 104 
L 104 32 
M 36 108 
L 108 36 
" style="fill: #7a7a7a; stroke: #7a7a7a; stroke-width: 1.0; stroke-linecap: butt; stroke-linejoin: miter"/>
  </pattern>
  <pattern id="h0577782f04" patternUnits="userSpaceOnUse" x="0" y="0" width="72" height="72">
   <rect x="0" y="0" width="73" height="73" fill="#fdcdac"/>
   <path d="M -36 36 
L 36 -36 
M -32 40 
L 40 -32 
M -28 44 
L 44 -28 
M -24 48 
L 48 -24 
M -20 52 
L 52 -20 
M -16 56 
L 56 -16 
M -12 60 
L 60 -12 
M -8 64 
L 64 -8 
M -4 68 
L 68 -4 
M 0 72 
L 72 0 
M 4 76 
L 76 4 
M 8 80 
L 80 8 
M 12 84 
L 84 12 
M 16 88 
L 88 16 
M 20 92 
L 92 20 
M 24 96 
L 96 24 
M 28 100 
L 100 28 
M 32 104 
L 104 32 
M 36 108 
L 108 36 
" style="fill: #7a7a7a; stroke: #7a7a7a; stroke-width: 1.0; stroke-linecap: butt; stroke-linejoin: miter"/>
  </pattern>
 </defs>
</svg>
