<?xml version="1.0" encoding="utf-8" standalone="no"?>
<!DOCTYPE svg PUBLIC "-//W3C//DTD SVG 1.1//EN"
  "http://www.w3.org/Graphics/SVG/1.1/DTD/svg11.dtd">
<svg xmlns:xlink="http://www.w3.org/1999/xlink" width="460.8pt" height="345.6pt" viewBox="0 0 460.8 345.6" xmlns="http://www.w3.org/2000/svg" version="1.1">
 <metadata>
  <rdf:RDF xmlns:dc="http://purl.org/dc/elements/1.1/" xmlns:cc="http://creativecommons.org/ns#" xmlns:rdf="http://www.w3.org/1999/02/22-rdf-syntax-ns#">
   <cc:Work>
    <dc:type rdf:resource="http://purl.org/dc/dcmitype/StillImage"/>
    <dc:date>2025-11-23T18:47:11.047633</dc:date>
    <dc:format>image/svg+xml</dc:format>
    <dc:creator>
     <cc:Agent>
      <dc:title>Matplotlib v3.10.7, https://matplotlib.org/</dc:title>
     </cc:Agent>
    </dc:creator>
   </cc:Work>
  </rdf:RDF>
 </metadata>
 <defs>
  <style type="text/css">*{stroke-linejoin: round; stroke-linecap: butt}</style>
 </defs>
 <g id="figure_1">
  <g id="patch_1">
   <path d="M 0 345.6 
L 460.8 345.6 
L 460.8 0 
L 0 0 
z
" style="fill: #ffffff"/>
  </g>
  <g id="axes_1">
   <g id="patch_2">
    <path d="M 39.58149 312.24351 
L 380.134979 312.24351 
L 380.134979 18.118365 
L 39.58149 18.118365 
z
" style="fill: #ffffff"/>
   </g>
   <g id="QuadContourSet_1">
    <path d="M -57.719507 288.171485 
L -45.200157 287.733081 
L -57.719507 285.528454 
L -58.362497 287.733081 
z
M -9.069008 312.24351 
L 39.58149 312.24351 
L 42.055075 312.24351 
L 39.58149 311.235779 
L -9.069008 297.304641 
L -12.820452 312.24351 
z
M -106.370005 263.833482 
L -98.501529 263.222652 
L -106.370005 261.298009 
L -107.737817 263.222652 
z
" clip-path="url(#pbe6161e745)" style="fill: #470d60"/>
    <path d="M -57.719507 293.276434 
L -20.550083 312.24351 
L -12.820452 312.24351 
L -9.069008 297.304641 
L 39.58149 311.235779 
L 42.055075 312.24351 
L 57.787844 312.24351 
L 39.58149 304.087316 
L 4.613731 287.733081 
L -9.069008 281.765228 
L -53.895219 263.222652 
L -57.719507 261.623128 
L -106.370005 245.845051 
L -119.604809 263.222652 
L -106.370005 268.737827 
L -66.233712 287.733081 
z
M -58.362497 287.733081 
L -57.719507 285.528454 
L -45.200157 287.733081 
L -57.719507 288.171485 
z
M -107.737817 263.222652 
L -106.370005 261.298009 
L -98.501529 263.222652 
L -106.370005 263.833482 
z
M -155.020504 245.371305 
L -120.540555 238.712224 
L -155.020504 224.02466 
L -170.819595 238.712224 
z
M -203.671002 221.165364 
L -176.758692 214.201795 
L -203.671002 203.984262 
L -217.17725 214.201795 
z
" clip-path="url(#pbe6161e745)" style="fill: #482173"/>
    <path d="M -57.719507 298.381384 
L -29.058483 312.24351 
L -20.550083 312.24351 
L -57.719507 293.276434 
L -66.233712 287.733081 
L -106.370005 268.737827 
L -119.604809 263.222652 
L -106.370005 245.845051 
L -57.719507 261.623128 
L -53.895219 263.222652 
L -9.069008 281.765228 
L 4.613731 287.733081 
L 39.58149 304.087316 
L 57.787844 312.24351 
L 71.046451 312.24351 
L 39.58149 296.938853 
L 21.696465 287.733081 
L -9.069008 272.821586 
L -29.321933 263.222652 
L -57.719507 249.423171 
L -84.466322 238.712224 
L -106.370005 231.393268 
L -139.705716 214.201795 
L -155.020504 207.621812 
L -192.463009 189.691366 
L -203.671002 185.257994 
L -249.69145 165.180938 
L -252.3215 164.444676 
L -300.971999 144.328166 
L -309.334913 140.670509 
L -349.622497 124.797966 
L -372.184676 116.16008 
L -398.272995 107.048079 
L -443.140238 91.649651 
L -446.923494 90.603351 
L -495.573992 76.258266 
L -495.573992 91.649651 
L -495.573992 93.575141 
L -451.246934 116.16008 
L -446.923494 118.998684 
L -401.130964 140.670509 
L -398.272995 142.565791 
L -351.632059 165.180938 
L -349.622497 166.551729 
L -300.971999 188.123278 
L -297.583041 189.691366 
L -252.3215 213.388347 
L -250.896397 214.201795 
L -203.671002 234.385927 
L -194.309749 238.712224 
L -155.020504 253.23244 
L -133.414591 263.222652 
L -106.370005 273.642172 
L -74.914006 287.733081 
z
M -170.819595 238.712224 
L -155.020504 224.02466 
L -120.540555 238.712224 
L -155.020504 245.371305 
z
M -217.17725 214.201795 
L -203.671002 203.984262 
L -176.758692 214.201795 
L -203.671002 221.165364 
z
" clip-path="url(#pbe6161e745)" style="fill: #453781"/>
    <path d="M -57.719507 303.486333 
L -38.520338 312.24351 
L -29.058483 312.24351 
L -57.719507 298.381384 
L -74.914006 287.733081 
L -106.370005 273.642172 
L -133.414591 263.222652 
L -155.020504 253.23244 
L -194.309749 238.712224 
L -203.671002 234.385927 
L -250.896397 214.201795 
L -252.3215 213.388347 
L -297.583041 189.691366 
L -300.971999 188.123278 
L -349.622497 166.551729 
L -351.632059 165.180938 
L -398.272995 142.565791 
L -401.130964 140.670509 
L -446.923494 118.998684 
L -451.246934 116.16008 
L -495.573992 93.575141 
L -495.573992 100.530387 
L -462.599098 116.16008 
L -446.923494 125.796307 
L -413.018273 140.670509 
L -398.272995 149.79601 
L -363.947145 165.180938 
L -349.622497 174.276335 
L -313.781237 189.691366 
L -300.971999 195.938538 
L -262.492685 214.201795 
L -252.3215 219.117638 
L -209.36022 238.712224 
L -203.671002 241.956428 
L -155.020504 261.093574 
L -149.930239 263.222652 
L -106.370005 278.546517 
L -84.588967 287.733081 
z
M 39.58149 296.938853 
L 71.046451 312.24351 
L 82.504358 312.24351 
L 39.58149 289.790389 
L 35.900112 287.733081 
L -9.069008 263.877943 
L -10.307459 263.222652 
L -54.700836 238.712224 
L -57.719507 237.42072 
L -106.370005 217.799791 
L -112.341321 214.201795 
L -155.020504 192.442269 
L -159.793578 189.691366 
L -203.671002 168.413164 
L -209.586238 165.180938 
L -252.3215 149.8525 
L -269.62119 140.670509 
L -300.971999 129.876385 
L -326.848938 116.16008 
L -349.622497 106.52155 
L -378.097404 91.649651 
L -398.272995 82.898938 
L -429.975106 67.139223 
L -446.923494 60.03947 
L -482.163099 42.628794 
L -495.573992 37.403284 
L -495.573992 42.628794 
L -495.573992 67.139223 
L -495.573992 76.258266 
L -446.923494 90.603351 
L -443.140238 91.649651 
L -398.272995 107.048079 
L -372.184676 116.16008 
L -349.622497 124.797966 
L -309.334913 140.670509 
L -300.971999 144.328166 
L -252.3215 164.444676 
L -249.69145 165.180938 
L -203.671002 185.257994 
L -192.463009 189.691366 
L -155.020504 207.621812 
L -139.705716 214.201795 
L -106.370005 231.393268 
L -84.466322 238.712224 
L -57.719507 249.423171 
L -29.321933 263.222652 
L -9.069008 272.821586 
L 21.696465 287.733081 
z
" clip-path="url(#pbe6161e745)" style="fill: #3e4989"/>
    <path d="M -57.719507 308.591283 
L -49.176625 312.24351 
L -38.520338 312.24351 
L -57.719507 303.486333 
L -84.588967 287.733081 
L -106.370005 278.546517 
L -149.930239 263.222652 
L -155.020504 261.093574 
L -203.671002 241.956428 
L -209.36022 238.712224 
L -252.3215 219.117638 
L -262.492685 214.201795 
L -300.971999 195.938538 
L -313.781237 189.691366 
L -349.622497 174.276335 
L -363.947145 165.180938 
L -398.272995 149.79601 
L -413.018273 140.670509 
L -446.923494 125.796307 
L -462.599098 116.16008 
L -495.573992 100.530387 
L -495.573992 107.485633 
L -475.716247 116.16008 
L -446.923494 132.593929 
L -426.855595 140.670509 
L -398.272995 157.02623 
L -378.367918 165.180938 
L -349.622497 182.00094 
L -329.855133 189.691366 
L -300.971999 202.550179 
L -274.496323 214.201795 
L -252.3215 224.207048 
L -218.594479 238.712224 
L -203.671002 246.778659 
L -161.801311 263.222652 
L -155.020504 266.21486 
L -106.370005 283.450862 
L -95.516411 287.733081 
z
M 39.58149 289.790389 
L 82.504358 312.24351 
L 88.231988 312.24351 
L 95.639941 312.24351 
L 88.231988 308.523087 
L 53.044854 287.733081 
L 39.58149 281.107799 
L 10.001267 263.222652 
L -9.069008 253.824471 
L -33.344932 238.712224 
L -57.719507 226.839002 
L -84.418688 214.201795 
L -106.370005 203.71036 
L -129.422268 189.691366 
L -155.020504 177.472786 
L -176.118527 165.180938 
L -203.671002 155.419941 
L -238.242398 140.670509 
L -252.3215 134.824806 
L -300.971999 117.303617 
L -302.851114 116.16008 
L -349.622497 93.122668 
L -352.051453 91.649651 
L -398.272995 68.025783 
L -399.773326 67.139223 
L -446.923494 43.256323 
L -447.968528 42.628794 
L -495.573992 19.643171 
L -495.573992 37.403284 
L -482.163099 42.628794 
L -446.923494 60.03947 
L -429.975106 67.139223 
L -398.272995 82.898938 
L -378.097404 91.649651 
L -349.622497 106.52155 
L -326.848938 116.16008 
L -300.971999 129.876385 
L -269.62119 140.670509 
L -252.3215 149.8525 
L -209.586238 165.180938 
L -203.671002 168.413164 
L -159.793578 189.691366 
L -155.020504 192.442269 
L -112.341321 214.201795 
L -106.370005 217.799791 
L -57.719507 237.42072 
L -54.700836 238.712224 
L -10.307459 263.222652 
L -9.069008 263.877943 
L 35.900112 287.733081 
z
" clip-path="url(#pbe6161e745)" style="fill: #375a8c"/>
    <path d="M -106.370005 288.352007 
L -59.775854 312.24351 
L -57.719507 312.24351 
L -49.176625 312.24351 
L -57.719507 308.591283 
L -95.516411 287.733081 
L -106.370005 283.450862 
L -155.020504 266.21486 
L -161.801311 263.222652 
L -203.671002 246.778659 
L -218.594479 238.712224 
L -252.3215 224.207048 
L -274.496323 214.201795 
L -300.971999 202.550179 
L -329.855133 189.691366 
L -349.622497 182.00094 
L -378.367918 165.180938 
L -398.272995 157.02623 
L -426.855595 140.670509 
L -446.923494 132.593929 
L -475.716247 116.16008 
L -495.573992 107.485633 
L -495.573992 114.440879 
L -491.250071 116.16008 
L -446.923494 139.391552 
L -443.410685 140.670509 
L -398.272995 164.256449 
L -395.766043 165.180938 
L -349.671043 189.691366 
L -349.622497 189.716776 
L -300.971999 209.16182 
L -288.491617 214.201795 
L -252.3215 229.296458 
L -228.962879 238.712224 
L -203.671002 251.60089 
L -172.085013 263.222652 
L -155.020504 270.318475 
L -107.45044 287.733081 
z
M 88.231988 308.523087 
L 95.639941 312.24351 
L 110.183039 312.24351 
L 88.231988 300.19879 
L 68.929076 287.733081 
L 39.58149 271.805276 
L 26.666238 263.222652 
L -9.069008 243.683253 
L -16.311489 238.712224 
L -57.719507 216.257283 
L -61.527661 214.201795 
L -105.925432 189.691366 
L -106.370005 189.492612 
L -150.144923 165.180938 
L -155.020504 162.945435 
L -203.671002 143.341257 
L -208.971542 140.670509 
L -252.3215 119.057968 
L -258.78314 116.16008 
L -300.971999 94.638897 
L -305.696958 91.649651 
L -349.622497 69.421841 
L -352.964371 67.139223 
L -398.272995 50.881858 
L -411.521734 42.628794 
L -446.923494 29.919832 
L -467.530332 18.118365 
L -495.573992 18.118365 
L -495.573992 19.643171 
L -447.968528 42.628794 
L -446.923494 43.256323 
L -399.773326 67.139223 
L -398.272995 68.025783 
L -352.051453 91.649651 
L -349.622497 93.122668 
L -302.851114 116.16008 
L -300.971999 117.303617 
L -252.3215 134.824806 
L -238.242398 140.670509 
L -203.671002 155.419941 
L -176.118527 165.180938 
L -155.020504 177.472786 
L -129.422268 189.691366 
L -106.370005 203.71036 
L -84.418688 214.201795 
L -57.719507 226.839002 
L -33.344932 238.712224 
L -9.069008 253.824471 
L 10.001267 263.222652 
L 39.58149 281.107799 
L 53.044854 287.733081 
z
" clip-path="url(#pbe6161e745)" style="fill: #2f6b8e"/>
    <path d="M -106.370005 293.231131 
L -67.426689 312.24351 
L -59.775854 312.24351 
L -106.370005 288.352007 
L -107.45044 287.733081 
L -155.020504 270.318475 
L -172.085013 263.222652 
L -203.671002 251.60089 
L -228.962879 238.712224 
L -252.3215 229.296458 
L -288.491617 214.201795 
L -300.971999 209.16182 
L -349.622497 189.716776 
L -349.671043 189.691366 
L -395.766043 165.180938 
L -398.272995 164.256449 
L -443.410685 140.670509 
L -446.923494 139.391552 
L -491.250071 116.16008 
L -495.573992 114.440879 
L -495.573992 116.16008 
L -495.573992 124.636656 
L -461.550009 140.670509 
L -446.923494 148.306885 
L -411.331639 165.180938 
L -398.272995 171.778575 
L -361.426638 189.691366 
L -349.622497 195.459408 
L -303.521205 214.201795 
L -300.971999 215.566487 
L -252.3215 234.385869 
L -240.783532 238.712224 
L -203.671002 256.423121 
L -183.795667 263.222652 
L -155.020504 274.42209 
L -116.488946 287.733081 
z
M 88.231988 300.19879 
L 110.183039 312.24351 
L 122.587164 312.24351 
L 88.231988 291.874492 
L 82.294992 287.733081 
L 41.033529 263.222652 
L 39.58149 262.552793 
L 0.626586 238.712224 
L -9.069008 233.825902 
L -40.928668 214.201795 
L -57.719507 205.844641 
L -83.707949 189.691366 
L -106.370005 178.102088 
L -126.813264 165.180938 
L -155.020504 150.266387 
L -175.552992 140.670509 
L -203.671002 124.790519 
L -217.353128 116.16008 
L -252.3215 93.939977 
L -255.63431 91.649651 
L -300.971999 73.354295 
L -310.60901 67.139223 
L -349.622497 45.391065 
L -356.592603 42.628794 
L -394.031595 18.118365 
L -398.272995 18.118365 
L -446.923494 18.118365 
L -467.530332 18.118365 
L -446.923494 29.919832 
L -411.521734 42.628794 
L -398.272995 50.881858 
L -352.964371 67.139223 
L -349.622497 69.421841 
L -305.696958 91.649651 
L -300.971999 94.638897 
L -258.78314 116.16008 
L -252.3215 119.057968 
L -208.971542 140.670509 
L -203.671002 143.341257 
L -155.020504 162.945435 
L -150.144923 165.180938 
L -106.370005 189.492612 
L -105.925432 189.691366 
L -61.527661 214.201795 
L -57.719507 216.257283 
L -16.311489 238.712224 
L -9.069008 243.683253 
L 26.666238 263.222652 
L 39.58149 271.805276 
L 68.929076 287.733081 
z
" clip-path="url(#pbe6161e745)" style="fill: #297a8e"/>
    <path d="M -106.370005 298.110255 
L -75.8397 312.24351 
L -67.426689 312.24351 
L -106.370005 293.231131 
L -116.488946 287.733081 
L -155.020504 274.42209 
L -183.795667 263.222652 
L -203.671002 256.423121 
L -240.783532 238.712224 
L -252.3215 234.385869 
L -300.971999 215.566487 
L -303.521205 214.201795 
L -349.622497 195.459408 
L -361.426638 189.691366 
L -398.272995 171.778575 
L -411.331639 165.180938 
L -446.923494 148.306885 
L -461.550009 140.670509 
L -495.573992 124.636656 
L -495.573992 135.896427 
L -483.93945 140.670509 
L -446.923494 157.712999 
L -429.306413 165.180938 
L -398.272995 179.343498 
L -375.085709 189.691366 
L -349.622497 201.202039 
L -315.176475 214.201795 
L -300.971999 221.307434 
L -254.082764 238.712224 
L -252.3215 239.795225 
L -203.671002 261.245353 
L -197.394068 263.222652 
L -155.020504 278.525705 
L -126.611138 287.733081 
z
M 88.231988 291.874492 
L 122.587164 312.24351 
L 133.401581 312.24351 
L 96.634619 287.733081 
L 88.231988 283.487047 
L 57.847319 263.222652 
L 39.58149 253.896875 
L 16.917853 238.712224 
L -9.069008 224.241482 
L -23.872406 214.201795 
L -57.719507 195.47276 
L -66.131985 189.691366 
L -106.370005 166.711564 
L -108.548903 165.180938 
L -148.198886 140.670509 
L -155.020504 137.5327 
L -188.191986 116.16008 
L -203.671002 108.681585 
L -228.873647 91.649651 
L -252.3215 79.894501 
L -277.348181 67.139223 
L -300.971999 54.320397 
L -318.151724 42.628794 
L -349.622497 23.569278 
L -356.901608 18.118365 
L -394.031595 18.118365 
L -356.592603 42.628794 
L -349.622497 45.391065 
L -310.60901 67.139223 
L -300.971999 73.354295 
L -255.63431 91.649651 
L -252.3215 93.939977 
L -217.353128 116.16008 
L -203.671002 124.790519 
L -175.552992 140.670509 
L -155.020504 150.266387 
L -126.813264 165.180938 
L -106.370005 178.102088 
L -83.707949 189.691366 
L -57.719507 205.844641 
L -40.928668 214.201795 
L -9.069008 233.825902 
L 0.626586 238.712224 
L 39.58149 262.552793 
L 41.033529 263.222652 
L 82.294992 287.733081 
z
" clip-path="url(#pbe6161e745)" style="fill: #23898e"/>
    <path d="M -106.370005 302.989379 
L -85.183715 312.24351 
L -75.8397 312.24351 
L -106.370005 298.110255 
L -126.611138 287.733081 
L -155.020504 278.525705 
L -197.394068 263.222652 
L -203.671002 261.245353 
L -252.3215 239.795225 
L -254.082764 238.712224 
L -300.971999 221.307434 
L -315.176475 214.201795 
L -349.622497 201.202039 
L -375.085709 189.691366 
L -398.272995 179.343498 
L -429.306413 165.180938 
L -446.923494 157.712999 
L -483.93945 140.670509 
L -495.573992 135.896427 
L -495.573992 140.670509 
L -495.573992 145.825291 
L -450.203732 165.180938 
L -446.923494 167.543834 
L -398.272995 186.908421 
L -391.386059 189.691366 
L -349.622497 206.94467 
L -328.700215 214.201795 
L -300.971999 227.048381 
L -266.874228 238.712224 
L -252.3215 247.018606 
L -211.746928 263.222652 
L -203.671002 267.343478 
L -155.020504 282.629319 
L -138.112731 287.733081 
z
M 136.882487 312.24351 
L 147.889232 312.24351 
L 136.882487 306.728792 
L 111.2183 287.733081 
L 88.231988 275.037078 
L 71.864732 263.222652 
L 39.58149 245.240957 
L 30.570552 238.712224 
L -9.069008 214.657062 
L -9.687045 214.201795 
L -46.777744 189.691366 
L -57.719507 184.337514 
L -85.833377 165.180938 
L -106.370005 153.858165 
L -124.806298 140.670509 
L -155.020504 124.628956 
L -166.657601 116.16008 
L -203.671002 95.713645 
L -209.037669 91.649651 
L -252.079304 67.139223 
L -252.3215 67.027577 
L -288.229286 42.628794 
L -300.971999 36.325748 
L -325.771142 18.118365 
L -349.622497 18.118365 
L -356.901608 18.118365 
L -349.622497 23.569278 
L -318.151724 42.628794 
L -300.971999 54.320397 
L -277.348181 67.139223 
L -252.3215 79.894501 
L -228.873647 91.649651 
L -203.671002 108.681585 
L -188.191986 116.16008 
L -155.020504 137.5327 
L -148.198886 140.670509 
L -108.548903 165.180938 
L -106.370005 166.711564 
L -66.131985 189.691366 
L -57.719507 195.47276 
L -23.872406 214.201795 
L -9.069008 224.241482 
L 16.917853 238.712224 
L 39.58149 253.896875 
L 57.847319 263.222652 
L 88.231988 283.487047 
L 96.634619 287.733081 
L 133.401581 312.24351 
z
" clip-path="url(#pbe6161e745)" style="fill: #1f988b"/>
    <path d="M -106.370005 307.868502 
L -95.690727 312.24351 
L -85.183715 312.24351 
L -106.370005 302.989379 
L -138.112731 287.733081 
L -155.020504 282.629319 
L -203.671002 267.343478 
L -211.746928 263.222652 
L -252.3215 247.018606 
L -266.874228 238.712224 
L -300.971999 227.048381 
L -328.700215 214.201795 
L -349.622497 206.94467 
L -391.386059 189.691366 
L -398.272995 186.908421 
L -446.923494 167.543834 
L -450.203732 165.180938 
L -495.573992 145.825291 
L -495.573992 154.77448 
L -468.228374 165.180938 
L -446.923494 179.011151 
L -414.730967 189.691366 
L -398.272995 198.269942 
L -349.622497 212.687302 
L -344.808032 214.201795 
L -300.971999 232.789328 
L -281.953045 238.712224 
L -252.3215 254.241986 
L -227.490631 263.222652 
L -203.671002 274.328381 
L -155.020504 286.732934 
L -151.429899 287.733081 
z
M 136.882487 306.728792 
L 147.889232 312.24351 
L 162.440308 312.24351 
L 136.882487 298.243715 
L 123.651916 287.733081 
L 88.231988 266.58711 
L 83.884628 263.222652 
L 46.184085 238.712224 
L 39.58149 235.445791 
L 12.492616 214.201795 
L -9.069008 202.540403 
L -26.286692 189.691366 
L -57.719507 172.240865 
L -67.027708 165.180938 
L -106.370005 140.777673 
L -106.504713 140.670509 
L -143.040134 116.16008 
L -155.020504 109.912506 
L -180.466152 91.649651 
L -203.671002 79.310193 
L -220.038583 67.139223 
L -252.3215 49.042127 
L -260.383753 42.628794 
L -300.971999 18.751339 
L -301.722482 18.118365 
L -325.771142 18.118365 
L -300.971999 36.325748 
L -288.229286 42.628794 
L -252.3215 67.027577 
L -252.079304 67.139223 
L -209.037669 91.649651 
L -203.671002 95.713645 
L -166.657601 116.16008 
L -155.020504 124.628956 
L -124.806298 140.670509 
L -106.370005 153.858165 
L -85.833377 165.180938 
L -57.719507 184.337514 
L -46.777744 189.691366 
L -9.687045 214.201795 
L -9.069008 214.657062 
L 30.570552 238.712224 
L 39.58149 245.240957 
L 71.864732 263.222652 
L 88.231988 275.037078 
L 111.2183 287.733081 
z
" clip-path="url(#pbe6161e745)" style="fill: #21a685"/>
    <path d="M -155.020504 299.337699 
L -110.516797 312.24351 
L -106.370005 312.24351 
L -95.690727 312.24351 
L -106.370005 307.868502 
L -151.429899 287.733081 
L -155.020504 286.732934 
L -203.671002 274.328381 
L -227.490631 263.222652 
L -252.3215 254.241986 
L -281.953045 238.712224 
L -300.971999 232.789328 
L -344.808032 214.201795 
L -349.622497 212.687302 
L -398.272995 198.269942 
L -414.730967 189.691366 
L -446.923494 179.011151 
L -468.228374 165.180938 
L -495.573992 154.77448 
L -495.573992 163.72367 
L -491.169344 165.180938 
L -449.401319 189.691366 
L -446.923494 191.456559 
L -398.272995 211.840953 
L -386.553487 214.201795 
L -349.622497 224.944376 
L -300.971999 238.530276 
L -300.319312 238.712224 
L -252.3215 261.465367 
L -246.854326 263.222652 
L -203.671002 281.313285 
L -173.622285 287.733081 
z
M 136.882487 298.243715 
L 162.440308 312.24351 
L 174.850232 312.24351 
L 136.882487 289.758638 
L 134.488734 287.733081 
L 104.020901 263.222652 
L 88.231988 254.595601 
L 68.733901 238.712224 
L 39.58149 222.154053 
L 30.427521 214.201795 
L -9.069008 190.297462 
L -9.807003 189.691366 
L -42.652908 165.180938 
L -57.719507 156.916125 
L -76.353863 140.670509 
L -106.370005 123.362017 
L -115.541043 116.16008 
L -155.020504 91.734488 
L -155.122633 91.649651 
L -188.681486 67.139223 
L -203.671002 58.606444 
L -223.805339 42.628794 
L -252.3215 25.439849 
L -260.933687 18.118365 
L -300.971999 18.118365 
L -301.722482 18.118365 
L -300.971999 18.751339 
L -260.383753 42.628794 
L -252.3215 49.042127 
L -220.038583 67.139223 
L -203.671002 79.310193 
L -180.466152 91.649651 
L -155.020504 109.912506 
L -143.040134 116.16008 
L -106.504713 140.670509 
L -106.370005 140.777673 
L -67.027708 165.180938 
L -57.719507 172.240865 
L -26.286692 189.691366 
L -9.069008 202.540403 
L 12.492616 214.201795 
L 39.58149 235.445791 
L 46.184085 238.712224 
L 83.884628 263.222652 
L 88.231988 266.58711 
L 123.651916 287.733081 
z
" clip-path="url(#pbe6161e745)" style="fill: #32b67a"/>
    <path d="M -252.3215 295.068826 
L -203.671002 290.630148 
L -163.104396 312.24351 
L -155.020504 312.24351 
L -110.516797 312.24351 
L -155.020504 299.337699 
L -173.622285 287.733081 
L -203.671002 281.313285 
L -246.854326 263.222652 
L -252.3215 261.465367 
L -300.319312 238.712224 
L -300.971999 238.530276 
L -349.622497 224.944376 
L -386.553487 214.201795 
L -398.272995 211.840953 
L -446.923494 191.456559 
L -449.401319 189.691366 
L -491.169344 165.180938 
L -495.573992 163.72367 
L -495.573992 165.180938 
L -495.573992 189.691366 
L -495.573992 214.201795 
L -495.573992 220.926228 
L -446.923494 221.257938 
L -412.67533 238.712224 
L -398.272995 243.833011 
L -360.433156 263.222652 
L -349.622497 270.558397 
L -300.971999 267.161327 
L -263.132159 287.733081 
z
M 136.882487 289.758638 
L 174.850232 312.24351 
L 185.532985 312.24351 
L 185.950281 312.24351 
L 185.532985 312.006701 
L 157.592945 287.733081 
L 136.882487 274.773094 
L 125.091423 263.222652 
L 88.231988 240.261089 
L 86.516737 238.712224 
L 55.616995 214.201795 
L 39.58149 204.059033 
L 24.453105 189.691366 
L -9.069008 170.190366 
L -14.690652 165.180938 
L -47.239423 140.670509 
L -57.719507 135.005172 
L -78.922462 116.16008 
L -106.370005 99.62073 
L -114.984312 91.649651 
L -152.810059 67.139223 
L -155.020504 66.013568 
L -180.663677 42.628794 
L -203.671002 28.492869 
L -214.960035 18.118365 
L -252.3215 18.118365 
L -260.933687 18.118365 
L -252.3215 25.439849 
L -223.805339 42.628794 
L -203.671002 58.606444 
L -188.681486 67.139223 
L -155.122633 91.649651 
L -155.020504 91.734488 
L -115.541043 116.16008 
L -106.370005 123.362017 
L -76.353863 140.670509 
L -57.719507 156.916125 
L -42.652908 165.180938 
L -9.807003 189.691366 
L -9.069008 190.297462 
L 30.427521 214.201795 
L 39.58149 222.154053 
L 68.733901 238.712224 
L 88.231988 254.595601 
L 104.020901 263.222652 
L 134.488734 287.733081 
z
" clip-path="url(#pbe6161e745)" style="fill: #4ec36b"/>
    <path d="M -446.923494 312.24351 
L -398.272995 312.24351 
L -349.622497 312.24351 
L -300.971999 312.24351 
L -252.3215 312.24351 
L -203.671002 312.24351 
L -163.104396 312.24351 
L -203.671002 290.630148 
L -252.3215 295.068826 
L -263.132159 287.733081 
L -300.971999 267.161327 
L -349.622497 270.558397 
L -360.433156 263.222652 
L -398.272995 243.833011 
L -412.67533 238.712224 
L -446.923494 221.257938 
L -495.573992 220.926228 
L -495.573992 238.712224 
L -495.573992 263.222652 
L -495.573992 287.733081 
L -495.573992 312.24351 
z
M 185.532985 312.006701 
L 185.950281 312.24351 
L 212.425467 312.24351 
L 185.532985 294.319345 
L 178.81778 287.733081 
L 151.040153 263.222652 
L 136.882487 255.049206 
L 119.771821 238.712224 
L 88.231988 216.554174 
L 85.858334 214.201795 
L 59.894028 189.691366 
L 39.58149 175.917213 
L 27.358034 165.180938 
L -2.015289 140.670509 
L -9.069008 136.247381 
L -32.855623 116.16008 
L -57.719507 98.077262 
L -64.019589 91.649651 
L -91.920726 67.139223 
L -106.370005 57.491999 
L -123.705112 42.628794 
L -148.673343 18.118365 
L -155.020504 18.118365 
L -203.671002 18.118365 
L -214.960035 18.118365 
L -203.671002 28.492869 
L -180.663677 42.628794 
L -155.020504 66.013568 
L -152.810059 67.139223 
L -114.984312 91.649651 
L -106.370005 99.62073 
L -78.922462 116.16008 
L -57.719507 135.005172 
L -47.239423 140.670509 
L -14.690652 165.180938 
L -9.069008 170.190366 
L 24.453105 189.691366 
L 39.58149 204.059033 
L 55.616995 214.201795 
L 86.516737 238.712224 
L 88.231988 240.261089 
L 125.091423 263.222652 
L 136.882487 274.773094 
L 157.592945 287.733081 
z
M 526.086474 303.862329 
L 532.773314 312.24351 
L 574.736972 312.24351 
L 623.387471 312.24351 
L 672.037969 312.24351 
L 720.688467 312.24351 
L 769.338966 312.24351 
L 817.989464 312.24351 
L 866.639962 312.24351 
L 915.290461 312.24351 
L 963.940959 312.24351 
L 1012.591457 312.24351 
L 1061.241956 312.24351 
L 1109.892454 312.24351 
L 1158.542953 312.24351 
L 1207.193451 312.24351 
L 1255.843949 312.24351 
L 1304.494448 312.24351 
L 1353.144946 312.24351 
L 1401.795445 312.24351 
L 1450.445943 312.24351 
L 1499.096441 312.24351 
L 1547.74694 312.24351 
L 1596.397438 312.24351 
L 1645.047936 312.24351 
L 1645.047936 287.733081 
L 1645.047936 263.222652 
L 1645.047936 238.712224 
L 1645.047936 214.201795 
L 1645.047936 189.691366 
L 1645.047936 165.180938 
L 1645.047936 140.670509 
L 1645.047936 116.16008 
L 1645.047936 91.649651 
L 1645.047936 67.139223 
L 1645.047936 42.628794 
L 1645.047936 18.118365 
L 1596.397438 18.118365 
L 1547.74694 18.118365 
L 1499.096441 18.118365 
L 1450.445943 18.118365 
L 1401.795445 18.118365 
L 1353.144946 18.118365 
L 1304.494448 18.118365 
L 1255.843949 18.118365 
L 1207.193451 18.118365 
L 1158.542953 18.118365 
L 1109.892454 18.118365 
L 1061.241956 18.118365 
L 1012.591457 18.118365 
L 963.940959 18.118365 
L 915.290461 18.118365 
L 866.639962 18.118365 
L 817.989464 18.118365 
L 769.338966 18.118365 
L 720.688467 18.118365 
L 672.037969 18.118365 
L 623.387471 18.118365 
L 574.736972 18.118365 
L 526.086474 18.118365 
L 477.435975 18.118365 
L 428.785477 18.118365 
L 380.134979 18.118365 
L 367.337822 18.118365 
L 374.123766 42.628794 
L 380.134979 65.704516 
L 380.898738 67.139223 
L 394.753706 91.649651 
L 407.025957 116.16008 
L 417.913771 140.670509 
L 427.452907 165.180938 
L 428.785477 168.196648 
L 448.735162 189.691366 
L 465.641033 214.201795 
L 477.435975 237.158611 
L 479.4425 238.712224 
L 506.955161 263.222652 
L 521.65177 287.733081 
z
" clip-path="url(#pbe6161e745)" style="fill: #70cf57"/>
    <path d="M 185.532985 294.319345 
L 212.425467 312.24351 
L 232.555408 312.24351 
L 212.752979 287.733081 
L 185.532985 265.051854 
L 184.157367 263.222652 
L 159.387766 238.712224 
L 136.882487 218.734107 
L 133.78636 214.201795 
L 107.599623 189.691366 
L 88.231988 174.522786 
L 82.330918 165.180938 
L 55.911658 140.670509 
L 39.58149 129.964058 
L 30.482424 116.16008 
L 0.942403 91.649651 
L -9.069008 85.912583 
L -21.478502 67.139223 
L -57.719507 43.05981 
L -58.074339 42.628794 
L -74.49331 18.118365 
L -106.370005 18.118365 
L -148.673343 18.118365 
L -123.705112 42.628794 
L -106.370005 57.491999 
L -91.920726 67.139223 
L -64.019589 91.649651 
L -57.719507 98.077262 
L -32.855623 116.16008 
L -9.069008 136.247381 
L -2.015289 140.670509 
L 27.358034 165.180938 
L 39.58149 175.917213 
L 59.894028 189.691366 
L 85.858334 214.201795 
L 88.231988 216.554174 
L 119.771821 238.712224 
L 136.882487 255.049206 
L 151.040153 263.222652 
L 178.81778 287.733081 
z
M 477.435975 312.24351 
L 526.086474 312.24351 
L 532.773314 312.24351 
L 526.086474 303.862329 
L 521.65177 287.733081 
L 506.955161 263.222652 
L 479.4425 238.712224 
L 477.435975 237.158611 
L 465.641033 214.201795 
L 448.735162 189.691366 
L 428.785477 168.196648 
L 427.452907 165.180938 
L 417.913771 140.670509 
L 407.025957 116.16008 
L 394.753706 91.649651 
L 380.898738 67.139223 
L 380.134979 65.704516 
L 374.123766 42.628794 
L 367.337822 18.118365 
L 331.48448 18.118365 
L 282.833982 18.118365 
L 234.183484 18.118365 
L 209.756976 18.118365 
L 227.924314 42.628794 
L 234.183484 51.442639 
L 250.636539 67.139223 
L 271.311544 91.649651 
L 282.833982 106.998696 
L 293.12326 116.16008 
L 316.2983 140.670509 
L 331.48448 159.829361 
L 337.808396 165.180938 
L 362.324827 189.691366 
L 380.134979 211.715526 
L 383.194258 214.201795 
L 407.488086 238.712224 
L 425.696454 263.222652 
L 428.785477 269.035711 
L 444.013132 287.733081 
L 451.522173 312.24351 
z
" clip-path="url(#pbe6161e745)" style="fill: #98d83e"/>
    <path d="M 234.183484 312.24351 
L 282.833982 312.24351 
L 284.323091 312.24351 
L 282.833982 311.445767 
L 273.356047 287.733081 
L 254.683553 263.222652 
L 234.183484 247.996095 
L 230.72703 238.712224 
L 221.779165 214.201795 
L 208.826085 189.691366 
L 185.532985 170.160214 
L 184.416601 165.180938 
L 185.532985 152.546403 
L 201.868735 165.180938 
L 234.183484 172.961702 
L 251.598059 189.691366 
L 282.833982 211.120715 
L 286.190616 214.201795 
L 308.917739 238.712224 
L 331.48448 258.2211 
L 336.057922 263.222652 
L 353.309472 287.733081 
L 366.171465 312.24351 
L 380.134979 312.24351 
L 428.785477 312.24351 
L 451.522173 312.24351 
L 444.013132 287.733081 
L 428.785477 269.035711 
L 425.696454 263.222652 
L 407.488086 238.712224 
L 383.194258 214.201795 
L 380.134979 211.715526 
L 362.324827 189.691366 
L 337.808396 165.180938 
L 331.48448 159.829361 
L 316.2983 140.670509 
L 293.12326 116.16008 
L 282.833982 106.998696 
L 271.311544 91.649651 
L 250.636539 67.139223 
L 234.183484 51.442639 
L 227.924314 42.628794 
L 209.756976 18.118365 
L 185.532985 18.118365 
L 136.882487 18.118365 
L 88.231988 18.118365 
L 39.58149 18.118365 
L -9.069008 18.118365 
L -57.719507 18.118365 
L -74.49331 18.118365 
L -58.074339 42.628794 
L -57.719507 43.05981 
L -21.478502 67.139223 
L -9.069008 85.912583 
L 0.942403 91.649651 
L 30.482424 116.16008 
L 39.58149 129.964058 
L 55.911658 140.670509 
L 82.330918 165.180938 
L 88.231988 174.522786 
L 107.599623 189.691366 
L 133.78636 214.201795 
L 136.882487 218.734107 
L 159.387766 238.712224 
L 184.157367 263.222652 
L 185.532985 265.051854 
L 212.752979 287.733081 
L 232.555408 312.24351 
z
" clip-path="url(#pbe6161e745)" style="fill: #c2df23"/>
    <path d="M 282.833982 311.445767 
L 284.323091 312.24351 
L 331.48448 312.24351 
L 366.171465 312.24351 
L 353.309472 287.733081 
L 336.057922 263.222652 
L 331.48448 258.2211 
L 308.917739 238.712224 
L 286.190616 214.201795 
L 282.833982 211.120715 
L 251.598059 189.691366 
L 234.183484 172.961702 
L 201.868735 165.180938 
L 185.532985 152.546403 
L 184.416601 165.180938 
L 185.532985 170.160214 
L 208.826085 189.691366 
L 221.779165 214.201795 
L 230.72703 238.712224 
L 234.183484 247.996095 
L 254.683553 263.222652 
L 273.356047 287.733081 
z
" clip-path="url(#pbe6161e745)" style="fill: #ece51b"/>
   </g>
   <g id="PathCollection_1">
    <defs>
     <path id="m3cf7054eef" d="M -3 3 
L 3 -3 
M -3 -3 
L 3 3 
" style="stroke: #ff0000; stroke-width: 1.5"/>
    </defs>
    <g clip-path="url(#pbe6161e745)">
     <use xlink:href="#m3cf7054eef" x="331.48448" y="312.24351" style="fill: #ff0000; stroke: #ff0000; stroke-width: 1.5"/>
     <use xlink:href="#m3cf7054eef" x="331.48448" y="287.733081" style="fill: #ff0000; stroke: #ff0000; stroke-width: 1.5"/>
     <use xlink:href="#m3cf7054eef" x="282.833982" y="263.222652" style="fill: #ff0000; stroke: #ff0000; stroke-width: 1.5"/>
     <use xlink:href="#m3cf7054eef" x="282.833982" y="238.712224" style="fill: #ff0000; stroke: #ff0000; stroke-width: 1.5"/>
     <use xlink:href="#m3cf7054eef" x="234.183484" y="214.201795" style="fill: #ff0000; stroke: #ff0000; stroke-width: 1.5"/>
     <use xlink:href="#m3cf7054eef" x="234.183484" y="189.691366" style="fill: #ff0000; stroke: #ff0000; stroke-width: 1.5"/>
     <use xlink:href="#m3cf7054eef" x="185.532985" y="165.180938" style="fill: #ff0000; stroke: #ff0000; stroke-width: 1.5"/>
     <use xlink:href="#m3cf7054eef" x="185.532985" y="140.670509" style="fill: #ff0000; stroke: #ff0000; stroke-width: 1.5"/>
     <use xlink:href="#m3cf7054eef" x="136.882487" y="116.16008" style="fill: #ff0000; stroke: #ff0000; stroke-width: 1.5"/>
     <use xlink:href="#m3cf7054eef" x="136.882487" y="91.649651" style="fill: #ff0000; stroke: #ff0000; stroke-width: 1.5"/>
     <use xlink:href="#m3cf7054eef" x="136.882487" y="67.139223" style="fill: #ff0000; stroke: #ff0000; stroke-width: 1.5"/>
     <use xlink:href="#m3cf7054eef" x="88.231988" y="42.628794" style="fill: #ff0000; stroke: #ff0000; stroke-width: 1.5"/>
     <use xlink:href="#m3cf7054eef" x="88.231988" y="18.118365" style="fill: #ff0000; stroke: #ff0000; stroke-width: 1.5"/>
    </g>
   </g>
   <g id="matplotlib.axis_1">
    <g id="xtick_1">
     <g id="line2d_1">
      <defs>
       <path id="mb3f22ba32d" d="M 0 0 
L 0 3.5 
" style="stroke: #000000; stroke-width: 0.8"/>
      </defs>
      <g>
       <use xlink:href="#mb3f22ba32d" x="88.231988" y="312.24351" style="stroke: #000000; stroke-width: 0.8"/>
      </g>
     </g>
     <g id="text_1">
      <!-- $\mathdefault{10^{-2}}$ -->
      <g transform="translate(76.481988 326.841947) scale(0.1 -0.1)">
       <defs>
        <path id="DejaVuSans-31" d="M 794 531 
L 1825 531 
L 1825 4091 
L 703 3866 
L 703 4441 
L 1819 4666 
L 2450 4666 
L 2450 531 
L 3481 531 
L 3481 0 
L 794 0 
L 794 531 
z
" transform="scale(0.015625)"/>
        <path id="DejaVuSans-30" d="M 2034 4250 
Q 1547 4250 1301 3770 
Q 1056 3291 1056 2328 
Q 1056 1369 1301 889 
Q 1547 409 2034 409 
Q 2525 409 2770 889 
Q 3016 1369 3016 2328 
Q 3016 3291 2770 3770 
Q 2525 4250 2034 4250 
z
M 2034 4750 
Q 2819 4750 3233 4129 
Q 3647 3509 3647 2328 
Q 3647 1150 3233 529 
Q 2819 -91 2034 -91 
Q 1250 -91 836 529 
Q 422 1150 422 2328 
Q 422 3509 836 4129 
Q 1250 4750 2034 4750 
z
" transform="scale(0.015625)"/>
        <path id="DejaVuSans-2212" d="M 678 2272 
L 4684 2272 
L 4684 1741 
L 678 1741 
L 678 2272 
z
" transform="scale(0.015625)"/>
        <path id="DejaVuSans-32" d="M 1228 531 
L 3431 531 
L 3431 0 
L 469 0 
L 469 531 
Q 828 903 1448 1529 
Q 2069 2156 2228 2338 
Q 2531 2678 2651 2914 
Q 2772 3150 2772 3378 
Q 2772 3750 2511 3984 
Q 2250 4219 1831 4219 
Q 1534 4219 1204 4116 
Q 875 4013 500 3803 
L 500 4441 
Q 881 4594 1212 4672 
Q 1544 4750 1819 4750 
Q 2544 4750 2975 4387 
Q 3406 4025 3406 3419 
Q 3406 3131 3298 2873 
Q 3191 2616 2906 2266 
Q 2828 2175 2409 1742 
Q 1991 1309 1228 531 
z
" transform="scale(0.015625)"/>
       </defs>
       <use xlink:href="#DejaVuSans-31" transform="translate(0 0.765625)"/>
       <use xlink:href="#DejaVuSans-30" transform="translate(63.623047 0.765625)"/>
       <use xlink:href="#DejaVuSans-2212" transform="translate(128.203125 39.046875) scale(0.7)"/>
       <use xlink:href="#DejaVuSans-32" transform="translate(186.855469 39.046875) scale(0.7)"/>
      </g>
     </g>
    </g>
    <g id="xtick_2">
     <g id="line2d_2">
      <g>
       <use xlink:href="#mb3f22ba32d" x="282.833982" y="312.24351" style="stroke: #000000; stroke-width: 0.8"/>
      </g>
     </g>
     <g id="text_2">
      <!-- $\mathdefault{10^{-1}}$ -->
      <g transform="translate(271.083982 326.841947) scale(0.1 -0.1)">
       <use xlink:href="#DejaVuSans-31" transform="translate(0 0.684375)"/>
       <use xlink:href="#DejaVuSans-30" transform="translate(63.623047 0.684375)"/>
       <use xlink:href="#DejaVuSans-2212" transform="translate(128.203125 38.965625) scale(0.7)"/>
       <use xlink:href="#DejaVuSans-31" transform="translate(186.855469 38.965625) scale(0.7)"/>
      </g>
     </g>
    </g>
    <g id="xtick_3">
     <g id="line2d_3">
      <defs>
       <path id="m4b459d8105" d="M 0 0 
L 0 2 
" style="stroke: #000000; stroke-width: 0.6"/>
      </defs>
      <g>
       <use xlink:href="#m4b459d8105" x="45.059779" y="312.24351" style="stroke: #000000; stroke-width: 0.6"/>
      </g>
     </g>
    </g>
    <g id="xtick_4">
     <g id="line2d_4">
      <g>
       <use xlink:href="#m4b459d8105" x="58.087758" y="312.24351" style="stroke: #000000; stroke-width: 0.6"/>
      </g>
     </g>
    </g>
    <g id="xtick_5">
     <g id="line2d_5">
      <g>
       <use xlink:href="#m4b459d8105" x="69.373107" y="312.24351" style="stroke: #000000; stroke-width: 0.6"/>
      </g>
     </g>
    </g>
    <g id="xtick_6">
     <g id="line2d_6">
      <g>
       <use xlink:href="#m4b459d8105" x="79.327489" y="312.24351" style="stroke: #000000; stroke-width: 0.6"/>
      </g>
     </g>
    </g>
    <g id="xtick_7">
     <g id="line2d_7">
      <g>
       <use xlink:href="#m4b459d8105" x="146.813026" y="312.24351" style="stroke: #000000; stroke-width: 0.6"/>
      </g>
     </g>
    </g>
    <g id="xtick_8">
     <g id="line2d_8">
      <g>
       <use xlink:href="#m4b459d8105" x="181.080736" y="312.24351" style="stroke: #000000; stroke-width: 0.6"/>
      </g>
     </g>
    </g>
    <g id="xtick_9">
     <g id="line2d_9">
      <g>
       <use xlink:href="#m4b459d8105" x="205.394063" y="312.24351" style="stroke: #000000; stroke-width: 0.6"/>
      </g>
     </g>
    </g>
    <g id="xtick_10">
     <g id="line2d_10">
      <g>
       <use xlink:href="#m4b459d8105" x="224.252945" y="312.24351" style="stroke: #000000; stroke-width: 0.6"/>
      </g>
     </g>
    </g>
    <g id="xtick_11">
     <g id="line2d_11">
      <g>
       <use xlink:href="#m4b459d8105" x="239.661773" y="312.24351" style="stroke: #000000; stroke-width: 0.6"/>
      </g>
     </g>
    </g>
    <g id="xtick_12">
     <g id="line2d_12">
      <g>
       <use xlink:href="#m4b459d8105" x="252.689752" y="312.24351" style="stroke: #000000; stroke-width: 0.6"/>
      </g>
     </g>
    </g>
    <g id="xtick_13">
     <g id="line2d_13">
      <g>
       <use xlink:href="#m4b459d8105" x="263.9751" y="312.24351" style="stroke: #000000; stroke-width: 0.6"/>
      </g>
     </g>
    </g>
    <g id="xtick_14">
     <g id="line2d_14">
      <g>
       <use xlink:href="#m4b459d8105" x="273.929483" y="312.24351" style="stroke: #000000; stroke-width: 0.6"/>
      </g>
     </g>
    </g>
    <g id="xtick_15">
     <g id="line2d_15">
      <g>
       <use xlink:href="#m4b459d8105" x="341.415019" y="312.24351" style="stroke: #000000; stroke-width: 0.6"/>
      </g>
     </g>
    </g>
    <g id="xtick_16">
     <g id="line2d_16">
      <g>
       <use xlink:href="#m4b459d8105" x="375.682729" y="312.24351" style="stroke: #000000; stroke-width: 0.6"/>
      </g>
     </g>
    </g>
    <g id="text_3">
     <!-- bandwidth -->
     <g transform="translate(183.495734 340.520072) scale(0.1 -0.1)">
      <defs>
       <path id="DejaVuSans-62" d="M 3116 1747 
Q 3116 2381 2855 2742 
Q 2594 3103 2138 3103 
Q 1681 3103 1420 2742 
Q 1159 2381 1159 1747 
Q 1159 1113 1420 752 
Q 1681 391 2138 391 
Q 2594 391 2855 752 
Q 3116 1113 3116 1747 
z
M 1159 2969 
Q 1341 3281 1617 3432 
Q 1894 3584 2278 3584 
Q 2916 3584 3314 3078 
Q 3713 2572 3713 1747 
Q 3713 922 3314 415 
Q 2916 -91 2278 -91 
Q 1894 -91 1617 61 
Q 1341 213 1159 525 
L 1159 0 
L 581 0 
L 581 4863 
L 1159 4863 
L 1159 2969 
z
" transform="scale(0.015625)"/>
       <path id="DejaVuSans-61" d="M 2194 1759 
Q 1497 1759 1228 1600 
Q 959 1441 959 1056 
Q 959 750 1161 570 
Q 1363 391 1709 391 
Q 2188 391 2477 730 
Q 2766 1069 2766 1631 
L 2766 1759 
L 2194 1759 
z
M 3341 1997 
L 3341 0 
L 2766 0 
L 2766 531 
Q 2569 213 2275 61 
Q 1981 -91 1556 -91 
Q 1019 -91 701 211 
Q 384 513 384 1019 
Q 384 1609 779 1909 
Q 1175 2209 1959 2209 
L 2766 2209 
L 2766 2266 
Q 2766 2663 2505 2880 
Q 2244 3097 1772 3097 
Q 1472 3097 1187 3025 
Q 903 2953 641 2809 
L 641 3341 
Q 956 3463 1253 3523 
Q 1550 3584 1831 3584 
Q 2591 3584 2966 3190 
Q 3341 2797 3341 1997 
z
" transform="scale(0.015625)"/>
       <path id="DejaVuSans-6e" d="M 3513 2113 
L 3513 0 
L 2938 0 
L 2938 2094 
Q 2938 2591 2744 2837 
Q 2550 3084 2163 3084 
Q 1697 3084 1428 2787 
Q 1159 2491 1159 1978 
L 1159 0 
L 581 0 
L 581 3500 
L 1159 3500 
L 1159 2956 
Q 1366 3272 1645 3428 
Q 1925 3584 2291 3584 
Q 2894 3584 3203 3211 
Q 3513 2838 3513 2113 
z
" transform="scale(0.015625)"/>
       <path id="DejaVuSans-64" d="M 2906 2969 
L 2906 4863 
L 3481 4863 
L 3481 0 
L 2906 0 
L 2906 525 
Q 2725 213 2448 61 
Q 2172 -91 1784 -91 
Q 1150 -91 751 415 
Q 353 922 353 1747 
Q 353 2572 751 3078 
Q 1150 3584 1784 3584 
Q 2172 3584 2448 3432 
Q 2725 3281 2906 2969 
z
M 947 1747 
Q 947 1113 1208 752 
Q 1469 391 1925 391 
Q 2381 391 2643 752 
Q 2906 1113 2906 1747 
Q 2906 2381 2643 2742 
Q 2381 3103 1925 3103 
Q 1469 3103 1208 2742 
Q 947 2381 947 1747 
z
" transform="scale(0.015625)"/>
       <path id="DejaVuSans-77" d="M 269 3500 
L 844 3500 
L 1563 769 
L 2278 3500 
L 2956 3500 
L 3675 769 
L 4391 3500 
L 4966 3500 
L 4050 0 
L 3372 0 
L 2619 2869 
L 1863 0 
L 1184 0 
L 269 3500 
z
" transform="scale(0.015625)"/>
       <path id="DejaVuSans-69" d="M 603 3500 
L 1178 3500 
L 1178 0 
L 603 0 
L 603 3500 
z
M 603 4863 
L 1178 4863 
L 1178 4134 
L 603 4134 
L 603 4863 
z
" transform="scale(0.015625)"/>
       <path id="DejaVuSans-74" d="M 1172 4494 
L 1172 3500 
L 2356 3500 
L 2356 3053 
L 1172 3053 
L 1172 1153 
Q 1172 725 1289 603 
Q 1406 481 1766 481 
L 2356 481 
L 2356 0 
L 1766 0 
Q 1100 0 847 248 
Q 594 497 594 1153 
L 594 3053 
L 172 3053 
L 172 3500 
L 594 3500 
L 594 4494 
L 1172 4494 
z
" transform="scale(0.015625)"/>
       <path id="DejaVuSans-68" d="M 3513 2113 
L 3513 0 
L 2938 0 
L 2938 2094 
Q 2938 2591 2744 2837 
Q 2550 3084 2163 3084 
Q 1697 3084 1428 2787 
Q 1159 2491 1159 1978 
L 1159 0 
L 581 0 
L 581 4863 
L 1159 4863 
L 1159 2956 
Q 1366 3272 1645 3428 
Q 1925 3584 2291 3584 
Q 2894 3584 3203 3211 
Q 3513 2838 3513 2113 
z
" transform="scale(0.015625)"/>
      </defs>
      <use xlink:href="#DejaVuSans-62"/>
      <use xlink:href="#DejaVuSans-61" transform="translate(63.476562 0)"/>
      <use xlink:href="#DejaVuSans-6e" transform="translate(124.755859 0)"/>
      <use xlink:href="#DejaVuSans-64" transform="translate(188.134766 0)"/>
      <use xlink:href="#DejaVuSans-77" transform="translate(251.611328 0)"/>
      <use xlink:href="#DejaVuSans-69" transform="translate(333.398438 0)"/>
      <use xlink:href="#DejaVuSans-64" transform="translate(361.181641 0)"/>
      <use xlink:href="#DejaVuSans-74" transform="translate(424.658203 0)"/>
      <use xlink:href="#DejaVuSans-68" transform="translate(463.867188 0)"/>
     </g>
    </g>
   </g>
   <g id="matplotlib.axis_2">
    <g id="ytick_1">
     <g id="line2d_17">
      <defs>
       <path id="mc186eb48f6" d="M 0 0 
L -3.5 0 
" style="stroke: #000000; stroke-width: 0.8"/>
      </defs>
      <g>
       <use xlink:href="#mc186eb48f6" x="39.58149" y="312.24351" style="stroke: #000000; stroke-width: 0.8"/>
      </g>
     </g>
     <g id="text_4">
      <!-- 1.0 -->
      <g transform="translate(16.678365 316.042729) scale(0.1 -0.1)">
       <defs>
        <path id="DejaVuSans-2e" d="M 684 794 
L 1344 794 
L 1344 0 
L 684 0 
L 684 794 
z
" transform="scale(0.015625)"/>
       </defs>
       <use xlink:href="#DejaVuSans-31"/>
       <use xlink:href="#DejaVuSans-2e" transform="translate(63.623047 0)"/>
       <use xlink:href="#DejaVuSans-30" transform="translate(95.410156 0)"/>
      </g>
     </g>
    </g>
    <g id="ytick_2">
     <g id="line2d_18">
      <g>
       <use xlink:href="#mc186eb48f6" x="39.58149" y="263.222652" style="stroke: #000000; stroke-width: 0.8"/>
      </g>
     </g>
     <g id="text_5">
      <!-- 1.5 -->
      <g transform="translate(16.678365 267.021871) scale(0.1 -0.1)">
       <defs>
        <path id="DejaVuSans-35" d="M 691 4666 
L 3169 4666 
L 3169 4134 
L 1269 4134 
L 1269 2991 
Q 1406 3038 1543 3061 
Q 1681 3084 1819 3084 
Q 2600 3084 3056 2656 
Q 3513 2228 3513 1497 
Q 3513 744 3044 326 
Q 2575 -91 1722 -91 
Q 1428 -91 1123 -41 
Q 819 9 494 109 
L 494 744 
Q 775 591 1075 516 
Q 1375 441 1709 441 
Q 2250 441 2565 725 
Q 2881 1009 2881 1497 
Q 2881 1984 2565 2268 
Q 2250 2553 1709 2553 
Q 1456 2553 1204 2497 
Q 953 2441 691 2322 
L 691 4666 
z
" transform="scale(0.015625)"/>
       </defs>
       <use xlink:href="#DejaVuSans-31"/>
       <use xlink:href="#DejaVuSans-2e" transform="translate(63.623047 0)"/>
       <use xlink:href="#DejaVuSans-35" transform="translate(95.410156 0)"/>
      </g>
     </g>
    </g>
    <g id="ytick_3">
     <g id="line2d_19">
      <g>
       <use xlink:href="#mc186eb48f6" x="39.58149" y="214.201795" style="stroke: #000000; stroke-width: 0.8"/>
      </g>
     </g>
     <g id="text_6">
      <!-- 2.0 -->
      <g transform="translate(16.678365 218.001014) scale(0.1 -0.1)">
       <use xlink:href="#DejaVuSans-32"/>
       <use xlink:href="#DejaVuSans-2e" transform="translate(63.623047 0)"/>
       <use xlink:href="#DejaVuSans-30" transform="translate(95.410156 0)"/>
      </g>
     </g>
    </g>
    <g id="ytick_4">
     <g id="line2d_20">
      <g>
       <use xlink:href="#mc186eb48f6" x="39.58149" y="165.180938" style="stroke: #000000; stroke-width: 0.8"/>
      </g>
     </g>
     <g id="text_7">
      <!-- 2.5 -->
      <g transform="translate(16.678365 168.980156) scale(0.1 -0.1)">
       <use xlink:href="#DejaVuSans-32"/>
       <use xlink:href="#DejaVuSans-2e" transform="translate(63.623047 0)"/>
       <use xlink:href="#DejaVuSans-35" transform="translate(95.410156 0)"/>
      </g>
     </g>
    </g>
    <g id="ytick_5">
     <g id="line2d_21">
      <g>
       <use xlink:href="#mc186eb48f6" x="39.58149" y="116.16008" style="stroke: #000000; stroke-width: 0.8"/>
      </g>
     </g>
     <g id="text_8">
      <!-- 3.0 -->
      <g transform="translate(16.678365 119.959299) scale(0.1 -0.1)">
       <defs>
        <path id="DejaVuSans-33" d="M 2597 2516 
Q 3050 2419 3304 2112 
Q 3559 1806 3559 1356 
Q 3559 666 3084 287 
Q 2609 -91 1734 -91 
Q 1441 -91 1130 -33 
Q 819 25 488 141 
L 488 750 
Q 750 597 1062 519 
Q 1375 441 1716 441 
Q 2309 441 2620 675 
Q 2931 909 2931 1356 
Q 2931 1769 2642 2001 
Q 2353 2234 1838 2234 
L 1294 2234 
L 1294 2753 
L 1863 2753 
Q 2328 2753 2575 2939 
Q 2822 3125 2822 3475 
Q 2822 3834 2567 4026 
Q 2313 4219 1838 4219 
Q 1578 4219 1281 4162 
Q 984 4106 628 3988 
L 628 4550 
Q 988 4650 1302 4700 
Q 1616 4750 1894 4750 
Q 2613 4750 3031 4423 
Q 3450 4097 3450 3541 
Q 3450 3153 3228 2886 
Q 3006 2619 2597 2516 
z
" transform="scale(0.015625)"/>
       </defs>
       <use xlink:href="#DejaVuSans-33"/>
       <use xlink:href="#DejaVuSans-2e" transform="translate(63.623047 0)"/>
       <use xlink:href="#DejaVuSans-30" transform="translate(95.410156 0)"/>
      </g>
     </g>
    </g>
    <g id="ytick_6">
     <g id="line2d_22">
      <g>
       <use xlink:href="#mc186eb48f6" x="39.58149" y="67.139223" style="stroke: #000000; stroke-width: 0.8"/>
      </g>
     </g>
     <g id="text_9">
      <!-- 3.5 -->
      <g transform="translate(16.678365 70.938441) scale(0.1 -0.1)">
       <use xlink:href="#DejaVuSans-33"/>
       <use xlink:href="#DejaVuSans-2e" transform="translate(63.623047 0)"/>
       <use xlink:href="#DejaVuSans-35" transform="translate(95.410156 0)"/>
      </g>
     </g>
    </g>
    <g id="ytick_7">
     <g id="line2d_23">
      <g>
       <use xlink:href="#mc186eb48f6" x="39.58149" y="18.118365" style="stroke: #000000; stroke-width: 0.8"/>
      </g>
     </g>
     <g id="text_10">
      <!-- 4.0 -->
      <g transform="translate(16.678365 21.917584) scale(0.1 -0.1)">
       <defs>
        <path id="DejaVuSans-34" d="M 2419 4116 
L 825 1625 
L 2419 1625 
L 2419 4116 
z
M 2253 4666 
L 3047 4666 
L 3047 1625 
L 3713 1625 
L 3713 1100 
L 3047 1100 
L 3047 0 
L 2419 0 
L 2419 1100 
L 313 1100 
L 313 1709 
L 2253 4666 
z
" transform="scale(0.015625)"/>
       </defs>
       <use xlink:href="#DejaVuSans-34"/>
       <use xlink:href="#DejaVuSans-2e" transform="translate(63.623047 0)"/>
       <use xlink:href="#DejaVuSans-30" transform="translate(95.410156 0)"/>
      </g>
     </g>
    </g>
    <g id="text_11">
     <!-- alpha -->
     <g transform="translate(10.598677 179.041094) rotate(-90) scale(0.1 -0.1)">
      <defs>
       <path id="DejaVuSans-6c" d="M 603 4863 
L 1178 4863 
L 1178 0 
L 603 0 
L 603 4863 
z
" transform="scale(0.015625)"/>
       <path id="DejaVuSans-70" d="M 1159 525 
L 1159 -1331 
L 581 -1331 
L 581 3500 
L 1159 3500 
L 1159 2969 
Q 1341 3281 1617 3432 
Q 1894 3584 2278 3584 
Q 2916 3584 3314 3078 
Q 3713 2572 3713 1747 
Q 3713 922 3314 415 
Q 2916 -91 2278 -91 
Q 1894 -91 1617 61 
Q 1341 213 1159 525 
z
M 3116 1747 
Q 3116 2381 2855 2742 
Q 2594 3103 2138 3103 
Q 1681 3103 1420 2742 
Q 1159 2381 1159 1747 
Q 1159 1113 1420 752 
Q 1681 391 2138 391 
Q 2594 391 2855 752 
Q 3116 1113 3116 1747 
z
" transform="scale(0.015625)"/>
      </defs>
      <use xlink:href="#DejaVuSans-61"/>
      <use xlink:href="#DejaVuSans-6c" transform="translate(61.279297 0)"/>
      <use xlink:href="#DejaVuSans-70" transform="translate(89.0625 0)"/>
      <use xlink:href="#DejaVuSans-68" transform="translate(152.539062 0)"/>
      <use xlink:href="#DejaVuSans-61" transform="translate(215.917969 0)"/>
     </g>
    </g>
   </g>
   <g id="patch_3">
    <path d="M 39.58149 312.24351 
L 39.58149 18.118365 
" style="fill: none; stroke: #000000; stroke-width: 0.8; stroke-linejoin: miter; stroke-linecap: square"/>
   </g>
   <g id="patch_4">
    <path d="M 380.134979 312.24351 
L 380.134979 18.118365 
" style="fill: none; stroke: #000000; stroke-width: 0.8; stroke-linejoin: miter; stroke-linecap: square"/>
   </g>
   <g id="patch_5">
    <path d="M 39.58149 312.24351 
L 380.134979 312.24351 
" style="fill: none; stroke: #000000; stroke-width: 0.8; stroke-linejoin: miter; stroke-linecap: square"/>
   </g>
   <g id="patch_6">
    <path d="M 39.58149 18.118365 
L 380.134979 18.118365 
" style="fill: none; stroke: #000000; stroke-width: 0.8; stroke-linejoin: miter; stroke-linecap: square"/>
   </g>
   <g id="text_12">
    <!-- lunas_lo 1188 fkdc -->
    <g transform="translate(153.667297 12.118365) scale(0.12 -0.12)">
     <defs>
      <path id="DejaVuSans-75" d="M 544 1381 
L 544 3500 
L 1119 3500 
L 1119 1403 
Q 1119 906 1312 657 
Q 1506 409 1894 409 
Q 2359 409 2629 706 
Q 2900 1003 2900 1516 
L 2900 3500 
L 3475 3500 
L 3475 0 
L 2900 0 
L 2900 538 
Q 2691 219 2414 64 
Q 2138 -91 1772 -91 
Q 1169 -91 856 284 
Q 544 659 544 1381 
z
M 1991 3584 
L 1991 3584 
z
" transform="scale(0.015625)"/>
      <path id="DejaVuSans-73" d="M 2834 3397 
L 2834 2853 
Q 2591 2978 2328 3040 
Q 2066 3103 1784 3103 
Q 1356 3103 1142 2972 
Q 928 2841 928 2578 
Q 928 2378 1081 2264 
Q 1234 2150 1697 2047 
L 1894 2003 
Q 2506 1872 2764 1633 
Q 3022 1394 3022 966 
Q 3022 478 2636 193 
Q 2250 -91 1575 -91 
Q 1294 -91 989 -36 
Q 684 19 347 128 
L 347 722 
Q 666 556 975 473 
Q 1284 391 1588 391 
Q 1994 391 2212 530 
Q 2431 669 2431 922 
Q 2431 1156 2273 1281 
Q 2116 1406 1581 1522 
L 1381 1569 
Q 847 1681 609 1914 
Q 372 2147 372 2553 
Q 372 3047 722 3315 
Q 1072 3584 1716 3584 
Q 2034 3584 2315 3537 
Q 2597 3491 2834 3397 
z
" transform="scale(0.015625)"/>
      <path id="DejaVuSans-5f" d="M 3263 -1063 
L 3263 -1509 
L -63 -1509 
L -63 -1063 
L 3263 -1063 
z
" transform="scale(0.015625)"/>
      <path id="DejaVuSans-6f" d="M 1959 3097 
Q 1497 3097 1228 2736 
Q 959 2375 959 1747 
Q 959 1119 1226 758 
Q 1494 397 1959 397 
Q 2419 397 2687 759 
Q 2956 1122 2956 1747 
Q 2956 2369 2687 2733 
Q 2419 3097 1959 3097 
z
M 1959 3584 
Q 2709 3584 3137 3096 
Q 3566 2609 3566 1747 
Q 3566 888 3137 398 
Q 2709 -91 1959 -91 
Q 1206 -91 779 398 
Q 353 888 353 1747 
Q 353 2609 779 3096 
Q 1206 3584 1959 3584 
z
" transform="scale(0.015625)"/>
      <path id="DejaVuSans-20" transform="scale(0.015625)"/>
      <path id="DejaVuSans-38" d="M 2034 2216 
Q 1584 2216 1326 1975 
Q 1069 1734 1069 1313 
Q 1069 891 1326 650 
Q 1584 409 2034 409 
Q 2484 409 2743 651 
Q 3003 894 3003 1313 
Q 3003 1734 2745 1975 
Q 2488 2216 2034 2216 
z
M 1403 2484 
Q 997 2584 770 2862 
Q 544 3141 544 3541 
Q 544 4100 942 4425 
Q 1341 4750 2034 4750 
Q 2731 4750 3128 4425 
Q 3525 4100 3525 3541 
Q 3525 3141 3298 2862 
Q 3072 2584 2669 2484 
Q 3125 2378 3379 2068 
Q 3634 1759 3634 1313 
Q 3634 634 3220 271 
Q 2806 -91 2034 -91 
Q 1263 -91 848 271 
Q 434 634 434 1313 
Q 434 1759 690 2068 
Q 947 2378 1403 2484 
z
M 1172 3481 
Q 1172 3119 1398 2916 
Q 1625 2713 2034 2713 
Q 2441 2713 2670 2916 
Q 2900 3119 2900 3481 
Q 2900 3844 2670 4047 
Q 2441 4250 2034 4250 
Q 1625 4250 1398 4047 
Q 1172 3844 1172 3481 
z
" transform="scale(0.015625)"/>
      <path id="DejaVuSans-66" d="M 2375 4863 
L 2375 4384 
L 1825 4384 
Q 1516 4384 1395 4259 
Q 1275 4134 1275 3809 
L 1275 3500 
L 2222 3500 
L 2222 3053 
L 1275 3053 
L 1275 0 
L 697 0 
L 697 3053 
L 147 3053 
L 147 3500 
L 697 3500 
L 697 3744 
Q 697 4328 969 4595 
Q 1241 4863 1831 4863 
L 2375 4863 
z
" transform="scale(0.015625)"/>
      <path id="DejaVuSans-6b" d="M 581 4863 
L 1159 4863 
L 1159 1991 
L 2875 3500 
L 3609 3500 
L 1753 1863 
L 3688 0 
L 2938 0 
L 1159 1709 
L 1159 0 
L 581 0 
L 581 4863 
z
" transform="scale(0.015625)"/>
      <path id="DejaVuSans-63" d="M 3122 3366 
L 3122 2828 
Q 2878 2963 2633 3030 
Q 2388 3097 2138 3097 
Q 1578 3097 1268 2742 
Q 959 2388 959 1747 
Q 959 1106 1268 751 
Q 1578 397 2138 397 
Q 2388 397 2633 464 
Q 2878 531 3122 666 
L 3122 134 
Q 2881 22 2623 -34 
Q 2366 -91 2075 -91 
Q 1284 -91 818 406 
Q 353 903 353 1747 
Q 353 2603 823 3093 
Q 1294 3584 2113 3584 
Q 2378 3584 2631 3529 
Q 2884 3475 3122 3366 
z
" transform="scale(0.015625)"/>
     </defs>
     <use xlink:href="#DejaVuSans-6c"/>
     <use xlink:href="#DejaVuSans-75" transform="translate(27.783203 0)"/>
     <use xlink:href="#DejaVuSans-6e" transform="translate(91.162109 0)"/>
     <use xlink:href="#DejaVuSans-61" transform="translate(154.541016 0)"/>
     <use xlink:href="#DejaVuSans-73" transform="translate(215.820312 0)"/>
     <use xlink:href="#DejaVuSans-5f" transform="translate(267.919922 0)"/>
     <use xlink:href="#DejaVuSans-6c" transform="translate(317.919922 0)"/>
     <use xlink:href="#DejaVuSans-6f" transform="translate(345.703125 0)"/>
     <use xlink:href="#DejaVuSans-20" transform="translate(406.884766 0)"/>
     <use xlink:href="#DejaVuSans-31" transform="translate(438.671875 0)"/>
     <use xlink:href="#DejaVuSans-31" transform="translate(502.294922 0)"/>
     <use xlink:href="#DejaVuSans-38" transform="translate(565.917969 0)"/>
     <use xlink:href="#DejaVuSans-38" transform="translate(629.541016 0)"/>
     <use xlink:href="#DejaVuSans-20" transform="translate(693.164062 0)"/>
     <use xlink:href="#DejaVuSans-66" transform="translate(724.951172 0)"/>
     <use xlink:href="#DejaVuSans-6b" transform="translate(760.15625 0)"/>
     <use xlink:href="#DejaVuSans-64" transform="translate(818.066406 0)"/>
     <use xlink:href="#DejaVuSans-63" transform="translate(881.542969 0)"/>
    </g>
   </g>
  </g>
  <g id="axes_2">
   <g id="patch_7">
    <path d="M 397.162653 312.24351 
L 411.86891 312.24351 
L 411.86891 18.118365 
L 397.162653 18.118365 
z
" style="fill: #ffffff"/>
   </g>
   <g id="QuadMesh_1">
    <path d="M 397.162653 312.24351 
L 411.86891 312.24351 
L 411.86891 293.860688 
L 397.162653 293.860688 
L 397.162653 312.24351 
" clip-path="url(#p99d705cb9b)" style="fill: #470d60"/>
    <path d="M 397.162653 293.860688 
L 411.86891 293.860688 
L 411.86891 275.477867 
L 397.162653 275.477867 
L 397.162653 293.860688 
" clip-path="url(#p99d705cb9b)" style="fill: #482173"/>
    <path d="M 397.162653 275.477867 
L 411.86891 275.477867 
L 411.86891 257.095045 
L 397.162653 257.095045 
L 397.162653 275.477867 
" clip-path="url(#p99d705cb9b)" style="fill: #453781"/>
    <path d="M 397.162653 257.095045 
L 411.86891 257.095045 
L 411.86891 238.712224 
L 397.162653 238.712224 
L 397.162653 257.095045 
" clip-path="url(#p99d705cb9b)" style="fill: #3e4989"/>
    <path d="M 397.162653 238.712224 
L 411.86891 238.712224 
L 411.86891 220.329402 
L 397.162653 220.329402 
L 397.162653 238.712224 
" clip-path="url(#p99d705cb9b)" style="fill: #375a8c"/>
    <path d="M 397.162653 220.329402 
L 411.86891 220.329402 
L 411.86891 201.946581 
L 397.162653 201.946581 
L 397.162653 220.329402 
" clip-path="url(#p99d705cb9b)" style="fill: #2f6b8e"/>
    <path d="M 397.162653 201.946581 
L 411.86891 201.946581 
L 411.86891 183.563759 
L 397.162653 183.563759 
L 397.162653 201.946581 
" clip-path="url(#p99d705cb9b)" style="fill: #297a8e"/>
    <path d="M 397.162653 183.563759 
L 411.86891 183.563759 
L 411.86891 165.180937 
L 397.162653 165.180937 
L 397.162653 183.563759 
" clip-path="url(#p99d705cb9b)" style="fill: #23898e"/>
    <path d="M 397.162653 165.180937 
L 411.86891 165.180937 
L 411.86891 146.798116 
L 397.162653 146.798116 
L 397.162653 165.180937 
" clip-path="url(#p99d705cb9b)" style="fill: #1f988b"/>
    <path d="M 397.162653 146.798116 
L 411.86891 146.798116 
L 411.86891 128.415294 
L 397.162653 128.415294 
L 397.162653 146.798116 
" clip-path="url(#p99d705cb9b)" style="fill: #21a685"/>
    <path d="M 397.162653 128.415294 
L 411.86891 128.415294 
L 411.86891 110.032473 
L 397.162653 110.032473 
L 397.162653 128.415294 
" clip-path="url(#p99d705cb9b)" style="fill: #32b67a"/>
    <path d="M 397.162653 110.032473 
L 411.86891 110.032473 
L 411.86891 91.649651 
L 397.162653 91.649651 
L 397.162653 110.032473 
" clip-path="url(#p99d705cb9b)" style="fill: #4ec36b"/>
    <path d="M 397.162653 91.649651 
L 411.86891 91.649651 
L 411.86891 73.26683 
L 397.162653 73.26683 
L 397.162653 91.649651 
" clip-path="url(#p99d705cb9b)" style="fill: #70cf57"/>
    <path d="M 397.162653 73.26683 
L 411.86891 73.26683 
L 411.86891 54.884008 
L 397.162653 54.884008 
L 397.162653 73.26683 
" clip-path="url(#p99d705cb9b)" style="fill: #98d83e"/>
    <path d="M 397.162653 54.884008 
L 411.86891 54.884008 
L 411.86891 36.501187 
L 397.162653 36.501187 
L 397.162653 54.884008 
" clip-path="url(#p99d705cb9b)" style="fill: #c2df23"/>
    <path d="M 397.162653 36.501187 
L 411.86891 36.501187 
L 411.86891 18.118365 
L 397.162653 18.118365 
L 397.162653 36.501187 
" clip-path="url(#p99d705cb9b)" style="fill: #ece51b"/>
   </g>
   <g id="matplotlib.axis_3"/>
   <g id="matplotlib.axis_4">
    <g id="ytick_8">
     <g id="line2d_24">
      <defs>
       <path id="m6af32ff06b" d="M 0 0 
L 3.5 0 
" style="stroke: #000000; stroke-width: 0.8"/>
      </defs>
      <g>
       <use xlink:href="#m6af32ff06b" x="411.86891" y="312.24351" style="stroke: #000000; stroke-width: 0.8"/>
      </g>
     </g>
     <g id="text_13">
      <!-- 3.2 -->
      <g transform="translate(418.86891 316.042729) scale(0.1 -0.1)">
       <use xlink:href="#DejaVuSans-2212"/>
       <use xlink:href="#DejaVuSans-33" transform="translate(83.789062 0)"/>
       <use xlink:href="#DejaVuSans-2e" transform="translate(147.412109 0)"/>
       <use xlink:href="#DejaVuSans-32" transform="translate(179.199219 0)"/>
      </g>
     </g>
    </g>
    <g id="ytick_9">
     <g id="line2d_25">
      <g>
       <use xlink:href="#m6af32ff06b" x="411.86891" y="275.477867" style="stroke: #000000; stroke-width: 0.8"/>
      </g>
     </g>
     <g id="text_14">
      <!-- 2.8 -->
      <g transform="translate(418.86891 279.277086) scale(0.1 -0.1)">
       <use xlink:href="#DejaVuSans-2212"/>
       <use xlink:href="#DejaVuSans-32" transform="translate(83.789062 0)"/>
       <use xlink:href="#DejaVuSans-2e" transform="translate(147.412109 0)"/>
       <use xlink:href="#DejaVuSans-38" transform="translate(179.199219 0)"/>
      </g>
     </g>
    </g>
    <g id="ytick_10">
     <g id="line2d_26">
      <g>
       <use xlink:href="#m6af32ff06b" x="411.86891" y="238.712224" style="stroke: #000000; stroke-width: 0.8"/>
      </g>
     </g>
     <g id="text_15">
      <!-- 2.4 -->
      <g transform="translate(418.86891 242.511442) scale(0.1 -0.1)">
       <use xlink:href="#DejaVuSans-2212"/>
       <use xlink:href="#DejaVuSans-32" transform="translate(83.789062 0)"/>
       <use xlink:href="#DejaVuSans-2e" transform="translate(147.412109 0)"/>
       <use xlink:href="#DejaVuSans-34" transform="translate(179.199219 0)"/>
      </g>
     </g>
    </g>
    <g id="ytick_11">
     <g id="line2d_27">
      <g>
       <use xlink:href="#m6af32ff06b" x="411.86891" y="201.946581" style="stroke: #000000; stroke-width: 0.8"/>
      </g>
     </g>
     <g id="text_16">
      <!-- 2.0 -->
      <g transform="translate(418.86891 205.745799) scale(0.1 -0.1)">
       <use xlink:href="#DejaVuSans-2212"/>
       <use xlink:href="#DejaVuSans-32" transform="translate(83.789062 0)"/>
       <use xlink:href="#DejaVuSans-2e" transform="translate(147.412109 0)"/>
       <use xlink:href="#DejaVuSans-30" transform="translate(179.199219 0)"/>
      </g>
     </g>
    </g>
    <g id="ytick_12">
     <g id="line2d_28">
      <g>
       <use xlink:href="#m6af32ff06b" x="411.86891" y="165.180937" style="stroke: #000000; stroke-width: 0.8"/>
      </g>
     </g>
     <g id="text_17">
      <!-- 1.6 -->
      <g transform="translate(418.86891 168.980156) scale(0.1 -0.1)">
       <defs>
        <path id="DejaVuSans-36" d="M 2113 2584 
Q 1688 2584 1439 2293 
Q 1191 2003 1191 1497 
Q 1191 994 1439 701 
Q 1688 409 2113 409 
Q 2538 409 2786 701 
Q 3034 994 3034 1497 
Q 3034 2003 2786 2293 
Q 2538 2584 2113 2584 
z
M 3366 4563 
L 3366 3988 
Q 3128 4100 2886 4159 
Q 2644 4219 2406 4219 
Q 1781 4219 1451 3797 
Q 1122 3375 1075 2522 
Q 1259 2794 1537 2939 
Q 1816 3084 2150 3084 
Q 2853 3084 3261 2657 
Q 3669 2231 3669 1497 
Q 3669 778 3244 343 
Q 2819 -91 2113 -91 
Q 1303 -91 875 529 
Q 447 1150 447 2328 
Q 447 3434 972 4092 
Q 1497 4750 2381 4750 
Q 2619 4750 2861 4703 
Q 3103 4656 3366 4563 
z
" transform="scale(0.015625)"/>
       </defs>
       <use xlink:href="#DejaVuSans-2212"/>
       <use xlink:href="#DejaVuSans-31" transform="translate(83.789062 0)"/>
       <use xlink:href="#DejaVuSans-2e" transform="translate(147.412109 0)"/>
       <use xlink:href="#DejaVuSans-36" transform="translate(179.199219 0)"/>
      </g>
     </g>
    </g>
    <g id="ytick_13">
     <g id="line2d_29">
      <g>
       <use xlink:href="#m6af32ff06b" x="411.86891" y="128.415294" style="stroke: #000000; stroke-width: 0.8"/>
      </g>
     </g>
     <g id="text_18">
      <!-- 1.2 -->
      <g transform="translate(418.86891 132.214513) scale(0.1 -0.1)">
       <use xlink:href="#DejaVuSans-2212"/>
       <use xlink:href="#DejaVuSans-31" transform="translate(83.789062 0)"/>
       <use xlink:href="#DejaVuSans-2e" transform="translate(147.412109 0)"/>
       <use xlink:href="#DejaVuSans-32" transform="translate(179.199219 0)"/>
      </g>
     </g>
    </g>
    <g id="ytick_14">
     <g id="line2d_30">
      <g>
       <use xlink:href="#m6af32ff06b" x="411.86891" y="91.649651" style="stroke: #000000; stroke-width: 0.8"/>
      </g>
     </g>
     <g id="text_19">
      <!-- 0.8 -->
      <g transform="translate(418.86891 95.44887) scale(0.1 -0.1)">
       <use xlink:href="#DejaVuSans-2212"/>
       <use xlink:href="#DejaVuSans-30" transform="translate(83.789062 0)"/>
       <use xlink:href="#DejaVuSans-2e" transform="translate(147.412109 0)"/>
       <use xlink:href="#DejaVuSans-38" transform="translate(179.199219 0)"/>
      </g>
     </g>
    </g>
    <g id="ytick_15">
     <g id="line2d_31">
      <g>
       <use xlink:href="#m6af32ff06b" x="411.86891" y="54.884008" style="stroke: #000000; stroke-width: 0.8"/>
      </g>
     </g>
     <g id="text_20">
      <!-- 0.4 -->
      <g transform="translate(418.86891 58.683227) scale(0.1 -0.1)">
       <use xlink:href="#DejaVuSans-2212"/>
       <use xlink:href="#DejaVuSans-30" transform="translate(83.789062 0)"/>
       <use xlink:href="#DejaVuSans-2e" transform="translate(147.412109 0)"/>
       <use xlink:href="#DejaVuSans-34" transform="translate(179.199219 0)"/>
      </g>
     </g>
    </g>
    <g id="ytick_16">
     <g id="line2d_32">
      <g>
       <use xlink:href="#m6af32ff06b" x="411.86891" y="18.118365" style="stroke: #000000; stroke-width: 0.8"/>
      </g>
     </g>
     <g id="text_21">
      <!-- 0.0 -->
      <g transform="translate(418.86891 21.917584) scale(0.1 -0.1)">
       <use xlink:href="#DejaVuSans-30"/>
       <use xlink:href="#DejaVuSans-2e" transform="translate(63.623047 0)"/>
       <use xlink:href="#DejaVuSans-30" transform="translate(95.410156 0)"/>
      </g>
     </g>
    </g>
    <g id="text_22">
     <!-- Score -->
     <g transform="translate(454.75016 179.183281) rotate(-90) scale(0.1 -0.1)">
      <defs>
       <path id="DejaVuSans-53" d="M 3425 4513 
L 3425 3897 
Q 3066 4069 2747 4153 
Q 2428 4238 2131 4238 
Q 1616 4238 1336 4038 
Q 1056 3838 1056 3469 
Q 1056 3159 1242 3001 
Q 1428 2844 1947 2747 
L 2328 2669 
Q 3034 2534 3370 2195 
Q 3706 1856 3706 1288 
Q 3706 609 3251 259 
Q 2797 -91 1919 -91 
Q 1588 -91 1214 -16 
Q 841 59 441 206 
L 441 856 
Q 825 641 1194 531 
Q 1563 422 1919 422 
Q 2459 422 2753 634 
Q 3047 847 3047 1241 
Q 3047 1584 2836 1778 
Q 2625 1972 2144 2069 
L 1759 2144 
Q 1053 2284 737 2584 
Q 422 2884 422 3419 
Q 422 4038 858 4394 
Q 1294 4750 2059 4750 
Q 2388 4750 2728 4690 
Q 3069 4631 3425 4513 
z
" transform="scale(0.015625)"/>
       <path id="DejaVuSans-72" d="M 2631 2963 
Q 2534 3019 2420 3045 
Q 2306 3072 2169 3072 
Q 1681 3072 1420 2755 
Q 1159 2438 1159 1844 
L 1159 0 
L 581 0 
L 581 3500 
L 1159 3500 
L 1159 2956 
Q 1341 3275 1631 3429 
Q 1922 3584 2338 3584 
Q 2397 3584 2469 3576 
Q 2541 3569 2628 3553 
L 2631 2963 
z
" transform="scale(0.015625)"/>
       <path id="DejaVuSans-65" d="M 3597 1894 
L 3597 1613 
L 953 1613 
Q 991 1019 1311 708 
Q 1631 397 2203 397 
Q 2534 397 2845 478 
Q 3156 559 3463 722 
L 3463 178 
Q 3153 47 2828 -22 
Q 2503 -91 2169 -91 
Q 1331 -91 842 396 
Q 353 884 353 1716 
Q 353 2575 817 3079 
Q 1281 3584 2069 3584 
Q 2775 3584 3186 3129 
Q 3597 2675 3597 1894 
z
M 3022 2063 
Q 3016 2534 2758 2815 
Q 2500 3097 2075 3097 
Q 1594 3097 1305 2825 
Q 1016 2553 972 2059 
L 3022 2063 
z
" transform="scale(0.015625)"/>
      </defs>
      <use xlink:href="#DejaVuSans-53"/>
      <use xlink:href="#DejaVuSans-63" transform="translate(63.476562 0)"/>
      <use xlink:href="#DejaVuSans-6f" transform="translate(118.457031 0)"/>
      <use xlink:href="#DejaVuSans-72" transform="translate(179.638672 0)"/>
      <use xlink:href="#DejaVuSans-65" transform="translate(218.501953 0)"/>
     </g>
    </g>
   </g>
   <g id="LineCollection_1"/>
   <g id="patch_8">
    <path d="M 397.162653 312.24351 
L 404.515782 312.24351 
L 411.86891 312.24351 
L 411.86891 18.118365 
L 404.515782 18.118365 
L 397.162653 18.118365 
L 397.162653 312.24351 
z
" style="fill: none; stroke: #000000; stroke-width: 0.8; stroke-linejoin: miter; stroke-linecap: square"/>
   </g>
  </g>
 </g>
 <defs>
  <clipPath id="pbe6161e745">
   <rect x="39.58149" y="18.118365" width="340.553489" height="294.125145"/>
  </clipPath>
  <clipPath id="p99d705cb9b">
   <rect x="397.162653" y="18.118365" width="14.706257" height="294.125145"/>
  </clipPath>
 </defs>
</svg>
