<?xml version="1.0" encoding="utf-8" standalone="no"?>
<!DOCTYPE svg PUBLIC "-//W3C//DTD SVG 1.1//EN"
  "http://www.w3.org/Graphics/SVG/1.1/DTD/svg11.dtd">
<svg xmlns:xlink="http://www.w3.org/1999/xlink" width="460.8pt" height="345.6pt" viewBox="0 0 460.8 345.6" xmlns="http://www.w3.org/2000/svg" version="1.1">
 <metadata>
  <rdf:RDF xmlns:dc="http://purl.org/dc/elements/1.1/" xmlns:cc="http://creativecommons.org/ns#" xmlns:rdf="http://www.w3.org/1999/02/22-rdf-syntax-ns#">
   <cc:Work>
    <dc:type rdf:resource="http://purl.org/dc/dcmitype/StillImage"/>
    <dc:date>1970-01-01T00:00:00+00:00</dc:date>
    <dc:format>image/svg+xml</dc:format>
    <dc:creator>
     <cc:Agent>
      <dc:title>Matplotlib v3.10.7, https://matplotlib.org/</dc:title>
     </cc:Agent>
    </dc:creator>
   </cc:Work>
  </rdf:RDF>
 </metadata>
 <defs>
  <style type="text/css">*{stroke-linejoin: round; stroke-linecap: butt}</style>
 </defs>
 <g id="figure_1">
  <g id="patch_1">
   <path d="M 0 345.6 
L 460.8 345.6 
L 460.8 0 
L 0 0 
z
" style="fill: #ffffff"/>
  </g>
  <g id="axes_1">
   <g id="patch_2">
    <path d="M 39.58149 312.24351 
L 384.66826 312.24351 
L 384.66826 18.118365 
L 39.58149 18.118365 
z
" style="fill: #ffffff"/>
   </g>
   <g id="QuadContourSet_1">
    <path d="M -59.01473 288.171485 
L -46.328729 287.733081 
L -59.01473 285.528454 
L -59.666279 287.733081 
z
M -9.71662 312.24351 
L 39.58149 312.24351 
L 42.088003 312.24351 
L 39.58149 311.235779 
L -9.71662 297.304641 
L -13.518001 312.24351 
z
M -108.31284 263.833482 
L -100.339622 263.222652 
L -108.31284 261.298009 
L -109.69886 263.222652 
z
" clip-path="url(#p50bfc125c0)" style="fill: #470d60"/>
    <path d="M -59.01473 293.276434 
L -21.350525 312.24351 
L -13.518001 312.24351 
L -9.71662 297.304641 
L 39.58149 311.235779 
L 42.088003 312.24351 
L 58.030198 312.24351 
L 39.58149 304.087316 
L 4.148258 287.733081 
L -9.71662 281.765228 
L -55.139535 263.222652 
L -59.01473 261.623128 
L -108.31284 245.845051 
L -121.723819 263.222652 
L -108.31284 268.737827 
L -67.642272 287.733081 
z
M -59.666279 287.733081 
L -59.01473 285.528454 
L -46.328729 287.733081 
L -59.01473 288.171485 
z
M -109.69886 263.222652 
L -108.31284 261.298009 
L -100.339622 263.222652 
L -108.31284 263.833482 
z
M -157.61095 245.371305 
L -122.672021 238.712224 
L -157.61095 224.02466 
L -173.620351 238.712224 
z
M -206.90906 221.165364 
L -179.638507 214.201795 
L -206.90906 203.984262 
L -220.595096 214.201795 
z
" clip-path="url(#p50bfc125c0)" style="fill: #482173"/>
    <path d="M -59.01473 298.381384 
L -29.972185 312.24351 
L -21.350525 312.24351 
L -59.01473 293.276434 
L -67.642272 287.733081 
L -108.31284 268.737827 
L -121.723819 263.222652 
L -108.31284 245.845051 
L -59.01473 261.623128 
L -55.139535 263.222652 
L -9.71662 281.765228 
L 4.148258 287.733081 
L 39.58149 304.087316 
L 58.030198 312.24351 
L 71.465297 312.24351 
L 39.58149 296.938853 
L 21.458388 287.733081 
L -9.71662 272.821586 
L -30.239142 263.222652 
L -59.01473 249.423171 
L -86.117585 238.712224 
L -108.31284 231.393268 
L -142.092299 214.201795 
L -157.61095 207.621812 
L -195.551872 189.691366 
L -206.90906 185.257994 
L -253.54211 165.180938 
L -256.20717 164.444676 
L -305.50528 144.328166 
L -313.979518 140.670509 
L -354.80339 124.797966 
L -377.665906 116.16008 
L -404.1015 107.048079 
L -449.565993 91.649651 
L -453.39961 90.603351 
L -502.69772 76.258266 
L -502.69772 91.649651 
L -502.69772 93.575141 
L -457.780601 116.16008 
L -453.39961 118.998684 
L -406.997512 140.670509 
L -404.1015 142.565791 
L -356.839703 165.180938 
L -354.80339 166.551729 
L -305.50528 188.123278 
L -302.07121 189.691366 
L -256.20717 213.388347 
L -254.763096 214.201795 
L -206.90906 234.385927 
L -197.423195 238.712224 
L -157.61095 253.23244 
L -135.717431 263.222652 
L -108.31284 273.642172 
L -76.438114 287.733081 
z
M -173.620351 238.712224 
L -157.61095 224.02466 
L -122.672021 238.712224 
L -157.61095 245.371305 
z
M -220.595096 214.201795 
L -206.90906 203.984262 
L -179.638507 214.201795 
L -206.90906 221.165364 
z
" clip-path="url(#p50bfc125c0)" style="fill: #453781"/>
    <path d="M -59.01473 303.486333 
L -39.559991 312.24351 
L -29.972185 312.24351 
L -59.01473 298.381384 
L -76.438114 287.733081 
L -108.31284 273.642172 
L -135.717431 263.222652 
L -157.61095 253.23244 
L -197.423195 238.712224 
L -206.90906 234.385927 
L -254.763096 214.201795 
L -256.20717 213.388347 
L -302.07121 189.691366 
L -305.50528 188.123278 
L -354.80339 166.551729 
L -356.839703 165.180938 
L -404.1015 142.565791 
L -406.997512 140.670509 
L -453.39961 118.998684 
L -457.780601 116.16008 
L -502.69772 93.575141 
L -502.69772 100.530387 
L -469.28388 116.16008 
L -453.39961 125.796307 
L -419.04306 140.670509 
L -404.1015 149.79601 
L -369.31872 165.180938 
L -354.80339 174.276335 
L -318.485029 189.691366 
L -305.50528 195.938538 
L -266.513748 214.201795 
L -256.20717 219.117638 
L -212.67401 238.712224 
L -206.90906 241.956428 
L -157.61095 261.093574 
L -152.452927 263.222652 
L -108.31284 278.546517 
L -86.241863 287.733081 
z
M 39.58149 296.938853 
L 71.465297 312.24351 
L 83.075726 312.24351 
L 39.58149 289.790389 
L 35.851108 287.733081 
L -9.71662 263.877943 
L -10.971556 263.222652 
L -55.955876 238.712224 
L -59.01473 237.42072 
L -108.31284 217.799791 
L -114.363643 214.201795 
L -157.61095 192.442269 
L -162.447562 189.691366 
L -206.90906 168.413164 
L -212.903037 165.180938 
L -256.20717 149.8525 
L -273.737144 140.670509 
L -305.50528 129.876385 
L -331.72668 116.16008 
L -354.80339 106.52155 
L -383.657341 91.649651 
L -404.1015 82.898938 
L -436.225613 67.139223 
L -453.39961 60.03947 
L -489.108307 42.628794 
L -502.69772 37.403284 
L -502.69772 42.628794 
L -502.69772 67.139223 
L -502.69772 76.258266 
L -453.39961 90.603351 
L -449.565993 91.649651 
L -404.1015 107.048079 
L -377.665906 116.16008 
L -354.80339 124.797966 
L -313.979518 140.670509 
L -305.50528 144.328166 
L -256.20717 164.444676 
L -253.54211 165.180938 
L -206.90906 185.257994 
L -195.551872 189.691366 
L -157.61095 207.621812 
L -142.092299 214.201795 
L -108.31284 231.393268 
L -86.117585 238.712224 
L -59.01473 249.423171 
L -30.239142 263.222652 
L -9.71662 272.821586 
L 21.458388 287.733081 
z
" clip-path="url(#p50bfc125c0)" style="fill: #3e4989"/>
    <path d="M -59.01473 308.591283 
L -50.35813 312.24351 
L -39.559991 312.24351 
L -59.01473 303.486333 
L -86.241863 287.733081 
L -108.31284 278.546517 
L -152.452927 263.222652 
L -157.61095 261.093574 
L -206.90906 241.956428 
L -212.67401 238.712224 
L -256.20717 219.117638 
L -266.513748 214.201795 
L -305.50528 195.938538 
L -318.485029 189.691366 
L -354.80339 174.276335 
L -369.31872 165.180938 
L -404.1015 149.79601 
L -419.04306 140.670509 
L -453.39961 125.796307 
L -469.28388 116.16008 
L -502.69772 100.530387 
L -502.69772 107.485633 
L -482.575638 116.16008 
L -453.39961 132.593929 
L -433.064577 140.670509 
L -404.1015 157.02623 
L -383.931456 165.180938 
L -354.80339 182.00094 
L -334.772893 189.691366 
L -305.50528 202.550179 
L -278.677173 214.201795 
L -256.20717 224.207048 
L -222.031191 238.712224 
L -206.90906 246.778659 
L -164.482021 263.222652 
L -157.61095 266.21486 
L -108.31284 283.450862 
L -97.314768 287.733081 
z
M 39.58149 289.790389 
L 83.075726 312.24351 
L 88.8796 312.24351 
L 96.386164 312.24351 
L 88.8796 308.523087 
L 53.224072 287.733081 
L 39.58149 281.107799 
L 9.607509 263.222652 
L -9.71662 253.824471 
L -34.315692 238.712224 
L -59.01473 226.839002 
L -86.069318 214.201795 
L -108.31284 203.71036 
L -131.671963 189.691366 
L -157.61095 177.472786 
L -178.98982 165.180938 
L -206.90906 155.419941 
L -241.940653 140.670509 
L -256.20717 134.824806 
L -305.50528 117.303617 
L -307.409409 116.16008 
L -354.80339 93.122668 
L -357.264679 91.649651 
L -404.1015 68.025783 
L -405.621802 67.139223 
L -453.39961 43.256323 
L -454.458555 42.628794 
L -502.69772 19.643171 
L -502.69772 37.403284 
L -489.108307 42.628794 
L -453.39961 60.03947 
L -436.225613 67.139223 
L -404.1015 82.898938 
L -383.657341 91.649651 
L -354.80339 106.52155 
L -331.72668 116.16008 
L -305.50528 129.876385 
L -273.737144 140.670509 
L -256.20717 149.8525 
L -212.903037 165.180938 
L -206.90906 168.413164 
L -162.447562 189.691366 
L -157.61095 192.442269 
L -114.363643 214.201795 
L -108.31284 217.799791 
L -59.01473 237.42072 
L -55.955876 238.712224 
L -10.971556 263.222652 
L -9.71662 263.877943 
L 35.851108 287.733081 
z
" clip-path="url(#p50bfc125c0)" style="fill: #375a8c"/>
    <path d="M -108.31284 288.352007 
L -61.09845 312.24351 
L -59.01473 312.24351 
L -50.35813 312.24351 
L -59.01473 308.591283 
L -97.314768 287.733081 
L -108.31284 283.450862 
L -157.61095 266.21486 
L -164.482021 263.222652 
L -206.90906 246.778659 
L -222.031191 238.712224 
L -256.20717 224.207048 
L -278.677173 214.201795 
L -305.50528 202.550179 
L -334.772893 189.691366 
L -354.80339 182.00094 
L -383.931456 165.180938 
L -404.1015 157.02623 
L -433.064577 140.670509 
L -453.39961 132.593929 
L -482.575638 116.16008 
L -502.69772 107.485633 
L -502.69772 114.440879 
L -498.316241 116.16008 
L -453.39961 139.391552 
L -449.84004 140.670509 
L -404.1015 164.256449 
L -401.561177 165.180938 
L -354.852582 189.691366 
L -354.80339 189.716776 
L -305.50528 209.16182 
L -292.858766 214.201795 
L -256.20717 229.296458 
L -232.53761 238.712224 
L -206.90906 251.60089 
L -174.902614 263.222652 
L -157.61095 270.318475 
L -109.407657 287.733081 
z
M 88.8796 308.523087 
L 96.386164 312.24351 
L 111.122852 312.24351 
L 88.8796 300.19879 
L 69.319737 287.733081 
L 39.58149 271.805276 
L 26.494316 263.222652 
L -9.71662 243.683253 
L -17.055508 238.712224 
L -59.01473 216.257283 
L -62.873577 214.201795 
L -107.862349 189.691366 
L -108.31284 189.492612 
L -152.670468 165.180938 
L -157.61095 162.945435 
L -206.90906 143.341257 
L -212.280158 140.670509 
L -256.20717 119.057968 
L -262.754824 116.16008 
L -305.50528 94.638897 
L -310.293135 91.649651 
L -354.80339 69.421841 
L -358.189749 67.139223 
L -404.1015 50.881858 
L -417.526599 42.628794 
L -453.39961 29.919832 
L -474.280756 18.118365 
L -502.69772 18.118365 
L -502.69772 19.643171 
L -454.458555 42.628794 
L -453.39961 43.256323 
L -405.621802 67.139223 
L -404.1015 68.025783 
L -357.264679 91.649651 
L -354.80339 93.122668 
L -307.409409 116.16008 
L -305.50528 117.303617 
L -256.20717 134.824806 
L -241.940653 140.670509 
L -206.90906 155.419941 
L -178.98982 165.180938 
L -157.61095 177.472786 
L -131.671963 189.691366 
L -108.31284 203.71036 
L -86.069318 214.201795 
L -59.01473 226.839002 
L -34.315692 238.712224 
L -9.71662 253.824471 
L 9.607509 263.222652 
L 39.58149 281.107799 
L 53.224072 287.733081 
z
" clip-path="url(#p50bfc125c0)" style="fill: #2f6b8e"/>
    <path d="M -108.31284 293.231131 
L -68.85113 312.24351 
L -61.09845 312.24351 
L -108.31284 288.352007 
L -109.407657 287.733081 
L -157.61095 270.318475 
L -174.902614 263.222652 
L -206.90906 251.60089 
L -232.53761 238.712224 
L -256.20717 229.296458 
L -292.858766 214.201795 
L -305.50528 209.16182 
L -354.80339 189.716776 
L -354.852582 189.691366 
L -401.561177 165.180938 
L -404.1015 164.256449 
L -449.84004 140.670509 
L -453.39961 139.391552 
L -498.316241 116.16008 
L -502.69772 114.440879 
L -502.69772 116.16008 
L -502.69772 124.636656 
L -468.220826 140.670509 
L -453.39961 148.306885 
L -417.333974 165.180938 
L -404.1015 171.778575 
L -366.764661 189.691366 
L -354.80339 195.459408 
L -308.08842 214.201795 
L -305.50528 215.566487 
L -256.20717 234.385869 
L -244.515614 238.712224 
L -206.90906 256.423121 
L -186.769154 263.222652 
L -157.61095 274.42209 
L -118.566479 287.733081 
z
M 88.8796 300.19879 
L 111.122852 312.24351 
L 123.692095 312.24351 
L 88.8796 291.874492 
L 82.863573 287.733081 
L 41.052858 263.222652 
L 39.58149 262.552793 
L 0.108038 238.712224 
L -9.71662 233.825902 
L -42.00038 214.201795 
L -59.01473 205.844641 
L -85.349118 189.691366 
L -108.31284 178.102088 
L -129.028229 165.180938 
L -157.61095 150.266387 
L -178.416757 140.670509 
L -206.90906 124.790519 
L -220.773316 116.16008 
L -256.20717 93.939977 
L -259.564078 91.649651 
L -305.50528 73.354295 
L -315.270575 67.139223 
L -354.80339 45.391065 
L -361.866279 42.628794 
L -399.80364 18.118365 
L -404.1015 18.118365 
L -453.39961 18.118365 
L -474.280756 18.118365 
L -453.39961 29.919832 
L -417.526599 42.628794 
L -404.1015 50.881858 
L -358.189749 67.139223 
L -354.80339 69.421841 
L -310.293135 91.649651 
L -305.50528 94.638897 
L -262.754824 116.16008 
L -256.20717 119.057968 
L -212.280158 140.670509 
L -206.90906 143.341257 
L -157.61095 162.945435 
L -152.670468 165.180938 
L -108.31284 189.492612 
L -107.862349 189.691366 
L -62.873577 214.201795 
L -59.01473 216.257283 
L -17.055508 238.712224 
L -9.71662 243.683253 
L 26.494316 263.222652 
L 39.58149 271.805276 
L 69.319737 287.733081 
z
" clip-path="url(#p50bfc125c0)" style="fill: #297a8e"/>
    <path d="M -108.31284 298.110255 
L -77.37613 312.24351 
L -68.85113 312.24351 
L -108.31284 293.231131 
L -118.566479 287.733081 
L -157.61095 274.42209 
L -186.769154 263.222652 
L -206.90906 256.423121 
L -244.515614 238.712224 
L -256.20717 234.385869 
L -305.50528 215.566487 
L -308.08842 214.201795 
L -354.80339 195.459408 
L -366.764661 189.691366 
L -404.1015 171.778575 
L -417.333974 165.180938 
L -453.39961 148.306885 
L -468.220826 140.670509 
L -502.69772 124.636656 
L -502.69772 135.896427 
L -490.908304 140.670509 
L -453.39961 157.712999 
L -435.548019 165.180938 
L -404.1015 179.343498 
L -380.605555 189.691366 
L -354.80339 201.202039 
L -319.898839 214.201795 
L -305.50528 221.307434 
L -257.991878 238.712224 
L -256.20717 239.795225 
L -206.90906 261.245353 
L -200.548571 263.222652 
L -157.61095 278.525705 
L -128.823412 287.733081 
z
M 88.8796 291.874492 
L 123.692095 312.24351 
L 134.650468 312.24351 
L 97.394082 287.733081 
L 88.8796 283.487047 
L 58.090465 263.222652 
L 39.58149 253.896875 
L 16.616166 238.712224 
L -9.71662 224.241482 
L -24.717073 214.201795 
L -59.01473 195.47276 
L -67.539191 189.691366 
L -108.31284 166.711564 
L -110.520742 165.180938 
L -150.698527 140.670509 
L -157.61095 137.5327 
L -191.223995 116.16008 
L -206.90906 108.681585 
L -232.44719 91.649651 
L -256.20717 79.894501 
L -281.566993 67.139223 
L -305.50528 54.320397 
L -322.913693 42.628794 
L -354.80339 23.569278 
L -362.179397 18.118365 
L -399.80364 18.118365 
L -361.866279 42.628794 
L -354.80339 45.391065 
L -315.270575 67.139223 
L -305.50528 73.354295 
L -259.564078 91.649651 
L -256.20717 93.939977 
L -220.773316 116.16008 
L -206.90906 124.790519 
L -178.416757 140.670509 
L -157.61095 150.266387 
L -129.028229 165.180938 
L -108.31284 178.102088 
L -85.349118 189.691366 
L -59.01473 205.844641 
L -42.00038 214.201795 
L -9.71662 233.825902 
L 0.108038 238.712224 
L 39.58149 262.552793 
L 41.052858 263.222652 
L 82.863573 287.733081 
z
" clip-path="url(#p50bfc125c0)" style="fill: #23898e"/>
    <path d="M -108.31284 302.989379 
L -86.844528 312.24351 
L -77.37613 312.24351 
L -108.31284 298.110255 
L -128.823412 287.733081 
L -157.61095 278.525705 
L -200.548571 263.222652 
L -206.90906 261.245353 
L -256.20717 239.795225 
L -257.991878 238.712224 
L -305.50528 221.307434 
L -319.898839 214.201795 
L -354.80339 201.202039 
L -380.605555 189.691366 
L -404.1015 179.343498 
L -435.548019 165.180938 
L -453.39961 157.712999 
L -490.908304 140.670509 
L -502.69772 135.896427 
L -502.69772 140.670509 
L -502.69772 145.825291 
L -456.723513 165.180938 
L -453.39961 167.543834 
L -404.1015 186.908421 
L -397.122888 189.691366 
L -354.80339 206.94467 
L -333.602601 214.201795 
L -305.50528 227.048381 
L -270.953617 238.712224 
L -256.20717 247.018606 
L -215.092488 263.222652 
L -206.90906 267.343478 
L -157.61095 282.629319 
L -140.478109 287.733081 
z
M 138.17771 312.24351 
L 149.330971 312.24351 
L 138.17771 306.728792 
L 112.171894 287.733081 
L 88.8796 275.037078 
L 72.294471 263.222652 
L 39.58149 245.240957 
L 30.450603 238.712224 
L -9.71662 214.657062 
L -10.342883 214.201795 
L -47.927316 189.691366 
L -59.01473 184.337514 
L -87.502839 165.180938 
L -108.31284 153.858165 
L -126.994547 140.670509 
L -157.61095 124.628956 
L -169.402955 116.16008 
L -206.90906 95.713645 
L -212.347166 91.649651 
L -255.96175 67.139223 
L -256.20717 67.027577 
L -292.592943 42.628794 
L -305.50528 36.325748 
L -330.634538 18.118365 
L -354.80339 18.118365 
L -362.179397 18.118365 
L -354.80339 23.569278 
L -322.913693 42.628794 
L -305.50528 54.320397 
L -281.566993 67.139223 
L -256.20717 79.894501 
L -232.44719 91.649651 
L -206.90906 108.681585 
L -191.223995 116.16008 
L -157.61095 137.5327 
L -150.698527 140.670509 
L -110.520742 165.180938 
L -108.31284 166.711564 
L -67.539191 189.691366 
L -59.01473 195.47276 
L -24.717073 214.201795 
L -9.71662 224.241482 
L 16.616166 238.712224 
L 39.58149 253.896875 
L 58.090465 263.222652 
L 88.8796 283.487047 
L 97.394082 287.733081 
L 134.650468 312.24351 
z
" clip-path="url(#p50bfc125c0)" style="fill: #1f988b"/>
    <path d="M -108.31284 307.868502 
L -97.491404 312.24351 
L -86.844528 312.24351 
L -108.31284 302.989379 
L -140.478109 287.733081 
L -157.61095 282.629319 
L -206.90906 267.343478 
L -215.092488 263.222652 
L -256.20717 247.018606 
L -270.953617 238.712224 
L -305.50528 227.048381 
L -333.602601 214.201795 
L -354.80339 206.94467 
L -397.122888 189.691366 
L -404.1015 186.908421 
L -453.39961 167.543834 
L -456.723513 165.180938 
L -502.69772 145.825291 
L -502.69772 154.77448 
L -474.98809 165.180938 
L -453.39961 179.011151 
L -420.778552 189.691366 
L -404.1015 198.269942 
L -354.80339 212.687302 
L -349.924837 214.201795 
L -305.50528 232.789328 
L -286.233155 238.712224 
L -256.20717 254.241986 
L -231.045764 263.222652 
L -206.90906 274.328381 
L -157.61095 286.732934 
L -153.972549 287.733081 
z
M 138.17771 306.728792 
L 149.330971 312.24351 
L 164.075744 312.24351 
L 138.17771 298.243715 
L 124.771021 287.733081 
L 88.8796 266.58711 
L 84.47437 263.222652 
L 46.271976 238.712224 
L 39.58149 235.445791 
L 12.132022 214.201795 
L -9.71662 202.540403 
L -27.163497 189.691366 
L -59.01473 172.240865 
L -68.446838 165.180938 
L -108.31284 140.777673 
L -108.449341 140.670509 
L -145.471104 116.16008 
L -157.61095 109.912506 
L -183.395319 91.649651 
L -206.90906 79.310193 
L -223.494518 67.139223 
L -256.20717 49.042127 
L -264.376743 42.628794 
L -305.50528 18.751339 
L -306.265753 18.118365 
L -330.634538 18.118365 
L -305.50528 36.325748 
L -292.592943 42.628794 
L -256.20717 67.027577 
L -255.96175 67.139223 
L -212.347166 91.649651 
L -206.90906 95.713645 
L -169.402955 116.16008 
L -157.61095 124.628956 
L -126.994547 140.670509 
L -108.31284 153.858165 
L -87.502839 165.180938 
L -59.01473 184.337514 
L -47.927316 189.691366 
L -10.342883 214.201795 
L -9.71662 214.657062 
L 30.450603 238.712224 
L 39.58149 245.240957 
L 72.294471 263.222652 
L 88.8796 275.037078 
L 112.171894 287.733081 
z
" clip-path="url(#p50bfc125c0)" style="fill: #21a685"/>
    <path d="M -157.61095 299.337699 
L -112.514832 312.24351 
L -108.31284 312.24351 
L -97.491404 312.24351 
L -108.31284 307.868502 
L -153.972549 287.733081 
L -157.61095 286.732934 
L -206.90906 274.328381 
L -231.045764 263.222652 
L -256.20717 254.241986 
L -286.233155 238.712224 
L -305.50528 232.789328 
L -349.924837 214.201795 
L -354.80339 212.687302 
L -404.1015 198.269942 
L -420.778552 189.691366 
L -453.39961 179.011151 
L -474.98809 165.180938 
L -502.69772 154.77448 
L -502.69772 163.72367 
L -498.23444 165.180938 
L -455.910419 189.691366 
L -453.39961 191.456559 
L -404.1015 211.840953 
L -392.225987 214.201795 
L -354.80339 224.944376 
L -305.50528 238.530276 
L -304.843905 238.712224 
L -256.20717 261.465367 
L -250.667219 263.222652 
L -206.90906 281.313285 
L -176.460349 287.733081 
z
M 138.17771 298.243715 
L 164.075744 312.24351 
L 176.650863 312.24351 
L 138.17771 289.758638 
L 135.752092 287.733081 
L 104.878687 263.222652 
L 88.8796 254.595601 
L 69.121963 238.712224 
L 39.58149 222.154053 
L 30.305668 214.201795 
L -9.71662 190.297462 
L -10.464438 189.691366 
L -43.747572 165.180938 
L -59.01473 156.916125 
L -77.897137 140.670509 
L -108.31284 123.362017 
L -117.605958 116.16008 
L -157.61095 91.734488 
L -157.714439 91.649651 
L -191.720011 67.139223 
L -206.90906 58.606444 
L -227.311415 42.628794 
L -256.20717 25.439849 
L -264.933998 18.118365 
L -305.50528 18.118365 
L -306.265753 18.118365 
L -305.50528 18.751339 
L -264.376743 42.628794 
L -256.20717 49.042127 
L -223.494518 67.139223 
L -206.90906 79.310193 
L -183.395319 91.649651 
L -157.61095 109.912506 
L -145.471104 116.16008 
L -108.449341 140.670509 
L -108.31284 140.777673 
L -68.446838 165.180938 
L -59.01473 172.240865 
L -27.163497 189.691366 
L -9.71662 202.540403 
L 12.132022 214.201795 
L 39.58149 235.445791 
L 46.271976 238.712224 
L 84.47437 263.222652 
L 88.8796 266.58711 
L 124.771021 287.733081 
z
" clip-path="url(#p50bfc125c0)" style="fill: #32b67a"/>
    <path d="M -256.20717 295.068826 
L -206.90906 290.630148 
L -165.802451 312.24351 
L -157.61095 312.24351 
L -112.514832 312.24351 
L -157.61095 299.337699 
L -176.460349 287.733081 
L -206.90906 281.313285 
L -250.667219 263.222652 
L -256.20717 261.465367 
L -304.843905 238.712224 
L -305.50528 238.530276 
L -354.80339 224.944376 
L -392.225987 214.201795 
L -404.1015 211.840953 
L -453.39961 191.456559 
L -455.910419 189.691366 
L -498.23444 165.180938 
L -502.69772 163.72367 
L -502.69772 165.180938 
L -502.69772 189.691366 
L -502.69772 214.201795 
L -502.69772 220.926228 
L -453.39961 221.257938 
L -418.695552 238.712224 
L -404.1015 243.833011 
L -365.757955 263.222652 
L -354.80339 270.558397 
L -305.50528 267.161327 
L -267.161735 287.733081 
z
M 138.17771 289.758638 
L 176.650863 312.24351 
L 187.47582 312.24351 
L 187.898671 312.24351 
L 187.47582 312.006701 
L 159.163856 287.733081 
L 138.17771 274.773094 
L 126.22969 263.222652 
L 88.8796 240.261089 
L 87.141516 238.712224 
L 55.830452 214.201795 
L 39.58149 204.059033 
L 24.251723 189.691366 
L -9.71662 170.190366 
L -15.413096 165.180938 
L -48.39514 140.670509 
L -59.01473 135.005172 
L -80.499928 116.16008 
L -108.31284 99.62073 
L -117.041816 91.649651 
L -155.371081 67.139223 
L -157.61095 66.013568 
L -183.595473 42.628794 
L -206.90906 28.492869 
L -218.348367 18.118365 
L -256.20717 18.118365 
L -264.933998 18.118365 
L -256.20717 25.439849 
L -227.311415 42.628794 
L -206.90906 58.606444 
L -191.720011 67.139223 
L -157.714439 91.649651 
L -157.61095 91.734488 
L -117.605958 116.16008 
L -108.31284 123.362017 
L -77.897137 140.670509 
L -59.01473 156.916125 
L -43.747572 165.180938 
L -10.464438 189.691366 
L -9.71662 190.297462 
L 30.305668 214.201795 
L 39.58149 222.154053 
L 69.121963 238.712224 
L 88.8796 254.595601 
L 104.878687 263.222652 
L 135.752092 287.733081 
z
" clip-path="url(#p50bfc125c0)" style="fill: #4ec36b"/>
    <path d="M -453.39961 312.24351 
L -404.1015 312.24351 
L -354.80339 312.24351 
L -305.50528 312.24351 
L -256.20717 312.24351 
L -206.90906 312.24351 
L -165.802451 312.24351 
L -206.90906 290.630148 
L -256.20717 295.068826 
L -267.161735 287.733081 
L -305.50528 267.161327 
L -354.80339 270.558397 
L -365.757955 263.222652 
L -404.1015 243.833011 
L -418.695552 238.712224 
L -453.39961 221.257938 
L -502.69772 220.926228 
L -502.69772 238.712224 
L -502.69772 263.222652 
L -502.69772 287.733081 
L -502.69772 312.24351 
z
M 187.47582 312.006701 
L 187.898671 312.24351 
L 214.726281 312.24351 
L 187.47582 294.319345 
L 180.671225 287.733081 
L 152.523836 263.222652 
L 138.17771 255.049206 
L 120.839275 238.712224 
L 88.8796 216.554174 
L 86.474349 214.201795 
L 60.164419 189.691366 
L 39.58149 175.917213 
L 27.195321 165.180938 
L -2.569005 140.670509 
L -9.71662 136.247381 
L -33.81987 116.16008 
L -59.01473 98.077262 
L -65.398676 91.649651 
L -93.671219 67.139223 
L -108.31284 57.491999 
L -125.878703 42.628794 
L -151.179299 18.118365 
L -157.61095 18.118365 
L -206.90906 18.118365 
L -218.348367 18.118365 
L -206.90906 28.492869 
L -183.595473 42.628794 
L -157.61095 66.013568 
L -155.371081 67.139223 
L -117.041816 91.649651 
L -108.31284 99.62073 
L -80.499928 116.16008 
L -59.01473 135.005172 
L -48.39514 140.670509 
L -15.413096 165.180938 
L -9.71662 170.190366 
L 24.251723 189.691366 
L 39.58149 204.059033 
L 55.830452 214.201795 
L 87.141516 238.712224 
L 88.8796 240.261089 
L 126.22969 263.222652 
L 138.17771 274.773094 
L 159.163856 287.733081 
z
M 532.56259 303.862329 
L 539.338442 312.24351 
L 581.8607 312.24351 
L 631.15881 312.24351 
L 680.45692 312.24351 
L 729.75503 312.24351 
L 779.05314 312.24351 
L 828.35125 312.24351 
L 877.64936 312.24351 
L 926.94747 312.24351 
L 976.24558 312.24351 
L 1025.54369 312.24351 
L 1074.8418 312.24351 
L 1124.13991 312.24351 
L 1173.43802 312.24351 
L 1222.73613 312.24351 
L 1272.03424 312.24351 
L 1321.33235 312.24351 
L 1370.63046 312.24351 
L 1419.928569 312.24351 
L 1469.226679 312.24351 
L 1518.524789 312.24351 
L 1567.822899 312.24351 
L 1617.121009 312.24351 
L 1666.419119 312.24351 
L 1666.419119 287.733081 
L 1666.419119 263.222652 
L 1666.419119 238.712224 
L 1666.419119 214.201795 
L 1666.419119 189.691366 
L 1666.419119 165.180938 
L 1666.419119 140.670509 
L 1666.419119 116.16008 
L 1666.419119 91.649651 
L 1666.419119 67.139223 
L 1666.419119 42.628794 
L 1666.419119 18.118365 
L 1617.121009 18.118365 
L 1567.822899 18.118365 
L 1518.524789 18.118365 
L 1469.226679 18.118365 
L 1419.928569 18.118365 
L 1370.63046 18.118365 
L 1321.33235 18.118365 
L 1272.03424 18.118365 
L 1222.73613 18.118365 
L 1173.43802 18.118365 
L 1124.13991 18.118365 
L 1074.8418 18.118365 
L 1025.54369 18.118365 
L 976.24558 18.118365 
L 926.94747 18.118365 
L 877.64936 18.118365 
L 828.35125 18.118365 
L 779.05314 18.118365 
L 729.75503 18.118365 
L 680.45692 18.118365 
L 631.15881 18.118365 
L 581.8607 18.118365 
L 532.56259 18.118365 
L 483.26448 18.118365 
L 433.96637 18.118365 
L 384.66826 18.118365 
L 371.700753 18.118365 
L 378.577029 42.628794 
L 384.66826 65.704516 
L 385.442186 67.139223 
L 399.481585 91.649651 
L 411.917198 116.16008 
L 422.949945 140.670509 
L 432.616061 165.180938 
L 433.96637 168.196648 
L 454.181615 189.691366 
L 471.312529 214.201795 
L 483.26448 237.158611 
L 485.297714 238.712224 
L 513.17661 263.222652 
L 528.068854 287.733081 
z
" clip-path="url(#p50bfc125c0)" style="fill: #70cf57"/>
    <path d="M 187.47582 294.319345 
L 214.726281 312.24351 
L 235.124182 312.24351 
L 215.058153 287.733081 
L 187.47582 265.051854 
L 186.081891 263.222652 
L 160.982569 238.712224 
L 138.17771 218.734107 
L 135.040369 214.201795 
L 108.505047 189.691366 
L 88.8796 174.522786 
L 82.899978 165.180938 
L 56.129037 140.670509 
L 39.58149 129.964058 
L 30.361301 116.16008 
L 0.428058 91.649651 
L -9.71662 85.912583 
L -22.291303 67.139223 
L -59.01473 43.05981 
L -59.374286 42.628794 
L -76.011818 18.118365 
L -108.31284 18.118365 
L -151.179299 18.118365 
L -125.878703 42.628794 
L -108.31284 57.491999 
L -93.671219 67.139223 
L -65.398676 91.649651 
L -59.01473 98.077262 
L -33.81987 116.16008 
L -9.71662 136.247381 
L -2.569005 140.670509 
L 27.195321 165.180938 
L 39.58149 175.917213 
L 60.164419 189.691366 
L 86.474349 214.201795 
L 88.8796 216.554174 
L 120.839275 238.712224 
L 138.17771 255.049206 
L 152.523836 263.222652 
L 180.671225 287.733081 
z
M 483.26448 312.24351 
L 532.56259 312.24351 
L 539.338442 312.24351 
L 532.56259 303.862329 
L 528.068854 287.733081 
L 513.17661 263.222652 
L 485.297714 238.712224 
L 483.26448 237.158611 
L 471.312529 214.201795 
L 454.181615 189.691366 
L 433.96637 168.196648 
L 432.616061 165.180938 
L 422.949945 140.670509 
L 411.917198 116.16008 
L 399.481585 91.649651 
L 385.442186 67.139223 
L 384.66826 65.704516 
L 378.577029 42.628794 
L 371.700753 18.118365 
L 335.37015 18.118365 
L 286.07204 18.118365 
L 236.77393 18.118365 
L 212.022269 18.118365 
L 230.431442 42.628794 
L 236.77393 51.442639 
L 253.446 67.139223 
L 274.396221 91.649651 
L 286.07204 106.998696 
L 296.498283 116.16008 
L 319.981818 140.670509 
L 335.37015 159.829361 
L 341.778246 165.180938 
L 366.621029 189.691366 
L 384.66826 211.715526 
L 387.768263 214.201795 
L 412.385478 238.712224 
L 430.836228 263.222652 
L 433.96637 269.035711 
L 449.396728 287.733081 
L 457.005726 312.24351 
z
" clip-path="url(#p50bfc125c0)" style="fill: #98d83e"/>
    <path d="M 236.77393 312.24351 
L 286.07204 312.24351 
L 287.580971 312.24351 
L 286.07204 311.445767 
L 276.467939 287.733081 
L 257.546886 263.222652 
L 236.77393 247.996095 
L 233.271466 238.712224 
L 224.204491 214.201795 
L 211.078986 189.691366 
L 187.47582 170.160214 
L 186.344575 165.180938 
L 187.47582 152.546403 
L 204.029023 165.180938 
L 236.77393 172.961702 
L 254.42032 189.691366 
L 286.07204 211.120715 
L 289.473356 214.201795 
L 312.503011 238.712224 
L 335.37015 258.2211 
L 340.004471 263.222652 
L 357.485666 287.733081 
L 370.51887 312.24351 
L 384.66826 312.24351 
L 433.96637 312.24351 
L 457.005726 312.24351 
L 449.396728 287.733081 
L 433.96637 269.035711 
L 430.836228 263.222652 
L 412.385478 238.712224 
L 387.768263 214.201795 
L 384.66826 211.715526 
L 366.621029 189.691366 
L 341.778246 165.180938 
L 335.37015 159.829361 
L 319.981818 140.670509 
L 296.498283 116.16008 
L 286.07204 106.998696 
L 274.396221 91.649651 
L 253.446 67.139223 
L 236.77393 51.442639 
L 230.431442 42.628794 
L 212.022269 18.118365 
L 187.47582 18.118365 
L 138.17771 18.118365 
L 88.8796 18.118365 
L 39.58149 18.118365 
L -9.71662 18.118365 
L -59.01473 18.118365 
L -76.011818 18.118365 
L -59.374286 42.628794 
L -59.01473 43.05981 
L -22.291303 67.139223 
L -9.71662 85.912583 
L 0.428058 91.649651 
L 30.361301 116.16008 
L 39.58149 129.964058 
L 56.129037 140.670509 
L 82.899978 165.180938 
L 88.8796 174.522786 
L 108.505047 189.691366 
L 135.040369 214.201795 
L 138.17771 218.734107 
L 160.982569 238.712224 
L 186.081891 263.222652 
L 187.47582 265.051854 
L 215.058153 287.733081 
L 235.124182 312.24351 
z
" clip-path="url(#p50bfc125c0)" style="fill: #c2df23"/>
    <path d="M 286.07204 311.445767 
L 287.580971 312.24351 
L 335.37015 312.24351 
L 370.51887 312.24351 
L 357.485666 287.733081 
L 340.004471 263.222652 
L 335.37015 258.2211 
L 312.503011 238.712224 
L 289.473356 214.201795 
L 286.07204 211.120715 
L 254.42032 189.691366 
L 236.77393 172.961702 
L 204.029023 165.180938 
L 187.47582 152.546403 
L 186.344575 165.180938 
L 187.47582 170.160214 
L 211.078986 189.691366 
L 224.204491 214.201795 
L 233.271466 238.712224 
L 236.77393 247.996095 
L 257.546886 263.222652 
L 276.467939 287.733081 
z
" clip-path="url(#p50bfc125c0)" style="fill: #ece51b"/>
   </g>
   <g id="PathCollection_1">
    <defs>
     <path id="mdc0741d33a" d="M -3 3 
L 3 -3 
M -3 -3 
L 3 3 
" style="stroke: #ff0000; stroke-width: 1.5"/>
    </defs>
    <g clip-path="url(#p50bfc125c0)">
     <use xlink:href="#mdc0741d33a" x="335.37015" y="312.24351" style="fill: #ff0000; stroke: #ff0000; stroke-width: 1.5"/>
     <use xlink:href="#mdc0741d33a" x="335.37015" y="287.733081" style="fill: #ff0000; stroke: #ff0000; stroke-width: 1.5"/>
     <use xlink:href="#mdc0741d33a" x="286.07204" y="263.222652" style="fill: #ff0000; stroke: #ff0000; stroke-width: 1.5"/>
     <use xlink:href="#mdc0741d33a" x="286.07204" y="238.712224" style="fill: #ff0000; stroke: #ff0000; stroke-width: 1.5"/>
     <use xlink:href="#mdc0741d33a" x="236.77393" y="214.201795" style="fill: #ff0000; stroke: #ff0000; stroke-width: 1.5"/>
     <use xlink:href="#mdc0741d33a" x="236.77393" y="189.691366" style="fill: #ff0000; stroke: #ff0000; stroke-width: 1.5"/>
     <use xlink:href="#mdc0741d33a" x="187.47582" y="165.180938" style="fill: #ff0000; stroke: #ff0000; stroke-width: 1.5"/>
     <use xlink:href="#mdc0741d33a" x="187.47582" y="140.670509" style="fill: #ff0000; stroke: #ff0000; stroke-width: 1.5"/>
     <use xlink:href="#mdc0741d33a" x="138.17771" y="116.16008" style="fill: #ff0000; stroke: #ff0000; stroke-width: 1.5"/>
     <use xlink:href="#mdc0741d33a" x="138.17771" y="91.649651" style="fill: #ff0000; stroke: #ff0000; stroke-width: 1.5"/>
     <use xlink:href="#mdc0741d33a" x="138.17771" y="67.139223" style="fill: #ff0000; stroke: #ff0000; stroke-width: 1.5"/>
     <use xlink:href="#mdc0741d33a" x="88.8796" y="42.628794" style="fill: #ff0000; stroke: #ff0000; stroke-width: 1.5"/>
     <use xlink:href="#mdc0741d33a" x="88.8796" y="18.118365" style="fill: #ff0000; stroke: #ff0000; stroke-width: 1.5"/>
    </g>
   </g>
   <g id="matplotlib.axis_1">
    <g id="xtick_1">
     <g id="line2d_1">
      <defs>
       <path id="m38f3b05bbe" d="M 0 0 
L 0 3.5 
" style="stroke: #000000; stroke-width: 0.8"/>
      </defs>
      <g>
       <use xlink:href="#m38f3b05bbe" x="88.8796" y="312.24351" style="stroke: #000000; stroke-width: 0.8"/>
      </g>
     </g>
     <g id="text_1">
      <!-- $\mathdefault{10^{-2}}$ -->
      <g transform="translate(77.1296 326.841947) scale(0.1 -0.1)">
       <defs>
        <path id="DejaVuSans-31" d="M 794 531 
L 1825 531 
L 1825 4091 
L 703 3866 
L 703 4441 
L 1819 4666 
L 2450 4666 
L 2450 531 
L 3481 531 
L 3481 0 
L 794 0 
L 794 531 
z
" transform="scale(0.015625)"/>
        <path id="DejaVuSans-30" d="M 2034 4250 
Q 1547 4250 1301 3770 
Q 1056 3291 1056 2328 
Q 1056 1369 1301 889 
Q 1547 409 2034 409 
Q 2525 409 2770 889 
Q 3016 1369 3016 2328 
Q 3016 3291 2770 3770 
Q 2525 4250 2034 4250 
z
M 2034 4750 
Q 2819 4750 3233 4129 
Q 3647 3509 3647 2328 
Q 3647 1150 3233 529 
Q 2819 -91 2034 -91 
Q 1250 -91 836 529 
Q 422 1150 422 2328 
Q 422 3509 836 4129 
Q 1250 4750 2034 4750 
z
" transform="scale(0.015625)"/>
        <path id="DejaVuSans-2212" d="M 678 2272 
L 4684 2272 
L 4684 1741 
L 678 1741 
L 678 2272 
z
" transform="scale(0.015625)"/>
        <path id="DejaVuSans-32" d="M 1228 531 
L 3431 531 
L 3431 0 
L 469 0 
L 469 531 
Q 828 903 1448 1529 
Q 2069 2156 2228 2338 
Q 2531 2678 2651 2914 
Q 2772 3150 2772 3378 
Q 2772 3750 2511 3984 
Q 2250 4219 1831 4219 
Q 1534 4219 1204 4116 
Q 875 4013 500 3803 
L 500 4441 
Q 881 4594 1212 4672 
Q 1544 4750 1819 4750 
Q 2544 4750 2975 4387 
Q 3406 4025 3406 3419 
Q 3406 3131 3298 2873 
Q 3191 2616 2906 2266 
Q 2828 2175 2409 1742 
Q 1991 1309 1228 531 
z
" transform="scale(0.015625)"/>
       </defs>
       <use xlink:href="#DejaVuSans-31" transform="translate(0 0.765625)"/>
       <use xlink:href="#DejaVuSans-30" transform="translate(63.623047 0.765625)"/>
       <use xlink:href="#DejaVuSans-2212" transform="translate(128.203125 39.046875) scale(0.7)"/>
       <use xlink:href="#DejaVuSans-32" transform="translate(186.855469 39.046875) scale(0.7)"/>
      </g>
     </g>
    </g>
    <g id="xtick_2">
     <g id="line2d_2">
      <g>
       <use xlink:href="#m38f3b05bbe" x="286.07204" y="312.24351" style="stroke: #000000; stroke-width: 0.8"/>
      </g>
     </g>
     <g id="text_2">
      <!-- $\mathdefault{10^{-1}}$ -->
      <g transform="translate(274.32204 326.841947) scale(0.1 -0.1)">
       <use xlink:href="#DejaVuSans-31" transform="translate(0 0.684375)"/>
       <use xlink:href="#DejaVuSans-30" transform="translate(63.623047 0.684375)"/>
       <use xlink:href="#DejaVuSans-2212" transform="translate(128.203125 38.965625) scale(0.7)"/>
       <use xlink:href="#DejaVuSans-31" transform="translate(186.855469 38.965625) scale(0.7)"/>
      </g>
     </g>
    </g>
    <g id="xtick_3">
     <g id="line2d_3">
      <defs>
       <path id="m360e1f0208" d="M 0 0 
L 0 2 
" style="stroke: #000000; stroke-width: 0.6"/>
      </defs>
      <g>
       <use xlink:href="#m360e1f0208" x="45.132704" y="312.24351" style="stroke: #000000; stroke-width: 0.6"/>
      </g>
     </g>
    </g>
    <g id="xtick_4">
     <g id="line2d_4">
      <g>
       <use xlink:href="#m360e1f0208" x="58.334105" y="312.24351" style="stroke: #000000; stroke-width: 0.6"/>
      </g>
     </g>
    </g>
    <g id="xtick_5">
     <g id="line2d_5">
      <g>
       <use xlink:href="#m360e1f0208" x="69.769678" y="312.24351" style="stroke: #000000; stroke-width: 0.6"/>
      </g>
     </g>
    </g>
    <g id="xtick_6">
     <g id="line2d_6">
      <g>
       <use xlink:href="#m360e1f0208" x="79.856569" y="312.24351" style="stroke: #000000; stroke-width: 0.6"/>
      </g>
     </g>
    </g>
    <g id="xtick_7">
     <g id="line2d_7">
      <g>
       <use xlink:href="#m360e1f0208" x="148.240439" y="312.24351" style="stroke: #000000; stroke-width: 0.6"/>
      </g>
     </g>
    </g>
    <g id="xtick_8">
     <g id="line2d_8">
      <g>
       <use xlink:href="#m360e1f0208" x="182.964304" y="312.24351" style="stroke: #000000; stroke-width: 0.6"/>
      </g>
     </g>
    </g>
    <g id="xtick_9">
     <g id="line2d_9">
      <g>
       <use xlink:href="#m360e1f0208" x="207.601279" y="312.24351" style="stroke: #000000; stroke-width: 0.6"/>
      </g>
     </g>
    </g>
    <g id="xtick_10">
     <g id="line2d_10">
      <g>
       <use xlink:href="#m360e1f0208" x="226.711201" y="312.24351" style="stroke: #000000; stroke-width: 0.6"/>
      </g>
     </g>
    </g>
    <g id="xtick_11">
     <g id="line2d_11">
      <g>
       <use xlink:href="#m360e1f0208" x="242.325144" y="312.24351" style="stroke: #000000; stroke-width: 0.6"/>
      </g>
     </g>
    </g>
    <g id="xtick_12">
     <g id="line2d_12">
      <g>
       <use xlink:href="#m360e1f0208" x="255.526544" y="312.24351" style="stroke: #000000; stroke-width: 0.6"/>
      </g>
     </g>
    </g>
    <g id="xtick_13">
     <g id="line2d_13">
      <g>
       <use xlink:href="#m360e1f0208" x="266.962118" y="312.24351" style="stroke: #000000; stroke-width: 0.6"/>
      </g>
     </g>
    </g>
    <g id="xtick_14">
     <g id="line2d_14">
      <g>
       <use xlink:href="#m360e1f0208" x="277.049009" y="312.24351" style="stroke: #000000; stroke-width: 0.6"/>
      </g>
     </g>
    </g>
    <g id="xtick_15">
     <g id="line2d_15">
      <g>
       <use xlink:href="#m360e1f0208" x="345.432879" y="312.24351" style="stroke: #000000; stroke-width: 0.6"/>
      </g>
     </g>
    </g>
    <g id="xtick_16">
     <g id="line2d_16">
      <g>
       <use xlink:href="#m360e1f0208" x="380.156744" y="312.24351" style="stroke: #000000; stroke-width: 0.6"/>
      </g>
     </g>
    </g>
    <g id="text_3">
     <!-- bandwidth -->
     <g transform="translate(185.762375 340.520072) scale(0.1 -0.1)">
      <defs>
       <path id="DejaVuSans-62" d="M 3116 1747 
Q 3116 2381 2855 2742 
Q 2594 3103 2138 3103 
Q 1681 3103 1420 2742 
Q 1159 2381 1159 1747 
Q 1159 1113 1420 752 
Q 1681 391 2138 391 
Q 2594 391 2855 752 
Q 3116 1113 3116 1747 
z
M 1159 2969 
Q 1341 3281 1617 3432 
Q 1894 3584 2278 3584 
Q 2916 3584 3314 3078 
Q 3713 2572 3713 1747 
Q 3713 922 3314 415 
Q 2916 -91 2278 -91 
Q 1894 -91 1617 61 
Q 1341 213 1159 525 
L 1159 0 
L 581 0 
L 581 4863 
L 1159 4863 
L 1159 2969 
z
" transform="scale(0.015625)"/>
       <path id="DejaVuSans-61" d="M 2194 1759 
Q 1497 1759 1228 1600 
Q 959 1441 959 1056 
Q 959 750 1161 570 
Q 1363 391 1709 391 
Q 2188 391 2477 730 
Q 2766 1069 2766 1631 
L 2766 1759 
L 2194 1759 
z
M 3341 1997 
L 3341 0 
L 2766 0 
L 2766 531 
Q 2569 213 2275 61 
Q 1981 -91 1556 -91 
Q 1019 -91 701 211 
Q 384 513 384 1019 
Q 384 1609 779 1909 
Q 1175 2209 1959 2209 
L 2766 2209 
L 2766 2266 
Q 2766 2663 2505 2880 
Q 2244 3097 1772 3097 
Q 1472 3097 1187 3025 
Q 903 2953 641 2809 
L 641 3341 
Q 956 3463 1253 3523 
Q 1550 3584 1831 3584 
Q 2591 3584 2966 3190 
Q 3341 2797 3341 1997 
z
" transform="scale(0.015625)"/>
       <path id="DejaVuSans-6e" d="M 3513 2113 
L 3513 0 
L 2938 0 
L 2938 2094 
Q 2938 2591 2744 2837 
Q 2550 3084 2163 3084 
Q 1697 3084 1428 2787 
Q 1159 2491 1159 1978 
L 1159 0 
L 581 0 
L 581 3500 
L 1159 3500 
L 1159 2956 
Q 1366 3272 1645 3428 
Q 1925 3584 2291 3584 
Q 2894 3584 3203 3211 
Q 3513 2838 3513 2113 
z
" transform="scale(0.015625)"/>
       <path id="DejaVuSans-64" d="M 2906 2969 
L 2906 4863 
L 3481 4863 
L 3481 0 
L 2906 0 
L 2906 525 
Q 2725 213 2448 61 
Q 2172 -91 1784 -91 
Q 1150 -91 751 415 
Q 353 922 353 1747 
Q 353 2572 751 3078 
Q 1150 3584 1784 3584 
Q 2172 3584 2448 3432 
Q 2725 3281 2906 2969 
z
M 947 1747 
Q 947 1113 1208 752 
Q 1469 391 1925 391 
Q 2381 391 2643 752 
Q 2906 1113 2906 1747 
Q 2906 2381 2643 2742 
Q 2381 3103 1925 3103 
Q 1469 3103 1208 2742 
Q 947 2381 947 1747 
z
" transform="scale(0.015625)"/>
       <path id="DejaVuSans-77" d="M 269 3500 
L 844 3500 
L 1563 769 
L 2278 3500 
L 2956 3500 
L 3675 769 
L 4391 3500 
L 4966 3500 
L 4050 0 
L 3372 0 
L 2619 2869 
L 1863 0 
L 1184 0 
L 269 3500 
z
" transform="scale(0.015625)"/>
       <path id="DejaVuSans-69" d="M 603 3500 
L 1178 3500 
L 1178 0 
L 603 0 
L 603 3500 
z
M 603 4863 
L 1178 4863 
L 1178 4134 
L 603 4134 
L 603 4863 
z
" transform="scale(0.015625)"/>
       <path id="DejaVuSans-74" d="M 1172 4494 
L 1172 3500 
L 2356 3500 
L 2356 3053 
L 1172 3053 
L 1172 1153 
Q 1172 725 1289 603 
Q 1406 481 1766 481 
L 2356 481 
L 2356 0 
L 1766 0 
Q 1100 0 847 248 
Q 594 497 594 1153 
L 594 3053 
L 172 3053 
L 172 3500 
L 594 3500 
L 594 4494 
L 1172 4494 
z
" transform="scale(0.015625)"/>
       <path id="DejaVuSans-68" d="M 3513 2113 
L 3513 0 
L 2938 0 
L 2938 2094 
Q 2938 2591 2744 2837 
Q 2550 3084 2163 3084 
Q 1697 3084 1428 2787 
Q 1159 2491 1159 1978 
L 1159 0 
L 581 0 
L 581 4863 
L 1159 4863 
L 1159 2956 
Q 1366 3272 1645 3428 
Q 1925 3584 2291 3584 
Q 2894 3584 3203 3211 
Q 3513 2838 3513 2113 
z
" transform="scale(0.015625)"/>
      </defs>
      <use xlink:href="#DejaVuSans-62"/>
      <use xlink:href="#DejaVuSans-61" transform="translate(63.476562 0)"/>
      <use xlink:href="#DejaVuSans-6e" transform="translate(124.755859 0)"/>
      <use xlink:href="#DejaVuSans-64" transform="translate(188.134766 0)"/>
      <use xlink:href="#DejaVuSans-77" transform="translate(251.611328 0)"/>
      <use xlink:href="#DejaVuSans-69" transform="translate(333.398438 0)"/>
      <use xlink:href="#DejaVuSans-64" transform="translate(361.181641 0)"/>
      <use xlink:href="#DejaVuSans-74" transform="translate(424.658203 0)"/>
      <use xlink:href="#DejaVuSans-68" transform="translate(463.867188 0)"/>
     </g>
    </g>
   </g>
   <g id="matplotlib.axis_2">
    <g id="ytick_1">
     <g id="line2d_17">
      <defs>
       <path id="mbd2f377c6c" d="M 0 0 
L -3.5 0 
" style="stroke: #000000; stroke-width: 0.8"/>
      </defs>
      <g>
       <use xlink:href="#mbd2f377c6c" x="39.58149" y="312.24351" style="stroke: #000000; stroke-width: 0.8"/>
      </g>
     </g>
     <g id="text_4">
      <!-- 1.0 -->
      <g transform="translate(16.678365 316.042729) scale(0.1 -0.1)">
       <defs>
        <path id="DejaVuSans-2e" d="M 684 794 
L 1344 794 
L 1344 0 
L 684 0 
L 684 794 
z
" transform="scale(0.015625)"/>
       </defs>
       <use xlink:href="#DejaVuSans-31"/>
       <use xlink:href="#DejaVuSans-2e" transform="translate(63.623047 0)"/>
       <use xlink:href="#DejaVuSans-30" transform="translate(95.410156 0)"/>
      </g>
     </g>
    </g>
    <g id="ytick_2">
     <g id="line2d_18">
      <g>
       <use xlink:href="#mbd2f377c6c" x="39.58149" y="263.222652" style="stroke: #000000; stroke-width: 0.8"/>
      </g>
     </g>
     <g id="text_5">
      <!-- 1.5 -->
      <g transform="translate(16.678365 267.021871) scale(0.1 -0.1)">
       <defs>
        <path id="DejaVuSans-35" d="M 691 4666 
L 3169 4666 
L 3169 4134 
L 1269 4134 
L 1269 2991 
Q 1406 3038 1543 3061 
Q 1681 3084 1819 3084 
Q 2600 3084 3056 2656 
Q 3513 2228 3513 1497 
Q 3513 744 3044 326 
Q 2575 -91 1722 -91 
Q 1428 -91 1123 -41 
Q 819 9 494 109 
L 494 744 
Q 775 591 1075 516 
Q 1375 441 1709 441 
Q 2250 441 2565 725 
Q 2881 1009 2881 1497 
Q 2881 1984 2565 2268 
Q 2250 2553 1709 2553 
Q 1456 2553 1204 2497 
Q 953 2441 691 2322 
L 691 4666 
z
" transform="scale(0.015625)"/>
       </defs>
       <use xlink:href="#DejaVuSans-31"/>
       <use xlink:href="#DejaVuSans-2e" transform="translate(63.623047 0)"/>
       <use xlink:href="#DejaVuSans-35" transform="translate(95.410156 0)"/>
      </g>
     </g>
    </g>
    <g id="ytick_3">
     <g id="line2d_19">
      <g>
       <use xlink:href="#mbd2f377c6c" x="39.58149" y="214.201795" style="stroke: #000000; stroke-width: 0.8"/>
      </g>
     </g>
     <g id="text_6">
      <!-- 2.0 -->
      <g transform="translate(16.678365 218.001014) scale(0.1 -0.1)">
       <use xlink:href="#DejaVuSans-32"/>
       <use xlink:href="#DejaVuSans-2e" transform="translate(63.623047 0)"/>
       <use xlink:href="#DejaVuSans-30" transform="translate(95.410156 0)"/>
      </g>
     </g>
    </g>
    <g id="ytick_4">
     <g id="line2d_20">
      <g>
       <use xlink:href="#mbd2f377c6c" x="39.58149" y="165.180938" style="stroke: #000000; stroke-width: 0.8"/>
      </g>
     </g>
     <g id="text_7">
      <!-- 2.5 -->
      <g transform="translate(16.678365 168.980156) scale(0.1 -0.1)">
       <use xlink:href="#DejaVuSans-32"/>
       <use xlink:href="#DejaVuSans-2e" transform="translate(63.623047 0)"/>
       <use xlink:href="#DejaVuSans-35" transform="translate(95.410156 0)"/>
      </g>
     </g>
    </g>
    <g id="ytick_5">
     <g id="line2d_21">
      <g>
       <use xlink:href="#mbd2f377c6c" x="39.58149" y="116.16008" style="stroke: #000000; stroke-width: 0.8"/>
      </g>
     </g>
     <g id="text_8">
      <!-- 3.0 -->
      <g transform="translate(16.678365 119.959299) scale(0.1 -0.1)">
       <defs>
        <path id="DejaVuSans-33" d="M 2597 2516 
Q 3050 2419 3304 2112 
Q 3559 1806 3559 1356 
Q 3559 666 3084 287 
Q 2609 -91 1734 -91 
Q 1441 -91 1130 -33 
Q 819 25 488 141 
L 488 750 
Q 750 597 1062 519 
Q 1375 441 1716 441 
Q 2309 441 2620 675 
Q 2931 909 2931 1356 
Q 2931 1769 2642 2001 
Q 2353 2234 1838 2234 
L 1294 2234 
L 1294 2753 
L 1863 2753 
Q 2328 2753 2575 2939 
Q 2822 3125 2822 3475 
Q 2822 3834 2567 4026 
Q 2313 4219 1838 4219 
Q 1578 4219 1281 4162 
Q 984 4106 628 3988 
L 628 4550 
Q 988 4650 1302 4700 
Q 1616 4750 1894 4750 
Q 2613 4750 3031 4423 
Q 3450 4097 3450 3541 
Q 3450 3153 3228 2886 
Q 3006 2619 2597 2516 
z
" transform="scale(0.015625)"/>
       </defs>
       <use xlink:href="#DejaVuSans-33"/>
       <use xlink:href="#DejaVuSans-2e" transform="translate(63.623047 0)"/>
       <use xlink:href="#DejaVuSans-30" transform="translate(95.410156 0)"/>
      </g>
     </g>
    </g>
    <g id="ytick_6">
     <g id="line2d_22">
      <g>
       <use xlink:href="#mbd2f377c6c" x="39.58149" y="67.139223" style="stroke: #000000; stroke-width: 0.8"/>
      </g>
     </g>
     <g id="text_9">
      <!-- 3.5 -->
      <g transform="translate(16.678365 70.938441) scale(0.1 -0.1)">
       <use xlink:href="#DejaVuSans-33"/>
       <use xlink:href="#DejaVuSans-2e" transform="translate(63.623047 0)"/>
       <use xlink:href="#DejaVuSans-35" transform="translate(95.410156 0)"/>
      </g>
     </g>
    </g>
    <g id="ytick_7">
     <g id="line2d_23">
      <g>
       <use xlink:href="#mbd2f377c6c" x="39.58149" y="18.118365" style="stroke: #000000; stroke-width: 0.8"/>
      </g>
     </g>
     <g id="text_10">
      <!-- 4.0 -->
      <g transform="translate(16.678365 21.917584) scale(0.1 -0.1)">
       <defs>
        <path id="DejaVuSans-34" d="M 2419 4116 
L 825 1625 
L 2419 1625 
L 2419 4116 
z
M 2253 4666 
L 3047 4666 
L 3047 1625 
L 3713 1625 
L 3713 1100 
L 3047 1100 
L 3047 0 
L 2419 0 
L 2419 1100 
L 313 1100 
L 313 1709 
L 2253 4666 
z
" transform="scale(0.015625)"/>
       </defs>
       <use xlink:href="#DejaVuSans-34"/>
       <use xlink:href="#DejaVuSans-2e" transform="translate(63.623047 0)"/>
       <use xlink:href="#DejaVuSans-30" transform="translate(95.410156 0)"/>
      </g>
     </g>
    </g>
    <g id="text_11">
     <!-- alpha -->
     <g transform="translate(10.598677 179.041094) rotate(-90) scale(0.1 -0.1)">
      <defs>
       <path id="DejaVuSans-6c" d="M 603 4863 
L 1178 4863 
L 1178 0 
L 603 0 
L 603 4863 
z
" transform="scale(0.015625)"/>
       <path id="DejaVuSans-70" d="M 1159 525 
L 1159 -1331 
L 581 -1331 
L 581 3500 
L 1159 3500 
L 1159 2969 
Q 1341 3281 1617 3432 
Q 1894 3584 2278 3584 
Q 2916 3584 3314 3078 
Q 3713 2572 3713 1747 
Q 3713 922 3314 415 
Q 2916 -91 2278 -91 
Q 1894 -91 1617 61 
Q 1341 213 1159 525 
z
M 3116 1747 
Q 3116 2381 2855 2742 
Q 2594 3103 2138 3103 
Q 1681 3103 1420 2742 
Q 1159 2381 1159 1747 
Q 1159 1113 1420 752 
Q 1681 391 2138 391 
Q 2594 391 2855 752 
Q 3116 1113 3116 1747 
z
" transform="scale(0.015625)"/>
      </defs>
      <use xlink:href="#DejaVuSans-61"/>
      <use xlink:href="#DejaVuSans-6c" transform="translate(61.279297 0)"/>
      <use xlink:href="#DejaVuSans-70" transform="translate(89.0625 0)"/>
      <use xlink:href="#DejaVuSans-68" transform="translate(152.539062 0)"/>
      <use xlink:href="#DejaVuSans-61" transform="translate(215.917969 0)"/>
     </g>
    </g>
   </g>
   <g id="patch_3">
    <path d="M 39.58149 312.24351 
L 39.58149 18.118365 
" style="fill: none; stroke: #000000; stroke-width: 0.8; stroke-linejoin: miter; stroke-linecap: square"/>
   </g>
   <g id="patch_4">
    <path d="M 384.66826 312.24351 
L 384.66826 18.118365 
" style="fill: none; stroke: #000000; stroke-width: 0.8; stroke-linejoin: miter; stroke-linecap: square"/>
   </g>
   <g id="patch_5">
    <path d="M 39.58149 312.24351 
L 384.66826 312.24351 
" style="fill: none; stroke: #000000; stroke-width: 0.8; stroke-linejoin: miter; stroke-linecap: square"/>
   </g>
   <g id="patch_6">
    <path d="M 39.58149 18.118365 
L 384.66826 18.118365 
" style="fill: none; stroke: #000000; stroke-width: 0.8; stroke-linejoin: miter; stroke-linecap: square"/>
   </g>
   <g id="text_12">
    <!-- lunas_lo 1188 fkdc -->
    <g transform="translate(155.933937 12.118365) scale(0.12 -0.12)">
     <defs>
      <path id="DejaVuSans-75" d="M 544 1381 
L 544 3500 
L 1119 3500 
L 1119 1403 
Q 1119 906 1312 657 
Q 1506 409 1894 409 
Q 2359 409 2629 706 
Q 2900 1003 2900 1516 
L 2900 3500 
L 3475 3500 
L 3475 0 
L 2900 0 
L 2900 538 
Q 2691 219 2414 64 
Q 2138 -91 1772 -91 
Q 1169 -91 856 284 
Q 544 659 544 1381 
z
M 1991 3584 
L 1991 3584 
z
" transform="scale(0.015625)"/>
      <path id="DejaVuSans-73" d="M 2834 3397 
L 2834 2853 
Q 2591 2978 2328 3040 
Q 2066 3103 1784 3103 
Q 1356 3103 1142 2972 
Q 928 2841 928 2578 
Q 928 2378 1081 2264 
Q 1234 2150 1697 2047 
L 1894 2003 
Q 2506 1872 2764 1633 
Q 3022 1394 3022 966 
Q 3022 478 2636 193 
Q 2250 -91 1575 -91 
Q 1294 -91 989 -36 
Q 684 19 347 128 
L 347 722 
Q 666 556 975 473 
Q 1284 391 1588 391 
Q 1994 391 2212 530 
Q 2431 669 2431 922 
Q 2431 1156 2273 1281 
Q 2116 1406 1581 1522 
L 1381 1569 
Q 847 1681 609 1914 
Q 372 2147 372 2553 
Q 372 3047 722 3315 
Q 1072 3584 1716 3584 
Q 2034 3584 2315 3537 
Q 2597 3491 2834 3397 
z
" transform="scale(0.015625)"/>
      <path id="DejaVuSans-5f" d="M 3263 -1063 
L 3263 -1509 
L -63 -1509 
L -63 -1063 
L 3263 -1063 
z
" transform="scale(0.015625)"/>
      <path id="DejaVuSans-6f" d="M 1959 3097 
Q 1497 3097 1228 2736 
Q 959 2375 959 1747 
Q 959 1119 1226 758 
Q 1494 397 1959 397 
Q 2419 397 2687 759 
Q 2956 1122 2956 1747 
Q 2956 2369 2687 2733 
Q 2419 3097 1959 3097 
z
M 1959 3584 
Q 2709 3584 3137 3096 
Q 3566 2609 3566 1747 
Q 3566 888 3137 398 
Q 2709 -91 1959 -91 
Q 1206 -91 779 398 
Q 353 888 353 1747 
Q 353 2609 779 3096 
Q 1206 3584 1959 3584 
z
" transform="scale(0.015625)"/>
      <path id="DejaVuSans-20" transform="scale(0.015625)"/>
      <path id="DejaVuSans-38" d="M 2034 2216 
Q 1584 2216 1326 1975 
Q 1069 1734 1069 1313 
Q 1069 891 1326 650 
Q 1584 409 2034 409 
Q 2484 409 2743 651 
Q 3003 894 3003 1313 
Q 3003 1734 2745 1975 
Q 2488 2216 2034 2216 
z
M 1403 2484 
Q 997 2584 770 2862 
Q 544 3141 544 3541 
Q 544 4100 942 4425 
Q 1341 4750 2034 4750 
Q 2731 4750 3128 4425 
Q 3525 4100 3525 3541 
Q 3525 3141 3298 2862 
Q 3072 2584 2669 2484 
Q 3125 2378 3379 2068 
Q 3634 1759 3634 1313 
Q 3634 634 3220 271 
Q 2806 -91 2034 -91 
Q 1263 -91 848 271 
Q 434 634 434 1313 
Q 434 1759 690 2068 
Q 947 2378 1403 2484 
z
M 1172 3481 
Q 1172 3119 1398 2916 
Q 1625 2713 2034 2713 
Q 2441 2713 2670 2916 
Q 2900 3119 2900 3481 
Q 2900 3844 2670 4047 
Q 2441 4250 2034 4250 
Q 1625 4250 1398 4047 
Q 1172 3844 1172 3481 
z
" transform="scale(0.015625)"/>
      <path id="DejaVuSans-66" d="M 2375 4863 
L 2375 4384 
L 1825 4384 
Q 1516 4384 1395 4259 
Q 1275 4134 1275 3809 
L 1275 3500 
L 2222 3500 
L 2222 3053 
L 1275 3053 
L 1275 0 
L 697 0 
L 697 3053 
L 147 3053 
L 147 3500 
L 697 3500 
L 697 3744 
Q 697 4328 969 4595 
Q 1241 4863 1831 4863 
L 2375 4863 
z
" transform="scale(0.015625)"/>
      <path id="DejaVuSans-6b" d="M 581 4863 
L 1159 4863 
L 1159 1991 
L 2875 3500 
L 3609 3500 
L 1753 1863 
L 3688 0 
L 2938 0 
L 1159 1709 
L 1159 0 
L 581 0 
L 581 4863 
z
" transform="scale(0.015625)"/>
      <path id="DejaVuSans-63" d="M 3122 3366 
L 3122 2828 
Q 2878 2963 2633 3030 
Q 2388 3097 2138 3097 
Q 1578 3097 1268 2742 
Q 959 2388 959 1747 
Q 959 1106 1268 751 
Q 1578 397 2138 397 
Q 2388 397 2633 464 
Q 2878 531 3122 666 
L 3122 134 
Q 2881 22 2623 -34 
Q 2366 -91 2075 -91 
Q 1284 -91 818 406 
Q 353 903 353 1747 
Q 353 2603 823 3093 
Q 1294 3584 2113 3584 
Q 2378 3584 2631 3529 
Q 2884 3475 3122 3366 
z
" transform="scale(0.015625)"/>
     </defs>
     <use xlink:href="#DejaVuSans-6c"/>
     <use xlink:href="#DejaVuSans-75" transform="translate(27.783203 0)"/>
     <use xlink:href="#DejaVuSans-6e" transform="translate(91.162109 0)"/>
     <use xlink:href="#DejaVuSans-61" transform="translate(154.541016 0)"/>
     <use xlink:href="#DejaVuSans-73" transform="translate(215.820312 0)"/>
     <use xlink:href="#DejaVuSans-5f" transform="translate(267.919922 0)"/>
     <use xlink:href="#DejaVuSans-6c" transform="translate(317.919922 0)"/>
     <use xlink:href="#DejaVuSans-6f" transform="translate(345.703125 0)"/>
     <use xlink:href="#DejaVuSans-20" transform="translate(406.884766 0)"/>
     <use xlink:href="#DejaVuSans-31" transform="translate(438.671875 0)"/>
     <use xlink:href="#DejaVuSans-31" transform="translate(502.294922 0)"/>
     <use xlink:href="#DejaVuSans-38" transform="translate(565.917969 0)"/>
     <use xlink:href="#DejaVuSans-38" transform="translate(629.541016 0)"/>
     <use xlink:href="#DejaVuSans-20" transform="translate(693.164062 0)"/>
     <use xlink:href="#DejaVuSans-66" transform="translate(724.951172 0)"/>
     <use xlink:href="#DejaVuSans-6b" transform="translate(760.15625 0)"/>
     <use xlink:href="#DejaVuSans-64" transform="translate(818.066406 0)"/>
     <use xlink:href="#DejaVuSans-63" transform="translate(881.542969 0)"/>
    </g>
   </g>
  </g>
  <g id="axes_2">
   <g id="patch_7">
    <path d="M 401.922598 312.24351 
L 416.628856 312.24351 
L 416.628856 18.118365 
L 401.922598 18.118365 
z
" style="fill: #ffffff"/>
   </g>
   <g id="QuadMesh_1">
    <path d="M 401.922598 312.24351 
L 416.628856 312.24351 
L 416.628856 293.860688 
L 401.922598 293.860688 
L 401.922598 312.24351 
" clip-path="url(#pa38a546031)" style="fill: #470d60"/>
    <path d="M 401.922598 293.860688 
L 416.628856 293.860688 
L 416.628856 275.477867 
L 401.922598 275.477867 
L 401.922598 293.860688 
" clip-path="url(#pa38a546031)" style="fill: #482173"/>
    <path d="M 401.922598 275.477867 
L 416.628856 275.477867 
L 416.628856 257.095045 
L 401.922598 257.095045 
L 401.922598 275.477867 
" clip-path="url(#pa38a546031)" style="fill: #453781"/>
    <path d="M 401.922598 257.095045 
L 416.628856 257.095045 
L 416.628856 238.712224 
L 401.922598 238.712224 
L 401.922598 257.095045 
" clip-path="url(#pa38a546031)" style="fill: #3e4989"/>
    <path d="M 401.922598 238.712224 
L 416.628856 238.712224 
L 416.628856 220.329402 
L 401.922598 220.329402 
L 401.922598 238.712224 
" clip-path="url(#pa38a546031)" style="fill: #375a8c"/>
    <path d="M 401.922598 220.329402 
L 416.628856 220.329402 
L 416.628856 201.946581 
L 401.922598 201.946581 
L 401.922598 220.329402 
" clip-path="url(#pa38a546031)" style="fill: #2f6b8e"/>
    <path d="M 401.922598 201.946581 
L 416.628856 201.946581 
L 416.628856 183.563759 
L 401.922598 183.563759 
L 401.922598 201.946581 
" clip-path="url(#pa38a546031)" style="fill: #297a8e"/>
    <path d="M 401.922598 183.563759 
L 416.628856 183.563759 
L 416.628856 165.180937 
L 401.922598 165.180937 
L 401.922598 183.563759 
" clip-path="url(#pa38a546031)" style="fill: #23898e"/>
    <path d="M 401.922598 165.180937 
L 416.628856 165.180937 
L 416.628856 146.798116 
L 401.922598 146.798116 
L 401.922598 165.180937 
" clip-path="url(#pa38a546031)" style="fill: #1f988b"/>
    <path d="M 401.922598 146.798116 
L 416.628856 146.798116 
L 416.628856 128.415294 
L 401.922598 128.415294 
L 401.922598 146.798116 
" clip-path="url(#pa38a546031)" style="fill: #21a685"/>
    <path d="M 401.922598 128.415294 
L 416.628856 128.415294 
L 416.628856 110.032473 
L 401.922598 110.032473 
L 401.922598 128.415294 
" clip-path="url(#pa38a546031)" style="fill: #32b67a"/>
    <path d="M 401.922598 110.032473 
L 416.628856 110.032473 
L 416.628856 91.649651 
L 401.922598 91.649651 
L 401.922598 110.032473 
" clip-path="url(#pa38a546031)" style="fill: #4ec36b"/>
    <path d="M 401.922598 91.649651 
L 416.628856 91.649651 
L 416.628856 73.26683 
L 401.922598 73.26683 
L 401.922598 91.649651 
" clip-path="url(#pa38a546031)" style="fill: #70cf57"/>
    <path d="M 401.922598 73.26683 
L 416.628856 73.26683 
L 416.628856 54.884008 
L 401.922598 54.884008 
L 401.922598 73.26683 
" clip-path="url(#pa38a546031)" style="fill: #98d83e"/>
    <path d="M 401.922598 54.884008 
L 416.628856 54.884008 
L 416.628856 36.501187 
L 401.922598 36.501187 
L 401.922598 54.884008 
" clip-path="url(#pa38a546031)" style="fill: #c2df23"/>
    <path d="M 401.922598 36.501187 
L 416.628856 36.501187 
L 416.628856 18.118365 
L 401.922598 18.118365 
L 401.922598 36.501187 
" clip-path="url(#pa38a546031)" style="fill: #ece51b"/>
   </g>
   <g id="matplotlib.axis_3"/>
   <g id="matplotlib.axis_4">
    <g id="ytick_8">
     <g id="line2d_24">
      <defs>
       <path id="m0a27ea52cb" d="M 0 0 
L 3.5 0 
" style="stroke: #000000; stroke-width: 0.8"/>
      </defs>
      <g>
       <use xlink:href="#m0a27ea52cb" x="416.628856" y="312.24351" style="stroke: #000000; stroke-width: 0.8"/>
      </g>
     </g>
     <g id="text_13">
      <!-- -3.2 -->
      <g transform="translate(423.628856 316.042729) scale(0.1 -0.1)">
       <defs>
        <path id="DejaVuSans-2d" d="M 313 2009 
L 1997 2009 
L 1997 1497 
L 313 1497 
L 313 2009 
z
" transform="scale(0.015625)"/>
       </defs>
       <use xlink:href="#DejaVuSans-2d"/>
       <use xlink:href="#DejaVuSans-33" transform="translate(36.083984 0)"/>
       <use xlink:href="#DejaVuSans-2e" transform="translate(99.707031 0)"/>
       <use xlink:href="#DejaVuSans-32" transform="translate(131.494141 0)"/>
      </g>
     </g>
    </g>
    <g id="ytick_9">
     <g id="line2d_25">
      <g>
       <use xlink:href="#m0a27ea52cb" x="416.628856" y="275.477867" style="stroke: #000000; stroke-width: 0.8"/>
      </g>
     </g>
     <g id="text_14">
      <!-- -2.8 -->
      <g transform="translate(423.628856 279.277086) scale(0.1 -0.1)">
       <use xlink:href="#DejaVuSans-2d"/>
       <use xlink:href="#DejaVuSans-32" transform="translate(36.083984 0)"/>
       <use xlink:href="#DejaVuSans-2e" transform="translate(99.707031 0)"/>
       <use xlink:href="#DejaVuSans-38" transform="translate(131.494141 0)"/>
      </g>
     </g>
    </g>
    <g id="ytick_10">
     <g id="line2d_26">
      <g>
       <use xlink:href="#m0a27ea52cb" x="416.628856" y="238.712224" style="stroke: #000000; stroke-width: 0.8"/>
      </g>
     </g>
     <g id="text_15">
      <!-- -2.4 -->
      <g transform="translate(423.628856 242.511442) scale(0.1 -0.1)">
       <use xlink:href="#DejaVuSans-2d"/>
       <use xlink:href="#DejaVuSans-32" transform="translate(36.083984 0)"/>
       <use xlink:href="#DejaVuSans-2e" transform="translate(99.707031 0)"/>
       <use xlink:href="#DejaVuSans-34" transform="translate(131.494141 0)"/>
      </g>
     </g>
    </g>
    <g id="ytick_11">
     <g id="line2d_27">
      <g>
       <use xlink:href="#m0a27ea52cb" x="416.628856" y="201.946581" style="stroke: #000000; stroke-width: 0.8"/>
      </g>
     </g>
     <g id="text_16">
      <!-- -2.0 -->
      <g transform="translate(423.628856 205.745799) scale(0.1 -0.1)">
       <use xlink:href="#DejaVuSans-2d"/>
       <use xlink:href="#DejaVuSans-32" transform="translate(36.083984 0)"/>
       <use xlink:href="#DejaVuSans-2e" transform="translate(99.707031 0)"/>
       <use xlink:href="#DejaVuSans-30" transform="translate(131.494141 0)"/>
      </g>
     </g>
    </g>
    <g id="ytick_12">
     <g id="line2d_28">
      <g>
       <use xlink:href="#m0a27ea52cb" x="416.628856" y="165.180937" style="stroke: #000000; stroke-width: 0.8"/>
      </g>
     </g>
     <g id="text_17">
      <!-- -1.6 -->
      <g transform="translate(423.628856 168.980156) scale(0.1 -0.1)">
       <defs>
        <path id="DejaVuSans-36" d="M 2113 2584 
Q 1688 2584 1439 2293 
Q 1191 2003 1191 1497 
Q 1191 994 1439 701 
Q 1688 409 2113 409 
Q 2538 409 2786 701 
Q 3034 994 3034 1497 
Q 3034 2003 2786 2293 
Q 2538 2584 2113 2584 
z
M 3366 4563 
L 3366 3988 
Q 3128 4100 2886 4159 
Q 2644 4219 2406 4219 
Q 1781 4219 1451 3797 
Q 1122 3375 1075 2522 
Q 1259 2794 1537 2939 
Q 1816 3084 2150 3084 
Q 2853 3084 3261 2657 
Q 3669 2231 3669 1497 
Q 3669 778 3244 343 
Q 2819 -91 2113 -91 
Q 1303 -91 875 529 
Q 447 1150 447 2328 
Q 447 3434 972 4092 
Q 1497 4750 2381 4750 
Q 2619 4750 2861 4703 
Q 3103 4656 3366 4563 
z
" transform="scale(0.015625)"/>
       </defs>
       <use xlink:href="#DejaVuSans-2d"/>
       <use xlink:href="#DejaVuSans-31" transform="translate(36.083984 0)"/>
       <use xlink:href="#DejaVuSans-2e" transform="translate(99.707031 0)"/>
       <use xlink:href="#DejaVuSans-36" transform="translate(131.494141 0)"/>
      </g>
     </g>
    </g>
    <g id="ytick_13">
     <g id="line2d_29">
      <g>
       <use xlink:href="#m0a27ea52cb" x="416.628856" y="128.415294" style="stroke: #000000; stroke-width: 0.8"/>
      </g>
     </g>
     <g id="text_18">
      <!-- -1.2 -->
      <g transform="translate(423.628856 132.214513) scale(0.1 -0.1)">
       <use xlink:href="#DejaVuSans-2d"/>
       <use xlink:href="#DejaVuSans-31" transform="translate(36.083984 0)"/>
       <use xlink:href="#DejaVuSans-2e" transform="translate(99.707031 0)"/>
       <use xlink:href="#DejaVuSans-32" transform="translate(131.494141 0)"/>
      </g>
     </g>
    </g>
    <g id="ytick_14">
     <g id="line2d_30">
      <g>
       <use xlink:href="#m0a27ea52cb" x="416.628856" y="91.649651" style="stroke: #000000; stroke-width: 0.8"/>
      </g>
     </g>
     <g id="text_19">
      <!-- -0.8 -->
      <g transform="translate(423.628856 95.44887) scale(0.1 -0.1)">
       <use xlink:href="#DejaVuSans-2d"/>
       <use xlink:href="#DejaVuSans-30" transform="translate(36.083984 0)"/>
       <use xlink:href="#DejaVuSans-2e" transform="translate(99.707031 0)"/>
       <use xlink:href="#DejaVuSans-38" transform="translate(131.494141 0)"/>
      </g>
     </g>
    </g>
    <g id="ytick_15">
     <g id="line2d_31">
      <g>
       <use xlink:href="#m0a27ea52cb" x="416.628856" y="54.884008" style="stroke: #000000; stroke-width: 0.8"/>
      </g>
     </g>
     <g id="text_20">
      <!-- -0.4 -->
      <g transform="translate(423.628856 58.683227) scale(0.1 -0.1)">
       <use xlink:href="#DejaVuSans-2d"/>
       <use xlink:href="#DejaVuSans-30" transform="translate(36.083984 0)"/>
       <use xlink:href="#DejaVuSans-2e" transform="translate(99.707031 0)"/>
       <use xlink:href="#DejaVuSans-34" transform="translate(131.494141 0)"/>
      </g>
     </g>
    </g>
    <g id="ytick_16">
     <g id="line2d_32">
      <g>
       <use xlink:href="#m0a27ea52cb" x="416.628856" y="18.118365" style="stroke: #000000; stroke-width: 0.8"/>
      </g>
     </g>
     <g id="text_21">
      <!-- 0.0 -->
      <g transform="translate(423.628856 21.917584) scale(0.1 -0.1)">
       <use xlink:href="#DejaVuSans-30"/>
       <use xlink:href="#DejaVuSans-2e" transform="translate(63.623047 0)"/>
       <use xlink:href="#DejaVuSans-30" transform="translate(95.410156 0)"/>
      </g>
     </g>
    </g>
    <g id="text_22">
     <!-- Score -->
     <g transform="translate(454.738231 179.183281) rotate(-90) scale(0.1 -0.1)">
      <defs>
       <path id="DejaVuSans-53" d="M 3425 4513 
L 3425 3897 
Q 3066 4069 2747 4153 
Q 2428 4238 2131 4238 
Q 1616 4238 1336 4038 
Q 1056 3838 1056 3469 
Q 1056 3159 1242 3001 
Q 1428 2844 1947 2747 
L 2328 2669 
Q 3034 2534 3370 2195 
Q 3706 1856 3706 1288 
Q 3706 609 3251 259 
Q 2797 -91 1919 -91 
Q 1588 -91 1214 -16 
Q 841 59 441 206 
L 441 856 
Q 825 641 1194 531 
Q 1563 422 1919 422 
Q 2459 422 2753 634 
Q 3047 847 3047 1241 
Q 3047 1584 2836 1778 
Q 2625 1972 2144 2069 
L 1759 2144 
Q 1053 2284 737 2584 
Q 422 2884 422 3419 
Q 422 4038 858 4394 
Q 1294 4750 2059 4750 
Q 2388 4750 2728 4690 
Q 3069 4631 3425 4513 
z
" transform="scale(0.015625)"/>
       <path id="DejaVuSans-72" d="M 2631 2963 
Q 2534 3019 2420 3045 
Q 2306 3072 2169 3072 
Q 1681 3072 1420 2755 
Q 1159 2438 1159 1844 
L 1159 0 
L 581 0 
L 581 3500 
L 1159 3500 
L 1159 2956 
Q 1341 3275 1631 3429 
Q 1922 3584 2338 3584 
Q 2397 3584 2469 3576 
Q 2541 3569 2628 3553 
L 2631 2963 
z
" transform="scale(0.015625)"/>
       <path id="DejaVuSans-65" d="M 3597 1894 
L 3597 1613 
L 953 1613 
Q 991 1019 1311 708 
Q 1631 397 2203 397 
Q 2534 397 2845 478 
Q 3156 559 3463 722 
L 3463 178 
Q 3153 47 2828 -22 
Q 2503 -91 2169 -91 
Q 1331 -91 842 396 
Q 353 884 353 1716 
Q 353 2575 817 3079 
Q 1281 3584 2069 3584 
Q 2775 3584 3186 3129 
Q 3597 2675 3597 1894 
z
M 3022 2063 
Q 3016 2534 2758 2815 
Q 2500 3097 2075 3097 
Q 1594 3097 1305 2825 
Q 1016 2553 972 2059 
L 3022 2063 
z
" transform="scale(0.015625)"/>
      </defs>
      <use xlink:href="#DejaVuSans-53"/>
      <use xlink:href="#DejaVuSans-63" transform="translate(63.476562 0)"/>
      <use xlink:href="#DejaVuSans-6f" transform="translate(118.457031 0)"/>
      <use xlink:href="#DejaVuSans-72" transform="translate(179.638672 0)"/>
      <use xlink:href="#DejaVuSans-65" transform="translate(218.501953 0)"/>
     </g>
    </g>
   </g>
   <g id="LineCollection_1"/>
   <g id="patch_8">
    <path d="M 401.922598 312.24351 
L 409.275727 312.24351 
L 416.628856 312.24351 
L 416.628856 18.118365 
L 409.275727 18.118365 
L 401.922598 18.118365 
L 401.922598 312.24351 
z
" style="fill: none; stroke: #000000; stroke-width: 0.8; stroke-linejoin: miter; stroke-linecap: square"/>
   </g>
  </g>
 </g>
 <defs>
  <clipPath id="p50bfc125c0">
   <rect x="39.58149" y="18.118365" width="345.08677" height="294.125145"/>
  </clipPath>
  <clipPath id="pa38a546031">
   <rect x="401.922598" y="18.118365" width="14.706257" height="294.125145"/>
  </clipPath>
 </defs>
</svg>
