<?xml version="1.0" encoding="utf-8" standalone="no"?>
<!DOCTYPE svg PUBLIC "-//W3C//DTD SVG 1.1//EN"
  "http://www.w3.org/Graphics/SVG/1.1/DTD/svg11.dtd">
<svg xmlns:xlink="http://www.w3.org/1999/xlink" width="468.217678pt" height="353.99952pt" viewBox="0 0 468.217678 353.99952" xmlns="http://www.w3.org/2000/svg" version="1.1">
 <metadata>
  <rdf:RDF xmlns:dc="http://purl.org/dc/elements/1.1/" xmlns:cc="http://creativecommons.org/ns#" xmlns:rdf="http://www.w3.org/1999/02/22-rdf-syntax-ns#">
   <cc:Work>
    <dc:type rdf:resource="http://purl.org/dc/dcmitype/StillImage"/>
    <dc:date>1970-01-01T00:00:00+00:00</dc:date>
    <dc:format>image/svg+xml</dc:format>
    <dc:creator>
     <cc:Agent>
      <dc:title>Matplotlib v3.10.7, https://matplotlib.org/</dc:title>
     </cc:Agent>
    </dc:creator>
   </cc:Work>
  </rdf:RDF>
 </metadata>
 <defs>
  <style type="text/css">*{stroke-linejoin: round; stroke-linecap: butt}</style>
 </defs>
 <g id="figure_1">
  <g id="patch_1">
   <path d="M 0 353.99952 
L 468.217678 353.99952 
L 468.217678 0 
L 0 0 
z
" style="fill: #ffffff"/>
  </g>
  <g id="axes_1">
   <g id="patch_2">
    <path d="M 43.78125 316.44327 
L 388.86802 316.44327 
L 388.86802 22.318125 
L 43.78125 22.318125 
z
" style="fill: #ffffff"/>
   </g>
   <g id="QuadContourSet_1">
    <path d="M 0.645404 292.424849 
L 43.271277 316.44327 
L 43.78125 316.44327 
L 86.917096 316.44327 
L 99.844377 316.44327 
L 86.917096 309.915941 
L 58.267285 291.932841 
L 43.78125 285.127616 
L 15.254456 267.422412 
L 0.645404 260.823158 
L -36.937199 242.911984 
L -42.490442 240.545292 
L -84.238256 218.401555 
L -85.626289 217.838189 
L -128.762135 206.91483 
L -129.836269 218.401555 
L -128.762135 219.164677 
L -87.045969 242.911984 
L -85.626289 243.729072 
L -43.393925 267.422412 
L -42.490442 268.105774 
L -0.051911 291.932841 
z
" clip-path="url(#p0497d74b55)" style="fill: #470d60"/>
    <path d="M 0.645404 297.901399 
L 35.466247 316.44327 
L 43.271277 316.44327 
L 0.645404 292.424849 
L -0.051911 291.932841 
L -42.490442 268.105774 
L -43.393925 267.422412 
L -85.626289 243.729072 
L -87.045969 242.911984 
L -128.762135 219.164677 
L -129.836269 218.401555 
L -128.762135 206.91483 
L -85.626289 217.838189 
L -84.238256 218.401555 
L -42.490442 240.545292 
L -36.937199 242.911984 
L 0.645404 260.823158 
L 15.254456 267.422412 
L 43.78125 285.127616 
L 58.267285 291.932841 
L 86.917096 309.915941 
L 99.844377 316.44327 
L 118.409077 316.44327 
L 86.917096 298.334939 
L 77.92202 291.932841 
L 43.78125 273.516813 
L 35.134506 267.422412 
L 0.645404 249.503877 
L -11.106771 242.911984 
L -42.490442 226.908273 
L -55.921457 218.401555 
L -85.626289 203.742407 
L -101.747436 193.891126 
L -128.762135 180.722958 
L -154.518575 169.380697 
L -171.897981 161.654455 
L -215.033827 147.125323 
L -224.999434 169.380697 
L -215.033827 175.864528 
L -183.53624 193.891126 
L -171.897981 201.740696 
L -140.95499 218.401555 
L -128.762135 226.453407 
L -97.570191 242.911984 
L -85.626289 249.326744 
L -51.438058 267.422412 
L -42.490442 273.84016 
L -8.286258 291.932841 
z
M -258.169674 150.150406 
L -219.353003 144.870269 
L -258.169674 127.812967 
L -265.829515 144.870269 
z
M -301.30552 125.318697 
L -269.842988 120.35984 
L -301.30552 107.275157 
L -307.834874 120.35984 
z
M -344.441366 100.14049 
L -319.485054 95.849411 
L -344.441366 85.530917 
L -350.200442 95.849411 
z
M -368.660246 71.338982 
L -387.577212 63.512171 
L -387.577212 71.338982 
L -387.577212 74.784889 
z
" clip-path="url(#p0497d74b55)" style="fill: #482374"/>
    <path d="M 0.645404 303.377948 
L 26.752718 316.44327 
L 35.466247 316.44327 
L 0.645404 297.901399 
L -8.286258 291.932841 
L -42.490442 273.84016 
L -51.438058 267.422412 
L -85.626289 249.326744 
L -97.570191 242.911984 
L -128.762135 226.453407 
L -140.95499 218.401555 
L -171.897981 201.740696 
L -183.53624 193.891126 
L -215.033827 175.864528 
L -224.999434 169.380697 
L -215.033827 147.125323 
L -171.897981 161.654455 
L -154.518575 169.380697 
L -128.762135 180.722958 
L -101.747436 193.891126 
L -85.626289 203.742407 
L -55.921457 218.401555 
L -42.490442 226.908273 
L -11.106771 242.911984 
L 0.645404 249.503877 
L 35.134506 267.422412 
L 43.78125 273.516813 
L 77.92202 291.932841 
L 86.917096 298.334939 
L 118.409077 316.44327 
L 130.052942 316.44327 
L 132.996084 316.44327 
L 130.052942 314.838476 
L 93.507256 291.932841 
L 86.917096 288.561847 
L 51.787107 267.422412 
L 43.78125 263.191587 
L 9.178429 242.911984 
L 0.645404 238.613551 
L -33.65619 218.401555 
L -42.490442 214.272544 
L -77.90122 193.891126 
L -85.626289 190.31133 
L -122.052131 169.380697 
L -128.762135 166.222269 
L -166.638519 144.870269 
L -171.897981 142.476967 
L -212.15236 120.35984 
L -215.033827 119.058558 
L -258.169674 103.216982 
L -270.832169 95.849411 
L -301.30552 81.037369 
L -318.684668 71.338982 
L -344.441366 59.23119 
L -367.146065 46.828554 
L -387.577212 37.646565 
L -387.577212 46.828554 
L -387.577212 63.512171 
L -368.660246 71.338982 
L -387.577212 74.784889 
L -387.577212 85.373627 
L -366.680439 95.849411 
L -344.441366 110.745082 
L -324.808479 120.35984 
L -301.30552 136.358687 
L -283.773932 144.870269 
L -258.169674 160.597761 
L -241.189939 169.380697 
L -215.033827 184.722148 
L -197.374534 193.891126 
L -171.897981 209.618305 
L -154.015847 218.401555 
L -128.762135 233.742137 
L -109.81783 242.911984 
L -85.626289 254.924416 
L -60.45073 267.422412 
L -42.490442 279.574547 
L -17.538452 291.932841 
z
M -265.829515 144.870269 
L -258.169674 127.812967 
L -219.353003 144.870269 
L -258.169674 150.150406 
z
M -307.834874 120.35984 
L -301.30552 107.275157 
L -269.842988 120.35984 
L -301.30552 125.318697 
z
M -350.200442 95.849411 
L -344.441366 85.530917 
L -319.485054 95.849411 
L -344.441366 100.14049 
z
" clip-path="url(#p0497d74b55)" style="fill: #453781"/>
    <path d="M 0.645404 308.854497 
L 16.890986 316.44327 
L 26.752718 316.44327 
L 0.645404 303.377948 
L -17.538452 291.932841 
L -42.490442 279.574547 
L -60.45073 267.422412 
L -85.626289 254.924416 
L -109.81783 242.911984 
L -128.762135 233.742137 
L -154.015847 218.401555 
L -171.897981 209.618305 
L -197.374534 193.891126 
L -215.033827 184.722148 
L -241.189939 169.380697 
L -258.169674 160.597761 
L -283.773932 144.870269 
L -301.30552 136.358687 
L -324.808479 120.35984 
L -344.441366 110.745082 
L -366.680439 95.849411 
L -387.577212 85.373627 
L -387.577212 95.849411 
L -387.577212 96.084854 
L -347.051853 120.35984 
L -344.441366 122.296549 
L -307.23747 144.870269 
L -301.30552 148.327919 
L -261.610141 169.380697 
L -258.169674 171.455832 
L -215.033827 193.579767 
L -214.360634 193.891126 
L -171.897981 217.495914 
L -169.843967 218.401555 
L -128.762135 241.030867 
L -124.466012 242.911984 
L -85.626289 260.522087 
L -70.697512 267.422412 
L -42.490442 285.308933 
L -28.096089 291.932841 
z
M 130.052942 314.838476 
L 132.996084 316.44327 
L 144.417705 316.44327 
L 130.052942 307.977992 
L 106.43291 291.932841 
L 86.917096 281.023671 
L 66.273678 267.422412 
L 43.78125 254.286639 
L 26.360181 242.911984 
L 0.645404 228.321363 
L -14.249649 218.401555 
L -42.490442 203.297086 
L -56.79652 193.891126 
L -85.626289 178.423001 
L -99.257017 169.380697 
L -128.762135 153.111784 
L -141.218391 144.870269 
L -171.897981 128.216654 
L -183.868623 120.35984 
L -215.033827 103.240475 
L -229.958596 95.849411 
L -258.169674 80.157336 
L -271.919443 71.338982 
L -301.30552 55.433799 
L -314.690979 46.828554 
L -344.441366 30.354731 
L -357.004709 22.318125 
L -387.577212 22.318125 
L -387.577212 37.646565 
L -367.146065 46.828554 
L -344.441366 59.23119 
L -318.684668 71.338982 
L -301.30552 81.037369 
L -270.832169 95.849411 
L -258.169674 103.216982 
L -215.033827 119.058558 
L -212.15236 120.35984 
L -171.897981 142.476967 
L -166.638519 144.870269 
L -128.762135 166.222269 
L -122.052131 169.380697 
L -85.626289 190.31133 
L -77.90122 193.891126 
L -42.490442 214.272544 
L -33.65619 218.401555 
L 0.645404 238.613551 
L 9.178429 242.911984 
L 43.78125 263.191587 
L 51.787107 267.422412 
L 86.917096 288.561847 
L 93.507256 291.932841 
z
" clip-path="url(#p0497d74b55)" style="fill: #3e4989"/>
    <path d="M 0.645404 314.331046 
L 5.531856 316.44327 
L 16.890986 316.44327 
L 0.645404 308.854497 
L -28.096089 291.932841 
L -42.490442 285.308933 
L -70.697512 267.422412 
L -85.626289 260.522087 
L -124.466012 242.911984 
L -128.762135 241.030867 
L -169.843967 218.401555 
L -171.897981 217.495914 
L -214.360634 193.891126 
L -215.033827 193.579767 
L -258.169674 171.455832 
L -261.610141 169.380697 
L -301.30552 148.327919 
L -307.23747 144.870269 
L -344.441366 122.296549 
L -347.051853 120.35984 
L -387.577212 96.084854 
L -387.577212 118.156123 
L -382.849336 120.35984 
L -344.441366 143.045482 
L -340.644631 144.870269 
L -301.30552 163.425334 
L -287.794321 169.380697 
L -258.169674 184.481194 
L -236.618087 193.891126 
L -215.033827 208.167202 
L -193.02331 218.401555 
L -171.897981 228.607328 
L -142.16645 242.911984 
L -128.762135 248.446768 
L -85.626289 266.119759 
L -82.570818 267.422412 
L -42.490442 291.04332 
L -40.389034 291.932841 
z
M 130.052942 307.977992 
L 144.417705 316.44327 
L 154.326481 316.44327 
L 130.052942 301.117507 
L 117.453563 291.932841 
L 86.917096 273.485495 
L 78.408236 267.422412 
L 43.78125 245.381691 
L 40.327863 242.911984 
L 1.185096 218.401555 
L 0.645404 218.118936 
L -39.963208 193.891126 
L -42.490442 192.56568 
L -80.697959 169.380697 
L -85.626289 166.780214 
L -120.201792 144.870269 
L -128.762135 140.474475 
L -160.604037 120.35984 
L -171.897981 114.653899 
L -200.997051 95.849411 
L -215.033827 88.716537 
L -241.25117 71.338982 
L -258.169674 62.691935 
L -282.349245 46.828554 
L -301.30552 37.188586 
L -323.527409 22.318125 
L -344.441366 22.318125 
L -357.004709 22.318125 
L -344.441366 30.354731 
L -314.690979 46.828554 
L -301.30552 55.433799 
L -271.919443 71.338982 
L -258.169674 80.157336 
L -229.958596 95.849411 
L -215.033827 103.240475 
L -183.868623 120.35984 
L -171.897981 128.216654 
L -141.218391 144.870269 
L -128.762135 153.111784 
L -99.257017 169.380697 
L -85.626289 178.423001 
L -56.79652 193.891126 
L -42.490442 203.297086 
L -14.249649 218.401555 
L 0.645404 228.321363 
L 26.360181 242.911984 
L 43.78125 254.286639 
L 66.273678 267.422412 
L 86.917096 281.023671 
L 106.43291 291.932841 
z
" clip-path="url(#p0497d74b55)" style="fill: #375b8d"/>
    <path d="M -42.490442 296.50749 
L -4.197237 316.44327 
L 0.645404 316.44327 
L 5.531856 316.44327 
L 0.645404 314.331046 
L -40.389034 291.932841 
L -42.490442 291.04332 
L -82.570818 267.422412 
L -85.626289 266.119759 
L -128.762135 248.446768 
L -142.16645 242.911984 
L -171.897981 228.607328 
L -193.02331 218.401555 
L -215.033827 208.167202 
L -236.618087 193.891126 
L -258.169674 184.481194 
L -287.794321 169.380697 
L -301.30552 163.425334 
L -340.644631 144.870269 
L -344.441366 143.045482 
L -382.849336 120.35984 
L -387.577212 118.156123 
L -387.577212 120.35984 
L -387.577212 140.0126 
L -376.933171 144.870269 
L -344.441366 153.948044 
L -311.1335 169.380697 
L -301.30552 176.51686 
L -263.554867 193.891126 
L -258.169674 196.146555 
L -218.427812 218.401555 
L -215.033827 220.730219 
L -171.897981 240.138805 
L -165.137444 242.911984 
L -128.762135 255.906908 
L -97.392793 267.422412 
L -85.626289 272.680885 
L -50.485172 291.932841 
z
M 130.052942 301.117507 
L 154.326481 316.44327 
L 163.076706 316.44327 
L 130.052942 294.257022 
L 127.059281 291.932841 
L 89.409116 267.422412 
L 86.917096 266.140593 
L 53.055906 242.911984 
L 43.78125 237.967322 
L 14.743888 218.401555 
L 0.645404 210.307652 
L -24.334334 193.891126 
L -42.490442 183.296878 
L -63.030435 169.380697 
L -85.626289 155.917558 
L -101.080591 144.870269 
L -128.762135 128.638093 
L -140.279805 120.35984 
L -171.897981 101.947016 
L -180.15626 95.849411 
L -215.033827 75.327651 
L -220.29176 71.338982 
L -258.169674 48.883607 
L -260.895929 46.828554 
L -301.30552 22.891696 
L -302.050933 22.318125 
L -323.527409 22.318125 
L -301.30552 37.188586 
L -282.349245 46.828554 
L -258.169674 62.691935 
L -241.25117 71.338982 
L -215.033827 88.716537 
L -200.997051 95.849411 
L -171.897981 114.653899 
L -160.604037 120.35984 
L -128.762135 140.474475 
L -120.201792 144.870269 
L -85.626289 166.780214 
L -80.697959 169.380697 
L -42.490442 192.56568 
L -39.963208 193.891126 
L 0.645404 218.118936 
L 1.185096 218.401555 
L 40.327863 242.911984 
L 43.78125 245.381691 
L 78.408236 267.422412 
L 86.917096 273.485495 
L 117.453563 291.932841 
z
" clip-path="url(#p0497d74b55)" style="fill: #2f6b8e"/>
    <path d="M -42.490442 301.922049 
L -12.81792 316.44327 
L -4.197237 316.44327 
L -42.490442 296.50749 
L -50.485172 291.932841 
L -85.626289 272.680885 
L -97.392793 267.422412 
L -128.762135 255.906908 
L -165.137444 242.911984 
L -171.897981 240.138805 
L -215.033827 220.730219 
L -218.427812 218.401555 
L -258.169674 196.146555 
L -263.554867 193.891126 
L -301.30552 176.51686 
L -311.1335 169.380697 
L -344.441366 153.948044 
L -376.933171 144.870269 
L -387.577212 140.0126 
L -387.577212 144.870269 
L -387.577212 151.649735 
L -344.441366 163.901156 
L -330.858686 169.380697 
L -301.30552 188.301699 
L -286.977641 193.891126 
L -258.169674 204.272219 
L -230.631066 218.401555 
L -215.033827 228.28318 
L -181.757017 242.911984 
L -171.897981 247.250784 
L -128.762135 263.367048 
L -116.164083 267.422412 
L -85.626289 279.534221 
L -61.20204 291.932841 
z
M 130.052942 294.257022 
L 163.076706 316.44327 
L 170.911159 316.44327 
L 137.491553 291.932841 
L 130.052942 287.849828 
L 100.991574 267.422412 
L 86.917096 259.590102 
L 64.248422 242.911984 
L 43.78125 231.125006 
L 26.221163 218.401555 
L 0.645404 202.496368 
L -11.409286 193.891126 
L -42.490442 174.028076 
L -48.743915 169.380697 
L -85.626289 145.054901 
L -85.860046 144.870269 
L -123.528496 120.35984 
L -128.762135 117.563208 
L -161.959097 95.849411 
L -171.897981 90.055667 
L -199.560301 71.338982 
L -215.033827 62.618351 
L -237.813906 46.828554 
L -258.169674 35.554047 
L -277.098676 22.318125 
L -301.30552 22.318125 
L -302.050933 22.318125 
L -301.30552 22.891696 
L -260.895929 46.828554 
L -258.169674 48.883607 
L -220.29176 71.338982 
L -215.033827 75.327651 
L -180.15626 95.849411 
L -171.897981 101.947016 
L -140.279805 120.35984 
L -128.762135 128.638093 
L -101.080591 144.870269 
L -85.626289 155.917558 
L -63.030435 169.380697 
L -42.490442 183.296878 
L -24.334334 193.891126 
L 0.645404 210.307652 
L 14.743888 218.401555 
L 43.78125 237.967322 
L 53.055906 242.911984 
L 86.917096 266.140593 
L 89.409116 267.422412 
L 127.059281 291.932841 
z
" clip-path="url(#p0497d74b55)" style="fill: #297a8e"/>
    <path d="M -42.490442 307.336607 
L -22.560855 316.44327 
L -12.81792 316.44327 
L -42.490442 301.922049 
L -61.20204 291.932841 
L -85.626289 279.534221 
L -116.164083 267.422412 
L -128.762135 263.367048 
L -171.897981 247.250784 
L -181.757017 242.911984 
L -215.033827 228.28318 
L -230.631066 218.401555 
L -258.169674 204.272219 
L -286.977641 193.891126 
L -301.30552 188.301699 
L -330.858686 169.380697 
L -344.441366 163.901156 
L -387.577212 151.649735 
L -387.577212 160.369258 
L -355.105495 169.380697 
L -344.441366 174.861249 
L -310.061407 193.891126 
L -301.30552 198.135346 
L -258.169674 212.397883 
L -245.215744 218.401555 
L -215.033827 235.836141 
L -197.099045 242.911984 
L -171.897981 252.963396 
L -133.947712 267.422412 
L -128.762135 270.050855 
L -85.626289 286.387558 
L -73.71153 291.932841 
z
M 173.188789 316.44327 
L 181.152049 316.44327 
L 173.188789 312.176842 
L 147.501617 291.932841 
L 130.052942 281.674878 
L 111.021116 267.422412 
L 86.917096 253.039612 
L 73.984385 242.911984 
L 43.78125 224.282691 
L 36.171779 218.401555 
L 0.645404 194.685085 
L -0.389073 193.891126 
L -34.249242 169.380697 
L -42.490442 165.192332 
L -70.427065 144.870269 
L -85.626289 136.609235 
L -108.357352 120.35984 
L -128.762135 108.260002 
L -145.911598 95.849411 
L -171.897981 78.916716 
L -181.901866 71.338982 
L -215.033827 50.19741 
L -219.346608 46.828554 
L -258.152694 22.318125 
L -258.169674 22.318125 
L -277.098676 22.318125 
L -258.169674 35.554047 
L -237.813906 46.828554 
L -215.033827 62.618351 
L -199.560301 71.338982 
L -171.897981 90.055667 
L -161.959097 95.849411 
L -128.762135 117.563208 
L -123.528496 120.35984 
L -85.860046 144.870269 
L -85.626289 145.054901 
L -48.743915 169.380697 
L -42.490442 174.028076 
L -11.409286 193.891126 
L 0.645404 202.496368 
L 26.221163 218.401555 
L 43.78125 231.125006 
L 64.248422 242.911984 
L 86.917096 259.590102 
L 100.991574 267.422412 
L 130.052942 287.849828 
L 137.491553 291.932841 
L 170.911159 316.44327 
z
" clip-path="url(#p0497d74b55)" style="fill: #23898e"/>
    <path d="M -85.626289 292.938042 
L -42.490442 312.751166 
L -33.76259 316.44327 
L -22.560855 316.44327 
L -42.490442 307.336607 
L -73.71153 291.932841 
L -85.626289 286.387558 
L -128.762135 270.050855 
L -133.947712 267.422412 
L -171.897981 252.963396 
L -197.099045 242.911984 
L -215.033827 235.836141 
L -245.215744 218.401555 
L -258.169674 212.397883 
L -301.30552 198.135346 
L -310.061407 193.891126 
L -344.441366 174.861249 
L -355.105495 169.380697 
L -387.577212 160.369258 
L -387.577212 169.08878 
L -386.272022 169.380697 
L -344.441366 187.054764 
L -330.210453 193.891126 
L -301.30552 206.20865 
L -263.167528 218.401555 
L -258.169674 221.020727 
L -215.962008 242.911984 
L -215.033827 243.350924 
L -171.897981 258.676009 
L -146.745253 267.422412 
L -128.762135 275.809988 
L -87.749292 291.932841 
z
M 173.188789 312.176842 
L 181.152049 316.44327 
L 191.383553 316.44327 
L 173.188789 305.985693 
L 156.330708 291.932841 
L 130.052942 275.499928 
L 119.865353 267.422412 
L 86.917096 246.489121 
L 82.599611 242.911984 
L 46.249406 218.401555 
L 43.78125 217.054333 
L 14.99143 193.891126 
L 0.645404 185.848211 
L -20.034681 169.380697 
L -42.490442 156.792077 
L -57.596249 144.870269 
L -85.626289 128.20536 
L -95.746614 120.35984 
L -128.762135 98.956796 
L -132.701907 95.849411 
L -164.945104 71.338982 
L -171.897981 67.874159 
L -200.602837 46.828554 
L -215.033827 39.065959 
L -238.354272 22.318125 
L -258.152694 22.318125 
L -219.346608 46.828554 
L -215.033827 50.19741 
L -181.901866 71.338982 
L -171.897981 78.916716 
L -145.911598 95.849411 
L -128.762135 108.260002 
L -108.357352 120.35984 
L -85.626289 136.609235 
L -70.427065 144.870269 
L -42.490442 165.192332 
L -34.249242 169.380697 
L -0.389073 193.891126 
L 0.645404 194.685085 
L 36.171779 218.401555 
L 43.78125 224.282691 
L 73.984385 242.911984 
L 86.917096 253.039612 
L 111.021116 267.422412 
L 130.052942 281.674878 
L 147.501617 291.932841 
z
" clip-path="url(#p0497d74b55)" style="fill: #1f988b"/>
    <path d="M -85.626289 298.204634 
L -45.301661 316.44327 
L -42.490442 316.44327 
L -33.76259 316.44327 
L -42.490442 312.751166 
L -85.626289 292.938042 
L -87.749292 291.932841 
L -128.762135 275.809988 
L -146.745253 267.422412 
L -171.897981 258.676009 
L -215.033827 243.350924 
L -215.962008 242.911984 
L -258.169674 221.020727 
L -263.167528 218.401555 
L -301.30552 206.20865 
L -330.210453 193.891126 
L -344.441366 187.054764 
L -386.272022 169.380697 
L -387.577212 169.08878 
L -387.577212 169.380697 
L -387.577212 180.621116 
L -354.162731 193.891126 
L -344.441366 198.761232 
L -301.30552 214.281955 
L -286.147749 218.401555 
L -258.169674 231.050224 
L -232.430953 242.911984 
L -215.033827 250.299496 
L -171.897981 264.388622 
L -162.18787 267.422412 
L -128.762135 281.56912 
L -99.977037 291.932841 
z
M 173.188789 305.985693 
L 191.383553 316.44327 
L 200.384409 316.44327 
L 173.188789 299.794545 
L 164.228309 291.932841 
L 130.052942 269.324977 
L 127.775067 267.422412 
L 94.96705 242.911984 
L 86.917096 238.597024 
L 61.801594 218.401555 
L 43.78125 207.463918 
L 28.274902 193.891126 
L 0.645404 176.895299 
L -8.09139 169.380697 
L -42.490442 148.391822 
L -46.644567 144.870269 
L -83.845092 120.35984 
L -85.626289 119.369186 
L -113.185932 95.849411 
L -128.762135 87.282715 
L -146.613003 71.338982 
L -171.897981 57.036713 
L -184.461466 46.828554 
L -215.033827 28.414408 
L -222.708615 22.318125 
L -238.354272 22.318125 
L -215.033827 39.065959 
L -200.602837 46.828554 
L -171.897981 67.874159 
L -164.945104 71.338982 
L -132.701907 95.849411 
L -128.762135 98.956796 
L -95.746614 120.35984 
L -85.626289 128.20536 
L -57.596249 144.870269 
L -42.490442 156.792077 
L -20.034681 169.380697 
L 0.645404 185.848211 
L 14.99143 193.891126 
L 43.78125 217.054333 
L 46.249406 218.401555 
L 82.599611 242.911984 
L 86.917096 246.489121 
L 119.865353 267.422412 
L 130.052942 275.499928 
L 156.330708 291.932841 
z
" clip-path="url(#p0497d74b55)" style="fill: #22a785"/>
    <path d="M -85.626289 303.471226 
L -54.895357 316.44327 
L -45.301661 316.44327 
L -85.626289 298.204634 
L -99.977037 291.932841 
L -128.762135 281.56912 
L -162.18787 267.422412 
L -171.897981 264.388622 
L -215.033827 250.299496 
L -232.430953 242.911984 
L -258.169674 231.050224 
L -286.147749 218.401555 
L -301.30552 214.281955 
L -344.441366 198.761232 
L -354.162731 193.891126 
L -387.577212 180.621116 
L -387.577212 192.250884 
L -382.545338 193.891126 
L -344.441366 209.846173 
L -315.258968 218.401555 
L -301.30552 222.466631 
L -258.169674 241.079721 
L -253.569789 242.911984 
L -215.033827 257.248069 
L -180.308082 267.422412 
L -171.897981 271.418054 
L -128.762135 287.328253 
L -114.596743 291.932841 
z
M 173.188789 299.794545 
L 200.384409 316.44327 
L 208.419129 316.44327 
L 173.188789 293.603397 
L 171.372347 291.932841 
L 143.217833 267.422412 
L 130.052942 260.215224 
L 110.137533 242.911984 
L 86.917096 229.090885 
L 74.674209 218.401555 
L 43.78125 197.873504 
L 39.55443 193.891126 
L 4.764341 169.380697 
L 0.645404 167.199083 
L -28.632129 144.870269 
L -42.490442 136.315351 
L -61.160215 120.35984 
L -85.626289 104.458707 
L -94.581641 95.849411 
L -128.762135 74.41957 
L -131.89578 71.338982 
L -169.735599 46.828554 
L -171.897981 45.532306 
L -199.716479 22.318125 
L -215.033827 22.318125 
L -222.708615 22.318125 
L -215.033827 28.414408 
L -184.461466 46.828554 
L -171.897981 57.036713 
L -146.613003 71.338982 
L -128.762135 87.282715 
L -113.185932 95.849411 
L -85.626289 119.369186 
L -83.845092 120.35984 
L -46.644567 144.870269 
L -42.490442 148.391822 
L -8.09139 169.380697 
L 0.645404 176.895299 
L 28.274902 193.891126 
L 43.78125 207.463918 
L 61.801594 218.401555 
L 86.917096 238.597024 
L 94.96705 242.911984 
L 127.775067 267.422412 
L 130.052942 269.324977 
L 164.228309 291.932841 
z
" clip-path="url(#p0497d74b55)" style="fill: #32b67a"/>
    <path d="M -128.762135 295.15507 
L -85.626289 308.737818 
L -65.900183 316.44327 
L -54.895357 316.44327 
L -85.626289 303.471226 
L -114.596743 291.932841 
L -128.762135 287.328253 
L -171.897981 271.418054 
L -180.308082 267.422412 
L -215.033827 257.248069 
L -253.569789 242.911984 
L -258.169674 241.079721 
L -301.30552 222.466631 
L -315.258968 218.401555 
L -344.441366 209.846173 
L -382.545338 193.891126 
L -387.577212 192.250884 
L -387.577212 193.891126 
L -387.577212 203.179753 
L -349.161995 218.401555 
L -344.441366 221.97205 
L -301.30552 230.767353 
L -270.955244 242.911984 
L -258.169674 252.145803 
L -215.033827 264.196642 
L -202.194299 267.422412 
L -171.897981 279.938795 
L -132.966344 291.932841 
z
M 173.188789 293.603397 
L 208.419129 316.44327 
L 215.675162 316.44327 
L 189.112334 291.932841 
L 173.188789 282.216732 
L 158.90478 267.422412 
L 130.052942 249.798553 
L 122.747814 242.911984 
L 86.917096 219.584747 
L 85.656308 218.401555 
L 59.636115 193.891126 
L 43.78125 185.134892 
L 26.298163 169.380697 
L 0.645404 153.619397 
L -9.508758 144.870269 
L -42.490442 121.585305 
L -43.770574 120.35984 
L -72.242781 95.849411 
L -85.626289 88.187529 
L -106.258966 71.338982 
L -128.762135 56.378897 
L -139.860171 46.828554 
L -171.897981 23.208564 
L -172.794705 22.318125 
L -199.716479 22.318125 
L -171.897981 45.532306 
L -169.735599 46.828554 
L -131.89578 71.338982 
L -128.762135 74.41957 
L -94.581641 95.849411 
L -85.626289 104.458707 
L -61.160215 120.35984 
L -42.490442 136.315351 
L -28.632129 144.870269 
L 0.645404 167.199083 
L 4.764341 169.380697 
L 39.55443 193.891126 
L 43.78125 197.873504 
L 74.674209 218.401555 
L 86.917096 229.090885 
L 110.137533 242.911984 
L 130.052942 260.215224 
L 143.217833 267.422412 
L 171.372347 291.932841 
z
" clip-path="url(#p0497d74b55)" style="fill: #4ec36b"/>
    <path d="M -128.762135 311.228285 
L -85.626289 314.00441 
L -78.804056 316.44327 
L -65.900183 316.44327 
L -85.626289 308.737818 
L -128.762135 295.15507 
L -132.966344 291.932841 
L -171.897981 279.938795 
L -202.194299 267.422412 
L -215.033827 264.196642 
L -258.169674 252.145803 
L -270.955244 242.911984 
L -301.30552 230.767353 
L -344.441366 221.97205 
L -349.161995 218.401555 
L -387.577212 203.179753 
L -387.577212 213.993537 
L -374.294493 218.401555 
L -344.441366 237.618543 
L -301.30552 239.068075 
L -290.310066 242.911984 
L -258.169674 263.443585 
L -238.010668 267.422412 
L -215.033827 282.688132 
L -171.897981 288.459536 
L -158.405692 291.932841 
z
M 216.324635 316.44327 
L 236.339414 316.44327 
L 216.324635 302.355003 
L 206.560382 291.932841 
L 173.188789 268.910097 
L 171.869474 267.422412 
L 143.742742 242.911984 
L 130.052942 234.35228 
L 114.871116 218.401555 
L 86.917096 200.843157 
L 80.786724 193.891126 
L 43.78125 170.160683 
L 43.005222 169.380697 
L 18.686319 144.870269 
L 0.645404 134.625583 
L -11.843687 120.35984 
L -42.490442 101.254456 
L -47.726506 95.849411 
L -80.513669 71.338982 
L -85.626289 68.655008 
L -105.305537 46.828554 
L -128.762135 32.551283 
L -138.464911 22.318125 
L -171.897981 22.318125 
L -172.794705 22.318125 
L -171.897981 23.208564 
L -139.860171 46.828554 
L -128.762135 56.378897 
L -106.258966 71.338982 
L -85.626289 88.187529 
L -72.242781 95.849411 
L -43.770574 120.35984 
L -42.490442 121.585305 
L -9.508758 144.870269 
L 0.645404 153.619397 
L 26.298163 169.380697 
L 43.78125 185.134892 
L 59.636115 193.891126 
L 85.656308 218.401555 
L 86.917096 219.584747 
L 122.747814 242.911984 
L 130.052942 249.798553 
L 158.90478 267.422412 
L 173.188789 282.216732 
L 189.112334 291.932841 
L 215.675162 316.44327 
z
" clip-path="url(#p0497d74b55)" style="fill: #70cf57"/>
    <path d="M -344.441366 316.44327 
L -301.30552 316.44327 
L -258.169674 316.44327 
L -215.033827 316.44327 
L -171.897981 316.44327 
L -128.762135 316.44327 
L -85.626289 316.44327 
L -78.804056 316.44327 
L -85.626289 314.00441 
L -128.762135 311.228285 
L -158.405692 291.932841 
L -171.897981 288.459536 
L -215.033827 282.688132 
L -238.010668 267.422412 
L -258.169674 263.443585 
L -290.310066 242.911984 
L -301.30552 239.068075 
L -344.441366 237.618543 
L -374.294493 218.401555 
L -387.577212 213.993537 
L -387.577212 218.401555 
L -387.577212 242.911984 
L -387.577212 267.422412 
L -387.577212 291.932841 
L -387.577212 316.44327 
z
M 216.324635 302.355003 
L 236.339414 316.44327 
L 253.586993 316.44327 
L 230.318682 291.932841 
L 216.324635 282.175663 
L 203.488624 267.422412 
L 174.624781 242.911984 
L 173.188789 241.836564 
L 151.3886 218.401555 
L 130.052942 199.711166 
L 124.986056 193.891126 
L 97.406994 169.380697 
L 86.917096 159.505158 
L 74.436345 144.870269 
L 43.78125 120.636304 
L 43.531659 120.35984 
L 25.19849 95.849411 
L 0.645404 76.393487 
L -4.193876 71.338982 
L -22.720405 46.828554 
L -42.490442 30.99926 
L -50.94482 22.318125 
L -85.626289 22.318125 
L -128.762135 22.318125 
L -138.464911 22.318125 
L -128.762135 32.551283 
L -105.305537 46.828554 
L -85.626289 68.655008 
L -80.513669 71.338982 
L -47.726506 95.849411 
L -42.490442 101.254456 
L -11.843687 120.35984 
L 0.645404 134.625583 
L 18.686319 144.870269 
L 43.005222 169.380698 
L 43.78125 170.160683 
L 80.786724 193.891126 
L 86.917096 200.843157 
L 114.871116 218.401555 
L 130.052942 234.35228 
L 143.742742 242.911984 
L 171.869474 267.422412 
L 173.188789 268.910097 
L 206.560382 291.932841 
z
M 475.139712 301.145416 
L 484.739666 316.44327 
L 518.275559 316.44327 
L 561.411405 316.44327 
L 604.547251 316.44327 
L 647.683097 316.44327 
L 690.818944 316.44327 
L 733.95479 316.44327 
L 777.090636 316.44327 
L 820.226482 316.44327 
L 863.362328 316.44327 
L 906.498175 316.44327 
L 949.634021 316.44327 
L 992.769867 316.44327 
L 1035.905713 316.44327 
L 1079.04156 316.44327 
L 1122.177406 316.44327 
L 1165.313252 316.44327 
L 1208.449098 316.44327 
L 1251.584945 316.44327 
L 1294.720791 316.44327 
L 1337.856637 316.44327 
L 1380.992483 316.44327 
L 1424.128329 316.44327 
L 1467.264176 316.44327 
L 1510.400022 316.44327 
L 1510.400022 291.932841 
L 1510.400022 267.422412 
L 1510.400022 242.911984 
L 1510.400022 218.401555 
L 1510.400022 193.891126 
L 1510.400022 169.380697 
L 1510.400022 144.870269 
L 1510.400022 120.35984 
L 1510.400022 95.849411 
L 1510.400022 71.338982 
L 1510.400022 46.828554 
L 1510.400022 22.318125 
L 1467.264176 22.318125 
L 1424.128329 22.318125 
L 1380.992483 22.318125 
L 1337.856637 22.318125 
L 1294.720791 22.318125 
L 1251.584945 22.318125 
L 1208.449098 22.318125 
L 1165.313252 22.318125 
L 1122.177406 22.318125 
L 1079.04156 22.318125 
L 1035.905713 22.318125 
L 992.769867 22.318125 
L 949.634021 22.318125 
L 906.498175 22.318125 
L 863.362328 22.318125 
L 820.226482 22.318125 
L 777.090636 22.318125 
L 733.95479 22.318125 
L 690.818944 22.318125 
L 647.683097 22.318125 
L 604.547251 22.318125 
L 561.411405 22.318125 
L 518.275559 22.318125 
L 475.139712 22.318125 
L 432.003866 22.318125 
L 388.86802 22.318125 
L 345.732174 22.318125 
L 302.596327 22.318125 
L 259.460481 22.318125 
L 258.313503 22.318125 
L 259.460481 24.450613 
L 278.433645 46.828554 
L 294.573636 71.338982 
L 302.596327 85.23638 
L 312.289409 95.849411 
L 331.871686 120.35984 
L 345.732174 142.650592 
L 348.001917 144.870269 
L 371.422947 169.380698 
L 387.973259 193.891126 
L 388.86802 195.179002 
L 413.635361 218.401555 
L 430.879075 242.911984 
L 432.003866 244.608984 
L 456.810312 267.422412 
L 472.276421 291.932841 
z
" clip-path="url(#p0497d74b55)" style="fill: #98d83e"/>
    <path d="M 259.460481 316.44327 
L 295.772726 316.44327 
L 272.861521 291.932841 
L 259.460481 282.526871 
L 252.511779 267.422412 
L 232.978064 242.911984 
L 216.324635 229.789382 
L 211.46506 218.401555 
L 197.36861 193.891126 
L 173.188789 172.018053 
L 171.978036 169.380697 
L 161.826088 144.870269 
L 141.885812 120.35984 
L 130.052942 110.973136 
L 123.938478 95.849411 
L 112.965636 71.338982 
L 86.917096 48.351283 
L 86.225108 46.828554 
L 84.616155 22.318125 
L 43.78125 22.318125 
L 0.645404 22.318125 
L -42.490442 22.318125 
L -50.94482 22.318125 
L -42.490442 30.99926 
L -22.720405 46.828554 
L -4.193876 71.338983 
L 0.645404 76.393487 
L 25.19849 95.849411 
L 43.531659 120.35984 
L 43.78125 120.636304 
L 74.436345 144.870269 
L 86.917096 159.505158 
L 97.406994 169.380697 
L 124.986056 193.891126 
L 130.052942 199.711166 
L 151.3886 218.401555 
L 173.188789 241.836564 
L 174.624781 242.911984 
L 203.488624 267.422412 
L 216.324635 282.175663 
L 230.318682 291.932841 
L 253.586993 316.44327 
z
M 432.003866 316.44327 
L 475.139712 316.44327 
L 484.739666 316.44327 
L 475.139712 301.145416 
L 472.276421 291.932841 
L 456.810312 267.422412 
L 432.003866 244.608984 
L 430.879075 242.911984 
L 413.635361 218.401555 
L 388.86802 195.179002 
L 387.973259 193.891126 
L 371.422947 169.380697 
L 348.001917 144.870269 
L 345.732174 142.650592 
L 331.871686 120.35984 
L 312.289409 95.849411 
L 302.596327 85.23638 
L 294.573636 71.338982 
L 278.433645 46.828554 
L 259.460481 24.450613 
L 258.313503 22.318125 
L 216.324635 22.318125 
L 173.188789 22.318125 
L 130.052942 22.318125 
L 92.604927 22.318125 
L 130.052942 43.890776 
L 133.905797 46.828554 
L 161.563952 71.338982 
L 173.188789 79.000197 
L 192.982952 95.849411 
L 216.324635 114.942698 
L 223.316525 120.35984 
L 249.803417 144.870269 
L 259.460481 153.254546 
L 277.765695 169.380697 
L 302.596327 191.823138 
L 305.169979 193.891126 
L 328.268558 218.401555 
L 345.732174 236.708816 
L 352.056674 242.911984 
L 371.674966 267.422412 
L 388.86802 291.147972 
L 389.488961 291.932841 
L 400.47139 316.44327 
z
" clip-path="url(#p0497d74b55)" style="fill: #c2df23"/>
    <path d="M 302.596327 316.44327 
L 345.732174 316.44327 
L 388.86802 316.44327 
L 400.47139 316.44327 
L 389.488961 291.932841 
L 388.86802 291.147972 
L 371.674966 267.422412 
L 352.056674 242.911984 
L 345.732174 236.708816 
L 328.268558 218.401555 
L 305.169979 193.891126 
L 302.596327 191.823138 
L 277.765695 169.380697 
L 259.460481 153.254546 
L 249.803417 144.870269 
L 223.316525 120.35984 
L 216.324635 114.942698 
L 192.982952 95.849411 
L 173.188789 79.000197 
L 161.563952 71.338982 
L 133.905797 46.828554 
L 130.052942 43.890776 
L 92.604927 22.318125 
L 86.917096 22.318125 
L 84.616155 22.318125 
L 86.225108 46.828554 
L 86.917096 48.351283 
L 112.965636 71.338982 
L 123.938478 95.849411 
L 130.052942 110.973136 
L 141.885812 120.35984 
L 161.826088 144.870269 
L 171.978036 169.380697 
L 173.188789 172.018053 
L 197.36861 193.891126 
L 211.46506 218.401555 
L 216.324635 229.789382 
L 232.978064 242.911984 
L 252.511779 267.422412 
L 259.460481 282.526871 
L 272.861521 291.932841 
L 295.772726 316.44327 
z
" clip-path="url(#p0497d74b55)" style="fill: #ece51b"/>
   </g>
   <g id="PathCollection_1">
    <defs>
     <path id="mdc0741d33a" d="M -3 3 
L 3 -3 
M -3 -3 
L 3 3 
" style="stroke: #ff0000; stroke-width: 1.5"/>
    </defs>
    <g clip-path="url(#p0497d74b55)">
     <use xlink:href="#mdc0741d33a" x="345.732174" y="316.44327" style="fill: #ff0000; stroke: #ff0000; stroke-width: 1.5"/>
     <use xlink:href="#mdc0741d33a" x="345.732174" y="291.932841" style="fill: #ff0000; stroke: #ff0000; stroke-width: 1.5"/>
     <use xlink:href="#mdc0741d33a" x="302.596327" y="267.422412" style="fill: #ff0000; stroke: #ff0000; stroke-width: 1.5"/>
     <use xlink:href="#mdc0741d33a" x="302.596327" y="242.911984" style="fill: #ff0000; stroke: #ff0000; stroke-width: 1.5"/>
     <use xlink:href="#mdc0741d33a" x="259.460481" y="218.401555" style="fill: #ff0000; stroke: #ff0000; stroke-width: 1.5"/>
     <use xlink:href="#mdc0741d33a" x="259.460481" y="193.891126" style="fill: #ff0000; stroke: #ff0000; stroke-width: 1.5"/>
     <use xlink:href="#mdc0741d33a" x="216.324635" y="169.380697" style="fill: #ff0000; stroke: #ff0000; stroke-width: 1.5"/>
     <use xlink:href="#mdc0741d33a" x="216.324635" y="144.870269" style="fill: #ff0000; stroke: #ff0000; stroke-width: 1.5"/>
     <use xlink:href="#mdc0741d33a" x="173.188789" y="120.35984" style="fill: #ff0000; stroke: #ff0000; stroke-width: 1.5"/>
     <use xlink:href="#mdc0741d33a" x="173.188789" y="95.849411" style="fill: #ff0000; stroke: #ff0000; stroke-width: 1.5"/>
     <use xlink:href="#mdc0741d33a" x="130.052942" y="71.338982" style="fill: #ff0000; stroke: #ff0000; stroke-width: 1.5"/>
     <use xlink:href="#mdc0741d33a" x="130.052942" y="46.828554" style="fill: #ff0000; stroke: #ff0000; stroke-width: 1.5"/>
     <use xlink:href="#mdc0741d33a" x="86.917096" y="22.318125" style="fill: #ff0000; stroke: #ff0000; stroke-width: 1.5"/>
    </g>
   </g>
   <g id="matplotlib.axis_1">
    <g id="xtick_1">
     <g id="line2d_1">
      <defs>
       <path id="m38f3b05bbe" d="M 0 0 
L 0 3.5 
" style="stroke: #000000; stroke-width: 0.8"/>
      </defs>
      <g>
       <use xlink:href="#m38f3b05bbe" x="130.052942" y="316.44327" style="stroke: #000000; stroke-width: 0.8"/>
      </g>
     </g>
     <g id="text_1">
      <!-- $\mathdefault{10^{-2}}$ -->
      <g transform="translate(118.302942 331.041707) scale(0.1 -0.1)">
       <defs>
        <path id="DejaVuSans-31" d="M 794 531 
L 1825 531 
L 1825 4091 
L 703 3866 
L 703 4441 
L 1819 4666 
L 2450 4666 
L 2450 531 
L 3481 531 
L 3481 0 
L 794 0 
L 794 531 
z
" transform="scale(0.015625)"/>
        <path id="DejaVuSans-30" d="M 2034 4250 
Q 1547 4250 1301 3770 
Q 1056 3291 1056 2328 
Q 1056 1369 1301 889 
Q 1547 409 2034 409 
Q 2525 409 2770 889 
Q 3016 1369 3016 2328 
Q 3016 3291 2770 3770 
Q 2525 4250 2034 4250 
z
M 2034 4750 
Q 2819 4750 3233 4129 
Q 3647 3509 3647 2328 
Q 3647 1150 3233 529 
Q 2819 -91 2034 -91 
Q 1250 -91 836 529 
Q 422 1150 422 2328 
Q 422 3509 836 4129 
Q 1250 4750 2034 4750 
z
" transform="scale(0.015625)"/>
        <path id="DejaVuSans-2212" d="M 678 2272 
L 4684 2272 
L 4684 1741 
L 678 1741 
L 678 2272 
z
" transform="scale(0.015625)"/>
        <path id="DejaVuSans-32" d="M 1228 531 
L 3431 531 
L 3431 0 
L 469 0 
L 469 531 
Q 828 903 1448 1529 
Q 2069 2156 2228 2338 
Q 2531 2678 2651 2914 
Q 2772 3150 2772 3378 
Q 2772 3750 2511 3984 
Q 2250 4219 1831 4219 
Q 1534 4219 1204 4116 
Q 875 4013 500 3803 
L 500 4441 
Q 881 4594 1212 4672 
Q 1544 4750 1819 4750 
Q 2544 4750 2975 4387 
Q 3406 4025 3406 3419 
Q 3406 3131 3298 2873 
Q 3191 2616 2906 2266 
Q 2828 2175 2409 1742 
Q 1991 1309 1228 531 
z
" transform="scale(0.015625)"/>
       </defs>
       <use xlink:href="#DejaVuSans-31" transform="translate(0 0.765625)"/>
       <use xlink:href="#DejaVuSans-30" transform="translate(63.623047 0.765625)"/>
       <use xlink:href="#DejaVuSans-2212" transform="translate(128.203125 39.046875) scale(0.7)"/>
       <use xlink:href="#DejaVuSans-32" transform="translate(186.855469 39.046875) scale(0.7)"/>
      </g>
     </g>
    </g>
    <g id="xtick_2">
     <g id="line2d_2">
      <g>
       <use xlink:href="#m38f3b05bbe" x="302.596327" y="316.44327" style="stroke: #000000; stroke-width: 0.8"/>
      </g>
     </g>
     <g id="text_2">
      <!-- $\mathdefault{10^{-1}}$ -->
      <g transform="translate(290.846327 331.041707) scale(0.1 -0.1)">
       <use xlink:href="#DejaVuSans-31" transform="translate(0 0.684375)"/>
       <use xlink:href="#DejaVuSans-30" transform="translate(63.623047 0.684375)"/>
       <use xlink:href="#DejaVuSans-2212" transform="translate(128.203125 38.965625) scale(0.7)"/>
       <use xlink:href="#DejaVuSans-31" transform="translate(186.855469 38.965625) scale(0.7)"/>
      </g>
     </g>
    </g>
    <g id="xtick_3">
     <g id="line2d_3">
      <defs>
       <path id="m360e1f0208" d="M 0 0 
L 0 2 
" style="stroke: #000000; stroke-width: 0.6"/>
      </defs>
      <g>
       <use xlink:href="#m360e1f0208" x="61.391026" y="316.44327" style="stroke: #000000; stroke-width: 0.6"/>
      </g>
     </g>
    </g>
    <g id="xtick_4">
     <g id="line2d_4">
      <g>
       <use xlink:href="#m360e1f0208" x="78.112208" y="316.44327" style="stroke: #000000; stroke-width: 0.6"/>
      </g>
     </g>
    </g>
    <g id="xtick_5">
     <g id="line2d_5">
      <g>
       <use xlink:href="#m360e1f0208" x="91.774408" y="316.44327" style="stroke: #000000; stroke-width: 0.6"/>
      </g>
     </g>
    </g>
    <g id="xtick_6">
     <g id="line2d_6">
      <g>
       <use xlink:href="#m360e1f0208" x="103.325634" y="316.44327" style="stroke: #000000; stroke-width: 0.6"/>
      </g>
     </g>
    </g>
    <g id="xtick_7">
     <g id="line2d_7">
      <g>
       <use xlink:href="#m360e1f0208" x="113.331761" y="316.44327" style="stroke: #000000; stroke-width: 0.6"/>
      </g>
     </g>
    </g>
    <g id="xtick_8">
     <g id="line2d_8">
      <g>
       <use xlink:href="#m360e1f0208" x="122.15779" y="316.44327" style="stroke: #000000; stroke-width: 0.6"/>
      </g>
     </g>
    </g>
    <g id="xtick_9">
     <g id="line2d_9">
      <g>
       <use xlink:href="#m360e1f0208" x="181.993677" y="316.44327" style="stroke: #000000; stroke-width: 0.6"/>
      </g>
     </g>
    </g>
    <g id="xtick_10">
     <g id="line2d_10">
      <g>
       <use xlink:href="#m360e1f0208" x="212.377059" y="316.44327" style="stroke: #000000; stroke-width: 0.6"/>
      </g>
     </g>
    </g>
    <g id="xtick_11">
     <g id="line2d_11">
      <g>
       <use xlink:href="#m360e1f0208" x="233.934411" y="316.44327" style="stroke: #000000; stroke-width: 0.6"/>
      </g>
     </g>
    </g>
    <g id="xtick_12">
     <g id="line2d_12">
      <g>
       <use xlink:href="#m360e1f0208" x="250.655593" y="316.44327" style="stroke: #000000; stroke-width: 0.6"/>
      </g>
     </g>
    </g>
    <g id="xtick_13">
     <g id="line2d_13">
      <g>
       <use xlink:href="#m360e1f0208" x="264.317793" y="316.44327" style="stroke: #000000; stroke-width: 0.6"/>
      </g>
     </g>
    </g>
    <g id="xtick_14">
     <g id="line2d_14">
      <g>
       <use xlink:href="#m360e1f0208" x="275.869019" y="316.44327" style="stroke: #000000; stroke-width: 0.6"/>
      </g>
     </g>
    </g>
    <g id="xtick_15">
     <g id="line2d_15">
      <g>
       <use xlink:href="#m360e1f0208" x="285.875146" y="316.44327" style="stroke: #000000; stroke-width: 0.6"/>
      </g>
     </g>
    </g>
    <g id="xtick_16">
     <g id="line2d_16">
      <g>
       <use xlink:href="#m360e1f0208" x="294.701175" y="316.44327" style="stroke: #000000; stroke-width: 0.6"/>
      </g>
     </g>
    </g>
    <g id="xtick_17">
     <g id="line2d_17">
      <g>
       <use xlink:href="#m360e1f0208" x="354.537062" y="316.44327" style="stroke: #000000; stroke-width: 0.6"/>
      </g>
     </g>
    </g>
    <g id="xtick_18">
     <g id="line2d_18">
      <g>
       <use xlink:href="#m360e1f0208" x="384.920444" y="316.44327" style="stroke: #000000; stroke-width: 0.6"/>
      </g>
     </g>
    </g>
    <g id="text_3">
     <!-- bandwidth -->
     <g transform="translate(189.962135 344.719832) scale(0.1 -0.1)">
      <defs>
       <path id="DejaVuSans-62" d="M 3116 1747 
Q 3116 2381 2855 2742 
Q 2594 3103 2138 3103 
Q 1681 3103 1420 2742 
Q 1159 2381 1159 1747 
Q 1159 1113 1420 752 
Q 1681 391 2138 391 
Q 2594 391 2855 752 
Q 3116 1113 3116 1747 
z
M 1159 2969 
Q 1341 3281 1617 3432 
Q 1894 3584 2278 3584 
Q 2916 3584 3314 3078 
Q 3713 2572 3713 1747 
Q 3713 922 3314 415 
Q 2916 -91 2278 -91 
Q 1894 -91 1617 61 
Q 1341 213 1159 525 
L 1159 0 
L 581 0 
L 581 4863 
L 1159 4863 
L 1159 2969 
z
" transform="scale(0.015625)"/>
       <path id="DejaVuSans-61" d="M 2194 1759 
Q 1497 1759 1228 1600 
Q 959 1441 959 1056 
Q 959 750 1161 570 
Q 1363 391 1709 391 
Q 2188 391 2477 730 
Q 2766 1069 2766 1631 
L 2766 1759 
L 2194 1759 
z
M 3341 1997 
L 3341 0 
L 2766 0 
L 2766 531 
Q 2569 213 2275 61 
Q 1981 -91 1556 -91 
Q 1019 -91 701 211 
Q 384 513 384 1019 
Q 384 1609 779 1909 
Q 1175 2209 1959 2209 
L 2766 2209 
L 2766 2266 
Q 2766 2663 2505 2880 
Q 2244 3097 1772 3097 
Q 1472 3097 1187 3025 
Q 903 2953 641 2809 
L 641 3341 
Q 956 3463 1253 3523 
Q 1550 3584 1831 3584 
Q 2591 3584 2966 3190 
Q 3341 2797 3341 1997 
z
" transform="scale(0.015625)"/>
       <path id="DejaVuSans-6e" d="M 3513 2113 
L 3513 0 
L 2938 0 
L 2938 2094 
Q 2938 2591 2744 2837 
Q 2550 3084 2163 3084 
Q 1697 3084 1428 2787 
Q 1159 2491 1159 1978 
L 1159 0 
L 581 0 
L 581 3500 
L 1159 3500 
L 1159 2956 
Q 1366 3272 1645 3428 
Q 1925 3584 2291 3584 
Q 2894 3584 3203 3211 
Q 3513 2838 3513 2113 
z
" transform="scale(0.015625)"/>
       <path id="DejaVuSans-64" d="M 2906 2969 
L 2906 4863 
L 3481 4863 
L 3481 0 
L 2906 0 
L 2906 525 
Q 2725 213 2448 61 
Q 2172 -91 1784 -91 
Q 1150 -91 751 415 
Q 353 922 353 1747 
Q 353 2572 751 3078 
Q 1150 3584 1784 3584 
Q 2172 3584 2448 3432 
Q 2725 3281 2906 2969 
z
M 947 1747 
Q 947 1113 1208 752 
Q 1469 391 1925 391 
Q 2381 391 2643 752 
Q 2906 1113 2906 1747 
Q 2906 2381 2643 2742 
Q 2381 3103 1925 3103 
Q 1469 3103 1208 2742 
Q 947 2381 947 1747 
z
" transform="scale(0.015625)"/>
       <path id="DejaVuSans-77" d="M 269 3500 
L 844 3500 
L 1563 769 
L 2278 3500 
L 2956 3500 
L 3675 769 
L 4391 3500 
L 4966 3500 
L 4050 0 
L 3372 0 
L 2619 2869 
L 1863 0 
L 1184 0 
L 269 3500 
z
" transform="scale(0.015625)"/>
       <path id="DejaVuSans-69" d="M 603 3500 
L 1178 3500 
L 1178 0 
L 603 0 
L 603 3500 
z
M 603 4863 
L 1178 4863 
L 1178 4134 
L 603 4134 
L 603 4863 
z
" transform="scale(0.015625)"/>
       <path id="DejaVuSans-74" d="M 1172 4494 
L 1172 3500 
L 2356 3500 
L 2356 3053 
L 1172 3053 
L 1172 1153 
Q 1172 725 1289 603 
Q 1406 481 1766 481 
L 2356 481 
L 2356 0 
L 1766 0 
Q 1100 0 847 248 
Q 594 497 594 1153 
L 594 3053 
L 172 3053 
L 172 3500 
L 594 3500 
L 594 4494 
L 1172 4494 
z
" transform="scale(0.015625)"/>
       <path id="DejaVuSans-68" d="M 3513 2113 
L 3513 0 
L 2938 0 
L 2938 2094 
Q 2938 2591 2744 2837 
Q 2550 3084 2163 3084 
Q 1697 3084 1428 2787 
Q 1159 2491 1159 1978 
L 1159 0 
L 581 0 
L 581 4863 
L 1159 4863 
L 1159 2956 
Q 1366 3272 1645 3428 
Q 1925 3584 2291 3584 
Q 2894 3584 3203 3211 
Q 3513 2838 3513 2113 
z
" transform="scale(0.015625)"/>
      </defs>
      <use xlink:href="#DejaVuSans-62"/>
      <use xlink:href="#DejaVuSans-61" transform="translate(63.476562 0)"/>
      <use xlink:href="#DejaVuSans-6e" transform="translate(124.755859 0)"/>
      <use xlink:href="#DejaVuSans-64" transform="translate(188.134766 0)"/>
      <use xlink:href="#DejaVuSans-77" transform="translate(251.611328 0)"/>
      <use xlink:href="#DejaVuSans-69" transform="translate(333.398438 0)"/>
      <use xlink:href="#DejaVuSans-64" transform="translate(361.181641 0)"/>
      <use xlink:href="#DejaVuSans-74" transform="translate(424.658203 0)"/>
      <use xlink:href="#DejaVuSans-68" transform="translate(463.867188 0)"/>
     </g>
    </g>
   </g>
   <g id="matplotlib.axis_2">
    <g id="ytick_1">
     <g id="line2d_19">
      <defs>
       <path id="mbd2f377c6c" d="M 0 0 
L -3.5 0 
" style="stroke: #000000; stroke-width: 0.8"/>
      </defs>
      <g>
       <use xlink:href="#mbd2f377c6c" x="43.78125" y="316.44327" style="stroke: #000000; stroke-width: 0.8"/>
      </g>
     </g>
     <g id="text_4">
      <!-- 1.0 -->
      <g transform="translate(20.878125 320.242489) scale(0.1 -0.1)">
       <defs>
        <path id="DejaVuSans-2e" d="M 684 794 
L 1344 794 
L 1344 0 
L 684 0 
L 684 794 
z
" transform="scale(0.015625)"/>
       </defs>
       <use xlink:href="#DejaVuSans-31"/>
       <use xlink:href="#DejaVuSans-2e" transform="translate(63.623047 0)"/>
       <use xlink:href="#DejaVuSans-30" transform="translate(95.410156 0)"/>
      </g>
     </g>
    </g>
    <g id="ytick_2">
     <g id="line2d_20">
      <g>
       <use xlink:href="#mbd2f377c6c" x="43.78125" y="267.422412" style="stroke: #000000; stroke-width: 0.8"/>
      </g>
     </g>
     <g id="text_5">
      <!-- 1.5 -->
      <g transform="translate(20.878125 271.221631) scale(0.1 -0.1)">
       <defs>
        <path id="DejaVuSans-35" d="M 691 4666 
L 3169 4666 
L 3169 4134 
L 1269 4134 
L 1269 2991 
Q 1406 3038 1543 3061 
Q 1681 3084 1819 3084 
Q 2600 3084 3056 2656 
Q 3513 2228 3513 1497 
Q 3513 744 3044 326 
Q 2575 -91 1722 -91 
Q 1428 -91 1123 -41 
Q 819 9 494 109 
L 494 744 
Q 775 591 1075 516 
Q 1375 441 1709 441 
Q 2250 441 2565 725 
Q 2881 1009 2881 1497 
Q 2881 1984 2565 2268 
Q 2250 2553 1709 2553 
Q 1456 2553 1204 2497 
Q 953 2441 691 2322 
L 691 4666 
z
" transform="scale(0.015625)"/>
       </defs>
       <use xlink:href="#DejaVuSans-31"/>
       <use xlink:href="#DejaVuSans-2e" transform="translate(63.623047 0)"/>
       <use xlink:href="#DejaVuSans-35" transform="translate(95.410156 0)"/>
      </g>
     </g>
    </g>
    <g id="ytick_3">
     <g id="line2d_21">
      <g>
       <use xlink:href="#mbd2f377c6c" x="43.78125" y="218.401555" style="stroke: #000000; stroke-width: 0.8"/>
      </g>
     </g>
     <g id="text_6">
      <!-- 2.0 -->
      <g transform="translate(20.878125 222.200774) scale(0.1 -0.1)">
       <use xlink:href="#DejaVuSans-32"/>
       <use xlink:href="#DejaVuSans-2e" transform="translate(63.623047 0)"/>
       <use xlink:href="#DejaVuSans-30" transform="translate(95.410156 0)"/>
      </g>
     </g>
    </g>
    <g id="ytick_4">
     <g id="line2d_22">
      <g>
       <use xlink:href="#mbd2f377c6c" x="43.78125" y="169.380697" style="stroke: #000000; stroke-width: 0.8"/>
      </g>
     </g>
     <g id="text_7">
      <!-- 2.5 -->
      <g transform="translate(20.878125 173.179916) scale(0.1 -0.1)">
       <use xlink:href="#DejaVuSans-32"/>
       <use xlink:href="#DejaVuSans-2e" transform="translate(63.623047 0)"/>
       <use xlink:href="#DejaVuSans-35" transform="translate(95.410156 0)"/>
      </g>
     </g>
    </g>
    <g id="ytick_5">
     <g id="line2d_23">
      <g>
       <use xlink:href="#mbd2f377c6c" x="43.78125" y="120.35984" style="stroke: #000000; stroke-width: 0.8"/>
      </g>
     </g>
     <g id="text_8">
      <!-- 3.0 -->
      <g transform="translate(20.878125 124.159059) scale(0.1 -0.1)">
       <defs>
        <path id="DejaVuSans-33" d="M 2597 2516 
Q 3050 2419 3304 2112 
Q 3559 1806 3559 1356 
Q 3559 666 3084 287 
Q 2609 -91 1734 -91 
Q 1441 -91 1130 -33 
Q 819 25 488 141 
L 488 750 
Q 750 597 1062 519 
Q 1375 441 1716 441 
Q 2309 441 2620 675 
Q 2931 909 2931 1356 
Q 2931 1769 2642 2001 
Q 2353 2234 1838 2234 
L 1294 2234 
L 1294 2753 
L 1863 2753 
Q 2328 2753 2575 2939 
Q 2822 3125 2822 3475 
Q 2822 3834 2567 4026 
Q 2313 4219 1838 4219 
Q 1578 4219 1281 4162 
Q 984 4106 628 3988 
L 628 4550 
Q 988 4650 1302 4700 
Q 1616 4750 1894 4750 
Q 2613 4750 3031 4423 
Q 3450 4097 3450 3541 
Q 3450 3153 3228 2886 
Q 3006 2619 2597 2516 
z
" transform="scale(0.015625)"/>
       </defs>
       <use xlink:href="#DejaVuSans-33"/>
       <use xlink:href="#DejaVuSans-2e" transform="translate(63.623047 0)"/>
       <use xlink:href="#DejaVuSans-30" transform="translate(95.410156 0)"/>
      </g>
     </g>
    </g>
    <g id="ytick_6">
     <g id="line2d_24">
      <g>
       <use xlink:href="#mbd2f377c6c" x="43.78125" y="71.338982" style="stroke: #000000; stroke-width: 0.8"/>
      </g>
     </g>
     <g id="text_9">
      <!-- 3.5 -->
      <g transform="translate(20.878125 75.138201) scale(0.1 -0.1)">
       <use xlink:href="#DejaVuSans-33"/>
       <use xlink:href="#DejaVuSans-2e" transform="translate(63.623047 0)"/>
       <use xlink:href="#DejaVuSans-35" transform="translate(95.410156 0)"/>
      </g>
     </g>
    </g>
    <g id="ytick_7">
     <g id="line2d_25">
      <g>
       <use xlink:href="#mbd2f377c6c" x="43.78125" y="22.318125" style="stroke: #000000; stroke-width: 0.8"/>
      </g>
     </g>
     <g id="text_10">
      <!-- 4.0 -->
      <g transform="translate(20.878125 26.117344) scale(0.1 -0.1)">
       <defs>
        <path id="DejaVuSans-34" d="M 2419 4116 
L 825 1625 
L 2419 1625 
L 2419 4116 
z
M 2253 4666 
L 3047 4666 
L 3047 1625 
L 3713 1625 
L 3713 1100 
L 3047 1100 
L 3047 0 
L 2419 0 
L 2419 1100 
L 313 1100 
L 313 1709 
L 2253 4666 
z
" transform="scale(0.015625)"/>
       </defs>
       <use xlink:href="#DejaVuSans-34"/>
       <use xlink:href="#DejaVuSans-2e" transform="translate(63.623047 0)"/>
       <use xlink:href="#DejaVuSans-30" transform="translate(95.410156 0)"/>
      </g>
     </g>
    </g>
    <g id="text_11">
     <!-- alpha -->
     <g transform="translate(14.798438 183.240854) rotate(-90) scale(0.1 -0.1)">
      <defs>
       <path id="DejaVuSans-6c" d="M 603 4863 
L 1178 4863 
L 1178 0 
L 603 0 
L 603 4863 
z
" transform="scale(0.015625)"/>
       <path id="DejaVuSans-70" d="M 1159 525 
L 1159 -1331 
L 581 -1331 
L 581 3500 
L 1159 3500 
L 1159 2969 
Q 1341 3281 1617 3432 
Q 1894 3584 2278 3584 
Q 2916 3584 3314 3078 
Q 3713 2572 3713 1747 
Q 3713 922 3314 415 
Q 2916 -91 2278 -91 
Q 1894 -91 1617 61 
Q 1341 213 1159 525 
z
M 3116 1747 
Q 3116 2381 2855 2742 
Q 2594 3103 2138 3103 
Q 1681 3103 1420 2742 
Q 1159 2381 1159 1747 
Q 1159 1113 1420 752 
Q 1681 391 2138 391 
Q 2594 391 2855 752 
Q 3116 1113 3116 1747 
z
" transform="scale(0.015625)"/>
      </defs>
      <use xlink:href="#DejaVuSans-61"/>
      <use xlink:href="#DejaVuSans-6c" transform="translate(61.279297 0)"/>
      <use xlink:href="#DejaVuSans-70" transform="translate(89.0625 0)"/>
      <use xlink:href="#DejaVuSans-68" transform="translate(152.539062 0)"/>
      <use xlink:href="#DejaVuSans-61" transform="translate(215.917969 0)"/>
     </g>
    </g>
   </g>
   <g id="patch_3">
    <path d="M 43.78125 316.44327 
L 43.78125 22.318125 
" style="fill: none; stroke: #000000; stroke-width: 0.8; stroke-linejoin: miter; stroke-linecap: square"/>
   </g>
   <g id="patch_4">
    <path d="M 388.86802 316.44327 
L 388.86802 22.318125 
" style="fill: none; stroke: #000000; stroke-width: 0.8; stroke-linejoin: miter; stroke-linecap: square"/>
   </g>
   <g id="patch_5">
    <path d="M 43.78125 316.44327 
L 388.86802 316.44327 
" style="fill: none; stroke: #000000; stroke-width: 0.8; stroke-linejoin: miter; stroke-linecap: square"/>
   </g>
   <g id="patch_6">
    <path d="M 43.78125 22.318125 
L 388.86802 22.318125 
" style="fill: none; stroke: #000000; stroke-width: 0.8; stroke-linejoin: miter; stroke-linecap: square"/>
   </g>
   <g id="text_12">
    <!-- lunas_lo 7354 fkdc -->
    <g transform="translate(160.133697 16.318125) scale(0.12 -0.12)">
     <defs>
      <path id="DejaVuSans-75" d="M 544 1381 
L 544 3500 
L 1119 3500 
L 1119 1403 
Q 1119 906 1312 657 
Q 1506 409 1894 409 
Q 2359 409 2629 706 
Q 2900 1003 2900 1516 
L 2900 3500 
L 3475 3500 
L 3475 0 
L 2900 0 
L 2900 538 
Q 2691 219 2414 64 
Q 2138 -91 1772 -91 
Q 1169 -91 856 284 
Q 544 659 544 1381 
z
M 1991 3584 
L 1991 3584 
z
" transform="scale(0.015625)"/>
      <path id="DejaVuSans-73" d="M 2834 3397 
L 2834 2853 
Q 2591 2978 2328 3040 
Q 2066 3103 1784 3103 
Q 1356 3103 1142 2972 
Q 928 2841 928 2578 
Q 928 2378 1081 2264 
Q 1234 2150 1697 2047 
L 1894 2003 
Q 2506 1872 2764 1633 
Q 3022 1394 3022 966 
Q 3022 478 2636 193 
Q 2250 -91 1575 -91 
Q 1294 -91 989 -36 
Q 684 19 347 128 
L 347 722 
Q 666 556 975 473 
Q 1284 391 1588 391 
Q 1994 391 2212 530 
Q 2431 669 2431 922 
Q 2431 1156 2273 1281 
Q 2116 1406 1581 1522 
L 1381 1569 
Q 847 1681 609 1914 
Q 372 2147 372 2553 
Q 372 3047 722 3315 
Q 1072 3584 1716 3584 
Q 2034 3584 2315 3537 
Q 2597 3491 2834 3397 
z
" transform="scale(0.015625)"/>
      <path id="DejaVuSans-5f" d="M 3263 -1063 
L 3263 -1509 
L -63 -1509 
L -63 -1063 
L 3263 -1063 
z
" transform="scale(0.015625)"/>
      <path id="DejaVuSans-6f" d="M 1959 3097 
Q 1497 3097 1228 2736 
Q 959 2375 959 1747 
Q 959 1119 1226 758 
Q 1494 397 1959 397 
Q 2419 397 2687 759 
Q 2956 1122 2956 1747 
Q 2956 2369 2687 2733 
Q 2419 3097 1959 3097 
z
M 1959 3584 
Q 2709 3584 3137 3096 
Q 3566 2609 3566 1747 
Q 3566 888 3137 398 
Q 2709 -91 1959 -91 
Q 1206 -91 779 398 
Q 353 888 353 1747 
Q 353 2609 779 3096 
Q 1206 3584 1959 3584 
z
" transform="scale(0.015625)"/>
      <path id="DejaVuSans-20" transform="scale(0.015625)"/>
      <path id="DejaVuSans-37" d="M 525 4666 
L 3525 4666 
L 3525 4397 
L 1831 0 
L 1172 0 
L 2766 4134 
L 525 4134 
L 525 4666 
z
" transform="scale(0.015625)"/>
      <path id="DejaVuSans-66" d="M 2375 4863 
L 2375 4384 
L 1825 4384 
Q 1516 4384 1395 4259 
Q 1275 4134 1275 3809 
L 1275 3500 
L 2222 3500 
L 2222 3053 
L 1275 3053 
L 1275 0 
L 697 0 
L 697 3053 
L 147 3053 
L 147 3500 
L 697 3500 
L 697 3744 
Q 697 4328 969 4595 
Q 1241 4863 1831 4863 
L 2375 4863 
z
" transform="scale(0.015625)"/>
      <path id="DejaVuSans-6b" d="M 581 4863 
L 1159 4863 
L 1159 1991 
L 2875 3500 
L 3609 3500 
L 1753 1863 
L 3688 0 
L 2938 0 
L 1159 1709 
L 1159 0 
L 581 0 
L 581 4863 
z
" transform="scale(0.015625)"/>
      <path id="DejaVuSans-63" d="M 3122 3366 
L 3122 2828 
Q 2878 2963 2633 3030 
Q 2388 3097 2138 3097 
Q 1578 3097 1268 2742 
Q 959 2388 959 1747 
Q 959 1106 1268 751 
Q 1578 397 2138 397 
Q 2388 397 2633 464 
Q 2878 531 3122 666 
L 3122 134 
Q 2881 22 2623 -34 
Q 2366 -91 2075 -91 
Q 1284 -91 818 406 
Q 353 903 353 1747 
Q 353 2603 823 3093 
Q 1294 3584 2113 3584 
Q 2378 3584 2631 3529 
Q 2884 3475 3122 3366 
z
" transform="scale(0.015625)"/>
     </defs>
     <use xlink:href="#DejaVuSans-6c"/>
     <use xlink:href="#DejaVuSans-75" transform="translate(27.783203 0)"/>
     <use xlink:href="#DejaVuSans-6e" transform="translate(91.162109 0)"/>
     <use xlink:href="#DejaVuSans-61" transform="translate(154.541016 0)"/>
     <use xlink:href="#DejaVuSans-73" transform="translate(215.820312 0)"/>
     <use xlink:href="#DejaVuSans-5f" transform="translate(267.919922 0)"/>
     <use xlink:href="#DejaVuSans-6c" transform="translate(317.919922 0)"/>
     <use xlink:href="#DejaVuSans-6f" transform="translate(345.703125 0)"/>
     <use xlink:href="#DejaVuSans-20" transform="translate(406.884766 0)"/>
     <use xlink:href="#DejaVuSans-37" transform="translate(438.671875 0)"/>
     <use xlink:href="#DejaVuSans-33" transform="translate(502.294922 0)"/>
     <use xlink:href="#DejaVuSans-35" transform="translate(565.917969 0)"/>
     <use xlink:href="#DejaVuSans-34" transform="translate(629.541016 0)"/>
     <use xlink:href="#DejaVuSans-20" transform="translate(693.164062 0)"/>
     <use xlink:href="#DejaVuSans-66" transform="translate(724.951172 0)"/>
     <use xlink:href="#DejaVuSans-6b" transform="translate(760.15625 0)"/>
     <use xlink:href="#DejaVuSans-64" transform="translate(818.066406 0)"/>
     <use xlink:href="#DejaVuSans-63" transform="translate(881.542969 0)"/>
    </g>
   </g>
  </g>
  <g id="axes_2">
   <g id="patch_7">
    <path d="M 406.122358 316.44327 
L 420.828616 316.44327 
L 420.828616 22.318125 
L 406.122358 22.318125 
z
" style="fill: #ffffff"/>
   </g>
   <g id="QuadMesh_1">
    <path d="M 406.122358 316.44327 
L 420.828616 316.44327 
L 420.828616 298.060448 
L 406.122358 298.060448 
L 406.122358 316.44327 
" clip-path="url(#p5097c4bec0)" style="fill: #470d60"/>
    <path d="M 406.122358 298.060448 
L 420.828616 298.060448 
L 420.828616 279.677627 
L 406.122358 279.677627 
L 406.122358 298.060448 
" clip-path="url(#p5097c4bec0)" style="fill: #482374"/>
    <path d="M 406.122358 279.677627 
L 420.828616 279.677627 
L 420.828616 261.294805 
L 406.122358 261.294805 
L 406.122358 279.677627 
" clip-path="url(#p5097c4bec0)" style="fill: #453781"/>
    <path d="M 406.122358 261.294805 
L 420.828616 261.294805 
L 420.828616 242.911984 
L 406.122358 242.911984 
L 406.122358 261.294805 
" clip-path="url(#p5097c4bec0)" style="fill: #3e4989"/>
    <path d="M 406.122358 242.911984 
L 420.828616 242.911984 
L 420.828616 224.529162 
L 406.122358 224.529162 
L 406.122358 242.911984 
" clip-path="url(#p5097c4bec0)" style="fill: #375b8d"/>
    <path d="M 406.122358 224.529162 
L 420.828616 224.529162 
L 420.828616 206.146341 
L 406.122358 206.146341 
L 406.122358 224.529162 
" clip-path="url(#p5097c4bec0)" style="fill: #2f6b8e"/>
    <path d="M 406.122358 206.146341 
L 420.828616 206.146341 
L 420.828616 187.763519 
L 406.122358 187.763519 
L 406.122358 206.146341 
" clip-path="url(#p5097c4bec0)" style="fill: #297a8e"/>
    <path d="M 406.122358 187.763519 
L 420.828616 187.763519 
L 420.828616 169.380697 
L 406.122358 169.380697 
L 406.122358 187.763519 
" clip-path="url(#p5097c4bec0)" style="fill: #23898e"/>
    <path d="M 406.122358 169.380697 
L 420.828616 169.380697 
L 420.828616 150.997876 
L 406.122358 150.997876 
L 406.122358 169.380697 
" clip-path="url(#p5097c4bec0)" style="fill: #1f988b"/>
    <path d="M 406.122358 150.997876 
L 420.828616 150.997876 
L 420.828616 132.615054 
L 406.122358 132.615054 
L 406.122358 150.997876 
" clip-path="url(#p5097c4bec0)" style="fill: #22a785"/>
    <path d="M 406.122358 132.615054 
L 420.828616 132.615054 
L 420.828616 114.232233 
L 406.122358 114.232233 
L 406.122358 132.615054 
" clip-path="url(#p5097c4bec0)" style="fill: #32b67a"/>
    <path d="M 406.122358 114.232233 
L 420.828616 114.232233 
L 420.828616 95.849411 
L 406.122358 95.849411 
L 406.122358 114.232233 
" clip-path="url(#p5097c4bec0)" style="fill: #4ec36b"/>
    <path d="M 406.122358 95.849411 
L 420.828616 95.849411 
L 420.828616 77.46659 
L 406.122358 77.46659 
L 406.122358 95.849411 
" clip-path="url(#p5097c4bec0)" style="fill: #70cf57"/>
    <path d="M 406.122358 77.46659 
L 420.828616 77.46659 
L 420.828616 59.083768 
L 406.122358 59.083768 
L 406.122358 77.46659 
" clip-path="url(#p5097c4bec0)" style="fill: #98d83e"/>
    <path d="M 406.122358 59.083768 
L 420.828616 59.083768 
L 420.828616 40.700947 
L 406.122358 40.700947 
L 406.122358 59.083768 
" clip-path="url(#p5097c4bec0)" style="fill: #c2df23"/>
    <path d="M 406.122358 40.700947 
L 420.828616 40.700947 
L 420.828616 22.318125 
L 406.122358 22.318125 
L 406.122358 40.700947 
" clip-path="url(#p5097c4bec0)" style="fill: #ece51b"/>
   </g>
   <g id="matplotlib.axis_3"/>
   <g id="matplotlib.axis_4">
    <g id="ytick_8">
     <g id="line2d_26">
      <defs>
       <path id="m0a27ea52cb" d="M 0 0 
L 3.5 0 
" style="stroke: #000000; stroke-width: 0.8"/>
      </defs>
      <g>
       <use xlink:href="#m0a27ea52cb" x="420.828616" y="316.44327" style="stroke: #000000; stroke-width: 0.8"/>
      </g>
     </g>
     <g id="text_13">
      <!-- -4.0 -->
      <g transform="translate(427.828616 320.242489) scale(0.1 -0.1)">
       <defs>
        <path id="DejaVuSans-2d" d="M 313 2009 
L 1997 2009 
L 1997 1497 
L 313 1497 
L 313 2009 
z
" transform="scale(0.015625)"/>
       </defs>
       <use xlink:href="#DejaVuSans-2d"/>
       <use xlink:href="#DejaVuSans-34" transform="translate(36.083984 0)"/>
       <use xlink:href="#DejaVuSans-2e" transform="translate(99.707031 0)"/>
       <use xlink:href="#DejaVuSans-30" transform="translate(131.494141 0)"/>
      </g>
     </g>
    </g>
    <g id="ytick_9">
     <g id="line2d_27">
      <g>
       <use xlink:href="#m0a27ea52cb" x="420.828616" y="279.677627" style="stroke: #000000; stroke-width: 0.8"/>
      </g>
     </g>
     <g id="text_14">
      <!-- -3.5 -->
      <g transform="translate(427.828616 283.476846) scale(0.1 -0.1)">
       <use xlink:href="#DejaVuSans-2d"/>
       <use xlink:href="#DejaVuSans-33" transform="translate(36.083984 0)"/>
       <use xlink:href="#DejaVuSans-2e" transform="translate(99.707031 0)"/>
       <use xlink:href="#DejaVuSans-35" transform="translate(131.494141 0)"/>
      </g>
     </g>
    </g>
    <g id="ytick_10">
     <g id="line2d_28">
      <g>
       <use xlink:href="#m0a27ea52cb" x="420.828616" y="242.911984" style="stroke: #000000; stroke-width: 0.8"/>
      </g>
     </g>
     <g id="text_15">
      <!-- -3.0 -->
      <g transform="translate(427.828616 246.711202) scale(0.1 -0.1)">
       <use xlink:href="#DejaVuSans-2d"/>
       <use xlink:href="#DejaVuSans-33" transform="translate(36.083984 0)"/>
       <use xlink:href="#DejaVuSans-2e" transform="translate(99.707031 0)"/>
       <use xlink:href="#DejaVuSans-30" transform="translate(131.494141 0)"/>
      </g>
     </g>
    </g>
    <g id="ytick_11">
     <g id="line2d_29">
      <g>
       <use xlink:href="#m0a27ea52cb" x="420.828616" y="206.146341" style="stroke: #000000; stroke-width: 0.8"/>
      </g>
     </g>
     <g id="text_16">
      <!-- -2.5 -->
      <g transform="translate(427.828616 209.945559) scale(0.1 -0.1)">
       <use xlink:href="#DejaVuSans-2d"/>
       <use xlink:href="#DejaVuSans-32" transform="translate(36.083984 0)"/>
       <use xlink:href="#DejaVuSans-2e" transform="translate(99.707031 0)"/>
       <use xlink:href="#DejaVuSans-35" transform="translate(131.494141 0)"/>
      </g>
     </g>
    </g>
    <g id="ytick_12">
     <g id="line2d_30">
      <g>
       <use xlink:href="#m0a27ea52cb" x="420.828616" y="169.380697" style="stroke: #000000; stroke-width: 0.8"/>
      </g>
     </g>
     <g id="text_17">
      <!-- -2.0 -->
      <g transform="translate(427.828616 173.179916) scale(0.1 -0.1)">
       <use xlink:href="#DejaVuSans-2d"/>
       <use xlink:href="#DejaVuSans-32" transform="translate(36.083984 0)"/>
       <use xlink:href="#DejaVuSans-2e" transform="translate(99.707031 0)"/>
       <use xlink:href="#DejaVuSans-30" transform="translate(131.494141 0)"/>
      </g>
     </g>
    </g>
    <g id="ytick_13">
     <g id="line2d_31">
      <g>
       <use xlink:href="#m0a27ea52cb" x="420.828616" y="132.615054" style="stroke: #000000; stroke-width: 0.8"/>
      </g>
     </g>
     <g id="text_18">
      <!-- -1.5 -->
      <g transform="translate(427.828616 136.414273) scale(0.1 -0.1)">
       <use xlink:href="#DejaVuSans-2d"/>
       <use xlink:href="#DejaVuSans-31" transform="translate(36.083984 0)"/>
       <use xlink:href="#DejaVuSans-2e" transform="translate(99.707031 0)"/>
       <use xlink:href="#DejaVuSans-35" transform="translate(131.494141 0)"/>
      </g>
     </g>
    </g>
    <g id="ytick_14">
     <g id="line2d_32">
      <g>
       <use xlink:href="#m0a27ea52cb" x="420.828616" y="95.849411" style="stroke: #000000; stroke-width: 0.8"/>
      </g>
     </g>
     <g id="text_19">
      <!-- -1.0 -->
      <g transform="translate(427.828616 99.64863) scale(0.1 -0.1)">
       <use xlink:href="#DejaVuSans-2d"/>
       <use xlink:href="#DejaVuSans-31" transform="translate(36.083984 0)"/>
       <use xlink:href="#DejaVuSans-2e" transform="translate(99.707031 0)"/>
       <use xlink:href="#DejaVuSans-30" transform="translate(131.494141 0)"/>
      </g>
     </g>
    </g>
    <g id="ytick_15">
     <g id="line2d_33">
      <g>
       <use xlink:href="#m0a27ea52cb" x="420.828616" y="59.083768" style="stroke: #000000; stroke-width: 0.8"/>
      </g>
     </g>
     <g id="text_20">
      <!-- -0.5 -->
      <g transform="translate(427.828616 62.882987) scale(0.1 -0.1)">
       <use xlink:href="#DejaVuSans-2d"/>
       <use xlink:href="#DejaVuSans-30" transform="translate(36.083984 0)"/>
       <use xlink:href="#DejaVuSans-2e" transform="translate(99.707031 0)"/>
       <use xlink:href="#DejaVuSans-35" transform="translate(131.494141 0)"/>
      </g>
     </g>
    </g>
    <g id="ytick_16">
     <g id="line2d_34">
      <g>
       <use xlink:href="#m0a27ea52cb" x="420.828616" y="22.318125" style="stroke: #000000; stroke-width: 0.8"/>
      </g>
     </g>
     <g id="text_21">
      <!-- 0.0 -->
      <g transform="translate(427.828616 26.117344) scale(0.1 -0.1)">
       <use xlink:href="#DejaVuSans-30"/>
       <use xlink:href="#DejaVuSans-2e" transform="translate(63.623047 0)"/>
       <use xlink:href="#DejaVuSans-30" transform="translate(95.410156 0)"/>
      </g>
     </g>
    </g>
    <g id="text_22">
     <!-- Score -->
     <g transform="translate(458.937991 183.383041) rotate(-90) scale(0.1 -0.1)">
      <defs>
       <path id="DejaVuSans-53" d="M 3425 4513 
L 3425 3897 
Q 3066 4069 2747 4153 
Q 2428 4238 2131 4238 
Q 1616 4238 1336 4038 
Q 1056 3838 1056 3469 
Q 1056 3159 1242 3001 
Q 1428 2844 1947 2747 
L 2328 2669 
Q 3034 2534 3370 2195 
Q 3706 1856 3706 1288 
Q 3706 609 3251 259 
Q 2797 -91 1919 -91 
Q 1588 -91 1214 -16 
Q 841 59 441 206 
L 441 856 
Q 825 641 1194 531 
Q 1563 422 1919 422 
Q 2459 422 2753 634 
Q 3047 847 3047 1241 
Q 3047 1584 2836 1778 
Q 2625 1972 2144 2069 
L 1759 2144 
Q 1053 2284 737 2584 
Q 422 2884 422 3419 
Q 422 4038 858 4394 
Q 1294 4750 2059 4750 
Q 2388 4750 2728 4690 
Q 3069 4631 3425 4513 
z
" transform="scale(0.015625)"/>
       <path id="DejaVuSans-72" d="M 2631 2963 
Q 2534 3019 2420 3045 
Q 2306 3072 2169 3072 
Q 1681 3072 1420 2755 
Q 1159 2438 1159 1844 
L 1159 0 
L 581 0 
L 581 3500 
L 1159 3500 
L 1159 2956 
Q 1341 3275 1631 3429 
Q 1922 3584 2338 3584 
Q 2397 3584 2469 3576 
Q 2541 3569 2628 3553 
L 2631 2963 
z
" transform="scale(0.015625)"/>
       <path id="DejaVuSans-65" d="M 3597 1894 
L 3597 1613 
L 953 1613 
Q 991 1019 1311 708 
Q 1631 397 2203 397 
Q 2534 397 2845 478 
Q 3156 559 3463 722 
L 3463 178 
Q 3153 47 2828 -22 
Q 2503 -91 2169 -91 
Q 1331 -91 842 396 
Q 353 884 353 1716 
Q 353 2575 817 3079 
Q 1281 3584 2069 3584 
Q 2775 3584 3186 3129 
Q 3597 2675 3597 1894 
z
M 3022 2063 
Q 3016 2534 2758 2815 
Q 2500 3097 2075 3097 
Q 1594 3097 1305 2825 
Q 1016 2553 972 2059 
L 3022 2063 
z
" transform="scale(0.015625)"/>
      </defs>
      <use xlink:href="#DejaVuSans-53"/>
      <use xlink:href="#DejaVuSans-63" transform="translate(63.476562 0)"/>
      <use xlink:href="#DejaVuSans-6f" transform="translate(118.457031 0)"/>
      <use xlink:href="#DejaVuSans-72" transform="translate(179.638672 0)"/>
      <use xlink:href="#DejaVuSans-65" transform="translate(218.501953 0)"/>
     </g>
    </g>
   </g>
   <g id="LineCollection_1"/>
   <g id="patch_8">
    <path d="M 406.122358 316.44327 
L 413.475487 316.44327 
L 420.828616 316.44327 
L 420.828616 22.318125 
L 413.475487 22.318125 
L 406.122358 22.318125 
L 406.122358 316.44327 
z
" style="fill: none; stroke: #000000; stroke-width: 0.8; stroke-linejoin: miter; stroke-linecap: square"/>
   </g>
  </g>
 </g>
 <defs>
  <clipPath id="p0497d74b55">
   <rect x="43.78125" y="22.318125" width="345.08677" height="294.125145"/>
  </clipPath>
  <clipPath id="p5097c4bec0">
   <rect x="406.122358" y="22.318125" width="14.706257" height="294.125145"/>
  </clipPath>
 </defs>
</svg>
