<?xml version="1.0" encoding="utf-8" standalone="no"?>
<!DOCTYPE svg PUBLIC "-//W3C//DTD SVG 1.1//EN"
  "http://www.w3.org/Graphics/SVG/1.1/DTD/svg11.dtd">
<svg xmlns:xlink="http://www.w3.org/1999/xlink" width="468.217678pt" height="353.99952pt" viewBox="0 0 468.217678 353.99952" xmlns="http://www.w3.org/2000/svg" version="1.1">
 <metadata>
  <rdf:RDF xmlns:dc="http://purl.org/dc/elements/1.1/" xmlns:cc="http://creativecommons.org/ns#" xmlns:rdf="http://www.w3.org/1999/02/22-rdf-syntax-ns#">
   <cc:Work>
    <dc:type rdf:resource="http://purl.org/dc/dcmitype/StillImage"/>
    <dc:date>1970-01-01T00:00:00+00:00</dc:date>
    <dc:format>image/svg+xml</dc:format>
    <dc:creator>
     <cc:Agent>
      <dc:title>Matplotlib v3.10.7, https://matplotlib.org/</dc:title>
     </cc:Agent>
    </dc:creator>
   </cc:Work>
  </rdf:RDF>
 </metadata>
 <defs>
  <style type="text/css">*{stroke-linejoin: round; stroke-linecap: butt}</style>
 </defs>
 <g id="figure_1">
  <g id="patch_1">
   <path d="M 0 353.99952 
L 468.217678 353.99952 
L 468.217678 0 
L 0 0 
z
" style="fill: #ffffff"/>
  </g>
  <g id="axes_1">
   <g id="patch_2">
    <path d="M 43.78125 316.44327 
L 388.86802 316.44327 
L 388.86802 22.318125 
L 43.78125 22.318125 
z
" style="fill: #ffffff"/>
   </g>
   <g id="QuadContourSet_1">
    <path d="M -54.81497 292.371245 
L -42.128969 291.932841 
L -54.81497 289.728214 
L -55.466519 291.932841 
z
M -5.51686 316.44327 
L 43.78125 316.44327 
L 46.287763 316.44327 
L 43.78125 315.435539 
L -5.51686 301.504401 
L -9.318241 316.44327 
z
M -104.11308 268.033242 
L -96.139862 267.422412 
L -104.11308 265.497769 
L -105.4991 267.422412 
z
" clip-path="url(#p0497d74b55)" style="fill: #470d60"/>
    <path d="M -54.81497 297.476194 
L -17.150765 316.44327 
L -9.318241 316.44327 
L -5.51686 301.504401 
L 43.78125 315.435539 
L 46.287763 316.44327 
L 62.229958 316.44327 
L 43.78125 308.287076 
L 8.348018 291.932841 
L -5.51686 285.964988 
L -50.939775 267.422412 
L -54.81497 265.822888 
L -104.11308 250.044811 
L -117.524059 267.422412 
L -104.11308 272.937587 
L -63.442512 291.932841 
z
M -55.466519 291.932841 
L -54.81497 289.728214 
L -42.128969 291.932841 
L -54.81497 292.371245 
z
M -105.4991 267.422412 
L -104.11308 265.497769 
L -96.139862 267.422412 
L -104.11308 268.033242 
z
M -153.41119 249.571065 
L -118.472261 242.911984 
L -153.41119 228.22442 
L -169.420591 242.911984 
z
M -202.7093 225.365124 
L -175.438747 218.401555 
L -202.7093 208.184022 
L -216.395336 218.401555 
z
" clip-path="url(#p0497d74b55)" style="fill: #482173"/>
    <path d="M -54.81497 302.581144 
L -25.772425 316.44327 
L -17.150765 316.44327 
L -54.81497 297.476194 
L -63.442512 291.932841 
L -104.11308 272.937587 
L -117.524059 267.422412 
L -104.11308 250.044811 
L -54.81497 265.822888 
L -50.939775 267.422412 
L -5.51686 285.964988 
L 8.348018 291.932841 
L 43.78125 308.287076 
L 62.229958 316.44327 
L 75.665057 316.44327 
L 43.78125 301.138613 
L 25.658148 291.932841 
L -5.51686 277.021346 
L -26.039382 267.422412 
L -54.81497 253.622931 
L -81.917825 242.911984 
L -104.11308 235.593028 
L -137.892539 218.401555 
L -153.41119 211.821572 
L -191.352112 193.891126 
L -202.7093 189.457754 
L -249.34235 169.380697 
L -252.00741 168.644436 
L -301.30552 148.527926 
L -309.779758 144.870269 
L -350.60363 128.997726 
L -373.466146 120.35984 
L -399.90174 111.247839 
L -445.366233 95.849411 
L -449.19985 94.803111 
L -498.49796 80.458026 
L -498.49796 95.849411 
L -498.49796 97.774901 
L -453.580841 120.35984 
L -449.19985 123.198444 
L -402.797752 144.870269 
L -399.90174 146.765551 
L -352.639943 169.380697 
L -350.60363 170.751489 
L -301.30552 192.323038 
L -297.87145 193.891126 
L -252.00741 217.588107 
L -250.563336 218.401555 
L -202.7093 238.585687 
L -193.223435 242.911984 
L -153.41119 257.4322 
L -131.517671 267.422412 
L -104.11308 277.841932 
L -72.238354 291.932841 
z
M -169.420591 242.911984 
L -153.41119 228.22442 
L -118.472261 242.911984 
L -153.41119 249.571065 
z
M -216.395336 218.401555 
L -202.7093 208.184022 
L -175.438747 218.401555 
L -202.7093 225.365124 
z
" clip-path="url(#p0497d74b55)" style="fill: #453781"/>
    <path d="M -54.81497 307.686093 
L -35.360231 316.44327 
L -25.772425 316.44327 
L -54.81497 302.581144 
L -72.238354 291.932841 
L -104.11308 277.841932 
L -131.517671 267.422412 
L -153.41119 257.4322 
L -193.223435 242.911984 
L -202.7093 238.585687 
L -250.563336 218.401555 
L -252.00741 217.588107 
L -297.87145 193.891126 
L -301.30552 192.323038 
L -350.60363 170.751489 
L -352.639943 169.380697 
L -399.90174 146.765551 
L -402.797752 144.870269 
L -449.19985 123.198444 
L -453.580841 120.35984 
L -498.49796 97.774901 
L -498.49796 104.730147 
L -465.08412 120.35984 
L -449.19985 129.996067 
L -414.8433 144.870269 
L -399.90174 153.99577 
L -365.11896 169.380697 
L -350.60363 178.476095 
L -314.285269 193.891126 
L -301.30552 200.138298 
L -262.313988 218.401555 
L -252.00741 223.317398 
L -208.47425 242.911984 
L -202.7093 246.156188 
L -153.41119 265.293334 
L -148.253167 267.422412 
L -104.11308 282.746277 
L -82.042103 291.932841 
z
M 43.78125 301.138613 
L 75.665057 316.44327 
L 87.275486 316.44327 
L 43.78125 293.990149 
L 40.050868 291.932841 
L -5.51686 268.077703 
L -6.771796 267.422412 
L -51.756116 242.911984 
L -54.81497 241.62048 
L -104.11308 221.999551 
L -110.163883 218.401555 
L -153.41119 196.642029 
L -158.247802 193.891126 
L -202.7093 172.612924 
L -208.703277 169.380697 
L -252.00741 154.05226 
L -269.537384 144.870269 
L -301.30552 134.076145 
L -327.52692 120.35984 
L -350.60363 110.72131 
L -379.457581 95.849411 
L -399.90174 87.098698 
L -432.025853 71.338983 
L -449.19985 64.23923 
L -484.908547 46.828554 
L -498.49796 41.603044 
L -498.49796 46.828554 
L -498.49796 71.338982 
L -498.49796 80.458026 
L -449.19985 94.803111 
L -445.366233 95.849411 
L -399.90174 111.247839 
L -373.466146 120.35984 
L -350.60363 128.997726 
L -309.779758 144.870269 
L -301.30552 148.527926 
L -252.00741 168.644436 
L -249.34235 169.380697 
L -202.7093 189.457754 
L -191.352112 193.891126 
L -153.41119 211.821572 
L -137.892539 218.401555 
L -104.11308 235.593028 
L -81.917825 242.911984 
L -54.81497 253.622931 
L -26.039382 267.422412 
L -5.51686 277.021346 
L 25.658148 291.932841 
z
" clip-path="url(#p0497d74b55)" style="fill: #3e4989"/>
    <path d="M -54.81497 312.791043 
L -46.15837 316.44327 
L -35.360231 316.44327 
L -54.81497 307.686093 
L -82.042103 291.932841 
L -104.11308 282.746277 
L -148.253167 267.422412 
L -153.41119 265.293334 
L -202.7093 246.156188 
L -208.47425 242.911984 
L -252.00741 223.317398 
L -262.313988 218.401555 
L -301.30552 200.138298 
L -314.285269 193.891126 
L -350.60363 178.476095 
L -365.11896 169.380697 
L -399.90174 153.99577 
L -414.8433 144.870269 
L -449.19985 129.996067 
L -465.08412 120.35984 
L -498.49796 104.730147 
L -498.49796 111.685393 
L -478.375878 120.35984 
L -449.19985 136.793689 
L -428.864817 144.870269 
L -399.90174 161.22599 
L -379.731696 169.380697 
L -350.60363 186.2007 
L -330.573133 193.891126 
L -301.30552 206.749939 
L -274.477413 218.401555 
L -252.00741 228.406808 
L -217.831431 242.911984 
L -202.7093 250.978419 
L -160.282261 267.422412 
L -153.41119 270.41462 
L -104.11308 287.650622 
L -93.115008 291.932841 
z
M 43.78125 293.990149 
L 87.275486 316.44327 
L 93.07936 316.44327 
L 100.585924 316.44327 
L 93.07936 312.722847 
L 57.423832 291.932841 
L 43.78125 285.307559 
L 13.807269 267.422412 
L -5.51686 258.024231 
L -30.115932 242.911984 
L -54.81497 231.038762 
L -81.869558 218.401555 
L -104.11308 207.91012 
L -127.472203 193.891126 
L -153.41119 181.672546 
L -174.79006 169.380697 
L -202.7093 159.619701 
L -237.740893 144.870269 
L -252.00741 139.024566 
L -301.30552 121.503377 
L -303.209649 120.35984 
L -350.60363 97.322428 
L -353.064919 95.849411 
L -399.90174 72.225543 
L -401.422042 71.338982 
L -449.19985 47.456083 
L -450.258795 46.828554 
L -498.49796 23.842931 
L -498.49796 41.603044 
L -484.908547 46.828554 
L -449.19985 64.23923 
L -432.025853 71.338982 
L -399.90174 87.098698 
L -379.457581 95.849411 
L -350.60363 110.72131 
L -327.52692 120.35984 
L -301.30552 134.076145 
L -269.537384 144.870269 
L -252.00741 154.05226 
L -208.703277 169.380697 
L -202.7093 172.612924 
L -158.247802 193.891126 
L -153.41119 196.642029 
L -110.163883 218.401555 
L -104.11308 221.999551 
L -54.81497 241.62048 
L -51.756116 242.911984 
L -6.771796 267.422412 
L -5.51686 268.077703 
L 40.050868 291.932841 
z
" clip-path="url(#p0497d74b55)" style="fill: #375a8c"/>
    <path d="M -104.11308 292.551767 
L -56.89869 316.44327 
L -54.81497 316.44327 
L -46.15837 316.44327 
L -54.81497 312.791043 
L -93.115008 291.932841 
L -104.11308 287.650622 
L -153.41119 270.41462 
L -160.282261 267.422412 
L -202.7093 250.978419 
L -217.831431 242.911984 
L -252.00741 228.406808 
L -274.477413 218.401555 
L -301.30552 206.749939 
L -330.573133 193.891126 
L -350.60363 186.2007 
L -379.731696 169.380697 
L -399.90174 161.22599 
L -428.864817 144.870269 
L -449.19985 136.793689 
L -478.375878 120.35984 
L -498.49796 111.685393 
L -498.49796 118.640639 
L -494.116481 120.35984 
L -449.19985 143.591312 
L -445.64028 144.870269 
L -399.90174 168.456209 
L -397.361417 169.380697 
L -350.652822 193.891126 
L -350.60363 193.916536 
L -301.30552 213.36158 
L -288.659006 218.401555 
L -252.00741 233.496218 
L -228.33785 242.911984 
L -202.7093 255.80065 
L -170.702854 267.422412 
L -153.41119 274.518235 
L -105.207897 291.932841 
z
M 93.07936 312.722847 
L 100.585924 316.44327 
L 115.322612 316.44327 
L 93.07936 304.39855 
L 73.519497 291.932841 
L 43.78125 276.005036 
L 30.694076 267.422412 
L -5.51686 247.883013 
L -12.855748 242.911984 
L -54.81497 220.457043 
L -58.673817 218.401555 
L -103.662589 193.891126 
L -104.11308 193.692372 
L -148.470708 169.380697 
L -153.41119 167.145195 
L -202.7093 147.541017 
L -208.080398 144.870269 
L -252.00741 123.257728 
L -258.555064 120.35984 
L -301.30552 98.838657 
L -306.093375 95.849411 
L -350.60363 73.621601 
L -353.989989 71.338982 
L -399.90174 55.081618 
L -413.326839 46.828554 
L -449.19985 34.119592 
L -470.080996 22.318125 
L -498.49796 22.318125 
L -498.49796 23.842931 
L -450.258795 46.828554 
L -449.19985 47.456083 
L -401.422042 71.338982 
L -399.90174 72.225543 
L -353.064919 95.849411 
L -350.60363 97.322428 
L -303.209649 120.35984 
L -301.30552 121.503377 
L -252.00741 139.024566 
L -237.740893 144.870269 
L -202.7093 159.619701 
L -174.79006 169.380697 
L -153.41119 181.672546 
L -127.472203 193.891126 
L -104.11308 207.91012 
L -81.869558 218.401555 
L -54.81497 231.038762 
L -30.115932 242.911984 
L -5.51686 258.024231 
L 13.807269 267.422412 
L 43.78125 285.307559 
L 57.423832 291.932841 
z
" clip-path="url(#p0497d74b55)" style="fill: #2f6b8e"/>
    <path d="M -104.11308 297.430891 
L -64.65137 316.44327 
L -56.89869 316.44327 
L -104.11308 292.551767 
L -105.207897 291.932841 
L -153.41119 274.518235 
L -170.702854 267.422412 
L -202.7093 255.80065 
L -228.33785 242.911984 
L -252.00741 233.496218 
L -288.659006 218.401555 
L -301.30552 213.36158 
L -350.60363 193.916536 
L -350.652822 193.891126 
L -397.361417 169.380697 
L -399.90174 168.456209 
L -445.64028 144.870269 
L -449.19985 143.591312 
L -494.116481 120.35984 
L -498.49796 118.640639 
L -498.49796 120.35984 
L -498.49796 128.836416 
L -464.021066 144.870269 
L -449.19985 152.506645 
L -413.134214 169.380697 
L -399.90174 175.978335 
L -362.564901 193.891126 
L -350.60363 199.659168 
L -303.88866 218.401555 
L -301.30552 219.766247 
L -252.00741 238.585629 
L -240.315854 242.911984 
L -202.7093 260.622881 
L -182.569394 267.422412 
L -153.41119 278.62185 
L -114.366719 291.932841 
z
M 93.07936 304.39855 
L 115.322612 316.44327 
L 127.891855 316.44327 
L 93.07936 296.074252 
L 87.063333 291.932841 
L 45.252618 267.422412 
L 43.78125 266.752553 
L 4.307798 242.911984 
L -5.51686 238.025662 
L -37.80062 218.401555 
L -54.81497 210.044401 
L -81.149358 193.891126 
L -104.11308 182.301848 
L -124.828469 169.380697 
L -153.41119 154.466147 
L -174.216997 144.870269 
L -202.7093 128.990279 
L -216.573556 120.35984 
L -252.00741 98.139737 
L -255.364318 95.849411 
L -301.30552 77.554055 
L -311.070815 71.338982 
L -350.60363 49.590825 
L -357.666519 46.828554 
L -395.60388 22.318125 
L -399.90174 22.318125 
L -449.19985 22.318125 
L -470.080996 22.318125 
L -449.19985 34.119592 
L -413.326839 46.828554 
L -399.90174 55.081618 
L -353.989989 71.338982 
L -350.60363 73.621601 
L -306.093375 95.849411 
L -301.30552 98.838657 
L -258.555064 120.35984 
L -252.00741 123.257728 
L -208.080398 144.870269 
L -202.7093 147.541017 
L -153.41119 167.145195 
L -148.470708 169.380697 
L -104.11308 193.692372 
L -103.662589 193.891126 
L -58.673817 218.401555 
L -54.81497 220.457043 
L -12.855748 242.911984 
L -5.51686 247.883013 
L 30.694076 267.422412 
L 43.78125 276.005036 
L 73.519497 291.932841 
z
" clip-path="url(#p0497d74b55)" style="fill: #297a8e"/>
    <path d="M -104.11308 302.310015 
L -73.17637 316.44327 
L -64.65137 316.44327 
L -104.11308 297.430891 
L -114.366719 291.932841 
L -153.41119 278.62185 
L -182.569394 267.422412 
L -202.7093 260.622881 
L -240.315854 242.911984 
L -252.00741 238.585629 
L -301.30552 219.766247 
L -303.88866 218.401555 
L -350.60363 199.659168 
L -362.564901 193.891126 
L -399.90174 175.978335 
L -413.134214 169.380697 
L -449.19985 152.506645 
L -464.021066 144.870269 
L -498.49796 128.836416 
L -498.49796 140.096187 
L -486.708544 144.870269 
L -449.19985 161.912759 
L -431.348259 169.380697 
L -399.90174 183.543258 
L -376.405795 193.891126 
L -350.60363 205.401799 
L -315.699079 218.401555 
L -301.30552 225.507194 
L -253.792118 242.911984 
L -252.00741 243.994985 
L -202.7093 265.445113 
L -196.348811 267.422412 
L -153.41119 282.725465 
L -124.623652 291.932841 
z
M 93.07936 296.074252 
L 127.891855 316.44327 
L 138.850228 316.44327 
L 101.593842 291.932841 
L 93.07936 287.686807 
L 62.290225 267.422412 
L 43.78125 258.096635 
L 20.815926 242.911984 
L -5.51686 228.441242 
L -20.517313 218.401555 
L -54.81497 199.67252 
L -63.339431 193.891126 
L -104.11308 170.911324 
L -106.320982 169.380697 
L -146.498767 144.870269 
L -153.41119 141.73246 
L -187.024235 120.35984 
L -202.7093 112.881345 
L -228.24743 95.849411 
L -252.00741 84.094261 
L -277.367233 71.338982 
L -301.30552 58.520157 
L -318.713933 46.828554 
L -350.60363 27.769038 
L -357.979637 22.318125 
L -395.60388 22.318125 
L -357.666519 46.828554 
L -350.60363 49.590825 
L -311.070815 71.338982 
L -301.30552 77.554055 
L -255.364318 95.849411 
L -252.00741 98.139737 
L -216.573556 120.35984 
L -202.7093 128.990279 
L -174.216997 144.870269 
L -153.41119 154.466147 
L -124.828469 169.380697 
L -104.11308 182.301848 
L -81.149358 193.891126 
L -54.81497 210.044401 
L -37.80062 218.401555 
L -5.51686 238.025662 
L 4.307798 242.911984 
L 43.78125 266.752553 
L 45.252618 267.422412 
L 87.063333 291.932841 
z
" clip-path="url(#p0497d74b55)" style="fill: #23898e"/>
    <path d="M -104.11308 307.189139 
L -82.644768 316.44327 
L -73.17637 316.44327 
L -104.11308 302.310015 
L -124.623652 291.932841 
L -153.41119 282.725465 
L -196.348811 267.422412 
L -202.7093 265.445113 
L -252.00741 243.994985 
L -253.792118 242.911984 
L -301.30552 225.507194 
L -315.699079 218.401555 
L -350.60363 205.401799 
L -376.405795 193.891126 
L -399.90174 183.543258 
L -431.348259 169.380697 
L -449.19985 161.912759 
L -486.708544 144.870269 
L -498.49796 140.096187 
L -498.49796 144.870269 
L -498.49796 150.025051 
L -452.523753 169.380697 
L -449.19985 171.743594 
L -399.90174 191.108181 
L -392.923128 193.891126 
L -350.60363 211.14443 
L -329.402841 218.401555 
L -301.30552 231.248141 
L -266.753857 242.911984 
L -252.00741 251.218366 
L -210.892728 267.422412 
L -202.7093 271.543238 
L -153.41119 286.829079 
L -136.278349 291.932841 
z
M 142.37747 316.44327 
L 153.530731 316.44327 
L 142.37747 310.928552 
L 116.371654 291.932841 
L 93.07936 279.236838 
L 76.494231 267.422412 
L 43.78125 249.440717 
L 34.650363 242.911984 
L -5.51686 218.856822 
L -6.143123 218.401555 
L -43.727556 193.891126 
L -54.81497 188.537274 
L -83.303079 169.380697 
L -104.11308 158.057925 
L -122.794787 144.870269 
L -153.41119 128.828716 
L -165.203195 120.35984 
L -202.7093 99.913405 
L -208.147406 95.849411 
L -251.76199 71.338982 
L -252.00741 71.227337 
L -288.393183 46.828554 
L -301.30552 40.525508 
L -326.434778 22.318125 
L -350.60363 22.318125 
L -357.979637 22.318125 
L -350.60363 27.769038 
L -318.713933 46.828554 
L -301.30552 58.520157 
L -277.367233 71.338982 
L -252.00741 84.094261 
L -228.24743 95.849411 
L -202.7093 112.881345 
L -187.024235 120.35984 
L -153.41119 141.73246 
L -146.498767 144.870269 
L -106.320982 169.380697 
L -104.11308 170.911324 
L -63.339431 193.891126 
L -54.81497 199.67252 
L -20.517313 218.401555 
L -5.51686 228.441242 
L 20.815926 242.911984 
L 43.78125 258.096635 
L 62.290225 267.422412 
L 93.07936 287.686807 
L 101.593842 291.932841 
L 138.850228 316.44327 
z
" clip-path="url(#p0497d74b55)" style="fill: #1f988b"/>
    <path d="M -104.11308 312.068262 
L -93.291644 316.44327 
L -82.644768 316.44327 
L -104.11308 307.189139 
L -136.278349 291.932841 
L -153.41119 286.829079 
L -202.7093 271.543238 
L -210.892728 267.422412 
L -252.00741 251.218366 
L -266.753857 242.911984 
L -301.30552 231.248141 
L -329.402841 218.401555 
L -350.60363 211.14443 
L -392.923128 193.891126 
L -399.90174 191.108181 
L -449.19985 171.743594 
L -452.523753 169.380697 
L -498.49796 150.025051 
L -498.49796 158.97424 
L -470.78833 169.380697 
L -449.19985 183.210911 
L -416.578792 193.891126 
L -399.90174 202.469702 
L -350.60363 216.887062 
L -345.725077 218.401555 
L -301.30552 236.989088 
L -282.033395 242.911984 
L -252.00741 258.441746 
L -226.846004 267.422412 
L -202.7093 278.528141 
L -153.41119 290.932694 
L -149.772789 291.932841 
z
M 142.37747 310.928552 
L 153.530731 316.44327 
L 168.275504 316.44327 
L 142.37747 302.443475 
L 128.970781 291.932841 
L 93.07936 270.78687 
L 88.67413 267.422412 
L 50.471736 242.911984 
L 43.78125 239.645551 
L 16.331782 218.401555 
L -5.51686 206.740163 
L -22.963737 193.891126 
L -54.81497 176.440625 
L -64.247078 169.380697 
L -104.11308 144.977433 
L -104.249581 144.870269 
L -141.271344 120.35984 
L -153.41119 114.112266 
L -179.195559 95.849411 
L -202.7093 83.509953 
L -219.294758 71.338982 
L -252.00741 53.241887 
L -260.176983 46.828554 
L -301.30552 22.951099 
L -302.065993 22.318125 
L -326.434778 22.318125 
L -301.30552 40.525508 
L -288.393183 46.828554 
L -252.00741 71.227337 
L -251.76199 71.338982 
L -208.147406 95.849411 
L -202.7093 99.913405 
L -165.203195 120.35984 
L -153.41119 128.828716 
L -122.794787 144.870269 
L -104.11308 158.057925 
L -83.303079 169.380697 
L -54.81497 188.537274 
L -43.727556 193.891126 
L -6.143123 218.401555 
L -5.51686 218.856822 
L 34.650363 242.911984 
L 43.78125 249.440717 
L 76.494231 267.422412 
L 93.07936 279.236838 
L 116.371654 291.932841 
z
" clip-path="url(#p0497d74b55)" style="fill: #21a685"/>
    <path d="M -153.41119 303.537459 
L -108.315072 316.44327 
L -104.11308 316.44327 
L -93.291644 316.44327 
L -104.11308 312.068262 
L -149.772789 291.932841 
L -153.41119 290.932694 
L -202.7093 278.528141 
L -226.846004 267.422412 
L -252.00741 258.441746 
L -282.033395 242.911984 
L -301.30552 236.989088 
L -345.725077 218.401555 
L -350.60363 216.887062 
L -399.90174 202.469702 
L -416.578792 193.891126 
L -449.19985 183.210911 
L -470.78833 169.380697 
L -498.49796 158.97424 
L -498.49796 167.92343 
L -494.03468 169.380697 
L -451.710659 193.891126 
L -449.19985 195.656319 
L -399.90174 216.040713 
L -388.026227 218.401555 
L -350.60363 229.144136 
L -301.30552 242.730036 
L -300.644145 242.911984 
L -252.00741 265.665127 
L -246.467459 267.422412 
L -202.7093 285.513045 
L -172.260589 291.932841 
z
M 142.37747 302.443475 
L 168.275504 316.44327 
L 180.850623 316.44327 
L 142.37747 293.958398 
L 139.951852 291.932841 
L 109.078447 267.422412 
L 93.07936 258.795361 
L 73.321723 242.911984 
L 43.78125 226.353813 
L 34.505428 218.401555 
L -5.51686 194.497222 
L -6.264678 193.891126 
L -39.547812 169.380697 
L -54.81497 161.115885 
L -73.697377 144.870269 
L -104.11308 127.561777 
L -113.406198 120.35984 
L -153.41119 95.934248 
L -153.514679 95.849411 
L -187.520251 71.338982 
L -202.7093 62.806204 
L -223.111655 46.828554 
L -252.00741 29.639609 
L -260.734238 22.318125 
L -301.30552 22.318125 
L -302.065993 22.318125 
L -301.30552 22.951099 
L -260.176983 46.828554 
L -252.00741 53.241887 
L -219.294758 71.338982 
L -202.7093 83.509953 
L -179.195559 95.849411 
L -153.41119 114.112266 
L -141.271344 120.35984 
L -104.249581 144.870269 
L -104.11308 144.977433 
L -64.247078 169.380697 
L -54.81497 176.440625 
L -22.963737 193.891126 
L -5.51686 206.740163 
L 16.331782 218.401555 
L 43.78125 239.645551 
L 50.471736 242.911984 
L 88.67413 267.422412 
L 93.07936 270.78687 
L 128.970781 291.932841 
z
" clip-path="url(#p0497d74b55)" style="fill: #32b67a"/>
    <path d="M -252.00741 299.268586 
L -202.7093 294.829908 
L -161.602691 316.44327 
L -153.41119 316.44327 
L -108.315072 316.44327 
L -153.41119 303.537459 
L -172.260589 291.932841 
L -202.7093 285.513045 
L -246.467459 267.422412 
L -252.00741 265.665127 
L -300.644145 242.911984 
L -301.30552 242.730036 
L -350.60363 229.144136 
L -388.026227 218.401555 
L -399.90174 216.040713 
L -449.19985 195.656319 
L -451.710659 193.891126 
L -494.03468 169.380697 
L -498.49796 167.92343 
L -498.49796 169.380697 
L -498.49796 193.891126 
L -498.49796 218.401555 
L -498.49796 225.125988 
L -449.19985 225.457698 
L -414.495792 242.911984 
L -399.90174 248.032771 
L -361.558195 267.422412 
L -350.60363 274.758157 
L -301.30552 271.361087 
L -262.961975 291.932841 
z
M 142.37747 293.958398 
L 180.850623 316.44327 
L 191.67558 316.44327 
L 192.098431 316.44327 
L 191.67558 316.206461 
L 163.363616 291.932841 
L 142.37747 278.972854 
L 130.42945 267.422412 
L 93.07936 244.460849 
L 91.341276 242.911984 
L 60.030212 218.401555 
L 43.78125 208.258793 
L 28.451483 193.891126 
L -5.51686 174.390126 
L -11.213336 169.380697 
L -44.19538 144.870269 
L -54.81497 139.204932 
L -76.300168 120.35984 
L -104.11308 103.82049 
L -112.842056 95.849411 
L -151.171321 71.338982 
L -153.41119 70.213328 
L -179.395713 46.828554 
L -202.7093 32.692629 
L -214.148607 22.318125 
L -252.00741 22.318125 
L -260.734238 22.318125 
L -252.00741 29.639609 
L -223.111655 46.828554 
L -202.7093 62.806204 
L -187.520251 71.338982 
L -153.514679 95.849411 
L -153.41119 95.934248 
L -113.406198 120.35984 
L -104.11308 127.561777 
L -73.697377 144.870269 
L -54.81497 161.115885 
L -39.547812 169.380697 
L -6.264678 193.891126 
L -5.51686 194.497222 
L 34.505428 218.401555 
L 43.78125 226.353813 
L 73.321723 242.911984 
L 93.07936 258.795361 
L 109.078447 267.422412 
L 139.951852 291.932841 
z
" clip-path="url(#p0497d74b55)" style="fill: #4ec36b"/>
    <path d="M -449.19985 316.44327 
L -399.90174 316.44327 
L -350.60363 316.44327 
L -301.30552 316.44327 
L -252.00741 316.44327 
L -202.7093 316.44327 
L -161.602691 316.44327 
L -202.7093 294.829908 
L -252.00741 299.268586 
L -262.961975 291.932841 
L -301.30552 271.361087 
L -350.60363 274.758157 
L -361.558195 267.422412 
L -399.90174 248.032771 
L -414.495792 242.911984 
L -449.19985 225.457698 
L -498.49796 225.125988 
L -498.49796 242.911984 
L -498.49796 267.422412 
L -498.49796 291.932841 
L -498.49796 316.44327 
z
M 191.67558 316.206461 
L 192.098431 316.44327 
L 218.926041 316.44327 
L 191.67558 298.519105 
L 184.870985 291.932841 
L 156.723596 267.422412 
L 142.37747 259.248966 
L 125.039035 242.911984 
L 93.07936 220.753934 
L 90.674109 218.401555 
L 64.364179 193.891126 
L 43.78125 180.116973 
L 31.395081 169.380697 
L 1.630755 144.870269 
L -5.51686 140.447141 
L -29.62011 120.35984 
L -54.81497 102.277022 
L -61.198916 95.849411 
L -89.471459 71.338982 
L -104.11308 61.691759 
L -121.678943 46.828554 
L -146.979539 22.318125 
L -153.41119 22.318125 
L -202.7093 22.318125 
L -214.148607 22.318125 
L -202.7093 32.692629 
L -179.395713 46.828554 
L -153.41119 70.213328 
L -151.171321 71.338982 
L -112.842056 95.849411 
L -104.11308 103.82049 
L -76.300168 120.35984 
L -54.81497 139.204932 
L -44.19538 144.870269 
L -11.213336 169.380697 
L -5.51686 174.390126 
L 28.451483 193.891126 
L 43.78125 208.258793 
L 60.030212 218.401555 
L 91.341276 242.911984 
L 93.07936 244.460849 
L 130.42945 267.422412 
L 142.37747 278.972854 
L 163.363616 291.932841 
z
M 536.76235 308.062089 
L 543.538202 316.44327 
L 586.06046 316.44327 
L 635.35857 316.44327 
L 684.65668 316.44327 
L 733.95479 316.44327 
L 783.2529 316.44327 
L 832.55101 316.44327 
L 881.84912 316.44327 
L 931.14723 316.44327 
L 980.44534 316.44327 
L 1029.74345 316.44327 
L 1079.04156 316.44327 
L 1128.33967 316.44327 
L 1177.63778 316.44327 
L 1226.93589 316.44327 
L 1276.234 316.44327 
L 1325.53211 316.44327 
L 1374.83022 316.44327 
L 1424.128329 316.44327 
L 1473.426439 316.44327 
L 1522.724549 316.44327 
L 1572.022659 316.44327 
L 1621.320769 316.44327 
L 1670.618879 316.44327 
L 1670.618879 291.932841 
L 1670.618879 267.422412 
L 1670.618879 242.911984 
L 1670.618879 218.401555 
L 1670.618879 193.891126 
L 1670.618879 169.380697 
L 1670.618879 144.870269 
L 1670.618879 120.35984 
L 1670.618879 95.849411 
L 1670.618879 71.338982 
L 1670.618879 46.828554 
L 1670.618879 22.318125 
L 1621.320769 22.318125 
L 1572.022659 22.318125 
L 1522.724549 22.318125 
L 1473.426439 22.318125 
L 1424.128329 22.318125 
L 1374.83022 22.318125 
L 1325.53211 22.318125 
L 1276.234 22.318125 
L 1226.93589 22.318125 
L 1177.63778 22.318125 
L 1128.33967 22.318125 
L 1079.04156 22.318125 
L 1029.74345 22.318125 
L 980.44534 22.318125 
L 931.14723 22.318125 
L 881.84912 22.318125 
L 832.55101 22.318125 
L 783.2529 22.318125 
L 733.95479 22.318125 
L 684.65668 22.318125 
L 635.35857 22.318125 
L 586.06046 22.318125 
L 536.76235 22.318125 
L 487.46424 22.318125 
L 438.16613 22.318125 
L 388.86802 22.318125 
L 375.900513 22.318125 
L 382.776789 46.828554 
L 388.86802 69.904276 
L 389.641946 71.338982 
L 403.681345 95.849411 
L 416.116958 120.35984 
L 427.149705 144.870269 
L 436.815821 169.380697 
L 438.16613 172.396408 
L 458.381375 193.891126 
L 475.512289 218.401555 
L 487.46424 241.358371 
L 489.497474 242.911984 
L 517.37637 267.422412 
L 532.268614 291.932841 
z
" clip-path="url(#p0497d74b55)" style="fill: #70cf57"/>
    <path d="M 191.67558 298.519105 
L 218.926041 316.44327 
L 239.323942 316.44327 
L 219.257913 291.932841 
L 191.67558 269.251614 
L 190.281651 267.422412 
L 165.182329 242.911984 
L 142.37747 222.933867 
L 139.240129 218.401555 
L 112.704807 193.891126 
L 93.07936 178.722546 
L 87.099738 169.380697 
L 60.328797 144.870269 
L 43.78125 134.163818 
L 34.561061 120.35984 
L 4.627818 95.849411 
L -5.51686 90.112343 
L -18.091543 71.338982 
L -54.81497 47.25957 
L -55.174526 46.828554 
L -71.812058 22.318125 
L -104.11308 22.318125 
L -146.979539 22.318125 
L -121.678943 46.828554 
L -104.11308 61.691759 
L -89.471459 71.338982 
L -61.198916 95.849411 
L -54.81497 102.277022 
L -29.62011 120.35984 
L -5.51686 140.447141 
L 1.630755 144.870269 
L 31.395081 169.380697 
L 43.78125 180.116973 
L 64.364179 193.891126 
L 90.674109 218.401555 
L 93.07936 220.753934 
L 125.039035 242.911984 
L 142.37747 259.248966 
L 156.723596 267.422412 
L 184.870985 291.932841 
z
M 487.46424 316.44327 
L 536.76235 316.44327 
L 543.538202 316.44327 
L 536.76235 308.062089 
L 532.268614 291.932841 
L 517.37637 267.422412 
L 489.497474 242.911984 
L 487.46424 241.358371 
L 475.512289 218.401555 
L 458.381375 193.891126 
L 438.16613 172.396408 
L 436.815821 169.380697 
L 427.149705 144.870269 
L 416.116958 120.35984 
L 403.681345 95.849411 
L 389.641946 71.338982 
L 388.86802 69.904276 
L 382.776789 46.828554 
L 375.900513 22.318125 
L 339.56991 22.318125 
L 290.2718 22.318125 
L 240.97369 22.318125 
L 216.222029 22.318125 
L 234.631202 46.828554 
L 240.97369 55.642399 
L 257.64576 71.338982 
L 278.595981 95.849411 
L 290.2718 111.198456 
L 300.698043 120.35984 
L 324.181578 144.870269 
L 339.56991 164.029121 
L 345.978006 169.380697 
L 370.820789 193.891126 
L 388.86802 215.915286 
L 391.968023 218.401555 
L 416.585238 242.911984 
L 435.035988 267.422412 
L 438.16613 273.235471 
L 453.596488 291.932841 
L 461.205486 316.44327 
z
" clip-path="url(#p0497d74b55)" style="fill: #98d83e"/>
    <path d="M 240.97369 316.44327 
L 290.2718 316.44327 
L 291.780731 316.44327 
L 290.2718 315.645527 
L 280.667699 291.932841 
L 261.746646 267.422412 
L 240.97369 252.195855 
L 237.471226 242.911984 
L 228.404251 218.401555 
L 215.278746 193.891126 
L 191.67558 174.359974 
L 190.544335 169.380697 
L 191.67558 156.746163 
L 208.228783 169.380697 
L 240.97369 177.161462 
L 258.62008 193.891126 
L 290.2718 215.320475 
L 293.673116 218.401555 
L 316.702771 242.911984 
L 339.56991 262.42086 
L 344.204231 267.422412 
L 361.685426 291.932841 
L 374.71863 316.44327 
L 388.86802 316.44327 
L 438.16613 316.44327 
L 461.205486 316.44327 
L 453.596488 291.932841 
L 438.16613 273.235471 
L 435.035988 267.422412 
L 416.585238 242.911984 
L 391.968023 218.401555 
L 388.86802 215.915286 
L 370.820789 193.891126 
L 345.978006 169.380697 
L 339.56991 164.029121 
L 324.181578 144.870269 
L 300.698043 120.35984 
L 290.2718 111.198456 
L 278.595981 95.849411 
L 257.64576 71.338982 
L 240.97369 55.642399 
L 234.631202 46.828554 
L 216.222029 22.318125 
L 191.67558 22.318125 
L 142.37747 22.318125 
L 93.07936 22.318125 
L 43.78125 22.318125 
L -5.51686 22.318125 
L -54.81497 22.318125 
L -71.812058 22.318125 
L -55.174526 46.828554 
L -54.81497 47.25957 
L -18.091543 71.338982 
L -5.51686 90.112343 
L 4.627818 95.849411 
L 34.561061 120.35984 
L 43.78125 134.163818 
L 60.328797 144.870269 
L 87.099738 169.380698 
L 93.07936 178.722546 
L 112.704807 193.891126 
L 139.240129 218.401555 
L 142.37747 222.933867 
L 165.182329 242.911984 
L 190.281651 267.422412 
L 191.67558 269.251614 
L 219.257913 291.932841 
L 239.323942 316.44327 
z
" clip-path="url(#p0497d74b55)" style="fill: #c2df23"/>
    <path d="M 290.2718 315.645527 
L 291.780731 316.44327 
L 339.56991 316.44327 
L 374.71863 316.44327 
L 361.685426 291.932841 
L 344.204231 267.422412 
L 339.56991 262.42086 
L 316.702771 242.911984 
L 293.673116 218.401555 
L 290.2718 215.320475 
L 258.62008 193.891126 
L 240.97369 177.161462 
L 208.228783 169.380697 
L 191.67558 156.746163 
L 190.544335 169.380697 
L 191.67558 174.359974 
L 215.278746 193.891126 
L 228.404251 218.401555 
L 237.471226 242.911984 
L 240.97369 252.195855 
L 261.746646 267.422412 
L 280.667699 291.932841 
z
" clip-path="url(#p0497d74b55)" style="fill: #ece51b"/>
   </g>
   <g id="PathCollection_1">
    <defs>
     <path id="mdc0741d33a" d="M -3 3 
L 3 -3 
M -3 -3 
L 3 3 
" style="stroke: #ff0000; stroke-width: 1.5"/>
    </defs>
    <g clip-path="url(#p0497d74b55)">
     <use xlink:href="#mdc0741d33a" x="339.56991" y="316.44327" style="fill: #ff0000; stroke: #ff0000; stroke-width: 1.5"/>
     <use xlink:href="#mdc0741d33a" x="339.56991" y="291.932841" style="fill: #ff0000; stroke: #ff0000; stroke-width: 1.5"/>
     <use xlink:href="#mdc0741d33a" x="290.2718" y="267.422412" style="fill: #ff0000; stroke: #ff0000; stroke-width: 1.5"/>
     <use xlink:href="#mdc0741d33a" x="290.2718" y="242.911984" style="fill: #ff0000; stroke: #ff0000; stroke-width: 1.5"/>
     <use xlink:href="#mdc0741d33a" x="240.97369" y="218.401555" style="fill: #ff0000; stroke: #ff0000; stroke-width: 1.5"/>
     <use xlink:href="#mdc0741d33a" x="240.97369" y="193.891126" style="fill: #ff0000; stroke: #ff0000; stroke-width: 1.5"/>
     <use xlink:href="#mdc0741d33a" x="191.67558" y="169.380697" style="fill: #ff0000; stroke: #ff0000; stroke-width: 1.5"/>
     <use xlink:href="#mdc0741d33a" x="191.67558" y="144.870269" style="fill: #ff0000; stroke: #ff0000; stroke-width: 1.5"/>
     <use xlink:href="#mdc0741d33a" x="142.37747" y="120.35984" style="fill: #ff0000; stroke: #ff0000; stroke-width: 1.5"/>
     <use xlink:href="#mdc0741d33a" x="142.37747" y="95.849411" style="fill: #ff0000; stroke: #ff0000; stroke-width: 1.5"/>
     <use xlink:href="#mdc0741d33a" x="142.37747" y="71.338982" style="fill: #ff0000; stroke: #ff0000; stroke-width: 1.5"/>
     <use xlink:href="#mdc0741d33a" x="93.07936" y="46.828554" style="fill: #ff0000; stroke: #ff0000; stroke-width: 1.5"/>
     <use xlink:href="#mdc0741d33a" x="93.07936" y="22.318125" style="fill: #ff0000; stroke: #ff0000; stroke-width: 1.5"/>
    </g>
   </g>
   <g id="matplotlib.axis_1">
    <g id="xtick_1">
     <g id="line2d_1">
      <defs>
       <path id="m38f3b05bbe" d="M 0 0 
L 0 3.5 
" style="stroke: #000000; stroke-width: 0.8"/>
      </defs>
      <g>
       <use xlink:href="#m38f3b05bbe" x="93.07936" y="316.44327" style="stroke: #000000; stroke-width: 0.8"/>
      </g>
     </g>
     <g id="text_1">
      <!-- $\mathdefault{10^{-2}}$ -->
      <g transform="translate(81.32936 331.041707) scale(0.1 -0.1)">
       <defs>
        <path id="DejaVuSans-31" d="M 794 531 
L 1825 531 
L 1825 4091 
L 703 3866 
L 703 4441 
L 1819 4666 
L 2450 4666 
L 2450 531 
L 3481 531 
L 3481 0 
L 794 0 
L 794 531 
z
" transform="scale(0.015625)"/>
        <path id="DejaVuSans-30" d="M 2034 4250 
Q 1547 4250 1301 3770 
Q 1056 3291 1056 2328 
Q 1056 1369 1301 889 
Q 1547 409 2034 409 
Q 2525 409 2770 889 
Q 3016 1369 3016 2328 
Q 3016 3291 2770 3770 
Q 2525 4250 2034 4250 
z
M 2034 4750 
Q 2819 4750 3233 4129 
Q 3647 3509 3647 2328 
Q 3647 1150 3233 529 
Q 2819 -91 2034 -91 
Q 1250 -91 836 529 
Q 422 1150 422 2328 
Q 422 3509 836 4129 
Q 1250 4750 2034 4750 
z
" transform="scale(0.015625)"/>
        <path id="DejaVuSans-2212" d="M 678 2272 
L 4684 2272 
L 4684 1741 
L 678 1741 
L 678 2272 
z
" transform="scale(0.015625)"/>
        <path id="DejaVuSans-32" d="M 1228 531 
L 3431 531 
L 3431 0 
L 469 0 
L 469 531 
Q 828 903 1448 1529 
Q 2069 2156 2228 2338 
Q 2531 2678 2651 2914 
Q 2772 3150 2772 3378 
Q 2772 3750 2511 3984 
Q 2250 4219 1831 4219 
Q 1534 4219 1204 4116 
Q 875 4013 500 3803 
L 500 4441 
Q 881 4594 1212 4672 
Q 1544 4750 1819 4750 
Q 2544 4750 2975 4387 
Q 3406 4025 3406 3419 
Q 3406 3131 3298 2873 
Q 3191 2616 2906 2266 
Q 2828 2175 2409 1742 
Q 1991 1309 1228 531 
z
" transform="scale(0.015625)"/>
       </defs>
       <use xlink:href="#DejaVuSans-31" transform="translate(0 0.765625)"/>
       <use xlink:href="#DejaVuSans-30" transform="translate(63.623047 0.765625)"/>
       <use xlink:href="#DejaVuSans-2212" transform="translate(128.203125 39.046875) scale(0.7)"/>
       <use xlink:href="#DejaVuSans-32" transform="translate(186.855469 39.046875) scale(0.7)"/>
      </g>
     </g>
    </g>
    <g id="xtick_2">
     <g id="line2d_2">
      <g>
       <use xlink:href="#m38f3b05bbe" x="290.2718" y="316.44327" style="stroke: #000000; stroke-width: 0.8"/>
      </g>
     </g>
     <g id="text_2">
      <!-- $\mathdefault{10^{-1}}$ -->
      <g transform="translate(278.5218 331.041707) scale(0.1 -0.1)">
       <use xlink:href="#DejaVuSans-31" transform="translate(0 0.684375)"/>
       <use xlink:href="#DejaVuSans-30" transform="translate(63.623047 0.684375)"/>
       <use xlink:href="#DejaVuSans-2212" transform="translate(128.203125 38.965625) scale(0.7)"/>
       <use xlink:href="#DejaVuSans-31" transform="translate(186.855469 38.965625) scale(0.7)"/>
      </g>
     </g>
    </g>
    <g id="xtick_3">
     <g id="line2d_3">
      <defs>
       <path id="m360e1f0208" d="M 0 0 
L 0 2 
" style="stroke: #000000; stroke-width: 0.6"/>
      </defs>
      <g>
       <use xlink:href="#m360e1f0208" x="49.332464" y="316.44327" style="stroke: #000000; stroke-width: 0.6"/>
      </g>
     </g>
    </g>
    <g id="xtick_4">
     <g id="line2d_4">
      <g>
       <use xlink:href="#m360e1f0208" x="62.533865" y="316.44327" style="stroke: #000000; stroke-width: 0.6"/>
      </g>
     </g>
    </g>
    <g id="xtick_5">
     <g id="line2d_5">
      <g>
       <use xlink:href="#m360e1f0208" x="73.969438" y="316.44327" style="stroke: #000000; stroke-width: 0.6"/>
      </g>
     </g>
    </g>
    <g id="xtick_6">
     <g id="line2d_6">
      <g>
       <use xlink:href="#m360e1f0208" x="84.056329" y="316.44327" style="stroke: #000000; stroke-width: 0.6"/>
      </g>
     </g>
    </g>
    <g id="xtick_7">
     <g id="line2d_7">
      <g>
       <use xlink:href="#m360e1f0208" x="152.440199" y="316.44327" style="stroke: #000000; stroke-width: 0.6"/>
      </g>
     </g>
    </g>
    <g id="xtick_8">
     <g id="line2d_8">
      <g>
       <use xlink:href="#m360e1f0208" x="187.164064" y="316.44327" style="stroke: #000000; stroke-width: 0.6"/>
      </g>
     </g>
    </g>
    <g id="xtick_9">
     <g id="line2d_9">
      <g>
       <use xlink:href="#m360e1f0208" x="211.801039" y="316.44327" style="stroke: #000000; stroke-width: 0.6"/>
      </g>
     </g>
    </g>
    <g id="xtick_10">
     <g id="line2d_10">
      <g>
       <use xlink:href="#m360e1f0208" x="230.910961" y="316.44327" style="stroke: #000000; stroke-width: 0.6"/>
      </g>
     </g>
    </g>
    <g id="xtick_11">
     <g id="line2d_11">
      <g>
       <use xlink:href="#m360e1f0208" x="246.524904" y="316.44327" style="stroke: #000000; stroke-width: 0.6"/>
      </g>
     </g>
    </g>
    <g id="xtick_12">
     <g id="line2d_12">
      <g>
       <use xlink:href="#m360e1f0208" x="259.726304" y="316.44327" style="stroke: #000000; stroke-width: 0.6"/>
      </g>
     </g>
    </g>
    <g id="xtick_13">
     <g id="line2d_13">
      <g>
       <use xlink:href="#m360e1f0208" x="271.161878" y="316.44327" style="stroke: #000000; stroke-width: 0.6"/>
      </g>
     </g>
    </g>
    <g id="xtick_14">
     <g id="line2d_14">
      <g>
       <use xlink:href="#m360e1f0208" x="281.248769" y="316.44327" style="stroke: #000000; stroke-width: 0.6"/>
      </g>
     </g>
    </g>
    <g id="xtick_15">
     <g id="line2d_15">
      <g>
       <use xlink:href="#m360e1f0208" x="349.632639" y="316.44327" style="stroke: #000000; stroke-width: 0.6"/>
      </g>
     </g>
    </g>
    <g id="xtick_16">
     <g id="line2d_16">
      <g>
       <use xlink:href="#m360e1f0208" x="384.356504" y="316.44327" style="stroke: #000000; stroke-width: 0.6"/>
      </g>
     </g>
    </g>
    <g id="text_3">
     <!-- bandwidth -->
     <g transform="translate(189.962135 344.719832) scale(0.1 -0.1)">
      <defs>
       <path id="DejaVuSans-62" d="M 3116 1747 
Q 3116 2381 2855 2742 
Q 2594 3103 2138 3103 
Q 1681 3103 1420 2742 
Q 1159 2381 1159 1747 
Q 1159 1113 1420 752 
Q 1681 391 2138 391 
Q 2594 391 2855 752 
Q 3116 1113 3116 1747 
z
M 1159 2969 
Q 1341 3281 1617 3432 
Q 1894 3584 2278 3584 
Q 2916 3584 3314 3078 
Q 3713 2572 3713 1747 
Q 3713 922 3314 415 
Q 2916 -91 2278 -91 
Q 1894 -91 1617 61 
Q 1341 213 1159 525 
L 1159 0 
L 581 0 
L 581 4863 
L 1159 4863 
L 1159 2969 
z
" transform="scale(0.015625)"/>
       <path id="DejaVuSans-61" d="M 2194 1759 
Q 1497 1759 1228 1600 
Q 959 1441 959 1056 
Q 959 750 1161 570 
Q 1363 391 1709 391 
Q 2188 391 2477 730 
Q 2766 1069 2766 1631 
L 2766 1759 
L 2194 1759 
z
M 3341 1997 
L 3341 0 
L 2766 0 
L 2766 531 
Q 2569 213 2275 61 
Q 1981 -91 1556 -91 
Q 1019 -91 701 211 
Q 384 513 384 1019 
Q 384 1609 779 1909 
Q 1175 2209 1959 2209 
L 2766 2209 
L 2766 2266 
Q 2766 2663 2505 2880 
Q 2244 3097 1772 3097 
Q 1472 3097 1187 3025 
Q 903 2953 641 2809 
L 641 3341 
Q 956 3463 1253 3523 
Q 1550 3584 1831 3584 
Q 2591 3584 2966 3190 
Q 3341 2797 3341 1997 
z
" transform="scale(0.015625)"/>
       <path id="DejaVuSans-6e" d="M 3513 2113 
L 3513 0 
L 2938 0 
L 2938 2094 
Q 2938 2591 2744 2837 
Q 2550 3084 2163 3084 
Q 1697 3084 1428 2787 
Q 1159 2491 1159 1978 
L 1159 0 
L 581 0 
L 581 3500 
L 1159 3500 
L 1159 2956 
Q 1366 3272 1645 3428 
Q 1925 3584 2291 3584 
Q 2894 3584 3203 3211 
Q 3513 2838 3513 2113 
z
" transform="scale(0.015625)"/>
       <path id="DejaVuSans-64" d="M 2906 2969 
L 2906 4863 
L 3481 4863 
L 3481 0 
L 2906 0 
L 2906 525 
Q 2725 213 2448 61 
Q 2172 -91 1784 -91 
Q 1150 -91 751 415 
Q 353 922 353 1747 
Q 353 2572 751 3078 
Q 1150 3584 1784 3584 
Q 2172 3584 2448 3432 
Q 2725 3281 2906 2969 
z
M 947 1747 
Q 947 1113 1208 752 
Q 1469 391 1925 391 
Q 2381 391 2643 752 
Q 2906 1113 2906 1747 
Q 2906 2381 2643 2742 
Q 2381 3103 1925 3103 
Q 1469 3103 1208 2742 
Q 947 2381 947 1747 
z
" transform="scale(0.015625)"/>
       <path id="DejaVuSans-77" d="M 269 3500 
L 844 3500 
L 1563 769 
L 2278 3500 
L 2956 3500 
L 3675 769 
L 4391 3500 
L 4966 3500 
L 4050 0 
L 3372 0 
L 2619 2869 
L 1863 0 
L 1184 0 
L 269 3500 
z
" transform="scale(0.015625)"/>
       <path id="DejaVuSans-69" d="M 603 3500 
L 1178 3500 
L 1178 0 
L 603 0 
L 603 3500 
z
M 603 4863 
L 1178 4863 
L 1178 4134 
L 603 4134 
L 603 4863 
z
" transform="scale(0.015625)"/>
       <path id="DejaVuSans-74" d="M 1172 4494 
L 1172 3500 
L 2356 3500 
L 2356 3053 
L 1172 3053 
L 1172 1153 
Q 1172 725 1289 603 
Q 1406 481 1766 481 
L 2356 481 
L 2356 0 
L 1766 0 
Q 1100 0 847 248 
Q 594 497 594 1153 
L 594 3053 
L 172 3053 
L 172 3500 
L 594 3500 
L 594 4494 
L 1172 4494 
z
" transform="scale(0.015625)"/>
       <path id="DejaVuSans-68" d="M 3513 2113 
L 3513 0 
L 2938 0 
L 2938 2094 
Q 2938 2591 2744 2837 
Q 2550 3084 2163 3084 
Q 1697 3084 1428 2787 
Q 1159 2491 1159 1978 
L 1159 0 
L 581 0 
L 581 4863 
L 1159 4863 
L 1159 2956 
Q 1366 3272 1645 3428 
Q 1925 3584 2291 3584 
Q 2894 3584 3203 3211 
Q 3513 2838 3513 2113 
z
" transform="scale(0.015625)"/>
      </defs>
      <use xlink:href="#DejaVuSans-62"/>
      <use xlink:href="#DejaVuSans-61" transform="translate(63.476562 0)"/>
      <use xlink:href="#DejaVuSans-6e" transform="translate(124.755859 0)"/>
      <use xlink:href="#DejaVuSans-64" transform="translate(188.134766 0)"/>
      <use xlink:href="#DejaVuSans-77" transform="translate(251.611328 0)"/>
      <use xlink:href="#DejaVuSans-69" transform="translate(333.398438 0)"/>
      <use xlink:href="#DejaVuSans-64" transform="translate(361.181641 0)"/>
      <use xlink:href="#DejaVuSans-74" transform="translate(424.658203 0)"/>
      <use xlink:href="#DejaVuSans-68" transform="translate(463.867188 0)"/>
     </g>
    </g>
   </g>
   <g id="matplotlib.axis_2">
    <g id="ytick_1">
     <g id="line2d_17">
      <defs>
       <path id="mbd2f377c6c" d="M 0 0 
L -3.5 0 
" style="stroke: #000000; stroke-width: 0.8"/>
      </defs>
      <g>
       <use xlink:href="#mbd2f377c6c" x="43.78125" y="316.44327" style="stroke: #000000; stroke-width: 0.8"/>
      </g>
     </g>
     <g id="text_4">
      <!-- 1.0 -->
      <g transform="translate(20.878125 320.242489) scale(0.1 -0.1)">
       <defs>
        <path id="DejaVuSans-2e" d="M 684 794 
L 1344 794 
L 1344 0 
L 684 0 
L 684 794 
z
" transform="scale(0.015625)"/>
       </defs>
       <use xlink:href="#DejaVuSans-31"/>
       <use xlink:href="#DejaVuSans-2e" transform="translate(63.623047 0)"/>
       <use xlink:href="#DejaVuSans-30" transform="translate(95.410156 0)"/>
      </g>
     </g>
    </g>
    <g id="ytick_2">
     <g id="line2d_18">
      <g>
       <use xlink:href="#mbd2f377c6c" x="43.78125" y="267.422412" style="stroke: #000000; stroke-width: 0.8"/>
      </g>
     </g>
     <g id="text_5">
      <!-- 1.5 -->
      <g transform="translate(20.878125 271.221631) scale(0.1 -0.1)">
       <defs>
        <path id="DejaVuSans-35" d="M 691 4666 
L 3169 4666 
L 3169 4134 
L 1269 4134 
L 1269 2991 
Q 1406 3038 1543 3061 
Q 1681 3084 1819 3084 
Q 2600 3084 3056 2656 
Q 3513 2228 3513 1497 
Q 3513 744 3044 326 
Q 2575 -91 1722 -91 
Q 1428 -91 1123 -41 
Q 819 9 494 109 
L 494 744 
Q 775 591 1075 516 
Q 1375 441 1709 441 
Q 2250 441 2565 725 
Q 2881 1009 2881 1497 
Q 2881 1984 2565 2268 
Q 2250 2553 1709 2553 
Q 1456 2553 1204 2497 
Q 953 2441 691 2322 
L 691 4666 
z
" transform="scale(0.015625)"/>
       </defs>
       <use xlink:href="#DejaVuSans-31"/>
       <use xlink:href="#DejaVuSans-2e" transform="translate(63.623047 0)"/>
       <use xlink:href="#DejaVuSans-35" transform="translate(95.410156 0)"/>
      </g>
     </g>
    </g>
    <g id="ytick_3">
     <g id="line2d_19">
      <g>
       <use xlink:href="#mbd2f377c6c" x="43.78125" y="218.401555" style="stroke: #000000; stroke-width: 0.8"/>
      </g>
     </g>
     <g id="text_6">
      <!-- 2.0 -->
      <g transform="translate(20.878125 222.200774) scale(0.1 -0.1)">
       <use xlink:href="#DejaVuSans-32"/>
       <use xlink:href="#DejaVuSans-2e" transform="translate(63.623047 0)"/>
       <use xlink:href="#DejaVuSans-30" transform="translate(95.410156 0)"/>
      </g>
     </g>
    </g>
    <g id="ytick_4">
     <g id="line2d_20">
      <g>
       <use xlink:href="#mbd2f377c6c" x="43.78125" y="169.380697" style="stroke: #000000; stroke-width: 0.8"/>
      </g>
     </g>
     <g id="text_7">
      <!-- 2.5 -->
      <g transform="translate(20.878125 173.179916) scale(0.1 -0.1)">
       <use xlink:href="#DejaVuSans-32"/>
       <use xlink:href="#DejaVuSans-2e" transform="translate(63.623047 0)"/>
       <use xlink:href="#DejaVuSans-35" transform="translate(95.410156 0)"/>
      </g>
     </g>
    </g>
    <g id="ytick_5">
     <g id="line2d_21">
      <g>
       <use xlink:href="#mbd2f377c6c" x="43.78125" y="120.35984" style="stroke: #000000; stroke-width: 0.8"/>
      </g>
     </g>
     <g id="text_8">
      <!-- 3.0 -->
      <g transform="translate(20.878125 124.159059) scale(0.1 -0.1)">
       <defs>
        <path id="DejaVuSans-33" d="M 2597 2516 
Q 3050 2419 3304 2112 
Q 3559 1806 3559 1356 
Q 3559 666 3084 287 
Q 2609 -91 1734 -91 
Q 1441 -91 1130 -33 
Q 819 25 488 141 
L 488 750 
Q 750 597 1062 519 
Q 1375 441 1716 441 
Q 2309 441 2620 675 
Q 2931 909 2931 1356 
Q 2931 1769 2642 2001 
Q 2353 2234 1838 2234 
L 1294 2234 
L 1294 2753 
L 1863 2753 
Q 2328 2753 2575 2939 
Q 2822 3125 2822 3475 
Q 2822 3834 2567 4026 
Q 2313 4219 1838 4219 
Q 1578 4219 1281 4162 
Q 984 4106 628 3988 
L 628 4550 
Q 988 4650 1302 4700 
Q 1616 4750 1894 4750 
Q 2613 4750 3031 4423 
Q 3450 4097 3450 3541 
Q 3450 3153 3228 2886 
Q 3006 2619 2597 2516 
z
" transform="scale(0.015625)"/>
       </defs>
       <use xlink:href="#DejaVuSans-33"/>
       <use xlink:href="#DejaVuSans-2e" transform="translate(63.623047 0)"/>
       <use xlink:href="#DejaVuSans-30" transform="translate(95.410156 0)"/>
      </g>
     </g>
    </g>
    <g id="ytick_6">
     <g id="line2d_22">
      <g>
       <use xlink:href="#mbd2f377c6c" x="43.78125" y="71.338982" style="stroke: #000000; stroke-width: 0.8"/>
      </g>
     </g>
     <g id="text_9">
      <!-- 3.5 -->
      <g transform="translate(20.878125 75.138201) scale(0.1 -0.1)">
       <use xlink:href="#DejaVuSans-33"/>
       <use xlink:href="#DejaVuSans-2e" transform="translate(63.623047 0)"/>
       <use xlink:href="#DejaVuSans-35" transform="translate(95.410156 0)"/>
      </g>
     </g>
    </g>
    <g id="ytick_7">
     <g id="line2d_23">
      <g>
       <use xlink:href="#mbd2f377c6c" x="43.78125" y="22.318125" style="stroke: #000000; stroke-width: 0.8"/>
      </g>
     </g>
     <g id="text_10">
      <!-- 4.0 -->
      <g transform="translate(20.878125 26.117344) scale(0.1 -0.1)">
       <defs>
        <path id="DejaVuSans-34" d="M 2419 4116 
L 825 1625 
L 2419 1625 
L 2419 4116 
z
M 2253 4666 
L 3047 4666 
L 3047 1625 
L 3713 1625 
L 3713 1100 
L 3047 1100 
L 3047 0 
L 2419 0 
L 2419 1100 
L 313 1100 
L 313 1709 
L 2253 4666 
z
" transform="scale(0.015625)"/>
       </defs>
       <use xlink:href="#DejaVuSans-34"/>
       <use xlink:href="#DejaVuSans-2e" transform="translate(63.623047 0)"/>
       <use xlink:href="#DejaVuSans-30" transform="translate(95.410156 0)"/>
      </g>
     </g>
    </g>
    <g id="text_11">
     <!-- alpha -->
     <g transform="translate(14.798438 183.240854) rotate(-90) scale(0.1 -0.1)">
      <defs>
       <path id="DejaVuSans-6c" d="M 603 4863 
L 1178 4863 
L 1178 0 
L 603 0 
L 603 4863 
z
" transform="scale(0.015625)"/>
       <path id="DejaVuSans-70" d="M 1159 525 
L 1159 -1331 
L 581 -1331 
L 581 3500 
L 1159 3500 
L 1159 2969 
Q 1341 3281 1617 3432 
Q 1894 3584 2278 3584 
Q 2916 3584 3314 3078 
Q 3713 2572 3713 1747 
Q 3713 922 3314 415 
Q 2916 -91 2278 -91 
Q 1894 -91 1617 61 
Q 1341 213 1159 525 
z
M 3116 1747 
Q 3116 2381 2855 2742 
Q 2594 3103 2138 3103 
Q 1681 3103 1420 2742 
Q 1159 2381 1159 1747 
Q 1159 1113 1420 752 
Q 1681 391 2138 391 
Q 2594 391 2855 752 
Q 3116 1113 3116 1747 
z
" transform="scale(0.015625)"/>
      </defs>
      <use xlink:href="#DejaVuSans-61"/>
      <use xlink:href="#DejaVuSans-6c" transform="translate(61.279297 0)"/>
      <use xlink:href="#DejaVuSans-70" transform="translate(89.0625 0)"/>
      <use xlink:href="#DejaVuSans-68" transform="translate(152.539062 0)"/>
      <use xlink:href="#DejaVuSans-61" transform="translate(215.917969 0)"/>
     </g>
    </g>
   </g>
   <g id="patch_3">
    <path d="M 43.78125 316.44327 
L 43.78125 22.318125 
" style="fill: none; stroke: #000000; stroke-width: 0.8; stroke-linejoin: miter; stroke-linecap: square"/>
   </g>
   <g id="patch_4">
    <path d="M 388.86802 316.44327 
L 388.86802 22.318125 
" style="fill: none; stroke: #000000; stroke-width: 0.8; stroke-linejoin: miter; stroke-linecap: square"/>
   </g>
   <g id="patch_5">
    <path d="M 43.78125 316.44327 
L 388.86802 316.44327 
" style="fill: none; stroke: #000000; stroke-width: 0.8; stroke-linejoin: miter; stroke-linecap: square"/>
   </g>
   <g id="patch_6">
    <path d="M 43.78125 22.318125 
L 388.86802 22.318125 
" style="fill: none; stroke: #000000; stroke-width: 0.8; stroke-linejoin: miter; stroke-linecap: square"/>
   </g>
   <g id="text_12">
    <!-- lunas_lo 1188 fkdc -->
    <g transform="translate(160.133697 16.318125) scale(0.12 -0.12)">
     <defs>
      <path id="DejaVuSans-75" d="M 544 1381 
L 544 3500 
L 1119 3500 
L 1119 1403 
Q 1119 906 1312 657 
Q 1506 409 1894 409 
Q 2359 409 2629 706 
Q 2900 1003 2900 1516 
L 2900 3500 
L 3475 3500 
L 3475 0 
L 2900 0 
L 2900 538 
Q 2691 219 2414 64 
Q 2138 -91 1772 -91 
Q 1169 -91 856 284 
Q 544 659 544 1381 
z
M 1991 3584 
L 1991 3584 
z
" transform="scale(0.015625)"/>
      <path id="DejaVuSans-73" d="M 2834 3397 
L 2834 2853 
Q 2591 2978 2328 3040 
Q 2066 3103 1784 3103 
Q 1356 3103 1142 2972 
Q 928 2841 928 2578 
Q 928 2378 1081 2264 
Q 1234 2150 1697 2047 
L 1894 2003 
Q 2506 1872 2764 1633 
Q 3022 1394 3022 966 
Q 3022 478 2636 193 
Q 2250 -91 1575 -91 
Q 1294 -91 989 -36 
Q 684 19 347 128 
L 347 722 
Q 666 556 975 473 
Q 1284 391 1588 391 
Q 1994 391 2212 530 
Q 2431 669 2431 922 
Q 2431 1156 2273 1281 
Q 2116 1406 1581 1522 
L 1381 1569 
Q 847 1681 609 1914 
Q 372 2147 372 2553 
Q 372 3047 722 3315 
Q 1072 3584 1716 3584 
Q 2034 3584 2315 3537 
Q 2597 3491 2834 3397 
z
" transform="scale(0.015625)"/>
      <path id="DejaVuSans-5f" d="M 3263 -1063 
L 3263 -1509 
L -63 -1509 
L -63 -1063 
L 3263 -1063 
z
" transform="scale(0.015625)"/>
      <path id="DejaVuSans-6f" d="M 1959 3097 
Q 1497 3097 1228 2736 
Q 959 2375 959 1747 
Q 959 1119 1226 758 
Q 1494 397 1959 397 
Q 2419 397 2687 759 
Q 2956 1122 2956 1747 
Q 2956 2369 2687 2733 
Q 2419 3097 1959 3097 
z
M 1959 3584 
Q 2709 3584 3137 3096 
Q 3566 2609 3566 1747 
Q 3566 888 3137 398 
Q 2709 -91 1959 -91 
Q 1206 -91 779 398 
Q 353 888 353 1747 
Q 353 2609 779 3096 
Q 1206 3584 1959 3584 
z
" transform="scale(0.015625)"/>
      <path id="DejaVuSans-20" transform="scale(0.015625)"/>
      <path id="DejaVuSans-38" d="M 2034 2216 
Q 1584 2216 1326 1975 
Q 1069 1734 1069 1313 
Q 1069 891 1326 650 
Q 1584 409 2034 409 
Q 2484 409 2743 651 
Q 3003 894 3003 1313 
Q 3003 1734 2745 1975 
Q 2488 2216 2034 2216 
z
M 1403 2484 
Q 997 2584 770 2862 
Q 544 3141 544 3541 
Q 544 4100 942 4425 
Q 1341 4750 2034 4750 
Q 2731 4750 3128 4425 
Q 3525 4100 3525 3541 
Q 3525 3141 3298 2862 
Q 3072 2584 2669 2484 
Q 3125 2378 3379 2068 
Q 3634 1759 3634 1313 
Q 3634 634 3220 271 
Q 2806 -91 2034 -91 
Q 1263 -91 848 271 
Q 434 634 434 1313 
Q 434 1759 690 2068 
Q 947 2378 1403 2484 
z
M 1172 3481 
Q 1172 3119 1398 2916 
Q 1625 2713 2034 2713 
Q 2441 2713 2670 2916 
Q 2900 3119 2900 3481 
Q 2900 3844 2670 4047 
Q 2441 4250 2034 4250 
Q 1625 4250 1398 4047 
Q 1172 3844 1172 3481 
z
" transform="scale(0.015625)"/>
      <path id="DejaVuSans-66" d="M 2375 4863 
L 2375 4384 
L 1825 4384 
Q 1516 4384 1395 4259 
Q 1275 4134 1275 3809 
L 1275 3500 
L 2222 3500 
L 2222 3053 
L 1275 3053 
L 1275 0 
L 697 0 
L 697 3053 
L 147 3053 
L 147 3500 
L 697 3500 
L 697 3744 
Q 697 4328 969 4595 
Q 1241 4863 1831 4863 
L 2375 4863 
z
" transform="scale(0.015625)"/>
      <path id="DejaVuSans-6b" d="M 581 4863 
L 1159 4863 
L 1159 1991 
L 2875 3500 
L 3609 3500 
L 1753 1863 
L 3688 0 
L 2938 0 
L 1159 1709 
L 1159 0 
L 581 0 
L 581 4863 
z
" transform="scale(0.015625)"/>
      <path id="DejaVuSans-63" d="M 3122 3366 
L 3122 2828 
Q 2878 2963 2633 3030 
Q 2388 3097 2138 3097 
Q 1578 3097 1268 2742 
Q 959 2388 959 1747 
Q 959 1106 1268 751 
Q 1578 397 2138 397 
Q 2388 397 2633 464 
Q 2878 531 3122 666 
L 3122 134 
Q 2881 22 2623 -34 
Q 2366 -91 2075 -91 
Q 1284 -91 818 406 
Q 353 903 353 1747 
Q 353 2603 823 3093 
Q 1294 3584 2113 3584 
Q 2378 3584 2631 3529 
Q 2884 3475 3122 3366 
z
" transform="scale(0.015625)"/>
     </defs>
     <use xlink:href="#DejaVuSans-6c"/>
     <use xlink:href="#DejaVuSans-75" transform="translate(27.783203 0)"/>
     <use xlink:href="#DejaVuSans-6e" transform="translate(91.162109 0)"/>
     <use xlink:href="#DejaVuSans-61" transform="translate(154.541016 0)"/>
     <use xlink:href="#DejaVuSans-73" transform="translate(215.820312 0)"/>
     <use xlink:href="#DejaVuSans-5f" transform="translate(267.919922 0)"/>
     <use xlink:href="#DejaVuSans-6c" transform="translate(317.919922 0)"/>
     <use xlink:href="#DejaVuSans-6f" transform="translate(345.703125 0)"/>
     <use xlink:href="#DejaVuSans-20" transform="translate(406.884766 0)"/>
     <use xlink:href="#DejaVuSans-31" transform="translate(438.671875 0)"/>
     <use xlink:href="#DejaVuSans-31" transform="translate(502.294922 0)"/>
     <use xlink:href="#DejaVuSans-38" transform="translate(565.917969 0)"/>
     <use xlink:href="#DejaVuSans-38" transform="translate(629.541016 0)"/>
     <use xlink:href="#DejaVuSans-20" transform="translate(693.164062 0)"/>
     <use xlink:href="#DejaVuSans-66" transform="translate(724.951172 0)"/>
     <use xlink:href="#DejaVuSans-6b" transform="translate(760.15625 0)"/>
     <use xlink:href="#DejaVuSans-64" transform="translate(818.066406 0)"/>
     <use xlink:href="#DejaVuSans-63" transform="translate(881.542969 0)"/>
    </g>
   </g>
  </g>
  <g id="axes_2">
   <g id="patch_7">
    <path d="M 406.122358 316.44327 
L 420.828616 316.44327 
L 420.828616 22.318125 
L 406.122358 22.318125 
z
" style="fill: #ffffff"/>
   </g>
   <g id="QuadMesh_1">
    <path d="M 406.122358 316.44327 
L 420.828616 316.44327 
L 420.828616 298.060448 
L 406.122358 298.060448 
L 406.122358 316.44327 
" clip-path="url(#p5097c4bec0)" style="fill: #470d60"/>
    <path d="M 406.122358 298.060448 
L 420.828616 298.060448 
L 420.828616 279.677627 
L 406.122358 279.677627 
L 406.122358 298.060448 
" clip-path="url(#p5097c4bec0)" style="fill: #482173"/>
    <path d="M 406.122358 279.677627 
L 420.828616 279.677627 
L 420.828616 261.294805 
L 406.122358 261.294805 
L 406.122358 279.677627 
" clip-path="url(#p5097c4bec0)" style="fill: #453781"/>
    <path d="M 406.122358 261.294805 
L 420.828616 261.294805 
L 420.828616 242.911984 
L 406.122358 242.911984 
L 406.122358 261.294805 
" clip-path="url(#p5097c4bec0)" style="fill: #3e4989"/>
    <path d="M 406.122358 242.911984 
L 420.828616 242.911984 
L 420.828616 224.529162 
L 406.122358 224.529162 
L 406.122358 242.911984 
" clip-path="url(#p5097c4bec0)" style="fill: #375a8c"/>
    <path d="M 406.122358 224.529162 
L 420.828616 224.529162 
L 420.828616 206.146341 
L 406.122358 206.146341 
L 406.122358 224.529162 
" clip-path="url(#p5097c4bec0)" style="fill: #2f6b8e"/>
    <path d="M 406.122358 206.146341 
L 420.828616 206.146341 
L 420.828616 187.763519 
L 406.122358 187.763519 
L 406.122358 206.146341 
" clip-path="url(#p5097c4bec0)" style="fill: #297a8e"/>
    <path d="M 406.122358 187.763519 
L 420.828616 187.763519 
L 420.828616 169.380697 
L 406.122358 169.380697 
L 406.122358 187.763519 
" clip-path="url(#p5097c4bec0)" style="fill: #23898e"/>
    <path d="M 406.122358 169.380697 
L 420.828616 169.380697 
L 420.828616 150.997876 
L 406.122358 150.997876 
L 406.122358 169.380697 
" clip-path="url(#p5097c4bec0)" style="fill: #1f988b"/>
    <path d="M 406.122358 150.997876 
L 420.828616 150.997876 
L 420.828616 132.615054 
L 406.122358 132.615054 
L 406.122358 150.997876 
" clip-path="url(#p5097c4bec0)" style="fill: #21a685"/>
    <path d="M 406.122358 132.615054 
L 420.828616 132.615054 
L 420.828616 114.232233 
L 406.122358 114.232233 
L 406.122358 132.615054 
" clip-path="url(#p5097c4bec0)" style="fill: #32b67a"/>
    <path d="M 406.122358 114.232233 
L 420.828616 114.232233 
L 420.828616 95.849411 
L 406.122358 95.849411 
L 406.122358 114.232233 
" clip-path="url(#p5097c4bec0)" style="fill: #4ec36b"/>
    <path d="M 406.122358 95.849411 
L 420.828616 95.849411 
L 420.828616 77.46659 
L 406.122358 77.46659 
L 406.122358 95.849411 
" clip-path="url(#p5097c4bec0)" style="fill: #70cf57"/>
    <path d="M 406.122358 77.46659 
L 420.828616 77.46659 
L 420.828616 59.083768 
L 406.122358 59.083768 
L 406.122358 77.46659 
" clip-path="url(#p5097c4bec0)" style="fill: #98d83e"/>
    <path d="M 406.122358 59.083768 
L 420.828616 59.083768 
L 420.828616 40.700947 
L 406.122358 40.700947 
L 406.122358 59.083768 
" clip-path="url(#p5097c4bec0)" style="fill: #c2df23"/>
    <path d="M 406.122358 40.700947 
L 420.828616 40.700947 
L 420.828616 22.318125 
L 406.122358 22.318125 
L 406.122358 40.700947 
" clip-path="url(#p5097c4bec0)" style="fill: #ece51b"/>
   </g>
   <g id="matplotlib.axis_3"/>
   <g id="matplotlib.axis_4">
    <g id="ytick_8">
     <g id="line2d_24">
      <defs>
       <path id="m0a27ea52cb" d="M 0 0 
L 3.5 0 
" style="stroke: #000000; stroke-width: 0.8"/>
      </defs>
      <g>
       <use xlink:href="#m0a27ea52cb" x="420.828616" y="316.44327" style="stroke: #000000; stroke-width: 0.8"/>
      </g>
     </g>
     <g id="text_13">
      <!-- -3.2 -->
      <g transform="translate(427.828616 320.242489) scale(0.1 -0.1)">
       <defs>
        <path id="DejaVuSans-2d" d="M 313 2009 
L 1997 2009 
L 1997 1497 
L 313 1497 
L 313 2009 
z
" transform="scale(0.015625)"/>
       </defs>
       <use xlink:href="#DejaVuSans-2d"/>
       <use xlink:href="#DejaVuSans-33" transform="translate(36.083984 0)"/>
       <use xlink:href="#DejaVuSans-2e" transform="translate(99.707031 0)"/>
       <use xlink:href="#DejaVuSans-32" transform="translate(131.494141 0)"/>
      </g>
     </g>
    </g>
    <g id="ytick_9">
     <g id="line2d_25">
      <g>
       <use xlink:href="#m0a27ea52cb" x="420.828616" y="279.677627" style="stroke: #000000; stroke-width: 0.8"/>
      </g>
     </g>
     <g id="text_14">
      <!-- -2.8 -->
      <g transform="translate(427.828616 283.476846) scale(0.1 -0.1)">
       <use xlink:href="#DejaVuSans-2d"/>
       <use xlink:href="#DejaVuSans-32" transform="translate(36.083984 0)"/>
       <use xlink:href="#DejaVuSans-2e" transform="translate(99.707031 0)"/>
       <use xlink:href="#DejaVuSans-38" transform="translate(131.494141 0)"/>
      </g>
     </g>
    </g>
    <g id="ytick_10">
     <g id="line2d_26">
      <g>
       <use xlink:href="#m0a27ea52cb" x="420.828616" y="242.911984" style="stroke: #000000; stroke-width: 0.8"/>
      </g>
     </g>
     <g id="text_15">
      <!-- -2.4 -->
      <g transform="translate(427.828616 246.711202) scale(0.1 -0.1)">
       <use xlink:href="#DejaVuSans-2d"/>
       <use xlink:href="#DejaVuSans-32" transform="translate(36.083984 0)"/>
       <use xlink:href="#DejaVuSans-2e" transform="translate(99.707031 0)"/>
       <use xlink:href="#DejaVuSans-34" transform="translate(131.494141 0)"/>
      </g>
     </g>
    </g>
    <g id="ytick_11">
     <g id="line2d_27">
      <g>
       <use xlink:href="#m0a27ea52cb" x="420.828616" y="206.146341" style="stroke: #000000; stroke-width: 0.8"/>
      </g>
     </g>
     <g id="text_16">
      <!-- -2.0 -->
      <g transform="translate(427.828616 209.945559) scale(0.1 -0.1)">
       <use xlink:href="#DejaVuSans-2d"/>
       <use xlink:href="#DejaVuSans-32" transform="translate(36.083984 0)"/>
       <use xlink:href="#DejaVuSans-2e" transform="translate(99.707031 0)"/>
       <use xlink:href="#DejaVuSans-30" transform="translate(131.494141 0)"/>
      </g>
     </g>
    </g>
    <g id="ytick_12">
     <g id="line2d_28">
      <g>
       <use xlink:href="#m0a27ea52cb" x="420.828616" y="169.380697" style="stroke: #000000; stroke-width: 0.8"/>
      </g>
     </g>
     <g id="text_17">
      <!-- -1.6 -->
      <g transform="translate(427.828616 173.179916) scale(0.1 -0.1)">
       <defs>
        <path id="DejaVuSans-36" d="M 2113 2584 
Q 1688 2584 1439 2293 
Q 1191 2003 1191 1497 
Q 1191 994 1439 701 
Q 1688 409 2113 409 
Q 2538 409 2786 701 
Q 3034 994 3034 1497 
Q 3034 2003 2786 2293 
Q 2538 2584 2113 2584 
z
M 3366 4563 
L 3366 3988 
Q 3128 4100 2886 4159 
Q 2644 4219 2406 4219 
Q 1781 4219 1451 3797 
Q 1122 3375 1075 2522 
Q 1259 2794 1537 2939 
Q 1816 3084 2150 3084 
Q 2853 3084 3261 2657 
Q 3669 2231 3669 1497 
Q 3669 778 3244 343 
Q 2819 -91 2113 -91 
Q 1303 -91 875 529 
Q 447 1150 447 2328 
Q 447 3434 972 4092 
Q 1497 4750 2381 4750 
Q 2619 4750 2861 4703 
Q 3103 4656 3366 4563 
z
" transform="scale(0.015625)"/>
       </defs>
       <use xlink:href="#DejaVuSans-2d"/>
       <use xlink:href="#DejaVuSans-31" transform="translate(36.083984 0)"/>
       <use xlink:href="#DejaVuSans-2e" transform="translate(99.707031 0)"/>
       <use xlink:href="#DejaVuSans-36" transform="translate(131.494141 0)"/>
      </g>
     </g>
    </g>
    <g id="ytick_13">
     <g id="line2d_29">
      <g>
       <use xlink:href="#m0a27ea52cb" x="420.828616" y="132.615054" style="stroke: #000000; stroke-width: 0.8"/>
      </g>
     </g>
     <g id="text_18">
      <!-- -1.2 -->
      <g transform="translate(427.828616 136.414273) scale(0.1 -0.1)">
       <use xlink:href="#DejaVuSans-2d"/>
       <use xlink:href="#DejaVuSans-31" transform="translate(36.083984 0)"/>
       <use xlink:href="#DejaVuSans-2e" transform="translate(99.707031 0)"/>
       <use xlink:href="#DejaVuSans-32" transform="translate(131.494141 0)"/>
      </g>
     </g>
    </g>
    <g id="ytick_14">
     <g id="line2d_30">
      <g>
       <use xlink:href="#m0a27ea52cb" x="420.828616" y="95.849411" style="stroke: #000000; stroke-width: 0.8"/>
      </g>
     </g>
     <g id="text_19">
      <!-- -0.8 -->
      <g transform="translate(427.828616 99.64863) scale(0.1 -0.1)">
       <use xlink:href="#DejaVuSans-2d"/>
       <use xlink:href="#DejaVuSans-30" transform="translate(36.083984 0)"/>
       <use xlink:href="#DejaVuSans-2e" transform="translate(99.707031 0)"/>
       <use xlink:href="#DejaVuSans-38" transform="translate(131.494141 0)"/>
      </g>
     </g>
    </g>
    <g id="ytick_15">
     <g id="line2d_31">
      <g>
       <use xlink:href="#m0a27ea52cb" x="420.828616" y="59.083768" style="stroke: #000000; stroke-width: 0.8"/>
      </g>
     </g>
     <g id="text_20">
      <!-- -0.4 -->
      <g transform="translate(427.828616 62.882987) scale(0.1 -0.1)">
       <use xlink:href="#DejaVuSans-2d"/>
       <use xlink:href="#DejaVuSans-30" transform="translate(36.083984 0)"/>
       <use xlink:href="#DejaVuSans-2e" transform="translate(99.707031 0)"/>
       <use xlink:href="#DejaVuSans-34" transform="translate(131.494141 0)"/>
      </g>
     </g>
    </g>
    <g id="ytick_16">
     <g id="line2d_32">
      <g>
       <use xlink:href="#m0a27ea52cb" x="420.828616" y="22.318125" style="stroke: #000000; stroke-width: 0.8"/>
      </g>
     </g>
     <g id="text_21">
      <!-- 0.0 -->
      <g transform="translate(427.828616 26.117344) scale(0.1 -0.1)">
       <use xlink:href="#DejaVuSans-30"/>
       <use xlink:href="#DejaVuSans-2e" transform="translate(63.623047 0)"/>
       <use xlink:href="#DejaVuSans-30" transform="translate(95.410156 0)"/>
      </g>
     </g>
    </g>
    <g id="text_22">
     <!-- Score -->
     <g transform="translate(458.937991 183.383041) rotate(-90) scale(0.1 -0.1)">
      <defs>
       <path id="DejaVuSans-53" d="M 3425 4513 
L 3425 3897 
Q 3066 4069 2747 4153 
Q 2428 4238 2131 4238 
Q 1616 4238 1336 4038 
Q 1056 3838 1056 3469 
Q 1056 3159 1242 3001 
Q 1428 2844 1947 2747 
L 2328 2669 
Q 3034 2534 3370 2195 
Q 3706 1856 3706 1288 
Q 3706 609 3251 259 
Q 2797 -91 1919 -91 
Q 1588 -91 1214 -16 
Q 841 59 441 206 
L 441 856 
Q 825 641 1194 531 
Q 1563 422 1919 422 
Q 2459 422 2753 634 
Q 3047 847 3047 1241 
Q 3047 1584 2836 1778 
Q 2625 1972 2144 2069 
L 1759 2144 
Q 1053 2284 737 2584 
Q 422 2884 422 3419 
Q 422 4038 858 4394 
Q 1294 4750 2059 4750 
Q 2388 4750 2728 4690 
Q 3069 4631 3425 4513 
z
" transform="scale(0.015625)"/>
       <path id="DejaVuSans-72" d="M 2631 2963 
Q 2534 3019 2420 3045 
Q 2306 3072 2169 3072 
Q 1681 3072 1420 2755 
Q 1159 2438 1159 1844 
L 1159 0 
L 581 0 
L 581 3500 
L 1159 3500 
L 1159 2956 
Q 1341 3275 1631 3429 
Q 1922 3584 2338 3584 
Q 2397 3584 2469 3576 
Q 2541 3569 2628 3553 
L 2631 2963 
z
" transform="scale(0.015625)"/>
       <path id="DejaVuSans-65" d="M 3597 1894 
L 3597 1613 
L 953 1613 
Q 991 1019 1311 708 
Q 1631 397 2203 397 
Q 2534 397 2845 478 
Q 3156 559 3463 722 
L 3463 178 
Q 3153 47 2828 -22 
Q 2503 -91 2169 -91 
Q 1331 -91 842 396 
Q 353 884 353 1716 
Q 353 2575 817 3079 
Q 1281 3584 2069 3584 
Q 2775 3584 3186 3129 
Q 3597 2675 3597 1894 
z
M 3022 2063 
Q 3016 2534 2758 2815 
Q 2500 3097 2075 3097 
Q 1594 3097 1305 2825 
Q 1016 2553 972 2059 
L 3022 2063 
z
" transform="scale(0.015625)"/>
      </defs>
      <use xlink:href="#DejaVuSans-53"/>
      <use xlink:href="#DejaVuSans-63" transform="translate(63.476562 0)"/>
      <use xlink:href="#DejaVuSans-6f" transform="translate(118.457031 0)"/>
      <use xlink:href="#DejaVuSans-72" transform="translate(179.638672 0)"/>
      <use xlink:href="#DejaVuSans-65" transform="translate(218.501953 0)"/>
     </g>
    </g>
   </g>
   <g id="LineCollection_1"/>
   <g id="patch_8">
    <path d="M 406.122358 316.44327 
L 413.475487 316.44327 
L 420.828616 316.44327 
L 420.828616 22.318125 
L 413.475487 22.318125 
L 406.122358 22.318125 
L 406.122358 316.44327 
z
" style="fill: none; stroke: #000000; stroke-width: 0.8; stroke-linejoin: miter; stroke-linecap: square"/>
   </g>
  </g>
 </g>
 <defs>
  <clipPath id="p0497d74b55">
   <rect x="43.78125" y="22.318125" width="345.08677" height="294.125145"/>
  </clipPath>
  <clipPath id="p5097c4bec0">
   <rect x="406.122358" y="22.318125" width="14.706257" height="294.125145"/>
  </clipPath>
 </defs>
</svg>
