<?xml version="1.0" encoding="utf-8" standalone="no"?>
<!DOCTYPE svg PUBLIC "-//W3C//DTD SVG 1.1//EN"
  "http://www.w3.org/Graphics/SVG/1.1/DTD/svg11.dtd">
<svg xmlns:xlink="http://www.w3.org/1999/xlink" width="460.8pt" height="345.6pt" viewBox="0 0 460.8 345.6" xmlns="http://www.w3.org/2000/svg" version="1.1">
 <metadata>
  <rdf:RDF xmlns:dc="http://purl.org/dc/elements/1.1/" xmlns:cc="http://creativecommons.org/ns#" xmlns:rdf="http://www.w3.org/1999/02/22-rdf-syntax-ns#">
   <cc:Work>
    <dc:type rdf:resource="http://purl.org/dc/dcmitype/StillImage"/>
    <dc:date>1970-01-01T00:00:00+00:00</dc:date>
    <dc:format>image/svg+xml</dc:format>
    <dc:creator>
     <cc:Agent>
      <dc:title>Matplotlib v3.10.7, https://matplotlib.org/</dc:title>
     </cc:Agent>
    </dc:creator>
   </cc:Work>
  </rdf:RDF>
 </metadata>
 <defs>
  <style type="text/css">*{stroke-linejoin: round; stroke-linecap: butt}</style>
 </defs>
 <g id="figure_1">
  <g id="patch_1">
   <path d="M 0 345.6 
L 460.8 345.6 
L 460.8 0 
L 0 0 
z
" style="fill: #ffffff"/>
  </g>
  <g id="axes_1">
   <g id="patch_2">
    <path d="M 39.58149 312.24351 
L 384.66826 312.24351 
L 384.66826 18.118365 
L 39.58149 18.118365 
z
" style="fill: #ffffff"/>
   </g>
   <g id="QuadContourSet_1">
    <path d="M -3.554356 288.225089 
L 39.071517 312.24351 
L 39.58149 312.24351 
L 82.717336 312.24351 
L 95.644617 312.24351 
L 82.717336 305.716181 
L 54.067525 287.733081 
L 39.58149 280.927856 
L 11.054696 263.222652 
L -3.554356 256.623398 
L -41.136959 238.712224 
L -46.690202 236.345532 
L -88.438016 214.201795 
L -89.826049 213.638429 
L -132.961895 202.71507 
L -134.036029 214.201795 
L -132.961895 214.964917 
L -91.245729 238.712224 
L -89.826049 239.529312 
L -47.593685 263.222652 
L -46.690202 263.906014 
L -4.251671 287.733081 
z
" clip-path="url(#p50bfc125c0)" style="fill: #470d60"/>
    <path d="M -3.554356 293.701639 
L 31.266487 312.24351 
L 39.071517 312.24351 
L -3.554356 288.225089 
L -4.251671 287.733081 
L -46.690202 263.906014 
L -47.593685 263.222652 
L -89.826049 239.529312 
L -91.245729 238.712224 
L -132.961895 214.964917 
L -134.036029 214.201795 
L -132.961895 202.71507 
L -89.826049 213.638429 
L -88.438016 214.201795 
L -46.690202 236.345532 
L -41.136959 238.712224 
L -3.554356 256.623398 
L 11.054696 263.222652 
L 39.58149 280.927856 
L 54.067525 287.733081 
L 82.717336 305.716181 
L 95.644617 312.24351 
L 114.209317 312.24351 
L 82.717336 294.135179 
L 73.72226 287.733081 
L 39.58149 269.317053 
L 30.934746 263.222652 
L -3.554356 245.304117 
L -15.306531 238.712224 
L -46.690202 222.708513 
L -60.121217 214.201795 
L -89.826049 199.542647 
L -105.947196 189.691366 
L -132.961895 176.523198 
L -158.718335 165.180938 
L -176.097741 157.454695 
L -219.233587 142.925563 
L -229.199194 165.180938 
L -219.233587 171.664768 
L -187.736 189.691366 
L -176.097741 197.540936 
L -145.15475 214.201795 
L -132.961895 222.253647 
L -101.769951 238.712224 
L -89.826049 245.126984 
L -55.637818 263.222652 
L -46.690202 269.6404 
L -12.486018 287.733081 
z
M -262.369434 145.950646 
L -223.552763 140.670509 
L -262.369434 123.613207 
L -270.029275 140.670509 
z
M -305.50528 121.118937 
L -274.042748 116.16008 
L -305.50528 103.075397 
L -312.034634 116.16008 
z
M -348.641126 95.94073 
L -323.684814 91.649651 
L -348.641126 81.331157 
L -354.400202 91.649651 
z
M -372.860006 67.139223 
L -391.776972 59.312411 
L -391.776972 67.139223 
L -391.776972 70.585129 
z
" clip-path="url(#p50bfc125c0)" style="fill: #482374"/>
    <path d="M -3.554356 299.178188 
L 22.552958 312.24351 
L 31.266487 312.24351 
L -3.554356 293.701639 
L -12.486018 287.733081 
L -46.690202 269.6404 
L -55.637818 263.222652 
L -89.826049 245.126984 
L -101.769951 238.712224 
L -132.961895 222.253647 
L -145.15475 214.201795 
L -176.097741 197.540936 
L -187.736 189.691366 
L -219.233587 171.664768 
L -229.199194 165.180938 
L -219.233587 142.925563 
L -176.097741 157.454695 
L -158.718335 165.180938 
L -132.961895 176.523198 
L -105.947196 189.691366 
L -89.826049 199.542647 
L -60.121217 214.201795 
L -46.690202 222.708513 
L -15.306531 238.712224 
L -3.554356 245.304117 
L 30.934746 263.222652 
L 39.58149 269.317053 
L 73.72226 287.733081 
L 82.717336 294.135179 
L 114.209317 312.24351 
L 125.853182 312.24351 
L 128.796324 312.24351 
L 125.853182 310.638716 
L 89.307496 287.733081 
L 82.717336 284.362087 
L 47.587347 263.222652 
L 39.58149 258.991827 
L 4.978669 238.712224 
L -3.554356 234.413791 
L -37.85595 214.201795 
L -46.690202 210.072784 
L -82.10098 189.691366 
L -89.826049 186.11157 
L -126.251891 165.180938 
L -132.961895 162.022509 
L -170.838279 140.670509 
L -176.097741 138.277207 
L -216.35212 116.16008 
L -219.233587 114.858798 
L -262.369434 99.017222 
L -275.031929 91.649651 
L -305.50528 76.837609 
L -322.884428 67.139223 
L -348.641126 55.03143 
L -371.345825 42.628794 
L -391.776972 33.446805 
L -391.776972 42.628794 
L -391.776972 59.312411 
L -372.860006 67.139223 
L -391.776972 70.585129 
L -391.776972 81.173867 
L -370.880199 91.649651 
L -348.641126 106.545322 
L -329.008239 116.16008 
L -305.50528 132.158927 
L -287.973692 140.670509 
L -262.369434 156.398001 
L -245.389699 165.180938 
L -219.233587 180.522388 
L -201.574294 189.691366 
L -176.097741 205.418545 
L -158.215607 214.201795 
L -132.961895 229.542377 
L -114.01759 238.712224 
L -89.826049 250.724656 
L -64.65049 263.222652 
L -46.690202 275.374787 
L -21.738212 287.733081 
z
M -270.029275 140.670509 
L -262.369434 123.613207 
L -223.552763 140.670509 
L -262.369434 145.950646 
z
M -312.034634 116.16008 
L -305.50528 103.075397 
L -274.042748 116.16008 
L -305.50528 121.118937 
z
M -354.400202 91.649651 
L -348.641126 81.331157 
L -323.684814 91.649651 
L -348.641126 95.94073 
z
" clip-path="url(#p50bfc125c0)" style="fill: #453781"/>
    <path d="M -3.554356 304.654737 
L 12.691226 312.24351 
L 22.552958 312.24351 
L -3.554356 299.178188 
L -21.738212 287.733081 
L -46.690202 275.374787 
L -64.65049 263.222652 
L -89.826049 250.724656 
L -114.01759 238.712224 
L -132.961895 229.542377 
L -158.215607 214.201795 
L -176.097741 205.418545 
L -201.574294 189.691366 
L -219.233587 180.522388 
L -245.389699 165.180938 
L -262.369434 156.398001 
L -287.973692 140.670509 
L -305.50528 132.158927 
L -329.008239 116.16008 
L -348.641126 106.545322 
L -370.880199 91.649651 
L -391.776972 81.173867 
L -391.776972 91.649651 
L -391.776972 91.885094 
L -351.251613 116.16008 
L -348.641126 118.096789 
L -311.43723 140.670509 
L -305.50528 144.128159 
L -265.809901 165.180938 
L -262.369434 167.256072 
L -219.233587 189.380007 
L -218.560394 189.691366 
L -176.097741 213.296154 
L -174.043727 214.201795 
L -132.961895 236.831107 
L -128.665772 238.712224 
L -89.826049 256.322327 
L -74.897272 263.222652 
L -46.690202 281.109173 
L -32.295849 287.733081 
z
M 125.853182 310.638716 
L 128.796324 312.24351 
L 140.217945 312.24351 
L 125.853182 303.778232 
L 102.23315 287.733081 
L 82.717336 276.823911 
L 62.073918 263.222652 
L 39.58149 250.086879 
L 22.160421 238.712224 
L -3.554356 224.121603 
L -18.449409 214.201795 
L -46.690202 199.097326 
L -60.99628 189.691366 
L -89.826049 174.223241 
L -103.456777 165.180938 
L -132.961895 148.912024 
L -145.418151 140.670509 
L -176.097741 124.016894 
L -188.068383 116.16008 
L -219.233587 99.040715 
L -234.158356 91.649651 
L -262.369434 75.957576 
L -276.119203 67.139223 
L -305.50528 51.234039 
L -318.890739 42.628794 
L -348.641126 26.154971 
L -361.204469 18.118365 
L -391.776972 18.118365 
L -391.776972 33.446805 
L -371.345825 42.628794 
L -348.641126 55.03143 
L -322.884428 67.139223 
L -305.50528 76.837609 
L -275.031929 91.649651 
L -262.369434 99.017222 
L -219.233587 114.858798 
L -216.35212 116.16008 
L -176.097741 138.277207 
L -170.838279 140.670509 
L -132.961895 162.022509 
L -126.251891 165.180938 
L -89.826049 186.11157 
L -82.10098 189.691366 
L -46.690202 210.072784 
L -37.85595 214.201795 
L -3.554356 234.413791 
L 4.978669 238.712224 
L 39.58149 258.991827 
L 47.587347 263.222652 
L 82.717336 284.362087 
L 89.307496 287.733081 
z
" clip-path="url(#p50bfc125c0)" style="fill: #3e4989"/>
    <path d="M -3.554356 310.131286 
L 1.332096 312.24351 
L 12.691226 312.24351 
L -3.554356 304.654737 
L -32.295849 287.733081 
L -46.690202 281.109173 
L -74.897272 263.222652 
L -89.826049 256.322327 
L -128.665772 238.712224 
L -132.961895 236.831107 
L -174.043727 214.201795 
L -176.097741 213.296154 
L -218.560394 189.691366 
L -219.233587 189.380007 
L -262.369434 167.256072 
L -265.809901 165.180938 
L -305.50528 144.128159 
L -311.43723 140.670509 
L -348.641126 118.096789 
L -351.251613 116.16008 
L -391.776972 91.885094 
L -391.776972 113.956363 
L -387.049096 116.16008 
L -348.641126 138.845722 
L -344.844391 140.670509 
L -305.50528 159.225574 
L -291.994081 165.180938 
L -262.369434 180.281434 
L -240.817847 189.691366 
L -219.233587 203.967442 
L -197.22307 214.201795 
L -176.097741 224.407568 
L -146.36621 238.712224 
L -132.961895 244.247008 
L -89.826049 261.919999 
L -86.770578 263.222652 
L -46.690202 286.84356 
L -44.588794 287.733081 
z
M 125.853182 303.778232 
L 140.217945 312.24351 
L 150.126721 312.24351 
L 125.853182 296.917747 
L 113.253803 287.733081 
L 82.717336 269.285735 
L 74.208476 263.222652 
L 39.58149 241.181931 
L 36.128103 238.712224 
L -3.014664 214.201795 
L -3.554356 213.919176 
L -44.162968 189.691366 
L -46.690202 188.36592 
L -84.897719 165.180938 
L -89.826049 162.580454 
L -124.401552 140.670509 
L -132.961895 136.274715 
L -164.803797 116.16008 
L -176.097741 110.454139 
L -205.196811 91.649651 
L -219.233587 84.516777 
L -245.45093 67.139222 
L -262.369434 58.492175 
L -286.549005 42.628794 
L -305.50528 32.988826 
L -327.727169 18.118365 
L -348.641126 18.118365 
L -361.204469 18.118365 
L -348.641126 26.154971 
L -318.890739 42.628794 
L -305.50528 51.234039 
L -276.119203 67.139223 
L -262.369434 75.957576 
L -234.158356 91.649651 
L -219.233587 99.040715 
L -188.068383 116.16008 
L -176.097741 124.016894 
L -145.418151 140.670509 
L -132.961895 148.912024 
L -103.456777 165.180938 
L -89.826049 174.223241 
L -60.99628 189.691366 
L -46.690202 199.097326 
L -18.449409 214.201795 
L -3.554356 224.121603 
L 22.160421 238.712224 
L 39.58149 250.086879 
L 62.073918 263.222652 
L 82.717336 276.823911 
L 102.23315 287.733081 
z
" clip-path="url(#p50bfc125c0)" style="fill: #375b8d"/>
    <path d="M -46.690202 292.30773 
L -8.396997 312.24351 
L -3.554356 312.24351 
L 1.332096 312.24351 
L -3.554356 310.131286 
L -44.588794 287.733081 
L -46.690202 286.84356 
L -86.770578 263.222652 
L -89.826049 261.919999 
L -132.961895 244.247008 
L -146.36621 238.712224 
L -176.097741 224.407568 
L -197.22307 214.201795 
L -219.233587 203.967442 
L -240.817847 189.691366 
L -262.369434 180.281434 
L -291.994081 165.180937 
L -305.50528 159.225574 
L -344.844391 140.670509 
L -348.641126 138.845722 
L -387.049096 116.16008 
L -391.776972 113.956363 
L -391.776972 116.16008 
L -391.776972 135.81284 
L -381.132931 140.670509 
L -348.641126 149.748284 
L -315.33326 165.180938 
L -305.50528 172.3171 
L -267.754627 189.691366 
L -262.369434 191.946795 
L -222.627572 214.201795 
L -219.233587 216.530459 
L -176.097741 235.939045 
L -169.337204 238.712224 
L -132.961895 251.707148 
L -101.592553 263.222652 
L -89.826049 268.481125 
L -54.684932 287.733081 
z
M 125.853182 296.917747 
L 150.126721 312.24351 
L 158.876946 312.24351 
L 125.853182 290.057262 
L 122.859521 287.733081 
L 85.209356 263.222652 
L 82.717336 261.940833 
L 48.856146 238.712224 
L 39.58149 233.767562 
L 10.544128 214.201795 
L -3.554356 206.107892 
L -28.534094 189.691366 
L -46.690202 179.097118 
L -67.230195 165.180938 
L -89.826049 151.717798 
L -105.280351 140.670509 
L -132.961895 124.438333 
L -144.479565 116.16008 
L -176.097741 97.747256 
L -184.35602 91.649651 
L -219.233587 71.127891 
L -224.49152 67.139223 
L -262.369434 44.683847 
L -265.095689 42.628794 
L -305.50528 18.691936 
L -306.250693 18.118365 
L -327.727169 18.118365 
L -305.50528 32.988826 
L -286.549005 42.628794 
L -262.369434 58.492175 
L -245.45093 67.139223 
L -219.233587 84.516777 
L -205.196811 91.649651 
L -176.097741 110.454139 
L -164.803797 116.16008 
L -132.961895 136.274715 
L -124.401552 140.670509 
L -89.826049 162.580454 
L -84.897719 165.180938 
L -46.690202 188.36592 
L -44.162968 189.691366 
L -3.554356 213.919176 
L -3.014664 214.201795 
L 36.128103 238.712224 
L 39.58149 241.181931 
L 74.208476 263.222652 
L 82.717336 269.285735 
L 113.253803 287.733081 
z
" clip-path="url(#p50bfc125c0)" style="fill: #2f6b8e"/>
    <path d="M -46.690202 297.722289 
L -17.01768 312.24351 
L -8.396997 312.24351 
L -46.690202 292.30773 
L -54.684932 287.733081 
L -89.826049 268.481125 
L -101.592553 263.222652 
L -132.961895 251.707148 
L -169.337204 238.712224 
L -176.097741 235.939045 
L -219.233587 216.530459 
L -222.627572 214.201795 
L -262.369434 191.946795 
L -267.754627 189.691366 
L -305.50528 172.3171 
L -315.33326 165.180938 
L -348.641126 149.748284 
L -381.132931 140.670509 
L -391.776972 135.81284 
L -391.776972 140.670509 
L -391.776972 147.449975 
L -348.641126 159.701396 
L -335.058446 165.180938 
L -305.50528 184.101939 
L -291.177401 189.691366 
L -262.369434 200.072459 
L -234.830826 214.201795 
L -219.233587 224.08342 
L -185.956777 238.712224 
L -176.097741 243.051024 
L -132.961895 259.167288 
L -120.363843 263.222652 
L -89.826049 275.334461 
L -65.4018 287.733081 
z
M 125.853182 290.057262 
L 158.876946 312.24351 
L 166.711399 312.24351 
L 133.291793 287.733081 
L 125.853182 283.650068 
L 96.791814 263.222652 
L 82.717336 255.390342 
L 60.048662 238.712224 
L 39.58149 226.925246 
L 22.021403 214.201795 
L -3.554356 198.296608 
L -15.609046 189.691366 
L -46.690202 169.828316 
L -52.943675 165.180938 
L -89.826049 140.855141 
L -90.059806 140.670509 
L -127.728256 116.16008 
L -132.961895 113.363448 
L -166.158857 91.649651 
L -176.097741 85.855907 
L -203.760061 67.139223 
L -219.233587 58.418591 
L -242.013666 42.628794 
L -262.369434 31.354287 
L -281.298436 18.118365 
L -305.50528 18.118365 
L -306.250693 18.118365 
L -305.50528 18.691936 
L -265.095689 42.628794 
L -262.369434 44.683847 
L -224.49152 67.139223 
L -219.233587 71.127891 
L -184.35602 91.649651 
L -176.097741 97.747256 
L -144.479565 116.16008 
L -132.961895 124.438333 
L -105.280351 140.670509 
L -89.826049 151.717798 
L -67.230195 165.180938 
L -46.690202 179.097118 
L -28.534094 189.691366 
L -3.554356 206.107892 
L 10.544128 214.201795 
L 39.58149 233.767562 
L 48.856146 238.712224 
L 82.717336 261.940833 
L 85.209356 263.222652 
L 122.859521 287.733081 
z
" clip-path="url(#p50bfc125c0)" style="fill: #297a8e"/>
    <path d="M -46.690202 303.136847 
L -26.760615 312.24351 
L -17.01768 312.24351 
L -46.690202 297.722289 
L -65.4018 287.733081 
L -89.826049 275.334461 
L -120.363843 263.222652 
L -132.961895 259.167288 
L -176.097741 243.051024 
L -185.956777 238.712224 
L -219.233587 224.08342 
L -234.830826 214.201795 
L -262.369434 200.072459 
L -291.177401 189.691366 
L -305.50528 184.101939 
L -335.058446 165.180938 
L -348.641126 159.701396 
L -391.776972 147.449975 
L -391.776972 156.169498 
L -359.305255 165.180938 
L -348.641126 170.661489 
L -314.261167 189.691366 
L -305.50528 193.935586 
L -262.369434 208.198123 
L -249.415504 214.201795 
L -219.233587 231.636381 
L -201.298805 238.712224 
L -176.097741 248.763636 
L -138.147472 263.222652 
L -132.961895 265.851095 
L -89.826049 282.187798 
L -77.91129 287.733081 
z
M 168.989029 312.24351 
L 176.952289 312.24351 
L 168.989029 307.977082 
L 143.301857 287.733081 
L 125.853182 277.475118 
L 106.821356 263.222652 
L 82.717336 248.839852 
L 69.784625 238.712224 
L 39.58149 220.082931 
L 31.972019 214.201795 
L -3.554356 190.485325 
L -4.588833 189.691366 
L -38.449002 165.180938 
L -46.690202 160.992572 
L -74.626825 140.670509 
L -89.826049 132.409475 
L -112.557112 116.16008 
L -132.961895 104.060242 
L -150.111358 91.649651 
L -176.097741 74.716956 
L -186.101626 67.139223 
L -219.233587 45.99765 
L -223.546368 42.628794 
L -262.352454 18.118365 
L -262.369434 18.118365 
L -281.298436 18.118365 
L -262.369434 31.354287 
L -242.013666 42.628794 
L -219.233587 58.418591 
L -203.760061 67.139223 
L -176.097741 85.855907 
L -166.158857 91.649651 
L -132.961895 113.363448 
L -127.728256 116.16008 
L -90.059806 140.670509 
L -89.826049 140.855141 
L -52.943675 165.180938 
L -46.690202 169.828316 
L -15.609046 189.691366 
L -3.554356 198.296608 
L 22.021403 214.201795 
L 39.58149 226.925246 
L 60.048662 238.712224 
L 82.717336 255.390342 
L 96.791814 263.222652 
L 125.853182 283.650068 
L 133.291793 287.733081 
L 166.711399 312.24351 
z
" clip-path="url(#p50bfc125c0)" style="fill: #23898e"/>
    <path d="M -89.826049 288.738282 
L -46.690202 308.551406 
L -37.96235 312.24351 
L -26.760615 312.24351 
L -46.690202 303.136847 
L -77.91129 287.733081 
L -89.826049 282.187798 
L -132.961895 265.851095 
L -138.147472 263.222652 
L -176.097741 248.763636 
L -201.298805 238.712224 
L -219.233587 231.636381 
L -249.415504 214.201795 
L -262.369434 208.198123 
L -305.50528 193.935586 
L -314.261167 189.691366 
L -348.641126 170.661489 
L -359.305255 165.180938 
L -391.776972 156.169498 
L -391.776972 164.88902 
L -390.471782 165.180938 
L -348.641126 182.855004 
L -334.410213 189.691366 
L -305.50528 202.00889 
L -267.367288 214.201795 
L -262.369434 216.820967 
L -220.161768 238.712224 
L -219.233587 239.151164 
L -176.097741 254.476249 
L -150.945013 263.222652 
L -132.961895 271.610228 
L -91.949052 287.733081 
z
M 168.989029 307.977082 
L 176.952289 312.24351 
L 187.183793 312.24351 
L 168.989029 301.785933 
L 152.130948 287.733081 
L 125.853182 271.300168 
L 115.665593 263.222652 
L 82.717336 242.289361 
L 78.399851 238.712224 
L 42.049646 214.201795 
L 39.58149 212.854573 
L 10.79167 189.691366 
L -3.554356 181.648451 
L -24.234441 165.180938 
L -46.690202 152.592317 
L -61.796009 140.670509 
L -89.826049 124.0056 
L -99.946374 116.16008 
L -132.961895 94.757036 
L -136.901667 91.649651 
L -169.144864 67.139223 
L -176.097741 63.674399 
L -204.802597 42.628794 
L -219.233587 34.866199 
L -242.554032 18.118365 
L -262.352454 18.118365 
L -223.546368 42.628794 
L -219.233587 45.99765 
L -186.101626 67.139223 
L -176.097741 74.716956 
L -150.111358 91.649651 
L -132.961895 104.060242 
L -112.557112 116.16008 
L -89.826049 132.409475 
L -74.626825 140.670509 
L -46.690202 160.992572 
L -38.449002 165.180938 
L -4.588833 189.691366 
L -3.554356 190.485325 
L 31.972019 214.201795 
L 39.58149 220.082931 
L 69.784625 238.712224 
L 82.717336 248.839852 
L 106.821356 263.222652 
L 125.853182 277.475118 
L 143.301857 287.733081 
z
" clip-path="url(#p50bfc125c0)" style="fill: #1f988b"/>
    <path d="M -89.826049 294.004874 
L -49.501421 312.24351 
L -46.690202 312.24351 
L -37.96235 312.24351 
L -46.690202 308.551406 
L -89.826049 288.738282 
L -91.949052 287.733081 
L -132.961895 271.610228 
L -150.945013 263.222652 
L -176.097741 254.476249 
L -219.233587 239.151164 
L -220.161768 238.712224 
L -262.369434 216.820967 
L -267.367288 214.201795 
L -305.50528 202.00889 
L -334.410213 189.691366 
L -348.641126 182.855004 
L -390.471782 165.180938 
L -391.776972 164.88902 
L -391.776972 165.180938 
L -391.776972 176.421356 
L -358.362491 189.691366 
L -348.641126 194.561472 
L -305.50528 210.082195 
L -290.347509 214.201795 
L -262.369434 226.850464 
L -236.630713 238.712224 
L -219.233587 246.099736 
L -176.097741 260.188862 
L -166.38763 263.222652 
L -132.961895 277.36936 
L -104.176797 287.733081 
z
M 168.989029 301.785933 
L 187.183793 312.24351 
L 196.184649 312.24351 
L 168.989029 295.594785 
L 160.028549 287.733081 
L 125.853182 265.125217 
L 123.575307 263.222652 
L 90.76729 238.712224 
L 82.717336 234.397264 
L 57.601834 214.201795 
L 39.58149 203.264158 
L 24.075142 189.691366 
L -3.554356 172.695539 
L -12.29115 165.180938 
L -46.690202 144.192062 
L -50.844327 140.670509 
L -88.044852 116.16008 
L -89.826049 115.169426 
L -117.385692 91.649651 
L -132.961895 83.082955 
L -150.812763 67.139223 
L -176.097741 52.836953 
L -188.661226 42.628794 
L -219.233587 24.214648 
L -226.908375 18.118365 
L -242.554032 18.118365 
L -219.233587 34.866199 
L -204.802597 42.628794 
L -176.097741 63.674399 
L -169.144864 67.139223 
L -136.901667 91.649651 
L -132.961895 94.757036 
L -99.946374 116.16008 
L -89.826049 124.0056 
L -61.796009 140.670509 
L -46.690202 152.592317 
L -24.234441 165.180938 
L -3.554356 181.648451 
L 10.79167 189.691366 
L 39.58149 212.854573 
L 42.049646 214.201795 
L 78.399851 238.712224 
L 82.717336 242.289361 
L 115.665593 263.222652 
L 125.853182 271.300168 
L 152.130948 287.733081 
z
" clip-path="url(#p50bfc125c0)" style="fill: #22a785"/>
    <path d="M -89.826049 299.271466 
L -59.095117 312.24351 
L -49.501421 312.24351 
L -89.826049 294.004874 
L -104.176797 287.733081 
L -132.961895 277.36936 
L -166.38763 263.222652 
L -176.097741 260.188862 
L -219.233587 246.099736 
L -236.630713 238.712224 
L -262.369434 226.850464 
L -290.347509 214.201795 
L -305.50528 210.082195 
L -348.641126 194.561472 
L -358.362491 189.691366 
L -391.776972 176.421356 
L -391.776972 188.051124 
L -386.745098 189.691366 
L -348.641126 205.646413 
L -319.458728 214.201795 
L -305.50528 218.266871 
L -262.369434 236.879961 
L -257.769549 238.712224 
L -219.233587 253.048309 
L -184.507842 263.222652 
L -176.097741 267.218294 
L -132.961895 283.128493 
L -118.796503 287.733081 
z
M 168.989029 295.594785 
L 196.184649 312.24351 
L 204.219369 312.24351 
L 168.989029 289.403637 
L 167.172587 287.733081 
L 139.018073 263.222652 
L 125.853182 256.015464 
L 105.937773 238.712224 
L 82.717336 224.891125 
L 70.474449 214.201795 
L 39.58149 193.673744 
L 35.35467 189.691366 
L 0.564581 165.180938 
L -3.554356 162.999323 
L -32.831889 140.670509 
L -46.690202 132.115591 
L -65.359975 116.16008 
L -89.826049 100.258947 
L -98.781401 91.649651 
L -132.961895 70.21981 
L -136.09554 67.139223 
L -173.935359 42.628794 
L -176.097741 41.332546 
L -203.916239 18.118365 
L -219.233587 18.118365 
L -226.908375 18.118365 
L -219.233587 24.214648 
L -188.661226 42.628794 
L -176.097741 52.836953 
L -150.812763 67.139223 
L -132.961895 83.082955 
L -117.385692 91.649651 
L -89.826049 115.169426 
L -88.044852 116.16008 
L -50.844327 140.670509 
L -46.690202 144.192062 
L -12.29115 165.180938 
L -3.554356 172.695539 
L 24.075142 189.691366 
L 39.58149 203.264158 
L 57.601834 214.201795 
L 82.717336 234.397264 
L 90.76729 238.712224 
L 123.575307 263.222652 
L 125.853182 265.125217 
L 160.028549 287.733081 
z
" clip-path="url(#p50bfc125c0)" style="fill: #32b67a"/>
    <path d="M -132.961895 290.95531 
L -89.826049 304.538058 
L -70.099943 312.24351 
L -59.095117 312.24351 
L -89.826049 299.271466 
L -118.796503 287.733081 
L -132.961895 283.128493 
L -176.097741 267.218294 
L -184.507842 263.222652 
L -219.233587 253.048309 
L -257.769549 238.712224 
L -262.369434 236.879961 
L -305.50528 218.266871 
L -319.458728 214.201795 
L -348.641126 205.646413 
L -386.745098 189.691366 
L -391.776972 188.051124 
L -391.776972 189.691366 
L -391.776972 198.979993 
L -353.361755 214.201795 
L -348.641126 217.77229 
L -305.50528 226.567593 
L -275.155004 238.712224 
L -262.369434 247.946043 
L -219.233587 259.996882 
L -206.394059 263.222652 
L -176.097741 275.739035 
L -137.166104 287.733081 
z
M 168.989029 289.403637 
L 204.219369 312.24351 
L 211.475402 312.24351 
L 184.912574 287.733081 
L 168.989029 278.016972 
L 154.70502 263.222652 
L 125.853182 245.598793 
L 118.548054 238.712224 
L 82.717336 215.384987 
L 81.456548 214.201795 
L 55.436355 189.691366 
L 39.58149 180.935132 
L 22.098403 165.180938 
L -3.554356 149.419637 
L -13.708518 140.670509 
L -46.690202 117.385545 
L -47.970334 116.16008 
L -76.442541 91.649651 
L -89.826049 83.987769 
L -110.458726 67.139223 
L -132.961895 52.179137 
L -144.059931 42.628794 
L -176.097741 19.008804 
L -176.994465 18.118365 
L -203.916239 18.118365 
L -176.097741 41.332546 
L -173.935359 42.628794 
L -136.09554 67.139222 
L -132.961895 70.21981 
L -98.781401 91.649651 
L -89.826049 100.258947 
L -65.359975 116.16008 
L -46.690202 132.115591 
L -32.831889 140.670509 
L -3.554356 162.999323 
L 0.564581 165.180938 
L 35.35467 189.691366 
L 39.58149 193.673744 
L 70.474449 214.201795 
L 82.717336 224.891125 
L 105.937773 238.712224 
L 125.853182 256.015464 
L 139.018073 263.222652 
L 167.172587 287.733081 
z
" clip-path="url(#p50bfc125c0)" style="fill: #4ec36b"/>
    <path d="M -132.961895 307.028525 
L -89.826049 309.80465 
L -83.003816 312.24351 
L -70.099943 312.24351 
L -89.826049 304.538058 
L -132.961895 290.95531 
L -137.166104 287.733081 
L -176.097741 275.739035 
L -206.394059 263.222652 
L -219.233587 259.996882 
L -262.369434 247.946043 
L -275.155004 238.712224 
L -305.50528 226.567593 
L -348.641126 217.77229 
L -353.361755 214.201795 
L -391.776972 198.979993 
L -391.776972 209.793777 
L -378.494253 214.201795 
L -348.641126 233.418783 
L -305.50528 234.868315 
L -294.509826 238.712224 
L -262.369434 259.243825 
L -242.210428 263.222652 
L -219.233587 278.488372 
L -176.097741 284.259776 
L -162.605452 287.733081 
z
M 212.124875 312.24351 
L 232.139654 312.24351 
L 212.124875 298.155243 
L 202.360622 287.733081 
L 168.989029 264.710337 
L 167.669714 263.222652 
L 139.542982 238.712224 
L 125.853182 230.15252 
L 110.671356 214.201795 
L 82.717336 196.643397 
L 76.586964 189.691366 
L 39.58149 165.960923 
L 38.805462 165.180938 
L 14.486559 140.670509 
L -3.554356 130.425823 
L -16.043447 116.16008 
L -46.690202 97.054696 
L -51.926266 91.649651 
L -84.713429 67.139223 
L -89.826049 64.455248 
L -109.505297 42.628794 
L -132.961895 28.351523 
L -142.664671 18.118365 
L -176.097741 18.118365 
L -176.994465 18.118365 
L -176.097741 19.008804 
L -144.059931 42.628794 
L -132.961895 52.179137 
L -110.458726 67.139223 
L -89.826049 83.987769 
L -76.442541 91.649651 
L -47.970334 116.16008 
L -46.690202 117.385545 
L -13.708518 140.670509 
L -3.554356 149.419637 
L 22.098403 165.180938 
L 39.58149 180.935132 
L 55.436355 189.691366 
L 81.456548 214.201795 
L 82.717336 215.384987 
L 118.548054 238.712224 
L 125.853182 245.598793 
L 154.70502 263.222652 
L 168.989029 278.016972 
L 184.912574 287.733081 
L 211.475402 312.24351 
z
" clip-path="url(#p50bfc125c0)" style="fill: #70cf57"/>
    <path d="M -348.641126 312.24351 
L -305.50528 312.24351 
L -262.369434 312.24351 
L -219.233587 312.24351 
L -176.097741 312.24351 
L -132.961895 312.24351 
L -89.826049 312.24351 
L -83.003816 312.24351 
L -89.826049 309.80465 
L -132.961895 307.028525 
L -162.605452 287.733081 
L -176.097741 284.259776 
L -219.233587 278.488372 
L -242.210428 263.222652 
L -262.369434 259.243825 
L -294.509826 238.712224 
L -305.50528 234.868315 
L -348.641126 233.418783 
L -378.494253 214.201795 
L -391.776972 209.793777 
L -391.776972 214.201795 
L -391.776972 238.712224 
L -391.776972 263.222652 
L -391.776972 287.733081 
L -391.776972 312.24351 
z
M 212.124875 298.155243 
L 232.139654 312.24351 
L 249.387233 312.24351 
L 226.118922 287.733081 
L 212.124875 277.975903 
L 199.288864 263.222652 
L 170.425021 238.712224 
L 168.989029 237.636804 
L 147.18884 214.201795 
L 125.853182 195.511406 
L 120.786296 189.691366 
L 93.207234 165.180938 
L 82.717336 155.305398 
L 70.236585 140.670509 
L 39.58149 116.436544 
L 39.331899 116.16008 
L 20.99873 91.649651 
L -3.554356 72.193727 
L -8.393636 67.139223 
L -26.920165 42.628794 
L -46.690202 26.7995 
L -55.14458 18.118365 
L -89.826049 18.118365 
L -132.961895 18.118365 
L -142.664671 18.118365 
L -132.961895 28.351523 
L -109.505297 42.628794 
L -89.826049 64.455248 
L -84.713429 67.139223 
L -51.926266 91.649651 
L -46.690202 97.054696 
L -16.043447 116.16008 
L -3.554356 130.425823 
L 14.486559 140.670509 
L 38.805462 165.180938 
L 39.58149 165.960923 
L 76.586964 189.691366 
L 82.717336 196.643397 
L 110.671356 214.201795 
L 125.853182 230.15252 
L 139.542982 238.712224 
L 167.669714 263.222652 
L 168.989029 264.710337 
L 202.360622 287.733081 
z
M 470.939952 296.945656 
L 480.539906 312.24351 
L 514.075799 312.24351 
L 557.211645 312.24351 
L 600.347491 312.24351 
L 643.483337 312.24351 
L 686.619184 312.24351 
L 729.75503 312.24351 
L 772.890876 312.24351 
L 816.026722 312.24351 
L 859.162568 312.24351 
L 902.298415 312.24351 
L 945.434261 312.24351 
L 988.570107 312.24351 
L 1031.705953 312.24351 
L 1074.8418 312.24351 
L 1117.977646 312.24351 
L 1161.113492 312.24351 
L 1204.249338 312.24351 
L 1247.385185 312.24351 
L 1290.521031 312.24351 
L 1333.656877 312.24351 
L 1376.792723 312.24351 
L 1419.928569 312.24351 
L 1463.064416 312.24351 
L 1506.200262 312.24351 
L 1506.200262 287.733081 
L 1506.200262 263.222652 
L 1506.200262 238.712224 
L 1506.200262 214.201795 
L 1506.200262 189.691366 
L 1506.200262 165.180938 
L 1506.200262 140.670509 
L 1506.200262 116.16008 
L 1506.200262 91.649651 
L 1506.200262 67.139223 
L 1506.200262 42.628794 
L 1506.200262 18.118365 
L 1463.064416 18.118365 
L 1419.928569 18.118365 
L 1376.792723 18.118365 
L 1333.656877 18.118365 
L 1290.521031 18.118365 
L 1247.385185 18.118365 
L 1204.249338 18.118365 
L 1161.113492 18.118365 
L 1117.977646 18.118365 
L 1074.8418 18.118365 
L 1031.705953 18.118365 
L 988.570107 18.118365 
L 945.434261 18.118365 
L 902.298415 18.118365 
L 859.162568 18.118365 
L 816.026722 18.118365 
L 772.890876 18.118365 
L 729.75503 18.118365 
L 686.619184 18.118365 
L 643.483337 18.118365 
L 600.347491 18.118365 
L 557.211645 18.118365 
L 514.075799 18.118365 
L 470.939952 18.118365 
L 427.804106 18.118365 
L 384.66826 18.118365 
L 341.532414 18.118365 
L 298.396567 18.118365 
L 255.260721 18.118365 
L 254.113743 18.118365 
L 255.260721 20.250853 
L 274.233885 42.628794 
L 290.373876 67.139223 
L 298.396567 81.03662 
L 308.089649 91.649651 
L 327.671926 116.16008 
L 341.532414 138.450832 
L 343.802157 140.670509 
L 367.223187 165.180938 
L 383.773499 189.691366 
L 384.66826 190.979242 
L 409.435601 214.201795 
L 426.679315 238.712224 
L 427.804106 240.409224 
L 452.610552 263.222652 
L 468.076661 287.733081 
z
" clip-path="url(#p50bfc125c0)" style="fill: #98d83e"/>
    <path d="M 255.260721 312.24351 
L 291.572966 312.24351 
L 268.661761 287.733081 
L 255.260721 278.327111 
L 248.312019 263.222652 
L 228.778304 238.712224 
L 212.124875 225.589622 
L 207.2653 214.201795 
L 193.16885 189.691366 
L 168.989029 167.818293 
L 167.778276 165.180938 
L 157.626328 140.670509 
L 137.686052 116.16008 
L 125.853182 106.773376 
L 119.738718 91.649651 
L 108.765876 67.139223 
L 82.717336 44.151523 
L 82.025348 42.628794 
L 80.416395 18.118365 
L 39.58149 18.118365 
L -3.554356 18.118365 
L -46.690202 18.118365 
L -55.14458 18.118365 
L -46.690202 26.7995 
L -26.920165 42.628794 
L -8.393636 67.139223 
L -3.554356 72.193727 
L 20.99873 91.649651 
L 39.331899 116.16008 
L 39.58149 116.436544 
L 70.236585 140.670509 
L 82.717336 155.305398 
L 93.207234 165.180938 
L 120.786296 189.691366 
L 125.853182 195.511406 
L 147.18884 214.201795 
L 168.989029 237.636804 
L 170.425021 238.712224 
L 199.288864 263.222652 
L 212.124875 277.975903 
L 226.118922 287.733081 
L 249.387233 312.24351 
z
M 427.804106 312.24351 
L 470.939952 312.24351 
L 480.539906 312.24351 
L 470.939952 296.945656 
L 468.076661 287.733081 
L 452.610552 263.222652 
L 427.804106 240.409224 
L 426.679315 238.712224 
L 409.435601 214.201795 
L 384.66826 190.979242 
L 383.773499 189.691366 
L 367.223187 165.180938 
L 343.802157 140.670509 
L 341.532414 138.450832 
L 327.671926 116.16008 
L 308.089649 91.649651 
L 298.396567 81.03662 
L 290.373876 67.139223 
L 274.233885 42.628794 
L 255.260721 20.250853 
L 254.113743 18.118365 
L 212.124875 18.118365 
L 168.989029 18.118365 
L 125.853182 18.118365 
L 88.405167 18.118365 
L 125.853182 39.691016 
L 129.706037 42.628794 
L 157.364192 67.139223 
L 168.989029 74.800437 
L 188.783192 91.649651 
L 212.124875 110.742938 
L 219.116765 116.16008 
L 245.603657 140.670509 
L 255.260721 149.054786 
L 273.565935 165.180938 
L 298.396567 187.623378 
L 300.970219 189.691366 
L 324.068798 214.201795 
L 341.532414 232.509056 
L 347.856914 238.712224 
L 367.475206 263.222652 
L 384.66826 286.948212 
L 385.289201 287.733081 
L 396.27163 312.24351 
z
" clip-path="url(#p50bfc125c0)" style="fill: #c2df23"/>
    <path d="M 298.396567 312.24351 
L 341.532414 312.24351 
L 384.66826 312.24351 
L 396.27163 312.24351 
L 385.289201 287.733081 
L 384.66826 286.948212 
L 367.475206 263.222652 
L 347.856914 238.712224 
L 341.532414 232.509056 
L 324.068798 214.201795 
L 300.970219 189.691366 
L 298.396567 187.623378 
L 273.565935 165.180938 
L 255.260721 149.054786 
L 245.603657 140.670509 
L 219.116765 116.16008 
L 212.124875 110.742938 
L 188.783192 91.649651 
L 168.989029 74.800437 
L 157.364192 67.139223 
L 129.706037 42.628794 
L 125.853182 39.691016 
L 88.405167 18.118365 
L 82.717336 18.118365 
L 80.416395 18.118365 
L 82.025348 42.628794 
L 82.717336 44.151523 
L 108.765876 67.139223 
L 119.738718 91.649651 
L 125.853182 106.773376 
L 137.686052 116.16008 
L 157.626328 140.670509 
L 167.778276 165.180938 
L 168.989029 167.818293 
L 193.16885 189.691366 
L 207.2653 214.201795 
L 212.124875 225.589622 
L 228.778304 238.712224 
L 248.312019 263.222652 
L 255.260721 278.327111 
L 268.661761 287.733081 
L 291.572966 312.24351 
z
" clip-path="url(#p50bfc125c0)" style="fill: #ece51b"/>
   </g>
   <g id="PathCollection_1">
    <defs>
     <path id="mdc0741d33a" d="M -3 3 
L 3 -3 
M -3 -3 
L 3 3 
" style="stroke: #ff0000; stroke-width: 1.5"/>
    </defs>
    <g clip-path="url(#p50bfc125c0)">
     <use xlink:href="#mdc0741d33a" x="341.532414" y="312.24351" style="fill: #ff0000; stroke: #ff0000; stroke-width: 1.5"/>
     <use xlink:href="#mdc0741d33a" x="341.532414" y="287.733081" style="fill: #ff0000; stroke: #ff0000; stroke-width: 1.5"/>
     <use xlink:href="#mdc0741d33a" x="298.396567" y="263.222652" style="fill: #ff0000; stroke: #ff0000; stroke-width: 1.5"/>
     <use xlink:href="#mdc0741d33a" x="298.396567" y="238.712224" style="fill: #ff0000; stroke: #ff0000; stroke-width: 1.5"/>
     <use xlink:href="#mdc0741d33a" x="255.260721" y="214.201795" style="fill: #ff0000; stroke: #ff0000; stroke-width: 1.5"/>
     <use xlink:href="#mdc0741d33a" x="255.260721" y="189.691366" style="fill: #ff0000; stroke: #ff0000; stroke-width: 1.5"/>
     <use xlink:href="#mdc0741d33a" x="212.124875" y="165.180938" style="fill: #ff0000; stroke: #ff0000; stroke-width: 1.5"/>
     <use xlink:href="#mdc0741d33a" x="212.124875" y="140.670509" style="fill: #ff0000; stroke: #ff0000; stroke-width: 1.5"/>
     <use xlink:href="#mdc0741d33a" x="168.989029" y="116.16008" style="fill: #ff0000; stroke: #ff0000; stroke-width: 1.5"/>
     <use xlink:href="#mdc0741d33a" x="168.989029" y="91.649651" style="fill: #ff0000; stroke: #ff0000; stroke-width: 1.5"/>
     <use xlink:href="#mdc0741d33a" x="125.853182" y="67.139223" style="fill: #ff0000; stroke: #ff0000; stroke-width: 1.5"/>
     <use xlink:href="#mdc0741d33a" x="125.853182" y="42.628794" style="fill: #ff0000; stroke: #ff0000; stroke-width: 1.5"/>
     <use xlink:href="#mdc0741d33a" x="82.717336" y="18.118365" style="fill: #ff0000; stroke: #ff0000; stroke-width: 1.5"/>
    </g>
   </g>
   <g id="matplotlib.axis_1">
    <g id="xtick_1">
     <g id="line2d_1">
      <defs>
       <path id="m38f3b05bbe" d="M 0 0 
L 0 3.5 
" style="stroke: #000000; stroke-width: 0.8"/>
      </defs>
      <g>
       <use xlink:href="#m38f3b05bbe" x="125.853182" y="312.24351" style="stroke: #000000; stroke-width: 0.8"/>
      </g>
     </g>
     <g id="text_1">
      <!-- $\mathdefault{10^{-2}}$ -->
      <g transform="translate(114.103182 326.841947) scale(0.1 -0.1)">
       <defs>
        <path id="DejaVuSans-31" d="M 794 531 
L 1825 531 
L 1825 4091 
L 703 3866 
L 703 4441 
L 1819 4666 
L 2450 4666 
L 2450 531 
L 3481 531 
L 3481 0 
L 794 0 
L 794 531 
z
" transform="scale(0.015625)"/>
        <path id="DejaVuSans-30" d="M 2034 4250 
Q 1547 4250 1301 3770 
Q 1056 3291 1056 2328 
Q 1056 1369 1301 889 
Q 1547 409 2034 409 
Q 2525 409 2770 889 
Q 3016 1369 3016 2328 
Q 3016 3291 2770 3770 
Q 2525 4250 2034 4250 
z
M 2034 4750 
Q 2819 4750 3233 4129 
Q 3647 3509 3647 2328 
Q 3647 1150 3233 529 
Q 2819 -91 2034 -91 
Q 1250 -91 836 529 
Q 422 1150 422 2328 
Q 422 3509 836 4129 
Q 1250 4750 2034 4750 
z
" transform="scale(0.015625)"/>
        <path id="DejaVuSans-2212" d="M 678 2272 
L 4684 2272 
L 4684 1741 
L 678 1741 
L 678 2272 
z
" transform="scale(0.015625)"/>
        <path id="DejaVuSans-32" d="M 1228 531 
L 3431 531 
L 3431 0 
L 469 0 
L 469 531 
Q 828 903 1448 1529 
Q 2069 2156 2228 2338 
Q 2531 2678 2651 2914 
Q 2772 3150 2772 3378 
Q 2772 3750 2511 3984 
Q 2250 4219 1831 4219 
Q 1534 4219 1204 4116 
Q 875 4013 500 3803 
L 500 4441 
Q 881 4594 1212 4672 
Q 1544 4750 1819 4750 
Q 2544 4750 2975 4387 
Q 3406 4025 3406 3419 
Q 3406 3131 3298 2873 
Q 3191 2616 2906 2266 
Q 2828 2175 2409 1742 
Q 1991 1309 1228 531 
z
" transform="scale(0.015625)"/>
       </defs>
       <use xlink:href="#DejaVuSans-31" transform="translate(0 0.765625)"/>
       <use xlink:href="#DejaVuSans-30" transform="translate(63.623047 0.765625)"/>
       <use xlink:href="#DejaVuSans-2212" transform="translate(128.203125 39.046875) scale(0.7)"/>
       <use xlink:href="#DejaVuSans-32" transform="translate(186.855469 39.046875) scale(0.7)"/>
      </g>
     </g>
    </g>
    <g id="xtick_2">
     <g id="line2d_2">
      <g>
       <use xlink:href="#m38f3b05bbe" x="298.396567" y="312.24351" style="stroke: #000000; stroke-width: 0.8"/>
      </g>
     </g>
     <g id="text_2">
      <!-- $\mathdefault{10^{-1}}$ -->
      <g transform="translate(286.646567 326.841947) scale(0.1 -0.1)">
       <use xlink:href="#DejaVuSans-31" transform="translate(0 0.684375)"/>
       <use xlink:href="#DejaVuSans-30" transform="translate(63.623047 0.684375)"/>
       <use xlink:href="#DejaVuSans-2212" transform="translate(128.203125 38.965625) scale(0.7)"/>
       <use xlink:href="#DejaVuSans-31" transform="translate(186.855469 38.965625) scale(0.7)"/>
      </g>
     </g>
    </g>
    <g id="xtick_3">
     <g id="line2d_3">
      <defs>
       <path id="m360e1f0208" d="M 0 0 
L 0 2 
" style="stroke: #000000; stroke-width: 0.6"/>
      </defs>
      <g>
       <use xlink:href="#m360e1f0208" x="57.191266" y="312.24351" style="stroke: #000000; stroke-width: 0.6"/>
      </g>
     </g>
    </g>
    <g id="xtick_4">
     <g id="line2d_4">
      <g>
       <use xlink:href="#m360e1f0208" x="73.912448" y="312.24351" style="stroke: #000000; stroke-width: 0.6"/>
      </g>
     </g>
    </g>
    <g id="xtick_5">
     <g id="line2d_5">
      <g>
       <use xlink:href="#m360e1f0208" x="87.574648" y="312.24351" style="stroke: #000000; stroke-width: 0.6"/>
      </g>
     </g>
    </g>
    <g id="xtick_6">
     <g id="line2d_6">
      <g>
       <use xlink:href="#m360e1f0208" x="99.125874" y="312.24351" style="stroke: #000000; stroke-width: 0.6"/>
      </g>
     </g>
    </g>
    <g id="xtick_7">
     <g id="line2d_7">
      <g>
       <use xlink:href="#m360e1f0208" x="109.132001" y="312.24351" style="stroke: #000000; stroke-width: 0.6"/>
      </g>
     </g>
    </g>
    <g id="xtick_8">
     <g id="line2d_8">
      <g>
       <use xlink:href="#m360e1f0208" x="117.95803" y="312.24351" style="stroke: #000000; stroke-width: 0.6"/>
      </g>
     </g>
    </g>
    <g id="xtick_9">
     <g id="line2d_9">
      <g>
       <use xlink:href="#m360e1f0208" x="177.793917" y="312.24351" style="stroke: #000000; stroke-width: 0.6"/>
      </g>
     </g>
    </g>
    <g id="xtick_10">
     <g id="line2d_10">
      <g>
       <use xlink:href="#m360e1f0208" x="208.177299" y="312.24351" style="stroke: #000000; stroke-width: 0.6"/>
      </g>
     </g>
    </g>
    <g id="xtick_11">
     <g id="line2d_11">
      <g>
       <use xlink:href="#m360e1f0208" x="229.734651" y="312.24351" style="stroke: #000000; stroke-width: 0.6"/>
      </g>
     </g>
    </g>
    <g id="xtick_12">
     <g id="line2d_12">
      <g>
       <use xlink:href="#m360e1f0208" x="246.455833" y="312.24351" style="stroke: #000000; stroke-width: 0.6"/>
      </g>
     </g>
    </g>
    <g id="xtick_13">
     <g id="line2d_13">
      <g>
       <use xlink:href="#m360e1f0208" x="260.118033" y="312.24351" style="stroke: #000000; stroke-width: 0.6"/>
      </g>
     </g>
    </g>
    <g id="xtick_14">
     <g id="line2d_14">
      <g>
       <use xlink:href="#m360e1f0208" x="271.669259" y="312.24351" style="stroke: #000000; stroke-width: 0.6"/>
      </g>
     </g>
    </g>
    <g id="xtick_15">
     <g id="line2d_15">
      <g>
       <use xlink:href="#m360e1f0208" x="281.675386" y="312.24351" style="stroke: #000000; stroke-width: 0.6"/>
      </g>
     </g>
    </g>
    <g id="xtick_16">
     <g id="line2d_16">
      <g>
       <use xlink:href="#m360e1f0208" x="290.501415" y="312.24351" style="stroke: #000000; stroke-width: 0.6"/>
      </g>
     </g>
    </g>
    <g id="xtick_17">
     <g id="line2d_17">
      <g>
       <use xlink:href="#m360e1f0208" x="350.337302" y="312.24351" style="stroke: #000000; stroke-width: 0.6"/>
      </g>
     </g>
    </g>
    <g id="xtick_18">
     <g id="line2d_18">
      <g>
       <use xlink:href="#m360e1f0208" x="380.720684" y="312.24351" style="stroke: #000000; stroke-width: 0.6"/>
      </g>
     </g>
    </g>
    <g id="text_3">
     <!-- bandwidth -->
     <g transform="translate(185.762375 340.520072) scale(0.1 -0.1)">
      <defs>
       <path id="DejaVuSans-62" d="M 3116 1747 
Q 3116 2381 2855 2742 
Q 2594 3103 2138 3103 
Q 1681 3103 1420 2742 
Q 1159 2381 1159 1747 
Q 1159 1113 1420 752 
Q 1681 391 2138 391 
Q 2594 391 2855 752 
Q 3116 1113 3116 1747 
z
M 1159 2969 
Q 1341 3281 1617 3432 
Q 1894 3584 2278 3584 
Q 2916 3584 3314 3078 
Q 3713 2572 3713 1747 
Q 3713 922 3314 415 
Q 2916 -91 2278 -91 
Q 1894 -91 1617 61 
Q 1341 213 1159 525 
L 1159 0 
L 581 0 
L 581 4863 
L 1159 4863 
L 1159 2969 
z
" transform="scale(0.015625)"/>
       <path id="DejaVuSans-61" d="M 2194 1759 
Q 1497 1759 1228 1600 
Q 959 1441 959 1056 
Q 959 750 1161 570 
Q 1363 391 1709 391 
Q 2188 391 2477 730 
Q 2766 1069 2766 1631 
L 2766 1759 
L 2194 1759 
z
M 3341 1997 
L 3341 0 
L 2766 0 
L 2766 531 
Q 2569 213 2275 61 
Q 1981 -91 1556 -91 
Q 1019 -91 701 211 
Q 384 513 384 1019 
Q 384 1609 779 1909 
Q 1175 2209 1959 2209 
L 2766 2209 
L 2766 2266 
Q 2766 2663 2505 2880 
Q 2244 3097 1772 3097 
Q 1472 3097 1187 3025 
Q 903 2953 641 2809 
L 641 3341 
Q 956 3463 1253 3523 
Q 1550 3584 1831 3584 
Q 2591 3584 2966 3190 
Q 3341 2797 3341 1997 
z
" transform="scale(0.015625)"/>
       <path id="DejaVuSans-6e" d="M 3513 2113 
L 3513 0 
L 2938 0 
L 2938 2094 
Q 2938 2591 2744 2837 
Q 2550 3084 2163 3084 
Q 1697 3084 1428 2787 
Q 1159 2491 1159 1978 
L 1159 0 
L 581 0 
L 581 3500 
L 1159 3500 
L 1159 2956 
Q 1366 3272 1645 3428 
Q 1925 3584 2291 3584 
Q 2894 3584 3203 3211 
Q 3513 2838 3513 2113 
z
" transform="scale(0.015625)"/>
       <path id="DejaVuSans-64" d="M 2906 2969 
L 2906 4863 
L 3481 4863 
L 3481 0 
L 2906 0 
L 2906 525 
Q 2725 213 2448 61 
Q 2172 -91 1784 -91 
Q 1150 -91 751 415 
Q 353 922 353 1747 
Q 353 2572 751 3078 
Q 1150 3584 1784 3584 
Q 2172 3584 2448 3432 
Q 2725 3281 2906 2969 
z
M 947 1747 
Q 947 1113 1208 752 
Q 1469 391 1925 391 
Q 2381 391 2643 752 
Q 2906 1113 2906 1747 
Q 2906 2381 2643 2742 
Q 2381 3103 1925 3103 
Q 1469 3103 1208 2742 
Q 947 2381 947 1747 
z
" transform="scale(0.015625)"/>
       <path id="DejaVuSans-77" d="M 269 3500 
L 844 3500 
L 1563 769 
L 2278 3500 
L 2956 3500 
L 3675 769 
L 4391 3500 
L 4966 3500 
L 4050 0 
L 3372 0 
L 2619 2869 
L 1863 0 
L 1184 0 
L 269 3500 
z
" transform="scale(0.015625)"/>
       <path id="DejaVuSans-69" d="M 603 3500 
L 1178 3500 
L 1178 0 
L 603 0 
L 603 3500 
z
M 603 4863 
L 1178 4863 
L 1178 4134 
L 603 4134 
L 603 4863 
z
" transform="scale(0.015625)"/>
       <path id="DejaVuSans-74" d="M 1172 4494 
L 1172 3500 
L 2356 3500 
L 2356 3053 
L 1172 3053 
L 1172 1153 
Q 1172 725 1289 603 
Q 1406 481 1766 481 
L 2356 481 
L 2356 0 
L 1766 0 
Q 1100 0 847 248 
Q 594 497 594 1153 
L 594 3053 
L 172 3053 
L 172 3500 
L 594 3500 
L 594 4494 
L 1172 4494 
z
" transform="scale(0.015625)"/>
       <path id="DejaVuSans-68" d="M 3513 2113 
L 3513 0 
L 2938 0 
L 2938 2094 
Q 2938 2591 2744 2837 
Q 2550 3084 2163 3084 
Q 1697 3084 1428 2787 
Q 1159 2491 1159 1978 
L 1159 0 
L 581 0 
L 581 4863 
L 1159 4863 
L 1159 2956 
Q 1366 3272 1645 3428 
Q 1925 3584 2291 3584 
Q 2894 3584 3203 3211 
Q 3513 2838 3513 2113 
z
" transform="scale(0.015625)"/>
      </defs>
      <use xlink:href="#DejaVuSans-62"/>
      <use xlink:href="#DejaVuSans-61" transform="translate(63.476562 0)"/>
      <use xlink:href="#DejaVuSans-6e" transform="translate(124.755859 0)"/>
      <use xlink:href="#DejaVuSans-64" transform="translate(188.134766 0)"/>
      <use xlink:href="#DejaVuSans-77" transform="translate(251.611328 0)"/>
      <use xlink:href="#DejaVuSans-69" transform="translate(333.398438 0)"/>
      <use xlink:href="#DejaVuSans-64" transform="translate(361.181641 0)"/>
      <use xlink:href="#DejaVuSans-74" transform="translate(424.658203 0)"/>
      <use xlink:href="#DejaVuSans-68" transform="translate(463.867188 0)"/>
     </g>
    </g>
   </g>
   <g id="matplotlib.axis_2">
    <g id="ytick_1">
     <g id="line2d_19">
      <defs>
       <path id="mbd2f377c6c" d="M 0 0 
L -3.5 0 
" style="stroke: #000000; stroke-width: 0.8"/>
      </defs>
      <g>
       <use xlink:href="#mbd2f377c6c" x="39.58149" y="312.24351" style="stroke: #000000; stroke-width: 0.8"/>
      </g>
     </g>
     <g id="text_4">
      <!-- 1.0 -->
      <g transform="translate(16.678365 316.042729) scale(0.1 -0.1)">
       <defs>
        <path id="DejaVuSans-2e" d="M 684 794 
L 1344 794 
L 1344 0 
L 684 0 
L 684 794 
z
" transform="scale(0.015625)"/>
       </defs>
       <use xlink:href="#DejaVuSans-31"/>
       <use xlink:href="#DejaVuSans-2e" transform="translate(63.623047 0)"/>
       <use xlink:href="#DejaVuSans-30" transform="translate(95.410156 0)"/>
      </g>
     </g>
    </g>
    <g id="ytick_2">
     <g id="line2d_20">
      <g>
       <use xlink:href="#mbd2f377c6c" x="39.58149" y="263.222652" style="stroke: #000000; stroke-width: 0.8"/>
      </g>
     </g>
     <g id="text_5">
      <!-- 1.5 -->
      <g transform="translate(16.678365 267.021871) scale(0.1 -0.1)">
       <defs>
        <path id="DejaVuSans-35" d="M 691 4666 
L 3169 4666 
L 3169 4134 
L 1269 4134 
L 1269 2991 
Q 1406 3038 1543 3061 
Q 1681 3084 1819 3084 
Q 2600 3084 3056 2656 
Q 3513 2228 3513 1497 
Q 3513 744 3044 326 
Q 2575 -91 1722 -91 
Q 1428 -91 1123 -41 
Q 819 9 494 109 
L 494 744 
Q 775 591 1075 516 
Q 1375 441 1709 441 
Q 2250 441 2565 725 
Q 2881 1009 2881 1497 
Q 2881 1984 2565 2268 
Q 2250 2553 1709 2553 
Q 1456 2553 1204 2497 
Q 953 2441 691 2322 
L 691 4666 
z
" transform="scale(0.015625)"/>
       </defs>
       <use xlink:href="#DejaVuSans-31"/>
       <use xlink:href="#DejaVuSans-2e" transform="translate(63.623047 0)"/>
       <use xlink:href="#DejaVuSans-35" transform="translate(95.410156 0)"/>
      </g>
     </g>
    </g>
    <g id="ytick_3">
     <g id="line2d_21">
      <g>
       <use xlink:href="#mbd2f377c6c" x="39.58149" y="214.201795" style="stroke: #000000; stroke-width: 0.8"/>
      </g>
     </g>
     <g id="text_6">
      <!-- 2.0 -->
      <g transform="translate(16.678365 218.001014) scale(0.1 -0.1)">
       <use xlink:href="#DejaVuSans-32"/>
       <use xlink:href="#DejaVuSans-2e" transform="translate(63.623047 0)"/>
       <use xlink:href="#DejaVuSans-30" transform="translate(95.410156 0)"/>
      </g>
     </g>
    </g>
    <g id="ytick_4">
     <g id="line2d_22">
      <g>
       <use xlink:href="#mbd2f377c6c" x="39.58149" y="165.180938" style="stroke: #000000; stroke-width: 0.8"/>
      </g>
     </g>
     <g id="text_7">
      <!-- 2.5 -->
      <g transform="translate(16.678365 168.980156) scale(0.1 -0.1)">
       <use xlink:href="#DejaVuSans-32"/>
       <use xlink:href="#DejaVuSans-2e" transform="translate(63.623047 0)"/>
       <use xlink:href="#DejaVuSans-35" transform="translate(95.410156 0)"/>
      </g>
     </g>
    </g>
    <g id="ytick_5">
     <g id="line2d_23">
      <g>
       <use xlink:href="#mbd2f377c6c" x="39.58149" y="116.16008" style="stroke: #000000; stroke-width: 0.8"/>
      </g>
     </g>
     <g id="text_8">
      <!-- 3.0 -->
      <g transform="translate(16.678365 119.959299) scale(0.1 -0.1)">
       <defs>
        <path id="DejaVuSans-33" d="M 2597 2516 
Q 3050 2419 3304 2112 
Q 3559 1806 3559 1356 
Q 3559 666 3084 287 
Q 2609 -91 1734 -91 
Q 1441 -91 1130 -33 
Q 819 25 488 141 
L 488 750 
Q 750 597 1062 519 
Q 1375 441 1716 441 
Q 2309 441 2620 675 
Q 2931 909 2931 1356 
Q 2931 1769 2642 2001 
Q 2353 2234 1838 2234 
L 1294 2234 
L 1294 2753 
L 1863 2753 
Q 2328 2753 2575 2939 
Q 2822 3125 2822 3475 
Q 2822 3834 2567 4026 
Q 2313 4219 1838 4219 
Q 1578 4219 1281 4162 
Q 984 4106 628 3988 
L 628 4550 
Q 988 4650 1302 4700 
Q 1616 4750 1894 4750 
Q 2613 4750 3031 4423 
Q 3450 4097 3450 3541 
Q 3450 3153 3228 2886 
Q 3006 2619 2597 2516 
z
" transform="scale(0.015625)"/>
       </defs>
       <use xlink:href="#DejaVuSans-33"/>
       <use xlink:href="#DejaVuSans-2e" transform="translate(63.623047 0)"/>
       <use xlink:href="#DejaVuSans-30" transform="translate(95.410156 0)"/>
      </g>
     </g>
    </g>
    <g id="ytick_6">
     <g id="line2d_24">
      <g>
       <use xlink:href="#mbd2f377c6c" x="39.58149" y="67.139223" style="stroke: #000000; stroke-width: 0.8"/>
      </g>
     </g>
     <g id="text_9">
      <!-- 3.5 -->
      <g transform="translate(16.678365 70.938441) scale(0.1 -0.1)">
       <use xlink:href="#DejaVuSans-33"/>
       <use xlink:href="#DejaVuSans-2e" transform="translate(63.623047 0)"/>
       <use xlink:href="#DejaVuSans-35" transform="translate(95.410156 0)"/>
      </g>
     </g>
    </g>
    <g id="ytick_7">
     <g id="line2d_25">
      <g>
       <use xlink:href="#mbd2f377c6c" x="39.58149" y="18.118365" style="stroke: #000000; stroke-width: 0.8"/>
      </g>
     </g>
     <g id="text_10">
      <!-- 4.0 -->
      <g transform="translate(16.678365 21.917584) scale(0.1 -0.1)">
       <defs>
        <path id="DejaVuSans-34" d="M 2419 4116 
L 825 1625 
L 2419 1625 
L 2419 4116 
z
M 2253 4666 
L 3047 4666 
L 3047 1625 
L 3713 1625 
L 3713 1100 
L 3047 1100 
L 3047 0 
L 2419 0 
L 2419 1100 
L 313 1100 
L 313 1709 
L 2253 4666 
z
" transform="scale(0.015625)"/>
       </defs>
       <use xlink:href="#DejaVuSans-34"/>
       <use xlink:href="#DejaVuSans-2e" transform="translate(63.623047 0)"/>
       <use xlink:href="#DejaVuSans-30" transform="translate(95.410156 0)"/>
      </g>
     </g>
    </g>
    <g id="text_11">
     <!-- alpha -->
     <g transform="translate(10.598677 179.041094) rotate(-90) scale(0.1 -0.1)">
      <defs>
       <path id="DejaVuSans-6c" d="M 603 4863 
L 1178 4863 
L 1178 0 
L 603 0 
L 603 4863 
z
" transform="scale(0.015625)"/>
       <path id="DejaVuSans-70" d="M 1159 525 
L 1159 -1331 
L 581 -1331 
L 581 3500 
L 1159 3500 
L 1159 2969 
Q 1341 3281 1617 3432 
Q 1894 3584 2278 3584 
Q 2916 3584 3314 3078 
Q 3713 2572 3713 1747 
Q 3713 922 3314 415 
Q 2916 -91 2278 -91 
Q 1894 -91 1617 61 
Q 1341 213 1159 525 
z
M 3116 1747 
Q 3116 2381 2855 2742 
Q 2594 3103 2138 3103 
Q 1681 3103 1420 2742 
Q 1159 2381 1159 1747 
Q 1159 1113 1420 752 
Q 1681 391 2138 391 
Q 2594 391 2855 752 
Q 3116 1113 3116 1747 
z
" transform="scale(0.015625)"/>
      </defs>
      <use xlink:href="#DejaVuSans-61"/>
      <use xlink:href="#DejaVuSans-6c" transform="translate(61.279297 0)"/>
      <use xlink:href="#DejaVuSans-70" transform="translate(89.0625 0)"/>
      <use xlink:href="#DejaVuSans-68" transform="translate(152.539062 0)"/>
      <use xlink:href="#DejaVuSans-61" transform="translate(215.917969 0)"/>
     </g>
    </g>
   </g>
   <g id="patch_3">
    <path d="M 39.58149 312.24351 
L 39.58149 18.118365 
" style="fill: none; stroke: #000000; stroke-width: 0.8; stroke-linejoin: miter; stroke-linecap: square"/>
   </g>
   <g id="patch_4">
    <path d="M 384.66826 312.24351 
L 384.66826 18.118365 
" style="fill: none; stroke: #000000; stroke-width: 0.8; stroke-linejoin: miter; stroke-linecap: square"/>
   </g>
   <g id="patch_5">
    <path d="M 39.58149 312.24351 
L 384.66826 312.24351 
" style="fill: none; stroke: #000000; stroke-width: 0.8; stroke-linejoin: miter; stroke-linecap: square"/>
   </g>
   <g id="patch_6">
    <path d="M 39.58149 18.118365 
L 384.66826 18.118365 
" style="fill: none; stroke: #000000; stroke-width: 0.8; stroke-linejoin: miter; stroke-linecap: square"/>
   </g>
   <g id="text_12">
    <!-- lunas_lo 7354 fkdc -->
    <g transform="translate(155.933937 12.118365) scale(0.12 -0.12)">
     <defs>
      <path id="DejaVuSans-75" d="M 544 1381 
L 544 3500 
L 1119 3500 
L 1119 1403 
Q 1119 906 1312 657 
Q 1506 409 1894 409 
Q 2359 409 2629 706 
Q 2900 1003 2900 1516 
L 2900 3500 
L 3475 3500 
L 3475 0 
L 2900 0 
L 2900 538 
Q 2691 219 2414 64 
Q 2138 -91 1772 -91 
Q 1169 -91 856 284 
Q 544 659 544 1381 
z
M 1991 3584 
L 1991 3584 
z
" transform="scale(0.015625)"/>
      <path id="DejaVuSans-73" d="M 2834 3397 
L 2834 2853 
Q 2591 2978 2328 3040 
Q 2066 3103 1784 3103 
Q 1356 3103 1142 2972 
Q 928 2841 928 2578 
Q 928 2378 1081 2264 
Q 1234 2150 1697 2047 
L 1894 2003 
Q 2506 1872 2764 1633 
Q 3022 1394 3022 966 
Q 3022 478 2636 193 
Q 2250 -91 1575 -91 
Q 1294 -91 989 -36 
Q 684 19 347 128 
L 347 722 
Q 666 556 975 473 
Q 1284 391 1588 391 
Q 1994 391 2212 530 
Q 2431 669 2431 922 
Q 2431 1156 2273 1281 
Q 2116 1406 1581 1522 
L 1381 1569 
Q 847 1681 609 1914 
Q 372 2147 372 2553 
Q 372 3047 722 3315 
Q 1072 3584 1716 3584 
Q 2034 3584 2315 3537 
Q 2597 3491 2834 3397 
z
" transform="scale(0.015625)"/>
      <path id="DejaVuSans-5f" d="M 3263 -1063 
L 3263 -1509 
L -63 -1509 
L -63 -1063 
L 3263 -1063 
z
" transform="scale(0.015625)"/>
      <path id="DejaVuSans-6f" d="M 1959 3097 
Q 1497 3097 1228 2736 
Q 959 2375 959 1747 
Q 959 1119 1226 758 
Q 1494 397 1959 397 
Q 2419 397 2687 759 
Q 2956 1122 2956 1747 
Q 2956 2369 2687 2733 
Q 2419 3097 1959 3097 
z
M 1959 3584 
Q 2709 3584 3137 3096 
Q 3566 2609 3566 1747 
Q 3566 888 3137 398 
Q 2709 -91 1959 -91 
Q 1206 -91 779 398 
Q 353 888 353 1747 
Q 353 2609 779 3096 
Q 1206 3584 1959 3584 
z
" transform="scale(0.015625)"/>
      <path id="DejaVuSans-20" transform="scale(0.015625)"/>
      <path id="DejaVuSans-37" d="M 525 4666 
L 3525 4666 
L 3525 4397 
L 1831 0 
L 1172 0 
L 2766 4134 
L 525 4134 
L 525 4666 
z
" transform="scale(0.015625)"/>
      <path id="DejaVuSans-66" d="M 2375 4863 
L 2375 4384 
L 1825 4384 
Q 1516 4384 1395 4259 
Q 1275 4134 1275 3809 
L 1275 3500 
L 2222 3500 
L 2222 3053 
L 1275 3053 
L 1275 0 
L 697 0 
L 697 3053 
L 147 3053 
L 147 3500 
L 697 3500 
L 697 3744 
Q 697 4328 969 4595 
Q 1241 4863 1831 4863 
L 2375 4863 
z
" transform="scale(0.015625)"/>
      <path id="DejaVuSans-6b" d="M 581 4863 
L 1159 4863 
L 1159 1991 
L 2875 3500 
L 3609 3500 
L 1753 1863 
L 3688 0 
L 2938 0 
L 1159 1709 
L 1159 0 
L 581 0 
L 581 4863 
z
" transform="scale(0.015625)"/>
      <path id="DejaVuSans-63" d="M 3122 3366 
L 3122 2828 
Q 2878 2963 2633 3030 
Q 2388 3097 2138 3097 
Q 1578 3097 1268 2742 
Q 959 2388 959 1747 
Q 959 1106 1268 751 
Q 1578 397 2138 397 
Q 2388 397 2633 464 
Q 2878 531 3122 666 
L 3122 134 
Q 2881 22 2623 -34 
Q 2366 -91 2075 -91 
Q 1284 -91 818 406 
Q 353 903 353 1747 
Q 353 2603 823 3093 
Q 1294 3584 2113 3584 
Q 2378 3584 2631 3529 
Q 2884 3475 3122 3366 
z
" transform="scale(0.015625)"/>
     </defs>
     <use xlink:href="#DejaVuSans-6c"/>
     <use xlink:href="#DejaVuSans-75" transform="translate(27.783203 0)"/>
     <use xlink:href="#DejaVuSans-6e" transform="translate(91.162109 0)"/>
     <use xlink:href="#DejaVuSans-61" transform="translate(154.541016 0)"/>
     <use xlink:href="#DejaVuSans-73" transform="translate(215.820312 0)"/>
     <use xlink:href="#DejaVuSans-5f" transform="translate(267.919922 0)"/>
     <use xlink:href="#DejaVuSans-6c" transform="translate(317.919922 0)"/>
     <use xlink:href="#DejaVuSans-6f" transform="translate(345.703125 0)"/>
     <use xlink:href="#DejaVuSans-20" transform="translate(406.884766 0)"/>
     <use xlink:href="#DejaVuSans-37" transform="translate(438.671875 0)"/>
     <use xlink:href="#DejaVuSans-33" transform="translate(502.294922 0)"/>
     <use xlink:href="#DejaVuSans-35" transform="translate(565.917969 0)"/>
     <use xlink:href="#DejaVuSans-34" transform="translate(629.541016 0)"/>
     <use xlink:href="#DejaVuSans-20" transform="translate(693.164062 0)"/>
     <use xlink:href="#DejaVuSans-66" transform="translate(724.951172 0)"/>
     <use xlink:href="#DejaVuSans-6b" transform="translate(760.15625 0)"/>
     <use xlink:href="#DejaVuSans-64" transform="translate(818.066406 0)"/>
     <use xlink:href="#DejaVuSans-63" transform="translate(881.542969 0)"/>
    </g>
   </g>
  </g>
  <g id="axes_2">
   <g id="patch_7">
    <path d="M 401.922598 312.24351 
L 416.628856 312.24351 
L 416.628856 18.118365 
L 401.922598 18.118365 
z
" style="fill: #ffffff"/>
   </g>
   <g id="QuadMesh_1">
    <path d="M 401.922598 312.24351 
L 416.628856 312.24351 
L 416.628856 293.860688 
L 401.922598 293.860688 
L 401.922598 312.24351 
" clip-path="url(#pa38a546031)" style="fill: #470d60"/>
    <path d="M 401.922598 293.860688 
L 416.628856 293.860688 
L 416.628856 275.477867 
L 401.922598 275.477867 
L 401.922598 293.860688 
" clip-path="url(#pa38a546031)" style="fill: #482374"/>
    <path d="M 401.922598 275.477867 
L 416.628856 275.477867 
L 416.628856 257.095045 
L 401.922598 257.095045 
L 401.922598 275.477867 
" clip-path="url(#pa38a546031)" style="fill: #453781"/>
    <path d="M 401.922598 257.095045 
L 416.628856 257.095045 
L 416.628856 238.712224 
L 401.922598 238.712224 
L 401.922598 257.095045 
" clip-path="url(#pa38a546031)" style="fill: #3e4989"/>
    <path d="M 401.922598 238.712224 
L 416.628856 238.712224 
L 416.628856 220.329402 
L 401.922598 220.329402 
L 401.922598 238.712224 
" clip-path="url(#pa38a546031)" style="fill: #375b8d"/>
    <path d="M 401.922598 220.329402 
L 416.628856 220.329402 
L 416.628856 201.946581 
L 401.922598 201.946581 
L 401.922598 220.329402 
" clip-path="url(#pa38a546031)" style="fill: #2f6b8e"/>
    <path d="M 401.922598 201.946581 
L 416.628856 201.946581 
L 416.628856 183.563759 
L 401.922598 183.563759 
L 401.922598 201.946581 
" clip-path="url(#pa38a546031)" style="fill: #297a8e"/>
    <path d="M 401.922598 183.563759 
L 416.628856 183.563759 
L 416.628856 165.180937 
L 401.922598 165.180937 
L 401.922598 183.563759 
" clip-path="url(#pa38a546031)" style="fill: #23898e"/>
    <path d="M 401.922598 165.180937 
L 416.628856 165.180937 
L 416.628856 146.798116 
L 401.922598 146.798116 
L 401.922598 165.180937 
" clip-path="url(#pa38a546031)" style="fill: #1f988b"/>
    <path d="M 401.922598 146.798116 
L 416.628856 146.798116 
L 416.628856 128.415294 
L 401.922598 128.415294 
L 401.922598 146.798116 
" clip-path="url(#pa38a546031)" style="fill: #22a785"/>
    <path d="M 401.922598 128.415294 
L 416.628856 128.415294 
L 416.628856 110.032473 
L 401.922598 110.032473 
L 401.922598 128.415294 
" clip-path="url(#pa38a546031)" style="fill: #32b67a"/>
    <path d="M 401.922598 110.032473 
L 416.628856 110.032473 
L 416.628856 91.649651 
L 401.922598 91.649651 
L 401.922598 110.032473 
" clip-path="url(#pa38a546031)" style="fill: #4ec36b"/>
    <path d="M 401.922598 91.649651 
L 416.628856 91.649651 
L 416.628856 73.26683 
L 401.922598 73.26683 
L 401.922598 91.649651 
" clip-path="url(#pa38a546031)" style="fill: #70cf57"/>
    <path d="M 401.922598 73.26683 
L 416.628856 73.26683 
L 416.628856 54.884008 
L 401.922598 54.884008 
L 401.922598 73.26683 
" clip-path="url(#pa38a546031)" style="fill: #98d83e"/>
    <path d="M 401.922598 54.884008 
L 416.628856 54.884008 
L 416.628856 36.501187 
L 401.922598 36.501187 
L 401.922598 54.884008 
" clip-path="url(#pa38a546031)" style="fill: #c2df23"/>
    <path d="M 401.922598 36.501187 
L 416.628856 36.501187 
L 416.628856 18.118365 
L 401.922598 18.118365 
L 401.922598 36.501187 
" clip-path="url(#pa38a546031)" style="fill: #ece51b"/>
   </g>
   <g id="matplotlib.axis_3"/>
   <g id="matplotlib.axis_4">
    <g id="ytick_8">
     <g id="line2d_26">
      <defs>
       <path id="m0a27ea52cb" d="M 0 0 
L 3.5 0 
" style="stroke: #000000; stroke-width: 0.8"/>
      </defs>
      <g>
       <use xlink:href="#m0a27ea52cb" x="416.628856" y="312.24351" style="stroke: #000000; stroke-width: 0.8"/>
      </g>
     </g>
     <g id="text_13">
      <!-- -4.0 -->
      <g transform="translate(423.628856 316.042729) scale(0.1 -0.1)">
       <defs>
        <path id="DejaVuSans-2d" d="M 313 2009 
L 1997 2009 
L 1997 1497 
L 313 1497 
L 313 2009 
z
" transform="scale(0.015625)"/>
       </defs>
       <use xlink:href="#DejaVuSans-2d"/>
       <use xlink:href="#DejaVuSans-34" transform="translate(36.083984 0)"/>
       <use xlink:href="#DejaVuSans-2e" transform="translate(99.707031 0)"/>
       <use xlink:href="#DejaVuSans-30" transform="translate(131.494141 0)"/>
      </g>
     </g>
    </g>
    <g id="ytick_9">
     <g id="line2d_27">
      <g>
       <use xlink:href="#m0a27ea52cb" x="416.628856" y="275.477867" style="stroke: #000000; stroke-width: 0.8"/>
      </g>
     </g>
     <g id="text_14">
      <!-- -3.5 -->
      <g transform="translate(423.628856 279.277086) scale(0.1 -0.1)">
       <use xlink:href="#DejaVuSans-2d"/>
       <use xlink:href="#DejaVuSans-33" transform="translate(36.083984 0)"/>
       <use xlink:href="#DejaVuSans-2e" transform="translate(99.707031 0)"/>
       <use xlink:href="#DejaVuSans-35" transform="translate(131.494141 0)"/>
      </g>
     </g>
    </g>
    <g id="ytick_10">
     <g id="line2d_28">
      <g>
       <use xlink:href="#m0a27ea52cb" x="416.628856" y="238.712224" style="stroke: #000000; stroke-width: 0.8"/>
      </g>
     </g>
     <g id="text_15">
      <!-- -3.0 -->
      <g transform="translate(423.628856 242.511442) scale(0.1 -0.1)">
       <use xlink:href="#DejaVuSans-2d"/>
       <use xlink:href="#DejaVuSans-33" transform="translate(36.083984 0)"/>
       <use xlink:href="#DejaVuSans-2e" transform="translate(99.707031 0)"/>
       <use xlink:href="#DejaVuSans-30" transform="translate(131.494141 0)"/>
      </g>
     </g>
    </g>
    <g id="ytick_11">
     <g id="line2d_29">
      <g>
       <use xlink:href="#m0a27ea52cb" x="416.628856" y="201.946581" style="stroke: #000000; stroke-width: 0.8"/>
      </g>
     </g>
     <g id="text_16">
      <!-- -2.5 -->
      <g transform="translate(423.628856 205.745799) scale(0.1 -0.1)">
       <use xlink:href="#DejaVuSans-2d"/>
       <use xlink:href="#DejaVuSans-32" transform="translate(36.083984 0)"/>
       <use xlink:href="#DejaVuSans-2e" transform="translate(99.707031 0)"/>
       <use xlink:href="#DejaVuSans-35" transform="translate(131.494141 0)"/>
      </g>
     </g>
    </g>
    <g id="ytick_12">
     <g id="line2d_30">
      <g>
       <use xlink:href="#m0a27ea52cb" x="416.628856" y="165.180937" style="stroke: #000000; stroke-width: 0.8"/>
      </g>
     </g>
     <g id="text_17">
      <!-- -2.0 -->
      <g transform="translate(423.628856 168.980156) scale(0.1 -0.1)">
       <use xlink:href="#DejaVuSans-2d"/>
       <use xlink:href="#DejaVuSans-32" transform="translate(36.083984 0)"/>
       <use xlink:href="#DejaVuSans-2e" transform="translate(99.707031 0)"/>
       <use xlink:href="#DejaVuSans-30" transform="translate(131.494141 0)"/>
      </g>
     </g>
    </g>
    <g id="ytick_13">
     <g id="line2d_31">
      <g>
       <use xlink:href="#m0a27ea52cb" x="416.628856" y="128.415294" style="stroke: #000000; stroke-width: 0.8"/>
      </g>
     </g>
     <g id="text_18">
      <!-- -1.5 -->
      <g transform="translate(423.628856 132.214513) scale(0.1 -0.1)">
       <use xlink:href="#DejaVuSans-2d"/>
       <use xlink:href="#DejaVuSans-31" transform="translate(36.083984 0)"/>
       <use xlink:href="#DejaVuSans-2e" transform="translate(99.707031 0)"/>
       <use xlink:href="#DejaVuSans-35" transform="translate(131.494141 0)"/>
      </g>
     </g>
    </g>
    <g id="ytick_14">
     <g id="line2d_32">
      <g>
       <use xlink:href="#m0a27ea52cb" x="416.628856" y="91.649651" style="stroke: #000000; stroke-width: 0.8"/>
      </g>
     </g>
     <g id="text_19">
      <!-- -1.0 -->
      <g transform="translate(423.628856 95.44887) scale(0.1 -0.1)">
       <use xlink:href="#DejaVuSans-2d"/>
       <use xlink:href="#DejaVuSans-31" transform="translate(36.083984 0)"/>
       <use xlink:href="#DejaVuSans-2e" transform="translate(99.707031 0)"/>
       <use xlink:href="#DejaVuSans-30" transform="translate(131.494141 0)"/>
      </g>
     </g>
    </g>
    <g id="ytick_15">
     <g id="line2d_33">
      <g>
       <use xlink:href="#m0a27ea52cb" x="416.628856" y="54.884008" style="stroke: #000000; stroke-width: 0.8"/>
      </g>
     </g>
     <g id="text_20">
      <!-- -0.5 -->
      <g transform="translate(423.628856 58.683227) scale(0.1 -0.1)">
       <use xlink:href="#DejaVuSans-2d"/>
       <use xlink:href="#DejaVuSans-30" transform="translate(36.083984 0)"/>
       <use xlink:href="#DejaVuSans-2e" transform="translate(99.707031 0)"/>
       <use xlink:href="#DejaVuSans-35" transform="translate(131.494141 0)"/>
      </g>
     </g>
    </g>
    <g id="ytick_16">
     <g id="line2d_34">
      <g>
       <use xlink:href="#m0a27ea52cb" x="416.628856" y="18.118365" style="stroke: #000000; stroke-width: 0.8"/>
      </g>
     </g>
     <g id="text_21">
      <!-- 0.0 -->
      <g transform="translate(423.628856 21.917584) scale(0.1 -0.1)">
       <use xlink:href="#DejaVuSans-30"/>
       <use xlink:href="#DejaVuSans-2e" transform="translate(63.623047 0)"/>
       <use xlink:href="#DejaVuSans-30" transform="translate(95.410156 0)"/>
      </g>
     </g>
    </g>
    <g id="text_22">
     <!-- Score -->
     <g transform="translate(454.738231 179.183281) rotate(-90) scale(0.1 -0.1)">
      <defs>
       <path id="DejaVuSans-53" d="M 3425 4513 
L 3425 3897 
Q 3066 4069 2747 4153 
Q 2428 4238 2131 4238 
Q 1616 4238 1336 4038 
Q 1056 3838 1056 3469 
Q 1056 3159 1242 3001 
Q 1428 2844 1947 2747 
L 2328 2669 
Q 3034 2534 3370 2195 
Q 3706 1856 3706 1288 
Q 3706 609 3251 259 
Q 2797 -91 1919 -91 
Q 1588 -91 1214 -16 
Q 841 59 441 206 
L 441 856 
Q 825 641 1194 531 
Q 1563 422 1919 422 
Q 2459 422 2753 634 
Q 3047 847 3047 1241 
Q 3047 1584 2836 1778 
Q 2625 1972 2144 2069 
L 1759 2144 
Q 1053 2284 737 2584 
Q 422 2884 422 3419 
Q 422 4038 858 4394 
Q 1294 4750 2059 4750 
Q 2388 4750 2728 4690 
Q 3069 4631 3425 4513 
z
" transform="scale(0.015625)"/>
       <path id="DejaVuSans-72" d="M 2631 2963 
Q 2534 3019 2420 3045 
Q 2306 3072 2169 3072 
Q 1681 3072 1420 2755 
Q 1159 2438 1159 1844 
L 1159 0 
L 581 0 
L 581 3500 
L 1159 3500 
L 1159 2956 
Q 1341 3275 1631 3429 
Q 1922 3584 2338 3584 
Q 2397 3584 2469 3576 
Q 2541 3569 2628 3553 
L 2631 2963 
z
" transform="scale(0.015625)"/>
       <path id="DejaVuSans-65" d="M 3597 1894 
L 3597 1613 
L 953 1613 
Q 991 1019 1311 708 
Q 1631 397 2203 397 
Q 2534 397 2845 478 
Q 3156 559 3463 722 
L 3463 178 
Q 3153 47 2828 -22 
Q 2503 -91 2169 -91 
Q 1331 -91 842 396 
Q 353 884 353 1716 
Q 353 2575 817 3079 
Q 1281 3584 2069 3584 
Q 2775 3584 3186 3129 
Q 3597 2675 3597 1894 
z
M 3022 2063 
Q 3016 2534 2758 2815 
Q 2500 3097 2075 3097 
Q 1594 3097 1305 2825 
Q 1016 2553 972 2059 
L 3022 2063 
z
" transform="scale(0.015625)"/>
      </defs>
      <use xlink:href="#DejaVuSans-53"/>
      <use xlink:href="#DejaVuSans-63" transform="translate(63.476562 0)"/>
      <use xlink:href="#DejaVuSans-6f" transform="translate(118.457031 0)"/>
      <use xlink:href="#DejaVuSans-72" transform="translate(179.638672 0)"/>
      <use xlink:href="#DejaVuSans-65" transform="translate(218.501953 0)"/>
     </g>
    </g>
   </g>
   <g id="LineCollection_1"/>
   <g id="patch_8">
    <path d="M 401.922598 312.24351 
L 409.275727 312.24351 
L 416.628856 312.24351 
L 416.628856 18.118365 
L 409.275727 18.118365 
L 401.922598 18.118365 
L 401.922598 312.24351 
z
" style="fill: none; stroke: #000000; stroke-width: 0.8; stroke-linejoin: miter; stroke-linecap: square"/>
   </g>
  </g>
 </g>
 <defs>
  <clipPath id="p50bfc125c0">
   <rect x="39.58149" y="18.118365" width="345.08677" height="294.125145"/>
  </clipPath>
  <clipPath id="pa38a546031">
   <rect x="401.922598" y="18.118365" width="14.706257" height="294.125145"/>
  </clipPath>
 </defs>
</svg>
