<?xml version="1.0" encoding="utf-8" standalone="no"?>
<!DOCTYPE svg PUBLIC "-//W3C//DTD SVG 1.1//EN"
  "http://www.w3.org/Graphics/SVG/1.1/DTD/svg11.dtd">
<svg xmlns:xlink="http://www.w3.org/1999/xlink" width="468.189381pt" height="353.99952pt" viewBox="0 0 468.189381 353.99952" xmlns="http://www.w3.org/2000/svg" version="1.1">
 <metadata>
  <rdf:RDF xmlns:dc="http://purl.org/dc/elements/1.1/" xmlns:cc="http://creativecommons.org/ns#" xmlns:rdf="http://www.w3.org/1999/02/22-rdf-syntax-ns#">
   <cc:Work>
    <dc:type rdf:resource="http://purl.org/dc/dcmitype/StillImage"/>
    <dc:date>1970-01-01T00:00:00+00:00</dc:date>
    <dc:format>image/svg+xml</dc:format>
    <dc:creator>
     <cc:Agent>
      <dc:title>Matplotlib v3.10.7, https://matplotlib.org/</dc:title>
     </cc:Agent>
    </dc:creator>
   </cc:Work>
  </rdf:RDF>
 </metadata>
 <defs>
  <style type="text/css">*{stroke-linejoin: round; stroke-linecap: butt}</style>
 </defs>
 <g id="figure_1">
  <g id="patch_1">
   <path d="M 0 353.99952 
L 468.189381 353.99952 
L 468.189381 0 
L 0 0 
z
" style="fill: #ffffff"/>
  </g>
  <g id="axes_1">
   <g id="patch_2">
    <path d="M 43.78125 316.44327 
L 388.302075 316.44327 
L 388.302075 10.999219 
L 43.78125 10.999219 
z
" style="fill: #ffffff"/>
   </g>
   <g id="QuadContourSet_1">
    <path d="M -54.653271 291.444874 
L -41.988075 290.989599 
L -54.653271 288.700131 
L -55.303752 290.989599 
z
M -5.436011 316.44327 
L 43.78125 316.44327 
L 46.283652 316.44327 
L 43.78125 315.396758 
L -5.436011 300.929504 
L -9.231157 316.44327 
z
M -103.870532 266.170264 
L -95.91039 265.535928 
L -103.870532 263.537218 
L -105.254279 265.535928 
z
" clip-path="url(#p1ec12e89ab)" style="fill: #470d60"/>
    <path d="M -54.653271 296.746279 
L -17.050836 316.44327 
L -9.231157 316.44327 
L -5.436011 300.929504 
L 43.78125 315.396758 
L 46.283652 316.44327 
L 62.199702 316.44327 
L 43.78125 307.973199 
L 8.406128 290.989599 
L -5.436011 284.792084 
L -50.784432 265.535928 
L -54.653271 263.874849 
L -103.870532 247.489579 
L -117.259517 265.535928 
L -103.870532 271.263344 
L -63.266664 290.989599 
z
M -55.303752 290.989599 
L -54.653271 288.700131 
L -41.988075 290.989599 
L -54.653271 291.444874 
z
M -105.254279 265.535928 
L -103.870532 263.537218 
L -95.91039 265.535928 
L -103.870532 266.170264 
z
M -153.087793 246.997602 
L -118.206164 240.082257 
L -153.087793 224.829467 
L -169.070938 240.082257 
z
M -202.305053 221.860136 
L -175.079224 214.628586 
L -202.305053 204.017849 
L -215.968645 214.628586 
z
" clip-path="url(#p1ec12e89ab)" style="fill: #482173"/>
    <path d="M -54.653271 302.047683 
L -25.658356 316.44327 
L -17.050836 316.44327 
L -54.653271 296.746279 
L -63.266664 290.989599 
L -103.870532 271.263344 
L -117.259517 265.535928 
L -103.870532 247.489579 
L -54.653271 263.874849 
L -50.784432 265.535928 
L -5.436011 284.792084 
L 8.406128 290.989599 
L 43.78125 307.973199 
L 62.199702 316.44327 
L 75.612767 316.44327 
L 43.78125 300.549639 
L 25.68787 290.989599 
L -5.436011 275.50426 
L -25.924875 265.535928 
L -54.653271 251.205397 
L -81.711678 240.082257 
L -103.870532 232.481644 
L -137.594593 214.628586 
L -153.087793 207.795383 
L -190.966491 189.174915 
L -202.305053 184.570932 
L -248.861625 163.721244 
L -251.522314 162.956649 
L -300.739575 142.06599 
L -309.199914 138.267573 
L -349.956835 121.784203 
L -372.781856 112.813902 
L -399.174096 103.351241 
L -444.564027 87.360232 
L -448.391357 86.273666 
L -497.608617 71.376535 
L -497.608617 87.360232 
L -497.608617 89.35982 
L -452.765163 112.813902 
L -448.391357 115.761745 
L -402.065358 138.267573 
L -399.174096 140.235792 
L -351.989808 163.721244 
L -349.956835 165.144789 
L -300.739575 187.546482 
L -297.311137 189.174915 
L -251.522314 213.783834 
L -250.080608 214.628586 
L -202.305053 235.58947 
L -192.834745 240.082257 
L -153.087793 255.161259 
L -131.230179 265.535928 
L -103.870532 276.356425 
L -72.048081 290.989599 
z
M -169.070938 240.082257 
L -153.087793 224.829467 
L -118.206164 240.082257 
L -153.087793 246.997602 
z
M -215.968645 214.628586 
L -202.305053 204.017849 
L -175.079224 214.628586 
L -202.305053 221.860136 
z
" clip-path="url(#p1ec12e89ab)" style="fill: #453781"/>
    <path d="M -54.653271 307.349088 
L -35.230439 316.44327 
L -25.658356 316.44327 
L -54.653271 302.047683 
L -72.048081 290.989599 
L -103.870532 276.356425 
L -131.230179 265.535928 
L -153.087793 255.161259 
L -192.834745 240.082257 
L -202.305053 235.58947 
L -250.080608 214.628586 
L -251.522314 213.783834 
L -297.311137 189.174915 
L -300.739575 187.546482 
L -349.956835 165.144789 
L -351.989808 163.721244 
L -399.174096 140.235792 
L -402.065358 138.267573 
L -448.391357 115.761745 
L -452.765163 112.813902 
L -497.608617 89.35982 
L -497.608617 96.582727 
L -464.249576 112.813902 
L -448.391357 122.820963 
L -414.091151 138.267573 
L -399.174096 147.744254 
L -364.44836 163.721244 
L -349.956835 173.166662 
L -313.698036 189.174915 
L -300.739575 195.662499 
L -261.811989 214.628586 
L -251.522314 219.733607 
L -208.060549 240.082257 
L -202.305053 243.451309 
L -153.087793 263.324916 
L -147.938229 265.535928 
L -103.870532 281.449505 
L -81.835752 290.989599 
z
M 43.78125 300.549639 
L 75.612767 316.44327 
L 87.204155 316.44327 
L 43.78125 293.126079 
L 40.056986 290.989599 
L -5.436011 266.216436 
L -6.688889 265.535928 
L -51.599434 240.082257 
L -54.653271 238.741053 
L -103.870532 218.365045 
L -109.911411 214.628586 
L -153.087793 192.031682 
L -157.916472 189.174915 
L -202.305053 167.077858 
L -208.2892 163.721244 
L -251.522314 147.802918 
L -269.023539 138.267573 
L -300.739575 127.058056 
L -326.917971 112.813902 
L -349.956835 102.80445 
L -378.763465 87.360232 
L -399.174096 78.272762 
L -431.245525 61.906561 
L -448.391357 54.533586 
L -484.041491 36.45289 
L -497.608617 31.026285 
L -497.608617 36.45289 
L -497.608617 61.906561 
L -497.608617 71.376535 
L -448.391357 86.273666 
L -444.564027 87.360232 
L -399.174096 103.351241 
L -372.781856 112.813902 
L -349.956835 121.784203 
L -309.199914 138.267573 
L -300.739575 142.06599 
L -251.522314 162.956649 
L -248.861625 163.721244 
L -202.305053 184.570932 
L -190.966491 189.174915 
L -153.087793 207.795383 
L -137.594593 214.628586 
L -103.870532 232.481644 
L -81.711678 240.082257 
L -54.653271 251.205397 
L -25.924875 265.535928 
L -5.436011 275.50426 
L 25.68787 290.989599 
z
" clip-path="url(#p1ec12e89ab)" style="fill: #3e4989"/>
    <path d="M -54.653271 312.650493 
L -46.010868 316.44327 
L -35.230439 316.44327 
L -54.653271 307.349088 
L -81.835752 290.989599 
L -103.870532 281.449505 
L -147.938229 265.535928 
L -153.087793 263.324916 
L -202.305053 243.451309 
L -208.060549 240.082257 
L -251.522314 219.733607 
L -261.811989 214.628586 
L -300.739575 195.662499 
L -313.698036 189.174915 
L -349.956835 173.166662 
L -364.44836 163.721244 
L -399.174096 147.744254 
L -414.091151 138.267573 
L -448.391357 122.820963 
L -464.249576 112.813902 
L -497.608617 96.582727 
L -497.608617 103.805634 
L -477.519535 112.813902 
L -448.391357 129.880181 
L -428.089673 138.267573 
L -399.174096 155.252717 
L -379.037131 163.721244 
L -349.956835 181.188536 
L -329.959188 189.174915 
L -300.739575 202.528578 
L -273.955466 214.628586 
L -251.522314 225.018875 
L -217.402384 240.082257 
L -202.305053 248.459116 
L -159.947595 265.535928 
L -153.087793 268.643286 
L -103.870532 286.542586 
L -92.890497 290.989599 
z
M 43.78125 293.126079 
L 87.204155 316.44327 
L 92.998511 316.44327 
L 100.492764 316.44327 
L 92.998511 312.579673 
L 57.401458 290.989599 
L 43.78125 284.109354 
L 13.856427 265.535928 
L -5.436011 255.776073 
L -29.99474 240.082257 
L -54.653271 227.752114 
L -81.663489 214.628586 
L -103.870532 203.733406 
L -127.191346 189.174915 
L -153.087793 176.486123 
L -174.431602 163.721244 
L -202.305053 153.584612 
L -237.279195 138.267573 
L -251.522314 132.196909 
L -300.739575 114.001446 
L -302.640581 112.813902 
L -349.956835 88.889935 
L -352.414088 87.360232 
L -399.174096 62.827239 
L -400.691905 61.906561 
L -448.391357 37.104569 
L -449.448566 36.45289 
L -497.608617 12.582705 
L -497.608617 31.026285 
L -484.041491 36.45289 
L -448.391357 54.533586 
L -431.245525 61.906561 
L -399.174096 78.272762 
L -378.763465 87.360232 
L -349.956835 102.80445 
L -326.917971 112.813902 
L -300.739575 127.058056 
L -269.023539 138.267573 
L -251.522314 147.802918 
L -208.2892 163.721244 
L -202.305053 167.077858 
L -157.916472 189.174915 
L -153.087793 192.031682 
L -109.911411 214.628586 
L -103.870532 218.365045 
L -54.653271 238.741053 
L -51.599434 240.082257 
L -6.688889 265.535928 
L -5.436011 266.216436 
L 40.056986 290.989599 
z
" clip-path="url(#p1ec12e89ab)" style="fill: #375a8c"/>
    <path d="M -103.870532 291.632344 
L -56.733574 316.44327 
L -54.653271 316.44327 
L -46.010868 316.44327 
L -54.653271 312.650493 
L -92.890497 290.989599 
L -103.870532 286.542586 
L -153.087793 268.643286 
L -159.947595 265.535928 
L -202.305053 248.459116 
L -217.402384 240.082257 
L -251.522314 225.018875 
L -273.955466 214.628586 
L -300.739575 202.528578 
L -329.959188 189.174915 
L -349.956835 181.188536 
L -379.037131 163.721244 
L -399.174096 155.252717 
L -428.089673 138.267573 
L -448.391357 129.880181 
L -477.519535 112.813902 
L -497.608617 103.805634 
L -497.608617 111.028541 
L -493.234324 112.813902 
L -448.391357 136.939398 
L -444.837624 138.267573 
L -399.174096 162.761179 
L -396.637939 163.721244 
L -350.005947 189.174915 
L -349.956835 189.201303 
L -300.739575 209.394657 
L -288.113801 214.628586 
L -251.522314 230.304142 
L -227.891572 240.082257 
L -202.305053 253.466922 
L -170.351098 265.535928 
L -153.087793 272.904822 
L -104.963554 290.989599 
z
M 92.998511 312.579673 
L 100.492764 316.44327 
L 115.205284 316.44327 
L 92.998511 303.935029 
L 73.470726 290.989599 
L 43.78125 274.44884 
L 30.715539 265.535928 
L -5.436011 245.244588 
L -12.762863 240.082257 
L -54.653271 216.763176 
L -58.50579 214.628586 
L -103.42078 189.174915 
L -103.870532 188.968513 
L -148.155413 163.721244 
L -153.087793 161.399712 
L -202.305053 141.041101 
L -207.667343 138.267573 
L -251.522314 115.823311 
L -258.05923 112.813902 
L -300.739575 90.464514 
L -305.519578 87.360232 
L -349.956835 64.277022 
L -353.337641 61.906561 
L -399.174096 45.023559 
L -412.577178 36.45289 
L -448.391357 23.254846 
L -469.238258 10.999219 
L -497.608617 10.999219 
L -497.608617 12.582705 
L -449.448566 36.45289 
L -448.391357 37.104569 
L -400.691905 61.906561 
L -399.174096 62.827239 
L -352.414088 87.360232 
L -349.956835 88.889935 
L -302.640581 112.813902 
L -300.739575 114.001446 
L -251.522314 132.196909 
L -237.279195 138.267573 
L -202.305053 153.584612 
L -174.431602 163.721244 
L -153.087793 176.486123 
L -127.191346 189.174915 
L -103.870532 203.733406 
L -81.663489 214.628586 
L -54.653271 227.752114 
L -29.99474 240.082257 
L -5.436011 255.776073 
L 13.856427 265.535928 
L 43.78125 284.109354 
L 57.401458 290.989599 
z
" clip-path="url(#p1ec12e89ab)" style="fill: #2f6b8e"/>
    <path d="M -103.870532 296.699232 
L -64.473539 316.44327 
L -56.733574 316.44327 
L -103.870532 291.632344 
L -104.963554 290.989599 
L -153.087793 272.904822 
L -170.351098 265.535928 
L -202.305053 253.466922 
L -227.891572 240.082257 
L -251.522314 230.304142 
L -288.113801 214.628586 
L -300.739575 209.394657 
L -349.956835 189.201303 
L -350.005947 189.174915 
L -396.637939 163.721244 
L -399.174096 162.761179 
L -444.837624 138.267573 
L -448.391357 136.939398 
L -493.234324 112.813902 
L -497.608617 111.028541 
L -497.608617 112.813902 
L -497.608617 121.616685 
L -463.188266 138.267573 
L -448.391357 146.197822 
L -412.384869 163.721244 
L -399.174096 170.572781 
L -361.89849 189.174915 
L -349.956835 195.16493 
L -303.318478 214.628586 
L -300.739575 216.045796 
L -251.522314 235.58941 
L -239.849932 240.082257 
L -202.305053 258.474729 
L -182.198177 265.535928 
L -153.087793 277.166357 
L -114.107355 290.989599 
z
M 92.998511 303.935029 
L 115.205284 316.44327 
L 127.753913 316.44327 
L 92.998511 295.290385 
L 86.99235 290.989599 
L 45.250205 265.535928 
L 43.78125 264.84029 
L 4.372534 240.082257 
L -5.436011 235.007893 
L -37.666825 214.628586 
L -54.653271 205.949822 
L -80.944471 189.174915 
L -103.870532 177.139643 
L -124.551948 163.721244 
L -153.087793 148.232733 
L -173.859478 138.267573 
L -202.305053 121.77647 
L -216.146572 112.813902 
L -251.522314 89.738697 
L -254.873717 87.360232 
L -300.739575 68.360809 
L -310.488854 61.906561 
L -349.956835 39.321463 
L -357.008141 36.45289 
L -394.883284 10.999219 
L -399.174096 10.999219 
L -448.391357 10.999219 
L -469.238258 10.999219 
L -448.391357 23.254846 
L -412.577178 36.45289 
L -399.174096 45.023559 
L -353.337641 61.906561 
L -349.956835 64.277022 
L -305.519578 87.360232 
L -300.739575 90.464514 
L -258.05923 112.813902 
L -251.522314 115.823311 
L -207.667343 138.267573 
L -202.305053 141.041101 
L -153.087793 161.399712 
L -148.155413 163.721244 
L -103.870532 188.968513 
L -103.42078 189.174915 
L -58.50579 214.628586 
L -54.653271 216.763176 
L -12.762863 240.082257 
L -5.436011 245.244588 
L 30.715539 265.535928 
L 43.78125 274.44884 
L 73.470726 290.989599 
z
" clip-path="url(#p1ec12e89ab)" style="fill: #297a8e"/>
    <path d="M -103.870532 301.766121 
L -72.984559 316.44327 
L -64.473539 316.44327 
L -103.870532 296.699232 
L -114.107355 290.989599 
L -153.087793 277.166357 
L -182.198177 265.535928 
L -202.305053 258.474729 
L -239.849932 240.082257 
L -251.522314 235.58941 
L -300.739575 216.045796 
L -303.318478 214.628586 
L -349.956835 195.16493 
L -361.89849 189.174915 
L -399.174096 170.572781 
L -412.384869 163.721244 
L -448.391357 146.197822 
L -463.188266 138.267573 
L -497.608617 121.616685 
L -497.608617 133.309769 
L -485.838536 138.267573 
L -448.391357 155.965915 
L -430.569042 163.721244 
L -399.174096 178.428827 
L -375.716685 189.174915 
L -349.956835 201.128557 
L -315.109528 214.628586 
L -300.739575 222.007674 
L -253.304095 240.082257 
L -251.522314 241.206936 
L -202.305053 263.482535 
L -195.954995 265.535928 
L -153.087793 281.427892 
L -124.347467 290.989599 
z
M 92.998511 295.290385 
L 127.753913 316.44327 
L 138.694314 316.44327 
L 101.499029 290.989599 
L 92.998511 286.580163 
L 62.25987 265.535928 
L 43.78125 255.851264 
L 20.85359 240.082257 
L -5.436011 225.054633 
L -20.411863 214.628586 
L -54.653271 195.178796 
L -63.163752 189.174915 
L -103.870532 165.310774 
L -106.074813 163.721244 
L -146.186706 138.267573 
L -153.087793 135.009012 
L -186.645712 112.813902 
L -202.305053 105.04761 
L -227.801301 87.360232 
L -251.522314 75.152704 
L -276.840547 61.906561 
L -300.739575 48.594424 
L -318.119438 36.45289 
L -349.956835 16.659901 
L -357.320746 10.999219 
L -394.883284 10.999219 
L -357.008141 36.45289 
L -349.956835 39.321463 
L -310.488854 61.906561 
L -300.739575 68.360809 
L -254.873717 87.360232 
L -251.522314 89.738697 
L -216.146572 112.813902 
L -202.305053 121.77647 
L -173.859478 138.267573 
L -153.087793 148.232733 
L -124.551948 163.721244 
L -103.870532 177.139643 
L -80.944471 189.174915 
L -54.653271 205.949822 
L -37.666825 214.628586 
L -5.436011 235.007893 
L 4.372534 240.082257 
L 43.78125 264.84029 
L 45.250205 265.535928 
L 86.99235 290.989599 
z
" clip-path="url(#p1ec12e89ab)" style="fill: #23898e"/>
    <path d="M -103.870532 306.833009 
L -82.437429 316.44327 
L -72.984559 316.44327 
L -103.870532 301.766121 
L -124.347467 290.989599 
L -153.087793 281.427892 
L -195.954995 265.535928 
L -202.305053 263.482535 
L -251.522314 241.206936 
L -253.304095 240.082257 
L -300.739575 222.007674 
L -315.109528 214.628586 
L -349.956835 201.128557 
L -375.716685 189.174915 
L -399.174096 178.428827 
L -430.569042 163.721244 
L -448.391357 155.965915 
L -485.838536 138.267573 
L -497.608617 133.309769 
L -497.608617 138.267573 
L -497.608617 143.620728 
L -451.709809 163.721244 
L -448.391357 166.175073 
L -399.174096 186.284873 
L -392.206929 189.174915 
L -349.956835 207.092183 
L -328.790816 214.628586 
L -300.739575 227.969552 
L -266.244576 240.082257 
L -251.522314 248.708296 
L -210.475061 265.535928 
L -202.305053 269.815336 
L -153.087793 285.689428 
L -135.98305 290.989599 
z
M 142.215771 316.44327 
L 153.350741 316.44327 
L 142.215771 310.716328 
L 116.252605 290.989599 
L 92.998511 277.805012 
L 76.440581 265.535928 
L 43.78125 246.862238 
L 34.665337 240.082257 
L -5.436011 215.101373 
L -6.061247 214.628586 
L -43.584041 189.174915 
L -54.653271 183.61503 
L -83.094659 163.721244 
L -103.870532 151.962734 
L -122.521601 138.267573 
L -153.087793 121.608689 
L -164.860458 112.813902 
L -202.305053 91.580621 
L -207.73424 87.360232 
L -251.277296 61.906561 
L -251.522314 61.790618 
L -287.848414 36.45289 
L -300.739575 29.907281 
L -325.82762 10.999219 
L -349.956835 10.999219 
L -357.320746 10.999219 
L -349.956835 16.659901 
L -318.119438 36.45289 
L -300.739575 48.594424 
L -276.840547 61.906561 
L -251.522314 75.152704 
L -227.801301 87.360232 
L -202.305053 105.04761 
L -186.645712 112.813902 
L -153.087793 135.009012 
L -146.186706 138.267573 
L -106.074813 163.721244 
L -103.870532 165.310774 
L -63.163752 189.174915 
L -54.653271 195.178796 
L -20.411863 214.628586 
L -5.436011 225.054633 
L 20.85359 240.082257 
L 43.78125 255.851264 
L 62.25987 265.535928 
L 92.998511 286.580163 
L 101.499029 290.989599 
L 138.694314 316.44327 
z
" clip-path="url(#p1ec12e89ab)" style="fill: #1f988b"/>
    <path d="M -103.870532 311.899898 
L -93.066844 316.44327 
L -82.437429 316.44327 
L -103.870532 306.833009 
L -135.98305 290.989599 
L -153.087793 285.689428 
L -202.305053 269.815336 
L -210.475061 265.535928 
L -251.522314 248.708296 
L -266.244576 240.082257 
L -300.739575 227.969552 
L -328.790816 214.628586 
L -349.956835 207.092183 
L -392.206929 189.174915 
L -399.174096 186.284873 
L -448.391357 166.175073 
L -451.709809 163.721244 
L -497.608617 143.620728 
L -497.608617 152.914312 
L -469.944432 163.721244 
L -448.391357 178.083691 
L -415.823797 189.174915 
L -399.174096 198.083623 
L -349.956835 213.05581 
L -345.086283 214.628586 
L -300.739575 233.931429 
L -281.499056 240.082257 
L -251.522314 256.209656 
L -226.402173 265.535928 
L -202.305053 277.069042 
L -153.087793 289.950963 
L -149.455358 290.989599 
z
M 142.215771 310.716328 
L 153.350741 316.44327 
L 168.071332 316.44327 
L 142.215771 301.904717 
L 128.831069 290.989599 
L 92.998511 269.029861 
L 88.600505 265.535928 
L 50.460763 240.082257 
L 43.78125 236.690121 
L 16.376799 214.628586 
L -5.436011 202.518425 
L -22.854275 189.174915 
L -54.653271 171.052861 
L -64.06991 163.721244 
L -103.870532 138.378861 
L -104.006809 138.267573 
L -140.967856 112.813902 
L -153.087793 106.325901 
L -178.829875 87.360232 
L -202.305053 74.545911 
L -218.863311 61.906561 
L -251.522314 43.113029 
L -259.678489 36.45289 
L -300.739575 11.656552 
L -301.498801 10.999219 
L -325.82762 10.999219 
L -300.739575 29.907281 
L -287.848414 36.45289 
L -251.522314 61.790618 
L -251.277296 61.906561 
L -207.73424 87.360232 
L -202.305053 91.580621 
L -164.860458 112.813902 
L -153.087793 121.608689 
L -122.521601 138.267573 
L -103.870532 151.962734 
L -83.094659 163.721244 
L -54.653271 183.61503 
L -43.584041 189.174915 
L -6.061247 214.628586 
L -5.436011 215.101373 
L 34.665337 240.082257 
L 43.78125 246.862238 
L 76.440581 265.535928 
L 92.998511 277.805012 
L 116.252605 290.989599 
z
" clip-path="url(#p1ec12e89ab)" style="fill: #21a685"/>
    <path d="M -153.087793 303.040801 
L -108.065633 316.44327 
L -103.870532 316.44327 
L -93.066844 316.44327 
L -103.870532 311.899898 
L -149.455358 290.989599 
L -153.087793 289.950963 
L -202.305053 277.069042 
L -226.402173 265.535928 
L -251.522314 256.209656 
L -281.499056 240.082257 
L -300.739575 233.931429 
L -345.086283 214.628586 
L -349.956835 213.05581 
L -399.174096 198.083623 
L -415.823797 189.174915 
L -448.391357 178.083691 
L -469.944432 163.721244 
L -497.608617 152.914312 
L -497.608617 162.207896 
L -493.152657 163.721244 
L -450.898048 189.174915 
L -448.391357 191.008039 
L -399.174096 212.176891 
L -387.318059 214.628586 
L -349.956835 225.784578 
L -300.739575 239.893307 
L -300.079285 240.082257 
L -251.522314 263.711017 
L -245.991449 265.535928 
L -202.305053 284.322747 
L -171.906279 290.989599 
z
M 142.215771 301.904717 
L 168.071332 316.44327 
L 180.625828 316.44327 
L 142.215771 293.093106 
L 139.794132 290.989599 
L 108.971359 265.535928 
L 92.998511 256.576879 
L 73.273277 240.082257 
L 43.78125 222.886873 
L 34.520641 214.628586 
L -5.436011 189.804336 
L -6.182602 189.174915 
L -39.411151 163.721244 
L -54.653271 155.138375 
L -73.504711 138.267573 
L -103.870532 120.292993 
L -113.148409 112.813902 
L -153.087793 87.448333 
L -153.191112 87.360232 
L -187.140914 61.906561 
L -202.305053 53.045413 
L -222.673948 36.45289 
L -251.522314 18.602457 
L -260.23483 10.999219 
L -300.739575 10.999219 
L -301.498801 10.999219 
L -300.739575 11.656552 
L -259.678489 36.45289 
L -251.522314 43.113029 
L -218.863311 61.906561 
L -202.305053 74.545911 
L -178.829875 87.360232 
L -153.087793 106.325901 
L -140.967856 112.813902 
L -104.006809 138.267573 
L -103.870532 138.378861 
L -64.06991 163.721244 
L -54.653271 171.052861 
L -22.854275 189.174915 
L -5.436011 202.518425 
L 16.376799 214.628586 
L 43.78125 236.690121 
L 50.460763 240.082257 
L 88.600505 265.535928 
L 92.998511 269.029861 
L 128.831069 290.989599 
z
" clip-path="url(#p1ec12e89ab)" style="fill: #32b67a"/>
    <path d="M -251.522314 298.607648 
L -202.305053 293.998154 
L -161.26586 316.44327 
L -153.087793 316.44327 
L -108.065633 316.44327 
L -153.087793 303.040801 
L -171.906279 290.989599 
L -202.305053 284.322747 
L -245.991449 265.535928 
L -251.522314 263.711017 
L -300.079285 240.082257 
L -300.739575 239.893307 
L -349.956835 225.784578 
L -387.318059 214.628586 
L -399.174096 212.176891 
L -448.391357 191.008039 
L -450.898048 189.174915 
L -493.152657 163.721244 
L -497.608617 162.207896 
L -497.608617 163.721244 
L -497.608617 189.174915 
L -497.608617 214.628586 
L -497.608617 221.611797 
L -448.391357 221.956273 
L -413.744213 240.082257 
L -399.174096 245.400109 
L -360.893435 265.535928 
L -349.956835 273.153977 
L -300.739575 269.626176 
L -262.458914 290.989599 
z
M 142.215771 293.093106 
L 180.625828 316.44327 
L 191.433032 316.44327 
L 191.855189 316.44327 
L 191.433032 316.197348 
L 163.1675 290.989599 
L 142.215771 277.530868 
L 130.287346 265.535928 
L 92.998511 241.690727 
L 91.263278 240.082257 
L 60.003564 214.628586 
L 43.78125 204.095497 
L 28.476624 189.174915 
L -5.436011 168.923452 
L -11.123144 163.721244 
L -44.051098 138.267573 
L -54.653271 132.384216 
L -76.103234 112.813902 
L -103.870532 95.638064 
L -112.585192 87.360232 
L -150.851597 61.906561 
L -153.087793 60.737588 
L -179.029701 36.45289 
L -202.305053 21.772968 
L -213.7256 10.999219 
L -251.522314 10.999219 
L -260.23483 10.999219 
L -251.522314 18.602457 
L -222.673948 36.45289 
L -202.305053 53.045413 
L -187.140914 61.906561 
L -153.191112 87.360232 
L -153.087793 87.448333 
L -113.148409 112.813902 
L -103.870532 120.292993 
L -73.504711 138.267573 
L -54.653271 155.138375 
L -39.411151 163.721244 
L -6.182602 189.174915 
L -5.436011 189.804336 
L 34.520641 214.628586 
L 43.78125 222.886873 
L 73.273277 240.082257 
L 92.998511 256.576879 
L 108.971359 265.535928 
L 139.794132 290.989599 
z
" clip-path="url(#p1ec12e89ab)" style="fill: #4ec36b"/>
    <path d="M -448.391357 316.44327 
L -399.174096 316.44327 
L -349.956835 316.44327 
L -300.739575 316.44327 
L -251.522314 316.44327 
L -202.305053 316.44327 
L -161.26586 316.44327 
L -202.305053 293.998154 
L -251.522314 298.607648 
L -262.458914 290.989599 
L -300.739575 269.626176 
L -349.956835 273.153977 
L -360.893435 265.535928 
L -399.174096 245.400109 
L -413.744213 240.082257 
L -448.391357 221.956273 
L -497.608617 221.611797 
L -497.608617 240.082257 
L -497.608617 265.535928 
L -497.608617 290.989599 
L -497.608617 316.44327 
z
M 191.433032 316.197348 
L 191.855189 316.44327 
L 218.638802 316.44327 
L 191.433032 297.829324 
L 184.639597 290.989599 
L 156.538369 265.535928 
L 142.215771 257.04794 
L 124.905772 240.082257 
L 92.998511 217.071492 
L 90.597204 214.628586 
L 64.330422 189.174915 
L 43.78125 174.870687 
L 31.415395 163.721244 
L 1.699882 138.267573 
L -5.436011 133.674229 
L -29.499731 112.813902 
L -54.653271 94.035198 
L -61.026747 87.360232 
L -89.252923 61.906561 
L -103.870532 51.88808 
L -121.407587 36.45289 
L -146.66669 10.999219 
L -153.087793 10.999219 
L -202.305053 10.999219 
L -213.7256 10.999219 
L -202.305053 21.772968 
L -179.029701 36.45289 
L -153.087793 60.737588 
L -150.851597 61.906561 
L -112.585192 87.360232 
L -103.870532 95.638064 
L -76.103234 112.813902 
L -54.653271 132.384216 
L -44.051098 138.267573 
L -11.123144 163.721244 
L -5.436011 168.923452 
L 28.476624 189.174915 
L 43.78125 204.095497 
L 60.003564 214.628586 
L 91.263278 240.082257 
L 92.998511 241.690727 
L 130.287346 265.535928 
L 142.215771 277.530868 
L 163.1675 290.989599 
z
M 535.953857 307.739554 
L 542.718597 316.44327 
L 585.171117 316.44327 
L 634.388378 316.44327 
L 683.605638 316.44327 
L 732.822899 316.44327 
L 782.04016 316.44327 
L 831.25742 316.44327 
L 880.474681 316.44327 
L 929.691942 316.44327 
L 978.909202 316.44327 
L 1028.126463 316.44327 
L 1077.343724 316.44327 
L 1126.560984 316.44327 
L 1175.778245 316.44327 
L 1224.995506 316.44327 
L 1274.212766 316.44327 
L 1323.430027 316.44327 
L 1372.647288 316.44327 
L 1421.864548 316.44327 
L 1471.081809 316.44327 
L 1520.29907 316.44327 
L 1569.51633 316.44327 
L 1618.733591 316.44327 
L 1667.950852 316.44327 
L 1667.950852 290.989599 
L 1667.950852 265.535928 
L 1667.950852 240.082257 
L 1667.950852 214.628586 
L 1667.950852 189.174915 
L 1667.950852 163.721244 
L 1667.950852 138.267573 
L 1667.950852 112.813902 
L 1667.950852 87.360232 
L 1667.950852 61.906561 
L 1667.950852 36.45289 
L 1667.950852 10.999219 
L 1618.733591 10.999219 
L 1569.51633 10.999219 
L 1520.29907 10.999219 
L 1471.081809 10.999219 
L 1421.864548 10.999219 
L 1372.647288 10.999219 
L 1323.430027 10.999219 
L 1274.212766 10.999219 
L 1224.995506 10.999219 
L 1175.778245 10.999219 
L 1126.560984 10.999219 
L 1077.343724 10.999219 
L 1028.126463 10.999219 
L 978.909202 10.999219 
L 929.691942 10.999219 
L 880.474681 10.999219 
L 831.25742 10.999219 
L 782.04016 10.999219 
L 732.822899 10.999219 
L 683.605638 10.999219 
L 634.388378 10.999219 
L 585.171117 10.999219 
L 535.953857 10.999219 
L 486.736596 10.999219 
L 437.519335 10.999219 
L 388.302075 10.999219 
L 375.355835 10.999219 
L 382.220834 36.45289 
L 388.302075 60.416642 
L 389.074732 61.906561 
L 403.091106 87.360232 
L 415.506324 112.813902 
L 426.520978 138.267573 
L 436.171241 163.721244 
L 437.519335 166.853009 
L 457.701427 189.174915 
L 474.804247 214.628586 
L 486.736596 238.468857 
L 488.766496 240.082257 
L 516.59967 265.535928 
L 531.46749 290.989599 
z
" clip-path="url(#p1ec12e89ab)" style="fill: #70cf57"/>
    <path d="M 191.433032 297.829324 
L 218.638802 316.44327 
L 239.003251 316.44327 
L 218.97013 290.989599 
L 191.433032 267.435523 
L 190.041389 265.535928 
L 164.98323 240.082257 
L 142.215771 219.335317 
L 139.083576 214.628586 
L 112.591772 189.174915 
L 92.998511 173.422598 
L 87.028695 163.721244 
L 60.301659 138.267573 
L 43.78125 127.149103 
L 34.576183 112.813902 
L 4.69203 87.360232 
L -5.436011 81.402382 
L -17.990071 61.906561 
L -54.653271 36.900493 
L -55.012238 36.45289 
L -71.622484 10.999219 
L -103.870532 10.999219 
L -146.66669 10.999219 
L -121.407587 36.45289 
L -103.870532 51.88808 
L -89.252923 61.906561 
L -61.026747 87.360232 
L -54.653271 94.035198 
L -29.499731 112.813902 
L -5.436011 133.674229 
L 1.699882 138.267573 
L 31.415395 163.721244 
L 43.78125 174.870687 
L 64.330422 189.174915 
L 90.597204 214.628586 
L 92.998511 217.071492 
L 124.905772 240.082257 
L 142.215771 257.04794 
L 156.538369 265.535928 
L 184.639597 290.989599 
z
M 486.736596 316.44327 
L 535.953857 316.44327 
L 542.718597 316.44327 
L 535.953857 307.739554 
L 531.46749 290.989599 
L 516.59967 265.535928 
L 488.766496 240.082257 
L 486.736596 238.468857 
L 474.804247 214.628586 
L 457.701427 189.174915 
L 437.519335 166.853009 
L 436.171241 163.721244 
L 426.520978 138.267573 
L 415.506324 112.813902 
L 403.091106 87.360232 
L 389.074732 61.906561 
L 388.302075 60.416642 
L 382.220834 36.45289 
L 375.355835 10.999219 
L 339.084814 10.999219 
L 289.867553 10.999219 
L 240.650293 10.999219 
L 215.939224 10.999219 
L 234.318206 36.45289 
L 240.650293 45.605921 
L 257.295021 61.906561 
L 278.210883 87.360232 
L 289.867553 103.299958 
L 300.276698 112.813902 
L 323.721719 138.267573 
L 339.084814 158.163721 
L 345.482401 163.721244 
L 370.284441 189.174915 
L 388.302075 212.046637 
L 391.396993 214.628586 
L 415.973837 240.082257 
L 434.394326 265.535928 
L 437.519335 271.572692 
L 452.924387 290.989599 
L 460.520906 316.44327 
z
" clip-path="url(#p1ec12e89ab)" style="fill: #98d83e"/>
    <path d="M 240.650293 316.44327 
L 289.867553 316.44327 
L 291.37401 316.44327 
L 289.867553 315.614827 
L 280.279203 290.989599 
L 261.389181 265.535928 
L 240.650293 249.723402 
L 237.153573 240.082257 
L 228.101468 214.628586 
L 214.997488 189.174915 
L 191.433032 168.89214 
L 190.303643 163.721244 
L 191.433032 150.600491 
L 207.959088 163.721244 
L 240.650293 171.801438 
L 258.267743 189.174915 
L 289.867553 211.428936 
L 293.263291 214.628586 
L 316.255177 240.082257 
L 339.084814 260.341899 
L 343.711535 265.535928 
L 361.16406 290.989599 
L 374.17589 316.44327 
L 388.302075 316.44327 
L 437.519335 316.44327 
L 460.520906 316.44327 
L 452.924387 290.989599 
L 437.519335 271.572692 
L 434.394326 265.535928 
L 415.973837 240.082257 
L 391.396993 214.628586 
L 388.302075 212.046637 
L 370.284441 189.174915 
L 345.482401 163.721244 
L 339.084814 158.163721 
L 323.721719 138.267573 
L 300.276698 112.813902 
L 289.867553 103.299958 
L 278.210883 87.360232 
L 257.295021 61.906561 
L 240.650293 45.605921 
L 234.318206 36.45289 
L 215.939224 10.999219 
L 191.433032 10.999219 
L 142.215771 10.999219 
L 92.998511 10.999219 
L 43.78125 10.999219 
L -5.436011 10.999219 
L -54.653271 10.999219 
L -71.622484 10.999219 
L -55.012238 36.45289 
L -54.653271 36.900493 
L -17.990071 61.906561 
L -5.436011 81.402382 
L 4.69203 87.360232 
L 34.576183 112.813902 
L 43.78125 127.149103 
L 60.301659 138.267573 
L 87.028695 163.721244 
L 92.998511 173.422598 
L 112.591772 189.174915 
L 139.083576 214.628586 
L 142.215771 219.335317 
L 164.98323 240.082257 
L 190.041389 265.535928 
L 191.433032 267.435523 
L 218.97013 290.989599 
L 239.003251 316.44327 
z
" clip-path="url(#p1ec12e89ab)" style="fill: #c2df23"/>
    <path d="M 289.867553 315.614827 
L 291.37401 316.44327 
L 339.084814 316.44327 
L 374.17589 316.44327 
L 361.16406 290.989599 
L 343.711535 265.535928 
L 339.084814 260.341899 
L 316.255177 240.082257 
L 293.263291 214.628586 
L 289.867553 211.428936 
L 258.267743 189.174915 
L 240.650293 171.801438 
L 207.959088 163.721244 
L 191.433032 150.600491 
L 190.303643 163.721244 
L 191.433032 168.89214 
L 214.997488 189.174915 
L 228.101468 214.628586 
L 237.153573 240.082257 
L 240.650293 249.723402 
L 261.389181 265.535928 
L 280.279203 290.989599 
z
" clip-path="url(#p1ec12e89ab)" style="fill: #ece51b"/>
   </g>
   <g id="PathCollection_1">
    <defs>
     <path id="mdc0741d33a" d="M -3 3 
L 3 -3 
M -3 -3 
L 3 3 
" style="stroke: #ff0000; stroke-width: 1.5"/>
    </defs>
    <g clip-path="url(#p1ec12e89ab)">
     <use xlink:href="#mdc0741d33a" x="339.084814" y="316.44327" style="fill: #ff0000; stroke: #ff0000; stroke-width: 1.5"/>
     <use xlink:href="#mdc0741d33a" x="339.084814" y="290.989599" style="fill: #ff0000; stroke: #ff0000; stroke-width: 1.5"/>
     <use xlink:href="#mdc0741d33a" x="289.867553" y="265.535928" style="fill: #ff0000; stroke: #ff0000; stroke-width: 1.5"/>
     <use xlink:href="#mdc0741d33a" x="289.867553" y="240.082257" style="fill: #ff0000; stroke: #ff0000; stroke-width: 1.5"/>
     <use xlink:href="#mdc0741d33a" x="240.650293" y="214.628586" style="fill: #ff0000; stroke: #ff0000; stroke-width: 1.5"/>
     <use xlink:href="#mdc0741d33a" x="240.650293" y="189.174915" style="fill: #ff0000; stroke: #ff0000; stroke-width: 1.5"/>
     <use xlink:href="#mdc0741d33a" x="191.433032" y="163.721244" style="fill: #ff0000; stroke: #ff0000; stroke-width: 1.5"/>
     <use xlink:href="#mdc0741d33a" x="191.433032" y="138.267573" style="fill: #ff0000; stroke: #ff0000; stroke-width: 1.5"/>
     <use xlink:href="#mdc0741d33a" x="142.215771" y="112.813902" style="fill: #ff0000; stroke: #ff0000; stroke-width: 1.5"/>
     <use xlink:href="#mdc0741d33a" x="142.215771" y="87.360232" style="fill: #ff0000; stroke: #ff0000; stroke-width: 1.5"/>
     <use xlink:href="#mdc0741d33a" x="142.215771" y="61.906561" style="fill: #ff0000; stroke: #ff0000; stroke-width: 1.5"/>
     <use xlink:href="#mdc0741d33a" x="92.998511" y="36.45289" style="fill: #ff0000; stroke: #ff0000; stroke-width: 1.5"/>
     <use xlink:href="#mdc0741d33a" x="92.998511" y="10.999219" style="fill: #ff0000; stroke: #ff0000; stroke-width: 1.5"/>
    </g>
   </g>
   <g id="matplotlib.axis_1">
    <g id="xtick_1">
     <g id="line2d_1">
      <defs>
       <path id="m38f3b05bbe" d="M 0 0 
L 0 3.5 
" style="stroke: #000000; stroke-width: 0.8"/>
      </defs>
      <g>
       <use xlink:href="#m38f3b05bbe" x="92.998511" y="316.44327" style="stroke: #000000; stroke-width: 0.8"/>
      </g>
     </g>
     <g id="text_1">
      <!-- $\mathdefault{10^{-2}}$ -->
      <g transform="translate(81.248511 331.041707) scale(0.1 -0.1)">
       <defs>
        <path id="DejaVuSans-31" d="M 794 531 
L 1825 531 
L 1825 4091 
L 703 3866 
L 703 4441 
L 1819 4666 
L 2450 4666 
L 2450 531 
L 3481 531 
L 3481 0 
L 794 0 
L 794 531 
z
" transform="scale(0.015625)"/>
        <path id="DejaVuSans-30" d="M 2034 4250 
Q 1547 4250 1301 3770 
Q 1056 3291 1056 2328 
Q 1056 1369 1301 889 
Q 1547 409 2034 409 
Q 2525 409 2770 889 
Q 3016 1369 3016 2328 
Q 3016 3291 2770 3770 
Q 2525 4250 2034 4250 
z
M 2034 4750 
Q 2819 4750 3233 4129 
Q 3647 3509 3647 2328 
Q 3647 1150 3233 529 
Q 2819 -91 2034 -91 
Q 1250 -91 836 529 
Q 422 1150 422 2328 
Q 422 3509 836 4129 
Q 1250 4750 2034 4750 
z
" transform="scale(0.015625)"/>
        <path id="DejaVuSans-2212" d="M 678 2272 
L 4684 2272 
L 4684 1741 
L 678 1741 
L 678 2272 
z
" transform="scale(0.015625)"/>
        <path id="DejaVuSans-32" d="M 1228 531 
L 3431 531 
L 3431 0 
L 469 0 
L 469 531 
Q 828 903 1448 1529 
Q 2069 2156 2228 2338 
Q 2531 2678 2651 2914 
Q 2772 3150 2772 3378 
Q 2772 3750 2511 3984 
Q 2250 4219 1831 4219 
Q 1534 4219 1204 4116 
Q 875 4013 500 3803 
L 500 4441 
Q 881 4594 1212 4672 
Q 1544 4750 1819 4750 
Q 2544 4750 2975 4387 
Q 3406 4025 3406 3419 
Q 3406 3131 3298 2873 
Q 3191 2616 2906 2266 
Q 2828 2175 2409 1742 
Q 1991 1309 1228 531 
z
" transform="scale(0.015625)"/>
       </defs>
       <use xlink:href="#DejaVuSans-31" transform="translate(0 0.765625)"/>
       <use xlink:href="#DejaVuSans-30" transform="translate(63.623047 0.765625)"/>
       <use xlink:href="#DejaVuSans-2212" transform="translate(128.203125 39.046875) scale(0.7)"/>
       <use xlink:href="#DejaVuSans-32" transform="translate(186.855469 39.046875) scale(0.7)"/>
      </g>
     </g>
    </g>
    <g id="xtick_2">
     <g id="line2d_2">
      <g>
       <use xlink:href="#m38f3b05bbe" x="289.867553" y="316.44327" style="stroke: #000000; stroke-width: 0.8"/>
      </g>
     </g>
     <g id="text_2">
      <!-- $\mathdefault{10^{-1}}$ -->
      <g transform="translate(278.117553 331.041707) scale(0.1 -0.1)">
       <use xlink:href="#DejaVuSans-31" transform="translate(0 0.684375)"/>
       <use xlink:href="#DejaVuSans-30" transform="translate(63.623047 0.684375)"/>
       <use xlink:href="#DejaVuSans-2212" transform="translate(128.203125 38.965625) scale(0.7)"/>
       <use xlink:href="#DejaVuSans-31" transform="translate(186.855469 38.965625) scale(0.7)"/>
      </g>
     </g>
    </g>
    <g id="xtick_3">
     <g id="line2d_3">
      <defs>
       <path id="m360e1f0208" d="M 0 0 
L 0 2 
" style="stroke: #000000; stroke-width: 0.6"/>
      </defs>
      <g>
       <use xlink:href="#m360e1f0208" x="49.32336" y="316.44327" style="stroke: #000000; stroke-width: 0.6"/>
      </g>
     </g>
    </g>
    <g id="xtick_4">
     <g id="line2d_4">
      <g>
       <use xlink:href="#m360e1f0208" x="62.50311" y="316.44327" style="stroke: #000000; stroke-width: 0.6"/>
      </g>
     </g>
    </g>
    <g id="xtick_5">
     <g id="line2d_5">
      <g>
       <use xlink:href="#m360e1f0208" x="73.919929" y="316.44327" style="stroke: #000000; stroke-width: 0.6"/>
      </g>
     </g>
    </g>
    <g id="xtick_6">
     <g id="line2d_6">
      <g>
       <use xlink:href="#m360e1f0208" x="83.990277" y="316.44327" style="stroke: #000000; stroke-width: 0.6"/>
      </g>
     </g>
    </g>
    <g id="xtick_7">
     <g id="line2d_7">
      <g>
       <use xlink:href="#m360e1f0208" x="152.261998" y="316.44327" style="stroke: #000000; stroke-width: 0.6"/>
      </g>
     </g>
    </g>
    <g id="xtick_8">
     <g id="line2d_8">
      <g>
       <use xlink:href="#m360e1f0208" x="186.928915" y="316.44327" style="stroke: #000000; stroke-width: 0.6"/>
      </g>
     </g>
    </g>
    <g id="xtick_9">
     <g id="line2d_9">
      <g>
       <use xlink:href="#m360e1f0208" x="211.525485" y="316.44327" style="stroke: #000000; stroke-width: 0.6"/>
      </g>
     </g>
    </g>
    <g id="xtick_10">
     <g id="line2d_10">
      <g>
       <use xlink:href="#m360e1f0208" x="230.604066" y="316.44327" style="stroke: #000000; stroke-width: 0.6"/>
      </g>
     </g>
    </g>
    <g id="xtick_11">
     <g id="line2d_11">
      <g>
       <use xlink:href="#m360e1f0208" x="246.192402" y="316.44327" style="stroke: #000000; stroke-width: 0.6"/>
      </g>
     </g>
    </g>
    <g id="xtick_12">
     <g id="line2d_12">
      <g>
       <use xlink:href="#m360e1f0208" x="259.372153" y="316.44327" style="stroke: #000000; stroke-width: 0.6"/>
      </g>
     </g>
    </g>
    <g id="xtick_13">
     <g id="line2d_13">
      <g>
       <use xlink:href="#m360e1f0208" x="270.788972" y="316.44327" style="stroke: #000000; stroke-width: 0.6"/>
      </g>
     </g>
    </g>
    <g id="xtick_14">
     <g id="line2d_14">
      <g>
       <use xlink:href="#m360e1f0208" x="280.85932" y="316.44327" style="stroke: #000000; stroke-width: 0.6"/>
      </g>
     </g>
    </g>
    <g id="xtick_15">
     <g id="line2d_15">
      <g>
       <use xlink:href="#m360e1f0208" x="349.13104" y="316.44327" style="stroke: #000000; stroke-width: 0.6"/>
      </g>
     </g>
    </g>
    <g id="xtick_16">
     <g id="line2d_16">
      <g>
       <use xlink:href="#m360e1f0208" x="383.797958" y="316.44327" style="stroke: #000000; stroke-width: 0.6"/>
      </g>
     </g>
    </g>
    <g id="text_3">
     <!-- bandwidth -->
     <g transform="translate(189.679162 344.719832) scale(0.1 -0.1)">
      <defs>
       <path id="DejaVuSans-62" d="M 3116 1747 
Q 3116 2381 2855 2742 
Q 2594 3103 2138 3103 
Q 1681 3103 1420 2742 
Q 1159 2381 1159 1747 
Q 1159 1113 1420 752 
Q 1681 391 2138 391 
Q 2594 391 2855 752 
Q 3116 1113 3116 1747 
z
M 1159 2969 
Q 1341 3281 1617 3432 
Q 1894 3584 2278 3584 
Q 2916 3584 3314 3078 
Q 3713 2572 3713 1747 
Q 3713 922 3314 415 
Q 2916 -91 2278 -91 
Q 1894 -91 1617 61 
Q 1341 213 1159 525 
L 1159 0 
L 581 0 
L 581 4863 
L 1159 4863 
L 1159 2969 
z
" transform="scale(0.015625)"/>
       <path id="DejaVuSans-61" d="M 2194 1759 
Q 1497 1759 1228 1600 
Q 959 1441 959 1056 
Q 959 750 1161 570 
Q 1363 391 1709 391 
Q 2188 391 2477 730 
Q 2766 1069 2766 1631 
L 2766 1759 
L 2194 1759 
z
M 3341 1997 
L 3341 0 
L 2766 0 
L 2766 531 
Q 2569 213 2275 61 
Q 1981 -91 1556 -91 
Q 1019 -91 701 211 
Q 384 513 384 1019 
Q 384 1609 779 1909 
Q 1175 2209 1959 2209 
L 2766 2209 
L 2766 2266 
Q 2766 2663 2505 2880 
Q 2244 3097 1772 3097 
Q 1472 3097 1187 3025 
Q 903 2953 641 2809 
L 641 3341 
Q 956 3463 1253 3523 
Q 1550 3584 1831 3584 
Q 2591 3584 2966 3190 
Q 3341 2797 3341 1997 
z
" transform="scale(0.015625)"/>
       <path id="DejaVuSans-6e" d="M 3513 2113 
L 3513 0 
L 2938 0 
L 2938 2094 
Q 2938 2591 2744 2837 
Q 2550 3084 2163 3084 
Q 1697 3084 1428 2787 
Q 1159 2491 1159 1978 
L 1159 0 
L 581 0 
L 581 3500 
L 1159 3500 
L 1159 2956 
Q 1366 3272 1645 3428 
Q 1925 3584 2291 3584 
Q 2894 3584 3203 3211 
Q 3513 2838 3513 2113 
z
" transform="scale(0.015625)"/>
       <path id="DejaVuSans-64" d="M 2906 2969 
L 2906 4863 
L 3481 4863 
L 3481 0 
L 2906 0 
L 2906 525 
Q 2725 213 2448 61 
Q 2172 -91 1784 -91 
Q 1150 -91 751 415 
Q 353 922 353 1747 
Q 353 2572 751 3078 
Q 1150 3584 1784 3584 
Q 2172 3584 2448 3432 
Q 2725 3281 2906 2969 
z
M 947 1747 
Q 947 1113 1208 752 
Q 1469 391 1925 391 
Q 2381 391 2643 752 
Q 2906 1113 2906 1747 
Q 2906 2381 2643 2742 
Q 2381 3103 1925 3103 
Q 1469 3103 1208 2742 
Q 947 2381 947 1747 
z
" transform="scale(0.015625)"/>
       <path id="DejaVuSans-77" d="M 269 3500 
L 844 3500 
L 1563 769 
L 2278 3500 
L 2956 3500 
L 3675 769 
L 4391 3500 
L 4966 3500 
L 4050 0 
L 3372 0 
L 2619 2869 
L 1863 0 
L 1184 0 
L 269 3500 
z
" transform="scale(0.015625)"/>
       <path id="DejaVuSans-69" d="M 603 3500 
L 1178 3500 
L 1178 0 
L 603 0 
L 603 3500 
z
M 603 4863 
L 1178 4863 
L 1178 4134 
L 603 4134 
L 603 4863 
z
" transform="scale(0.015625)"/>
       <path id="DejaVuSans-74" d="M 1172 4494 
L 1172 3500 
L 2356 3500 
L 2356 3053 
L 1172 3053 
L 1172 1153 
Q 1172 725 1289 603 
Q 1406 481 1766 481 
L 2356 481 
L 2356 0 
L 1766 0 
Q 1100 0 847 248 
Q 594 497 594 1153 
L 594 3053 
L 172 3053 
L 172 3500 
L 594 3500 
L 594 4494 
L 1172 4494 
z
" transform="scale(0.015625)"/>
       <path id="DejaVuSans-68" d="M 3513 2113 
L 3513 0 
L 2938 0 
L 2938 2094 
Q 2938 2591 2744 2837 
Q 2550 3084 2163 3084 
Q 1697 3084 1428 2787 
Q 1159 2491 1159 1978 
L 1159 0 
L 581 0 
L 581 4863 
L 1159 4863 
L 1159 2956 
Q 1366 3272 1645 3428 
Q 1925 3584 2291 3584 
Q 2894 3584 3203 3211 
Q 3513 2838 3513 2113 
z
" transform="scale(0.015625)"/>
      </defs>
      <use xlink:href="#DejaVuSans-62"/>
      <use xlink:href="#DejaVuSans-61" transform="translate(63.476562 0)"/>
      <use xlink:href="#DejaVuSans-6e" transform="translate(124.755859 0)"/>
      <use xlink:href="#DejaVuSans-64" transform="translate(188.134766 0)"/>
      <use xlink:href="#DejaVuSans-77" transform="translate(251.611328 0)"/>
      <use xlink:href="#DejaVuSans-69" transform="translate(333.398438 0)"/>
      <use xlink:href="#DejaVuSans-64" transform="translate(361.181641 0)"/>
      <use xlink:href="#DejaVuSans-74" transform="translate(424.658203 0)"/>
      <use xlink:href="#DejaVuSans-68" transform="translate(463.867188 0)"/>
     </g>
    </g>
   </g>
   <g id="matplotlib.axis_2">
    <g id="ytick_1">
     <g id="line2d_17">
      <defs>
       <path id="mbd2f377c6c" d="M 0 0 
L -3.5 0 
" style="stroke: #000000; stroke-width: 0.8"/>
      </defs>
      <g>
       <use xlink:href="#mbd2f377c6c" x="43.78125" y="316.44327" style="stroke: #000000; stroke-width: 0.8"/>
      </g>
     </g>
     <g id="text_4">
      <!-- 1.0 -->
      <g transform="translate(20.878125 320.242489) scale(0.1 -0.1)">
       <defs>
        <path id="DejaVuSans-2e" d="M 684 794 
L 1344 794 
L 1344 0 
L 684 0 
L 684 794 
z
" transform="scale(0.015625)"/>
       </defs>
       <use xlink:href="#DejaVuSans-31"/>
       <use xlink:href="#DejaVuSans-2e" transform="translate(63.623047 0)"/>
       <use xlink:href="#DejaVuSans-30" transform="translate(95.410156 0)"/>
      </g>
     </g>
    </g>
    <g id="ytick_2">
     <g id="line2d_18">
      <g>
       <use xlink:href="#mbd2f377c6c" x="43.78125" y="265.535928" style="stroke: #000000; stroke-width: 0.8"/>
      </g>
     </g>
     <g id="text_5">
      <!-- 1.5 -->
      <g transform="translate(20.878125 269.335147) scale(0.1 -0.1)">
       <defs>
        <path id="DejaVuSans-35" d="M 691 4666 
L 3169 4666 
L 3169 4134 
L 1269 4134 
L 1269 2991 
Q 1406 3038 1543 3061 
Q 1681 3084 1819 3084 
Q 2600 3084 3056 2656 
Q 3513 2228 3513 1497 
Q 3513 744 3044 326 
Q 2575 -91 1722 -91 
Q 1428 -91 1123 -41 
Q 819 9 494 109 
L 494 744 
Q 775 591 1075 516 
Q 1375 441 1709 441 
Q 2250 441 2565 725 
Q 2881 1009 2881 1497 
Q 2881 1984 2565 2268 
Q 2250 2553 1709 2553 
Q 1456 2553 1204 2497 
Q 953 2441 691 2322 
L 691 4666 
z
" transform="scale(0.015625)"/>
       </defs>
       <use xlink:href="#DejaVuSans-31"/>
       <use xlink:href="#DejaVuSans-2e" transform="translate(63.623047 0)"/>
       <use xlink:href="#DejaVuSans-35" transform="translate(95.410156 0)"/>
      </g>
     </g>
    </g>
    <g id="ytick_3">
     <g id="line2d_19">
      <g>
       <use xlink:href="#mbd2f377c6c" x="43.78125" y="214.628586" style="stroke: #000000; stroke-width: 0.8"/>
      </g>
     </g>
     <g id="text_6">
      <!-- 2.0 -->
      <g transform="translate(20.878125 218.427805) scale(0.1 -0.1)">
       <use xlink:href="#DejaVuSans-32"/>
       <use xlink:href="#DejaVuSans-2e" transform="translate(63.623047 0)"/>
       <use xlink:href="#DejaVuSans-30" transform="translate(95.410156 0)"/>
      </g>
     </g>
    </g>
    <g id="ytick_4">
     <g id="line2d_20">
      <g>
       <use xlink:href="#mbd2f377c6c" x="43.78125" y="163.721244" style="stroke: #000000; stroke-width: 0.8"/>
      </g>
     </g>
     <g id="text_7">
      <!-- 2.5 -->
      <g transform="translate(20.878125 167.520463) scale(0.1 -0.1)">
       <use xlink:href="#DejaVuSans-32"/>
       <use xlink:href="#DejaVuSans-2e" transform="translate(63.623047 0)"/>
       <use xlink:href="#DejaVuSans-35" transform="translate(95.410156 0)"/>
      </g>
     </g>
    </g>
    <g id="ytick_5">
     <g id="line2d_21">
      <g>
       <use xlink:href="#mbd2f377c6c" x="43.78125" y="112.813902" style="stroke: #000000; stroke-width: 0.8"/>
      </g>
     </g>
     <g id="text_8">
      <!-- 3.0 -->
      <g transform="translate(20.878125 116.613121) scale(0.1 -0.1)">
       <defs>
        <path id="DejaVuSans-33" d="M 2597 2516 
Q 3050 2419 3304 2112 
Q 3559 1806 3559 1356 
Q 3559 666 3084 287 
Q 2609 -91 1734 -91 
Q 1441 -91 1130 -33 
Q 819 25 488 141 
L 488 750 
Q 750 597 1062 519 
Q 1375 441 1716 441 
Q 2309 441 2620 675 
Q 2931 909 2931 1356 
Q 2931 1769 2642 2001 
Q 2353 2234 1838 2234 
L 1294 2234 
L 1294 2753 
L 1863 2753 
Q 2328 2753 2575 2939 
Q 2822 3125 2822 3475 
Q 2822 3834 2567 4026 
Q 2313 4219 1838 4219 
Q 1578 4219 1281 4162 
Q 984 4106 628 3988 
L 628 4550 
Q 988 4650 1302 4700 
Q 1616 4750 1894 4750 
Q 2613 4750 3031 4423 
Q 3450 4097 3450 3541 
Q 3450 3153 3228 2886 
Q 3006 2619 2597 2516 
z
" transform="scale(0.015625)"/>
       </defs>
       <use xlink:href="#DejaVuSans-33"/>
       <use xlink:href="#DejaVuSans-2e" transform="translate(63.623047 0)"/>
       <use xlink:href="#DejaVuSans-30" transform="translate(95.410156 0)"/>
      </g>
     </g>
    </g>
    <g id="ytick_6">
     <g id="line2d_22">
      <g>
       <use xlink:href="#mbd2f377c6c" x="43.78125" y="61.906561" style="stroke: #000000; stroke-width: 0.8"/>
      </g>
     </g>
     <g id="text_9">
      <!-- 3.5 -->
      <g transform="translate(20.878125 65.705779) scale(0.1 -0.1)">
       <use xlink:href="#DejaVuSans-33"/>
       <use xlink:href="#DejaVuSans-2e" transform="translate(63.623047 0)"/>
       <use xlink:href="#DejaVuSans-35" transform="translate(95.410156 0)"/>
      </g>
     </g>
    </g>
    <g id="ytick_7">
     <g id="line2d_23">
      <g>
       <use xlink:href="#mbd2f377c6c" x="43.78125" y="10.999219" style="stroke: #000000; stroke-width: 0.8"/>
      </g>
     </g>
     <g id="text_10">
      <!-- 4.0 -->
      <g transform="translate(20.878125 14.798438) scale(0.1 -0.1)">
       <defs>
        <path id="DejaVuSans-34" d="M 2419 4116 
L 825 1625 
L 2419 1625 
L 2419 4116 
z
M 2253 4666 
L 3047 4666 
L 3047 1625 
L 3713 1625 
L 3713 1100 
L 3047 1100 
L 3047 0 
L 2419 0 
L 2419 1100 
L 313 1100 
L 313 1709 
L 2253 4666 
z
" transform="scale(0.015625)"/>
       </defs>
       <use xlink:href="#DejaVuSans-34"/>
       <use xlink:href="#DejaVuSans-2e" transform="translate(63.623047 0)"/>
       <use xlink:href="#DejaVuSans-30" transform="translate(95.410156 0)"/>
      </g>
     </g>
    </g>
    <g id="text_11">
     <!-- alpha -->
     <g transform="translate(14.798438 177.581401) rotate(-90) scale(0.1 -0.1)">
      <defs>
       <path id="DejaVuSans-6c" d="M 603 4863 
L 1178 4863 
L 1178 0 
L 603 0 
L 603 4863 
z
" transform="scale(0.015625)"/>
       <path id="DejaVuSans-70" d="M 1159 525 
L 1159 -1331 
L 581 -1331 
L 581 3500 
L 1159 3500 
L 1159 2969 
Q 1341 3281 1617 3432 
Q 1894 3584 2278 3584 
Q 2916 3584 3314 3078 
Q 3713 2572 3713 1747 
Q 3713 922 3314 415 
Q 2916 -91 2278 -91 
Q 1894 -91 1617 61 
Q 1341 213 1159 525 
z
M 3116 1747 
Q 3116 2381 2855 2742 
Q 2594 3103 2138 3103 
Q 1681 3103 1420 2742 
Q 1159 2381 1159 1747 
Q 1159 1113 1420 752 
Q 1681 391 2138 391 
Q 2594 391 2855 752 
Q 3116 1113 3116 1747 
z
" transform="scale(0.015625)"/>
      </defs>
      <use xlink:href="#DejaVuSans-61"/>
      <use xlink:href="#DejaVuSans-6c" transform="translate(61.279297 0)"/>
      <use xlink:href="#DejaVuSans-70" transform="translate(89.0625 0)"/>
      <use xlink:href="#DejaVuSans-68" transform="translate(152.539062 0)"/>
      <use xlink:href="#DejaVuSans-61" transform="translate(215.917969 0)"/>
     </g>
    </g>
   </g>
   <g id="patch_3">
    <path d="M 43.78125 316.44327 
L 43.78125 10.999219 
" style="fill: none; stroke: #000000; stroke-width: 0.8; stroke-linejoin: miter; stroke-linecap: square"/>
   </g>
   <g id="patch_4">
    <path d="M 388.302075 316.44327 
L 388.302075 10.999219 
" style="fill: none; stroke: #000000; stroke-width: 0.8; stroke-linejoin: miter; stroke-linecap: square"/>
   </g>
   <g id="patch_5">
    <path d="M 43.78125 316.44327 
L 388.302075 316.44327 
" style="fill: none; stroke: #000000; stroke-width: 0.8; stroke-linejoin: miter; stroke-linecap: square"/>
   </g>
   <g id="patch_6">
    <path d="M 43.78125 10.999219 
L 388.302075 10.999219 
" style="fill: none; stroke: #000000; stroke-width: 0.8; stroke-linejoin: miter; stroke-linecap: square"/>
   </g>
  </g>
  <g id="axes_2">
   <g id="patch_7">
    <path d="M 405.528116 316.44327 
L 420.800318 316.44327 
L 420.800318 10.999219 
L 405.528116 10.999219 
z
" style="fill: #ffffff"/>
   </g>
   <g id="QuadMesh_1">
    <path d="M 405.528116 316.44327 
L 420.800318 316.44327 
L 420.800318 297.353017 
L 405.528116 297.353017 
L 405.528116 316.44327 
" clip-path="url(#pe6d9492728)" style="fill: #470d60"/>
    <path d="M 405.528116 297.353017 
L 420.800318 297.353017 
L 420.800318 278.262764 
L 405.528116 278.262764 
L 405.528116 297.353017 
" clip-path="url(#pe6d9492728)" style="fill: #482173"/>
    <path d="M 405.528116 278.262764 
L 420.800318 278.262764 
L 420.800318 259.17251 
L 405.528116 259.17251 
L 405.528116 278.262764 
" clip-path="url(#pe6d9492728)" style="fill: #453781"/>
    <path d="M 405.528116 259.17251 
L 420.800318 259.17251 
L 420.800318 240.082257 
L 405.528116 240.082257 
L 405.528116 259.17251 
" clip-path="url(#pe6d9492728)" style="fill: #3e4989"/>
    <path d="M 405.528116 240.082257 
L 420.800318 240.082257 
L 420.800318 220.992004 
L 405.528116 220.992004 
L 405.528116 240.082257 
" clip-path="url(#pe6d9492728)" style="fill: #375a8c"/>
    <path d="M 405.528116 220.992004 
L 420.800318 220.992004 
L 420.800318 201.901751 
L 405.528116 201.901751 
L 405.528116 220.992004 
" clip-path="url(#pe6d9492728)" style="fill: #2f6b8e"/>
    <path d="M 405.528116 201.901751 
L 420.800318 201.901751 
L 420.800318 182.811498 
L 405.528116 182.811498 
L 405.528116 201.901751 
" clip-path="url(#pe6d9492728)" style="fill: #297a8e"/>
    <path d="M 405.528116 182.811498 
L 420.800318 182.811498 
L 420.800318 163.721244 
L 405.528116 163.721244 
L 405.528116 182.811498 
" clip-path="url(#pe6d9492728)" style="fill: #23898e"/>
    <path d="M 405.528116 163.721244 
L 420.800318 163.721244 
L 420.800318 144.630991 
L 405.528116 144.630991 
L 405.528116 163.721244 
" clip-path="url(#pe6d9492728)" style="fill: #1f988b"/>
    <path d="M 405.528116 144.630991 
L 420.800318 144.630991 
L 420.800318 125.540738 
L 405.528116 125.540738 
L 405.528116 144.630991 
" clip-path="url(#pe6d9492728)" style="fill: #21a685"/>
    <path d="M 405.528116 125.540738 
L 420.800318 125.540738 
L 420.800318 106.450485 
L 405.528116 106.450485 
L 405.528116 125.540738 
" clip-path="url(#pe6d9492728)" style="fill: #32b67a"/>
    <path d="M 405.528116 106.450485 
L 420.800318 106.450485 
L 420.800318 87.360232 
L 405.528116 87.360232 
L 405.528116 106.450485 
" clip-path="url(#pe6d9492728)" style="fill: #4ec36b"/>
    <path d="M 405.528116 87.360232 
L 420.800318 87.360232 
L 420.800318 68.269978 
L 405.528116 68.269978 
L 405.528116 87.360232 
" clip-path="url(#pe6d9492728)" style="fill: #70cf57"/>
    <path d="M 405.528116 68.269978 
L 420.800318 68.269978 
L 420.800318 49.179725 
L 405.528116 49.179725 
L 405.528116 68.269978 
" clip-path="url(#pe6d9492728)" style="fill: #98d83e"/>
    <path d="M 405.528116 49.179725 
L 420.800318 49.179725 
L 420.800318 30.089472 
L 405.528116 30.089472 
L 405.528116 49.179725 
" clip-path="url(#pe6d9492728)" style="fill: #c2df23"/>
    <path d="M 405.528116 30.089472 
L 420.800318 30.089472 
L 420.800318 10.999219 
L 405.528116 10.999219 
L 405.528116 30.089472 
" clip-path="url(#pe6d9492728)" style="fill: #ece51b"/>
   </g>
   <g id="matplotlib.axis_3"/>
   <g id="matplotlib.axis_4">
    <g id="ytick_8">
     <g id="line2d_24">
      <defs>
       <path id="m0a27ea52cb" d="M 0 0 
L 3.5 0 
" style="stroke: #000000; stroke-width: 0.8"/>
      </defs>
      <g>
       <use xlink:href="#m0a27ea52cb" x="420.800318" y="316.44327" style="stroke: #000000; stroke-width: 0.8"/>
      </g>
     </g>
     <g id="text_12">
      <!-- -3.2 -->
      <g transform="translate(427.800318 320.242489) scale(0.1 -0.1)">
       <defs>
        <path id="DejaVuSans-2d" d="M 313 2009 
L 1997 2009 
L 1997 1497 
L 313 1497 
L 313 2009 
z
" transform="scale(0.015625)"/>
       </defs>
       <use xlink:href="#DejaVuSans-2d"/>
       <use xlink:href="#DejaVuSans-33" transform="translate(36.083984 0)"/>
       <use xlink:href="#DejaVuSans-2e" transform="translate(99.707031 0)"/>
       <use xlink:href="#DejaVuSans-32" transform="translate(131.494141 0)"/>
      </g>
     </g>
    </g>
    <g id="ytick_9">
     <g id="line2d_25">
      <g>
       <use xlink:href="#m0a27ea52cb" x="420.800318" y="278.262764" style="stroke: #000000; stroke-width: 0.8"/>
      </g>
     </g>
     <g id="text_13">
      <!-- -2.8 -->
      <g transform="translate(427.800318 282.061982) scale(0.1 -0.1)">
       <defs>
        <path id="DejaVuSans-38" d="M 2034 2216 
Q 1584 2216 1326 1975 
Q 1069 1734 1069 1313 
Q 1069 891 1326 650 
Q 1584 409 2034 409 
Q 2484 409 2743 651 
Q 3003 894 3003 1313 
Q 3003 1734 2745 1975 
Q 2488 2216 2034 2216 
z
M 1403 2484 
Q 997 2584 770 2862 
Q 544 3141 544 3541 
Q 544 4100 942 4425 
Q 1341 4750 2034 4750 
Q 2731 4750 3128 4425 
Q 3525 4100 3525 3541 
Q 3525 3141 3298 2862 
Q 3072 2584 2669 2484 
Q 3125 2378 3379 2068 
Q 3634 1759 3634 1313 
Q 3634 634 3220 271 
Q 2806 -91 2034 -91 
Q 1263 -91 848 271 
Q 434 634 434 1313 
Q 434 1759 690 2068 
Q 947 2378 1403 2484 
z
M 1172 3481 
Q 1172 3119 1398 2916 
Q 1625 2713 2034 2713 
Q 2441 2713 2670 2916 
Q 2900 3119 2900 3481 
Q 2900 3844 2670 4047 
Q 2441 4250 2034 4250 
Q 1625 4250 1398 4047 
Q 1172 3844 1172 3481 
z
" transform="scale(0.015625)"/>
       </defs>
       <use xlink:href="#DejaVuSans-2d"/>
       <use xlink:href="#DejaVuSans-32" transform="translate(36.083984 0)"/>
       <use xlink:href="#DejaVuSans-2e" transform="translate(99.707031 0)"/>
       <use xlink:href="#DejaVuSans-38" transform="translate(131.494141 0)"/>
      </g>
     </g>
    </g>
    <g id="ytick_10">
     <g id="line2d_26">
      <g>
       <use xlink:href="#m0a27ea52cb" x="420.800318" y="240.082257" style="stroke: #000000; stroke-width: 0.8"/>
      </g>
     </g>
     <g id="text_14">
      <!-- -2.4 -->
      <g transform="translate(427.800318 243.881476) scale(0.1 -0.1)">
       <use xlink:href="#DejaVuSans-2d"/>
       <use xlink:href="#DejaVuSans-32" transform="translate(36.083984 0)"/>
       <use xlink:href="#DejaVuSans-2e" transform="translate(99.707031 0)"/>
       <use xlink:href="#DejaVuSans-34" transform="translate(131.494141 0)"/>
      </g>
     </g>
    </g>
    <g id="ytick_11">
     <g id="line2d_27">
      <g>
       <use xlink:href="#m0a27ea52cb" x="420.800318" y="201.901751" style="stroke: #000000; stroke-width: 0.8"/>
      </g>
     </g>
     <g id="text_15">
      <!-- -2.0 -->
      <g transform="translate(427.800318 205.70097) scale(0.1 -0.1)">
       <use xlink:href="#DejaVuSans-2d"/>
       <use xlink:href="#DejaVuSans-32" transform="translate(36.083984 0)"/>
       <use xlink:href="#DejaVuSans-2e" transform="translate(99.707031 0)"/>
       <use xlink:href="#DejaVuSans-30" transform="translate(131.494141 0)"/>
      </g>
     </g>
    </g>
    <g id="ytick_12">
     <g id="line2d_28">
      <g>
       <use xlink:href="#m0a27ea52cb" x="420.800318" y="163.721244" style="stroke: #000000; stroke-width: 0.8"/>
      </g>
     </g>
     <g id="text_16">
      <!-- -1.6 -->
      <g transform="translate(427.800318 167.520463) scale(0.1 -0.1)">
       <defs>
        <path id="DejaVuSans-36" d="M 2113 2584 
Q 1688 2584 1439 2293 
Q 1191 2003 1191 1497 
Q 1191 994 1439 701 
Q 1688 409 2113 409 
Q 2538 409 2786 701 
Q 3034 994 3034 1497 
Q 3034 2003 2786 2293 
Q 2538 2584 2113 2584 
z
M 3366 4563 
L 3366 3988 
Q 3128 4100 2886 4159 
Q 2644 4219 2406 4219 
Q 1781 4219 1451 3797 
Q 1122 3375 1075 2522 
Q 1259 2794 1537 2939 
Q 1816 3084 2150 3084 
Q 2853 3084 3261 2657 
Q 3669 2231 3669 1497 
Q 3669 778 3244 343 
Q 2819 -91 2113 -91 
Q 1303 -91 875 529 
Q 447 1150 447 2328 
Q 447 3434 972 4092 
Q 1497 4750 2381 4750 
Q 2619 4750 2861 4703 
Q 3103 4656 3366 4563 
z
" transform="scale(0.015625)"/>
       </defs>
       <use xlink:href="#DejaVuSans-2d"/>
       <use xlink:href="#DejaVuSans-31" transform="translate(36.083984 0)"/>
       <use xlink:href="#DejaVuSans-2e" transform="translate(99.707031 0)"/>
       <use xlink:href="#DejaVuSans-36" transform="translate(131.494141 0)"/>
      </g>
     </g>
    </g>
    <g id="ytick_13">
     <g id="line2d_29">
      <g>
       <use xlink:href="#m0a27ea52cb" x="420.800318" y="125.540738" style="stroke: #000000; stroke-width: 0.8"/>
      </g>
     </g>
     <g id="text_17">
      <!-- -1.2 -->
      <g transform="translate(427.800318 129.339957) scale(0.1 -0.1)">
       <use xlink:href="#DejaVuSans-2d"/>
       <use xlink:href="#DejaVuSans-31" transform="translate(36.083984 0)"/>
       <use xlink:href="#DejaVuSans-2e" transform="translate(99.707031 0)"/>
       <use xlink:href="#DejaVuSans-32" transform="translate(131.494141 0)"/>
      </g>
     </g>
    </g>
    <g id="ytick_14">
     <g id="line2d_30">
      <g>
       <use xlink:href="#m0a27ea52cb" x="420.800318" y="87.360232" style="stroke: #000000; stroke-width: 0.8"/>
      </g>
     </g>
     <g id="text_18">
      <!-- -0.8 -->
      <g transform="translate(427.800318 91.15945) scale(0.1 -0.1)">
       <use xlink:href="#DejaVuSans-2d"/>
       <use xlink:href="#DejaVuSans-30" transform="translate(36.083984 0)"/>
       <use xlink:href="#DejaVuSans-2e" transform="translate(99.707031 0)"/>
       <use xlink:href="#DejaVuSans-38" transform="translate(131.494141 0)"/>
      </g>
     </g>
    </g>
    <g id="ytick_15">
     <g id="line2d_31">
      <g>
       <use xlink:href="#m0a27ea52cb" x="420.800318" y="49.179725" style="stroke: #000000; stroke-width: 0.8"/>
      </g>
     </g>
     <g id="text_19">
      <!-- -0.4 -->
      <g transform="translate(427.800318 52.978944) scale(0.1 -0.1)">
       <use xlink:href="#DejaVuSans-2d"/>
       <use xlink:href="#DejaVuSans-30" transform="translate(36.083984 0)"/>
       <use xlink:href="#DejaVuSans-2e" transform="translate(99.707031 0)"/>
       <use xlink:href="#DejaVuSans-34" transform="translate(131.494141 0)"/>
      </g>
     </g>
    </g>
    <g id="ytick_16">
     <g id="line2d_32">
      <g>
       <use xlink:href="#m0a27ea52cb" x="420.800318" y="10.999219" style="stroke: #000000; stroke-width: 0.8"/>
      </g>
     </g>
     <g id="text_20">
      <!-- 0.0 -->
      <g transform="translate(427.800318 14.798438) scale(0.1 -0.1)">
       <use xlink:href="#DejaVuSans-30"/>
       <use xlink:href="#DejaVuSans-2e" transform="translate(63.623047 0)"/>
       <use xlink:href="#DejaVuSans-30" transform="translate(95.410156 0)"/>
      </g>
     </g>
    </g>
    <g id="text_21">
     <!-- Score -->
     <g transform="translate(458.909693 177.723588) rotate(-90) scale(0.1 -0.1)">
      <defs>
       <path id="DejaVuSans-53" d="M 3425 4513 
L 3425 3897 
Q 3066 4069 2747 4153 
Q 2428 4238 2131 4238 
Q 1616 4238 1336 4038 
Q 1056 3838 1056 3469 
Q 1056 3159 1242 3001 
Q 1428 2844 1947 2747 
L 2328 2669 
Q 3034 2534 3370 2195 
Q 3706 1856 3706 1288 
Q 3706 609 3251 259 
Q 2797 -91 1919 -91 
Q 1588 -91 1214 -16 
Q 841 59 441 206 
L 441 856 
Q 825 641 1194 531 
Q 1563 422 1919 422 
Q 2459 422 2753 634 
Q 3047 847 3047 1241 
Q 3047 1584 2836 1778 
Q 2625 1972 2144 2069 
L 1759 2144 
Q 1053 2284 737 2584 
Q 422 2884 422 3419 
Q 422 4038 858 4394 
Q 1294 4750 2059 4750 
Q 2388 4750 2728 4690 
Q 3069 4631 3425 4513 
z
" transform="scale(0.015625)"/>
       <path id="DejaVuSans-63" d="M 3122 3366 
L 3122 2828 
Q 2878 2963 2633 3030 
Q 2388 3097 2138 3097 
Q 1578 3097 1268 2742 
Q 959 2388 959 1747 
Q 959 1106 1268 751 
Q 1578 397 2138 397 
Q 2388 397 2633 464 
Q 2878 531 3122 666 
L 3122 134 
Q 2881 22 2623 -34 
Q 2366 -91 2075 -91 
Q 1284 -91 818 406 
Q 353 903 353 1747 
Q 353 2603 823 3093 
Q 1294 3584 2113 3584 
Q 2378 3584 2631 3529 
Q 2884 3475 3122 3366 
z
" transform="scale(0.015625)"/>
       <path id="DejaVuSans-6f" d="M 1959 3097 
Q 1497 3097 1228 2736 
Q 959 2375 959 1747 
Q 959 1119 1226 758 
Q 1494 397 1959 397 
Q 2419 397 2687 759 
Q 2956 1122 2956 1747 
Q 2956 2369 2687 2733 
Q 2419 3097 1959 3097 
z
M 1959 3584 
Q 2709 3584 3137 3096 
Q 3566 2609 3566 1747 
Q 3566 888 3137 398 
Q 2709 -91 1959 -91 
Q 1206 -91 779 398 
Q 353 888 353 1747 
Q 353 2609 779 3096 
Q 1206 3584 1959 3584 
z
" transform="scale(0.015625)"/>
       <path id="DejaVuSans-72" d="M 2631 2963 
Q 2534 3019 2420 3045 
Q 2306 3072 2169 3072 
Q 1681 3072 1420 2755 
Q 1159 2438 1159 1844 
L 1159 0 
L 581 0 
L 581 3500 
L 1159 3500 
L 1159 2956 
Q 1341 3275 1631 3429 
Q 1922 3584 2338 3584 
Q 2397 3584 2469 3576 
Q 2541 3569 2628 3553 
L 2631 2963 
z
" transform="scale(0.015625)"/>
       <path id="DejaVuSans-65" d="M 3597 1894 
L 3597 1613 
L 953 1613 
Q 991 1019 1311 708 
Q 1631 397 2203 397 
Q 2534 397 2845 478 
Q 3156 559 3463 722 
L 3463 178 
Q 3153 47 2828 -22 
Q 2503 -91 2169 -91 
Q 1331 -91 842 396 
Q 353 884 353 1716 
Q 353 2575 817 3079 
Q 1281 3584 2069 3584 
Q 2775 3584 3186 3129 
Q 3597 2675 3597 1894 
z
M 3022 2063 
Q 3016 2534 2758 2815 
Q 2500 3097 2075 3097 
Q 1594 3097 1305 2825 
Q 1016 2553 972 2059 
L 3022 2063 
z
" transform="scale(0.015625)"/>
      </defs>
      <use xlink:href="#DejaVuSans-53"/>
      <use xlink:href="#DejaVuSans-63" transform="translate(63.476562 0)"/>
      <use xlink:href="#DejaVuSans-6f" transform="translate(118.457031 0)"/>
      <use xlink:href="#DejaVuSans-72" transform="translate(179.638672 0)"/>
      <use xlink:href="#DejaVuSans-65" transform="translate(218.501953 0)"/>
     </g>
    </g>
   </g>
   <g id="LineCollection_1"/>
   <g id="patch_8">
    <path d="M 405.528116 316.44327 
L 413.164217 316.44327 
L 420.800318 316.44327 
L 420.800318 10.999219 
L 413.164217 10.999219 
L 405.528116 10.999219 
L 405.528116 316.44327 
z
" style="fill: none; stroke: #000000; stroke-width: 0.8; stroke-linejoin: miter; stroke-linecap: square"/>
   </g>
  </g>
 </g>
 <defs>
  <clipPath id="p1ec12e89ab">
   <rect x="43.78125" y="10.999219" width="344.520825" height="305.444051"/>
  </clipPath>
  <clipPath id="pe6d9492728">
   <rect x="405.528116" y="10.999219" width="15.272203" height="305.444051"/>
  </clipPath>
 </defs>
</svg>
