<?xml version="1.0" encoding="utf-8" standalone="no"?>
<!DOCTYPE svg PUBLIC "-//W3C//DTD SVG 1.1//EN"
  "http://www.w3.org/Graphics/SVG/1.1/DTD/svg11.dtd">
<svg xmlns:xlink="http://www.w3.org/1999/xlink" width="453.6pt" height="338.4pt" viewBox="0 0 453.6 338.4" xmlns="http://www.w3.org/2000/svg" version="1.1">
 <metadata>
  <rdf:RDF xmlns:dc="http://purl.org/dc/elements/1.1/" xmlns:cc="http://creativecommons.org/ns#" xmlns:rdf="http://www.w3.org/1999/02/22-rdf-syntax-ns#">
   <cc:Work>
    <dc:type rdf:resource="http://purl.org/dc/dcmitype/StillImage"/>
    <dc:date>1970-01-01T00:00:00+00:00</dc:date>
    <dc:format>image/svg+xml</dc:format>
    <dc:creator>
     <cc:Agent>
      <dc:title>Matplotlib v3.10.7, https://matplotlib.org/</dc:title>
     </cc:Agent>
    </dc:creator>
   </cc:Work>
  </rdf:RDF>
 </metadata>
 <defs>
  <style type="text/css">*{stroke-linejoin: round; stroke-linecap: butt}</style>
 </defs>
 <g id="figure_1">
  <g id="patch_1">
   <path d="M 0 338.4 
L 453.6 338.4 
L 453.6 0 
L 0 0 
z
" style="fill: #ffffff"/>
  </g>
  <g id="axes_1">
   <g id="patch_2">
    <path d="M 43.78125 327.7 
L 446.4 327.7 
L 446.4 22.318125 
L 43.78125 22.318125 
z
" style="fill: #ffffff"/>
   </g>
   <g id="patch_3">
    <path d="M 245.090625 293.185365 
L 245.090625 293.185365 
L 245.090625 293.185365 
L 245.090625 293.185365 
z
" clip-path="url(#p41cb73b2e7)" style="fill: #32669b; stroke: #2c2c2c; stroke-linejoin: miter"/>
   </g>
   <g id="patch_4">
    <path d="M 245.090625 293.185365 
L 245.090625 293.185365 
L 245.090625 293.185365 
L 245.090625 293.185365 
z
" clip-path="url(#p41cb73b2e7)" style="fill: #9d591c; stroke: #2c2c2c; stroke-linejoin: miter"/>
   </g>
   <g id="patch_5">
    <path d="M 245.090625 293.185365 
L 245.090625 293.185365 
L 245.090625 293.185365 
L 245.090625 293.185365 
z
" clip-path="url(#p41cb73b2e7)" style="fill: #999999; stroke: #2c2c2c; stroke-linejoin: miter"/>
   </g>
   <g id="patch_6">
    <path d="M 245.090625 293.185365 
L 245.090625 293.185365 
L 245.090625 293.185365 
L 245.090625 293.185365 
z
" clip-path="url(#p41cb73b2e7)" style="fill: #6e3578; stroke: #2c2c2c; stroke-linejoin: miter"/>
   </g>
   <g id="patch_7">
    <path d="M 245.090625 293.185365 
L 245.090625 293.185365 
L 245.090625 293.185365 
L 245.090625 293.185365 
z
" clip-path="url(#p41cb73b2e7)" style="fill: url(#h984df53af4); stroke: #ffffff; stroke-linejoin: miter"/>
   </g>
   <g id="patch_8">
    <path d="M 245.090625 293.185365 
L 245.090625 293.185365 
L 245.090625 293.185365 
L 245.090625 293.185365 
z
" clip-path="url(#p41cb73b2e7)" style="fill: url(#h603ee7f45f); stroke: #ffffff; stroke-linejoin: miter"/>
   </g>
   <g id="patch_9">
    <path d="M 245.090625 293.185365 
L 245.090625 293.185365 
L 245.090625 293.185365 
L 245.090625 293.185365 
z
" clip-path="url(#p41cb73b2e7)" style="fill: url(#h36f2edb80c); stroke: #ffffff; stroke-linejoin: miter"/>
   </g>
   <g id="patch_10">
    <path d="M 245.090625 293.185365 
L 245.090625 293.185365 
L 245.090625 293.185365 
L 245.090625 293.185365 
z
" clip-path="url(#p41cb73b2e7)" style="fill: #276c3c; stroke: #2c2c2c; stroke-linejoin: miter"/>
   </g>
   <g id="matplotlib.axis_1">
    <g id="xtick_1">
     <g id="line2d_1">
      <defs>
       <path id="m38f3b05bbe" d="M 0 0 
L 0 3.5 
" style="stroke: #000000; stroke-width: 0.8"/>
      </defs>
      <g>
       <use xlink:href="#m38f3b05bbe" x="245.090625" y="327.7" style="stroke: #000000; stroke-width: 0.8"/>
      </g>
     </g>
    </g>
   </g>
   <g id="matplotlib.axis_2">
    <g id="ytick_1">
     <g id="line2d_2">
      <defs>
       <path id="mbd2f377c6c" d="M 0 0 
L -3.5 0 
" style="stroke: #000000; stroke-width: 0.8"/>
      </defs>
      <g>
       <use xlink:href="#mbd2f377c6c" x="43.78125" y="293.185365" style="stroke: #000000; stroke-width: 0.8"/>
      </g>
     </g>
     <g id="text_1">
      <!-- 0.0 -->
      <g transform="translate(20.878125 296.984584) scale(0.1 -0.1)">
       <defs>
        <path id="DejaVuSans-30" d="M 2034 4250 
Q 1547 4250 1301 3770 
Q 1056 3291 1056 2328 
Q 1056 1369 1301 889 
Q 1547 409 2034 409 
Q 2525 409 2770 889 
Q 3016 1369 3016 2328 
Q 3016 3291 2770 3770 
Q 2525 4250 2034 4250 
z
M 2034 4750 
Q 2819 4750 3233 4129 
Q 3647 3509 3647 2328 
Q 3647 1150 3233 529 
Q 2819 -91 2034 -91 
Q 1250 -91 836 529 
Q 422 1150 422 2328 
Q 422 3509 836 4129 
Q 1250 4750 2034 4750 
z
" transform="scale(0.015625)"/>
        <path id="DejaVuSans-2e" d="M 684 794 
L 1344 794 
L 1344 0 
L 684 0 
L 684 794 
z
" transform="scale(0.015625)"/>
       </defs>
       <use xlink:href="#DejaVuSans-30"/>
       <use xlink:href="#DejaVuSans-2e" transform="translate(63.623047 0)"/>
       <use xlink:href="#DejaVuSans-30" transform="translate(95.410156 0)"/>
      </g>
     </g>
    </g>
    <g id="ytick_2">
     <g id="line2d_3">
      <g>
       <use xlink:href="#mbd2f377c6c" x="43.78125" y="233.615421" style="stroke: #000000; stroke-width: 0.8"/>
      </g>
     </g>
     <g id="text_2">
      <!-- 0.2 -->
      <g transform="translate(20.878125 237.414639) scale(0.1 -0.1)">
       <defs>
        <path id="DejaVuSans-32" d="M 1228 531 
L 3431 531 
L 3431 0 
L 469 0 
L 469 531 
Q 828 903 1448 1529 
Q 2069 2156 2228 2338 
Q 2531 2678 2651 2914 
Q 2772 3150 2772 3378 
Q 2772 3750 2511 3984 
Q 2250 4219 1831 4219 
Q 1534 4219 1204 4116 
Q 875 4013 500 3803 
L 500 4441 
Q 881 4594 1212 4672 
Q 1544 4750 1819 4750 
Q 2544 4750 2975 4387 
Q 3406 4025 3406 3419 
Q 3406 3131 3298 2873 
Q 3191 2616 2906 2266 
Q 2828 2175 2409 1742 
Q 1991 1309 1228 531 
z
" transform="scale(0.015625)"/>
       </defs>
       <use xlink:href="#DejaVuSans-30"/>
       <use xlink:href="#DejaVuSans-2e" transform="translate(63.623047 0)"/>
       <use xlink:href="#DejaVuSans-32" transform="translate(95.410156 0)"/>
      </g>
     </g>
    </g>
    <g id="ytick_3">
     <g id="line2d_4">
      <g>
       <use xlink:href="#mbd2f377c6c" x="43.78125" y="174.045477" style="stroke: #000000; stroke-width: 0.8"/>
      </g>
     </g>
     <g id="text_3">
      <!-- 0.4 -->
      <g transform="translate(20.878125 177.844695) scale(0.1 -0.1)">
       <defs>
        <path id="DejaVuSans-34" d="M 2419 4116 
L 825 1625 
L 2419 1625 
L 2419 4116 
z
M 2253 4666 
L 3047 4666 
L 3047 1625 
L 3713 1625 
L 3713 1100 
L 3047 1100 
L 3047 0 
L 2419 0 
L 2419 1100 
L 313 1100 
L 313 1709 
L 2253 4666 
z
" transform="scale(0.015625)"/>
       </defs>
       <use xlink:href="#DejaVuSans-30"/>
       <use xlink:href="#DejaVuSans-2e" transform="translate(63.623047 0)"/>
       <use xlink:href="#DejaVuSans-34" transform="translate(95.410156 0)"/>
      </g>
     </g>
    </g>
    <g id="ytick_4">
     <g id="line2d_5">
      <g>
       <use xlink:href="#mbd2f377c6c" x="43.78125" y="114.475533" style="stroke: #000000; stroke-width: 0.8"/>
      </g>
     </g>
     <g id="text_4">
      <!-- 0.6 -->
      <g transform="translate(20.878125 118.274751) scale(0.1 -0.1)">
       <defs>
        <path id="DejaVuSans-36" d="M 2113 2584 
Q 1688 2584 1439 2293 
Q 1191 2003 1191 1497 
Q 1191 994 1439 701 
Q 1688 409 2113 409 
Q 2538 409 2786 701 
Q 3034 994 3034 1497 
Q 3034 2003 2786 2293 
Q 2538 2584 2113 2584 
z
M 3366 4563 
L 3366 3988 
Q 3128 4100 2886 4159 
Q 2644 4219 2406 4219 
Q 1781 4219 1451 3797 
Q 1122 3375 1075 2522 
Q 1259 2794 1537 2939 
Q 1816 3084 2150 3084 
Q 2853 3084 3261 2657 
Q 3669 2231 3669 1497 
Q 3669 778 3244 343 
Q 2819 -91 2113 -91 
Q 1303 -91 875 529 
Q 447 1150 447 2328 
Q 447 3434 972 4092 
Q 1497 4750 2381 4750 
Q 2619 4750 2861 4703 
Q 3103 4656 3366 4563 
z
" transform="scale(0.015625)"/>
       </defs>
       <use xlink:href="#DejaVuSans-30"/>
       <use xlink:href="#DejaVuSans-2e" transform="translate(63.623047 0)"/>
       <use xlink:href="#DejaVuSans-36" transform="translate(95.410156 0)"/>
      </g>
     </g>
    </g>
    <g id="ytick_5">
     <g id="line2d_6">
      <g>
       <use xlink:href="#mbd2f377c6c" x="43.78125" y="54.905588" style="stroke: #000000; stroke-width: 0.8"/>
      </g>
     </g>
     <g id="text_5">
      <!-- 0.8 -->
      <g transform="translate(20.878125 58.704807) scale(0.1 -0.1)">
       <defs>
        <path id="DejaVuSans-38" d="M 2034 2216 
Q 1584 2216 1326 1975 
Q 1069 1734 1069 1313 
Q 1069 891 1326 650 
Q 1584 409 2034 409 
Q 2484 409 2743 651 
Q 3003 894 3003 1313 
Q 3003 1734 2745 1975 
Q 2488 2216 2034 2216 
z
M 1403 2484 
Q 997 2584 770 2862 
Q 544 3141 544 3541 
Q 544 4100 942 4425 
Q 1341 4750 2034 4750 
Q 2731 4750 3128 4425 
Q 3525 4100 3525 3541 
Q 3525 3141 3298 2862 
Q 3072 2584 2669 2484 
Q 3125 2378 3379 2068 
Q 3634 1759 3634 1313 
Q 3634 634 3220 271 
Q 2806 -91 2034 -91 
Q 1263 -91 848 271 
Q 434 634 434 1313 
Q 434 1759 690 2068 
Q 947 2378 1403 2484 
z
M 1172 3481 
Q 1172 3119 1398 2916 
Q 1625 2713 2034 2713 
Q 2441 2713 2670 2916 
Q 2900 3119 2900 3481 
Q 2900 3844 2670 4047 
Q 2441 4250 2034 4250 
Q 1625 4250 1398 4047 
Q 1172 3844 1172 3481 
z
" transform="scale(0.015625)"/>
       </defs>
       <use xlink:href="#DejaVuSans-30"/>
       <use xlink:href="#DejaVuSans-2e" transform="translate(63.623047 0)"/>
       <use xlink:href="#DejaVuSans-38" transform="translate(95.410156 0)"/>
      </g>
     </g>
    </g>
    <g id="text_6">
     <!-- r2 -->
     <g transform="translate(14.798438 180.245781) rotate(-90) scale(0.1 -0.1)">
      <defs>
       <path id="DejaVuSans-72" d="M 2631 2963 
Q 2534 3019 2420 3045 
Q 2306 3072 2169 3072 
Q 1681 3072 1420 2755 
Q 1159 2438 1159 1844 
L 1159 0 
L 581 0 
L 581 3500 
L 1159 3500 
L 1159 2956 
Q 1341 3275 1631 3429 
Q 1922 3584 2338 3584 
Q 2397 3584 2469 3576 
Q 2541 3569 2628 3553 
L 2631 2963 
z
" transform="scale(0.015625)"/>
      </defs>
      <use xlink:href="#DejaVuSans-72"/>
      <use xlink:href="#DejaVuSans-32" transform="translate(41.113281 0)"/>
     </g>
    </g>
   </g>
   <g id="patch_11">
    <path d="M 88.069312 265.921489 
L 120.278812 265.921489 
L 120.278812 258.790212 
L 88.069312 258.790212 
L 88.069312 265.921489 
z
" clip-path="url(#p41cb73b2e7)" style="fill: #32669b; stroke: #2c2c2c; stroke-linejoin: miter"/>
   </g>
   <g id="line2d_7">
    <path d="M 104.174062 265.921489 
L 104.174062 275.09067 
" clip-path="url(#p41cb73b2e7)" style="fill: none; stroke: #2c2c2c"/>
   </g>
   <g id="line2d_8">
    <path d="M 104.174062 258.790212 
L 104.174062 249.733848 
" clip-path="url(#p41cb73b2e7)" style="fill: none; stroke: #2c2c2c"/>
   </g>
   <g id="line2d_9">
    <path d="M 96.121687 275.09067 
L 112.226437 275.09067 
" clip-path="url(#p41cb73b2e7)" style="fill: none; stroke: #2c2c2c; stroke-linecap: square"/>
   </g>
   <g id="line2d_10">
    <path d="M 96.121687 249.733848 
L 112.226437 249.733848 
" clip-path="url(#p41cb73b2e7)" style="fill: none; stroke: #2c2c2c; stroke-linecap: square"/>
   </g>
   <g id="line2d_11"/>
   <g id="patch_12">
    <path d="M 128.331187 262.613475 
L 160.540687 262.613475 
L 160.540687 258.356661 
L 128.331187 258.356661 
L 128.331187 262.613475 
z
" clip-path="url(#p41cb73b2e7)" style="fill: #9d591c; stroke: #2c2c2c; stroke-linejoin: miter"/>
   </g>
   <g id="line2d_12">
    <path d="M 144.435937 262.613475 
L 144.435937 268.900116 
" clip-path="url(#p41cb73b2e7)" style="fill: none; stroke: #2c2c2c"/>
   </g>
   <g id="line2d_13">
    <path d="M 144.435937 258.356661 
L 144.435937 255.006553 
" clip-path="url(#p41cb73b2e7)" style="fill: none; stroke: #2c2c2c"/>
   </g>
   <g id="line2d_14">
    <path d="M 136.383562 268.900116 
L 152.488313 268.900116 
" clip-path="url(#p41cb73b2e7)" style="fill: none; stroke: #2c2c2c; stroke-linecap: square"/>
   </g>
   <g id="line2d_15">
    <path d="M 136.383562 255.006553 
L 152.488313 255.006553 
" clip-path="url(#p41cb73b2e7)" style="fill: none; stroke: #2c2c2c; stroke-linecap: square"/>
   </g>
   <g id="line2d_16">
    <defs>
     <path id="m2e89720c90" d="M 0 3 
C 0.795609 3 1.55874 2.683901 2.12132 2.12132 
C 2.683901 1.55874 3 0.795609 3 0 
C 3 -0.795609 2.683901 -1.55874 2.12132 -2.12132 
C 1.55874 -2.683901 0.795609 -3 0 -3 
C -0.795609 -3 -1.55874 -2.683901 -2.12132 -2.12132 
C -2.683901 -1.55874 -3 -0.795609 -3 0 
C -3 0.795609 -2.683901 1.55874 -2.12132 2.12132 
C -1.55874 2.683901 -0.795609 3 0 3 
z
" style="stroke: #2c2c2c"/>
    </defs>
    <g clip-path="url(#p41cb73b2e7)">
     <use xlink:href="#m2e89720c90" x="144.435937" y="313.819006" style="fill-opacity: 0; stroke: #2c2c2c"/>
     <use xlink:href="#m2e89720c90" x="144.435937" y="276.105707" style="fill-opacity: 0; stroke: #2c2c2c"/>
     <use xlink:href="#m2e89720c90" x="144.435937" y="270.073899" style="fill-opacity: 0; stroke: #2c2c2c"/>
    </g>
   </g>
   <g id="patch_13">
    <path d="M 168.593062 63.389812 
L 200.802562 63.389812 
L 200.802562 53.636282 
L 168.593062 53.636282 
L 168.593062 63.389812 
z
" clip-path="url(#p41cb73b2e7)" style="fill: #999999; stroke: #2c2c2c; stroke-linejoin: miter"/>
   </g>
   <g id="line2d_17">
    <path d="M 184.697812 63.389812 
L 184.697812 72.33095 
" clip-path="url(#p41cb73b2e7)" style="fill: none; stroke: #2c2c2c"/>
   </g>
   <g id="line2d_18">
    <path d="M 184.697812 53.636282 
L 184.697812 40.511159 
" clip-path="url(#p41cb73b2e7)" style="fill: none; stroke: #2c2c2c"/>
   </g>
   <g id="line2d_19">
    <path d="M 176.645437 72.33095 
L 192.750187 72.33095 
" clip-path="url(#p41cb73b2e7)" style="fill: none; stroke: #2c2c2c; stroke-linecap: square"/>
   </g>
   <g id="line2d_20">
    <path d="M 176.645437 40.511159 
L 192.750187 40.511159 
" clip-path="url(#p41cb73b2e7)" style="fill: none; stroke: #2c2c2c; stroke-linecap: square"/>
   </g>
   <g id="line2d_21">
    <g clip-path="url(#p41cb73b2e7)">
     <use xlink:href="#m2e89720c90" x="184.697812" y="36.199119" style="fill-opacity: 0; stroke: #2c2c2c"/>
    </g>
   </g>
   <g id="patch_14">
    <path d="M 208.854937 135.884956 
L 241.064437 135.884956 
L 241.064437 127.792722 
L 208.854937 127.792722 
L 208.854937 135.884956 
z
" clip-path="url(#p41cb73b2e7)" style="fill: #6e3578; stroke: #2c2c2c; stroke-linejoin: miter"/>
   </g>
   <g id="line2d_22">
    <path d="M 224.959687 135.884956 
L 224.959687 137.757946 
" clip-path="url(#p41cb73b2e7)" style="fill: none; stroke: #2c2c2c"/>
   </g>
   <g id="line2d_23">
    <path d="M 224.959687 127.792722 
L 224.959687 116.714887 
" clip-path="url(#p41cb73b2e7)" style="fill: none; stroke: #2c2c2c"/>
   </g>
   <g id="line2d_24">
    <path d="M 216.907312 137.757946 
L 233.012062 137.757946 
" clip-path="url(#p41cb73b2e7)" style="fill: none; stroke: #2c2c2c; stroke-linecap: square"/>
   </g>
   <g id="line2d_25">
    <path d="M 216.907312 116.714887 
L 233.012062 116.714887 
" clip-path="url(#p41cb73b2e7)" style="fill: none; stroke: #2c2c2c; stroke-linecap: square"/>
   </g>
   <g id="line2d_26">
    <g clip-path="url(#p41cb73b2e7)">
     <use xlink:href="#m2e89720c90" x="224.959687" y="150.899612" style="fill-opacity: 0; stroke: #2c2c2c"/>
    </g>
   </g>
   <g id="patch_15">
    <path d="M 249.116812 267.948265 
L 281.326312 267.948265 
L 281.326312 259.449776 
L 249.116812 259.449776 
L 249.116812 267.948265 
z
" clip-path="url(#p41cb73b2e7)" style="fill: #9cc2d4; stroke: #2c2c2c; stroke-linejoin: miter"/>
   </g>
   <g id="line2d_27">
    <path d="M 265.221562 267.948265 
L 265.221562 274.388024 
" clip-path="url(#p41cb73b2e7)" style="fill: none; stroke: #2c2c2c"/>
   </g>
   <g id="line2d_28">
    <path d="M 265.221562 259.449776 
L 265.221562 253.730384 
" clip-path="url(#p41cb73b2e7)" style="fill: none; stroke: #2c2c2c"/>
   </g>
   <g id="line2d_29">
    <path d="M 257.169187 274.388024 
L 273.273937 274.388024 
" clip-path="url(#p41cb73b2e7)" style="fill: none; stroke: #2c2c2c; stroke-linecap: square"/>
   </g>
   <g id="line2d_30">
    <path d="M 257.169187 253.730384 
L 273.273937 253.730384 
" clip-path="url(#p41cb73b2e7)" style="fill: none; stroke: #2c2c2c; stroke-linecap: square"/>
   </g>
   <g id="line2d_31"/>
   <g id="patch_16">
    <path d="M 289.378687 264.331395 
L 321.588187 264.331395 
L 321.588187 259.95572 
L 289.378687 259.95572 
L 289.378687 264.331395 
z
" clip-path="url(#p41cb73b2e7)" style="fill: #eab676; stroke: #2c2c2c; stroke-linejoin: miter"/>
   </g>
   <g id="line2d_32">
    <path d="M 305.483437 264.331395 
L 305.483437 267.491137 
" clip-path="url(#p41cb73b2e7)" style="fill: none; stroke: #2c2c2c"/>
   </g>
   <g id="line2d_33">
    <path d="M 305.483437 259.95572 
L 305.483437 255.006553 
" clip-path="url(#p41cb73b2e7)" style="fill: none; stroke: #2c2c2c"/>
   </g>
   <g id="line2d_34">
    <path d="M 297.431062 267.491137 
L 313.535812 267.491137 
" clip-path="url(#p41cb73b2e7)" style="fill: none; stroke: #2c2c2c; stroke-linecap: square"/>
   </g>
   <g id="line2d_35">
    <path d="M 297.431062 255.006553 
L 313.535812 255.006553 
" clip-path="url(#p41cb73b2e7)" style="fill: none; stroke: #2c2c2c; stroke-linecap: square"/>
   </g>
   <g id="line2d_36">
    <g clip-path="url(#p41cb73b2e7)">
     <use xlink:href="#m2e89720c90" x="305.483437" y="292.939573" style="fill-opacity: 0; stroke: #2c2c2c"/>
     <use xlink:href="#m2e89720c90" x="305.483437" y="271.94732" style="fill-opacity: 0; stroke: #2c2c2c"/>
     <use xlink:href="#m2e89720c90" x="305.483437" y="276.105707" style="fill-opacity: 0; stroke: #2c2c2c"/>
    </g>
   </g>
   <g id="patch_17">
    <path d="M 329.640562 173.361627 
L 361.850062 173.361627 
L 361.850062 158.591083 
L 329.640562 158.591083 
L 329.640562 173.361627 
z
" clip-path="url(#p41cb73b2e7)" style="fill: #acd4a7; stroke: #2c2c2c; stroke-linejoin: miter"/>
   </g>
   <g id="line2d_37">
    <path d="M 345.745312 173.361627 
L 345.745312 190.298278 
" clip-path="url(#p41cb73b2e7)" style="fill: none; stroke: #2c2c2c"/>
   </g>
   <g id="line2d_38">
    <path d="M 345.745312 158.591083 
L 345.745312 150.601005 
" clip-path="url(#p41cb73b2e7)" style="fill: none; stroke: #2c2c2c"/>
   </g>
   <g id="line2d_39">
    <path d="M 337.692937 190.298278 
L 353.797687 190.298278 
" clip-path="url(#p41cb73b2e7)" style="fill: none; stroke: #2c2c2c; stroke-linecap: square"/>
   </g>
   <g id="line2d_40">
    <path d="M 337.692937 150.601005 
L 353.797687 150.601005 
" clip-path="url(#p41cb73b2e7)" style="fill: none; stroke: #2c2c2c; stroke-linecap: square"/>
   </g>
   <g id="line2d_41"/>
   <g id="patch_18">
    <path d="M 369.902437 173.95925 
L 402.111937 173.95925 
L 402.111937 159.470772 
L 369.902437 159.470772 
L 369.902437 173.95925 
z
" clip-path="url(#p41cb73b2e7)" style="fill: #276c3c; stroke: #2c2c2c; stroke-linejoin: miter"/>
   </g>
   <g id="line2d_42">
    <path d="M 386.007187 173.95925 
L 386.007187 188.643673 
" clip-path="url(#p41cb73b2e7)" style="fill: none; stroke: #2c2c2c"/>
   </g>
   <g id="line2d_43">
    <path d="M 386.007187 159.470772 
L 386.007187 150.644879 
" clip-path="url(#p41cb73b2e7)" style="fill: none; stroke: #2c2c2c"/>
   </g>
   <g id="line2d_44">
    <path d="M 377.954813 188.643673 
L 394.059562 188.643673 
" clip-path="url(#p41cb73b2e7)" style="fill: none; stroke: #2c2c2c; stroke-linecap: square"/>
   </g>
   <g id="line2d_45">
    <path d="M 377.954813 150.644879 
L 394.059562 150.644879 
" clip-path="url(#p41cb73b2e7)" style="fill: none; stroke: #2c2c2c; stroke-linecap: square"/>
   </g>
   <g id="line2d_46"/>
   <g id="line2d_47">
    <path d="M 43.78125 57.15323 
L 446.4 57.15323 
" clip-path="url(#p41cb73b2e7)" style="fill: none; stroke-dasharray: 1.5,2.475; stroke-dashoffset: 0; stroke: #808080; stroke-width: 1.5"/>
   </g>
   <g id="line2d_48">
    <path d="M 88.069312 261.595428 
L 120.278812 261.595428 
" clip-path="url(#p41cb73b2e7)" style="fill: none; stroke: #2c2c2c"/>
   </g>
   <g id="line2d_49">
    <path d="M 128.331187 260.09028 
L 160.540687 260.09028 
" clip-path="url(#p41cb73b2e7)" style="fill: none; stroke: #2c2c2c"/>
   </g>
   <g id="line2d_50">
    <path d="M 168.593062 57.15323 
L 200.802562 57.15323 
" clip-path="url(#p41cb73b2e7)" style="fill: none; stroke: #2c2c2c"/>
   </g>
   <g id="line2d_51">
    <path d="M 208.854937 131.770606 
L 241.064437 131.770606 
" clip-path="url(#p41cb73b2e7)" style="fill: none; stroke: #2c2c2c"/>
   </g>
   <g id="line2d_52">
    <path d="M 249.116812 263.901978 
L 281.326312 263.901978 
" clip-path="url(#p41cb73b2e7)" style="fill: none; stroke: #2c2c2c"/>
   </g>
   <g id="line2d_53">
    <path d="M 289.378687 261.142792 
L 321.588187 261.142792 
" clip-path="url(#p41cb73b2e7)" style="fill: none; stroke: #2c2c2c"/>
   </g>
   <g id="line2d_54">
    <path d="M 329.640562 166.190231 
L 361.850062 166.190231 
" clip-path="url(#p41cb73b2e7)" style="fill: none; stroke: #2c2c2c"/>
   </g>
   <g id="line2d_55">
    <path d="M 369.902437 166.041677 
L 402.111937 166.041677 
" clip-path="url(#p41cb73b2e7)" style="fill: none; stroke: #2c2c2c"/>
   </g>
   <g id="patch_19">
    <path d="M 43.78125 327.7 
L 43.78125 22.318125 
" style="fill: none; stroke: #000000; stroke-width: 0.8; stroke-linejoin: miter; stroke-linecap: square"/>
   </g>
   <g id="patch_20">
    <path d="M 446.4 327.7 
L 446.4 22.318125 
" style="fill: none; stroke: #000000; stroke-width: 0.8; stroke-linejoin: miter; stroke-linecap: square"/>
   </g>
   <g id="patch_21">
    <path d="M 43.78125 327.7 
L 446.4 327.7 
" style="fill: none; stroke: #000000; stroke-width: 0.8; stroke-linejoin: miter; stroke-linecap: square"/>
   </g>
   <g id="patch_22">
    <path d="M 43.78125 22.318125 
L 446.4 22.318125 
" style="fill: none; stroke: #000000; stroke-width: 0.8; stroke-linejoin: miter; stroke-linecap: square"/>
   </g>
   <g id="text_7">
    <!-- pionono_12 -->
    <g transform="translate(210.360937 16.318125) scale(0.12 -0.12)">
     <defs>
      <path id="DejaVuSans-70" d="M 1159 525 
L 1159 -1331 
L 581 -1331 
L 581 3500 
L 1159 3500 
L 1159 2969 
Q 1341 3281 1617 3432 
Q 1894 3584 2278 3584 
Q 2916 3584 3314 3078 
Q 3713 2572 3713 1747 
Q 3713 922 3314 415 
Q 2916 -91 2278 -91 
Q 1894 -91 1617 61 
Q 1341 213 1159 525 
z
M 3116 1747 
Q 3116 2381 2855 2742 
Q 2594 3103 2138 3103 
Q 1681 3103 1420 2742 
Q 1159 2381 1159 1747 
Q 1159 1113 1420 752 
Q 1681 391 2138 391 
Q 2594 391 2855 752 
Q 3116 1113 3116 1747 
z
" transform="scale(0.015625)"/>
      <path id="DejaVuSans-69" d="M 603 3500 
L 1178 3500 
L 1178 0 
L 603 0 
L 603 3500 
z
M 603 4863 
L 1178 4863 
L 1178 4134 
L 603 4134 
L 603 4863 
z
" transform="scale(0.015625)"/>
      <path id="DejaVuSans-6f" d="M 1959 3097 
Q 1497 3097 1228 2736 
Q 959 2375 959 1747 
Q 959 1119 1226 758 
Q 1494 397 1959 397 
Q 2419 397 2687 759 
Q 2956 1122 2956 1747 
Q 2956 2369 2687 2733 
Q 2419 3097 1959 3097 
z
M 1959 3584 
Q 2709 3584 3137 3096 
Q 3566 2609 3566 1747 
Q 3566 888 3137 398 
Q 2709 -91 1959 -91 
Q 1206 -91 779 398 
Q 353 888 353 1747 
Q 353 2609 779 3096 
Q 1206 3584 1959 3584 
z
" transform="scale(0.015625)"/>
      <path id="DejaVuSans-6e" d="M 3513 2113 
L 3513 0 
L 2938 0 
L 2938 2094 
Q 2938 2591 2744 2837 
Q 2550 3084 2163 3084 
Q 1697 3084 1428 2787 
Q 1159 2491 1159 1978 
L 1159 0 
L 581 0 
L 581 3500 
L 1159 3500 
L 1159 2956 
Q 1366 3272 1645 3428 
Q 1925 3584 2291 3584 
Q 2894 3584 3203 3211 
Q 3513 2838 3513 2113 
z
" transform="scale(0.015625)"/>
      <path id="DejaVuSans-5f" d="M 3263 -1063 
L 3263 -1509 
L -63 -1509 
L -63 -1063 
L 3263 -1063 
z
" transform="scale(0.015625)"/>
      <path id="DejaVuSans-31" d="M 794 531 
L 1825 531 
L 1825 4091 
L 703 3866 
L 703 4441 
L 1819 4666 
L 2450 4666 
L 2450 531 
L 3481 531 
L 3481 0 
L 794 0 
L 794 531 
z
" transform="scale(0.015625)"/>
     </defs>
     <use xlink:href="#DejaVuSans-70"/>
     <use xlink:href="#DejaVuSans-69" transform="translate(63.476562 0)"/>
     <use xlink:href="#DejaVuSans-6f" transform="translate(91.259766 0)"/>
     <use xlink:href="#DejaVuSans-6e" transform="translate(152.441406 0)"/>
     <use xlink:href="#DejaVuSans-6f" transform="translate(215.820312 0)"/>
     <use xlink:href="#DejaVuSans-6e" transform="translate(277.001953 0)"/>
     <use xlink:href="#DejaVuSans-6f" transform="translate(340.380859 0)"/>
     <use xlink:href="#DejaVuSans-5f" transform="translate(401.5625 0)"/>
     <use xlink:href="#DejaVuSans-31" transform="translate(451.5625 0)"/>
     <use xlink:href="#DejaVuSans-32" transform="translate(515.185547 0)"/>
    </g>
   </g>
   <g id="legend_1">
    <g id="patch_23">
     <path d="M 50.78125 242.560625 
L 103.939063 242.560625 
Q 105.939063 242.560625 105.939063 240.560625 
L 105.939063 109.4575 
Q 105.939063 107.4575 103.939063 107.4575 
L 50.78125 107.4575 
Q 48.78125 107.4575 48.78125 109.4575 
L 48.78125 240.560625 
Q 48.78125 242.560625 50.78125 242.560625 
z
" style="fill: #ffffff; opacity: 0.8; stroke: #cccccc; stroke-linejoin: miter"/>
    </g>
    <g id="text_8">
     <!-- clf -->
     <g transform="translate(71.461719 119.055937) scale(0.1 -0.1)">
      <defs>
       <path id="DejaVuSans-63" d="M 3122 3366 
L 3122 2828 
Q 2878 2963 2633 3030 
Q 2388 3097 2138 3097 
Q 1578 3097 1268 2742 
Q 959 2388 959 1747 
Q 959 1106 1268 751 
Q 1578 397 2138 397 
Q 2388 397 2633 464 
Q 2878 531 3122 666 
L 3122 134 
Q 2881 22 2623 -34 
Q 2366 -91 2075 -91 
Q 1284 -91 818 406 
Q 353 903 353 1747 
Q 353 2603 823 3093 
Q 1294 3584 2113 3584 
Q 2378 3584 2631 3529 
Q 2884 3475 3122 3366 
z
" transform="scale(0.015625)"/>
       <path id="DejaVuSans-6c" d="M 603 4863 
L 1178 4863 
L 1178 0 
L 603 0 
L 603 4863 
z
" transform="scale(0.015625)"/>
       <path id="DejaVuSans-66" d="M 2375 4863 
L 2375 4384 
L 1825 4384 
Q 1516 4384 1395 4259 
Q 1275 4134 1275 3809 
L 1275 3500 
L 2222 3500 
L 2222 3053 
L 1275 3053 
L 1275 0 
L 697 0 
L 697 3053 
L 147 3053 
L 147 3500 
L 697 3500 
L 697 3744 
Q 697 4328 969 4595 
Q 1241 4863 1831 4863 
L 2375 4863 
z
" transform="scale(0.015625)"/>
      </defs>
      <use xlink:href="#DejaVuSans-63"/>
      <use xlink:href="#DejaVuSans-6c" transform="translate(54.980469 0)"/>
      <use xlink:href="#DejaVuSans-66" transform="translate(82.763672 0)"/>
     </g>
    </g>
    <g id="patch_24">
     <path d="M 52.78125 133.734062 
L 72.78125 133.734062 
L 72.78125 126.734062 
L 52.78125 126.734062 
z
" style="fill: #32669b; stroke: #2c2c2c; stroke-linejoin: miter"/>
    </g>
    <g id="text_9">
     <!-- fkdc -->
     <g transform="translate(80.78125 133.734062) scale(0.1 -0.1)">
      <defs>
       <path id="DejaVuSans-6b" d="M 581 4863 
L 1159 4863 
L 1159 1991 
L 2875 3500 
L 3609 3500 
L 1753 1863 
L 3688 0 
L 2938 0 
L 1159 1709 
L 1159 0 
L 581 0 
L 581 4863 
z
" transform="scale(0.015625)"/>
       <path id="DejaVuSans-64" d="M 2906 2969 
L 2906 4863 
L 3481 4863 
L 3481 0 
L 2906 0 
L 2906 525 
Q 2725 213 2448 61 
Q 2172 -91 1784 -91 
Q 1150 -91 751 415 
Q 353 922 353 1747 
Q 353 2572 751 3078 
Q 1150 3584 1784 3584 
Q 2172 3584 2448 3432 
Q 2725 3281 2906 2969 
z
M 947 1747 
Q 947 1113 1208 752 
Q 1469 391 1925 391 
Q 2381 391 2643 752 
Q 2906 1113 2906 1747 
Q 2906 2381 2643 2742 
Q 2381 3103 1925 3103 
Q 1469 3103 1208 2742 
Q 947 2381 947 1747 
z
" transform="scale(0.015625)"/>
      </defs>
      <use xlink:href="#DejaVuSans-66"/>
      <use xlink:href="#DejaVuSans-6b" transform="translate(35.205078 0)"/>
      <use xlink:href="#DejaVuSans-64" transform="translate(93.115234 0)"/>
      <use xlink:href="#DejaVuSans-63" transform="translate(156.591797 0)"/>
     </g>
    </g>
    <g id="patch_25">
     <path d="M 52.78125 148.412188 
L 72.78125 148.412188 
L 72.78125 141.412188 
L 52.78125 141.412188 
z
" style="fill: #9d591c; stroke: #2c2c2c; stroke-linejoin: miter"/>
    </g>
    <g id="text_10">
     <!-- fkn -->
     <g transform="translate(80.78125 148.412188) scale(0.1 -0.1)">
      <use xlink:href="#DejaVuSans-66"/>
      <use xlink:href="#DejaVuSans-6b" transform="translate(35.205078 0)"/>
      <use xlink:href="#DejaVuSans-6e" transform="translate(93.115234 0)"/>
     </g>
    </g>
    <g id="patch_26">
     <path d="M 52.78125 163.090312 
L 72.78125 163.090312 
L 72.78125 156.090312 
L 52.78125 156.090312 
z
" style="fill: #999999; stroke: #2c2c2c; stroke-linejoin: miter"/>
    </g>
    <g id="text_11">
     <!-- gbt -->
     <g transform="translate(80.78125 163.090312) scale(0.1 -0.1)">
      <defs>
       <path id="DejaVuSans-67" d="M 2906 1791 
Q 2906 2416 2648 2759 
Q 2391 3103 1925 3103 
Q 1463 3103 1205 2759 
Q 947 2416 947 1791 
Q 947 1169 1205 825 
Q 1463 481 1925 481 
Q 2391 481 2648 825 
Q 2906 1169 2906 1791 
z
M 3481 434 
Q 3481 -459 3084 -895 
Q 2688 -1331 1869 -1331 
Q 1566 -1331 1297 -1286 
Q 1028 -1241 775 -1147 
L 775 -588 
Q 1028 -725 1275 -790 
Q 1522 -856 1778 -856 
Q 2344 -856 2625 -561 
Q 2906 -266 2906 331 
L 2906 616 
Q 2728 306 2450 153 
Q 2172 0 1784 0 
Q 1141 0 747 490 
Q 353 981 353 1791 
Q 353 2603 747 3093 
Q 1141 3584 1784 3584 
Q 2172 3584 2450 3431 
Q 2728 3278 2906 2969 
L 2906 3500 
L 3481 3500 
L 3481 434 
z
" transform="scale(0.015625)"/>
       <path id="DejaVuSans-62" d="M 3116 1747 
Q 3116 2381 2855 2742 
Q 2594 3103 2138 3103 
Q 1681 3103 1420 2742 
Q 1159 2381 1159 1747 
Q 1159 1113 1420 752 
Q 1681 391 2138 391 
Q 2594 391 2855 752 
Q 3116 1113 3116 1747 
z
M 1159 2969 
Q 1341 3281 1617 3432 
Q 1894 3584 2278 3584 
Q 2916 3584 3314 3078 
Q 3713 2572 3713 1747 
Q 3713 922 3314 415 
Q 2916 -91 2278 -91 
Q 1894 -91 1617 61 
Q 1341 213 1159 525 
L 1159 0 
L 581 0 
L 581 4863 
L 1159 4863 
L 1159 2969 
z
" transform="scale(0.015625)"/>
       <path id="DejaVuSans-74" d="M 1172 4494 
L 1172 3500 
L 2356 3500 
L 2356 3053 
L 1172 3053 
L 1172 1153 
Q 1172 725 1289 603 
Q 1406 481 1766 481 
L 2356 481 
L 2356 0 
L 1766 0 
Q 1100 0 847 248 
Q 594 497 594 1153 
L 594 3053 
L 172 3053 
L 172 3500 
L 594 3500 
L 594 4494 
L 1172 4494 
z
" transform="scale(0.015625)"/>
      </defs>
      <use xlink:href="#DejaVuSans-67"/>
      <use xlink:href="#DejaVuSans-62" transform="translate(63.476562 0)"/>
      <use xlink:href="#DejaVuSans-74" transform="translate(126.953125 0)"/>
     </g>
    </g>
    <g id="patch_27">
     <path d="M 52.78125 177.768438 
L 72.78125 177.768438 
L 72.78125 170.768438 
L 52.78125 170.768438 
z
" style="fill: #6e3578; stroke: #2c2c2c; stroke-linejoin: miter"/>
    </g>
    <g id="text_12">
     <!-- gnb -->
     <g transform="translate(80.78125 177.768438) scale(0.1 -0.1)">
      <use xlink:href="#DejaVuSans-67"/>
      <use xlink:href="#DejaVuSans-6e" transform="translate(63.476562 0)"/>
      <use xlink:href="#DejaVuSans-62" transform="translate(126.855469 0)"/>
     </g>
    </g>
    <g id="patch_28">
     <path d="M 52.78125 192.446562 
L 72.78125 192.446562 
L 72.78125 185.446562 
L 52.78125 185.446562 
z
" style="fill: url(#h984df53af4); stroke: #ffffff; stroke-linejoin: miter"/>
    </g>
    <g id="text_13">
     <!-- kdc -->
     <g transform="translate(80.78125 192.446562) scale(0.1 -0.1)">
      <use xlink:href="#DejaVuSans-6b"/>
      <use xlink:href="#DejaVuSans-64" transform="translate(57.910156 0)"/>
      <use xlink:href="#DejaVuSans-63" transform="translate(121.386719 0)"/>
     </g>
    </g>
    <g id="patch_29">
     <path d="M 52.78125 207.124687 
L 72.78125 207.124687 
L 72.78125 200.124687 
L 52.78125 200.124687 
z
" style="fill: url(#h603ee7f45f); stroke: #ffffff; stroke-linejoin: miter"/>
    </g>
    <g id="text_14">
     <!-- kn -->
     <g transform="translate(80.78125 207.124687) scale(0.1 -0.1)">
      <use xlink:href="#DejaVuSans-6b"/>
      <use xlink:href="#DejaVuSans-6e" transform="translate(57.910156 0)"/>
     </g>
    </g>
    <g id="patch_30">
     <path d="M 52.78125 221.802812 
L 72.78125 221.802812 
L 72.78125 214.802812 
L 52.78125 214.802812 
z
" style="fill: url(#h36f2edb80c); stroke: #ffffff; stroke-linejoin: miter"/>
    </g>
    <g id="text_15">
     <!-- lr -->
     <g transform="translate(80.78125 221.802812) scale(0.1 -0.1)">
      <use xlink:href="#DejaVuSans-6c"/>
      <use xlink:href="#DejaVuSans-72" transform="translate(27.783203 0)"/>
     </g>
    </g>
    <g id="patch_31">
     <path d="M 52.78125 236.480937 
L 72.78125 236.480937 
L 72.78125 229.480937 
L 52.78125 229.480937 
z
" style="fill: #276c3c; stroke: #2c2c2c; stroke-linejoin: miter"/>
    </g>
    <g id="text_16">
     <!-- slr -->
     <g transform="translate(80.78125 236.480937) scale(0.1 -0.1)">
      <defs>
       <path id="DejaVuSans-73" d="M 2834 3397 
L 2834 2853 
Q 2591 2978 2328 3040 
Q 2066 3103 1784 3103 
Q 1356 3103 1142 2972 
Q 928 2841 928 2578 
Q 928 2378 1081 2264 
Q 1234 2150 1697 2047 
L 1894 2003 
Q 2506 1872 2764 1633 
Q 3022 1394 3022 966 
Q 3022 478 2636 193 
Q 2250 -91 1575 -91 
Q 1294 -91 989 -36 
Q 684 19 347 128 
L 347 722 
Q 666 556 975 473 
Q 1284 391 1588 391 
Q 1994 391 2212 530 
Q 2431 669 2431 922 
Q 2431 1156 2273 1281 
Q 2116 1406 1581 1522 
L 1381 1569 
Q 847 1681 609 1914 
Q 372 2147 372 2553 
Q 372 3047 722 3315 
Q 1072 3584 1716 3584 
Q 2034 3584 2315 3537 
Q 2597 3491 2834 3397 
z
" transform="scale(0.015625)"/>
      </defs>
      <use xlink:href="#DejaVuSans-73"/>
      <use xlink:href="#DejaVuSans-6c" transform="translate(52.099609 0)"/>
      <use xlink:href="#DejaVuSans-72" transform="translate(79.882812 0)"/>
     </g>
    </g>
   </g>
  </g>
 </g>
 <defs>
  <clipPath id="p41cb73b2e7">
   <rect x="43.78125" y="22.318125" width="402.61875" height="305.381875"/>
  </clipPath>
 </defs>
 <defs>
  <pattern id="h984df53af4" patternUnits="userSpaceOnUse" x="0" y="0" width="72" height="72">
   <rect x="0" y="0" width="73" height="73" fill="#9cc2d4"/>
   <path d="M -36 36 
L 36 -36 
M -30 42 
L 42 -30 
M -24 48 
L 48 -24 
M -18 54 
L 54 -18 
M -12 60 
L 60 -12 
M -6 66 
L 66 -6 
M 0 72 
L 72 0 
M 6 78 
L 78 6 
M 12 84 
L 84 12 
M 18 90 
L 90 18 
M 24 96 
L 96 24 
M 30 102 
L 102 30 
M 36 108 
L 108 36 
" style="fill: #ffffff; stroke: #ffffff; stroke-width: 1.0; stroke-linecap: butt; stroke-linejoin: miter"/>
  </pattern>
  <pattern id="h603ee7f45f" patternUnits="userSpaceOnUse" x="0" y="0" width="72" height="72">
   <rect x="0" y="0" width="73" height="73" fill="#eab676"/>
   <path d="M -36 36 
L 36 -36 
M -30 42 
L 42 -30 
M -24 48 
L 48 -24 
M -18 54 
L 54 -18 
M -12 60 
L 60 -12 
M -6 66 
L 66 -6 
M 0 72 
L 72 0 
M 6 78 
L 78 6 
M 12 84 
L 84 12 
M 18 90 
L 90 18 
M 24 96 
L 96 24 
M 30 102 
L 102 30 
M 36 108 
L 108 36 
" style="fill: #ffffff; stroke: #ffffff; stroke-width: 1.0; stroke-linecap: butt; stroke-linejoin: miter"/>
  </pattern>
  <pattern id="h36f2edb80c" patternUnits="userSpaceOnUse" x="0" y="0" width="72" height="72">
   <rect x="0" y="0" width="73" height="73" fill="#acd4a7"/>
   <path d="M -36 36 
L 36 -36 
M -30 42 
L 42 -30 
M -24 48 
L 48 -24 
M -18 54 
L 54 -18 
M -12 60 
L 60 -12 
M -6 66 
L 66 -6 
M 0 72 
L 72 0 
M 6 78 
L 78 6 
M 12 84 
L 84 12 
M 18 90 
L 90 18 
M 24 96 
L 96 24 
M 30 102 
L 102 30 
M 36 108 
L 108 36 
" style="fill: #ffffff; stroke: #ffffff; stroke-width: 1.0; stroke-linecap: butt; stroke-linejoin: miter"/>
  </pattern>
 </defs>
</svg>
