<?xml version="1.0" encoding="utf-8" standalone="no"?>
<!DOCTYPE svg PUBLIC "-//W3C//DTD SVG 1.1//EN"
  "http://www.w3.org/Graphics/SVG/1.1/DTD/svg11.dtd">
<svg xmlns:xlink="http://www.w3.org/1999/xlink" width="1144.8pt" height="424.8pt" viewBox="0 0 1144.8 424.8" xmlns="http://www.w3.org/2000/svg" version="1.1">
 <metadata>
  <rdf:RDF xmlns:dc="http://purl.org/dc/elements/1.1/" xmlns:cc="http://creativecommons.org/ns#" xmlns:rdf="http://www.w3.org/1999/02/22-rdf-syntax-ns#">
   <cc:Work>
    <dc:type rdf:resource="http://purl.org/dc/dcmitype/StillImage"/>
    <dc:date>1970-01-01T00:00:00+00:00</dc:date>
    <dc:format>image/svg+xml</dc:format>
    <dc:creator>
     <cc:Agent>
      <dc:title>Matplotlib v3.10.7, https://matplotlib.org/</dc:title>
     </cc:Agent>
    </dc:creator>
   </cc:Work>
  </rdf:RDF>
 </metadata>
 <defs>
  <style type="text/css">*{stroke-linejoin: round; stroke-linecap: butt}</style>
 </defs>
 <g id="figure_1">
  <g id="patch_1">
   <path d="M 0 424.8 
L 1144.8 424.8 
L 1144.8 0 
L 0 0 
z
" style="fill: #ffffff"/>
  </g>
  <g id="axes_1">
   <g id="patch_2">
    <path d="M 30.103125 400.921875 
L 576.701562 400.921875 
L 576.701562 22.318125 
L 30.103125 22.318125 
z
" style="fill: #ffffff"/>
   </g>
   <g id="matplotlib.axis_1">
    <g id="xtick_1">
     <g id="line2d_1">
      <defs>
       <path id="m38f3b05bbe" d="M 0 0 
L 0 3.5 
" style="stroke: #000000; stroke-width: 0.8"/>
      </defs>
      <g>
       <use xlink:href="#m38f3b05bbe" x="104.689016" y="400.921875" style="stroke: #000000; stroke-width: 0.8"/>
      </g>
     </g>
     <g id="text_1">
      <!-- -4 -->
      <g transform="translate(99.70386 415.520312) scale(0.1 -0.1)">
       <defs>
        <path id="DejaVuSans-2d" d="M 313 2009 
L 1997 2009 
L 1997 1497 
L 313 1497 
L 313 2009 
z
" transform="scale(0.015625)"/>
        <path id="DejaVuSans-34" d="M 2419 4116 
L 825 1625 
L 2419 1625 
L 2419 4116 
z
M 2253 4666 
L 3047 4666 
L 3047 1625 
L 3713 1625 
L 3713 1100 
L 3047 1100 
L 3047 0 
L 2419 0 
L 2419 1100 
L 313 1100 
L 313 1709 
L 2253 4666 
z
" transform="scale(0.015625)"/>
       </defs>
       <use xlink:href="#DejaVuSans-2d"/>
       <use xlink:href="#DejaVuSans-34" transform="translate(36.083984 0)"/>
      </g>
     </g>
    </g>
    <g id="xtick_2">
     <g id="line2d_2">
      <g>
       <use xlink:href="#m38f3b05bbe" x="204.170031" y="400.921875" style="stroke: #000000; stroke-width: 0.8"/>
      </g>
     </g>
     <g id="text_2">
      <!-- -2 -->
      <g transform="translate(199.184875 415.520312) scale(0.1 -0.1)">
       <defs>
        <path id="DejaVuSans-32" d="M 1228 531 
L 3431 531 
L 3431 0 
L 469 0 
L 469 531 
Q 828 903 1448 1529 
Q 2069 2156 2228 2338 
Q 2531 2678 2651 2914 
Q 2772 3150 2772 3378 
Q 2772 3750 2511 3984 
Q 2250 4219 1831 4219 
Q 1534 4219 1204 4116 
Q 875 4013 500 3803 
L 500 4441 
Q 881 4594 1212 4672 
Q 1544 4750 1819 4750 
Q 2544 4750 2975 4387 
Q 3406 4025 3406 3419 
Q 3406 3131 3298 2873 
Q 3191 2616 2906 2266 
Q 2828 2175 2409 1742 
Q 1991 1309 1228 531 
z
" transform="scale(0.015625)"/>
       </defs>
       <use xlink:href="#DejaVuSans-2d"/>
       <use xlink:href="#DejaVuSans-32" transform="translate(36.083984 0)"/>
      </g>
     </g>
    </g>
    <g id="xtick_3">
     <g id="line2d_3">
      <g>
       <use xlink:href="#m38f3b05bbe" x="303.651046" y="400.921875" style="stroke: #000000; stroke-width: 0.8"/>
      </g>
     </g>
     <g id="text_3">
      <!-- 0 -->
      <g transform="translate(300.469796 415.520312) scale(0.1 -0.1)">
       <defs>
        <path id="DejaVuSans-30" d="M 2034 4250 
Q 1547 4250 1301 3770 
Q 1056 3291 1056 2328 
Q 1056 1369 1301 889 
Q 1547 409 2034 409 
Q 2525 409 2770 889 
Q 3016 1369 3016 2328 
Q 3016 3291 2770 3770 
Q 2525 4250 2034 4250 
z
M 2034 4750 
Q 2819 4750 3233 4129 
Q 3647 3509 3647 2328 
Q 3647 1150 3233 529 
Q 2819 -91 2034 -91 
Q 1250 -91 836 529 
Q 422 1150 422 2328 
Q 422 3509 836 4129 
Q 1250 4750 2034 4750 
z
" transform="scale(0.015625)"/>
       </defs>
       <use xlink:href="#DejaVuSans-30"/>
      </g>
     </g>
    </g>
    <g id="xtick_4">
     <g id="line2d_4">
      <g>
       <use xlink:href="#m38f3b05bbe" x="403.132061" y="400.921875" style="stroke: #000000; stroke-width: 0.8"/>
      </g>
     </g>
     <g id="text_4">
      <!-- 2 -->
      <g transform="translate(399.950811 415.520312) scale(0.1 -0.1)">
       <use xlink:href="#DejaVuSans-32"/>
      </g>
     </g>
    </g>
    <g id="xtick_5">
     <g id="line2d_5">
      <g>
       <use xlink:href="#m38f3b05bbe" x="502.613076" y="400.921875" style="stroke: #000000; stroke-width: 0.8"/>
      </g>
     </g>
     <g id="text_5">
      <!-- 4 -->
      <g transform="translate(499.431826 415.520312) scale(0.1 -0.1)">
       <use xlink:href="#DejaVuSans-34"/>
      </g>
     </g>
    </g>
   </g>
   <g id="matplotlib.axis_2">
    <g id="ytick_1">
     <g id="line2d_6">
      <defs>
       <path id="mbd2f377c6c" d="M 0 0 
L -3.5 0 
" style="stroke: #000000; stroke-width: 0.8"/>
      </defs>
      <g>
       <use xlink:href="#mbd2f377c6c" x="30.103125" y="383.712614" style="stroke: #000000; stroke-width: 0.8"/>
      </g>
     </g>
     <g id="text_6">
      <!-- 0.0 -->
      <g transform="translate(7.2 387.511832) scale(0.1 -0.1)">
       <defs>
        <path id="DejaVuSans-2e" d="M 684 794 
L 1344 794 
L 1344 0 
L 684 0 
L 684 794 
z
" transform="scale(0.015625)"/>
       </defs>
       <use xlink:href="#DejaVuSans-30"/>
       <use xlink:href="#DejaVuSans-2e" transform="translate(63.623047 0)"/>
       <use xlink:href="#DejaVuSans-30" transform="translate(95.410156 0)"/>
      </g>
     </g>
    </g>
    <g id="ytick_2">
     <g id="line2d_7">
      <g>
       <use xlink:href="#mbd2f377c6c" x="30.103125" y="330.76104" style="stroke: #000000; stroke-width: 0.8"/>
      </g>
     </g>
     <g id="text_7">
      <!-- 0.1 -->
      <g transform="translate(7.2 334.560259) scale(0.1 -0.1)">
       <defs>
        <path id="DejaVuSans-31" d="M 794 531 
L 1825 531 
L 1825 4091 
L 703 3866 
L 703 4441 
L 1819 4666 
L 2450 4666 
L 2450 531 
L 3481 531 
L 3481 0 
L 794 0 
L 794 531 
z
" transform="scale(0.015625)"/>
       </defs>
       <use xlink:href="#DejaVuSans-30"/>
       <use xlink:href="#DejaVuSans-2e" transform="translate(63.623047 0)"/>
       <use xlink:href="#DejaVuSans-31" transform="translate(95.410156 0)"/>
      </g>
     </g>
    </g>
    <g id="ytick_3">
     <g id="line2d_8">
      <g>
       <use xlink:href="#mbd2f377c6c" x="30.103125" y="277.809467" style="stroke: #000000; stroke-width: 0.8"/>
      </g>
     </g>
     <g id="text_8">
      <!-- 0.2 -->
      <g transform="translate(7.2 281.608686) scale(0.1 -0.1)">
       <use xlink:href="#DejaVuSans-30"/>
       <use xlink:href="#DejaVuSans-2e" transform="translate(63.623047 0)"/>
       <use xlink:href="#DejaVuSans-32" transform="translate(95.410156 0)"/>
      </g>
     </g>
    </g>
    <g id="ytick_4">
     <g id="line2d_9">
      <g>
       <use xlink:href="#mbd2f377c6c" x="30.103125" y="224.857893" style="stroke: #000000; stroke-width: 0.8"/>
      </g>
     </g>
     <g id="text_9">
      <!-- 0.3 -->
      <g transform="translate(7.2 228.657112) scale(0.1 -0.1)">
       <defs>
        <path id="DejaVuSans-33" d="M 2597 2516 
Q 3050 2419 3304 2112 
Q 3559 1806 3559 1356 
Q 3559 666 3084 287 
Q 2609 -91 1734 -91 
Q 1441 -91 1130 -33 
Q 819 25 488 141 
L 488 750 
Q 750 597 1062 519 
Q 1375 441 1716 441 
Q 2309 441 2620 675 
Q 2931 909 2931 1356 
Q 2931 1769 2642 2001 
Q 2353 2234 1838 2234 
L 1294 2234 
L 1294 2753 
L 1863 2753 
Q 2328 2753 2575 2939 
Q 2822 3125 2822 3475 
Q 2822 3834 2567 4026 
Q 2313 4219 1838 4219 
Q 1578 4219 1281 4162 
Q 984 4106 628 3988 
L 628 4550 
Q 988 4650 1302 4700 
Q 1616 4750 1894 4750 
Q 2613 4750 3031 4423 
Q 3450 4097 3450 3541 
Q 3450 3153 3228 2886 
Q 3006 2619 2597 2516 
z
" transform="scale(0.015625)"/>
       </defs>
       <use xlink:href="#DejaVuSans-30"/>
       <use xlink:href="#DejaVuSans-2e" transform="translate(63.623047 0)"/>
       <use xlink:href="#DejaVuSans-33" transform="translate(95.410156 0)"/>
      </g>
     </g>
    </g>
    <g id="ytick_5">
     <g id="line2d_10">
      <g>
       <use xlink:href="#mbd2f377c6c" x="30.103125" y="171.90632" style="stroke: #000000; stroke-width: 0.8"/>
      </g>
     </g>
     <g id="text_10">
      <!-- 0.4 -->
      <g transform="translate(7.2 175.705539) scale(0.1 -0.1)">
       <use xlink:href="#DejaVuSans-30"/>
       <use xlink:href="#DejaVuSans-2e" transform="translate(63.623047 0)"/>
       <use xlink:href="#DejaVuSans-34" transform="translate(95.410156 0)"/>
      </g>
     </g>
    </g>
    <g id="ytick_6">
     <g id="line2d_11">
      <g>
       <use xlink:href="#mbd2f377c6c" x="30.103125" y="118.954747" style="stroke: #000000; stroke-width: 0.8"/>
      </g>
     </g>
     <g id="text_11">
      <!-- 0.5 -->
      <g transform="translate(7.2 122.753965) scale(0.1 -0.1)">
       <defs>
        <path id="DejaVuSans-35" d="M 691 4666 
L 3169 4666 
L 3169 4134 
L 1269 4134 
L 1269 2991 
Q 1406 3038 1543 3061 
Q 1681 3084 1819 3084 
Q 2600 3084 3056 2656 
Q 3513 2228 3513 1497 
Q 3513 744 3044 326 
Q 2575 -91 1722 -91 
Q 1428 -91 1123 -41 
Q 819 9 494 109 
L 494 744 
Q 775 591 1075 516 
Q 1375 441 1709 441 
Q 2250 441 2565 725 
Q 2881 1009 2881 1497 
Q 2881 1984 2565 2268 
Q 2250 2553 1709 2553 
Q 1456 2553 1204 2497 
Q 953 2441 691 2322 
L 691 4666 
z
" transform="scale(0.015625)"/>
       </defs>
       <use xlink:href="#DejaVuSans-30"/>
       <use xlink:href="#DejaVuSans-2e" transform="translate(63.623047 0)"/>
       <use xlink:href="#DejaVuSans-35" transform="translate(95.410156 0)"/>
      </g>
     </g>
    </g>
    <g id="ytick_7">
     <g id="line2d_12">
      <g>
       <use xlink:href="#mbd2f377c6c" x="30.103125" y="66.003173" style="stroke: #000000; stroke-width: 0.8"/>
      </g>
     </g>
     <g id="text_12">
      <!-- 0.6 -->
      <g transform="translate(7.2 69.802392) scale(0.1 -0.1)">
       <defs>
        <path id="DejaVuSans-36" d="M 2113 2584 
Q 1688 2584 1439 2293 
Q 1191 2003 1191 1497 
Q 1191 994 1439 701 
Q 1688 409 2113 409 
Q 2538 409 2786 701 
Q 3034 994 3034 1497 
Q 3034 2003 2786 2293 
Q 2538 2584 2113 2584 
z
M 3366 4563 
L 3366 3988 
Q 3128 4100 2886 4159 
Q 2644 4219 2406 4219 
Q 1781 4219 1451 3797 
Q 1122 3375 1075 2522 
Q 1259 2794 1537 2939 
Q 1816 3084 2150 3084 
Q 2853 3084 3261 2657 
Q 3669 2231 3669 1497 
Q 3669 778 3244 343 
Q 2819 -91 2113 -91 
Q 1303 -91 875 529 
Q 447 1150 447 2328 
Q 447 3434 972 4092 
Q 1497 4750 2381 4750 
Q 2619 4750 2861 4703 
Q 3103 4656 3366 4563 
z
" transform="scale(0.015625)"/>
       </defs>
       <use xlink:href="#DejaVuSans-30"/>
       <use xlink:href="#DejaVuSans-2e" transform="translate(63.623047 0)"/>
       <use xlink:href="#DejaVuSans-36" transform="translate(95.410156 0)"/>
      </g>
     </g>
    </g>
   </g>
   <g id="line2d_13">
    <path d="M 54.948509 383.711826 
L 110.657877 383.598912 
L 126.077434 383.351812 
L 136.522941 382.965678 
L 144.481422 382.450201 
L 150.947688 381.815043 
L 156.419144 381.068795 
L 161.393195 380.175807 
L 165.86984 379.156025 
L 169.849081 378.043831 
L 173.828322 376.70516 
L 177.310157 375.321071 
L 180.791993 373.712721 
L 184.273828 371.854357 
L 187.755664 369.719374 
L 190.740094 367.648716 
L 193.724525 365.33792 
L 196.708955 362.770244 
L 199.693386 359.929535 
L 202.677816 356.800558 
L 205.662246 353.369356 
L 208.646677 349.623627 
L 211.631107 345.553129 
L 214.615538 341.150081 
L 218.097373 335.586528 
L 221.579209 329.561727 
L 225.061044 323.08052 
L 228.54288 316.155434 
L 232.52212 307.724696 
L 236.501361 298.787118 
L 240.978007 288.203245 
L 246.449463 274.666119 
L 254.905349 253.023105 
L 263.361235 231.546261 
L 268.335286 219.530814 
L 272.314527 210.490555 
L 275.796362 203.123502 
L 278.780793 197.288484 
L 281.765223 191.956495 
L 284.252248 187.935988 
L 286.739274 184.330262 
L 289.226299 181.16513 
L 291.215919 178.965762 
L 293.20554 177.073399 
L 295.19516 175.496958 
L 297.18478 174.243909 
L 299.174401 173.320216 
L 300.666616 172.8463 
L 302.158831 172.561439 
L 303.651046 172.466399 
L 305.143262 172.561439 
L 306.635477 172.8463 
L 308.127692 173.320216 
L 309.619907 173.981909 
L 311.609527 175.153119 
L 313.599148 176.649354 
L 315.588768 178.463517 
L 317.578388 180.587046 
L 319.568009 183.009986 
L 322.055034 186.442417 
L 324.542059 190.300281 
L 327.029085 194.556183 
L 330.013515 200.146601 
L 332.997946 206.21195 
L 336.479781 213.810181 
L 340.459022 223.063214 
L 345.433073 235.266155 
L 352.396744 253.023105 
L 362.84225 279.651917 
L 368.313706 292.970248 
L 372.790352 303.315816 
L 376.769592 312.006619 
L 380.748833 320.16596 
L 384.230669 326.839407 
L 387.712504 333.060835 
L 391.19434 338.822196 
L 394.676175 344.122701 
L 398.158011 348.968007 
L 401.142441 352.767214 
L 404.126872 356.250034 
L 407.111302 359.428452 
L 410.095732 362.316178 
L 413.080163 364.928259 
L 416.064593 367.280717 
L 419.546429 369.719374 
L 423.028264 371.854357 
L 426.5101 373.712721 
L 429.991935 375.321071 
L 433.473771 376.70516 
L 437.453012 378.043831 
L 441.432252 379.156025 
L 445.908898 380.175807 
L 450.882949 381.068795 
L 456.354404 381.815043 
L 462.323265 382.409216 
L 469.784342 382.913918 
L 478.737633 383.281841 
L 490.675355 383.532789 
L 509.079342 383.670837 
L 551.856179 383.711786 
L 551.856179 383.711786 
" clip-path="url(#p8b86e9cf17)" style="fill: none; stroke-dasharray: 5.55,2.4; stroke-dashoffset: 0; stroke: #808080; stroke-opacity: 0.5; stroke-width: 1.5"/>
   </g>
   <g id="line2d_14">
    <path d="M 54.948509 383.712614 
L 182.284208 383.620409 
L 184.273828 383.420656 
L 185.766043 383.088356 
L 187.258259 382.49176 
L 188.253069 381.895204 
L 189.247879 381.111029 
L 190.740094 379.56886 
L 192.232309 377.652322 
L 195.714145 372.922691 
L 197.20636 371.409009 
L 198.20117 370.68565 
L 199.19598 370.181109 
L 200.688196 369.747593 
L 202.677816 369.521429 
L 207.651867 369.194488 
L 208.646677 368.763898 
L 209.641487 367.93371 
L 210.636297 366.546615 
L 211.631107 364.480694 
L 212.625917 361.691268 
L 213.620728 358.24409 
L 217.599968 343.029877 
L 218.594778 340.552713 
L 219.092183 339.684038 
L 219.589589 339.066493 
L 220.086994 338.687718 
L 220.584399 338.522806 
L 221.081804 338.535176 
L 222.076614 338.896862 
L 223.071424 339.318843 
L 223.568829 339.397468 
L 224.066234 339.308864 
L 224.563639 339.001213 
L 225.061044 338.43166 
L 225.558449 337.568233 
L 226.055855 336.391132 
L 227.050665 333.080346 
L 228.045475 328.588865 
L 229.53769 320.216501 
L 233.516931 296.353106 
L 235.009146 288.933362 
L 236.501361 282.591695 
L 237.993576 277.283306 
L 238.988386 274.356713 
L 239.983197 271.981446 
L 240.978007 270.197733 
L 241.972817 268.987378 
L 242.967627 268.233672 
L 244.957247 267.026854 
L 245.454652 266.505016 
L 245.952058 265.782119 
L 246.449463 264.801207 
L 246.946868 263.509092 
L 247.444273 261.858977 
L 248.439083 257.344133 
L 249.433893 251.09692 
L 250.428703 243.181566 
L 251.920918 228.905734 
L 254.407944 203.829914 
L 255.402754 195.549524 
L 256.397564 189.343832 
L 256.894969 187.191551 
L 257.392374 185.739072 
L 257.889779 185.016911 
L 258.387184 185.03894 
L 258.884589 185.801676 
L 259.381995 187.28402 
L 259.8794 189.447477 
L 260.87421 195.581911 
L 261.86902 203.591981 
L 265.350855 234.688834 
L 266.345666 241.335283 
L 267.340476 246.115611 
L 267.837881 247.765894 
L 268.335286 248.926457 
L 268.832691 249.610881 
L 269.330096 249.837529 
L 269.827501 249.626074 
L 270.324906 248.994194 
L 270.822311 247.954728 
L 271.319716 246.513534 
L 272.314527 242.408038 
L 273.309337 236.56351 
L 274.304147 228.78124 
L 275.298957 218.874426 
L 276.293767 206.791602 
L 277.785982 185.107494 
L 281.267818 131.389103 
L 282.262628 120.181045 
L 282.760033 115.916096 
L 283.257438 112.652789 
L 283.754843 110.437521 
L 284.252248 109.285638 
L 284.749653 109.180672 
L 285.247058 110.075017 
L 285.744464 111.892043 
L 286.241869 114.529555 
L 287.236679 121.758301 
L 288.728894 135.313142 
L 290.221109 148.782358 
L 291.215919 156.350072 
L 292.21073 162.368962 
L 293.20554 166.908243 
L 294.20035 170.327059 
L 298.17959 182.172517 
L 301.164021 192.780209 
L 301.661426 194.047951 
L 302.158831 194.996483 
L 302.656236 195.563296 
L 303.153641 195.693109 
L 303.651046 195.340375 
L 304.148451 194.471519 
L 304.645856 193.066851 
L 305.143262 191.122076 
L 306.138072 185.677774 
L 307.132882 178.438291 
L 308.625097 165.47849 
L 310.614717 148.455362 
L 311.609527 141.886125 
L 312.604338 137.41974 
L 313.101743 136.065176 
L 313.599148 135.301233 
L 314.096553 135.104281 
L 314.593958 135.430406 
L 315.091363 136.217926 
L 315.588768 137.390839 
L 316.583578 140.543011 
L 318.573199 147.600763 
L 319.568009 150.411289 
L 320.562819 152.445893 
L 321.557629 153.863439 
L 323.049844 155.757504 
L 324.044654 157.635968 
L 325.039465 160.528981 
L 326.034275 164.643781 
L 327.029085 169.900167 
L 331.008325 193.248422 
L 332.003136 197.122289 
L 332.997946 199.712994 
L 333.495351 200.564417 
L 333.992756 201.163289 
L 334.490161 201.552003 
L 335.484971 201.885678 
L 337.971996 202.100553 
L 338.966807 202.54053 
L 339.961617 203.341592 
L 340.956427 204.553197 
L 341.951237 206.2514 
L 342.946047 208.57149 
L 343.940857 211.707235 
L 344.935668 215.876131 
L 345.930478 221.261883 
L 346.925288 227.95266 
L 348.417503 240.274172 
L 350.407123 259.492971 
L 352.894149 283.169542 
L 354.386364 294.900507 
L 355.381174 301.320546 
L 356.375984 306.661387 
L 357.370794 311.075221 
L 358.365605 314.760738 
L 359.85782 319.329518 
L 361.350035 323.101403 
L 362.84225 326.180569 
L 363.83706 327.8049 
L 364.831871 329.047127 
L 365.826681 329.89509 
L 366.821491 330.361588 
L 367.816301 330.4753 
L 368.811111 330.26555 
L 369.805921 329.749944 
L 370.800731 328.932044 
L 371.795542 327.811288 
L 372.790352 326.40173 
L 374.282567 323.865099 
L 376.769592 319.541667 
L 377.764403 318.277502 
L 378.759213 317.532069 
L 379.256618 317.392505 
L 379.754023 317.421778 
L 380.251428 317.624988 
L 380.748833 318.00328 
L 381.246238 318.554082 
L 382.241048 320.146832 
L 383.235858 322.326211 
L 384.230669 324.99094 
L 385.722884 329.671194 
L 387.712504 336.754577 
L 390.696935 348.344715 
L 393.18396 357.810456 
L 394.676175 362.601263 
L 395.670985 365.129402 
L 396.665795 366.993135 
L 397.660606 368.131419 
L 398.158011 368.424985 
L 398.655416 368.540196 
L 399.152821 368.48528 
L 399.650226 368.271412 
L 400.645036 367.423644 
L 401.639846 366.128327 
L 403.132061 363.678516 
L 405.121682 360.313443 
L 406.116492 358.954464 
L 407.111302 358.017878 
L 407.608707 357.75055 
L 408.106112 357.635944 
L 408.603517 357.684652 
L 409.100922 357.903829 
L 409.598327 358.296719 
L 410.593138 359.595141 
L 411.587948 361.518874 
L 412.582758 363.941478 
L 415.069783 370.98179 
L 416.561998 374.945725 
L 417.556809 377.189577 
L 418.551619 379.04085 
L 419.546429 380.493256 
L 420.541239 381.578665 
L 421.536049 382.352344 
L 422.530859 382.878898 
L 424.023075 383.341029 
L 426.012695 383.602143 
L 428.997125 383.694899 
L 433.473771 383.607913 
L 435.463391 383.387558 
L 436.955607 383.026889 
L 438.447822 382.390412 
L 439.442632 381.764187 
L 440.437442 380.953949 
L 441.929657 379.400906 
L 446.406303 374.119013 
L 447.401113 373.446781 
L 448.395923 373.158179 
L 449.390733 373.286943 
L 450.385544 373.817946 
L 451.380354 374.690118 
L 452.872569 376.424037 
L 455.856999 380.081704 
L 457.349215 381.473521 
L 458.84143 382.450664 
L 460.333645 383.062595 
L 461.82586 383.406613 
L 463.815481 383.615193 
L 467.297316 383.703669 
L 488.188329 383.712614 
L 551.856179 383.712614 
L 551.856179 383.712614 
" clip-path="url(#p8b86e9cf17)" style="fill: none; stroke: #1f77b4; stroke-opacity: 0.5; stroke-width: 1.5; stroke-linecap: square"/>
   </g>
   <g id="line2d_15">
    <path d="M 54.948509 383.712614 
L 156.916549 383.61093 
L 163.88022 383.365391 
L 168.854271 382.969617 
L 172.833511 382.434506 
L 176.315347 381.749255 
L 179.299777 380.963947 
L 182.284208 379.966667 
L 185.268638 378.731483 
L 188.253069 377.233352 
L 191.237499 375.446186 
L 193.724525 373.714821 
L 196.21155 371.741888 
L 198.698575 369.503499 
L 201.185601 366.972151 
L 203.672626 364.117329 
L 206.159651 360.906789 
L 208.646677 357.30839 
L 211.133702 353.292302 
L 213.620728 348.833394 
L 216.107753 343.913602 
L 218.594778 338.524131 
L 221.081804 332.667395 
L 224.066234 325.044928 
L 227.050665 316.82542 
L 230.5325 306.595402 
L 235.009146 292.726402 
L 244.957247 261.666719 
L 248.439083 251.631663 
L 251.423513 243.629908 
L 254.407944 236.210808 
L 257.889779 228.210758 
L 261.86902 219.66688 
L 276.791172 188.608402 
L 279.775603 182.914717 
L 282.262628 178.660706 
L 284.252248 175.669041 
L 286.241869 173.089903 
L 288.231489 170.941532 
L 289.723704 169.609833 
L 291.215919 168.505711 
L 293.20554 167.356367 
L 295.19516 166.525971 
L 297.18478 165.954241 
L 299.671806 165.515317 
L 302.158831 165.299737 
L 305.143262 165.271139 
L 307.630287 165.447916 
L 310.117312 165.869674 
L 312.106933 166.44833 
L 314.096553 167.305978 
L 315.588768 168.169767 
L 317.080983 169.250663 
L 318.573199 170.571554 
L 320.065414 172.15219 
L 321.557629 174.008583 
L 323.049844 176.152678 
L 325.039465 179.471909 
L 327.029085 183.323515 
L 329.018705 187.703518 
L 331.008325 192.597949 
L 333.495351 199.404248 
L 335.982376 206.917559 
L 338.966807 216.754117 
L 342.448642 229.137583 
L 347.422693 247.833187 
L 353.391554 270.153406 
L 356.375984 280.564904 
L 359.360415 290.133503 
L 361.84744 297.341535 
L 364.334466 303.805982 
L 366.821491 309.536453 
L 369.308516 314.589904 
L 371.795542 319.060718 
L 374.282567 323.066588 
L 377.266997 327.435448 
L 381.246238 332.834181 
L 390.199529 344.472912 
L 396.16839 351.936802 
L 400.147631 356.570582 
L 403.629466 360.31923 
L 407.111302 363.763386 
L 410.593138 366.906472 
L 414.074973 369.750697 
L 417.556809 372.281189 
L 420.541239 374.174988 
L 423.525669 375.787092 
L 426.012695 376.899948 
L 428.49972 377.798137 
L 430.986746 378.487503 
L 433.971176 379.064188 
L 436.955607 379.415605 
L 440.934847 379.649213 
L 452.375164 380.165461 
L 457.349215 380.699756 
L 465.805101 381.896322 
L 472.271367 382.71222 
L 477.742823 383.190314 
L 483.711684 383.491997 
L 491.670165 383.658085 
L 507.587127 383.711194 
L 551.856179 383.712614 
L 551.856179 383.712614 
" clip-path="url(#p8b86e9cf17)" style="fill: none; stroke: #ff7f0e; stroke-opacity: 0.5; stroke-width: 1.5; stroke-linecap: square"/>
   </g>
   <g id="line2d_16">
    <path d="M 54.948509 383.639093 
L 76.336927 383.423858 
L 89.766864 383.080933 
L 100.21237 382.596707 
L 108.668257 381.987681 
L 116.129333 381.225719 
L 122.595599 380.344757 
L 128.56446 379.306854 
L 134.035916 378.129538 
L 139.009966 376.841785 
L 143.984017 375.318678 
L 148.460663 373.723418 
L 152.937308 371.894122 
L 157.413954 369.810511 
L 161.393195 367.729167 
L 165.372435 365.41874 
L 169.351676 362.867649 
L 173.330916 360.065837 
L 177.310157 357.005106 
L 181.289398 353.679465 
L 185.268638 350.085463 
L 189.745284 345.720807 
L 194.22193 341.01976 
L 198.698575 335.991725 
L 203.672626 330.040259 
L 208.646677 323.7338 
L 214.118133 316.433748 
L 220.584399 307.404176 
L 228.54288 295.881036 
L 245.952058 270.525178 
L 251.920918 262.289191 
L 256.894969 255.792637 
L 261.371615 250.310057 
L 265.350855 245.779435 
L 268.832691 242.114436 
L 272.314527 238.756624 
L 275.796362 235.730625 
L 278.780793 233.418088 
L 281.765223 231.378577 
L 284.749653 229.623371 
L 287.734084 228.16221 
L 290.221109 227.175097 
L 292.708135 226.401638 
L 295.19516 225.844781 
L 297.682185 225.506603 
L 300.169211 225.388301 
L 302.656236 225.490178 
L 305.143262 225.811644 
L 307.630287 226.351215 
L 310.117312 227.10652 
L 312.604338 228.074321 
L 315.091363 229.250523 
L 318.075793 230.930074 
L 321.060224 232.892592 
L 324.044654 235.126513 
L 327.029085 237.618819 
L 330.51092 240.833865 
L 333.992756 244.356182 
L 337.971996 248.723541 
L 341.951237 253.414799 
L 346.427883 259.024199 
L 351.899339 266.26506 
L 358.365605 275.212731 
L 370.303326 292.214984 
L 379.754023 305.502453 
L 386.220289 314.236242 
L 392.18915 321.918408 
L 397.660606 328.574988 
L 402.634656 334.269194 
L 407.111302 339.083467 
L 411.587948 343.592423 
L 416.064593 347.790561 
L 420.541239 351.676998 
L 425.017885 355.254955 
L 429.49453 358.531202 
L 433.971176 361.515497 
L 438.447822 364.220039 
L 442.924467 366.658929 
L 447.401113 368.847672 
L 451.877759 370.802715 
L 456.85181 372.721553 
L 461.82586 374.396349 
L 466.799911 375.850351 
L 472.271367 377.221637 
L 478.240228 378.477558 
L 484.706494 379.594378 
L 491.670165 380.558086 
L 499.131241 381.364325 
L 507.587127 382.052322 
L 517.535229 382.62726 
L 529.472951 383.077666 
L 544.395103 383.401537 
L 551.856179 383.499104 
L 551.856179 383.499104 
" clip-path="url(#p8b86e9cf17)" style="fill: none; stroke: #2ca02c; stroke-opacity: 0.5; stroke-width: 1.5; stroke-linecap: square"/>
   </g>
   <g id="line2d_17">
    <path d="M 54.948509 364.596047 
L 68.875851 361.751741 
L 83.300598 358.574305 
L 98.720155 354.945006 
L 116.129333 350.610343 
L 139.009966 344.661402 
L 178.802372 334.288362 
L 194.719335 330.39607 
L 208.149272 327.337563 
L 220.086994 324.842925 
L 231.029905 322.776527 
L 241.475412 321.0274 
L 251.423513 319.58505 
L 260.87421 318.432456 
L 270.324906 317.504484 
L 279.278198 316.841656 
L 288.231489 316.395881 
L 297.18478 316.1715 
L 306.138072 316.170666 
L 315.091363 316.393316 
L 324.044654 316.837173 
L 332.997946 317.497781 
L 342.448642 318.422961 
L 351.899339 319.572201 
L 361.84744 321.010315 
L 372.292947 322.754145 
L 383.235858 324.814013 
L 394.676175 327.192293 
L 407.608707 330.114625 
L 422.530859 333.729061 
L 441.432252 338.557767 
L 499.628646 353.597535 
L 516.043014 357.516238 
L 530.965166 360.854734 
L 544.892508 363.750811 
L 551.856179 365.113732 
L 551.856179 365.113732 
" clip-path="url(#p8b86e9cf17)" style="fill: none; stroke: #d62728; stroke-opacity: 0.5; stroke-width: 1.5; stroke-linecap: square"/>
   </g>
   <g id="patch_3">
    <path d="M 30.103125 400.921875 
L 30.103125 22.318125 
" style="fill: none; stroke: #000000; stroke-width: 0.8; stroke-linejoin: miter; stroke-linecap: square"/>
   </g>
   <g id="patch_4">
    <path d="M 576.701562 400.921875 
L 576.701562 22.318125 
" style="fill: none; stroke: #000000; stroke-width: 0.8; stroke-linejoin: miter; stroke-linecap: square"/>
   </g>
   <g id="patch_5">
    <path d="M 30.103125 400.921875 
L 576.701562 400.921875 
" style="fill: none; stroke: #000000; stroke-width: 0.8; stroke-linejoin: miter; stroke-linecap: square"/>
   </g>
   <g id="patch_6">
    <path d="M 30.103125 22.318125 
L 576.701562 22.318125 
" style="fill: none; stroke: #000000; stroke-width: 0.8; stroke-linejoin: miter; stroke-linecap: square"/>
   </g>
   <g id="text_13">
    <!-- Kernel = gaussian -->
    <g transform="translate(249.025469 16.318125) scale(0.12 -0.12)">
     <defs>
      <path id="DejaVuSans-4b" d="M 628 4666 
L 1259 4666 
L 1259 2694 
L 3353 4666 
L 4166 4666 
L 1850 2491 
L 4331 0 
L 3500 0 
L 1259 2247 
L 1259 0 
L 628 0 
L 628 4666 
z
" transform="scale(0.015625)"/>
      <path id="DejaVuSans-65" d="M 3597 1894 
L 3597 1613 
L 953 1613 
Q 991 1019 1311 708 
Q 1631 397 2203 397 
Q 2534 397 2845 478 
Q 3156 559 3463 722 
L 3463 178 
Q 3153 47 2828 -22 
Q 2503 -91 2169 -91 
Q 1331 -91 842 396 
Q 353 884 353 1716 
Q 353 2575 817 3079 
Q 1281 3584 2069 3584 
Q 2775 3584 3186 3129 
Q 3597 2675 3597 1894 
z
M 3022 2063 
Q 3016 2534 2758 2815 
Q 2500 3097 2075 3097 
Q 1594 3097 1305 2825 
Q 1016 2553 972 2059 
L 3022 2063 
z
" transform="scale(0.015625)"/>
      <path id="DejaVuSans-72" d="M 2631 2963 
Q 2534 3019 2420 3045 
Q 2306 3072 2169 3072 
Q 1681 3072 1420 2755 
Q 1159 2438 1159 1844 
L 1159 0 
L 581 0 
L 581 3500 
L 1159 3500 
L 1159 2956 
Q 1341 3275 1631 3429 
Q 1922 3584 2338 3584 
Q 2397 3584 2469 3576 
Q 2541 3569 2628 3553 
L 2631 2963 
z
" transform="scale(0.015625)"/>
      <path id="DejaVuSans-6e" d="M 3513 2113 
L 3513 0 
L 2938 0 
L 2938 2094 
Q 2938 2591 2744 2837 
Q 2550 3084 2163 3084 
Q 1697 3084 1428 2787 
Q 1159 2491 1159 1978 
L 1159 0 
L 581 0 
L 581 3500 
L 1159 3500 
L 1159 2956 
Q 1366 3272 1645 3428 
Q 1925 3584 2291 3584 
Q 2894 3584 3203 3211 
Q 3513 2838 3513 2113 
z
" transform="scale(0.015625)"/>
      <path id="DejaVuSans-6c" d="M 603 4863 
L 1178 4863 
L 1178 0 
L 603 0 
L 603 4863 
z
" transform="scale(0.015625)"/>
      <path id="DejaVuSans-20" transform="scale(0.015625)"/>
      <path id="DejaVuSans-3d" d="M 678 2906 
L 4684 2906 
L 4684 2381 
L 678 2381 
L 678 2906 
z
M 678 1631 
L 4684 1631 
L 4684 1100 
L 678 1100 
L 678 1631 
z
" transform="scale(0.015625)"/>
      <path id="DejaVuSans-67" d="M 2906 1791 
Q 2906 2416 2648 2759 
Q 2391 3103 1925 3103 
Q 1463 3103 1205 2759 
Q 947 2416 947 1791 
Q 947 1169 1205 825 
Q 1463 481 1925 481 
Q 2391 481 2648 825 
Q 2906 1169 2906 1791 
z
M 3481 434 
Q 3481 -459 3084 -895 
Q 2688 -1331 1869 -1331 
Q 1566 -1331 1297 -1286 
Q 1028 -1241 775 -1147 
L 775 -588 
Q 1028 -725 1275 -790 
Q 1522 -856 1778 -856 
Q 2344 -856 2625 -561 
Q 2906 -266 2906 331 
L 2906 616 
Q 2728 306 2450 153 
Q 2172 0 1784 0 
Q 1141 0 747 490 
Q 353 981 353 1791 
Q 353 2603 747 3093 
Q 1141 3584 1784 3584 
Q 2172 3584 2450 3431 
Q 2728 3278 2906 2969 
L 2906 3500 
L 3481 3500 
L 3481 434 
z
" transform="scale(0.015625)"/>
      <path id="DejaVuSans-61" d="M 2194 1759 
Q 1497 1759 1228 1600 
Q 959 1441 959 1056 
Q 959 750 1161 570 
Q 1363 391 1709 391 
Q 2188 391 2477 730 
Q 2766 1069 2766 1631 
L 2766 1759 
L 2194 1759 
z
M 3341 1997 
L 3341 0 
L 2766 0 
L 2766 531 
Q 2569 213 2275 61 
Q 1981 -91 1556 -91 
Q 1019 -91 701 211 
Q 384 513 384 1019 
Q 384 1609 779 1909 
Q 1175 2209 1959 2209 
L 2766 2209 
L 2766 2266 
Q 2766 2663 2505 2880 
Q 2244 3097 1772 3097 
Q 1472 3097 1187 3025 
Q 903 2953 641 2809 
L 641 3341 
Q 956 3463 1253 3523 
Q 1550 3584 1831 3584 
Q 2591 3584 2966 3190 
Q 3341 2797 3341 1997 
z
" transform="scale(0.015625)"/>
      <path id="DejaVuSans-75" d="M 544 1381 
L 544 3500 
L 1119 3500 
L 1119 1403 
Q 1119 906 1312 657 
Q 1506 409 1894 409 
Q 2359 409 2629 706 
Q 2900 1003 2900 1516 
L 2900 3500 
L 3475 3500 
L 3475 0 
L 2900 0 
L 2900 538 
Q 2691 219 2414 64 
Q 2138 -91 1772 -91 
Q 1169 -91 856 284 
Q 544 659 544 1381 
z
M 1991 3584 
L 1991 3584 
z
" transform="scale(0.015625)"/>
      <path id="DejaVuSans-73" d="M 2834 3397 
L 2834 2853 
Q 2591 2978 2328 3040 
Q 2066 3103 1784 3103 
Q 1356 3103 1142 2972 
Q 928 2841 928 2578 
Q 928 2378 1081 2264 
Q 1234 2150 1697 2047 
L 1894 2003 
Q 2506 1872 2764 1633 
Q 3022 1394 3022 966 
Q 3022 478 2636 193 
Q 2250 -91 1575 -91 
Q 1294 -91 989 -36 
Q 684 19 347 128 
L 347 722 
Q 666 556 975 473 
Q 1284 391 1588 391 
Q 1994 391 2212 530 
Q 2431 669 2431 922 
Q 2431 1156 2273 1281 
Q 2116 1406 1581 1522 
L 1381 1569 
Q 847 1681 609 1914 
Q 372 2147 372 2553 
Q 372 3047 722 3315 
Q 1072 3584 1716 3584 
Q 2034 3584 2315 3537 
Q 2597 3491 2834 3397 
z
" transform="scale(0.015625)"/>
      <path id="DejaVuSans-69" d="M 603 3500 
L 1178 3500 
L 1178 0 
L 603 0 
L 603 3500 
z
M 603 4863 
L 1178 4863 
L 1178 4134 
L 603 4134 
L 603 4863 
z
" transform="scale(0.015625)"/>
     </defs>
     <use xlink:href="#DejaVuSans-4b"/>
     <use xlink:href="#DejaVuSans-65" transform="translate(60.576172 0)"/>
     <use xlink:href="#DejaVuSans-72" transform="translate(122.099609 0)"/>
     <use xlink:href="#DejaVuSans-6e" transform="translate(161.462891 0)"/>
     <use xlink:href="#DejaVuSans-65" transform="translate(224.841797 0)"/>
     <use xlink:href="#DejaVuSans-6c" transform="translate(286.365234 0)"/>
     <use xlink:href="#DejaVuSans-20" transform="translate(314.148438 0)"/>
     <use xlink:href="#DejaVuSans-3d" transform="translate(345.935547 0)"/>
     <use xlink:href="#DejaVuSans-20" transform="translate(429.724609 0)"/>
     <use xlink:href="#DejaVuSans-67" transform="translate(461.511719 0)"/>
     <use xlink:href="#DejaVuSans-61" transform="translate(524.988281 0)"/>
     <use xlink:href="#DejaVuSans-75" transform="translate(586.267578 0)"/>
     <use xlink:href="#DejaVuSans-73" transform="translate(649.646484 0)"/>
     <use xlink:href="#DejaVuSans-73" transform="translate(701.746094 0)"/>
     <use xlink:href="#DejaVuSans-69" transform="translate(753.845703 0)"/>
     <use xlink:href="#DejaVuSans-61" transform="translate(781.628906 0)"/>
     <use xlink:href="#DejaVuSans-6e" transform="translate(842.908203 0)"/>
    </g>
   </g>
   <g id="legend_1">
    <g id="patch_7">
     <path d="M 500.725 89.030625 
L 569.701562 89.030625 
Q 571.701562 89.030625 571.701562 87.030625 
L 571.701562 29.318125 
Q 571.701562 27.318125 569.701562 27.318125 
L 500.725 27.318125 
Q 498.725 27.318125 498.725 29.318125 
L 498.725 87.030625 
Q 498.725 89.030625 500.725 89.030625 
z
" style="fill: #ffffff; opacity: 0.8; stroke: #cccccc; stroke-linejoin: miter"/>
    </g>
    <g id="line2d_18">
     <path d="M 502.725 35.416563 
L 512.725 35.416563 
L 522.725 35.416563 
" style="fill: none; stroke: #1f77b4; stroke-opacity: 0.5; stroke-width: 1.5; stroke-linecap: square"/>
    </g>
    <g id="text_14">
     <!-- h = 0.1 -->
     <g transform="translate(530.725 38.916563) scale(0.1 -0.1)">
      <defs>
       <path id="DejaVuSans-68" d="M 3513 2113 
L 3513 0 
L 2938 0 
L 2938 2094 
Q 2938 2591 2744 2837 
Q 2550 3084 2163 3084 
Q 1697 3084 1428 2787 
Q 1159 2491 1159 1978 
L 1159 0 
L 581 0 
L 581 4863 
L 1159 4863 
L 1159 2956 
Q 1366 3272 1645 3428 
Q 1925 3584 2291 3584 
Q 2894 3584 3203 3211 
Q 3513 2838 3513 2113 
z
" transform="scale(0.015625)"/>
      </defs>
      <use xlink:href="#DejaVuSans-68"/>
      <use xlink:href="#DejaVuSans-20" transform="translate(63.378906 0)"/>
      <use xlink:href="#DejaVuSans-3d" transform="translate(95.166016 0)"/>
      <use xlink:href="#DejaVuSans-20" transform="translate(178.955078 0)"/>
      <use xlink:href="#DejaVuSans-30" transform="translate(210.742188 0)"/>
      <use xlink:href="#DejaVuSans-2e" transform="translate(274.365234 0)"/>
      <use xlink:href="#DejaVuSans-31" transform="translate(306.152344 0)"/>
     </g>
    </g>
    <g id="line2d_19">
     <path d="M 502.725 50.094688 
L 512.725 50.094688 
L 522.725 50.094688 
" style="fill: none; stroke: #ff7f0e; stroke-opacity: 0.5; stroke-width: 1.5; stroke-linecap: square"/>
    </g>
    <g id="text_15">
     <!-- h = 0.3 -->
     <g transform="translate(530.725 53.594688) scale(0.1 -0.1)">
      <use xlink:href="#DejaVuSans-68"/>
      <use xlink:href="#DejaVuSans-20" transform="translate(63.378906 0)"/>
      <use xlink:href="#DejaVuSans-3d" transform="translate(95.166016 0)"/>
      <use xlink:href="#DejaVuSans-20" transform="translate(178.955078 0)"/>
      <use xlink:href="#DejaVuSans-30" transform="translate(210.742188 0)"/>
      <use xlink:href="#DejaVuSans-2e" transform="translate(274.365234 0)"/>
      <use xlink:href="#DejaVuSans-33" transform="translate(306.152344 0)"/>
     </g>
    </g>
    <g id="line2d_20">
     <path d="M 502.725 64.772813 
L 512.725 64.772813 
L 522.725 64.772813 
" style="fill: none; stroke: #2ca02c; stroke-opacity: 0.5; stroke-width: 1.5; stroke-linecap: square"/>
    </g>
    <g id="text_16">
     <!-- h = 1 -->
     <g transform="translate(530.725 68.272813) scale(0.1 -0.1)">
      <use xlink:href="#DejaVuSans-68"/>
      <use xlink:href="#DejaVuSans-20" transform="translate(63.378906 0)"/>
      <use xlink:href="#DejaVuSans-3d" transform="translate(95.166016 0)"/>
      <use xlink:href="#DejaVuSans-20" transform="translate(178.955078 0)"/>
      <use xlink:href="#DejaVuSans-31" transform="translate(210.742188 0)"/>
     </g>
    </g>
    <g id="line2d_21">
     <path d="M 502.725 79.450938 
L 512.725 79.450938 
L 522.725 79.450938 
" style="fill: none; stroke: #d62728; stroke-opacity: 0.5; stroke-width: 1.5; stroke-linecap: square"/>
    </g>
    <g id="text_17">
     <!-- h = 3 -->
     <g transform="translate(530.725 82.950938) scale(0.1 -0.1)">
      <use xlink:href="#DejaVuSans-68"/>
      <use xlink:href="#DejaVuSans-20" transform="translate(63.378906 0)"/>
      <use xlink:href="#DejaVuSans-3d" transform="translate(95.166016 0)"/>
      <use xlink:href="#DejaVuSans-20" transform="translate(178.955078 0)"/>
      <use xlink:href="#DejaVuSans-33" transform="translate(210.742188 0)"/>
     </g>
    </g>
   </g>
  </g>
  <g id="axes_2">
   <g id="patch_8">
    <path d="M 591.001562 400.921875 
L 1137.6 400.921875 
L 1137.6 22.318125 
L 591.001562 22.318125 
z
" style="fill: #ffffff"/>
   </g>
   <g id="matplotlib.axis_3">
    <g id="xtick_6">
     <g id="line2d_22">
      <g>
       <use xlink:href="#m38f3b05bbe" x="665.587454" y="400.921875" style="stroke: #000000; stroke-width: 0.8"/>
      </g>
     </g>
     <g id="text_18">
      <!-- -4 -->
      <g transform="translate(660.602297 415.520312) scale(0.1 -0.1)">
       <use xlink:href="#DejaVuSans-2d"/>
       <use xlink:href="#DejaVuSans-34" transform="translate(36.083984 0)"/>
      </g>
     </g>
    </g>
    <g id="xtick_7">
     <g id="line2d_23">
      <g>
       <use xlink:href="#m38f3b05bbe" x="765.068469" y="400.921875" style="stroke: #000000; stroke-width: 0.8"/>
      </g>
     </g>
     <g id="text_19">
      <!-- -2 -->
      <g transform="translate(760.083312 415.520312) scale(0.1 -0.1)">
       <use xlink:href="#DejaVuSans-2d"/>
       <use xlink:href="#DejaVuSans-32" transform="translate(36.083984 0)"/>
      </g>
     </g>
    </g>
    <g id="xtick_8">
     <g id="line2d_24">
      <g>
       <use xlink:href="#m38f3b05bbe" x="864.549484" y="400.921875" style="stroke: #000000; stroke-width: 0.8"/>
      </g>
     </g>
     <g id="text_20">
      <!-- 0 -->
      <g transform="translate(861.368234 415.520312) scale(0.1 -0.1)">
       <use xlink:href="#DejaVuSans-30"/>
      </g>
     </g>
    </g>
    <g id="xtick_9">
     <g id="line2d_25">
      <g>
       <use xlink:href="#m38f3b05bbe" x="964.030499" y="400.921875" style="stroke: #000000; stroke-width: 0.8"/>
      </g>
     </g>
     <g id="text_21">
      <!-- 2 -->
      <g transform="translate(960.849249 415.520312) scale(0.1 -0.1)">
       <use xlink:href="#DejaVuSans-32"/>
      </g>
     </g>
    </g>
    <g id="xtick_10">
     <g id="line2d_26">
      <g>
       <use xlink:href="#m38f3b05bbe" x="1063.511514" y="400.921875" style="stroke: #000000; stroke-width: 0.8"/>
      </g>
     </g>
     <g id="text_22">
      <!-- 4 -->
      <g transform="translate(1060.330264 415.520312) scale(0.1 -0.1)">
       <use xlink:href="#DejaVuSans-34"/>
      </g>
     </g>
    </g>
   </g>
   <g id="matplotlib.axis_4">
    <g id="ytick_8">
     <g id="line2d_27">
      <g>
       <use xlink:href="#mbd2f377c6c" x="591.001562" y="383.712614" style="stroke: #000000; stroke-width: 0.8"/>
      </g>
     </g>
    </g>
    <g id="ytick_9">
     <g id="line2d_28">
      <g>
       <use xlink:href="#mbd2f377c6c" x="591.001562" y="330.76104" style="stroke: #000000; stroke-width: 0.8"/>
      </g>
     </g>
    </g>
    <g id="ytick_10">
     <g id="line2d_29">
      <g>
       <use xlink:href="#mbd2f377c6c" x="591.001562" y="277.809467" style="stroke: #000000; stroke-width: 0.8"/>
      </g>
     </g>
    </g>
    <g id="ytick_11">
     <g id="line2d_30">
      <g>
       <use xlink:href="#mbd2f377c6c" x="591.001562" y="224.857893" style="stroke: #000000; stroke-width: 0.8"/>
      </g>
     </g>
    </g>
    <g id="ytick_12">
     <g id="line2d_31">
      <g>
       <use xlink:href="#mbd2f377c6c" x="591.001562" y="171.90632" style="stroke: #000000; stroke-width: 0.8"/>
      </g>
     </g>
    </g>
    <g id="ytick_13">
     <g id="line2d_32">
      <g>
       <use xlink:href="#mbd2f377c6c" x="591.001562" y="118.954747" style="stroke: #000000; stroke-width: 0.8"/>
      </g>
     </g>
    </g>
    <g id="ytick_14">
     <g id="line2d_33">
      <g>
       <use xlink:href="#mbd2f377c6c" x="591.001562" y="66.003173" style="stroke: #000000; stroke-width: 0.8"/>
      </g>
     </g>
    </g>
   </g>
   <g id="line2d_34">
    <path d="M 615.846946 383.711826 
L 671.556314 383.598912 
L 686.975872 383.351812 
L 697.421378 382.965678 
L 705.37986 382.450201 
L 711.846126 381.815043 
L 717.317581 381.068795 
L 722.291632 380.175807 
L 726.768278 379.156025 
L 730.747518 378.043831 
L 734.726759 376.70516 
L 738.208595 375.321071 
L 741.69043 373.712721 
L 745.172266 371.854357 
L 748.654101 369.719374 
L 751.638532 367.648716 
L 754.622962 365.33792 
L 757.607393 362.770244 
L 760.591823 359.929535 
L 763.576253 356.800558 
L 766.560684 353.369356 
L 769.545114 349.623627 
L 772.529545 345.553129 
L 775.513975 341.150081 
L 778.995811 335.586528 
L 782.477646 329.561727 
L 785.959482 323.08052 
L 789.441317 316.155434 
L 793.420558 307.724696 
L 797.399799 298.787118 
L 801.876444 288.203245 
L 807.3479 274.666119 
L 815.803786 253.023105 
L 824.259673 231.546261 
L 829.233723 219.530814 
L 833.212964 210.490555 
L 836.6948 203.123502 
L 839.67923 197.288484 
L 842.66366 191.956495 
L 845.150686 187.935988 
L 847.637711 184.330262 
L 850.124737 181.16513 
L 852.114357 178.965762 
L 854.103977 177.073399 
L 856.093598 175.496958 
L 858.083218 174.243909 
L 860.072838 173.320216 
L 861.565053 172.8463 
L 863.057269 172.561439 
L 864.549484 172.466399 
L 866.041699 172.561439 
L 867.533914 172.8463 
L 869.026129 173.320216 
L 870.518345 173.981909 
L 872.507965 175.153119 
L 874.497585 176.649354 
L 876.487206 178.463517 
L 878.476826 180.587046 
L 880.466446 183.009986 
L 882.953472 186.442417 
L 885.440497 190.300281 
L 887.927522 194.556183 
L 890.911953 200.146601 
L 893.896383 206.21195 
L 897.378219 213.810181 
L 901.357459 223.063214 
L 906.33151 235.266155 
L 913.295181 253.023105 
L 923.740688 279.651917 
L 929.212144 292.970248 
L 933.688789 303.315816 
L 937.66803 312.006619 
L 941.64727 320.16596 
L 945.129106 326.839407 
L 948.610942 333.060835 
L 952.092777 338.822196 
L 955.574613 344.122701 
L 959.056448 348.968007 
L 962.040879 352.767214 
L 965.025309 356.250034 
L 968.009739 359.428452 
L 970.99417 362.316178 
L 973.9786 364.928259 
L 976.963031 367.280717 
L 980.444866 369.719374 
L 983.926702 371.854357 
L 987.408537 373.712721 
L 990.890373 375.321071 
L 994.372209 376.70516 
L 998.351449 378.043831 
L 1002.33069 379.156025 
L 1006.807335 380.175807 
L 1011.781386 381.068795 
L 1017.252842 381.815043 
L 1023.221703 382.409216 
L 1030.682779 382.913918 
L 1039.63607 383.281841 
L 1051.573792 383.532789 
L 1069.97778 383.670837 
L 1112.754616 383.711786 
L 1112.754616 383.711786 
" clip-path="url(#p7ca85d1aeb)" style="fill: none; stroke-dasharray: 5.55,2.4; stroke-dashoffset: 0; stroke: #808080; stroke-opacity: 0.5; stroke-width: 1.5"/>
   </g>
   <g id="line2d_35">
    <path d="M 615.846946 383.712614 
L 753.130747 383.712614 
L 753.628152 370.47472 
L 762.084038 370.47472 
L 762.581443 357.236827 
L 763.078848 357.236827 
L 763.576253 370.47472 
L 772.03214 370.47472 
L 772.529545 383.712614 
L 773.524355 383.712614 
L 774.02176 370.47472 
L 775.513975 370.47472 
L 776.01138 343.998934 
L 776.508785 330.76104 
L 783.472456 330.76104 
L 783.969862 343.998934 
L 785.462077 343.998934 
L 785.959482 370.47472 
L 786.954292 370.47472 
L 787.451697 357.236827 
L 787.949102 330.76104 
L 790.933533 330.76104 
L 791.928343 304.285253 
L 793.420558 304.285253 
L 793.917963 291.04736 
L 794.415368 291.04736 
L 794.912773 277.809467 
L 795.907583 277.809467 
L 796.404988 264.571573 
L 796.902394 264.571573 
L 797.399799 277.809467 
L 797.897204 304.285253 
L 798.394609 304.285253 
L 798.892014 277.809467 
L 799.886824 277.809467 
L 800.384229 264.571573 
L 800.881634 238.095787 
L 801.876444 264.571573 
L 802.871254 264.571573 
L 803.368659 251.33368 
L 803.866065 264.571573 
L 805.855685 264.571573 
L 806.35309 291.04736 
L 807.845305 291.04736 
L 808.34271 264.571573 
L 808.840115 277.809467 
L 809.33752 264.571573 
L 810.332331 264.571573 
L 810.829736 277.809467 
L 811.327141 277.809467 
L 811.824546 264.571573 
L 812.321951 238.095787 
L 813.316761 238.095787 
L 815.306381 185.144213 
L 816.301191 185.144213 
L 816.798597 171.90632 
L 817.296002 145.430533 
L 817.793407 132.19264 
L 818.290812 158.668427 
L 819.285622 132.19264 
L 819.783027 132.19264 
L 820.777837 158.668427 
L 821.275242 158.668427 
L 821.772647 171.90632 
L 822.270052 198.382107 
L 822.767457 198.382107 
L 823.264863 211.62 
L 823.762268 211.62 
L 824.259673 224.857893 
L 824.757078 251.33368 
L 825.254483 264.571573 
L 825.751888 251.33368 
L 826.249293 251.33368 
L 826.746698 238.095787 
L 827.741508 264.571573 
L 828.238913 238.095787 
L 828.736318 264.571573 
L 829.233723 277.809467 
L 829.731129 277.809467 
L 830.228534 264.571573 
L 833.710369 264.571573 
L 834.207774 251.33368 
L 834.705179 251.33368 
L 835.202584 238.095787 
L 835.699989 238.095787 
L 836.197394 224.857893 
L 837.68961 224.857893 
L 838.187015 251.33368 
L 838.68442 211.62 
L 839.67923 185.144213 
L 840.176635 185.144213 
L 840.67404 145.430533 
L 841.66885 118.954747 
L 842.166255 92.47896 
L 842.66366 79.241066 
L 843.161066 52.76528 
L 843.658471 66.003173 
L 844.653281 39.527386 
L 845.648091 66.003173 
L 846.145496 66.003173 
L 846.642901 92.47896 
L 847.140306 105.716853 
L 847.637711 105.716853 
L 848.135116 92.47896 
L 849.129926 145.430533 
L 850.124737 145.430533 
L 850.622142 171.90632 
L 851.616952 171.90632 
L 852.114357 158.668427 
L 852.611762 158.668427 
L 853.109167 185.144213 
L 854.103977 185.144213 
L 854.601382 198.382107 
L 855.098787 185.144213 
L 856.591003 185.144213 
L 857.088408 171.90632 
L 857.585813 145.430533 
L 858.580623 171.90632 
L 859.078028 158.668427 
L 859.575433 158.668427 
L 860.072838 171.90632 
L 861.067648 171.90632 
L 861.565053 185.144213 
L 862.062458 224.857893 
L 862.559863 238.095787 
L 863.057269 211.62 
L 863.554674 198.382107 
L 864.052079 224.857893 
L 864.549484 224.857893 
L 865.046889 238.095787 
L 865.544294 224.857893 
L 866.041699 224.857893 
L 866.539104 211.62 
L 867.036509 211.62 
L 868.031319 185.144213 
L 868.528724 158.668427 
L 869.026129 158.668427 
L 869.523535 171.90632 
L 870.02094 171.90632 
L 870.518345 145.430533 
L 871.01575 145.430533 
L 871.513155 105.716853 
L 872.507965 105.716853 
L 873.502775 132.19264 
L 874.00018 105.716853 
L 874.497585 105.716853 
L 874.99499 92.47896 
L 875.492395 92.47896 
L 876.984611 132.19264 
L 877.482016 158.668427 
L 877.979421 145.430533 
L 878.476826 171.90632 
L 878.974231 171.90632 
L 879.471636 158.668427 
L 879.969041 158.668427 
L 880.466446 171.90632 
L 880.963851 171.90632 
L 881.461256 185.144213 
L 881.958661 158.668427 
L 882.456067 145.430533 
L 883.948282 145.430533 
L 884.445687 132.19264 
L 885.440497 158.668427 
L 885.937902 158.668427 
L 886.932712 132.19264 
L 887.430117 145.430533 
L 887.927522 171.90632 
L 888.922332 171.90632 
L 889.419738 185.144213 
L 889.917143 185.144213 
L 890.414548 198.382107 
L 891.409358 198.382107 
L 891.906763 211.62 
L 892.901573 211.62 
L 893.398978 198.382107 
L 893.896383 224.857893 
L 894.891193 224.857893 
L 895.388598 211.62 
L 896.880814 211.62 
L 897.378219 198.382107 
L 897.875624 198.382107 
L 898.373029 185.144213 
L 898.870434 198.382107 
L 899.367839 185.144213 
L 899.865244 185.144213 
L 900.860054 211.62 
L 901.357459 198.382107 
L 902.35227 198.382107 
L 902.849675 211.62 
L 903.34708 185.144213 
L 903.844485 185.144213 
L 904.34189 198.382107 
L 904.839295 198.382107 
L 905.3367 211.62 
L 906.828915 211.62 
L 907.32632 224.857893 
L 907.823725 211.62 
L 908.32113 224.857893 
L 908.818536 211.62 
L 909.315941 224.857893 
L 910.808156 224.857893 
L 911.305561 264.571573 
L 912.300371 291.04736 
L 912.797776 277.809467 
L 913.295181 317.523147 
L 914.289991 317.523147 
L 914.787396 304.285253 
L 915.284801 304.285253 
L 915.782207 277.809467 
L 916.777017 304.285253 
L 917.274422 304.285253 
L 917.771827 317.523147 
L 918.269232 317.523147 
L 918.766637 330.76104 
L 920.258852 330.76104 
L 920.756257 317.523147 
L 922.248473 317.523147 
L 922.745878 330.76104 
L 923.740688 330.76104 
L 924.238093 317.523147 
L 925.232903 317.523147 
L 925.730308 343.998934 
L 926.725118 343.998934 
L 927.222523 330.76104 
L 930.206954 330.76104 
L 930.704359 343.998934 
L 932.196574 343.998934 
L 932.693979 317.523147 
L 934.186194 317.523147 
L 934.683599 330.76104 
L 935.67841 330.76104 
L 936.175815 317.523147 
L 936.67322 317.523147 
L 937.170625 330.76104 
L 937.66803 330.76104 
L 938.165435 317.523147 
L 939.160245 317.523147 
L 939.65765 304.285253 
L 941.64727 304.285253 
L 942.144676 291.04736 
L 942.642081 317.523147 
L 943.636891 317.523147 
L 944.134296 330.76104 
L 945.129106 330.76104 
L 945.626511 317.523147 
L 946.123916 330.76104 
L 947.118726 330.76104 
L 947.616131 317.523147 
L 948.113536 330.76104 
L 949.108347 330.76104 
L 949.605752 343.998934 
L 951.595372 343.998934 
L 952.092777 357.236827 
L 955.077208 357.236827 
L 955.574613 370.47472 
L 957.066828 370.47472 
L 957.564233 383.712614 
L 958.559043 383.712614 
L 959.056448 370.47472 
L 965.025309 370.47472 
L 965.522714 357.236827 
L 966.020119 357.236827 
L 966.517524 343.998934 
L 968.507145 343.998934 
L 969.00455 357.236827 
L 974.973411 357.236827 
L 975.470816 370.47472 
L 975.968221 370.47472 
L 976.465626 383.712614 
L 1004.32031 383.712614 
L 1004.817715 370.47472 
L 1014.268412 370.47472 
L 1014.765817 383.712614 
L 1112.754616 383.712614 
L 1112.754616 383.712614 
" clip-path="url(#p7ca85d1aeb)" style="fill: none; stroke: #1f77b4; stroke-opacity: 0.5; stroke-width: 1.5; stroke-linecap: square"/>
   </g>
   <g id="line2d_36">
    <path d="M 615.846946 383.712614 
L 743.182645 383.712614 
L 743.68005 379.299983 
L 752.135937 379.299983 
L 752.633342 374.887351 
L 763.576253 374.887351 
L 764.073659 370.47472 
L 765.565874 370.47472 
L 766.063279 361.649458 
L 766.560684 357.236827 
L 773.02695 357.236827 
L 773.524355 361.649458 
L 776.01138 361.649458 
L 776.508785 357.236827 
L 777.00619 357.236827 
L 777.503596 352.824196 
L 778.001001 343.998934 
L 780.985431 343.998934 
L 781.980241 335.173671 
L 782.477646 339.586302 
L 783.472456 339.586302 
L 783.969862 335.173671 
L 784.467267 335.173671 
L 784.964672 330.76104 
L 785.959482 330.76104 
L 786.456887 321.935778 
L 788.446507 321.935778 
L 788.943912 313.110516 
L 789.938722 313.110516 
L 790.436128 308.697885 
L 790.933533 299.872622 
L 792.923153 299.872622 
L 793.420558 295.459991 
L 793.917963 299.872622 
L 794.415368 299.872622 
L 794.912773 295.459991 
L 795.410178 295.459991 
L 795.907583 304.285253 
L 796.404988 308.697885 
L 797.897204 308.697885 
L 798.394609 299.872622 
L 799.389419 291.04736 
L 799.886824 291.04736 
L 800.881634 282.222098 
L 801.379039 282.222098 
L 801.876444 277.809467 
L 802.373849 268.984205 
L 802.871254 268.984205 
L 804.36347 255.746311 
L 804.860875 246.921049 
L 805.35828 242.508418 
L 805.855685 242.508418 
L 806.35309 246.921049 
L 807.3479 238.095787 
L 807.845305 242.508418 
L 808.34271 242.508418 
L 809.33752 224.857893 
L 810.829736 224.857893 
L 811.824546 233.683156 
L 814.311571 233.683156 
L 814.808976 238.095787 
L 815.306381 238.095787 
L 815.803786 233.683156 
L 816.301191 242.508418 
L 816.798597 233.683156 
L 817.296002 229.270524 
L 817.793407 229.270524 
L 818.290812 220.445262 
L 818.788217 229.270524 
L 819.285622 224.857893 
L 820.280432 224.857893 
L 820.777837 233.683156 
L 822.767457 233.683156 
L 823.264863 238.095787 
L 824.259673 229.270524 
L 824.757078 233.683156 
L 826.249293 220.445262 
L 826.746698 211.62 
L 827.244103 207.207369 
L 827.741508 207.207369 
L 828.238913 216.032631 
L 828.736318 207.207369 
L 829.731129 198.382107 
L 830.228534 198.382107 
L 830.725939 189.556844 
L 831.223344 185.144213 
L 832.218154 185.144213 
L 833.212964 176.318951 
L 833.710369 180.731582 
L 834.207774 176.318951 
L 835.202584 185.144213 
L 835.699989 185.144213 
L 836.197394 180.731582 
L 836.6948 185.144213 
L 837.192205 193.969476 
L 837.68961 198.382107 
L 838.187015 193.969476 
L 838.68442 198.382107 
L 839.181825 207.207369 
L 841.66885 185.144213 
L 842.166255 171.90632 
L 842.66366 167.493689 
L 843.161066 167.493689 
L 843.658471 171.90632 
L 844.155876 163.081058 
L 844.653281 163.081058 
L 845.150686 158.668427 
L 845.648091 163.081058 
L 846.145496 158.668427 
L 846.642901 167.493689 
L 847.140306 167.493689 
L 847.637711 158.668427 
L 848.135116 167.493689 
L 849.129926 167.493689 
L 849.627332 163.081058 
L 850.124737 167.493689 
L 851.119547 158.668427 
L 852.611762 158.668427 
L 853.109167 149.843164 
L 853.606572 149.843164 
L 854.103977 154.255795 
L 854.601382 154.255795 
L 855.098787 158.668427 
L 856.093598 158.668427 
L 856.591003 163.081058 
L 857.088408 163.081058 
L 857.585813 149.843164 
L 858.083218 145.430533 
L 860.072838 163.081058 
L 861.067648 163.081058 
L 861.565053 154.255795 
L 862.062458 163.081058 
L 863.057269 171.90632 
L 864.052079 171.90632 
L 864.549484 176.318951 
L 865.544294 167.493689 
L 866.041699 171.90632 
L 867.036509 171.90632 
L 868.031319 163.081058 
L 868.528724 167.493689 
L 869.026129 163.081058 
L 869.523535 163.081058 
L 870.02094 167.493689 
L 870.518345 163.081058 
L 871.01575 163.081058 
L 871.513155 158.668427 
L 872.01056 163.081058 
L 872.507965 163.081058 
L 873.00537 158.668427 
L 874.00018 158.668427 
L 874.497585 154.255795 
L 874.99499 158.668427 
L 875.492395 158.668427 
L 875.989801 163.081058 
L 876.487206 158.668427 
L 876.984611 158.668427 
L 877.482016 167.493689 
L 878.974231 167.493689 
L 879.471636 171.90632 
L 880.963851 171.90632 
L 881.461256 163.081058 
L 882.456067 154.255795 
L 882.953472 158.668427 
L 883.948282 158.668427 
L 884.445687 154.255795 
L 885.440497 154.255795 
L 885.937902 158.668427 
L 886.932712 158.668427 
L 887.430117 167.493689 
L 888.922332 180.731582 
L 889.419738 176.318951 
L 889.917143 176.318951 
L 890.414548 189.556844 
L 890.911953 193.969476 
L 891.409358 193.969476 
L 892.404168 185.144213 
L 892.901573 189.556844 
L 893.398978 176.318951 
L 893.896383 185.144213 
L 894.393788 185.144213 
L 895.388598 193.969476 
L 895.886004 193.969476 
L 896.880814 185.144213 
L 897.875624 193.969476 
L 898.870434 193.969476 
L 899.367839 198.382107 
L 899.865244 198.382107 
L 900.362649 207.207369 
L 900.860054 211.62 
L 901.854864 229.270524 
L 902.35227 233.683156 
L 903.34708 233.683156 
L 903.844485 242.508418 
L 904.34189 246.921049 
L 904.839295 242.508418 
L 905.3367 242.508418 
L 905.834105 233.683156 
L 906.828915 242.508418 
L 908.32113 242.508418 
L 908.818536 246.921049 
L 909.813346 246.921049 
L 910.310751 251.33368 
L 910.808156 251.33368 
L 911.305561 260.158942 
L 913.295181 277.809467 
L 914.289991 277.809467 
L 914.787396 273.396836 
L 915.284801 277.809467 
L 915.782207 277.809467 
L 916.777017 286.634729 
L 917.771827 286.634729 
L 918.269232 291.04736 
L 918.766637 291.04736 
L 919.264042 295.459991 
L 920.756257 295.459991 
L 921.253662 308.697885 
L 922.248473 317.523147 
L 922.745878 308.697885 
L 923.243283 321.935778 
L 923.740688 321.935778 
L 924.238093 317.523147 
L 926.227713 317.523147 
L 926.725118 321.935778 
L 927.222523 321.935778 
L 927.719928 326.348409 
L 928.217333 321.935778 
L 928.714739 326.348409 
L 929.212144 326.348409 
L 929.709549 321.935778 
L 931.699169 321.935778 
L 932.196574 317.523147 
L 932.693979 321.935778 
L 934.186194 321.935778 
L 934.683599 326.348409 
L 935.181005 326.348409 
L 935.67841 330.76104 
L 937.170625 330.76104 
L 937.66803 326.348409 
L 940.155055 326.348409 
L 940.65246 330.76104 
L 943.636891 330.76104 
L 944.631701 339.586302 
L 946.621321 339.586302 
L 947.118726 343.998934 
L 948.610942 343.998934 
L 949.108347 339.586302 
L 952.092777 339.586302 
L 952.590182 348.411565 
L 953.584992 348.411565 
L 954.082397 352.824196 
L 955.077208 352.824196 
L 955.574613 348.411565 
L 956.072018 352.824196 
L 956.569423 348.411565 
L 957.564233 348.411565 
L 958.061638 352.824196 
L 959.056448 352.824196 
L 959.553853 357.236827 
L 961.543474 357.236827 
L 962.040879 361.649458 
L 965.025309 361.649458 
L 965.522714 366.062089 
L 967.014929 366.062089 
L 967.512334 370.47472 
L 978.455246 370.47472 
L 978.952651 374.887351 
L 984.921512 374.887351 
L 985.418917 379.299983 
L 985.916322 379.299983 
L 986.413727 383.712614 
L 994.372209 383.712614 
L 994.869614 379.299983 
L 1024.216513 379.299983 
L 1024.713918 383.712614 
L 1112.754616 383.712614 
L 1112.754616 383.712614 
" clip-path="url(#p7ca85d1aeb)" style="fill: none; stroke: #ff7f0e; stroke-opacity: 0.5; stroke-width: 1.5; stroke-linecap: square"/>
   </g>
   <g id="line2d_37">
    <path d="M 615.846946 383.712614 
L 708.36429 383.712614 
L 708.861695 382.388824 
L 717.317581 382.388824 
L 717.814987 381.065035 
L 728.757898 381.065035 
L 729.255303 379.741246 
L 730.747518 379.741246 
L 731.244924 377.093667 
L 731.742329 375.769878 
L 741.193025 375.769878 
L 741.69043 374.446088 
L 742.187835 374.446088 
L 742.68524 373.122299 
L 743.182645 370.47472 
L 746.167076 370.47472 
L 747.161886 367.827142 
L 748.654101 367.827142 
L 749.151506 366.503352 
L 749.648911 366.503352 
L 750.146316 365.179563 
L 751.141127 365.179563 
L 751.638532 362.531984 
L 753.628152 362.531984 
L 754.125557 359.884406 
L 755.120367 359.884406 
L 755.617772 358.560616 
L 756.115177 355.913038 
L 758.104798 355.913038 
L 758.602203 354.589248 
L 759.597013 354.589248 
L 760.094418 353.265459 
L 763.078848 353.265459 
L 763.576253 350.61788 
L 764.571064 347.970302 
L 765.068469 347.970302 
L 766.063279 345.322723 
L 766.560684 345.322723 
L 767.058089 343.998934 
L 767.555494 341.351355 
L 768.052899 341.351355 
L 769.545114 337.379987 
L 770.042519 334.732408 
L 770.539925 333.408619 
L 771.534735 333.408619 
L 772.03214 332.08483 
L 772.529545 329.437251 
L 773.02695 328.113462 
L 773.524355 328.113462 
L 774.519165 322.818304 
L 778.498406 322.818304 
L 778.995811 321.494515 
L 780.488026 321.494515 
L 780.985431 320.170726 
L 781.482836 320.170726 
L 781.980241 317.523147 
L 782.477646 316.199358 
L 782.975051 316.199358 
L 783.472456 313.551779 
L 783.969862 313.551779 
L 784.467267 312.22799 
L 784.964672 312.22799 
L 785.462077 310.9042 
L 788.446507 310.9042 
L 789.441317 308.256622 
L 789.938722 308.256622 
L 791.430938 304.285253 
L 791.928343 301.637675 
L 792.425748 300.313885 
L 793.420558 300.313885 
L 793.917963 296.342517 
L 794.415368 293.694939 
L 795.410178 291.04736 
L 795.907583 287.075992 
L 796.902394 284.428413 
L 797.399799 281.780835 
L 797.897204 280.457045 
L 798.394609 277.809467 
L 798.892014 277.809467 
L 799.389419 275.161888 
L 799.886824 273.838099 
L 800.881634 273.838099 
L 801.379039 272.514309 
L 802.871254 272.514309 
L 803.866065 269.866731 
L 804.36347 269.866731 
L 806.850495 263.247784 
L 807.3479 259.276416 
L 807.845305 257.952627 
L 808.34271 259.276416 
L 808.840115 259.276416 
L 809.33752 256.628837 
L 809.834925 256.628837 
L 810.332331 255.305048 
L 810.829736 255.305048 
L 811.327141 253.981259 
L 811.824546 253.981259 
L 812.321951 252.657469 
L 812.819356 250.009891 
L 813.814166 250.009891 
L 814.808976 247.362312 
L 815.306381 247.362312 
L 816.301191 244.714733 
L 816.798597 244.714733 
L 817.296002 246.038523 
L 817.793407 246.038523 
L 818.290812 243.390944 
L 818.788217 242.067155 
L 820.280432 242.067155 
L 822.270052 236.771997 
L 822.767457 232.800629 
L 823.264863 231.47684 
L 823.762268 228.829261 
L 824.259673 227.505472 
L 825.254483 227.505472 
L 825.751888 223.534104 
L 826.249293 222.210315 
L 826.746698 218.238947 
L 827.741508 218.238947 
L 828.238913 216.915157 
L 828.736318 218.238947 
L 829.233723 215.591368 
L 829.731129 215.591368 
L 830.228534 214.267579 
L 831.223344 216.915157 
L 832.218154 216.915157 
L 832.715559 215.591368 
L 833.212964 212.943789 
L 833.710369 212.943789 
L 834.705179 210.296211 
L 835.202584 210.296211 
L 835.699989 207.648632 
L 836.197394 206.324843 
L 837.192205 201.029685 
L 838.187015 198.382107 
L 838.68442 198.382107 
L 839.181825 195.734528 
L 839.67923 194.410739 
L 840.67404 194.410739 
L 841.171445 195.734528 
L 841.66885 194.410739 
L 842.166255 194.410739 
L 842.66366 197.058317 
L 843.658471 197.058317 
L 844.155876 195.734528 
L 845.150686 195.734528 
L 845.648091 194.410739 
L 846.145496 194.410739 
L 848.135116 189.115581 
L 850.124737 189.115581 
L 850.622142 187.791792 
L 851.119547 190.439371 
L 852.611762 186.468003 
L 853.109167 186.468003 
L 853.606572 187.791792 
L 854.103977 187.791792 
L 854.601382 186.468003 
L 855.098787 187.791792 
L 855.596192 190.439371 
L 856.093598 190.439371 
L 856.591003 186.468003 
L 857.585813 183.820424 
L 858.083218 185.144213 
L 858.580623 181.172845 
L 859.078028 181.172845 
L 859.575433 182.496635 
L 861.067648 182.496635 
L 862.062458 179.849056 
L 862.559863 179.849056 
L 863.554674 182.496635 
L 864.549484 182.496635 
L 865.544294 185.144213 
L 866.041699 185.144213 
L 866.539104 186.468003 
L 867.036509 189.115581 
L 868.031319 189.115581 
L 869.026129 191.76316 
L 869.523535 194.410739 
L 870.518345 194.410739 
L 871.01575 191.76316 
L 871.513155 193.086949 
L 872.01056 195.734528 
L 872.507965 197.058317 
L 873.00537 197.058317 
L 874.00018 202.353475 
L 875.492395 202.353475 
L 875.989801 201.029685 
L 877.979421 201.029685 
L 878.476826 202.353475 
L 878.974231 202.353475 
L 879.969041 199.705896 
L 880.466446 201.029685 
L 880.963851 201.029685 
L 881.461256 203.677264 
L 881.958661 205.001053 
L 882.456067 203.677264 
L 882.953472 206.324843 
L 883.450877 206.324843 
L 883.948282 207.648632 
L 884.445687 207.648632 
L 884.943092 208.972421 
L 887.430117 208.972421 
L 887.927522 206.324843 
L 888.922332 208.972421 
L 889.419738 207.648632 
L 891.906763 214.267579 
L 892.901573 214.267579 
L 893.896383 219.562736 
L 894.393788 220.886525 
L 894.891193 220.886525 
L 895.388598 224.857893 
L 896.383409 227.505472 
L 896.880814 230.153051 
L 897.378219 230.153051 
L 897.875624 232.800629 
L 898.373029 232.800629 
L 898.870434 235.448208 
L 899.367839 236.771997 
L 902.849675 236.771997 
L 903.34708 238.095787 
L 903.844485 238.095787 
L 906.33151 244.714733 
L 906.828915 248.686101 
L 907.32632 250.009891 
L 908.32113 250.009891 
L 908.818536 252.657469 
L 909.315941 252.657469 
L 909.813346 253.981259 
L 910.310751 253.981259 
L 910.808156 255.305048 
L 911.305561 255.305048 
L 911.802966 256.628837 
L 912.300371 259.276416 
L 913.295181 259.276416 
L 913.792586 260.600205 
L 914.787396 260.600205 
L 915.782207 263.247784 
L 917.274422 263.247784 
L 917.771827 265.895363 
L 918.269232 267.219152 
L 919.761447 267.219152 
L 920.258852 268.542941 
L 920.756257 268.542941 
L 921.253662 269.866731 
L 921.751067 269.866731 
L 922.248473 273.838099 
L 922.745878 275.161888 
L 923.243283 277.809467 
L 923.740688 279.133256 
L 924.735498 279.133256 
L 925.232903 283.104624 
L 925.730308 284.428413 
L 926.227713 288.399781 
L 927.222523 288.399781 
L 927.719928 289.723571 
L 928.217333 289.723571 
L 928.714739 292.371149 
L 929.212144 292.371149 
L 930.206954 295.018728 
L 931.699169 295.018728 
L 932.196574 296.342517 
L 932.693979 298.990096 
L 933.191384 298.990096 
L 934.186194 301.637675 
L 934.683599 301.637675 
L 935.181005 304.285253 
L 935.67841 305.609043 
L 936.67322 310.9042 
L 937.66803 313.551779 
L 938.165435 313.551779 
L 938.66284 316.199358 
L 939.160245 317.523147 
L 940.65246 317.523147 
L 941.64727 320.170726 
L 943.139486 320.170726 
L 943.636891 321.494515 
L 944.631701 321.494515 
L 945.626511 324.142094 
L 946.123916 326.789672 
L 948.113536 332.08483 
L 948.610942 332.08483 
L 949.108347 333.408619 
L 949.605752 333.408619 
L 950.103157 334.732408 
L 950.600562 334.732408 
L 952.092777 338.703776 
L 952.590182 338.703776 
L 953.087587 340.027566 
L 953.584992 340.027566 
L 954.082397 341.351355 
L 955.574613 341.351355 
L 956.072018 345.322723 
L 957.066828 347.970302 
L 957.564233 347.970302 
L 958.061638 351.94167 
L 959.553853 351.94167 
L 960.051258 350.61788 
L 960.548663 350.61788 
L 961.543474 353.265459 
L 962.040879 353.265459 
L 962.538284 354.589248 
L 963.035689 354.589248 
L 963.533094 355.913038 
L 967.014929 355.913038 
L 967.512334 357.236827 
L 969.00455 357.236827 
L 969.501955 358.560616 
L 969.99936 358.560616 
L 970.496765 361.208195 
L 974.973411 361.208195 
L 975.470816 362.531984 
L 978.455246 362.531984 
L 979.450056 365.179563 
L 981.439677 365.179563 
L 981.937082 366.503352 
L 986.911132 366.503352 
L 987.408537 369.150931 
L 988.403348 369.150931 
L 988.900753 370.47472 
L 990.392968 370.47472 
L 990.890373 371.79851 
L 992.382588 371.79851 
L 992.879993 373.122299 
L 993.874803 373.122299 
L 994.372209 374.446088 
L 996.361829 374.446088 
L 996.859234 375.769878 
L 999.843664 375.769878 
L 1000.341069 377.093667 
L 1001.833285 377.093667 
L 1002.33069 378.417456 
L 1013.273601 378.417456 
L 1013.771006 379.741246 
L 1019.739867 379.741246 
L 1020.237272 381.065035 
L 1020.734678 381.065035 
L 1021.232083 382.388824 
L 1059.034868 382.388824 
L 1059.532273 383.712614 
L 1112.754616 383.712614 
L 1112.754616 383.712614 
" clip-path="url(#p7ca85d1aeb)" style="fill: none; stroke: #2ca02c; stroke-opacity: 0.5; stroke-width: 1.5; stroke-linecap: square"/>
   </g>
   <g id="line2d_38">
    <path d="M 615.846946 383.271351 
L 617.836566 383.271351 
L 618.333971 382.830087 
L 629.276883 382.830087 
L 629.774288 382.388824 
L 631.266503 382.388824 
L 631.763908 381.506298 
L 632.261314 381.065035 
L 641.71201 381.065035 
L 642.209415 380.623772 
L 642.70682 380.623772 
L 643.204225 380.182509 
L 643.70163 379.299983 
L 646.686061 379.299983 
L 647.680871 378.417456 
L 649.173086 378.417456 
L 649.670491 377.976193 
L 650.167896 377.976193 
L 650.665301 377.53493 
L 651.660111 377.53493 
L 652.157517 376.652404 
L 654.147137 376.652404 
L 654.644542 375.769878 
L 655.639352 375.769878 
L 656.136757 375.328615 
L 656.634162 374.446088 
L 658.623783 374.446088 
L 659.121188 374.004825 
L 660.115998 374.004825 
L 660.613403 373.563562 
L 663.597833 373.563562 
L 664.095238 372.681036 
L 665.090049 371.79851 
L 665.587454 371.79851 
L 666.582264 370.915983 
L 667.079669 370.915983 
L 667.577074 370.47472 
L 668.074479 369.592194 
L 668.571884 369.592194 
L 670.064099 368.268405 
L 670.561504 367.385878 
L 671.058909 366.944615 
L 672.05372 366.944615 
L 672.551125 366.503352 
L 673.04853 365.620826 
L 673.545935 365.179563 
L 674.04334 365.179563 
L 675.03815 363.41451 
L 679.017391 363.41451 
L 679.514796 362.973247 
L 681.007011 362.973247 
L 681.504416 362.531984 
L 682.001821 362.531984 
L 682.499226 361.649458 
L 682.996631 361.208195 
L 683.494036 361.208195 
L 683.991441 360.325669 
L 684.488846 360.325669 
L 684.986252 359.884406 
L 685.483657 359.884406 
L 685.981062 359.443142 
L 688.965492 359.443142 
L 689.960302 358.560616 
L 690.457707 358.560616 
L 691.949923 357.236827 
L 692.447328 356.354301 
L 692.944733 355.913038 
L 693.939543 355.913038 
L 694.436948 354.589248 
L 694.934353 353.706722 
L 695.929163 352.824196 
L 696.426568 351.500406 
L 697.421378 350.61788 
L 697.918783 349.735354 
L 698.416189 349.294091 
L 698.913594 348.411565 
L 699.410999 348.411565 
L 699.908404 347.529038 
L 700.405809 347.087775 
L 701.400619 347.087775 
L 701.898024 346.646512 
L 703.390239 346.646512 
L 704.385049 345.763986 
L 704.882455 345.763986 
L 707.36948 343.55767 
L 707.866885 342.233881 
L 708.36429 341.792618 
L 709.3591 341.792618 
L 709.856505 340.910092 
L 710.35391 340.910092 
L 710.851315 340.468829 
L 711.348721 340.468829 
L 711.846126 340.027566 
L 712.343531 340.027566 
L 712.840936 339.586302 
L 713.338341 338.703776 
L 714.333151 338.703776 
L 715.327961 337.82125 
L 715.825366 337.82125 
L 716.820176 336.938724 
L 718.312392 336.938724 
L 718.809797 336.056198 
L 719.307202 335.614934 
L 720.799417 335.614934 
L 722.789037 333.849882 
L 723.286442 332.526093 
L 723.783847 332.08483 
L 724.281252 331.202303 
L 724.778658 330.76104 
L 725.773468 330.76104 
L 726.270873 329.437251 
L 726.768278 328.995988 
L 727.265683 327.672198 
L 728.260493 327.672198 
L 728.757898 327.230935 
L 729.255303 327.230935 
L 729.752708 326.348409 
L 730.250113 326.348409 
L 731.244924 325.465883 
L 732.737139 325.465883 
L 733.234544 325.02462 
L 733.731949 324.142094 
L 734.229354 324.142094 
L 735.224164 323.259567 
L 735.721569 323.259567 
L 736.218974 322.377041 
L 736.716379 321.935778 
L 737.71119 320.170726 
L 738.706 319.288199 
L 739.203405 319.288199 
L 739.70081 318.405673 
L 740.198215 317.96441 
L 741.69043 317.96441 
L 742.68524 317.081884 
L 744.177456 317.081884 
L 744.674861 316.640621 
L 745.669671 316.640621 
L 746.664481 315.758094 
L 747.161886 314.875568 
L 749.151506 313.110516 
L 749.648911 313.110516 
L 750.146316 312.669253 
L 750.643721 312.669253 
L 751.141127 312.22799 
L 751.638532 312.22799 
L 753.130747 310.9042 
L 753.628152 310.9042 
L 754.125557 310.462937 
L 754.622962 310.462937 
L 755.120367 310.021674 
L 756.612582 310.021674 
L 757.109987 308.697885 
L 758.104798 307.815358 
L 758.602203 307.815358 
L 759.099608 306.491569 
L 761.586633 306.491569 
L 762.581443 305.609043 
L 763.078848 305.609043 
L 763.576253 305.16778 
L 764.073659 305.16778 
L 764.571064 304.726517 
L 768.052899 304.726517 
L 768.550304 304.285253 
L 770.042519 304.285253 
L 770.539925 303.84399 
L 771.03733 303.84399 
L 771.534735 302.961464 
L 776.01138 302.961464 
L 776.508785 302.520201 
L 779.493216 302.520201 
L 780.488026 301.637675 
L 782.477646 301.637675 
L 782.975051 301.196412 
L 787.949102 301.196412 
L 788.446507 300.313885 
L 789.441317 300.313885 
L 789.938722 299.872622 
L 791.430938 299.872622 
L 791.928343 299.431359 
L 793.420558 299.431359 
L 793.917963 298.990096 
L 794.912773 298.990096 
L 795.410178 298.548833 
L 797.399799 298.548833 
L 797.897204 298.10757 
L 800.881634 298.10757 
L 801.379039 297.666307 
L 802.871254 297.666307 
L 803.368659 297.225044 
L 814.311571 297.225044 
L 814.808976 296.783781 
L 820.777837 296.783781 
L 821.275242 296.342517 
L 821.772647 296.342517 
L 822.270052 295.901254 
L 860.072838 295.901254 
L 860.570243 295.459991 
L 907.32632 295.459991 
L 907.823725 295.901254 
L 916.279612 295.901254 
L 916.777017 296.342517 
L 927.719928 296.342517 
L 928.217333 296.783781 
L 929.709549 296.783781 
L 930.206954 297.666307 
L 930.704359 298.10757 
L 940.155055 298.10757 
L 940.65246 298.548833 
L 941.149865 298.548833 
L 941.64727 298.990096 
L 942.144676 299.872622 
L 945.129106 299.872622 
L 946.123916 300.755149 
L 947.616131 300.755149 
L 948.113536 301.196412 
L 948.610942 301.196412 
L 949.108347 301.637675 
L 950.103157 301.637675 
L 950.600562 302.520201 
L 952.590182 302.520201 
L 953.087587 303.402727 
L 954.082397 303.402727 
L 954.579802 303.84399 
L 955.077208 304.726517 
L 957.066828 304.726517 
L 957.564233 305.16778 
L 958.559043 305.16778 
L 959.056448 305.609043 
L 962.040879 305.609043 
L 962.538284 306.491569 
L 963.533094 307.374095 
L 964.030499 307.374095 
L 965.025309 308.256622 
L 965.522714 308.256622 
L 966.020119 308.697885 
L 966.517524 309.580411 
L 967.014929 309.580411 
L 968.507145 310.9042 
L 969.00455 311.786726 
L 969.501955 312.22799 
L 970.496765 312.22799 
L 970.99417 312.669253 
L 971.491575 313.551779 
L 971.98898 313.993042 
L 972.486385 313.993042 
L 973.481195 315.758094 
L 977.460436 315.758094 
L 977.957841 316.199358 
L 979.450056 316.199358 
L 979.947461 316.640621 
L 980.444866 316.640621 
L 980.942271 317.523147 
L 981.439677 317.96441 
L 981.937082 317.96441 
L 982.434487 318.846936 
L 982.931892 318.846936 
L 983.429297 319.288199 
L 983.926702 319.288199 
L 984.424107 319.729462 
L 987.408537 319.729462 
L 988.403348 320.611989 
L 988.900753 320.611989 
L 990.392968 321.935778 
L 990.890373 322.818304 
L 991.387778 323.259567 
L 992.382588 323.259567 
L 992.879993 324.583357 
L 993.377398 325.465883 
L 994.372209 326.348409 
L 994.869614 327.672198 
L 995.864424 328.554725 
L 996.361829 329.437251 
L 996.859234 329.878514 
L 997.356639 330.76104 
L 997.854044 330.76104 
L 998.351449 331.643566 
L 998.848854 332.08483 
L 999.843664 332.08483 
L 1000.341069 332.526093 
L 1001.833285 332.526093 
L 1002.828095 333.408619 
L 1003.3255 333.408619 
L 1005.812525 335.614934 
L 1006.30993 336.938724 
L 1006.807335 337.379987 
L 1007.802146 337.379987 
L 1008.299551 338.262513 
L 1008.796956 338.262513 
L 1009.294361 338.703776 
L 1009.791766 338.703776 
L 1010.289171 339.145039 
L 1010.786576 339.145039 
L 1011.283981 339.586302 
L 1011.781386 340.468829 
L 1012.776196 340.468829 
L 1013.771006 341.351355 
L 1014.268412 341.351355 
L 1015.263222 342.233881 
L 1016.755437 342.233881 
L 1017.252842 343.116407 
L 1017.750247 343.55767 
L 1019.242462 343.55767 
L 1021.232083 345.322723 
L 1021.729488 346.646512 
L 1022.226893 347.087775 
L 1022.724298 347.970302 
L 1023.221703 348.411565 
L 1024.216513 348.411565 
L 1024.713918 349.735354 
L 1025.211323 350.176617 
L 1025.708728 351.500406 
L 1026.703538 351.500406 
L 1027.200943 351.94167 
L 1027.698349 351.94167 
L 1028.195754 352.824196 
L 1028.693159 352.824196 
L 1029.687969 353.706722 
L 1031.180184 353.706722 
L 1031.677589 354.147985 
L 1032.174994 355.030511 
L 1032.672399 355.030511 
L 1033.667209 355.913038 
L 1034.164615 355.913038 
L 1034.66202 356.795564 
L 1035.159425 357.236827 
L 1036.154235 359.001879 
L 1037.149045 359.884406 
L 1037.64645 359.884406 
L 1038.143855 360.766932 
L 1038.64126 361.208195 
L 1040.133475 361.208195 
L 1041.128286 362.090721 
L 1042.620501 362.090721 
L 1043.117906 362.531984 
L 1044.112716 362.531984 
L 1045.107526 363.41451 
L 1045.604931 364.297037 
L 1047.594552 366.062089 
L 1048.091957 366.062089 
L 1048.589362 366.503352 
L 1049.086767 366.503352 
L 1049.584172 366.944615 
L 1050.081577 366.944615 
L 1051.573792 368.268405 
L 1052.071197 368.268405 
L 1052.568602 368.709668 
L 1053.066007 368.709668 
L 1053.563412 369.150931 
L 1055.055628 369.150931 
L 1055.553033 370.47472 
L 1056.547843 371.357247 
L 1057.045248 371.357247 
L 1057.542653 372.681036 
L 1060.029678 372.681036 
L 1061.024489 373.563562 
L 1061.521894 373.563562 
L 1062.019299 374.004825 
L 1062.516704 374.004825 
L 1063.014109 374.446088 
L 1066.495944 374.446088 
L 1066.99335 374.887351 
L 1068.485565 374.887351 
L 1068.98297 375.328615 
L 1069.480375 375.328615 
L 1069.97778 376.211141 
L 1074.454426 376.211141 
L 1074.951831 376.652404 
L 1077.936261 376.652404 
L 1078.931071 377.53493 
L 1080.920692 377.53493 
L 1081.418097 377.976193 
L 1086.392147 377.976193 
L 1086.889553 378.858719 
L 1087.884363 378.858719 
L 1088.381768 379.299983 
L 1089.873983 379.299983 
L 1090.371388 379.741246 
L 1091.863603 379.741246 
L 1092.361008 380.182509 
L 1093.355819 380.182509 
L 1093.853224 380.623772 
L 1095.842844 380.623772 
L 1096.340249 381.065035 
L 1099.324679 381.065035 
L 1099.822085 381.506298 
L 1101.3143 381.506298 
L 1101.811705 381.947561 
L 1112.754616 381.947561 
L 1112.754616 381.947561 
" clip-path="url(#p7ca85d1aeb)" style="fill: none; stroke: #d62728; stroke-opacity: 0.5; stroke-width: 1.5; stroke-linecap: square"/>
   </g>
   <g id="patch_9">
    <path d="M 591.001562 400.921875 
L 591.001562 22.318125 
" style="fill: none; stroke: #000000; stroke-width: 0.8; stroke-linejoin: miter; stroke-linecap: square"/>
   </g>
   <g id="patch_10">
    <path d="M 1137.6 400.921875 
L 1137.6 22.318125 
" style="fill: none; stroke: #000000; stroke-width: 0.8; stroke-linejoin: miter; stroke-linecap: square"/>
   </g>
   <g id="patch_11">
    <path d="M 591.001563 400.921875 
L 1137.6 400.921875 
" style="fill: none; stroke: #000000; stroke-width: 0.8; stroke-linejoin: miter; stroke-linecap: square"/>
   </g>
   <g id="patch_12">
    <path d="M 591.001563 22.318125 
L 1137.6 22.318125 
" style="fill: none; stroke: #000000; stroke-width: 0.8; stroke-linejoin: miter; stroke-linecap: square"/>
   </g>
   <g id="text_23">
    <!-- Kernel = tophat -->
    <g transform="translate(816.945781 16.318125) scale(0.12 -0.12)">
     <defs>
      <path id="DejaVuSans-74" d="M 1172 4494 
L 1172 3500 
L 2356 3500 
L 2356 3053 
L 1172 3053 
L 1172 1153 
Q 1172 725 1289 603 
Q 1406 481 1766 481 
L 2356 481 
L 2356 0 
L 1766 0 
Q 1100 0 847 248 
Q 594 497 594 1153 
L 594 3053 
L 172 3053 
L 172 3500 
L 594 3500 
L 594 4494 
L 1172 4494 
z
" transform="scale(0.015625)"/>
      <path id="DejaVuSans-6f" d="M 1959 3097 
Q 1497 3097 1228 2736 
Q 959 2375 959 1747 
Q 959 1119 1226 758 
Q 1494 397 1959 397 
Q 2419 397 2687 759 
Q 2956 1122 2956 1747 
Q 2956 2369 2687 2733 
Q 2419 3097 1959 3097 
z
M 1959 3584 
Q 2709 3584 3137 3096 
Q 3566 2609 3566 1747 
Q 3566 888 3137 398 
Q 2709 -91 1959 -91 
Q 1206 -91 779 398 
Q 353 888 353 1747 
Q 353 2609 779 3096 
Q 1206 3584 1959 3584 
z
" transform="scale(0.015625)"/>
      <path id="DejaVuSans-70" d="M 1159 525 
L 1159 -1331 
L 581 -1331 
L 581 3500 
L 1159 3500 
L 1159 2969 
Q 1341 3281 1617 3432 
Q 1894 3584 2278 3584 
Q 2916 3584 3314 3078 
Q 3713 2572 3713 1747 
Q 3713 922 3314 415 
Q 2916 -91 2278 -91 
Q 1894 -91 1617 61 
Q 1341 213 1159 525 
z
M 3116 1747 
Q 3116 2381 2855 2742 
Q 2594 3103 2138 3103 
Q 1681 3103 1420 2742 
Q 1159 2381 1159 1747 
Q 1159 1113 1420 752 
Q 1681 391 2138 391 
Q 2594 391 2855 752 
Q 3116 1113 3116 1747 
z
" transform="scale(0.015625)"/>
     </defs>
     <use xlink:href="#DejaVuSans-4b"/>
     <use xlink:href="#DejaVuSans-65" transform="translate(60.576172 0)"/>
     <use xlink:href="#DejaVuSans-72" transform="translate(122.099609 0)"/>
     <use xlink:href="#DejaVuSans-6e" transform="translate(161.462891 0)"/>
     <use xlink:href="#DejaVuSans-65" transform="translate(224.841797 0)"/>
     <use xlink:href="#DejaVuSans-6c" transform="translate(286.365234 0)"/>
     <use xlink:href="#DejaVuSans-20" transform="translate(314.148438 0)"/>
     <use xlink:href="#DejaVuSans-3d" transform="translate(345.935547 0)"/>
     <use xlink:href="#DejaVuSans-20" transform="translate(429.724609 0)"/>
     <use xlink:href="#DejaVuSans-74" transform="translate(461.511719 0)"/>
     <use xlink:href="#DejaVuSans-6f" transform="translate(500.720703 0)"/>
     <use xlink:href="#DejaVuSans-70" transform="translate(561.902344 0)"/>
     <use xlink:href="#DejaVuSans-68" transform="translate(625.378906 0)"/>
     <use xlink:href="#DejaVuSans-61" transform="translate(688.757812 0)"/>
     <use xlink:href="#DejaVuSans-74" transform="translate(750.037109 0)"/>
    </g>
   </g>
   <g id="legend_2">
    <g id="patch_13">
     <path d="M 1061.623438 89.030625 
L 1130.6 89.030625 
Q 1132.6 89.030625 1132.6 87.030625 
L 1132.6 29.318125 
Q 1132.6 27.318125 1130.6 27.318125 
L 1061.623438 27.318125 
Q 1059.623438 27.318125 1059.623438 29.318125 
L 1059.623438 87.030625 
Q 1059.623438 89.030625 1061.623438 89.030625 
z
" style="fill: #ffffff; opacity: 0.8; stroke: #cccccc; stroke-linejoin: miter"/>
    </g>
    <g id="line2d_39">
     <path d="M 1063.623438 35.416563 
L 1073.623438 35.416563 
L 1083.623438 35.416563 
" style="fill: none; stroke: #1f77b4; stroke-opacity: 0.5; stroke-width: 1.5; stroke-linecap: square"/>
    </g>
    <g id="text_24">
     <!-- h = 0.1 -->
     <g transform="translate(1091.623438 38.916563) scale(0.1 -0.1)">
      <use xlink:href="#DejaVuSans-68"/>
      <use xlink:href="#DejaVuSans-20" transform="translate(63.378906 0)"/>
      <use xlink:href="#DejaVuSans-3d" transform="translate(95.166016 0)"/>
      <use xlink:href="#DejaVuSans-20" transform="translate(178.955078 0)"/>
      <use xlink:href="#DejaVuSans-30" transform="translate(210.742188 0)"/>
      <use xlink:href="#DejaVuSans-2e" transform="translate(274.365234 0)"/>
      <use xlink:href="#DejaVuSans-31" transform="translate(306.152344 0)"/>
     </g>
    </g>
    <g id="line2d_40">
     <path d="M 1063.623438 50.094688 
L 1073.623438 50.094688 
L 1083.623438 50.094688 
" style="fill: none; stroke: #ff7f0e; stroke-opacity: 0.5; stroke-width: 1.5; stroke-linecap: square"/>
    </g>
    <g id="text_25">
     <!-- h = 0.3 -->
     <g transform="translate(1091.623438 53.594688) scale(0.1 -0.1)">
      <use xlink:href="#DejaVuSans-68"/>
      <use xlink:href="#DejaVuSans-20" transform="translate(63.378906 0)"/>
      <use xlink:href="#DejaVuSans-3d" transform="translate(95.166016 0)"/>
      <use xlink:href="#DejaVuSans-20" transform="translate(178.955078 0)"/>
      <use xlink:href="#DejaVuSans-30" transform="translate(210.742188 0)"/>
      <use xlink:href="#DejaVuSans-2e" transform="translate(274.365234 0)"/>
      <use xlink:href="#DejaVuSans-33" transform="translate(306.152344 0)"/>
     </g>
    </g>
    <g id="line2d_41">
     <path d="M 1063.623438 64.772813 
L 1073.623438 64.772813 
L 1083.623438 64.772813 
" style="fill: none; stroke: #2ca02c; stroke-opacity: 0.5; stroke-width: 1.5; stroke-linecap: square"/>
    </g>
    <g id="text_26">
     <!-- h = 1 -->
     <g transform="translate(1091.623438 68.272813) scale(0.1 -0.1)">
      <use xlink:href="#DejaVuSans-68"/>
      <use xlink:href="#DejaVuSans-20" transform="translate(63.378906 0)"/>
      <use xlink:href="#DejaVuSans-3d" transform="translate(95.166016 0)"/>
      <use xlink:href="#DejaVuSans-20" transform="translate(178.955078 0)"/>
      <use xlink:href="#DejaVuSans-31" transform="translate(210.742188 0)"/>
     </g>
    </g>
    <g id="line2d_42">
     <path d="M 1063.623438 79.450938 
L 1073.623438 79.450938 
L 1083.623438 79.450938 
" style="fill: none; stroke: #d62728; stroke-opacity: 0.5; stroke-width: 1.5; stroke-linecap: square"/>
    </g>
    <g id="text_27">
     <!-- h = 3 -->
     <g transform="translate(1091.623438 82.950938) scale(0.1 -0.1)">
      <use xlink:href="#DejaVuSans-68"/>
      <use xlink:href="#DejaVuSans-20" transform="translate(63.378906 0)"/>
      <use xlink:href="#DejaVuSans-3d" transform="translate(95.166016 0)"/>
      <use xlink:href="#DejaVuSans-20" transform="translate(178.955078 0)"/>
      <use xlink:href="#DejaVuSans-33" transform="translate(210.742188 0)"/>
     </g>
    </g>
   </g>
  </g>
 </g>
 <defs>
  <clipPath id="p8b86e9cf17">
   <rect x="30.103125" y="22.318125" width="546.598437" height="378.60375"/>
  </clipPath>
  <clipPath id="p7ca85d1aeb">
   <rect x="591.001562" y="22.318125" width="546.598438" height="378.60375"/>
  </clipPath>
 </defs>
</svg>
