<?xml version="1.0" encoding="utf-8" standalone="no"?>
<!DOCTYPE svg PUBLIC "-//W3C//DTD SVG 1.1//EN"
  "http://www.w3.org/Graphics/SVG/1.1/DTD/svg11.dtd">
<svg xmlns:xlink="http://www.w3.org/1999/xlink" width="1152pt" height="432pt" viewBox="0 0 1152 432" xmlns="http://www.w3.org/2000/svg" version="1.1">
 <metadata>
  <rdf:RDF xmlns:dc="http://purl.org/dc/elements/1.1/" xmlns:cc="http://creativecommons.org/ns#" xmlns:rdf="http://www.w3.org/1999/02/22-rdf-syntax-ns#">
   <cc:Work>
    <dc:type rdf:resource="http://purl.org/dc/dcmitype/StillImage"/>
    <dc:date>1970-01-01T00:00:00+00:00</dc:date>
    <dc:format>image/svg+xml</dc:format>
    <dc:creator>
     <cc:Agent>
      <dc:title>Matplotlib v3.10.7, https://matplotlib.org/</dc:title>
     </cc:Agent>
    </dc:creator>
   </cc:Work>
  </rdf:RDF>
 </metadata>
 <defs>
  <style type="text/css">*{stroke-linejoin: round; stroke-linecap: butt}</style>
 </defs>
 <g id="figure_1">
  <g id="patch_1">
   <path d="M 0 432 
L 1152 432 
L 1152 0 
L 0 0 
z
" style="fill: #ffffff"/>
  </g>
  <g id="axes_1">
   <g id="patch_2">
    <path d="M 33.703125 404.521875 
L 580.301562 404.521875 
L 580.301562 25.918125 
L 33.703125 25.918125 
z
" style="fill: #ffffff"/>
   </g>
   <g id="matplotlib.axis_1">
    <g id="xtick_1">
     <g id="line2d_1">
      <defs>
       <path id="m38f3b05bbe" d="M 0 0 
L 0 3.5 
" style="stroke: #000000; stroke-width: 0.8"/>
      </defs>
      <g>
       <use xlink:href="#m38f3b05bbe" x="108.289016" y="404.521875" style="stroke: #000000; stroke-width: 0.8"/>
      </g>
     </g>
     <g id="text_1">
      <!-- -4 -->
      <g transform="translate(103.30386 419.120313) scale(0.1 -0.1)">
       <defs>
        <path id="DejaVuSans-2d" d="M 313 2009 
L 1997 2009 
L 1997 1497 
L 313 1497 
L 313 2009 
z
" transform="scale(0.015625)"/>
        <path id="DejaVuSans-34" d="M 2419 4116 
L 825 1625 
L 2419 1625 
L 2419 4116 
z
M 2253 4666 
L 3047 4666 
L 3047 1625 
L 3713 1625 
L 3713 1100 
L 3047 1100 
L 3047 0 
L 2419 0 
L 2419 1100 
L 313 1100 
L 313 1709 
L 2253 4666 
z
" transform="scale(0.015625)"/>
       </defs>
       <use xlink:href="#DejaVuSans-2d"/>
       <use xlink:href="#DejaVuSans-34" transform="translate(36.083984 0)"/>
      </g>
     </g>
    </g>
    <g id="xtick_2">
     <g id="line2d_2">
      <g>
       <use xlink:href="#m38f3b05bbe" x="207.770031" y="404.521875" style="stroke: #000000; stroke-width: 0.8"/>
      </g>
     </g>
     <g id="text_2">
      <!-- -2 -->
      <g transform="translate(202.784875 419.120313) scale(0.1 -0.1)">
       <defs>
        <path id="DejaVuSans-32" d="M 1228 531 
L 3431 531 
L 3431 0 
L 469 0 
L 469 531 
Q 828 903 1448 1529 
Q 2069 2156 2228 2338 
Q 2531 2678 2651 2914 
Q 2772 3150 2772 3378 
Q 2772 3750 2511 3984 
Q 2250 4219 1831 4219 
Q 1534 4219 1204 4116 
Q 875 4013 500 3803 
L 500 4441 
Q 881 4594 1212 4672 
Q 1544 4750 1819 4750 
Q 2544 4750 2975 4387 
Q 3406 4025 3406 3419 
Q 3406 3131 3298 2873 
Q 3191 2616 2906 2266 
Q 2828 2175 2409 1742 
Q 1991 1309 1228 531 
z
" transform="scale(0.015625)"/>
       </defs>
       <use xlink:href="#DejaVuSans-2d"/>
       <use xlink:href="#DejaVuSans-32" transform="translate(36.083984 0)"/>
      </g>
     </g>
    </g>
    <g id="xtick_3">
     <g id="line2d_3">
      <g>
       <use xlink:href="#m38f3b05bbe" x="307.251046" y="404.521875" style="stroke: #000000; stroke-width: 0.8"/>
      </g>
     </g>
     <g id="text_3">
      <!-- 0 -->
      <g transform="translate(304.069796 419.120313) scale(0.1 -0.1)">
       <defs>
        <path id="DejaVuSans-30" d="M 2034 4250 
Q 1547 4250 1301 3770 
Q 1056 3291 1056 2328 
Q 1056 1369 1301 889 
Q 1547 409 2034 409 
Q 2525 409 2770 889 
Q 3016 1369 3016 2328 
Q 3016 3291 2770 3770 
Q 2525 4250 2034 4250 
z
M 2034 4750 
Q 2819 4750 3233 4129 
Q 3647 3509 3647 2328 
Q 3647 1150 3233 529 
Q 2819 -91 2034 -91 
Q 1250 -91 836 529 
Q 422 1150 422 2328 
Q 422 3509 836 4129 
Q 1250 4750 2034 4750 
z
" transform="scale(0.015625)"/>
       </defs>
       <use xlink:href="#DejaVuSans-30"/>
      </g>
     </g>
    </g>
    <g id="xtick_4">
     <g id="line2d_4">
      <g>
       <use xlink:href="#m38f3b05bbe" x="406.732061" y="404.521875" style="stroke: #000000; stroke-width: 0.8"/>
      </g>
     </g>
     <g id="text_4">
      <!-- 2 -->
      <g transform="translate(403.550811 419.120313) scale(0.1 -0.1)">
       <use xlink:href="#DejaVuSans-32"/>
      </g>
     </g>
    </g>
    <g id="xtick_5">
     <g id="line2d_5">
      <g>
       <use xlink:href="#m38f3b05bbe" x="506.213076" y="404.521875" style="stroke: #000000; stroke-width: 0.8"/>
      </g>
     </g>
     <g id="text_5">
      <!-- 4 -->
      <g transform="translate(503.031826 419.120313) scale(0.1 -0.1)">
       <use xlink:href="#DejaVuSans-34"/>
      </g>
     </g>
    </g>
   </g>
   <g id="matplotlib.axis_2">
    <g id="ytick_1">
     <g id="line2d_6">
      <defs>
       <path id="mbd2f377c6c" d="M 0 0 
L -3.5 0 
" style="stroke: #000000; stroke-width: 0.8"/>
      </defs>
      <g>
       <use xlink:href="#mbd2f377c6c" x="33.703125" y="387.312614" style="stroke: #000000; stroke-width: 0.8"/>
      </g>
     </g>
     <g id="text_6">
      <!-- 0.0 -->
      <g transform="translate(10.8 391.111832) scale(0.1 -0.1)">
       <defs>
        <path id="DejaVuSans-2e" d="M 684 794 
L 1344 794 
L 1344 0 
L 684 0 
L 684 794 
z
" transform="scale(0.015625)"/>
       </defs>
       <use xlink:href="#DejaVuSans-30"/>
       <use xlink:href="#DejaVuSans-2e" transform="translate(63.623047 0)"/>
       <use xlink:href="#DejaVuSans-30" transform="translate(95.410156 0)"/>
      </g>
     </g>
    </g>
    <g id="ytick_2">
     <g id="line2d_7">
      <g>
       <use xlink:href="#mbd2f377c6c" x="33.703125" y="334.36104" style="stroke: #000000; stroke-width: 0.8"/>
      </g>
     </g>
     <g id="text_7">
      <!-- 0.1 -->
      <g transform="translate(10.8 338.160259) scale(0.1 -0.1)">
       <defs>
        <path id="DejaVuSans-31" d="M 794 531 
L 1825 531 
L 1825 4091 
L 703 3866 
L 703 4441 
L 1819 4666 
L 2450 4666 
L 2450 531 
L 3481 531 
L 3481 0 
L 794 0 
L 794 531 
z
" transform="scale(0.015625)"/>
       </defs>
       <use xlink:href="#DejaVuSans-30"/>
       <use xlink:href="#DejaVuSans-2e" transform="translate(63.623047 0)"/>
       <use xlink:href="#DejaVuSans-31" transform="translate(95.410156 0)"/>
      </g>
     </g>
    </g>
    <g id="ytick_3">
     <g id="line2d_8">
      <g>
       <use xlink:href="#mbd2f377c6c" x="33.703125" y="281.409467" style="stroke: #000000; stroke-width: 0.8"/>
      </g>
     </g>
     <g id="text_8">
      <!-- 0.2 -->
      <g transform="translate(10.8 285.208686) scale(0.1 -0.1)">
       <use xlink:href="#DejaVuSans-30"/>
       <use xlink:href="#DejaVuSans-2e" transform="translate(63.623047 0)"/>
       <use xlink:href="#DejaVuSans-32" transform="translate(95.410156 0)"/>
      </g>
     </g>
    </g>
    <g id="ytick_4">
     <g id="line2d_9">
      <g>
       <use xlink:href="#mbd2f377c6c" x="33.703125" y="228.457893" style="stroke: #000000; stroke-width: 0.8"/>
      </g>
     </g>
     <g id="text_9">
      <!-- 0.3 -->
      <g transform="translate(10.8 232.257112) scale(0.1 -0.1)">
       <defs>
        <path id="DejaVuSans-33" d="M 2597 2516 
Q 3050 2419 3304 2112 
Q 3559 1806 3559 1356 
Q 3559 666 3084 287 
Q 2609 -91 1734 -91 
Q 1441 -91 1130 -33 
Q 819 25 488 141 
L 488 750 
Q 750 597 1062 519 
Q 1375 441 1716 441 
Q 2309 441 2620 675 
Q 2931 909 2931 1356 
Q 2931 1769 2642 2001 
Q 2353 2234 1838 2234 
L 1294 2234 
L 1294 2753 
L 1863 2753 
Q 2328 2753 2575 2939 
Q 2822 3125 2822 3475 
Q 2822 3834 2567 4026 
Q 2313 4219 1838 4219 
Q 1578 4219 1281 4162 
Q 984 4106 628 3988 
L 628 4550 
Q 988 4650 1302 4700 
Q 1616 4750 1894 4750 
Q 2613 4750 3031 4423 
Q 3450 4097 3450 3541 
Q 3450 3153 3228 2886 
Q 3006 2619 2597 2516 
z
" transform="scale(0.015625)"/>
       </defs>
       <use xlink:href="#DejaVuSans-30"/>
       <use xlink:href="#DejaVuSans-2e" transform="translate(63.623047 0)"/>
       <use xlink:href="#DejaVuSans-33" transform="translate(95.410156 0)"/>
      </g>
     </g>
    </g>
    <g id="ytick_5">
     <g id="line2d_10">
      <g>
       <use xlink:href="#mbd2f377c6c" x="33.703125" y="175.50632" style="stroke: #000000; stroke-width: 0.8"/>
      </g>
     </g>
     <g id="text_10">
      <!-- 0.4 -->
      <g transform="translate(10.8 179.305539) scale(0.1 -0.1)">
       <use xlink:href="#DejaVuSans-30"/>
       <use xlink:href="#DejaVuSans-2e" transform="translate(63.623047 0)"/>
       <use xlink:href="#DejaVuSans-34" transform="translate(95.410156 0)"/>
      </g>
     </g>
    </g>
    <g id="ytick_6">
     <g id="line2d_11">
      <g>
       <use xlink:href="#mbd2f377c6c" x="33.703125" y="122.554747" style="stroke: #000000; stroke-width: 0.8"/>
      </g>
     </g>
     <g id="text_11">
      <!-- 0.5 -->
      <g transform="translate(10.8 126.353965) scale(0.1 -0.1)">
       <defs>
        <path id="DejaVuSans-35" d="M 691 4666 
L 3169 4666 
L 3169 4134 
L 1269 4134 
L 1269 2991 
Q 1406 3038 1543 3061 
Q 1681 3084 1819 3084 
Q 2600 3084 3056 2656 
Q 3513 2228 3513 1497 
Q 3513 744 3044 326 
Q 2575 -91 1722 -91 
Q 1428 -91 1123 -41 
Q 819 9 494 109 
L 494 744 
Q 775 591 1075 516 
Q 1375 441 1709 441 
Q 2250 441 2565 725 
Q 2881 1009 2881 1497 
Q 2881 1984 2565 2268 
Q 2250 2553 1709 2553 
Q 1456 2553 1204 2497 
Q 953 2441 691 2322 
L 691 4666 
z
" transform="scale(0.015625)"/>
       </defs>
       <use xlink:href="#DejaVuSans-30"/>
       <use xlink:href="#DejaVuSans-2e" transform="translate(63.623047 0)"/>
       <use xlink:href="#DejaVuSans-35" transform="translate(95.410156 0)"/>
      </g>
     </g>
    </g>
    <g id="ytick_7">
     <g id="line2d_12">
      <g>
       <use xlink:href="#mbd2f377c6c" x="33.703125" y="69.603173" style="stroke: #000000; stroke-width: 0.8"/>
      </g>
     </g>
     <g id="text_12">
      <!-- 0.6 -->
      <g transform="translate(10.8 73.402392) scale(0.1 -0.1)">
       <defs>
        <path id="DejaVuSans-36" d="M 2113 2584 
Q 1688 2584 1439 2293 
Q 1191 2003 1191 1497 
Q 1191 994 1439 701 
Q 1688 409 2113 409 
Q 2538 409 2786 701 
Q 3034 994 3034 1497 
Q 3034 2003 2786 2293 
Q 2538 2584 2113 2584 
z
M 3366 4563 
L 3366 3988 
Q 3128 4100 2886 4159 
Q 2644 4219 2406 4219 
Q 1781 4219 1451 3797 
Q 1122 3375 1075 2522 
Q 1259 2794 1537 2939 
Q 1816 3084 2150 3084 
Q 2853 3084 3261 2657 
Q 3669 2231 3669 1497 
Q 3669 778 3244 343 
Q 2819 -91 2113 -91 
Q 1303 -91 875 529 
Q 447 1150 447 2328 
Q 447 3434 972 4092 
Q 1497 4750 2381 4750 
Q 2619 4750 2861 4703 
Q 3103 4656 3366 4563 
z
" transform="scale(0.015625)"/>
       </defs>
       <use xlink:href="#DejaVuSans-30"/>
       <use xlink:href="#DejaVuSans-2e" transform="translate(63.623047 0)"/>
       <use xlink:href="#DejaVuSans-36" transform="translate(95.410156 0)"/>
      </g>
     </g>
    </g>
   </g>
   <g id="line2d_13">
    <path d="M 58.548509 387.311826 
L 114.257877 387.198912 
L 129.677434 386.951812 
L 140.122941 386.565678 
L 148.081422 386.050201 
L 154.547688 385.415043 
L 160.019144 384.668795 
L 164.993195 383.775807 
L 169.46984 382.756025 
L 173.449081 381.643831 
L 177.428322 380.30516 
L 180.910157 378.921071 
L 184.391993 377.312721 
L 187.873828 375.454357 
L 191.355664 373.319374 
L 194.340094 371.248716 
L 197.324525 368.93792 
L 200.308955 366.370244 
L 203.293386 363.529535 
L 206.277816 360.400558 
L 209.262246 356.969356 
L 212.246677 353.223627 
L 215.231107 349.153129 
L 218.215538 344.750081 
L 221.697373 339.186528 
L 225.179209 333.161727 
L 228.661044 326.68052 
L 232.14288 319.755434 
L 236.12212 311.324696 
L 240.101361 302.387118 
L 244.578007 291.803245 
L 250.049463 278.266119 
L 258.505349 256.623105 
L 266.961235 235.146261 
L 271.935286 223.130814 
L 275.914527 214.090555 
L 279.396362 206.723502 
L 282.380793 200.888484 
L 285.365223 195.556495 
L 287.852248 191.535988 
L 290.339274 187.930262 
L 292.826299 184.76513 
L 294.815919 182.565762 
L 296.80554 180.673399 
L 298.79516 179.096958 
L 300.78478 177.843909 
L 302.774401 176.920216 
L 304.266616 176.4463 
L 305.758831 176.161439 
L 307.251046 176.066399 
L 308.743262 176.161439 
L 310.235477 176.4463 
L 311.727692 176.920216 
L 313.219907 177.581909 
L 315.209527 178.753119 
L 317.199148 180.249354 
L 319.188768 182.063517 
L 321.178388 184.187046 
L 323.168009 186.609986 
L 325.655034 190.042417 
L 328.142059 193.900281 
L 330.629085 198.156183 
L 333.613515 203.746601 
L 336.597946 209.81195 
L 340.079781 217.410181 
L 344.059022 226.663214 
L 349.033073 238.866155 
L 355.996744 256.623105 
L 366.44225 283.251917 
L 371.913706 296.570248 
L 376.390352 306.915816 
L 380.369592 315.606619 
L 384.348833 323.76596 
L 387.830669 330.439407 
L 391.312504 336.660835 
L 394.79434 342.422196 
L 398.276175 347.722701 
L 401.758011 352.568007 
L 404.742441 356.367214 
L 407.726872 359.850034 
L 410.711302 363.028452 
L 413.695732 365.916178 
L 416.680163 368.528259 
L 419.664593 370.880717 
L 423.146429 373.319374 
L 426.628264 375.454357 
L 430.1101 377.312721 
L 433.591935 378.921071 
L 437.073771 380.30516 
L 441.053012 381.643831 
L 445.032252 382.756025 
L 449.508898 383.775807 
L 454.482949 384.668795 
L 459.954404 385.415043 
L 465.923265 386.009216 
L 473.384342 386.513918 
L 482.337633 386.881841 
L 494.275355 387.132789 
L 512.679342 387.270837 
L 555.456179 387.311786 
L 555.456179 387.311786 
" clip-path="url(#p0666fcb838)" style="fill: none; stroke-dasharray: 5.55,2.4; stroke-dashoffset: 0; stroke: #808080; stroke-opacity: 0.5; stroke-width: 1.5"/>
   </g>
   <g id="line2d_14">
    <path d="M 58.548509 387.312614 
L 185.884208 387.220409 
L 187.873828 387.020656 
L 189.366043 386.688356 
L 190.858259 386.09176 
L 191.853069 385.495204 
L 192.847879 384.711029 
L 194.340094 383.16886 
L 195.832309 381.252322 
L 199.314145 376.522691 
L 200.80636 375.009009 
L 201.80117 374.28565 
L 202.79598 373.781109 
L 204.288196 373.347593 
L 206.277816 373.121429 
L 211.251867 372.794488 
L 212.246677 372.363898 
L 213.241487 371.53371 
L 214.236297 370.146615 
L 215.231107 368.080694 
L 216.225917 365.291268 
L 217.220728 361.84409 
L 221.199968 346.629877 
L 222.194778 344.152713 
L 222.692183 343.284038 
L 223.189589 342.666493 
L 223.686994 342.287718 
L 224.184399 342.122806 
L 224.681804 342.135176 
L 225.676614 342.496862 
L 226.671424 342.918843 
L 227.168829 342.997468 
L 227.666234 342.908864 
L 228.163639 342.601213 
L 228.661044 342.03166 
L 229.158449 341.168233 
L 229.655855 339.991132 
L 230.650665 336.680346 
L 231.645475 332.188865 
L 233.13769 323.816501 
L 237.116931 299.953106 
L 238.609146 292.533362 
L 240.101361 286.191695 
L 241.593576 280.883306 
L 242.588386 277.956713 
L 243.583197 275.581446 
L 244.578007 273.797733 
L 245.572817 272.587378 
L 246.567627 271.833672 
L 248.557247 270.626854 
L 249.054652 270.105016 
L 249.552058 269.382119 
L 250.049463 268.401207 
L 250.546868 267.109092 
L 251.044273 265.458977 
L 252.039083 260.944133 
L 253.033893 254.69692 
L 254.028703 246.781566 
L 255.520918 232.505734 
L 258.007944 207.429914 
L 259.002754 199.149524 
L 259.997564 192.943832 
L 260.494969 190.791551 
L 260.992374 189.339072 
L 261.489779 188.616911 
L 261.987184 188.63894 
L 262.484589 189.401676 
L 262.981995 190.88402 
L 263.4794 193.047477 
L 264.47421 199.181911 
L 265.46902 207.191981 
L 268.950855 238.288834 
L 269.945666 244.935283 
L 270.940476 249.715611 
L 271.437881 251.365894 
L 271.935286 252.526457 
L 272.432691 253.210881 
L 272.930096 253.437529 
L 273.427501 253.226074 
L 273.924906 252.594194 
L 274.422311 251.554728 
L 274.919716 250.113534 
L 275.914527 246.008038 
L 276.909337 240.16351 
L 277.904147 232.38124 
L 278.898957 222.474426 
L 279.893767 210.391602 
L 281.385982 188.707494 
L 284.867818 134.989103 
L 285.862628 123.781045 
L 286.360033 119.516096 
L 286.857438 116.252789 
L 287.354843 114.037521 
L 287.852248 112.885638 
L 288.349653 112.780672 
L 288.847058 113.675017 
L 289.344464 115.492043 
L 289.841869 118.129555 
L 290.836679 125.358301 
L 292.328894 138.913142 
L 293.821109 152.382358 
L 294.815919 159.950072 
L 295.81073 165.968962 
L 296.80554 170.508243 
L 297.80035 173.927059 
L 301.77959 185.772517 
L 304.764021 196.380209 
L 305.261426 197.647951 
L 305.758831 198.596483 
L 306.256236 199.163296 
L 306.753641 199.293109 
L 307.251046 198.940375 
L 307.748451 198.071519 
L 308.245856 196.666851 
L 308.743262 194.722076 
L 309.738072 189.277774 
L 310.732882 182.038291 
L 312.225097 169.07849 
L 314.214717 152.055362 
L 315.209527 145.486125 
L 316.204338 141.01974 
L 316.701743 139.665176 
L 317.199148 138.901233 
L 317.696553 138.704281 
L 318.193958 139.030406 
L 318.691363 139.817926 
L 319.188768 140.990839 
L 320.183578 144.143011 
L 322.173199 151.200763 
L 323.168009 154.011289 
L 324.162819 156.045893 
L 325.157629 157.463439 
L 326.649844 159.357504 
L 327.644654 161.235968 
L 328.639465 164.128981 
L 329.634275 168.243781 
L 330.629085 173.500167 
L 334.608325 196.848422 
L 335.603136 200.722289 
L 336.597946 203.312994 
L 337.095351 204.164417 
L 337.592756 204.763289 
L 338.090161 205.152003 
L 339.084971 205.485678 
L 341.571996 205.700553 
L 342.566807 206.14053 
L 343.561617 206.941592 
L 344.556427 208.153197 
L 345.551237 209.8514 
L 346.546047 212.17149 
L 347.540857 215.307235 
L 348.535668 219.476131 
L 349.530478 224.861883 
L 350.525288 231.55266 
L 352.017503 243.874172 
L 354.007123 263.092971 
L 356.494149 286.769542 
L 357.986364 298.500507 
L 358.981174 304.920546 
L 359.975984 310.261387 
L 360.970794 314.675221 
L 361.965605 318.360738 
L 363.45782 322.929518 
L 364.950035 326.701403 
L 366.44225 329.780569 
L 367.43706 331.4049 
L 368.431871 332.647127 
L 369.426681 333.49509 
L 370.421491 333.961588 
L 371.416301 334.0753 
L 372.411111 333.86555 
L 373.405921 333.349944 
L 374.400731 332.532044 
L 375.395542 331.411288 
L 376.390352 330.00173 
L 377.882567 327.465099 
L 380.369592 323.141667 
L 381.364403 321.877502 
L 382.359213 321.132069 
L 382.856618 320.992505 
L 383.354023 321.021778 
L 383.851428 321.224988 
L 384.348833 321.60328 
L 384.846238 322.154082 
L 385.841048 323.746832 
L 386.835858 325.926211 
L 387.830669 328.59094 
L 389.322884 333.271194 
L 391.312504 340.354577 
L 394.296935 351.944715 
L 396.78396 361.410456 
L 398.276175 366.201263 
L 399.270985 368.729402 
L 400.265795 370.593135 
L 401.260606 371.731419 
L 401.758011 372.024985 
L 402.255416 372.140196 
L 402.752821 372.08528 
L 403.250226 371.871412 
L 404.245036 371.023644 
L 405.239846 369.728327 
L 406.732061 367.278516 
L 408.721682 363.913443 
L 409.716492 362.554464 
L 410.711302 361.617878 
L 411.208707 361.35055 
L 411.706112 361.235944 
L 412.203517 361.284652 
L 412.700922 361.503829 
L 413.198327 361.896719 
L 414.193138 363.195141 
L 415.187948 365.118874 
L 416.182758 367.541478 
L 418.669783 374.58179 
L 420.161998 378.545725 
L 421.156809 380.789577 
L 422.151619 382.64085 
L 423.146429 384.093256 
L 424.141239 385.178665 
L 425.136049 385.952344 
L 426.130859 386.478898 
L 427.623075 386.941029 
L 429.612695 387.202143 
L 432.597125 387.294899 
L 437.073771 387.207913 
L 439.063391 386.987558 
L 440.555607 386.626889 
L 442.047822 385.990412 
L 443.042632 385.364187 
L 444.037442 384.553949 
L 445.529657 383.000906 
L 450.006303 377.719013 
L 451.001113 377.046781 
L 451.995923 376.758179 
L 452.990733 376.886943 
L 453.985544 377.417946 
L 454.980354 378.290118 
L 456.472569 380.024037 
L 459.456999 383.681704 
L 460.949215 385.073521 
L 462.44143 386.050664 
L 463.933645 386.662595 
L 465.42586 387.006613 
L 467.415481 387.215193 
L 470.897316 387.303669 
L 491.788329 387.312614 
L 555.456179 387.312614 
L 555.456179 387.312614 
" clip-path="url(#p0666fcb838)" style="fill: none; stroke: #1f77b4; stroke-opacity: 0.5; stroke-width: 1.5; stroke-linecap: square"/>
   </g>
   <g id="line2d_15">
    <path d="M 58.548509 387.312614 
L 160.516549 387.21093 
L 167.48022 386.965391 
L 172.454271 386.569617 
L 176.433511 386.034506 
L 179.915347 385.349255 
L 182.899777 384.563947 
L 185.884208 383.566667 
L 188.868638 382.331483 
L 191.853069 380.833352 
L 194.837499 379.046186 
L 197.324525 377.314821 
L 199.81155 375.341888 
L 202.298575 373.103499 
L 204.785601 370.572151 
L 207.272626 367.717329 
L 209.759651 364.506789 
L 212.246677 360.90839 
L 214.733702 356.892302 
L 217.220728 352.433394 
L 219.707753 347.513602 
L 222.194778 342.124131 
L 224.681804 336.267395 
L 227.666234 328.644928 
L 230.650665 320.42542 
L 234.1325 310.195402 
L 238.609146 296.326402 
L 248.557247 265.266719 
L 252.039083 255.231663 
L 255.023513 247.229908 
L 258.007944 239.810808 
L 261.489779 231.810758 
L 265.46902 223.26688 
L 280.391172 192.208402 
L 283.375603 186.514717 
L 285.862628 182.260706 
L 287.852248 179.269041 
L 289.841869 176.689903 
L 291.831489 174.541532 
L 293.323704 173.209833 
L 294.815919 172.105711 
L 296.80554 170.956367 
L 298.79516 170.125971 
L 300.78478 169.554241 
L 303.271806 169.115317 
L 305.758831 168.899737 
L 308.743262 168.871139 
L 311.230287 169.047916 
L 313.717312 169.469674 
L 315.706933 170.04833 
L 317.696553 170.905978 
L 319.188768 171.769767 
L 320.680983 172.850663 
L 322.173199 174.171554 
L 323.665414 175.75219 
L 325.157629 177.608583 
L 326.649844 179.752678 
L 328.639465 183.071909 
L 330.629085 186.923515 
L 332.618705 191.303518 
L 334.608325 196.197949 
L 337.095351 203.004248 
L 339.582376 210.517559 
L 342.566807 220.354117 
L 346.048642 232.737583 
L 351.022693 251.433187 
L 356.991554 273.753406 
L 359.975984 284.164904 
L 362.960415 293.733503 
L 365.44744 300.941535 
L 367.934466 307.405982 
L 370.421491 313.136453 
L 372.908516 318.189904 
L 375.395542 322.660718 
L 377.882567 326.666588 
L 380.866997 331.035448 
L 384.846238 336.434181 
L 393.799529 348.072912 
L 399.76839 355.536802 
L 403.747631 360.170582 
L 407.229466 363.91923 
L 410.711302 367.363386 
L 414.193138 370.506472 
L 417.674973 373.350697 
L 421.156809 375.881189 
L 424.141239 377.774988 
L 427.125669 379.387092 
L 429.612695 380.499948 
L 432.09972 381.398137 
L 434.586746 382.087503 
L 437.571176 382.664188 
L 440.555607 383.015605 
L 444.534847 383.249213 
L 455.975164 383.765461 
L 460.949215 384.299756 
L 469.405101 385.496322 
L 475.871367 386.31222 
L 481.342823 386.790314 
L 487.311684 387.091997 
L 495.270165 387.258085 
L 511.187127 387.311194 
L 555.456179 387.312614 
L 555.456179 387.312614 
" clip-path="url(#p0666fcb838)" style="fill: none; stroke: #ff7f0e; stroke-opacity: 0.5; stroke-width: 1.5; stroke-linecap: square"/>
   </g>
   <g id="line2d_16">
    <path d="M 58.548509 387.239093 
L 79.936927 387.023858 
L 93.366864 386.680933 
L 103.81237 386.196707 
L 112.268257 385.587681 
L 119.729333 384.825719 
L 126.195599 383.944757 
L 132.16446 382.906854 
L 137.635916 381.729538 
L 142.609966 380.441785 
L 147.584017 378.918678 
L 152.060663 377.323418 
L 156.537308 375.494122 
L 161.013954 373.410511 
L 164.993195 371.329167 
L 168.972435 369.01874 
L 172.951676 366.467649 
L 176.930916 363.665837 
L 180.910157 360.605106 
L 184.889398 357.279465 
L 188.868638 353.685463 
L 193.345284 349.320807 
L 197.82193 344.61976 
L 202.298575 339.591725 
L 207.272626 333.640259 
L 212.246677 327.3338 
L 217.718133 320.033748 
L 224.184399 311.004176 
L 232.14288 299.481036 
L 249.552058 274.125178 
L 255.520918 265.889191 
L 260.494969 259.392637 
L 264.971615 253.910057 
L 268.950855 249.379435 
L 272.432691 245.714436 
L 275.914527 242.356624 
L 279.396362 239.330625 
L 282.380793 237.018088 
L 285.365223 234.978577 
L 288.349653 233.223371 
L 291.334084 231.76221 
L 293.821109 230.775097 
L 296.308135 230.001638 
L 298.79516 229.444781 
L 301.282185 229.106603 
L 303.769211 228.988301 
L 306.256236 229.090178 
L 308.743262 229.411644 
L 311.230287 229.951215 
L 313.717312 230.70652 
L 316.204338 231.674321 
L 318.691363 232.850523 
L 321.675793 234.530074 
L 324.660224 236.492592 
L 327.644654 238.726513 
L 330.629085 241.218819 
L 334.11092 244.433865 
L 337.592756 247.956182 
L 341.571996 252.323541 
L 345.551237 257.014799 
L 350.027883 262.624199 
L 355.499339 269.86506 
L 361.965605 278.812731 
L 373.903326 295.814984 
L 383.354023 309.102453 
L 389.820289 317.836242 
L 395.78915 325.518408 
L 401.260606 332.174988 
L 406.234656 337.869194 
L 410.711302 342.683467 
L 415.187948 347.192423 
L 419.664593 351.390561 
L 424.141239 355.276998 
L 428.617885 358.854955 
L 433.09453 362.131202 
L 437.571176 365.115497 
L 442.047822 367.820039 
L 446.524467 370.258929 
L 451.001113 372.447672 
L 455.477759 374.402715 
L 460.45181 376.321553 
L 465.42586 377.996349 
L 470.399911 379.450351 
L 475.871367 380.821637 
L 481.840228 382.077558 
L 488.306494 383.194378 
L 495.270165 384.158086 
L 502.731241 384.964325 
L 511.187127 385.652322 
L 521.135229 386.22726 
L 533.072951 386.677666 
L 547.995103 387.001537 
L 555.456179 387.099104 
L 555.456179 387.099104 
" clip-path="url(#p0666fcb838)" style="fill: none; stroke: #2ca02c; stroke-opacity: 0.5; stroke-width: 1.5; stroke-linecap: square"/>
   </g>
   <g id="line2d_17">
    <path d="M 58.548509 368.196047 
L 72.475851 365.351741 
L 86.900598 362.174305 
L 102.320155 358.545006 
L 119.729333 354.210343 
L 142.609966 348.261402 
L 182.402372 337.888362 
L 198.319335 333.99607 
L 211.749272 330.937563 
L 223.686994 328.442925 
L 234.629905 326.376527 
L 245.075412 324.6274 
L 255.023513 323.18505 
L 264.47421 322.032456 
L 273.924906 321.104484 
L 282.878198 320.441656 
L 291.831489 319.995881 
L 300.78478 319.7715 
L 309.738072 319.770666 
L 318.691363 319.993316 
L 327.644654 320.437173 
L 336.597946 321.097781 
L 346.048642 322.022961 
L 355.499339 323.172201 
L 365.44744 324.610315 
L 375.892947 326.354145 
L 386.835858 328.414013 
L 398.276175 330.792293 
L 411.208707 333.714625 
L 426.130859 337.329061 
L 445.032252 342.157767 
L 503.228646 357.197535 
L 519.643014 361.116238 
L 534.565166 364.454734 
L 548.492508 367.350811 
L 555.456179 368.713732 
L 555.456179 368.713732 
" clip-path="url(#p0666fcb838)" style="fill: none; stroke: #d62728; stroke-opacity: 0.5; stroke-width: 1.5; stroke-linecap: square"/>
   </g>
   <g id="patch_3">
    <path d="M 33.703125 404.521875 
L 33.703125 25.918125 
" style="fill: none; stroke: #000000; stroke-width: 0.8; stroke-linejoin: miter; stroke-linecap: square"/>
   </g>
   <g id="patch_4">
    <path d="M 580.301562 404.521875 
L 580.301562 25.918125 
" style="fill: none; stroke: #000000; stroke-width: 0.8; stroke-linejoin: miter; stroke-linecap: square"/>
   </g>
   <g id="patch_5">
    <path d="M 33.703125 404.521875 
L 580.301562 404.521875 
" style="fill: none; stroke: #000000; stroke-width: 0.8; stroke-linejoin: miter; stroke-linecap: square"/>
   </g>
   <g id="patch_6">
    <path d="M 33.703125 25.918125 
L 580.301562 25.918125 
" style="fill: none; stroke: #000000; stroke-width: 0.8; stroke-linejoin: miter; stroke-linecap: square"/>
   </g>
   <g id="text_13">
    <!-- Kernel = gaussian -->
    <g transform="translate(252.625469 19.918125) scale(0.12 -0.12)">
     <defs>
      <path id="DejaVuSans-4b" d="M 628 4666 
L 1259 4666 
L 1259 2694 
L 3353 4666 
L 4166 4666 
L 1850 2491 
L 4331 0 
L 3500 0 
L 1259 2247 
L 1259 0 
L 628 0 
L 628 4666 
z
" transform="scale(0.015625)"/>
      <path id="DejaVuSans-65" d="M 3597 1894 
L 3597 1613 
L 953 1613 
Q 991 1019 1311 708 
Q 1631 397 2203 397 
Q 2534 397 2845 478 
Q 3156 559 3463 722 
L 3463 178 
Q 3153 47 2828 -22 
Q 2503 -91 2169 -91 
Q 1331 -91 842 396 
Q 353 884 353 1716 
Q 353 2575 817 3079 
Q 1281 3584 2069 3584 
Q 2775 3584 3186 3129 
Q 3597 2675 3597 1894 
z
M 3022 2063 
Q 3016 2534 2758 2815 
Q 2500 3097 2075 3097 
Q 1594 3097 1305 2825 
Q 1016 2553 972 2059 
L 3022 2063 
z
" transform="scale(0.015625)"/>
      <path id="DejaVuSans-72" d="M 2631 2963 
Q 2534 3019 2420 3045 
Q 2306 3072 2169 3072 
Q 1681 3072 1420 2755 
Q 1159 2438 1159 1844 
L 1159 0 
L 581 0 
L 581 3500 
L 1159 3500 
L 1159 2956 
Q 1341 3275 1631 3429 
Q 1922 3584 2338 3584 
Q 2397 3584 2469 3576 
Q 2541 3569 2628 3553 
L 2631 2963 
z
" transform="scale(0.015625)"/>
      <path id="DejaVuSans-6e" d="M 3513 2113 
L 3513 0 
L 2938 0 
L 2938 2094 
Q 2938 2591 2744 2837 
Q 2550 3084 2163 3084 
Q 1697 3084 1428 2787 
Q 1159 2491 1159 1978 
L 1159 0 
L 581 0 
L 581 3500 
L 1159 3500 
L 1159 2956 
Q 1366 3272 1645 3428 
Q 1925 3584 2291 3584 
Q 2894 3584 3203 3211 
Q 3513 2838 3513 2113 
z
" transform="scale(0.015625)"/>
      <path id="DejaVuSans-6c" d="M 603 4863 
L 1178 4863 
L 1178 0 
L 603 0 
L 603 4863 
z
" transform="scale(0.015625)"/>
      <path id="DejaVuSans-20" transform="scale(0.015625)"/>
      <path id="DejaVuSans-3d" d="M 678 2906 
L 4684 2906 
L 4684 2381 
L 678 2381 
L 678 2906 
z
M 678 1631 
L 4684 1631 
L 4684 1100 
L 678 1100 
L 678 1631 
z
" transform="scale(0.015625)"/>
      <path id="DejaVuSans-67" d="M 2906 1791 
Q 2906 2416 2648 2759 
Q 2391 3103 1925 3103 
Q 1463 3103 1205 2759 
Q 947 2416 947 1791 
Q 947 1169 1205 825 
Q 1463 481 1925 481 
Q 2391 481 2648 825 
Q 2906 1169 2906 1791 
z
M 3481 434 
Q 3481 -459 3084 -895 
Q 2688 -1331 1869 -1331 
Q 1566 -1331 1297 -1286 
Q 1028 -1241 775 -1147 
L 775 -588 
Q 1028 -725 1275 -790 
Q 1522 -856 1778 -856 
Q 2344 -856 2625 -561 
Q 2906 -266 2906 331 
L 2906 616 
Q 2728 306 2450 153 
Q 2172 0 1784 0 
Q 1141 0 747 490 
Q 353 981 353 1791 
Q 353 2603 747 3093 
Q 1141 3584 1784 3584 
Q 2172 3584 2450 3431 
Q 2728 3278 2906 2969 
L 2906 3500 
L 3481 3500 
L 3481 434 
z
" transform="scale(0.015625)"/>
      <path id="DejaVuSans-61" d="M 2194 1759 
Q 1497 1759 1228 1600 
Q 959 1441 959 1056 
Q 959 750 1161 570 
Q 1363 391 1709 391 
Q 2188 391 2477 730 
Q 2766 1069 2766 1631 
L 2766 1759 
L 2194 1759 
z
M 3341 1997 
L 3341 0 
L 2766 0 
L 2766 531 
Q 2569 213 2275 61 
Q 1981 -91 1556 -91 
Q 1019 -91 701 211 
Q 384 513 384 1019 
Q 384 1609 779 1909 
Q 1175 2209 1959 2209 
L 2766 2209 
L 2766 2266 
Q 2766 2663 2505 2880 
Q 2244 3097 1772 3097 
Q 1472 3097 1187 3025 
Q 903 2953 641 2809 
L 641 3341 
Q 956 3463 1253 3523 
Q 1550 3584 1831 3584 
Q 2591 3584 2966 3190 
Q 3341 2797 3341 1997 
z
" transform="scale(0.015625)"/>
      <path id="DejaVuSans-75" d="M 544 1381 
L 544 3500 
L 1119 3500 
L 1119 1403 
Q 1119 906 1312 657 
Q 1506 409 1894 409 
Q 2359 409 2629 706 
Q 2900 1003 2900 1516 
L 2900 3500 
L 3475 3500 
L 3475 0 
L 2900 0 
L 2900 538 
Q 2691 219 2414 64 
Q 2138 -91 1772 -91 
Q 1169 -91 856 284 
Q 544 659 544 1381 
z
M 1991 3584 
L 1991 3584 
z
" transform="scale(0.015625)"/>
      <path id="DejaVuSans-73" d="M 2834 3397 
L 2834 2853 
Q 2591 2978 2328 3040 
Q 2066 3103 1784 3103 
Q 1356 3103 1142 2972 
Q 928 2841 928 2578 
Q 928 2378 1081 2264 
Q 1234 2150 1697 2047 
L 1894 2003 
Q 2506 1872 2764 1633 
Q 3022 1394 3022 966 
Q 3022 478 2636 193 
Q 2250 -91 1575 -91 
Q 1294 -91 989 -36 
Q 684 19 347 128 
L 347 722 
Q 666 556 975 473 
Q 1284 391 1588 391 
Q 1994 391 2212 530 
Q 2431 669 2431 922 
Q 2431 1156 2273 1281 
Q 2116 1406 1581 1522 
L 1381 1569 
Q 847 1681 609 1914 
Q 372 2147 372 2553 
Q 372 3047 722 3315 
Q 1072 3584 1716 3584 
Q 2034 3584 2315 3537 
Q 2597 3491 2834 3397 
z
" transform="scale(0.015625)"/>
      <path id="DejaVuSans-69" d="M 603 3500 
L 1178 3500 
L 1178 0 
L 603 0 
L 603 3500 
z
M 603 4863 
L 1178 4863 
L 1178 4134 
L 603 4134 
L 603 4863 
z
" transform="scale(0.015625)"/>
     </defs>
     <use xlink:href="#DejaVuSans-4b"/>
     <use xlink:href="#DejaVuSans-65" transform="translate(60.576172 0)"/>
     <use xlink:href="#DejaVuSans-72" transform="translate(122.099609 0)"/>
     <use xlink:href="#DejaVuSans-6e" transform="translate(161.462891 0)"/>
     <use xlink:href="#DejaVuSans-65" transform="translate(224.841797 0)"/>
     <use xlink:href="#DejaVuSans-6c" transform="translate(286.365234 0)"/>
     <use xlink:href="#DejaVuSans-20" transform="translate(314.148438 0)"/>
     <use xlink:href="#DejaVuSans-3d" transform="translate(345.935547 0)"/>
     <use xlink:href="#DejaVuSans-20" transform="translate(429.724609 0)"/>
     <use xlink:href="#DejaVuSans-67" transform="translate(461.511719 0)"/>
     <use xlink:href="#DejaVuSans-61" transform="translate(524.988281 0)"/>
     <use xlink:href="#DejaVuSans-75" transform="translate(586.267578 0)"/>
     <use xlink:href="#DejaVuSans-73" transform="translate(649.646484 0)"/>
     <use xlink:href="#DejaVuSans-73" transform="translate(701.746094 0)"/>
     <use xlink:href="#DejaVuSans-69" transform="translate(753.845703 0)"/>
     <use xlink:href="#DejaVuSans-61" transform="translate(781.628906 0)"/>
     <use xlink:href="#DejaVuSans-6e" transform="translate(842.908203 0)"/>
    </g>
   </g>
   <g id="legend_1">
    <g id="patch_7">
     <path d="M 504.325 92.630625 
L 573.301562 92.630625 
Q 575.301562 92.630625 575.301562 90.630625 
L 575.301562 32.918125 
Q 575.301562 30.918125 573.301562 30.918125 
L 504.325 30.918125 
Q 502.325 30.918125 502.325 32.918125 
L 502.325 90.630625 
Q 502.325 92.630625 504.325 92.630625 
z
" style="fill: #ffffff; opacity: 0.8; stroke: #cccccc; stroke-linejoin: miter"/>
    </g>
    <g id="line2d_18">
     <path d="M 506.325 39.016563 
L 516.325 39.016563 
L 526.325 39.016563 
" style="fill: none; stroke: #1f77b4; stroke-opacity: 0.5; stroke-width: 1.5; stroke-linecap: square"/>
    </g>
    <g id="text_14">
     <!-- h = 0.1 -->
     <g transform="translate(534.325 42.516563) scale(0.1 -0.1)">
      <defs>
       <path id="DejaVuSans-68" d="M 3513 2113 
L 3513 0 
L 2938 0 
L 2938 2094 
Q 2938 2591 2744 2837 
Q 2550 3084 2163 3084 
Q 1697 3084 1428 2787 
Q 1159 2491 1159 1978 
L 1159 0 
L 581 0 
L 581 4863 
L 1159 4863 
L 1159 2956 
Q 1366 3272 1645 3428 
Q 1925 3584 2291 3584 
Q 2894 3584 3203 3211 
Q 3513 2838 3513 2113 
z
" transform="scale(0.015625)"/>
      </defs>
      <use xlink:href="#DejaVuSans-68"/>
      <use xlink:href="#DejaVuSans-20" transform="translate(63.378906 0)"/>
      <use xlink:href="#DejaVuSans-3d" transform="translate(95.166016 0)"/>
      <use xlink:href="#DejaVuSans-20" transform="translate(178.955078 0)"/>
      <use xlink:href="#DejaVuSans-30" transform="translate(210.742188 0)"/>
      <use xlink:href="#DejaVuSans-2e" transform="translate(274.365234 0)"/>
      <use xlink:href="#DejaVuSans-31" transform="translate(306.152344 0)"/>
     </g>
    </g>
    <g id="line2d_19">
     <path d="M 506.325 53.694688 
L 516.325 53.694688 
L 526.325 53.694688 
" style="fill: none; stroke: #ff7f0e; stroke-opacity: 0.5; stroke-width: 1.5; stroke-linecap: square"/>
    </g>
    <g id="text_15">
     <!-- h = 0.3 -->
     <g transform="translate(534.325 57.194688) scale(0.1 -0.1)">
      <use xlink:href="#DejaVuSans-68"/>
      <use xlink:href="#DejaVuSans-20" transform="translate(63.378906 0)"/>
      <use xlink:href="#DejaVuSans-3d" transform="translate(95.166016 0)"/>
      <use xlink:href="#DejaVuSans-20" transform="translate(178.955078 0)"/>
      <use xlink:href="#DejaVuSans-30" transform="translate(210.742188 0)"/>
      <use xlink:href="#DejaVuSans-2e" transform="translate(274.365234 0)"/>
      <use xlink:href="#DejaVuSans-33" transform="translate(306.152344 0)"/>
     </g>
    </g>
    <g id="line2d_20">
     <path d="M 506.325 68.372813 
L 516.325 68.372813 
L 526.325 68.372813 
" style="fill: none; stroke: #2ca02c; stroke-opacity: 0.5; stroke-width: 1.5; stroke-linecap: square"/>
    </g>
    <g id="text_16">
     <!-- h = 1 -->
     <g transform="translate(534.325 71.872813) scale(0.1 -0.1)">
      <use xlink:href="#DejaVuSans-68"/>
      <use xlink:href="#DejaVuSans-20" transform="translate(63.378906 0)"/>
      <use xlink:href="#DejaVuSans-3d" transform="translate(95.166016 0)"/>
      <use xlink:href="#DejaVuSans-20" transform="translate(178.955078 0)"/>
      <use xlink:href="#DejaVuSans-31" transform="translate(210.742188 0)"/>
     </g>
    </g>
    <g id="line2d_21">
     <path d="M 506.325 83.050938 
L 516.325 83.050938 
L 526.325 83.050938 
" style="fill: none; stroke: #d62728; stroke-opacity: 0.5; stroke-width: 1.5; stroke-linecap: square"/>
    </g>
    <g id="text_17">
     <!-- h = 3 -->
     <g transform="translate(534.325 86.550938) scale(0.1 -0.1)">
      <use xlink:href="#DejaVuSans-68"/>
      <use xlink:href="#DejaVuSans-20" transform="translate(63.378906 0)"/>
      <use xlink:href="#DejaVuSans-3d" transform="translate(95.166016 0)"/>
      <use xlink:href="#DejaVuSans-20" transform="translate(178.955078 0)"/>
      <use xlink:href="#DejaVuSans-33" transform="translate(210.742188 0)"/>
     </g>
    </g>
   </g>
  </g>
  <g id="axes_2">
   <g id="patch_8">
    <path d="M 594.601562 404.521875 
L 1141.2 404.521875 
L 1141.2 25.918125 
L 594.601562 25.918125 
z
" style="fill: #ffffff"/>
   </g>
   <g id="matplotlib.axis_3">
    <g id="xtick_6">
     <g id="line2d_22">
      <g>
       <use xlink:href="#m38f3b05bbe" x="669.187454" y="404.521875" style="stroke: #000000; stroke-width: 0.8"/>
      </g>
     </g>
     <g id="text_18">
      <!-- -4 -->
      <g transform="translate(664.202297 419.120313) scale(0.1 -0.1)">
       <use xlink:href="#DejaVuSans-2d"/>
       <use xlink:href="#DejaVuSans-34" transform="translate(36.083984 0)"/>
      </g>
     </g>
    </g>
    <g id="xtick_7">
     <g id="line2d_23">
      <g>
       <use xlink:href="#m38f3b05bbe" x="768.668469" y="404.521875" style="stroke: #000000; stroke-width: 0.8"/>
      </g>
     </g>
     <g id="text_19">
      <!-- -2 -->
      <g transform="translate(763.683312 419.120313) scale(0.1 -0.1)">
       <use xlink:href="#DejaVuSans-2d"/>
       <use xlink:href="#DejaVuSans-32" transform="translate(36.083984 0)"/>
      </g>
     </g>
    </g>
    <g id="xtick_8">
     <g id="line2d_24">
      <g>
       <use xlink:href="#m38f3b05bbe" x="868.149484" y="404.521875" style="stroke: #000000; stroke-width: 0.8"/>
      </g>
     </g>
     <g id="text_20">
      <!-- 0 -->
      <g transform="translate(864.968234 419.120313) scale(0.1 -0.1)">
       <use xlink:href="#DejaVuSans-30"/>
      </g>
     </g>
    </g>
    <g id="xtick_9">
     <g id="line2d_25">
      <g>
       <use xlink:href="#m38f3b05bbe" x="967.630499" y="404.521875" style="stroke: #000000; stroke-width: 0.8"/>
      </g>
     </g>
     <g id="text_21">
      <!-- 2 -->
      <g transform="translate(964.449249 419.120313) scale(0.1 -0.1)">
       <use xlink:href="#DejaVuSans-32"/>
      </g>
     </g>
    </g>
    <g id="xtick_10">
     <g id="line2d_26">
      <g>
       <use xlink:href="#m38f3b05bbe" x="1067.111514" y="404.521875" style="stroke: #000000; stroke-width: 0.8"/>
      </g>
     </g>
     <g id="text_22">
      <!-- 4 -->
      <g transform="translate(1063.930264 419.120313) scale(0.1 -0.1)">
       <use xlink:href="#DejaVuSans-34"/>
      </g>
     </g>
    </g>
   </g>
   <g id="matplotlib.axis_4">
    <g id="ytick_8">
     <g id="line2d_27">
      <g>
       <use xlink:href="#mbd2f377c6c" x="594.601562" y="387.312614" style="stroke: #000000; stroke-width: 0.8"/>
      </g>
     </g>
    </g>
    <g id="ytick_9">
     <g id="line2d_28">
      <g>
       <use xlink:href="#mbd2f377c6c" x="594.601562" y="334.36104" style="stroke: #000000; stroke-width: 0.8"/>
      </g>
     </g>
    </g>
    <g id="ytick_10">
     <g id="line2d_29">
      <g>
       <use xlink:href="#mbd2f377c6c" x="594.601562" y="281.409467" style="stroke: #000000; stroke-width: 0.8"/>
      </g>
     </g>
    </g>
    <g id="ytick_11">
     <g id="line2d_30">
      <g>
       <use xlink:href="#mbd2f377c6c" x="594.601562" y="228.457893" style="stroke: #000000; stroke-width: 0.8"/>
      </g>
     </g>
    </g>
    <g id="ytick_12">
     <g id="line2d_31">
      <g>
       <use xlink:href="#mbd2f377c6c" x="594.601562" y="175.50632" style="stroke: #000000; stroke-width: 0.8"/>
      </g>
     </g>
    </g>
    <g id="ytick_13">
     <g id="line2d_32">
      <g>
       <use xlink:href="#mbd2f377c6c" x="594.601562" y="122.554747" style="stroke: #000000; stroke-width: 0.8"/>
      </g>
     </g>
    </g>
    <g id="ytick_14">
     <g id="line2d_33">
      <g>
       <use xlink:href="#mbd2f377c6c" x="594.601562" y="69.603173" style="stroke: #000000; stroke-width: 0.8"/>
      </g>
     </g>
    </g>
   </g>
   <g id="line2d_34">
    <path d="M 619.446946 387.311826 
L 675.156314 387.198912 
L 690.575872 386.951812 
L 701.021378 386.565678 
L 708.97986 386.050201 
L 715.446126 385.415043 
L 720.917581 384.668795 
L 725.891632 383.775807 
L 730.368278 382.756025 
L 734.347518 381.643831 
L 738.326759 380.30516 
L 741.808595 378.921071 
L 745.29043 377.312721 
L 748.772266 375.454357 
L 752.254101 373.319374 
L 755.238532 371.248716 
L 758.222962 368.93792 
L 761.207393 366.370244 
L 764.191823 363.529535 
L 767.176253 360.400558 
L 770.160684 356.969356 
L 773.145114 353.223627 
L 776.129545 349.153129 
L 779.113975 344.750081 
L 782.595811 339.186528 
L 786.077646 333.161727 
L 789.559482 326.68052 
L 793.041317 319.755434 
L 797.020558 311.324696 
L 800.999799 302.387118 
L 805.476444 291.803245 
L 810.9479 278.266119 
L 819.403786 256.623105 
L 827.859673 235.146261 
L 832.833723 223.130814 
L 836.812964 214.090555 
L 840.2948 206.723502 
L 843.27923 200.888484 
L 846.26366 195.556495 
L 848.750686 191.535988 
L 851.237711 187.930262 
L 853.724737 184.76513 
L 855.714357 182.565762 
L 857.703977 180.673399 
L 859.693598 179.096958 
L 861.683218 177.843909 
L 863.672838 176.920216 
L 865.165053 176.4463 
L 866.657269 176.161439 
L 868.149484 176.066399 
L 869.641699 176.161439 
L 871.133914 176.4463 
L 872.626129 176.920216 
L 874.118345 177.581909 
L 876.107965 178.753119 
L 878.097585 180.249354 
L 880.087206 182.063517 
L 882.076826 184.187046 
L 884.066446 186.609986 
L 886.553472 190.042417 
L 889.040497 193.900281 
L 891.527522 198.156183 
L 894.511953 203.746601 
L 897.496383 209.81195 
L 900.978219 217.410181 
L 904.957459 226.663214 
L 909.93151 238.866155 
L 916.895181 256.623105 
L 927.340688 283.251917 
L 932.812144 296.570248 
L 937.288789 306.915816 
L 941.26803 315.606619 
L 945.24727 323.76596 
L 948.729106 330.439407 
L 952.210942 336.660835 
L 955.692777 342.422196 
L 959.174613 347.722701 
L 962.656448 352.568007 
L 965.640879 356.367214 
L 968.625309 359.850034 
L 971.609739 363.028452 
L 974.59417 365.916178 
L 977.5786 368.528259 
L 980.563031 370.880717 
L 984.044866 373.319374 
L 987.526702 375.454357 
L 991.008537 377.312721 
L 994.490373 378.921071 
L 997.972209 380.30516 
L 1001.951449 381.643831 
L 1005.93069 382.756025 
L 1010.407335 383.775807 
L 1015.381386 384.668795 
L 1020.852842 385.415043 
L 1026.821703 386.009216 
L 1034.282779 386.513918 
L 1043.23607 386.881841 
L 1055.173792 387.132789 
L 1073.57778 387.270837 
L 1116.354616 387.311786 
L 1116.354616 387.311786 
" clip-path="url(#p55692cc7f1)" style="fill: none; stroke-dasharray: 5.55,2.4; stroke-dashoffset: 0; stroke: #808080; stroke-opacity: 0.5; stroke-width: 1.5"/>
   </g>
   <g id="line2d_35">
    <path d="M 619.446946 387.312614 
L 756.730747 387.312614 
L 757.228152 374.07472 
L 765.684038 374.07472 
L 766.181443 360.836827 
L 766.678848 360.836827 
L 767.176253 374.07472 
L 775.63214 374.07472 
L 776.129545 387.312614 
L 777.124355 387.312614 
L 777.62176 374.07472 
L 779.113975 374.07472 
L 779.61138 347.598934 
L 780.108785 334.36104 
L 787.072456 334.36104 
L 787.569862 347.598934 
L 789.062077 347.598934 
L 789.559482 374.07472 
L 790.554292 374.07472 
L 791.051697 360.836827 
L 791.549102 334.36104 
L 794.533533 334.36104 
L 795.528343 307.885253 
L 797.020558 307.885253 
L 797.517963 294.64736 
L 798.015368 294.64736 
L 798.512773 281.409467 
L 799.507583 281.409467 
L 800.004988 268.171573 
L 800.502394 268.171573 
L 800.999799 281.409467 
L 801.497204 307.885253 
L 801.994609 307.885253 
L 802.492014 281.409467 
L 803.486824 281.409467 
L 803.984229 268.171573 
L 804.481634 241.695787 
L 805.476444 268.171573 
L 806.471254 268.171573 
L 806.968659 254.93368 
L 807.466065 268.171573 
L 809.455685 268.171573 
L 809.95309 294.64736 
L 811.445305 294.64736 
L 811.94271 268.171573 
L 812.440115 281.409467 
L 812.93752 268.171573 
L 813.932331 268.171573 
L 814.429736 281.409467 
L 814.927141 281.409467 
L 815.424546 268.171573 
L 815.921951 241.695787 
L 816.916761 241.695787 
L 818.906381 188.744213 
L 819.901191 188.744213 
L 820.398597 175.50632 
L 820.896002 149.030533 
L 821.393407 135.79264 
L 821.890812 162.268427 
L 822.885622 135.79264 
L 823.383027 135.79264 
L 824.377837 162.268427 
L 824.875242 162.268427 
L 825.372647 175.50632 
L 825.870052 201.982107 
L 826.367457 201.982107 
L 826.864863 215.22 
L 827.362268 215.22 
L 827.859673 228.457893 
L 828.357078 254.93368 
L 828.854483 268.171573 
L 829.351888 254.93368 
L 829.849293 254.93368 
L 830.346698 241.695787 
L 831.341508 268.171573 
L 831.838913 241.695787 
L 832.336318 268.171573 
L 832.833723 281.409467 
L 833.331129 281.409467 
L 833.828534 268.171573 
L 837.310369 268.171573 
L 837.807774 254.93368 
L 838.305179 254.93368 
L 838.802584 241.695787 
L 839.299989 241.695787 
L 839.797394 228.457893 
L 841.28961 228.457893 
L 841.787015 254.93368 
L 842.28442 215.22 
L 843.27923 188.744213 
L 843.776635 188.744213 
L 844.27404 149.030533 
L 845.26885 122.554747 
L 845.766255 96.07896 
L 846.26366 82.841066 
L 846.761066 56.36528 
L 847.258471 69.603173 
L 848.253281 43.127386 
L 849.248091 69.603173 
L 849.745496 69.603173 
L 850.242901 96.07896 
L 850.740306 109.316853 
L 851.237711 109.316853 
L 851.735116 96.07896 
L 852.729926 149.030533 
L 853.724737 149.030533 
L 854.222142 175.50632 
L 855.216952 175.50632 
L 855.714357 162.268427 
L 856.211762 162.268427 
L 856.709167 188.744213 
L 857.703977 188.744213 
L 858.201382 201.982107 
L 858.698787 188.744213 
L 860.191003 188.744213 
L 860.688408 175.50632 
L 861.185813 149.030533 
L 862.180623 175.50632 
L 862.678028 162.268427 
L 863.175433 162.268427 
L 863.672838 175.50632 
L 864.667648 175.50632 
L 865.165053 188.744213 
L 865.662458 228.457893 
L 866.159863 241.695787 
L 866.657269 215.22 
L 867.154674 201.982107 
L 867.652079 228.457893 
L 868.149484 228.457893 
L 868.646889 241.695787 
L 869.144294 228.457893 
L 869.641699 228.457893 
L 870.139104 215.22 
L 870.636509 215.22 
L 871.631319 188.744213 
L 872.128724 162.268427 
L 872.626129 162.268427 
L 873.123535 175.50632 
L 873.62094 175.50632 
L 874.118345 149.030533 
L 874.61575 149.030533 
L 875.113155 109.316853 
L 876.107965 109.316853 
L 877.102775 135.79264 
L 877.60018 109.316853 
L 878.097585 109.316853 
L 878.59499 96.07896 
L 879.092395 96.07896 
L 880.584611 135.79264 
L 881.082016 162.268427 
L 881.579421 149.030533 
L 882.076826 175.50632 
L 882.574231 175.50632 
L 883.071636 162.268427 
L 883.569041 162.268427 
L 884.066446 175.50632 
L 884.563851 175.50632 
L 885.061256 188.744213 
L 885.558661 162.268427 
L 886.056067 149.030533 
L 887.548282 149.030533 
L 888.045687 135.79264 
L 889.040497 162.268427 
L 889.537902 162.268427 
L 890.532712 135.79264 
L 891.030117 149.030533 
L 891.527522 175.50632 
L 892.522332 175.50632 
L 893.019738 188.744213 
L 893.517143 188.744213 
L 894.014548 201.982107 
L 895.009358 201.982107 
L 895.506763 215.22 
L 896.501573 215.22 
L 896.998978 201.982107 
L 897.496383 228.457893 
L 898.491193 228.457893 
L 898.988598 215.22 
L 900.480814 215.22 
L 900.978219 201.982107 
L 901.475624 201.982107 
L 901.973029 188.744213 
L 902.470434 201.982107 
L 902.967839 188.744213 
L 903.465244 188.744213 
L 904.460054 215.22 
L 904.957459 201.982107 
L 905.95227 201.982107 
L 906.449675 215.22 
L 906.94708 188.744213 
L 907.444485 188.744213 
L 907.94189 201.982107 
L 908.439295 201.982107 
L 908.9367 215.22 
L 910.428915 215.22 
L 910.92632 228.457893 
L 911.423725 215.22 
L 911.92113 228.457893 
L 912.418536 215.22 
L 912.915941 228.457893 
L 914.408156 228.457893 
L 914.905561 268.171573 
L 915.900371 294.64736 
L 916.397776 281.409467 
L 916.895181 321.123147 
L 917.889991 321.123147 
L 918.387396 307.885253 
L 918.884801 307.885253 
L 919.382207 281.409467 
L 920.377017 307.885253 
L 920.874422 307.885253 
L 921.371827 321.123147 
L 921.869232 321.123147 
L 922.366637 334.36104 
L 923.858852 334.36104 
L 924.356257 321.123147 
L 925.848473 321.123147 
L 926.345878 334.36104 
L 927.340688 334.36104 
L 927.838093 321.123147 
L 928.832903 321.123147 
L 929.330308 347.598934 
L 930.325118 347.598934 
L 930.822523 334.36104 
L 933.806954 334.36104 
L 934.304359 347.598934 
L 935.796574 347.598934 
L 936.293979 321.123147 
L 937.786194 321.123147 
L 938.283599 334.36104 
L 939.27841 334.36104 
L 939.775815 321.123147 
L 940.27322 321.123147 
L 940.770625 334.36104 
L 941.26803 334.36104 
L 941.765435 321.123147 
L 942.760245 321.123147 
L 943.25765 307.885253 
L 945.24727 307.885253 
L 945.744676 294.64736 
L 946.242081 321.123147 
L 947.236891 321.123147 
L 947.734296 334.36104 
L 948.729106 334.36104 
L 949.226511 321.123147 
L 949.723916 334.36104 
L 950.718726 334.36104 
L 951.216131 321.123147 
L 951.713536 334.36104 
L 952.708347 334.36104 
L 953.205752 347.598934 
L 955.195372 347.598934 
L 955.692777 360.836827 
L 958.677208 360.836827 
L 959.174613 374.07472 
L 960.666828 374.07472 
L 961.164233 387.312614 
L 962.159043 387.312614 
L 962.656448 374.07472 
L 968.625309 374.07472 
L 969.122714 360.836827 
L 969.620119 360.836827 
L 970.117524 347.598934 
L 972.107145 347.598934 
L 972.60455 360.836827 
L 978.573411 360.836827 
L 979.070816 374.07472 
L 979.568221 374.07472 
L 980.065626 387.312614 
L 1007.92031 387.312614 
L 1008.417715 374.07472 
L 1017.868412 374.07472 
L 1018.365817 387.312614 
L 1116.354616 387.312614 
L 1116.354616 387.312614 
" clip-path="url(#p55692cc7f1)" style="fill: none; stroke: #1f77b4; stroke-opacity: 0.5; stroke-width: 1.5; stroke-linecap: square"/>
   </g>
   <g id="line2d_36">
    <path d="M 619.446946 387.312614 
L 746.782645 387.312614 
L 747.28005 382.899983 
L 755.735937 382.899983 
L 756.233342 378.487351 
L 767.176253 378.487351 
L 767.673659 374.07472 
L 769.165874 374.07472 
L 769.663279 365.249458 
L 770.160684 360.836827 
L 776.62695 360.836827 
L 777.124355 365.249458 
L 779.61138 365.249458 
L 780.108785 360.836827 
L 780.60619 360.836827 
L 781.103596 356.424196 
L 781.601001 347.598934 
L 784.585431 347.598934 
L 785.580241 338.773671 
L 786.077646 343.186302 
L 787.072456 343.186302 
L 787.569862 338.773671 
L 788.067267 338.773671 
L 788.564672 334.36104 
L 789.559482 334.36104 
L 790.056887 325.535778 
L 792.046507 325.535778 
L 792.543912 316.710516 
L 793.538722 316.710516 
L 794.036128 312.297885 
L 794.533533 303.472622 
L 796.523153 303.472622 
L 797.020558 299.059991 
L 797.517963 303.472622 
L 798.015368 303.472622 
L 798.512773 299.059991 
L 799.010178 299.059991 
L 799.507583 307.885253 
L 800.004988 312.297885 
L 801.497204 312.297885 
L 801.994609 303.472622 
L 802.989419 294.64736 
L 803.486824 294.64736 
L 804.481634 285.822098 
L 804.979039 285.822098 
L 805.476444 281.409467 
L 805.973849 272.584205 
L 806.471254 272.584205 
L 807.96347 259.346311 
L 808.460875 250.521049 
L 808.95828 246.108418 
L 809.455685 246.108418 
L 809.95309 250.521049 
L 810.9479 241.695787 
L 811.445305 246.108418 
L 811.94271 246.108418 
L 812.93752 228.457893 
L 814.429736 228.457893 
L 815.424546 237.283156 
L 817.911571 237.283156 
L 818.408976 241.695787 
L 818.906381 241.695787 
L 819.403786 237.283156 
L 819.901191 246.108418 
L 820.398597 237.283156 
L 820.896002 232.870524 
L 821.393407 232.870524 
L 821.890812 224.045262 
L 822.388217 232.870524 
L 822.885622 228.457893 
L 823.880432 228.457893 
L 824.377837 237.283156 
L 826.367457 237.283156 
L 826.864863 241.695787 
L 827.859673 232.870524 
L 828.357078 237.283156 
L 829.849293 224.045262 
L 830.346698 215.22 
L 830.844103 210.807369 
L 831.341508 210.807369 
L 831.838913 219.632631 
L 832.336318 210.807369 
L 833.331129 201.982107 
L 833.828534 201.982107 
L 834.325939 193.156844 
L 834.823344 188.744213 
L 835.818154 188.744213 
L 836.812964 179.918951 
L 837.310369 184.331582 
L 837.807774 179.918951 
L 838.802584 188.744213 
L 839.299989 188.744213 
L 839.797394 184.331582 
L 840.2948 188.744213 
L 840.792205 197.569476 
L 841.28961 201.982107 
L 841.787015 197.569476 
L 842.28442 201.982107 
L 842.781825 210.807369 
L 845.26885 188.744213 
L 845.766255 175.50632 
L 846.26366 171.093689 
L 846.761066 171.093689 
L 847.258471 175.50632 
L 847.755876 166.681058 
L 848.253281 166.681058 
L 848.750686 162.268427 
L 849.248091 166.681058 
L 849.745496 162.268427 
L 850.242901 171.093689 
L 850.740306 171.093689 
L 851.237711 162.268427 
L 851.735116 171.093689 
L 852.729926 171.093689 
L 853.227332 166.681058 
L 853.724737 171.093689 
L 854.719547 162.268427 
L 856.211762 162.268427 
L 856.709167 153.443164 
L 857.206572 153.443164 
L 857.703977 157.855795 
L 858.201382 157.855795 
L 858.698787 162.268427 
L 859.693598 162.268427 
L 860.191003 166.681058 
L 860.688408 166.681058 
L 861.185813 153.443164 
L 861.683218 149.030533 
L 863.672838 166.681058 
L 864.667648 166.681058 
L 865.165053 157.855795 
L 865.662458 166.681058 
L 866.657269 175.50632 
L 867.652079 175.50632 
L 868.149484 179.918951 
L 869.144294 171.093689 
L 869.641699 175.50632 
L 870.636509 175.50632 
L 871.631319 166.681058 
L 872.128724 171.093689 
L 872.626129 166.681058 
L 873.123535 166.681058 
L 873.62094 171.093689 
L 874.118345 166.681058 
L 874.61575 166.681058 
L 875.113155 162.268427 
L 875.61056 166.681058 
L 876.107965 166.681058 
L 876.60537 162.268427 
L 877.60018 162.268427 
L 878.097585 157.855795 
L 878.59499 162.268427 
L 879.092395 162.268427 
L 879.589801 166.681058 
L 880.087206 162.268427 
L 880.584611 162.268427 
L 881.082016 171.093689 
L 882.574231 171.093689 
L 883.071636 175.50632 
L 884.563851 175.50632 
L 885.061256 166.681058 
L 886.056067 157.855795 
L 886.553472 162.268427 
L 887.548282 162.268427 
L 888.045687 157.855795 
L 889.040497 157.855795 
L 889.537902 162.268427 
L 890.532712 162.268427 
L 891.030117 171.093689 
L 892.522332 184.331582 
L 893.019738 179.918951 
L 893.517143 179.918951 
L 894.014548 193.156844 
L 894.511953 197.569476 
L 895.009358 197.569476 
L 896.004168 188.744213 
L 896.501573 193.156844 
L 896.998978 179.918951 
L 897.496383 188.744213 
L 897.993788 188.744213 
L 898.988598 197.569476 
L 899.486004 197.569476 
L 900.480814 188.744213 
L 901.475624 197.569476 
L 902.470434 197.569476 
L 902.967839 201.982107 
L 903.465244 201.982107 
L 903.962649 210.807369 
L 904.460054 215.22 
L 905.454864 232.870524 
L 905.95227 237.283156 
L 906.94708 237.283156 
L 907.444485 246.108418 
L 907.94189 250.521049 
L 908.439295 246.108418 
L 908.9367 246.108418 
L 909.434105 237.283156 
L 910.428915 246.108418 
L 911.92113 246.108418 
L 912.418536 250.521049 
L 913.413346 250.521049 
L 913.910751 254.93368 
L 914.408156 254.93368 
L 914.905561 263.758942 
L 916.895181 281.409467 
L 917.889991 281.409467 
L 918.387396 276.996836 
L 918.884801 281.409467 
L 919.382207 281.409467 
L 920.377017 290.234729 
L 921.371827 290.234729 
L 921.869232 294.64736 
L 922.366637 294.64736 
L 922.864042 299.059991 
L 924.356257 299.059991 
L 924.853662 312.297885 
L 925.848473 321.123147 
L 926.345878 312.297885 
L 926.843283 325.535778 
L 927.340688 325.535778 
L 927.838093 321.123147 
L 929.827713 321.123147 
L 930.325118 325.535778 
L 930.822523 325.535778 
L 931.319928 329.948409 
L 931.817333 325.535778 
L 932.314739 329.948409 
L 932.812144 329.948409 
L 933.309549 325.535778 
L 935.299169 325.535778 
L 935.796574 321.123147 
L 936.293979 325.535778 
L 937.786194 325.535778 
L 938.283599 329.948409 
L 938.781005 329.948409 
L 939.27841 334.36104 
L 940.770625 334.36104 
L 941.26803 329.948409 
L 943.755055 329.948409 
L 944.25246 334.36104 
L 947.236891 334.36104 
L 948.231701 343.186302 
L 950.221321 343.186302 
L 950.718726 347.598934 
L 952.210942 347.598934 
L 952.708347 343.186302 
L 955.692777 343.186302 
L 956.190182 352.011565 
L 957.184992 352.011565 
L 957.682397 356.424196 
L 958.677208 356.424196 
L 959.174613 352.011565 
L 959.672018 356.424196 
L 960.169423 352.011565 
L 961.164233 352.011565 
L 961.661638 356.424196 
L 962.656448 356.424196 
L 963.153853 360.836827 
L 965.143474 360.836827 
L 965.640879 365.249458 
L 968.625309 365.249458 
L 969.122714 369.662089 
L 970.614929 369.662089 
L 971.112334 374.07472 
L 982.055246 374.07472 
L 982.552651 378.487351 
L 988.521512 378.487351 
L 989.018917 382.899983 
L 989.516322 382.899983 
L 990.013727 387.312614 
L 997.972209 387.312614 
L 998.469614 382.899983 
L 1027.816513 382.899983 
L 1028.313918 387.312614 
L 1116.354616 387.312614 
L 1116.354616 387.312614 
" clip-path="url(#p55692cc7f1)" style="fill: none; stroke: #ff7f0e; stroke-opacity: 0.5; stroke-width: 1.5; stroke-linecap: square"/>
   </g>
   <g id="line2d_37">
    <path d="M 619.446946 387.312614 
L 711.96429 387.312614 
L 712.461695 385.988824 
L 720.917581 385.988824 
L 721.414987 384.665035 
L 732.357898 384.665035 
L 732.855303 383.341246 
L 734.347518 383.341246 
L 734.844924 380.693667 
L 735.342329 379.369878 
L 744.793025 379.369878 
L 745.29043 378.046088 
L 745.787835 378.046088 
L 746.28524 376.722299 
L 746.782645 374.07472 
L 749.767076 374.07472 
L 750.761886 371.427142 
L 752.254101 371.427142 
L 752.751506 370.103352 
L 753.248911 370.103352 
L 753.746316 368.779563 
L 754.741127 368.779563 
L 755.238532 366.131984 
L 757.228152 366.131984 
L 757.725557 363.484406 
L 758.720367 363.484406 
L 759.217772 362.160616 
L 759.715177 359.513038 
L 761.704798 359.513038 
L 762.202203 358.189248 
L 763.197013 358.189248 
L 763.694418 356.865459 
L 766.678848 356.865459 
L 767.176253 354.21788 
L 768.171064 351.570302 
L 768.668469 351.570302 
L 769.663279 348.922723 
L 770.160684 348.922723 
L 770.658089 347.598934 
L 771.155494 344.951355 
L 771.652899 344.951355 
L 773.145114 340.979987 
L 773.642519 338.332408 
L 774.139925 337.008619 
L 775.134735 337.008619 
L 775.63214 335.68483 
L 776.129545 333.037251 
L 776.62695 331.713462 
L 777.124355 331.713462 
L 778.119165 326.418304 
L 782.098406 326.418304 
L 782.595811 325.094515 
L 784.088026 325.094515 
L 784.585431 323.770726 
L 785.082836 323.770726 
L 785.580241 321.123147 
L 786.077646 319.799358 
L 786.575051 319.799358 
L 787.072456 317.151779 
L 787.569862 317.151779 
L 788.067267 315.82799 
L 788.564672 315.82799 
L 789.062077 314.5042 
L 792.046507 314.5042 
L 793.041317 311.856622 
L 793.538722 311.856622 
L 795.030938 307.885253 
L 795.528343 305.237675 
L 796.025748 303.913885 
L 797.020558 303.913885 
L 797.517963 299.942517 
L 798.015368 297.294939 
L 799.010178 294.64736 
L 799.507583 290.675992 
L 800.502394 288.028413 
L 800.999799 285.380835 
L 801.497204 284.057045 
L 801.994609 281.409467 
L 802.492014 281.409467 
L 802.989419 278.761888 
L 803.486824 277.438099 
L 804.481634 277.438099 
L 804.979039 276.114309 
L 806.471254 276.114309 
L 807.466065 273.466731 
L 807.96347 273.466731 
L 810.450495 266.847784 
L 810.9479 262.876416 
L 811.445305 261.552627 
L 811.94271 262.876416 
L 812.440115 262.876416 
L 812.93752 260.228837 
L 813.434925 260.228837 
L 813.932331 258.905048 
L 814.429736 258.905048 
L 814.927141 257.581259 
L 815.424546 257.581259 
L 815.921951 256.257469 
L 816.419356 253.609891 
L 817.414166 253.609891 
L 818.408976 250.962312 
L 818.906381 250.962312 
L 819.901191 248.314733 
L 820.398597 248.314733 
L 820.896002 249.638523 
L 821.393407 249.638523 
L 821.890812 246.990944 
L 822.388217 245.667155 
L 823.880432 245.667155 
L 825.870052 240.371997 
L 826.367457 236.400629 
L 826.864863 235.07684 
L 827.362268 232.429261 
L 827.859673 231.105472 
L 828.854483 231.105472 
L 829.351888 227.134104 
L 829.849293 225.810315 
L 830.346698 221.838947 
L 831.341508 221.838947 
L 831.838913 220.515157 
L 832.336318 221.838947 
L 832.833723 219.191368 
L 833.331129 219.191368 
L 833.828534 217.867579 
L 834.823344 220.515157 
L 835.818154 220.515157 
L 836.315559 219.191368 
L 836.812964 216.543789 
L 837.310369 216.543789 
L 838.305179 213.896211 
L 838.802584 213.896211 
L 839.299989 211.248632 
L 839.797394 209.924843 
L 840.792205 204.629685 
L 841.787015 201.982107 
L 842.28442 201.982107 
L 842.781825 199.334528 
L 843.27923 198.010739 
L 844.27404 198.010739 
L 844.771445 199.334528 
L 845.26885 198.010739 
L 845.766255 198.010739 
L 846.26366 200.658317 
L 847.258471 200.658317 
L 847.755876 199.334528 
L 848.750686 199.334528 
L 849.248091 198.010739 
L 849.745496 198.010739 
L 851.735116 192.715581 
L 853.724737 192.715581 
L 854.222142 191.391792 
L 854.719547 194.039371 
L 856.211762 190.068003 
L 856.709167 190.068003 
L 857.206572 191.391792 
L 857.703977 191.391792 
L 858.201382 190.068003 
L 858.698787 191.391792 
L 859.196192 194.039371 
L 859.693598 194.039371 
L 860.191003 190.068003 
L 861.185813 187.420424 
L 861.683218 188.744213 
L 862.180623 184.772845 
L 862.678028 184.772845 
L 863.175433 186.096635 
L 864.667648 186.096635 
L 865.662458 183.449056 
L 866.159863 183.449056 
L 867.154674 186.096635 
L 868.149484 186.096635 
L 869.144294 188.744213 
L 869.641699 188.744213 
L 870.139104 190.068003 
L 870.636509 192.715581 
L 871.631319 192.715581 
L 872.626129 195.36316 
L 873.123535 198.010739 
L 874.118345 198.010739 
L 874.61575 195.36316 
L 875.113155 196.686949 
L 875.61056 199.334528 
L 876.107965 200.658317 
L 876.60537 200.658317 
L 877.60018 205.953475 
L 879.092395 205.953475 
L 879.589801 204.629685 
L 881.579421 204.629685 
L 882.076826 205.953475 
L 882.574231 205.953475 
L 883.569041 203.305896 
L 884.066446 204.629685 
L 884.563851 204.629685 
L 885.061256 207.277264 
L 885.558661 208.601053 
L 886.056067 207.277264 
L 886.553472 209.924843 
L 887.050877 209.924843 
L 887.548282 211.248632 
L 888.045687 211.248632 
L 888.543092 212.572421 
L 891.030117 212.572421 
L 891.527522 209.924843 
L 892.522332 212.572421 
L 893.019738 211.248632 
L 895.506763 217.867579 
L 896.501573 217.867579 
L 897.496383 223.162736 
L 897.993788 224.486525 
L 898.491193 224.486525 
L 898.988598 228.457893 
L 899.983409 231.105472 
L 900.480814 233.753051 
L 900.978219 233.753051 
L 901.475624 236.400629 
L 901.973029 236.400629 
L 902.470434 239.048208 
L 902.967839 240.371997 
L 906.449675 240.371997 
L 906.94708 241.695787 
L 907.444485 241.695787 
L 909.93151 248.314733 
L 910.428915 252.286101 
L 910.92632 253.609891 
L 911.92113 253.609891 
L 912.418536 256.257469 
L 912.915941 256.257469 
L 913.413346 257.581259 
L 913.910751 257.581259 
L 914.408156 258.905048 
L 914.905561 258.905048 
L 915.402966 260.228837 
L 915.900371 262.876416 
L 916.895181 262.876416 
L 917.392586 264.200205 
L 918.387396 264.200205 
L 919.382207 266.847784 
L 920.874422 266.847784 
L 921.371827 269.495363 
L 921.869232 270.819152 
L 923.361447 270.819152 
L 923.858852 272.142941 
L 924.356257 272.142941 
L 924.853662 273.466731 
L 925.351067 273.466731 
L 925.848473 277.438099 
L 926.345878 278.761888 
L 926.843283 281.409467 
L 927.340688 282.733256 
L 928.335498 282.733256 
L 928.832903 286.704624 
L 929.330308 288.028413 
L 929.827713 291.999781 
L 930.822523 291.999781 
L 931.319928 293.323571 
L 931.817333 293.323571 
L 932.314739 295.971149 
L 932.812144 295.971149 
L 933.806954 298.618728 
L 935.299169 298.618728 
L 935.796574 299.942517 
L 936.293979 302.590096 
L 936.791384 302.590096 
L 937.786194 305.237675 
L 938.283599 305.237675 
L 938.781005 307.885253 
L 939.27841 309.209043 
L 940.27322 314.5042 
L 941.26803 317.151779 
L 941.765435 317.151779 
L 942.26284 319.799358 
L 942.760245 321.123147 
L 944.25246 321.123147 
L 945.24727 323.770726 
L 946.739486 323.770726 
L 947.236891 325.094515 
L 948.231701 325.094515 
L 949.226511 327.742094 
L 949.723916 330.389672 
L 951.713536 335.68483 
L 952.210942 335.68483 
L 952.708347 337.008619 
L 953.205752 337.008619 
L 953.703157 338.332408 
L 954.200562 338.332408 
L 955.692777 342.303776 
L 956.190182 342.303776 
L 956.687587 343.627566 
L 957.184992 343.627566 
L 957.682397 344.951355 
L 959.174613 344.951355 
L 959.672018 348.922723 
L 960.666828 351.570302 
L 961.164233 351.570302 
L 961.661638 355.54167 
L 963.153853 355.54167 
L 963.651258 354.21788 
L 964.148663 354.21788 
L 965.143474 356.865459 
L 965.640879 356.865459 
L 966.138284 358.189248 
L 966.635689 358.189248 
L 967.133094 359.513038 
L 970.614929 359.513038 
L 971.112334 360.836827 
L 972.60455 360.836827 
L 973.101955 362.160616 
L 973.59936 362.160616 
L 974.096765 364.808195 
L 978.573411 364.808195 
L 979.070816 366.131984 
L 982.055246 366.131984 
L 983.050056 368.779563 
L 985.039677 368.779563 
L 985.537082 370.103352 
L 990.511132 370.103352 
L 991.008537 372.750931 
L 992.003348 372.750931 
L 992.500753 374.07472 
L 993.992968 374.07472 
L 994.490373 375.39851 
L 995.982588 375.39851 
L 996.479993 376.722299 
L 997.474803 376.722299 
L 997.972209 378.046088 
L 999.961829 378.046088 
L 1000.459234 379.369878 
L 1003.443664 379.369878 
L 1003.941069 380.693667 
L 1005.433285 380.693667 
L 1005.93069 382.017456 
L 1016.873601 382.017456 
L 1017.371006 383.341246 
L 1023.339867 383.341246 
L 1023.837272 384.665035 
L 1024.334678 384.665035 
L 1024.832083 385.988824 
L 1062.634868 385.988824 
L 1063.132273 387.312614 
L 1116.354616 387.312614 
L 1116.354616 387.312614 
" clip-path="url(#p55692cc7f1)" style="fill: none; stroke: #2ca02c; stroke-opacity: 0.5; stroke-width: 1.5; stroke-linecap: square"/>
   </g>
   <g id="line2d_38">
    <path d="M 619.446946 386.871351 
L 621.436566 386.871351 
L 621.933971 386.430087 
L 632.876883 386.430087 
L 633.374288 385.988824 
L 634.866503 385.988824 
L 635.363908 385.106298 
L 635.861314 384.665035 
L 645.31201 384.665035 
L 645.809415 384.223772 
L 646.30682 384.223772 
L 646.804225 383.782509 
L 647.30163 382.899983 
L 650.286061 382.899983 
L 651.280871 382.017456 
L 652.773086 382.017456 
L 653.270491 381.576193 
L 653.767896 381.576193 
L 654.265301 381.13493 
L 655.260111 381.13493 
L 655.757517 380.252404 
L 657.747137 380.252404 
L 658.244542 379.369878 
L 659.239352 379.369878 
L 659.736757 378.928615 
L 660.234162 378.046088 
L 662.223783 378.046088 
L 662.721188 377.604825 
L 663.715998 377.604825 
L 664.213403 377.163562 
L 667.197833 377.163562 
L 667.695238 376.281036 
L 668.690049 375.39851 
L 669.187454 375.39851 
L 670.182264 374.515983 
L 670.679669 374.515983 
L 671.177074 374.07472 
L 671.674479 373.192194 
L 672.171884 373.192194 
L 673.664099 371.868405 
L 674.161504 370.985878 
L 674.658909 370.544615 
L 675.65372 370.544615 
L 676.151125 370.103352 
L 676.64853 369.220826 
L 677.145935 368.779563 
L 677.64334 368.779563 
L 678.63815 367.01451 
L 682.617391 367.01451 
L 683.114796 366.573247 
L 684.607011 366.573247 
L 685.104416 366.131984 
L 685.601821 366.131984 
L 686.099226 365.249458 
L 686.596631 364.808195 
L 687.094036 364.808195 
L 687.591441 363.925669 
L 688.088846 363.925669 
L 688.586252 363.484406 
L 689.083657 363.484406 
L 689.581062 363.043142 
L 692.565492 363.043142 
L 693.560302 362.160616 
L 694.057707 362.160616 
L 695.549923 360.836827 
L 696.047328 359.954301 
L 696.544733 359.513038 
L 697.539543 359.513038 
L 698.036948 358.189248 
L 698.534353 357.306722 
L 699.529163 356.424196 
L 700.026568 355.100406 
L 701.021378 354.21788 
L 701.518783 353.335354 
L 702.016189 352.894091 
L 702.513594 352.011565 
L 703.010999 352.011565 
L 703.508404 351.129038 
L 704.005809 350.687775 
L 705.000619 350.687775 
L 705.498024 350.246512 
L 706.990239 350.246512 
L 707.985049 349.363986 
L 708.482455 349.363986 
L 710.96948 347.15767 
L 711.466885 345.833881 
L 711.96429 345.392618 
L 712.9591 345.392618 
L 713.456505 344.510092 
L 713.95391 344.510092 
L 714.451315 344.068829 
L 714.948721 344.068829 
L 715.446126 343.627566 
L 715.943531 343.627566 
L 716.440936 343.186302 
L 716.938341 342.303776 
L 717.933151 342.303776 
L 718.927961 341.42125 
L 719.425366 341.42125 
L 720.420176 340.538724 
L 721.912392 340.538724 
L 722.409797 339.656198 
L 722.907202 339.214934 
L 724.399417 339.214934 
L 726.389037 337.449882 
L 726.886442 336.126093 
L 727.383847 335.68483 
L 727.881252 334.802303 
L 728.378658 334.36104 
L 729.373468 334.36104 
L 729.870873 333.037251 
L 730.368278 332.595988 
L 730.865683 331.272198 
L 731.860493 331.272198 
L 732.357898 330.830935 
L 732.855303 330.830935 
L 733.352708 329.948409 
L 733.850113 329.948409 
L 734.844924 329.065883 
L 736.337139 329.065883 
L 736.834544 328.62462 
L 737.331949 327.742094 
L 737.829354 327.742094 
L 738.824164 326.859567 
L 739.321569 326.859567 
L 739.818974 325.977041 
L 740.316379 325.535778 
L 741.31119 323.770726 
L 742.306 322.888199 
L 742.803405 322.888199 
L 743.30081 322.005673 
L 743.798215 321.56441 
L 745.29043 321.56441 
L 746.28524 320.681884 
L 747.777456 320.681884 
L 748.274861 320.240621 
L 749.269671 320.240621 
L 750.264481 319.358094 
L 750.761886 318.475568 
L 752.751506 316.710516 
L 753.248911 316.710516 
L 753.746316 316.269253 
L 754.243721 316.269253 
L 754.741127 315.82799 
L 755.238532 315.82799 
L 756.730747 314.5042 
L 757.228152 314.5042 
L 757.725557 314.062937 
L 758.222962 314.062937 
L 758.720367 313.621674 
L 760.212582 313.621674 
L 760.709987 312.297885 
L 761.704798 311.415358 
L 762.202203 311.415358 
L 762.699608 310.091569 
L 765.186633 310.091569 
L 766.181443 309.209043 
L 766.678848 309.209043 
L 767.176253 308.76778 
L 767.673659 308.76778 
L 768.171064 308.326517 
L 771.652899 308.326517 
L 772.150304 307.885253 
L 773.642519 307.885253 
L 774.139925 307.44399 
L 774.63733 307.44399 
L 775.134735 306.561464 
L 779.61138 306.561464 
L 780.108785 306.120201 
L 783.093216 306.120201 
L 784.088026 305.237675 
L 786.077646 305.237675 
L 786.575051 304.796412 
L 791.549102 304.796412 
L 792.046507 303.913885 
L 793.041317 303.913885 
L 793.538722 303.472622 
L 795.030938 303.472622 
L 795.528343 303.031359 
L 797.020558 303.031359 
L 797.517963 302.590096 
L 798.512773 302.590096 
L 799.010178 302.148833 
L 800.999799 302.148833 
L 801.497204 301.70757 
L 804.481634 301.70757 
L 804.979039 301.266307 
L 806.471254 301.266307 
L 806.968659 300.825044 
L 817.911571 300.825044 
L 818.408976 300.383781 
L 824.377837 300.383781 
L 824.875242 299.942517 
L 825.372647 299.942517 
L 825.870052 299.501254 
L 863.672838 299.501254 
L 864.170243 299.059991 
L 910.92632 299.059991 
L 911.423725 299.501254 
L 919.879612 299.501254 
L 920.377017 299.942517 
L 931.319928 299.942517 
L 931.817333 300.383781 
L 933.309549 300.383781 
L 933.806954 301.266307 
L 934.304359 301.70757 
L 943.755055 301.70757 
L 944.25246 302.148833 
L 944.749865 302.148833 
L 945.24727 302.590096 
L 945.744676 303.472622 
L 948.729106 303.472622 
L 949.723916 304.355149 
L 951.216131 304.355149 
L 951.713536 304.796412 
L 952.210942 304.796412 
L 952.708347 305.237675 
L 953.703157 305.237675 
L 954.200562 306.120201 
L 956.190182 306.120201 
L 956.687587 307.002727 
L 957.682397 307.002727 
L 958.179802 307.44399 
L 958.677208 308.326517 
L 960.666828 308.326517 
L 961.164233 308.76778 
L 962.159043 308.76778 
L 962.656448 309.209043 
L 965.640879 309.209043 
L 966.138284 310.091569 
L 967.133094 310.974095 
L 967.630499 310.974095 
L 968.625309 311.856622 
L 969.122714 311.856622 
L 969.620119 312.297885 
L 970.117524 313.180411 
L 970.614929 313.180411 
L 972.107145 314.5042 
L 972.60455 315.386726 
L 973.101955 315.82799 
L 974.096765 315.82799 
L 974.59417 316.269253 
L 975.091575 317.151779 
L 975.58898 317.593042 
L 976.086385 317.593042 
L 977.081195 319.358094 
L 981.060436 319.358094 
L 981.557841 319.799358 
L 983.050056 319.799358 
L 983.547461 320.240621 
L 984.044866 320.240621 
L 984.542271 321.123147 
L 985.039677 321.56441 
L 985.537082 321.56441 
L 986.034487 322.446936 
L 986.531892 322.446936 
L 987.029297 322.888199 
L 987.526702 322.888199 
L 988.024107 323.329462 
L 991.008537 323.329462 
L 992.003348 324.211989 
L 992.500753 324.211989 
L 993.992968 325.535778 
L 994.490373 326.418304 
L 994.987778 326.859567 
L 995.982588 326.859567 
L 996.479993 328.183357 
L 996.977398 329.065883 
L 997.972209 329.948409 
L 998.469614 331.272198 
L 999.464424 332.154725 
L 999.961829 333.037251 
L 1000.459234 333.478514 
L 1000.956639 334.36104 
L 1001.454044 334.36104 
L 1001.951449 335.243566 
L 1002.448854 335.68483 
L 1003.443664 335.68483 
L 1003.941069 336.126093 
L 1005.433285 336.126093 
L 1006.428095 337.008619 
L 1006.9255 337.008619 
L 1009.412525 339.214934 
L 1009.90993 340.538724 
L 1010.407335 340.979987 
L 1011.402146 340.979987 
L 1011.899551 341.862513 
L 1012.396956 341.862513 
L 1012.894361 342.303776 
L 1013.391766 342.303776 
L 1013.889171 342.745039 
L 1014.386576 342.745039 
L 1014.883981 343.186302 
L 1015.381386 344.068829 
L 1016.376196 344.068829 
L 1017.371006 344.951355 
L 1017.868412 344.951355 
L 1018.863222 345.833881 
L 1020.355437 345.833881 
L 1020.852842 346.716407 
L 1021.350247 347.15767 
L 1022.842462 347.15767 
L 1024.832083 348.922723 
L 1025.329488 350.246512 
L 1025.826893 350.687775 
L 1026.324298 351.570302 
L 1026.821703 352.011565 
L 1027.816513 352.011565 
L 1028.313918 353.335354 
L 1028.811323 353.776617 
L 1029.308728 355.100406 
L 1030.303538 355.100406 
L 1030.800943 355.54167 
L 1031.298349 355.54167 
L 1031.795754 356.424196 
L 1032.293159 356.424196 
L 1033.287969 357.306722 
L 1034.780184 357.306722 
L 1035.277589 357.747985 
L 1035.774994 358.630511 
L 1036.272399 358.630511 
L 1037.267209 359.513038 
L 1037.764615 359.513038 
L 1038.26202 360.395564 
L 1038.759425 360.836827 
L 1039.754235 362.601879 
L 1040.749045 363.484406 
L 1041.24645 363.484406 
L 1041.743855 364.366932 
L 1042.24126 364.808195 
L 1043.733475 364.808195 
L 1044.728286 365.690721 
L 1046.220501 365.690721 
L 1046.717906 366.131984 
L 1047.712716 366.131984 
L 1048.707526 367.01451 
L 1049.204931 367.897037 
L 1051.194552 369.662089 
L 1051.691957 369.662089 
L 1052.189362 370.103352 
L 1052.686767 370.103352 
L 1053.184172 370.544615 
L 1053.681577 370.544615 
L 1055.173792 371.868405 
L 1055.671197 371.868405 
L 1056.168602 372.309668 
L 1056.666007 372.309668 
L 1057.163412 372.750931 
L 1058.655628 372.750931 
L 1059.153033 374.07472 
L 1060.147843 374.957247 
L 1060.645248 374.957247 
L 1061.142653 376.281036 
L 1063.629678 376.281036 
L 1064.624489 377.163562 
L 1065.121894 377.163562 
L 1065.619299 377.604825 
L 1066.116704 377.604825 
L 1066.614109 378.046088 
L 1070.095944 378.046088 
L 1070.59335 378.487351 
L 1072.085565 378.487351 
L 1072.58297 378.928615 
L 1073.080375 378.928615 
L 1073.57778 379.811141 
L 1078.054426 379.811141 
L 1078.551831 380.252404 
L 1081.536261 380.252404 
L 1082.531071 381.13493 
L 1084.520692 381.13493 
L 1085.018097 381.576193 
L 1089.992147 381.576193 
L 1090.489553 382.458719 
L 1091.484363 382.458719 
L 1091.981768 382.899983 
L 1093.473983 382.899983 
L 1093.971388 383.341246 
L 1095.463603 383.341246 
L 1095.961008 383.782509 
L 1096.955819 383.782509 
L 1097.453224 384.223772 
L 1099.442844 384.223772 
L 1099.940249 384.665035 
L 1102.924679 384.665035 
L 1103.422085 385.106298 
L 1104.9143 385.106298 
L 1105.411705 385.547561 
L 1116.354616 385.547561 
L 1116.354616 385.547561 
" clip-path="url(#p55692cc7f1)" style="fill: none; stroke: #d62728; stroke-opacity: 0.5; stroke-width: 1.5; stroke-linecap: square"/>
   </g>
   <g id="patch_9">
    <path d="M 594.601562 404.521875 
L 594.601562 25.918125 
" style="fill: none; stroke: #000000; stroke-width: 0.8; stroke-linejoin: miter; stroke-linecap: square"/>
   </g>
   <g id="patch_10">
    <path d="M 1141.2 404.521875 
L 1141.2 25.918125 
" style="fill: none; stroke: #000000; stroke-width: 0.8; stroke-linejoin: miter; stroke-linecap: square"/>
   </g>
   <g id="patch_11">
    <path d="M 594.601562 404.521875 
L 1141.2 404.521875 
" style="fill: none; stroke: #000000; stroke-width: 0.8; stroke-linejoin: miter; stroke-linecap: square"/>
   </g>
   <g id="patch_12">
    <path d="M 594.601562 25.918125 
L 1141.2 25.918125 
" style="fill: none; stroke: #000000; stroke-width: 0.8; stroke-linejoin: miter; stroke-linecap: square"/>
   </g>
   <g id="text_23">
    <!-- Kernel = tophat -->
    <g transform="translate(820.545781 19.918125) scale(0.12 -0.12)">
     <defs>
      <path id="DejaVuSans-74" d="M 1172 4494 
L 1172 3500 
L 2356 3500 
L 2356 3053 
L 1172 3053 
L 1172 1153 
Q 1172 725 1289 603 
Q 1406 481 1766 481 
L 2356 481 
L 2356 0 
L 1766 0 
Q 1100 0 847 248 
Q 594 497 594 1153 
L 594 3053 
L 172 3053 
L 172 3500 
L 594 3500 
L 594 4494 
L 1172 4494 
z
" transform="scale(0.015625)"/>
      <path id="DejaVuSans-6f" d="M 1959 3097 
Q 1497 3097 1228 2736 
Q 959 2375 959 1747 
Q 959 1119 1226 758 
Q 1494 397 1959 397 
Q 2419 397 2687 759 
Q 2956 1122 2956 1747 
Q 2956 2369 2687 2733 
Q 2419 3097 1959 3097 
z
M 1959 3584 
Q 2709 3584 3137 3096 
Q 3566 2609 3566 1747 
Q 3566 888 3137 398 
Q 2709 -91 1959 -91 
Q 1206 -91 779 398 
Q 353 888 353 1747 
Q 353 2609 779 3096 
Q 1206 3584 1959 3584 
z
" transform="scale(0.015625)"/>
      <path id="DejaVuSans-70" d="M 1159 525 
L 1159 -1331 
L 581 -1331 
L 581 3500 
L 1159 3500 
L 1159 2969 
Q 1341 3281 1617 3432 
Q 1894 3584 2278 3584 
Q 2916 3584 3314 3078 
Q 3713 2572 3713 1747 
Q 3713 922 3314 415 
Q 2916 -91 2278 -91 
Q 1894 -91 1617 61 
Q 1341 213 1159 525 
z
M 3116 1747 
Q 3116 2381 2855 2742 
Q 2594 3103 2138 3103 
Q 1681 3103 1420 2742 
Q 1159 2381 1159 1747 
Q 1159 1113 1420 752 
Q 1681 391 2138 391 
Q 2594 391 2855 752 
Q 3116 1113 3116 1747 
z
" transform="scale(0.015625)"/>
     </defs>
     <use xlink:href="#DejaVuSans-4b"/>
     <use xlink:href="#DejaVuSans-65" transform="translate(60.576172 0)"/>
     <use xlink:href="#DejaVuSans-72" transform="translate(122.099609 0)"/>
     <use xlink:href="#DejaVuSans-6e" transform="translate(161.462891 0)"/>
     <use xlink:href="#DejaVuSans-65" transform="translate(224.841797 0)"/>
     <use xlink:href="#DejaVuSans-6c" transform="translate(286.365234 0)"/>
     <use xlink:href="#DejaVuSans-20" transform="translate(314.148438 0)"/>
     <use xlink:href="#DejaVuSans-3d" transform="translate(345.935547 0)"/>
     <use xlink:href="#DejaVuSans-20" transform="translate(429.724609 0)"/>
     <use xlink:href="#DejaVuSans-74" transform="translate(461.511719 0)"/>
     <use xlink:href="#DejaVuSans-6f" transform="translate(500.720703 0)"/>
     <use xlink:href="#DejaVuSans-70" transform="translate(561.902344 0)"/>
     <use xlink:href="#DejaVuSans-68" transform="translate(625.378906 0)"/>
     <use xlink:href="#DejaVuSans-61" transform="translate(688.757812 0)"/>
     <use xlink:href="#DejaVuSans-74" transform="translate(750.037109 0)"/>
    </g>
   </g>
   <g id="legend_2">
    <g id="patch_13">
     <path d="M 1065.223438 92.630625 
L 1134.2 92.630625 
Q 1136.2 92.630625 1136.2 90.630625 
L 1136.2 32.918125 
Q 1136.2 30.918125 1134.2 30.918125 
L 1065.223438 30.918125 
Q 1063.223438 30.918125 1063.223438 32.918125 
L 1063.223438 90.630625 
Q 1063.223438 92.630625 1065.223438 92.630625 
z
" style="fill: #ffffff; opacity: 0.8; stroke: #cccccc; stroke-linejoin: miter"/>
    </g>
    <g id="line2d_39">
     <path d="M 1067.223438 39.016563 
L 1077.223438 39.016563 
L 1087.223438 39.016563 
" style="fill: none; stroke: #1f77b4; stroke-opacity: 0.5; stroke-width: 1.5; stroke-linecap: square"/>
    </g>
    <g id="text_24">
     <!-- h = 0.1 -->
     <g transform="translate(1095.223438 42.516563) scale(0.1 -0.1)">
      <use xlink:href="#DejaVuSans-68"/>
      <use xlink:href="#DejaVuSans-20" transform="translate(63.378906 0)"/>
      <use xlink:href="#DejaVuSans-3d" transform="translate(95.166016 0)"/>
      <use xlink:href="#DejaVuSans-20" transform="translate(178.955078 0)"/>
      <use xlink:href="#DejaVuSans-30" transform="translate(210.742188 0)"/>
      <use xlink:href="#DejaVuSans-2e" transform="translate(274.365234 0)"/>
      <use xlink:href="#DejaVuSans-31" transform="translate(306.152344 0)"/>
     </g>
    </g>
    <g id="line2d_40">
     <path d="M 1067.223438 53.694688 
L 1077.223438 53.694688 
L 1087.223438 53.694688 
" style="fill: none; stroke: #ff7f0e; stroke-opacity: 0.5; stroke-width: 1.5; stroke-linecap: square"/>
    </g>
    <g id="text_25">
     <!-- h = 0.3 -->
     <g transform="translate(1095.223438 57.194688) scale(0.1 -0.1)">
      <use xlink:href="#DejaVuSans-68"/>
      <use xlink:href="#DejaVuSans-20" transform="translate(63.378906 0)"/>
      <use xlink:href="#DejaVuSans-3d" transform="translate(95.166016 0)"/>
      <use xlink:href="#DejaVuSans-20" transform="translate(178.955078 0)"/>
      <use xlink:href="#DejaVuSans-30" transform="translate(210.742188 0)"/>
      <use xlink:href="#DejaVuSans-2e" transform="translate(274.365234 0)"/>
      <use xlink:href="#DejaVuSans-33" transform="translate(306.152344 0)"/>
     </g>
    </g>
    <g id="line2d_41">
     <path d="M 1067.223438 68.372813 
L 1077.223438 68.372813 
L 1087.223438 68.372813 
" style="fill: none; stroke: #2ca02c; stroke-opacity: 0.5; stroke-width: 1.5; stroke-linecap: square"/>
    </g>
    <g id="text_26">
     <!-- h = 1 -->
     <g transform="translate(1095.223438 71.872813) scale(0.1 -0.1)">
      <use xlink:href="#DejaVuSans-68"/>
      <use xlink:href="#DejaVuSans-20" transform="translate(63.378906 0)"/>
      <use xlink:href="#DejaVuSans-3d" transform="translate(95.166016 0)"/>
      <use xlink:href="#DejaVuSans-20" transform="translate(178.955078 0)"/>
      <use xlink:href="#DejaVuSans-31" transform="translate(210.742188 0)"/>
     </g>
    </g>
    <g id="line2d_42">
     <path d="M 1067.223438 83.050938 
L 1077.223438 83.050938 
L 1087.223438 83.050938 
" style="fill: none; stroke: #d62728; stroke-opacity: 0.5; stroke-width: 1.5; stroke-linecap: square"/>
    </g>
    <g id="text_27">
     <!-- h = 3 -->
     <g transform="translate(1095.223438 86.550938) scale(0.1 -0.1)">
      <use xlink:href="#DejaVuSans-68"/>
      <use xlink:href="#DejaVuSans-20" transform="translate(63.378906 0)"/>
      <use xlink:href="#DejaVuSans-3d" transform="translate(95.166016 0)"/>
      <use xlink:href="#DejaVuSans-20" transform="translate(178.955078 0)"/>
      <use xlink:href="#DejaVuSans-33" transform="translate(210.742188 0)"/>
     </g>
    </g>
   </g>
  </g>
 </g>
 <defs>
  <clipPath id="p0666fcb838">
   <rect x="33.703125" y="25.918125" width="546.598437" height="378.60375"/>
  </clipPath>
  <clipPath id="p55692cc7f1">
   <rect x="594.601562" y="25.918125" width="546.598438" height="378.60375"/>
  </clipPath>
 </defs>
</svg>
