<svg version="1.1" xmlns="http://www.w3.org/2000/svg" viewBox="0 0 204.407760351487 222.6851295115148" width="408.815520702974" height="445.3702590230296">
  <!-- svg-source:excalidraw -->
  
  <defs>
    <style class="style-fonts">
      
    </style>
    
  </defs>
  <rect x="0" y="0" width="204.407760351487" height="222.6851295115148" fill="#ffffff"></rect><g stroke-linecap="round"><g transform="translate(98.83956575768207 98.66539218228536) rotate(0 46.262922003070344 53.85125860176822)"><path d="M-0.68 -0.96 C-0.52 13.6, -7 67.26, 0.17 86.15 C7.33 105.03, 27.13 113.33, 42.32 112.33 C57.52 111.32, 83.12 99.63, 91.36 80.12 C99.59 60.61, 91.45 9.17, 91.72 -4.76 M1.16 1.19 C1.24 16.02, -7.52 69.26, -0.69 87.48 C6.14 105.7, 26.87 111.57, 42.15 110.5 C57.43 109.43, 82.43 100.29, 90.99 81.05 C99.55 61.81, 93.49 9.3, 93.48 -4.95" stroke="#1971c2" stroke-width="2" fill="none"></path></g></g><mask></mask><g stroke-linecap="round" transform="translate(96.57294248702601 93.09839755880057) rotate(0 3.6608327942949472 3.660832794295402)"><path d="M3.48 -0.1 C4.25 -0.02, 5.36 0.61, 5.98 1.2 C6.6 1.78, 7.07 2.68, 7.19 3.43 C7.31 4.18, 7.06 5, 6.72 5.67 C6.38 6.33, 5.89 7.17, 5.14 7.42 C4.39 7.66, 3.04 7.5, 2.22 7.15 C1.41 6.79, 0.54 6.01, 0.23 5.29 C-0.08 4.57, 0.17 3.55, 0.35 2.83 C0.53 2.11, 0.75 1.47, 1.33 0.98 C1.9 0.49, 3.39 0.05, 3.8 -0.12 C4.2 -0.28, 3.78 -0.14, 3.75 -0.01 M4.34 -0.28 C5.12 -0.13, 6.24 0.7, 6.69 1.36 C7.14 2.02, 7.05 2.92, 7.04 3.66 C7.03 4.41, 6.99 5.15, 6.63 5.83 C6.28 6.51, 5.62 7.54, 4.92 7.72 C4.21 7.91, 3.2 7.28, 2.41 6.92 C1.62 6.56, 0.54 6.25, 0.18 5.55 C-0.17 4.85, 0.09 3.53, 0.28 2.74 C0.47 1.94, 0.63 1.21, 1.33 0.76 C2.03 0.31, 3.96 0.13, 4.48 0.02 C5 -0.1, 4.52 0.02, 4.43 0.06" stroke="none" stroke-width="0" fill="#b2f2bb"></path><path d="M4.14 -0.18 C4.78 -0.04, 5.57 0.73, 6.11 1.38 C6.65 2.02, 7.31 2.88, 7.37 3.67 C7.44 4.47, 6.98 5.53, 6.5 6.15 C6.02 6.76, 5.2 7.25, 4.48 7.37 C3.77 7.49, 2.89 7.32, 2.2 6.88 C1.5 6.45, 0.61 5.54, 0.31 4.76 C0.02 3.99, 0.2 2.94, 0.44 2.23 C0.69 1.52, 1.16 0.84, 1.79 0.51 C2.41 0.19, 3.75 0.36, 4.21 0.3 C4.68 0.23, 4.58 0.04, 4.57 0.12 M3.56 0.03 C4.31 -0.14, 5.24 -0.09, 5.83 0.41 C6.43 0.91, 7.03 2.23, 7.15 3.03 C7.26 3.84, 6.87 4.58, 6.54 5.24 C6.21 5.9, 5.72 6.71, 5.15 7 C4.58 7.29, 3.78 7.24, 3.11 6.99 C2.44 6.73, 1.67 6.14, 1.15 5.46 C0.64 4.78, 0.05 3.61, 0.03 2.89 C0 2.18, 0.39 1.73, 1.01 1.18 C1.63 0.64, 3.42 -0.25, 3.75 -0.38 C4.09 -0.51, 3.08 0.28, 3.03 0.41" stroke="#2f9e44" stroke-width="2" fill="none"></path></g><g stroke-linecap="round" transform="translate(143.83274578434794 206.0879181128903) rotate(0 3.2986056993122475 3.2986056993122475)"><path d="M2.67 0.31 C3.36 0.23, 4.29 0.44, 4.91 0.77 C5.52 1.1, 6.06 1.65, 6.36 2.31 C6.66 2.98, 6.96 4.1, 6.7 4.76 C6.45 5.42, 5.52 6, 4.81 6.27 C4.1 6.55, 3.09 6.59, 2.46 6.43 C1.82 6.26, 1.42 5.78, 1 5.28 C0.58 4.78, -0.03 4.14, -0.06 3.43 C-0.1 2.71, 0.32 1.59, 0.79 1.01 C1.25 0.43, 2.4 0.04, 2.71 -0.06 C3.03 -0.16, 2.62 0.3, 2.69 0.39 M3.18 0.23 C3.76 0.18, 4.22 0.36, 4.77 0.69 C5.32 1.03, 6.14 1.52, 6.48 2.24 C6.82 2.96, 6.99 4.36, 6.79 5.02 C6.59 5.68, 5.98 5.88, 5.27 6.21 C4.55 6.53, 3.25 7.1, 2.51 6.98 C1.77 6.86, 1.3 6.08, 0.83 5.48 C0.35 4.88, -0.39 4.09, -0.33 3.36 C-0.27 2.63, 0.63 1.65, 1.21 1.09 C1.8 0.53, 2.92 0.18, 3.17 0 C3.41 -0.19, 2.68 -0.17, 2.71 -0.04" stroke="none" stroke-width="0" fill="#ffec99"></path><path d="M2.46 0.17 C3.14 0.07, 4.38 0.17, 5.03 0.54 C5.69 0.92, 6.16 1.72, 6.4 2.4 C6.65 3.07, 6.7 3.95, 6.5 4.58 C6.3 5.22, 5.84 5.9, 5.22 6.19 C4.59 6.48, 3.46 6.5, 2.75 6.32 C2.05 6.15, 1.45 5.66, 0.99 5.14 C0.53 4.63, 0.06 3.87, 0.02 3.25 C-0.03 2.62, 0.21 1.93, 0.72 1.39 C1.24 0.85, 2.74 0.17, 3.11 0.01 C3.49 -0.16, 3.01 0.33, 2.95 0.4 M3.48 -0.24 C4.1 -0.21, 5 0.65, 5.44 1.17 C5.88 1.69, 6.02 2.22, 6.12 2.87 C6.22 3.52, 6.27 4.5, 6.03 5.06 C5.8 5.62, 5.3 6.05, 4.72 6.21 C4.14 6.38, 3.28 6.35, 2.56 6.05 C1.85 5.75, 0.83 4.95, 0.41 4.4 C-0.01 3.85, -0.19 3.41, 0.02 2.73 C0.23 2.05, 1.17 0.72, 1.68 0.32 C2.19 -0.08, 2.79 0.36, 3.1 0.32 C3.4 0.29, 3.45 0.17, 3.51 0.11" stroke="#f08c00" stroke-width="2" fill="none"></path></g><g stroke-linecap="round" transform="translate(186.46145527206681 93.29614954702083) rotate(0 3.696944319170143 3.696944319170143)"><path d="M3.42 0.3 C4.18 0.19, 5.17 0.36, 5.88 0.83 C6.58 1.31, 7.46 2.38, 7.63 3.15 C7.8 3.93, 7.35 4.83, 6.9 5.47 C6.45 6.11, 5.59 6.72, 4.92 7 C4.25 7.27, 3.61 7.33, 2.88 7.14 C2.14 6.96, 1 6.56, 0.53 5.89 C0.05 5.22, -0.09 3.95, 0 3.11 C0.09 2.28, 0.5 1.36, 1.06 0.89 C1.62 0.42, 2.9 0.41, 3.37 0.3 C3.83 0.18, 3.86 0.15, 3.85 0.19 M3.05 0.21 C3.74 0.05, 5.04 0.11, 5.82 0.6 C6.59 1.1, 7.41 2.41, 7.68 3.18 C7.96 3.95, 7.9 4.49, 7.48 5.21 C7.07 5.92, 5.96 7.11, 5.2 7.48 C4.44 7.85, 3.72 7.67, 2.92 7.43 C2.11 7.19, 0.79 6.7, 0.37 6.03 C-0.05 5.36, 0.21 4.25, 0.38 3.42 C0.55 2.6, 0.91 1.68, 1.38 1.09 C1.85 0.49, 2.78 -0.02, 3.19 -0.12 C3.59 -0.22, 3.81 0.44, 3.81 0.49" stroke="none" stroke-width="0" fill="#ffc9c9"></path><path d="M3.33 0.11 C4.13 -0.01, 5.06 0.36, 5.73 0.8 C6.41 1.25, 7.08 2.04, 7.36 2.77 C7.64 3.5, 7.71 4.52, 7.39 5.19 C7.06 5.86, 6.13 6.48, 5.41 6.79 C4.69 7.1, 3.85 7.2, 3.07 7.05 C2.3 6.89, 1.26 6.44, 0.74 5.88 C0.21 5.32, -0.15 4.5, -0.07 3.71 C0.02 2.92, 0.69 1.69, 1.25 1.13 C1.81 0.56, 2.95 0.5, 3.27 0.33 C3.6 0.16, 3.18 0.07, 3.2 0.11 M3.67 0.34 C4.33 0.34, 5.04 0.46, 5.64 0.93 C6.24 1.39, 7 2.37, 7.27 3.11 C7.54 3.84, 7.58 4.72, 7.27 5.34 C6.96 5.97, 6.23 6.63, 5.42 6.86 C4.62 7.08, 3.26 6.9, 2.43 6.7 C1.6 6.49, 0.76 6.3, 0.44 5.63 C0.12 4.95, 0.39 3.39, 0.49 2.64 C0.59 1.9, 0.48 1.61, 1.04 1.17 C1.6 0.74, 3.38 0.28, 3.84 0.04 C4.3 -0.2, 3.82 -0.27, 3.82 -0.29" stroke="#e03131" stroke-width="2" fill="none"></path></g><g stroke-linecap="round" transform="translate(10 10) rotate(0 88.73462925729109 88.77125035104109)"><path d="M177.47 88.77 C177.47 91.67, 177.33 94.59, 177.04 97.47 C176.76 100.36, 176.33 103.25, 175.76 106.09 C175.2 108.93, 174.49 111.76, 173.65 114.54 C172.81 117.32, 171.82 120.06, 170.71 122.74 C169.61 125.42, 168.36 128.06, 166.99 130.62 C165.62 133.18, 164.13 135.68, 162.51 138.09 C160.9 140.5, 159.17 142.85, 157.33 145.09 C155.49 147.33, 153.53 149.49, 151.48 151.54 C149.43 153.59, 147.27 155.55, 145.03 157.39 C142.79 159.23, 140.44 160.97, 138.03 162.58 C135.62 164.19, 133.12 165.69, 130.56 167.06 C128.01 168.43, 125.37 169.68, 122.69 170.79 C120.01 171.9, 117.27 172.88, 114.49 173.72 C111.72 174.56, 108.89 175.27, 106.05 175.84 C103.2 176.4, 100.32 176.83, 97.43 177.12 C94.55 177.4, 91.63 177.54, 88.73 177.54 C85.84 177.54, 82.92 177.4, 80.04 177.12 C77.15 176.83, 74.27 176.4, 71.42 175.84 C68.58 175.27, 65.75 174.56, 62.98 173.72 C60.2 172.88, 57.46 171.9, 54.78 170.79 C52.1 169.68, 49.46 168.43, 46.91 167.06 C44.35 165.69, 41.85 164.19, 39.44 162.58 C37.03 160.97, 34.68 159.23, 32.44 157.39 C30.2 155.55, 28.04 153.59, 25.99 151.54 C23.94 149.49, 21.98 147.33, 20.14 145.09 C18.3 142.85, 16.57 140.5, 14.95 138.09 C13.34 135.68, 11.84 133.18, 10.48 130.62 C9.11 128.06, 7.86 125.42, 6.75 122.74 C5.65 120.06, 4.66 117.32, 3.82 114.54 C2.98 111.76, 2.27 108.93, 1.71 106.09 C1.14 103.25, 0.71 100.36, 0.43 97.47 C0.14 94.59, 0 91.67, 0 88.77 C0 85.87, 0.14 82.96, 0.43 80.07 C0.71 77.18, 1.14 74.3, 1.71 71.45 C2.27 68.61, 2.98 65.78, 3.82 63 C4.66 60.23, 5.65 57.48, 6.75 54.8 C7.86 52.12, 9.11 49.48, 10.48 46.92 C11.84 44.37, 13.34 41.86, 14.95 39.45 C16.57 37.04, 18.3 34.7, 20.14 32.46 C21.98 30.21, 23.94 28.05, 25.99 26 C28.04 23.95, 30.2 21.99, 32.44 20.15 C34.68 18.31, 37.03 16.57, 39.44 14.96 C41.85 13.35, 44.35 11.85, 46.91 10.48 C49.46 9.11, 52.1 7.87, 54.78 6.76 C57.46 5.65, 60.2 4.66, 62.98 3.82 C65.75 2.98, 68.58 2.27, 71.42 1.71 C74.27 1.14, 77.15 0.71, 80.04 0.43 C82.92 0.14, 85.84 0, 88.73 0 C91.63 0, 94.55 0.14, 97.43 0.43 C100.32 0.71, 103.2 1.14, 106.05 1.71 C108.89 2.27, 111.72 2.98, 114.49 3.82 C117.27 4.66, 120.01 5.65, 122.69 6.76 C125.37 7.87, 128.01 9.11, 130.56 10.48 C133.12 11.85, 135.62 13.35, 138.03 14.96 C140.44 16.57, 142.79 18.31, 145.03 20.15 C147.27 21.99, 149.43 23.95, 151.48 26 C153.53 28.05, 155.49 30.21, 157.33 32.46 C159.17 34.7, 160.9 37.04, 162.51 39.45 C164.13 41.86, 165.62 44.37, 166.99 46.92 C168.36 49.48, 169.61 52.12, 170.71 54.8 C171.82 57.48, 172.81 60.23, 173.65 63 C174.49 65.78, 175.2 68.61, 175.76 71.45 C176.33 74.3, 176.76 77.18, 177.04 80.07 C177.33 82.96, 177.4 87.32, 177.47 88.77 C177.54 90.22, 177.54 87.32, 177.47 88.77" stroke="#2f9e44" stroke-width="1.5" fill="none" stroke-dasharray="1.5 7"></path></g></svg>