<?xml version="1.0" encoding="utf-8" standalone="no"?>
<!DOCTYPE svg PUBLIC "-//W3C//DTD SVG 1.1//EN"
  "http://www.w3.org/Graphics/SVG/1.1/DTD/svg11.dtd">
<svg xmlns:xlink="http://www.w3.org/1999/xlink" width="460.8pt" height="345.6pt" viewBox="0 0 460.8 345.6" xmlns="http://www.w3.org/2000/svg" version="1.1">
 <metadata>
  <rdf:RDF xmlns:dc="http://purl.org/dc/elements/1.1/" xmlns:cc="http://creativecommons.org/ns#" xmlns:rdf="http://www.w3.org/1999/02/22-rdf-syntax-ns#">
   <cc:Work>
    <dc:type rdf:resource="http://purl.org/dc/dcmitype/StillImage"/>
    <dc:date>2025-11-23T17:47:03.837662</dc:date>
    <dc:format>image/svg+xml</dc:format>
    <dc:creator>
     <cc:Agent>
      <dc:title>Matplotlib v3.10.7, https://matplotlib.org/</dc:title>
     </cc:Agent>
    </dc:creator>
   </cc:Work>
  </rdf:RDF>
 </metadata>
 <defs>
  <style type="text/css">*{stroke-linejoin: round; stroke-linecap: butt}</style>
 </defs>
 <g id="figure_1">
  <g id="patch_1">
   <path d="M 0 345.6 
L 460.8 345.6 
L 460.8 0 
L 0 0 
z
" style="fill: #ffffff"/>
  </g>
  <g id="axes_1">
   <g id="patch_2">
    <path d="M 47.38125 331.3 
L 450 331.3 
L 450 25.918125 
L 47.38125 25.918125 
z
" style="fill: #ffffff"/>
   </g>
   <g id="patch_3">
    <path d="M 248.690625 413.996474 
L 248.690625 413.996474 
L 248.690625 413.996474 
L 248.690625 413.996474 
z
" clip-path="url(#p6919921405)" style="fill: #96cac1; stroke: #626262; stroke-linejoin: miter"/>
   </g>
   <g id="patch_4">
    <path d="M 248.690625 413.996474 
L 248.690625 413.996474 
L 248.690625 413.996474 
L 248.690625 413.996474 
z
" clip-path="url(#p6919921405)" style="fill: #8aafc9; stroke: #626262; stroke-linejoin: miter"/>
   </g>
   <g id="patch_5">
    <path d="M 248.690625 413.996474 
L 248.690625 413.996474 
L 248.690625 413.996474 
L 248.690625 413.996474 
z
" clip-path="url(#p6919921405)" style="fill: #d9d9d9; stroke: #626262; stroke-linejoin: miter"/>
   </g>
   <g id="patch_6">
    <path d="M 248.690625 413.996474 
L 248.690625 413.996474 
L 248.690625 413.996474 
L 248.690625 413.996474 
z
" clip-path="url(#p6919921405)" style="fill: #c1bed6; stroke: #626262; stroke-linejoin: miter"/>
   </g>
   <g id="patch_7">
    <path d="M 248.690625 413.996474 
L 248.690625 413.996474 
L 248.690625 413.996474 
L 248.690625 413.996474 
z
" clip-path="url(#p6919921405)" style="fill: #f6f6bc; stroke: #626262; stroke-linejoin: miter"/>
   </g>
   <g id="patch_8">
    <path d="M 248.690625 413.996474 
L 248.690625 413.996474 
L 248.690625 413.996474 
L 248.690625 413.996474 
z
" clip-path="url(#p6919921405)" style="fill: #ea8e83; stroke: #626262; stroke-linejoin: miter"/>
   </g>
   <g id="patch_9">
    <path d="M 248.690625 413.996474 
L 248.690625 413.996474 
L 248.690625 413.996474 
L 248.690625 413.996474 
z
" clip-path="url(#p6919921405)" style="fill: #eab375; stroke: #626262; stroke-linejoin: miter"/>
   </g>
   <g id="patch_10">
    <path d="M 248.690625 413.996474 
L 248.690625 413.996474 
L 248.690625 413.996474 
L 248.690625 413.996474 
z
" clip-path="url(#p6919921405)" style="fill: #afcf78; stroke: #626262; stroke-linejoin: miter"/>
   </g>
   <g id="matplotlib.axis_1">
    <g id="xtick_1">
     <g id="line2d_1">
      <defs>
       <path id="me2b29862f4" d="M 0 0 
L 0 3.5 
" style="stroke: #000000; stroke-width: 0.8"/>
      </defs>
      <g>
       <use xlink:href="#me2b29862f4" x="248.690625" y="331.3" style="stroke: #000000; stroke-width: 0.8"/>
      </g>
     </g>
    </g>
   </g>
   <g id="matplotlib.axis_2">
    <g id="ytick_1">
     <g id="line2d_2">
      <defs>
       <path id="m59e217cf28" d="M 0 0 
L -3.5 0 
" style="stroke: #000000; stroke-width: 0.8"/>
      </defs>
      <g>
       <use xlink:href="#m59e217cf28" x="47.38125" y="297.176276" style="stroke: #000000; stroke-width: 0.8"/>
      </g>
     </g>
     <g id="text_1">
      <!-- 0.3 -->
      <g transform="translate(24.478125 300.975495) scale(0.1 -0.1)">
       <defs>
        <path id="DejaVuSans-30" d="M 2034 4250 
Q 1547 4250 1301 3770 
Q 1056 3291 1056 2328 
Q 1056 1369 1301 889 
Q 1547 409 2034 409 
Q 2525 409 2770 889 
Q 3016 1369 3016 2328 
Q 3016 3291 2770 3770 
Q 2525 4250 2034 4250 
z
M 2034 4750 
Q 2819 4750 3233 4129 
Q 3647 3509 3647 2328 
Q 3647 1150 3233 529 
Q 2819 -91 2034 -91 
Q 1250 -91 836 529 
Q 422 1150 422 2328 
Q 422 3509 836 4129 
Q 1250 4750 2034 4750 
z
" transform="scale(0.015625)"/>
        <path id="DejaVuSans-2e" d="M 684 794 
L 1344 794 
L 1344 0 
L 684 0 
L 684 794 
z
" transform="scale(0.015625)"/>
        <path id="DejaVuSans-33" d="M 2597 2516 
Q 3050 2419 3304 2112 
Q 3559 1806 3559 1356 
Q 3559 666 3084 287 
Q 2609 -91 1734 -91 
Q 1441 -91 1130 -33 
Q 819 25 488 141 
L 488 750 
Q 750 597 1062 519 
Q 1375 441 1716 441 
Q 2309 441 2620 675 
Q 2931 909 2931 1356 
Q 2931 1769 2642 2001 
Q 2353 2234 1838 2234 
L 1294 2234 
L 1294 2753 
L 1863 2753 
Q 2328 2753 2575 2939 
Q 2822 3125 2822 3475 
Q 2822 3834 2567 4026 
Q 2313 4219 1838 4219 
Q 1578 4219 1281 4162 
Q 984 4106 628 3988 
L 628 4550 
Q 988 4650 1302 4700 
Q 1616 4750 1894 4750 
Q 2613 4750 3031 4423 
Q 3450 4097 3450 3541 
Q 3450 3153 3228 2886 
Q 3006 2619 2597 2516 
z
" transform="scale(0.015625)"/>
       </defs>
       <use xlink:href="#DejaVuSans-30"/>
       <use xlink:href="#DejaVuSans-2e" transform="translate(63.623047 0)"/>
       <use xlink:href="#DejaVuSans-33" transform="translate(95.410156 0)"/>
      </g>
     </g>
    </g>
    <g id="ytick_2">
     <g id="line2d_3">
      <g>
       <use xlink:href="#m59e217cf28" x="47.38125" y="258.23621" style="stroke: #000000; stroke-width: 0.8"/>
      </g>
     </g>
     <g id="text_2">
      <!-- 0.4 -->
      <g transform="translate(24.478125 262.035429) scale(0.1 -0.1)">
       <defs>
        <path id="DejaVuSans-34" d="M 2419 4116 
L 825 1625 
L 2419 1625 
L 2419 4116 
z
M 2253 4666 
L 3047 4666 
L 3047 1625 
L 3713 1625 
L 3713 1100 
L 3047 1100 
L 3047 0 
L 2419 0 
L 2419 1100 
L 313 1100 
L 313 1709 
L 2253 4666 
z
" transform="scale(0.015625)"/>
       </defs>
       <use xlink:href="#DejaVuSans-30"/>
       <use xlink:href="#DejaVuSans-2e" transform="translate(63.623047 0)"/>
       <use xlink:href="#DejaVuSans-34" transform="translate(95.410156 0)"/>
      </g>
     </g>
    </g>
    <g id="ytick_3">
     <g id="line2d_4">
      <g>
       <use xlink:href="#m59e217cf28" x="47.38125" y="219.296144" style="stroke: #000000; stroke-width: 0.8"/>
      </g>
     </g>
     <g id="text_3">
      <!-- 0.5 -->
      <g transform="translate(24.478125 223.095363) scale(0.1 -0.1)">
       <defs>
        <path id="DejaVuSans-35" d="M 691 4666 
L 3169 4666 
L 3169 4134 
L 1269 4134 
L 1269 2991 
Q 1406 3038 1543 3061 
Q 1681 3084 1819 3084 
Q 2600 3084 3056 2656 
Q 3513 2228 3513 1497 
Q 3513 744 3044 326 
Q 2575 -91 1722 -91 
Q 1428 -91 1123 -41 
Q 819 9 494 109 
L 494 744 
Q 775 591 1075 516 
Q 1375 441 1709 441 
Q 2250 441 2565 725 
Q 2881 1009 2881 1497 
Q 2881 1984 2565 2268 
Q 2250 2553 1709 2553 
Q 1456 2553 1204 2497 
Q 953 2441 691 2322 
L 691 4666 
z
" transform="scale(0.015625)"/>
       </defs>
       <use xlink:href="#DejaVuSans-30"/>
       <use xlink:href="#DejaVuSans-2e" transform="translate(63.623047 0)"/>
       <use xlink:href="#DejaVuSans-35" transform="translate(95.410156 0)"/>
      </g>
     </g>
    </g>
    <g id="ytick_4">
     <g id="line2d_5">
      <g>
       <use xlink:href="#m59e217cf28" x="47.38125" y="180.356078" style="stroke: #000000; stroke-width: 0.8"/>
      </g>
     </g>
     <g id="text_4">
      <!-- 0.6 -->
      <g transform="translate(24.478125 184.155297) scale(0.1 -0.1)">
       <defs>
        <path id="DejaVuSans-36" d="M 2113 2584 
Q 1688 2584 1439 2293 
Q 1191 2003 1191 1497 
Q 1191 994 1439 701 
Q 1688 409 2113 409 
Q 2538 409 2786 701 
Q 3034 994 3034 1497 
Q 3034 2003 2786 2293 
Q 2538 2584 2113 2584 
z
M 3366 4563 
L 3366 3988 
Q 3128 4100 2886 4159 
Q 2644 4219 2406 4219 
Q 1781 4219 1451 3797 
Q 1122 3375 1075 2522 
Q 1259 2794 1537 2939 
Q 1816 3084 2150 3084 
Q 2853 3084 3261 2657 
Q 3669 2231 3669 1497 
Q 3669 778 3244 343 
Q 2819 -91 2113 -91 
Q 1303 -91 875 529 
Q 447 1150 447 2328 
Q 447 3434 972 4092 
Q 1497 4750 2381 4750 
Q 2619 4750 2861 4703 
Q 3103 4656 3366 4563 
z
" transform="scale(0.015625)"/>
       </defs>
       <use xlink:href="#DejaVuSans-30"/>
       <use xlink:href="#DejaVuSans-2e" transform="translate(63.623047 0)"/>
       <use xlink:href="#DejaVuSans-36" transform="translate(95.410156 0)"/>
      </g>
     </g>
    </g>
    <g id="ytick_5">
     <g id="line2d_6">
      <g>
       <use xlink:href="#m59e217cf28" x="47.38125" y="141.416012" style="stroke: #000000; stroke-width: 0.8"/>
      </g>
     </g>
     <g id="text_5">
      <!-- 0.7 -->
      <g transform="translate(24.478125 145.215231) scale(0.1 -0.1)">
       <defs>
        <path id="DejaVuSans-37" d="M 525 4666 
L 3525 4666 
L 3525 4397 
L 1831 0 
L 1172 0 
L 2766 4134 
L 525 4134 
L 525 4666 
z
" transform="scale(0.015625)"/>
       </defs>
       <use xlink:href="#DejaVuSans-30"/>
       <use xlink:href="#DejaVuSans-2e" transform="translate(63.623047 0)"/>
       <use xlink:href="#DejaVuSans-37" transform="translate(95.410156 0)"/>
      </g>
     </g>
    </g>
    <g id="ytick_6">
     <g id="line2d_7">
      <g>
       <use xlink:href="#m59e217cf28" x="47.38125" y="102.475946" style="stroke: #000000; stroke-width: 0.8"/>
      </g>
     </g>
     <g id="text_6">
      <!-- 0.8 -->
      <g transform="translate(24.478125 106.275165) scale(0.1 -0.1)">
       <defs>
        <path id="DejaVuSans-38" d="M 2034 2216 
Q 1584 2216 1326 1975 
Q 1069 1734 1069 1313 
Q 1069 891 1326 650 
Q 1584 409 2034 409 
Q 2484 409 2743 651 
Q 3003 894 3003 1313 
Q 3003 1734 2745 1975 
Q 2488 2216 2034 2216 
z
M 1403 2484 
Q 997 2584 770 2862 
Q 544 3141 544 3541 
Q 544 4100 942 4425 
Q 1341 4750 2034 4750 
Q 2731 4750 3128 4425 
Q 3525 4100 3525 3541 
Q 3525 3141 3298 2862 
Q 3072 2584 2669 2484 
Q 3125 2378 3379 2068 
Q 3634 1759 3634 1313 
Q 3634 634 3220 271 
Q 2806 -91 2034 -91 
Q 1263 -91 848 271 
Q 434 634 434 1313 
Q 434 1759 690 2068 
Q 947 2378 1403 2484 
z
M 1172 3481 
Q 1172 3119 1398 2916 
Q 1625 2713 2034 2713 
Q 2441 2713 2670 2916 
Q 2900 3119 2900 3481 
Q 2900 3844 2670 4047 
Q 2441 4250 2034 4250 
Q 1625 4250 1398 4047 
Q 1172 3844 1172 3481 
z
" transform="scale(0.015625)"/>
       </defs>
       <use xlink:href="#DejaVuSans-30"/>
       <use xlink:href="#DejaVuSans-2e" transform="translate(63.623047 0)"/>
       <use xlink:href="#DejaVuSans-38" transform="translate(95.410156 0)"/>
      </g>
     </g>
    </g>
    <g id="ytick_7">
     <g id="line2d_8">
      <g>
       <use xlink:href="#m59e217cf28" x="47.38125" y="63.53588" style="stroke: #000000; stroke-width: 0.8"/>
      </g>
     </g>
     <g id="text_7">
      <!-- 0.9 -->
      <g transform="translate(24.478125 67.335099) scale(0.1 -0.1)">
       <defs>
        <path id="DejaVuSans-39" d="M 703 97 
L 703 672 
Q 941 559 1184 500 
Q 1428 441 1663 441 
Q 2288 441 2617 861 
Q 2947 1281 2994 2138 
Q 2813 1869 2534 1725 
Q 2256 1581 1919 1581 
Q 1219 1581 811 2004 
Q 403 2428 403 3163 
Q 403 3881 828 4315 
Q 1253 4750 1959 4750 
Q 2769 4750 3195 4129 
Q 3622 3509 3622 2328 
Q 3622 1225 3098 567 
Q 2575 -91 1691 -91 
Q 1453 -91 1209 -44 
Q 966 3 703 97 
z
M 1959 2075 
Q 2384 2075 2632 2365 
Q 2881 2656 2881 3163 
Q 2881 3666 2632 3958 
Q 2384 4250 1959 4250 
Q 1534 4250 1286 3958 
Q 1038 3666 1038 3163 
Q 1038 2656 1286 2365 
Q 1534 2075 1959 2075 
z
" transform="scale(0.015625)"/>
       </defs>
       <use xlink:href="#DejaVuSans-30"/>
       <use xlink:href="#DejaVuSans-2e" transform="translate(63.623047 0)"/>
       <use xlink:href="#DejaVuSans-39" transform="translate(95.410156 0)"/>
      </g>
     </g>
    </g>
    <g id="text_8">
     <!-- r2 -->
     <g transform="translate(18.398438 183.845781) rotate(-90) scale(0.1 -0.1)">
      <defs>
       <path id="DejaVuSans-72" d="M 2631 2963 
Q 2534 3019 2420 3045 
Q 2306 3072 2169 3072 
Q 1681 3072 1420 2755 
Q 1159 2438 1159 1844 
L 1159 0 
L 581 0 
L 581 3500 
L 1159 3500 
L 1159 2956 
Q 1341 3275 1631 3429 
Q 1922 3584 2338 3584 
Q 2397 3584 2469 3576 
Q 2541 3569 2628 3553 
L 2631 2963 
z
" transform="scale(0.015625)"/>
       <path id="DejaVuSans-32" d="M 1228 531 
L 3431 531 
L 3431 0 
L 469 0 
L 469 531 
Q 828 903 1448 1529 
Q 2069 2156 2228 2338 
Q 2531 2678 2651 2914 
Q 2772 3150 2772 3378 
Q 2772 3750 2511 3984 
Q 2250 4219 1831 4219 
Q 1534 4219 1204 4116 
Q 875 4013 500 3803 
L 500 4441 
Q 881 4594 1212 4672 
Q 1544 4750 1819 4750 
Q 2544 4750 2975 4387 
Q 3406 4025 3406 3419 
Q 3406 3131 3298 2873 
Q 3191 2616 2906 2266 
Q 2828 2175 2409 1742 
Q 1991 1309 1228 531 
z
" transform="scale(0.015625)"/>
      </defs>
      <use xlink:href="#DejaVuSans-72"/>
      <use xlink:href="#DejaVuSans-32" transform="translate(41.113281 0)"/>
     </g>
    </g>
   </g>
   <g id="patch_11">
    <path d="M 91.669312 254.451708 
L 123.878812 254.451708 
L 123.878812 244.433984 
L 91.669312 244.433984 
L 91.669312 254.451708 
z
" clip-path="url(#p6919921405)" style="fill: #96cac1; stroke: #626262; stroke-linejoin: miter"/>
   </g>
   <g id="line2d_9">
    <path d="M 107.774062 254.451708 
L 107.774062 261.972288 
" clip-path="url(#p6919921405)" style="fill: none; stroke: #626262"/>
   </g>
   <g id="line2d_10">
    <path d="M 107.774062 244.433984 
L 107.774062 231.070754 
" clip-path="url(#p6919921405)" style="fill: none; stroke: #626262"/>
   </g>
   <g id="line2d_11">
    <path d="M 99.721687 261.972288 
L 115.826437 261.972288 
" clip-path="url(#p6919921405)" style="fill: none; stroke: #626262; stroke-linecap: square"/>
   </g>
   <g id="line2d_12">
    <path d="M 99.721687 231.070754 
L 115.826437 231.070754 
" clip-path="url(#p6919921405)" style="fill: none; stroke: #626262; stroke-linecap: square"/>
   </g>
   <g id="line2d_13">
    <defs>
     <path id="mba0fde6149" d="M 0 3 
C 0.795609 3 1.55874 2.683901 2.12132 2.12132 
C 2.683901 1.55874 3 0.795609 3 0 
C 3 -0.795609 2.683901 -1.55874 2.12132 -2.12132 
C 1.55874 -2.683901 0.795609 -3 0 -3 
C -0.795609 -3 -1.55874 -2.683901 -2.12132 -2.12132 
C -2.683901 -1.55874 -3 -0.795609 -3 0 
C -3 0.795609 -2.683901 1.55874 -2.12132 2.12132 
C -1.55874 2.683901 -0.795609 3 0 3 
z
" style="stroke: #626262"/>
    </defs>
    <g clip-path="url(#p6919921405)">
     <use xlink:href="#mba0fde6149" x="107.774062" y="299.756595" style="fill-opacity: 0; stroke: #626262"/>
     <use xlink:href="#mba0fde6149" x="107.774062" y="218.870558" style="fill-opacity: 0; stroke: #626262"/>
    </g>
   </g>
   <g id="patch_12">
    <path d="M 131.931187 239.803487 
L 164.140687 239.803487 
L 164.140687 233.683097 
L 131.931187 233.683097 
L 131.931187 239.803487 
z
" clip-path="url(#p6919921405)" style="fill: #8aafc9; stroke: #626262; stroke-linejoin: miter"/>
   </g>
   <g id="line2d_14">
    <path d="M 148.035937 239.803487 
L 148.035937 247.067826 
" clip-path="url(#p6919921405)" style="fill: none; stroke: #626262"/>
   </g>
   <g id="line2d_15">
    <path d="M 148.035937 233.683097 
L 148.035937 228.987939 
" clip-path="url(#p6919921405)" style="fill: none; stroke: #626262"/>
   </g>
   <g id="line2d_16">
    <path d="M 139.983562 247.067826 
L 156.088312 247.067826 
" clip-path="url(#p6919921405)" style="fill: none; stroke: #626262; stroke-linecap: square"/>
   </g>
   <g id="line2d_17">
    <path d="M 139.983562 228.987939 
L 156.088312 228.987939 
" clip-path="url(#p6919921405)" style="fill: none; stroke: #626262; stroke-linecap: square"/>
   </g>
   <g id="line2d_18">
    <g clip-path="url(#p6919921405)">
     <use xlink:href="#mba0fde6149" x="148.035937" y="254.596636" style="fill-opacity: 0; stroke: #626262"/>
     <use xlink:href="#mba0fde6149" x="148.035937" y="268.730061" style="fill-opacity: 0; stroke: #626262"/>
     <use xlink:href="#mba0fde6149" x="148.035937" y="220.953773" style="fill-opacity: 0; stroke: #626262"/>
    </g>
   </g>
   <g id="patch_13">
    <path d="M 172.193062 68.38626 
L 204.402562 68.38626 
L 204.402562 57.24109 
L 172.193062 57.24109 
L 172.193062 68.38626 
z
" clip-path="url(#p6919921405)" style="fill: #d9d9d9; stroke: #626262; stroke-linejoin: miter"/>
   </g>
   <g id="line2d_19">
    <path d="M 188.297812 68.38626 
L 188.297812 82.563541 
" clip-path="url(#p6919921405)" style="fill: none; stroke: #626262"/>
   </g>
   <g id="line2d_20">
    <path d="M 188.297812 57.24109 
L 188.297812 44.858222 
" clip-path="url(#p6919921405)" style="fill: none; stroke: #626262"/>
   </g>
   <g id="line2d_21">
    <path d="M 180.245437 82.563541 
L 196.350187 82.563541 
" clip-path="url(#p6919921405)" style="fill: none; stroke: #626262; stroke-linecap: square"/>
   </g>
   <g id="line2d_22">
    <path d="M 180.245437 44.858222 
L 196.350187 44.858222 
" clip-path="url(#p6919921405)" style="fill: none; stroke: #626262; stroke-linecap: square"/>
   </g>
   <g id="line2d_23">
    <g clip-path="url(#p6919921405)">
     <use xlink:href="#mba0fde6149" x="188.297812" y="86.103297" style="fill-opacity: 0; stroke: #626262"/>
     <use xlink:href="#mba0fde6149" x="188.297812" y="100.077378" style="fill-opacity: 0; stroke: #626262"/>
     <use xlink:href="#mba0fde6149" x="188.297812" y="39.799119" style="fill-opacity: 0; stroke: #626262"/>
    </g>
   </g>
   <g id="patch_14">
    <path d="M 212.454937 79.502288 
L 244.664437 79.502288 
L 244.664437 59.963473 
L 212.454937 59.963473 
L 212.454937 79.502288 
z
" clip-path="url(#p6919921405)" style="fill: #c1bed6; stroke: #626262; stroke-linejoin: miter"/>
   </g>
   <g id="line2d_24">
    <path d="M 228.559687 79.502288 
L 228.559687 99.268357 
" clip-path="url(#p6919921405)" style="fill: none; stroke: #626262"/>
   </g>
   <g id="line2d_25">
    <path d="M 228.559687 59.963473 
L 228.559687 47.305486 
" clip-path="url(#p6919921405)" style="fill: none; stroke: #626262"/>
   </g>
   <g id="line2d_26">
    <path d="M 220.507312 99.268357 
L 236.612062 99.268357 
" clip-path="url(#p6919921405)" style="fill: none; stroke: #626262; stroke-linecap: square"/>
   </g>
   <g id="line2d_27">
    <path d="M 220.507312 47.305486 
L 236.612062 47.305486 
" clip-path="url(#p6919921405)" style="fill: none; stroke: #626262; stroke-linecap: square"/>
   </g>
   <g id="line2d_28">
    <g clip-path="url(#p6919921405)">
     <use xlink:href="#mba0fde6149" x="228.559687" y="176.918985" style="fill-opacity: 0; stroke: #626262"/>
     <use xlink:href="#mba0fde6149" x="228.559687" y="143.485483" style="fill-opacity: 0; stroke: #626262"/>
     <use xlink:href="#mba0fde6149" x="228.559687" y="272.580922" style="fill-opacity: 0; stroke: #626262"/>
     <use xlink:href="#mba0fde6149" x="228.559687" y="137.943665" style="fill-opacity: 0; stroke: #626262"/>
    </g>
   </g>
   <g id="patch_15">
    <path d="M 252.716812 268.893061 
L 284.926312 268.893061 
L 284.926312 252.047673 
L 252.716812 252.047673 
L 252.716812 268.893061 
z
" clip-path="url(#p6919921405)" style="fill: #f6f6bc; stroke: #626262; stroke-linejoin: miter"/>
   </g>
   <g id="line2d_29">
    <path d="M 268.821562 268.893061 
L 268.821562 284.950845 
" clip-path="url(#p6919921405)" style="fill: none; stroke: #626262"/>
   </g>
   <g id="line2d_30">
    <path d="M 268.821562 252.047673 
L 268.821562 237.155279 
" clip-path="url(#p6919921405)" style="fill: none; stroke: #626262"/>
   </g>
   <g id="line2d_31">
    <path d="M 260.769187 284.950845 
L 276.873937 284.950845 
" clip-path="url(#p6919921405)" style="fill: none; stroke: #626262; stroke-linecap: square"/>
   </g>
   <g id="line2d_32">
    <path d="M 260.769187 237.155279 
L 276.873937 237.155279 
" clip-path="url(#p6919921405)" style="fill: none; stroke: #626262; stroke-linecap: square"/>
   </g>
   <g id="line2d_33">
    <g clip-path="url(#p6919921405)">
     <use xlink:href="#mba0fde6149" x="268.821562" y="317.419006" style="fill-opacity: 0; stroke: #626262"/>
     <use xlink:href="#mba0fde6149" x="268.821562" y="223.99525" style="fill-opacity: 0; stroke: #626262"/>
    </g>
   </g>
   <g id="patch_16">
    <path d="M 292.978687 239.803487 
L 325.188187 239.803487 
L 325.188187 233.683097 
L 292.978687 233.683097 
L 292.978687 239.803487 
z
" clip-path="url(#p6919921405)" style="fill: #ea8e83; stroke: #626262; stroke-linejoin: miter"/>
   </g>
   <g id="line2d_34">
    <path d="M 309.083437 239.803487 
L 309.083437 247.067826 
" clip-path="url(#p6919921405)" style="fill: none; stroke: #626262"/>
   </g>
   <g id="line2d_35">
    <path d="M 309.083437 233.683097 
L 309.083437 228.987939 
" clip-path="url(#p6919921405)" style="fill: none; stroke: #626262"/>
   </g>
   <g id="line2d_36">
    <path d="M 301.031062 247.067826 
L 317.135812 247.067826 
" clip-path="url(#p6919921405)" style="fill: none; stroke: #626262; stroke-linecap: square"/>
   </g>
   <g id="line2d_37">
    <path d="M 301.031062 228.987939 
L 317.135812 228.987939 
" clip-path="url(#p6919921405)" style="fill: none; stroke: #626262; stroke-linecap: square"/>
   </g>
   <g id="line2d_38">
    <g clip-path="url(#p6919921405)">
     <use xlink:href="#mba0fde6149" x="309.083437" y="268.730061" style="fill-opacity: 0; stroke: #626262"/>
     <use xlink:href="#mba0fde6149" x="309.083437" y="254.596636" style="fill-opacity: 0; stroke: #626262"/>
     <use xlink:href="#mba0fde6149" x="309.083437" y="220.953773" style="fill-opacity: 0; stroke: #626262"/>
    </g>
   </g>
   <g id="patch_17">
    <path d="M 333.240562 191.74658 
L 365.450063 191.74658 
L 365.450063 114.817674 
L 333.240562 114.817674 
L 333.240562 191.74658 
z
" clip-path="url(#p6919921405)" style="fill: #eab375; stroke: #626262; stroke-linejoin: miter"/>
   </g>
   <g id="line2d_39">
    <path d="M 349.345312 191.74658 
L 349.345312 268.218602 
" clip-path="url(#p6919921405)" style="fill: none; stroke: #626262"/>
   </g>
   <g id="line2d_40">
    <path d="M 349.345312 114.817674 
L 349.345312 69.791162 
" clip-path="url(#p6919921405)" style="fill: none; stroke: #626262"/>
   </g>
   <g id="line2d_41">
    <path d="M 341.292937 268.218602 
L 357.397687 268.218602 
" clip-path="url(#p6919921405)" style="fill: none; stroke: #626262; stroke-linecap: square"/>
   </g>
   <g id="line2d_42">
    <path d="M 341.292937 69.791162 
L 357.397687 69.791162 
" clip-path="url(#p6919921405)" style="fill: none; stroke: #626262; stroke-linecap: square"/>
   </g>
   <g id="line2d_43"/>
   <g id="patch_18">
    <path d="M 373.502437 68.95914 
L 405.711937 68.95914 
L 405.711937 52.258639 
L 373.502437 52.258639 
L 373.502437 68.95914 
z
" clip-path="url(#p6919921405)" style="fill: #afcf78; stroke: #626262; stroke-linejoin: miter"/>
   </g>
   <g id="line2d_44">
    <path d="M 389.607187 68.95914 
L 389.607187 87.657832 
" clip-path="url(#p6919921405)" style="fill: none; stroke: #626262"/>
   </g>
   <g id="line2d_45">
    <path d="M 389.607187 52.258639 
L 389.607187 42.952423 
" clip-path="url(#p6919921405)" style="fill: none; stroke: #626262"/>
   </g>
   <g id="line2d_46">
    <path d="M 381.554812 87.657832 
L 397.659562 87.657832 
" clip-path="url(#p6919921405)" style="fill: none; stroke: #626262; stroke-linecap: square"/>
   </g>
   <g id="line2d_47">
    <path d="M 381.554812 42.952423 
L 397.659562 42.952423 
" clip-path="url(#p6919921405)" style="fill: none; stroke: #626262; stroke-linecap: square"/>
   </g>
   <g id="line2d_48">
    <g clip-path="url(#p6919921405)">
     <use xlink:href="#mba0fde6149" x="389.607187" y="114.446756" style="fill-opacity: 0; stroke: #626262"/>
    </g>
   </g>
   <g id="line2d_49">
    <path d="M 47.38125 62.370091 
L 450 62.370091 
" clip-path="url(#p6919921405)" style="fill: none; stroke-dasharray: 1.5,2.475; stroke-dashoffset: 0; stroke: #808080; stroke-width: 1.5"/>
   </g>
   <g id="line2d_50">
    <path d="M 91.669312 247.100648 
L 123.878812 247.100648 
" clip-path="url(#p6919921405)" style="fill: none; stroke: #626262"/>
   </g>
   <g id="line2d_51">
    <path d="M 131.931187 236.128899 
L 164.140687 236.128899 
" clip-path="url(#p6919921405)" style="fill: none; stroke: #626262"/>
   </g>
   <g id="line2d_52">
    <path d="M 172.193062 62.370091 
L 204.402562 62.370091 
" clip-path="url(#p6919921405)" style="fill: none; stroke: #626262"/>
   </g>
   <g id="line2d_53">
    <path d="M 212.454937 69.531106 
L 244.664437 69.531106 
" clip-path="url(#p6919921405)" style="fill: none; stroke: #626262"/>
   </g>
   <g id="line2d_54">
    <path d="M 252.716812 258.208307 
L 284.926312 258.208307 
" clip-path="url(#p6919921405)" style="fill: none; stroke: #626262"/>
   </g>
   <g id="line2d_55">
    <path d="M 292.978687 236.128899 
L 325.188187 236.128899 
" clip-path="url(#p6919921405)" style="fill: none; stroke: #626262"/>
   </g>
   <g id="line2d_56">
    <path d="M 333.240562 145.888036 
L 365.450063 145.888036 
" clip-path="url(#p6919921405)" style="fill: none; stroke: #626262"/>
   </g>
   <g id="line2d_57">
    <path d="M 373.502437 63.89304 
L 405.711937 63.89304 
" clip-path="url(#p6919921405)" style="fill: none; stroke: #626262"/>
   </g>
   <g id="patch_19">
    <path d="M 47.38125 331.3 
L 47.38125 25.918125 
" style="fill: none; stroke: #000000; stroke-width: 0.8; stroke-linejoin: miter; stroke-linecap: square"/>
   </g>
   <g id="patch_20">
    <path d="M 450 331.3 
L 450 25.918125 
" style="fill: none; stroke: #000000; stroke-width: 0.8; stroke-linejoin: miter; stroke-linecap: square"/>
   </g>
   <g id="patch_21">
    <path d="M 47.38125 331.3 
L 450 331.3 
" style="fill: none; stroke: #000000; stroke-width: 0.8; stroke-linejoin: miter; stroke-linecap: square"/>
   </g>
   <g id="patch_22">
    <path d="M 47.38125 25.918125 
L 450 25.918125 
" style="fill: none; stroke: #000000; stroke-width: 0.8; stroke-linejoin: miter; stroke-linecap: square"/>
   </g>
   <g id="text_9">
    <!-- vino -  r2 por clf (boxplot) -->
    <g transform="translate(172.058437 19.918125) scale(0.12 -0.12)">
     <defs>
      <path id="DejaVuSans-76" d="M 191 3500 
L 800 3500 
L 1894 563 
L 2988 3500 
L 3597 3500 
L 2284 0 
L 1503 0 
L 191 3500 
z
" transform="scale(0.015625)"/>
      <path id="DejaVuSans-69" d="M 603 3500 
L 1178 3500 
L 1178 0 
L 603 0 
L 603 3500 
z
M 603 4863 
L 1178 4863 
L 1178 4134 
L 603 4134 
L 603 4863 
z
" transform="scale(0.015625)"/>
      <path id="DejaVuSans-6e" d="M 3513 2113 
L 3513 0 
L 2938 0 
L 2938 2094 
Q 2938 2591 2744 2837 
Q 2550 3084 2163 3084 
Q 1697 3084 1428 2787 
Q 1159 2491 1159 1978 
L 1159 0 
L 581 0 
L 581 3500 
L 1159 3500 
L 1159 2956 
Q 1366 3272 1645 3428 
Q 1925 3584 2291 3584 
Q 2894 3584 3203 3211 
Q 3513 2838 3513 2113 
z
" transform="scale(0.015625)"/>
      <path id="DejaVuSans-6f" d="M 1959 3097 
Q 1497 3097 1228 2736 
Q 959 2375 959 1747 
Q 959 1119 1226 758 
Q 1494 397 1959 397 
Q 2419 397 2687 759 
Q 2956 1122 2956 1747 
Q 2956 2369 2687 2733 
Q 2419 3097 1959 3097 
z
M 1959 3584 
Q 2709 3584 3137 3096 
Q 3566 2609 3566 1747 
Q 3566 888 3137 398 
Q 2709 -91 1959 -91 
Q 1206 -91 779 398 
Q 353 888 353 1747 
Q 353 2609 779 3096 
Q 1206 3584 1959 3584 
z
" transform="scale(0.015625)"/>
      <path id="DejaVuSans-20" transform="scale(0.015625)"/>
      <path id="DejaVuSans-2d" d="M 313 2009 
L 1997 2009 
L 1997 1497 
L 313 1497 
L 313 2009 
z
" transform="scale(0.015625)"/>
      <path id="DejaVuSans-70" d="M 1159 525 
L 1159 -1331 
L 581 -1331 
L 581 3500 
L 1159 3500 
L 1159 2969 
Q 1341 3281 1617 3432 
Q 1894 3584 2278 3584 
Q 2916 3584 3314 3078 
Q 3713 2572 3713 1747 
Q 3713 922 3314 415 
Q 2916 -91 2278 -91 
Q 1894 -91 1617 61 
Q 1341 213 1159 525 
z
M 3116 1747 
Q 3116 2381 2855 2742 
Q 2594 3103 2138 3103 
Q 1681 3103 1420 2742 
Q 1159 2381 1159 1747 
Q 1159 1113 1420 752 
Q 1681 391 2138 391 
Q 2594 391 2855 752 
Q 3116 1113 3116 1747 
z
" transform="scale(0.015625)"/>
      <path id="DejaVuSans-63" d="M 3122 3366 
L 3122 2828 
Q 2878 2963 2633 3030 
Q 2388 3097 2138 3097 
Q 1578 3097 1268 2742 
Q 959 2388 959 1747 
Q 959 1106 1268 751 
Q 1578 397 2138 397 
Q 2388 397 2633 464 
Q 2878 531 3122 666 
L 3122 134 
Q 2881 22 2623 -34 
Q 2366 -91 2075 -91 
Q 1284 -91 818 406 
Q 353 903 353 1747 
Q 353 2603 823 3093 
Q 1294 3584 2113 3584 
Q 2378 3584 2631 3529 
Q 2884 3475 3122 3366 
z
" transform="scale(0.015625)"/>
      <path id="DejaVuSans-6c" d="M 603 4863 
L 1178 4863 
L 1178 0 
L 603 0 
L 603 4863 
z
" transform="scale(0.015625)"/>
      <path id="DejaVuSans-66" d="M 2375 4863 
L 2375 4384 
L 1825 4384 
Q 1516 4384 1395 4259 
Q 1275 4134 1275 3809 
L 1275 3500 
L 2222 3500 
L 2222 3053 
L 1275 3053 
L 1275 0 
L 697 0 
L 697 3053 
L 147 3053 
L 147 3500 
L 697 3500 
L 697 3744 
Q 697 4328 969 4595 
Q 1241 4863 1831 4863 
L 2375 4863 
z
" transform="scale(0.015625)"/>
      <path id="DejaVuSans-28" d="M 1984 4856 
Q 1566 4138 1362 3434 
Q 1159 2731 1159 2009 
Q 1159 1288 1364 580 
Q 1569 -128 1984 -844 
L 1484 -844 
Q 1016 -109 783 600 
Q 550 1309 550 2009 
Q 550 2706 781 3412 
Q 1013 4119 1484 4856 
L 1984 4856 
z
" transform="scale(0.015625)"/>
      <path id="DejaVuSans-62" d="M 3116 1747 
Q 3116 2381 2855 2742 
Q 2594 3103 2138 3103 
Q 1681 3103 1420 2742 
Q 1159 2381 1159 1747 
Q 1159 1113 1420 752 
Q 1681 391 2138 391 
Q 2594 391 2855 752 
Q 3116 1113 3116 1747 
z
M 1159 2969 
Q 1341 3281 1617 3432 
Q 1894 3584 2278 3584 
Q 2916 3584 3314 3078 
Q 3713 2572 3713 1747 
Q 3713 922 3314 415 
Q 2916 -91 2278 -91 
Q 1894 -91 1617 61 
Q 1341 213 1159 525 
L 1159 0 
L 581 0 
L 581 4863 
L 1159 4863 
L 1159 2969 
z
" transform="scale(0.015625)"/>
      <path id="DejaVuSans-78" d="M 3513 3500 
L 2247 1797 
L 3578 0 
L 2900 0 
L 1881 1375 
L 863 0 
L 184 0 
L 1544 1831 
L 300 3500 
L 978 3500 
L 1906 2253 
L 2834 3500 
L 3513 3500 
z
" transform="scale(0.015625)"/>
      <path id="DejaVuSans-74" d="M 1172 4494 
L 1172 3500 
L 2356 3500 
L 2356 3053 
L 1172 3053 
L 1172 1153 
Q 1172 725 1289 603 
Q 1406 481 1766 481 
L 2356 481 
L 2356 0 
L 1766 0 
Q 1100 0 847 248 
Q 594 497 594 1153 
L 594 3053 
L 172 3053 
L 172 3500 
L 594 3500 
L 594 4494 
L 1172 4494 
z
" transform="scale(0.015625)"/>
      <path id="DejaVuSans-29" d="M 513 4856 
L 1013 4856 
Q 1481 4119 1714 3412 
Q 1947 2706 1947 2009 
Q 1947 1309 1714 600 
Q 1481 -109 1013 -844 
L 513 -844 
Q 928 -128 1133 580 
Q 1338 1288 1338 2009 
Q 1338 2731 1133 3434 
Q 928 4138 513 4856 
z
" transform="scale(0.015625)"/>
     </defs>
     <use xlink:href="#DejaVuSans-76"/>
     <use xlink:href="#DejaVuSans-69" transform="translate(59.179688 0)"/>
     <use xlink:href="#DejaVuSans-6e" transform="translate(86.962891 0)"/>
     <use xlink:href="#DejaVuSans-6f" transform="translate(150.341797 0)"/>
     <use xlink:href="#DejaVuSans-20" transform="translate(211.523438 0)"/>
     <use xlink:href="#DejaVuSans-2d" transform="translate(243.310547 0)"/>
     <use xlink:href="#DejaVuSans-20" transform="translate(279.394531 0)"/>
     <use xlink:href="#DejaVuSans-20" transform="translate(311.181641 0)"/>
     <use xlink:href="#DejaVuSans-72" transform="translate(342.96875 0)"/>
     <use xlink:href="#DejaVuSans-32" transform="translate(384.082031 0)"/>
     <use xlink:href="#DejaVuSans-20" transform="translate(447.705078 0)"/>
     <use xlink:href="#DejaVuSans-70" transform="translate(479.492188 0)"/>
     <use xlink:href="#DejaVuSans-6f" transform="translate(542.96875 0)"/>
     <use xlink:href="#DejaVuSans-72" transform="translate(604.150391 0)"/>
     <use xlink:href="#DejaVuSans-20" transform="translate(645.263672 0)"/>
     <use xlink:href="#DejaVuSans-63" transform="translate(677.050781 0)"/>
     <use xlink:href="#DejaVuSans-6c" transform="translate(732.03125 0)"/>
     <use xlink:href="#DejaVuSans-66" transform="translate(759.814453 0)"/>
     <use xlink:href="#DejaVuSans-20" transform="translate(795.019531 0)"/>
     <use xlink:href="#DejaVuSans-28" transform="translate(826.806641 0)"/>
     <use xlink:href="#DejaVuSans-62" transform="translate(865.820312 0)"/>
     <use xlink:href="#DejaVuSans-6f" transform="translate(929.296875 0)"/>
     <use xlink:href="#DejaVuSans-78" transform="translate(987.353516 0)"/>
     <use xlink:href="#DejaVuSans-70" transform="translate(1046.533203 0)"/>
     <use xlink:href="#DejaVuSans-6c" transform="translate(1110.009766 0)"/>
     <use xlink:href="#DejaVuSans-6f" transform="translate(1137.792969 0)"/>
     <use xlink:href="#DejaVuSans-74" transform="translate(1198.974609 0)"/>
     <use xlink:href="#DejaVuSans-29" transform="translate(1238.183594 0)"/>
    </g>
   </g>
   <g id="legend_1">
    <g id="patch_23">
     <path d="M 389.842187 326.3 
L 443 326.3 
Q 445 326.3 445 324.3 
L 445 193.196875 
Q 445 191.196875 443 191.196875 
L 389.842187 191.196875 
Q 387.842187 191.196875 387.842187 193.196875 
L 387.842187 324.3 
Q 387.842187 326.3 389.842187 326.3 
z
" style="fill: #ffffff; opacity: 0.8; stroke: #cccccc; stroke-linejoin: miter"/>
    </g>
    <g id="text_10">
     <!-- clf -->
     <g transform="translate(410.522656 202.795313) scale(0.1 -0.1)">
      <use xlink:href="#DejaVuSans-63"/>
      <use xlink:href="#DejaVuSans-6c" transform="translate(54.980469 0)"/>
      <use xlink:href="#DejaVuSans-66" transform="translate(82.763672 0)"/>
     </g>
    </g>
    <g id="patch_24">
     <path d="M 391.842187 217.473438 
L 411.842187 217.473438 
L 411.842187 210.473438 
L 391.842187 210.473438 
z
" style="fill: #96cac1; stroke: #626262; stroke-linejoin: miter"/>
    </g>
    <g id="text_11">
     <!-- fkdc -->
     <g transform="translate(419.842187 217.473438) scale(0.1 -0.1)">
      <defs>
       <path id="DejaVuSans-6b" d="M 581 4863 
L 1159 4863 
L 1159 1991 
L 2875 3500 
L 3609 3500 
L 1753 1863 
L 3688 0 
L 2938 0 
L 1159 1709 
L 1159 0 
L 581 0 
L 581 4863 
z
" transform="scale(0.015625)"/>
       <path id="DejaVuSans-64" d="M 2906 2969 
L 2906 4863 
L 3481 4863 
L 3481 0 
L 2906 0 
L 2906 525 
Q 2725 213 2448 61 
Q 2172 -91 1784 -91 
Q 1150 -91 751 415 
Q 353 922 353 1747 
Q 353 2572 751 3078 
Q 1150 3584 1784 3584 
Q 2172 3584 2448 3432 
Q 2725 3281 2906 2969 
z
M 947 1747 
Q 947 1113 1208 752 
Q 1469 391 1925 391 
Q 2381 391 2643 752 
Q 2906 1113 2906 1747 
Q 2906 2381 2643 2742 
Q 2381 3103 1925 3103 
Q 1469 3103 1208 2742 
Q 947 2381 947 1747 
z
" transform="scale(0.015625)"/>
      </defs>
      <use xlink:href="#DejaVuSans-66"/>
      <use xlink:href="#DejaVuSans-6b" transform="translate(35.205078 0)"/>
      <use xlink:href="#DejaVuSans-64" transform="translate(93.115234 0)"/>
      <use xlink:href="#DejaVuSans-63" transform="translate(156.591797 0)"/>
     </g>
    </g>
    <g id="patch_25">
     <path d="M 391.842187 232.151563 
L 411.842187 232.151563 
L 411.842187 225.151563 
L 391.842187 225.151563 
z
" style="fill: #8aafc9; stroke: #626262; stroke-linejoin: miter"/>
    </g>
    <g id="text_12">
     <!-- fkn -->
     <g transform="translate(419.842187 232.151563) scale(0.1 -0.1)">
      <use xlink:href="#DejaVuSans-66"/>
      <use xlink:href="#DejaVuSans-6b" transform="translate(35.205078 0)"/>
      <use xlink:href="#DejaVuSans-6e" transform="translate(93.115234 0)"/>
     </g>
    </g>
    <g id="patch_26">
     <path d="M 391.842187 246.829688 
L 411.842187 246.829688 
L 411.842187 239.829688 
L 391.842187 239.829688 
z
" style="fill: #d9d9d9; stroke: #626262; stroke-linejoin: miter"/>
    </g>
    <g id="text_13">
     <!-- gbt -->
     <g transform="translate(419.842187 246.829688) scale(0.1 -0.1)">
      <defs>
       <path id="DejaVuSans-67" d="M 2906 1791 
Q 2906 2416 2648 2759 
Q 2391 3103 1925 3103 
Q 1463 3103 1205 2759 
Q 947 2416 947 1791 
Q 947 1169 1205 825 
Q 1463 481 1925 481 
Q 2391 481 2648 825 
Q 2906 1169 2906 1791 
z
M 3481 434 
Q 3481 -459 3084 -895 
Q 2688 -1331 1869 -1331 
Q 1566 -1331 1297 -1286 
Q 1028 -1241 775 -1147 
L 775 -588 
Q 1028 -725 1275 -790 
Q 1522 -856 1778 -856 
Q 2344 -856 2625 -561 
Q 2906 -266 2906 331 
L 2906 616 
Q 2728 306 2450 153 
Q 2172 0 1784 0 
Q 1141 0 747 490 
Q 353 981 353 1791 
Q 353 2603 747 3093 
Q 1141 3584 1784 3584 
Q 2172 3584 2450 3431 
Q 2728 3278 2906 2969 
L 2906 3500 
L 3481 3500 
L 3481 434 
z
" transform="scale(0.015625)"/>
      </defs>
      <use xlink:href="#DejaVuSans-67"/>
      <use xlink:href="#DejaVuSans-62" transform="translate(63.476562 0)"/>
      <use xlink:href="#DejaVuSans-74" transform="translate(126.953125 0)"/>
     </g>
    </g>
    <g id="patch_27">
     <path d="M 391.842187 261.507813 
L 411.842187 261.507813 
L 411.842187 254.507813 
L 391.842187 254.507813 
z
" style="fill: #c1bed6; stroke: #626262; stroke-linejoin: miter"/>
    </g>
    <g id="text_14">
     <!-- gnb -->
     <g transform="translate(419.842187 261.507813) scale(0.1 -0.1)">
      <use xlink:href="#DejaVuSans-67"/>
      <use xlink:href="#DejaVuSans-6e" transform="translate(63.476562 0)"/>
      <use xlink:href="#DejaVuSans-62" transform="translate(126.855469 0)"/>
     </g>
    </g>
    <g id="patch_28">
     <path d="M 391.842187 276.185938 
L 411.842187 276.185938 
L 411.842187 269.185938 
L 391.842187 269.185938 
z
" style="fill: #f6f6bc; stroke: #626262; stroke-linejoin: miter"/>
    </g>
    <g id="text_15">
     <!-- kdc -->
     <g transform="translate(419.842187 276.185938) scale(0.1 -0.1)">
      <use xlink:href="#DejaVuSans-6b"/>
      <use xlink:href="#DejaVuSans-64" transform="translate(57.910156 0)"/>
      <use xlink:href="#DejaVuSans-63" transform="translate(121.386719 0)"/>
     </g>
    </g>
    <g id="patch_29">
     <path d="M 391.842187 290.864063 
L 411.842187 290.864063 
L 411.842187 283.864063 
L 391.842187 283.864063 
z
" style="fill: #ea8e83; stroke: #626262; stroke-linejoin: miter"/>
    </g>
    <g id="text_16">
     <!-- kn -->
     <g transform="translate(419.842187 290.864063) scale(0.1 -0.1)">
      <use xlink:href="#DejaVuSans-6b"/>
      <use xlink:href="#DejaVuSans-6e" transform="translate(57.910156 0)"/>
     </g>
    </g>
    <g id="patch_30">
     <path d="M 391.842187 305.542188 
L 411.842187 305.542188 
L 411.842187 298.542188 
L 391.842187 298.542188 
z
" style="fill: #eab375; stroke: #626262; stroke-linejoin: miter"/>
    </g>
    <g id="text_17">
     <!-- lr -->
     <g transform="translate(419.842187 305.542188) scale(0.1 -0.1)">
      <use xlink:href="#DejaVuSans-6c"/>
      <use xlink:href="#DejaVuSans-72" transform="translate(27.783203 0)"/>
     </g>
    </g>
    <g id="patch_31">
     <path d="M 391.842187 320.220313 
L 411.842187 320.220313 
L 411.842187 313.220313 
L 391.842187 313.220313 
z
" style="fill: #afcf78; stroke: #626262; stroke-linejoin: miter"/>
    </g>
    <g id="text_18">
     <!-- slr -->
     <g transform="translate(419.842187 320.220313) scale(0.1 -0.1)">
      <defs>
       <path id="DejaVuSans-73" d="M 2834 3397 
L 2834 2853 
Q 2591 2978 2328 3040 
Q 2066 3103 1784 3103 
Q 1356 3103 1142 2972 
Q 928 2841 928 2578 
Q 928 2378 1081 2264 
Q 1234 2150 1697 2047 
L 1894 2003 
Q 2506 1872 2764 1633 
Q 3022 1394 3022 966 
Q 3022 478 2636 193 
Q 2250 -91 1575 -91 
Q 1294 -91 989 -36 
Q 684 19 347 128 
L 347 722 
Q 666 556 975 473 
Q 1284 391 1588 391 
Q 1994 391 2212 530 
Q 2431 669 2431 922 
Q 2431 1156 2273 1281 
Q 2116 1406 1581 1522 
L 1381 1569 
Q 847 1681 609 1914 
Q 372 2147 372 2553 
Q 372 3047 722 3315 
Q 1072 3584 1716 3584 
Q 2034 3584 2315 3537 
Q 2597 3491 2834 3397 
z
" transform="scale(0.015625)"/>
      </defs>
      <use xlink:href="#DejaVuSans-73"/>
      <use xlink:href="#DejaVuSans-6c" transform="translate(52.099609 0)"/>
      <use xlink:href="#DejaVuSans-72" transform="translate(79.882812 0)"/>
     </g>
    </g>
   </g>
  </g>
 </g>
 <defs>
  <clipPath id="p6919921405">
   <rect x="47.38125" y="25.918125" width="402.61875" height="305.381875"/>
  </clipPath>
 </defs>
</svg>
