<?xml version="1.0" encoding="utf-8" standalone="no"?>
<!DOCTYPE svg PUBLIC "-//W3C//DTD SVG 1.1//EN"
  "http://www.w3.org/Graphics/SVG/1.1/DTD/svg11.dtd">
<svg xmlns:xlink="http://www.w3.org/1999/xlink" width="460.8pt" height="345.6pt" viewBox="0 0 460.8 345.6" xmlns="http://www.w3.org/2000/svg" version="1.1">
 <metadata>
  <rdf:RDF xmlns:dc="http://purl.org/dc/elements/1.1/" xmlns:cc="http://creativecommons.org/ns#" xmlns:rdf="http://www.w3.org/1999/02/22-rdf-syntax-ns#">
   <cc:Work>
    <dc:type rdf:resource="http://purl.org/dc/dcmitype/StillImage"/>
    <dc:date>2025-07-18T10:31:26.312184</dc:date>
    <dc:format>image/svg+xml</dc:format>
    <dc:creator>
     <cc:Agent>
      <dc:title>Matplotlib v3.10.3, https://matplotlib.org/</dc:title>
     </cc:Agent>
    </dc:creator>
   </cc:Work>
  </rdf:RDF>
 </metadata>
 <defs>
  <style type="text/css">*{stroke-linejoin: round; stroke-linecap: butt}</style>
 </defs>
 <g id="figure_1">
  <g id="patch_1">
   <path d="M 0 345.6 
L 460.8 345.6 
L 460.8 0 
L 0 0 
z
" style="fill: #ffffff"/>
  </g>
  <g id="axes_1">
   <g id="patch_2">
    <path d="M 39.58149 312.24351 
L 368.008565 312.24351 
L 368.008565 18.12024 
L 39.58149 18.12024 
z
" style="fill: #ffffff"/>
   </g>
   <g id="QuadContourSet_1">
    <path d="M 189.079214 264.513691 
L 192.250903 263.222965 
L 189.079214 258.601062 
L 188.53033 263.222965 
z
" clip-path="url(#p82b92376ac)" style="fill: #470d60"/>
    <path d="M 202.669916 312.24351 
L 209.492906 312.24351 
L 202.669916 295.125127 
L 201.13538 312.24351 
z
M 189.079214 267.895308 
L 198.972177 263.222965 
L 189.079214 246.491983 
L 187.028687 263.222965 
z
M 188.53033 263.222965 
L 189.079214 258.601062 
L 192.250903 263.222965 
L 189.079214 264.513691 
z
M 175.488512 218.559094 
L 179.842395 214.20242 
L 175.488512 203.465587 
L 174.21824 214.20242 
z
M 161.897809 166.088267 
L 162.504187 165.181875 
L 161.897809 163.894878 
L 161.764072 165.181875 
z
" clip-path="url(#p82b92376ac)" style="fill: #482475"/>
    <path d="M 202.669916 295.125127 
L 209.492906 312.24351 
L 215.207215 312.24351 
L 206.006259 287.733237 
L 203.984448 263.222965 
L 202.669916 259.175867 
L 192.223555 238.712693 
L 189.079214 233.940938 
L 187.963768 238.712693 
L 185.425008 263.222965 
L 189.079214 271.276925 
L 201.500145 287.733238 
L 199.338846 312.24351 
L 201.13538 312.24351 
z
M 187.028687 263.222965 
L 189.079214 246.491983 
L 198.972177 263.222965 
L 189.079214 267.895308 
z
M 175.488512 223.555538 
L 184.01151 214.20242 
L 175.488512 191.152068 
L 172.67198 214.20242 
z
M 174.21824 214.20242 
L 175.488512 203.465587 
L 179.842395 214.20242 
L 175.488512 218.559094 
z
M 161.897809 176.003862 
L 168.28428 165.181875 
L 161.897809 149.815597 
L 160.249308 165.181875 
z
M 161.764072 165.181875 
L 161.897809 163.894878 
L 162.504187 165.181875 
L 161.897809 166.088267 
z
M 148.307107 118.24427 
L 150.186076 116.16133 
L 148.307107 112.09633 
L 148.016791 116.16133 
z
" clip-path="url(#p82b92376ac)" style="fill: #443983"/>
    <path d="M 201.500145 287.733237 
L 189.079214 271.276925 
L 185.425008 263.222965 
L 187.963768 238.712693 
L 189.079214 233.940938 
L 192.223555 238.712693 
L 202.669916 259.175867 
L 203.984448 263.222965 
L 206.006259 287.733237 
L 215.207215 312.24351 
L 216.260618 312.24351 
L 218.819497 312.24351 
L 216.260618 303.781414 
L 210.664245 287.733237 
L 207.723135 263.222965 
L 202.669916 246.35356 
L 199.286638 238.712693 
L 189.079214 220.595815 
L 187.553733 214.20242 
L 187.587272 189.692148 
L 175.488512 175.521508 
L 172.923929 165.181875 
L 165.16162 140.671603 
L 161.897809 132.286574 
L 159.346287 140.671603 
L 158.630654 165.181875 
L 161.897809 185.919457 
L 166.874559 189.692148 
L 171.017309 214.20242 
L 175.488512 228.551982 
L 184.531521 238.712693 
L 183.704408 263.222965 
L 189.079214 274.658542 
L 199.426998 287.733237 
L 197.394263 312.24351 
L 199.338846 312.24351 
z
M 172.67198 214.20242 
L 175.488512 191.152068 
L 184.01151 214.20242 
L 175.488512 223.555538 
z
M 160.249308 165.181875 
L 161.897809 149.815597 
L 168.28428 165.181875 
L 161.897809 176.003862 
z
M 148.307107 128.689603 
L 157.852308 116.16133 
L 148.307107 91.711544 
L 146.504536 116.16133 
z
M 148.016791 116.16133 
L 148.307107 112.09633 
L 150.186076 116.16133 
L 148.307107 118.24427 
z
" clip-path="url(#p82b92376ac)" style="fill: #3d4d8a"/>
    <path d="M 199.426998 287.733237 
L 189.079214 274.658542 
L 183.704408 263.222965 
L 184.531521 238.712693 
L 175.488512 228.551982 
L 171.017309 214.20242 
L 166.874559 189.692148 
L 161.897809 185.919457 
L 158.630654 165.181875 
L 159.346287 140.671603 
L 161.897809 132.286574 
L 165.16162 140.671603 
L 172.923929 165.181875 
L 175.488512 175.521508 
L 187.587272 189.692148 
L 187.553733 214.20242 
L 189.079214 220.595815 
L 199.286638 238.712693 
L 202.669916 246.35356 
L 207.723135 263.222965 
L 210.664245 287.733237 
L 216.260618 303.781414 
L 218.819497 312.24351 
L 221.713198 312.24351 
L 216.260618 293.03927 
L 214.552939 287.733237 
L 210.949922 263.222965 
L 204.337516 238.712693 
L 202.669916 233.353751 
L 193.507677 214.20242 
L 192.838826 189.692148 
L 189.079214 177.312856 
L 180.417531 165.181875 
L 175.488512 154.849351 
L 172.565288 140.671603 
L 169.615271 116.16133 
L 161.897809 105.8486 
L 158.451399 91.651058 
L 151.774336 67.140785 
L 148.307107 53.651775 
L 145.290405 42.630513 
L 139.139595 18.12024 
L 134.716405 18.12024 
L 132.584891 18.12024 
L 131.623102 42.630513 
L 134.176115 67.140785 
L 134.716405 71.722577 
L 143.181952 91.651058 
L 144.888747 116.16133 
L 148.307107 139.134937 
L 150.046402 140.671603 
L 156.892804 165.181875 
L 159.685308 189.692148 
L 161.897809 193.457321 
L 169.237872 214.20242 
L 175.488512 233.548427 
L 180.514023 238.712693 
L 181.848489 263.222965 
L 189.079214 278.040159 
L 197.154129 287.733237 
L 195.275022 312.24351 
L 197.394263 312.24351 
z
M 146.504536 116.16133 
L 148.307107 91.711544 
L 157.852308 116.16133 
L 148.307107 128.689603 
z
" clip-path="url(#p82b92376ac)" style="fill: #355f8d"/>
    <path d="M 53.172192 312.24351 
L 66.762894 312.24351 
L 80.353596 312.24351 
L 93.944299 312.24351 
L 107.535001 312.24351 
L 121.125703 312.24351 
L 134.716405 312.24351 
L 145.010035 312.24351 
L 134.716405 303.904323 
L 125.43323 287.733237 
L 121.125703 283.315254 
L 107.535001 269.549051 
L 103.151807 263.222965 
L 93.944299 253.733975 
L 86.571579 238.712693 
L 80.353596 231.8849 
L 66.762894 218.372488 
L 64.21276 214.20242 
L 53.172192 201.619023 
L 47.51805 189.692148 
L 39.58149 182.181576 
L 39.58149 189.692148 
L 39.58149 214.20242 
L 39.58149 238.712693 
L 39.58149 263.222965 
L 39.58149 287.733237 
L 39.58149 312.24351 
z
M 197.154129 287.733237 
L 189.079214 278.040159 
L 181.848489 263.222965 
L 180.514023 238.712693 
L 175.488512 233.548427 
L 169.237872 214.20242 
L 161.897809 193.457321 
L 159.685308 189.692148 
L 156.892804 165.181875 
L 150.046402 140.671603 
L 148.307107 139.134937 
L 144.888747 116.16133 
L 143.181952 91.651058 
L 134.716405 71.722577 
L 134.176115 67.140785 
L 131.623102 42.630513 
L 132.584891 18.12024 
L 126.630332 18.12024 
L 127.161303 42.630513 
L 132.175391 67.140785 
L 134.716405 87.804766 
L 136.604096 91.651058 
L 143.154198 116.16133 
L 144.791316 140.671603 
L 148.307107 146.10966 
L 155.016798 165.181875 
L 155.60877 189.692148 
L 161.897809 199.534891 
L 167.313306 214.20242 
L 175.488512 238.544871 
L 175.669809 238.712693 
L 179.834135 263.222965 
L 189.079214 281.421776 
L 194.638915 287.733237 
L 192.946624 312.24351 
L 195.275022 312.24351 
z
M 216.260618 293.03927 
L 221.713198 312.24351 
L 224.290641 312.24351 
L 217.988964 287.733237 
L 216.260618 279.356242 
L 213.788252 263.222965 
L 208.019292 238.712692 
L 202.669916 220.092186 
L 200.210827 214.20242 
L 196.582954 189.692148 
L 189.809868 165.181875 
L 189.079214 162.882833 
L 179.648 140.671603 
L 178.757785 116.16133 
L 175.488512 106.626539 
L 167.496345 91.651058 
L 161.897809 78.452164 
L 159.096219 67.140785 
L 157.030242 42.630513 
L 148.307107 23.108584 
L 147.135472 18.12024 
L 139.139595 18.12024 
L 145.290405 42.630513 
L 148.307107 53.651775 
L 151.774336 67.140785 
L 158.451399 91.651058 
L 161.897809 105.8486 
L 169.615271 116.16133 
L 172.565288 140.671603 
L 175.488512 154.849351 
L 180.417531 165.181875 
L 189.079214 177.312856 
L 192.838826 189.692148 
L 193.507677 214.20242 
L 202.669916 233.353751 
L 204.337516 238.712693 
L 210.949922 263.222965 
L 214.552939 287.733237 
z
M 324.986235 312.24351 
L 338.576938 312.24351 
L 352.16764 312.24351 
L 365.758342 312.24351 
L 379.349044 312.24351 
L 392.939746 312.24351 
L 406.530448 312.24351 
L 420.121151 312.24351 
L 433.711853 312.24351 
L 447.302555 312.24351 
L 460.893257 312.24351 
L 474.483959 312.24351 
L 488.074661 312.24351 
L 501.665364 312.24351 
L 515.256066 312.24351 
L 528.846768 312.24351 
L 542.43747 312.24351 
L 556.028172 312.24351 
L 569.618874 312.24351 
L 583.209577 312.24351 
L 596.800279 312.24351 
L 610.390981 312.24351 
L 623.981683 312.24351 
L 637.572385 312.24351 
L 637.572385 287.733237 
L 637.572385 263.222965 
L 637.572385 238.712693 
L 637.572385 214.20242 
L 637.572385 189.692148 
L 637.572385 165.181875 
L 637.572385 140.671603 
L 637.572385 116.16133 
L 637.572385 91.651058 
L 637.572385 67.140785 
L 637.572385 42.630513 
L 637.572385 18.12024 
L 623.981683 18.12024 
L 610.390981 18.12024 
L 596.800279 18.12024 
L 583.209577 18.12024 
L 569.618874 18.12024 
L 556.028172 18.12024 
L 542.43747 18.12024 
L 528.846768 18.12024 
L 515.256066 18.12024 
L 501.665364 18.12024 
L 488.074661 18.12024 
L 474.483959 18.12024 
L 460.893257 18.12024 
L 447.302555 18.12024 
L 433.711853 18.12024 
L 420.121151 18.12024 
L 406.530448 18.12024 
L 392.939746 18.12024 
L 379.349044 18.12024 
L 365.758342 18.12024 
L 352.16764 18.12024 
L 338.576938 18.12024 
L 324.986235 18.12024 
L 311.395533 18.12024 
L 297.804831 18.12024 
L 284.214129 18.12024 
L 281.931486 18.12024 
L 284.214129 37.03609 
L 285.928051 42.630513 
L 291.599883 67.140785 
L 295.236446 91.651058 
L 297.780866 116.16133 
L 297.804831 116.421946 
L 304.764272 140.671603 
L 308.547331 165.181875 
L 310.880586 189.692148 
L 311.395533 196.834039 
L 316.217348 214.20242 
L 319.239756 238.712693 
L 320.734784 263.222965 
L 321.072608 287.733237 
L 316.862434 312.24351 
z
" clip-path="url(#p82b92376ac)" style="fill: #2d708e"/>
    <path d="M 134.716405 303.904323 
L 145.010035 312.24351 
L 148.307107 312.24351 
L 155.428149 312.24351 
L 148.307107 302.189536 
L 139.322236 287.733237 
L 134.716405 281.36853 
L 123.280463 263.222965 
L 121.125703 260.636675 
L 107.535001 239.667682 
L 107.037508 238.712693 
L 93.944299 221.823734 
L 89.713082 214.20242 
L 80.353596 203.988058 
L 71.577126 189.692148 
L 66.762894 183.962504 
L 55.378186 165.181875 
L 53.172192 162.375795 
L 39.58149 142.060677 
L 39.58149 165.181875 
L 39.58149 182.181576 
L 47.51805 189.692148 
L 53.172192 201.619023 
L 64.21276 214.20242 
L 66.762894 218.372488 
L 80.353596 231.8849 
L 86.571579 238.712693 
L 93.944299 253.733975 
L 103.151807 263.222965 
L 107.535001 269.549051 
L 121.125703 283.315254 
L 125.43323 287.733237 
z
M 194.638915 287.733237 
L 189.079214 281.421776 
L 179.834135 263.222965 
L 175.669809 238.712693 
L 175.488512 238.544871 
L 167.313306 214.20242 
L 161.897809 199.534891 
L 155.60877 189.692148 
L 155.016798 165.181875 
L 148.307107 146.10966 
L 144.791316 140.671603 
L 143.154198 116.16133 
L 136.604096 91.651058 
L 134.716405 87.804766 
L 132.175391 67.140785 
L 127.161303 42.630513 
L 126.630332 18.12024 
L 121.125703 18.12024 
L 120.418743 18.12024 
L 121.125703 36.874263 
L 121.655094 42.630513 
L 129.989289 67.140785 
L 131.084578 91.651058 
L 134.716405 96.687554 
L 141.282039 116.16133 
L 139.86664 140.671603 
L 148.307107 152.485734 
L 152.978756 165.181875 
L 150.678361 189.692148 
L 161.897809 205.612461 
L 165.21782 214.20242 
L 164.933469 238.712693 
L 175.488512 251.489026 
L 177.631749 263.222965 
L 189.079214 284.803393 
L 191.82344 287.733237 
L 190.363219 312.24351 
L 192.946624 312.24351 
z
M 221.071937 287.733237 
L 216.349475 263.222965 
L 216.260618 262.898612 
L 211.203617 238.712693 
L 204.815262 214.20242 
L 202.669916 205.476227 
L 199.81379 189.692148 
L 193.912358 165.181875 
L 189.079214 148.565439 
L 186.140394 140.671603 
L 182.924884 116.16133 
L 175.488512 92.393218 
L 175.150093 91.651058 
L 166.194221 67.140785 
L 164.409606 42.630513 
L 161.897809 35.543351 
L 154.81362 18.12024 
L 148.307107 18.12024 
L 147.135472 18.12024 
L 148.307107 23.108584 
L 157.030242 42.630513 
L 159.096219 67.140785 
L 161.897809 78.452164 
L 167.496345 91.651058 
L 175.488512 106.626539 
L 178.757785 116.16133 
L 179.648 140.671603 
L 189.079214 162.882833 
L 189.809868 165.181875 
L 196.582954 189.692148 
L 200.210827 214.20242 
L 202.669916 220.092186 
L 208.019292 238.712693 
L 213.788252 263.222965 
L 216.260618 279.356242 
L 217.988964 287.733237 
L 224.290641 312.24351 
L 226.614195 312.24351 
z
M 311.395533 312.24351 
L 316.862434 312.24351 
L 321.072608 287.733237 
L 320.734784 263.222965 
L 319.239756 238.712693 
L 316.217348 214.20242 
L 311.395533 196.834039 
L 310.880586 189.692148 
L 308.547331 165.181875 
L 304.764272 140.671603 
L 297.804831 116.421946 
L 297.780866 116.16133 
L 295.236446 91.651058 
L 291.599883 67.140785 
L 285.928051 42.630513 
L 284.214129 37.03609 
L 281.931486 18.12024 
L 270.623427 18.12024 
L 269.998459 18.12024 
L 270.623427 22.419735 
L 275.798891 42.630513 
L 280.158742 67.140785 
L 283.232876 91.651058 
L 284.214129 100.718554 
L 288.060001 116.16133 
L 292.495029 140.671603 
L 295.444469 165.181875 
L 297.486562 189.692148 
L 297.804831 194.006993 
L 302.231535 214.20242 
L 305.43791 238.712693 
L 307.158996 263.222965 
L 307.610023 287.733237 
L 306.303112 312.24351 
z
M 121.125703 142.276231 
L 124.705029 140.671603 
L 121.125703 131.592971 
L 120.375398 140.671603 
z
M 93.944299 68.414035 
L 98.291177 67.140785 
L 93.944299 57.945089 
L 93.350508 67.140785 
z
" clip-path="url(#p82b92376ac)" style="fill: #27808e"/>
    <path d="M 148.307107 302.189536 
L 155.428149 312.24351 
L 161.49785 312.24351 
L 148.307107 290.869878 
L 146.627308 287.733237 
L 134.716405 268.346231 
L 132.007585 263.222965 
L 121.125703 247.376357 
L 116.532352 238.712693 
L 107.535001 224.607508 
L 101.532302 214.20242 
L 93.944299 202.264962 
L 84.610577 189.692148 
L 80.353596 183.469579 
L 66.762894 165.513365 
L 66.602923 165.181875 
L 53.172192 143.227723 
L 51.880661 140.671603 
L 39.58149 120.661568 
L 39.58149 140.671603 
L 39.58149 142.060677 
L 53.172192 162.375795 
L 55.378186 165.181875 
L 66.762894 183.962504 
L 71.577126 189.692148 
L 80.353596 203.988058 
L 89.713082 214.20242 
L 93.944299 221.823734 
L 107.037508 238.712693 
L 107.535001 239.667682 
L 121.125703 260.636675 
L 123.280463 263.222965 
L 134.716405 281.36853 
L 139.322236 287.733237 
z
M 189.079214 312.24351 
L 190.363219 312.24351 
L 191.82344 287.733237 
L 189.079214 284.803393 
L 177.631749 263.222965 
L 175.488512 251.489026 
L 164.933469 238.712693 
L 165.21782 214.20242 
L 161.897809 205.612461 
L 150.678361 189.692148 
L 152.978756 165.181875 
L 148.307107 152.485734 
L 139.86664 140.671603 
L 141.282039 116.16133 
L 134.716405 96.687554 
L 131.084578 91.651058 
L 129.989289 67.140785 
L 121.655094 42.630513 
L 121.125703 36.874263 
L 120.418743 18.12024 
L 117.65368 18.12024 
L 117.579895 42.630513 
L 121.125703 49.773136 
L 127.579919 67.140785 
L 125.261944 91.651058 
L 134.716405 103.307246 
L 139.248538 116.16133 
L 134.716405 138.859802 
L 125.188207 116.16133 
L 121.125703 103.4657 
L 117.735373 116.16133 
L 116.719315 140.671603 
L 121.125703 149.40543 
L 131.74432 165.181875 
L 134.716405 171.092486 
L 141.841142 165.181875 
L 148.307107 158.861808 
L 150.748019 165.181875 
L 148.307107 180.560856 
L 146.304723 189.692148 
L 148.307107 196.442389 
L 161.897809 211.690031 
L 162.91807 214.20242 
L 161.897809 222.600158 
L 158.014836 238.712693 
L 161.897809 245.581786 
L 174.941716 263.222965 
L 175.488512 265.239384 
L 188.062997 287.733237 
L 187.319396 312.24351 
z
M 120.375398 140.671603 
L 121.125703 131.592971 
L 124.705029 140.671603 
L 121.125703 142.276231 
z
M 223.798431 287.733237 
L 219.607353 263.222965 
L 216.260618 250.122846 
L 214.009054 238.712693 
L 208.243152 214.20242 
L 202.669916 189.778162 
L 202.655252 189.692148 
L 197.406404 165.181875 
L 191.066683 140.671603 
L 189.079214 132.141693 
L 186.465654 116.16133 
L 179.927215 91.651058 
L 175.488512 75.924752 
L 172.666851 67.140785 
L 168.862079 42.630513 
L 161.897809 20.96926 
L 160.875217 18.12024 
L 154.81362 18.12024 
L 161.897809 35.543351 
L 164.409606 42.630513 
L 166.194221 67.140785 
L 175.150093 91.651058 
L 175.488512 92.393218 
L 182.924884 116.16133 
L 186.140394 140.671603 
L 189.079214 148.565439 
L 193.912358 165.181875 
L 199.81379 189.692148 
L 202.669916 205.476227 
L 204.815262 214.20242 
L 211.203617 238.712693 
L 216.260618 262.898612 
L 216.349475 263.222965 
L 221.071937 287.733237 
L 226.614195 312.24351 
L 228.729424 312.24351 
z
M 307.610023 287.733237 
L 307.158996 263.222965 
L 305.43791 238.712693 
L 302.231535 214.20242 
L 297.804831 194.006993 
L 297.486562 189.692148 
L 295.444469 165.181875 
L 292.495029 140.671603 
L 288.060001 116.16133 
L 284.214129 100.718554 
L 283.232876 91.651058 
L 280.158742 67.140785 
L 275.798891 42.630513 
L 270.623427 22.419735 
L 269.998459 18.12024 
L 261.728655 18.12024 
L 266.759932 42.630513 
L 270.623427 66.276573 
L 270.863314 67.140785 
L 276.599563 91.651058 
L 280.495324 116.16133 
L 283.510488 140.671603 
L 284.214129 146.729407 
L 288.433721 165.181875 
L 292.227942 189.692148 
L 294.849538 214.20242 
L 296.746173 238.712693 
L 297.804831 258.247969 
L 298.560306 263.222965 
L 300.023699 287.733237 
L 298.358923 312.24351 
L 306.303112 312.24351 
z
M 107.535001 100.690681 
L 116.429675 91.651058 
L 110.408904 67.140785 
L 107.535001 62.608686 
L 98.240316 42.630513 
L 93.944299 28.974699 
L 90.481518 42.630513 
L 90.046692 67.140785 
L 93.944299 74.942192 
L 104.885549 91.651058 
z
M 93.350508 67.140785 
L 93.944299 57.945089 
L 98.291177 67.140785 
L 93.944299 68.414035 
z
M 80.353596 26.814607 
L 89.454468 18.12024 
L 80.353596 18.12024 
L 75.944732 18.12024 
z
" clip-path="url(#p82b92376ac)" style="fill: #21918c"/>
    <path d="M 148.307107 290.869878 
L 161.49785 312.24351 
L 161.897809 312.24351 
L 167.50154 312.24351 
L 161.897809 303.013097 
L 153.569024 287.733237 
L 148.307107 278.84551 
L 140.012546 263.222965 
L 134.716405 254.49778 
L 125.169673 238.712693 
L 121.125703 232.708896 
L 111.153504 214.20242 
L 107.535001 208.87274 
L 97.635619 189.692148 
L 93.944299 184.120209 
L 84.199736 165.181875 
L 80.353596 159.609937 
L 69.415449 140.671603 
L 66.762894 136.926912 
L 54.626044 116.16133 
L 53.172192 114.161067 
L 39.58149 92.520604 
L 39.58149 116.16133 
L 39.58149 120.661568 
L 51.880661 140.671603 
L 53.172192 143.227723 
L 66.602923 165.181875 
L 66.762894 165.513365 
L 80.353596 183.469579 
L 84.610577 189.692148 
L 93.944299 202.264962 
L 101.532302 214.20242 
L 107.535001 224.607508 
L 116.532352 238.712693 
L 121.125703 247.376357 
L 132.007585 263.222965 
L 134.716405 268.346231 
L 146.627308 287.733237 
z
M 188.062997 287.733237 
L 175.488512 265.239384 
L 174.941716 263.222965 
L 161.897809 245.581786 
L 158.014836 238.712693 
L 161.897809 222.600158 
L 162.91807 214.20242 
L 161.897809 211.690031 
L 148.307107 196.442389 
L 146.304723 189.692148 
L 148.307107 180.560856 
L 150.748019 165.181875 
L 148.307107 158.861808 
L 141.841142 165.181875 
L 134.716405 171.092486 
L 131.74432 165.181875 
L 121.125703 149.40543 
L 116.719315 140.671603 
L 117.735373 116.16133 
L 121.125703 103.4657 
L 125.188207 116.16133 
L 134.716405 138.859802 
L 139.248538 116.16133 
L 134.716405 103.307246 
L 125.261944 91.651058 
L 127.579919 67.140785 
L 121.125703 49.773136 
L 117.579895 42.630513 
L 117.65368 18.12024 
L 114.521286 18.12024 
L 112.981036 42.630513 
L 107.535001 52.404793 
L 103.440592 42.630513 
L 97.426918 18.12024 
L 93.944299 18.12024 
L 89.454468 18.12024 
L 80.353596 26.814607 
L 75.944732 18.12024 
L 69.136603 18.12024 
L 80.353596 37.422862 
L 84.188834 42.630513 
L 86.204145 67.140785 
L 93.944299 81.470349 
L 101.189764 91.651058 
L 107.535001 111.720193 
L 110.939862 116.16133 
L 112.391447 140.671603 
L 107.535001 156.031075 
L 103.496085 165.181875 
L 107.535001 173.667896 
L 112.670347 165.181875 
L 121.125703 156.534629 
L 127.524189 165.181875 
L 134.716405 178.304198 
L 142.456746 189.692148 
L 148.307107 207.911937 
L 155.843762 214.20242 
L 151.985271 238.712693 
L 161.897809 254.242248 
L 169.424551 263.222965 
L 175.488512 283.173364 
L 178.63545 287.733237 
L 183.683813 312.24351 
L 187.319396 312.24351 
z
M 130.570225 116.16133 
L 134.716405 109.926939 
L 137.02324 116.16133 
L 134.716405 127.170372 
z
M 104.885549 91.651058 
L 93.944299 74.942192 
L 90.046692 67.140785 
L 90.481518 42.630513 
L 93.944299 28.974699 
L 98.240316 42.630513 
L 107.535001 62.608686 
L 110.408904 67.140785 
L 116.429675 91.651058 
L 107.535001 100.690681 
z
M 115.828585 67.140785 
L 121.125703 57.574322 
L 124.89643 67.140785 
L 121.125703 85.338003 
z
M 229.85132 312.24351 
L 231.487271 312.24351 
L 229.85132 307.227844 
L 226.242406 287.733237 
L 222.469704 263.222965 
L 216.707366 238.712693 
L 216.260618 237.464533 
L 211.235861 214.20242 
L 206.437744 189.692148 
L 202.669916 176.224939 
L 200.449392 165.181875 
L 194.973383 140.671603 
L 189.816543 116.16133 
L 189.079214 113.963164 
L 183.851282 91.651058 
L 177.857697 67.140785 
L 175.488512 58.633571 
L 172.606614 42.630513 
L 166.358171 18.12024 
L 161.897809 18.12024 
L 160.875217 18.12024 
L 161.897809 20.96926 
L 168.862079 42.630513 
L 172.666851 67.140785 
L 175.488512 75.924752 
L 179.927215 91.651058 
L 186.465654 116.16133 
L 189.079214 132.141693 
L 191.066683 140.671603 
L 197.406404 165.181875 
L 202.655252 189.692148 
L 202.669916 189.778162 
L 208.243152 214.20242 
L 214.009054 238.712692 
L 216.260618 250.122846 
L 219.607353 263.222965 
L 223.798431 287.733237 
L 228.729424 312.24351 
z
M 297.804831 312.24351 
L 298.358923 312.24351 
L 300.023699 287.733237 
L 298.560306 263.222965 
L 297.804831 258.247969 
L 296.746173 238.712693 
L 294.849538 214.20242 
L 292.227942 189.692148 
L 288.433721 165.181875 
L 284.214129 146.729407 
L 283.510488 140.671603 
L 280.495324 116.16133 
L 276.599563 91.651058 
L 270.863314 67.140785 
L 270.623427 66.276573 
L 266.759932 42.630513 
L 261.728655 18.12024 
L 257.032725 18.12024 
L 254.140896 18.12024 
L 257.032725 39.325308 
L 257.995013 42.630513 
L 263.974263 67.140785 
L 268.711324 91.651058 
L 270.623427 102.186383 
L 273.953647 116.16133 
L 278.39904 140.671603 
L 281.861391 165.181875 
L 284.214129 184.155753 
L 285.452046 189.692148 
L 289.711914 214.20242 
L 292.546856 238.712692 
L 294.462475 263.222965 
L 295.420242 287.733237 
L 295.322602 312.24351 
z
M 121.125703 194.164798 
L 123.421539 189.692148 
L 121.125703 185.664489 
L 119.114244 189.692148 
z
M 53.172192 44.618677 
L 55.843315 42.630513 
L 53.172192 38.758611 
L 52.293837 42.630513 
z
M 44.601469 18.12024 
L 39.58149 18.12024 
L 39.58149 22.4138 
z
" clip-path="url(#p82b92376ac)" style="fill: #1fa188"/>
    <path d="M 161.897809 303.013097 
L 167.50154 312.24351 
L 172.360353 312.24351 
L 175.488512 299.85883 
L 179.384662 312.24351 
L 183.683813 312.24351 
L 178.63545 287.733237 
L 175.488512 283.173364 
L 169.424551 263.222965 
L 161.897809 254.242248 
L 151.985271 238.712693 
L 155.843762 214.20242 
L 148.307107 207.911937 
L 142.456746 189.692148 
L 134.716405 178.304198 
L 127.524189 165.181875 
L 121.125703 156.534629 
L 112.670347 165.181875 
L 107.535001 173.667896 
L 103.496085 165.181875 
L 107.535001 156.031075 
L 112.391447 140.671603 
L 110.939862 116.16133 
L 107.535001 111.720193 
L 101.189764 91.651058 
L 93.944299 81.470349 
L 86.204145 67.140785 
L 84.188834 42.630513 
L 80.353596 37.422862 
L 69.136603 18.12024 
L 66.762894 18.12024 
L 53.172192 18.12024 
L 44.601469 18.12024 
L 39.58149 22.4138 
L 39.58149 33.03066 
L 46.468808 42.630513 
L 53.172192 56.087061 
L 61.006852 67.140785 
L 66.762894 78.901114 
L 75.437915 91.651058 
L 80.353596 102.010453 
L 89.134306 91.651058 
L 93.944299 87.998505 
L 96.806105 91.651058 
L 93.944299 106.489551 
L 91.119021 116.16133 
L 93.944299 121.591163 
L 106.950216 140.671603 
L 93.944299 164.840233 
L 80.608338 140.671603 
L 80.353596 140.256097 
L 67.072352 116.16133 
L 66.762894 115.734284 
L 53.490187 91.651058 
L 53.172192 91.198891 
L 39.918058 67.140785 
L 39.58149 66.659382 
L 39.58149 67.140785 
L 39.58149 91.651058 
L 39.58149 92.520604 
L 53.172192 114.161067 
L 54.626044 116.16133 
L 66.762894 136.926912 
L 69.415449 140.671603 
L 80.353596 159.609937 
L 84.199736 165.181875 
L 93.944299 184.120209 
L 97.635619 189.692148 
L 107.535001 208.87274 
L 111.153504 214.20242 
L 121.125703 232.708896 
L 125.169673 238.712693 
L 134.716405 254.49778 
L 140.012546 263.222965 
L 148.307107 278.84551 
L 153.569024 287.733237 
z
M 159.330077 287.733237 
L 148.307107 266.551019 
L 146.768057 263.222965 
L 148.307107 254.660622 
L 161.897809 262.90271 
L 162.211835 263.222965 
L 168.516051 287.733237 
L 161.897809 293.030346 
z
M 134.009075 238.712693 
L 134.716405 236.416915 
L 137.51797 238.712693 
L 134.716405 240.113492 
z
M 120.598212 214.20242 
L 121.125703 212.917361 
L 122.339622 214.20242 
L 121.125703 215.389283 
z
M 107.224607 189.692148 
L 107.535001 189.081061 
L 108.098196 189.692148 
L 107.535001 190.423602 
z
M 119.114244 189.692148 
L 121.125703 185.664489 
L 123.421539 189.692148 
L 121.125703 194.164798 
z
M 131.170955 189.692148 
L 134.716405 185.51591 
L 137.857114 189.692148 
L 134.716405 199.021485 
z
M 119.843886 165.181875 
L 121.125703 163.663828 
L 122.3819 165.181875 
L 121.125703 168.777653 
z
M 78.143157 67.140785 
L 80.353596 59.247754 
L 81.612277 67.140785 
L 80.353596 73.004179 
z
M 52.293837 42.630513 
L 53.172192 38.758611 
L 55.843315 42.630513 
L 53.172192 44.618677 
z
M 229.85132 307.227844 
L 231.487271 312.24351 
L 234.887934 312.24351 
L 229.85132 295.620452 
L 228.456953 287.733237 
L 225.022252 263.222965 
L 220.522077 238.712693 
L 216.260618 225.787581 
L 213.891538 214.20242 
L 209.702917 189.692148 
L 203.605713 165.181875 
L 202.669916 162.539942 
L 198.324485 140.671603 
L 193.979223 116.16133 
L 189.079214 100.178862 
L 187.215146 91.651058 
L 182.21917 67.140785 
L 176.176027 42.630513 
L 175.488512 40.500997 
L 170.93613 18.12024 
L 166.358171 18.12024 
L 172.606614 42.630513 
L 175.488512 58.633571 
L 177.857697 67.140785 
L 183.851282 91.651058 
L 189.079214 113.963164 
L 189.816543 116.16133 
L 194.973383 140.671603 
L 200.449392 165.181875 
L 202.669916 176.224939 
L 206.437744 189.692148 
L 211.235861 214.20242 
L 216.260618 237.464533 
L 216.707366 238.712693 
L 222.469704 263.222965 
L 226.242406 287.733237 
z
M 295.420242 287.733237 
L 294.462475 263.222965 
L 292.546856 238.712693 
L 289.711914 214.20242 
L 285.452046 189.692148 
L 284.214129 184.155753 
L 281.861391 165.181875 
L 278.39904 140.671603 
L 273.953647 116.16133 
L 270.623427 102.186383 
L 268.711324 91.651058 
L 263.974263 67.140785 
L 257.995013 42.630513 
L 257.032725 39.325308 
L 254.140896 18.12024 
L 248.012986 18.12024 
L 251.996705 42.630513 
L 255.749788 67.140785 
L 257.032725 75.672694 
L 261.230511 91.651058 
L 266.65697 116.16133 
L 270.623427 135.406516 
L 271.866147 140.671603 
L 276.623314 165.181875 
L 280.370266 189.692148 
L 283.595915 214.20242 
L 284.214129 219.499185 
L 287.435478 238.712693 
L 290.238431 263.222965 
L 291.88035 287.733237 
L 292.366494 312.24351 
L 295.322602 312.24351 
z
M 134.716405 127.170372 
L 137.02324 116.16133 
L 134.716405 109.926939 
L 130.570225 116.16133 
z
M 121.125703 85.338003 
L 124.89643 67.140785 
L 121.125703 57.574322 
L 115.828585 67.140785 
z
M 120.233483 67.140785 
L 121.125703 65.375509 
L 121.868347 67.140785 
L 121.125703 70.498674 
z
M 107.535001 52.404793 
L 112.981036 42.630513 
L 114.521286 18.12024 
L 110.908792 18.12024 
L 107.535001 41.412845 
L 103.548478 18.12024 
L 97.426918 18.12024 
L 103.440592 42.630513 
z
" clip-path="url(#p82b92376ac)" style="fill: #2ab07f"/>
    <path d="M 161.897809 293.030346 
L 168.516051 287.733237 
L 162.211835 263.222965 
L 161.897809 262.90271 
L 148.307107 254.660622 
L 146.768057 263.222965 
L 148.307107 266.551019 
L 159.330077 287.733237 
z
M 175.488512 312.24351 
L 179.384662 312.24351 
L 175.488512 299.85883 
L 172.360353 312.24351 
z
M 229.85132 295.620452 
L 234.887934 312.24351 
L 237.859877 312.24351 
L 231.630328 287.733237 
L 229.85132 282.61648 
L 227.325559 263.222965 
L 223.805304 238.712693 
L 216.310912 214.20242 
L 216.260618 214.072819 
L 212.570895 189.692148 
L 208.118529 165.181875 
L 202.669916 148.22025 
L 201.258521 140.671603 
L 197.516805 116.16133 
L 191.473598 91.651058 
L 189.079214 84.879724 
L 185.899185 67.140785 
L 181.444407 42.630513 
L 175.488512 21.951178 
L 174.768942 18.12024 
L 170.93613 18.12024 
L 175.488512 40.500997 
L 176.176027 42.630513 
L 182.21917 67.140785 
L 187.215146 91.651058 
L 189.079214 100.178862 
L 193.979223 116.16133 
L 198.324485 140.671603 
L 202.669916 162.539942 
L 203.605713 165.181875 
L 209.702917 189.692148 
L 213.891538 214.20242 
L 216.260618 225.787581 
L 220.522077 238.712693 
L 225.022252 263.222965 
L 228.456953 287.733238 
z
M 291.88035 287.733237 
L 290.238431 263.222965 
L 287.435478 238.712693 
L 284.214129 219.499185 
L 283.595915 214.20242 
L 280.370266 189.692148 
L 276.623314 165.181875 
L 271.866147 140.671603 
L 270.623427 135.406516 
L 266.65697 116.16133 
L 261.230511 91.651058 
L 257.032725 75.672694 
L 255.749788 67.140785 
L 251.996705 42.630513 
L 248.012986 18.12024 
L 243.442022 18.12024 
L 240.483862 18.12024 
L 243.442022 35.5539 
L 244.857578 42.630513 
L 249.29049 67.140785 
L 253.441803 91.651058 
L 257.032725 113.248327 
L 257.856859 116.16133 
L 264.071555 140.671603 
L 269.867731 165.181875 
L 270.623427 168.490213 
L 274.837338 189.692148 
L 278.841719 214.20242 
L 282.163281 238.712693 
L 284.214129 257.329661 
L 285.090325 263.222965 
L 287.714466 287.733237 
L 288.986557 312.24351 
L 292.366494 312.24351 
z
M 134.716405 240.113492 
L 137.51797 238.712693 
L 134.716405 236.416915 
L 134.009075 238.712693 
z
M 121.125703 215.389283 
L 122.339622 214.20242 
L 121.125703 212.917361 
L 120.598212 214.20242 
z
M 107.535001 190.423602 
L 108.098196 189.692148 
L 107.535001 189.081061 
L 107.224607 189.692148 
z
M 134.716405 199.021485 
L 137.857114 189.692148 
L 134.716405 185.51591 
L 131.170955 189.692147 
z
M 121.125703 168.777653 
L 122.3819 165.181875 
L 121.125703 163.663828 
L 119.843886 165.181875 
z
M 93.944299 164.840233 
L 106.950216 140.671603 
L 93.944299 121.591163 
L 91.119021 116.16133 
L 93.944299 106.489551 
L 96.806105 91.651058 
L 93.944299 87.998505 
L 89.134306 91.651058 
L 80.353596 102.010453 
L 75.437915 91.651058 
L 66.762894 78.901114 
L 61.006852 67.140785 
L 53.172192 56.087061 
L 46.468808 42.630513 
L 39.58149 33.03066 
L 39.58149 42.630513 
L 39.58149 66.659382 
L 39.918058 67.140785 
L 53.172192 91.198891 
L 53.490187 91.651058 
L 66.762894 115.734284 
L 67.072352 116.16133 
L 80.353596 140.256097 
L 80.608338 140.671603 
z
M 91.592747 140.671603 
L 93.944299 136.480112 
L 97.477123 140.671603 
L 93.944299 145.98084 
z
M 79.860325 116.16133 
L 80.353596 115.481275 
L 81.000146 116.16133 
L 80.353596 117.319262 
z
M 66.547193 91.651058 
L 66.762894 91.381414 
L 66.983568 91.651058 
L 66.762894 92.160385 
z
M 80.353596 73.004179 
L 81.612277 67.140785 
L 80.353596 59.247754 
L 78.143157 67.140785 
z
M 121.125703 70.498674 
L 121.868347 67.140785 
L 121.125703 65.375509 
L 120.233483 67.140785 
z
M 107.535001 41.412845 
L 110.908792 18.12024 
L 107.535001 18.12024 
L 103.548478 18.12024 
z
" clip-path="url(#p82b92376ac)" style="fill: #44bf70"/>
    <path d="M 236.449892 287.733237 
L 229.85132 266.651593 
L 229.423996 263.222965 
L 226.687197 238.712693 
L 221.967087 214.20242 
L 216.260618 197.585933 
L 215.127917 189.692148 
L 211.905614 165.181875 
L 206.215362 140.671603 
L 202.669916 131.216253 
L 200.592745 116.16133 
L 196.796728 91.651058 
L 189.090365 67.140785 
L 189.079214 67.113828 
L 185.748974 42.630513 
L 181.496903 18.12024 
L 175.488512 18.12024 
L 174.768942 18.12024 
L 175.488512 21.951178 
L 181.444407 42.630513 
L 185.899185 67.140785 
L 189.079214 84.879724 
L 191.473598 91.651058 
L 197.516805 116.16133 
L 201.258521 140.671603 
L 202.669916 148.22025 
L 208.118529 165.181875 
L 212.570895 189.692148 
L 216.260618 214.072819 
L 216.310912 214.20242 
L 223.805304 238.712693 
L 227.325559 263.222965 
L 229.85132 282.61648 
L 231.630328 287.733237 
L 237.859877 312.24351 
L 240.499195 312.24351 
z
M 284.214129 302.486949 
L 285.040585 312.24351 
L 288.986557 312.24351 
L 287.714466 287.733237 
L 285.090325 263.222965 
L 284.214129 257.329661 
L 282.163281 238.712693 
L 278.841719 214.20242 
L 274.837338 189.692148 
L 270.623427 168.490213 
L 269.867731 165.181875 
L 264.071555 140.671603 
L 257.856859 116.16133 
L 257.032725 113.248327 
L 253.441803 91.651058 
L 249.29049 67.140785 
L 244.857578 42.630513 
L 243.442022 35.5539 
L 240.483862 18.12024 
L 231.073182 18.12024 
L 235.851134 42.630513 
L 240.601864 67.140785 
L 243.442022 82.400738 
L 245.297647 91.651058 
L 249.976205 116.16133 
L 254.55057 140.671603 
L 257.032725 154.614346 
L 260.173036 165.181875 
L 267.046102 189.692148 
L 270.623427 203.056305 
L 272.882418 214.20242 
L 277.126226 238.712693 
L 280.485096 263.222965 
L 283.061378 287.733237 
z
M 93.944299 145.98084 
L 97.477123 140.671603 
L 93.944299 136.480112 
L 91.592747 140.671603 
z
M 80.353596 117.319262 
L 81.000146 116.16133 
L 80.353596 115.481275 
L 79.860325 116.16133 
z
M 66.762894 92.160385 
L 66.983568 91.651058 
L 66.762894 91.381414 
L 66.547193 91.651058 
z
" clip-path="url(#p82b92376ac)" style="fill: #67cc5c"/>
    <path d="M 240.45044 287.733237 
L 236.078678 263.222965 
L 229.85132 244.596956 
L 229.255271 238.712693 
L 226.526689 214.20242 
L 221.486937 189.692148 
L 216.260618 175.306841 
L 215.168368 165.181875 
L 212.316677 140.671603 
L 206.338351 116.16133 
L 202.669916 106.789939 
L 201.137725 91.651058 
L 198.216144 67.140785 
L 191.204836 42.630513 
L 189.079214 37.420855 
L 187.383524 18.12024 
L 181.496903 18.12024 
L 185.748974 42.630513 
L 189.079214 67.113828 
L 189.090365 67.140785 
L 196.796728 91.651058 
L 200.592745 116.16133 
L 202.669916 131.216253 
L 206.215362 140.671603 
L 211.905614 165.181875 
L 215.127917 189.692148 
L 216.260618 197.585933 
L 221.967087 214.20242 
L 226.687197 238.712693 
L 229.423996 263.222965 
L 229.85132 266.651593 
L 236.449892 287.733237 
L 240.499195 312.24351 
L 242.872905 312.24351 
z
M 284.214129 312.24351 
L 285.040585 312.24351 
L 284.214129 302.486949 
L 283.061378 287.733237 
L 280.485096 263.222965 
L 277.126226 238.712693 
L 272.882418 214.20242 
L 270.623427 203.056305 
L 267.046102 189.692148 
L 260.173036 165.181875 
L 257.032725 154.614346 
L 254.55057 140.671603 
L 249.976205 116.16133 
L 245.297647 91.651058 
L 243.442022 82.400738 
L 240.601864 67.140785 
L 235.851134 42.630513 
L 231.073182 18.12024 
L 229.85132 18.12024 
L 216.260618 18.12024 
L 216.100609 18.12024 
L 216.260618 18.802343 
L 222.12379 42.630513 
L 227.804907 67.140785 
L 229.85132 76.125701 
L 233.593997 91.651058 
L 239.144055 116.16133 
L 243.442022 135.512397 
L 244.648761 140.671603 
L 250.087163 165.181875 
L 255.181132 189.692148 
L 257.032725 198.289881 
L 262.661545 214.20242 
L 270.623427 238.276535 
L 270.714652 238.712693 
L 275.18178 263.222965 
L 278.519999 287.733237 
L 280.877084 312.24351 
z
" clip-path="url(#p82b92376ac)" style="fill: #90d743"/>
    <path d="M 243.442022 312.24351 
L 252.47624 312.24351 
L 247.231866 287.733237 
L 243.442022 278.97054 
L 242.186634 263.222965 
L 239.928603 238.712693 
L 236.020958 214.20242 
L 229.85132 200.838641 
L 229.108122 189.692148 
L 228.505051 165.181875 
L 229.85132 153.975303 
L 232.732693 165.181875 
L 239.456192 189.692148 
L 243.442022 195.139569 
L 247.774726 214.20242 
L 253.801002 238.712692 
L 257.032725 248.027915 
L 263.928435 263.222965 
L 270.623427 274.764464 
L 272.891886 287.733237 
L 275.982846 312.24351 
L 280.877084 312.24351 
L 278.519999 287.733237 
L 275.18178 263.222965 
L 270.714652 238.712693 
L 270.623427 238.276535 
L 262.661545 214.20242 
L 257.032725 198.289881 
L 255.181132 189.692148 
L 250.087163 165.181875 
L 244.648761 140.671603 
L 243.442022 135.512397 
L 239.144055 116.16133 
L 233.593997 91.651058 
L 229.85132 76.125701 
L 227.804907 67.140785 
L 222.12379 42.630513 
L 216.260618 18.802343 
L 216.100609 18.12024 
L 202.669916 18.12024 
L 189.079214 18.12024 
L 187.383524 18.12024 
L 189.079214 37.420855 
L 191.204836 42.630513 
L 198.216144 67.140785 
L 201.137725 91.651058 
L 202.669916 106.789939 
L 206.338351 116.16133 
L 212.316677 140.671603 
L 215.168368 165.181875 
L 216.260618 175.306841 
L 221.486937 189.692148 
L 226.526689 214.20242 
L 229.255271 238.712693 
L 229.85132 244.596956 
L 236.078678 263.222965 
L 240.45044 287.733237 
L 242.872905 312.24351 
z
" clip-path="url(#p82b92376ac)" style="fill: #bddf26"/>
    <path d="M 257.032725 312.24351 
L 270.623427 312.24351 
L 275.982846 312.24351 
L 272.891886 287.733237 
L 270.623427 274.764464 
L 263.928435 263.222965 
L 257.032725 248.027915 
L 253.801002 238.712693 
L 247.774726 214.20242 
L 243.442022 195.139569 
L 239.456192 189.692148 
L 232.732693 165.181875 
L 229.85132 153.975303 
L 228.505051 165.181875 
L 229.108122 189.692148 
L 229.85132 200.838641 
L 236.020958 214.20242 
L 239.928603 238.712693 
L 242.186634 263.222965 
L 243.442022 278.97054 
L 247.231866 287.733237 
L 252.47624 312.24351 
z
" clip-path="url(#p82b92376ac)" style="fill: #eae51a"/>
   </g>
   <g id="PathCollection_1">
    <defs>
     <path id="mb73d4f2179" d="M -3 3 
L 3 -3 
M -3 -3 
L 3 3 
" style="stroke: #ff0000; stroke-width: 1.5"/>
    </defs>
    <g clip-path="url(#p82b92376ac)">
     <use xlink:href="#mb73d4f2179" x="270.623427" y="312.24351" style="fill: #ff0000; stroke: #ff0000; stroke-width: 1.5"/>
     <use xlink:href="#mb73d4f2179" x="257.032725" y="287.733237" style="fill: #ff0000; stroke: #ff0000; stroke-width: 1.5"/>
     <use xlink:href="#mb73d4f2179" x="243.442022" y="263.222965" style="fill: #ff0000; stroke: #ff0000; stroke-width: 1.5"/>
     <use xlink:href="#mb73d4f2179" x="243.442022" y="238.712693" style="fill: #ff0000; stroke: #ff0000; stroke-width: 1.5"/>
     <use xlink:href="#mb73d4f2179" x="243.442022" y="214.20242" style="fill: #ff0000; stroke: #ff0000; stroke-width: 1.5"/>
     <use xlink:href="#mb73d4f2179" x="229.85132" y="189.692148" style="fill: #ff0000; stroke: #ff0000; stroke-width: 1.5"/>
     <use xlink:href="#mb73d4f2179" x="229.85132" y="165.181875" style="fill: #ff0000; stroke: #ff0000; stroke-width: 1.5"/>
     <use xlink:href="#mb73d4f2179" x="229.85132" y="140.671603" style="fill: #ff0000; stroke: #ff0000; stroke-width: 1.5"/>
     <use xlink:href="#mb73d4f2179" x="216.260618" y="116.16133" style="fill: #ff0000; stroke: #ff0000; stroke-width: 1.5"/>
     <use xlink:href="#mb73d4f2179" x="216.260618" y="91.651058" style="fill: #ff0000; stroke: #ff0000; stroke-width: 1.5"/>
     <use xlink:href="#mb73d4f2179" x="202.669916" y="67.140785" style="fill: #ff0000; stroke: #ff0000; stroke-width: 1.5"/>
     <use xlink:href="#mb73d4f2179" x="202.669916" y="42.630513" style="fill: #ff0000; stroke: #ff0000; stroke-width: 1.5"/>
     <use xlink:href="#mb73d4f2179" x="202.669916" y="18.12024" style="fill: #ff0000; stroke: #ff0000; stroke-width: 1.5"/>
    </g>
   </g>
   <g id="matplotlib.axis_1">
    <g id="xtick_1">
     <g id="line2d_1">
      <defs>
       <path id="mb09893cb33" d="M 0 0 
L 0 3.5 
" style="stroke: #000000; stroke-width: 0.8"/>
      </defs>
      <g>
       <use xlink:href="#mb09893cb33" x="39.58149" y="312.24351" style="stroke: #000000; stroke-width: 0.8"/>
      </g>
     </g>
     <g id="text_1">
      <!-- $\mathdefault{10^{-5}}$ -->
      <g transform="translate(27.83149 326.841947) scale(0.1 -0.1)">
       <defs>
        <path id="DejaVuSans-31" d="M 794 531 
L 1825 531 
L 1825 4091 
L 703 3866 
L 703 4441 
L 1819 4666 
L 2450 4666 
L 2450 531 
L 3481 531 
L 3481 0 
L 794 0 
L 794 531 
z
" transform="scale(0.015625)"/>
        <path id="DejaVuSans-30" d="M 2034 4250 
Q 1547 4250 1301 3770 
Q 1056 3291 1056 2328 
Q 1056 1369 1301 889 
Q 1547 409 2034 409 
Q 2525 409 2770 889 
Q 3016 1369 3016 2328 
Q 3016 3291 2770 3770 
Q 2525 4250 2034 4250 
z
M 2034 4750 
Q 2819 4750 3233 4129 
Q 3647 3509 3647 2328 
Q 3647 1150 3233 529 
Q 2819 -91 2034 -91 
Q 1250 -91 836 529 
Q 422 1150 422 2328 
Q 422 3509 836 4129 
Q 1250 4750 2034 4750 
z
" transform="scale(0.015625)"/>
        <path id="DejaVuSans-2212" d="M 678 2272 
L 4684 2272 
L 4684 1741 
L 678 1741 
L 678 2272 
z
" transform="scale(0.015625)"/>
        <path id="DejaVuSans-35" d="M 691 4666 
L 3169 4666 
L 3169 4134 
L 1269 4134 
L 1269 2991 
Q 1406 3038 1543 3061 
Q 1681 3084 1819 3084 
Q 2600 3084 3056 2656 
Q 3513 2228 3513 1497 
Q 3513 744 3044 326 
Q 2575 -91 1722 -91 
Q 1428 -91 1123 -41 
Q 819 9 494 109 
L 494 744 
Q 775 591 1075 516 
Q 1375 441 1709 441 
Q 2250 441 2565 725 
Q 2881 1009 2881 1497 
Q 2881 1984 2565 2268 
Q 2250 2553 1709 2553 
Q 1456 2553 1204 2497 
Q 953 2441 691 2322 
L 691 4666 
z
" transform="scale(0.015625)"/>
       </defs>
       <use xlink:href="#DejaVuSans-31" transform="translate(0 0.684375)"/>
       <use xlink:href="#DejaVuSans-30" transform="translate(63.623047 0.684375)"/>
       <use xlink:href="#DejaVuSans-2212" transform="translate(128.203125 38.965625) scale(0.7)"/>
       <use xlink:href="#DejaVuSans-35" transform="translate(186.855469 38.965625) scale(0.7)"/>
      </g>
     </g>
    </g>
    <g id="xtick_2">
     <g id="line2d_2">
      <g>
       <use xlink:href="#mb09893cb33" x="93.944299" y="312.24351" style="stroke: #000000; stroke-width: 0.8"/>
      </g>
     </g>
     <g id="text_2">
      <!-- $\mathdefault{10^{-4}}$ -->
      <g transform="translate(82.194299 326.841947) scale(0.1 -0.1)">
       <defs>
        <path id="DejaVuSans-34" d="M 2419 4116 
L 825 1625 
L 2419 1625 
L 2419 4116 
z
M 2253 4666 
L 3047 4666 
L 3047 1625 
L 3713 1625 
L 3713 1100 
L 3047 1100 
L 3047 0 
L 2419 0 
L 2419 1100 
L 313 1100 
L 313 1709 
L 2253 4666 
z
" transform="scale(0.015625)"/>
       </defs>
       <use xlink:href="#DejaVuSans-31" transform="translate(0 0.684375)"/>
       <use xlink:href="#DejaVuSans-30" transform="translate(63.623047 0.684375)"/>
       <use xlink:href="#DejaVuSans-2212" transform="translate(128.203125 38.965625) scale(0.7)"/>
       <use xlink:href="#DejaVuSans-34" transform="translate(186.855469 38.965625) scale(0.7)"/>
      </g>
     </g>
    </g>
    <g id="xtick_3">
     <g id="line2d_3">
      <g>
       <use xlink:href="#mb09893cb33" x="148.307107" y="312.24351" style="stroke: #000000; stroke-width: 0.8"/>
      </g>
     </g>
     <g id="text_3">
      <!-- $\mathdefault{10^{-3}}$ -->
      <g transform="translate(136.557107 326.841947) scale(0.1 -0.1)">
       <defs>
        <path id="DejaVuSans-33" d="M 2597 2516 
Q 3050 2419 3304 2112 
Q 3559 1806 3559 1356 
Q 3559 666 3084 287 
Q 2609 -91 1734 -91 
Q 1441 -91 1130 -33 
Q 819 25 488 141 
L 488 750 
Q 750 597 1062 519 
Q 1375 441 1716 441 
Q 2309 441 2620 675 
Q 2931 909 2931 1356 
Q 2931 1769 2642 2001 
Q 2353 2234 1838 2234 
L 1294 2234 
L 1294 2753 
L 1863 2753 
Q 2328 2753 2575 2939 
Q 2822 3125 2822 3475 
Q 2822 3834 2567 4026 
Q 2313 4219 1838 4219 
Q 1578 4219 1281 4162 
Q 984 4106 628 3988 
L 628 4550 
Q 988 4650 1302 4700 
Q 1616 4750 1894 4750 
Q 2613 4750 3031 4423 
Q 3450 4097 3450 3541 
Q 3450 3153 3228 2886 
Q 3006 2619 2597 2516 
z
" transform="scale(0.015625)"/>
       </defs>
       <use xlink:href="#DejaVuSans-31" transform="translate(0 0.765625)"/>
       <use xlink:href="#DejaVuSans-30" transform="translate(63.623047 0.765625)"/>
       <use xlink:href="#DejaVuSans-2212" transform="translate(128.203125 39.046875) scale(0.7)"/>
       <use xlink:href="#DejaVuSans-33" transform="translate(186.855469 39.046875) scale(0.7)"/>
      </g>
     </g>
    </g>
    <g id="xtick_4">
     <g id="line2d_4">
      <g>
       <use xlink:href="#mb09893cb33" x="202.669916" y="312.24351" style="stroke: #000000; stroke-width: 0.8"/>
      </g>
     </g>
     <g id="text_4">
      <!-- $\mathdefault{10^{-2}}$ -->
      <g transform="translate(190.919916 326.841947) scale(0.1 -0.1)">
       <defs>
        <path id="DejaVuSans-32" d="M 1228 531 
L 3431 531 
L 3431 0 
L 469 0 
L 469 531 
Q 828 903 1448 1529 
Q 2069 2156 2228 2338 
Q 2531 2678 2651 2914 
Q 2772 3150 2772 3378 
Q 2772 3750 2511 3984 
Q 2250 4219 1831 4219 
Q 1534 4219 1204 4116 
Q 875 4013 500 3803 
L 500 4441 
Q 881 4594 1212 4672 
Q 1544 4750 1819 4750 
Q 2544 4750 2975 4387 
Q 3406 4025 3406 3419 
Q 3406 3131 3298 2873 
Q 3191 2616 2906 2266 
Q 2828 2175 2409 1742 
Q 1991 1309 1228 531 
z
" transform="scale(0.015625)"/>
       </defs>
       <use xlink:href="#DejaVuSans-31" transform="translate(0 0.765625)"/>
       <use xlink:href="#DejaVuSans-30" transform="translate(63.623047 0.765625)"/>
       <use xlink:href="#DejaVuSans-2212" transform="translate(128.203125 39.046875) scale(0.7)"/>
       <use xlink:href="#DejaVuSans-32" transform="translate(186.855469 39.046875) scale(0.7)"/>
      </g>
     </g>
    </g>
    <g id="xtick_5">
     <g id="line2d_5">
      <g>
       <use xlink:href="#mb09893cb33" x="257.032725" y="312.24351" style="stroke: #000000; stroke-width: 0.8"/>
      </g>
     </g>
     <g id="text_5">
      <!-- $\mathdefault{10^{-1}}$ -->
      <g transform="translate(245.282725 326.841947) scale(0.1 -0.1)">
       <use xlink:href="#DejaVuSans-31" transform="translate(0 0.684375)"/>
       <use xlink:href="#DejaVuSans-30" transform="translate(63.623047 0.684375)"/>
       <use xlink:href="#DejaVuSans-2212" transform="translate(128.203125 38.965625) scale(0.7)"/>
       <use xlink:href="#DejaVuSans-31" transform="translate(186.855469 38.965625) scale(0.7)"/>
      </g>
     </g>
    </g>
    <g id="xtick_6">
     <g id="line2d_6">
      <g>
       <use xlink:href="#mb09893cb33" x="311.395533" y="312.24351" style="stroke: #000000; stroke-width: 0.8"/>
      </g>
     </g>
     <g id="text_6">
      <!-- $\mathdefault{10^{0}}$ -->
      <g transform="translate(302.595533 326.841947) scale(0.1 -0.1)">
       <use xlink:href="#DejaVuSans-31" transform="translate(0 0.765625)"/>
       <use xlink:href="#DejaVuSans-30" transform="translate(63.623047 0.765625)"/>
       <use xlink:href="#DejaVuSans-30" transform="translate(128.203125 39.046875) scale(0.7)"/>
      </g>
     </g>
    </g>
    <g id="xtick_7">
     <g id="line2d_7">
      <g>
       <use xlink:href="#mb09893cb33" x="365.758342" y="312.24351" style="stroke: #000000; stroke-width: 0.8"/>
      </g>
     </g>
     <g id="text_7">
      <!-- $\mathdefault{10^{1}}$ -->
      <g transform="translate(356.958342 326.841947) scale(0.1 -0.1)">
       <use xlink:href="#DejaVuSans-31" transform="translate(0 0.684375)"/>
       <use xlink:href="#DejaVuSans-30" transform="translate(63.623047 0.684375)"/>
       <use xlink:href="#DejaVuSans-31" transform="translate(128.203125 38.965625) scale(0.7)"/>
      </g>
     </g>
    </g>
    <g id="xtick_8">
     <g id="line2d_8">
      <defs>
       <path id="mcfadef5c46" d="M 0 0 
L 0 2 
" style="stroke: #000000; stroke-width: 0.6"/>
      </defs>
      <g>
       <use xlink:href="#mcfadef5c46" x="55.946326" y="312.24351" style="stroke: #000000; stroke-width: 0.6"/>
      </g>
     </g>
    </g>
    <g id="xtick_9">
     <g id="line2d_9">
      <g>
       <use xlink:href="#mcfadef5c46" x="65.519141" y="312.24351" style="stroke: #000000; stroke-width: 0.6"/>
      </g>
     </g>
    </g>
    <g id="xtick_10">
     <g id="line2d_10">
      <g>
       <use xlink:href="#mcfadef5c46" x="72.311162" y="312.24351" style="stroke: #000000; stroke-width: 0.6"/>
      </g>
     </g>
    </g>
    <g id="xtick_11">
     <g id="line2d_11">
      <g>
       <use xlink:href="#mcfadef5c46" x="77.579463" y="312.24351" style="stroke: #000000; stroke-width: 0.6"/>
      </g>
     </g>
    </g>
    <g id="xtick_12">
     <g id="line2d_12">
      <g>
       <use xlink:href="#mcfadef5c46" x="81.883978" y="312.24351" style="stroke: #000000; stroke-width: 0.6"/>
      </g>
     </g>
    </g>
    <g id="xtick_13">
     <g id="line2d_13">
      <g>
       <use xlink:href="#mcfadef5c46" x="85.523393" y="312.24351" style="stroke: #000000; stroke-width: 0.6"/>
      </g>
     </g>
    </g>
    <g id="xtick_14">
     <g id="line2d_14">
      <g>
       <use xlink:href="#mcfadef5c46" x="88.675998" y="312.24351" style="stroke: #000000; stroke-width: 0.6"/>
      </g>
     </g>
    </g>
    <g id="xtick_15">
     <g id="line2d_15">
      <g>
       <use xlink:href="#mcfadef5c46" x="91.456793" y="312.24351" style="stroke: #000000; stroke-width: 0.6"/>
      </g>
     </g>
    </g>
    <g id="xtick_16">
     <g id="line2d_16">
      <g>
       <use xlink:href="#mcfadef5c46" x="110.309135" y="312.24351" style="stroke: #000000; stroke-width: 0.6"/>
      </g>
     </g>
    </g>
    <g id="xtick_17">
     <g id="line2d_17">
      <g>
       <use xlink:href="#mcfadef5c46" x="119.88195" y="312.24351" style="stroke: #000000; stroke-width: 0.6"/>
      </g>
     </g>
    </g>
    <g id="xtick_18">
     <g id="line2d_18">
      <g>
       <use xlink:href="#mcfadef5c46" x="126.673971" y="312.24351" style="stroke: #000000; stroke-width: 0.6"/>
      </g>
     </g>
    </g>
    <g id="xtick_19">
     <g id="line2d_19">
      <g>
       <use xlink:href="#mcfadef5c46" x="131.942271" y="312.24351" style="stroke: #000000; stroke-width: 0.6"/>
      </g>
     </g>
    </g>
    <g id="xtick_20">
     <g id="line2d_20">
      <g>
       <use xlink:href="#mcfadef5c46" x="136.246786" y="312.24351" style="stroke: #000000; stroke-width: 0.6"/>
      </g>
     </g>
    </g>
    <g id="xtick_21">
     <g id="line2d_21">
      <g>
       <use xlink:href="#mcfadef5c46" x="139.886202" y="312.24351" style="stroke: #000000; stroke-width: 0.6"/>
      </g>
     </g>
    </g>
    <g id="xtick_22">
     <g id="line2d_22">
      <g>
       <use xlink:href="#mcfadef5c46" x="143.038807" y="312.24351" style="stroke: #000000; stroke-width: 0.6"/>
      </g>
     </g>
    </g>
    <g id="xtick_23">
     <g id="line2d_23">
      <g>
       <use xlink:href="#mcfadef5c46" x="145.819602" y="312.24351" style="stroke: #000000; stroke-width: 0.6"/>
      </g>
     </g>
    </g>
    <g id="xtick_24">
     <g id="line2d_24">
      <g>
       <use xlink:href="#mcfadef5c46" x="164.671943" y="312.24351" style="stroke: #000000; stroke-width: 0.6"/>
      </g>
     </g>
    </g>
    <g id="xtick_25">
     <g id="line2d_25">
      <g>
       <use xlink:href="#mcfadef5c46" x="174.244759" y="312.24351" style="stroke: #000000; stroke-width: 0.6"/>
      </g>
     </g>
    </g>
    <g id="xtick_26">
     <g id="line2d_26">
      <g>
       <use xlink:href="#mcfadef5c46" x="181.036779" y="312.24351" style="stroke: #000000; stroke-width: 0.6"/>
      </g>
     </g>
    </g>
    <g id="xtick_27">
     <g id="line2d_27">
      <g>
       <use xlink:href="#mcfadef5c46" x="186.30508" y="312.24351" style="stroke: #000000; stroke-width: 0.6"/>
      </g>
     </g>
    </g>
    <g id="xtick_28">
     <g id="line2d_28">
      <g>
       <use xlink:href="#mcfadef5c46" x="190.609595" y="312.24351" style="stroke: #000000; stroke-width: 0.6"/>
      </g>
     </g>
    </g>
    <g id="xtick_29">
     <g id="line2d_29">
      <g>
       <use xlink:href="#mcfadef5c46" x="194.24901" y="312.24351" style="stroke: #000000; stroke-width: 0.6"/>
      </g>
     </g>
    </g>
    <g id="xtick_30">
     <g id="line2d_30">
      <g>
       <use xlink:href="#mcfadef5c46" x="197.401615" y="312.24351" style="stroke: #000000; stroke-width: 0.6"/>
      </g>
     </g>
    </g>
    <g id="xtick_31">
     <g id="line2d_31">
      <g>
       <use xlink:href="#mcfadef5c46" x="200.18241" y="312.24351" style="stroke: #000000; stroke-width: 0.6"/>
      </g>
     </g>
    </g>
    <g id="xtick_32">
     <g id="line2d_32">
      <g>
       <use xlink:href="#mcfadef5c46" x="219.034752" y="312.24351" style="stroke: #000000; stroke-width: 0.6"/>
      </g>
     </g>
    </g>
    <g id="xtick_33">
     <g id="line2d_33">
      <g>
       <use xlink:href="#mcfadef5c46" x="228.607567" y="312.24351" style="stroke: #000000; stroke-width: 0.6"/>
      </g>
     </g>
    </g>
    <g id="xtick_34">
     <g id="line2d_34">
      <g>
       <use xlink:href="#mcfadef5c46" x="235.399588" y="312.24351" style="stroke: #000000; stroke-width: 0.6"/>
      </g>
     </g>
    </g>
    <g id="xtick_35">
     <g id="line2d_35">
      <g>
       <use xlink:href="#mcfadef5c46" x="240.667889" y="312.24351" style="stroke: #000000; stroke-width: 0.6"/>
      </g>
     </g>
    </g>
    <g id="xtick_36">
     <g id="line2d_36">
      <g>
       <use xlink:href="#mcfadef5c46" x="244.972403" y="312.24351" style="stroke: #000000; stroke-width: 0.6"/>
      </g>
     </g>
    </g>
    <g id="xtick_37">
     <g id="line2d_37">
      <g>
       <use xlink:href="#mcfadef5c46" x="248.611819" y="312.24351" style="stroke: #000000; stroke-width: 0.6"/>
      </g>
     </g>
    </g>
    <g id="xtick_38">
     <g id="line2d_38">
      <g>
       <use xlink:href="#mcfadef5c46" x="251.764424" y="312.24351" style="stroke: #000000; stroke-width: 0.6"/>
      </g>
     </g>
    </g>
    <g id="xtick_39">
     <g id="line2d_39">
      <g>
       <use xlink:href="#mcfadef5c46" x="254.545219" y="312.24351" style="stroke: #000000; stroke-width: 0.6"/>
      </g>
     </g>
    </g>
    <g id="xtick_40">
     <g id="line2d_40">
      <g>
       <use xlink:href="#mcfadef5c46" x="273.397561" y="312.24351" style="stroke: #000000; stroke-width: 0.6"/>
      </g>
     </g>
    </g>
    <g id="xtick_41">
     <g id="line2d_41">
      <g>
       <use xlink:href="#mcfadef5c46" x="282.970376" y="312.24351" style="stroke: #000000; stroke-width: 0.6"/>
      </g>
     </g>
    </g>
    <g id="xtick_42">
     <g id="line2d_42">
      <g>
       <use xlink:href="#mcfadef5c46" x="289.762397" y="312.24351" style="stroke: #000000; stroke-width: 0.6"/>
      </g>
     </g>
    </g>
    <g id="xtick_43">
     <g id="line2d_43">
      <g>
       <use xlink:href="#mcfadef5c46" x="295.030697" y="312.24351" style="stroke: #000000; stroke-width: 0.6"/>
      </g>
     </g>
    </g>
    <g id="xtick_44">
     <g id="line2d_44">
      <g>
       <use xlink:href="#mcfadef5c46" x="299.335212" y="312.24351" style="stroke: #000000; stroke-width: 0.6"/>
      </g>
     </g>
    </g>
    <g id="xtick_45">
     <g id="line2d_45">
      <g>
       <use xlink:href="#mcfadef5c46" x="302.974628" y="312.24351" style="stroke: #000000; stroke-width: 0.6"/>
      </g>
     </g>
    </g>
    <g id="xtick_46">
     <g id="line2d_46">
      <g>
       <use xlink:href="#mcfadef5c46" x="306.127233" y="312.24351" style="stroke: #000000; stroke-width: 0.6"/>
      </g>
     </g>
    </g>
    <g id="xtick_47">
     <g id="line2d_47">
      <g>
       <use xlink:href="#mcfadef5c46" x="308.908028" y="312.24351" style="stroke: #000000; stroke-width: 0.6"/>
      </g>
     </g>
    </g>
    <g id="xtick_48">
     <g id="line2d_48">
      <g>
       <use xlink:href="#mcfadef5c46" x="327.760369" y="312.24351" style="stroke: #000000; stroke-width: 0.6"/>
      </g>
     </g>
    </g>
    <g id="xtick_49">
     <g id="line2d_49">
      <g>
       <use xlink:href="#mcfadef5c46" x="337.333185" y="312.24351" style="stroke: #000000; stroke-width: 0.6"/>
      </g>
     </g>
    </g>
    <g id="xtick_50">
     <g id="line2d_50">
      <g>
       <use xlink:href="#mcfadef5c46" x="344.125205" y="312.24351" style="stroke: #000000; stroke-width: 0.6"/>
      </g>
     </g>
    </g>
    <g id="xtick_51">
     <g id="line2d_51">
      <g>
       <use xlink:href="#mcfadef5c46" x="349.393506" y="312.24351" style="stroke: #000000; stroke-width: 0.6"/>
      </g>
     </g>
    </g>
    <g id="xtick_52">
     <g id="line2d_52">
      <g>
       <use xlink:href="#mcfadef5c46" x="353.698021" y="312.24351" style="stroke: #000000; stroke-width: 0.6"/>
      </g>
     </g>
    </g>
    <g id="xtick_53">
     <g id="line2d_53">
      <g>
       <use xlink:href="#mcfadef5c46" x="357.337436" y="312.24351" style="stroke: #000000; stroke-width: 0.6"/>
      </g>
     </g>
    </g>
    <g id="xtick_54">
     <g id="line2d_54">
      <g>
       <use xlink:href="#mcfadef5c46" x="360.490041" y="312.24351" style="stroke: #000000; stroke-width: 0.6"/>
      </g>
     </g>
    </g>
    <g id="xtick_55">
     <g id="line2d_55">
      <g>
       <use xlink:href="#mcfadef5c46" x="363.270836" y="312.24351" style="stroke: #000000; stroke-width: 0.6"/>
      </g>
     </g>
    </g>
    <g id="text_8">
     <!-- $h$ -->
     <g transform="translate(200.595027 340.520072) scale(0.1 -0.1)">
      <defs>
       <path id="DejaVuSans-Oblique-68" d="M 3566 2113 
L 3156 0 
L 2578 0 
L 2988 2091 
Q 3016 2238 3031 2350 
Q 3047 2463 3047 2528 
Q 3047 2791 2881 2937 
Q 2716 3084 2419 3084 
Q 1956 3084 1617 2771 
Q 1278 2459 1178 1941 
L 800 0 
L 225 0 
L 1172 4863 
L 1747 4863 
L 1375 2950 
Q 1594 3244 1934 3414 
Q 2275 3584 2650 3584 
Q 3113 3584 3367 3334 
Q 3622 3084 3622 2631 
Q 3622 2519 3608 2391 
Q 3594 2263 3566 2113 
z
" transform="scale(0.015625)"/>
      </defs>
      <use xlink:href="#DejaVuSans-Oblique-68" transform="translate(0 0.015625)"/>
     </g>
    </g>
   </g>
   <g id="matplotlib.axis_2">
    <g id="ytick_1">
     <g id="line2d_56">
      <defs>
       <path id="m3fa333c6f1" d="M 0 0 
L -3.5 0 
" style="stroke: #000000; stroke-width: 0.8"/>
      </defs>
      <g>
       <use xlink:href="#m3fa333c6f1" x="39.58149" y="312.24351" style="stroke: #000000; stroke-width: 0.8"/>
      </g>
     </g>
     <g id="text_9">
      <!-- 1.0 -->
      <g transform="translate(16.678365 316.042729) scale(0.1 -0.1)">
       <defs>
        <path id="DejaVuSans-2e" d="M 684 794 
L 1344 794 
L 1344 0 
L 684 0 
L 684 794 
z
" transform="scale(0.015625)"/>
       </defs>
       <use xlink:href="#DejaVuSans-31"/>
       <use xlink:href="#DejaVuSans-2e" transform="translate(63.623047 0)"/>
       <use xlink:href="#DejaVuSans-30" transform="translate(95.410156 0)"/>
      </g>
     </g>
    </g>
    <g id="ytick_2">
     <g id="line2d_57">
      <g>
       <use xlink:href="#m3fa333c6f1" x="39.58149" y="263.222965" style="stroke: #000000; stroke-width: 0.8"/>
      </g>
     </g>
     <g id="text_10">
      <!-- 1.5 -->
      <g transform="translate(16.678365 267.022184) scale(0.1 -0.1)">
       <use xlink:href="#DejaVuSans-31"/>
       <use xlink:href="#DejaVuSans-2e" transform="translate(63.623047 0)"/>
       <use xlink:href="#DejaVuSans-35" transform="translate(95.410156 0)"/>
      </g>
     </g>
    </g>
    <g id="ytick_3">
     <g id="line2d_58">
      <g>
       <use xlink:href="#m3fa333c6f1" x="39.58149" y="214.20242" style="stroke: #000000; stroke-width: 0.8"/>
      </g>
     </g>
     <g id="text_11">
      <!-- 2.0 -->
      <g transform="translate(16.678365 218.001639) scale(0.1 -0.1)">
       <use xlink:href="#DejaVuSans-32"/>
       <use xlink:href="#DejaVuSans-2e" transform="translate(63.623047 0)"/>
       <use xlink:href="#DejaVuSans-30" transform="translate(95.410156 0)"/>
      </g>
     </g>
    </g>
    <g id="ytick_4">
     <g id="line2d_59">
      <g>
       <use xlink:href="#m3fa333c6f1" x="39.58149" y="165.181875" style="stroke: #000000; stroke-width: 0.8"/>
      </g>
     </g>
     <g id="text_12">
      <!-- 2.5 -->
      <g transform="translate(16.678365 168.981094) scale(0.1 -0.1)">
       <use xlink:href="#DejaVuSans-32"/>
       <use xlink:href="#DejaVuSans-2e" transform="translate(63.623047 0)"/>
       <use xlink:href="#DejaVuSans-35" transform="translate(95.410156 0)"/>
      </g>
     </g>
    </g>
    <g id="ytick_5">
     <g id="line2d_60">
      <g>
       <use xlink:href="#m3fa333c6f1" x="39.58149" y="116.16133" style="stroke: #000000; stroke-width: 0.8"/>
      </g>
     </g>
     <g id="text_13">
      <!-- 3.0 -->
      <g transform="translate(16.678365 119.960549) scale(0.1 -0.1)">
       <use xlink:href="#DejaVuSans-33"/>
       <use xlink:href="#DejaVuSans-2e" transform="translate(63.623047 0)"/>
       <use xlink:href="#DejaVuSans-30" transform="translate(95.410156 0)"/>
      </g>
     </g>
    </g>
    <g id="ytick_6">
     <g id="line2d_61">
      <g>
       <use xlink:href="#m3fa333c6f1" x="39.58149" y="67.140785" style="stroke: #000000; stroke-width: 0.8"/>
      </g>
     </g>
     <g id="text_14">
      <!-- 3.5 -->
      <g transform="translate(16.678365 70.940004) scale(0.1 -0.1)">
       <use xlink:href="#DejaVuSans-33"/>
       <use xlink:href="#DejaVuSans-2e" transform="translate(63.623047 0)"/>
       <use xlink:href="#DejaVuSans-35" transform="translate(95.410156 0)"/>
      </g>
     </g>
    </g>
    <g id="ytick_7">
     <g id="line2d_62">
      <g>
       <use xlink:href="#m3fa333c6f1" x="39.58149" y="18.12024" style="stroke: #000000; stroke-width: 0.8"/>
      </g>
     </g>
     <g id="text_15">
      <!-- 4.0 -->
      <g transform="translate(16.678365 21.919459) scale(0.1 -0.1)">
       <use xlink:href="#DejaVuSans-34"/>
       <use xlink:href="#DejaVuSans-2e" transform="translate(63.623047 0)"/>
       <use xlink:href="#DejaVuSans-30" transform="translate(95.410156 0)"/>
      </g>
     </g>
    </g>
    <g id="text_16">
     <!-- $\alpha$ -->
     <g transform="translate(10.598677 168.481875) rotate(-90) scale(0.1 -0.1)">
      <defs>
       <path id="DejaVuSans-Oblique-3b1" d="M 2619 1628 
L 2622 2350 
Q 2625 3088 2069 3091 
Q 1653 3094 1394 2747 
Q 1069 2319 959 1747 
Q 825 1059 994 731 
Q 1169 397 1547 397 
Q 1966 397 2319 1063 
L 2619 1628 
z
M 2166 3578 
Q 3141 3594 3128 2584 
Q 3128 2584 3616 3500 
L 4128 3500 
L 3119 1603 
L 3109 919 
Q 3109 766 3194 638 
Q 3291 488 3391 488 
L 3669 488 
L 3575 0 
L 3228 0 
Q 2934 0 2722 263 
Q 2622 394 2619 669 
Q 2416 334 2066 50 
Q 1900 -81 1453 -78 
Q 722 -72 456 397 
Q 184 884 353 1747 
Q 534 2675 1009 3097 
Q 1544 3569 2166 3578 
z
" transform="scale(0.015625)"/>
      </defs>
      <use xlink:href="#DejaVuSans-Oblique-3b1" transform="translate(0 0.84375)"/>
     </g>
    </g>
   </g>
   <g id="patch_3">
    <path d="M 39.58149 312.24351 
L 39.58149 18.12024 
" style="fill: none; stroke: #000000; stroke-width: 0.8; stroke-linejoin: miter; stroke-linecap: square"/>
   </g>
   <g id="patch_4">
    <path d="M 368.008565 312.24351 
L 368.008565 18.12024 
" style="fill: none; stroke: #000000; stroke-width: 0.8; stroke-linejoin: miter; stroke-linecap: square"/>
   </g>
   <g id="patch_5">
    <path d="M 39.58149 312.24351 
L 368.008565 312.24351 
" style="fill: none; stroke: #000000; stroke-width: 0.8; stroke-linejoin: miter; stroke-linecap: square"/>
   </g>
   <g id="patch_6">
    <path d="M 39.58149 18.12024 
L 368.008565 18.12024 
" style="fill: none; stroke: #000000; stroke-width: 0.8; stroke-linejoin: miter; stroke-linecap: square"/>
   </g>
   <g id="text_17">
    <!-- Score para $\alpha$ y $h$ -->
    <g transform="translate(154.235027 12.12024) scale(0.12 -0.12)">
     <defs>
      <path id="DejaVuSans-53" d="M 3425 4513 
L 3425 3897 
Q 3066 4069 2747 4153 
Q 2428 4238 2131 4238 
Q 1616 4238 1336 4038 
Q 1056 3838 1056 3469 
Q 1056 3159 1242 3001 
Q 1428 2844 1947 2747 
L 2328 2669 
Q 3034 2534 3370 2195 
Q 3706 1856 3706 1288 
Q 3706 609 3251 259 
Q 2797 -91 1919 -91 
Q 1588 -91 1214 -16 
Q 841 59 441 206 
L 441 856 
Q 825 641 1194 531 
Q 1563 422 1919 422 
Q 2459 422 2753 634 
Q 3047 847 3047 1241 
Q 3047 1584 2836 1778 
Q 2625 1972 2144 2069 
L 1759 2144 
Q 1053 2284 737 2584 
Q 422 2884 422 3419 
Q 422 4038 858 4394 
Q 1294 4750 2059 4750 
Q 2388 4750 2728 4690 
Q 3069 4631 3425 4513 
z
" transform="scale(0.015625)"/>
      <path id="DejaVuSans-63" d="M 3122 3366 
L 3122 2828 
Q 2878 2963 2633 3030 
Q 2388 3097 2138 3097 
Q 1578 3097 1268 2742 
Q 959 2388 959 1747 
Q 959 1106 1268 751 
Q 1578 397 2138 397 
Q 2388 397 2633 464 
Q 2878 531 3122 666 
L 3122 134 
Q 2881 22 2623 -34 
Q 2366 -91 2075 -91 
Q 1284 -91 818 406 
Q 353 903 353 1747 
Q 353 2603 823 3093 
Q 1294 3584 2113 3584 
Q 2378 3584 2631 3529 
Q 2884 3475 3122 3366 
z
" transform="scale(0.015625)"/>
      <path id="DejaVuSans-6f" d="M 1959 3097 
Q 1497 3097 1228 2736 
Q 959 2375 959 1747 
Q 959 1119 1226 758 
Q 1494 397 1959 397 
Q 2419 397 2687 759 
Q 2956 1122 2956 1747 
Q 2956 2369 2687 2733 
Q 2419 3097 1959 3097 
z
M 1959 3584 
Q 2709 3584 3137 3096 
Q 3566 2609 3566 1747 
Q 3566 888 3137 398 
Q 2709 -91 1959 -91 
Q 1206 -91 779 398 
Q 353 888 353 1747 
Q 353 2609 779 3096 
Q 1206 3584 1959 3584 
z
" transform="scale(0.015625)"/>
      <path id="DejaVuSans-72" d="M 2631 2963 
Q 2534 3019 2420 3045 
Q 2306 3072 2169 3072 
Q 1681 3072 1420 2755 
Q 1159 2438 1159 1844 
L 1159 0 
L 581 0 
L 581 3500 
L 1159 3500 
L 1159 2956 
Q 1341 3275 1631 3429 
Q 1922 3584 2338 3584 
Q 2397 3584 2469 3576 
Q 2541 3569 2628 3553 
L 2631 2963 
z
" transform="scale(0.015625)"/>
      <path id="DejaVuSans-65" d="M 3597 1894 
L 3597 1613 
L 953 1613 
Q 991 1019 1311 708 
Q 1631 397 2203 397 
Q 2534 397 2845 478 
Q 3156 559 3463 722 
L 3463 178 
Q 3153 47 2828 -22 
Q 2503 -91 2169 -91 
Q 1331 -91 842 396 
Q 353 884 353 1716 
Q 353 2575 817 3079 
Q 1281 3584 2069 3584 
Q 2775 3584 3186 3129 
Q 3597 2675 3597 1894 
z
M 3022 2063 
Q 3016 2534 2758 2815 
Q 2500 3097 2075 3097 
Q 1594 3097 1305 2825 
Q 1016 2553 972 2059 
L 3022 2063 
z
" transform="scale(0.015625)"/>
      <path id="DejaVuSans-20" transform="scale(0.015625)"/>
      <path id="DejaVuSans-70" d="M 1159 525 
L 1159 -1331 
L 581 -1331 
L 581 3500 
L 1159 3500 
L 1159 2969 
Q 1341 3281 1617 3432 
Q 1894 3584 2278 3584 
Q 2916 3584 3314 3078 
Q 3713 2572 3713 1747 
Q 3713 922 3314 415 
Q 2916 -91 2278 -91 
Q 1894 -91 1617 61 
Q 1341 213 1159 525 
z
M 3116 1747 
Q 3116 2381 2855 2742 
Q 2594 3103 2138 3103 
Q 1681 3103 1420 2742 
Q 1159 2381 1159 1747 
Q 1159 1113 1420 752 
Q 1681 391 2138 391 
Q 2594 391 2855 752 
Q 3116 1113 3116 1747 
z
" transform="scale(0.015625)"/>
      <path id="DejaVuSans-61" d="M 2194 1759 
Q 1497 1759 1228 1600 
Q 959 1441 959 1056 
Q 959 750 1161 570 
Q 1363 391 1709 391 
Q 2188 391 2477 730 
Q 2766 1069 2766 1631 
L 2766 1759 
L 2194 1759 
z
M 3341 1997 
L 3341 0 
L 2766 0 
L 2766 531 
Q 2569 213 2275 61 
Q 1981 -91 1556 -91 
Q 1019 -91 701 211 
Q 384 513 384 1019 
Q 384 1609 779 1909 
Q 1175 2209 1959 2209 
L 2766 2209 
L 2766 2266 
Q 2766 2663 2505 2880 
Q 2244 3097 1772 3097 
Q 1472 3097 1187 3025 
Q 903 2953 641 2809 
L 641 3341 
Q 956 3463 1253 3523 
Q 1550 3584 1831 3584 
Q 2591 3584 2966 3190 
Q 3341 2797 3341 1997 
z
" transform="scale(0.015625)"/>
      <path id="DejaVuSans-79" d="M 2059 -325 
Q 1816 -950 1584 -1140 
Q 1353 -1331 966 -1331 
L 506 -1331 
L 506 -850 
L 844 -850 
Q 1081 -850 1212 -737 
Q 1344 -625 1503 -206 
L 1606 56 
L 191 3500 
L 800 3500 
L 1894 763 
L 2988 3500 
L 3597 3500 
L 2059 -325 
z
" transform="scale(0.015625)"/>
     </defs>
     <use xlink:href="#DejaVuSans-53" transform="translate(0 0.015625)"/>
     <use xlink:href="#DejaVuSans-63" transform="translate(63.476562 0.015625)"/>
     <use xlink:href="#DejaVuSans-6f" transform="translate(118.457031 0.015625)"/>
     <use xlink:href="#DejaVuSans-72" transform="translate(179.638672 0.015625)"/>
     <use xlink:href="#DejaVuSans-65" transform="translate(220.751953 0.015625)"/>
     <use xlink:href="#DejaVuSans-20" transform="translate(282.275391 0.015625)"/>
     <use xlink:href="#DejaVuSans-70" transform="translate(314.0625 0.015625)"/>
     <use xlink:href="#DejaVuSans-61" transform="translate(377.539062 0.015625)"/>
     <use xlink:href="#DejaVuSans-72" transform="translate(438.818359 0.015625)"/>
     <use xlink:href="#DejaVuSans-61" transform="translate(479.931641 0.015625)"/>
     <use xlink:href="#DejaVuSans-20" transform="translate(541.210938 0.015625)"/>
     <use xlink:href="#DejaVuSans-Oblique-3b1" transform="translate(572.998047 0.015625)"/>
     <use xlink:href="#DejaVuSans-20" transform="translate(638.916016 0.015625)"/>
     <use xlink:href="#DejaVuSans-79" transform="translate(670.703125 0.015625)"/>
     <use xlink:href="#DejaVuSans-20" transform="translate(729.882812 0.015625)"/>
     <use xlink:href="#DejaVuSans-Oblique-68" transform="translate(761.669922 0.015625)"/>
    </g>
   </g>
  </g>
  <g id="axes_2">
   <g id="patch_7">
    <path d="M 390.854179 312.24351 
L 405.560342 312.24351 
L 405.560342 18.12024 
L 390.854179 18.12024 
z
" style="fill: #ffffff"/>
   </g>
   <g id="QuadMesh_1">
    <path d="M 390.854179 312.24351 
L 405.560342 312.24351 
L 405.560342 292.635292 
L 390.854179 292.635292 
L 390.854179 312.24351 
" clip-path="url(#pa708293647)" style="fill: #470d60"/>
    <path d="M 390.854179 292.635292 
L 405.560342 292.635292 
L 405.560342 273.027074 
L 390.854179 273.027074 
L 390.854179 292.635292 
" clip-path="url(#pa708293647)" style="fill: #482475"/>
    <path d="M 390.854179 273.027074 
L 405.560342 273.027074 
L 405.560342 253.418856 
L 390.854179 253.418856 
L 390.854179 273.027074 
" clip-path="url(#pa708293647)" style="fill: #443983"/>
    <path d="M 390.854179 253.418856 
L 405.560342 253.418856 
L 405.560342 233.810638 
L 390.854179 233.810638 
L 390.854179 253.418856 
" clip-path="url(#pa708293647)" style="fill: #3d4d8a"/>
    <path d="M 390.854179 233.810638 
L 405.560342 233.810638 
L 405.560342 214.20242 
L 390.854179 214.20242 
L 390.854179 233.810638 
" clip-path="url(#pa708293647)" style="fill: #355f8d"/>
    <path d="M 390.854179 214.20242 
L 405.560342 214.20242 
L 405.560342 194.594202 
L 390.854179 194.594202 
L 390.854179 214.20242 
" clip-path="url(#pa708293647)" style="fill: #2d708e"/>
    <path d="M 390.854179 194.594202 
L 405.560342 194.594202 
L 405.560342 174.985984 
L 390.854179 174.985984 
L 390.854179 194.594202 
" clip-path="url(#pa708293647)" style="fill: #27808e"/>
    <path d="M 390.854179 174.985984 
L 405.560342 174.985984 
L 405.560342 155.377766 
L 390.854179 155.377766 
L 390.854179 174.985984 
" clip-path="url(#pa708293647)" style="fill: #21918c"/>
    <path d="M 390.854179 155.377766 
L 405.560342 155.377766 
L 405.560342 135.769548 
L 390.854179 135.769548 
L 390.854179 155.377766 
" clip-path="url(#pa708293647)" style="fill: #1fa188"/>
    <path d="M 390.854179 135.769548 
L 405.560342 135.769548 
L 405.560342 116.16133 
L 390.854179 116.16133 
L 390.854179 135.769548 
" clip-path="url(#pa708293647)" style="fill: #2ab07f"/>
    <path d="M 390.854179 116.16133 
L 405.560342 116.16133 
L 405.560342 96.553112 
L 390.854179 96.553112 
L 390.854179 116.16133 
" clip-path="url(#pa708293647)" style="fill: #44bf70"/>
    <path d="M 390.854179 96.553112 
L 405.560342 96.553112 
L 405.560342 76.944894 
L 390.854179 76.944894 
L 390.854179 96.553112 
" clip-path="url(#pa708293647)" style="fill: #67cc5c"/>
    <path d="M 390.854179 76.944894 
L 405.560342 76.944894 
L 405.560342 57.336676 
L 390.854179 57.336676 
L 390.854179 76.944894 
" clip-path="url(#pa708293647)" style="fill: #90d743"/>
    <path d="M 390.854179 57.336676 
L 405.560342 57.336676 
L 405.560342 37.728458 
L 390.854179 37.728458 
L 390.854179 57.336676 
" clip-path="url(#pa708293647)" style="fill: #bddf26"/>
    <path d="M 390.854179 37.728458 
L 405.560342 37.728458 
L 405.560342 18.12024 
L 390.854179 18.12024 
L 390.854179 37.728458 
" clip-path="url(#pa708293647)" style="fill: #eae51a"/>
   </g>
   <g id="matplotlib.axis_3"/>
   <g id="matplotlib.axis_4">
    <g id="ytick_8">
     <g id="line2d_63">
      <defs>
       <path id="m6624093eb9" d="M 0 0 
L 3.5 0 
" style="stroke: #000000; stroke-width: 0.8"/>
      </defs>
      <g>
       <use xlink:href="#m6624093eb9" x="405.560342" y="292.635292" style="stroke: #000000; stroke-width: 0.8"/>
      </g>
     </g>
     <g id="text_18">
      <!-- 0.96 -->
      <g transform="translate(412.560342 296.434511) scale(0.1 -0.1)">
       <defs>
        <path id="DejaVuSans-39" d="M 703 97 
L 703 672 
Q 941 559 1184 500 
Q 1428 441 1663 441 
Q 2288 441 2617 861 
Q 2947 1281 2994 2138 
Q 2813 1869 2534 1725 
Q 2256 1581 1919 1581 
Q 1219 1581 811 2004 
Q 403 2428 403 3163 
Q 403 3881 828 4315 
Q 1253 4750 1959 4750 
Q 2769 4750 3195 4129 
Q 3622 3509 3622 2328 
Q 3622 1225 3098 567 
Q 2575 -91 1691 -91 
Q 1453 -91 1209 -44 
Q 966 3 703 97 
z
M 1959 2075 
Q 2384 2075 2632 2365 
Q 2881 2656 2881 3163 
Q 2881 3666 2632 3958 
Q 2384 4250 1959 4250 
Q 1534 4250 1286 3958 
Q 1038 3666 1038 3163 
Q 1038 2656 1286 2365 
Q 1534 2075 1959 2075 
z
" transform="scale(0.015625)"/>
        <path id="DejaVuSans-36" d="M 2113 2584 
Q 1688 2584 1439 2293 
Q 1191 2003 1191 1497 
Q 1191 994 1439 701 
Q 1688 409 2113 409 
Q 2538 409 2786 701 
Q 3034 994 3034 1497 
Q 3034 2003 2786 2293 
Q 2538 2584 2113 2584 
z
M 3366 4563 
L 3366 3988 
Q 3128 4100 2886 4159 
Q 2644 4219 2406 4219 
Q 1781 4219 1451 3797 
Q 1122 3375 1075 2522 
Q 1259 2794 1537 2939 
Q 1816 3084 2150 3084 
Q 2853 3084 3261 2657 
Q 3669 2231 3669 1497 
Q 3669 778 3244 343 
Q 2819 -91 2113 -91 
Q 1303 -91 875 529 
Q 447 1150 447 2328 
Q 447 3434 972 4092 
Q 1497 4750 2381 4750 
Q 2619 4750 2861 4703 
Q 3103 4656 3366 4563 
z
" transform="scale(0.015625)"/>
       </defs>
       <use xlink:href="#DejaVuSans-2212"/>
       <use xlink:href="#DejaVuSans-30" transform="translate(83.789062 0)"/>
       <use xlink:href="#DejaVuSans-2e" transform="translate(147.412109 0)"/>
       <use xlink:href="#DejaVuSans-39" transform="translate(179.199219 0)"/>
       <use xlink:href="#DejaVuSans-36" transform="translate(242.822266 0)"/>
      </g>
     </g>
    </g>
    <g id="ytick_9">
     <g id="line2d_64">
      <g>
       <use xlink:href="#m6624093eb9" x="405.560342" y="253.418856" style="stroke: #000000; stroke-width: 0.8"/>
      </g>
     </g>
     <g id="text_19">
      <!-- 0.84 -->
      <g transform="translate(412.560342 257.218075) scale(0.1 -0.1)">
       <defs>
        <path id="DejaVuSans-38" d="M 2034 2216 
Q 1584 2216 1326 1975 
Q 1069 1734 1069 1313 
Q 1069 891 1326 650 
Q 1584 409 2034 409 
Q 2484 409 2743 651 
Q 3003 894 3003 1313 
Q 3003 1734 2745 1975 
Q 2488 2216 2034 2216 
z
M 1403 2484 
Q 997 2584 770 2862 
Q 544 3141 544 3541 
Q 544 4100 942 4425 
Q 1341 4750 2034 4750 
Q 2731 4750 3128 4425 
Q 3525 4100 3525 3541 
Q 3525 3141 3298 2862 
Q 3072 2584 2669 2484 
Q 3125 2378 3379 2068 
Q 3634 1759 3634 1313 
Q 3634 634 3220 271 
Q 2806 -91 2034 -91 
Q 1263 -91 848 271 
Q 434 634 434 1313 
Q 434 1759 690 2068 
Q 947 2378 1403 2484 
z
M 1172 3481 
Q 1172 3119 1398 2916 
Q 1625 2713 2034 2713 
Q 2441 2713 2670 2916 
Q 2900 3119 2900 3481 
Q 2900 3844 2670 4047 
Q 2441 4250 2034 4250 
Q 1625 4250 1398 4047 
Q 1172 3844 1172 3481 
z
" transform="scale(0.015625)"/>
       </defs>
       <use xlink:href="#DejaVuSans-2212"/>
       <use xlink:href="#DejaVuSans-30" transform="translate(83.789062 0)"/>
       <use xlink:href="#DejaVuSans-2e" transform="translate(147.412109 0)"/>
       <use xlink:href="#DejaVuSans-38" transform="translate(179.199219 0)"/>
       <use xlink:href="#DejaVuSans-34" transform="translate(242.822266 0)"/>
      </g>
     </g>
    </g>
    <g id="ytick_10">
     <g id="line2d_65">
      <g>
       <use xlink:href="#m6624093eb9" x="405.560342" y="214.20242" style="stroke: #000000; stroke-width: 0.8"/>
      </g>
     </g>
     <g id="text_20">
      <!-- 0.72 -->
      <g transform="translate(412.560342 218.001639) scale(0.1 -0.1)">
       <defs>
        <path id="DejaVuSans-37" d="M 525 4666 
L 3525 4666 
L 3525 4397 
L 1831 0 
L 1172 0 
L 2766 4134 
L 525 4134 
L 525 4666 
z
" transform="scale(0.015625)"/>
       </defs>
       <use xlink:href="#DejaVuSans-2212"/>
       <use xlink:href="#DejaVuSans-30" transform="translate(83.789062 0)"/>
       <use xlink:href="#DejaVuSans-2e" transform="translate(147.412109 0)"/>
       <use xlink:href="#DejaVuSans-37" transform="translate(179.199219 0)"/>
       <use xlink:href="#DejaVuSans-32" transform="translate(242.822266 0)"/>
      </g>
     </g>
    </g>
    <g id="ytick_11">
     <g id="line2d_66">
      <g>
       <use xlink:href="#m6624093eb9" x="405.560342" y="174.985984" style="stroke: #000000; stroke-width: 0.8"/>
      </g>
     </g>
     <g id="text_21">
      <!-- 0.60 -->
      <g transform="translate(412.560342 178.785203) scale(0.1 -0.1)">
       <use xlink:href="#DejaVuSans-2212"/>
       <use xlink:href="#DejaVuSans-30" transform="translate(83.789062 0)"/>
       <use xlink:href="#DejaVuSans-2e" transform="translate(147.412109 0)"/>
       <use xlink:href="#DejaVuSans-36" transform="translate(179.199219 0)"/>
       <use xlink:href="#DejaVuSans-30" transform="translate(242.822266 0)"/>
      </g>
     </g>
    </g>
    <g id="ytick_12">
     <g id="line2d_67">
      <g>
       <use xlink:href="#m6624093eb9" x="405.560342" y="135.769548" style="stroke: #000000; stroke-width: 0.8"/>
      </g>
     </g>
     <g id="text_22">
      <!-- 0.48 -->
      <g transform="translate(412.560342 139.568767) scale(0.1 -0.1)">
       <use xlink:href="#DejaVuSans-2212"/>
       <use xlink:href="#DejaVuSans-30" transform="translate(83.789062 0)"/>
       <use xlink:href="#DejaVuSans-2e" transform="translate(147.412109 0)"/>
       <use xlink:href="#DejaVuSans-34" transform="translate(179.199219 0)"/>
       <use xlink:href="#DejaVuSans-38" transform="translate(242.822266 0)"/>
      </g>
     </g>
    </g>
    <g id="ytick_13">
     <g id="line2d_68">
      <g>
       <use xlink:href="#m6624093eb9" x="405.560342" y="96.553112" style="stroke: #000000; stroke-width: 0.8"/>
      </g>
     </g>
     <g id="text_23">
      <!-- 0.36 -->
      <g transform="translate(412.560342 100.352331) scale(0.1 -0.1)">
       <use xlink:href="#DejaVuSans-2212"/>
       <use xlink:href="#DejaVuSans-30" transform="translate(83.789062 0)"/>
       <use xlink:href="#DejaVuSans-2e" transform="translate(147.412109 0)"/>
       <use xlink:href="#DejaVuSans-33" transform="translate(179.199219 0)"/>
       <use xlink:href="#DejaVuSans-36" transform="translate(242.822266 0)"/>
      </g>
     </g>
    </g>
    <g id="ytick_14">
     <g id="line2d_69">
      <g>
       <use xlink:href="#m6624093eb9" x="405.560342" y="57.336676" style="stroke: #000000; stroke-width: 0.8"/>
      </g>
     </g>
     <g id="text_24">
      <!-- 0.24 -->
      <g transform="translate(412.560342 61.135895) scale(0.1 -0.1)">
       <use xlink:href="#DejaVuSans-2212"/>
       <use xlink:href="#DejaVuSans-30" transform="translate(83.789062 0)"/>
       <use xlink:href="#DejaVuSans-2e" transform="translate(147.412109 0)"/>
       <use xlink:href="#DejaVuSans-32" transform="translate(179.199219 0)"/>
       <use xlink:href="#DejaVuSans-34" transform="translate(242.822266 0)"/>
      </g>
     </g>
    </g>
    <g id="ytick_15">
     <g id="line2d_70">
      <g>
       <use xlink:href="#m6624093eb9" x="405.560342" y="18.12024" style="stroke: #000000; stroke-width: 0.8"/>
      </g>
     </g>
     <g id="text_25">
      <!-- 0.12 -->
      <g transform="translate(412.560342 21.919459) scale(0.1 -0.1)">
       <use xlink:href="#DejaVuSans-2212"/>
       <use xlink:href="#DejaVuSans-30" transform="translate(83.789062 0)"/>
       <use xlink:href="#DejaVuSans-2e" transform="translate(147.412109 0)"/>
       <use xlink:href="#DejaVuSans-31" transform="translate(179.199219 0)"/>
       <use xlink:href="#DejaVuSans-32" transform="translate(242.822266 0)"/>
      </g>
     </g>
    </g>
    <g id="text_26">
     <!-- Score -->
     <g transform="translate(454.804092 179.184219) rotate(-90) scale(0.1 -0.1)">
      <use xlink:href="#DejaVuSans-53"/>
      <use xlink:href="#DejaVuSans-63" transform="translate(63.476562 0)"/>
      <use xlink:href="#DejaVuSans-6f" transform="translate(118.457031 0)"/>
      <use xlink:href="#DejaVuSans-72" transform="translate(179.638672 0)"/>
      <use xlink:href="#DejaVuSans-65" transform="translate(218.501953 0)"/>
     </g>
    </g>
   </g>
   <g id="LineCollection_1"/>
   <g id="patch_8">
    <path d="M 390.854179 312.24351 
L 398.20726 312.24351 
L 405.560342 312.24351 
L 405.560342 18.12024 
L 398.20726 18.12024 
L 390.854179 18.12024 
L 390.854179 312.24351 
z
" style="fill: none; stroke: #000000; stroke-width: 0.8; stroke-linejoin: miter; stroke-linecap: square"/>
   </g>
  </g>
 </g>
 <defs>
  <clipPath id="p82b92376ac">
   <rect x="39.58149" y="18.12024" width="328.427075" height="294.12327"/>
  </clipPath>
  <clipPath id="pa708293647">
   <rect x="390.854179" y="18.12024" width="14.706163" height="294.12327"/>
  </clipPath>
 </defs>
</svg>
